<?xml version="1.0" encoding="utf-8"?>
<!-- Generator: Adobe Illustrator 19.0.0, SVG Export Plug-In . SVG Version: 6.00 Build 0)  -->
<svg version="1.1" id="Calque_1" xmlns="http://www.w3.org/2000/svg" xmlns:xlink="http://www.w3.org/1999/xlink" x="0px" y="0px"
	 viewBox="0 0 612 792" style="enable-background:new 0 0 612 792;" xml:space="preserve">
<g>
	<path d="M432,401c0,63.3,0,126.7,0,190c-3.4,23.4-16.4,39.4-37.4,49.7c-6,2.9-12.3,3.4-18.6,4.3c-6,0-12,0-18,0
		c-19.8-2.4-34.6-12.8-45.3-29.3c-6.6-10.2-10.1-21.5-10.1-33.6c-0.2-57.5-0.2-114.9,0-172.4c0-11.7,3.3-22.7,9.5-32.7
		c2.2-3.6,2.4-6.4-0.1-10c-6.8-9.7-9.6-20.7-9.5-32.5c0.1-31.6-0.2-63.3,0.1-95c0.3-26.1,6.8-50.4,22.2-71.9
		c10.7-14.9,24.1-26.1,41.6-32.2c4.1-1.4,8.5-1.3,12.6-2.5c5,0,10,0,15,0c12.9,3.2,18.5,10.5,18.5,25c0,64.8,0.1,129.6-0.1,194.4
		c0,6.7,1.5,11.9,6.1,17C426.6,378.2,431,389,432,401z"/>
	<path d="M163,645c-6,0-12,0-18,0c-25.7-3.9-42.3-18.7-51.7-42.4c-1.5-3.7-1.2-7.8-2.3-11.6c0-63.7,0-127.3,0-191
		c2-15.5,9.5-28,21-38.4c4.8-4.3,10.1-7.7,15.8-10.3c3.8-1.7,5.1-4.1,4.9-8.1c-0.3-4.6-0.4-9.3,0-14c0.4-5-1.4-7.9-6.1-10
		c-16.2-7.2-26.7-19.9-33.2-36.1c-1.6-3.9-1.3-8.1-2.5-12.1c0-40.3,0-80.7,0-121c0.9-4.2,1.9-8.3,5.2-11.5c3.3-3.3,7.2-5,11.8-5.5
		c3,0,6,0,9,0c12,2.9,17.7,9.8,18.4,22.6c0.3,5.3,0.1,10.7,0.1,16c0,29.7-0.1,59.3,0,89c0,12.3,8.1,20.1,20.1,19.9
		c9.7-0.2,17.6-7.6,18.7-17.5c0.2-2.2,0.2-4.3,0.2-6.5c0-31.3,0-62.7,0-94c0-1.8,0-3.7,0-5.5c0.2-13,5.4-20.1,17.5-24
		c3.3,0,6.7,0,10,0c12.6,3,18.4,10.2,18.4,23.4c0.1,35,0.5,70-0.1,105c-0.5,25.7-12.5,45.3-35.6,57.2c-5.3,2.8-8,5.8-7.3,11.9
		c0.5,4.5,0.2,9,0.1,13.5c-0.1,3.4,1.2,5.5,4.4,7c25.8,12.9,38.6,33.9,38.6,62.6c0.1,55.3,0,110.7,0,166c0,28.6-16.3,52.4-42.9,62.8
		C172.8,644.3,167.8,643.9,163,645z"/>
</g>
</svg>
