<?xml version="1.0" encoding="utf-8"?>
<!-- Generator: Adobe Illustrator 19.0.0, SVG Export Plug-In . SVG Version: 6.00 Build 0)  -->
<svg version="1.1" id="Calque_1" xmlns="http://www.w3.org/2000/svg" xmlns:xlink="http://www.w3.org/1999/xlink" x="0px" y="0px"
	 viewBox="0 0 612 792" style="enable-background:new 0 0 612 792;" xml:space="preserve">
<g>
	<path d="M61,201c2.1-2,3.9-4.9,6.4-5.8c5.8-2.1,10.6,2.4,10.6,9.4c0.1,30.2-0.1,60.3,0.1,90.5c0,4.5,1,9.3,2.5,13.6
		c2.2,6.2,7.2,10.2,14.4,12.6c0-2.3,0-4.2,0-6.1c0-36.5,0-73,0-109.5c0-6.6,2.4-10.2,7.2-10.8c5.8-0.8,9.8,2.9,9.8,9.6
		c0.1,17.5,0,35,0,52.5c0,21.2,0,42.3,0,63.5c8.1-0.5,15.7-9.2,16.8-19c0.3-3,0.3-6,0.3-9c0-29,0-58,0-87c0-6.3,2.4-9.8,7-10.5
		c5.8-1,10,2.8,10,9.3c0.1,19.3,0,38.7,0.1,58c0,11,0,22,0,33c-0.1,19.5-11.6,35.8-30.1,42.2c-3.4,1.2-4.2,2.7-4.1,6
		c0.2,12,0.1,24,0,36c0,2.8,0.7,4.3,3.5,5.6c14.5,6.7,22.3,17.9,22.3,34.2c0,49.1,0,98.3,0,147.4c0,17.8-9.3,30.7-26.3,36.4
		c-0.6,0.2-1.1,0.6-1.7,0.9c-4,0-8,0-12,0c-0.4-0.2-0.8-0.6-1.3-0.7c-17.9-5.7-27-18.1-27-36.7c0-49.1,0-98.2,0-147.4
		c0-16.3,7.7-27.4,22.1-34.2c2.5-1.2,3.5-2.3,3.4-5.1c-0.2-12.5-0.1-25,0-37.5c0-2.8-0.8-3.9-3.6-4.9c-11-3.7-19.5-10.7-25.1-20.9
		c-2.3-4.3-3.7-9.1-5.5-13.7C61,269,61,235,61,201z M86.8,493.2C86.8,493.2,86.7,493.2,86.8,493.2c0,13.3,0,26.6,0,40
		c0,12.7-0.1,25.3,0.1,38c0.2,9.8,6.4,15.7,16.1,15.9c11.3,0.3,17.8-6.2,17.9-17.9c0.1-30.6,0-61.3,0-91.9c0-20,0.1-40,0-59.9
		c-0.1-11.3-6-17.4-16.6-17.5c-11.4-0.1-17.4,5.5-17.4,17C86.7,442.2,86.8,467.7,86.8,493.2z"/>
	<path d="M524,604c-1.3-0.6-2.6-1.3-4-1.8c-14.6-5.4-23.8-18.7-23.8-34.2c0-47.6,0.3-95.3-0.2-142.9c-0.1-14.6,3-27,14.1-35.3
		c-4-12.9-8-24.9-11.4-37.2c-1.4-4.9-2-10.2-2-15.3c-0.1-28.6-3.1-57.3,2.5-85.7c4.6-23.4,15.6-43.8,32-61.1c1.7-1.8,3.9-3,5.9-4.5
		c1.3,0,2.7,0,4,0c6.8,3,6.5,8.9,6.5,15.1c-0.1,60.8-0.1,121.5,0,182.3c0,2.1,1.3,4.8,3,6.1c9.1,7.6,14.1,17,14.1,29
		c-0.1,49.9,0,99.9-0.1,149.8c0,15.6-9.3,28.5-24.1,34c-1.2,0.4-2.3,1.1-3.5,1.6C532.7,604,528.3,604,524,604z M547.4,493
		C547.4,493,547.4,493,547.4,493c0-25.5,0.1-51-0.1-76.4c-0.1-10.9-5.8-16.6-16.1-16.8c-11.3-0.2-17.2,5.1-17.9,16.1
		c-0.1,1.2,0,2.3,0,3.5c0,49.3,0,98.6,0,147.9c0,2.5,0.2,5,0.7,7.4c1.1,5.7,4.5,9.5,10,11.4c12.8,4.3,23.3-3,23.4-16.7
		C547.5,543.9,547.4,518.5,547.4,493z M530,220.9c-9.4,13.5-15.2,28.3-15.9,44.3c-1,22.6-0.9,45.3-0.7,67.9
		c0.1,16,4.4,31.2,11.9,45.5c0.8,1.5,2.4,2.5,3.6,3.8c0.3-0.3,0.7-0.6,1-0.9C530,328,530,274.5,530,220.9z"/>
	<path d="M316.8,578.3c-89.3-0.4-162.2-74.2-161.8-163.8c0.4-87.1,75.2-160.9,162.4-160.4c88.9,0.6,162.3,74.5,161.8,162.9
		C478.6,505.4,404.8,578.7,316.8,578.3z M316.9,561.2c81.3,0.1,145-63.4,145.2-144.6c0.1-81.2-63.7-145.4-144.6-145.3
		c-81.8,0-145.3,63.6-145.4,145.5C171.9,497.4,235.8,561.1,316.9,561.2z"/>
	<path d="M103.8,442.1c4.7,0.1,8.4,4,8.3,8.8c-0.1,4.6-3.6,8.1-8.3,8.2c-4.7,0-8.7-3.9-8.7-8.5C95.2,446,99.2,442,103.8,442.1z"/>
	<path d="M530.5,459.1c-4.8,0.1-8.6-3.6-8.6-8.4c0-4.6,3.5-8.3,8-8.6c4.6-0.2,8.8,3.6,8.9,8.2C539.1,455,535.3,459,530.5,459.1z"/>
	<path d="M419.4,416.6c0,54.9-47.8,102.5-102.6,102.4c-54.9-0.2-102.1-47.9-102-103c0.1-54.3,47.8-102,102.1-101.8
		C371.9,314.2,419.4,361.6,419.4,416.6z M402.3,416.7c0.1-47.5-37.4-85.5-84.5-85.6c-48.4-0.1-85.8,37.2-85.9,85.6
		c-0.1,47.3,37.5,85,85,85.1C364.5,502,402.2,464.5,402.3,416.7z"/>
</g>
</svg>
