<?xml version="1.0" encoding="utf-8"?>
<!-- Generator: Adobe Illustrator 19.0.0, SVG Export Plug-In . SVG Version: 6.00 Build 0)  -->
<svg version="1.1" id="Calque_1" xmlns="http://www.w3.org/2000/svg" xmlns:xlink="http://www.w3.org/1999/xlink" x="0px" y="0px"
	 viewBox="0 0 612 792" style="enable-background:new 0 0 612 792;" xml:space="preserve">
<style type="text/css">
	.st0{fill:#1372DE;}
	.st1{fill:#1358A6;}
	.st2{fill:#46BAFD;}
	.st3{fill:#46B9FD;}
</style>
<g>
	<path class="st0" d="M504,668.8c-150.7,0-301.3,0-452,0c-5.3-1.3-11-0.8-16-4.2c-8.8-6-13.4-14.2-14-24.8c0-4,0-8,0-12
		c1-1.7,0.6-3.6,0.7-5.4c0.9-14.8,20.7-27.6,35-26.7c12.9,0.8,23.4,5.9,30.8,16.8c1,1.5,2,3,2.5,4.9c-0.5-3.4-0.4-6.9-0.4-10.3
		c0-133.5,0-267.1,0-400.6c0-4.2,0.2-8.3-0.2-12.5c-0.2-1.8,0-3.3,1.4-4.5c3.6-0.9,7.3,0.1,10.9,0.1c116.4-0.1,232.8-0.1,349.2,0
		c4,0,7.9-0.9,11.8-1.1c1.8,1.1,2.3,2.8,2,4.7c-0.9,6.5-0.5,13-0.5,19.5c0,131.6,0,263.3,0,394.9c0,4,0.3,8-1.1,11.7
		c5-12.3,13.9-19.9,27-22.5c16-3.1,28.7,2.8,38.5,15.5c3.6,4.6,3,10.4,4.3,15.6c0,3.7,0,7.3,0,11c-1.3,5.8-1,11.9-5.1,17.2
		c-6,7.6-13.1,12.4-23,12.3C505.2,668.3,504.5,668.3,504,668.8z"/>
	<path class="st1" d="M534,627.8c-2.2-6.8-4.7-13.3-10-18.6c-19.1-19.2-50.2-12.2-58.9,13.5c-0.4,1.1-0.8,2.2-1.9,3.3
		c-0.1-1.6-0.2-3.3-0.2-4.9c0-95.9,0-191.9,0-287.8c0-44.3,0-88.6,0-132.9c0-3.8,0.5-7.6,0.7-11.4c-2.7-2.2-2-5-1.2-7.8
		c4.2-13.9,15.1-22.7,29.5-23.9c0.3,0,0.6-0.2,0.9-0.5c4,0,8,0,12,0c10.5,0.7,18.7,5.2,24.8,14c3.4,5,2.9,10.6,4.2,16
		C534,333.8,534,480.8,534,627.8z"/>
	<path class="st1" d="M92.2,190c1.6,18.4,0.7,36.9,0.7,55.4c0.1,125.6,0,251.1,0,376.7c0,1.3,0,2.6,0,4c-2.5-4.6-4.2-9.3-7.4-13.5
		c-9.3-12.1-21.7-16.5-36.2-13.4c-13.5,3-22.3,12-26.3,25.4c-0.3,1.1-0.7,2.2-1.1,3.3c0-147,0-294,0-441c1.3-5.8,1-11.9,5.1-17.2
		c6-7.6,13.1-12.4,23-12.3c0.7,0,1.3,0,1.8-0.5c3.7,0,7.3,0,11,0c1.3,1,2.9,0.5,4.3,0.7c12.8,2,24.4,13.3,26.5,26.1
		C94.2,185.9,94.5,188.3,92.2,190z"/>
	<path class="st2" d="M251.8,476.2c0-22.3,0.5-44.7-0.1-67c-1.4-58.5-0.2-116.9-0.7-175.4c0-2-0.1-4,0.1-6c0.5-4.5,2.4-8.1,7.3-8.9
		c5.1-0.9,8.5,1,10.6,6.2c5.5,13.9,10.9,27.9,16.4,41.9c15.6,40.2,31.2,80.4,46.8,120.6c19.7,50.9,39.5,101.9,59.2,152.8
		c3.1,8.1-0.5,13.5-9.2,13.5c-40.3,0.1-80.6,0-121,0c-6.5,0-9.3-2.8-9.3-9.6C251.8,521.5,251.9,498.8,251.8,476.2
		C251.8,476.2,251.8,476.2,251.8,476.2z"/>
	<path class="st2" d="M216.5,218.8c3,0,6-0.1,9,0c4.7,0.2,7.4,3.1,8.2,7.4c0.8,4-1,7.6-4.8,8.9c-3.4,1.2-3.9,3.2-3.9,6.3
		c0.1,96.6,0,193.2,0,289.8c0,3.2,0.6,5.1,4,6.3c3.8,1.4,5.5,5,4.7,9c-0.8,4-3.3,7.1-7.8,7.2c-6.3,0.2-12.7,0.2-19,0
		c-4.1-0.1-7-2.2-7.8-6.4c-0.8-4.1,0.2-7.9,4.3-9.7c3.3-1.4,3.8-3.5,3.8-6.6c-0.1-96.4-0.1-192.9,0-289.3c0-3.3-0.4-5.6-4-7
		c-4.2-1.7-5-5.6-4.1-9.7c0.9-4.1,3.7-6.2,7.9-6.3C210.2,218.7,213.3,218.8,216.5,218.8z"/>
	<path class="st2" d="M392.9,589.3c0,2.8,0.1,5.7,0,8.5c-0.2,4.5-2.5,7.6-6.8,8.8c-4.5,1.2-8.2-0.6-9.9-4.8c-1.5-3.6-3.8-3.9-7-3.9
		c-31.3,0.1-62.7,0.1-94,0c-3.4,0-5.9,0.2-7.2,4.3c-1.4,4.2-5.4,5.2-9.5,4.5c-3.8-0.7-5.9-3.3-6.6-7.2c-1.2-6.8-0.3-13.6,0.1-20.4
		c0.3-4,2.9-6.3,6.7-7.1c4.4-0.9,7.8,1.2,9.4,4.9c1.4,3.3,3.3,3.9,6.5,3.9c31.8-0.1,63.7-0.1,95.5,0c3.1,0,4.7-0.9,6-3.8
		c1.8-4.1,5.4-6,9.9-4.9c4.3,1.1,6.7,4.2,6.9,8.7C393,583.6,392.9,586.4,392.9,589.3z"/>
	<path class="st3" d="M172,403.9c0-5.5-0.1-11,0-16.5c0.2-6.3,3.3-9.7,8.9-9.6c5.3,0,8.8,3.7,8.8,9.9c0.1,10.8,0.1,21.6,0,32.4
		c-0.1,6.3-3.9,10.6-9.1,10.4c-5.3-0.1-8.6-4.2-8.8-10.7c-0.1-2.7,0-5.3,0-8C172,409.2,172,406.5,172,403.9
		C172,403.9,172,403.9,172,403.9z"/>
	<path class="st3" d="M321.8,633.6c-5.5,0-11,0.1-16.4,0c-5.8-0.2-9.4-3.7-9.4-8.8c0-5.6,3.4-8.9,9.6-9c11.1-0.1,22.3-0.1,33.4,0
		c5.6,0.1,9.6,3.7,9.7,8.6c0.1,4.4-4.3,8.9-9.5,9.1C333.4,633.8,327.6,633.6,321.8,633.6C321.8,633.6,321.8,633.6,321.8,633.6z"/>
	<path class="st0" d="M269,474.5c0-18.7,0.1-37.3-0.1-56c0-4.2,0.8-6,5.5-5.8c14.1,0.6,27.9-1.6,41.2-6.4c3.2-1.2,4.7-0.6,5.9,2.7
		c15.9,41.1,31.9,82.3,48,123.3c1.3,3.4,0.6,4.4-3,4.4c-31-0.1-62-0.1-92.9,0c-4,0-4.6-1.9-4.6-5.2C269,512.4,269,493.5,269,474.5
		C269,474.5,269,474.5,269,474.5z"/>
	<path class="st0" d="M270.2,277.5c6.1,15.7,12.2,31.3,18.3,47c7.7,19.7,15.2,39.4,23.1,59c1.6,3.9,0.8,5.5-3.2,6.8
		c-11.4,3.6-23,5.1-35,4.6c-2.8-0.1-4.3-0.8-4.3-4c0-37.8,0-75.5,0-113.3C269.4,277.6,269.8,277.6,270.2,277.5z"/>
	<path class="st2" d="M299.8,447.8c-1.7,0-3.3,0.1-5,0c-5-0.5-7.9-3.7-7.8-8.6c0-4.8,3-8.1,8-8.4c3.3-0.2,6.7-0.2,10,0
		c5.1,0.3,8,3.4,8.1,8.3c0.1,5.1-3,8.4-8.2,8.7C303.2,447.9,301.5,447.8,299.8,447.8C299.8,447.8,299.8,447.8,299.8,447.8z"/>
</g>
</svg>
