<?xml version="1.0" encoding="utf-8"?>
<!-- Generator: Adobe Illustrator 19.0.0, SVG Export Plug-In . SVG Version: 6.00 Build 0)  -->
<svg version="1.1" id="Calque_1" xmlns="http://www.w3.org/2000/svg" xmlns:xlink="http://www.w3.org/1999/xlink" x="0px" y="0px"
	 viewBox="0 0 612 792" style="enable-background:new 0 0 612 792;" xml:space="preserve">
<style type="text/css">
	.st0{fill:#E9E9E9;}
	.st1{fill:#34AEA9;}
	.st2{fill:#F5D6A3;}
	.st3{fill:#C93941;}
	.st4{fill:#E75C5F;}
	.st5{fill:#C83941;}
	.st6{fill:#EAB184;}
	.st7{fill:#778C99;}
	.st8{fill:#75BEE7;}
</style>
<g>
	<path class="st0" d="M169,478.8c5.9-3.6,12.6-5.2,18.6-8.8c2.7-1.6,7.4-3.1,11.6-2.9c2,2.5,1.4,5.4,1.4,8.2c0,33.3,0,66.6,0,99.9
		c0,1.7,0,3.3,0,5c0,2.9,1.5,4.2,4.3,4.2c1.5,0,3,0,4.5,0c75.6,0,151.2,0,226.8,0c0.7,0,1.3,0,2,0c6.7-0.1,7.1-0.4,7.1-7.1
		c0-35.1,0-70.3,0-105.4c0-2-0.3-4,0.6-5.9c10.2,3.7,20.4,7.2,30,12.1c1.7,2.3,1.5,5,1.5,7.7c-0.1,40.8,2.5,81.4,8.9,121.7
		c0.9,5.9,1.8,11.9,3.4,17.6c4.6,16.1,2.1,32.4,2.6,48.6c0,1.5-0.3,3-1.4,4.2c-112,0-224.1,0-336.1,0c-1.7-2-1.5-4.3-1.5-6.7
		c0-10,0-20,0-30c0-3.7,0.7-7.3,1.6-10.8c5.5-24.1,8.6-48.5,10.5-73.1c2-24.9,3.3-49.8,2.9-74.8C168.4,481.4,168.7,480.1,169,478.8z
		"/>
	<path class="st1" d="M446,466.1c1,1.5,0.9,3.2,0.9,4.8c0,36.7-0.1,73.3,0.1,110c0,4.2-1.2,5.2-5.3,5.2c-78.8-0.1-157.7-0.1-236.5,0
		c-4.8,0-6.1-1.2-6.1-6c0.2-37.7,0.1-75.3,0.2-113c20.6-8.1,41.1-16.3,61.7-24.4c0.9-0.1,1.5,0.4,1.9,1.2c1.1,5.4,0.8,10.9,1.4,16.4
		c2.7,25.1,24.5,47.2,49.6,50.4c19.4,2.5,36.4-2.6,50.6-15.8c8.3-7.7,13.8-17.4,16.4-28.6c1.6-7.3,1.7-14.8,2.5-22.3
		c0.5-1.1,1.4-1.7,2.6-1.4C405.9,450.4,425.9,458.3,446,466.1z"/>
	<path class="st2" d="M262.3,444.1c-0.5-0.4-1-0.9-1.5-1.3c-10.6-10.4-20.6-21.2-27.9-34.2c-9.8-17.4-16.2-35.9-18.9-55.7
		c-1-7.2-2.3-14.4-1.9-21.8c1.6-1.5,3.7-1.5,5.6-1.4c15.7,0.9,31.5,0.1,47.2,0.3c9.1,0.1,18.2,0.7,27.3-0.1c2.1,0.1,3.8,1.1,5.5,2.2
		c15.3,9,30.8,9.3,46.4,0.6c1.7-1,3.4-2.1,5.4-2.6c11.3,0,22.5-0.2,33.8,0c8,0.2,15.9-0.1,23.9,0c5.6,0,11.3-0.4,16.9,0.1
		c5.8,0.5,7.1-0.8,7.4-6.4c0.1-2-0.1-4,1.6-5.6c0.3,0,0.6,0,0.9,0c1.1,28.1-3.7,55.2-15.9,80.7c-6.7,14-15.3,26.8-26.7,37.6
		c-2,1.9-4.5,3.5-5.6,6.3c-0.7,0.5-1.5,1-2.2,1.5c-4.8,6.5-12,10-18.9,13.4c-24,11.8-48.7,13.5-73.9,4.1c-8.8-3.2-17-7.5-24.4-13.2
		C264.8,447.1,263.3,445.9,262.3,444.1z"/>
	<path class="st1" d="M491.1,678.1c-0.1-1-0.2-2-0.2-3c2-25.9-2.7-51.2-7.4-76.5c-2.9-15.5-4.1-31.3-5.2-47
		c-1.7-24.4-2.9-48.8-2.3-73.3c19.9,7.9,39.9,15.7,59.8,23.6c2.2,0.9,4.2,1.2,6.7,0.7c5.9-1.3,10.8,1.2,14.8,5.4
		c7.3,7.6,10.3,17.3,12.7,27.2c4.2,17.8,5.1,35.8,5.3,54c0.3,28.3-1.8,56.5-4.4,84.7c-0.3,3.4-1.6,4.4-4.9,4.4
		C541,678,516,678.1,491.1,678.1z"/>
	<path class="st1" d="M169,478.8c1.5,0.9,1.1,2.3,1.1,3.6c-0.2,49.2-2.6,98.2-13.1,146.4c-2.9,13.4-1.1,26.9-1.8,40.3
		c-0.2,3-0.1,6-0.2,9c-24.8,0-49.6,0-74.4,0.1c-2.5,0-4.3,0-4.6-3.4c-2.7-28.2-5-56.4-4.6-84.7c0.3-22.1,1.2-44.3,8.6-65.5
		c2.3-6.5,5.1-12.7,10.3-17.4c4.3-3.9,9.2-6,15.1-4.4c1.8,0.5,3.3-0.1,4.8-0.7C129.8,494.3,149.4,486.6,169,478.8z"/>
	<path class="st3" d="M294,177.3c2.2-2.6,5.1-3.3,8.5-3.3c12.7,0.1,25.3,0.1,38,0c3.1,0,5.5,0.8,7.5,3.1c1.5,1.6,1.6,3.6,1.6,5.6
		c0.1,24.1,0.1,48.1,0,72.2c0,1.3-0.1,2.7-0.6,3.9c-2.6,3.6-5.1,0.6-7.2-0.4c-9.9-5-20.1-6.2-30.9-3.7c-4.5,1.1-8.7,3-12.8,5.3
		c-1.5,0.9-3.3,2.8-5,0.1c-0.8-2.2-0.7-4.6-0.7-6.9c0-22.6,0-45.2,0-67.7C292.4,182.6,291.9,179.6,294,177.3z"/>
	<path class="st4" d="M202.8,290c2.4-4.4,1.4-9.4,2.1-14c2.9-20.6,10-39.4,23.1-55.8c14.4,14.4,29.3,28.3,42.9,43.5
		c2.4,2.7,5.1,5.2,7.6,7.8c1.5,1.5,3.2,3,3.3,5.4c-1.8,4.5-1.4,10-6,13.2c-2.1,0.7-4.3,0.6-6.4,0.6c-20.9,0.1-41.9-0.2-62.8,0.2
		C205.3,290.9,203.9,291,202.8,290z"/>
	<path class="st4" d="M415.3,220.8c13.2,16.7,20.3,35.9,22.8,56.9c0.5,3.8,0.7,7.6,1,11.4c-1.4,1.5-3.2,1.6-5.1,1.6
		c-21.4,0.1-42.8,0.2-64.2,0c-0.8,0-1.7-0.2-2.5-0.4c-5.2-2.9-4.5-8.6-6.2-13.2c0.5-3.7,3.1-6.2,5.5-8.6
		c15-15.3,30.2-30.3,45.4-45.5C412.9,222,413.8,221,415.3,220.8z"/>
	<path class="st4" d="M348,260.1c0-27.7,0-55.3,0-83c18.1,3.9,34.1,12,48.4,23.6c1.2,0.9,2.4,1.8,3.6,2.6c-0.4,3.6-2.9,6.3-4.6,9.2
		c-10.7,18.2-21.7,36.1-32.5,54.2c-1,1.7-1.9,3.5-3.7,4.6C354.3,268.7,350.7,264.9,348,260.1z"/>
	<path class="st4" d="M294,177.3c0,27.9,0,55.8,0,83.6c-2.4,4.4-5.7,8-10.2,10.4c-5.5-4.9-8-11.7-11.8-17.7
		c-10.1-16.2-19.1-33.1-29.8-49c-0.3-0.4-0.4-0.9-0.3-1.4c2.4-0.1,3.8-2,5.4-3.3C261.3,188.9,276.7,181.2,294,177.3z"/>
	<path class="st3" d="M366.1,289.1c24.3,0,48.6,0,73,0c8.2,1.2,13.1,6.5,13.1,14.2c0,7.4-5,12.8-12.9,13.8c-1.8,0.2-3.5,0.7-5.2,1
		c0,0,0.1-0.2,0.1-0.2c-3.1,0.7-6.2,0.8-9.3,0.8c-18.4,0-36.7,0-55.1,0c-2.6,0-5.3,0.3-7.8-0.8c-1.7-1-1.2-2.6-0.7-3.9
		c2.7-6.9,3.9-13.9,3.6-21.3C364.6,291.3,364.9,290,366.1,289.1z"/>
	<path class="st3" d="M202.8,290c3.2-0.8,6.5-0.9,9.8-0.9c21.4,0.1,42.8,0,64.2,0c1.8,1.5,1.6,3.6,1.6,5.5
		c-0.2,6.5,0.6,12.8,3.2,18.9c0.6,1.4,1.6,3.1-0.4,4.4c-2.4,1.1-4.9,0.8-7.4,0.8c-18.2,0-36.5,0-54.7,0c-4.5,0-8.8-1.4-13.2-1.5
		c-7.5-1.2-12.5-6.1-13-12.9C192.5,297.9,196.2,292.4,202.8,290z"/>
	<path class="st5" d="M242,203.2c4.2,2.8,5.8,7.5,8.3,11.6c11.3,18.7,22.5,37.5,33.8,56.2c0.3,2.4,0,4.5-3,4.9
		c-15.8-17.5-32.7-34-49.3-50.7c-1.5-1.5-3.6-2.6-3.7-5.1c3.4-4.9,6.8-9.8,10.1-14.7C239.1,204.1,239.9,202.6,242,203.2z"/>
	<path class="st3" d="M358.9,271.2c11.7-19.6,23.5-39.2,35.2-58.8c1.9-3.1,3.1-6.6,5.9-9.1c2.1-0.7,3.3,0.1,4.5,1.9
		c3.5,5.2,7.1,10.4,10.7,15.6c-8.1,9.4-17.5,17.6-26,26.6c-9.1,9.6-19.4,18-27.3,28.8C359.3,275.5,358.2,273.9,358.9,271.2z"/>
	<path class="st6" d="M206,317.2c23.1,0,46.2,0,69.3,0c2.2,0,4.3,0,6.5,0c4.3,4.2,8.8,8.2,11.4,13.8c-11.3,0.8-22.6-0.2-33.8,0.3
		c-11.2,0.5-22.3-0.9-33.5,0.5c-4.3,0.5-9.2-0.6-13.8-0.7c-0.1-2-0.4-4-0.1-6C212.7,320.2,211.6,317.1,206,317.2z"/>
	<path class="st6" d="M262.3,444.1c8.3,5.7,16.6,11.5,26,15.2c24,9.4,47.7,9.4,71.5-1c8.6-3.7,16-9.2,23.8-14.2
		c1.5,26.9-7.8,48.5-32.2,61.6c-35.8,19.2-79.6-1.4-88-41.2C262.1,457.8,261.8,450.9,262.3,444.1z"/>
	<path class="st7" d="M293.2,331c-4.1-4.3-8.5-8.5-11.4-13.8c-4.9-8.8-5.4-18.3-4.9-28.1c1.4-4.4,2.8-8.7,4.2-13.1
		c1.5-1.3,2.2-3.2,3-4.9c3.1-3.6,6.3-7.1,9.9-10.2c17.8-12,35.8-11.7,54-0.8c3.9,3.4,7.7,7,10.9,11.1c0.6,1.9,1.7,3.5,3,4.9
		c1.4,4.3,2.8,8.6,4.2,12.9c0.6,9.8-0.4,19.3-5,28.1c-1.8,6.6-5.9,11.1-12,13.9C330.4,343.7,311.8,343.1,293.2,331z"/>
	<path class="st6" d="M349.1,331.1c4.8-4,8.6-8.7,12-13.9c22.6,0,45.1,0,67.7,0c1.7,0,3.7-0.7,5.3,0.7c-1.9,2-0.9,4.5-1,6.7
		c-0.1,6.1-2.1,8-8.3,7.4c-12.8-1.2-25.7-0.1-38.5-0.3C373.9,331.4,361.5,331.9,349.1,331.1z"/>
	<path class="st0" d="M294.8,296c0-14.8,12-26.9,26.5-26.8c14.8,0.1,26.6,11.9,26.7,26.7c0.1,15-11.9,27.1-26.8,27.1
		C306.6,323,294.9,311,294.8,296z"/>
	<path class="st8" d="M321.6,317.2c-11.8,0.1-21.6-9.3-21.6-20.9c0-11.6,9.5-21.2,21.2-21.3c11.6-0.1,21.5,9.3,21.6,20.4
		C343.1,307.4,333.6,317.1,321.6,317.2z"/>
</g>
</svg>
