<?xml version="1.0" encoding="utf-8"?>
<!-- Generator: Adobe Illustrator 19.0.0, SVG Export Plug-In . SVG Version: 6.00 Build 0)  -->
<svg version="1.1" id="Calque_1" xmlns="http://www.w3.org/2000/svg" xmlns:xlink="http://www.w3.org/1999/xlink" x="0px" y="0px"
	 viewBox="0 0 612 792" style="enable-background:new 0 0 612 792;" xml:space="preserve">
<style type="text/css">
	.st0{fill:#50BEE6;}
	.st1{fill:#303C42;}
	.st2{fill:#FDE6AD;}
	.st3{fill:#E6E6E6;}
	.st4{fill:#FDFDFD;}
	.st5{fill:#FCFCFC;}
	.st6{fill:#313D42;}
</style>
<g>
	<path class="st0" d="M73,413.7c0.2-139.3,113.3-251.9,252.7-251.7c138.7,0.3,251.5,113.5,251.3,252.1
		C576.7,554.1,463.8,666.7,323.5,666C185,665.3,73.1,553.2,73,413.7z"/>
	<path class="st1" d="M351.2,215.1c0,8.7,0.1,17.3-0.1,26c-0.1,2.7,0.9,4.1,3.2,5.5c28.1,17.1,37.7,48.6,23.9,78.3
		c-1.3,2.9-1.3,5.2-0.2,8c11,26.2,21.9,52.5,32.8,78.8c0.8,1.9,1.5,3.5,4,3.9c3.4,0.5,5.4,2.9,6.7,6c14.1,34.3,28.3,68.6,42.5,102.8
		c2.2,5.4,1,10.9,0.7,16.3c-0.7,12.5-1.8,24.9-2.6,37.4c-0.3,4.4-1.3,8.5-3.1,12.5c-2.1,4.7-5.6,6.4-9.9,4.9
		c-4.4-1.5-7.4-6.1-5.6-10.2c2-4.4,0-6.2-2.9-8.6c-8.8-7.4-17.4-15-26.1-22.5c-2.6-2.2-4.4-4.9-5.7-8.1
		c-13.7-33.6-27.5-67.1-41.3-100.6c-1.7-4.2-2.5-8,1-11.5c1.4-1.5,0.5-2.7,0-4.1c-9.6-23.4-19.3-46.7-28.9-70.1
		c-1-2.5-2.4-3.2-4.9-2.7c-6.4,1.4-12.9,1.3-19.3,0c-2.4-0.5-3.6,0.4-4.5,2.6c-9.8,23.7-19.8,47.3-29.7,70.9
		c-0.7,1.6-1.1,2.8,0.4,4.4c2.5,2.7,2.5,6,1.1,9.3c-14.2,34.6-28.4,69.3-42.5,103.9c-0.8,1.9-2,3.4-3.6,4.7
		c-11.3,9.8-22.6,19.7-33.9,29.5c-2.8,2.4-5.9,3.9-9.6,2.4c-3.8-1.5-5.6-4.6-5.9-8.6c-1.1-15.1-2-30.2-3.1-45.3
		c-0.2-2.3,0.7-4.2,1.5-6.2c13.8-33.4,27.6-66.7,41.3-100.1c1.9-4.6,3.6-9.1,9.8-8.9c1.7,0.1,1.9-1.6,2.4-2.8
		c11.2-27,22.4-54.1,33.7-81.1c0.8-1.9,0.6-3.4-0.4-5.1c-3.7-6.6-6-13.7-6.6-21.3c-0.2-2.6-1.5-3.4-3.9-3.3c-1.7,0.1-3.3,0.1-5,0
		c-3.9-0.4-6.4,0-6.4,5.3c0,4.1-3.5,6.6-7.9,6.7c-4.5,0.1-8.1-2.4-8.3-6.9c-0.4-8.8-0.4-17.7,0-26.5c0.2-4.7,4-7.2,8.7-7.1
		c4.6,0.2,7.8,2.9,7.8,7.9c0,3.5,1.3,4.1,4.4,4.1c10.6,0,10.6,0.1,14.5-9.6c5.2-12.8,13.8-22.7,25.8-29.5c2.7-1.5,3.6-3.2,3.6-6.2
		c-0.2-16.8-0.1-33.7-0.1-50.5c0-7.5,2.7-10.2,10.2-10.2c10.7,0,21.3,0,32,0c7.4,0,10,2.5,10,9.8
		C351.3,198.1,351.2,206.6,351.2,215.1z"/>
	<path class="st1" d="M427.9,615.9c-0.2,2.9-1.8,5.5-4.9,7c-6.9,3.4-13.9,6.2-21.3,8.3c-4.3,1.2-8.5-0.9-10.2-4.9
		c-1.7-4-0.1-8.7,4.1-10.5c7-3.1,14.1-5.9,21.2-8.5C422.4,605.4,427.9,609.6,427.9,615.9z"/>
	<path class="st1" d="M335.7,645.2c-4.8-0.4-7.6-2.9-8.2-7.1c-0.7-4.1,1-8.1,5.3-9c8.1-1.8,16.3-3.1,24.5-3.9c4.3-0.4,7.1,2.7,7.7,7
		c0.6,4.6-1.7,8.1-6,9C351.1,643,343.2,644,335.7,645.2z"/>
	<path class="st1" d="M287.6,631.8c1.7,0,3.3-0.1,5,0c5.2,0.2,8.5,3.4,8.6,8.3c0.1,4.6-3.6,8.6-8.4,8.7c-4.1,0-8.3-0.1-12.4-0.7
		c-4.4-0.7-6.4-3.8-6.4-8.2c0-4.4,2.3-7.2,6.7-7.9c2.3-0.4,4.6-0.1,7-0.1C287.6,631.9,287.6,631.9,287.6,631.8z"/>
	<path class="st2" d="M368.1,298.6c-0.1,23.8-19.4,42.6-43.7,42.5c-22.5-0.1-42.4-20.2-42.3-42.6c0.2-23.7,19.6-42.8,43.1-42.7
		C349.2,256,368.2,274.9,368.1,298.6z"/>
	<path class="st3" d="M203.1,560c-0.7-9.6-1.3-18.3-2-27.1c-0.1-1.6,0.5-2.9,1.1-4.3c12.4-29.9,24.8-59.8,37.1-89.7
		c1.2-2.9,2.2-4.1,5.6-2.3c5.3,2.8,10.8,4.9,16.4,7.1c2.4,1,3.3,1.9,2.2,4.7c-12.6,30.2-25,60.4-37.4,90.7c-0.4,0.9-0.8,1.9-1.5,2.6
		C217.5,547.7,210.6,553.6,203.1,560z"/>
	<path class="st3" d="M446.9,559.6c-7.4-6.4-14.1-12.1-20.8-17.8c-1.3-1.1-1.8-2.7-2.5-4.3c-12.1-29.5-24.1-59.1-36.3-88.6
		c-1.3-3-0.8-4.2,2.2-5.3c5.6-2.1,11.1-4.3,16.5-6.9c2.9-1.4,3.9-0.5,5,2.2c12.2,29.8,24.6,59.6,36.9,89.4c0.7,1.7,1.1,3.4,1,5.3
		C448.2,541.9,447.6,550.2,446.9,559.6z"/>
	<path class="st4" d="M295.4,351.7c-0.5,1.2-0.9,2.2-1.3,3.3c-9.3,22.7-18.8,45.5-27.9,68.3c-1.3,3.3-2.6,3.1-5.3,1.8
		c-7.1-3.5-7.2-3.4-4.2-10.7c8.9-21.6,18-43.3,26.7-65c1.8-4.4,3.2-6.1,6.9-2C291.7,349,294.5,349.2,295.4,351.7z"/>
	<path class="st4" d="M363.9,343.6c7.5,18.1,14.8,35.8,22.1,53.4c2.9,7.1,5.7,14.2,8.8,21.1c1.2,2.7,0.9,3.8-2,5
		c-7.8,3.2-7.8,3.4-10.9-4.2c-8.7-21.2-17.3-42.4-26.2-63.6c-1.6-3.8-1.5-5.9,2.4-7.6C360.1,346.9,361.7,345.3,363.9,343.6z"/>
	<path class="st5" d="M334.1,217.8c0,6-0.1,12,0.1,18c0.1,2.5-0.5,3.7-3.3,3.3c-2-0.3-4-0.3-6-0.3c-9.5,0-9.5,0.1-9.6-9.7
		c0-9.5,0.1-19-0.1-28.4c-0.1-3.1,0.7-4.6,4.1-4.3c3.8,0.3,7.7,0.2,11.5,0c2.7-0.1,3.4,0.9,3.3,3.5
		C334,205.8,334.1,211.8,334.1,217.8C334.1,217.8,334.1,217.8,334.1,217.8z"/>
	<path class="st6" d="M324.7,307c-7.7,0-11.7-3.9-10.7-10.2c0.9-5.5,6.5-8,15.1-6.6c4.8,0.8,7.7,4.8,7,9.8
		C335.3,304.8,331.8,307,324.7,307z"/>
</g>
</svg>
