<?xml version="1.0" encoding="utf-8"?>
<!-- Generator: Adobe Illustrator 19.0.0, SVG Export Plug-In . SVG Version: 6.00 Build 0)  -->
<svg version="1.1" id="Calque_1" xmlns="http://www.w3.org/2000/svg" xmlns:xlink="http://www.w3.org/1999/xlink" x="0px" y="0px"
	 viewBox="0 0 612 792" style="enable-background:new 0 0 612 792;" xml:space="preserve">
<style type="text/css">
	.st0{fill:#4481C1;}
	.st1{fill:#28567F;}
	.st2{fill:#285680;}
</style>
<g>
	<path class="st0" d="M562,180.9c0,157.5,0,315,0.1,472.5c0,3.7-0.8,4.6-4.6,4.6c-159.2-0.1-318.3-0.1-477.5-0.1
		c-5.3-1.3-11-0.8-16-4.2c-8.8-6-13.4-14.2-14-24.8c0-4,0-8,0-12c1-1.7,0.6-3.6,0.7-5.4c0.7-13.5,18.2-26.1,32.6-26.8
		c14.6-0.7,29.6,8,35.7,21.4c-0.4-3.5-0.3-6.8-0.3-10.2c0-132.4,0-264.8,0-397.2c0-5.7,0.4-11.3-0.5-17c-0.3-2-0.1-4,2-5.2
		c8,2.8,16.4,2,24.7,2c135.1,0,270.3,0,405.4,0.1C554.1,178.6,558.6,177.3,562,180.9z"/>
	<path class="st1" d="M120.1,177.1c1.5,24.6,0.6,49.3,0.7,73.9c0.1,120.3,0.1,240.6,0,361c0,1.1-0.1,2.2-0.6,3.4
		c-1.9-6.3-4.6-12.1-9.2-16.8c-9.6-10-21.4-13.5-34.6-10.1C63.4,591.8,55,600.7,51,613.6c-0.3,1.1-0.7,2.2-1.1,3.3
		c0-147,0-294,0-441c1.3-5.8,1-11.9,5.1-17.2c6-7.6,13.1-12.4,23-12.3c0.7,0,1.3,0,1.8-0.5c3.7,0,7.3,0,11,0c1.5,1,3.2,0.6,4.8,0.8
		c12.2,2,23.4,12.9,25.8,25C121.9,173.8,122,175.6,120.1,177.1z"/>
	<path class="st1" d="M200,207.9c3,0,6-0.1,9,0c4.6,0.2,7.5,2.9,8.5,7.1c1,4.1-1.2,7.4-4.7,9c-3.1,1.4-4,3.2-4,6.4
		c0.1,90.7,0.1,181.3,0,272c0,2.8,0.1,5,3.4,6.3c4,1.5,5.9,5,5.2,9.3c-0.7,4.4-3.8,7.3-8.2,7.5c-6.3,0.4-12.7,0.5-19-0.1
		c-4.3-0.4-7.2-3.5-7.9-7.9c-0.6-4.1,1.2-7.4,5-8.8c4-1.4,3.4-4.4,3.4-7.3c0-57.5,0-115,0-172.5c0-32.3,0-64.7,0.1-97
		c0-3.7-0.2-6.5-4.3-8.3c-3.5-1.5-5.2-5.2-4-9.3c1.2-4.2,4-6.4,8.4-6.5C194,207.8,197,207.9,200,207.9z"/>
	<path class="st2" d="M235.1,560.7c0-2.8-0.2-5.7,0-8.5c0.4-4.9,3.5-8.4,7.9-9c4.4-0.6,7.6,1.6,9.1,5.5c1.3,3.5,3.7,3.2,6.4,3.2
		c67.6,0,135.3,0,202.9,0c17,0,34,0,51,0.1c3.1,0,5.2-0.5,6.5-3.8c1.5-3.6,4.7-5.7,8.9-4.9c4.1,0.8,6.7,3.3,7.3,7.7
		c1,6.7,0.9,13.3-0.1,19.9c-0.5,3.7-2.6,6.2-6.2,7c-4,0.8-8.2,0.2-9.8-4c-1.5-3.9-4.1-4-7.4-4c-84.1,0-168.2,0-252.4,0
		c-3.6,0-6.1,0.5-7.8,4.3c-1.7,3.9-5.7,4.4-9.5,3.7c-4.1-0.8-6.3-3.8-6.8-7.7C234.9,567.1,235.2,563.9,235.1,560.7
		C235.2,560.7,235.2,560.7,235.1,560.7z"/>
	<path class="st1" d="M385.2,604.9c-5.5,0-11,0.1-16.5,0c-5.6-0.1-9.6-3.8-9.7-8.6c-0.1-5,3.5-9,9.2-9.1c11.5-0.3,23-0.2,34.4,0
		c5.7,0.1,9.4,4.2,9.3,9.1c-0.2,4.8-4.2,8.5-9.7,8.6C396.5,605,390.8,604.9,385.2,604.9C385.2,604.9,385.2,604.9,385.2,604.9z"/>
	<path class="st1" d="M155.9,374.9c0-5.5-0.1-11,0-16.5c0.1-5.3,3.6-9.2,8.3-9.5c4.5-0.3,8.9,2.8,9.1,8c0.5,12.3,0.4,24.6,0,36.9
		c-0.2,5.2-4.6,8.3-9.2,8c-4.7-0.3-8.2-4.2-8.3-9.5C155.9,386.6,156,380.7,155.9,374.9C156,374.9,156,374.9,155.9,374.9z"/>
	<path class="st1" d="M535.8,222.7c0-14.3-4.6-14.9-14.4-14.9c-91,0.1-181.9,0.1-272.9,0.1c-10.9,0-13.5,2.6-13.5,13.6
		c0,48.5,0,97,0,145.5c0,0,0,0,0,0c0,48.2,0,96.3,0,144.5c0,11.6,2.9,14.5,14.5,14.5c89.5,0,178.9,0,268.4,0
		c15.9,0,17.8-1.8,17.8-17.7c0-56.3,0-112.6,0-168.9C535.8,300.3,535.8,261.5,535.8,222.7z M517.9,366.4c0,45.2-0.1,90.3,0.1,135.5
		c0,4.9-1.5,6.1-6.3,6.1c-84-0.1-168-0.1-251.9-0.1c-6.8,0-6.8,0-6.8-6.8c0-89.8,0-179.6,0-269.4c0-6.6,0-6.6,6.7-6.6
		c84,0,168,0.1,251.9-0.1c5,0,6.5,1.3,6.5,6.4C517.9,276.4,517.9,321.4,517.9,366.4z"/>
</g>
</svg>
