<?xml version="1.0" encoding="utf-8"?>
<!-- Generator: Adobe Illustrator 19.0.0, SVG Export Plug-In . SVG Version: 6.00 Build 0)  -->
<svg version="1.1" id="Calque_1" xmlns="http://www.w3.org/2000/svg" xmlns:xlink="http://www.w3.org/1999/xlink" x="0px" y="0px"
	 viewBox="0 0 612 792" style="enable-background:new 0 0 612 792;" xml:space="preserve">
<g>
	<path d="M217.4,573.9c-5.6-1.4-10.6-2.7-15.9-4c-5.6,15.9-11.2,31.5-16.7,47.1c-0.3-0.1-0.6-0.2-0.8-0.2c3.7-16,7.3-32,11.1-48.4
		c-4.1-1.2-8-2.4-12.5-3.7c1.9-5.8,3.7-11.4,5.6-17c31.6-92.9,63.2-185.8,94.8-278.7c0.9-2.7,1.6-4.8-0.6-7.8
		c-13.7-17.9-7.7-41.3,13.1-50.8c3.8-1.8,5.1-3.7,5-7.7c-0.3-12-0.3-24,0-36c0.1-3.9,1-8.1,2.7-11.5c3.8-7.3,11.9-7.2,15.6,0.2
		c1.7,3.4,2.4,7.6,2.5,11.5c0.3,12,0.2,24,0.1,36c0,3.1,0.9,4.6,4.1,5.6c24.1,8.1,31.5,33.8,18.8,51.4c-1,1.3-0.9,4.1-0.2,5.9
		c12.7,35,25.6,70,38.5,105c23.4,63.5,46.7,127.1,70.1,190.6c0.3,0.9,0.6,1.9,1,3.4c-4,1.1-7.9,2.2-12.2,3.4
		c4,15.8,8,31.2,11.9,46.6c-0.3,0.1-0.5,0.2-0.8,0.3c-0.5-1-1-2-1.4-3c-4.9-12.7-9.9-25.4-14.5-38.2c-1.2-3.3-2.6-4.5-6.2-3.3
		c-2.8,1-5.8,1.4-9.3,2.2c-35.7-93.5-71.4-186.8-107.7-281.7C281.1,386.1,249.3,479.8,217.4,573.9z M301.9,240.1
		c-0.1,5.7,4.8,10.4,11,10.5c6.2,0.1,11.2-4.4,11.3-10.1c0.1-5.7-4.9-10.4-11-10.5C307.2,229.8,302,234.5,301.9,240.1z"/>
</g>
</svg>
