<?xml version="1.0" encoding="utf-8"?>
<!-- Generator: Adobe Illustrator 19.0.0, SVG Export Plug-In . SVG Version: 6.00 Build 0)  -->
<svg version="1.1" id="Calque_1" xmlns="http://www.w3.org/2000/svg" xmlns:xlink="http://www.w3.org/1999/xlink" x="0px" y="0px"
	 viewBox="0 0 612 792" style="enable-background:new 0 0 612 792;" xml:space="preserve">
<style type="text/css">
	.st0{fill:#CCD5DF;}
	.st1{fill:#FD6F58;}
	.st2{fill:#FDD05B;}
	.st3{fill:#F6B54C;}
	.st4{fill:#FD7058;}
	.st5{fill:#40596A;}
	.st6{fill:#F9E6BE;}
	.st7{fill:#F0F0F0;}
	.st8{fill:#FAEBCD;}
	.st9{fill:#FCFCFC;}
	.st10{fill:#ABB2B9;}
	.st11{fill:#ACB2B9;}
</style>
<g>
	<path class="st0" d="M590,601.4c-2.1,5.7-4.9,10.8-10.4,14c-3.2,1.9-6.5,3-10.3,3c-51.4,0-102.9,0-154.3,0
		c-11.3-4.4-15.5-13.3-15.5-24.7c0-28.7,0-57.5,0-86.2c0-2.4-0.5-5,1.5-7.1c0-32,0-64,0-96c0-15.4,8.6-24,24.2-24
		c10.2,0,20.3-0.1,30.5-0.1c-1.1,9.7-1.1,19.3-0.6,29c0,0.8-0.5,1.6-1.1,2.2c-2.4-0.2-2.3-2.2-2.5-3.7c-0.3-2.8-1.9-4-4.5-4.5
		c-6.8-1.2-13.6,0.4-20.4,0.3c-2.2,0-2.5,2-2.4,3.7c0.3,13.8,0,27.6,0.1,41.5c0.1,18,0,36,0,54c0,15.8,0,31.6,0,47.5
		c0,11.2,0.1,22.3-0.1,33.5c0,1.7-0.1,3.3,0,5c0.4,7.2,0.7,7.2,8.1,6.8c8.1-0.4,16.3,0,24.4-0.1c12.5-0.1,24.9-0.2,37.4,0
		c8.8,0.2,17.6-0.1,26.4,0.1c10.8,0.1,21.6,0.7,32.4-0.2c3.2-0.3,6.3,0.3,9.5,0.5c3.7,0.2,5.2-1.4,5-5c-1-15.4-0.1-30.9-0.3-46.3
		c-0.1-8.9-0.1-17.9,0-26.9c0.1-10.6,0.2-21.3,0-31.9c-0.1-8.6-0.2-17.3,0-25.9c0.3-10.3,0.4-20.6-0.1-30.9
		c-0.3-6,0.8-11.9,0.4-17.9c-0.5-7.5-1.2-8.4-8.7-8c-6.3,0.3-12.6,1.3-18.7-1.1c-0.2-0.2-0.6-0.5-0.6-0.7c-1-6.9-1.8-13.8-2.4-20.7
		c9.7,0,19.3,0,29,0c12.1,0,18.5,4.3,23,15.3c0.2,0.6,0.7,1.1,1,1.7C590,465.4,590,533.4,590,601.4z"/>
	<path class="st1" d="M155,618.3c-25.7,0-51.3,0.1-77,0.1c0-13.3,0-26.7,0-40c0.9-3.7,1.8-7.4,2.9-11c5.7-19.2,17.6-33.5,35.3-42.6
		c12.4-6.4,25.3-11.7,38-17.5c3,1.3,2.4,4.1,2.4,6.4c0.1,10.3,0.1,20.7,0.1,31c0,21.8,0,43.6,0,65.5
		C156.6,613,157.1,615.9,155,618.3z"/>
	<path class="st2" d="M224,439.4c-10.4-15.6-18.6-32.2-23.6-50.4c-0.4-1.6-1.4-2.6-2.5-3.5c-0.9-4.5-1.9-9.1-2.7-13.6
		c-0.4-2.3-0.9-4.6,0.6-6.7c1.9-1.2,3.9-0.5,5.7,0.1c2.8,0.9,4,0,4-2.9c0-3,0-6,0-8.9c0-3.8,0.5-7.6,1.7-11.2
		c1.4-4.2,3.5-8.2,3.6-12.8c0-1.2,0.7-2.2,1.8-2.8c2.2-0.9,4.6-0.8,6.9-0.8c41.2,0,82.5,0,123.7,0c2.2,0,4.3-0.1,6.4,0.5
		c2.5,0.9,3.2,3.2,3.9,5.4c1.4,4,3.4,7.5,6.7,10.3c2.3,1.9,2.9,4.2,2.4,7.1c-0.7,4.4-0.3,8.9-0.4,13.4c-0.1,3,1,4.3,4.2,3.4
		c1.9-0.6,3.9-0.9,5.9-0.5c2.2,0.6,2.8,2.3,2.5,4.3c-0.7,5.4-1.3,10.9-4,15.8c-2.1,3.3-2.8,7.1-4,10.7c-4.7,14.4-11.6,27.8-20,40.4
		c-1.6,2.4-2.2,4.6-2.2,7.4c0.1,8.6,0.1,17.3,0,25.9c0,1.6,0.5,3.3-0.8,4.8c-0.1-0.1-0.3-0.2-0.4-0.3c-2.2-10.5-0.9-21-0.8-29.6
		c-1.2,3.2-4.8,7.4-8.5,11.2c-6.5,6.6-11.6,14.6-19.5,19.9c-3.7,2.5-7.5,4.3-11.9,4.9c-9.2,1.8-18.5,1.2-27.8,1
		c-14.3-0.4-24.4-8.5-33-18.9c-3-3.6-6.2-6.9-9.5-10.2c-1.7-2.3-4.6-3.7-5.8-6.5C226.6,443.6,224.4,441.9,224,439.4z"/>
	<path class="st2" d="M155,618.3c0-35.2,0-70.5,0-105.7c0-1.8,0.6-3.7-0.8-5.3c8-4.7,16.2-8.9,25-11.9c1.9,2.3,1.5,5,1.5,7.7
		c0,15.1,0,30.3,0,45.4c0,6.9,0.3,7.2,6.9,7.2c63.9,0,127.9,0,191.8,0c6.7,0,7-0.3,7.1-7c0-15.1,0-30.3,0-45.4
		c0-2.6-0.5-5.4,1.6-7.6c5-0.3,8.6,3.3,13,4.7c0,30.5,0.2,61,0,91.5c-0.1,10.6,2.5,19.4,12.5,24.7c0.7,0.3,1,1.3,1.5,1.9
		c-85.8,0-171.7,0-257.5,0C156.6,618.4,155.8,618.3,155,618.3z"/>
	<path class="st1" d="M388,495.7c0,19.2-0.1,38.3,0.2,57.5c0.1,4.9-2.8,4.3-5.8,4.3c-56.6,0-113.3,0-169.9,0c-9.7,0-19.3-0.1-29,0.1
		c-3.5,0.1-4.5-1.1-4.5-4.6c0.2-19.2,0.1-38.3,0.1-57.5c13.3-6,26.6-12.1,40-18.1c1.3-0.6,2.5-1.7,4.1-1.3c1.7,0,2.7,1.2,3.6,2.4
		c23.9,30.1,70.8,35.7,101.5,11.8c4.1-3.2,7.8-6.8,11.2-10.6c1.3-1.5,2.3-3.4,4.4-3.9c13.3,4.9,25.7,11.8,38.6,17.6
		C384.4,494.1,386.2,494.9,388,495.7z"/>
	<path class="st3" d="M244.9,228.2c2.6-3.6,4.9-7.5,7.9-10.8c20-22.2,51.1-19.3,67,6.1c0.8,1.3,1.5,2.6,2.3,3.9
		c4.1,4,5,9.1,3.7,14.2c-4.7,19-9.5,37.9-14.8,56.7c-0.5,1.6-1,3.2-2.7,4c-2.5,1-5.2,0.7-7.8,0.7c-11.7,0-23.5,0-35.2,0
		c-1.8,0-3.6,0-5.4-0.6c-2.6-1.2-3.2-3.7-3.8-6.1c-4.6-17.7-9.5-35.2-13.8-52.9C241,238,241.4,232.8,244.9,228.2z"/>
	<path class="st4" d="M259,301.4c16.7,0,33.4,0,50.1,0c1.9-1.7,4.3-1.5,6.6-1.5c18.9,0,37.8,0,56.7,0c2.3,0,4.7-0.1,6.6,1.6
		c10.1,2.9,10.6,10.2,8.6,18.7c-1.3,5.5-6.3,7.4-11.8,7.2c-0.4,0.5-1,0.8-1.6,1.1c-7.8,0.4-15.6,1.8-23.2-1c-46.3,0-92.7,0-139,0
		c-6.1,2.4-12.1,2.4-18.2,0c-11.1-0.7-14.9-4.4-14.6-14.1c0.2-6.8,3.1-10,10.7-12.1c2-1.6,4.3-1.5,6.7-1.5c18.6,0,37.2,0,55.8,0
		C254.6,299.8,257,299.7,259,301.4z"/>
	<path class="st5" d="M537,380.4c3.6,6.6,2.7,13.9,3.1,21.1c3.5,7.8,1.2,11.5-7,11.6c-24.2,0.1-48.3,0.1-72.5,0
		c-2.3,0-4.7,0.2-6.6-1.6c-0.2-10.4-2.5-20.9,1.7-31.1c4-7,10-11,18.1-11.5c2.7-0.2,3-1.3,3.5-3.5c2-9.6,9.7-15.9,19-15.8
		c9.3,0.1,16.8,6.5,18.7,16.1c0.4,1.8,0.6,3,2.9,3.1C526.4,369.1,532.4,373.6,537,380.4z"/>
	<path class="st3" d="M343.9,475.7c-10.3,14.8-24.3,24.4-41.8,28.5c-25.8,6-48.8,0.1-69.2-17c-3.9-3.3-6.4-7.5-9.8-11.1
		c0-11.8-0.1-23.7-0.1-35.5c3.2,0.3,3.4,3.4,4.9,5.4c1.6,1.7,3.3,3.4,4.9,5.1c6.3,7.7,12.5,15.5,20.2,21.9c4.8,4,10.5,6.5,16.6,7.4
		c11.1,1.7,22.3,1.9,33.4-1c9.3-1.8,15.6-7.8,21.6-14.8c6.3-7.4,13.4-14,19.5-22.1c0,10.7,0,21.4,0,32.1
		C344,475,344,475.4,343.9,475.7z"/>
	<path class="st2" d="M379,301.4c-23.3,0-46.6,0-69.9-0.1c3.9-15.2,7.8-30.4,11.8-45.6c1.3-5,2.8-9.9,3.9-14.9
		c1-4.8-1.2-9.1-2.6-13.5c30.2,13.7,49.1,36.6,56,69.2C378.4,298.1,378.7,299.8,379,301.4z"/>
	<path class="st2" d="M259,301.4c-23,0-46,0-69.1-0.1c5.6-33.9,23.7-58.5,55-73.1c-3.2,8.4-1,16.6,1.2,24.8
		C250.4,269.1,254.7,285.2,259,301.4z"/>
	<path class="st5" d="M193.8,327.5c6.1,0,12.1,0,18.2,0c0.4,4.4-0.3,8.3-2.3,12.4c-3.6,7.6-3.4,15.8-2.8,23.9c0.3,4.5-1,5.1-4.7,3.3
		c-1.9-0.9-4.1-1.4-6.1-2.1c-1.1-0.2-1.8-0.9-2-2c-1.5-8.3-2.8-16.7-2.2-25.2c0.1-1.1,0.4-2.3,1.1-3.3
		C193.2,332.3,193.5,329.9,193.8,327.5z"/>
	<path class="st3" d="M192.9,334.6c0,9,0.9,17.8,2,26.7c0.2,1.3,0.2,2.6,1.1,3.7c-0.5,5.5,1.6,10.7,2.3,16c0.2,1.6,1.2,3.2-0.5,4.5
		c-4.1-1.9-6.6-5.4-8.6-9.2C181.7,362.3,183.3,344.2,192.9,334.6z"/>
	<path class="st3" d="M374.7,327.5c0.4,0,0.7-0.1,1.1-0.1c-0.3,3.8,0.3,7.1,2.8,10.6c10.3,14.2,6,39.4-7.6,47.5
		c-0.2-5.2,2-9.9,2.5-15c0.2-1.9,1-3.6-1.7-4.2c2.1-11,1.5-22.1,1.6-33.1C373.5,331.2,373.4,329.2,374.7,327.5z"/>
	<path class="st6" d="M228,446c-1.6-1.8-3.3-3.6-4.9-5.4c0.3-0.4,0.6-0.8,0.9-1.1C226.1,441.1,227.8,443.1,228,446z"/>
	<path class="st7" d="M454,411.4c26.8,0,53.5-0.1,80.3,0.1c4.4,0,6.5-0.9,5.7-5.6c-0.2-1.4,0.1-3,0.2-4.5c7.9,1,15.8,0,23.7,0
		c2.4,0,3.8,0.3,4.3,3.3c1,5.8,1.3,11.5,0.1,17.3c-0.7,3.2,1.2,6.2,0.8,9.4c-1.5,10.7-0.4,21.5-0.4,32.1c0,9.3,0,18.8,0.1,28.1
		c0.1,10.7-0.1,21.5-0.1,32.1c0,9.3,0,18.8,0.1,28.1c0,10.5,1.5,21.1-0.4,31.7c-0.6,3.1,0.9,6.5,0.9,9.8c0,3-0.9,4.5-4,4
		c-9.5-1.6-19,0.7-28.7-0.6c-4.8-0.7-10.3,1.2-15.3,0.4c-8.6-1.3-17.2-0.3-25.6-0.2c-9.1,0-18.5,0-27.6,0c-10.7,0-21.4,1.6-32.1-0.5
		c-2.5-0.5-5.2,0.9-7.9,0.9c-3.6,0.1-5.2-0.8-4.9-4.7c0.3-4.1,0.1-8.2,0.1-12.3c0-16.2,0-32.4,0-48.7c0-19.7,0.2-39.3-0.1-59
		c-0.3-15.4,0.4-30.7-0.3-46.1c-0.3-6.9,0.5-13.8-0.1-20.8c-0.2-3,1.2-5.7,5.3-4.1c3.8,1.6,7.5-1.1,11.3-0.5c2.1,0.4,4.3,0,6.5,0.1
		c4.5,0.3,8.6,1.1,7.4,7.4C452.7,409.8,452.9,410.9,454,411.4z"/>
	<path class="st5" d="M374.7,327.5c0.1,11.4,0.8,22.8-0.6,34.2c-0.2,1.9-0.5,3.6-2.3,4.6c-1,0.1-2,0.2-2.9,0.4c-8,1.9-8,2-7.9-6
		c0-1.5,0-3,0.1-4.5c0.4-6.3,1.4-12.4-5.1-17.1c-3.4-2.4-4.1-7.4-5-11.6C358.9,327.5,366.8,327.5,374.7,327.5z"/>
	<path class="st8" d="M303.1,479.4c-9,3.9-18.5,3-27.8,2.5c-17-0.9-28-11.7-37.8-24c-1.7-2.1-4.5-3.6-4.5-6.9
		c5.7,4.6,10,10.6,15,15.9c8.7,9.3,19.3,13.7,31.9,13.5C287.6,480.3,295.4,480.9,303.1,479.4z"/>
	<path class="st9" d="M495.1,379.4c-6.4,0-10.7-4.2-10.7-10.5c0-6.4,4.1-10.5,10.6-10.6c6.4-0.1,10.7,4.1,10.8,10.4
		C505.8,374.6,501,379.4,495.1,379.4z"/>
	<path class="st10" d="M522.6,456.4c-11.3,0-22.6-0.1-33.9,0.1c-3.3,0-4.7-0.8-4.7-4.4c0.2-10.5-0.6-8.6,8.3-8.6
		c20.8-0.1,41.6,0.1,62.4-0.1c4.8-0.1,7.3,0.9,6.4,6.2c-0.1,0.8-0.1,1.7,0,2.5c0.5,3.5-1.1,4.6-4.5,4.5
		C545.3,456.4,533.9,456.5,522.6,456.4C522.6,456.5,522.6,456.4,522.6,456.4z"/>
	<path class="st11" d="M522.5,567.4c-11.3,0-22.6-0.1-34,0.1c-3.5,0.1-4.6-1-4.5-4.5c0.3-10.3-1-8.5,8.4-8.5
		c21.1-0.1,42.3,0.1,63.4-0.2c4.2,0,5.9,1.1,5.2,5.3c-0.1,1-0.1,2,0,3c0.5,3.6-0.7,5-4.6,4.9C545.1,567.2,533.8,567.4,522.5,567.4z"
		/>
	<path class="st10" d="M522.4,511.5c-11.2,0-22.3-0.2-33.5,0.1c-4.1,0.1-4.8-1.4-5-5.2c-0.2-5,0.8-8,6.4-7.6
		c8.7,0.5,17.5,0.5,26.3,0c1.8-0.1,3.7,0.6,5.4,0.4c10.2-1.4,20.5,0.9,30.8-0.6c7.5-1.1,10.7,3.9,8.2,11.2c-0.8,2.3-2.6,1.6-4.1,1.6
		C545.4,511.5,533.9,511.5,522.4,511.5z"/>
	<path class="st4" d="M450.5,492.5c3.7,0.6,9.3-2,11.8,1c2.1,2.5,0.7,7.9,0.8,12c0.1,3.7-0.1,7.3,0,11c0.1,2.2-0.8,2.9-2.9,2.9
		c-7-0.1-13.9-0.1-20.9,0c-2.1,0-3-0.7-3-2.9c0.1-7,0.1-13.9,0-20.9c0-2.4,1-3.2,3.3-3.1C442.9,492.5,446.4,492.5,450.5,492.5z"/>
	<path class="st4" d="M449.5,570.5c-3.2,0-6.3-0.1-9.5,0c-2.6,0.1-4-0.5-3.9-3.5c0.2-6.5,0.2-13,0-19.5c-0.1-3.2,1.3-4,4.2-3.9
		c6.3,0.1,12.7,0.2,19,0c2.8-0.1,3.8,0.8,3.8,3.7c-0.2,6.7-0.2,13.3,0,20c0.1,2.8-1.1,3.4-3.6,3.3
		C456.2,570.4,452.9,570.5,449.5,570.5z"/>
	<path class="st1" d="M449.9,437.2c13.2,0,13.3,0,13.1,13.2c-0.1,4.3,1.9,9.7-1,12.5c-2.6,2.5-8,0.8-12.1,0.7c-4.4-0.1-10,2-12.9-1
		c-2.6-2.8-0.7-8.3-0.8-12.6c-0.1-12.7,0-12.7,12.6-12.7C449.2,437.2,449.5,437.2,449.9,437.2z"/>
</g>
</svg>
