<?xml version="1.0" encoding="utf-8"?>
<!-- Generator: Adobe Illustrator 19.0.0, SVG Export Plug-In . SVG Version: 6.00 Build 0)  -->
<svg version="1.1" id="Calque_1" xmlns="http://www.w3.org/2000/svg" xmlns:xlink="http://www.w3.org/1999/xlink" x="0px" y="0px"
	 viewBox="0 0 612 792" style="enable-background:new 0 0 612 792;" xml:space="preserve">
<style type="text/css">
	.st0{fill:#324A5D;}
	.st1{fill:#2C9883;}
	.st2{fill:#FDCE5B;}
	.st3{fill:#4CD9C3;}
	.st4{fill:#FD6F58;}
	.st5{fill:#4CD9C2;}
	.st6{fill:#E4E7EC;}
	.st7{fill:#EF543F;}
	.st8{fill:#EE533F;}
	.st9{fill:#FDFDFC;}
	.st10{fill:#F7B44C;}
	.st11{fill:#FBF8F2;}
	.st12{fill:#FCFAF7;}
	.st13{fill:#E3E6EB;}
	.st14{fill:#324D5F;}
	.st15{fill:#324C5F;}
	.st16{fill:#F05641;}
</style>
<g>
	<path class="st0" d="M315.8,130.7c140.1-0.2,254,113.5,254.2,253.7c0.2,140.2-113.8,254.3-254.1,254.3
		C175.8,638.7,62,524.9,62,384.8C62,244.6,175.6,130.9,315.8,130.7z"/>
	<path class="st1" d="M334.1,316c2,0.8,3.4,2.3,4.9,3.7c3.4,4.4,8.1,7.3,12.7,10.4c4.4,3,4.6,3.5,0.9,7.4c-0.2,0.2-0.5,0.5-0.7,0.7
		c-5.6,5.7-5.2,7,2.7,9.4c8.1,2.5,8.1,2.5,5.9,10.8c-5,18.6-11.7,36.5-21.6,53c-5.4,8.9-11.8,17-20.7,22.7c-3.7,2.4-4.1,6.2-5.1,9.9
		c-0.7,2.7,0.3,6.3-3.3,7.8c-12.5,0.6-24.9,1.4-37.4-0.5c-3-4.5-2.1-9.8-2.6-14.8c-0.7-7-1.2-14.1-2.5-21
		c-2.4-11.7-5.1-23.4-8.8-34.8c-3.7-11.2-8.4-22-13-32.2c-0.3-1.3-0.8-0.3-0.2-0.6c0.2-0.1,0.2,0,0.3,0.4c0.4,1.3,0.7,2.6-0.6,3.6
		c-2-7.2-1.6-8,4.9-10.5c14.5-5.6,29-11.2,41.9-20.3c0.4-0.3,1-0.2,1.4-0.3c0.6,2.2-1.2,3.3-2.4,4.6c-2.3,2.5-4.9,4.5-7.8,6.2
		c-2.9,1.7-2.8,3.4-0.4,5.4c9.2,7.8,4.6,9.3-3.1,13.1c-1.9,0.9-4.9,0.1-5.9,2.1c-1.2,2.5,0.5,5.2,1.2,7.7
		c5.6,19.4,12.3,38.3,24,55.1c3.3,4.8,6.8,9.4,11.4,13.1c2.7,2.2,4.4,1.8,5.2-1.7c4.5-12,9.3-23.8,12-36.3c2.6-9.3,4.2-18.8,5-28.3
		c0.8-9.2,1.7-18.5,1.3-27.7c-0.1-1.8-0.1-3.6-0.7-5.4C332.7,324.3,331.3,320,334.1,316z"/>
	<path class="st2" d="M299.1,309.7c-12.8-6.9-22-16.7-25.7-31c-0.3-4.5-0.3-9,1.5-13.2c0.5-1.2,1.1-2.9,2.5-2.7
		c1.9,0.3,1.5,2.2,1.6,3.7c0,1.4-0.1,2.8-0.5,4.1c1.3-5.7,0.8-12.1,6.5-16c3.6-0.9,7.3-0.5,10.9-0.5c14.8,0,29.5,0,44.3,0
		c2.2,0,4.3-0.1,6.4,0.5c4.9,3,3.7,8.8,6.1,12.4c0.2-1.3-1.9-4.5,0.6-5c2.6-0.5,3,3,3.8,5c1.4,3.5,1.1,7.2,1.6,10.8
		c-3.5,14.8-12.8,24.8-25.8,31.8C324.5,315.7,307.4,315.7,299.1,309.7z"/>
	<path class="st3" d="M311,450.8c-0.3-3.9,1-7.5,1.5-11.3c0.6-4.5,4.3-5.9,7.3-8.1c11.3-8.4,18.3-20,24.3-32.3
		c7-14.3,12.2-29.4,16-44.9c0.7-3,1.1-4.9-2.9-4.5c-0.3,0-0.7,0-1-0.1c-3.9-1.3-9.1-2-10.5-5.7c-1-2.6,3.9-4.7,5.9-7.3
		c0.8-1,1.8-1.9,3-3.2c-5.5-3.1-10.5-6.5-14.6-11.1c-0.6-0.7-2.4-1.1-1.1-2.6c13,9.3,27.4,15.5,42.3,21c2.3,0.8,4.9,1.1,6.6,3
		c-4.3,12.8-10.7,24.8-14.6,37.7c-3.7,12.3-7.2,24.6-8.9,37.4c-0.9,7.8-1.9,15.7-2.1,23.6c-0.1,3-0.2,6.3-2.4,8.9
		c-1.3,0.8-2.8,1-4.3,1c-11.5,0.2-22.9,0-34.4,0.1c-0.8,0-1.6-0.2-2.4-0.6c-1.9,0-3.7,0-5.6,0C312,452.4,311.5,451.7,311,450.8z"/>
	<path class="st4" d="M268.2,248.7c-0.1-2.1-0.7-4.2,0.7-6c1.1-1,2.5-1.6,4-2c16.2-4.2,25.3-15.5,30.3-30.7c0.8-2.5,1.1-5.2,2.8-7.4
		c1.4-2.4,2.2-5.1,4.8-6.7c5.6-3.4,11.6-1,14.3,6c1.4,1.8,1.9,3.8,2.5,5.9c2.7,10.8,7.9,20,16.8,27c4.2,3.3,9,5,14,6.4
		c1.6,0.4,3.4,0.3,4.6,1.6c0.1,2,0.2,4,0.3,6c-1.9,1.9-4.3,1.6-6.6,1.6c-27.2,0.1-54.5,0.1-81.7,0
		C272.5,250.3,270,250.6,268.2,248.7z"/>
	<path class="st1" d="M363.2,417.9c3.5-24.2,11.3-47,21.8-69c0.8-1.8,2-3.4,2.9-5.1c-1.2,8.9-1.3,17.9-0.8,26.8
		c0.7,13,2.2,26,3.5,38.9c1.4,13.8,4.2,27.4,4.5,41.3c-2.8,1.8-5.7,2-8.8,1.1c-1.8,0.1-3.8-0.7-5.4,0.8c-4.7-0.6-9.7,0.5-14.3-1.8
		c-2.5-9-2.3-18.3-2.8-27.6C363.7,421.4,364.3,419.5,363.2,417.9z"/>
	<path class="st5" d="M244.8,351.8c0.1-1.4,0.3-2.8,0.5-5.3c6.9,12.5,11.6,24.9,15.5,37.6c3,10,6,20,7.1,30.4
		c0.7,12.1-0.3,24-2.3,35.9c-4.4,2.9-9.5,1.6-14.2,1.9c-1.8-1.2-3.8-0.6-5.7-0.6c-3,0.6-6.1,1-8.8-1c0.6-13.6,3-27,4.5-40.5
		C243.5,390.8,245.7,371.4,244.8,351.8z"/>
	<path class="st3" d="M316,427c-1.3,5.6-1.6,5.8-6,2.4c-9.2-7.2-15.2-17-20.5-27.2c-8-15.3-13.5-31.7-17.7-48.4
		c-0.8-3.2-0.4-4.3,2.9-4.1c1.3,0.1,2.6-0.3,3.8-0.8c9.9-3.9,10.1-4.1,2.6-11.3c-3.2-3.1-3.7-4.7,0.8-7c4.3-2.3,8.2-5.6,11.1-9.8
		c1.6-1.4,3.2-2.7,4.8-4.1c3,3.6,1.3,7.8,1.7,11.7c-2.5,14,0.1,27.8,1.5,41.6c0.7,6.8,1.9,13.5,3.8,20c2.1,10.6,6.2,20.7,9.9,30.8
		C315.4,422.8,316.2,424.8,316,427z"/>
	<path class="st6" d="M349,550.7c-8.5,0-17-0.2-25.4,0.1c-3.8,0.1-5.4-1.1-5.3-5.1c0.2-6.5,0.2-13,0-19.4c-0.1-3.6,1.5-4.5,4.8-4.5
		c17.6,0.1,35.2,0.1,52.9,0c3.6,0,5.1,0.9,5,4.8c-0.3,6.3-0.3,12.6,0,18.9c0.2,4.3-1.5,5.4-5.5,5.3
		C366.6,550.6,357.8,550.7,349,550.7z"/>
	<path class="st6" d="M383.5,486.7c9,0,18,0.1,27-0.1c3.2-0.1,4.5,1.1,4.4,4.3c-0.2,6.7-0.2,13.3,0,20c0.1,3.5-1.3,4.7-4.7,4.7
		c-17.8-0.1-35.7-0.1-53.5,0c-3.2,0-4.5-1.3-4.4-4.4c0.1-6.8,0.1-13.7,0-20.5c0-3,1.3-4,4.2-4C365.5,486.8,374.5,486.7,383.5,486.7z
		"/>
	<path class="st6" d="M282.2,550.7c-8.6,0-17.3-0.2-25.9,0.1c-3.8,0.1-5.5-0.9-5.3-5c0.3-6.3,0.2-12.6,0-18.9
		c-0.1-3.5,0.9-5.1,4.7-5.1c17.8,0.2,35.6,0.1,53.3,0c3.2,0,4.6,1.1,4.6,4.3c-0.1,6.8-0.1,13.6,0,20.4c0.1,3.3-1.4,4.3-4.6,4.2
		C300.2,550.6,291.2,550.7,282.2,550.7z"/>
	<path class="st6" d="M248.4,486.7c9,0,18,0.1,27-0.1c3,0,4.3,1,4.3,4c-0.1,7-0.1,14,0,21c0,3.1-1.5,3.9-4.4,3.9
		c-17.8-0.1-35.7-0.1-53.5,0c-3.4,0-4.8-1.1-4.7-4.6c0.2-6.7,0.2-13.3,0-20c-0.1-3.2,1.1-4.4,4.3-4.4
		C230.4,486.9,239.4,486.7,248.4,486.7C248.4,486.7,248.4,486.7,248.4,486.7z"/>
	<path class="st6" d="M251.4,452.3c4.3-2.8,9.1-0.7,13.6-1.6c2.4-1.8,4.7-1.8,7.1,0c13,0,26,0,39,0c0.7,0.3,1.5,0.7,2.2,1
		c1,8.3,0.3,16.6,0.4,24.9c0,2.4-1.3,3.1-3.5,3.1c-18.5,0-37,0-55.5,0c-2.6,0-3.6-1-3.5-3.6C251.3,468.3,251.3,460.3,251.4,452.3z"
		/>
	<path class="st6" d="M367,450.8c4.5,1.1,9.6-1.4,13.8,1.8c0,7.6-0.1,15.3,0.1,22.9c0.1,3.2-1,4.4-4.3,4.4
		c-17.9-0.1-35.9-0.1-53.8,0c-2.4,0-4.5-0.3-4.4-3.2c0.2-8.3-0.7-16.6,0.4-24.9c2.8-1.4,5.9-0.8,8.9-0.8c10.8-0.1,21.6-0.1,32.5-0.2
		C362.4,449.4,364.7,448.8,367,450.8z"/>
	<path class="st6" d="M451,486.7c8.8,0,17.7,0.1,26.5-0.1c3.5-0.1,4.7,1.1,4.6,4.6c-0.2,6.7-0.2,13.3,0,20c0.1,3.3-1.1,4.4-4.4,4.4
		c-17.8-0.1-35.6-0.1-53.5,0c-3,0-4.7-0.7-4.6-4.2c0.2-6.8,0.2-13.7,0-20.5c-0.1-3.2,1.1-4.4,4.4-4.3C433,486.8,442,486.7,451,486.7
		z"/>
	<path class="st6" d="M214.7,550.7c-8.8,0-17.6-0.1-26.5,0.1c-3.6,0.1-4.7-1.2-4.6-4.6c0.2-6.6,0.2-13.3,0-20
		c-0.1-3.2,1.1-4.4,4.3-4.4c17.8,0.1,35.6,0.1,53.4,0c3.5,0,4.7,1.4,4.6,4.8c-0.1,6.7-0.2,13.3,0,20c0.1,3.4-1.3,4.3-4.4,4.2
		C232.6,550.6,223.6,550.7,214.7,550.7z"/>
	<path class="st6" d="M417,550.7c-8.8,0-17.7-0.1-26.5,0.1c-3.5,0.1-4.7-1.2-4.6-4.6c0.2-6.7,0.2-13.3,0-20
		c-0.1-3.3,1.2-4.4,4.4-4.4c18,0.1,36,0.1,54,0c3.1,0,4.1,1.2,4,4.2c-0.1,6.8-0.2,13.7,0,20.5c0.1,3.2-1.1,4.4-4.4,4.3
		C435,550.6,426,550.7,417,550.7z"/>
	<path class="st6" d="M236.9,450.7c2.9,0.7,6-0.6,8.8,1c0.1,8.3,0.2,16.6,0.3,24.9c0,2.4-1.2,3.2-3.4,3.2c-18.6,0-37.3,0-55.9,0
		c-2.1,0-3-0.9-3-3c0-7.5,0-15,0-22.5c0-3.5,2.4-3.4,4.8-3.4c14.3,0,28.6,0,42.9,0C233.2,451,235,450.8,236.9,450.7z"/>
	<path class="st6" d="M386.2,451.8c2.8-1.4,5.9-0.4,8.8-1.1c15.6,0.1,31.2,0.4,46.8,0.1c4.9-0.1,6.9,1.1,6.5,6.3
		c-0.5,5.9-0.2,12,0,17.9c0.1,3.3-0.8,4.7-4.5,4.7c-17.8-0.2-35.6-0.2-53.4,0c-3.5,0-4.7-1.1-4.6-4.6
		C386.2,467.4,386.2,459.6,386.2,451.8z"/>
	<path class="st6" d="M180.7,515.6c-8.7,0-17.3-0.1-26,0.1c-3.7,0.1-5-1.3-4.8-4.9c0.2-6.6,0.2-13.3,0-20c-0.1-3.1,1.1-4.1,4.1-4
		c18,0.1,35.9,0.1,53.9,0c3,0,4.1,1.1,4.1,4.1c-0.1,6.8-0.2,13.6,0,20.5c0.1,3.2-1.2,4.5-4.4,4.4
		C198.7,515.5,189.7,515.6,180.7,515.6C180.7,515.6,180.7,515.6,180.7,515.6z"/>
	<path class="st6" d="M315.9,515.6c-8.8,0-17.7-0.1-26.5,0.1c-3.5,0.1-4.7-1.2-4.6-4.6c0.2-6.8,0.1-13.7,0-20.5
		c0-2.7,0.9-3.9,3.8-3.9c18.3,0.1,36.6,0.1,55,0c2.6,0,3.6,1,3.6,3.5c-0.1,7.2-0.1,14.3,0,21.5c0.1,3.2-1.5,3.9-4.3,3.9
		C333.9,515.5,324.9,515.6,315.9,515.6z"/>
	<path class="st7" d="M362.8,242.7c-14.8-0.6-24.4-9-31.4-21.2c-3.5-6.1-5.5-12.7-6.4-19.7c10.9,3,20.5,8.1,27.8,17.1
		C358.4,225.9,361.9,233.7,362.8,242.7z"/>
	<path class="st7" d="M305.9,202.5c-1.7,18.3-16.3,38.1-37,40.1C270,223.9,287.2,205.2,305.9,202.5z"/>
	<path class="st8" d="M268.2,248.7c31.6,0,63.2,0,94.9,0c1.3,2,2.6,4.1,4,6.3c-2.8,1.7-5.9-0.2-8.2,1.5c-3.7,1-7.4,1.2-10.9-0.7
		c-21.3,0-42.7,0-64,0.1c-3.6,1.6-7.1,1.9-10.7,0.1c-2.6-0.1-5.3-0.3-8.6-0.4C265.8,253.1,267,250.9,268.2,248.7z"/>
	<path class="st9" d="M298,328.7c-0.1-4-0.1-8-0.2-12.1c0.1-0.3,0.2-0.6,0.3-0.9c1.9-0.4,2.7,1.1,3.4,2.3c3,4.7,7.4,8.1,11.1,12.2
		c2.6,2.9,4.5,2.4,6.9-0.2c3.6-3.9,7.7-7.4,10.8-11.7c0.8-1.1,1.5-2.7,3.4-2.4c0,0,0.3,0.1,0.3,0.1c0,4.2,0,8.3,0.1,12.5
		c0.1,6.8-2.1,12.9-4.7,19c-0.6,1.3-1.2,3-2.8,3.2c-2.1,0.2-2.5-1.8-3.2-3.3c-0.6-1.2-1.2-2.4-1.9-3.5c-5.5-7.9-5.5-7.9-11.1-0.1
		c-0.6,1-1.1,2.1-1.6,3.1c-0.8,1.6-1.2,3.9-3.4,3.7c-2.1-0.2-2.3-2.5-3.1-4.1C299.3,341,298,335,298,328.7z"/>
	<path class="st10" d="M333.8,315.9c-4.6,5.9-9.5,11.5-14.9,16.7c-2.4,2.3-3.7,2.1-6-0.1c-5.4-5.2-10.2-10.8-14.8-16.7
		c-0.5-2.1,0.3-4.1,0.9-6.1c6,1.1,11.7,3.1,17.9,3.1c5.6,0,10.6-2.5,15.9-3.1C333.5,311.7,334.3,313.7,333.8,315.9z"/>
	<path class="st11" d="M347.9,255.9c3.6,0.2,7.4-0.8,10.9,0.7c1.4,7.1,1.5,14.2-0.1,21.3c-2.2-4.9-1.8-10.8-5.4-15.6
		c-0.3,3.1,1.6,6-0.8,9.4C350.9,266.1,349.4,261,347.9,255.9z"/>
	<path class="st12" d="M273.1,256.1c3.6,0,7.2-0.1,10.7-0.1c-1.7,5.2-3.5,10.5-5.2,15.7c-0.2,0-0.3-0.1-0.5-0.1c0-2.6,0-5.2,0-9.1
		c-3.6,5.7-3.4,11.2-4.7,16.2C271.2,271.2,271.7,263.6,273.1,256.1z"/>
	<path class="st4" d="M316,427c-5.1-11.8-9.6-23.8-12.4-36.4c-0.6-11.2,3.2-21.7,5.1-32.5c0.7-4.4,0.8-9,3.4-12.9
		c2.6-1.3,5.2-1.3,7.9-0.1c1,0.8,1.3,1.9,1.6,3c2.4,12,5,24.1,7.1,36.2c0.4,2.2-0.2,4.3-0.2,6.4C325.5,403.3,321.1,415.3,316,427z"
		/>
	<path class="st13" d="M328.4,390.8c-2.9-15-5.7-30.1-8.6-45.1c-0.2-1.8,0.7-2.6,2.3-3c2,2,3.2,4.4,3.8,7.4c5-6.5,5.7-14.5,8.2-21.6
		c1.8,11.9,0.5,23.8-0.6,35.6C332.7,373.1,331.3,382.2,328.4,390.8z"/>
	<path class="st14" d="M272,450.8c-2.4,0-4.7,0-7.1,0c0.5-12.1,1.3-24.2,3-36.2c2.5,5.2,2.1,10.9,2.9,16.4
		C271.8,437.5,271.7,444.2,272,450.8z"/>
	<path class="st15" d="M367,450.8c-2.3,0.4-4.6,0.4-6.9,0c0.7-11,1.3-22,3.1-32.9c1.6,0.1,1.7,1.2,1.8,2.5
		C365.6,430.5,366.3,440.6,367,450.8z"/>
	<path class="st6" d="M312.2,345.7c-2.9,15-5.8,30-8.7,45c-4.7-16.5-5.8-33.5-6.5-50.6c-0.1-3.8,0.1-7.6,0.9-11.4
		c1.8,7.3,3.5,14.7,7.6,21.6c1.5-2.7,2.9-5.1,4.2-7.6C311.5,343,312.4,343.9,312.2,345.7z"/>
	<path class="st16" d="M312.2,345.7c-0.8-1-1.6-2-2.4-3c6.8-9,5.2-9.3,12.3,0c-0.8,1-1.6,2-2.3,3
		C317.3,345.7,314.7,345.7,312.2,345.7z"/>
</g>
</svg>
