<?xml version="1.0" encoding="utf-8"?>
<!-- Generator: Adobe Illustrator 19.0.0, SVG Export Plug-In . SVG Version: 6.00 Build 0)  -->
<svg version="1.1" id="Calque_1" xmlns="http://www.w3.org/2000/svg" xmlns:xlink="http://www.w3.org/1999/xlink" x="0px" y="0px"
	 viewBox="0 0 612 792" style="enable-background:new 0 0 612 792;" xml:space="preserve">
<style type="text/css">
	.st0{fill:#00AA94;}
	.st1{fill:#01AA94;}
</style>
<g>
	<path class="st0" d="M92,159.9c-0.1,27-0.2,53.9-0.2,80.9c0,117.9,0,235.8,0,354.9c-0.8-2.2-1.3-3.4-1.7-4.5
		c-5.3-15.5-19.2-25.5-34.8-24.9c-16.2,0.6-29.3,11.5-33.4,27.9c-0.2,0.6-0.6,1.2-0.8,1.7c0-147,0-294,0-441
		c0.6-10.9,6-18.9,14.7-25.1c4.7-3.3,9.9-4.1,15.3-4.9c3.7,0,7.3,0,11,0c17.4,3.2,28.6,14.3,30.5,30.3
		C92.7,156.8,93.4,158.5,92,159.9z"/>
	<path class="st1" d="M135.9,398.9c0,3.2,0.2,6.3,0,9.5c-0.3,5.2-4.2,8.8-9.1,8.6c-4.7-0.1-8.4-3.7-8.6-8.6c-0.2-6.5-0.2-13,0-19.5
		c0.1-4.9,3.8-8.7,8.3-9c4.7-0.3,8.9,3.3,9.4,8.5C136.1,391.9,135.9,395.4,135.9,398.9C135.9,398.9,135.9,398.9,135.9,398.9z"/>
	<path class="st1" d="M118.1,534.3c0-3.2-0.1-6.3,0-9.5c0.3-5.2,4.1-8.9,8.9-8.9c4.5,0,8.5,3.6,8.7,8.6c0.3,6.6,0.3,13.3,0,19.9
		c-0.2,5.3-4.2,8.7-9.1,8.5c-4.9-0.2-8.3-3.9-8.5-9.2C118,540.6,118.1,537.4,118.1,534.3z"/>
	<path class="st1" d="M118.1,466.4c0-3.2-0.1-6.3,0-9.5c0.3-5.2,4-8.9,8.8-8.9c4.6,0,8.6,3.5,8.8,8.4c0.3,6.8,0.3,13.6,0,20.4
		c-0.3,5-4.3,8.2-9,8.1c-4.7-0.1-8.3-3.6-8.6-8.6C118,473,118.1,469.7,118.1,466.4z"/>
	<path class="st1" d="M118.1,330.2c0-3.2-0.2-6.3,0-9.5c0.3-4.9,4-8.6,8.6-8.7c4.6-0.1,8.8,3.3,9,8.2c0.3,7,0.4,14,0,20.9
		c-0.3,5-4.4,8.1-9.2,7.8c-4.5-0.2-8-3.6-8.3-8.3C118,337.2,118.1,333.7,118.1,330.2z"/>
	<path class="st1" d="M489,330.3c0-3.2-0.1-6.3,0-9.5c0.2-4.7,3.5-8.4,7.9-8.8c4.3-0.4,8.9,2.6,9.3,7.2c0.8,7.6,0.9,15.3,0,22.9
		c-0.6,4.7-4.8,7.4-9.4,7c-4.3-0.4-7.4-3.7-7.8-8.3c-0.1-1.8-0.1-3.7-0.1-5.5C489,333.6,489,331.9,489,330.3
		C489,330.3,489,330.3,489,330.3z"/>
	<path class="st1" d="M489,398.3c0-3.3-0.1-6.7,0-10c0.3-4.7,3.9-8.2,8.3-8.4c4.5-0.2,8.5,2.8,9,7.6c0.7,7.3,0.7,14.6,0,21.9
		c-0.5,5-4.6,7.9-9.4,7.5c-4.6-0.4-7.7-3.6-7.9-8.7C488.9,405,489,401.7,489,398.3z"/>
	<path class="st1" d="M135.9,262.9c0,3.2,0.2,6.3,0,9.5c-0.4,5.3-4.1,8.7-9.1,8.6c-4.8-0.1-8.5-3.7-8.6-9.1
		c-0.2-6.3-0.2-12.6,0-18.9c0.1-5.2,4-9,8.8-9c4.7,0,8.6,3.8,8.9,8.9C136,256.3,135.9,259.6,135.9,262.9z"/>
	<path class="st1" d="M506.5,262.9c0,3.3,0.2,6.7-0.1,10c-0.5,5.3-4.3,8.5-9.4,8.2c-4.7-0.3-8-3.7-8.1-9c-0.1-6.3-0.1-12.6,0-18.9
		c0.1-5.3,3.8-9,8.6-9.1c4.6-0.1,8.4,3.3,8.8,8.4C506.8,255.9,506.5,259.4,506.5,262.9C506.5,262.9,506.5,262.9,506.5,262.9z"/>
	<path class="st1" d="M489,534.5c0-3.3-0.1-6.7,0-10c0.2-4.7,3.7-8.2,8.1-8.5c4.6-0.3,8.9,2.9,9.2,7.9c0.4,7.1,0.4,14.3,0,21.4
		c-0.3,5-4.4,8-9.3,7.7c-4.6-0.3-7.7-3.6-8.1-8.5c0-0.3,0-0.7,0-1C489,540.4,489,537.4,489,534.5C489,534.5,489,534.5,489,534.5z"/>
	<path class="st1" d="M489,466.7c0-3.3-0.1-6.7,0-10c0.2-4.9,3.9-8.6,8.5-8.8c4.4-0.2,8.6,3,8.9,7.7c0.4,7.3,0.4,14.6,0,21.9
		c-0.3,4.7-4.4,7.6-9,7.4c-4.6-0.2-8-3.6-8.3-8.3c-0.1-1.7,0-3.3,0-5C489,470,489,468.3,489,466.7z"/>
	<path class="st1" d="M374.2,592.9c3.2,0,6.3-0.2,9.5,0c4.7,0.3,8.1,3.9,8.2,8.4c0.1,4.2-2.9,8.2-7.3,8.8c-6.9,0.8-13.9,0.8-20.9,0
		c-4.7-0.6-7.6-4.8-7.2-9.3c0.4-4.5,3.9-7.8,8.7-8C368.2,592.7,371.2,592.8,374.2,592.9C374.2,592.8,374.2,592.9,374.2,592.9z"/>
	<path class="st1" d="M436,610.3c-3.3,0-6.7,0.3-9.9-0.1c-4.7-0.5-7.9-4.4-7.8-8.8c0.1-4.6,3.8-8.3,8.7-8.5c6-0.2,12-0.2,17.9,0
		c5.1,0.1,8.5,3.6,8.7,8.4c0.2,4.5-2.9,8.4-7.7,8.9C442.6,610.6,439.3,610.3,436,610.3z"/>
	<path class="st1" d="M250.6,592.9c3,0,6-0.1,9,0c4.9,0.2,8.2,3.5,8.5,8c0.3,4.7-2.4,8.6-7.2,9.2c-6.9,0.9-13.9,0.8-20.9,0
		c-4.7-0.6-7.4-4.6-7-9.3c0.4-4.4,3.6-7.6,8.1-7.9C244.3,592.7,247.5,592.9,250.6,592.9C250.6,592.9,250.6,592.9,250.6,592.9z"/>
	<path class="st1" d="M188.9,592.9c3.2,0,6.3-0.2,9.5,0c4.5,0.3,7.7,3.7,7.9,8.1c0.2,4.5-2.3,8.4-6.8,9c-7.2,1-14.6,1-21.8-0.1
		c-4.5-0.7-6.6-4.3-6.6-8.7c0-4.3,3.5-7.8,7.8-8.3c1.6-0.2,3.3-0.1,5-0.1C185.6,592.8,187.2,592.8,188.9,592.9
		C188.9,592.8,188.9,592.9,188.9,592.9z"/>
	<path class="st1" d="M312.1,610.4c-3,0-6,0.2-9,0c-5.4-0.5-8.5-4.2-8.2-9.3c0.3-4.8,3.7-8.1,8.9-8.2c5.8-0.1,11.6-0.1,17.4,0
		c5,0.1,8.6,3.7,8.9,8.3c0.2,4.6-3,8.6-8,9.1C318.7,610.6,315.4,610.3,312.1,610.4C312.1,610.3,312.1,610.4,312.1,610.4z"/>
	<path class="st1" d="M118.1,596.9c0-1.7-0.2-3.4,0-5c0.6-4.3,3-7.1,7.3-7.8c4.3-0.8,7.6,1.1,9.4,4.9c1,2.2,1.9,3.7,4.4,4.6
		c3.8,1.3,5.7,4.6,5.3,8.7c-0.4,4.2-2.9,7.1-7.2,7.9c-4.1,0.7-8.3,0.7-12.4-0.1C119.7,608.9,118.1,605.7,118.1,596.9z"/>
	<path class="st1" d="M250.7,186.8c3.2,0,6.3-0.2,9.5,0c4.7,0.3,7.9,3.9,8,8.5c0.1,4.6-3,8.5-7.7,8.8c-6.5,0.3-13,0.3-19.4,0.1
		c-4.9-0.2-8.2-4.2-8-9c0.1-4.8,3.6-8.2,8.7-8.4C244.7,186.7,247.7,186.8,250.7,186.8z"/>
	<path class="st1" d="M506.6,595.8c0.2,6.2,0.3,11.5-4.9,13.5c-5.8,2.2-12.1,2.5-17.9-0.6c-2.8-1.5-4-4.4-3.7-7.7
		c0.3-3.6,2.3-6.1,5.6-7.6c1.4-0.6,2.8-0.5,3.6-2.7c1.7-5.1,5.5-7.3,9.7-6.7c4.5,0.7,7.3,4.2,7.6,9.7
		C506.7,594.9,506.6,596,506.6,595.8z"/>
	<path class="st1" d="M436.2,186.8c3.2,0,6.3-0.2,9.5,0c4.4,0.3,7.7,3.9,7.9,8.1c0.2,4.5-2.9,8.8-7.5,9c-6.8,0.4-13.6,0.3-20.4,0
		c-4.3-0.2-7.5-4.3-7.5-8.5c0-4.4,3.5-8.3,8-8.6C429.6,186.6,432.9,186.8,436.2,186.8z"/>
	<path class="st1" d="M373.9,204.2c-3.2,0-6.3,0.2-9.5,0c-4.6-0.3-7.9-4.2-7.9-8.7c0-4.5,3.3-8.4,8-8.6c6.5-0.2,13-0.2,19.4,0
		c4.4,0.2,7.8,4,8,8.1c0.2,4.4-3,8.5-7.6,9C380.9,204.4,377.4,204.1,373.9,204.2C373.9,204.1,373.9,204.2,373.9,204.2z"/>
	<path class="st1" d="M494.4,186.8c3.8-0.2,8.8-0.5,10.9,4.5c2.4,5.8,2.5,12.1-0.3,17.9c-1.5,3.1-4.6,4.1-8.1,3.9
		c-3.5-0.2-5.8-2.2-7.2-5.3c-0.7-1.6-0.7-3.2-3.1-3.9c-4.8-1.5-7.2-5.7-6.4-9.9c0.8-4.4,4.3-7,9.4-7.2
		C491,186.7,492.3,186.8,494.4,186.8z"/>
	<path class="st1" d="M189,186.8c3,0,6-0.1,9,0c5,0.3,8.3,3.8,8.3,8.7c0,4.9-3.2,8.5-8.3,8.7c-6,0.2-12,0.2-17.9,0.1
		c-5.3-0.2-9-3.9-9-8.7c0-4.9,3.9-8.6,9.5-8.8C183.3,186.7,186.2,186.7,189,186.8C189,186.8,189,186.8,189,186.8z"/>
	<path class="st1" d="M312.3,186.8c3.2,0,6.3-0.2,9.5,0c4.8,0.3,8.4,4.2,8.3,8.8c-0.1,4.4-3.5,8.3-8.1,8.5c-6.5,0.3-13,0.3-19.4,0
		c-4.7-0.2-7.7-4-7.7-8.8c0-4.7,3.2-8.2,7.9-8.5C305.9,186.7,309.1,186.8,312.3,186.8z"/>
	<path class="st1" d="M131.6,186.8c1.7,0,3.3-0.1,5,0c4.4,0.4,7,3,7.8,7.2c0.8,4.2-0.9,7.7-4.9,9.4c-2.3,1-3.7,1.9-4.6,4.4
		c-1.6,4.3-5.3,5.9-9.7,5.1c-4.2-0.8-6.7-3.7-7-7.9c-0.3-3.3-0.3-6.7,0-10c0.3-4.7,3.8-7.9,8.5-8.2
		C128.3,186.7,130,186.8,131.6,186.8C131.6,186.8,131.6,186.8,131.6,186.8z"/>
	<path class="st0" d="M268.6,460.2c5.2,0.2,10.3,0.1,15.5,0.1c6.5,0,10.6-3.4,10.7-8.7c0.1-5.3-4-8.8-10.4-8.9c-7-0.1-14-0.1-21,0
		c-2.9,0.1-3.9-0.9-4.6-3.8c-4.3-19.5-8.9-38.9-13.5-58.3c-0.7-3,0.1-4.3,2.9-5.7c18.1-9.6,27.9-24.9,28.8-45.3
		c1.1-25-15.4-46.5-40-53c-3-0.8-4.3-1.9-4.1-5.3c0.3-7.1,0.2-14.3,0.1-21.5c-0.1-6.2-3.4-10.1-8.6-10.2c-5.5-0.1-9.1,3.7-9.2,10.1
		c-0.1,7.2-0.2,14.3,0.1,21.5c0.1,3.2-0.8,4.5-4,5.4c-22.1,5.7-37.1,23.1-40,45.9c-2.6,20.8,8.9,42,28.6,52.3
		c2.9,1.5,3.7,2.9,2.9,6.1c-5.9,25.1-11.7,50.2-17.5,75.3c-7.5,32.7-15,65.4-22.6,98.2c-0.4,1.6-0.8,3.2-0.3,4.9
		c1.3,4.3,4.1,6.8,8.7,6.8c4.7,0,7.6-2.7,8.9-8.4c7.2-31.1,14.5-62.2,21.5-93.3c0.8-3.3,2.1-4.3,5.3-4.2c5.7,0.2,11.3,0.1,17,0.1
		c0,0,0,0,0,0c5.2,0,10.4,0.4,15.5-0.1c5.2-0.5,6.7,1.8,7.7,6.4c6.8,30.5,13.9,60.9,20.9,91.4c1.4,6.2,5.6,9.2,11.1,8.1
		c5.1-1.1,7.5-5.8,6.1-12.2c-6.8-29.7-13.5-59.3-20.5-88.9C263.7,460.6,264.9,460.1,268.6,460.2z M237.9,442.8c-4.7-0.2-9.3,0-14,0
		c-4.7,0-9.3-0.1-14,0c-2.5,0.1-3.2-0.7-2.6-3.2c4.3-18.6,8.6-37.2,12.9-55.8c0.5-2.2,1.5-2.9,3.8-2.9c2.4,0,3.5,0.7,4.1,3.2
		c4.2,18.5,8.4,36.9,12.8,55.4C241.5,442.1,240.6,442.9,237.9,442.8z M240.3,358.7c-2.4-10.4-4.8-20.7-7.2-31.1
		c-1.3-5.5-4.5-8.6-8.9-8.6c-4.5,0-7.8,3-9.1,8.4c-2.4,10.4-4.8,20.7-7.2,31.1c-12.6-4.4-21.1-21.1-18.7-36.3
		c2.4-15.8,16.9-28.7,32.1-29.5c20.3-1.1,34.4,12.8,37.5,28.4C261.9,336.3,253.5,353.3,240.3,358.7z"/>
	<path class="st0" d="M436.1,380.5C436,380.5,436,380.5,436.1,380.5c0-1.8-0.1-3.7,0-5.5c0-35.3,0-70.6,0-105.9
		c0-18.7-10.7-29.3-29.5-29.3c-4.8,0-9.7,0-14.5,0c-15.2,0.2-26.6,11.4-26.8,26.4c-0.2,12-0.2,24-0.2,36c0,64,0,127.9,0,191.9
		c0,1.8,0.1,3.6,0.9,5.4c8.5,19.7,17,39.3,25.5,59.1c1.8,4.2,4,7.7,9.3,7.7c5.2,0,7.4-3.6,9.2-7.8c8.4-19.6,16.8-39.1,25.2-58.6
		c0.8-1.9,0.9-3.8,0.9-5.8C436.1,456.1,436.1,418.3,436.1,380.5z M383.1,266.7c0.1-5.4,3.1-9,8.4-9.3c6.1-0.4,12.3-0.3,18.4,0
		c5.1,0.3,8.1,3.7,8.2,8.8c0.1,7.6-0.1,15.3,0.1,22.9c0.1,2.7-0.9,3.4-3.5,3.2c-4.8-0.2-9.6-0.1-14.5-0.1c0,0.1,0,0.1,0,0.2
		c-4.7,0-9.3-0.1-13.9,0c-2.6,0.1-3.4-0.9-3.4-3.4C383.1,281.6,383,274.1,383.1,266.7z M400.7,535c-4.5-10.4-8.6-20-12.9-30
		c8.7,0,16.8,0,25.7,0C409.2,514.9,405.1,524.5,400.7,535z M418.2,399.4c0,27.5-0.1,55,0.1,82.5c0,3.8-0.8,5.2-4.9,5.1
		c-8.5-0.3-17-0.3-25.5,0c-3.9,0.1-5-0.9-5-4.9c0.2-39,0.1-78,0.1-116.9c0-16.5,0.1-33-0.1-49.5c0-3.7,0.7-5.3,4.8-5.1
		c8.3,0.4,16.7,0.4,25,0c4.3-0.2,5.6,0.9,5.6,5.4C418.1,343.8,418.2,371.6,418.2,399.4z"/>
</g>
</svg>
