<?xml version="1.0" encoding="utf-8"?>
<!-- Generator: Adobe Illustrator 19.0.0, SVG Export Plug-In . SVG Version: 6.00 Build 0)  -->
<svg version="1.1" id="Calque_1" xmlns="http://www.w3.org/2000/svg" xmlns:xlink="http://www.w3.org/1999/xlink" x="0px" y="0px"
	 viewBox="0 0 612 792" style="enable-background:new 0 0 612 792;" xml:space="preserve">
<style type="text/css">
	.st0{fill:#FDCE5A;}
	.st1{fill:#FDFDFD;}
	.st2{fill:#324A5E;}
	.st3{fill:#E4E7EC;}
	.st4{fill:#E5E7EC;}
	.st5{fill:#2C3C4E;}
	.st6{fill:#54BFE9;}
	.st7{fill:#83D9FD;}
	.st8{fill:#54BFEA;}
	.st9{fill:#82D8FB;}
	.st10{fill:#82D8FC;}
</style>
<g>
	<path class="st0" d="M300.1,151c140,0,254,113.9,253.9,253.8C554,545.5,440.2,659,299.4,659C159.6,659,45.9,544.8,46,404.7
		C46.1,264.6,159.9,151,300.1,151z"/>
	<path class="st1" d="M446.9,405c5.6,1.5,11.4,2.4,16.6,5.1c1.4,0.8,3.3,1.4,3.3,3.4c0.1,2.2-1.7,3.2-3.3,4
		c-7.9,3.7-16.5,5.2-25,6.5c-30.3,4.6-60.8,6.2-91.4,7.3c-29.8,1.1-59.6,1-89.4,0.3c-28.4-0.6-56.8-2.2-85.1-5.8
		c-11-1.4-22.1-2.9-32.6-6.7c-2.9-1.1-6.9-1.9-6.7-5.6c0.1-3.5,4-4.1,6.8-5c4.3-1.4,8.7-2.4,13-3.5c1.9-1.6,4-1.3,6.2-0.9
		c25,4,50.3,5.4,75.4,7.5c5.1,0.4,10.3,0.8,15.4,1c-29.5-1-58.3-5.3-86.4-14.6c-3.4-1.1-7.2-1.8-9.6-4.9c1.1-31.6,12.1-59.4,31.6-84
		c8.2-10.3,17.5-19.5,28.4-27c3.4-0.1,3.9,2.8,4.9,4.9c6.8,15.2,13.8,30.3,20.6,45.5c5,10.9,9.6,22,14.9,32.7
		c1.2,2.4,2.2,4.8,2.6,6.1c-3.6-25.6-8.6-52.3-12.3-79.2c-0.7-5.1-1.9-10.1-2.6-15.3c-1-7-0.8-13.9-0.1-20.8
		c2.1-12,12.1-21,24.2-21.1c22.4-0.2,44.9-0.2,67.3,0c14,0.1,25.4,12.1,25.6,26.1c0,1.7,0,3.3,0.1,5c1.2,6.4-1.1,12.6-2.1,18.7
		c-3.4,21.4-6.3,42.8-10.2,64.1c-1.3,7-1.9,14.2-3,21.3c7.6-18.9,17.1-36.9,25-55.8c4.3-10.3,9.8-20.1,13.9-30.4
		c0.5-1.2,1.1-2.5,2.5-2.9c36.6,26.8,57.6,62.4,61,107.9c1.4,3.8-0.6,5.3-3.9,6.6c-24.4,9.5-49.8,14.2-75.9,15.6
		c-3.7,0.2-7.5,0.8-11.3,1.2c-2.5,0.3-5,0.5-7.5-0.1c4.6,1,9.3,0.1,13.9-0.3c26.8-2.4,53.7-3.5,80.3-7.8
		C443.6,403.8,445.4,403.6,446.9,405z"/>
	<path class="st2" d="M176.9,487.1c7.7-19.7,23-29.7,43-33.6c2.6-0.5,5.3-0.5,8-0.5c47.5,0,94.9-0.3,142.4,0.1
		c23.8,0.2,41.8,10.6,51.7,33.1c0.2,0.4,0.7,0.7,1,1c1.9,2,1.5,4.6,1.5,7.1c0.1,11.6,0.1,23.1,0,34.7c0,3.1,0.6,5.9,2.7,8.2
		c-3.5,0.5-4.6,2.5-5.7,5.9c-5.5,16-18.1,24.7-33.3,29.8c-15.1,5.1-29.5,2.3-43.2-5.5c-8.9-5.1-17-11.2-24.2-18.3
		c-12.7-12.4-28.9-12.6-41.8-0.3c-10.5,10.1-22.1,18.7-36,23.8c-21.5,7.9-49.9-2.3-61.7-21.9c-1.5-2.6-3.1-5.2-3.4-8.2
		c-0.3-3.3-2.2-4.7-5.1-5.3c1.4-2.7,1.7-5.7,1.7-8.7c0-10.6-0.1-21.3,0-31.9C174.5,493.2,174.5,489.8,176.9,487.1z"/>
	<path class="st3" d="M241.9,256c-0.2,18,4.2,35.4,6.6,53c2.5,18.3,5.6,36.5,8.5,54.8c0.6,4.1,2,8.1,1.7,13.9
		c-3.5-6.5-5.9-11.8-8.3-17.2c-7.8-17.7-16-35.3-23.8-52.9c-2.6-5.9-5.9-11.5-7.9-17.7c-0.9-2.9-1.9-6.1-4.8-8
		c6.2-5.8,13.7-9.7,21.2-13.2c4.3-2,6.8-4.1,5.9-9C240.9,258.5,240.9,257.1,241.9,256z"/>
	<path class="st3" d="M385,280.9c-14,31.2-28,62.4-42,93.7c-0.4-0.1-0.8-0.2-1.2-0.4c-0.1-6,1.7-11.7,2.5-17.6
		c2.3-16.3,5-32.5,7.7-48.7c2.4-14,3.6-28.2,7-42C368.3,269.9,377.1,274.6,385,280.9z"/>
	<path class="st4" d="M446.9,405c-8.8,0.4-17.3,2.6-26.1,3.1c-8.4,0.5-16.6,2.2-25,2.7c-15.5,1-31.1,1.4-46.7,2.1c-1,0-2,0-3-0.5
		c4.3-0.1,8.4-1.1,12.6-1.5c24.1-2.3,48-5.6,71.3-12.5c4.6-1.4,8.5-4.3,13.4-4.9c2.6-0.3,2.5-2.7,2.5-4.7
		C448,394.2,446.4,399.7,446.9,405z"/>
	<path class="st5" d="M427.2,537.1c-3.6,0.4-4.3-1.6-4.3-4.8c0.1-15.1,0.1-30.1,0.1-45.2c6.8-0.2,10.5,2.9,10.6,9.4
		c0.2,10.6,0.2,21.2,0,31.7C433.6,532.6,431.9,536.1,427.2,537.1z"/>
	<path class="st3" d="M154,393c10,3.5,20,6.8,30.3,9.3c19,4.6,38.1,7.8,57.7,8.7c3.3,0.2,6.4,1.6,9.8,2c-3.8,0-7.6,0.3-11.4-0.1
		c-12-1.2-24.1-1.4-36.2-2.1c-10.5-0.6-21-2.3-31.5-3.5c-6.6-0.8-13.1-1.6-19.7-2.4C153.5,401,152.2,396.9,154,393z"/>
	<path class="st5" d="M176.9,487.1c-1.9,15-0.5,30.1-0.9,45.2c-0.1,2.4,0.4,4.9-3.2,4.8c-4.7-1-6.4-4.6-6.4-8.8
		c-0.2-10.7-0.2-21.5,0-32.2C166.5,490,170.3,487.1,176.9,487.1z"/>
	<path class="st6" d="M319,533.8c-19-8.5-33.5-5.9-48.7,8.5c-10.5,9.9-21.9,18.4-36.4,21.5c-0.4-2.5,1.3-4,2.5-5.7
		c20.7-30.3,41.5-60.6,62.4-90.7c0.9-1.2,1.9-2.3,3-3.3c21.3,0,42.7,0,64,0c0.8,2.1-0.6,3.5-1.6,5c-14.8,21.1-29.3,42.3-43.9,63.4
		C320.1,533,319.6,533.5,319,533.8z"/>
	<path class="st6" d="M203.1,556.7c-10-6.5-16-14.9-15.2-27.6c0.7-11.4,0.2-23,0.1-34.4c-0.1-5.6,1.8-10.4,5.5-14.5
		c9.6-10.4,21.1-16.4,35.6-16.2c12.3,0.2,24.6,0.1,36.9,0.2c0.7,1.9-0.4,3.2-1.3,4.6c-20.1,28.5-39.5,57.5-59.4,86.1
		C204.7,555.6,204,556.3,203.1,556.7z"/>
	<path class="st6" d="M397.1,471.8c10.1,6.5,15.9,15,15,27.7c-0.7,9.8-0.7,19.7,0,29.4c1,12.4-5,20.6-14.4,27.1
		c-15.3,10.7-31.2,11.1-47.3,1.8c-3-1.7-5.8-3.8-8.7-5.7c0.8-4.5,4.3-7.5,6.7-11c15.1-21.9,30.3-43.9,45.4-65.8
		C394.8,474.2,395.5,472.6,397.1,471.8z"/>
	<path class="st7" d="M203.1,556.7c5.1-9.9,12.3-18.4,18.5-27.5c13.5-20,27.4-39.8,41.1-59.6c1.2-1.8,2.2-3.7,3.4-5.5
		c5.3-0.4,10.6-0.5,15.9,0c0.6,2-0.9,3.1-1.8,4.4c-20.5,30.3-41.5,60.3-62.1,90.6c-0.8,1.2-1.5,2.6-3.1,3.1
		C210.4,561.6,206.7,559.3,203.1,556.7z"/>
	<path class="st8" d="M214.9,562.2c7.5-12.9,16.6-24.8,25-37.1c13.9-20.4,28-40.7,42-61c4.4,0,8.7,0,13.1,0c0.5,1.5-0.5,2.5-1.2,3.6
		c-21.4,31.3-42.8,62.6-64.5,93.6c-0.5,0.7-1,1.4-1.7,1.8c1.6-0.2,3.3-0.6,4.5,1C226.1,565.9,220.5,564.1,214.9,562.2z"/>
	<path class="st7" d="M319,533.8c3.8-8.7,10.2-15.8,15.4-23.6c10.4-15.5,21.1-30.8,31.6-46.2c5-0.2,10.1-0.9,15,0.9
		c1.3,1.9-0.2,3.1-1,4.4c-15.1,22-30.3,44-45.5,65.9c-1.6,2.2-2.5,5.7-6.3,5.6C325.1,538.6,322.1,536.2,319,533.8z"/>
	<path class="st6" d="M328.1,540.9c6.5-6.1,10.4-14,15.5-21.1c12.5-17.5,24.6-35.3,36.8-53c0.4-0.5,0.4-1.2,0.6-1.9
		c3.9,0.6,7.7,1.7,11.1,3.9c-0.3,2.3-1.8,3.9-3,5.6c-15.7,22.7-31.2,45.6-46.8,68.3c-1.5,2.2-2.8,4.6-5.2,5.9
		C333.7,546.6,331,543.6,328.1,540.9z"/>
	<path class="st9" d="M232.1,564.1c-1.7,0-3.3,0-6,0c4.8-7.1,9.1-13.6,13.5-20c10.1-14.7,20.3-29.4,30.5-44.1
		c8.3-12,16.6-23.9,24.9-35.9c2.3,0,4.6,0,7,0c-4.3,8.7-10.6,15.9-16,23.9c-17.2,25.4-34.6,50.6-52,75.9
		C233.4,563.9,232.7,564,232.1,564.1z"/>
	<path class="st10" d="M337,548.8c6.6-9.9,13.2-19.8,19.9-29.6c10.9-16,21.9-31.9,32.9-47.9c0.7-1,1.2-2,2.3-2.5
		c1.9,0.5,3.6,1.4,5,2.9c-4.3,8.2-10,15.5-15.2,23.1c-12.6,18.5-25.5,36.7-38.3,55c-0.6,0.8-1.2,1.5-1.9,2.3
		C339.9,551.5,338.4,550.2,337,548.8z"/>
</g>
</svg>
