<?xml version="1.0" encoding="utf-8"?>
<!-- Generator: Adobe Illustrator 19.0.0, SVG Export Plug-In . SVG Version: 6.00 Build 0)  -->
<svg version="1.1" id="Calque_1" xmlns="http://www.w3.org/2000/svg" xmlns:xlink="http://www.w3.org/1999/xlink" x="0px" y="0px"
	 viewBox="0 0 612 792" style="enable-background:new 0 0 612 792;" xml:space="preserve">
<style type="text/css">
	.st0{fill:#F9C85F;}
	.st1{fill:#303C42;}
	.st2{fill:#F9C960;}
	.st3{fill:#F9C95F;}
	.st4{fill:#313D42;}
	.st5{fill:#E6E6E6;}
	.st6{fill:#FDFDFD;}
</style>
<g>
	<path class="st0" d="M518.7,288.3c8.2,17.8,15.4,36.1,19.6,55.3c14.3,64.2,6.1,125.4-26.8,182.5c-37.5,65.1-93.8,105.7-167.1,121.5
		c-56.5,12.2-111,4.7-163-20.6c-1-2.4,0.7-4.1,1.8-5.9c5.3-9.1,10.8-18,16.4-26.9c2.8-4.4,4-8.9,4-14.1
		c-0.1-74.6-0.1-149.2-0.1-223.9c0-1.8,0.1-3.7,0-5.5c-0.4-5.2,1.7-8.7,6.2-11.5c9.1-5.5,16.6-12.9,21.9-22.2
		c2.4-4.2,5.5-5.6,10.1-5.6c27.3,0.1,54.6,0.1,81.9,0.1c48.6,0,97.3,0,145.9,0.1c5.4,0,10.1-1.1,14.6-4.1
		c8.9-5.8,18.2-11.1,27.2-16.7C513.6,289.5,515.7,287.5,518.7,288.3z"/>
	<path class="st1" d="M518.7,288.3c-12.4,7.5-24.8,15-37,22.6c-2.5,1.6-5,2.2-7.9,2.2c-77.3,0-154.6,0-231.9-0.1
		c-4.2,0-6.8,0.7-9,4.8c-5.4,9.8-13.3,17.5-23,23.1c-3.5,2-4.6,4.3-4.6,8.3c0.1,77.5,0.1,154.9,0.1,232.4c0,4.2-0.9,7.7-3.2,11.3
		c-7.1,11.3-13.9,22.7-20.8,34.1c-6.4,7.6-12.3,7.2-17.6-1.4c-2.9-4.6-5.8-9.2-8.8-13.8c-6.7-6.5-10.4-15-15.1-22.9
		c-1.8-3.1-1.4-6.8-1.4-10.3c0-74.5-0.1-149,0.1-223.5c0-6.8-1.8-11.1-7.7-15.1c-24.6-16.9-37.4-48.6-28.3-78.2
		c1.8-5.8,1.7-10.2-3.5-14c-1.5-1.1-2.6-2.6-3-4.5c-9.8-9.9-19.7-19.8-29.5-29.8c-6.2-6.2-6.2-10.1,0.1-16.4
		c7.9-7.9,15.7-15.8,23.7-23.6c5.1-5.1,9.5-5,14.7,0.1c10.3,10.1,20.6,20.3,30.9,30.5c2.8,0.6,4.5,2.8,6.3,4.7
		c2.7,3.1,5.6,3.9,9.7,2.7c22-6.4,42.5-2.8,61.4,9.9c7.5,5,14.1,11.3,18.7,19.1c2.9,4.8,6.5,6.2,11.8,6.2
		c73.4-0.1,146.8,0.3,220.2-0.4c16-0.1,27.5,6.7,38.7,16.2c4.9,3.1,9.8,6.3,14.7,9.4C525.6,276.8,525.9,282.4,518.7,288.3z"/>
	<path class="st2" d="M503,262.5c-6.6-3.9-13.2-7.7-19.7-11.8c-3.1-2-6.2-2.8-9.8-2.8c-77.4,0.1-154.8,0-232.2,0.2
		c-4.3,0-6.7-1.1-9-5c-16.7-27.2-50.1-39.5-80.8-29.9c-3.8,1.2-6.5,1.1-9-2.2c-1.9-2.5-4.3-4.6-6.4-6.9
		c33.1-26.5,70.6-43.5,112.3-51c54.6-9.7,107-2.3,156.7,22.2c37.5,18.5,68.6,45,92.9,79.2C499.7,257.1,502.2,259.3,503,262.5z"/>
	<path class="st3" d="M96.2,243.4c0.2,0.1,0.3,0.1,0.5,0.2c7.6,5.5,9.7,11.3,6.9,21.5c-8.1,29.5,5.6,60.5,32,76.3
		c3.5,2.1,4.6,4.3,4.6,8.2c-0.1,77.3-0.1,154.5-0.2,231.8c0,3.8,0.9,7.1,2.9,10.3c4.1,6.6,8,13.4,12,20.1
		c-22.3-14.4-41.6-32-58.3-52.7c-17.2-21.3-30.6-44.7-40-70.4c-8.3-22.4-13.2-45.5-15-69.4c-3.2-44.6,4.9-87,24.1-127.4
		C74.1,274.6,84.5,258.6,96.2,243.4z"/>
	<path class="st1" d="M337.9,609.3c-5,0.1-7.6-2.5-8.6-6.6c-1.1-4.5,1-7.8,5-9.7c9.4-4.2,18.7-8.6,27.7-13.6c2-1.1,4-2.4,6.1-3.3
		c4.1-1.7,8.4,0,10.6,4c2,3.8,1.3,8.4-2.4,10.6c-11.3,6.9-23.2,12.9-35.4,18.1C339.9,609.3,338.7,609.2,337.9,609.3z"/>
	<path class="st1" d="M439.2,538.2c0.1,1.9-0.9,4-2.8,5.9c-8.8,8.8-18,17.2-27.9,24.8c-4.3,3.3-9.4,2.9-12.5-0.8
		c-3.1-3.6-2.6-8.8,1.7-12.3c9.5-7.9,18.8-15.8,27.6-24.4c2.6-2.5,5.9-3,9.2-1.4C437.7,531.3,439.2,533.9,439.2,538.2z"/>
	<path class="st1" d="M524.1,339c-0.8,9.8-1.5,19.6-2.3,29.4c-0.1,1.2-0.4,2.3-0.6,3.4c-1.1,4.7-5,7.5-9.5,6.9
		c-4.5-0.6-7.4-3.9-7-8.8c1.1-12.8,2.4-25.5,2.4-38.4c0-4.4,3.4-7.3,7.7-7.6c4.6-0.3,8.2,2.4,8.8,7c0.4,2.6,0.1,5.3,0.1,8
		C523.8,339,524,339,524.1,339z"/>
	<path class="st1" d="M493.9,451.9c-6.1-0.1-10.5-5.7-8.4-11c4.5-11.8,8.8-23.6,11.9-35.8c1.3-4.9,5.9-7.2,10.5-5.9
		c4.1,1.1,7,5.7,5.8,10.2c-3.3,12.8-7.6,25.4-12.8,37.6C499.7,450.2,496.9,451.6,493.9,451.9z"/>
	<path class="st1" d="M485.2,477.2c0.1,1.9-0.6,3.6-1.5,5.2c-6.3,10.8-13.2,21.2-20.8,31.1c-3.2,4.2-8.5,5.1-12.3,2.4
		c-3.8-2.8-4.5-8.1-1.2-12.4c7.3-9.5,13.8-19.5,19.8-30c2.3-4,5.9-5.5,10.2-4.2C483.1,470.4,485,473.3,485.2,477.2z"/>
	<path class="st1" d="M266.4,629.4c-6.1-0.1-9.9-3.3-10.3-7.8c-0.4-4,2.1-7.8,6.7-8.6c12.4-2.2,24.8-4.5,37-7.8
		c4.6-1.3,9,1.8,10.1,6c1,4-1.2,8.6-5.5,10C291.6,625.3,278.3,627.5,266.4,629.4z"/>
	<path class="st4" d="M225.5,632.2c-6.2,0-9.6-2.9-9.6-8.2c-0.1-5.2,3.6-8.6,9.4-8.7c5.6-0.1,9.6,3.3,9.7,8.4
		C235.1,628.9,231.4,632.2,225.5,632.2z"/>
	<path class="st5" d="M227.1,280.9c0,29.7-24.3,54-54.1,54.1c-30.5,0.1-55-24.4-54.9-54.9c0.1-29.1,25-53.9,54.1-53.8
		C203.3,226.3,227.1,250,227.1,280.9z"/>
	<path class="st6" d="M188.1,350.2c0,27.3,0,53.9,0,80.6c0,49,0,97.9,0,146.9c0,3.3-0.7,6.1-2.5,8.9c-4.4,6.8-8.5,13.8-13.1,21.3
		c-5.3-8.7-10.3-16.9-15.3-25.1c-0.8-1.4-0.6-2.9-0.6-4.4c0-74.6,0-149.2-0.1-223.8c0-3.6,0.7-4.4,4.3-3.6
		C169.8,352.9,178.8,352.3,188.1,350.2z"/>
	<path class="st6" d="M242.4,296c2-10.2,2.4-20.3-0.1-30.3c1.7-1,3.4-0.5,5-0.5c74,0,147.9,0,221.9-0.1c3.3,0,6.1,0.6,8.9,2.4
		c6.9,4.4,13.9,8.5,21.6,13.3c-8.8,5.3-17,10.3-25.3,15.2c-0.8,0.5-2,0.2-3,0.2c-75.5,0-150.9,0-226.4,0
		C244.3,296.2,243.4,296,242.4,296z"/>
	<path class="st5" d="M115.1,238.4c-10.3-10.5-20.6-20.9-30.9-31.2c-1.6-1.6-0.8-2.4,0.3-3.6c3.8-3.7,7.6-7.4,11.3-11.3
		c1.5-1.6,2.6-1.4,4,0.1c9.5,9.6,19,19.1,28.6,28.6c1.8,1.7,1.7,2.7-0.2,4.2C123.4,228.8,119.3,233.1,115.1,238.4z"/>
	<path class="st1" d="M171.6,289.1c-2.3,0-4.7,0.1-7,0c-4.8-0.3-7.7-3.5-7.9-8c-0.1-4.6,2.5-8.3,7.2-8.6c5.5-0.4,11-0.4,16.4,0
		c4.5,0.4,7,3.9,6.9,8.3c-0.1,4.5-3.1,7.9-7.7,8.2C176.9,289.3,174.2,289.1,171.6,289.1z"/>
</g>
</svg>
