<?xml version="1.0" encoding="utf-8"?>
<!-- Generator: Adobe Illustrator 19.0.0, SVG Export Plug-In . SVG Version: 6.00 Build 0)  -->
<svg version="1.1" id="Calque_1" xmlns="http://www.w3.org/2000/svg" xmlns:xlink="http://www.w3.org/1999/xlink" x="0px" y="0px"
	 viewBox="0 0 612 792" style="enable-background:new 0 0 612 792;" xml:space="preserve">
<style type="text/css">
	.st0{fill:#FB5C3F;}
</style>
<path class="st0" d="M423.2,403.1c40.2-40.2,80.4-80.3,120.5-120.6c6.9-6.9,12.2-15,15.5-24.2c2.2-6.1,1.6-12.6,2.8-18.9
	c0-5.7,0-11.3,0-17c-1.1-6.2-0.3-12.8-2.8-18.6c-10.5-24.1-26.7-41.4-54.4-44.6c-1.9-0.2-4,0.3-5.8-0.8c-6,0-12,0-18,0
	c-0.4,0.4-0.8,0.5-1.4,0.5c-17.4-0.4-31.2,7.3-43.2,19.2C396.6,218,356.8,257.8,317,297.6c-1.2,1.2-2.4,2.4-3.6,3.5
	c-1.9,1.8-3.8,1.9-5.7,0.1c-1.3-1.3-2.6-2.6-3.9-3.8c-43.5-43.5-87-87-130.5-130.4c-1.4-1.4-2.8-2.9-4.3-4.2
	c-5.2-4.8-9-4.8-14.3,0.1c-1.1,1-2.1,2.1-3.2,3.2c-31.3,31.3-62.7,62.7-94,94c-3.1,3.1-6,6.2-7.5,10.4c0,0.3,0,0.7,0,1
	c1.6,3.9,4.1,7.1,7.1,10.1c10,9.7,19.8,19.7,29.7,29.6c34.4,34.4,68.8,68.8,103.1,103.2c4.7,4.7,4.6,5.5,0.1,10.1
	c-0.9,1-1.9,1.9-2.8,2.8c-33.6,33.6-67.1,67.1-100.7,100.7c-2.9,2.9-5.4,5.8-6.5,9.9C70.4,575.4,56.8,612,50,650.4c0,2.7,0,5.3,0,8
	c0.5,7.5,4.5,11.5,12,12c2.7,0,5.3,0,8,0c5.7-1.6,11.8-1.4,17.5-3c30.3-8.6,60.5-17.3,90.8-25.8c6.3-1.8,11.4-4.9,16-9.5
	c33.3-33.4,66.6-66.7,99.9-100c1.2-1.2,2.4-2.3,3.6-3.5c2.2-2.1,4.4-2,6.6,0.1c1.2,1.2,2.4,2.3,3.6,3.5
	c43.5,43.5,86.9,86.9,130.3,130.4c3.2,3.2,6.4,6.3,10.8,7.9c0.3,0,0.7,0,1,0c2.4-1.5,5.1-2.3,7.2-4.4c33.4-33.5,67-66.9,100.4-100.4
	c5.2-5.2,5-9.2-0.2-14.6c-1.4-1.4-2.8-2.8-4.2-4.3c-43.4-43.4-86.7-86.7-130.1-130.1c-1.2-1.2-2.3-2.4-3.5-3.6
	c-2.2-2.2-2.1-4.3,0.1-6.5C420.8,405.5,422,404.3,423.2,403.1z M458,205c8.6-9.2,18.9-14.5,27.2-14.6c21.6,0,37.2,11,42.6,27
	c5.5,16.1,0.2,35-12.6,45.2c-1.7,1.4-2.5,0.8-3.6-0.3c-17.7-17.8-35.5-35.5-53.3-53.3C456.9,207.7,456.3,206.8,458,205z
	 M418.6,244.4c4.3-4.1,8.5-8.4,12.7-12.7c1.5-1.6,2.5-2,4.3-0.2c17.7,17.8,35.5,35.5,53.2,53.3c0.6,0.6,1.1,1.2,1.8,2
	c-0.6,0.7-1,1.3-1.6,1.9c-4.5,4.5-9,8.9-13.3,13.5c-1.7,1.8-2.7,1.6-4.4-0.1c-17.6-17.7-35.2-35.4-52.9-52.9
	C416.4,247.1,416.9,246.1,418.6,244.4z M106.3,626.3c-4.5,1.3-9,2.5-13.4,3.9c-2.5,0.7-3.4,0.1-2.7-2.6c4.9-17.1,9.8-34.2,14.7-51.3
	c0.6-2.2,1.2-3,3.1-1c12.8,12.8,25.7,25.6,39.4,39.3C133.1,618.6,119.7,622.5,106.3,626.3z M275.6,502.1
	c-15.3,15.3-30.6,30.6-45.9,45.9c-16.1,16.1-32.3,32.3-48.4,48.4c-1,1-2.1,2-3.4,3.2c-0.9-0.8-1.6-1.4-2.3-2.1
	c-17.5-17.5-35.1-35.1-52.7-52.6c-1.8-1.8-2-2.9-0.1-4.7c32.1-32,64.1-64,96.1-96.1c1.7-1.7,2.7-1.8,4.4,0
	c17.6,17.7,35.2,35.4,53,52.9C278.8,499.5,277.1,500.6,275.6,502.1z M420.9,463.1c2.6,2.4,2,3.8-0.2,5.9c-4.1,3.9-8,8.1-12.1,11.9
	c-2,1.8-1.8,3,0.1,4.8c6.1,5.9,12.1,11.9,18,18c1.6,1.7,2.7,1.8,4.4,0c4.3-4.5,8.8-8.7,13-13.1c1.6-1.7,2.7-1.7,4.4,0
	c6.9,7,13.8,14,20.8,20.9c1.9,1.8,1.8,3,0,4.8c-4.4,4.1-8.5,8.5-12.8,12.7c-1.6,1.5-2.1,2.6-0.2,4.4c6.3,6.2,12.5,12.5,18.8,18.7
	c0.5,0.5,1,0.9,1.4,1.2c1.4-0.1,2.1-1.2,2.9-2c4.3-4.2,8.6-8.4,12.7-12.7c1.7-1.7,2.7-1.7,4.4,0c5.8,6,11.7,11.9,17.6,17.7
	c1.7,1.7,1.8,2.7,0,4.4c-20.8,20.7-41.6,41.4-62.2,62.2c-2.7,2.8-3.8,0.8-5.4-0.8c-32.4-32.4-64.8-64.8-97.2-97.2
	c-82.7-82.7-165.4-165.4-248.1-248.1c-6-6-6-6,0.2-12.1c19.1-19.1,38.2-38.1,57.2-57.3c2.5-2.6,4-3,6.6-0.1
	c5.2,5.6,10.7,11,16.2,16.3c2,1.9,2.2,3.2,0,5.1c-4.3,4-8.2,8.3-12.4,12.3c-1.7,1.6-2.4,2.8-0.3,4.8c6.1,5.9,12.1,11.9,18,18
	c1.8,1.9,3,1.9,4.8,0c4-4.2,8.3-8.2,12.3-12.4c1.8-1.9,3-2.4,5.2-0.2c6.7,7,13.5,13.8,20.5,20.5c2.2,2.1,1.7,3.3-0.2,5.1
	c-4.1,3.9-7.9,8.1-12.1,11.9c-2.2,2-2.5,3.3-0.1,5.5c5.9,5.6,11.7,11.4,17.3,17.3c2.2,2.4,3.5,2,5.5-0.1c4-4.3,8.3-8.2,12.3-12.4
	c1.6-1.7,2.7-1.9,4.4-0.1c7,7.2,14,14.2,21.2,21.2c1.9,1.9,1.2,2.9-0.3,4.4c-4.3,4.2-8.4,8.6-12.8,12.7c-1.9,1.8-1.9,3,0,4.8
	c6.1,5.9,12.1,11.9,18,18c2,2,3.1,1.6,4.8-0.2c4-4.2,8.3-8.2,12.3-12.4c2-2.1,3.2-2,5.2,0c6.7,6.9,13.6,13.8,20.5,20.5
	c2,1.9,1.7,3-0.1,4.8c-4.2,4-8.2,8.3-12.4,12.3c-2,1.9-2.3,3.1-0.1,5.2c6,5.7,11.9,11.6,17.7,17.7c2.1,2.2,3.3,1.8,5.2-0.2
	c4-4.2,8.3-8.2,12.3-12.4c1.8-1.9,2.9-2,4.7-0.1c6.7,6.9,13.6,13.8,20.5,20.5c2,1.9,2.2,3.2,0.1,5.1c-4.1,3.9-8,8.1-12.1,11.9
	c-2.1,1.9-2.7,3.2-0.3,5.5c6,5.6,11.7,11.4,17.3,17.3c2.2,2.3,3.5,2.2,5.5-0.1c3.8-4.2,8-8,11.9-12.1c1.8-1.9,3-2.5,5.1-0.2
	C407.3,449.8,414,456.5,420.9,463.1z M392.9,384.8c-0.8,0.8-1.6,1.5-2.5,2.4c-0.9-0.8-1.7-1.4-2.4-2.1c-17.5-17.5-35-35.1-52.7-52.6
	c-2.2-2.2-1.6-3.2,0.2-5c18.5-18.4,37.1-36.9,55.4-55.5c2.3-2.3,3.3-1.9,5.4,0.1c17.2,17.4,34.5,34.7,51.9,51.9c2,2,2.5,3.1,0.1,5.4
	C429.8,347.8,411.4,366.3,392.9,384.8z"/>
</svg>
