<?xml version="1.0" encoding="utf-8"?>
<!-- Generator: Adobe Illustrator 19.0.0, SVG Export Plug-In . SVG Version: 6.00 Build 0)  -->
<svg version="1.1" id="Calque_1" xmlns="http://www.w3.org/2000/svg" xmlns:xlink="http://www.w3.org/1999/xlink" x="0px" y="0px"
	 viewBox="0 0 612 792" style="enable-background:new 0 0 612 792;" xml:space="preserve">
<style type="text/css">
	.st0{fill:#E04D4D;}
	.st1{fill:#C04646;}
	.st2{fill:#F7E058;}
	.st3{fill:#1C1C1C;}
	.st4{fill:#F6DF57;}
	.st5{fill:#443E1E;}
	.st6{fill:#2F2B18;}
	.st7{fill:#342F19;}
	.st8{fill:#35301A;}
	.st9{fill:#2C2817;}
	.st10{fill:#302C18;}
	.st11{fill:#36311A;}
	.st12{fill:#312C18;}
	.st13{fill:#424242;}
</style>
<g>
	<path class="st0" d="M255,634.4c-27.2-4.9-52.4-14.9-75.7-29.6C123.6,569.7,87.5,520,74.6,455.4c-14.7-73.2,2.3-139.5,50.8-196.8
		c33.8-40,77-65.6,128.3-75.6c67.7-13.3,130.2,0.4,185.4,42.2c49.2,37.2,78.8,86.9,88.5,147.8c7.6,47.8,0.4,93.8-20.8,137.5
		c-0.5,1-1.2,2-1.8,3c-2,0.5-3.1-0.9-4.3-2c-1.3-1.1-2.4-2.3-3.6-3.5c-82.8-82.8-165.6-165.6-248.5-248.5c-1.8-1.8-3.6-3.5-5.3-5.5
		c0,79,0,157.8-0.1,236.7c0,2.7,1.4,6.1-2,8.1c-0.6-0.3-1-0.7-1.2-1.3c-1-2.9-0.7-5.9-0.7-8.9c0-75.7,0-151.4,0-227.2
		c0-9.3,0-9.3-9.4-9.3c-11.2,0-22.3,0-33.5,0c-7.7,0-7.8,0.1-7.9,7.8c0,1,0,2-0.1,3c0,1.6,0.1,3.1,0,4.7c0.2,3.9,0,7.9,0.1,11.8
		c0.1,6.3,0.3,6.5,6.8,6.6c3.3,0,6.6-0.1,9.9,0.1c1.9,0.1,4.1-0.2,5,2.2c-1.6,2-3.9,1.6-6,1.7c-3.8,0.1-7.6-0.1-11.4,0.1
		c-1.9,0.1-4.2-0.1-4.3,2.9c0.1,4.3,0.2,8.6,0,12.9c-0.1,3.9,1.6,5.3,5.3,5.2c3.8-0.1,7.6-0.2,11.4,0.1c1.9,0.1,4.1-0.2,5,2.2
		c-1.6,2-3.9,1.6-6,1.7c-3.8,0.1-7.7-0.1-11.5,0.1c-1.9,0.1-4.2-0.1-4.2,2.9c0.1,6.3,0.1,12.6,0,18.9c0,3,2.2,2.9,4.2,3
		c3.8,0.2,7.6,0,11.4,0.1c2.1,0.1,4.4-0.2,6.1,1.5c-0.7,2.7-3,2.3-4.8,2.4c-3.8,0.2-7.7,0.2-11.5,0.1c-3.8-0.1-5.5,1.3-5.4,5.2
		c0.1,4.3,0.2,8.7,0,13c0.1,1.5,0.1,3,0,4.6c0.2,6.8,0.2,13.6,0,20.4c0.1,1.5,0.1,3.1,0,4.6c0.2,6.8,0.2,13.6,0,20.4
		c0.1,1.5,0.1,3,0,4.5c0.2,4,0,8,0.1,11.9c0.1,5.9,0.4,6.2,6.1,6.3c3.5,0.1,7-0.1,10.5,0.1c1.9,0.1,4.1-0.2,5.1,2.2
		c-1.5,2-3.8,1.6-5.9,1.7c-3.8,0.1-7.6-0.1-11.3,0.1c-1.8,0.1-4.2-0.3-4.5,2.6c0.2,6.4-0.8,12.9,0.8,19.3c0.3,2.2-1.2,4.3-0.8,6.5
		c0.1,6.2,0.1,12.4,0,18.6c0,3,2.3,2.8,4.2,2.9c3.8,0.2,7.6,0,11.4,0.1c2.1,0.1,4.3-0.2,6.1,1.5c-0.7,2.7-3,2.3-4.8,2.4
		c-3.8,0.2-7.7,0.2-11.5,0.1c-3.8-0.1-5.5,1.3-5.4,5.2c0.1,4.3,0.2,8.7,0,13c0.1,1.5,0.1,3,0,4.6c0.1,6.8,0.2,13.5,0,20.3
		c0,1.5,0.1,3,0,4.5c0.2,7.8-0.1,15.5,0.2,23.3c0.2,0.5,0.3,1,0.5,1.4c0.7,2.4,2.6,3.8,4.3,5.4c19.4,19.4,38.7,38.7,58.1,58.1
		C253,630.4,255.4,631.5,255,634.4z"/>
	<path class="st1" d="M255,634.4c-8.2-8.3-16.3-16.7-24.5-24.9c-13.2-13.2-26.4-26.4-39.6-39.6c-1-1-1.9-2.3-2.9-3.4
		c2.6-2.2,5.7-1.6,8.6-1.6c67,0,133.9,0,200.9,0c11.8,0,10.8,0.5,10.8-10.9c0-15.3,0-30.6,0-46c0-7.5-0.3-7.9-7.9-7.9
		c-49.8,0-99.6,0-149.4-0.1c-3.1,0-6.4,0.8-9.1-1.7c0-82,0-163.9,0-246c2.4-0.2,3.2,1.8,4.4,3c84.3,84.2,168.5,168.4,252.7,252.6
		c1.9,1.9,3.9,3.6,5.8,5.4c-6.8,15.1-16.2,28.6-26.7,41.3c-35.5,42.8-80.6,69.6-135.1,80.4c-28.7,5.7-57.5,5.4-86.3,0
		C256.2,635.1,255.6,634.7,255,634.4z"/>
	<path class="st2" d="M209.8,313.1c-6.2-1.1-12.5-0.3-18.8-0.4c-3,0-4.1-0.9-4-4c0.2-5.5,0.1-10.9,0.1-16.4
		c4.9-2.5,10.1-0.8,15.2-1.3c2.7-0.3,5.8,0.5,7.4-2.8c-6.2-1.1-12.5-0.3-18.7-0.4c-3-0.1-4.1-0.9-4-4c0.2-5.4,0.1-10.9,0.2-16.3
		c3-2.2,6.4-1.2,9.6-1.4c3.1-0.2,6.2,0.1,9.2-0.6c-4.2-0.7-8.5-0.4-12.8-0.5c-2.1-0.1-4.4,0.2-6.1-1.5c-0.4-13-0.4-13,12.3-12.9
		c12.2,0,24.3,0.2,36.5-0.1c4.2-0.1,5.2,1.2,5.2,5.3c-0.1,72.6-0.1,145.2-0.1,217.9c0,8.3,0.1,16.7,0.2,25c0.3,2.4-1.4,4-2.7,5.7
		c-7.6,9.5-15.2,18.9-22.7,28.4c-2.9,3.8-6.4,5.7-11.1,5.2c-5.9-0.6-11.9,1.3-17.7-1.2c0-7,0-14,0-21c2.2-2.1,5-1.4,7.6-1.5
		c3.8-0.1,7.5,0.1,11.3-0.5c-4.1-0.7-8.1-0.4-12.2-0.5c-2.3-0.1-4.7,0.3-6.7-1.4c0-5.5,0.1-10.9-0.1-16.4c-0.1-3.1,1-3.9,4-4
		c6.2-0.1,12.5,0.8,18.7-0.4c-1.1-2.7-3.6-2.7-5.9-2.8c-3.8-0.1-7.6,0-11.5-0.1c-1.8,0-3.7,0-5.2-1.3c0-6.8,0-13.7,0-20.5
		c2.7-1.9,5.8-1,8.7-1.2c3.7-0.2,7.5,0.5,11.1-0.9c-6-2.5-12.5,0.5-18.4-2.3c-1.9-0.7-1.6-2.3-1.6-3.7c0-5.6,0.1-11.2,0.1-16.8
		c5-2.5,10.4-0.8,15.6-1.3c2.6-0.3,5.5,0.3,6.9-2.8c-6.2-1.1-12.5-0.4-18.7-0.4c-3,0-4.1-1-3.9-4c0.2-5.4,0.1-10.9,0.2-16.4
		c3-2.2,6.4-1.1,9.7-1.3c3.1-0.2,6.1,0.1,9.2-0.6c-4.3-0.7-8.5-0.4-12.8-0.5c-2.1-0.1-4.4,0.2-6.1-1.5c0-7,0-14,0-20.9
		c2.9-2.3,6.4-1.2,9.6-1.4c3.1-0.2,6.2,0.1,9.2-0.6c-4.1-0.7-8.1-0.4-12.2-0.5c-2.3-0.1-4.7,0.3-6.6-1.4c0-7,0-13.9,0-20.9
		c2.2-2.1,5-1.5,7.6-1.6c3.8-0.1,7.5,0.1,11.3-0.5c-4-0.7-8.1-0.4-12.2-0.6c-2.3-0.1-4.7,0.3-6.7-1.4c0-5.5,0.1-10.9-0.2-16.4
		c-0.1-3.1,1-3.9,4-4c6.2-0.1,12.5,0.7,18.7-0.5c-1.1-2.7-3.5-2.7-5.9-2.8c-3.8-0.1-7.6,0-11.5-0.1c-1.8,0-3.7,0-5.2-1.3
		c0-6.8,0-13.7,0-20.5c5-2.4,10.3-0.8,15.5-1.2C205.3,315.7,208.3,316.3,209.8,313.1z"/>
	<path class="st3" d="M187.1,536.6c6.3,0,12.7-0.3,19,0c3.5,0.2,5.7-0.8,7.9-3.6c8.9-11.6,18.1-23,27.2-34.4c0.3,0.1,0.5,0,0.7-0.1
		c14.8,0.1,29.6,0.2,44.4,0.2c39.3,0,78.6,0.1,117.9-0.1c4.5,0,5.6,1.3,5.6,5.7c-0.2,19-0.3,38,0,56.9c0.1,4.5-1.2,5.5-5.6,5.5
		c-72.1-0.1-144.2-0.1-216.3-0.1c-0.1-0.3-0.2-0.5-0.3-0.8c0-3,2.2-4.7,3.8-6.8c4.1-5.4,8.7-10.4,13-16.7c-4-0.7-7.4-0.2-10.8-0.4
		c-2.3-0.1-4.7,0.6-6.6-1.4C187.1,539.1,187.1,537.8,187.1,536.6z"/>
	<path class="st4" d="M187.1,540.4c6.5,0,12.9,0,20.8,0c-7.1,8.9-13.7,17.1-20.2,25.2C186.2,557.2,187.3,548.8,187.1,540.4z"/>
	<path class="st5" d="M188.6,461.8c6.1,0,12.2,0,18.4,0c1.7,0,3.4-0.1,3.3,2.5c-0.1,2.3-1.8,2-3.2,2c-6.6,0-13.2,0-19.9,0
		C187,464.5,186.6,462.8,188.6,461.8z"/>
	<path class="st6" d="M187.1,263.4c6.7,0,13.3-0.1,20,0c1.4,0,3.1-0.4,3.1,2c0,2.4-1.7,2-3.1,2c-6.7,0-13.3,0-20,0
		C187.1,266.1,187.1,264.8,187.1,263.4z"/>
	<path class="st7" d="M209.7,288.2c1.2,2.9,0.5,4.3-2.8,4.2c-6.6-0.1-13.1-0.1-19.7-0.1c-0.6-3,0.5-4.1,3.7-4
		C197.1,288.5,203.4,288.2,209.7,288.2z"/>
	<path class="st5" d="M209.8,313.1c1.1,2.9,0.4,4.3-3,4.2c-6.6-0.1-13.1-0.1-19.7-0.1c-0.6-3,0.5-4.2,3.7-4.1
		C197.1,313.3,203.5,313.1,209.8,313.1z"/>
	<path class="st8" d="M187.1,337.7c6.6,0,13.1,0.1,19.7-0.1c3.4-0.1,4,1.4,2.9,4.2c-6.3,0-12.6-0.3-18.9-0.1
		C187.7,341.8,186.6,340.7,187.1,337.7z"/>
	<path class="st6" d="M187.1,362.6c6.6,0,13.3-0.1,19.9,0c1.4,0,3.1-0.4,3.1,2.1c0,2.4-1.7,2-3.1,2c-6.6,0-13.3,0-19.9,0
		C187.1,365.3,187.1,363.9,187.1,362.6z"/>
	<path class="st9" d="M187.1,387.5c6.6,0,13.3,0,19.9,0c1.4,0,3.1-0.5,3.1,2c0,2.5-1.7,2-3.1,2c-6.6,0-13.3,0-19.9,0
		C187.1,390.1,187.1,388.8,187.1,387.5z"/>
	<path class="st10" d="M187.1,412.4c6.6,0,13.3-0.1,19.9,0c1.4,0,3.1-0.4,3.1,2c0,2.4-1.7,2.1-3.1,2.1c-6.6,0-13.3,0-19.9,0
		C187.1,415,187.1,413.7,187.1,412.4z"/>
	<path class="st8" d="M209.7,437.2c1.3,2.9,0.5,4.2-2.8,4.2c-6.6-0.1-13.1-0.1-19.7-0.1c-0.6-3,0.6-4.1,3.7-4
		C197.1,437.4,203.4,437.2,209.7,437.2z"/>
	<path class="st11" d="M187.1,486.7c6.6,0,13.1,0.1,19.7-0.1c3.4-0.1,4,1.3,2.9,4.2c-6.3-0.1-12.6-0.3-18.9-0.1
		C187.6,490.8,186.5,489.7,187.1,486.7z"/>
	<path class="st12" d="M187.1,511.6c6.6,0,13.3,0,19.9,0c1.4,0,3.1-0.3,3.1,2.1c0,2.4-1.7,2-3.1,2c-6.6,0-13.3,0-19.9,0
		C187.1,514.2,187.1,512.9,187.1,511.6z"/>
	<path class="st13" d="M237,548.2c-0.1,5.4-4,9.4-9.3,9.3c-5.8-0.1-9.7-4-9.7-9.6c0.1-5.6,4.3-9.6,9.9-9.4
		C233.2,538.7,237.1,542.7,237,548.2z"/>
</g>
</svg>
