<?xml version="1.0" encoding="utf-8"?>
<!-- Generator: Adobe Illustrator 19.0.0, SVG Export Plug-In . SVG Version: 6.00 Build 0)  -->
<svg version="1.1" id="Calque_1" xmlns="http://www.w3.org/2000/svg" xmlns:xlink="http://www.w3.org/1999/xlink" x="0px" y="0px"
	 viewBox="0 0 612 792" style="enable-background:new 0 0 612 792;" xml:space="preserve">
<g>
	<path d="M430.5,456c-0.3,3.9-0.9,7.9-1,11.8c-0.4,11.5-7.2,19.1-17,18.7c-10.2-0.3-16.1-8.1-16-20c0.2-22.1,0.6-44.3-0.2-66.4
		c-0.7-18.8-3.8-37.4-10.7-55.2c-0.4-1-0.9-1.9-2.2-2.7c0,1.8,0,3.5,0,5.3c0,99.3,0,198.7,0,298c0,13.5-7.4,23.6-19.2,26.5
		c-16.5,4-31.6-7.9-31.7-25.3c-0.1-32.3,0-64.7,0-97c0-27.5,0-55,0-82.5c0-1.5-0.1-2.9-0.2-4.7c-2.9,0-5.7,0-9.2,0
		c0,2.2,0,4.3,0,6.4c0,58.8,0,117.7,0,176.5c0,14.3-7.8,24.3-20.5,26.9c-15.5,3.2-30.1-8.4-30.2-24.4c-0.1-32.8-0.1-65.7-0.1-98.5
		c0-21,0-42,0.1-63c0-1.9,0.8-4.4,2.1-5.6c16.6-14.9,33.4-29.6,50.3-44.4c1.1,0.9,2.1,1.7,2.9,2.4c6.4-7.4,12.9-14.6,18.9-22.1
		c4.6-5.8,5.1-12.8,1.6-18.9c-6.1-10.8-6.1-22.6-7.9-34.2c-1.6-10.3-2.9-20.7-4.3-30.7c-5.6,0-10.9,0-16.6,0
		c-0.7,4.6-1.5,9.6-2.2,14.7c-4.2-1.4-8.1-3.1-12.2-4c-7.8-1.6-14.5,0.5-19.2,7.4c-4.1,6-8.4,11.9-13.3,18.9c0-10,0-18.9,0-27.8
		c-0.4-0.1-0.8-0.2-1.2-0.4c-0.7,1.7-1.5,3.3-2.2,5c-7.6,20.9-10.1,42.8-10.7,64.8c-0.5,18.6,0.2,37.3,0.6,56
		c0.2,10.6-5.9,18.4-15.6,19c-9.5,0.6-16.7-6.7-17.3-17.2c-1.5-27.7-1.9-55.3,1.1-82.9c2.4-22.3,6.2-44.3,17.2-64.2
		c4.1-7.5,9.7-14.4,15.7-20.4c8-8.1,18.3-11.7,29.9-11.7c23.7,0.1,47.3,0.6,71-0.1c20.8-0.6,35.2,9.1,46,25.6
		c10.1,15.5,15.1,32.9,18,50.9c2,12.8,2.9,25.8,4.3,38.7c0.2,1.6,0.5,3.2,0.8,4.8C430.5,425.3,430.5,440.7,430.5,456z M327.9,306.7
		c-2.5,0.3-6.8-0.3-7.4,0.9c-2.1,4.2-3.1,9-3.9,13.7c-0.5,2.9,5.5,5.8,11.3,5.8c5.8,0,11.9-3,11.3-5.8c-0.9-4.7-2.1-9.4-4.1-13.7
		C334.6,306.5,330.5,307,327.9,306.7z"/>
	<path d="M181.5,518c7.6-8.1,15.1-16.4,22.9-24.3c5.9-5.9,12.3-11.2,18.3-16.7c0-0.1,0.5,1,1.1,2.2c4.6,9.2,14.5,13.9,24.2,11.5
		c9.7-2.4,16.2-11.2,15.9-21.5c-0.3-10.7-0.9-21.3-1-32c0-2.3,1.2-5.2,2.8-6.9c14.4-15.2,29.2-30.2,43.6-45.4
		c5.1-5.4,10.8-6.4,17.2-3.8c9,3.5,15.2,10,18.2,19.3c2.1,6.4,0.9,11.8-4.5,16.6c-37.8,33.1-75.5,66.4-113.3,99.6
		c-6.5,5.7-13,11.4-19.5,17.2c-7,6.2-13.5,6.1-20-0.7c-2.5-2.6-4-6-6-9.1C181.5,522,181.5,520,181.5,518z M324.4,383.3
		c-3.8,0-6.2,2.9-5.8,7c0.6,6.8,8.2,15.1,14.9,16.5c4.1,0.8,7-1.2,7.5-5.1C341.8,394.2,332,383.2,324.4,383.3z M332.2,409.6
		c-9.8-4.1-16.5-10.4-15.9-22.6c-4.4,4.6-2.9,8.7-0.7,12.4C319.2,405.6,324,410.5,332.2,409.6z"/>
	<path d="M281.1,208.6c1.2-15.5,7.6-27.5,20.1-37c0.3,1.6,0.1,2.9,0.7,3.6c1.5,1.7,3.2,4.2,5,4.4c3,0.4,4.4-2.1,4.6-5.2
		c0.6-9.6,0.7-9.6,12-11.1c0,3.5,0,6.8,0,10.2c0,3.4,1.3,6.2,4.9,6.2c3.7,0,5-2.6,4.9-6.1c-0.1-3.3,0-6.6,0-10.6
		c4.3,1,8.1,1.9,12,2.8c0,2.8,0.1,5.1,0,7.5c-0.1,3.4,0.9,6.3,4.6,6.5c3.7,0.2,5.2-2.4,5.3-5.8c0-0.5,0.1-1,0.4-2.4
		c2,1.6,3.6,2.8,5.1,4.2c8.4,7.9,13.6,17.6,14.7,29.2c0.3,2.6,1.2,3.8,3.6,5.1c1.8,1,3.8,4.4,3.4,6.2c-0.5,2.1-3.3,4.8-5.5,5.1
		c-4.9,0.8-10,0.3-15,0.3c-26.2,0-52.3,0-78.5,0c-0.2,0-0.3,0-0.5,0c-4,0-8-0.2-8.8-5.2C273.5,211.4,277,209.7,281.1,208.6z"/>
	<path d="M373.3,226c3.3,17.3-5.6,36-21.3,45.6c-16.1,9.9-37.1,8.8-52.1-2.7c-13.4-10.3-21.1-29.3-17.2-42.7
		c0.7-0.1,1.6-0.2,2.4-0.2C314.3,226,343.6,226,373.3,226z"/>
	<path d="M311.7,376.2c-16,16.5-31.9,32.9-47.8,49.4c-0.5-0.2-0.9-0.3-1.4-0.5c0.9-12,1.7-24.1,2.6-36.1c0.1-1.4,1.2-2.7,2-3.9
		c7.3-10.5,14.8-20.9,22.1-31.5c3.7-5.4,8.6-7,14.7-6c11.5,1.9,21.9,11.2,23.8,21.4c0.4,2.2,0.1,4.5,0.1,6.8
		c-17-0.7-29.2-4.6-31.3-19.2C291.1,362.6,298.8,372.5,311.7,376.2z M323.5,366.1c0-6.4-8.6-14.5-16.6-15.6c-6-0.8-9.5,3.3-7.1,8.8
		c3.1,7.2,8.9,11.4,16.7,12.6C320.6,372.4,323.5,369.8,323.5,366.1z"/>
	<path d="M183.2,507.2c0.5-1.7,0.7-3.6,1.7-5c11.6-16.6,23.2-33.1,35-49.9c3.5,8.9,2,16.7-4,23c-10.5,10.8-21,21.7-31.5,32.5
		C184,507.6,183.6,507.4,183.2,507.2z"/>
</g>
</svg>
