<?xml version="1.0" encoding="utf-8"?>
<!-- Generator: Adobe Illustrator 19.0.0, SVG Export Plug-In . SVG Version: 6.00 Build 0)  -->
<svg version="1.1" id="Calque_1" xmlns="http://www.w3.org/2000/svg" xmlns:xlink="http://www.w3.org/1999/xlink" x="0px" y="0px"
	 viewBox="0 0 612 792" style="enable-background:new 0 0 612 792;" xml:space="preserve">
<g>
	<path d="M167.5,258.3c-3.8-3.5-7.5-7.1-11.4-10.4c-2.7-2.3-2.7-4.3,0-6.5c0.1-0.1,0.2-0.2,0.4-0.4c5.6-5.8,5.6-5.8,11.6-0.4
		c4.9,4.5,9.8,9.1,14.8,13.4c1,0.8,2.7,0.7,4.1,1.1c1.3,0.3,3.2,0.3,3.9,1.2c2.2,2.9,5.1,3.3,8.4,3.3c13-0.1,26,0,39-0.1
		c1.3,0,2.5-0.2,4.9-0.3c-1.9-1.4-2.9-2.3-4.1-3c-10.5-6.7-21.1-13.4-31.6-20.2c-4.9-3.2-5.9-7.1-3-11.8c2.9-4.7,7.5-5.8,12.3-2.8
		c18.8,11.8,37.4,23.6,56.3,35.2c2.8,1.7,6.5,2.8,9.7,2.8c57.1,0.2,114.3,0.1,171.4,0.1c9.2,0,17.4,2.2,24.2,8.8
		c6,5.9,9.3,13.1,9.3,21.4c0.1,69.3,0.1,138.6,0,207.9c0,17.1-13.5,30.4-30.6,30.4c-42,0.1-84,0-126,0c-2.2,0-4.3,0-7.9,0
		c3.2,4.6,6,8.4,8.5,12.4c1,1.5,1.2,3.5,1.8,5.3c-1.7,0.4-3.4,1.2-5.1,1.2c-57.8,0.1-115.6,0-173.4,0.1c-4.5,0-5.9-1.6-5.7-5.8
		c0.2-4.1,0.1-8.3,0.1-12.8c-2.9-0.3-5.6-0.4-8.1-0.9c-15.1-2.9-25.2-15.3-25.2-31c0-60.5,0-121,0-181.4c0-8,0-16,0-24
		c0.1-18.4,13-31.4,31.5-31.7c6.6-0.1,13.2,0,19.8,0C167.3,259.1,167.4,258.7,167.5,258.3z M172.9,264.8c-7.3,0-15.8,0-24.2,0
		c-17.9,0.1-27.5,9.7-27.6,27.5c-0.1,27.3,0,54.7,0,82c0,40.8,0,81.7,0,122.5c0,14.3,8.3,24.1,21.8,26.2c6,0.9,6.5,0.6,6.5-5.7
		c0-43.5,0-87,0-130.4c0-32.5,0-65,0.1-97.5c0-1.7,1.3-3.3,2-5c1.4,1,3.1,1.8,4,3.1c54,77.5,108,155,162.1,232.4
		c1.2,1.8,4.3,3.3,6.4,3.3c44.2,0.2,88.3,0.2,132.5,0.1c15.6,0,26.1-10.3,26.1-26c0.1-68.8,0.1-137.7,0-206.5
		c0-15.8-10.3-25.9-26.1-25.9c-54.8-0.1-109.7,0-164.5,0c-1.3,0-2.7,0.3-5.3,0.6c5,3.1,8.6,5.7,12.6,7.8
		c12.3,6.5,22.3,15.5,30.8,26.4c0.8,1.1,0.9,2.8,1.2,4.3c-1.2,0.3-2.6,1-3.6,0.7c-11.5-3.6-23.4-5.8-33.7-13.1
		c-12.2-8.7-25.1-16.4-37.9-24.2c-2.3-1.4-5.2-2.3-7.9-2.3c-14.5-0.2-29-0.1-43.5-0.1c-1.2,0-2.5,0.3-2.4,0.2
		c7.6,8.3,15.5,16.9,24.2,26.3c4.3-4.6,7.9-9,12-12.9c1.5-1.5,5.4-3.1,5.9-2.6c2.8,3.1-1,4.5-2.6,6.2c-3.9,4-8.1,7.8-12.5,11.9
		c29.7,28.7,58.7,56.8,87.8,84.8c-0.4,0.6-0.9,1.2-1.3,1.8c-1.5-1-3.2-1.8-4.5-3c-20.5-19.1-40.9-38.3-61.3-57.5
		c-7.9-7.4-15.7-14.7-23.6-22.1c-3.2,3-6.1,5.8-9.2,8.7c29.8,30.4,59.3,60.5,88.8,90.6c0.4,0.4,0.4,1.2,0.6,1.8
		c0,0.1-0.1,0.3-0.2,0.4c-0.1,0.1-0.2,0.2-1.1,1.1c-30.4-30.1-60.9-60.1-92-90.9c-3.2,3.5-6,6.8-9.2,9.7c-1,0.9-3.1,0.7-4.6,1
		c0.4-1.5,0.3-3.3,1.2-4.3c3-3.2,6.3-6.2,10.8-10.4c-12.1-11.4-23.5-22.1-34.7-33.1C175,271,174.5,268.2,172.9,264.8z M326.6,541.9
		C269.2,459.5,212.5,378,155.7,296.5c-0.3,0.2-0.6,0.4-0.9,0.6c0,17.6,0,35.1,0,53.2c3.8,0,7.3-0.2,10.7,0.1
		c1.3,0.1,2.4,1.5,3.6,2.4c-1.2,0.8-2.4,2.2-3.7,2.3c-3.5,0.3-7.1,0.1-10.8,0.1c0,6.2,0,11.5,0,15.9c2.7,1.5,4.8,2.6,7,3.8
		c-2.1,1.3-4.3,2.7-6.8,4.2c0,4,0,8.7,0,14c3.5,0,6.7-0.3,9.8,0.1c1.6,0.2,3,1.6,4.5,2.4c-1.6,0.8-3.1,2.1-4.8,2.3
		c-3.1,0.4-6.2,0.1-9.6,0.1c0,5.5,0,10.4,0,14.1c2.8,1.7,4.8,3,6.9,4.2c-2,1.2-4.1,2.5-6.9,4.2c0,4,0,9.3,0,15
		c3.6,0,6.9-0.3,10.2,0.1c1.7,0.2,3.2,1.5,4.8,2.3c-1.6,0.9-3.2,2.4-4.9,2.6c-3.2,0.4-6.5,0.1-9.9,0.1c0,5.4,0,10.1,0,13.8
		c2.7,1.5,4.7,2.5,6.8,3.6c-2.1,1.4-4.2,2.7-6.9,4.5c0,4.3,0,9.7,0,15.7c4.1,0,7.9-0.2,11.6,0.1c1.2,0.1,2.2,1.7,3.3,2.6
		c-1.1,0.7-2.2,2-3.4,2.1c-3.8,0.3-7.6,0.1-11.5,0.1c0,5.4,0,10.1,0,13.8c2.9,1.5,5,2.7,7.2,3.8c-2.3,1.4-4.5,2.8-7.2,4.4
		c0,5.1,0,11,0,17.3c3.8,0,7.3-0.2,10.8,0.1c1.3,0.1,2.4,1.6,3.6,2.5c-1.2,0.8-2.4,2.3-3.6,2.4c-3.5,0.3-7.1,0.1-10.6,0.1
		c0,5.2,0,9.6,0,14.2C212,541.9,268.6,541.9,326.6,541.9z M308.7,285.2c-26.4-16.6-52.6-33-79.1-49.7c-1.6,2.1-2.9,3.7-4.4,5.8
		c26.5,16.9,52.5,33.5,78.5,50.1C305.5,289.2,306.9,287.4,308.7,285.2z M188.7,260.4c-3.4,3.3-6.1,5.8-8.7,8.3
		c9.6,9.5,19.1,18.7,28.7,28.2c2.5-2.6,5.1-5.3,7.2-7.5C206.7,279.5,197.9,270.2,188.7,260.4z M221.1,238.6c1.5-2.3,2.7-4.1,4-6
		c-4.7-2.9-9.1-5.7-13.4-8.4c-5.1,4.5-5.1,5.2,0,8.4C214.6,234.6,217.7,236.5,221.1,238.6z M180.3,261.1c0.3-0.6,0.5-1.1,0.8-1.7
		c-5.6-5.1-11.1-10.3-16.8-15.3c-0.7-0.6-1.9-0.5-2.9-0.7c0.3,1.1,0.3,2.5,1,3.2c4.8,4.5,9.7,9,14.7,13.3
		C177.9,260.6,179.2,260.8,180.3,261.1z M308.4,293.7c4.4,1.3,7.9,2.2,11.3,3.2c0.2-0.3,0.3-0.5,0.5-0.8c-2.2-2.5-4.5-4.9-7.1-7.8
		C311.4,290.3,310.2,291.7,308.4,293.7z M211.8,300.9c0.4,0.4,0.8,0.9,1.2,1.3c2.8-3,5.5-6,8.3-8.9c-0.2-0.3-0.5-0.5-0.7-0.8
		C217.6,295.3,214.7,298.1,211.8,300.9z"/>
	<path d="M185,451.7c0-17.1-0.1-34.3,0.1-51.4c0-1.9,1.4-3.7,2.1-5.6c1.5,1.1,3.4,1.9,4.4,3.3c24.1,34.8,48.2,69.7,72.2,104.7
		c0.8,1.2,1.9,3.6,1.4,4.2c-1,1.2-3,2-4.6,2c-23.5,0.1-46.9,0-70.4,0.1c-3.9,0-5.2-1.6-5.2-5.4C185,486.4,185,469.1,185,451.7z
		 M257.3,503c-22.2-32.2-43.9-63.6-66.3-96.1c0,33,0,64.4,0,96.1C213,503,234.7,503,257.3,503z"/>
</g>
</svg>
