<?xml version="1.0" encoding="utf-8"?>
<!-- Generator: Adobe Illustrator 19.0.0, SVG Export Plug-In . SVG Version: 6.00 Build 0)  -->
<svg version="1.1" id="Calque_1" xmlns="http://www.w3.org/2000/svg" xmlns:xlink="http://www.w3.org/1999/xlink" x="0px" y="0px"
	 viewBox="0 0 612 792" style="enable-background:new 0 0 612 792;" xml:space="preserve">
<style type="text/css">
	.st0{fill:#84C1FC;}
	.st1{fill:#891423;}
	.st2{fill:#FCBE0C;}
	.st3{fill:#E6A38D;}
	.st4{fill:#E9AF0C;}
	.st5{fill:#C7846B;}
	.st6{fill:#DFA70C;}
	.st7{fill:#5D89B3;}
	.st8{fill:#C51B30;}
	.st9{fill:#C42034;}
	.st10{fill:#203247;}
	.st11{fill:#362C21;}
	.st12{fill:#DC9279;}
	.st13{fill:#CD856D;}
	.st14{fill:#BE5432;}
	.st15{fill:#042138;}
	.st16{fill:#382E22;}
	.st17{fill:#090606;}
	.st18{fill:#032139;}
	.st19{fill:#080706;}
	.st20{fill:#101E30;}
</style>
<g>
	<path class="st0" d="M370,448.6c2.3,1.3,4.9,2.3,6.9,4c11.8,9.8,26.1,13,40.6,16.5c19.3,4.7,39.3,7.3,57.7,15
		c24.8,10.4,39.9,29.6,43.8,56.4c4.9,34.2,8.8,68.4,13.2,102.7c0.5,3.9,1.2,7.9,1.9,11.8c-60,0-120,0-180,0c-2-2.4-2.3-5.5-2.8-8.4
		c-3.5-20.5-7.3-40.9-10.8-61.3c-1.2-7.2-2.3-14.5-3.9-21.6c-1.1-4.9-0.7-9.2,2.2-13.2c1.8-2.5,2.3-6,5.3-7.7
		c2.6,0.3,3.3,2.6,4.5,4.3c4.2,6.2,7.8,12.7,12.8,19.5c10.1-31.5,19.9-62.3,26.9-89.8c-4.8,14.6-12.4,32.5-19,50.7
		c-2.2,6.1-4.5,12.2-7.1,18.1c-2.1,4.9-4,5.1-7.4,1c-8.4-10.1-16.2-20.7-24.3-31.1c-2.5-3.1-5-6.3-7.5-9.4c-3.3-3.5-3,1.8-4.8,2
		c-11.6,12.6-22.6,25.8-34.2,38.3c-4.8,5.2-6,5-8.2-2c-7.4-23.1-15.9-45.8-20.9-64.7c7.5,25.4,15.2,55.7,25.4,85.9
		c2.3-2.1,3.5-4.5,4.8-6.6c3.3-5.4,6.7-10.7,10.1-16.1c1-1.5,1.7-3.4,4-3.3c3.2,2.9,3.4,7.5,6.2,10.6c2.5,3.4,2.8,7,2,11.3
		c-4.9,27.8-10.4,55.6-15,83.5c-0.6,3.4-0.9,7-3.2,9.8c-60.3,0-120.7,0-181,0c1.7-12.3,3.4-24.6,4.9-37c1.9-14.6,3.6-29.3,5.5-43.9
		c1.6-12.3,2.4-24.8,5.1-36.9c7-31.4,26.9-50.6,58.2-58c21.3-5,42.6-10,63.8-15.4c9.9-2.5,18.1-8.9,27.1-13.6
		c3.9,2.6,5.9,6.7,8.4,10.4c7.3,10.8,15,21.2,24.7,30c4.6,4.2,9.5,7.8,15.5,9.8c6.5-2,11.7-6.2,16.7-10.6
		c10.8-9.5,18-21.8,25.7-33.6c1.6-2.5,2.7-5.4,5-7.4C369.1,448.5,369.5,448.5,370,448.6z"/>
	<path class="st1" d="M289,655c2.2-11.9,4.4-23.9,6.4-35.8c3.2-18.6,6.1-37.2,9.8-55.7c1-5.1,1.3-9.2-1.6-13.3
		c1.3-1.6,3.2-1.7,5-1.7c8.8-0.1,17.6-0.1,26.4,0c1.8,0,3.7,0.1,5,1.7c-5.8,6.7-1.9,14-0.9,20.8c2.1,13.4,4.4,26.8,7,40.1
		c2.6,13.3,4.2,26.9,7.5,40.1c0.3,1.3,0.2,2.6,0.3,4C332.3,655,310.7,655,289,655z"/>
	<path class="st2" d="M269,182c-1.3-5.9,1.5-9.5,6.3-12.7c27.5-18.2,63.7-18.2,91.3,0c4.9,3.2,7.5,6.9,6.2,12.7
		c-0.7,5.8-3.6,10.8-6.1,15.7c-5,9.5-7.9,19.7-11.3,29.7c-2.3,6.6-6.6,12.3-7.7,19.4c-0.6,4.1-4.6,3.1-8.5,2.9
		c5.5,0.7,10.2,0.3,14.7-0.1c9.9-0.7,19.5,1.9,29.3,0.9c5.2-0.6,10.2,1.2,15.4,1.2c2.8,0,5.1,2,6.4,4.3c4.1,7.7,6,15.8,2.9,24.5
		c-1.5,4.1-4.3,6.1-8.7,6c-1.8-0.1-3.7,0-5.5,0c-49.8,0-99.6,0-149.3,0c-3.7,0-7.1,0.3-10.6,2c-4,1.9-8.5,1.2-12.7,0.4
		c-5,0-10-0.2-15,0.1c-3.7,0.2-4.5-1.2-4.4-4.6c0.2-5.5,0-11,0.1-16.5c0.1-9.8,6-17.1,15.6-18.3c3.8-0.5,4.8-1.9,5.3-5.3
		c3.7-26.7,18.8-45.6,41.3-59.2c4.8,6.4,7.7,13.9,11.2,21c6.3,13,11.9,26.3,17.6,39.6c-1.9-8.4-5-16.4-8.1-24.4
		c-4.7-12.2-9.5-24.5-15-36.4C269.2,184,268.9,183,269,182z"/>
	<path class="st3" d="M370,448.6c-0.3,0.1-0.6,0.2-0.9,0.3c-0.9-2.5-3.9-3.7-4.2-6.5c-0.3-2.4,0.1-4.9-0.4-7.6
		c-18,21.6-67.2,22.5-87,1.1c-0.2,2.3,0.1,4.7-0.3,7c-0.7,2.7-2.2,2.8-4.1,1.1c-2.6-1.8-5.3-3.5-7.9-5.3c-0.6-3.6,2.3-5.1,4.3-7.1
		c1.4-1.4,3.4-2.1,3.8-4.3c1-7.1,1.7-14.2,5.2-20.6c3-5.6,6.2-11.5,13.6-12.4c0.6,0.2,1.2,0.5,1.7,1c13.4,13.5,29.1,12.3,45.4,7
		c4.4-1.4,6.9-5.7,10.7-8c2.6-0.4,4.5,1,6.2,2.6c8.6,7.6,11.2,17.5,11.3,26.2c-1.8-13.7-2.1-29.9-10.2-44.5c-3-5.4-7.1-9.6-13-11.8
		c-1.8-0.7-4-1.1-4.6-3.4c1.8-4.8,2.5-9.3-2.5-12.9c-1.3-0.9-1.5-2.6-1.5-4.1c0-12.3-0.9-24.6,1-36.8c0.2-1,0.4-2,1.1-2.8
		c2.7-1.7,5.6-1.4,8.4-0.6c0.3,0.1,0.6,0.3,0.8,0.5c4.4,6.9,4.4,6.9,12.2,3.4c7.5-3.4,15.2-4.3,23.1-1.2c1.7,0.7,3.4,1.2,5.1,1.8
		c1.2,0.4,2.7,1.1,3.7,0c1.2-1.2-0.3-2.4-0.4-3.7c2.2-3.7,5.9-4.6,9.7-5.4c4,2.5,7.6,5.8,12.6,6.9c5,1,5.4,0.7,5.7-4.2
		c0.3-5.1-1.1-10.3,1-15.3c0.5-0.4,0.9-0.4,1.4,0c0,6.2,0.1,12.3-0.1,18.5c-0.1,2.4,0.9,3.5,3,4.4c13.8,6.4,20.1,17.6,19,32.5
		c-1,13.5-8.5,22.7-21.3,27.4c-2.5,0.9-3.2,2.6-3.6,4.8c-5.2,28.1-20.1,49.5-44.6,64.1C370.1,442.9,369.7,445.3,370,448.6z"/>
	<path class="st4" d="M347.1,307.1c-3,0-6,0-9,0c-1.5,1.2-3.3,1.4-5.2,1.4c-9.5,0-19,0.2-28.5-0.1c-3.2,0.1-6.3,0.1-9.5,0
		c-14.1,0.1-28.2,0.1-42.4-0.2c-4.1-1.1-7.9-2.6-11.1-5.5c-2.1-2.1-4.6-4.2-5.5-7c-1.5-4.7-4.6-6-9.1-5.5c-1.5,0.2-3,0.1-4.5-0.4
		c-0.5-0.2-0.9-0.5-1.3-0.8c0,0,0.1-0.2,0.1-0.2c0.9-1,2.1-0.8,3.3-0.8c4-0.2,8.2,1.1,11.6-2.5c0.9-1,3.5-0.4,5.3-0.4
		c52.1,0,104.3-0.1,156.4,0.1c5.6,0,8.6-1.8,9.6-6.9c1.7-8.4,0.6-16.4-4.9-23.3c-1.5-1.9-3.5-3.3-6-1.6c-2.7,1.8-4-1.7-6.4-1.4
		c-4.8,0.6-9.6-0.4-14.4,0.7c-3.5,0.8-6.5-2.1-10.2-1.6c-9.3,1.3-18.8-1.2-28.1,0.8c-0.9,0.2-1.7,0.1-2-0.9c-0.3-1,0.4-1.6,1.3-1.7
		c1.8-0.2,3.3-1,5.3-0.4c3.1,0.9,5.4-0.1,5-3.9c-0.2-2.6,0.8-4.7,2-7c4.6-8.8,8.2-18,10.1-27.8c0.8-4.3,4.4-7.3,6-11.4
		c2.2-5.7,4.1-11.6,7.8-16.6c23.2,12.2,39.3,30,45.6,56c0,0.2,0.1,0.3,0.1,0.5c0,6.8,2.1,10.7,10,12.2c8.1,1.6,11.5,9,11.9,17.1
		c0.3,6,0,12,0.1,18c0.1,2.7-1.1,3.4-3.6,3.3c-5.3-0.1-10.6,0-16,0.1c-0.4,0-0.7,0-1.1-0.1c-1.1,0.9-2.4,1.4-3.7,1.2
		c-5.9-1-9.2,1.8-11.3,7.1c-0.9,2.3-2.6,4.2-5.4,4.8c-2.6,1.9-5.5,3.4-8.6,4.4c-1.3,2.3-3.8,2.4-5.7,2c-10.8-2-21.4,0.2-32.2,0.1
		C351.1,308.6,348.9,308.7,347.1,307.1z"/>
	<path class="st3" d="M294.9,307.1c3,0,6,0,9,0c2.4,3.9,2.1,8.3,2.3,12.5c0.5,8.4,0.2,16.9,0.1,25.3c0,1.8,0.1,4-1.4,5.1
		c-4.9,3.7-4.7,8.3-2.7,13.3c-0.3,1.5-1.6,2.2-2.8,2.6c-12.6,4.3-17.2,15-20.4,26.4c-3.2,11.5-4,23.5-5.1,35.3
		c-0.1,1.5-0.3,2.6-2.1,3.5c-3.2,1.6-5.4,4.3-7,7.5c-22.5-14.4-35.8-35-41-61.1c-0.6-3-1.4-5-4.7-6.1c-11.2-3.8-19.7-15.5-20.4-26.6
		c-0.8-14.8,4.8-26,18.1-32.7c3.2-1.6,4-3.1,3.9-6.3c-0.2-5.7,0-11.3,0-17c0.3-0.1,0.6-0.1,1-0.1c2.7,4,1.2,8.4,1.4,12.6
		c0.2,8.3,1,8.9,9,6c3.6-1.3,6.1-4.7,10-5.4c2.6,1.9,5.5,3.4,8.7,4.3c-0.8,5.2-0.3,5.7,4.5,3.9c10.2-4,20.2-4.1,30.2,0.9
		C290.6,313.7,291.7,313.1,294.9,307.1z"/>
	<path class="st5" d="M365.9,442.9c1.6,1.7,4.2,3,3.2,6.1c-10.7,18.2-20.9,36.7-39.3,48.6c-2.7,1.8-5.4,3.9-8.8,4.3
		c-2-2.9-1.3-6.1-1.1-9.2c0.2-4.3-1.3-7.1-4.7-9.7c-13.1-9.9-26.4-19.6-37.9-31.5c-1.6-1.7-3.2-3.4-4.1-5.6c0-0.7,0-1.3-0.1-2
		c1.1-0.2,2.8,1.4,3-1.1c1-0.1,1.6,0.5,2,1.2c7,13.8,19.8,18.5,33.7,20.1c13.5,1.6,27,0.6,39.2-6.7c5.1-3,9.5-6.7,12.2-12.1
		C363.8,444.3,364.2,442.9,365.9,442.9z"/>
	<path class="st3" d="M273.1,446c13.9,14,29.3,26.3,45.2,37.9c1.8,1.3,2.8,3.1,2.7,5.5c-0.2,4.1-0.1,8.3-0.1,12.5
		c-12.2-5.2-21.1-14.3-29.1-24.4c-6.9-8.7-13.1-18-19.2-27.3C272.8,448.8,273,447.4,273.1,446z"/>
	<path class="st6" d="M269,182c5.5,8.7,8.6,18.6,12.5,28c4.6,11.2,8.8,22.5,12.6,34c0.5,1.5,1.9,3.6,0,4.5c-2.5,1.1-2.8-1.8-3.4-3.2
		c-5.2-13.6-11.3-26.9-17.3-40.2c-2.3-5.1-5.1-10-7.8-15c-0.9-1.6-1.8-3.2-1.7-5.1C265.3,183.5,267.2,182.8,269,182z"/>
	<path class="st7" d="M411.9,622.9c1.4,0,2.8,0,4.1,0.1c1.2-0.9,2.5-1.1,3.8-0.4c2.3,2.4,1,5.5,1.6,8.3c0.5-2.9-0.5-5.9,1.5-8.4
		c3.1-1.7,2.2-4.8,2.5-7.5c0.4-3.6-1.2-7.6,1.7-10.8c1.7,4.8,0.6,9.8,0.7,14.8c0,3.3,1.2,4.6,4.4,4.1c0.3,0,0.7,0,1,0
		c3.7,0.4,9.3-1.8,10.9,0.9c2.5,4.2,0.8,10,0.7,15.1c-0.1,2.8-2.7,1.9-4.3,1.9c-19.1,0.1-38.2,0-57.4,0.1c-3.7,0-7.3-0.1-11,0
		c-2.3,0.1-3.3-0.8-3.2-3.2c0.1-3.7,0.2-7.3,0-11c-0.2-3.2,1.1-4,4.1-3.9c9.3,0.1,18.6,0,27.9,0c2.3-0.8,0.8-5.1,4.4-4.8
		c2,3.7,0.5,7.7,1.2,11.5c0.5-2.4-0.4-5,1.5-7.1C409.4,621.9,410.7,621.9,411.9,622.9z"/>
	<path class="st8" d="M340.1,550.1c-12.2,0-24.3,0.1-36.5,0.1c-2.2-3.1-3.6-6.6-4.9-10.1c-1.1-2.1,0.4-3.5,1.3-5
		c5.9-9.4,11.3-19.2,17.9-28.2c2,0.1,1.3-6.5,5.1-2c7.3,10.9,13.3,22.5,20.2,33.7c0.8,1.3,2.1,2.7,0.9,4.5
		C342.8,545.4,341.5,547.7,340.1,550.1z"/>
	<path class="st7" d="M344.1,543.1c-6.3-11.1-12.6-22.2-18.8-33.3c-0.9-1.6-1.5-3.3-2.2-4.9c8.6,9.5,15.9,19.9,23.8,29.9
		c2.9,3.6,5.7,7.3,8.5,11c3,3.9,3.7,3.9,5.5-0.6c7.4-19.2,14.7-38.4,22-57.7c2.4-6.2,4.7-12.4,8-18.3c-0.7,3.3-1.3,6.7-2.1,10
		c-7.2,29.1-16.9,57.5-25.6,86.2c-0.4,1.2-0.2,3.1-1.9,3c-1.4,0-1.8-1.7-2.6-2.8C353.9,558,349,550.5,344.1,543.1z"/>
	<path class="st7" d="M318,506.9c-1.8,5.7-5.7,10.3-8.6,15.4c-3.4,6-7.1,11.9-10.6,17.8c-6.2,8.2-10.9,17.4-16.7,25.9
		c-0.6,0.9-0.7,2.3-2.5,2.5c-10.4-31.7-19.5-63.9-26.7-96.6c2.1,6,4.1,12,6.2,18.1c6.3,18.9,12.6,37.7,18.8,56.7
		c1.2,3.5,1.7,2.8,3.9,0.5C293.9,533.9,305.1,519.6,318,506.9z"/>
	<path class="st9" d="M427.2,604.1c0,5.2-0.2,10.3,0,15.4c0.1,3.1-1.2,3.8-3.8,3.4c-3.6-4-1-8.8-1.9-12.5c-0.9,3.7,1.4,8.5-1.6,12.6
		c-1.3,0-2.6,0-3.8-0.1c0-5.3,0-10.6-0.1-15.9c-0.1-2.4,0.6-4.2,3.1-5c1.7-1.5,3.4-1.4,5.1,0C425.4,602.4,426.6,602.8,427.2,604.1z"
		/>
	<path class="st10" d="M404,595.1c0.2-1.9-0.4-4.3,2.8-4c1.5,0.1,1.7,1.5,1.5,2.6C407.7,596.5,405.6,595.1,404,595.1
		C403.9,595,404,595.1,404,595.1z"/>
	<path class="st11" d="M274.1,427.7c-0.4-12.4,0.7-24.6,3.9-36.5c1.7-6.3,4.3-12.2,8.2-17.5c4-5.4,9.4-8.3,15.8-9.7
		c2.8-2,4.5-0.2,6.3,1.7c8.6,9,16.8,9,25.4,0c1.8-1.9,3.5-3.7,6.3-1.7c12.9,2.6,18.8,12.1,22.8,23.4c2,5.8,3.4,11.9,4,18
		c0.7,7.1,1.7,14.2,0.8,22.3c-1.1-6.1-1.8-11.4-3.6-16.4c-2.6-7.2-6.3-13.6-14-16.5c-0.3,0-0.7,0-1,0c-8.7-2.3-17-0.4-25.3,2.2
		c-2.8,0.9-5.6,0.2-8.3-0.7c-6.7-2.2-13.4-3.9-20.4-1.4c-1,0.3-2-0.2-3,0c-8.8,3.4-12.4,10.9-14.9,19.1
		C275.8,418.4,275.1,423.1,274.1,427.7z"/>
	<path class="st12" d="M340,363.9c-2.5,0-4.1,0.9-5.7,3.1c-6.7,8.9-19.9,8.9-26.6,0c-1.6-2.1-3.2-3.1-5.7-3.1
		c-4.6-6.8-4.4-9.2,1.8-14c1.7-1.4,1.2-3,1.2-4.5c0-12.8,0.4-25.5-1-38.3c11.4,0,22.7,0,34.1,0c-1.4,12.7-1,25.5-1,38.3
		c0,2.2,0.1,3.8,2.6,5.2C344.2,353.2,344.1,358,340,363.9z"/>
	<path class="st11" d="M365.9,442.9c-5,12.3-15.2,18-27.2,21.1c-14.5,3.7-29,3.2-43-2.5c-8.9-3.7-16-9.3-19.7-18.6
		c-0.3-3.4-0.7-6.8,0.3-10.5c17.7,24.6,74.3,22.9,88.6-0.8C367,435.3,366.1,439.1,365.9,442.9z"/>
	<path class="st13" d="M420,341.7c0-6.8,0-13.6,0-20.5c0-2.4,0.5-3.5,3.1-2.2c9.1,4.3,14.6,11.4,15.8,21.4
		c1.3,10.4-3.6,18.3-11.6,24.4c-1.8,1.4-4.1,1.9-6.1,0.9c-2.1-1-1.1-3.3-1.1-5C419.9,354.4,420,348,420,341.7
		C420,341.7,420,341.7,420,341.7z"/>
	<path class="st14" d="M292,394.8c6.2-3.1,12.6-3.7,19.1-1.1c6.6,2.7,13.1,2.6,19.7,0c6.5-2.6,12.9-2,19.1,1.1
		c-3.9,6.2-9.9,9.3-16.7,11c-9.7,2.4-19.5,2.1-29-1.3C299.2,402.7,295,399.4,292,394.8z"/>
	<path class="st11" d="M399.7,302.2c1.4-1.6,3.6-3.1,4-4.9c2.1-9.7,9.3-8.6,16.3-8.2c0,6.1-0.1,12.3,0.1,18.4c0.2,3.4-1.3,4-4.1,3.4
		C409.8,309.4,404,307.3,399.7,302.2z"/>
	<path class="st15" d="M368,321c0.3,1.1,0.6,2.2,0.8,3.3c0.8,4.3-1.9,8.6-5.9,9.6c-4.4,1.1-8.5-1.7-9.8-6.3c-0.3-1.2,0.6-2.7-1-3.6
		c-0.6-1.3,0.1-2.2,0.9-3C356.5,318,364.1,318,368,321z"/>
	<path class="st16" d="M347.1,307.1c12.5-0.1,25.1-0.1,37.6-0.2c2.1,0,4.3-0.3,6.4-0.4c1.7,1.4,3.8,3.1,2.4,5.3
		c-1.5,2.5-4.2,1.5-6.2,0.4c-10.8-5.5-21.3-5.3-31.8,0.9C350.2,316.2,346.8,313.6,347.1,307.1z"/>
	<path class="st17" d="M368,321c-5.7-1.2-11.4-2.5-15.8,3.1c-0.6,0.8-1,1.7-1.7,2.4c-0.7,0.7-1.8,1-2.7,0.3c-1.1-0.9,0-1.8,0.4-2.6
		c1.4-2.8,3.3-5.1,6.3-5.9c8.9-2.5,17-0.5,24.6,4.4c0.9,0.6,2.3,1.5,1.4,2.7c-0.8,1.3-2.1,0.4-3.1-0.2
		C374.5,323.2,371.4,321.6,368,321z"/>
	<path class="st11" d="M242.2,302.2c-4.3,5.1-10.1,7.3-16.3,8.6c-2.9,0.6-4.2,0-4.1-3.4c0.3-6.1,0.1-12.3,0.1-18.4
		c0.7,0,1.3,0,2-0.1c6.2-0.5,12-0.7,13.8,7.5C238.2,298.5,240.7,300.2,242.2,302.2z"/>
	<path class="st16" d="M294.9,307.1c0.4,2.6,0.5,5.1-2.2,6.5c-2.4,1.3-4.7,0.5-7-0.8c-9.7-5.7-19.6-6.2-29.8-1.1
		c-0.4,0.2-0.9,0.4-1.3,0.6c-2,0.9-4.5,1.8-5.9-0.2c-1.8-2.5,0.5-4.2,2.2-5.7c12.2,1.1,24.4,0.2,36.6,0.5
		C290,307,292.5,307.1,294.9,307.1z"/>
	<path class="st13" d="M222,342.3c0,6.2,0.1,12.3,0,18.5c0,1.7,1,4-1.2,4.9c-2.1,0.9-4.3,0.3-6.2-1c-5.8-4.3-9.9-9.9-11.4-17
		c-2.4-11.3,4.7-24,15.4-28.6c2.7-1.2,3.5-0.7,3.5,2.2C221.9,328.4,222,335.4,222,342.3z"/>
	<path class="st18" d="M281.1,321.2c2.5,3.9,2.1,7.6-1.2,10.7c-2.7,2.6-5.9,2.9-9.1,1c-4.8-2.8-4.4-7.2-3.2-11.8
		c3.1-2.8,6.8-2.9,10.6-2.5C279.6,318.8,281.3,319.1,281.1,321.2z"/>
	<path class="st19" d="M281.1,321.2c-4.5-3-9-0.2-13.5,0c-2.9,0.8-5.5,2.4-8,3.9c-1,0.6-2.2,1.5-3,0c-0.6-1,0.4-1.9,1.2-2.4
		c7.7-5.1,16.1-7.2,25.2-4.4c2.6,0.8,4.5,2.8,5.7,5.3c0.5,1,2.3,2.2,0.4,3.3c-1.4,0.8-2.4-0.4-3.4-1.5
		C284.4,323.9,283.8,321.4,281.1,321.2z"/>
	<path class="st20" d="M404.8,618c-0.1-4.3,0.4-8.6-1-12.8c-0.5-1.5-0.2-3,1.3-3.9c0.9-0.6,1.9-0.3,2.8,0.3c1.3,0.9,1.4,2.3,1,3.6
		c-1.8,5.9-0.7,11.9-0.8,17.8c-0.1,3-0.1,5.9-0.2,8.9c0,1-0.4,2.1-1.6,2.1c-1.3,0-1.4-1.2-1.4-2.1
		C404.8,627.1,404.8,622.6,404.8,618z"/>
</g>
</svg>
