<?xml version="1.0" encoding="utf-8"?>
<!-- Generator: Adobe Illustrator 19.0.0, SVG Export Plug-In . SVG Version: 6.00 Build 0)  -->
<svg version="1.1" id="Calque_1" xmlns="http://www.w3.org/2000/svg" xmlns:xlink="http://www.w3.org/1999/xlink" x="0px" y="0px"
	 viewBox="0 0 612 792" style="enable-background:new 0 0 612 792;" xml:space="preserve">
<style type="text/css">
	.st0{fill:#545464;}
	.st1{fill:#0086A0;}
	.st2{fill:#FDDFB1;}
	.st3{fill:#393950;}
	.st4{fill:#FBC78D;}
	.st5{fill:#FDD166;}
</style>
<g>
	<path class="st0" d="M423.9,432.3c31.6,11.2,63.3,22.5,94.9,33.6c3.3,1.2,5.2,3.4,6.8,6.2c12.9,21.6,23.7,44.3,33.7,67.3
		c11.5,26.4,21.8,53.2,28,81.4c1,4.5,2,9.1,2.7,13.7c0.9,5.6-2.4,9.6-8,9.6c-21.7,0.1-43.3,0-65,0.1c-4,0-6.4-2.1-8.3-5.3
		c-5-8.3-10.5-16.2-16.5-23.8c-2.6-3.3-4-2.7-6.2,0.2c-5.5,7.3-10.5,15-14.9,23c-2.3,4.1-5.3,5.9-10,5.9
		c-84.6-0.1-169.3-0.1-253.9,0c-4.7,0-7.8-1.7-10-5.9c-4.2-8.1-9.2-15.8-14.4-23.3c-2.2-3.1-3.5-3.6-6-0.2
		c-5.7,7.8-11.3,15.6-16.3,23.9c-2.3,3.9-5.3,5.5-9.8,5.4c-20.5-0.1-41,0-61.5-0.1c-7,0-10-3.3-9.1-10.4c2.2-17.2,7.2-33.8,13-50.1
		c13.4-38.2,30.2-74.9,50.1-110.2c2.7-4.8,6.2-7.7,11.4-9.7c30.6-11.7,61.6-22.2,92.6-32.5c1.3,1,1.6,2.5,2.3,3.8
		c12.7,25.3,25.4,50.6,37.6,76.1c0.6,1.2,1.1,2.4,1.8,3.5c2.5,4.1,4.9,4.9,9.2,2.6c4.9-2.6,9.3-5.8,13.6-9.3
		c7.5-6,15.7-11.3,22.3-18.4c0.7-0.3,1.4-0.3,2.2,0c10.3,10,22,18.2,33.8,26.4c6.1,4.2,9.2,3.2,12.6-3.6
		c12.2-25,25.3-49.5,37.7-74.4C421.1,436,421.8,433.7,423.9,432.3z"/>
	<path class="st1" d="M225.1,316.3c-7.8-13.2-10.6-26.8-2.3-40.9c2.4-4.1,2-8.7,2.9-13c5.7-27.8,21.1-48,46.7-60.2
		c2.4-1.1,4-2.7,5.5-4.8c29.1-39.5,84.8-39.5,113.9-0.1c1.6,2.2,3.5,3.8,6,5c27.6,13.5,43,35.7,47.2,65.9c0.4,3.1,1.4,6,2.9,8.9
		c7.1,13.7,4.3,26.6-3.2,39.2c-1.1-0.1-1.8-0.9-2.2-1.8c-2.5-5.6-7.1-6.3-12.5-5.6c-24.3,3.1-48.6,5.3-73,6.9
		c-30.2,2-60.1-0.8-90.1-3.7c-9.4-0.9-18.9-2-28.3-3.3c-4.9-0.7-9,0.2-11.1,5.3C227.1,315.1,226.4,316.1,225.1,316.3z"/>
	<path class="st2" d="M225.1,316.3c3.6-9.4,5.5-10.2,16.2-8.8c47.9,6.2,95.8,10.2,144.2,4.8c15.2-1.7,30.4-3,45.6-5.1
		c8.2-1.1,10.3,0.3,13.8,9.1c-3.1,5.5-2.4,11.9-3.6,17.8c-6.3,31.9-19.2,60.5-40.7,85.1c-1,1.1-1.7,2.5-2.5,3.7
		c-2.3,5.2-7,8.3-10.9,12c-4.1,3.8-8.6,7.3-13.2,10.6c-5.5,3.1-10.9,6.2-17,8.2c-20,6.8-38.8,4.5-56.9-6c-0.9-0.5-1.7-1-2.7-1.3
		c-8.9-6.2-17.1-13.3-24.4-21.3c-0.6-0.6-1-1.3-1-2.2c-4.5-5.9-9.1-11.7-13.4-17.8c-16.2-22.8-26.1-48.2-30.7-75.7
		C227.1,325,226.9,320.5,225.1,316.3z"/>
	<path class="st3" d="M374.3,444.1c8.1-6.8,16-13.8,23.6-21.3c8.7,3.2,17.3,6.3,26,9.5c-4.7,9.7-9.1,19.6-14.2,29.1
		c-9.3,17.2-17.7,35-26.6,52.4c-3.6,6.9-6.8,7.8-13.5,3.6c-10.7-6.9-20.5-15-30.6-22.9c-1.4-1.1-3-2.2-3-4.3
		c-0.9-1.8,0.6-2.7,1.5-3.8c10.5-12.4,21.1-24.7,31.4-37.3C370.4,447.1,372.5,445.8,374.3,444.1z"/>
	<path class="st3" d="M271.9,422.9c8,7.7,16.2,15.3,24.9,22.2c6.9,5.1,11.3,12.4,16.9,18.8c6.3,7.2,12.4,14.7,18.4,22.1
		c1,1.2,2.8,2.1,1.8,4.2c-2,5.4-7.3,7.4-11.3,10.7c-7.4,6.2-14.9,12-23.1,17.1c-6,3.7-9.2,2.8-12.4-3.5c-13-26.3-26-52.7-39-79
		c-0.7-1.3-1.4-2.7-1.2-4.3C255.3,428.4,263.6,425.6,271.9,422.9z"/>
	<path class="st4" d="M333.9,490.1c-11.2-13.4-22.3-26.9-33.5-40.3c-1.3-1.5-2.4-3.2-3.6-4.7c5.1,1.2,9,4.7,13.9,6.5
		c20.5,7.7,39.9,5.8,58.7-5.2c1.6-0.9,3.3-1.5,5-2.2c-11.6,13.9-23.3,27.8-34.9,41.8c-1.2,1.4-2.3,2.8-3.5,4.3
		C335.3,490.1,334.6,490.1,333.9,490.1z"/>
	<path class="st3" d="M335.1,572c-4.7,0.1-8.2-3.4-8.2-8c0-4.5,3.3-7.8,7.8-7.9c4.7-0.1,8.2,3.4,8.2,8
		C342.9,568.5,339.6,571.9,335.1,572z"/>
	<path class="st3" d="M334.8,531c-4.5,0-8-3.5-7.8-7.8c0.2-4.2,3.8-7.4,8.4-7.3c4.2,0.1,7.6,3.5,7.6,7.5
		C342.9,527.7,339.3,531,334.8,531z"/>
	<path class="st5" d="M304.8,238.1c0-1,0.1-2,0-3c-0.5-3.3,0.6-5.1,4.3-4.5c4,0.7,6.5-0.9,9.1-4.2c8.4-10.8,24.9-10.9,33.4-0.1
		c2.7,3.5,5.4,5,9.5,4.4c3-0.4,4.4,0.6,4,3.8c-0.2,1.6-0.2,3.4,0,5c0.7,4.8-0.4,7.8-6.1,6.6c-2.2-0.5-3.1,0.9-4,2.7
		c-3.9,8.5-10.5,13.2-20,13.2c-9.4,0-16.1-4.5-20.1-13c-1-2-1.9-3.4-4.3-2.9c-5,1-6.6-1.3-5.8-5.9
		C304.9,239.5,304.8,238.8,304.8,238.1z"/>
</g>
</svg>
