<?xml version="1.0" encoding="utf-8"?>
<!-- Generator: Adobe Illustrator 19.0.0, SVG Export Plug-In . SVG Version: 6.00 Build 0)  -->
<svg version="1.1" id="Calque_1" xmlns="http://www.w3.org/2000/svg" xmlns:xlink="http://www.w3.org/1999/xlink" x="0px" y="0px"
	 viewBox="0 0 612 792" style="enable-background:new 0 0 612 792;" xml:space="preserve">
<style type="text/css">
	.st0{fill:#999955;}
	.st1{fill:#D4D4D3;}
	.st2{fill:#E66043;}
	.st3{fill:#C3C3C3;}
	.st4{fill:#75A47A;}
	.st5{fill:#88C490;}
</style>
<g>
	<path class="st0" d="M573.2,391.3c0,128.1-105.3,230.1-231.2,228.9c-127.1-1.2-228.7-105.7-227.3-231.9
		c1.5-126.5,105.5-227.2,230-226.7C472.2,162.2,573.9,266.5,573.2,391.3z"/>
	<path class="st1" d="M459.1,373.1c0,49,0,97.9,0,146.9c-2,2-4.7,1.6-7.1,1.5c-28.9-0.3-57.9-0.2-86.8-0.2
		c-29.1,0-58.2-0.1-87.3,0.1c-14.1,0.1-28.3-0.1-42.4,0c-2.3,0-4.7,0.4-6.6-1.5c0-43.8,0-87.6,0-131.4c0-5.2,0.1-10.3,0.1-15.5
		c1.7-4.3,5.8-6.3,9.1-9c33.1-27.9,66.3-55.5,99.3-83.5c6.2-5.3,7.1-5.3,13.4,0.1c24.6,20.9,49.3,41.6,74.1,62.3
		c10.7,9,21.5,17.9,32.1,27C457.9,370.8,458.9,371.6,459.1,373.1z"/>
	<path class="st2" d="M459.1,373.1c-25.3-21.2-50.6-42.3-75.8-63.5c-12.1-10.2-24.3-20.3-36.3-30.5c-2.2-1.9-3.4-2-5.8-0.1
		c-28.5,24.1-57.1,48-85.7,71.9c-8.8,7.4-17.6,14.7-26.5,22.1c-6.1,3.5-12.5,4.5-19.1,1.4c-11.4-5.4-13.6-19.2-4.2-27.6
		c10.8-9.5,22.1-18.6,33.2-27.9c15.7-13.1,31.3-26.3,46.9-39.4c15.1-12.7,30.1-25.6,45.4-38.1c8-6.6,17.7-6.4,25.7,0.2
		c17.6,14.7,35,29.6,52.6,44.3c19.7,16.6,39.5,33,59.3,49.5c4.3,3.6,8.7,7.2,13,10.9c7,6,8.1,14.7,3.2,22.5
		c-4,6.3-14.5,9.3-21.9,6.2C461.7,374.5,460.4,373.8,459.1,373.1z"/>
	<path class="st3" d="M228.8,520c76.8,0,153.5,0,230.3,0c5.3,0,10.7,0,16,0c4,0,6.2,1.9,6,6.1c-0.1,3.3,0,6.7,0,10
		c0,8.2-0.7,8.9-8.7,8.9c-13.7,0-27.3,0-41,0c-72.3,0-144.6,0-216.9,0c-6.7,0-7.6-0.8-7.6-7.4c0-3.8,0.1-7.7-0.1-11.5
		c-0.2-4.3,2-6.1,6-6.1C218.2,520,223.5,520,228.8,520z"/>
	<path class="st4" d="M392,439.4c0,18.8,0,37.7,0,56.5c0,7.8-3.6,12-11.3,13.2c-9.3,1.5-18.6,0.5-27.9,0.6c-13,0.2-26,0.1-39,0
		c-2.8,0-5.7-0.3-8.4-0.9c-5.6-1.2-9.3-5.7-9.3-11.4c-0.1-38.7-0.1-77.3,0-116c0-6.9,5.3-12.1,13.2-12.2c23.2-0.3,46.3-0.3,69.5,0
		c8.8,0.1,13.2,5.4,13.3,14.2C392,402.1,392,420.8,392,439.4z"/>
	<path class="st5" d="M388,439.5c0,18.5,0,37,0,55.5c0,7.4-2.6,9.7-9.8,10.1c-11.9,0.6-23.8,0.4-35.7,0.4c-11.4,0-22.8,0.4-34.2-0.4
		c-5.3-0.4-8.3-3.1-8.3-8.5c0-38-0.1-76,0-114c0-6.5,4-9.4,13-9.5c14.5-0.1,29,0,43.5,0c6.8,0,13.7-0.1,20.5,0c7.6,0.1,11,3.5,11,11
		C388,402.5,388,421,388,439.5z"/>
</g>
</svg>
