<?xml version="1.0" encoding="utf-8"?>
<!-- Generator: Adobe Illustrator 19.0.0, SVG Export Plug-In . SVG Version: 6.00 Build 0)  -->
<svg version="1.1" id="Calque_1" xmlns="http://www.w3.org/2000/svg" xmlns:xlink="http://www.w3.org/1999/xlink" x="0px" y="0px"
	 viewBox="0 0 612 792" style="enable-background:new 0 0 612 792;" xml:space="preserve">
<style type="text/css">
	.st0{fill:#F5A83B;}
	.st1{fill:#EE4B36;}
	.st2{fill:#E57428;}
	.st3{fill:#06718C;}
</style>
<g>
	<path class="st0" d="M37.2,502.3c0-27,0.1-54-0.1-81c0-3.4,1.1-5,4.2-6.2c36.4-13,72.9-25.4,111.1-31.7c11.9-2,23.5-0.4,35,3.1
		c28.4,8.6,55.6,20.2,82.7,32.2c9.6,4.2,19.3,8.4,28.5,13.2c9.2,4.8,16.5,11.8,20,22c2.5,7.5-1,12.7-8.2,15.7
		c-11.6,4.7-22.4,3.7-34.2-0.2c-26.3-8.7-53.1-16.1-79.7-24.1c-6.6-2-6.6-1.9-8.4,4.4c-1.1,4-2.1,8.1-3.5,12
		c-1.1,3.1-0.3,4.3,2.9,5.2c20.3,5.8,40.5,11.8,60.8,17.7c13.6,4,27.2,7.8,40.7,11.9c3,0.9,5.7,1,8.7,0.2
		c63.3-16.8,126.6-33.5,190-50c11.1-2.9,22.6-4.2,34-0.9c13.2,3.8,20.4,19.8,14.5,32.2c-2.6,5.4-6.3,10-11.3,13.1
		c-36.6,23.7-73.6,46.9-113.1,65.7c-26.5,12.6-53.7,23.2-82.6,29.1c-36.5,7.5-72.5,4.7-108.3-4.6c-15.8-4.1-31.4-8.7-47.6-10.9
		c-22.4-3-44.8-3-67.2-0.1c-22.5,2.9-44.4,8.4-65.6,16.7c-4.5,1.8-3.4-1.4-3.4-3.4C37.2,556.6,37.2,529.5,37.2,502.3z"/>
	<path class="st1" d="M270.7,394.2c-12.8-5.1-24.9-10.1-37.1-14.9c-10.7-4.2-21.4-8.3-32.4-11.4c-3-0.9-4.1-2.3-4.1-5.5
		c0.1-27.7,0.2-55.3,0-83c0-4,1.4-4.6,4.9-4.5c46.8,0.1,93.6,0.1,140.5,0.1c38.8,0,77.6,0.1,116.5-0.1c4.2,0,5.2,1,5.2,5.2
		c-0.2,48.3-0.2,96.6,0,145c0,3.7-1.2,5.1-4.6,6c-21.4,5.7-42.7,11.5-63.9,17.6c-4.9,1.4-5.4,0.1-5.4-4.3c0.2-22.8,0.3-45.7,0-68.5
		c-0.4-26.8-17.6-50-42.3-57.7c-34-10.6-70.4,12.5-76,48.1C270.5,375.3,271.5,384.5,270.7,394.2z"/>
	<path class="st2" d="M491.2,251.1c-107.7,0-214.3,0-321,0c0.2-2.4,1.9-3.3,3.1-4.5c51.2-51.3,102.5-102.5,153.7-153.9
		c2.6-2.6,4-3.2,7-0.2c51.3,51.9,102.8,103.6,154.3,155.4C489.1,248.8,489.8,249.6,491.2,251.1z"/>
	<path class="st3" d="M368,413.4c0,12.7-0.1,25.3,0.1,38c0,2.9-0.8,4.1-3.7,4.6c-6.4,1.1-12.7,2.5-19.1,3.8
		c-2.2,0.5-3.5,0.5-3.6-2.7c-1-22.2-14.6-35.5-32.7-45.4c-4.9-2.7-11.4-4-14.7-7.9c-3.3-3.9-0.8-10.5-1-15.9
		c-0.2-6.8-0.5-13.7,1.2-20.4c4.8-19.3,21.7-31.6,40.6-29.4c17.5,2,32.6,19.1,32.9,37.9C368.2,388.5,368,400.9,368,413.4z"/>
</g>
</svg>
