<?xml version="1.0" encoding="utf-8"?>
<!-- Generator: Adobe Illustrator 19.0.0, SVG Export Plug-In . SVG Version: 6.00 Build 0)  -->
<svg version="1.1" id="Calque_1" xmlns="http://www.w3.org/2000/svg" xmlns:xlink="http://www.w3.org/1999/xlink" x="0px" y="0px"
	 viewBox="0 0 612 792" style="enable-background:new 0 0 612 792;" xml:space="preserve">
<style type="text/css">
	.st0{fill:#5B9A35;}
	.st1{fill:#6AB245;}
	.st2{fill:#5B9935;}
</style>
<g>
	<path class="st0" d="M185.8,360c-1.4,2.1-0.9,4.5-0.9,6.8c0,11.2,0,22.5,0,34.1c-2.8-0.5-4.4-2-5.8-3.4
		c-8.6-8.5-17.2-17.1-25.7-25.6c-0.8-0.8-1.9-1.5-1.2-2.9c0.8-1.9,2.5-2.2,4.1-2.2c4.5,0,8-2.3,11.1-5.1
		c11.4-10.7,23.2-21,34.8-31.5c14.6-13.2,29.2-26.2,43.8-39.3c11.5-10.3,23.1-20.6,34.5-31.1c10.6-9.7,21.3-19.1,31.9-28.7
		c3.1-2.9,6.2-2.8,9.4,0.1c10.6,9.6,21.2,19.2,31.9,28.7c14.9,13.3,29.7,26.7,44.6,40c11.4,10.2,22.7,20.5,34.1,30.7
		c12.1,10.9,23.9,22.2,36.5,32.5c7.3,6,14.3,4.6,19.5-3.2c0.9-1.4,1.7-2.9,3.7-2.8c11.2,8.9,20.9,19.5,31.4,29.1
		c16.1,14.8,31.7,30.2,47.6,45.4c0.6,0.6,1.3,1,2,1.5c0,63.3,0,126.5,0.1,189.8c0,3.8-1,4.3-4.4,4.3C469.5,627,370.2,627,271,627
		c-8.9-10.5-19.7-19.3-29.8-28.6c-6.4-6-12.5-12.3-19.1-18.2c-12.4-11-24.1-22.7-36.1-34.2c1.3-1.7,3.2-2.3,5.3-2.3
		c2.7-0.1,5.3-0.1,8-0.1c77.5,0,155,0,232.5,0c2,0,4,0,6,0c6.8-0.1,7.8-1,7.8-7.9c0-47.3,0-94.7,0-142c0-8.5-0.2-17,0.1-25.5
		c0.1-4.7-1.3-8.3-4.8-11.5c-11.3-10.3-22.8-20.5-34.2-30.7c-11.1-10-22.3-20-33.5-30c-17.2-15.5-34.4-30.9-51.6-46.4
		c-3.5-3.2-5.6-3.2-9.2,0c-10.6,9.6-21.2,19.2-31.9,28.7c-17.9,15.9-35.7,32-53.6,48c-11.3,10.1-22.7,20.1-33.8,30.4
		C191.1,358.6,189.2,360.9,185.8,360z"/>
	<path class="st1" d="M568.6,114.9c-167.8,0.1-335.6,0.1-503.3,0c-3.6,0-4.4,0.7-4.4,4.3c0.1,167.9,0.1,335.9,0,503.8
		c0,3.6,0.9,4,4.2,4C133.7,627,202.4,627,271,627c1.6-3.1-0.9-4.6-2.6-6.3c-10.4-10.3-21.4-19.9-31.8-30.1
		c-8.5-8.4-17.4-16.4-26.1-24.6c-6.2-5.8-11.9-12-18.5-17.4c-1.1-0.9-1.9-1.7-2.5-2.7c-1.2,0-2.3,0-3.5,0
		c-0.1-30.9-0.2-61.8-0.2-92.8c0-31.1,0-62.2,0-93.3c0.1-0.1,0.2-0.2,0.3-0.3c-1.2-0.5-2.1,0.4-2.9,1.9c-0.7,1.5-0.6,3.2-0.6,4.9
		c-0.1,8,0,15.9-0.1,23.9c0,1.6,0.8,3.8-0.9,4.6c-1.8,0.9-2.8-1.2-4-2.3c-7.7-7.3-14.7-15.3-22.8-22.2c-0.5-0.4-0.7-0.9-0.9-1.5
		c-0.6-0.1-1.2-0.1-1.8-0.2c-12.5-7.2-13.5-17.6-2.8-27.2c18-16.1,35.9-32.2,53.8-48.4c1.1-1,2.1-2.1,3.1-3.2
		c-0.2-0.6-0.2-1.1-0.1-1.6c-1-1.5-2.4-2.7-3.6-4.1c-0.7,0.3-1.6,0.3-2.6-0.2c-2.1-1-1.2-2.9-1.2-4.4c0-21.8,0-43.6,0-65.4
		c0-6.2,1.8-8,8-8.1c10.5,0,21,0.1,31.4-0.1c4.4-0.1,7.4,1.4,8.8,5.7c1,1.4,1.6,2.9,1.9,4.4c0.3,0.3,0.7,0.6,1,0.9
		c5.6,5.5,10.1,12.1,16.1,17.1c0.6-0.1,1.2,0,2,0.3c12.3-11,24.6-21.9,36.9-32.9c8.8-7.9,15.5-7.9,24.1-0.1
		c52,46.8,104,93.5,156,140.2c4.6,4.2,7.5,8.8,7.1,15.1c-0.2,0.5-0.4,1.1-0.7,1.6c3.3,4.2,7.7,7.4,11.5,11.2
		c16.4,16.2,33.5,31.6,50,47.8c4.7,4.6,9.7,9,14.5,13.6c1.5,1.4,3,3.4,5.6,1.9c0-104.5,0-208.9,0.1-313.4
		C573.1,116,572.6,114.9,568.6,114.9z"/>
	<path class="st2" d="M200,284.3c14.5-13.1,28.9-26.2,43.4-39.1c2.4-2.2,3.5-4.4,3.5-7.7c-0.2-8.5,0-17,0.1-25.5
		c7.8,6.8,15.2,14.1,21,22.8c-20.6,18.5-41.1,37-61.7,55.5C203.7,288.8,200.2,288.2,200,284.3z"/>
</g>
</svg>
