<?xml version="1.0" encoding="utf-8"?>
<!-- Generator: Adobe Illustrator 19.0.0, SVG Export Plug-In . SVG Version: 6.00 Build 0)  -->
<svg version="1.1" id="Calque_1" xmlns="http://www.w3.org/2000/svg" xmlns:xlink="http://www.w3.org/1999/xlink" x="0px" y="0px"
	 viewBox="0 0 612 792" style="enable-background:new 0 0 612 792;" xml:space="preserve">
<style type="text/css">
	.st0{fill:#D42744;}
	.st1{fill:#343434;}
</style>
<g>
	<path class="st0" d="M121.9,606.1c0-34.1-0.1-68.3-0.1-102.4c0-46,0-92-0.1-137.9c0-3.7,1.1-6.1,3.8-8.6
		c56.3-50.5,112.6-101,168.7-151.7c3-2.7,4.7-2.7,7.7,0c55.9,50.4,111.9,100.8,168,151c3.3,2.9,4.5,5.9,4.5,10.3
		c-0.1,78.8-0.1,157.6-0.1,236.4c0,1-0.1,2-0.1,3c-2.7,2.3-6,1.5-9.1,1.5c-57.3,0-114.6,0-171.9,0c-54,0-108,0-161.9,0
		C128,607.6,124.7,608.2,121.9,606.1z"/>
	<path class="st1" d="M204,207.4c18.4-16.4,36.8-32.8,55.1-49.3c8.2-7.3,16.3-14.7,24.5-22.1c9.3-8.3,19.5-8.3,28.6-0.1
		c71,63.8,142,127.6,213,191.4c6.4,5.7,9.3,12.5,7,20.9c-2.2,8.1-7.7,12.6-15.8,14.1c-6.5,1.2-12.1-1.1-16.9-5.4
		c-33.8-30.4-67.6-60.8-101.5-91.2c-32.5-29.2-65-58.3-97.3-87.6c-2.7-2.4-3.9-1.5-6,0.4c-65.6,59.1-131.3,118.1-197,177.1
		c-5.5,4.9-11.3,8.2-18.9,6.6c-7.9-1.7-13-6.3-15.2-14.1c-2.2-7.9,0.1-14.5,6-19.8c21.9-19.8,43.8-39.5,65.7-59.2
		c1.2-1.1,2.4-2.3,3.6-3.4c4.1-6.7,10.8-10.8,16.3-15.9c8.4-7.8,17-15.4,25.5-23c6.8-6.1,13.6-12.2,20.4-18.3
		C202.1,207.9,202.9,207.4,204,207.4z"/>
	<path class="st1" d="M121.9,606.1c117.4,0,234.8,0,352.2,0c1.2,7.1,0.1,14.3,0.5,21.4c0.2,3-1.9,2.5-3.7,2.5c-11.8,0-23.6,0-35.5,0
		c-102.7,0-205.5,0-308.2,0.1c-4.4,0-6.2-0.8-5.8-5.6C121.9,618.4,121.8,612.2,121.9,606.1z"/>
	<path class="st0" d="M204,207.4c-15.6,14.2-31.3,28.4-47,42.5c-5.9,5.3-11.9,10.6-17.9,15.9c0-30.8-0.1-61.6-0.1-92.4
		c0-5.6,3-8.7,8.6-8.8c15.8-0.1,31.6-0.1,47.5,0c5.7,0,8.6,3.2,8.7,9.3C203.9,185.1,203.9,196.3,204,207.4z"/>
</g>
</svg>
