<?xml version="1.0" encoding="utf-8"?>
<!-- Generator: Adobe Illustrator 19.0.0, SVG Export Plug-In . SVG Version: 6.00 Build 0)  -->
<svg version="1.1" id="Calque_1" xmlns="http://www.w3.org/2000/svg" xmlns:xlink="http://www.w3.org/1999/xlink" x="0px" y="0px"
	 viewBox="0 0 612 792" style="enable-background:new 0 0 612 792;" xml:space="preserve">
<g>
	<path d="M311.9,183.9c-10.3,9.2-20.4,18.3-30.6,27.4c-60.7,54.6-121.5,109.1-182.1,163.8c-5.2,4.7-10.7,8-17.9,7.3
		c-8.8-0.8-15.1-5.3-18-13.6c-3-8.5-1.1-16.2,5.6-22.4c11.1-10.3,22.5-20.3,33.8-30.5c64.6-58,129.1-116.1,193.7-174.1
		c10.5-9.5,20.9-9.4,31.5,0.2c75.2,67.6,150.4,135.2,225.7,202.8c6.3,5.7,9.7,12.3,7.9,20.8c-3.4,16.2-22.1,22.2-34.8,11.1
		c-14.6-12.9-29-26-43.5-39.1c-56.4-50.7-112.8-101.4-169.2-152C313.5,185.1,312.8,184.6,311.9,183.9z"/>
	<path d="M142.9,262.1c0-2.2,0-3.6,0-5.1c0-31.7,0-63.3,0-95c0-9.7,2.4-12.1,12-12.1c15.3,0,30.7,0,46,0c7.6,0,10.6,3,10.7,10.6
		c0.1,12.3,0.1,24.7-0.1,37c0,1.8-0.8,4-2.1,5.2c-21.4,19.4-42.8,38.6-64.3,57.8C144.7,260.8,144.2,261.2,142.9,262.1z"/>
	<path d="M496.1,366.3c-41.4-37.1-82.8-74.4-124.2-111.6c-19.8-17.8-39.7-35.6-59.8-53.7c-1.1,0.9-1.9,1.5-2.6,2.2
		c-60.3,54.3-120.6,108.5-181,162.7c-2.9,2.6-4,5.2-4,9c0.1,84.8,0.1,169.6,0.1,254.4c0,1.8,0,3.6,0,5.3c125.4,0,250.1,0,375.2,0
		c0-1.8,0-3.3,0-4.8c0-85.3,0-170.6,0.1-255.9C499.7,370.5,498.5,368.4,496.1,366.3z M351.2,430.2c11.9,0,23.1,0,34.6,0
		c0,2.6,0,5,0,8c-7.8,0-15.4,0-23.3,0c0,4.7,0,9,0,13.7c6.4,0,12.8,0,19.5,0c0,3,0,5.4,0,8.4c-6.5,0-12.9,0-19.6,0
		c0,5.4,0,10.1,0,15.5c7.7,0,15.4,0,23.4,0c0,3,0,5.4,0,8.5c-10.8,0-21.6,0.1-32.3-0.1c-0.8,0-2.1-2-2.1-3
		C351.2,464.5,351.2,447.7,351.2,430.2z M218.8,464.7c-2.2-1.8-5.4-2.3-8.1-3.6c-4.2-1.9-8.7-3.5-12.4-6.2c-6.5-4.7-6.9-14-1.3-19.8
		c7.5-7.7,24.1-7.9,31.4,0c2.4,2.6,3.4,6.4,5.6,10.6c-4.8,0-8.1,0-11.4,0c-2.5-6.9-6.3-9.4-12.7-7.6c-2.2,0.6-4.9,3-5.3,5
		c-0.4,1.9,1.3,5.2,3.1,6.4c2.9,2,6.7,2.7,10,4.3c4,2,8.4,3.6,11.6,6.6c7,6.4,4.6,18.4-4.3,22.4c-8,3.6-16.2,3.3-24.1-0.5
		c-5.8-2.8-8.7-7.5-8.6-14.3c3.4,0,6.6,0,9.9,0c2.3,6.2,6.4,9.5,11.4,9.2c0.4,0,0.8-0.1,1.2-0.2c0.8-0.2,1.6-0.4,2.5-0.7
		c2-0.8,4.4-3.2,4.6-5C222,469.1,220.6,466.1,218.8,464.7z M234.8,577.6c-4.3,0-8.6,0-13.3,0c0-9.5,0-18.7,0-28.3
		c-9.6,0-18.7,0-28.2,0c0,9.3,0,18.6,0,28.2c-4.8,0-9.2,0-13.8,0c0-22.9,0-45.7,0-68.9c4.6,0,8.7,0,13.4,0c0,9.7,0,19.3,0,29.3
		c9.6,0,18.6,0,28.5,0c0-7-0.1-14,0-21.1c0.1-9.6-1.4-8.2,8.6-8.3c1.5,0,2.9,0,4.9,0C234.8,531.6,234.8,554.4,234.8,577.6z
		 M248.3,430.2c2.3,11.6,4.6,23.2,7.2,35.9c0.8-2.1,1.3-3.1,1.6-4.2c2.6-9.5,5.3-18.9,7.5-28.4c0.8-3.5,2.7-3.5,5.4-3.5
		c2.6,0,4.6-0.1,5.4,3.4c2.6,10.6,5.6,21.1,9.5,31.7c1.8-9.4,4-18.8,5.3-28.3c0.8-5.7,3.1-7.8,8.6-6.8c1.1,0.2,2.3,0,4.1,0
		c-2.4,10.3-4.7,20.3-7,30.2c-1.6,6.8-3.4,13.6-4.7,20.4c-0.6,2.9-1.7,4.1-4.6,3.7c-2.8-0.4-6.3,1.4-7.5-3.4
		c-2.6-10.3-5.6-20.4-9.4-30.7c-1,3.4-2,6.8-2.9,10.2c-1.7,5.9-3.3,11.9-4.9,17.8c-1.7,6-3.8,7.4-9.9,6c-1-0.2-2.3-1.5-2.5-2.4
		c-4.1-17.1-8.1-34.2-12.2-51.6C241,430.2,244.4,430.2,248.3,430.2z M303.4,556.7c-2.9,13.9-14.7,22.6-29.2,22.1
		c-14.4-0.5-25.5-9.6-27.2-23.7c-1-8-0.9-16.4,0-24.4c1.8-14.6,14.6-24.3,29.4-23.4c15.5,0.9,26.7,11.7,27.5,26.4
		c0.2,3.2,0,6.3,0,9.5c0.1,0,0.2,0,0.3,0C304.1,547.8,304.3,552.4,303.4,556.7z M309.2,430.2c11.4,0,22.5,0,33.9,0c0,2.6,0,5,0,8
		c-7.7,0-15.3,0-23.2,0c0,4.8,0,9.1,0,13.7c6.5,0,12.8,0,19.5,0c0,2.9,0,5.4,0,8.6c-6.5,0-12.9,0-19.5,0c0,5.4,0,10.2,0,15.4
		c7.8,0,15.4,0,23.3,0c0,2.8,0,5.2,0,8.1c-11.2,0-22.4,0-34,0C309.2,466.3,309.2,448.5,309.2,430.2z M387,577.5c-4.3,0-8.4,0-13,0
		c0-15,0-29.9,0-44.8c-0.4-0.1-0.8-0.3-1.3-0.4c-0.6,1.3-1.2,2.7-1.7,4c-4.6,12.7-9.3,25.3-13.7,38c-1.2,3.4-3.1,3.6-6,3.6
		c-2.8,0-4.9-0.1-6.1-3.5c-4.3-12.6-8.9-25.1-13.4-37.6c-0.6-1.5-1.2-3-1.8-4.6c-0.4,0-0.8,0.1-1.2,0.1c0,14.9,0,29.8,0,45.1
		c-4.6,0-8.9,0-13.4,0c0-23,0-45.7,0-69.2c5.5,0,10.9-0.2,16.3,0.2c1.1,0.1,2.5,2.3,3,3.8c4.8,13.6,9.5,27.3,14.2,41
		c0.6,1.8,1.4,3.6,2.4,6.4c5.7-16.4,11.2-31.7,16.4-47.1c1.1-3.1,2.3-4.7,5.9-4.4c4.3,0.4,8.6,0.1,13.4,0.1
		C387,531.5,387,554.3,387,577.5z M390.3,430.4c13.6,0,27.3,0,41.3,0c0,2.4,0,4.7,0,8c-2.5,0-5.1,0-7.6,0c-2.4,0-4.9,0-7.8,0
		c0,15.6,0,30.5,0,45.7c-3.7,0-7,0-10.8,0c0-15,0-30,0-45.5c-5.2,0-10,0-15,0C390.3,435.6,390.3,433.1,390.3,430.4z M444.6,518.7
		c-9.8,0-19.7,0-30,0c0,6.1,0,11.6,0,17.7c8.4,0,16.6,0,25.1,0c0,3.7,0,6.8,0,10.4c-8.2,0-16.5,0-25.4,0c0,7.1,0,13.3,0,20.1
		c10.1,0,20,0,30.2,0c0,3.7,0,7,0,10.5c-14.6,0-29,0-43.9,0c0-22.8,0-45.7,0-68.9c14.6,0,29.1,0,43.9,0
		C444.6,511.9,444.6,515,444.6,518.7z"/>
	<path d="M290.7,542.9c-0.2,4.1-0.2,8-0.8,11.8c-1.2,7.9-6.7,13-13.9,13.3c-7.7,0.3-14-4.1-14.9-12.4c-1-8.2-1-16.6-0.1-24.8
		c0.9-8.3,6.8-12.8,14.2-12.7c7.4,0.1,13.3,5.2,14.7,13.1C290.6,535.2,290.5,539.2,290.7,542.9z"/>
</g>
</svg>
