<?xml version="1.0" encoding="utf-8"?>
<!-- Generator: Adobe Illustrator 19.0.0, SVG Export Plug-In . SVG Version: 6.00 Build 0)  -->
<svg version="1.1" id="Calque_1" xmlns="http://www.w3.org/2000/svg" xmlns:xlink="http://www.w3.org/1999/xlink" x="0px" y="0px"
	 viewBox="0 0 612 792" style="enable-background:new 0 0 612 792;" xml:space="preserve">
<style type="text/css">
	.st0{fill:#579AD1;}
	.st1{fill:#343434;}
</style>
<g>
	<path class="st0" d="M325.9,127c3.7,0,8.4,2.1,12.6,5.8c44.5,40,88.9,79.9,133.4,119.9c31.7,28.5,63.4,57,95,85.6
		c6.5,5.9,8.8,13.2,6,21.7c-2.8,8.4-8.8,13.2-17.5,14.4c-6.5,0.9-12.2-1.3-17-5.6c-47.4-42.6-94.8-85.3-142.2-128
		c-23.1-20.8-46.3-41.6-69.4-62.5c-2.2-2-3.4-2.1-5.6,0c-33.5,30.3-67,60.4-100.6,90.6C183.8,301.9,147,335,110.2,368
		c-7.2,6.5-15.2,8.7-24.3,4.5c-7.6-3.5-12.3-11.4-11.8-19.8c0.3-6.4,3.4-11.3,8.1-15.5c18.5-16.6,36.9-33.2,55.3-49.8
		c25.3-22.7,50.5-45.4,75.8-68.1c32.3-29.1,64.7-58.1,97-87.1C314.1,128.7,318.7,126.9,325.9,127z"/>
	<path class="st1" d="M154.9,254.5c0-20.9,0-40.6,0-60.4c0-13.8,0-27.7,0-41.5c0-7.7,2.9-10.7,10.5-10.7c16,0,32,0,48,0
		c7.1,0,10.2,3,10.2,10c0.1,12.7,0,25.3,0.1,38c0,2-0.6,3.4-2.1,4.8C199.7,214.3,177.7,234,154.9,254.5z"/>
	<path class="st1" d="M511.7,365.2c0-2.6-0.8-4.3-2.7-6c-60.7-54.5-121.5-109.1-182.1-163.7c-2.5-2.2-3.7-1.9-6,0.1
		c-60.3,54.3-120.6,108.6-181,162.8c-2.6,2.3-3.6,4.7-3.6,8.1c0.1,85.1,0.1,170.3,0,255.4c0,4.1,0.9,5.3,5.1,5.2
		c60.6-0.2,121.3-0.1,182-0.1c61.2,0,122.3,0,183.5,0.1c3.5,0,4.9-0.4,4.9-4.5C511.6,536.8,511.7,451,511.7,365.2z M363.2,449
		C363.2,449,363.2,449,363.2,449c0-7.7,0.1-15.3,0-23c-0.1-2.9,0.4-4.2,3.7-4.1c9.3,0.2,18.7,0.2,28,0c3.5-0.1,3.2,1.8,3.1,4
		c-0.1,2.3,0.7,4.7-3.3,4.5c-5.6-0.3-11.3,0-17-0.2c-2.8-0.1-3.7,0.8-3.8,3.6c-0.3,10.2-0.4,10.2,9.6,10.2c1.8,0,3.7,0.2,5.5-0.1
		c4.7-0.8,5.7,1.3,5.3,5.5c-0.2,2.5-1.1,3.1-3.3,3c-4.5-0.1-9,0.2-13.5-0.2c-4.3-0.3-4.2,2.7-3.3,4.8c1.5,3.6-4.3,9.7,3.2,10.8
		c5.7,0.8,11.7,0.4,17.5,0.1c4-0.2,3.1,2.3,3.2,4.5c0.1,2.3,0.3,4.1-3.2,4.1c-9.5-0.2-19-0.1-28.5,0c-2.8,0-3.3-1.1-3.3-3.6
		C363.3,465,363.2,457,363.2,449z M204.6,460.5c2.3-2,6-0.7,9.1-0.6c1.3,0,1.1,1.4,1.3,2.4c1.2,7.6,12.7,8.2,16.9,5
		c3.3-2.6,3.1-7.6-0.4-10.3c-2.4-1.8-5.3-2.6-8.2-3.6c-4.6-1.5-9.1-3.2-13-6.2c-6.5-5.1-7-14.4-1.2-20.2c7.5-7.4,23.6-7.5,31.1,0
		c0.8,0.8,1.6,1.7,2.2,2.7c1.5,2.4,3.3,6,1.6,7.7c-2,2.1-6,0.7-9.1,0.6c-1.3,0-0.9-1.5-1.2-2.4c-2.2-5.4-9-7.8-14.2-4.8
		c-4.4,2.5-4.8,7.8-0.5,10.5c2.5,1.6,5.3,2.6,8.1,3.6c3.8,1.3,7.5,2.7,10.9,4.8c5.6,3.5,7.7,8.5,6.9,14.9c-0.8,6-4.9,9.2-10.1,11.2
		c-3,1.1-6.1,1.5-9.5,1.3c-4.8,0.3-9.4-0.9-13.7-3.3c-2.6-1.5-4.9-3.5-6.1-6.4C204.8,465.1,203,461.9,204.6,460.5z M243.3,569.9
		c-10,0-10,0.1-10-9.8c0-5.2-0.1-10.3,0-15.5c0.1-2.6-0.4-3.9-3.5-3.8c-7.2,0.2-14.3,0.2-21.5,0c-3-0.1-3.5,1.2-3.5,3.8
		c0.1,7.2-0.1,14.3,0.1,21.5c0.1,3.2-0.9,3.8-3.9,3.8c-10.1-0.1-10.1,0.1-10-10.2c0-18.1,0.1-36.3-0.1-54.4c0-3.7,0.7-5.2,4.8-5.1
		c9.1,0.3,9.1,0,9.2,9.1c0,5.8,0.1,11.7-0.1,17.5c-0.1,2.5,0.5,3.5,3.3,3.5c7.2-0.2,14.3-0.2,21.5,0c2.9,0.1,3.7-0.8,3.6-3.6
		c-0.2-7.3,0.1-14.7-0.1-22c-0.1-3,0.5-4.4,4-4.4c9.9,0,9.9-0.2,9.9,9.9c0,8.3,0,16.6,0,25c0,10.3-0.1,20.6,0.1,31
		C247.3,569.2,246.3,570,243.3,569.9z M250.1,422.1c10.1-0.5,10-0.5,12,9.5c1.7,8.6,3.5,17.2,5.9,25.9c2.3-8.3,4.5-16.5,6.8-24.8
		c0.5-1.8,1-3.5,1.2-5.3c0.5-4.5,2.8-6,7.3-5.5c2.5,0.3,3.3,1.1,3.9,3.4c2.4,9.5,5.1,18.9,7.7,28.4c0.3,1.3,0.8,2.5,1.6,5
		c2.3-11.9,4.4-22.5,6.5-33.1c0.3-1.4-0.1-3.4,2-3.5c3.1-0.2,6.3-0.1,9.4,0.3c0.7,0.1,0.1,1.4-0.1,2.2c-3.8,16.4-7.7,32.7-11.3,49.1
		c-0.7,3.2-2.8,2.8-4.9,2.7c-2.7-0.1-5.9,1.2-7-3.3c-2.1-8.7-4.7-17.3-7.1-26c-0.4-1.4-0.5-2.9-2.5-4.6c-2.9,10.3-6,19.9-8.2,29.7
		c-1.2,5.3-4.6,3.9-7.9,4.3c-3.5,0.4-4-1.6-4.6-4.3c-3.8-16.5-7.8-33-11.7-49.4C249.6,422.4,249.8,422.1,250.1,422.1z M315.5,548.8
		c-3.4,14.1-15.5,23-30.3,22c-14.9-1-25.4-11-26.8-26.5c-0.6-7.1-0.7-14.3,0.4-21.4c2.3-14.5,14.6-24.3,29.4-23.5
		c15.8,0.8,27.2,11.9,27.8,27.1c0.1,3,0,6,0,9C315.9,539.9,316.6,544.4,315.5,548.8z M323.3,476.5c-3,0-2.5-1.9-2.5-3.7
		c0-8,0-16,0-24c0,0,0,0,0,0c0-7.8,0.1-15.7-0.1-23.5c0-2.5,0.5-3.5,3.3-3.4c9.3,0.2,18.7,0.2,28,0c3.6-0.1,3.5,1.7,3.5,4.2
		c0,2.6-0.1,4.4-3.6,4.2c-5.5-0.3-11,0-16.5-0.1c-2.7-0.1-3.7,0.6-3.8,3.6c-0.3,10.1-0.5,10.1,9.5,10.2c1.8,0,3.7,0.3,5.5,0
		c4.5-0.8,5.8,1.1,5.4,5.4c-0.2,2.4-0.9,3.2-3.2,3.1c-4.5-0.1-9,0-13.5-0.2c-2.9-0.1-3.6,1-3.7,3.7c-0.4,12-0.4,12,11.3,11.9
		c2.5,0,5,0,7.5,0c5.5,0,5.9,0.6,5.3,5.9c-0.2,2-1.1,2.5-2.9,2.5C343,476.4,333.1,476.4,323.3,476.5z M399.6,564.8
		c0,3.8-0.9,5.2-5,5.1c-8.8-0.2-8.9,0-8.9-8.9c0-12.3,0-24.5,0-36.9c-2.2,0.6-1.9,2.5-2.4,3.7c-4.6,12.5-9.1,25-13.5,37.5
		c-1.1,3-2.1,5.1-6.1,4.9c-3.7-0.2-5.6-1.1-6.8-4.7c-4.3-12.7-9-25.3-13.6-38c-0.4-1.2-0.5-2.6-2.2-3.9c0,14.3-0.1,28.1,0.1,41.9
		c0,3.5-1,4.4-4.5,4.4c-9.4-0.1-9.4,0.1-9.5-9.3c0-18.5,0.1-37-0.1-55.4c-0.1-4.1,1.3-5,5.1-4.9c13.4,0.1,13.4-0.1,17.8,12.8
		c3.9,11.3,7.7,22.6,11.6,33.9c0.5,1.4,0.6,3,2.1,4c5.4-15.4,10.9-30.7,16-46.1c1.1-3.4,2.4-5.1,6.2-4.6c4.4,0.6,10.3-2,12.8,1.1
		c2.2,2.6,0.8,8.3,0.8,12.6C399.5,530.8,399.4,547.8,399.6,564.8z M406.9,430.4c-3.8,0.5-5.3-0.8-5-4.8c0.2-2.7,0.8-3.6,3.6-3.6
		c11.7,0.2,23.3,0.2,35,0c3.1,0,3.6,1.3,3.4,3.9c-0.2,2.2,0.7,5-3.2,4.5c-0.2,0-0.3,0-0.5,0c-3.8,0.2-8.8-1.6-11.1,0.8
		c-2.7,2.8-0.7,7.9-0.9,12c-0.2,3.5,0,7,0,10.5c0,0,0,0,0,0c0,6.3-0.2,12.7,0.1,19c0.1,3.1-0.8,4-3.9,3.9c-7-0.1-7.1,0.1-7.1-6.7
		c0-11.8-0.1-23.7,0.1-35.5c0-3.1-0.9-4.2-3.9-3.9C411.2,430.5,409,430.1,406.9,430.4z M453.3,569.8c-12.5-0.2-25-0.1-37.5,0
		c-2.9,0-3.7-0.9-3.7-3.7c0.1-10.5,0.1-21,0.1-31.5c0-10,0.1-20-0.1-30c-0.1-3.4,0.7-4.6,4.4-4.6c12.2,0.2,24.3,0.2,36.5,0
		c3,0,4,0.7,4,3.9c-0.1,7,0.1,7-6.7,7c-6.8,0-13.7,0.1-20.5-0.1c-2.9-0.1-3.8,0.9-3.6,3.7c0.2,3.5,0.2,7,0,10.5
		c-0.1,2.7,1,3.5,3.5,3.4c6.2-0.1,12.3,0.1,18.5-0.1c3-0.1,4,0.7,4,3.8c-0.1,6.8,0.1,6.8-6.9,6.9c-5.3,0-10.7,0.1-16-0.1
		c-2.3-0.1-3.3,0.7-3.2,3.1c0.1,4.7,0.2,9.3,0,14c-0.1,2.7,1.2,2.9,3.3,2.9c8-0.1,16,0.2,24-0.2c4.2-0.2,3.8,2.3,3.4,4.7
		C456.5,566,458.9,569.9,453.3,569.8z"/>
	<path class="st1" d="M302.7,534.7c-0.2,4.3-0.2,8-0.7,11.6c-1.1,8.1-6.7,13.5-14,13.7c-7.8,0.3-13.4-4.2-15-12.5
		c-1.6-8.2-1.6-16.6,0-24.8c1.5-8.3,6.9-12.7,14.4-12.6c7.4,0.1,13.3,5.2,14.6,13.2C302.6,527.3,302.5,531.3,302.7,534.7z"/>
</g>
</svg>
