<?xml version="1.0" encoding="utf-8"?>
<!-- Generator: Adobe Illustrator 19.0.0, SVG Export Plug-In . SVG Version: 6.00 Build 0)  -->
<svg version="1.1" id="Calque_1" xmlns="http://www.w3.org/2000/svg" xmlns:xlink="http://www.w3.org/1999/xlink" x="0px" y="0px"
	 viewBox="0 0 612 792" style="enable-background:new 0 0 612 792;" xml:space="preserve">
<style type="text/css">
	.st0{fill:#A7A7A8;}
	.st1{fill:#F1AE1C;}
	.st2{fill:#E52E29;}
	.st3{fill:#349FD7;}
</style>
<g>
	<path class="st0" d="M411.1,223c0,15.2,0,30.3-0.2,45.5c0,2.8,1.2,4.1,3.6,5.2c36,16.4,72,32.8,108.1,49.2c2.9,1.3,3.7,2.4,2.1,5.4
		c-2.3,4.2-4.3,8.6-6.1,13.1c-1,2.5-2.2,2.3-4.1,1.3c-3.1-1.5-6.4-2.8-9.5-4.4c-3.5-1.9-4.9-1.4-4.8,3c0.2,13.5,0.1,27,0.1,40.5
		c0,78.8,0,157.6,0.1,236.4c0,4.8-1.2,6.1-6.1,6.1c-117.1-0.1-234.3-0.1-351.4-0.1c-21.7,0-43.3-0.1-65,0.1c-4.7,0.1-6.2-1-6.2-6
		c0.2-91,0.1-181.9,0.2-272.9c0-9.3,0-9.3-8.4-5.4c-8.8,4-8.8,4-12.9-4.9c-0.8-1.7-1.3-3.5-2.3-5c-2.9-4.2-1.7-6.1,2.9-8.2
		c35.4-15.9,70.6-32,105.9-48c3.1-1.4,4.1-3.1,4.1-6.4c-0.2-14.8-0.1-29.7-0.1-44.5c-0.2-1.7,1.2-2.2,2.3-2.9
		c5.1-3.2,10.5-5.8,15.7-8.7c1.7-1,3.8-1.9,5,0.9c0.6,1.9,0.6,4,0.6,6c0,20-0.1,40,0.1,60c0.1,5.7-2,9.2-7.3,11.6
		c-25.6,11.8-51.3,23.3-76.9,35c-4.2,1.9-6,4.4-6,9c0.1,87,0.1,174,0.1,260.9c0,6.3,0.4,6.7,6.9,6.7c123,0,245.9,0,368.9,0
		c6.7,0,7-0.3,7-7.1c0-86.6,0-173.3,0.1-259.9c0-5.1-1.7-7.7-6.4-9.8c-25.5-11.6-51-23-76.4-34.8c-5.3-2.5-7.4-5.8-7.4-11.6
		c0.2-20.2,0.1-40.3,0.1-60.5c0-1.8,0-3.7,0.5-5.4c0.6-1.8,2-2.2,3.5-1.5c6.5,3.1,12.9,6.5,19,10.4C411,221.6,411.2,222.3,411.1,223
		z"/>
	<path class="st1" d="M182.8,211c-7.5,3.6-14.8,7.5-21.8,12c-6.5,3.4-13,6.7-19.3,10.3c-2.5,1.4-3.6,1.1-4.9-1.5
		c-1.9-4.1-4.1-8-6.5-11.8c-1.9-3-1.2-4.4,1.9-6c30-16.2,59.9-32.6,89.9-48.9c19.9-10.8,39.8-21.6,59.5-32.6
		c3.1-1.7,5.4-1.9,8.6-0.2c49.4,27.1,99,54.1,148.5,81c3.8,2,5.3,3.7,2.4,7.7c-2.4,3.4-4.2,7.2-6,10.9c-1.2,2.3-2.4,2.6-4.7,1.3
		c-6.4-3.6-12.9-6.8-19.4-10.2c-7-4.4-14.3-8.3-21.8-11.9c-7.4-1.3-13.2-6.1-19.6-9.6c-24.5-13.1-49-26.2-73-40
		c-8-4.6-13.8-4.4-21.7,0.2c-28.6,16.3-57.7,31.6-86.6,47.5C186.6,210.1,184.9,211.2,182.8,211z"/>
	<path class="st2" d="M306.2,428.9c7,0.1,14,0.4,21,0.1c4.2-0.2,4.9,1.3,4.8,5.1c-0.1,42.5-0.1,84.9,0,127.4c0,4.3-0.9,5.6-5.4,5.5
		c-48.8-0.2-97.6-0.1-146.4-0.1c-7,0-14-0.2-21,0.1c-3.5,0.1-4.5-0.9-4.5-4.4c0.1-29.1,0.1-58.3,0.1-87.4c0-13.8,0.2-27.6-0.1-41.5
		c-0.1-3.9,1.1-4.6,4.8-4.6c40,0.1,79.9,0.1,119.9,0.1c1.8,0,3.7-0.1,5.5-0.2C292,426.5,299.1,426.5,306.2,428.9z"/>
	<path class="st3" d="M306.2,428.9c-7.1,0-14.2,0-21.3,0c0-10.3,0.4-20.7,0-31c-0.5-14.2,5.3-25.6,15.2-35
		c28.5-27.3,75.9-26.6,103.4,1.5c9,9.1,14,20,13.7,33.2c-0.3,11.7-0.2,23.3,0,35c0,3.2-0.7,4.5-4.1,4.3c-4.3-0.3-8.7-0.3-13,0
		c-3.3,0.2-4.3-0.8-4.2-4.2c0.2-11.3-0.2-22.7,0.1-34c0.5-14.1-6.3-23.6-18.6-29.1c-17.8-7.8-36-7.9-53.6,0.5
		c-11.8,5.6-18.1,15.1-17.6,28.8C306.4,408.9,306.2,418.9,306.2,428.9z"/>
</g>
</svg>
