<?xml version="1.0" encoding="utf-8"?>
<!-- Generator: Adobe Illustrator 19.0.0, SVG Export Plug-In . SVG Version: 6.00 Build 0)  -->
<svg version="1.1" id="Calque_1" xmlns="http://www.w3.org/2000/svg" xmlns:xlink="http://www.w3.org/1999/xlink" x="0px" y="0px"
	 viewBox="0 0 612 792" style="enable-background:new 0 0 612 792;" xml:space="preserve">
<style type="text/css">
	.st0{fill:#E52E29;}
	.st1{fill:#A7A7A8;}
	.st2{fill:#349FD7;}
	.st3{fill:#F1AE1C;}
</style>
<g>
	<path class="st0" d="M317.3,142.5c1.7,0.3,3.8,0.5,5.8,1.5c73,35.4,146,70.8,219,106c3.6,1.7,4.9,3.1,2.6,6.9
		c-2,3.2-3.5,6.8-5,10.3c-1.4,3.3-2.7,4.3-6.5,2.4c-35.7-17.5-71.5-34.7-107.3-51.9C391,200.8,356.1,184,321.3,167
		c-3.2-1.6-5.6-1.5-8.7,0c-70.4,34.2-141,68.2-211.4,102.4c-3.7,1.8-5.4,1.7-6.9-2.3c-1.4-3.7-3.2-7.3-5.2-10.8
		c-1.7-3-1.2-4.4,2-5.9c19.7-9.3,39.2-18.9,58.8-28.4c53.3-25.8,106.5-51.5,159.8-77.3C312,143.6,314.3,142.5,317.3,142.5z"/>
	<path class="st1" d="M317,639.8c-72.1,0-144.3,0-216.4,0.1c-3.9,0-4.9-1.2-4.6-4.8c0.3-4.1,0.2-8.3,0-12.5
		c-0.2-3.4,0.7-4.6,4.4-4.6c47,0.1,94,0.1,140.9,0.1c71.5,0,142.9,0,214.4,0c26,0,52,0.1,78-0.1c3.6,0,4.6,1.1,4.4,4.5
		c-0.3,4.3-0.3,8.7,0,13c0.3,3.7-1.3,4.4-4.6,4.4c-33-0.1-66-0.1-99,0C395.3,639.8,356.2,639.8,317,639.8
		C317,639.8,317,639.8,317,639.8z"/>
	<path class="st2" d="M142,430c0-53.2,0-106.3-0.1-159.5c0-4.2,0.8-6.1,5.4-5.5c3.8,0.4,7.7,0.3,11.5,0c3.5-0.3,4.6,0.9,4.5,4.4
		c-0.2,14.3,0,28.7,0,43c0,92.5,0,185,0.1,277.5c0,3.9-0.9,5.4-5,5c-4-0.4-8-0.3-12,0c-3.5,0.2-4.5-0.8-4.5-4.4
		c0.2-18.3,0.1-36.7,0.1-55C142,500.3,142,465.2,142,430C142,430,142,430,142,430z"/>
	<path class="st1" d="M252,429.8c0-53.3,0-106.6-0.1-159.9c0-3.9,0.9-5.5,5-5c5.2,0.7,12-2.3,15.3,1.1c3,3.1,0.9,9.8,0.9,15
		c0.1,88.4,0,176.9,0,265.3c0,14.7-0.1,29.3,0,44c0,3.4-0.9,4.8-4.5,4.6c-5.3-0.4-12.1,2.1-15.5-0.9c-3.5-3.1-1.1-10-1.2-15.3
		C252,529.1,252,479.5,252,429.8z"/>
	<path class="st3" d="M360.8,429.5c0-53,0-106-0.1-159c0-4.2,0.7-6.1,5.4-5.6c3.8,0.4,7.7,0.3,11.5,0c3.5-0.3,4.5,0.9,4.5,4.4
		c-0.1,21.8-0.1,43.7-0.1,65.5c0,84.7-0.1,169.3,0.1,254c0,4.6-0.8,6.7-5.9,6.1c-3.6-0.5-7.3-0.3-11,0c-3.5,0.3-4.5-0.8-4.5-4.4
		c0.2-18.2,0.1-36.3,0.1-54.5C360.8,500.5,360.8,465,360.8,429.5C360.8,429.5,360.8,429.5,360.8,429.5z"/>
	<path class="st1" d="M492,429.4c0,53.3,0,106.6,0.1,159.9c0,4.2-0.8,6.1-5.4,5.6c-5.1-0.6-11.6,2.1-14.9-1.2c-3-3-0.9-9.5-0.9-14.5
		c0-102.8,0-205.6-0.1-308.3c0-4.8,1.1-6.6,6-6c3.3,0.4,6.7,0.3,10,0c4-0.4,5.4,0.7,5.4,5.1C491.9,323.2,492,376.3,492,429.4z"/>
</g>
</svg>
