<?xml version="1.0" encoding="utf-8"?>
<!-- Generator: Adobe Illustrator 19.0.0, SVG Export Plug-In . SVG Version: 6.00 Build 0)  -->
<svg version="1.1" id="Calque_1" xmlns="http://www.w3.org/2000/svg" xmlns:xlink="http://www.w3.org/1999/xlink" x="0px" y="0px"
	 viewBox="0 0 612 792" style="enable-background:new 0 0 612 792;" xml:space="preserve">
<style type="text/css">
	.st0{fill:#2D2D2D;}
	.st1{fill:#5EA3D1;}
	.st2{fill:#5DA3D1;}
	.st3{fill:#5FA4D2;}
</style>
<g>
	<path class="st0" d="M537,323.9c-0.3,6.7-4,12.9-11.5,16.3c-7.8,3.5-15,2.2-21.3-3.4C492,326,479.9,315,467.7,304.1
		c-54.1-48.7-108.3-97.3-162.3-146.1c-3.2-2.9-4.8-1.8-7.2,0.5c-65.8,59.2-131.6,118.3-197.4,177.4c-7.2,6.5-15.1,7.9-23,4.1
		c-7.2-3.5-11.4-11-10.8-19.2c0.5-6,3.7-10.5,8.1-14.4c27.2-24.3,54.3-48.7,81.4-73.1c43.6-39.2,87.3-78.3,130.9-117.6
		c5.9-5.3,12.3-7.8,20.1-5.6c3.8,1.1,6.8,3.5,9.6,6c51,45.9,102.1,91.8,153.1,137.6c19.8,17.8,39.6,35.6,59.5,53.4
		C534.4,311.3,537,316.2,537,323.9z"/>
	<path class="st1" d="M143.1,228.3c0-27.2-0.2-54,0.1-80.8c0.1-10.9,8.5-19.2,19.5-19.5c12.5-0.3,25-0.2,37.5,0
		c8.2,0.1,15.3,5.8,17.8,13.7c1.9,5.9,0.8,11.9,0.9,17.9c0,1.5-1.1,2.4-2.1,3.2c-24,21.6-48,43.2-72,64.8
		C144.4,228,144,228,143.1,228.3z"/>
	<path class="st2" d="M478.4,334.9c0-4.1-1.5-6.7-4.4-9.3c-55.8-50-111.6-100.1-167.2-150.2c-3.7-3.3-5.9-3.5-9.7,0
		c-18.7,17.3-37.7,34.3-56.7,51.3c-37.2,33.4-74.4,66.8-111.6,100.1c-2.2,2-3,4-3,6.9c0.1,78.5,0.1,157-0.1,235.4
		c0,4.5,1.1,5.8,5.8,5.8c56.6-0.2,113.3-0.1,169.9-0.1c57,0,114-0.1,171,0.1c5,0,5.9-1.4,5.9-6.1
		C478.2,490.9,478.2,412.9,478.4,334.9z M340.6,342.9c9.6,0.7,19.3-0.8,28.9,1.1c11.6,2.3,18.1,10.4,17.6,21.8
		c-0.3,6.7-4.5,10.7-10.5,14.2c10.2,4,12,11.8,11.5,20.9c-0.3,4.4,0.7,8.5,4,12.9c-5.3,0-9.7-0.3-14,0.1c-3.7,0.3-5.3-1.6-5.7-4.7
		c-0.4-3.5-0.4-7-0.5-10.5c-0.3-10.1-8.7-15.6-18.2-11.9c-2,0.8-1.5,2.4-1.5,3.8c-0.1,6.5-0.1,13,0,19.5c0.1,2.8-0.8,3.7-3.7,3.8
		c-12.6,0.4-12.6,0.5-12.6-11.9c0-18.2,0.1-36.3-0.1-54.5C335.9,344.1,336.7,342.7,340.6,342.9z M223.9,502c-2.6,0-3.4-1.8-3.9-3.8
		c-1.1-4.1-1-8.2-1-12.4c-0.1-7.8-3.1-10.9-11-10.9c-9.8,0-7.9-1.2-8.1,8.1c-0.1,5.2-0.1,10.3,0,15.5c0.1,2.5-0.7,3.4-3.4,3.5
		c-13.4,0.6-13.3,0.7-13.3-12.5c0-17.6,0.2-35.3-0.2-52.9c-0.1-4.8,1.5-5.9,5.9-5.6c10.4,0.7,21-1.3,31.2,2
		c10.9,3.5,16.9,14.3,13.6,24.7c-1.6,4.9-5.6,7.6-9.9,10.7c8.2,2.9,11.1,8.6,11.4,16.6c0.2,5.5-0.7,11.4,4.1,17
		C233.7,502,228.8,502,223.9,502z M231.5,385.1c-2.9-0.1-3.7,1-3.7,3.8c0.1,6.8-0.1,13.6,0.1,20.5c0.1,3.3-0.6,4.7-4.3,4.7
		c-12.4,0-12.4,0.1-12.4-12.5c0-4,0-8,0-12c0-3.8,0-7.7,0-11.5c0-10.3,0.1-20.6-0.1-30.9c-0.1-3.3,1-4.2,4.3-4.2
		c13.1,0.2,26.3,0.1,39.4,0c3,0,4.4,0.8,4,3.9c-0.2,1.5-0.2,3,0,4.5c0.4,3.6-1.2,4.6-4.6,4.5c-7.3-0.2-14.6,0.1-22-0.1
		c-3.6-0.1-4.4,1.2-4.4,4.6c-0.1,12.6-0.2,12.6,12.4,12.5c2.2,0,4.3-0.1,6.5,0c8.3,0,6.7-0.5,7.1,6.8c0.3,4.3-0.8,6-5.4,5.6
		C242.8,384.8,237.1,385.3,231.5,385.1z M284.2,502c-11,0-22-0.2-33,0c-3.6,0.1-4.5-1.2-4.4-4.6c0.2-10.2,0.1-20.3,0.1-30.5
		c0-10.7,0.1-21.3-0.1-32c0-3,0.9-4,4-4c12.8,0.1,25.7,0.2,38.5,0c3.2,0,3.8,1.2,3.8,4.1c0,8.7,0.1,8.8-8.6,8.8c-6,0-12,0.1-18-0.1
		c-2.5-0.1-3.4,0.9-3.5,3.5c-0.7,11.8-0.7,11.8,10.8,11.7c3.5,0,7,0.1,10.5-0.1c3.2-0.2,3.9,1.1,3.9,4c0,8.8,0.1,8.8-8.6,8.8
		c-4.3,0-8.7,0.1-13,0c-2.6-0.1-3.4,0.8-3.5,3.4c-0.7,13.9-0.8,13.9,12.9,14c4.5,0,9,0.1,13.5,0c2.4-0.1,3.5,0.6,3.6,3.3
		C293.6,502,293.8,502,284.2,502z M292.3,414.9c-15.1-1.4-26.1-13.1-26.4-28.1c-0.1-2.7,0-5.3,0-8c0.1-5.5-0.5-10.9,1.1-16.3
		c3.9-13.3,16-21.3,31.1-20.4c13.9,0.8,24.8,10.4,27,23.7c1.4,8.9,1.6,17.9-0.2,26.8C321.8,407.3,308.4,416.3,292.3,414.9z
		 M361.7,497.8c0.1,3.3-1,4-4.2,4.3c-8.8,1-14.5-1.4-18.6-10.3c-5.3-11.5-12.6-22.2-20-33c0,11.9,0,23.7,0,35.6
		c0,7.5,0.1,7.5-7.2,7.5c-9.4,0-9.1,0-9.1-9.8c0.1-16.8-0.1-33.6-0.4-50.3c-0.2-10.7-0.4-10.4,10-10.8c4.8-0.2,7.5,1.2,9.8,5.5
		c7,12.8,14.6,25.3,21.9,37.9c0.3-0.1,0.7-0.2,1-0.3c0-12.8,0.1-25.6-0.1-38.4c0-3.4,0.7-5.1,4.4-4.5c0.7,0.1,1.3,0,2,0
		c10.6,0,10.7,0,10.4,10.9C361.2,460.6,361.3,479.2,361.7,497.8z M420.9,439.6c0.5,3.5-0.9,4.8-4.4,4.4c-3-0.3-6,0.1-9-0.2
		c-4.2-0.4-5.9,0.7-5.7,5.4c0.4,8,0.1,16,0.1,24c0,0,0,0,0,0c0,8.2-0.1,16.3,0.1,24.5c0.1,3-0.5,4.4-4,4.4
		c-12.4,0.1-12.3,0.2-12.3-12.1c0.1-14-0.1-28,0.1-42c0-3.4-1.2-4.3-4.3-4.1c-3.7,0.2-7.3-0.1-11,0.1c-2.6,0.1-3.4-0.8-3.5-3.4
		c-0.5-9.4-0.6-9.4,9-9.4c13.3,0,26.7,0.2,40-0.1c4-0.1,5.5,1.2,4.9,5.1C420.8,437.2,420.8,438.4,420.9,439.6z"/>
	<path class="st1" d="M199.9,452.7c0-9.5,0-9.5,9.5-8.7c5.6,0.5,8.9,4.2,8.8,9.9c-0.1,5.2-3.2,8.1-9,8.3
		C199.9,462.6,199.9,462.6,199.9,452.7z"/>
	<path class="st3" d="M352.1,364.2c1.4-2.6-3.5-8.8,4.8-8.5c9.6,0.3,14,3,13.9,9.5c-0.1,5.9-3.8,8.8-11.8,8.9
		C352.2,374.1,352.2,374.1,352.1,364.2z"/>
	<path class="st1" d="M309.1,378.4c0,3,0.1,6,0,9c-0.5,9-5.5,14.5-13.1,14.7c-7.5,0.1-13.3-5.4-13.9-14c-0.5-6.5-0.5-13,0-19.4
		c0.6-9,6.3-14.1,14.4-13.9c7.1,0.2,12.1,6,12.5,14.7C309.3,372.4,309.1,375.4,309.1,378.4z"/>
</g>
</svg>
