<?xml version="1.0" encoding="utf-8"?>
<!-- Generator: Adobe Illustrator 19.0.0, SVG Export Plug-In . SVG Version: 6.00 Build 0)  -->
<svg version="1.1" id="Calque_1" xmlns="http://www.w3.org/2000/svg" xmlns:xlink="http://www.w3.org/1999/xlink" x="0px" y="0px"
	 viewBox="0 0 612 792" style="enable-background:new 0 0 612 792;" xml:space="preserve">
<style type="text/css">
	.st0{fill:#A7A7A8;}
	.st1{fill:#E52E29;}
	.st2{fill:#349FD7;}
	.st3{fill:#F1AE1C;}
</style>
<g>
	<path class="st0" d="M297,600.1c78.1,0,156.3,0,234.4,0c7,0,11.7,3.3,12.6,8.9c1.2,7.6-3.6,12.9-12,12.9c-25.7,0-51.3,0-77,0
		c-130.1,0-260.3,0-390.4-0.1c-2,0-4-0.1-6-0.4c-6.3-1.2-9.5-5.6-8.9-12.3c0.5-5.2,4.8-9,10.7-9c19-0.1,38-0.1,57-0.1
		C177.4,600,237.2,600,297,600.1C297,600.1,297,600.1,297,600.1z"/>
	<path class="st0" d="M296.9,558.9c63.5,0,126.9,0,190.4,0c7.3,0,12.3,4.1,12.5,10.1c0.2,6.6-4.9,11.1-12.7,11.1
		c-126.8,0-253.5,0-380.3,0c-6.9,0-10.1-2.2-12-7.6c-1.6-4.8,0-8.4,3.6-11.5c2.2-1.9,4.8-2,7.5-2c44.8,0,89.6,0,134.4,0
		C259.3,558.8,278.1,558.8,296.9,558.9C296.9,558.8,296.9,558.9,296.9,558.9z"/>
	<path class="st0" d="M538.7,251.4c-14.7-7.9-29.3-15.7-43.9-23.7c-31.9-17.2-63.8-34.5-95.7-51.8c-31.7-17.2-63.5-34.4-95.2-51.6
		c-4.4-2.4-8.6-2.7-13.2-0.2c-30.2,16.5-60.5,32.9-90.8,49.2c-48.2,26-96.3,52-144.5,78c-1.8,1-3.5,2-4.9,3.4
		c-5.4,5.7-3.5,14.3,3.8,17.1c3.2,1.2,6.6,1,9.9,1c77.6,0,155.3,0,232.9,0c0,0,0,0,0-0.1c78.8,0,157.6,0,236.4,0
		c7.4,0,11.3-2.6,12.9-8.5C547.7,259.2,545.2,254.9,538.7,251.4z M101.7,250.8c13.4-7.3,25.6-14,37.8-20.6
		c45.2-24.4,90.5-48.9,135.7-73.3c6.4-3.5,13-6.8,19.3-10.4c1.9-1.1,3.1-1,4.9,0c37,20.1,74,40.1,111,60.1
		c26.2,14.2,52.4,28.3,78.6,42.4c0.7,0.4,1.4,0.8,2.9,1.8C361.7,250.8,232.4,250.8,101.7,250.8z"/>
	<path class="st1" d="M209.7,294.6c0-3.6-0.8-4.8-4.6-4.8c-21.7,0.2-43.3,0.2-65,0c-4.1,0-5.3,0.9-5.2,5.1
		c0.2,40.6,0.1,81.3,0.1,122c0,40.8,0,81.6-0.1,122.5c0,3.3,0.6,4.6,4.3,4.6c22-0.2,44-0.2,66,0c4.1,0,4.5-1.5,4.5-4.9
		C209.6,457.5,209.6,376,209.7,294.6z M188.1,446.2c0,23.8-0.1,47.6,0.1,71.5c0,3.6-0.7,4.9-4.6,4.8c-7.3-0.3-14.7-0.4-22,0
		c-4.3,0.2-5.6-1-5.6-5.5c0.2-33.6,0.1-67.3,0.1-101c0-33.3,0.1-66.6-0.1-100c0-3.9,0.9-5.2,4.9-5c7.3,0.3,14.7,0.3,22,0
		c4.1-0.2,5.3,1,5.3,5.2C188.1,359.5,188.1,402.9,188.1,446.2z"/>
	<path class="st2" d="M459.1,417C459.1,417,459.1,417,459.1,417c0-40.8-0.1-81.6,0-122.4c0-3.7-0.8-4.8-4.7-4.8
		c-19.7,0.2-39.3,0.1-59,0.1c-11.2,0-11.2,0-11.2,11c0,79.1,0,158.2-0.1,237.3c0,4.3,1,5.7,5.5,5.7c21.3-0.2,42.6-0.2,64,0
		c4.4,0.1,5.5-1.2,5.5-5.6C459,498,459.1,457.5,459.1,417z M432.9,522.3c-7.5-0.3-15-0.3-22.5,0c-3.9,0.2-4.6-1.3-4.6-4.9
		c0.1-33.5,0.1-67,0.1-100.5c0-33.5,0.1-67-0.1-100.5c0-4.4,1.1-5.8,5.5-5.5c7.5,0.4,15,0.3,22.5,0c3.4-0.1,4.2,1.1,4.2,4.3
		c-0.1,47-0.1,94-0.1,141c0,20.3-0.1,40.7,0.1,61C438,521.2,436.8,522.4,432.9,522.3z"/>
	<path class="st3" d="M334.2,417c0-40.8-0.1-81.6,0.1-122.4c0-3.7-0.9-4.8-4.7-4.8c-21.7,0.2-43.3,0.2-65,0c-3.9,0-5,1.1-5,5
		c0.1,81.4,0.1,162.9,0,244.3c0,3.7,1,4.8,4.7,4.8c21.7-0.2,43.3-0.2,65,0c4,0,4.9-1.2,4.9-5C334.2,498.3,334.2,457.6,334.2,417z
		 M308.1,522.4c-7.5-0.3-15-0.3-22.5,0c-3.8,0.2-4.7-1-4.7-4.7c0.1-52.6,0.1-105.3,0.1-157.9c0-14.8,0.1-29.7-0.1-44.5
		c0-3.3,1-4.2,4.2-4.1c7.7,0.2,15.3,0.3,23,0c4-0.2,4.9,1.1,4.9,5c-0.1,33.5-0.1,67-0.1,100.5c0,33.7-0.1,67.3,0.1,101
		C313.1,521.4,311.9,522.5,308.1,522.4z"/>
</g>
</svg>
