<?xml version="1.0" encoding="utf-8"?>
<!-- Generator: Adobe Illustrator 19.0.0, SVG Export Plug-In . SVG Version: 6.00 Build 0)  -->
<svg version="1.1" id="Calque_1" xmlns="http://www.w3.org/2000/svg" xmlns:xlink="http://www.w3.org/1999/xlink" x="0px" y="0px"
	 viewBox="0 0 612 792" style="enable-background:new 0 0 612 792;" xml:space="preserve">
<style type="text/css">
	.st0{fill:#FD9000;}
	.st1{fill:#FDAF00;}
	.st2{fill:#11C0A2;}
	.st3{fill:#08A498;}
	.st4{fill:#E8186C;}
	.st5{fill:#D00D54;}
	.st6{fill:#09A497;}
	.st7{fill:#E8186D;}
	.st8{fill:#13C0A3;}
	.st9{fill:#13BEA1;}
	.st10{fill:#12C0A3;}
	.st11{fill:#CA0F51;}
	.st12{fill:#18C0A4;}
	.st13{fill:#18C1A4;}
	.st14{fill:#15C0A3;}
	.st15{fill:#BB0F45;}
	.st16{fill:#CF0D54;}
	.st17{fill:#BB1045;}
	.st18{fill:#208FBB;}
	.st19{fill:#46B2D9;}
	.st20{fill:#46B3D9;}
	.st21{fill:#228CB7;}
	.st22{fill:#12BFA1;}
</style>
<g>
	<path class="st0" d="M482.2,396.1c0,80.6,0,161.1,0,241.7c-5.6,3.3-11.6,1.3-17.5,1.4c-7.3-2.7-11.8-9-17.4-13.8
		c-15.8-13.5-31.1-27.4-46.8-41c-7.1-6.2-14.1-12.6-21.2-18.9c-1.7-1.5-3.5-3.1-4.4-5.4c-0.2-0.6-0.3-1.1-0.4-1.7
		c-0.4-17.1-0.1-34.2-0.2-51.3c0-1.8,0-3.7,0-5.5c-0.1-7.1-1.9-8.9-8.9-9c-12.8-0.1-25.6,0-38.4-0.1c-9.6,0-19.3,0.2-28.9-0.2
		c-0.8,0-1.7-0.1-2.5-0.4c-15-13.5-30.2-26.9-45.4-40.2c-15.2-13.4-30.3-26.8-45.6-40.2c-4.5-3.9-9.1-7.7-13.3-12
		c-1.5-1.5-3.2-3.6,0.5-4.7c1.8-0.4,3.7-0.4,5.5-0.4c34.5,0,68.9,0,103.4,0c1.7,0,3.3,0,5,0.3c1.6,0.1,2.5,1.9,4.2,1.8
		c3.2-0.5,6.1-2.1,9.4-1.9c24-0.4,48.1-0.3,72.1-0.1c10.5,1.2,20.9,3.2,31.7,3.1c10.2-0.1,20.1-2.1,30.2-3.1
		c7.4,0.1,14.9-0.4,22.3-0.1C478,394.5,480.4,394.1,482.2,396.1z"/>
	<path class="st1" d="M190,396.2c7,7.8,15.5,14,23.1,21.2c7.2,6.8,14.9,13.1,22.4,19.7c13.2,11.6,26.4,23.1,39.6,34.7
		c6.1,5.4,12.2,10.8,18.2,16.2c0.9,0.8,1.6,1.7,1.6,3c-4.5,5.6-4.4,12.2-4.4,18.9c0.1,40,0.1,79.9,0,119.9c0,2.9,0.5,6-1.4,8.7
		c-2.2,1.6-4.8,1.3-7.2,1.3c-30.4,0-60.8,0-91.2,0c-2.6,0-5.4,0.5-7.5-1.8c0-80.6,0-161.1,0-241.7c1-1.3,2.4-1.3,3.8-1.4
		C188.2,394.9,189.3,395.1,190,396.2z"/>
	<path class="st2" d="M309,397.9c-2,0.5-1.7-0.5-1.2-1.8c-1.1-2.2,0.1-4.2,0.8-6.2c4-12.3,7.9-24.6,12.3-36.8
		c1.9-5.2,1.8-9.6-1.6-14c-1.3-1.7-2.1-3.8-3-5.7c-0.9-2.9-2.4-5.6-3.6-8.4c-2.1-5.9-3.8-11.9-5-18.1c-0.4-1.9-0.9-3.9,0.1-5.8
		c-3.6-28.7,1.5-55.7,17.3-80.2c39.7-61.9,129.2-71.4,179.1-18.9c-0.3,1.8-1.7,2.8-2.8,4c-14.4,14.5-28.9,28.9-43.4,43.3
		c-1.4,1.3-2.6,4.2-5.5,2.2c-0.4-2.1,0.6-3.9,1.1-5.8c2-6.8,1-8.8-5.7-11.3c-3-1.1-5.9-2.4-9.1-2.7c-3.7-0.4-5-2.4-5.1-6
		c-0.3-8.8-0.9-9.2-9.6-9.2c-0.5,0-1,0-1.5,0c-10,0-10.6,0.5-11.2,10.6c-0.2,3.9-2.2,5.9-5.5,7.4c-7.9,3.6-13.9,9.1-16.8,17.4
		c-4.4,14-0.5,25.4,11.4,33.9c3.6,2.6,8,4,11.5,6.8c0.8,1.2,0.2,2.3-0.6,3.1c-3.6,3.8-6.9,8-11.4,10.8c-8.6-0.9-8.6-0.9-11,7.7
		c-0.6,2.1-1.2,4.1-2.3,6c-11.8,12-23.6,24-33.8,37.3c-11.7,15.3-27.3,26.1-41.3,38.9C310.8,397,309.9,397.4,309,397.9z"/>
	<path class="st3" d="M453.2,252c15.5-15.4,31-30.8,46.5-46.2c1.4-1.4,3-2.6,4.4-3.9c17,16.2,27.6,36.1,31.7,59
		c7.5,41-3.6,76.5-33.1,106.1c-0.6,0.6-1.1,1.2-1.6,1.9c-1.6,4.4-5.9,6.2-9.1,8.8c-3.6,2.9-7.6,5.4-11.6,7.7
		c-8.7,5.1-17.7,9.3-27.8,10.5c-13.1,2.8-26.4,4.2-39.9,3.2c-7-0.5-13.6-2.3-20.5-3.2c-9.7-1.2-18.5-5-26.8-9.9
		c-3.7-2.2-6.9-2.3-10.8-1c-12.1,4.1-24,8.5-36.6,10.9c-3.2,0-5.8,2.4-9,2c6.3-7.3,13.9-13.3,21.3-19.2c9.3-7.4,17-16.1,24.4-25.2
		c9.6-11.9,19.9-23.1,31.1-33.4c0.1,0.1,0.4,0.2,0.4,0.3c-0.6,8.4,5.6,10.3,11.7,12.3c1.1,0.4,2.2,0.7,3.4,1c9,2.3,9,2.3,10.2,11.7
		c0.4,3.4,2.2,5.1,5.6,5.2c3.2,0.1,6.3,0.1,9.5,0c3.8-0.2,5.8-2.1,6.1-5.9c0.1-1.2,0.2-2.3,0.1-3.5c-0.4-4.6,1.2-7.4,5.8-9.1
		c6.9-2.5,12.2-7.4,16.2-13.6c8.3-15.9,4-32-10.9-41.8c-3-2-6.9-2.8-9-6c2-5,6.4-7.8,10.2-11.2C449.5,259,450.5,254.5,453.2,252z"/>
	<path class="st4" d="M289.1,638c0.1-39.1,0.1-78.1,0.2-117.2c0-6.8,0.1-13.6,0-20.4c0-4.4,1.4-7.8,5.7-9.5c0.7,0,1.3,0.1,2,0.1
		c5.6,1.9,9,6.7,13.2,10.3c20.1,17.6,40,35.4,60.1,52.9c2,1.7,3.9,3.6,5.5,5.8c0.1,0.3,0.2,0.7,0.3,1c1,1.8,1.5,3.7,1.5,5.7
		c0,23.6,0.2,47.2-0.1,70.9c-0.1,3.5,1,7.2-1.6,10.4c-28.8,0-57.7,0-86.5,0C286.4,644.8,287,641.4,289.1,638z"/>
	<path class="st3" d="M126,622c0,7.2-0.2,14.3,0,21.5c0.1,3.4-0.9,4.8-4.5,4.8c-7.2-0.2-14.3-0.1-21.5,0c-3,0-4.1-1.1-4.1-4.2
		c0.1-6.3-0.1-12.6,0.1-19c0.1-2.6-0.8-3.5-3.4-3.4c-4.5,0.2-9,0.2-13.5,0c-2.8-0.1-3.3,1-3.3,3.5c0.1,6.3-0.1,12.7,0.1,19
		c0.1,3.1-1.1,4.1-4.1,4c-7.2-0.1-14.3-0.1-21.5,0c-3.3,0.1-4.5-1.2-4.4-4.4c0.1-6,0-12,0-18c0-2,0.2-3.6-2.5-4.5
		c-2.5-0.8-2.5-5.4,0.1-6.2c2.1-0.7,2.5-1.6,2.5-3.5c-0.1-14.1-0.2-28.3-0.3-42.4c-0.2-0.3-0.5-0.6-0.5-0.9
		c0.6-6.5-0.3-13.4,3.8-19.2c2.3-3.3,5-6.2,7.6-9.2c3-3.4,4.8-3.5,7.9-0.4c4.2,4,8.2,8.3,11,13.4c0.1,3,0.1,6,0.2,9
		c1.9,2.1,1.4,4.7,1.5,7.2c0.3,12.4,0,24.9,0.1,37.3c0,6.5,0.3,6.8,6.6,6.8c10.9,0,10.1,0.9,10.2-10.3c0.1-11.3-0.2-22.6,0.1-33.9
		c0-2.5-0.4-5.1,1.5-7.2l0,0c-1.2-9.6,5-15.6,10.7-21.9c3.2-3.5,5.1-3.8,8.3-0.3c4,4.4,8.7,8.3,10.8,14.1c0.1,2.7,0.1,5.4,0.2,8
		c1.9,2.2,1.4,4.8,1.4,7.4c0.2,15.1,0.2,30.2,0,45.2C127.5,617.2,127.9,619.8,126,622z"/>
	<path class="st4" d="M307.8,301c1.5,8.1,3.8,16.1,6.2,24c-0.8,2.1-2.7,2.8-4.5,3.7c-25.7,11.8-51.1,24.2-76.7,36
		c-13.9,6.4-27.7,13-41.4,19.6c-6.3,3-12.8,5.7-19,8.9c-1.1,0.6-2.7,0.8-2.4,2.6c-9.7,0-19.3,0-29,0c-4,0-7.3-1.5-8.1-5.8
		c-0.9-4.5,1.4-7.1,5.3-9c34-16,68-32,101.9-48C262.7,322.3,285.2,311.7,307.8,301z"/>
	<path class="st3" d="M289.1,638c0.1,3.3,0.2,6.7,0.3,10c-37,0-74,0.1-111,0.1c-9.2,0-18.3-0.1-27.5,0.1c-4,0.1-5.2-1.3-5.1-5.2
		c0.3-7,0.1-14,0-21c-1.8-2.2-1.4-4.8-1.4-7.4c-0.2-15.1-0.2-30.2,0-45.3c0-2.6-0.4-5.2,1.4-7.4c0.1-2.7,0.2-5.4,0.2-8
		c2.5-6.5,7.8-10.9,12.5-15.6c1.7-1.7,3.8-1,5.3,0.6c3.4,3.8,7,7.5,10.1,11.6c2.6,3.5,0.6,7.8,1.8,11.5c1.5,1,4.3,0.1,4.3,3.2
		c0,2.2-0.2,3.9-2.9,4.3c-1.9,0.3-1.3,2.1-1.3,3.3c0,13,0,25.9,0,38.9c0,1.4-0.2,2.6,1.9,3.4c3.2,1.1,3.3,5.3,0.2,6.5
		c-2.3,0.8-2.1,2.1-2.1,3.7c0,2,0,4,0,6c0,7,0,7,7.3,6.6C218.5,637.9,253.8,637.9,289.1,638z"/>
	<path class="st5" d="M169.9,395.8c-0.9-0.8-3.6-1.2-0.3-2.7c8.2-3.7,16.2-7.8,24.3-11.6c13.8-6.5,27.8-12.8,41.6-19.4
		c26.2-12.3,52.3-24.8,78.4-37.2c1.1,2.6,2.2,5.1,3.2,7.7c0.2,3.2-2.7,3.4-4.6,4.4c-16.5,8.4-33.3,15.9-50,23.7
		c-23.2,10.8-46.2,22.2-69.5,32.7c-2,0.9-4.1,1.5-6,2.4c-1.3,0.1-2.5,0.2-3.8,0.3C178.8,396,174.4,395.9,169.9,395.8z"/>
	<path class="st6" d="M375.9,648c0.1-3.3,0.1-6.7,0.2-10c1.7-1.7,4-1.6,6.1-1.6c24.5-0.1,49,0,73.5,0c2.5,0,5,0.5,7.3,1.5
		c6.4,0,12.8,0,19.3,0c3,0.1,6,0.2,9,0.1c3.7,0,6.4,1.4,6.3,5.4c-0.1,3.7-2.8,4.8-6.3,4.8c-17.5,0-34.9,0.1-52.4,0
		C417.8,648.2,396.9,648.1,375.9,648z"/>
	<path class="st7" d="M480,384.3c7.5-4.6,14.5-9.8,21.2-15.5c8.7,4.1,17.5,8.2,26.2,12.2c3.9,1.8,6.4,4.5,5.4,9
		c-1,4.4-4.5,5.9-8.7,5.8c-11,0-22,0-33,0c0.2-2.1,2-1.7,3.9-2.1c-4.6-1.7-8.6-3.4-12.4-5.6C481.3,387.3,478.9,386.9,480,384.3z"/>
	<path class="st8" d="M75.8,553c-5-3.5-7.9-8.9-12.2-13c-2.1-2-3.5-2-5.3,0.2c-3.5,4.2-7.9,7.9-10.2,12.7
		c-2.4,4.9-1.8,10.9-2.3,16.5c-1.9,0-3.8,0.1-3.9-2.6c-0.1-1.9-0.3-3.9,2.2-4.3c1.8-0.3,2-1.4,2-2.8c0-0.3,0.1-0.7,0-1
		c-2-12.3,3.9-21.1,12.1-29.2c2.3-2.3,3.8-2.7,5.9,0c2,2.6,4.1,5.3,6.5,7.5C75.5,541.3,77.1,546.7,75.8,553z"/>
	<path class="st9" d="M125.8,554c-4-4.6-8.1-9.1-12.1-13.8c-2.1-2.5-3.7-2.1-5.6,0.2c-3.3,4.1-6.7,8.2-10.1,12.2
		c-2.4,2.8,0.4,6.6-1.9,9.5c0-0.5,0-1,0-1.5c-0.1-18,0-17.9,12.1-31.1c2.3-2.5,3.8-2.6,5.9,0c3.4,4.1,6.9,8.1,10.3,12.1
		C127.4,545.3,125.4,549.8,125.8,554z"/>
	<path class="st10" d="M175.9,562c-1.9-2.5,0.1-5.7-1.2-8.1c-3.1-5.8-8.1-10-12.3-14.9c-1.4-1.7-2.7-0.3-3.7,0.8
		c-4.2,4.7-8.3,9.4-12.5,14.1c-2.9-12.4,7.1-18.2,13.2-26c1-1.3,2.4-0.8,3.4,0.4c4.1,4.8,8.2,9.6,12.2,14.4c0.9,1.1,0.7,2.5,0.7,3.8
		C175.8,551.7,175.9,556.9,175.9,562z"/>
	<path class="st11" d="M480,384.3c2.8,3.8,7.4,4.5,11.2,6.6c2,1.1,4.1,1.9,6.5,3c-2.2,2.2-5,0.1-6.6,1.9c-3,0.1-5.9,0.2-8.9,0.3
		c-9.9-0.1-19.7-0.2-29.6-0.3C462,392.6,471.3,389.1,480,384.3z"/>
	<path class="st12" d="M76.2,569.4c-0.1-2.5-0.2-4.9-0.2-7.4c6.7,0.4,13.4,0.5,20,0c-0.1,2.4-0.2,4.9-0.2,7.3
		C89.3,571.3,82.8,571.2,76.2,569.4z"/>
	<path class="st13" d="M146,562c-0.1,2.5-0.1,4.9-0.2,7.4c-6.5,1.9-13.1,1.9-19.6,0c-0.1-2.4-0.1-4.9-0.2-7.3
		C132.7,562.6,139.3,562.5,146,562z"/>
	<path class="st14" d="M145.9,614.8c0,2.4,0,4.8,0.1,7.3c-6.6,0-13.3,0-19.9,0c0-2.4,0.1-4.8,0.1-7.3
		C132.7,612.6,139.3,612.6,145.9,614.8z"/>
	<path class="st15" d="M187,395.8c4.6-4.3,10.7-5.8,16.2-8.5c11.4-5.4,22.8-10.8,34.2-16.2c25.2-11.9,50.5-23.9,75.7-35.8
		c1.5-0.7,3.2-1.1,4.1-2.7c2,3.6,3.9,7.2,6.1,10.8c1.3,2.2,0.7,4,0,6.1c-5.2,15.5-10.4,31-15.5,46.5c-39.3,0-78.5,0.1-117.8,0.1
		C189,396.1,188,396,187,395.8z"/>
	<path class="st1" d="M463,637.8c-29,0.1-57.9,0.1-86.9,0.2c0-25.7,0-51.3,0-77c10.4,9.2,20.7,18.5,31.1,27.7
		c12.7,11.1,25.4,22.1,38.1,33.2C451.3,627.1,457.1,632.5,463,637.8z"/>
	<path class="st16" d="M375.8,560c-4.6-2.1-7.7-6.1-11.5-9.3c-12.8-11-25.3-22.5-37.9-33.7c-9.8-8.7-19.6-17.3-29.4-26
		c23.8-0.1,47.5-0.1,71.3-0.1c4.7,0,7.7,2.9,7.7,7.3C376,518.8,375.9,539.4,375.8,560z"/>
	<path class="st17" d="M318,395.8c13.5-4.5,27-9,40.5-13.5c1.3-0.4,2.5-0.4,3.8,0.4c9.3,5.8,19.6,9.6,29.9,13.1
		C367.5,395.8,342.7,395.8,318,395.8z"/>
	<path class="st18" d="M252.4,510c-9.5,0-9.5,0-9.5-9.6c0-9.9,0-9.9,10.1-9.7c6.9,0.1,9.1,2.3,9.2,9.4
		C262.4,510,262.4,510,252.4,510z"/>
	<path class="st18" d="M237.3,525.2c0,9.9,0,9.9-10,9.8c-6.8-0.1-9.3-2.6-9.3-9.2c-0.1-10.1-0.1-10.1,10.2-10.1
		C237.3,515.7,237.3,515.7,237.3,525.2z"/>
	<path class="st19" d="M229,509.8c-11.4,0.6-13.4-1.7-10.8-13c0.8-3.6,3.1-5.8,7-6c0.5,0,1,0,1.5,0c11.2-0.2,11.2-0.2,10.3,11.1
		C235.1,505.3,232.7,508.2,229,509.8z"/>
	<path class="st20" d="M253.1,515.9c9.1-0.7,9.1-0.7,9.1,8.4c0,8.5-2.1,10.6-10.5,10.6c-9,0-9,0-8.5-8.9
		C245.4,521.6,249,518.5,253.1,515.9z"/>
	<path class="st21" d="M253.1,515.9c-2.9,3.8-6.3,7-9.9,10.1c0-0.2-0.1-0.3-0.1-0.5C243.2,514,240.5,515.6,253.1,515.9z"/>
	<path class="st18" d="M229,509.8c2.4-2.9,4.9-5.7,8-7.9C237.6,511.8,238.3,510,229,509.8z"/>
	<path class="st0" d="M434.7,270.2c4.2,2.5,8.8,4.4,12.8,7.5c12.9,9.9,16.4,27.2,8.2,41.4c-2.3,1.3-3.4-0.6-4.6-1.8
		c-20.5-20.4-40.9-40.8-61.3-61.2c-1.1-1.1-2.5-2.3-2-4.2c2.8-9.6,9.6-15.4,18.4-18.9c3.2-1.3,4.4-2.9,4-6.2c-0.2-2-0.2-4,0.1-6
		c0.6-3.5,2.6-5.7,6.4-5.7c3.8,0,7.7,0,11.5,0c4.5,0,6.7,2.4,6.7,6.8c0,1.2,0.1,2.3,0,3.5c-0.4,3.2,0.5,4.6,4.1,4.9
		c4.2,0.4,8.3,2.1,12.3,3.9c4.3,1.9,5.5,4.9,4.1,9.3c-0.9,2.8-1.6,5.7-2.4,8.6c-1.4,4.1-2.3,8.7-8.2,8.3c-2.5,0.9-4.5-0.7-6.6-1.4
		c-4.6-1.4-9.2-2.9-14-2.4c-2.1,0.2-4.6,0.6-5.2,3c-0.5,2.4,2,3.1,3.5,4.2C426.3,266.5,431.4,266.7,434.7,270.2z"/>
	<path class="st1" d="M387.9,251.7c1.1,1.3,2,2.6,3.2,3.8c20.1,20.1,40.2,40.2,60.3,60.3c1.3,1.3,2.3,3,4.3,3.2
		c-4.1,7.3-10.4,12-18.1,14.8c-2.8,1-3.7,2.3-3.7,5.2c0.1,13-0.1,13-13,12.9c-1.7,0-3.3,0-5,0c-4-0.2-6.1-2.3-6.1-6.3
		c0-1.7-0.2-3.4,0-5c0.5-3.4-1.2-4.3-4.1-4.7c-5-0.6-9.7-2.2-14.2-4.3c-6.5-3.1-7.2-4.7-5.7-11.7c0.9-2.8,1.7-5.6,2.6-8.4
		c2.2-7.5,4.4-8.6,11.7-5.6c4.7,0.1,8.7,2.9,13.4,3.4c3.3,0.3,6.6,0.7,9.8-0.3c1.9-0.6,3.7-1.7,4.1-3.9c0.4-2.3-1.2-3.7-2.9-4.8
		c-2.5-1.6-5.2-2.8-8-4c-1.7-0.7-3.4-1.3-4.4-3c-5.1-2.4-10.2-4.8-14.6-8.3C386.9,276.7,383.4,264.6,387.9,251.7z"/>
	<path class="st6" d="M411.9,293.4c4.7,1.6,9.4,3.2,13.6,6c2.1,1.4,3.9,3.2,3.4,6.1c-0.5,2.9-2.6,4.2-5.1,4.8
		c-8.5,2-16.4-0.2-23.8-4.3C404,301.8,407.9,297.6,411.9,293.4z"/>
	<path class="st22" d="M434.7,270.2c-5.5-1.4-10.6-3.8-15.4-6.8c-1.5-0.9-2.7-2-2.4-4c0.3-2.2,1.7-3,3.6-3.5
		c6.1-1.9,11.8-0.1,17.5,1.7c2.4,0.7,4.6,1.9,6.9,2.8C441.7,263.8,438.6,267.4,434.7,270.2z"/>
</g>
</svg>
