<?xml version="1.0" encoding="utf-8"?>
<!-- Generator: Adobe Illustrator 19.0.0, SVG Export Plug-In . SVG Version: 6.00 Build 0)  -->
<svg version="1.1" id="Calque_1" xmlns="http://www.w3.org/2000/svg" xmlns:xlink="http://www.w3.org/1999/xlink" x="0px" y="0px"
	 viewBox="0 0 612 792" style="enable-background:new 0 0 612 792;" xml:space="preserve">
<style type="text/css">
	.st0{fill:#FD9000;}
	.st1{fill:#FDAF00;}
	.st2{fill:#11C0A2;}
	.st3{fill:#08A498;}
	.st4{fill:#E8186C;}
	.st5{fill:#D00D54;}
	.st6{fill:#09A497;}
	.st7{fill:#E8186D;}
	.st8{fill:#13C0A3;}
	.st9{fill:#13BEA1;}
	.st10{fill:#12C0A3;}
	.st11{fill:#CA0F51;}
	.st12{fill:#18C0A4;}
	.st13{fill:#18C1A4;}
	.st14{fill:#15C0A3;}
	.st15{fill:#BB0F45;}
	.st16{fill:#CF0D54;}
	.st17{fill:#BB1045;}
	.st18{fill:#208FBB;}
	.st19{fill:#46B2D9;}
	.st20{fill:#46B3D9;}
	.st21{fill:#228CB7;}
	.st22{fill:#FDAF01;}
	.st23{fill:#F78E02;}
	.st24{fill:#F7AC03;}
</style>
<g>
	<path class="st0" d="M455.2,366.1c0,80.6,0,161.1,0,241.7c-5.6,3.3-11.6,1.3-17.5,1.4c-7.3-2.7-11.8-9-17.4-13.8
		c-15.8-13.5-31.1-27.4-46.8-41c-7.1-6.2-14.1-12.6-21.2-18.9c-1.7-1.5-3.5-3.1-4.4-5.4c-0.2-0.6-0.3-1.1-0.4-1.7
		c-0.4-17.1-0.1-34.2-0.2-51.3c0-1.8,0-3.7,0-5.5c-0.1-7.1-1.9-8.9-8.9-9c-12.8-0.1-25.6,0-38.4-0.1c-9.6,0-19.3,0.2-28.9-0.2
		c-0.8,0-1.7-0.1-2.5-0.4c-15-13.5-30.2-26.9-45.4-40.2c-15.2-13.4-30.3-26.8-45.6-40.2c-4.5-3.9-9.1-7.7-13.3-12
		c-1.5-1.5-3.2-3.6,0.5-4.7c1.8-0.4,3.7-0.4,5.5-0.4c34.5,0,68.9,0,103.4,0c1.7,0,3.3,0,5,0.3c1.6,0.1,2.5,1.9,4.2,1.8
		c3.2-0.5,6.1-2.1,9.4-1.9c24-0.4,48.1-0.3,72.1-0.1c10.5,1.2,20.9,3.2,31.7,3.1c10.2-0.1,20.1-2.1,30.2-3.1
		c7.4,0.1,14.9-0.4,22.3-0.1C451,364.5,453.4,364.1,455.2,366.1z"/>
	<path class="st1" d="M163,366.2c7,7.8,15.5,14,23.1,21.2c7.2,6.8,14.9,13.1,22.4,19.7c13.2,11.6,26.4,23.1,39.6,34.7
		c6.1,5.4,12.2,10.8,18.2,16.2c0.9,0.8,1.6,1.7,1.6,3c-4.5,5.6-4.4,12.2-4.4,18.9c0.1,40,0.1,79.9,0,119.9c0,2.9,0.5,6-1.4,8.7
		c-2.2,1.6-4.8,1.3-7.2,1.3c-30.4,0-60.8,0-91.2,0c-2.6,0-5.4,0.5-7.5-1.8c0-80.6,0-161.1,0-241.7c1-1.3,2.4-1.3,3.8-1.4
		C161.2,364.9,162.3,365.1,163,366.2z"/>
	<path class="st2" d="M282,367.9c-2,0.5-1.7-0.5-1.2-1.8c-1.1-2.2,0.1-4.2,0.8-6.2c4-12.3,7.9-24.6,12.3-36.8
		c1.9-5.2,1.8-9.6-1.6-14c-1.3-1.7-2.1-3.8-3-5.7c-0.9-2.9-2.4-5.6-3.6-8.4c-2.1-5.9-3.8-11.9-5-18.1c-0.4-1.9-0.9-3.9,0.1-5.8
		c-3.6-28.7,1.5-55.7,17.3-80.2c39.7-61.9,129.2-71.4,179.1-18.9c-0.4,2.1-2.2,3.3-3.6,4.7c-6.2,6.3-12.4,12.5-18.7,18.7
		c-1.4,1.4-2.7,3-4.8,3.5c-4-0.7-6.9,1-9.6,3.8c-15.9,16.1-31.9,32-47.9,48c-16.2,16-32.1,32.2-48.3,48.2c-2.7,2.7-4.3,5.4-3.3,9.3
		c-0.1,1.4-0.7,2.6-1.6,3.6c-13.5,15.5-26,31.9-42.8,44.3C291.6,359.6,287.5,364.6,282,367.9z"/>
	<path class="st3" d="M449.8,198.1c7.8-6.5,14.4-14.2,21.8-21.2c1.8-1.7,3.7-3.3,5.5-5c17,16.2,27.6,36.1,31.7,59
		c7.5,41-3.6,76.5-33.1,106.1c-0.6,0.6-1.1,1.2-1.6,1.9c-1.6,4.4-5.9,6.2-9.1,8.8c-3.6,2.9-7.6,5.4-11.6,7.7
		c-8.7,5.1-17.7,9.3-27.8,10.5c-13.1,2.8-26.4,4.2-39.9,3.2c-7-0.5-13.6-2.3-20.5-3.2c-9.7-1.2-18.5-5-26.8-9.9
		c-3.7-2.2-6.9-2.3-10.8-1c-12.1,4.1-24,8.5-36.6,10.9c-3.2,0-5.8,2.4-9,2c6.3-7.4,13.9-13.3,21.4-19.3c9.3-7.5,16.8-16.4,24.4-25.3
		c3.1-3.6,6.2-7.3,9.3-11c1.2-1.4,2.9-2.4,2.9-4.5c4.2,1.1,7-1,9.9-3.9c14-14.2,28.1-28.2,42.1-42.2c2-2,4-3.9,6.4-5.6
		c16.6-16.1,32.7-32.8,49.3-49C450.6,204.4,450.1,201.4,449.8,198.1z"/>
	<path class="st4" d="M262.1,608c0.1-39.1,0.1-78.1,0.2-117.2c0-6.8,0.1-13.6,0-20.4c0-4.4,1.4-7.8,5.7-9.5c0.7,0,1.3,0.1,2,0.1
		c5.6,1.9,9,6.7,13.2,10.3c20.1,17.6,40,35.4,60.1,52.9c2,1.7,3.9,3.6,5.5,5.8c0.1,0.3,0.2,0.7,0.3,1c1,1.8,1.5,3.7,1.5,5.7
		c0,23.6,0.2,47.2-0.1,70.9c-0.1,3.5,1,7.2-1.6,10.4c-28.8,0-57.7,0-86.5,0C259.4,614.8,260,611.4,262.1,608z"/>
	<path class="st3" d="M99,592c0,7.2-0.2,14.3,0,21.5c0.1,3.4-0.9,4.8-4.5,4.8c-7.2-0.2-14.3-0.1-21.5,0c-3,0-4.1-1.1-4.1-4.2
		c0.1-6.3-0.1-12.6,0.1-19c0.1-2.6-0.8-3.5-3.4-3.4c-4.5,0.2-9,0.2-13.5,0c-2.8-0.1-3.3,1-3.3,3.5c0.1,6.3-0.1,12.7,0.1,19
		c0.1,3.1-1.1,4.1-4.1,4c-7.2-0.1-14.3-0.1-21.5,0c-3.3,0.1-4.5-1.2-4.4-4.4c0.1-6,0-12,0-18c0-2,0.2-3.6-2.5-4.5
		c-2.5-0.8-2.5-5.4,0.1-6.2c2.1-0.7,2.5-1.6,2.5-3.5c-0.1-14.1-0.2-28.3-0.3-42.4c-0.2-0.3-0.5-0.6-0.5-0.9
		c0.6-6.5-0.3-13.4,3.8-19.2c2.3-3.3,5-6.2,7.6-9.2c3-3.4,4.8-3.5,7.9-0.4c4.2,4,8.2,8.3,11,13.4c0.1,3,0.1,6,0.2,9
		c1.9,2.1,1.4,4.7,1.5,7.2c0.3,12.4,0,24.9,0.1,37.3c0,6.5,0.3,6.8,6.6,6.8c10.9,0,10.1,0.9,10.2-10.3c0.1-11.3-0.2-22.6,0.1-33.9
		c0-2.5-0.4-5.1,1.5-7.2l0,0c-1.2-9.6,5-15.6,10.7-21.9c3.2-3.5,5.1-3.8,8.3-0.3c4,4.4,8.7,8.3,10.8,14.1c0.1,2.7,0.1,5.4,0.2,8
		c1.9,2.2,1.4,4.8,1.4,7.4c0.2,15.1,0.2,30.2,0,45.2C100.5,587.2,100.9,589.8,99,592z"/>
	<path class="st4" d="M280.8,271c1.5,8.1,3.8,16.1,6.2,24c-0.8,2.1-2.7,2.8-4.5,3.7c-25.7,11.8-51.1,24.2-76.7,36
		c-13.9,6.4-27.7,13-41.4,19.6c-6.3,3-12.8,5.7-19,8.9c-1.1,0.6-2.7,0.8-2.4,2.6c-9.7,0-19.3,0-29,0c-4,0-7.3-1.5-8.1-5.8
		c-0.9-4.5,1.4-7.1,5.3-9c34-16,68-32,101.9-48C235.7,292.3,258.2,281.7,280.8,271z"/>
	<path class="st3" d="M262.1,608c0.1,3.3,0.2,6.7,0.3,10c-37,0-74,0.1-111,0.1c-9.2,0-18.3-0.1-27.5,0.1c-4,0.1-5.2-1.3-5.1-5.2
		c0.3-7,0.1-14,0-21c-1.8-2.2-1.4-4.8-1.4-7.4c-0.2-15.1-0.2-30.2,0-45.3c0-2.6-0.4-5.2,1.4-7.4c0.1-2.7,0.2-5.4,0.2-8
		c2.5-6.5,7.8-10.9,12.5-15.6c1.7-1.7,3.8-1,5.3,0.6c3.4,3.8,7,7.5,10.1,11.6c2.6,3.5,0.6,7.8,1.8,11.5c1.5,1,4.3,0.1,4.3,3.2
		c0,2.2-0.2,3.9-2.9,4.3c-1.9,0.3-1.3,2.1-1.3,3.3c0,13,0,25.9,0,38.9c0,1.4-0.2,2.6,1.9,3.4c3.2,1.1,3.3,5.3,0.2,6.5
		c-2.3,0.8-2.1,2.1-2.1,3.7c0,2,0,4,0,6c0,7,0,7,7.3,6.6C191.5,607.9,226.8,607.9,262.1,608z"/>
	<path class="st5" d="M142.9,365.8c-0.9-0.8-3.6-1.2-0.3-2.7c8.2-3.7,16.2-7.8,24.3-11.6c13.8-6.5,27.8-12.8,41.6-19.4
		c26.2-12.3,52.3-24.8,78.4-37.2c1.1,2.6,2.2,5.1,3.2,7.7c0.2,3.2-2.7,3.4-4.6,4.4c-16.5,8.4-33.3,15.9-50,23.7
		c-23.2,10.8-46.2,22.2-69.5,32.7c-2,0.9-4.1,1.5-6,2.4c-1.3,0.1-2.5,0.2-3.8,0.3C151.8,366,147.4,365.9,142.9,365.8z"/>
	<path class="st6" d="M348.9,618c0.1-3.3,0.1-6.7,0.2-10c1.7-1.7,4-1.6,6.1-1.6c24.5-0.1,49,0,73.5,0c2.5,0,5,0.5,7.3,1.5
		c6.4,0,12.8,0,19.3,0c3,0.1,6,0.2,9,0.1c3.7,0,6.4,1.4,6.3,5.4c-0.1,3.7-2.8,4.8-6.3,4.8c-17.5,0-34.9,0.1-52.4,0
		C390.8,618.2,369.9,618.1,348.9,618z"/>
	<path class="st7" d="M453,354.3c7.5-4.6,14.5-9.8,21.2-15.5c8.7,4.1,17.5,8.2,26.2,12.2c3.9,1.8,6.4,4.5,5.4,9
		c-1,4.4-4.5,5.9-8.7,5.8c-11,0-22,0-33,0c0.2-2.1,2-1.7,3.9-2.1c-4.6-1.7-8.6-3.4-12.4-5.6C454.3,357.3,451.9,356.9,453,354.3z"/>
	<path class="st8" d="M48.8,523c-5-3.5-7.9-8.9-12.2-13c-2.1-2-3.5-2-5.3,0.2c-3.5,4.2-7.9,7.9-10.2,12.7
		c-2.4,4.9-1.8,10.9-2.3,16.5c-1.9,0-3.8,0.1-3.9-2.6c-0.1-1.9-0.3-3.9,2.2-4.3c1.8-0.3,2-1.4,2-2.8c0-0.3,0.1-0.7,0-1
		c-2-12.3,3.9-21.1,12.1-29.2c2.3-2.3,3.8-2.7,5.9,0c2,2.6,4.1,5.3,6.5,7.5C48.5,511.3,50.1,516.7,48.8,523z"/>
	<path class="st9" d="M98.8,524c-4-4.6-8.1-9.1-12.1-13.8c-2.1-2.5-3.7-2.1-5.6,0.2c-3.3,4.1-6.7,8.2-10.1,12.2
		c-2.4,2.8,0.4,6.6-1.9,9.5c0-0.5,0-1,0-1.5c-0.1-18,0-17.9,12.1-31.1c2.3-2.5,3.8-2.6,5.9,0c3.4,4.1,6.9,8.1,10.3,12.1
		C100.4,515.3,98.4,519.8,98.8,524z"/>
	<path class="st10" d="M148.9,532c-1.9-2.5,0.1-5.7-1.2-8.1c-3.1-5.8-8.1-10-12.3-14.9c-1.4-1.7-2.7-0.3-3.7,0.8
		c-4.2,4.7-8.3,9.4-12.5,14.1c-2.9-12.4,7.1-18.2,13.2-26c1-1.3,2.4-0.8,3.4,0.4c4.1,4.8,8.2,9.6,12.2,14.4c0.9,1.1,0.7,2.5,0.7,3.8
		C148.8,521.7,148.9,526.9,148.9,532z"/>
	<path class="st11" d="M453,354.3c2.8,3.8,7.4,4.5,11.2,6.6c2,1.1,4.1,1.9,6.5,3c-2.2,2.2-5,0.1-6.6,1.9c-3,0.1-5.9,0.2-8.9,0.3
		c-9.9-0.1-19.7-0.2-29.6-0.3C435,362.6,444.3,359.1,453,354.3z"/>
	<path class="st12" d="M49.2,539.4c-0.1-2.5-0.2-4.9-0.2-7.4c6.7,0.4,13.4,0.5,20,0c-0.1,2.4-0.2,4.9-0.2,7.3
		C62.3,541.3,55.8,541.2,49.2,539.4z"/>
	<path class="st13" d="M119,532c-0.1,2.5-0.1,4.9-0.2,7.4c-6.5,1.9-13.1,1.9-19.6,0c-0.1-2.4-0.1-4.9-0.2-7.3
		C105.7,532.6,112.3,532.5,119,532z"/>
	<path class="st14" d="M118.9,584.8c0,2.4,0,4.8,0.1,7.3c-6.6,0-13.3,0-19.9,0c0-2.4,0.1-4.8,0.1-7.3
		C105.7,582.6,112.3,582.6,118.9,584.8z"/>
	<path class="st15" d="M160,365.8c4.6-4.3,10.7-5.8,16.2-8.5c11.4-5.4,22.8-10.8,34.2-16.2c25.2-11.9,50.5-23.9,75.7-35.8
		c1.5-0.7,3.2-1.1,4.1-2.7c2,3.6,3.9,7.2,6.1,10.8c1.3,2.2,0.7,4,0,6.1c-5.2,15.5-10.4,31-15.5,46.5c-39.3,0-78.5,0.1-117.8,0.1
		C162,366.1,161,366,160,365.8z"/>
	<path class="st1" d="M436,607.8c-29,0.1-57.9,0.1-86.9,0.2c0-25.7,0-51.3,0-77c10.4,9.2,20.7,18.5,31.1,27.7
		c12.7,11.1,25.4,22.1,38.1,33.2C424.3,597.1,430.1,602.5,436,607.8z"/>
	<path class="st16" d="M348.8,530c-4.6-2.1-7.7-6.1-11.5-9.3c-12.8-11-25.3-22.5-37.9-33.7c-9.8-8.7-19.6-17.3-29.4-26
		c23.8-0.1,47.5-0.1,71.3-0.1c4.7,0,7.7,2.9,7.7,7.3C349,488.8,348.9,509.4,348.8,530z"/>
	<path class="st17" d="M291,365.8c13.5-4.5,27-9,40.5-13.5c1.3-0.4,2.5-0.4,3.8,0.4c9.3,5.8,19.6,9.6,29.9,13.1
		C340.5,365.8,315.7,365.8,291,365.8z"/>
	<path class="st18" d="M225.5,480c-9.6,0-9.6,0-9.6-9.5c0-10,0-10,10-9.8c6.9,0.1,9.2,2.3,9.3,9.3C235.5,480,235.5,480,225.5,480z"
		/>
	<path class="st18" d="M210.3,495.1c0,10,0,10-9.9,9.9c-7-0.1-9.4-2.5-9.5-9.6c0-9.7,0-9.7,9.5-9.7c0.2,0,0.3,0,0.5,0
		C210.3,485.7,210.3,485.7,210.3,495.1z"/>
	<path class="st19" d="M202,479.8c-11.4,0.6-13.4-1.7-10.8-13c0.8-3.6,3.1-5.8,7-6c0.5,0,1,0,1.5,0c11.2-0.2,11.2-0.2,10.3,11.1
		C208.1,475.3,205.7,478.2,202,479.8z"/>
	<path class="st20" d="M226.1,485.9c9.1-0.7,9.1-0.7,9.1,8.4c0,8.5-2.1,10.6-10.5,10.6c-9,0-9,0-8.5-8.9
		C218.4,491.6,222,488.5,226.1,485.9z"/>
	<path class="st21" d="M226.1,485.9c-2.9,3.8-6.3,7-9.9,10.1c0-0.2-0.1-0.3-0.1-0.5C216.2,484,213.5,485.6,226.1,485.9z"/>
	<path class="st18" d="M202,479.8c2.4-2.9,4.9-5.7,8-7.9C210.6,481.8,211.3,480,202,479.8z"/>
	<path class="st0" d="M333.9,194c7-16.6,31.2-19.2,42.6-4.6c7.3,9.3,8.1,37.5,1.5,47.6c-5.7-1.6-8.5-6.4-11.8-10.6
		c-1-5.6-0.3-11.3-0.5-16.9c-0.1-2.2,0-4.3-0.7-6.4c-1.3-3.5-3.6-6.1-7.5-6.5c-4-0.4-7.1,1.2-9.1,4.9c-0.5,1-0.9,2.1-1.6,3.1
		c-1,1.2-2.1,0.8-3,0C340.2,201.3,336.2,198.4,333.9,194z"/>
	<path class="st22" d="M366.8,226.9c3.7,3.4,7.4,6.7,11.2,10.1c-6.4,10-17.4,14.4-28.3,11.3c-11.3-3.2-18.6-12.7-18.8-24.6
		c-0.1-6.3,0-12.6,0-18.9c0-3.8,0.6-7.6,3-10.8c4.4,3.1,7.6,7.5,11.7,11c2.2,1.2,1.7,3.4,1.7,5.3c0.1,4.2,0,8.3,0.1,12.5
		c0,4.2,1.2,7.7,5.5,9.1c4.1,1.4,7.9,0.7,10.9-2.8C364.6,228.2,365.2,226.9,366.8,226.9z"/>
	<path class="st23" d="M449.8,198.1c2.2,2.8,2.7,5.6-0.1,8.4c-17,16.8-33.9,33.7-50.9,50.5c-4.6-0.1-6.9-2.5-6.9-7
		c16.9-17,33.7-33.9,50.6-50.9C444.8,196.8,447.2,196.9,449.8,198.1z"/>
	<path class="st24" d="M392,250c1.2,3.5,3.5,5.8,6.9,7c-16.6,16.6-33.2,33.2-49.8,49.8c-2.9,3-5.7,3.9-9.1,1c-1.5-3.2-0.6-5.6,1.8-8
		C358.6,283.3,375.3,266.6,392,250z"/>
	<path class="st0" d="M411.9,271.9c4.4-9.4,12-13.8,22.1-14c11.2-0.2,20,4.8,23.6,15.1c4.5,12.8,3.9,26.4,0,39.6
		c-0.3,0.9-1.1,1.6-1.7,2.4c-5.6-1.7-8.5-6.4-11.8-10.6c-1-5.6-0.3-11.3-0.5-16.9c-0.1-2,0-4-0.6-5.9c-1.2-3.8-3.6-6.5-7.7-6.9
		c-4-0.4-7.1,1.2-9,4.9c-0.5,1-0.9,2.1-1.6,3.1c-1,1.2-2.2,0.8-3,0C418.2,279.3,414.1,276.4,411.9,271.9z"/>
	<path class="st22" d="M444.8,305c3.7,3.3,7.4,6.7,11.1,10c-6.3,10-17.4,14.4-28.3,11.3c-11.2-3.2-18.6-12.6-18.7-24.1
		c-0.1-6.5-0.1-12.9,0-19.4c0-3.8,0.6-7.6,3-10.8c3.9,3.7,7.8,7.4,11.8,11.1c2.1,1.3,1.6,3.5,1.7,5.4c0.1,4.3,0,8.6,0.1,13
		c0.1,4,1.5,7.3,5.5,8.6c3.9,1.3,7.5,0.8,10.5-2.4C442.4,306.5,443,304.9,444.8,305z"/>
	<path class="st2" d="M366.8,226.9c-4.1,7-9.7,9.3-15.4,6.1c-3.8-2.1-5.7-5.3-5.6-9.7c0-6.1-0.1-12.2-0.1-18.3
		c1.9-7.2,5.9-10.6,12-10c5.7,0.6,9.4,5.4,9.4,12.5C367,214,366.9,220.5,366.8,226.9z"/>
	<path class="st3" d="M444.8,305c-4,6.7-9,9-14.6,6.5c-4.1-1.8-6.4-5-6.5-9.7c0-6.3-0.1-12.5-0.1-18.8c1.8-7.2,5.8-10.6,12-10
		c5.7,0.6,9.4,5.5,9.4,12.5C445,292,444.9,298.5,444.8,305z"/>
</g>
</svg>
