<?xml version="1.0" encoding="utf-8"?>
<!-- Generator: Adobe Illustrator 19.0.0, SVG Export Plug-In . SVG Version: 6.00 Build 0)  -->
<svg version="1.1" id="Calque_1" xmlns="http://www.w3.org/2000/svg" xmlns:xlink="http://www.w3.org/1999/xlink" x="0px" y="0px"
	 viewBox="0 0 612 792" style="enable-background:new 0 0 612 792;" xml:space="preserve">
<style type="text/css">
	.st0{fill:#FD9000;}
	.st1{fill:#FDAF00;}
	.st2{fill:#E8186C;}
	.st3{fill:#17DB9E;}
	.st4{fill:#08C09C;}
	.st5{fill:#CF0D54;}
	.st6{fill:#08A498;}
	.st7{fill:#BB0F45;}
	.st8{fill:#D00D54;}
	.st9{fill:#9DF8FC;}
	.st10{fill:#959CC3;}
	.st11{fill:#9DCC97;}
	.st12{fill:#9CF7FB;}
	.st13{fill:#8298B3;}
</style>
<g>
	<path class="st0" d="M122.9,340c-0.2-0.2-0.3-0.5-0.3-0.8c1.1-1.6,2.8-1.7,4.5-1.7c52.6-0.4,105.2-0.1,157.9-0.2c3,0,6-0.1,9,0.2
		c3.4,0.4,5.6,2.6,7.6,5.1c3.7,4.5,7.5,8.8,12.4,12.1c22.2,19,47.7,28.9,77,29c11.4,0,22.5-0.8,33.5-4.1c1.7-0.5,3.5-1.1,5.2,0.3
		c0,69.3,0,138.5,0,207.8c-2.3,2.6-5.4,1.6-8.3,1.7c-3.4,0.1-6.8,0.3-10.2-0.3c-6.5-2.4-10.5-8-15.5-12.3
		c-21.7-18.6-42.8-38-64.5-56.6c-2.6-2.2-4.8-5.1-7.8-6.9c-1.5,1.8-0.8,3.7-0.8,5.4c-0.1,21,0,42-0.1,62.9c0,2.3,1,5.1-2,6.6
		c-0.6-0.3-1-0.7-1.2-1.3c-0.7-1.9-0.7-3.9-0.7-5.9c0-24.2-0.1-48.4,0-72.6c0.1-20.6,0.1-41.3,0-61.9c0-6.2-1.8-7.8-8.2-7.9
		c-14.6-0.4-29.2-0.3-43.8-0.2c-8.4,0.1-16.9,0.1-25.4,0.1c-1.1,0-2.2-0.1-3.3-0.5c-15.5-14.6-31.7-28.3-47.6-42.4
		c-18.3-16.2-36.6-32.4-55-48.5C131.4,343.7,127.7,341,122.9,340z"/>
	<path class="st1" d="M122.9,340c8.2-2,11.8,5.1,16.5,9.1c16.9,14.3,33.4,29.1,50,43.8c9.9,8.8,19.7,17.7,29.6,26.5
		c4.3,3.8,8.9,7.4,13.1,11.3c1.9,1.7,4.4,3.1,4.9,6.1c-5.5,7.2-3.5,15.7-3.5,23.6c-0.1,40.6,0.1,81.3-0.1,121.9
		c0,2.6-0.2,5.1-2.8,6.4c-2.4,0.9-4.9,0.8-7.4,0.8c-30.7,0-61.4,0-92.1,0c-2.9,0-6.1,0.7-8.4-1.9c0-72.2,0-144.5,0.1-216.7
		C122.7,360.7,122.8,350.4,122.9,340z"/>
	<path class="st2" d="M231.2,587.9c1.1-11.6,0.5-23.2,0.5-34.8c0.1-35.5,0.1-71.1,0-106.6c0-4.4,0.9-7.9,5.3-9.6c1,0,2,0,3,0
		c7.3,5.2,13.7,11.6,20.5,17.4c13.3,11.4,26,23.3,39.3,34.6c5.9,5.1,11.6,10.5,17.6,15.4c1.2,1,1.7,2.4,2.6,3.7
		c0,24.7,0,49.3,0.1,74c0,2,0.1,4,0.2,6c1.9,3.4,1.9,6.8-0.1,10.1c-16.4,0.1-32.8,0.3-49.2,0.3c-13.1,0-26.2-0.1-39.3-0.2
		C230.1,594.8,230.3,591.4,231.2,587.9z"/>
	<path class="st3" d="M494.8,328.9c-1.8,2.8-3.4,5.8-5.6,8.2c-2.3,2.6-2.1,4.1,0.3,6.5c15.8,15.7,31.6,31.5,47.3,47.3
		c4.8,4.8,9.7,9.6,14.4,14.5c5.5,5.7,5.8,12.6,0.8,17.7c-5.1,5.3-12.3,5.1-18.1-0.7c-20.4-20.3-40.8-40.6-61-61.1
		c-2.7-2.7-4.3-3.4-7.6-0.6c-3.7,3.3-7.8,6.1-12.5,8.1c-5.8,1.5-10.8,4.9-16.6,6.4c-38.5,9.9-71.5,0.4-99.2-27.8
		c-1.2-1.2-2.9-2.4-2-4.7c2.7-1,4.4,1,6.3,2.2c16.2,9.8,33.7,15,52.6,14.6c12-0.3,23.8-2.5,34.9-7.3c8.7-3.1,16.2-8.1,23.4-13.8
		c7-5,12.7-11.2,17.4-18.4c12.1-16.1,18-34.6,18.6-54.4c0.4-16.6-3.4-32.7-11.5-47.5c-1.9-3.6-5.2-6.6-4.9-11.1
		c2.4-1.1,3.8,0.5,5.2,1.9c17.8,17.8,28.6,38.9,30.3,64.3c1,15-0.6,29.5-6.7,43.3C498.9,320.7,495.8,324.3,494.8,328.9z"/>
	<path class="st3" d="M312.9,355.3c-6.4-4.5-11.1-10.8-16.4-16.4c-2.4-1-3.9-3-5.3-5.1c-13.9-20.8-22.2-43.3-21.6-68.6
		c0.1-3.1,0.1-6.3-0.1-9.5c0-7,1.2-13.8,2.8-20.6c0.4-1.7,1-3.1,2.4-4.2c9.4-31.3,27.9-55.7,56-72.5c48.4-29,112.8-19.4,150.6,22.3
		c0.3,0.4,0.6,0.8,0.8,1.2c-2.4,1.6-4.1-0.3-5.8-1.4C460.5,169.7,443,163.1,424,161c-26.2-2.9-51.1,1.6-74.2,14.7
		c-0.7,0.4-1.4,1-1.9,1.6c-1.8,2.3-4.4,3.5-6.8,5c-13.5,8.5-24.1,19.8-32.2,33.5c-0.7,1.2-1.4,2.3-2.5,3c-5.9,8.2-9.9,17.4-12.6,27
		c-10.3,36.8-4.9,71.2,16.3,103C311.4,350.8,314,352.3,312.9,355.3z"/>
	<path class="st2" d="M274.8,230.9c-2,8.3-3.5,16.8-4.2,25.3c-0.4,1.7,0.3,3.5-0.5,5.1c-10.8,6-22.2,10.8-33.3,16
		c-14.6,6.9-29.2,13.7-43.8,20.7c-26.8,12.7-53.7,25.1-80.4,38.1c-2.7,1.3-5.7,1.7-8.5,2.8c-8.2,0-16.3,0-24.5,0.2
		c-4.6,0.1-8-1.4-8.9-6.1c-0.9-4.5,1.6-7.1,5.5-8.9c20.3-9.6,40.6-19.2,60.9-28.7c43.8-20.6,87.5-41.2,131.3-61.8
		C270.4,232.5,272.4,231.2,274.8,230.9z"/>
	<path class="st4" d="M347.1,177c-1.1-1.4,0.3-1.7,1-2.1c13.9-7.6,28.6-13.2,44.5-15c17.5-2,34.7-1.4,51.7,3.9
		c11.3,3.5,22,8.4,31.9,14.9c1.9,1.2,3.5,3.1,6,3.2c15.9,16.1,25.2,35.8,29.6,57.6c5.2,25.8,2.3,50.9-8.8,74.8
		c-2.3,5-5.4,9.7-8.2,14.6c-1.3-1.7,0.2-2.8,0.8-4c6.5-12.6,9.9-25.8,10.5-40c1.1-25.5-6.5-47.8-22.9-67.2c-3.4-4-6.1-8.7-11.4-10.7
		c-4-0.8-5.6-4.4-7.9-7c-16.5-18.3-37-28.8-61.5-31.8c-17-2.1-33.1,1.1-48.7,7.5C351.6,176.6,349.5,178,347.1,177z"/>
	<path class="st4" d="M312.9,355.3c-7.3-10.8-14.2-21.9-18.5-34.4c-3.6-10.5-5.7-21.2-6.6-32.4c-1.4-16.5,1.3-32.2,6.1-47.7
		c2.4-7.6,6.5-14.5,10-21.7c0.4-0.7,0.6-2.2,2-1.1c1.4,2.1,0,3.8-0.8,5.5c-2.7,5.9-5,11.8-6.1,18.2c-1.9,8.4-3,16.8-2.6,25.4
		c1.6,28.8,13.3,52.4,35.6,70.8c1.3,1.4,3.2,2.5,3.1,4.8c6.9,9.4,15.9,16.4,25.9,22.2c15.1,8.7,31.6,13.2,49,12.9
		c13.3-0.2,26.3-2.7,38.5-8.6c1.4-0.7,2.8-2.2,4.5-0.4c-7.2,5-15.5,7.5-23.4,11.1c-11.6,2.7-23.2,5.2-35.3,5.4
		c-28.8,0.3-54.4-8.4-77.2-25.9C315.6,358.2,314.3,356.7,312.9,355.3z"/>
	<path class="st5" d="M104,338.9c6.8-3.4,13.6-6.9,20.5-10.1c15.8-7.5,31.6-14.8,47.4-22.2c31-14.5,61.9-29.1,92.9-43.6
		c1.6-0.8,2.9-2.3,5-1.9c2.1,8.9,1.6,10.4-6,14c-33.4,15.7-66.7,31.6-100.1,47.2c-9.6,4.5-19.4,8.8-28.8,13.7
		c-2.5,1.3-5.3,1.8-7.8,3c-1.5,0.1-2.9,0.2-4.4,0.3C116.4,339.1,110.2,339,104,338.9z"/>
	<path class="st6" d="M231.2,587.9c0.9,3.4,0.3,6.8,0.4,10.3c-39.3,0-78.6,0-118,0c-3.5,0-6.5-0.7-6.7-4.9c-0.1-4.4,2.9-5.5,6.7-5.4
		c3,0.1,6-0.1,9-0.2c28.9,0.1,57.8,0.1,86.6,0.2C216.5,587.9,223.9,587.9,231.2,587.9z"/>
	<path class="st6" d="M320.1,598.1c0-3.4,0.1-6.8,0.1-10.1c0.3,0,0.6-0.1,0.8-0.2c2-1.5,4.4-1.4,6.7-1.4c24.6,0,49.3,0,73.9,0
		c2.9,0,5.6,0.7,8.3,1.4c6.5,0,13.1,0,19.6,0c3,0.1,6,0.2,9,0.2c3.7-0.1,6.4,1,6.4,5.1c0,4.1-2.8,5.1-6.4,5.1
		c-22.8,0-45.7,0.1-68.5,0.1C353.4,598.2,336.8,598.2,320.1,598.1z"/>
	<path class="st7" d="M127,338.9c5.6-4.2,12.1-6.5,18.3-9.5c13-6.3,26.2-12.1,39.3-18.3c25.8-12.2,51.7-24.4,77.4-36.7
		c8.3-4,8.3-4.1,7.7-13.4c0.3-1.6,0.5-3.2,0.8-4.7c-0.6,19.7,2.3,38.6,10.4,56.7c4.2,9.3,9.6,17.7,15.5,26
		c-29.4,0.1-58.8,0.2-88.2,0.2C181.2,339.1,154.1,339,127,338.9z"/>
	<path class="st1" d="M409.9,587.7c-29.6,0-59.3,0-88.9,0c0-25.6,0-51.2,0-77.1c6,1.9,9.1,7,13.3,10.5
		c13.2,11.1,25.7,22.9,38.6,34.3C385.2,566.3,397.6,577,409.9,587.7z"/>
	<path class="st8" d="M319.9,508c-12.3-10.3-24.2-21-36.2-31.7c-12.2-10.9-24.7-21.4-37-32.2c-2.5-2.2-5.1-4.3-6.8-7.2
		c14.4-0.5,28.8-0.4,43.2-0.2c9.6,0.2,19.2,0,28.8,0.1c5.5,0.1,8,2.5,8,7.9C320.1,465.8,320,486.9,319.9,508z"/>
	<path class="st9" d="M298.1,240.8c0.8-8.2,5.1-15.3,7.9-22.8c9.9-17.5,23.7-31,41.1-41c13.2-6.2,26.9-10.4,41.5-10.8
		c24.6-0.7,46.6,6.8,65.8,22.5c6.6,5.4,11.9,12,17.6,18.3c8.2,12.9,14.5,26.5,16.6,41.8c3.5,26.5-1.8,50.8-18.2,72.3
		c-1.7,1.1-3.2,0.2-4.7-0.5c-16.2-7.7-32.6-15.2-48.8-22.9c-34.3-16.3-68.6-32.4-102.9-48.5C308.5,246.7,302.8,244.7,298.1,240.8z"
		/>
	<path class="st10" d="M298.1,240.8c7.6,2.2,14.3,6.3,21.3,9.6c39.2,18.3,78.2,37,117.2,55.4c11.1,5.2,22.3,10.3,33.5,15.4
		c-4.6,7.2-10.3,13.3-17.4,18c-3,1.4-6,1.6-9.2,0.8c-5.7-5.8-13.8-7.8-20.8-11.1c-6-2.9-12.5-5.9-18.8-8.5
		c-6.9-2.9-14.3-5.3-20.3-10.1c-1.2-1-2.5-1.6-4-1.9c-1-0.2-2.1-0.1-2.9-0.6c-5.9-4-13.1-5.4-18.9-9.5c-1.9-1.4-3.8-2.6-6.2-2.9
		c-2.9-0.3-5.4-1.5-7.6-3.5c-0.6-0.6-1.2-1.4-2-1.5c-7.4-0.6-12.5-6.7-19.6-8.1c-1.6-0.3-3.3-0.9-4.5-2.1c-2.6-2.6-5.8-3.4-9.2-4.5
		c-5-1.5-9-5.3-13.7-7.6C294.6,258.8,295.3,249.6,298.1,240.8z"/>
	<path class="st11" d="M335.1,342.7c-1.1-1.2-2.1-2.4-3.2-3.6c1.8-2,4.2-1.7,6.5-1.7c28.4-0.1,56.9,0,85.3,0c2.2,0,4.3-0.1,6.3,1.2
		c2.3,4.8,2.6,9.6-0.2,14.4c-14.7,6.7-30.1,8.7-46.1,7.5C365.8,359.1,350,352.3,335.1,342.7z"/>
	<path class="st12" d="M429.8,353c0.1-4.6,0.1-9.2,0.2-13.9c4.3-2.8,8.6-2.1,13-0.2c3.3,0.1,6.6,0.2,9.9,0.2
		C446.1,345.3,438.4,349.9,429.8,353z"/>
	<path class="st13" d="M443,338.9c-4.3,0.1-8.6,0.1-13,0.2c-32.7,0-65.4,0-98.1,0c-13.8-9.9-23-23.4-29.6-38.8
		c-4.4-10.3-6.7-21.2-7.2-32.4c4.1,0.8,7.5,3.8,10.9,4.8c6.7,2,11.9,6.8,18.5,8.5c2.6,0.7,5.2,1.2,6.9,3.5c0.4,0.5,1,1.1,1.6,1.1
		c7.7,0.7,12.9,7.6,20.7,8.2c1.4,0.1,2.7,1.2,3.9,2c0.8,0.5,1.4,1.8,2.2,2c7.4,1.9,13.2,7.7,20.9,8.8c0.3,0,0.8-0.1,1,0.1
		c4.4,5.7,12.2,5.3,17.5,9.6c0.1,0.1,0.2,0.3,0.4,0.3c7.5,2,13.6,7.6,21.4,9c2.1,0.4,3.7,1.3,5.2,2.7c2.6,2.5,5.5,4.2,9.2,4.3
		C439.3,333.2,440.8,336.5,443,338.9z"/>
</g>
</svg>
