<?xml version="1.0" encoding="utf-8"?>
<!-- Generator: Adobe Illustrator 19.0.0, SVG Export Plug-In . SVG Version: 6.00 Build 0)  -->
<svg version="1.1" id="Calque_1" xmlns="http://www.w3.org/2000/svg" xmlns:xlink="http://www.w3.org/1999/xlink" x="0px" y="0px"
	 viewBox="0 0 612 792" style="enable-background:new 0 0 612 792;" xml:space="preserve">
<style type="text/css">
	.st0{fill:#E775AD;}
	.st1{fill:#3D3D3D;}
	.st2{fill:#DD71A7;}
</style>
<g>
	<path class="st0" d="M96.5,518.9c14.6-14.6,29.1-29.3,43.7-43.9c8.5-8.5,16.9-17,25.5-25.4c1-1,1.8-3.3,3.9-2
		c1.8,1.1,3.7,2.1,3.8,4.8c0.1,5,1.6,9.5,5.1,13.2c3.1,3.2,6.5,3.3,9.7,0.5c8.2-7.3,8-30.1-4-34.3c2.3-3,2.3-3,5.1-0.3
		c15.6,15.5,31.1,31.1,46.7,46.7c13.5,13.6,27,27.2,40.5,40.8c-6.2,0-12.5,0.1-18.7,0.1c-3.8-5.1-6.5-1.2-9.5,1.1
		c-2.3,0.6-4.6,0.5-7,0.5c-37.1,0-74.2,0-111.3,0c-2.3,0-4.7,0.1-6.9-0.5c-0.6-0.2-1.3-0.4-1.7-1c-2.6-3.9-5.2-3.2-8-0.1
		C107.7,519,102.1,518.9,96.5,518.9z"/>
	<path class="st1" d="M430.5,424.7c-2.2-7.2-5.5-14.4-13.1-17.8c-50.7-22.7-101.3-45.3-152.1-67.7c-5.6-2.5-8.6-5.2-10-11.6
		c-6.5-29.6-36.7-48.3-66.2-41.6c-29.4,6.6-48.3,36.7-41.7,66.3c0.5,2.1,0.9,4.1,0.3,6.3c-2.7,10.9-2.9,22.1-2,33.3
		c1.2,15.8,4.9,31,14,44.2c2.8,4.1,2.4,6-0.9,9.2c-22.8,22.4-45.4,45.1-68.1,67.7c-1,1-3.1,1.7-2.4,3.8c1.2,3.6,5.1,4.5,8.2,2
		c2.2-0.9,3.9-2.5,5.5-4.1c10-10,20-20,30-30c11.1-11.1,22.1-22.1,33.2-33.2c1.2-1.2,2.3-2.6,4.3-2c2.1,0.6,2.7,2.3,2.8,4.3
		c0.2,3.4,1.4,6.5,3.1,9.4c4.6,7.8,11.6,7.8,16.2,0c5.9-9.9,3.8-24-4.9-31.9c2.3,0.8,3.6,2.7,5.1,4.2c26.2,26.1,52.3,52.3,78.4,78.4
		c1.9,1.9,3.7,3.8,6.1,5c2.5,3,4.3,1.8,6.7-0.5c3-2.8,0.4-3.9-1.1-5.4c-7.2-7.2-14.3-14.5-21.6-21.5c-2.1-2-3-4-2.9-6.9
		c0.2-12.7,0-25.3,0.1-38c0-2.8-0.8-3.7-3.6-3.6c-5.7,0.2-11.3,0.2-17,0c-2.9-0.1-3.6,0.9-3.5,3.7c0.2,5.6,0.1,11.2,0.1,17.9
		c-6.7-6.7-12.6-12.7-18.7-18.6c-1.8-1.8-0.1-2.5,0.7-3.5c9.5-11.8,14-25.7,15.4-40.4c0.9-9.3,1.9-17.6,10.4-24
		c3.9-2.9,6-3.3,10.5-1.9c11.4,3.6,18.2,10.4,20.9,22.4c1.7,7.7,10,10.6,17.3,7.4c4.7-2.1,9.4-4.3,14.1-6.4c6.4-2.9,7.3-2.5,8.9,4.2
		c2.3,9.5,4.5,18.9,6.9,29.1c6.6-5,12.6-9.6,18.7-14.2c6.7-5.1,7.6-4.8,10.1,3c1.1,3.5,2.3,6.9,3.5,10.4
		c3.5,10.6,13.5,13.9,21.8,6.5c4.6-4.1,8.4-4.5,13.5-1.5c11,6.5,22.2,10,34.2,2.2c0.3-0.2,0.6-0.2,0.9-0.3
		C428.4,436.2,432.3,430.7,430.5,424.7z M241.5,455.5c-0.3-3.1,0.1-4.7,4.1-4.7c4,0,4.1,1.7,4,4.7c-0.2,7.9-0.1,15.9-0.1,24.1
		c-7.2-3.9-8.9-9.7-8-16.7C241.8,460.6,241.7,458,241.5,455.5z M211.2,435.2c-2,3-3.5,4-6.5,0.7c-5-5.6-10.6-10.6-15.8-16
		c-2-2.1-3.2-2.1-5.1,0c-4.2,4.5-8.7,8.7-12.9,13.2c-2,2.2-3.1,2.1-4.8-0.4c-7.9-11.8-11.2-25.1-12.4-39c-0.7-7.8-0.5-15.6,0.2-24.3
		c16.7,23.5,42.5,32.8,69.8,22.1C223.3,407.1,220,421.9,211.2,435.2z M216.5,385.5C193,393,167.8,382,158,360
		c-1.1-2.6-1.5-4.8-0.4-7.6c3.4-8.6,7.9-16.5,15-22.6c1.6,0.8,0.6,2.1,0.6,3.1c-0.3,11.2,8.8,21,19.6,21c10.3-0.1,19.9-10,19.5-20.2
		c-0.4-10.9-10.3-19.3-21.6-19c-14.9,0.5-24.5,9.1-32.6,20.3c-1.2,1.7-2.4,3.5-4.3,6.4c0.5-26,17.8-45.9,41-48.4
		c26.2-2.7,47.7,12.3,53.2,37.1C253.3,354.1,239.7,378,216.5,385.5z M181.2,334.1c0-7.1,4.5-11.5,11.6-11.4
		c6.9,0,11.6,4.7,11.6,11.6c0,6.8-4.9,11.6-11.7,11.6C185.8,345.8,181.2,341.1,181.2,334.1z M420.7,430.7c-4.3,1.8-8.7,3.3-13,5
		c-2,0.8-3.6-0.3-5.2-1c-6.7-2.9-13.4-5.7-20-8.9c-2.7-1.3-4.5-1.1-6.6,0.9c-2.3,2.2-4.9,4-7.4,6c-4.5,3.5-6.5,2.9-8.4-2.4
		c-1.5-4.4-2.9-8.8-4.4-13.2c-3.1-9.2-12.5-12.1-20.3-6.2c-3.3,2.5-6.6,5-10.5,8c-1.5-6.4-2.9-12.1-4.2-17.7
		c-2.3-9.6-9.8-13.3-19-9.2c-4.9,2.2-9.8,4.2-14.5,6.6c-3.7,1.8-5.9,1.1-7.1-2.9c-1.6-4.9-3.6-9.6-5.1-14.6
		c-0.8-2.9-2.5-4.4-5.1-5.5c-5.7-2.3-11.2-5-16.9-7.4c-2.3-0.9-2.6-1.9-1.4-4c2.5-4.6,4.5-9.5,4.7-14.6c0.3-5.7,2.4-4.6,6-3
		c13.9,6.3,27.9,12.4,41.9,18.7c35.8,15.9,71.6,32,107.5,47.7c6.2,2.7,8.3,8.3,11.5,13.1C424.5,428.2,422.6,429.9,420.7,430.7z"/>
	<path class="st2" d="M185.8,450.2c-0.1,2.1-0.1,4.1-0.4,6c-0.2,1.3-0.4,3.7-2.1,3.2c-1.8-0.5-2.4-3.1-1.6-4.7
		c1.7-3.5,4.9-6.6,0.1-10.3c-0.9-0.7,0-3.3,1.4-3.7c1.8-0.6,1.9,1.6,2.1,2.6C185.7,445.7,185.7,448,185.8,450.2z"/>
	<path class="st1" d="M253.5,514.9c-3.3,0-4.4,1.1-4.2,4.2c0.1,25.7,0.1,51.3,0.2,77c0,2.5-0.8,3.1-3.2,3c-5.7-0.1-11.3-0.3-17,0
		c-3.5,0.2-4-1.2-4-4.3c0.1-18.5,0-37,0.1-55.5c0-3.5-0.8-4.5-4.3-4.4c-13.3,0.2-26.7,0.2-40,0c-3.2,0-3.8,0.9-3.8,3.9
		c0.1,18.5,0,37,0.1,55.5c0,3.5-0.5,4.9-4.5,4.8c-16-0.3-32-0.2-48-0.1c-2.7,0-3.7-0.6-3.7-3.5c0.2-25.5,0.2-51,0.2-76.5
		c0,0,0,0,0,0c0,0,0,0,0,0c0.3-3.1-0.9-4.2-4.2-4.2c-3.3,0-4.4,1.1-4.2,4.2c0.1,27.8,0.2,55.7,0.1,83.5c0,3.9,1.1,4.6,4.7,4.6
		c20.8-0.2,41.7-0.2,62.5,0c4.4,0.1,5-1.4,5-5.3c-0.2-18.3,0-36.7-0.2-55c0-3,0.6-4,3.8-3.9c8,0.2,16,0.3,24,0
		c3.6-0.1,4.4,1,4.3,4.4c-0.2,18.2,0.1,36.3-0.2,54.5c-0.1,4.7,1.4,5.4,5.5,5.3c9.8-0.3,19.7-0.3,29.5,0c4.1,0.1,5.2-0.8,5.2-5.1
		c-0.2-27.7,0-55.3,0-83C257.9,516,256.8,514.9,253.5,514.9z"/>
</g>
</svg>
