<?xml version="1.0" encoding="utf-8"?>
<!-- Generator: Adobe Illustrator 19.0.0, SVG Export Plug-In . SVG Version: 6.00 Build 0)  -->
<svg version="1.1" id="Calque_1" xmlns="http://www.w3.org/2000/svg" xmlns:xlink="http://www.w3.org/1999/xlink" x="0px" y="0px"
	 viewBox="0 0 612 792" style="enable-background:new 0 0 612 792;" xml:space="preserve">
<style type="text/css">
	.st0{fill:#3765AE;}
	.st1{fill:#446EB3;}
	.st2{fill:#426DB3;}
	.st3{fill:#3E6BB1;}
	.st4{fill:#436EB3;}
	.st5{fill:#3F6BB1;}
	.st6{fill:#416CB2;}
	.st7{fill:#406CB2;}
	.st8{fill:#3D6AB1;}
	.st9{fill:#3F6BB2;}
	.st10{fill:#3E6AB1;}
	.st11{fill:#3D69B1;}
</style>
<g>
	<path class="st0" d="M463.5,349.6c-2.8-18.6-11.2-34.4-23-48.6c-19.6-23.8-42.5-44.1-67.7-61.8c-15.8-11.1-33.8-16.9-52.6-18.7
		c-20-1.8-38.1,5.4-54.1,17.1c-29.7,21.6-53.8,48.7-73.7,79.4c-10.2,15.7-14.5,33.8-15.8,51.6c0.4,4.1,0.5,7.3,0.9,10.4
		c2.6,17.8,10.8,33.2,22,46.9c20.1,24.7,43.7,45.8,69.9,63.8c16.3,11.2,34.8,17.1,54.3,18c23.1,1,42.6-9.4,60-23.7
		c23.8-19.6,44-42.6,61.8-67.7c4.7-6.7,8.5-14,11.1-21.7C461.5,379.9,465.8,365.3,463.5,349.6z M416.3,413.5
		c0.3,3.2-2.1,2.7-4.1,2.7c-30.3,0-60.7,0-91,0c-21.5,0-43,0.1-64.5,0c-14.6-0.1-26.3-8.8-30.7-22.6c-4.5-14,0.2-29,12.2-37.1
		c3.9-2.6,5-5.2,4.6-9.7c-1.7-21.7,12.9-40.3,34.2-44.4c21.2-4.1,41.5,7.9,48,28.8c1.3,4.3,2.9,5,6.7,3.2c3.3-1.6,6.7-2.8,10.1-4.2
		c5-2,5.4-1.9,5.4,3.5c0.1,22.2,0,44.3,0.1,66.5c0,1.9-0.5,4,1.7,7.1c0-5.6,3-5.8,6.4-5.5c1.2,0.1,2.3,0.1,3.5-0.1
		c1.5-0.1,3.2-0.3,3-2.5c-0.1-1.7-1.5-2-2.9-2.1c-2.2,0-4.3,0-6.5,0c-1.5,0-2.7-0.4-2.8-2.1c-0.1-2,1.4-1.9,2.8-1.9c2,0,4,0.2,6,0.2
		c1.4,0,3.2,0.3,3.4-1.9c0.2-2.1-1.3-2.4-2.9-2.5c-2-0.2-4-0.4-6-0.6c-1.4-0.1-3.4,0.2-3.3-2c0.1-2.5,2.1-2,3.7-2
		c1.5,0.1,3,0.4,4.5,0.5c1.6,0.1,3.6,0.8,3.9-1.7c0.3-2.7-1.9-2.7-3.7-2.8c-1.8-0.1-3.7-0.2-5.5-0.3c-1.6-0.1-3.1-0.6-3.1-2.5
		c0.1-2.3,1.8-1.9,3.3-1.7c2.2,0.2,4.3,0.3,6.5,0.4c1.2,0,2.4-0.1,2.5-1.7c0.1-1.4-0.8-2.1-2.1-2.3c-2.1-0.3-4.3-0.7-6.4-0.9
		c-1.9-0.2-4.2-0.3-3.6-2.9c0.5-2.4,2.8-1.1,4.2-1.1c1.3,0,2.6,0.6,3.9,0.7c1.5,0.1,3.6,1.1,4-1.5c0.3-2.5-1.8-2.4-3.4-2.8
		c-1.9-0.5-3.9-0.7-5.9-1.1c-1.6-0.3-3.6-0.6-3.1-3c0.5-2.2,2.3-1.3,3.7-1c1.8,0.3,3.6,0.6,5.4,1c1.4,0.3,2.8,0.5,3.2-1.3
		c0.4-1.6-0.7-2.5-2.1-2.9c-2.6-0.7-5.2-1.1-7.8-1.7c-1.5-0.4-3-1.1-2.4-3c0.6-1.8,2-1.2,3.3-0.8c1.9,0.5,3.9,1,5.8,1.3
		c1.2,0.2,2.8,0.8,3.1-1.3c0.3-1.6-0.7-2.5-2.2-2.8c-2.4-0.6-4.8-1.3-7.3-1.8c-1.6-0.3-3.1-1-2.9-2.8c0.4-2.3,2.3-1.4,3.6-1.1
		c1.8,0.3,3.5,1,5.3,1.4c1.2,0.3,2.7,1.1,3.3-0.8c0.6-1.8-0.6-2.8-2.2-3.3c-2.1-0.6-4.2-1.1-6.2-1.8c-1.6-0.5-3.1-1.2-3.7-3
		c-0.5-1.4-1.2-2.9,0-4.2c1.1-1.2,2.5-0.3,3.7,0.1c10.7,3.2,10.8,3.2,10.8,14.4c0.1,19.5,0.1,39,0.1,58.5c0,1.8-0.5,4.3,2.1,4.2
		c2.7-0.1,1.8-2.8,1.8-4.4c0-26.8,0.1-53.7-0.1-80.5c0-5,1.5-8.1,6.1-10.2c5-2.2,9.7-5.1,14.5-7.7c1-0.5,1.5-2.2,2.9-1.4
		c1.2,0.7,0.7,2,0.7,3.2c-0.1,20.3-0.1,40.7-0.1,61c0,12.2,0,24.3,0,36.5c0,0.9-0.3,2,1.2,3c0.7-6.2,5.3-4.5,9.1-4.8
		c1.6-0.1,4.2,0.8,4.3-2c0.1-3.2-2.7-2.2-4.5-2.3c-1.8-0.2-3.7-0.1-5.5-0.2c-1.3-0.1-2.2-0.8-2.3-2.2c0-1.6,1.1-1.9,2.4-1.8
		c2.5,0.1,5,0.2,7.5,0.2c1.2,0,2.4-0.1,2.4-1.8c0-1.4-0.7-2.2-2-2.3c-2.5-0.3-5-0.6-7.4-0.9c-1.3-0.2-2.9-0.2-2.7-2.1
		c0.2-2.1,1.8-2.1,3.3-1.9c2.1,0.3,4.3,0.6,6.4,0.8c1.2,0.1,2.4,0,2.5-1.7c0.1-1.4-0.5-2.2-1.9-2.4c-2.6-0.4-5.3-0.7-7.9-1.1
		c-1.4-0.2-2.6-0.9-2.3-2.6c0.3-1.6,1.7-1.4,2.8-1.3c2.1,0.2,4.3,0.5,6.4,0.8c1.2,0.2,2.4,0.4,2.8-1.2c0.4-1.6-0.4-2.7-1.9-3
		c-2.6-0.6-5.2-1-7.8-1.5c-1.4-0.3-2.7-0.8-2.5-2.5c0.2-2,1.8-1.6,3.1-1.4c2,0.2,3.9,0.7,5.9,1c1.2,0.2,2.8,0.9,3.2-1.1
		c0.3-1.9-0.9-2.6-2.6-3c-2.4-0.5-4.9-1.1-7.3-1.7c-1.5-0.3-2.6-1.1-2.2-2.7c0.5-1.9,1.9-1.3,3.2-1c1.8,0.4,3.5,0.9,5.4,1.2
		c1.2,0.2,2.8,1.1,3.4-0.7c0.6-2.1-0.8-2.9-2.7-3.4c-2.3-0.6-4.5-1.1-6.7-1.9c-1.5-0.5-3.6-0.9-2.9-3.2c0.7-2.2,2.5-0.8,3.8-0.5
		c1.8,0.4,3.5,1.1,5.3,1.6c1.2,0.3,2.7,1.1,3.2-0.9c0.4-1.6-0.5-2.5-2-3c-2.4-0.8-4.7-1.6-7.1-2.3c-1.6-0.5-3.7-1.1-3.1-3.1
		c0.7-2.6,2.6-1,4.1-0.5c1.6,0.5,3.2,1,4.7,1.5c1.2,0.4,2.6,1.5,3.3-0.5c0.6-1.6-0.4-2.6-1.7-3.1c-2.8-1.1-5.6-2.1-8.3-3.3
		c-1.4-0.6-3-1.4-2.1-3.3c0.8-1.8,2.3-0.6,3.4-0.1c1.7,0.7,3.4,1.5,5.1,2c1.3,0.4,3,1.7,3.7-0.6c0.6-1.9-1-2.6-2.4-3.2
		c-2.4-1.1-4.9-2.1-7.3-3.1c-1.6-0.7-3.4-1.5-2.4-3.6c1-2,2.6-0.4,3.9,0.1c1.7,0.6,3.3,1.6,5,2.3c1.1,0.4,2.5,1.6,3.3-0.3
		c0.6-1.5-0.3-2.6-1.6-3.2c-2.7-1.3-5.4-2.6-8.1-3.8c-1.6-0.7-3.5-2-2.6-3.6c1.1-2.2,2.9-0.1,4.2,0.4c1.7,0.7,3.3,1.6,4.9,2.4
		c1,0.5,2.3,1.4,3.1,0c0.8-1.4-0.1-2.6-1.4-3.3c-2.2-1.2-4.4-2.3-6.6-3.5c-1.5-0.8-2.9-1.6-3.8-3.1c-1-1.7-1.5-3.7-0.2-5.1
		c1.4-1.5,2.7,0.4,3.8,1.2c13.5,9.2,11.1,4,11.2,20.3c0.2,25.3,0.1,50.7,0,76c0,3.3-0.4,6.1,4.6,6.3
		C417.8,407.4,416.1,411.2,416.3,413.5z"/>
	<path class="st0" d="M284.5,408.8c-8.7,0-17.3,0.1-26,0c-13.2-0.1-23.1-8-26-20.6c-2.6-11.3,3.3-23,14.6-28.3
		c4-1.9,5.1-3.7,4.1-8.3c-4.2-19.3,7.3-37.4,25.7-41.6c18.7-4.2,37,7.4,41.8,25.9c3.4,13.2,3.6,26.5,3.4,40c-0.1,7.7,0,15.3,0,23
		c0,5.3-4.7,9.9-10.1,9.9C302.8,408.9,293.7,408.9,284.5,408.8C284.5,408.9,284.5,408.8,284.5,408.8z"/>
	<path class="st1" d="M379.8,393.9c-1.7,0-2.8,0-4,0c-1.6,0-2.6-0.7-2.6-2.3c0-1.5,1-2.3,2.5-2.5c2.9-0.3,5.9-0.6,8.8-0.8
		c1.3-0.1,2.2,0.5,2.4,1.9c0.2,1.5-0.2,2.7-1.8,3C383.3,393.6,381.3,393.7,379.8,393.9z"/>
	<path class="st2" d="M334.9,396.8c2.2,1,6.4-1.8,6.5,2.3c0.2,4.5-4.2,2.6-6.6,2.6c-2.3,0-6.5,1.7-6.6-2.1
		C328.1,395,332.7,398,334.9,396.8z"/>
	<path class="st3" d="M334.6,393.5c-2.2-0.8-5.9,1.4-6.2-2.1c-0.3-3.6,3.8-2.6,5.8-2.9c2.4-0.4,6.7-2.2,7.2,1.6
		C341.9,394.9,336.8,392,334.6,393.5z"/>
	<path class="st4" d="M331.4,360.1c-1.5,0-2.9,0.3-3.2-1.2c-0.4-1.6,0.6-2.4,2-2.8c2.7-0.8,5.4-1.5,8-2.3c1.3-0.4,2.6-0.8,3.2,0.9
		c0.6,1.7-0.2,2.9-1.9,3.4C336.8,358.8,333.9,359.5,331.4,360.1z"/>
	<path class="st4" d="M333.2,385c-0.8,0.1-1.7,0.1-2.5,0.1c-1.2,0-2.4,0-2.6-1.6c-0.2-1.6,0.6-2.6,2.1-2.8c3.1-0.4,6.2-0.7,9.3-1
		c1.1-0.1,2,0.5,2.1,1.6c0.2,1.3-0.2,2.4-1.6,2.6c-2.3,0.5-4.5,0.8-6.8,1.2C333.2,385.1,333.2,385.1,333.2,385z"/>
	<path class="st5" d="M387,312.2c-0.1,1.6-1.1,2.4-2.3,3c-2.7,1.3-5.3,2.7-8,4c-1,0.5-2,1.5-2.9-0.1c-0.7-1.2-0.3-2.4,0.8-3
		c3.4-2,6.9-3.9,10.4-5.6C386.6,309.7,386.9,311,387,312.2z"/>
	<path class="st6" d="M384.1,345.2c1.8-0.3,2.6,0,2.9,1.3c0.2,1.3-0.1,2.5-1.3,2.9c-3.3,1.2-6.6,2.2-9.9,3.2c-1,0.3-1.6,0-1.9-1
		c-0.3-1.2-0.1-2.5,1.1-3C378.1,347.3,381.4,346.2,384.1,345.2z"/>
	<path class="st7" d="M330,368.7c-0.6,0.1-1.5-0.2-1.9-1.3c-0.4-1.3,0.1-2.5,1.3-2.8c3.3-0.9,6.7-1.6,10.1-2.3
		c1.2-0.2,1.8,0.7,1.9,1.8c0.1,1.3-0.5,2.4-1.7,2.7C336.7,367.4,333.6,368,330,368.7z"/>
	<path class="st8" d="M331.8,376.7c-1.6,0.2-3.1,0.4-3.6-1.3c-0.5-1.9,0.8-2.8,2.4-3.1c2.8-0.6,5.6-0.9,8.4-1.4
		c1.3-0.2,2.4,0.2,2.6,1.7c0.2,1.3-0.4,2.3-1.7,2.6C337,375.8,334.3,376.3,331.8,376.7z"/>
	<path class="st4" d="M386.8,355.2c0.1,2.3-0.9,3.1-2.3,3.5c-2.7,0.8-5.4,1.5-8.1,2.1c-1.2,0.3-2.4,0.4-2.8-1.1c-0.3-1,0-2.2,1-2.5
		c3.4-1.1,6.9-2.1,10.4-3C386.2,353.8,386.8,354.7,386.8,355.2z"/>
	<path class="st9" d="M377,368.9c-2,0.3-3.2,0.2-3.4-1.3c-0.2-1.3,0.4-2.2,1.7-2.6c3-1,6-1.8,9.2-2c1-0.1,2.1-0.1,2.4,1.2
		c0.3,1.3-0.1,2.4-1.4,2.8C382.4,367.7,379.3,368.4,377,368.9z"/>
	<path class="st10" d="M386.9,329.9c0,1.7-1.3,2.3-2.5,2.8c-2.6,1.1-5.2,2.1-7.8,3.1c-1,0.4-2.2,1.3-2.9-0.4c-0.6-1.3,0-2.5,1-3
		c3.3-1.6,6.6-3,10-4.3C386,327.6,386.9,328.4,386.9,329.9z"/>
	<path class="st7" d="M331.3,351.9c-1.4,0.2-2.6,0.3-3-1.2c-0.4-1.4,0.5-2.2,1.6-2.6c2.9-1,5.9-2,8.9-2.9c1.2-0.4,2.4-0.2,2.7,1.3
		c0.3,1.3-0.2,2.3-1.5,2.7C337,350,334,351,331.3,351.9z"/>
	<path class="st2" d="M377.4,377.1c-1.6,0-3.4,0.8-3.8-1.3c-0.4-2.1,1.1-2.7,2.9-3c2.4-0.4,4.8-0.9,7.2-1.5c1.5-0.3,2.7-0.2,3,1.6
		c0.3,1.7-0.3,2.9-2.2,3.1C382.1,376.4,379.7,376.8,377.4,377.1z"/>
	<path class="st10" d="M375.6,385.5c-0.4,0-1.7-0.2-1.8-2c-0.1-1.4,0.8-2.2,2-2.4c2.6-0.4,5.2-0.9,7.9-1.1c1.5-0.1,3.2-0.3,3.3,2
		c0.1,2-1.4,2.5-2.9,2.7C381.6,385,379.1,385.2,375.6,385.5z"/>
	<path class="st11" d="M387,320.9c0.1,1.6-1,2.4-2.2,3c-2.7,1.2-5.4,2.4-8.1,3.6c-0.9,0.4-2,1.1-2.6,0c-0.7-1.2-0.4-2.7,0.9-3.4
		c3.2-1.7,6.5-3.3,9.8-4.8C386.2,318.6,386.8,319.5,387,320.9z"/>
	<path class="st2" d="M341.7,338c-0.1,1.3-0.9,2.2-2,2.7c-2.6,1-5.3,1.9-7.9,2.8c-1,0.4-2,0.6-2.5-0.7c-0.4-1-0.4-2.2,0.6-2.7
		c3.3-1.5,6.7-2.8,10.1-4C341,335.7,341.5,336.9,341.7,338z"/>
	<path class="st5" d="M386.9,338.3c0.1,1.7-0.9,2.4-2.3,2.9c-2.7,0.9-5.3,1.9-8,2.8c-0.8,0.3-2,1-2.7-0.2c-0.6-1.1-0.4-2.6,0.7-3.1
		c3.5-1.6,7-3,10.6-4.2C386.5,336,386.8,337.3,386.9,338.3z"/>
	<path class="st6" d="M379.9,401.9c-0.5,0-1,0.1-1.5,0c-1.8-0.3-4.6,0.9-4.7-2.1c0-3.2,2.9-1.9,4.6-2.1c1.8-0.2,3.7-0.1,5.5-0.1
		c1.3,0,2.9,0,3,1.8c0.1,2-1.3,2.5-3,2.5C382.6,401.9,381.3,401.9,379.9,401.9z"/>
</g>
</svg>
