<?xml version="1.0" encoding="utf-8"?>
<!-- Generator: Adobe Illustrator 19.0.0, SVG Export Plug-In . SVG Version: 6.00 Build 0)  -->
<svg version="1.1" id="Calque_1" xmlns="http://www.w3.org/2000/svg" xmlns:xlink="http://www.w3.org/1999/xlink" x="0px" y="0px"
	 viewBox="0 0 612 792" style="enable-background:new 0 0 612 792;" xml:space="preserve">
<style type="text/css">
	.st0{fill:#7EBC3F;}
	.st1{fill:#77B83F;}
	.st2{fill:#B7DA86;}
	.st3{fill:#88C33F;}
	.st4{fill:#FEFEFE;}
	.st5{fill:#5F892D;}
	.st6{fill:#5B862D;}
	.st7{fill:#58852C;}
	.st8{fill:#618B2D;}
	.st9{fill:#81BE3F;}
	.st10{fill:#5B872C;}
</style>
<g>
	<path class="st0" d="M276,158c13.3,0,26.7,0,40,0c7.5,0.9,15.2,1,22.7,1.6c10.5,0.7,20.7,3.3,30.7,6.3
		c25.2,7.4,48.9,18.3,70.7,33.1c2.1,1.4,4.9,2.6,4.3,6c-1.6,2.2-3.7,2.2-5.7,1c-3-1.7-4.3-0.9-4.3,2.5c0,10.5-0.1,20.9,0.1,31.4
		c0.1,2.8,1.2,5.1,3.5,6.8c0.5,0.4,1.1,0.8,1.6,1.2c14.4,12.3,25.2,27.6,36.1,42.9c1.5,2.1,2.8,4.3,0.3,6.6c-4.1,0.5-5.3-3-7-5.4
		c-7.3-9.9-15-19.6-23.9-28.1c-22.6-21.6-48.3-38-78.4-47.3c-6-1.9-11.9-4.2-18.3-4.7c-4.3-0.3-5.5,0.4-5.8,4.7
		c-0.1,1.8-0.1,3.7-0.1,5.5c0,34.3,0,68.7,0,103c0,1.8,0,3.7,0,5.5c-0.1,8.8-0.6,9.3-9.3,11.1c-4.2-0.7-6.7-4.1-9.7-6.6
		c-7.4-6.2-14.9-12.3-22-18.8c-3-2.8-5.8-2.4-8.8,0.2c-25.3,21.9-50.9,43.4-76.3,65.1c-9.6,8.2-19.2,16.5-29,24.5
		c-2.1,1.7-6.5,4.2-4.3,6.7c2.7,3.2,5.3-1.2,7.6-3.1c2.4-2,4.9-4,7.4-6c3.7-2.9,6.7-1.6,7.3,3c0.3,2.3,0.2,4.7,0.2,7
		c0,31.2,0,62.3,0,93.5c0,8.1,0.4,8.5,8.4,8.5c16.5,0,33,0,49.5,0c6.7,0,7.4-0.7,7.4-7.5c0.1-15,0-30,0-45c0-1.8-0.1-3.7,0.4-5.5
		c0.6-2,1.4-4,4.1-2.2c1.4,1.9,1.2,4.1,1.2,6.3c0.1,16.8,0.1,33.6,0,50.4c-0.1,8.1-1.1,9.1-9.4,9.2c-14.6,0.1-29.3,0-43.9,0.1
		c-2.1,0-4.3-0.4-6.1,1.1c0.4,1.6,1.6,1.5,2.5,1.4c17-0.7,33.9-0.1,50.9-0.3c7.1-0.1,8.3-1.3,8.3-8.6c0.1-15.1-0.1-30.3,0.1-45.4
		c0.1-8.6,1.3-9.7,10-9.9c6.2-0.1,12.3-0.2,18.5,0c5.1,0.2,9.5-0.6,12.8-4.9c4.1,0.7,3.4,4.1,3.4,6.6c0.3,13.1,0.1,26.2,0.1,39.4
		c0,2.2,0,4.3,0,6.5c0.1,7.1,1.3,8.3,8.6,8.3c9.5,0.1,18.9,0,28.4,0c7.8,0,15.6-0.1,23.4,0.1c2.5,0,5-0.2,7,1.8
		c0.9,2.7-1,3.1-2.8,3.5c-2.1,0.5-4.3,0.4-6.5,0.4c-13.5,0-27,0-40.4,0c-1.9,0-4-0.5-6,1c1.8,1.6,3.8,1.1,5.7,1.1
		c16.5,0.1,33,0,49.4,0.1c2.8,0,5.7-0.4,8.2,1.3c2,2.8-0.2,3.5-2.2,4c-1.9,0.5-4,0.4-6,0.4c-13.3,0-26.7,0-40,0
		c-7,0-7.9,0.9-7.9,7.7c-0.1,24.2-0.1,48.3,0,72.5c0,6.4,1,7.4,7.4,6.3c12.4-2.1,24.2-6.2,35.6-11.3c23.9-10.8,45.3-25.4,63.5-44.3
		c8.5-8.7,16-18.3,22.9-28.3c1.3-1.8,2.4-3.7,5.1-3.2c2.9,2.7,0.9,5.3-0.6,7.6c-4.6,7.3-10.3,13.9-15.4,20.8
		c-7,9.4-14.9,17.7-23.9,25.2c-2.4,2-2.7,4.8-2.7,7.7c-0.1,13.5,0,26.9-0.1,40.4c-2,5-6.9,6.7-10.9,9c-23,13.1-47.4,22.4-73.4,27.7
		c-9.6,1.9-19.5,1.9-29.2,2.6c-1.3,0.1-2.7-0.4-3.9,0.5c-13.3,0-26.7,0-40,0c-7.4-1-14.8-1.1-22.3-1.6c-10.9-0.8-21.3-3.5-31.7-6.7
		c-34.1-10.5-65.2-26.8-92.4-50.1c-26.6-22.8-48.5-49.4-64.2-80.8c-10.1-20.2-18-41.2-22.3-63.4c-2.2-11.4-2.5-23.1-2.6-34.7
		c-0.3-3.2,0.6-6.4-0.5-9.6c0-6,0-12,0-18c1.1-3.1,0.2-6.4,0.5-9.5c-0.6-31.2,7.5-60.4,20.3-88.6c10.4-22.7,23.6-43.6,40.1-62.3
		c20.6-23.2,44.1-42.8,71.5-57.6c22-11.9,45.1-20.5,69.5-25.7c9.8-2.1,19.8-2,29.7-2.8C273.8,158.4,275,158.9,276,158z"/>
	<path class="st1" d="M476,297c-2.4-7.1-7.7-12.4-12-18.2c-4.3-5.9-9-11.5-13.6-17.2c-3.8-4.7-8.7-8.6-13.5-12.5
		c-3.5-2.8-5.1-5.8-5-10.2c0.1-11.1,0-22.3,0.1-33.5c0-1.6-0.6-3.6,1.1-4.6c2-1.1,3.4,0.8,4.8,1.8c1.9,1.5,3.9,2.6,6.4,2.2
		c2.8-2.1,4.8,0.3,6.6,1.6c5.9,4.1,11.4,8.7,16.7,13.4c23.5,21.2,43.2,45.4,58,73.7c11,21.1,19.1,43.2,24.1,66.4
		c2.1,9.9,2,20.1,2.8,30.2c0.1,1.6-0.5,3.3,0.5,4.9c0,13,0,26,0,39c-1,7.2-1,14.5-1.6,21.7c-0.8,11.4-3.8,22.3-7,33.1
		c-10.8,35.4-28.1,67.2-52.7,94.8c-15.2,17-31.8,32.7-51.1,45.1c-2.2,1.4-4.5,3.9-7.5,1.3c-1.2-2.3-1-4.8-1-7.3
		c0-11.3,0-22.6,0-33.9c0-3.3,0.5-6.4,3.3-8.5c13.6-10,22.9-23.9,33.1-36.9c3.5-4.4,7.1-8.8,8.7-14.4c-1.7-2.4-0.4-4.4,0.8-6.4
		c15.5-25.4,24.9-53,28.5-82.4c4.5-37.2-0.3-73.3-14.9-108c-4-9.5-8.6-18.7-14.1-27.5C476,302.5,473.5,300,476,297z"/>
	<path class="st2" d="M41,395c0.3-0.2,0.5-0.3,0.9-0.2c0.3,3.4,0.7,6.9-0.9,10.2C41,401.7,41,398.3,41,395z"/>
	<path class="st2" d="M41.9,433.2l-0.5,0L41,433c0-3.3,0-6.7,0-10C42.5,426.3,42.2,429.7,41.9,433.2z"/>
	<path class="st3" d="M476,297c4.4,8,9,15.9,13,24.1c11,22.5,17.7,46.2,20.1,71.1c4.2,43.1-3.6,83.7-23.7,122
		c-2.6,5-5.6,9.8-8.4,14.8c-3.9,5.2-7.8,10.3-11.6,15.5c-23,30.6-53,52-88.3,66.1c-9.3,3.7-19,6.9-29.2,8.2
		c-6.9,0.8-7.9,0.2-7.9-6.8c0-25.6,0-51.3,0-76.9c0-7.7,0.4-8.1,8.3-8.1c14.8,0,29.6,0,44.4,0c2.1,0,4.4,0.4,6.3-1
		c-3-2.5-2.3-6.1-2.4-9.3c-0.1-30.5,0-61,0-91.4c0-3.2-0.1-6.3,0.1-9.5c0.1-1.8,0-3.7,1.3-5.2c1.8-1.8,3.8-1.7,5.8-0.3
		c2.8,2,5.8,3.9,7.5,7.1c1.3,1.5,2.7,2.9,4.4,3.9c1.4,0.9,2.9,2.1,4.3,0.2c1.2-1.6,0-2.7-1.1-3.8c-1.3-1.3-2.8-2.4-4-3.8
		c-6.4-7.5-14.5-13.1-21.9-19.5c-14.6-12.8-29.7-25-44.3-37.8c-4.5-3.9-9.5-7.3-13.6-11.7c-1.2-1.3-3.5-2.4-2-4.9
		c5.4-0.9,7-3.9,7-9.4c-0.3-38.3-0.1-76.6-0.1-114.9c0-6.8,0.9-7.7,7.5-6.4c31,5.7,58.1,19.6,82.8,38.7c16.9,13,30.7,28.9,43,46.2
		C474.1,295.1,475.1,296,476,297z"/>
	<path class="st4" d="M410,418.5c-3.3-2.8-6.6-5.6-9.9-8.3c-1.2,0-2.3,0.3-3.5-0.1c-2.2-0.6-3,0.6-3.2,2.6c-0.1,1.7-0.1,3.3-0.1,5
		c0,30.7,0.1,61.3-0.1,92c0,3,1.1,6.5-2.4,8.6c-21.8,0.1-43.6,0-65.4,0.3c-4.1,0-5-1.4-4.9-5.2c0.2-17.6,0.2-35.3,0.2-52.9
		c0-1.8,0.6-3.7-0.6-5.3c-1.9,0.7-3.8,1.2-5.8,1.2c-11.6,0.1-23.1,0.1-34.7,0c-2,0-3.9-0.5-5.8-1.2c-1.2,1.6-0.6,3.5-0.6,5.3
		c-0.1,17.7-0.2,35.3,0.1,53c0,4-1.2,5-5.1,5c-20.1-0.1-40.3-0.1-60.5,0.1c-3.9,0-5-1.1-5-5c0.2-34.8,0.2-69.6,0.2-104.4
		c0-1.8,0-3.6,0-6.7c-6.2,5.2-11.7,9.4-16.7,14.2c-3.5,3.4-4.5,0.3-6.4-1.5c-2.2-2.2-2.9-3.6,0.1-6.1c37.8-31.9,75.5-63.9,113-96.1
		c3.4-2.9,5.1-2.4,8.1,0.2c10.5,9.2,21.3,18.1,32,27c20.2,17.3,40.4,34.6,60.6,51.9c6.7,5.7,13.4,11.4,20.1,17.1
		c1.2,1,3.1,1.7,2.2,3.9C415.7,418.2,414.3,419.5,410,418.5z"/>
	<path class="st5" d="M390.9,518.3c0.1-14.7,0.2-29.3,0.2-44c0-22,0-44,0-66c0-1.6,0-3.2,0-6c3.6,3.1,6.3,5.4,9,7.8
		c-1.5,2.2-1.1,4.8-1.1,7.3c0,36.2,0,72.4,0,108.6c-21.6,0-43.2,0.1-64.8,0.1c-2.5,0-5.2,0.3-5.2-3.6c0-3.9,2.8-3.4,5.3-3.4
		c17,0,33.9,0,50.9,0C387,519.1,389.1,519.6,390.9,518.3z"/>
	<path class="st6" d="M273.9,455.1c7.2-1.4,14.4-0.6,21.7-0.6c8.2,0,16.4-0.9,24.6,0.6c-0.5,7-0.5,7-7.5,7c-8.5,0-17,0.2-25.5-0.1
		c-4.5-0.1-6.2,1.4-6.1,6c0.2,16.7,0.1,33.3,0.1,50c0,8.1,0,8.1-8.3,8.1c-15.2,0-30.3,0-45.5,0c-3.6,0-7.3,0.6-10.9,0.6
		c-2.7,0-5.5-0.4-5.4-4.3c0.1-4,2.9-3.3,5.3-3.3c17.2,0,34.3-0.1,51.5,0.1c4.6,0.1,6.5-1.2,6.4-6.1
		C273.9,493.8,273.9,474.4,273.9,455.1z"/>
	<path class="st7" d="M201.2,405.8c2.5,9.7-0.6,16.7-8.7,20c-2.9,1.2-3.6-1.7-4.9-3.2c-1.1-1.2-3-2.8-0.9-4.6
		C191.4,413.9,196.3,410,201.2,405.8z"/>
	<path class="st8" d="M410,418.5c3-0.8,3.8-4.1,6.1-5.6c1.9,0.4,3,1.9,4.4,3c4.1,3.4,3.8,6.8-0.6,9.7c-1,0.6-1.8,0.9-2.6,0.1
		C414.9,423.2,411.3,422,410,418.5z"/>
	<path class="st9" d="M316.2,385c6.7,9.4,5.7,21.7-2.4,29.8c-8.4,8.5-20.7,9.4-30.6,2.2c-5.8-8.2-5.1-16.7,0.2-24.5
		c5.6-8.4,13.5-12.9,24.1-11.8C310.9,381.1,313.5,383.1,316.2,385z"/>
	<path class="st10" d="M316.2,385c-3.2-0.6-6.3-2-9.7-2.1c-16.8-0.3-27.9,13.4-24.1,29.8c0.3,1.4,1.2,2.8,0.7,4.3
		c-8.5-6.2-11.3-14.7-8.9-24.6c2.3-9.4,8.7-15.5,18.1-17.2C302.1,373.4,310.4,376.3,316.2,385z"/>
</g>
</svg>
