<?xml version="1.0" encoding="utf-8"?>
<!-- Generator: Adobe Illustrator 19.0.0, SVG Export Plug-In . SVG Version: 6.00 Build 0)  -->
<svg version="1.1" id="Calque_1" xmlns="http://www.w3.org/2000/svg" xmlns:xlink="http://www.w3.org/1999/xlink" x="0px" y="0px"
	 viewBox="0 0 612 792" style="enable-background:new 0 0 612 792;" xml:space="preserve">
<style type="text/css">
	.st0{fill:#3CB780;}
	.st1{fill:#D39F80;}
	.st2{fill:#E2E0D2;}
	.st3{fill:#407F67;}
	.st4{fill:#575857;}
	.st5{fill:#24976A;}
	.st6{fill:#40B782;}
	.st7{fill:#438069;}
	.st8{fill:#38A27B;}
	.st9{fill:#EEEDE9;}
	.st10{fill:#DFDDCF;}
	.st11{fill:#D8D7C9;}
	.st12{fill:#C6CCBE;}
	.st13{fill:#C8E5D8;}
	.st14{fill:#538974;}
	.st15{fill:#25976B;}
	.st16{fill:#39A27C;}
</style>
<g>
	<path class="st0" d="M317.6,152c130.3-0.5,236.6,105.3,237.4,236.2c0.7,130.5-105.3,237.2-236.4,237.8
		C188.9,626.6,81.4,520.5,81,391.5C80.6,258.8,185.6,152.6,317.6,152z"/>
	<path class="st1" d="M192.2,525.1c-13.6,0.2-13.1-1.5-13.1-13.7c0-48,0-96,0-143.9c0-5.9-0.6-6.5-6.6-6.2c-1.3,0.1-2.6,0.4-4,0.3
		c-6-0.1-7.1-1.9-7.8-7.9c-1.1-9.7,2.3-16,9.8-22.5c32.8-28.4,65-57.7,97.4-86.6c13.3-11.9,26.6-23.7,40-35.4
		c5.4-4.7,7-4.5,12.7,0.3c15,12.7,30,25.4,45,38c0.6,0.5,1.3,0.9,2.2,1.6c1.4-2.6,0.7-5.1,0.8-7.5c0.1-4,1.9-5.8,5.8-5.8
		c7.8,0.1,15.7,0,23.5,0c5.4,0,6.8,1.4,6.9,6.8c0.1,11.3,0.1,22.7,0,34c0,3,0.9,5,3.1,6.8c20.6,17.3,41.2,34.8,61.9,52.1
		c3.6,3,5.8,6.2,5.1,11.1c-0.4,2.8-0.1,5.7-0.1,8.5c0,2.9-1,5.2-4,6.1c-2.4,0.5-4.9,0.2-7.3,0.2c-6,0.1-6,0-5.4,6
		c0.1,18.3,0.5,36.7-0.1,55c-2.8,6.8-8.7,10.4-14.9,13.2c-16.7,7.7-34.6,9.2-52.7,8.6c-2.8-0.1-4.6-1.6-5.8-4
		c-2.2-4.1-5.1-7.8-8.1-11.4c-2.3-2.9-1.9-6.6-2.8-10c-0.6-2.6-1.4-4.8-4.1-5.7c-5.7-2-11.8-2.3-17.7-2.6
		c-14.6-0.8-29.3-0.9-43.7,2.4c-4.4,1-8,3-11.2,6.2c-32,32.1-64,64.1-96.1,96.1c-2.9,2.9-4.9,6.3-7.3,9.5
		C193.2,525.2,192.8,525.3,192.2,525.1z"/>
	<path class="st2" d="M456.7,430.1c-0.1,22.8-0.4,45.5-0.3,68.3c0,6.6,0.3,13.3,0,19.9c-0.2,5.1-2.7,6.6-7.3,6.6
		c-14.2-0.1-28.3,0-42.5,0c-24.5,0-49,0-73.4-0.1c-0.6-2.9,1.7-4.1,3.3-5.7c9.9-10,19.8-20.1,29.9-29.9c3.9-3.8,6.2-8.1,7.2-13.3
		c1.6-8,2.5-16,2.2-24.2c-0.2-4,1.3-6.4,5.7-6.2c20.1,0.5,39.9-0.5,59-7.7c3.9-1.5,7.6-3.5,11-5.9
		C452.9,430.9,454.4,429.4,456.7,430.1z"/>
	<path class="st3" d="M380.8,446.6c-2.6,0-3.7,1-3.7,3.9c0.3,8.5-0.5,17-2.1,25.3c-1.1,5.7-3.5,10.5-7.7,14.7
		c-11.5,11.3-22.7,22.9-34.1,34.4c-1.5,1.3-3.1,2.5-4.5,3.9c-19.5,19.5-39,39-58.6,58.5c-10.4,10.4-20.6,10.5-31.2,0
		c-13.1-13-26.2-26.1-39.2-39.2c-6.4-6.4-10.6-13.6-7.6-23.2c0.2-0.1,0.4-0.2,0.6-0.2c1,0.6,1.3,1.6,1.3,2.5
		c-0.5,7.9,4.3,13.3,9.2,18.5c4.6,4.9,9.5,9.6,14.4,14.4c7.1,7.3,14.4,14.4,21.5,21.6c2.3,2.3,4.8,4.1,7.6,5.6
		c5.9,3.2,11.5,2.7,16.9-1.1c2.3-1.6,4.3-3.7,6.3-5.7c31-31,61.9-62.1,93-92.9c5.2-5.2,7.6-11.1,8.7-18c1.1-6.8,1.1-13.6,0.9-20.4
		c0-1.4-0.8-3,0.8-4.1C376.1,444.8,378.8,443.5,380.8,446.6z"/>
	<path class="st4" d="M380.8,446.6c-2.5-1.2-5.2-0.4-7.8-0.5c-4.8,2.9-9.7,0.4-14.6,0.4c-1.4-0.2-2.8-0.1-4.2-0.3
		c-2.1-0.5-4.2-0.6-6.3-0.9c-4.5-0.6-5.6-2.8-3.6-6.9c1-2,2-4.2,4.1-5.4c2.3-0.7,3.4,0.6,4,2.6c-1.7,3.6-0.4,4.8,3.2,4.3
		c1,0,2,0,3,0c3.6,0.7,7.4,0.8,11,1.3c2.2,0.7,4.4,0.7,6.7,0.7c1.4-0.2,3.2,0.8,4-0.7c0.8-1.4-0.9-2.5-1.6-3.8
		c-0.6-1.1-1.5-2.1-2-3.3c-0.7-2-1.4-4,0.4-5.8c4,3.4,6.6,7.8,9.1,12.3c0.9,1.7,2,2.8,4.2,2.8c17.6,0.1,34.9-1,51.3-8.3
		c6-2.7,11.4-6.1,15.4-11.6c1.7-4.5,4.3-8.6,5.8-13.2c3.1-9.8,1.4-19.4-1.3-28.9c-1.4-4.9-3.4-9.7-4.5-14.7c-2-4-0.9-5.8,3.7-5.6
		c3.4,0.2,6.9,0.1,10.3,0.2c-3.6,1.6-7.5-0.1-11.5,1.1c10.3,23.1,17.2,46.1-2.8,67.8C433.8,446.8,407.5,447.7,380.8,446.6z"/>
	<path class="st5" d="M217,561c-7.3-6.5-14.3-13.3-20.4-21c-3.6-4.5-3.7-9.8-3.7-15.1c1.5-4,4-7.3,7-10.2c32.5-32.5,65-65,97.5-97.6
		c5.1-5.2,11.8-6,18.3-6.8c17.1-2.1,34.2-2,51.2,0.8c1.1,0.2,2.2,0.7,3.3,1.1c0.2,0.5,0.2,0.9,0,1.4c-6.6,5.3-12.3,11.6-19.6,16.1
		c-1.7,0.2-3.3-0.3-4.9-0.3c-9.2-0.5-14.8,5.5-13.7,14.8c0.1,0.8,0.2,1.6,0.1,2.5c-2.2,5.5-6.9,8.9-11,12.5
		c-11.6,10.2-21.9,21.6-33,32.2c-1.2,1.1-2.3,2.4-3.7,3.3c-1.3,0.8-2.5,1.1-3.2-0.8c-2-9.8-1.1-19.9-2.5-29.8
		c-0.3-1.8-0.2-3.7-1-5.4c-0.8-1.9-2.1-3-4.3-2.7c-2.1,0.2-3.3,1.4-3.6,3.5c-0.3,1.8-0.2,3.7,0,5.5c0.9,10.9,1.9,21.9,1.8,32.9
		c-0.2,2-0.1,4-0.1,6c0,3.2-0.7,6.7-4.2,7c-3.6,0.3-1.8-3.8-3-5.8c-2.2-8.1-6.9-14-15.5-15.8c-7.6-1.6-13.8,1.5-18.4,7.3
		c-4.7,5.9-7.2,12.8-3.4,19.9c3.7,6.8,9.4,11.6,17.8,11.8c1,0,2-0.2,2.9,0.3c1.5,1.7,0,2.8-0.9,3.8c-9.2,9.4-18.4,18.8-27.9,27.9
		C218.3,560.7,217.7,560.9,217,561z"/>
	<path class="st6" d="M457,366.7c6.9,14.1,11.5,28.5,7,44.3c-1.3,4.6-3.3,9-7,12.4C456.6,404.5,456.6,385.6,457,366.7z"/>
	<path class="st7" d="M370,413c0-0.3,0-0.5,0.1-0.8c3.7,0.3,4.1,3.2,4.8,5.9c0.9,3.3,0.5,6.9,2.2,10c-0.1,2-0.4,3.9,0.9,5.7
		c-0.4,3,1.5,6.2-0.7,9c-2.5,0-5.1,1-7.4-0.8c2-1.9,2.7-4.3,2.7-7.1C372.7,427.5,371.3,420.3,370,413z"/>
	<path class="st8" d="M217,561c8.9-9.1,17.8-18.1,26.7-27.2c1.5-1.5,2.9-3.1,4.3-4.7c0.4-1.7,2-2.1,3.3-2.8
		c7.5-4,12.6-9.7,12.5-18.8c0-1.3,0.1-2.7,1.4-3.5c1.6,1.8,0.3,4.2,1.2,6.4c5.9-2.9,2.6-8.4,3.7-12.5c3.2,1.3,2.3,4.1,2.4,6.4
		c0.7,15.8,1.7,31.5,3,47.3c0.1,1.2,0.1,2.3,0.5,3.5c0.7,2.5,2.2,4.2,5,3.6c2.6-0.5,3.5-2.4,3.2-4.8c-0.7-5-0.3-10-0.7-14.9
		c-1.2-12.6-1.3-25.2-2.6-37.8c-0.2-2.1-0.6-4.4,1.3-6c4.8-4.6,9.5-9.3,14.3-13.9c10.4-10,20.7-20,31.1-30.1
		c1.3-1.3,2.4-2.7,3.6-4.1c1.6-0.2,2.3,1.1,3.2,2c7.4,7.3,15,6.7,21.3-1.6c0.6-0.8,1.3-1.5,2.1-2.1c5.1,0.3,10.2,0.6,15.3,0.9
		c2.1,6.3,1.1,12.8,0.6,19.2c-0.2,2.2-0.3,4.6-0.8,6.9c-1.4,6.4-4,11.8-9,16.7c-31.7,31.2-63,62.8-94.5,94.2
		c-10.5,10.5-20.1,10.5-30.7,0C231.3,575.8,224.2,568.4,217,561z"/>
	<path class="st8" d="M370,413c2.6,1,2.3,3.7,2.5,5.5c1,6.7,1.7,13.4,1.5,20.2c-0.1,3.2-1.8,3.4-4.1,3.4c-4,0.1-8-0.2-12-1.1
		c-1.6-4.4-4.9-7.8-7-12C357,423.2,362.9,417.3,370,413z"/>
	<path class="st9" d="M351,429c3.9,3.1,7.1,6.6,7,12c-1,0-2-0.1-2.9-0.1c-2.1-0.9-2.6-2.9-3.2-4.9c-0.4-1.5-1.6-2.4-2.8-3.1
		c-0.7,0.1-1.4,0.2-2,0.3c-9.6,0.2-12.9,3.9-10.6,12c4.3,6.4,9.6,7.1,15.1,1.9c0.8-0.8,1.6-1.7,2.6-2.1c1.2,0.1,2.4,0.1,3.6,0.2
		c-1.9,5.7-5.6,9.2-11.6,10c-6.9,0.9-11.6-2.6-15-8.3C327.2,434.2,337.9,423.9,351,429z"/>
	<path class="st10" d="M347.9,432.1c0.4,0.3,0.7,0.6,1.1,0.8c-1.6,3.1-5.5,6.1-4.3,9.4c1.3,3.5,6.4,0.7,9.3,2.7
		c-4.8,8.9-13.1,9.3-18.9,0.9c0.9-2.2-0.3-4.4,0.6-6.7C337.7,433,342.7,432.5,347.9,432.1z"/>
	<path class="st11" d="M377.3,442.8c0.1-3-1.2-6.2,0.7-9c1.7,2.8,3.4,5.5,5.4,8.6C381.1,443.4,379.2,443,377.3,442.8z"/>
	<path class="st12" d="M351.8,436c2.5,0.7,2,3.3,3.2,4.9c-1.9,0-4.3,0.6-5.3-1.3C349.1,438.4,350.4,436.8,351.8,436z"/>
	<path class="st13" d="M282.2,495c1.2,19.2,2.2,38.4,3.6,57.6c0.4,5.8-0.3,7.4-5.1,8.1c-4,0.5-6.4-2-6.7-7.3c-1-17.1-2-34.1-3-51.2
		c-0.1-1.5,0.1-3-0.8-4.3c-0.7-12.1-1.3-24.2-2.1-36.3c-0.3-4.3,0.5-7.2,5.4-7.5c5-0.2,6.2,3.3,6.5,7.1
		C280.8,472.4,281.4,483.7,282.2,495z"/>
	<path class="st13" d="M265.2,504c1.1,13-5.7,20.8-17.2,25.1c-9.8,1.9-16.5-3.1-21.4-10.6c-4.6-7.2-3.4-14.7,1.6-21.4
		c5.3-7.2,12.3-11.3,21.5-9C258,490.1,262.9,495.9,265.2,504z"/>
	<path class="st13" d="M288.8,506.6c0.2-11.2,10.5-21.5,21.4-21.5c10.5,0.1,20,10.2,19.8,21c-0.2,10.9-10.9,21.1-22,20.8
		C297.6,526.8,288.6,517.2,288.8,506.6z"/>
	<path class="st14" d="M347.9,432.1c-8.4,0.7-11.9,6.1-12.8,13.8C332.6,436.2,336.5,431.9,347.9,432.1z"/>
	<path class="st15" d="M254.6,509.9c0,4.3-3.9,8.1-8.4,8.1c-5,0-11-5.9-11.2-10.9c-0.1-4.5,3.5-8.2,8.1-8.3
		C248.3,498.7,254.6,504.7,254.6,509.9z"/>
	<path class="st16" d="M319,507.7c-0.1,4.2-4.3,8.3-8.4,8.2c-4.9-0.2-11.4-7-11.2-11.7c0.2-3.9,4.4-7.9,8.3-7.9
		C312.8,496.3,319.1,502.6,319,507.7z"/>
</g>
</svg>
