<?xml version="1.0" encoding="utf-8"?>
<!-- Generator: Adobe Illustrator 19.0.0, SVG Export Plug-In . SVG Version: 6.00 Build 0)  -->
<svg version="1.1" id="Calque_1" xmlns="http://www.w3.org/2000/svg" xmlns:xlink="http://www.w3.org/1999/xlink" x="0px" y="0px"
	 viewBox="0 0 612 792" style="enable-background:new 0 0 612 792;" xml:space="preserve">
<style type="text/css">
	.st0{fill:#33363A;}
	.st1{fill:#FD7200;}
	.st2{fill:#FD3C00;}
	.st3{fill:#919F91;}
	.st4{fill:#7F887F;}
	.st5{fill:#F0B157;}
	.st6{fill:#D4381E;}
	.st7{fill:#F0B257;}
	.st8{fill:#E39B3C;}
	.st9{fill:#4B5055;}
	.st10{fill:#E19A3C;}
	.st11{fill:#F23E26;}
	.st12{fill:#F33E26;}
	.st13{fill:#788279;}
	.st14{fill:#788079;}
	.st15{fill:#36383A;}
	.st16{fill:#34373A;}
	.st17{fill:#35373A;}
	.st18{fill:#FDA200;}
	.st19{fill:#1CE5E0;}
	.st20{fill:#1CE4DF;}
	.st21{fill:#1FAAE1;}
	.st22{fill:#21A4D7;}
	.st23{fill:#1DE0DD;}
</style>
<g>
	<path class="st0" d="M223.4,412.5c-77.8-49.5-84.8-155-29.3-215.4c54.8-59.6,149.2-61.9,205.3-4.5c31.5,32.2,44.6,71.2,39.7,115.9
		c-4.9,44.6-27.3,78.8-64.7,104c11,6.4,21.6,12.4,32.2,18.7c1.9,1.1,3.3,0.7,5-0.3c3.7-2.2,7.5-4.3,11.2-6.5c2.7-1.6,5.3-1.6,8,0
		c32.9,19.2,65.8,38.3,98.7,57.4c1.4,0.8,3,1.7,3.9,3c2.6,3.5,0,8.3-4.7,8.4c-6.8,0.2-13.7,0.2-20.5,0c-2.6-0.1-3.4,0.7-3.4,3.3
		c0.1,28.3,0,56.7,0,85c0,1.8,0.4,3,2.2,3.9c2.2,1.1,3.3,3.3,2.6,5.9c-0.8,2.7-2.7,4.1-5.6,4.1c-11.2,0.1-22.3,0.3-33.5,0.3
		c-37.8,0.1-75.6,0.2-113.4,0.3c-27.3,0-54.6,0-81.9-0.3c-25.8-0.2-51.6,0.5-77.4,0.1c-30.4-0.4-60.9-0.1-91.4-0.1
		c-4.3,0-8.6-0.3-13-0.4c-2.6-0.1-4.4-1.4-5.3-3.8c-0.9-2.5,0.1-4.9,2.3-6c2.4-1.1,2.5-2.7,2.5-4.8c0-27.8-0.1-55.7,0.1-83.5
		c0-3.3-0.8-4.3-4.1-4.1c-6.3,0.3-12.7,0-19,0.1c-3,0-5.3-0.8-6.2-3.9c-0.9-3.3,0.6-5.4,3.4-7c33.4-19.3,66.8-38.6,100.2-58
		c2.9-1.7,5.9-2,8.3,0.2c9.1,8.3,17.7,7.4,27.1,0.1C209,419.9,216.2,416.6,223.4,412.5z"/>
	<path class="st1" d="M390.9,384.7c-14.7,15.4-32.5,25.7-52.7,32.1c-3.4,1.1-5.7,2.8-7.4,6c-10.3,19-20.8,37.9-31.3,56.8
		c-2.4-0.5-2.6-2.6-3.4-4.1c-9.8-17.6-19.5-35.2-29.1-52.9c-1.7-3.2-4.1-4.7-7.5-5.9c-49.3-17.3-80.1-51.5-89.5-103
		c-7.8-42.8,5.2-80.1,34.6-111.9c0.7-0.7,1.5-1.3,2.3-1.9c2.2,0.4,3.3,2.1,4.7,3.5c14.1,14,28.2,28.1,42.2,42.2
		c1.7,1.7,3.8,3.3,4,6.1c-0.6,6.1-3.1,11.9-2.2,18.2c2,15.6,11.5,25.3,24.4,32.6c4.5,2.5,9.3,4.4,14.1,6.3c2.8,1.1,5.5,2.3,7.9,4.2
		c2.2,1.8,3.6,4,2.7,7c-0.8,2.8-3.2,3.8-5.7,4.1c-7.1,0.9-13.9-0.5-20.3-3.8c-10.6-5.6-17-3.2-21.3,8.2c-0.5,1.2-0.9,2.5-1.3,3.8
		c-3.6,10.9-1,16.9,9.5,21.6c3,1.4,6.1,2.6,9.4,3.4c4.4,1,6.5,3.5,6.3,8.2c-0.2,3.3-0.1,6.7,0,10c0.3,7.2,5.2,12,12.4,12.3
		c3.2,0.1,6.3,0.1,9.5,0c7.5-0.3,12.1-4.7,12.3-12.2c0.2-4.7,0-9.3,0.1-14c0-2.6,0.6-5,3.2-6.3c8.6-4.2,15.3-10.5,20.3-18.7
		c0.4-0.7,1.1-1.3,1.8-1.7c2.4-0.4,3.5,1.5,4.9,2.9c14.1,14,28.1,28.1,42.2,42.2C389.4,381.2,391.2,382.4,390.9,384.7z"/>
	<path class="st2" d="M257.1,251c-14.2-14.4-28.4-28.7-42.6-43.1c-2.6-2.6-5-5.3-7.5-7.9c18.2-18.9,40.4-30.6,66-36
		c70.3-14.8,137.9,31.5,153.3,98c10.9,47.1-1.4,88.2-35.3,122.8c-15.1-15.2-30.2-30.4-45.2-45.6c-1.4-1.4-2.6-3-3.9-4.5
		c-1.4-2.2-0.1-4.2,0.4-6.2c2.6-9.8,2.2-19.5-2.1-28.8c-4.7-10.1-12.9-16.8-22.6-21.8c-5.2-2.7-10.8-4.4-16-7.1
		c-3-1.5-7.4-2.9-6.2-7.3c1.2-4.3,5.6-2.5,8.7-2.6c4.4-0.1,8.4,1.6,12.4,3.4c9.4,4.4,15.7,1.8,19.4-7.8c1.1-2.8,2.3-5.5,3.1-8.4
		c1.9-7.1-0.4-12.4-6.8-15.9c-3.4-1.8-7-3.2-10.6-4.3c-3.3-1-4.8-3.3-4.8-6.7c0-3.3,0.1-6.7-0.1-10c-0.3-7.6-5.1-12.4-12.6-12.7
		c-2.7-0.1-5.3-0.1-8,0c-7.9,0.2-13,5-13.6,13c-0.3,4.2-0.1,8.3-0.1,12.5c0,2.9-0.9,5.2-3.6,6.6c-8.1,4.2-14.2,10.3-18.7,18.2
		C259.4,249.9,258.8,251.2,257.1,251z"/>
	<path class="st3" d="M329,556c0-11.2-0.1-22.3-0.1-33.5c0-6.8-1.6-8.6-8.4-8.6c-14.3,0-28.7,0-43,0c-6.9,0-8.4,1.5-8.4,8.6
		c-0.1,11.2-0.1,22.3-0.2,33.5c-3.4,2.1-6.9,2.3-10.2-0.2c-0.5-1.2-0.1-2.3,0.4-3.4c3.6-7.6,2.8-15.7,2.1-23.6
		c-0.8-8.2-5.7-11.9-14.1-12.5c-5-0.3-9.9-0.2-14.9,0.1c-8.3,0.5-13.5,5.1-13.6,13.5c-0.1,8.1-1.6,16.4,2.8,23.9
		c0.3,0.6,0.2,1.3-0.1,1.9c-4.3,2.7-8.7,2.5-13.1,0.2c0-27,0-54,0-80.9c1.9-1.8,4.3-1.6,6.6-1.6c20.5,0,41.1,0,61.6,0
		c2.4,0,4.6,0.2,6.6,1.6c3.3,5.9,6.7,11.8,10,17.7c1.4,2.6,3.1,5,6.3,4.9c2.9-0.1,4.4-2.5,5.8-4.9c3.3-5.9,6.6-11.8,10-17.7
		c1.7-1.2,3.6-1.5,5.7-1.5c19.1,0.1,38.3,0,57.4,0c3.9,0,8-0.5,11.7,1.5c0,27,0,53.9,0,80.9c-4.4,2.3-8.7,2.4-13.1-0.1
		c-0.3-0.6-0.5-1.3-0.2-1.9c4.4-7.4,2.9-15.5,2.8-23.4c-0.1-8.9-5.2-13.7-14-14.1c-4.8-0.3-9.6-0.3-14.4,0
		c-8.9,0.6-14,4.9-14.4,13.9c-0.4,7.8-1.2,15.7,2.6,23c0.4,0.7,0.4,1.6,0.1,2.4C335.9,558.4,332.5,558,329,556z"/>
	<path class="st3" d="M401.2,563.9c0-20,0-39.9,0-59.9c1.9-1.9,4.3-1.7,6.6-1.7c26.3,0,52.6-0.1,78.9,0c6.6,0,6.9,0.5,6.9,7.2
		c0,17,0,33.9,0,50.9c0,5.1-1,5.8-5.9,4.6c-1.6-1.4-1-3-0.4-4.6c1.9-5,1.6-10.1,1.3-15.2c-0.5-7.6-5-11.7-12.6-11.9
		c-3.3-0.1-6.6-0.1-9.9,0c-6.7,0.2-11.2,4.5-11.4,11.3c-0.1,5.6-0.6,11.3,0.7,16.8c0.3,1.1,0.6,2.3-0.7,3.1c-2.1,0.8-4,1.3-3.9-2
		c0.2-8.3-0.5-16.6,0.4-24.8c-1-5.2-4.2-6.9-9.3-6.8c-10.1,0.2-20.3,0-30.5,0.1c-6.5,0-8.1,1.8-8.2,8.3c0,8.2-0.1,16.3-0.1,24.5
		C402.3,564.6,401.7,564.6,401.2,563.9z"/>
	<path class="st3" d="M196.9,506c0,19,0,38,0,56.9c-0.6,0.6-1.1,0.6-1.7,0c0-8.2-0.1-16.3-0.1-24.5c0-5.2-2-7.3-7.2-7.3
		c-11-0.1-22,0-33,0c-3.1,0-5.5,1-7,3.9c-0.8,9-0.2,17.9-0.3,26.9c0,3.4-1,4.9-4.4,2.9c-1.3-1.5-0.4-3.1-0.1-4.7
		c1.1-5.8,0.8-11.6,0.3-17.4c-0.4-4.8-5-8.8-9.8-9.1c-3.8-0.3-7.6-0.2-11.5-0.1c-7.4,0.2-11.9,4.3-12.4,11.6
		c-0.4,5.1-0.7,10.3,1.1,15.3c0.6,1.5,1.3,3.2-0.3,4.6c-4.6,1.3-5.9,0.7-5.9-3.4c-0.1-18.9-0.1-37.9,0-56.8c0-0.3,0.2-0.6,0.4-0.9
		c2-1.6,4.4-1.4,6.7-1.4c25.8,0,51.6-0.1,77.5,0C192.1,502.4,195.7,501.7,196.9,506z"/>
	<path class="st4" d="M487,564c5.1,1.6,6,1.1,6-4.1c0-17.1-0.1-34.3,0.1-51.4c0-3.4-1-4.6-4.5-4.6c-29.1,0.1-58.2,0.1-87.4,0.1
		c-0.6-11-0.6-11,10.1-11c25.8,0,51.6,0.1,77.4-0.1c4.1,0,5.3,1.1,5.3,5.3c-0.2,27-0.2,53.9,0,80.9c0,4-1.1,5.1-5.1,5
		c-11.3-0.2-22.6-0.1-34,0.1c-3.5,0.1-5.1-0.6-5-4.6c0.2-12.5,0-25,0-37.5c0-1.5-0.3-3,0.8-4.3c0,7.6,0.3,15.1,0,22.7
		c-0.1,3.7,1.4,4.1,4.2,3.5c5.5,1.9,10.7,4.4,16.9,3.8c4.3-0.4,8.5-0.5,12.1-3.2C485,564,485.9,563.6,487,564z"/>
	<path class="st4" d="M377,555.1c4.2,2,8.6,0.4,12.8,0.9c0,8.1,0,16.3,0.2,24.4c0.1,2.8-0.9,3.7-3.7,3.7c-17.9-0.1-35.9,0-53.8,0.1
		c-2.8,0-3.8-1-3.7-3.8c0.2-8.1,0.1-16.3,0.2-24.4c3.3-0.5,6.9,1.1,10-1c0.3-0.1,0.7-0.3,1-0.1c6.6,4.7,14.1,3.6,21.5,3.8
		c4.6,0.1,8.9-0.3,12.7-3.1C375,554.9,376,554.5,377,555.1z"/>
	<path class="st4" d="M208.1,556c4.3-0.4,8.7,1.1,12.8-0.9c0.5-0.2,1-0.5,1.4-0.2c8.1,5.6,17.2,3.1,26,3.6c4.1,0.2,6.6-3.6,10.6-3.6
		c3.1,2.2,6.7,0.6,10,1c0,8.1,0,16.3,0.2,24.4c0.1,2.8-0.8,3.8-3.7,3.8c-17.9-0.1-35.9-0.2-53.8-0.1c-2.8,0-3.8-0.9-3.7-3.7
		C208.1,572.2,208.1,564.1,208.1,556z"/>
	<path class="st5" d="M317,583.8c-12,0.7-24,0.6-36,0c-1-8.9-0.2-17.9-0.4-26.9c-0.1-5.3,0.1-10.7-0.1-16c-0.1-3,1.3-4.4,4-4.5
		c9.7-0.3,19.3-0.3,29,0c2,0.1,4.1,0.7,4,3.4C317.2,554.6,318.1,569.2,317,583.8z"/>
	<path class="st6" d="M244,423.1c3.8,1.3,7.5,2.7,11.3,3.9c1.4,0.4,2.3,1.3,2.9,2.5c2.9,5.3,5.7,10.5,8.7,15.7
		c1.5,2.6,0.5,3.1-2,3.1c-26.3,0-52.6,0-79.4-1.1c5.9-3.3,11.7-6.6,17.6-10c7.4-2.1,14.5-5.3,21.7-7.9
		C231.1,427.1,237.2,423.9,244,423.1z"/>
	<path class="st6" d="M396.9,438.2c5.2,2.9,10.3,5.9,15.5,8.8c-0.1,0.3-0.1,0.5-0.2,0.8c-27.2,0-54.4,0-82.4,0
		c3.6-6.7,6.9-13,10.5-19.1c1.6-2.7,5-2.3,7.5-3.5c2.3-1,4.7-1.7,7-2.5c12.2,4.2,24.3,8.5,36.1,13.4
		C392.9,437,394.7,438.2,396.9,438.2z"/>
	<path class="st4" d="M389.8,475c-16.5,0-33,0-49.5,0c-8.4,0-16.9,0-25.3,0c0.1-0.3,0.2-0.6,0.3-0.9c7.3-14.9,7.3-14.9,24-14.9
		c15.4,0,30.9,0.1,46.3-0.1c3.5,0,4.7,1.1,4.5,4.5C389.8,467.4,389.9,471.2,389.8,475z"/>
	<path class="st4" d="M283,475c-24.9,0-49.9,0-74.8,0c-0.1-4.1,0-8.3-0.2-12.4c-0.1-2.5,0.8-3.5,3.4-3.5c19.9,0.1,39.8,0.1,59.8,0
		c2.2,0,3.8,0.7,4.9,2.7C278.3,466.3,280.6,470.6,283,475z"/>
	<path class="st4" d="M196.9,506c-1.5-2.5-3.9-2-6.2-2c-28.5,0-57.1,0-85.6,0c-0.3,0.5-0.6,0.5-0.8,0c-0.5-11-0.5-11,10.2-11
		c25.6,0,51.2,0.1,76.8-0.1c5-0.1,6.5,1.4,5.9,6.1C196.7,501.3,196.9,503.7,196.9,506z"/>
	<path class="st4" d="M104.2,504c0.3,0,0.6,0,0.8,0c0,18.5,0,36.9,0,55.4c0,5.7,0.4,6,6,4.6c0.5-0.2,1-0.3,1.5,0
		c9.6,5.4,19.2,5.5,28.9,0.1c0.4-0.2,1-0.2,1.5-0.1c2.7,1.4,4.3,1.2,4.2-2.5c-0.1-7.2-0.1-14.5,0-21.8c0-1.6-0.5-3.3,0.8-4.7
		c0,15-0.1,29.9,0.1,44.9c0,3.3-1,4.3-4.3,4.3c-12-0.2-23.9-0.2-35.9-0.1c-2.8,0-3.7-0.9-3.7-3.7C104.1,554.9,104.1,529.4,104.2,504
		z"/>
	<path class="st7" d="M183.8,551c0.1,9.9,0,19.9,0.2,29.8c0.1,2.8-1.1,3.3-3.5,3.2c-6.1-0.1-12.3-0.1-18.4,0.1
		c-2.7,0.1-3.5-0.9-3.4-3.4c0.1-9.9,0.2-19.9,0.2-29.8c5.2-3,11-1.2,16.4-1.5C178.2,549.3,181.3,548.8,183.8,551z"/>
	<path class="st7" d="M439.1,551c0.1,10,0.1,20,0.2,30c0,2.3-0.6,3.3-3.1,3.3c-6.3-0.2-12.7-0.3-19-0.1c-2.8,0.1-3.3-1.2-3.2-3.6
		c0.1-9.8,0.1-19.7,0.2-29.5c1.1-1.2,2.6-1.6,4.1-1.5C425.2,550,432.3,547.8,439.1,551z"/>
	<path class="st8" d="M317,583.8c0-13.6-0.2-27.3,0.1-40.9c0.1-4.1-1.3-5.1-5.1-5c-8.8,0.2-17.6,0.2-26.5,0c-3.5-0.1-4.6,1-4.6,4.5
		c0.2,13.8,0.1,27.6,0,41.4c-1.5-0.9-0.9-2.4-0.9-3.6c0-17,0.1-33.9-0.1-50.9c0-3.4,0.9-4.6,4.4-4.6c9.8,0.2,19.6,0.1,29.4,0.1
		c2.5,0,4,0.3,4,3.4c-0.1,17.8,0,35.6,0,53.4C317.9,582.5,317.9,583.4,317,583.8z"/>
	<path class="st9" d="M105.5,472.9c13-7.6,26-15.1,39-22.7c7-4.1,14.1-8.1,21.2-12.1c5.9-3.3,5.9-3.3,12,0.7
		c-2.8,1.7-5.5,3.3-8.1,4.9c-4.8,2.9-10.4,4.6-12.9,10.4c-0.4,0.9-1.8,1.4-2.9,1.8c-15.9,6-31.9,11.9-47.9,17.8
		C105.9,473.4,105.7,473.1,105.5,472.9z"/>
	<path class="st9" d="M420.5,438.9c3.9-4.4,7.3-3.7,11.8-0.9c19.6,11.8,39.5,23,59.3,34.5c0.3,0.1,0.4,0.5,1.2,1.6
		c-9.3-3.5-17.8-6.6-26.4-9.8c-4-1.5-8.1-2.9-12.1-4.6c-5.9-2.5-11.9-4-16.6-9.7C433.7,445,426.6,442.6,420.5,438.9z"/>
	<path class="st10" d="M183.8,551c-8.3,0-16.6,0-24.9,0c-0.5-8.8-0.5-8.8,8.3-8.8c3.8,0,7.7,0.3,11.4-0.1c4.5-0.5,6.1,1.1,5.4,5.5
		C183.8,548.7,183.9,549.9,183.8,551z"/>
	<path class="st10" d="M439.1,551c-8.3,0-16.6,0-24.9,0c-0.4-8.8-0.4-8.9,8.2-8.9c3.6,0,7.3,0.3,10.9-0.1c4.7-0.5,6.8,1.1,6,5.9
		C439.1,549,439.1,550,439.1,551z"/>
	<path class="st11" d="M396.9,438.2c-2.9,1.6-5-0.6-7.3-1.5c-9.5-3.4-18.9-7.1-28.3-10.6c-2.3-0.9-4.7-1.5-6.4-3.5
		c5.4-4.2,10.3-3.7,16.1,0.1C379.2,428.4,388.2,433.1,396.9,438.2z"/>
	<path class="st12" d="M244,423.1c-12.6,4.9-25.1,9.8-37.7,14.7c-1.1,0.4-2.3,0.5-3.2-0.6c9.7-5.7,19.4-11.5,29.1-17.1
		C237,417.3,240.1,421.8,244,423.1z"/>
	<path class="st13" d="M195.2,562.9c0.6,0,1.1,0,1.7,0c0,6.8,0,13.7,0,20.5c-0.6,0-1.1,0-1.7,0C195.2,576.7,195.2,569.8,195.2,562.9
		z"/>
	<path class="st14" d="M401.2,563.9c0.6,0,1.1,0,1.7,0c0,6.5,0,13,0,19.5c-0.6,0-1.1,0-1.7,0C401.2,577,401.2,570.5,401.2,563.9z"/>
	<path class="st0" d="M257.1,251c4.9-9.6,11.7-17.4,21.6-21.9c2.1-0.9,2.5-2.4,2.5-4.3c-0.1-4.5-0.1-9,0-13.5
		c0.2-8.5,6-14.2,14.6-14.3c2.8,0,5.7-0.1,8.5,0c8,0.1,14.5,5.9,13.6,13.9c-1.1,10.2,1.4,15.9,12.3,19.1
		c11.1,3.3,13.2,10.8,8.9,21.8c-0.8,2.2-1.6,4.4-2.4,6.5c-3.7,9.1-11.1,12-19.7,7.5c-5.7-2.9-11.5-4.3-17.8-3.9
		c-1.3,0.1-2.8-0.1-3.2,1.6c-0.4,1.6,0.6,2.5,1.8,3.2c4.8,3.1,10.1,5,15.3,7.3c13.1,5.9,24.4,13.8,29.7,27.9
		c4.1,10.9,3.1,21.9-0.8,32.7c-5.3,9.5-12.3,17.3-22.5,21.8c-2.1,0.9-2.3,2.4-2.3,4.4c0.1,5,0.1,10,0,15
		c-0.2,7.5-5.8,13.1-13.4,13.3c-3.3,0.1-6.7,0.1-10,0c-7.7-0.1-13.5-5.9-13.7-13.5c-0.1-4-0.2-8,0-12c0.2-2.9-1-4.1-3.7-4.7
		c-5.7-1.3-11.1-3.4-16.1-6.6c-6.7-4.2-8.8-10.1-6.3-17.6c1.1-3.3,2.2-6.6,3.5-9.9c3.4-8.8,11.7-11.8,19.8-7
		c6.7,3.9,13.7,5.7,21.5,5.1c2.3-0.2,4.4-0.7,5.1-3.2c0.7-2.6-0.4-4.5-2.6-5.9c-3.9-2.5-8.4-4-12.7-5.8c-9.4-4-18.3-8.8-25.1-16.7
		C253.1,279.2,252.3,265.5,257.1,251z"/>
	<path class="st0" d="M377,555.1c-9.3,7.2-29.1,7.1-38-0.2c-2.9-3.7-4-7.9-3.9-12.6c0.1-4,0-8,0-12c0.2-9.5,6.2-15.3,15.6-15.7
		c5.3-0.2,10.6-0.1,15.9,0.1c7.7,0.2,13.9,6.2,14.2,13.9c0.3,5.8,0.1,11.6,0,17.4C380.9,549.6,378.9,552.4,377,555.1z"/>
	<path class="st0" d="M259,554.9c-4,4-8.8,5.7-14.5,5.1c-3.1-0.3-6.3-0.3-9.5,0c-5.5,0.5-10.1-1.3-14.1-4.9c-3.1-3.8-4.3-8.1-4-13
		c0.3-4.1,0-8.3,0.1-12.5c0.2-8.6,6.2-14.7,14.8-14.9c5.3-0.1,10.6-0.1,15.8,0c7.8,0.1,13.5,4.5,14.7,12.2c1.1,7.2,1,14.5-0.2,21.8
		C261.7,551.2,260.2,553,259,554.9z"/>
	<path class="st0" d="M487,564c-8.9,7.2-23,7.2-31.8,0c-4-7.5-2.5-15.6-1.7-23.4c0.5-4.8,6.5-8.5,11.5-8.6c4-0.1,8-0.1,12,0
		c6.1,0.1,11.2,3.7,12.2,9.7C490.4,549.2,491.2,556.9,487,564z"/>
	<path class="st0" d="M142.8,564c-8.6,7.2-23,7.2-31.8,0c-4.3-7.3-3.4-15.1-2-22.8c1-5.8,6.2-9.1,12-9.3c3.8-0.1,7.7-0.1,11.5,0
		c7.3,0.1,12.7,5.3,12.6,12.6C144.9,551,146.7,557.9,142.8,564z"/>
	<path class="st15" d="M303.7,550.8c1.2,0,2.3,0,3.5,0c3.2,0,5.1,1.8,5.4,4.8c0.3,3.2-1.6,5.4-4.8,6c-2.3,0.4-4.6,0.3-6.9,0.2
		c-3.4-0.2-5.8-1.8-5.8-5.5c0-3.9,2.4-5.5,6.2-5.5C302,550.8,302.8,550.8,303.7,550.8z"/>
	<path class="st16" d="M174.6,570c-5.2,0-7.9-1.9-7.6-5.7c0.4-4.6,3.6-5.5,7.5-5.3c0.8,0,1.7,0,2.5,0c3.8,0.1,6,2.1,5.9,5.9
		C182.8,568.4,180,570,174.6,570z"/>
	<path class="st17" d="M430.2,559c4.3-0.1,7.6,0.6,7.9,5.3c0.2,3.9-2.3,5.7-7.6,5.7c-1.5,0-3.1,0.2-4.4-0.3c-2.8-1-4.5-3.2-3.7-6.2
		C423.4,559.1,426.9,558.7,430.2,559z"/>
	<path class="st18" d="M291,365.3c-0.1-13.6-0.1-13.6-13.1-17.3c-1-0.3-1.9-0.6-2.8-0.9c-12.5-4.3-13.4-6.7-7.4-18.4
		c1.6-3.2,3.3-1.7,5.2-0.7c7.5,4,15.3,6.4,23.9,6.1c3.6-0.1,6.9-1.1,10-2.8c9.6-5.5,10.9-16.2,3-23.8c-4.2-4-9.2-6.5-14.5-8.6
		c-7.3-2.9-14.5-6-20.4-11.3c-15.2-13.9-12.1-37.9,6.2-47.5c2.1-1.1,4.2-2,6.4-2.7c3.4-1,4.8-3.1,4.8-6.6c-0.1-6.3,0.1-12.7-0.1-19
		c-0.1-2.7,0.8-3.7,3.7-3.8c11.3-0.4,11.3-0.5,11.4,11c0,3.3,0.1,6.7,0,10c-0.1,4.3,2.1,6.5,6.1,7c5.2,0.7,10,2.5,14.6,4.8
		c2.2,1.1,2.9,2.6,1.9,4.8c-0.1,0.3-0.3,0.6-0.4,0.9c-1.4,3.4-1.9,7.9-4.4,9.8c-2.7,2.1-6.1-2-9.3-2.9c-6.8-2-13.6-3.4-20.6-1.2
		c-5.1,1.7-9.3,4.7-10.2,10.5c-0.9,6,1.8,10.3,6.7,13.4c4.5,2.9,9.4,5,14.3,7.1c4.9,2.1,9.7,4.3,14.2,7.3
		c11.2,7.6,15.5,18.3,14,31.5c-1.4,12.2-8.5,20.2-19.6,25c-8.3,3.6-8.3,3.5-8.3,12.7c0,5.2-0.1,10.3,0,15.5c0,2.4-0.8,3.1-3.2,3.2
		C291,379,291,379.1,291,367.3C291,366.7,291,366,291,365.3z"/>
	<path class="st19" d="M352.7,538c0,2.6-0.1,5.3,0,7.9c0.1,1.9-0.3,3.2-2.6,3.1c-2.1,0-3.7-0.6-3.7-2.9c-0.1-5.8,0-11.6,0-17.4
		c0-2.4,1.5-2.9,3.7-3c2.4,0,2.6,1.5,2.6,3.3C352.7,532,352.7,535,352.7,538C352.7,538,352.7,538,352.7,538z"/>
	<path class="st20" d="M369.8,529.9c0.1,5,0.1,10,0.2,15c0.1,2.6-0.7,4.1-3.6,4.1c-3.4,0.1-2.6-2.3-2.6-4.1c0-5.3,0.1-10.6,0.2-15.9
		C366.2,527.5,368.2,527.2,369.8,529.9z"/>
	<path class="st21" d="M369.8,529.9c-1.8-1.3-3.8-0.9-5.8-1c-0.5-2.2,0.2-3.4,2.7-3.3C369.6,525.8,370.2,527.4,369.8,529.9z"/>
	<path class="st19" d="M245.3,537.7c0-2.8,0-5.6,0-8.4c0-1.6-0.2-3.4,2.4-3.5c2.5-0.1,3.8,0.9,3.8,3.3c0.1,5.6,0.2,11.2,0.1,16.8
		c0,2.6-1.8,3.1-4.1,3.1c-2.6,0-2.3-1.8-2.3-3.4C245.2,543,245.2,540.3,245.3,537.7C245.2,537.7,245.3,537.7,245.3,537.7z"/>
	<path class="st20" d="M234,529c0.1,5.6,0.1,11.3,0.2,16.9c0,1.9-0.2,3.2-2.6,3.1c-2.1-0.1-3.6-0.7-3.6-3.1c0-5.3,0.1-10.6,0.1-15.9
		C229.8,527.3,231.8,527.5,234,529z"/>
	<path class="st22" d="M234,529c-2,0.1-4.1-0.3-5.8,1c-0.7-2.9,0.4-4.5,3.4-4.6C234.5,525.2,234.4,527,234,529z"/>
	<path class="st23" d="M478.7,550.7c-0.1,8.5,1.1,7.1-7.6,7.2c-7.4,0.1-7,0-7.6-8.9c-0.3-5.4,1.7-6.3,6.5-6.1
		C478.7,543.3,478.7,543,478.7,550.7z"/>
	<path class="st23" d="M126.8,557.9c-7.6,0-7.7,0-7.6-9.2c0.1-6.8-1.3-5.6,9.6-5.6c6.2,0,5.2-1.3,5.3,9.5
		C134.3,557.9,134.2,557.9,126.8,557.9z"/>
</g>
</svg>
