<?xml version="1.0" encoding="utf-8"?>
<!-- Generator: Adobe Illustrator 19.0.0, SVG Export Plug-In . SVG Version: 6.00 Build 0)  -->
<svg version="1.1" id="Calque_1" xmlns="http://www.w3.org/2000/svg" xmlns:xlink="http://www.w3.org/1999/xlink" x="0px" y="0px"
	 viewBox="0 0 612 792" style="enable-background:new 0 0 612 792;" xml:space="preserve">
<style type="text/css">
	.st0{fill:#E83F2E;}
	.st1{fill:#C99C82;}
	.st2{fill:#D1AA67;}
	.st3{fill:#A15641;}
	.st4{fill:#00ADEE;}
	.st5{fill:#414042;}
</style>
<g>
	<path class="st0" d="M312,145c5.8,1.9,10.3,5.6,14.7,9.9c74.8,73.8,149.7,147.5,224.7,221.1c4.4,4.3,8.8,8.5,11.7,14
		c0,4.3,0,8.7,0,13c-2.2,15.7-23.7,23-36.9,10.3c-12.3-11.9-24.2-24.3-36.5-36.3c-2.6-1.9-4.8-4.1-7.1-6.3
		c-17.4-17.5-34.5-35.2-52.4-52.2c-25.2-24-49.1-49.4-74.4-73.3c-16.3-15.5-31.8-31.8-48.2-47.3c-60.4,59.9-121.3,119.3-181.7,179.3
		c-13,11.8-24.8,24.9-37.7,36.9c-10.4,9.6-27.2,7.3-34.3-4.1c-1.6-2.5-1.4-5.4-2.7-7.9c0-3,0-6,0-9c3.7-9.4,11.4-15.6,18.3-22.4
		c73.1-72,146.3-143.9,219.4-216c4.2-4.1,8.6-7.8,14.3-9.6C306,145,309,145,312,145z"/>
	<path class="st1" d="M286.2,656.2c-0.1,0.3-0.1,0.5-0.2,0.8c-39,0-78,0-117,0c-0.1-0.3-0.1-0.6-0.2-1c0.4-0.5,1-0.9,1.6-1.1
		c2.1-0.7,4.3-0.5,6.4-0.5c33.8,0,67.6,0,101.3,0c2.2,0,4.3-0.1,6.4,0.6C285.3,655.2,285.8,655.6,286.2,656.2z"/>
	<path class="st2" d="M168.8,656.2c-14.2-0.1-28.4-0.2-42.7-0.3c0-17.7-0.1-35.3-0.1-53c0-73.6,0-147.2,0-220.9c0-2,0.9-4.3-0.9-6.1
		c6.7-6.5,13.3-13,20-19.5c36.6-36.2,73.1-72.5,109.9-108.5c16.6-16.2,32.9-32.5,49.4-48.8c2.5-2.4,3.7-2.5,6.2-0.1
		c22.2,22.1,44.6,44,66.9,66c36.2,35.7,72.3,71.4,108.4,107.1c1.3,1.3,2.7,2.4,4,3.7c-1.8,1.8-0.9,4.1-0.9,6.2
		c-0.1,89.1,0,178.2,0,267.4c0,2.2-0.1,4.3-0.1,6.5c-20.1,0-40.3,0.1-60.4,0.1c-45.3,0-90.5,0-135.8,0c-2.2,0-4.3,0.1-6.5,0.2
		c0,0-0.3-0.3-0.3-0.3c-2.2-2.8-1.5-6.1-1.5-9.1c0-64.1,0-128.2,0-192.4c0-9.7,0-9.7-9.9-9.7c-31.5,0-63,0-94.4,0
		c-9.4,0-9.4,0-9.4,9.2c0,64.3,0,128.6,0,192.9c0,3.1,0.7,6.4-1.5,9.1C169.1,655.8,168.8,656.2,168.8,656.2z"/>
	<path class="st3" d="M169.1,655.8c0-33.2-0.1-66.3-0.1-99.5c0-35.8,0.1-71.7-0.1-107.5c0-4.9,1.4-6,6.1-6
		c35.3,0.2,70.7,0.1,106,0.1c3.3,0,5.1,0.2,5.1,4.4c-0.1,69.2-0.1,138.3-0.1,207.5c0,0.3-0.1,0.7-0.1,1
		C247,655.9,208,655.9,169.1,655.8z"/>
	<path class="st4" d="M307.5,379.1c-12.8,0-25.7-0.1-38.5,0.1c-3.3,0-4.2-0.9-4.2-4.2c0.1-25.7,0.1-51.3,0-77c0-3.3,0.9-4.2,4.2-4.2
		c25.7,0.1,51.3,0.1,77,0c3.3,0,4.2,0.9,4.2,4.2c-0.1,25.7-0.1,51.3,0,77c0,3.3-0.9,4.2-4.2,4.2C333.2,379,320.3,379.1,307.5,379.1z
		"/>
	<path class="st4" d="M369,485.9c-5.8,0-11.7-0.1-17.5,0c-2.6,0.1-3.9-0.5-3.9-3.5c0.1-12,0.1-24,0-36c0-2.6,1-3.4,3.5-3.4
		c11.8,0.1,23.7,0.1,35.5,0c2.4,0,3.6,0.4,3.6,3.3c-0.1,12.2-0.1,24.3,0,36.5c0,2.4-0.8,3.2-3.2,3.2C381,485.8,375,485.9,369,485.9z
		"/>
	<path class="st4" d="M454.1,464.5c0,6-0.1,12,0,18c0.1,2.6-0.8,3.5-3.4,3.4c-11.8-0.1-23.7-0.1-35.5,0c-2.9,0-3.7-1-3.7-3.8
		c0.1-11.8,0.1-23.7,0-35.5c0-2.9,0.9-3.7,3.7-3.7c11.8,0.1,23.7,0.1,35.5,0c2.7,0,3.4,1,3.3,3.5C454,452.5,454.1,458.5,454.1,464.5
		z"/>
	<path class="st4" d="M390.1,528.7c0,6-0.1,12,0,18c0,2.3-0.7,3.2-3.1,3.2c-12-0.1-24-0.1-36,0c-2.6,0-3.5-0.9-3.4-3.5
		c0.1-12,0.1-24,0-36c0-2.6,0.8-3.5,3.4-3.4c12,0.1,24,0.1,36,0c2.4,0,3.2,0.9,3.1,3.2C390,516.4,390.1,522.6,390.1,528.7z"/>
	<path class="st4" d="M454.1,528.7c0,5.8-0.1,11.7,0.1,17.5c0.1,2.7-0.7,3.8-3.6,3.8c-11.8-0.1-23.7-0.1-35.5,0
		c-2.6,0-3.5-0.8-3.5-3.4c0.1-12,0.1-24,0-36c0-2.5,0.8-3.5,3.4-3.5c12,0.1,24,0.1,36,0c2.4,0,3.2,0.8,3.2,3.2
		C454,516.3,454.1,522.5,454.1,528.7z"/>
	<path class="st5" d="M275.1,560.5c0,6.6-4,10.5-10.6,10.5c-5.6-0.1-10.5-5-10.4-10.6c0.1-5.8,5-10.5,11.1-10.4
		C271.3,550.1,275.1,554.1,275.1,560.5z"/>
</g>
</svg>
