<?xml version="1.0" encoding="utf-8"?>
<!-- Generator: Adobe Illustrator 19.0.0, SVG Export Plug-In . SVG Version: 6.00 Build 0)  -->
<svg version="1.1" id="Calque_1" xmlns="http://www.w3.org/2000/svg" xmlns:xlink="http://www.w3.org/1999/xlink" x="0px" y="0px"
	 viewBox="0 0 612 792" style="enable-background:new 0 0 612 792;" xml:space="preserve">
<style type="text/css">
	.st0{fill:#2F79BE;}
	.st1{fill:#3C4752;}
</style>
<g>
	<path class="st0" d="M538.1,586c-0.3,11-5.5,19.1-15.5,23.6c-10,4.5-19.6,2.8-27.9-4.4c-10.5-9.2-10.4-9.3,0.1-18.3
		c9.2-7.9,18.5-15.7,27.7-23.7c2.1-1.8,3.2-1.8,5.1,0.4C533.1,570.1,538.6,576.5,538.1,586z"/>
	<path class="st1" d="M512.1,545.5c-32.9-38.5-65.7-77.1-98.6-115.6c-4.4-5.1-4.5-5.3-9.5-0.9c-2.2,2-3.3,1.6-5-0.5
		c-3.1-3.9-6.2-7.9-9.8-11.4c-3-2.9-2.3-4.6,0.3-7.5c38.1-42.9,52.7-92.9,41.8-149.1c-15.8-81.6-86.4-138.5-170.9-138.3
		c-22,0.3-44.9,4.9-66.6,14.7c-73.5,33.1-113.4,109.3-99,188.9c13.2,72.8,74.8,130.5,147.8,138.3c41.9,4.5,80.7-4.4,115.9-27.8
		c2.3-1.6,3.7-1.9,5.6,0.6c2.8,3.7,5.7,7.4,9.1,10.6c3.5,3.3,3.6,5.7-0.6,8.2c-2.3,1.4-3.6,2.7-1,5.7
		c33.7,39.3,67.3,78.8,100.8,118.3c2.2,2.6,3.4,2.9,6.1,0.6c10.9-9.6,21.9-19,33.1-28.2C514.6,549.6,514.5,548.3,512.1,545.5z
		 M263.4,422.6c-70.7,0.6-128.6-57.3-129.1-128.9c-0.5-69.8,56.8-128.3,126.3-128.9c72.6-0.7,131,55.8,131.5,127.2
		C392.6,364.5,335.8,422.1,263.4,422.6z"/>
	<path class="st0" d="M349.9,300.9c0-11.9-0.1-22.9,0.1-33.9c0.1-3.1-1.1-4.8-3.7-6.3c-5.8-3.3-11.3-7.1-17-10.4
		c-2.4-1.4-3.5-3-3.4-5.9c0.2-7.8,0-15.7,0.1-23.5c0-3.9-1.6-5.9-5.6-5.8c-6.5,0.1-13,0-19.5,0.1c-3,0-4.6,1.6-4.7,4.7
		c0,2.9,0,5.9,0,9.9c-8.8-5.5-16.7-10.1-24.4-15.1c-6.9-4.5-13.4-4.4-20.5,0c-21.1,13.3-42,27-63.8,39.2c-11,6.2-16,13.2-14,25.8
		c1,6.5,0.2,13.4,0.2,21.1c5.3-3.2,9.6-5.9,14.6-8.9c0,2.9,0,4.9,0,6.9c0,20.2,0,40.3,0,60.5c0,8.6,4.9,13.9,12.9,13.9
		c40.1,0.1,80.3,0.1,120.4,0c8.3,0,13.1-5.1,13.3-13.5c0.1-6.5,0-13,0-19.5c0-15.8,0-31.5,0-48.1
		C340.2,295.1,344.8,297.9,349.9,300.9z M318.2,352.8c0,3-0.8,4-3.9,4c-9.2-0.2-18.3-0.2-27.5,0.1c-3.5,0.1-4.1-1.3-4.1-4.4
		c0.1-18.3,0.1-36.6,0-55c0-7.1-0.7-7.7-7.7-7.7c-9.5,0-19,0.1-28.5,0c-4.3-0.1-6,1.7-5.9,6c0.2,5,0.2,10-0.1,15
		c-0.2,3.7,1.2,4.6,4.6,4.3c2.6-0.2,5.3-0.1,8,0c2.6,0.1,4,1.6,4,4.1c0,2.6-1.6,3.9-4.2,4c-2.7,0-5.4,0.2-8,0
		c-3.6-0.4-4.5,1.2-4.4,4.6c0.2,8-0.2,16,0.2,24c0.2,4.3-1.3,5.3-5.4,5.2c-8.3-0.3-16.7-0.3-25,0c-4.2,0.2-5.8-0.6-5.6-5.3
		c0.4-10.8,0.1-21.6,0.1-32.5c0,0,0,0,0,0c0-11.2,0.1-22.3-0.1-33.5c0-2.7,0.6-4.5,3.1-6c16.6-10.1,33.2-20.4,49.6-30.8
		c2.8-1.8,4.8-1.8,7.6-0.1c16.6,10.5,33.3,20.8,50.1,31c2.2,1.3,2.8,2.8,2.8,5.2C318.2,307.5,318.1,330.2,318.2,352.8z"/>
</g>
</svg>
