<?xml version="1.0" encoding="utf-8"?>
<!-- Generator: Adobe Illustrator 19.0.0, SVG Export Plug-In . SVG Version: 6.00 Build 0)  -->
<svg version="1.1" id="Calque_1" xmlns="http://www.w3.org/2000/svg" xmlns:xlink="http://www.w3.org/1999/xlink" x="0px" y="0px"
	 viewBox="0 0 612 792" style="enable-background:new 0 0 612 792;" xml:space="preserve">
<g>
	<path d="M52,578c0-101,0-202,0-303c0.3-0.6,0.6-1.2,0.7-1.8c3.8-23.7,16.7-40.5,38.4-50.5c2.8-1.3,2.9-3.1,2.9-5.5
		c0-14.3-0.1-28.6,0-42.9c0.2-18.3,12.3-34.1,29.8-39.4c2-0.6,4.1-1.2,6.1-1.9c21,0,42,0,63,0c0.4,0.3,0.8,0.7,1.2,0.8
		c22.5,5.8,34.1,20.9,34.1,44.1c0,11.2,0,22.3,0,33.5c0,1.8,0.2,3.5,0.3,5.5c2.1,0,3.6,0,5.1,0c84.3,0,168.6,0,252.9,0.1
		c6.3,0,12.7,0.3,18.8,1.7c30,6.9,50.2,32.8,50.4,64.4c0.2,34.3,0,68.6,0,103c0,61,0.1,122,0,182.9c0,31-18.9,56.5-47.6,64.6
		c-3.3,0.9-6.7,1.7-10.1,2.5c-129.7,0-259.3,0-389,0c-0.9-0.3-1.8-0.8-2.7-1c-26.3-5.4-43.5-20.9-51.7-46.4
		C53.5,585.1,52.9,581.5,52,578z M110.9,367.4c0,63.8,0,127.6,0,191.4c0,16.3,10.5,26.9,26.9,26.9c14.8,0,29.7,0,44.5,0
		c19.5,0.1,29.4-9.9,29.4-29.5c0-75.3,0-150.6,0-225.9c0-51,0.1-102,0-152.9c0-17.5-10.2-27.5-27.7-27.5c-15.2,0-30.3,0-45.5,0
		c-2.8,0-5.7,0.1-8.4,0.7c-11.9,2.9-19,12.6-19,25.9C110.9,240.1,110.9,303.8,110.9,367.4z M387.9,351
		C387.9,351,387.9,351,387.9,351c36,0,72,0,107.9,0c15.4,0,26.1-10.7,26.2-26c0.1-16,0.1-32,0-48c0-16-10.6-26.6-26.6-26.6
		c-71.5-0.1-142.9-0.1-214.4,0c-17.1,0-27.4,10.3-27.5,27.3c-0.1,15.2-0.1,30.3,0,45.5c0.1,17.8,10.2,27.8,27.9,27.8
		C317,351,352.5,351,387.9,351z M329,401.2C329,401.2,329,401.2,329,401.2c0-5.5,0.1-11,0-16.5c-0.2-9.8-6.9-16.7-16.6-16.9
		c-11.1-0.2-22.3-0.2-33.4,0c-10.1,0.1-16.9,6.9-17,17c-0.1,11-0.1,22,0,32.9c0.1,9.7,6.9,16.8,16.6,17c11.3,0.3,22.6,0.2,33.9,0
		c9.6-0.2,16.4-7.4,16.5-17.1C329.1,412.2,329,406.7,329,401.2z M262,484.9C262,484.9,262,484.9,262,484.9c0,5.5-0.1,11,0,16.5
		c0.1,9.8,6.6,16.9,16.4,17.2c11.5,0.4,23,0.4,34.4,0c9.3-0.3,16.1-7.3,16.2-16.3c0.2-11.5,0.2-23,0-34.4c-0.1-8.7-6.7-15.7-15.3-16
		c-12-0.4-24-0.4-35.9-0.1c-9.1,0.3-15.6,7.4-15.7,16.7C261.9,474,262,479.4,262,484.9z M262,569c0,5.3,0,10.6,0,16
		c0.1,10.1,6.6,17.2,16.6,17.4c11.1,0.2,22.3,0.2,33.4,0c10.4-0.2,16.9-7.1,17-17.5c0.1-10.6,0.1-21.3,0-31.9
		c-0.1-9.8-6.4-17.1-16.1-17.4c-11.6-0.4-23.3-0.4-34.9,0c-9.6,0.4-15.8,7.5-16,17C261.9,558,262,563.5,262,569z M480,367.8
		C480,367.8,480,367.8,480,367.8c-5.5,0-11-0.1-16.5,0c-9.8,0.2-16.6,6.8-16.8,16.6c-0.2,11.1-0.2,22.3,0,33.4
		c0.2,9.8,6.9,16.7,16.6,16.9c11.1,0.2,22.3,0.2,33.4,0c9.5-0.2,16.6-6.8,16.9-16.3c0.4-11.5,0.4-23,0-34.4
		c-0.3-9.7-7.4-16.1-17.2-16.3C491,367.8,485.5,367.8,480,367.8z M421.3,401.1C421.3,401.1,421.3,401.1,421.3,401.1
		c0-5.7,0.1-11.3-0.1-17c-0.3-9.6-7-16.2-16.6-16.3c-11.1-0.1-22.3-0.1-33.4,0c-9.7,0.1-16.7,6.9-16.9,16.6
		c-0.3,11.1-0.2,22.3,0,33.4c0.2,9.7,7.1,16.7,16.8,16.9c11.1,0.3,22.3,0.2,33.4,0c9.9-0.2,16.7-7.2,16.9-17.2
		C421.4,412.1,421.3,406.6,421.3,401.1z M387.9,451.6C387.9,451.6,387.9,451.6,387.9,451.6c-5.5,0-11-0.1-16.5,0
		c-10.3,0.2-17.1,7-17.2,17.4c-0.1,10.7-0.1,21.3,0,32c0.1,10.1,6.7,17.2,16.7,17.5c11.2,0.3,22.3,0.3,33.5,0
		c10.3-0.3,16.7-7,16.8-17.3c0.2-10.8,0.2-21.7,0-32.5c-0.2-10.5-6.8-17-17.4-17.2C398.6,451.5,393.2,451.6,387.9,451.6z
		 M446.7,485.2c0,5.5-0.1,11,0,16.5c0.2,9.6,6.6,16.6,16.1,16.9c11.5,0.4,23,0.4,34.4,0c9.6-0.3,16.3-7.1,16.5-16.6
		c0.3-11.3,0.3-22.6,0-33.9c-0.3-9.5-7.2-16.2-16.7-16.3c-11.3-0.2-22.6-0.2-33.9,0c-9.6,0.2-16.1,6.9-16.4,16.5
		C446.5,473.9,446.7,479.5,446.7,485.2z M421.3,568.9C421.3,568.9,421.3,568.9,421.3,568.9c0-5.3,0.1-10.7,0-16
		c-0.2-10.2-6.6-17.2-16.7-17.4c-11.2-0.3-22.3-0.3-33.5,0c-10.1,0.3-16.7,7.1-16.9,17.3c-0.2,10.8-0.2,21.7,0,32.5
		c0.2,10.1,6.9,16.9,17,17.1c11.2,0.2,22.3,0.2,33.5,0c9.9-0.2,16.3-7,16.5-16.9C421.4,579.9,421.3,574.4,421.3,568.9z M480.1,602.4
		C480.1,602.4,480.1,602.4,480.1,602.4c5.7,0,11.3,0.2,17,0c9.5-0.4,16.4-6.9,16.7-16.5c0.3-11.3,0.3-22.7,0-34
		c-0.3-9.4-6.9-16.1-16.2-16.4c-11.5-0.4-23-0.4-34.5,0c-9.6,0.3-16.1,7.2-16.3,16.8c-0.2,11.2-0.2,22.3,0,33.5
		c0.2,9.7,6.7,16.2,16.4,16.6C468.7,602.5,474.4,602.4,480.1,602.4z"/>
	<path d="M387.7,334.1c-35.3,0-70.6,0-105.9,0c-9,0-11.5-2.5-11.5-11.6c0-14.8,0-29.6,0-44.5c0-7.9,3-11,10.8-11
		c71.1,0,142.2,0,213.3,0c8,0,10.9,2.7,10.9,10.7c0,15.3,0,30.6,0,46c0,7.7-2.7,10.3-10.6,10.3C458.9,334.1,423.3,334.1,387.7,334.1
		z M414.2,283.1c-2.3-2.6-3.9-5.4-6.3-6.8c-3.5-2.1-7-0.6-9.9,2.3c-10.7,10.7-21.4,21.4-32,32.1c-4.1,4.1-4.3,9.4-0.7,12.8
		c3.6,3.4,8.3,3.3,12.4-0.8c10.7-10.6,21.4-21.3,32-32.1C411.4,288.7,412.4,286.2,414.2,283.1z M420.7,326.9c3-1.7,5.4-2.6,7.1-4.2
		c10.9-10.7,21.8-21.6,32.5-32.4c3.8-3.9,3.8-9.1,0.3-12.4c-3.4-3.2-8.2-3.1-12.1,0.6c-4.6,4.4-9,8.9-13.5,13.4
		c-6.5,6.5-13,12.9-19.4,19.4c-2.7,2.7-4,6.2-1.8,9.5C415.5,323.1,418.3,324.8,420.7,326.9z M320.3,326.9c2.9-1.8,5.3-2.8,7-4.4
		c5-4.7,9.7-9.6,14.5-14.4c6.1-6.1,12.3-12.2,18.3-18.4c3.4-3.6,3.2-8.4,0-11.7c-3.2-3.2-8.2-3.4-11.7,0
		c-11.4,11.2-22.7,22.5-33.9,33.9c-2.6,2.6-3.3,6.2-1.2,9.2C314.9,323.4,317.8,324.9,320.3,326.9z M498,300.1
		c-2.1-2.5-3.7-5.3-6-6.9c-3.3-2.1-6.8-1.1-9.5,1.7c-5.3,5.3-10.6,10.5-15.8,15.9c-4.2,4.3-4.4,9.2-0.7,12.7
		c3.5,3.4,8.3,3.2,12.4-0.8c5.2-5.1,10.4-10.2,15.4-15.6C495.4,305.5,496.3,303.1,498,300.1z M313.2,283.1c-2-2.4-3.6-5.2-5.9-6.7
		c-3.2-2-6.8-1-9.5,1.7c-5.4,5.4-10.9,10.7-16.1,16.2c-3.7,3.9-3.7,9.1-0.2,12.4c3.4,3.2,8.2,3.1,12-0.6
		c5.5-5.3,10.9-10.7,16.1-16.2C311,288.3,311.7,286,313.2,283.1z"/>
	<path d="M311.9,417.8c-11,0-21.7,0-32.8,0c0-11,0-21.9,0-33.1c11,0,21.7,0,32.8,0C311.9,395.8,311.9,406.7,311.9,417.8z"/>
	<path d="M311.9,501.7c-11.2,0-21.8,0-32.7,0c0-11.1,0-22,0-33.2c10.9,0,21.6,0,32.7,0C311.9,479.6,311.9,490.5,311.9,501.7z"/>
	<path d="M311.8,585.6c-10.9,0-21.5,0-32.6,0c0-11,0-21.9,0-33.1c10.7,0,21.4,0,32.6,0C311.8,563.3,311.8,574.1,311.8,585.6z"/>
	<path d="M496.8,384.5c0,11.4,0,22.1,0,33.2c-11.1,0-22,0-33.5,0c0-10.3-0.1-20.6,0.1-30.8c0-0.8,1.5-2.3,2.4-2.3
		C476.1,384.4,486.3,384.5,496.8,384.5z"/>
	<path d="M404.4,384.8c0,11.1,0,21.8,0,32.9c-11,0-21.8,0-33,0c0-10.8,0-21.7,0-32.9C382.3,384.8,393.2,384.8,404.4,384.8z"/>
	<path d="M404.4,468.7c0,11.1,0,21.9,0,33c-11.1,0-22,0-33.2,0c0-11,0-21.8,0-33C382.1,468.7,393,468.7,404.4,468.7z"/>
	<path d="M463.6,468.5c11.2,0,22,0,33.1,0c0,11.1,0,22,0,33.2c-11,0-21.9,0-33.1,0C463.6,490.6,463.6,479.9,463.6,468.5z"/>
	<path d="M404.2,585.5c-11,0-21.8,0-32.9,0c0-11.1,0-22,0-33.2c10.9,0,21.6,0,32.9,0C404.2,563.2,404.2,574.1,404.2,585.5z"/>
	<path d="M496.8,552.5c0,11.1,0,21.8,0,32.9c-11.1,0-22,0-33.2,0c0-11,0-21.8,0-32.9C474.5,552.5,485.4,552.5,496.8,552.5z"/>
</g>
</svg>
