<?xml version="1.0" encoding="utf-8"?>
<!-- Generator: Adobe Illustrator 19.0.0, SVG Export Plug-In . SVG Version: 6.00 Build 0)  -->
<svg version="1.1" id="Calque_1" xmlns="http://www.w3.org/2000/svg" xmlns:xlink="http://www.w3.org/1999/xlink" x="0px" y="0px"
	 viewBox="0 0 612 792" style="enable-background:new 0 0 612 792;" xml:space="preserve">
<style type="text/css">
	.st0{fill:#FDFDFD;}
</style>
<g>
	<path d="M22,592c0-91.3,0-182.7,0-274c3.1-26.9,18.7-43.6,43.1-53c6.6-2.5,13.5-3.5,20.6-3.5c4,0,8,0,12,0c7.8,0,7.8,0,7.9-7.6
		c0-6.3-0.2-12.6,0.9-18.9c3.7-21.7,21.5-37.2,43.6-37.4c14.3-0.1,28.7-0.1,43,0c25.9,0.1,44.7,22.7,43.5,44.2c-0.3,5,0,10-0.1,15
		c-0.1,3.3,1.2,4.9,4.7,4.8c17.1-0.2,14.3,2.1,14.4-13.6c0.1-30.3,0.1-60.6,0-91c0-7,2.5-12.5,7.3-17.4c2.9-3,6.6-3.7,10.2-4.6
		c60,0,120,0,180,0c12.1,2.3,18.4,9.8,18.4,22.7c0.1,31.9,0,63.9,0,95.9c0,7.4,0,7.4,7.4,8.6c23.8,3.9,40.8,16.7,51.1,38.5
		c2.8,5.9,3,12.1,4,18.3c0,91,0,182,0,273c-2.7,24-16.3,40-37.3,50.6c-5.9,3-12.4,3.5-18.7,4.4c-133.7,0-267.3,0-401,0
		c-24-2.8-40.2-16.1-50.7-37.4C23.6,604,22.9,598,22,592z"/>
	<path class="st0" d="M363.4,455c-21,0-42,0-63,0c-24.7,0-43.4-18.3-43.6-43c-0.1-13.8-0.1-27.7,0-41.5
		c0.2-25.4,18.6-43.5,44.1-43.5c41.5,0,83,0,124.5,0c26.4,0,44.6,18.2,44.7,44.5c0,13.7,0.1,27.3,0,41
		c-0.1,23.5-19.1,42.4-42.7,42.5C406,455.1,384.7,455,363.4,455z"/>
	<path class="st0" d="M150,391.2c0-48.1,0.1-96.3-0.1-144.4c0-4.2,1-5.2,5.1-5.1c10.8,0.3,21.7,0.4,32.5,0c4.7-0.2,5.3,1.4,5.3,5.6
		c-0.1,71.6-0.1,143.2-0.1,214.8c0,24.3-0.1,48.6,0.1,72.9c0.1,4.6-1.4,5.5-5.6,5.3c-10.8-0.3-21.7-0.3-32.5,0
		c-3.8,0.1-5-0.7-4.9-4.8C150.1,487.4,150,439.3,150,391.2z"/>
	<path class="st0" d="M363.3,263c-20,0-40-0.1-59.9,0.1c-3.1,0-4.3-0.5-4.2-4c0.2-25.6,0.1-51.3,0-76.9c0-3.4,0.9-4.5,4.4-4.5
		c40,0.1,79.9,0.1,119.9,0c3.1,0,3.9,0.7,3.9,3.8c-0.1,25.8-0.2,51.6,0,77.4c0,3.9-1.4,4.2-4.6,4.1C403,262.9,383.2,263,363.3,263z"
		/>
	<path class="st0" d="M298.7,519c-11.9-0.3-21.1-10.2-20.7-22.3c0.4-11.3,10.3-20.7,21.6-20.4c11.7,0.3,21.2,10,21,21.6
		C320.6,509.7,310.6,519.3,298.7,519z"/>
	<path class="st0" d="M363.2,519c-11.7-0.1-21.3-9.7-21.2-21.3c0-11.9,9.9-21.6,21.7-21.4c11.6,0.2,21.2,10.1,21,21.6
		C384.5,509.6,374.9,519.1,363.2,519z"/>
	<path class="st0" d="M278,561.4c0.2-11.7,9.8-21.2,21.5-21.1c11.5,0,21.3,9.8,21.3,21.4c0,11.8-9.9,21.5-21.8,21.3
		C287.3,582.8,277.8,573.1,278,561.4z"/>
	<path class="st0" d="M427.4,519c-11.7,0-21.3-9.5-21.4-21.2c-0.1-11.8,9.8-21.7,21.5-21.6c11.6,0.1,21.3,9.9,21.2,21.5
		C448.7,509.4,439,519,427.4,519z"/>
	<path class="st0" d="M342,561.4c0.1-11.6,9.9-21.2,21.5-21.1c11.6,0.1,21.3,9.9,21.3,21.4c0,11.8-9.9,21.5-21.8,21.3
		C351.3,582.8,341.9,573.1,342,561.4z"/>
	<path class="st0" d="M427.2,583c-11.7-0.1-21.2-9.7-21.2-21.4c0-11.7,9.5-21.3,21.2-21.4c11.7-0.1,21.7,10,21.5,21.7
		C448.5,573.6,438.8,583.1,427.2,583z"/>
	<path d="M363.1,412.3c-19.8,0-39.6-0.1-59.4,0.1c-3.4,0-4.6-0.7-4.5-4.4c0.2-11.3,0.2-22.6,0-34c0-3,0.4-4.4,4-4.4
		c40.3,0.1,80.6,0.1,120.8,0c2.6,0,3.4,0.7,3.3,3.4c-0.1,11.8-0.1,23.6,0.1,35.4c0.1,3.1-0.8,3.9-3.9,3.9
		C403.4,412.2,383.2,412.3,363.1,412.3z"/>
	<path d="M363,199c7,0,14,0,21,0c12.4,0.1,21.9,9.1,22,21c0.2,11.9-8.9,21.4-21.3,21.7c-14.1,0.3-28.3,0.3-42.4,0
		c-12.7-0.2-21.6-9.6-21.4-22c0.2-11.8,9.6-20.6,22.2-20.7C349.7,199,356.3,199,363,199z"/>
</g>
</svg>
