<?xml version="1.0" encoding="utf-8"?>
<!-- Generator: Adobe Illustrator 19.0.0, SVG Export Plug-In . SVG Version: 6.00 Build 0)  -->
<svg version="1.1" id="Calque_1" xmlns="http://www.w3.org/2000/svg" xmlns:xlink="http://www.w3.org/1999/xlink" x="0px" y="0px"
	 viewBox="0 0 612 792" style="enable-background:new 0 0 612 792;" xml:space="preserve">
<style type="text/css">
	.st0{fill:#FDFDFD;}
	.st1{fill:#0095E4;}
	.st2{fill:#0195E4;}
	.st3{fill:#0295E5;}
	.st4{fill:#CEE6F7;}
	.st5{fill:#CDE6F7;}
	.st6{fill:#CDE5F6;}
	.st7{fill:#CCE5F6;}
	.st8{fill:#CCE5F7;}
	.st9{fill:#CCE4F6;}
	.st10{fill:#CDE5F7;}
</style>
<g>
	<path class="st0" d="M93.5,332.4c0,2.8,0,4.4,0,6c0,82.7,0,165.3,0,248c0,24.5,18.6,43.5,43,43.8c15.2,0.2,30.4-0.5,45.5,0.2
		c26.1,1.2,46.2-21,46-45.8c-0.7-82-0.3-164-0.3-246c0-10.1,0-10.1,9.8-10.1c80.2,0.1,160.3,0.1,240.5,0.2c7,0,14-0.8,21,0.5
		c23.7,4.5,39.1,22.4,39.3,46.6c0.3,37.2,0.1,74.3,0.1,111.5c0,37,0,74,0,111c0,25.1-15.5,43.7-40.1,48c-2.8,0.5-5.6,0.5-8.5,0.5
		c-124,0-248,0.1-372,0c-26.2,0-44.7-15.2-48.9-40.1c-0.6-3.6-0.6-7.3-0.6-11c0-72,0-144,0-216C68.4,360.2,76.1,344.5,93.5,332.4z"
		/>
	<path class="st1" d="M557.9,379.1c0-6.7-0.7-13.3-2.8-19.7c-8.8-26.8-26.9-43.4-54.7-49.2c-9.3-1.9-9.5-2-9.5-11.8
		c0-32.5,0-65,0-97.5c0-9.5,0.2-19-0.1-28.5c-0.2-7.8-1.3-9.1-8.3-11.6c-58,0-116,0-174,0c-4.3,1.1-7.7,3.7-10.8,6.8
		c-13.3,13.5-26.6,27.1-40.4,40.2c-5.4,5.2-7.5,10.8-7.4,18.2c0.3,24,0.1,48,0.1,72c0,11.3-0.2,11.5-11.4,11.4
		c-7.7-0.1-8.7-1-8.7-8.6c-0.1-16.5,0-33,0-49.5c0-3.2-0.3-6.3-1.2-9.4c-6.5-20.4-23.9-33.4-45.3-33.5c-15-0.1-30-0.1-45,0
		c-27.3,0.2-47.2,20.1-47.3,47.5c-0.1,16.5-0.1,33,0,49.5c0,4.2-1,7.6-4.9,9.6c-7.6,3.9-13.3,10-18.8,16.3
		C59.2,340.6,53,351,52.4,364c-0.1,2.6,0.1,5.3-0.9,7.8c0,78,0,156,0,234c1.1,6,0.5,12.3,2.9,18c8.1,19.4,29.4,40.8,58.7,40.7
		c126.8-0.4,253.6-0.1,380.5-0.2c9.4,0,18.8-0.9,27.3-6c23.5-13.9,36.7-34.1,36.8-61.7C558.1,524.1,558,451.6,557.9,379.1z
		 M210.7,421.8c0,54.8-0.3,109.6,0.2,164.4c0.1,15.9-9.2,27.5-27,27.1c-15.7-0.4-31.3-0.1-47-0.1c-17.2-0.1-26.3-9.4-26.3-26.7
		c0-88.5,0-176.9,0-265.4c0-22.2-0.1-44.3-0.1-66.5c0-17.5,9.4-26.8,26.9-26.8c15.7,0,31.3,0,47,0c17.4,0.1,26.7,9.3,26.7,27
		c0,41.5-0.2,83-0.3,124.4C210.7,393.5,210.7,407.7,210.7,421.8z M303.4,191.1c0,5.8,0,11.8,0,17.8c0,2.2-1.8,2.1-3.2,2.1
		c-5.5,0-11,0-16.8,0C290.2,204.2,296.6,197.8,303.4,191.1z M466.5,311.8c-32.2-0.1-64.3-0.1-96.5-0.1c-31.5,0-63-0.1-94.5,0.1
		c-4.4,0-6-0.8-5.9-5.7c0.3-24.5,0.2-49,0-73.5c0-4,1.2-5.1,5.1-5c11.8,0.2,23.7,0.1,35.5,0.1c7,0,10-3,10.1-10.1
		c0.1-11.7,0.2-23.3,0-35c-0.1-3.7,0.7-5.2,4.9-5.2c47.2,0.2,94.3,0.1,141.5,0c3.6,0,4.9,0.8,4.9,4.7c-0.1,41.7-0.1,83.3,0,125
		C471.4,311.2,470,311.9,466.5,311.8z"/>
	<path class="st1" d="M370.7,412.3c-32.5,0-64.9,0-97.4,0c-9.6,0-11.8-2.3-11.8-11.7c0-14.8,0-29.6,0-44.5c0-8.2,2.6-10.9,10.7-10.9
		c52.8,0,105.6,0,158.4,0c12.7,0,25.3,0,38,0c8.4,0,11.1,2.8,11.1,11c0,15,0,30,0,45c0,8.5-2.6,11.1-11,11.1
		C436,412.3,403.3,412.3,370.7,412.3z"/>
	<path class="st2" d="M345.4,588.5c0-5.3-0.1-10.7,0-16c0.1-6,2.9-9.2,8.7-9.3c11-0.2,22-0.2,33,0c5.4,0.1,8.5,3.5,8.6,9
		c0.1,10.8,0.1,21.6-0.1,32.5c-0.1,5.5-3.2,8.7-8.7,8.8c-10.8,0.2-21.6,0.2-32.5,0c-6-0.1-8.9-3.4-9-9.6
		C345.4,598.8,345.4,593.7,345.4,588.5z"/>
	<path class="st1" d="M345.4,453.8c0-5.2-0.1-10.3,0-15.5c0.1-5.8,3.1-9.2,8.8-9.3c10.8-0.2,21.6-0.2,32.5,0c5.9,0.1,9,3.6,9,9.6
		c0,10.3,0,20.6-0.1,31c-0.1,6.8-2.9,9.7-9.8,9.8c-10.3,0.1-20.6,0.1-31,0c-6.4-0.1-9.4-3.1-9.5-9.6
		C345.3,464.5,345.4,459.2,345.4,453.8C345.4,453.8,345.4,453.8,345.4,453.8z"/>
	<path class="st2" d="M345.4,521.3c0-5.5-0.1-11,0-16.5c0.1-5.2,3.1-8.6,8.3-8.7c11.1-0.2,22.3-0.2,33.5,0c5.4,0.1,8.4,3.6,8.4,9.1
		c0.1,10.7,0.1,21.3,0,32c-0.1,6-3.2,9.2-9.3,9.3c-10.5,0.1-21,0.1-31.5,0c-6.4-0.1-9.3-3.2-9.4-9.7c0-2.7,0-5.3,0-8
		C345.4,526.3,345.4,523.8,345.4,521.3z"/>
	<path class="st2" d="M412.5,453.9c0-5.2-0.1-10.3,0-15.5c0.1-5.8,3.1-9.2,8.8-9.3c11-0.2,22-0.2,33,0c5.5,0.1,8.8,3.9,8.8,9.5
		c0,10.3-0.1,20.6-0.3,31c-0.1,6.8-3,9.8-9.8,9.9c-10.3,0.1-20.7,0.1-31,0c-6.7-0.1-9.5-3.2-9.5-10
		C412.5,464.2,412.5,459,412.5,453.9C412.5,453.9,412.5,453.9,412.5,453.9z"/>
	<path class="st2" d="M412.5,521.4c0-5.5-0.1-11,0-16.5c0.1-5.2,3.1-8.6,8.3-8.7c11.2-0.2,22.3-0.2,33.5,0c5.4,0.1,8.8,4,8.8,9.6
		c0,10.3-0.2,20.6-0.3,31c-0.1,6.8-3,9.8-9.8,9.8c-10.2,0.1-20.3,0.1-30.5,0c-7.1-0.1-10-3.1-10-10.1
		C412.5,531.4,412.5,526.4,412.5,521.4z"/>
	<path class="st2" d="M278.3,520.6c0-5.2-0.1-10.3,0-15.5c0.1-5.8,3.1-8.9,9-9c10.7-0.2,21.3-0.2,32,0c6.1,0.1,9.2,3.4,9.2,9.4
		c0,10.5,0,21,0,31.5c0,6.4-3.1,9.5-9.5,9.5c-10.5,0.1-21,0.1-31.5,0c-6.1-0.1-9.1-3.2-9.2-9.4C278.2,531.6,278.3,526.1,278.3,520.6
		C278.3,520.6,278.3,520.6,278.3,520.6z"/>
	<path class="st2" d="M328.5,588.3c0,5.3,0.1,10.7,0,16c-0.1,5.8-3.2,9.2-8.9,9.3c-10.8,0.2-21.6,0.2-32.5,0
		c-5.9-0.1-8.8-3.2-8.9-9.1c-0.1-10.7-0.1-21.3,0-32c0.1-6.1,3.1-9.2,9.3-9.3c10.7-0.1,21.3-0.1,32,0c5.8,0.1,8.8,3.3,8.9,9.1
		C328.6,577.7,328.5,583,328.5,588.3C328.5,588.3,328.5,588.3,328.5,588.3z"/>
	<path class="st1" d="M328.5,454.3c0,5.3,0.1,10.7,0,16c-0.1,5.6-3,8.9-8.5,9c-11.2,0.2-22.3,0.2-33.5,0c-5.3-0.1-8.2-3.4-8.2-8.7
		c-0.1-11-0.1-22,0-33c0.1-5.2,3.2-8.5,8.4-8.6c11.2-0.2,22.3-0.2,33.5,0c5.1,0.1,8.2,3.6,8.3,8.8
		C328.6,443.3,328.5,448.8,328.5,454.3z"/>
	<path class="st1" d="M437.5,613.6c-5.2,0-10.3,0.1-15.5,0c-6.4-0.1-9.5-3.2-9.5-9.6c-0.1-10.5-0.1-21,0-31.5c0-5.8,3-9.1,8.8-9.2
		c10.8-0.2,21.7-0.2,32.5,0c5.8,0.1,9.3,3.9,9.2,9.6c-0.1,10.3-0.2,20.6-0.3,31c-0.1,6.8-3,9.7-9.8,9.8
		C447.8,613.7,442.7,613.6,437.5,613.6z"/>
	<path class="st3" d="M399.2,294.9c-11.8,0-23.6,0-35.4,0c-6.2,0-10.2-3.4-10.1-8.5c0.1-4.9,4-8.2,9.9-8.3c24.1-0.1,48.2-0.1,72.4,0
		c6.3,0,10.2,3.5,10,8.6c-0.2,5.2-3.9,8.2-10.4,8.2C423.5,294.9,411.4,294.9,399.2,294.9C399.2,294.9,399.2,294.9,399.2,294.9z"/>
	<path class="st3" d="M341.5,244.7c12,0,23.9,0,35.9,0c6,0,9.8,3.2,9.9,8.2c0.1,4.9-3.8,8.5-9.7,8.5c-24.3,0.1-48.6,0.1-72.8,0
		c-6.1,0-9.7-3.3-9.8-8.3c0-5.3,3.6-8.4,10.1-8.4C317.3,244.7,329.4,244.7,341.5,244.7z"/>
	<path class="st3" d="M383.2,202.8c6.7,0,13.3-0.1,20,0c5.6,0.1,9.3,3.4,9.3,8.3c0,4.8-3.7,8.4-9.2,8.4c-13.5,0.1-27,0.1-40.5,0
		c-5.5-0.1-9.2-3.8-9.1-8.6c0.1-4.8,3.9-8,9.5-8.1C369.9,202.7,376.5,202.8,383.2,202.8z"/>
	<path class="st3" d="M315.9,294.9c-4.2,0-8.3,0.1-12.5,0c-5-0.2-8.3-3.4-8.4-8.1c-0.1-4.5,3-8.4,7.9-8.5c8.6-0.3,17.3-0.3,25.9,0
		c4.9,0.2,8,3.9,7.9,8.6c-0.1,4.7-3.3,7.8-8.4,8C324.2,295,320.1,294.9,315.9,294.9z"/>
	<path class="st3" d="M424.6,261.5c-4,0-8,0.2-12,0c-5.2-0.3-8.5-3.8-8.4-8.6c0.1-4.9,3.4-8,8.8-8.1c8-0.1,16-0.1,24,0
		c5.4,0.1,8.8,3.2,9,8c0.2,4.9-3.3,8.4-8.9,8.7c-2.2,0.1-4.3,0.1-6.5,0.1C428.6,261.5,426.6,261.5,424.6,261.5
		C424.6,261.5,424.6,261.5,424.6,261.5z"/>
	<path class="st4" d="M370.5,395.6c-29,0-57.9-0.1-86.9,0.1c-4.1,0-5.6-1-5.4-5.2c0.3-8,0.2-16,0-24c-0.1-3.3,0.8-4.6,4.4-4.6
		c58.6,0.1,117.2,0.1,175.8,0c3.7,0,4.5,1.4,4.4,4.7c-0.2,8.2-0.3,16.3,0,24.5c0.1,3.9-1.3,4.7-4.9,4.7
		C428.8,395.6,399.6,395.6,370.5,395.6C370.5,395.6,370.5,395.6,370.5,395.6z"/>
	<path class="st5" d="M370.2,596.8c-8.5-0.1-7.9,1.2-7.9-5.9c0-11,0-11,5.4-11c11.3,0,11.3,0,11.3,6.7
		C378.8,596.8,378.8,596.8,370.2,596.8z"/>
	<path class="st4" d="M378.8,454c0,8.7,0,8.7-8.7,8.7c-1,0-2-0.1-3,0c-4,0.6-5.1-1.1-5.1-5c0.1-11.9-0.1-12,10.6-11.9
		C379.7,445.9,378.8,444.8,378.8,454z"/>
	<path class="st6" d="M370.6,529.8c-9.7-0.2-8.3,1.6-8.4-9.5c-0.1-7.4,0-7.5,10-7.3c7.5,0.1,6.6-1.8,6.6,10.2
		C378.8,531.1,379.5,529.6,370.6,529.8z"/>
	<path class="st7" d="M437.8,445.8c8.3,0,8.4,0,8.3,10c-0.1,8.4,0.8,6.9-9.5,6.8c-8.6,0-7.1,1.7-7.3-10.5
		C429.3,445.8,429.3,445.8,437.8,445.8z"/>
	<path class="st5" d="M446.1,521.1c0,8.6,0,8.6-8.8,8.6c-7.9,0-7.9,0-8-8.3c0-8.6,0-8.6,8.7-8.6
		C446.1,512.9,446.1,512.9,446.1,521.1z"/>
	<path class="st8" d="M311.6,521.4c0,8.3,0,8.3-8.4,8.3c-8.3,0-8.3,0-8.3-8.5c0.1-8.3,0.1-8.3,8.5-8.3
		C311.6,512.8,311.6,512.8,311.6,521.4z"/>
	<path class="st9" d="M303.2,596.8c-8.3,0-8.3,0-8.2-10.1c0.1-8.4-1-6.7,10-6.8c7.8,0,6.6-1.7,6.7,10.6
		C311.6,598,312.8,596.7,303.2,596.8z"/>
	<path class="st10" d="M311.7,454.4c-0.2,9.7,1.3,8.2-8.5,8.3c-8.1,0.1-8.1,0-8.2-8.1c-0.1-8.7-0.1-8.7,8.5-8.7
		C311.7,445.9,311.7,445.9,311.7,454.4z"/>
	<path class="st5" d="M437.7,579.9c8.4,0,8.4,0,8.4,8.4c0.1,8.5,0.1,8.5-8.3,8.4c-8.4,0-8.5,0-8.4-8.3
		C429.5,578.4,428.1,580.2,437.7,579.9z"/>
</g>
</svg>
