<?xml version="1.0" encoding="utf-8"?>
<!-- Generator: Adobe Illustrator 19.0.0, SVG Export Plug-In . SVG Version: 6.00 Build 0)  -->
<svg version="1.1" id="Calque_1" xmlns="http://www.w3.org/2000/svg" xmlns:xlink="http://www.w3.org/1999/xlink" x="0px" y="0px"
	 viewBox="0 0 612 792" style="enable-background:new 0 0 612 792;" xml:space="preserve">
<g>
	<path d="M539,457c-2.6,5.9-7.2,8-13.6,8c-17-0.2-34-0.1-51-0.1c-1.6,0-3.3,0-5.3,0c0,28.4,0,56.5,0,85.1c1.7,0.1,3.5,0.2,5.2,0.3
		c10.5,0,21,0,31.5,0c7.3,0.1,12,4.2,12.1,10.5c0.1,6.3-4.6,10.6-11.9,10.6c-33,0.1-66,0.1-99,0c-7.4,0-12-4.2-12.1-10.4
		c-0.1-6.4,4.7-10.7,12.4-10.7c13.1-0.1,26.3,0,39.8,0c0-28.5,0-56.5,0-85.1c-1.7-0.1-3.5-0.2-5.2-0.2c-17.8,0-35.7,0.1-53.5-0.1
		c-6.2,0-10.4-3.7-11.2-9.3c-0.6-4.6,2.2-9.6,6.8-11c2.2-0.7,4.6-0.7,6.9-0.7c40,0,80,0,120,0c2.1,0,4.2,0,6.9,0c0-2.7,0-4.8,0-7
		c0-66.3,0-132.7,0-199c0-8.6,5.8-14.1,13.1-11.7c3.1,1,5.3,4.5,8,6.8C539,307.7,539,382.3,539,457z"/>
	<path d="M27,568c1.7-10.5,3.4-21,5-31.5c5.5-38.6,11-77.1,16.5-115.7c0.9-6.1,1.8-12.2,2.6-18.3c1-7.3,4.6-10.7,11.9-10.7
		c68.6,0,137.3,0,205.9,0c7.1,0,10.8,3.1,12.1,10c10.6,55.6,21.1,111.2,31.7,166.7c1.4,7.3-1.9,12.9-8.3,14.1
		c-6,1.1-11-2.8-12.4-10.1c-10.1-53-20.2-105.9-30.3-159.3c-63.4,0-126.8,0-190.6,0c-1.6,11.1-3.3,22.2-4.9,33.4
		c-5.9,41.5-11.8,83.1-17.8,124.6c-1,7.1-3.9,10.7-9.2,11.4c-6,0.8-9.6-2.6-12.1-7.7C27,572.7,27,570.3,27,568z"/>
	<path d="M366.3,426.8c3.5,18.1,6.9,35.6,10.2,53.1c3.5,18.5,7.4,36.9,10.5,55.4c2.8,17.3-8.4,33-24.4,35.6
		c-17,2.8-31.9-7.8-35.3-25.4c-5.8-29.9-11.5-59.8-17.2-89.7c-3.5-18-6.9-35.9-10.4-53.9c-3.8-19.7,10.1-37,30.1-37.1
		c20.8-0.2,41.6,0,63.6,0c-10.1-19.2-19.9-37.8-30-57c-3.7,4.1-7.1,7.9-10.5,11.7c-4.7,5.2-9.7,10.2-14,15.7
		c-7,9-16.1,13.2-27.2,14.9c-27.8,4.3-55.5,9.1-83.3,13.8c-18.5,3.1-33.7-7-37.1-24.8c-3.3-16.9,7.8-33,25.6-36.2
		c25.2-4.5,50.6-8.5,75.8-12.9c2.7-0.5,5.7-2,7.5-4c18.7-20.6,37.4-41.3,55.7-62.2c8.5-9.7,18.3-15,31.6-12.9
		c4.2,0.7,8.7-0.4,12.9,0c17.5,1.7,31,10.3,39.3,25.7c20.8,38.7,41.3,77.5,61.4,116.6c13.2,25.7,2.2,57.7-23.9,70.1
		c-6.5,3.1-14.4,4.2-21.8,4.4c-15.3,0.4-30.6-0.5-45.9-0.7C395.5,426.7,381.3,426.8,366.3,426.8z"/>
	<path d="M326.2,222.4c-29.1,0.2-52.8-23.3-52.9-52.6c-0.1-28.7,23.7-52.6,52.4-52.7c29.1-0.1,52.9,23.7,52.9,52.7
		C378.7,198.7,355.2,222.2,326.2,222.4z"/>
	<path d="M212,388.2c-15.3,0-30.7-0.1-46,0.1c-5.7,0.1-9.3-2.3-11.9-7.3c-20.7-39.8-41.6-79.6-62.4-119.5c-3.6-6.9-2.3-13,3.4-16
		c5.8-3.1,11.7-0.6,15.4,6.5c19.3,36.9,38.6,73.7,57.7,110.6c1.8,3.5,3.8,4.6,7.6,4.6c27.5-0.2,55-0.1,82.5-0.1
		c7.2,0,11.6,3.9,11.9,10c0.3,6.5-4.1,11-11.3,11C243.3,388.2,227.6,388.2,212,388.2z"/>
</g>
</svg>
