<?xml version="1.0" encoding="utf-8"?>
<!-- Generator: Adobe Illustrator 19.0.0, SVG Export Plug-In . SVG Version: 6.00 Build 0)  -->
<svg version="1.1" id="Calque_1" xmlns="http://www.w3.org/2000/svg" xmlns:xlink="http://www.w3.org/1999/xlink" x="0px" y="0px"
	 viewBox="0 0 612 792" style="enable-background:new 0 0 612 792;" xml:space="preserve">
<style type="text/css">
	.st0{fill:#F28A3D;}
	.st1{fill:#F28B3E;}
	.st2{fill:#F18A3D;}
	.st3{fill:#F38C40;}
	.st4{fill:#F18B3E;}
	.st5{fill:#F3BC94;}
	.st6{fill:#F28B40;}
	.st7{fill:#F5A970;}
	.st8{fill:#F0B183;}
	.st9{fill:#F08C42;}
	.st10{fill:#F18B40;}
	.st11{fill:#F08B40;}
	.st12{fill:#F38E44;}
	.st13{fill:#F5B485;}
	.st14{fill:#F18C41;}
	.st15{fill:#F38F45;}
	.st16{fill:#F28D42;}
	.st17{fill:#EF8B40;}
	.st18{fill:#F38E43;}
	.st19{fill:#F18C40;}
	.st20{fill:#F49956;}
	.st21{fill:#F2AE7B;}
</style>
<g>
	<path class="st0" d="M43.6,395.2c4.8-9.4,8.5-17.9,18-22.3c14-6.5,28.7-10.4,43.7-13.7c1.5-0.3,2.9-0.4,4.1,1.1
		c1.2,1.5,0.4,2.9-0.3,4.2c-2.5,4.7-5,9.4-7.5,14.1c-0.7,1.4-1.7,2.4-3.3,2.7c-0.7,0.1-1.3,0.4-1.9,0.6
		C79,385.7,61.8,389.8,43.6,395.2z"/>
	<path class="st1" d="M43.3,408.1c5.1,0.7,10.2,1.4,14.3,4.9c3.5,3,3.5,6.2,0,9.2c-3,2.5-6.7,3.5-10.5,4.2c-1.6,0.3-2.5-0.3-3.1-1.7
		c-2.1-4.4-3.2-9-3.6-13.8C40.2,408.7,41.1,407.8,43.3,408.1z"/>
	<path class="st0" d="M536,392.3c-4.3,1.1-8.7,1.9-13.1,2.6c-11.2,1.8-12.9,3.8-12.4,14.8c2.1,4,5.1,6.1,9.8,6.5
		c6.1,0.5,12.1,1.8,18.2,2.7c0,0,0,0,0,0c1.2-0.7,1.1-1.9,1.1-3.1c0.2-6.6,0.2-13.3,0.6-19.9C540.4,392.6,539.4,391.5,536,392.3z"/>
	<g>
		<path class="st0" d="M520.4,393.4c4.2-0.8,8.5-1.6,12.8-2.3c7.8-1.3,8.9-3,5.8-10.3c-0.8-1.8-1.8-3.6-3.2-5
			c-4.7-4.6-6.5-10.2-6.2-16.7c0.2-4.2,0-8.3,0-12.5c0-6.2-0.2-11.3-5.5-17c-12.3-13.5-24.3-27.4-36.8-40.8c-2-2.1-5.3-3.7-3.2-7.8
			c0.6-1.1-1-2.4-2.3-2.9c-2.2-0.8-4.4-1.7-6.6-2c-15-2.3-30.1-3.4-45.2-3.7c-33.2-0.7-66.3-0.6-99.5,0.6
			c-19.5,0.7-38.9,1.5-58.4,2.2c-7.4,0.3-14.4,1.9-21.1,5.3c-15.9,8.1-31,17.6-45.8,27.4c-23.6,15.6-48,29-76.1,34.9
			c-16.6,3.5-33,7.9-49.3,12.3c-9.9,2.6-17.4,8.9-23.2,17.4c1.2,0.8,1.7,0.3,2.3,0c14.6-7.8,30.4-11.6,46.3-15
			c2.3-0.5,4.3-0.3,5.9,1.6c1.6,2,1.1,4,0,6c-2.2,4.1-4.6,8.1-6.5,12.4c-1.7,3.7-4.3,5.5-8.2,6.4c-10.1,2.2-20.1,4.7-30.1,7.2
			c-6.9,1.8-13.7,4-20.7,5.7c-4.6,1.1-4.5,4.8-4.6,7.8c-0.2,3.3,3.3,1.9,5,2.2c4,0.7,7.8,1.7,11.2,3.8c6.5,4.1,6.5,10,0.1,14.2
			c-3,2-6.5,2.7-10.2,3.9c3.2,3.3,6.5,4.3,10.3,4.3c8.3,0,16.7,0,25,0c2.7,0,5.7,0.1,7.5,2c4.4,4.5,9.9,4.1,15.4,4.1
			c6.3-0.1,12.7-0.1,19,0c4.2,0.1,5.9-1.8,5-5.8c-0.8-3.9-1.3-7.9-1.1-11.9c0.8-18.4,9.3-32.2,25.8-40.3c17.1-8.3,33.9-6.5,48.8,5.3
			c14.4,11.3,19.8,26.7,16.8,44.8c-1.1,6.8-0.4,7.8,6.7,7.8c33,0,66,0,99,0c19.7,0,39.3,0,59,0c5.3,0,6.6-1.5,5.7-6.1
			c-1.2-5.6-1.5-11.1-0.7-16.8c2.8-22.1,22.2-41.4,48.4-39.7c29.1,1.8,48.3,28,42.4,56.5c-1,4.7,0.1,6.2,4.8,6.2
			c6,0,11.9-1.1,17.8-2.1c11-1.8,21.8-4.7,32.3-8.2c3.2-1.1,4.4-3.2,4.5-6.4c0-3-2.5-1.9-4-2.5c-2.5-1.8-5.5-1.9-8.5-2.2
			c-6.4-0.6-12.9-1.2-17.4-6.7C506.7,400.9,510.2,395.3,520.4,393.4z M323.9,344.2c-0.1,2.9-4.1,1.5-6.3,1.7c-1.6,0.2-3.3,0-4.9,0
			c-1.3,0-2.1-0.5-2.1-2c0-1.5,0.8-2,2.1-2c1.6,0,3.3,0,5.4,0C319.8,342.7,324,340.4,323.9,344.2z M197.2,338.2
			c-2.2,0-4.4-0.2-5.1-2.9c0,0,0,0,0,0c-1.9-2.9,0-4.7,2-6.2c2.9-2.2,6-4.1,9-6.2c17.5-12.3,35-24.7,54.1-34.6
			c6.2-3.2,13.1-2.3,19.6-2.8c12-0.8,24-1.1,35.9-1.5c5.6-0.2,7.6,2.6,6,7.9c-3.9,12.7-7.9,25.4-11.9,38.1c-1.4,4.5-4.7,6.8-9.4,6.9
			C264.2,337.4,230.7,337.8,197.2,338.2z M383.3,430.6c-1.3,0.2-2.6,0.2-4,0.2c-24.1,0-48.3,0-72.4,0c0,0,0,0,0,0
			c-24.3,0-48.6,0-72.9,0c-1.3,0-2.7,0-4-0.2c-1.1-0.1-1.8-0.9-1.7-2c0.1-0.9,0.7-1.5,1.7-1.5c1.2-0.1,2.3-0.1,3.5-0.1
			c48.8,0,97.6,0,146.3,0c1.2,0,2.3,0,3.5,0.1c0.9,0.1,1.4,0.8,1.5,1.7C384.8,429.9,384.1,430.5,383.3,430.6z M417.4,330.6
			c0,3.5-0.9,4.5-4.4,4.4c-12.3-0.2-24.6-0.1-37-0.1c0,0.4,0,0.7,0,1.1c-12.2,0-24.3,0-36.5,0c-7.5,0-11-3.3-10.2-10.7
			c1.4-12.4,3.2-24.7,4.8-37.1c0.5-4,3.1-5.1,6.7-5.1c9.5-0.1,19-0.2,28.5-0.3c14.5-0.2,29-0.4,43.5-0.9c3.8-0.1,4.7,1,4.6,4.7
			C417.2,301.3,417.2,315.9,417.4,330.6z M421.2,331.4c0.1-7.6,0-15.3,0-22.9c0-7.1-0.1-14.3,0.1-21.4c0.1-1.8-1.7-5,2.5-5.2
			c3.7-0.2,6,1.3,6.6,5.1c1,7.2,1.9,14.5,2.9,21.7c0.6,4.6,1.1,9.2,1.8,13.8c1.1,7.5-2.9,12.2-10.5,12.3
			C421.9,334.9,421.1,334,421.2,331.4z M430.8,345.8c-1.2,0-1.4-1.3-1.3-2.3c0.1-1.6,1.4-1.7,2.6-1.6c4.4,0.2,9-1,13.2,2.3
			C440.6,347.2,435.6,345.7,430.8,345.8z M452.3,334.1c-4.3-0.3-7.4-2.4-8.1-6.7c-2.1-12.3-4.1-24.6-5.8-36.9
			c-0.7-5.2,3.1-7.6,8-5.5c2.1,0.9,4.2,2.1,6,3.4c10.2,7.4,12.8,18.9,16,28C468.6,327.7,461.4,334.7,452.3,334.1z M494.8,333
			c-3.3-0.1-4.8-3.3-4.9-6.1c-0.7-11.6-4.2-22.5-7.6-33.4c-0.2-0.6,0.1-1.3,0.3-3.5c12.7,14.9,24.3,28.6,36.7,43.1
			C510.6,333.1,502.7,333.3,494.8,333z"/>
		<path class="st0" d="M204.2,324.7c-2.3,4.4-6.7,6.1-10.8,8.2c2,0.8,3.9,2.1,6.3,1.8c1.9-0.2,4.4,0.1,4.8-2.3
			C205,330,207.3,327,204.2,324.7z"/>
	</g>
	<path class="st2" d="M173.9,382.9c-22.3-0.1-39.7,17.1-39.8,39.3c-0.1,22.2,17.3,39.8,39.4,39.8c21.9,0,39.8-17.8,39.7-39.6
		C213.2,400.6,195.6,383,173.9,382.9z M174.5,454.3c-18.7,0.2-33-13.6-33.1-31.9c-0.1-17.3,14.3-32,31.6-32.1
		c18.1-0.2,32.3,13.9,32.4,32.1C205.6,439.8,191.7,454.1,174.5,454.3z"/>
	<path class="st2" d="M435.3,382.3c-21.8,0.1-39.4,17.9-39.3,39.9c0.1,21.8,17.6,39.4,39.3,39.5c21.7,0.1,39.8-18,39.8-39.7
		C475.1,400.4,456.9,382.2,435.3,382.3z M435.8,454c-18.3,0-32.5-13.9-32.5-31.9c0-18.5,14-32.1,32.7-32.1
		c17.4,0,31.3,14.5,31.3,32.6C467.3,439.7,452.9,454,435.8,454z"/>
	<path class="st3" d="M193.3,333c3-3.8,7.8-5.5,11.2-8.9c1.8-1.4,3.1-1.5,2.8,1.3c-0.3,2.6-0.9,5.2-1.2,7.8
		c-0.3,2.2-1.4,3.4-3.6,2.9C199.3,335.4,194.9,338.5,193.3,333z"/>
	<g>
		<path class="st4" d="M176.7,435.4C176.7,435.4,176.7,435.4,176.7,435.4c-3.6-1-4,3.3-6.5,4c-1-0.4-1.5-1-1.6-1.7
			c-1.3,1.6-2.2,3.3-0.4,5.5c1.4,1.7,8.9,1.5,10.4,0.2c1.1-0.9,0.8-2,0.5-3.2C178.6,438.5,177.5,437.1,176.7,435.4z"/>
		<path class="st4" d="M173,394c-15.2,0.1-27.9,12.9-27.8,28.2c0.1,16,12.6,28.7,28.3,28.8c15.3,0,28.5-13,28.6-28.2
			C202.2,406.9,189,393.9,173,394z M192.7,439c-1.1,1.6-2.1,1.7-3.6,0.4c-1.9-1.6-3.9-3-5.8-4.6c0,0,0.1,0.1,0.1,0.1
			c0,0-0.1-0.1-0.1-0.1c-2.6,2.2-1.3,4.8-0.4,7.1c1.1,3,0.1,4.2-2.8,4.9c-5,1.3-9.9,0.7-14.8-0.3c-1.2-0.3-3.1-0.7-2.1-2.5
			c2.5-4.8-0.3-11.3,4.7-15.4c0.1-0.1-0.1-0.6-0.3-1.4c-3.4,3.6-5.5,8-10,10.3c-2.6,1.4-3.9,1.1-5.1-1.2c-1.5-2.8-2.8-5.6-3.6-8.7
			c-2-8.6,0.1-10.7,8.7-8.3c2.6,0.7,5.1,1.9,7.8,2.4c-1.8-2.8-5.5-2-7.9-4.6c3.8-1,6.6,2.4,11.5,1.5c-3.3-1.3-5.4-2.4-7.5-3
			c-3.2-1-5.2-3.4-7.7-5.4c-1.6-1.2-1.5-2.3-0.3-3.7c3.8-4.4,8.7-7.1,14.2-8.9c1.4-0.5,2.4-0.2,2.6,1.2c0.8,5.2,5.5,9.4,4.1,15.1
			c-0.1,0.4,0.3,0.9,0.7,2.1c0.7-5.6-0.2-10.6,2.1-15.4c1.3-2.6,2.3-3.1,4.9-2c4.5,2,8.3,4.8,11.7,8.4c1.7,1.8,1.7,3-0.4,4.8
			c-4.2,3.6-9.4,4.7-14.8,6.4c3.8,3.4,7.5-2.2,10.8,0.6c-0.3,0.7-0.8,1.2-1.3,1.6c2.5-0.2,5,0,7.5,0.3c2.2-0.1,3.3,0.7,3.1,3.2
			C198,429.6,195.8,434.5,192.7,439z"/>
	</g>
	<path class="st5" d="M195.4,420.8c-5.1-0.3-10,0.8-14.9,2.1c1.8-3.7,6-2.3,8.7-4C190.9,420.9,193.7,419.1,195.4,420.8z"/>
	<g>
		<path class="st6" d="M442.6,430.8c0.4,0.7,1.1,1.4,1.6,2.3C443.7,432.1,443.4,431.2,442.6,430.8z"/>
		<path class="st6" d="M427.7,435.4c0.2-0.3,0.5-0.6,0.6-0.9C428.2,434.8,428,435.1,427.7,435.4z"/>
		<path class="st6" d="M435,393.7c-15.5,0-27.9,12.4-27.9,27.9c0,16.3,12.2,28.6,28.2,28.6c15.9,0,28.8-12.8,28.6-28.4
			C463.8,406.1,451.1,393.7,435,393.7z M445.4,434.7c-0.5-0.3-0.8-0.8-1.1-1.4c0.4,0.8,0.5,1.6,0.1,2.7c-2.4,2.2-0.3,4.4,0.3,6.3
			c0.9,2.7,0,3.8-2.4,4.2c-2,0.4-3.9,0.6-5.9,0.7c-11.9,0.4-12.5-0.3-9.2-11.2c-1.4-0.1-2.2-0.6-1.1-2.1c1.3-1.9,2.5-3.8,3.3-6
			c-3.5,3.1-5.8,7.2-10,9.6c-2.5,1.4-3.7,1.3-5.1-1.1c-2.7-4.5-4-9.5-4.5-14.6c-0.3-2.3,1-2.6,2.9-2.9c5.1-0.7,9.6,1.4,15.3,3.2
			c-2.8-3.3-6.4-2.6-9-5.4c4.1-0.6,7,2.9,11,2c-2.2-2.5-5.1-2.6-7.5-3.7c-3.3-1.4-7-3.7-7.6-6.6c-0.6-3.2,3.6-5.1,6.2-7
			c1.1-0.8,2.3-1.4,3.5-2c6.6-3.3,6.9-3.4,8.6,3.6c0.6,2.3,3.6,2.9,3.1,5.8c-0.4,2.1-0.1,4.2,0.3,6.4c1.1-4.8,0.1-9.7,2.1-14.4
			c1.3-2.9,2.5-3.4,5.2-2.1c2.5,1.2,5.1,2.5,7.2,4.4c2.2,1.9,6.1,4.1,5.3,6.5c-0.9,2.7-4.6,4.5-7.8,5.7c-2.5,0.9-5.5,0.7-8,3.1
			c3.7,1.7,6.8-1.1,10-0.8c0.1,0,0.3,0.6,0.2,0.8c-0.1,0.3-0.4,0.5-0.6,0.7c-1.8,1.5-4.3,1.2-6.7,2.4c2.5-0.9,4.6-1.3,6.7-1.6
			c0.2,0,0.3,0,0.5,0c10.8,0.2,11.8,1.7,7.6,11.8C454.4,441.2,454.4,441.2,445.4,434.7z"/>
	</g>
	<path class="st7" d="M444.4,436c-0.2-3.2-3.6-5-3.9-9c2.6,2.5,4,4.9,4.9,7.6C445.1,435.1,444.8,435.6,444.4,436z"/>
	<path class="st8" d="M450.3,419.9c-2.1,1.6-4.6,1.8-8.4,2.6c3.1-3.1,6-2.6,8.5-3.4C450.4,419.4,450.4,419.7,450.3,419.9z"/>
	<path class="st9" d="M162,431.1c-1.2,3.1-4.1,5.3-6.7,5.2c-2.8-0.1-3.2-4.1-4.1-6.7c-0.3-0.8-0.7-1.6-0.7-2.4c0-1.9-1.7-4.5,0-5.6
		c2.2-1.4,5.1-1,7.6,0c1.5,0.5,0.8,0.6-0.1,1.5C155.9,425.6,158.4,430.5,162,431.1z"/>
	<path class="st10" d="M177.4,409.2c-0.2-3.7,0.3-7.4,2.7-8.7c2.4-1.4,5,1.7,7.3,3.2c0.7,0.4,1.3,1,1.9,1.6c4.4,4,4.4,4.6-0.6,7.7
		c-1.8,1.2-2.3,1.4-3.2-1.3C184.4,408.2,179.9,407.1,177.4,409.2z"/>
	<path class="st11" d="M162.9,414c-3.8-1.1-7.2-2.9-7.6-5.7c-0.4-2.5,3.3-4.1,5.7-5.6c0.8-0.5,1.7-1.2,2.6-1.4
		c1.6-0.5,3.4-2.7,4.8-1c1.5,1.8,1.9,4.5,1.8,7c-0.1,1.9-0.8,0.3-1.3,0.2C164.9,406.8,161.5,410.1,162.9,414z"/>
	<path class="st12" d="M173.8,419.9c1.5,0.1,2.6,1,2.5,2.8c-0.1,1.5-1.1,2.3-2.6,2.4c-1.9,0-2.8-1.1-2.7-2.8
		C171,420.8,171.9,419.8,173.8,419.9z"/>
	<path class="st13" d="M179.1,430c0.2-0.7-0.9-3.1,1.1-1.3c1.7,1.5,2.8,3.9,3.1,6.4C181.2,434,180.8,431.5,179.1,430z"/>
	<path class="st14" d="M187.2,422.7c3.7-0.3,7.1-1.9,9.4,1c1.2,1.6-3,13-5.2,13.5c-3.5,0.9-4.6-2.8-7.9-5.2c3.6,0.3,4.5-1.4,5.2-3.5
		C189.4,426.4,191.4,424.1,187.2,422.7z"/>
	<path class="st15" d="M177.5,435.2c0.6,5.6-3.4,3.5-6.2,3.6v0l0,0c-3.1,0.1-1.6-2.3-2.1-3.7c-2.8,2.2-4.3,5.6-3.6,8.6
		c0.6,2.5,4.3,1.5,6.6,1.9c3,0.4,7.3,1,8.5-1.8C181.9,441.2,180.1,437.5,177.5,435.2z"/>
	<path class="st16" d="M432.1,408c-3.1-1.7-7.6,0.1-8.6,3.3c-0.2,0.5,1.1,1.8-0.5,1.5c-2.6-0.5-4.3-2.5-5.7-4.4
		c-1.2-1.7,0.9-2.5,1.9-3.5c1-1,2.3-1.8,3.6-2.6C430.3,397.5,431.7,398.4,432.1,408z"/>
	<path class="st17" d="M449,422.2c3.4-0.5,7.3-1.5,9,0.6c2,2.5-0.3,6-1.5,8.9c-0.4,0.9-0.8,1.9-1.4,2.7c-0.8,1.1-1,3.5-2.9,2.7
		c-2.3-0.9-4.4-2.5-5.4-4.9c-0.5-1.2,0.8-0.3,1.2-0.5C451.4,429.5,452,425,449,422.2z"/>
	<path class="st18" d="M430.8,434.6c-0.5,3.8,1.7,3.9,3.7,4c2.4,0.2,4.8,0.2,5.4-3.6c1.7,3.2,4.2,5.8,2.1,9.1
		c-1.1,1.6-12.9,1.5-13.9-0.1C426.1,440.7,428.5,438,430.8,434.6z"/>
	<path class="st11" d="M420.7,420.8c-2.7,3.7-1.5,7.3,0.7,9.3c2.3,2.1,1.6,2.7-0.2,3.6c-1.7,0.9-3.5,4.2-5.7,0.8
		c-2.4-3.5-3-7.7-3.7-11.8c-0.3-1.7,0.9-1.9,2.1-1.9C416.1,420.8,418.2,420.8,420.7,420.8z"/>
	<path class="st19" d="M451.5,405.4c-1.1-1.2-2.4-2.3-3.8-3.1c-1.9-1.1-4.2-3.8-6.1-1.8c-1.8,2-3.8,5.2-1.3,8.4
		c1-4.2,3.1-1.1,4.1-0.3c1.3,1,4.9,1.4,2.1,4.5c0,0,0,0,0,0c3.8,1.8,5.8-1.5,7.5-3.5C455.5,407.8,452.6,406.6,451.5,405.4z"/>
	<path class="st20" d="M438.2,422.2c-0.4,1.6-1.4,2.8-3.1,2.6c-1.6-0.2-2.7-1.4-2.4-3.1c0.2-1.4,1.2-2.4,2.8-2.3
		C437.1,419.4,438,420.5,438.2,422.2z"/>
	<path class="st21" d="M427.4,436.1c0.4-2.7,2.2-4.3,4.2-5.8C430.6,432.5,429.7,434.8,427.4,436.1
		C427.3,436,427.4,436.1,427.4,436.1z"/>
</g>
</svg>
