<?xml version="1.0" encoding="utf-8"?>
<!-- Generator: Adobe Illustrator 19.0.0, SVG Export Plug-In . SVG Version: 6.00 Build 0)  -->
<svg version="1.1" id="Calque_1" xmlns="http://www.w3.org/2000/svg" xmlns:xlink="http://www.w3.org/1999/xlink" x="0px" y="0px"
	 viewBox="0 0 612 792" style="enable-background:new 0 0 612 792;" xml:space="preserve">
<style type="text/css">
	.st0{fill:#BDD430;}
	.st1{fill:#AAC337;}
	.st2{fill:#444D5B;}
	.st3{fill:#A6B765;}
	.st4{fill:#7D8E4B;}
	.st5{fill:#535D6E;}
	.st6{fill:#AAC237;}
	.st7{fill:#A9C237;}
	.st8{fill:#444D5A;}
	.st9{fill:#535E6E;}
	.st10{fill:#FDCB04;}
	.st11{fill:#D8E642;}
	.st12{fill:#ED4C45;}
</style>
<g>
	<path class="st0" d="M43,379c0-13.3,0-26.7,0-40c1-7.4,1.1-14.8,1.6-22.2c0.9-11.2,3.8-21.9,7-32.6c10.7-35.4,28.2-67.2,52.6-94.9
		c20.6-23.4,44.4-42.9,72.1-57.7c23.1-12.3,47.3-21.3,73-26c8.5-1.6,17.2-1.5,25.8-2.1c1.3-0.1,2.7,0.4,3.9-0.5c13,0,26,0,39,0
		c7.6,0.9,15.2,1,22.7,1.6c11.4,0.9,22.3,3.8,33.1,7.1c35.4,10.7,67.1,28.3,94.9,52.6c23.5,20.6,42.8,44.5,57.6,72.1
		c12.4,23.1,21.4,47.3,26.1,73c1.5,8.5,1.5,17.2,2.1,25.8c0.1,1.6-0.5,3.3,0.5,4.9c0,7.3,0,14.7,0,22c-2,1.1-3.5-0.1-4.9-1.3
		c-1.5-1.3-2.9-2.8-4.3-4.2c-44.2-44.1-88.2-88.3-132.4-132.3c-3.2-3.1-5.4-7.2-9.4-9.5c-2.6-4-6.3-5.4-11-5.5
		c-4.4,0-8.9,0.6-13.3-0.7c-18.5-16.8-39.7-27.9-64.6-31.2c-32.7-4.4-62.1,3.8-87.9,24.3c-2.5,2-5.6,3-7.5,5.7
		c-1.9,2.2-4.5,1.8-6.9,1.9c-3.5,0.2-7-0.2-10.5,0.3c-5.7,0.9-8.1,3.9-8,9.5c0.1,5.3,2.7,7.8,8.4,8.6c2.9,0.4,6.1-0.6,8.3,2.3
		c2,4.2,0.9,8.8,1.6,13.2c0.7,4.8,1.1,9.7-0.2,14.4c-1.5,2.2-3.8,2.4-6.1,2.7c-13.3,1.9-26.7,3.5-40.1,4.9
		c-10.1,1.1-10.8,1.8-7.3,11.3c3.7,10.3,9.1,19.6,17.8,26.6c1.4,1.1,2.6,2.6,3.9,3.9c2.1,4.2,5.5,7.3,9,10.3
		c8.1,7,15.4,14.9,22.9,22.6c2.6,2.7,3.1,5.5-0.6,7.8c-10.7,2.3-21.7,3-32.6,4.4c-6.1,0.8-12.2,1.9-18.3,2.3c-4.1,0.2-4.3,2.9-3.5,6
		c3.4,12.7,9.8,23.6,20,32.1c1.4,1.2,2.9,2.3,4.1,3.7c2,3.9,5,6.8,8.4,9.6c7.9,6.8,15,14.5,22.3,22c2,2.1,2.9,4.5,1,7.2
		c-3.2,3.1-7.5,2.3-11.4,2.8c-12,1.7-24,2.9-36.1,4.4c-0.5,0.1-1,0.1-1.5,0.1c-7.6,0.8-8.3,1.8-6,9.2c2.9,9.1,7.2,17.5,14.2,24.3
		c2.5,2.4,5,4.9,7.3,7.5c1.8,4,5,6.9,8.3,9.7c9.9,8.6,18.8,18.3,28.1,27.6c15.8,15.7,31.4,31.6,47.3,47.2c4.7,4.7,7.6,9.5,7,16.6
		c-0.6,7.9-0.1,15.9-0.2,23.9c0,1.8,0.5,3.7-1.1,5.2c-9.9,0.9-19.5-0.5-29.1-2.8c-40.1-9.7-76.2-27.4-107.7-54.2
		c-25.2-21.4-45.9-46.5-61.5-75.8C58.9,458,50.2,434,45.6,408.6c-1.6-8.5-1.5-17.2-2.1-25.8C43.4,381.6,43.9,380.2,43,379z"/>
	<path class="st1" d="M406.2,214c18.1,18,36.2,35.9,54.2,53.9c30.3,30.3,60.6,60.6,90.8,90.8c1.2,1.2,2.5,2.2,3.7,3.3
		c0,5.3,0,10.7,0,16c-0.9,8.1-0.9,16.2-1.7,24.3c-1.3,14.5-5.6,28.4-10.2,42.1c-8.8,25.8-21.7,49.4-38.2,70.9
		c-27.6,36.1-62.3,63.5-104.2,81.6c-15.8,6.8-32,12.2-48.9,15.5c-6.9,1.3-13.9,1.3-20.8,2c-1.6,0.2-3.4,0.3-4.4-1.6
		c-1-2-0.9-4.2-0.9-6.4c-0.1-22.3-0.1-44.6,0-66.9c0-2.5,0-5,1.1-7.3c1.3-2.5,3.8-2.4,6.1-2.5c6-0.2,12,0,17.9-0.1
		c13.1-0.3,19.5-6.6,19.8-19.7c0-2,0.2-4,0-6c-0.4-4.8,1.7-7.6,6.4-8.4c29.1,1.4,55.1-17.5,62.9-45.9c1.4-5.1,0.9-6.2-4.5-6.9
		c-9.5-1.3-19.1-2.3-28.7-3.5c-9.4-1.2-18.8-1.9-28.1-3.8c-2.9-1.6-4.3-4.1-3.9-7.3c0.8-5.9,0.5-11.8,1.4-17.7
		c1.5-2.8,4.1-3.6,7.1-3.7c25.9-0.7,48.8-18.8,56.3-43.9c2-6.7,1.2-7.8-5.5-8.7c-15.9-2.2-32-3.7-47.9-5.9c-1.7-0.2-3.3-0.6-4.5-1.8
		c-2.4-2.2-2-5.2-1.9-7.9c0.1-5.8,0.7-11.5,1.7-17.2c2.7-3.1,6.5-3.1,10-3.7c22.7-3.7,43.2-22.7,48.6-45.1c1.3-5.2,1-5.8-4.2-6.6
		c-13-2-26.1-3.3-39.1-4.9c-3.9-0.5-8.1-0.2-11.2-3.4c-1.5-4.8-1-9.6-0.3-14.5c0.8-4.3-0.3-8.9,1.5-13.1c1.2-2.3,3.4-2.3,5.6-2.5
		c9.3-0.8,10.7-2,12.2-11C404.7,215.6,405,214.5,406.2,214z"/>
	<path class="st2" d="M327.5,613.9c-0.7,0.1-1.4,0.1-1.5,1.1c-2,0-4,0-6,0c-3.3-0.8-6.7-0.8-10,0c-9.3,0-18.7,0-28,0
		c-3.4-1.4-7.1,0.4-10.5-1c-0.5-0.2-1-0.4-1.5-0.6c-1.2-6.1-0.5-12.2-0.5-18.3c0.2-18.2-3.3-36.3-1.9-54.5c0.2-3.1-0.2-6.3,1.7-9.2
		c1.8-1.9,4.2-1.7,6.5-1.7c15.2-0.2,30.4-0.2,45.7,0c2.4,0,5.1-0.4,6.6,2.3c0,25.1,0,50.3,0,75.4
		C328.1,609.6,328.4,611.8,327.5,613.9z"/>
	<path class="st3" d="M271.5,614c3.5-0.2,7.1-0.4,10.5,1c-3.3,0-6.7,0-10,0C271.8,614.7,271.7,614.3,271.5,614z"/>
	<path class="st4" d="M310,615c3.3-1.2,6.7-1.9,10,0C316.7,615,313.3,615,310,615z"/>
	<path class="st5" d="M406.2,214c1.7,11-2.5,15.9-13.6,16c-1.5,0-3,0.1-4.5,0.1c-2,2.3-4.7,2.2-7.4,2.3c-9.6,0.1-19.3,0-28.9,0
		c-44.1,0-88.1,0-132.2,0c-3.4,0-7.1,0.6-9.9-2.2c-2.5-0.1-5-0.1-7.5-0.2c-6.9-0.3-10.4-4.1-10.5-11.3c0-7,3.6-11,10.4-11.3
		c3.7-0.2,7.3-0.1,11,0c2,0,4,0,5.7-1.2c3.4-1.1,6.8-1.4,10.3-1.4c46.5,0,92.9,0,139.4,0c4.1,0,8,0.3,11.6,2.3
		c4.6,0.1,9.2,0.4,13.8,0.3C399.6,207,403.7,208.9,406.2,214z"/>
	<path class="st2" d="M380.3,206.9c-52.2,0-104.4,0.1-156.5,0.1c-1.7,0-3.3,0.1-4.8-1c17-16.8,37.5-27,61-30.6
		c37-5.7,69.9,3.8,98,28.9C378.8,205.1,379.5,206.1,380.3,206.9z"/>
	<path class="st2" d="M217.9,433.9c3,0.2,2.8,2.4,3.2,4.7c1.5,8.4,1.1,16.8,1.6,25.2c0.6,9.4,1.5,18.8,1.4,28.3c0,3.2-1,5-4.1,5.7
		c-2.2,3.9-5.9,2.5-8.9,2.3c-12.8-1.1-24-5.8-33-15.3c-12-10.2-20.3-22.7-23.6-38.4c-0.8-3.9-0.1-5.1,4-5.6
		c18.2-2.1,36.3-4.6,54.4-6.9C214.6,432.6,216.2,432.2,217.9,433.9z"/>
	<path class="st2" d="M214.9,345.9c1.7,2.8,2,6,2.1,9.1c0.7,16.4,1.2,32.8,2.2,49.2c0.2,3.8-0.6,5.3-4.3,5c-2.8,3.3-6.4,2-9.7,1.5
		c-9.8-1.5-18.1-6-25.1-12.9c-13-10.2-21.9-23-25.5-39.3c-1-4.5,0.2-5.8,4.5-6.3c17.7-2,35.3-4.2,53-6.4
		C213,345.4,213.9,345.3,214.9,345.9z"/>
	<path class="st2" d="M210.9,257.7c2.1,8,1,16.2,1.8,24.3c1.4,13,1.5,26.1,2.2,39.2c-1.6,1.9-3.6,2.1-5.9,1.8
		c-11.7-1.2-21.8-5.7-29.9-14.3c-12.4-10.2-21.1-22.8-24.6-38.7c-1-4.3-0.1-5.7,4.5-6.1C176.4,262,193.6,259.8,210.9,257.7z"/>
	<path class="st2" d="M209.8,230.1c59.4,0,118.9,0,178.3,0c-0.5,4.3,0.6,8.8-0.9,13c-58.8,0-117.7,0-176.5,0
		C209.4,238.8,210.4,234.4,209.8,230.1z"/>
	<path class="st1" d="M178.1,484.7c11,7.6,22.9,12.6,36.4,13.2c1.8,0.1,3.6-0.1,5.5-0.1c3.6-0.3,5,1.3,4.9,4.9
		c-0.1,3.5,0.1,7,0.3,10.4c0.8,11.5,8.2,18.5,19.7,18.8c8.3,0.2,16.6,0.1,24.9,0.2c0.1,27.1,0.1,54.3,0.2,81.4
		c-0.4-0.2-0.7-0.3-1.1-0.5c0-9.8-0.2-19.7,0.1-29.5c0.1-4.9-1.3-8.4-4.8-11.9c-27.5-27.2-54.7-54.6-82.1-81.9
		C180.7,488.1,178.8,486.9,178.1,484.7z"/>
	<path class="st6" d="M180.1,397.8c10.7,6.5,21.9,11.6,34.8,11.4c4.2,0.2,5.4,2.5,5.2,6.5c-0.2,4.5,0.3,9,0.8,13.4
		c0.3,2.6-0.5,4.1-3,4.8c-1.6,0-3.3,0-4.9,0c0.1-2.7-1.8-4.2-3.4-5.8c-8.6-8.6-17.2-17.1-25.7-25.7
		C182.4,400.9,180.8,399.7,180.1,397.8z"/>
	<path class="st7" d="M179.1,308.7c10.9,7.1,22.6,11.9,35.8,12.4c0.3,6.4,0.7,12.8,1,19.1c0.1,1.9,0.6,4-1.1,5.6c-1,0-1.9,0-2.9,0
		c2.6-2.5-0.3-3.5-1.4-4.6c-9.2-9.4-18.5-18.6-27.8-27.9C181.4,311.9,179.8,310.7,179.1,308.7z"/>
	<path class="st8" d="M377.9,497.7c-2.3-0.8-4-1.8-3.9-4.8c0.6-18.7,1.8-37.3,3.1-55.9c0.1-2.1,1.3-2.9,3.1-3.2
		c20.3,2.4,40.7,4.8,61,7.1c3,0.3,2.9,1.9,2.5,4.1c-4.3,25.9-26.4,47.7-52.4,51.9C386.8,497.7,382.4,498.3,377.9,497.7z"/>
	<path class="st2" d="M378,410c1.4-18,2.4-36,3-54.1c0.1-3.4,0.5-6.9,2.1-10.1c19,2.2,37.9,4.5,56.9,6.6c3.6,0.4,4.1,1.9,3.4,5.3
		c-5.9,29-30.4,50.2-60,51.6C381.6,409.4,379.8,409.8,378,410z"/>
	<path class="st2" d="M383.1,321.1c1-19.2,2-38.3,3-57.5c0.1-2,0.6-3.9,1-5.9c18,2.1,36,4.3,54,6.3c2.8,0.3,3,1.8,2.6,4.1
		c-4,25.2-25.9,47.4-51.2,51.7C389.3,320.5,386.2,320.7,383.1,321.1z"/>
	<path class="st9" d="M387.1,257.8c0-4.9,0.1-9.8,0.1-14.7c-2.5-3.5-6.4-2.3-9.7-2.3c-52.4-0.1-104.8-0.1-157.2-0.1
		c-1.8,0-3.7,0-5.5,0.2c-1.7,0.2-3.3,0.5-4.2,2.2c0.1,4.9,0.2,9.7,0.2,14.6c-1.1,1.3-1.5,2.7-1.5,4.5c0,10.8,0.8,21.6,1.6,32.3
		c0.6,8.7-0.3,17.6,1.9,26.2c-0.3,5.6-0.2,11.2,0.5,16.7c0.4,2.7,1.7,5.4,0.6,8.2c-0.5,5.8,0.5,11.6,0.7,17.4
		c0.4,9.1,0.8,18.2,1.5,27.3c0.5,6,1.8,12.3-1.7,18c3.5,5.3,2.6,11.5,3.5,17.3c0.5,3.3-1.5,6-1,9.1c0.8,1.8,1.2,3.8,1.6,5.7
		c1.4,6.8,0.9,13.6,1.1,20.4c0.4,12.5,3.8,25-0.3,37.4c4,4,3,9.2,3.2,14.1c0.6,12.9,9,21.3,21.9,21.8c6.3,0.2,12.6,0.1,18.9,0
		c2.3,0,4.7,0,6.3-2.2c19.4,0,38.8,0,58.3,0c8.1,0,16.3-0.1,24.4-0.1c12-0.1,19.6-7.3,20.3-19.3c0.2-3.3,0.4-6.6,0.2-9.9
		c-0.2-3.6,1.1-5.3,4.8-5c-1.4-5.5-2.1-11-1.2-16.6c0.5-3.1,0.5-6.3,0.7-9.4c0.7-12.6,0.7-25.3,2.8-37.8c-2.4-0.6-3.2-2.1-3-4.7
		c0.5-6.4,0.6-12.8,0.9-19.2c2.9-3.2,3.2-7,3.4-11.1c0.3-10,1.2-19.9,1.6-29.9c0.3-7.7,2-15.5,0.2-23.3c-1.6-1.6-1.1-3.7-1-5.6
		c0.3-6.4,0.6-12.7,1-19.1c2.3-2.2,3.1-5,3.2-8.1c0.2-16.8,2-33.5,2.3-50.2C388.6,260.9,388.4,259.2,387.1,257.8z M298.9,519
		c-22,0-39.9-18-39.9-40.1c0-22,18-39.9,40.1-39.9c22,0,39.9,18,39.9,40.1C339,501.1,321,519,298.9,519z M259,388.6
		c0-22.8,17.8-40.5,40.5-40.4c21.8,0.1,39.5,18.3,39.4,40.6c-0.1,21.7-18.1,39.3-40.1,39.3C276.9,428,259,410.3,259,388.6z
		 M299.1,337.3c-22.2,0-40.1-17.7-40.1-39.8c0-22.1,17.9-40.1,39.9-40.1c22-0.1,40.1,18,40.1,39.9
		C339,319.4,321.2,337.3,299.1,337.3z"/>
	<path class="st10" d="M328.1,388.2c0,16.3-12.8,29.1-29.1,29.1c-16.3,0-29.1-12.8-29.1-29.1c0-16.3,12.9-29.1,29.1-29.1
		C315.2,359,328.1,372,328.1,388.2z"/>
	<path class="st11" d="M299.1,508.1c-16.1,0.2-29-12.6-29.2-29c-0.2-15.9,12.7-29.2,28.5-29.2c16.5-0.1,29.6,12.5,29.8,28.5
		C328.3,495,315.6,507.9,299.1,508.1z"/>
	<path class="st12" d="M269.9,297.4c-0.1-16,13.1-29.4,29.1-29.3c15.9,0,29,12.9,29.2,28.7c0.2,16.4-12.9,29.9-29.1,29.8
		C282.9,326.6,270,313.7,269.9,297.4z"/>
</g>
</svg>
