<?xml version="1.0" encoding="utf-8"?>
<!-- Generator: Adobe Illustrator 19.0.0, SVG Export Plug-In . SVG Version: 6.00 Build 0)  -->
<svg version="1.1" id="Calque_1" xmlns="http://www.w3.org/2000/svg" xmlns:xlink="http://www.w3.org/1999/xlink" x="0px" y="0px"
	 viewBox="0 0 612 792" style="enable-background:new 0 0 612 792;" xml:space="preserve">
<style type="text/css">
	.st0{fill:#93CDCC;}
	.st1{fill:#C4DDDA;}
	.st2{fill:#535E6E;}
	.st3{fill:#93CCCB;}
	.st4{fill:#E3E6EA;}
	.st5{fill:#ED4C45;}
	.st6{fill:#FDCA05;}
	.st7{fill:#3C9B46;}
	.st8{fill:#F25D5C;}
	.st9{fill:#FAD45D;}
	.st10{fill:#52B95A;}
</style>
<g>
	<path class="st0" d="M429,291c10.3,9,19.5,19,29.1,28.6c19.3,19.2,38.7,38.4,57.7,57.9c6.7,6.9,12.9,14.2,20.2,20.5
		c0,9.3,0,18.7,0,28c-1,7-0.7,14.2-1.4,21.3c-1.4,16.9-6.3,33-11.8,48.9c-10.3,29.6-26,56.2-46.4,79.9
		c-34.2,39.9-76.7,66.9-127.3,81.4c-16.6,4.7-33.4,7.2-50.7,7.1c-0.8,0-1.7,0.1-2.4-0.4c-2.2,0-3.7-1.2-5.2-2.7
		c-38.3-38.3-76.6-76.6-114.8-114.9c-0.8-0.8-1.4-1.8-2.1-2.8c2.3-1.4,4.1,0.2,6,1.2c6.8,3.4,13.6,6.8,21,8.7
		c5.2,1.4,10,2.6,13.6-2.9c2.4,1.5,2.3,3.9,2.3,6.2c0.3,11.6,9,23.8,24.6,23.1c12.4-0.5,24.9-0.2,37.4-0.1
		c5.8,0.9,11.6,0.3,17.4,0.1c8-0.3,16-0.4,23.9,0c10.8,0.6,18.2-6,21.8-15.5c0.9-2.3,1.2-4.8,2.8-6.9c1.8-2.1,4.3-2.3,6.7-2.8
		c19.3-3.9,36.2-12.1,48.4-28.2c4.2-5.5,7.3-11.5,9.2-18.1c1.1-3.8,2.9-7,6.3-9.2c2.7-1.7,3.8-4.2,3.2-7.3c-0.6-3.4-3-5-6.2-5.8
		c-2-0.5-4-0.3-6-0.3c-16.8,0-33.6,0-50.4,0c-2.9,0-6.1,0.4-8.3-2.4c-1.7-8.3-1.6-16.6-0.1-24.9c1.6-2.6,4.5-2.7,7-3.1
		c10.2-1.7,20.2-4.4,29.3-9.4c15.8-8.7,27.4-21,32.6-38.6c0.9-3,2.2-5.6,4.9-7.3c3.4-2.3,5.2-5.4,3.7-9.4c-1.4-3.7-4.7-4.9-8.5-4.9
		c-19.1-0.1-38.3,0-57.4-0.1c-2.9,0-6.1,0.5-8.4-2.2c-1.9-8.3-2.1-16.7,0.4-25c1.7-3,4.8-3.2,7.7-3.8c21.1-4.3,39.1-13.7,51.4-32.2
		c3.3-4.9,5.2-10.4,6.9-16c0.8-2.8,2-5.3,4.7-6.8C426,298.1,426.4,293.7,429,291z"/>
	<path class="st1" d="M535.5,386.1c-0.6-8.8-0.5-17.6-2.3-26.3c-4.6-22.3-11.6-43.7-21.6-64.2c-15.2-31.1-35.8-58-61.8-80.8
		c-27.6-24.2-59-41.5-94-52.4c-12.7-4-25.6-7.3-39-8.2c-6.9-0.5-13.9-0.3-20.8-1.3c-10.7,0-21.3,0-32,0c-1,0.9-2.2,0.5-3.4,0.5
		c-26.3-0.5-51.2,6-75.3,15.5c-35.3,14-66,34.9-92.3,62.6c-28.4,29.9-48.4,64.6-60.3,104c-3.7,12.1-6.6,24.4-7.6,37.1
		c-0.5,6.8-0.3,13.6-1.2,20.3c0,10.7,0,21.3,0,32c1,2.2,0.3,4.6,0.5,6.9c0.6,8.6,0.6,17.3,2.2,25.8c5.1,26.7,14.4,52,27.5,75.8
		c17.9,32.6,41.8,60,71.6,82.3c23.3,17.4,48.8,30.6,76.6,39.2c13,4.1,26.2,7.7,39.9,8.7c7.3,0.5,14.5,0.3,21.8,1.4
		c10.7,0,21.3,0,32,0c0.3-0.4,0.4-0.8,0.2-1.3c-3.5-3.1-6.9-6.3-10.2-9.6c-33.8-33.8-67.6-67.6-101.4-101.4
		c-3.4-3.4-7.4-6.2-9.9-10.5c-3.1-3.2-6.5-6.2-9.7-9.4c-6.9-6.8-11.8-14.8-14.5-24.1c-1.1-4-2.9-7.4-6.5-9.6
		c-2.5-1.6-3.4-4.1-2.9-6.9c0.6-3.1,2.6-4.8,5.6-5.7c2-0.6,4-0.5,5.9-0.5c14.8,0,29.6,0,44.4,0c2.5,0,5,0.3,7.3-1.1
		c2.1-3-0.4-4.6-2-6.2c-9.5-9.7-19.2-19.4-28.9-28.9c-3.4-3.4-7.2-6.3-9.8-10.5c-10.1-9.5-18.4-20.1-21.9-33.9
		c-0.7-2.6-2.5-4.2-4.7-5.6c-2.7-1.7-4.4-4.2-3.7-7.5c0.8-3.7,3.5-5.5,7.1-6.1c1.6-0.3,3.3-0.2,5-0.2c17,0,33.9,0,50.9,0
		c2.6,0,5.3,0.3,7.8-1c2.4-3.3-0.6-4.9-2.2-6.6c-9-9.2-18-18.2-27.2-27.2c-3.2-3.1-6.9-5.8-9.1-9.8c-0.4-0.5-0.8-1.1-1.3-1.5
		c-11-9-18.7-20.2-22.4-34c-0.7-2.5-2.3-4.3-4.4-5.9c-2.8-2-5.1-4.6-3.9-8.4c1.3-4.1,4.7-5.3,8.6-5.5c1.7-0.1,3.3-0.1,5,0
		c19.5,0.4,39-0.9,58.4,0.8c0-6.7,0.5-13.3,4.6-19.1c4.9-6.9,11.1-11.2,19.7-10.5c7,0.5,13.9-0.7,20.8,0c9.4,1,18.9,0.1,28.2,0.2
		c8.3,0.1,16.8,0.6,25.2-0.1c9.2-0.8,18.5-0.3,27.8,0c12.2,0.4,19.3,8.5,21.8,20.9c0.4,1.9,0.7,3.9,1.1,5.9c0.1,0.3,0.1,0.6,0.2,0.8
		c0,0,0,0,0,0.1c0,0,0,0,0,0c2.3,1.3,4.8,1.1,7.3,1.1c17.6,0,35.1,0,52.7,0c4.5,0,8.6,0.9,11.5,4.7c0.9,1,2.1,1.7,3,2.6
		c27.5,28.1,55.6,55.6,83.2,83.6c5.8,5.9,11.1,12.4,17.2,18.1c1.6,1.5,2.9,3.8,5.8,3c0-1.7,0-3.3,0-5
		C535,390.8,535.7,388.4,535.5,386.1z"/>
	<path class="st2" d="M208.7,384.2c0.7,24.6,1.5,49.2,2.2,73.7c-1.5,1.7-3.5,1.8-5.5,1.5c-15.9-2.3-30.8-6.7-42.4-18.7
		c-11.2-9.7-19.8-21-23-35.8c-0.4-1.7-1.4-2.3-2.8-3c-4.6-2.1-6.8-6.1-5.9-10.3c1-4.8,4.5-7.5,10.3-7.5c18.5-0.1,36.9,0,55.4-0.1
		c2.7,0,5.3-0.1,8-0.1C206.3,382.7,207.6,382.9,208.7,384.2z"/>
	<path class="st2" d="M205.8,287.2c0.7,23.6,1.3,47.1,2,70.7c-1.2,1.5-2.8,1.6-4.5,1.3c-14.2-2.1-27.7-5.8-38.2-16.5
		c-12.4-9.9-21.7-21.9-25-37.8c-0.4-2-1.8-2.4-3.3-3.3c-3.9-2.2-6.3-5.6-5.4-10.2c1-4.9,4.5-7.2,9.4-7.3c20.3-0.1,40.6,0,60.8-0.1
		C204.1,284,205.4,284.8,205.8,287.2z"/>
	<path class="st2" d="M352.8,342c0.4-14.3,0.9-28.5,1.3-42.8c1.1-5-0.6-10.2,0.9-15.1l0,0c20.8,0,41.6,0.1,62.3,0
		c5.4,0,9.3,2,11.5,6.9c0.1,5.3-1.6,9.4-7,11.3c-1.2,0.4-1.7,1.4-2,2.6c-7.7,29.4-28.7,44.1-56.6,51.2c-3.4,0.8-6.8,1.2-10.3,1.8
		C349.4,352.6,350.5,347.3,352.8,342z"/>
	<path class="st2" d="M211.9,484.1c0.8,22.3,1.5,44.6,2.3,66.9c-0.1,0.8-0.3,1.7-0.2,2.5c0.4,3.2-0.3,4.3-4,3.8
		c-11.1-1.6-21.4-5.2-31.1-10.8c-1.6-0.9-3.2-1.7-4.8-2.6c-11.1-8.8-20.4-19-24.8-32.9c-1.4-4.4-2.2-8.5-7.2-10.8
		c-3.6-1.7-4-6.1-2.7-9.8c1.5-4.2,4.9-6.2,9.3-6.2c9.3-0.1,18.6,0,27.9-0.1c9.5,0,18.9-0.1,28.4-0.1
		C207.3,481.7,209.6,482,211.9,484.1z"/>
	<path class="st3" d="M211.9,484.1c-2.3-0.1-4.6-0.1-6.9-0.2c-11.4-11.6-22.9-23.1-34.2-34.7c-2.7-2.7-5.8-5-7.7-8.4
		c12.6,8.9,26.4,14.9,41.9,16.7c2,0.2,3.9,0.3,5.9,0.5C212.1,466.6,212,475.4,211.9,484.1z"/>
	<path class="st3" d="M165.1,342.7c13,8.5,27.1,14,42.7,15.1c0.3,8.8,0.6,17.6,0.9,26.4c-1.2-0.1-2.5-0.2-3.7-0.3
		c-11.5-11.6-22.9-23.2-34.4-34.9C168.7,347.1,166.2,345.5,165.1,342.7z"/>
	<path class="st4" d="M352.8,342c0.1,5.3,0.2,10.6,0.3,15.8c-1.8,8.7-1,17.5-1,26.2c2,2,2.2,4.5,1.7,7c-0.9,4.6-0.8,9.3-0.7,13.9
		c0.2,13.1-1.4,26.2-1.3,39.3c-0.9,3.4-1.6,6.8-1.3,10.4c0.1,1.3-0.4,2.3-1.3,3.2c-0.1,8.7-0.2,17.5-0.3,26.2c1.1,2,1.1,4.1,1.1,6.3
		c0.4,16.7-1.2,33.3-1.3,49.9c-0.1,5.7,0.8,12.1-2.5,17.5c-2,8.6-5,16.5-13,21.5c-2.6,1.6-5.3,2.8-8.4,2.8
		c-15.3,0-30.5-0.1-45.8-0.1c4.2-1.9,8.7,0,14.6-1.6c-5-4.7-9.5-8.6-13.6-12.8c-6.7-6.9-14.1-13-19.9-20.6c2.5-1.5,4.5,0,6.5,1
		c15.9,7.6,32.4-0.4,39.6-9.8c9.4-12.3,9.3-29.1-0.2-41.3c-2.1-2.7-4.7-4.7-7.4-6.7c-1.7-1.2-3.9-2.2-3.9-4.8
		c1.3-2.3-1.1-2.9-2.1-3.8c-9-9.1-18.1-18.1-27.1-27.2c-1.3-1.3-2.4-2.7-3.6-4.1c2.1-1.7,4.1-0.3,6.1,0.4c14.2,5.2,29.4,1,38.2-10.5
		c9-11.8,9.3-27.8,0.8-40.1c-2.2-3.2-5.1-5.6-8.2-8c-1.7-1.3-3.9-2.1-4-4.7c1.3-1.8-0.6-2.3-1.4-3.1c-9.9-9.8-20-19.6-30-29.4
		c-0.9-0.9-1.4-1.8-1.4-3c2.8-1.4,5.1,0.4,7.6,1c12.8,3.3,24.2,1.3,33.9-8.4c9.5-9.6,11.3-20.9,8.1-33.5c-0.6-2.5-2.4-4.9-1-7.6
		c5.1,3,8.6,7.8,12.7,11.8c8.5,8.2,16.7,16.7,25.1,25C349.6,341,350.4,343.3,352.8,342z"/>
	<path class="st2" d="M349.2,457.8c0-0.9,0-1.9-0.1-2.8c0.9-3.2-0.2-6.6,0.6-9.9c0.7-20.4,0.9-40.7,2.3-61c21.6,0,43.2,0,64.9,0
		c6.1,0,10,2.4,11,6.6c1.3,5-0.4,8.3-6.2,11.5c-1.6,0.9-2.1,2.1-2.5,3.5c-7.2,27.1-26.4,41.6-52,49.3
		C361.5,456.7,355.5,458,349.2,457.8z"/>
	<path class="st2" d="M346.2,557.7c0.4-14.8,0.8-29.6,1.2-44.4c0.2-7.7,0.4-15.3,0.7-23c0.1-2.1-0.4-4.4,0.9-6.3
		c20.5,0,40.9,0,61.4,0.1c6.9,0,11.1,4.1,10.7,10.3c-0.1,2.3-0.9,4.8-2.8,5.6c-6.1,2.4-6.4,8.1-8.4,13c-9.8,24.1-29,36.8-53.4,42.9
		C353.1,556.8,349.6,557.1,346.2,557.7z"/>
	<path class="st5" d="M310.7,303.1c4.9,10,6.2,20.3,2.1,30.8c-7.2,18.2-27.9,27-46.1,19.7c-1.5-0.6-3-1.3-4.6-1.9
		c-13.1-9.1-19.6-21.4-16.6-37.3c2.7-14.3,11.7-23.9,25.9-27.4c14.4-3.6,26.6,0.8,36.2,12.2C308.7,300.4,309.6,301.8,310.7,303.1z"
		/>
	<path class="st6" d="M294.8,387.2c12.5,7,20.1,17.2,20.3,32c0.3,25.4-25.6,42.6-49,32.6c-1.4-0.6-2.7-1.2-4.1-1.8
		c-10.5-7.4-17-17.1-17.1-30.4c-0.1-24,22.7-40.9,45.7-33.8C292,386.3,293.4,386.7,294.8,387.2z"/>
	<path class="st7" d="M294.8,485.1c9.3,5.2,16.5,12.3,19.1,23c3.6,14.6-0.2,27.2-12,36.6c-11.9,9.5-25.1,10.4-38.7,3.6
		c-1-0.5-2.1-1-3.1-1.5c-14.4-12.6-18.8-27.4-12.8-42.5c6.8-17,25.2-25.8,42.8-20.4C291.6,484.4,293.2,484.7,294.8,485.1z"/>
	<path class="st1" d="M355.1,284c-0.3,5,0.3,10.1-0.9,15.1C354,294.1,353,289,355.1,284z"/>
	<path class="st0" d="M349.8,445.1c0.2,3.3,0.6,6.6-0.6,9.9C349,451.7,348.4,448.3,349.8,445.1z"/>
	<path class="st8" d="M280.3,298c13.4,0,22.8,9.9,22.7,23.8c0,12.5-10.1,21.9-22.8,22.3c-13.3,0.4-24-12.1-23.4-23.4
		C257.5,307.5,266.8,298,280.3,298z"/>
	<path class="st9" d="M303,419.8c-0.1,12.5-10.2,22.7-22.8,23c-12.8,0.2-23.3-10.4-23.2-23.6c0.1-13,10.2-23.2,23.1-23.2
		C293,396.1,303.1,406.5,303,419.8z"/>
	<path class="st10" d="M303,517.9c-0.2,11.5-8.1,22.5-22.4,22.7c-15.1,0.3-23.7-10.9-23.6-23.4c0.1-12.9,10.3-23.2,23.1-23.1
		C293.1,494.1,303,504.5,303,517.9z"/>
</g>
</svg>
