<?xml version="1.0" encoding="utf-8"?>
<!-- Generator: Adobe Illustrator 19.0.0, SVG Export Plug-In . SVG Version: 6.00 Build 0)  -->
<svg version="1.1" id="Calque_1" xmlns="http://www.w3.org/2000/svg" xmlns:xlink="http://www.w3.org/1999/xlink" x="0px" y="0px"
	 viewBox="0 0 612 792" style="enable-background:new 0 0 612 792;" xml:space="preserve">
<style type="text/css">
	.st0{fill:#38C1E8;}
	.st1{fill:#2FB1D1;}
	.st2{fill:#FDFDFD;}
	.st3{fill:#FBFBFB;}
	.st4{fill:#F9FAFB;}
	.st5{fill:#FAFCFC;}
	.st6{fill:#F8F9FA;}
	.st7{fill:#6DC7DE;}
	.st8{fill:#3AB4D2;}
	.st9{fill:#39B3D2;}
	.st10{fill:#32B1D1;}
	.st11{fill:#3CB5D3;}
	.st12{fill:#64C2DA;}
	.st13{fill:#7ECEE2;}
	.st14{fill:#B9E2ED;}
	.st15{fill:#35B2D2;}
	.st16{fill:#65C3DC;}
	.st17{fill:#65C0D7;}
	.st18{fill:#69C5DC;}
	.st19{fill:#34B0D0;}
	.st20{fill:#62C4DD;}
	.st21{fill:#5BBFD9;}
	.st22{fill:#66C4DB;}
	.st23{fill:#79CADF;}
	.st24{fill:#70C7DD;}
	.st25{fill:#F9FBFB;}
	.st26{fill:#FBFCFD;}
	.st27{fill:#C9EAF3;}
	.st28{fill:#FBFDFD;}
	.st29{fill:#FBFCFC;}
	.st30{fill:#F0F8FA;}
</style>
<g>
	<path class="st0" d="M359,631c-102.3,0-204.6,0-306.9,0.1c-3.2,0-4.2-0.4-4.2-4C48,459,48,290.9,47.9,122.7c0-3.1,0.7-3.8,3.8-3.8
		c168.1,0.1,336.2,0.1,504.3,0c3.6,0,4,1,4,4.2C560,229.1,560,335,560,441c-3.3,1.5-5.3-0.9-7.3-2.8c-7.8-7.5-15.6-14.9-23.3-22.5
		c-12.4-12.3-25.1-24.2-37.8-36.2c-8.1-7.6-15.4-16.1-23.9-23.3c-2.6-2.2-4.9-4.9-1.4-8.2c-2.8-1.6-6.7-0.2-8.9-3.4
		c-0.3-1.3,0.4-2.2,1-3c-32-6.1-63.9-12.9-95.2-22.3c-18.7-5.6-37.6-10.1-57.3-10.1c-25.1,0-48.2,7.4-69.9,19.6
		c-7.7,4.3-15.4,8.6-22.2,14.3c-0.9,0.8-2,1.3-3.2,1.4c-11.6,1-22.2,5.7-33.3,8.4c-9.3,2.2-18.6,4.9-27.8,7.7
		c-9,2.7-13.9,8.4-15.2,17.7c-0.4,2.7,1.3,2.6,2.7,3.2c6.7,3.1,8.6,6.4,8.2,13.2c-0.3,3.9-2.4,6.4-5.2,8.7c-1.3,1-3.2,1.2-3.3,3.4
		c0,1.4,0.7,2.5,1.7,3.5c21.6,20.3,41.9,42,63.3,62.6c33.1,31.9,65.2,64.8,98.1,96.9c16,15.6,31.7,31.4,47.7,47
		c3.1,3,6.8,5.3,9.6,8.7C358.3,627,360.2,628.4,359,631z"/>
	<path class="st1" d="M458.2,345c3,0.1,6,0.1,9,0.1c1.8,0,4.1-0.5,4.4,2c0.2,2.2-1.9,2.4-3.5,2.7c-0.6,0.1-1.2,0.3-1.9,0.5
		c0,2,1.5,2.7,2.5,3.7c12.8,12.6,25.5,25.3,38.6,37.6c15.7,14.8,31.5,29.6,46.8,44.8c1.7,1.7,3.9,3,5.9,4.5c0,62,0,124,0.1,186
		c0,3.4-0.7,4.1-4.1,4.1c-65.7-0.1-131.3-0.1-197-0.1c-3.3-4.5-7.9-7.6-11.8-11.4c-14.4-14.1-28.2-28.8-42.9-42.6
		c-25-23.5-48.4-48.7-73.2-72.3c-26-24.8-51.1-50.6-76.7-75.8c-5.9-5.9-11.8-11.8-17.7-17.7c-0.9-0.9-2.4-1.5-1.8-3.2
		c4.6-3.8,9.1-1.3,12.8,1c6.6,4.2,13.6,4.9,21,4.8c3.8-0.1,5.7-1.4,6.7-5.1c3.7-12.6,12.1-20.4,24.9-23.2c14.1-3,29.9,5.9,34.9,19.6
		c3.2,8.6,3.2,8.6,12.2,8.6c37.6,0,75.3,0,112.9,0c7.7,0,7.7,0,10.1-7.3c5.5-16.2,22.7-25.4,38.8-20.1c10.9,3.5,18.5,10.8,21.6,22.2
		c1.3,4.8,2.6,5.7,7.5,4.8c7.2-1.3,14.4-2.9,21.5-4.6c8.6-2,11.9-9,15-16.2c0.7-1.7-0.5-3.2-1.4-4.6c-1.8-2.9-2-5.9-1.1-9.1
		c2.9-10.2-1-16.2-11.6-18c-0.9-0.5-1.9-1-2.4-2c-0.1-0.3-0.2-0.6-0.2-1c0.1-2.8,3.2-6.2-1.2-8.2c-3.9-1.8-11.9-0.2-14.1,2.8
		c-0.4,0.5-0.8,1.1-1.3,1.5c-0.8,0.5-1.6,0.5-2.4-0.1c-2.5-4.6-0.9-8.9,3.9-9.7C448.1,343.4,453.2,342.9,458.2,345z"/>
	<path class="st2" d="M458.2,345c-3.9,2.1-8,0.7-12,0.9c-5.6,0.4-7.3,2.3-5.9,7.9c6.5,3.6,13.4,5.4,20.9,5.2
		c10.8-0.3,17.6,9.1,14,19.6c-1.3,3.8-1.6,6.9,2,9.7c2,1.5,3,3.7,0.2,5.8c-0.6,0.5-1.2,1.2-1.4,2c-3.5,10.4-11.4,14.9-21.8,16.3
		c-6.1,0.8-12.1,2.5-18.1,3.7c-4.1,0.8-6.3-0.2-7-5c-2.2-13.9-14.3-23.9-28.4-24.1c-13.6-0.2-26,9.5-28.5,23.3
		c-0.9,5.2-3.2,6.1-7.8,6.1c-41-0.2-81.9-0.1-122.9,0c-4.2,0-5.9-0.9-6.7-5.5c-2.5-14.1-15.1-24-29.2-23.8
		c-14.4,0.3-26.3,10.8-28.4,25.3c-0.4,3.1-1.7,3.8-4.5,3.9c-9.4,0.2-18.6,0.5-26.6-5.9c-3-2.4-7.3-2-11.1-2.5
		c-1.1-1.3-3.5-1.4-3.8-3.6c0.8-1.3,2.1-0.8,3.2-1c6-1,9.4-5.3,8.9-11.2c-0.5-5.2-4.7-8.9-10.2-9.1c-1.2-0.1-2.9,1.2-3.6-0.3
		c-0.7-1.3,0.8-2.4,1.5-3.4c1-1.3,2-2.7,2.2-4.4c0.9-8.7,6.6-13.4,14.2-15.6c19-5.7,37.9-11.6,57.2-16.1c5.7-1.3,10.1-3.7,14.7-6.7
		c20.3-13.4,41.9-23.9,66.2-27.8c22-3.5,43.7-1.2,64.8,4.9c32.2,9.3,64.7,17,97.4,24c4.6,1,9.2,1.5,13.9,0.7c1.6-0.3,3.7-0.7,4,1.6
		c0.3,2.3-1.9,2.2-3.4,2.9C460.6,343.3,457.7,341.5,458.2,345z"/>
	<path class="st3" d="M131.9,385.6c5.7,0,9.2,3.6,9.1,7.9c0,4.3-3.6,8-7.9,7.9c-2.6,0-4.5-0.8-4.2-4c0.2-2.6,0.2-5.3,0-7.9
		C128.7,386.3,130.6,385.6,131.9,385.6z"/>
	<path class="st4" d="M375,417.6c-0.1-14,11.3-25.5,25.2-25.6c13.9-0.1,25.7,11.4,25.7,25.2c0,14.2-11.5,25.7-25.7,25.7
		C386.7,442.8,375.1,431.2,375,417.6z"/>
	<path class="st5" d="M205.2,442.2c-14.1-0.1-25.3-11.5-25.1-25.5c0.1-13.9,11.7-25.1,25.8-25c14.1,0.1,25.2,11.4,25.1,25.6
		C230.8,431.3,219.4,442.3,205.2,442.2z"/>
	<path class="st6" d="M441,353c-0.6-4,1.4-5.6,5-5.7c3.2-0.1,6.3,0,9.5,0c2.6,0,5.4,0.1,6.1,3.1c0.7,2.9,0.9,6.1-2.6,7.8
		C450.7,360.6,445.4,359,441,353z"/>
	<path class="st7" d="M441,353c4.9,5.7,11.6,5.1,18.1,5.2c0.7,0.3,1.3,0.6,2,0.9c-7.9,1.9-15.3,2-20.9-5.2
		C440.5,353.6,440.8,353.3,441,353z"/>
	<path class="st1" d="M219.1,344.6c7.4-5.9,14.2-10.9,21.6-15c20.5-11.2,42.3-17.4,65.7-17.7c4.3-0.1,5.8,1,4.4,5.4
		c-2.2,7.1-4,14.4-5.9,21.6c-0.7,2.5-1.7,4-4.7,4c-26.1,0.6-52.2,1.4-78.3,2.1C221.5,345.1,221,344.9,219.1,344.6z"/>
	<path class="st1" d="M353.5,342.8c-11.3,0-22.6-0.1-33.9,0.1c-4.2,0.1-5.2-1.5-4.2-5.4c1.7-6.6,3.3-13.2,4.4-19.9
		c0.7-4.4,2.8-4.8,6.5-4.2c13.2,2.1,25.8,6.2,38.6,9.8c8.1,2.3,16.3,4.6,24.5,6.7c3.7,1,6,2.8,5.7,6.9c-0.3,4.3-3.1,6.1-7.1,6.1
		C376.5,342.8,365,342.8,353.5,342.8C353.5,342.8,353.5,342.8,353.5,342.8z"/>
	<path class="st8" d="M303.8,382.3c19.3-0.7,38.6-1.4,57.9-2.1c7-0.2,9.5,3.1,7.5,9.6c-1.5,4.8-3.1,9.5-4.6,14.2
		c-1.2,3.7-3.6,5.3-7.5,5.3c-35.8-0.1-71.6-0.1-107.3,0c-3.8,0-6.2-1.6-7.7-5.1c-1.3-3.1-2.7-6.1-4.1-9.1
		c-3.1-6.8-0.8-10.7,6.5-10.9c13.1-0.5,26.3-0.9,39.4-1.3c6.6-0.2,13.3,0,19.9,0C303.8,382.8,303.8,382.5,303.8,382.3z"/>
	<path class="st9" d="M374.9,352.8c-49,3.6-98,5.3-147.2,4.4c47.7-1.8,95.3-3.6,143-5.4C372.2,351.8,374,350.4,374.9,352.8z"/>
	<path class="st10" d="M138.1,372.9c2.1-5.3,5.3-7.5,9-9.1c7.4-3.2,15.2-4.7,22.9-6.9c2.1-0.6,3.7-0.1,4,2.4c0.2,2,0.5,3.9-2.5,4.4
		C160.6,365.7,149.8,368.6,138.1,372.9z"/>
	<path class="st11" d="M414.1,386.8c2.1-2.5,4.7-2,6.8-2.6c10.5-3.1,19.1-8.4,23.2-19.1c0.3-0.9,0.6-2.2,1.9-1.8
		c1.4,0.4,0.6,1.5,0.4,2.4C443.2,376.9,426.3,388.2,414.1,386.8z"/>
	<path class="st12" d="M374.9,352.8c-1.4-0.3-2.8-0.7-4.2-1c6.4-1.5,12.8-0.7,19.3-0.8c0.2,0.2,0.3,0.4,0.2,0.6
		c-0.1,0.2-0.2,0.3-0.3,0.3C384.9,352.2,379.9,352.5,374.9,352.8z"/>
	<path class="st13" d="M303,347.8c4.4-2.7,8.8-2.4,12.9,0.7C311.6,347.8,307.4,346.5,303,347.8z"/>
	<path class="st14" d="M389.9,351.9c0-0.3,0.1-0.6,0.1-0.9c1.6-1,3.2-1.3,5.1-0.3C393.6,352.6,391.7,351.9,389.9,351.9z"/>
	<path class="st15" d="M379.2,420.9c-0.8-11.4,3.7-19.7,12.8-23.5c8.8-3.6,18.6-1.4,24.9,5.8c4.4,5.1,5.8,11,4.9,17.6
		c-0.8,0.3-1.4-0.1-2-0.6c-1.1-2.2-2.6-2.6-5.2-2.4c-3.9,0.2-7.7,2.2-11.7,1.1c-1.4-1-1.7-2.2-1-3.7c2-3.3,5.7-4.4,8.8-6.1
		c1.3-0.8,3.6-1.3,2.6-3.5c-1.2-2.5-3.4-4.4-6.2-4.3c-2.3,0.1-1.8,2.4-1.9,4c-0.4,3.6-0.8,7.2-3.4,10.1c-1.2,0.8-2.3,0.6-3.3-0.3
		c-2-3.2-2.2-6.8-2.6-10.4c-0.2-1.4,0.1-3.4-2-3.3c-2.8,0.2-4.9,2-6.3,4.4c-1.1,2,1,2.5,2.2,3.1c2.8,1.5,5.7,2.6,7.9,5.1
		c1.2,2.3,3.1,3.8,5.3,5c2.9,0.4,5,2.1,6.9,4.2c2.3,2.5,4.7,4.9,7.6,6.7c0.1,0.5,0,0.9-0.3,1.3c-1.5,2.2-3.5,3.9-6,5
		c-0.4,0.3-0.8,0.4-1.3,0.2c-3.7-1.7-5.5-4.9-7-8.5c-0.4-1-0.8-2.4-2.1-2.5c-1.7-0.2-2.1,1.4-2.5,2.5c-1.2,3.1-3.3,5.6-5.1,8.4
		c-0.3,0.4-0.7,0.6-1.1,0.8c-2.9-0.8-5.3-2.5-7-5c0.1-0.5,0.3-0.9,0.5-1.3c1-3.1,3.4-5.1,5.5-7.4c2.9-3.1,2.6-3.9-1.6-4.8
		c-3.4-0.7-6.8-1.5-8.9,2.6C380.1,421.3,379.6,421.2,379.2,420.9z"/>
	<path class="st16" d="M409.5,435.8c0.5,0.1,1.1,0.2,1.6,0.2c-6.2,3.8-12.6,4.3-19.1,1c0-0.3,0-0.7,0-1c0.1-0.1,0.2-0.3,0.3-0.3
		C398.1,434.9,403.8,434.2,409.5,435.8z"/>
	<path class="st17" d="M420.9,419.9c0.3,0.3,0.6,0.7,0.9,1c-0.4,4-1.8,7.4-4.7,10.2c-0.1-0.5-0.1-1-0.2-1.5
		C415.5,425.2,416.8,421.9,420.9,419.9z"/>
	<path class="st18" d="M379.2,420.9c0.3,0,0.6,0,0.9,0.1c4.7,2.1,5.8,6.3,6,10.9c-0.4,0-0.8,0.1-1.1,0.1
		C381.2,429.3,379.8,425.3,379.2,420.9z"/>
	<path class="st19" d="M220.9,431.9c-2.1,2.5-4.7,4.3-7.9,5.1c-0.9,0.4-1.3-0.1-1.7-0.8c-0.2-4.6-3.6-7.7-5.5-12.8
		c-3,4.5-5.4,8.3-6.3,12.8c-0.4,0.7-0.8,1.2-1.7,0.7c-2.7-0.7-5-2.1-6.9-4.1c-0.4-0.9-0.5-1.8-0.3-2.8c0.9-3.3,2.9-5.9,5.7-7.9
		c0.9-0.7,2.2-1.3,1.9-2.6c-0.4-1.7-2.1-1.5-3.3-1.4c-2.8,0.2-6.2-2.7-8.4,1.4c-0.6,0.8-1.2,1.6-2.4,1.3c-0.6-4.8-0.2-9.4,2.1-13.7
		c1.3-0.8,2.6-0.1,3.9-0.2c3.1,0.1,5.5,1.9,8.2,3.2c2.5,1.2,3.6,0.5,2.9-2.2c-0.8-3.5,0.3-7.3-1.6-10.6c-0.1-0.5,0.1-0.9,0.4-1.3
		c3.6-1,7.3-1,10.9,0c0.3,0.4,0.5,0.8,0.4,1.3c-2,3.7-1,7.8-1.5,11.7c-0.3,2.2,1.7,1.4,2.8,0.9c3-1.3,5.8-3.3,9.3-3.3
		c1-0.1,1.9-0.1,2.7,0.4c0.5,1.5,1,3.1,1.5,4.6c0.4,1.4-0.6,2.3-1.3,3.3c-2.7,2.7-6.4,2.3-9.7,3.1c-2.5,0.6-2.7,1.6-1.1,3.3
		c2.7,2.9,5.8,5.4,7.1,9.3C221.4,431.2,221.3,431.6,220.9,431.9z"/>
	<path class="st20" d="M200.1,396.1c0,0.4,0,0.7,0,1.1c0.2,2.6-2.2,3-3.6,4.3c-2.6,2.3-5.3,4.6-7.3,7.4c-1.4,0.1-2-1-2.9-1.8
		C189.1,401.3,193.7,397.6,200.1,396.1z"/>
	<path class="st21" d="M220.9,431.9c0-0.5-0.1-0.9-0.1-1.4c-1.5-1.8-0.4-3.4,0.3-5c1.7-3.7,2.3-7.7,2.8-11.7c0.8-0.7,1.5-1.4,2.3-2
		C228.5,419.5,226.7,426.2,220.9,431.9z"/>
	<path class="st22" d="M211,397.1c0-0.3,0-0.7,0-1c6.3,1.5,11,5.1,13.8,11c-0.5,0.3-1.1,0.6-1.6,0.9
		C218.9,404.7,213.7,402.3,211,397.1z"/>
	<path class="st23" d="M197.9,437.1c0.3-0.3,0.7-0.6,1-0.9c4.4-2.5,8.8-2.5,13.2,0c0.3,0.3,0.6,0.6,1,0.9
		C208,439.8,203,439.5,197.9,437.1z"/>
	<path class="st24" d="M184.2,420.9c0.3-0.7,0.6-1.3,0.9-2c4.7,1.8,4.1,6.9,6.3,10.3c0.3,0.5,0.2,1.3,0.6,1.8c-0.3,0.7-0.6,1.3-1,2
		C187.1,429.9,184.9,425.8,184.2,420.9z"/>
	<path class="st2" d="M303.2,407.2c-17.3,0-34.7-0.1-52,0.1c-4.1,0-6.6-1.2-8-5.1c-1.1-3-2.7-5.7-4-8.6c-1.9-4.5-0.4-7.1,4.6-7.3
		c8.5-0.4,17-0.6,25.5-0.9c30.1-1,60.3-2.1,90.4-3.1c8.2-0.3,9.3,1.3,6.8,8.9c-1.2,3.5-2.5,6.9-3.4,10.4c-1.1,4.3-3.4,5.8-7.9,5.8
		C337.8,407.1,320.5,407.2,303.2,407.2z"/>
	<path class="st25" d="M386.1,431.9c-3.2-3-4.3-7.1-6-10.9c0-1,0.1-2,0-3c-0.4-3.4,0.9-3.9,4-2.9c3,0.9,6.2,1.1,9.2,1.7
		c1.3,0.3,3.1-0.4,3.7,1.6c0.6,1.8-0.7,2.7-1.7,3.8C392.2,425.5,389.2,428.7,386.1,431.9z"/>
	<path class="st26" d="M420.9,419.9c-1.3,3.3-2.7,6.5-4,9.8c-1.1,1-2.4,2.2-3.6,0.3c-2.8-4.2-7.3-6.9-10.3-11l-0.1,0.1
		c1.1-1.8,2.9-2.5,4.9-2.7c2.5-0.2,4.9-0.4,7.3-1C420.8,414.1,420.8,414,420.9,419.9z"/>
	<path class="st26" d="M396.9,415.1c-4.2-1.6-7.7-4.6-12.1-5.7c-2.1-0.5-2.3-1.5-1.1-3.2c2.7-4,6.3-6.8,11-8.1
		c1.2-0.4,2.8-0.7,3,1.3c0.5,4.9,0.9,9.8,1.3,14.6C398.6,414.9,398.1,415.6,396.9,415.1z"/>
	<path class="st25" d="M409.5,435.8c-5.8,2.2-11.6,2.4-17.5,0.2c1.4-5.2,4.6-9.5,7-14.3c0.9-1.8,2.9-0.9,3.8,0.9
		C405,427,407.2,431.4,409.5,435.8z"/>
	<path class="st26" d="M402,415.1c-1-5.4,1.8-10.4,1.3-15.7c-0.2-2,1.7-1.6,3-1.3c2.4,0.6,4.6,1.8,6.6,3.4c2,1.6,4.4,3.3,4.6,5.7
		c0.4,3.4-3.5,2.6-5.3,3.6c-3.3,1.8-6.1,4.8-10.3,4.3L402,415.1z"/>
	<path class="st27" d="M396.9,415.1c0.7-0.4,1.4-0.7,2.1-1.1c0.7,1.3,2,0.8,3,1.1c0,0-0.1-0.1-0.1-0.1c0.7,1.3,1.4,2.5,1,4
		c0,0,0.1-0.1,0.1-0.1C398.3,421.7,398.5,417.1,396.9,415.1z"/>
	<path class="st26" d="M211,397.1c5.1,2.5,10.1,5,12.1,10.9c-4.5,1.2-8.5,3.6-12.5,5.8c-2.3,1.3-4,0.8-3.8-2.1
		c0.4-4.6,1.6-9.1,1.7-13.7C208.6,396.8,210.1,397.2,211,397.1z"/>
	<path class="st28" d="M192,431c-5.3-2.3-5.1-7.8-6.9-12.1c-0.5-4.3,0.8-5.7,5.2-3.9c2,0.9,4.5,0.6,6.8,1c1.8,0.3,4.2-0.4,5,2.2
		c0.8,2.4-1.4,3.1-2.6,4.3C196.8,425.2,193.9,427.6,192,431z"/>
	<path class="st26" d="M212.1,436.2c-4.4,1-8.8,1.1-13.2,0c-1.4-0.5-3.2-1-1.6-3c2.7-3.2,4-7.2,5.9-10.8c1.6-3.1,3.3-2.8,4.8,0.1
		c1.9,3.6,3.2,7.5,5.8,10.8C215.6,435.6,213.2,435.5,212.1,436.2z"/>
	<path class="st29" d="M189.1,408.9c-1.8-1.7-0.4-3,0.6-4.3c2.6-3.6,6.5-5.5,10.3-7.4c1.3,0,2.9-0.5,2.7,1.7
		c-0.4,4,0.8,7.8,1.3,11.7c0.2,1.3,0.6,2.6-0.7,3.6c-1.7,1.3-2.7-0.2-4-0.8C196,411.9,193,409.4,189.1,408.9z"/>
	<path class="st29" d="M224,413.8c2.9,1.2,1.7,3.5,1.5,5.5c-0.4,4.2-2.4,7.8-4.6,11.2c-3.8,0.5-4-3.3-5.8-5
		c-2.4-2.2-7.2-3.7-5.8-7.7c1.3-3.4,6-1.3,8.9-2.5C220.1,414.6,222,414.3,224,413.8z"/>
	<path class="st30" d="M207.7,417c-0.3,1.3-1,2.1-2.3,2c-1.3-0.1-2.1-0.9-2-2.2c0.1-1.3,1-2,2.3-2C206.9,415,207.6,415.8,207.7,417z
		"/>
</g>
</svg>
