<?xml version="1.0" encoding="utf-8"?>
<!-- Generator: Adobe Illustrator 19.0.0, SVG Export Plug-In . SVG Version: 6.00 Build 0)  -->
<svg version="1.1" id="Calque_1" xmlns="http://www.w3.org/2000/svg" xmlns:xlink="http://www.w3.org/1999/xlink" x="0px" y="0px"
	 viewBox="0 0 612 792" style="enable-background:new 0 0 612 792;" xml:space="preserve">
<style type="text/css">
	.st0{fill:#231F20;}
	.st1{fill:#50BDEA;}
	.st2{fill:#00AA50;}
</style>
<g>
	<path class="st0" d="M415.9,300c-28.5-28.5-57-57-85.4-85.5c-1.2-1.2-3.2-2-3.2-4.1c-2,0-4,0-6,0c-39.3,39.3-78.7,78.7-118,118
		c0,1.3,0,2.7,0,4c8.9,8.7,17.7,17.4,26.6,26.1c2.7,2.7,5.2,6.9,8.3,7.5c3.3,0.7,5.8-4.2,8.9-6.3c0.7-0.5,1.3-1,2-1.5
		c36.3-26.9,77.4-42.3,121.6-49.9c15.9-2.7,31.9-3.8,48.1-4.3C418.7,301.8,417,301.1,415.9,300z M365.8,300.7
		c-2.7,0.1-4.1-2-5.7-3.5c-10.9-10.2-20.7-21.6-31.2-32.2c-4.9-5-5-4.9-9.8-0.1c-20.1,20.1-40.2,40.2-60.3,60.3
		c-2.4,2.4-4.9,4.5-7.7,6.3c-7.3,4.3-14.6,8.6-21.8,13c-0.7,0.4-1.4,1-2.2,0.1c-3.2-3.4-7.2-6.1-9.4-10.2c-2.1-4.1-0.6-7.7,2.5-10.8
		c21.6-21.5,43.1-43,64.6-64.6c10.8-10.8,21.6-21.7,32.4-32.6c4.7-4.8,9.6-5,14.4-0.2c23.7,23.6,47.3,47.3,71,71
		c0.2,0.2,0.2,0.6,0.4,1.1C390.5,299.1,378.1,299.9,365.8,300.7z"/>
	<path class="st1" d="M251,331.5c13.4-13.6,26.9-27.3,40.3-40.8c9.1-9.2,18.4-18.4,27.5-27.6c4.7-4.7,4.6-4.7,9.2-0.2
		c12.6,12.5,24.6,25.7,37.7,37.8c-32.8,3.5-64.8,10.6-95.5,22.8C263.8,326.1,257.4,328.8,251,331.5z"/>
	<path class="st0" d="M442.1,326.3c-5.1-5.2-10.4-10.3-15.4-15.7c-2.2-2.4-4.5-3.3-7.8-3.3c-31.3,0.3-61.6,5.7-90.9,16.5
		c-29.3,10.8-56.1,25.9-80,46.2c-2.3,2-3.5,3.2-0.6,6.1c24.4,24.1,48.6,48.4,72.8,72.7c2.8,2.8,4.8,2.7,7.5,0
		c38.1-38.2,76.3-76.3,114.4-114.5c1.1-1.1,2.2-2,2.3-3.7C444.6,328.6,443.3,327.5,442.1,326.3z M427.1,337.6
		c-11.8,11.9-23.8,23.8-35.6,35.7c-19.7,19.8-39.5,39.6-59.2,59.4c-0.8,0.8-1.6,1.7-2.5,2.4c-4.3,3.6-8.8,3.6-12.8-0.5
		c-15.9-15.8-31.8-31.8-47.7-47.6c-1.6-1.6-1.9-2.6-0.2-4.3c4.7-5,9.3-10,14.5-14.4c2.6-0.3,3.8,1.9,5.2,3.3
		c10.5,10.4,21.1,20.9,31.4,31.5c2.8,2.8,4.4,2.8,7.2,0c21.8-22,43.8-43.9,65.7-65.8c3.9-3.9,3.9-4.1,0.1-8
		c-2.7-2.7-5.5-5.4-8.1-8.2c-1.2-1.3-2.9-2.3-2.7-4.5c10.2-2.7,20.6-3.5,31.1-4.2c3.1-0.2,5.4,0.6,7.4,3c2,2.4,4.4,4.5,6.5,6.8
		C433,328.3,433,331.7,427.1,337.6z"/>
	<path class="st2" d="M382.5,316.7c4.5,4.6,9,9.3,13.7,13.8c1.9,1.8,2.4,2.9,0.2,5.1c-23.3,23.3-46.6,46.6-69.8,70
		c-2.1,2.2-3.3,2.2-5.5,0c-12.4-12.5-25-24.9-37.5-37.3C312,342.5,344.6,324.6,382.5,316.7z"/>
</g>
</svg>
