<?xml version="1.0" encoding="utf-8"?>
<!-- Generator: Adobe Illustrator 19.0.0, SVG Export Plug-In . SVG Version: 6.00 Build 0)  -->
<svg version="1.1" id="Calque_1" xmlns="http://www.w3.org/2000/svg" xmlns:xlink="http://www.w3.org/1999/xlink" x="0px" y="0px"
	 viewBox="0 0 612 792" style="enable-background:new 0 0 612 792;" xml:space="preserve">
<style type="text/css">
	.st0{fill:#FDB800;}
	.st1{fill:#FDC900;}
	.st2{fill:#FD9A00;}
	.st3{fill:#FD9D00;}
	.st4{fill:#FD7500;}
	.st5{fill:#FD8700;}
	.st6{fill:#FDAA00;}
	.st7{fill:#FD7F00;}
	.st8{fill:#FD8D00;}
	.st9{fill:#FDB000;}
	.st10{fill:#FD8300;}
	.st11{fill:#FD7600;}
	.st12{fill:#FDA700;}
	.st13{fill:#FDAB00;}
	.st14{fill:#FD9100;}
	.st15{fill:#FD8C01;}
	.st16{fill:#FDAB01;}
	.st17{fill:#FD6900;}
	.st18{fill:#FD9300;}
	.st19{fill:#FDA300;}
	.st20{fill:#FD8301;}
	.st21{fill:#FD9600;}
	.st22{fill:#FD9801;}
	.st23{fill:#FD9F01;}
	.st24{fill:#FCBF04;}
	.st25{fill:#FD7903;}
</style>
<g>
	<path class="st0" d="M51,457c0-34.7,0-69.3,0-104c3.3-5.3,8.1-9.2,12.8-13.1c9.8-8.3,18.6-17.6,27.9-26.4
		c20.1-19.2,40.3-38.3,59.5-58.3c0.7-0.7,1.4-1.4,2.1-2.1c2-1.7,4.1-3.8,7-2.1c1.7,1,1.7,6.7,0,8.8c-0.6,0.8-1.2,1.6-1.9,2.3
		c-7.2,6.8-13,14.9-21,20.8c5.8-4.2,10.3-9.9,16.1-14.1c1.8-1.3,3.6-2.6,5.9-1.6c2.6,1.1,1.9,3.6,2,5.6c0.5,7.4-1.3,15,1.7,22.2
		c0.9,1.9,2.4,2.7,4.5,2.2c2.1-0.5,2.7-2.3,3-4.2c0.1-0.5,0.1-1,0.1-1.5c0.3-2.4-0.5-5.5,2.3-6.7c3-1.3,4.8,1.5,6.7,3.2
		c1.9,1.8,3.7,3.8,5.7,5.6c2.2,2,4.6,5.8,7.8,2.7c3.3-3.2-0.3-5.6-2.4-7.8c-2.5-2.7-5.3-5.1-7.7-7.8c-3.2-3.7-2.9-6.2,1.4-8.1
		c11.7-5.2,13.6-20,4.3-27.4c-1.2-0.9-1.9-2.3-2.1-3.8c-0.1-3.3,1.8-5.7,4.2-7.6c3.3-2.6,6.1-5.7,9.1-8.5
		c23.5-22,45.9-45.1,68.7-67.7c3.3-3.3,7.1-6,10.5-9.3c2.1-2,4.9-3.8,7.4-1.1c2.4,2.5,0.3,5-1.5,7c-5.9,6.5-12.3,12.7-18.3,19.1
		c-8.4,8.9-16.4,18.4-25.6,25.8c16.8-15.4,34.7-30.4,51.1-47c4.1-4.2,8.4-8.6,14.5-10.1c38.3,0,76.7,0,115,0c1.9,2.7,0.1,4.5-1.7,6
		c-6.7,5.5-13.1,11.3-20.1,16.4c-0.9,0.7-1.9,1.4-3,1.8c-1.1,0.3-2.3,0.7-3.3-0.2c-1.1-1.1-0.8-2.5-0.1-3.7c1.4-2.5,3.8-4.2,5.7-6.3
		c1.5-1.7,3.5-3.1,4.1-5.6c-2.1,0.3-3.2,1.9-4.4,3.2c-13,13.6-26.9,26.3-40.5,39.3c-19,18.2-37.8,36.6-58.6,52.7
		c-2.2,1.7-4.3,3.7-7,4.7c-1.1,0.4-2.3,0.7-3.2-0.4c-0.9-1-0.5-2.2-0.1-3.3c0.4-1.1,1.2-2,2.1-2.8c12.4-12.3,23.6-25.8,36.1-38
		c17.1-16.8,33.4-34.4,46.8-47.2c-17.6,17.2-38,39.4-59.8,60.2c-12.8,12.2-25,25-37.9,37c-2.9,2.7-3.9,5.4-3.8,9.2
		c0.2,8.3,0.1,16.7,0,25c0,1.7,0.2,3.4-0.7,4.9c-1.3,2.2-2.7,2.3-4.1,0c-1.2-7.6-0.5-15.2-0.6-22.7c-0.1-8.7-0.4-17.5,0.3-26.2
		c0.7-3.3,3.9-4.4,5.9-6.5c15.3-15.3,30.9-30.4,45.9-46c2-2,4-4,6.3-5.7c-2.4,1.8-4.6,3.9-6.7,6.1c-14.7,15.3-29.8,30-44.9,44.9
		c-1.6,1.6-3.1,3.6-5.6,4.1c-6.2-1.3-9.8,2.5-13.4,6.5c-1.9,2.1-4,3.9-5.8,6.1c-1,1.2-1.4,2.6-0.7,4.1c0.6,1.3,1.7,2,3.2,2
		c2.3,0,5.1-2.3,6.8,0.7c1.8,3.3,1.6,7,0,10.5c-5.8,6.1-12.4,11.3-18.3,17.4c-10.9,11.4-23,21.4-34.8,31.8c-1.3,1.1-2.7,1.9-4.3,2.3
		c-2.2,0.1-3.6-1.4-5.2-2.6c-10.3-7.8-24-8.1-33.8-0.8c-10.7,8-14.1,20-9.4,32.8c0.5,1.4,1.1,2.8,0.9,4.3c-1.8,3.8-4.9,6.6-7.8,9.6
		c-22.9,23.2-46.5,45.5-69.6,68.5c-6.8,6.8-14.1,13-20.5,20.2C54.9,457.4,53.2,458.7,51,457z"/>
	<path class="st1" d="M160.8,296c-1.7-6.6-0.4-13.2-0.8-19.8c-0.1-1.5,0-3,0-4.5c0-1.1,0.1-2.5-1.2-3.1c-1.3-0.6-2.2,0.4-3,1.2
		c-6.1,5.1-12.2,10.2-18.3,15.3c-1.6,1.4-3.2,2.9-5.4,3.4c-0.9-1.8,0.6-2.5,1.4-3.3c8.2-8.5,16.4-17,24.6-25.5
		c0.5-0.5,1.1-0.9,1.4-1.4c0.9-1.9,1.4-4.4,0.1-5.7c-1.8-1.7-3.2,0.8-4.3,1.9c-4.8,4.6-9.4,9.4-14.2,14.1
		c-16.3,16-32.2,32.2-48.9,47.7c-12.6,11.6-24.1,24.3-37.6,34.9c-1.1,0.8-2.1,1.7-3.5,1.9c0-38.3,0-76.7,0-115
		c1.2-2.2,0.5-4.6,0.8-6.8c4-35.4,24.2-59.5,53.5-77.4c12.8-7.8,26.9-11.1,41.7-11.8c53.3,0,106.7,0,160,0
		c-10.2,9.3-20.1,18.8-30.1,28.3c-9.8,9.4-20.4,18.1-30.7,26.9c-3.1,2.6-6.1,5.7-10.3,7.4c-0.6-2.3,1.1-3.1,2.1-4.1
		c15.2-15.9,30.3-31.7,45.5-47.6c0.2-0.2,0.5-0.5,0.7-0.7c1-1.3,3-2.7,1.6-4.2c-1.7-1.7-3.4,0.3-4.6,1.4c-4.2,3.7-8.5,7.5-12.5,11.4
		c-8.6,8.4-16.9,17-25.5,25.4c-15.8,15.5-31.6,31-47.5,46.4c-2.9,2.8-6.2,5-7.9,8.8c-1.9,1.9-4.1,1.1-6.1,0.6
		c-3.6-0.8-7.3-0.9-10.9-0.7c-5.8,0.2-7.3,1.7-7.4,7.6c-0.2,13.3,0,26.6-0.1,40C163.2,291.5,163.9,294.4,160.8,296z"/>
	<path class="st2" d="M563,239c0,4,0,8,0,12c-22,17.2-41.1,37.8-63.3,54.7c-2,1.5-3.8,3.2-6.3,4c-1.1,0.3-2.3,0.4-3.3-0.5
		c-1-1-0.7-2.2-0.3-3.3c0.7-2,2.1-3.4,3.5-4.8c15.9-16.1,31.1-32.8,47.3-48.7c2.8-2.8,6.1-5.1,8.3-7.7
		c-16.9,15.5-32.5,33.4-49.6,49.6c-10.8,10.2-21.3,20.6-31.9,30.9c-1.8,1.7-3.5,3.7-6.4,3.4c-3.4-1.4-5.3-4.4-7.9-6.8
		c-10.1-9.5-27.2-8.9-37.5,1.3c-10.8,10.8-11.8,26.9-1.4,37.1c7.4,7.2,5,15.6,4.4,23.8c-0.2,2.6-2.9,4-5.7,4
		c-13.8,0.3-27.6,0.3-41.4,0c-3.6-0.1-5.4-2.3-5.5-5.8c-0.2-4.5-0.2-9,0-13.5c0.1-2.5,1.2-4.5,2.9-6.2c16.4-15.9,8.2-38.7-8.6-45.7
		c-0.6-0.3-1.1-0.7-1.6-1.2c-2.7-3.5-0.7-6.2,1.7-8.6c9.9-10,19.9-19.9,29.9-29.9c7-7,14-14.1,21.2-21c2.2-2.2,4.7-4.6,8.2-2.1
		c1.3,2,0.6,4,0.1,6c-4.5,5.4-9.5,10.3-14.3,14.9c7.6-7.8,9-8.2,13.7-3.4c1.7,2.4,3.8,2.3,6.2,1.2c0.9-0.4,1.7-1.1,2.6-1.6
		c4.5-2.2,9.7-0.8,12.9,3.4c2.8,3.6,2.7,7.9-0.2,11.5c-3.3,4.1-8.5,5.4-13,3c-2.6-1.4-5.7-4.1-7.7-0.2c-1.9,3.7,1.8,5.9,4.4,7.2
		c6.6,3.3,13.3,3,19.3-1.5c5.9-4.4,8.1-10.6,6.7-17.7c-1.5-7.2-5.7-12.3-13.2-14.1c-0.8-0.2-1.6-0.3-2.5-0.4
		c-3.5-0.3-5.6-2.2-5.5-5.8c0.1-3.6,2.1-5.9,5.8-6.4c2.5-0.3,5-0.2,7.5-0.2c7.4-0.2,8.8-2,7.2-9.2c0-3,1.5-5.4,3.7-7.3
		c20.3-18.4,38.9-38.5,58.5-57.6c3.3-3.2,5.9-7.3,10.7-8.6c1-0.3,1.9-0.5,2.9-0.3c1.3,0.5,2.1,1.3,2.5,2.7c0.4,2.9-1.4,4.6-3.2,6.4
		c-5.9,6.1-12.2,11.6-18.2,17.6c6.3-6.2,12.7-12.3,19.8-17.5c1.9-1.4,3.8-2.6,6.3-2.3c5.3,1.8,7.8,6.6,10.8,10.7
		c11.4,15.9,19.6,33.1,19,53.3C562.5,238.2,562.7,238.6,563,239z"/>
	<path class="st3" d="M51,558c0-1.3,0-2.7,0-4c0.7-3.9,2.9-6.7,6.1-9.2c7.5-5.8,14.4-12.4,21.2-19c10-9.7,20.2-19.4,30.4-28.9
		c15.3-14.3,29.6-29.7,45-44c9.4-8.7,18.3-17.9,27.6-26.8c1.6-1.5,3-3.2,4.9-4.2c1.8-0.9,4-1.1,5.6,0.4c1.8,1.7,0.7,3.7-0.3,5.5
		c-0.3,0.4-0.6,0.8-0.9,1.2C175,444,160.9,460.2,145.4,475c15.2-14.7,32.3-27.3,46.7-42.9c7.2-7.8,15.1-12.1,26.1-10.8
		c7.7,0.9,15.6,0.2,23.5,0.2c2,0,4.1-0.4,5.5,1.6c1.9,6,1.1,12.1,0.6,18.2c-0.1,1.7-1.4,3-2.6,4.2c-7.7,7.4-10.4,16.3-8.1,26.8
		c0.2,1,0.3,2,0.1,3c-3.1,5.4-7.9,9.4-12.5,13.4c-3.5,3.1-7,6.2-10.2,9.5c-14.5,15.2-29.9,29.5-45.2,43.8
		c-16.6,15.6-32.9,31.5-51.1,45.4c-1.6,1.2-3.2,2.3-4.9,3.5c-1.3,0.9-2.9,1.5-4.2,0.3c-1.4-1.2-0.6-2.8,0.3-4.1
		c2.4-3.4,4.7-6.8,7.6-9.9c19.3-20.1,38.3-40.3,58.3-59.6c8.9-8.5,17.2-17.6,26.2-26c-24.8,24-48.6,49-73.2,73
		c-16.1,15.7-31.6,32-48.5,46.8c-1.7,1.5-3.3,2.8-5.7,2.6c-5.9-2.5-7.9-8.3-10.8-13.2c-7.7-12.9-12.4-26.8-12.1-42
		C51.5,558.5,51.2,558.3,51,558z"/>
	<path class="st4" d="M563,429c0,25.7,0,51.3,0,77c-3.3,5-8.4,8-12.8,11.8c-5.7,4.9-11.6,9.4-17.4,14.1c-1.4,1.2-2.9,2.2-4.4,3.3
		c-1.9,1.3-4.3,3.1-6.2,0.8c-1.7-2,0.5-3.9,1.9-5.6c8-9.6,17.2-18,24.4-25.3c-9.7,9.4-20.4,20.9-31.8,31.8
		c-14.9,14.3-29.7,28.6-44.8,42.7c-14.3,13.4-29.8,25.5-45,37.8c-1.5,1.2-3.1,2.6-5,3.2c-1.3,0.4-2.7,0.7-3.7-0.5
		c-1-1.2-0.5-2.7,0.3-3.7c2.8-3.3,5.4-6.7,8.5-9.8c8.9-9,17.8-18,23.4-23.3c-13.8,12.4-29,30.3-46.6,45.8
		c-7.4,6.5-14.2,13.6-20.8,20.9c-1.5,1.6-3.1,3-4.9,4.1c-19,0-38,0-57,0c-2.5-2.7-0.6-5,0.8-7.2c3-4.6,7-8.5,11-12.2
		c7.1-6.5,13.8-13.4,21.4-19.5c1.7-1.3,3.8-3.2,5.7-1.1c1.8,1.9,0.2,4.1-1.3,5.7c-4.1,4.5-8.5,8.8-13.1,12.7
		c11.2-9.6,23-18.7,34.1-28.4c7.8-6.8,15.7-13.4,23-20.6c5.7-5.6,12-10.6,17.6-16.3c1.4-1.5,3.2-2.4,5.2-2.7
		c1.4-0.1,2.6,0.4,3.8,0.9c7.1,2.7,12.7,0,17.5-5c4.4-4.7,5.1-10.4,2.8-16.2c-2.6-6.6-8-9.5-14.9-9.9c-7.2-0.4-9.4-3.2-7.6-10.1
		c0.8-3.1,2.9-5.2,6.1-6c3-0.7,5.6,0.2,7.7,2.4c1.1,1.1,1.8,2.4,2.1,3.9c0.7,2.6,1.7,5.2,4.9,4.3c3.2-0.8,2.8-3.7,2.4-6.2
		c-0.3-2.1-1.3-4.2-0.6-6.4c4.5-6,10.1-11,15.6-16.1c14.8-13.7,29.5-27.4,43.6-41.8c11-11.2,22.4-21.8,34.2-32.2
		c0.4-0.3,0.7-0.7,1.1-1c1.5-1,3.2-2.6,4.8-0.9c1.5,1.6,0.3,3.4-0.9,4.9c-2.3,2.9-4.5,5.8-7.2,8.3c-10.2,9.6-19.1,20.4-29.3,30
		c12.4-12.2,26.8-22.1,39.4-34.2c1.8-1.8,3.9-3.2,6-4.5C559,427.7,561.1,427,563,429z"/>
	<path class="st5" d="M201,654c-18,0-36,0-54,0c-4-1.3-8.4,0.1-12.2-2c-2.2-3.8,0.5-6,2.8-8c6.9-5.8,13.3-12.1,20.1-17.9
		c7.8-6.8,14.9-14.3,22.5-21.2c11.6-10.5,22.9-21.3,33.9-32.5c12.1-12.4,25.1-23.8,37.3-36.2c3.3-3.4,7.1-6.4,10.2-10.2
		c2-2.4,4.4-4.8,8.1-3.4c1.4,1.1,1.8,2.4,1.4,4.1c-14.8,15.2-29,31-43.6,46.4c2.9-2.7,5.5-5.7,8.5-8.4c3.2-2.8,6.8-5,11.2-2.3
		c1.9,3.2,4.6,4.4,8.4,4.3c5.7-0.2,11.3,0,17-0.1c1.2,0,2.3,0,3.5-0.3c1.9-0.5,3.5-1.5,3.6-3.6c0.1-2.2-1.4-3.3-3.2-3.9
		c-3.2-1.1-6.6-0.5-9.9-0.7c-2.3-0.1-5,0.1-5.9-2.7c-0.8-2.5,1.2-3.9,2.7-5.4c2.3-2.2,4.9-4,7.3-6.1c9.4-7.8,11.5-16.1,6.7-27.4
		c-0.3-0.6-0.4-1.3-0.5-1.9c0-2.1,0.9-3.9,2.4-5.3c11.7-11.3,22.4-23.6,35-34.1c1.8-1.5,3.7-2.9,6.3-2.1c3.6,1.7,4.5,5.7,6.7,8.5
		c7.3,9.4,17,12.8,28.3,10.7c11.1-2,18.1-9.3,21.4-20c0.6-1.9,1-3.8,1.6-5.8c6.5-8.3,14.8-14.8,22.4-22c2.9-2.8,5.6-5.7,8.5-8.4
		c1.9-1.7,3.9-3.6,6.6-2.4c2.5,1.1,1.4,3.8,1.6,5.8c0.1,0.8,0,1.7-0.1,2.5c-1.1,3.2-4.2,4.9-5.9,7.8c-2,3.4-4.2,6.6-4.5,10.7
		c-1,3-0.9,6,0.1,9c0.3,4.3,3.9,7.7,3,12.3c-5.2,6.7-11.4,12.5-17.7,18c-7.3,6.5-13.8,13.9-21.5,19.9c-1.7,1.3-3.2,2.8-5.3,3.5
		c-6.4,0.2-7.1,0.9-7.2,7.3c-0.1,2.8,0,5.7-0.1,8.5c-0.1,2-0.1,4.1-2.3,5.1c-0.3,0.1-0.9,0.1-0.9-0.1c-1.3-4.3-4.7-5.2-8.6-5.4
		c-0.8-7.1,1.9-13.2,5.1-19.2c1.6-1.1,3.4-1.6,4.9-3.1c10-9.4,19.8-19.1,27.5-26.9c-6.6,6.5-15,15.3-23.9,23.5
		c-1.9,1.7-3.6,3.5-6.5,2.2c-0.7-0.5-1.2-1.2-1.5-1.9c-0.8-1.8-2-3.2-4.2-2.9c-2.1,0.3-3.1,1.8-3.7,3.6c-2.1,6.5-3.8,13.1-5.9,19.6
		c-0.7,2.1-1.3,4.1-3.2,5.5c-3.9,1.1-5.3,4.9-7.9,7.4c-18.3,17.5-36.3,35.2-54.8,52.5c-13.5,12.6-26.7,25.4-41,37.2
		c-7.6,6.2-15,12.6-23.4,17.8c-1.3,0-2.7,0-4,0c-1-2.2,0.4-3.5,1.7-4.7c12.4-11.1,22.5-24.5,34.4-36.2c9.5-9.3,18.8-18.8,28.4-28.1
		c4.2-4.1,8.1-8.4,12.4-12.3c-19.2,18.6-38.1,37.4-56.6,56.7C216.4,637.6,207.2,644.3,201,654z"/>
	<path class="st6" d="M245.7,423c-10.2,0-20.4,0.6-30.5-0.2c-7.3-0.5-12.6,1.9-17.5,6.9c-14.1,14.6-29.3,28-45,40.9
		c-3.8,3.1-7.7,6-11.5,9c-0.3-0.3-0.6-0.6-0.9-0.9c4-4.5,7.9-9,11.9-13.5c11.6-12.9,24-25,36.2-37.2c1.2-1.2,3.7-2.8,2.2-4.4
		c-1.7-1.8-3.8-0.2-5.5,1.5c-22,21.8-43.9,43.7-66.1,65.2c-16.7,16.2-33.8,32-50.8,47.9c-5.7,5.3-12.4,9.5-17.2,15.7
		c0-32.3,0-64.7,0-97c3.8-0.7,4.7-4.4,7.1-6.7c12.7-12.2,25.3-24.5,38-36.8c18.9-18.5,37.8-37,56.8-55.5c1.2,0,1.9,0.8,2.3,1.8
		c0.4,3.9-2.1,6.5-4.4,9.1c-4.2,4.5-8.6,8.9-13,13.1c-13.2,12.6-24.6,26.9-37.5,38.4c11.2-10.7,23.8-21.2,36-32.2
		c5.9-5.3,10.9-11.7,17.4-16.4c1.9-1.4,3.6-3.4,6.2-2.2c2.7,1.3,1.7,4.1,1.8,6.3c0.1,10.5,0.1,21,0,31.5c0,3.7,0.5,7.3,2.7,10.5
		c2.5,2.3,5.6,1.9,8.5,2c20.8,0.1,41.7,0,62.5,0c2.3,0,4.7-0.1,7,0.2C243.9,420.2,246.1,420.2,245.7,423z"/>
	<path class="st7" d="M366,522c7.1-6.9,13.9-14.1,21.4-20.6c5.9-5.1,11.2-10.8,16.8-16.1c1.6-1.5,2.9-3.2,5.3-3.5
		c2.3-0.7,3.7,0.9,5.2,2.2c18.1,16.2,41.3,9.6,48-13.7c0.1-0.3,0.2-0.6,0.2-1c1.1-3,1-6.1,0.3-9.1c-0.1-0.8,0-1.5,0.3-2.2
		c1.2-2.7,3.3-4.6,5.5-6.3c10.6-8.6,20.7-17.7,30.6-27.1c17-16.1,34.4-31.9,50.9-48.6c1.2-1.2,2.4-2.3,3.9-3.1
		c5-2.8,7.2-1.6,7.2,4.1c0,1.3,0.6,2.2,1.4,3c0,16.3,0,32.7,0,49c-4.4,0.1-7.3,3.2-10.2,5.8c-14.2,13.3-29.7,25-44.8,37.3
		c-0.2,0.2-0.6,0.1-2,0.4c13.2-17.3,29-31.1,41.9-47.8c-1.3,1.2-2.5,2.5-3.9,3.6c-1.5,1.3-3.2,2.4-4.7,3.8
		c-10.1,9.7-20.3,19.2-30.1,29.2c-17.6,17.9-36.6,34.5-54.3,52.2c-1.2,1.2-2.4,2.3-4.2,2.5c-2.5,0.9-4-0.9-5.6-2.3
		c-4.9-4.3-10.6-4.8-16.3-2.4c-5.9,2.5-9.3,7.4-9.5,14c-0.2,6.6,0,13.2-0.1,19.9c0,2.1,0.3,4.3-1.1,6.2c-3.4,2-3.6-0.9-4-2.9
		c-0.5-2.4,0.1-4.9-0.7-7.6c-4,2.2-7,5.1-9.9,8.1c-24.7,25.1-50.8,48.8-78.6,70.5c-2.4,1.8-5.3,4.7-7.8,2.1
		c-2.6-2.7,0.6-5.6,2.5-7.6c8.9-9.2,17.8-18.4,27.1-27.3c4.7-4.5,8.4-9.9,12.9-14.5c1.4-1.5,1.9-3.5,2.7-5.3c2.5-2.5,3.6-5.5,3.5-9
		c-0.3-10.9,0.7-21.9-0.6-32.8C365,524,365.3,523,366,522z"/>
	<path class="st8" d="M461.9,328.2c0.5-2.4,2.7-3.3,4.2-4.8c24.4-24.1,48.8-48.2,73.2-72.2c4.6-4.5,9.5-8.6,14.7-13.3
		c0.6,3-0.9,4.4-2.3,5.7c-10.5,10.6-21.2,21.1-31.3,32.2c-8.6,9.5-17.7,18.5-26.6,27.7c-1.3,1.3-2.4,2.7-3.2,5.1
		c3.7-0.9,5.9-3.5,8.4-5.4c18.5-14.9,36.2-30.8,53.4-47.2c2.9-2.7,6-5.3,10.5-5.1c0,26.3,0,52.7,0,79
		c-21.2,17.1-39.7,37.4-61.4,53.9c-1.5,1.1-2.9,2.2-4.5,3.2c-1.3,0.8-2.9,1.3-4.2,0c-1.3-1.3-0.7-2.8,0-4.1c0.5-0.9,1.2-1.6,1.9-2.3
		c14.8-16.7,30.3-32.7,46-48.5c2.7-2.7,5.9-4.9,8.1-7.6c-15.5,14.2-29.3,30.5-45,44.9c-14.8,13.6-28.2,28.7-43.6,41.7
		c-2.3,1.9-4.5,4.5-7.5,1c-0.6-3.7-0.2-7.4-0.2-11.1c1.2-4.3,6-5.3,7.5-7.6c-0.4,0.5-1.9,1.6-3.4,2.6c-2,1.3-3.4,0.6-4-1.6
		c-0.3-9.2-0.1-18.4-0.1-27.5c-0.4-2.9,1.5-4.6,3.2-6.4c7.2-7.4,8.3-16.3,6.2-25.9C461.4,332.5,459.8,330.4,461.9,328.2z"/>
	<path class="st9" d="M270.3,296c1.5-4.4,0.6-8.9,0.7-13.4c0.2-8-2-16.9,0.8-23.7c2.8-6.8,10.4-11.7,16.1-17.2
		c30-28.8,59.3-58.4,88.8-87.8c1.7-1.7,3.4-3.6,6.1-3.6c0.8,1.4,0,2.2-0.6,2.9c-0.8,1-1.8,1.9-2.7,2.9
		c-19.8,20.2-39.9,40.2-59.4,60.6c-10,10.4-19.4,21.4-29.4,31.9c4.8-1.6,8.4-4.9,12.1-7.9c16.1-13.6,31.8-27.7,46.9-42.5
		c16.4-16,33.4-31.5,49.6-47.8c2.2-2.2,5.5-5.5,7.9-3.3c2.7,2.5-1.5,5.3-3.2,7.3c-3,3.5-6.8,6.2-9.6,10c4.1-1,7-3.6,10-6
		c4.9-4,9.8-8,14.7-11.9c1.4-1.2,2.8-2.4,3.1-4.4c14.7,0,29.3,0,44,0c3.9,1.2,8.3-0.2,12.1,1.9c0,4.2-5.5,10-9.3,9.9
		c-3.4-0.2-2.2-3.1-2.9-5c-1.9-0.4-3.1,1-4.2,2.1c-4.1,4.1-8.7,7.8-12.8,11.9c-12,12.3-24.8,23.7-37.1,35.6
		c-13.3,13-27.2,25.4-41.9,36.9c-0.7,0.5-1.3,1.1-2,1.4c-1.6,0.8-3.6,2-5,0.2c-1.4-1.8,0.1-3.4,1.3-4.8c4.8-5.7,9.8-11.3,14.8-16.9
		c19.3-21.1,40.3-40.6,55.7-56.9c-6.1,6.7-16.9,17.4-27.9,28.1c-15.8,15.3-31.5,30.6-47,46.2c-2.4,2.4-4.5,4.9-5.8,7.9
		c-1.1,0.9-2.4,1-3.7,1.1c-11.5,1.2-15.7,5.2-17.4,16.5c-0.1,0.7-0.3,1.3-0.6,1.9c-1.8,3.8-5.6,5.6-8.4,8.4
		c-9.5,9.6-19.1,19-28.6,28.7c-6.3,6.4-13.4,12-19.5,18.6c-3,0.9-5.6-0.2-8.1-1.7c-2.1-2.4-1.3-4.7,0.4-6.7c2.1-2.4,3.8-5.1,6.1-7.3
		c9.2-9,17.5-18.7,26.7-27.7c24.3-24,47.7-48.9,72.3-72.6c14.2-13.7,27.6-28.2,40-40.1c-25.3,25.4-52.6,52.5-79.7,79.7
		c-6,6-11.8,12.3-17.8,18.3c-18.3,18.2-36.8,36.1-55.5,54c-0.7,0.7-1,1.7-1.7,2.5c-1.9,1.8-4.4,2.2-6.7,3.3c-5.8,2.9-10.4,7-13.2,13
		c-1.2,2.5-1.8,5.4-4.5,7c-5.5,5.8-11.7,10.8-17.3,16.4c-4.3,4.4-9.1,8.3-13.6,12.5c-4.4,4.1-3.4,9.2-2.7,14
		c0.4,2.7,3.3,2.4,5.4,2.4c11.3,0.1,22.7-0.1,34,0.1c2.3,0,5.2-0.5,6.1,2.8c-1.1,2.5-3.3,2.5-5.5,2.5c-13,0.2-25.9,0.2-38.9,0
		c-5.3-0.1-6.7-1.7-7.1-6.9c-0.2-2.8,0.1-5.7-0.1-8.5c-0.4-5,1.2-9,5-12.4c4.2-3.8,6-9.1,7.4-14.4c2.4-3.4,6.1-5.5,9-8.5
		c12.1-12.8,24.6-25.3,37.1-37.7c1.4-1.4,2.5-3.2,4.6-3.6C262,298.5,266.1,297.6,270.3,296z"/>
	<path class="st7" d="M208,654c2.5-6.4,8.9-8.7,13.7-12.6c12.1-9.9,23.9-20.1,35.2-30.9c17.9-17.1,36.2-33.8,53.8-51.4
		c6.1-6.1,12.4-12,18.7-18c1.4-1.4,2.7-3,5-3c1.9,2.9,0.7,5.6-0.7,8.2c-5.1,4.6-9,10.4-14.8,14.9c4.9-3.5,7.4-9.9,14.5-8.7
		c5.1,2,10.4,1,15.6,1.2c7.5,0.2,8.1,0.6,9.2,7.8c0.4,2.8,2.5,4.1,3.8,6.1c1.1,2.2,0.2,3.6-1.4,5.2c-17.3,17.2-34.3,34.7-51.8,51.6
		c-9,8.6-18.1,17.1-26.4,26.3c-1.3,1.4-3.2,1.7-4.4,3.1C254.7,654,231.3,654,208,654z"/>
	<path class="st10" d="M454.2,413c5.3-2.9,9.4-7.4,13.6-11.5c24.3-23.7,48.4-47.6,72.6-71.4c4.2-4.1,8.8-7.9,13.7-12.2
		c0.7,2.9-0.9,4.2-2.2,5.6c-12.2,12.5-24.3,25.1-36.5,37.5c-7.3,7.5-13.4,16.1-21.1,23.2c-0.5,0.4-0.8,1,0,2.4
		c5.9-4.7,11.8-9.4,17.6-14.1c14.9-12.2,28.4-26,42.8-38.8c2.4-2.1,4.8-4.2,8.3-3.9c0,16.7,0,33.3,0,50c-1.4,0.4-2.8,0.7-4.4,1.2
		c0.1-0.8,0.1-1.2,0.2-1.7c0.5-2,3.3-4,1.1-5.8c-2.3-1.8-4.2,1-6,2.2c-1.4,0.9-2.4,2.3-3.6,3.4c-16.9,16.2-33.7,32.7-50.8,48.7
		c-11.2,10.4-23,20.2-34.5,30.2c-0.5,0.1-1.2,0.2-1.4-0.2c-3.7-5.7-8.6-10.7-11-17.3c0-7.4-0.1-14.9,0-22.3
		C452.5,416.5,452.1,414.3,454.2,413z"/>
	<path class="st11" d="M278,654c1.4-3.6,3.9-6.5,6.7-9.2c15.8-15.5,31.2-31.3,47.5-46.3c8.7-8,16.4-17,25.8-24.2
		c1.8-1.4,3.7-2.9,4-5.5c0.2,0,0.4,0,0.7-0.1c1.9,1.9,0,3-1.1,4.1c-12.8,13.5-25.6,27-38.5,40.5c-2.1,2.2-4.1,4.6-6.1,8.4
		c6.9-2.8,11.3-7.5,16-11.4c24.9-20.3,48.6-41.9,71-64.8c2.7-2.7,5.7-5.1,8.6-7.6c0.7-0.6,1.4-1.6,2.5-1c1,0.6,0.7,1.7,0.8,2.7
		c0.4,4.1-0.8,8.3,0.8,12.3c2.9,4.6,7.8,7.9,8.4,13.9c-6.2,5.7-12.6,11.3-18.7,17.1c-19.7,18.5-40.5,35.9-61.8,52.5
		c-1,0.8-2.2,1.4-4.5,2.8c4.9-10.1,13.8-15.2,20-24c-3.4,0.6-4.8,2.5-6.2,3.8c-10,9.6-21.3,18-29.8,29.3c-1.5,2-3.2,3.9-3.2,6.6
		C306.7,654,292.3,654,278,654z"/>
	<path class="st7" d="M201,654c-0.3-5.3,3.2-8.9,6.5-11.8c15.1-13.4,28.5-28.4,43.1-42.2c11.1-10.5,22.3-20.9,33.4-31.4
		c0.3-0.3,0.8-0.4,1.6-0.1c-27.6,28.2-54,57.4-81.6,85.5C203,654,202,654,201,654z"/>
	<path class="st9" d="M209.2,340c-0.6-6.4-3.4-11.9-7.2-17c3.2-5.2,8.5-8.3,12.9-12.2c10.9-9.5,21.2-19.5,31.5-29.6
		c3.5-3.4,6.9-7.1,11.5-9.2c2.2,1.1,2.2,3.2,2.2,5.2c0.2,5.1,0.3,10.3-0.2,15.4c-0.6,2.7-3.3,3.6-5,5.3
		c-12.9,13-25.9,25.9-38.6,39.1C214.5,339,212.6,341.6,209.2,340z"/>
	<path class="st6" d="M123.6,370.6c-0.5,0.6-1,1.3-1.5,1.9c-19.5,19.8-38.9,39.6-58.4,59.4c-1.2,1.3-2.8,4.2-4.6,2.3
		c-1.6-1.6,0.9-3.5,2.3-4.8c17.8-17.5,35.5-35,53.4-52.4c2.6-2.5,5.5-4.6,8.3-7C123.2,370.1,123.4,370.3,123.6,370.6z"/>
	<path class="st9" d="M270.3,244c-0.5-1-1-1.9-1.5-2.9c1-0.8,2.2-1.6,3.1-2.5c15.8-15.4,31.6-30.9,47.4-46.3c3.1-3,6.4-5.7,9.7-8.5
		c0.9,1.3,0,1.8-0.5,2.3c-18.1,18.5-36.3,37-54.5,55.5C272.9,242.6,271.9,243.7,270.3,244z"/>
	<path class="st0" d="M213.4,179.5c-0.1,2.4-1.6,3.2-2.6,4.2c-34.4,35.7-69.9,70.5-104.7,105.9c-14.8,15.1-29.6,30.2-44.5,45.2
		c-1.6,1.6-3.7,5.1-5.8,3c-1.9-1.9,1.3-4.3,3-6c35.4-35.5,70.6-71.2,106.4-106.2c12.9-12.6,25.5-25.4,38.5-37.8
		C206.7,185,209.9,182.5,213.4,179.5z"/>
	<path class="st12" d="M359,313.8c-5.3-1.4-10.6-1.3-16-0.9c0.1-2.6,0.1-2.6,4-6.4c-2.3,2.5-5.2,4.9-7.9,7.6
		c-5.6,2.9-10.9,6.3-14.5,11.7c-8.1,12.1-7.1,26.6,3.3,36.9c2.8,2.8,4,5.5,3.6,9.2c-0.5,4.4,2,10.1-1,12.9c-2.9,2.8-8.6,0.8-13,0.8
		c-10.1,0.1-20.3,0-30.4,0.1c-3.2,0.1-4.7-0.9-4.2-4.2c0.2-1.6,0.2-3.3,0-5c-0.6-6.2,0.9-11,5.3-16c12-13.6,7.6-34.5-8.2-43.6
		c-1.3-0.7-2.5-1.5-3.8-2.3c-0.1-3.1,2.3-4.7,4.2-6.4c14.7-12.7,27.6-27.2,41.5-40.7c3-2.9,6.1-5.5,9.6-7.8c6.2,2.2,9.7,0.1,12-6.3
		c1.6-4.4,8.1-4.8,11.6-1.7c3.5,3.1,3.5,8,0.1,11.5c-1.6,1.6-3.5,2.4-5.6,3c-1.8,0.5-2.8,1.8-2.7,3.7c0.1,1.7,1.1,2.7,2.6,3.4
		c1.2,0.5,2.6,0.6,3.8,1.3c3.4,1.9,5.2,4.7,4.5,8.6c-0.7,3.6-2.9,6-6.7,6.5c-3.9,0.5-6.8-1.3-8.5-4.8c-0.6-1.2-0.8-2.6-1.4-3.7
		c-1-1.7-2.2-3.1-4.4-2.4c-2,0.7-2.7,2.4-2.6,4.4c0.2,3.6,1.6,6.8,3.9,9.5c4.3,5,13.7,6.4,19.8,2.9c5.7-3.2,10.1-11.9,7-17.5
		c-3.9-7.4-1.5-13.3,1.6-19.6c21-20.7,42.2-41.2,63.2-61.7c15.4-15,30.6-30.1,45.9-45.2c1.7-1.6,3.3-3.3,5.7-3.9
		c1.4-0.3,2.7-0.3,3.7,0.8c1,1.1,0.7,2.5,0.2,3.8c-0.5,1.3-1.4,2.3-2.3,3.2c-7.7,7.9-14.7,16.3-22.7,23.8
		c-11,10.2-20.5,21.8-31.3,32.2c-1.7,1.6-3.2,3.4-4.1,4c8.1-8.8,18.8-16.5,28.5-25.4c13-12,26-23.9,38.3-36.4c1.6-1.6,3.4-2.7,5.6-3
		c10,4.5,19.3,10.1,27.8,17.1c-3,0.5-4.9,2.6-6.9,4.6c-19,19-37.9,37.9-56.8,56.9c-3.5,3.5-8.4,5.6-10.1,10.8c-4.3,2.1-8.7,1-13,0.2
		c-2.9-2.2-0.9-4.1,0.6-5.8c3.3-3.7,6.8-7.1,8.9-8.8c-3.9,3.2-9,8.4-13.4,14.4c-0.7,0.5-1.5,0.6-2.4,0.7c-7.6,1-7.6,1-9.7,8.6
		c-0.5,1.7-0.9,3.6-3,4.3c-2.6,0.4-4.5,2-6.3,3.8c-17.2,17.2-34.3,34.3-51.5,51.5C360,310.5,358,311.5,359,313.8z"/>
	<path class="st13" d="M527,170c2.1,1.3,3.7,3,5.1,5c-7.4,3.9-13,10.1-19.6,15c-2.5,1.8-4.9,3.7-7.6,5.1
		C510.8,185.3,519.9,178.6,527,170z"/>
	<path class="st13" d="M417.9,260c-0.4,4-0.7,8-1.1,12c-1.1-2.6-2.6-2.4-4.6-0.8c-3.6,2.8-7.3,5.5-11.3,7.9
		C405.6,271.7,411.4,265.6,417.9,260z"/>
	<path class="st14" d="M331,439c1.2,3.2-1.7,4.4-3.3,6c-8.4,8.2-10,18.1-7.6,29c-3.8,0.9-6.2,4-8.7,6.4
		c-11.3,10.9-22.3,22.3-33.4,33.5c-2.2,1.5-3.7-0.3-5.3-1.3c-9.8-5.5-21.5-1-24,9.4c-0.3,1.3-0.5,2.6-0.2,4c0.3,1.8,1.3,3.1,3.2,3.3
		c1.7,0.2,2.8-0.9,3.5-2.3c0.6-1.2,0.6-2.6,1.2-3.8c1.7-3.4,4.4-5.5,8.4-4.9c2.6,0.3,4.9,1.4,4.1,4.8c-2,0.9-3.7,2.2-5.2,3.8
		c-0.9,1-1.9,1.9-2.8,2.8c-21.2,20.9-42,42.3-63.8,62.5c-19.2,17.9-37.6,36.7-57.9,53.3c-1.8,1.4-3.7,2.9-4.1,5.5
		c-15.7-2.9-29.5-10.1-42.1-19.6c-6.9-5.2-13.4-10.9-18.1-18.3c8.8-7.6,17.1-15.8,25.5-23.8c25.5-24.5,50.1-49.8,75.5-74.3
		c9.9-9.5,19.1-19.8,30.5-27.6c-31.5,34.8-66.2,66.6-95.9,103.3c5.4-4.3,11.1-8.3,16.2-12.9c11.6-10.3,22.9-20.7,34.3-31.2
		c19.9-18.2,39-37.3,58.4-56c5.2-5,9.8-10.9,16.4-14.4c9.2,20.8,31.5,23.5,44.8,14.7c7.4-4.9,12.3-11.4,13.5-20.5
		c0.1-0.8,0.6-1.5,0.9-2.2c2.6-5.5,7.9-8.5,12.1-12.4c5.6-5.2,11-10.5,17-15.3C326.2,438.6,328.2,436.6,331,439z"/>
	<path class="st15" d="M380.2,467c0.2-9.3-3.2-17.2-10.1-23.4c-1.7-1.5-2.2-3.1-2.1-5.2c0.1-4,0.2-8,0-11.9c-0.2-3.1,0.6-4.4,4-4.3
		c13.4,0.2,26.9,0.2,40.3,0c3.4,0,4.9,0.8,4.5,4.4c-0.6,5,1,10.2-0.8,15.1c-0.4-2.2,1.2-5.4-1-6.4c-2.3-1-3.8,2.1-5.4,3.6
		C399.8,448.2,390,457.6,380.2,467z"/>
	<path class="st14" d="M269.9,527c0.4,3.4-1.6,5.7-3.8,7.7c-3.1,2.8-6.4,5.3-9.7,7.8c-6.6,5.3-10.5,11.9-10.6,20.5
		c-6.9-0.6-9.9,5.5-14.6,8.5c-2.4,1.5-4.4,3.4-7,4.8c1.5-4.6,5.4-7.6,8.3-10.9c10.8-12.1,22.2-23.8,33.3-35.6
		C266.9,528.5,268.1,527.2,269.9,527z"/>
	<path class="st7" d="M352.9,519.9c0.4-1.6,0.8-3.3,1.3-4.9c5.7-3.5,10.1-8.5,15.1-12.9c6.7-5.9,13-12.2,20-17.9
		c-3.1,4.5-6.9,8.4-10.5,12.4c-6.9,7.6-14.4,14.7-21.7,21.9C355.9,519.5,355,521.5,352.9,519.9z"/>
	<path class="st7" d="M355,543.7c-1.5,0.1-2.9,0.1-4.4,0.4c-4.8,0.7-5.4-1.3-3.4-5.1c2.4-1.1,4.1-5.2,6.7-3.9c2.5,1.2,0.7,5,1.1,7.7
		C355,543.1,355,543.4,355,543.7z"/>
	<path class="st15" d="M404.8,460c0,3.3,0,6.6,0,9.9C403.6,466.6,403.6,463.3,404.8,460z"/>
	<path class="st0" d="M154.1,359.9c5.9,4.1,7.2,9.7,6.9,16.7c-0.6,13.8-0.2,27.5-0.2,41.3c-1.1-1.8-0.8-3.9-0.8-5.8
		c0-12.5,0-25,0-37.4c0-1.3,0.5-2.9-0.8-3.7c-1.5-0.9-2.3,0.8-3.2,1.6c-11.9,10.9-23.7,21.9-35.7,32.6c-7.6,6.8-15.2,13.8-24.1,19.1
		c2.6-5.4,6.9-9.5,10.9-13.7c13.5-14.2,27.3-28.1,41-42.2C150.5,365.9,152.9,363.3,154.1,359.9z"/>
	<path class="st3" d="M169,423.2c0.7,2.6-1.2,3.4-2.2,4.5c-24.2,24.6-48.6,48.9-72.5,73.7c-10.8,11.3-21.8,22.4-32.8,33.5
		c-1.5,1.5-3.4,4.8-5.5,2.7c-1.9-1.9,1-4.1,2.6-5.6c22.1-22.2,43.8-44.8,66.6-66.3c13.6-12.8,25.9-26.9,40.3-38.7
		C166.7,425.9,166.7,423.8,169,423.2z"/>
	<path class="st10" d="M465.2,470c0-3.3,0-6.6,0-9.9C466.5,463.3,466.4,466.6,465.2,470z"/>
	<path class="st2" d="M454,441.8c-1.2-0.8-0.8-2.1-0.8-3.2c0-23.1,0-46.3,0-69.4c0-1.1-0.3-2.4,0.8-3.2c0.1,10,0.1,20,0.2,30
		c1.1,1.3,0.7,2.6,0,3.9c0,4.4,0,8.7,0,13.1C454.1,422.6,454.1,432.2,454,441.8z"/>
	<path class="st10" d="M454.1,399.9c0-1.3,0-2.6,0-3.9c4.6-1.3,7.2-5.4,11.2-7.8C461.9,392.4,458.7,396.8,454.1,399.9z"/>
	<path class="st13" d="M497,150.9c-7.5,8.3-15.3,16.2-23.7,23.6c-6.8,6.1-13.3,12.6-20.1,18.7c-10.9,9.9-22.4,19.2-34.8,27.4
		c4.3-4.8,8.6-9.7,13-14.5c12.5-13.9,26-26.8,39-40.1c4.9-5,9.4-10.5,14.2-15.9c-2.3-1.4-3.5-0.2-4.6,0.6c-1.1,0.7-2,1.8-2.9,2.7
		c-26.8,26.4-53.3,53.2-80.5,79.1c-9.4,8.9-17.8,18.9-28.5,26.4c-1.9-0.5-2.2-2.3-2.7-3.9c-1.5-5.1-4.2-9.3-8.9-11.9
		c-1.4-0.8-2.3-1.8-2.5-3.4c-2.2-1.5-1.5-2.9,0.1-4.4c13.7-13.1,26.7-27,40.6-39.9c14.6-13.6,28.4-28.1,42.5-42.2
		c1.8-1.8,3.6-3.9,6.5-4c0.7,2.3-1,3.2-2,4.4c-10.5,11.9-21.8,22.9-33,34c-15.5,15.5-30.4,31.6-45.3,48.7c4.9-1,7.2-4.6,10.3-7
		c9.5-7.5,18.6-15.5,27.4-23.9c15.9-15.2,31.9-30.2,47.6-45.5c3.9-3.8,8-7.4,12.1-11.2c1.3-1.2,2.9-2.2,4.5-3.2c1.2-0.7,2.6-1,3.8,0
		c1.4,1.2,0.3,2.4-0.1,3.6c-0.3,0.9-0.7,1.8-1.4,3.4c4.7-1.9,7.3-5.5,10.7-7.8C484.8,145.8,491.1,147.8,497,150.9z"/>
	<path class="st16" d="M233.9,336c0.5,5.1-0.8,10.3,1.2,15.3c1.2,3.1,2.2,6.6,4.8,8.6c6.4,5,6.7,11.6,6.1,18.7
		c-0.2,2.1-0.2,4.3-0.3,6.5c-14.1,0-28.2-0.1-42.3,0.1c-4.1,0.1-5.1-1.4-5.6-5.4c-1.2-9.3,2.9-14.9,9.9-20.4
		c7.5-5.9,14.1-13,21.1-19.6C230.3,338.3,231.6,336.4,233.9,336z"/>
	<path class="st17" d="M563,506c-2.1,0.3-3.7,1.4-5.3,2.7c-7.2,5.9-14.3,11.9-21.7,17.6c-4.1,3.2-7.8,7.1-12.9,8.9
		c3.3-4.3,6.8-8.3,10.3-12.2c3.6-3.9,7.2-7.8,10.8-11.8c3.3-3.7,7.8-6.6,9.4-11.8c-44.7,40.2-85.4,84.7-134.4,120
		c11.7-15,25.7-27.9,37.7-42.6c-9.2,5.6-16.2,13.7-23.9,20.9c-16.6,15.4-32.5,31.6-48.7,47.4c-2.7,2.6-4.9,5.4-6.3,8.9
		c29.3,0,58.7,0,88,0c15.2-0.5,29.6-3.8,42.7-11.8c29.3-17.8,49.6-41.9,53.5-77.4c0.3-2.3-0.4-4.7,0.8-6.8
		C563,540.7,563,523.3,563,506z"/>
	<path class="st13" d="M268,312.8c-3.3,0-6.7,0.1-10,0.1c0.3-0.8,0.4-1.7,1-2.2c9.8-9.8,19.6-19.5,29.4-29.3c1.6-1.6,3.6-3,5.2-4.6
		c11.9-11.9,23.8-23.8,35.7-35.7c28.4-28.1,56.8-56.2,85.3-84.3c1.3-1.2,2.3-2.9,4.8-3c-0.3,2.1-1.9,3-3.1,4.2
		c-27.2,28.6-55.7,56-83.1,84.4c-13.6,14.1-27.7,27.8-41.3,42.1c-7.6,7.9-14.8,16.2-22.3,24.2C268.6,310,268,311.2,268,312.8z"/>
	<path class="st16" d="M257.9,294c0.1,0.9,0.1,1.8,0.2,2.7c-1.8,3-4.6,5.2-7.1,7.7c-11.8,12.2-23.6,24.3-35.4,36.4
		c-1.9,1.9-3.8,3.8-6.6,4.2c0-1.7,0-3.3,0-5c2.3-1,4.1-2.8,5.9-4.5c12.6-12.6,25.1-25.2,37.7-37.7
		C254.3,296.2,255.6,294.3,257.9,294z"/>
	<path class="st5" d="M331.9,546c-0.4,2.7-1.2,5.3,0.3,7.9c-4.3,0.2-6.4,3.9-9.5,5.9c-2.6,1.7-5,3.7-7.9,5.1
		C320.5,558.6,325,551.2,331.9,546z"/>
	<path class="st18" d="M429.1,417c-0.5-5.1-3.5-7-8.5-7c-19,0.1-37.9,0-56.9,0.1c-5.9,0-7.8,1.9-7.9,7.7c-0.1,8.2,0.1,16.3-0.1,24.5
		c-0.1,3.3,1.1,5.6,3.9,7.5c7.4,5.2,10,12.9,7.3,20.9c-2.5,7.6-9.3,12.5-17.4,12.4c-7.8,0-14.7-4.8-17.2-12.1
		c-2.7-7.9-0.2-15.9,7-21.1c3.1-2.2,4.3-4.7,4.3-8.4c-0.1-7.8,0-15.6-0.1-23.5c-0.1-6.1-2.1-8-8.2-8.1c-11.8-0.1-23.6-0.1-35.4-0.2
		c-2.2-5.3,3-6.6,5.2-9.4c0.9-1.1,2.7-1.3,3.8-2.3c8.5-0.1,16.9-0.1,25.4-0.2c7.5-0.1,9.1-1.6,9.2-9c0-1.7,0.2-3.3,0.3-5
		c2-2.6,3.4-5.7,6.3-7.7c1.3-0.9,2.7-1.5,4.2-0.8c1.5,0.7,1.1,2.2,1.2,3.5c0.2,4.6-0.3,9.3,0.2,13.9c1.4,3.9,4.2,5.1,8.2,5.1
		c19-0.1,38,0,57-0.1c5.9,0,8-2.2,8-8.2c0-7.3-0.2-14.7,0.1-22c0.2-4.6-1.2-7.7-5.1-10.5c-6.6-4.6-8.8-13.1-6-20.5
		c2.7-7.4,9.3-11.9,17.3-11.9c8.1,0,14.7,4.9,17.3,12.6c2.5,7.4,0,15.6-6.9,20.3c-3.5,2.4-4.6,5.2-4.5,9.2c0.1,14-0.1,28-0.1,42
		c-1.9,2.3-3.6,4.7-6,6.6C433.2,417,431.5,418.3,429.1,417z"/>
	<path class="st19" d="M309,398.2c-0.8,3.2-3.8,4.7-5.7,7c-1.2,1.5-3,2.6-3.3,4.7c-6.6,0.1-13.3,0.2-19.9,0.2c-7.9,0-9.1,1-10,8.9
		c-1.9,2.7-3.6,5.5-6.5,7.4c-1.9,1.3-2.3,3.5-2.3,5.7c-0.1,2.8,0.1,5.6-0.2,8.4c-0.2,1.9-0.1,4.1-2.9,4.4c0-8.7-0.1-17.3-0.1-26
		c-0.1-7.4-1.7-8.9-9.2-8.9c-23.3-0.1-46.6-0.1-69.9-0.2c-1.2-1.3-1-2.9,0-4c2.8-3.3,5.2-7.2,10.1-8c20.6,0,41.3,0.1,61.9,0.1
		c4.8,0,7.1-2.3,7.1-7c0.1-8.7-0.1-17.3,0.1-26c0.1-3.6-2-5.2-4.5-7.1c-11.5-8.8-9.7-25.9,3.3-31.5c8.2-3.6,18.1-0.5,22.8,7
		c4.9,7.8,3.5,18.4-4,23.8c-4.4,3.2-5.7,6.8-5.5,11.8c0.3,7.2,0,14.3,0.1,21.5c0.1,5.5,2.2,7.5,7.6,7.6
		C288.4,398.1,298.7,398.1,309,398.2z"/>
	<path class="st20" d="M429.1,417c2.8-1.2,4.8-3.3,6.8-5.4c1.4-1.4,2.8-2.7,5-2.6c0.1,10.5,0.3,21,0.1,31.4c-0.1,4.4,1.2,7.4,4.9,10
		c6.8,4.8,9,13.3,6.2,20.9c-2.8,7.5-9.6,12-17.8,11.8c-7.7-0.2-14.4-5.3-16.7-12.7c-2.3-7.4,0-15.5,6.5-20c3.8-2.6,5-5.7,4.9-10
		C428.8,432.6,429.1,424.8,429.1,417z"/>
	<path class="st21" d="M331,439c-6.2,1.5-9.5,6.9-14,10.6c-7.4,6.1-13.7,13.5-22.1,18.4c0.2-9.9-3.2-18.2-10.6-24.8
		c-1.8-1.6-1.8-3.4-1.7-5.4c0.2-5-2.1-11.3,0.8-14.5c3-3.2,9.4-1,14.4-1c9.8-0.1,19.6,0.1,29.4-0.1c3,0,4.2,0.7,4,3.9
		C331.1,430.4,331.1,434.7,331,439z"/>
	<path class="st9" d="M173.1,396c-0.1-9.6-0.3-19.3-0.1-28.9c0.1-4-1.1-6.8-4.5-9.2c-7-4.9-9.4-13-6.8-20.7
		c2.7-7.7,9.3-12.3,17.5-12.3c7.8,0,14.4,4.8,17,12.2c2.6,7.6,0.2,15.8-6.8,20.7c-3.5,2.4-4.6,5.2-4.5,9.2
		c0.2,6.6-0.1,13.3-0.1,19.9c-1.6,2.8-3.5,5.5-6,7.6C177.1,396,175.5,397.3,173.1,396z"/>
	<path class="st22" d="M258.3,445c1.4-3,1.1-6.3,0.6-9.2c-1.5-9.3,4.4-13.2,11.2-16.7c0.1,7.6,0.3,15.3,0.3,22.9
		c0,3.5,1.2,5.9,4.1,7.9c7.2,5.1,9.8,13.2,7.2,21.1c-2.4,7.3-9.3,12.1-17.1,12.2c-8.2,0.1-14.9-4.7-17.5-12.3
		c-2.7-7.9-0.1-15.7,7.2-21C256,448.5,257.6,447.2,258.3,445z"/>
	<path class="st23" d="M355.7,393c-1.5-3.9-0.4-7.9-0.8-11.8c-0.1-1.4,0.7-3.4-0.9-4.1c-1.9-0.9-2.7,1.4-3.9,2.3
		c-2,1.6-3.3,4.2-6.3,4.7c-0.5-5-0.5-10,0-15c3.4-3.4,6.9-6.7,10-9.4c-1.9,1.9-4.6,3.9-6.9,6.3c-0.9,1-2,1-3.1,0
		c-0.2-3.7-2.1-6.2-5.2-8.5c-8.8-6.3-9.8-18.8-2.6-26.8c7-7.7,19.4-7.9,26.7-0.4c7.5,7.7,6.9,20.3-1.9,26.8c-4,3-5.4,6.1-5.2,10.9
		C356,376.3,355.8,384.6,355.7,393z"/>
	<path class="st9" d="M189.1,397.8c-2.6,4.6-8.1,6.9-10.1,12c-6.4,0.3-6.3,1.9-5.9-7.9c1.7-3.1,3.8-5.8,6.5-8.1
		c1.6-1.3,3.2-2.6,5.3-0.9C185.8,395,187.2,396.6,189.1,397.8z"/>
	<path class="st19" d="M184.9,393c-3.3,0.8-4.8,3.7-7.1,5.7c-1.5,1.3-2.6,3-4.7,3.3c0-2,0-4,0-6c4.9-1.8,6.8-7.3,11.7-9
		C184.9,389,184.9,391,184.9,393z"/>
	<path class="st18" d="M343.9,366c6-2.7,10-8.2,15.5-11.7c-5,5.1-8.8,11.4-15.5,14.7C343.9,368,343.9,367,343.9,366z"/>
	<path class="st2" d="M339.1,314.2c2.5-5.4,8.6-7.5,11.6-12.6c-0.6,5.2-6.5,6.6-7.6,11.4C341.7,313.4,340.4,313.8,339.1,314.2z"/>
	<path class="st24" d="M172.9,257.6c0.3-2.8-1.4-6.6,4.2-6.2c5.3,0.4,7.9,2.1,7.9,6.2c0,4.1-2.7,6.1-8,6.1
		C172.9,263.8,172.9,263.8,172.9,257.6z"/>
	<path class="st2" d="M437,239c-1,0-2,0-3,0c1.9-5,6.5-7.7,10-11.4c2.3-2.5,5.3-4.4,8.2-6.4C447.9,227.8,440.8,232.1,437,239z"/>
	<path class="st25" d="M441,551.2c-0.4,2.9-2.4,5.1-6.1,5c-3.7-0.1-5.8-2.2-5.9-6c-0.1-3.5,2.9-6.3,6.4-6.1
		C438.7,544.4,441.1,547.2,441,551.2z"/>
</g>
</svg>
