<?xml version="1.0" encoding="utf-8"?>
<!-- Generator: Adobe Illustrator 19.0.0, SVG Export Plug-In . SVG Version: 6.00 Build 0)  -->
<svg version="1.1" id="Calque_1" xmlns="http://www.w3.org/2000/svg" xmlns:xlink="http://www.w3.org/1999/xlink" x="0px" y="0px"
	 viewBox="0 0 612 792" style="enable-background:new 0 0 612 792;" xml:space="preserve">
<style type="text/css">
	.st0{fill:#2F4255;}
	.st1{fill:#35495D;}
	.st2{fill:#BCC2C6;}
	.st3{fill:#AEB7B9;}
	.st4{fill:#EEC319;}
	.st5{fill:#EFB51B;}
	.st6{fill:#DADDDF;}
	.st7{fill:#D9DCDE;}
	.st8{fill:#02AFB1;}
	.st9{fill:#01B0B2;}
	.st10{fill:#01AFB2;}
	.st11{fill:#07A9A3;}
	.st12{fill:#4FB96F;}
	.st13{fill:#4FB86E;}
</style>
<g>
	<path class="st0" d="M150,659c-4.1-2.8-5.1-6.6-5.1-11.5c0.1-140.9,0.1-281.8,0.1-422.8c0-9.6,2.1-11.7,11.8-11.7
		c29.6,0,59.3,0,88.9-0.1c3.5,4.7,1.3,10.1,1.7,15.1c0.3,9.1,0.1,18.3,0.1,27.4c0,2,0,4-1.3,5.7c-2.3,1.7-5.1,1.4-7.7,1.4
		c-16.5,0-33,0-49.5,0c-9.9,0-11.4,1.5-11.4,11.2c0,115.8,0,231.5,0,347.3c0,9.8,1.4,11.3,11.3,11.3c43.5,0,86.9,0,130.4,0
		c3,0,6-0.5,8.8,1.3c2.9,5.9,1,12.2,1.5,18.3c0.2,2.4,0.2,5-1.6,7C268.7,659,209.3,659,150,659z"/>
	<path class="st1" d="M328,659c0-8.3,0-16.6,0-24.8c2.4-2.5,5.6-1.8,8.5-1.8c45.3-0.1,90.6,0,135.9,0c13.8,0,15-1.1,15-15.2
		c0-113.1,0-226.2,0-339.3c0-14.5-0.8-15.3-15.2-15.3c-15.8,0-31.6,0-47.5,0c-2.6,0-5.4,0.3-7.8-1.3c-1.4-1.6-1.5-3.6-1.5-5.6
		c0-8.5-0.2-17.1,0.1-25.6c-0.2-3.9-0.2-7.9-0.1-11.8c0.1-1.9-0.1-4,1.9-5.3c30.5,0,61,0,91.5,0c8,0,10.5,2.5,10.5,10.4
		c0,132.4,0,264.9,0,397.3c0,9.3-0.2,18.7,0.1,28c0.1,4.6-1.3,8-5.3,10.3C452,659,390,659,328,659z"/>
	<path class="st2" d="M337,147c5.6,2.3,11.5,4.3,15.5,9.2c8.2,10.1,9.7,21,3.6,32.7c-2.9,2.4-6.1,1.5-9.2,0.9
		c-2.5-2.1-0.4-3.9,0.4-5.6c4.6-9.3,2.5-18.1-5.9-24.2c-2.2-1.6-4.7-2.3-7.4-2.6c-1.8-0.2-3.7,0.1-5.2-1.3c0.5-3.1,0.4-6.3,2.2-9.1
		C333,147,335,147,337,147z"/>
	<path class="st3" d="M331,147c-0.5,3,1.4,6.5-2,8.8c-0.9,1.6-2.7,1.8-4.2,2.5c-9.7,4.3-13.7,14.9-9.6,24.6c0.9,2.1,4,4.3,0.9,7
		c-3.2,0.5-6.4,1.4-9.3-1c-8.5-16-1.7-35.7,19.2-41.9C327.7,147,329.3,147,331,147z"/>
	<path class="st4" d="M417.3,213c-0.1,5.7-0.3,11.3-0.4,17c-1,1-2.3,1.4-3.7,1.3c-14.8-0.5-29.5,0-44.3-0.1
		c-8.8-0.1-17.6-0.1-26.4,0.1c-10.8,0.2-21.6,0.3-32.4-0.1c-8-0.3-16-0.2-23.9,0c-10.3,0.3-20.6-0.7-30.9,0.2
		c-3.5,0.3-7-0.2-9.4-3.4c-0.1-5-0.3-10-0.4-15c0.1-6.2,0.1-12.4,0.2-18.6c0-1.5-0.9-3.3,1.1-4.4c1.6-0.9,3.3-0.5,4.9-0.5
		c13.6,0,27.3-0.2,40.9,0c11.8,0.2,23.6-1.2,35.3-0.8c28.3,0.8,56.5,0.7,84.7,0.8c1,0,2-0.2,2.9,0.5c2.1,1.2,1.2,3.2,1.3,4.8
		C417.2,200.9,417.3,207,417.3,213z"/>
	<path class="st4" d="M415.8,190.1c-56.3,0-112.5,0-168.8,0c1.5-1.5,3.4-0.9,5.2-0.9c18.2-0.1,36.4-0.2,54.5-0.2c3.5,0,7,0,10.4,0
		c1.1-1.1,2.6-1.3,4.1-1.4c6.8-0.2,13.5-0.2,20.3,0c1.5,0,3,0.2,4.1,1.4c3.4,0,6.9,0,10.3,0c18.2,0.1,36.4,0.1,54.6,0.2
		C412.4,189.2,414.3,188.4,415.8,190.1z"/>
	<path class="st5" d="M417.3,261c-0.6,9.7-0.6,9.8-10.5,9.8c-50.2,0-100.5,0-150.7,0c-9.8,0-9.8,0-10.4-9.8c0.1-11,0.3-22,0.4-33
		c6.3,2.8,12.9,2.6,19.5,1.2c3.3-0.7,6.1,1.2,9.3,0.8c10.8-1.5,21.8-0.5,32.6-0.5c10.6,0,21.4,0.1,32.1,0.1c9.3,0,18.8-0.1,28.1-0.1
		c10,0,20-0.7,30.1,0.2c6.3,0.6,12.8-0.6,19.2,0.2C417.1,240.3,417.2,250.7,417.3,261z"/>
	<path class="st6" d="M188,577.3c0-9.2,0-18.3,0-27.5c0-5.9,0.9-6.8,6.5-6.8c18.5,0,37,0.1,55.5,0c4.2,0,5.7,1.6,6.2,5.8
		c1.1,10.2,0.3,20.5,0.3,30.6c0,9.1,1.2,18.4-0.3,27.6c-0.5,3.2-1.7,4.9-5,4.9c-19.3,0-38.7,0-58,0c-3.9,0-5.2-2.1-5.2-5.7
		C188,596.6,188,587,188,577.3z"/>
	<path class="st7" d="M255.9,326.9c0.4,7.9-0.3,15.9,0.3,23.7c0.7,9.1-1.4,18.1,0.4,27.1c0.7,3.3-2.1,5.2-5.2,5.2
		c-19.3,0.1-38.6,0.1-57.9,0c-3.7,0-5.6-1.9-5.5-6c0.1-19,0.1-37.9,0-56.9c0-4.2,1.5-6.1,5.8-6.1c20.1,0.1,40.3,0.1,60.4,0.2
		c0.4,1.7-0.5,2.9-1.4,4.1c-10.2,12.9-20.1,26-30.4,38.9c-3.3,4.1-4,4.1-7.6,0c-3.9-4.5-7.8-9.1-11.7-13.6c-1.5-1.7-3.1-4.9-6-2.8
		c-3.1,2.2-0.7,4.7,0.8,6.9c5.4,7.6,10.8,15.1,16.3,22.7c3.2,4.4,5.2,4.6,8.4,0.2c9.1-12.5,18.1-25.1,27.2-37.6
		C251.4,330.5,252.3,327.2,255.9,326.9z"/>
	<path class="st7" d="M255.8,441.8c-0.4,7.9,1,15.7,0.4,23.7c-0.7,8.7,0.5,17.5-0.1,26.2c-0.2,3.7-1.1,5.4-5.1,5.3
		c-19-0.1-38-0.1-56.9,0c-4.6,0-6.1-2-6.1-6.3c0.1-18.6,0.1-37.3,0-55.9c0-4.3,1.9-5.8,6.1-5.8c20,0.1,40,0,59.9,0
		c0.7,2-0.8,3.1-1.8,4.4c-9.5,12.6-19.4,25-29,37.5c-3.7,4.8-5.4,4.7-9.2,0c-3.9-4.8-7.9-9.5-11.9-14.1c-1.5-1.8-3.2-3.3-5.5-1.4
		c-2,1.7-0.9,3.6,0.3,5.3c5.7,7.8,11.2,15.8,16.9,23.5c3.7,5.1,5.5,5,9.4-0.2c8.7-11.6,17-23.5,25.5-35.1
		C250.7,446.2,251.8,442.4,255.8,441.8z"/>
	<path class="st8" d="M376.9,470.8c-31.1,0-62.3,0-93.4,0c-2.2,0-5.4,1.1-6.2-1.6c-1-3.4-1.2-7.3,0.1-10.8c0.7-1.9,3.2-1.2,5-1.2
		c25.8,0,51.6-0.1,77.4-0.1c36.8,0,73.6,0,110.4,0.1c2.2,0,5.4-1.1,6.4,1.4c1.3,3.4,1.1,7.3,0.1,10.8c-0.7,2.3-3.5,1.4-5.3,1.4
		c-23.1,0-46.3,0-69.4,0C393.6,470.8,385.2,470.8,376.9,470.8z"/>
	<path class="st9" d="M477,577c0.6,8.2,0.6,8.2-7.2,8.2c-62,0-124.1,0-186.1,0c-7.2,0-7.2,0-6.7-7.2c1.7-2.2,4.2-2.5,6.8-2.5
		c17.5,0.4,34.9,0.1,52.4,0.2c15.3,0,30.6,0,45.9-0.1c11.1-0.1,22.3,0,33.4,0c8.5,0.1,17,0.2,25.4,0c10.5-0.2,21,0.2,31.4-0.1
		C474,575.5,475.7,575.8,477,577z"/>
	<path class="st10" d="M477,349c0.5,7.1,0.5,7.1-6.3,7.1c-62.4,0-124.9,0-187.3,0c-6.7,0-6.7,0-6.3-7.1c2.8-2.4,6.1-1,9.2-1.1
		c19.5-0.5,38.9-0.1,58.4-0.2c15.5-0.1,30.9-0.1,46.4-0.1c17.8,0,35.6-0.1,53.4,0.1c8.3,0.1,16.6,0.2,24.9-0.1
		C471.9,347.5,474.7,347.1,477,349z"/>
	<path class="st11" d="M477,349c-66.6,0-133.3,0-199.9,0c-1.2-4.9,0.7-6.3,5.6-6.3c63,0.1,126.1,0.1,189.1,0
		C477,342.7,477.9,344.8,477,349z"/>
	<path class="st11" d="M477,577c-13.2,0.7-26.4,0.4-39.6,0.4c-10.2,0-20.4,0.1-30.6-0.3c-13.5-0.6-27-0.1-40.5-0.1
		c-13.3,0-26.6,0-40,0c-13.8,0-27.6,0-41.5,0c-2.7,0-5.3,0.2-7.8,1c-1-4.4,0.4-6.2,5.3-6.2c63.3,0.2,126.5,0.1,189.8,0.1
		C476,571.9,478,572.8,477,577z"/>
	<path class="st12" d="M255.9,326.9c-9.4,12.9-18.9,25.8-28.3,38.6c-1.8,2.4-3.4,4.9-5.3,7.3c-2.3,3-5.2,3.4-7.5,0.3
		c-6.8-9.1-13.3-18.3-19.9-27.5c-1.9-2.6-1.1-4.7,1.1-6.5c2.5-2.1,4.3-0.5,5.9,1.3c4.9,5.7,9.9,11.3,14.6,17.1c1.6,2,2.4,2.2,4,0.1
		c11.1-14.5,22.4-29,33.5-43.5c2.3-1.4,4.7-1.9,6.6,0.5c1.8,2.2,0.6,4.2-0.8,6.2C258.6,322.8,257.3,324.9,255.9,326.9z"/>
	<path class="st13" d="M255.8,441.8c-10.3,12.6-19.2,26.3-28.9,39.3c-1.7,2.3-3.3,4.6-5.1,6.8c-2.1,2.6-4.7,2.7-6.7,0
		c-6.9-9.3-13.8-18.7-20.5-28.2c-1.6-2.3-0.6-4.6,1.6-6c2.3-1.5,4.4-0.7,6.1,1.4c4.4,5.4,9,10.6,13.4,16.1c2.1,2.6,3.4,3.4,5.8,0.1
		c10.7-14.2,21.6-28.2,32.5-42.3c2.3-1.4,4.7-2.1,6.7,0.3c2.1,2.5,0.5,4.6-1,6.7C258.3,437.8,257.1,439.8,255.8,441.8z"/>
</g>
</svg>
