<?xml version="1.0" encoding="utf-8"?>
<!-- Generator: Adobe Illustrator 19.0.0, SVG Export Plug-In . SVG Version: 6.00 Build 0)  -->
<svg version="1.1" id="Calque_1" xmlns="http://www.w3.org/2000/svg" xmlns:xlink="http://www.w3.org/1999/xlink" x="0px" y="0px"
	 viewBox="0 0 612 792" style="enable-background:new 0 0 612 792;" xml:space="preserve">
<g>
	<path d="M63.8,498.2c-10.4-36.5-20.7-72.6-31.1-109.1c1.9-0.6,3.4-1.2,4.9-1.6C89,373,140.4,358.5,191.7,343.8
		c15.4-4.4,29.5-2.9,43.6,5.1c45,25.6,90.3,50.7,135.6,75.7c10.2,5.6,15.8,13.5,15.1,25.4c-0.8,12.4-6.8,21.5-18.2,26.5
		c-9.4,4.1-18.7,3.8-27.8-1.3c-19.1-10.8-38.3-21.5-57.9-32.5c-1.9,3.1-3.6,6.1-5.5,9.3c1.1,0.8,2,1.5,2.9,2.1
		c18.5,10.3,36.8,20.8,55.4,30.8c25.5,13.7,55.7-0.1,61.4-28.3c1.2-5.7,0.2-11.9,0.2-18.4c1.5-0.5,3.3-1.3,5.2-1.8
		c30.7-8.7,61.5-17.4,92.2-26.1c15.5-4.4,28.2-0.9,36.3,10.1c8.5,11.5,8.9,28,1,40.5c-4.3,6.7-10.1,11.3-17.9,13.5
		c-67.7,19.1-135.4,38.4-203.1,57.5c-19.3,5.5-37.4,3.9-54.9-7.5c-27.9-18.1-56.7-35-85-52.5c-3.3-2-6-2.3-9.7-1.2
		c-31.1,9.1-62.4,17.9-93.5,26.8C66.2,497.7,65.4,497.8,63.8,498.2z"/>
	<path d="M500.2,251.1c2.1,7.8,4.9,15.3,6,23.2c2.7,20.2-4.5,36.5-21.5,48.3c-1,0.7-1.8,2.3-1.9,3.5c-0.3,3.3,0,6.7-0.2,10
		c-0.3,6.1-3.8,9.5-9.8,9.8c-3.7,0.2-7.3,0.1-11,0c-6.3-0.2-9.8-3.8-9.9-10.1c-0.1-3.6,0-7.3,0-11.2c-36.3,0-72.2,0-109,0
		c0,3.5,0.1,7.1,0,10.7c-0.1,6.9-3.6,10.4-10.5,10.6c-3.3,0.1-6.7,0.1-10,0c-6.6-0.2-10.2-3.7-10.4-10.2c0-0.7-0.1-1.3,0-2
		c0.8-6.3-0.7-10.4-6.7-14.5c-15.1-10.2-20.7-32.1-14.9-52.4c1.5-5.1,3.6-10,5.6-15.4c-2.2-0.4-4.4-0.6-6.6-1.1
		c-9.3-2.3-13.4-14.2-7.2-21.5c1.3-1.6,4.3-2.4,6.5-2.4c4.1,0,8.3,0.6,12.4,1.3c3.2,0.6,4.7-0.3,6-3.3c5.4-13.1,11.2-26,16.6-39
		c3.8-9.2,10.9-14,20.5-14.1c35.2-0.3,70.3-0.3,105.5,0c9.8,0.1,17,4.9,20.9,14.3c5.3,12.9,11.1,25.7,16.4,38.6
		c1.4,3.3,3.1,4.1,6.4,3.5c4.3-0.8,8.6-1.5,12.9-1.3c2.4,0.1,5.9,1.6,6.8,3.5c4.1,8.4,3.2,17.8-9,20.7
		C502.6,250.9,501.1,251,500.2,251.1z M473,231.9c-0.6-1.7-1.1-3.1-1.6-4.4c-4.9-11.7-10-23.2-14.6-35c-1.9-4.8-4.9-6.5-9.9-6.5
		c-33.1,0.1-66.3,0.1-99.4,0c-5,0-8.1,1.8-10.1,6.4c-5.1,12.3-10.5,24.4-15.8,36.7c-0.4,0.8-0.4,1.8-0.6,2.8
		C371.8,231.9,422.2,231.9,473,231.9z M475.4,272.8c-0.1-7.9-6-13.8-13.6-13.6c-7.4,0.2-13.1,6.2-12.9,13.7
		c0.2,7.2,5.9,12.9,13.1,13C469.6,285.9,475.5,280.2,475.4,272.8z M330.6,285.9c7.1-0.1,13.3-6.4,13.3-13.5
		c-0.1-7.2-6.3-13.3-13.5-13.2c-7.3,0.1-13.3,6.1-13.2,13.4C317.2,279.9,323.4,286,330.6,285.9z"/>
</g>
</svg>
