<?xml version="1.0" encoding="utf-8"?>
<!-- Generator: Adobe Illustrator 19.0.0, SVG Export Plug-In . SVG Version: 6.00 Build 0)  -->
<svg version="1.1" id="Calque_1" xmlns="http://www.w3.org/2000/svg" xmlns:xlink="http://www.w3.org/1999/xlink" x="0px" y="0px"
	 viewBox="0 0 612 792" style="enable-background:new 0 0 612 792;" xml:space="preserve">
<style type="text/css">
	.st0{fill:#E54C3C;}
</style>
<path class="st0" d="M299,161c-132.5,0-240,107.5-240,239.9c0,132.4,107.7,240,240.1,239.9c132.2-0.1,239.6-107.6,239.8-239.7
	C539,268.6,431.5,161,299,161z M308.8,268.7c37.5,4.1,69.8,34.1,76,70.9c1,5.9,0.9,6.1-5.3,6.1c-11.5,0-23,0-34.5,0
	c-11.8,0-23.7-0.1-35.5,0.1c-3.3,0-4.7-0.6-4.6-4.3c0.2-23.2,0.1-46.3,0-69.5C304.9,268.9,305.6,268.3,308.8,268.7z M213.2,339.7
	c5.6-27.4,20.7-47.9,45.2-61.4c9.9-5.4,20.5-8.5,31.8-9.7c2.3-0.2,2.9,0.3,2.9,2.5c0,23.8-0.1,47.6,0,71.5c0,3.4-1.8,3.3-4.1,3.3
	c-12.2,0-24.3,0-36.5,0c-11.5,0-23,0-34.5,0C212.4,345.7,212,345.5,213.2,339.7z M386.1,447.7c-0.3,47.4-40.5,86.5-87.9,85.7
	c-48.3-0.8-86-38.8-86.4-87.1c-0.2-27.8,0.1-55.6-0.1-83.4c0-4.3,1.3-5.2,5.4-5.2c27.3,0.2,54.6,0.1,81.9,0.1
	c27.5,0,55,0.1,82.4-0.1c3.7,0,4.8,0.8,4.8,4.7C386,390.7,386.3,419.2,386.1,447.7z"/>
</svg>
