<?xml version="1.0" encoding="utf-8"?>
<!-- Generator: Adobe Illustrator 19.0.0, SVG Export Plug-In . SVG Version: 6.00 Build 0)  -->
<svg version="1.1" id="Calque_1" xmlns="http://www.w3.org/2000/svg" xmlns:xlink="http://www.w3.org/1999/xlink" x="0px" y="0px"
	 viewBox="0 0 612 792" style="enable-background:new 0 0 612 792;" xml:space="preserve">
<g>
	<path d="M338.7,429.3c0,18.1,0,36.2,0,54.7c-25.7,0-50.9,0-76.1,0c-0.5-28.6-3.3-57.1,1.4-85.3c3.6-21.3,15.5-30.8,37-31.9
		c17.8-0.9,32.2,5.3,43.7,18.7c5.2,6.1,10.3,12.3,14.8,18.8c7.7,10.9,18.3,15.5,31.2,15.7c6.3,0.1,12.7-0.1,19,0.4
		c8.1,0.6,13.5,5.7,14.3,12.9c0.9,7.8-3.1,14.1-10.2,16.3c-0.6,0.2-1.3,0.5-1.9,0.5c-16.1,0.2-32.4,1.4-48.2-3
		c-4.9-1.4-9.5-4.7-13.6-7.9c-3.7-2.9-6.7-6.9-10-10.4C339.8,428.8,339.2,429.1,338.7,429.3z"/>
	<path d="M437.9,467.2c2.4-13.8,4.8-27.2,7.1-40.6c2.3-13.1,4.7-26.2,6.9-39.3c0.7-4,2.4-5.6,6.5-4.5c0.8,0.2,1.7,0.2,2.5,0.3
		c6.5,1,7.7,2.5,6.6,9c-2.9,17.2-5.9,34.4-9,51.6c-1.9,10.8-4,21.6-6.3,32.3c-1.5,7-3.1,8.2-10.3,8.2c-23.7,0.1-47.3,0-71,0.1
		c-4.8,0-6.7-2-6.3-6.6c0.1-1,0-2,0-3c0.1-6.6,0.8-7.4,7.6-7.4c20-0.1,40,0,60,0C433.9,467.2,435.7,467.2,437.9,467.2z"/>
	<path d="M304.7,352.2c-15.3-0.1-27.6-12.5-27.6-27.7c0-15.5,12.5-27.8,28.1-27.7c15.3,0.1,27.6,12.4,27.6,27.7
		C332.9,339.8,320.2,352.3,304.7,352.2z"/>
</g>
</svg>
