<?xml version="1.0" encoding="utf-8"?>
<!-- Generator: Adobe Illustrator 19.0.0, SVG Export Plug-In . SVG Version: 6.00 Build 0)  -->
<svg version="1.1" id="Calque_1" xmlns="http://www.w3.org/2000/svg" xmlns:xlink="http://www.w3.org/1999/xlink" x="0px" y="0px"
	 viewBox="0 0 612 792" style="enable-background:new 0 0 612 792;" xml:space="preserve">
<style type="text/css">
	.st0{fill:#3EA560;}
	.st1{fill:#5FBB6E;}
	.st2{fill:#465475;}
	.st3{fill:#28324E;}
	.st4{fill:#3E8CB7;}
	.st5{fill:#54A9CF;}
</style>
<g>
	<path class="st0" d="M471.8,373.9c21.7,18.1,36.6,40.7,44.2,68c3.9,4.8,2.6,10.7,3.4,16.2c0.4,2.6-0.6,5.3,0.5,7.8
		c0,6.3,0,12.7,0,19c-2,10.2-3.2,20.6-7,30.5c-19.1,49.5-54.7,78.4-107.5,85.7c-4.5,0.6-8.9,1.1-13.4,0.7c-1.5-1.4-1.6-3.3-1.6-5.1
		c0-20.3-0.3-40.6,0.2-60.8c0-0.5,0.1-1.1,0.2-1.6c0.7-2.5,2.8-4.1,4.6-5.8c27.2-27.2,54.4-54.4,81.6-81.6c4.4-4.4,4.4-4.5,0-8.7
		c-3.5-3.3-6.9-6.7-10.5-10c-3.4-3-5.4-2.3-8.2,0.6c-12.1,12.4-24.4,24.5-36.7,36.8c-8.1,8.1-16.2,16.3-24.4,24.3
		c-1.6,1.6-3.4,4.3-6,0.9c-0.9-2.6-0.7-5.3-0.7-7.9c0-42.8,0-85.5,0-128.3c0-2.6-0.2-5.3,0.7-7.9c2.1-3.1,5.3-2.3,8.2-2.1
		c13.8,1,27.2,3.6,40,9c9.3,3.9,18.3,8.6,26.6,14.5C468.1,369.8,470.7,371.2,471.8,373.9z"/>
	<path class="st1" d="M391.8,533.8c0.1,22.7,0.1,45.4,0.2,68.1c-29.6,0.1-55.9-9.2-79-27.4c-22.6-17.7-37.3-40.8-45-68.4
		c-3.9-4.7-2.9-10.6-4.2-16c-0.4-1.7-0.2-3.6-0.8-5.4c-0.6-3.5-0.4-7-0.4-10.5c-0.5-10.8,0.7-21.4,3.8-31.8
		c5.1-17.4,12.5-33.8,24-48c22.7-27.9,51.6-44.7,87.6-48.7c3-0.3,5.9-1.1,8.9-0.9c1.8,0.1,3.7-0.3,5.1,1.4c0,46.7,0,93.5,0,140.2
		c0,1.9-0.8,4,0.9,5.7c0.6,1,0,1.8-0.6,2.6c-6.6,6.8-13.3,13.5-20.1,20.2c-3.8,3.7-4.9,3.8-8.6,0c-12.8-12.7-25.4-25.4-38.2-38.1
		c-4-4-4-4-8.2,0.1c-4,4-7.8,8.2-12.1,11.9c-2.9,2.6-1.4,3.9,0.5,5.9c19.2,19.7,39.7,37.9,58.7,57.7c2.5,2.6,4.4,2.7,7,0
		c5.3-5.6,10.8-10.9,16.2-16.3C388.8,535,389.9,533.6,391.8,533.8z"/>
	<path class="st2" d="M87.9,441.9c-10.7,0-21.3,0.1-32,0.1c0-72.5,0-145,0-217.4c0-5-0.2-10,1.1-14.9c3.4-13,15.5-23.5,29-23.5
		c59.3-0.2,118.6,0,177.9,0c0.6,0.6,1.1,1.3,1.2,2.1c0.4,9.7,1.1,19.5-0.4,29.2c-0.3,0.6-0.8,1-1.4,1.3c-2.9,1.1-5.9,0.8-8.9,0.8
		c-52,0-103.9,0-155.9,0c-8.9,0-8.9,0-8.9,8.7c0,68.1,0,136.3,0,204.4C89.6,435.9,90.3,439.2,87.9,441.9z"/>
	<path class="st3" d="M264,217.8c0-10.5,0-21.1,0-31.6c37-0.1,73.9-0.1,110.9-0.2c21.3,0,42.6,0,64,0c19.2,0,33.1,13.9,33.1,33
		c0,51.6-0.1,103.3-0.1,154.9c-9.9-7.6-20.7-13.6-32-19c-2.1-2.6-1.5-5.7-1.5-8.7c0-38.8,0-77.7,0-116.5c0-1.5,0-3,0-4.5
		c-0.2-5.1-0.5-5.5-5.9-5.7c-1.7,0-3.3,0-5,0c-51.5,0-103,0-154.5,0C269.9,219.6,266.6,220.4,264,217.8z"/>
	<path class="st4" d="M264,217.8c32.3,0.1,64.6,0.2,96.9,0.2c24.8,0,49.6,0,74.4,0c3.1,0,4.8,0.3,4.8,4.2
		c-0.2,44.3-0.1,88.6-0.2,132.8c-9-2.6-17.8-6-27.2-7.2c-6.9-0.9-13.7-2.1-20.7-1.6c-29.5,0-55.9,9.2-78.9,27.4
		c-21.9,17.3-37,39.3-44.3,66.5c-0.2,0.8-0.7,1.5-1,2.3c-1.6,0.6-3.2,1-4.5-0.8c-1.1-2.3-0.9-4.9-0.9-7.4c0-69.3,0-138.6,0-207.8
		c0-2.8-0.6-5.7,1.6-8.1L264,217.8z"/>
	<path class="st5" d="M264,441.9c-21.3,0.1-42.6,0.1-63.9,0.2c-34.2,0-68.4-0.1-102.7-0.1c-3.2,0-6.3-0.1-9.5-0.1
		c0-72.4,0-144.8,0.1-217.2c0-6.6,0-6.6,6.7-6.6c54.6,0,109.2,0,163.8,0c1.8,0,3.7,0.1,5.5,0.2C264,292.8,264,367.4,264,441.9z"/>
</g>
</svg>
