<?xml version="1.0" encoding="utf-8"?>
<!-- Generator: Adobe Illustrator 19.0.0, SVG Export Plug-In . SVG Version: 6.00 Build 0)  -->
<svg version="1.1" id="Calque_1" xmlns="http://www.w3.org/2000/svg" xmlns:xlink="http://www.w3.org/1999/xlink" x="0px" y="0px"
	 viewBox="0 0 612 792" style="enable-background:new 0 0 612 792;" xml:space="preserve">
<style type="text/css">
	.st0{fill:#008D3D;}
</style>
<g>
	<path d="M29.5,473c14.5,0,29-0.1,43.5,0.1c3.7,0.1,4.6-0.9,4.6-4.6c-0.1-70.8-0.1-141.6-0.1-212.5c0-4-0.2-8.1,0.4-12
		c2.7-16.2,15.7-27,32.2-27c117.1,0,234.3-0.1,351.4,0c17,0,31.7,13.5,31.8,30.2c0.3,47.8,0.1,95.6,0.1,144
		c-9.8-4.4-19.7-7.7-29.8-10.3c-2.9-0.8-2.2-2.9-2.2-4.8c0-22.8,0-45.7,0-68.5c0-17.8-0.1-35.7,0.1-53.5c0-4-0.7-5.3-5-5.2
		c-97.8,0.1-195.6,0.1-293.4,0.1c-16.3,0-32.7,0.1-49-0.1c-3.4,0-4.8,0.3-4.8,4.4c0.2,71.8,0.1,143.6,0,215.5c0,3.6,1,4.3,4.4,4.3
		c34.3-0.1,68.7,0,103-0.2c4,0,4.9,1.1,4.8,4.9c-0.3,7.8,0.1,15.7-0.2,23.5c-0.1,3.2,0.9,3.8,3.9,3.8c19.2-0.1,38.3,0,57.5-0.1
		c3.3,0,4.2,0.7,3.5,4c-1.7,7.9-0.7,15.9,0.5,23.8c0.5,3.1,0.1,4.3-3.5,4.3c-69.2-0.1-138.3,0-207.5-0.1
		c-22-0.1-40.2-15.4-45.3-37.3c-0.2-0.9,0.1-2.1-1.1-2.6C29.5,489,29.5,481,29.5,473z"/>
	<path class="st0" d="M540.5,507c-7.7-60.7-63.3-104.3-123.9-97.1c-53.8,6.4-95.4,50-99,103.8c-3.7,54.4,33.7,104.5,87,116.5
		c3.9,0.9,8.2,0.7,11.8,2.8c8.3,0,16.7,0,25,0c4.9-1,9.9-0.6,14.7-1.9c32.2-8.6,56.7-27.1,72.9-56.4c7-12.7,11.3-26.2,12.4-40.6
		c0-8.3,0-16.7,0-25C540.4,508.6,540.6,507.7,540.5,507z M509.9,492c-29.6,32-59.3,64.1-89,96.1c-7.5,8.1-7.5,8.1-15.3,0.3
		c-18.1-18.2-36.2-36.4-54.5-54.4c-2.9-2.9-2.7-4.4,0.1-6.9c4.9-4.5,9.6-9.2,14.1-14.1c2.4-2.6,3.8-2.9,6.5-0.1
		c12.5,12.9,25.5,25.4,38,38.3c3.1,3.2,4.5,2.6,7.1-0.4c23.7-26.4,47.7-52.6,71.4-79c2.8-3.1,4.2-3.4,7.1-0.2
		c4.6,5.2,9.8,10,14.8,14.9c0.7,0.7,1.4,1.4,2,2.1C512,490.3,510.8,491,509.9,492z"/>
</g>
</svg>
