<?xml version="1.0" encoding="utf-8"?>
<!-- Generator: Adobe Illustrator 19.0.0, SVG Export Plug-In . SVG Version: 6.00 Build 0)  -->
<svg version="1.1" id="Calque_1" xmlns="http://www.w3.org/2000/svg" xmlns:xlink="http://www.w3.org/1999/xlink" x="0px" y="0px"
	 viewBox="0 0 612 792" style="enable-background:new 0 0 612 792;" xml:space="preserve">
<g>
	<path d="M256.9,300.1c10.2,0.5,19.5,0.6,28.7,1.5c33.1,3,64.1,33.6,66.2,66.8c1.5,24.6,1,49.3,1.1,73.9c0.1,32.5,0,65,0,97.5
		c0,32.7-19.7,62.5-50.1,74.5c-7.8,3.1-16.4,5.1-24.7,5.4c-18.1,0.6-36.3,0.6-54.4-0.7c-34.2-2.6-66.7-34.7-69.1-69.1
		c-1.6-22.4-1-44.9-1.1-67.4c-0.1-33.3,0.4-66.7-0.1-100c-0.7-45.6,33-75.1,65.9-80.3c9.6-1.5,19.5-1.5,30-2.2
		c0.1-1.3,0.2-3.1,0.2-4.8c0-20.2,0-40.3,0-60.5c0.1-32,24-55.9,55.9-56c16.2,0,32.3,0,48.5,0c30.5,0,55,24.3,55,54.9
		c0.1,68.3,0,136.6,0,205c0,13.2,3.9,24.9,13.2,34.5c16,16.5,41.1,15.6,56-1.9c6.9-8.1,11-17.7,11.2-28.3
		c0.4-30.2,0.1-60.3,0.1-90.5c0-0.5-0.2-1-0.4-2.2c-6.3,0-12.7-0.2-19.2,0.1c-4.8,0.2-6.5-1.9-6.4-6.5c0.1-23.5,0.1-47,0-70.5
		c0-4.7,1.7-6.6,6.5-6.5c14.8,0.2,29.7,0.2,44.5,0c4.7,0,6.6,1.6,6.6,6.4c-0.1,23.7-0.1,47.3,0,71c0,4.6-2,6.3-6.4,6.1
		c-5.6-0.2-11.3,0-17.7,0c0,2.1,0,3.9,0,5.6c0,27.2,0.1,54.3,0,81.5c-0.1,15.6-5.1,29.4-16.1,40.7c-19,19.4-47.4,18.5-65.1-2.1
		c-9.6-11.1-14.1-24-14.1-38.5c-0.1-68.2,0-136.3,0-204.5c0-26.9-19.8-46.7-46.6-46.8c-17.2,0-34.3,0-51.5,0
		c-26.5,0.1-46.4,19.9-46.4,46.5c-0.1,20.5,0,41,0,61.5C256.9,295.9,256.9,297.9,256.9,300.1z M345.5,459.8c0-27.8,0.1-55.7,0-83.5
		c-0.2-37.6-30.6-68-68.1-68.3c-15.3-0.1-30.7-0.1-46,0c-39.5,0.4-70.3,31.3-70.4,70.6c-0.1,54.3-0.1,108.7,0,163
		c0.1,38.3,32.4,70.7,70.7,71c15,0.1,30,0.1,45-0.1c4.6-0.1,9.3-0.6,13.8-1.6c32.4-7.6,54.8-35.8,54.9-69.1
		C345.5,514.4,345.5,487.1,345.5,459.8z M471.2,310.2c14.3,0,28,0,41.9,0c0-12.2,0-24.1,0-35.9c-14.2,0-27.9,0-41.9,0
		C471.2,286.3,471.2,298.1,471.2,310.2z M513.5,318.3c-14.5,0-28.3,0-42.2,0c0,8.2,0,16,0,24c14.1,0,27.9,0,41.9,0
		c0.1-1.6,0.3-2.9,0.3-4.2C513.5,331.6,513.5,325.1,513.5,318.3z"/>
	<path d="M270.4,363.3c0.1,9-8.2,17.4-17.1,17.5c-9.2,0-17.4-8.3-17.4-17.7c0-8.9,7.9-16.8,16.8-17
		C262.3,346,270.3,353.8,270.4,363.3z M242.7,362.6c-0.3,6.6,3.6,11,9.9,11.3c6.5,0.3,10.9-3.7,11.1-10.1c0.2-6.5-3.5-10.6-9.6-10.9
		C247.3,352.6,243,356.2,242.7,362.6z"/>
	<path d="M496.9,291.2c0,2.3,0.4,4.8-0.2,6.9c-0.4,1.4-2.2,2.5-3.3,3.8c-1.3-1.3-3.6-2.4-3.7-3.8c-0.5-4.4-0.5-9,0-13.4
		c0.2-1.4,2.3-2.7,3.6-4c1.2,1.4,3,2.5,3.5,4.1C497.3,286.7,496.9,289,496.9,291.2z"/>
	<path d="M253.4,355.5c3.8,0.1,7.6,4.1,7.6,7.8c0,4-4.2,7.9-8.2,7.7c-3.9-0.2-7.5-4.2-7.3-8C245.6,359.2,249.6,355.4,253.4,355.5z"
		/>
</g>
</svg>
