<?xml version="1.0" encoding="utf-8"?>
<!-- Generator: Adobe Illustrator 19.0.0, SVG Export Plug-In . SVG Version: 6.00 Build 0)  -->
<svg version="1.1" id="Calque_1" xmlns="http://www.w3.org/2000/svg" xmlns:xlink="http://www.w3.org/1999/xlink" x="0px" y="0px"
	 viewBox="0 0 612 792" style="enable-background:new 0 0 612 792;" xml:space="preserve">
<style type="text/css">
	.st0{fill:#010101;}
	.st1{fill:#717171;}
	.st2{fill:#616161;}
	.st3{fill:#030303;}
	.st4{fill:#040403;}
	.st5{fill:#060606;}
	.st6{fill:#070706;}
	.st7{fill:#070707;}
	.st8{fill:#050505;}
	.st9{fill:#121212;}
	.st10{fill:#131313;}
	.st11{fill:#181818;}
	.st12{fill:#E9E9E9;}
	.st13{fill:#040404;}
	.st14{fill:#090909;}
</style>
<g>
	<path d="M286.1,434c7.8-4.6,16-8.1,25.2-9c3-0.3,5.6,0.8,8.4,2c10.6,4.3,19.4,12.5,31.2,13.9c2.7,0.3,1.7,2.5,1.7,3.9
		c0,15.7,0,31.3,1.4,46.9c3,34.3,5.7,68.7,8.5,103c1.1,13.6,2.3,27.2,3.4,40.8c0.9,11.9-2.6,17.4-14.8,23.5c-3,0-6,0-9,0
		c-10.5-2.5-15.5-8.6-16.4-19.6c-3.1-35.6-5.7-71.3-8.8-107c-0.8-9.3-1.6-18.6-2.2-27.9c-0.2-3-0.8-5.1-4.5-5.1c-3.6,0-4.3,2-4.6,5
		c-2.3,27.2-4.5,54.4-6.7,81.6c-1.5,17.7-3,35.5-4.3,53.2c-0.8,10.8-6,17.1-16.4,19.6c-3,0-6,0-9,0c-13.4-6.6-15.9-12-14.5-27.4
		c2.7-30.3,5-60.7,7.5-91.1c1.7-21.6,3.7-43.1,5.1-64.7c0.6-10,0.4-20,0.2-30c0-3.3,0.4-5.5,4.3-5.4c3.6,0.1,6.1-2.8,9.4-3.5
		C281.9,434.5,284.3,434.9,286.1,434z"/>
	<path class="st0" d="M170,239c1.8-0.9,1.3-2.9,1.7-4.3c7-26.8,33.8-42.3,60.3-34.8c8,2.3,8,2.3,7.5,11.3
		c-14.7-7.1-29.2-7.3-43.2,1.4c-9.3,5.8-15.3,14.2-18.1,24.8c-5.6,21.4,6.7,43.7,27.8,50.3c20.1,6.3,45-2.6,53.3-29.1
		c5.3,2.3,5.1,5.7,2.5,10.3c-5.6,9.9-13.3,17.4-23.6,22c-2.1,0.9-3.4,1.8-4.4,4.2c-1.7,4.3-6.3,5.2-9.8,2.1
		c-1.4-1.2-2.5-2.1-4.6-2.2c-25-0.9-41.6-14.2-48.2-38.4c-0.2-0.9,0.1-2.1-1.3-2.4c0-0.7,0-1.3,0-2c0.8-4,0.8-8,0-12
		C170,239.7,170,239.3,170,239z"/>
	<path class="st1" d="M450,253l-0.5,0l-0.4,0.1c-2.5-4.4-2.6-8.8,0-13.2c0.3,0,0.6,0.1,0.9,0.1C450,244.3,450,248.7,450,253z"/>
	<path class="st2" d="M170,240c1.7,4,1.5,8,0,12C170,248,170,244,170,240z"/>
	<path d="M278.1,435c-18.2,5.1-32.5-4.6-35-24c-3.4-26.1,13.1-45,39.2-45c18.8,0,37.6,0.2,56.5,0c32.3-0.3,45.7,31.4,35.2,55.1
		c-7.1,15.9-20.3,20.3-35.6,11.9c-4-2.2-8-4.5-12.2-6.8c11.2-4.5,14.4-9.3,13.7-21.2c3.3,1.8,6.2,3.4,9.1,5c0.7,0.4,1.6,1.4,2.4-0.1
		c0.6-1.1,0.5-1.9-0.4-2.6c-1.2-0.8-2.6-1.5-3.8-2.3c-4.8-2.9-10.1-4.8-14.4-8.7c-3-2.7-7.1-2.7-10.9-3.1
		c-18.6-1.7-35.5,3.5-51.2,13.2c-1.1,0.7-3.1,1.2-1.8,3.3c1.5,2.3,2.6,0,3.5-0.5c11.4-6.5,23.1-11.6,36.4-12.6
		c5.5-0.4,11-0.2,16.4,0.5c7.1,0.9,11.9,6.6,11.4,13.4c-0.5,7.1-6.1,12.4-13.6,11.5c-14.4-1.7-27.2,1.8-39,9.9
		C282.7,434.2,280.1,434.2,278.1,435z"/>
	<path d="M309.9,313.9c10.3,0,20.6,0.1,30.9-0.1c2.8,0,4.1,0.4,4.4,3.6c1.1,14.6-4.1,26.2-16.5,34c-12.2,7.7-25,7.7-37.2,0.1
		c-12.4-7.7-17.7-19.2-16.7-33.8c0.2-2.9,1-4,4.1-3.9C289.2,314.1,299.6,313.9,309.9,313.9z"/>
	<path class="st0" d="M449.1,239.9c0,4.4,0,8.8,0,13.2c-2.9,23.2-23,41.2-46.8,41.8c-2.5,0.1-4.5,0.1-6.6,2.3c-3,3.1-8,2.1-9.4-2
		c-1-2.8-2.9-3.7-5.1-4.8c-11.2-5.2-19.1-13.5-24.4-24.6c-2.4-5-2.3-8.7,3-11.8c3,14.7,10.9,25.8,24.8,32c11.1,4.9,22.3,4.8,33.4,0
		c22.1-9.6,31.3-36,20.3-57.4c-10.2-19.9-37.8-31.3-62.5-14.2c-1.9-7.9-1.4-9.1,5.8-12.2C411.1,189,445.4,208.3,449.1,239.9z"/>
	<path class="st3" d="M189.7,257.4c2.9-2.1,5.5-4,9-6.6c-0.6,4.3,1.4,4.7,4.4,5c6.7,0.6,11.7-1.2,15-7.3c0.5-0.9,1.4-1.5,1.8-2.4
		c4.5-9.3,12.6-10.3,21.5-9.4c1.3,0.1,3-0.2,2.9,1.8c-0.1,1.9-1.9,1.8-3.1,1.5c-10-2.2-16,3-20.5,11c-3.7,6.6-9.2,9.1-16.7,8.2
		c-1.9-0.2-5.3-1.7-5.2,2.9c0,1.6-1.3,0.8-2.1,0.2C194.3,260.8,192.2,259.2,189.7,257.4z"/>
	<path class="st4" d="M420.9,231.6c3.8,2.8,6.5,4.8,9.3,6.9c-1.9,1.4-3.4,2.7-5.1,3.7c-1.4,0.8-3.8,4.6-4-0.9c0-0.3-0.5-0.8-0.9-1
		c-3.4-1.7-13.1,0.6-15.5,3.6c-1.4,1.8-3.2,3.5-4.2,5.5c-4.6,8.9-12.1,11-21.3,9.7c-1.4-0.2-3.5,0.4-3.3-1.8
		c0.1-2.2,2.3-1.8,3.5-1.5c9.2,1.7,15.2-2.4,19.4-10.1c4-7.3,10-10.2,18.2-8.9C419.9,237.2,422,236.6,420.9,231.6z"/>
	<path class="st5" d="M190,238.2c2.7-2,5.3-3.9,8.9-6.5c-1.1,5.5,1.9,5,4.7,5.1c4.5,0,9.5-1.1,13,3.1c1.1,1.3,3,2.7,0.8,4.5
		c-2.1,1.7-2.2-1.1-3.1-1.8c-2.1-1.8-12.4-3.6-14.7-2.3C195.1,242.8,195.1,242.8,190,238.2z"/>
	<path class="st5" d="M421.8,251.1c3,2.2,5.7,4.2,8.5,6.3c-1.9,1.4-3.4,2.7-5.1,3.6c-1.3,0.7-3.7,4.7-4.1-0.8
		c-0.1-1.7-1.8-1-2.8-1.1c-2.7-0.1-5.3-0.1-8,0c-3,0-5.4-1.3-7.4-3.5c-1.2-1.3-2.3-2.7-0.4-4.2c1.8-1.4,2.1,0.8,2.9,1.6
		c2.2,2.1,12.8,4,15,2.6C421.8,254.6,420.9,253,421.8,251.1z"/>
	<path class="st6" d="M313.6,295.1c-3.1-0.3-4.9-1.9-4.9-5.1c0-3.2,1.9-5,5-5c3.1,0,5,2,5,5C318.7,293.1,316.9,295,313.6,295.1z"/>
	<path class="st7" d="M386,305.5c-0.5,3.2-2.2,5.3-5.2,5.2c-3-0.1-4.9-1.8-4.9-5.1c0-3.2,1.8-4.9,5-4.9
		C384.1,300.7,385.4,302.9,386,305.5z"/>
	<path class="st7" d="M239.3,310.8c-3-0.4-5.1-2-5.1-5c-0.1-3,1.7-5,4.9-5c3.1,0,5,1.6,5.1,4.8C244.2,308.8,242.2,310.2,239.3,310.8
		z"/>
	<path class="st8" d="M383.9,236.7c4.3-0.1,8.7-0.4,11.9,3.6c1.1,1.4,2.2,2.8,0.3,4.2c-1.7,1.3-2.2-0.8-2.8-1.6
		c-3-3.9-7.3-2.3-11.1-2.8c-2.2-0.3-6.2,1.7-6.1-1.7c0.1-3,4.1-1,6.3-1.6C382.8,236.6,383.4,236.7,383.9,236.7z"/>
	<path class="st5" d="M234.8,259.1c-3.4,0.2-7.7,0.2-10.7-3.8c-1-1.2-1.9-2.5-0.3-3.8c1.7-1.5,2.2,0.4,2.9,1.3
		c2.8,3.8,6.8,2.6,10.5,3c2.4,0.3,6.7-1.7,6.7,1.5c0.1,3.6-4.3,1.1-6.5,1.8C236.9,259.3,236.3,259.1,234.8,259.1z"/>
	<path class="st9" d="M254.7,310.9c-0.2,2.1-1.1,3.4-3.1,3.5c-1.9,0.1-3.2-1-3.4-2.8c-0.2-2.2,1.1-3.5,3.2-3.6
		C253.4,308,254.2,309.4,254.7,310.9z"/>
	<path class="st10" d="M368.3,314.5c-1.6-0.1-3-1.1-3-3c-0.1-2.1,1.2-3.5,3.4-3.4c1.9,0,3.1,1.4,3.1,3.2
		C371.8,313.1,370.6,314.3,368.3,314.5z"/>
	<path class="st11" d="M307.8,299.2c1.7,0.3,3.1,1,3.2,3c0.2,2.2-1.1,3.5-3.2,3.5c-1.8,0-3.1-1.2-3.1-3.2
		C304.7,300.6,305.9,299.6,307.8,299.2z"/>
	<path class="st12" d="M278.1,435c2-1.1,3.9-2.1,5.9-3.2c0.1,1.4,0.8,2.1,2.2,2.2c-1.4,1.4-3.2,2.3-5.1,2.8
		C280.4,435.6,279.4,435.1,278.1,435z"/>
	<path class="st0" d="M330,151.2c-4.9-1.8-10-2.8-15-4.2c-5.7,0-11.3,0-17,0c-0.4,1.3-1.6,0.9-2.5,1.1
		c-30.5,6.7-51.2,31.9-51.2,62.2c0,29.8,21.2,55.4,51.2,61.6c2,0.4,3.1,1,3.7,3.2c1,3.5,3.9,5.4,7.5,5.5c3.6,0.1,6.6-1.8,7.7-5.3
		c0.7-2.4,2.1-2.9,4.2-3.3c26.9-4.7,48.7-27.7,51.3-54.1C372.9,188,357,161.3,330,151.2z M307.3,266.1c-29.9,0-54.3-24.4-54.2-54.3
		c0-29.9,24.3-54.2,54.3-54.4c29.8-0.2,54.5,24.4,54.6,54.2C361.9,241.7,337.5,266.1,307.3,266.1z"/>
	<path class="st13" d="M331.7,191.5c4.4,3.1,7.9,5.7,12.1,8.7c-4,2.9-7.5,5.4-11.8,8.6c1.4-7.3-3.2-5.8-7-6.3
		c-8.4-1-14.6,1.6-18.6,9.2c-0.6,1.2-1.8,2-2.4,3.2c-6.2,12.2-16.7,14.5-29,13c-1.9-0.2-4-0.1-3.9-2.7c0.1-2.2,2.1-2.2,3.8-2.1
		c0.3,0,0.7,0,1,0c18.9-0.2,13.5,2.5,25.7-12.8c1.3-1.7,2.7-3.4,3.9-5.2c3.4-5.2,8.1-7.7,14.3-7.1c2,0.2,4-0.2,6,0.1
		C330.2,198.5,333.3,197.8,331.7,191.5z"/>
	<path class="st8" d="M331.4,216.4c4.8,3.4,8.3,6,12.4,8.9c-3.9,2.9-7.5,5.4-11.8,8.6c1.4-6.6-2.4-6.3-6.4-6.2
		c-3.5,0.1-7,0.1-10.4-0.3c-4-0.5-6.8-3.1-9.1-6.3c-1.3-1.8,0-2.7,0.9-3.8c0.9-1.1,1.7-0.8,2.3,0.2c3.2,5.9,8.8,5.7,14.4,5.4
		c0.7,0,1.3,0,2,0C329.2,222.9,334,224.3,331.4,216.4z"/>
	<path class="st14" d="M283,197.9c4.8-0.2,11-0.6,15.3,5.3c1.4,1.9,2,3.3,0,5c-2.3,1.9-2.7-0.8-3.4-1.7c-2.3-2.9-5-4.1-8.6-4
		c-3.8,0.1-7.6,0-11.4,0c-1.7,0-3.6-0.1-3.7-2.3c-0.1-2.3,1.8-2.4,3.6-2.4C277,197.9,279.4,197.9,283,197.9z"/>
</g>
</svg>
