<?xml version="1.0" encoding="utf-8"?>
<!-- Generator: Adobe Illustrator 19.0.0, SVG Export Plug-In . SVG Version: 6.00 Build 0)  -->
<svg version="1.1" id="Calque_1" xmlns="http://www.w3.org/2000/svg" xmlns:xlink="http://www.w3.org/1999/xlink" x="0px" y="0px"
	 viewBox="0 0 612 792" style="enable-background:new 0 0 612 792;" xml:space="preserve">
<g>
	<path d="M251,679c-1.7-0.5-3.5-1.1-5.2-1.6c-12.8-4.2-20.6-16.4-19.4-29.8c3-35.2,5.7-70.4,8.6-105.6c3.2-39,6.5-78,9.6-117
		c0.9-12.1,1.2-24.2,1.7-36.8c40.5,0,81.2,0,122.2,0c0.1,1.4,0.2,2.7,0.3,4c1.8,29.2,3.5,58.5,5.6,87.7c1.9,26.7,4.3,53.5,6.5,80.2
		c2.2,26.9,4.5,53.8,6.5,80.7c0.4,5.1,1,10.5,0,15.4c-2.1,11.1-9.1,18.2-19.9,21.6c-1.2,0.4-2.5,0.8-3.7,1.2c-2.7,0-5.3,0-8,0
		c-1.1-0.4-2.1-0.9-3.2-1.2c-11.8-3.4-19.8-13.1-20.8-25.4c-0.6-7.6-1.3-15.3-1.9-22.9c-4.4-55.1-8.9-110.2-13.3-165.2
		c-0.5-6.2-1.2-12.5-1.8-19c-4.2,0-7.9,0.2-11.5-0.1c-3.6-0.3-4.4,1.3-4.6,4.6c-0.6,10.1-1.5,20.2-2.4,30.4c-2.9,35-5.7,70-8.6,105
		c-1.9,23.1-3.5,46.1-5.9,69.2c-1.2,12.1-8.9,19.7-20.3,23.4c-1.2,0.4-2.5,0.8-3.7,1.2C255.7,679,253.3,679,251,679z"/>
	<path d="M150,381c1-3.5,1.9-7.1,3.2-10.4c2.7-7.1,4.9-8.3,12.4-7.4c1.6,0.2,3.2,0.3,5.5,0.6c-0.6-3.5-1.1-6.6-1.8-9.6
		c-0.8-3.5,0.3-6.2,3.9-6.9c3.6-0.7,5.5,1.5,6.1,5c0.7,3.8,1.5,7.5,2.3,11.5c0.9,0.1,1.6,0.4,2.4,0.4c11.5,0.1,11.6-0.2,13-11.4
		c3-22.9,7.9-45.3,19.5-65.6c8.7-15.2,20.3-27.1,38.1-31.5c5.5-1.3,9.4-0.1,14.3,3.5c8.7,6.5,14.8,14,17.8,24.3
		c0.8,2.6,2.7,4.9,5,8.8c4-5.1,7.3-9.7,10.9-14.1c1-1.3,2.3-2.8,3.6-3.1c0.9-0.2,2.3,1.7,3.2,2.9c3.4,4.4,6.8,8.9,10.1,13.4
		c0.6,0,1.3,0,1.9,0c2.7-6.1,5.3-12.3,8.3-18.3c0.9-1.9,2.5-3.6,4.1-5c4.4-3.5,9.4-6.4,13.4-10.3c2.7-2.6,5.2-3.1,8.4-2.5
		c11.9,2.1,20.4,9.2,27.7,18.3c1.1,1.4,2.2,2.9,3.6,4.8c1.5-0.6,2.9-1.2,4.4-1.9c16.1-7.5,32.3-14.9,48.3-22.7
		c4-1.9,7.1-1.7,10.7,0.3c9.4,5.1,16.7,12.6,23.4,20.8c1.6,1.9,3.1,3.9,4.6,5.9c4.4-1.3,8.6-2.8,12.9-3.5c1.9-0.3,4.5,0.6,6,1.8
		c4.7,3.8,9.1,8,13.5,12.1c0,0.3,0,0.7,0,1c-7.5,3.9-15.1,7.6-22.6,11.6c-21.9,11.6-43.9,23.2-65.7,34.9c-3.1,1.7-5.1,1.5-8-0.6
		c-13.9-10.6-28-20.9-42.4-31.6c1.4-0.9,2.2-1.6,3.2-2.1c22.5-10.8,45-21.6,67.5-32.5c2.6-1.3,4.3-1.2,6.6,0.7
		c8.9,7.6,18,14.8,26.9,22.4c2.5,2.1,4.5,2.7,7.5,1c4.6-2.6,9.4-4.8,14.2-7.2c-4.6-8.3-12.4-8-19.6,0.8c-1.9-2.5-3.7-5-5.5-7.4
		c-6.7-8.8-13.9-17.1-23.7-22.6c-1.9-1.1-5-1.7-6.8-0.8c-23.3,10.6-46.5,21.5-69.7,32.4c-0.4,0.2-0.8,0.6-1.3,1
		c0.4,2.4,0.8,4.8,1.3,7.6c-3.3,1.7-6.6,3.4-10.5,5.4c2.6,2,4.7,3.6,6.8,5.1c15.2,11.3,30.6,22.6,45.7,34c2.7,2.1,4.7,2,7.5,0.5
		c18.6-10,37.3-19.9,56-29.8c1.6-0.8,3.2-1.6,4.8-2.4c4.4,7.2,3.7,15.5-2.9,21.5c-6.3,5.8-12.9,11.8-20.4,16
		c-17.8,10-36,19.4-54.4,28.2c-11.5,5.5-22.5-0.8-25.6-13.3c-2.7-11.1-5.7-22.2-8.6-33.3c-0.3-1.2-0.9-2.4-2.2-3.5
		c0,14.5,0,28.9,0,43.7c-41.2,0-81.8,0-122.9,0c0-20,0-40.1,0-60.1c-0.4-0.1-0.8-0.2-1.1-0.3c-1,2.3-2.4,4.6-2.9,7
		c-3.4,15.6-7.4,31.1-9.7,46.8c-2.4,16.7-9.7,26.8-25.8,31.9c-16.7,5.2-33.6,4.2-50.4,1.3c-2.3-0.4-4-4.1-6.1-6.3
		C150,388.3,150,384.7,150,381z M301.1,344c0,0.8,0,1.6,0,2.3c2,1.4,4.2,4.1,6,3.9c2-0.2,4.9-2.9,5.4-4.9c0.7-3.2-1.8-5.9-5.3-5.3
		C305,340.4,303.1,342.6,301.1,344z M306.1,322.2c0.8,0,1.5,0,2.3,0c1.5-2.1,3.8-4,4.1-6.2c0.5-3.1-1.9-5.3-5.2-5.3
		c-3.3,0-5.8,2-5.2,5.3C302.5,318.2,304.7,320.1,306.1,322.2z"/>
	<path d="M313,167c2.5,0.7,5.1,1.3,7.6,2c16.7,4.4,30.4,17.5,35.3,34c-4,0.7-7.1,1.3-10-3.2c-8.3-12.9-26.8-12.6-35.3,0.1
		c-0.7,1.1-1.4,2.2-2.6,4.1c-1.2-1.8-2.2-3.2-3.1-4.6c-8.4-11.9-26.5-12.3-34.5-0.2c-3.3,4.9-6.7,4.7-12.8,3.6
		c3.7-6,6.5-11.9,10.4-16.8c7.9-10,18.5-15.9,31.2-18c0.9-0.2,1.9-0.6,2.8-0.9C305.7,167,309.3,167,313,167z"/>
	<path d="M313,376.2c0,2.5,0,4.9,0,7.6c-3.8,0-7.5,0-11.6,0c0-2.4,0-4.8,0-7.6C305.1,376.2,308.9,376.2,313,376.2z"/>
	<path d="M257.3,209.1c3,0,5.6,0,8.6,0c0.7,11.6,5.9,19.9,17.8,22c11.3,2,19.1-3.4,24.2-13.8c5.5,11,13.9,16.3,25.7,13.5
		c10.8-2.6,15.7-10.4,16.1-21.6c2.6,0,5,0,7.4,0c5.1,15.7-3.3,37.9-18.8,49.8c-17.1,13.1-40.7,13.9-58.9,2.1
		C262,250,252.7,228.4,257.3,209.1z M280.8,238.7c7.8,10.6,17.3,15.4,29.4,14.3c9.8-0.8,17.2-5.6,23.5-14.3
		C315.7,238.7,298.9,238.7,280.8,238.7z"/>
	<path d="M345.2,211.1c-0.1,9-7.4,16.2-16.7,16.2c-9.5,0-17.1-7.3-17-16.5c0.1-9,7.5-16.1,16.8-16.2
		C337.8,194.6,345.2,201.8,345.2,211.1z M328.5,198.6c-7.2-0.1-12.9,5.3-12.9,12.3c0,6.8,5.3,12.2,12.3,12.4c7.2,0.2,13-5.1,13.2-12
		C341.2,204.2,335.7,198.7,328.5,198.6z"/>
	<path d="M304.2,210.9c0,9-7.3,16.3-16.6,16.3c-9.6,0.1-17.1-7.1-17.2-16.3c0-9,7.3-16.2,16.6-16.3
		C296.7,194.5,304.2,201.6,304.2,210.9z M300.1,211c0-7-5.6-12.5-12.8-12.4c-7.2,0-12.8,5.5-12.7,12.5c0.1,6.8,5.5,12.1,12.5,12.2
		C294.4,223.4,300.1,218,300.1,211z"/>
</g>
</svg>
