<?xml version="1.0" encoding="utf-8"?>
<!-- Generator: Adobe Illustrator 19.0.0, SVG Export Plug-In . SVG Version: 6.00 Build 0)  -->
<svg version="1.1" id="Calque_1" xmlns="http://www.w3.org/2000/svg" xmlns:xlink="http://www.w3.org/1999/xlink" x="0px" y="0px"
	 viewBox="0 0 612 792" style="enable-background:new 0 0 612 792;" xml:space="preserve">
<style type="text/css">
	.st0{fill:#4D5152;}
	.st1{fill:#F08B13;}
	.st2{fill:#66DBDE;}
</style>
<g>
	<path class="st0" d="M31,320c1.6-2.8,1.5-6,2.4-9c8.3-27.7,33.7-46.9,62.6-47c71-0.1,142,0,213,0c7.2,0,10,2.7,10,9.9
		c0,14.5,0,29,0,43.5c0,8.1-2.5,10.5-10.9,10.6c-37.2,0-74.3,0.1-111.5-0.1c-4.4,0-5.8,0.9-5.7,5.6C191,433,191,532.5,191,632
		c-5.3,0-10.7,0-16,0c-1.5-1.6-1.6-3.6-1.6-5.6c0-61.8-0.2-123.7,0.1-185.5c0-38.6,0-77.3,0-115.9c0-2-0.1-4,0.3-6
		c0.8-4.6,3.6-7.5,8.2-8.2c2.3-0.4,4.7-0.2,7-0.2c35,0,70,0,105,0c7.5,0,7.6-0.1,7.6-7.4c0-5.5-0.1-11,0-16.5
		c0.1-3.6-1.2-5.3-4.9-5.1c-1.7,0.1-3.3,0-5,0c-38.3,0-76.6,0-114.9,0c-1.6,0-3.3-0.2-5.5,0.4c3.2,4.7,0.1,7.5-2.9,10.5
		c-10.6,10.6-21.2,21.2-31.8,31.8c-7,7-11.8,7-18.8,0.1c-10.9-10.8-21.7-21.6-32.5-32.5c-1.2-1.2-2.9-2.3-3.1-3.8
		c-0.7-5.9-3.9-3.6-6.7-2.3c-17.4,8-26.2,22.1-26.6,40.7c-0.7,32.8-0.2,65.6-0.2,98.5c0,5.2,0.5,5.6,5.8,5.7c5,0.1,10-0.1,15,0.1
		c7.2,0.3,10.1,2.9,11.1,10.2c0.3,1.8,0.2,3.7,0.2,5.5c0,58.9,0,117.8,0,176.7c0,3.1,0.6,6.4-1.6,9.1c-5.3,0-10.7,0-16,0
		c-2.2-2.7-1.6-6-1.6-9.1c0-54.4,0-108.8,0-163.2c0-10,0-10-10.1-10.1c-3.8,0-7.7,0.1-11.5-0.1c-4.4-0.2-7.7-1.8-8.8-6.5
		C31,402,31,361,31,320z"/>
	<path class="st0" d="M543,475c-2.8,4.1-6.7,5.1-11.6,5.1c-106.3-0.1-212.6-0.1-319,0c-4.6,0-5.8-1.3-5.6-5.7
		c0.4-10.3,0.2-10.4,10.3-10.4c101.5,0,203,0,304.5,0.1c4.4,0,5.4-1,5.4-5.4c-0.2-81.8-0.1-163.6,0-245.5c0-4.6-1.2-5.3-5.5-5.3
		c-108.7,0.1-217.3,0.1-326,0.2c-3.5,0-4.9-0.6-4.8-4.5c0.2-11.6,0-11.6,11.6-11.6c109.7,0,219.3,0,329-0.1c4.9,0,8.7,1,11.5,5.1
		C543,289.7,543,382.3,543,475z"/>
	<path class="st0" d="M134,152c8.2,2.6,16.2,5.6,23,11.2c15.4,12.7,21.8,33.2,15.6,51.1c-6.6,19.1-25.2,33.3-44.1,33.7
		c-24.2,0.5-45.8-18.4-49.3-42.9c-3.1-22.4,14-46,37.7-52c1.1-0.3,2.4,0.1,3.1-1.1C124.7,152,129.3,152,134,152z"/>
	<path class="st0" d="M119,632c0-54.5,0-108.9-0.1-163.4c0-3.7,0.7-4.8,4.6-4.7c11.5,0.3,11.5,0.1,11.5,11.7c0,52.1,0,104.3,0,156.4
		C129.7,632,124.3,632,119,632z"/>
	<path class="st1" d="M463,319.8c0-30.3,0.1-60.7-0.1-91c0-3.8,0.8-5.1,4.9-5c12.8,0.3,25.7,0.2,38.5,0c3.5-0.1,4.8,0.5,4.8,4.5
		c-0.1,61.2-0.1,122.3,0,183.5c0,3.2-0.8,4.3-4.1,4.2c-13.2-0.2-26.3-0.3-39.5,0c-4,0.1-4.6-1.3-4.5-4.8
		C463.1,380.8,463,350.3,463,319.8z"/>
	<path class="st1" d="M399,339.7c0-23.5,0.2-47-0.1-70.5c-0.1-4.6,1.3-5.4,5.5-5.3c12.8,0.3,25.7,0.2,38.5,0c3.2,0,4.2,0.8,4.2,4.1
		c-0.1,48-0.1,96,0,144c0,3.4-1.1,4.1-4.2,4c-13.2-0.2-26.3-0.2-39.5,0c-3.5,0.1-4.5-0.9-4.4-4.4C399.1,387.7,399,363.7,399,339.7z"
		/>
	<path class="st1" d="M383,364.1c0,15.8-0.1,31.7,0.1,47.5c0,3.4-0.7,4.5-4.3,4.5c-13.2-0.2-26.3-0.2-39.5,0c-3,0-4.4-0.4-4.4-3.9
		c0.2-32.2,0.1-64.3,0-96.5c0-3.4,1.3-3.7,4.1-3.7c13.3,0.1,26.7,0.2,40,0c3.4-0.1,4.1,1.1,4.1,4.2C382.9,332.1,383,348.1,383,364.1
		z"/>
	<path class="st0" d="M359,432c49,0,97.9,0.1,146.9-0.1c4,0,5.4,0.7,5.3,5C510.8,448,511,448,500,448c-95.4,0-190.9,0-286.3,0
		c-6.6,0-6.6,0-6.7-7c0-9.1,0-9.1,9-9.1C263.7,432,311.3,432,359,432z"/>
	<path class="st1" d="M319,380.5c0,10.5-0.1,21,0.1,31.5c0,2.8-0.3,4.1-3.7,4.1c-13.7-0.2-27.3-0.1-41,0c-2.5,0-3.5-0.6-3.4-3.3
		c0.1-21.8,0.1-43.7,0-65.5c0-2.7,0.9-3.3,3.5-3.3c13.7,0.1,27.3,0.2,41,0c3.4-0.1,3.7,1.3,3.7,4.1C318.9,358.8,319,369.7,319,380.5
		z"/>
	<path class="st1" d="M230.8,416c-6.8,0-13.7-0.1-20.5,0.1c-2.6,0.1-3.5-0.6-3.4-3.3c0.1-11.2,0.1-22.3,0-33.5
		c0-2.7,0.9-3.3,3.4-3.3c13.7,0.1,27.3,0.1,41,0c2.7,0,3.7,0.6,3.7,3.6c-0.2,11-0.2,22,0,33c0,3-1,3.6-3.7,3.6
		C244.5,415.9,237.7,416,230.8,416z"/>
	<path class="st2" d="M174.8,440c-31.9,0-63.8,0-95.7,0c-1.6-6.3-3.8-8-10-8c-5.8,0-11.7-0.2-17.5,0.1c-3.7,0.2-4.8-0.9-4.8-4.7
		c0.2-27.1,0-54.3,0.1-81.5c0.1-10.8-1.3-21.7,2-32.3c5.4-17.8,17.4-28.5,37.1-33c-5.4,4.1-3.6,6.4-0.6,9.3
		c11.5,11.1,22.7,22.6,34,33.9c5.6,5.6,9.2,5.6,14.8,0.1c10.9-10.8,21.7-21.7,32.5-32.5c5.4-5.4,5.4-5.4,1.1-11
		c1.2-0.9,2.5-0.4,3.8-0.4c41.8,0,83.6,0.1,125.4-0.2c5,0,6.1,1.5,5.9,6.2c-0.4,7-0.4,14,0,21c0.2,4.4-1.4,5.1-5.3,5.1
		c-37.1-0.2-74.3-0.1-111.4-0.1c-9,0-11.3,2.3-11.3,11.1c0,37,0,74,0,110.9C175,436,174.9,438,174.8,440z"/>
</g>
</svg>
