<?xml version="1.0" encoding="utf-8"?>
<!-- Generator: Adobe Illustrator 19.0.0, SVG Export Plug-In . SVG Version: 6.00 Build 0)  -->
<svg version="1.1" id="Calque_1" xmlns="http://www.w3.org/2000/svg" xmlns:xlink="http://www.w3.org/1999/xlink" x="0px" y="0px"
	 viewBox="0 0 612 792" style="enable-background:new 0 0 612 792;" xml:space="preserve">
<g>
	<path d="M310.2,423.1c-36.1,0-71.6,0-107.6,0c0,3,0,5.8,0,8.6c0,17,0.1,34-0.1,51c0,3.6,1,5.2,4.5,6.4
		c24.5,8.6,38.1,33.5,32.7,59.6c-4.9,24.1-27.7,40.9-53,39.2c-22.7-1.6-42.4-20.2-45.5-42.9c-3.3-24.7,10-47.8,32.7-55.7
		c4.3-1.5,5.3-3.6,5.3-7.8c-0.1-47.3-0.1-94.7,0-142c0-4.1-1.7-5.3-5-6.5c-22.7-8-35.7-29.8-33-54.9c2.4-22.2,21.4-41,44.2-43.7
		c25-3,49.5,15,54.4,40c5.2,26.3-8.2,49.9-33.4,59.3c-1.5,0.6-3.6,2.7-3.6,4.1c-0.2,19.8-0.1,39.7-0.1,59.5c0,0.5,0.2,0.9,0.4,1.7
		c35.4,0,70.8,0,106.7,0c0.1-1.3,0.3-2.8,0.3-4.2c0-18.5-0.1-37,0.1-55.5c0-3.4-0.9-4.8-4.2-6c-23.1-8.1-36.3-29.6-33.9-54.5
		c2.2-22.4,20.4-40.9,43.6-44.3c27.3-4.1,54.6,18.3,56,46c1.3,25.5-10.9,44-35,53.4c-1.3,0.5-2.9,2.4-2.9,3.6
		c-0.2,20.3-0.1,40.6-0.1,61.4c35.8,0,71.3,0,107.3,0c0.1-1.8,0.2-3.5,0.2-5.3c0-18-0.1-36,0.1-54c0-3.5-0.8-5.2-4.4-6.4
		c-22.6-7.9-36.3-29.8-33.8-53.6c2.5-23.3,20.7-42,44-45.1c27.4-3.7,54,18.2,55.7,45.8c1.5,25.4-10.8,44.5-34.8,53.4
		c-3.2,1.2-3.3,3.1-3.3,5.7c0,22.3,0,44.7,0,67c0,13.3-3.3,16.6-16.4,16.6c-35.2,0-70.3,0-105.5,0c-2.8,0-5.6,0-8.9,0
		c-0.1,2-0.3,3.6-0.3,5.2c0,18.2,0.1,36.3-0.1,54.5c0,3.4,0.8,5.2,4.4,6.5c23,8.1,36.4,30,33.7,54.6c-2.5,22.7-20.4,40.8-43.8,44.1
		c-27.5,4-54.7-18.7-55.9-46.6c-1-25.1,11.5-43.9,34.7-52.6c1.4-0.5,2.5-2.1,3.3-3.4c0.5-0.9,0.1-2.3,0.1-3.4
		C310.2,462.2,310.2,442.8,310.2,423.1z M321.6,312.2c15.4,0.1,27.1-11.6,27.1-27.2c0.1-15.3-11.5-27.3-26.4-27.4
		c-15-0.1-26.7,11.5-26.9,26.9C295.1,299.5,307,312.2,321.6,312.2z M322.1,509.8c-15.1,0-26.7,11.6-26.8,26.9
		c-0.2,15.1,12.1,27.7,26.9,27.6c14.8,0,26.6-12.2,26.5-27.4C348.6,521.7,336.9,509.8,322.1,509.8z M217.3,284.5
		c0-15.4-11.6-27-26.7-26.9c-14.9,0.1-26.6,12.2-26.6,27.4c0,15.1,12.2,27.2,27.3,27.2C206,312.2,217.4,300.1,217.3,284.5z
		 M190.9,509.8c-15.3,0-27,11.9-26.9,27.4c0.1,15,12.3,27.2,26.9,27.2c14.8-0.1,26.3-12,26.4-27.4
		C217.4,521.5,206,509.8,190.9,509.8z M453.2,312.2c14.9,0.1,26.8-11.9,26.7-27.1c0-15.3-11.7-27.4-26.5-27.5
		c-15-0.1-26.7,11.5-26.9,26.9C426.5,300,438.1,312.2,453.2,312.2z"/>
</g>
</svg>
