<?xml version="1.0" encoding="utf-8"?>
<!-- Generator: Adobe Illustrator 19.0.0, SVG Export Plug-In . SVG Version: 6.00 Build 0)  -->
<svg version="1.1" id="Calque_1" xmlns="http://www.w3.org/2000/svg" xmlns:xlink="http://www.w3.org/1999/xlink" x="0px" y="0px"
	 viewBox="0 0 612 792" style="enable-background:new 0 0 612 792;" xml:space="preserve">
<g>
	<path d="M254.7,477.7c-3.6,3.6-7.3,7.2-10.9,10.8c-19.4-15.1-35.6-50.9-25.6-87.7c10.2-37.4,44.4-64.8,82-65.8
		c40.5-1.1,75.8,23,88.4,60.5c12.4,36.8-1.2,74.9-25.3,94.6c-3.6-3.7-7.2-7.3-11.1-11.3c17.8-16.7,26.7-37.3,24.3-62
		c-1.9-19.4-10.5-35.6-25.4-48.3c-28.1-24-70.8-22.4-97.5,3.3C227.5,397,221.1,445,254.7,477.7z M359.3,479.3
		c1.5,1.4,2.8,2.5,4.1,3.7c37-36.7,28.4-92.2,0.6-117.2c-1.4,1.1-2.8,2.1-4.2,3.2C388.7,399.8,390.2,446.6,359.3,479.3z"/>
	<path d="M347.2,382c-2.5,3.2-5.1,6.4-7.6,9.5c-7.6,9.5-15.3,18.9-22.8,28.4c-1.8,2.3-3.3,4.9-4.6,7.6c-2,3.8-5.1,5.8-9.3,5.2
		c-4.2-0.6-6.9-3.4-7.3-7.7c-0.4-4.3,1.6-7.3,5.7-9c1.9-0.8,3.9-1.9,5.5-3.2c13.3-10.4,26.6-20.9,39.9-31.3
		C346.8,381.6,347,381.8,347.2,382z"/>
	<path d="M329.9,331.3c-1.7-2.2-3.7-3.8-3.4-4.8c0.4-1.4,2.3-2.4,3.6-3.6c1.1,1.2,2.9,2.4,3,3.6
		C333.2,327.8,331.5,329.1,329.9,331.3z"/>
	<path d="M359.3,336.9c-2.5,1.4-4,3.1-5.2,2.9c-1.2-0.2-2.2-2.2-3.3-3.4c1.2-1.1,2.4-3,3.7-3C355.7,333.3,357,335.1,359.3,336.9z"/>
	<path d="M232.2,357.6c-1.7-2.2-3.6-3.7-3.3-4.7c0.3-1.5,2.2-2.6,3.4-3.8c1.1,1.2,3,2.3,3.2,3.6
		C235.5,353.9,233.8,355.3,232.2,357.6z"/>
	<path d="M374.9,347.6c1.8,2.3,3.6,3.6,3.5,4.9c-0.1,1.3-2,3.3-3.2,3.3c-1.1,0.1-3.1-1.9-3.3-3.1
		C371.7,351.4,373.4,349.9,374.9,347.6z"/>
	<path d="M216.1,378.6c-1.8-2.4-3.6-3.8-3.5-5c0.1-1.3,2.1-2.4,3.2-3.6c1.2,1.2,3.1,2.2,3.3,3.5
		C219.3,374.7,217.7,376.2,216.1,378.6z"/>
	<path d="M396.4,373.3c-2.3,1.7-3.7,3.5-4.9,3.4c-1.3-0.1-2.4-2-3.6-3.1c1.1-1.2,2.1-3.2,3.4-3.3
		C392.5,370.1,393.9,371.8,396.4,373.3z"/>
	<path d="M206.3,445.5c1.4,2.4,3,3.9,2.8,5.1c-0.2,1.3-2.1,2.3-3.3,3.4c-1.2-1.3-3-2.5-3.3-3.9C202.4,449,204.4,447.6,206.3,445.5z"
		/>
	<path d="M237.2,495.8c-2.4,1.5-3.9,3.2-5.1,3c-1.3-0.2-3.3-2.2-3.2-3.3c0.1-1.2,2.1-3.2,3.3-3.3
		C233.4,492.2,234.8,494.1,237.2,495.8z"/>
	<path d="M253.1,341.5c-1.7-2.3-3.5-3.7-3.4-4.9c0.1-1.3,2.1-3.3,3.2-3.3c1.2,0,3.2,1.9,3.3,3.2
		C256.5,337.7,254.8,339.1,253.1,341.5z"/>
	<path d="M197.4,424.1c2.3-1.6,3.7-3.4,4.9-3.2c1.3,0.2,3.3,2.1,3.3,3.2c0,1.2-1.9,3.2-3.2,3.3C201.2,427.6,199.8,425.8,197.4,424.1
		z"/>
	<path d="M391.5,479.8c-1.7-2.4-3.5-3.7-3.4-4.9c0.1-1.3,2-2.5,3.1-3.7c1.2,1.1,3.2,2.1,3.4,3.5
		C394.8,475.7,393.1,477.3,391.5,479.8z"/>
	<path d="M303.5,327.9c-1.7-2.4-3.4-3.9-3.3-5c0.2-1.3,2.2-3.1,3.4-3.1c1.1,0,3,2,3.2,3.3C307,324.2,305.2,325.6,303.5,327.9z"/>
	<path d="M272.5,326.4c2.3-1.6,3.7-3.4,4.9-3.3c1.3,0.2,3.3,2.1,3.3,3.2c0,1.2-2,3.2-3.2,3.3C276.2,329.8,274.8,328,272.5,326.4z"/>
	<path d="M401.5,402.9c-1.7-2.3-3.5-3.7-3.4-4.9c0.1-1.3,2-3.2,3.2-3.3c1.2,0,3.2,1.8,3.4,3.1C404.9,399.1,403.1,400.5,401.5,402.9z
		"/>
	<path d="M401.4,445.4c1.7,2.4,3.4,3.8,3.3,5c-0.1,1.3-2.1,2.4-3.2,3.6c-1.2-1.2-3.1-2.2-3.2-3.5
		C398.1,449.2,399.8,447.8,401.4,445.4z"/>
	<path d="M375,500.7c-1.5-2.5-3.2-3.9-3-5.1c0.2-1.3,2.1-2.4,3.2-3.5c1.1,1.2,3,2.3,3.2,3.6C378.6,496.9,376.8,498.3,375,500.7z"/>
	<path d="M205.8,393c1.6,2.3,3.4,3.6,3.2,4.8c-0.1,1.2-2,3.3-3.1,3.2c-1.2,0-3.2-1.8-3.4-3.1C202.3,396.8,204.1,395.4,205.8,393z"/>
	<path d="M409.8,424.4c-2.5,1.6-4,3.3-5.1,3c-1.3-0.3-2.2-2.2-3.3-3.5c1.2-1.1,2.4-2.9,3.7-3C406.2,420.9,407.5,422.7,409.8,424.4z"
		/>
	<path d="M215.6,469.6c1.8,2.4,3.4,3.7,3.5,5c0.1,1.1-1.8,3.3-2.6,3.2c-1.4-0.2-3.4-1.6-3.6-2.8
		C212.6,473.9,214.2,472.3,215.6,469.6z"/>
</g>
</svg>
