<?xml version="1.0" encoding="utf-8"?>
<!-- Generator: Adobe Illustrator 19.0.0, SVG Export Plug-In . SVG Version: 6.00 Build 0)  -->
<svg version="1.1" id="Calque_1" xmlns="http://www.w3.org/2000/svg" xmlns:xlink="http://www.w3.org/1999/xlink" x="0px" y="0px"
	 viewBox="0 0 612 792" style="enable-background:new 0 0 612 792;" xml:space="preserve">
<style type="text/css">
	.st0{fill:#1ABA9A;}
	.st1{fill:#28C4A6;}
	.st2{fill:#F8AE40;}
	.st3{fill:#232323;}
	.st4{fill:#E09E3A;}
	.st5{fill:#231F20;}
	.st6{fill:#221E1F;}
	.st7{fill:#EE6523;}
	.st8{fill:#242021;}
	.st9{fill:#E65E2E;}
	.st10{fill:#DCE9E6;}
	.st11{fill:#E6ECEB;}
	.st12{fill:#E2EBE9;}
	.st13{fill:#E1EBE9;}
	.st14{fill:#E94236;}
	.st15{fill:#DFEAE7;}
	.st16{fill:#E6EDEB;}
	.st17{fill:#454543;}
	.st18{fill:#E5EBEA;}
	.st19{fill:#2FA381;}
	.st20{fill:#EEEFEE;}
	.st21{fill:#ECEDEC;}
	.st22{fill:#FDCB98;}
	.st23{fill:#CBCBCA;}
	.st24{fill:#221F20;}
	.st25{fill:#F6B451;}
	.st26{fill:#B88437;}
	.st27{fill:#F0B982;}
	.st28{fill:#242122;}
	.st29{fill:#454442;}
	.st30{fill:#454342;}
	.st31{fill:#242C29;}
	.st32{fill:#282B28;}
	.st33{fill:#2A2422;}
	.st34{fill:#292322;}
	.st35{fill:#312923;}
	.st36{fill:#2F2722;}
	.st37{fill:#372D23;}
	.st38{fill:#292321;}
	.st39{fill:#342A22;}
	.st40{fill:#252121;}
	.st41{fill:#C98F39;}
	.st42{fill:#0B0804;}
	.st43{fill:#030301;}
	.st44{fill:#050402;}
	.st45{fill:#0A0703;}
	.st46{fill:#020201;}
	.st47{fill:#090603;}
	.st48{fill:#010101;}
	.st49{fill:#414042;}
	.st50{fill:#28C3A6;}
	.st51{fill:#28C3A5;}
	.st52{fill:#1AB99A;}
	.st53{fill:#1BB999;}
	.st54{fill:#040302;}
	.st55{fill:#030201;}
	.st56{fill:#040301;}
	.st57{fill:#1B1308;}
	.st58{fill:#F8AD40;}
	.st59{fill:#B7B9BB;}
	.st60{fill:#27BD9F;}
	.st61{fill:#21B99B;}
	.st62{fill:#2ABEA0;}
	.st63{fill:#2BBDA0;}
	.st64{fill:#EBEBEB;}
	.st65{fill:#D8995A;}
	.st66{fill:#CF9050;}
	.st67{fill:#D19354;}
	.st68{fill:#2B2625;}
	.st69{fill:#DA9E62;}
	.st70{fill:#DA9D61;}
	.st71{fill:#E3E4E5;}
	.st72{fill:#B8BABC;}
	.st73{fill:#57585A;}
	.st74{fill:#EAA43C;}
	.st75{fill:#262121;}
	.st76{fill:#E3923E;}
	.st77{fill:#E0C861;}
	.st78{fill:#E3E4E4;}
	.st79{fill:#58595B;}
	.st80{fill:#242020;}
</style>
<g>
	<path class="st0" d="M318.8,606.8c-83.8,0-167.6,0-251.4,0.1c-3.4,0-4.1-0.6-4.1-4.1c0.1-168,0.1-335.9,0-503.9
		c0-3.9,1.2-4.2,4.5-4.2c167.8,0.1,335.6,0.1,503.4,0c3.6,0,4.4,0.7,4.4,4.3c-0.1,167.8-0.1,335.6,0,503.4c0,4-1.2,4.5-4.7,4.5
		C486.8,606.8,402.8,606.8,318.8,606.8z"/>
	<path class="st1" d="M458.5,253.5c1.6,6.8,6.9,11.6,9.9,17.7c3.3,6.9,7.3,13.4,8.9,21c-2.4,2.3-5.1,1-7.5,0.3
		c-13.3-3.8-26.4-2.8-39,2.6c-21.9,9.4-35.2,26-38,49.8c-3.3,27.7,8.6,48.5,32.3,62.3c13.7,8,28.9,9.4,44.4,5.5
		c2.6-0.6,5.4-2.5,7.9,0.2c-1.9,9.5-7,17.7-11.7,25.7c-14.8,25.3-35,45.4-60.2,60.4c-4.7,2.8-9.3,5.8-14.9,6.8
		c-2.9-1.4-2.4-4.1-2.4-6.5c0-7.9-1.3-15.7-1-23.6c-0.8-4.1,0.7-8.1,0.7-12.2c-0.2-8.7-2.3-11-11.3-11.8c-7.2-1.9-14.5-3.7-21.5-6.3
		c-7.2-2.2-15-3.1-21.1-8.3c-2.1-4.7-2.7-9.6-2-14.7c0.1-2,1.3-3.4,2.9-4.4c7.8-4.6,12.2-11.9,16.1-19.7c0.8-1.6,1.5-3.3,2.8-4.7
		c3.2-3,7.9-4.5,9-9.4c4-4,5.3-9.3,6.4-14.6c3.2-9.2,3.1-18.7,2.6-28.2c-0.1-2.5,0.1-5-0.3-7.4c-0.3-1.5,0.3-2.7,1-3.9
		c2.6-7.7,5-15.5,2.6-23.8c-1.1-3.7-2.3-7.3-4.7-10.3c-2.9-7.9-9.9-11.7-16.5-15.2c-27.3-14.5-54.2-13.5-80.3,3.3
		c-3.4,2.2-7.1,3.8-8.4,8c-8.1,9.5-10.5,20.1-7,32.1c0.3,1,0.5,1.9,0.5,2.9c-1.6,7.5,0.9,14.8,1.3,22.2c0.2,4.1,0.9,8.2,1.7,12.3
		c0.2,0.8,0.5,1.6,0.3,2.4c-1.9,8.4,1.5,14.7,7.8,20c1.6,3.7,3.8,6.9,7.4,8.9c2,2.7,3.2,5.8,4.8,8.7c3.2,6,7.3,11,12.9,14.9
		c5.9,4.2,7.7,14.8,3.5,21.2c-6.3,4.7-13.9,5.8-21.2,7.7c-7.9,3.1-16.2,4.8-24.3,7.1c-6.5,1.8-6.6,2.4-7.2,9.3
		c-1.1,11.8-0.7,23.5-1,35.3c-0.1,2.6,0.4,5.5-3.1,6.6c-12.3-5.3-23.2-13.1-33.2-21.8c-15.4-13.3-28.6-28.8-38.3-46.9
		c-9.1-17.1-16.4-34.9-18.7-54.4c1.8-2.8,4.7-2.2,7.2-2.2c15.2-0.2,30.3,0,45.5-0.1c2.2,0,4.3,0,6.5-0.1c5.9-0.5,8.3-2.6,8.3-8.4
		c0.2-16.3,0.2-32.7,0-49c-0.1-6-1.9-7.6-8-7.7c-16.3-0.3-32.7,0-49-0.2c-2.7,0-5.8,0.8-7.6-2.4c3.2-15.3,8.9-29.5,17.1-42.8
		c1.6-2.7,4.4-2,6.8-2c35.9,0,71.9,0,107.8,0c2.1,0,4.4,0.4,6.3-0.9c0.2-3.9,2.2-7.4,1.8-11.5c-0.3-3.8-0.9-6.8-5.2-7.7
		c-1.5-0.3-2.6-1.4-3.1-2.9c-0.8-1.7-0.8-3.6-0.8-5.4c-0.1-15.3-0.1-30.7,0-46c0-2.4-0.4-5.2,2.4-6.6c9.6-0.5,19-2.3,28.7-2.2
		c9.9,0,19.8,0.7,29.6,1.9c10.3,1.2,20,4.6,29.9,7.5c0.2,2.1-1.3,2.8-2.8,3.6c-6,3.5-12.1,6.9-18.3,10c-5.8,2.9-12.5,2.8-18.8,4.5
		c-7.9,2.1-16.3,2.6-23.9,6.3c-2.1,1.6-4.4,2.9-6.7,4.1c-1.8,1-2.7,2.2-2.7,4.2c-0.4,4.5,1.2,8.5,3.8,12.1c2.3,4.4,6.9,4.9,10.9,5.4
		c3.4,0.4,7.4,1.5,10.1-2.1c1.2-1,2.4-2,4.1-1.4c1.7,1.4,1.3,3.2,1.2,5c-0.3,6.5,3.3,11.2,8.9,11.7c6.3,0.6,10.4-2.8,11.4-9.7
		c0.4-2.4,0.1-5.2,3.6-5.6c3.4,1.2,6.8,1.3,10.3,1.3c25.8,0,51.5,0,77.3,0c3.2,0,6.3-0.2,9.4,0.5c2.1,0.8,3.5,2.3,4.4,4.3
		C458.6,248.7,460.6,251,458.5,253.5z"/>
	<path class="st2" d="M454.4,243.9c-30.7,0-61.5-0.1-92.2,0.1c-3.2,0-5.6-0.6-7.4-3.2c-1.5,0.2-2.4-0.8-3.4-1.7
		c-4.8-4.6-9.5-5.2-15.3-2.1c-1.5,0.8-2.7,1.9-4.6,1.2c-1.5,0.9-1.7,2.6-2.4,4c-5,1.3-10.1,1.2-14.9-0.7c-3.2-1.3-6.7-1.8-9.7-3.4
		c-3.2-4.4-5.3-9.1-3.7-14.7c3.4-3,7.9-3.8,11.8-5.6c-1.1-0.6-2.7-0.9-2.8-2.6c10.1-4.7,20.9-6.9,31.7-8.6
		c12.7-2,23.1-8.9,34.1-14.6c8.9-4.6,19-5.3,28.4-8.1c2.2-2.6,5.3-2.2,8.2-2.6c6.2-0.9,12.5-0.3,18.7-0.5c2.1-0.1,3.9,0.6,5.3,2.1
		c16.2,2.8,30.5,9.7,43,20.5c3,2.6,7.4,1.3,11.1,2.2c2.7,0.7,5.6,1.1,8.4,1c5.2-0.2,7.7,2.2,8.1,7.2c-1.8,3.7-6,2.8-9.2,4.5
		c3.4,1,7.2-0.7,9.6,2.6c0.5,5.4-0.2,10.6-1.1,15.9c-0.8,1.5-2.3,1.9-3.7,1.9c-5-0.1-9.1,2-12.8,5.1c-2.5-0.1-5.2,1.1-7.6-0.9
		c-1.7-1.1-2.6-2.9-3.9-4.4c-5.8-6.7-14.4-6.3-19.7,0.9C457.3,241,456.8,243.4,454.4,243.9z"/>
	<path class="st3" d="M241.5,503.9c0.6-15.3,1.3-30.6,1.6-45.8c0.1-4.1,1.2-5.8,5.3-6.7c9.7-2.2,19.3-4.9,28.9-7.4
		c2,1.4,1.8,3.2,1.6,5.3c-0.9,8.2-1.9,16.5-3.1,24.7c-0.8,5.7-0.1,6.6,5.9,6.7c1.7,0,3.3,0,5,0.1c1.7,0.1,3.4,0.6,3.9,2.5
		c0.5,1.8-0.5,3.2-1.9,4.3c-3,2.3-6.1,4.6-9.2,6.8c-2.3,1.7-3,3.2-0.3,5.3c10.6,8.3,21,16.8,31.2,25.5c3.1,2.6,6,3,9.5,1.8
		c2.6,0.8,3.3-0.6,3.4-2.8c2.5-5,7.5-7.3,11.6-10.6c7.2-5.8,14.5-11.5,21.9-17.1c-1.3-1.3-3.4-2.3-2.7-4.7
		c12.5-5.2,19.4-17,29.1-25.5c1.2-1.1,2-2.6,2.4-4.4c-5.1,4.7-10,9.6-14.9,14.5c-1.5,1.5-3,3.1-4.7,4.4c-2.1,1.6-4.4,2.3-6.9,0.8
		c-2.6-3.2-2.3-7-2-10.7c4.8-2.9,8.7-6.9,12.6-10.8c3-3,6.3-5.7,6.8-10.4c12.6,1.9,12.6,1.9,12.9,14.4c0.1,3.6,0,7.3,0,10.9
		c-1.2,3.5-3.5,6.3-6.1,8.9c-12,12-23.9,24-36,35.9c-4.3,4.3-8.4,8.9-13.5,12.3c-8.1,1.2-16.3,0.7-24.4,0.6
		c-21-0.2-41.9-0.7-62.9-0.8c-4.4,0-5.3-1.5-5.1-5.5C241.6,518.8,241.4,511.3,241.5,503.9z"/>
	<path class="st4" d="M287.5,184.8c0,19.5-0.1,39-0.1,58.5c-0.6,1.9-2.1,2.4-3.8,2.6c-1.7,0.2-3.3,0.2-5,0.2
		c-39.4,0-78.9,0.1-118.3-0.1c-3.1,0-6.9,1.2-8.8-2.8c0-0.2,0.1-0.5,0.2-0.7c2.1-2.6,5.1-2.1,7.8-2.1c16.3-0.1,32.5,0,48.8-0.1
		c8,0,8.7-0.7,8.9-8.9c0.1-3.1-0.3-6.3,1.6-9.2c1.8-1.6,3.8-1.9,5.8-0.5c1.9,1.5,3.2,3.3,3.2,5.9c0,2.3,0.6,4.4,3.6,4.4
		c2.8,0,3.7-1.8,3.8-4.2c0.1-2.5,1-4.5,2.7-6.2c3.3-1.6,6.5-1.9,9.7,0.2c2.1,1.6,3.2,3.6,3.2,6.4c0,2.5,1.2,4.1,3.9,4
		c2.6-0.1,3.3-1.8,3.4-4c0.1-2,0.3-4,2.1-5.3c1.4-1.9,3.4-2.4,5.6-2.5c2.5,0,4.2-1,4.1-3.8c0-2.2-1.1-3.4-3.3-3.5
		c-2.7-0.1-4,1.4-3.9,3.9c0,2.7-1,4.8-3.1,6.4c-3.4,2.2-6.8,2-10.3,0.2c-2.2-1.7-3.1-3.9-3.4-6.7c-0.4-4.2-2.6-4.7-6.2-1.8
		c-0.5,1.4-0.8,2.9-1.4,4.2c-2.4,6-6.5,7.3-12.5,3.8c-1.1-1.2-2.7-2.2-2.6-4.1c0.3-3.9-2.1-6-4.8-8c-0.9-1.8-1.5-3.6-0.7-5.6
		c2.7-2.3,2.3-4.8,1.1-7.8c-1-2.3-2.1-4.7-1.8-7.5c0.7-2.4,0.6-4.8,0.3-7.4c-0.4-3.5-1.3-7.3,2-10.2c20.3-0.1,40.6-0.1,60.9-0.2
		c4.8,0,6.9,2.7,7,7.2C287.4,181.5,287.4,183.2,287.5,184.8z"/>
	<path class="st5" d="M477.4,412.9c-11.4,3.6-22.9,5.1-34.8,3c-30.4-5.2-53.5-33.3-52.9-64.6c0.6-31.6,25-58.8,55.8-62.7
		c11-1.4,21.5,0.3,31.8,3.6c21.8,9.5,35.9,25.5,40.2,49.1c5.3,29.5-9.7,57.4-37,69.9C479.4,411.8,478.4,412.4,477.4,412.9z"/>
	<path class="st2" d="M219.4,223c0,4.8-0.2,9.6,0.1,14.4c0.2,4.3-1.6,5.4-5.5,5.3c-20.8-0.2-41.5-0.1-62.3-0.1
		c-0.1-21.2-0.2-42.3-0.2-63.5c0-4.2,2.3-6.5,6.5-6.5c20.5,0,41,0.1,61.5,0.2c-0.5,6.3,0.9,12.7-0.7,18.9c-1.3-0.1-2-1.1-2.5-2.1
		c-0.5-1-0.4-2.5-2-2.3c-1.3,0.2-1.6,1.6-2,2.6c-1.1,3.1-1.9,6.3-3,8.9c2.6-2.6,6.3-2.4,9.2-0.7c1.9,1,3.2,3.8,1.1,6.4
		c-0.1,2-0.1,4.1-0.2,6.1c-2,2.8-4.2,5.4-4.1,9.2c0.1,1.6-1.5,2.5-2.5,3.5c-3.5,2.4-7,2.3-10.6,0.2c-1.8-1.5-3.1-3.3-3.1-5.9
		c0-2.3-0.7-4.3-3.6-4.4c-3.2-0.1-3.8,2.1-3.9,4.6c0,2.4-1.2,4.1-2.9,5.5c-3.4,2.4-6.9,2.2-10.4,0.3c-2.2-1.7-3.3-3.9-3.3-6.8
		c0-2.6-1.5-3.9-4.1-3.7c-2,0.2-2.9,1.3-3,3.2c-0.1,2.7,1.3,3.9,3.9,4c2.2,0.1,4.3,0.4,5.7,2.3c2,1.4,2.2,3.6,2.3,5.7
		c0.1,2.3,1.2,3.8,3.7,3.7c2.5,0,3.6-1.5,3.6-3.8c0-2.7,0.9-4.8,3.1-6.4c3.5-2.3,7-2.2,10.5-0.1c1.8,1.5,3.1,3.3,3.1,5.9
		c0,2.3,0.7,4.3,3.5,4.4c3.2,0.1,3.8-2.1,3.9-4.6c0-2.4,1.1-4.1,2.9-5.5C216,220.9,217.8,220.9,219.4,223z"/>
	<path class="st6" d="M151.4,243.3c18.1,0.1,36.2,0.3,54.3,0.3c27.2,0,54.5-0.2,81.7-0.3c8.2,0.6,9.1,1.5,9,10c0,4.3,1.3,9.1-4,11.7
		c-46.8,0-93.6,0.1-140.3,0.1c-8.8,0-9.9-1.1-9.9-9.7c0-0.7,0-1.3,0-2C142.2,244.7,142.8,244,151.4,243.3z"/>
	<path class="st3" d="M333.6,532c-0.8-1.1,0-1.9,0.7-2.6c18.3-18.2,36.6-36.4,55-54.6c0.4,10.3,0.9,20.6,1.3,31
		c0.2,7.1,0.3,14.3,0.6,21.4c0.1,2.8-0.4,4.4-3.7,4.4C369.5,531.7,351.5,531.9,333.6,532z"/>
	<path class="st7" d="M154.4,310.7c18.8,0.1,37.6,0.1,56.5,0.2c8,0,10.7,2.7,10.8,10.8c0,15.8,0,31.7,0,47.5
		c0,8.8-2.6,11.4-11.3,11.4c-17.7,0-35.3,0-53,0c-2,0-4,0.2-6,0.3c-12-0.1-23.9-0.2-35.9-0.3c-8.7-0.1-11.5-2.7-11.5-11.2
		c0-16,0-32,0-47.9c0-7.8,2.9-10.5,10.5-10.6C127.7,310.8,141,310.7,154.4,310.7z"/>
	<path class="st8" d="M458.5,253.5c-0.8-1.9-1.6-3.8-2.4-5.7c-0.9-7.9,3.1-14.2,9.6-15.4c7.7-1.4,13.6,2.5,15.7,10.5
		c0.3,6.2-1.5,11.3-7.4,14C468.2,259.6,463,257.7,458.5,253.5z"/>
	<path class="st9" d="M436.4,182.9c-10.8-0.8-21.5,0.8-32.3,1c-0.5-3.4,1.1-4.9,4.5-4.9c7.8,0,15.5,0,23.3,0
		C434.5,179.1,436.5,179.8,436.4,182.9z"/>
	<path class="st10" d="M337,573.8c-3,0.4-3.1-2.3-4.2-3.6c-1.1-1.3-1.9-2.9-3.9-2.5c-2.3,0.4-1.2,2.3-1.5,3.6
		c-0.2,0.9,0.4,2.3-1.1,2.3c-1.4,0.1-1.3-1.3-1.3-2.2c-0.1-3-0.3-6-0.1-9c0.1-1.9-1.3-4.8,1.8-5.4c3.1-0.6,6.5-0.8,8.8,2
		c1.8,2.1,1.6,4.6-0.3,6.8C332.1,569.2,337.7,570.5,337,573.8z"/>
	<path class="st11" d="M311.1,556.8c4.6,0.1,8,1.2,9.6,5.2c1.3,3.3,1.1,6.6-1.3,9.4c-2.7,3.2-6.4,3-10.1,2.7
		c-1.8-0.1-1.9-1.4-1.9-2.8c0-3.3,0.2-6.6-0.1-9.9C307,557.7,308.3,556.2,311.1,556.8z"/>
	<path class="st11" d="M390,573.7c-3.6,0.2-3.7-2.1-4.8-3.4c-1.2-1.4-2.1-3.2-4.3-2.6c-2.3,0.7-1,2.8-1.4,4.2
		c-0.2,0.6-0.3,1.2-1.1,1.9c-1.7-3.5-1-7.3-1.1-10.9c0-1.9-1-4.6,1-5.5c2.5-1.1,5.6-0.9,8.2,0.5c2.1,1.2,3.6,3.7,2.3,5.3
		C385.5,567.1,387.3,570.1,390,573.7z"/>
	<path class="st12" d="M268.8,557.1c1.2,0.2,1.6,1.1,1.9,2c1.7,4.1,3.3,8.3,5,12.4c0.3,0.7,0.9,1.6,0,2.2c-0.8,0.5-1.5-0.1-2.1-0.7
		c-3.8-4.4-6.5-4.4-9.9-0.2c-0.4,0.5-0.8,1.1-1.5,1c-0.8-0.2-0.9-0.9-0.7-1.5c1.9-4.8,3.8-9.5,5.8-14.2
		C267.5,557.3,268.1,557,268.8,557.1z"/>
	<path class="st13" d="M277.7,573.7c5.2-5.4,7.2-10.7,0-16.6c4.9,0.1,5,3.8,7.2,5.3c2.8-0.8,2.4-5.1,7.2-5.5
		c-6.1,6-4.9,11.4,0.4,16.6c-4,1-4.1-2-5.1-3.5c-1.7-2.6-2.8-2.7-4.5,0C282.1,571.5,281.8,574.1,277.7,573.7z"/>
	<path class="st14" d="M507.3,220.8c-4,0-7.9,0.1-11.9,0c-1.1,0-3,0.7-3.1-1.3c-0.1-1.6,1.1-2.9,2.6-3.3c4-1,8-1.7,12.1-2.5
		C507.6,216.1,507.5,218.4,507.3,220.8z"/>
	<path class="st15" d="M352.9,570.3c2.3-3.6,3.1-7.6,4.5-11.3c0.3-0.9,0.7-2.2,1.9-1.8c1.4,0.4,0.7,1.6,0.4,2.5
		c-1.5,4-3.1,8.1-4.7,12.1c-0.4,1-0.8,2.3-2.4,2.1c-1.3-0.1-1.6-1.1-2-2c-1.7-4.2-3.3-8.4-5-12.5c-0.3-0.8-0.6-1.8,0.2-2.2
		c1.1-0.5,1.8,0.4,2.2,1.4C349.9,562.4,350.6,566.5,352.9,570.3z"/>
	<path class="st16" d="M372.3,564.9c-1.8,2.7-7.5-1.3-6.8,4.4c0.8,5.5,6.1,0.6,8.6,3.9c-3.5,1.3-6.9,1-10.3,0.2
		c-0.8-0.2-1.3-15.1-0.4-15.6c3.1-1.7,6.4-1.1,10.5-0.1c-2.3,1.8-4.1,1.3-5.8,1.3c-1.8,0-2.8,0.5-2.8,2.5c0,2.1,1.1,2.5,2.8,2.5
		C369.5,564,370.9,563.7,372.3,564.9z"/>
	<path class="st17" d="M489.7,243.7c2.5-9.3,10.1-6.8,16.5-7c0.4,2.1-0.8,2.9-2.7,3.4C498.9,241.2,494.3,242.5,489.7,243.7z"/>
	<path class="st18" d="M248.6,558c4.4-1.3,8.5-1.4,13-0.1c-8.1,0.7-4.5,6.5-5.2,10.4c-0.3,1.8,0.9,5.1-1.1,5.1c-2.3,0-0.9-3.2-1.2-5
		c-0.2-0.8-0.1-1.7,0-2.5C254.5,561.9,254.5,558.2,248.6,558z"/>
	<path class="st19" d="M481.5,242.9c-4.5-12.8-17.3-11.9-22.5-5.4c-2.5,3.1-2.7,6.6-2.8,10.2c-0.6-1.3-1.2-2.6-1.8-3.9
		c1.7-5.5,4.4-10,10.2-11.8c7.9-2.4,15.2,2.1,17.6,10.7C481.9,242.9,481.7,242.9,481.5,242.9z"/>
	<path class="st20" d="M340.9,574.7c0-6.5,0-12,0-18.1C343.2,560.5,343.3,569.9,340.9,574.7z"/>
	<path class="st21" d="M295.5,573.7c-0.5-5.5-0.4-11,0-16.4c0.4,0,0.9,0,1.3,0c0,5.5,0,11,0,16.4
		C296.4,573.7,295.9,573.7,295.5,573.7z"/>
	<path class="st22" d="M370.6,371.2c-0.1,5.5-1.3,10.7-6.2,14.1c-3,3.2-7.3,5.1-9,9.5c-4.7,11.2-11.1,21-22,27
		c-0.9,1.1-1.2,2.7-2.7,3.4c-7,3.4-14.2,5.3-22,2.7c-0.5-0.2-1-0.2-1.4-0.4c-0.4-0.2-0.8-0.5-1.2-0.8c3.5,2.4,7.9,3.6,9.8,8
		c0.6,8.5,1.1,17.1,0.6,25.6c-0.1,2.1-1.6,3.6-2.5,5.3c-4,2.5-7.9,1.5-11.8-0.6c-0.5-0.4,0.1,0.2-0.4-0.3
		c-4.7-4.4-7.6-22.1-4.5-27.7c1.8-4.3,1.2-8.8,1.2-13.3c0-1.5-0.6-2.5-1.9-3.2c-9.8-5.9-16.2-14.6-20.2-25.1
		c-0.2-0.4-0.6-0.8-0.9-1.1c-1.2-3.9-3.9-6.6-7.1-8.9c-8-5.6-10.6-12.4-8.3-22.1c0.4-3.9,3-4.6,6.1-4c4.2,0.9,5.7-1.1,6.7-4.6
		c2-6.8,3.9-7.5,9.7-3.2c2.7,2,5.5,3.7,8.4,5.4c2.8,1.6,4.8,3.5,4.4,7.5c2.6-3.2,5.7-3.5,9.2-2.7c14.1,2.9,27.1-0.5,39.1-7.9
		c3.7-2.2,7.2-4.8,10.8-7.2c3.9-2.6,5.9-1.8,7.4,2.7c0.4,1.1,0.7,2.2,0.7,3.4c-0.1,3.3,0.5,5.7,4.4,6.5c2.6,0.5,3.9,2.7,4.1,5.6
		C371.3,367,370.7,369.1,370.6,371.2z"/>
	<path class="st23" d="M297.3,437.1c0.7,9.1,2.1,18,5,26.6c2.8,3.1,3.2,7.2,4,11.1c2.9,14.3,6.4,28.5,9.2,43.1
		c3.5-16.4,8.1-32.3,11.7-48.5c0.5-2.1,2.2-3.8,1.7-6.1c0.8-7.1,2.5-14.1,3.7-21.2c0.3-2,0.7-4.4,3.2-5.2c6.6,2.3,13.1,4.7,19.7,7
		c2.3,1.8,2.8,4.4,3.1,7c0.5,4.7,1.2,9.4,1.7,14.1c0.2,1.9,0.1,3.6-1.5,4.9c0.5,3.7,1,7.4,1.6,11c0.3,3.4-2.5,3.2-4.5,3.8
		c-2,0.6-4.2-0.1-6.3,0.6c1.6,2.3,5,3,5,6.4c1.8,1.5,3.5,2.9,5.6,4.7c-11.9,9.5-23.7,18.9-35.5,28.4c-0.6,2.1-1.7,3.4-4.1,3.2
		c-3.7,3.9-6.5,3.3-10.6-0.3c-10.9-9.7-22.4-18.8-33.9-27.8c-3.6-2.8-2.7-4.1,0.4-6.2c4.7-3.1,9.2-6.6,13.7-11c-4.7,0-9.3-0.1-14,0
		c-2.9,0.1-3.6-0.7-3.2-3.7c1.7-11.7,3-23.4,4.4-35.1C284,441.7,290.6,439.4,297.3,437.1z"/>
	<path class="st2" d="M372.3,294.9c7.9,11.7,8.2,23.8,1.6,36.2c-1.9,1-3.5,0.1-5-1c-13.2-9.8-27.9-15.8-44.3-17.6
		c-8.8-0.9-17.2,0.4-25.6,2.2c-12.4,2.7-23.9,7.9-34.5,15c-1.7,1.1-3.3,2.2-5.5,2c-2.3-0.6-1.8-2.8-2.4-4.3
		c-4.3-13.4-2.7-25.7,6.9-36.4c12.3-9.2,26.6-12.8,41.4-14.1c16-1.4,31.9,0.4,47,6.1C359.4,285.6,366.5,289.1,372.3,294.9z"/>
	<path class="st24" d="M256.6,327.3c0.7,1.1,1.3,2.3,2,3.4c2.6,0.4,3.7,2.8,5.7,4.1c12.1,6.2,24.6,10.8,38,13.1
		c22,3.7,42.6-0.4,62.1-10.9c1.5-0.8,2.9-1.5,4.5-2.2c1.3-0.8,2.5-2,4.2-1.4c2.1,12.8,2.3,25.5-2.4,37.9c-0.2-1.7-0.2-3.3-0.6-4.9
		c-1.3-5.6-3.6-6.7-9.4-4.3c-0.3-5.3-0.1-10.6-1.7-16c-3.9,2.8-7.6,5.6-11.4,8.2c-14.2,9.4-29.5,13.6-46.5,9.1
		c-1.8-0.5-2.8-0.6-2.7,1.8c0.1,2-1.2,3-3,3.4c-1.4,0.3-2.7-0.4-3.4-1.6c-1-1.6-0.9-3.4,0.6-4.5c1.6-1.2,0.8-1.8-0.3-2.3
		c-5.8-2.6-10.9-6.2-15.9-10.4c-1.3,1.6-0.7,3.2-1.1,4.5c-0.8,2.5-1.2,5.4-2.6,7.5c-2.1,3.1-4.6-0.4-7.1-0.5
		c-2.3-0.1-4.3-0.2-5.7,2.1C257.3,351.4,256,339.5,256.6,327.3z"/>
	<path class="st25" d="M372.3,294.9c-3.5-1.6-7-3.1-10.4-4.8c-30.4-15.2-61-14.9-91.9-1.5c-2.1,0.9-4.4,1.6-6.6,2.4
		c8.2-10.4,19.3-16,31.8-19.2c19.4-5.1,38.2-3.6,56.3,5.2C360,281,367.4,286.5,372.3,294.9z"/>
	<path class="st26" d="M373.1,333.4c-0.9,0.8-1.7,1.6-2.6,2.4c-2.1,0-3.8-0.9-5.4-2.2c-10.4-7.9-22.3-11.8-35-13.4
		c-3.3-0.4-6.2-2-9.7-1.9c-19.3,0.6-37.6,4.1-53.5,15.9c-1.4,1-2.9,1.5-4.6,1.5c-2-1.1-2.7-3.1-3.6-5c11.6-7.9,23.9-14.4,37.6-17.8
		c28.2-7,53.5-1,76.1,17.1c0.5,0.4,1.1,0.7,1.7,1.1C373.6,331.9,373.4,332.6,373.1,333.4z"/>
	<path class="st27" d="M335.7,436.9c-1.6,9.1-2.6,18.2-5.3,27.1c-4.1,4.1-12.5,4.5-17,0.8c1.3-6.4,1.3-12.8,0.3-19.3
		c-0.6-3.7,1.2-7.5,0.6-11.4c3.8-3.5,8.8-5.1,12.9-8.1c1.1-0.8,2.4-1.2,3.2-2.3c1-0.6,2-1.2,3-1.8C333,427,335,431.8,335.7,436.9z"
		/>
	<path class="st3" d="M358.6,469.9c-1.1-8.7-2.2-17.3-3.3-26c7.1,1.6,14.2,3.3,21.1,5.7c2.9,2.5,2.5,4.6-0.3,7.2
		c-4.4,4-8.5,8.4-12.7,12.6C361.9,470.8,360.5,472.4,358.6,469.9z"/>
	<path class="st28" d="M331.6,238.1c8.2-8.5,18.7-7.3,23.2,2.6c1.9,8.5-1.5,15.2-8.5,17c-6.6,1.7-13.3-2-15.5-8.4
		C329.5,245.4,331.1,241.8,331.6,238.1z"/>
	<path class="st29" d="M304.6,238c4.5-0.6,8.5-0.5,12.5,2.5c3.3,2.5,8,1.3,12.1,1.6c-0.3,0.6-0.4,1.4-0.9,1.6
		C321.4,246.5,309.7,243.6,304.6,238z"/>
	<path class="st30" d="M309.9,215.1c2.8,0.2,5.5,0.5,9.5,0.8c-6.1,4.5-11.7,7.3-18.5,7.4C302.4,218.9,306.3,217.2,309.9,215.1z"/>
	<path class="st31" d="M355.4,394.8c0-6,3.6-8.6,9-9.5C362.9,389.9,359,392.2,355.4,394.8z"/>
	<path class="st32" d="M268.3,385.4c5.6,0.4,7.5,3.8,7.1,8.9C272.4,391.9,269.9,389,268.3,385.4z"/>
	<path class="st33" d="M415.6,188c20,0.4,38.7,4.5,54.9,19.7c-19.3,0-37.1,0-55,0C412.9,201.1,412.8,194.6,415.6,188z"/>
	<path class="st34" d="M414.2,207.7c-17.7,0-35.3,0-53,0c14.4-15.3,33-19.3,52.9-19.8C415.3,194.6,415.3,201.1,414.2,207.7z"/>
	<path class="st35" d="M421.3,223.6c-2.6,0.1-5.2,0.1-7.8,0.2l0.1,0.1c-0.1-1.3-0.2-2.6-0.3-3.9c-0.2-2.6,0-4.4,3.5-4.3
		c3,0.1,4.8,0.6,4.3,4.1c-0.2,1.3,0,2.6,0,4L421.3,223.6z"/>
	<path class="st36" d="M390.2,223.8c-2.6,0-5.2-0.1-7.9-0.1l0.1,0.1c0-1.2,0.2-2.3,0-3.5c-0.5-3.4,0.8-4.5,4.3-4.6
		c4.1-0.1,3.6,2.3,3.5,4.8c0,1.1-0.2,2.3-0.3,3.4L390.2,223.8z"/>
	<path class="st37" d="M428.5,223.7c0.1-1.2,0.3-2.3,0.1-3.5c-0.4-3.4,0.9-4.5,4.4-4.6c4.2-0.1,3.5,2.4,3.5,4.8
		c0,1.1-0.2,2.3-0.3,3.4c0,0,0.1-0.1,0.1-0.1c-2.6-0.1-5.3-0.2-7.9-0.3L428.5,223.7z"/>
	<path class="st38" d="M405.2,223.9c-2.2,0-4.4,0-6.6,0.1l0.1,0.1c-1-1.5-0.5-3.2-0.7-4.8c-0.3-2.9,1.2-3.5,3.8-3.5
		c2.5,0,4.2,0.3,3.8,3.4c-0.2,1.6-0.3,3.2-0.5,4.8L405.2,223.9z"/>
	<path class="st39" d="M436.2,224c1.3-0.1,2.6-0.2,4-0.4c2.8-0.3,4.2,0.4,4.2,3.7c0,3.1-1.1,3.9-4.1,4c-3,0-4.3-0.9-3.9-4
		c0.2-1.1,0-2.3,0-3.5C436.3,223.9,436.2,224,436.2,224z"/>
	<path class="st40" d="M413.6,223.8c-0.1,1-0.2,2-0.2,3c0.3,2.9-0.2,4.6-3.9,4.5c-3.5,0-4.3-1.5-4-4.5c0.1-1-0.2-2-0.3-2.9
		c0,0-0.1,0.1-0.1,0.1c2.8-0.5,5.7-0.5,8.6-0.1C413.7,223.9,413.6,223.8,413.6,223.8z"/>
	<path class="st8" d="M398.6,224c-0.2,1-0.6,1.9-0.5,2.9c0.3,3-0.5,4.4-4,4.5c-3.8,0.1-4-1.8-3.8-4.6c0.1-1-0.1-2-0.1-3
		c0,0-0.1,0.1-0.1,0.1c2.9-0.3,5.8-0.5,8.6,0.2C398.7,224.1,398.6,224,398.6,224z"/>
	<path class="st5" d="M421.2,223.8c2.4,0,4.9,0,7.3,0c0,0-0.1-0.1-0.1-0.1c-0.4,2.6,2.7,6.4-2.2,7.5c-2.9,0.7-5.7,0.3-5-4
		c0.2-1.1,0.1-2.3,0.1-3.4C421.3,223.6,421.2,223.8,421.2,223.8z"/>
	<path class="st5" d="M382.4,223.6c0.1,1.6,0.1,3.3,0.2,4.9c0.2,3.3-2.2,2.5-4.1,2.6c-2.5,0.2-3.8-0.7-3.4-3.3
		c0.2-1.7-0.9-4.3,2.4-4.2c1.6,0,3.3,0.1,4.9,0.1C382.5,223.8,382.4,223.6,382.4,223.6z"/>
	<path class="st41" d="M414.2,207.7c0-6.6,0-13.2,0-19.8c0.5,0,1,0,1.5,0c0,6.6,0,13.2-0.1,19.7
		C415.1,207.7,414.7,207.7,414.2,207.7z"/>
	<path class="st3" d="M354.4,491.8c-3.9-2.7-7.9-5.4-11.8-8c0.1-0.5,0.1-1,0.2-1.4c4.2,0,8.3,0.1,12.5,0c1.7,0,3.8,0.6,4.9-1.4
		c2.8,0.1,4.5-1.8,6.3-3.6c6.9-6.9,13.8-13.8,21.1-21.2c1.5,4.6,1,7.9-1.8,10.8c-8,8-16,16-23.9,24.1
		C359.4,493.5,356.9,491.9,354.4,491.8z"/>
	<path class="st3" d="M320.4,528.1c1.4-1.1,2.7-2.1,4.1-3.2c3.3,2.7-1.8,3.3-1.4,5.4c0.2,0.7-0.9,1.4-1.8,0.9
		C320.2,530.5,320.5,529.2,320.4,528.1z"/>
	<path class="st42" d="M225.6,222.7c3.6-0.1,8.3,1.6,10.4-0.7c1.9-2.2,1-6.8,1.3-10.4c3,3.7,3,7,0,10.9c-0.1,3-0.4,6-0.3,8.9
		c0.1,2.6-0.9,3.4-3.5,3.4c-10.3-0.2-8.1,1.1-8.4-7.9c0-1.4-0.4-3,0.7-4.3L225.6,222.7z"/>
	<path class="st43" d="M260.3,222.8c0.1-2.3,0.4-4.7,0.1-7c-0.5-3.9,0.9-5.6,4.9-4.9c2.2,0.4,5.8-1.1,6.5,0.8
		c1.1,2.9,0.5,6.5,0.5,9.8c0,1.8-1.6,1.3-2.7,1.3c-3.2,0-6.3-0.1-9.5-0.2C260.1,222.6,260.3,222.8,260.3,222.8z"/>
	<path class="st44" d="M213.8,223.2c-1.1-1.9-0.3-3.9-0.6-5.8c-0.8-4.9,0.8-7.5,6.1-6.7c4.6-0.5,6.6,1.3,5.9,6.1
		c-0.3,1.9-0.5,4,0.4,5.9c0,0,0.1-0.1,0.2-0.1c-2.1,0.1-4.3,0.3-6.4,0.4c-1.9,0-3.7,0.1-5.6,0.1L213.8,223.2z"/>
	<path class="st44" d="M260.1,222.6c0.1,2,0.1,4,0.4,5.9c0.7,4.7-0.6,6.6-6,6.4c-4.6-0.2-6.7-1-6-6c0.3-1.9,0.5-4-0.4-5.8l-0.1,0.1
		c4.1-0.1,8.2-0.3,12.3-0.4C260.3,222.8,260.1,222.6,260.1,222.6z"/>
	<path class="st45" d="M219.5,204.6c-0.7-2.4-0.1-5.3-4.1-5.6c-3.8-0.3-5.9,0.8-6.6,4.7c-0.2,1.3-0.8,2.8-2.6,2.1
		c-1.8-0.8-0.2-2,0.1-2.9c1.6-5.2,3.4-10.4,5.2-15.5c0.5-1.3,0.6-3,2.7-3.1c2.1-0.1,2.3,1.6,2.8,2.9c0.6,1.5,1.1,3.1,1.7,4.6
		c1.2,3.7,2.5,7.4,3.7,11.2c0.2,0.8,1.2,1.9,0.2,2.6C221.3,206.4,220.3,205.5,219.5,204.6z"/>
	<path class="st46" d="M237.3,222.5c0-3.6,0-7.3,0-10.9c3-1.5,6.1-0.3,9.2-0.7c1.4-0.1,2.2,0.6,2.1,2c-0.2,3.4,0.6,6.9-0.6,10.3
		c0,0,0.1-0.1,0.1-0.1C244.5,222.9,240.9,222.7,237.3,222.5z"/>
	<path class="st47" d="M224.5,206c0.8-1.5,1.1-2.3,1.6-2.9c4.5-5.2,5.3-10.3,0.4-15.7c-0.6-0.7-2-2-0.4-2.9c1.2-0.6,2.1,0.4,2.7,1.5
		c1.2,2.2,2.5,4.3,3.7,6.3c3.1-2.1,2.6-7.4,8.1-7.7c-6.5,7-7.3,13.8,1,20.4c-3.7,0.4-3.7,0.4-8.6-7.1
		C229.3,199.4,230.3,205.5,224.5,206z"/>
	<path class="st48" d="M247.2,195.2c0,2.8,0,5.7,0,8.5c0,1-0.2,2.1-1.5,2.1c-1.2,0-1.2-0.9-1.2-1.7c0-6,0-12,0-18
		c0-0.9,0.3-1.7,1.4-1.6c0.9,0.1,1.4,0.8,1.4,1.7C247.2,189.2,247.2,192.2,247.2,195.2z"/>
	<path class="st49" d="M402.5,367c-3.9-14.1-2.3-27.5,4.9-40.2c2.1-0.8,4.1-0.8,6.3,0c10.6,3.9,21.6,6.9,32.9,7.9
		c1.7,0.2,3.3,0.5,4.2,2.2c0.6,2.3-0.9,3.3-2.6,4.1c-1.4,0.7-2.8,1.1-4.2,1.7c-4.6,2-7.9,5.2-8.1,10.4c-0.3,5.3,3.2,8.7,7.4,10.9
		c6.7,3.4,13.8,3.5,20.7,0.5c4.5-2,7.8-5,8-10.4c0.2-5.7-3.3-8.8-7.5-11.4c-1.4-0.9-3.1-1.1-4.6-1.8c-1.7-0.7-3.6-1.4-2.4-3.9
		c1.6-1.6,3.7-2.3,5.9-2.3c7.8,0.1,15.1-2.2,22.5-4c3.1-0.3,5.5-2.1,8.1-3.4c2.1-1,4.2-1.8,6.6-1.5c6.1,10.6,8.8,21.8,6.6,34.1
		c-3.4,2.7-7.4,2.1-11.3,2.2c-2.4,0-4.9,0-7.3,0.2c-4,0.9-8.1,1.6-12,3.1c-6.3,2.5-8,6.1-6.2,12.6c1.6,5.5,4.1,10.5,7.3,15.2
		c1.3,2,2.7,3.9,1.8,6.4c-15,8-30.4,8.2-46.2,2.4c0.4-3.8,3.2-6.5,4.7-9.8c1.7-3.6,3.4-7.2,4.2-11.1c1.4-6.8-0.7-10.5-7.4-12.3
		c-6.4-1.7-13-2.3-19.7-1.3C411,368.2,406.7,369,402.5,367z"/>
	<path class="st1" d="M450.5,337.7c-8.6-1.5-17.4-2.2-25.8-4.7c-5.9-1.8-11.7-3.6-17.2-6.2c14-27.2,51.4-36.4,75.9-18.8
		c4.5,5.4,5,12.1,6.1,18.6c0.4,2.3-0.6,4.2-2.1,5.9c-9.6,3.8-19.9,4.3-30,5.3C455,340.4,452.7,340.4,450.5,337.7z"/>
	<path class="st50" d="M402.5,367c10.8-2.2,21.7-3,32.6-0.6c8.7,2,11.4,6.6,9.4,15.4c-1.5,6.8-4.8,12.7-8.3,18.5
		c-0.7,1.1-1.6,1.7-2.8,1.7C417.9,395,407.5,383.4,402.5,367z"/>
	<path class="st51" d="M479.6,399.6c-5.4-6.4-9.5-13.5-11.6-21.7c-1.9-7.6,0-11.6,7.3-14.5c3.8-1.6,7.8-2.8,12-2.7
		c2.2-0.1,3.1,1.5,3,3.2c-0.7,11.4,0.2,23.1-6.9,33.1C482.2,397.9,480.9,398.8,479.6,399.6z"/>
	<path class="st52" d="M483.4,397c1.8-8.8,3.9-17.6,4.6-26.6c0.2-3.2,1.1-6.5-0.7-9.6c6.6-1.5,13.3-1.2,19.9-0.8
		c-1.7,10.3-5.6,19.6-12.5,27.5C491.4,391.2,488,394.7,483.4,397z"/>
	<path class="st53" d="M487.3,332.5c0.5-8.5-2.9-16.3-4-24.5c7.5,4.3,12.8,10.7,17.3,17.9C497.1,329.9,492,330.7,487.3,332.5z"/>
	<path class="st54" d="M201.4,222.9c4.1,0.1,8.3-0.5,12.4,0.4c0,0-0.1-0.1-0.1-0.1c-0.9,2.4-0.6,4.9-0.4,7.3
		c0.3,3.6-1.2,4.4-4.5,4.3c-7.5-0.2-7.5,0-7.5-7.7c0-1.5,0.1-3,0.2-4.4L201.4,222.9z"/>
	<path class="st55" d="M177.1,223.1c4.1-0.1,8.2-0.2,12.3-0.2l-0.1-0.1c0,2.5-0.2,5,0.1,7.5c0.5,3.8-1,4.8-4.7,4.6
		c-7.3-0.2-7.3,0-7.3-7.4c0-1.5-0.1-3-0.1-4.5L177.1,223.1z"/>
	<path class="st56" d="M201.6,222.7c-4.1,0-8.2,0-12.3,0c0,0,0.1,0.1,0.1,0.1c0-2,0.2-4-0.1-6c-0.9-5.3,1.4-6.1,6.2-6.2
		c5.1-0.1,6.4,1.6,5.8,6.2c-0.3,1.9,0.1,4,0.1,6C201.4,222.9,201.6,222.7,201.6,222.7z"/>
	<path class="st56" d="M177.3,222.9c-1.3,0-2.6-0.1-4-0.1c-7.9,0-7.8,0-7.9-7.8c0-3.2,0.9-4.6,4.2-4.2c1.6,0.2,3.3,0.2,5,0
		c2.1-0.2,3,0.6,2.9,2.8c-0.2,3.1-0.2,6.3-0.3,9.4C177.1,223.1,177.3,222.9,177.3,222.9z"/>
	<path class="st57" d="M197.4,196.1c0-1.8-0.2-3.7,0-5.5c0.3-3-0.6-4.3-3.8-3.9c-1,0.1-2.6,0.5-2.6-1.3c0-1.2,1.3-1.3,2.3-1.3
		c3.6,0,7.3,0,10.9,0c1,0,2.2,0,2.4,1.2c0.2,1.4-1.2,1.5-2.1,1.3c-4.2-0.8-4.4,1.6-4.3,4.8c0.2,4,0,8,0,11.9c0,1.2,0,2.5-1.7,2.3
		c-1.4-0.1-1.3-1.3-1.3-2.2C197.3,201.1,197.4,198.6,197.4,196.1z"/>
	<path class="st58" d="M163,315.8c15.8,0,31.7,0.1,47.5-0.1c4.6-0.1,6.2,1.6,6.1,6.1c-0.2,15.8-0.1,31.7,0,47.5
		c0,4.7-1.9,6.5-6.6,6.5c-31.7-0.1-63.3-0.1-95,0c-4.8,0-6.6-2.1-6.6-6.6c0-15.8,0.1-31.7,0-47.5c0-4.6,2.2-6,6.5-6
		C131,315.9,147,315.8,163,315.8z"/>
	<path class="st59" d="M468.9,252.7c-3.9,0-7.4-3.5-7.3-7.4c0.1-3.8,3.3-6.9,7.1-7c4-0.1,7.3,3.3,7.3,7.3
		C475.9,249.4,472.6,252.6,468.9,252.7z"/>
	<path class="st60" d="M327.4,562.5c-0.1-2-0.1-3.7,2.4-3.5c2.3,0.2,4.5,0.8,4.3,3.6c-0.1,2.6-2.4,2.8-4.4,2.9
		C327.2,565.6,327.3,563.9,327.4,562.5z"/>
	<path class="st61" d="M309.4,565.5c1.5-2-2-6.2,3-6.5c3.9-0.3,6.4,2.5,6.3,6.7c-0.1,4-2,6.4-6.1,6.2
		C307.4,571.8,310.7,567.7,309.4,565.5z"/>
	<path class="st62" d="M379.4,562.1c-0.1-1.9,0.1-3.4,2.5-3.2c2.2,0.2,4.4,0.6,4.4,3.5c0,2.7-2.2,2.8-4.2,3.1
		C379.4,565.8,379.3,564,379.4,562.1z"/>
	<path class="st63" d="M266.1,567.4c0.2-2.4,0.9-4.5,2.7-6.6c1.4,2,3,4.3,2.3,6.2C270.4,568.7,267.9,567.8,266.1,567.4z"/>
	<path class="st64" d="M313.4,464.8c5.7,0.2,11.4,0.4,17-0.8c-2.3,15.3-7.3,30-10.6,45.1c-1.1,5.3-2.6,10.5-4.3,17.1
		c-3.4-9.1-4.1-17.2-6-25c-2.6-10.6-4.8-21.4-7-32.1c-0.3-1.7-1.3-3.5-0.3-5.3C305.9,464.5,309.6,465.2,313.4,464.8z"/>
	<path class="st65" d="M330.4,423.6c-4.2,5.3-8.4,10.6-16.1,10.4c-5.3-2.2-9.3-5.9-13.8-11.4C311.3,427.4,320.8,428.3,330.4,423.6z"
		/>
	<path class="st66" d="M306.8,385.8c5.3,0.9,9.9,1.7,15.1-0.5c-1.6,4.1-3.9,5.9-6.9,6.1C311.6,391.5,309,389.6,306.8,385.8z"/>
	<path class="st67" d="M322.9,402.2c-6.5,3.9-11.4,3.3-17.8-2.6C311.8,401.3,317.3,402.5,322.9,402.2z"/>
	<path class="st68" d="M340.4,365.7c-0.1,2.4-1.4,3.8-3.6,3.9c-1.9,0-3.4-1.2-3.5-3.3c-0.1-2.1,1-3.5,3-3.7
		C338.6,362.2,339.9,363.5,340.4,365.7z"/>
	<path class="st69" d="M368.4,369.2c-6.1-2.3-1,7.2-6.3,5.5C361,369.4,363.1,367.3,368.4,369.2z"/>
	<path class="st70" d="M270.8,374.7c-4.9,1-1.7-6.9-6.8-5.7C269,367.3,270.2,368.4,270.8,374.7z"/>
	<path class="st71" d="M262.2,335.7c9.9-10.4,22.6-14.9,36.3-17.2c19.5-3.4,38.4-1.8,56.7,6.4c5.8,2.6,11,6.1,15.3,10.9
		c-16.7,11.5-35.4,16.3-55.5,15.8c-16.8-0.5-32.7-5-47.7-12.6C265.5,337.9,263.9,336.7,262.2,335.7z"/>
	<path class="st72" d="M350.1,245.6c-0.1,3.9-3.7,7.3-7.6,7c-3.7-0.2-6.9-3.6-6.8-7.3c0.1-4,3.6-7.2,7.6-7
		C347.1,238.5,350.2,241.9,350.1,245.6z"/>
	<path class="st73" d="M464.2,205.7c-5.3,0-9.3,0-13.4,0c-9.5,0-19-0.1-28.4,0c-3.2,0-4.8-1-4.9-4.5c-0.4-10.6,0.7-11.7,11.3-10
		c9.7,1.6,19.2,3.9,27.9,8.8C459,201.3,461.4,202.6,464.2,205.7z"/>
	<path class="st73" d="M367,204.7c2.4-2.7,5.5-4.3,8.6-5.8c10.1-5,20.9-7.6,32.2-8.1c3.5-0.1,4.7,1.1,4.6,4.6
		c-0.2,12,1.2,10.2-9.9,10.3c-10,0.1-20,0.1-30,0C370.8,205.6,368.9,206.2,367,204.7z"/>
	<path class="st74" d="M214.2,187.4c1.3,3.8,2.1,6.4,3,9C210.9,197.3,210.9,197.3,214.2,187.4z"/>
	<path class="st5" d="M450.5,337.7c2.3,0,4.6,0.1,6.9,0.1c4.8,1.8,9.8,2.6,13.5,6.8c4.9,5.7,5,13.5-0.5,18.7
		c-8.2,7.7-24.5,7.5-32.4-0.4c-7-6.9-5.7-16.3,3-21.2C443.9,340,447.3,339,450.5,337.7z"/>
	<path class="st75" d="M179.9,362.7c8.8,0,17.6,0.1,26.4-0.1c3-0.1,4.4,0.5,4.4,4c0,3.8-1.9,3.9-4.6,3.8c-17.3-0.1-34.6-0.1-51.8,0
		c-2.9,0-4.9,0.1-4.9-4c0-4.5,2.6-3.7,5.2-3.7C162.9,362.7,171.4,362.7,179.9,362.7C179.9,362.7,179.9,362.7,179.9,362.7z"/>
	<path class="st75" d="M179.5,357.8c-8.8,0-17.7-0.2-26.5,0.1c-3.6,0.1-3.5-1.7-3.6-4.3c-0.1-2.8,0.8-3.7,3.7-3.7
		c18,0.1,36,0.1,54,0c3,0,3.7,1,3.6,3.8c-0.1,2.6-0.1,4.3-3.7,4.3C197.8,357.6,188.6,357.8,179.5,357.8z"/>
	<path class="st40" d="M180,336.8c9,0,18,0.1,26.9-0.1c2.8,0,3.8,0.8,3.7,3.7c-0.1,2.7-0.3,4.3-3.7,4.3c-18-0.1-35.9-0.1-53.9,0
		c-3.5,0-3.6-1.6-3.7-4.3c-0.1-2.9,0.9-3.7,3.7-3.6C162,336.9,171,336.8,180,336.8z"/>
	<path class="st76" d="M112.4,349.3c0-5.5,0.1-11,0-16.5c-0.1-3.6,1.1-5.1,4.9-5.1c8.2,0.2,16.3,0.1,24.5,0c3.4-0.1,4.8,1.2,4.8,4.6
		c-0.1,11-0.1,22,0,33c0,3.8-1.3,5.5-5.2,5.4c-8-0.1-16-0.2-24,0c-3.8,0.1-5-1.5-4.9-5.1C112.5,360.3,112.4,354.8,112.4,349.3
		C112.4,349.3,112.4,349.3,112.4,349.3z"/>
	<path class="st38" d="M170.4,330.8c-0.8-2.3,0-5.8-4.6-5.2c-2.4,0.3-1.6-2.3-1.7-3.8c-0.1-1.9,1.2-2,2.6-2c1.5,0,3.1-0.2,3.2,2
		c0.1,1.5,0.2,2.9,0.4,4.4C171.9,327.7,171.9,329.2,170.4,330.8z"/>
	<path class="st5" d="M187.3,325.8c0.1-1.5,0.3-2.9,0.5-4.4c0.3-2.3,2.1-1.6,3.4-1.7c2.1-0.2,2.5,1,2.4,2.7c-0.1,1.4,0.3,3.1-2,3.2
		c-1.5,0-2.9,0-4.4,0L187.3,325.8z"/>
	<path class="st5" d="M181,326c2.1-0.1,4.2-0.1,6.3-0.2c0,0-0.1-0.1-0.1-0.1c0.6,1.9,1.2,4-0.4,5.4c-0.7,0.7-2.6,0.7-3.7,0.2
		c-2.6-1-0.4-4-2-5.5L181,326z"/>
	<path class="st33" d="M181.2,325.9c-1.7-0.8-4.3,1.1-5.2-1.6c-0.4-1.1-0.4-2.8,0.2-3.8c0.9-1.5,2.7-0.9,4.1-0.6
		c1.9,0.3,1.3,2.1,1.3,3.3c0,1-0.4,1.9-0.6,2.9C181,326,181.2,325.9,181.2,325.9z"/>
	<path class="st8" d="M170.4,330.8c0-1.5-0.1-3-0.1-4.6c2.1-0.4,4.6-2,5.4,1.5C176.5,331.3,175,332.2,170.4,330.8z"/>
	<path class="st77" d="M316.6,319.8c2.8,0.5,6.5-1.3,8,1.3c1.7,2.7,5.1,4.5,5.1,8.2c-0.1,6.8-8.1,17-13.3,17.1
		c-5.3,0.1-13.3-10.3-13.3-17c0-3.6,3.1-5.4,4.7-8C309.7,318.2,313.7,320.5,316.6,319.8z"/>
	<path class="st78" d="M120.5,367.7c-4.1,0.9-5.6-0.4-5.5-4.8c0.3-9.3,0.2-18.6,0-27.9c-0.1-3.8,1.3-4.9,4.9-4.8
		c6.3,0.2,12.6,0.3,19,0c3.8-0.2,4.8,1.2,4.7,4.9c-0.2,9.3-0.3,18.6,0.1,27.9c0.2,4.5-1.6,5.6-5.6,4.7c-2.3-3.3-3-7.5-6.8-10.1
		c-2-1.3-0.9-4,0.2-6c1.2-2.2,2.4-4.4,2.5-7c0.2-3-1.2-4.9-4.3-5c-2.9-0.1-4.7,1.3-5,4.4c-0.3,2.8,0.7,5.2,2.2,7.5
		c2.2,3.2,2.1,6.3-1.5,7.9C121.7,361.3,123.6,365.9,120.5,367.7z"/>
	<path class="st79" d="M120.5,367.7c0-1.8,0.2-3.7,0-5.5c-0.1-2.5,0.5-4.1,3.3-4.5c3.8-0.5,3.8-2.2,1.4-4.7
		c-2.3-2.4-2.9-5.4-2.9-8.7c0-4.8,2.4-7.4,7.2-7.3c4.8,0.1,6.9,2.7,6.8,7.6c-0.1,3.5-1.3,6.4-3.5,9c-0.9,1.1-2.6,2.8,0,3.3
		c7.1,1.2,4.9,6.5,5.3,10.8C132.2,367.7,126.3,367.7,120.5,367.7z"/>
	<path class="st80" d="M316.5,321.6c5.9,0,11.5,3.7,11.7,7.7c0.3,5.4-7.3,15.2-11.8,15.3c-4.4,0.1-12-9.5-11.9-15.1
		C304.6,325.5,310.5,321.6,316.5,321.6z"/>
</g>
</svg>
