<?xml version="1.0" encoding="utf-8"?>
<!-- Generator: Adobe Illustrator 19.0.0, SVG Export Plug-In . SVG Version: 6.00 Build 0)  -->
<svg version="1.1" id="Calque_1" xmlns="http://www.w3.org/2000/svg" xmlns:xlink="http://www.w3.org/1999/xlink" x="0px" y="0px"
	 viewBox="0 0 612 792" style="enable-background:new 0 0 612 792;" xml:space="preserve">
<style type="text/css">
	.st0{fill:#4EBDF4;}
	.st1{fill:#56BFF4;}
	.st2{fill:#00A0EF;}
	.st3{fill:#333333;}
	.st4{fill:#F45314;}
</style>
<g>
	<path class="st0" d="M276.8,167.8c0-0.3,0.1-0.6,0.2-0.8c3.7,0,7.3,0,11,0C284.4,168.7,280.6,168,276.8,167.8z"/>
	<path class="st1" d="M550,440l-0.4,0.3l-0.4,0c-0.1-3.4-0.9-6.9,0.8-10.2C550,433.3,550,436.7,550,440z"/>
	<path class="st2" d="M550,404c-0.5-0.5-0.5-1.2-0.5-1.9c0-17.3-2.7-34.1-7.5-50.6c-11.2-38.2-30.1-72.2-56.8-101.6
		c-23.7-26.1-51.5-46.8-83.6-61.4c-20.7-9.4-42.1-16.6-64.8-19.7c-7.9-1.1-15.9-0.8-23.7-1.8c-8.3,0-16.7,0-25,0
		c-3.5,1.1-7,0.2-10.5,0.5c-19.8-0.2-39,2.6-58,8.4c-36.9,11.4-69.8,29.8-98.3,55.6c-26.2,23.7-47,51.7-61.7,84
		c-9.4,20.7-16.6,42.1-19.7,64.7c-1.2,9.2-1,18.5-1.8,27.7c0,11.7,0,23.3,0,35c0.5,0.5,0.5,1.2,0.5,1.9c0.2,16.7,2.7,33.1,7.4,49.2
		c11.3,38.4,30.1,72.5,57,102.1c23.7,26.1,51.5,46.7,83.6,61.4c20.7,9.4,42.1,16.6,64.8,19.7c7.5,1,15.2,0.7,22.7,1.8
		c13,0,26,0,39,0c1.2-0.9,2.6-0.4,3.9-0.5c12.6-0.6,25.1-1.6,37.5-4.7c42.4-10.4,79.9-30.2,112.3-59.4
		c27.2-24.5,48.4-53.5,63.2-87.1c12.3-28,20.4-57,19.6-87.9c0.3-3.2-0.6-6.4,0.5-9.5C550,421.3,550,412.7,550,404z M293.8,645
		C171,644.8,71.9,545.5,72,422.7C72.1,300.1,171.4,201,293.9,201C416.7,201,516,300.3,516,423.1C516,545.8,416.5,645.2,293.8,645z"
		/>
	<path class="st3" d="M294,565.4c13.2-21.3,23.5-43,32-65.6c6.1-16.2,11-32.8,14.7-49.7c0.7-3.3,1.6-3.6,4.5-2.4
		c13.2,5.4,26.3,11.3,39.4,16.8c24.1,10.2,37.9,28.9,45.3,53.2c2.8,9.3,4.5,18.7,5.3,28.4c0.4,5.5-1.8,8.1-6.7,9.9
		c-15.3,5.9-31.2,9.5-47.3,11.8c-50.2,7.2-100.6,7.6-151,2.9c-23.9-2.2-47.5-5.9-70.1-14.5c-5.3-2-7.7-4.7-7.1-10.6
		c3-28.3,10.8-54.2,34.9-72.2c6.8-5.1,14.7-8.4,22.5-11.8c10.7-4.6,21.4-9,32.1-13.7c3.3-1.5,4.3-0.9,5.1,2.7
		c8.6,38.2,22.6,74.3,42.5,108.1C291.1,560.8,292.4,562.7,294,565.4z"/>
	<path class="st3" d="M238,402.4c12.8,9,25.8,14.7,39.8,18.1c1.7,0.4,2.3,1.7,3.1,2.9c5.1,6.9,13.8,8.2,20.1,3
		c6.1-5,6.7-14.3,1.3-20c-5.8-6.2-14.8-6-20.6,0.7c-1.6,1.8-2.9,2.3-5.1,1.7c-14.3-4-27.4-10-38.3-20.5c-2.5-2.4-3.9-5-4-8.7
		c-0.3-26.9,6.4-51.5,24.9-71.7c17.9-19.6,44.7-20.8,64.7-3.3c14.9,13.1,22.5,30.2,26.3,49.2c4.7,23.9,3,47-10.2,68.3
		c-5.4,8.7-12,16.4-20.8,21.9c-17,10.6-34.3,10.9-51.3,0.2C252.8,434.8,244.1,420.3,238,402.4z"/>
	<path class="st4" d="M293.6,283.7c-18.2,0.3-32.6,8.6-43.8,22.4c-18.8,23.1-25,50.2-23.4,79.5c0.2,3.3,0.6,6.6,1.3,9.9
		c0.6,3.1-0.8,3.4-3.2,3.2c-8-0.7-14.2-4.4-18.3-11.3c-7.9-13-6.6-32.4,2.8-44.3c2.3-2.9,4.9-5.8,8.5-6.6c4-0.9,5.5-3.3,6.8-6.7
		c9.1-23.2,24-41.4,46.9-52.2c18.6-8.8,36.6-6.3,53.7,4.2c18.6,11.4,31.1,27.8,38.9,48c1.3,3.2,2.4,5.6,6.4,6.5
		c4.5,1,7.7,4.6,10.1,8.5c8.4,13.3,9,27.3,2.2,41.3c-3.6,7.4-9.8,11.5-18,12.6c-3.5,0.4-4.5-0.3-3.9-4.2c4-27.6-0.3-53.8-14.8-77.8
		c-9.7-16.1-22.9-28-42.1-31.9c-1.1-0.2-2.3-0.5-3.4-0.5C298,283.9,295.9,283.8,293.6,283.7z"/>
	<path class="st4" d="M294,551c-5.5-9.2-9.7-17.6-13.7-26.2c-2.3-4.9,0.6-9.7,0.9-14.6c0.2-3,1.4-5.6-1.6-8.6
		c-2-1.9-1.7-6.2-2.4-9.5c-1-5.1-1.9-10.1-2.9-15.2c-0.8-4,0.2-6,4.7-5.9c10,0.2,20,0.2,30,0c4.4-0.1,5.6,1.9,4.7,5.9
		c-1.4,6.8-2.5,13.7-4,20.6c-0.5,2.2-0.4,4.6-2.9,6.1c-1.7,1-0.9,3.1-0.4,4.6c3.2,10,1.6,19.1-4.2,27.8
		C299.2,540.4,297,545.4,294,551z"/>
</g>
</svg>
