<?xml version="1.0" encoding="utf-8"?>
<!-- Generator: Adobe Illustrator 19.0.0, SVG Export Plug-In . SVG Version: 6.00 Build 0)  -->
<svg version="1.1" id="Calque_1" xmlns="http://www.w3.org/2000/svg" xmlns:xlink="http://www.w3.org/1999/xlink" x="0px" y="0px"
	 viewBox="0 0 612 792" style="enable-background:new 0 0 612 792;" xml:space="preserve">
<style type="text/css">
	.st0{fill:#4EBDF4;}
	.st1{fill:#56BFF4;}
	.st2{fill:#00A0EF;}
	.st3{fill:#333333;}
	.st4{fill:#FCFCFC;}
	.st5{fill:#F45314;}
	.st6{fill:#FDFDFD;}
</style>
<g>
	<path class="st0" d="M297.8,130.8c0-0.3,0.1-0.6,0.2-0.8c3.7,0,7.3,0,11,0C305.4,131.7,301.6,131,297.8,130.8z"/>
	<path class="st1" d="M571,403l-0.4,0.3c0,0-0.4,0-0.4,0c-0.1-3.4-0.9-6.9,0.8-10.2C571,396.3,571,399.7,571,403z"/>
	<path class="st2" d="M571,367c-0.5-0.5-0.5-1.2-0.5-1.9c0-17.3-2.7-34.1-7.5-50.6c-11.2-38.2-30.1-72.2-56.8-101.6
		c-23.7-26.1-51.5-46.8-83.6-61.4c-20.7-9.4-42.1-16.6-64.8-19.7c-7.9-1.1-15.9-0.8-23.7-1.8c-8.3,0-16.7,0-25,0
		c-3.5,1.1-7,0.2-10.5,0.5c-19.8-0.2-39,2.6-58,8.4c-36.9,11.4-69.8,29.8-98.3,55.6c-26.2,23.7-47,51.7-61.7,84
		c-9.4,20.7-16.6,42.1-19.7,64.7c-1.2,9.2-1,18.5-1.8,27.7c0,11.7,0,23.3,0,35c0.5,0.5,0.5,1.2,0.5,1.9c0.2,16.7,2.7,33.1,7.4,49.2
		c11.3,38.4,30.1,72.5,57,102.1c23.7,26.1,51.5,46.7,83.6,61.4c20.7,9.4,42.1,16.6,64.8,19.7c7.5,1,15.2,0.7,22.7,1.8
		c13,0,26,0,39,0c1.2-0.9,2.6-0.4,3.9-0.5c12.6-0.6,25.1-1.6,37.5-4.7c42.4-10.4,79.9-30.2,112.3-59.4
		c27.2-24.5,48.4-53.5,63.2-87.1c12.3-28,20.4-57,19.6-87.9c0.3-3.2-0.6-6.4,0.5-9.5C571,384.3,571,375.7,571,367z M314.7,608
		C191.8,607.8,92.8,508.4,93,385.6C93.2,263,192.5,164,315.1,164c122.8,0,222.1,99.4,221.9,222.2C536.9,508.9,437.3,608.2,314.7,608
		z"/>
	<path class="st3" d="M412.2,308.1c0.8,3,1.5,5.5,2.2,8.1c3.2,11.8,5.8,23.6,3.5,35.9c-1.4,7.5,1.2,13.6,5.7,19.4
		c6.1,7.9,12.3,15.7,17.4,24.3c7.2,12.1,4.4,18.9-9.5,22.4c-0.8,0.2-1.6,0.5-2.4,0.6c-8.2,1.4-8.8,2.4-5.4,10.3c0.6,1.4,1.2,2.7,2,4
		c2.1,3.5,1.4,6.5-1.7,8.7c-2.2,1.6-2.9,3-2.1,5.7c1.2,3.8,0,7.6-3.3,9.8c-3,2-3,4.4-2.5,7.3c0.9,5.3,0.9,10.6,0,15.9
		c-2,13.1-9.9,21.2-23,23.5c-8.2,1.4-16.6,1.6-24.9,2c-12.9,0.6-18.2,6.2-18.2,19.2c0,1.2,0.1,2.3,0.1,3.5c0,6-2,8.1-8.1,8.1
		c-24.3,0-48.7,0-73,0c-16.8,0-33.7,0-50.5,0c-8.4,0-10.9-3.7-7.9-11.8c5.4-14.4,12.6-28.2,16.5-43.3c3.8-14.7,3.3-28.8-3.8-42.7
		c-7.4-14.5-14.9-29-22.5-43.4c-12.2-22.9-19.2-47.2-15.2-73.5c4.2-27.4,17.4-49.5,41.5-63.9c42.6-25.4,87.3-30.6,133.9-12.4
		c8.8,3.4,17.3,7.5,26.1,11c20.6,8.1,31.5,24.6,37.2,45.2c0.8,2.9-0.3,5.3-2.5,7.1C418.8,311.7,415.6,310.3,412.2,308.1z"/>
	<path class="st4" d="M254,272.8c3.1-0.1,6.1,0.4,8.5,2.2c2.7,2.1,4.9,2.1,8.1,0.9c3.5-1.3,4-3.5,4.6-6.6
		c1.1-6.5,8.5-11.6,17.1-12.2c5.3-0.3,10.6-0.3,15.9,0.7c7.8,1.4,12.1,5.4,13.9,13c1.2,5.1,7.8,7.7,12,4.5c4.7-3.7,9.7-3.2,14.6-1.1
		c9,3.8,15,11,19.6,19.2c3.2,5.7,1.6,11.6-2.3,16.9c-2.6,3.6-0.5,9.4,3.9,9.8c8.6,0.8,12.9,4.6,15.1,16.4c1.2,6.6,0.4,13.3-1,19.9
		c-1.3,5.9-7,10.5-13.7,11.5c-5,0.7-7.2,6.2-4.1,10.2c4.1,5.2,4.9,10.7,1.8,16.7c-4.5,8.6-11.3,14.8-19.7,19.1
		c-5.4,2.8-10.7,1-15.5-2.2c-2.7-1.7-9.8,0.8-10.6,3.7c-2.9,10.6-8.1,14.8-19.3,15.4c-5.4,0.3-10.6-0.4-15.9-1.4
		c-6.7-1.3-10.3-5.7-11.9-12c-1.5-5.7-7.2-8.1-12.1-4.8c-4.6,3-9.4,3.2-14.3,1.1c-9.4-4.1-15.8-11.7-20.4-20.5
		c-2.8-5.4-0.7-10.7,2.7-15.4c2.8-3.9,0.7-9.5-3.9-10.2c-9.3-1.6-13.4-6-15-15.9c-1.2-7.1-0.4-14,1.3-20.8c1.6-6.4,6.6-9.8,13-10.8
		c5.6-1,7.7-6.1,4.2-10.7c-3.6-4.8-4.5-9.8-1.9-15.4c4.3-9.2,11.5-15.3,20-20.2C250.3,272.9,252.1,272.9,254,272.8z"/>
	<path class="st5" d="M313,277.1c-1.2,4.4,1.2,7.1,6.2,8c1,0.2,2,0.5,2.8,1c6.3,4.5,11.6,4,16.4-2.5c2.1-2.8,5.3-2.2,8.1-0.3
		c4.8,3.3,8.9,7.4,12.3,12.3c2.5,3.6,2.4,6.9-1.1,9.6c-4.9,3.7-6.2,7.9-2.4,13.1c0.4,0.5,0.7,1.2,0.8,1.8c1.3,7.2,5.2,10.5,12.8,9.4
		c3.6-0.5,5.7,1.8,6.4,5.5c1.1,6,1,11.9-0.1,17.9c-0.8,4-3.1,6-6.9,5.5c-6.9-1-10.8,1.6-11.8,8.5c-0.1,0.8-0.5,1.6-0.9,2.3
		c-4.1,5.6-2.7,10,2.5,14c3.4,2.6,3.3,5.8,0.8,9.2c-3.3,4.6-7.3,8.6-12,11.9c-3.6,2.6-6.6,2.2-9.7-0.9c-5.8-5.8-5.9-5.7-13.4-2.4
		c-0.9,0.4-1.8,0.8-2.8,1.1c-8,3-8.3,1.2-8,11.5c0.1,4.2-1.8,6.5-5.9,7.3c-5.8,1.1-11.6,1-17.4-0.1c-4-0.7-5.9-3-5.9-7.3
		c0.1-8.4-0.1-8.4-7.7-11.3c-0.6-0.2-1.3-0.3-1.9-0.7c-6-4.2-11.1-3.9-15.6,2.4c-2.2,3.1-5.4,2.6-8.4,0.6
		c-5.1-3.4-9.1-7.7-12.6-12.7c-2.3-3.3-2.1-6.4,1.1-8.8c5.6-4.1,6.3-8.8,2.3-14.3c-0.2-0.3-0.3-0.6-0.3-0.9
		c-1.3-7.1-4.9-10.7-12.7-9.5c-3.7,0.6-5.8-1.7-6.5-5.4c-1.1-5.8-1-11.6-0.1-17.4c0.7-4.4,3.1-6.3,7.5-6.2c9.9,0.2,8.6-0.3,11.1-7.9
		c0.2-0.5,0.3-1,0.6-1.4c4.3-6.2,3.8-11.4-2.6-16c-2.6-1.9-2.5-4.8-0.7-7.6c3.3-5.1,7.5-9.3,12.5-12.8c3.6-2.5,6.5-2.3,9.7,0.8
		c5.8,5.8,5.9,5.7,13.4,2.4c0.8-0.3,1.5-0.8,2.3-0.9c7-1.2,9.9-5,8.7-12.2c-0.7-4.1,1.8-6.1,5.6-6.8c5.1-0.8,10.2-1.3,15.4-0.3
		C312.1,268.1,313,269,313,277.1z"/>
	<path class="st6" d="M339.1,343.9c0,22.7-18.2,41-40.9,40.9c-22.4-0.1-40.4-18.3-40.4-40.9c0-22.4,18.2-40.7,40.6-40.7
		C320.8,303.2,339,321.4,339.1,343.9z"/>
</g>
</svg>
