<?xml version="1.0" encoding="utf-8"?>
<!-- Generator: Adobe Illustrator 19.0.0, SVG Export Plug-In . SVG Version: 6.00 Build 0)  -->
<svg version="1.1" id="Calque_1" xmlns="http://www.w3.org/2000/svg" xmlns:xlink="http://www.w3.org/1999/xlink" x="0px" y="0px"
	 viewBox="0 0 612 792" style="enable-background:new 0 0 612 792;" xml:space="preserve">
<style type="text/css">
	.st0{fill:#48B649;}
	.st1{fill:#314967;}
	.st2{fill:#BBCC30;}
</style>
<g>
	<path class="st0" d="M519.3,486.2c0,2.2,0,4.5-0.1,6.7c-6.3,4.6-6.8,11-6.7,18.2c0.3,17.7,0.1,35.3,0.1,53
		c0,13.6-6.7,20.4-20.2,20.5c-33.7,0.1-67.3,0-101,0c-8.1,0-9-0.9-9-9.4c0-63.3,0-126.6,0-190c0-2-0.2-4,0-6
		c0.7-6-1.1-10.8-6.6-13.8c-1.3-2.1-1.4-4.2-0.3-6.4c2.1-1.9,4.7-1.5,7.1-1.5c11.3-0.1,22.6,0,33.9,0c1.8,0,3.7,0.1,5.5-0.2
		c4.1-0.7,6.4-3,6.2-6.5c-0.2-3.8-2.6-5.5-6.1-6.1c-1.6-0.3-3.3-0.2-5-0.2c-9,0-18-0.1-26.9,0c-3.7,0-6.9-0.6-8.7-4.4
		c-1.2-2.6-4.2-3.1-6.1-5.1c-1.3-2.8-1.4-5.6,0.2-8.3c5.5-2.7,7-7.3,6.8-13.2c-0.3-6.8-0.2-13.7,0-20.5c0.1-6.2,1.2-7.5,7.2-7.5
		c41.5-0.1,82.9-0.1,124.4,0c7.8,0,11.3,3.6,11.4,11.4c0.2,11.8,0.2,23.6,0,35.5c-0.1,8.6-3.6,12.1-12.3,12.1
		c-20.6,0.1-41.3,0-61.9,0.1c-2.2,0-4.3-0.1-6.5,0.3c-3.5,0.6-5.8,2.6-5.7,6.4c0.1,3.5,2.3,5.4,5.7,5.9c2,0.3,4,0.2,6,0.3
		c17.8,0,35.6,0,53.5,0c7.4,0,8.4,1,8.4,8.4c0.1,34.6,0.1,69.3-0.1,103.9C512.4,476.4,513.2,482.3,519.3,486.2z"/>
	<path class="st0" d="M159.9,368.8c0-3.3,0.1-6.5,0.1-9.8c1.9-1.9,4.3-1.6,6.6-1.6c40.8,0,81.6-0.1,122.5,0c7.4,0,8.5,1.2,8.5,8.9
		c0.1,34.7,0.1,69.3-0.1,104c0,6.1,1,11.2,6.8,14.3c1.6,2.9,1.6,5.8,0.1,8.7c-5.7,2.9-6.9,7.7-6.8,13.7c0.2,22.2,0.1,44.3,0.1,66.5
		c0,2.2,0,4.3-0.2,6.5c-0.3,2.7-1.8,4.2-4.5,4.5c-1.5,0.2-3,0.2-4.5,0.2c-33.8,0-67.7,0-101.5,0c-4,0-8-0.3-11.6-2.5
		c-5-3.1-7.9-7.5-8.6-13.4c-0.3-2.7-0.2-5.3-0.2-8c0-58.5-0.1-117,0.1-175.5C166.5,378.6,166,372.7,159.9,368.8z"/>
	<path class="st1" d="M519.3,486.2c-6.3-1.5-8.2-3.9-8.2-11c0-36.8-0.1-73.6,0.1-110.5c0-4.5-1-6-5.7-5.9c-19.5,0.3-39,0.1-58.5,0.1
		c-6.4,0-9.9-2.8-10-7.9c-0.1-5.1,3.5-8.1,9.8-8.1c22.3,0,44.6,0,67,0c7.6,0,10.2-2.6,10.2-10.1c0-12.2,0-24.3,0-36.5
		c0-6.5-2.9-9.4-9.5-9.4c-42,0-84,0-126-0.1c-3.9,0-4.7,1.3-4.6,4.9c0.2,8.5,0.1,17,0.1,25.5c0,6.4-1.8,8.5-8.1,9.9
		c-5,0.8-8.2-1.7-9.1-7.1c-0.6-3.5-0.3-7-0.3-10.5c0-4.8,0-9.6,0-14.5c-0.1-6.2-0.3-6.6-6.4-6.6c-13.5,0-27,0-40.4,0
		c-5.6,0-6,0.5-6.1,5.9c-0.1,3.2,0.1,6.3-0.1,9.5c-0.4,6.4-2.8,9.1-9.3,10.3c-6.5-1-9.1-3.7-9.6-10c-0.2-2-0.1-4-0.1-6
		c-0.1-10.6,0.8-9.8-10.1-9.8c-17.3,0-34.5-0.1-51.8,0c-8,0-15.4-2-22.4-5.8c-1.7-0.9-3.7-1.7-4.3-3.9c-12.1-10.1-19-22.7-17.8-38.7
		c1.2-17,9.8-29.6,25.1-36.9c15.4-7.3,30.4-5.5,44.5,4.1c4.2,2.9,5,7.6,2.4,11.3c-2.7,3.9-7.1,4.4-11.9,1.5
		c-17.6-10.9-38.3-3.3-43.4,15.9c-4.5,17.1,8.3,34.6,26.1,34.8c27.8,0.3,55.6,0.1,83.7,0.1c-0.2-1.9-1.8-2.3-2.9-3.1
		c-14-10.5-27.9-21-41.9-31.5c-1.9-1.4-3.9-2.8-4.5-5.1c-0.9-3.3-0.4-6.3,2.4-8.6c2.9-2.4,6.2-2.7,9.3-0.7c3.2,2,6.2,4.5,9.3,6.8
		c16.8,12.6,33.6,25.1,50.3,37.8c2.8,2.1,4.4,2,7.2-0.1c25.6-19.4,51.3-38.7,77.1-57.9c27.8-20.7,65-5.8,70.8,28.4
		c0.3,1.8,0.4,3.6,0.4,5.5c-0.1,5-3.3,8.5-7.8,8.6c-4.5,0.1-7.8-3.2-8.1-8.3c-1.1-14.5-9.4-24.4-22.8-27.2c-7-1.4-13.9-0.6-19.6,3.6
		c-22.9,16.8-45.6,33.9-68.5,51c1.3,1.5,2.7,0.9,3.9,0.9c26.2,0,52.3,0,78.5,0c8.7,0,15.8-3.3,21.6-9.8c4.3-4.9,8.1-5.9,12-3.3
		c3.8,2.5,4.2,5.8,1.6,11.9c-0.1,0.3,0,0.6,0,1.2c10.6,0,21.2,0,31.9,0c15.3,0,25.4,10.1,25.4,25.3c0,12.7,0,25.3,0,38
		c0,8.2-3.1,15-9.7,19.8c-2.5,1.8-3.1,3.7-3.1,6.6c0.1,38.5,0.1,77,0,115.5C527.2,482.8,525.6,484.8,519.3,486.2z"/>
	<path class="st1" d="M159.9,368.8c6.4,1.4,8.1,3.5,8.1,10.4c0,61.8,0,123.5,0,185.3c0,12.6,6,18.6,18.7,18.6
		c34.6,0,69.3-0.1,103.9,0.1c4.4,0,5.6-1.1,5.5-5.5c-0.2-25-0.1-49.9-0.1-74.9c0-6.4,1.8-8.5,8.1-9.9c4.6-0.7,7.5,1.2,8.9,5.7
		c0.8,2.6,0.6,5.3,0.6,7.9c0,22.5,0,45,0,67.4c0,7.3,0.2,7.5,7.6,7.5c12.5,0,25,0,37.5,0c7.5,0,7.7-0.2,7.7-7.9
		c0-64.4,0-128.9,0-193.3c0-2.8-0.2-5.7,0.4-8.5c1-4.9,4.2-7.2,9.2-6.7c7.1,2.3,8,3.6,8,11.1c0,67,0.1,133.9-0.1,200.9
		c0,5.2,1.5,6.3,6.4,6.2c34.3-0.2,68.6-0.4,102.9,0c9.4,0.1,18.4-7.2,18.1-18c-0.6-20.5-0.2-41-0.2-61.5c0-6.4,1.8-8.7,8.1-10.8
		c6.8,2.2,8,3.6,8,10.6c0,20.8,0.1,41.6,0,62.5c-0.1,19.4-13.7,33-33.1,33c-102.9,0-205.9,0-308.8,0c-19.6,0-33.3-13.8-33.3-33.3
		c0-62.1,0-124.3,0-186.4C152,372.3,153.6,370.1,159.9,368.8z"/>
	<path class="st1" d="M304,485c-7-2.2-8-3.6-8-10.6c0-36.8-0.1-73.5,0.1-110.3c0-4.2-1.1-5.3-5.3-5.3c-43.6,0.1-87.2,0.1-130.8,0.1
		c-15.6-5.7-20-12.1-20-29.1c0-11.3,0-22.7,0-34c0.1-14.6,10.3-24.8,24.8-24.9c6.5,0,13,0,19.5,0c6.9,0,8.6,1.3,10.7,8
		c0.5,5.2-2.8,8.8-8.9,9.4c-5.1,0.5-10.3,0.1-15.5,0.2c-2,0-4-0.1-6,0.1c-4.5,0.5-6.8,2.5-6.9,7c-0.4,12.8-0.3,25.6,0,38.4
		c0.1,4.8,2.4,6.7,7.3,7.2c1.7,0.2,3.3,0.1,5,0.1c38.8,0,77.5,0,116.3,0c8.1,0,8.1,0,8.2-8.3c0.2-7.4,2.3-10.3,9.2-12.2
		c6.6,1.3,9.6,4.7,9.8,11.7c0.2,9.5-0.3,8.9,9.6,8.9c12.5,0,24.9-0.1,37.4,0c3.4,0,6-0.7,8-3.8c1.7-2.5,4-4.6,7.5-2.9
		c3.6,0.3,6.5,1.9,7.5,5.5c0.8,2.6,2.4,2.7,4.5,2.7c10.8,0,21.6,0,32.4,0c6.5,0,9.7,2.7,9.7,8c0,5.3-3.2,7.9-9.7,8
		c-14.8,0.1-29.6,0.1-44.4,0.1c-2.3,1.9-5,1.4-7.7,1.4c-16,0-32,0-47.9,0c-6.3,0-6.7,0.4-6.7,6.9c0,34.4,0,68.9,0,103.3
		c0,2.5,0.2,5-0.4,7.5C312.1,483.2,308.9,485.5,304,485z"/>
	<path class="st0" d="M304,322c-6.6,2.1-8,4-8,11.2c0,9.8,0,9.8-9.6,9.8c-40,0-80,0-119.9,0c-7.9,0-10.5-2.5-10.5-10.4
		c0-12,0-24,0-36c0-6.9,2.8-9.6,9.7-9.6c6.2,0,12.3,0,18.5,0c6.5,0,8.8-1.7,10.8-8c3.6,0,7.3-0.1,10.9-0.1c10,6.3,20.9,8.6,32.7,8.2
		c17.6-0.5,35.3,0,52.9-0.2c3.5,0,4.8,0.9,4.5,4.5c-0.3,4-0.1,8-0.1,12c0,6.3,1.8,8.5,8.1,9.9C306,316.2,305.9,319.1,304,322z"/>
	<path class="st2" d="M304,485c6.6-2.1,8-3.8,8-10.7c0-36.7,0.1-73.5-0.1-110.2c0-4.1,1-5.3,5.2-5.2c19.6,0.3,39.2,0.2,58.8,0.2
		c0,1.9,0,3.9,0,5.8c-6.7,2.1-8,3.7-8,10.7c0,67.2,0,134.5,0.1,201.7c0,4.5-1,5.9-5.7,5.8c-15-0.3-30-0.3-44.9,0
		c-4.8,0.1-5.6-1.5-5.6-5.9c0.2-25,0.1-49.9,0.1-74.9c0-6-1.9-8.2-7.9-9.6C304.1,490.2,304,487.6,304,485z"/>
	<path class="st2" d="M304,322c0-2.9,0.1-5.8,0.1-8.8c6-1.4,7.8-3.6,7.9-9.6c0-4.5,0.1-9,0-13.5c-0.1-2.3,0.6-3.2,3.1-3.2
		c16.6,0.1,33.3,0.1,49.9,0c3,0,3.1,1.5,3.1,3.7c-0.1,9-0.1,18,0,27c0,6,1.9,8.2,7.9,9.5c0,2.6,0,5.1,0,7.7c-3.2,0.4-6.1,1.6-7,4.8
		c-0.9,3.2-2.8,3.4-5.5,3.4c-15.5-0.1-31-0.1-46.5,0c-3.7,0-5.7-0.7-5-4.8c0.3-1.8,0.1-3.7,0-5.5C312,326.1,310.5,324,304,322z"/>
</g>
</svg>
