<?xml version="1.0" encoding="utf-8"?>
<!-- Generator: Adobe Illustrator 19.0.0, SVG Export Plug-In . SVG Version: 6.00 Build 0)  -->
<svg version="1.1" id="Calque_1" xmlns="http://www.w3.org/2000/svg" xmlns:xlink="http://www.w3.org/1999/xlink" x="0px" y="0px"
	 viewBox="0 0 612 792" style="enable-background:new 0 0 612 792;" xml:space="preserve">
<style type="text/css">
	.st0{fill:#FEDC00;}
	.st1{fill:#314967;}
	.st2{fill:#85863C;}
	.st3{fill:#FDDC00;}
</style>
<g>
	<path class="st0" d="M348.1,576.9c-1.4,1.4-2.8,2.8-4.2,4.2c-7.1-2.1-11.9,1.3-16.3,6.4c-3.8,4.4-8.1,8.4-12.3,12.4
		c-8.8,8.5-18.1,8.5-26.7-0.1C236.7,548,184.9,496.2,133.1,444.3c-8.6-8.6-8.6-18,0-26.7c18.6-18.6,37.1-37.3,55.9-55.8
		c4.8-4.7,9.1-9.3,6.6-16.7c1.6-1.7,3.1-3.4,4.7-5.1c6.6,2.4,11.2-0.5,15.7-5.2c10.7-11.1,21.6-22.1,32.8-32.8
		c5.1-4.8,8.4-9.7,6.1-16.9c1.7-1.5,3.4-3.1,5.1-4.6c6.9,2,11.6-1.3,16-6.1c6.9-7.4,14.4-14.4,21.5-21.7c4.9-5.1,10.6-7.4,17.8-7.4
		c50.5,0.2,101,0.1,151.5,0.1c14,0,20.5,6.5,20.5,20.5c0,50.8,0,101.7,0.1,152.5c0,5.3-1.3,9.7-4.9,13.7c-2.2,2.5-4.4,5-6.8,7.3
		c-40.3,40.3-80.6,80.7-121,120.8C350.1,565.2,346.4,569.8,348.1,576.9z"/>
	<path class="st1" d="M195.6,345.2c3.4,6.1,3.1,8.3-1.7,13.2c-19.9,19.9-39.8,39.8-59.7,59.8c-8.4,8.5-8.4,17.2,0,25.7
		c51.6,51.6,103.2,103.2,154.9,154.9c8.3,8.3,17.5,8.3,25.8,0.1c5.3-5.3,10.6-10.6,15.9-15.9c4.9-4.9,7.1-5.2,13.2-1.8
		c3.3,6,3,8.3-1.9,13.2c-5.6,5.7-11.3,11.4-17,16.9c-13.4,13.2-32.8,13.3-46,0.1C226.7,559,174.4,506.7,122.1,454.4
		c-13.8-13.8-13.7-33-0.1-46.7c20.1-20.2,40.2-40.3,60.4-60.4C187.4,342.2,189.4,342,195.6,345.2z"/>
	<path class="st1" d="M254.9,285.3c3.7,5.8,3.4,8.7-1.5,13.6c-13.3,13.3-26.6,26.6-39.9,39.9c-4.8,4.7-7.4,5-13.2,1.4
		c-3-6-2.7-8,2-12.8c13.2-13.3,26.6-26.5,39.7-39.9C246,283.4,250,282.4,254.9,285.3z"/>
	<path class="st1" d="M323,496.2c0,5.9-3.8,10.2-9.3,11c-5.9,0.8-10.4-1.6-11.6-7.6c-2-9.7-3.5-19.6-5-29.5
		c-5.2-33.8-10.3-67.7-15.6-101.5c-1.1-7.2,1.9-12.3,8.2-13.6c6.9-1.4,11.9,2,13.1,9.5c6.8,43.2,13.4,86.4,20.1,129.6
		C323,494.9,323,495.8,323,496.2z"/>
	<path class="st1" d="M205.7,432.8c0.5-12.6,6.1-22,17-28.1c10.7-6,21.4-5.1,31.7,1.3c14.6,9.1,21.6,24.6,17.7,39
		c-5.6,20.7-29.3,30.3-47.4,18.8C213.4,456.6,206.1,446.7,205.7,432.8z"/>
	<path class="st2" d="M363,393.8c17.7-1.7,35,18.7,35.5,33.5c0.6,19.9-16,33.6-31.7,33.8c-18.1,0.3-35.9-17.4-36-35.3
		C330.6,407.8,344.6,393.9,363,393.8z"/>
	<path class="st1" d="M413.9,288.6c0.6-7.4,3.7-10.1,10.9-9.5c17.6,1.4,31.5,18.6,28.9,35.9c-2.8,19.1-20.3,31.4-38.7,27.2
		c-18.1-4.1-29.2-22.7-23.9-40.1c1.8-5.8,5.3-7.5,12.1-6c4.1,0.9,4.8,4.1,4.9,7.6c0.1,2.2-0.7,4.3-0.8,6.4
		c-0.4,7.9,5.3,14.7,13.1,15.5c7.6,0.8,14.5-4.5,15.9-12c1.3-7.5-3.4-14.7-10.9-16.7c-1.8-0.5-3.7-0.3-5.4-0.9
		C416.6,294.8,413.2,293.4,413.9,288.6z"/>
	<path class="st1" d="M502,265c0-20.6-13.5-34-34.1-34c-50.8,0-101.7,0.2-152.5-0.1c-10.9-0.1-19.9,3.3-27.4,10.8
		c-8.7,8.7-17.4,17.4-26.1,26.2c-4.6,4.7-4.9,6.9-1.8,12.8c5.9,3.5,8.4,3.2,13.2-1.6c8.7-8.7,17.5-17.4,26.2-26.2
		c4.2-4.2,9.1-6.1,15.2-6c51,0.2,102,0.1,153,0.1c12.3,0,18.4,6.1,18.4,18.4c0,45.8-0.8,91.7,0.4,137.5c0.5,17.7-4.8,30.2-17.4,42.4
		c-40.1,38.8-79.2,78.7-118.7,118.1c-5.3,5.3-5.6,7.4-2.2,13.5c5.8,3.2,8.3,3,12.8-1.5c44.2-44.2,88.4-88.4,132.6-132.5
		c4.2-4.2,6.7-9.1,7.4-14.9c0.6-4.8,1.1-9.6,1.1-14.4C502,364,502,314.5,502,265z"/>
	<path class="st3" d="M243.1,446.2c-6.4-0.2-14.4-7.5-15.2-13.8c-0.7-5.5,2.6-9,8.1-8.7c6.3,0.3,14.2,7.8,15,14.1
		C251.6,443,248.4,446.4,243.1,446.2z"/>
	<path class="st0" d="M360.2,416.1c6.5-0.2,15.1,7.8,15.7,14.3c0.5,6.2-5.7,9.3-10.2,7.4c-5.6-2.4-9.9-6.1-12-11.9
		C351.9,420.9,355,416.3,360.2,416.1z"/>
</g>
</svg>
