<?xml version="1.0" encoding="utf-8"?>
<!-- Generator: Adobe Illustrator 19.0.0, SVG Export Plug-In . SVG Version: 6.00 Build 0)  -->
<svg version="1.1" id="Calque_1" xmlns="http://www.w3.org/2000/svg" xmlns:xlink="http://www.w3.org/1999/xlink" x="0px" y="0px"
	 viewBox="0 0 612 792" style="enable-background:new 0 0 612 792;" xml:space="preserve">
<style type="text/css">
	.st0{fill:#74A602;}
	.st1{fill:#D03274;}
	.st2{fill:#4D6804;}
	.st3{fill:#047F9D;}
	.st4{fill:#5871AA;}
	.st5{fill:#CCCCCC;}
	.st6{fill:#FDC203;}
	.st7{fill:#FBBC02;}
	.st8{fill:#E8EE06;}
	.st9{fill:#1F1F1D;}
	.st10{fill:#088DC7;}
	.st11{fill:#D73072;}
	.st12{fill:#E14444;}
	.st13{fill:#E6EC08;}
	.st14{fill:#161C07;}
	.st15{fill:#1E2A03;}
	.st16{fill:#078DC7;}
	.st17{fill:#BD100D;}
	.st18{fill:#098BC5;}
	.st19{fill:#D91616;}
	.st20{fill:#D72F71;}
	.st21{fill:#E7ED06;}
	.st22{fill:#D52F70;}
	.st23{fill:#615D5D;}
	.st24{fill:#E6EC07;}
	.st25{fill:#E6EC06;}
	.st26{fill:#637F07;}
	.st27{fill:#777470;}
	.st28{fill:#617F07;}
	.st29{fill:#E4EA07;}
	.st30{fill:#72A304;}
	.st31{fill:#627F07;}
	.st32{fill:#5F7B09;}
	.st33{fill:#3B3D03;}
	.st34{fill:#1F1F1C;}
	.st35{fill:#DEB000;}
	.st36{fill:#DFB001;}
	.st37{fill:#F9F7F7;}
	.st38{fill:#FAF8F8;}
	.st39{fill:#FBF9F9;}
	.st40{fill:#F8F5F5;}
	.st41{fill:#F8C707;}
	.st42{fill:#F9C806;}
	.st43{fill:#E45454;}
	.st44{fill:#FAC806;}
</style>
<g>
	<path class="st0" d="M147.6,461.8c-8.7-4.5-16.5-10.5-24.7-15.8c-34.5-22.7-68.8-45.6-103.3-68.3c-3.3-2.2-3.9-3.6-1.9-7.2
		c29.6-53.6,59-107.2,88.3-160.9c2.2-4,3.5-3.9,6.6-1c8.1,7.4,16.9,14,26.8,19c0.4,4.2-2.3,7.5-3.4,11.2c-0.3,0.9-0.9,1.8-1.3,2.7
		c-0.5,1.4-0.5,2.6,0.9,3.5c0.8,0.5,1.6,0.5,2.3,0c1.4-0.9,1.6-2.3,0.8-3.5c-3.4-5.2-0.4-9,2.7-12.7c4.3-0.1,7.4,3,11.1,4.4
		c1.6,0.9,3.3,1.6,5.1,2.2c0.9,0.3,1.8,0.7,2.6,1.1c3.4,1.6,7,2.6,10.5,3.8c1.7,0.6,3.4,1.1,4.4,2.9c0.9,2.5-0.1,5-0.4,7.4
		c-1.2,9.4,1.3,17.7,6.1,25.6c2.4,4.1,5.1,7.9,9.3,10.5c4.1,3.7,9.4,4.9,14,7.6c0.9,3.8,1.8,7.6,2.1,11.5
		c-9,25.4-18.7,50.6-28.1,75.9c-9.3,25-18.4,50-27.8,75C149.7,458.4,149.3,460.4,147.6,461.8z"/>
	<path class="st1" d="M264,204.9c5.5,2.3,10.9,4.6,16.4,7c1.8,4-1,7.6-1.2,11.5c0,1-0.6,1.9-0.7,2.9c-0.1,1.3,0.3,2.3,1.6,2.8
		c0.8,0.4,1.7,0.3,2.3-0.4c0.9-1.1,0.6-2.3-0.2-3.2c-4.4-4.9-1-9.6,0.4-14.3c0.1-0.3,0.5-0.3,0.9-0.4c5.1,3,10.9,4,16.5,5.8
		c1,0.1,2,0.3,3,0.5c1.3,0.2,2.5,0.7,3.8,0.7c7.3,1.8,15.1,1,22.3,3.5c1.1,3.2-0.7,7.6-3.9,9.4c-0.7,0.4-1.6,0.6-2.3,0.9
		c-1.3,0.5-2.4,1.3-2.2,2.9c0.1,0.9,0.7,1.5,1.6,1.6c1.6,0.2,2.5-0.8,2.9-2.2c0.9-3.6,3.3-6.5,5-9.8c0.7-1.3,1.4-2.7,3-3.1
		c2.3-0.5,4.7-0.3,7.1-0.4c1.4,0.1,2.6-0.3,3.9-0.6c7.8-0.4,15.4-1.7,22.9-3.5c2.3-0.6,4.6-0.4,6.8,0.3c5.7,1.7,11.4,3.5,17,5.3
		c1.4,0.7,2.4,1.7,2.8,3.2c5.4,49.9,10.5,99.8,15.2,149.8c-0.3,0.7,0.7-0.1,0,0.1c-0.2,0.1-0.3,0-0.3-0.4c0.2-3.5,0.1-7,0.8-10.4
		c9.7-48,18.6-96.1,28.1-144.2c1-5.1,0.8-10.7,4.5-15c3.2-0.7,6.1,0.6,8.9,1.9c2.4,3.5,1.8,7.5,1.3,11.1c-1.4,9.9-1.1,19.9-1.5,29.9
		c-0.8,17.8-1.6,35.5-2.5,53.3c-1.2,24.2-1.8,48.5-3.7,72.6c-0.5,6,0.6,12-0.7,17.9c-1.6,3-4,1.5-6.1,1
		c-13.6-3.2-22.3,5.1-25.1,14.5c-1.2,4.1,0.4,8.2-0.3,12.3c-0.3,0.5-0.7,0.8-1.3,0.9c-8.9-1.5-17.5-0.7-25.7,3.5
		c-2.4,1.2-4.1,0.3-5.2-2.1c-1.6-3.7-3.5-7.2-6.2-10.2c-10.9-12.3-31-16.1-45.3-5.1c-1.3,1-2.6,2.2-4.4,1.8c-3-2.2-1.1-5.8-2.5-8.5
		c-0.4-2-0.4-3.9-0.5-5.9c-0.7-4.7-0.6-9.6-1.6-14.3c-0.7-9.3-2.5-18.5-2.4-27.9c-0.1-1.4-0.5-2.8-0.8-4.2
		c-3.3-27.9-5.7-55.9-8.8-83.9c-0.6-5.5-1.3-10.9-1.5-16.4c-0.2-4.5-1.9-7.5-6.7-8.5c-5.2-1.1-10-3.7-15.4-4.3
		c-6.8,1.3-13.5,2.8-20.4,3.4c-2,0.2-3.9,0.6-5.7-0.6c-1.1-1.2-0.5-2.5,0-3.7c3.6-8.8,6.1-17.7,5.2-27.3
		C263,205.7,263.4,205.2,264,204.9z"/>
	<path class="st2" d="M147.6,461.8c2.9-11.3,7.7-21.9,11.7-32.8c9.2-25.3,18.7-50.4,28.2-75.6c5.9-15.8,12-31.6,18-47.4
		c0.2,0.1,0.5,0.1,0.7,0.2c6.8,13,15.9,24.5,24.3,36.4c2.9,4.1,6,8,8.8,12.1c1.6,2.4,2.8,4.9,2.8,7.9c-0.4,12.6-1.5,25.2-2.3,37.7
		c-0.8,13.6-1.9,27.1-2.6,40.7c-0.2,4.8-0.2,9.6-2.2,14.1c-0.9,12.2-0.3,9.9-10.7,9.6C198.7,463.9,173.2,462.8,147.6,461.8z"/>
	<path class="st3" d="M442.2,392.9c2.9-61.9,5.7-123.9,8.6-185.8c13.9,3.2,13.6,3.2,15.1,17.3c3.7,36.9,7.6,73.8,11.5,110.8
		c2.7,26.3,5.4,52.6,8.1,79c0.1,0.9,0.5,2-0.6,2.7c-8.5-2.5-15.8-7.4-23.6-11.4c-4.3-2.2-8.5-4.6-12.9-6.4
		C446,397.3,443.1,396.1,442.2,392.9z"/>
	<path class="st4" d="M441.9,205.1c-4.5,23.2-9.1,46.4-13.5,69.6c-3.5,18.2-7,36.4-10.5,54.6c-2.8,14.5-5.5,28.9-8.2,43.4
		c-0.3,1.4-0.8,2.8-1.9,4.1c-1.4-14.5-2.5-29.1-4.4-43.6c-1.9-14.2-2.6-28.5-4.7-42.7c-1-6.7-1.2-13.5-2-20.2
		c-1.6-14.4-2.8-28.9-4.2-43.3c-0.1-0.7,0.1-1.3,0.1-2c2.6-1.5,4.4-3.4,5.4-6.5c1.3-3.8,3.3-7.6,6.7-10.1c2.2-0.9,4.4-0.5,6.7-0.7
		c1.7,0.3,3.1-1,4.8-0.5c2.9,2,5.9,0.7,8.9,0.4C430.8,207,436.2,205,441.9,205.1z"/>
	<path class="st5" d="M377.5,490.3c7.2,5.3,15.7,7.3,24,7.3c13.7-0.1,26.2-4.9,34.9-16.2c8.7-11.3,12.7-24,8.8-38.3
		c-0.5-1.7-0.1-2.7,1.1-3.9c7.7-7.8,17.2-11,28-11.2c4.1-0.1,8.2-0.9,12.3-1.8c7.2-1.5,9.2-5.1,8.4-12.5
		c-1.3-11.2-2.1-22.4-3.2-33.6c-1.5-15.2-3.2-30.3-4.8-45.5c-1.4-14-2.7-28-4.2-42c-1.5-14.6-3.3-29.3-4.8-43.9
		c-1.2-11-2.2-22.1-3.2-33.2c-0.1-1.4-0.8-3.3,0.8-4.1c1.7-1,3.1,0.5,4.5,1.4c2.9,2.1,4.4,5,4.7,8.4c1.7,17.3,3.3,34.6,5.1,51.9
		c2.1,20.4,4.6,40.8,6.7,61.2c1.6,15.2,2.7,30.4,4.2,45.5c1.4,14,2.9,28,4.8,41.9c1.4,9.9-3.3,15.6-15,16.1
		c-6.3,0.3-12.5,1.6-18.7,2.3c-3.1,0.3-5.5,2.5-8.2,4.1c-7.2,4.3-8,9.9-7.1,17.7c2.4,21.2-15.9,41.8-35.6,45.4
		C405.5,510.1,388.8,505.8,377.5,490.3z"/>
	<path class="st6" d="M318.3,351.2c0.8,9.5,1.6,19.1,2.4,28.6c1.3,4.3,0,7.5-3.2,10.7c-9.1,8.8-17.9,17.8-26.8,26.7
		c-4.9,4.8-8.5,10.8-13.4,15.6c-1.1,1.1-2.4,1.7-3.5,2.6c-7.6,5.6-14.3,12.2-19.9,19.8c-4.4,0.9-8.7,2.1-13.2,1.6
		c-1.4-1.6-0.8-3.5-0.5-5.2c4.5-22.4,8.6-45,13-67.4c0.3-1.3,0.5-2.6,1.4-3.6c2-1.5,2.9,0.2,4,1.3c1.3,1.4,2.4,3.1,3.6,4.6
		c2.5,3.2,4.5,0.5,6.3-0.8c14.6-10.7,29.3-21.3,44.1-31.7C314.3,352.6,315.8,350.8,318.3,351.2z"/>
	<path class="st5" d="M16.3,388.3c2.9,0,4.1,1.5,5.5,2.5c27.1,17.8,54.1,35.6,81.2,53.4c12.2,8,24.4,16.1,36.4,24.3
		c3.6,2.5,7.5,3.6,11.7,3.4c15.8-0.5,31.6,0.7,47.4,1.3c12,0.5,23.9,0.5,35.9,0.8c4.3,0.1,7.6-1.4,8.9-5.6c1.2-4,4.4-2.1,6.7-2.6
		c8.8-1.9,8.6-1.7,11.6,5.8c1.3,3.2,0.5,4.4-2.7,4.4c-2.7-0.1-4.4,0.5-5.8,3.5c-2.1,4.6-7.4,6.5-13.3,5.3c-2.7-0.5-5.3-0.8-7.9-0.7
		c-15.3,0.4-30.6-1-45.9-1.3c-8.9-0.2-17.9-0.4-26.9-0.8c-4-0.2-7.4-1.6-10.7-3.8c-15.2-10.1-30.5-20.1-45.7-30.2
		c-14.6-9.7-29.2-19.5-43.9-29.2c-12.2-8.1-24.4-16-36.6-24.1C20,393.2,18,391.4,16.3,388.3z"/>
	<path class="st7" d="M253.9,455.1c-1.6-0.2-2.1-0.8-0.8-2.1c6-6,11.3-13.1,18.3-17.5c4.2-2.6,5.5-8.3,10.8-8.8
		c9.6-15.8,25-26.2,37-39.7c2-2.2,1.1-4.7,1.4-7.1c1.4,4.6,1.1,9.4,1.7,14.1c-2.2-0.7-3.7,0.2-5.3,1.7c-8.1,8.2-16.2,16.2-24.5,24.6
		c3.7-0.6,7.1-1.6,10.6-1.5c1.6,0,3-0.4,4.1-1.6c5.2-5.8,11.7-10.3,15.4-17.4c1.8,2.5-0.2,5.9,1.8,8.4c-3.4,4.7-8.2,7.9-12.2,12.3
		c8.8,3,15.6,8.8,20.1,17c4.7,8.4,6,17.6,2.4,26.5c-7.7,19.4-26.3,27.2-43.5,21.9c-16.6-5.2-28-26.2-22.2-42.3
		c-3.6,3.8-7.3,7.4-10.7,11.3C257.1,454.9,255.5,455,253.9,455.1z"/>
	<path class="st5" d="M277.5,490.7c17.4,9.7,33.6,9.7,49.5-0.4c4.3-2.7,7.6-6.4,10.7-10.4c1.3-1.7,2.5-3.5,4.8-2.7
		c5.5,1.9,10.9,0.1,16.3-0.7c3.6-0.5,5.7-0.2,7.3,3c0.3,0.6,0.9,1,1.3,1.5c1.2,1.7,4.4,3,3.6,4.9c-0.8,2-4.1,1.6-6.2,1.9
		c-3.4,0.4-7,0.3-10.5,0.1c-3.2-0.2-5.3,0.9-7.2,3.4C329.4,513.5,295.2,513.8,277.5,490.7z"/>
	<path class="st8" d="M255.7,380c-2,9.7-4,19.4-5.8,29.1c-3.1,15.9-6.1,31.8-9.1,47.7c-2-0.1-3.5-2-5.7-1.6c-1-7,0.3-13.9,1-20.7
		c0.6-7,0.7-14.2,1.3-21.2c0.7-8.2,1.5-16.5,1.5-24.8c0-9.2,1.3-18.4,2.1-27.6c1.3-0.7,2.3-0.1,3.1,0.8c4.3,5.1,8.1,10.4,11.7,16
		C256,378.3,256.1,379.2,255.7,380z"/>
	<path class="st6" d="M258.7,454.8c-0.1-4,3.5-5.3,5.6-7.8c2-2.4,4.2-4.6,7.3-7.8c-5.4,25,2.5,40.7,22.2,46.4
		c17.6,5.1,34-5.5,39.8-20.6c6.3-16.6-1.2-36.1-23.2-44.3c5.1-4,8.5-9.7,14.4-12.5c15.1-14.2,38-11.3,50.1,2.8
		c-0.2,2.2-1.6,1.1-2.3,0.6c-2.1-1.3-4-3-6-4.4c-14.6-10.2-35.7-5.7-44.8,9.4c-1.1,1.8-3.2,3.9-0.2,5.9c6.6,5,12.4,10.5,13.9,19.3
		c0.6-0.9-0.1-1.4-0.3-1.9c-0.9-1.9-1.7-4,0.8-5.1c2.5-1.1,3,1.4,3.9,2.8c0.7,1.1,1.4,2.2,2.5,3.1c1.1,0.8,2.3,1.4,3.7,0.6
		c1.2-0.6,1.4-1.8,1.4-3c0.1-2.2-0.7-4.3-1.1-6.4c-1.6-7.7,1.7-11.6,9.4-11.2c0.5,0,1,0,1.5,0.2c2.5,0.9,5.6-2.2,7.4,0.7
		c1.3,2.2-0.8,5.1,0.2,7.7c0.4,1.1-0.1,2.4-1.3,2.9c-1.5,0.7-2.5-0.1-3.5-1.2c-1.6-1.9-2.9-5.5-6-3.7c-2.9,1.6-0.9,4.8-0.4,7.3
		c2,9.4-1.9,14-11.2,12.7c-3-0.4-4,0.8-4.1,3.4c-0.1,3.3,0.1,6.6-0.2,10c-0.6,3.3,2,3.4,3.9,4c7.7,2.1,14.9,0.2,21.8-3
		c6.3-2.9,6.1-3,8.7,3.1c5.5,12.6,15.3,19.9,28.9,20.4c13.2,0.4,23.3-5.9,29.5-17.8c8.3-15.9,0.7-36.2-16-43.5
		c-1.8-0.8-3.8-1.2-5.4-2.5c-0.5-0.4-0.9-1-0.2-1.6c0.6-0.5,1.2-0.2,1.8,0.1c0.2-0.1,0.4-0.1,0.6,0c1.5-1,2.8-0.4,4.2,0.2
		c4.9,2.4,9.5,5.3,13.5,9.1c0.9,1.3,3,1.7,2.6,3.8c-1,1.5,0.4,2.4,1,3.5c9.4,18.5,2.3,40.1-16,48.5c-18.5,8.5-39.2-0.1-47.1-19.5
		c-0.4-0.9-0.8-1.8-1.3-2.9c-9.9,6.1-20.4,7.6-31.4,3.9c-2.7-0.9-2.6,1.3-3.3,2.6c-7,12.6-17.5,19.1-32.1,19
		c-16.4-0.1-31.8-12.9-33.5-29.1c-0.6-5.8-2.9-5.6-6.9-4.4C260.3,454.8,259.5,454.7,258.7,454.8z"/>
	<path class="st9" d="M416.3,207.1c-1.1,0.7-2,2.1-3.7,1.5c-1.2-2.4,0.4-4.2,1.3-6c3-6.8,4.7-13.9,4.4-21.3
		c-0.2-3.6-1.2-6.7-3.7-10.4c-0.9,3.5-0.6,6.1-0.6,8.7c0.2,9.6-2.9,18.3-6.9,26.8c-0.5,1.1-1.1,2-2.3,2.5c-2,4.6-5.8,8.3-6.5,13.6
		c-0.4,2.7-3.2,2.9-5.6,2.6c-0.7-0.6-1.3-1.3-2-1.9c-2-3-0.6-5.4,2-6.4c4.2-1.5,6.2-4.6,7.8-8.3c5.1-10.1,8.7-20.5,8.8-31.9
		c0-3.4,0.6-7.7-3-9.4c-3.9-1.9-7.8,0-11.2,2.5c-6.4,4.7-10.2,11.2-13.5,18.2c-2.7,5.7-3.9,12-6.7,17.6c-0.9,0.6-1.9,0.6-2.9,0.2
		c-1.6-1.4-0.7-3.1-0.3-4.6c2-8.3,5.5-16,9.7-23.4c4.9-8.6,11.7-14.7,22-16.6c-6-6.2-15.4-6.4-21.8-2.6c-5.3,3.1-9.2,7.6-12.6,12.6
		c-6.1,9.3-10,19.5-12.9,30.1c-1.1,3.9-1.7,7.7,1.2,11.4c1.2,1.6,0.8,3.9-0.8,5.5c-1.4,1.4-3.3,1.6-5.1,1c-2.1-0.7-3.9-2.4-3.4-4.4
		c1.3-5.2,1.1-10.9,4.6-15.5c3.2-10,6.6-19.8,12.3-28.7c3.6-5.7,7.8-10.8,13.5-14.5c10.8-7,23.8-4.5,31.3,5.9c0.7,1,1.3,1.9,2.4,2.4
		c9.8,4.6,11.3,13.2,10.5,22.7C421.7,193.8,419.4,200.6,416.3,207.1z"/>
	<path class="st9" d="M283.4,211.5c-0.6,2.5-1.2,5.1-1.9,7.6c-0.6,2-0.9,3.6,1.6,4.8c2.2,1.1,2.4,3.5,1.1,5.6
		c-1.2,2-3.4,2.2-5.3,1.2c-2.2-1.1-2.8-3.2-1.7-5.5c2-4.3,2.1-9,3.3-13.4c3.1-10,6.6-19.8,12.3-28.7c3.6-5.7,7.8-10.8,13.5-14.5
		c10.8-7,23.9-4.5,31.3,5.9c0.5,0.7,0.8,1.7,1.5,1.9c9.7,4.1,11.4,12.6,11.8,21.7c-0.4,8.2-1.3,16.3-6.9,22.9
		c-1,0.7-2.1,0.7-3.2,0.4c-1.1-2.1,0.4-3.8,1.1-5.6c2.6-6,4.2-12.2,4.6-18.7c0.3-4.6-0.3-9.1-3.9-13.6c-0.7,4-0.3,7.4-0.4,10.7
		c-0.7,10-2.9,19.5-9.2,27.5c-2,4.4-5.8,8-6.3,13.2c-0.2,2.2-2.2,3.3-4.5,3c-2.1-0.3-3.2-1.6-3.4-3.6c-0.2-2.1,0.8-4.2,2.7-4.1
		c5.9,0.1,6.3-4.8,8.2-8.4c-0.4-1.8,0.5-3.2,1.2-4.7c3.4-7.7,5.7-15.7,6.6-24.1c0.2-3,0.1-5.9-0.4-8.9c-0.7-4-2.9-5.2-6.7-4.7
		c-3.2,0.5-6.1,1.6-8.4,3.9c-2.1,1.7-3.7,3.8-5.5,5.7c-5.7,6.9-8.5,15.3-11.3,23.6c-0.6,1.8-0.6,4-2.5,5.2c-0.9-0.1-1.9-0.2-2.8-0.3
		c-1-1.2-0.7-2.5-0.4-3.8c2.8-9.6,6.7-18.8,12.3-27.2c4.7-6.9,11.2-11.2,19.5-12.9c-4.7-6-15.4-6.6-21.9-2.6
		c-5.4,3.3-9.4,7.9-12.7,13.2c-4.5,7-7.9,14.6-10.5,22.6C285.5,208.6,285.4,210.6,283.4,211.5z"/>
	<path class="st10" d="M343.8,221.1c3.7-7.2,5.5-15,6.9-22.9c0.6,0.2,1.1,0.5,1.7,0.7c-1.2,4.6-1.4,9.4-3.5,13.9c-1,2,0,4,1.9,5
		c1.5,0.8,3.2,0.7,4.6-0.5c1.6-1.4,2.1-4,0.8-4.9c-5.7-3.9-2-8.3-1.3-12.6c6.1-0.3,11.6,1.4,16.7,4.8c0.9,0.1,1.9,0.2,2.8,0.4
		c3.7-1.4,7.2,0.1,10.7,0.8c5.4,1,11.3-0.2,16.3,3.1c-1.9,3.7-2.5,8.3-8.5,8.5c-2.6,0.1-2.7,3.3-2.3,5.6c-13.2-5.5-26.7-6-40.4-2.2
		C348.2,221.4,346,221.1,343.8,221.1z"/>
	<path class="st11" d="M448,397.4c12.5,6.1,24.9,12.5,36.9,19.4c-11.3,1.6-22.6,3.3-33.9,4.9C453.4,413.2,451,405.2,448,397.4z"/>
	<path class="st7" d="M448,397.4c5.4,7.6,7.4,15.5,3,24.3c-4.4,7.3-10.4,11.7-19.3,11.3c-1-1-2-2-3-3c1.6-1.7,3.7-1.2,5.6-1.4
		c8.4-0.9,15.2-8.7,14.9-17.1c-0.4-8.9-7.1-15.4-15.8-16.3c-11.2-1.1-20.5,9.1-18.1,20.4c0.4,1.7,1.3,3.5,0.4,5.3
		c-1.4-0.4-2.8-0.7-4.2-1.1c-0.3-4.2-1.5-8.5-0.4-12.8c3.7-13.7,16-19.4,31.1-14.2C444.1,394.4,446,395.9,448,397.4z"/>
	<path class="st12" d="M231.6,259.9c1.3,4,1.7,8,0.1,12c-1.1,1.2-2.7,1.1-4.1,1.5c-5.5,1.4-8.6,5-8.6,10.1c0,5.1,3.4,9.7,8,10.8
		c5.1,1.3,10.2-0.8,12.9-5.3c2.4-4.1,1.6-9.6-2.1-13.3c-1.3-1.3-3.2-1.9-3.8-3.8c0-4-0.1-8-0.1-12c4.9-2.6,9.1,0.7,13.6,1.7
		c11.3,5,19.7,13.3,26.3,23.6c13.7,18.8,27.2,37.8,40.8,56.5c1.2,1.6,3,3.2,1.8,5.7c-1.1,0.6-2.3,0.7-3.4,0.3
		c-11.7-4.6-23.8-8.3-35.1-13.8c-1.2-4.7-4.4-3.6-7.5-2.5c-2.7-1-5.6-1.4-7.9-3.3c-0.5-2.3,1.4-3.6,2.4-5.2c1.1-1.8,3-3.5,1.4-5.8
		c-1.8-2.6-4.1-1-6.3-0.5c-5.6,1.4-10.7,4.4-16.6,4.7c-10.6-4.7-21.6-8.3-32.4-12.7c-1.8-0.8-3.7-1.5-5.2-2.8c0,0-0.4,0-0.4,0
		c-0.7-4-1.5-8.1-2.2-12.1c-0.5-0.5-1.1-1.1-1.1-1.9c-0.3-10,2.4-18.9,10-25.9c2.7-2.5,5.7-4.4,9.3-5.6
		C224.8,259.5,228.1,257.5,231.6,259.9z"/>
	<path class="st8" d="M159.8,237.1c3.4-7.1,6.6-14.3,12-20.2c1.8-0.6,3.2,0.4,4.7,1.1c4.3,2.1,8.6,4.2,13,6.1c1.2,0.5,3.1,0.6,3,2.7
		l0,0.3c-1.1,1.6-3,1.9-4.6,2.7c-5.1,2.5-8.5,6.6-11.1,11.5c-0.6,0.8-1.2,1.5-2.2,1.5C169.7,240.7,164.2,240.2,159.8,237.1z"/>
	<path class="st13" d="M152.5,234c2.4-7,4.8-14,7-21.1c0.8-2.7,1.9-2.5,3.8-1.2c1.9,1.3,3.9,2.4,5.9,3.6
		c-4.4,6.5-8.6,13.3-11.6,20.6C155.6,236.1,153.9,235.4,152.5,234z"/>
	<path class="st14" d="M174.5,242.9c0.5-0.6,1-1.2,1.4-1.8c0.9-0.1,1.2,0.5,1.5,1.2c0.1,0.7,0.1,1.4-0.1,2.1
		c-1.4,3.5-1.7,6.7,2.3,8.8c0.8,1.3,1.1,2.7,1.2,4.2c0.7,1.2,0.2,2.5-0.7,3.1c-4.3,2.7-2.6,6.1-1.2,9.5c0.9,2.1,2.4,3.9,2.3,6.4
		c-0.1,0.5-0.4,0.8-0.9,1c-6.6-9.4-8.6-19.8-6.3-31C174.3,245.1,174.4,244,174.5,242.9z"/>
	<path class="st15" d="M202.9,292.9c0.1,0.3,0.2,0.7,0.3,1c-5.5-0.3-9.9-3-13.8-6.6c0.2-0.5,0.6-0.7,1.1-0.8
		C194.9,288.1,199.3,289.8,202.9,292.9z"/>
	<path class="st14" d="M189.4,287.3c-4.1-2.4-6.9-5.9-9.1-10.1c0.2-0.2,0.4-0.3,0.6-0.5c4.3,2.2,7,5.8,9,10
		C189.8,286.9,189.6,287.1,189.4,287.3z"/>
	<path class="st6" d="M316.4,347c-12.4-17.4-24.9-34.7-37.3-52.1c-2.1-3-4.2-5.9-6.3-8.9c-0.2-5.4,1.6-10.5,2.4-15.7
		c1.7-11,4.5-21.8,6.3-32.7c0.3-1.7,0.9-3.2,2.2-4.4c7.6,0.5,14.2,4.3,21.5,5.9c2,0.4,1.6,2.3,1.8,3.7c1.6,14.5,3.2,29,4.7,43.6
		c2,19,3.9,38,5.9,57c0.2,1.5,0.1,3,0.1,4.5c-0.2,0.5-0.5,0.6-0.9,0.4c-0.2-0.2-0.3-0.5-0.3-0.8C316.3,347.1,316.3,347,316.4,347z"
		/>
	<path class="st8" d="M283.6,233.1c-3,16.2-6,32.5-9.1,48.7c-0.3,1.4-1.1,2.7-1.7,4.1c-6.5-9.7-14.6-17.8-25.3-23
		c-1.2-3.1-3-5.6-6.5-6.6c-1.3-0.4-2.7-1.3-2.2-3.2c2.6-5.4,4.7-11,8-16c2.6-2,5.2-2.2,8-0.3c1,0,2,0,3-0.1
		C266.6,236.9,275.1,234.7,283.6,233.1z"/>
	<path class="st7" d="M410.8,419.9c-0.3,1.1-0.3,1.2,0.4,1.4c8.7,2.4,15.1,8,19.5,15.4c12.1,20.4-1.2,45.7-23.1,49.4
		c-17.7,3-33.6-9-37.5-23.1c-0.7-2.4-1.2-3.1-3.9-1.4c-8.4,5.2-17.5,7-27.2,4c-2.1-0.7-4.2-1.7-2.4-4.6c1.1-0.6,2.3-0.4,3.4,0
		c6.3,2.5,12.5,0.8,18.6-0.8c6-1.6,7.5-3.8,7.7-9.9c0.3-7.1,2.9-13.4,7.2-18.8c2.8-3.5,2.7-6.7,0.7-10.5c-9.9-19.6-37-21.6-49.6-3.5
		c-1.3,1.9-1.9,4.3-4.1,5.6c-2.9-0.3-3.1-1.8-1.9-4.1c4.9-9.7,12.7-15.6,23.2-17.8c11.8-2.5,21.8,1.2,30.5,9.1
		c0.6,0.5,1.1,2,2.3,0.8c3,2.7,4.9,6.2,6.2,10c1,2.9,2,3.2,4.8,1.8C393.6,418.4,402,416.8,410.8,419.9z"/>
	<path class="st16" d="M338.4,192.9c-0.6,10.4-3.9,19.9-8.9,28.9c-8-0.7-16-1.1-23.8-3.1c-0.6-0.7-0.8-1.5-0.5-2.3
		c3.5-9.5,5.6-19.5,10.9-28.4c0.7-2.4,2.3-4,4.4-5.2C327.1,184.9,333.2,188.2,338.4,192.9z"/>
	<path class="st6" d="M322.8,399.7c0.1,2.6-0.8,4.7-2.8,6.6c-4.1,3.9-8,7.9-11.9,12c-1,1.1-1.9,1.8-3.3,1.7c-4.8-0.4-9.4,0.9-14.1,2
		c-0.6-1.8,0.8-2.2,1.5-3c8.3-8.4,16.6-16.7,25-25c1.6-1.6,3.5-4.2,5.3-0.1C322.6,395.9,322.7,397.8,322.8,399.7z"/>
	<path class="st17" d="M316.9,347.8c0.2-0.1,0.4-0.1,0.7-0.1c0.4,1.1,1.2,2.1,0.8,3.4c-16.9,12.1-33.7,24.3-50.6,36.4
		c-2.2,1.5-4.5,3.6-6.1-0.6c12.9-9.8,26.2-19.1,39.4-28.6c4.2-3,8.2-6.2,12.5-9.1C314.5,348.6,315.3,347.3,316.9,347.8z"/>
	<path class="st18" d="M332.8,221.8c3.9-8.9,7.4-17.9,8.3-27.7c2.6-0.2,4.9,0.4,6.5,2.8c0.1,8.9-3.2,16.8-6.9,24.6
		C338,221.6,335.4,221.7,332.8,221.8z"/>
	<path class="st19" d="M316.9,347.8c-10,8.4-21.1,15.4-31.5,23.3c-6.2,4.7-12.6,9.1-18.9,13.7c-1.5,1.1-3,2.1-4.9,2.2
		c-2-2.3-3.9-4.7-5.9-7c-4.3-6-8.5-12.1-12.8-18.1c-0.5-0.8-1.3-1-2.1-1.1c0-2.4-1.6-4-2.8-5.7c-9.1-12.8-18.2-25.6-27.3-38.4
		c-2.3-3.3-3.9-6.9-5-10.7c12.9,4.3,25.8,8.4,37.8,14.9c0.8,1.8,2.1,2.8,4.2,2.9c6.9,0.2,8.4,2.4,6.3,8.9c-0.3,0.8-0.5,1.6,0.2,2.7
		c4.1-0.9,4.2-6.7,8.5-7.3c2.9,0.2,5.6,0.9,7.8,2.9c-0.3,3.6-3.8,4.2-6,5.9c-6.6,5.2-6.7,5.2-1.3,11.7c0.6,0.7,1,1.8,2.3,1.6
		c0.3-0.2,0.5-0.5,0.3-0.9c-3.6-6.9-3.7-7,2.8-11.6c2.7-1.9,4.7-5.3,8.8-4.7c11.6,4.5,23.2,8.9,34.9,13.3c1.2,0.5,2.6,0.4,3.9,0.6
		C316.5,347.3,316.7,347.6,316.9,347.8z"/>
	<path class="st0" d="M189.9,286.8c-3-3.3-6-6.7-9-10c-1.1-2.4-2.3-4.8-3.3-7.2c-1.6-3.8-4.2-8,2.2-10.1c0.5-0.2,0.7-1.4,1-2.1
		c1.8-4.8,6.5-7.5,8.5-12.2c0.5-1.2,1.5-1.1,2.3-0.1c2.4,2.9,5.9,1.4,8.8,1.9c8.4-0.7,16.7-0.9,25.1,0.1c1.7,0.9,1.6,2.4,1.2,3.9
		c-1.1,3.8-2.1,7.7-5.1,10.7c-11.6,5-17.4,13.9-18.2,26.3c-0.1,1.7-0.4,3.3-0.6,4.9C198.2,291.8,194.1,289.1,189.9,286.8z"/>
	<path class="st20" d="M232.1,236c4.1-11.9,8.3-23.8,12.5-35.7c1.9-5.6,2-5.5,7-2.5c2.7,8.7,0.5,17.1-1.9,25.4
		c-1.4,4.9-3.4,9.7-6.1,14.1C239.5,239,235.6,239.7,232.1,236z"/>
	<path class="st21" d="M226.7,248.1c-7.2,0-14.4,0-21.6-0.1c-1.6,0-3.3,0.5-4.6-1.1c2.7-4,5.3-8.1,7-12.5c0.9-2.3,1.9-2.9,4.4-1.9
		c7.4,2.9,11.8,8.7,15.5,15.3C227.4,248.3,227.1,248.4,226.7,248.1z"/>
	<path class="st22" d="M254.8,236.9c-2.7,0.1-5.3,0.2-8,0.3c4-8.9,7.4-17.9,8.3-27.8c0.3-3.2,0.1-6.2-0.1-9.3c2.3-0.8,3.5,1.1,5.2,2
		c3.6,10.2,0.9,19.9-2.9,29.4C256.6,233.3,255.7,235.1,254.8,236.9z"/>
	<path class="st23" d="M233.9,272.1c9.4,4.7,11.6,13.9,4.9,20.5c-4.2,4.1-10,4.9-15.1,2c-4.3-2.5-7-8.5-5.9-13.3
		c1.3-5.7,5.8-9.3,11.9-9.4c0.7,0,1.3,0.1,2,0.1c-0.1,1-0.1,2-0.2,3.1c-1.5,1.1-3.4,1.2-5,2.1c-4.3,2.3-5.6,6.8-3.2,10.9
		c2.3,3.8,7.5,4.9,11.3,2.4c4-2.6,4.8-7.3,1.9-11.2c-1.1-1.4-2.7-2.5-3.1-4.4C233.6,273.9,233.8,273,233.9,272.1z"/>
	<path class="st24" d="M232.1,236c3.7,1.5,7.6,0.8,11.4,1.2c-1.8,3.7-2.3,8.6-8.2,8.7c-2,0-2.7,2.1-2.8,4.1c-0.6,0.7-1.3,0.7-1.9,0
		c-3.2-5.5-6.7-10.8-11.5-15.2C223.6,234.6,227.8,236.5,232.1,236z"/>
	<path class="st25" d="M176.8,243.9c0-0.6,0-1.3-0.1-1.9c2.6-7.8,7.7-12.7,16-13.8c1.5-0.1,1.4,0.7,1.2,1.9
		c-0.7,5.9-4,10.4-7.4,14.8C183.1,246.9,179.9,246.1,176.8,243.9z"/>
	<path class="st26" d="M230.7,249.9c0.6,0,1.3,0,1.9,0c1.7,1.8,3.6,3.2,6.3,3.2c0.9,1.8,2.8,2.3,4.4,2.8c3.5,1.2,5.2,3.2,4.3,7
		c-4.6-1-8.9-3.3-13.8-2.9C232.7,256.7,231.7,253.3,230.7,249.9z"/>
	<path class="st27" d="M233.5,274.8c6.1,4.8,7.6,8.3,5.3,12.8c-2.2,4.4-7.2,6.5-11.8,5c-4-1.4-7-6.2-6.3-10.2
		c0.7-4.5,5-7.4,10.8-7.4c-0.2,0.4-0.4,0.7-0.6,1.1c-1,0.8-2,1.7-3,2.5c-4.1,3-4.5,4.8-2.2,9.6c3.1,2.2,6.1,2.4,8.9-0.5
		c2.5-2.7,1.7-5.4-0.4-8c-0.6-0.8-0.9-1.8-1.3-2.6C232.8,276.2,232.7,275.4,233.5,274.8z"/>
	<path class="st28" d="M232.8,277c5.2,4.3,6.1,7.4,3.1,11.2c-2.8,3.6-6.8,3.9-11.2,0.6c-0.2-2.7,1.4-3.8,3.7-4.4
		C231.1,282.6,231.7,279.6,232.8,277z"/>
	<path class="st29" d="M205.8,231.2c-1.2,4.5-3.4,8.4-6.5,12.5c-0.2-1.1-0.2-1.9-0.5-2.2c-6.1-4.3-1.6-8.4,0.2-12.6
		C201.6,228.4,203.9,229.2,205.8,231.2z"/>
	<path class="st30" d="M176.8,243.9c3.3,0.3,6.6,0.7,9.8,1c-2.1,2.9-3.9,6-6.9,8.1C173.8,252,173.5,251,176.8,243.9z"/>
	<path class="st31" d="M226.7,248.1c0.2-0.2,0.5-0.2,0.8-0.3c2.1,3.8,3.8,7.7,4.2,12.1c-3.5-0.2-6.7,0.7-10,1.7
		C223.3,257.1,225,252.6,226.7,248.1z"/>
	<path class="st32" d="M228.5,284.5c-1.2,1.5-2.5,2.9-3.7,4.4c-3.7-6.5-2.1-9.9,6.2-12.7C231.2,279.2,228.8,281.5,228.5,284.5z"/>
	<path class="st33" d="M192.7,228.3c-7.4,2.2-12.5,7.1-16,13.8c-0.3-0.3-0.5-0.6-0.8-1c3.1-7.5,8.5-12.3,16.5-14
		C192.6,227.5,192.7,227.9,192.7,228.3z"/>
	<path class="st34" d="M264,204.9c-1.6-5.5-4.5-10-10-12.4c-1.1-0.5-1.8-1.4-2.5-2.3c-8.1-11-21.3-13.2-32.4-5.3
		c-5.7,4-9.8,9.4-13.3,15.4c-0.6,1.1-0.9,2.9-2.6,2.6c-1.2-0.2-1.4-1.7-1.9-2.8c-4-8.3-11-12.5-20-12.6
		c-10.7-0.1-18.3,6.1-25.1,13.6c-7.1,7.8-12.3,16.9-16.9,26.4c-2.2,4.2-3.1,9-5.8,13c-1.5,2.2-1,4.1,1,5.6c1.9,1.4,3.9,1.1,5.3-0.5
		c1.6-1.8,1.7-4.3-0.2-5.8c-2-1.5-1.6-2.9-0.8-4.6c1-2.1,2-4.2,2.9-6.3c1.8-0.8,2.5-2.6,3.3-4.2c2.8-5.9,6.3-11.4,10.2-16.5
		c5.1-6.7,11-12.5,19-15.7c8.1-3.2,16.5-0.8,20.9,6.2c-12.1-0.3-19.6,7.1-26.5,15.5c-1.7,2.6-3.7,5.1-5.1,7.9
		c-2.3,4.5-5.8,8.5-5.9,13.8c0.4,0.9,1.2,1.2,2.2,1.1c1.9-0.8,2.4-2.6,3.2-4.2c2.7-5.5,6.1-10.5,9.6-15.4c1.3-1.5,2.4-3.3,3.8-4.6
		c4.9-4.8,10.2-9.2,17.8-8.6c4.4,0.4,5.9,2.1,4.7,6.2c-1.5,5.3-3.2,10.5-5.8,15.3c-0.3,0.4-0.5,0.8-0.7,1.2c-0.1,0.5-0.1,0.9,0,1.4
		c1,6.6-3.6,10.9-6.6,15.9c-2,3.1-4.8,5.7-6.5,9c-0.1,1.5,0.2,2.9,1.4,3.9c3.3-1.3,4.6-4.6,6.7-7c2.1-2.4,3.4-4.4,7.2-2.6
		c1.8,0.9,4.5,1.5,6.7-0.1c2.7-2.8,4.2-6.3,5.9-9.7c2.4-4.5,4.4-5.2,8.5-2.1c4.7,3.5,8.6,7.7,11,13.2c1.8,3.7,3.1,7.6,4,11.7
		c0.9,3.6,0.9,7.3,0.2,11c-0.2,1-0.4,1.9-0.6,2.9c-0.1,0.7-0.4,1.4-0.6,2.1c-0.1,2.6-2.6,4.9-1.1,7.7c3.9-0.5,4-4,5.2-6.7
		c0.2-1,0.5-2,0.8-3c0.3-1,0.4-2.1,0.4-3.2c0-3.6,0.1-7.1-0.1-10.7c-0.5-3.7-1.9-7-3.3-10.4c-2.5-6.2-6.6-11.3-11.3-15.9
		c-2.1-1.9-1.7-4.1-1-6.4c2.8-9.1,6.4-17.8,12.5-25.3c3.3-4,7.5-6.6,12.4-7.8c3.2-0.7,6-0.1,6.5,4c0.5,1.9,0.6,3.9,0.6,5.9
		c0.3,11.3-3.7,21.4-8.3,31.4c-1.6,3.9-3.4,7.5-8,8.8c-2.4,0.7-3.5,3-2.8,5.7c1.6,2.4,3.7,3.7,6.6,3.2c1.6-0.5,2.5-1.6,2.9-3.1
		c1.4-4.8,4.3-8.9,6.4-13.4c0.9-1.8,1.9-3.5,2.6-5.3c3.8-10.1,7.2-20.2,5.5-31.2c0,0,0-0.1,0-0.1c-0.4-0.2-0.8-0.4-1.2-0.6
		c-0.3-1.2-0.7-2.5-0.2-3.9c2.8,1.1,4.2,3.4,5.4,5.9c-0.6,0.1-1.1,0-1.6-0.2c0.2,0.4,0.4,0.8,0.5,1.3c2.8,9.4,0.6,18.4-2.8,27.2
		c-0.8,2.2-2.9,4.3-1.5,7c1.1,0.5,2.1,0.5,3-0.5C262.6,226.7,265.9,216.3,264,204.9z M198.9,229c4.3-1.6,6.9-0.7,6.8,2.2
		C203.5,230.5,201.2,229.7,198.9,229z M207.6,226.3l-7.1-1.3c1.1-5.6,2.5-11.2,4-17.7C209.8,213.8,209.1,220,207.6,226.3z
		 M221.8,211.2c-3.3,6.2-5.4,12.8-7.4,19.7c-4.1-0.7-4.9-2.6-3.9-6.3c1.7-6.3,1-12.6-3.2-18c-0.8-1.1-1.1-1.9-0.4-3.1
		c4.5-7.9,9.7-15.2,18.4-19c8.2-3.7,17.8-1.1,23.3,6.3C234.2,190.6,227.6,200.4,221.8,211.2z"/>
	<path class="st35" d="M332.7,453.6c-1.9,17.4-12.1,29.1-29.2,29.8c-19.4,0.7-31-13.9-31.3-28.8c-0.4-18,11.1-31.3,31.3-31.3
		C319.7,423.3,331.5,436.2,332.7,453.6z"/>
	<path class="st35" d="M320.6,423c6.5-20.2,33.2-25.2,47.4-12.1c1.2,1.1,2.4,2.3,3.5,3.5c6.5,6.8,6.9,11.8,1.8,19.5
		c-3.3,4.9-5.5,10.2-5.7,16.2c-0.2,7.1-1.3,9.2-7.9,11.2c-7.6,2.4-15.5,3.7-23.1-0.3c0-3.7-0.1-7.3,0-11c0.1-3.7,1.3-5.6,5.7-3.8
		c5.7,2.4,10.9-1.8,10.2-7.9c-0.3-2.3-1-4.5-1.6-6.8c-0.7-2.5-0.5-4.7,2-6.1c2.4-1.3,4.1,0.3,5.6,1.9c0.5,0.5,0.9,1,1.4,1.5
		c1,0.9,0.5,3.7,2.7,2.7c2.1-1,0.9-2.8,0-4.2c-0.3-0.4-0.7-1.1-0.6-1.3c5-7.8-1.4-3.2-3.6-3.3c-1.3-0.1-2.6-0.7-3.9-0.7
		c-6.1-0.3-8.8,3-7.4,9.1c0.6,2.4,1.1,4.8,1.5,7.3c0.3,2.1-0.2,3.9-2.5,4.9c-2.1,1-3.5-0.2-4.9-1.3c-1.5-1.1-2.5-2.7-3.2-4.4
		c-0.4-0.9-0.2-2.8-2-2c-1.5,0.7-1.3,2.1-0.8,3.4c0.5,1.3,1.7,2.5,1.1,4.8c-2-3.7-3.9-6.8-5.4-10.1
		C328.7,428.9,323.4,427.2,320.6,423z"/>
	<path class="st36" d="M415.6,421c-3.8-9.8-2.5-16.4,4.5-23c5-4.7,14.8-5.7,21-2c7.7,4.6,10.9,12.4,8.5,21.3
		c-1.9,7.4-8.7,12.6-16.5,12.7c-1.5,0-3,0-4.5,0C424.3,427,420,424,415.6,421z"/>
	<path class="st37" d="M262.9,328.1c-1.9,2.5-3.7,5-5.8,7.4c-0.8,0.9-1.3,3.5-3,2c-1.4-1.1-3.5-2.9-1.3-5.4c1.5-1.6,2.8-3.2,0.8-5.5
		c-1.5-1.8-2.4-3.1-5.2-1.9c-3.4,1.5-5.4,0.1-4.7-3.9c6.3-2.1,12.5-4.1,18.7-6.3c2.3-0.8,3.6-0.5,5,1.5c1.4,2,2.1,3.6,0.2,5.7
		C265.8,323.6,264.4,325.9,262.9,328.1z"/>
	<path class="st38" d="M244,308.5c-0.2-1.8-0.5-3.6-0.7-5.4c-0.2-2.7,0.7-4.9,3.1-6.3c2.5-1.4,4.8-0.7,7,0.6
		c2.3,1.5,3.7,3.7,4.9,6.2c0.7,1.6,0,2.5-1.4,3.1c-1.4,0.6-2.2,0.2-2.6-1.3c-0.2-0.6-0.5-1.2-0.9-1.8c-0.9-1.4-1.9-3.1-3.8-2.3
		c-1.8,0.8-1,2.6-0.9,4c0.1,1.1,0.5,2.3,0.7,3.4c0.5,3.3-0.7,5.9-3.7,7.5c-2.9,1.6-5.5,0.6-7.8-1.2c-2-1.6-3.3-3.7-4.4-6
		c-0.6-1.4-1.3-2.7,0.8-3.6c1.9-0.8,2.7-0.3,3.2,1.6c0.3,1.1,0.9,2.1,1.6,3.1c0.8,1.1,1.8,2.2,3.3,1.6
		C244.1,311.2,244.3,309.9,244,308.5z"/>
	<path class="st39" d="M277.7,333c-3.8,2.6-7.5,5.4-11.4,7.8c-2.8,1.7-2.6,3.3-0.7,5.4c0.9,1,1.5,2.2,2.3,3.2c1.1,1.5-0.3,2-1.1,2.6
		c-0.8,0.6-1.6,1.3-2.4,0c-0.2-0.3-0.4-0.5-0.6-0.8c-8-9.3-8-9.3,1.8-16.4c1.7-1.3,3.4-2.6,5.1-3.9c2.1-0.4,3.1-3.6,5.4-2.4
		C277.3,329.2,279.1,330.8,277.7,333z"/>
	<path class="st35" d="M431.7,453.2c1.6,15.3-14.6,29.8-28.4,30c-17.9,0.2-31.5-14-31.4-29.2c0.1-18.1,13.2-30.7,30.5-30.9
		C417.6,423,432.7,436,431.7,453.2z"/>
	<path class="st40" d="M285.6,342.5c1.3-0.3,1.5,1,2,1.7c1.8,2.4,3.5,4.9,5.3,7.3c1,1.3,1.6,2.3-0.2,3.6c-2,1.4-2.6,0-3.4-1.2
		c-0.7-0.9-1.4-1.9-2-2.8c-0.9-1.4-1.8-2.2-3.5-0.9c-1.6,1.1-1.8,2.1-0.6,3.5c0.9,1,1.5,2.2,2.4,3.2c1.2,1.4,0.6,2.2-0.6,3.2
		c-1.5,1.2-2.3,0.5-3.1-0.7c-0.7-1.1-1.6-2.1-2.3-3.3c-1.2-1.9-2.3-1.1-3.6-0.2c-1.4,1-2.2,1.8-0.8,3.5c1.1,1.3,1.9,2.7,2.9,4
		c1.1,1.3,1,2.3-0.5,3.2c-1.2,0.8-2.1,0.7-2.9-0.5c-2.1-3-4.2-6-6.4-8.9c-0.9-1.3-0.5-2.1,0.6-2.8c5.3-3.7,10.5-7.5,15.8-11.3
		C284.9,342.9,285.2,342.7,285.6,342.5z"/>
	<path class="st41" d="M307.5,440.1c3.1,2.4,3.5-3.5,5.7-2.4c2.7,1.3-2.1,4.2,0.6,6c0.4,0.3,0.7,0.7,1,1.1c0.6,0.7,1.8,1.3,0.9,2.4
		c-1.1,1.3-2,0.3-2.9-0.5c-1.3-1-2.6-2.1-3.9-3c-1.5-1-2.8-0.6-4,0.6c-1.2,1.2-2.3,2.1-1.6,4.3c0.9,2.6,2.7,4.6,4,6.8
		c3.5,5.9,0.3,12.3-6.6,12.5c-2.8,0.1-4.7,2.6-6.7,2.3c-2.9-0.5,1.1-4.3-1.6-5.8c-0.7-0.4-1.2-1.1-1.8-1.8c-0.7-0.8-1.2-1.6-0.3-2.6
		c0.9-0.9,1.8-0.7,2.6,0c0.5,0.4,1,0.9,1.4,1.4c2.5,2.9,5.6,4,8.7,1.4c3.3-2.7,0.5-5.5-0.7-8c-0.8-1.8-2.5-2.9-2.9-5.1
		C298.2,443.8,301.1,439.9,307.5,440.1z"/>
	<path class="st42" d="M427.7,419c1.8-1.2,3,0.2,4.3,0c1.8-0.4,3.1-1.3,3.5-3.1c0.4-1.6-0.8-2.4-2-3c-1.3-0.7-2.7-1.3-4-2
		c-2.2-1.2-2.4-3.4-1.4-5.2c1.2-2,3.2-3.5,4.8-5.2c1.1,1.2,2.2,2.5,3.3,3.7c-0.4,0.3-0.6,0.5-0.9,0.6c-1.8,0.5-4.6-0.7-5.1,1.9
		c-0.5,2.4,2.2,3,3.8,3.9c4.7,2.8,5.1,6,1.1,9.6c-0.9,0.8-1.4,1.8-1.7,3.5C431.5,421.8,430.2,419.9,427.7,419z"/>
	<path class="st43" d="M263.6,319.1c-2.1,2.6-3.7,4.7-5.3,6.7C254.7,321.7,254.7,321.7,263.6,319.1z"/>
	<path class="st44" d="M403.8,473c-1.4-4.5-3.7-5.9-6.9-6.1c-1-0.1-1.9-0.8-1.5-2.1c0.4-1.4,1.3-1.8,2.7-1.1
		c0.4,0.2,0.9,0.5,1.4,0.6c3.6,1.2,8.5-0.3,8.9-3c0.5-3.7-2-5.8-5.1-7c-2-0.8-4-1.4-5.6-3c-3.7-3.5-3.8-7-0.1-10.6
		c1.7-1.7,5-2.2,4.5-5.7c-0.1-0.5,1.4-1.1,1.5-0.7c1.1,3.3,3.9,4.4,6.6,5.9c0.2,0.1,0.3,1,0.1,1.3c-0.3,0.6-0.8,1-1.6,0.8
		c-0.9-0.4-1.8-0.9-2.8-1.1c-3.2-0.4-5.7,0.8-6.9,3.7c-1.2,3,1.5,3.9,3.6,5c2.2,1.2,4.5,2.2,6.4,3.7c4.6,3.5,4.4,10.3-0.6,12.7
		C405.8,467.6,404.6,469.2,403.8,473z"/>
</g>
</svg>
