<?xml version="1.0" encoding="utf-8"?>
<!-- Generator: Adobe Illustrator 19.0.0, SVG Export Plug-In . SVG Version: 6.00 Build 0)  -->
<svg version="1.1" id="Calque_1" xmlns="http://www.w3.org/2000/svg" xmlns:xlink="http://www.w3.org/1999/xlink" x="0px" y="0px"
	 viewBox="0 0 612 792" style="enable-background:new 0 0 612 792;" xml:space="preserve">
<style type="text/css">
	.st0{fill:#48B649;}
	.st1{fill:#314967;}
	.st2{fill:#FEDC00;}
	.st3{fill:#314966;}
	.st4{fill:#FDDB01;}
	.st5{fill:#FCDB01;}
</style>
<g>
	<path class="st0" d="M185.8,542.1c-2.2,0-4.3,0-6.5,0.1c-2.8-4.5-6.8-6.7-11.9-7.9c-5.4-1.2-7.7-5.7-7.7-12.5c-0.1-16,0-32,0-48
		c0-3.7-0.4-7.3-0.9-10.9c-0.8-5.5-3.2-10-7.2-13.9c-11.6-11.5-23.1-23.1-34.7-34.6c-1.3-1.3-2.6-2.6-3.8-3.9
		c-5.9-6.7-5.9-13,0.4-19.4c11.3-11.5,22.6-23.1,34.3-34.2c8.4-8,12.5-17,12-28.8c-0.7-15.5-0.2-31-0.2-46.5
		c0-10.7,4.1-14.9,14.8-14.9c15.3-0.1,30.6-0.1,46,0c4.7,0,9.3-0.7,13.9-1.3c1.5-0.2,2.9-0.7,4.3-1.3c6.8-2.9,9.9-7.9,8.3-15.4
		c2.1-2,4.1-3.9,6.2-5.9c8.4,1.2,13.4-4.2,18.4-9.6c3.7-4,7.7-7.8,11.6-11.7c7.8-7.7,14-7.8,21.9,0c11,10.9,22.1,21.7,32.8,32.9
		c8.2,8.6,17.4,13,29.6,12.4c15.4-0.8,31-0.2,46.4-0.2c10.3,0,14.5,4.2,14.5,14.6c0,15.5,0.2,31,0,46.4
		c-0.2,11.5,2.8,21.2,11.9,29.3c11.1,9.8,21.1,20.8,31.6,31.3c10,10,10,15.3,0.2,25.1c-10.9,11-21.9,21.9-32.8,32.8
		c-2.4,2.4-4.6,4.8-6.5,7.6c-6.1,8.7-5.4,14.8,2.6,21.3c0,3.6,0,7.2-0.1,10.7c-6.4,4.2-7.1,10.5-6.7,17.5c0.4,6.3,0.2,12.6,0,19
		c-0.2,8.5-4.5,12.9-13.1,12.9c-16.8,0.1-33.6,0.1-50.4,0c-10-0.1-18.3,2.8-25.3,10.5c-10.7,11.6-22.2,22.5-33.4,33.6
		c-9.1,9.1-14.8,9-24.1-0.1c-8.8-8.6-17.3-17.5-25.6-26.6c-3.6-3.9-7.8-7.3-11.9-10.6c-5.6-4.5-12-6.9-19.4-6.8
		c-8.2,0.2-16.3,0.3-24.5,0C194.2,535,189,536.3,185.8,542.1z"/>
	<path class="st1" d="M435.1,475.2c-6.5-1.5-9-5.3-7.9-12c1-6.2,4.3-11.1,8.6-15.4c12.3-12.4,24.7-24.8,37.1-37.1c7-7,7-12.2,0-19.2
		c-11.9-11.9-23.5-24.1-35.8-35.6c-7.4-6.9-10-15-10-24.5c-0.1-17,0-34,0-51c0-8.8-3.6-12.5-12.3-12.5c-17.3,0-34.6-0.3-52,0.1
		c-9,0.2-16.2-3.1-22.3-9.2c-12.1-11.9-24.1-24-36.1-36c-8-8-12.7-8-20.6-0.2c-5.7,5.6-11.5,11.1-16.9,17c-4.1,4.4-8.4,5.6-13.8,3.1
		c-3.6-6.5-3.3-8.8,1.9-14c6.5-6.5,12.9-13,19.4-19.4c11.6-11.4,27.2-11.5,38.7-0.1c12.4,12.1,24.7,24.3,36.7,36.8
		c4.1,4.3,8.6,5.9,14.2,5.9c16.8,0,33.6-0.1,50.5,0c17.9,0,28.6,10.7,28.6,28.5c0,16.8,0.1,33.6,0,50.5c0,5.8,1.8,10.4,6.1,14.5
		c12.1,11.6,23.9,23.7,35.8,35.6c12.2,12.3,12.2,27.8-0.1,40.1c-11.8,11.8-23.6,23.5-35.3,35.3c-3.4,3.4-6.5,6.8-6.7,12.3
		C442.6,472.9,439.2,474.9,435.1,475.2z"/>
	<path class="st1" d="M246.9,248.7c3.4,6.8,2.1,11-4.9,15.3c-5.6,3.4-12,3.9-18.3,4c-16.8,0.2-33.6,0-50.5,0.1
		c-8.7,0-12.3,3.6-12.3,12.5c0,17.3-0.2,34.6,0.1,52c0.2,8.8-3,15.9-8.9,21.9c-12.3,12.4-24.7,24.8-37.1,37.1
		c-6.9,6.9-6.9,12.1,0.2,19.2c11.9,11.9,23.5,24.1,35.8,35.6c7.2,6.7,9.9,14.7,9.9,24c0.1,17,0.3,34-0.1,51
		c-0.1,7.1,3.4,12.7,11.1,13c4.6,0.2,6.9,3.6,7.4,8c-1.3,6.2-3.7,8.1-10,7.8c-13.1-0.6-24.2-12.1-24.4-25.7
		c-0.2-17.8-0.2-35.6,0.1-53.5c0.1-5.5-1.5-9.6-5.3-13.3c-12-11.8-23.9-23.7-35.8-35.6c-13.4-13.4-13.4-28.5,0.1-41.9
		c11.8-11.8,23.4-23.7,35.4-35.2c4-3.8,5.5-8.1,5.5-13.3c0-16.7,0.6-33.3-0.2-50c-0.8-17.8,12.7-30.6,29.7-29.9
		c16.5,0.7,33,0.2,49.5,0.1c4.5,0,8.8-0.5,12.5-3.8C239.7,245,243.5,246.3,246.9,248.7z"/>
	<path class="st1" d="M185.8,542.1c1.4-6.1,3.5-8,9.5-8.1c11-0.1,22-0.2,33,0c10.5,0.2,17.8,6.9,24.7,13.6
		c10.7,10.5,20.9,21.4,31.4,32.1c6.9,7,12.2,7,19.2,0.1c12.1-12.1,24.5-24,36.3-36.5c6.4-6.7,14-9.3,22.7-9.4c17-0.1,34,0,50.9,0
		c10.4,0,13.5-3.2,13.5-13.8c0-7.8,0-15.6,0-23.5c0-6.5,1.7-8.7,8-10.9c6.6,1.7,8.1,3.5,8.1,9.9c0,9.3,0.1,18.7,0,28
		c-0.2,14.9-11.4,26.1-26.4,26.2c-17.3,0.1-34.7,0.1-52,0c-6.1,0-11,1.7-15.4,6.4c-11.5,12.1-23.4,23.7-35.2,35.4
		c-12.4,12.3-27.8,12.3-40.2,0c-12.4-12.3-24.8-24.7-37.1-37.2c-3.2-3.2-6.7-4.7-11.1-4.7c-10.2,0-20.3,0.1-30.5,0
		C189.2,550.1,187.2,548.3,185.8,542.1z"/>
	<path class="st2" d="M222.9,314.8c3.3-3.3,6.9-6,11.1-8.1c11.7,4.3,19.8-3,28.3-8.9c0.2-3.8,2.2-5.4,6-6c5.8-1,11.6-2,17.5-2.6
		c3.2,5.6,8.3,6.2,14.4,6.6c24.1,1.6,45.6,10.2,63.7,26.6c25,22.5,36.7,50.8,35.2,84.1c-1.1,24.2-10,45.6-26.2,63.9
		c-18.8,21.3-42.5,33.2-70.5,35.5c-28.2,2.3-53.8-5.3-75.7-23.8c-22.4-19-35.1-43.5-37.8-72.6c-2.7-29.6,6-55.9,26.1-78.2
		c0.3-0.4,0.7-0.7,1.1-1.1C220.6,326.1,224.7,321.7,222.9,314.8z"/>
	<path class="st1" d="M222.9,314.8c3,5.9,2.6,7.6-2.8,13.1c-20,20.3-30.2,44.7-30.1,73.2c0.1,50.7,37.1,94.2,87.1,102.6
		c58,9.7,113.4-32,120-90.3c6.3-56.1-30.9-105.7-86.5-115.2c-4.9-0.8-9.9-1.2-14.9-1.2c-5.5,0-8.8-2.4-9.9-7.8
		c1.4-6.5,3.6-8.3,10.3-8.2c55,0.7,103.8,40.1,115,94.4c9.4,45.6-3.9,84.3-37.8,115.5c-18.4,17-40.7,26.6-65.9,29.2
		c-40.3,4.1-74.5-8.5-101.9-38.3c-17.6-19.2-27.5-42.1-30.6-68c-3.7-31.4,4.2-59.6,23.1-84.9c3.5-4.7,7.4-9,11.6-13.1
		C214.7,311,217.3,310.7,222.9,314.8z"/>
	<path class="st3" d="M262.3,297.9c-0.5,1-0.7,2.5-1.5,3.1c-6.1,4.2-12.8,7.4-20,9.2c-2.8,0.7-4.9-1.4-6.8-3.4
		c-2-6.7-1-9.3,5.3-12.5c3.3-1.6,6.6-3.2,10-4.5C257.8,286.3,261.6,288.7,262.3,297.9z"/>
	<path class="st1" d="M335.2,356.5c0.2,2.7-1.1,4.8-2.6,6.9c-21,28.7-42,57.5-63.1,86.2c-3.6,5-8.5,5.8-13,2.6
		c-4.4-3.2-5-8.1-1.3-13.1c21.2-29,42.4-58,63.6-87.1c2.6-3.5,5.8-4.9,10-3.5C332.5,349.9,335,352.4,335.2,356.5z"/>
	<path class="st1" d="M359,434.8c0,16.9-10.9,28.6-26.6,28.5c-15.3-0.1-26.1-11.5-26.2-27.9c-0.1-16.7,10.9-28.6,26.7-28.5
		C348.3,406.9,359,418.4,359,434.8z"/>
	<path class="st1" d="M229,367.1c0-16.9,10.9-28.6,26.7-28.5c15.3,0.1,26.1,11.6,26.1,28c0,16.8-11.1,28.5-26.8,28.5
		C239.6,395,229,383.6,229,367.1z"/>
	<path class="st4" d="M340,435.3c0,6.2-2.7,10.4-6.8,10.7c-4.3,0.3-7.6-4-8-10.3c-0.4-6.3,2.8-11.4,7.1-11.5
		C336.7,424.1,340,428.9,340,435.3z"/>
	<path class="st5" d="M248,366.8c0-6.3,2.9-10.7,7.1-10.8c4,0,7,4,7.6,10.1c0.5,6-2.5,11.4-6.7,11.8
		C251.6,378.3,248,373.3,248,366.8z"/>
</g>
</svg>
