<?xml version="1.0" encoding="utf-8"?>
<!-- Generator: Adobe Illustrator 19.0.0, SVG Export Plug-In . SVG Version: 6.00 Build 0)  -->
<svg version="1.1" id="Calque_1" xmlns="http://www.w3.org/2000/svg" xmlns:xlink="http://www.w3.org/1999/xlink" x="0px" y="0px"
	 viewBox="0 0 612 792" style="enable-background:new 0 0 612 792;" xml:space="preserve">
<style type="text/css">
	.st0{fill:#48B649;}
	.st1{fill:#FEDC00;}
	.st2{fill:#314967;}
	.st3{fill:#BBCC30;}
	.st4{fill:#FCDB01;}
	.st5{fill:#FAD902;}
	.st6{fill:#B8C931;}
	.st7{fill:#B9CA31;}
</style>
<g>
	<path class="st0" d="M291.7,262c1.3-1.5,2.5-3.1,3.8-4.6c6.8,2.8,11.1-0.7,15.4-5.4c6-6.5,12.5-12.5,18.6-18.8
		c2.8-2.9,5.2-3.1,8.7-0.9c22.9,14.1,46.1,14.7,69,0c3.5-2.3,6.3-2.3,9.2,0.9c3.2,3.4,6.7,6.5,9.8,9.9c4.3,4.9,8.8,9,16.1,6.8
		c1.6,1.7,3.2,3.3,4.8,5c-0.4,4.2-0.8,8.2,2,12.2c1.7,2.4-1.1,5-2.5,7.1c-6.3,10-9.2,20.9-9.4,32.6c-0.2,12.4,3.5,23.6,9.8,34
		c3.4,5.6,3.4,6-1.2,10.6c-9.5,9.6-19.1,19-28.5,28.6c-2.9,2.9-6,4.8-10.1,4.3c-5.9-0.7-10,1.6-12.1,7.2c-3.3,2.2-7.1,2.5-10.9,2.2
		c-4.3-5.3-9.2-5.8-15.4-3.2c-5,2.1-6.4,0.6-5.8-4.6c3.8-32.4-19.5-64.7-55-68.8c-32.8-3.8-64.3,19.7-68.8,53.3
		c-0.1,0.7-0.2,1.3-0.3,2c-1.3,8.5-0.3,10.5,7.2,14.3c2.4,3.5,2.4,7.8,4.2,11.5c0,0.3,0,0.7-0.3,0.9c-7.4,7.6-4.5,9.7-0.1,15.8
		c14.1,19.3,33.1,28,57,26c6-0.5,7.2,0.6,5.2,6.1c-4.3,11.9-6.6,24.1-5.8,36.7c0.3,5-1,9.2-5,12.3c-0.4,0.3-0.7,0.7-1.1,1.1
		c-4.6,4.3-9.6,8.4-6.4,15.9c-1.5,1.4-3,2.8-4.5,4.2c-7-2.2-11.4,1.6-15.8,6.4c-4.7,5.1-5,4.8-10.9,1.4c-22.4-13-44.8-13.4-67.1,0.2
		c-5.4,3.3-6.2,3.3-10.7-1.1c-9.7-9.6-19.3-19.3-29-29c-4.4-4.4-4.4-4.8-1.1-10.3c13.8-23.1,13.5-46.1-0.6-68.8
		c-2.5-3.9-1.2-6.3,1.6-9.1c13.2-13.1,26.4-26.3,39.6-39.5c8.6-8.6,17-17.4,25.8-25.7c4.9-4.7,9-9.3,6.9-16.7
		c1.8-1.9,3.7-3.8,5.5-5.8c6.7,2.9,11-0.7,15.4-5.2c11.3-11.7,22.8-23.2,34.5-34.5C288.4,274.6,293.3,269.9,291.7,262z"/>
	<path class="st1" d="M384.1,393.1c3.6-0.6,7.1-1.2,10.7-1.8c3.2,5.6,8.3,6.4,14.3,6.7c11.2,0.6,22,3.4,31.8,9.1
		c5.6,3.2,11.2,6.4,17.9,3.3c2.6,2.3,5.2,4.7,7.9,7c-2.5,6.7,1.3,11.4,4.9,16.5c22.6,31.5,18.5,77-8.6,104.8
		c-17.3,17.8-38.1,26.3-62.7,25.8c-19-0.4-35.8-7.1-50.4-19.1c-29.7-24.4-38.6-65.1-22.3-100c9.2-19.7,24.4-33.5,44.6-41.5
		C377.7,401.5,382.3,399.1,384.1,393.1z"/>
	<path class="st2" d="M384.1,393.1c0.4,5.4-2.1,8.4-7.4,10.3c-36.2,12.6-58.2,46.1-55.6,84.3c2.4,36.1,29.7,66.4,66.5,74
		c45.2,9.3,90.6-23.4,96.5-69.1c3.1-23.4-2.6-44.2-17.1-62.6c-3.4-4.3-3.8-8.3-0.4-12.6c6.4-3.2,8.7-2.6,13.2,3
		c46.2,58.2,12.5,145.1-61,157.5c-46,7.7-92-19.2-107.9-63.4c-1.5-4.3-2.5-5.5-6-1.5c-3.3,3.7-7.4,3-11.2,0.2
		c-3.9-6.1-4.1-8,1.6-12.8c7.5-6.2,11.1-13.4,9.7-23.3c-0.8-5.9,0.7-11.9,2.1-17.7c1.4-5.6,3.3-11.1,5-16.7c-1.4-1-2.9-0.5-4.3-0.3
		c-27.3,2.6-47.7-8.4-62.2-31.2c-3.3-5.1-1.9-8.8,4.3-12.6c4.2-2.1,7.5-1.1,10.5,3.8c4.4,7.3,10.3,13.1,17.7,17.2
		c14.1,8,28.6,8,43.1,1.3c5.9-2.7,9.3-8.5,14.2-12.4c7-5.6,9.9-13.2,11.2-21.6c3-19.4-5.4-37.5-22.4-47.4
		c-26.1-15.2-62.5-1.8-68.9,31.8c-0.6,3.1-0.8,6.3-1.3,9.4c-0.8,4.8-3.4,6.9-8,6.8c-6.4-0.8-9.4-4.2-8.9-10.8
		c2-31.2,24.4-56.1,55.5-60.5c30.4-4.3,61,14.9,69.5,45.5c2.3,8.2,3.9,16.5,2,25c-0.3,1.2,0,2.6,0,4
		C371.2,389.6,378.9,382,384.1,393.1z"/>
	<path class="st2" d="M228,325.1c3.3,6,3,8.4-1.8,13.2c-23.3,23.3-46.6,46.7-70,70c-2.5,2.5-2.9,4.1-0.9,7.4
		c14.2,22.6,14.8,45.7,1,68.7c-2.8,4.7-2.6,7.2,1.5,11c10,9.3,19.5,19.1,29.1,28.9c2.2,2.3,3.8,2.7,6.7,0.8
		c23.7-15.2,47.5-14.9,71.3-0.1c2.8,1.7,4.5,2,6.6-0.7c1.4-1.8,3.2-3.3,4.9-5c5.1-5.1,6.8-5.3,13.1-2c3.4,6.1,3.2,8.3-1.7,13.2
		c-13.4,13.4-26.8,26.9-40.3,40.3c-10.9,10.8-25,10.9-35.9,0.1c-34.1-34-68.1-68.1-102.2-102.2c-10.9-10.9-11-25-0.2-35.9
		c35.2-35.3,70.5-70.5,105.7-105.7C219.8,322.2,222.1,321.8,228,325.1z"/>
	<path class="st2" d="M458.8,410.3c-3.9,3.7-7.8,4.1-12.6,1.1c-12.8-8.1-26.9-12.2-42-12.3c-5.4,0-8.3-2.6-9.4-7.7
		c1.4-6.6,3.6-8.7,10.2-8.2c5.5,0.4,9.2-1.5,13-5.5c9.3-9.8,19-19.2,28.5-28.7c1.6-1.6,2.7-2.7,1-5.3c-15.4-23.8-15.7-48-0.6-72.1
		c1.6-2.6,2-4.2-0.4-6.7c-3.1-3.2-1.2-6.8,0.7-10.1c5.9-3.1,8.2-2.8,12.8,1.7c10.7,10.7,21.4,21.4,32.1,32.1
		c11.8,11.8,11.8,25.5,0.1,37.3c-19.2,19.2-38.3,38.4-57.6,57.5c-2.7,2.7-3.8,4.1,1,5.5c6.6,1.8,12.6,5,18.5,8.6
		C460.2,401.2,461.1,403.6,458.8,410.3z"/>
	<path class="st2" d="M442.3,249.8c-6.3,3.3-8.1,3-13.1-2c-4.8-4.8-9.8-9.6-14.4-14.5c-2-2.1-3.5-2.3-5.9-0.6
		c-11.4,8.1-24.1,11.7-38,11.3c-12.3-0.4-23.5-4.1-33.6-11c-2.8-1.9-4.3-1.7-6.6,0.7c-7.4,7.7-15,15.2-22.6,22.7
		c-4.6,4.6-7.2,4.7-12.6,0.9c-3.4-5.2-3.3-7.6,1-11.8c19.7-19.8,39.5-39.7,59.3-59.3c10-9.9,24.3-9.7,34.4,0.3
		c16.9,16.8,33.7,33.7,50.5,50.5C445.1,241.5,445.4,244,442.3,249.8z"/>
	<path class="st2" d="M291.7,262c2.5,5.3,1.6,9.5-2.8,13.8c-14.5,14-28.6,28.4-42.8,42.7c-4.6,4.6-7.2,4.7-12.6,0.9
		c-3.4-5.2-3.3-7.6,0.9-11.8c14.8-14.8,29.6-29.6,44.4-44.4C283,258.9,285.4,258.8,291.7,262z"/>
	<path class="st3" d="M246.1,387.1c5.2-1.3,6.9-4.7,7.2-9.9c1.2-23.3,19.4-43.2,41.1-45.2c25.9-2.5,46.8,11.7,53,36
		c3.2,12.3,2.1,24.7-5.2,35c-22.9,32.3-61.5,31.4-82.1,0.8c-2.6-3.8-5.2-6.4-10.1-5.4C246.5,395.4,247,391,246.1,387.1z"/>
	<path class="st2" d="M395,496c0-9.6,0-9.6-8.7-13.1c-15.1-6.1-21.7-17.1-18.2-31.2c2.8-11.3,11.2-16.9,21.9-19.5
		c2.6-0.7,4.4-1.1,5.1-4.2c0.8-3.4,3.6-5.1,7.2-5c3.5,0.1,6.3,1.9,6.8,5.4c0.4,3,2.1,3.7,4.5,4.2c5.4,1.1,10.4,3.3,15.1,6.3
		c4.7,3,6.1,8.1,3.5,12.5c-2.6,4.4-7.5,5.7-12.6,3.1c-10.6-5.5-10.6-5.5-10.6,6.4c0,8.8,0,8.8,8.5,12.2c16,6.3,22.9,18.3,18.4,32.7
		c-3.2,10.4-11.1,15.9-21.3,18.2c-3.6,0.8-5.3,1.9-5.2,6c0.2,5.1-3.2,8.1-7.6,8c-4.4-0.1-7.5-3.1-7.4-8.3c0.1-4-1.3-5.3-5.2-6
		c-7.4-1.4-14.2-4.6-20.4-9c-5-3.6-6-8.4-2.8-12.9c3.1-4.5,8.1-5.3,13.1-1.9c3.9,2.7,7.9,4.9,12.3,6.5c2.6,1,3.7,0.6,3.5-2.4
		C394.8,501.4,395,498.7,395,496z"/>
	<path class="st3" d="M150.1,451.3c-0.1,8.5-2.4,16.4-6.5,23.8c-1.4,2.6-2.5,3.5-5,0.9c-6.1-6.4-12.5-12.5-18.6-18.8
		c-4.1-4.2-4.2-8.2-0.2-12.3c6.3-6.4,12.8-12.7,19-19.1c2.3-2.3,3.3-1.7,4.7,0.8C147.7,434.3,150.1,442.5,150.1,451.3z"/>
	<path class="st3" d="M229.9,530c8.3,0.3,16.2,2.6,23.6,6.7c2.5,1.4,3,2.5,0.7,4.7c-6.5,6.2-12.7,12.7-19.1,19
		c-3.9,3.8-8.1,3.8-11.9,0.1c-6.6-6.4-12.9-13-19.5-19.3c-2.3-2.2-1.2-3.1,0.9-4.3C212.4,532.2,220.8,530,229.9,530z"/>
	<path class="st3" d="M451.9,307.8c0-9.5,2.4-17.5,6.6-25c1.3-2.3,2.2-3.4,4.6-0.9c6.1,6.4,12.5,12.4,18.6,18.8
		c4.4,4.6,4.3,8.5-0.1,13c-6,6.2-12.3,12.2-18.3,18.4c-2.5,2.6-3.6,1.8-5-0.8C454.2,323.7,451.8,315.7,451.9,307.8z"/>
	<path class="st3" d="M371,228c-6.9-0.1-15-2.3-22.5-6.6c-2.4-1.4-3.1-2.4-0.8-4.7c6.5-6.2,12.7-12.7,19.1-19
		c3.9-3.7,7.7-4,11.5-0.4c6.9,6.5,13.5,13.4,20.2,20c2.3,2.3,0.4,3-1.2,3.9C389.8,225.7,381.6,228.1,371,228z"/>
	<path class="st2" d="M290.5,362.6c1.2,2.3,3.5,3.6,5,5.5c2.2,2.7,4.3,3.2,7.6,1.4c5.2-2.9,11-4.1,16.7-0.9
		c8.2,4.5,10.8,14,6.1,22.9c-1.4,2.7-2.5,4.7,0.3,7.3c1.7,1.5,1.5,4-0.2,5.9c-1.9,2-4.5,2.2-6.2,0.3c-2.6-2.8-4.5-2-7.1-0.2
		c-3.3,2.2-7.2,3.3-11.1,4.2c-3.6,0.8-6.4-0.8-7.2-4.4c-0.8-3.5,1.2-5.6,4.6-6.5c0.2,0,0.3-0.1,0.5-0.1c2.9-1,7.9-0.8,8.2-3.5
		c0.4-3.4-4.2-5.4-6.5-8.2c-1.7-2.1-3.3-0.3-4.9,0.4c-5.4,2.6-11,4.3-16.7,1.3c-8.5-4.4-11.1-14.1-6.3-23.1c1-1.9,1.9-3.4,1-5.9
		c-1.2-3.3,1.7-6.5,4.8-5.5c3.2,1.1,5.3-0.3,7.8-1.4c2.3-1,4.6-1.9,7-2.5c3.3-0.8,5.6,0.9,6.6,3.9c1,3-0.6,5.2-3.2,6.5
		C295.2,360.8,292.6,360.9,290.5,362.6z"/>
	<path class="st4" d="M409,490c4.9,1.5,8.7,3.5,9,8.9c0.2,4.4-2.4,7-6.3,8.6c-1.9,0.8-2.7,0.4-2.7-1.8
		C409.1,500.6,409,495.5,409,490z"/>
	<path class="st5" d="M395,457.8c0,0.8,0.1,1.7,0,2.5c-0.3,1.8,1.1,4.6-0.9,5.3c-1.9,0.6-4-1.3-5.5-2.9c-2.2-2.2-2.6-4.9-1.8-7.8
		c0.8-3,3-4.7,5.7-5.8c2-0.8,2.7,0.3,2.6,2.2C394.9,453.5,395,455.7,395,457.8z"/>
	<path class="st6" d="M307.3,381c3.2-2,5.3-2.6,7.5-0.9c1.8,1.5,2.5,3.4,2.2,5.6c-0.3,1.9-1.1,2.8-2.9,1.1
		C312,384.9,309.9,383.2,307.3,381z"/>
	<path class="st7" d="M290.8,376.5c-6.4,1.2-9.2-0.4-8.9-4.7c0.1-1,0.1-2.2,1.2-2.4c0.6-0.1,1.4,0.5,2,1c1.3,1.2,2.6,2.5,3.8,3.8
		C289.5,374.7,290,375.4,290.8,376.5z"/>
</g>
</svg>
