<?xml version="1.0" encoding="utf-8"?>
<!-- Generator: Adobe Illustrator 19.0.0, SVG Export Plug-In . SVG Version: 6.00 Build 0)  -->
<svg version="1.1" id="Calque_1" xmlns="http://www.w3.org/2000/svg" xmlns:xlink="http://www.w3.org/1999/xlink" x="0px" y="0px"
	 viewBox="0 0 612 792" style="enable-background:new 0 0 612 792;" xml:space="preserve">
<style type="text/css">
	.st0{fill:#BBCC30;}
	.st1{fill:#314967;}
	.st2{fill:#48B649;}
</style>
<g>
	<path class="st0" d="M389,439.4c0,2.5,0,4.9,0,7.4c-6.1,3.7-6.8,9.4-6.7,15.9c0.3,16.5,0.1,33,0.1,49.5c0,10.4-3,13.3-13.5,13.3
		c-50.7,0-101.3,0-152,0c-10.4,0-13.4-3-13.4-13.4c0-48.8,0-97.7,0-146.5c0-1.8,0-3.7,0-5.5c0-3.5-0.3-6.8-4.1-8.4
		c-3.7-1.6-6.5,0.3-9,2.6c-7.7,7.3-15.1,15-22.7,22.5c-2.2,2.2-4.5,4.5-6.7,6.7c-7.5,7.4-11.5,7.5-18.9,0.2
		c-9.5-9.4-18.9-18.8-28.3-28.3c-7-7.1-7-11.7-0.1-18.7c8.6-8.6,17.1-17.3,25.8-25.8c5.1-4.9,10.2-9.6,8.1-17.7
		c2.3-2.4,4.6-4.8,7-7.3c7.8,2.3,12.6-2.1,17.4-7.3c6.8-7.3,14.1-14.1,21.1-21.3c4.6-4.7,9.9-6.9,16.5-6.8c10.1,0.3,20.3,0.2,30.5,0
		c4.6-0.1,6.9,1.6,8.2,6.1c8.8,30,42.1,42.9,69,27c7.2-4.2,8-6.2,6.1-14.2c0.1-1.1,0.5-2.1,1.4-2.8c8.1,0.8,11.8-3.8,13.3-11
		c0.8-3.8,3.1-5,6.8-5c11.5,0.1,23,0.1,34.5,0c5.9,0,9.8,3.6,13.8,7.2c21.9,19.8,41.3,42.1,62.5,62.5c5.9,5.7,11.6,11.5,17.3,17.3
		c5.5,5.6,5.8,10.5,0.4,16c-10.1,10.4-20.3,20.7-30.7,30.7c-6.2,6-10.6,5.8-16.8-0.3c-9.5-9.4-18.9-18.8-28.3-28.3
		c-1.3-1.3-2.5-2.7-4-3.8c-5-3.7-10.7-1.2-11.2,5c-0.4,4.8-0.1,9.7-0.1,14.5c0,4.3,0.3,8.7-0.1,13c-0.5,6.5,0.4,12.2,6.8,15.6
		c0,1.9,0,3.8,0,5.7c-10,6.8-6.2,17-6.3,26.2C382.7,436.2,387.3,436.7,389,439.4z"/>
	<path class="st1" d="M389,400.3c-6.3-1.6-8-3.6-8-10c0-10.7,0.1-21.3,0-32c0-4.1,1.3-7.2,5.2-8.8c3.7-1.5,6.7,0,9.4,2.7
		c10.5,10.5,20.9,21,31.4,31.4c5.4,5.4,9.1,5.4,14.5,0.1c10.4-10.3,20.8-20.7,31.1-31.1c5-5,5-8.9,0.1-13.7
		c-26.1-26.1-52.4-52.2-78.4-78.4c-6-6-12.3-9.3-21.2-8.7c-9.6,0.7-19.3,0.3-29,0.1c-2.8,0-4.3,0.6-4.6,3.6
		c-0.1,1.5-0.8,2.9-1.3,4.3c-2.6,7.5-5.5,9.2-13.1,7.3c-4.8-1.6-4.9-5.6-4.2-9.4c0.7-3.5-0.4-4.4-3.7-4.4c-16.1,0.1-32.2,0-48.3,0.1
		c-4.5,0-4.9,0.9-2.8,5c8,15.5,28.1,20.9,42.9,11.6c1.8-1.2,3.5-2.6,5.5-3.3c3.7-1.3,7.2-1.6,9.6,2.3c3.7,6.3,2.9,9.7-3,14
		c-27.5,19.6-65.4,5.9-74.2-26.8c-0.9-3.5-2.4-4.3-5.8-4.2c-10.7,0.2-21.3,0.3-32,0c-6-0.2-10.7,2-14.7,6
		c-8.8,8.8-17.7,17.7-26.5,26.5c-4.7,4.7-7.5,4.9-13.2,1.5c-2.9-5.7-2.7-8.2,1.6-12.5c8.7-8.8,17.4-17.5,26.1-26.2
		c7.9-7.9,17.2-11.5,28.7-11.4c55.8,0.3,111.6,0.2,167.4,0.1c7.6,0,14.1,2,19.7,7c5.5,4.8,11,9.7,16.2,14.8
		c23.4,23.4,46.8,47,70.1,70.5c10.3,10.5,10.3,24.7-0.1,35.1c-10.8,10.9-21.6,21.7-32.5,32.5c-10.4,10.3-24.7,10.3-35.2,0
		c-6.3-6.2-12.4-12.5-19.7-19.9c0,5.6,0,9.9,0,14.3C397,396.7,395.2,398.8,389,400.3z"/>
	<path class="st1" d="M147.7,293.2c3.4,6.6,3.1,8.3-2.1,13.6c-10.7,10.7-21.5,21.4-32.2,32.2c-4.9,4.9-5,8.9-0.1,13.7
		c10.4,10.5,20.9,21,31.5,31.5c5.1,5.1,8.8,5,14.1-0.2c10.2-10.1,20.3-20.3,30.4-30.4c2.9-2.9,5.8-5.6,10.5-3.8
		c4.8,1.9,5.3,5.7,5.3,10.2c-0.1,51,0,102,0,153c0,8.8,2.3,11.1,11.3,11.1c51.2,0,102.3,0,153.5,0c8.9,0,11.2-2.3,11.2-11.3
		c0-18.7,0-37.3,0-56c0-6.4,1.8-8.5,8-10c6,1.4,8,3.6,8,9.5c0,20,0.1,40,0,60c-0.1,13.3-10.6,23.7-23.9,23.7
		c-53.3,0.1-106.6,0.1-159.9,0c-13.8,0-24.1-10.6-24.1-24.5c0-44.1,0-88.3,0-132.4c0-1.8,0-3.6,0-6.3c-6.5,6.4-12.3,12.1-18.1,17.9
		c-12.2,12.2-25.7,12.3-38,0c-10.2-10.2-20.5-20.5-30.7-30.8c-11.1-11.1-11.1-25.1-0.1-36.2c10.8-10.9,21.7-21.7,32.5-32.5
		C139.5,290.3,141.4,290,147.7,293.2z"/>
	<path class="st1" d="M389,439.4c-6.3-1.6-8-3.7-8-10c0-4,0-8,0-12c0-7.2,1.2-9,8-11.3c6.7,2.2,8,3.9,8,11c0,4.1,0,8.2,0,12.4
		C397,435.7,395.2,437.9,389,439.4z"/>
	<path class="st2" d="M324.1,269c-4.8-3.3-8.7-1.8-13.1,1.3c-17,11.9-40.8,4.4-47.8-14.7c-0.8-2.1-1.5-3.7,2-3.6
		c18.9,0.1,37.9,0.1,56.8,0.1c0.5,0,0.9,0.2,1.8,0.5c-2.1,5.1-3.4,10.2,1.3,14.6C324.8,267.8,324.5,268.4,324.1,269z"/>
</g>
</svg>
