<?xml version="1.0" encoding="utf-8"?>
<!-- Generator: Adobe Illustrator 19.0.0, SVG Export Plug-In . SVG Version: 6.00 Build 0)  -->
<svg version="1.1" id="Calque_1" xmlns="http://www.w3.org/2000/svg" xmlns:xlink="http://www.w3.org/1999/xlink" x="0px" y="0px"
	 viewBox="0 0 612 792" style="enable-background:new 0 0 612 792;" xml:space="preserve">
<style type="text/css">
	.st0{fill:#010101;}
	.st1{fill:#D2C9BF;}
	.st2{fill:#D3C9BF;}
	.st3{fill:#D3C9BE;}
	.st4{fill:#CEC5BB;}
	.st5{fill:#382E24;}
	.st6{fill:#CFC5BB;}
	.st7{fill:#CDC4BA;}
	.st8{fill:#ED7E5A;}
	.st9{fill:#D3B770;}
	.st10{fill:#D3B870;}
	.st11{fill:#342B21;}
	.st12{fill:#FDE07E;}
	.st13{fill:#FDFDFD;}
	.st14{fill:#020303;}
</style>
<g>
	<path class="st0" d="M478,450c-0.2,7.4-1.8,14.4-5,21c-1,2.3-1.8,4.7-3.5,6.6c-2.3,2.5-4.8,4.8-7.6,6.6
		c-12.8,7.9-25.9,8.4-39.4,1.9c-2.8-1.4-4.3-1.4-4.2,2.3c0.1,2.2-0.5,4.3-1.1,6.4c-0.9,3-2,5.8-3.5,8.5c-6,10.5-15,16.7-26.8,18.9
		c-13.1,2.5-24.2-1.6-33.7-10.7c-2.4-2.3-4.1-6.6-6.9-6.8c-3.1-0.2-4.2,4.5-6.5,6.8c-11.2,11.6-24.7,15.4-40.1,11.3
		c-11.9-3.2-19.6-11.5-24.5-22.5c-0.5-1.2-1-2.4-1.3-3.6c-1.9-8.1-1.9-8.1-9.3-4.7c-17,7.7-38.3,1.8-47.6-13.1
		c-0.4-0.7-0.8-1.5-1.7-2.6c-0.1,5.1,2,9.2,3,13.6c0.2,46.7,0,93.4,0.1,140.1c0,2.7-0.2,5.3,0.3,7.9c1.3,4.7,4.1,3.2,6.9,1.6
		c12-6.9,24-13.8,36-20.6c23.5-13.3,46.9-26.7,70.1-40.4c6.3-3.7,11.5-2.4,17.2,0.9c20.1,11.7,40.4,23.2,60.6,34.9
		c14.3,8.3,28.5,16.5,42.8,24.7c0.9,0.5,1.8,1,2.7,1.3c3.8,1.5,5.3,0.7,5.6-3.4c0.3-4.7,0.1-9.3,0-14c0-39.8,0-79.6,0-119.3
		c0-2-0.1-4,0.2-6c1.5-4.2,3.7-7.9,8.1-9.8c0.1,31.3,0.2,62.6,0.2,94c0,18,0,36,0,54c0,13.6-8.2,18.4-19.9,11.7
		c-35.2-20.2-70.4-40.3-105.4-60.7c-3.4-2-5.8-1.8-9,0.1c-34.5,20-69.1,39.8-103.7,59.6c-1,0.6-2,1.2-3,1.7
		c-9.8,5-17.3,1.1-18.5-9.7c-0.2-2.1-0.2-4.3-0.3-6.5c0.6-1.6,0.3-3.3,0.3-4.9c0-55.1,0-110.2,0-165.2c0-5-1.5-9.8-1.3-14.9
		c0.1-3.6-2.7-3.7-5.3-3.6c-8.4,0.3-15.7-2.5-22.4-7.2c-5.5-3.9-10.3-8.5-11.4-15.7c-4.3-11-4.2-22,0.9-32.8
		c0.7-4.9,4.2-8.1,7.5-12.1c-4.1-1.4-7.9-2.9-11.3-5.1c-6.2-4-11.9-8.5-14.1-16.1c-3.4-8.2-4.8-16.6-2.8-25.3
		c2.4-10.4,8.6-18.1,17.6-23.7c1.7-2.4,4.6-3,7-4.7c-4.3-4.2-8.5-8.3-9.8-14.4c-4.1-10.7-4.9-21.3,0.2-31.9
		c6.7-14,20.9-22.3,36.5-21.1c2.1,0.2,4.3,0.4,7,0.6c-7.1-18.1-5.3-34.5,10.1-47c14-11.3,29.4-10.6,45-1.9
		c2.1-19.2,11.3-32.9,30.5-36.9c17.4-3.6,30.8,3.8,40.6,18.7c10.7-17.9,25.6-26.3,46.3-20.4c15.3,4.4,24.5,17.6,25.9,35.9
		c15.7-12.2,32.4-15.5,49-2.9c15.7,11.9,18,28.1,11.6,46.4c5.7-0.7,10.9-1.7,16.2-0.8c24.7,4.2,38.1,27.7,29,51.1
		c-0.4,1.1-0.8,2.2-1.2,3.3c-0.8,2.5-1.6,5-3.5,7.1c-3.8,4.3-3.7,4.3,0.5,7.4c13.4,6.3,21.9,16.3,23.6,31.4
		c0.8,7.2-0.9,13.8-3.6,20.3c-3.8,12-13.9,16.7-24.1,20.8c3.9,2.5,7.8,5.3,9.1,10.4c7.1,12.3,7.9,24.8,2,37.8
		c-4.1,11.6-17.6,20.7-31.7,21.4c-0.7,0-1.3,0-2,0c-5.1,0.1-5,0-3.9,5C478,444.1,479.6,447,478,450z"/>
	<path class="st1" d="M169.1,420.8c8.3,14.9,20.7,22.5,37.9,21.4c4.3-0.3,3,2.6,3,4.6c0,34.3,0,68.5,0,102.8c0,24.6,0,49.2,0,73.9
		c0,3,0.3,6-0.8,8.9c-0.1-17-0.2-33.9-0.2-50.9c0-39.6-0.1-79.3,0.1-118.9c0-3.9-0.2-5-5-4.8c-14.8,0.5-29.8-8.9-33.9-26
		C169.2,428.1,168.6,424.5,169.1,420.8z"/>
	<path class="st2" d="M478,450c-1.2-5-1.6-10.1-4.5-15.3c18.2,1.8,32.1-4.4,41.4-19.8C513.8,436.4,499.1,450.3,478,450z"/>
	<path class="st3" d="M152.1,354.8c8.3,12.3,12.5,15.4,28.3,20.6c-4.3,3.7-7.6,8-10.4,12.6c-3.3-4-8.2-6-11.3-10.3
		C153.9,370.7,151.2,363.4,152.1,354.8z"/>
	<path class="st3" d="M512.9,377.1c-3-3.9-6.2-7.6-11.1-11.1c11.9-3.3,20.4-9.9,26.1-20c-0.5,11-3.6,20.8-12.4,28.2
		C514.5,374.9,513.8,376.1,512.9,377.1z"/>
	<path class="st4" d="M164.2,286.7c3.3,5.5,6.9,10.7,12.5,14.7c-3.5,1.6-6.6,3-9.7,4.4C166.2,299.4,162.9,293.4,164.2,286.7z"/>
	<path class="st5" d="M468.8,488.1c-2.2,2.7-4.5,5.3-6.7,8c-2.5-4.2-2.2-8.5-0.1-12.8c2.3-2.1,4.6-4.2,6.9-6.3
		c2.9,2.9,0.8,6,0.4,9.1C469.1,486.7,468.9,487.4,468.8,488.1z"/>
	<path class="st6" d="M507.9,294.2c-2.2-0.6-4.4-1.2-7.2-2c4.1-4.1,7.3-8.1,10.2-12.5C511.1,284.8,509.9,289.6,507.9,294.2z"/>
	<path class="st7" d="M469.2,486c-0.1-3-0.2-6.1-0.4-9.1c1.4-2,2.8-3.9,4.2-5.9C473.5,476.5,472.6,481.6,469.2,486z"/>
	<path class="st8" d="M188.4,307.9c2.4-0.6,6.8,2.2,7.7-2.8c0.9-4.9-3.7-4.5-6.7-5.5c-11.8-4.2-19.4-12.4-21.2-24.8
		c-1.7-12,2.7-22.1,13-28.8c10.5-6.8,21.6-6.9,32.6-0.9c0.9,0.5,1.7,1.1,2.5,1.7c2.4,1.6,4.7,2.7,6.9-0.3c2.1-2.8,0.8-4.7-1.4-6.8
		c-18.1-17.5-12.6-45.2,10.5-52c12.2-3.6,22.6,0.1,31.5,8.9c1.7,1.7,3,4.4,6.1,2.5c2.8-1.7,1.9-4.1,1.3-6.7
		c-3.8-17.5,7.3-34.1,24.7-37.1c16.6-2.9,32.7,9.8,34.7,27.4c0.1,0.7,0.1,1.3,0.1,2c0.1,2.3,1,3.9,3.4,4.2c2.7,0.3,4.1-1.5,4.4-3.8
		c0.4-2.8,0-5.7,0.5-8.4c3.2-17,20.5-27.8,37.4-23.5c16.2,4.1,26,22.3,20.8,38.6c-0.5,1.6-1.2,3.1-1.6,4.7c-0.5,2.3,0.4,3.8,2.7,4.6
		c2.2,0.8,3.9,0.6,5.2-1.4c0.6-1,0.9-2.1,1.5-3.2c6.3-11.4,15.9-17.3,29-16.8c12.3,0.5,21.3,6.6,25.9,18c5,12.1,2.3,23.2-6.1,32.9
		c-0.9,1-1.9,1.9-2.9,2.8c-2.3,1.9-2.2,4-0.5,6.1c1.8,2.2,4,2.2,6.1,0.4c4.6-3.8,9.7-6.3,15.7-7.1c16.1-2.2,30.2,7.1,34,22.6
		c3.5,14.3-5,30-19.3,35.4c-0.8,0.3-1.6,0.6-2.4,0.8c-2.9,0.7-4.5,2.3-3.7,5.4c0.8,3.1,3.4,3.4,6,2.8c6.1-1.5,12-0.7,17.6,1.5
		c13.7,5.3,21.5,19.2,18.9,33.2c-2.7,14.2-15.2,24.6-29.8,24.7c-1.7,0-3.3-0.1-5-0.2c-2.8-0.3-5,0.2-5.5,3.5
		c-0.5,3.3,1.2,4.7,4.2,5.6c11.7,3.4,19.4,10.9,22.2,22.8c2.8,12.1-0.8,22.6-10.7,30.2c-10.2,7.8-21.5,8.1-33,2.8
		c-2.8-1.3-5.7-5.2-8.6-1.1c-2.6,3.7,1.4,5.5,3.4,7.7c12.3,12.7,11.4,33.1-2.1,44.5c-13.3,11.2-33.5,8.4-43.9-6.2
		c-0.5-0.7-1.1-1.3-1.5-2c-1.5-2.1-3.3-2.9-5.6-1.4c-2,1.3-2.1,3.1-1.2,5.2c2.6,5.9,3.6,12,2.4,18.5c-2.6,14.4-14.9,25-29.4,25.1
		c-14.4,0-27.2-10.6-29.8-24.7c-0.2-1-0.4-2-0.5-3c-0.3-2.9-1.5-4.7-4.7-4.5c-3,0.2-3.8,2-4,4.7c-0.2,2.5-0.6,5-1.3,7.3
		c-4.6,16-21.5,25.4-37.3,20.8c-15.7-4.5-25-21.5-20.7-37.6c0.1-0.3,0.3-0.6,0.4-0.9c0.8-2.6,1.8-5.4-1.5-6.9
		c-3.1-1.4-4.7,0.5-6.4,3c-7.9,11.9-21.5,17-34.3,13.2c-20.5-6.1-28.1-30.6-14.9-47.7c0.6-0.8,1.3-1.5,2-2.3
		c1.8-1.9,2.5-4.1,0.7-6.3c-1.9-2.3-4-1.6-6.2-0.2c-6.8,4.5-14.1,6.6-22.3,5.3c-14-2.2-24-12.4-25.7-26.1
		c-1.5-12.6,6.1-25.7,18.1-31.2c2.9-1.3,7.7-1.4,6.3-6.6c-1.3-5.2-5.4-3-8.7-2.7c-17.5,1.8-33.1-12-33.3-29.5
		C155.3,320.7,170,306.8,188.4,307.9z"/>
	<path class="st9" d="M412.8,502.7c0.8,16.8-12.3,31.4-29,33.4c-16.5,2-33.4-6.9-38.5-28.6c-1.8,0.2-1.1,1.7-1.4,2.7
		c-4.7,21.9-26.4,33.9-47,25.4c-11.3-4.7-18.5-13.6-20-26.4c-0.4-3.1-1.2-6.2-0.9-9.4c7,14.2,17.8,23.1,34.2,23.3
		c14.3,0.2,25.2-6.3,32.9-18.2c0.9-1.4,1.7-2.8,2.4-4.1c1.3-0.1,1.5,0.9,1.9,1.6c15.8,25.1,47.9,25.7,64.4,1.2
		C412.2,503.4,412.5,503.1,412.8,502.7z"/>
	<path class="st10" d="M274.9,497c-4.6,4-9,8.2-15.1,10.2c-15.3,5-29.6,0.7-39.3-12.1c-0.5-0.6-0.9-1.4-2.4-1.2c0,1.7,0,3.4,0,5.2
		c0,43.9,0,87.8,0,131.7c0,3.2-0.2,6.3-0.3,9.5c-1.3-1.6-0.7-3.5-0.7-5.3c0-48.5,0-97,0-145.5c0-0.5-0.1-1-0.2-1.5
		c-0.9-2.3-1-4.7-1-7c0-1.2-0.1-2.7,1.8-2.6c14.1,18,32.3,20.6,55.2,7.5C273.7,489.7,274.3,493.4,274.9,497z"/>
	<path class="st9" d="M461.9,625c-1.4-1.7-0.8-3.8-0.8-5.8c0-37.8,0-75.6,0-113.4c0-2.6,0-5.2,0-8.5c-15.9,9.8-30.8,9.7-44.9-2.3
		c0.5-4.1,1-8.2,1.6-12.4c0.9-0.4,1.7,0.4,2.5,0.9c13.1,7.5,26.3,8,39.6,0.6c0.7-0.4,1.5-0.6,2.3-0.9c0,4.3,0.1,8.5,0.1,12.8
		c0,41.5-0.1,83-0.1,124.5C462,622,461.9,623.5,461.9,625z"/>
	<path class="st11" d="M217.8,478.4c-1.3,3.1,0,6.5-0.8,9.6c-2.6-4.3-3.3-9-2.9-14.4C216.2,474.8,217.1,476.5,217.8,478.4z"/>
	<path class="st0" d="M340.3,474.1C262.4,474.1,200,412,200,334.4c-0.1-77.6,62.4-140.1,140.1-140.1c74.1,0.1,139,58.7,139.4,139.9
		C479.9,418.2,410,474.9,340.3,474.1z"/>
	<path class="st0" d="M449.2,557.2c0,9.8,0,19.6,0,29.5c0,2.8,0.1,5.7-3.8,5.6c-3.9-0.1-3.6-3.1-3.6-5.9c0-19.5,0-38.9,0-58.4
		c0-2.7-0.7-6.3,3.5-6.4c4.7-0.1,3.8,3.7,3.8,6.6C449.2,537.9,449.2,547.6,449.2,557.2z"/>
	<path class="st12" d="M461.9,625c-0.7-1.8-0.4-3.6-0.4-5.4c0-39.4,0-78.9,0-118.3c0-4.9-0.5-5.2-5-3.2c-0.6,0.3-1.2,0.6-1.8,0.9
		c-11.6,5.7-22.8,4.8-33.7-2c-1.5-0.9-2.8-2.4-4.9-1.9c-1.1,2.6-2.1,5.1-3.2,7.7c-1,2.3-1.2,4.8-1.7,7.3
		c-4.3,18.4-23.2,29.3-41.2,23.7c-11.6-3.6-18.8-11.4-22.2-23c-0.5-1.6-0.5-4.1-3-4c-2.1,0.1-2,2.4-2.3,3.9
		c-1.8,7.3-5.4,13.4-11,18.6c-13,11.9-36.7,9.2-47.2-5.1c-5.4-7.4-5.8-16.1-8.2-24.3c-0.4-1-0.7-1.9-1.1-2.9
		c-2.3-0.4-3.7,1.2-5.1,2.5c-12,11.3-34.6,11.2-46.6-3.2c-1.3-1.6-2.6-3.6-5.2-3.2c-0.8,1.4-0.5,3-0.5,4.4c0,46.3,0,92.5,0,138.8
		c0,1.3-0.2,2.7,0.3,4c0.5,3.2,2.6,3.2,4.8,2.3c2-0.8,3.9-1.9,5.7-3c34.9-20,69.8-40,104.6-60.1c4.6-2.7,8.2-2.9,12.9-0.1
		c25,14.6,50.1,28.9,75.2,43.3c11.1,6.4,22.2,12.8,33.3,19.1c5.2,2.9,7.4,1.6,7.6-4.2C462.1,633.3,461.9,629.2,461.9,625z
		 M233.2,512.8c4,0,5.8,1.7,5.9,6.8c-0.1,2.7-1.8,5.1-5.9,5.3c-4,0.2-5.6-2.5-6.1-5.8C226.7,515.7,229.6,512.9,233.2,512.8z
		 M239.8,592.7c0,4-2.1,6.5-6.6,6.4c-4.4-0.2-6.2-2.6-6.2-6.7c0-9.6,0-19.3,0-28.9c0-9,0.1-17.9,0-26.9c-0.1-4.2,1.3-7.2,5.9-7.5
		c4.1-0.3,6.9,2.5,6.9,7.4C239.9,555.2,239.9,574,239.8,592.7z"/>
	<path class="st13" d="M207.3,333.9c0.2-73.4,59.6-132.2,133.3-132c72.7,0.2,131.6,60.3,131.4,134c-0.3,71.6-60.1,130.8-132.1,130.7
		C266.3,466.6,207.1,407.3,207.3,333.9z"/>
	<path class="st14" d="M407.7,319.3c1.7-11.4,3.5-22.7,5.2-34c0.5-3.2,1.3-5.8,5.1-5.2c3.7,0.6,5.2,3.1,4.7,6.9
		c-2.2,15-4.4,30-6.7,44.9c-0.4,2.7-0.2,6.3-3.8,6.7c-3.3,0.4-6.2-1.1-7.9-4.1c-4.1-7.4-8-14.9-12.1-22.4c-0.7-1.4-1.5-2.8-2.7-5
		c-1.4,10.6-2,20.2-2.4,29.8c-0.1,3.2,0.1,6.6-4.1,7.4c-4.1,0.7-5.2-2-6.5-5.2c-3.8-9.1-9.2-17.3-15.9-24.6c-3.2-3.4-6.3-6.9-8.6-11
		c-1.7-3.1-1.7-5.8,1.5-7.7c3.2-1.9,5.2-0.4,6.9,2.5c4.6,7.9,12,13.7,17.4,22.3c1.1-10.1,2.2-19.3,4.4-28.2c0.7-2.8,0.8-6.4,4.8-6.7
		c3.9-0.3,5.2,2.6,6.6,5.6c3.6,8,7.4,16,11.2,23.9C405.5,316.6,405.8,318.3,407.7,319.3z"/>
	<path class="st14" d="M295.4,352.8c-2.8-11.8-6.2-22.1-9.9-32.4c-1.4-4.1,0.4-7,4.2-7c2.6,0,4.4,1.4,5.3,3.9
		c5,13.8,9.4,27.7,12.1,42.1c1.1,5.7-2.2,8.2-7.6,6.1c-12.9-4.9-25.1-11.4-37.4-19.3c2.4,9.3,4.6,18,5.5,26.9
		c0.4,3.6,0.7,7.1-3.9,7.6c-4.2,0.5-5.6-2.4-6-6.2c-1.3-13.7-5-26.8-11-39.2c-1.2-2.6-2-5.1,0.5-7.2c2.6-2.2,5.3-1.3,7.7,0.7
		C267.1,338.2,280.3,346.1,295.4,352.8z"/>
	<path class="st14" d="M328.1,364.1c-4.1,0.5-6.6-2.9-8-6.9c-4.9-14-8.2-28.4-11-42.9c-1-5.4,1.8-8.7,6-10.8
		c7.8-3.9,16.3-5.8,25-6.4c3.2-0.2,5.8,0.5,6.1,4.3c0.3,4-1.9,5.6-5.8,5.8c-6.2,0.3-12.1,1.8-18,3.9c-2.7,1-3.9,2.3-2.6,5.1
		c0.1,0.1,0.1,0.3,0.1,0.5c2.2,11.9,2.2,11.9,13.8,7.8c2.5-0.9,5-1.8,7.5-2.8c3.3-1.2,5.6,0.2,6.9,3.1c1.4,3.2-0.5,5-3.3,6
		c-5.6,2-11.2,4.2-17,5.8c-2.7,0.7-3.2,1.8-2.4,4.1c0.7,1.9,1.1,3.8,1.7,5.7c2.5,8.7,2.5,8.6,11,5.7c3-1,5.9-2.4,8.5-4.2
		c2.7-1.8,5.3-2.6,7.3,0.5c2.2,3.3,1,5.9-2.1,8C344.8,361,337.3,363.4,328.1,364.1z"/>
</g>
</svg>
