<?xml version="1.0" encoding="utf-8"?>
<!-- Generator: Adobe Illustrator 19.0.0, SVG Export Plug-In . SVG Version: 6.00 Build 0)  -->
<svg version="1.1" id="Calque_1" xmlns="http://www.w3.org/2000/svg" xmlns:xlink="http://www.w3.org/1999/xlink" x="0px" y="0px"
	 viewBox="0 0 612 792" style="enable-background:new 0 0 612 792;" xml:space="preserve">
<style type="text/css">
	.st0{fill:#324A5D;}
	.st1{fill:#FDFDFD;}
	.st2{fill:#FDCF5B;}
	.st3{fill:#83D9FD;}
	.st4{fill:#83DAFD;}
	.st5{fill:#E4E7EC;}
	.st6{fill:#F3FBFC;}
	.st7{fill:#FD6F58;}
	.st8{fill:#84D9FD;}
	.st9{fill:#2B3C4F;}
	.st10{fill:#2B3B4E;}
	.st11{fill:#FDFCFC;}
	.st12{fill:#FE735C;}
	.st13{fill:#FC7761;}
	.st14{fill:#FE755E;}
	.st15{fill:#F96F58;}
	.st16{fill:#F76F59;}
	.st17{fill:#F77A64;}
	.st18{fill:#FC7F6A;}
	.st19{fill:#FD725A;}
	.st20{fill:#F6735E;}
	.st21{fill:#FB7761;}
	.st22{fill:#FE7861;}
	.st23{fill:#F8755F;}
	.st24{fill:#FB745E;}
	.st25{fill:#FD8672;}
	.st26{fill:#FE765F;}
	.st27{fill:#FE816C;}
	.st28{fill:#FD7B65;}
	.st29{fill:#F97059;}
	.st30{fill:#FA745E;}
	.st31{fill:#F87E6A;}
	.st32{fill:#FE7058;}
	.st33{fill:#FE806B;}
	.st34{fill:#FC826D;}
	.st35{fill:#F48977;}
	.st36{fill:#FE7963;}
	.st37{fill:#FE8571;}
	.st38{fill:#FE7761;}
	.st39{fill:#FE8D7A;}
	.st40{fill:#F7755F;}
	.st41{fill:#FA816C;}
	.st42{fill:#FE8874;}
	.st43{fill:#FA9C8B;}
	.st44{fill:#F47E6A;}
</style>
<g>
	<path class="st0" d="M331.1,502.1c0,5.2,0.1,10.3,0,15.5c-0.1,7.1-3.2,10.7-10.2,10.8c-16.1,0.3-32.3,0.2-48.4,0.2
		c-23.8,0-47.6,0-71.4,0c-10.3,0-20.6,0.1-31-0.1c-8.8-0.2-11.8-3.5-11.8-12.4c0-70.5,0-140.9,0-211.4c0-14.2,0-28.3,0-42.5
		c0-8.7,3.5-12.2,12.1-12.2c49.8,0,99.6,0,149.4,0c6.7,0,8.9,1.7,11.5,8.1c3.4,3.9,1.9,8.6,1.8,12.9c0,2.3-0.1,4.6,0.5,6.9
		c0,8-1.5,16-0.2,24c0.3,7.7-0.7,15.4,0.1,23.1c-0.4,12.6,0.3,25.3-0.4,37.9c0.5,9.1,0.3,18.2,0.2,27.3c0,1.8-0.1,3.6-0.9,5.4
		c-3.3,4.5-5.6,5.5-9.5,3.9c-1.7-2.9-1.1-6.2-1.2-9.3c-0.1-32.6,0-65.3,0-97.9c0-2,0-4-0.1-6c0-3.9-1.8-5.9-5.8-5.9
		c-1.7,0-3.3-0.1-5-0.1c-44.3,0-88.6,0-132.9,0c-1.5,0-3,0-4.5,0.1c-4.6,0.3-5.8,1.4-6.1,6.1c-0.1,1.5-0.1,3-0.1,4.5
		c0,63.6,0,127.3,0,190.9c0,10.7,0.1,10.8,10.9,10.8c40.8,0,81.6,0,122.4,0c4.3,0,8.7,0.1,12.9,0.8
		C319.9,495.4,326,497.7,331.1,502.1z"/>
	<path class="st1" d="M331.3,302.2c0-8.2,0-16.4,0-24.6c0.3-1,0.5-1.9,0.9-2.9c1-2.6,2.9-3.7,5.5-3c2.6,0.7,3.2,2.9,2.7,5.1
		c-0.4,2.3-0.9,4.3,2.1,5.1c1.3,0.3,2.7,0.8,3.6-0.6c0.7-1.2,0-2.3-0.7-3.2c-1.9-2.3-4.1-4.3-6.2-6.5c-3.2-3.3-3.7-6.8-1.3-10.7
		c2.4-4,6.8-5.7,10.7-4.1c11.8,4.8,17.2,10.7,16.6,24c0,0.3,0,0.7,0,1c0.2,1.8-0.7,4.4,1,5.1c2.3,0.9,2.9-2.1,4-3.5
		c2.7-3.5,6.4-5.5,10.5-6.2c7.3-1.2,9.1-7,11-12.6c0.8-2.3,1.1-4.8,2.1-7.1c1.6-3.5,4.8-4.2,8.2-4.7c15,4.1,28.1,11.4,39.3,22.1
		c-0.9,1.3-2.2,1.4-3.5,1.3c-8.3-0.2-13.1,4.6-16.5,11.4c-1,2.1-1.1,4.2,0.1,6.2c1,1.7,2.5,2.8,4.5,2.4c2.3-0.5,1.9-2.3,1.6-4
		c-0.3-2.2,0.1-4.3,1.5-6.1c1.4-1.6,3.1-2.7,5.2-2c1.9,0.7,2.1,2.5,1.7,4.2c-0.5,2,0.4,3,2,4c2.5,1.5,2.4,3.6,1,6c-5,8-5,8-14.2,6.1
		c-2.7-0.5-5-0.2-6.6,2.2c-0.3,0.4-0.5,0.9-1,1.1c-4.1,1.9-6.4,4.5-6,9.6c0.3,3.2-4,3.8-6.7,5.9c4.5,2,7.3,1.3,9.8-2.3
		c2.9-4.2,7.4-5,10.7-2.5c2.1,1.6,1.6,4.2,2.7,6.3c-0.1-0.7-0.1,0.1-0.1,0c-0.7-2.8-0.1-5.9,2.8-3.4c3.7,3,6,2.2,9.1,0.1
		c0.5,0.1,1,0.2,1.4,0.5c1.5,3,3.7,5.4,6.5,7.3c1.9,1.3,3.1,3.1,2.5,5.6c-0.7,2.6-2.8,3.1-5.1,3.1c-1.7,0-3.2,0.2-4.5,1.6
		c-3.2,3.4-7.3,3-11.1,1.6c-3.9-1.5-5.8-4.7-6.2-8.9c-0.5-4.7-0.8-4.8-5.1-3.3c-5.3,1.9-10.9,2.9-15.4,6.8c-3.5,3.1-5.6,6.8-5,11.4
		c0.6,4.2,0.7,8.3,0.8,12.4c0.1,2.6,0.7,4.9,2,7.2c1.4,2.6,3.6,3.9,6.6,2.9c1.9-0.6,3.9-1,5.8-1.5c5.7-1.2,8.5,0.4,10.7,6
		c0.5,1.4,1.4,2.7,2.4,3.8c3.1,3.4,4,7.2,2.5,11.5c-0.4,1.1-0.9,2.3-0.3,3.4c3.4,6.4,2.1,13.4,2.4,20.1c0.1,2.1-0.6,4.7,1.9,5.7
		c2.4,1,4.6-0.3,6.5-1.6c1.9-1.3,3.7-3,4.3-5.4c1.1-4.5,3.5-8.2,6.8-11.4c2.9-2.8,3.6-6.5,2.8-10.2c-1.7-7.4,0.4-13.5,6-18.4
		c2.5-2.2,2.6-3.2-0.6-5.3c-7.8-5.2-10.7-13.7-12.8-22.3c-0.4-1.8,0.2-3.8,2.1-4.7c1.9-0.9,3.6-0.1,5,1.2c4,3.6,6.4,8,7,13.4
		c0.5,4.2,2.6,5.1,6,2.6c2.9-2,4.3-4.9,4.8-8.4c0.5-3.2,1-3.4,3.8-2.4c-0.7,13.4-1.9,26.8-7.3,39.3c-12.3,28.3-32.6,47.6-62.1,57.1
		c-3-0.2-3.5-2.7-4.4-4.8c-4.6-11.9-8.9-24-13.2-36c-2.1-6-5.5-9.3-12-8.9c-1,0.1-2-0.3-2.8-0.9c-0.4-0.8-8.6-9.2-9.5-10.1
		c-5-4.7-10.4-8.8-15.8-12.9c-3.1-2.3-6.1-3.8-10-3.6c-2,0.1-4-0.1-5.3-2c0-12.7,0-25.5,0-38.2c1-3.3,2.8-5.8,5.8-7.8
		c4.6-3.2,7-8.3,10.5-12.5c1.7-2,1-4.3-0.9-5.7c-2.2-1.6-4.2-3.1-5.4-5.6c-0.5-1-1.5-2-2.8-1.6c-1.1,0.3-1.1,1.5-1.4,2.4
		C336,297.5,336.2,301.8,331.3,302.2z"/>
	<path class="st2" d="M371.5,391.1c10.8-1.6,13.8,0.3,17.7,10.8c5,13.5,10.1,26.9,15.1,40.4c3.4,11,8.6,21.5,10.3,33.1
		c0.2,1.1,0.3,2.3,0.4,3.4c-0.5,2.8-2.8,3.5-5,4.3c-19,7-38.1,14-57.2,21c-3,1.1-6,3.2-9.4,0.9c-3.7-2.5-7.8-3.5-12.3-3.1
		c-6.1-0.9-11.7-2.9-16.4-7.2c-4.1-1.3-6.5-4.4-8-8.3c-1.3-3.4-2.7-6.8-3.8-10.3c-2.8-8.2-0.9-14.9,6.3-19.7
		c3.4-2.3,3.7-4.5,2.4-7.9c-8.6-22.5-16.7-45.2-25.2-67.8c-1.2-3.1-2.5-6.2-2.6-9.6c-0.1-6.4,3.3-11.8,8.6-13.1
		c7.1-1.8,13.4,0.9,16.2,7.4c4,9.5,7.2,19.3,10.9,28.9c0.8,2.1,0.6,5.8,4.6,5.4c2-1.9,4.3-3.5,7-4.4c3.3-2.9,6.5-1.5,9.6,0.4
		c1.5,0.9,2.4,1.7,4.2,0c7.4-6.9,12.4-6.8,20.6-0.4C367.4,393.9,368.1,390.7,371.5,391.1z"/>
	<path class="st3" d="M473.8,345.9c-3.2-0.3-1.6,2.2-1.7,3.3c-0.5,5.7-4.2,10.2-9.6,11.3c-3.4,0.7-5.5,0-5.4-4.1
		c0.2-5.9-2.8-10.5-6.6-14.6c-0.8-0.8-1.8-1.8-3-1.1c-0.9,0.6-0.8,1.8-0.5,2.8c1.9,7.1,4.7,13.9,9.4,19.6c2.4,3,6.2,2.8,10.5,4.3
		c-2.6,2.4-5.3,4.8-7.9,7.1c-4.1,3.7-5.5,8.2-4.5,13.5c1.2,6.5,0.2,12.3-5.4,16.6c-2.1,1.6-2.8,4-3.4,6.5c-1.4,5.9-6.2,10-11.9,10.6
		c-3.6,0.4-5.9-0.9-5.9-4.8c0-3.5,0.2-7,0.2-10.5c0-2.2,0.5-4.5-0.2-6.4c-1.7-4.7-4.3-9-0.9-14.2c1-1.6-0.8-3.7-2.2-5.2
		c-2.1-2.2-4.1-4.4-4.1-7.7c0-2.1-1.7-2.3-3.2-2.4c-3.4-0.3-6.8,0.1-9.7,1.6c-4.1,2.1-6.7,0.3-8.9-2.8c-1.9-2.6-2.7-5.7-2.9-8.9
		c-0.1-3.3-0.1-6.7-0.5-10c-1.2-10.5,3.8-18.4,13.9-21.2c3.5-1,7-1.9,10.4-3.3c4.1-1.7,6.1-0.1,5.7,4.2c-0.8,7.1,4.7,11.8,11.4,10
		c1.1-0.3,2.1-0.6,1.8-1.9c-0.9-4.3,1.8-3.3,4.1-2.8c0.8,0.2,1.6,0.6,2.4,0.7c1.3,0.2,2.8,0.3,3.5-1.2c0.7-1.6-0.6-2.5-1.6-3.3
		c-0.9-0.7-2-1.3-3-1.8c-3.2-1.6-4.7-4.1-4-7.7c1.9-2.8,4.4-3.7,7.4-2.7c-3-1.1-5.5-0.2-7.3,2.8c-1.7,0.9-2,2.5-2,4.2
		c-0.1,3.7-2,2.8-3.7,1.3c-2-1.7-3.7-3.8-5.7-5.9c-1.2,2.4,1,4.6-0.2,7.1c-0.9-2.2-1.7-4.2-2.5-6.1c-1-2.3-2.7-3.7-5.4-3.7
		c-2.5,0-3.7,1.3-4.7,3.6c-1.9,4.5-9.5,5.9-13.3,2.7c-1-0.8-1.6-1.7-1.4-3c0.3-1.5,1.4-2,2.8-2.3c6.7-1.4,7.2-2.4,4.1-8.5
		c-1.6-3.2-0.5-4.2,2.5-3.5c2.5,0.6,4.2,0.2,5.3-2.2c2.3-4.9,6.3-4.9,10.6-3.1c4.2,1.7,7.8,2.6,8.7-3.6c0.3-2,3.1-1.9,3.6-3.7
		c-1.5-2.7-5.5,0.2-6.4-2.7c-0.7-2.4,1.7-4.4,2.4-6.9c-4.8,1-6.3,3-5,6.6c0.8,2.3,2,4.5-0.9,6c-2.5,1.3-5.3,1.2-7.5-0.7
		c-3.4-2.9-4.2-6.6-2.5-10.8c3.8-9.3,12.6-14,22.4-11.9c2.6,1.1,4.4,3.1,5.7,5.6c1.2,1.6,0.9,4.8,4.3,4.4
		c12.4,14.8,19.7,31.8,21.8,51C473.4,339.3,474.6,342.6,473.8,345.9z"/>
	<path class="st0" d="M427.8,488c3-1.2,4.6-0.4,5.7,2.9c3.1,9.1,6.4,18.2,9.9,27.2c1.1,2.9,0.9,4.3-2.3,5.5
		c-30,10.9-60,21.9-89.9,33.1c-3,1.1-4.1,0.3-5-2.4c-3-8.5-6.1-16.9-9.3-25.3c-2.3-6.2-2.3-6.1,3.8-8.7c0.7-2.4,2.7-3.2,4.7-4
		c25-9.3,50.1-18.5,75.1-27.7C422.9,487.7,425.3,486.8,427.8,488z"/>
	<path class="st4" d="M402,253c-6.5,3.1-6.6,9.3-8.7,15.1c-1.7,4.7-4.1,11.2-12,11.6c-5.1,0.2-9.3,3.5-11.2,8.8
		c-0.9,2.5-2.6,2.8-4.7,2.5c-2.7-0.3-2.2-2.4-2.3-4.2c-0.1-3.3,0.2-6.7-0.2-10c-0.8-7.5-4.1-13.2-11.7-15.8
		c-3.4-1.2-6.3-4.5-10.1-0.6c-3.8,3.9-3.8,8.1,0.5,11.5c3,2.3,6.2,4.4,7.5,8.4c1.2,3.6-0.1,5-3.7,4.9c-2.2,0-4.2-0.7-6.3-1.5
		c-2.6-1-3.1-2.6-1.8-5.1c0.8-1.6,3.1-3.5,0.4-5c-2.2-1.2-3.6,1-4.9,2.4c-0.6,0.6-1.1,1.2-1.7,1.8c0-6.5,0-13.1,0-19.6
		c9.4-3.7,18.9-7.6,29.1-8.5C374.3,248.4,388.5,247.4,402,253z"/>
	<path class="st5" d="M427.8,488c-20.5,7.6-40.9,15.3-61.4,22.9c-8.5,3.2-17.1,6.2-25.7,9.3c-0.5-1-1.1-2-1.6-3.1
		c-3.2-8.2-3.2-8.2,4.2-12c23.9-8.7,47.7-17.5,71.6-26.2c8.4-2.4,8.4-2.4,11.6,5.8C427,485.8,427.4,486.9,427.8,488z"/>
	<path class="st6" d="M451.2,285.1c-0.3,2.1-1.9,2.1-3.4,1.8c-2-0.4-1-2.1-1-3.2c0-1,0-2,0.1-3C448.4,282.2,449.8,283.6,451.2,285.1
		z"/>
	<path class="st7" d="M324.2,400c-0.8,1.7-0.8,3.9-2.9,5.7c-2.5-6.6-4.9-12.9-7.3-19.2c-2.3-6.2-4.5-12.5-6.9-18.7
		c-2.6-6.8-8.5-9.6-14.7-7.2c-5.3,2.1-7.7,8.3-5.4,14.8c8.6,23.4,17.2,46.9,25.9,70.3c0.7,2,1.4,4.1,2.2,6.1
		c1.2,2.8,0.8,4.4-2.3,5.8c-8.1,3.6-10.7,10.2-7.6,18.5c2.5,6.7,4.3,13.7,9.6,19c-48.6,0-97.3,0-145.9,0.2c-4.4,0-3.8-2.5-3.8-5.1
		c0-62.5,0-125,0-187.4c0-6.2,0.4-12.4-0.1-18.5c-0.5-5.4,1.7-6.2,6.5-6.1c44.3,0.2,88.6,0.1,132.9,0.1c5,0,10,0.3,15-0.1
		c4.1-0.3,5,1.3,4.9,5.1c-0.1,31.8-0.1,63.6-0.1,95.5C324.2,385.6,324.2,392.8,324.2,400z"/>
	<path class="st3" d="M371.5,391.1c-1.7,2.9-5,4.9-4.7,9.4c-9.8-11.9-18.8-8.5-23.1,2.1c-2.7-5.3-7-7.4-12.6-7.1
		c0-10.8,0.1-21.7,0.1-32.5c12.2-2.9,19.3,5.9,27.3,12.3c3.8,3,6.9,6.6,12.1,7.2c2.3,0.3,3.3,2,2.3,4.4
		C372.6,388.3,372.1,389.7,371.5,391.1z"/>
	<path class="st8" d="M331.3,302.2c2.4-2.5,3.3-5.7,3.6-9.1c0.2-1.9-0.2-4.4,2.4-4.8c2.5-0.3,4.8,0.9,5.7,3.2c1,2.7,2.6,4,5.1,5.3
		c3.6,1.9,3.1,6.7,0.9,10.1c-4.8,7.1-11.2,12.4-17.6,17.9C331.3,317.3,331.3,309.8,331.3,302.2z"/>
	<path class="st9" d="M244.9,505c4.7,0,9.3,0,14,0c2.6,0,5.3,0.3,5.8,3.4c0.5,2.9-1.1,5.2-3.8,6.3c-1.5,0.6-3.2,1.1-4.8,1.1
		c-7.7,0.1-15.3,0.1-23,0.1c-2.5,0-4.5-1-6.3-2.7c-1.6-1.5-2.2-3.4-1.6-5.5c0.6-2.4,2.7-2.8,4.7-2.8C234.9,505,239.9,505,244.9,505
		C244.9,505,244.9,505,244.9,505z"/>
	<path class="st1" d="M440,322c2.2-7.6,6.2-7.9,13.1-0.7C448.6,321.3,444.2,320,440,322L440,322z"/>
	<path class="st10" d="M356.2,544c-5.7,0.1-10-4-10.1-9.4c-0.1-5.3,4.3-9.6,9.9-9.6c5.8,0,9.9,3.9,10,9.4
		C366,539.9,362,543.9,356.2,544z"/>
	<path class="st11" d="M248.3,412.7c-11.8,0-22.4-0.1-33.1,0.1c-3.6,0.1-4,2.4-3.2,5.6c1,4.3-1.4,7.5-5.4,7.9
		c-3.7,0.4-7.1-2.2-7.4-5.8c-0.3-3.2,1.7-5.2,4.1-7c-1.7-1.3-3.5-0.5-5-0.9c-1-0.2-2.1-0.5-2-1.8c0.1-1.2,1-1.6,2.1-1.7
		c1.3,0,2.7-0.1,4-0.1c18,0,36,0,54,0c4,0,8.5,0.5,9.2-5.1c0.4-3.5-5.5-8.9-9.9-8.9c-9.2-0.1-18.3-0.1-27.5-0.1c-10,0-20-0.1-30,0.1
		c-2.7,0-4.3-0.6-4.9-3.5c-2.9-12.8-5.9-25.6-9-38.4c-1-4.1,1.6-4,4.2-4.1c17.8-0.7,35.6-1.4,53.4-2.2c9.5-0.4,19-0.9,28.5-1.1
		c3.1-0.1,4.9-1,5.7-4.1c0.6-2.4,1.7-4.7,2.6-7c0.4-0.9,0.8-2.2,1.5-2.5c6.9-2.5,12.9-7.4,20.6-7.7c2.2-0.1,4,0.5,4.5,3
		c0.4,2.2-0.1,4.2-2.5,4.7c-4.9,1-9.5,3.8-15,1.9c-2.5-0.9-5.1,0.3-6.2,3.5c-6.4,17.5-12.8,35-19.4,52.4c-1.1,2.8,0.3,4,2.1,5.3
		c3.2,2.4,5.6,5.2,5,9.6c-0.7,5-4,7.1-8.5,7.6c-3.4,0.4-5.5,1.4-4.2,5.3c1.2,3.6-0.3,6.4-3.5,7.8c-3,1.3-6,0.8-7.9-2.1
		c-1.9-3-1.7-6,0.9-8.6C246.3,414.6,246.8,414.1,248.3,412.7z"/>
	<path class="st12" d="M252.8,365c-1.1-0.8-3.9,1.7-4-2.2c0-4.8,2.2-6.5,6.7-5.8c1.5,0.2,3.9-1.5,4.2,1.5
		C259.9,362.5,257.4,364.9,252.8,365z"/>
	<path class="st13" d="M227.5,365.9c-3.5,0.7-5.2-0.1-5.3-3.8c-0.1-4.8,3.4-3.4,5.8-3.8c2.6-0.4,4.3-0.1,4.3,3.4
		C232.1,365.5,230.8,366.9,227.5,365.9z"/>
	<path class="st14" d="M214,359.1c3.2-0.4,5.1-0.4,5.2,3.5c0.1,3.8-1.7,4-4.7,4.4c-4.6,0.6-4.8-2.3-4.9-5.3
		C209.3,357.5,212.8,359.9,214,359.1z"/>
	<path class="st15" d="M242,357.9c0.9,0.5,3.9-2.1,4,1.6c0.1,4-1.5,6.5-6.1,6.1c-2.2-0.2-4.1,0.4-4.2-3.1
		C235.4,357.9,238,357.5,242,357.9z"/>
	<path class="st16" d="M202.7,366.9c-5,1.3-5.4-2-5.5-4.7c-0.2-4,3.3-1.9,5.1-2.4c4.3-1.2,3.8,2.4,4.2,4.7
		C207.2,368.9,203.3,365.9,202.7,366.9z"/>
	<path class="st17" d="M253.5,368.4c0.6,0.3,3.2-1.5,2.7,1.7c-0.4,2.9-1.4,5.5-5.2,4.9c-1.5-0.2-3.9,1.2-3.9-2.1
		C247.2,369,249.3,367.8,253.5,368.4z"/>
	<path class="st18" d="M227.9,369.5c1.9,0,3.9-0.7,3.9,2.3c0,2.9-1,4.4-4.1,4.1c-2.1-0.2-4.7,0.9-4.9-3
		C222.7,368.5,226,370.1,227.9,369.5z"/>
	<path class="st19" d="M240.1,369c1.3,0.3,4-1.2,3.9,2.4c-0.1,3.5-2.3,3.9-5,3.8c-1.9-0.1-3.9,0.6-4.1-2.7
		C234.7,368.3,237.4,369,240.1,369z"/>
	<path class="st20" d="M267.9,356.2c0.6,0.2,2.9-0.8,2.1,1.5c-0.9,2.6-0.4,6.7-5.1,6.7c-1.4,0-3.6,0.6-2.8-1.9
		C263,359.7,262.7,355.7,267.9,356.2z"/>
	<path class="st21" d="M216,375.9c-3.7,0.7-4.8-0.7-4.9-3.3c-0.1-3.8,2.8-2.3,4.6-2.6c2.6-0.5,3.9,0.5,4,3.4
		C219.8,377.2,216.8,375.5,216,375.9z"/>
	<path class="st22" d="M203.9,370.7c3.5-0.6,3.9,1.3,4,3.5c0.2,3.5-2.6,2.2-4.2,2.5c-2.9,0.5-3.8-1.3-4-3.8
		C199.6,368.5,203.5,372.4,203.9,370.7z"/>
	<path class="st23" d="M212.4,355.9c-0.4,0-1.4,0.1-2.4,0c-1.2-0.1-1.5-1.1-1.7-2.1c-0.2-1.3,0.5-1.8,1.6-1.9
		c2.1-0.2,4.3-0.3,6.4-0.4c1.3-0.1,2.2,0.6,2.3,2c0.1,1.5-0.8,2-2.1,2.1C215.3,355.6,214.2,355.7,212.4,355.9z"/>
	<path class="st24" d="M228,351c1.2,0,2.4-0.2,3.5,0c2,0.4,1.5,1.9,0.8,3c-0.6,1-8.9,1.5-9.6,0.5c-1-1.3-1.3-2.9,0.8-3.4
		c1.4-0.3,3-0.2,4.5-0.3C228,351,228,351,228,351z"/>
	<path class="st25" d="M248.7,383.6c-1.9,0.1-3.1-0.4-2.9-2.7c0.3-3.3,2.7-2.7,4.7-2.8c1.1,0,2.8-0.7,2.7,1.7
		C253.2,382.3,251.7,383.7,248.7,383.6z"/>
	<path class="st26" d="M199,356.4c-1.5,0-3.7,0.7-3.9-2.1c-0.2-3.1,2.4-1.8,3.9-2.2c0.6-0.2,1.3-0.1,2-0.1c1.7,0.1,4-0.7,4,2.2
		c0,2.7-2.3,1.6-3.7,1.9C200.6,356.4,199.9,356.3,199,356.4z"/>
	<path class="st27" d="M241,354.3c-0.8,0-1.7,0-2.5,0c-1.2,0-2.4-0.2-2.4-1.8c0-1.6,1.2-1.8,2.4-1.9c2-0.2,4-0.3,6-0.4
		c1.2,0,2.4,0,2.5,1.6c0.1,1.8-1,2.3-2.5,2.2c-1.2,0-2.3,0-3.5,0C241,354.1,241,354.2,241,354.3z"/>
	<path class="st28" d="M239,378.8c1.4,0.2,3.4-0.7,3.3,2.2c-0.2,3.3-2.4,3-4.6,2.9c-1.6,0-3.5,0.4-3.4-2.3
		C234.4,378.1,237,379,239,378.8z"/>
	<path class="st21" d="M228.2,384.1c-2.8,0-4.9,0.5-4.8-2.4c0-3.2,2.4-2.6,4.2-2.6c1.5,0,3.4-0.6,3.5,2.1
		C231.2,384.3,229.2,384.1,228.2,384.1z"/>
	<path class="st29" d="M256.8,349.7c1,0,2,0,3,0c1,0,2.1,0.1,2,1.5c0,0.9-0.6,1.6-1.5,1.7c-2.6,0.3-5.2,0.5-7.9,0.7
		c-0.9,0.1-1.6-0.5-1.6-1.5c0-1,0.2-2,1.5-2.1C253.9,349.9,255.4,349.8,256.8,349.7z"/>
	<path class="st30" d="M205.2,380c2.2-0.1,4-0.2,4,2.5c0,2.6-1.8,2.2-3.4,2.4c-2.1,0.2-3.6-0.5-3.7-2.8
		C201.8,379.2,204.1,380.3,205.2,380z"/>
	<path class="st12" d="M265.8,369.6c-0.9,2.3-1.1,5.1-4.6,4.7c-1.3-0.1-2.3-0.3-2-2c0.6-2.4,1-5,4.5-4.4
		C264.9,368.1,266.2,367.9,265.8,369.6z"/>
	<path class="st31" d="M237.5,391.8c-2,0.1-3.7,0.1-3.5-2.4c0.2-2.8,2.4-2.2,4.1-2.3c1.5-0.1,3.1-0.2,3,2.1
		C240.9,391.8,239.1,391.9,237.5,391.8z"/>
	<path class="st32" d="M216.4,379.6c1.8-0.1,3.5-0.4,3.6,2.2c0.1,2.9-1.9,2.4-3.6,2.6c-1.9,0.1-3.7,0-3.7-2.6
		C212.7,378.6,215.3,380.2,216.4,379.6z"/>
	<path class="st33" d="M250.7,386.7c-0.2,3.6-1,5.6-4.4,5.2c-1.7-0.2-2.3-0.9-2-2.5C245.2,385.4,248.2,387.6,250.7,386.7z"/>
	<path class="st34" d="M268.2,353c-0.9-0.3-2.8,0.8-2.6-1.5c0.2-2.5,2.3-2.5,4.1-2.4c1.1,0.1,3.1-0.8,3.1,1.2
		C272.7,353.1,270.4,353,268.2,353z"/>
	<path class="st35" d="M255.7,391.9c-1.6,0-2.2-0.6-1.9-2.1c0.4-1.9,1.1-3.4,3.4-3.3c1.4,0,2.2,0.6,1.7,2.1
		C258.4,390.2,258,392.1,255.7,391.9z"/>
	<path class="st36" d="M228.4,391.8c-2.6-0.1-4.5,0.2-4.4-2.3c0.1-2.3,2-1.7,3.4-1.8c1.4-0.1,3.2-0.4,3.2,2
		C230.5,391.7,229,391.9,228.4,391.8z"/>
	<path class="st37" d="M194.4,365.4c0.4,1.4,0,2.4-1.3,2.3c-3.1-0.4-2.1-3.3-2.9-5.1c-0.5-1.1-0.1-2.7,1.5-2.3
		C194.4,361,193.7,363.7,194.4,365.4z"/>
	<path class="st38" d="M256.2,382.6c0.4-2.6,0.7-5.1,4.3-4.7c1.8,0.2,1.7,1,1.4,2.3C261.1,383.6,258.9,383.6,256.2,382.6z"/>
	<path class="st39" d="M206.9,388.1c1.7,0,3.2-0.1,3.3,1.8c0.1,2.3-1.7,2-3.1,2c-1.4,0-2.8-0.1-2.9-1.8
		C203.9,387.5,206,388.5,206.9,388.1z"/>
	<path class="st40" d="M217.2,391.9c-1.5,0-3.2,0.2-3.3-2c-0.1-2.5,1.8-1.8,3.2-1.9c1.2,0,2.8-0.5,3,1.6
		C220.3,391.8,218.8,391.9,217.2,391.9z"/>
	<path class="st41" d="M196.7,374.5c0.3,1.5,0.2,2.3-1.2,2.5c-2.8,0.2-2.4-2.1-2.9-3.6c-0.4-1.3-0.3-2.3,1.4-2.3
		C196.9,370.9,195.7,373.7,196.7,374.5z"/>
	<path class="st42" d="M197.4,385.2c-2.1-0.1-2.4-1.3-2.5-2.8c-0.1-1.2,0.3-2,1.6-2c2,0.1,2.3,1.7,2.5,3.2
		C199.2,385,198,385,197.4,385.2z"/>
	<path class="st43" d="M198.8,391.9c-1.4,0-2.1-0.7-2.2-2c-0.1-1.3,0.8-1.6,1.9-1.6c1.4,0,2,0.9,2.2,2.1
		C200.8,391.8,199.8,391.8,198.8,391.9z"/>
	<path class="st44" d="M189.6,352.9c1.7,0,2,1.4,2.2,2.6c0.2,1-0.5,1.4-1.4,1.4c-1.8,0-2-1.4-2.2-2.6
		C188,353.4,188.6,352.9,189.6,352.9z"/>
</g>
</svg>
