<?xml version="1.0" encoding="utf-8"?>
<!-- Generator: Adobe Illustrator 19.0.0, SVG Export Plug-In . SVG Version: 6.00 Build 0)  -->
<svg version="1.1" id="Calque_1" xmlns="http://www.w3.org/2000/svg" xmlns:xlink="http://www.w3.org/1999/xlink" x="0px" y="0px"
	 viewBox="0 0 612 792" style="enable-background:new 0 0 612 792;" xml:space="preserve">
<style type="text/css">
	.st0{fill:#E67281;}
	.st1{fill:#D92B42;}
	.st2{fill:#D92C43;}
</style>
<g>
	<path class="st0" d="M553,414c-0.3,0.1-0.6,0.2-0.9,0.2c-0.4-3.4-0.6-6.9,0.9-10.2C553,407.3,553,410.7,553,414z"/>
	<path class="st0" d="M316.2,650.1c-0.1,0.3-0.2,0.6-0.2,0.9c-3.3,0-6.7,0-10,0C309.3,649.5,312.7,649.8,316.2,650.1z"/>
	<path class="st1" d="M553,376c-1-1.5-0.4-3.2-0.5-4.9c-0.8-10-0.7-20.2-2.7-30.1c-4.7-22.3-12.6-43.4-22.8-63.8
		c-14.9-29.8-35.6-55.1-60.3-77c-27.6-24.5-59.6-41.9-94.9-52.7c-10.7-3.3-21.4-6.2-32.6-7c-7.7-0.5-15.4-0.7-23.1-1.6
		c-13,0-26,0-39,0c-1.2,0.9-2.6,0.4-3.9,0.5c-10,0.7-20.2,0.7-30.1,2.7c-22.5,4.7-43.7,12.7-64.2,23c-29.6,14.9-54.8,35.5-76.6,60.1
		c-24.5,27.6-41.9,59.6-52.7,95c-3.3,10.8-6.2,21.8-7,33.1c-0.5,7.2-0.6,14.4-1.5,21.6c0,13.3,0,26.7,0,40c0.9,1.2,0.4,2.6,0.5,3.9
		c0.7,10,0.7,20.2,2.7,30.1c4.7,22.5,12.7,43.7,23,64.2c14.9,29.7,35.5,54.8,60,76.6c27.6,24.6,59.6,41.8,95,52.7
		c10.8,3.3,21.8,6.2,33.1,7c7.2,0.5,14.4,0.6,21.6,1.5c9.7,0,19.3,0,29,0c3.2-1.1,6.4-0.2,9.6-0.5c11.8-0.2,23.6-0.5,35.2-2.7
		c24.4-4.8,47.2-14,69.1-25.5c28-14.7,51.5-34.8,72.4-58.2c16.2-18.1,28.9-38.6,39.1-60.6c13.3-28.5,21.7-58.2,21-89.9
		c0.3-3.2-0.6-6.4,0.5-9.5C553,394.7,553,385.3,553,376z M182.6,439.7c-18.6,0-37.3-0.1-55.9,0.1c-4,0-4.8-1.2-5.1-5
		c-0.6-6.6,1.6-11.1,6.7-15.3c9.3-7.8,18.3-16,26.6-24.9c5-5.4,9.6-11,11.4-18.5c2.4-9.8-3-17.2-13-18.2c-9-0.9-16.5,2.7-23.9,7.9
		c-2-4.9-3.6-9.6-5.7-14.2c-1-2.2,0-3,1.6-3.9c14.3-8.4,29.5-11.5,45.4-5.8c16.6,5.8,23.6,23.7,16.7,41.2
		c-5.1,12.8-15,21.8-24.9,30.7c-2.3,2.1-4.7,4-7.1,6c0.1,0.4,0.2,0.7,0.3,1.1c8.7,0,17.5,0,26.2,0c9.8,0,9.8-0.1,9.9,9.9
		C191.8,439.7,191.8,439.7,182.6,439.7z M272.5,415.9c-2.8,0-3.8,0.8-3.7,3.6c0.2,5.5-0.1,11,0.1,16.5c0.1,2.9-1,3.8-3.7,3.7
		c-4.8-0.2-9.7-0.2-14.5,0c-3.2,0.2-3.9-1.1-3.8-4.1c0.2-5-0.3-10,0.1-15c0.3-4.2-1.3-4.9-5.1-4.8c-11.7,0.2-23.3,0-35,0.1
		c-2.9,0-3.9-0.6-4.1-3.8c-0.4-7.2,1.1-13.4,5.2-19.6c10.4-15.8,20.2-32.1,30.1-48.3c1.6-2.6,3.3-3.7,6.3-3.6c7,0.2,14,0.2,21,0
		c2.6-0.1,3.5,0.8,3.4,3.4c-0.1,8.7-0.1,17.3-0.1,26c0,8.2,0.2,16.3-0.1,24.5c-0.1,3.4,1.1,4.2,4.3,4.2c7.6-0.1,7.6,0.1,7.7,7.7
		c0,0.3,0,0.7,0,1C280.7,415.7,280.7,415.9,272.5,415.9z M375,439.7c-5.2-0.1-10.3-0.2-15.5,0c-3.3,0.1-4.3-0.9-4.3-4.2
		c0.2-11.5,0-23,0.1-34.5c0-3.1-0.7-4.4-4.1-4.3c-10,0.2-20,0.2-30,0c-3.2-0.1-4.3,0.9-4.3,4.2c0.2,11.3-0.1,22.7,0.2,34
		c0.1,4.1-1.3,5.1-5.1,4.9c-4.5-0.3-9-0.3-13.5,0c-3.6,0.3-4.9-0.7-4.8-4.6c0.2-15.7,0.1-31.3,0.1-47c0-15.7,0.1-31.3-0.1-47
		c0-3.1,0.6-4.5,4.1-4.3c4.8,0.3,9.7,0.3,14.5,0c3.6-0.2,4.9,0.7,4.8,4.6c-0.3,10.3,0,20.6-0.1,31c0,3,0.9,4.1,3.9,4
		c10.2-0.2,20.3-0.2,30.5,0c3.1,0,3.9-1.1,3.9-4c-0.1-10.3,0.1-20.7-0.1-31c-0.1-3.4,0.7-4.8,4.4-4.5c5.1,0.3,10.3,0.2,15.5,0
		c2.7-0.1,3.4,0.9,3.4,3.4c0,32,0,63.9,0,95.9C378.6,439,377.5,439.8,375,439.7z M472.5,439.7c-5.7-0.1-11.3-0.2-17,0
		c-2.7,0.1-4-1-4.6-3.4c-2-7.4-4.1-14.7-6-22.1c-3.1-11.9-7.4-15.2-19.3-15.1c-3.1,0-4,0.9-4,4c0.2,10.3-0.2,20.7,0.2,31
		c0.2,4.8-1.5,6.1-6,5.7c-4.1-0.3-8.3-0.3-12.5,0c-3.8,0.3-4.8-1.1-4.7-4.8c0.2-23.8,0.1-47.6,0.1-71.5c0-7.2,0-14.3,0-21.5
		c0-1.8-0.2-3.7,2.5-4c15.3-1.6,30.5-3,45.8-0.2c14.3,2.7,22.7,10.4,24.7,22.5c2.1,12.9-3.3,23-16.2,30.2c-0.3,0.2-0.5,0.4-1.2,1
		c7.1,3.6,10.5,9.8,12.6,16.8c2.8,9.4,5.2,18.9,8,28.3C475.8,439.4,474.9,439.8,472.5,439.7z"/>
	<path class="st1" d="M430,353.5c3.4,0.1,6.4,0.1,9.3,1c5.9,1.8,9.2,5.6,9.7,11.3c0.6,6.7-1.8,11.6-7.4,14.5
		c-5.6,2.9-11.6,2.3-17.6,2.3c-2.2,0-2.3-1.4-2.3-3c0-7.5,0.1-15,0-22.5c0-2.4,1-3.2,3.2-3.3C426.7,353.8,428.6,353.6,430,353.5z"/>
	<path class="st2" d="M246.9,360c0,11.8-0.1,23.6,0.1,35.3c0,3-1.2,3.6-3.8,3.6c-5.8-0.1-11.6,0-18.7,0
		C232.4,385.6,240.6,373.3,246.9,360z"/>
</g>
</svg>
