<?xml version="1.0" encoding="utf-8"?>
<!-- Generator: Adobe Illustrator 19.0.0, SVG Export Plug-In . SVG Version: 6.00 Build 0)  -->
<svg version="1.1" id="Calque_1" xmlns="http://www.w3.org/2000/svg" xmlns:xlink="http://www.w3.org/1999/xlink" x="0px" y="0px"
	 viewBox="0 0 612 792" style="enable-background:new 0 0 612 792;" xml:space="preserve">
<style type="text/css">
	.st0{fill:#119CD9;}
	.st1{fill:#119CD8;}
</style>
<g>
	<path class="st0" d="M248.7,243.1c-14.6-0.2-26.7-12.5-26.5-27c0.2-15.1,12.6-27.2,27.7-26.9c14.8,0.2,26.5,12.5,26.3,27.7
		C275.9,231.9,264,243.2,248.7,243.1z"/>
	<path class="st1" d="M586.7,473.4c-23.7-63.4-47.5-126.7-71.3-190c-3.7-9.7-9.4-12.2-19.2-8.5c-12.2,4.5-24.3,9.1-36.4,13.6
		c-1.7,0.6-3.3,2.2-4.8-1c-2.6-5.5-4.8-6.4-10.3-4c-3.8,1.6-6.8,1.1-10.4-0.6c-39.8-18.2-79.6-36.3-119.4-54.4
		c-9.3-4.2-18.7-8.5-28.6-13c0.2,7.1-1.2,13.1-4.6,18.3c-2.6,4-1.1,5,2.5,6.6c39.4,17.8,78.8,35.7,118.1,53.6c1.7,0.8,3.7,1.2,5,3.1
		c-3.8,1.5-8.3,3.4-6.8,7.5c2.2,6.3-1.7,6.8-5.5,8.1c-1.6,0.5-3.1,1.1-4.7,1.7c-62.9,23.6-125.8,47.2-188.6,70.9
		c-2.9,1.1-4.7,1.7-5.9-2.1c-1-3-3.7-4-6.9-3.7c-1.8,0.2-3.3,1.7-5.7,0.9c4.2-9.3,8.4-18.5,12.5-27.7c14.6-32.1,29.1-64.2,43.8-96.3
		c1.6-3.5,1.3-4.7-2.4-5.7c-4.8-1.3-9.3-4-12.7-7.6c-2.8-3-3.7-2.2-5.2,1.1c-21.6,47.7-43.3,95.4-64.9,143.1c-1.7,3.8-3.7,6.7-8,7.9
		c-3.8,1-6,4-4.3,8.1c1.4,3.5,0.1,4.4-2.9,5.5c-13.3,4.8-26.5,9.9-39.7,14.8c-10.6,4-13.2,9.4-9.2,20.2
		c23.4,62.6,46.9,125.2,70.4,187.7c4.1,10.8,9.7,13.2,20.7,9.1c66.5-25,132.9-49.9,199.4-74.9c65.9-24.7,131.7-49.4,197.6-74.1
		C587.1,488.4,590,482.4,586.7,473.4z M559.8,477.3C433.8,524.4,307.9,571.7,182,619c-0.9,0.4-1.9,0.7-2.6,1
		c-2.8,0.5-2.7-1.8-3.2-3.1c-8.1-21.3-16-42.6-24-64c-13.4-35.6-26.7-71.3-40.2-106.9c-1.6-4.2-0.7-5.5,3.3-7
		c111.2-41.6,222.4-83.2,333.5-124.9c15.3-5.7,30.6-11.3,45.7-17.2c3.3-1.3,4.4-0.6,5.6,2.7c21.1,56.5,42.3,113.1,63.6,169.5
		C565.6,474.1,564.5,475.6,559.8,477.3z"/>
	<path class="st1" d="M230.7,530.6c12-4.5,22.9-8.5,33.8-12.7c2.7-1.1,3.9-0.9,5.1,2.1c4,10.6,4.2,10.6-6.6,14.6
		c-15.7,5.9-31.5,11.6-47.1,17.7c-3.2,1.2-4,0.4-5.3-2.4c-2.5-5.5-2.3-10.4-0.1-16.1c6-15.3,12.7-30.4,16.9-46.3
		c1.1-4.3,1.3-8.6,0.5-12.9c-1.4-7.5-7.3-12.3-13.5-11.2c-8,1.4-12.9,7.6-11.1,15.5c1.1,4.8-0.2,6.5-4.6,7.6
		c-3.2,0.8-6.3,2.2-9.3,3.6c-2.6,1.2-3.5,0.1-4.2-2.2c-1.5-5.4-1.8-10.8-0.3-16.2c4.9-18.2,29.7-29.9,46.9-22
		c11.7,5.4,18.1,20.5,14.6,34.4c-3.5,13.9-9.5,26.9-13.8,40.6C232.1,526.2,231.6,527.8,230.7,530.6z"/>
	<path class="st1" d="M450.5,375.9c-12.7,4.8-24.8,9.3-36.9,13.9c-9.4,3.6-9.1,3.5-13.2-5.7c-1.9-4.3-0.5-5.6,3.3-7
		c18.6-6.8,37.1-13.7,55.6-20.7c2.9-1.1,4.1-0.8,5.4,2.3c3.1,6.9,3.3,13.1,0.6,20.5c-8.7,23.9-6.8,47.7,3,71
		c2.7,6.3,2.6,6.6-3.9,8.8c-4,1.3-8.5,5.4-11.9,3.3c-2.8-1.7-3.3-7.3-4.8-11.1c-8.9-23-6.9-46,0.7-68.9
		C449.1,380.4,449.7,378.5,450.5,375.9z"/>
	<path class="st1" d="M367,414.8c0-6.7,0.2-13.3-0.1-20c-0.1-2.9,0.9-4.2,3.5-5c3.8-1.2,7.6-2.6,11.2-4.1c2.7-1.2,3.4-0.5,3.4,2.3
		c0.6,22.8,1.4,45.6,2.2,68.4c0.4,12.1,0.7,24.3,1.4,36.4c0.2,2.9-0.8,4.2-3.4,5.1c-3.6,1.2-7.3,2.4-10.7,4
		c-3.2,1.4-3.8,0.3-3.9-2.8c-0.4-15-1.2-29.9-1.5-44.9c-0.3-13.1-0.1-26.3-0.1-39.4C368.3,414.8,367.7,414.8,367,414.8z"/>
	<path class="st1" d="M344.2,481.6c5-0.9,5.7-3.5,3.4-7.6c-0.5-0.9-0.9-1.8-1.1-2.8c-1-5.4-3.9-6.3-8.3-3.6
		c-3.4,2.1-4.7,0.6-5.9-2.7c-4.7-13-9.6-25.9-14.5-38.8c-1.8-4.6-2.5-11.3-5.9-13.3c-3.6-2.1-9,2.7-13.7,4.1
		c-0.3,0.1-0.6,0.2-0.9,0.3c-2.9,0.6-3.8,2.5-4.4,5.3c-2.4,12.6-5.1,25.1-7.6,37.6c-2.2,10.8-4.3,21.5-6.5,32.1c0,3.1,2.1,5.4,2.9,8
		c1,3.3,2.6,3.8,5.8,2.5c9.7-3.9,19.7-7.2,29.3-11.2c3.5-1.4,4.6-0.6,5.6,2.7c1.4,4.4,3.2,8.7,4.9,13.1c0.4,1.1,0.5,3,2.5,2.2
		c5.4-2.1,11.8-3.2,15.7-6.9c2.1-2-2.3-7.7-3.5-11.8c-0.3-1-0.6-1.9-1.1-2.8C338.9,484.4,340.2,482.3,344.2,481.6z M313.3,476.9
		c-6.2,2.3-12.3,4.6-19.1,7.1c3-13.6,5.9-26.6,9-40.8c4.1,10.9,7.9,20.8,11.6,30.6C315.4,475.4,314.8,476.3,313.3,476.9z"/>
</g>
</svg>
