<?xml version="1.0" encoding="utf-8"?>
<!-- Generator: Adobe Illustrator 19.0.0, SVG Export Plug-In . SVG Version: 6.00 Build 0)  -->
<svg version="1.1" id="Calque_1" xmlns="http://www.w3.org/2000/svg" xmlns:xlink="http://www.w3.org/1999/xlink" x="0px" y="0px"
	 viewBox="0 0 612 792" style="enable-background:new 0 0 612 792;" xml:space="preserve">
<style type="text/css">
	.st0{fill:#FDDEF3;}
	.st1{fill:#F4A3E9;}
	.st2{fill:#D581D7;}
</style>
<g>
	<path class="st0" d="M275,148c11.3,0,22.7,0,34,0c9.4,1.2,18.8,0.8,28.2,2.5c22.3,3.9,43.5,11,64.1,20.4
		c33.3,15.2,61.4,37.4,85.5,64.5c21.1,23.8,36.6,51.1,47.4,81c6.1,16.9,10.6,34.3,12.6,52.3c0.7,6.1,0.3,12.2,1.2,18.3
		c0,11.3,0,22.7,0,34c-1.2,9.2-0.7,18.5-2.4,27.7c-4.2,22.9-11.3,44.7-21.1,65.9c-14.8,31.8-36,58.7-61.7,82.1
		c-20.4,18.5-43.4,33-68.8,43.8c-21.1,9-42.9,15.4-65.7,18.3c-6.4,0.8-12.9,0.3-19.3,1.3c-11.3,0-22.7,0-34,0
		c-6.4-1-12.8-0.6-19.3-1.4c-24.5-3-47.8-10.1-70.3-20.2c-22-9.9-42.4-22.5-60.5-38.4c-19.4-17.1-36.8-36.1-50.6-58.3
		c-18.2-29.4-30.7-60.8-36.3-95c-1.4-8.5-1-17.2-2.1-25.7c0-11.3,0-22.7,0-34c1.2-8.9,0.7-17.8,2.3-26.7
		c7.8-44.8,26-84.8,54.9-119.8c28.2-34.1,62.9-59.7,104.2-76c24.3-9.6,49.3-16.2,75.7-16C273.8,148.5,274.5,148.5,275,148z"/>
	<path class="st1" d="M412,386c0,45.8,0,91.7,0,137.5c0,10.2-6.6,16.5-17.2,16.5c-68.7,0-137.3,0-206,0c-10.3,0-16.8-6.5-16.8-16.9
		c0-46-0.1-92-0.1-138c1.6-1.5,3.5-0.7,5.2-0.6c10.8,0.8,20.1-2.2,27.2-10.8c2.7-3.2,4.9-2.5,7.3,0.2c5.2,5.8,11,10.6,19.2,11.7
		c10.2,1.4,19.1-0.9,26.4-8.5c7.4-7.7,5.9-7.6,13.5,0c12.4,12.5,30.1,12.3,42.7-0.2c6.4-6.4,6.4-6.4,12.5,0.1
		c11,11.7,30,12.4,42,1.5c2.6-2.3,4.3-6.3,7.8-6.8c4-0.6,5.1,4.3,7.9,6.2c7,4.9,14.4,8.4,23.2,7.1C408.6,384.8,410.5,384.4,412,386z
		"/>
	<path class="st2" d="M412,386c-8.6,1.8-16.7,0.7-24.5-3.6c-3.6-2-6.7-4.5-9-7.7c-1.8-2.5-2.5-2.7-4.6-0.2
		c-5.7,7-12.7,12.2-22.1,13.1c-11.1,1.1-20.7-2.3-27.9-10.9c-2.7-3.2-4.1-4.9-7.6-0.6c-11.4,13.9-27.6,14.6-40.3,7.5
		c-4.2-2.3-7.1-6-10.2-9.4c-1.6-1.8-2.1-1.7-3.6,0c-5.8,6.8-12.4,12.2-22,13.2c-9.7,1.1-18-1.2-25.1-7.8c-2.4-2.2-4.4-6.1-7-6.7
		c-2.5-0.5-4,4.2-6.5,6.1c-8.9,6.8-18.8,8.7-29.6,6.1c-23-7.1-28.8-33.2-16.8-50c13.6-19.1,26.2-38.9,39.1-58.5
		c3.8-5.9,8.9-8.6,15.8-8.6c55.1,0,110.2,0,165.3,0c6.3,0,11,2.9,14.5,8.2c12.3,18.8,23.9,38,37.4,55.9c14.9,19.7,8,46.7-14.4,53.3
		C412.4,385.4,412.2,385.8,412,386z"/>
</g>
</svg>
