<?xml version="1.0" encoding="utf-8"?>
<!-- Generator: Adobe Illustrator 19.0.0, SVG Export Plug-In . SVG Version: 6.00 Build 0)  -->
<svg version="1.1" id="Calque_1" xmlns="http://www.w3.org/2000/svg" xmlns:xlink="http://www.w3.org/1999/xlink" x="0px" y="0px"
	 viewBox="0 0 612 792" style="enable-background:new 0 0 612 792;" xml:space="preserve">
<g>
	<path d="M142.4,217c22.5,2.2,43.9,4.2,65.3,6.3c26,2.5,52.1,5,78,7.8c3.3,0.4,7.2,2,9.5,4.3c73.7,73.4,147.2,146.9,220.7,220.5
		c5.4,5.4,5.4,7.4,0,12.8c-42.8,42.8-85.5,85.5-128.3,128.3c-5.4,5.4-7.4,5.4-12.8,0.1c-73.5-73.5-147.1-147-220.5-220.7
		c-2.2-2.2-3.9-5.9-4.2-9c-3.8-36.6-7.2-73.3-10.8-109.9c-1.1-10.9-2.2-21.9-3.2-32.8C135.7,219.5,138.4,216.9,142.4,217z
		 M193.8,295.6c0,11.8,9.5,21.4,21.2,21.3c11.5-0.1,20.9-9.6,21-21.1c0-11.8-9.5-21.3-21.3-21.2C203,274.7,193.9,283.9,193.8,295.6z
		"/>
</g>
</svg>
