<?xml version="1.0" encoding="utf-8"?>
<!-- Generator: Adobe Illustrator 19.0.0, SVG Export Plug-In . SVG Version: 6.00 Build 0)  -->
<svg version="1.1" id="Calque_1" xmlns="http://www.w3.org/2000/svg" xmlns:xlink="http://www.w3.org/1999/xlink" x="0px" y="0px"
	 viewBox="0 0 612 792" style="enable-background:new 0 0 612 792;" xml:space="preserve">
<style type="text/css">
	.st0{fill:#0832FE;}
</style>
<g>
	<path class="st0" d="M487.7,449.6C420.9,382.8,354,316,287.2,249.2c-1.5-1.5-3-3.1-4.5-4.7c-4.1-4.6-9-7.1-15.4-6.7
		c-11.3,0.9-22.6,1.6-33.9,2.5c-37,2.9-74.1,5.8-111.1,8.7c-9.9,0.8-15.7,6.6-16.4,16.5c-1,14.5-2.2,28.9-3.3,43.3
		c-2.6,33.2-5.2,66.4-8,101.6c-1.1,5.2,2,10.4,7,15.4c68.5,68.4,137,136.9,205.4,205.4c9.8,9.8,17.7,9.8,27.5,0.1
		c51-51,102.1-102,153.1-153.1C498.2,467.7,498.2,460.1,487.7,449.6z M286.3,559.6c-2.3,2.5-3.6,2-5.7-0.1
		c-21.6-21.8-43.3-43.4-65-65.1c-28.3-28.3-56.5-56.6-84.9-84.8c-2.6-2.6-3.5-4.9-3.2-8.7c2.4-27.9,4.4-55.8,6.5-83.7
		c0.8-11,2-21.9,2.5-32.9c0.2-3.8,1.7-4.5,5-4.8c23.9-1.7,47.8-3.7,71.7-5.5c15.8-1.2,31.5-2.4,45.9-3.5c4.5-0.7,5.8,1.8,7.5,3.5
		c43.2,43.1,86.3,86.2,129.4,129.4c6.5,6.5,12.8,13.1,19.5,19.4c3.1,2.9,3.3,4.4,0.1,7.5c-38.3,38-76.4,76.3-114.6,114.4
		C296.2,549.6,291.1,554.4,286.3,559.6z M363.2,530.1c-17.7,17.7-35.4,35.3-53,53.1c-2,2.1-3.4,3.1-5.7,0.3
		c-2.9-3.4-8.5-6.4-8.6-9.8c-0.1-3.1,5.4-6.5,8.5-9.7c40.9-40.9,81.8-81.8,122.6-122.8c3-3,4.5-3,7.2,0.1c2.7,3.1,6,5.7,9.1,8.7
		C416.3,477.1,389.8,503.6,363.2,530.1z"/>
	<path class="st0" d="M175,341.6c0.2-13.2,11.2-23.8,24.5-23.6c13,0.2,23.5,11.1,23.4,24.2c-0.1,13.2-11,24-24.3,23.8
		C185.5,365.9,174.8,354.9,175,341.6z"/>
</g>
</svg>
