<?xml version="1.0" encoding="utf-8"?>
<!-- Generator: Adobe Illustrator 19.0.0, SVG Export Plug-In . SVG Version: 6.00 Build 0)  -->
<svg version="1.1" id="Calque_1" xmlns="http://www.w3.org/2000/svg" xmlns:xlink="http://www.w3.org/1999/xlink" x="0px" y="0px"
	 viewBox="0 0 612 792" style="enable-background:new 0 0 612 792;" xml:space="preserve">
<style type="text/css">
	.st0{fill:#E3E3E3;}
	.st1{fill:#EE0000;}
	.st2{fill:#FDFDFD;}
	.st3{fill:#EE0101;}
</style>
<g>
	<path class="st0" d="M290,116c10.7,0,21.3,0,32,0c6.6,1,13.2,0.7,19.8,1.3c18.6,1.7,36.3,6.8,53.7,13.2c30.1,11,57.1,27.2,81,48.5
		c29.1,25.8,51.4,56.5,66.7,92.4c6.3,14.9,11,30.4,14.7,46.1c2.5,10.6,3.2,21.3,3.7,32.2c0.1,2.1-0.6,4.3,0.5,6.4
		c0,10.7,0,21.3,0,32c-0.9,6.7-0.6,13.5-1.2,20.3c-1.8,18.7-7,36.6-13.5,54.2c-9.6,26-23.1,49.8-40.8,71.3
		c-21.9,26.6-47.7,48.9-78.2,65.2c-24.8,13.2-51.2,22.6-79.1,27.1c-7.2,1.2-14.6,1.2-21.9,1.6c-1.8,0.1-3.7-0.5-5.4,0.5
		c-10.7,0-21.3,0-32,0c-6.9-1-13.8-0.8-20.8-1.4c-14.6-1.2-28.5-5.1-42.3-9.4c-32.1-10.2-61.3-26.3-86.9-48.1
		c-22.3-19-41.4-41.1-56.1-66.5c-15.8-27.2-26.6-56.3-31.8-87.3c-1.2-7.2-1.3-14.6-1.6-21.9c-0.1-1.8,0.6-3.7-0.5-5.4
		c0-10.7,0-21.3,0-32c0.9-6.7,0.5-13.5,1.3-20.3c2.6-23,9.2-45,18.4-66.2c22-50.5,56.9-89.8,103.7-118.4
		c27.5-16.8,57.5-27.9,89.4-33.1c7.2-1.2,14.6-1.2,21.9-1.6C286.4,116.4,288.3,117,290,116z"/>
	<path class="st1" d="M402.1,271.4c11.2,0.3,22.3-0.7,33.5,0.5c21.6,2.3,38.4,21.1,38.4,42.8c0.1,51.5,0,102.9,0,154.4
		c0,25.2-19.2,44.6-44.6,44.6c-67.5,0.1-134.9,0.1-202.4,0c-17.1,0-34.3,1.2-51.4-0.6c-20.9-2.2-37.5-20.9-37.6-41.9
		c-0.2-52.5-0.2-104.9,0-157.4c0.1-23.1,19.8-41.9,43.8-42.3c9.3-0.1,18.7,0,28,0c2.4,2,2,4.8,2,7.4c0.1,11.5,0,23,0.1,34.4
		c0,5.4,0.4,5.8,5.6,5.8c12.8,0,11.3,1,11.4-11c0.1-10,0-20,0-29.9c0-2.6-0.2-5.4,1.8-7.6c2.2-1.5,4.7-1.5,7.2-1.5
		c45.2,0,90.3,0,135.5,0c2.5,0,5-0.1,7.3,1.3c2.3,2.2,2,5.2,2,8c0.1,11.5,0,23,0.1,34.5c0,5.9,0.4,6.2,6.3,6.2
		c11.9,0,10.7,1,10.7-10.8c0.1-9.8,0-19.7,0-29.5C400.1,276.2,399.7,273.3,402.1,271.4z"/>
	<path d="M231.2,271.4c-0.1,14.8-0.2,29.6-0.1,44.4c0,3.7-0.7,5.5-4.9,5.1c-3.8-0.4-7.7-0.4-11.5,0c-4.2,0.4-4.9-1.4-4.8-5.1
		c0.1-14.8,0-29.6-0.1-44.4c0.1-9,0.1-18,0.2-26.9c0.1-25.6,19.8-45.8,45.3-46.1c33.8-0.3,67.6-0.3,101.3,0
		c25.6,0.2,45.2,20.5,45.3,46c0,9,0.1,18,0.2,26.9c-0.1,14.8-0.2,29.6-0.1,44.4c0,3.7-0.6,5.5-4.8,5.1c-3.8-0.4-7.7-0.4-11.5,0
		c-4.2,0.4-4.9-1.4-4.9-5.1c0.1-14.8,0-29.6-0.1-44.4c-1.5-2-1.6-4.3-1.6-6.7c0-6,0-12,0-18c-0.1-16-9.3-25.4-25.4-25.8
		c-14.1-0.3-28.3-0.1-42.5-0.1c-17,0-34,0-50.9,0c-4.9,0-9.6,0.6-14.1,2.7c-8.5,4.1-12.8,10.9-13.2,20.2c-0.3,6.8-0.1,13.7-0.1,20.5
		C232.9,266.7,232.8,269.2,231.2,271.4z"/>
	<path class="st0" d="M231.2,271.4c0-9.5-0.3-19-0.1-28.5c0.4-13,10.9-23.4,24.4-23.5c33.6-0.2,67.3-0.2,100.9,0
		c14.1,0.1,24.4,10.9,24.4,25c0,9-0.1,18-0.1,27C330.9,271.4,281.1,271.4,231.2,271.4z"/>
	<path class="st2" d="M387.6,415.1c2,6.8,3.7,13.1,5.8,19.2c0.8,2.5,0.5,3.4-2.1,4.2c-11.3,3.8-11.3,3.9-14.8-7.6
		c-5.3-17.1-10.5-34.3-15.9-51.4c-0.8-2.5-0.6-3.7,2-4.2c1.5-0.3,2.9-0.8,4.3-1.2c5.3-1.5,5.3-1.5,7.5,3.5c1.8-0.1,1.7-1.8,2.4-2.8
		c6.4-9.7,19.7-12,28.9-4.8c8.8,6.9,13.1,21.5,9.6,32.1C411.4,413.7,400.8,418.8,387.6,415.1z"/>
	<path class="st2" d="M264.8,410.6c2.9-5.1,6-8.4,10.6-10.1c8.2-3,16-0.3,20.3,7.8c5.4,10.4,7.2,22,11,33c0.1,0.4,0.2,1.3,0,1.4
		c-3.9,2.2-8.3,3.4-12.6,4.1c-3.1,0.5-2.4-3.3-3.1-5.2c-2.1-6.3-3.9-12.7-5.9-19c-0.4-1.3-0.7-2.6-1.3-3.8c-2.3-4.8-5.7-6.5-10-5
		c-4.2,1.5-6.2,5.2-4.9,10.1c2.2,8.2,4.6,16.3,7.2,24.3c1.1,3.3,0.3,4.2-2.8,5.1c-10.6,3.1-10.5,3.2-13.7-7.4
		c-5.3-17.6-10.6-35.3-16-52.9c-1-3.3-0.8-4.9,2.9-6c10.4-3,10.4-3.1,13.5,7.2C261.5,399.4,263,404.4,264.8,410.6z"/>
	<path class="st2" d="M215.1,457.1c4.9,0.1,9.6-0.6,14-3c2.8-1.5,4.9-3.6,4.6-7.1c-0.4-3.6-2.7-5.7-6.2-6.2
		c-4.8-0.7-9.6-1.1-14.3-1.8c-9.5-1.5-15.6-6.7-17.1-14.4c-1.7-8.4,1.9-16.1,9.9-21.2c6.8-4.3,14.3-5.9,22.3-6.2
		c3-0.1,4.8,0.7,4.4,4.2c-0.2,1.3-0.1,2.7,0.1,4c0.6,3.6-0.4,5-4.4,4.7c-4.8-0.5-9.6,0.6-13.9,3.1c-2.5,1.4-4,3.5-3.6,6.5
		c0.4,3.2,2.7,4.6,5.4,5.1c5.4,0.9,10.9,1.3,16.3,2.2c8.7,1.5,14.5,6.5,16.1,15.4c1.6,8.4-1.9,15-8.6,19.8c-8.4,6-18,8.1-28.3,7.8
		c-2.3-0.1-3.4-0.9-3.3-3.2c0-0.8-0.1-1.7-0.1-2.5C207.8,457.1,207.8,457.1,215.1,457.1z"/>
	<path class="st2" d="M359.2,410.6c0.1,13.9-11.4,24.5-26.5,24.7c-14.2,0.2-24.7-11.2-24.8-26.8c0-14,11.7-24.7,27-24.7
		C348.9,383.8,359.1,395.1,359.2,410.6z"/>
	<path class="st3" d="M401.3,395.4c0,5.7-3,9.8-7.8,10.6c-5,0.9-8.9-1.7-10.8-7.3c-0.9-2.5-1.7-5-2.3-7.6c-1.1-4.8,1-9.3,5.2-11.2
		c4.2-2,8.6-0.7,11.8,3.4C399.8,386.4,401.3,391,401.3,395.4z"/>
	<path class="st3" d="M344,411.6c0.1,7.2-2.1,10.9-6.3,12.1c-4,1.2-8.3-0.9-11.1-5.7c-2.4-4.1-3.7-8.5-3.6-13.3
		c0.2-4.5,2.1-8,6.7-9.4c4.3-1.2,7.4,1,9.8,4.2C342.5,403.6,343.8,408.2,344,411.6z"/>
</g>
</svg>
