<?xml version="1.0" encoding="utf-8"?>
<!-- Generator: Adobe Illustrator 19.0.0, SVG Export Plug-In . SVG Version: 6.00 Build 0)  -->
<svg version="1.1" id="Calque_1" xmlns="http://www.w3.org/2000/svg" xmlns:xlink="http://www.w3.org/1999/xlink" x="0px" y="0px"
	 viewBox="0 0 612 792" style="enable-background:new 0 0 612 792;" xml:space="preserve">
<style type="text/css">
	.st0{fill:#0AD1DB;}
	.st1{fill:#2D8B90;}
	.st2{fill:#34888C;}
	.st3{fill:#32878B;}
	.st4{fill:#35888C;}
	.st5{fill:#34898D;}
	.st6{fill:#358A8E;}
	.st7{fill:#3C8D90;}
	.st8{fill:#0AAFBF;}
	.st9{fill:#09AFC0;}
	.st10{fill:#3D8D91;}
	.st11{fill:#378B8F;}
	.st12{fill:#378A8E;}
	.st13{fill:#358A8D;}
	.st14{fill:#368B8E;}
	.st15{fill:#3A8C8F;}
	.st16{fill:#35898D;}
	.st17{fill:#37898D;}
	.st18{fill:#36898C;}
	.st19{fill:#388A8E;}
	.st20{fill:#0AADBD;}
	.st21{fill:#09AEBF;}
	.st22{fill:#0AAEBE;}
	.st23{fill:#09AFBF;}
</style>
<g>
	<path class="st0" d="M295.9,314.2c18.6,4.3,30.6,15.7,35.1,34.1c4.6,18.7-1.3,34.4-15.9,46.8c-2,1.6-4.1,0.8-6.2,0.3
		c-16-3.8-32-7.3-47.9-11.4c-7.2-1.8-13.4-6.2-18.7-11.4c-4.9-20.8,0.4-38.2,17.8-51.1c5.8-4.3,12.3-7.3,19.7-7.5
		c0.6,2.7-1.1,5.1-0.7,7.8c0.3,1.5,0.1,3.4,2.1,3.4c2.4,0.1,2.1-2.1,2.3-3.6c0.5-3.4-1.4-5.6-3.8-7.5c4.4-1.4,8.8-1.3,13.3-0.1
		c-0.4,2.7-1.2,5.5-0.8,8.3c0.2,1.3,0.3,2.9,2,3c2,0.1,2.1-1.7,2.3-3.1C297,319.3,295.6,316.8,295.9,314.2z"/>
	<path class="st0" d="M398,231.2c20.6,4.6,35.6,21.3,36.9,41.1c1.4,21.1-10.7,40.2-30.2,47.3c-2.2,0.8-4.3,1.7-6.7,1.5
		c-1.1-2.6,0-5.3-0.4-7.9c-0.2-1.5-0.2-3.3-2.3-3.2c-1.8,0.1-1.7,1.7-2,3c-0.9,4.2,1.2,6.5,4.7,8.1c-18.6,5.7-42.1-6-51-25.5
		c-12.2-26.7,3.3-57.9,31.9-64.3c1-0.2,2-0.1,3-0.2c0.2,2.9-1.4,5.7-0.6,8.7c0.3,1.3,0.6,2.8,2.1,2.9c1.8,0.1,2.4-1.4,2.9-2.8
		c1.3-3.7-1.5-6.1-2.8-9c3.8-1.1,7.5-1.1,11.3,0.1c0.6,2.8-1.3,5.4-0.7,8.2c0.3,1.5,0.4,3.1,2.4,3.1c1.8,0,2.3-1.5,2.8-3
		C400.3,236.3,397.6,234,398,231.2z"/>
	<path class="st1" d="M242.3,372.6c4.6,2.3,9.1,4.8,13.2,7.9c4.3,3.2,9.7,3.1,14.6,4.4c13.4,3.5,27,6.4,40.5,9.6
		c1.4,0.3,2.9,0.5,4.4,0.8c5.2,2.6,11.4,2,16.5,5.3c2,1.3,2.9-1,4-2c15.1-14.6,30.2-29.2,45.3-43.8c5.4-5.2,11.5-8.8,19.2-7.4
		c9.7,1.7,15,10.8,12.2,20.3c-1.4,4.6-4.2,8.3-7.3,11.8c-21.8,24.3-43.3,48.9-65.4,72.9c-11.7,12.8-26.2,19.1-44.1,18.2
		c-35.4-1.9-70.9-3-106.3-4.6c-3-0.1-5.4,0.7-7.8,2.4c-8.4,6-16.9,11.9-25.3,17.8c-1.5,1.1-3.3,3.1-5.1,0.7
		c-2.1-2.8,0.7-3.8,2.3-4.9c9.2-6.5,18.6-13,27.8-19.5c1.9-1.4,3.8-1.7,6.1-1.6c32.1,1.4,64.2,2.8,96.3,4.1c4.5,0.2,9,0.2,13.5,0.5
		c15.6,1,28.4-5.1,38.7-16.3c22.2-24.4,44.1-49.1,66.1-73.7c2.3-2.6,4.5-5.3,5.6-8.8c1.3-4,0.8-7.6-2-10.7
		c-2.9-3.2-6.6-4.3-10.9-3.4c-3.9,0.8-7,3-9.8,5.7c-15.1,14.6-30.2,29.2-45.3,43.8c-1.9,1.8-2.5,3.1-1.3,5.9
		c4.5,10.4-2.6,21.4-13.9,21.5c-11,0.1-21.8-2.2-32.7-3.4c-15.6-1.7-31.1-3.8-46.6-5.7c-2.2-0.3-4.9-0.1-4.5-3.2
		c0.3-2.8,3-2.1,4.9-1.9c18,2.1,36,4.3,54,6.5c7.6,0.9,15.2,1.9,22.8,2.5c6.7,0.5,11.2-3,12-8.6c0.8-6-2.5-10.8-9.1-12.4
		c-14.2-3.5-28.5-6.7-42.7-10c-7.8-1.8-15.6-3.6-23.3-5.4c-1.9-0.5-3.8-0.9-5.5-2.2c-19.7-15.3-40.9-15.5-63.2-6.7
		c-8.3,3.3-15.7,7.9-22.9,13c-19.7,13.9-39.5,27.8-59.2,41.7c-0.7,0.5-1.3,1-2,1.4c-1.6,1-3.3,2.2-4.7,0c-1.2-1.8,0.2-3.1,1.6-4.1
		c0.7-0.5,1.3-1,2-1.5c20.7-14.6,41.3-29.3,62.1-43.7c17.1-11.9,35.7-19.3,57-17.6C230.4,368.5,236.4,370.2,242.3,372.6z"/>
	<path class="st2" d="M451,215.9c0,3.7-3.3,7-6.9,7c-3.4,0-6.5-3.2-6.6-6.7c-0.1-3.8,3.2-7.1,6.8-7C447.8,209.3,451,212.5,451,215.9
		z"/>
	<path class="st3" d="M451,358.5c0,3.7-2.8,6.6-6.6,6.7c-3.7,0.1-6.7-2.7-6.8-6.4c-0.1-3.9,2.9-7,6.8-7
		C448.1,352,451,354.9,451,358.5z"/>
	<path class="st4" d="M378.4,488.6c-3.3,2.5-1,5.2-0.4,8.2c0.4,1.9-2,3-3.9,1.4c-1.7-1.5-3-1.7-4.6,0c-1,1.1-2.4,1.2-3.5,0
		c-1.1-1.2-1-2.6,0-3.5c1.7-1.6,1.9-2.8,0.1-4.4c-1.1-1-1.1-2.4,0-3.6c0.9-0.9,2.3-1.1,3.1-0.2c1.8,1.8,3,1.7,5,0.1
		C376,485.1,377.7,485.9,378.4,488.6z"/>
	<path class="st5" d="M196.4,515c-2.4-3.1-5-2.5-7.8-0.3c-0.3,0.2-1.5-0.5-2.1-1c-1-1-0.9-2.3,0.1-3.1c2-1.7,1.9-3.1,0-4.8
		c-1-0.9-0.9-2.1,0-3.1c0.9-1.1,2.3-1.3,3.1-0.5c1.9,1.7,3.4,2.1,5.4,0c0.8-0.8,2.2-0.7,3.2,0.3c0.9,1,1,2.4,0.1,3.2
		c-2,1.8-1.4,3.1,0,5C199.9,512.7,198.7,514.1,196.4,515z"/>
	<path class="st6" d="M286.5,273.9c-0.6,0.5-1.1,0.8-1.6,1.2c-1.4,1.2-3,1.7-4.3,0.2c-1.3-1.5-0.4-2.8,0.8-3.9
		c1.6-1.5,0.9-2.4-0.3-3.6c-1.3-1.2-1.4-2.6,0-3.8c1.2-1.1,2.5-0.9,3.5,0.2c1.3,1.5,2.4,1.8,3.9,0.1c1.1-1.3,2.7-1.5,3.9-0.1
		c1,1.1,0.8,2.5-0.2,3.6c-1.2,1.2-1.9,2.3-0.3,3.7c1.2,1.1,1.8,2.6,0.6,3.9c-1.4,1.6-2.9,0.9-4.3-0.4
		C287.7,274.7,287.1,274.3,286.5,273.9z"/>
	<path class="st2" d="M425.9,413.3c-2.9-5.9-3.4-9.1,4.2-4.7c0.4,0.2,1.5-0.9,2.3-1.5c1.2-0.9,2.4-1.1,3.6,0
		c1.2,1.1,1.2,2.5,0.1,3.5c-1.8,1.5-1.9,2.8-0.2,4.4c1,1,1.3,2.3,0.1,3.5c-1.2,1.1-2.6,1-3.6,0c-1.4-1.4-2.6-1.8-4.1-0.1
		c-1.1,1.3-2.7,1.5-3.9,0.2c-1-1.1-0.8-2.5,0.2-3.6C425.1,414.3,425.6,413.7,425.9,413.3z"/>
	<path class="st7" d="M344,360.2c-0.5,3.6-1,7.2-1.6,10.8c-0.3,1.5-1,3-3,2.5c-1.7-0.4-2.3-1.7-2.1-3.4c0.4-4.1,0.9-8.2,1.2-12.3
		c0.2-1.9-0.4-4.5,2.5-4.5c2.6,0,2.7,2.4,2.7,4.5c0,0.8,0,1.7,0,2.5C343.8,360.2,343.9,360.2,344,360.2z"/>
	<path class="st2" d="M445.9,278c0.4,3.5-0.7,6.9-1.2,10.3c-0.2,1.4-1.2,2.5-2.7,2.4c-1.9-0.1-2.5-1.5-2.3-3.2
		c0.7-4.9,1.3-9.8,1.2-14.8c0-1.6,1.1-2.5,2.5-2.4c1.5,0.1,2.3,1.1,2.4,2.7C445.9,274.7,445.9,276.3,445.9,278z"/>
	<path class="st8" d="M383.6,230.9c5.1,3.8,6,9.4,2.2,12.8c-2.2,1.9-4,1.7-5-1c-1.5-4-1.8-8,1.1-11.6
		C382.5,231,383.1,230.9,383.6,230.9z"/>
	<path class="st9" d="M398,231.2c2.4,2.8,3.8,5.8,2.5,9.6c-0.8,2.3-2.3,3.6-4.9,3.1c-2.4-0.4-2.6-2.1-2.7-4.1c0-3.1-0.5-6.3,2-8.9
		C395.9,231,396.9,231.1,398,231.2z"/>
	<path class="st10" d="M234.8,354.5c-0.2,2.1-0.3,4.3-0.5,6.4c-0.1,1.3-0.9,2.1-2.3,2.2c-1.6,0.1-2.6-0.9-2.8-2.3
		c-0.5-4.3,0.3-8.6,1.2-12.8c0.2-1.2,1.3-2,2.6-1.8c1.6,0.2,2.2,1.4,2.2,2.8C235.2,350.9,234.9,352.7,234.8,354.5
		C234.8,354.5,234.8,354.5,234.8,354.5z"/>
	<path class="st11" d="M431.9,312.7c-2-0.7-3.3-1.8-2.2-3.7c2.1-3.7,4.4-7.3,6.8-10.9c0.5-0.8,1.6-1.2,2.7-0.6
		c1.1,0.6,2,1.5,1.5,2.8c-1.7,4.3-4.2,8.2-7.2,11.7C433.1,312.4,432.3,312.5,431.9,312.7z"/>
	<path class="st12" d="M318.1,312c2.1,0,11.5,8.4,11.5,10.5c0,0.7-0.4,1.7-1,2.1c-1,0.8-2.3,0.7-3.2-0.1c-3-2.6-5.9-5.4-8.8-8.1
		c-1-0.9-1.1-2-0.5-3.2C316.5,312.5,317.2,312,318.1,312z"/>
	<path class="st9" d="M295.9,314.2c3,3,1.9,6.8,1.8,10.3c0,1.5-1.2,2.3-2.7,2.4c-1.5,0.1-3.6,0.1-3.7-1.6c-0.2-3.9-2.4-8.2,1.7-11.5
		C294,314,295,314.1,295.9,314.2z"/>
	<path class="st11" d="M242.5,324.2c1.9,0.6,3.1,1.8,2.3,3.4c-2,4-4.4,7.7-6.8,11.5c-0.5,0.9-1.7,1-2.7,0.3
		c-0.9-0.6-1.7-1.4-1.3-2.5c1.6-4.4,3.8-8.4,6.9-12C241.3,324.5,242,324.4,242.5,324.2z"/>
	<path class="st13" d="M341.5,343.4c-0.3,1.2-0.6,2.3-2,2.6c-1.3,0.3-2.3-0.3-2.8-1.4c-1.6-3.6-3.2-7.3-4.7-10.9
		c-0.5-1.4-0.1-2.7,1.3-3.4c1-0.5,2.1-0.4,2.7,0.5C338.6,334.7,340.1,339,341.5,343.4z"/>
	<path class="st14" d="M426,318.9c-0.4,0.6-0.7,1.4-1.3,1.9c-3.1,2.6-6.5,4.6-10.1,6.4c-1.4,0.7-2.7,0.7-3.5-0.7
		c-0.9-1.5-0.4-2.8,1.1-3.8c3.1-1.9,6.1-4,9.2-5.9C423.9,315.3,425.2,316.3,426,318.9z"/>
	<path class="st15" d="M374.5,226.1c-0.8,0.1-2.3-0.1-2.6-2.1c-0.2-1.6,0.7-2.6,2.1-2.9c3.7-0.7,7.5-1.4,11.3-2
		c1.7-0.3,3.1,0.4,3.4,2.2c0.3,1.9-0.9,2.6-2.6,2.9C382.5,224.8,378.9,225.4,374.5,226.1z"/>
	<path class="st16" d="M400.7,220.2c2.4,0.8,5.9,1.8,9.3,3c1.5,0.5,2.8,1.6,2.3,3.3c-0.6,2-2.4,2-4.1,1.5c-3.2-0.9-6.3-1.9-9.5-2.8
		c-1.8-0.5-3.2-1.2-2.7-3.3C396.5,220,398,219.9,400.7,220.2z"/>
	<path class="st16" d="M376.1,332c-3.3-0.6-7-2-10.7-3.6c-1.4-0.6-2-1.8-1.5-3.2c0.6-1.8,2.1-1.9,3.6-1.3c3.4,1.1,6.9,2.2,10.3,3.3
		c1.7,0.5,2.5,1.7,2,3.4C379.5,332.1,378.1,332.2,376.1,332z"/>
	<path class="st16" d="M297.4,303c3.6,0.6,7.4,1.8,11,3.4c1.2,0.5,1.8,1.5,1.5,2.9c-0.4,1.6-1.7,2.1-3.1,1.8
		c-3.9-1-7.7-2.1-11.5-3.3c-1.4-0.4-2.1-1.6-1.6-3.2C294.3,302.9,295.6,302.8,297.4,303z"/>
	<path class="st6" d="M329.3,395.3c-2.3-0.7-3-2-1.8-4.1c1.9-3.3,4-6.5,6-9.7c0.7-1,1.6-1.8,2.9-1.4c1.2,0.4,2.1,1.5,1.7,2.7
		c-1.4,4.6-4,8.6-7.4,12.1C330.4,395.2,329.8,395.2,329.3,395.3z"/>
	<path class="st17" d="M331.8,272.1c0.2-1.3,0.6-3.8,0.9-6.2c0.2-1.5,1-2.6,2.5-2.5c1.7,0.1,2.7,1.4,2.5,3.1
		c-0.3,3.8-0.6,7.6-1,11.4c-0.1,1.5-1.1,2.5-2.6,2.5c-1.5,0-2.4-1-2.4-2.5C331.7,276.3,331.8,274.8,331.8,272.1z"/>
	<path class="st16" d="M352.8,237.4c-0.4-0.3-1.2-0.6-1.6-1.2c-0.7-1.1-0.4-2.3,0.5-3.1c3.1-2.8,6.5-5.2,10.2-7
		c1.1-0.5,2.3-0.4,3.1,0.7c0.6,0.7,0.6,1.5,0.3,2.3C364.9,230,354.1,237.4,352.8,237.4z"/>
	<path class="st5" d="M431.9,239.6c0,1.1-0.4,1.8-1.1,2.2c-1.2,0.6-2.3,0.4-3.2-0.4c-3-2.7-5.9-5.3-8.8-8.1c-1-0.9-1.1-2-0.2-3.1
		c0.8-1,1.8-1.6,3-0.8c3.8,2.5,7.1,5.5,10,8.9C431.8,238.7,431.8,239.3,431.9,239.6z"/>
	<path class="st18" d="M393.2,333.3c-2.6-0.3-5.6,0.9-5.8-2.3c-0.2-3,2.6-2.8,4.8-3c2.8-0.3,5.6-0.8,8.4-1.1c1.6-0.2,3.1,0,3.4,2
		c0.3,1.8-0.8,2.8-2.5,3C398.5,332.5,395.6,332.9,393.2,333.3z"/>
	<path class="st19" d="M271.8,309.1c-0.8,0.1-1.9-0.4-2.2-2c-0.3-1.5,0.5-2.7,2-3c3.9-0.8,7.8-1.4,11.7-2c1.5-0.2,2.6,0.6,2.9,2.1
		c0.3,1.5-0.3,2.6-1.9,2.9C280.4,307.7,276.5,308.3,271.8,309.1z"/>
	<path class="st13" d="M342.9,301c0.1,1.4-0.7,2.2-1.8,2.7c-1.3,0.5-2.3-0.2-2.9-1.3c-2-3.6-3.5-7.4-4.4-11.5
		c-0.3-1.2-0.1-2.4,1.2-2.9c1.1-0.5,2.5-0.6,3,0.7C339.7,292.7,341.2,296.9,342.9,301z"/>
	<path class="st16" d="M443.9,260.4c0,1.2-0.5,2.1-1.5,2.6c-1.2,0.6-2.5,0.3-3.1-0.8c-1.9-3.9-3.6-7.9-5.2-11.8
		c-0.5-1.2,0.3-2.2,1.4-2.9c1.2-0.8,2.3-0.3,3,0.8C441,252.1,442.5,256.3,443.9,260.4z"/>
	<path class="st5" d="M339,256.9c-2-0.5-3-1.7-2.3-3.6c1.5-4,3.7-7.7,6.4-11.1c0.7-0.9,1.8-1.4,3-0.6c0.9,0.6,1.8,1.5,1.3,2.4
		c-2.3,4.2-4.7,8.2-7.2,12.3C340,256.7,339.4,256.7,339,256.9z"/>
	<path class="st5" d="M250.5,320.2c-2-0.5-3.3-1.9-1.5-3.8c3-3.4,6.7-6,11-7.6c2.2-0.8,3.4,0.7,2.9,3.1
		C262.6,312.9,251.8,320.2,250.5,320.2z"/>
	<path class="st5" d="M347.6,309c0.2,0.1,0.9,0.3,1.3,0.7c2.8,2.6,5.6,5.3,8.3,7.9c1.1,1.1,1.3,2.4,0.4,3.6c-1,1.3-2.4,1.1-3.6,0.2
		c-3.2-2.4-6.1-5.1-8.6-8.3c-0.8-1-0.9-2.1-0.3-3.2C345.5,309.2,346.3,308.9,347.6,309z"/>
	<path class="st20" d="M279.8,314c4.5,1,7.3,8.7,4.4,12c-1,1.2-2.4,1.1-3.7,1c-1.5-0.2-2.5-1.1-2.5-2.6
		C277.9,320.7,277.2,317,279.8,314C279.9,313.9,279.8,314,279.8,314z"/>
	<path class="st21" d="M387.9,304c-3.5-0.4-7.7,0.8-11.7-1.3c-5.4-2.8-7.9-7.4-9.1-12.9c-0.5-2.3,0.7-4,2.8-4.6
		c2.3-0.7,4.4,0.6,4.7,2.6c1.1,7.9,6.3,8.8,12.7,8.2c2-0.2,4,0,6,0c5.6,0,8.6-3.1,8.6-8.6c-0.1-4.7-3.2-7.3-8.6-7.4
		c-4.6-0.1-9.3,0.7-13.8-1.2c-6.6-2.7-10.3-9-9.6-16.3c0.7-7,5.5-12.1,12.6-13.5c6.3-1.2,12.5-1.8,18.7,0c5.1,1.5,8,5.2,9.2,10.2
		c0.6,2.6-0.2,4.8-2.8,5.6c-2.5,0.7-4.2-0.9-4.7-3.3c-0.8-4.3-3.4-5.7-7.5-5.5c-3.2,0.1-6.3-0.1-9.5,0.1c-5.2,0.2-8.2,3.4-8.1,8.7
		c0.1,5.1,2.4,7.2,8,7.3c5.6,0.1,11.3-0.6,16.4,2.7c6.3,4,8.8,10,7,16.6c-2.6,9-7,12.7-15.3,12.8C392.1,304,390.3,304,387.9,304z"/>
	<path class="st22" d="M398,321c-2-0.3-4.9,0.9-5.7-1.8c-0.9-3.2-1-6.6,0.1-9.8c0.6-1.6,2.4-1.5,3.9-1.3c1.5,0.2,2.5,1.2,2.4,2.7
		C398.8,314.2,399.6,317.7,398,321C397.9,321,398,321,398,321z"/>
	<path class="st23" d="M386,314.6c-0.5,2.4,1.2,6.1-2.9,6.2c-4.2,0.1-4.2-3.3-4.2-6.4c0-3,0.1-6.2,3.9-6.2
		C387.3,308.2,385.4,312.2,386,314.6z"/>
</g>
</svg>
