<?xml version="1.0" encoding="utf-8"?>
<!-- Generator: Adobe Illustrator 19.0.0, SVG Export Plug-In . SVG Version: 6.00 Build 0)  -->
<svg version="1.1" id="Calque_1" xmlns="http://www.w3.org/2000/svg" xmlns:xlink="http://www.w3.org/1999/xlink" x="0px" y="0px"
	 viewBox="0 0 612 792" style="enable-background:new 0 0 612 792;" xml:space="preserve">
<style type="text/css">
	.st0{fill:#00ADEE;}
	.st1{fill:#01ADEE;}
</style>
<g>
	<path class="st0" d="M492.2,224.7c-105.3,0.6-210.7,0.3-316,0.3c-1.3,0-2.7-0.1-4,0c-2.3,0.2-3.1-0.7-3.5-3
		c-1.1-6.4-2.6-12.7-3.8-19.1c-3.2-16.8-15.8-29.9-32.7-33.1c-11.4-2.1-22.9-0.5-34.4-0.8c-5.7-0.1-9.5,3.2-9.5,7.9
		c0,4.7,3.8,8,9.5,8c9,0,18,0,27,0c13,0.1,21.5,6.9,24.1,19.5c2.4,11.7,4.9,23.4,7.1,35.2c11.3,58.5,22.6,116.9,33.9,175.4
		c3.9,20,20.6,33.9,41,33.9c30.7,0,61.3,0,92,0c30.5,0,61,0,91.5,0c18.8,0,33.7-10.2,40.4-27.8c20.6-53.5,40.8-107.2,62-160.5
		C524,242.7,509.3,224.6,492.2,224.7z M502.5,252.6c-5.4,14.3-11,28.6-16.5,42.8c-15.3,39.9-30.7,79.8-46,119.6
		c-5.2,13.5-11.7,17.9-26,18c-60.8,0-121.7,0-182.5,0c-15.2,0-22.9-6.1-25.8-20.9c-7.8-40-15.4-80-23.2-120c-0.5-2.5,0-3.2,2.5-3.1
		c5.2,0.1,10.3,0,15.5,0c55.5,0,111,0,166.5,0c1.7,0,3.4,0.2,5-0.1c4.1-0.9,6.4-3.6,6.6-7.7c0.3-3.8-2.8-7.5-6.8-8.1
		c-1.6-0.2-3.3-0.1-5-0.1c-60.8,0-121.7-0.1-182.5,0.1c-4.3,0-6-1.1-6.6-5.5c-0.9-7.4-2.5-14.8-4.2-22c-1-4.1,0.3-4.6,4-4.6
		c52.8,0.1,105.7,0.1,158.5,0.1c51.5,0,103,0,154.5,0c1.3,0,2.7,0,4,0C502.6,241.1,505.4,244.9,502.5,252.6z"/>
	<path class="st0" d="M242.8,465c-20.9,0-39.9,19.2-39.8,40.2c0.1,21,19.2,39.9,40.2,39.8c20.9-0.1,39.9-19.2,39.8-40.2
		C282.9,483.9,263.9,465,242.8,465z M242.7,529c-14.1-0.1-23.7-9.8-23.7-24.1c0-14.4,9.8-24,24.3-23.9c14.1,0.1,23.7,9.8,23.7,24
		C267,519.4,257.2,529.1,242.7,529z"/>
	<path class="st0" d="M403.2,465c-21-0.1-40.1,18.9-40.2,39.8c0,21,18.9,40.1,39.8,40.2c21,0.1,40.1-18.9,40.2-39.8
		C443.1,484.2,424.1,465.1,403.2,465z M402.7,529c-14.1-0.1-23.7-9.8-23.6-24.1c0-14.4,9.8-24,24.3-23.9
		c14.1,0.1,23.7,9.8,23.7,24.1C427,519.5,417.1,529.1,402.7,529z"/>
	<path class="st1" d="M412.6,273c2.2,0,4.3-0.1,6.5,0c4.3,0.4,7.5,3.8,7.5,7.8c0.1,4-3.1,7.8-7.3,8c-4.5,0.3-9,0.3-13.4,0
		c-4.3-0.3-7.2-3.8-7.1-8.1c0.1-4.3,3-7.5,7.4-7.8C408.3,272.9,410.5,273,412.6,273z"/>
</g>
</svg>
