<?xml version="1.0" encoding="utf-8"?>
<!-- Generator: Adobe Illustrator 19.0.0, SVG Export Plug-In . SVG Version: 6.00 Build 0)  -->
<svg version="1.1" id="Calque_1" xmlns="http://www.w3.org/2000/svg" xmlns:xlink="http://www.w3.org/1999/xlink" x="0px" y="0px"
	 viewBox="0 0 612 792" style="enable-background:new 0 0 612 792;" xml:space="preserve">
<style type="text/css">
	.st0{fill:#3E6DB4;}
	.st1{fill:#4572B6;}
	.st2{fill:#FEFEFE;}
	.st3{fill:#CBDCEE;}
	.st4{fill:#4974B8;}
	.st5{fill:#3D6CB3;}
	.st6{fill:#416FB5;}
</style>
<g>
	<path class="st0" d="M382.7,324c-2.2-2.9-4.3-2.1-5.9-2.7c-5.1-1.8-8.4-6.5-7.7-11.5c0.6-4.8,4.6-8.9,9.8-9.1
		c8.7-0.4,17.3-0.4,26-0.2c3.1,0,4.8-1,6.3-3.7c9.1-16.1,18.5-32,27.6-48c2.1-3.7,5-5.9,9.3-5.3c3.7,0.5,5.8,3,6.7,6.5
		c0.7,2.8-0.6,5.2-1.9,7.5c-7.5,13-15,26-22.5,38.9c-1.5,2.6-2.1,4.1,2,4.1c21.8-0.1,43.7-0.1,65.5-0.1c0.6,0,1.3-0.2,2.6-0.5
		c-1.8-3.2-3.4-6-5.1-8.8c-6.5-11.2-13-22.5-19.4-33.8c-3.1-5.5-2.2-10.6,2.2-13.1c4.2-2.3,9-0.5,12,4.7
		c8.9,15.3,17.9,30.4,26.4,45.9c2.5,4.5,5.3,6,10.2,5.7c6.3-0.4,12.7-0.2,19,0.1c6.9,0.3,11.2,4.2,11.5,10
		c0.3,5.6-3.5,10.2-9.9,11.1c-2.7,0.4-3.1,1.6-3.5,3.7c-4.5,24-9.3,48-13.7,72.1c-1.9,10.6-5,13.6-15.9,13.6
		c-11.8,0-23.7,0.2-35.5-0.1c-3.9-0.1-5,1-5,4.9c0.2,32.2,0.1,64.3,0.1,96.5c0,4.4-0.2,8.7-2,12.7c-1.3,2.7-0.2,3,2.2,3
		c6.8-0.1,13.7-0.1,20.5,0c7.8,0,13.4,4.9,13.5,11.6c0.1,7.1-5.5,12.2-13.5,12.2c-125.3,0-250.7,0-376,0c-7.8,0-13.4-5-13.5-11.7
		c-0.1-6.9,5.7-12.1,13.6-12.1c7.5,0,15,0,22.5-0.1c0.3,0,0.6-0.2,1.3-0.5c-3.6-6.4-3-13.4-3-20.4c0-51.7,0-103.3,0-155
		c0-3.8,0-7.7,1.2-11.4c3.2-10.4,12.2-16.7,24-16.7c53.3,0,106.7,0,160,0c17.3,0,34.7,0,52,0C378.2,324,380,324,382.7,324z"/>
	<path class="st1" d="M73.1,293.9c1.8,0.3,1.8,1.7,1.9,3c0,3.2,0.1,6.3,0,9.5c-0.1,2.2,0.8,3,2.9,2.9c3.3-0.1,6.6,0,10,0
		c1.2,0,2.5,0.3,2.6,1.7c0.1,1.8-1.3,2-2.7,2c-2.7,0-5.4,0.3-8-0.1c-4.1-0.5-5.2,1.3-4.8,5c0.3,2.3,0.1,4.6,0,7
		c0,1.5,0.2,3.5-1.7,3.5c-2.4,0.1-2-2.1-2-3.7c0-2.5-0.2-5,0-7.5c0.4-3.7-1.2-4.6-4.5-4.3c-2.5,0.2-5,0.1-7.5,0
		c-1.4,0-3.4,0.3-3.3-1.9c0.1-2.1,2-1.8,3.5-1.8c2.5-0.1,5-0.2,7.5,0c3.6,0.4,4.6-1.1,4.3-4.5c-0.3-2.8-0.1-5.6,0-8.5
		C71.2,295,71.6,294,73.1,293.9z"/>
	<path class="st1" d="M96,390.8c2.1,0.4,2,2,1.9,3.4c-0.5,4.2,0.6,6.6,5.5,5.8c1.3-0.2,3.5-0.7,3.6,1.5c0.1,2.5-2.2,2.3-3.7,2
		c-4.5-0.6-6,1.1-5.4,5.5c0.2,1.5,0.4,3.8-2,3.6c-1.9-0.1-1.8-2.2-1.6-3.6c0.6-4.3-0.8-6.2-5.4-5.5c-1.4,0.2-3.8,0.5-3.7-2
		c0.1-2.2,2.2-1.8,3.5-1.5c4.8,0.8,6.1-1.4,5.5-5.7C94,392.9,94,391.2,96,390.8z"/>
	<path class="st0" d="M386.5,260.5c-0.6,1.9-2.1,1.7-3.3,1.6c-4.5-0.7-7,0.6-6.1,5.7c0.2,1.3,0.5,3.5-1.6,3.5
		c-2.1,0-1.9-2.1-1.7-3.5c0.9-5-1.4-6.5-6-5.8c-1.4,0.2-3.4,0.4-3.3-1.8c0.1-1.8,2-1.7,3.2-1.5c5.2,0.9,6.9-1.4,6.2-6.3
		c-0.2-1.3-0.2-3,1.6-3.1c1.5-0.1,1.9,1.3,1.7,2.5c-1,5.8,1.4,7.9,7,7C385.3,258.5,386.4,259.1,386.5,260.5z"/>
	<path class="st2" d="M306.3,515.1c-42.8,0-85.6,0-128.4,0c-14.8,0-22.1-7.3-22.1-22c0-44,0-88,0-131.9c0-15.2,7.1-22.3,22.3-22.3
		c67.3,0,134.6,0,201.9-0.1c4,0,5.4,1.3,6,5.1c3.3,18.8,7,37.6,10.5,56.4c1.5,7.6,5.4,10.8,13.1,10.9c14.5,0,29,0.1,43.5-0.1
		c3.1,0,4.3,0.7,4.3,4.1c-0.1,26.7,0,53.3-0.1,80c-0.1,12.4-8,20-20.5,20.1C393.3,515.1,349.8,515.1,306.3,515.1z"/>
	<path class="st3" d="M462.9,321.9c24.2,0,48.3,0.1,72.5-0.1c4.4,0,5.3,1,4.4,5.2c-4.8,24.5-9.3,49-14,73.4
		c-0.8,4.2-3.1,6.8-7.8,6.8c-36.7,0-73.3,0-110,0c-5,0-7.2-2.7-8-7.2c-4.6-24.2-9-48.3-13.7-72.5c-0.9-4.5-0.4-5.9,4.6-5.9
		C415,322,438.9,321.9,462.9,321.9z"/>
	<path class="st2" d="M306,528.1c-51.2,0-102.3-0.1-153.5,0.1c-5.2,0-7.5-2-8.7-6.6c-0.6-2.3-0.8-4.6-0.8-6.9
		c0-55.2,0-110.3,0-165.5c0-13.7,7.7-21.4,21.3-21.4c71.3,0,142.6,0,214,0c1.6,0,3.6-1,4.8,1.4c2,4.3,1.1,5.9-3.7,5.9
		c-66.8,0-133.6,0-200.5,0c-17.5,0-26.8,9.4-26.8,26.8c0,43.7,0,87.3,0,131c0,16,9.8,26,25.7,26c85.8,0,171.6,0,257.5,0
		c16.1,0,25.8-9.8,25.8-25.9c0-25.8,0.1-51.7-0.1-77.5c0-3.9,1.2-4.6,4.8-4.6c3.5,0,4.4,1,4.4,4.5c-0.1,33.5-0.1,67-0.1,100.5
		c0,2.2-0.3,4.3-0.9,6.4c-1.2,4.2-3.4,6-8.2,6C409.3,528,357.6,528.1,306,528.1z"/>
	<path class="st2" d="M306.6,548.2c-62.5,0-125,0-187.4,0c-7.1,0-10.3-2.4-10.4-7.8c-0.2-5.3,2.9-8.5,8.7-8.5c11-0.1,22,0,33,0
		c27.7,0,55.3,0,83-0.1c3,0,4.6,0.1,4.8,4c0.3,4.8,4.3,6.1,8.8,6.1c14.7-0.1,29.3,0,44,0c24.8,0,49.7,0,74.5,0c6.7,0,8.6-1.5,9.5-8
		c0.2-1.5,0.6-2.1,2-2.1c0.8,0,1.7,0,2.5,0c38.3,0,76.6,0,115,0c7.1,0,10.6,3.4,9.8,9.4c-0.5,4-2.7,6.4-6.7,6.9
		c-1.8,0.2-3.7,0.1-5.5,0.1C430.3,548.2,368.4,548.2,306.6,548.2z"/>
	<path class="st2" d="M463,318.1c-27.3,0-54.7,0-82,0c-5.6,0-8.4-2.3-8.4-6.9c0-4.6,2.8-7.1,8.2-7.2c7.3-0.1,14.7,0.1,22-0.1
		c2.6,0,4.2,0.1,4.3,3.6c0.1,3.4,2.3,5.9,5.8,6.6c3.8,0.7,7.6-0.1,9-3.7c2.5-6.7,7.5-6.6,13.2-6.5c21,0.2,42,0.1,63,0
		c3.4,0,5.6,0.8,7,4c1.2,2.8,2.9,5.2,6.2,6.1c5.3,1.4,9.6-1.1,10.4-7c0.4-2.8,1.5-3.1,3.7-3.1c6.5,0.1,13,0,19.5,0
		c5.7,0,8.9,2.7,8.8,7.3c-0.1,4.3-3.3,6.8-8.7,6.8C517.7,318.1,490.4,318.1,463,318.1z"/>
	<path class="st3" d="M306.8,532c19.7,0,39.3,0,59,0c2.3,0,5.6-0.9,5.7,2.9c0.1,3.7-3,3.2-5.5,3.2c-39.5,0-79,0-118.5,0
		c-0.8,0-1.7,0-2.5,0c-2.3,0-3.3-1.3-3.2-3.5c0.1-2.2,1.6-2.6,3.5-2.6c8.8,0,17.7,0,26.5,0C283.4,532,295.1,532,306.8,532z"/>
	<path class="st3" d="M518.1,305.3c0.3,3.2-1,4.7-3,5.4c-2.6,0.9-4.4-0.3-5.8-2.6c-4.7-8.2-9.5-16.4-14.2-24.6
		c-5.5-9.5-10.9-19-16.4-28.5c-1.8-3-2.2-5.7,1.3-7.6c3.1-1.7,5.3-0.1,6.9,2.8c9.8,17.1,19.7,34.3,29.6,51.4
		C517.2,303.1,517.8,304.6,518.1,305.3z"/>
	<path class="st3" d="M451.1,252.9c-0.3,0.6-0.8,1.8-1.4,2.9c-9.8,17-19.6,33.9-29.4,50.9c-1.1,1.8-2,3.9-4.5,4.3
		c-2,0.3-3.5-0.6-4.7-2.2c-1.5-2-0.6-3.7,0.4-5.5c9.2-16,18.4-31.9,27.6-47.9c1.3-2.3,2.6-4.7,4.1-6.8c1.3-1.9,3.4-2.1,5.4-1.2
		C450.6,248.2,451.5,249.9,451.1,252.9z"/>
	<path class="st3" d="M306.4,491c-36.6,0-73.3,0-109.9,0c-8.3,0-11.5-3.1-11.5-11.4c0-3.8-0.1-7.7,0-11.5c0.2-6.2,3.8-9.7,10-10.1
		c1-0.1,2,0,3,0c72.3,0,144.5,0,216.8,0c10.5,0,13.2,2.6,13.2,13.3c0,3,0,6,0,9c0,7.3-3.4,10.7-10.7,10.7
		C380.3,491,343.4,491,306.4,491z"/>
	<path class="st4" d="M251.2,405c-20.5,0-41,0-61.5,0c-1.3,0-2.7,0-4-0.1c-1.1-0.1-1.9-0.7-1.8-1.9c0.1-1,0.7-1.5,1.6-1.6
		c1.3-0.2,2.7-0.2,4-0.2c41.2,0,82.3,0,123.5,0c0.8,0,1.7,0,2.5,0c1.4,0,2.9,0.1,3,1.8c0.1,1.8-1.4,2-2.8,2c-1.2,0-2.3,0-3.5,0
		C291.9,405,271.5,405,251.2,405z"/>
	<path class="st5" d="M273.1,429.8c27.3,0,54.6,0,81.9,0c1.3,0,2.7,0,4,0c1,0,2.1,0.3,2.1,1.6c0,1.3-1,1.6-2,1.7
		c-1.2,0.1-2.3,0-3.5,0c-55.4,0-110.9,0-166.3,0c-0.7,0-1.3,0.1-2,0c-1.4-0.2-3.4,0.5-3.3-1.9c0.1-1.9,1.9-1.5,3.2-1.5
		c9.7,0,19.3,0,29,0C235.1,429.8,254.1,429.8,273.1,429.8z"/>
	<path class="st5" d="M242,372.9c17.8,0,35.6,0,53.4,0c1.3,0,2.7,0,4,0.2c0.5,0.1,1.2,0.8,1.3,1.3c0.2,1-0.5,1.5-1.4,1.7
		c-1.1,0.1-2.3,0.2-3.5,0.2c-35.6,0-71.3,0-106.9,0c-1.2,0-2.3,0-3.5-0.1c-0.9-0.1-1.6-0.6-1.5-1.6c0.1-0.9,0.7-1.5,1.6-1.5
		c1.3-0.1,2.7-0.1,4-0.1C207,372.9,224.5,372.9,242,372.9z"/>
	<path class="st6" d="M432.1,383.7c-0.1,1.5,0.8,3.5-1.3,3.8c-2.1,0.3-2-1.9-2.2-3.3c-2.2-13.4-4.4-26.8-6.5-40.3
		c-0.2-1.3-0.4-3,1.4-3.2c1.6-0.2,2.2,1.3,2.4,2.7C427.9,356.9,430,370.3,432.1,383.7z"/>
	<path class="st6" d="M506.1,344.9c-2.1,13.6-4.2,26.9-6.2,40.2c-0.2,1.4-0.6,2.9-2.4,2.5c-1.7-0.4-1.6-1.9-1.3-3.3
		c2.2-13.3,4.3-26.6,6.5-39.8c0.2-1.4-0.3-4,2.2-3.6C507.2,341.3,505.8,343.7,506.1,344.9z"/>
	<path class="st5" d="M466.1,366.2c0,6.3,0,12.6,0,18.9c0,1.4,0.3,3.5-1.8,3.4c-1.8-0.1-1.4-2-1.4-3.2c0-13,0-25.9,0-38.9
		c0-1.3-0.5-3.5,1.8-3.3c2.1,0.2,1.4,2.3,1.5,3.6C466.2,353.3,466.1,359.7,466.1,366.2z"/>
</g>
</svg>
