<?xml version="1.0" encoding="utf-8"?>
<!-- Generator: Adobe Illustrator 19.0.0, SVG Export Plug-In . SVG Version: 6.00 Build 0)  -->
<svg version="1.1" id="Calque_1" xmlns="http://www.w3.org/2000/svg" xmlns:xlink="http://www.w3.org/1999/xlink" x="0px" y="0px"
	 viewBox="0 0 612 792" style="enable-background:new 0 0 612 792;" xml:space="preserve">
<style type="text/css">
	.st0{fill:#989898;}
	.st1{fill:#EE0000;}
	.st2{fill:#FDFDFD;}
	.st3{fill:#FCFCFC;}
	.st4{fill:#EE0202;}
	.st5{fill:#EE0303;}
</style>
<g>
	<path class="st0" d="M563,395c0,10,0,20,0,30c-1,7.2-0.9,14.5-1.3,21.8c-0.5,10.1-2.7,19.8-5.3,29.4
		c-10.4,38.8-28.6,73.6-55.2,103.6c-39.3,44.3-88.1,72.5-146.5,83.7c-8.7,1.7-17.5,1.6-26.3,2c-2.1,0.1-4.3-0.6-6.4,0.5
		c-10,0-20,0-30,0c-7.2-1-14.5-0.9-21.8-1.3c-10.1-0.6-19.8-2.7-29.4-5.3c-38.8-10.4-73.6-28.6-103.6-55.2
		C92.9,564.8,64.7,516,53.5,457.7c-1.6-8.3-1.6-16.9-2-25.3c-0.1-2.5,0.6-5-0.5-7.4c0-10,0-20,0-30c1-7.2,0.9-14.5,1.3-21.8
		c0.6-10.2,2.8-20.1,5.5-29.9C68.5,304.1,87,269,114.2,238.8c39.2-43.5,87.5-71.2,145.1-82.2c8.3-1.6,16.9-1.6,25.3-2
		c2.5-0.1,5,0.6,7.4-0.5c10,0,20,0,30,0c7,1.1,14.2,0.8,21.3,1.3c18.5,1.3,36,6.4,53.2,12.8C454.6,190,499.4,228,530.7,281.7
		c15.5,26.6,26.2,55,30.5,85.6c1.1,8.2,1.6,16.5,1.4,24.9C562.5,393.1,562.2,394.2,563,395z"/>
	<path class="st1" d="M303.7,349.6c30.6,0.1,61.3,0.1,91.9,0.2c27.5,0,55,0.5,82.4-0.2c14-0.3,29.6,10.7,29.6,29.1
		c0,15.3,0.2,30.6,0,46c-0.2,17.3-12.7,29.3-30,29.3c-11.2,0-22.3,0.1-33.5,0.1c-1.8,1.8-4.1,1.9-6.5,1.9
		c-44.1,0-88.3,0.2-132.4-0.1c-16.7-0.1-30.1-15.4-29.5-29.8c0.6-16.6,0-33.3,0.2-49.9c0.1-12.1,8.7-23.4,20.1-27
		C298.6,348.4,301.3,347.7,303.7,349.6z"/>
	<path class="st2" d="M303.7,349.6c-16,2.2-25.9,13.3-26,29.4c-0.1,15.3-0.1,30.6,0,45.9c0.2,16.7,12.4,28.9,29.2,28.9
		c44,0.1,87.9,0,131.9,0c1.8,0,3.7,0.1,5.5,0.1c-2.5,7.4-5.1,14.8-7.6,22.2c-0.8,2.6-2.5,3-4.9,3c-34-0.1-68-0.1-102-0.1
		c-25.3,0-50.7-0.1-76,0.1c-4.5,0-6.4-1.5-7.7-5.6c-13.6-44-27.3-88-40.9-132c-1.3-4.3-2.5-8.7-4.1-12.8c-1.8-4.5-0.1-5.4,4.1-5.3
		c7.7,0.2,15.3,0,23,0c84.1,0,168.3,0.1,252.4,0.1c10.5,0,10.5,0,6.7,10.2c-0.5,1.4-1,2.8-1.5,4.2c-3.9,10.9-3.9,10.9-15.7,10.9
		c-53.7,0-107.3,0-161,0C307.3,349.1,305.4,348.6,303.7,349.6z"/>
	<path d="M321.1,538.2c-0.1,22.4-18,40.2-40.4,40.2c-22.3,0-40.4-18-40.5-40.2c-0.1-22.4,18.3-40.6,40.8-40.4
		C303.4,497.8,321.1,515.7,321.1,538.2z"/>
	<path d="M402.9,578.3c-22.4,0.1-40.5-17.7-40.8-40c-0.2-22.4,17.9-40.7,40.5-40.7c22.4,0,40.3,17.8,40.4,40.2
		C443.1,560.3,425.3,578.3,402.9,578.3z"/>
	<path d="M197.4,241.6c12.5,0,25,0.1,37.5-0.1c2.9,0,4.4,0.8,5.3,3.8c8.2,24.6,16.5,49.1,24.9,73.6c1.1,3.2,0.9,4.4-2.9,4.2
		c-5.8-0.3-12.8,1.7-17.1-0.9c-4.4-2.6-4.4-10.2-6.3-15.7c-4.6-13.2-9.2-26.3-13.4-39.6c-1.1-3.6-2.8-4.5-6.3-4.5
		c-19.6,0.2-39.3-0.1-58.9,0.2c-4.3,0.1-5.5-1.2-5.1-5.3c0.3-4,0.3-8,0-12c-0.2-3.2,1-3.9,4-3.9
		C171.7,241.7,184.6,241.6,197.4,241.6z"/>
	<path class="st2" d="M448.1,415.4c0,4.9-0.2,9.2,0.1,13.5c0.2,3.1-0.8,4.3-3.9,3.9c-1.5-0.2-3-0.1-4.5,0c-2.3,0.2-2.8-0.9-2.8-2.9
		c0-14.8,0-29.6-0.1-44.4c0-1.9,0.3-3.4,2.6-3c3,0.5,7.8-2.3,7.4,4.7c5.8-5.7,12-7,18.7-3.6c6.1,3.1,9.4,11.8,8,20
		c-1.4,8.3-6,13.7-13,15.3C456.1,419.7,452.2,418.3,448.1,415.4z"/>
	<path class="st2" d="M363.1,386c2.8-1.6,4.6-3.3,7.1-3.9c8.1-1.9,14.7,2.7,15.5,11.8c0.7,7.3,0.2,14.6,0.3,22
		c0,1.7-0.6,2.4-2.3,2.3c-1.7-0.1-3.4-0.2-5,0c-3.1,0.4-4-0.7-3.9-3.8c0.3-5.3,0.2-10.7,0-16c-0.1-3.8-0.8-7.7-5.9-7.5
		c-4.8,0.2-5.9,3.5-5.8,7.6c0.1,5-0.3,10,0.1,15c0.4,4.2-1.3,5.2-5,4.7c-1.1-0.2-2.3-0.1-3.5,0c-1.8,0.1-2.7-0.3-2.7-2.4
		c0.1-15.7,0.1-31.3,0-47c0-2,0.7-2.7,2.6-2.6c1.8,0.1,3.7,0.2,5.5,0c2.6-0.3,3,1,3,3.2C363,374.7,363.1,380,363.1,386z"/>
	<path class="st3" d="M324.8,419.1c-2-0.3-4.3-0.6-6.6-1c-7.3-1.4-7.3-1.6-5.4-8.6c0.6-2.3,1.1-2.6,3.3-1.7
		c3.6,1.4,7.3,2.4,11.2,1.9c2.9-0.3,5.8-1.2,6.3-4.6c0.5-3.2-1.8-4.8-4.3-6c-3.3-1.6-6.8-2.7-10-4.5c-5-2.8-8-7-7.3-13.1
		c0.6-5.9,4-9.7,9.4-11.8c6.3-2.5,12.7-2.1,19.1-0.2c5,1.5,0.9,4.6,1,6.8c0.1,2-0.9,3.1-3.5,2.1c-3.2-1.2-6.7-2-10.3-1
		c-2.2,0.6-4.2,1.6-4.4,4.1c-0.3,2.3,1.3,3.7,3.2,4.6c2.4,1.1,4.8,2.2,7.3,3.2c8.7,3.7,12.1,8.5,11.3,16.1
		c-0.7,6.7-5.9,11.4-14.4,12.9C328.8,418.8,326.9,418.9,324.8,419.1z"/>
	<path class="st2" d="M392.9,400.4c0-11.5,7.5-18.8,19.2-18.7c11.1,0.1,18.1,7.4,18,18.7c-0.1,11.1-7.8,18.7-18.9,18.6
		C400.1,418.9,392.8,411.5,392.9,400.4z"/>
	<path class="st4" d="M448.1,399.2c0-0.3-0.1-1.9,0.3-3.3c0.9-3.4,3.2-5.5,6.8-5.6c4.7-0.1,7.8,4.7,7.4,11.1c-0.4,6-3.7,9.5-8.4,8.9
		C449.8,409.8,448.1,406.9,448.1,399.2z"/>
	<path class="st5" d="M418.7,399.4c0,7.3-3,11.7-7.3,11.6c-4.3-0.1-7.4-4.5-7.2-10.8c0-1.6,0.4-3.3,0.8-4.9c0.9-3.3,2.8-5.7,6.5-5.7
		c3.8,0,5.6,2.5,6.5,5.8C418.4,397,418.6,398.6,418.7,399.4z"/>
</g>
</svg>
