<?xml version="1.0" encoding="utf-8"?>
<!-- Generator: Adobe Illustrator 19.0.0, SVG Export Plug-In . SVG Version: 6.00 Build 0)  -->
<svg version="1.1" id="Calque_1" xmlns="http://www.w3.org/2000/svg" xmlns:xlink="http://www.w3.org/1999/xlink" x="0px" y="0px"
	 viewBox="0 0 612 792" style="enable-background:new 0 0 612 792;" xml:space="preserve">
<style type="text/css">
	.st0{fill:#010101;}
	.st1{fill:#F8A65C;}
	.st2{fill:#FDFDFD;}
	.st3{fill:#6EC391;}
	.st4{fill:#FBD6BB;}
</style>
<g>
	<path class="st0" d="M315,587c-53.2,0-106.3,0-159.5,0c-6.8,0-9.3-2.1-10.1-8.9c-1.6-12.9-9.1-20-22.3-21.3
		c-5.5-0.5-8.2-3.3-8.2-8.7c0-43.2,0-86.3,0-129.5c0-5.2,2.7-7.9,7.8-8.5c14.5-1.8,20.6-7.8,22.8-22.4c0.8-5.2,3.4-7.6,8.7-7.7
		c5.3-0.1,10.7-0.1,16,0c2.4,0.1,3.3-0.6,4-3.1c4-13,12.7-21.7,25.7-25.6c2.5-0.7,3-1.8,3-4.1c-0.1-16.3-0.1-32.7,0-49
		c0-3.3-1.1-3.8-4-3.8c-11.8,0.1-23.7,0.2-35.5,0c-3.2-0.1-4.1,1.1-5,3.9c-5.2,16.3-20.3,26.8-37.2,26.3
		c-16.9-0.5-31.2-12.1-35.5-28.6c-5.1-19.7,6.2-39.7,25.7-45.6c19.5-5.9,40,4.4,46.6,23.7c1.3,3.9,3,4.8,6.9,4.8
		c100.3-0.1,200.6-0.1,300.9,0c4,0,4.9-1.7,5.9-4.8c6.4-18.6,25.2-28.8,44.6-24.4c18.9,4.3,31.1,22.6,28.5,42.7
		c-2.3,18.1-19.4,32.4-38.2,32.1c-16.1-0.3-30.2-10.6-35.2-26.2c-1-3.2-2.3-4.1-5.5-4c-11.7,0.2-23.3,0.2-35,0
		c-3.3-0.1-4.1,1-4.1,4.2c0.2,16,0.1,32,0,48c0,2.7,0.5,4,3.4,4.8c12.9,3.9,21.4,12.6,25.3,25.4c0.9,2.8,2.1,3.2,4.5,3.1
		c5.2-0.1,10.3-0.1,15.5,0c6.1,0.1,8.9,2.6,9.3,8.6c0.9,12,9.4,20.5,21.6,21.5c6.7,0.5,9.2,3.1,9.2,9.8c0,42.3,0,84.7,0,127
		c0,6.9-2.5,9.3-9.7,9.9c-11.2,0.9-19.9,9.3-21.1,20.5c-0.8,7.3-3.3,9.6-10.5,9.6C421.3,587,368.2,587,315,587z"/>
	<path class="st1" d="M314.8,571.7c-49.8,0-99.6,0-149.4,0.1c-3.9,0-5.7-0.9-7-4.9c-4-11.7-12.5-19.5-24-23.7
		c-3.1-1.1-4.3-2.2-4.3-5.8c0.2-36.3,0.2-72.6,0-108.9c0-3.2,0.8-4.5,3.9-5.5c12.4-4,20.8-12.4,24.8-24.7c1.1-3.3,2.5-4.1,5.6-3.9
		c24.8,1.6,49.6,1.8,74.4,0.9c46.5-1.7,92.9-0.9,139.3-0.6c21.6,0.2,43.3,0.4,64.9,0.8c7.8,0.1,15.5-1.6,23.4-1.2
		c2.8,0.2,4,0.9,4.8,3.6c4.1,12.8,12.6,21.3,25.5,25.3c2.8,0.9,3.4,2.2,3.4,4.9c-0.1,36.5-0.1,73,0,109.4c0,3.2-0.8,4.5-4,5.5
		c-12,3.8-20.4,11.8-24.4,23.8c-1.4,4.3-3.5,5-7.4,5C414.4,571.6,364.6,571.7,314.8,571.7z"/>
	<path class="st2" d="M314.9,294.7c30.5,0,61,0.1,91.5-0.1c4.1,0,5.7,0.6,5.6,5.3c-0.4,15.5-0.2,31-0.1,46.5c0,2.7-0.2,4.3-3.5,5.3
		c-12.9,3.9-21.3,12.6-25.2,25.4c-0.8,2.5-1.8,3-4.1,3c-42.6-0.1-85.3-0.1-127.9,0c-2.7,0-3.5-0.9-4.3-3.4
		c-4-12.3-12-20.9-24.5-24.8c-3.3-1-4.2-2.5-4.1-5.9c0.2-15.5,0.2-31,0-46.5c-0.1-3.9,1-5,4.9-4.9
		C253.6,294.7,284.3,294.7,314.9,294.7z"/>
	<path class="st3" d="M122.8,309.3c-13.1-0.1-22.8-9.8-22.8-22.7c0.1-12.4,10.3-22.5,22.7-22.3c12.7,0.2,23.3,10.5,23.3,22.6
		C146,299.4,135.6,309.4,122.8,309.3z"/>
	<path class="st3" d="M507.7,309.3c-13,0.1-23.1-9.8-23.1-22.5c0-12.3,10.2-22.4,22.7-22.5c12.2-0.1,23,10.2,23.3,22.2
		C530.8,299,520.5,309.2,507.7,309.3z"/>
	<path class="st2" d="M231.6,379.9c-14.2,0-28,0-41.8,0c1.9-7.9,10.2-14.5,18.9-15C219.1,364.2,227.8,369.8,231.6,379.9z"/>
	<path class="st2" d="M398.2,379.8c4.2-9.9,13-15.4,22.9-14.9c8.6,0.4,16.7,6.7,19.2,14.9C426.4,379.8,412.5,379.8,398.2,379.8z"/>
	<path d="M315.5,422c48.8,0,97.6,0,146.5,0c8.9,0,11.1,2.2,11.1,11.2c0,33.7,0,67.3,0,101c0,7.9-2.9,10.8-10.9,10.8
		c-98,0-195.9,0-293.9,0c-8.8,0-11.1-2.4-11.1-11.3c0-33.5,0-67,0-100.5c0-8.8,2.4-11.1,11.4-11.1C217.5,422,266.5,422,315.5,422z"
		/>
	<path class="st4" d="M315.5,529.7c-45.7,0-91.3-0.1-137,0.1c-4.3,0-5.9-0.7-5.9-5.6c0.3-27.3,0.2-54.7,0-82c0-4.1,1.3-4.9,5.1-4.9
		c91.7,0.1,183.3,0.1,275,0c3.9,0,5.4,0.7,5.3,5.1c-0.2,27.5-0.2,55,0,82.5c0,4.1-1.2,4.9-5,4.9
		C407.2,529.6,361.3,529.7,315.5,529.7C315.5,529.7,315.5,529.7,315.5,529.7z"/>
</g>
</svg>
