<?xml version="1.0" encoding="utf-8"?>
<!-- Generator: Adobe Illustrator 19.0.0, SVG Export Plug-In . SVG Version: 6.00 Build 0)  -->
<svg version="1.1" id="Calque_1" xmlns="http://www.w3.org/2000/svg" xmlns:xlink="http://www.w3.org/1999/xlink" x="0px" y="0px"
	 viewBox="0 0 612 792" style="enable-background:new 0 0 612 792;" xml:space="preserve">
<style type="text/css">
	.st0{fill:#010100;}
	.st1{fill:#F8A65C;}
	.st2{fill:#FDFDFD;}
	.st3{fill:#6EC291;}
</style>
<g>
	<path class="st0" d="M277.5,497.5c-63.5,0-127,0-190.5,0c-23.9,0-39.9-15.9-39.9-39.6c-0.1-32.2-0.1-64.3,0-96.5
		c0-22.4,11.4-36,33.5-40.2c2-0.4,3.7-1.2,5.4-2.4c51-34.8,102-69.6,153-104.2c2.8-1.9,3-3.5,2.1-6.4c-4.7-15.6,1-32.2,14.1-41.6
		c13.2-9.4,30.7-9.5,44-0.1c13,9.2,19,25.5,14.6,41c-1,3.4-0.3,4.9,2.5,6.8c50.9,34.6,101.8,69.3,152.6,104c2.2,1.5,4.5,2.7,7.2,3.2
		c18.9,3.4,31.5,18.1,31.6,37.3c0.2,30.8,0.1,61.7,0,92.5c0,5.5,0.5,11-0.8,16.4c-4.2,17.9-19,29.8-37.5,29.8
		C405.5,497.5,341.5,497.5,277.5,497.5z"/>
	<path class="st1" d="M277.5,336.4c64.3,0,128.7,0,193,0c11.5,0,21.7,8,22.1,19.5c1.1,35.3,1,70.6,0.1,105.9
		c-0.3,12.5-10.8,20.3-24.7,20.3c-41.3,0.1-82.7,0-124,0c-85.2,0-170.3,0-255.5,0c-17.7,0-26.6-9-26.6-26.8
		c0-31.2,0.4-62.3-0.1-93.5c-0.3-15.6,11.2-25.8,25.8-25.7C150.8,336.8,214.2,336.4,277.5,336.4z"/>
	<path class="st2" d="M444.4,320.5c-111.5,0-222.1,0-332.8,0c-0.3-1.7,1.2-1.8,2-2.3c44.7-30.5,89.4-60.9,134-91.4
		c2.5-1.7,3.9-1.5,6.3,0.4c14.2,11.3,33.3,11.2,47.7-0.3c2-1.6,3.2-1.9,5.4-0.4c45.2,30.9,90.4,61.7,135.7,92.5
		C443,319.2,443.3,319.5,444.4,320.5z"/>
	<path class="st3" d="M277.7,219.6c-12.9,0-23.2-10.1-23.2-22.4c0.1-12.2,10.4-22.2,22.9-22.3c12.7-0.1,23.1,10.2,23.1,22.7
		C300.5,209.8,290.3,219.6,277.7,219.6z"/>
</g>
</svg>
