<?xml version="1.0" encoding="utf-8"?>
<!-- Generator: Adobe Illustrator 19.0.0, SVG Export Plug-In . SVG Version: 6.00 Build 0)  -->
<svg version="1.1" id="Calque_1" xmlns="http://www.w3.org/2000/svg" xmlns:xlink="http://www.w3.org/1999/xlink" x="0px" y="0px"
	 viewBox="0 0 612 792" style="enable-background:new 0 0 612 792;" xml:space="preserve">
<style type="text/css">
	.st0{fill:#5CCCED;}
	.st1{fill:#13B6E4;}
</style>
<g>
	<path class="st0" d="M51,361c0.3-0.2,0.5-0.2,0.9-0.2c0,10.8,0,21.6,0,32.4c-0.3,0.1-0.6,0-0.9-0.2C51,382.3,51,371.7,51,361z"/>
	<path class="st1" d="M562.5,352.1c-0.6-9.4-0.5-19-2.4-28.3c-4.2-20.5-10.8-40.2-20-59c-15-30.5-34.8-57.4-60.3-80
		c-22.7-20.2-47.9-36.5-76.3-47.6c-17.1-6.7-34.4-12.6-52.8-14.5c-8.5-0.9-17.1-0.8-25.7-1.8c-12.7,0-25.3,0-38,0
		c-0.7,0.6-1.5,0.5-2.4,0.5c-16.8,0.4-33.4,2.3-49.6,7.2c-37.2,11.2-70.7,29.2-99.6,55.3c-21,18.9-39.1,40.4-52.9,65.3
		c-19.6,35.2-32.2,72.2-31,113.1c0,9.8,0,19.6,0,29.4c0.1,12.8,0.4,25.6,2.8,38.2c5.3,27.2,15.6,52.5,29.3,76.6
		c14,24.6,32.1,45.8,53,64.5c23.8,21.3,51,37.3,80.9,48.3c15.3,5.7,30.9,10.4,47.3,12c7.4,0.7,14.9,0.6,22.2,1.7c12.7,0,25.3,0,38,0
		c1.7-1,3.6-0.4,5.4-0.5c10.3-0.7,20.6-0.6,30.7-2.8c25.1-5.4,48.9-14.1,71.3-26.7c29.8-16.7,55.6-38.2,76.8-65
		c17.8-22.5,31.9-47.1,41.4-74.2c4.8-13.8,9.1-27.8,10.5-42.5c0.7-7.7,0.7-15.5,1.8-23.2c0-14,0-28,0-42
		C562.1,354.8,562.6,353.4,562.5,352.1z M215.3,478.8c-13.3,11.4-29.1,17.1-46.5,18.7c-3.2,0.3-4.9-0.5-5.3-4
		c-0.6-4.8-1.6-9.5-2.8-14.2c-0.7-2.7,0-3.4,2.7-3.6c8.2-0.6,16.1-2.3,23.7-5.7c5.2-2.3,9.9-5.5,13.3-10.2
		c4.2-5.7,4.9-11.8,1.7-18.3c-3.1-6.3-8.2-9.4-15.2-9.6c-12.7-0.3-23.6,5.3-34.1,11.2c-4,2.3-5.5,2.4-6.9-2.5
		c-5.2-17.5-10.7-34.9-16.4-52.3c-1.1-3.4-0.6-4.9,2.7-6.4c18-8.1,36-16.4,53.9-24.8c3-1.4,4.3-1,5.5,2.1c1.8,4.6,3.8,9.2,6.2,13.6
		c2,3.7,0.7,4.9-2.7,6.4c-11.7,5.1-23.3,10.7-35,15.9c-3,1.3-4.1,2.7-2.8,6c1.7,4.3,1.6,10.6,4.6,12.7c2.8,2,7.7-2.9,11.8-4.3
		c9.3-3.3,18.7-5.1,28.4-3.2c17.5,3.4,29.7,19.4,29.7,42.8C231.9,458.9,225.6,470,215.3,478.8z M327.9,407.4
		c-1.7,30.7-37.4,48.2-63.7,32c-12.5-7.7-20.6-19.2-27.1-31.9c-6.6-12.9-11.1-26.3-11.2-34.2c0-33.3,19.3-53,44.5-52.3
		c9,0.3,17.2,3.2,23.8,9.1C317.1,350.8,329.7,376.4,327.9,407.4z M383.1,335.4c-6.3,24.1-36.9,32.3-54.6,14.8
		c-9-8.9-13.4-20-13.7-29c0.1-19,8.9-30.9,23.8-35.8c13.7-4.5,27-0.1,35.9,12.4C382.7,309,386.8,321.5,383.1,335.4z M409.6,299.3
		c-2.2,28-4.4,56-6.6,84.1c-0.1,0.8-0.1,1.7-0.1,2.5c-0.8,11.1-2.9,13.5-14.7,15.9c0.7-9.8,1.4-19.6,2.1-29.4
		c2.9-36.6,5.8-73.3,8.5-110c0.3-4,1.5-6.1,5-7.3c2.9-1,5.7-2.5,9.5-4.1C412,267.8,410.9,283.6,409.6,299.3z M485.9,341.5
		c-1.9,15.7-16.6,27.7-33.1,27.6c-15.8-0.1-30-12.8-34.6-31c-5.7-22.2,6.3-40.9,28.7-44.5c8.5-1.4,16.4,0.9,22.8,6.5
		C482.2,311,487.9,324.9,485.9,341.5z"/>
	<path class="st1" d="M301.9,407.4c0.2,5.8-1.1,11-6.9,13.8c-5.9,2.9-11,0.8-15.6-3c-7.8-6.4-12.3-15.1-16.6-24
		c-4.8-9.9-9-20-10.3-31c-0.4-3.4-0.2-6.7,0.7-9.9c2.2-7.8,10.1-11.2,17.4-7.6c2.9,1.4,5.4,3.4,7.4,5.8
		c12.4,15.3,20.2,32.7,23.9,51.9C302.1,404.7,301.9,406.1,301.9,407.4z"/>
	<path class="st1" d="M467,339.5c0.1,6-1.3,9.8-5.6,11.8c-4.2,2-8.3,1.3-11.6-1.7c-8.3-7.5-12.5-17-13-28.1
		c-0.2-4.7,1.6-8.4,6.1-10.4c4.4-1.9,8.3-0.6,11.4,2.5C461.9,321.1,465.6,330.5,467,339.5z"/>
	<path class="st1" d="M334.6,313.3c-0.1-4.9,0.9-9.3,5.9-11.6c4.4-2,8.9-0.9,12.9,3.5c6.3,6.9,10,15.3,11.4,24.5
		c0.9,5.8-1.4,10.2-5.7,12.2c-4.9,2.3-9,0.5-12.7-2.9C340.3,333.3,334.9,321.6,334.6,313.3z"/>
</g>
</svg>
