<?xml version="1.0" encoding="utf-8"?>
<!-- Generator: Adobe Illustrator 19.0.0, SVG Export Plug-In . SVG Version: 6.00 Build 0)  -->
<svg version="1.1" id="Calque_1" xmlns="http://www.w3.org/2000/svg" xmlns:xlink="http://www.w3.org/1999/xlink" x="0px" y="0px"
	 viewBox="0 0 612 792" style="enable-background:new 0 0 612 792;" xml:space="preserve">
<style type="text/css">
	.st0{fill:#1072B7;}
	.st1{fill:#FED717;}
	.st2{fill:#FED718;}
</style>
<g>
	<path class="st0" d="M306.2,238c51.7,0,103.3,0,155-0.1c3.8,0,4.9,0.9,4.9,4.9c-0.1,118.5-0.1,237-0.1,355.5c0,1.3,0,2.6,0,4.5
		c-13.3-4.4-26.2-8.8-39.2-13c-7.7-2.6-15.5-7-23.2-7c-7.6,0-15.1,4.5-22.7,7.1c-3.2,1.1-6.4,1.9-9.4,3.2c-17.9,7.6-36.5,9.5-56,9.3
		c-55.2-0.7-110.3-0.2-165.5-0.3c-2,0-4,0.5-6.1-0.6c1-2.4,3.1-1.4,4.6-1.4c21.7-0.1,43.3,0,65,0c41.8,0,83.7,0,125.5,0.1
		c3.8,0,5-0.8,5-4.8c-0.1-116.8-0.1-233.6,0-350.5c0-4-1.1-5-4.9-4.9c-11,0.3-22,0.1-33,0.1C305.5,239.3,305.5,238.7,306.2,238z"/>
	<path class="st1" d="M306.2,238c0,0.7,0,1.3,0,2c-0.1,2.8,0,5.7-0.2,8.5c-0.4,6.5-0.5,11.6,7.8,14.6c8.9,3.1,12.1,14.1,9.1,23.3
		c-2.9,8.7-11.8,14.5-21,13.6c-9.4-1-17-8.6-17.9-18c-0.9-9.2,4.7-18.3,13.7-20.8c3.7-1,4.5-2.7,4.4-6.2c-0.3-5-0.2-10-0.2-15
		c-0.5-0.7-0.9-1.4-1.1-2.3c-0.4-19.3,0-38.6-0.2-58c-0.3-31.2-25.9-56.5-57.1-56.3c-30.4,0.2-55.7,25.4-56.1,55.8
		c-0.2,19.5,0.2,39-0.2,58.5c-0.1,0.9-0.5,1.6-1.1,2.3c-0.1,2.8,0,5.7-0.2,8.5c-0.4,6.5-0.5,11.6,7.8,14.6
		c8.9,3.1,12.1,14.1,9.1,23.3c-2.9,8.7-11.8,14.5-21,13.6c-9.4-1-17-8.6-17.9-18c-0.9-9.2,4.7-18.3,13.7-20.8c3.7-1,4.5-2.7,4.4-6.2
		c-0.3-5-0.2-10-0.2-15c-0.4-0.7-0.4-1.3,0-2c0.1-19.2,0.1-38.3,0.2-57.5c0.2-35.9,29.2-63.8,65-62.5c31.7,1.1,58.4,28.4,58.9,60.5
		C306.3,198.4,306.1,218.2,306.2,238z"/>
	<path class="st2" d="M426,195.8c0,6.8,0.1,13.7,0,20.5c0,1.4,0.9,3.6-1.9,3.7c-2.9,0.1-2-2.1-2-3.6c-0.1-11.8,0-23.6,0-35.5
		c0-25.5-15.2-47.3-38.7-55.7c-23.1-8.3-48.6-0.9-64.7,18.8c-0.7,0.9-1.4,2-2.2,2.6c-1,0.8-1.9-0.2-2.6-0.8c-1.3-1.5,0.2-2.4,1-3.4
		c9.7-12.7,22.4-20.9,38.2-23.4c39.8-6.3,73,22.3,73,62.7C426,186.5,426,191.1,426,195.8z"/>
	<path class="st0" d="M301.8,238c0,0.7,0,1.3,0,2c-38.6,0-77.1,0-115.7,0c0-0.7,0-1.3,0-2c1.9-1.8,4.3-1.6,6.6-1.6
		c34.2,0,68.3,0,102.5,0C297.5,236.4,300,236.2,301.8,238z"/>
	<path class="st0" d="M181.8,238c0,0.7,0,1.3,0,2c-12.6,0-25.1,0-37.7,0c0-0.7,0-1.3,0-2C156.7,238,169.3,238,181.8,238z"/>
</g>
</svg>
