<?xml version="1.0" encoding="utf-8"?>
<!-- Generator: Adobe Illustrator 19.0.0, SVG Export Plug-In . SVG Version: 6.00 Build 0)  -->
<svg version="1.1" id="Calque_1" xmlns="http://www.w3.org/2000/svg" xmlns:xlink="http://www.w3.org/1999/xlink" x="0px" y="0px"
	 viewBox="0 0 612 792" style="enable-background:new 0 0 612 792;" xml:space="preserve">
<style type="text/css">
	.st0{fill:#FED717;}
	.st1{fill:#1072B7;}
	.st2{fill:#74ADD5;}
</style>
<g>
	<path class="st0" d="M254.2,251c51.5,0,103,0.1,154.5-0.1c4.4,0,5.5,1.1,5.4,5.5c-0.1,118-0.1,236-0.1,354c0,1.6,0,3.2,0,5.4
		c-14.4-4.8-28.6-8.5-42-14.3c-13.7-5.9-26.4-6.4-39.9,0.1c-6.7,3.2-14.2,4.6-21.2,7.3c-12.3,4.8-24.8,6.3-38,6.2
		c-58.3-0.4-116.7-0.2-175-0.2c-1.9,0-3.9,0.7-6-0.9c1.8-1.7,3.9-1,5.6-1c62.8,0,125.7-0.1,188.5,0.1c5.2,0,6.1-1.4,6.1-6.3
		c-0.1-116-0.1-232,0-348c0-4.8-1.1-6.2-6-6c-10.6,0.4-21.3,0.1-32,0.1C253.5,252.3,253.5,251.7,254.2,251z"/>
	<path class="st1" d="M254.2,251c0,0.7,0,1.3,0,2c0,6.7,0,13.4,0,20.1c2.7,5.9,1.4,12,0.9,18c-0.1,1.6-1.3,2.6-3.1,2.6
		c-1.8,0-3-1.1-3.1-2.6c-0.5-6-1.7-12.2,0.9-18c0-6.7,0-13.4,0-20.1c-0.5-0.7-0.9-1.4-1.1-2.3c-0.4-19.3,0-38.6-0.2-58
		c-0.3-31.2-25.9-56.5-57.1-56.3c-30.4,0.2-55.7,25.4-56.1,55.8c-0.2,19.5,0.2,39-0.2,58.5c-0.1,0.9-0.5,1.6-1.1,2.3
		c0,6.7,0,13.4,0,20.1c2.7,5.9,1.4,12,0.9,18c-0.1,1.6-1.3,2.6-3.1,2.6c-1.8,0-3-1.1-3.1-2.6c-0.5-6-1.7-12.2,0.9-18
		c0-6.7,0-13.4,0-20.1c-0.4-0.7-0.4-1.3,0-2c0.1-19.5,0-39,0.2-58.5c0.4-35,29.5-62.6,64.5-61.5c31.7,1,58.6,27.8,59.4,59.5
		C254.3,210.7,254.1,230.8,254.2,251z"/>
	<path class="st0" d="M129.8,273.1c0.1,5.6,0.1,11.2,0.2,16.9c0,1.4-0.5,3.1,2,3.1c2.5,0,2-1.7,2-3.1c0.1-5.6,0.1-11.2,0.2-16.9
		c11,2.4,17.5,9.3,17.8,19.1c0.3,9.2-5.5,17.3-14.4,19.9c-10.7,3.1-21.7-2.9-24.8-13.5c-3.1-10.8,2.8-21.6,13.6-24.7
		C127.5,273.5,128.7,273.3,129.8,273.1z"/>
	<path class="st0" d="M249.8,273.1c0.1,5.6,0.1,11.2,0.2,16.9c0,1.4-0.5,3.1,2,3.1c2.5,0,2-1.7,2-3.1c0.1-5.6,0.1-11.2,0.2-16.9
		c11,2.4,17.5,9.3,17.8,19.1c0.3,9.2-5.5,17.3-14.4,19.9c-10.7,3.1-21.7-2.9-24.8-13.5c-3.1-10.8,2.8-21.6,13.6-24.7
		C247.5,273.5,248.7,273.3,249.8,273.1z"/>
	<path class="st2" d="M374.2,208.5c0,7,0,14,0,21c0,1.5,0.8,3.6-2,3.7c-3.1,0.1-2.3-2.2-2.3-3.8c-0.1-12,0-24,0-36
		c-0.1-32.7-26.6-58.8-59.1-58c-17.9,0.4-32.7,8.1-44.1,22.1c-1.1,1.3-1.7,4.2-4.5,2.2c-2.7-2.1-0.1-3.7,0.9-4.9
		c16.6-19.5,37.2-27.7,62.6-21.9c29,6.6,48.4,31.1,48.5,60.8C374.2,198.5,374.2,203.5,374.2,208.5z"/>
	<path class="st0" d="M134.2,253c0-0.7,0-1.3,0-2c1.9-1.8,4.3-1.6,6.6-1.6c34.2,0,68.3,0,102.5,0c2.3,0,4.7-0.2,6.6,1.6
		c0,0.7,0,1.3,0,2C211.3,253,172.7,253,134.2,253z"/>
	<path class="st0" d="M129.8,251c0,0.7,0,1.3,0,2c-12.5,0-25.1,0-37.6,0c0-0.7,0-1.3,0-2C104.8,251,117.3,251,129.8,251z"/>
</g>
</svg>
