<?xml version="1.0" encoding="utf-8"?>
<!-- Generator: Adobe Illustrator 19.0.0, SVG Export Plug-In . SVG Version: 6.00 Build 0)  -->
<svg version="1.1" id="Calque_1" xmlns="http://www.w3.org/2000/svg" xmlns:xlink="http://www.w3.org/1999/xlink" x="0px" y="0px"
	 viewBox="0 0 612 792" style="enable-background:new 0 0 612 792;" xml:space="preserve">
<style type="text/css">
	.st0{fill:#262626;}
</style>
<g>
	<path class="st0" d="M580.7,230c-7.4-2.1-14.9-1.7-22.3-0.5c-27,4.4-52.2,14.1-76.7,25.9c-4.5,2.2-8.4,2.5-13.2,1.5
		c-43-8.2-86-16-129-24.2c-8.5-1.6-15.9-0.1-22.7,4.6c-65.6,45.1-131.1,90.2-196.6,135.3c-3.5,2.4-6.6,5-9.1,8.4
		c-9.5,12.7-9.5,28.7,0.2,42.8c18.1,26.5,36.4,53,54.5,79.4c15.9,23.2,31.9,46.3,47.7,69.6c7.7,11.3,18,18,31.9,18.3
		c7.1,0.2,13.5-1.9,19.3-5.8c5.8-3.9,11.5-7.9,17.3-11.8c59.8-41.1,119.6-82.2,179.5-123.1c7.1-4.8,12.1-9.9,13.6-18.9
		c6.2-36.1,13.2-72,19.9-108c0.4-2.3,1.4-3.7,3.7-4.6c12.1-5,23.9-10.9,35.4-17.3c17.3-9.7,34.1-20.1,48.2-34.4
		c3.9-3.9,7.6-8,9.7-13.2C596.9,242.9,592.4,233.3,580.7,230z M199.6,465.7c-13-7.7-22.8-18.2-26-34.2c-2.7-13.7,9.4-30.4,24.3-32.5
		c8.4-1.2,16.3,0.3,23.1,5.4c9.6,7.2,17.4,15.9,21.1,27.6c0.9,2.8,0.9,5.6,1,8.4C242.8,463.4,219.3,477.4,199.6,465.7z M291.4,510.9
		c-2.1,1.6-3.9,3.6-6.3,5.8c-3.4-12.2-6.7-23.9-9.9-35.5c-11.1-40.5-22.1-81.1-33.4-121.5c-1.3-4.8-1.1-8.2,3.2-11
		c1.9-1.3,3-3.5,5.6-4.4c8,28.7,15.9,57.3,23.8,85.9c6.5,23.5,12.9,47.1,19.8,70.5C295.5,505.2,295,508.1,291.4,510.9z M362.4,432.3
		c0.1,20.1-19.7,35-38.6,27.9c-16.9-6.3-28.3-18.8-31.5-37c-3.2-18.1,13.8-33.6,32.2-32C341.7,392.8,363.3,416.9,362.4,432.3z"/>
	<path class="st0" d="M230,442.5c0,10.9-10.2,17.3-19.9,12.4c-10.6-5.4-18.2-14.2-22.6-25c-3.9-9.5,4.9-19.3,15-17.6
		c3.3,0.6,6.4,1.8,9.1,3.9c6.5,5.3,12.1,11.5,16.2,18.8C229.2,437.5,230.3,440.1,230,442.5z"/>
	<path class="st0" d="M318.7,404.3c0.4,0.1,1.3,0.3,2.1,0.3c9.4-0.5,27.8,21.4,28.2,29.7c0.5,10.4-9.9,17.9-20,13
		c-11.3-5.5-19.2-14.9-23.1-26.8C303.3,412.7,310.1,404.5,318.7,404.3z"/>
</g>
</svg>
