<?xml version="1.0" encoding="utf-8"?>
<!-- Generator: Adobe Illustrator 19.0.0, SVG Export Plug-In . SVG Version: 6.00 Build 0)  -->
<svg version="1.1" id="Calque_1" xmlns="http://www.w3.org/2000/svg" xmlns:xlink="http://www.w3.org/1999/xlink" x="0px" y="0px"
	 viewBox="0 0 612 792" style="enable-background:new 0 0 612 792;" xml:space="preserve">
<style type="text/css">
	.st0{fill:#303030;}
	.st1{fill:#FDC501;}
	.st2{fill:#E39100;}
</style>
<g>
	<path class="st0" d="M331.1,269.3c0,4.3,0,8.7,0,13c-0.1,10-7.2,17.7-17.2,18.7c-6.5,0.6-8.4,2.6-8.6,9.1c-0.1,3.7,0.2,7.3-0.1,11
		c-0.2,3.2,1.1,3.9,4,3.8c8.7-0.2,17.3-0.1,26,0c8,0.1,14.5,5.6,13.4,13.4c-1.6,12.4,3.7,19.8,13.1,26.8c12,8.9,23,19.2,34.4,28.9
		c10.4,8.8,21.9,14.2,36,15.3C456,411,491,431,498.5,463.5c1.1,4.8,2.4,9.7,0.8,14.8c-2.2,7-6.8,10.4-14.1,10.1
		c-9-0.4-15.4-4.8-19.1-12.9c-2.9-6.4-6.6-12.3-11.2-17.6c-9.5-10.7-21.2-16.4-35.5-18c-15.4-1.8-28.7-9.1-40.8-18.5
		c-15-11.6-29.9-23.4-44.8-35.2c-3-2.4-6.1-3.5-10-3.5c-14.2,0.2-28.3,0.1-42.5,0c-3,0-5.4,0.6-7.8,2.5
		c-14.6,11.6-29.3,23.1-43.9,34.6c-11.8,9.3-24.7,16.2-39.4,19.6c-4.5,1-9.2,0.9-13.8,2.2c-17.4,5.1-28.5,17.1-36,33
		c-3.6,7.7-9,12.7-17.7,13.6c-10.7,1.1-17.4-5.1-16.6-15.9c0.9-13.4,6.2-25.2,15.3-35c15.3-16.6,34-26.9,57-28.3
		c11.5-0.7,21.3-6.3,30-13.6c14.3-12,28.4-24.1,42.7-36.1c2-1.6,2.9-3.3,2.8-5.9c-0.2-4.8-0.1-9.7-0.1-14.5
		c0.1-8.4,5.3-13.7,13.7-13.8c8.5-0.1,17-0.1,25.5,0.1c3,0.1,4.2-0.6,4-3.8c-0.3-3.6-0.1-7.3,0-11c0.1-9.7,6.2-16.6,16-17.8
		c7.5-0.9,9.6-3.1,9.7-10.5c0.1-8.5,0.1-17,0-25.5c-0.1-7.3-3.2-10.2-10.5-10.2c-5.5,0-11-0.1-16.5,0c-7.2,0.1-10.2,3.1-10.3,10.4
		c-0.1,4,0,8,0,12c0,3-1.3,4.9-4.4,4.8c-2.8-0.1-4-2-4-4.7c0-4.5-0.1-9,0-13.5c0.3-9.2,7.4-16.9,16.6-17.4c7-0.4,14-0.3,21,0
		c8.8,0.4,16.2,8.3,16.5,17.1C331.1,259.6,331,264.5,331.1,269.3C331,269.3,331,269.3,331.1,269.3z"/>
	<path class="st1" d="M301,374c-11,0-22-0.1-32.9,0.1c-4.3,0.1-6-1.5-5.9-5.8c0.2-9.8,0.1-19.6,0-29.4c-0.1-4.1,1.7-5.7,5.7-5.6
		c22.3,0.1,44.6,0.1,66.8,0c4,0,5.7,1.5,5.6,5.6c-0.2,10-0.1,20,0,29.9c0,3.8-1.3,5.4-5.3,5.3C323.6,373.9,312.3,374,301,374z"/>
	<path class="st2" d="M349.5,365.7c10.2,8.6,19.9,16.9,29.7,25.1c5.5,4.6,10.8,9.4,16.5,13.7c10.7,8.2,22.8,12.6,36.4,13.4
		c26.6,1.6,52.5,23.4,58.3,48.6c0.3,1.3,0.6,2.6,0.6,3.9c0.1,3.3,1.2,7-2.7,8.8c-3.8,1.8-7.1,0.1-10.3-2c-2.6-1.7-3.7-4.6-5.1-7.2
		c-9.4-18.7-22.7-33.9-44.1-36.9c-22.8-3.2-40.8-14.1-57.7-28.3c-8.7-7.3-17.8-14-26.7-21c-0.9-0.7-2.9-1.2-1.8-2.8
		c1.3-1.9,2.6-0.2,3.7,0.6c4.2,3.3,8.4,6.5,12.6,9.8c2.4,1.9,4.9,2.4,6.9-0.4c2-2.7,0.4-4.7-1.7-6.4c-3.6-2.9-7.2-6-11-8.6
		C349.5,373.6,347.9,370.7,349.5,365.7z"/>
	<path class="st2" d="M253.4,368.2c1,3.1,0.1,4.7-1.7,6.3c-9.8,8.3-19.5,16.6-29.3,25c-2.4,2-4.9,4.2-2.2,7.5
		c2.7,3.3,5.3,1.2,7.7-0.9c9.1-7.8,18.3-15.6,27.2-23.5c2.7-2.4,4.9-3,7.8,0.1c-12.7,10-25.4,19.8-38,29.9
		c-9.5,7.6-19.8,13.5-31.3,17.2c-5.1,1.6-10.5,1.6-15.7,2.8c-21.6,4.7-35.5,18.6-44.9,37.8c-2.1,4.2-4.4,7.8-9.2,9.1
		c-5.9,1.7-9.2-0.6-8.9-6.8c0.9-15.4,8.3-27.6,19.9-37.3c12.2-10.3,26.1-16.9,42.5-17.8c16.2-0.9,29.2-9.2,41.1-19.5
		C229.8,388.1,241.4,378.4,253.4,368.2z"/>
</g>
</svg>
