<?xml version="1.0" encoding="utf-8"?>
<!-- Generator: Adobe Illustrator 19.0.0, SVG Export Plug-In . SVG Version: 6.00 Build 0)  -->
<svg version="1.1" id="Calque_1" xmlns="http://www.w3.org/2000/svg" xmlns:xlink="http://www.w3.org/1999/xlink" x="0px" y="0px"
	 viewBox="0 0 612 792" style="enable-background:new 0 0 612 792;" xml:space="preserve">
<style type="text/css">
	.st0{fill:#34495E;}
	.st1{fill:#F0C30F;}
	.st2{fill:#E64C3C;}
</style>
<g>
	<path class="st0" d="M331,540.3c-58.5,0-117-0.4-175.5,0.2c-19,0.2-29.7-13.1-29.6-29.8c0.5-70,0.2-140,0.2-210
		c0-19,10-29.1,28.9-29.1c117.5,0,235,0,352.5,0c18.2,0,28.4,10.3,28.4,28.5c0,70.5,0,141,0,211.5c0,18.2-10.2,28.6-28.4,28.6
		C448.7,540.3,389.8,540.3,331,540.3z"/>
	<path class="st1" d="M330.9,332.2c13.4-8.6,27.7-14.1,43.7-15.5c42.6-3.5,81.2,22.9,93.5,64.1c15.5,52.3-19.9,107-74,113.9
		c-21.2,2.7-41.1-1.5-59.3-12.8c-1.3-0.8-2.6-1.5-3.9-2.3c-1.7-0.3-3.6-0.8-3.8-2.7c-0.3-2.3,2.1-2.2,3.4-2.8
		c3.3-1.5,5.4-3.4,8.4-7.8c-1.6-1.6-3.7-0.9-5.5-0.9c-5-0.1-10,0.1-15-0.1c-5.5-0.2-12.7-7-13.5-12.4c-0.3-1.9,0.6-2.8,2.3-3.2
		c1.8-0.4,3.6-0.4,5.5-0.4c11.5,0,23-0.2,34.5,0.1c4.9,0.1,7.7-2.2,9.7-6.3c1.3-2.5,0.9-3.8-2.1-3.8c-4,0-8,0-12,0
		c-12.8,0-25.7,0.1-38.5,0c-6.5,0-11.2-5.7-10.3-12.2c0.3-1.9,1.3-3,3.1-3.4c2-0.4,4-0.4,6-0.4c18.5,0,37,0,55.5,0
		c2.1,0,4.6,0.5,5.9-1.8c1.2-2,2.1-4.4,1.1-6.7c-0.9-2-3.2-1.5-5-1.5c-20.5-0.1-41,0-61.5-0.1c-6.6,0-7.7-1.2-7.7-7.5
		c0-6.2,1.2-7.4,7.8-7.4c20.7-0.1,41.3,0,62-0.1c5.4,0,6.7-2.1,4.9-7.1c-1-3-3.4-2.8-5.7-2.8c-8.8-0.1-17.7,0-26.5,0
		c-11,0-22,0.1-33,0c-6.7-0.1-8-1.9-6.1-8.3c2.1-6.9,3-7.6,10.2-7.6c16,0,32,0,48,0c1.6,0,3.6,0.7,4.5-1.2c0.7-1.5-0.7-2.8-1.4-4.1
		c-1.8-3.5-4.8-4.7-8.6-4.7c-11.5,0.1-23,0-34.5,0c-1.8,0-3.7,0-5.5-0.3c-2.6-0.5-3.4-2.1-2.3-4.3c3.2-6.4,7.2-11.9,15.3-11.4
		c6.4,0.4,12.9,0.3,20.7-0.1c-3.5-3.9-6-7.4-10.6-8.7c-1.4-0.4-3.5-0.4-3.5-2.2C327,333.1,329.1,332.6,330.9,332.2z"/>
	<path class="st2" d="M330.9,332.2c-1.1,1-2.1,2-3.3,3.1c6.8,1.1,9,2.6,17.1,12.3c-3.2,1.1-6.3,0.5-9.3,0.6c-4.5,0.1-9,0-13.5,0
		c-9.1,0-13.1,3.1-16.3,12.9c14.1,0,28,0,42,0c5.9,0,12.2,5.4,13,11.1c0.4,2.8-1.8,1.8-3,1.8c-9,0.1-18,0.1-27,0.1
		c-8.5,0-17,0.4-25.5-0.1c-5.4-0.4-7.7,1.5-8.9,6.5c-1.7,6.7-2,6.6,4.9,6.6c20.3,0,40.6,0.1,61-0.1c4.4,0,5.8,1.6,6,5.7
		c0.5,7.3,0.6,7.3-7,7.3c-21,0-42,0.2-63-0.1c-5.5-0.1-5.3,2.6-5.3,6.4c-0.1,4,0.3,6.3,5.5,6.2c21.7-0.3,43.3,0,65-0.2
		c4.7,0,5.3,1.8,4.3,5.7c-1.8,7.3-1.7,7.3-9.4,7.3c-19.3,0-38.6,0-58,0c-5.9,0-5.9,0-4.3,5.4c2.3,7.5,2.3,7.5,10,7.5
		c16.8,0,33.6,0,50.5,0c5.1,0,4.9,0.1,2.7,4.9c-2.9,6.5-7.2,8.6-14.4,8.3c-12.9-0.7-25.9-0.2-39-0.2c2.7,9.5,7.2,12.9,16.6,12.9
		c6.6,0,13.3,0,20,0c-2.3,6.4-9,12.1-14.3,12.4c-0.1,2.1,2.5,2,2.9,3.5c-15.5,10.4-32.6,16-51.2,15.9c-21.7-0.1-41.2-7.1-57.8-21.3
		c-21.6-18.6-32.2-42.4-31.8-70.9c0.6-41.7,32.9-78.8,73.7-85.6C288.3,313.7,310.4,318.9,330.9,332.2z"/>
</g>
</svg>
