<?xml version="1.0" encoding="utf-8"?>
<!-- Generator: Adobe Illustrator 19.0.0, SVG Export Plug-In . SVG Version: 6.00 Build 0)  -->
<svg version="1.1" id="Calque_1" xmlns="http://www.w3.org/2000/svg" xmlns:xlink="http://www.w3.org/1999/xlink" x="0px" y="0px"
	 viewBox="0 0 612 792" style="enable-background:new 0 0 612 792;" xml:space="preserve">
<style type="text/css">
	.st0{fill:#1C4A99;}
	.st1{fill:#B6D1F5;}
	.st2{fill:#649AD9;}
	.st3{fill:#6499D9;}
	.st4{fill:#1B4A99;}
	.st5{fill:#FDFDFD;}
	.st6{fill:#659ADA;}
</style>
<g>
	<path class="st0" d="M486.9,440c0-16.6-10.6-27.1-27.2-27.1c-14,0-28-0.2-42,0.1c-3.8,0.1-4.8-0.9-4.7-4.7
		c0.2-9.5-2.1-11.8-11.7-11.6c-4.6,0.1-8.1-1.1-11.6-4.2c-25-22.5-50.2-44.9-75.4-67.1c-3.2-2.8-4.7-5-3.2-9.5
		c2.1-6.2-1.4-13.2-7.5-17c-5.6-3.5-12.4-3.2-17.8,0.8c-5.8,4.3-8.4,11.2-6,17.6c1.2,3,0.5,4.6-1.8,6.6
		c-25.7,22.7-51.4,45.5-76.9,68.5c-3.5,3.1-6.9,4.5-11.6,4.4c-9.6-0.3-11.9,2-11.7,11.6c0.1,3.8-0.9,4.8-4.7,4.7
		c-16.2-0.2-32.3-0.1-48.5-0.1c-14.5,0.1-25.5,11.2-25.5,25.7c0,46.5,0,93,0,139.5c0,16.7,10.4,27,27.2,27c55.5,0,111,0,166.5,0
		c0,0,0,0,0,0c56.2,0,112.3,0,168.5,0c14.7,0,25.6-10.9,25.6-25.6C486.9,532.9,486.9,486.5,486.9,440z M379.2,396.5
		c-7,0-10.4,3.1-10,10c0.3,5.3-1.3,6.5-6.5,6.4c-45.5-0.2-90.9-0.1-136.4-0.1c-3,0-4.8,0-4.8-4c0.1-10.3-2-12.2-12.2-12.3
		c-0.8,0-1.5-0.1-3.3-0.2c9.8-8.8,19-17,28.1-25.1c16.2-14.4,32.4-28.8,48.5-43.2c2-1.8,3.3-2.3,5.9-0.9c4.4,2.5,9.4,2.5,13.8-0.1
		c2.2-1.2,3.4-1,5.1,0.6c25,22.3,50,44.5,74.9,66.8c0.4,0.4,0.8,0.9,1.7,2.1C381.9,396.5,380.6,396.5,379.2,396.5z"/>
	<path class="st1" d="M293,419.5c55.8,0,111.7,0,167.5,0c13.1,0,19.8,6.6,19.8,19.6c0,46.8,0,93.7,0,140.5c0,12.3-7,19.1-19.3,19.1
		c-111.8,0-223.7,0-335.5,0c-12.9,0-19.8-6.7-19.8-19.7c0-46.8,0-93.7,0-140.5c0-12.3,6.9-19.1,19.3-19.1
		C181,419.4,237,419.5,293,419.5z"/>
	<path class="st2" d="M305.1,312.9c-0.1,5.9-4.2,9.9-10.2,9.8c-5.1-0.1-9.8-4.9-9.7-10.1c0.1-5.7,4.4-9.9,10.3-9.9
		C301.3,302.7,305.1,306.7,305.1,312.9z"/>
	<path class="st3" d="M199.8,402.7c3.3,0,6.7,0,10,0c4.8,0,7.1,4,5.1,8.6c-0.8,1.7-2.1,1.3-3.4,1.3c-8,0-16-0.1-24,0.1
		c-4,0.1-3.6-2.3-3.6-4.9c0-2.7-0.6-5.5,3.8-5.2C191.8,403,195.8,402.7,199.8,402.7z"/>
	<path class="st3" d="M391,412.7c-3.1,0-6.3,0-9.4,0c-5.3,0-7.3-3-5.6-8.2c0.6-1.7,1.8-1.7,3.1-1.7c8.1,0,16.2,0,24.4,0
		c4.3,0,3.3,3.1,3.5,5.6c0.2,2.6,0,4.6-3.5,4.4C399.3,412.5,395.1,412.7,391,412.7z"/>
	<path class="st4" d="M293,591.9c-54,0-108-0.3-162,0.2c-12.8,0.1-20.4-9.5-20.3-20.5c0.5-42.8,0.2-85.7,0.2-128.5
		c0-11.4,7.3-18.7,18.8-18.7c108.3,0,216.6,0.2,325-0.2c12.7,0,20.7,9.3,20.5,20.8c-0.5,42.8-0.2,85.7-0.2,128.5
		c0,11-7.4,18.4-18.5,18.4C402,591.9,347.5,591.9,293,591.9z"/>
	<path class="st2" d="M293.3,430.7c53.8,0,107.6,0,161.5,0c10.5,0,14.1,3.6,14.2,14c0,42.5,0,85,0,127.5c0,9.6-3.9,13.5-13.2,13.5
		c-107.8,0-215.6,0-323.4,0c-12,0-15.1-3.1-15.1-15c0-42,0-84,0-126c0-10.4,3.7-14,14.2-14C185.3,430.7,239.3,430.7,293.3,430.7z"/>
	<path class="st5" d="M399.3,496.5c0,15.4,0,30.7,0,45.9c0,8.5,1.1,7.2-7.5,7.3c-1.2,0-2.4-0.1-3.5,0c-3.6,0.5-4.5-1.1-4.5-4.5
		c0.1-25,0.1-50,0-75c0-3.7,1.2-4.4,4.8-4.9c8.8-1.3,13.7,2.3,18,9.9c8.1,14.5,17.1,28.5,25.8,42.7c0.5,0.8,0.7,1.9,2.6,1.9
		c0-8.6,0-17.1,0-25.7c0-8.2,0.1-16.3-0.1-24.5c0-2.8,0.5-4.1,3.8-4.2c12.3-0.3,12.2-0.4,12.2,11.8c0,22.5-0.1,45,0.1,67.5
		c0,3.9-1.1,4.7-5,5.1c-9.3,1.2-14.7-2.2-19.1-10.5c-7.2-13.5-15.9-26.2-24-39.2C402,498.9,401.7,497.1,399.3,496.5z"/>
	<path class="st5" d="M213,507.7c0,20.5-8.7,35.2-24.7,40.8c-21.4,7.5-47.4,0.6-54.4-23.2c-5.5-18.6-4.8-37,10.4-51.4
		c12.7-12,28.4-12.3,43.9-7c14,4.8,21.3,15.7,23.8,30.1C212.7,500.8,213.3,504.6,213,507.7z"/>
	<path class="st5" d="M305,507.5c0-12.5,0.1-25-0.1-37.5c-0.1-3.5,1-4.6,4.5-4.5c17.8,0.2,35.6,0.2,53.5,0c3.6,0,4.5,1.2,4.5,4.6
		c0,9.6,0.1,9.6-9.4,9.5c-10.7,0-21.3,0.1-32-0.1c-2.9,0-4,0.7-4.1,3.9c-0.4,15.2-0.5,15.2,14.8,15.1c7.8-0.1,15.7,0.1,23.5-0.1
		c3.1-0.1,4,0.9,4,4c0.1,10.2,0.2,10.2-9.7,10.2c-9.3,0-18.7,0.1-28-0.1c-3.3-0.1-4.8,0.6-4.6,4.3c0.3,4.5,0.3,9,0,13.5
		c-0.3,4,0.8,5.5,5.1,5.4c12.2-0.3,24.3,0.1,36.5-0.2c4.2-0.1,5.9,0.6,5.6,5.4c-0.5,8.7-0.2,8.7-9.1,8.8
		c-16.8,0.1-33.7-0.1-50.5,0.1c-3.9,0.1-4.7-1.2-4.7-4.8C305.1,532.5,305,520,305,507.5C305,507.5,305,507.5,305,507.5z"/>
	<path class="st5" d="M226.1,507.6c0-12.3,0.1-24.7-0.1-37c-0.1-3.7,0.7-5.3,4.9-5.2c11.7,0.3,23.3,0.1,35,0.3
		c15.1,0.3,24.8,9.9,25,24.7c0.3,15.6-9.3,26.4-24.5,27.2c-6.3,0.3-12.7,0.3-19,0.2c-3.2-0.1-4.4,1-4.4,4.3
		c0.2,7.8-0.1,15.7,0.1,23.5c0.1,3.3-1.1,4.2-4.3,4.2c-12.8,0.2-12.8,0.3-12.8-12.2C226.1,527.6,226.1,517.6,226.1,507.6z"/>
	<path class="st2" d="M195,507.4c0.2,4.8,0.1,9.6-1.7,14.2c-3.8,10-11.7,15.4-22.3,15c-9.9-0.4-18.4-7.2-20.8-17.1
		c-1.9-7.7-2-15.5-0.1-23.2c3-12.1,12-18.5,24.8-17.6c10.7,0.7,19.2,9.7,20.2,21.3C195.1,502.4,195,504.9,195,507.4z"/>
	<path class="st6" d="M254.5,479.7c2.7,0.1,6.7-0.2,10.6,1c5.5,1.6,8.2,5.4,8.1,11.5c-0.1,5.6-3.2,9.3-8.7,10.6
		c-6.1,1.4-12.2,0.7-18.3,1c-2.5,0.1-3-1.2-3-3.4c0.1-5.6,0.1-11.3,0-16.9c-0.1-2.7,0.7-4,3.6-3.8
		C248.9,479.8,251.1,479.7,254.5,479.7z"/>
</g>
</svg>
