<?xml version="1.0" encoding="utf-8"?>
<!-- Generator: Adobe Illustrator 19.0.0, SVG Export Plug-In . SVG Version: 6.00 Build 0)  -->
<svg version="1.1" id="Calque_1" xmlns="http://www.w3.org/2000/svg" xmlns:xlink="http://www.w3.org/1999/xlink" x="0px" y="0px"
	 viewBox="0 0 612 792" style="enable-background:new 0 0 612 792;" xml:space="preserve">
<style type="text/css">
	.st0{fill:#F34336;}
	.st1{fill:#FEFDFD;}
	.st2{fill:#F78B83;}
</style>
<g>
	<path class="st0" d="M259,121c5.3,0,10.7,0,16,0c2.3,1.1,4.9,0.7,7.3,0.8c11.8,0.7,21.4,6.2,29.4,14.2
		c76.5,76.2,152.8,152.6,229.1,229c9.6,9.6,13.5,21.7,13.8,35.1c0,1.3-0.5,2.7,0.5,3.9c0,68.3,0,136.7,0,205
		c-1,8.9-5,15.8-12.8,20.5c-4.1,2.5-8.8,2.2-13.2,3.5c-68.7,0-137.3,0-206,0c-2.2-1.2-4.6-0.6-6.8-0.8c-12.5-0.7-22.5-6.8-31-15.2
		c-54.6-54.5-109.1-109.1-163.7-163.6c-20-20-40-40.1-60.1-60c-11.1-10.9-18.4-23.4-18-39.5c0-0.3-0.2-0.6-0.4-0.9
		c0-5.3,0-10.7,0-16c1.2-2,0.6-4.2,0.7-6.3c0.7-12.7,6.8-22.8,15.4-31.4c54-54.2,108-108.2,162.2-162.2c9.9-9.9,21.6-15.8,35.9-15.5
		C257.8,121.5,258.5,121.5,259,121z"/>
	<path class="st1" d="M523,502.5c0,31.2-0.1,62.3,0.1,93.5c0,4.3-1.2,5.1-5.3,5.1C456,601,394.2,601,332.4,601
		c-9.9,0-18.1-3.4-25.1-10.4c-74-74-148-148-222-222c-14-14-14.1-33.2-0.2-47.1c52.8-52.8,105.5-105.6,158.4-158.4
		c13.7-13.7,33-13.7,46.7,0c74.3,74.2,148.5,148.5,222.7,222.7c6.6,6.6,9.9,14.5,9.9,23.7C523,440.5,523,471.5,523,502.5
		C523,502.5,523,502.5,523,502.5z"/>
	<path class="st2" d="M330.8,472.8c-0.5-34.1,28.3-64.3,64.1-64c35.7,0.3,64.4,28.5,64.1,64.4c-0.2,38-31,64.1-64.6,64
		C359.9,537.2,330.1,507.8,330.8,472.8z"/>
	<path class="st1" d="M394.1,504.8c-16.9-0.2-31.1-15-30.9-32.1c0.2-17.3,14.7-32,31.8-31.4c18.5,0.6,32,14.6,31.6,32.1
		C426.2,494,410.1,504.9,394.1,504.8z"/>
</g>
</svg>
