<?xml version="1.0" encoding="utf-8"?>
<!-- Generator: Adobe Illustrator 19.0.0, SVG Export Plug-In . SVG Version: 6.00 Build 0)  -->
<svg version="1.1" id="Calque_1" xmlns="http://www.w3.org/2000/svg" xmlns:xlink="http://www.w3.org/1999/xlink" x="0px" y="0px"
	 viewBox="0 0 612 792" style="enable-background:new 0 0 612 792;" xml:space="preserve">
<style type="text/css">
	.st0{fill:#F8F8F8;}
	.st1{fill:#E9E9E9;}
	.st2{fill:#EAEAEA;}
	.st3{fill:#E7E7E7;}
	.st4{fill:#DFDFDF;}
	.st5{fill:#C3C3C3;}
	.st6{fill:#C2C2C2;}
	.st7{fill:#CBCBCB;}
	.st8{fill:#B6B6B6;}
	.st9{fill:#D4D4D4;}
	.st10{fill:#FEFEFE;}
	.st11{fill:#D410AC;}
	.st12{fill:#6F10C6;}
	.st13{fill:#F21194;}
	.st14{fill:#9D10BC;}
	.st15{fill:#5E10CB;}
	.st16{fill:#AB10B6;}
	.st17{fill:#8210C2;}
	.st18{fill:#BD0FA4;}
	.st19{fill:#C340A2;}
	.st20{fill:#E8129D;}
	.st21{fill:#E112A3;}
	.st22{fill:#A1398A;}
	.st23{fill:#660C89;}
	.st24{fill:#DCDCDC;}
	.st25{fill:#5011CE;}
	.st26{fill:#D1D0D0;}
	.st27{fill:#950E9B;}
	.st28{fill:#D312AD;}
	.st29{fill:#960F84;}
	.st30{fill:#AC3C8F;}
	.st31{fill:#7F1187;}
	.st32{fill:#8B1189;}
	.st33{fill:#B615B8;}
	.st34{fill:#6A12AA;}
	.st35{fill:#9E15BE;}
	.st36{fill:#E54CBB;}
	.st37{fill:#DE47AF;}
	.st38{fill:#C43FA4;}
	.st39{fill:#8210C1;}
	.st40{fill:#7013AE;}
	.st41{fill:#EC4CB5;}
	.st42{fill:#F44CAF;}
	.st43{fill:#A010BB;}
	.st44{fill:#BA4BCB;}
	.st45{fill:#8410A8;}
	.st46{fill:#FEFDFE;}
	.st47{fill:#B64AA7;}
	.st48{fill:#FDFCFD;}
	.st49{fill:#CF45B1;}
	.st50{fill:#FEFDFD;}
	.st51{fill:#B63DA2;}
	.st52{fill:#AF3692;}
	.st53{fill:#D043A5;}
	.st54{fill:#9D3488;}
	.st55{fill:#E24CBE;}
	.st56{fill:#7E0FA9;}
	.st57{fill:#C94CC8;}
	.st58{fill:#A80E9F;}
	.st59{fill:#9B2E88;}
	.st60{fill:#A93995;}
	.st61{fill:#BA10B4;}
	.st62{fill:#943087;}
	.st63{fill:#A04695;}
	.st64{fill:#B23F9B;}
	.st65{fill:#AD3C93;}
	.st66{fill:#B33A9C;}
</style>
<g>
	<path class="st0" d="M476,362c5.9,4.9,5.3,17.1-1.5,23.9c-8.8,8.9-17.7,17.7-26.5,26.5c-17.1,17.1-34.7,33.7-51.1,51.4
		c-10.9,11.7-21.8,23.3-33,34.7c-5.3,5.4-11.2,6.9-18.9,6c-8.2-1-16.4-1.7-24.5-3.7c-16.2-4.1-30.5-11.9-44-21.7
		c-16.3-11.8-27.6-27.4-36.4-45.3c-6.9-13.9-11-28.3-11.3-43.8c0-2.2-0.5-4.3-2-6c0-3.3,0-6.7,0-10c1.4-2.3,1.9-4.9,2-7.5
		c0.8-18.7,6.8-35.7,16.4-51.5c14-22.9,33.2-40,57.7-51c13.4-6.1,27.6-9.3,42.3-9.9c12.6-0.5,25.2-0.4,37.5,3.1
		c1.8,0.5,4.8,0.7,2,3.8c-1.1,1.1-2.3,1-3.7,0.7c-10-2.2-20-3.7-30.3-3.4c-13.1,0.3-25.8,2.9-38.1,7.1c-19,6-34.6,17.2-48.2,31.6
		c-14,14.9-22.9,32.5-28.7,51.9c-1.4,4.7-1.8,9.8-1.8,14.8c0.1,4.3,0.4,8.6-1.6,12.7c-1.1,2.5-0.4,5.2,1.1,7.6
		c1.4,6.7,0,13.6,1.4,20.4c3.6,16.8,10.2,32.2,20.8,45.9c1.1,1.5,1.7,3.2,2.8,4.7c10.6,14.3,24.4,24.8,40.4,32.6
		c5.1,2.5,10,5.2,15.5,6.9c4.3,1.4,8.7,2.3,13.2,2.2c5.3,2.2,10.9,1.7,16.4,2.3c3.5,2,7,2.5,10.8,0.6c0.4-0.3,0.8-0.5,1.2-0.8
		c10.9-8.8,20.6-18.9,29.7-29.5c2.6-3,5.1-6.2,7.9-9c19.9-19.6,39.8-39.3,59.4-59.3c5.4-5.5,11.1-10.5,16.5-16.1
		c3.7-3.8,5.5-8,5.2-13.5C474.7,368.4,473.7,364.9,476,362z"/>
	<path class="st1" d="M312,265c0.9-2.1,3-1.6,4.7-2.2c5.8-2.1,12-2.7,17.9-4.2c9-2.3,17.8-1.5,26.6-1.5c8.1,0,16,2.1,23.9,3.8
		c7.9,0.7,14.9,4.1,22,7.1c18,7.8,33.1,19.8,44.8,35.2c9,11.7,16.8,24.5,20.3,39.4c1.5,6.4,4.2,12.5,3.9,19.3
		c2.4,13.5-3.5,23-13.3,32.1c-17.9,16.6-34.3,34.7-52,51.4c-16.5,15.5-30.3,33.4-46.9,48.7c-2.4,2.2-4.4,5-7.8,5.8
		c-0.6-0.5-0.7-1.2-0.7-2c2.2-3.6,5.7-6.1,8.3-9.4c3.5-3.2,6.8-6.7,10.1-10.1c4.5-3.7,8.6-7.7,11.9-12.5c3.9-5.8,9-10.5,14.1-15.2
		c5.8-5.4,11.5-11,16.8-16.9c13.7-13.8,27.4-27.7,41.3-41.3c2.3-2.2,4.4-4.5,6.8-6.6c8.9-7.6,9.5-17,6.7-27.6
		c-1.4-5.2-2.2-10.6-3.7-15.9c-4-13.8-11.3-25.9-20-37.1c-6.1-7.8-13.4-14.6-21.4-20.6c-9.9-7.5-20.5-13.6-32.4-17.1
		c-7.9-2.3-15.8-4.4-24.1-5.6c-6.4-0.9-12.7-2.1-19.2-1.7c-9.8,0.5-19.3,2.4-28.7,4.9c-2.6,0.7-5.1,1.2-7.8,0.9
		C313.2,266,312.5,265.6,312,265z"/>
	<path class="st1" d="M312,265c0.7,0,1.4,0,2.1,0.1c1.1,2.2-0.6,2.5-2,3.1c-19.4,7-35.4,19.1-48.8,34.3c-9,10.2-16.3,21.7-20.3,35
		c-0.6,1.9-1.5,3.7-2.3,5.5c-3.6,7.6-5.2,15.6-5.2,24c0,5.3-0.9,10.5-1.4,15.8c-0.2,0.5-0.5,1-1,1.4c-3.3-2.4-2.4-5.9-1.4-8.5
		c1-2.4,1.5-4.7,1.4-7.2c-0.8-19,6.5-35.5,15.6-51.7c7.3-13,17.3-23.5,28.3-33c9.2-7.9,19.9-13.8,31.1-18.4
		C309.2,264.8,310.6,265.1,312,265z"/>
	<path class="st2" d="M327,498c-7.8,0.2-14.8-2.8-21.7-5.9c-15.8-7.1-29.9-16.5-41.8-29.1c-2.1-2.2-3.8-4.5-5.5-7
		c0.5-0.6,1.2-0.9,2-0.9c1.5,0,2.5,0.8,3.4,1.8c11,12.8,24.5,22.2,39.4,29.9c0.7,0.4,1.4,0.9,2.1,1.4c5.7,4.2,12.6,5.2,19.1,7.4
		C325.2,496.1,327.1,495.8,327,498z"/>
	<path class="st3" d="M260.1,456c-0.7,0-1.4,0-2.1,0c-7.2-9.4-13.2-19.5-17.9-30.3c-5.6-13.3-8.2-27.2-7.2-41.6c0-0.4,0-0.7,0-1.1
		c3.3,0.9,2.1,3.7,2.3,5.8c0.4,3.9-0.7,8,1,11.8c0.2,0.5,0.4,1,0.5,1.5c0.4,2.7,0.5,5.5,2,7.9c3.8,12.8,9.5,24.7,16.6,36
		c1,1.6,2.3,2.9,3.5,4.2C260.4,451.9,261.5,453.7,260.1,456z"/>
	<path class="st4" d="M327,498c-6.4-2.8-13.7-3-19.7-6.9c-1.1-0.7-2.2-1.4-3.3-2.1c2-1.8,4-0.8,6.1,0.1c12.1,5,24.5,8.3,37.8,7.7
		c2.7-0.1,5.7-0.9,8.1,1.3c0,0.7,0,1.3,0,2c0,0,0,0,0,0c-3.7,1.5-7.3,1.6-11,0C338.9,499.9,332.8,500.6,327,498z"/>
	<path class="st1" d="M345,500c3.7,0,7.3,0,11,0C352.6,502.8,347.8,502.9,345,500z"/>
	<path class="st5" d="M240,342c6.2-23.9,21.3-42,39.6-57.2c9.6-8,20.5-14.7,33-17.9c1-0.2,1.2-1,1.5-1.8c5.5,0.1,10.4-2,15.5-3.5
		c0.5-0.1,0.9-0.4,1.4-0.4c10.6-1.1,21.4-3.8,31.9-1.8c7.9,1.6,15.9,2.6,23.8,4.9c6.1,1.8,12.2,3.5,17.9,6c7.8,3.3,14.8,8,21.8,13
		c7.7,5.6,14.2,12.2,20.4,19.1c5.3,5.9,9.9,12.5,13.3,19.8c3.2,6.8,7.8,13.1,9.2,20.6c0.8,4,2,7.8,2.8,11.8
		c1.1,5.5,1.9,10.9,1.9,16.5c0,4.7-1.5,8.4-4.6,11.6c-17.5,17.5-35,34.9-52.5,52.4c-1.2,0.8-1.9,0.4-2.5-0.8
		c-0.1-2.5,1.8-3.9,3.3-5.3c16.4-16.1,32.3-32.7,48.3-49.2c2.6-2.7,3.9-5.3,3.7-9.2c-1.1-22.5-8.9-42.6-22.4-60.5
		c-19.3-25.6-45.1-40.7-76.7-45.1c-33.7-4.6-64.1,3.5-90.6,25.2c-23,18.9-36.5,43.3-41.2,72.6c-0.4,2.2,0.2,5.1-2.7,6.4
		c-2.3-3.3-1.5-7-0.7-10.5C236.8,353,237.6,347.3,240,342z"/>
	<path class="st6" d="M356,498c-13.8,1-27.2-0.9-40.4-5c-3.9-1.2-7.1-4.5-11.5-4c-8.5-4.1-16.5-9.2-24.2-14.6
		c-6.6-4.7-12.1-10.8-17.5-16.8c-0.7-0.8-1.2-1.5-2.3-1.6c-0.4-5.4-5.3-7.9-7.6-12.2c-5.9-10.8-12.1-21.5-14.5-33.8
		c-1.3-2.5-1.1-5.4-2-8l0,0c-1.2-4-1.7-7.9-0.1-11.9c3.8,0.6,2.9,3.9,3.2,6.1c1.7,12.7,5.5,24.7,11.5,35.9
		c16.5,31.1,41.8,51.1,76,59.7c6.2,1.6,12.4,2.4,18.7,2.8c4.5,0.3,8.6-0.4,12-3.5c2.4-0.4,3.7-3.8,6.7-2.2
		C362.3,492.9,359.1,495.3,356,498z"/>
	<path class="st7" d="M415,433.9c0.4,0.8,1.2,1,2,1.1c-5.6,6.5-11.7,12.6-18.2,18.2c-7.8,6.7-12.9,15.9-20.4,22.9
		c-1.3,1.2-2.3,2.9-4.4,3c-1.4-2.6,0.9-3.5,2.2-4.8c2.2-2.2,4.5-4.4,5.2-7.7c0.5-1.7,1.7-2.8,2.8-4c8.7-8.7,17.4-17.4,26.1-26.1
		C411.7,435.2,412.7,433.5,415,433.9z"/>
	<path class="st8" d="M382.1,467c0.6,3.8-2.7,5.3-4.5,7.6c-1.2,1.5-3.2,2.2-3.5,4.4c-2.7,4-5.9,7.4-10,10c-2.6-0.2-3.5,3.3-6.1,3
		c-0.5-1.6,0.6-2.5,1.5-3.5c6.6-6.8,13.3-13.5,20.1-20.1C380.2,467.7,381,467.1,382.1,467z"/>
	<path class="st9" d="M236.9,390c-2,3.9-0.4,8-0.9,12c-2.5-2.1-1.7-5.1-2-7.9c-0.4-3.7,1.1-7.6-0.9-11.2c1-12.6,0.4-25.5,5-37.6
		c0.5-1.2,0.8-2.5,2-3.4c-1,4.6-2,9.3-3.1,13.9c-1.1,4.4-1.6,8.7,0.1,13.1C239.6,376,239.6,383,236.9,390z"/>
	<path class="st9" d="M236,402c1.4,2.5,2.1,5.1,2,8C235.4,407.8,236.1,404.8,236,402z"/>
	<path class="st10" d="M236.9,390c0-7,0-14,0-21.1c2.4-23.4,10.6-44.4,25.4-62.8c19.7-24.4,45.3-38.8,76.2-42.9
		c27.5-3.7,53.5,1.7,77.3,16.2c29.2,17.9,47,43.9,53.9,77.3c1.2,5.8,1.4,11.8,1.9,17.8c0.2,2.1-1.8,3.1-3,4.3
		c-17,17.3-34,34.6-51,52c-0.9,0.9-1.7,2-2.6,3c-11.3,10.7-22.3,21.7-32.9,33.1c-8.1,8.3-16.1,16.6-24.2,24.9c-3,3.2-6.5,4.4-11,4.2
		c-25.2-1.3-47.5-10.1-67-25.9c-22.1-17.9-35.8-41-41.3-69C237.9,397.6,237.5,393.8,236.9,390z"/>
	<path class="st11" d="M421,298.1c13.2,9.9,22.5,22.8,29,37.9c-3.5,2.3-7.6,1.9-11.5,2.3c-7.1,0.6-14.1,1.8-20.9,4
		c-1.3,0.4-2.5,0.8-3.8,1c-6.9,0.8-8.5-1.1-6.3-7.6c1-2.9,1.3-5.8,0.6-8.8c-0.1-0.8-0.1-1.7,0-2.5c0.3-1.3,0.7-2.6,1.1-3.8
		c2.2-5.5,1.4-11.5,2.2-17.2C414.1,300.8,417.8,300,421,298.1z"/>
	<path class="st12" d="M311,474.7c-5.7-2.2-11.1-5.2-16-8.9c-1.2-3,1.3-3.7,3.1-4.6c3.2-1.7,6.7-2.8,10-4.2c2.4-1,4-2.8,5.8-4.5
		c6.7-0.2,12.1-3.4,16.9-7.9c4.7,2.2,8.6-0.7,12.6-2.3c1.8-0.7,3.2-2.4,5.5-1.8c3.3,3.4,5.6,7.5,9.3,10.5c0,1.1-0.1,2.2-1,3
		c-4.7,3.5-10.5,4.9-15.7,7.3C331.4,466,320.6,469.1,311,474.7z"/>
	<path class="st13" d="M258,336c9.1-21.6,24.4-37.7,44.7-49.1c22.7-12.7,47.1-16.1,72.6-11c1.3,0.2,2.5,0.8,3.7,1.2
		c-0.5,4.2-3.9,3.9-6.8,4.3c-9.3-0.8-18.5-1.3-27.8-0.2c-21.7,2.6-40.6,11.2-56.8,25.7c-6.7,6-12.5,12.9-17.3,20.6
		c-2,2.9-3.2,6.5-6.3,8.6C262,336.8,260,337.8,258,336z"/>
	<path class="st14" d="M457.7,361c0.8,4.6,3.1,10,0.9,13.5c-2.3,3.6-8.4,1.8-12.8,2.6c-11.5,2-22.3,5.8-32.8,10.7
		c-1.6-0.5-2-1.8-1.7-3.1c1.3-4.8,1.5-10,5.2-13.9c3.6,2.9,7.2,1.7,11,0.2c8.2-3.5,16.4-7,24.7-10.2C453.9,360,456,358.2,457.7,361z
		"/>
	<path class="st15" d="M311,474.7c0.1-2.1,1.8-2.7,3.3-3.3c14.2-5.9,28.2-12.4,42.8-17.3c-1.3,5.8-2.6,11.5-3.9,17.3
		c-8.8,1.4-16.7,4.9-24.2,9.5C322.7,479.5,316.7,477.7,311,474.7z"/>
	<path class="st16" d="M457.7,361c-6.6-0.3-11.6,4-17.4,6c-5.8,2-11.4,4.4-17,6.9c-3.3,1.4-5.3,0.6-6.3-2.8
		c0.8-6.5,5.6-9.8,10.7-12.7c1.9-1.1,4-1.7,6.1-2.1c6.2-1.2,10.3-4.3,10.6-11.1c2.1-2.2,4.9-3.1,7.6-4.1
		C455.2,347.3,456.5,354.1,457.7,361z"/>
	<path class="st17" d="M314,453c-0.8,4.2-4.7,4.4-7.6,6.1c-3.8,2.2-9.2,1.7-11.4,6.7c-6.1-3.6-11.4-8.2-16.2-13.5
		c-0.5-1.1,0-1.8,0.8-2.5c2-0.5,3,0.8,4.2,2.1c-0.3-1.9-1.4-3.7,0.1-5.5c6.9-2.8,13.5-6.2,20.1-9.7c1.7,2.1,0.7,5.2,2.5,7.3
		C308.3,447.7,312.2,449.6,314,453z"/>
	<path class="st18" d="M452,341c-1.3,3.1-4.5,2.9-7,4c-2.5-0.1-4.5-2.3-7.1-2c-11.6-0.6-22.5,3.2-33.7,5.6
		c-3.6,0.8-7.1,1.5-10.6-0.4c-1.9-1.8-0.5-3.3,0.7-4.6c1.8-2.1,4-3.9,5.7-6.1c2.5-2.1,4.1-4.9,5.4-7.8c1.3-1.2,1.1-3.7,3.6-3.7
		c1.9,4.1,1.3,8-0.9,11.8c-1.7,2.8-1,4,2.5,4.2c4.1,0.3,7.4-1.6,11-2.5c9.3-2.4,18.8-3.1,28.4-3.6C451.1,337.5,451.9,339.1,452,341z
		"/>
	<path class="st2" d="M395,369c2.4-3.4,5.5-6.1,9-8.3c3.3-2.1,4.9-1.3,4.9,2.6c0.1,2.6-0.6,5.2-0.9,7.8c-0.1,1.4,0,2.7,1.8,2.9
		c0.7,0.6,1,1.4,0.7,2.2c-1.6,4.9-1.8,10.1-3.5,14.9c-3.3,2.3-6.7,4.6-10,6.9c-2.8-6.2-1.4-12.6-0.9-18.9
		C396.3,375.6,396.6,372.2,395,369z"/>
	<path class="st19" d="M297.9,345.9c0.1-1.4-0.4-2.2-1.9-2.2c-0.2-1.3,0.5-2.1,1.6-2.6c3.8-0.2,5.4-2,5.1-6c-0.3-3.9-0.4-8,0.2-11.9
		c1-3,3.3-4.5,6.2-5.3c3.9-0.3,7.8-0.5,11.8,0.1c0.5,0.2,1,0.5,1.4,0.9c0.3,0.8,0.3,1.6-0.2,2.3c-2,1.5-4.4,1-6.7,1.1
		c-8.6,0.3-10.9,4.3-6.6,11.6c0.3,0.6,0.6,1.2,0.7,1.8c0,1.8-0.2,3.5-0.9,5.2c-2.3,4.7-1.8,5.5,3.3,5.8c3.7,0.2,7.1-0.7,10.5-1.9
		c1.9-0.2,3.7-0.4,5.4,0.7c0.6,0.6,0.7,1.3,0.5,2.1c-4.1,2.4-9.1,3-13.3,6c1.4,1.1,3.2,0.8,4.5,1.4c1,0.5,2.4,1,0.8,2.5
		c-2.6,1.2-5.3,0.6-8,0.7C304.2,358.3,299.9,353.4,297.9,345.9z"/>
	<path class="st20" d="M372,280c2.8,0.1,5.4-0.3,7-3c16,3.1,29.9,10.3,42,21.1c-2,3.4-5.4,4.3-8.9,4.9c-2.5-2.3-2.1-6.3-5-8.3
		c-9-5.9-19.1-9.1-29.4-11.8C375.8,281.8,372.7,283.2,372,280z"/>
	<path class="st21" d="M258,336c2.1,0.4,4-0.7,6.1-1c1.4,2.2-0.1,4.2-0.9,6c-3.1,7.7-5.6,15.5-6.8,23.7c-1.3,4.4-0.5,9-1.6,13.4
		c-1,2.1-2.6,4-4.8,3.2c-2.6-0.9-1.4-3.5-1-5.4C248.7,361.9,251.8,348.6,258,336z"/>
	<path class="st22" d="M297.9,345.9c2.8,0.1,2.6,3,3.2,4.4c2.1,5.1,6.2,6.2,10.9,6.7c2.6,1.1,5.4,0.9,7.8,0.4
		c6.1-1.3,12.2-0.8,18.3-0.7c9.5,0.1,18.8-1.5,28.1-3.1c6.3-1.1,12.6-3,19.1-2.6c1.4,0.5,2.9,0.8,3.9,2.2
		c-14.4,3.3-29.1,5.3-43.8,6.9c-11.4,1.2-22.9,1.9-34.3-0.1c-3.5-0.6-6.9-1.6-9.7-3.7C298,353.7,296,350.4,297.9,345.9z"/>
	<path class="st23" d="M310.1,420.6c1.9,1,4,1.2,6.1,1.2c17.2-0.1,34.5-0.1,51.7,0c1.6,0,3.2-0.4,4.9,0.5c-1.5,3.8-3.3,6.4-8.2,4.7
		c-2.9-1-6.1,0.2-8.9,1.9c-1.9-0.1-2.1-3.1-4.4-2.5c-6.1-0.2-12.2,0-18.4-0.1c-3.1,0-5.9,0.5-8.5,2.2c-3.4,0.5-6.7-0.3-10-0.6
		c-2.5-0.9-3.5-3.2-5-5.2C309.3,422,309.4,421.2,310.1,420.6z"/>
	<path class="st24" d="M395,369c4.7,0.9,3.3,4.8,2.9,7.2c-1.3,7.3-0.5,14.5-0.9,21.8c-2.6,2-5.3,4.1-7.9,6.1
		c-1.9-1.9-1.4-4.3-1.5-6.6c-0.2-5.1,0.3-10.3-0.5-15.4C389.1,377.3,391.7,372.9,395,369z"/>
	<path class="st25" d="M329,480.8c-0.6-1.1-0.2-1.7,0.9-2.2c6.3-3.3,12.9-5.7,19.5-8.2c1.5-0.6,2.9-0.6,3.9,0.9
		c-0.1,1.8-0.1,3.6-0.2,5.4c-0.5,7.9-0.5,8-8.6,6.8C339.2,482.8,333.9,482.8,329,480.8z"/>
	<path class="st26" d="M387,382c2.1,0.9,2,2.8,2,4.7c0,5.8,0,11.6,0,17.4c-3.5,3.7-6.9,7.4-11.1,11.9C379.7,403.6,382,392.5,387,382
		z"/>
	<path class="st27" d="M439,342c2.8-0.6,4.4,1.2,6,3c0,8.1-0.6,9.6-8.5,11.5c-8.8,2.1-15.4,6.4-19.5,14.5
		c-2.1,5.4-5.3,10.5-4.1,16.7c-1,0.5-1.9,0.9-2.9,1.4c-1.7-1.6-1.6-3.7-1.2-5.6c3.5-15.8,9.3-27.5,28-30.6c5.7-2.9,6.2-5.2,2-8.8
		C438.4,343.4,438.4,342.7,439,342z"/>
	<path class="st28" d="M249,375.9c0.3,1.5-0.8,3.7,0.8,4.4c1.9,1,2.9-1.3,4.2-2.4c1.6,1.4,1.6,3.3,1.5,5.1
		c-0.5,9.2,1.6,18.1,3.9,26.9c0.4,1.7,1,3.3,0.1,5c-1,1.2-2.2,1.8-3.8,1.2C250.4,403.2,248,389.9,249,375.9z"/>
	<path class="st29" d="M439,342c0,0.7,0,1.4,0,2.1c-10.8-0.5-20.8,3.6-31.2,5.4c-6.2,1-12.4,2.4-18.5,3.6c-1.1-0.3-2.5,0.1-3.2-1.1
		c0.6-2.2,2.6-2.9,4.2-4.1c0.4-0.2,0.8-0.4,1.2-0.6c0.6-0.2,1.3-0.2,1.9-0.2c3.9,1.2,7.5,1.5,11.4-0.5c3.1-1.6,6.9-1.2,10.4-2.3
		C422.8,342,430.9,341.3,439,342z"/>
	<path class="st30" d="M297,342c-0.3,0.6-0.6,1.2-1,1.7c-6.1,2.1-7.8,4.2-7.8,10.5c0.1,11.2,3.7,21.9,5.6,32.8
		c-1,0.4-2.1,0.3-3.2,0.4c-0.5-0.2-0.9-0.5-1.2-0.9c-1.6-6.6-3.6-13-4-19.9c-0.2-3.5-2-6.8-1.9-10.6c0.1-5.7,2-10.3,6.4-13.9
		c0.4-0.4,0.9-0.7,1.4-0.9C293.4,340.7,295.3,340.4,297,342z"/>
	<path class="st31" d="M436.9,352.9c0.2,0,0.3,0.1,0.5,0.1c0.5,0.2,0.9,0.7,0.3,0.8c-6.2,0.8-12.2,2.5-16.3,7.2
		c-4.3,4.9-8.6,9.9-9.6,17.1c-0.5,3.6-2.1,7.1-1.7,11c-1,0.6-2,1.3-3,1.9c-0.8-6,1.6-11.5,2.8-17.1c3.3-7.6,7.3-14.6,15-18.6
		C428.6,353.5,432.6,352.4,436.9,352.9z"/>
	<path class="st32" d="M292,387c0.6-1.2,1.2-0.1,1.9,0c1.3,5.9,2.2,12,4.2,17.8c2.3,6.6,5.9,12.1,12,15.8c0,0.8,0,1.6-0.1,2.4
		c-2.4,1.4-3.9-1.2-6-1.3c-0.5-0.2-0.9-0.5-1.3-0.8c-8.5-8.7-9.9-20-11.8-31.2C290.8,388.7,291.3,387.8,292,387z"/>
	<path class="st33" d="M255.7,416.1c1.1-0.4,2.3-0.8,3.4-1.1c2.3-0.1,2.3,2.1,3,3.4c2,3.6,3,7.8,5.5,11.2c0.7,1.3,1.4,2.7,1,4.2
		c-0.5,1.2-1.3,2.1-2.6,2.4C261.4,430.1,257.9,423.4,255.7,416.1z"/>
	<path class="st34" d="M353,425c2.8,0,1.4,2.9,2.7,3.9c-5.9,8.5-5.5,11.6,2.3,19.3c1.1,1.1,1.1,1.9,0.1,2.9
		c-5.2-1.4-7.2-5.7-9.2-10.1c-1.9-2.6-1.6-5.3-0.4-8C350.9,430.8,351.3,427.6,353,425z"/>
	<path class="st35" d="M265.9,436.2c0.4-1,1.1-1.8,2.1-2.2c0.9-0.3,1.7,0.2,2.1,0.9c3.2,5.1,8.5,8.7,9.8,15
		c-0.4,0.8-0.8,1.6-1.2,2.4C273.8,447.5,269.2,442.4,265.9,436.2z"/>
	<path class="st36" d="M408,294c3.2,2.2,3.4,5.7,4.1,9c0.4,6.1,1.1,12.3-2,18c-1.3,0.9-2.5,0.4-3.6-0.5c-5.4-4.1-11.5-4.6-17.9-3.6
		c-5.3,0.8-10.5,1.1-15.6-0.8c-3.7-1.3-7.6-1.4-11.2,0.3c-5.5,2.6-10.9,1.6-16.4-0.1c-1.1-2.5,1.1-2.4,2.3-2.6
		c16.7-2.2,31.9-8.9,47.3-15.2C399.2,296.9,403.4,294.9,408,294z"/>
	<path class="st37" d="M345,316c6.5,0.1,12.9,1.7,19.3-1.7c3.1-1.6,7.3-0.5,10.6,1c4.6,2,9.1,1.1,13.5,0.4
		c7.2-1.1,13.7-0.5,19.4,4.5c0.6,0.5,1.5,0.6,2.3,0.9c-0.1,1.1,0.1,2.3-1,3c-0.3,0.1-0.8,0.3-1,0.1c-7.3-5.6-15.9-3.5-24-3.7
		c-4.2-0.1-8.3,0.1-12.3-1.4c-3.2-1.2-6.6-0.8-9.7,0.9c-3.7,1.9-7.3,3.2-11.3,0.9c-1.4-0.8-3.3-0.3-4.9-0.3
		c-6.6,1.3-13.1-0.6-19.7,0c-1.5,0.1-2.9-0.4-4.1-1.4l0,0c-4.3-1.6-8.7-1.6-13,0c-2,1-4,1.8-5,4c-1.8,3.9-1,8-0.7,12.1
		c0.3,4.1-1,5.6-5.2,5.9c-2.4,0.2-5-0.7-7.1,1l0,0c-6.8,4.1-7.9,12.3-5.9,22.1c1.5,7.8,5.2,15.7,2.9,24.1c-1.5,0-2-1.2-2.2-2.3
		c-2.7-11.4-7.1-22.6-6.1-34.7c1.1-7.7,5.5-12.7,12.9-14.9c3.6-1.1,5-2.7,5.3-6.5c0.6-10.1,7.6-16.7,17.7-16.1
		C325.3,314.4,335.3,313.9,345,316z"/>
	<path class="st38" d="M346,319c2.4,0.1,4.9-0.4,7.1,1.4c1.3,1.1,3.2,1,4.7,0c5.6-3.7,11-3.9,17.7-1.9c5.6,1.7,12.2,0.7,18.3,0.4
		c5.9-0.4,11.1,0.6,15.2,5.1c0,0.7,0,1.3,0,2c-1.4,1-1,3.5-3,4c-0.3-0.2-0.6-0.3-0.8-0.6c-5.5-7.6-11.2-9.2-20.2-5.8
		c-2.2,0.8-4.6,0.7-6.9,0.9c-3.9-1.3-7.6-2.6-11.9-2.3c-3.8,0.3-5.8,3.8-9.2,4.3c-3.6-0.4-3.3,2.2-3.5,4.5c-0.4,3.7,0.9,7.5-1.3,11
		c-0.6,0.2-1.1,0.1-1.5-0.3c-2-4.4-0.9-9.1-1-13.6c-0.1-3-0.7-5.5-3.6-6.9C345.4,320.6,345.4,319.8,346,319z"/>
	<path class="st39" d="M350,433c-2,2.5-0.6,5.3-1,8c-4,1.8-7.8,3.8-11.9,5.3c-2,0.8-4.8,2.3-6.1-1.3c-1.4-2.2,0-4.5-0.4-6.8
		c0-0.5,0-1-0.1-1.5C329.9,426,329.9,426,341,426c1.3,0,2.6,0,4,0C350.6,426.1,351.5,427.3,350,433z"/>
	<path class="st40" d="M332,439c0.4,2.1-0.7,4-1,6c-4.1,6-9.6,9-17,8c-3.5-1.8-6.2-4.5-8-8c-0.7-1.8-1.6-3.5,0.3-5.2
		c1.5,0,1.7,1.3,2.3,2.2c2.7,4,6.3,6.1,11.3,5.6c4.6-0.4,6.9-3.3,8.1-7.5c0.2-0.6,0.6-1.2,1.1-1.6C330.1,438.1,331.1,438.2,332,439z
		"/>
	<path class="st41" d="M345,316c-7.9,0.9-15.8,0.4-23.5-0.8c-11.3-1.7-19,2-21.8,10.5c-2.4,7.3-4.1,9.3-10.6,13.3
		c-4.3,2.7-7.6,6.4-8,11.9c-1.7,3.7-4.6,5.9-8.4,7.3c-4.5,1.7-9,3.4-13.4,5.4c-1.3,0.6-2.7,1.5-4.2,0.3c1.5-10.1,5.4-19.5,9-29
		c1.7-2.7,3.4-5.3,5-8c16.8-6.9,33-15,50.1-21.3c18.4-6.8,36.3-15,54.6-22.2c1.4-0.5,2.7-1.3,4.2-1.5c10.8,2,20.9,5.7,30,12
		c-4.9,4.2-11.4,4.9-16.9,7.8c-10.6,5.5-22.6,7.5-33.5,12.3C353.4,315.9,348.9,313.7,345,316z"/>
	<path class="st42" d="M378,282c-1.3,2.6-4,2.7-6.3,3.6c-32.5,13.4-64.9,26.8-97.4,40.2c-1.7,0.7-3.4,1.3-5.3,1.1
		c14.2-22.4,34.2-37.2,59.7-44.3c12.6-3.5,25.6-5.1,38.8-2.8c1.5,0.3,3,0.1,4.5,0.1C373.5,282.1,376.5,279.9,378,282z"/>
	<path class="st43" d="M304,437c-5.7,5.3-12.6,8.2-20,10c-2.3-0.1-2.3-2.2-2.8-3.6c-1.5-4.4-2.2-9-2.5-13.7
		c-0.1-4.2,2.7-6.1,6.1-7.4c4.2-1.6,8-3.8,10.8-7.3c4.2,0,5.2,4.6,8.4,6l0,0c5.7,3.8,5.9,4.3,2.5,10.7
		C305.5,433.4,305.6,435.6,304,437z"/>
	<path class="st44" d="M280,429c0.3,6.2,1.4,12.3,4,18c0.5,2.4,1.1,4.7,1.8,7.7c-2.2-1.8-4-3.3-5.7-4.8c-4-5.3-8-10.6-11.9-15.9
		c-0.4-1.3-0.8-2.6-1.1-4c3.5-2.3,7.2-4.3,11.6-3.7C279.7,426.9,279.2,428.3,280,429z"/>
	<path class="st45" d="M304,437c-0.2-2.5,0.1-4.9,1.9-6.8c2.7-2.9,2.5-5.4-1.1-7.5c-0.4-0.2-0.5-1.1-0.8-1.7c2.5-0.8,4,1.5,6,2
		c3-0.2,2.5,3.1,4.2,4.1c-3,4-5.9,8-7.3,12.9c-1.4,1.5-0.6,3.3-0.9,5C303.4,442.8,304.1,439.8,304,437z"/>
	<path class="st46" d="M384.9,323c0.2-1.3,0.9-2,2.3-2c3.5,0,7-0.2,10.4,0.1c5.4,0.4,7.6,4,8.4,9c-0.7,3.2-2.1,6-5.1,7.8
		c-0.3,0.4-0.7,0.8-1.2,0.9c-5.2,0.9-6.9,4.8-7.8,9.3c-0.3,0-0.6,0.1-0.9,0.2c-5.6,1.6-6.3,1.2-7.4-4c-0.2-6.2-0.3-12.4,0.1-18.6
		C383.8,324.6,384.3,323.8,384.9,323z"/>
	<path class="st47" d="M391.9,348c0-0.2,0.1-0.3,0.1-0.5c0.7-7.9,0.7-7.9,8.9-9.7c-1.7,3.8-6,5.4-7.7,9.3
		C392.8,347.4,392.4,347.7,391.9,348z"/>
	<path class="st48" d="M346,320.8c3.8-0.3,5.6,0.8,5.2,5.2c-0.5,5.3,0,10.6,0.1,16c1.4,2.2,1.6,4.5-0.5,6.2
		c-2.1,1.7-4.6,1.5-6.8-0.1c-1.4-1.6-1.1-3.6-1.3-5.5c-0.4-4.3-1.4-4.8-5.5-2.8c-0.8,1.2-0.6,2.5-0.7,3.8c-0.5,5.6-2.8,6.8-8.2,4.3
		c-0.1-0.7-0.2-1.3-0.3-2c-2.3-3.5-1.2-7.4-1.4-11.2c-0.1-3.8-0.3-7.7,0.3-11.5c0.7-3.6,3.4-3.4,6.1-3.2c2.8,0.2,3.3,2.3,3.5,4.5
		c0.1,1.1,0,2.3,0.6,3.3c1,1.6,2.6,2.1,4.2,1.5c2.6-1.1,1.2-3.7,1.6-5.6c0.1-1.1,0.3-2,1-2.9C344.5,320.4,345.2,320.4,346,320.8z"/>
	<path class="st49" d="M343.8,346.9c6.1,2.4,7,1.8,7.4-4.9c0.2,0,0.5,0,0.7,0c0.5,0.3,1,0.6,1.3,1c2.5,1.9,5.8,2.5,8,4.9
		c1.2,1.4,2.7,2.6,2.1,4.7c-0.5,1.9-2.2,2.4-3.9,2.7c-12.7,2.4-25.5,2.8-38.4,1.6c-2.2-1.9-5.3-0.3-7.5-2c-0.5-0.4-1.1-0.8-1.3-1.3
		c-0.2-0.7,0.2-1.4,1-1.4c5.3-0.3,9.2-5.5,14.9-4.3c7,0.1,7,0.1,7.2-6.8c0-1.1,0.4-2.2,0.6-3.3C336.4,342.7,339.7,345.2,343.8,346.9
		z"/>
	<path class="st50" d="M309.2,335.9c-2.9-2.7-5.4-5.5-3.5-9.9c1.9-4.4,5.5-5.2,9.8-5c2.2,0.1,4.3,0.1,6.5,0.1
		c1.1,0.3,1.6,1.1,1.8,2.2c0.2,5.4-3.6,5.5-7.8,5.3c4.1,3.2,9.4,5,9.1,11.2c-0.1,2.6-0.6,5-3.4,6.1c-4,2.6-8.4,2.4-12.8,2
		c-1.5-0.1-3.8-0.2-3.8-2.2c0.1-1.8-0.4-4.5,2.8-4.8c1.9-1,4.2,0.5,6.2-0.8C313.1,337.8,309.6,338.6,309.2,335.9z"/>
	<path class="st51" d="M321,357c6.3,0,12.6-0.4,18.9,0.1c6.6,0.5,12.6-2.8,19.1-2.4c1.3,0.1,3.1-0.7,3.6-2.3
		c0.5-1.7-1.2-2.6-2.3-3.5c-1.7-1.4-3.3-3.3-6-3c-2.1,0.2-2.3-1.3-2.3-3c0.9-1.7,2.3-2.1,4.1-1.8c4.2,3.1,8.2,6.6,14.2,5.5
		c3.4-0.6,5.9-2.9,9.1-3.7c2-0.3,3.9-0.4,5.5,1c-0.7,5.5,3.6,3.6,6.2,4.2c-1.3,1.8-3.3,2.6-5,3.8c-9.4,1.5-18.7,3-28.1,4.6
		c-14.9,2.5-29.8,1.2-44.7,1.3c-0.4,0-0.8-0.5-1.2-0.8C315,357,318,357,321,357z"/>
	<path class="st52" d="M321.8,345.9c4.4-6.6,3.1-11.2-4.1-14.2c-0.5-0.2-0.9-0.4-1.4-0.6c-1.5-0.6-3.8-0.8-3.3-2.9
		c0.5-2.1,2.8-1.8,4.2-1.3c3.8,1.2,5.5-0.2,6-3.8c1.5-1.5,3.1-1.3,4.6,0c0,7.7,0,15.3,0,23C325.8,346,323.8,346,321.8,345.9z"/>
	<path class="st53" d="M327.8,323c-1.5,0-3.1,0-4.6,0c-0.4-0.6-0.8-1.3-1.2-1.9c0-0.7,0-1.4,0-2.1c8-0.7,16,1.3,24,0
		c0,0.6,0,1.2,0,1.8c-0.6,0.1-1.3,0.1-1.9,0.2c-2.2,2.6-4.4,4.4-7.2,1.1c0.1,0.7,0.4,1.6,0.4,2.6c0,1.9,0.3,3.9-1.4,5.4
		c-1.1-1.7-0.4-3.5-0.6-5.3c-0.2-1.3,0.7-3.6-1.3-3.6C331.9,321.2,328.9,319.2,327.8,323z"/>
	<path class="st53" d="M291,342c0.6-3.1,3.1-1.9,4.8-2c6.7-0.2,6.7-0.5,6.4-7c-0.1-3.3-2-7.3,1.8-10.1c0,4,0,7.9,0,11.9
		c0,7.1,0,7.1-7,7.2C295,342,293,342,291,342z"/>
	<path class="st54" d="M309.2,335.9c1.8,0.7,3.6,1.3,5.4,2c1.1,0.4,2.3,1,2.1,2.4c-0.2,1.6-1.7,1.9-3,1.8c-1.9-0.1-4,0.3-5.6-1.2
		C308.2,339.2,307.3,337.2,309.2,335.9z"/>
	<path class="st53" d="M309,319c3.4-2.9,9.6-2.9,13,0C317.7,319,313.3,319,309,319z"/>
	<path class="st55" d="M255.1,364c8.8-4.1,18.7-5.8,25.9-13c-0.7,12.9,3.7,24.8,7,37c0.7,0.2,1.2,0.6,1.4,1.4c0,0.5,0,0.9-0.2,1.4
		c-2.4,4-4.6,8.2-7.5,11.9c-6.1,2.8-12.4,5.2-18.6,7.8c-1.6,0.7-3.2,1.9-5.1,0.5c-3.3-10.8-4.6-21.8-4.1-33
		C254,373.3,253.8,368.6,255.1,364z"/>
	<path class="st10" d="M306.9,440c-0.5-6,2.2-10.1,7.3-12.9c3.4-0.7,6.6-0.1,9.8,0.9c5.6,2.1,7.1,5.3,5.1,11
		c-0.7,6.1-4.3,9.8-9.9,10.3C313.3,449.8,308.8,446.5,306.9,440z"/>
	<path class="st56" d="M329.2,439c0.4-4.7-1.3-8.3-5.1-11c1.1-2.3,2.8-3.2,5.5-3.1c7.8,0.2,15.7,0.1,23.5,0.1c0.4,3.2-0.6,5.8-3,8
		c0.6-4.4-1-6.6-5.7-6c-2.8,0.3-5.6,0.1-8.4,0c-4.1-0.2-5.4,2.1-4.4,5.6c0.6,2.1,0.5,4.2,0.6,6.4C331,439,330.1,439,329.2,439z"/>
	<path class="st57" d="M258.1,411c6.7-2.7,13.4-5.3,20.1-8.1c1.2-0.5,2.4-1,3.8-0.9c0.6,0.9,0.7,1.9,0.4,2.8c-1.5,5.9-2.1,11.9-2,18
		c0,1.5-0.5,2.9-1.4,4.1c-4.4-0.4-7.8,3.2-12.1,3c-4.3-4.1-4.6-10.4-7.9-15C258.7,413.7,258.4,412.3,258.1,411z"/>
	<path class="st53" d="M289.1,389c-0.4-0.3-0.7-0.7-1.1-1c-0.4-8.7-2-17.2-4.6-25.4c-1.9-5.9,0.2-15.6,4.9-19.8
		c0.8-0.8,1.8-0.7,2.8-0.7c-4.7,5-7.8,11.1-5.8,17.8c1.9,6.5,1.2,13.5,3.9,19.7c1.1,2.5,0,5.4,1.9,7.6
		C291.4,388.6,290.6,389.2,289.1,389z"/>
	<path class="st58" d="M289.1,389c0.6-0.7,1.3-1.3,1.9-2c0.3,0,0.7,0,1,0c1.4,12.2,3.7,24.2,12,34c-3.6-0.7-5.2-4.1-8-6
		c-2.3-1.4-2.9-3.9-3.6-6.2c-1.8-6.1-3.7-12.2-3.4-18.8C289,389.7,289,389.3,289.1,389z"/>
	<path class="st46" d="M378.8,343.9c-8.5,6.7-16,6-22.4-2c-4-4.9-3.8-11.7,0.7-15.9c7.5-6.6,13.2-7.2,21-2c2.6,1,3.1,3.5,4,5.8
		C382.4,334.8,383.7,340.1,378.8,343.9z"/>
	<path class="st59" d="M357,326c-2.7,5.2-2.6,10.5-0.7,15.9c-1.4,0.3-2.9,0.7-4.3,1c0-0.3,0-0.6-0.1-1c0-4.3,0.1-8.6,0-12.9
		C351.9,325.1,353.4,323.8,357,326z"/>
	<path class="st60" d="M380.9,329.1c-1-1.7-2-3.4-3-5.1c2.1-2,4.6-0.7,6.9-1c0,0.7,0,1.4,0,2C383.9,326.8,382.6,328.1,380.9,329.1z"
		/>
	<path class="st61" d="M289,390c2.7,8.2,3.3,17.1,7,25c-1.1,3.9-4.2,5.5-7.5,7.1c-3.3,1.6-8.3,1.4-8.5,6.9c-0.8-0.4-0.9-1.2-1-2
		c-0.2-8.5-0.3-16.9,2.9-25C283.2,397.4,286,393.7,289,390z"/>
	<path class="st62" d="M380.9,329.1c0-2.6,2.2-3.1,3.9-4c0,6.3,0,12.6,0,18.9c-2,0-4.1,0-6.1,0C381.2,339.2,381.9,334.3,380.9,329.1
		z"/>
	<path class="st63" d="M392.3,330c0.1-1.6-0.4-3.6,2.2-3.6c2,0,3.6,0.8,3.7,3.1c0.1,2.3-1.2,3.3-3.3,3.6
		C392.3,333.5,392.3,331.8,392.3,330z"/>
	<path class="st64" d="M343.8,346.9c-0.3-0.1-0.6-0.4-0.9-0.4c-7.4,1.2-7.5-3.6-7.1-8.7C344.1,335.6,344.5,336,343.8,346.9z"/>
	<path class="st65" d="M335.9,330.1c0.1-2,0.2-4,0.3-6c2.6-0.1,5.1-0.1,7.7-0.1C344.3,331.7,343.5,332.2,335.9,330.1z"/>
	<path class="st38" d="M343.8,324c-2.6,2-5.1,1.9-7.7,0.1c0.2-0.8-0.6-3.1,1.2-2c2.9,1.8,4.6-0.5,6.8-1.1
		C344,322,343.9,323,343.8,324z"/>
	<path class="st66" d="M362.8,334.3c0-1.8,0.1-3.6,1.2-5.2c1.3-2,3-3.3,5.4-2.4c3.9,1.4,4.3,4.8,4.2,8.1c-0.1,3.2-0.7,6.5-4.4,7.4
		c-2.3,0.6-4.1-0.6-5.3-2.6C362.9,338,362.9,336.2,362.8,334.3z"/>
</g>
</svg>
