<?xml version="1.0" encoding="utf-8"?>
<!-- Generator: Adobe Illustrator 19.0.0, SVG Export Plug-In . SVG Version: 6.00 Build 0)  -->
<svg version="1.1" id="Calque_1" xmlns="http://www.w3.org/2000/svg" xmlns:xlink="http://www.w3.org/1999/xlink" x="0px" y="0px"
	 viewBox="0 0 612 792" style="enable-background:new 0 0 612 792;" xml:space="preserve">
<style type="text/css">
	.st0{fill:#3DB8E2;}
	.st1{fill:#2CA551;}
	.st2{fill:#8FD6EE;}
	.st3{fill:#464C59;}
	.st4{fill:#343840;}
	.st5{fill:#4DB578;}
	.st6{fill:#F8F504;}
	.st7{fill:#F9F603;}
	.st8{fill:#F9F503;}
	.st9{fill:#F8F404;}
	.st10{fill:#F7F404;}
	.st11{fill:#F3F006;}
	.st12{fill:#FDFA01;}
	.st13{fill:#FDF902;}
	.st14{fill:#FEFA01;}
	.st15{fill:#FDF901;}
	.st16{fill:#FCF802;}
	.st17{fill:#FCF902;}
	.st18{fill:#31405C;}
	.st19{fill:#1E3064;}
	.st20{fill:#203163;}
	.st21{fill:#303F5C;}
	.st22{fill:#1E3063;}
	.st23{fill:#1F3063;}
	.st24{fill:#8C8C92;}
	.st25{fill:#DDDBDF;}
</style>
<g>
	<path class="st0" d="M342.3,658.3c-13,0-26,0-39,0c-7.4-1-14.8-1-22.2-1.6c-11.7-0.9-22.9-4.1-34-7.5c-34.8-10.7-65.8-28.3-93.4-52
		c-4.2-3.6-7.8-7.7-12-11.3c-1.9-1.6-3.3-4.1-0.2-6.2c2.9-1,5.9-0.7,8.9-0.7c115.2,0,230.4,0,345.6,0c3,0,6-0.2,8.9,0.6
		c3.2,2,1.9,4.3,0,6.1c-17.5,17.3-36.9,32-58.6,43.6c-23.2,12.4-47.5,21.8-73.4,26.4c-8.5,1.5-17.2,1.5-25.8,2.1
		C345.5,657.9,343.8,657.3,342.3,658.3z"/>
	<path class="st1" d="M467.3,146.3c0.3,0,0.7,0,1,0c1.9,1.1,3.4,2.5,4.2,4.7c6.2,18.9,12.9,37.7,18.7,56.7
		c2.3,7.6,5.5,14.9,7.7,22.5c1,3.3,2.5,6.5,3,10c2.5,5.9,4.4,12.1,6.3,18.2c0.8,2.6,1.4,5.1-0.7,7.5c-1.3,1.3-3,1.4-4.6,1.5
		c-2.2,0.2-4.3,0.1-6.5,0.1c-100.4,0-200.7,0-301.1,0c-3.6,0-7.4,0.8-10.7-1.4c-2-4,1.5-4.9,3.8-5.9c9.8-4.1,19.8-8,29.5-12.4
		c7.4-3.4,15.6-4.8,22.4-9.5c38.2-15.4,76.1-31.6,114.1-47.3c19.6-8.1,39.2-16.4,58.9-24.5c2.4-1,5.4-0.6,7.2-3
		c8.7-3.4,17.3-7,25.8-10.7C453.2,149.8,460.1,147.7,467.3,146.3z"/>
	<path class="st0" d="M421.3,165.6c-25.6,10.7-51.1,21.5-76.7,32.2c-32.3,13.5-64.7,27-97,40.4c-2,0.8-4.1,1.4-6.1,2.1
		c-5.2,1.3-10.3,2.3-15.7,2.3c-30.2-0.1-60.5,0-90.7,0c-2.8,0-5.7,0.2-8.4-0.6c-2.6-1.4-2.3-3.4-1-5.5c1.2-1.8,2.4-3.6,3.9-5.2
		c19.1-21.1,40.7-39.2,65.4-53.3c25.1-14.3,51.7-24.4,80.1-29.4c8.6-1.5,17.5-1.7,26.3-1.9c1.9,0,4,0.6,5.9-0.5c8.7,0,17.3,0,26,0
		c3.3,1.1,6.6,0.2,10,0.5c24.9-0.4,48.7,5,71.8,13.9C417.5,161.6,420.7,162.1,421.3,165.6z"/>
	<path class="st0" d="M109.9,543.8c-19.9-30.4-33.1-63.4-39.1-99.2c-1.2-7.4-2.3-14.7-2.6-22.2c-1.1-3.3,0.4-6.8-0.9-10.1
		c0-8.7,0-17.3,0-26c1.1-8.7,2.1-17.5,3.5-26.1c5.8-35.1,18.5-67.5,37.8-97.4c0.4-0.7,0.9-1.4,1.3-2.1c3.7,1.9,2.7,5.4,2.5,8.4
		c-0.2,2.8-0.3,5.6,0.4,8.4c-1,4.7-1.2,9.6-1.2,14.4c0.1,82.4-0.1,164.8,0.1,247.2C111.7,540.9,112,542.8,109.9,543.8z"/>
	<path class="st0" d="M553.6,257.2c0.1,9.6,0.2,19.3,0.3,28.9c0,3.2,0.7,6.2,2,9.1c12.5,27.1,20,55.6,22.5,85.3c0.1,1-0.1,2,0.9,2.7
		c0,13,0,26,0,39c-2.3,7.6-2.3,15.6-3.7,23.4c-3.7,20.7-9.5,40.8-18.2,59.9c-2.6,5.8-3.9,11.5-3.6,17.8c0.2,5.3-0.1,10.6-0.2,15.9
		c-2.1-0.8-2.3-2.6-2.5-4.5c-0.2-2.3-0.2-4.7-0.2-7c0-86.4,0-172.7,0-259.1c0-2.3,0-4.7,0.2-7C551.3,259.9,551.5,258,553.6,257.2z"
		/>
	<path class="st2" d="M67.3,412.3c1.6,3.3,1.1,6.7,0.9,10.1c-0.3,0-0.6,0-0.9-0.1C67.3,418.9,67.3,415.6,67.3,412.3z"/>
	<path class="st2" d="M343.3,146.3c0,0.3,0,0.6,0.1,0.9c-3.4,0.2-6.9,0.7-10.1-0.9C336.6,146.3,340,146.3,343.3,146.3z"/>
	<path class="st3" d="M109.9,543.8c-0.1-14.1-0.3-28.3-0.3-42.4c0-71.2,0-142.5,0-213.7c0-3.5-0.1-7,0.7-10.4
		c3.2-10,7.5-13.8,18.4-14.1c17.1-0.5,34.3-0.2,51.4-0.1c1.5,0,3,0.1,4.2,1.3c1.7,1.6,3.8,1.1,5.7,1.1c103.8,0,207.6,0,311.4,0
		c2.1,0,4.4,0.5,6.3-1.1c10.9-3.3,21.5,5.7,22.7,16.4c0.2,2.2,0.2,4.3,0.2,6.5c0,29.5,0,59,0,88.5c0,1.3,0,2.7-0.1,4
		c-0.3,6.2-1.6,7.6-7.9,7.7c-15.2,0.3-30.3,0.1-45.5,0.1c-12.8,0-25.7-0.1-38.5,0c-8.2,0.1-10.9,2.6-11,10.7
		c-0.2,19.5-0.2,39,0,58.5c0.1,8.6,2.6,11,11.1,11.1c26.7,0.1,53.3,0,80,0c11.3,0,11.8,0.6,11.8,11.9c0,21,0.1,42,0,63
		c0,5.4,0.1,10.2,7.1,10.8c0.8,0.1,1.4,0.9,1.7,1.7c-8.8-0.8-12,2.6-11.9,11.9c0,8.5-7.8,13.9-16.5,14.1c-1.7,0-3.3,0.1-5,0.2
		c-1.3-0.1-2.7-0.2-4-0.2c-119.1,0-238.2,0-357.3,0c-1.3,0-2.7,0.1-4,0.2c-4.7-0.1-9.3-0.1-14-0.2c-9.4-0.3-16.3-7.1-16.6-16.5
		C109.9,557.8,110,550.8,109.9,543.8z"/>
	<path class="st4" d="M539.4,555.3c-0.2,0-0.3-0.1-0.5-0.1c-10.6-0.6-10.6-0.6-10.6-11.2c0-22.5-0.1-45,0.1-67.4
		c0.1-5.1-1.6-6.5-6.6-6.5c-28.5,0.2-56.9,0.1-85.4,0.1c-7.5,0-11-3.3-11.1-10.8c-0.1-21.1-0.1-42.3,0-63.4
		c0-7.5,3.6-10.7,11.3-10.7c28.3,0,56.6,0,84.9,0c6.7,0,6.7,0,6.7-6.6c0-31.1,0-62.3,0-93.4c0-11.5-4.5-16.9-15.9-19.3
		c-1.6-0.3-3.1-1.1-4.7-1.7c-2.5-8-5-16-7.5-24.1c0.7-1.3,1.8-1.9,3.2-2c6-0.3,12.1-1.2,17.9,1.7c4.6,0.1,9.3,0.2,13.9,0.2
		c11.2,0.1,17.5,5.9,18.5,17c0,13,0,26,0,38.9c0,70.7,0,141.5,0,212.2c0,10.3,0,20.6,0,30.9C552.6,548.6,547.9,553.9,539.4,555.3z"
		/>
	<path class="st4" d="M184.3,264.3c-2.2,1.1-4.5,1-6.8,1c-14.6,0-29.3,0.2-43.9-0.1c-10.1-0.2-18.3,2.6-23.3,12.1
		c-0.1-5.5-0.3-11.1-0.4-16.6c0.7-13.3,4.3-18,15.5-20.6c36.2,0,72.4,0.1,108.6,0.1c2.5,0,5,0.1,7.5,0.1
		c-8.5,4.5-17.6,7.7-26.4,11.4C204.9,256.1,194.6,260.1,184.3,264.3z"/>
	<path class="st5" d="M459.4,210.6c0,12.4-8.5,20.7-21.2,20.6c-11.6,0-20.5-9.3-21-20.9c-0.4-9.4,9.3-22.1,21.7-21.3
		C451.3,189.9,459.4,197.8,459.4,210.6z"/>
	<path class="st0" d="M521.2,240c-7,0.1-14,0.2-21.1,0.3c-4.2-10.6-7.8-21.5-10.8-32.5C501.2,217.2,511.6,228.2,521.2,240z"/>
	<path class="st6" d="M417.2,551.7c0,2.8,0,5.6,0,8.4c-5.6,2.8-11.3,2.6-16.9,0.1c0-2.9,0-5.8,0-8.7
		C404.3,548.9,413.6,549,417.2,551.7z"/>
	<path class="st7" d="M434.3,560.1c0-2.8,0-5.7,0-8.5c3.8-2.6,13.1-2.6,16.8,0c0,2.8,0,5.7,0,8.5C445.6,562.8,440,562.8,434.3,560.1
		z"/>
	<path class="st8" d="M468.3,560.1c0-2.8,0-5.7,0-8.5c3.7-2.6,13-2.6,16.8,0c0,2.9,0,5.7,0,8.6C479.6,562.7,474,562.8,468.3,560.1z"
		/>
	<path class="st7" d="M195.3,560.1c0-2.8,0-5.7,0-8.5c3.8-2.6,13-2.6,16.8,0c0,2.8,0,5.7,0,8.5C206.6,562.8,201,562.8,195.3,560.1z"
		/>
	<path class="st8" d="M178.2,551.6c0,2.8,0,5.7,0,8.5c-5.6,2.7-11.3,2.6-16.9,0.1c0-2.9,0-5.7,0-8.6
		C165.2,549,174.5,549,178.2,551.6z"/>
	<path class="st6" d="M229.4,560c0-2.8,0-5.6,0-8.4c3.6-2.7,12.9-2.7,16.8-0.1c0,2.9,0,5.8,0,8.7C240.6,562.7,235,562.9,229.4,560z"
		/>
	<path class="st9" d="M502.4,560c0.6-2.9-1-6,1.1-8.6c5.3-2.6,10.6-2.6,15.8,0.1c0,2.9,0,5.8,0,8.7C513.6,562.6,508,562.9,502.4,560
		z"/>
	<path class="st10" d="M382.1,551.4c2,2.7,0.4,5.8,1.1,8.6c-5.6,3-11.2,2.6-16.9,0.3c0-2.9,0-5.8,0-8.7
		C371.6,548.8,376.9,548.7,382.1,551.4z"/>
	<path class="st11" d="M332.3,560.3c-0.6-2.9-0.6-5.9,0-8.8c5.3-2.6,10.5-2.8,15.8,0c1.7,2.6,0.2,5.7,1.1,8.4
		C343.7,563.2,338,562.4,332.3,560.3z"/>
	<path class="st11" d="M314.3,551.4c0.7,2.9,0.7,5.9,0,8.8c-5.7,2.2-11.4,3-16.9-0.4c0.9-2.8-0.6-5.8,1.1-8.5
		C303.7,548.7,309,548.9,314.3,551.4z"/>
	<path class="st10" d="M263.4,560c0.6-2.8-0.9-5.9,1.1-8.6c5.3-2.7,10.5-2.6,15.8,0.1c0.4,2.9,0.4,5.8,0,8.7
		C274.6,562.6,269,563,263.4,560z"/>
	<path class="st9" d="M127.3,560.2c0-2.9,0-5.8,0-8.7c5.2-2.7,10.5-2.8,15.8-0.1c2.1,2.7,0.5,5.8,1.1,8.6
		C138.6,562.9,133,562.6,127.3,560.2z"/>
	<path class="st12" d="M238,287.2c1.3,0,2.7,0.2,4,0c3.4-0.5,4.5,0.7,4.5,4.3c0,3.7-1.6,4.1-4.5,3.9c-2.7-0.2-5.3-0.2-8,0
		c-3,0.2-4.9-0.1-4.8-4.1c0-3.9,1.7-4.4,4.8-4.1C235.3,287.4,236.7,287.2,238,287.2z"/>
	<path class="st13" d="M374.4,287.2c1.3,0,2.7,0.1,4,0c3.1-0.3,4.8,0.2,4.8,4.1c0,3.9-1.7,4.4-4.8,4.1c-2.3-0.2-4.6-0.1-7,0
		c-3.1,0.1-5.6,0.4-5.5-4.4c0.1-4.8,2.9-3.7,5.5-3.8C372.5,287.2,373.4,287.2,374.4,287.2z"/>
	<path class="st12" d="M408.8,287.2c1.3,0,2.7,0.1,4,0c3.4-0.5,4.6,0.7,4.6,4.3c0,3.7-1.6,4.1-4.5,3.9c-2.7-0.2-5.3-0.2-8,0
		c-3.1,0.2-4.8-0.1-4.8-4.1c0-3.9,1.6-4.5,4.7-4.1C406.1,287.4,407.4,287.2,408.8,287.2z"/>
	<path class="st14" d="M442.5,295.4c-1.3,0-2.7-0.2-4,0c-3.5,0.5-4.4-0.9-4.4-4.4c-0.1-3.7,1.6-4,4.4-3.9c2.8,0.2,5.6,0.3,8.4,0
		c3.5-0.4,4.5,0.9,4.4,4.4c-0.1,3-0.8,4.3-3.9,3.9C445.9,295.2,444.2,295.4,442.5,295.4z"/>
	<path class="st14" d="M476.7,295.4c-1.3,0-2.7-0.2-4,0c-3.4,0.5-4.5-0.8-4.5-4.3c0-3.6,1.4-4.1,4.4-3.9c2.3,0.2,4.6,0,6.9,0
		c2.9,0,6.1-1.2,6,4.3c-0.1,5.2-3.3,3.7-5.9,3.9C478.7,295.5,477.7,295.4,476.7,295.4z"/>
	<path class="st15" d="M511,287.2c1.3,0,2.7,0.1,4,0c3.3-0.4,4.6,0.5,4.7,4.2c0,4-1.9,4.2-4.9,4c-2.3-0.1-4.7,0-7,0
		c-2.7,0-5.4,0.8-5.5-3.9c-0.1-5.1,2.8-4.2,5.7-4.2C509,287.2,510,287.2,511,287.2z"/>
	<path class="st15" d="M135.6,287.2c1.3,0,2.7,0.1,4,0c3.2-0.4,4.7,0.4,4.7,4.2c0,4.1-1.9,4.2-4.9,4.1c-2.7-0.1-5.3-0.3-8,0
		c-3.6,0.4-4.4-1.1-4.4-4.5c0-3.2,1.1-4.1,4.1-3.8C132.6,287.4,134.1,287.2,135.6,287.2z"/>
	<path class="st14" d="M169.7,295.4c-1.3,0-2.7-0.1-4,0c-3.3,0.4-4.5-0.6-4.6-4.2c-0.1-4,1.8-4.2,4.8-4c2.8,0.2,5.6,0.3,8.4,0
		c3.4-0.3,4,1.1,4.1,4.2c0.1,3.4-1.2,4.4-4.3,4C172.6,295.3,171.1,295.4,169.7,295.4z"/>
	<path class="st14" d="M203.9,295.4c-1.3,0-2.7-0.1-4,0c-3,0.3-4.9,0-4.8-4c0.1-3.6,1.2-4.5,4.6-4.2c2.8,0.3,5.6,0.3,8.4,0
		c3.7-0.4,4.3,1.2,4.3,4.5c0,3.2-1.2,4.1-4,3.7C206.9,295.3,205.4,295.4,203.9,295.4z"/>
	<path class="st13" d="M272,295.4c-1.3,0-2.7-0.1-4,0c-3.3,0.4-4.6-0.6-4.6-4.3c0-3.6,1.5-4.1,4.5-3.9c3,0.2,6,0.3,9,0
		c3.3-0.3,3.7,1.2,3.8,4c0.1,3.2-0.8,4.7-4.1,4.2C275,295.2,273.5,295.4,272,295.4z"/>
	<path class="st16" d="M306.2,295.4c-1.3,0-2.7-0.1-4,0c-3.2,0.4-4.6-0.5-4.7-4.2c-0.1-4.1,2-4.2,4.9-4c2.3,0.1,4.6,0,7,0
		c2.7,0,5.4-0.7,5.4,3.9c0.1,4.9-2.7,4.3-5.7,4.2C308.2,295.4,307.2,295.4,306.2,295.4z"/>
	<path class="st17" d="M340.3,287.2c1.3,0,2.7,0.1,4,0c3.1-0.3,4.8,0.3,4.8,4.1c0,3.9-1.8,4.3-4.8,4.1c-2.3-0.2-4.6,0-6.9,0
		c-2.7,0-5.4,0.8-5.5-3.9c-0.1-4.9,2.5-4.4,5.6-4.3C338.3,287.3,339.3,287.2,340.3,287.2z"/>
	<path class="st18" d="M340.3,296.3c1,0,2-0.2,3,0c1.7,0.4,4.8-1.2,4.8,1.5c0.1,2-3,1.4-4.7,1.4c-2.7,0.1-5.3,0.1-8,0
		c-1.3,0-3.2,0.1-3.3-1.5c-0.1-1.9,1.9-1.3,3.1-1.4C337,296.2,338.7,296.3,340.3,296.3z"/>
	<path class="st18" d="M307.1,296.4c2,0.6,7.1-1,6.9,1.1c-0.3,3.4-4.9,1.4-7.6,1.8c-2.1,0.3-4.3,0-6.5-0.1c-0.8-0.1-1.7-0.5-1.7-1.5
		c0-1,1-1.2,1.8-1.2C302.2,296.3,304.3,296.4,307.1,296.4z"/>
	<path class="st19" d="M366.3,560.2c5.6-0.1,11.3-0.2,16.9-0.3c0,0.2,0,0.3,0,0.5c-0.8,4.5-4.5,3-6.8,2.6
		C373,562.5,368.2,566.2,366.3,560.2z"/>
	<path class="st19" d="M400.3,560.2c5.6,0,11.3-0.1,16.9-0.1c0,0.2,0,0.4,0,0.5c-2.9,5.6-7.9,1.7-11.9,2.6
		C403.2,563.7,400.4,563.8,400.3,560.2z"/>
	<path class="st19" d="M434.3,560.1c5.6,0,11.3,0,16.9,0c-0.9,5.4-5.3,3.1-7.9,2.9C440.3,562.8,435.6,566,434.3,560.1z"/>
	<path class="st19" d="M468.3,560.1c5.6,0,11.3,0,16.9,0.1c-2.4,6.3-7.7,2-11.5,3C471.6,563.7,468.4,564.1,468.3,560.1z"/>
	<path class="st19" d="M502.4,560c5.6,0.1,11.3,0.1,16.9,0.2c-2.7,6.3-8.1,1.9-12.1,3C505.1,563.7,502.3,563.6,502.4,560z"/>
	<path class="st19" d="M161.3,560.2c5.6,0,11.3,0,16.9-0.1c-0.2,4.4-3.7,3.5-5.9,3C168.6,562.4,163.5,566.3,161.3,560.2z"/>
	<path class="st20" d="M246.2,551.5c-5.6,0-11.2,0.1-16.8,0.1c0-0.2,0-0.4,0-0.5c2.6-5.8,7.7-1.9,11.6-2.8
		C243.2,547.9,246.3,547.6,246.2,551.5z"/>
	<path class="st21" d="M135.3,299.2c-2-0.6-7,1.1-6.9-1.2c0.2-3.3,4.8-1.2,7.5-1.6c1.8-0.3,3.6-0.1,5.5,0c1,0,2.2,0.2,2.2,1.4
		c0,1.2-1.3,1.4-2.3,1.4C139.5,299.3,137.7,299.2,135.3,299.2z"/>
	<path class="st21" d="M169.9,296.5c2.2,0,4.3-0.1,6.5,0.1c0.5,0,0.9,0.8,1.3,1.2c-0.4,0.4-0.9,1.2-1.3,1.2
		c-4.3,0.1-8.6,0.1-12.9,0.1c-0.8,0-1.7-0.5-1.4-1.5c0.1-0.5,0.9-1,1.4-1.1C165.6,296.4,167.8,296.4,169.9,296.5
		C169.9,296.4,169.9,296.5,169.9,296.5z"/>
	<path class="st21" d="M271.6,299.2c-2,0-4,0-6,0c-0.9,0-1.7-0.5-1.7-1.4c0-0.4,0.8-1.2,1.3-1.2c4.3-0.1,8.6-0.1,12.9,0
		c0.5,0,1.3,0.6,1.4,1.1c0.2,1-0.7,1.5-1.5,1.5C275.9,299.2,273.8,299.1,271.6,299.2C271.6,299.1,271.6,299.2,271.6,299.2z"/>
	<path class="st21" d="M237.1,299.3c-2.1-0.9-6.5,1.8-6.8-1.7c-0.2-2.3,4.5-0.9,6.9-1.3c1.5-0.2,3-0.1,4.5,0
		c1.4,0.1,3.7-0.6,3.7,1.3c0,2.3-2.5,1.4-4,1.6C240.2,299.4,238.9,299.3,237.1,299.3z"/>
	<path class="st20" d="M143.2,551.4c-5.3,0-10.5,0.1-15.8,0.1c0-1.6,0.4-3.1,2.3-3.1c4.1-0.1,8.2-0.2,12.2,0
		C143.9,548.5,144.5,549.7,143.2,551.4z"/>
	<path class="st20" d="M178.2,551.6c-5.6,0-11.2,0-16.8,0c0.1-1,0-2,0.9-2.7c1.4-0.9,13.7-0.9,15,0
		C178.2,549.6,178.1,550.6,178.2,551.6z"/>
	<path class="st20" d="M212.2,551.6c-5.6,0-11.2,0-16.8,0c0.1-1,0-2,0.9-2.7c1.3-0.9,13.7-0.9,15,0
		C212.2,549.6,212.2,550.6,212.2,551.6z"/>
	<path class="st19" d="M263.4,560c5.6,0.1,11.3,0.2,16.9,0.3c-2.9,6.4-8.4,1.7-12.6,2.9C265.5,563.8,263.2,563.1,263.4,560z"/>
	<path class="st20" d="M280.2,551.5c-5.3,0-10.5-0.1-15.8-0.1c-1-1.3-1.1-2.7,0.7-2.9c4.4-0.2,8.8-0.2,13.2,0
		C280,548.6,280.2,550.1,280.2,551.5z"/>
	<path class="st20" d="M314.3,551.4c-5.3,0-10.5,0-15.8-0.1c-1-1.3-1.1-2.8,0.7-2.9c4.4-0.2,8.8-0.2,13.2,0
		C314,548.6,314.2,550.1,314.3,551.4z"/>
	<path class="st20" d="M348.1,551.4c-5.3,0-10.5,0-15.8,0c0-1.6,0.5-3,2.4-3.1c4.1-0.1,8.1-0.2,12.2,0
		C348.9,548.5,349.4,549.7,348.1,551.4z"/>
	<path class="st20" d="M382.1,551.4c-5.3,0-10.5,0.1-15.8,0.1c0-1.6,0.4-3,2.3-3.1c4.1-0.1,8.2-0.2,12.2,0
		C382.9,548.5,383.5,549.7,382.1,551.4z"/>
	<path class="st20" d="M417.2,551.7c-5.6,0-11.2-0.1-16.8-0.1c0.1-1.4,0.2-3,1.9-3c4.4-0.1,8.8-0.1,13.3,0.1
		C417.1,548.7,417.1,550.3,417.2,551.7z"/>
	<path class="st20" d="M451.2,551.6c-5.6,0-11.2,0-16.8,0c0.1-1,0-2,0.9-2.7c1.3-0.9,13.7-0.9,15,0
		C451.2,549.6,451.2,550.6,451.2,551.6z"/>
	<path class="st20" d="M485.2,551.6c-5.6,0-11.2,0-16.8,0c0.3-5,4.4-3.6,6.6-3.1C478.5,549.1,483.6,545.1,485.2,551.6z"/>
	<path class="st20" d="M519.2,551.5c-5.3,0-10.5-0.1-15.8-0.1c-1-1.3-1.1-2.7,0.7-2.8c4.4-0.2,8.8-0.2,13.2,0
		C519,548.6,519.2,550.1,519.2,551.5z"/>
	<path class="st21" d="M442.3,299.2c-1.9-0.7-6.6,1.9-6.9-1.6c-0.2-2.2,4.8-0.9,7.5-1.2c2-0.2,4,0,6,0c0.9,0,1.8,0.3,1.8,1.3
		c0,1-0.9,1.4-1.7,1.4C447,299.2,445,299.2,442.3,299.2z"/>
	<path class="st21" d="M203.3,299.2c-1.9-0.7-6.6,1.9-6.9-1.6c-0.2-2.3,4.8-0.9,7.5-1.2c2-0.2,4,0,6,0c0.9,0,1.8,0.3,1.8,1.3
		c0,1-0.8,1.4-1.7,1.4C208,299.2,206,299.2,203.3,299.2z"/>
	<path class="st21" d="M476.7,299.4c-2.2-0.1-4.3-0.1-6.5-0.4c-0.5-0.1-0.9-0.8-1.3-1.2c0.4-0.4,0.9-1.2,1.3-1.2
		c4.3-0.1,8.6-0.1,12.9-0.1c0.5,0,1.3,0.6,1.4,1.1c0.3,1-0.6,1.5-1.4,1.5c-2.2,0.1-4.3,0-6.5,0C476.7,299.2,476.7,299.3,476.7,299.4
		z"/>
	<path class="st21" d="M510.3,299.2c-1.9-0.7-6.6,1.9-6.9-1.6c-0.2-2.3,4.8-0.9,7.5-1.2c2-0.2,4,0,6,0c0.9,0,1.8,0.4,1.8,1.3
		c0,1-0.8,1.4-1.7,1.4C515,299.2,513,299.2,510.3,299.2z"/>
	<path class="st21" d="M374.4,299.3c-2.2-0.7-7,1.3-7-1.4c0-3.2,4.6-1,7.2-1.5c1.1-0.3,2.3-0.2,3.5,0c1.6,0.3,4.5-0.9,4.4,1.5
		c-0.1,2.2-3,1.1-4.7,1.4C376.8,299.4,375.8,299.3,374.4,299.3z"/>
	<path class="st19" d="M127.3,560.2c5.6-0.1,11.3-0.1,16.9-0.2c0,0.2,0,0.4,0,0.5c-2.4,5.5-7.2,2-10.8,2.6
		C131.2,563.5,127.6,564.6,127.3,560.2z"/>
	<path class="st21" d="M408.3,299.2c-2-0.6-7,1.1-6.9-1.2c0.2-3.3,4.8-1.2,7.5-1.6c1.8-0.3,3.6-0.1,5.5,0c1,0,2.2,0.2,2.2,1.4
		c0,1.2-1.3,1.4-2.3,1.4C412.5,299.3,410.7,299.2,408.3,299.2z"/>
	<path class="st19" d="M195.3,560.1c5.6,0,11.3,0,16.9,0c-1.7,6.1-6.6,2.4-10,3C199.9,563.4,195.9,565.1,195.3,560.1z"/>
	<path class="st19" d="M229.4,560c5.6,0,11.3,0.1,16.9,0.1c-2.6,6.3-8,1.9-12,3C232.1,563.7,229.3,563.7,229.4,560z"/>
	<path class="st22" d="M297.4,559.8c5.6,0.1,11.3,0.3,16.9,0.4c-0.1,1.2-0.2,2.5-1.6,2.7c-4.5,0.6-9.1,0.6-13.6,0
		C297.5,562.8,297.5,561.1,297.4,559.8z"/>
	<path class="st22" d="M332.3,560.3c5.6-0.1,11.3-0.3,16.9-0.4c0,0.3,0,0.7-0.1,1c-3,5.1-7.9,1.5-11.9,2.4
		C335.2,563.6,332.4,563.8,332.3,560.3z"/>
	<path class="st22" d="M143.2,285.8c-4.9,0-9.8,0-14.7,0c0-0.3,0-0.6-0.1-0.9c4.9,0,9.8,0,14.8,0
		C143.2,285.2,143.2,285.5,143.2,285.8z"/>
	<path class="st19" d="M177.2,285.8c-4.9,0-9.8,0-14.7,0c0-0.3,0-0.7,0-1c4.9,0,9.8,0,14.7,0C177.1,285.1,177.2,285.5,177.2,285.8z"
		/>
	<path class="st19" d="M211.2,285.8c-4.9,0-9.8,0-14.7,0c4.9-2,9.8-1.4,14.7-1.5C211.1,284.8,211.2,285.3,211.2,285.8z"/>
	<path class="st19" d="M230.5,285.6c4.9-1.6,9.8-1.5,14.7,0C240.3,285.6,235.4,285.6,230.5,285.6z"/>
	<path class="st22" d="M264.5,284.6c4.9,0,9.8,0,14.7,0c0,0.3,0,0.7,0,1c-4.9,0-9.8,0-14.7,0C264.5,285.2,264.5,284.9,264.5,284.6z"
		/>
	<path class="st19" d="M298.5,284.7c4.9,0,9.8,0,14.7,0c0,0.3,0,0.7,0,1c-4.9,0-9.8,0-14.7,0C298.5,285.4,298.5,285.1,298.5,284.7z"
		/>
	<path class="st22" d="M518.2,285.9c-4.9,0-9.8,0-14.7,0c0-0.3,0-0.7,0-1c4.9,0,9.8,0,14.7,0C518.1,285.3,518.1,285.6,518.2,285.9z"
		/>
	<path class="st23" d="M348.1,284.9c-4.8,1.4-9.7,1.5-14.6,0C338.3,284.9,343.2,284.9,348.1,284.9z"/>
	<path class="st19" d="M484.2,284.9c-4.9,1.5-9.8,1.5-14.7,0C474.3,284.9,479.2,284.9,484.2,284.9z"/>
	<path class="st19" d="M450.1,284.9c-4.9,1.4-9.8,1.5-14.7,0C440.3,284.9,445.2,284.9,450.1,284.9z"/>
	<path class="st19" d="M416.1,285.2c-4.9,1.3-9.8,1.2-14.7,0.1C406.3,284,411.2,284.2,416.1,285.2z"/>
	<path class="st22" d="M367.5,284.5c4.9-0.4,9.8-0.4,14.7,0.1c0,0.4,0,0.8,0,1.2c-4.9,0-9.8,0-14.7,0
		C367.4,285.3,367.4,284.9,367.5,284.5z"/>
	<path class="st24" d="M477.1,428.1c-0.1-11.9,9.1-21.4,20.9-21.6c11.7-0.2,21.4,9.4,21.4,21.2c0.1,11.9-9.3,21.5-21,21.6
		C486.7,449.4,477.2,439.9,477.1,428.1z"/>
	<path class="st24" d="M468.3,427.9c0,7.1-5.6,12.6-12.7,12.6c-7.2,0-12.8-5.4-12.9-12.4c-0.1-7.2,5.7-12.9,13-12.8
		C462.9,415.3,468.3,420.8,468.3,427.9z"/>
	<path class="st25" d="M498.2,419.3c4.7,0,8.3,3.8,8.3,8.7c0,4.7-3.4,8.2-8.1,8.3c-4.7,0.1-8.7-3.7-8.8-8.3
		C489.6,423.4,493.6,419.3,498.2,419.3z"/>
</g>
</svg>
