<?xml version="1.0" encoding="utf-8"?>
<!-- Generator: Adobe Illustrator 19.0.0, SVG Export Plug-In . SVG Version: 6.00 Build 0)  -->
<svg version="1.1" id="Calque_1" xmlns="http://www.w3.org/2000/svg" xmlns:xlink="http://www.w3.org/1999/xlink" x="0px" y="0px"
	 viewBox="0 0 612 792" style="enable-background:new 0 0 612 792;" xml:space="preserve">
<style type="text/css">
	.st0{fill:#58537C;}
	.st1{fill:#DCDBE4;}
	.st2{fill:#FDFDFD;}
	.st3{fill:#89BE9B;}
	.st4{fill:#E0E0E0;}
	.st5{fill:#9AD1AE;}
</style>
<g>
	<path class="st0" d="M389.2,550c-0.8,3.6-3.3,4-6.4,4c-47.3-0.1-94.6,0-142-0.1c-3.2,0-4.9,0.3-5.8,4.1
		c-3.9,16.4-18.4,27.9-34.5,28c-16.3,0.1-31.1-11.4-35.2-27.9c-0.8-3.3-2.1-4.2-5.3-4.1c-9.5,0.2-19-0.1-28.5,0.1
		c-4.7,0.1-6.6-1.4-6.6-6.3c0.2-13.2,0.2-26.3,0-39.5c-0.1-4.9,2-6.4,6.6-6.3c9.5,0.1,9.5,0,9.5-9.7c0-60.2,0-120.3,0-180.5
		c0-22,15.8-37.8,37.8-37.8c67.3,0,134.6,0,201.9,0c19.5,0,36.1,16.4,36.2,35.8c0.1,10.5,0,21,0,32.4c6.2-4.8,12.9-4.3,19.5-4.2
		c14.5,0,29,0,43.5,0c7.3,0,13.2,3,17.6,8.9c11.5,15.7,23,31.5,34.5,47.2c3.4,4.6,5,9.6,4.9,15.3c-0.1,29.2,0,58.3-0.1,87.5
		c0,4,0.8,5.5,5.1,5.3c11.9-0.5,11.1-0.1,11,11.2c-0.1,11.3,0,22.7,0,34c0,5.9-0.8,6.7-6.6,6.7c-8.7,0-17.3,0.2-26-0.1
		c-3.3-0.1-4.5,0.9-5.3,4c-4.4,18.2-19.7,29.4-38.2,28.2c-14.3-0.9-28.1-12.5-31.5-27.2c-1-4.4-2.9-5.1-6.7-5
		c-6.7,0.2-13.3,0-20,0.1c-3,0.1-5.2-0.8-5.9-4c-0.7-4.7,2.7-5.2,5.9-5.4c6-0.4,12-0.3,18-0.1c4.2,0.2,6.5-1.1,8-5.4
		c5.7-15.5,17-24.3,33.4-26.3c13.4-1.7,30.7,8.7,36.1,22.9c2.8,7.4,6.8,9.7,14.1,8.8c3.5-0.4,7-0.1,10.5-0.1c3,0,4.7-1.1,4.7-4.4
		c0-8.2,0.1-16.3,0-24.5c0-2.7-1.3-4-4-4c-1.5,0-3,0-4.5,0c-130.5,0-260.9,0-391.4,0c-9,0-9,0-9,9.1c0,6.3,0,12.7,0,19
		c0,3.4,1.4,4.8,4.8,4.8c5.8,0,11.7-0.2,17.5,0.1c4.4,0.2,6.6-1.6,7.9-5.8c3-9.7,9.2-16.9,18.1-21.7c18.4-10,42-2.7,50.5,17
		c3.9,8.9,8.7,10.7,17.5,10.6c42.3-0.5,84.6-0.2,127-0.2c2.3,0,4.7-0.2,7,0.3C387.5,545.4,390,546.4,389.2,550z"/>
	<path class="st1" d="M389.2,550c-0.9-4.3-4.1-4.1-7.4-4.1c-46.7,0-93.3,0-140,0.1c-4,0-5.9-0.8-7-5.1c-4.1-15.9-19-27.1-34.9-26.9
		c-16.2,0.1-30.7,11.6-34.6,28c-0.8,3.4-2.2,4.2-5.3,4.1c-7.8-0.2-15.7-0.1-23.5,0c-2.5,0-3.5-0.6-3.5-3.3c0.1-9.8,0.2-19.7,0-29.5
		c-0.1-4.4,2.9-3.2,5.1-3.2c41.8,0,83.6,0,125.5,0c91.8,0,183.6,0,275.4-0.1c5.1,0,6.4,1.3,6.2,6.3c-0.4,8.8-0.2,17.7,0,26.5
		c0,2.6-0.7,3.5-3.4,3.4c-7.3-0.2-14.7-0.3-22,0c-3.1,0.1-3.8-1.3-4.5-3.8c-4.3-15-14-24.4-29.3-27.3c-17.7-3.4-35.9,8.8-40.5,27
		c-0.8,3.3-2,4.3-5.2,4.1c-7.2-0.2-14.3,0-21.5-0.1c-3.1-0.1-5.2,0.8-5.8,4.1C404.9,550,397.1,550,389.2,550z"/>
	<path class="st2" d="M417,427.5c0-22.7,0-45.3,0-68c0-9.2,4.2-13.5,13.4-13.5c16.3,0,32.7,0.1,49-0.1c5-0.1,8.8,1.6,11.6,5.5
		c11.9,16.2,23.8,32.5,35.7,48.8c1.7,2.4,2.3,5,2.3,8c0,29.8-0.1,59.7,0.1,89.5c0,3.5-0.9,4.4-4.4,4.4c-34.2-0.1-68.3-0.2-102.5,0
		c-4,0-5.3-0.8-5.3-5.1C417.1,473.8,417,450.7,417,427.5C417,427.5,417,427.5,417,427.5z"/>
	<path class="st3" d="M408.9,326c-7.9,0-15.8,0-23.7,0c-0.9-4.2-4.1-4.1-7.4-4.1c-54.5,0-109,0-163.5,0c-20.2,0-40.3-0.1-60.5,0.1
		c-3.6,0-5.1-0.8-4.8-4.7c0.4-5.9-0.3-11.9,1.9-17.7c4-10.2,14-17.6,25-17.6c68.8,0,137.7-0.1,206.5,0c14.1,0,26.5,12.4,26.7,26.5
		C409,314.4,408.9,320.2,408.9,326z"/>
	<path class="st3" d="M149.2,466c6.6,0,13.1,0,19.7,0c0.8,4.3,4.1,4.1,7.4,4.1c58.6,0,117.3,0,175.9,0c17.3,0,34.6,0.1,52-0.1
		c4-0.1,5.1,1.2,5,5.1c-0.3,7.2-0.3,14.3,0,21.5c0.2,4.3-0.9,5.6-5.4,5.6c-47-0.2-93.9-0.1-140.9-0.1c-36.1,0-72.3-0.1-108.4,0.1
		c-4,0-5.5-0.8-5.4-5.2C149.3,486.6,149.1,476.3,149.2,466z"/>
	<path class="st4" d="M228,550.1c-0.1,16.5-11.9,28.1-28.5,27.9c-15.3-0.1-27.4-12.5-27.4-27.8c0-16.5,12.3-28.4,29-28.2
		C216.5,522.2,228.1,534.3,228,550.1z"/>
	<path class="st4" d="M480.4,578.2c-16.1,0.1-28.2-11.5-28.3-27.3c-0.1-16.3,12-28.5,28.3-28.6c15.2-0.1,27.5,12,27.6,27.1
		C508.2,566.4,497,578,480.4,578.2z"/>
	<path class="st5" d="M408.9,326c-2.2-2.1-5-1.8-7.6-1.6c-5.4,0.4-11-1.6-16.1,1.6c-0.8,3.9-3.8,4-7,4c-24.5,0-49,0-73.5,0
		c-50.1,0-100.3,0.1-150.4-0.1c-4.6,0-5.6,1.4-5.4,5.7c0.3,5.6,0.1,11.3,0.1,17c0.1,37.8,0.1,75.6,0.2,113.4
		c6.6,2.5,13.1,2.5,19.7,0c0.8-3.9,3.8-4,6.9-4c21.8,0,43.6,0,65.5,0c54.3,0,108.6,0,162.9,0c3,0,4.9,0,4.9-4.1
		C408.9,414,408.9,370,408.9,326z M213,406c-9.4,0.1-7.8-1.3-8.1,7.8c-0.1,1.8,0,3.7,0,5.5c0,6.7,0,6.4-6.7,6.8
		c-4.7,0.3-5.6-1.5-5.4-5.7c0.3-7.5,0.1-15,0.1-22.5c0-8,0.1-16-0.1-24c-0.1-3.1,0.9-4,4-4c8,0.2,16,0.2,24,0
		c2.9-0.1,4.5,0.6,4.1,3.8c-0.2,1.5-0.1,3,0,4.5c0.3,2.8-0.7,3.9-3.6,3.8c-4.3-0.2-8.7,0.1-13-0.1c-3.2-0.2-3.4,1.6-3.4,4
		c0,2.4,0.1,4.3,3.3,4.1c4.5-0.2,9,0,13.5-0.1c2.3-0.1,3.1,0.8,3.2,3.2C225.9,405.9,225.9,405.8,213,406z M283.5,425.9
		c-10.7,1.8-19.5-0.1-23.6-11.8c-0.8-2.3-2.5-4.3-3.8-6.4c-1.3-2.1-3.4-1.9-5.4-1.6c-2.6,0.3-1.7,2.5-1.7,4c-0.1,4-0.2,8,0.1,12
		c0.2,3-0.9,4.4-3.9,4c-0.2,0-0.3,0-0.5,0c-7.5,0.1-7.6,0.1-7.6-7.3c0-14.7,0.1-29.3-0.1-44c0-3.6,0.7-5.2,4.6-4.8
		c7.9,0.6,16-0.9,23.9,1.3c5.3,1.5,9.9,3.8,11.6,9.8c1.9,6.9,0.9,13.1-5,17.4c-3.8,2.8-3.4,4.8-0.9,8.1c4.6,6,8.9,12.4,13.6,19
		C283.8,425.8,283.7,425.9,283.5,425.9z M325.1,419.2c-0.4,7.9,0.7,6.7-7.1,6.8c-3.8,0-7.7,0-11.5,0c0,0,0,0,0,0
		c-4.7,0-9.3-0.1-14,0c-2.5,0.1-3.6-0.6-3.6-3.3c0.1-16.5,0.1-33,0-49.5c0-2.3,0.8-3.2,3.2-3.2c9.8,0.1,19.6,0.1,29.5,0
		c2.7,0,3.3,1.1,3.4,3.6c0.3,8.4,0.4,8.4-7.8,8.5c-2.5,0-5,0.2-7.5,0c-3.2-0.2-4.8,0.4-4.8,4.2c0,3.7,1.8,4,4.6,3.9
		c3.8-0.1,7.7,0.1,11.5-0.1c2.9-0.2,4.1,0.7,4.1,3.9c-0.2,9.9,0.8,8-7.7,8.1c-2,0-4,0-6,0c-7.1,0.1-5.9-0.7-6.5,6.5
		c-0.4,4.9,1.5,6,5.9,5.6c3-0.3,6,0.2,9-0.1C323.9,413.5,325.3,415,325.1,419.2z M369,398c0.3,3-0.7,4.2-3.9,4
		c-4.1-0.2-8.3,0.1-12.5-0.1c-2.8-0.1-4,0.9-3.7,3.7c0.1,1.5,0.1,3,0,4.5c-0.4,3.2,1.1,4,4.1,3.9c3.8-0.2,7.7,0.2,11.5-0.1
		c3.3-0.2,4.8,0.7,4.6,4.3c-0.3,9.2,0.8,7.6-7.7,7.7c-8,0.1-16-0.2-24,0.1c-3.6,0.1-4.5-1.2-4.4-4.6c0.2-7.8,0.1-15.6,0.1-23.5
		c0-7.8,0.1-15.7-0.1-23.5c-0.1-3.4,0.8-4.7,4.4-4.6c9,0.2,18,0.3,27,0c3.7-0.1,4.9,1,4.8,4.8c-0.3,8.5,0.7,7.2-7.1,7.3
		c-2.8,0-5.7,0.2-8.5,0c-3.4-0.3-4.6,0.8-4.6,4.4c0,3.9,2.1,3.7,4.7,3.7c3.7-0.1,7.3,0.2,11-0.1c3.6-0.3,4.8,1.2,4.4,4.6
		C368.9,395.7,368.9,396.9,369,398z"/>
	<path class="st0" d="M473,434c-11,0-22,0-33,0c-6.3,0-7-0.7-7-6.8c0-19.7,0.1-39.3-0.1-59c0-4.4,1.5-6.4,6.1-6.3
		c12,0.2,24,0.1,36,0c3,0,4.9,1,6.6,3.4c9.5,13.3,19.1,26.5,28.8,39.6c1.9,2.6,2.8,5.1,2.7,8.3c-0.2,3.8,0,7.7,0,11.5
		c0,9.3,0,9.3-9.1,9.3C493.6,434,483.3,434,473,434C473,434,473,434,473,434z"/>
	<path class="st0" d="M456.5,454c-4.8,0-9.7,0-14.5,0c-2.9,0-5.1-1.1-4.9-4.3c0.1-2.8,2.2-3.8,4.9-3.8c10,0,20,0,30,0
		c2.7,0,4.8,1,4.9,3.8c0.2,3.1-2,4.3-4.9,4.3C466.8,454,461.7,454,456.5,454C456.5,454,456.5,454,456.5,454z"/>
	<path class="st0" d="M200.4,538c6.4,0.1,11.7,5.4,11.7,11.8c0,6.9-5.1,12.1-11.8,12.2c-6.5,0-12.2-5.6-12.1-12.1
		C188.2,543.4,193.8,537.9,200.4,538z"/>
	<path class="st0" d="M480.1,562c-6.5,0-12.2-5.8-12-12.2c0.1-6.5,5.8-11.9,12.4-11.8c6.4,0.1,11.6,5.5,11.6,11.9
		C492,556.8,486.9,562,480.1,562z"/>
	<path class="st5" d="M253.8,382c6.3,0,8.2,1.5,8.2,5.7c-0.1,4.5-2.7,6.1-8.6,6.5c-4.7,0.3-4.5-2.3-4.4-5.5
		C249,384.7,248.2,380.3,253.8,382z"/>
	<path class="st1" d="M461.9,370.2c3,0,6,0,9.1,0c-1.3,5.1-5.9,7.7-8.8,11.7c-3.8,5.2-8.7,9.5-11.9,15.3c5.3-4.4,9.2-10.1,13.9-15
		c3.6-3.8,6-8.8,11-11.4c9.5,12.9,19.1,25.6,28.3,38.6c3.3,4.7,1.2,10.3,1.3,15.6c0,1.4-1.8,1-2.9,1c-19.2,0-38.3,0-57.5,0.1
		c-2.6,0-3.4-0.8-3.4-3.4c0.1-16.5,0.1-33,0-49.5c0-2.3,0.6-3.3,3.1-3.2c4.3,0.2,8.7,0.1,13,0.2c0.3,3-2.5,4-3.8,6
		c-1.1,1.6-2.5,3-3.6,5.9C455,378.5,456.7,372.4,461.9,370.2z"/>
	<path class="st2" d="M475.2,370.7c-7.6,9.1-15.3,18.3-23,27.4c-0.8,1-1.8,2.4-3.3,1.1c-1.7-1.6-0.6-2.9,0.6-4.2
		c7.2-8.2,14.3-16.5,21.5-24.8C472.4,370.1,473.9,369.4,475.2,370.7z"/>
	<path class="st2" d="M461.9,370.2c-3.2,3.9-6.4,7.9-9.6,11.8c-0.8,1-1.7,2.4-3.2,1.3c-1.6-1.1-1.2-2.5-0.1-3.8
		c2.7-3.1,5.3-6.2,8-9.4C458.7,370.2,460.3,370.2,461.9,370.2z"/>
</g>
</svg>
