<?xml version="1.0" encoding="utf-8"?>
<!-- Generator: Adobe Illustrator 19.0.0, SVG Export Plug-In . SVG Version: 6.00 Build 0)  -->
<svg version="1.1" id="Calque_1" xmlns="http://www.w3.org/2000/svg" xmlns:xlink="http://www.w3.org/1999/xlink" x="0px" y="0px"
	 viewBox="0 0 612 792" style="enable-background:new 0 0 612 792;" xml:space="preserve">
<style type="text/css">
	.st0{fill:#DBDBDB;}
	.st1{fill:#DCDCDC;}
	.st2{fill:#8B8B8B;}
	.st3{fill:#C3C3C3;}
	.st4{fill:#656565;}
</style>
<g>
	<path class="st0" d="M496.1,449c-0.6,12.3-3.6,24.2-5.4,36.3c-2.7,18-5.7,35.9-8.7,53.8c-2.4,14.2-5.1,28.3-7.3,42.5
		c-1.6,10.1-3.1,20.3-4.9,30.3c-3.4,18.7-15.3,32.7-34,38.9c-5.4,1.8-11,2.2-16.7,2.2c-90.1-0.1-180.2-0.1-270.4,0
		c-17,0-30.2-7-40.6-19.7c-6.7-8.2-8.5-18.5-10.2-28.7c-3.8-23.3-7.9-46.6-11.8-69.9c-4.4-26.7-8.8-53.5-13.1-80.3
		c-1-5.9-1.9-11.7-2.9-17.6c2.9-0.2,4.5,1.9,6.2,3.6c7.5,7.4,16.5,10.8,27,10.8c124.4,0,248.7,0,373.1,0c4.9,0,9.6-0.6,14.3-1.9
		C492.5,449,494.2,448.2,496.1,449z"/>
	<path class="st1" d="M67.9,422.1c-1.2-3.5-4.6-4.6-7.2-6.5c-13.9-10.5-21.5-24.8-24.6-41.5C32,351,39.7,331,56,314.8
		c10.7-10.6,24.3-16.9,39.6-17.7c44.2-2.4,88.5-0.6,132.8-1c29.8-0.3,59.6-0.1,89.4-0.1c0.7,2.6-1.3,4-2.8,5.4
		c-14,14.1-28.1,28-42,42.1c-3.4,3.4-7.4,4-11.9,4c-50.5,0-101,0-151.5,0c-2.8,0-5.7-0.1-8.5,0.3c-9.5,1.3-15.2,7.6-14.8,16.3
		c0.4,8.9,6.5,14.4,16.4,14.4c19,0.1,38,0,57,0c21.8,0,43.7,0,65.5,0c1.7,0,3.3-0.1,5,0.1c4.9,0.3,5.7,1.3,3.9,5.9
		c-2.7,7.3-1.9,14.1,2.1,20.6c8,13.1,24.9,15.3,36.1,4.7c8.5-8,16.7-16.3,24.7-24.8c4.5-4.7,9.3-6.7,15.8-6.6
		c53,0.2,106,0.1,159,0.1c4,0,8,0.1,11.4-2.7c5.6-4.5,7.6-10.8,5.7-17.9c-1.5-5.4-6.8-9.5-13.5-10.3c-2.5-0.3-5-0.2-7.5-0.2
		c-40.2,0-80.3,0-120.5,0c-2.9,0-7,1.2-8.3-1.8c-1.3-3,2.5-5,4.5-7.1c13.1-13.3,26.3-26.4,39.6-39.6c1.8-1.8,3.3-4.3,6.5-4.1
		c1.6,1.9,3.7,1.1,5.6,1.1c25.1,0.1,50.3-0.2,75.4,0.1c20.3,0.2,38.4,6.6,52.6,21.9c18.7,20.3,23.7,52.8,8.8,78.1
		c-6.9,11.7-15.7,20.9-28.3,26.2c-2.3,1-2.9,3-4,4.7c-0.8,0-1.7,0-2.5,0.3c-14,4.9-28.5,4.3-43,4.3c-116.8,0-233.6,0-350.4,0
		C91.2,431.6,79.2,428.2,67.9,422.1z"/>
	<path class="st2" d="M390,294.9c-16.7,16.9-33.3,33.9-50,50.8c1.4,0.9,3,0.4,4.6,0.4c43,0,86,0,129,0c13.2,0,20.1,9.9,17.2,23.1
		c-1.2,5.5-9,10.7-15.3,10.8c-32.3,0-64.7,0-97,0.1c-23.3,0-46.7,0-70-0.1c-2.7,0-4.7,0.8-6.6,2.8c-9,9.2-18.2,18.1-27.2,27.3
		c-7.7,7.8-16.8,10.3-26.9,6.6c-10.1-3.7-15.4-11.7-16.7-22.3c-0.6-5,1.7-9.3,3.4-14.2c-13.2,0-26,0-38.8,0c-30.8,0-61.7,0-92.5,0
		c-9.3,0-15.3-4-17.6-11.7c-2.3-7.8,0.6-15.7,7.9-20.2c3.3-2.1,7.3-1.9,11.1-1.9c52.3,0,104.7-0.1,157,0.1c4.5,0,7.8-1.2,10.9-4.5
		c15-15.4,30.2-30.6,45.3-45.9c4-3.9,8.1-7.9,12.1-11.9c36.4-36.4,72.7-72.7,109.1-109.1c9.7-9.7,19.8-11.6,30.7-6.1
		c13.7,6.9,17.8,25.1,8.3,37.1c-1.6,2.1-3.6,4-5.4,5.8C445.2,239.6,417.6,267.2,390,294.9z"/>
	<path class="st3" d="M67.9,422.1c3.6-1.5,6.2,1.5,8.9,2.6c9.2,3.7,18.7,5.4,28.6,5.4c123.2-0.1,246.4,0,369.6-0.1
		c7.2,0,14.1-1.8,20.9-4.1c1.6-0.6,3.6-2,4.2,1.2c-1.3,7.3-1.2,14.9-4,22c-5.6,2.8-11.5,4-17.8,4c-124.4,0-248.9-0.1-373.3,0.1
		c-12.6,0-23.1-3.8-31.5-13.1c-1-1.1-2.2-2-3.3-3C69.4,432,68.7,427,67.9,422.1z"/>
	<path class="st4" d="M366.2,587.1c-0.8,0.9-1.4,1.7-2.1,2.4c-10.2,10.3-20.6,20.4-30.7,30.8c-2.4,2.4-3.5,1.1-5.1-0.6
		c-11.1-11.1-22.3-22-33.2-33.3c-2.8-2.9-4.2-3.3-7.2-0.2c-10.9,11.3-22.1,22.2-33.1,33.4c-2.3,2.3-3.6,2.4-5.9,0
		c-9.8-10-19.7-19.9-29.7-29.7c-2.4-2.4-2.2-3.7,0.1-5.9c11.2-11,22.1-22.2,33.3-33.1c2.7-2.6,3.1-4,0.2-6.9
		c-11.3-10.9-22.1-22.2-33.4-33.1c-2.5-2.4-2.6-3.8,0-6.2c9.9-9.6,19.7-19.4,29.3-29.3c2.6-2.7,3.9-2.2,6.3,0.2
		c11,11.2,22.2,22.1,33.1,33.3c2.5,2.6,3.8,2.9,6.5,0.1c11-11.4,22.4-22.4,33.4-33.7c2.3-2.4,3.6-2.3,5.9,0
		c9.7,9.9,19.4,19.7,29.4,29.3c2.9,2.7,2.4,4.1-0.2,6.6c-11.2,10.9-22.1,22.2-33.3,33.1c-2.4,2.3-2.7,3.6-0.1,6.1
		c11.4,11,22.5,22.3,33.6,33.5C364.3,584.9,365.2,585.9,366.2,587.1z"/>
</g>
</svg>
