<?xml version="1.0" encoding="utf-8"?>
<!-- Generator: Adobe Illustrator 19.0.0, SVG Export Plug-In . SVG Version: 6.00 Build 0)  -->
<svg version="1.1" id="Calque_1" xmlns="http://www.w3.org/2000/svg" xmlns:xlink="http://www.w3.org/1999/xlink" x="0px" y="0px"
	 viewBox="0 0 612 792" style="enable-background:new 0 0 612 792;" xml:space="preserve">
<style type="text/css">
	.st0{fill:#0785D6;}
	.st1{fill:#5FAFE3;}
	.st2{fill:#61AFE3;}
	.st3{fill:#0C88D7;}
	.st4{fill:#60AEE2;}
	.st5{fill:#65B3E5;}
	.st6{fill:#0685D6;}
	.st7{fill:#0886D7;}
	.st8{fill:#0886D6;}
	.st9{fill:#0786D7;}
	.st10{fill:#0D88D7;}
</style>
<g>
	<path class="st0" d="M392.8,385.7c-12.1,1.3-12.1,1.3-12.1-10.3c0-13.3,0-26.7,0-40c0-7.2-1.3-8.6-8.3-8.6c-38.1,0-76.3,0-114.4,0
		c-7.5,0-8.7,1.2-8.7,8.7c0,15.2-0.2,30.3,0.1,45.5c0.1,4.2-1.1,5.7-5.3,5.2c-2.3-0.3-4.6-0.2-7-0.3c0-16.6,0.4-33.3-0.1-49.9
		c-0.3-11.3,9-21.4,21.7-21.2c39.4,0.8,78.9,0.3,118.3,0.2c10.1,2.8,15.6,9.8,15.6,20.3C392.7,352,392.7,368.9,392.8,385.7z"/>
	<path class="st0" d="M260.1,306.2c-0.5-0.1-1-0.2-1.5-0.1c-5.1,1.1-6.1-1.4-5.9-6c0.4-7,0.1-14,0.1-21c0-6.8-1.5-8.3-8.2-8.3
		c-24.6,0-49.3,0-73.9,0c-8.5,0-9.5,1-9.5,9.4c0,33.8,0,67.6,0,101.3c0,1.5-0.1,3-0.1,4.5c-11.7,0.4-11.7,0.4-11.8-10.9
		c0-32,0-64,0-95.9c0-12.6,7.9-20.5,20.6-20.5c24.5,0,49-0.1,73.5,0c13.7,0,21.3,7.8,21.3,21.3c0,7.2-0.2,14.3,0.1,21.5
		C264.9,305.3,263.8,306.7,260.1,306.2z"/>
	<path class="st0" d="M279.5,544.1c-5.7,0-11.3-0.2-17,0.1c-3,0.1-4-0.8-4-3.9c0-8.1-0.1-8.2,8.2-8.2c10,0,20,0.2,29.9-0.1
		c3.6-0.1,4.8,1.1,4.3,4.5c-0.2,1.3-0.2,2.7,0,4c0.3,2.8-0.7,3.8-3.6,3.7C291.5,544,285.5,544.1,279.5,544.1
		C279.5,544.1,279.5,544.1,279.5,544.1z"/>
	<path class="st1" d="M359.2,232.4c0.1,6.1-4.2,10.6-10.1,10.6c-6,0-10.3-4.4-10.2-10.5c0-5.8,4.2-10.2,9.9-10.4
		C354.5,221.9,359.1,226.4,359.2,232.4z"/>
	<path class="st2" d="M395.2,294c-3.8,0-7-3.1-7.1-6.8c-0.1-4.1,3.4-7.4,7.7-7.3c3.8,0.1,6.8,3.3,6.8,7
		C402.6,290.9,399.3,294.1,395.2,294z"/>
	<path class="st3" d="M374.6,537.3c0.2,4,1.1,7.5-4.9,7c-8-0.7-6.8,0.9-7.2-6.3c-0.2-4.1,0.4-6.6,5.5-6
		C372,532.4,376.4,531.4,374.6,537.3z"/>
	<path class="st4" d="M323.3,298.1c-3.3-0.3-5.3-2-5.3-5.4c-0.1-3.6,2-5.7,5.5-5.7c3.2,0,5.4,2,5.4,5.3
		C329,295.9,326.8,297.7,323.3,298.1z"/>
	<path class="st5" d="M282.6,253.2c-0.4,2.2-1.3,3.9-3.8,3.9c-2.7,0-4-1.3-3.9-4c0-2.5,1.7-3.7,3.9-3.7
		C281,249.5,282.2,251.1,282.6,253.2z"/>
	<path class="st6" d="M409.6,381.9c-2-0.5-2.5,0.1-3.2,1.7c-1.3,3.1-0.8,7.7-4.1,9.1c-3,1.2-6.9,0.3-10.4,0.3c-2.7,0-5.3,0-8,0
		c-76.8,0-153.6,0-230.4,0.1c-3.9,0-5.5-1.4-6.5-4.9c-2.4-8.3-5.3-16.5-7.8-24.7c-0.6-2-1.3-3.2-3.6-3.3c-21.1-1.4-42.2-3-63.3-4.5
		c-1-0.1-2.3-0.5-2.7,0.5c-1.1,3.2-1.1,6.6-0.7,9.8c0.3,2.5,3.3,1.6,5.1,1.8c16.8,1.3,33.5,2.6,50.3,3.6c3.7,0.2,5.4,1.6,6.5,5.2
		c7.9,25.2,16,50.3,24.1,75.5c9.3,29.1,18.6,58.2,28,87.3c0.6,1.8,0.2,4.7,3.5,4.6c3,0,6,0,9,0c1.3,0,2.8-0.5,2.2-1.9
		c-1.4-3.4,4-9.5-4-10.5c-0.4,0-0.8-1-1-1.6c-3.5-10.9-7.1-21.8-10.8-33.2c3.1,0,5.3,0,7.4,0c62.6,0,125.3,0,187.9,0.1
		c3.5,0,5.2-0.9,6.3-4.4c10.6-33.2,21.5-66.4,32.3-99.6C419,383.9,419,384,409.6,381.9z M374.2,482.9c-0.9,3-3,2.1-4.8,2.1
		c-22.5,0-45,0-67.4,0c-39.5,0-78.9-0.1-118.4,0.1c-4.3,0-6.1-1.2-7.1-5.3c-1.1-4.8-2.9-9.5-4.5-14.7c69.6,0,138.6,0,207.9,0
		C377.9,471.2,375.9,477,374.2,482.9z M388.4,439.2c-1.9,4.4-1.6,10.8-5.2,13.1c-3.3,2.1-9,0.7-13.7,0.7c-65.5,0-130.9,0-196.4,0.1
		c-4,0-6-1-6.9-5c-1-4.3-2.5-8.6-4-13.4c2.5,0,4.4,0,6.4,0c72.1,0,144.2,0,216.3,0C388.9,434.7,390.1,435.3,388.4,439.2z M398,409.9
		c-4.4,12.9-4.2,12.8-17.7,12.8c-71.9,0-143.9-0.1-215.8,0.1c-4.8,0-7.3-1.3-8.3-6c-0.8-3.8-2.2-7.6-3.5-11.8c2.4,0,4.2,0,6,0
		c78.6,0,157.2,0.1,235.8-0.1C398.9,404.9,399.4,405.9,398,409.9z"/>
	<path class="st7" d="M279.1,354.7c-6.1,0-12.3-0.1-18.4,0c-2.7,0.1-4.1-0.7-3.7-3.6c0.1-1,0.2-2,0-3c-0.7-4.3,0.7-5.7,5.3-5.6
		c11.9,0.4,23.9,0.2,35.9,0c3.3,0,4.7,0.7,4.7,4.4c-0.1,7.7,0.1,7.7-7.8,7.7c-2.7,0-5.3,0-8,0C284.4,354.8,281.8,354.8,279.1,354.7z
		"/>
	<path class="st8" d="M268.3,378.7c-1.3,0-2.7,0-4,0c-8.5-0.1-7,1.1-7.4-7.4c-0.2-3.7,0.9-4.9,4.7-4.7c4.9,0.3,9.9,0.2,14.9,0
		c2.8-0.1,3.6,0.9,3.7,3.7c0.2,8.4,0.3,8.3-7.9,8.3C270.9,378.7,269.6,378.7,268.3,378.7z"/>
	<path class="st0" d="M228.9,510.7c-14.5,0.1-27.5,13-27.6,27.5c-0.1,14.3,13.6,27.8,28,27.7c14.2-0.1,27.5-13.7,27.3-27.9
		C256.5,523.6,243.3,510.6,228.9,510.7z M229.3,553.8c-9.5,0.1-16.2-6.5-16-16c0.2-9.2,6.3-15.1,15.6-15.1c9.6,0,15.8,6.2,15.7,15.5
		C244.6,547.4,238.4,553.7,229.3,553.8z"/>
	<path class="st0" d="M330.6,510.7c-14.3-0.1-27.6,13.1-27.6,27.4c0,14.5,13.4,27.9,27.9,27.8c14-0.1,27.2-13.2,27.2-27.3
		C358.2,523.7,345.4,510.8,330.6,510.7z M330.8,553.9c-9.4,0.1-15.8-6.2-15.8-15.5c0-9.5,6-15.6,15.6-15.6c9.7,0,15.5,5.8,15.5,15.6
		C346.1,547.5,340,553.8,330.8,553.9z"/>
	<path class="st9" d="M228.9,544.1c-8.4,0-9.2-1-7.9-9.7c0.2-1.6,0.8-2.3,2.4-2.3c2.6,0.1,5.3,0.2,7.9-0.1c4.4-0.5,6.1,0.9,5.8,5.6
		C236.7,544.1,237,544.1,228.9,544.1z"/>
	<path class="st10" d="M330.8,544.1c-1.3,0-2.7-0.1-4,0c-2.9,0.3-3.8-1.1-3.6-3.7c0.1-1.5,0-3,0-4.5c0-0.7-0.2-1.6,0.1-1.9
		c3.6-4,8.2-1.1,12.3-1.8c2.4-0.5,2.9,1.1,3.1,3.3C339.4,544.2,339.5,544.2,330.8,544.1z"/>
</g>
</svg>
