<?xml version="1.0" encoding="utf-8"?>
<!-- Generator: Adobe Illustrator 19.0.0, SVG Export Plug-In . SVG Version: 6.00 Build 0)  -->
<svg version="1.1" id="Calque_1" xmlns="http://www.w3.org/2000/svg" xmlns:xlink="http://www.w3.org/1999/xlink" x="0px" y="0px"
	 viewBox="0 0 612 792" style="enable-background:new 0 0 612 792;" xml:space="preserve">
<style type="text/css">
	.st0{fill:#F5F2DF;}
	.st1{fill:#CCAE31;}
	.st2{fill:#2D2E2D;}
	.st3{fill:#A58E29;}
	.st4{fill:#2AA48F;}
	.st5{fill:#258D7C;}
	.st6{fill:#EDEAA7;}
	.st7{fill:#C25D55;}
	.st8{fill:#2E2E2D;}
</style>
<g>
	<path class="st0" d="M262.8,155.1c8.5-1.1,17-2.4,25.6-3.4c14.7-1.8,29.3-2.3,44.2-1c13.9,1.1,27.6,3.1,41.2,6.2
		c14.3,3.3,28.1,7.8,41.5,13.7c17,7.6,33.2,16.8,48.2,27.9c14.4,10.8,27.5,22.9,39.4,36.4c14.1,15.9,25.7,33.4,35.3,52.3
		c9.1,18,15.8,36.9,20,56.7c2.5,11.8,4.3,23.7,5.2,35.8c0.7,8.5,1,16.9,0.7,25.4c-0.7,21.1-3.9,41.8-9.8,62.1
		c-8.3,28.7-21.6,55-39.3,78.9c-13.2,17.8-28.7,33.5-46.2,47.2c-13.4,10.5-27.7,19.6-42.9,27.1c-18.3,9-37.4,16.4-57.7,19.6
		c-0.3-2.2,1.7-2.7,2.9-3.6c12.1-9.1,16.7-22.4,11.7-36.7c-8.8-25.2-18.4-50-27.7-75c-1.9-5.2-3.9-10.3-5.6-15.5
		c-2.8-8.2-7.7-14.6-14.9-19.4c-4.4-2.9-4.6-3.6-1.5-7.9c9.4-12.8,18.1-26,25.8-39.8c18.8-33.6,32.5-69,36.8-107.5
		c4.7-41.3-4.8-79.2-29.1-112.9c-24.5-33.9-57.6-55.3-98.7-64.1C265.9,157.2,263.5,157.8,262.8,155.1z"/>
	<path class="st1" d="M238.1,633.7c-38-12.7-71.3-33.2-99.4-61.8c-7.6-7.7-14.9-15.7-20.9-24.7c-0.6-3.4,1.4-6.1,2.4-9
		c3.5-10.1,7.2-20,11-30c2.1-5.5,6.1-9.4,11.2-12.3c3.6-2.1,6.2-1.7,9,1.7c7.3,9,15.1,17.7,23.4,25.9c9.8,9.8,20.1,19,31.1,27.3
		c1.6,1.2,3.3,2.3,4.2,4.2c3.5,10.1,12.1,14.2,21,17.7c9.4,3.7,19.2,5,29.3,5.1c13.4,0.1,26.6-0.7,39.1-6.2c4-1.7,7.7-4,11-6.7
		c8.7-7.2,8.6-18.7-0.1-25.8c-3.6-2.9-7.5-5.5-12-7c-1.8-0.6-3.9-1.1-4.7-3.3c0.1-2,1.5-3.3,2.8-4.6c8.4-8.3,16.1-17.3,23.7-26.3
		c3.3-4,4.9-4.3,9.5-1.9c5.7,3,9.5,7.6,11.8,13.6c8.2,21.6,16.1,43.4,24.3,65.1c3.4,8.9,6.7,17.8,9.9,26.7
		c3.9,10.9,1.5,19.9-7.1,27.5c-4,3.6-8.7,5.5-14.1,5.6c-36,0.1-72,0-108,0C243.7,634.4,240.9,633.6,238.1,633.7z"/>
	<path class="st2" d="M209,555.1c-22.2-17-42.1-36.2-59.6-58c-1.4-1.8-2.8-1.9-4.7-1c-6.1,2.7-10.3,7.1-12.7,13.3
		c-4.7,12.6-9.5,25.2-14.2,37.8c-2.3-3-4.5-6.1-6.8-9.1c-0.7-2.9,0.4-5.5,1.4-8.1c2.8-7.5,5.7-14.9,8.4-22.4
		c2.9-8.1,7.7-14.8,15-19.3c2.9-1.8,2.6-3,0.8-5.4c-12.4-16.5-23.3-34.1-32.6-52.5c-13.3-26-23.7-53.2-28.4-82.2
		c-0.5-2.8,0.3-5.6-0.3-8.4c-0.4-9.5-1.7-18.9-1.4-28.4c2-71.3,50-132.9,118.7-152.1c21.4-6,43.2-7.6,65.3-4.4
		c1.6,0.2,3.3,0.3,5,0.4c16.5,3.4,32.6,8,47.4,16.2c51.1,28.2,80.9,71.1,86.9,129.4c3.4,33.3-4.1,65.2-15.8,96.2
		c-11.6,30.7-27.7,58.9-47.2,85.3c-1,1.3-1.9,2.7-3.2,4.4c11.9,5,17,15,21.1,26.3c9.8,27.4,20.1,54.6,30.3,81.8
		c7.4,19.8,3.1,33.5-14.3,45.2c-6.4,2.5-13.1,3.3-20,3.2c-17.3-0.2-34.6-0.6-51.9,0.1c-20.1,0.8-39.2-3.4-58.1-9.7
		c1.9-1,3.9-0.5,5.9-0.5c35.6,0,71.3-0.6,106.9,0.2c15.9,0.4,30.4-14.5,23.2-32.9c-11.8-30-22.7-60.4-33.9-90.6
		c-1.2-3.2-2.8-6-5.1-8.5c-7-7.2-9.7-7-16.3,0.3c-8.2,9.2-16.6,18.2-24.9,27.3c-2.8,6.2-8.8,9.4-13.5,13.6
		c-9.2,8.1-19.1,15.5-29.5,22.1c-10,6.3-20,6.5-29.9-0.1C216.8,561.7,212,559.5,209,555.1z"/>
	<path class="st0" d="M75.1,339.7c3.2,17.7,7.1,35.1,13.3,52c12,32.7,28.9,62.8,49.5,90.8c1,1.3,1.9,2.7,3,4.2
		c-10.4,4.4-16.3,12.5-19.7,22.8c-3.2,9.6-6.9,19-10.3,28.6c-5.8-10-12.1-19.8-17.3-30.1C86.6,494,81,479.4,77,464.3
		c-4.2-16-6.9-32.2-8.2-48.8C66.7,389.8,69.1,364.6,75.1,339.7z"/>
	<path class="st3" d="M209,555.1c4.4,2.9,8.8,5.9,13.3,8.7c9.2,5.8,18.4,5.7,27.6-0.1c16-10,30.1-22.2,44-34.8
		c5.9,1.8,11.3,4.5,16.4,8.1c10.4,7.5,10.6,22,0.3,29.5c-11.4,8.3-24.3,11.9-38.1,12.3c-14.1,0.4-28.2,0.9-41.6-4.8
		c-7.2-3.1-14.4-6-19.1-12.8C210.3,559.4,209.5,557.3,209,555.1z"/>
	<path class="st4" d="M226.9,554.1c-12.8-7.3-24.1-16.7-34.8-26.7c-40.3-37.8-71.1-82.1-91.5-133.5c-8.5-21.5-13.8-43.8-16-67.1
		c-6.4-68.7,37.5-134.5,103.9-156.4c21.3-7,43.1-9.4,65.4-6.2c17.1,4,32.3,12.1,46.5,22.2c27.1,19.3,46,44.9,57.4,76.1
		c1.1,3.1,2.3,6.3,2.8,9.6c0.3,1.7,0.9,3.8-1.9,4.2c-1.8-1-2.1-2.9-2.8-4.6c-18.2-46.9-52.3-75.1-101.7-82.8
		c-66.3-10.5-129.4,33.4-143.3,99c-8.6,40.5,0.7,77.3,27.3,109.4c20.6,24.8,47.2,39.7,78.9,44c46.5,6.3,85.6-8.8,116.6-44.2
		c11.5-13.1,19.5-28.2,24.5-44.8c0.5-1.6,0.7-3.3,2.3-4.3c3.6,0.7,2.4,3.4,2,5.4c-3.6,17.3-8.8,34.1-15.6,50.5
		c-13.4,32.2-31.3,61.7-53,88.9c-17.1,21.4-36,41-58,57.3C233.4,551.9,231,555.2,226.9,554.1z"/>
	<path class="st5" d="M226.9,554.1c6.8-2.7,12-7.6,17.4-12.1c8-6.7,16-13.6,23.2-21.1c24.2-25.2,45.2-52.9,62-83.7
		c12.9-23.8,23.4-48.4,29.7-74.8c1.1-4.6,4-9.2,1.9-14.3c-1.7-1.8-0.9-3.8-0.5-5.7c4.5-20.4,3.9-40.6-1.5-60.7
		c-0.5-1.8-1.6-3.8,0-5.7c1.7-4.9-1-9-2.5-13.2c-8.9-24.6-22.7-46-42.1-63.6c-15.2-13.8-32.4-24.5-51.9-31.4c-2.9-1-5.8-2.4-8.7-3.6
		c15.2,1.3,29.7,5.4,43.5,11.8c47.2,21.9,76.6,58.4,88.1,109c6.2,27.3,2.9,54.5-4.6,81.2c-13.5,48-38,90.1-69.8,128.3
		c-18.7,22.5-39.6,42.7-64.1,58.8C240.6,557.5,233.9,559.4,226.9,554.1z"/>
	<path class="st2" d="M359.2,276c7.2,23.8,7.7,47.9,1.9,72.1c-3.9,12.6-8.7,24.7-15.9,35.8c-20.6,31.7-49.4,51.6-86.6,58
		c-45.9,7.9-85.3-5.8-117.3-39.4c-19.1-20.1-30-44.4-33.4-72.1c-8.7-69.9,40.6-131.8,106.7-142.4c39.1-6.3,73.9,3.4,104.4,28.5
		c18.6,15.4,31.9,34.6,39.2,57.8C358.4,274.9,358.8,275.4,359.2,276z"/>
	<path class="st6" d="M116.9,315.2c0-65.7,53.4-119.2,119.1-119.2c65.8,0,119.2,53.3,119.1,119c-0.1,65.6-53.7,119-119.3,119
		C170.2,433.9,116.9,380.7,116.9,315.2z"/>
	<path class="st2" d="M263.8,277.5c-5.4-10.7-10.4-20.7-15.5-30.8c-1.3-2.5-2-5,0.3-7.3c2.7-2.6,6.5-1.7,8.5,2.2
		c5.4,10.5,10.8,21,15.9,31.7c1.7,3.6,3.8,4.7,7.7,4.6c10-0.3,20-0.2,30-0.1c6.8,0.1,10.1,3.4,10.2,10.2c0.1,3.5,0.1,7,0,10.5
		c-0.2,5.8-2.7,9-8.5,9.8c-2.7,0.4-3.1,1.7-3.4,3.9c-2.6,19.8-5.3,39.6-8,59.4c-1.2,8.8-7.7,14.7-16.7,14.7c-32.3,0-64.6,0-97,0
		c-8.9,0-15.3-5.8-16.5-14.8c-2.7-19.8-5.4-39.6-8-59.4c-0.3-2.2-0.8-3.4-3.5-3.8c-5.5-0.7-8.1-3.9-8.3-9.4c-0.1-3.8-0.1-7.7,0-11.5
		c0.2-6.1,3.6-9.4,9.8-9.5c10-0.1,20-0.3,30,0.1c4.4,0.2,6.4-1.4,8.2-5.3c4.7-10.1,9.8-20,14.7-30c1.6-3.3,3.8-6,7.7-4
		c3.9,2,3,5.4,1.4,8.6c-4.9,9.9-9.8,19.9-15,30.2C226.8,277.5,244.9,277.5,263.8,277.5z"/>
	<path class="st7" d="M236.2,308.2c19.3,0,38.7,0.1,58-0.1c4,0,5.3,1.1,4.7,5.1c-2.7,19.2-5.3,38.5-8,57.8c-0.5,3.6-2.3,5.2-6,5.1
		c-32.7-0.1-65.3-0.1-98,0c-3.7,0-5.5-1.6-6-5.1c-2.6-19.3-5.2-38.5-8-57.8c-0.6-3.9,0.7-5.2,4.7-5.1
		C197.2,308.3,216.7,308.2,236.2,308.2z"/>
	<path class="st7" d="M236,298.1c-23.3,0-46.6-0.1-69.9,0.1c-3.8,0-5.3-0.8-5.1-4.9c0.1-3.7,0.4-5.9,5-5.6c7,0.4,14,0.2,21,0.1
		c2.4,0,4.2,0.1,4.1,3.3c-0.1,2.5,1.8,4,4,4.5c2.3,0.5,4.6-0.5,5.3-2.8c1.6-5,5.1-5.1,9.4-5c18.2,0.2,36.3,0.1,54.5,0
		c3.4,0,5.7,0.6,7,4.1c0.9,2.5,3,4.2,5.8,3.7c2.7-0.5,4.4-2.4,4.2-5.4c-0.2-2.7,1.7-2.4,3.3-2.4c7.3,0,14.7,0.3,22-0.1
		c4.7-0.3,4.5,2.3,4.6,5.5c0.1,3.4-0.3,5.1-4.5,5c-16.6-0.2-33.3-0.1-50-0.1C249.7,298.2,242.9,298.2,236,298.1
		C236,298.2,236,298.1,236,298.1z"/>
	<path class="st2" d="M231,341.1c0-6.2,0.1-12.3,0-18.5c-0.1-3.5,1.3-6.2,4.9-6.3c3.9-0.1,5.2,2.8,5.2,6.5c-0.1,12.3,0,24.7,0,37
		c0,3.7-1.3,6.4-5.4,6.2c-4-0.1-4.6-3.1-4.6-6.4C231,353.4,231,347.2,231,341.1z"/>
	<path class="st8" d="M209.2,341.8c0,6.2,0,12.3,0,18.5c0,3.3-1,5.6-4.7,5.7c-3.6,0.1-5.1-2.5-5.2-5.5c-0.2-13-0.2-26,0-39
		c0-3.2,2.1-5.5,5.5-5.2c3.1,0.2,4.5,2.4,4.4,5.5C209.1,328.5,209.2,335.1,209.2,341.8z"/>
	<path class="st8" d="M262.8,341c0-6.3,0.1-12.7,0-19c0-3.4,1.3-5.7,4.7-5.7c3.3,0,5.2,2.4,5.2,5.6c0.1,12.8,0.1,25.6,0,38.5
		c0,3.3-1.6,5.9-5.5,5.7c-3.7-0.2-4.4-2.8-4.4-6C262.8,353.6,262.8,347.3,262.8,341z"/>
</g>
</svg>
