<?xml version="1.0" encoding="utf-8"?>
<!-- Generator: Adobe Illustrator 19.0.0, SVG Export Plug-In . SVG Version: 6.00 Build 0)  -->
<svg version="1.1" id="Calque_1" xmlns="http://www.w3.org/2000/svg" xmlns:xlink="http://www.w3.org/1999/xlink" x="0px" y="0px"
	 viewBox="0 0 612 792" style="enable-background:new 0 0 612 792;" xml:space="preserve">
<style type="text/css">
	.st0{fill:#EDEAA7;}
	.st1{fill:#2AA48F;}
	.st2{fill:#2D2E2D;}
	.st3{fill:#238676;}
	.st4{fill:#ECE9A7;}
	.st5{fill:#52544F;}
	.st6{fill:#3B3D3B;}
	.st7{fill:#434646;}
	.st8{fill:#424545;}
</style>
<g>
	<path class="st0" d="M68.7,455.9c-1.7-3.7-0.5-7.5-0.6-11.3c-0.9-31.2,3.4-61.6,13.7-91.1c10.4-29.8,26-56.7,46.7-80.6
		c21.4-24.8,46.6-44.5,75.7-59.3c23.5-12,48.5-19.8,74.7-23.7c15.3-2.3,30.7-3.5,46.2-2.8c31.8,1.4,62.4,8.2,91.6,21.1
		c20.8,9.2,40,21.1,57.5,35.6c24.7,20.5,44.8,44.9,60.1,73.2c12.1,22.4,20.5,46,25.4,71c3.8,19.7,5.5,39.5,4.3,59.5
		c-1.9,33.3-9.7,65.3-24.4,95.3c-9.7,19.8-21.7,38-36.2,54.7c-19,21.8-41.1,39.7-66.2,53.9c-1.9,1.1-3.9,1.8-5.9,2.7
		c-1.9-1.6-1.1-3.7-0.8-5.6c4.5-33.7,9.1-67.3,13.8-101c0.9-6.4,1.7-12.9,2.6-19.3c0.8-5.4,2.1-6.4,7.5-6.6c3.5-0.1,7,0.1,10.5-0.1
		c8.2-0.5,14.5-6.6,14.7-14.8c0.3-13.2,0.3-26.3,0-39.5c-0.2-8.8-7-15.2-16.3-15.7c-5.5-0.3-11-0.1-16.5-0.1c-25.7,0-51.3,0-77,0
		c-7.3,0-7.8-0.3-10.2-7c-16.3-43.9-32.1-87.9-48.3-131.9c-3.5-9.5-6.7-19.2-10.5-28.6c-3.1-7.5-7.8-9.8-15.5-7.2
		c-8.2,2.8-16.3,5.9-24.4,8.9c-8.8,3.4-11.5,8.9-8.4,17.6c5.1,14.3,10.3,28.5,15.5,42.8c11.9,32.4,23.6,64.8,35.5,97.1
		c2.5,6.8,1.7,8.1-5.4,8.1c-41.2,0-82.3,0-123.5,0c-7.6,0-8.5-1.5-5.9-8.7c17-46.6,34.1-93.2,51.1-139.9c3.3-9,1.1-13.9-7.6-17.4
		c-8.2-3.3-16.4-6.4-24.8-9.3c-7.9-2.7-13.2-0.1-16.2,7.8c-11.5,30.6-22.5,61.3-33.7,92c-8.2,22.4-16.4,44.7-24.5,67.1
		c-3.1,8.5-3.3,8.4-12.3,8.4c-7.5,0-15,0.2-22.5-0.1C74,451.2,70.5,451.7,68.7,455.9z"/>
	<path class="st1" d="M123.8,591.7c-10.4-13-19.9-26.5-27.2-41.5c2.4-2.5,5.6-1.7,8.5-1.7c48.1-0.1,96.2,0,144.4,0
		c50.1,0,100.2,0,150.4,0c10.5,0,10.9,0.5,9.5,10.7c-4.7,35-9.9,69.9-14.9,104.8c-0.4,2.5-0.7,5-2.5,6.9c-14.3,5.1-29,8.2-44,9.9
		c-2.1-2.4-1.5-5.4-1.5-8.1c0-32.1,0-64.3,0-96.4c0-2,0.1-4-0.1-6c-0.6-7.7-5.6-13.4-12.8-14.5c-7.2-1.2-14,2.6-17.2,9.3
		c-1.7,3.6-1.8,7.4-1.8,11.2c0,32.8,0,65.6,0,98.4c0,2.8,0.6,5.7-1.4,8.1c-20.1,0.1-39.9-2.6-59.3-8c-1.8-2.3-1.3-5.1-1.3-7.7
		c0-29.8,0-59.6,0-89.4c0-3.5,0-7-1.1-10.4c-2.3-7.4-8.7-12-16.1-11.7c-7.2,0.3-13,5.2-14.9,12.6c-0.8,3.1-0.8,6.3-0.8,9.4
		c0,25.6,0,51.3,0,76.9c0,2.6,0.6,5.4-1.6,7.6c-20-8-38-19.3-55-32.4c-1.5-1.2-3.2-2.3-4.7-3.4c-1-3.3-0.6-6.6-0.6-9.9
		c0-14.3,0.1-28.6-0.1-42.9c-0.1-10.4-6.6-17.5-15.7-17.9c-9-0.4-15.8,5.7-16.3,14.6c-0.3,5.1,0,10.3-0.1,15.5
		C125.4,587.7,125.8,590,123.8,591.7z"/>
	<path class="st2" d="M68.7,455.9c-0.6-4.5,0.9-6.2,5.9-5.9c9.8,0.5,19.7,0,29.5,0.2c3.6,0.1,5.1-1.1,6.3-4.4
		c19.4-53.6,39.1-107.1,58.6-160.6c4.2-11.4,9.4-13.9,20.6-9.8c7.8,2.9,15.6,5.7,23.4,8.7c8.6,3.3,11.5,9.5,8.3,18.2
		c-17.3,47.5-34.7,94.9-52,142.4c-2,5.4-2,5.4,4,5.4c41.8,0,83.6,0,125.5,0c1.6,0,3.3,0,5.5,0c-5-13.8-9.8-27-14.6-40.2
		c-12.9-35.3-25.8-70.5-38.7-105.8c-3.6-9.7-0.6-16,9.1-19.6c8.1-3,16.2-6.1,24.3-9c8.6-3.1,14.6-0.2,17.7,8.3
		c19.6,53.7,39.3,107.4,58.8,161.1c1.5,4.2,3.4,5.4,7.8,5.4c30.7-0.2,61.3-0.1,92-0.1c13.7,0,20.4,6.8,20.4,20.6c0,11.3,0,22.7,0,34
		c-0.1,11.3-7.1,18.4-18.4,18.6c-0.7,0-1.3,0-2,0c-12.2,0-12,0.1-13.7,12.1c-5.2,38.6-10.5,77.2-15.8,115.7c-0.1,1-0.1,2-0.1,3
		c-3.3,2.6-7,4.6-11.1,5.8c-2.1-3.2-0.7-6.5-0.3-9.7c3-21.9,6-43.9,9-65.8c2.4-17.5,4.8-35,7.2-52.4c1-7.1,0.8-7.4-6.4-7.4
		c-66.8,0-133.5,0-200.3,0c-45.5,0-90.9,0-136.4,0c-3,0-6,0.4-8.7-1.5c-1.3-3.2-2.9-6.4-3.2-9.9c2.1-2.3,4.9-1.8,7.5-1.8
		c14.5-0.1,29,0,43.5,0c101.9,0,203.9,0,305.8,0c1.3,0,2.7-0.1,4,0.1c6.3,0,12.7,0,19-0.1c6.1-0.1,8.3-2,8.5-8c0.3-11,0.3-22,0-33
		c-0.2-6.4-2.4-8.5-9.1-8.7c-7.7-0.2-15.3-0.3-23-0.3c-119.3,0-238.5,0-357.8,0c-2.8,0-5.7,0.2-8.5-0.3c-0.6-0.2-1.2-0.5-1.7-1
		C69.1,458.7,68.9,457.3,68.7,455.9z"/>
	<path class="st1" d="M442,513c-1.8,0-3.7,0.1-5.5,0.1c-118.5,0-237,0-355.5,0c-5.1-12.6-7.6-25.9-10-39.3
		c-0.8-4.6-1.2-9.2-1.8-13.8c0.3-0.1,0.5-0.1,0.8,0c1.9,0.8,4,0.4,5.9,0.4c120.2,0,240.5,0,360.7,0c8,0,8.8,0.8,8.9,8.8
		c0.1,11.7,0.1,23.3,0,35C445.6,507.6,445.5,511.1,442,513z"/>
	<path class="st3" d="M84.2,523.1c116.1,0,232.2,0,348.2-0.1c4.5,0,6.7,0.1,5.7,5.9c-2.7,15.8-4.7,31.8-6.8,47.7
		c-2.5,18.4-4.9,36.8-7.4,55.2c-1.3,9.4-2.6,18.7-3.9,28.1c-8.9,4.7-18.3,8.3-28.1,11c2.1-15.2,4.2-30.4,6.4-45.6
		c1.8-12.7,3.8-25.5,5.6-38.2c1.6-11,2.8-21.9,4.6-32.9c0.5-3.2,0-4.4-3.2-4.2c-0.7,0-1.3,0-2,0c-100.6,0-201.1,0-301.7,0
		c-1.7,0-3.3,0.1-5,0.2C91.5,541.6,87.7,532.4,84.2,523.1z"/>
	<path class="st2" d="M313.1,682.8c0-36.8,0-73.5,0-110.3c0-9.3,6.1-17,14.4-18.4c8.5-1.4,16.4,3,19.6,11.1c0.6,1.5,1,3.2,1,4.8
		c0,36.9-0.1,73.9-0.1,110.8c-3,0.4-5.9,0.7-8.9,1.1c-3.3-1.6-2.6-4.8-2.7-7.5c-0.1-13.3,0-26.6,0-39.9c0-19.1,0-38.3,0-57.4
		c0-2,0.1-4-0.2-6c-0.4-2.7-1.7-4.8-4.6-5c-3-0.3-5.1,1.2-6.2,4c-1,2.5-0.7,5.2-0.7,7.9c0,32.3,0,64.6,0,96.9c0,2.8,0.5,5.7-1.6,8.1
		C319.7,682.9,316.4,682.9,313.1,682.8z"/>
	<path class="st2" d="M217.9,662.1c0.1-13.3,0.2-26.6,0.2-40c0-16,0-32,0-48c0-12.2,7.1-20.2,17.9-20.2c10.5,0,17.7,8.1,17.7,19.9
		c0,33.7,0,67.3,0,101c-3-0.6-5.9-1.3-8.8-1.9c-3.1-2-2.5-5.2-2.5-8.2c-0.1-28.5,0-57,0-85.4c0-2.5,0.2-5-0.4-7.5
		c-0.8-3.3-2.4-6-6.3-5.9c-3.6,0.2-5.1,2.7-5.7,5.9c-0.5,2.5-0.4,5-0.4,7.5c0,26.5,0,53,0,79.4c0,2.8,0.6,5.7-1.7,8.1
		C224.4,665.5,220.7,664.7,217.9,662.1z"/>
	<path class="st0" d="M323,682.9c0-36.1,0.1-72.2,0.2-108.3c0-2-0.3-4,0.6-5.9c1.5-3.5,4.1-5.1,7.9-4.8c3.8,0.4,6,2.6,6.6,6.4
		c0.2,1.6,0.1,3.3,0.1,5c0,33.6,0,67.2,0,100.8c0,1.9-0.6,4,0.8,5.8C333.7,682.2,328.4,682.6,323,682.9z"/>
	<path class="st4" d="M227.9,666.9c0.1-2,0.4-4,0.4-5.9c0-28.6,0-57.2,0-85.9c0-1.8,0-3.7,0.4-5.4c0.8-3.4,3.1-5.4,6.7-5.7
		c3.8-0.3,6.5,1.6,7.6,5.1c0.6,1.8,0.6,3.9,0.6,5.9c0,30.6,0,61.2,0.1,91.9c0,2.1-0.7,4.4,1.2,6.1
		C239.3,670.9,233.6,668.9,227.9,666.9z"/>
	<path class="st2" d="M123.8,591.7c0-6.8-0.1-13.6,0-20.4c0.1-9.7,7.1-17,16.3-17.3c10-0.3,18.5,6.8,18.7,16.7
		c0.3,17.8,0.1,35.5,0.1,53.3c0,0.8-0.5,1.5-0.7,2.3c-3.5-2.4-6.5-5.3-9.4-8.3c-1.2-2.3-1.3-4.8-1.3-7.3c0-10.2,0-20.3,0-30.5
		c0-1.5,0-3,0-4.5c-0.1-6.7-2.3-10-6.5-9.9c-3.9,0.1-5.4,2.6-5.4,9.5c0,7,0.1,14-0.1,21c-0.1,2.1,0.7,4.9-2.4,5.9
		C130,598.7,126.9,595.2,123.8,591.7z"/>
	<path class="st0" d="M133,602.2c1.5-7.7,0.3-15.5,0.6-23.3c0.1-2.3,0-4.7,0-7c0.2-5.1,3-8.1,7.6-8c4.4,0,7.5,3.1,7.6,8.2
		c0.1,8,0.1,16,0,24c0,7.3,0,14.6-0.1,22C143.5,612.7,138.3,607.5,133,602.2z"/>
	<path class="st5" d="M303,415c-6-13.8-10.7-28.2-15.9-42.3c-8.6-23.2-17-46.4-25.5-69.6c-2.6-7.1-2.5-7.9,4.4-10.6
		c7-2.7,14-5.2,20.9-7.9c4.7-1.9,5.8,1.3,7,4.5c4.9,13.4,9.8,26.8,14.7,40.2c10.1,27.7,20.1,55.5,30.2,83.3c0.2,0.5,0.2,1,0.3,1.5
		c-0.1,2.1-1.8,2.3-3.2,2.4c-10.1,0.4-20.1,0.5-30.2,0C304.6,416.2,303.8,415.7,303,415z"/>
	<path class="st5" d="M133,414c7.5-20.9,15-41.9,22.5-62.8c7.5-20.8,15.1-41.5,22.7-62.2c2-5.6,2.8-6,8.3-3.9c7,2.7,13.9,5.4,21,7.8
		c4.2,1.4,5.5,3.5,3.9,7.8c-9.2,24.7-18.2,49.5-27.2,74.3c-4.4,12-8.7,24-13.1,36c-0.5,1.4-1.2,2.7-1.9,4c-1.6,1.4-3.6,1.6-5.6,1.6
		c-8.3,0.1-16.5,0.1-24.8-0.1C136.5,416.5,133.8,417.2,133,414z"/>
	<path class="st3" d="M442,513c1.6-2.6,2.1-5.5,2-8.6c-0.1-12.3,0-24.6-0.1-37c0-6.1-0.5-6.5-6.6-6.5c-120.4,0-240.8,0-361.1,0
		c-2.1,0-4.3,0.8-6.2-0.8c1.8,0,3.7-0.1,5.5-0.1c127.8,0,255.5,0,383.3,0.1c10.1,0,12.1,2,12.1,12.3c0,10.2,0,20.3,0,30.5
		c0,7.8-2.4,10.2-10,10.2C454.7,513.1,448.3,513,442,513z"/>
	<path class="st6" d="M303,415c10.3,0,20.6,0,30.9,0c1.7,0,3.7,0.6,5.2-1c4.1,10.8,8.1,21.6,12.2,32.4c1.1,2.8,0.2,3.6-2.5,3.6
		c-10.1,0-20.3,0-30.4,0c-1.8,0-3.3-0.4-3.9-2.3C311,436.7,305.9,426.2,303,415z"/>
	<path class="st6" d="M133,414c1.5,1.6,3.4,1,5.2,1c10.3,0.1,20.6,0,30.9,0c-3.7,10.8-7.5,21.5-11.2,32.3c-0.7,2-2,2.7-4.2,2.7
		c-10.1-0.1-20.2-0.1-30.4,0c-2.8,0-3.6-0.9-2.5-3.6C124.9,435.6,128.9,424.8,133,414z"/>
	<path class="st2" d="M350,508c-9.9,0-17.2-7.3-17.1-17.3c0.1-10.3,7.4-17.8,17.4-17.7c9.4,0,17.6,8,17.7,17.3
		C368,500.5,360.4,508,350,508z"/>
	<path class="st2" d="M122,508c-9.7,0-18-8.2-17.8-17.7c0.2-9.3,8.5-17.3,17.8-17.3c9.3,0,17.6,8.1,17.8,17.3
		C140,499.9,131.7,508,122,508z"/>
	<path class="st7" d="M357,491.2c-0.1,4.7-2.6,6.9-7.7,6.8c-4-0.1-7.5-3.8-7.2-7.8c0.2-3.9,3.7-7.2,7.6-7.2
		C353.8,483.1,357.1,486.7,357,491.2z"/>
	<path class="st8" d="M121.8,483c4.5-0.1,7.8,3.3,7.9,7.9c0,3.9-3.3,7-7.5,7.1c-4.4,0.1-7.9-3.1-8-7.3
		C114,486.8,117.7,483.1,121.8,483z"/>
</g>
</svg>
