<?xml version="1.0" encoding="utf-8"?>
<!-- Generator: Adobe Illustrator 19.0.0, SVG Export Plug-In . SVG Version: 6.00 Build 0)  -->
<svg version="1.1" id="Calque_1" xmlns="http://www.w3.org/2000/svg" xmlns:xlink="http://www.w3.org/1999/xlink" x="0px" y="0px"
	 viewBox="0 0 612 792" style="enable-background:new 0 0 612 792;" xml:space="preserve">
<style type="text/css">
	.st0{fill:#CAE7E0;}
	.st1{fill:#2AA48F;}
	.st2{fill:#2D2E2D;}
	.st3{fill:#CBC990;}
	.st4{fill:#C56E66;}
	.st5{fill:#EDEAA7;}
	.st6{fill:#E58076;}
	.st7{fill:#E6E7E2;}
	.st8{fill:#C25D55;}
	.st9{fill:#C7E3DD;}
	.st10{fill:#2FA692;}
</style>
<g>
	<path class="st0" d="M30.1,412.3c-1.4-35.4,4-69.7,16.9-102.8c9.6-24.7,22.8-47.3,39.7-67.6c20.5-24.6,44.8-44.8,73.1-60
		c22.4-12.1,46-20.5,71-25.4c19.6-3.8,39.5-5.5,59.4-4.4c33.6,2,65.9,9.8,96.2,24.8c19.3,9.5,37.1,21.3,53.4,35.4
		c19.2,16.5,35.5,35.5,48.7,56.9c16.7,27.1,28.2,56.3,33.5,87.8c2.7,16.3,4.4,32.6,3.8,49c-0.9,28.9-6.3,56.9-16.9,83.9
		c-8.2,20.9-18.9,40.3-32.2,58.2c-13.2,17.8-28.7,33.5-46.2,47.2c-16.6,13-34.6,23.5-53.7,32.1c-5.1,2.3-10.2,4.8-15.9,5.5
		c-1.4-2.2,0.4-3.8,1.3-5.4c16.8-28.8,33.6-57.5,50.3-86.4c8.3-14.4,17.8-28.2,23.5-44c5-13.8,7.7-28,7.5-42.6
		c-0.2-12.4-3-24.4-6.4-36.3c-0.2-0.8-0.5-1.6-0.7-2.4c-1.1-4.8,0.2-6.3,5-5.4c6.7,1.3,13.3,3.2,20,4.4c9.7,1.8,19.6-3.6,23-12.6
		c3.5-9-0.6-20.2-9.1-25.2c-2.6-1.5-5.5-2.4-8.4-3.1c-12.4-2.7-24.7-5.7-37-8.3c-5.1-1.1-7.8-3.7-9.3-8.9
		c-5.9-20.9-18.7-36.1-39.8-42.6c-27.5-8.5-55.3-16.5-83.5-22.3c-28.2-5.8-55.4-0.9-80.5,13.6c-60.5,34.9-120.8,69.9-181.3,104.7
		C33.9,411.4,32.3,412.6,30.1,412.3z"/>
	<path class="st1" d="M168.9,622.7c-41.3-20.1-74.1-49.7-99.2-88c-22-33.6-34.3-70.6-38.6-110.4c-0.1-0.5,0-1,0-1.5
		c1-2.4,3.3-3.3,5.3-4.4c37.7-21.7,75.3-43.5,113-65.2c22.7-13.1,45.4-26,67.9-39.3c17.6-10.4,36.4-16.5,56.8-17.2
		c11.7-0.4,23.2,2,34.5,5.2c21.7,6,43.4,11.9,65.2,17.5c18.1,4.7,30.5,15.7,37.7,32.8c0.6,1.4,1.1,2.8,1.3,4.3c0.3,3-1,4.7-4,4.2
		c-5.9-1.1-11.8-2.1-17.5-4.2c-2.3-0.8-3.4-3.1-5-4.8c-13.9-15.7-35.6-15.8-48.8,0.1c-8.2,9.9-9.7,21.3-4.1,32.8
		c5.4,10.9,14.2,17.8,27.2,18c5.8,0.1,11.3-0.7,16.3-3.7c1.4-0.8,3-1.9,4.6-1.7c7.8,0.9,15.4,2.7,22.9,5.1c3.2,1,2.6,4.2,1.9,6.9
		c-2.5,10.2-5.2,20.3-8,30.5c-2.7,10-4.8,20.1-8.7,29.7c-9.7,23.5-25.8,41.2-47.9,53.9c-45.1,25.8-90.1,51.9-135.1,77.8
		C194.2,608.5,181.8,616.1,168.9,622.7z"/>
	<path class="st2" d="M168.9,622.7c1.4-3,4.6-3.7,7.1-5.1c55.5-32.1,111.1-64,166.5-96.1c25.4-14.7,42.2-36.3,50-64.6
		c4.5-16.2,8.5-32.5,12.9-48.6c0.9-3.4,0.3-5-3.4-5.3c-2-0.2-3.9-0.8-5.8-1.3c-8.1-2.3-15.5-2.9-24.2,0.7
		c-12.8,5.3-25.3,1.6-34.7-9.3c-9-10.4-10.9-22.4-5.1-34.9c5.6-12.2,15.5-18.8,29.2-19.2c11-0.4,19.8,4.2,26.4,12.7
		c2.4,3.1,5,4.5,8.5,5.3c3.9,0.8,7.8,1.5,11.7,2.6c4.4,1.2,4.6-0.5,3.4-3.9c-5.9-16.8-17-28.6-34.3-33.5
		c-25.7-7.3-51.5-14.5-77.5-20.8c-28.8-7-55.6-1-81,13.7c-61.3,35.6-122.8,70.9-184.3,106.4c-1,0.6-2.1,1.1-3.1,1.6
		c-0.3-3.5-0.7-7.1-1-10.6c28.2-16.4,56.3-32.8,84.5-49.1c32.7-18.9,65.5-37.6,98-56.7c31.1-18.2,63.7-22.7,98.4-12.7
		c21.9,6.3,44,11.8,65.9,17.8c24,6.5,38.6,22.4,45.2,46c1.1,4,2.6,6,6.9,6.9c13.8,2.8,27.6,6,41.3,9.5c10.9,2.7,17,11.9,16.4,23.7
		c-0.5,9.4-8.5,17.5-18.8,19.1c-3.6,0.6-7-0.3-10.4-1c-5.4-1.2-10.7-2.3-16-3.7c-4.1-1.2-5.6-1.1-4.1,4c2.2,7.3,4.2,14.7,5.4,22.3
		c4.5,28.1-0.7,54.3-14.9,78.8c-21.6,37.1-43.2,74.1-64.8,111.2c-0.9,1.6-1.6,3.2-2.4,4.8c-4.3,2.8-9.2,3.9-14.1,5.1
		c-1.4-2.8,0.6-4.8,1.8-6.8c7.6-12.9,14.9-25.9,22.6-38.8c16.7-28.6,33.8-57,49.8-86c12.4-22.6,15.8-47.1,10.3-72.6
		c-1.6-7.2-3.4-14.4-5.7-21.5c-0.3,10.8-0.3,21.6-0.3,32.4c0,33.5-11.8,62.1-35.5,85.8c-26.2,26.3-52.5,52.5-78.8,78.8
		c-10.6,10.6-20.5,21.8-31.2,32.4c-4.2,4.2-8.4,6.9-14.4,5.9c-2.2-0.5-5.4,1.3-6.3-1c-0.9-2.2,2-3.8,3.6-5.5
		c18.8-20.1,38.4-39.4,57.8-58.9c17.9-17.9,36-35.6,53.7-53.8c11.7-12,23-24.5,29.6-40.5c5.3-13,8.4-26.3,8.9-40.2
		c0.3-9-0.4-17.9,0.3-24.4c-2.3,10.9-5.9,24-9.6,37.1c-9.6,33.3-30.2,57.4-60.4,74.3c-35.8,20-71.1,40.8-106.5,61.4
		c-17.4,10.1-35,20-52.4,30.2c-1.6,0.9-3.2,1.8-5.2,1.1C175.5,625.7,172.2,624.2,168.9,622.7z"/>
	<path class="st3" d="M178.8,627.2c13.3-7.5,26.6-15,39.9-22.6c41.8-24.1,83.4-48.5,125.4-72.2c31.5-17.8,51.3-44.1,59.8-79.1
		c2.9-11.7,6.1-23.3,9.5-34.9c0.4,21,1.9,41.9-5.5,62.2c-5.3,14.6-12.8,27.8-23.6,39c-20.6,21.1-41.4,42-62.1,63
		c-0.3,0.3-0.8,0.6-1.2,0.8c-12.7,6.9-25,14.4-37.5,21.5c-20,11.5-39.9,23.1-60,34.7c-1.5,0.9-3,1.3-4.7,1.5
		C205,637.9,191.6,633.6,178.8,627.2z"/>
	<path class="st4" d="M265,647.2c5.3,0.9,8.8-1.7,12.5-5.3c37.5-38.1,75.3-75.9,112.9-113.9c22.2-22.5,33.2-49.8,33.6-81.3
		c0.1-11.2-0.1-22.3,0-33.5c0-1.6-0.6-3.3,0.6-4.7c1.5-0.1,1.9,1,2.1,1.8c3.8,14.6,8.4,29,8.4,44.4c0,20.1-4.8,38.8-14.9,56.2
		c-15.5,26.6-30.9,53.3-46.3,79.9c-0.5,0.8-1.1,1.6-1.7,2.4c-15.5,15.2-30.7,30.6-46,45.9c-1.9,1.9-3.9,3.6-6,5.1
		c-10.2,2.7-20.6,3.1-31,3.7c-7.9,0.4-15.9,0-23.9,0c-0.4-0.1-0.6-0.2-0.5-0.4C264.7,647.3,264.9,647.2,265,647.2z"/>
	<path class="st5" d="M265,647.2c0,0.2,0,0.4,0.1,0.6c-15.7-0.4-31.1-2.5-46.2-6.9c17.4-10.2,34.9-20.4,52.4-30.6
		c15.5-9,31-17.9,46.5-26.8c1-0.6,2-2.2,3.2-0.3c-19.4,19.7-38.8,39.4-58.2,59.1c-1.3,1.3-2.4,2.6-4.2,4.5
		C261.2,646.9,263.1,647.1,265,647.2z"/>
	<path class="st6" d="M320,644.1c1.1-2.5,3.4-4.1,5.3-5.9c14.2-14.3,28.4-28.5,42.7-42.7c1.1-1,1.6-3.4,4.1-2.4
		c-7.4,12.9-14.9,25.8-22.3,38.8c-1.1,2-2.9,3.7-2.9,6.2C338.1,641,329.2,643.2,320,644.1z"/>
	<path class="st7" d="M99.8,478.9c5.5-0.1,10.2,2.2,15,4.6c2.8,1.4,1.7,4.1,3.8,5.8c2.4,2,0.4,5.7-1.2,8.2c-3,4.6-9.2,4.9-14.5,1.1
		c-4.9-3.6-16.3,0.4-17.9,6.3c-1.1,4.2,3,8.1,7.5,7c4.7-1.2,9.2-2.8,13.8-4.2c3.5-1.1,7.1-1.7,10.8-1.8
		c17.9-0.4,29.2,15.8,22.5,32.4c-5.5,13.8-25.1,24.2-38.9,20.9c-5.4-1.3-9.8-4.2-13.6-8c-4.5-4.5-2.3-9.1,2.7-12.9
		c5.8-4.3,8.9-1.2,12.9,1.6c5.8,4.1,18.9-0.9,20.7-7.9c1.2-4.7-3.4-9.4-8.1-8.1c-6.2,1.7-12.3,4.2-18.6,5.6
		c-14.7,3.4-26.9-4.5-29.4-18.7c-1-5.5,0.5-10.6,3.3-15.3C76.3,485.8,88.6,478.9,99.8,478.9z"/>
	<path class="st7" d="M323.1,433c0,3.6-1.5,6.4-4.7,8.2c-9.7,5.5-19.3,11.2-29,16.6c-8.2,4.5-15.3,2.5-19.9-5.5
		c-8.2-14.3-16.4-28.5-24.5-42.9c-5.2-9.3-3.3-16,5.9-21.3c8.8-5.1,17.6-10.1,26.4-15.1c5.2-2.9,11-1.7,13.5,2.8
		c2.4,4.3,0.6,9.7-4.4,12.6c-6.9,4-13.8,8.1-20.8,11.9c-2.8,1.5-3.6,2.9-1.6,5.6c0.8,1,1.5,2.2,2,3.4c1.2,3.1,2.8,2.9,5.3,1.3
		c5.8-3.5,11.8-6.8,17.7-10.2c4.7-2.7,10.4-1.5,12.8,2.6c2.5,4.2,0.9,9.4-4,12.3c-5.8,3.5-11.7,6.9-17.8,10.2
		c-2.6,1.4-3.2,2.5-1.6,5.3c5.5,9.8,5.4,9.9,15.1,4.2c5.5-3.2,10.8-6.5,16.4-9.5C316,422.1,323.1,426.4,323.1,433z"/>
	<path class="st7" d="M138.8,459.9c0.2-5.3,2.2-9.2,6.6-11.4c4.8-2.4,9.3-1.3,13.5,2c16.5,13.2,33.1,26.4,49.6,39.5
		c4.1,3.3,4.7,8.3,1.5,12.7c-2.8,3.9-8.8,4.9-12.9,1.9c-3.4-2.5-6.6-5.1-9.7-7.9c-1.9-1.7-3.5-2.1-5.7-0.7c-5.1,3.1-10.3,6.1-15.5,9
		c-1.9,1.1-2.4,2.3-2,4.5c0.8,4.1,1.4,8.2,2.1,12.3c0.9,5.5-2.2,10.6-7,11.5c-5.3,1-10.2-2.5-11-8.3c-2.8-19.2-5.6-38.5-8.3-57.8
		C139.5,464.7,139.2,462.1,138.8,459.9z"/>
	<path class="st7" d="M227.5,491.1c-5.5,0.2-9.1-2.7-11.6-6.8c-9.7-16.5-19.3-33-28.8-49.6c-2.5-4.4-0.7-10.1,3.5-12.6
		c4.5-2.6,10-1.1,12.8,3.8c8,13.8,16.1,27.6,23.8,41.6c2,3.6,3.5,3.7,6.8,1.6c6.4-4.1,13.1-7.9,19.7-11.7c5.1-2.9,11.1-1.6,13.6,2.9
		c2.3,4.3,0.5,10-4.3,12.8c-9,5.3-18.1,10.5-27.2,15.7C233.2,490.3,230.5,491.4,227.5,491.1z"/>
	<path class="st8" d="M476.9,394.9c0.1,7.8-6.8,13.2-14.5,11.5c-32.8-7.5-65.7-14.9-98.5-22.4c-7.4-1.7-12.1-7.8-10.6-13.8
		c1.8-7.5,7.7-10.9,15.5-9.1c32,7.3,64,14.6,96,22C472.9,384.8,476.8,388.7,476.9,394.9z"/>
	<path class="st9" d="M357,392.9c-8.1-1.7-13.7-6.6-16.4-14.5c-3.1-9.3-0.7-17.4,6.4-23.9c6.8-6.3,14.8-7.1,24.1-4
		c-14.5-0.3-23,4.8-26.3,15.2C341.6,376,345.7,385,357,392.9z"/>
	<path class="st10" d="M161.2,488c-1.4-4.5-1.8-8.9-2.4-14.4c4.1,3.3,7.6,6.1,11.2,9C167.2,485.1,164.3,486.5,161.2,488z"/>
</g>
</svg>
