<?xml version="1.0" encoding="utf-8"?>
<!-- Generator: Adobe Illustrator 19.0.0, SVG Export Plug-In . SVG Version: 6.00 Build 0)  -->
<svg version="1.1" id="Calque_1" xmlns="http://www.w3.org/2000/svg" xmlns:xlink="http://www.w3.org/1999/xlink" x="0px" y="0px"
	 viewBox="0 0 612 792" style="enable-background:new 0 0 612 792;" xml:space="preserve">
<style type="text/css">
	.st0{fill:#DFDFD0;}
	.st1{fill:#C65C5C;}
	.st2{fill:#BAB9AD;}
</style>
<g>
	<path class="st0" d="M285,120c10.7,0,21.3,0,32,0c6.7,0.9,13.5,0.6,20.3,1.2c19.8,1.7,38.6,7.2,56.9,14.5
		c59.2,23.6,104.1,63.4,134.4,119.5c13.2,24.4,22,50.2,26.4,77.6c1.1,7,1.3,14.2,1.5,21.3c0.1,1.9-0.6,4,0.5,5.8c0,10.7,0,21.3,0,32
		c-0.9,6.7-0.6,13.5-1.2,20.3c-1.7,19.3-6.9,37.7-13.9,55.5c-24.1,61.4-65.5,107.5-124,137.9c-23.2,12.1-47.8,20.3-73.6,24.3
		c-7.1,1.1-14.2,1.3-21.3,1.5c-1.9,0.1-4-0.6-5.8,0.5c-10.7,0-21.3,0-32,0c-6.7-0.9-13.5-0.6-20.3-1.2c-19.8-1.7-38.6-7.2-56.9-14.5
		c-59.2-23.6-104.1-63.4-134.4-119.5c-13.2-24.4-22-50.2-26.4-77.6c-1.1-7-1.3-14.2-1.5-21.3c-0.1-1.9,0.6-4-0.5-5.9
		c0-10.7,0-21.3,0-32c0.9-6.7,0.6-13.5,1.2-20.3c1.7-19.8,7.3-38.6,14.4-56.9c12.3-31.5,30-59.6,53.5-84.1
		c39.5-41.3,87.3-67,143.6-76.7c7-1.2,14.2-1.3,21.3-1.5C281.1,120.4,283.1,121.1,285,120z"/>
	<path class="st1" d="M142.1,412c-2.9-9.3,0.1-16.7,6.9-23.4c46.8-46.6,93.4-93.3,140-140c5.8-5.9,12.2-8.8,20.8-8.7
		c38.3,0.3,76.7,0.1,115,0.2c9.3,0,12.2,2.9,12.2,12.3c0,39.7,0,79.3,0,119c0,1.8-0.1,3.7-0.2,5.5c-0.6,5.7-4.4,9.6-8.1,13.3
		c-25.8,25.8-51.6,51.6-77.4,77.4c-19.9,19.9-39.8,39.8-59.7,59.7c-1.8,1.8-3.5,3.6-5.4,5.1c-8.5,6.8-18.9,6.9-27.7,0.4
		c-1.9-1.4-3.5-3.1-5.2-4.7c-33.8-33.8-67.6-67.6-101.4-101.4C147.7,422.4,143.2,418.3,142.1,412z"/>
	<path class="st2" d="M142.1,412c2.3,4.3,5.5,7.9,8.9,11.3c35,35,69.9,70,104.9,105c10.6,10.6,21.6,10.6,32.2,0
		c46.8-46.8,93.5-93.5,140.3-140.3c3.3-3.3,6-7.1,8.3-11.1c0.1,4.3,0.2,8.7,0.2,13c-0.1,5.5-3.7,9.3-7.1,12.8
		c-47.6,47.8-95.3,95.5-143.1,143.2c-9.3,9.3-20.9,8.5-31.2-1.8c-28.4-28.4-56.8-56.8-85.2-85.2c-5.9-5.9-11.7-11.9-17.7-17.6
		C144.1,433.1,138.3,424.3,142.1,412z"/>
	<path class="st2" d="M383.1,287c-3.8-6.9-2.3-14.4,3.9-19.6c5.6-4.6,14.3-4.6,19.9,0c6.3,5.2,7.8,12.6,4,19.6
		c-2.1,0.7-3.3-0.9-4.8-1.9c-6.3-4.4-11.9-4.4-18.2,0C386.5,286.1,385.2,287.7,383.1,287z"/>
	<path class="st0" d="M383.1,287c5.7-5.8,12.1-9,20.4-5.7c3.1,1.2,4.7,4.1,7.4,5.7c-2.5,6.5-7.8,9-14.1,8.9
		C390.6,295.8,385.5,293.2,383.1,287z"/>
</g>
</svg>
