<?xml version="1.0" encoding="utf-8"?>
<!-- Generator: Adobe Illustrator 19.0.0, SVG Export Plug-In . SVG Version: 6.00 Build 0)  -->
<svg version="1.1" id="Calque_1" xmlns="http://www.w3.org/2000/svg" xmlns:xlink="http://www.w3.org/1999/xlink" x="0px" y="0px"
	 viewBox="0 0 612 792" style="enable-background:new 0 0 612 792;" xml:space="preserve">
<style type="text/css">
	.st0{fill:#58537C;}
	.st1{fill:#EC6A63;}
	.st2{fill:#EE6B64;}
	.st3{fill:#9AD1AE;}
	.st4{fill:#DCDBE4;}
	.st5{fill:#FDFDFD;}
	.st6{fill:#C1C0D0;}
	.st7{fill:#EF6B65;}
	.st8{fill:#EE6B65;}
</style>
<g>
	<path class="st0" d="M175,391.5c0-57,0-114,0-171c0-12,4.6-16.6,16.5-16.6c11.2,0,22.3,0,33.5,0c8.5,0,14,5.5,14,14
		c0,115.6,0,231.3,0,346.9c0,9.9-5.1,15-15,15c-11.7,0-23.3,0-35,0c-8.6,0-14-5.4-14-14C175,507.8,175,449.6,175,391.5
		C175,391.5,175,391.5,175,391.5z"/>
	<path class="st0" d="M442.1,384.6c1.8,13.2,6.5,25.4,11.8,37.5c9.6,21.9,12.5,45.1,12.3,68.8c-0.1,10.2,0.2,20.3-2.3,30.3
		c-3,11.6-9.8,19.1-21.7,22.3c-15.5,4.1-31.3,6.4-47.3,7.2c-3.4,0.2-4,1.5-3.9,4.5c0.2,7.8,0,15.7,0.1,23.5c0,2.8-0.6,5.3-3.8,5.4
		c-3.5,0.1-4.3-2.4-4.2-5.4c0.1-7.8-0.2-15.7,0.1-23.5c0.1-3.4-1.1-4.1-4.2-4.1c-16.5-0.4-32.8-2.5-48.9-6.6
		c-13.4-3.5-21-11.9-24.1-25.1c-3.4-14.6-2.9-29.4-2.5-44.2c0.6-18.4,4.9-35.9,12.1-52.7c5.1-12,9.9-24,11.6-37
		c3.5-0.2,6.3,1.1,8,4.3c1,7.4-1.9,14.1-4.2,20.8c-3.4,9.9-7.8,19.4-11.4,29.3c-4.9,13.5-6.4,27.5-6.9,41.6
		c-0.4,9.8-0.5,19.6,1,29.3c1.6,10.4,4.3,20,16,23.6c22.8,6.7,46,8.8,69.6,6.9c14.2-1.1,28.1-3.1,41.8-7c7.1-2,11.3-6.6,13.6-13.4
		c1-2.9,1.8-5.8,1.9-8.8c0.8-29,1.3-58-11.4-85.3c-4.6-9.9-8.8-20.2-10.6-31.1c-0.4-2.3-0.9-4.6-0.2-6.9
		C435.8,385.1,438.9,384.7,442.1,384.6z"/>
	<path class="st0" d="M327.1,380.2c-2.7-30.6-12-59.5-23.4-87.8c-3-7.4-6.1-14.8-5.8-23c0.3-7.7,2.8-11.7,10.1-14.3
		c13.5-4.8,27.1-9.1,40.5-13.9c11.1-4,12.9-6.4,12-18C359.8,212,365,208.7,374,207c8.5-1.6,16.9-1.6,25.2,1c7.3,2.4,9.8,6,9.9,13.6
		c0.1,15.3,0.4,15.9,15,20.9c11.2,3.8,22.4,7.4,33.7,10.9c11.1,3.5,15,7.5,12.8,22.4c-1.6,11-7.5,20.5-11.1,30.9
		c-8.4,23.9-15.4,48.1-17.5,73.5c-2.9-0.2-5.9,0.5-8.5-1.5c-0.7-8.9,1.3-17.5,3-26.1c4.7-22.9,11.8-45,21.1-66.4
		c1.9-4.4,3.5-9,4.4-13.7c0.7-3.6,0-6.6-3.4-8.5c-9.6-4.4-19.9-6.5-29.8-10c-5.7-2-11.3-3.9-16.9-6.2c-8.1-3.4-12.3-9.3-12.2-18.2
		c0-1.5,0-3,0-4.5c0-7.7-1.2-9.1-8.7-9.6c-5-0.3-10-0.5-15,0.3c-3.7,0.5-5.7,2.5-5.5,6.4c0.1,1.3,0,2.7,0,4
		c-0.1,12.3-4.4,18.5-16.1,23c-12.4,4.8-25.2,8.7-37.8,13c-1.7,0.6-3.5,1.1-5.2,1.9c-4.4,1.8-5.2,5.2-4.2,9.5
		c1.2,5.1,3.1,9.9,5,14.6c8.6,20.8,15.6,42.1,20.4,64.2c1.6,7.5,2.4,15.1,3.6,22.7c0.3,1.6,0.2,3.3-0.7,4.8
		C332.7,381.4,329.9,380.4,327.1,380.2z"/>
	<path class="st0" d="M300,376c-5.8-5.9-10.8-11-15.9-16.1c-2.1-2.1-4.3-4.4-1.4-7.1c2.5-2.4,4.8-0.7,6.9,1.3
		c8,7.5,15.2,15.8,23.7,22.8c2.6,2.1,2.6,5.3-0.5,6.5c-4.2,1.6-6.6,4.9-9.5,7.7c-4.9,4.5-9.6,9.3-14.3,13.9c-2.1,2-4.3,2.8-6.5,0.5
		c-2-2.2-1.1-4.3,0.8-6.1c4.8-4.8,9.6-9.6,15.2-15.2c-3.6,0-6.5,0-9.4,0c-8.8,0-17.6,0-26.5,0c-3.2,0-7.5,0.8-7.4-4.2
		c0.1-4.6,4.1-3.8,7.2-3.8C274.6,376,286.9,376,300,376z"/>
	<path class="st0" d="M467.6,376c12.4,0,24.8,0,37.3,0c2,0,4-0.2,5.4,1.8c0.8,1.2,1,2.4,0.4,3.8c-1,2.1-2.8,2.5-5,2.5
		c-12.1,0-24.3,0-37.8,0c4.5,4.5,8.3,8.3,12,12c1.2,1.2,2.3,2.4,3.5,3.6c1.7,1.8,2.4,3.7,0.6,5.7c-2,2.2-4.1,1.9-6.1,0
		c-4.2-4.1-8.3-8.2-12.4-12.3c-3.4-3.4-6.8-6.8-10.3-10.1c-2.4-2.2-2.8-4.5-0.4-6.9c7.5-7.5,15.1-15,22.7-22.5
		c1.9-1.9,4.1-2.6,6.2-0.7c2.4,2.1,1.5,4.5-0.5,6.5c-5.3,5.2-10.7,10.4-16.1,15.7C467.2,375.2,467.4,375.6,467.6,376z"/>
	<path class="st1" d="M434.2,379c2.7-0.5,5.5-1.2,7.8,1.1c0,1.5,0.1,2.9,0.1,4.4c-2.1,2-5.1,1.9-7.4,3.5c-1.8,1.9-4,2.4-6.2,1.1
		c-2.1-1.2-2.8-3.2-2.4-5.5c0.4-2.7,2.5-3.7,4.8-4.4C431.9,378.8,433,378.8,434.2,379z"/>
	<path class="st2" d="M327.1,380.2c2.5-2.1,5.2-0.9,7.9-0.3c3.4-1.3,5.8,0.3,7.4,3.1c1.1,1.9,0.7,3.9-0.9,5.4c-2.1,2-4.5,2.7-7,0.4
		c-2.5-1.2-5-2.5-7.5-3.7C326.5,383.4,326.7,381.8,327.1,380.2z"/>
	<path class="st3" d="M183,392c0-56.8,0-113.7,0-170.5c0-9.5,0-9.5,9.8-9.5c10.7,0,21.3,0.1,32,0c4.5-0.1,6.3,1.6,6.3,6.1
		c-0.2,13.8-0.2,27.7,0,41.5c0,3.5-1,4.7-4.5,4.5c-3.6-0.3-7.3-0.1-11-0.1c-2.5,0-4.3,1.2-4.5,3.7c-0.1,2.8,1.7,4.2,4.4,4.2
		c4,0.1,8,0.1,12,0c2.6-0.1,3.6,0.7,3.5,3.4c-0.3,5.3,1.6,12-1,15.5c-2.5,3.4-9.6,0.8-14.7,1.1c-3.8,0.2-7.7,0-11.5,0
		c-2.7,0-4.7,1.1-4.7,4c0,2.8,2,4,4.7,4c7.7,0,15.3,0.1,23-0.1c3.2-0.1,4.5,0.8,4.3,4.2c-0.3,4.1-0.2,8.3,0,12.5
		c0.1,2.6-0.9,3.5-3.5,3.4c-3.8-0.2-7.7,0-11.5-0.1c-2.9,0-5.1,1.1-5,4.2c0.1,2.8,2.2,3.8,4.9,3.8c3.8,0,7.7,0.1,11.5,0
		c2.5-0.1,3.8,0.7,3.5,3.4c0,0.2,0,0.3,0,0.5c-0.1,5,1.6,11.2-0.7,14.7c-2.6,3.9-9.2,1-14,1.4c-2.8,0.2-5.2,0.9-5.1,4.1
		c0,3.2,2.4,4,5.2,4c3.8,0,7.7,0.1,11.5-0.1c2.4-0.1,3.2,0.9,3.2,3.2c-0.1,5.8-0.1,11.7,0,17.5c0.1,2.7-1,3.5-3.5,3.4
		c-3.8-0.1-7.7,0-11.5-0.1c-2.7,0-4.8,1-4.9,3.8c-0.1,3.2,2.1,4.2,5,4.2c4,0,8,0.1,12,0c2.2-0.1,2.8,0.8,3,2.9
		c1.6,17.1,1.6,17.1-15.3,17.1c-4,0-8,0-12,0c-2.7,0-4.7,1.2-4.6,4.1c0.1,2.9,2.1,3.9,4.8,3.9c7.7,0,15.3,0.2,23-0.1
		c3.4-0.1,4.3,1.1,4.2,4.3c-0.2,5.2-0.3,10.3,0,15.5c0.2,3.7-1.3,4.6-4.6,4.3c-3.5-0.2-7-0.1-10.5-0.1c-2.7,0-4.8,1-4.9,3.8
		c-0.1,3.2,2.2,4.2,5,4.2c3.8,0,7.7,0.2,11.5,0c2.7-0.1,3.5,0.9,3.4,3.5c-0.2,4.3-0.2,8.7,0,13c0.1,3-1.2,3.7-3.9,3.6
		c-3.7-0.2-7.3,0-11,0c-2.9,0-5.1,1-5,4.2c0.1,2.8,2.2,3.9,4.8,3.9c3.8,0,7.7,0.1,11.5-0.1c3-0.2,3.6,1.2,3.6,3.8
		c-0.1,5.5-0.2,11,0,16.5c0.1,2.8-0.8,3.9-3.7,3.8c-3.7-0.2-7.3,0-11-0.1c-2.8,0-5.2,0.7-5.3,3.9c-0.1,3.2,2.2,4.1,5.1,4.1
		c3.7,0,7.3,0.2,11,0c3.2-0.2,4,1.2,3.8,4.1c-0.2,4-0.2,8,0,12c0.2,3-0.8,4.1-3.9,4c-7.3-0.2-14.7,0-22-0.1c-3.1,0-6.1,0.4-6,4.2
		c0.1,3.5,3,3.8,5.9,3.8c7.5-0.1,15,0.1,22.5-0.1c2.5,0,3.6,0.7,3.5,3.4c-0.1,9.2-0.1,18.3-0.1,27.5c0,3.5-1.6,5.2-5.2,5.2
		c-12.5,0-25-0.1-37.5,0c-5.1,0-5.4-3.2-5.4-7c0-43.7,0-87.3,0-131C183,420,183,406,183,392z"/>
	<path class="st4" d="M434.2,379c-1.2,0.5-2.4,1.2-3.6,1.6c-2.9,0.8-4.4,2.6-3.5,5.5c0.9,2.7,3,3.3,5.7,2.2c0.6-0.2,1.3-0.1,2-0.2
		c1.1,14.4,7,27.4,12.5,40.3c12.1,28.4,12.5,57.9,9.7,87.8c-1,10.4-7.1,17-17.7,19.6c-36.4,9.1-72.7,9.7-109.1,0
		c-0.5-0.1-0.8-0.5-1.2-0.8c1.1-6.3-0.6-12.6-0.8-18.9c-0.7-21.9-2.1-43.9,3.5-65.5c2.3-8.7,5.6-17.1,8.3-25.6
		c8.1-25.5,10.6-51.4,4.7-77.8c-1.7-7.7-4.7-14.9-8.1-22c-1.1-2.2-2.7-4.3-1.9-7c1.1-1,2.2-0.4,3.2,0.1c8.7,4.4,18.1,5.2,27.7,5.2
		c16,0,31.9,0,47.9,0c1.8,0,3.7,0,5.5-0.1c10.6-0.6,17.7-5.4,20.9-16c4.1-13.4,10.3-26,15.4-39c0.8-2.1,1.6-4.4,3.7-5.8
		c4.9,1.1,5,4.8,4.6,8.6c-0.7,5.8-2.9,11.2-5.2,16.6c-10.9,25.5-18.8,51.8-23.1,79.2C434.7,371.1,434.5,375.1,434.2,379z"/>
	<path class="st5" d="M334.9,318c2.4,5.5,5,10.8,7.2,16.4c4,10.4,6.4,21.1,6.9,32.4c1.1,24.4-3.1,47.8-11.9,70.5
		c-5.7,14.6-8.2,30-8.1,45.7c0,13.6-0.3,27.3,1,40.8c0.2,2.5,0.7,4.9,1,7.4c0.2,1.7,0.3,3.5-2.1,3.8c-12.4-3.3-15.6-13.4-16.7-24.1
		c-3.2-30.4-0.9-60.1,12.2-88.4c5-10.7,9-21.8,10.2-33.8c1,0.1,2,0.1,3,0.2c2.3,0.2,3.9-0.7,4.5-3c0.5-2.3-0.7-3.8-2.7-4.7
		c-1.4-0.6-2.8-1-4.2-1.4c-1.2-20.4-6.4-39.9-12.4-59.3c-3.9-12.4-8.4-24.5-13.6-36.3c-1.8-4.1-3.3-8.4-3.6-12.9
		c-0.3-4.1,0.6-7.7,5.5-8.6c3.4,0.3,3.3,3.3,4,5.5c4.8,14.6,10,28.9,16.9,42.6C333,313.2,335.1,315.1,334.9,318z"/>
	<path class="st6" d="M334.9,318c-7.8-11.1-11.9-24-17-36.4c-2.6-6.2-3-13.3-7.1-18.9c14.3-4.9,28.6-9.7,42.8-14.9
		c12.2-4.5,15.8-10.1,15.4-23.1c0-1.3-0.1-2.7-0.2-4c-0.3-3.4,1.1-5.3,4.5-5.9c7.6-1.3,15.2-1.4,22.8,0.1c3.4,0.7,5.4,2.5,4.9,6.3
		c0,0.3,0,0.7,0,1c-1.7,19.6,5.4,22.6,19,27.2c11.5,3.9,23,7.6,34.6,11.4c1.5,0.5,3,1.3,4.5,1.9c-5,12.3-9.9,24.6-14.9,36.9
		c-1.1,2.8-2.1,5.6-3,8.4c-4.1,11.8-9.9,16.6-22.3,16.8c-20.3,0.3-40.6,0.4-60.9-0.1C349.9,324.6,341.7,323.2,334.9,318z"/>
	<path class="st7" d="M373,395c-5.2-0.6-10-1.2-14.7-1.8c-2.7-0.3-4.5-1.7-4-4.5c0.5-2.7,2.6-3.7,5.2-3.4c4.6,0.5,9.2,1.3,13.7,1.7
		c2.9,0.3,5,1.3,4.7,4.4C377.8,394.5,375.4,395.1,373,395z"/>
	<path class="st8" d="M397,395.1c-2.8,0-5.7-0.2-6-3.8c-0.3-3.9,2.6-4.3,5.7-4.5c4.1-0.3,8.2-0.7,12.3-1.4c3-0.5,5.1,0.4,5.7,3.2
		c0.6,2.8-1.4,4.2-4,4.6C406.1,393.9,401.6,394.5,397,395.1z"/>
</g>
</svg>
