<?xml version="1.0" encoding="utf-8"?>
<!-- Generator: Adobe Illustrator 19.0.0, SVG Export Plug-In . SVG Version: 6.00 Build 0)  -->
<svg version="1.1" id="Calque_1" xmlns="http://www.w3.org/2000/svg" xmlns:xlink="http://www.w3.org/1999/xlink" x="0px" y="0px"
	 viewBox="0 0 612 792" style="enable-background:new 0 0 612 792;" xml:space="preserve">
<style type="text/css">
	.st0{fill:#2D2E2D;}
	.st1{fill:#C0E0C9;}
	.st2{fill:#CCAE31;}
	.st3{fill:#C25D55;}
	.st4{fill:#BEDEC7;}
</style>
<g>
	<path class="st0" d="M224.8,611.6c0.9-2.3,3.2-2.8,5-3.9c44.1-25.6,88-51.4,132.3-76.5c29.5-16.7,48.4-41,56.1-74
		c3.3-13.9,7.2-27.7,11.1-41.4c1-3.4,0.2-4.4-3.1-4.9c-3.6-0.5-7.1-1.6-10.7-2.4c-6.3-1.6-11.9-2-18.5,1c-15,6.9-33.2-0.7-40.7-15.5
		c-7.6-15.1-2.5-33.5,11.7-42.6c14.3-9.1,32.8-6,43.3,7.8c2.7,3.6,5.7,5.2,9.7,5.9c4.4,0.8,8.7,1.9,13.3,2.9c0.9-2.2-0.4-4-1-5.7
		c-6.4-16.5-17.6-28.4-34.7-33.4c-25.9-7.5-51.8-14.7-78-20.7c-26.9-6.2-52.6-0.9-76.4,12.9c-47.2,27.1-94.3,54.3-141.5,81.5
		c-1.4,0.8-3,1.5-4.4,2.3c0-3.9-0.1-7.7-0.1-11.6c42.2-24.3,84.5-48.5,126.7-72.9c14.6-8.4,29-16.9,45.6-20.9
		c20.3-4.8,40.6-4.7,60.7,0.8c22.1,6,44.4,11.7,66.4,17.9c25,7.1,40.7,23.7,47.2,48.8c0.8,2.9,2,4,4.8,4.6
		c14.3,3.1,28.5,6.4,42.8,9.6c12.7,2.9,20.6,14.3,18,26.1c-2.8,12.7-14,19.6-27.3,16.6c-13.1-2.9-26.3-5.8-39.4-9
		c-3.1-0.8-4,0.2-4.7,2.9c-4.2,16.2-8.5,32.5-13,48.7c-8.5,31-26.6,54.9-54.4,71.1c-44.4,25.9-89,51.4-133.6,77
		c-1.6,0.9-3.1,2-5.1,1.6C230.3,614.5,227.5,613,224.8,611.6z"/>
	<path class="st1" d="M590.2,352.3c-5.4-32.2-17.1-62-34.4-89.6c-13.1-20.8-29-39.2-47.7-55.3c-16.3-14.1-34.2-25.9-53.5-35.4
		c-30.3-15-62.6-22.8-96.2-24.8c-19.8-1.2-39.5,0.5-59,4.3c-25.4,4.9-49.6,13.5-72.4,26c-27.9,15.3-52,35.3-72.3,59.7
		c-18.3,22-32.4,46.6-42,73.7c-9.5,26.6-14.6,54.1-14.6,82.4c4.5,0.7,7.3-2.7,10.6-4.6c43.4-24.7,86.7-49.8,130-74.7
		c26.9-15.5,55.8-20.8,86.2-13.6c24.8,5.8,49.4,12.6,73.9,19.6c21.5,6.2,36.4,20.3,42.8,41.7c2.6,8.5,6.9,11.5,14.9,13
		c12.9,2.4,25.8,5.2,38.5,8.8c10.3,2.9,16.4,13.7,14.1,23.8c-2.5,10.8-12.8,17.8-23.7,15.7c-13.2-2.6-26.3-5.9-39.5-8.8
		c-6-1.3-6.9-0.7-8.5,5.2c-4,14.6-8,29.3-11.7,43.9c-8.2,31.7-26.1,56.4-54.3,73c-35.9,21.2-72.1,41.6-108.2,62.5
		C253.1,604.3,243,610,233,616c1.1,1.5,3,1.3,4.4,2.1c30.3,14.6,62.3,22.7,95.7,24.7c20,1.2,39.8-0.5,59.5-4.2
		c25.1-4.8,48.9-13.3,71.5-25.6c28.3-15.3,52.7-35.4,73.1-60.1c16.9-20.5,30.2-43.2,39.9-68.1c10.4-26.9,15.8-54.7,16.8-83.5
		C594.5,384.8,592.9,368.5,590.2,352.3z"/>
	<path class="st2" d="M150.8,548c2.4-8.9,11.7-15.4,21.2-14.7c10.7,0.7,19.8,8.8,21,18.7c1.2,9.8-3.4,18.7-11.7,22.8
		c-1.6,0.8-3.3,1.6-5.2,1.1C167.3,566.9,158.6,557.8,150.8,548z"/>
	<path class="st2" d="M434.9,362.3c-6.7-16.8-17.9-29.3-35.6-34.7c-25.2-7.6-50.7-14.1-76.2-20.6c-12.2-3.1-24.7-3.1-37.2-1.7
		c-18.6,2.2-35,10.2-51,19.4c-43.2,25.1-86.6,50-129.9,74.9c-2.4,1.4-5.2,2.4-6.7,5.1c0.6,21.9,4.6,43.2,10.9,64.2
		c0.8,2.7,2.8,2.8,5.1,3c10.1,1.1,20.2,2.2,30.2,3.4c24.9,2.9,49.9,5.8,74.8,8.7c22,2.6,43.9,5,65.9,7.7c7.5,0.9,11.4,5.4,10.3,11.3
		c-1.1,6.4-6.1,9.3-13.5,8.5c-24.8-2.9-49.6-5.7-74.3-8.6c-21.6-2.5-43.3-5.1-64.9-7.6c-8-0.9-16-1.8-24.6-2.7
		c5.3,13.3,12.1,24.7,18.8,36.2c2.9,0.6,4.1-1.8,5.7-3.3c10.7-9.9,23.3-13.5,37.4-10.6c16.1,3.4,26.8,13.5,30.5,29.5
		c3.8,16.1-0.4,30.3-13.3,41.4c-1.6,1.4-3.8,2.4-3.3,5.1c9.8,7.5,20.1,14.3,30.8,20.5c10.3-5.1,20.1-11.1,30-16.9
		c36.9-21.3,73.8-42.8,110.8-64.1c23-13.2,39.8-31.9,48.8-56.8c6.8-18.6,10.6-38.2,15.9-57.3c1.3-4.4,0.2-6-4.5-7.1
		c-4.9-1.2-9.8-2-14.6-3.3c-4.4-1.2-8.2-0.6-12.4,1.3c-11.7,5.4-23.1,4.3-33.2-4.3c-10.4-8.8-14-21.6-9.9-33.8
		c7.5-22.5,35.2-29.4,51.5-12.4c5.7,5.9,11.6,9.6,19.5,10.6c1,0.1,1.9,0.5,2.9,0.7c1.8,0.3,3.7,1.2,5.2-0.3
		C436.6,366.2,435.6,364.2,434.9,362.3z M210.4,469.2c-22.9-0.4-41.4-19.4-41.2-42.2c0.3-23.4,20-42.3,43.8-42
		c22.7,0.3,41.3,20,40.9,43.1C253.4,451,233.7,469.7,210.4,469.2z"/>
	<path class="st3" d="M489,414.3c-9-2-18.2-4.1-27.4-6.2c-24.9-5.7-49.8-11.3-74.7-17c-6.3-1.5-9.8-5.7-9.8-11.5
		c0-5.2,3.3-9.8,8.2-11.2c2.1-0.6,4.3-0.6,6.4-0.1c33.3,7.6,66.6,15.2,99.9,22.9c6,1.4,9.3,5.7,9.4,11.4c0.1,5-2.9,9.3-7.8,11
		C491.9,413.9,490.6,414,489,414.3z"/>
	<path class="st4" d="M396.3,358.8c-14-1.5-22.5,2.2-26.9,11.4c-4.6,9.5-2.3,18.2,7.3,28.1c-4.8,0-10.3-5.3-12.9-12.2
		c-3.2-8.6-0.6-18.4,6.4-24.5C377.3,355.3,387.4,354.1,396.3,358.8z"/>
	<path class="st2" d="M211.7,449c-12.4,0-22.2-9.7-22.4-22c-0.1-11.5,10-21.7,21.6-21.8c12.6,0,22.9,9.9,22.9,22.1
		C233.9,439.3,223.9,449.1,211.7,449z"/>
</g>
</svg>
