<?xml version="1.0" encoding="utf-8"?>
<!-- Generator: Adobe Illustrator 19.0.0, SVG Export Plug-In . SVG Version: 6.00 Build 0)  -->
<svg version="1.1" id="Calque_1" xmlns="http://www.w3.org/2000/svg" xmlns:xlink="http://www.w3.org/1999/xlink" x="0px" y="0px"
	 viewBox="0 0 612 792" style="enable-background:new 0 0 612 792;" xml:space="preserve">
<style type="text/css">
	.st0{fill:#9CD1D7;}
	.st1{fill:#484B4D;}
	.st2{fill:#9BCFD5;}
	.st3{fill:#9ACED4;}
	.st4{fill:#617275;}
	.st5{fill:#617376;}
	.st6{fill:#F3F7F7;}
	.st7{fill:#545759;}
	.st8{fill:#535658;}
	.st9{fill:#F2F5F6;}
	.st10{fill:#EDF1F1;}
</style>
<g>
	<path class="st0" d="M88,396c0-0.7,0-1.3,0-2c2.3-6,7.2-9.9,11.2-14.5c3.5-4,7-8,10.7-11.9c2.3-2.3,2.4-4.5,0.9-7.2
		c-4.3-8.1-8.7-16.1-12.7-24.4c-3.4-7.2-3.1-8.8,3.5-13.1c7.2-4.8,14.5-9.5,21.9-13.9c3.7-2.2,4.9-4.7,3.8-9.1
		c-2.2-8.7-3.8-17.5-5.8-26.3c-1.4-6.4-0.4-8.3,5.8-10.6c8.6-3.1,17.5-5.4,26.1-8.3c3.6-1.2,5.1-3,5.7-7c1.3-9.6,0.1-19.3,1.7-28.9
		c0.9-5.3,1.8-6.2,7.1-7.1c9.7-1.7,19.6-0.2,29.4-1.7c3.6-0.6,5.2-2,6.3-5.2c3-8.6,5.3-17.5,8.4-26.1c2.5-6.8,4.1-7.8,11.2-6.2
		c8.6,1.9,17.3,3.5,25.8,5.7c4.4,1.1,6.9-0.1,9.1-3.8c4.7-7.7,9.4-15.3,14.5-22.7c3.8-5.5,5.5-6,11.7-3.1
		c8.3,3.9,16.4,8.2,24.4,12.7c3.4,1.9,5.8,1.5,8.8-1.2c6.5-5.9,13-11.9,19.6-17.8c1.8-1.6,4.1-2.1,6-3.5c0.7,0,1.3,0,2,0
		c5.7,2.1,9.4,6.8,13.8,10.5c4.2,3.6,8.2,7.3,12.2,11.1c2.6,2.5,5,2.8,8,1c7.8-4.5,15.8-8.5,23.9-12.4c7.1-3.5,8.9-3.1,13.1,3.5
		c4.7,7.3,9.6,14.4,14,21.9c2.2,3.7,4.7,4.9,9.1,3.8c8.7-2.2,17.5-3.8,26.3-5.8c6.4-1.4,8.4-0.4,10.5,5.8c3.1,8.8,5.5,17.8,8.5,26.6
		c1.1,3.2,2.7,4.6,6.3,5.2c9.8,1.5,19.6,0,29.4,1.7c5.3,0.9,6.2,1.9,7.1,7.1c1.7,9.7,0.2,19.6,1.7,29.4c0.6,3.6,2,5.2,5.2,6.3
		c8.6,3,17.5,5.4,26.1,8.4c6.8,2.4,7.7,4.1,6.2,11.2c-1.9,8.8-3.8,17.5-5.8,26.3c-0.9,3.9,0.2,6.3,3.5,8.3
		c7.7,4.6,15.2,9.6,22.7,14.5c6.1,4,6.5,5.7,3.3,12.4c-3.9,8.1-8.1,16.1-12.5,23.9c-1.9,3.4-1.5,5.8,1.2,8.8
		c5.9,6.5,11.9,13,17.8,19.6c1.6,1.8,2.1,4.1,3.5,6c0,0.7,0,1.3,0,2c-2.3,6-7.2,9.9-11.2,14.5c-3.5,4-7,8-10.7,11.9
		c-2.3,2.3-2.4,4.5-0.9,7.2c4.3,8.1,8.7,16.1,12.7,24.4c3.4,7.2,3.1,8.9-3.5,13.1c-7.4,4.8-14.7,9.7-22.3,14.2
		c-3.4,2-4.4,4.4-3.5,8.3c2,8.9,4,17.8,5.9,26.8c1.4,6.4,0.4,8.4-5.8,10.5c-8.8,3.1-17.8,5.5-26.6,8.5c-3.2,1.1-4.6,2.7-5.2,6.3
		c-1.5,9.8,0,19.6-1.7,29.4c-0.9,5.3-1.9,6.2-7.1,7.1c-9.7,1.7-19.6,0.2-29.4,1.7c-3.6,0.6-5.2,2-6.3,5.2c-3,8.6-5.4,17.5-8.4,26.1
		c-2.4,6.8-4.1,7.7-11.2,6.2c-8.8-1.9-17.5-3.8-26.3-5.8c-3.9-0.9-6.3,0.2-8.3,3.5c-4.6,7.7-9.6,15.2-14.5,22.7
		c-4,6.1-5.7,6.5-12.4,3.3c-8.1-3.9-16.1-8.1-23.9-12.5c-3.4-1.9-5.8-1.5-8.8,1.2c-6.5,5.9-13,11.9-19.6,17.8
		c-1.8,1.6-4.1,2.1-6,3.5c-0.7,0-1.3,0-2,0c-6-2.3-9.9-7.2-14.5-11.2c-4-3.5-8.1-7-11.9-10.7c-2.3-2.3-4.5-2.3-7.2-0.9
		c-8.1,4.3-16.1,8.7-24.4,12.7c-7.2,3.4-8.7,3-13.1-3.6c-4.9-7.3-9.6-14.8-14.2-22.3c-2.1-3.4-4.5-4.3-8.3-3.4
		c-8.9,2-17.9,4-26.8,5.9c-6.5,1.4-8.3,0.4-10.5-5.8c-3-8.6-5.4-17.5-8.3-26.2c-1.2-3.6-3-5.2-7-5.7c-9.4-1.3-19-0.1-28.4-1.6
		c-5.8-0.9-6.7-1.7-7.6-7.7c-1.6-9.8-0.1-19.6-1.7-29.4c-0.5-3-1.5-4.6-4.5-5.6c-8.8-2.9-17.8-5.5-26.6-8.5
		c-6.9-2.4-7.9-4.1-6.3-11.1c2-8.8,3.6-17.6,5.8-26.3c0.9-3.8,0-6.3-3.4-8.3c-7.8-4.7-15.5-9.8-23.1-14.8c-5.6-3.7-6.1-5.6-3.2-11.6
		c4-8.3,8-16.5,12.6-24.4c2-3.4,1.6-5.8-1.1-8.8c-5.9-6.5-11.9-13-17.8-19.6C89.8,400.2,89.3,397.9,88,396z"/>
	<path class="st1" d="M450,281.1c-0.4-2.6-2.4-1.8-3.9-1.8c-15.5,0-31,0-46.5,0c-0.8,1.9,1,2.6,1.4,3.9c1.2,3.5,1,7.3-2.2,9
		c-5.7,3.1-3.2,7.9-3.7,12.2c-0.1,0.5,0.3,1.3,0.7,1.7c16.2,14.1,30.1,30.6,45.2,45.8c13.9,14.1,27.4,28.6,41.3,42.8
		c2.8,2.8,4.1,5.7,3.8,9.7c-0.4,4.8-0.6,9.7,0,14.5c1.1,8.5-2.1,14.5-8,20.5c-26.1,26.5-51.7,53.4-77.4,80.3
		c-2.4,2.5-4.8,3.5-8.2,3.5c-32.3-0.1-64.6-0.1-97,0c-3.5,0-5.8-1-8.2-3.5c-27.3-28.6-54.6-57-82.1-85.4c-2.2-2.3-3.4-4.6-3.3-7.9
		c0.2-7.8,0.2-15.7,0-23.5c-0.1-2.9,0.7-5,2.8-7.1c27.8-28.8,55.3-57.8,83.4-86.2c4-4.1,5.3-7.7,4.9-12.7c-0.1-1.2-0.2-2-1.4-2.9
		c-6.3-5-6.6-6.7-2.8-14.5c-18.6,0-37,0-55.4,0c-0.3,0-0.7,0.6-1,0.9c-1.9,1.8-4.3,0.1-6.4,0.8c-0.6-0.3-1.1-0.5-1.7-0.8
		c-2.1,6.3-6.1,3.4-9.5,1.7c-2.6-1.3-6.7-2.3-6.5-5.3c0.2-2.8,4.2-3.8,6.8-5.2c2.4-1.3,4.9-2.2,7.7-1.3c2.8,1.7,6.3,1.4,9.2,2.8
		c1.4,1.7,3.4,1.1,5.1,1.1c69.4,0,138.8,0.1,208.1-0.1c3.6,0,7.4,1.2,10.8-0.9c0.3-0.5,0.5-0.5,0.7,0c5-4,11.6-3.1,16.6,2.2
		c1.3,1.4,1.1,2.2-0.2,3.2c-2.9,2.2-6.1,4-9.6,5.3c-2.4,0.9-4.2,0.1-5.3-2.3c-0.8-1.6-1.3-1.2-1.4,0.3
		C454.5,282.4,452.3,281.4,450,281.1z"/>
	<path class="st2" d="M232,272.9c-4,2.1-7.3,1.8-9.2-2.8c1.7-1,3.5-2.1,5.2-3.1c3.5,0.6,5.7,2,3.9,6L232,272.9z"/>
	<path class="st3" d="M226,281c1.7-3.8,4.2-1.1,6.4-0.8c1,1.6,0.5,3-0.3,4.4C227.7,287.3,226.9,284.1,226,281L226,281z"/>
	<path class="st3" d="M450,281.1c2.6-2.8,5-2.8,7,0.7c0.1,1.4-0.8,2.1-1.9,2.7c-1.1,1.9-2.7,1.4-4.1,0.6c-1.6-1-1.9-2.4-0.9-4.1
		L450,281.1z"/>
	<path class="st4" d="M456.9,273.1c-0.2,0-0.5,0-0.7,0c-1.3-3.3-2.2-7.5-7.3-1.9c0.6-3.4,1.9-4.6,4.3-4.2
		C456.5,267.6,456.8,270.3,456.9,273.1z"/>
	<path class="st5" d="M450,281c0,3.6,1.7,4.7,5,3.5c-0.7,2.9-2.8,2.5-4.5,1.4C448.7,284.7,448.1,282.8,450,281z"/>
	<path class="st1" d="M232,273.1c1.4-3.8-1.8-4.6-3.9-6C233.2,267.6,233.6,268.3,232,273.1z"/>
	<path class="st1" d="M226,280.9c1.2,2.6,2.2,5.5,6.1,3.7C227.9,287.3,226.5,286.4,226,280.9z"/>
	<path class="st6" d="M343.7,506.9c-13.3,0-26.7-0.1-40,0c-2.5,0-4.3-0.7-6.1-2.5c-23.5-24.5-47.1-49-70.7-73.5
		c-1.8-1.8-2.5-3.7-2.4-6.2c0.2-7.8-1.8-16.4,0.8-23.2c2.6-6.6,9.8-11.5,15-17c18.7-19.5,37.4-38.9,56-58.4c2.5-2.6,5-3.7,8.7-3.7
		c26,0.1,52,0.2,78,0c3.7,0,6.2,1.1,8.6,3.8c22.8,23.9,45.6,47.6,68.6,71.4c2.2,2.3,3.4,4.5,3.3,7.9c-0.3,7.6,1.7,16.1-0.9,22.7
		c-2.7,6.6-9.9,11.4-15.2,17c-18.8,19.6-37.7,39.1-56.4,58.8c-2.1,2.2-4.2,3.2-7.4,3.2C370.3,506.8,357,506.9,343.7,506.9z"/>
	<path class="st0" d="M300.1,279.5c29.4,0,58.2,0,87.6,0c-3.7,6-3.5,10.6,2.8,14.8c3.1,2.1,1.3,6.9,1,10.3c-0.3,2.7-3.2,1.6-5,1.6
		c-28.3,0.1-56.6,0.1-84.8,0c-1.8,0-4.8,1.1-5.2-1.4c-0.6-3.4-2.1-8.4,0.7-10.4C303.3,290.2,304.2,285.8,300.1,279.5z"/>
	<path class="st2" d="M294.3,292.2c-3.6-0.3-5.6-2.4-5.6-6.2c0.1-3.6,2.3-5.6,5.7-5.7c3.7-0.1,6.1,2.2,6,5.9
		C300.5,289.9,298.3,292,294.3,292.2z"/>
	<path class="st2" d="M399.3,286.3c-0.3,3.6-2.2,5.8-6,5.8c-3.6,0-5.7-2.2-5.8-5.6c-0.2-3.7,2.1-6.1,5.8-6.2
		C396.9,280.2,399,282.5,399.3,286.3z"/>
	<path class="st7" d="M451,399c2.2,1.3,3.1,3.1,3.1,5.7c-0.2,7.3,1.5,15.1-0.5,21.9c-2,6.8-9.3,11-14.3,16.3
		c-17.1,18-34.4,35.8-51.5,53.8c-2.3,2.4-4.5,3.3-7.8,3.3c-24-0.1-48-0.1-72,0c-3.3,0-5.5-1-7.8-3.4c-21.2-22.2-42.4-44.3-63.7-66.3
		c-1.7-1.8-2.7-3.5-2.6-6.1c0.2-6.3,0.1-12.7,0.1-19c0-2-0.3-4.1,2-5.1c0.9,0.2,1.4,0.7,1.8,1.4c0.6,6.6,0.2,13.3,0.2,20
		c0,3.4,0.8,6.1,3.4,8.5c13.5,12.9,25.8,27,39,40.1c7.1,7.1,13.7,14.5,20.7,21.6c2.9,2.9,5.9,4.3,10.1,4.3c21.8-0.1,43.7-0.1,65.5,0
		c4.2,0,7.2-1.3,10.1-4.3c20.3-20.7,39.9-42.1,60.4-62.5c1.9-1.9,2.7-4.1,2.7-6.7c-0.1-7.3,0.3-14.6-0.6-21.9
		C449.6,399.7,450.1,399.2,451,399z"/>
	<path class="st8" d="M237,401c-0.3-0.3-0.6-0.6-0.9-1c20-20.9,40.3-41.7,59.9-62.9c5.2-5.7,10.5-7.8,18.1-7.6
		c22.1,0.5,44.3,0.2,66.5,0.2c2.2,0,4.1,0,5.9,1.8c21.5,22.6,43,45,64.6,67.5c-0.3,0.3-0.6,0.6-1,1c-3.1,1.1-4.6-1.2-6.2-3
		c-15.2-16.1-30.4-32.1-46.1-47.8c-4.1-4.1-7.6-8.8-11.8-12.9c-2.3-2.2-4.7-3.3-8-3.3c-22.6,0.1-45.3,0-67.9,0c-3,0-5.5,0.7-7.6,3
		c-19.3,20.7-39.3,40.6-58.6,61.3C242,399.3,240.5,402.1,237,401z"/>
	<path class="st6" d="M237,401c18.6-19.2,37.7-38.1,55.6-57.9c7.9-8.7,15.8-12.7,27.7-12c19.6,1.1,39.2,0.4,58.9,0.2
		c3.3,0,5.5,1,7.8,3.3c19.6,20.6,39.4,41.1,59.1,61.6c1.3,1.3,2.6,2.5,3.9,3.8c1.5,1.7,2.2,3.5,2.1,5.8c-0.2,7,1.6,14.7-0.7,20.8
		c-2.3,5.9-8.8,10.2-13.5,15.1c-16.9,17.7-33.9,35.2-50.8,53c-2.4,2.5-4.8,3.4-8.2,3.4c-23.5-0.1-46.9-0.1-70.4,0
		c-2.9,0-4.9-0.6-7-2.8c-21-22-42.2-43.9-63.3-65.9c-1-1.1-2.3-1.9-2.3-3.7c0.1-7.7,0.1-15.3,0.2-23
		C236.1,402.1,236.6,401.6,237,401z"/>
	<path class="st1" d="M337.8,438.9c-8.8-0.1-13.4-4.5-13.7-13.5c-0.1-3.8,0.1-7.7-2.6-10.9c-0.6-0.7-0.8-1.4-0.1-2.1
		c3.1-3.2,2.6-7.3,2.7-11.3c0.3-9.4,4.4-13.1,14.3-13.1c9.5,0.1,13.4,3.8,13.6,13.2c0.1,3.8,0,7.7,2.4,11c0.4,0.5,0.9,1.1,0.3,1.7
		c-3.3,4-2.2,8.8-2.8,13.4C351,435.2,346.2,439,337.8,438.9z"/>
	<path class="st1" d="M371.4,423.3c0.1,3.2,0,7,2,10.5c0.5,0.9,1.9,1.8,0.6,3c-1.1,1-2.7,1.2-3.7,0.3c-2.5-2-4.7-1.9-7.2,0
		c-1.1,0.8-2.7,0.5-3.7-0.5c-1.2-1.2,0.4-2.1,0.8-3c2.8-6.3,2.9-12.5,0-18.8c-0.5-1-1.2-1.7-0.4-3.1c3.5-6.8,3.8-13.6-0.3-20.3
		c-1.4-2.3,0.8-3.2,1.9-2.5c5.1,3,10-0.3,14.9-0.2c4.4,0.1,8.9,0.2,11.2,4.8c2.9,5.8,2.8,11.7-1.1,16.9c-1.4,1.8-1.1,2.2,0.1,3.5
		c2.2,2.3,2.3,5.4,2.6,8.4c0.4,3.6,0.1,7.6,2.5,10.5c2.3,2.8,0.8,3.6-1.5,4.4c-4.7,1.6-8.7-0.4-9.8-5.5c-0.9-4-1-8.2-1.7-12.3
		c-0.3-1.9-0.6-4.1-3.1-4.6c-4.8-1-4.1,2.3-4,5.1C371.4,421,371.4,421.8,371.4,423.3z"/>
	<path class="st1" d="M261.4,416.9c4.3,2.1,6.8,7.2,13,4.8c-0.2,0.6-0.4,1.1-0.6,1.7c-0.5,0.4-0.9,0.9-1.5,1.2
		c-2.2,1.2-3.1,3-2.4,5.4c0.6,2.2,2.5,2.6,4.4,2.4c2.5-0.3,4.3-1.8,4.8-4.4c1.1-5.6-2.4-9.9-7.9-10.1c-3.3-0.1-10.1-8.2-11-13.2
		c-1.2-6.8,0.8-12,5.8-14.7c5.9-3.2,13.8-2.6,18.3,1.4c2.1,1.9,3.3,4.2,3,7.1c-0.2,1.6-0.4,3.3-1,4.8c-0.6,1.5,1.2,3.8-0.5,4.5
		c-2.1,0.8-2.9-1.5-4-2.9c-1.8-2.5-5.4,0.9-7.2-2.1c-0.2-1.4,1.3-1.1,2-1.5c1.7-0.9,2.5-2.2,2.1-4c-0.3-1.8-1.4-3-3.3-3.2
		c-2-0.2-3.5,0.6-4.5,2.5c-2.7,5.2,1.2,11.5,7,11.3c0.6,0,1.7-0.3,1.8,0c3.3,5.4,9.9,8.6,10.1,16c0.2,6.4-3,11.7-9.2,14
		c-6.8,2.6-14.8,0.8-18.2-4.1c-1.9-2.7-2.8-5.6-1.7-9C261.3,422.3,262.6,419.9,261.4,416.9z"/>
	<path class="st1" d="M424.5,403c-4.2-0.3-7.8-1-11.9,0.3c0.7-2.3,1.4-3.8,1.7-5.3c0.3-1.9-0.6-3.2-2.7-3.3c-2-0.1-3.8,0.3-3.6,2.9
		c0.3,3.6,0.7,7.3,1.1,10.9c0.2,1.9,1.7,1.9,3,1.7c2.1-0.3,4.2-0.7,6.8-1.1c-1.2,2.7-1.5,5.1,0,7.3c-0.6,0.3-0.9,0.6-1.2,0.6
		c-2.7-0.2-5.4-2.1-8.1-0.5c-0.6,0.4-1.7,12.9-1.3,13.8c0.8,1.7,2.3,2,3.8,1.6c2.4-0.7,3-2.9,2.3-4.8c-1.9-4.6-1.1-3.6,3.6-4.4
		c9-1.4,4.9,2.8,4.3,6.2c-0.3,1.7,0.4,3.3,0.9,4.9c0.3,1.1,2.4,1.9,0.9,3.2c-1.1,1.1-2.8,0.7-3.7-0.1c-2.1-1.9-3.9-1.4-6.1-0.1
		c-1.1,0.6-2.8,1.1-3.8,0.7c-4.1-1.8-8-2.5-12.1,0c-0.7,0.4-2-0.1-2.6-1c-0.4-0.7,0.4-1.1,0.7-1.6c4-6.4,2.9-13,0.6-19.6
		c-0.4-1.2-1.3-1.9-0.5-3.6c3.4-6.6,3.4-13.3-0.3-19.9c-0.4-0.7-1.2-1.3-0.3-2.1c1.3-1.1,3.2-1.2,4.2-0.4c2.9,2.3,5.2,2.2,8.1,0.1
		c1-0.7,3.1-0.6,4.4-0.2c3.1,1.1,6,2.3,9-0.1c0.7-0.5,2-0.4,2.8,0.5c0.5,0.6,0,1.2-0.4,1.7C421,395,422.1,398.8,424.5,403z"/>
	<path class="st1" d="M291.1,398.8c-0.4-3,0.8-5.7-0.2-8.3c-0.3-0.7,0.5-1.4,1.6-1.3c8.3,0.6,16.6,0.7,24.9,0c1.3-0.1,1.9,1,1.5,1.9
		c-0.8,1.9-0.7,3.6-0.1,5.6c0.6,1.7-0.5,2-2.3,1.4c-6.6-2.3-8.3-1.4-7.1,5.2c1.2,6.6,1.7,12.8,0,19.3c-1,3.6-0.2,7.6,1.8,11.1
		c0.5,0.9,2.2,1.6,1.1,2.9c-1.1,1.2-3,1.5-4.1,0.5c-2.4-2.2-4.4-1.5-6.7,0.1c-1.2,0.8-2.7,0.6-3.8-0.3c-1.7-1.4,0.3-2.3,0.7-3.3
		c2.7-6.1,2.5-12.3,0.1-18.4c-0.4-1.1-1.9-1.9-0.6-3.4c2.4-2.7,2.2-6.2,2.2-9.5c0-5.9-1.5-6.9-7.1-4.4
		C292.5,398.1,292,398.4,291.1,398.8z"/>
	<path class="st9" d="M341.9,402.7c0.2,3.2,0.2,6.4-1.5,9.2c-0.8,1.5-0.2,2.4,0.4,3.7c1.8,4.1,1.4,8.5,1,12.8
		c-0.2,2.1-1.2,3.8-3.8,3.8c-2.6,0-3.9-1.7-3.8-3.7c0.9-10.2,0.4-20.4,0-30.6c-0.1-2.1,1.2-3.8,3.8-3.7c2.5,0,3.6,1.6,3.8,3.7
		C342,399.4,341.9,401.1,341.9,402.7z"/>
	<path class="st10" d="M378.3,402.5c-0.5,2.7,1.7,7-3.9,7.6c-2,0.2-3.1-0.3-3.1-2.6c0.1-3,0.1-6,0-8.9c-0.1-2.8,1.1-3.9,3.8-3.9
		c2.7,0,3.3,1.6,3.2,3.9C378.3,399.7,378.3,400.9,378.3,402.5z"/>
</g>
</svg>
