<?xml version="1.0" encoding="utf-8"?>
<!-- Generator: Adobe Illustrator 19.0.0, SVG Export Plug-In . SVG Version: 6.00 Build 0)  -->
<svg version="1.1" id="Calque_1" xmlns="http://www.w3.org/2000/svg" xmlns:xlink="http://www.w3.org/1999/xlink" x="0px" y="0px"
	 viewBox="0 0 612 792" style="enable-background:new 0 0 612 792;" xml:space="preserve">
<g>
	<path d="M497.2,291.8c-9.5-65.4-58.8-118.6-123.5-132.9c-6.9-1.5-13.8-2.6-20.7-3.9c-9.7,0-19.3,0-29,0c-0.5,1.2-1.6,0.9-2.6,1
		c-65.3,7.1-120.2,54.3-137,117.8c-2.2,8.3-4.9,16.8-4,25.5c1.6,14.9,15.8,26.2,32.7,26.4c14.3,0.2,28.7,0.2,43,0.1
		c14.2-0.1,26-8.9,30.5-22.3c0.5-1.6,0.9-3.2,1.4-4.8c9.5-29.4,42.4-44.7,70.9-33.1c28.6,11.6,41.7,45.1,27.9,72.6
		c-9.8,19.6-26.1,29.8-48.1,30c-38.5,0.2-77,0-115.4,0.1c-25.3,0.1-44.3,18.4-44.3,42.9c-0.1,71.1-0.1,142.3,0,213.4
		c0,18.8,12.4,35,30.4,40.6c1.8,0.6,4,0.2,5.5,1.8c82.7,0,165.3,0,248,0c0.4-0.3,0.7-0.7,1.1-0.8c22-5.2,34.8-21.3,34.8-43.6
		c0-88.8,0.1-177.6-0.1-266.4C498.9,334.7,500.3,313.2,497.2,291.8z M477.7,622.2c0,14.9-8.6,23.5-23.7,23.5c-76.5,0-153,0-229.5,0
		c-16,0-24.3-8.4-24.3-24.3c0-69.2,0-138.3,0-207.5c0-15.9,8.3-24.2,24.4-24.2c38,0,76,0.1,114-0.1c35.5-0.2,65.5-24.1,73.2-57.9
		c8.8-38.8-14.5-78.1-52.7-88.7c-38.6-10.7-78.8,10.9-91.1,49c-3.8,11.6-4.9,12.5-17,12.4c-12.3,0-24.7,0-37-0.2
		c-9.5-0.1-13.2-4.8-11.4-14.1c11.3-58.3,53.9-100.7,112.1-111.8c71.4-13.6,143.6,34.1,159.3,105.2c2.5,11.4,3.7,23,3.7,34.7
		c0,48.3,0,96.7,0,145C477.7,516.3,477.7,569.3,477.7,622.2z"/>
	<path d="M403,442.9c0.2,2.6-1,4.9-2.6,7.2c-35.1,49.2-70.2,98.3-105.4,147.5c-4.2,5.9-10.3,7.2-15.6,3.5c-5.2-3.7-6.1-9.9-1.8-15.8
		c35.2-49.3,70.4-98.6,105.6-147.9c3.3-4.6,7.4-6,12.1-4.6C400.1,434.2,402.9,437.9,403,442.9z"/>
	<path d="M269.9,443c-20.9-0.1-37.6,16.3-37.7,37.1c-0.1,20.5,16.3,37.1,37,37.4c20.7,0.3,37.6-16.4,37.7-37.1
		C306.9,459.8,290.4,443.1,269.9,443z M269.6,496.2c-9,0-16.2-7.2-16.1-16.1c0.1-8.6,7.4-15.9,15.9-15.9c8.7,0,16.3,7.6,16.2,16.3
		C285.5,489.1,278.4,496.2,269.6,496.2z"/>
	<path d="M408.3,517.8c-20.7,0-37.2,16.3-37.3,36.9c-0.1,20.7,16.3,37.4,36.7,37.4c21.3,0.1,37.9-16.3,37.8-37.4
		C445.4,534.1,429,517.8,408.3,517.8z M408.3,571c-8.8,0-16.3-7.5-16.2-16.2c0.1-8.8,7.6-16,16.5-15.8c8.7,0.1,15.6,7.3,15.5,16.1
		C424.1,563.8,417,570.9,408.3,571z"/>
</g>
</svg>
