<?xml version="1.0" encoding="utf-8"?>
<!-- Generator: Adobe Illustrator 19.0.0, SVG Export Plug-In . SVG Version: 6.00 Build 0)  -->
<svg version="1.1" id="Calque_1" xmlns="http://www.w3.org/2000/svg" xmlns:xlink="http://www.w3.org/1999/xlink" x="0px" y="0px"
	 viewBox="0 0 612 792" style="enable-background:new 0 0 612 792;" xml:space="preserve">
<style type="text/css">
	.st0{fill:#2D2D2D;}
	.st1{fill:#9EDCEB;}
	.st2{fill:#D92B42;}
</style>
<g>
	<path class="st0" d="M598,573c-7.5,6.9-15,13.7-22.3,20.7c-2.2,2.1-4.4,3-7.5,3c-150.6-0.1-301.2-0.1-451.9,0c-3.5,0-5.9-1-8.3-3.4
		c-7.2-6.9-14.6-13.6-22-20.4c0-5.7,0-11.3,0-17c11.8,0,23.6-0.2,35.5,0.1c3.7,0.1,4.6-0.9,4.6-4.6c-0.1-61.9-0.1-123.9-0.1-185.8
		c0-28.1,0-56.3,0-84.4c0-15.1,7.9-22.9,23.2-23c13.6-0.1,27.3-0.1,40.9-0.2c1.7-0.2,2.3,1.1,2.8,2.3c1.4,3.4,2.5,6.8,3.5,10.3
		c0.4,1.7,0.5,3.3-1.5,4.2c-2.4,0.8-4.9,0.6-7.4,0.6c-11.7,0-23.3,0-35,0c-7.9,0-8.8,0.9-8.9,9c0,1.2,0,2.3,0,3.5
		c0,85.6,0,171.2,0,256.8c0,9.4,0,9.4,9.6,9.4c38.8,0,77.6,0,116.4,0c2.8,0,5.7-0.2,8.4,0.5c5.4,2.8,9,7.8,13.2,12
		c3.3,3.3,6.8,4.7,11.5,4.7c26.1-0.2,52.2-0.2,78.3,0c4.9,0,8.5-1.5,11.9-5c4-4.1,7.6-8.9,12.8-11.7c2.8-0.8,5.6-0.6,8.4-0.6
		c39,0,77.9,0,116.9,0c1.7,0,3.3,0,5,0c2.9,0,4.2-1.4,4.2-4.3c0-1.7,0-3.3,0-5c0-85.8,0-171.5,0-257.3c0-12.1,0-12.1-12.3-12.1
		c-10.7,0-21.3,0-32,0c-2.3,0-4.7,0.1-6.9-0.6c-1.4-0.5-2.3-1.7-1.9-3c1.5-4.7,1.8-10,5.8-13.7c14.3,0,28.7-0.1,43,0
		c13.8,0.1,21.9,8.3,21.9,22.2c0,90.2,0,180.3-0.1,270.5c0,4.1,0.9,5.3,5.1,5.2c11.7-0.3,23.3-0.1,35-0.1
		C598,561.7,598,567.3,598,573z"/>
	<path class="st1" d="M196.1,274.2c-1.6-5.5-3.1-11.1-6-16.1c-1-6.8-4.3-12.9-6.4-19.4c-0.8-2.5-0.3-3.5,1.9-4.7
		c21.8-11.1,43.5-22.3,65.2-33.6c2-1,4-1.4,6.2-1.4c13.8,0,27.7,0.1,41.5-0.1c3.6,0,4.4,1.2,4.6,4.6c1.2,22.5,16.3,35.8,36.5,38.1
		c15.9,1.8,36.5-10,40.4-30.8c0.3-1.6,0.7-3.2,0.9-4.9c0.9-6.9,0.9-6.9,7.6-6.9c12.8,0,25.7,0,38.5,0c2.2,0,4.2,0.5,6.2,1.5
		c21.3,10.9,42.6,21.8,64,32.5c3.1,1.5,4.1,3,2.6,6.5c-2.6,6.1-4.6,12.5-6.8,18.7c-1.7,5.3-3.5,10.6-5.2,15.9c0.6,2.1-0.1,4-0.8,5.8
		c-3.4,9.6-6.5,19.2-10.3,28.7c-2.1,5.4-3.8,6.1-9.1,3.8c-8.7-3.7-17.4-7.7-26.1-11.4c-6-2.6-6-2.5-6,3.9c0,34.8,0,69.7,0,104.5
		c0,25.7,0,51.3,0,77c0,1.8,0.1,3.7-0.1,5.5c-0.3,5.2-1.4,6.2-6.8,6.5c-1.3,0.1-2.7,0-4,0c-55.2,0-110.3,0-165.5,0
		c-10.5,0-10.8-0.3-10.8-11c0-60.2,0-120.3,0-180.5c0-1.3-0.1-2.7,0-4c0.2-3.4-1.2-4-4.2-2.7c-9,3.9-18,7.9-27,11.8
		c-6.5,2.8-8.1,2.2-10.4-4.3c-3.2-8.9-6.5-17.9-9.6-26.8C196.5,278.8,195.4,276.6,196.1,274.2z"/>
	<path class="st2" d="M196.1,274.2c4.2,11.5,8.6,23,12.6,34.6c1.2,3.6,2.2,4.7,6.1,2.8c10.2-4.8,20.7-9,31-13.7
		c3.7-1.7,4.6-1.4,4.6,3c-0.1,53.1-0.1,106.3-0.1,159.4c0,10.5,0.2,21-0.1,31.5c-0.1,4.4,1.1,5.6,5.5,5.6c51-0.2,102-0.1,152.9-0.1
		c6.7,0,13.3-0.2,20,0.1c3.9,0.2,5.1-1.1,5-5c-0.2-31.5-0.1-63-0.1-94.5c0-32.2,0.1-64.3-0.1-96.5c0-4.7,1-5.2,5.1-3.3
		c10.1,4.7,20.5,8.8,30.5,13.6c3.9,1.8,4.9,0.8,6.1-2.9c4-11.6,8.3-23.1,12.5-34.6c15.5,0,31,0,46.5,0c6.6,0,7.6,1,7.6,7.4
		c0,89.8,0,179.7,0.1,269.5c0,4.5-1.6,5-5.4,5c-41-0.1-82-0.1-123-0.1c-3,0-6,0.1-9,0.2c-2.2,1.3-4.7,1.5-7.2,1.5
		c-37,0-73.9,0-110.9,0c-2.5,0-5-0.1-7.2-1.5c-36.3-0.1-72.7-0.1-109-0.2c-7.8,0-15.7-0.2-23.5,0.1c-4,0.2-4.9-1.2-4.9-5
		c0.1-67.8,0.1-135.6,0.1-203.5c0-22,0-44,0-66c0-6.4,1-7.4,7.6-7.4C165.1,274.2,180.6,274.2,196.1,274.2z"/>
	<path class="st1" d="M279.3,556.2c36.1-0.1,72.3-0.1,108.4-0.2c5.7,0,11.3,0.1,17,0.2c-4.7,5-9.4,9.9-13.9,14.9
		c-1.4,1.5-2.9,1.9-4.9,1.9c-29.2,0-58.5,0-87.7,0c-1.9,0-3.5-0.4-4.9-1.9C288.7,566.1,284,561.1,279.3,556.2z"/>
	<path class="st0" d="M357.4,362c-8.2,0-16.3,0.3-24.5-0.1c-5.4-0.3-3.6,3.3-3.9,5.9c-0.4,2.9,0.2,4.5,3.8,4.4
		c16.2-0.2,32.3,0,48.5-0.2c3.9-0.1,5.1,1,5,5c-0.2,10.8,0,10.7-10.7,10.7c-13.2,0-26.3,0.1-39.5-0.1c-3.5,0-4.2,0.7-3.1,4.1
		c5,15.3,21,24.4,38.8,21.8c5.8-0.8,11.5-1.7,16.9-4.1c2.3-1,3.1-0.6,3.6,1.9c1.2,6.2,2.6,12.4,4,18.5c0.5,1.9-0.2,2.6-1.8,3.4
		c-32.5,16-82.9,6-95.2-40.2c-1.2-4.6-3-5.7-7.3-5.5c-8.1,0.3-8.1,0.1-8.1-8.1c0-0.8,0.1-1.7,0-2.5c-0.6-3.8,0.8-5.6,4.8-4.9
		c0.8,0.1,1.7,0.1,2.5,0c1.5-0.3,4,0.9,4.4-1c0.6-2.7,0.8-5.8-0.1-8.3c-0.6-1.7-3.7-0.9-5.6-0.6c-4.6,0.6-6.4-0.6-6.1-5.7
		c0.5-9.5,0.1-9.6,9.7-9.5c3.1,0,5-0.2,6.1-3.9c11.5-36.8,46.4-55.6,84-45.5c12.4,3.3,12.4,3.3,9.4,15.6c-1,4-0.8,9.5-3.4,11.7
		c-2.7,2.3-7.4-1.6-11.3-2.4c-11.6-2.3-22.9-2.4-33.1,4.7c-5.5,3.8-9.1,9.1-11.6,15.3c-1.4,3.5-0.8,4.6,3.1,4.6
		c14.8-0.2,29.7,0.1,44.5-0.2c4-0.1,5,1.1,4.9,5c-0.2,10.3,0,10.3-10.4,10.3C369.7,362,363.5,362,357.4,362z"/>
</g>
</svg>
