<?xml version="1.0" encoding="utf-8"?>
<!-- Generator: Adobe Illustrator 19.0.0, SVG Export Plug-In . SVG Version: 6.00 Build 0)  -->
<svg version="1.1" id="Calque_1" xmlns="http://www.w3.org/2000/svg" xmlns:xlink="http://www.w3.org/1999/xlink" x="0px" y="0px"
	 viewBox="0 0 612 792" style="enable-background:new 0 0 612 792;" xml:space="preserve">
<g>
	<path d="M76,260c0-6.3,0-12.7,0-19c0.3-0.9,0.8-1.8,0.9-2.8c5.8-41.6,40.2-74.1,81.7-77.1c43-3.1,81.8,23.8,93.5,65
		c1.7,6,2.6,12.3,3.9,18.8c9.5-0.6,19.1-1.7,28.7-1.8c41.5-0.2,83,0,124.4,0.1c3,0,4.3-0.6,5.2-3.6c9.8-32.8,19.7-65.6,29.9-98.3
		c0.9-2.8,3.6-5.7,6.2-7.1c7.1-3.6,14.7-6.2,22-9.4C486,119,499.5,113,513,107c3.9,0,7.8,0,12,0c0,4,0,8,0,12
		c-3,2.2-5.6,5.2-8.9,6.6c-16.9,7.5-33.9,14.7-50.9,21.8c-3.4,1.4-5.2,3.4-6.2,6.9c-8.4,28.2-17.1,56.3-25.7,84.5
		c-0.6,1.8-1,3.7-1.5,5.7c10.4,1.2,20.4,1.8,30.2,3.5c11.3,2,22.6,4.1,33.5,7.5c10.2,3.2,12.4,8.1,11.2,18.7
		c-0.7,6.1-1.2,12.3-1.7,18.4c-2.5,30.4-5,60.7-7.6,91.1c-2.8,33.9-5.6,67.7-8.5,101.6c-2.8,34-6.1,68-8.2,102.1
		c-0.7,11.3-6.3,16.4-15.9,19.2c-1.6,0.5-3.2,1.1-4.8,1.3c-21.1,3-42.1,6.1-63.2,8.9c-8.9,1.1-17.9,1.4-26.8,2.1
		c-16.3,0-32.7,0-49,0c-1.8-0.3-3.6-0.6-5.4-0.8c-22-2.1-44.1-3.7-66.1-6.4c-9.8-1.2-19.4-4.3-28.9-7.3c-6.3-2-9.9-6.6-10.2-13.8
		c-0.4-10.3-1.6-20.6-2.5-30.9c-2.5-29.7-4.9-59.4-7.4-89.1c-2.9-34.3-5.7-68.7-8.6-103c-0.8-9.9-1.7-19.7-2.5-28.8
		c-10.7,0.4-20.8,1.7-30.7,1.1c-37.7-2.3-70.2-29.6-79.7-66.4C77.8,269.1,77,264.5,76,260z M209.4,359.7c1,12.6,1.9,24.3,2.8,36.1
		c3.9,46,7.8,92,11.5,137.9c0.4,4.5,2,6.2,6.1,7.3c28.4,7.5,57.4,11.7,86.7,14c26.7,2.1,53.4,1.6,79.8-2.2c22-3.2,43.8-8,65.7-12.2
		c2.7-0.5,4.7-1.5,5-5.1c1.1-16.3,2.6-32.5,4-48.8c2.9-35,5.8-70.1,8.7-105.1c0.6-7.4,1.1-14.8,1.7-22.7
		C390.4,370.3,300.1,369.7,209.4,359.7z M397.1,295c-1.3-0.1-2.3-0.3-3.2-0.2c-48.5,1.6-96.9,1.1-145.2-3.1
		c-1.3-0.1-3.3,0.9-3.9,1.9c-8.6,15.3-20.6,27.2-35.9,36c-4.2,2.4-1.1,6.6-1,10c0,0.9,2.5,2.2,4,2.3c8.3,1,16.6,1.6,24.8,2.4
		c46.8,4.3,93.7,6.1,140.7,4.8c2.8-0.1,4-1,4.8-3.7c4.6-15.6,9.4-31.2,14.1-46.8C396.7,297.5,396.8,296.4,397.1,295z M464.9,558.5
		c-79.8,20.5-159.2,20.5-239,0c0.7,8.1,1.4,15.4,2,22.7c0.6,8,0.6,8.1,8.5,9.9c24.3,5.6,49,7.5,73.8,9c36.2,2.2,72.3,1,108.3-3.2
		c13.4-1.5,26.6-4.4,39.8-6.9c1.6-0.3,4-2,4.2-3.3C463.5,577.6,464.1,568.5,464.9,558.5z M483,341.3c1.6-19.2,3.1-37.6,4.7-56.5
		c-4.1,0.8-7.6,1.8-11.2,2.2c-18.3,2.1-36.7,4.2-55,6.1c-3.5,0.3-5.3,1.4-6.2,4.9c-1.6,6.4-3.8,12.8-5.7,19.1
		c-3.1,10.1-6.1,20.2-9.5,31.3C428.1,346,455.2,343.7,483,341.3z M253.1,273.8c1,0.1,1.8,0.3,2.6,0.3c25.1,1.2,50.2,2.9,75.3,3.4
		c22.5,0.4,44.9-0.5,67.4-1c1.8,0,4.6-0.7,5.1-1.9c1.8-4.1,2.7-8.6,4.5-14.6c-14.2,0-27.2-0.2-40.1,0c-34.8,0.7-69.6,1.5-104.3,2.7
		c-9.1,0.3-9.1,0.9-10.5,10.1C253,272.9,253,273,253.1,273.8z M156.6,227.1c0-15.2,0-31.1,0-47.5c-13.1,1.5-24.3,6.4-34,13.7
		C134.2,204.9,145.5,216.1,156.6,227.1z M95.2,241.3c15.9,0,31.7,0,46.9,0c-11.1-11.2-22.3-22.4-33.4-33.7
		C101.5,215.6,94.8,232,95.2,241.3z M189.2,241.4c15.8,0,31.6,0,47.8,0c-1.8-13-6.5-24.3-13.9-33.9
		C211.7,218.9,200.4,230.2,189.2,241.4z M122.4,307.9c10,7.6,21.3,12.3,34.1,14c0-16.2,0-32.2,0-47.9
		C145.2,285.2,134,296.4,122.4,307.9z M237,260.2c-16.4,0-32.3,0-47.2,0c10.9,11,22,22.3,33.3,33.7
		C230.5,284.2,235.1,272.9,237,260.2z M208.7,308.2c-11.3-11.4-22.6-22.7-33.6-33.7c0,15.3,0,31.2,0,47.5
		C187.9,320,199.3,315.5,208.7,308.2z M209.1,193.4c-10.1-7.5-21.1-12.4-33.9-13.8c0,16.2,0,32,0,47.7
		C186.4,216.1,197.6,205,209.1,193.4z M108.2,293.3c11.4-11.2,22.6-22.3,33.7-33.2c-15.3,0-31,0-46.7,0
		C94.9,269.3,101,284.5,108.2,293.3z M422.9,275.6c17.6-2,34.7-4,51.9-5.9c0-0.6,0-1.2-0.1-1.8c-12.5-1.5-25-3.5-37.5-4.4
		c-13.8-1-10-3.4-14.3,10C422.8,273.7,422.9,274.1,422.9,275.6z"/>
	<path d="M335.6,415.2c13.1-12,25.7-24.1,38.9-35.4c7.4-6.3,18.6-5.3,25.6,1.7c10.2,10.3,20.2,20.8,30,31.5
		c7.1,7.8,7.1,19.5-0.3,26.7c-11.7,11.4-23.9,22.2-36.1,33.4c0.9,1,2.1,2.3,3.2,3.7c6.9,8.3,6.5,19.6-1.3,27.1
		c-10.3,9.9-20.9,19.6-31.6,29.1c-8.3,7.3-19.8,6.9-27.6-0.9c-10.1-10.2-20.2-20.3-29.5-31.3c-4-4.7-7.1-9.4-13.3-11.3
		c-1.7-0.5-3.2-2.4-4.5-3.8c-9.1-9.5-18.2-19-27.2-28.6c-9.1-9.7-8.8-21.4,0.8-30.4c9.6-9,19.3-17.9,29-26.7c10-9,21.7-8.4,30.9,1.4
		C327.3,406.3,331.8,411.2,335.6,415.2z M352.7,457.2c-1.2,0.8-2.3,1.5-3.3,2.4c-9.2,8.4-18.4,16.9-27.6,25.3
		c-2.2,2-2.3,3.6-0.2,5.8c8.8,9.1,17.5,18.3,26.1,27.5c2.1,2.2,3.7,2.2,5.9,0.2c9.3-8.6,18.6-17.2,28-25.7c2.2-2,2.4-3.5,0.2-5.7
		c-8.8-9.1-17.4-18.4-26.2-27.5C354.9,458.7,353.9,458.1,352.7,457.2z M352.4,424.1c10.2,10.7,19.7,20.9,29.5,30.9
		c0.8,0.8,3.9,0.7,4.9-0.2c9.6-8.5,19-17.3,28.5-25.9c2.1-1.9,2.1-3.4,0.2-5.4c-8.9-9.3-17.6-18.6-26.6-27.8
		c-0.9-0.9-3.8-1.4-4.5-0.7C373.8,404.4,363.4,414,352.4,424.1z M306.6,411.3c-10.8,10-21.3,19.5-31.5,29.2
		c-0.7,0.6-0.4,3.5,0.5,4.4c8.6,9.3,17.4,18.4,26,27.6c2.1,2.2,3.7,2.2,5.9,0.2c9.1-8.5,18.3-17,27.6-25.4c2.5-2.3,2.3-3.9,0.1-6.1
		c-5-5.1-9.9-10.4-14.8-15.5C315.9,421.1,311.4,416.4,306.6,411.3z"/>
</g>
</svg>
