<?xml version="1.0" encoding="utf-8"?>
<!-- Generator: Adobe Illustrator 19.0.0, SVG Export Plug-In . SVG Version: 6.00 Build 0)  -->
<svg version="1.1" id="Calque_1" xmlns="http://www.w3.org/2000/svg" xmlns:xlink="http://www.w3.org/1999/xlink" x="0px" y="0px"
	 viewBox="0 0 612 792" style="enable-background:new 0 0 612 792;" xml:space="preserve">
<style type="text/css">
	.st0{fill:#BCF9FA;}
	.st1{fill:#FAEDD7;}
	.st2{fill:#45413C;}
	.st3{fill:#474748;}
	.st4{fill:#484848;}
	.st5{fill:#45423D;}
	.st6{fill:#46423D;}
	.st7{fill:#46433E;}
	.st8{fill:#DFD3C1;}
	.st9{fill:#EEEEEE;}
	.st10{fill:#627A8B;}
	.st11{fill:#FCFCFC;}
	.st12{fill:#FDFDFD;}
	.st13{fill:#8BA3B6;}
	.st14{fill:#F9EDD7;}
	.st15{fill:#515151;}
	.st16{fill:#F9D58C;}
	.st17{fill:#FAFAFA;}
	.st18{fill:#F8D48C;}
	.st19{fill:#F1F1F1;}
	.st20{fill:#F5D28A;}
	.st21{fill:#FDD88E;}
	.st22{fill:#604A44;}
	.st23{fill:#5F4A43;}
	.st24{fill:#DEDEDE;}
	.st25{fill:#03B3E8;}
	.st26{fill:#EDEDED;}
	.st27{fill:#FBFBFB;}
	.st28{fill:#F6F6F6;}
	.st29{fill:#5A5752;}
	.st30{fill:#585450;}
	.st31{fill:#504C48;}
	.st32{fill:#514D49;}
	.st33{fill:#5B5753;}
	.st34{fill:#4F4B47;}
	.st35{fill:#4E4A45;}
	.st36{fill:#4A453E;}
	.st37{fill:#FEBF40;}
	.st38{fill:#4B463F;}
	.st39{fill:#F6B93F;}
	.st40{fill:#4E4840;}
</style>
<g>
	<path class="st0" d="M169.7,458.7c-8.2-17.8-13-36.6-14.7-56c-1.3-15.8-1.1-31.9,1.8-47.7c4.9-26.3,14.3-50.7,29.6-72.7
		c16.6-23.8,37.5-42.7,62.9-56.9c20.9-11.6,43.3-18.6,66.8-21.4c33.3-3.9,65.4,1.4,96.1,15.1c19.6,8.8,37.3,20.5,52.5,35.6
		c18,17.9,32.4,38.6,41.9,62.4c5.6,13.9,9.7,28.3,11.6,43.1c2.5,19.1,2.3,38.4-1.1,57.5c-2.4,13.2-5.7,26.2-11.2,38.6
		c-0.3,0.7-0.3,1.6-0.4,2.4c-0.4,0.6-0.9,1-1.6,1.1c-9,0.8-18,0.6-26.9,0.1c-3.6-0.2-3.8-3.2-3.8-6c-0.1-8-0.1-16,0-24
		c0-5.2-0.9-9.7-7-11.1c-2.1-0.5-2.7-2.3-3.2-4.1c-0.7-2.5-2.4-3.9-5.5-4.2c0.9,1.5,2.4,1.7,3.1,2.6c1.8,2.5,1,5.2-2.1,5.6
		c-6.1,0.8-12.3,0.7-18.4,0.1c-3.6-0.4-4.4-3.5-1.9-6.2c0.7-0.7,1.8-0.9,2.6-2c-3.3-0.2-5.1,1.6-6.1,4.2c-1.3,3.3-3.7,4.4-7,4.3
		c-2.3-0.1-4.7-0.1-7,0c-3.9,0.2-6.8-0.7-7.9-5.1c-0.6-2.5-2.6-3.7-5.3-3.6c0.1,1.3,1,1.4,1.7,1.9c1.4,1.1,2.6,2.3,2.1,4.2
		c-0.6,2.3-2.6,2.3-4.4,2.4c-4.7,0.2-9.3,0.2-14,0c-2.3-0.1-5,0.3-5.8-2.7c-0.8-2.9,1.6-4.1,4.5-5.9c-4-0.2-5.7,1.5-6.8,4
		c-1,2.2-2.2,4-4.7,4.8c-3.7,1.3-4.9,4.2-4.9,7.9c0,8.5,0.1,17,0,25.5c-0.1,6.4-1,7.4-7.2,7.4c-16.5,0.1-33,0.1-49.5,0
		c-6,0-7-1-7.1-7c-0.1-6.8,0.3-13.7-0.9-20.4c-0.2-1.3-0.1-2.7,0.3-4c0.6-2.3,1.9-2.5,3.7-1.2c1,0.7,1.7,1.6,2.3,2.6
		c4.3,6.3,10,11.1,16.9,14.5c2.4,1.2,4.4,2.8,6.1,5c3.3,4.3,6.5,4.7,10.7,1.5c2.1-1.6,4.2-2.5,6.7-3c4.9-1.1,8-4.7,8-8.9
		c0-4.2-3.2-7.9-8.1-8.8c-2.5-0.5-4.8-1.3-6.7-3.1c-2.1-2-4.8-2.5-7.5-1.5c-4.7,1.7-7.7-0.7-10.3-4c-3.8-5.1-5.3-10.9-5.4-17.3
		c-0.3-18.1-8.4-32.2-23.7-41.5c-30.7-18.6-64.6,2.8-70.3,31.7c-1.9,9.6-0.8,19.3-1,28.9c-0.1,4.2-0.1,8.1-3.4,11.6
		c-2.4,2.5-1.9,5.9,0.3,8.7c1.1,1.5,2.4,2.8,2.8,4.6c2.1,8.6-0.2,11.7-9.1,11.7c-15.3,0-30.7,0-46,0
		C174.4,460.2,171.7,460.8,169.7,458.7z"/>
	<path class="st1" d="M501.8,463.8c-5,13.2-12.7,24.9-21.4,35.7c-19.5,24.2-43.4,42.8-72.3,54.7c-17.9,7.4-36.4,12-55.7,13.6
		c-45.1,3.6-86-7.9-122.6-34.5c-24-17.4-42.6-39.2-55.5-65.8c-0.6-1.2-0.9-2.5-1.4-3.7c1.8-1.9,4.3-1.6,6.6-1.6
		c16.7-0.1,33.3,0,50-0.1c5.4,0,10.4,2.3,15.8,2.2c2.9-0.1,3.1,2.7,3.2,4.8c0.3,5.3,0.1,10.7,0.1,16c0,5.7,0,11.3,0,17
		c0,6.3,0.7,12.7-3.1,18.4c-0.8,1.2-0.4,2.9-0.7,4.4c-1.3,3.3-5.3,2.3-7.4,4.5c0.8,2.3,2.9,2.2,4.5,2.5c16.6,3.2,33.3,4.2,50.2,2.8
		c7.6-0.6,15.3-0.7,22.8-2.2c1.5-0.3,3-0.5,4.4-1c1.1-0.4,2.5-0.6,2.5-2.1c0-1.1-1.3-1.3-2.2-1.7c-2.1-0.8-4.1-1.6-4.7-4
		c-7.8-17.2-3.5-35.4-4.1-53.2c-0.2-6.8,2.1-8.5,8.9-8.5c58.6-0.1,117.2,0,175.9,0C497.5,462.2,499.9,461.9,501.8,463.8z"/>
	<path class="st2" d="M501.8,463.8c-23.3,0-46.6,0-69.9-0.1c-38.1-0.1-76.3-0.1-114.4-0.2c-3.3,0-5.3,0.4-5.3,4.3
		c0,15.2-0.1,30.3-0.1,45.5c0,1.2,0.4,2.3,1.3,3.1c2.5,2.3,2.9,5.1,2.4,8.2c-0.5,4.2-3.5,5.3-7,5.5c-5.4,0.3-10.9,0.2-16.3,0.1
		c-7.4-0.2-9.8-2.8-9.9-10.5c1.3-10.1,1.2-20.2,0.2-30.3c-0.5-4.8-0.2-9.6-0.4-14.4c-0.1-1.7,0.2-4.1-2.5-4.1
		c-2.7,0-2.3,2.4-2.4,4.1c-1,12.9-0.7,25.9-1.8,38.8c-0.3,3,1.6,5.8,1.5,8.8c-1,5.1-4.5,7.1-9.2,7.5c-5.6,0.4-11.2,0.3-16.9,0
		c-3-0.2-6-0.9-7.1-4.3c-1.4-3.6-1-6.8,2-9.5c0.8-0.7,1.3-1.5,1.3-2.6c0-16.1,0-32.3,0-48.8c-4.5,1.6-8.4,1.7-12-0.7
		c-0.8-0.5-1.9-0.6-2.9-0.6c-19.8,0.1-39.6,0.2-59.5,0.2c-4.9-0.1-9.9-0.1-14.8-0.2c-1.8,0-3.4-0.4-3.3-2.7c0.1-1.9,1.6-2.2,3.2-2.2
		c4,0,7.9-0.1,11.9-0.1c19.3,0.1,38.6,0.1,58,0.3c2.8,0,3.3-0.9,3.1-3.5c-0.3-4.1,0.5-8.1-3.6-11.6c-3-2.6-2.6-7.5,0.7-10.2
		c2.5-2,2.7-4.1,2.8-6.8c0.3-10.5-0.7-21,0.8-31.4c3-20.7,24.6-42,50.5-40.8c21.6,1,42.3,19.1,45.8,41.6c0.6,3.6,0.7,7.3,0.8,10.9
		c0.1,5.2,1.8,9.8,5.1,13.8c2.4,2.8,4.6,6.2,9.3,3.1c1.5-1,4.7-1.1,6.2,0.6c3,3.5,7.1,3.9,11.1,5.2c4.7,1.5,7.2,6.4,6.5,11.2
		c-0.7,4.5-4.8,8.4-9.6,8.8c-2.4,0.2-4.1,0.5-5.8,2.6c-3.7,4.4-10.5,3.4-12.8-1.8c-1-2.3-2.5-3.2-4.5-4c-7.2-3.1-10.9-6.5-21.5-19.2
		c0,10.1,0,20,0,29.8c0,2.1,1.6,1.7,2.9,1.7c18.5,0,37-0.1,55.5,0.1c3.2,0,2.9-1.7,2.9-3.8c0-9.7,0-19.3-0.1-29
		c0-4.7,1.9-7.9,6.7-8.3c2.6-0.2,2.2-1.6,2.6-3.2c1-4.5,4.8-6.8,9-6c1.3,0.3,2.2,0.8,2.3,2.2c0,1.4-0.8,2.1-2.2,2.2
		c-0.8,0.1-1.7,0-2.5,0.2c-1.7,0.3-2,1.5-1.9,3c0.1,1.8,1.3,1.6,2.5,1.6c6,0,12,0,18,0c1.2,0,2.4,0,2.3-1.7
		c-0.1-1.2-0.3-2.4-1.7-2.7c-0.8-0.2-1.7-0.2-2.5-0.2c-1.5-0.1-2.6-0.7-2.5-2.4c0.2-1.8,1.5-1.9,2.9-2c4.4-0.4,7.4,1.7,8,6.2
		c0.3,2.5,1.2,3,3.4,2.9c2.7-0.1,5.3-0.1,8,0c3.8,0.1,7.2,0.7,8-5c0.5-3.7,4.5-4.4,8.1-4.1c1.3,0.1,2.3,0.7,2.3,2.1
		c0.1,1.4-0.9,2.1-2.2,2.2c-0.8,0.1-1.7,0.1-2.5,0.2c-1.6,0.2-2.1,1.3-2.1,2.9c0,1.8,1.2,1.7,2.4,1.7c6,0,12,0,18,0
		c1.1,0,2.4,0.4,2.5-1.5c0.1-1.5-0.3-2.7-1.9-3c-1-0.2-2-0.1-3-0.3c-1.1-0.2-1.9-0.8-1.9-2c0-1.4,0.9-1.9,2.2-2.2
		c4-0.9,8.1,1.3,8.8,5.4c0.4,2.4,0.8,3.5,3.7,3.9c4.5,0.6,5.9,4.2,5.9,8.5c-0.1,9.5,0.1,19-0.1,28.5c-0.1,3.1,0.8,4,3.9,3.9
		c9.2-0.3,18.3-0.2,27.5-0.3c2.3,0.1,4.6,0.1,6.9,0.2c1.5,0,2.7,0.7,2.8,2.2c0.1,1.8-1.2,2.6-2.8,2.7
		C509.1,463.8,505.4,463.8,501.8,463.8z"/>
	<path class="st3" d="M142.1,458.8c1.5,0,3,0,4.5,0c1.6,0,3.1,0.3,3.2,2.3c0.1,1.9-1.2,2.6-2.9,2.6c-3.3,0-6.7,0-10,0
		c-1.7,0-3.1-0.7-3-2.6c0.1-1.9,1.5-2.4,3.2-2.3C138.8,458.8,140.4,458.8,142.1,458.8z"/>
	<path class="st4" d="M527.5,463.7c-2.3-1-7.4,2-7.2-2.8c0.1-4,4.9-1.6,7.6-2.1c1.6-0.3,3.3,0,5-0.1c1.7,0,3,0.5,3,2.4
		c0,1.9-1.3,2.5-3,2.5C531.2,463.7,529.5,463.7,527.5,463.7z"/>
	<path class="st2" d="M279.4,350.2c-12.2-0.8-21.2-6.7-26.7-17.8c-1.2-2.4-2.3-4.6-4.5-6.4c-2.4-1.9-3.8-5.2-2.2-7.6
		c2.4-3.6,1.5-6.9,1.3-10.5c-0.2-4.5,0.7-8.9,1.7-13.3c1.7-7.2,1.8-14.5-0.1-21.7c-1.2-4.6-2.8-9.2-4.4-13.8
		c-2.6-7.2-1.6-14.1,1.4-20.9c2.2-5,6.3-7.8,11.8-7.8c14.8-0.1,29.6-0.1,44.4,0c6,0,9.9,3.3,12.2,8.7c2.8,6.7,3.3,13.4,0.8,20.4
		c-3,8.8-6.6,17.4-5.5,27.1c0.3,2.8,0.3,5.6,1.3,8.3c1.2,3.6,1.3,6.8-0.8,10.4c-1.6,2.6-1.2,6.3,1.3,9.1c3.9,4.5,3.8,8.3-0.7,12
		c-1.6,1.4-2.4,3-3.3,4.8C301.8,343.3,292.6,349.6,279.4,350.2z"/>
	<path class="st2" d="M396.8,376c-4.2-1.2-8.5-2.4-12.6-3.7c-1.8-0.6-4.3-0.5-4.3-3.3c0-2.5,1.1-4.5,3.4-5.7c2.9-1.6,6-1.8,9.2-1.7
		c2.3,0.1,3.8,0.2,4.5-3c0.7-3.7,4-5.5,7.7-4.7c4,0.8,6.3,4.1,5,7.8c-1.2,3.7,0.8,4.1,2.9,5.4c4.1,2.6,8.3,5.3,7.3,11.3
		c-0.3,2,0.9,2.3,2.4,3c2.7,1.2,2.4,3.6-0.1,4.1c-3.3,0.6-2.4,2.6-2.4,4.4c-0.2,14-0.3,14.1-14.4,14.1c-6.2,0-12.3,0-18.5,0
		c-6-0.1-8.1-2.2-8.3-8.1c0-2.2,0-4.3,0-6.5c0-1.8,0.3-3.7-2.6-3.7c-1.5,0-2.7-2.3-1.9-2.6c3.8-1.2,4-7,9.2-6.5
		c4.4,0.5,8.9,0.1,13.4,0.1C396.7,376.5,396.7,376.3,396.8,376z"/>
	<path class="st5" d="M428.4,357.7c1.1-6.9,3-8.5,9.6-8.5c7.5,0,15-0.1,22.5,0c6.6,0,8.5,1.7,9.6,8.4c3.2-0.7,3.8-3.2,4.3-5.8
		c0.3-1.6,1-2.5,2.6-2.3c1.7,0.3,1.9,1.6,1.8,3.1c-0.4,4-2.4,7.1-5.9,8.7c-2.9,1.3-3.2,3.2-3.2,5.8c0.1,9.3,0,18.7,0,28
		c0,6.7-2.2,8.8-9,8.9c-7.8,0-15.7,0-23.5,0c-6.1,0-8.5-2.3-8.5-8.4c-0.1-9.5-0.1-19,0-28.5c0-2.7-0.2-4.5-3.2-5.9
		c-3.5-1.6-5.6-4.7-5.9-8.7c-0.1-1.4,0-2.8,1.7-3.1c1.6-0.3,2.3,0.7,2.6,2.3C424.5,354.3,425.2,356.7,428.4,357.7z"/>
	<path class="st6" d="M353,338.7c0.4,0,1.2,0,2,0.2c6.3,1.1,16.2,15.1,14.8,21.4c-0.9,4.2,2.4,5.8,4.3,8.3c1,1.4,3.4,2.4,1.8,4.5
		c-1.7,2.3-3.5,0.6-5.2-0.3c-7.9-4.3-15.8-8.5-23.6-12.9c-5.1-2.9-7-8.2-5.3-13.7C343.2,341.8,347.5,338.8,353,338.7z"/>
	<path class="st7" d="M437.8,313.5c-1.7,3.7-1.2,8.2-0.2,12.9c0.8,3.8-3.2,8-7.3,8.8c-4.6,0.9-8.1-1.3-9.6-5.3
		c-1.2-3.2-3.1-5.1-5.5-7.1c-5-4.3-6.1-11.5-3-16.8c3.1-5.3,9.3-8.1,14.8-6.7C433.4,301,437.8,306.4,437.8,313.5z"/>
	<path class="st6" d="M481.1,326.2c0.1,2.6-0.5,5.2-2.4,6.9c-3.4,3.1-6.9,6.2-10.8,8.5c-4.3,2.6-10-1.4-9.3-6.5
		c0.4-2.6,0.2-5.1,0-7.7c-0.7-6.4,4.5-12.2,10.8-12.5C475.4,314.7,481,320.1,481.1,326.2z"/>
	<path class="st8" d="M283.5,519.8c0,6.8,2,9,8.8,9c4.8,0,9.7-0.2,14.5,0.1c3.9,0.2,6.8-1.1,8.9-4.2c1.5,1.5,3.5,1.8,5.4,2.2
		c1.6,0.3,3,1.1,3.3,2.7c0.3,1.9-1.6,2.3-2.9,2.9c-5.4,2.3-11.3,2.7-17,3.2c-21.8,1.7-43.6,2.5-65.2-2.7c-1.1-0.3-2.2-0.6-3.3-1
		c-0.9-0.4-1.9-0.9-1.8-2.1c0.1-1.2,1-1.7,2-2c2.5-0.7,5.1-1.3,7.7-1.9c2.5,2.5,5.6,3.2,9.1,3.1c4.6-0.2,9.3-0.1,14,0
		c4.6,0.1,7.7-1.6,9.1-6.1C278.3,521.3,281.1,521.1,283.5,519.8z"/>
	<path class="st9" d="M322.8,394.8c1.7,3.6,1,7.5,1.1,11.3c0.3,8.7,3.8,15.7,10.3,21.3c2.8,2.4,4.9,11.1,3.4,14.4
		c-0.8,1.9-1.9,0.6-2.8,0.2c-11.5-4.4-21.7-18.7-22.1-31c-0.2-6.3-0.4-12.6-0.7-18.9c-0.1-1.7,0.7-4.2-2.1-4.3
		c-3.1-0.1-2.3,2.7-2.3,4.5c0,22.3-0.1,44.6,0.1,66.9c0,4.2-1.2,5.4-5.3,5.2c-10.2-0.3-20.3-0.2-30.5-0.1c-2.8,0-3.8-0.8-3.8-3.6
		c0.1-26.7,0.1-53.3,0-80c0-2.6,1-4,3.3-4.9c6.5-2.6,12.9-5.3,19.3-7.9c6.5,5.5,8.7,5.6,16,0.7c1.5,0.5,2.5,1.6,3.3,2.8
		c-0.3,0.6,0-0.1-0.1,0.5c-0.4,2.1-4.3,2.9-1.9,5.8c2.1,2.5,4.6,3.7,7.8,2c0.3-0.1,0.6-0.1,1-0.1c1,0.8,1.6,1.8,1.8,3
		C315.2,388.5,320.7,391,322.8,394.8z"/>
	<path class="st10" d="M469.6,429.6c0.1,8.5,0,17,0.2,25.5c0.1,2.8-1,3.7-3.8,3.7c-27.8-0.1-55.7-0.1-83.5,0c-3.2,0-4-1.2-3.9-4.1
		c0.2-8.3,0.1-16.7,0.2-25c1.4-2.4,3.8-2.5,6.1-2.5c26.1-0.1,52.3-0.1,78.4,0C465.7,427.2,468.1,427.2,469.6,429.6z"/>
	<path class="st9" d="M267.7,367.9c2.1,0.1,3.7,1,5.8,2.7c-8.9,1.4-10,7.1-9.9,14.6c0.4,24.8,0,49.6,0.2,74.4c0,4-1.1,5.5-5,4.8
		c-3-0.5-7.3,2-7.2-4.7c0.4-21.8,0.1-43.6,0.1-65.4c0-1.2,0-2.3,0-3.5c0-1.6-0.3-3.2-2.3-3.1c-2,0-2.2,1.7-2.3,3.2
		c-0.1,1.2,0,2.3,0,3.5c0,10.8-0.1,21.6,0.1,32.4c0,3.2-0.6,4.8-4.3,4.7c-8.9-0.3-7.4,0.8-7.4-7.4c0-7.8,0-15.6,0.1-23.5
		c0-2.1-0.3-4.4,1-6.3c4.9-6.8,9.5-14,17.2-18.2C258.5,373.8,263.2,370.9,267.7,367.9z"/>
	<path class="st11" d="M307.6,512.4c-6.1-1.5-11.9-2-17.8,0.8c-0.6-14.2-1.2-27.8-1.8-41.4c-0.1-2.2,0.7-2.9,2.8-2.9
		c4.5,0.1,9,0.2,13.5,0c2.8-0.1,3.3,1,3.3,3.5C307.6,485.5,307.6,498.6,307.6,512.4z"/>
	<path class="st12" d="M251.8,512.8c0-14,0.1-27.5,0-40.9c0-2.5,0.9-3.1,3.2-3c4.5,0.1,9,0.2,13.4,0c2.6-0.1,3,1.1,2.9,3.3
		c-0.6,13.4-1.1,26.9-1.6,40.7C263.7,511.1,257.9,510.3,251.8,512.8z"/>
	<path class="st13" d="M469.6,429.6c-1.7-0.9-3.5-0.8-5.3-0.8c-26.5,0-53.1,0-79.6,0c-2,0-4-0.1-5.8,0.9c-0.5-7.1-0.5-7.1,6.5-7.1
		c25.9,0,51.8,0,77.6,0C470,422.7,470,422.7,469.6,429.6z"/>
	<path class="st14" d="M283.5,519.8c-1.3,4.2-4.7,2.8-7.6,3c-3.6-11.8-0.4-23.7-0.7-35.6c-0.1-5,0.6-10,0.5-15c0-3.2,1.5-3.4,4-3.4
		c2.5,0,3.9,0.3,4,3.4c0.3,13.8,0.8,27.6,1.4,41.4C285.2,516,284.5,517.9,283.5,519.8z"/>
	<path class="st12" d="M267.7,367.9c-1.8,2.7-4.2,4.6-7.1,6c-8.7,4.1-15.9,9.9-20.9,18.3c-0.5,0.9-0.6,3.7-3.1,2.3
		c2.2-13.1,9.8-22.5,20.9-29.3C261.6,362.7,264.5,366.5,267.7,367.9z"/>
	<path class="st15" d="M300,523.8c-2.8,0-5.6,0-8.4,0c-1.4,0-2.8-0.1-3.3-1.6c-0.4-1.4,0.5-2.6,1.4-3.5c4.6-4.9,17-4,21,1.4
		c1.7,2.4,0.5,3.4-1.7,3.6C305.9,523.9,302.9,523.8,300,523.8C300,523.8,300,523.8,300,523.8z"/>
	<path class="st15" d="M258.8,523.8c-2.1,0-4.3,0.1-6.4,0c-1.5-0.1-3.7,0.9-4.3-1.3c-0.6-1.9,1.3-2.9,2.5-4
		c4.9-4.7,14.7-4.4,18.8,0.3c0.9,1.1,1.7,2.1,1.2,3.6c-0.5,1.7-2.1,1.3-3.3,1.4C264.4,523.8,261.6,523.8,258.8,523.8z"/>
	<path class="st16" d="M247,452.3c0,1.8,0.1,2.9,0,4.1c-0.4,4.1-4.1,6.4-7.9,4.8c-3.2-1.3-5.6-12-2.8-13.6c2.8-1.5,6.3-1,9.3-0.3
		C248.5,448,246.5,451,247,452.3z"/>
	<path class="st17" d="M342.4,439c0-2.5,0.1-5,0-7.4c-0.1-2.3,0.8-3.4,3.2-3.3c2.2,0.1,3.3,0.9,3.2,3.3c-0.1,5.1-0.1,10.2,0,15.4
		c0,2.4-1,3.2-3.2,3.3c-2.4,0.1-3.3-1-3.2-3.3C342.4,444.3,342.4,441.6,342.4,439z"/>
	<path class="st18" d="M266.9,361.2c8.4-2.3,16.5-2.3,24.7,0C284.3,368.2,275.9,368.2,266.9,361.2z"/>
	<path class="st19" d="M239.2,442.6c-1.5,0-3,0-4.5,0c-2.3,0.1-4.3,0-4.4-3.2c0-3.1,1.7-3.5,4.1-3.5c3.2,0.1,6.3,0.2,9.5,0
		c2.7-0.2,3.5,1,3.4,3.5c0,2.3-0.7,3.4-3.2,3.2C242.5,442.5,240.8,442.6,239.2,442.6C239.2,442.6,239.2,442.6,239.2,442.6z"/>
	<path class="st11" d="M306.8,368.8c-1.3,3-4,6.2-6.6,5.2c-3.3-1.2-8.8-0.2-9.4-5.9C296.3,365.1,301.7,362.3,306.8,368.8z"/>
	<path class="st20" d="M353.4,439c0.9-2-1.6-5.6,2.9-5.6c3.8,0,6,2.1,6.1,5.7c0.1,3.6-1.9,5.9-5.8,5.9
		C351.3,445.1,354.7,440.9,353.4,439z"/>
	<path class="st11" d="M316.8,379.8c-3.9,3.1-10.2,1.9-11.3-2.6c-0.7-2.8,2.5-4.1,4.6-5.6C312.9,373.9,315.3,376.5,316.8,379.8z"/>
	<path class="st11" d="M322.8,394.8c-4.3-1.1-4.8-5.5-7.2-8.3c-0.8-0.9,1-3.2,3-3.7C321.3,386.4,321.8,390.7,322.8,394.8z"/>
	<path class="st12" d="M282,235c6.9,0,13.5-0.2,20.1,0.1c4,0.1,6.4,2.5,8,6.4c3,7.4,1.5,14.2-1,21.3c-3.9,11-3.7,11.1-15.2,11.1
		c-12,0-24-0.1-36,0.1c-2.9,0-4.5-0.7-5.2-3.7c-1.1-4.3-2.6-8.6-4-12.8c-2-6-1-11.9,1.3-17.5c1.3-3.2,4.1-4.8,7.5-4.9
		c4.7-0.1,9.3-0.1,14,0.1c4.7,0.2,7.8,2.5,8.5,7.4c0.2,1.7,0.5,3.7,2.8,3.2c2.5-0.5,2.1-2.7,1.6-4.4C283.9,239.3,283,237.3,282,235z
		"/>
	<path class="st21" d="M279.8,345.6c-10.7,0-20.8-7.2-23.9-17.2c-0.7-2.3-1.3-4-3.9-5.1c-2.7-1-3-3.8-0.4-5.5c3-2,5-5.2,8.5-6.6
		c0.4-0.2,0.9-0.5,1.1-0.9c3.5-7.1,8.2-5.9,14.3-3.2c8.1,3.6,17,3,25.6,1.4c2.8-0.5,4.1-0.5,3.8,2.8c-0.3,2.9,0.1,5.2,3.3,6.9
		c2.2,1.1,1.9,4.3-0.6,5.2c-3,1-3.4,3.2-4.2,5.6C299.9,339,290.5,345.6,279.8,345.6z"/>
	<path class="st11" d="M279.8,290.8c-7,0-14-0.2-20.9,0.1c-3.7,0.2-4.4-1.2-4.3-4.5c0.2-7.5,0-7.5,7.7-7.5c12.8,0,25.6,0.1,38.4-0.1
		c3.1,0,4.3,0.5,4.3,4c-0.1,8,0.1,8-8.1,8c-2.8,0-5.7,0-8.5,0S282.6,290.7,279.8,290.8C279.8,290.8,279.8,290.8,279.8,290.8z"/>
	<path class="st22" d="M290.1,304.8c-8.3,0.4-15.3-1.7-21.6-6.2c-0.9-0.7-2.3-1.3-1.9-2.6c0.4-1.3,1.8-1.2,3-1.2
		c4.1,0.2,8.3-0.6,12.4,0.7c1.4,0.4,3,0.4,4.4,0.1c5.6-1.4,11.1-0.9,16.7,0c2.2,0.4,3.8,0.5,3.7,3.3c0,2.3-0.6,3.5-3.1,4.1
		C299,304.1,294.3,305.2,290.1,304.8z"/>
	<path class="st23" d="M251.8,304.8c0.1-8,3.3-11.4,8.9-9.9c1.2,0.3,2.8,0.5,2.2,2.5c-1,3.7-1.8,7.6-5.4,9.8c-1.5,0.9-2.8,3-4.7,2.1
		C250.7,308.4,252.4,306,251.8,304.8z"/>
	<path class="st24" d="M399.3,381.1c4,0,8,0.2,12-0.1c2.9-0.2,3.8,1,3.6,3.8c-0.2,3.5-0.2,7,0,10.5c0.2,3.2-0.8,4.5-4.2,4.4
		c-7.8-0.2-15.6-0.2-23.4,0c-3.1,0.1-4.6-0.8-4.4-4.2c0.2-3.6,0.1-7.3,0-11c-0.1-2.6,1-3.5,3.5-3.4
		C390.7,381.2,395,381.1,399.3,381.1z"/>
	<path class="st25" d="M384.8,367.6c8.1-4,25.3,0.7,30.9,8.6C404.9,373.9,395.1,370.7,384.8,367.6z"/>
	<path class="st24" d="M464.9,358.8c0.1,12.3,0.1,24.6,0.3,36.8c0,3.1-1.1,4-4.1,4c-8-0.1-15.9-0.1-23.9,0c-2.7,0-4-0.9-4-3.7
		c0.1-13.4,0.1-26.8,0.1-40.3c0-0.3,0.3-0.5,0.5-0.8c1.6,1.6,3.2,2.4,5.7,2c4.4-0.7,8.8,1.1,13.2,0.6c2.1-0.2,4.4,0.2,6.3-0.7
		C461.7,355.6,463.4,356.7,464.9,358.8z"/>
	<path class="st26" d="M464.9,358.8c-2-0.9-3.7-1-6.1-0.5c-4.9,1-10.2,0.7-15.2,0c-1.8-0.2-3.1-0.3-4.9,0.2
		c-2.9,0.9-5.4,0.3-4.9-3.7c0.9-1.8,2.6-1,4-1c7.3-0.1,14.5-0.1,21.8,0C462.8,353.8,465.6,354.5,464.9,358.8z"/>
	<path class="st27" d="M365.2,364.5c-5.5-3-10.8-5.8-16-8.7c-3.3-1.8-4.1-4.7-3-8.1c1-2.9,3-5,6.3-4.7c3.5,0.4,6.4,1.9,6.7,6
		c0.1,1.5,0,3.2,1.9,3.6c4.7,1.1,5.8,3.8,4,8.1C364.7,361.8,365.1,363,365.2,364.5z"/>
	<path class="st11" d="M423.9,303.7c7.4-0.1,11.7,7,8,13.4c-1.4,2.4-2.3,4.1,0.1,6.4c1.7,1.6,1.6,4,0.1,5.9c-1.3,1.7-3.2,1.8-5,1.2
		c-2.2-0.7-3.4-2.6-2.8-4.6c1-3.4-1.2-3.8-3.4-4.7c-4.4-1.8-6.6-6.1-5.7-10.4C416,306.4,419.2,303.7,423.9,303.7z"/>
	<path class="st28" d="M469.7,319.6c4-0.1,6.4,2,6.9,5.8c0.5,3.7-1,6.6-4.9,7.5c-2,0.5-3.9,0.6-4.2,3.3c-0.2,1.7-1.8,1.9-3.1,1.4
		c-1.6-0.6-1.7-2.1-0.7-3.2c1.7-1.9,0.8-3.5,0-5.4C461.6,324,464.6,319.7,469.7,319.6z"/>
	<path class="st29" d="M277,403.7c-1.7-0.3-2.7-1.2-2.7-2.9c0-1.5,1-2.5,2.4-2.6c1.7-0.2,2.9,0.9,3,2.5
		C279.8,402.4,278.5,403.3,277,403.7z"/>
	<path class="st30" d="M290.7,401c-0.4,1.6-1.3,2.8-3.1,2.6c-1.4-0.2-2.4-1.3-2.4-2.7c0.1-1.7,1.3-2.8,3-2.6
		C289.6,398.4,290.6,399.4,290.7,401z"/>
	<path class="st29" d="M290.7,434c-0.5,1.6-1.4,2.8-3.1,2.5c-1.6-0.2-2.7-1.4-2.3-3.1c0.3-1.4,1.3-2.4,2.7-2.3
		C289.6,431.2,290.5,432.3,290.7,434z"/>
	<path class="st31" d="M279.7,417.4c-0.4,1.6-1.3,2.7-3,2.6c-1.6-0.1-2.4-1.3-2.4-2.6c0-1.3,0.8-2.5,2.5-2.6
		C278.6,414.7,279.4,415.8,279.7,417.4z"/>
	<path class="st32" d="M288.1,414.7c1.5,0.2,2.5,1.1,2.4,2.8c-0.1,1.4-1.1,2.4-2.6,2.4c-1.8,0-2.7-1.1-2.6-2.8
		C285.4,415.7,286.3,414.7,288.1,414.7z"/>
	<path class="st33" d="M277,431c1.6,0.4,2.8,1.3,2.6,3c-0.1,1.4-1.2,2.5-2.7,2.4c-1.7-0.1-2.8-1.2-2.7-3
		C274.4,432.1,275.5,431.2,277,431z"/>
	<path class="st34" d="M287.9,387c-1.6,0-2.5-0.9-2.6-2.4c-0.1-1.6,0.8-2.8,2.6-2.8c1.7,0,2.7,1.2,2.6,2.8
		C290.5,386.1,289.4,386.9,287.9,387z"/>
	<path class="st35" d="M277.1,387c-1.5,0-2.6-0.7-2.8-2.2c-0.2-1.7,0.7-2.9,2.4-3c1.8-0.1,2.8,1,2.8,2.6
		C279.7,385.9,278.6,386.8,277.1,387z"/>
	<path class="st36" d="M280,336c-2.7,0.1-5.3-0.4-7.6-1.8c-1.3-0.7-2.1-1.7-1.5-3.2c0.7-1.6,2.1-1.6,3.3-0.9c3.6,2.1,7.2,2.1,10.8,0
		c1.3-0.7,2.6-0.7,3.4,0.8c0.8,1.5-0.2,2.5-1.4,3.2C284.9,335.6,282.5,336.1,280,336z"/>
	<path class="st37" d="M267.8,323.3c0,2.1-0.8,3.5-3.1,3.6c-2,0.1-3.7-0.5-3.8-2.9c-0.1-2.3,1.3-3.8,3.6-4
		C266.7,319.7,267.7,321.1,267.8,323.3z"/>
	<path class="st38" d="M270.1,311.7c2.3,0.5,5,0.6,4.7,3.5c-0.3,2.8-2.5,1.8-4.2,1.2c-0.3-0.1-0.7-0.1-0.9,0c-2,0.8-4.4,1.4-4.3-1.7
		C265.4,312.2,268.1,312,270.1,311.7z"/>
	<path class="st39" d="M297.7,323.4c0,2.5-1.3,3.4-3.5,3.4c-1.9,0-3.3-0.7-3.4-2.8c-0.1-2.3,1.2-4,3.4-4.1
		C296.3,319.9,297.5,321.5,297.7,323.4z"/>
	<path class="st40" d="M288.6,311.8c2.1-0.1,3.7,0.3,4.8,1.6c0.6,0.6,0.7,1.4,0.4,2.3c-0.4,1.2-1.3,1.4-2.3,1.3
		c-0.9-0.1-1.9-0.7-2.8-0.5c-1.7,0.3-3.9,1.6-4.2-1.3C284.3,312.4,286.9,312.1,288.6,311.8z"/>
</g>
</svg>
