<?xml version="1.0" encoding="utf-8"?>
<!-- Generator: Adobe Illustrator 19.0.0, SVG Export Plug-In . SVG Version: 6.00 Build 0)  -->
<svg version="1.1" id="Calque_1" xmlns="http://www.w3.org/2000/svg" xmlns:xlink="http://www.w3.org/1999/xlink" x="0px" y="0px"
	 viewBox="0 0 612 792" style="enable-background:new 0 0 612 792;" xml:space="preserve">
<style type="text/css">
	.st0{fill:#526266;}
</style>
<path class="st0" d="M546.5,292.2c-0.6-8.1-0.5-16.2-2.8-24c-5.3-17.7-13.3-34.1-24.8-48.7c-16-20.3-36.3-34.6-60.8-42.8
	c-14.4-4.8-29.2-6.7-44.3-6c-4.3,0.2-7.2-1-9.6-4.6c-7.7-11.4-17.2-21.3-28.1-29.6c-17.5-13.4-36.4-23.8-58.8-26.2
	c-4.1-0.4-8.2-0.3-12.3-1.2c-9.3,0-18.7,0-28,0c-0.8,0.8-1.9,0.4-2.9,0.5c-8.2,0.8-16.5,0.9-24.4,3.5c-29.7,9.8-53.7,27.6-71.9,53
	c-2.5,3.5-5.2,5-9.6,4.8c-14.2-0.8-28.3,0.9-41.9,5.1c-25.9,8-47.3,22.7-63.8,44.1c-13,16.9-22.7,35.6-25.9,57
	c-0.9,5.6-0.7,11.4-1.7,17c0,9.7,0,19.3,0,29c0.7,0.9,0.4,1.9,0.5,2.9c0.8,8.4,0.9,16.9,3.6,25c9.4,27.8,25.6,50.8,49,68.3
	c6.3,4.7,8.6,9.8,8.6,17.5c-0.3,47.1-0.2,94.3-0.1,141.4c0,3.5-0.2,7,0.8,10.4c5.1,18.3,15.6,30.6,35.6,32.5c105.3,0,210.7,0,316,0
	c8.3-1.1,16.1-3,22.4-9.4c9.2-9.4,14.1-20.2,14-33.5c-0.2-48.3,0-96.6-0.1-144.9c0-5.4,1.7-9.1,6.1-12.2c10.5-7.2,19.6-16,27.4-26.1
	c14-18.1,25-37.5,27-61c0.3-3.6,0.3-7.3,1.1-10.8c0-8.7,0-17.3,0-26C546,295.5,546.6,293.8,546.5,292.2z M466.9,583.2
	c-0.4,12.2-9.7,21.1-21.9,21.7c-4,0.2-8-0.1-12-0.1c-32,0.1-63.9,0.1-95.9,0.1c-65.6,0-131.2,0-196.8,0c-16.3,0-25.3-9.1-25.4-25.4
	c0-11.5,0.1-23-0.1-34.5c-0.1-3.2,0.8-4.3,4.1-4.2c6.6,0.3,13.3,0.2,20,0.2c37.3-0.1,74.6-0.2,112-0.2c60.8,0,121.6,0,182.5,0
	c3.2,0,6.3,0.1,9.5,0.2v0c7-0.1,14,0,21-0.2c2.5-0.1,3.1,0.9,3.1,3.2C466.9,557.2,467.3,570.2,466.9,583.2z M502.1,386.9
	c-8.8,10.3-19.4,18.8-31.2,25.5c-3,1.7-4.1,3.6-4,7.1c0.1,33.5,0,66.9,0.2,100.4c0,4.1-0.9,5.6-5.2,5.3c-6.3-0.4-12.6-0.2-19-0.3
	c-17.5,0.1-35,0-52.4,0.3c-3.6,0.1-3.5-1.7-3.5-4.2c0.1-15.8-0.1-31.6,0.1-47.5c0-3.4-0.7-4.5-4.3-4.5C371,469,371,468.9,371,480.4
	c0,13.5-0.1,27,0.1,40.5c0,3.1-0.6,4.3-4,4.2c-21.3-0.2-42.6-0.2-63.9,0c-3.3,0-4.2-1-4.1-4.2c0.1-15.8,0-31.6,0.1-47.5
	c0-3.4-0.7-4.6-4.3-4.5c-11.7,0.1-11.8,0-11.8,11.5c0,13.5-0.1,27,0.1,40.5c0,3.2-0.7,4.2-4.1,4.2c-24-0.1-48-0.1-71.9,0
	c-3.4,0-4.1-1.1-4-4.2c0.1-15.8-0.1-31.6,0.1-47.5c0-3.4-0.8-4.5-4.3-4.5c-11.8,0-11.8-0.1-11.8,11.5c0,13.7,0,27.3,0,41
	c0,2.2,0,3.7-3,3.7c-15-0.2-30-0.2-45-0.3l0,0v0c-6.5,0.1-13-0.1-19.5,0.3c-3.8,0.2-4.7-1-4.7-4.7c0.2-29.6-0.4-59.3,0.3-88.9
	c0.3-11.1-2.4-17.8-12.4-24.7c-41.5-28.7-57.2-69.4-50.1-119c4.6-32.7,19.4-60.1,46.9-79.3c23.7-16.6,50.2-22.3,78.7-17.8
	c4.3,0.7,6.5-0.3,8.6-4.1c18.9-33.5,47.3-53.8,85.4-60c12.5-2,25.1-2.4,37.6,0.5c0,0,0,0,0,0c0,0,0,0,0,0c13.7,1,26.2,5.9,38.1,12.3
	c18.4,9.9,33,23.8,43.8,41.8c0.1,0.1,0.3,0.2,0.3,0.4c3,10,10,10.1,18.6,8.3c7.3-1.5,14.9-1.2,22.3,0.4c0,0,0,0,0,0
	c20.8,1.8,39.4,9.5,55.4,22.8c25.6,21.2,38.3,49.1,41.7,81.7C533.7,329.4,524.9,360.3,502.1,386.9z"/>
</svg>
