<?xml version="1.0" encoding="utf-8"?>
<!-- Generator: Adobe Illustrator 19.0.0, SVG Export Plug-In . SVG Version: 6.00 Build 0)  -->
<svg version="1.1" id="Calque_1" xmlns="http://www.w3.org/2000/svg" xmlns:xlink="http://www.w3.org/1999/xlink" x="0px" y="0px"
	 viewBox="0 0 612 792" style="enable-background:new 0 0 612 792;" xml:space="preserve">
<style type="text/css">
	.st0{fill:#25B6D1;}
	.st1{fill:#6ACDE0;}
	.st2{fill:#6CCDE0;}
	.st3{fill:#FDFDFD;}
	.st4{fill:#CB9877;}
	.st5{fill:#BE8561;}
	.st6{fill:#3F3E3F;}
	.st7{fill:#3E3E3F;}
	.st8{fill:#F1B508;}
	.st9{fill:#9B6044;}
	.st10{fill:#E0E2E3;}
</style>
<g>
	<path class="st0" d="M325,639.4c-13,0-26,0-39,0c-7.4-1-14.9-0.8-22.2-1.7c-19.3-2.3-37.7-8-55.6-15.3
		c-26.2-10.8-50.3-25.1-71.5-44c-20.7-18.5-38.8-39.2-52.9-63.3c-15.1-25.8-25.8-53.2-31.3-82.6c-1.6-8.3-1.5-16.8-2.1-25.3
		c-0.1-1.3,0.4-2.7-0.5-3.9c0-9,0-18,0-27c1.1-3.4,0.2-7,0.5-10.5c-0.6-34.8,9.2-66.9,24.5-97.7c10.4-21,23.4-40.3,39.2-57.5
		c16.6-18.1,35-34.2,56-47c27.3-16.6,56.4-28.5,87.9-33.9c9.9-1.7,20.2-2,30.3-1.8c3.5-0.3,7.1,0.6,10.5-0.5c7.3,0,14.7,0,22,0
		c9.1,0.8,18.2,0.8,27.2,1.7c16,1.6,31.3,6.2,46.3,11.8c26.4,9.8,50.9,23.1,72.7,41c24.1,19.8,44.9,42.6,60.7,69.6
		c15.1,25.8,26.1,53.2,31.4,82.6c1.9,10.8,2.2,21.8,2.2,32.8c0.3,3.5-0.6,7.1,0.5,10.5c0,8.7,0,17.3,0,26
		c-1.2,7.4-0.8,14.9-1.7,22.3c-2.2,19.3-8,37.7-15.4,55.6c-10.8,26.2-25.1,50.4-44.1,71.5c-18.4,20.5-38.9,38.7-63,52.6
		c-25.9,14.9-53.2,26-82.7,31.4c-8.7,1.6-17.5,1.5-26.3,2.1C327.6,639,326.2,638.5,325,639.4z"/>
	<path class="st1" d="M50,365.4c0.3-0.1,0.6-0.1,0.9-0.2c0.1,3.7,0.8,7.5-0.9,11.2C50,372.8,50,369.1,50,365.4z"/>
	<path class="st2" d="M561.2,366.2c0.3-0.1,0.6,0,0.8,0.2c0,3.7,0,7.3,0,11C560.3,373.8,561,370,561.2,366.2z"/>
	<path class="st1" d="M287.8,128.3c0.1-0.3,0.2-0.6,0.2-0.9c3.7,0,7.3,0,11,0C295.4,129.1,291.6,128.4,287.8,128.3z"/>
	<path class="st3" d="M352,445c1.3,5.9,0.6,11.9,0.5,17.9c0,3.2,0.9,4.7,4.1,5.5c19.9,5.2,39.8,10.9,59.8,15.9
		c9.5,2.4,15.9,7.6,20.4,16c5.6,10.5,11.8,20.8,18,31.7c-99.3,0-198,0-297.5,0c4.3-7.4,8.3-14.4,12.3-21.5
		c13.7-24.2,11.6-22.4,38.4-29.5c15.7-4.2,31.4-8.5,47.2-12.6c3.1-0.8,4.4-2,4.3-5.4c-0.2-6.1,0.1-12.3,0.1-18.5
		c2.5-0.7,4,1,5.6,2.5c3.1,2.9,6.1,6,9.2,9.1c6.1,6.3,13.5,9.4,22.3,9.1c3.5-0.1,6.9,0.3,10.4,0.2c3.8-0.4,7.7,0.1,11.5-0.3
		c7-0.8,13.2-3.2,18.3-8.2c3.2-3.1,6.3-6.4,9.6-9.5C347.9,446.1,349.4,444.4,352,445z"/>
	<path class="st4" d="M307,467.3c-11.8,0.6-23.6,1.3-32.9-8.3c-4.7-4.9-9.6-9.6-14.4-14.3c-4-4-7.8-8.2-11.9-12.1
		c-4.7-4.5-7.3-9.8-6.9-16.4c0.1-1.8-0.1-3.7,0-5.5c0.3-5.2-0.9-9.1-4.9-13.4c-8.7-9.5-9.9-21.9-8.4-34.2c0.7-5.8,6.2-8.1,13.3-6.9
		c3.1-0.4,3.9,2.1,5,4c1.9,3.3,3.1,6.9,5.6,10.1c1.9-1,1.4-2.7,1.4-4c0.1-4.8,0-9.7,0.1-14.5c0-2.5,0.2-5,2.6-6.7
		c5.5-1.6,11.1-0.7,16.7-0.9c5.4-0.2,10.9,0,16.3-0.1c2.4,0.8,4.9,0.2,7.4,0.5c3.4,0,6.9-1.2,10.1,0.8c0.5,0.4,0.9,0.9,1.2,1.5
		c1.1,2.2,1,4.5,1,6.8c0.1,14.2,0,28.5,0,42.7c0,2.8-0.3,5.6-1.3,8.3c-1.4,2-3.3,1.5-4.8,0.5c-10.4-6.8-19.3-1.9-27.9,3.6
		c-1.9,1.2-4.7,2-4.7,5.1c4.1,2,8.5,0.9,12.7,0.9c4.3-0.1,7.3,0.9,8.8,5.3c1.5,4.4,5.6,5.8,9.5,7.1c2.5,0.8,5.2,1.1,6.7,3.7
		c1.5,3.8,0.9,7.9,0.9,11.8c0.1,6.3,0.1,12.6,0,18.9C308.2,463.5,308.3,465.6,307,467.3z"/>
	<path class="st5" d="M307,467.3c-1.7-3.3-0.9-6.9-0.9-10.3c-0.1-8.8,0-17.7,0-26.5c0.7-2.2,2.6-2.7,4.6-3.2
		c5.1-1.1,9.3-3.4,11.2-8.7c1-3,3.4-3.5,6.3-3.7c4.9-0.3,9.9,1.3,14.5-1.1c-3.2-5.8-9.1-7.8-14.6-10.2c-6.5-2.8-12.8-2.4-18.7,2
		c-2.3,1.7-2.4,1.6-4.1-0.2c1.1-1.7,0.8-3.5,0.8-5.3c0-17.8,0-35.6,0-53.4c1.9-2.6,4.9-1.9,7.4-1.8c13.6,0.2,27.1,0,40.7,0
		c0.7,0,1.3,0.2,1.9,0.3c2.9,1.1,3,3.6,3.1,6.2c0.1,4.6,0,9.3,0.1,13.9c0,1.6-0.2,3.3,0.9,5.2c3.1-2.8,3.8-6.7,5.8-9.7
		c1.3-2,1.9-4.8,5.2-4.4c8.7-1.9,13.8,2.2,13.9,11.1c0.1,7.4-1.2,14.6-3.7,21.5c-1.3,3.5-2.6,7.2-5.8,9.1c-4.3,2.6-5,6.2-4.5,10.5
		c1.6,12-2.4,21.5-11.9,28.9c-2.7,2.1-4.8,5-7.2,7.5c-3.3,3.2-6.9,6.2-9.8,9.8C332.9,466.1,320.7,468.7,307,467.3z"/>
	<path class="st3" d="M241,313.4c-0.1-0.7-0.3-1.3-0.2-2c0.7-7-0.9-12.4-6.5-17.8c-10.2-9.9-9.9-26.9-1.1-38.4
		c8.6-11.2,24.5-15,37.1-8.3c4.1,2.2,6.1,1.9,9.3-1.5c7-7.5,15.8-11.3,26.3-10.8c3.4,4.8,3,14.1-0.9,17.9
		c-19.7,19.3-39,39-58.6,58.4C245,312.4,243.7,314.6,241,313.4z"/>
	<path class="st3" d="M241,313.4c5.1-5,10.3-9.9,15.4-14.9c14.6-14.5,29-29.3,43.8-43.6c4.3-4.2,6.7-8.4,5.9-14.4
		c-0.3-2-0.1-4-0.1-6c11.2-0.2,20.4,4.2,27.7,12.4c2.1,2.4,3.4,2.4,6.1,0.9c8.7-5,17.9-5.7,27.2-1.4c1.6,2.2,0.2,3.7-1.3,5.2
		c-16.6,16.6-33.2,33.3-49.9,49.8c-3.5,3.5-4.8,3.1-6.8-1.2c-1.8-3.8-3.8-3.9-6.8-0.3c-5.7,6.6-11.9,12.7-18.2,18.8
		c-1.8,1.7-3.5,4.2-6.7,2.4c-1-1.3-1.1-2.8-0.7-4.4c6.3-9.1,14.8-16.2,22.6-23.9c3.8-3.8,5.7-7.6,4.4-13.5c-6.7,6.5-13,13-19.5,19.3
		c-1.8,1.7-3.6,4.3-6.8,2.4c-1-1.3-1.1-2.8-0.7-4.3c2.6-5.2,7.3-8.5,11.2-12.6c3.8-4,7.6-8,11.7-11.6c3.9-3.4,5.4-7.4,4.2-12.8
		c-1.8,0.6-2.8,2.2-4,3.4c-17,17-34.1,34.1-51.1,51c-1.9,1.9-3.7,5.2-7.5,3.1C241,316.1,241,314.8,241,313.4z"/>
	<path class="st3" d="M241,317.5c2.4-0.3,3.6-2.2,5.1-3.7c18.3-18.2,36.5-36.5,54.7-54.7c1.3-1.3,2.6-2.5,4.9-4.7
		c-0.2,7.5,2.1,13.7-4.1,19.2c-8.2,7.2-15.8,15.2-23.6,22.9c-6.8,2.6-6.9,2.6-6.8,10.2c0,7.5-0.1,15,0.1,22.5c0,1.7-0.3,4.3,2.2,4.3
		c2.6,0,2-2.5,2.3-4.2c0.4-2.7-0.8-5.8,2.3-7.7c7.6-7.3,15.3-14.7,22.9-22c1.9,1,2.1,2.9,2.1,4.7c0.1,9.9,0.5,19.9-0.2,29.8
		c-4,4.8-7.8,9.8-13.9,12.3c-11.4,0.1-22.7,0.2-34.1,0.3c-4.4,3-9.8,2.9-13.9-0.3C240.7,336.7,240.6,327.1,241,317.5z"/>
	<path class="st3" d="M300.9,335.4c0-12,0-24,0.1-36c0.2-2.1-0.3-4.6,3-4.7c4.9-0.2,6.5,1.4,7.4,7.5c1.8,0.3,2.5-1.3,3.5-2.3
		c16.4-16.3,32.7-32.7,49-49c1.3-1.3,2.8-2.4,3-4.4c1.3,0.2,2.3,0.8,3.1,1.7c1.9,3.2-0.6,5-2.3,6.8c-6.7,6.9-13.6,13.7-20.4,20.6
		c-9.9,9.9-19.7,19.9-29.8,29.6c-3.8,3.6-5.3,7.5-4.1,13c5-4.3,9.3-9.2,13.9-13.5c1.9-1.8,3.5-4.1,6.7-3.7c1.7,1.1,3.3,2.1,5-0.1
		c1-1.2,2.4-2.3,4.2-1.6c2,1.6,1.3,4.2,2.3,6.6c2.6-1.8,4.4-3.9,6.4-5.9c8.7-8.6,17.3-17.3,26-25.9c1.7-1.7,3.2-3.9,6.1-3.7
		c1.7,1.5,0.8,3.4,0.8,5.2c-1.2,3-2.9,5.5-5.2,7.8c-10,10-20,20-30,29.9c-1.8,1.8-3.5,4.1-6.7,3.6c-1.7-1.2-3.2-1.9-5.1-0.1
		c-1.1,1-2.7,1.8-4.4,0.7c-1.4-1.4-1.3-3.3-1.8-6c-6.2,6.1-11.9,11.7-17.4,17.7c-0.9,1-0.9,2.5-1.2,3.7c-1.5,5.3-7.3,7.3-11.8,3.9
		C300.7,336.5,300.7,335.9,300.9,335.4z"/>
	<path class="st3" d="M334,301.4c-6.8,7.5-13.6,15-21,23.1c-3.5-8.3-2.3-15.3,2-19.6c17-17,34.1-34.1,51.1-51.1c1.6-1.6,3.6-3,4-5.6
		c3.9,1.7,6.8,4.5,9,8.1c0.8,2.1-1,3-2.1,4.1c-11.2,11.3-22.5,22.6-33.8,33.8C340.4,297,336.1,297.8,334,301.4z"/>
	<path class="st3" d="M334,317.4c1.2-1.1,2.4-2.1,3.6-3.1c1.2-1,2-3,3.9-2.1c1.8,0.8,1.3,2.7,1.4,4.3c3.2,2.2,1.3,5.9,2.5,8.9
		c1.9,0,2.7-1.7,3.8-2.7c4.9-4.9,9.7-9.9,14.8-14.6c1.9-1.8,3.7-4,6.9-2.6c0,1.3,0,2.7,0,4c-1.2,3.6-3.6,6.2-6.3,8.8
		c-8.1,8-16.2,16.2-24.6,24.6c5.5,1.1,9.6,0.5,13.2-3.9c3.3-4.1,7.3-7.7,11.2-11.3c1.8-1.7,3.6-3.6,6.5-2.3c0,1.3,0,2.7,0,4
		c-2.4,6.7-8.1,10.6-12.9,15.1c-0.6,0.4,0.3,1.1-0.1,0.5c-0.1-0.2-0.1-0.4,0.1-0.5c4.4-2,8.7-2.4,12.8,0.7c0.1,0.3,0.1,0.6,0.1,0.9
		c-3.9,3.2-9.4,3.4-13.9,0.4c-17,0-34,0-51,0.1c0,0,0-0.4,0-0.4c-0.2-0.5-0.2-0.9,0.1-1.3c9.6-7.5,17.7-16.5,25.8-25.5
		C332.5,318.7,333,317.7,334,317.4z"/>
	<path class="st3" d="M384.1,270.3c-12,13.3-25.2,25.4-37.7,38.2c-0.7,0.7-1.4,1.6-2.5,1c-1-0.6-0.8-1.7-0.8-2.7c0-2.5,0-5,0-7.5
		c-1.9-2.1-0.9-4,0.7-5.6c10.9-11,22-22,33-33c1.2-1.2,2.5-2.2,4.4-1.4C383.5,262.6,384.4,266.3,384.1,270.3z"/>
	<path class="st3" d="M370.9,305.4c-6.5,3.7-10.7,9.8-16,14.7c-2.4,2.2-4.6,4.7-7.1,7c-1.1,1-2,3.3-3.9,2.4c-1.7-0.8-0.8-3-0.9-4.6
		c-0.1-2.8,0-5.6,0-8.4c11.3-11.2,22.6-22.3,33.9-33.5c2.6-2.6,5.3-5,7.9-7.5c0,8.4-3.5,15.5-9.7,20.8
		C372,298.9,370.6,301.6,370.9,305.4z"/>
	<path class="st3" d="M370.9,325.4c-6.9,4-11.8,10.3-17,16c-2.8,3-5.4,4.4-9.4,4.1c-2.7-0.2-5.5,0-8.1,0c11.6-12.1,23.1-24,34.5-36
		C370.9,314.8,370.9,320.1,370.9,325.4z"/>
	<path class="st6" d="M241.1,346.3c4.6,0.1,9.2,0.2,13.9,0.3c0,7.6,0,15.2-0.1,22.8c0,1.7,1.2,4.2-1.9,4.8c-2.9,0.6-3.6-1.7-4.6-3.6
		c-2.5-4.8-5-9.6-7.5-14.5C240.9,352.9,241,349.6,241.1,346.3z"/>
	<path class="st7" d="M357,346.6c4.6-0.1,9.3-0.2,13.9-0.4c0.1,3.4,0.2,6.7,0.2,10.1c-2.5,4.8-5.1,9.7-7.6,14.5c-1,2-2,4.1-4.8,3.3
		c-2.6-0.7-1.6-3-1.6-4.6C357,361.9,357,354.2,357,346.6z"/>
	<path class="st3" d="M381,259.4c-12.7,11.5-24.3,24-36.5,36c-1.1,1.1-1.6,2.5-1.6,4c-1.2,1.3-2.3,2.8-3.6,4c-1.1,1.1-2,3-3.9,2.3
		c-1.9-0.7-1.4-2.8-1.5-4.3c-0.3-3.4-0.1-6.3,4.7-6.3c2.1,0,3.2-2.1,4.6-3.5c11.9-11.8,23.8-23.5,35.8-35.3
		C380.1,257.1,380.8,258.1,381,259.4z"/>
	<path class="st3" d="M370.7,345.3c-4.8,0-9.6,0-14.4,0c4.9-5.4,9.7-10.6,14.5-15.9C371.1,334.8,371.4,340.1,370.7,345.3z"/>
	<path class="st8" d="M315.2,518.3c0.1,5.2-3.7,9.2-8.9,9.3c-5.3,0.1-9.3-3.7-9.5-8.8c-0.1-5.5,3.8-9.5,9.2-9.6
		C311.2,509.2,315.1,513.1,315.2,518.3z"/>
	<path class="st8" d="M315.2,485.7c0,5.2-3.9,9.3-9,9.5c-5.2,0.2-9.4-4.2-9.4-9.5c0.1-5.2,4.1-9.2,9.2-9.2
		C311.1,476.5,315.1,480.6,315.2,485.7z"/>
	<path class="st6" d="M305.2,405.4c0.5,0.8,1.2,0.6,1.6,0c6.2-6.8,13.7-6.8,21.6-4c7.7,2.7,14.4,6.8,18.7,14.1
		c-0.7,0.1,0.2,0.2-0.5,0.2c-17.3-0.5-34.5,3.8-51.6,1.7c-10.1-1.3-20.1-0.8-30.2-1.8c6.6-10.2,16.2-15.1,28.1-15.7
		C297.8,399.6,301.9,401.9,305.2,405.4z"/>
	<path class="st9" d="M264.9,415.6c27.4,0,54.8,0,82.2,0c-5.4,2.1-11,0.8-16.5,0.8c-3.9,0.1-6.4,0.4-7.7,4.9
		c-1.5,5.2-6.3,6.9-11.1,8.1c-1.9,0.5-3.9,0.7-5.9,1.1c-8-1-15.6-2.6-18.1-12c-0.6-2.2-2.4-2-4-2c-5.2,0-10.3,0-15.5-0.1
		C267.2,416.4,265.7,417.2,264.9,415.6z"/>
	<path class="st3" d="M334,317.4c0.2,2.3-0.6,4.1-2.3,5.8c-6.7,6.9-14.1,13.3-20.2,20.7c-1.5,1.8-3.6,1.3-5.6,1.4
		c-3.3-4.4-3.3-4.4-8.2-0.8c-0.7,0.5-1.3,0.9-1.8,1.6c-2.3,0-4.7,0-7,0c3.8-3.8,6.8-8.5,11.9-10.8c6.9,2.5,8.7,1.6,10.2-5.1
		c0.2-1.1,0.8-2.2,1.6-3c6.6-6.7,13.3-13.4,20.4-20.5C334.7,310.7,333.7,314.1,334,317.4z"/>
	<path class="st6" d="M292,365.1c-0.3,3.6-2.1,6.4-5.5,8.1c-3.3,1.7-6.5,1-9.4-1c-4.3-3.1-4.1-5.8,0.4-8.2c2.1-1.1,3.9-2.8,4.4-5.1
		c0.9-4.2,3.2-3.4,5.7-1.8C290.5,358.9,292,361.5,292,365.1z"/>
	<path class="st3" d="M296,346.3c0-4.7,4-6.3,7-8.4c1.4-1,2.8,0.3,2.9,2.2c0.1,1.8,0.1,3.6,0.1,5.4c0,0.3,0,0.5,0,0.8
		C302.6,346.2,299.3,346.3,296,346.3z"/>
	<path class="st6" d="M338.3,363.7c-0.2,5.9-2.6,8.8-6.8,10c-4.4,1.3-7.8-0.5-10.2-4.1c-1.5-2.3-1.8-4.2,1.7-5.1
		c3.1-0.9,5.2-3.1,5.8-6.2c0.7-3.6,2.6-2.7,4.6-1.7C336.6,358.4,338.5,361.2,338.3,363.7z"/>
	<path class="st3" d="M278.1,301.5c8.5-9.1,17-18.2,25.5-27.3c0.7,0.5,1.4,1,2.1,1.5c0,6.2,2.2,12.4-4,17.8
		c-8.2,7.2-15.8,15.3-23.6,22.9C274.9,312.3,274.9,305.5,278.1,301.5z"/>
	<path class="st10" d="M278.1,301.5c0,5,0,9.9,0,14.9c0,1.7,0,3.4,0,5.1c0,3.7-0.2,7.3,0,10.9c0.1,3-1.2,4.1-4.2,4.1
		c-2.8,0-4.9-0.2-4.9-3.9c0.1-11.1,0-22.2,0.1-33.3c0.1-4.3,2.7-5,9-2.9C278,298.1,278.1,299.8,278.1,301.5z"/>
	<path class="st3" d="M316.4,345.3c5.9-5.8,11.6-11.5,17.3-17.1c1,2.7,0,6.7,2,10.3c0.5,0.9-3.1,6.2-6.8,6.7
		C324.7,345.8,320.4,345.3,316.4,345.3z"/>
	<path class="st10" d="M308.9,303.4c0,5,0,9.9,0,14.9c0,1.7,0,3.4,0,5.1c0,3.6-0.2,7.3,0,10.9c0.1,3-1.2,4.1-4.2,4.1
		c-2.8,0-4.9-0.2-4.9-3.9c0.1-11.1,0-22.2,0.1-33.3c0.1-4.3,2.7-5,9-2.9C308.9,300,308.9,301.7,308.9,303.4z"/>
	<path class="st10" d="M340.3,302c0,5,0,9.9,0,14.9c0,1.7,0,3.4,0,5.1c0,3.7-0.2,7.3,0,10.9c0.1,3-1.2,4.1-4.2,4.1
		c-2.8,0-4.9-0.2-4.9-3.9c0.1-11.1,0-22.2,0.1-33.3c0.1-4.3,2.7-5,9-2.9C340.3,298.6,340.3,300.3,340.3,302z"/>
</g>
</svg>
