<?xml version="1.0" encoding="utf-8"?>
<!-- Generator: Adobe Illustrator 19.0.0, SVG Export Plug-In . SVG Version: 6.00 Build 0)  -->
<svg version="1.1" id="Calque_1" xmlns="http://www.w3.org/2000/svg" xmlns:xlink="http://www.w3.org/1999/xlink" x="0px" y="0px"
	 viewBox="0 0 612 792" style="enable-background:new 0 0 612 792;" xml:space="preserve">
<style type="text/css">
	.st0{fill:#F7B948;}
	.st1{fill:#333333;}
	.st2{fill:#353535;}
</style>
<g>
	<path class="st0" d="M397,285.9c-41.2,0.1-82.5,0.1-123.7,0.1c-22.8,0-45.6-0.1-68.3-0.1c0-5,1.4-10.7-0.5-14.8
		c-2-4.3-8.6-3.5-13.1-5.3c-22.1-8.9-37.2-34-34.2-57.3c3.2-25.7,22.3-45.9,46.3-49.6c20.2-3.1,37.1,3,50.9,17.7
		c1.8,2,2.7,2.5,4.9,0.1c23.1-25.2,59.8-25.1,83.3,0.2c2.3,2.5,3.1,1.4,4.9-0.5c15.5-16,34.1-22.3,55.9-16.4
		c21.4,5.8,34.9,20.1,40.2,41.6c7.2,29.8-11.7,59.7-42.1,66.8c-3.9,0.9-4.7,2.4-4.5,5.9C397.2,278.2,397,282,397,285.9z"/>
	<path class="st1" d="M501,577.3c-0.1-42.8-28.6-82.7-69.2-96.2c-19.6-6.5-40.1-9.5-60.2-14.2c-4.7-1.1-10.9-0.8-13.6-3.7
		c-3-3.2-0.5-9.6-1-14.5c-0.4-3.6,1.2-5.7,3.9-7.8c20.2-16.3,32.1-37.4,35.4-63.2c1.7-13.1,0.5-26.3,0.7-39.5c0.1-3,0.4-4.9,4-4.2
		c3.8,0.7,4.2-1.3,4.2-4.5c-0.2-11.7-0.1-23.3-0.1-35c0-8.3,0-8.3-8-8.7c-2-1.6-4.4-1.5-6.7-1.5c-59.6,0-119.1,0-178.7,0
		c-2.3,0-4.7-0.1-6.7,1.5c-0.8,0.1-1.7,0.3-2.5,0.1c-4.6-0.8-5.7,1.1-5.6,5.6c0.3,12.7,0.2,25.3,0,38c0,3.2,0.3,5.2,4.2,4.5
		c3.5-0.7,4,1.1,4,4.1c-0.2,8.8-0.1,17.7-0.1,26.5c0,27.9,9.5,52.2,30.3,70.7c8.2,7.2,10.8,14.3,9.8,24.3c-0.3,2.9-0.8,4.2-3.9,4.8
		c-19,4-38,8.4-57,12.5c-48.4,10.5-83,51.7-83.2,99.6c-0.1,24.3,0.1,48.7-0.1,73c0,3.4,0.7,4.4,4.3,4.4c130.5-0.1,261-0.1,391.5,0
		c3.5,0,4.4-0.8,4.4-4.3C500.9,625.6,501,601.4,501,577.3z M212.9,313.6c0.2-11.6,0-11.6,11.6-11.6c53.1,0,106.3,0,159.4-0.1
		c4,0,5.3,0.8,5.2,5.1c-0.3,11-0.1,11-11.1,11c-25.6,0-51.3,0-76.9,0c-27.8,0-55.6-0.1-83.4,0.1C214,318.1,212.8,317.5,212.9,313.6z
		 M221.8,376.8c-1.7-13.3-0.3-26.6-0.9-39.9c-0.2-3.8,2.4-2.8,4.3-2.8c24.2,0,48.3,0,72.5,0c1.2,0,2.3,0,3.5,0
		c25.2,0,50.3,0.1,75.5-0.1c3.5,0,4.5,0.9,4.4,4.4c-0.6,15.1,1.2,30.3-2.1,45.3c-8.1,37.6-43.3,64.1-82.5,62.3
		C258.8,444.2,226.5,414.2,221.8,376.8z M333.8,462c-12.9,0.1-22.4,8-24.6,20.9c-0.4,2.6-1.2,3.4-3.6,3.1c-0.7-0.1-1.3,0-2,0
		c-3.2,0-6.7,0.9-9.4-0.3c-2.7-1.2-1.6-5.2-2.6-7.9c-3.7-9.6-12.5-15.7-23.2-15.8c-7.9,0-7.9,0-7-8.4c26.3,11.3,52.7,11.3,79.2,0
		c0.3,0.7,0.4,0.9,0.4,1C341.2,462,341.2,462,333.8,462z M212.9,557.2c0.2,25.5,0,51,0.2,76.5c0,3.4-0.7,4.5-4.3,4.4
		c-11.8-0.2-11.8,0-11.8-11.9c0-5.3-0.2-10.7,0.1-16c0.1-3-0.4-4.3-4-4.3c-12.2,0-12.2-0.2-12.1,12.1c0,5.5-0.2,11,0.1,16.5
		c0.1,2.9-0.8,3.6-3.6,3.6c-9.5-0.2-19-0.1-28.5-0.1c0,0,0,0,0,0c-9.3,0-18.7-0.1-28,0.1c-2.9,0-4-0.4-4-3.7c0.2-20-0.3-40,0.2-60
		c1.1-38.9,29.9-72.5,69.1-81.3c21.7-4.9,43.5-9.7,65.3-14.5c6.2-1.3,12.6-0.9,18.9-0.3c4.2,0.4,6.5,3.7,6.6,8.1
		c0,4.2,0.1,8.3-0.1,12.5c-0.1,2.3,0.6,3.5,3,3.1c0.3-0.1,0.7,0,1,0c3.9,0.4,10.4-1.6,11.3,0.8c1.8,5,0.8,11.1,0.6,16.7
		c-0.1,2-2.4,2-3.8,2.5c-23.9,9.6-47.8,19.3-71.7,28.7C214,552.1,212.9,553.6,212.9,557.2z M481.1,638.1c-18.7-0.2-37.3-0.2-56,0
		c-3.7,0-4.3-1.2-4.2-4.5c0.2-8.2,0-16.3,0.1-24.5c0-2.3-0.5-3.1-3-3.2C405,605.3,405,605.3,405,618c0,5.3-0.2,10.7,0.1,16
		c0.2,3.3-0.9,4.1-4.1,4.1c-28.2-0.1-56.3-0.1-84.5-0.1c-27.7,0-55.3-0.1-83,0.1c-3.7,0-4.7-0.9-4.6-4.6c0.2-22,0.2-44,0-66
		c0-3.2,1-4.5,3.9-5.7c24.1-9.5,48.1-19.3,72.2-28.7c3.2-1.3,4.2-2.9,4.1-6.1c-0.2-7,0-14-0.1-21c-0.1-2.8,0.3-4.1,3.7-4.1
		c4.1,0.1,9.5,2,11.8-0.9c2-2.5,0.5-7.7,0.5-11.7c0-9,2.3-10.9,11.1-11.4c17.1-0.8,33,5.4,49.5,8.4c11.4,2.1,22.8,4.8,34,7.7
		c38.6,10,65.2,44.4,65.4,84.3c0.1,18.5,0,37,0.1,55.5C485.1,636.8,484.7,638.2,481.1,638.1z"/>
	<path class="st2" d="M252.8,574c4.4-0.1,8,3.3,8.2,7.7c0.2,4.5-3.6,8.4-8.1,8.3c-4.4,0-7.9-3.5-7.9-7.9
		C245,577.8,248.5,574.1,252.8,574z"/>
	<path class="st2" d="M261,614.2c-0.1,4.3-3.8,7.9-8.1,7.9c-4.5,0-8.2-3.9-8-8.5c0.2-4.3,3.9-7.7,8.3-7.6
		C257.6,606.2,261.1,609.9,261,614.2z"/>
</g>
</svg>
