<?xml version="1.0" encoding="utf-8"?>
<!-- Generator: Adobe Illustrator 19.0.0, SVG Export Plug-In . SVG Version: 6.00 Build 0)  -->
<svg version="1.1" id="Calque_1" xmlns="http://www.w3.org/2000/svg" xmlns:xlink="http://www.w3.org/1999/xlink" x="0px" y="0px"
	 viewBox="0 0 612 792" style="enable-background:new 0 0 612 792;" xml:space="preserve">
<g>
	<path d="M62,459.9c2-10.6,3.8-21.3,6-31.8c5-23.4,12-46,24-66.9c6.8-11.8,14.9-22.5,25.9-30.8c2.2-1.7,4.6-3.1,7.5-5
		c3.9,16.5,8.3,32.2,11.2,48.1c1,5.5-1.8,11.7-3,17.6c-6.4,31.6-12.9,63.2-19.4,94.9c-1.3,6.6,0.3,9.3,6.8,11
		c31.3,8,62.6,7.9,94,0.6c9.3-2.2,10.5-4.4,8.6-13.7c-7.2-35.4-14.4-70.7-21.6-106.1c-0.5-2.3-0.5-5,0.1-7.3
		c3.4-14.7,7-29.4,10.7-44.7c9.1,4.7,15.9,11.4,22,18.9c14.3,17.6,23.4,38,29.1,59.7c4.9,18.5,8.2,37.3,11.9,56.1
		c1.6,8.1-3.1,14.4-10.5,15.3c-6.7,0.8-12.2-4.3-13.2-12c-3.7-27.3-9.3-54.2-21.1-79.3c-3.4-7.3-7.7-14.1-11.7-21.2
		c-0.5,0.2-1,0.4-1.5,0.7c1.9,9.5,3.9,19.1,5.8,28.6c8.1,39.8,16.2,79.6,24.4,119.3c0.8,3.8-0.3,5.6-3.8,7.1
		c-20.6,9-42.3,12.9-64.6,13.9c-27.4,1.2-54.2-1.7-80-11.6c-10.5-4.1-10.4-4.1-8.1-15.2c9.5-46.3,18.9-92.6,28.3-138.9
		c0.2-1.1,0.3-2.3-0.2-3.9c-1,1.3-2,2.6-2.9,4c-12.7,19.2-19.6,40.7-24.6,62.8c-2.5,11-4.2,22.2-6,33.4c-1.2,7.2-4.4,11.2-10.4,12.3
		c-5.4,0.9-9.6-1.7-13-7.9c-0.1-0.3-0.5-0.4-0.7-0.6C62,464.5,62,462.2,62,459.9z"/>
	<path d="M323,136.9c5,1.7,10,3.3,15.5,5.2c-1.4,3.8-2.7,7.2-3.9,10.5c0.2,0.2,0.5,0.5,0.7,0.7c2.8-2.6,5.6-5.2,8.7-8.1
		c6.4,4.2,12.9,8.5,19.8,13c-2.7,3.6-5.1,6.8-7.5,10.1c0.2,0.3,0.4,0.6,0.6,0.8c3.8-2.2,7.6-4.4,11.6-6.6c11.9,7.1,13,18.3,2.1,27.2
		c-3.7,3-7.9,5.5-12.2,7.7c-3.9,1.9-6.1,4.8-6.3,8.9c-0.3,7.8-0.1,15.5-0.1,24.1c-25.2-10.2-50.8-10.6-77.3,0.5
		c0.4-3.1,0.7-5.2,0.8-7.2c0.2-5.2,0.5-10.3,0.3-15.5c-0.2-5.1-2.5-9.1-7.6-11.3c-3.6-1.6-7-3.8-10.2-6.3
		c-11.8-9.1-11.4-19.8,0.9-28.2c3.9,2.3,7.7,4.5,11.5,6.8c0.3-0.3,0.5-0.6,0.8-0.8c-2.4-3.2-4.7-6.4-7.4-10c3.4-2.3,6.6-4.6,9.9-6.8
		c3.3-2.2,6.7-4.2,9.9-6.2c3.1,2.9,5.8,5.4,8.5,7.9c0.3-0.2,0.5-0.4,0.8-0.6c-1.2-3.2-2.4-6.4-4-10.4c5.5-1.8,10.8-3.5,16-5.2
		C311,136.9,317,136.9,323,136.9z"/>
	<path d="M550,453.9c-0.3,4.1-0.8,8.2-1,12.3c-0.5,9.4-6.9,16-15.3,15.6c-8.8-0.4-14.5-7.5-14.1-17.1c1.4-31,2.1-62-4.6-92.5
		c-1.4-6.6-3.7-12.9-5.6-19.4c-0.5,0.1-0.9,0.2-1.4,0.3c0,25.6,0,51.2,0,76.8c-0.4,0-0.7,0.1-1.1,0.1c-1.9-9-3.9-18.1-5.7-27.2
		c-3.3-16-7.1-31.8-9.6-47.9c-1-6.5,0.6-13.5,1.4-20.2c1.1-9.5,2.6-19,4-28.7c12.5,1.9,21.5,8.4,28.7,17.7
		c11,14.2,16.2,30.9,19.2,48.2c2,12,2.9,24.1,4.3,36.2c0.2,2,0.6,3.9,0.9,5.8C550,427.2,550,440.5,550,453.9z"/>
	<path d="M336,648.9c-8.4-3.3-15.2-8.1-17.3-17.6c-0.4-1.6-0.6-3.3-0.7-4.9c0-30.3,0-60.6,0-91c0-0.6,0.1-1.3,0.1-1.2
		c15.2-3.6,30-7,45.2-10.6c0.1,1.2,0.2,3,0.2,4.7c0,30.8,0,61.6,0,92.5c0,16.6-3.6,22-18.5,28.1C342,648.9,339,648.9,336,648.9z"/>
	<path d="M481,648.9c-4-2.2-8.4-4-11.9-6.9c-4.7-3.8-6.9-9.5-6.9-15.5c-0.1-30.6,0-61.3,0-91.9c0-0.3,0.2-0.6,0.1-0.4
		c15.2-3.6,30.1-7.1,45.5-10.7c0,2.1,0,4.5,0,7c0,29.6-0.4,59.3,0.1,88.9c0.3,14.6-4.5,24.8-18.9,29.4
		C486.3,648.9,483.7,648.9,481,648.9z"/>
	<path d="M427,648.9c-9.5-3.2-16.6-8.8-18.5-19.4c-0.2-1-0.3-2-0.3-3c0-34.3,0-68.5,0-102.6c15,3.4,29.9,6.8,45.6,10.4
		c0,0.7,0,2.5,0,4.3c0,27-0.4,53.9,0.2,80.9c0.3,14.6-4.5,24.8-19,29.4C432.3,648.9,429.7,648.9,427,648.9z"/>
	<path d="M282,648.9c-8.6-3.3-15.4-8.4-17.4-18.1c-0.3-1.6-0.5-3.3-0.5-4.9c0-33.5,0-66.9,0-100.4c0-0.7,0.1-1.3,0.1-1.6
		c14.8,3.4,29.6,6.8,45.4,10.4c0,0.7,0,2.7,0,4.6c0,27.3,0,54.6,0,81.9c0,16.5-3.6,22-18.5,28.1C288,648.9,285,648.9,282,648.9z"/>
	<path d="M418.7,304.7c1.9,13.1,3.2,24.7,5.3,36.1c1.9,9.8-1.6,18.8-3.4,28c-3.3,17.3-7.1,34.6-10.7,51.8c-0.3,1.6-0.8,3.1-1.9,4.5
		c0-24,0-47.9,0-71.9c-0.3-0.1-0.6-0.3-1-0.4c-0.7,1.6-1.5,3.2-2.1,4.9c-5.7,16.3-8.3,33.3-8.8,50.5c-0.6,18.6-0.2,37.3,0.1,56
		c0.2,10.2-5.1,17.3-14,17.7c-8.8,0.4-15.4-6.3-15.3-16.5c0.1-24.5,0-49,1.1-73.4c0.8-17.3,4.8-34.3,11.7-50.4
		c4.7-11,10.9-21.2,21-28C406,310,412.2,307.8,418.7,304.7z"/>
	<path d="M457.9,212.7c23,0,41.5,18.1,41.3,41.1c-0.2,25.3-17.9,41-41.1,41c-23.4,0-41-15.7-41.3-40.8
		C416.4,231,434.9,212.7,457.9,212.7z"/>
	<path d="M168.9,308c-21.9-0.1-39.3-17.6-39.3-39.4c0-22,17.7-39.7,39.6-39.7c21.7,0.1,39.7,18.3,39.4,40
		C208.4,290.7,190.6,308.2,168.9,308z"/>
	<path d="M313.7,295.2c-29-0.1-49-29.1-38.4-55.9c0.9-2.2,3.4-4.5,5.7-5.3c21.6-7.9,43.3-7.9,65.1-0.5c3.8,1.3,5.7,3.3,6.9,6.8
		C362.2,267.3,342.2,295.3,313.7,295.2z"/>
	<path d="M129.5,535.9c12.3,1.1,24.1,2.2,36.3,3.3c0.1,1.2,0.2,2.6,0.2,4.1c0,28.3,0,56.7,0,85c0,11.2-8,19.5-18.5,19.4
		c-10.2-0.1-18.3-8.3-18.3-19.1c-0.1-29.8,0-59.6,0-89.5C129.2,538.2,129.4,537.2,129.5,535.9z"/>
	<path d="M172.1,539.3c12.6-1.2,24.5-2.3,36.9-3.4c0,4.3,0,8.4,0,12.5c0,26.3,0,52.6,0,78.9c0,11.9-7.7,20.5-18.5,20.5
		c-10.7,0-18.4-8.5-18.4-20.5c0-27.5,0-54.9,0-82.4C172.1,543.1,172.1,541.3,172.1,539.3z"/>
	<path d="M147,373.8c-4.2-17.4-8.3-34.6-12.6-52.3c3.7-1,7-1.8,10.7-2.7c-1-4.1-1.8-7.9-2.8-12c7.9,2.8,15.4,5.4,23.6,8.3
		c0,4,0,8.8,0,13.8c2.4,0,4.4,0,6.9,0c0-4.8,0-9.7,0-13.8c8.1-2.9,15.4-5.6,23.1-8.4c-0.9,3.9-1.9,7.7-2.9,12.1
		c3.3,0.8,6.6,1.7,10.6,2.7c-1.2,5.4-2.4,10.7-3.7,15.9c-2.6,11-5.2,22-8.1,32.9c-0.4,1.4-2.3,3.4-3.6,3.4
		C174.7,373.9,161.1,373.8,147,373.8z"/>
	<path d="M431,294c7.5,2.5,14.2,4.5,20.7,6.9c1.3,0.5,2.7,2.6,2.9,4.1c0.4,3.7,0.1,7.6,0.1,11.6c2.5,0,4.6,0,7.3,0
		c0-3.9,0.2-7.7-0.1-11.4c-0.2-2.8,0.7-4.2,3.5-5c6.3-1.8,12.6-4,19.5-6.2c-1,4.1-1.8,7.6-2.7,11.4c1.9,0.2,3.6,0.4,6,0.7
		c-2,14.1-4,28.2-6,42.6c-15.7,0-31,0-46.3-0.1c-0.9,0-2.4-1.4-2.5-2.2c-2-13.3-3.8-26.6-5.7-40.2c2.2-0.2,3.9-0.4,6-0.6
		C432.8,301.8,432,298.3,431,294z"/>
	<path d="M286.9,294c7.5,2.4,14.1,4.5,20.7,6.9c1.3,0.5,2.6,2.4,2.7,3.8c0.4,3.9,0.1,7.9,0.1,12.1c2.7,0,4.8,0,7.5,0
		c0-4,0.2-7.8-0.1-11.6c-0.2-2.8,0.7-4.2,3.5-5c6.2-1.8,12.3-3.9,19.3-6.2c-0.9,4.2-1.7,7.8-2.5,11.6c2,0.2,3.8,0.3,6,0.5
		c-2,14.2-4,28.2-6,42.5c-12.4,0-24.5,0-36.6,0c-12,0-11.9,0-13.6-12c-1.4-10-2.9-20-4.3-30.4c2.2-0.3,4-0.5,6-0.8
		C288.6,301.9,287.9,298.4,286.9,294z"/>
	<path d="M268.4,400.7c-1.4-7-3.8-14-4.1-21.1c-0.7-14.4-0.2-28.9-0.2-44c-8.9,0-17.3,0.2-25.7-0.1c-2.1-0.1-4.6-1-6.1-2.4
		c-9.1-8.6-19.1-15.5-32-18.6c0.7-2.8,1.4-5.4,2.1-8.2c24.2,0,48.1,0,72.5,0c2,14,4.8,27.7,5.6,41.6c0.4,7.4-2.7,15-4.2,22.4
		c-2.1,10.1-4.1,20.2-6.2,30.2C269.4,400.5,268.9,400.6,268.4,400.7z"/>
	<path d="M359.3,413.8c-4.2-20.3-8.9-40.6-12.2-61c-1.1-6.9,1.2-14.5,2.1-21.7c0.9-7.1,1.9-14.2,3.1-21.2c0.2-1.4,1.8-3.7,2.7-3.7
		c14.7-0.2,29.5-0.2,43.8-0.2c-5.7,6.5-11.3,13-16.9,19.4c-0.3,0.4-0.7,0.8-0.8,1.2c-2.6,7.1-7.2,10.7-15,9
		c-0.6-0.1-1.2,0.2-1.6,0.3c-1.1,26.1-2.2,51.9-3.3,77.7C360.5,413.6,359.9,413.7,359.3,413.8z"/>
	<path d="M121.5,320.4c0.3-8.4,5.3-13.5,14.3-14.1c0.7,2.4,1.4,4.9,2.2,7.6C132.4,316.1,127,318.2,121.5,320.4z"/>
</g>
</svg>
