<?xml version="1.0" encoding="utf-8"?>
<!-- Generator: Adobe Illustrator 19.0.0, SVG Export Plug-In . SVG Version: 6.00 Build 0)  -->
<svg version="1.1" id="Calque_1" xmlns="http://www.w3.org/2000/svg" xmlns:xlink="http://www.w3.org/1999/xlink" x="0px" y="0px"
	 viewBox="0 0 612 792" style="enable-background:new 0 0 612 792;" xml:space="preserve">
<g>
	<path d="M243.7,618.3c-3.3-0.3-6.6-0.6-9.9-0.8c-25.3-1.4-50.6-2.1-75.8-4.4c-25-2.2-49.1-8.6-72.3-18.2
		c-16.4-6.8-28.2-17.4-30.5-36.2c-0.2-1.6-3.2-3.7-5.1-4.1c-3.5-0.7-7.3-0.1-10.9-0.4c-8.1-0.6-12.8-4.9-13.6-12
		c-1.1-9.3,2.4-15.8,10.3-18.1c3.6-1.1,7.5-1.5,11.3-1.5c146.9-0.1,293.9-0.1,440.8,0c5,0,10.1-0.2,14.9,0.7
		c11.8,2.3,16.9,14.3,10.9,24.8c-2.4,4.1-6.1,6-10.7,6.1c-2.3,0.1-4.7-0.1-7,0c-6.2,0.3-10.4,2.8-11,8.8
		c-1.7,15.9-12.7,23.3-25.2,29.7c-19.1,9.8-39.6,14.9-60.6,17.4c-26.4,3.1-53,5-79.5,7.5c-1.6,0.2-3.3,0.5-4.9,0.7
		C291,618.3,267.4,618.3,243.7,618.3z M270.2,526.9C270.2,526.9,270.2,526.9,270.2,526.9c-73.6,0-147.3,0-220.9,0
		c-3.7,0-7.4,0.1-10.9,0.8c-6.5,1.3-9.2,5.7-8.8,13c0.3,5.7,3.1,8.4,9.7,9.4c1.6,0.2,3.3,0.3,5,0.2c13.1-0.5,14.3,1.6,16.3,12.6
		c2.7,15.1,14,22.8,27.1,28.2c26.1,10.8,53.3,17,81.3,19c27.6,1.9,55.2,2.7,82.9,3.5c48.7,1.4,97.3,0.1,145.5-7.4
		c21.8-3.4,43.2-8,62.9-18.5c10.5-5.6,19-12.2,20.7-25.4c1.1-8.4,6.7-11.9,15.2-12.3c2-0.1,4,0.1,6,0.1c5.4-0.1,8.7-3,9.5-8.3
		c1.2-8-2.4-13.3-10.6-14.5c-4.4-0.6-9-0.3-13.4-0.3C415.1,526.9,342.7,526.9,270.2,526.9z"/>
	<path d="M281.6,504.7c-4,1.3-7,3.2-10,3.2c-29.1,0.2-58.3,0.3-87.4,0.2c-27.3-0.1-54.6-0.2-82-0.9c-32.8-0.8-79.2-38.7-63.9-87.3
		c11.3-35.8,33.8-62,65.1-81.7c55.8-35.2,115.5-41.5,178.4-24.4c10.9,3,21.5,6.9,32.2,10.5c1.7,0.6,3.4,1.4,4.9,2.4
		c3.6,2.6,3.5,5.1-0.2,7.8c-10.2,7.5-20.6,14.7-30.6,22.5c-26.4,20.5-40.8,47-39.3,81c1.1,24.2,11.5,44.5,28,61.9
		C278,500.9,279.1,502.1,281.6,504.7z M274.4,503.4c-1.8-2-2.9-3.4-4.1-4.7c-14.9-17.1-24.2-36.7-25.5-59.5
		c-1.9-33.3,10.9-60.5,36.1-81.8c10-8.5,21-15.8,31.6-23.6c1.4-1,2.7-2.2,4.5-3.6c-2.3-1-3.9-1.9-5.6-2.5
		c-13-4.1-25.9-8.8-39.1-11.9c-49.5-11.9-97.8-9.1-144.1,13.5c-26.3,12.9-50.2,29-67.4,53.5c-10.5,15-18.6,31.4-21,49.7
		c-5.3,40,35,70.6,63.7,70.7c46.5,0.2,93,0.2,139.5,0.3C253.1,503.4,263.2,503.4,274.4,503.4z"/>
	<path d="M268.9,424.1c0.3-17.3,6.6-33.4,18.1-47.5c37.3-45.7,84.4-76.2,141.9-90.4c20.1-5,31.8-18.2,34-38.7
		c0.8-7.5,3.7-13.4,10.8-16.8c7.6-3.7,15-2.4,20.1,4.3c4.2,5.5,8.9,9.9,15.3,13c7.3,3.5,7.5,10.8,6.7,17.9
		c-0.8,7.1-4.8,12-12.1,13.4c-11.3,2.2-19.1,9-25.3,18c-4.5,6.4-6.8,13.5-6.8,21.5c-0.1,59.7-19.8,112.9-54.2,161
		c-16,22.4-39,33.5-65.8,32.8c-32-0.9-56.9-16-71.8-45.3C272.5,453.3,268.8,438.6,268.9,424.1z M273,426.1
		c0.3,15.1,4.8,29.5,12.4,43.1c26.5,47.3,95.4,54.4,129.1,7.5c33.9-47.2,52.9-99.7,52.9-158.4c0-7.6,2-14.5,5.9-20.8
		c6.9-11.1,15.8-19.7,29.4-22.2c5.3-1,8.4-4.6,9-10c0.6-5.2,1-11.2-4.7-13.6c-7.2-3-11.9-8.2-16.5-14c-4.2-5.3-9.6-6.1-15.6-3
		c-5.3,2.7-7.3,7.3-8,13c-3,23.5-15.1,37-37.8,42.7c-56.5,14.2-102.9,44.3-139.5,89.6C278.9,393.2,273.2,408.4,273,426.1z"/>
	<path d="M262.4,107.2c-2,7.8-4.4,14.5-5.5,21.5c-2.1,13.9,1.5,26.8,8.5,38.7c3.5,5.9,7.4,11.4,11.2,17.1
		c14.4,21.7,12.7,43.3-5,62.4c-3.5,3.7-7.3,7.1-11.8,10.1c1.2-3,2.3-6.1,3.5-9.1c6.4-16.5,5.6-32.6-2.5-48.2
		c-3.5-6.6-7.6-12.9-11.7-19.1c-15.3-22.5-14.8-39.3,2.1-60.5C254.5,115.8,258.2,111.9,262.4,107.2z M252.6,126
		c-11.1,12.5-13.3,27-6.5,41.3c2.1,4.5,4.8,8.7,7.7,12.8c13.1,18.5,21.9,38.1,16.3,62c1.2-0.7,1.7-1.7,2.4-2.5
		c12-15.6,12.7-33.3,2-50.7c-2.6-4.2-5.7-8.2-8.4-12.4C255.9,161.1,249.9,144.8,252.6,126z"/>
	<path d="M225.2,181.9c-4.3,13.6,1.5,24.3,9.1,34.8c8.7,12.2,8,24.5-1.4,34c-1.6,1.6-5,3-6.7,2.3c-1.9-0.7-3.8-4.1-3.8-6.2
		c0.2-7.5-2.9-13.5-6.7-19.5c-2.6-4.2-5.1-8.5-7.1-13.1c-3.4-7.9-2.1-15.4,3.5-21.9c3.5-4.1,7.7-7.6,11.6-11.3
		C224.2,181.4,224.7,181.6,225.2,181.9z M219.6,190.9c-8.3,6.5-10.6,14.1-6.9,22.8c1.5,3.6,3.6,7.1,5.8,10.4
		c4.6,7.1,8.4,14.3,8,23.1c0,0.7,0.6,1.4,0.9,2.1c7.1-4.1,10.6-13.7,7.7-21.8c-1.6-4.3-4.1-8.3-6.7-12.1
		C223.3,208.2,219.6,200.5,219.6,190.9z"/>
</g>
</svg>
