<?xml version="1.0" encoding="utf-8"?>
<!-- Generator: Adobe Illustrator 19.0.0, SVG Export Plug-In . SVG Version: 6.00 Build 0)  -->
<svg version="1.1" id="Calque_1" xmlns="http://www.w3.org/2000/svg" xmlns:xlink="http://www.w3.org/1999/xlink" x="0px" y="0px"
	 viewBox="0 0 612 792" style="enable-background:new 0 0 612 792;" xml:space="preserve">
<style type="text/css">
	.st0{fill:#C0DDE8;}
	.st1{fill:#E6A514;}
	.st2{fill:#F9EDD2;}
	.st3{fill:#B8DFF5;}
	.st4{fill:#58595B;}
</style>
<g>
	<path class="st0" d="M268,126c7.8,2.5,15,6,21.1,11.7c1.8,1.6,2.7,0.8,4.2-0.4c17.4-14.2,38.7-14.1,55.9,0.6c2.4,2,3.5,1.8,5.7-0.2
		c12.2-11,26.4-13.8,41.7-8.3c14.7,5.3,23.4,16.2,26.6,31.6c4.6,22.3-11.1,46.1-36.6,48.8c-4,0.4-4.5,1.9-4.5,5.2
		c0.1,20.5-0.4,41,0.1,61.5c0.8,29.9-19.5,55.2-48.5,61.9c-15.6,3.6-31,0.8-44.7-8.2c-18.7-12.3-28.7-29.5-28.8-52
		c-0.1-21.2-0.1-42.3,0-63.5c0-3.5-0.2-5.4-4.8-6c-19.4-2.8-32-13.9-36.3-33.2c-4.7-21.7,8.5-42,29.4-48.3c0.9-0.3,2-0.1,2.7-1.1
		C256.7,126,262.3,126,268,126z"/>
	<path class="st1" d="M106,600c25.3,0,50.6-0.1,76-0.1c1.6-1.6,3.7-1.5,5.6-1.5c19.5,0,39-0.2,58.4,0c8.8,0.3,17.6-0.1,26.5-0.1
		c48.5,0.1,96.9,0,145.4,0.1c3.1,0,6.4-0.6,9.2,1.5c36.3,0,72.6,0.1,108.9,0.1c0,12.3,0,24.7,0,37c-1.7,0.9-3.6,0.5-5.4,0.5
		c-139.7,0-279.5,0-419.2,0c-1.8,0-3.7,0.5-5.4-0.5C106,624.7,106,612.3,106,600z"/>
	<path class="st2" d="M106,637c143.3,0,286.7,0,430,0c-0.9,2.1-2.7,0.9-4,0.9c-48.2,0.1-96.3,0.1-144.5,0.1c-92.3,0-184.7,0-277-0.1
		C109,637.9,107.1,639.1,106,637z"/>
	<path class="st3" d="M427.1,599.9c-25.6,0.1-51.2,0.2-76.8,0.2c-34.7,0-69.5-0.1-104.2-0.2c0.2-2.4,2.3-2.1,3.7-2.5
		c19.8-6,31.7-22,31.8-42.8c0-10.3,0.1-20.6,0-31c0-3.9,1.2-7,4-9.8c7.4-7.2,14.7-14.5,21.9-21.9c4.2-4.3,4.6-7.8,1.5-10.7
		c-3.1-2.9-7.7-2.1-11.4,2c-14.4,16.2-14.4,16.2-36,16.2c-14,0-28,0-41.9,0c-2.3,0-4.7,0.5-6.6-1.4c0.8-12.7-0.1-25.4,0.4-38.1
		c0.3-9.4,0.1-18.9,0.1-28.2c0-10.2,1.5-20.5-0.4-30.7c-0.7-3.9,0.9-7.6,0.8-11.4c0-1.5,0.2-3-0.1-4.5c-2.3-12.9-0.5-10.6,9.1-13.9
		c18.5-6.4,37.2-12.4,55.8-18.6c2.6-0.9,4.3-1,6.6,1.1c10.7,9.7,21.7,19,32.4,28.7c2.5,2.3,3.9,2.4,6.4,0
		c10.4-9.8,21.1-19.3,31.6-29c1.9-1.7,3.5-1.9,5.8-1.1c19.2,6.5,38.3,12.9,57.5,19.3c7.8,2.6,7.9,2.4,7.9,10.4
		C427.1,454.6,427.1,527.2,427.1,599.9z"/>
	<path class="st4" d="M213,498c22,0.1,44,0.1,66,0.2c2.3,0,3.7-1,5.1-2.5c4.4-4.8,8.9-9.5,13.3-14.2c4.1-4.4,9-5,12.6-1.5
		c3.9,3.7,3.7,8.1-0.8,12.6c-7.7,7.8-15.5,15.6-23.3,23.3c-2.2,2.2-3,4.3-3.1,7.4c-0.2,13.1,1.3,26.4-0.7,39.4
		c-2.9,19.2-15.7,32.3-34.8,36.5c-0.5,0.1-0.9,0.4-1.3,0.7c-21.4,0-42.7,0-64.1,0c-9.5-2.4-18.1-6.3-24.9-13.7
		c-7.7-8.5-11.7-18.5-11.8-29.9c-0.1-11-0.2-22,0-32.9c0-3.1-0.8-5.3-3-7.4c-7.9-7.6-15.6-15.4-23.3-23.2c-4.6-4.6-4.9-8.7-1-12.5
		c3.7-3.6,8.3-3.3,12.7,1.1c4.9,4.8,9.6,9.7,14.4,14.5c1.3,1.3,2.5,2.5,4.6,2.5C170.8,498.1,191.9,498.1,213,498z"/>
</g>
</svg>
