<?xml version="1.0" encoding="utf-8"?>
<!-- Generator: Adobe Illustrator 19.0.0, SVG Export Plug-In . SVG Version: 6.00 Build 0)  -->
<svg version="1.1" id="Calque_1" xmlns="http://www.w3.org/2000/svg" xmlns:xlink="http://www.w3.org/1999/xlink" x="0px" y="0px"
	 viewBox="0 0 612 792" style="enable-background:new 0 0 612 792;" xml:space="preserve">
<g>
	<path d="M283.7,129.6c5.4,5.6,11.2,10.8,15.9,16.9c5.5,7.1,4.7,16.2-1.3,23c-2.2,2.5-5.2,4.8-8.4,6c-4.3,1.7-5.3,4.4-5,8.5
		c0.2,2.8,1.3,3.8,4,3.7c14-0.7,11.6,1.5,11.7,12.2c0.1,12.5,0.2,25-0.1,37.5c-0.1,5,1.7,6.4,6.4,6c4.5-0.4,9,0,13.5-0.1
		c3.9-0.1,5.4,1.9,5,5.6c-1.6,15.8-8.6,28.3-22.9,35.8c-4.2,2.2-5.2,4.5-3.9,9.1c2.6,9.1,4.8,18.3,6.7,27.6c0.8,4.2,2.8,5.2,6.8,5.2
		c27.5-0.1,55,0.1,82.5-0.2c14.9-0.1,24.9,6,30.4,20.2c9.5,24.1,19.6,48,29.4,72.1c7.9,19.5,1.4,38.9-16,48
		c-17.4,9.1-38.6,3.1-49.8-14.1c-0.5-0.8-1.1-1.6-2-2.8c-8.2,13.4-19.5,21.3-35.2,21.1c-15.5-0.1-26.7-7.9-34.5-20.7
		c-3.8,4.3-7.5,8.3-11,12.5c-0.8,1-1.2,2.7-1.2,4.1c-0.1,37.5,0,75-0.2,112.5c0,3.8,1.4,4.9,5,4.8c8.7-0.2,17.3,0.1,26-0.1
		c7.4-0.2,12.4,2.8,14.9,9.9c1.9,5.2,4.2,10.1,6.3,15.2c3.6,9,1.1,12.9-8.7,12.9c-32.7,0.1-65.3,0-98,0.1c-11.7,0-23.3,0.1-35,0
		c-9.5-0.1-12-3.9-8.4-12.7c2.2-5.4,4.6-10.7,6.7-16.1c2.3-6.3,6.7-9.2,13.3-9.2c9,0,18-0.1,27,0.1c3.9,0.1,5.2-1.2,5.2-5.2
		c-0.1-37,0-74-0.2-111c0-2.3-1.5-4.9-3-6.8c-2.7-3.7-5.8-7.1-8.7-10.6c-17.9,29.6-55.4,25.3-70-0.8c-1.2,1.6-2.2,3-3.1,4.4
		c-10.9,16.2-31,21.6-48.5,13.1c-16.5-8.1-24.4-27.3-17.4-45.5c10.1-26.2,21-52.1,31.9-78.1c4.9-11.7,14.5-17,27-17
		c28,0,56-0.1,84,0.1c4.5,0,6.5-1.3,7.4-5.8c2-9.6,4.3-19.2,6.8-28.6c0.9-3.4,0.2-5.1-2.9-6.7c-14.6-7.4-22.3-19.5-24.1-35.6
		c-0.6-5.3,0.4-6.5,5.9-6.7c4.3-0.1,8.7-0.3,13,0.1c4.8,0.4,6-1.5,5.9-6c-0.3-14-0.1-28-0.1-42c0-7.1,0.6-7.7,7.6-7.7
		c0.8,0,1.7,0,2.5,0c2.4,0,5.5,1,5.5-2.9c0-3.2,1.5-7-3.5-8.5c-11.9-3.7-20.9-19.5-8.9-33c4.3-4.8,9.1-9.1,13.7-13.6
		C281,129.6,282.4,129.6,283.7,129.6z M282,333.6c-37.7,0-75.3,0-113,0c-13.4,0-19.2,3.9-24.4,16.4c-9.8,23.9-19.6,47.7-29.3,71.6
		c-1.2,3.1-2.3,6.3-2.7,9.5c-1.8,16.2,9.2,30.4,25.4,32.7c15.7,2.3,31.7-9.2,34.6-25c0.4-2,0.2-4.1,0.9-5.9c0.6-1.4,2.1-2.4,3.2-3.6
		c1.1,1.2,2.5,2.2,3.4,3.6c0.5,0.7,0.3,1.9,0.4,2.9c1.7,15.9,14,27.3,30.6,28.3c13.7,0.9,27.6-9.9,31.1-24.1c0.6-2.2,0.2-4.8,1-6.9
		c0.6-1.5,2.3-2.6,3.5-3.9c1.1,1.2,2.4,2.3,3.3,3.7c0.5,0.7,0.2,1.9,0.3,2.9c1.6,15.6,15,27.9,30.6,28.2c16,0.3,29.8-11.7,31.7-27.5
		c0.2-1.6,0.2-3.4,0.9-4.9c0.4-1,1.9-2.3,2.8-2.2c1.2,0.1,2.6,1.2,3.3,2.3c0.7,1,0.6,2.6,0.7,3.9c1.8,16.5,15,28.5,31.3,28.4
		c16.3-0.1,29.5-12.3,31.1-28.7c0.1-1-0.1-2.2,0.4-2.9c0.9-1.2,2.2-2.8,3.3-2.9c1.1,0,2.6,1.6,3.1,2.9c0.7,1.8,0.6,3.9,0.9,5.9
		c2.3,15,17.5,27,32.6,25.8c20.9-1.7,33.1-22,25.1-42.1c-9.9-24.5-20.1-48.9-30-73.5c-4.2-10.3-11.6-15.2-22.8-15.2
		C357.7,333.7,319.8,333.6,282,333.6z M266.1,468c-0.3,1.6-0.5,2.2-0.5,2.9c0,36.3,0,72.6-0.1,108.9c0,3.4,1.5,4.2,4.5,4.2
		c7.5-0.1,15-0.3,22.5,0c4.3,0.2,5.3-1.4,5.3-5.5c-0.1-35.1-0.1-70.3-0.1-105.4c0-1.5-0.1-2.9-0.3-5.3
		C287,472.2,276.8,472,266.1,468z M212.1,614.5c46.7,0,92.6,0,139.2,0c-2.9-7.2-5.3-13.9-8.5-20.2c-0.9-1.8-4.3-3.5-6.6-3.5
		c-36.2-0.2-72.3-0.2-108.5,0c-2.3,0-5.8,1.3-6.8,3.1C217.6,600.3,215.1,607.2,212.1,614.5z M317.4,250.5c-23.8,0-47.6,0-71.4,0
		c-1.1,16.5,16.8,32.7,35.7,32.8C300.4,283.4,318.4,267,317.4,250.5z M293.6,219.2c0-6.6-0.1-13.3,0.1-19.9c0.1-3.5-1.2-4.8-4.7-4.6
		c-5,0.2-10,0.1-15,0c-2.9-0.1-4.3,0.8-4.3,3.9c0.1,13.6,0.1,27.3,0,40.9c0,2.8,1.1,3.9,3.8,3.9c5.2-0.1,10.3-0.1,15.5,0
		c3.5,0.1,4.7-1.3,4.6-4.7C293.5,232.1,293.6,225.7,293.6,219.2z M299,326.2c-0.4-1.9-0.6-3.5-1-5.1c-1.8-7.6-3.6-15.2-5.4-22.7
		c-1.9-8.1-1.8-8.1-10.1-7.9c-0.3,0-0.7,0-1,0c-8.9-0.1-8.9-0.1-10.9,8.8c-0.2,0.8-0.4,1.6-0.6,2.4c-1.9,8-3.8,16-5.8,24.5
		C276.1,326.2,287.3,326.2,299,326.2z M286.9,169.1c8.6-2.6,12.1-12.3,6.2-20c-2.7-3.5-6-6.7-9.3-9.7c-0.8-0.7-3.4-0.9-4.1-0.2
		c-3.7,3.6-7.6,7.1-10.3,11.4c-4.8,7.7-0.5,16.5,8.5,18.5c1.6-2.4-1.5-7.9,3.9-7.3C283.6,162,285,166.2,286.9,169.1z"/>
	<path d="M531.7,622.6c-0.6-2.5-1.8-5-1.8-7.5c-0.2-21.7-0.1-43.3-0.1-65c0-2,0-3.9,0-6.2c-1.8-0.1-3-0.3-4.3-0.3
		c-30.7,0-61.3,0.1-92-0.1c-4.5,0-6.4,1.4-7.6,5.7c-5.6,21.9-11.5,43.8-17.4,65.6c-0.8,2.9-0.7,8-5.4,6.7c-4.8-1.3-2.1-5.6-1.3-8.5
		c5.6-21.4,11.4-42.8,17.1-64.1c0.4-1.6,0.7-3.1,1.2-5.3c-6.9,0-13.2,0-19.5,0c-15.9,0-26.8-9.4-27.5-23.6
		c-0.7-14,10.8-27.5,25.5-28.3c16.1-0.8,32.3-0.4,48.5-0.4c25.5-0.1,51,0,76.5-0.1c2,0,3.9-0.3,6.4-0.4c0-2.3,0-4.3,0-6.3
		c0-77.6,0-155.3,0.1-232.9c0-3-1.4-7.8,3.5-7.9c5.3-0.1,3.4,4.8,3.4,7.7c0.1,121.5,0.1,242.9,0,364.4c0,2.3-1.3,4.5-2,6.8
		C533.7,622.6,532.7,622.6,531.7,622.6z M461.2,536.5C461.2,536.5,461.2,536.5,461.2,536.5c21,0,42-0.1,62.9,0.1
		c4.4,0,5.9-1.3,5.7-5.7c-0.3-8.8-0.1-17.6-0.1-26.5c0-6.6,0-6.7-6.7-6.7c-39.6,0-79.3,0-118.9,0.1c-2.6,0-5.3,0.2-7.9,0.8
		c-9.5,2-17.3,12.6-16.2,21.8c1.2,10.6,7.9,16,19.7,16.1C420.3,536.5,440.8,536.5,461.2,536.5z"/>
	<path d="M28.7,622.6c-0.7-2.6-2-5.2-2-7.8c-0.1-84.8-0.1-169.6-0.1-254.5c0-36.3,0-72.7,0-109c0-1.5-0.4-3.1,0.1-4.5
		c0.5-1.3,2-3.3,2.8-3.2c1.4,0.2,3,1.6,3.8,2.9c0.7,1.2,0.3,2.9,0.3,4.4c0,77.7,0,155.3,0,233c0,7.3,0,7.3,7.6,7.3
		c40.3,0,80.7,0,121,0.2c16.6,0.1,29.8,14.7,28,30.3c-1.5,12.6-10.7,21.3-23.4,21.7c-7.5,0.2-15,0-23.2,0c0.4,2.2,0.5,3.9,1,5.5
		c5.6,21.1,11.3,42.1,16.9,63.2c0.4,1.6,1.2,3.3,1,4.8c-0.2,1.6-1.5,3.1-2.3,4.7c-1.5-1.1-3.7-1.8-4.2-3.2
		c-1.8-5.2-2.9-10.6-4.4-15.9c-4.8-18-9.7-36-14.3-54c-1-4-2.7-5.2-6.8-5.2c-30.5,0.2-61,0.2-91.5,0c-4.5,0-5.5,1.4-5.5,5.7
		c0.2,22,0.2,44,0,66c0,2.5-1.2,5-1.8,7.5C30.7,622.6,29.7,622.6,28.7,622.6z M101.7,536.5C101.7,536.5,101.7,536.5,101.7,536.5
		c21,0,42,0.1,63,0c11.3,0,19.3-7.9,18.6-18.3c-0.7-11.5-9.5-20.5-21.2-20.5c-41.3-0.1-82.7,0-124,0c-3.4,0-4.7,1.2-4.6,4.7
		c0.2,9.5,0.3,19,0,28.5c-0.1,4.5,1.4,5.7,5.7,5.7C60,536.4,80.9,536.5,101.7,536.5z"/>
</g>
</svg>
