<?xml version="1.0" encoding="utf-8"?>
<!-- Generator: Adobe Illustrator 19.0.0, SVG Export Plug-In . SVG Version: 6.00 Build 0)  -->
<svg version="1.1" id="Calque_1" xmlns="http://www.w3.org/2000/svg" xmlns:xlink="http://www.w3.org/1999/xlink" x="0px" y="0px"
	 viewBox="0 0 612 792" style="enable-background:new 0 0 612 792;" xml:space="preserve">
<g>
	<path d="M73.6,549.3c11.1-3.9,22.6-3.1,34.1-3c5.1,0.1,10.2,0,15.4,0c-2-9.3-4.3-17.2-5.4-25.3c-3.1-21.5,1.4-42.2,8.4-62.3
		c6.2-17.9,13.4-35.5,19.8-53.3c2.1-5.9,3.7-12.1,4.7-18.3c1.6-9.8-1.1-18.9-7.1-26.8c-3.6-4.7-4.2-9.5-2.3-15
		c4.3-12,2.1-19.8-7.7-27.9c-4.4-3.6-9.2-6.6-13.7-10c-8.6-6.7-9.7-14.2-3.1-23c5.9-7.8,14.3-11.4,23.6-12.6
		c5.9-0.7,10.2,3.1,12.7,8.2c3.2,6.6,6.3,13.3,8.3,20.3c3,10.8,8.4,18.3,20.4,19.5c5.8,0.6,10.2,4,13.6,8.6
		c2.7,3.6,5.1,7.3,7.9,11.3c8.7-10.2,17.2-20.1,26.4-30.9c-6.1-0.6-11.4-1.2-17.5-1.8c9-22,26.9-35.2,45.1-49
		c-3.1-1-5.7-1.6-8.2-2.7c-4.1-1.8-4.6-4.4-1.5-7.8c1.5-1.6,3.2-2.9,5-4.1c14.1-9.4,29.5-15.1,46.6-16.2c5.5-0.3,11-2.2,16.9-3.4
		c-15.3-21.3-52.1-23.1-90.4-4.9c3.6-10.8,9.8-18.8,18.5-25c12-8.5,25.7-12,40-12.2c11.9-0.1,23.9,1.5,35.8,2.3
		c1.6,0.1,3.2,0.3,6,0.6c-12.9-13-31.3-11.4-45-21.3c17-13.5,34.9-11.4,54.4-4.3c-5.2-9.3-17.1-8.5-20.7-17.5
		c10.6-8.6,25.3-8.3,37.1,0.5c12.3,9.2,12.8,9.1,23.3-2c20.9-22.2,46.8-34.7,76.9-38.9c0.8-0.1,1.6-0.1,2.7,0.2
		c-23.2,16-47.1,31.2-57.6,60.1c2.4,0.3,4.5,0.7,6.5,0.8c6.3,0.4,12.6,0.7,19,1c11.3,0.6,20.2,6.2,27.8,14.2c0.5,0.5,1.1,1,1.2,1.6
		c0.1,3,0.9,6.3-0.2,8.7c-0.5,1.1-5.2,1.5-7.3,0.6c-7.8-3.5-16-5.4-24.3-3.9c-5.7,1-11,3.7-16.5,5.7c0.2,0.6,0.3,1.2,0.5,1.8
		c4.7,0,9.4-0.3,14,0.1c8.8,0.6,17.7,0.8,26.2,2.7c10.2,2.3,17.3,9.4,22.2,19.9c-7.4-1-14-2.4-20.6-2.6c-9.3-0.3-18.7-0.7-27.8,0.6
		c-12.7,1.8-22.5,9.2-30.8,20.1c8.2,2.4,15.7,4.5,23.3,6.7c18,5.1,35.7,10.8,50.1,23.6c3.4,3,6.7,6,9.6,9.4c1.1,1.3,1.8,3.8,1.3,5.3
		c-0.4,1.2-2.7,2.1-4.4,2.5c-2.4,0.6-4.9,0.5-8.3,0.8c3.4,4,6,7.3,8.9,10.5c10,10.8,18.6,22.7,24.9,36c0.7,1.5,1.4,3,1.7,4.6
		c1,5.3-2.5,8.2-7.7,6.7c-3.3-1-6.7-1.5-10.1-2.3c-0.2,0.5-0.4,1-0.6,1.5c1.8,2.1,3.5,4.2,5.3,6.4c12.3,15.3,17.8,33.6,22.7,52.2
		c5,19,10.1,37.9,15.7,56.7c6.1,20.6,4.4,40.5-6.3,58.8c-6.2,10.7-14.6,20.1-22.1,30.1c-1.1,1.4-2.4,2.6-4.5,4.9
		c27.5,0,53.9,0,80.2,0c0,0.3,0,0.7,0,1c-1.1,1.1-2.3,2.2-3.4,3.4c-8.1,8.9-15.6,18.2-24.3,26.5c-15.1,14.4-33,24.7-53.8,27.5
		c-14.5,2-29.2,2.3-43.8,2.5c-53.8,0.6-107.6,0.7-161.4,1.1c-27.6,0.2-55.3,0.7-82.9,0.8c-7.1,0-14.3-0.4-21.4-1.3
		c-29.5-3.9-54.6-17.4-77.1-36.1c-8.5-7.1-16.5-14.9-24.8-22.3C73.6,550,73.6,549.6,73.6,549.3z M251.3,297
		c-6.1,6.7-12.9,14.4-19.8,22c-6.2,6.9-12.9,13.5-18.6,20.8c-6.4,8.1-6.5,17.2-0.3,25.4c5,6.8,10.7,13.2,16.7,19.2
		c5.1,5.1,10.1,5.3,16.4,1.9c2.2-1.2,4.2-2.6,6.3-4c14.9-9.5,31.1-15.8,48.9-14.9c10.8,0.5,21.7,3,32.3,5.2
		c10.1,2.2,14.3,0.1,17.1-9.8c1.2-4.2,2.1-8.4,3.9-12.3c3-6.7,8.4-9.3,15.1-6.5c5.8,2.3,11.4,5.5,16.4,9.2c5.5,4.1,6.5,9.1,2.7,15
		c-3.5,5.3-8.1,10-12.7,14.4c-4.3,4.2-5.3,6.6-2.4,11.2c3.3,5.2,7.2,6.6,12.2,4c2.9-1.5,5.6-3.7,8.6-5.1c33.6-14.6,65.1-12,94.3,11
		c1.2,0.9,2.3,2,3.6,2.6c3.6,1.7,5.2,0.5,4.8-3.5c-1.1-11.8-4.3-23-10.3-33.2c-7.7-13-16.3-25.5-24.5-38.2c-1.3-2-2.7-4-4-6
		c7.8-6.4,15.3,4.6,22.8-0.6c-7.6-23.9-28.1-37-44.7-53.2c5.6-7.3,12.4,0.8,18.8-2.2c-1.7-1.4-2.9-2.6-4.2-3.5
		c-17.3-11.6-36.2-19.7-56.4-24.8c-6.6-1.7-12.1-0.7-17.6,3.8c-7.7,6.3-16.8,9.5-27,7.4c-8.8-1.8-15.6-6.8-20.7-13.8
		c-3.9-5.4-8.5-7.5-15-6.6c-7.4,1-14.9,1.3-22.3,2.6c-10.3,1.8-20,5.5-29.9,12.1c7.6,1,13.9,1.8,21.4,2.8c-2.3,1.8-3.8,3.1-5.4,4.2
		c-8.6,5.7-17.3,11.3-25.9,17c-9.5,6.4-18,13.8-23.7,23.9c-0.8,1.5-1.4,3.1-2.5,5.3C235.7,298.7,244.5,297.7,251.3,297z
		 M186.4,332.7c-3.4,22.3-18.5,25.9-36.7,23.9c2.4,6,5.3,11.7,6.9,17.7c3.5,13.5-1.4,25.8-6.1,38.2c-7.1,18.8-14.3,37.6-20.3,56.8
		c-4.7,15-8.6,30.5-7.6,46.6c0.7,12.2,6.5,21.2,18.3,27.3c-0.7-2.4-1.3-3.9-1.7-5.4c-1.6-7.1-3.8-14.2-4.5-21.4
		c-2.9-30.3,9.9-56.7,21.5-83.4c0.2,1.3,0.2,2.5-0.1,3.7c-4,16-8,32-11.9,47.9c-2.9,11.5-5.1,23.1-3.5,35.1
		c1.6,11.6,8.3,20.4,17,22.7c-1.7-8.8-3.9-17.9-5-27c-1.1-9.2-0.1-18.3,6.2-26.2c0.8,11.4,0.4,22.7,0.9,34c0.5,11,6,16.9,16.2,19.1
		c-2.6-16.7-2.6-16.7-0.5-20.5c0.5,1.3,0.9,2.3,1.3,3.4c5.1,15.7,14.6,22.3,31,21.9c13-0.3,26-0.4,38.9-0.4c6.3,0,11.6-2,15.4-6.8
		c16.9-20.8,25.4-44.4,22-71.4c-3.3-25.6-16.6-45.4-37.2-60.4c-24.3-17.7-44.1-38.5-52.2-68.4C193.6,335.8,191.3,333.1,186.4,332.7z
		 M312.3,546.8c10.7,0,19.6-0.5,28.3,0.1c13.9,0.9,25.4-2.7,34.7-13.6c19.2-22.5,27-48.3,23-77.4c-2.6-19.1-10.7-35.9-23.7-50.3
		c-8.1-8.9-12.2-8.6-19.2,1.1c-1.7,2.3-3.4,4.6-5.3,6.6c-2.7,2.8-5.9,3.8-9.5,1.8c-3.7-2-5.3-5.2-4.5-9.2c0.7-3.4,2-6.7,3.3-9.9
		c4-10.3,0.7-16.6-10.1-18.6c-14-2.6-28.1-3.4-42.3-1c-15.8,2.6-29.7,9.3-41.6,20c0.3,0.6,0.5,0.9,0.7,1.1c1.2,0.9,2.4,1.8,3.5,2.8
		c18.2,14.1,32.6,30.9,38.4,53.8c5.1,20.1,2.5,39.7-3.9,59c-3,8.9-6.7,17.6-10.4,27c20.7-19.3,23.6-44.8,27.7-69.9
		c8.4,21.8-2.6,41-7.4,61.2c4.1-4.7,7.6-9.7,10.5-15c2.8-5.1,4.7-10.6,7.3-15.8c0.9-1.7,2.4-3.1,4.2-5.4
		c2.1,16.7-9.6,27.9-13.4,42.2c9.7-1.9,9-13.9,17.1-16.3c0.6,0.3,1.2,0.7,1.8,1C318.6,530,315.6,538,312.3,546.8z M426.6,397.6
		c-5.4-6.8-11.6-7.4-18.8-3.5c-4.8,2.6-9.9,4.6-14.9,6.8c-5,2.1-6.4,4.8-4.5,9.8c1.1,2.9,2.7,5.7,4.3,8.4
		c20.8,35.5,20.3,70.4-2.4,104.9c-1.6,2.4-3.1,4.7-4.4,7.3c-3.6,7.4-1.7,12.3,6.3,13.6c8,1.2,16.2,1.5,24.3,1.3
		c10.3-0.2,20.6-1.2,30.8-1.6c7.3-0.3,14.7,0.1,22-0.3c7.2-0.4,13.6-3.3,18.6-8.6c8.4-8.9,15.3-18.9,19.6-30.5
		c6.2-16.9,4.9-34,1.5-51.2c-0.2-1.2-0.5-2.7-0.1-3.7c2.1-4.3,0.8-8-1.1-11.9c-11.9-23.6-30.8-38-56.8-42.8
		C443,394.1,434.5,390.6,426.6,397.6z M89.4,553c6,10.6,21.9,22.2,36.3,25c9.6,1.8,19.5,2.4,29.3,2.5c116.5,0.3,233,0.3,349.5,0.5
		c17.8,0,38.6-12.3,46.8-28C397.3,553,243.4,553,89.4,553z M299,162.5c2.6,1.3,4.3,2.2,6.1,3c4.9,2.1,9.9,4,14.7,6.1
		c7.3,3.2,13.1,8.2,16.3,15.4c1,2.3,0.2,6.3-1.4,8.5c-0.9,1.2-5.4,1.2-7.4,0.1c-10.6-5.6-21.9-8.9-33.8-9.8
		c-15.4-1.2-28.9,3.8-40.9,13.8c9,0.7,17.9,0.2,26.8,0.8c26.3,1.7,46.5,13,57.1,38.3c0.7,1.8,2,3.5,3.4,4.8
		c7.2,6.1,28.6,5.2,34.1-5.9c9.2-18.5,25.3-29.2,45.8-32.8c6.7-1.2,13.6-1.5,20.6-2.2c-0.7-0.5-1-0.9-1.4-1.1
		c-1.2-0.5-2.5-1-3.7-1.5c-10.5-3.9-21.3-3.1-32-1.3c-9.2,1.6-18.5,3.1-27.7,4.7c16.1-24.6,39.5-28.1,65.6-24.4
		c-0.2-0.5-0.2-1-0.5-1.1c-0.8-0.6-1.6-1.1-2.5-1.7c-13.2-8.4-27.4-10.3-42.6-6.6c-7,1.7-10.1-1.7-7.1-8.1
		c4.3-9.1,9.5-17.8,14.8-26.4c2.6-4.3,6-8.1,9.1-12.1c-22.4,9.7-40.9,23.1-46,49.7c-12.2-23.1-21-30.5-31-28.2
		c3,3.4,6.1,7.8,9.9,11.4c7,6.6,8.3,14.3,5.2,23.8C335.8,167.6,321,155.6,299,162.5z M137.7,588.5c14.9,9.4,30.8,14.8,48.5,14.8
		c89.3-0.1,178.6,0,267.8-0.2c8.7,0,17.6-1.3,26.2-3c9.7-1.9,18.8-5.8,28.4-11.7C384,588.5,260.8,588.5,137.7,588.5z M161,332.3
		c0.3-1.1,0.5-1.6,0.5-2c-0.6-16.7-7.1-31.6-13.9-46.4c-1.7-3.8-5.5-5.3-9.7-4.5c-7.1,1.5-12.9,5.2-17,11.3c-2.3,3.4-2,6.4,1.3,9.2
		c7.8,6.4,15.6,13,23.3,19.5C150.6,323.6,155.6,327.8,161,332.3z M346.9,404.8c10.7-11.6,20.1-21.7,29.3-32
		c9-10.1,7.9-14.7-4.3-20.3c-0.3-0.1-0.6-0.2-0.9-0.4c-5.8-2.5-8.6-1.4-10.8,4.7c-5,13.9-9.8,27.9-14.5,42
		C345.3,400,346.3,401.8,346.9,404.8z M178.1,332.4c-0.2,0-0.4-0.1-0.6-0.1c0-0.7,0.3-1.4,0.1-2c-0.5-1.8-0.6-3.9-1.8-5.1
		c-0.8-0.8-3.9-0.9-4.4-0.1c-1,1.3-1.1,3.5-1.2,5.3c-0.1,2.5,0.4,5,0.3,7.4c-0.3,5.1-2.9,6.9-7.7,4.9c-2.4-1-4.7-2.5-6.6-4.2
		c-2.9-2.6-5.5-2.6-7.3,0.8c-1.2,2.2-2,4.9-2.1,7.5c-0.2,2.8,1.5,4,4.6,3.7c2.5-0.3,5.2-0.2,7.7,0.1c7,0.9,13.8-1.7,16.2-7.2
		C176.7,340,177.2,336.1,178.1,332.4z"/>
	<path d="M310.4,319.4c4.5-1,6.1,1.2,7.6,4c4.6,9.1,6.1,9.4,14.2,2.7c3-2.5,6.1-4.4,11.4-2.5c-6,5.3-11.3,10.4-17,14.8
		c-4.5,3.4-7.7,2.5-10-2.6C314.2,330.6,312.5,325.1,310.4,319.4z"/>
	<path d="M355.7,423.6c-5.2,8.2-11.5,9.2-20.8,3.8c-11.2-6.5-14.1-14.6-8.3-25.7C328.6,419.7,339.3,425.6,355.7,423.6z"/>
</g>
</svg>
