<?xml version="1.0" encoding="utf-8"?>
<!-- Generator: Adobe Illustrator 19.0.0, SVG Export Plug-In . SVG Version: 6.00 Build 0)  -->
<svg version="1.1" id="Calque_1" xmlns="http://www.w3.org/2000/svg" xmlns:xlink="http://www.w3.org/1999/xlink" x="0px" y="0px"
	 viewBox="0 0 612 792" style="enable-background:new 0 0 612 792;" xml:space="preserve">
<g>
	<path d="M186,593.9c-4.1-0.8-8.2-1.5-12.2-2.5c-38.4-9.5-67.1-44.6-67.7-84.1c-0.7-50.3-0.5-100.6-0.6-150.9
		c0-8.4,2-10.3,10.4-10.3c116.3,0,232.6,0,348.9,0c9.3,0,10.4,1.1,10.4,10.3c-0.1,49.8,0,99.6-0.3,149.4
		c-0.2,42.5-30,78.3-71.6,86.7c-2.4,0.5-4.9,1-7.3,1.4C326,593.9,256,593.9,186,593.9z M289.8,371.8c0,0,0,0.1,0,0.1
		c-26.3,0-52.6,0-79,0c-30,0-60-0.1-90-0.2c-6.6,0-7.8,1.2-7.9,7.9c0,0.3,0,0.7,0,1c0.1,12.8,0.1,25.6,0.5,38.4
		c0.1,1.6,2.5,4.2,4.1,4.5c7.1,1.2,12.6,5.1,17.7,9.6c2.5,2.2,4.9,4.5,7.6,6.5c10.5,7.7,18.8,7.7,29.1-0.2
		c4.5-3.4,8.5-7.5,13.1-10.8c12.2-8.5,24.9-7.8,36.3,1.6c2.3,1.9,4.4,4.1,6.6,6.1c12.5,11.3,26,11.2,38.3-0.3
		c1.5-1.4,2.7-3.1,4.3-4.1c4.4-2.9,8.7-6.4,13.6-8c12.2-3.9,22,1.6,30.8,9.6c17.5,15.8,25.4,16,42.9,0.6
		c16.7-14.7,31.2-14.7,47.9,0.1c17.3,15.3,25.7,15,42.9-0.7c4-3.6,8.8-6.5,13.7-8.8c3.8-1.7,5.4-3.8,5.4-7.9c-0.1-12,0.1-24-0.1-36
		c-0.1-7.6-1.6-9.1-9.1-9.1C402.4,371.8,346.1,371.8,289.8,371.8z M288.8,499.9c0-0.1,0-0.2,0-0.3c-56.7,0-113.3,0-170-0.1
		c-3.3,0-4.9,1.2-5.4,4.4c-0.8,5.3,1.4,7.5,7.6,7.5c28.5,0,57-0.1,85.5,0c2.7,0,7.5-1.5,7.6,3.2c0,4.8-4.7,3.2-7.4,3.3
		c-28,0.1-56,0-84,0c-6.8,0-8.5,2.1-6.4,8.6c3.5,11.2,9.2,21.3,16.2,30.8c6,8.1,13.6,11.5,23.6,11.4c35-0.4,70-0.7,105-0.6
		c52.7,0.1,105.3,0.5,158,0.9c15.1,0.1,27.1-5.8,34.7-18.8c4.6-7.8,8-16.4,11.5-24.8c2-4.9,0.1-7.4-5.2-7.4c-19,0-38,0.2-57,0.3
		c-2.8,0-5.2-0.1-5.1-3.7c0-3.7,2.7-3.5,5.3-3.5c19.8,0.3,39.6,0.5,59.4,0.7c4.7,0,5.2-3.5,5.2-7c0-3.5-1.6-5.7-5.5-5.4
		c-3.5,0.2-7,0.5-10.5,0.5C397.4,499.9,343.1,499.9,288.8,499.9z M291,492.9C291,492.9,291,492.9,291,492.9c55.5,0,111,0,166.5,0
		c9.1,0,10.6-1.7,10.6-10.8c-0.1-14.3,0.1-28.7-0.1-43c0-2.3-0.7-6.1-1.9-6.4c-2.1-0.6-5.2,0.4-7.1,1.7c-5.6,4.1-10.5,9.2-16.3,13.2
		c-10,6.9-20.7,7-30.9,0.4c-4.6-3-8.8-6.6-12.9-10.2c-10.5-9.1-21-9.7-32.1-1.3c-3.6,2.7-6.8,5.9-10.4,8.6
		c-13.8,10.4-27.8,9.9-40.9-1.3c-3.5-3-7.1-6.1-10.9-8.8c-8.2-5.9-16.7-6-25-0.1c-3.3,2.3-6.4,4.8-9.4,7.5
		c-15.5,13.8-30.9,13.7-46.3-0.2c-3.2-2.9-6.6-5.6-10.2-8c-7.8-5.1-15.7-5-23.4,0.2c-4.1,2.8-7.8,6.2-11.6,9.4
		c-13.6,11.6-28.4,11.8-42.1,0.4c-2.6-2.1-4.9-4.6-7.5-6.7c-2.2-1.8-4.5-3.5-7-4.7c-6.5-3.2-8.8-1.6-8.9,5.6c0,14.2,0,28.3-0.2,42.5
		c-0.1,9.7,2.1,12.1,11.9,12.1C180.3,492.9,235.6,492.9,291,492.9z M290,353.8C290,353.7,290,353.7,290,353.8
		c-30.5-0.1-61-0.1-91.5-0.1c-26.5,0-53,0-79.5-0.1c-4.1,0-6.3,1.1-6.1,5.6c0.2,5.5,3.9,5.7,8,5.7c48.2-0.3,96.3-0.7,144.5-0.7
		c65.2-0.1,130.3,0.2,195.5,0.3c3.6,0,7.2,0.2,7.1-5.2c-0.1-4.8-2.9-5.8-7-5.6c-2.3,0.1-4.7,0-7,0
		C399.3,353.8,344.7,353.8,290,353.8z M268.2,586.4c8.5,0.5,11.7-4.6,15.4-10.2C275.4,575,272.9,581.2,268.2,586.4z M212.6,577.1
		c-5.5-2-11,1.4-15,9.2C205.1,587.2,208.3,581.4,212.6,577.1z M338,576.3c-8.7-0.9-12.1,4.3-16.2,9.7
		C330.3,587.4,332.8,580.6,338,576.3z M248.4,576.8c-6.8-1.1-11.4,2.1-14.5,10.1C241.1,586.7,244.4,581.5,248.4,576.8z M304.6,586.7
		c7.8,0.2,10.6-5.7,15.2-10.1C312.3,575.7,308.8,578.1,304.6,586.7z M339.7,586.7c8,0.1,11.3-5.2,15.4-10.7
		C346.7,575.6,343.4,581,339.7,586.7z M375.6,585.9c6.1,1,11.4-2.6,14.4-9.8C382.7,575.8,379.3,580.8,375.6,585.9z M371.9,576.5
		c-6.6-0.5-10.3,2.2-13.7,9.8C364.4,586.4,367.5,584.2,371.9,576.5z M285.3,586c7.9,0.3,12.8-3,15.5-9.9
		C293,575,290.4,581.6,285.3,586z M194,576.1c-6.8-1-9.6,3.9-12.8,8.4C187,586.4,190.7,584,194,576.1z M250.6,585.7
		c7.1,1.1,11.3-1.8,14.7-9.6C257.9,575.1,255.3,581.5,250.6,585.7z M408.5,576.4c-7.1-0.4-11.1,2.3-13.7,8.9
		C401.8,586.4,404.5,581.1,408.5,576.4z M231,576.3c-8.3-1-11,4.2-14.3,9.4C224.1,586.4,226.5,580.8,231,576.3z"/>
	<path d="M320,81.9c0.5,3.3,2,7,1.2,10c-2.1,7.8-4,16-8,22.8c-11.9,20-12.5,39.4-0.5,59.4c12.6,20.9,12.3,42-0.2,62.9
		c-5,8.4-8.7,17.2-8.7,27.2c0,1.6-2.4,3.1-3.7,4.7c-1.2-1.7-3.4-3.4-3.3-5.1c0.1-9.6,2.4-18.9,7.6-27.1c13.3-20.7,13-41.2,0.5-62.1
		c-11.6-19.3-11.3-38.8-0.6-58.4c1.8-3.4,4.2-6.6,5.4-10.1c1.9-5.8,3-11.8,4.4-17.7c0.5-2.2,1.3-4.4,1.9-6.5
		C317.3,81.9,318.7,81.9,320,81.9z"/>
	<path d="M410.3,278.4c-2.8,5.7-5.5,11.5-8.3,17.2c-2.5,5.3-4.9,10.7-7.6,16c-0.8,1.5-2.4,2.6-3.6,3.9c-1-1.6-2.8-3.2-2.8-4.9
		c-0.2-6.6,2.8-12.2,6.8-17.3c9-11.3,9.2-19.2,0.6-31.1c-10.9-15-10.7-24.2-0.3-39.6c3-4.4,4.2-9.9,6.6-14.7c0.8-1.6,2.7-2.6,4-3.9
		c1.1,1.6,3.2,3.3,3.1,4.8c-0.3,3.4-1.4,6.8-2.8,10c-1.4,3.1-3.6,6-5.6,8.8c-7.6,10.9-7.4,18.4-0.1,29.4c3.3,4.9,5.6,10.5,8.2,15.8
		c0.7,1.4,0.5,3.2,0.8,4.9C409.5,278,409.9,278.2,410.3,278.4z"/>
	<path d="M231.5,209.5c-1.5,4.2-2.6,7.8-4.1,11.3c-0.8,2-2.3,3.7-3.6,5.4c-9.6,13.2-9.6,18.7-0.3,31.9c0.8,1.1,1.5,2.2,2.3,3.3
		c7.2,11.4,7,22.6-0.8,33.6c-3.9,5.4-8,10.6-8.6,17.7c-0.1,1-2.2,1.9-3.3,2.9c-0.9-1.2-2.8-2.7-2.5-3.6c1.3-5.4,2.7-10.8,4.9-15.9
		c1.4-3.5,4.3-6.3,6.2-9.6c3.3-5.6,3.4-11.5,0.2-17.1c-2.1-3.8-4.6-7.3-6.9-11c-6.9-10.6-7.1-21.2-0.1-31.8
		c4.1-6.2,8.9-12.1,9.9-19.9c0.1-1,2.2-1.7,3.4-2.6C229.3,205.9,230.3,207.7,231.5,209.5z"/>
</g>
</svg>
