<?xml version="1.0" encoding="utf-8"?>
<!-- Generator: Adobe Illustrator 19.0.0, SVG Export Plug-In . SVG Version: 6.00 Build 0)  -->
<svg version="1.1" id="Calque_1" xmlns="http://www.w3.org/2000/svg" xmlns:xlink="http://www.w3.org/1999/xlink" x="0px" y="0px"
	 viewBox="0 0 612 792" style="enable-background:new 0 0 612 792;" xml:space="preserve">
<g>
	<path d="M29.5,558.5c1.5-0.7,3-1.9,4.6-2.2c12.5-2,25-3.9,37.5-5.9c1.6-0.3,3.2-0.6,5.4-1c-1.1-1.9-1.9-3.5-2.8-5
		c-10.7-18-14-37.2-9-57.7c0.5-1.9,0-4.8-1.2-6.1c-13.8-15.6-18.6-34-17-54.2c2.8-34.6,13.9-66.8,31.4-96.5
		c39.9-67.8,91-125.2,158.3-167c23.8-14.8,48.7-27.6,76.3-33.9c15.2-3.5,30.7-5.4,46-1.4c8.2,2.1,16,6.3,23.6,10.2
		c4,2,7.2,3.2,11.7,1.3c22.2-9.4,43.5-7.4,63.9,5.4c1.6,1,3.3,1.9,5.8,3.3c1.3-9.1,2.4-17.2,3.5-25.4c0.9-6.3,1.6-12.6,2.7-18.8
		c0.3-1.8,1.6-3.4,2.4-5.2c0.3,0,0.7,0,1,0c14.8,15.3,29.5,30.6,44.3,45.8c1.5,1.5,3.1,2.8,4.7,4.2c0,0.3,0,0.7,0,1
		c-1.5,1-2.8,2.8-4.4,3c-12.6,2.1-25.3,4-38,6c-1.5,0.2-2.9,0.5-5.1,1c1.6,2.8,2.9,5.2,4.2,7.6c11.1,20.3,13.1,41.3,4.5,63
		c-1.9,4.8-2.2,9.3,0.9,13.7c11.4,16,13.5,34,11.4,52.9c-3.5,30.9-13.3,59.8-28.6,86.6c-42.3,74.1-98,135.4-172.6,178.5
		c-21.7,12.5-44.1,23.4-69,28.1c-13.7,2.6-27.4,3.5-41.2,0.7c-11.4-2.3-21.2-7.4-29.5-15.7c-1.2-1.2-3.8-2.3-5.4-1.9
		c-21.5,5.6-41.2,2-59.2-11c-0.5-0.4-1.1-0.6-2.4-1.3c-1.2,8.9-2.4,17.3-3.6,25.8c-0.9,6.3-1.6,12.6-2.7,18.8
		c-0.3,1.8-1.5,3.5-2.3,5.2c-0.3,0-0.7,0-1,0c-14-14.4-27.9-28.9-41.9-43.3c-2.3-2.3-4.7-4.5-7.1-6.7
		C29.5,559.9,29.5,559.2,29.5,558.5z M482.3,203.7c-0.6-4.6-0.9-9.3-1.9-13.8c-10-46-63.9-64.8-98.1-34
		c-5.7,5.1-11.1,10.6-16.4,16.1C291,249.6,216.3,327.3,141.5,405c-17.9,18.6-35.9,37.2-53.6,56c-15.3,16.2-21.3,35.3-16.4,57.5
		c7.4,33.6,34.5,53.2,68.2,49.1c15.5-1.9,27.3-10.6,37.9-21.5c72.9-75.8,145.9-151.5,218.8-227.3c24-25,47.8-50.2,71.4-75.6
		C477.9,232.2,482,218.6,482.3,203.7z M66.8,472.7c104.9-109.1,209.5-217.8,314.6-327.1c-4.2-2.6-7.6-5-11.3-6.9
		c-9.8-5-20.4-5.8-31.1-5.5c-28.4,0.8-54.1,10.4-78.4,24.2c-83,47.5-146.2,113.6-187.7,200.2c-12.5,26.1-20.8,53-18.5,82.3
		C55.5,451.9,58.3,463.2,66.8,472.7z M161.9,571.5c11.9,11.2,26.5,14.6,42.4,13.5c30.9-2,59.3-12.3,85.5-28.2
		c71.9-43.4,129.3-101.2,169.8-175.2c15.5-28.3,27.5-57.7,29.4-90.4c0.9-15.9-0.8-31.2-11.5-45.1
		C372.3,354.6,267.3,462.8,161.9,571.5z M470.9,152.1c12.8-1.7,24.5-3.4,37.5-5.1c-11.1-11.6-21.5-22.4-32.6-34
		C474.2,126.5,472.6,138.8,470.9,152.1z M44.8,562c10.9,11.3,20.9,21.7,31.6,32.8c1.6-13.3,3-25.4,4.5-38
		C68.6,558.6,57.3,560.2,44.8,562z"/>
	<path d="M121,459c2.5,1.6,5.4,2.9,7.5,5c8.6,8.6,16.9,17.5,25.4,26.1c8.7,8.8,18.9,13.9,31.5,10.8c19.6-4.8,29.9-26.2,21.4-45
		c-2.2-4.9-5.8-9.2-9.2-13.6c-4.5-5.8-9.9-10.9-13.8-17.1c-14.3-22.5-1.2-54.1,24.7-59c12.8-2.5,24.8,0.1,34.5,10
		c4.9,5,9.9,9.9,15.3,14.4c10.8,9,23.9,10.1,35.3,3.3c11.2-6.6,17.5-20.3,15.4-33.4c-1.4-8.7-5.4-15.9-12-21.8
		c-9.5-8.5-17.3-18-19.2-31.2c-2.3-16.1,6.2-33.5,20.2-40.9c15.6-8.2,31.7-6.2,44.7,5.9c4,3.7,7.7,7.9,11.6,11.7
		c13.2,13.1,31.4,14,44.3,2.1c12.7-11.8,14.2-32.3,2.6-45.6c-8.5-9.8-17.9-18.8-26.7-28.4c-2.6-2.8-4.4-6.4-6.5-9.6
		c0.5-0.5,0.9-1.1,1.4-1.6c2.6,1.3,5.8,2.1,7.8,4.1c9.7,9.6,19.5,19.2,28.4,29.5c19.9,23,10,58.3-18.4,66.1
		c-13,3.6-24.8,0.2-34.9-8.4c-4.4-3.8-8.3-8.2-12.4-12.3c-13.2-13.2-31.8-14.4-44.4-2.9c-13,11.8-14.5,32.2-3.1,46.1
		c3.8,4.6,8.3,8.6,12.3,13.1c11.2,12.6,14.7,27.2,9.2,43.2c-9.2,26.9-40.8,34.4-62.7,15.1c-6.9-6-13.6-12.4-21-17.6
		c-10.5-7.4-26.2-5.2-35.3,3.9c-11.6,11.6-13.2,30.9-3.2,43.9c4.2,5.5,9.3,10.4,14,15.6c16.2,18.1,14.9,43.9-2.8,59.3
		c-13.6,11.8-33.1,13.2-46.8,1.5c-12.3-10.6-23.1-23-34.4-34.8c-1.4-1.5-1.5-4.1-2.2-6.3C120,459.9,120.5,459.4,121,459z"/>
</g>
</svg>
