<?xml version="1.0" encoding="utf-8"?>
<!-- Generator: Adobe Illustrator 19.0.0, SVG Export Plug-In . SVG Version: 6.00 Build 0)  -->
<svg version="1.1" id="Calque_1" xmlns="http://www.w3.org/2000/svg" xmlns:xlink="http://www.w3.org/1999/xlink" x="0px" y="0px"
	 viewBox="0 0 612 792" style="enable-background:new 0 0 612 792;" xml:space="preserve">
<style type="text/css">
	.st0{fill:#010101;}
	.st1{fill:#030303;}
	.st2{fill:#030302;}
	.st3{fill:#040404;}
	.st4{fill:#020202;}
</style>
<g>
	<path class="st0" d="M477.2,370c-5.4,0.8-6.9-2-7.3-6.9c-2.4-29-16.5-50.1-42.9-62.4c-6.3-2.9-8.4-6.6-8.1-13.4
		c1-19.5-4.5-37.1-16.9-52.4c-9.1-11.2-20.6-19.3-33.8-24.9c-5.1-2.2-7.9-5.7-8.5-11.3c-0.3-2.8,0.6-4.5,3.1-5.4
		c9.5-3.3,17.9-8.6,26.4-13.9c12.4-7.7,23.2-17.3,32-29c1.3-1.7,2.9-3.3,0.5-5c-2.4-1.8-3.9-0.3-5.2,1.8c-1.1,1.7-2.4,3.2-3.7,4.7
		c-12.9,15.4-29.8,25.3-47.3,34.4c-6.1,3.2-10.6,3.2-16.3-1c-14.9-10.8-34.6-4.8-40.3,12.4c-2.2,6.7-5.9,10.4-12.1,13.3
		c-20.3,9.5-36,23.8-43.6,45.5c-3.8,10.8-4.9,22.1-4.3,33.4c0.2,4.6-1.7,7.3-6.1,8.3c-1.5,0.3-2.9,0.8-4.3,1.2
		c-30.5,8.5-50.4,27.1-56.8,58.9c-2.1,10.3-5.2,12.3-16.1,11.4c-3.2-0.3-5.9,0.1-7.7,3.1c0,6.3,0,12.7,0,19c1.9,1.1,0.9,3,1,4.5
		c0.3,7.2,1.3,14.2,3.5,21.1c9.9,29.6,37.9,49.5,71.1,50.2c11.8,0.3,23.7,0.1,35.5,0.1c15,0.1,17.9,2.9,18,17.7c0,4.7,0,9.3,0,14
		c0,12.8,2.6,16.7,14.7,20c6.1,1.7,4.9,6,5.2,10.2c0.2,4-1.4,6.5-5.4,7c-4.4,0.6-7,2.9-7.7,7.2c-0.7,4.7,1.2,8,5.4,10.2
		c10.3,5.6,10.3,6.2,2.1,14.8c-1.8,1.9-3.5,4-4.8,6.3c-4.9,8.4-4.4,16.8,0.8,25c2,3.1,4.8,5.6,7.5,8c1.8,1.6,2.7,3.5,1.7,5.8
		c-0.9,2.3-2.8,3-5.2,3c-18.9-0.2-37.5,2.4-56.2,5c-15.2,2.1-30,6.1-45,8.9c-1.9,0.4-3.5,1.3-3.2,3.7c0.3,2.1,1.9,2.6,3.7,2.6
		c2.2,0,4.3-0.3,6.5-0.3c75.5,0,151,0,226.5,0c2.2,0,4.3,0.1,6.5,0c1.5,0,2.5-0.7,2.7-2.3c0.3-1.8-0.6-2.8-2.3-3.2
		c-2.4-0.5-4.8-1.2-7.3-1.8c-31-7.6-62.4-11.9-94.3-13c-2.2-0.1-4.4,0.1-5.5-2.5c-1.1-2.6,0.2-4.5,1.8-6.3c2.1-2.4,4.4-4.6,6.3-7.1
		c7-9.4,7.1-17.9,0.3-27.5c-1.9-2.7-4.3-5.1-6.5-7.6c-4.6-5.3-3.9-8.3,2.5-10.7c0.6-0.2,1.3-0.3,1.9-0.6c4.3-1.8,6.7-4.8,6.2-9.7
		c-0.4-4.6-2.9-7.4-7.4-8.1c-6.9-1-5.5-6-5.8-10.6c-0.3-4.7,2.5-5.9,6.2-6.9c10.1-2.6,13.7-7.2,13.8-17.8c0.1-6.8-0.2-13.7,0.1-20.5
		c0.4-9.1,4.3-13,13.4-13.2c12-0.2,24-0.1,36-0.1c6.5,0,13-0.6,19.4-1.8c29.8-5.8,52.3-28.4,57.7-58.1c0.9-4.9,0.3-10.1,2.3-14.9
		c0-7,0-14,0-21C480.7,370.6,479.2,369.7,477.2,370z M463.8,357.5c0.1,1,0.2,2,0.2,3c0.4,7.6-1.4,9.5-9,9.5c-16.3,0-32.7-0.1-49-0.1
		c-1.3,0-2.7,0-4,0c0,0,0,0,0,0.1c-17.7,0-35.3,0-53,0c-7.1,0-8.6-1.6-9.1-8.8c-0.4-6.1-1.8-11.9-5.2-17c-3.8-5.8-3.3-11.1,0.6-16.6
		c15.3-21.8,47.3-33.6,74.1-27.1C438.6,307.4,459.7,329.5,463.8,357.5z M312.9,204c1.6-14.3,17.4-22.9,30-15.7
		c-2.3,0.6-4.1,0.9-5.8,1.5c-6,2.3-8.5,7.4-6.4,12.5c2.6,6.4,8.6,9,14.5,6.4c1.5-0.7,3.3-1.5,3.2-3.4c-0.1-2.4-2.1-2.6-4.3-2.6
		c2.2-3.2,4.9-4.9,8.4-3.4c3.4,1.4,2.6,4.7,2.3,7.4c-1.2,12.1-7.7,16.7-19.4,14c-4.5-1-9.2-1.6-13.6-2.9
		C314.5,215.7,312,211.7,312.9,204z M254.7,283.8c0.8-29.9,14.8-51.8,40.9-66c2.3-1.3,4.7-2.4,7.1-3.6c3.5-1.7,5.6-0.1,7.3,2.8
		c1.6,2.8,0.7,4.7-2,6.1c-1.1,0.6-2.8,1.3-1.8,2.9c0.7,1.4,2.3,2.1,3.9,1.4c11.4-5.4,22.4-2.3,33.5,1.1c6.5,2,12.4-0.9,18.5-2.2
		c1.2-0.2,1.8-1.4,1.6-2.8c-0.2-1.7-1.4-2-2.8-2.2c-1.7-0.2-4.7,1.6-4.6-1.5c0.2-3.2,2.1-6.1,6.2-5.8c1.6,0.1,3.3,0.5,4.8,1.3
		c28,13.7,43.8,35.7,45.8,61.6c0.3,17.7-0.1,18.2-10.5,17c-30.2-3.6-53.9,7.7-72.7,30.9c-3.5,4.3-3.9,4.3-7.7-0.1
		c-14.5-16.8-32.9-26.1-55.1-27.7C255.5,296.2,254.4,295.6,254.7,283.8z M186.8,360.4c7.7-37.2,43.5-62.5,81.6-57.6
		c30.7,4,52.2,20.1,63.2,49.3c1.3,3.4,2,7,2.5,10.7c0.6,5.1-1.2,7.1-6.4,7.2c-6.5,0.1-13-0.1-19.5-0.1c-16.2,0-32.3,0-48.5,0
		c0,0,0,0.1,0,0.1c-21.7,0-43.3,0-65,0C186.7,370,185.2,368.2,186.8,360.4z M334.7,622c23.2,0.7,46.2,2.9,68.8,8.1
		c0.4,0.1,0.8,0.4,2,0.9c-57.3,0-113.8,0-170.4,0c12.5-3.8,25.2-5.6,38.1-6.8c11.1-1.1,22.2-2.1,33.4-2.2c3.9,0,6-1.7,6-5.6
		c-0.1-3.7,1.9-4.5,5.1-4.2c1.8,0.2,3.7,0.1,5.5,0c2.9-0.2,4.7,0.9,4.5,3.9C327.5,621.1,330.5,621.8,334.7,622z M341,587.1
		c-0.1,11.3-9.3,19.9-21.2,19.7c-11.6-0.2-20.7-8.9-20.6-19.9c0.1-11.1,9.1-19.6,20.8-19.7C331.9,567.2,341,575.8,341,587.1z
		 M349.8,470.2c-3.2,9.2-1.8,18.8-2,28.2c0,1.7-0.2,3.3-0.5,5c-1.4,7.7-4.5,10.5-12.3,11.1c-7,0.5-7.1,0.6-7.1,7.8
		c0,4.5,0,9-0.1,13.5c-0.1,4,1.7,5.9,5.7,5.8c0.8,0,1.7-0.1,2.5,0c2.6,0.4,4.3,1.6,4.2,4.6c-0.1,2.7-1.8,4-4.2,3.9
		c-5.5-0.2-8.6,0.9-8.3,7.7c0.2,5.1-5,4.2-8.5,4.3c-3.6,0-7.3-0.8-6.9-5.2c0.5-5.8-2.2-6.9-7-6.7c-2.9,0.1-5.4-0.8-5.4-4.4
		c0-3.7,2.8-4.1,5.5-4.3c6.6-0.6,7.2-1.2,6.8-8c-0.2-3.5-0.2-7,0.3-10.5c0.7-5.7-1.6-8.3-7.4-8.8c-9.4-0.9-11.7-3-12.4-12.6
		c-0.4-4.8-0.1-9.6,0-14.5c0.1-6.3-0.8-12.5-2.8-18.9c19.6,0,38.7,0,57.8,0C349.1,468.1,350.5,468.1,349.8,470.2z M475.1,410.3
		c-5.2,19.9-17.9,33.8-35.4,43.6c-9.7,5.5-20.3,8.2-31.5,8.2c-58.1,0-116.3,0.2-174.4-0.1c-32-0.1-58.8-20.2-68.7-50.6
		c-2.1-6.6-0.8-8.4,6.3-8.4c37.6,0,75.3,0,112.9,0c10.5,0,21,0,31.5,0c45.1,0.5,90.3-1.6,135.4,0.4c5.5,0.2,10.9-0.4,16.4-1.3
		C474.3,401.1,476.8,403.7,475.1,410.3z M465.4,399c-49-0.4-97.9-1.6-146.9-0.7c-46.5,0-93,0-139.4,0c-3.5,0-7,0.2-10.5,0.1
		c-3.4,0-5.4-1.8-5.3-5.2c0.1-4,0.4-8,0.9-11.9c0.4-3.1,2.4-5.1,5.7-5.3c4.8-0.3,9.6-0.6,14.5-0.6c92.8,0,185.6,0,278.4,0
		c13.1,0,13.1,0,13.4,12.9C476.4,396.9,474.4,399,465.4,399z"/>
	<path class="st1" d="M230.4,450c-19.8-0.4-40.3-15-45.7-32.4c-0.3-0.9-1.3-1.9-0.1-2.5c1.1-0.6,1.7,0.5,2.3,1.3
		c1.6,2.3,3.2,4.6,4.9,6.9c9.9,12.7,22.9,19.8,39,21.4c2,0.2,5.5-0.8,5.1,2.9C235.5,450.8,232.3,449.8,230.4,450z"/>
	<path class="st1" d="M382.2,281.7c-0.1,3.3-2.5,3-4.7,3.2c-14.2,1.5-27,6.4-38.2,15.4c-2.6,2.1-4.9,4.5-7.3,6.8
		c-1.6,1.6-3.3,2.3-5.1,0.4c-1.9-2-0.1-3.3,1.1-4.6c13.1-14.2,29.7-21.4,48.6-23.7C378.8,279,381.5,278.4,382.2,281.7z"/>
	<path class="st2" d="M266,276.8c2.6-18.3,9.9-33.8,25.6-44.4c1.5-1,3.1-1.2,4.4,0.4c1.5,1.9,0.2,3.2-1.2,4.1
		c-13.6,9.7-20,23.5-23,39.4c-0.3,1.6-0.4,3.9-3.1,3.8C266.5,279.9,265.9,278.6,266,276.8z"/>
	<path class="st3" d="M201.7,354.2c0.9-2.7,1.5-5.5,2.7-8c7.1-13.7,18-23.2,32.2-29c2.8-1.1,5.8-1.6,8.8-1.4
		c1.2,0.1,2.6,0.1,2.9,1.4c0.3,1.4-0.5,2.6-1.8,3.2c-1.2,0.6-2.4,1-3.7,1.4c-17.1,5-29.1,15.3-34.9,32.5c-0.6,1.9-1.2,4.1-4,3.5
		C202.2,357.4,201.7,356,201.7,354.2z"/>
	<path class="st4" d="M389.4,309c1.8,0.1,3.3,0.1,4.8,0.3c1.9,0.3,3.9,0.7,3.7,3.1c-0.2,2.9-2.5,2.5-4.5,2.4
		c-9.8-0.7-18.8,2-27.2,6.7c-6.9,3.9-12.6,9.2-17.1,15.7c-1.3,1.9-2.7,4.4-5.5,2.5c-3.2-2.2-0.7-4.3,0.8-6.2
		C355.8,318.6,370.6,309.8,389.4,309z"/>
	<path class="st1" d="M298.9,485.5c0-0.9,0-3.1,0-5.2c0-1.9,0.5-3.3,2.8-3.2c2.2,0.1,2.7,1.6,2.6,3.4c0,3-0.2,6-0.2,9
		c0.2,5.6,1.9,10.4,7.4,13.1c1.7,0.8,3.4,2,2.1,4.2c-1.3,2.1-3.1,1.2-4.8,0.4C299.9,503,298.5,495.3,298.9,485.5z"/>
</g>
</svg>
