<?xml version="1.0" encoding="utf-8"?>
<!-- Generator: Adobe Illustrator 19.0.0, SVG Export Plug-In . SVG Version: 6.00 Build 0)  -->
<svg version="1.1" id="Calque_1" xmlns="http://www.w3.org/2000/svg" xmlns:xlink="http://www.w3.org/1999/xlink" x="0px" y="0px"
	 viewBox="0 0 612 792" style="enable-background:new 0 0 612 792;" xml:space="preserve">
<g>
	<path d="M135.3,513.6c1.3-9.7,2.8-19.4,4-29.1c4.9-38.8,9.7-77.7,14.5-116.5c2.8-22.6,5.9-45.2,8.2-67.9
		c3.2-32.2,18.7-57.5,42.9-78c22.7-19.1,49.2-27.9,78.7-28.7c5.9-0.2,7.3,1.1,8,7c0.4,3,0.5,6,1.2,8.9c3.6,15.9,14.5,24.8,32.7,25
		c15.5,0.2,13,3.2,13.6,13.5c1.6,25.5,27,42.2,53,35.1c2.6-0.7,5.1-1.7,7.6-2.3c5.8-1.5,8.6,0.2,9.4,6.1c1.7,12.4,3.4,24.7,5,37.1
		c4.5,34.7,9.1,69.3,13.4,104c3.4,27.6,6.5,55.2,9.8,82.8c0.2,1.3,0.6,2.6,0.9,3.8c0,3.3,0,6.7,0,10c-3.2,5.2-8.2,6.1-13.7,6.1
		c-30-0.1-60-0.1-90-0.1c-9.8,0-11.3,1.6-11.3,11.2c0.1,34.3,0.2,68.6,0.3,103c0,18.2-15,32.8-33.8,33
		c-20.1,0.2-35.2-13.4-35.4-32.8c-0.3-35.3-0.1-70.7-0.1-106c0-8.3,0-8.4-8.3-8.4c-32.3,0-64.7,0-97,0c-5.5,0-10.7-0.4-13.7-6
		C135.3,520.9,135.3,517.3,135.3,513.6z M155.4,410.5c2.9-1,5-1.6,7-2.5c26.7-12.6,54-16.1,82.3-5.5c16.8,6.3,30.8,16.8,44,28.8
		c20.2,18.3,43.6,29.3,71.5,28.2c18.6-0.7,35.4-7.3,51.2-16.6c9.2-5.4,10.1-7.6,8.7-18.3c-3-23.4-5.9-46.9-8.6-70.4
		c-1.5-12.8-1.7-13-13.4-8.1c-36.9,15.6-71.5,11.6-103.6-12.3c-6.8-5.1-13.2-10.7-19.7-16.2c-29.3-24.9-61.9-32.4-98.6-19.1
		c-5.3,1.9-7.9,5-8.5,10.8c-2.4,21.8-5.3,43.6-8,65.4C158.2,386.3,156.9,397.8,155.4,410.5z M422.2,444.5
		c-6.8,3.7-13.1,7.5-19.7,10.6c-35.5,16.7-70,15.1-102.9-6.7c-8.7-5.8-16.5-12.9-24.4-19.8c-33.5-28.9-73.4-33.7-112.8-13.5
		c-5.1,2.6-8.4,6.4-9.1,12.2c-3.6,29.2-7.3,58.5-10.8,87.7c-1,8.3,0,9.2,8.3,9.4c2,0,4,0,6,0c53.8,0,107.6,0,161.4,0
		c34.3,0,68.6,0,103,0c10,0,11.3-1.4,10.1-11.5c-1.3-10.6-2.7-21.1-4.1-31.7C425.5,469.2,423.9,457.1,422.2,444.5z M170.1,292.3
		c1.1,0.2,1.6,0.5,2,0.4c1.9-0.5,3.9-1,5.8-1.6c14.1-4.5,28.5-6.6,43.3-4.9c23.8,2.7,43.4,13.8,61.3,29.1c8.1,6.9,16.2,14,25.2,19.5
		c31.3,19,63.4,18.2,95.7,2c3.2-1.6,5.3-4,4.8-7.9c-1.6-12-3.2-24.1-4.7-36.1c-0.5-3.8-2.4-4.8-5.8-4.1c-4.6,0.9-9.1,2-13.7,2.4
		c-24.2,2.1-45.8-13.4-50.5-36.1c-2.6-12.3-2.6-12.3-15.1-14.2c-18.1-2.8-30.5-15.4-33.1-33.7c-0.8-5.7-2-6.8-7.8-6.5
		c-25,1.2-47,10.2-66.5,25.4C189,242.7,175.5,264.8,170.1,292.3z M317.2,591.1c0,0,0.1,0,0.1,0c0-17.7,0-35.3,0-53
		c0-5.7-1.6-7.4-6.9-7.5c-14.2-0.1-28.3,0-42.5,0c-4.5,0-6.7,2.2-6.7,6.8c0.1,36.2,0,72.3,0.3,108.5c0.1,9,3.8,16.7,12,21.2
		c10.2,5.6,20.9,5.5,31-0.1c9.5-5.2,12.7-14,12.7-24.3C317.1,625.4,317.2,608.3,317.2,591.1z"/>
</g>
</svg>
