<?xml version="1.0" encoding="utf-8"?>
<!-- Generator: Adobe Illustrator 19.0.0, SVG Export Plug-In . SVG Version: 6.00 Build 0)  -->
<svg version="1.1" id="Calque_1" xmlns="http://www.w3.org/2000/svg" xmlns:xlink="http://www.w3.org/1999/xlink" x="0px" y="0px"
	 viewBox="0 0 612 792" style="enable-background:new 0 0 612 792;" xml:space="preserve">
<g>
	<path d="M540.5,409c0,62.8,0,125.6,0,188.5c0,26.4-19.4,45.8-45.7,45.8c-125.6,0-251.3,0-376.9,0c-22.1,0-39.8-12.9-45.1-33.1
		c-1-3.8-1.4-7.9-1.4-11.9c-0.1-126.5-0.1-252.9,0-379.4c0-25.2,19.5-44.7,44.6-44.7c126.5-0.1,252.9-0.1,379.4,0
		c25.5,0,44.9,19.3,45,44.9C540.6,282.4,540.5,345.7,540.5,409z M306.3,622.1c62.8,0,125.7,0,188.5,0c3.3,0,6.7,0,9.9-0.8
		c10.1-2.3,14.7-9.8,14.7-23.5c0-126.5,0-253,0-379.5c0-15.9-7.2-23.2-23.3-23.2c-126.8,0-253.6,0-380.5,0c-16,0-23.2,7.2-23.2,23.3
		c0,126.8,0,253.6,0,380.5c0,2.8,0.1,5.7,0.8,8.4c2.5,10,9.8,14.7,22.5,14.7C179.3,622.1,242.8,622.1,306.3,622.1z"/>
	<path d="M306,557.7c-20.7,0-41.3,0-62,0c-25.2,0-44.5-19.3-44.6-44.6c-0.1-25-0.1-50,0.1-74.9c0-3.6-1-5.6-4.2-7.5
		c-28.1-16.1-43.2-48.4-37-78.7c6.3-30.7,33.3-55.8,64.7-59.9c5.6-0.7,11.9,1,16.6-1.2c4.7-2.2,7.6-8.2,11.8-12
		c32.8-29.4,81.4-24.6,108.4,10.7c2.3,3,4.2,4,8.1,3.3c47.4-8.2,91.6,32.5,86.6,80.3c-2.7,25.3-16.1,44.3-37.9,57.4
		c-3.1,1.9-4.3,3.8-4.3,7.4c0.2,25.1,0.2,50.3,0.1,75.5c-0.1,21.2-14.5,39-35.1,43.4c-2.7,0.6-5.6,0.7-8.4,0.7
		C348,557.7,327,557.7,306,557.7C306,557.7,306,557.7,306,557.7z M391.4,472.5c0-2.2,0-4.2,0-6.1c0-12.5,0-25,0-37.5
		c0-8.1,1.7-10.5,9.2-13.5c27.9-11.3,40.5-40.4,30.2-69.3c-9.5-26.3-38.9-39.9-66.7-30.8c-8.6,2.8-12.2,1.3-16.6-6.8
		c-9.5-17.3-23.9-27-43.7-27.9c-21.2-1-37.4,7.5-48.6,25.6c-4.5,7.3-7,8.3-15.7,7c-15.9-2.4-30.4,1.1-43.1,11.2
		c-26.9,21.5-27.2,74.2,14.5,90.8c8.2,3.3,9.6,5.5,9.6,14.3c0,12.5,0,25,0,37.5c0,1.8,0,3.5,0,5.5
		C277.7,472.5,334.3,472.5,391.4,472.5z M390.7,493.7c-1.9,0-3.8,0-5.8,0c-38,0-75.9,0-113.9,0c-15.3,0-30.6,0-46,0
		c-2.1,0-4.6-0.6-4.5,2.9c0.1,7.8-0.3,15.7,0.5,23.5c0.8,8.2,5.7,13.8,13.9,15.7c4,0.9,8.2,1,12.4,1c40.8,0.1,81.6,0.1,122.4,0
		c11.2,0,19.5-5.1,20.8-14.7C391.7,513,390.7,503.6,390.7,493.7z"/>
</g>
</svg>
