<?xml version="1.0" encoding="utf-8"?>
<!-- Generator: Adobe Illustrator 19.0.0, SVG Export Plug-In . SVG Version: 6.00 Build 0)  -->
<svg version="1.1" id="Calque_1" xmlns="http://www.w3.org/2000/svg" xmlns:xlink="http://www.w3.org/1999/xlink" x="0px" y="0px"
	 viewBox="0 0 612 792" style="enable-background:new 0 0 612 792;" xml:space="preserve">
<style type="text/css">
	.st0{fill:#010101;}
	.st1{fill:#1F1F1F;}
	.st2{fill:#4F4F4F;}
	.st3{fill:#1E1E1E;}
	.st4{fill:#020202;}
</style>
<g>
	<path class="st0" d="M186,114.6c2.1,2.2,1.5,4.3-0.2,6.6c-2.6,3.6-5.2,7.3-7.5,11.2c-4.8,8.3-4.2,16.2,2.1,23.5
		c2.9,3.4,6.1,6.6,9.2,9.9c14.9,15.2,14.4,34.8-1.2,49.4c-1.8,1.7-3.6,2.6-5.6,0.7c-2.2-2.1-0.8-3.8,0.9-5.5
		c0.8-0.8,1.5-1.8,2.2-2.7c11.5-16.6,10.9-24.6-3.5-38.8c-6.8-6.7-12.5-13.9-13.4-23.8c-1.2-12.7,4.6-22.4,14-30.3
		C184,114.6,185,114.6,186,114.6z"/>
	<path class="st1" d="M351,626.6c0.8-1.1,2-1,3.2-1c18.6,0,37.3,0.1,55.9,0.1c0.2,0.2,0.3,0.4,0.2,0.6c-0.1,0.2-0.2,0.3-0.3,0.3
		C390.3,626.6,370.7,626.6,351,626.6z"/>
	<path class="st2" d="M410,626.6c0-0.3,0-0.6,0.1-0.9c16.6-0.1,33.2-0.2,49.9-0.1c1.7,0,3.7-1,5,1
		C446.7,626.6,428.3,626.6,410,626.6z"/>
	<path class="st3" d="M201,626.6c0.6-1,1.6-1,2.6-1c13.2,0,26.5,0.1,39.7,0.1c1,0,2,0.1,2.7,1C231,626.6,216,626.6,201,626.6z"/>
	<path class="st4" d="M148.1,334.6c-3-0.5-3.9-2.1-2.7-4.3c0.9-1.7,2.2-3.3,3.5-4.8c3.8-4.3,7-8.9,9.6-13.9c7.2-13.8,5.9-26.9-4-39
		c-3.8-4.7-8.4-8.5-12.8-12.6c-20-18.6-21.6-43.5-4.1-64.5c1.8-2.2,3.6-4.3,5.6-6.4c1.9-2,4.1-3,6.5-0.6c2.4,2.5,0.4,4.2-1.4,5.8
		c-5.8,5.2-9.9,11.7-13.1,18.6c-5.2,11.3-3.8,21.9,3.2,32.1c4.3,6.3,10,11.2,15.3,16.4c9.8,9.7,16.7,20.9,16.2,35.2
		c-0.6,15.3-8.3,27-19.5,36.8C149.7,334.1,148.7,334.4,148.1,334.6z"/>
	<path class="st0" d="M548.8,353.2c-7.3-2.1-15-2.9-22.3-1.9c-13,1.8-20-3.3-26.2-14.9c-23.5-43.9-59.7-74.7-103.9-96.8
		c-2.8-1.4-5.7-2.8-8.4-4.4c-3.4-2-4.1-4.7-1.6-7.9c0.9-1.2,1.9-2.3,2.9-3.4c8.2-9.1,8.9-23.4,1.7-33.7c-7-10-21.2-14.3-32.5-9.5
		c-11.1,4.7-19.9,19.1-15.7,29.6c0.5,1.3,0.5,3,0.6,4.4c0,3.4-1.5,5.4-5.2,5c-1.7-0.2-3.3-0.3-5-0.6c-34.2-6.1-68.2-5.5-102,3.4
		c-19.6,5.2-37.7,13.8-55.6,23c-2.1,1.1-3.5,2.6-3.3,5.1c0.2,2.5,1.9,3.8,4.1,4.4c2.4,0.7,4.8,1.2,7.2,2
		c34.5,10.8,69.1,21.6,103.6,32.6c59.8,19,120,37,179.5,56.9c1.6,0.5,3.4,0.7,4.9,2.3c-4.3,2.4-8.6,2.4-12.9,2.4
		c-89.8,0-179.7,0-269.5,0.1c-21.3,0-42.7-1.1-64,0.3c-18.1,1.1-33.7,16.1-36.3,34.4c-2.7,18.9,8.1,36.6,26.1,42.8
		c8.7,3,17.7,3,26.7,2.7c15.4-0.5,17.2,1,17,16.6c-0.5,43.3-0.3,86.7,0,130c0.2,22.3,14.3,40.9,35.6,47c1.1,0.3,2.8-0.2,3.4,1.5
		c1,0,2,0,3,0c8.2-1.1,16.5-0.4,24.7-0.4c6.8,0,13.5-0.7,20.3,0.4c35,0,70,0,105,0c1.7-1,3.6-0.5,5.4-0.5c17.9,0,35.8,0,53.7,0
		c16.7,0,33.4,0,50.1,0c1.6,0,3.3-0.4,4.8,0.5c1,0,2,0,3,0c0.4-0.3,0.7-0.8,1.1-0.8c16.8-1.7,27.6-11.2,34-26.3
		c4.3-10.2,5.2-20.8,5.2-31.8c-0.2-41.5-0.2-83-0.2-124.5c0-10,2.5-12.2,12.6-11.8c6.2,0.2,12.4,0.4,18.5-0.1
		c20.9-1.5,36-15.6,37.9-35.1C578.8,376,567.5,358.6,548.8,353.2z M369.4,185.9c11,0.2,19.6,9.2,19.6,20.4c0,11.1-9.4,21-19.9,20.9
		c-10.3-0.1-20-10.2-20.1-20.9C348.9,195.4,358.7,185.7,369.4,185.9z M185.9,250.2c96.8-61.4,256.9-18.2,311.4,98.1
		C393,315.5,289.5,282.9,185.9,250.2z M152.9,423.8c-14.2,2.2-28.4,2.6-41.4-4.5c-12.4-6.8-16.8-18.3-15.3-31.7
		c1.6-14,10.1-23.4,23.3-27.8c9-3,18.6-3.5,28.2-3.1c5,0.2,8.3,2.8,9.6,7.9c1.4,5.9,1.3,11.9,1.8,20.7c0.6,7.8-2,18.6,0.5,29.3
		C160.5,419.2,157.8,423,152.9,423.8z M500.2,578.6c-3,25.5-21.2,41.9-46.9,41.8c-79.8-0.2-159.7-0.4-239.5-0.7
		c-5.2,0-10.3-0.4-15.4-1.6c-19.4-4.4-31-18.2-32.4-39.1c-1.6-23.6-0.5-47.3-0.7-71c-0.2-45-0.2-90-0.3-135c0-2.7,0-5.3,0.7-7.9
		c1-3.8,3.2-6.2,7.1-6.7c2.6-0.4,5.3-0.7,7.9-0.7c50.8,0,101.7,0,152.5,0c0,0,0,0,0-0.1c50.5,0,101,0,151.5,0c0.2,0,0.3,0,0.5,0
		c13.4,0,16.2,2.7,16.2,16c-0.1,54.8-0.1,109.7-0.2,164.5C501.2,551.6,501.8,565.1,500.2,578.6z M544.2,423.7
		c-6.8,1.5-13.7,3-20.7,2.9c-7.7-0.1-11.7-3.2-13.5-10.7c-2.4-10-1.8-20.2-2-30.3c0-6.3-0.1-12.7,0-19c0.1-5.7,3.2-9.3,8.6-8.8
		c8.5,0.7,16.9-0.7,25.4,0.7c15.4,2.6,27.6,15.9,28.1,31.1C570.7,406.9,560.6,420.1,544.2,423.7z"/>
</g>
</svg>
