<?xml version="1.0" encoding="utf-8"?>
<!-- Generator: Adobe Illustrator 19.0.0, SVG Export Plug-In . SVG Version: 6.00 Build 0)  -->
<svg version="1.1" id="Calque_1" xmlns="http://www.w3.org/2000/svg" xmlns:xlink="http://www.w3.org/1999/xlink" x="0px" y="0px"
	 viewBox="0 0 612 792" style="enable-background:new 0 0 612 792;" xml:space="preserve">
<style type="text/css">
	.st0{fill:#505050;}
	.st1{fill:#FDDF00;}
	.st2{fill:#FDA700;}
	.st3{fill:#FDFDFD;}
	.st4{fill:#FBCB00;}
	.st5{fill:#FCFCFC;}
	.st6{fill:#FCA700;}
	.st7{fill:#FCA600;}
	.st8{fill:#FDDF01;}
	.st9{fill:#FAFAFA;}
	.st10{fill:#010100;}
	.st11{fill:#00D86B;}
	.st12{fill:#62D1FB;}
	.st13{fill:#3DB7F7;}
</style>
<g>
	<path d="M361,136c36,0,72,0,108,0c6.5,2.3,8.1,5.1,6.9,12.2c-1.4,7.9-2.8,15.8-4.7,23.5c-0.9,3.8-0.1,5.7,4,6.8
		c15.8,4.3,25.7,16.6,27.1,32.8c1.1,13-7.4,26.9-21,33.6c-3.5,1.7-4.9,3.8-4.9,7.7c0.1,31.3,0.1,62.7,0,94c0,3.7,1.1,6,4.7,7.8
		c36.3,17.4,61.9,44.9,77.7,81.8c6,14.1,9.4,28.7,10.3,43.9c0,10,0,20,0,30c-1.1,14.5-4,28.6-9.8,41.9
		c-21.5,49.8-58.6,81.3-111.5,94c-6.1,1.5-12.5,1-18.7,2.1c-9.7,0-19.3,0-29,0c-7.7-1.1-15.4-1.6-23-3.6
		c-24.6-6.5-46.4-18-65.2-35.1c-4.2-3.8-8.3-7.6-12.4-12.9c0.1,13-1.7,24.6-8.8,34.5c-7.2,10-16.9,16.2-29.5,17.1
		c-51.3,0-102.7,0-154,0c-17.9-2.7-28.5-13.8-34.2-30.3c-1.5-4.5-1.9-9.2-2.2-13.8c-1.2-22.9-2.8-45.8-4.3-68.7
		c-1.9-28-3.7-56.1-5.6-84.1c-1.3-18.2-2.6-36.5-2.9-54.8c-0.1-4.7,0.2-9.6-0.9-14.3c0-1.3,0-2.7,0-4c0.8-5,0.8-10,0-15c0-1,0-2,0-3
		c0.8-12.8,4.3-24.9,10.5-36c16.8-30.1,42.3-47.8,76.6-52.2c4.4-0.6,5.6-2.1,5.6-6.2c0-4.7-0.2-8.7-5.1-11.4c-3-1.7-3.9-5.3-3.9-8.8
		c-0.1-22.2-0.6-44.3,0.2-66.5c0.6-16.8,12.3-27.2,29-27.3c10-0.1,20,0,30,0c17.2,0.1,29,10.8,29.4,27.9c0.6,21.8,0.2,43.6,0.1,65.5
		c0,4.4-1.7,8-5.6,10.6c-3.1,2-4.8,11.5-2.8,14.5c1.1,1.7,2.9,1.4,4.5,1.6c19.7,2.2,37.4,9.5,52.6,22.4
		c20.4,17.4,32.6,39.2,35.5,66.1c0.6,5.3,1.1,10.5,0.8,16.5c7.3-5.3,14-10.5,21.2-14.9c4.6-2.8,9.2-5.5,14.1-7.5
		c3.8-1.6,5.1-4.1,5.1-8.1c-0.1-21.8-0.1-43.7-0.1-65.5c0-9.3-0.1-18.7,0-28c0.1-3.9-1.4-6-5-7.6c-13.8-6.3-22.1-20.4-21-35
		c1.1-14.5,11.5-27.1,26.1-31.4c5.6-1.7,5.6-1.7,4.5-7.2c-1.4-7.7-3.4-15.3-4.5-23.1C353.8,141.3,355.4,138.3,361,136z"/>
	<path class="st0" d="M57,363c1.6,5,1.6,10,0,15C57,373,57,368,57,363z"/>
	<path class="st1" d="M454,625c-22.2,7.3-44.8,7.6-67.5,2.8c-53.6-11.4-96-55.4-105.4-109.3c-11.1-63.8,23.4-126.1,83.6-150.7
		c6.7-2.7,8.1-4.8,8.1-12c0-34.7,0.1-69.3-0.1-104c0-3.7,0.7-5,4.8-5c21.2,0.3,42.3,0.2,63.5,0.3c2,2.3,1.4,5.1,1.4,7.7
		c0,32,0.1,63.9-0.1,95.9c0,5,1.5,7.6,6.2,9.8c51,24.1,80.8,64,86.8,120.3c4.4,41.6-8.4,78.1-35.4,109.8
		C487.2,605.6,472.1,617.4,454,625z"/>
	<path class="st1" d="M136.8,292c3.6-1.4,7.4-2,11.2-2c24.5-0.1,49-0.8,73.4,0.1c37,1.4,70,33.9,73.6,70.8
		c1.3,12.7-0.8,25.3-1.1,37.9c-0.1,2.3-1.7,3.6-2.8,5.1c-14.9,20.3-24.5,43-28,67.8c-4.7,33.8,0.7,66.1,17.3,96.2
		c1.5,2.7,2.1,5.3,1.8,8.5c-0.9,10.6-1.3,21.3-2.3,31.9c-1.2,12.4-11.6,22.4-24.1,22.5c-46.3,0.2-92.6,0-138.9-0.1
		c-2.5-0.7-4.3-2.4-5.7-4.6c-4.2-6.4-6.5-13.3-6.9-21.1c-1.1-18.3-2.3-36.5-3.6-54.8c-0.8-11.8-1.6-23.6-2.3-35.4
		c-0.8-13.8-1.9-27.5-2.7-41.3c-0.7-12.3-1.6-24.6-2.4-36.9c-0.8-12.9-1.8-25.9-2.6-38.8C90,383,88,367.9,91.2,352.8
		c4.8-23.3,17-41.7,35.9-55.9C130,294.7,133.6,293.6,136.8,292z"/>
	<path class="st2" d="M454,625c8.4-5.3,17.1-10.2,25-16.3c21.1-16.4,36.1-37.2,46-61.9c7.6-18.9,10.9-38.7,9.9-58.9
		c-1.5-29.7-11.2-56.8-29.2-80.6c-15.9-21.1-36.2-36.8-60.8-46.8c-3.1-1.3-4-3.1-4-6.4c0.1-35.6,0.1-71.3,0.1-106.9
		c5.5,0,12.4-2,16,0.7c3.4,2.5,1,9.9,1,15.2c0.1,31.1,0.1,62.3,0,93.4c0,5.6,2.2,8.9,7.3,11.1c48.3,20.5,77.4,56.8,85.2,108.5
		c9.8,65.3-30.3,128.6-95,148.8C455,625.1,454.5,625,454,625z"/>
	<path class="st3" d="M136.8,292c-9.4,6-18.3,12.7-25.4,21.5c-16.5,20.2-22.2,43.4-20.1,69.1c1.9,22.7,3.2,45.5,4.7,68.3
		c1.9,28.9,3.8,57.8,5.7,86.7c1.4,21.6,3.2,43.2,4.1,64.8c0.5,11,3.6,20.5,11.4,28.4c-14.8,0.7-26.3-8.9-27.4-23.7
		c-2.2-28.6-3.9-57.2-5.8-85.7c-2.5-38.6-5.2-77.1-7.5-115.7c-0.9-15.1-3.1-30.1-1.5-45.4c3.3-31.6,29.5-61.3,60.4-68.2
		C135.8,292,136.3,292,136.8,292z"/>
	<path class="st4" d="M360.7,229.2c-7.4-0.4-14.2-9-13.6-17.6c0.7-8.7,7.7-15.6,16.5-15.7c32.5-0.1,64.9,0.1,97.4,0.2
		c8.4,6.3,9.3,22.8,2.5,31.4c-1.2,1.5-3,2-4.9,2c-32.3,0-64.6,0.1-96.9-0.1C361.3,229.4,361,229.3,360.7,229.2z"/>
	<path class="st1" d="M178,170.3c7.8-0.1,15.6-0.2,23.5-0.1c5.7,0.1,9.1,3.3,9.1,9c0.1,18.6,0,37.3,0.1,55.9c0,2.5-1,3-3.3,3
		c-10.5-0.1-21-0.2-31.4-0.2c-1.8-1.9-1.6-4.3-1.6-6.6c0-17.1-0.1-34.2,0-51.2C174.4,176.4,174.4,172.6,178,170.3z"/>
	<path class="st1" d="M434,178.1c-17.1,0.1-34.3,0.2-51.4,0.3c-2.2,0-3.2-0.7-3.6-3c-1.1-6.4-2.5-12.7-3.8-19.1
		c-0.4-2-0.6-3.4,2.4-3.4c20.5,0.2,40.9,0.2,61.4,0.2c0.2,0.2,0.6,0.5,0.6,0.8C439.2,162.4,438.5,170.6,434,178.1z"/>
	<path class="st5" d="M178,170.3c-1.6,3.4-2.1,6.9-2.1,10.7c0.1,19,0.1,38,0.1,57c-4.5,0.1-9,0-13.5,0.3c-2.8,0.2-3.2-1-3.2-3.5
		c0.1-18.2,0-36.3,0.1-54.5c0-6.9,3.3-10,10.2-10.1C172.4,170.1,175.2,170.2,178,170.3z"/>
	<path class="st6" d="M360.7,229.2c31.3-0.1,62.6-0.1,93.9-0.2c7.1,0,7.9-0.7,10.4-7.4c3.5-9.3,0.5-17.5-4-25.5
		c12.6-1.1,20.1,3.5,22.2,13.3c2.1,10-5.1,20.2-15.3,20.3c-35.1,0.3-70.2,0.1-105.4,0.1C361.9,229.8,361.3,229.4,360.7,229.2z"/>
	<path class="st7" d="M434,178.1c1.9-8.2,3.8-16.5,4.9-24.9c4.7-0.1,9.3-0.1,14-0.2c2.2-0.1,3.4,0.2,2.8,3c-1.5,6.3-2.6,12.7-3.8,19
		c-0.4,2.3-1.3,3.5-3.9,3.4C443.3,178.1,438.7,178.2,434,178.1z"/>
	<path class="st8" d="M176.1,256c7.7-0.1,15.3-0.1,23-0.3c2,0,2.8,0.4,3,2.7c1.1,13.7,1.2,13.7-12.5,13.7c-4.5,0-9-0.1-13.5-0.2
		C173.5,266.7,173.5,261.4,176.1,256z"/>
	<path class="st9" d="M176.1,256c0,5.3,0,10.6,0,15.9c-8.2,0.6-8.2,0.6-8.1-7.5c0-0.3,0-0.7,0-1C168,255.4,168,255.4,176.1,256z"/>
	<path d="M424,514.2c13.9-15.9,30.2-24.9,50-27.8c16-2.3,20.2,1.8,17.6,17.8c-5.8,35.5-28.8,59.1-64.3,65.8
		c-2.8,0.5-3.4,1.7-3.3,4.3c0.1,7,0.1,14,0,21c-0.1,6.3-3.4,9.9-8.8,9.8c-5.2-0.1-8.2-3.5-8.2-9.8c0-7-0.2-14,0.1-21
		c0.1-3.1-1.1-3.9-3.9-4.4c-33.8-5.8-58.8-31.3-63.9-65.2c-0.5-3.1-0.5-6.3-0.6-9.5c0-6.3,3.2-9.6,9.5-9.5c21.8,0.4,40,8.8,55,24.3
		c1,1,1.6,2.5,3.6,3c0-8.6,0-17,0-25.4c0-2.2-1.1-2.6-3-2.9c-34.7-6.4-58.1-29.7-64.4-64.1c-0.6-3.4-0.8-7-0.8-10.4
		c-0.1-6.7,3-9.8,9.7-9.7c20,0.3,37.2,7.6,51.8,21.3c6.1,5.7,10.8,12.6,15.1,19.9c12.6-22.3,31.1-35.9,56.2-40.3
		c3.8-0.7,7.6-0.8,11.4-0.8c6,0,9,3.2,9.1,9.4c0.4,32.8-23.3,63.8-55.6,72.9c-1.1,0.3-2.2,0.6-3.4,0.9c-9.1,2.1-9.1,2.1-9.1,11.7
		C424,501.4,424,507.2,424,514.2z"/>
	<path d="M244.8,420.2c-0.6,21.8-5.8,44.9-22.2,64.1c-21.6,25.1-54.5,24.9-75.6-0.6c-18-21.8-23-47.5-21.2-75
		c1.3-20.2,6.9-38.9,19.5-55.1c21.9-28.2,57-28.4,79.2-0.5C237.4,369.3,244.8,392.6,244.8,420.2z"/>
	<path class="st10" d="M185,571.1c-16.5,0-33,0-49.5,0c-6.3,0-10.2-3.2-10.3-8.3c-0.1-5.3,4-8.7,10.5-8.7c33,0,66,0,99,0
		c4.7,0,8.1,1.6,9.6,6.3c1.2,3.8-0.2,6.8-3.2,9.3c-1.9,1.6-4.3,1.6-6.7,1.6C218,571.1,201.5,571.1,185,571.1z"/>
	<path d="M185,537c-16.5,0-33,0-49.5,0c-6.3,0-10.2-3.3-10.3-8.4c-0.1-5.2,4-8.7,10.5-8.7c32.8,0,65.6,0,98.5,0
		c6.6,0,10.7,3.4,10.6,8.6c-0.1,5.2-4.1,8.4-10.8,8.4C217.7,537,201.3,537,185,537z"/>
	<path class="st11" d="M474,506.2c-5,23.7-23.4,41.8-46.2,46.7c-2.3,0.5-2.9-0.3-2.6-2.6c2.6-20.3,25.9-43.6,46.1-46.1
		C473.7,503.8,474.4,504.6,474,506.2z"/>
	<path class="st11" d="M425.3,464.1c4.8-23,23.9-40.6,45.7-45.2c2.5-0.5,3.2,0.1,2.8,2.7c-3.2,20.9-24.9,42.5-46.2,45.9
		C425.1,468,424.7,467.2,425.3,464.1z"/>
	<path class="st11" d="M360.2,419c9.2,2.1,17.8,6.3,25.3,12.6c10.3,8.7,16.8,19.6,19.9,32.7c0.7,2.8,0.8,4-2.8,3.1
		c-23.8-6.1-38.7-21-45.3-44.5C356.2,419.3,356.8,418.7,360.2,419z"/>
	<path class="st11" d="M403.2,552.9c-20.3-4.9-34.8-16.7-43.1-36c-1.4-3.2-2.2-6.6-3.1-10c-0.7-2.5,0.3-3.2,2.9-2.8
		c20.9,3.5,42.1,24.8,45.7,46C406,552.5,405.7,553.4,403.2,552.9z"/>
	<path class="st12" d="M180.7,485.2c-7-0.7-12.5-4.4-17.3-9.1c-11.8-11.7-17.3-26.6-19.8-42.7c-3.1-19.5-0.9-38.5,7.4-56.5
		c4-8.7,9.4-16.5,17.5-22c4-2.8,8.2-5,13.3-5c3-0.9,4.6,1.3,6.4,2.9c12.8,12.1,18.8,27.6,21.8,44.4c3.2,17.4,2.3,34.7-2.6,51.7
		c-3.6,12.6-9.9,23.5-18.4,33.3C186.8,484.8,184.2,486.2,180.7,485.2z"/>
	<path class="st13" d="M180.7,485.2c7.2,0,9.6-6.3,12.8-10.7c10.8-14.7,15.5-31.5,16.6-49.7c1-16.4-1.1-32.3-7.2-47.5
		c-3.9-9.9-9.6-18.5-17.7-25.6c-1-0.9-2.1-1.6-3.4-1.9c9.7-1.7,17.5,2.5,24.2,8.8c10.8,10.2,16.3,23.3,19.2,37.5
		c4.5,21.3,2.8,41.9-6.3,61.8c-4.3,9.5-10.2,17.9-19.4,23.4C193.8,484.9,187.6,487.1,180.7,485.2z"/>
</g>
</svg>
