<?xml version="1.0" encoding="utf-8"?>
<!-- Generator: Adobe Illustrator 19.0.0, SVG Export Plug-In . SVG Version: 6.00 Build 0)  -->
<svg version="1.1" id="Calque_1" xmlns="http://www.w3.org/2000/svg" xmlns:xlink="http://www.w3.org/1999/xlink" x="0px" y="0px"
	 viewBox="0 0 612 792" style="enable-background:new 0 0 612 792;" xml:space="preserve">
<style type="text/css">
	.st0{fill:#DD8E45;}
	.st1{fill:#F4E8B8;}
</style>
<g>
	<path class="st0" d="M282.6,329.2c-28.5-0.1-50.9-22.6-50.9-51.1c0-28.6,22.8-51.2,51.5-51.1c28.1,0.1,50.8,23.1,50.8,51.5
		C333.9,306.7,311.1,329.3,282.6,329.2z"/>
	<path class="st0" d="M343.3,208.9c3.5,0.4,6.2,1.5,7.7,4.5c1.5,3,1.5,6-0.7,8.4c-4.4,4.8-8.9,9.5-13.7,13.7c-3,2.6-6.9,2.5-10-0.3
		c-3.2-2.8-3.9-6.6-1.5-9.9c4.2-5.7,9.6-10.6,15-15.2C340.9,209.4,342.4,209.3,343.3,208.9z"/>
	<path class="st0" d="M233.5,319c3.4,0.4,6,1.6,7.5,4.6c1.5,3,1.4,6-0.8,8.4c-4.4,4.7-8.9,9.5-13.8,13.7c-3,2.6-6.9,2.4-10-0.4
		c-3-2.7-3.8-6.4-1.6-9.5c4.3-6.1,9.8-11.2,15.7-15.8C231.3,319.3,232.6,319.2,233.5,319z"/>
	<path class="st0" d="M274.8,356c0-2.8-0.1-5.7,0-8.5c0.2-4.7,3.4-8.1,7.6-8.3c4-0.2,8.1,3.2,8.3,7.7c0.3,6.1,0.3,12.3,0,18.5
		c-0.2,4.2-4.2,7.4-8.1,7.3c-4.2-0.1-7.5-3.5-7.7-8.2C274.8,361.7,274.9,358.9,274.8,356C274.9,356,274.9,356,274.8,356z"/>
	<path class="st0" d="M204.7,286.1c-2.8,0-5.7,0.1-8.5,0c-4.4-0.2-7.7-3.3-8-7.4c-0.3-4,2.8-8.2,7-8.4c6.5-0.4,13-0.4,19.5,0
		c4.2,0.3,7.2,4.5,7,8.4c-0.2,4-3.6,7.2-8,7.4C210.7,286.2,207.7,286.1,204.7,286.1C204.7,286.1,204.7,286.1,204.7,286.1z"/>
	<path class="st0" d="M274.9,199.9c0-2.7-0.1-5.3,0-8c0.2-4.7,2.9-7.7,7.1-8c4.6-0.3,8.4,2.4,8.7,7c0.4,6.3,0.4,12.6,0,18.9
		c-0.3,4.4-4,7.3-8.2,7.1c-4.2-0.2-7.4-3.2-7.7-7.7C274.7,206.2,274.9,203,274.9,199.9C274.9,199.9,274.9,199.9,274.9,199.9z"/>
	<path class="st0" d="M360.5,286.1c-2.8,0-5.7,0.1-8.5,0c-4.8-0.2-7.9-3.3-8-7.7c-0.1-4.3,3.1-7.9,7.7-8.2c6-0.3,12-0.2,17.9,0
		c4.6,0.2,7.6,3.9,7.5,8.3c-0.1,4.3-3.1,7.3-7.6,7.6C366.5,286.2,363.5,286.1,360.5,286.1C360.5,286.1,360.5,286.1,360.5,286.1z"/>
	<path class="st0" d="M242,228.7c-0.2,3.6-1.5,6-4.2,7.4c-2.6,1.5-5.7,1.8-8-0.1c-5.5-4.5-10.8-9.4-15-15.2c-2.2-3-1.5-6.8,1.4-9.5
		c2.7-2.6,6.1-3.5,9.1-1.2c5.8,4.4,10.8,9.8,15.5,15.3C241.6,226.4,241.7,227.9,242,228.7z"/>
	<path class="st0" d="M331.4,319.1c5.1,0.2,20.5,15.4,20.6,20c0.1,3.3-1.4,5.8-4.3,7.3c-3.1,1.5-6.3,1.4-8.8-1
		c-4.5-4.2-8.8-8.6-13-13c-2.4-2.6-2.5-5.7-1.1-8.8C326,320.5,328.6,319.2,331.4,319.1z"/>
	<path class="st0" d="M513.2,536.9c-5.5-3.1-11.1-6-16.7-9c-14.8-7.9-29.9-8.4-45-0.8c-10.1,5.1-20.1,5.2-30.1,0
		c-6.9-3.6-14.3-5.7-22.1-5.2c-3.8,0.2-4.8-0.9-4.7-4.6c0.2-25.3,0.2-50.6,0-76c0-3.6,1.2-4.1,4.3-4.1c17.6,0.1,35.3,0,52.9,0
		c0,0.1,0,0.2,0,0.3c10.6,0,21.3,0,31.9,0c8.1,0,16.3,0.1,24.4-0.4c4.8-0.3,7.3-3.4,7.2-7.9c0-4.3-2.8-7.4-7.4-7.9
		c-3-0.3-6-0.2-9-0.2c-31.5,0-63,0-94.5,0c-9.3,0-9.3-0.1-9.9-9.1c-0.1-1-0.1-2-0.2-3c-1.5-15.9-9.7-27.2-24.6-32.8
		c-14.9-5.6-28.6-2.6-40.1,8.4c-9.1,8.6-12.3,19.5-11.5,31.8c0.3,3.8-1,4.8-4.7,4.7c-15.8-0.2-31.7-0.1-47.5-0.1
		c-9.6,0-9.6-0.1-9.8-9.7c-0.2-15.6-9.3-29-23.9-34.9c-14.1-5.8-30.1-2.5-41.1,8.3c-8.8,8.7-12.1,19.3-11.2,31.3
		c0.3,3.9-1,5.2-5,5.1c-10-0.3-20-0.2-30,0c-5.3,0.1-8.3,3.3-8.2,8.1c0,4.8,3.1,7.8,8.3,8c6.7,0.2,13.3,0.2,20,0.2
		c23.5-0.1,46.9-0.1,70.4-0.4c3.6,0,4.8,0.8,4.8,4.7c-0.2,23.7-0.3,47.3,0.1,71c0.1,6.9-0.9,11-8.4,14c-11.3,4.6-21.6,5.4-32.5-0.3
		c-9.3-4.9-19.3-5.8-29.6-3.9c-11.4,2.1-20.7,9-30.7,14.1c-4.9,2.5-6.3,7.2-4.1,11.2c2.3,4.1,6.8,5.2,11.8,2.7
		c5.6-2.9,11.2-5.9,16.7-8.9c9.6-5.2,19.5-5.6,29.2-0.7c15.4,7.8,30.6,7.7,45.9-0.1c9.2-4.7,18.7-4.5,27.9,0.1
		c15.2,7.8,30.2,7.6,45.5-0.1c9.2-4.6,18.6-4.7,27.9,0c15.2,7.7,30.2,8,45.5,0.2c9.3-4.8,19-4.9,28.3-0.1c15.2,7.8,30.3,7.7,45.5,0
		c9.8-4.9,19.6-4.6,29.2,0.5c5.7,3,11.4,6.2,17.2,9.1c4.9,2.5,9.3,1.2,11.6-3.1C519.2,543.7,517.8,539.6,513.2,536.9z M230,421.3
		c-4,0-8,0-12,0c0,0,0,0,0-0.1c-6.2,0-12.3,0-18.5,0c-1.6,0-3.5,0.5-3.7-2.1c-0.9-12.1,1.3-24,16.7-28.5
		c13.1-3.8,26.9,6.3,27.5,19.9C240.6,421.3,240.6,421.3,230,421.3z M351.1,390.6c12.8-3.3,25.8,5.9,27.1,19
		c1.2,11.8,1.2,11.8-10.4,11.8c-4,0-8,0-12,0c0,0,0,0,0,0c-6,0-12-0.2-18,0.1c-3.2,0.1-3.9-1-3.9-4
		C333.7,402.5,339.3,393.6,351.1,390.6z M256,442.7c-0.3-5,2.4-5.3,6-5.3c15.7,0,31.3,0,47,0c21.5,0,43,0.1,64.5-0.1
		c4.2,0,5.3,1.1,5,5.3c-0.5,7.8-0.4,15.6,0,23.4c0.2,3.5-0.8,4.2-4,4.1c-19-0.1-38-0.1-57-0.1c0,0,0,0,0,0
		c-18.8,0-37.7-0.1-56.5,0.1c-4,0-5.1-1.2-4.9-5.1C256.4,457.7,256.5,450.1,256,442.7z M378.7,490.8c-0.3,10.8-0.4,21.6-0.4,32.5
		c0,3.1-1.3,4.4-3.9,5.5c-8.9,3.5-17.6,3-26.1-1.3c-15-7.6-30-7.5-45,0.1c-9.4,4.8-18.9,4.7-28.3-0.1c-5.1-2.6-10.4-4.5-16-5.3
		c-2.4-0.3-3-1.3-2.9-3.5c0.1-9.7,0.2-19.3,0-29c-0.1-3.5,1.7-3.6,4.3-3.6c19,0.1,38,0,57,0c0,0,0,0,0,0c18.8,0,37.7,0.1,56.5-0.1
		C377.6,486,378.8,487,378.7,490.8z"/>
	<path class="st1" d="M282.4,313.2c-19.6-0.1-34.7-15.4-34.6-35C248,258,263.2,243,283.4,243c19,0,34.7,16.1,34.6,35.4
		C317.9,297.9,302.3,313.2,282.4,313.2z"/>
</g>
</svg>
