<?xml version="1.0" encoding="utf-8"?>
<!-- Generator: Adobe Illustrator 19.0.0, SVG Export Plug-In . SVG Version: 6.00 Build 0)  -->
<svg version="1.1" id="Calque_1" xmlns="http://www.w3.org/2000/svg" xmlns:xlink="http://www.w3.org/1999/xlink" x="0px" y="0px"
	 viewBox="0 0 612 792" style="enable-background:new 0 0 612 792;" xml:space="preserve">
<style type="text/css">
	.st0{fill:#FDFDFD;}
	.st1{fill:#0095E4;}
</style>
<g>
	<path class="st0" d="M234,336c0,28.2-0.1,56.3,0.1,84.5c0,3.9-1.2,4.6-4.8,4.6c-19.7-0.2-39.3-0.2-59,0c-3.5,0-4.5-0.8-4.4-4.4
		c0.1-56.8,0.1-113.6,0-170.5c0-3.6,1.1-4.3,4.5-4.3c19.5,0.2,39,0.2,58.5,0c4.1,0,5.3,0.9,5.2,5.1C233.9,279.3,234,307.7,234,336z"
		/>
	<path class="st0" d="M353.5,518.8c-32.1,0-64.3-0.1-96.4,0.1c-4.2,0-5.8-0.7-5.7-5.4c0.2-11.8-0.1-11.8,11.6-11.8
		c62.3,0,124.5,0,186.8-0.1c4.7,0,6.6,0.7,6.4,6.1c-0.5,11-0.2,11-11.3,11.1C414.4,518.8,383.9,518.8,353.5,518.8z"/>
	<path class="st1" d="M564.3,200.5c-11.1-21-35-31.1-57.6-21.5c-5.7,2.4-10.5,6.2-15.1,10.4c-6.8,6.3-16.1,4.1-19.5-4.3
		c-2.8-7-6.8-13.3-12-18.8c-8.4-9-18.8-13.8-31.1-14.3c-78.7,0-157.3,0-236,0c-7.8,1.2-15.6,2-22.4,6.9
		c-9.3,6.7-16.4,15.1-20.4,25.8c-3,8-4,8-12.6,7.9c-3.7,0-6.1-2.1-8.6-4.4c-17.1-16-41.3-17-58.6-3c-8.9,7.2-14.6,16.1-15.3,27.8
		c0,4.3,0,8.7,0,13c0.7,10.4,4.5,19,12.2,26.3c17.3,16.5,41.7,17.4,59.6,1.6c1.1-1,2.2-2.1,3.4-3c4.1-3,8.8-3.5,13.3-1.6
		c4,1.7,2.8,6,3,9.3c0.1,2.2,0,4.3,0,6.5c0,79.8,0,159.7,0,239.5c0,3,0,6,0,9c0.1,13.1,2.7,15.6,15.9,15.7c16.2,0,32.3,0,48.5,0
		c4,0,8,0,12,0c7.1,0.1,8.5,1.4,8.5,8.6c0.1,12.3-0.1,24.7,0.1,37c0.1,8.3,0.8,9.3,8.4,12c75.7,0,151.3,0,227,0
		c7.9-2.5,8.3-3,8.4-11.7c0-2.8,0-5.7,0-8.5c0-101.6,0-203.1,0-304.7c0-2.5,0-5,0.1-7.5c0.2-4,2.4-5.9,6.4-6.2
		c5.2-0.4,9.2,1.7,13,5.1c14.2,12.9,32.6,15.5,49,6.6c13.4-7.3,22.5-18,23.1-34.2c0-4,0-8,0-12C565.8,209.6,566.4,204.6,564.3,200.5
		z M167.8,191.2c4.2-13.4,16.9-22.1,32.8-22.1c14.9,0,27.7,9.1,31.8,22.1c1,3.3-0.1,3.6-2.9,3.6c-9.8-0.1-19.6,0-29.5,0
		c-9.8,0-19.6-0.1-29.5,0C167.7,194.8,166.8,194.3,167.8,191.2z M230,510.2c-10-0.1-20-0.1-30-0.1c-10.2,0-20.3-0.1-30.5,0.1
		c-2.9,0-3.7-0.9-3.6-3.7c0.2-9,0.2-18,0-27c-0.1-3,1.1-3.5,3.8-3.5c20.2,0.1,40.3,0.1,60.5,0c3.1,0,4,0.9,3.9,3.9
		c-0.2,8.8-0.2,17.7,0,26.5C234.2,509.7,232.9,510.2,230,510.2z M221.7,459c-3.7,0-7.3,0-11,0c-3.5,0-7,0-10.5,0
		c-9.8,0-19.7-0.1-29.5,0.1c-3.5,0.1-4.9-0.5-4.8-4.5c0.2-12.6,0-12.6,12.7-12.5c16.8,0,33.6,0.1,50.5-0.1c3.6,0,5.2,0.6,5.1,4.8
		C233.9,459,234.1,459,221.7,459z M223,228.8c-14.8,0-29.6,0-44.4,0c-15.8,0-31.6,0.2-47.4-0.1c-5.9-0.1-9.9,1.6-13.2,6.8
		c-6.1,9.3-17.6,12.6-28.8,9.1c-10.1-3.2-16.5-11.7-17-22.8c-0.5-11.8,5.2-21.3,15.1-25.2c12.4-4.9,24.5-1.2,31.9,10
		c2.6,4,6,5.3,10.5,5.3c33,0,65.9,0.2,98.9,0c4.6,0,5.9,1.3,5.8,5.8C234,228.9,234.3,228.9,223,228.8z M451.3,570.1
		c-32.7-0.1-65.3-0.1-98-0.1c0,0,0,0,0,0c-32.5,0-65-0.1-97.5,0.1c-3.7,0-4.9-0.8-4.8-4.6c0.3-8.3,0.3-16.7,0-25
		c-0.1-3.9,1.3-4.6,4.9-4.6c43.8,0.1,87.6,0.1,131.5,0.1c21.3,0,42.7,0.1,64-0.1c3.7,0,4.8,0.9,4.7,4.6c-0.3,8.3-0.3,16.7,0,25
		C456.3,569.3,455,570.1,451.3,570.1z M414.5,459c12.5,0.1,25,0.1,37.5-0.1c3.3-0.1,4.3,0.9,4.1,4.2c-0.2,5.7-0.3,11.3,0,17
		c0.2,3.8-1,4.7-4.7,4.7c-26.8-0.2-53.7-0.1-80.5-0.1c-38,0-76-0.1-114,0.1c-4.5,0-6.2-1.1-5.8-5.8c0.5-5.1,0.5-10.3,0.2-15.5
		c-0.2-3.8,1.1-4.7,4.8-4.7c29.2,0.2,58.3,0.1,87.5,0.1c6.2,0,10.2-3.4,10.1-8.6c-0.1-5.2-4-8.4-10.2-8.5c-0.3,0-0.7,0-1,0
		c-28.5,0-57-0.1-85.5,0.1c-4.8,0-6.3-1.5-5.5-5.8c0.7-3.7-2.4-8.5,0.8-10.8c2.5-1.7,7.1-0.5,10.8-0.5c23.2,0,46.3,0,69.5,0
		c1.2,0,2.3,0,3.5,0c5.5-0.3,9-3.6,9-8.6c0-5-3.5-8.4-9.1-8.4c-26.3,0-52.7-0.1-79,0.1c-4.4,0-6-0.8-5.9-5.6
		c0.4-11.5,0.1-11.5,11.4-11.5c20.5,0,41,0,61.5,0c1.2,0,2.3,0,3.5,0c5.5-0.3,9.1-3.8,9.1-8.6c0-4.9-3.7-8.3-9.2-8.4
		c-23.2-0.1-46.3,0-69.5-0.1c-7.5,0-6.6,0.9-6.7-6.7c0-10.4,0-10.4,10.5-10.4c18.2,0,36.3,0,54.5,0c1.2,0,2.3,0.1,3.5,0
		c5.1-0.5,8.5-4.1,8.4-8.8c-0.1-4.8-3.5-8.1-8.8-8.2c-19-0.1-38-0.1-57,0c-11,0-10.7,0-11.1-10.9c-0.2-5.1,1.3-6.4,6.3-6.3
		c15.5,0.4,31,0.2,46.5,0.2c2.2,0,4.3,0.1,6.5-0.1c5.6-0.3,9.1-3.7,9.1-8.6c0-4.9-3.5-8.4-9.2-8.4c-10.5-0.1-21-0.1-31.5-0.1
		c-8,0-16-0.1-24,0.1c-2.8,0.1-3.6-0.9-3.7-3.7c-0.3-13.3-0.4-13.4,13-13.4c12.5,0,25,0.1,37.5,0c5.7-0.1,9.2-3.4,9.3-8.3
		c0.1-5-3.6-8.5-9.5-8.7c-1.8-0.1-3.7-0.1-5.5-0.1c-13.2,0-26.3-0.2-39.5,0.1c-4.6,0.1-5.5-1.3-5.4-5.6c0.3-11.5,0.1-11.5,11.5-11.5
		c10,0,20,0.1,30,0c6,0,9.7-3.2,9.8-8.3c0.1-5.2-3.7-8.8-9.9-8.8c-12.2-0.1-24.3-0.1-36.5,0.1c-3.4,0.1-4.6-0.8-4.6-4.4
		c-0.2-12.8-0.3-12.8,12.2-12.7c7,0,14,0.1,21,0c5.5-0.1,9.3-3.4,9.4-8.2c0.1-5-3.8-8.8-9.4-8.8c-9.7-0.1-19.3,0-29,0
		c-2,0-4.2,0.3-4.3-2.7c-0.5-11.8-5.5-21.7-13.4-31.4c28.8,0,56.5,0,84.1,0c33.2,0,66.3,0,99.5,0c18.4,0,31.3,10.8,34.3,28.5
		c0.7,3.9,0.3,5.8-4.7,5.8c-31.2-0.3-62.3-0.1-93.5-0.1c-1.5,0-3-0.1-4.5,0.1c-4.7,0.6-8.1,4.3-7.9,8.8c0.1,4.5,3.6,8.1,8.4,8.1
		c11.2,0.2,22.3,0.1,33.5,0.1c21.3,0,42.7,0.1,64-0.1c3.7,0,5.2,0.6,5.1,4.8c-0.2,12.3,0,12.3-12.5,12.3c-26,0-52,0-78,0
		c-1.2,0-2.3-0.1-3.5,0c-5.1,0.5-8.4,4-8.3,8.8c0.1,4.9,3.3,8.1,8.8,8.2c17.5,0.1,35,0.1,52.5,0.1c12.3,0,24.7,0.1,37,0
		c2.9,0,4,0.7,4.1,3.8c0.2,13.3,0.4,13.3-13.1,13.3c-22.3,0-44.7,0-67,0c-1.8,0-3.7-0.1-5.5,0.1c-5,0.5-8.5,4.3-8.4,8.9
		c0.2,4.5,3.6,8,8.5,8.1c10.2,0.2,20.3,0.1,30.5,0.1c16.7,0,33.3,0.1,50-0.1c3.4,0,5,0.5,4.9,4.5c-0.1,12.7,0.1,12.6-12.7,12.6
		c-20.7-0.1-41.3,0-62,0c-6.9,0-10.5,3-10.6,8.5c0,5.4,3.7,8.6,10.6,8.6c23.2,0.1,46.3,0.1,69.5-0.1c4.1,0,5.4,1,5.2,5.2
		c-0.3,11.9-0.1,11.9-11.9,12c-18.7,0-37.3,0-56,0c-5.2,0-8.9,3.5-9,8.1c-0.2,4.5,3.4,8.4,8.4,8.9c1.2,0.1,2.3,0.1,3.5,0.1
		c20,0,40,0.1,60-0.1c3.8,0,5.1,0.7,5.1,4.8c-0.2,12.3,0,12.3-12.1,12.3c-14.8,0-29.7,0-44.5,0c-8,0-11.6,2.6-11.6,8.4
		c0,5.7,3.9,8.7,11.5,8.7c17.3,0,34.7,0.1,52-0.1c3.7,0,4.8,0.9,4.7,4.7c-0.1,12.5,0.1,12.5-12.4,12.4c-12.5,0-25,0-37.5,0
		c-6.2,0-10.1,3.5-9.9,8.7c0.1,5,4,8.3,9.9,8.4c15.2,0,30.3,0.1,45.5-0.1c3.5,0,4.8,0.8,4.4,4.4c-0.5,4.1,1.8,9.5-0.9,11.9
		c-2.3,2-7.6,0.7-11.5,0.7c-9.7,0.1-19.3,0-29,0.1c-6,0-9.6,3.3-9.6,8.4C404.9,455.7,408.5,459,414.5,459z M547.5,231.9
		c-4.1,8.9-11.5,13.1-21,13.9c-9.2,0.7-17.3-2.1-22.4-10.2c-3.1-5-6.9-7.2-12.7-6.8c-5,0.4-10,0-15,0.1c-2.6,0.1-3.7-0.9-3.4-3.5
		c0-0.3,0-0.7,0-1c-0.2-12.6-0.2-12.6,12.4-12.6c2.5,0,5-0.1,7.5,0c4.4,0.2,7.5-1.6,10-5.3c8.2-12.1,22.7-15.5,35.1-8.5
		C548.9,204.2,553.2,219.4,547.5,231.9z"/>
</g>
</svg>
