<?xml version="1.0" encoding="utf-8"?>
<!-- Generator: Adobe Illustrator 19.0.0, SVG Export Plug-In . SVG Version: 6.00 Build 0)  -->
<svg version="1.1" id="Calque_1" xmlns="http://www.w3.org/2000/svg" xmlns:xlink="http://www.w3.org/1999/xlink" x="0px" y="0px"
	 viewBox="0 0 612 792" style="enable-background:new 0 0 612 792;" xml:space="preserve">
<style type="text/css">
	.st0{fill:#EECD5E;}
	.st1{fill:#31A4EB;}
	.st2{fill:#CFE6F7;}
	.st3{fill:#2493D6;}
	.st4{fill:#F7E9AF;}
	.st5{fill:#24AC5E;}
	.st6{fill:#24AB5E;}
</style>
<g>
	<path d="M323,651c-6.9-5.6-14.5-10.3-21.1-16.3c-31.5-28.4-50.9-63.3-57-105.4c-11-75.6,33.2-152.3,104.5-181.2
		c3.3-1.4,4.8-2.8,4.7-6.7c-0.2-37.3-0.1-74.6-0.1-112c0-3.2,0.1-5.1-4.3-5.7c-10.6-1.5-19.9-11.9-21-22.6c-0.8-8-1.3-16.1,3.4-23.2
		c5.5-8.3,12.9-13.2,23.2-13.2c39,0.1,78,0,117,0.1c14.7,0,26.2,12.1,26.6,26.8c0.3,10.3-1.5,19.5-9.8,26.5c-3.6,3-7.7,5.5-12.4,5.9
		c-3.3,0.2-3.6,1.7-3.6,4.4c0.1,11.5,0.2,23,0,34.5c-0.1,3.7,1.2,4.2,4.5,4.3c13,0.2,26-1.2,38.9,0.7c33.2,4.9,58,33.8,59,67.4
		c0.8,25.3-7,46.4-26.9,62.5c-2.4,1.9-1.5,3-0.2,4.7c10,13,17.8,27.2,24,42.4c5.7,13.9,9.1,28.3,10.6,43.2c0.1,0.8-0.1,1.7,1,2
		c0,11,0,22,0,33c-0.8,13-3.5,25.6-7.8,37.8c-12.5,35.6-34,64.4-64.8,86.4c-2.3,1.7-4.9,2.8-7.5,3.8C443.7,651,383.3,651,323,651z"
		/>
	<path d="M212,139c5.5,3,6.6,7.6,5.7,13.5c-3.4,22.4-23.2,39.3-45.6,37.6c-4.6-0.3-5.6,1.1-5.4,5.5c0.4,6.4,0.1,12.9,0.1,20.5
		c12.5-10,26.4-9.2,40.2-9c8.1,0.1,11.9,4.4,10.8,12.4c-3.3,23.4-21.1,39.2-44.8,39.1c-5.4,0-6.6,1.6-6.3,6.6c0.4,6,0.1,12,0.1,18.7
		c7-4.2,13.7-7.5,21.5-8.2c7-0.6,14-0.4,21-0.2c5.8,0.2,9,4.4,8.7,10.6c-0.8,21.2-20.3,40.3-41.8,40.9c-9.4,0.3-9.4,0.3-9.4,9.7
		c0,7.1,0,7.1,7.1,7.1c13.8,0,27.6,0.1,41.5,0.2c7.2,0,10.9,3,10.8,8.7c-0.1,5.5-3.8,8.4-10.7,8.4c-6.4,0-6.4,0-6.4,6.7
		c0,32.7,0,65.3,0,98c0,52.5,0.2,104.9,0.2,157.4c0,13.1-6.6,22.4-18.8,27c-0.6,0.2-1.3,0.3-1.5,1c-20.7,0-41.3,0-62,0
		c-14-3.4-21.6-13-21.6-27.6c0-83.1,0-166.2,0-249.2c0-1.8-0.1-3.7,0-5.5c0.2-4-1.1-6.3-5.6-6.2c-5,0.1-8.5-2.4-9.9-7.4c0-2,0-4,0-6
		c1.3-5.2,5.2-6.4,9.9-6.4c13.7,0,27.3,0,41-0.1c2.2,0,5.3,1,6.2-1.7c1.1-3.4,2.2-7.1,0.9-10.7c-0.8-2.1-3.1-1.6-4.8-1.7
		c-13.9-0.2-25.5-5.3-34.9-15.6c-7.1-7.8-10.4-16.9-11.2-27.1c-0.5-6.4,3.5-11.1,10.4-11.7c12-1,24-0.8,35.3,4.5
		c4.6,2.1,4.6,2.1,5.5-3c0.1-0.3,0.1-0.7,0.2-1c1.6-11.7,0.5-13.1-10.8-14.7c-22.7-3.4-37.4-18-40.4-40.4c-1.1-7.8,3-13.2,10.9-13.5
		c12.6-0.5,25.4-1.2,37,5.7c2.6,1.6,3.6,0.3,3.6-2.4c0-5-1.3-9.9-0.6-14.9c0.3-2.1-1.7-2.6-3.5-2.7c-3.3-0.2-6.7,0.1-10-0.3
		c-19.5-2.6-37.2-22.4-37.7-42.1c-0.1-5.1,1.9-8,7.1-10c9,0,18,0,27,0c9.8,1,17.9,5.5,24.6,12.5c1.7,1.8,2.8,2.2,4.8,0.2
		c6.8-6.8,14.7-11.7,24.6-12.6C194,139,203,139,212,139z"/>
	<path class="st0" d="M413.6,634c-27.3,0-54.7,0-82,0c-2.2,0-3.8-1.1-5.4-2.2c-34.4-24.6-56.1-57.3-63.4-99.3
		c-1.1-6.2-1.9-12.5-2-18.8c-0.1-2.3,0.5-3.5,2.9-4.3c15.1-5,27.3-14.1,37.1-26.7c7.3-9.4,16-17.4,26.8-22.8
		c18-9.1,35.8-6.5,53.6,0.5c11.5,4.5,22,10.9,32.7,16.9c15.8,8.9,32.3,16.6,50.4,19.5c18,2.9,33-3.9,45.7-16.2
		c5.4-5.2,11.1-10.1,17.5-14c8.5-5.1,17.6-7.6,27.6-7.5c3.2,0,4.8,1.1,5.7,4.2c17.1,61.9-3.5,129.2-59.8,168.4
		c-2.3,1.6-4.7,2.2-7.4,2.2c-26.7-0.1-53.3,0-80,0C413.6,633.9,413.6,633.9,413.6,634z"/>
	<path class="st1" d="M413.8,224.9c13.1-0.1,26.3-0.1,39.4-0.3c3.2-0.1,2.9,1.8,2.9,3.9c0,13.5,0,27,0,40.5c0,26.8,0,53.6,0,80.4
		c0,7.2,1.4,9.3,8.3,11.7c23.5,8.2,43.4,22,60.8,39.7c11.7,11.9,20.7,25.5,28,40.9c-4.2,0.6-8.1,1-11.9,1.8
		c-16.5,3.3-30.1,12-42.1,23.6c-6.7,6.4-13.8,12-23.4,13.3c-5.9,0.8-11.7-0.2-17.2-2c-16-5.2-31.2-12.3-45.4-21.4
		c-1-2.2-0.9-4.5-0.9-6.9c0-72.5,0-145,0-217.6C412.4,230,412.1,227.2,413.8,224.9z"/>
	<path class="st2" d="M413.8,224.9c0,75.2,0,150.5,0,225.7c0,2.1,0.4,4.3-0.5,6.4c-10.8-5.4-21.6-10.9-33.2-14.6
		c-34.4-10.9-63.5-2.8-87.6,23.9c-2.9,3.2-5.6,6.6-8.3,9.9c-6.1,7.3-13.4,12.8-23,16.2c0.4-9.2,1.9-17.8,4.3-26.1
		c14.5-51.6,47.2-86.3,97.2-105.1c7.4-2.8,8.5-4.2,8.5-12c0-40,0.1-79.9-0.1-119.9c0-4,1.2-4.9,5-4.8
		C388.5,224.8,401.2,224.8,413.8,224.9z"/>
	<path class="st3" d="M413.7,207.2c-19.3,0-38.7,0-58,0c-8.3,0-10-1.8-10.1-9.9c-0.2-15.4-0.1-15.5,15.5-15.5c36.5,0,73,0,109.5,0
		c9.5,0,11.3,1.7,11.3,11.4c0,0.8,0,1.7,0,2.5c0,9.9-1.8,11.5-11.7,11.5C451.4,207.1,432.6,207.2,413.7,207.2z"/>
	<path class="st3" d="M495.3,284c7.9,0.2,16.9-0.6,25.8,1.8c21.3,5.6,36.1,23.4,37.1,45.4c0.4,8.3,0.8,16.7-1.1,24.9
		c-2.7,11.7-9,21-18.4,28.3c-2.5,1.9-4,1.8-6.2-0.5c-3.6-3.7-7.5-7.1-11.5-10.4c-2-1.6-2.4-2.6-0.2-4.5
		c12.2-10.6,14.1-24.4,11.5-39.2c-3-16.8-17.8-28.7-34.7-28.7c-6.7,0-13.3-0.1-20,0c-2.8,0.1-4.1-0.4-4.2-3.7
		c-0.3-13.3-0.4-13.3,13-13.4C488.9,284,491.6,284,495.3,284z"/>
	<path class="st4" d="M192,493.1c0,2.6,0,4,0,5.4c0,41.8,0,83.6,0,125.4c0,7.6-2.2,9.9-9.7,9.9c-16.2,0.1-32.3,0.1-48.5,0
		c-7.4,0-9.8-2.4-9.8-10c0-35.3,0-70.6-0.1-105.9c0-3.4,0.9-4.1,4.2-3.9c14.6,0.9,28.9-1,42.4-6.9C178.1,503.9,185,499.5,192,493.1z
		"/>
	<path class="st2" d="M124,428.7c0-21.2,0.1-42.3-0.1-63.5c0-3.6,1-4.5,4.4-4.3c5.6,0.3,11.3,0.3,17,0c3.7-0.2,4.3,1.2,4.3,4.5
		c-0.1,23.5-0.1,47-0.1,70.5c0,6.1,2.6,9.6,7.4,10.1c5.8,0.7,9.8-3.1,9.8-9.7c0.1-19.3,0-38.6,0-58c0-4.7,0.1-9.3-0.1-14
		c-0.1-2.5,0.5-3.5,3.3-3.4c6.3,0.2,12.7,0.2,19,0c2.3,0,3.2,0.5,3.2,3c-0.1,33.5-0.1,67-0.1,100.5c0,1.2-0.2,2.2-0.9,3.3
		c-13.7,21.9-39.9,33.7-64.9,29.4c-3.4-0.6-2.2-2.8-2.3-4.4C124,471.4,124,450,124,428.7z"/>
	<path class="st5" d="M174,173c-1.4-0.3-4.4,1.1-5.3-0.6c-1-1.9,1.2-4.2,2.5-6.1c6.4-9.1,15.8-10.7,25.9-10.2
		c3.2,0.1,1.7,2.1,1.1,3.5c-4,8.5-11,12.4-20,13.5C177,173.1,175.8,173,174,173z"/>
	<path class="st5" d="M147.9,172.8c-11.9,1-22.4-0.5-28.9-11.6c-2.9-4.9-2.7-5.2,3.1-5.2C135.8,156,144.5,161.6,147.9,172.8z"/>
	<path class="st5" d="M124.1,292.8c10.2-0.1,17.9,4,22.8,13.1c1.6,3,0.8,4-2.6,4c-10.4,0-19.5-2.4-25.3-11.9c-0.8-1.4-2.3-3-1.6-4.5
		c0.9-1.6,3-0.5,4.6-0.7C122.8,292.7,123.5,292.8,124.1,292.8z"/>
	<path class="st6" d="M192.7,292.7c1.9,0.5,4.9-1.1,5.8,0.9c1,2-1.2,4.3-2.5,6.1c-4.9,7.2-18,12.1-26.2,10.1
		c-2.9-0.7-1.1-2.4-0.7-3.4c3.6-7.9,10-12.2,18.4-13.4C189.2,292.8,190.9,292.8,192.7,292.7z"/>
	<path class="st5" d="M141.5,241.2c-10.7,0-18.5-4-23.4-13.2c-1.6-3-0.8-4,2.6-3.9c9.3,0.1,17.9,1.7,23.9,9.7c1.5,2,3.8,4.4,2.8,6.5
		C146.4,242.5,143.1,240.6,141.5,241.2z"/>
	<path class="st5" d="M168.5,240.9c2.5-9.8,10.9-16.1,22.8-16.6c2.5-0.1,6.2-1.5,7.3,1c1.1,2.4-1.6,5.1-3.4,7.3
		C188.1,241.2,178.6,241.9,168.5,240.9z"/>
</g>
</svg>
