<?xml version="1.0" encoding="utf-8"?>
<!-- Generator: Adobe Illustrator 19.0.0, SVG Export Plug-In . SVG Version: 6.00 Build 0)  -->
<svg version="1.1" id="Calque_1" xmlns="http://www.w3.org/2000/svg" xmlns:xlink="http://www.w3.org/1999/xlink" x="0px" y="0px"
	 viewBox="0 0 612 792" style="enable-background:new 0 0 612 792;" xml:space="preserve">
<g>
	<path d="M601,308c-0.7,7.9-1.3,15.9-2,23.8c-2.6,28.6-8,56.6-18.2,83.6c-13.6,36.2-38.9,61.7-72.1,80.4c-30.1,17-62,29.9-93.8,43.1
		c-3.8,1.6-7.7,3.1-11.5,4.8c-7.7,3.5-11.5,1.6-12.1-6.8c-1.3-19.1,1.4-37.5,11.3-54.4c9.7-16.6,22.7-30.4,37-43
		c9.5-8.3,19.4-16.1,29.1-24.1c-0.3-0.1-0.7-0.3-0.9-0.2c-18.8,10.7-38.3,20.3-55.1,34.2c-24.8,20.5-36.9,47.3-39.8,78.9
		c-2.3,25.4,1.2,50.2,6.2,74.9c0.4,1.8-0.5,3.8-0.7,5.6c-1.8-1.3-4.5-2.2-5.4-4c-9.8-19.6-16.1-40.4-19.8-62
		c-7.3-42.8-3.9-85,8.4-126.5c6.8-23.1,21.8-41,40.2-56c23.7-19.4,50.8-32.5,80.4-39.8c38.7-9.5,72.5-27.8,103-53
		c2.4-2,4.9-4,7.7-5.5c3.8-2.1,6.4-0.6,7.2,3.7c0.5,2.8,0.7,5.6,1.1,8.3C601,285.3,601,296.7,601,308z"/>
	<path d="M320.1,225.6c-1.5-4.6-2.8-9.7-5.5-13.5c-4.9-6.8-12.3-10.3-20.6-10.9c-10.1-0.7-20.3-0.4-30.4-0.8
		c-10.3-0.4-15.6-5.8-15.7-16.1c-0.1-6.7-0.3-13.3,0.1-20c1.1-18.1-14.1-28.6-27.8-29.1c-10.3-0.4-20.7-0.4-31,0
		c-12.5,0.5-28.6,10.2-27.5,28.9c0.4,6.5,0.2,13,0,19.5c-0.2,11.6-5.4,16.7-16.9,16.9c-7.2,0.1-14.3-0.1-21.5,0
		c-16.2,0.2-28.8,6.1-34.3,22.6c0,121.3,0,242.7,0,364c5.2,14.3,15.9,21.8,30.7,21.8c56.8,0.3,113.6,0.3,170.4,0
		c18.8-0.1,30.2-12.3,30.2-31c0-115.3,0-230.6,0-345.8C320.3,229.9,320.8,227.6,320.1,225.6z M281.8,544c0,16.4-8.4,24.4-24.8,24.4
		c-35.8,0-71.7,0-107.5,0c-14.8,0-21.2-6.5-21.2-21.5c0-41.5,0-83,0-124.5c0-36,0.2-72,0-108.1c0-5.1-0.1-10.3-0.1-15.4
		c-0.2-19.2,13-22.4,26.7-19.6c6.7,1.3,10.3,6.8,11.2,13.3c1.6,12,2.8,24.2,4,36.2c2.5,24.9,5,49.7,7.5,74.6
		c0.5,4.5,3.1,6.4,5.9,4.3c1.2-0.9,1.8-3,2.2-4.7c6.8-28.6,13.6-57.3,20.4-86c1.3-5.7,2.6-11.4,4-17c3.2-12.4,13.1-20.7,25.8-21.3
		c9-0.4,18-0.4,27-0.1c12.5,0.5,18.9,7.3,18.9,19.7C281.8,380.3,281.9,462.2,281.8,544z"/>
</g>
</svg>
