<?xml version="1.0" encoding="utf-8"?>
<!-- Generator: Adobe Illustrator 19.0.0, SVG Export Plug-In . SVG Version: 6.00 Build 0)  -->
<svg version="1.1" id="Calque_1" xmlns="http://www.w3.org/2000/svg" xmlns:xlink="http://www.w3.org/1999/xlink" x="0px" y="0px"
	 viewBox="0 0 612 792" style="enable-background:new 0 0 612 792;" xml:space="preserve">
<g>
	<path d="M303.8,459.6c0.3-14.9,5.8-32.3,11.8-49.7c4-11.5,8.1-22.9,12.6-34.1c2.6-6.3,2.6-12.4,2.4-19c-0.6-18.4-0.8-36.9-0.5-55.3
		c0.1-5.3,1.9-10.8,3.7-15.9c6.5-18.1,22.8-28.2,41.9-25.9c7.4,0.9,15.1,1.9,21.9,4.7c16.5,6.8,33.1,13.9,48.8,22.5
		c14.2,7.9,24.2,20.2,27.9,36.7c2.5,11.3,1.3,22.3-2.9,32.9c-3.8,9.6-7.8,19.2-13.2,27.9c-14.7,23.4-25.6,48.4-34.3,74.6
		c-4.6,13.8-10.8,26.9-19.5,38.6c-15.1,20.4-35,26.7-59,18.9c-3-1-6-2.1-8.9-3.3C314.2,503.7,303.6,487.5,303.8,459.6z M319.8,462.6
		c-0.2,12.1,3.1,23,13.4,30.2c20.2,14.2,45.3,17.2,62.4-10.9c1.8-3,3.7-6,5.1-9.2c3.3-7.4,6.9-14.8,9.4-22.5
		c8.4-25.9,19.8-50.4,34.1-73.6c5.4-8.8,9.9-18.6,13-28.5c2.2-7,2.9-15.2,2-22.5c-1.6-12.2-10.3-20.3-20.5-25.5
		c-15.5-8-31.4-15.1-47.6-21.6c-6.4-2.6-14-3-21.1-3.3c-10.3-0.4-17.7,4.7-20.8,14.6c-2,6.1-3.9,12.6-4,18.9
		c-0.1,16.3,0.6,32.6,1.4,48.9c0.4,7,0.4,13.7-2.3,20.5c-5.4,13.4-10.3,27.1-15,40.7C324.5,433.1,320.1,447.4,319.8,462.6z"/>
	<path d="M285.6,403.1c-0.8,11.4-1.9,22.7-2.2,34c-0.1,5.3,0.5,10.9,2.1,16c7,22.2,15.1,44,21.7,66.3c3.9,13,4.5,26.6,0.9,40
		c-2.3,8.4-6.5,15.8-13.2,21.3c-15.9,13-33.9,19.8-54.6,16.3c-14-2.3-23.8-11.4-31.7-22.5c-10.8-15.1-17.4-32.2-23-49.6
		c-6.3-19.6-15.6-37.7-25.9-55.4c-6.9-11.9-13.3-24.3-17.7-37.3c-8.4-24.4-1.8-46.2,18.7-61.8c20.7-15.9,44.4-26.1,70-31.2
		c30-6,49.5,9.7,53.3,40.2C284.9,387.1,285,395.1,285.6,403.1z M269.7,403.7c-0.3,0-0.5,0-0.8,0c0-5.8,0.8-11.8-0.2-17.4
		c-1.3-7.6-3.5-15.2-6.2-22.4c-2.3-6-7.8-9.1-14.1-9.7c-4.9-0.4-10.1-0.7-14.9,0.3c-22.8,4.7-43.4,14.7-62.8,27.2
		c-2.4,1.5-4.4,3.5-6.5,5.5c-9.1,8.8-12,19.6-9.7,32c2.4,13,8,24.7,14.9,35.7c14.2,22.9,25.6,47,33.9,72.6
		c4.6,14.2,10.5,28.1,20.1,40c10.4,12.9,23.6,17.2,39.6,12.7c22.2-6.3,32.1-19.5,30.9-42.5c-0.3-6.9-1.4-14-3.5-20.6
		c-6.9-21.3-14.6-42.4-21.8-63.7c-1.1-3.2-1.7-6.8-1.6-10.2C267.7,429.9,268.8,416.8,269.7,403.7z"/>
	<path d="M221.3,323c-7.8,14.3-12.4,16.6-27.7,14.3c-7.7,10.9-11.6,12.5-24.3,9.7c-4,8.2-10.3,12.7-19.8,10.1
		c-6.7,11-11.4,13.4-19.8,10.4c-8.6-3-12.9-9.7-11.6-18.5c1.2-8.9,6.6-13.6,15.4-14.2c3-4.5,5-9.5,8.7-12.2c3.6-2.6,9-2.9,13.6-4.2
		c0.1,0.4,0.2,0.8,0.3,1.2c2-3,3.9-6.1,6.2-8.9c1.2-1.5,3.2-3.3,4.8-3.3c8.5,0.2,12-5.5,16-11.6c4-6,10.8-7.3,18.1-6.3
		c2.1-10.5,6.2-19.6,16.2-24.5c6.3-3.1,12.9-2.8,19.5-0.6c17.1,5.6,26,22.4,21.2,39.7C253.3,321.3,241.5,327.4,221.3,323z
		 M244.2,297.1c0.1-9.9-7.1-19.1-14.7-19c-7.4,0.1-13.1,5.8-13.1,13c0,9.4,7.2,18.6,14.6,18.8C238.3,310,244.2,304.3,244.2,297.1z
		 M207.1,316.1c0.1-5.6-4.1-11.3-8.3-11.3c-4.1,0-7.3,2.8-7.4,6.5c-0.1,5.4,4.2,11.6,8.1,11.7C203.6,323.2,207.1,320,207.1,316.1z
		 M168.7,325.5c3.1,3.1,5.2,5.3,7.2,7.4c1.4-1.4,4-2.8,3.8-4c-0.3-3-0.7-7.1-5.1-7.2C173.2,321.7,171.6,323.6,168.7,325.5z
		 M152.4,333.3c-1.4,2.3-2.7,3.5-2.4,4.1c0.7,1.7,2.1,3.2,3.2,4.8c0.8-0.8,2.4-1.9,2.2-2.4C155,337.9,153.8,336.2,152.4,333.3z"/>
	<path d="M392.8,244.2c-18.5,5.5-31.7-1-36.7-17.6c-5.4-18,3.9-35.3,22.1-40.9c16.5-5,28,3.2,34.6,24.6c4.2,0.8,8.9,0.5,12,2.6
		c4.3,3,7.3,7.8,10.9,11.8c1,1.1,2.1,3,3.1,3c10-0.6,15.3,5.2,18.6,13.5c13.8-0.4,17.5,2.2,21.8,14.8c12.6,2.4,18,8.9,16.9,20
		c-0.7,6.4-6.6,12.3-14,13.9c-6.8,1.4-11.6-1-15.4-7.4c-0.8-1.4-2.4-3.4-3.5-3.3c-10.9,1.2-13.6-3-18.8-10.5
		c-5.6,1.6-12.3,3.3-16.4-1.5c-5.4-6.2-11.2-7.8-19.2-7.9C400.4,259.1,396,251.8,392.8,244.2z M384,198.9c-2.8,1.6-6.6,2.5-8.1,4.9
		c-2.8,4.5-5,9.7-5.9,14.9c-1,5.4,2.4,9.3,7.6,11.5c5.1,2.1,10.5,1.6,13.6-2.8c2.8-3.9,5.1-8.6,6-13.3
		C398.7,206.1,392.7,199.9,384,198.9z M414.3,244.5c4-0.1,8.3-6.2,8.2-11.6c-0.1-3.8-3.8-7-7.8-6.8c-3.9,0.2-7.9,6-7.9,11.4
		C406.9,241.6,410.1,244.6,414.3,244.5z M445.1,247.7c-2.7-2.2-4.2-4.4-5.9-4.5c-4.2-0.2-4.4,3.8-5.2,6.6c-0.8,3,1.7,5,3.8,4.3
		C440.3,253.3,442,250.6,445.1,247.7z M465.3,259c-1.6-1.2-2.5-1.9-3.4-2.6c-1.2,1.6-2.5,3.1-3.4,4.8c-0.2,0.4,1.4,1.7,2.1,2.6
		C462.1,262.4,463.4,261,465.3,259z"/>
</g>
</svg>
