<?xml version="1.0" encoding="utf-8"?>
<!-- Generator: Adobe Illustrator 19.0.0, SVG Export Plug-In . SVG Version: 6.00 Build 0)  -->
<svg version="1.1" id="Calque_1" xmlns="http://www.w3.org/2000/svg" xmlns:xlink="http://www.w3.org/1999/xlink" x="0px" y="0px"
	 viewBox="0 0 612 792" style="enable-background:new 0 0 612 792;" xml:space="preserve">
<style type="text/css">
	.st0{fill:#C585D9;}
	.st1{fill:#E69BFD;}
	.st2{fill:#EECEB3;}
	.st3{fill:#724B24;}
	.st4{fill:#DABBA1;}
	.st5{fill:#4F3319;}
	.st6{fill:#EABF9B;}
	.st7{fill:#EED2CA;}
	.st8{fill:#B9A39D;}
	.st9{fill:#E2C8BE;}
	.st10{fill:#E2C7BD;}
	.st11{fill:#6BD7E0;}
	.st12{fill:#69D9D3;}
	.st13{fill:#70E6EE;}
	.st14{fill:#6EDDE6;}
	.st15{fill:#D0B5AC;}
	.st16{fill:#5CAAB0;}
</style>
<g>
	<path class="st0" d="M485.9,414c-2,11.3-5.7,22.1-8.5,33.2c-1.2,4.8-2.7,9.6-3.7,14.4c-0.8,4.1-2.7,5.5-7.1,5.5
		c-48.3-0.2-96.5-0.1-144.8-0.1c-35.8,0-71.6-0.1-107.4,0.1c-3.9,0-5.5-1.1-6.5-4.8c-4.3-15.3-9-30.6-13.5-45.8
		c-0.2-0.8-0.1-1.6-0.2-2.5c2.7-2.3,6-1.6,9.1-1.6c56.4,0,112.8,0,169.2,0c34.9,0,69.9,0,104.8,0C480.2,412.4,483.3,411.8,485.9,414
		z"/>
	<path class="st1" d="M485.9,414c-97.3,0-194.5,0-291.8,0c4.9-9,11.1-17.3,16.9-25.8c15.4-22.9,31.1-45.6,46.4-68.5
		c2-3,4.2-3.7,7.5-3.7c31.7,0.1,63.3,0,95,0c0.2,0.2,0.4,0.3,0.6,0.5c0.8,4.7-0.3,6.8-4.8,8.7c-3.5,1.5-7.2,2.1-10.7,3.6
		c-1.3,0.4-2.7,0.5-4.1,0.5c-22.2,0.7-44.3,2.3-65.6,9.5c-5,1.7-9.8,3.9-14.2,7.1c-3.8,2.7-6.2,6-5.5,10.9c0.2,6.1,4.7,8.9,9.2,11.4
		c10.2,5.7,21.4,8.2,32.7,10.3c12,2.2,24,2.6,36.2,3.3c21.5,1.1,42.8-0.7,63.8-5.3c9.1-2,18.1-4.4,26-9.8c2.7-1.9,5.4-3.9,6.4-7.4
		c2.9-5.9-1.7-11.8-8.7-15.9c-7.5-4.4-15.9-6.7-24.3-8.6c-4.5-1-9.3-1.1-13.6-3.1c-3-3.2-6.6-5.4-11-6.3c-2.3-0.5-4.4-1.4-5.9-3.4
		c-1-2-2.1-3.9-0.2-6c17.2,0,34.3,0,51.5-0.1c2.7,0,4.6,0.6,6.2,3c20.3,30.8,40.7,61.5,61.1,92.2C485.4,412.2,486,413,485.9,414z"/>
	<path class="st2" d="M358,314.1c-2.2,2-4,0.5-5.8-0.6c-6.9-4-10.9-10.4-14.1-17.4c-0.7-1.7-1.4-3.3-2.1-5c-0.8-5,0.7-9.4,3.7-13.4
		c3.9-5.2,9.1-7.1,15.3-5.1c4.9,1.6,10.5,2.2,13.7,7.1c2.4,9.3,0.7,18.1-3.4,26.6C363.7,309.6,361.5,312.4,358,314.1z"/>
	<path class="st3" d="M367.9,280.1c-5-4.7-11.3-6.3-17.7-7.1c-5.9-0.8-12.2,6.5-13.2,14c-0.2,1.4,0.8,3.1-1,4
		c-6.3-8.2-6-17.1,1.8-23.8c7.2-6.2,15.9-9.7,25.7-8c7.2,1.2,13.3,4.4,15.4,12.2c0.4,1.4,1.6,1.6,2.1,2.5c0.8,5,0.2,9.9-1.5,14.7
		c-5.4,1.5-7,0.8-9.3-3.7C369.4,283.4,369.2,281.5,367.9,280.1z"/>
	<path class="st4" d="M367.9,280.1c0.7,0.6,1.8,1.2,2.1,2c1.4,4.5,4.5,6.6,9,6.9c4,3.1,3.8,9.9-0.8,12c-3.2,1.5-6.2,3.4-9.3,5.1
		c-3.8,2.6-2.9,6.4-2.8,10.1c-0.4,2.1,0.6,3.9,1,5.8c-2.5,1.3-3.7-0.7-3.7-2.3c0-2.7-1.8-3-3.4-3.7c0,0-0.2,0-0.2,0
		c-0.2-1-0.8-1.7-1.8-2c6.7-6.9,9.7-15.2,10.6-24.7C368.9,286.1,367.3,283.2,367.9,280.1z"/>
	<path class="st5" d="M368.9,306c1.7-2.8,3.5-4.9,7.4-5.4c5.1-0.6,6.2-6.5,2.7-11.7c0.2-5.1,0.4-10.1,2-15c3,1.4,3.2,4.1,3,6.7
		c-0.4,5-1,9.9-1.6,14.8c-0.5,4-1,8.3,1,11.7c2.6,4.6,0.4,4.5-3,3.9c-0.7,1.6,1.4,2.2,1.2,3.6C377.8,316.1,370.2,310.9,368.9,306z"
		/>
	<path class="st6" d="M360,316c1.9-0.1,4.4-1.3,4.2,2.6c-0.1,1.6,0.8,3.3,3,3.4c2.5,1.6,5.3,2.4,8.1,3.1c3.5,0.8,6.5,2.3,7.8,5.9
		c2.9,4.5,2.8,9.7,3.3,14.7c0,1.2-0.1,2.3-0.1,3.5c0,3.5-1.7,5.4-5.3,4.9c-2.9-0.4-5.6,0-8.2,1.2c-2.9,1.3-5.9,1-8.7-0.4
		c-3.5-1.8-7-2.4-11-1.8c-5.5,0.8-11.4-3.7-12.6-8.8c-0.1-0.8,0-1.7,0-2.5c-0.1-3.1,0.9-6.1,1.1-9.2c0.2-2.2,1.4-3.6,3.3-4.5
		c2.4-2.6,6-2.4,9-3.4C358.3,323.2,360.7,320.8,360,316z"/>
	<path class="st7" d="M254.1,357.1c-1.2-10.2,6.8-13.5,13.6-16.6c13.9-6.5,28.9-9,44.1-10.5c9.7-0.9,19.4-2.3,29.1-1.9
		c0.2,2.3-1.5,2.7-3.1,3c-1.6,0.3-3.3,0.2-4.9,0.8c-15.3,0.5-30.4,2.4-45.2,6.3c-6.6,1.7-12.9,4.5-18.7,8c-5.4,3.2-6.5,6.8-4.2,12.5
		c3.3,5.6,9.4,7.1,14.8,9.4c17,5.6,34.6,8.1,52.4,8.4c9.1,0.1,18.3,0.3,27.4,0.1c2.2,0,4.3,0,6.5-0.5c13.4-1.1,26.6-3.4,39.4-7.8
		c5.2-1.8,10.1-4.1,14.4-7.7c4.3-5.9,3.7-8.7-1.7-13.4c-5.2-4.5-11.3-6.5-17.7-8.3c-2.2-0.6-5.1-1.3-4.2-4.8c0-0.1,0.2-0.1,0.4-0.1
		c0.2,0,0.3,0.1,0.5,0.1c11.8,2.3,23.2,5.2,31.9,14.3c2.7,2.9,4.2,6.3,2.2,10.3c-4.6,8.5-12.9,11.7-21.3,14.4
		c-16.5,5.3-33.6,7.3-50.9,8.5c-16,1.2-31.9,0.3-47.7-1.3c-16-1.6-31.9-4.4-46.5-12C259.8,365.8,255.6,362.7,254.1,357.1z"/>
	<path class="st8" d="M254.1,357.1c4.1,7.9,11.8,11.1,19.4,13.8c16.8,6,34.3,8.3,52.1,9.3c12.6,0.7,25.2,0.9,37.8-0.1
		c17.7-1.4,35.2-3.9,51.9-10.3c6.2-2.3,11.3-6.3,15.8-11.1c0,5-3.9,7.2-7.3,9.4c-11,7.1-23.5,9.5-36.1,11.9
		c-13,2.5-26.3,3.1-39.5,3.7c-9.3,0.4-18.6-0.1-27.8-0.9c-14.5-1.2-28.9-3.2-42.9-7.7c-6.7-2.2-13.1-4.7-18.6-9.2
		C256,363.6,254.1,360.9,254.1,357.1z"/>
	<path class="st9" d="M397,334c-1,2.4,0.8,2.8,2.4,3.2c3.5,0.8,6.7,2.2,10.4,2.8c3.2,0.5,6.1,3.9,8.9,6.2c6.4,5.3,6.8,7.7,2.5,14.8
		c-10.1-8.6-22.6-11.1-34.9-14.1c-0.4-0.3-0.8-0.6-1.2-0.9c-0.7-5-1.4-10-2-15C387.7,332.1,392.5,332.2,397,334z"/>
	<path class="st10" d="M333,331c2.1-2.4,6.3,0.7,8-2.9c1.3,0,2.7-0.1,4-0.1c-3,4.3-2.2,9.4-3.1,14.1c-0.5,0.4-1.1,0.9-1.7,1
		c-10.4,0.4-20.7,2-31.1,1.9c-3.7-2.8-0.7-4.2,1.3-5.5c5.8-3.7,12-6.4,18.9-7.5C330.6,331.8,332,332,333,331z"/>
	<path class="st11" d="M308,343.9c11.3-0.5,22.5-2.6,33.9-1.9c0,0.7-0.1,1.3-0.1,2c-1.2,3.6,1.6,7,0.6,10.6
		c-2.2,2.1-5.4,2.4-7.8,4.1c-0.7,0.4-1.7,0.7-2.3,0.1c-6.3-6.2-12.1-1.8-17.9,1c-2,1-3.7,2.4-5.4-0.4c-0.9-1.5-2.7-1-4.1-0.8
		c-5.3,0.7-10.5,1.6-14.8,5.3c-1.3,1.1-2.8,1.8-4.8,0.1c-2.8-2.3-5.5,1-8.3,1.3c-3.6-2.4-1.4-5,0.1-7.2c3.4-5,8.7-7.5,14-10
		c1.5-0.7,3.3-0.7,4.3-2.3C299.3,344.1,303.5,343.1,308,343.9z"/>
	<path class="st12" d="M342,355c-1.4-3.6-1.5-7.3-0.2-10.9c0.9,4.8,7.4,8.9,12.6,7.6c3.3-0.9,5.9-0.8,8.8,1.4
		c2.1,1.5,4.8,2.4,7.5,1.6c3.8-1.2,7.1-2.8,11.7-1.9c4.8,0.9,1.8-4.4,2.7-6.7c0.3,0,0.6,0.1,0.9,0.2c1.5,1.6,1.5,3.7,1.2,5.7
		c-0.6,5-1.2,9.9-2.2,14.8c-1.2,5.8-3.2,7.4-9.2,7.8c-3.5,0.2-7.1-0.4-9.7,2.8c-1.9,1.4-4,0.7-6,0.7c-1.7-6.3-6.1-10.2-11.8-13
		c-2.2-1.1-3.9-3-5.5-5C341.6,358.5,340.5,356.9,342,355z"/>
	<path class="st13" d="M342,355c0.6,5,4.6,7.4,8.3,9.6c5.2,3,10.5,5.9,9.7,13.2c-25.6,1-51.1,0.6-76-6.8c-2.1-0.6-4-1.5-6.1-2.2
		c-0.7-1.2-2.4-2-1-3.7c1.9-3.2,5.5-2.5,8.3-3.6c1-0.4,1,0.3,1,1.1c-0.4,3.5,1.8,1.7,2.5,1c4.2-4.1,9.3-5.6,14.9-5.7
		c2.3,0,6.1-4,6.9,2.1c0.1,1.2,2-0.1,2.8-0.8c4.6-4.2,10.2-4.4,16-4.2c2.5,0.1,4,0.6,3.1,3.8C335.9,357.2,338.3,354.3,342,355z"/>
	<path class="st14" d="M366,377.2c0.1-3.1,1.7-4.5,4.8-4.2c1.5,0.1,3-0.1,4.5,0.1c5.1,0.5,7.9-1.7,8.4-6.7
		c0.7-6.7,2.6-13.3,2.3-20.1c11.7,1.4,22.8,4.7,32.7,11.3c1.3,0.8,2.3,1.9,2.5,3.5c-7.3,6.8-16.6,9.3-25.9,11.7
		C385.7,375.1,376,377,366,377.2z"/>
	<path class="st15" d="M308,343.9c-4.1,1.9-8.9,1-12.9,3c-10,3.7-20.5,6.2-29.1,12.8c-0.5,0.4-1.2,0.4-1.9,0.2
		c-3.8-5.8-2.4-11.3,4-15c11.6-6.9,24.5-10,37.7-12c9-1.4,18.1-2.6,27.2-2c0.2,0,0.4,0,0.5,0.1c0.2,0.2,0.4,0.4,0.5,0.6
		c-2.7,0.8-5.3,1.7-8,2.3c-5.9,1.3-11,4.5-16.3,7.2C308.6,341.7,308,342.7,308,343.9z"/>
	<path class="st16" d="M264.1,360c8.9-7.8,19.6-11.2,31-13c-2.9,2.6-6.6,3.5-9.9,5.4c-3.4,1.9-6.1,4.5-8.2,7.7c-1,1.5-1.8,3.3-0.1,5
		c0.3,1.2,0.7,2.5,1,3.7C272.9,366.7,267.4,365.1,264.1,360z"/>
</g>
</svg>
