<?xml version="1.0" encoding="utf-8"?>
<!-- Generator: Adobe Illustrator 19.0.0, SVG Export Plug-In . SVG Version: 6.00 Build 0)  -->
<svg version="1.1" id="Calque_1" xmlns="http://www.w3.org/2000/svg" xmlns:xlink="http://www.w3.org/1999/xlink" x="0px" y="0px"
	 viewBox="0 0 612 792" style="enable-background:new 0 0 612 792;" xml:space="preserve">
<style type="text/css">
	.st0{fill:#FDBAC9;}
	.st1{fill:#EEAEBE;}
	.st2{fill:#CFAEEE;}
	.st3{fill:#DDBAFD;}
	.st4{fill:#DCBAFD;}
	.st5{fill:#FDBAF7;}
	.st6{fill:#FDBAF9;}
	.st7{fill:#CDAAE9;}
	.st8{fill:#E9AAE3;}
	.st9{fill:#EEAEEB;}
	.st10{fill:#CE93C5;}
	.st11{fill:#E9AAB8;}
	.st12{fill:#B795D0;}
	.st13{fill:#DA9ED5;}
	.st14{fill:#E7A8E1;}
	.st15{fill:#CF95A0;}
	.st16{fill:#AC8DC6;}
</style>
<g>
	<path class="st0" d="M205,321c-2.1-2.3-0.5-3.9,1-5.5c4.1-4.6,9.1-8.2,14.9-12.2c-6.9-0.5-12.4-2.4-17.5-6
		c-11.6-8.2-11.1-24.7,0.9-32c9.3-5.7,19.9-7.1,30.2-9.2c16.7-3.4,33.6-5.1,50.7-6.3c19.8-1.3,39.6-1.2,59.4-0.5
		c28.3,0.9,56.5,3.7,83.8,11.9c15,4.5,29.5,10.2,42.6,18.9c0.3,1.1-0.4,1.5-1.2,1.7c-1.2,0.3-2.4,0.2-3.4-0.3
		c-6.5-3.1-13.8-1.6-20.4-3.2c-6.3-1.6-12.6,0.2-18.7-1c-6.6-1.2-13.1,0.2-19.6,0.1c-2.3,0-4.7,0.2-6.8-1c-1.1-0.6-2.2-0.6-3.3,0
		c-5.8,3-11.8,2.6-17.9,0.9c-1.2-0.4-2.2-0.2-3.3,0.2c-6.1,2.4-12.3,3.8-18.9,1.8c-0.8-0.3-1.7-0.3-2.4,0.3
		c-5,3.6-11.2,2.8-16.8,4.3c-3.1,0.8-6.2-1.4-9.8,1.2c-7.2,5.3-13.7,11-18,19c-0.3,0.6,0-0.2-0.3,0.4c-0.5,1.6,4,16.5,5.4,17.5
		c1.6,1.2,3.2,2.4,4.6,3.8c3.4,3.2,3,4.5-1.6,6.5c-3.9,0.1-7.5-1.3-11.2-2.4c-18-5.5-35.3-12.8-52.9-19.6c-9.8-3.8-19.7-7-29.4-7.4
		c6.2,0.7,13.2,1.8,20,4.1c16.4,5.6,32.2,12.5,48.2,19.1c11.8,4.9,23.7,9.8,36.7,11.1c5.8,0.5,11.3-0.4,16.9-1.2
		c17.9-2.3,35.3-6.8,52.8-10.9c16.7-3.8,33.5-6.9,50.8-6.6c6.7,0.1,13.3-1.1,19.3-4.2c4.1-1.9,7.7-4.6,10.5-8.2
		c2.7-3.3,4.5-6.9,3.8-11.4c-0.3-1.8-0.5-3.7,1.8-4.7c5.4,5.9,10.7,11.9,8.1,20.9c-3.7,8.2-11.1,11-19,13c-16,4-32.5,5.1-48.7,7.4
		c-11.8,1.7-23.7,3.2-34.6,9.1c-11.7,6.3-23.8,11.9-35.3,18.6c-9.2,5.3-18.1,3.7-25.7-2.4c-18.3-14.6-39.5-22.7-61.9-27.6
		c-18.5-4.1-37.4-6.4-56.5-5.9C209.6,323.3,207,323.1,205,321z"/>
	<path class="st1" d="M319,331c2.9-0.7,4-1.7,1.1-4.1c-5.6-4.5-5.5-4.6-8.3-4.7c1.1-5.4-0.3-10.6-3.1-15c-1.2-1.8-0.8-2.1,0-3.4
		c5.4-9,12.8-15.9,21.6-21.5c1.6-1,3.1-3.2,4.5,0.1c0.1,0.3,1,0.5,1.3,0.4c6.2-2.4,13.8-0.1,19.2-5.5c0.7-0.7,1.4-1.6,2.5-0.6
		c5.6,5,11.4,0.7,16.9-0.1c2.3-0.3,3.4-2.1,6.8-0.5c4,1.9,10,2.1,14.8-0.8c1.9-1.1,2.9-1.7,5.9-0.4c4.5,2,10.6,2.2,15.8-0.6
		c1.4-0.8,2.3-2.1,3.4,0.3c0.7,1.6,2.3,1.2,3.5,1.1c4.6-0.6,9.6,2.1,13.8-1.7c0.3-0.2,1.1-0.3,1.4-0.1c5.4,4.5,11.2,4.7,17.3,1.7
		c0.8-0.4,1.2,0,1.9,0.8c3.2,3.6,7.5,4.1,12,3.2c5.7,2.3,10.1,6.5,14.9,10.2c-0.3,0.8-0.9,1.6-0.8,2.3c2.2,11.9-5.3,17.7-14.1,22.6
		c-6.4-13.7-19.4-14.3-31.7-15.4c-17.6-1.6-34.7,2.2-51.5,7.4c-7.7,2.3-15.6,4.2-23.8,3.3c8.2,0.9,16.1-0.9,23.9-3.2
		c15.8-4.8,31.8-8.4,48.5-7.5c7.4,0.4,14.5,1.7,21.6,3.7c1.6,0.5,3.2,1.2,4.6,2c2.9,1.7,6.1,3.6,5.2,7.6c-0.8,3.8-4.4,4.2-7.6,4.5
		c-9.5,0.6-18.9,1.2-28.4,1.9c-16.5,1.2-32.4,5.8-48.5,9.4c-15.4,3.5-30.8,7.3-46.8,6.9c-4.7-0.1-9.3-0.9-13.8-1.8
		C321.2,333.3,319.2,333.3,319,331z"/>
	<path class="st2" d="M492,362c0.7,0.7,1.3,1.4,2,2.1c4.7,6.2,7.6,12,3.7,20.5c-3.6,7.6-7.3,14.7-12.9,20.9
		c-1.3,1.4-2.5,3.2-4.9,2.6c-0.3-0.4-0.6-0.8-0.7-1.3c-2.3-10-6-13.2-16.3-12.4c-13,1-24.8,6.3-36.1,12.4
		c-16,8.7-30.5,19.7-45.9,29.2c-4.5,2.8-9.3,5.2-14.1,7.4c-2.9,1.4-6,2-9.3,1.5c2.1,2.2,4.5,1.5,6.9,0.7c8.3-2.8,15.4-7.8,22.5-12.7
		c15.9-11,31.6-22.2,49.6-29.6c7.9-3.3,16-5.6,24.4-7.2c3.5-0.7,7-0.7,10.4,0.6c7.3,2.6,8.7,8.3,3.5,13.9c-2.5,2.7-5.6,4.7-8.8,6.4
		c-3.4,1.8-6.8,3.4-10.3,5.2c-9.8,5.4-19.5,10.8-28.9,16.9c-23.2,15.1-46,30.8-70.9,42.9c-9,4.4-18,8.9-28.5,8.3
		c-1.9-0.1-4.1,0.4-5.5-1.5c-0.2-0.8,0.5-1.1,1-1.4c-3.1,0.2-5.2-2.3-7.9-3.2c-2.1-0.7-2.8,1.3-4,2.2c-1.6,0.1-2.9-0.4-3.2-2.2
		c2.8-5,2.5-8.2-2.1-12.5c-2-1.8-1.6-3.2-1.3-5.6c0.8-5.1,2.8-10.3,0-15.4c-0.7-1.4-0.5-2.6,0.2-3.8c2.1-3.3,4.2-6.7,7.3-9.3
		c2.6-0.2,4.3,1.5,6,3c8,7,20.8,9.2,31.7,1.5c15.7-11.1,31.7-22.1,48.8-31.1c16-8.5,32.9-15.1,49.5-22.6
		c15.2-6.9,30.1-14.3,42.4-25.8C490.7,362,491.3,361.8,492,362z"/>
	<path class="st3" d="M480,408c7.9-6.7,12.9-15.1,16.7-24.8c2.4-6.2,1.8-10.8-1.5-15.9c-0.6-0.9-0.8-2.1-1.2-3.2
		c9.5,5.3,14.1,23.5,10.1,34.9c-5.1,13.4-16.1,21.3-27,29.1c-6.8,4.8-14.3,8.6-21.1,13.2c-14.3,9.8-29.3,18.5-43.9,27.8
		c-23.2,15-41.5,35.2-60.1,55.1c-10.6,11.3-23.1,11.5-32.9-0.4c-11.2-13.6-25.3-23.4-40.5-32c-15.9-9-33-13.8-51.1-16
		c-8.4-1-16.6,0.4-24.9,0c-6.5-0.3-6.5-0.5-7.4-6.8c4.4-7.7,11.4-13.1,17.8-18.9c2.1-2,4.1-4.3,7.1-5.2c7.6-2.7,14.4-0.1,21,3.2
		c13,6.6,24.4,15.6,35.8,24.4c9.1,7,18.3,13.9,28.5,19.2c8.5,4.3,17,4.9,26.1,2.2c13.1-3.9,24.8-10.6,36.5-17.2
		c20.2-11.4,39.2-24.7,59.1-36.4c11.6-6.8,23.9-12.4,35.6-19.2c4-2.3,8-4.8,11.1-8.4C476,411.2,477.3,408.7,480,408z"/>
	<path class="st4" d="M312,438c-1.3,1.8-2.5,3.8-3.9,5.6c-1.6,2.1-3.9,3.7-1.7,8c2,3.9,1,10.2-1,15.1c-0.7,1.7-1.5,2.1,0.9,3.5
		c3.1,1.7,4,5.8,5.3,9.1c0.8,2-2,3.5-3.7,4.7c-2,1.6-3.8,0.3-5.6-0.5c-11.5-5-21.8-11.9-32.1-19c-7.5-5.2-14.8-10.7-22.7-15.3
		c-7.6-4.4-15.4-8.5-24.7-6.4c-3.2-0.7-6.3,0.6-9.6-0.2c-9-2.3-14.7-10.1-15.4-20.1c-0.7-8.7,2.4-16.1,6.1-23.5
		c2.3-2,5.1-1.5,7.6-1.2c34.7,4.1,67,15.1,96.1,34.7C309.6,433.9,312.4,434.8,312,438z"/>
	<path class="st5" d="M196,394c-2.2-3.4,0.1-5.6,2.2-7.6c6.5-6.2,13.8-11.2,21.7-15.4c11.3-0.8,20.5,4.7,29.9,9.7
		c16.5,8.7,31.4,20.1,48.2,28.4c9.9,4.9,20,6.8,31,4.7c19.2-3.7,37.4-10.6,55.5-17.9c23-9.3,45.9-18.6,69.4-26.6
		c3.3-1.1,6.2-3.3,9.7-3.8c3.8,1.3,1.7,3.3,0.4,4.7c-3.1,3.4-6.2,6.8-9.8,9.6c-1.9,1.4-3.4,3-4.7,4.9c-7.4,5.4-16.2,7.7-24.5,11.1
		c-11.9,4.8-23.2,10.7-34.7,16.4c-14.5,7.2-27.6,16.6-41.1,25.3c-7.6,4.9-23.3,5.1-30-1c-17.2-15.3-38.3-23.1-59.8-30
		c-18.3-5.9-36.9-9.9-56.2-10.1C200.3,396.3,198.2,395.1,196,394z"/>
	<path class="st6" d="M221.9,369.9c-3.3-2-7.1-0.2-10.6-1.6c-16.7-7.1-19.7-29.2-5.4-41.3c34.6,4.3,68.3,12,100,27.1
		c1.8,0.9,3.7,1.6,5,3.2c1.3,1.9,0.4,3.6-0.7,5c-9.6,11.7-19.9,22.7-31.6,32.4c-2.5,0.3-4.5-1.1-6.4-2.3
		c-10.2-6.2-20.7-12.1-31.2-17.7C235,371.4,228.5,370.6,221.9,369.9z"/>
	<path class="st7" d="M195.1,469.1c2,5.4,4.7,7,11.9,5.8c13.2-2.3,26.1,0,38.8,3c28.6,6.7,52.4,21.8,72.4,43
		c4,4.2,7.5,8.7,13.5,10.3c8.9,2.3,14.6-2.9,19.8-8.5c11.3-12.2,22.9-24.1,35.3-35.1c0.5-0.4,1.1-0.8,1.5-1.4
		c9.7-12,24.1-17.7,36.3-26.3c9.7-6.9,20.4-12.3,30.1-19.3c5.6-4,12.3-6.8,18.1-10.9c9.5-6.7,19.1-13.2,26.1-22.8
		c1.8-2.5,2-6.1,5.1-7.7c-0.7,6.1-3.7,11-7.8,15.2c-14.5,15.2-32.1,26.3-49.3,37.8c-17,11.3-34.8,21.5-50.5,34.6
		c-9.4,7.8-16.9,17.4-25.3,26.1c-7.8,8.1-14.9,17-22.9,25c-8.2,8.3-21.6,6.2-29.7-3.9c-10.9-13.6-24.2-24.5-38.8-34
		c-15.1-9.9-31.6-16.1-49.2-19.5c-8.5-1.6-17.1-2.3-25.7-0.7C196.2,481.4,194.5,479.5,195.1,469.1z"/>
	<path class="st8" d="M196,394c0.2-0.4,0.4-0.8,0.6-1.3c6,4.5,13.1,2,19.7,2.9c10.2,1.4,20.3,2.8,30.1,5.6
		c20.4,5.8,40.5,12.1,58.8,23.3c5.1,3.1,9.6,7,14.4,10.6c8,6,18.9,7.2,27.3,1.8c10.6-6.8,21-14,31.7-20.4
		c9.5-5.7,19.8-10.5,29.9-15.4c13.2-6.4,27.4-10.2,40.4-17.2c2-2.3,4.9-3,7.5-4.2c8.7-4.2,17.3-8.4,25.3-13.9
		c4.5-3.2,7.8-7.1,9.8-12.2c0.4-1.1,0.4-2.8,2.4-2.6c0.3,3.8-0.5,7.5-2,11c-7.8,9.3-18.3,14.7-28.6,20.2
		c-19.4,10.3-40.1,17.7-59.8,27.4c-15.1,7.4-28.7,17.2-42.8,26.2c-3.9,2.5-8.1,4.8-11.6,7.8c-9.2,7.9-24.2,5.4-32.3-2.2
		c-1.5-1.4-3-2.6-4.9-3.4c-4-4.8-9.6-7.7-14.8-10.7c-23.5-13.8-49.2-22.2-75.9-27c-5.6-1-11.5-1.9-17.3-1.2
		C200.4,398.9,196.3,399.4,196,394z"/>
	<path class="st9" d="M457,381c-2.7,1-5.3,2-8,3c0.4-3.5,3.8-4.4,5.9-6.4c2.9-2.8,5.7-5.6,8.5-8.5c0.8-0.9,2.4-1.7,0.6-3.2
		c-0.4-2.1,1.3-2.9,2.5-4c2.6-2.6,2.5-5.2,0.2-7.9c-4.8-5.7-11.4-7.3-18.3-7.6c-12.7-0.7-24.7,2.4-36.4,7.2c-14,5.8-27,13.7-41,19.5
		c-4.5,1.8-9,3.6-13.8,4.1c-2.3,0.2-5.1,1-6.5-2.1c1.6-4,5.7-5,8.9-6.8c10.6-5.9,20.4-13.2,31.1-18.9c12.6-6.7,25.3-13.4,39.6-16
		c7.4-1.4,15-0.8,22.4-0.6c9.9,0.2,19.9,1.3,29.8,0.5c4.8,3.9,2.5,8.5,1.5,13c2.9-1.1,3.9-5.4,7.9-5.2c0.3,1,0.7,2,1,3
		c-5.2,5.6-10.4,11.1-15.8,16.4C470.2,367.1,463,373.4,457,381z"/>
	<path class="st10" d="M351,375c7.1,2.8,13.4-0.7,19.4-3.3c13.8-6.1,27.2-13.2,41.1-19.3c14-6.1,28.7-9.5,44.1-6.2
		c4.4,0.9,8.4,2.9,11.6,6.4c4.3,4.7,4.1,7.5-1.1,11.4c-0.8,0.6-1.4,1.3-2.1,2c-11.3,5.8-23.5,9.1-35.2,13.7
		c-19.5,7.5-38.8,15.7-58.3,23.1c-14.8,5.7-29.9,10.8-45.7,13c-8.8,1.2-17.1-0.7-25.1-4.5c-13.6-6.4-25.8-15-38.6-22.7
		c-10.7-6.4-21.3-12.9-33.5-16.1c-2.5-0.6-5.4,0.6-7.6-1.6c0.7-0.4,1.4-0.7,2.1-1.1c7.5-2.4,14.1,0.8,20.2,4
		c11.1,5.8,21.8,12.3,32.7,18.5c1.3,0.7,2.7,1.1,4.1,1.7c0.9-0.1,1.8,0.1,2.6,0.5c2.9,1.6,5.6,3.5,8.7,4.7c1.9,0.7,3.7,1.8,5.6,2.5
		c3.2,1.1,6.3,2.5,9.6,3.5c15.4,5.7,30.9,4,46.1-0.5c23.2-6.9,45.7-15.6,67.3-26.6c10.2-5.2,21-9.3,31.9-13c3.5-1.2,7-2.3,10.3-3.9
		c4.1-2.1,4.2-5.5,0.4-8.1c-3.1-2.1-6.8-2.5-10.5-2.8c-12.4-0.9-24.2,2.1-35.7,6.1c-8.2,2.8-15.9,6.7-23.5,11
		c-10.2,5.7-20.8,10.5-32.2,13.3c-6.4,1.6-9.4,0.2-12.1-4.7C347.9,372.8,349.1,372.7,351,375z"/>
	<path class="st11" d="M205,321c2.8,0.5,5.6,0.7,8.4,0.7c14.5,0.2,29,1.2,43.4,3.9c8.1,1.5,16.3,2.9,24.2,5.2
		c12.8,3.9,25.2,8.5,36.9,15.3c6.7,3.9,12,9.7,19.3,12.8c7.2,3.2,13.5,2,19.8-1.6c14.2-8.1,28.5-16.2,43.8-22.1
		c8.6-3.3,18.2-4.5,27.7-5.4c6.3-0.6,12.7-1.9,18.9-2.9c5.5-0.9,11.4-1,17-2c3.9-0.7,7.8-1.6,11.6-2.5c7.4-1.7,13.3-5.6,18-11.4
		c-1,6.7-6,9.4-11.4,11.9c-1.8,0.8-3.7,1.4-5.5,2.1c-1.4,1.9-3.7,2.2-5.7,2.7c-12,3.1-24.2,4.3-36.4,5.8
		c-17.9,2.1-35.2,6.5-50.7,16.5c-8.1,5.3-16.5,10-24.8,15c-10.6,6.3-20.8,5.7-30.6-2c-4.1-3.2-8.2-6.3-12.5-9.1
		c-20.6-13.6-43.4-20.8-67.6-24.4c-12.2-1.8-24.4-3.7-36.7-2.7c-2.2,0.2-3.9-0.6-4.9-2.7C205.8,323.4,205.1,322.5,205,321z"/>
	<path class="st12" d="M222.9,442.9c5.3-3.1,10.4-2.1,15.6,0.3c11.8,5.4,22.2,13.1,32.8,20.5c10.6,7.4,21.4,14.4,33.3,19.5
		c1,0.4,2.2,0.5,3.3,0.8c1,0.6,2.1,1.2,3.1,1.8c4-1.2,7.5,0.4,10.9,2.1c8.9,2.8,17-0.1,24.9-3.5c29.8-12.8,55.9-31.9,83.1-49
		c8.1-5.1,16.7-9.7,25-14.5c5.4-0.7,9.7-3.8,14.4-6.2c1.7-0.9,3.1-3.4,5.7-1.8c-4.5,6.1-11.2,9.5-17.6,12.7
		c-24.8,12.2-47.9,27.2-71.3,41.8c-14.2,8.9-28.8,17.1-44,24.2c-17.1,8-32.5,6.1-47.7-4.7c-14.9-10.5-28.7-22.5-44.1-32.3
		c-9.2-5.8-18.7-10.7-30.2-9.8C221,444.3,221.9,443.6,222.9,442.9z"/>
	<path class="st13" d="M317,353c4.3,2.2,8.1,5.1,11.7,8.3c7.3,6.4,20.2,9.4,30.3,2.5c11.4-7.7,23.6-14.2,35.5-21.1
		c9.7-5.6,20.6-6.9,31.4-8.7c17.1-2.8,34.4-4.4,51.2-9c2.2,2.8,6,3.8,8,6.9c0.3,1.7-0.9,1.9-2.1,2c-9,1.8-18,0.7-27,0.1
		c-16.9-1.1-33.4,0.4-48.9,8.3c-13.5,6.8-26.6,14.1-39.1,22.6c-5.5,3.7-11.3,6.7-17,10.1c-1.3-0.5-2.8-1.7-3,1
		c-2.8,2.8-6.4,2.7-9.8,2c-10.3-2.2-18.2-8.4-25.2-15.9c-0.9-1-1.1-2.4-1.4-3.7C312,355.1,313.6,353.2,317,353z"/>
	<path class="st14" d="M317,353c-2,1.3-3.7,3-5,5c-0.3,0.5-0.7,0.5-1,0c-21.7-10.4-44.1-18.7-67.6-23.6c-10.8-2.3-21.7-3.6-32.6-5.3
		c-1.9-0.3-3.6-0.6-4.8-2.1c0.4-1,0.8-1.9,1.2-2.9c2.6,2.4,5.6,1,8.5,1c9.1-0.1,18.2,0.7,27.2,2.1c14.2,2.2,28.4,4.5,41.9,9.7
		C296,341.1,307.2,345.7,317,353z"/>
	<path class="st5" d="M457,381c-0.3-2.3,1.1-3.7,2.6-5.1c6.3-5.9,12-12.3,18.6-18c3.4-2.9,6.3-6.8,9.5-10.1c1.5-1.6,3.2-2.9,5.2-3.8
		c1.5,2.2,1.1,4.6,1,7c-3.1,12-12.9,17.4-22.7,22.8C466.6,376.4,461.8,378.6,457,381z"/>
	<path class="st5" d="M483,334c0.7-0.7,1.4-1.4,2.1-2c3.5,2.1,4.7,5.9,6.8,9.1c-3.5,2-5.2,6.3-10.1,7.6
		C483.7,343.5,485.3,338.8,483,334z"/>
	<path class="st15" d="M319,331c9.9,3.3,20.1,3.6,30.3,2.4c21.2-2.5,41.7-8.7,62.6-13c10.3-2.1,20.9-3.6,31.5-3.5
		c5.8,0.1,11.5-1.2,17.4-1.1c2.2,0,5.5-0.1,6-3.2c0.6-3.4-2.3-5.1-4.7-6.4c-4.7-2.5-10-3.5-15.3-4.2c-19-2.6-37.7-1.2-55.9,5.4
		c-7.8,2.8-16,4.3-24.3,4.6c-3.2,0.1-5.8-0.8-8.2-5.4c9.4,4.3,17.5,1.7,25.6,0.1c9.7-2,19.2-5.3,28.9-7c15.6-2.8,31.4-3.4,46.5,2.7
		c5.5,2.3,11.8,4.7,11.6,12.6c-5.2,3.8-11.5,5-17.4,4.8c-24-0.7-47,5.1-70.1,10.5c-15.8,3.7-31.6,7.4-47.8,8.4
		c-11.5,0.7-22.5-3.1-33.2-7.5c-16.7-6.9-33.4-13.9-50.2-20.5c-9.4-3.7-19.2-6.3-30.5-6.9c4.7-2.7,8.5-2.1,12.4-1.2
		c17.9,4,34.4,12.2,51.6,18.3C296.6,324.7,307.4,329.3,319,331z"/>
	<path class="st16" d="M475,413c-5.5,2.3-10.2,6.4-16.1,8c-1.4,0.4-2.6,1.6-3.9,0c5.9-3.3,12.6-5.4,17.7-10.2c2.3-2.2,5.2-4.5,3.9-8
		c-1.4-3.9-5.1-5.5-9.2-5.8c-6.6-0.5-12.9,1.5-19,3.4c-20.3,6.2-37.9,17.3-55,29.6c-8.7,6.3-17.5,12.7-27.7,16.6
		c-3,1.1-6.2,2.8-9.4,0.2c-1.1-0.9-1.5-2.1-1.1-3.9c9.3,3.2,16.1-2.9,23.1-7c16.2-9.4,31-21.2,47.5-30.1
		c12.1-6.6,24.7-12.5,38.9-12.8c10.5-0.2,15.2,4.6,15.3,15C478.7,410,477,411.7,475,413z"/>
	<path class="st4" d="M322,488c-3.8,0.3-7.3-1.2-10.9-2.1c-0.2-2.5,1.3-4.2,3.4-3.4c3.1,1.1,5.8,3.2,8.7,4.9
		c-0.1,0.1-0.1,0.3-0.2,0.4C322.6,487.9,322.3,488,322,488z"/>
	<path class="st9" d="M311,358c0.3,0,0.7,0,1,0c6.5,12.1,22.6,20.2,36,18c2.7,4.1,6.4,4.8,10.9,3.6c11.6-3.1,22.5-8,33-13.8
		c18.5-10.2,37.9-17.7,59.5-16.8c4,0.2,7.9,0.8,11.3,3.1c2.1,1.4,3.4,3.1,3.3,5.7c-0.2,2.9-2.3,3.9-4.5,4.8
		c-9.3,3.6-18.7,6.9-27.9,10.6c-15.5,6.2-30.1,14.6-45.8,20.5c-16.8,6.3-33.4,13.2-51.2,15.8C326,411,315.1,411,305,406
		c0.1-1.8,2.5-3,1.4-5c-1-1.8-1.5-4.4-3.8-4.9c-2-0.4-3,1.7-4.3,2.9c-1.2,1.1-1.9,2.7-3.1,3.8c-1.7-0.9-3.4-1.9-5.1-2.8
		c0.2-0.3,0.3-0.6,0.6-0.8c8.3-5.1,12.4-12.2,10.3-22.5c-3.4,2.5-6,5.9-9.2,8.8c-3.6,3.2-6.2,7.4-10.7,9.5c-0.8,0-1.6-0.2-2-1
		c6.1-6.3,12.3-12.5,18.3-18.9c4.4-4.7,8.5-9.6,12.6-14.5C310.4,359.9,310.6,358.9,311,358z"/>
	<path class="st6" d="M281,395.1c6.3-6.5,12.7-13,19-19.5c1.1-1.1,2.4-2.3,3,0.5c1.8,8.5-3.2,19.3-10.7,23.2
		c-0.7,0.4-1.6,0.5-2.3,0.7C286.5,399.1,283.6,397.4,281,395.1z"/>
	<path class="st6" d="M295,402.9c-0.1-4.4,3.9-5.7,6.2-8.3c0.5-0.6,1.8-0.8,2.3-0.1c1.7,2.4,3.7,4.7,4.7,7.4
		c0.9,2.2-1.7,3.1-3.2,4.3C301.4,405.9,298.5,403.5,295,402.9z"/>
</g>
</svg>
