<?xml version="1.0" encoding="utf-8"?>
<!-- Generator: Adobe Illustrator 19.0.0, SVG Export Plug-In . SVG Version: 6.00 Build 0)  -->
<svg version="1.1" id="Calque_1" xmlns="http://www.w3.org/2000/svg" xmlns:xlink="http://www.w3.org/1999/xlink" x="0px" y="0px"
	 viewBox="0 0 612 792" style="enable-background:new 0 0 612 792;" xml:space="preserve">
<style type="text/css">
	.st0{fill:#FDA4FD;}
	.st1{fill:#E6A9E2;}
	.st2{fill:#E4BA30;}
	.st3{fill:#C690C2;}
	.st4{fill:#D0A82B;}
	.st5{fill:#D299CD;}
	.st6{fill:#F8C727;}
	.st7{fill:#FCBDF8;}
	.st8{fill:#CB93E9;}
	.st9{fill:#EDB9FD;}
	.st10{fill:#FDCCFD;}
	.st11{fill:#F3C1F3;}
	.st12{fill:#D79ED3;}
	.st13{fill:#E2AFE0;}
	.st14{fill:#A6769E;}
	.st15{fill:#C892C5;}
</style>
<g>
	<path class="st0" d="M365.1,373.1c5.5-4.8,10.2-10.4,16.6-14.3c20.3-12.6,49.5-9.9,65,6.5c9.4,10,14.2,22.3,16.3,35.7
		c4.1,26-4.9,48.7-17.9,70.3c-9.6,15.9-21.5,29.9-34.1,43.4c-12.5,13.4-26.3,25.4-39.4,38.1c-8,7.8-18.5,10.3-29,11.9
		c-18.8,2.9-37.4,1.2-55.4-5c-7.2-2.5-13.6-6.3-18.8-12.5c-7.4-9-16.1-16.8-24-25.4c-19.4-21-37.8-42.9-50-69.2
		c-8-17.3-12.1-35.3-8.3-54.2c3.9-19.5,19.5-42.6,43.7-46.8c13-2.3,25.4,0.4,37.3,5.9c7.6,3.5,14.6,7.9,20.9,13.4
		c2.4,3.9,2.6,8.1,2.2,12.5c-0.1,0.5-0.4,1-0.7,1.5c-2.9,1.1-4.1-1.4-5.8-2.8c-10.4-9.2-21.9-16.3-35.7-18.9
		c-16.6-3.1-29.9,2.1-40.4,15.6c-10.6,13.6-12.7,28.9-10.6,45.3c0.6,4.3,2.1,8.3,3.2,12.5c6.1,18.5,16.6,34.4,28.4,49.6
		c11.1,14.2,23.2,27.5,36,40.1c4.6,4.6,8.8,9.6,13.1,14.4c4.4,5,9.9,8,16.1,9.6c17.2,4.6,34.7,6.2,52.4,2.5
		c7.3-1.5,13.9-4.5,19.5-9.5c14-12.8,27.7-26,40.7-39.9c17.1-18.2,32.1-37.9,40.8-61.7c1.3-4,2.9-8,3.7-12.2
		c3.7-15.7,1.9-30.7-4.7-45.3c-8-17.5-27.5-25.9-47.6-20c-13.4,3.9-23.2,11.9-28.7,25c-2.4,5.7-5.6,7-10.9,4.9
		c4.3-5.2,5.4-11.3,4.9-17.9C363.7,375,364.1,373.8,365.1,373.1z"/>
	<path class="st1" d="M169,318c0.7-5.9,4.6-10.3,8.1-14.6c16.8-20.1,38.2-33.8,62.4-43.1c7.8-3,15.7-5.2,24-6.3
		c1.2-0.2,2.5-0.2,3.1-1.3c6.5-9.8,17.1-12.8,27.4-15.8c28.6-8.3,56.4-6.4,83.1,7.2c4.3,2.2,8.6,4.6,9.7,10
		c-1.6,4.7-5.8,6.3-9.9,7.5c-9.1,2.8-18.5,4.1-28,4.8c-14.9,1.1-29.9,1.8-44.8,0c-2,0-4,0.1-5.9,0.8c-19,7.7-37.8,15.6-53.7,29
		c-6.6,5.6-12.8,11.6-18,18.5c-1.5,1.9-2.7,4.3-5.5,4.7c-11-3.8-22.3-5.9-34-5.2c-5.2,0.3-10.2,0.7-14.9,3.2
		C171.3,318,170.2,318.5,169,318z"/>
	<path class="st2" d="M288.8,385c0.1-0.3,0.2-0.6,0.3-1c6.1-2.1,8.4-6.8,9.2-12.9c1.5-10.1,1.3-20.2,0.8-30.3
		c-0.2-3.4-0.4-6.8-3.2-9.7c-2.1-2.2,0.1-4.2,1.7-5.9c-6,5.9-8.5,6.2-12.7,1.7c-1.6-3.6,1.1-4.8,3.5-5.8c6.1-2.6,12.6-3.6,19.2-4.2
		c2.8,2.9,1.3,6.6,1.9,9.9c-0.6,2.4-2.9,2.9-4.7,4.3c12.4,1.3,24.7,2.3,37,0.6c1.6-0.2,3.3-0.2,4.8,0.7c1.8,5.4,0.5,10.8-0.4,16.1
		c-2.4,13.5-4.1,27.3-11.6,39.4c-3.1,5.1-7.1,9.1-12.5,11.7c-0.8,0.3-1.6,0.5-2.5,0.5c-8.8-0.6-17.6-1.6-25.6-5.7
		C289.1,391.9,287.8,389.3,288.8,385z"/>
	<path class="st3" d="M309.1,326.7c-2.4-3-0.6-6.6-1.4-9.8c0.7-11.6-0.6-23.3,1.1-34.9c0.4-2.9-0.3-4.5-3.6-4.1
		c-1,0.1-2.2-0.6-3.2-1c1.5-3.9,1.5-7.9,1-11.9c9.1-0.2,18.2,1.6,27.3,1c14.3-1,28.7-1.3,42.7-4.8c5.3-1.3,9.9-3.5,13.9-7.2
		c2.8,7.3,1.7,11.1-4.8,15.2c-8.2,5.2-17.5,7.1-27,7.7c-3.8,0.2-5,1.4-5.2,5.3c-0.6,11.6-1.8,23.2-2.7,34.7
		c1.9,7.2-0.4,10.9-7.3,12.4c-6.2,1.4-12.5,1.2-18.9,1c-1.5,0-3-0.2-4-1.5c-0.3-1.4,0.8-1.7,1.7-1.9c7.4-1.5,11.2-6.9,13.7-13.2
		c2.4-6,4.9-11.9,5.5-18.5c0.3-2.9-0.7-3.8-3.5-3.9c-4.3-0.1-8.6,0.5-12.9,1c-3,0.4-3.7,2.5-4.1,4.9c-1.1,7.5-2.7,15-4.4,22.5
		c-0.6,2.5-0.4,5.4-2.6,7.3C310,327.3,309.5,327.2,309.1,326.7z"/>
	<path class="st4" d="M322,398.9c13-7.9,16.9-21,20-34.6c2.4-10.3,3.4-20.8,5-31.2c0.3-0.8,0.8-1.6,1.6-1.7c7-0.6,13.6-3.1,20.2-5.2
		c-1.9,15.6-3.9,31.2-3.7,47c-0.1,3-0.5,6-0.2,8.9c0.5,5.4-1.4,9.3-6.1,11.9c-1.7,3-5,2.9-7.8,3.8c-4,1.2-8.1,1.7-12.2,2.5
		c-1.4,0.2-2.9,0.3-4.4,0.2C330.3,400.1,325.8,401.8,322,398.9z"/>
	<path class="st5" d="M303,265c2.7,4.2,2.9,8.3-1,11.9c-9.5,0.8-17.9,4.8-26.2,9.1c-14.7,7.6-28.5,16.5-39.1,29.6
		c-2.5,3.1-4.9,6.3-5.9,10.3c-4.6-0.2-6.4-4-8.9-7c10.3-15,23.6-26.9,39.2-36c12.3-7.2,25.5-12.8,38.8-17.8
		C300.9,264.8,302,265.1,303,265z"/>
	<path class="st4" d="M285,327c5.8,2.8,8.1,2.2,12.6-3.3c0.8-0.9,1.2-3.1,2.7-2c1.5,1,0.1,2.4-0.9,3.3c-2.6,2.5-5.3,4.4-0.2,7.9
		c1.9,1.3,1.6,6.2,1.6,9.4c0,11,0.4,22-1.9,32.9c-1.3,6.2-4,8.8-9.8,8.9c-0.4-4.4-0.8-8.7-1.3-13.1c0-11.9-1.5-23.7-2.5-35.5
		C285.2,332.6,285.2,329.8,285,327z"/>
	<path class="st6" d="M368.8,326.1c-4.7,4.1-10.6,5.2-16.5,5.8c-1.8,0.2-3.6,0.1-5.3,1.1c-9.2,1.3-18.5,1.2-27.7,0.9
		c-5.8-0.2-11.6-1.1-18-1.8c2.5-2.9,6.1-2.9,7.8-5.4c0.3,0.1,0.6,0.1,1,0c2.5-0.7,4.8-0.5,6.8,1.3c8.6,1.8,17,1.2,25.5-0.8
		c2.3-0.5,3.7-1.7,3.8-4.4c0-2,0.7-3.9,1-5.8c5.4,0.9,10.9,1.5,16,3.4C365.7,321.3,369.3,321.8,368.8,326.1z"/>
	<path class="st7" d="M222,319c3.5,1.6,5.7,4.9,8.9,7c-2.6,8.6-9.5,11.2-17.5,12.4c-14,2-27.4,0-39.6-7.4c-5.6-3.4-6.8-7.3-4.9-12.9
		c4.9-3.8,10.6-5,16.7-5.1C198.2,312.6,210.5,313.3,222,319z"/>
	<path class="st8" d="M448,442c-5.2,16-14.3,29.8-24.5,43c-14.6,18.9-31.7,35.3-49.3,51.3c-5,4.6-9.1,10.2-15.4,13.3
		c-13,6.3-26.9,7-40.8,6.1c-6-0.4-12.1-1.6-18.1-2.5c-13.7-2-23-10.3-31.2-20.3c-2.3-2.8-4.8-5.5-7.4-8.1
		c-16.9-16.9-32.7-34.8-45.9-54.9c-6.7-10.3-12.8-21-16.3-32.9c1.7-0.5,2.9,0.5,4,1.6c10.8,10.9,24.9,15.1,39.2,18.6
		c22.9,5.6,46.1,8,69.7,8.6c8.8,0.2,17.6,1.2,26.4,0.7c28.1-1.5,56.2-2.7,83.2-11.7c8.1-2.7,16-5.7,22.6-11.4
		C445.1,442.5,446.3,441.5,448,442z"/>
	<path class="st9" d="M448,442c-12.9,11.4-28.8,15.8-45.2,19.1c-17.9,3.7-36,4.9-54.2,6.2c-18.3,1.3-36.4-0.3-54.7-1.1
		c-18.6-0.8-36.9-3.8-54.9-8.2c-10.8-2.7-21.4-6.3-30.7-12.8c-3.4-2.4-6.3-5.4-9.4-8.1c-1.2-4.3-3.3-8.4-3-13c3-3.5,6.6-6,11-7.3
		c8.1-2.6,16.2-4.9,24.4-6.8c5-1.2,10.2-0.7,15.3-1.8c10.9-2.2,22-2.2,33.1-2.4c11.6-0.2,23.1-2.2,34.7-1c3.9,0.2,4.7,2.4,3.9,5.7
		c-1.6,7.4-3.5,14.8-4.4,22.4c-0.7,5.7,0.7,7.6,6.6,8.8c7.7-0.5,10.2-2.7,11.9-10c1.4-5.8,1-11.9,2.4-17.7c0.6-2.7,0.7-5.7,3.3-7.5
		c7.8-1.9,15.5,0.3,23.2,0.6c15.6,0.5,31,2.7,46.3,5.7c13.7,2.6,27.5,5.2,39.3,13.3c1.8,1.2,3.6,2.4,5,4
		C451.2,434.1,449.8,438.1,448,442z"/>
	<path class="st10" d="M452,430c-1.2,0-2.3,0-3.3-0.8c-9-7.7-20.2-10.4-31.3-13c-12.8-3-25.9-4.7-39-6.2c-13.4-1.5-26.8-2-40.3-2.9
		c-2.1-3-0.8-5.5,0.9-8c6.6-1.5,13.3-2.5,19.7-5.1c5.3,0.7,8.3-1.2,10.5-6.6c5.7-14,17.1-21.7,31.3-25.1c13.3-3.2,25.8-0.9,36.5,7.9
		c7.9,6.5,11.6,15.6,14.4,25C454.9,406.7,454.8,418.3,452,430z"/>
	<path class="st10" d="M315,406c-14.2-1-28.3,1.5-42.5,1.2c-5.2-0.1-10.7-0.1-15.7,0.5c-5.5,0.8-11.2,2.2-16.8,2.7
		c-11.6,0.8-22.2,5.3-33.4,7.8c-4,0.9-6.3,5.3-10.6,5.9c-1.9-9.4-1.8-18.7,1-27.8c3.5-11.4,9.8-20.9,19.4-28.1
		c11.2-8.4,23.6-8.6,36.4-5.2c14.2,3.7,25.6,12.1,36,22.1c-0.2,4.7,2.9,7.1,6.7,8.8c7.7,3.7,16.2,4.3,24.5,5.4
		C321.1,403.5,317.3,404.2,315,406z"/>
	<path class="st11" d="M315,406c1.2-2.6,4.6-3.6,5-6.8c0.7-0.1,1.3-0.2,2-0.3c4.3,0.1,8.6,0.2,13,0.3c0.6,1.1,0.6,2.3,0.2,3.4
		c-2.9,8.2-3.4,16.8-4.4,25.4c-0.9,7-4.6,11.9-10.7,15.1c-7.1-1.6-8.1-3.8-7.3-11c0.9-7.9,3.1-15.4,4.6-23.1
		C317.8,406.3,317,405.9,315,406z"/>
	<path class="st12" d="M316.9,328.1c-2.4,0.2-4.6-0.3-6.8-1.3c2.3-9.8,4.6-19.6,5.9-29.6c0.5-4,1.6-6.3,6.6-6.4
		c4.6-0.1,9.2-0.6,13.9-0.7c1.7,0,3.7,0,3.3,2.4c-1.7,10.9-4.4,21.5-11.3,30.4C325.7,326.5,321.8,328.7,316.9,328.1z"/>
	<path class="st13" d="M320,443c9.5-7.8,10.4-18.4,10.7-29.8c0.1-4.4,2.4-9.5,4.2-14c1.4-0.1,2.7-0.1,4.1-0.2
		c-0.3,2.7-0.6,5.4-0.9,8c-3.3,7.7-2.5,16.1-4.1,24.2C332.3,439.8,328.9,442.8,320,443z"/>
	<path class="st14" d="M190,334.1c-5-1-9.6-2.8-13.1-6.5c-3.9-4-3.2-8,2-10.2c3.5-1.5,7.3-2.2,11.2-2.3c8.5-0.1,16.9,1,24.9,4.1
		c0.3,2.7-1.9,2.9-3.6,3c-7.9,0.7-14.4,3.9-18.8,10.7C191.9,333.7,191.1,334.5,190,334.1z"/>
	<path class="st15" d="M190,334.1c5.1-8.2,12.2-13.1,22.2-13.1c1.3,0,2.2-0.6,2.7-1.8c0.8,0.3,1.6,0.5,2.3,1
		c2.8,1.9,6.9,3.3,6.3,7.4c-0.6,3.9-4.1,5.6-7.8,6.8C207,337,198.5,336.6,190,334.1z"/>
</g>
</svg>
