<?xml version="1.0" encoding="utf-8"?>
<!-- Generator: Adobe Illustrator 19.0.0, SVG Export Plug-In . SVG Version: 6.00 Build 0)  -->
<svg version="1.1" id="Calque_1" xmlns="http://www.w3.org/2000/svg" xmlns:xlink="http://www.w3.org/1999/xlink" x="0px" y="0px"
	 viewBox="0 0 612 792" style="enable-background:new 0 0 612 792;" xml:space="preserve">
<style type="text/css">
	.st0{fill:#744C24;}
	.st1{fill:#EECEB3;}
	.st2{fill:#EECBEC;}
	.st3{fill:#65431F;}
	.st4{fill:#F3D1B4;}
	.st5{fill:#FDE6FB;}
	.st6{fill:#FCE6FA;}
	.st7{fill:#6B4521;}
	.st8{fill:#E7D0E3;}
	.st9{fill:#DABBA2;}
	.st10{fill:#DABBA3;}
	.st11{fill:#58371A;}
	.st12{fill:#C4A690;}
	.st13{fill:#FBE4F8;}
	.st14{fill:#392A44;}
	.st15{fill:#D6B89F;}
	.st16{fill:#A18473;}
	.st17{fill:#543E66;}
	.st18{fill:#DEBFA4;}
	.st19{fill:#553E67;}
	.st20{fill:#543E65;}
</style>
<g>
	<path class="st0" d="M330,268c7-0.8,14-2.6,21.1,0c6.7,2.5,13.2,5.4,18.2,10.8c4.3,8.4,8.7,16.8,10.9,26
		c3.1,12.9,4.6,25.8,1.7,38.9c-3,13.5-1.9,26.7,3.6,39.5c1.3,2.9,2.7,5.7,5,8c2.8,5.8,6.2,11.4,5.7,18.2c-0.2,3.6-1.5,6.8-4.1,9.3
		c-0.8,0.8-1.9,1.6-3.1,1c-0.9-0.5-1-1.7-0.9-2.7c0.2-3.1-0.3-6-2-8.6c-2.5-4.3-6.6-5.1-11-5.2c-2-0.1-3.9,0-5.9,0.1
		c-1.3,0.2-2.6,0.5-3.8,1c-3.2,1.2-4.5,3.2-2.5,6.5c3.8,6.1,2,11.8-1.4,17.3c-1,1.6-1.9,4.1-4.1,3.8c-2.2-0.3-1.5-3-2.3-4.5
		c-1.5-5-3.2-9.8-9.6-10.1c-1.8,0-3.6,0.3-5.3,1.1c-4.7,2.2-5.1,4.1-1.9,8.2c3.9,5,6.7,10.3,4.8,17c-0.8,2.8-2.3,5.1-4.5,7
		c-1.7,1.4-3.6,3-5.8,2c-2.4-1.1-0.9-3.5-1.1-5.4c0.4-3.8-1.5-5.5-5.1-5.9c-2.2-0.2-4.3-0.7-6.4-1.2c-5.2-1.1-8.7-4-9.5-9.5
		c-0.5-5.8,0.2-11.5,2.1-17c2.5-7.4,2-14.6-1.4-21.6c-1.8-4.5-5-8.1-7.8-11.9c-3.2-4.4-5.9-9.1-7.6-14.3c-0.8-2.7-1.2-5.5-2.2-8.2
		c-2.2-8.2-3.9-16.5-4.3-25c0-1.1,0.1-2.1,0.4-3.1c2.7-14.4,8.7-27.4,16.7-39.5C312.8,280.8,320.1,273,330,268z"/>
	<path class="st1" d="M290.9,332.3c0.2,8.7,2.7,17,4.2,25.5c1,2.6-1.1,3.6-2.5,4.9c-4.9,4.7-10.4,8.7-14.7,14.2
		c-3,3.9-3,7.5-0.8,11.5c1.9,3.4,4.5,6.2,7.3,8.8c10.9,10.3,11.7,22.8,4.4,36c-6.7,12.2-16.9,21.5-28,29.5
		c-12.2,8.8-21.8,19.9-31.7,30.9c-7.8,8.6-15.7,17.3-25.3,24c-1.3,0.9-3,1.5-3.7,3.2c-1,1-2.1,0.9-3.2,0.3c-3.5,0.1-6.9,0.1-9.9-2
		c-4.8-3.4-5.4-10.4-1.4-15.3c1.2-1.5,3.8-2.1,3.4-4.8c0-2.6,2.4-3.4,3.9-4.7c10.8-9.1,23-16.6,32.6-27.1
		c8.1-8.8,15.5-18.2,23.6-26.9c-3.6,3.7-8.2,6-12.3,9.1c-1.1,0.8-2.3,1.7-3.6,0.8c-1.5-1.1-1.1-2.7-0.6-4.1
		c1.3-4.1,1.7-8.1,0.2-12.2c-1.3-3.5-3.4-6.1-7.2-6.9c-3.6-1.8-7.2-1.7-11-0.1c-4.4,1.9-9.3,2.5-13.4,5c-2.8,1.6-5.1,3.6-5.8,6.9
		c-0.3,9.6,3.1,13.9,14.4,18.3c0.9,0.4,1.7,0.7,2.6,1.1c2.3,0.8,4.6,0.5,6.9,0c1.3-0.3,2.9-0.4,3.6,0.9c0.8,1.4-0.4,2.5-1.4,3.4
		C214,469,207,476,199.4,482.4c-3.8,3.2-7.4,6.7-11.4,9.5c-1.8,1.3-3.2,3.5-5.9,3c-0.9-1.5-1.1-3.1-1-4.8c0.3-17.3-8-17.2-19.9-15.7
		c-8.4,1-16.6,1.5-24-3.5c-0.9-0.5-1.8-1.1-1.1-2.3c7.9-4.8,16.3-9.1,23.4-15.1c5.1-4.3,10.4-8.2,16.8-10.6c3.7-1.4,6.4-4.3,8-7.9
		c1.9-4.2,4.9-7.5,8-10.7c5-5.2,9-11.1,13.4-16.7c1.4-1.7,2.8-3.6,5.2-3.6c5.5,0.2,10.4-2.2,15.6-3.3c11.5-2.5,17.2-12.5,13.4-23.7
		c-0.3-1-0.7-1.9-0.1-2.9c3.1-1.3,6,1.4,9.1,0.2c8.3-1.1,14-6.7,19.4-12.2c5.2-5.3,8.7-11.6,9.8-19.2
		C278.6,338.8,286.4,332.8,290.9,332.3z"/>
	<path class="st2" d="M356.1,426.9c1.1,1.2,0.6,2.9,1.2,4.2c7.2-6.1,8.3-13,3.4-20.8c-1.6-2.6-0.9-4.4,1.4-5.9
		c2.1-1.3,4.4-2.2,7-2.2c4.1,3.2,4,8,4.6,13.1c3.3-1.3,5.6-3.5,8.1-5.2c1.7-1.1,3.1-3.1,5.6-2.3c3,3.5,2.4,7.6,1.7,11.9
		c5.8-3.8,7.8-10.6,5.2-17.3c-1.4-3.5-2.8-7-4.3-10.5c-2.3-3.7-1.2-6.9,1.5-9.8c2.8-2.9,6-5.2,10-3c4.2,2.3,6.1,0.5,7.6-3.1
		c1,0.9,1,2.1,0.8,3.3c-0.4,3.4,1,4.8,4.3,6.1c7,2.7,9.4,9.2,10.6,15.8c1.3,7.1-0.7,12.7-7.4,17.4c-40.2,28.7-80.1,57.8-120.1,86.8
		c-12.3,9-24.1,18.7-37,26.9c-10.5,6.7-21.7,12.3-33.7,16c-4,1.2-7.9,0.9-11.9,0.6c-3.2-0.3-4.6-2.6-3.3-5.8
		c0.7-1.7,1.7-3.2,2.6-4.8c3.9-6.2,3.2-8.2-3.5-11.5c-1.3-0.6-3.6-0.3-3.6-2.8c1.5-2.1,3.7-2.8,6-3.2c11.4-1.8,21.2-7.2,31.1-12.9
		c23.3-13.5,42.8-32.1,65.3-46.6c6.4-4.1,12.3-9.1,18.8-13.1c1.5-0.9,2.7-2.7,4.8-1.2c-0.1,1.6-0.3,3.1-0.4,4.7
		c10.4-1.5,12.8-14.3,5.8-23.4c-1.6-2.1-6.2-3-4-6.9c2.2-3.8,6-5.5,10.5-5.4c0.3,0,0.6,0.1,1,0.2c3.5,4,3.5,4.1,4.4,15.9
		C353.4,431.5,354.1,428.5,356.1,426.9z"/>
	<path class="st3" d="M330,268c-4,4.4-9.3,7.3-13.4,11.8c-12.6,13.6-20.7,29.5-24.7,47.5c-0.1,0.6-0.6,1.1-0.9,1.7
		c-6.7,5.1-13.7,9.7-20.4,14.8c-5.8,4.5-8.8,11.1-13,16.8c-3.3,4.6-6.9,8.9-13.1,9.7c-2.9-1.5-4.5-4.3-6.9-6.4
		c-2.6-2.2-5.5-4.2-8.9-3.5c-8.3,1.7-14.8-2-21-6.7c-2.4-1.9-4.4-3.1-7.5-1.8c-2.7,1.1-3.1-0.7-2.5-2.9c1.3-2.7,3.5-4.2,6.3-5.3
		c6.3-2.3,11.1-6.2,14.2-12.5c2.8-5.8,8.5-7.6,14.5-8.2c2.3-0.3,4.7,0,7-0.1c9.8-0.1,17.3-4,22.1-12.9c2.4-4.4,4.6-8.8,7.1-13.2
		c12.2-21.1,30.8-30.5,54.8-30.2C325.9,266.8,327.9,267.6,330,268z"/>
	<path class="st4" d="M111,439c-0.7-1.6-1.5-3.3-2.2-4.9c-2.8-5.8,0.9-9.9,4-13.9c2.8-3.7,6.9-6.2,10.9-8.7
		c6.2-3.8,12.4-7.8,19.2-10.7c12.7-5.5,23.1-14.5,34.1-22.6c8.7-6.4,18.1-11.1,28.7-13.6c6.3-1.5,12.6-1.1,18.7,1.1
		c1.7,0.6,4.1,0.8,3.6,3.7c-1.6,1.2-3.4,1-5.2,1c-7.2,0.2-13.8,2.6-20.3,5.5c-1.7,0.8-3.4,1.9-4.9,3.1c-7.6,7.3-6.2,16.6,3.4,21.7
		c1.8,1,4.2,1.2,5.4,3.3c-2.3,6-7.4,9.9-10.9,15c-0.5,0.7-1.1,1.2-1.7,1.8c-4.8,4.8-4.9,4.8-9.9,0.3c-0.9-0.8-1.8-1.5-2.8-2.1
		c-4-3.3-8.4-3.9-13.4-2.6c-2.6,0.7-5.3,1.9-8.2,1.3c-2.2-2.5,0-3.9,1.4-5.4c4.9-5.3,10.8-9.2,16.4-13.7c-4.7,3.2-10.1,4.9-14.8,8.2
		c-4.6,3.3-7.9,8-13,10.8c2.1-0.2,4.3-0.9,4.1,2.3c-0.5,0.9-1.3,1.3-2,1.8c-3.6,2.3-6.6,5.2-8.7,8.9c-2.2,5.5-0.2,11.1,5,14.3
		c1.4,0.9,3,1.3,4.3,2.4c4.2,3.5,4.2,4.1-0.2,7.1c-4.5,3.1-9.2,5.9-14.1,8.3c-1.9,0.9-3.9,1.9-6.2,1.1c-2.3-1.4-2.6-3.6-2.8-6
		c-0.1-2.3,0-4.6-0.1-6.9c-0.2-7.6-2.1-9.3-9.5-8.6C116,442.4,112.8,442.5,111,439z"/>
	<path class="st5" d="M333.1,447c-6.3,3.5-12.4,7.4-18.2,11.7c-11.8,8.5-23.6,17.1-35.4,25.6c-9,6.5-16.7,14.8-26.4,20.1
		c-11.6,6.4-22.4,14.7-36,17c-3.4,0.6-6.8,1.3-10,2.6c-1.9-2.3-5.1,0.2-7-2c2.3-2.4,5.6-2.8,8.3-4.3c13.9-7.9,25.3-18.9,37-29.5
		c12.4-11.2,25.4-21.4,40.4-29c10.6-5.3,18.2-12.8,19.7-25.1c1.2-9.6-1.2-18.5-5-27.2c-0.5-1.1-1.2-2-1.6-3.1
		c-0.9-2.3-0.1-3.5,2.5-3.3c6.8,0.4,9.5,3.4,10,10.2c0.5,6.8-0.5,13.6,0.5,20.3c2.1,7.8,8.4,8.3,14.9,8.6
		C332.4,439.9,333.5,441.3,333.1,447z"/>
	<path class="st6" d="M228.1,369c-6.4-4.4-13.6-4.8-20.9-3.5c-14.8,2.7-26.8,11.2-38.3,20.2c-6.8,5.3-13.7,10.4-21.5,14.2
		c-10.2,4.9-20.1,10.2-29.2,17c-5.8,4.3-9.5,9.6-9.3,17.1c-3.6,1.3-7.3,2.2-10.6,4c-2.8,1.5-4.7,2.4-7.2-0.4
		c-2.7-3.1-2.4-5.9-0.7-9.1c3.9-7.4,10.1-12.8,16.7-17.4c9.2-6.4,18.9-12.2,28.4-18.3c3.7-2.4,7.6-4.8,10.6-8.2
		c4.9-5.6,12.2-7.1,18.2-10.7c10-6.1,19.8-12.7,29.9-18.8c2.5-1.5,2.6-4,3.8-6c-0.3,2.4,0.3,3.8,2.7,1.7c2.5-2.2,4.3-1.6,6.6,0.6
		c6,5.7,12.8,9.3,21.6,7.8c4.8-0.8,8.6,2,11.6,5.5c1.5,1.7,3.1,3.5,4.6,5.2c2.2,0.9,4.1,2.2,4.1,5c-3.3,2.7-6.1-0.2-9.1-0.9
		c-3.6,0.7-5.9-2.6-9.2-2.9C229.6,370.8,228.5,370.4,228.1,369z"/>
	<path class="st7" d="M409.2,376c0,2.1,0,4.3,0,6.6c-5,0.5-8.8-5-13.7-2.3c-4.6,2.5-6,6.7-5.4,11.7c-6.7-5.7-8.1-13.9-9.9-21.7
		c-2.4-10.7-0.6-21.3,1.4-32c1.3-6.9,0.9-14.2-0.3-21.3c-2.1-12.2-5.2-24-11.9-34.6c-0.5-0.9-1.6-2.4,0-3.5
		c16.4,16.5,26,36,25.8,59.7c-0.1,8,1.1,15.3,7.8,21.1C407.6,363.7,408.4,370,409.2,376z"/>
	<path class="st8" d="M311.9,431c-1.9-5.9-1-12.1-1.6-18.1c-1-9.6-0.6-9.8-11-11.2c4.4,8.4,7.6,17,7.8,26.4
		c0.4,14.5-6.1,24.9-18.9,31.3c-16.2,8.1-30.2,19.1-43.5,31.3c-11.4,10.4-22.6,21.1-36.3,28.5c-2.7,1.4-5.3,2.6-8.4,2.9
		c-1.1-0.1-2.3,0.1-3-1c1.1-0.1,2.3,0.1,3-1c14.5-8.1,26.7-19.1,37.5-31.6c8.1-9.4,18.3-16.4,28.4-23.4
		c12.8-8.9,24.3-19.1,31.1-33.6c1.9-4.1,3-8.5,3.6-12.9c0.7-4.9-0.6-9.2-4.2-12.7c-3.4-3.4-6.7-6.9-10.9-9.5
		c-2.4-1.5-4.5-3.5-6.1-5.8c-3.8-5.3-0.7-12.2,6-13.4c1.9,1.8,2.2,4.4,3.4,6.6c3.7,6.7,8,8.9,15.6,7.7c2.6-0.4,5.1-1.8,7.8-0.4
		c4.5,7.1,4.5,14.7,2.1,22.5C312.5,419.1,311.5,425,311.9,431z"/>
	<path class="st9" d="M182,495c14.4-10.7,27.1-23.2,40.8-35.6c-4.1-0.8-7.7,2.2-10.9-0.4c2.2-2.1,5.3-1.6,7.9-2.3
		c11.4-3.1,15.8-18.8,7.6-27.5c-0.9-0.9-2-1.7-1.6-3.2c6.8,1.4,10.8,9.6,8.6,17.9c-0.5,1.8-2,3.5-0.9,6c6.2-3.8,11.9-8.1,17.7-12.1
		c-16.9,24.4-38.6,43.9-62.4,61.3C183.7,501,182.9,500.5,182,495z"/>
	<path class="st5" d="M111,439c2.7,1.9,5.7,2.6,8.9,1.9c6.3-1.4,9.9,1.3,10,7.8c0.1,3.8,0,7.6,0.2,11.4c0.1,1,1,2,1.6,3
		c1.9,1.6,3.4,3.6,4.1,6c0.4,0.6,0.8,1.3,1.2,1.9c-6.5,0.2-12.7-0.8-18.9-3.2C108,463.9,101.8,446.5,111,439z"/>
	<path class="st10" d="M284.9,377.1c-3.6,2.6-7.2,5.4-5.8,10.5c1,3.4,4.2,5.5,7,7.5c2.6,1.8,5.1,3.6,7.4,5.9
		c9.6,9.5,10.8,17.1,5.3,29.5c-6.7,15-18.2,25.6-31.3,34.8c-12.1,8.5-23.8,17.3-33.5,28.8c-7.3,8.6-16,16-25.5,22.2
		c-2.7,1.8-5.5,3.1-8.6,3.7c2.9-4.7,8.2-6.6,12-10.3c10.3-10.1,20-20.9,29.6-31.7c9.2-10.4,21.5-17.2,31.3-26.9
		c9.4-9.3,18.3-18.9,19.5-33c0.6-7.1-2.2-13.2-7.1-18.4c-4-4.2-8.5-7.9-10.4-13.7c-1.1-3.4-0.5-6,1.4-8.8c4.6-6.7,11.3-11.2,17-16.7
		c0.9-0.8,1.8-1.5,1.9-2.7c1.2,2.6,1.9,5.3,2,8.2C294.3,371,289.4,373.8,284.9,377.1z"/>
	<path class="st11" d="M249.1,374.9c-1.4-1.7-2.7-3.3-4.1-5c7.3-3,11.8-9,15.3-15.6c5.5-10.4,15.7-15.5,24.4-22.2
		c1.6-1.2,3-2.5,4.5-3.9c1.1-1,1.7-0.7,1.8,0.7c0,1.1-0.1,2.2-0.1,3.2c-3.9,1.5-6.1,5.3-9.7,7.3c-1.4,0.8-1.7,2.6-2,4.3
		c-3,15.2-13.3,24.3-26.2,31C251.7,375.5,250.4,375.6,249.1,374.9z"/>
	<path class="st12" d="M284.9,377.1c3.2-4.6,8.1-7.4,12.2-11.1c2.8,7.4,7.6,13.5,12.2,19.7c1.2,1.6,2.4,3.2,2.8,5.2
		c-2.9,0.7-5.8,1.5-8.7,1.9c-7.5,1.2-13-2.1-16.4-9.7C286.2,381.2,285.6,379.1,284.9,377.1z"/>
	<path class="st6" d="M387.3,407.9c-4.1,2.8-8.2,5.5-12.2,8.5c-2.2,1.7-3.5,1.5-3.1-1.3c0.7-4.8-1.5-8.7-3.1-12.8
		C375.9,401.6,382.9,400.5,387.3,407.9z"/>
	<path class="st13" d="M356.1,426.9c0.2,2.4-1.1,4.2-3,5.4c-1.3,0.9-2.7,2.8-4.2,2.1c-2.1-1-0.1-2.9,0.1-4.4c0.7-5-1.5-9.4-3-13.9
		C351.9,417.2,354.6,420.1,356.1,426.9z"/>
	<path class="st14" d="M226,426c0.6,0.7,1.2,1.4,1.9,2.1c6.3,7.9,3.3,15.8-0.7,23.1c-3.6,6.6-10.3,7.4-17.2,6.9
		c-10.6-1.9-16.5-9.5-15.7-20c2,0.7,3.6,3.1,6.2,0.3c2.8-2.9,0.8-4.9-0.4-7.2c5.7-3.9,12.7-4.5,18.9-7.1
		C221.5,423.1,223.8,424.8,226,426z"/>
	<path class="st15" d="M135.9,469c-2.3-1.4-3.4-3.5-4.1-6c8.7-1.7,15.1-7.6,22.5-11.8c-0.4-2-2.9-1.7-3.3-3.4c5.8-1.8,11.5-4,17.2-6
		c9.3-3.3,15.2-11.7,13-21.1c-0.2-0.8-0.1-1.6,0.3-2.4c0.5,0.2,1,0.2,1.4,0.5c6.2,4.8,6.3,5,11.7-1c4-4.4,7.6-9.1,11.3-13.7
		c4.9-2.1,10.1-2.9,15.2-4.1c6-1.4,10-4.8,12.8-10c3.6-6.7,3.2-11-1.7-16.8c-0.7-0.9-1.7-1.6-1.5-3c3.5,0.3,6.2,2.6,9.2,3.9
		c6.1,14,0.4,24.5-15,28.2c-4.7,1.1-9.1,2.9-14,2.9c-4.2,0.1-5.4,4.6-7.5,7.4c-4.3,5.7-8.7,11.3-13.8,16.3c-0.1,0.1-0.3,0.2-0.3,0.4
		c-6.2,16.2-24,18.7-34.9,29.4C149.4,463.6,142.8,466.7,135.9,469z"/>
	<path class="st16" d="M209.9,458.1c16.6-0.9,23.8-13.1,17.9-30c2.3,0.8,3.2,2.8,4,4.8c5.4,13.5-3.9,25.8-19.9,26.2
		C211.3,458.8,210.6,458.4,209.9,458.1z"/>
	<path class="st17" d="M200.1,431.2c1.4,1.2,4.7,1,3.6,4.2c-1,2.9-2.9,5.4-5.8,6.3c-2.8,0.9-2.5-2.4-3.7-3.6
		C195,434.8,197.1,432.6,200.1,431.2z"/>
	<path class="st14" d="M230.8,370.1c5,3.4,8.3,8,6.8,14.2c-1.7,7.1-5,13.6-12.7,15.8c-6.2,1.8-12.2,4.4-18.9,3.9
		c-4.6-1.9-9.4-3.5-12.4-7.9c-4.4-6.6-3.4-12.6,3.3-18.2c2.4,0.9,0.5,2.1,0.2,3.1c-0.6,1.6-2.8,3.4-0.9,4.7c1.7,1.1,2.9-1.5,4.3-2.5
		c3.2-2.5,3.4-5.1,0.6-8c8.4-4.7,17.4-6.8,27-6.2C229,369.4,229.9,369.8,230.8,370.1z"/>
	<path class="st14" d="M181.6,418.2c3.7,9.7,0.5,18.7-9.1,23.1c-6.8,3.1-13.4,7.2-21.5,6.5c-4.6-1.9-8.6-4.1-10.2-9.4
		c-1-3.3-1.2-6.1,1-8.9c1.5,2.1,2.9,2.7,5,0.5c2.5-2.6,5.4-4.9,4.1-9.1c0.3-1.1,1.4-0.8,2-1.1c1.5-2,3.5-3.1,6-2.7
		c3.4-0.7,6.8-1.2,10-2.3C174.1,413.1,178.1,414.5,181.6,418.2z"/>
	<path class="st18" d="M159,417c-2,0.9-4,1.8-6,2.7c-1.9-4-4.1,0.7-6.1-0.2c5.2-7.9,25-21.6,34-23.3c-4,5.2-9.6,7.7-13.8,11.7
		C164.1,410.7,160.3,412.8,159,417z"/>
	<path class="st19" d="M201.1,375.2c5,2,5.4,3.6,1.5,7.6c-1,1.1-2.1,2.1-3.2,3.2c-1.3,1.3-3,2.9-4.7,1.4c-1.6-1.3-0.5-3.3,0-5.1
		c0.5-1.7,3.2-2.1,2.2-4.4C198,376.6,199.5,375.8,201.1,375.2z"/>
	<path class="st20" d="M150.9,420.9c2.6,2.1,2.7,4.2,0.2,6.5c-1.5,1.3-2.8,2.8-4.2,4.2c-1,1-2,2.6-3.6,2.2c-2.2-0.6-1.1-2.8-1.5-4.2
		C143.8,425.5,147.1,422.9,150.9,420.9z"/>
</g>
</svg>
