<?xml version="1.0" encoding="utf-8"?>
<!-- Generator: Adobe Illustrator 19.0.0, SVG Export Plug-In . SVG Version: 6.00 Build 0)  -->
<svg version="1.1" id="Calque_1" xmlns="http://www.w3.org/2000/svg" xmlns:xlink="http://www.w3.org/1999/xlink" x="0px" y="0px"
	 viewBox="0 0 612 792" style="enable-background:new 0 0 612 792;" xml:space="preserve">
<style type="text/css">
	.st0{fill:#62C9CF;}
	.st1{fill:#71E6EE;}
	.st2{fill:#D83A69;}
	.st3{fill:#E84073;}
	.st4{fill:#EB4175;}
	.st5{fill:#DE3D6D;}
	.st6{fill:#7AD5E1;}
	.st7{fill:#02A74F;}
	.st8{fill:#00B856;}
	.st9{fill:#00B957;}
	.st10{fill:#019145;}
	.st11{fill:#FA467B;}
	.st12{fill:#F9AE3B;}
	.st13{fill:#F0A13F;}
	.st14{fill:#F8A73E;}
</style>
<g>
	<path class="st0" d="M454.9,471c-3,14.8-7.7,29.2-11.4,43.8c-1.2,4.7-2.6,9.3-3.6,14c-0.7,3.3-2.2,4.4-5.8,4.4
		c-45-0.1-90-0.1-135-0.1c-53.8,0-107.7-0.1-161.5,0.1c-5,0-7.3-1.4-8.6-6.3C124,509,118.5,491,113.2,473c-0.2-0.6-0.1-1.3-0.1-2
		c2.5-2.2,5.7-1.6,8.6-1.6c35.3,0,70.6,0,105.9,0c72.6,0,145.2,0,217.8,0C448.6,469.4,452,468.6,454.9,471z"/>
	<path class="st1" d="M454.9,471c-113.9,0-227.9,0-341.8,0c2-10.6,6-20.7,9.2-31c11.3-36.5,23-72.9,34.3-109.4
		c1.2-3.8,2.9-4.9,6.6-4.8c10.7,0.2,21.3,0.1,32,0.1c1.5,1.7,2,3.9,2,6c0.1,7,2.5,13.2,6.1,19.1c0.7,1.1,1.3,2.3,1.1,3.7
		c-2.4,3.1-6.1,3.9-9.3,5.6c-12.6,6.8-24,15-31,28c-5.2,9.7-8.4,19.9-6.1,31.1c2.1,11.5,10.5,17.4,20,22c10.4,5.1,21.6,7.3,33.2,8.4
		c27.6,2.8,54-1.9,79.6-12.1c8.7-3.5,16.9-8,24.5-13.3c6.8-4.8,14.1-7.2,22.5-6.8c23.7,1,45.8-5.5,66.9-15.6
		c6.1-2.9,12.2-6.5,12.9-14.5c2-13.3-6.6-19.9-16.3-25.8c-19.5-12-41.1-18-63.3-22c-2-0.4-4.4-0.1-5.8-2.3
		c-0.9-3.9-1.6-7.7,0.7-11.4c24.4,0,48.9,0.1,73.3-0.1c4,0,5.7,1.2,6.8,5.1c9.3,31.5,19.1,62.8,28.4,94.3
		C446.1,440.5,451.5,455.5,454.9,471z"/>
	<path class="st2" d="M218.6,325.9c-2.1-14.4-1.1-28.5,4.6-42.1c0.8-1.9,1.1-4.6,3.8-4.7c3.1-0.1,4.1,2.7,4.8,5
		c2.8,9.9,5.4,19.9,9.1,29.5c0.8,2,1.5,4,2.7,7.1c1.9-9.6,3.5-18.1,5.3-26.5c1.1-5.2,2.5-10.3,4-15.4c0.8-2.7,2.2-5.5,5.5-5.8
		c3.5-0.3,4.7,2.7,5.7,5.3c3.2,8.3,6.3,16.7,10.2,25c0.5-8.2,1-16.5,1.4-24.7c0.1-2.7,0.1-5.3,0.3-8c0.1-1.2-0.7-2.9,1-3.5
		c1.4-0.5,2.5,0.8,3.4,1.6c9.3,7.9,14.9,18.1,17.5,29.9c2.1,2.5,4,5.4,7.8,2c1.1-1,2.9-0.9,4.1,0.3c1.2,1.2,1.1,2.8,0.4,4.2
		c-1.5,3.1-3.4,6.1-5.9,8.6c-3.6,3.6-5.8,7.9-6.3,13.2c2.2-1.1,3.3-3,5-4.3c1.3-0.9,2.6-1.7,4.1-0.6c1.7,1.2,1.5,3,0.6,4.5
		c-1.8,2.9-3.1,6.3-6.4,8.1c-4.5-0.3-5.6,3.8-8,6.1c-2.3,1.5-2.5,5.2-5.8,5.6c-5.6-3.3-5.7-3.9-2.1-12.8c-1.4,2.2-2,4.3-2.8,6.3
		c-1.2,2.8-3.2,3.7-6,2.9c-3-0.8-4-2.6-3.3-5.6c0.3-1.5,0.4-3,0.5-4.5c-0.9,4.5-0.4,10.1-7,10.3c-5.6,0.2-3.8-5.3-5.6-7.9
		c0.3,1.5,0.8,3.1,0.8,4.8c0,2.2-0.8,3.8-3.1,4.6c-2.3,0.7-3.9,0-5.2-1.9c-2-3.1-4.4-5.9-7-8.4c2,2.1,3.9,4.2,5.5,6.6
		c1.3,1.8,2.3,3.9,0.4,5.9c-1.7,1.8-3.9,2.4-6.4,1.4c-1.9-0.7-3.5-1.9-5.4-3.2c1.3,1.6,3.3,2.2,4.1,3.8c1.1,2.2,0,3.4-1.9,4.3
		c-1.7,0.5-3.4,0.2-5-0.6c-1.6-0.8-2.9-2-4.2-3.2c-1.4-1.3-2.6-1-3.8,0.1c-5.5,0.5-6.3,0.1-7-4.7c-0.3-2-1.6-3.6-2.2-5.5
		C220.2,334.6,217.2,330.6,218.6,325.9z"/>
	<path class="st3" d="M300.7,334.1c3.2-2.1,4.3-5.7,6.5-8.6c0.6-0.8,0.8-1.8-0.1-2.7c-1.2-1.1-2.1-0.2-3,0.6c-2.5,2.1-4.2,5-8.1,6.7
		c1.2-6.7,2.6-12.6,7.3-16.9c2.5-2.3,4-5.2,5.8-8c0.8-1.2,1.3-2.5,0.2-3.6c-1.1-1.1-2.4-0.6-3.6,0.2c-5.5,3.4-5.5,3.4-7.7-3.1
		c2.5-6.7,0.5-13.2-0.6-19.8c-0.5-3.1-1.5-6.1-0.8-9.3c0.6-2.8,1.9-3.4,4-1.4c2,1.8,4,3.6,5.7,5.5c12,13.4,23.3,27.3,25.2,46.2
		c-1.8,1.2-1.9,2.8-1.5,4.8c2.1,9-1.3,16.3-9.7,20.4c-1.8,0.9-2.7,2.3-3.7,3.9c-2.6,4.1-5.3,8.2-10.4,9.5c-1.6,0.4-2.4,1.7-2.9,3.2
		c-0.5,1.4-0.8,3.1-1.9,4.1c-9.3,8-15.4,19-24.8,27c-0.9,0.8-1.8,1.5-2.9,1.9c-3-0.1-5.7-1.4-8.7-1.9c-1.8-1.1-2.6-2.9-3.4-4.7
		c0.3-2,2-2,3.4-2.3c6.7-1.5,11.9-5.1,15.5-10.9c1.2-1.9,2.4-3.6,4.9-3.8c7-0.8,10.9-5.5,13.4-11.4c1.5-3.5,3.2-6,7.2-6.7
		c3.9-0.7,5.3-4.3,7.1-6.9c-2.4,2.5-4.5,5.7-8.2,7.1c-3,1.2-5.5,0.8-5.7-3c-0.2-3.4-3-5.5-3.8-8.6
		C295.6,337.8,297.7,335.6,300.7,334.1z"/>
	<path class="st4" d="M238.2,351c1.4,1,3,1.1,4.7,1c0.4,0.3,0.6,0.7,0.5,1.2c-3.7,5.2-8.7,9-13,13.7c-1.6,1.7-3.2,3.5-2.8,6.1
		c0.2,1.3,0.2,2.9,1.6,3.4c1.3,0.5,2.1-0.8,2.9-1.6c5.1-5.4,11.2-9.9,15-16.5c0.2-0.4,0.7-0.7,1.2-0.9c1.8-0.5,3.5-0.4,4.8,1.2
		c0.8,3.2-1.3,5.3-2.9,7.5c-5.6,7.5-12.8,13.4-19,20.2c-3.7,0.5-6.4-1.6-9.3-3.3c-1.1-0.8-2.3-1.6-3.4-2.4c-2.6-2-5.4-3.9-7.3-6.6
		c-3-4.1-5.4-8.5-7-13.4c-0.6-1.8-1.5-3.7-0.3-5.6c-5.9-8.7-8.6-18.4-8.6-28.9c1-6.9,0.6-14,2.8-20.7c0.6-1.9,1-3.9,1.8-5.7
		c0.8-1.9,1.3-4.7,4-4.4c2.3,0.3,2.6,2.9,3,4.8c2.1,8.9,4.4,17.7,8.3,26.1c3.7,3.8,4.6,9,7,13.4c1.5,1.9,2.5,3.6,2.4,6.4
		c-0.1,3,3,3.1,5.6,2C233.4,347.4,234.6,352.2,238.2,351z"/>
	<path class="st5" d="M274,393.9c9.5-6.3,13.1-18.1,22.8-24.4c2.9-1.8,4.8-4.9,5.4-8.6c0.4-2.2,1.6-4.1,4.4-3.9
		c1.7,0.1,2.8-0.9,3.9-1.9c4.9-4.7,7.5-11.2,14.6-14.3c4.7-2,5.1-11.2,3.1-16c-0.9-2.3,0.6-4.4,3.5-4.8c0.4,2,0.9,4.1,1.3,6.1
		c0.1,3.9,0.1,7.8,0.2,11.7c1.2,1.8,1.3,3.8,1,5.8c-2,11.9-5.9,22.8-13.4,32.8c-6.7,9-14.5,14.1-25.4,15.7c-5,0.8-9.7,3.4-14.9,4
		C278.1,396.2,275.4,396.9,274,393.9z"/>
	<path class="st6" d="M222.1,339.4c-3.5-3.8-5.4-8.6-7-13.4c1.2,0,2.4-0.1,3.6-0.1C219.8,330.4,220.9,334.9,222.1,339.4z"/>
	<path class="st7" d="M274,393.9c4.3,2,8.6,0.6,12.6-0.6c4.6-1.4,9.1-2.9,13.9-3.7c12.5-2.3,18.4-12.4,24.4-21.9
		c5.7-9.1,7.6-19.4,8.3-30c21.5,3,42.1,8.8,61.6,18.5c2.6,1.3,5,3.1,7.5,4.7c-1.3,3.7-4.6,3.2-7.5,3.6c0.6,1.1,1.9,1.2,2.6,2
		c1.5,1.6,2,3.4,1.4,5.5c-0.6,2.2-2.4,3-4.5,3.3c-4,0.5-8.2-0.3-12.6,0.8c2.1,1.7,4.2,1.6,6,2.3c2.1,0.9,4.1,1.8,4.1,4.4
		c0,2.4-1.5,4-3.6,5c-3.4,1.6-7.1,1.9-10.6,2.7c-0.8,0.2-1.6,0.3-2.5,1.2c0.7,1.8,2.7,2,4.1,2.9c2.1,1.5,4.1,3,3.7,6
		c-0.4,2.7-2.5,3.8-4.8,4.5c-8.2,2.5-16.5,4-25.1,3.1c-9-1-17.4-0.1-26.3,2.6c-21.8,6.5-43,4.4-62.6-8.2c-2.2-1.4-4.4-1.2-6.7-1.2
		c-4,0-8-0.2-11.7-2.1c-1.7-0.9-3.8-1.6-3.9-4.1c0.5-0.7,1.3-1.2,2.1-1c7.3,1.8,14.3,0.6,21.3-1.8
		C268.4,391.1,271.1,393.1,274,393.9z"/>
	<path class="st8" d="M242.1,394.7c1.9,3.8,6.2,5.3,9.2,4.9c9.3-1.4,15.9,4.2,23.5,7.3c19.2,7.8,38.7,8,58,0.6
		c3.5-1.3,6.8-1.7,10.2-1.3c11.5,1.3,23,1.6,34.2-2.1c2.1-0.7,4.4-1,4.7-3.7c0.2-2.6-1.8-3.7-3.8-4.7c-2.3-1.2-4.6-2.4-7.3-3.9
		c3.8-3,7.8-2.6,11.4-3.7c1.3-0.4,2.6-0.6,3.9-0.9c2.4-0.6,4.6-1.7,4.7-4.4c0.1-3.1-2.9-2.6-4.7-3.5c-1-0.5-2.3-0.5-3.4-0.9
		c-1.5-0.5-4.2,0-4.1-2c0.2-2.2,2.9-2.2,4.8-2.3c3.3-0.2,6.7-0.1,10-0.1c2.1,0,4.2,0,4.5-2.7c0.3-2.7-0.8-4.6-3.5-5.2
		c-1.5-0.3-2.9-0.6-4.5-2.3c4.2-1.7,9.1,0.6,12.3-2.9c4.6,2.1,8.2,5.6,11.7,9.1c4.7,4.8,6,10.5,5.1,17c-2.1,6.2-7.3,9.4-12.6,12
		c-14.3,7.1-29.3,12.5-45.3,14.6c-1.6,0.2-3.3,0.7-4.9,0c-0.7-0.4-1-1.2-1.6-1.8c-1.9-2-3.5-2.5-4.2,0.9c-0.2,1-0.6,1.8-1.6,2.2
		c-4.9,0.9-9.8,0.8-14.7,0.1c-2.4-0.9-2.1-2.4-0.9-4.2c-2,0.6-3.4,1.8-4,3.8c-10.2,4.6-19,11.6-29,16.5c-1.6,0.8-3.2,1.9-5.2,1.2
		c-1.4-2.3,0.7-3.2,1.8-4.5c3.3-3.6,7-7,10.2-10.9c-4.5-1.7-3.7-1.4-20.2,15.2c1.7,0.5,4-1.2,5.1,1.3c-0.2,0.7-0.5,1.3-1.2,1.6
		c-9,4.3-18.4,7.3-28.3,8.6c-2.2-1.6-0.4-2.6,0.7-3.4c8.6-6.4,15.3-14.8,23-22c0.8-0.8,2.6-1.7,1.2-3.2c-1-1.1-2.5-0.5-3.7,0.3
		c-1.1,0.7-2,1.7-2.9,2.7c-6,6-11.9,12-18,18c-2.7,2.7-5.3,5.5-7.2,8.8c-3.8,2.1-7.9,1.9-12,1.9c-3.7-3-0.6-5.1,1.2-6.9
		c7.2-7.4,14.5-14.6,21.8-21.9c1.6-1.6,3.3-3.2,4.9-5c0.7-0.8,2-1.7,0.8-2.9c-1-1-2.2-0.5-3.2,0.1c-1.3,0.8-2.3,1.9-3.3,3
		c-8.1,8.1-16.2,16.2-24.4,24.3c-2.5,2.4-5.4,4.6-3.3,8.8c0.2,0.3-0.4,0.9-0.8,1.2c-4.8,1.8-9.9,1-14.8,0.9
		c-7.8-0.2-15.6-0.4-23.1-2.8c-2-1.8-1-3,1-3.4c2.4-0.6,4.1-2.1,5.7-3.8c11-11.1,22.1-22.1,33.2-33.2c0.8-0.8,1.7-1.6,2.4-2.6
		c0.5-0.7,0.8-1.5,0.2-2.2c-0.6-0.7-1.5-0.7-2.3-0.4c-1.3,0.5-2.2,1.5-3.1,2.4c-11.8,11.8-23.5,23.6-35.3,35.2c-2,2-2.6,4.4-3.8,6.8
		c-10.2-0.2-19.1-4.3-27.5-9.7c-3.2-2-6.3-4.2-8.6-7.4c-1-1.5-2.3-2.9-2-4.9c4.7-1.2,7.6-4.9,10.8-8.1
		c12.4-12.4,24.8-24.8,37.2-37.2c1.4-1.4,2.5-3.1,4.6-3.6c2.3,2.1,4.5,4.2,6.8,6.4c-14.2,14.7-28.8,28.9-43.2,43.4
		c-1.1,1.1-2.2,2.1-3.1,3.2c-0.9,1.1-2.5,2.3-0.9,3.8c1.5,1.3,2.8-0.1,3.8-1.1c15.4-15.8,31.7-30.7,46.5-47.2c3,1.3,6,2.6,9,4
		c1.6,0.3,2.5,1.6,3.7,2.6C236.9,391,240.7,391.4,242.1,394.7z"/>
	<path class="st9" d="M212.2,373.6c-2.1,3.5-5.3,5.9-8.1,8.7c-12.5,12.7-25.2,25.2-37.8,37.8c-1.8,1.8-3.5,3.7-6.4,1.8
		c-2.6,0.8-1.6-2.4-3.2-2.8c-2.5-13.8,1.9-25.9,9.7-36.9c9.3-13.2,22.7-21.1,37.3-27.4C205.5,361.6,208.2,367.9,212.2,373.6z"/>
	<path class="st10" d="M156.8,419.2c2.2-0.4,1.3,2.8,3.2,2.8c2.5,7.2,8.7,10.7,14.6,14.1c7.2,4.2,15.1,6.6,23.4,7.8
		c0.3-0.4,0.7-0.4,1,0c7.3,2.5,14.9,2.6,22.4,2.8c5.5,0.2,11.2,1.3,16.7-0.8c1.6-1.5,3.3-1.3,5-0.1c4.3-0.8,8.8-0.4,13-2
		c1.8-1.3,3.7-2.4,6-1c10.3-2.5,20.7-4.6,30-9.9c0.7-1,1.8-1.2,2.9-1c6.3-1.8,11.7-5.4,17.1-8.9c5.4-3.5,10.8-6.9,16.9-9.1
		c1.3-1.2,2.6-1,4-0.1c5.7,0,11.3,0,17,0c1.6-2.5,3.7-2.6,6-1c14.9-1.4,29-5.9,42.7-11.8c7.8-3.4,15.1-7.4,20.4-14.2
		c0.3,7.8-5.3,11.7-11,14.7c-13.7,7.3-28.2,12.6-43.5,15.4c-8.4,1.5-16.8,2.1-25.3,1.8c-9.2-0.3-17,2.7-24.7,7.6
		c-38.9,24.5-80.9,31.7-125.7,20.6c-9.6-2.4-18.4-6.8-25.4-14.2C159.8,429,157.2,424.6,156.8,419.2z"/>
	<path class="st11" d="M234,389c-1-1-2-2-3-3c1.2-4.3,5.2-6.3,7.9-9.3c5.2-5.6,11.1-10.5,14-17.9c-0.5-4.1,1.9-7.2,4-10.2
		c1.7-2.4,4.3-1.6,5.9,0.5c4.3,5.6,10.6,8.9,15.8,13.5c2.5,2.2,4,1.6,5.2-1.2c1.5-3.5,2.4-7.2,2.9-11c0.2-1.5-0.3-3.4,1.6-4.3
		c1.4-2.1,2-4.9,4.7-6c1.2-0.9,2.1-0.4,2.8,0.8c1.4,3.4,4.7,5.5,4.5,10.1c-0.2,3.2,3.2,2.3,4.9,1c3-2.3,5.6-5,8.6-7.8
		c-0.2,5.6-3.3,9.5-8,10c-2.7,0.3-4,1.5-5,4c-2.8,7.5-6.8,13.6-15.9,14.1c-0.9,0-1.6,0.4-2,1.2c-4.2,8.9-12.1,12.5-21,14.7
		C252.8,390.5,243.6,394.9,234,389z"/>
	<path class="st12" d="M288.4,346c-0.4,6.3-1.3,12.5-4.5,18.1c-1.3,2.3-2.4,3.2-4.7,0.8c-5.5-5.6-13.1-9-17.7-15.8
		c-1.6-2.3-3.5-1-4.5,1.2c-1.4,2.8-2.7,5.6-4,8.5c-1.6-0.3-3.3-0.5-4.9-0.8c-3.3,0-3.9-2.8-5.2-4.9c0-0.4,0-0.7,0-1.1
		c3.3-1.8,1.7-2.9-0.4-4.5c-1.7-1.3-5.8-2.2-4.4-4.2c1.8-2.7,3.8,1.4,6,2.1c1.1,0.3,2,1.2,3,1.7c2.2,1.1,3.9-0.4,5.3-1.6
		c1.6-1.4-0.1-2.9-0.8-3.9c-2.1-2.8-4.1-5.7-7.1-7.7c-0.8-0.5-1.8-1.3-0.9-2.4c0.8-1,1.8-0.4,2.6,0.3c3.4,2.7,6.3,6,8.5,9.7
		c1.1,1.8,2,2.6,4.3,1.8c2.6-0.9,2-2.7,1.9-4.4c0-0.6-0.5-1.3-0.4-1.9c0.1-1.9-2.4-4.8,0.2-5.4c2.1-0.4,1.6,3.4,2.5,5.1
		c1,1.8-0.6,5.7,3.7,5.2c3.5-0.4,5.3-1.8,5.3-5.7c0-2.4,0.1-7.1,2.3-6.6c3.4,0.7-0.1,4.3,0.4,6.8c0.4,1.9-2,4.3,2,5.3
		c3.8,0.9,4.7-0.8,5.5-3.7c0.5-1.9,1.4-3.7,2.2-5.6c0.4-1,0.7-2.6,2.3-2.1c1.9,0.6,0.5,1.9,0.3,2.9c-0.2,1-0.6,1.9-1.1,2.8
		C283.8,340,283.3,343.6,288.4,346z"/>
	<path class="st13" d="M295.9,340.7c-0.9-0.3-1.9-0.5-2.8-0.8c1.2-1.7,2.4-3.5,3.6-5.2c1.1-1.5,2.4-2.2,4-0.7
		C299.1,336.3,297.5,338.5,295.9,340.7z"/>
	<path class="st14" d="M238.2,351c-4.3,3-5.5-1.8-8.1-3.1c1.1-2.1,2.3-1.9,3.9-0.4C235.3,348.7,236.8,349.8,238.2,351z"/>
	<path class="st5" d="M234,389c3.7,0.6,7.4,1.3,11.1,1.9c1.6,0.3,3.6,0.7,4.8-0.5c3.6-3.5,7.9-2.3,12-2.4c2.7,0.3,2,3,3.2,4.4
		c-7.2,5.6-15.1,4.6-23.1,2.3C239.4,392.8,236,391.9,234,389z"/>
	<path class="st9" d="M222,382c0.2,1.8-0.6,3.1-1.9,4.4c-14.9,14.8-29.7,29.6-44.5,44.5c-2,2-3.7,2.2-5.5,0.4c-2.2-2.1-0.4-3.6,1-5
		c14.8-14.8,29.7-29.7,44.5-44.5c0.9-1,1.9-1.9,3.4-1.9C220,380.7,221,381.4,222,382z"/>
	<path class="st11" d="M242.8,353.1c2.5,0.8,3,3.7,5.2,4.9c-3.7,8.7-11.9,13.5-17.9,20.2c-1,1.1-2.3,0.4-2.7-0.8
		c-1.1-3.5-2.4-7,0.9-10.1C233.1,362.6,238,357.8,242.8,353.1z"/>
	<path class="st9" d="M185.4,439c-1.5,0.1-2.8-0.5-3.5-1.7c-1.1-1.9,0.9-2.6,1.8-3.5c14.3-14.4,28.7-28.8,43.1-43.1
		c1-1,1.9-3.8,4.2-1.4c2.1,2.1,2.3,4-0.1,6.3c-11.3,11.1-22.4,22.3-33.6,33.5c-2.6,2.6-5.2,5.2-7.8,7.8
		C188.5,438.1,187.3,439.2,185.4,439z"/>
	<path class="st9" d="M199,444c-0.3,0-0.7,0-1,0c-1.3-2-1-3.6,0.8-5.3c13-12.9,26-25.8,38.8-38.8c2.1-2.1,4.1-2.1,6.1-0.4
		c2.7,2.3-0.2,3.5-1.4,4.7c-12.3,12.4-24.8,24.6-36.9,37.3C203.3,443.6,200.6,442.1,199,444z"/>
	<path class="st9" d="M214.1,443.4c8.6-8.6,17.1-17.1,25.7-25.7c4.5-4.5,8.9-9,13.5-13.4c1.2-1.1,2.6-2.1,4-2.8
		c1.9-1,3.8,0.1,4.8,1.5c1,1.4-0.9,2.3-1.7,3.1c-11.7,11.8-23.7,23.4-35.2,35.4C221.9,445,218,443.2,214.1,443.4z"/>
	<path class="st9" d="M243,446c-1.7,0-3.3,0-5,0.1c-3.3-2.4-2.5-4.3,0.2-6.8c9.5-9.2,18.8-18.7,28.2-28.1c0.8-0.8,1.6-1.7,2.5-2.4
		c2.2-1.6,4.4-0.6,5.9,0.9c1.9,2-0.8,2.8-1.8,3.8c-9,9.1-18,18.1-27.1,27.1C244.4,442.1,242.6,443.4,243,446z"/>
	<path class="st9" d="M262,443c-2,0.4-3.9,1.4-6,1c-0.3-2.1,0.9-3.4,2.2-4.7c8-8,16-16,24-23.9c0.7-0.7,1.4-1.5,2.3-1.9
		c2-1,4.3-0.2,5.6,1c1.8,1.8-0.8,2.8-1.8,3.8c-6.6,6.8-13.5,13.3-19.9,20.2C266.4,440.4,263.3,440.4,262,443z"/>
	<path class="st9" d="M295,432c-0.7,1.1-1.9,1-2.9,1c-2.7-0.7-4.9,1.5-9.2,1.7c6.8-6.9,12.6-12.7,18.4-18.5c1.2-1.2,2.6-1.4,4.2-1.2
		c1.4,0.2,3.3-0.8,4,0.9c0.5,1.4-1.2,2.2-2,3.1C303.3,423.4,299.1,427.7,295,432z"/>
	<path class="st9" d="M356,413c-2,0-4.1-0.1-6,1c0.6-1.6-2.6-2.7-0.7-4.4c1.3-1.2,3.2-0.7,4.8-0.5C356.6,409.3,355.8,411.4,356,413z
		"/>
	<path class="st9" d="M333,414c-1.3,0-2.7,0-4,0.1c-0.1-5.5,4.8-3,7-5C335.8,411.4,332.7,411.5,333,414z"/>
</g>
</svg>
