<?xml version="1.0" encoding="utf-8"?>
<!-- Generator: Adobe Illustrator 19.0.0, SVG Export Plug-In . SVG Version: 6.00 Build 0)  -->
<svg version="1.1" id="Calque_1" xmlns="http://www.w3.org/2000/svg" xmlns:xlink="http://www.w3.org/1999/xlink" x="0px" y="0px"
	 viewBox="0 0 612 792" style="enable-background:new 0 0 612 792;" xml:space="preserve">
<style type="text/css">
	.st0{fill:#B2A69C;}
	.st1{fill:#A3968D;}
	.st2{fill:#D9CBBE;}
	.st3{fill:#C7B8AC;}
	.st4{fill:#E4DAC7;}
	.st5{fill:#8BC43F;}
	.st6{fill:#639E3E;}
	.st7{fill:#958A81;}
	.st8{fill:#A2988F;}
	.st9{fill:#E3DAC9;}
	.st10{fill:#E9DECD;}
	.st11{fill:#7FB139;}
	.st12{fill:#63933B;}
</style>
<g>
	<path class="st0" d="M204.9,446.2c-0.9-12.6-10.1-21-16.1-30.8c-15.3-24.7-23.3-51.2-21.6-80.4c2.2-1.4,3,0.6,3.9,1.8
		c5.5,7.6,13.2,12.1,21.6,15.6c19,7.8,38.9,11.6,59.1,14.1c10.1,1.3,20.2,1.8,30.3,2.4c3,0.8,6.1,0.6,9.1,0.5c2.9,0,5.8,0,8.7,0
		c2,0.2,4.1-0.1,6.1,0.1c5.6,0.1,11.1-0.2,16.6-1c1.2,0,2.3-0.1,3.5,0c10.3-0.4,20.5-1.9,30.7-3c2.1-0.2,4.3-0.9,6.4-0.3
		c2.1,1.1,1.9,3,1.5,4.8c-8.2,36.1-24.4,66.5-59,83.9c-14.3,7.2-29.5,11.2-45.5,12.3c-2.5,0.2-4.9,1.1-7.4,1c-1.8,0-3.7,0-5.4-0.4
		c-11.1-2.9-22-6-31.8-12.3c-3.6-2.3-7.5-4.4-9.4-8.5C205.8,445.1,205.3,446,204.9,446.2z"/>
	<path class="st1" d="M253,466c19-1.7,37.6-5.2,54.7-14.4c20.5-11.1,35.2-27.4,44.7-48.9c4.8-10.8,8.9-21.7,11.3-33.2
		c0.2-1.1,0.3-2.3,0.4-3.5c1.3-2.2,3.6-2.1,5.7-2.5c14.9-2.7,29.5-6.6,43.3-13.1c6.8-3.2,12.5-7.5,17-13.5c0.5-0.7,1-1.3,1.7-1.8
		c0.3-0.2,0.6-0.3,1.1-0.3c1.1,1.6,0.7,3.4,0.3,5.1c-2,35.4-12.9,67.8-33.9,96.4c-2.6,3.5-1.1,7.4-3.2,10.7
		c-3.2,1.2-4.8,4.5-7.7,6.2c-10.8,6.4-22.4,11-34.6,13.7c-20.3,4.6-40.8,6.1-61.5,5.4c-11.6-0.4-23.2-1.6-34.8-3.3
		C255.6,468.8,253.3,468.7,253,466z"/>
	<path class="st2" d="M306,370.9c-2,0-4,0-6,0c-0.3-3.7,4.1-4,5.1-7.2c-3.7-0.9-7.4-0.8-11-0.1c-4.3,0.9-5.4,3.9-3.1,7.3
		c-3-0.2-6.2,0.9-9-0.9c0.5-4,5.1-6,4.9-10.3c6.4-2.8,12.4-6.4,18.8-9.3c1.9-0.9,3.4-2.6,4.7-4.3c3.1-4.1,2.9-7.3-0.6-11
		c-1.4-1.4-2.8-2.8-4.2-4.2c-1.3-1.3-2.9-2.3-4.3-3.4c-1.3-2-5.1-2.3-4.1-5.9c1.3-0.8,2.8-0.8,4.2-1c18.4-3.5,33.4-13.5,47.7-24.8
		c1.1-0.9,2.5-1.2,3.8-1.8c4.7-2.3,8.2-6.2,11.9-9.6c12.7-11.7,23.9-24.8,34.8-38.2c10.2-12.4,22.5-22.6,38.8-26.4
		c6.5-1.5,13.2-3,19.5,1.2c2.9,3.3,2.8,7.1,1.3,10.8c-4.4,11.3-11.7,20.3-21.4,27.5c-6.8,5-13.2,10.6-20.1,15.5
		c-14.2,10.2-29.3,19-43.9,28.5c-16.5,10.8-33.8,20.7-48.3,34.3c-4.9,4.6-4.6,9.1,0.5,13.5c2.6,2.3,3.6,6,7,7.7
		c0.4,0.3,0.8,0.6,1.1,0.9c-0.8,4.9-5.3,6.8-8.2,10.1c-1,0-2,0-3,0c-1.6-3.3,2.2-4.3,2.9-6.6C318.8,360.3,313.2,362.5,306,370.9z"/>
	<path class="st3" d="M333.1,359.9c-3.4,0-4.1-3.1-5.5-5.2c-1.6-2.3-2.9-4.4-7.2-2.7c2.3-3,2.9-4.8,0.6-6.9c-2-1.8-0.7-3.9,0.9-5.6
		c5.9-6.3,12.8-11.5,19.9-16.5c22.1-15.4,45.5-29,67.9-44c8.8-5.9,16.9-12.7,25.3-19.2c7.1-5.4,13.3-11.3,18.2-18.6
		c4.1-6.2,7.7-12.5,4.9-20.3c6.1,3.4,8.3,8.3,6.5,14.9c-3.1,10.9-10.3,18.8-18.5,26.1c-15.2,13.5-33.1,23.4-49,36c-1.3,1-2.6,2-4,3
		c-0.8,2.4-2.9,3.5-4.8,4.9c-16.1,12.6-32.4,25-45.7,40.8c-2.5,2.9-4.5,6.2-6.4,9.5C335.4,357.7,334.8,359.2,333.1,359.9z"/>
	<path class="st4" d="M302,327c1.5,0.8,3.3,1.2,4,3c-1,3.2-3.8,4.9-6,7.1c-5.6,5.8-11.4,11.4-17.1,17.2c-1.2,1.2-3.5,2.2-2.4,4.4
		c0.9,1.7,2.9,1,4.5,1c0.7,0,1.3,0,1.9,0.4c2.2,5.3-3.4,6.7-5.1,10c-30.7-0.6-60.7-4.7-89.4-16.1c-9.5-3.8-18.4-8.6-23.7-18
		c-0.2-0.4-1.1-0.5-1.7-0.8c-0.8-10.6,5.5-17,13.6-21.8c6.6-4,13.6-7.5,21.2-9.3c2.4,3.5,1.1,6.2-1.7,8.6c-1.8,1.5-3.8,2.7-5.6,4.2
		c-10.2,8.4-6.1,17.1,1.8,22.5c6.1,4.1,12.7,7.2,19.7,9.5c12.9,4.1,26.2,6.7,39.5,8.8c2.7,0,5.4,0.5,8.2,0.6
		c4.6,1.3,7.7-0.6,10.9-3.9C283.7,345,292.7,335.8,302,327z"/>
	<path class="st5" d="M217.2,251.8c10.4,13.3,21.8,25.7,35.3,36c1,0.8,1.7,2.1,3.3,2c7.3,6.3,10.3,14.8,12.2,23.8
		c0.7,3.4,1.5,6.8,1.1,10.3c-2.3,5.2-4.2,10.6-6.5,15.9c-5.9,4.8-11.3,4-15.5-2.3c-2.5-3.8-4.3-7.9-6.6-11.7
		c-1.4-2.3-0.9-4.3,0.5-6.5c4.4-7.2,7.4-14.8,7.8-23c-0.9,7-3.6,14-6.6,20.7c-1.8,4-3.6,4.1-6,0.6c-4-5.8-6.6-12.3-8.9-18.9
		c-0.6-1.6-0.5-3.4,0.3-4.9c3-5.1,3.4-10.7,3.2-16.4c0.2,4.4,0,8.7-1.7,12.8c-0.9,2.3-3.1,3.5-4.2,0.6c-4.3-12.2-9.7-24.1-9.1-37.5
		c0-0.7,0.1,0.2,0.1-0.5C216.4,252.4,216.8,252,217.2,251.8z"/>
	<path class="st5" d="M202.8,292.1c0.9-15.5,4.5-30.3,11.4-45.3c1.3,2.1,2.2,3.5,3.1,5c0,0-0.3,0.4-0.3,0.4
		c-1.2,5.3-0.4,10.6,1.1,15.7c4.6,15.7,8.8,31.6,16.4,46.3c3.5,6.8,7,13.6,11.2,19.9c3.4,5.2,0.2,8.5-4.9,8.3
		c-11.5-0.4-20.8-5.7-28.3-13.9c-4.2-4.6-8.7-9.2-10.6-15.5C203.1,306,202,299,202.8,292.1z"/>
	<path class="st4" d="M388,305c1.7-1.3,3.4-2.6,5-4c6.4,2.6,12.8,5.1,19.1,7.9c6,2.7,11.8,5.9,16.3,10.9c5.3,5.9,6.7,12.6,4.7,20.1
		c-0.1-1.3-0.2-2.6-0.4-4.6c-6.9,11.3-17.6,16.3-28.8,20.5c-12.9,4.8-26.3,7.8-39.9,10.2c-12.6,1.6-25.2,3.6-38,3.8
		c1.2-4.5,5.9-6.1,8-9.9c4.9-3.2,10.6-2.4,15.9-3.2c15.3-2.4,30.4-5.6,44.8-11.8c4.9-2.1,9.5-4.9,13.4-8.6
		c5.9-5.7,5.9-11.6,0.4-17.5c-4.3-4.6-9.9-7.3-15.4-10C391.2,308,388.3,308.1,388,305z"/>
	<path class="st6" d="M268.1,324.2c-0.8-11.6-3.3-22.6-11-31.8c-0.6-0.7-0.8-1.8-1.2-2.7c5.6-11.1,18.5-26.5,28.1-33.3
		c2.5,11.5,4.3,22.9,9,33.5c1,0.8,1.9,1.8,2.4,3.1c2.2,5.9,5.4,11.3,7.1,17.3c1.1,3.8,2.1,7.7-0.5,11.4c-1.6,0.1-3.2,0.1-4.9,0.2
		c-2.5,0.9-4.5-0.5-6.6-1.5c-6.9-3.2-13.4-3.7-19.2,2.4C270.4,323.8,269.4,324.5,268.1,324.2z"/>
	<path class="st7" d="M253,466c6.2,3.2,13.2,3,19.8,3.7c14.3,1.7,28.9,1.9,43.3,1.1c17.7-1,35.3-3.4,52-9.6
		c7.2-2.6,14.7-5.1,20.8-10.1c2-1.6,3.4-3.6,5-5.4c2.4-2.7,1.8,0.2,2.1,1.3c-2.2,8-8.5,12.3-15,16.1c-13.4,7.8-28.3,11.5-43.5,13.6
		c-32.6,4.5-65,3.8-96.9-4.9c-0.3-0.1-0.5-0.4-0.8-0.6c0.4-4.4,4.1-4.5,7.2-5.4C249,466,251,466,253,466z"/>
	<path class="st1" d="M202.8,292.1c0.1,7.3,0.2,14.6,0.3,22c3.4,9.1,4.9,18.7,9.1,27.6c1.2,2.5,3.8,4.7,2.9,8.1
		c-6.3-2-12.3-4.8-17.9-8.4c-13.8-8.9-13.2-19.2-0.7-27.5c3.6-2.4,6.9-4.7,5.4-9.8C202.5,300,201.5,296,202.8,292.1z"/>
	<path class="st8" d="M247,466c-1.9,2.5-5.8,2.2-7.2,5.4c-11-3.3-21.5-7.4-29.8-15.8c-2.6-2.6-4.8-5.5-5.1-9.3
		c0.2-0.8,0.1-1.8,0.6-2.3c0.5-0.5,1.1,0.3,1.4,0.8c5.5,8.6,14.3,12.2,23.4,15.4C235.8,462.2,241.4,464,247,466z"/>
	<path class="st9" d="M294,293c-0.4-1-0.7-2-1.1-2.9c19.1,0,38.2,1.3,57.3,3c1,0.1,1.9,0.6,2.8,0.9c-0.6,1.4-1.6,2-3.1,2
		c-1.8,1.1-3.6,1.5-5.7,1.2c-15-1.9-30-3.1-45.1-2.7C297.3,294.6,295.5,294.3,294,293z"/>
	<path class="st4" d="M306,370.9c1.2-5.7,5.2-8.4,10.6-9.6c0.5-0.1,1-0.3,1.5-0.3c3.4,0.2,8.1-1.6,9.9,0.8c1.6,2.2-3.5,4-4.7,6.6
		c-0.2,0.4-0.2,1-0.3,1.4C317.4,371,311.7,371.2,306,370.9z"/>
	<path class="st4" d="M291,370.9c-1.1-1.6-3.3-0.3-4.7-1.8c2.9-5.4,7.2-8.1,13.5-7.1c2.5,0.4,6.6-1.3,7.3,0.9c0.8,2.6-3,4.1-5.2,5.8
		c-0.8,0.6-1.3,1.5-2,2.2C297,370.9,294,370.9,291,370.9z"/>
	<path class="st0" d="M388,305c7.3,4,15.5,6.5,21.5,12.9c5.9,6.4,6.1,13-0.2,19.2c-7.1,6.9-16.1,10.4-25.3,13.4
		c-16.3,5.3-33.1,7.8-50,9.6c-0.3-0.1-0.6-0.1-0.9-0.1c5.6-11.9,14.3-21.3,24.1-29.9c8.7-7.7,17.7-15,26.6-22.3
		C385.1,306.6,386.6,305.9,388,305z"/>
	<path class="st10" d="M268.1,324.2c8.7-8.8,12.9-9.5,24.5-4.1c1.5,0.7,3,1.3,4.5,2c1.2,2.2,4.2,2.4,5,4.9c0,2.1-1.7,3.2-2.9,4.4
		c-8.2,8.2-16.6,16.3-24.6,24.8c-3.1,3.3-6.2,4.7-10.5,2.8c-3.3-2-2.5-5.6-3.4-8.6c0-3.9-1-7.9,1.5-11.4
		C263.4,333.8,265.4,328.9,268.1,324.2z"/>
	<path class="st0" d="M294,293c18.7-0.8,37.3,1.2,55.9,3c-5.3,6.4-12.6,9.9-19.4,14.2c-8.8,5.6-18.3,9.7-28.7,11.7
		c1.2-7.3-1.2-13.7-4.3-20.1C296.1,298.9,295.2,295.9,294,293z"/>
	<path class="st10" d="M287,360c-1.1,0.3-2.2,0.8-3.3,0.9c-2,0.2-4.3,0.2-5.3-1.8c-1-2.1,1.2-3.2,2.4-4.4
		c8.4-8.3,16.8-16.5,25.2-24.7c2.1,1.9,4.3,3.7,6.2,5.8c2.3,2.6,2.6,5.9,0.8,8.6c-3.3,4.8-6.8,9.9-13.7,9.8c-1.6,0-2.4,1.7-3.5,2.6
		C293.1,358.7,290.4,360.3,287,360z"/>
	<path class="st11" d="M262.1,339c0,4-0.1,8-0.1,12c-1.9,2.6-3.6,5.5-6,7.8c-13.9-1.8-27.6-4.3-40.9-9.1
		c-6.4-11.1-10.6-22.9-12-35.6c6,7.6,10.6,16.3,19.6,21.2c6.1,3.3,12.1,6.3,19.2,5.8c4.4-0.3,5.3-1.7,3.2-5.6
		c-4-7.8-8.8-15.2-12.6-23.1c-7.5-15.3-11.8-31.7-16.1-48c-1-3.8-1.3-8.2,0.5-12.1c-0.2,14,5.4,26.5,9.8,40.7
		c3.2-6.7,3.4-12.7,3.7-18.7c2.4,6.2,2.5,12.4-0.7,18.2c-1.6,3-1.5,5.6-0.3,8.5c2.8,6.4,5.3,12.9,9.9,18.9c3-4.5,4.2-9.5,6-14.2
		c1.8-4.8,2.4-9.9,3.6-14.9c2.1,5.7,1,11.4-0.7,16.9c-1.5,4.6-3.5,9-6.4,12.9c-1.2,1.6-1.3,2.8-0.2,4.5c2.3,3.7,4.4,7.5,6.5,11.2
		C251.9,342.7,255.9,343.5,262.1,339z"/>
	<path class="st12" d="M256,358.8c0.8-3.5,2.6-6.2,6-7.8c1.3,2.5,0.4,5.6,2,8C261.3,360.3,258.7,358.6,256,358.8z"/>
	<path class="st11" d="M239.4,327.9c-6.5,3.6-16.3,2.5-22.5-1.8C223.9,327.8,231,328.4,239.4,327.9z"/>
</g>
</svg>
