<?xml version="1.0" encoding="utf-8"?>
<!-- Generator: Adobe Illustrator 19.0.0, SVG Export Plug-In . SVG Version: 6.00 Build 0)  -->
<svg version="1.1" id="Calque_1" xmlns="http://www.w3.org/2000/svg" xmlns:xlink="http://www.w3.org/1999/xlink" x="0px" y="0px"
	 viewBox="0 0 612 792" style="enable-background:new 0 0 612 792;" xml:space="preserve">
<style type="text/css">
	.st0{fill:#FDB8FD;}
	.st1{fill:#AED9B4;}
	.st2{fill:#E7A7E5;}
	.st3{fill:#DABBA2;}
	.st4{fill:#E9A9E9;}
	.st5{fill:#D094CC;}
	.st6{fill:#EAC09B;}
	.st7{fill:#EECEB3;}
	.st8{fill:#D69AD4;}
	.st9{fill:#D7AE8D;}
	.st10{fill:#D599D2;}
	.st11{fill:#1D864F;}
	.st12{fill:#EDCEB2;}
	.st13{fill:#016A38;}
	.st14{fill:#A1C6A3;}
	.st15{fill:#026B39;}
	.st16{fill:#8DAD8F;}
	.st17{fill:#8EAD8F;}
	.st18{fill:#0C7C45;}
	.st19{fill:#A1C3A1;}
	.st20{fill:#D0E6A9;}
	.st21{fill:#D0E6AA;}
	.st22{fill:#BBC668;}
	.st23{fill:#B9C567;}
</style>
<g>
	<path class="st0" d="M310.7,243.2c10.8-15.7,26.7-21.6,44.8-22.8c24.7-1.7,44.4,8.6,60.9,26.1c1,1.1,2.3,2,2.4,3.7
		c3.9,5.9,6.3,12.3,7.6,19.3c1.2,6.2,1,12.2-1.1,18.2c-3,8.5-11.4,14.1-20.3,12.8c-18.5-2.6-37.1-2.5-55.7-2.7
		c-11.1-0.1-22.3-0.8-33.1-3.9c-3-0.9-6.1-1.8-8.9-3.1c-1.1-0.4-2-1-2.9-1.7c-2.8-2.5-3.4-6-4.6-9.3c-1.4-10,0-19.5,4.5-28.6
		C305.8,248,307.6,245.1,310.7,243.2z"/>
	<path class="st1" d="M321.6,434.3c-12.1-5.6-20.9-14.9-28.5-25.5c-4.7-6.6-9-13.4-13.5-20.2c-0.9-1.4-1.9-2.7-1.8-4.5
		c3.7,0,5.7,3.7,9.3,4.1c0.5,0.1,0.9,0.2,1.4,0.4c3.4,0.7,6.9,0.9,10.4,1.1c7.5,0.5,15-6.5,15.3-14.8c0.2-7.5-1.7-14.6-8.9-18.8
		c-5.4-4.1-11.4-5.6-18-3.5c-6.3,1.5-10.3,5.4-12.3,11.5c-0.6,1.8-0.6,4-2.3,5.3c-1.5-2.9-0.7-6.2-1.7-9.1
		c-0.5-3.6-0.8-7.2-0.3-10.8c1.6-6.8,3.4-13.5,7.2-19.5c5.6-8.7,13.7-13.8,23.3-16.9c12.5-4.1,25.4-4.5,38.4-4.1
		c4.9,0.2,9.5,1.8,14,3.4c1.3,0.6,2.4,1.3,3.3,2.4c14.9,13.8,18.6,32.2,20.1,51.1c1,12.9,0.3,25.8-4.7,38.3
		c-5.4,13.7-13.9,24.4-26.7,31.8c-0.9,0.5-1.6,1.1-2.5,1.7C335.3,440.4,328.3,438.1,321.6,434.3z"/>
	<path class="st0" d="M323.7,564.3c-5.1-1.1-9.6-3.8-13.3-7c-20.2-17.5-21.5-49.4-0.3-68.7c0.7-0.6,1.7-0.9,2.6-1.3
		c1.8,3.9-0.7,7.4-1.3,11c-2.9,19.5-2,38.5,6.8,57.4c1.4-7.6,1.1-14.7,4-21.1c1.5-4.3,3.1-8.5,5.3-12.5c1.8-3.4,3.9-6.7,6.7-9.4
		c9.5-10,21.4-16.7,32.6-24.5c3.1-2.2,6.4-4.1,9.4-6.5c0.8-0.6,1.6-1.1,2.5-1.5c4.4-1.7,6.8-5.1,8.5-9.3
		c3.5-8.5,10.2-13.6,18.3-17.5c3.1-1.5,6.2,0,9.2-1c6.2,2,12.1,4.4,17.1,8.8c2.9,3.3,1.8,6.5-0.2,9.6c-3.7,5.4-8.4,10-13.5,13.9
		c-17.3,13.1-36.1,23.7-55.2,34c-10.1,5.4-19.4,11.6-26.2,21c-3.7,5.2-6.2,11-8.8,16.8C326.6,559.1,326.1,562.2,323.7,564.3z"/>
	<path class="st2" d="M306.6,289.3c15.8,6,32.2,7.3,48.8,6.9c13.1-0.4,26.2,1.3,39.3,1.2c3.1,0,6.2,0.9,9.3,1.6
		c7.8,1.6,16.8-3.5,19.6-11c4.2-11.3,1.2-21.8-3.2-32.2c-0.8-1.8-2-3.4-1.8-5.6c9.2,9.8,14.7,21.6,16.9,34.7
		c4.1,24.6-1.3,47.7-13,69.4c-4.9-1.6-9.5-3.8-14.3-5.7c-1.6-1.8-2.4-4-3.4-6c-6.8-14-17.7-23.4-32.1-29
		c-10.1-3.9-20.6-6.4-31.1-8.7c-4.7-1-9.2-2.8-14-3.4c-5.8-1.7-11.5-3.5-16.7-6.6C308.9,293.5,306.4,292.5,306.6,289.3z"/>
	<path class="st3" d="M327.7,300.3c12.9,2.8,25.8,5.5,38.5,9.6c11.2,3.6,21.7,8.4,29.8,17.2c5.7,6.2,9.9,13.2,12.8,21.2
		c-1.3,2.4-5.4,2.1-5.5,5.3c0,3.4,3.7,3.3,5.6,5c5.4,4.8,7.2,18.7,2.8,24.6c-2,2.7-4.4,5-3,8.9c0.6,1.7-1.2,1.6-2.1,2.2
		c-6.9-1.3-11.4,1.8-15,7.6c-4.5,7.2-11.6,12.3-15.9,19.6c-7.8,7.1-16.2,13.5-25.2,19.1c-1.3-1.3-2.6-0.8-4.1-0.3
		c-9.5,3.2-17.5,0.2-24.9-5.9c5.7,1.7,11.3,3.8,17.4,3c1.3-0.2,2.7,0.2,3.7-1c13.7-5.6,22.8-16,28.2-29.4
		c10.9-27.4,7.8-54.3-4.8-80.4c-2.3-4.8-6.2-8.2-10.4-11.3c-0.7-0.6-1.4-1.3-2-1.9c1.7-1.7,3.3-0.7,5,0c5.1,2.2,8.9,5.8,11.7,10.4
		c3.1,5.1,6,10.4,7.6,16.2c1.6,5.7,2.7,11.6,3.7,17.2c1.4-9.1,0.6-18.3-0.3-27.5c-0.4-4.5-2.8-7.1-6.7-9.1c-11.5-6.1-24-9.5-36.2-14
		c-2.5-0.9-5-1.7-7.5-2.6C329.4,303.2,327.4,302.8,327.7,300.3z"/>
	<path class="st4" d="M310.7,243.2c-4.2,6.3-7.8,12.8-9.3,20.4c-1.1,5.6-0.3,11.1-0.7,16.7c-0.6,2-2.4,2.8-4,3.4
		c-14.7,5.9-21.2,18.3-25.7,32.2c-3.7,11.6-4.8,23.6-3,35.8c0.2,1.6,0.9,3.3-0.5,4.7c-10.1-9.4-15.2-21.3-15.8-34.8
		c-1.1-23.9,7.8-44.4,22.6-62.6C283.7,247.7,295.8,242.1,310.7,243.2z"/>
	<path class="st0" d="M420.8,549.2c-26.7,10.6-54.1,17.8-83.1,17c-0.4-2.6,1.9-3.3,3.3-4.5c11.7-9.8,25-17,38.4-24.1
		c13.5-7.1,27.4-13.5,40.8-21c5.8-3.2,11.3-7,16.3-11.4c3.6-3.2,5.6-2.6,6.1,2.2c1.3,11.7-0.6,22.5-9.2,31.4
		C429.6,542.8,425.8,546.7,420.8,549.2z"/>
	<path class="st5" d="M420.8,549.2c4.1-3.9,8.3-7.6,12.2-11.7c9-9.6,10-21.2,7.7-34c-21.4,18.7-47.9,27.2-71.5,41
		c-11,6.5-22.1,12.9-31.5,21.7c-4.5,0.2-8.8-0.3-13-2c4.6-13.6,12.9-23.6,26.5-29.1c12.8-5.2,26.2-8.7,38.8-14.5
		c14-6.5,26.7-14.8,37.7-25.7c2.3-2.2,4.1-4.8,5.9-7.4c1-1.4,1.6-3.5,3.9-3.3c13.3,10.7,18.3,31.2,10.9,45.2
		c-2.5,4.8-6.3,8.5-10.9,11.3C432.2,544.1,426.8,547.3,420.8,549.2z"/>
	<path class="st2" d="M437.6,484.3c-14.8,22.1-36.8,34-60.9,43.1c-11.7,4.4-24.1,7.2-34.8,14.2c-5.1,3.4-9,7.7-11.6,13.3
		c-1.5,3.3-3.2,6.5-5.6,9.3c-0.3,0-0.7,0-1,0c4.9-15.9,12.2-30.4,26.5-39.8c9.6-6.3,20.1-11,29.9-17c16.4-10,33.8-18.6,47-33.1
		c3.4-3.7,6.7-7.5,4.6-13.2C440.1,467.2,439.7,475.6,437.6,484.3z"/>
	<path class="st4" d="M323.6,534.2c-3.2,7.8-2.9,16.1-4.3,24.2c-7.8-6.3-16.2-40.7-6.7-71.2c6.8-16.7,21.7-24.7,35.8-33.8
		c1.2-0.8,2.7-1.4,4.2-1.2c2.1,2.6,0.7,5.2-0.5,7.4c-2.1,4-4.7,7.8-8.3,10.5c-7.4,5.8-11.7,13.4-14.1,22.3
		c-2.8,10-4.3,20.2-4.6,30.5C325,526.8,322.8,530.3,323.6,534.2z"/>
	<path class="st6" d="M376.7,482.4c-8.4,7.1-18.1,12.3-26.9,18.7c-5.2,3.8-10.2,8-15.1,12.1c-1.9-2.2-0.6-4.4,0.1-6.6
		c3.9-12.6,10.2-24,15.7-35.9c1.7-3.6,3.7-7.1,2.4-11.3c-0.2-2.8,1.3-5.3,0.9-8.1c0-0.7,0.1-1.4,0.1-2.1c2.9-3,7-3.5,10.6-5.2
		c2.5-1.2,3.9,0.9,4.8,3c1,2.4,0.8,4.9,0.8,7.4c0.1,7.7,1.2,15.2,5.4,21.9C376.7,478.1,377.5,480.1,376.7,482.4z"/>
	<path class="st7" d="M406.7,394.2c0.3-0.4,1.1-0.9,1-1c-2.6-5,1-7.8,3.6-11.4c4.9-6.8,0.8-20.5-6.6-24c-1.6-0.8-3.8-1.5-3.6-3.6
		c0.2-2.2,1.5-4,3.8-4.8c1.3-0.4,2.5-0.7,3.8-1.1c5.1,0.8,10,2.4,13.9,6C433.2,366.6,428,391.9,406.7,394.2z"/>
	<path class="st8" d="M267.6,356.4c-3.7-20.3-0.8-39.2,9.5-57.4c5.6-9.9,14.5-14,23.6-18.8c1.9,2.4,1.8,5.8,4.1,8
		c-0.7,2.1-2.8,2.7-4.4,3.8c-16.6,10.9-25.8,26.2-27.4,46c-0.3,3.8-1.9,7.4-1.3,11.2c-0.4,3.6,0.9,7.4-0.8,10.9
		C269.7,359,268.7,357.7,267.6,356.4z"/>
	<path class="st9" d="M376.7,482.4c-2.6-6.7-6.9-12.7-7.7-20.2c-0.4-4-0.1-7.9-0.4-11.9c-0.3-5.4-1.9-6.4-6.4-3.9
		c-2.6,1.5-5.6,1.9-8.4,2.7c-1.1-2.9-2.2-5.8-3.3-8.8c0.4-0.7,0.6-1.7,1.1-2.1c8.1-5.1,15.5-11.1,22.8-17.3c0.2-0.2,0.8,0.2,1.2,0.3
		c-2.3,8.8-3.5,17.7-2,26.8c2.6,4.4,2.1,9.7,4.2,14.3c1,2.1,1.6,4.4,2.9,6.3c4.5,6.6,4.3,7.3-2.1,12.5
		C378.1,481.6,377.4,482,376.7,482.4z"/>
	<path class="st2" d="M378.7,481.3c4-3.9,5-7.1,0.8-12.5c-4.4-5.6-5.7-13.2-5.8-20.6c13.9-1.3,27.5,0.1,40.9,4.2
		c-6.1,1.3-11.8,3-17,7.1c-4.5,3.6-7.7,7.7-9.8,12.8C386.1,476.7,383.3,479.9,378.7,481.3z"/>
	<path class="st10" d="M353.8,451.3c2.2,2.7-0.5,5.3-0.1,7.9c0.4,5-2.1,8.8-5.7,11.6c-7.7,5.9-11.4,14.1-14.2,22.8
		c-3,9.3-4.4,18.9-5.2,28.7c-1.7,4-3.4,7.9-5,11.9c-2.4-5.5,0.1-11.1,0.4-16.5c0.5-10.9,2.8-21.6,6.5-31.9
		c2.3-6.3,6.2-11.1,11.1-15.5c5.4-4.9,10.8-9.9,11-18C353.1,451.9,353.4,451.6,353.8,451.3z"/>
	<path class="st11" d="M286.8,389.1c-3.8-0.2-6.1-3.1-9-4.9c-3.1-4.5-5.1-9.3-5.3-14.8c1.3-10.7,5.5-16,14.2-17.9
		c1.4,1.3,4.3-1.4,5.1,1.8c-0.8,1-2,1.2-3.1,1.2c-9.9,0.2-15.5,11.6-11.6,21.7c2.1,5.6,6.7,8.7,11.7,11.4
		C289,389.2,287.5,388.6,286.8,389.1z"/>
	<path class="st7" d="M271.7,349.3c-2.1-7.3-0.2-14.5,1.5-21.3c4.4-17.9,14.8-31.5,31.7-39.7c0.6,0.3,1.2,0.7,1.8,1
		c3.7,5.2,9.6,6.6,15.1,8.8c2,0.8,4,1.4,6,2.2c2.9,3.4,7.5,2.9,11,5c2,1.3,2.5,2.9,1,4.9c-12.2,0-24.3,0.1-36.4,3.5
		c-16.6,4.8-26.6,15.2-30.6,31.8C272.5,346.8,272,348,271.7,349.3z"/>
	<path class="st12" d="M345.7,396.3c4.5,2.9,6.5,7.4,5.7,12.4c-0.8,5.3-4.2,8.8-9.7,10.1c-8.9,2.1-17.7,5.9-27,1.6
		c-4.6-0.8-7.5-3.3-8.2-7.9c-0.7-4.9,1.8-8.2,6.5-9.5c5.1-1.4,10.4-1.1,15.6-1.8C334.7,400.2,340.2,398.2,345.7,396.3z"/>
	<path class="st12" d="M339.7,310.2c0.1-1.7-0.1-3.4-1-4.9c12.7,4.3,25.4,8.5,37.5,14.4c3.6,1.8,6,4.4,6.5,8.7
		c1.1,11.1,1.5,22.1-0.1,33.2c-0.1,0.4-0.4,0.8-1,1.8c-1.7-8.2-2.8-16-5.1-23.3c-3-9.7-7.2-18.9-16.3-24.7c-2-1.3-4.1-2.1-6.5-1.9
		C348.9,312.7,344.6,310.2,339.7,310.2z"/>
	<path class="st13" d="M337.7,338.4c8.3-1.5,14.4,2.2,19.8,7.9c8.5,7.2,8.5,25.3-2.8,34.2c-3.2,2.5-6.5,4.7-10.9,3.2
		c-0.6-0.6-0.8-1.3-0.6-2.2c0.5-1.5,1.9-2.3,3-3.2c11.4-10.1,9.1-27.6-4.5-34.6c-1.5-0.7-3.2-1.1-4.3-2.4
		C336.8,340.3,336.9,339.3,337.7,338.4z"/>
	<path class="st14" d="M355.7,315.2c9.2,3.5,12.5,12,15.7,20c5.3,13.2,7.5,27.1,7.2,41.3c-0.5,19.7-6.2,37.5-21,51.3
		c-4.2,3.9-8.7,7.7-14.8,8.4c11-6.2,19.8-14.5,25.4-25.9c7.9-15.9,8.9-32.7,6.8-50c-1.1-9.4-3.2-18.5-6.8-27.4
		C365.4,326,360.5,320.7,355.7,315.2z"/>
	<path class="st15" d="M286.8,389.1c0.7-0.3,1.4-0.6,2.1-0.9c0.8-1,2-1.1,3.2-1.3c7.4-1.5,11.2-6.6,12.1-13.5
		c0.8-6.8-1.5-12.8-7.5-16.9c-1.6-1.1-3.8-1.5-4.9-3.3c-1.3-1.6-3.6-0.1-4.9-1.6c7-2.3,13.4-1.3,19,3.8c8.2,7.4,9.7,18.6,3.4,27.4
		c-5.4,7.7-13.3,7.8-21.5,6.8C287.4,389.3,287.1,389.2,286.8,389.1z"/>
	<path class="st16" d="M343.7,383.4c14.9-1.6,23-17.7,16.2-32.2c-0.8-1.6-1.6-3.2-2.4-4.8c7.2,2.7,9.3,17.1,7.8,23.5
		c-2.2,9.1-9.7,16-18.5,16c-3.9,0-8.2,0.3-12.1-1.3C337.4,381.9,340.6,383,343.7,383.4z"/>
	<path class="st17" d="M287.7,389.4c2.7-0.1,5.4,0.1,8-0.3c14.4-2.4,20.8-17.8,12.8-30.3c-0.8-1.3-1.8-2.4-2.6-3.6
		c7.1,2.1,10.6,14.8,9.7,20.6c-1.1,8-7,14.4-14.8,15.1C296.5,391.3,292,390.8,287.7,389.4z"/>
	<path class="st18" d="M343.7,383.4c-2.9,1.7-6.1,0.5-9.1,1.1c-11.1-2.5-18.1-11.2-18.7-23.2c-0.4-9.4,5.5-18.6,14.1-21.3
		c2.5-0.8,5.1-1.1,7.7-1.6c0,0.9,0,1.8,0,2.7c-1,1.5-2.6,1.3-4,1.6c-8.9,1.8-15.3,10.3-14.5,19.4c1,11.1,8.5,18.8,18.2,19
		c2.1,0,4.3-0.8,6.3,0.5C343.7,382.1,343.7,382.8,343.7,383.4z"/>
	<path class="st19" d="M345.7,396.3c-6.1,5.7-14.1,4.8-21.4,5.9c-3.1,0.5-6.2,0.6-9.3,1.1c-3.5,0.6-6.5,2-7.2,5.7
		c-0.7,3.8,0.3,7.2,4,9.3c1,0.6,1.9,1.3,2.8,2c-4.6,1-10.2-3.1-11.7-8.6c-1.1-3.8,1.3-7.1,6.1-8.7c6.5-2.1,13.4-1.5,20-2.6
		C334.9,399.5,339.7,395.6,345.7,396.3z"/>
	<path class="st9" d="M328.7,522.3c-2.5-3.7-0.4-7.4,0.1-11c1.4-10.6,3.7-20.9,9-30.3c2.2-3.9,4.7-7.5,8.5-10.2
		c4-2.7,5.7-7.2,7.5-11.5c2.4,4.1,0,7.7-1.7,11.1c-5.7,12-12,23.8-16.1,36.5c-0.7,2-1.5,4-1.3,6.3
		C332.7,516.2,330.7,519.3,328.7,522.3z"/>
	<path class="st20" d="M291.7,353.1c11.4,3.4,17,14.9,12.4,25.5c-2.9,6.6-8,9.8-15.2,9.6c-10.6-4.1-14.9-10.2-14.2-20.4
		C275.2,358.6,281.4,353.4,291.7,353.1z"/>
	<path class="st21" d="M343.7,381.5c-7.9,2.3-14.9,0.9-20.3-5.6c-5.9-7.1-7.3-15.2-3.6-23.8c3.3-7.7,9.5-11.2,17.9-11
		c9.6,2.1,15.1,8.3,16.7,17.7C356.1,368.6,352.7,376.5,343.7,381.5z"/>
	<path class="st22" d="M290.3,364c1.3,1.8,4,3.9,4.1,6.2c0.2,2.2-1.1,5.5-4.1,6.3c-2.1,0.6-5.4-5.4-5.1-8.8
		C285.5,366.1,288.2,363.9,290.3,364z"/>
	<path class="st23" d="M331.3,361.1c-0.2-3.3,3.5-8,5.8-6.9c2.5,1.2,3.5,4.6,4.3,7.3c0.7,2.3,0.3,5-2.6,6.3
		C334.5,369.8,331.7,367.3,331.3,361.1z"/>
</g>
</svg>
