<?xml version="1.0" encoding="utf-8"?>
<!-- Generator: Adobe Illustrator 19.0.0, SVG Export Plug-In . SVG Version: 6.00 Build 0)  -->
<svg version="1.1" id="Calque_1" xmlns="http://www.w3.org/2000/svg" xmlns:xlink="http://www.w3.org/1999/xlink" x="0px" y="0px"
	 viewBox="0 0 612 792" style="enable-background:new 0 0 612 792;" xml:space="preserve">
<style type="text/css">
	.st0{fill:#FDE6FB;}
	.st1{fill:#EECBEC;}
	.st2{fill:#FDB8FD;}
	.st3{fill:#744B24;}
	.st4{fill:#E7A7E5;}
	.st5{fill:#E6A9E2;}
	.st6{fill:#66431F;}
	.st7{fill:#CF97CB;}
	.st8{fill:#EECFB3;}
	.st9{fill:#BF8AB9;}
	.st10{fill:#D299CD;}
	.st11{fill:#E7D1E3;}
	.st12{fill:#E4C7AB;}
	.st13{fill:#D0B39B;}
	.st14{fill:#D99FD5;}
	.st15{fill:#FAE4F8;}
	.st16{fill:#E3A8DF;}
	.st17{fill:#9A7197;}
</style>
<g>
	<path class="st0" d="M388.1,356c7.5,1.4,13.8,5.9,21.4,7.5c4.1,0.9,8.2,3.9,12.5,5.6c0.1,3.3-2.9,3.8-4.8,5
		c-29.2,17.4-58.4,34.7-87.5,52.1c-26.9,16-53.9,31.7-80.2,48.8c-8.5,5.5-18.1,9.2-27.1,13.7c-4.4,2.2-9.3,3.3-14.3,3.4
		c-4.1,0.9-7.9,0.5-11.6-1.7c-4.2-2.5-8.1-5-8.6-10.6c-0.5-5.6-4.7-10.6-2.8-16.6c0.2-0.3,0.4-0.6,0.7-0.7c13-3.1,25.9-6.6,38.6-11
		c0.5-0.2,1,0.1,1.4,0.2c1.7,2.6-0.7,4.3-1.6,6.2c-1,2.3-2.6,4.6-0.7,7c1.8,2.3,4.6,1.9,7,1.1c15.7-5.1,30.1-12.5,41.2-25.2
		c4.5-5.2,5.7-11.5,7.4-17.7c1.9-7.1,4.2-14,3.8-21.5c-0.3-5.6-1.4-10.8-4.4-15.6c-4.3-7-3.5-11.3,3-16.4c4.4-3.5,9.5-5.4,15.2-5.6
		c5.8,1.6,10.1,5.6,14.7,9.1c9.7,7.4,19.3,14.7,30.2,20.2c5.7,3.8,11.4,2.4,17.1-0.1c9-4.5,16.2-11,22.1-19
		c2.9-3.9,4.9-8.3,5.6-13.2C386.5,359.2,386.5,357.2,388.1,356z"/>
	<path class="st1" d="M208,492c11.4-2.4,21.6-8.1,31.9-13.2c10.3-5.2,20-11.9,29.7-18.2c16.4-10.6,33.6-20,50.3-30.1
		c16.8-10.1,33.6-20.1,50.4-30.1c16.2-9.7,32.5-19.3,48.7-28.9c1.1-0.7,2.4-1.1,3-2.5c6.8,5.7,9.8,16,7.4,24.3
		c-0.7,2.5-2.2,3.9-4.2,5.2c-21.1,12.8-42.3,25.6-63.4,38.6c-33.3,20.5-67.2,40.2-100.1,61.6c-12.9,8.4-26.5,15.8-42.1,18.6
		c-6.7,1.2-9.8-2.3-7.6-8.7c0.4-1.3,1-2.5,1.6-3.7C216.8,498,215.3,494.5,208,492z"/>
	<path class="st2" d="M183.1,450c0-0.3-0.1-0.7-0.1-1c-1.8-5.1-3.5-6.1-8.5-4.7c-1.7,0.5-3.5,0.8-5.2,1.6c-6.7,3-13.1-1.8-12.4-9.1
		c0.3-3.1,1.8-5.7,3.4-8.2c1.1-1.8,2.9-3.8,1.4-5.9c-1.7-2.3-4.3-1.1-6.5-0.5c-3,0.9-5.9,2.3-8.9,3.2c-4.4,1.3-8.4,0.8-11.4-2.8
		c-2.9-3.6-2.8-7.8-1-11.8c1.6-3.6,4.2-6.3,7.2-8.8c8.5-7.2,18.5-12.6,26.9-19.9c1.3-1.1,2.7-2,3.7-3.4c6.1-9.2,14.3-13.2,25.3-10
		c18.2,3.6,34.6,10.9,47.7,24.6c0.7,0.8,1.2,1.7,1.4,2.8c1.9,17-7.9,27.7-20,37c-4.9,3.8-10.7,6-16.5,8.2
		c-6.4,2.5-12.8,4.6-18.9,7.7C188.3,450.2,185.8,451.9,183.1,450z"/>
	<path class="st0" d="M196.9,370c-11.3-3.3-18.4,2.1-25.4,10.5c-6.5,7.9-16.4,12.3-24.5,18.5c-4,3.1-8.4,5.9-11.1,10.5
		c-2.5,4.1-3.1,8.3-0.3,12.2c2.8,3.9,7,3.9,11.3,2.3c3.6-1.4,7.1-2.9,10.8-3.8c1.9-0.5,4.5-1.1,5.9,1.3c1.2,2.1,0.4,4.2-0.8,6.1
		c-1.5,2.4-3.3,4.5-4.2,7.3c-1.1,3.5-0.6,6.6,2.1,9.1c2.6,2.4,5.6,2.5,8.8,0.9c2.1-1.1,4.2-2,6.4-2.6c2.6-0.8,5,0.2,6.8,2
		c1.4,1.4,2,3.1,0.3,4.8c-4.5-3.4-8.9-3.1-14.4-1.8c-5.5,1.3-11.7,0.6-17.4,1.9c-7.9,1.7-15.8,0.8-23.7,0.1c-3.7-0.3-6.2-3.4-8.6-6
		c-5.4-5.7-3.2-12.1-0.8-18.3c1.2-3,2.7-5.9,3.7-9.2c-5.7,3.6-12,3.5-18,4.3c-1.7,0.2-3.2-0.1-4.7-1.3c-2.2-1.7-3-2.8-1.3-5.9
		c4.2-7.8,10.7-13.4,17.3-18.9c10.5-8.9,22.4-15.6,34.2-22.7c12.8-7.6,25.4-15.6,37.1-24.9c7.6-6,17.2-9,25.3-14.5
		c6.8-4.7,13.6-9.4,21.2-12.8c2,1.9,1.5,4.3,1.4,6.6c-0.4,8.2,3.4,13.6,10.7,16.9c2.9,1.3,5.6,2.9,8.5,4.1c1.7,0.7,3.5,1.2,4.1,3.3
		c-3.5,11.2-13.3,17.4-23.8,13.3c-11.3-4.4-21-2.3-30.6,3.8C201.2,368.2,199,369,196.9,370z"/>
	<path class="st3" d="M307.1,256c5.2-5,11.8-6.9,18.6-8.5c17-4,34.6,3.1,44.2,17.5c5.8,19-0.4,36.2-7.5,53.4
		c-4.6,11-12.1,17.5-24.2,18.4c-5,0.4-9.9,1.3-14.8-0.2c-0.5-0.3-0.8-0.7-0.9-1.3c0.6-5.7,2.1-11.4,0.1-17.2c-0.7-2,1.1-2.9,2.8-3.5
		c3.7-1.4,7.4-2.9,11-4.7c16.1-8.2,21.5-20.5,17.1-39c-0.6-1.8-1.3-3.4-2.2-5.1c-0.7-1.4-1.8-2.5-2.9-3.5c-2.4-2.7-5.4-4.5-8.8-5.6
		c-1.4-0.5-2.8-0.5-4.2-1.1c-3.9-1.9-8-1.1-12.1-1.3c-3.4,0-6.7,0.9-10,1.5C311.2,256.3,309.1,257.7,307.1,256z"/>
	<path class="st4" d="M183.1,450c6.5-0.5,11.5-4.8,17.5-6.8c7.7-2.6,15.3-5.4,22.3-9.6c9.8-5.8,16.4-14.2,20.9-24.5
		c1.9-4.3,0.9-8.8,1.3-13.3c3.6,0.2,5.2,3.2,7.1,5.5c4.6,5.4,8.1,11.5,11.7,17.7c2.2,4.6,1.6,8.9-2.1,12.3
		c-9.8,9.2-21.5,15.5-33.9,20.7c-0.6,0.3-1.3,0.1-2,0c-11.2,4.1-22.5,7.7-34.1,10.3c-2.3,0.5-4.6,0.6-6.9,0.8
		c-4.3-1.5-4.3-4.9-3.6-8.5C181.7,453,182.5,451.5,183.1,450z"/>
	<path class="st5" d="M341,394.1c-9.7-4.1-17.8-10.5-26.1-16.7c-5.8-4.3-11.2-9.2-17.8-12.4c-0.4-0.4-0.7-0.9-0.9-1.4
		c-1-7.9,2-12,9.6-13.6c1.3-0.3,2.7-0.4,4-0.3c20.6,1.6,38-6.6,54.4-17.7c3.7,1,7.4,1.9,11.1,2.9c-0.4,0.6-0.9,1-1.6,1.1
		c-13.8,2.2-21.7,11.7-27,23.4c-4.6,10.1-8,20.8-5.1,32.3C341.6,392.5,341.5,393.3,341,394.1z"/>
	<path class="st6" d="M323.1,336c6.3,0,12.6,0.1,18.8-1c10.5-1.9,16-9,19.8-18.3c4.9-11.8,8.9-23.8,9.4-36.8
		c0.1-3.5-0.4-6.9-1.3-10.3c-0.4-1.6-1.3-3.1,0.1-4.6c3.7,5.9,6.8,12,7.5,19c0.2,1.8,0.8,2.8,2.7,3.6c10.8,4.3,15.3,14.7,11.2,25.5
		c-2,5.4-5.2,10-9.5,13.9c-4.8,4.3-10.2,6.2-16.5,3.6c-1.3-0.5-2.4-1.2-3.4,0.3c-2.1,3.6-5.7,5.5-9.2,7.4c-11.3,6-23.3,9.5-36.2,9.6
		c-0.9-0.4-2.2-1.1-1.3-2.1C318.1,342.8,319.4,338.4,323.1,336z"/>
	<path class="st7" d="M341,394.1c-5-14.7,0.4-27.6,6.9-40.3c3-5.8,7.4-10.5,12.9-14.3c4.4-3,9-4.8,14.4-4.6c2.8,0,5.2,0.7,7,3
		c0.3,2,1.9,3.5,2.4,5.5c0.3,1.2,0.6,2.5-0.4,3.3c-1.3,1-2.3-0.3-2.9-1.1c-3.6-5.5-8.7-5.1-13.6-4c3.8-0.2,8.8-2.6,11.9,2.8
		c2.9,5,3.8,10.3,1.4,16.9c-3.6-5-1.2-15.5-11.7-10.3c-6.8,4-9.2,11-12.4,17.6c-0.5,0.7-0.7,1.5-1,2.3c-0.8,2.9-1,5.8,1.5,7.8
		c2.7,2.2,5.7,1,8.4-0.5c2.6-1.5,4.9-3.5,7.3-5.2c0.8-0.6,1.8-1.3,2.7-0.7c1.2,0.9,0.6,2.1-0.1,3.1c-5.3,8.2-12.5,13.7-22.2,15.6
		c-4.3,0.8-7.6-1.8-8.5-6.5c-1.4-6.8,0.8-13.1,2.7-19.4c0.1-0.7-1.1-0.3-0.4-0.3c0.2,0,0.2,0.1,0.2,0.3c-1.2,4.1-2.1,8.3-2.7,12.5
		c-0.4,2.5-0.3,5,0.3,7.4c1.1,4.4,4.4,6.6,8.9,6c1.2-0.2,2.2-0.8,3.4-0.9c1.4-0.1,3.1-1.5,3.9,0.5c0.7,1.8-1.1,2.5-2.3,3.4
		C353,397.3,347,398.8,341,394.1z"/>
	<path class="st8" d="M307.1,256c2-0.3,3.9-0.7,5.9-1c2.6-0.7,2.9,0.5,2.1,2.5c-0.6,1.4-1.8,2.4-2.8,3.5
		c-17.2,17.2-34.4,34.3-51.5,51.6c-3.2,3.2-6.4,4.6-10.6,1.9c-3.8-6-2.4-12.6,3.8-18.4C267.8,277.6,286.5,265.5,307.1,256z"/>
	<path class="st5" d="M254,296c-1.3,2.8-2.7,5.6-4,8.4c-1.6,3.4-1.3,6.6,1,9.6c4,5.2,7.9,10.6,11.7,15.9c4.1,5.6,0.6,16.8-5.6,20.1
		c-4.1-2-8.2-4.1-12.4-6c-8.3-3.7-12.5-9.8-11.8-19c0.2-2,0-4,0-5.9c2.7-7.5,5.6-14.9,13-19.3C248.4,298.2,251,296.6,254,296z"/>
	<path class="st9" d="M368,350.1c6.7-4.7,10.7-2,12.6,8.9c1.4-14.4-3-20.5-16.6-15.4c5.4-5.4,14.1-5.4,19.5,2.7
		c1.2-3.2-3.6-5.3-1.4-8.4c5.8,4.7,5.7,11.5,6,18.1c-1.5,19-13.7,29.7-29.1,38c0.5-0.8,1.1-1.7,1.6-2.5c0.1-0.2-0.1-0.6-0.2-1
		c-0.5,0-0.9,0-1.4,0.1c-12,2.7-16.1-0.8-14.9-13c0.2-2.6,0.6-5.3,1.3-7.8c0.7-2.4,1.8-4.6,3.1-6.7c-0.5,5-2.2,9.6-2.9,14.5
		c-0.7,4.4-0.5,8.5,3,11.3c3.6,2.9,7.6,1.1,11.1-0.9c9.2-5.3,11.6-7.6,16.3-15.7c-2.8,2.1-4.9,3.8-7.1,5.4
		c-3.7,2.7-7.9,5.4-12.2,2.3c-4.4-3-2.5-7.7-1.5-11.9c0-0.1,0.3-0.2,0.4-0.2c0.2,0,0.3,0.1,0.4,0.2c1.6,1.7,1.2,3.9,1.3,5.9
		c0.1,1.6,0,3.2,1.6,4.1c0.8,0.4,1.6,0.4,2.4,0.2c7.3-1.7,15.5-13.3,14.8-20.8c-0.4-3.8-1.6-6.4-5.9-6.3
		C369.4,351.1,368.6,350.8,368,350.1z"/>
	<path class="st10" d="M315.8,347.3c14.1-1.3,27.5-4.4,39.7-12c2.2-1.4,3.2-4.5,6.3-4.3c0.7,0.3,1.4,0.7,2.1,1
		c-1.4,4-5.1,5.4-8.4,7.1c-14.5,7.7-29.5,13.4-46.5,12c-9-0.7-12.1,3.2-12.2,12.8c-4.3,0.8-7.4-1.6-10.5-4c-0.3-0.5-0.5-1-0.6-1.5
		c0.2-3.6-1.9-7.3,0.2-10.8c0.4-0.3,0.9-0.7,1.3-0.6C296.9,347.8,306.4,346.9,315.8,347.3z"/>
	<path class="st11" d="M287.1,360c3.3,1.3,6.6,2.7,9.9,4c0,0.3,0,0.6,0,1c-6.6,0.8-12.5,2.8-17.3,7.7c-3.6,3.6-3.7,7.5-1.1,11.2
		c6.9,9.7,6.3,20.1,4,30.9c-1.1,5.2-3,10.1-4,15.3c-1.4,7.7-6.8,13.3-12.5,18.1c-10.6,8.9-22.7,15.4-36.1,19.3
		c-3.1,0.9-6.2,1.1-8.3-1.5c-2-2.5-0.8-5.4,0.6-7.9c1.1-2,2.3-4,3.5-6c10.9-5.3,21.8-10.8,31.5-18.2c6.2-4.7,7.4-7.7,5.5-14.8
		c0.7-2.9,2.8-4.8,4.6-7c7.7-9.7,8.1-17.1,1.4-27.7c-2.6-4.1-5.3-8-6.5-12.7c-0.7-2.5-1.7-5.2,1.4-7c6,0.1,11.6-1.5,17.2-3.6
		C282.9,360.2,284.8,359,287.1,360z"/>
	<path class="st12" d="M257.1,349.9c2.7-3,4.7-6.5,5.7-10.4c1.7-6-1.6-10.4-5.4-14.6c-2.9-3.2-5.5-6.6-6.5-11c3.5,1.6,6,0.7,8.7-2.1
		c17.3-17.6,34.9-35,52.3-52.6c0.8-0.8,5.3-1.9,0.9-4.3c3.2-1.4,6.6-1.8,10-1.8c-0.5,3.3-3.1,5-5.1,7.1
		c-16.4,16.5-32.9,33-49.4,49.5c-1.4,1.4-3,2.6-4.2,5.1c5.9,0.5,10.8,0.1,15.1-4.3c16.9-17.2,34.1-34.2,51.2-51.2
		c1.6-1.6,3-3.6,5.5-4.2c1.5-0.2,2.9-0.2,4.1,0.9c-0.1,3-2.5,4.6-4.3,6.4c-14.6,14.7-29.4,29.4-44,44.1c-1.3,1.3-2.7,2.4-4.2,5
		c7.7-2.4,14.6-3.7,20-9.1c12.3-12.4,24.6-24.7,37-37c1.4-1.4,2.6-3.1,4.7-3.6c1.3,0.8,2.1,1.9,2.6,3.3c-0.4,2.3-2.3,3.6-3.8,5.1
		c-9.3,9.4-18.8,18.7-27.9,28.4c12.4-5.2,24-11.4,30-24.4c0.8-1.8,1.6-3.7,3.9-4.2c5.4,12.5,1.7,27.4-8.9,36
		c-5.6,4.6-12.1,7.6-18.9,9.7c-2.6,0.8-3.2,1.7-2.2,4.1c2.3,5.3,0.8,10.4-1.2,15.4c-2.4,3.4-6.3,4.2-9.8,5.5
		c-6.2,2.1-12.6,3.7-19.1,2.8c-12.3-1.7-20,4.9-26.9,13.6c-5.3,6.7-7.3,14-4.9,22.4c0.5,1.7,0.9,3.6,0.9,5.4
		c0.2,3.2-1.2,5.7-4.4,6.3c-4.9,0.9-9.6,2.5-14.6,3c-10-9.2-21.1-16.5-34.2-20.5c-4.2-1.3-8.6-2.3-12.9-3.4c10-7.3,20-13.9,33.5-9.1
		c15.1,5.3,15.9,2.1,24.9-8.5C256,351.6,256.6,350.7,257.1,349.9z"/>
	<path class="st13" d="M244,394c3.8-3.2,8.6-3.3,13.1-3.9c4.2-0.6,5.4-2.7,4.6-6.5c-0.8-4-1.8-8-2-12.2
		c-0.6-10.5,14.4-26.5,22.6-28.9c1.9-0.5,4-0.6,5.9-0.5c12.2,0.8,23.8-1.4,34.7-7c0.1,0.3,0.1,0.7,0.2,1c-2.4,3.8-4.8,7.5-7.2,11.3
		c-7.9,1.7-15.9,2.6-23.9,0.9c-1.9-0.4-4-0.1-5.9-0.1c-4.3,1.7-9.2,2.4-12.3,6.3c-4.6,2.3-6.2,7.2-9.7,10.5
		c-2.3,3.7-0.3,7.1,1.2,10.3c2,4.2,4.6,8,6.9,12c4.6,7.9,3.8,15.5-1.5,22.8c-2.3,3.2-4.5,6.5-7.6,9c-4.7-6.2-8.1-13.4-13.6-19.1
		c-1.4-1.4-2.9-2.7-4.3-4C244.7,395.2,244.4,394.6,244,394z"/>
	<path class="st8" d="M336,255.1c-7.5,7.6-14.9,15.2-22.4,22.8c-11.4,11.5-23,22.6-34.1,34.4c-4.3,4.6-9.7,3.5-14.7,4.4
		c-1.8,0.3-3.5-1.4-1.3-3.6c0.4-0.3,0.7-0.7,1.1-1.1c19.5-19.6,38.9-39.2,58.4-58.7C327.3,253.5,332.1,251.2,336,255.1z"/>
	<path class="st8" d="M349.1,261.8c-2.8,4.2-6.8,7.3-10.3,10.8c-9.8,10-20,19.6-29.6,29.8c-5.9,6.2-13.7,7.8-21.2,10.1
		c-0.9,0.3-1.7,0.3-2.2-0.5c-0.6-1,0.3-1.5,0.8-2.1c1.3-1.3,2.6-2.6,3.9-3.9c14.5-14.5,29-29,43.5-43.5c2.1-2.1,4.1-4.4,6.1-6.6
		C343.8,256.7,346.8,258.7,349.1,261.8z"/>
	<path class="st8" d="M354,269.9c-1.5,2.6-3,5.2-4.4,7.8c-6.7,12.2-18.7,17.5-30.4,23c-0.5,0.2-1.2-0.1-1.9-0.2
		c11.6-12,23-23.7,34.5-35.5C352.9,266.5,353.9,268,354,269.9z"/>
	<path class="st14" d="M368,350.1c8.7-0.3,12,4.1,9,12.4c-2.3,6.3-5.6,12.1-11.7,15.6c-2.1,1.2-4.5,3.2-7.2,0.9
		c0.3-4.9,3.8-7.1,7.7-8.9c2.6-0.6,4.6-2,5.5-4.6c0.4-1.1,1-2.5-0.3-3.2c-1.4-0.8-2,0.6-2.6,1.6c-0.7,1.1-1,2.5-1.9,3.5
		c-1.9,1.5-3.3,3.5-5,5.3c-1.4,1.5-2.8,3.3-5.3,2.4c0-2.3,0-4.7,0-7C358.5,361.1,361.6,354.5,368,350.1z"/>
	<path class="st7" d="M356,375c2.6-1.1,4.7-2.7,6.1-5.2c0.8-1.4,1.9-2.6,3.7-2.8c1.3,1.2,1.3,2.5,0.3,3.9c-4,1.4-6.1,4.7-8.2,8.1
		C356.2,378.2,355.9,376.7,356,375z"/>
	<path class="st15" d="M263.9,364.9c1.6-4.8,4.1-8.9,9-11c5,0.8,10,1.6,14.1,5.1c0,0.3,0.1,0.6,0.1,0.9c-5.7,2.4-11.5,4.7-17.6,5.7
		C267.6,366,265.6,366.7,263.9,364.9z"/>
	<path class="st16" d="M287,359c-4.7-1.6-9.8-2.3-14.1-5.1c3.2-4.5,7.5-6.5,13-5.9C286.8,351.7,287.3,355.3,287,359z"/>
	<path class="st17" d="M366.2,370.9c-0.1-1.3-0.2-2.6-0.3-3.9c0.3-0.9,0.6-1.9,0.9-2.8c0.8-2.5,2.1-5.2,5.1-3.7
		c2.4,1.2,1.3,4.1,0.3,6.2C370.9,369,369.4,371.2,366.2,370.9z"/>
</g>
</svg>
