<?xml version="1.0" encoding="utf-8"?>
<!-- Generator: Adobe Illustrator 19.0.0, SVG Export Plug-In . SVG Version: 6.00 Build 0)  -->
<svg version="1.1" id="Calque_1" xmlns="http://www.w3.org/2000/svg" xmlns:xlink="http://www.w3.org/1999/xlink" x="0px" y="0px"
	 viewBox="0 0 612 792" style="enable-background:new 0 0 612 792;" xml:space="preserve">
<style type="text/css">
	.st0{fill:#B0BFC7;}
	.st1{fill:#B0BFC8;}
	.st2{fill:#A1ADB5;}
	.st3{fill:#B0BEC7;}
	.st4{fill:#87939B;}
	.st5{fill:#F1B37A;}
	.st6{fill:#F1B47B;}
	.st7{fill:#D39D6B;}
	.st8{fill:#CCDDE8;}
	.st9{fill:#869197;}
	.st10{fill:#E7E7E7;}
	.st11{fill:#C99365;}
	.st12{fill:#7D858C;}
	.st13{fill:#CA9465;}
	.st14{fill:#D9D9D9;}
	.st15{fill:#DBDBDB;}
	.st16{fill:#7D868D;}
	.st17{fill:#CEDDE7;}
	.st18{fill:#5E5955;}
	.st19{fill:#595552;}
	.st20{fill:#55504C;}
	.st21{fill:#B0827C;}
	.st22{fill:#8C989E;}
	.st23{fill:#8B979D;}
</style>
<g>
	<path class="st0" d="M247.9,466.1c-11.3-9.5-11.3-23.1-12.7-36c-0.8-7.2-1.4-14.9,0.9-22.2c1.7-1.1,3.5-0.8,5.3-0.5
		c31.4,5,63.1,4.1,94.7,3.9c5,0,9.9-1.6,14.9-0.2c3,1.7,2.6,4.6,2,7.1c-3.7,17.4-8.9,34.4-18.4,49.7c-1.2,2-2.6,3.9-4.8,4.9
		c-1.4,0.5-2.8,0.7-4.3,0.6c-17.4,0-34.8,0.8-52.2-0.9C264.6,471.6,255.9,470.3,247.9,466.1z"/>
	<path class="st1" d="M238.8,403.1c-1.7-1.8-1.4-3.8-0.8-6c3.1-13,9-24.4,18.1-34.2c1.3-0.9,2.5-0.4,3.8,0.1
		c10.9,5.1,22.8,5.9,34.5,6.3c17.9,0.7,35.8,0.6,53.5-3.2c1.5-0.3,3-0.4,4.4,0.2c3.2,2.6,3.4,6.5,3.6,10c0.7,9.5,2.7,19,1.1,28.6
		c-0.4,0.9-1.1,1.5-2,1.9c-6.7,1.5-13.6,0.8-20.4,1.2c-17.4,0.9-34.9,1-52.4-0.1c-11.6-0.7-23.3-0.6-34.8-2.4
		C244.4,405.1,241.4,404.7,238.8,403.1z"/>
	<path class="st2" d="M330,471.9c12.9-17.9,19.8-38,22-59.8c0.3-0.5,0.8-0.8,1.3-1c8.5-2,17.2-1.9,25.7-3.9
		c2.3,6.5,2.4,13.2,1.9,19.9c-0.8,10.2-2.2,20.3-5.9,30.1c-1.4,3.7-3.2,6.5-6.9,7.9c-1.5,2.7-4.2,3.7-6.9,4.6
		c-8.7,2.6-17.7,3-26.6,3.8C332.9,473.5,331.2,473.4,330,471.9z"/>
	<path class="st2" d="M368.2,471.1c-3.2,6.9-7.2,13.5-11.6,19.7c-4.8,6.6-12.2,8.9-19.8,10.4c-22.8,4.4-45.5,4.9-67.7-3
		c-1.3-0.5-2.5-0.9-3.2-2.1c1-1.2,2.3-1.2,3.7-1c20.1,2.8,36.6-4.9,51.5-17.6c0.5-0.3,1-0.5,1.6-0.6c14.3-1.1,28.6-1.6,42.4-6
		C365.9,470.5,367.1,470.3,368.2,471.1z"/>
	<path class="st3" d="M321,478.1c-3,5.3-8.4,7.7-13.2,10.5c-13,7.5-27,10.3-42,7.5c-3.6-1.1-6-3.9-7.7-6.7
		c-3.7-6.1-8-11.8-10.9-18.4c1.2-0.9,2.6-0.6,3.8-0.3c20.5,5.6,41.4,6.1,62.4,5.9C316,476.5,318.8,475.9,321,478.1z"/>
	<path class="st4" d="M353,411.9c-0.4,0-0.7,0.1-1.1,0.1c-21,1.2-42.1,1.4-63.2,0.8c-17.6-0.5-35.4-0.9-52.7-4.9
		c0.9-1.6,1.8-3.2,2.7-4.8c7.8,0.8,15.6,1.6,23.3,2.4c1,0.1,2,0.4,2.9,0.4c22.4,1.1,44.8,1.5,67.1,0.8c7.6-0.2,15.2-0.7,22.8-0.8
		C356.4,408.7,354.3,410.2,353,411.9z"/>
	<path class="st2" d="M356.1,405.1c-0.7-12.8-0.1-25.7-4.1-38.1c1.3-3.3,4.2-3.8,7.1-4.3c10,9.9,15.4,22.1,18.8,35.5
		c0.6,2.4-1.3,4.4-1,6.8c-4.3-0.2-8.5,1.2-12.8,1.3C361.4,406.4,358.5,407.1,356.1,405.1z"/>
	<path class="st5" d="M205,268.9c-7.7-9.8-14.6-20.3-23-29.7c0.5-1.6,1.3-2.2,2.9-1.2c23.3,27.5,45.2,56.2,67.1,84.9
		c8.7,11.4,17.3,22.8,25.9,34.2c3.4,3.1,7.6,5.7,7.1,11.3c-2,1.2-3.9,0.2-5.8-0.5c-7.1-5.5-11.2-13.5-16.4-20.6
		c-18.9-25.4-37.4-51.1-55.9-76.8C206.4,269.8,205.8,269.3,205,268.9z"/>
	<path class="st6" d="M414.9,256.9c-7,9-13.9,18-20.9,27c-5.2,4.7-8.5,10.9-12.6,16.5c-14.9,20.3-29.4,40.9-44.6,61.1
		c-1.5,2-3,3.9-2.9,6.6c-2.6,1.5-5.4,0.8-8.2,0.6c-2.3-1.7-0.7-3.3,0.3-4.7c1.8-2.8,3.9-5.4,6-8c0.7-1,2-1.2,2.8-2.1
		c16.7-21.7,33.4-43.4,50.3-65c8.8-11.2,17.5-22.5,27.1-33.1C413.5,255.1,414.3,255.6,414.9,256.9z"/>
	<path class="st7" d="M273.8,257.9c13.8,30.3,25.9,61.3,38.2,92.3c0.4,0.9,0.8,1.8,1.2,2.7c0.7,0.7,1.6,1.3,2,2.3
		c1.1,3.1,2.5,6.1,3.5,9.3c0.5,1.6,1.7,3.4-0.1,5.1c-2.1,0.6-4.3,0.6-6.4,0c-3.2-4.5-5.6-9.2-5.2-14.9c-10.7-30.4-21-60.9-32.9-90.8
		c-0.8-2-1.9-3.9-2.8-5.8C272,257.1,272.9,257.3,273.8,257.9z"/>
	<path class="st4" d="M321,478.1c-9.5,0-19,0.3-28.4-0.1c-15.4-0.7-30.7-1.8-45.4-7c0.3-1.6,0.5-3.2,0.8-4.9
		c3.1-0.8,5.6,1.2,8.4,1.9c11.3,3,22.8,3.8,34.4,4c11.8,0.2,23.6,0.1,35.4,0.2c0,2.8-2.8,3.8-4,5.8C321.7,478,321.3,478,321,478.1z"
		/>
	<path class="st8" d="M312,368.8c2.3,0,4.6,0,6.9,0c1.9-1.4,3.9-1.6,6-0.7c3-0.3,6.2,0.6,9.1-1c0.4-0.7,1-1,1.7-1.2
		c1-0.3,1.9-0.4,2.9-0.6c6.7-1.9,6.8-2.3,2.8-7.4c0.2-1.5,0.4-3.1,2.5-2.9c3.1,1,6.1,2,9.3,2.8c2.8,0.7,4.7,2.3,5.8,4.8
		c-2,2.1-4.8,2.7-7.1,4.3c-19.7,4.3-39.7,4.7-59.7,3.8c-12.4-0.6-25.1-1.3-36.3-7.8c1.9-4.5,7.1-4.3,10.1-7.1
		c1.4-0.2,2.5,0.6,2.7,1.7c1,5.7,5.7,7.2,10,9.2c2,0.3,4,0.7,6.1,1c0.6-0.2-0.2-0.2,0.4-0.3C294.3,367,303.2,366.5,312,368.8z"/>
	<path class="st9" d="M312,368.8c-9,0.3-18,0.4-27-1c-1.5-4.1-5.3-6.8-7-10.8c9.5-2.3,19.3-2.2,29-2.3
		C308.6,359.4,310.3,364.1,312,368.8z"/>
	<path class="st10" d="M422,245.1c0.2-4-0.3-7.9-2.2-11.6c-1.3-2.5-1.2-5.3-0.7-7.8c1.5-7.1,0.6-14.2,0.9-21.3
		c0.1-2.5-0.8-5.5,3.2-6.2c1.2-0.2,0.8-1.7,0.7-2.6c-0.2-2.3,0.7-3.8,3.1-5.2c0.6,6.1,1.3,11.7,0.2,17.7c-1.4,7.8-0.4,15.8-0.1,23.7
		c0.2,5.7-0.4,10.7-4.4,15C422.2,246.4,422,245.8,422,245.1z"/>
	<path class="st11" d="M278.9,366.8c-4.7-0.9-10-1-10.5-7.8c-0.1-1.1-1.5-2.1-2.3-3.1c-15.8-22.5-31.6-44.9-47.4-67.4
		c-4.6-6.5-9.2-13.1-13.8-19.6c3.7,0.9,4.9,4.5,6.8,7c19.1,25.7,38,51.6,57,77.4C272.2,357.9,275.6,362.3,278.9,366.8z"/>
	<path class="st12" d="M322,477.9c-0.8-3.4,2.9-3.7,4-5.8c1.3-0.1,2.6-0.1,4-0.2c13-0.6,26.1-0.6,38.1-6.9c0,2,0.1,4.1,0.1,6.1
		C353.3,476.5,337.7,477.7,322,477.9z"/>
	<path class="st13" d="M344,355.1c-0.7,1-1.4,2-2.1,3c-0.7,3.8-3,6.5-6,8.8c-0.6,0.1-1.2,0.2-1.9,0.3c-3.1-1.2-0.7-2.6,0-3.6
		c7.2-9.9,14.4-19.8,21.7-29.7c11.7-15.9,23.4-31.7,35.1-47.6c0.8-1,0.9-3,3.1-2.3c-16.1,22.9-32.3,45.8-48.4,68.6
		C345,353.4,344.5,354.2,344,355.1z"/>
	<path class="st14" d="M173.8,229c-2.2-2.9-2.7-6.2-2.9-9.8c-0.4-7.3-0.3-14.6-1.3-22c-1-7.8-0.5-16.6,1.6-25.5
		c2.6,2.2,2.7,5.1,2.4,6.4c-1.4,6.6,0.2,13.1,0,19.6c-0.3,10-0.4,20.1,1.4,30C175,228.5,174.6,228.9,173.8,229z"/>
	<path class="st15" d="M268.5,250.7c-2.9-4.3-4.4-7.5-4-12c0.4-5.4,1.3-11-1.1-16.3c-0.4-1-0.3-2.3-0.3-3.4
		c-0.2-5.4,2-10.8,0.5-16.3c-0.3-1.1,0.3-2.9,2.3-4.4C268.9,215.6,265.4,232.8,268.5,250.7z"/>
	<path class="st16" d="M356.1,405.1c5.8-0.1,11.6,0.2,17.2-1.7c2-0.7,2.6,0.7,3.7,1.7c0.7,0.7,1.3,1.4,2,2.1
		c-3.8,3.7-9,2.6-13.6,3.7c-4,0.9-8.2,0.8-12.3,1.1c-0.7-2.4,2-3.7,2-5.9C355.4,405.7,355.7,405.4,356.1,405.1z"/>
	<path class="st17" d="M314,355.1c-0.3-0.7-0.6-1.4-0.8-2.2c7.2,0.4,14.4,0.7,21.6,1.1c-0.3,1.1-1,1.8-1.9,2.3
		C326.4,358.6,320.2,357.1,314,355.1z"/>
	<path class="st18" d="M422,245.1c0.3,0.6,0.5,1.2,0.8,1.8c-2.6,3.4-4.6,7.2-7.9,10c-0.9-0.3-1.8-0.6-2.7-1
		C414.8,251.7,418.6,248.6,422,245.1z"/>
	<path class="st19" d="M184.9,238c-1,0.4-1.9,0.8-2.9,1.2c-1.7-2.1-3.4-4.2-5.1-6.2c-0.1-1.9,1.2-1.4,2.2-1.3
		C181.1,233.8,183,235.9,184.9,238z"/>
	<path class="st20" d="M273.8,257.9c-0.9,0.1-1.7,0.1-2.6,0.2c-0.6-2.2-2.6-3.9-2-6.8C272.3,252.6,272.6,255.6,273.8,257.9z"/>
	<path class="st21" d="M179.2,231.7c-0.9,0.2-1.8,0.3-2.2,1.3c-1.1-1.3-2.1-2.6-3.2-4c0.4-0.4,0.8-0.9,1.2-1.3
		C176.9,228.6,178,230.2,179.2,231.7z"/>
	<path class="st22" d="M314,355.1c6.3,0.4,12.6,0.8,18.8,1.2c-2.6,4-5.3,7.9-7.9,11.9c-1.9,1-4,0.9-6,0.7
		C317.3,364.2,315.6,359.6,314,355.1z"/>
	<path class="st23" d="M335.9,366.9c1.5-3.3,3.8-6,6-8.8c0.7,0.4,1.5,0.7,2.2,1.1c1.3,0.7,2.9,1.3,2.7,3.1c-0.2,1.4-1.5,2.2-2.8,2.5
		C341.3,365.6,338.8,367.1,335.9,366.9z"/>
</g>
</svg>
