<?xml version="1.0" encoding="utf-8"?>
<!-- Generator: Adobe Illustrator 19.0.0, SVG Export Plug-In . SVG Version: 6.00 Build 0)  -->
<svg version="1.1" id="Calque_1" xmlns="http://www.w3.org/2000/svg" xmlns:xlink="http://www.w3.org/1999/xlink" x="0px" y="0px"
	 viewBox="0 0 612 792" style="enable-background:new 0 0 612 792;" xml:space="preserve">
<style type="text/css">
	.st0{fill:#392A45;}
	.st1{fill:#2C1D2F;}
	.st2{fill:#2D1F32;}
	.st3{fill:#31243B;}
	.st4{fill:#2A1625;}
	.st5{fill:#2A1624;}
	.st6{fill:#31243A;}
	.st7{fill:#2A1523;}
	.st8{fill:#553F68;}
</style>
<g>
	<path class="st0" d="M150.4,428c1.1-5.1,3.2-9.8,6.5-13.8c2.7,1.2,0.9,3,0.5,4.4c-1.4,5-0.1,6.8,5.2,6c5-0.7,9.2-3.4,13.3-6.2
		c2.6-1.7,4.7-4.3,7.8-5.1c8.7,1,17.4,2.4,26.3,2.5c15.4,0.3,30.6-0.5,45.4-4.8c8.6-2.5,17.3-4.7,26.2-6.1c4-0.5,8.1,0,12.1-1
		c2.1-0.3,4.2-0.4,6.3-0.3c4.8,0,9.7-0.2,14.5,0c1.8,0.1,3.7-0.2,5.5,0c4.6,0,9.2-0.3,13.8,0.1c10.8,1.5,21.6,1,32.5,0.4
		c2-0.5,4-0.5,6-0.5c3.5-0.1,6.8-1.1,10.2-1.6c8.8-1.4,17.4-3.5,25.3-7.9c4.3,2.1,8.4,4.6,11.7,8c-0.1,1.3,0.6,2.4,0.5,3.7
		c0.7,6.4-2.4,10.7-7.6,14.1c-4.1,2.7-8.7,4.1-13.3,5.6c-2.8,0.9-5.7,1.4-8.7,1.9c-4.9,0.7-9.9,1.1-14.8,1.9
		c-2.3,0.3-4.6,0.3-6.9,0.3c-4.6-0.2-9.3,0-13.9,0.8c-2.4,0.2-4.7,0.2-7.1,0.2c-5-0.4-9.9,0.5-14.8,0.9c-2,0.1-4,0.1-6,0.1
		c-5.3,0.6-10.5,1.2-15.8,1.9c-2.5,0.2-4.8,1-7.3,1.1c-5.6,0.6-11.1,2-16.6,2.9c-2.9,0.5-5.7,1.2-8.5,1.8c-6,1-11.8,2.8-17.7,4.4
		c-17.1,5.1-34.5,9-52.3,9.7c-15.2,0.6-30.2-1-44-8.7C157.8,440.8,153,435.3,150.4,428z"/>
	<path class="st0" d="M390.6,331.4c4.6,2.1,8.5,5.1,11,9.7c-4.5,6.8-9.6,13.2-15,19.3c-8.6,9.7-20.3,11.6-32.2,12.1
		c-11,0.4-21.9-1-32.9-1.5c-17-0.8-33.9-0.8-50.5,3.7c-25.9,7-52.1,12.7-78.9,14.8c-7.8,0.6-15.6,0.6-23.4-1.1
		c-5.1-1.1-9.9-2.7-14.1-6c-2-4.3-0.8-8.4,1-12.4c3.1-6.5,7.6-12,13.8-15.8c1.2-0.5,2.4-1,3.4,0.3c-2.4,3.5-6.6,5.4-8.8,9.1
		c-1.5,2.6-5.3,5.4-2.8,8.2c2.2,2.5,5.5-0.5,8.1-1.7c8.1-4,15.2-9.4,22.4-14.7c27.3-2.7,53.5-10.9,80.5-15
		c14.8-2.3,29.6-4.4,44.5-6.1c2.3-0.4,4.6-0.3,7-0.3c2.6-0.1,5.2-0.1,7.8,0c2,0,4.1,0,6.1,0.4c4.7,0.9,9.5,1.1,14.2,1.6
		c9.2,1,18.4,2.2,27.7,2.1C384.6,337.6,388.6,336.5,390.6,331.4z"/>
	<path class="st0" d="M162.8,328.1c0.5-5.5,3.9-9.4,7.5-13.1c13.6-14.1,30.8-22.1,48.8-28.9c29.4-11,59.8-18.3,91.1-20.7
		c17.4-1.3,34.8,0.5,51.7,5.4c5.4,3.6,6.9,8.8,4.6,15.7c-1.7,5.1-4.7,9.2-9.6,11.6c-7.8,3.8-15.7,7.2-24.6,7.5
		c-2.2,0.1-4.3,0.5-6.4,0.9c-14.5,2.8-29.3,4-43.9,6.3c-11.2,1.7-22.2,4.3-33.1,7.3c-15.4,4.2-31.1,6.7-46.8,9.6
		c-9.9,1.8-19.9,1.3-29.8,2.5C168.3,332.6,165.2,331,162.8,328.1z"/>
	<path class="st1" d="M423.7,406c12,8,21.3,18.2,23.8,32.8c1.8,10.8-4.2,18.4-12.8,24.1c-10.8,7-23.1,10.1-35.6,12.2
		c-14.6,2.5-29.4,3.4-44.3,3.2c-33.5-0.5-66.9,2-100.3,4.3c-27.5,1.9-52.8-4.9-77.1-17c0.9-4.3,4.4-2.8,6.8-2.5
		c7.3,0.7,14.5,1.9,21.9,1.7c14.2-0.3,28.2-1.7,42.3-3.4c31-3.9,61.8-9.7,93-12.2c12.8-1.1,25.6-1.2,38.4-1.5
		c11.6-0.3,22.8-2.7,33.2-8.1c10-5.2,17.2-15,11.1-28.6C423.4,409.2,422.8,407.6,423.7,406z"/>
	<path class="st2" d="M162.8,328.1c10.6,4.7,21.4,1.9,32.1,1c14.3-1.1,28.3-5.1,42.5-7.2c5.5-0.8,10.7-3.6,16.2-4.6
		c11.7-2.1,23.2-5,35-6.7c13.4-1.9,26.8-3.3,40.2-5.8c9.6-1.8,18.8-3.6,27.5-8c7.1-3.6,11.2-12.7,9.5-20.3c-0.6-2.5-3.2-3.3-3.9-5.7
		c9.1,1.6,17.6,4.7,25.3,9.8c11.2,7.4,11.5,16,0.9,24.3c-8.8,6.9-19.2,11-29.3,15.6c-1.2,0.5-3.5,0.8-0.6,2.3
		c-2.2,2.4-5.3,1.4-8,2.2c-11.3,3.5-22.8,5.8-34.6,7.2c-11.7,1.4-23.5,2.4-35.2,3.8c-20.8,2.6-41.5,6.5-62.3,8.8
		c-11.7,1.3-23.5,2.3-35.2,0.1c-0.1-2.4-2-1.7-3.3-1.9c-4.1-0.8-8-2-11.6-4.2C163.8,336.4,161.5,333,162.8,328.1z"/>
	<path class="st3" d="M423.7,406c3.5,7.5,6.2,15.2,1.9,23.3c-4.8,8.9-13.2,12.7-22.2,15.7c-12.1,4-24.6,4-37.2,4.3
		c-12.2,0.3-24.4,1.2-36.6,2.4c-11.7,1.2-23.2,3-34.9,4.5c-11.8,1.4-23.5,3.5-35.3,5.1c-10.6,1.4-21.3,3-32,3.6
		c-7.4,0.4-14.8,1.5-22.3,1.3c-7-0.2-13.8-0.8-20.7-1.9c-2.3-0.4-5-1.3-6.9,1.2c-7.8-3.2-14.8-7.6-20.5-13.8
		c-6.2-6.7-9-14.6-6.6-23.8c1.2,0.4,1.9,1.3,2.4,2.4c5.7,11.5,16.2,16,27.8,18.8c8.9,2.2,18,3.4,27.1,2.8c18.1-1,35.7-4.6,53-9.9
		c1.5,3.2-1,4.9-2.7,6.8c-2.8,3.2-6.1,6-9.6,9.9c5.1,0.1,8.5-1.3,11.3-4c3.8-3.7,7.6-7.5,11.3-11.3c2.2-2.3,4.7-4.2,7.6-5.4
		c2.7-0.7,5.3-1.3,8-2c1.9,2.7-0.3,4.3-1.8,5.9c-4,4.4-8.6,8.3-12.8,13.2c4.9,0.3,8.5-1.4,11.6-4.4c3.8-3.7,7.6-7.4,11.3-11.3
		c2.6-2.7,5.3-5,8.7-6.5c2.3-0.3,4.7-0.7,7-1c1.9,2.7-0.3,4.3-1.8,5.9c-4.3,4.6-8.9,8.8-13.5,13.7c4.8,0.6,8.3-1,11.4-4
		c3.8-3.7,7.6-7.4,11.2-11.2c2.5-2.7,5.3-4.9,8.7-6.4c2,0,4,0,6,0c1.9,2.7-0.3,4.3-1.8,5.9c-3.7,4-7.8,7.6-11.8,12.2
		c4.4,1.4,7.4-0.5,10.1-2.9c4.2-3.8,8.1-7.9,12-11.9c1.9-1.9,4-3.4,6.5-4.3c2.3,0,4.7,0,7,0c1.5,2.7-0.9,3.9-2.2,5.4
		c-3.6,3.9-7.5,7.4-11.4,11.7c4.3,1.5,7.2-0.3,9.8-2.6c3.9-3.6,7.6-7.4,11.3-11.2c1.9-2,4-3.5,6.5-4.3c2.3,0,4.7,0,7,0
		c0.9,3-1.5,4.5-3.1,6.3c-3.3,3.6-7.1,6.8-10.5,10.9c4.2,1.4,7.2,0,9.8-2.6c4.1-4.1,8.3-8.1,12.3-12.3c1.9-2,4-3.4,6.5-4.3
		c2.7-0.7,5.3-1.3,8-2c1.9,2.7-0.3,4.3-1.8,5.9c-4.4,4.7-9.2,9.1-14.1,14.4c4.6,0.9,7.7-0.6,10.2-3c8.9-8.5,17.5-17.4,26.2-26
		c3.7-3.7,1.3-7-0.5-10.3c0-1-0.2-2.1,0.7-2.9C421,403.3,423,403.9,423.7,406z"/>
	<path class="st3" d="M154.6,382.2c4.1-0.3,6.9,3.1,10.7,3.9c10.3,2.2,20.6,2,31.1,1.2c24.4-1.9,48.1-7.1,71.5-13.5
		c17.2-4.7,34.4-5.3,51.8-4.5c10.1,0.4,20.2,0.9,30.2,1.7c7,0.6,13.9-0.9,20.7-2.2c6.6-1.3,11.5-5.8,15.9-10.5
		c4.4-4.7,8.6-9.6,11.9-15.3c0.7-1.2,1.8-2,3.3-2c1.1,1.3,2.3,2.6,3.4,3.8c-8.5,19.9-24.5,31.4-44.4,37.4c-9.9,3-20.6,3.4-31.2,3.1
		c-10.2-0.2-20.4-1.2-30.7-1.4c-16.3-0.3-31.4,4.6-46.9,8.1c-13.6,3.1-27.2,6.3-41.2,7.5c-11.9,1-23.5,0.3-35.2-1.7
		c-2-0.4-4-0.1-6,0.2C162.7,394.7,156.3,390.7,154.6,382.2z"/>
	<path class="st1" d="M405.8,346.9c3.3,2.2,4.3,5.6,4.9,9.2c-9.7,10.3-19.7,20.2-30,29.9c-2.2,2.1-5,3.3-8,3.9
		c-1.6,0.4-4.3,0.6-4.6-0.8c-1-4.7-3.6-1.8-5.3-1.4c-4.5,1.2-7.6,5.4-12.5,5.9c-2,0.2-4,0.9-5.8-0.5c-3.6-2.9-7.1-2-10.7-0.1
		c-4.1,2.2-7.9,4.1-11.8-0.9c-1.7-2.2-5-0.8-7.4,0.6c-2,1.2-3.8,2.7-6,3.6c-2.2,0.9-4.6,1.6-6.7,0c-2.2-1.7,0.6-3.6,0.6-5.5
		c-4-1.2-6.9,0.5-9.4,3.1c-2.9,3.1-6.3,5.4-10.4,6.6c-1.8,0.5-3.8,0.9-4.9-1.1c-1-1.9,0.6-3,1.6-4.3c0.9-1.1,2.2-2,3.1-3.7
		c-5.2-0.1-9,2.2-12.2,5.4c-2.6,2.6-5.2,5.2-8.6,6.7c-2.6,1.1-5.6,3.1-7.8,0.6c-2.3-2.6,1.7-4.1,2.4-6.5c-5,0.2-9,2.4-12.4,5.7
		c-2.5,2.3-5.3,4-8.4,5.2c-1.8,0.7-3.5,1-5.2-0.4c-1.8-1.5,0.1-3,0.1-4.9c-3.8,0.4-7.1,1.3-10.1,3.7c-3.8,3.1-7.7,4.7-12,0.6
		c-1.7-1.6-4.2-1.4-6.2-1c-4.3,0.9-8.2,0.2-12.2-1.2c-3.8-1.3-7.7-2-11.8-2.1c-1.6-0.7-4-0.6-3.2-3.5c3.8-1.8,7.6-0.2,11.2,0.2
		c16.6,1.9,32.8-0.6,48.9-3.8c14-2.8,27.7-6.9,41.7-9.8c12.5-2.6,25-2.4,37.7-1.4c13.8,1,27.6,1.9,41.2-1.3
		c19.9-4.7,37-13.8,46.8-33.1C403.2,349,404,347.4,405.8,346.9z"/>
	<path class="st4" d="M174.7,400.1c1,1.3,2.4,1.8,4,2c10.5,3.1,21.1,5.4,31.8,7.6c1.7,0.3,3.3,0.3,4.9,0.2c10.6-0.5,21-1.9,31.5-3.7
		c15.7-2.7,31.3-5.6,47.1-7.8c7.9-1.1,15.7-3.1,23.6-3.2c9.5-0.1,18.8-1.4,28.3-1.2c6.5,0.1,12.7-2.4,19.1-2.8
		c6.6-0.4,12.6-3,18.8-4.8c2-0.6,4.1-1.7,6.2-0.4c2.3-0.3,4,0.9,5.7,2.1c0.6,1.4-0.5,2.2-1.3,2.9c-4.4,3.6-8.1,7.8-11.7,12.1
		c-3.2,1.4-6.7,1.2-10,2c-0.6-2.5,1.5-3.5,2.9-4.7c3.3-2.6,6.2-5.7,8.9-9c-6.2,1.6-12.7,2-17.8,6.7c-2.8,2.6-3.3,4.6-0.1,7
		c-1.3,1.5-3.1,1-4.7,1c-9.4-0.4-18.9,1.1-28.3-1c-1.8-2.8,1.8-3.4,2.2-6.1c-4.3-1.4-8.1-0.3-11.7,2.2c-1.6,1.2-2.7,2.9-4.5,3.8
		c-1.7,0-3.3,0-5,0c-1.6-1.5,0.9-3,0.1-4.7c-5.8-1-10.6,1.2-15,4.7c-2,0-4,0-6,0c-4.3-3.2-8.1-0.7-12,1c-20.4,3.7-40,11.7-61.3,11.2
		c-12.7-0.3-25.4-0.3-37.8-3.1c-6.1,0.7-15.2-3.9-17.8-9c1.5-2.2,3.5-3.8,5.7-5.2C171.9,398.8,173.3,398.9,174.7,400.1z"/>
	<path class="st5" d="M182.7,345.1c1.7-0.9,3.5-1.2,5.3-1c22,1.9,43.3-2.5,64.8-5.8c14.2-2.2,28.5-3.6,42.7-5.2
		c18-2.1,36.2-3.3,53.6-9.3c3-1,5.9-0.3,8.9-0.8c2.3,0.4,4.7-0.4,6.8,1.1c-1.8,2-4.7,2.3-6.7,4c-2.9,2.5-5.5,5.2-6.4,9.1
		c-4.7-0.6-9.5-0.5-14-2c-0.4-2.5,1.5-2.6,3.1-2.8c2-0.3,3.7-0.9,5-3c-5.3,0.9-10.3,2-14.1,5.8c-2.7,0-5.3,0-8,0
		c-2.3-1.5-4.7-1.5-7,0c-6.5,1-12.9,2.2-19.4,2.9c-17.2,1.8-34.2,5.2-51.2,8.5c-15.5,3-30.9,7.1-46.5,9.4c-2.9,0.4-6,0.2-9,0.3
		c-6.1,2.1-12.2,2.9-17.9-1.2c-0.9-1.1-2.2-0.9-3.3-1C173.2,350.1,177.8,347.4,182.7,345.1z"/>
	<path class="st1" d="M390,386c-16.3,5.5-32.9,8.7-50.1,9.2c-16.7,0.5-33.3,2.3-49.8,4.9c-12.1,1.9-24.1,4.4-36.1,6.3
		c-12.9,2-25.7,5.1-38.9,4.6c-12.7-0.5-24.8-3.8-36.4-8.9c2.5-0.1,4.9,0.2,7.4,0.8c5.8,1.5,11.5,3.7,17.8,2.2
		c2.4-0.6,4.7-0.1,6.8,2.5c2.3,2.9,5.5,0.7,7.9-1.1c4.9-3.8,7.3-4.7,14.6-5c-0.1,0.5,0,1-0.2,1.4c-0.5,1.6-3.8,2.3-2.2,4.3
		c1.7,2.1,4,0.2,5.9-0.7c2.5-1.1,4.6-2.6,6.5-4.5c4.6-4.5,8.8-6,16.1-6.2c-0.3,2.2-2.4,3.1-3.6,4.6c-0.7,0.9-2.2,1.5-1.5,2.8
		c0.8,1.3,2.5,0.9,3.6,0.5c3.9-1.5,7.6-3.4,10.3-6.8c4.4-5.3,10.1-7.5,17.9-7.3c-2.5,2.7-4.5,4.7-6.5,6.9c-0.6,0.7-1.8,1.3-1.2,2.4
		c0.7,1.2,1.9,1,3.1,0.6c4.1-1.2,7.7-3.1,10.5-6.4c2-2.3,4.2-4.3,7.6-4.1c1.8,0.1,4.2-0.9,5.2,0.6c1.3,1.8-1.3,2.6-2.2,3.9
		c-1.2,1.8-0.5,2.3,1.3,2.5c3.2,0.3,6-1.1,8.2-3.1c2.9-2.7,6.1-3.1,9.7-2.8c0.8,0,2-0.2,2.2,0.7c1.5,7,5.8,2.9,8.4,1.6
		c4.7-2.2,8.3-4,13.4,0c2.6,2,7.5,0,10.4-2.5c4.1-3.5,9.1-4.2,13.9-5.5c0.7,2.1-1.8,2.6-1.5,4.6c5.4,0.5,9.6-2,13.2-5.5
		c7.9-7.7,15.6-15.5,23.3-23.3c1.7-1.7,3.4-3.2,5.6-4.1c1.1,4.4,1.5,8.8-0.9,13c-5.9,3.3-9.8,8.7-14.1,13.8
		C393.6,383.6,391.7,384.5,390,386z"/>
	<path class="st6" d="M174.7,400.1c-1.4,0-2.8-0.1-4.2-0.1c-0.3-0.6-0.6-1.2-0.8-1.8c1.5-3.7,4.4-2.1,6.7-1.6
		c12.4,2.5,24.9,2.7,37.5,1.4c18.2-1.9,35.6-6.9,53.3-11.1c7.2-1.7,14.6-4.4,21.8-4.2c7.2,0.2,14.4-0.7,21.6,0.1
		c13.2,1.6,26.5,1.5,39.9,0.1c12.2-1.3,22.5-6.5,32.4-12.9c7.7-5,13.5-11.7,17.7-19.8c1.1-2.1,2-4.3,4.4-5.2c0.9,0.4,0.7,1.2,0.7,2
		c-10,23.8-30.1,34.3-53.7,38.9c-16,3.1-32.4,0.5-48.6-0.3c-8.8-0.5-17.9,0-26.7,2.1c-20.1,4.9-40,10.7-60.6,13.3
		c-12.5,1.6-25.1,2.2-37.6-0.6C177.4,400,176,400.1,174.7,400.1z"/>
	<path class="st7" d="M351.7,337.1c-1.7-2.9,0.3-4.6,2-6.4c3.1-3.3,6.3-6.4,11.2-6.6c9.1,0.8,17.7,3.2,25.8,7.4c0,6-1.6,7.4-8.5,7.7
		C371.9,339.5,361.8,338.3,351.7,337.1z"/>
	<path class="st8" d="M164.7,405.2c5.2,4.5,11.3,7.3,17.8,9c-5.9,6-12.6,11-21.2,11.8c-6.1,0.6-7.5-1.7-5.4-7.4
		c0.5-1.4,2.4-2.6,0.9-4.5C159,410.7,161.4,407.6,164.7,405.2z"/>
	<path class="st5" d="M382.7,403.1c1.4-6,6.7-8.7,10.5-12.7c0.8-0.8,2-1.1,2.5-2.3c4.3,1.4,8.2,3.6,12,6c-0.1,2.1-2,2.4-3.4,3.1
		C397.5,400.6,390.2,402.3,382.7,403.1z"/>
	<path class="st1" d="M395.7,382.8c3.1-6.2,6.5-12.1,14.1-13.8C407.5,376.2,401.7,379.7,395.7,382.8z"/>
	<path class="st3" d="M418.7,405.1c5.2,4.4,5.3,7.1,0.7,11.8c-8.2,8.2-16.5,16.5-24.7,24.7c-3.1,3.1-6.6,5-11.1,4.5
		c-0.8-0.1-1.9-0.2-2.2-0.7c-0.8-1.1,0.3-1.8,1-2.5c4.6-4.6,9.1-9.2,13.7-13.8c1.4-1.4,2.9-2.8,2.6-5.1c4.3-1.2,8.5-2.5,12.4-4.8
		C416.4,416,419.8,411.8,418.7,405.1z"/>
	<path class="st3" d="M303.7,433.1c-6.5,6.4-13.1,12.7-19.6,19.1c-3.1,3.1-7.1,4.1-11.1,4.8c-0.9,0.2-2.1,0.4-2.7-0.6
		c-0.6-1.1,0.5-1.8,1.1-2.5c4.2-4.3,8.4-8.5,12.7-12.7c1.4-1.4,2.9-2.8,2.6-5.1C292.3,435.1,298,434.1,303.7,433.1z"/>
	<path class="st3" d="M326.7,430.1c-6.5,6.3-13,12.6-19.5,19c-3.7,3.7-8.3,4.3-13.2,4.1c-0.7-2.2,1.1-3,2.2-4.1c3.9-4,7.9-8,11.9-12
		c1.4-1.4,2.9-2.8,2.6-5.1C316,431.4,321.3,430.8,326.7,430.1z"/>
	<path class="st3" d="M278.7,438.1c-6.3,6.1-12.5,12.2-18.8,18.3c-2.6,2.6-6,3.2-9.4,3.9c-1.3,0.3-2.4,0.3-3.1-0.7
		c-0.9-1.4,0.5-2.1,1.2-2.8c2.9-3,5.8-5.9,8.8-8.8c1.7-1.7,3.1-3.4,3.4-5.9C266.7,440.8,272.5,438.5,278.7,438.1z"/>
	<path class="st3" d="M347.7,429.1c-5.7,5.5-11.4,11.1-17.1,16.6c-3,2.9-6.4,4.7-10.7,4.4c-0.9-0.1-2.1,0.3-2.6-0.8
		c-0.5-1.1,0.6-1.8,1.2-2.5c3.9-3.9,7.7-7.8,11.6-11.6c1.4-1.4,2.9-2.8,2.6-5.1C337.6,429.2,342.6,428.9,347.7,429.1z"/>
	<path class="st3" d="M390.7,426.1c-5.8,5.7-11.7,11.3-17.5,17c-1.4,1.4-2.7,3-4.7,3.5c-2.7,0.7-6.4,1.7-7.9-0.4
		c-1.4-1.9,2.3-3.4,3.7-5.1c3.7-4.5,8.9-7.5,11.5-13C380.6,426.6,385.7,426.7,390.7,426.1z"/>
	<path class="st3" d="M368.7,428.1c-5.4,5.2-10.7,10.4-16.1,15.6c-2.7,2.6-5.4,5-9.6,4.4c-1.3-0.2-3,0.7-3.7-0.8
		c-0.8-1.5,1-2.3,1.8-3.2c3.6-3.7,7.3-7.3,10.9-11c1.2-1.2,2.6-2.2,2.6-4.1C359.3,427.5,364,428.3,368.7,428.1z"/>
	<path class="st5" d="M366.7,405.1c-5.9-2-5.7-2.2-2.1-6.5c5.6-6.6,13.8-6.5,20.9-9.2c0.6-0.2,1.4-0.1,1.7,0.6c0.4,1-0.4,1.6-1,2.1
		c-3.3,3-6,6.7-9.8,9.2c-1.5,1-2.9,2.2-3.8,3.9C370.7,405.1,368.7,405.1,366.7,405.1z"/>
	<path class="st5" d="M319.7,405.1c2.9-6.2,8.1-8.1,14.5-8c1.5,0,3.3,0.3,3.9,1.7c0.7,1.7-1.1,2.5-2.3,3.3c-1.2,0.7-2.1,1.6-2.1,3.1
		C329,405.1,324.3,405.1,319.7,405.1z"/>
	<path class="st5" d="M299.7,405.1c3.1-4.8,10.9-7.9,16.1-6.3c1.7,0.5,2.1,1.5,0.8,2.9c-0.9,1-1.9,1.9-1.9,3.4
		C309.7,405.1,304.7,405.1,299.7,405.1z"/>
	<path class="st5" d="M281.7,406.1c-0.2-0.8-0.8-1.8,0.3-2.1c3.5-0.8,7-1.5,10.6-1.8c2.5-0.2,0.8,1.9,1.1,2.9
		C289.8,407,285.7,405.7,281.7,406.1z"/>
	<path class="st8" d="M172.7,355c5.9,1.7,11.9,1,17.9,1.2c-0.2,0.6-0.2,1.5-0.6,1.8c-8.3,5.6-16.1,12.1-25.8,15.4
		c-1.6,0.5-3.2,1.2-4.6-0.2c-1.6-1.6-0.9-3.4,0.1-5C162.9,362.7,165.8,356.8,172.7,355z"/>
	<path class="st7" d="M331.7,335.1c0.2-2.8,2.4-3.9,4.6-4.6c3.9-1.2,7.8-2.1,12.9-3.5c-2.8,3.9-4.4,7.2-8.9,6.5
		c-1.5-0.3-2.1,0.6-2.7,1.7C335.7,335.1,333.7,335.1,331.7,335.1z"/>
	<path class="st7" d="M316.7,335.1c2.5-2.8,4.4-2.8,7,0C321.3,335.1,319,335.1,316.7,335.1z"/>
	<path class="st8" d="M231.6,290.4c-0.1,1.7-1.3,2.7-2.5,3.5c-14,8.7-28.6,16.1-44.8,19.9c-1.5,0.4-3,0.6-4.1-0.9
		c-1.3-1.9,0.3-3,1.4-4.2c7-7.5,16.2-11.4,25.3-15.4c6.7-2.9,13.6-5.3,21.1-5.1C229.7,288.1,231.6,287.8,231.6,290.4z"/>
	<path class="st3" d="M407.6,441c-0.5-0.2-1.1-0.2-1.3-0.5c-0.5-0.6-0.2-1.2,0.3-1.7c5.3-5.3,10.4-10.6,15.8-15.7
		c1.7-1.6,2.2,0,2.2,1.5c0.1,2.9-1.8,4.9-3.3,7C418,436.4,412.8,438.7,407.6,441z"/>
	<path class="st5" d="M347.9,404.1c-1,0-2,0-3,0c-1.2,0-2.4-0.3-2.8-1.5c-0.4-1.1,0.5-1.9,1.2-2.5c4.6-4.3,10.5-4.2,16.2-4.7
		c1.6-0.2,2.2,1.3,0.8,2.7C356.9,401.6,353.3,404.6,347.9,404.1z"/>
</g>
</svg>
