<?xml version="1.0" encoding="utf-8"?>
<!-- Generator: Adobe Illustrator 19.0.0, SVG Export Plug-In . SVG Version: 6.00 Build 0)  -->
<svg version="1.1" id="Calque_1" xmlns="http://www.w3.org/2000/svg" xmlns:xlink="http://www.w3.org/1999/xlink" x="0px" y="0px"
	 viewBox="0 0 612 792" style="enable-background:new 0 0 612 792;" xml:space="preserve">
<style type="text/css">
	.st0{fill:#A57B52;}
	.st1{fill:#A5CCDE;}
	.st2{fill:#B0DAEC;}
	.st3{fill:#C49B6C;}
	.st4{fill:#A9DCF2;}
	.st5{fill:#95CAE0;}
	.st6{fill:#C49B6D;}
	.st7{fill:#8CC0D5;}
	.st8{fill:#95D1EB;}
	.st9{fill:#AFD8E9;}
	.st10{fill:#A5CCDC;}
	.st11{fill:#95D1EA;}
	.st12{fill:#74A1AC;}
	.st13{fill:#75A1AC;}
	.st14{fill:#C1B890;}
	.st15{fill:#B0A782;}
	.st16{fill:#C3D5DD;}
	.st17{fill:#C0B086;}
	.st18{fill:#83C2DD;}
	.st19{fill:#D5EBF4;}
	.st20{fill:#D2C493;}
	.st21{fill:#738E8C;}
	.st22{fill:#738E8B;}
	.st23{fill:#B0CA74;}
	.st24{fill:#A0B769;}
	.st25{fill:#D3E976;}
	.st26{fill:#D5EBF3;}
	.st27{fill:#BCD176;}
	.st28{fill:#C1D36B;}
</style>
<g>
	<path class="st0" d="M272,305c-1.6,7.8-5.3,15-6,23.1c1.1,4.1,0,7.8-1.7,11.5c-2.5,2.8-6,3.5-9.4,4.1c-13.6,2.3-27.2,2.6-40.7,0
		c-3.4-0.6-6.9-1.5-9.6-4c-2.4-3.6-2.9-7.6-1.8-11.8c-1-7.9-4.3-15.2-5.8-23c1.8-0.9,3.6-0.1,5.3,0.3c15.2,3.3,30.6,4,46.1,2.5
		c7-0.7,13.9-1.2,20.6-3.2C270.1,304.3,271.1,304.3,272,305z"/>
	<path class="st0" d="M433.3,230c-2.7,7.9-5.5,15.7-6.6,24.1c1,3.7,0.3,7.2-1.4,10.6c-1.2,1.7-3,2.6-4.9,3.1
		c-14.7,3.4-29.4,3.9-44.1,0c-1.6-0.4-3.1-1-4.5-2c-2.7-3.2-2.9-6.9-1.9-10.8c-0.9-8.2-3.7-15.9-6-23.7c0.5-2.9,2.7-1.8,4.3-1.6
		c20.1,2.9,40.3,2.8,60.4-0.1C430.1,229.2,431.8,228.8,433.3,230z"/>
	<path class="st1" d="M429.2,295.1c0,4.2-0.3,8.3-0.1,12.5c0.5,8.3,4.7,14.3,11.4,19.4c14.3,10.8,25.2,24.6,28.5,42.5
		c2.7,14.6,2.2,29.5-3.3,43.7c-7.1,18-18.1,33.6-30.5,48.2c-6,7-14.1,9.8-22.7,11.5c-9.3,1.8-18.5,0.9-27.4-1.9
		c-0.2-2.7,1.5-3.8,3.6-4.7c3.7-0.5,7.2,0.7,10.7,1.3c2.5,0.4,4.9,0.4,7.3-0.3c5.6-0.8,11.2-1.6,16.3-4.2c4.8-2.4,7.9-6.5,11.2-10.5
		c10.6-12.9,20.1-26.5,25.8-42.4c6.3-17.6,7-35.1-1.7-52.2c-0.9-1.5-1.8-3.1-2.5-4.7c-4.5-8.8-11.3-15.7-19-21.4
		c-9.8-7.3-13.3-16.9-14-28.2c-0.2-2.9-0.8-5.1-3.1-6.9c2.3-3.4,5.7-1.9,8.7-2.1C428.7,294.8,429,295,429.2,295.1z"/>
	<path class="st2" d="M388,467.1c-1,1.3-1.9,2.5-2.9,3.8c-3.9-1.3-7.2-3.8-9.9-6.5c-16.5-16.5-31.8-33.9-39.7-56.5
		c-10.4-30.1-0.1-58.2,23.9-77c6.2-4.9,8.1-11.6,8.5-18.8c0.4-5.3,0-10.6,0-16c0.2-0.2,0.4-0.4,0.6-0.6c2.7-1,5.4-1.6,7.7,0.9
		c-1.4,2.6-2.3,5.4-1.9,8.4c0,5.9-1,11.6-2.6,17.2c-1.7,5.9-4.6,10.8-9.7,14.7c-5.5,4.3-10.2,9.4-14.2,15.3c-1.2,1.6-2.3,3.2-3,5
		c-11.7,21.5-8.6,42.5,2.7,62.7c9.8,17.7,22.4,33.4,39,45.4C387.3,465.6,387.8,466.2,388,467.1z"/>
	<path class="st3" d="M272,305c-17.5,5.7-35.5,5.8-53.6,4.2c-7.3-0.6-14.5-1.3-21.4-4.2c-2.3-3.4,0.9-4,2.7-4.7
		c4.5-1.7,9.3-2.3,14.1-2.8c17-1.8,34-1.8,50.9,1.6c2.1,0.4,4.2,1.1,6,2.1C272,301.9,274,302.9,272,305z"/>
	<path class="st4" d="M201.9,374.1c-3-1.7-6.4-1.6-9.6-2.1c-8.4-1.5-13.5-5.8-13.9-14.6c-0.3-6.1-2.5-12.1-0.4-18.2
		c0.4-1.3,0.8-2.5,2.1-3.2c3.7,5.6,9.4,7.6,15.6,8.7c1.1,0.2,2.3,0.4,3.5,0.4c4.9,0.2,7.8,2.4,8.1,7.5c0.4,3.1,0.8,6.2-0.5,9.1
		c-2.4,1.5-3.5,3.5-3.3,6.5C203.5,370.2,203.8,372.5,201.9,374.1z"/>
	<path class="st4" d="M289,336.1c4,5.7,1.5,12.1,1.7,18.3c0,1-0.7,1.9-0.6,2.9c0.4,9.8-6,12.8-14,14.9c-2.5,0.6-5.8-0.4-7.3,2.9
		c-1,0-1.5-0.6-1.9-1.3c-0.1-7-5.5-12.5-5.4-19.6c0-1.9,0-3.8,0.3-5.7c0.1-0.5,0.4-1,0.7-1.4c5.1-1.4,10.5-1.7,15.6-3.7
		C282.4,341.6,286.3,339.9,289,336.1z"/>
	<path class="st4" d="M367.9,296.1c-4.2-1.3-8.5-2.6-12.7-3.9c-3.6-1.2-6.1-3-6.6-7.5c-0.6-5.6-1.9-11.1-1.6-16.7
		c0.1-2.2,0.2-4.3,2-5.9c5.1,5.8,12.3,6.6,19.1,8.6c1.4,0.4,3,0.2,4.2,1.2c0.9,1.1,1.3,2.4,1.7,3.7c0.6,4.2,0.6,8.3,0.1,12.5
		c-0.2,0.8-0.5,2-1.2,2c-4.2-0.1-4,3.3-4.8,5.9L367.9,296.1z"/>
	<path class="st4" d="M447.1,261.8c5.3,5.3,2.5,11.6,1.6,17.4c-2,12.1-5.8,14.9-19.5,15.9c0,0-0.3-0.1-0.3-0.1
		c-0.8-3.2-3-5.1-5.7-6.6c-1.1-5-0.8-10.1-0.2-15.1c0.2-0.5,0.4-1,0.8-1.4c4-2,8.5-2.3,12.7-3.5
		C440.6,267.1,444.5,265.5,447.1,261.8z"/>
	<path class="st5" d="M298.1,433c-1.2,8.3-7.1,13.5-13.1,18.1c-9.5,7.4-20.3,12.9-32,15.7c-12,2.9-24.5,1.7-36.7,0.6
		c-10.6-0.9-20.9-3.4-30.4-8.5c-1.9-1-3.9-1.9-5-3.9c-0.9-1.8-0.8-3.3,1.1-4.4c0.7-0.1,1.3,0,1.9,0.4c19.8,12.3,41.5,13.6,63.8,11.4
		c14.2-2.7,26.5-9.3,37.6-18.3c2.6-2.1,4.4-5,6-7.9c1-1.7,1.6-3.7,3.5-4.7C296.4,431.2,297.5,431.6,298.1,433z"/>
	<path class="st6" d="M433.3,230c-18.4,3.9-36.9,3.4-55.5,2.3c-4.7-0.3-9.2-2.5-13.9-1.2c-2-2.6-0.3-3.7,1.9-4.1
		c4.1-0.8,8.1-1.6,12.2-1.9c15.9-1.1,31.8-1.1,47.6,0.9c2.3,0.3,4.5,0.9,6.7,1.5C433.3,227.9,434.7,228.5,433.3,230z"/>
	<path class="st7" d="M262.9,353.9c0.3,3.1,0.3,5.8,2.9,8.7c2.2,2.5,1.5,7.4,2.1,11.3c-2.1,2.1-5.1,1.1-7.5,2.2
		c-15.1,1.7-30.2,2.1-45.3,0.6c-4-0.4-8-0.6-11.6,1.6c-1.2,0.2-2.5,0.7-2.6-1.3c0.3-1,0.6-1.9,0.9-2.9c0-3.1,0.4-6.2,0.1-9.3
		c-0.3-3.7,1.5-3.6,4.1-2.8c2,4.6,5.9,6.2,10.6,7c12.8,2.3,25.5,2,38.2-0.6c5.7-1.2,6-1.8,5.9-7.7
		C260.7,358.4,259.5,355.3,262.9,353.9z"/>
	<path class="st8" d="M205.8,352c-0.5-6.4-5.8-5.7-9.7-5.9c-5.6-0.3-9.8-3.3-14.5-5.4c-2-0.9-1.6-3-1.7-4.8c4.3-4.4,10.2-5,15.6-6.5
		c2.3-0.7,4.8-0.9,7.2-1.4c0.8,3.7,1.5,7.3,2.3,11c1.7,2.8,1.6,6,2.2,9C207.3,349.5,207.2,351,205.8,352z"/>
	<path class="st8" d="M289,336.1c0.1,4.2-3,5.6-6.1,6.8c-4,1.6-8.2,2.4-12,4.5c-2.4,1.4-5.1-1.1-7.7-0.4c-2.5-2.9-0.3-5.5,0.7-8.1
		c0.7-3.6,1.4-7.2,2.2-10.8C273.9,330,282.4,330.2,289,336.1z"/>
	<path class="st9" d="M201,377c0.4,0.8,1.2,1,2,0.9c0.3,0.4,0.4,0.8,0.3,1.3c-3.3,6.8-9.4,10.4-15.4,14.2c-5,3.2-8.4,7.3-9.7,13.2
		c-0.1,0.8-0.3,1.5-0.5,2.2c-2.1,9.4-1.8,18.7,0.4,28.1c0.2,1.2,0.3,2.5,0.7,3.6c1,3.1,2.4,6.1,3.6,9.1c0.1,0.5-0.1,0.9-0.4,1.3
		c-0.8,1.3-1.1,2.6-1.1,4.1c-5.1-5.4-7-12.2-8.5-19.2c-2.2-10.7-2.1-21.4,1.1-31.9c1.9-6.1,5.9-10.6,11-14.3
		C190.1,385.5,196.7,382.8,201,377z"/>
	<path class="st10" d="M261,375c2.1-1.9,4.7-0.5,7-1c0.3,0.3,0.6,0.7,0.9,1c2.5,4.5,7.1,6.4,11.4,7.4c11.4,2.7,15.5,10.8,17.4,21.1
		c1.7,9.2,1.5,18.5,1.3,27.8c0,0.6-0.5,1.2-0.8,1.7c-1-0.3-2-0.7-3-1c-1.8-1.7-1.5-3.9-1.5-6c0.1-9.1-1-18.1-2.8-27.1
		c-0.2-2-1.1-3.7-2.2-5.3c-0.8-1.4-2-2.5-3.4-3.2c-1.9-1.4-4.1-2.1-6.3-2.9c-5.5-2-11-3.9-14-9.5C264.1,376.4,262,376.3,261,375z"/>
	<path class="st8" d="M372,272c-7.2,0.5-13.5-2.9-20-5.2c-2.1-0.7-2.7-2.8-3-4.8c5.9-5.4,13.3-6.4,20.8-7.2c0.7,3.3,1.5,6.7,2.2,10
		C373.6,267.3,374,269.6,372,272z"/>
	<path class="st11" d="M447.1,261.8c0.1,2.9-1.4,4.7-4,5.5c-6.2,2.2-12.3,4.3-18.9,4.7c-3-3-0.4-5.5,0.7-8.1
		c0.6-3.3,1.2-6.6,1.8-9.9c5,1.4,10.1,2.7,15.1,4.3C443.7,259,445.9,259.9,447.1,261.8z"/>
	<path class="st12" d="M263.8,338.9c-0.2,2.7-0.5,5.4-0.7,8.1c-0.1,0.3-0.2,0.7-0.3,1c-3.5,2.4-7.7,2.2-11.5,2.3
		c-13.4,0.3-26.9,1.1-40.2-0.7c-1.8-0.2-3.7-0.3-5.1-1.6c-1-2.9-1.2-5.9-1-9c5.9,3.6,12.6,4.1,19.2,4.7c11.1,1,22.3,0.5,33.2-2.1
		C259.7,341.1,261.7,339.8,263.8,338.9z"/>
	<path class="st13" d="M424.9,264c0.2,2.7-1.5,5.3-0.7,8.1c0,0-0.3-0.1-0.3-0.1c-2.5,2.4-5.7,2.4-8.9,2.5c-11.7,0.4-23.5,1.2-35.2,0
		c-2.3-0.2-4.6,0-6.9,0.7c-0.9-0.8-0.8-2-0.9-3.1c0-2.4,0-4.7,0.1-7.1c15.5,5.5,31.2,4.8,47.1,1.9
		C421.2,266.4,423.2,265.4,424.9,264z"/>
	<path class="st14" d="M388,467.1c-14.2-7.9-23.5-20.8-33-33.3c-8.4-11.1-14.5-23.2-17.3-37.1c-2.9-14.5-0.9-27.9,6.4-40.7
		c8.3,2.7,16.9,4.4,25.7,5c12.7,0.8,25.5,2,38.2,1.3c7.8-0.5,15.4-1,23.2-0.1c2.2,0.8,1.2,3.6,3,4.8c3.3,6.3,2.5,13.4,3,20.1
		c1.2,15.4-0.4,30.6-6.1,45.2c-5.5,14.3-13.5,26.7-27,34.9c1.2-0.1,2.2,0.1,2.9,1.1c-5,2.3-9.9-0.2-14.8-0.5
		C390.9,467.5,389.4,467.3,388,467.1z"/>
	<path class="st15" d="M407.1,468.1c-2,0-4,0-7.2,0c5.4-3.5,10-6.3,13.7-10.2c12.6-13.1,18.6-29.1,21.4-46.6
		c2.2-14.1,0.9-28.1-1-42.1c-0.1-0.8-0.6-1.5-1-2.2c-0.9-5.5-0.4-6.2,4.7-6.6c6-0.4,11.8-1.4,17.5-3.2c1.3-0.4,2.5-0.8,3.9-0.3
		c8.1,14.6,8.6,30,4.5,45.8c-5.1,19.4-16.2,35.4-28.5,50.9C427.8,463,418.8,467.8,407.1,468.1z"/>
	<path class="st16" d="M373,305c1.1-2.6-2.8-7.2,3-8.1c3.1-2.4,6.7-1.7,10.1-1.3c8,1,15.9,0.9,23.8,0c3.3-0.4,7-1.1,10.1,1.4
		c3-0.3,4.3,0.8,4,3.9c-0.4,4.4,0.7,8.5,1.7,12.7c1.6,7,5.5,11.9,11.1,16.4c8,6.4,15.7,13.3,20.2,22.9c-2.1,0.9-3.9-0.4-5.7-0.9
		c-7.6-2.1-15.2-3.4-23.1-3.9c-1.1-0.2-2.1-0.7-2.7-1.7c-1.2-5.4-3.5-10.5-6.7-14.9c-4.1-5.9-6.7-12.2-7.7-19.2c-0.5-3.7-2.3-5-6-5
		C394.4,307.5,383.7,306.3,373,305z"/>
	<path class="st17" d="M428,347c10,0.3,19.8,1.8,29,6c0.7,1.3,1.4,2.6,2.1,3.9c-6.5,3.6-13.7,4.5-20.9,4.7c-3.9,0.1-6,1.2-5.2,5.4
		c-3-0.7-0.2-2.8-1-4C430.1,357.8,427,352.9,428,347z"/>
	<path class="st18" d="M420,297c-14.7,1-29.3,1-44,0c-2.4-1.9-5.3-0.4-7.9-1.1c-0.1-0.8-0.1-1.6-0.4-2.4c-1.3-3.7-0.6-5.4,3.6-3.9
		c0.7,0.2,1.2,0,1.7-0.6c4.4-0.1,8.2,2.2,12.5,2.7c12.4,1.5,24.5,1.3,36.4-2.8c0.6-0.2,1.3-0.2,2,0c6.4-2,5.3,2.4,5,6
		C426.3,297.2,422.6,294.7,420,297z"/>
	<path class="st19" d="M373,305c3.5-2.1,7.1-0.3,10.6-0.1c7.8,0.5,15.7,0.8,23.6,1c3,0.1,4.8,0.3,4.9,4.2c0.4,10.9,7.7,19,12,28.3
		c1.1,2.4,3.4,4.6,1.8,7.6c-2.8,2.2-6,1.4-9.1,1.2c-22.2-1.5-44.2-1.3-65.9,4.5c-1.3,0.3-2.6,0.8-3.9,0.1
		c2.9-6.8,8.3-11.7,13.8-15.8c7-5.2,9.4-12.1,10.9-19.8C372.6,312.6,373.6,308.9,373,305z"/>
	<path class="st20" d="M347,351.9c7.9-3.9,16.4-5,24.9-5.7c13-1,26.1-1.8,39.2-1c4.9,0.3,9.8,1.1,14.8,0.9c0.7,0.3,1.4,0.6,2,0.9
		c1,5.4,4.4,10.2,4,16c-8.5,0.2-17,0.5-25.5,0.7c-14.6,0.4-29.2-0.6-43.7-1.9c-6.4-0.6-13.6-0.5-18.7-5.8
		C344.7,354.4,345.4,352.8,347,351.9z"/>
	<path class="st21" d="M206,348c19,1.4,37.9,1.4,56.9,0c0,2,0,3.9,0.1,5.9c-1.7,2.8-1.3,6-0.6,8.7c1,3.8-0.4,5.4-3.6,6.2
		c-11.3,3.1-22.9,3.8-34.5,2.6c-4.1-0.4-8.2-1.3-12.2-2.1c-4.1-0.8-6.8-2.7-6-7.5c-0.1-3.3-0.1-6.6-0.2-10
		C205.9,350.7,206,349.3,206,348z"/>
	<path class="st22" d="M423.9,289c-4.6,3.6-10.2,3.7-15.5,4.4c-10.3,1.5-20.5,0.6-30.6-1.7c-1.7-0.4-3.2-1.7-4.7-2.6
		c0-4.6-0.1-9.3-0.1-13.9c0.3-1.4-0.1-3.2,2.3-2.9c16.2,2.2,32.5,1.5,48.7-0.3C423.9,277.7,423.9,283.3,423.9,289z"/>
	<path class="st23" d="M182,451c0-0.3,0-0.7,0-1c0.5-1.8,2.1-2.5,3.4-3.5c10.6-8.2,20.6-17.1,29.6-27.1c1.1-1.3,2.3-2.3,4.1-2.6
		c6.9,0.5,13.8,1.2,20.6,2.5c1.8,2.4,4.2,3.6,7.3,3c1.5-0.3,3-0.2,3.9,1.5c1.4,11.9,0.6,23.8,0.4,35.7c0,1.8-1.3,3-2.3,4.3
		c-16.8,2.7-33.3,0.5-49.6-3.8C192.9,458.4,186.9,455.8,182,451z"/>
	<path class="st24" d="M249,463.8c1.7-5,0.9-10.2,0.9-15.3c0.1-8.5,0-17,0-25.5c-1-1.1-1.1-2.3-0.6-3.6c0.2-0.5,0.6-0.9,1-1.1
		c7-2.2,14.1-4.3,20.9-7.3c3.6-1.2,7.2-2.3,8.9-6.2c1.5-2.9,3.7-5,6.4-6.6c1.7-0.3,3.1-2.6,5.2-1.1c3,11.5,3.5,23.2,3.3,35
		c-5.7,14.4-18.3,20.7-31.1,26.8C259.2,461.1,254.2,462.7,249,463.8z"/>
	<path class="st16" d="M261,375c1.8,0.1,3.9-0.4,4.8,1.8c2.4,6,8.1,7.3,13.3,9.4c2.4,1,5.3,1.1,6.9,3.6c-1.6,1.5-3.5,1-5.2,0.8
		c-11.3-1.5-22.6-0.9-33.9-1.1c-2,0-4,0.1-5.9-0.6c-0.6-0.2-1.1-0.6-1.5-1c-1.5-4.8-5-5.7-9.7-5.6c-7.3,0.2-14.6,0.8-21.9-0.7
		c-1.9-0.4-4.1-0.4-5-2.7c0-0.3,0-0.7,0-1c0.8-2.4,2.6-3,5-3c7.6-0.2,15.1,1.2,22.8,1.2C240.9,376.2,250.9,375.2,261,375z"/>
	<path class="st25" d="M240,420c-7.4,0.4-14.6-1.7-22-2c-5.6,0.6-10.8-1.2-16.1-2.6c-0.5,0-1.1-0.1-1.6-0.2
		c-6.5-1.1-12.8-3.3-19.4-4.4c-1.6-0.3-3.9-0.2-4-2.8c0-0.6,0.1-1.3,0.1-1.9c1.2-2.1,2.9-3.6,5-4.7c9.5-5,19.3-8.9,29.5-12.2
		c8.1-2.7,16.4-2.8,24.7-2.5c1.4,0,2.6,0.3,3.7,1.2l0,0.3c4.9,9.8,10.7,19.2,10,30.8l0,0C247,422.5,243.6,422,240,420z"/>
	<path class="st26" d="M240,387.8c-20.4-1.8-38.5,5.2-56.1,14.2c-2.4,1.2-4.6,2.7-6.8,4.1c1.4-5.5,4.2-9.9,9.2-12.9
		c6.4-3.8,12.2-8.3,16.8-14.2c7.7,2.7,15.7,2,23.6,2c1.8,0,3.7,0.3,5.5,0C237.7,379.9,240,382.5,240,387.8z"/>
	<path class="st27" d="M202,414c5.3,1.3,10.7,2.6,16,4c-9.7,10.8-20.3,20.6-31.9,29.4c-1.3,1-2.8,1.8-4.1,2.7
		c-2.4-2.5-3.1-5.8-4.1-8.9c1.6-3.8,5.1-6,7.8-8.8c4.2-4.4,8.6-8.7,12.9-12.9C200.1,417.8,201.3,416.1,202,414z"/>
	<path class="st27" d="M176.9,408c8,2,16.1,4,24.1,6c1.3,1.9-0.2,3.1-1.3,4.2c-5.9,6-11.9,12-17.9,17.9c-1.3,1.3-2.6,2.6-4.7,1.9
		C174.5,428,173.7,418,176.9,408z"/>
	<path class="st23" d="M177.1,438c9.1-6.9,17.2-14.7,23.9-24c0.3,0,0.7,0,1,0c0.9,1.4,0.9,2.6-0.4,3.9c-8,7.6-15.3,16-23.7,23.1
		C176.7,440.3,177,439.1,177.1,438z"/>
	<path class="st28" d="M250,419c-1.4-10.9-7.3-20.4-10-30.8c15.4-0.2,30.7-1,46,1.6c1.6,0.4,3.1,1.1,3,3.1c1.8,2.8,0.3,4.6-2,6
		c-2.4,1.6-4.4,3.6-6,6c-2,3.6-6,4.7-9,7C264.9,414.9,257.8,418.1,250,419z"/>
	<path class="st23" d="M287,399c1.4-1.8,2.4-3.7,2-6c1.7,0.8,2.2,2.5,2.8,4.1C290.2,397.7,288.6,398.3,287,399z"/>
	<path class="st28" d="M240,420c3.3-0.3,6.8,0.7,10-1c0,1.3,0,2.7,0,4c-1.9,0.3-3.9,0.8-5.8,1C241.4,424.3,239.8,423,240,420z"/>
	<path class="st23" d="M272,412c2.5-3,6.2-4.4,9-7C280,409.9,275.5,410.3,272,412z"/>
</g>
</svg>
