<?xml version="1.0" encoding="utf-8"?>
<!-- Generator: Adobe Illustrator 19.0.0, SVG Export Plug-In . SVG Version: 6.00 Build 0)  -->
<svg version="1.1" id="Calque_1" xmlns="http://www.w3.org/2000/svg" xmlns:xlink="http://www.w3.org/1999/xlink" x="0px" y="0px"
	 viewBox="0 0 612 792" style="enable-background:new 0 0 612 792;" xml:space="preserve">
<style type="text/css">
	.st0{fill:#B0BFC8;}
	.st1{fill:#A1ADB5;}
	.st2{fill:#F3EFC3;}
	.st3{fill:#E4E0B7;}
	.st4{fill:#CDDEE9;}
	.st5{fill:#A4B1B9;}
	.st6{fill:#98A2A9;}
	.st7{fill:#97A0A7;}
	.st8{fill:#F5AE1F;}
	.st9{fill:#F1CF89;}
	.st10{fill:#A2ADB5;}
	.st11{fill:#3C3C3B;}
	.st12{fill:#B1ADA6;}
	.st13{fill:#C1BFB7;}
</style>
<g>
	<path class="st0" d="M254,467.9c-9.3-2.8-17.5-7.8-26.1-12c-4.2-1.6-7.7-4.2-11.1-7c0.1-2.6-2.3-3.4-3.8-4.9
		c-12.9-12.1-22.4-26.1-25.1-44c1-2.5,2.6-0.7,3.4-0.1c12.5,7.8,26.7,9.9,40.8,12.5c19.6,3.6,39.4,5.2,59.3,6.3
		c23,1.3,46.1,2.5,69.2,1.6c21.4-0.9,42.8-1.7,64-3.9c4.6-0.5,9-2.1,13.7-1.2c2.3,2.8-0.1,4.7-1.5,6.4
		c-8.4,10.5-18.4,19.2-30.2,25.8c-25.3,14.1-52.7,19.9-81.3,22.1c-12,0.9-23.9,0.6-35.9,1.7c-0.5,0-1.1-0.1-1.6-0.3
		c-4-1.2-7.9-1.7-12.2-0.9c-5.4,1-10.9-0.8-16.3-1.4C257.6,468.4,255.9,467.6,254,467.9z"/>
	<path class="st1" d="M289,470c24.6-1.3,49.4-1.2,73.5-7.1c26.3-6.5,50.7-16.6,69.4-37.2c2.7-3,5.2-6,7.1-9.5c1.6-2.1,4-2.1,6.3-2.4
		c12.4-2.1,24.9-4,36.7-8.5c3.6-1.4,7-3,10.3-5c1.1-0.6,2.4-2.6,3.8-0.1c-2.7,18.3-12.6,32.4-25.7,44.6c-2.9,2.7-6.2,4.9-9.4,7.3
		c-5.7,2.8-10,7.8-16,10c-11.4,4.5-22.7,9.3-34.8,12c-21.1,4.8-42.5,7.3-64.2,7.1c-14.3-0.1-28.6,0.1-42.8-2c-2.7-0.4-5.4-0.7-6.2,3
		c-1.5-4-2.8-8.2-7.4-9.9C288.9,471.9,288.6,470.9,289,470z"/>
	<path class="st2" d="M294.9,371c0-5.7,0.1-11.3,0.1-17c1.8-2.8,4.4-4.5,7.6-3.4c3.2,1.1,5.6,3.5,6.3,7.1c0.2,0.9-0.6,2.4,0.6,2.7
		c4.2,1.1,4.6,4.3,4.8,7.7c0.2,3.5-0.4,6.6-2.7,9.3c-1.2,1.4-1.7,2.6-0.1,4.2c0.8,0.8,0.7,2.2,0.3,3.4c-1.2,4.2-1.6,8.5-1.1,12.8
		c1.7-0.7,3.4-1.8,4.5-3.8c0.9-1.6,0.8-2.3-0.1-4.3c-2.3-5-2.4-10.6,0.4-15.7c0.7-1.2,2.2-1.9,0.7-3.8c-2.5-3-0.5-5.7,1.5-7.9
		c2.5-2.7,5.3-5.5,9.4-4c1.7,0.6,2.9,1,3.9-0.4c5-6.2,10.7-3.8,15.6-0.6c3.3,2.1,4.9,1,6.7-1c4.3-4.9,10.1-5.4,15.9-5.7
		c2.4-0.1,3.7,0.7,4.5,3.4c1.1,3.8,4.6,6.8,3.6,11.3c-0.3,1.1,0.2,2.5-0.3,3.4c-3.7,5.7-1.1,12-1.6,17.9c-0.3,3.3-0.2,6.7-2.4,9.5
		c-0.8,1-0.2,1.8,0.1,2.9c1.9,7,1.1,13.9-2.4,20.4c-0.1,0.2-0.6,0.3-0.9,0.3c-10.6,0.6-21.3,1.4-31.9,1c-12.8-0.6-25.6-0.5-38.3-1.3
		c-1.7-0.1-3.3-0.2-4.7-1.3c-1.2-1.5-1.3-3.4-1.3-5.2c0-11.1-0.2-22.1,0.1-33.2c-0.1-2.1-0.1-4.3,0.2-6.4
		C293.9,372.5,294.3,371.7,294.9,371z"/>
	<path class="st3" d="M370.9,418.9c0.6-4.7,1.5-9.5,1.8-14.2c0.1-1.7,2.5-5.1-2.4-5.2c-1.5,0-0.2-2,0.4-2.6
		c5.6-4.9,1.9-11.8,3.8-17.5c-6.3-3.4,0.2-5.9,0.8-8.7c0.8-3.5,0.6-6.9,0.5-10.4c0-0.9-0.8-2.6-1.2-2.6c-3.9,0-3-1.7-2.2-4.3
		c0.6-1.9-1.5-1.7-3.1-1.8c-7.7-0.3-13.5,3.2-18.8,8.2c-1,0.9-2.7,4.4-3.1-0.8c-0.2-3.2-11.3-4.4-13.9-2c-1.3,1.2-2.6,2.5-4,3.7
		c-0.6,0.5-1.6,1.3-2.1,0.2c-2.5-5.7-5-0.8-7.1,0.2c-2,1-3.5,3.1-4.1,5.4c-0.3,0.9-0.5,2,0.5,2.7c2.2,1.7,2.5,2.6,0.6,4.4
		c-4.4,4.4-1.8,9.7-2,14.6c-0.1,2.5,2.7,0.5,4.3,1c-2.7,4.8-5.3,9.2-10.7,10.6c0.6-5.3-0.3-10.9,1.8-16.3c1.2-3-1.7-2.2-3.8-2.5
		c4.9-5.6,8.3-11.4,4.8-18.7c-1.4-2.9-3.5,0.7-5.6-0.5c1.2-2.5,2.5-4.7,0-7.8c-4-4.9-7.4-2.5-11.2-0.5c-0.5-2.4,1-4.7,0.2-7.3
		c-0.6-2.2,1.9-3,3.6-3.4c7.5-2.1,15-4.2,22.8-4.3c5.1-0.1,10.2-0.5,15.2-1.9c2,3-1,6.6,1.3,9.3c0.2-3.4-1.8-7.6,2.5-10.3
		c1.3-0.3,2.9-1.2,3.8-0.7c8.2,4.4,17.4,1.8,26,4c0.6,0.2,1.2,0.5,1.9,0.7c9.7,2,9.7,2,9.7,12.2c0,6,0,12,0.1,17.9
		c0.9,1,1.3,2.3,1.3,3.6c0.5,13.5,0.2,27.1,0.2,40.6c0,1.3-0.1,2.6-0.7,3.9C379.1,421.4,375,420.3,370.9,418.9z"/>
	<path class="st4" d="M382,373c0-1,0-2,0-3.1c29.8,2.1,59.7,3.9,88.9,11c7.3,1.8,14.4,4.1,20.8,7.9c4.7,2.8,6,6,4.3,11.1
		c-5.6,2.4-10.7,5.5-16.6,7.5c-11,3.7-22.4,5.4-33.7,7.5c-2.3,0.4-4.5,0.7-6.8,1.1c-7,0.1-13.8,1.6-20.7,2.3
		c-5.4,0.5-11,1.1-16.3,1.3c-10.9,0.4-21.9,1-32.8,1.5c-12.1,0.6-24.3,0.9-36.4,0.7c-17-0.3-34.1-0.7-51.1-2.1
		c-24.4-2-48.8-4.2-72.5-10.9c-7-2-14.2-3.8-19.7-9c-0.6-0.5-1.1-0.7-1.7,0c-1.6-5.3-0.2-8.5,4.8-11.4c10.4-5.9,21.9-8.4,33.4-10.5
		c17.2-3.1,34.5-5.2,52-6.3c5.6-0.4,11.2-0.6,16.8-0.8c0,0.7,0,1.4,0,2.1c-2.1,1.9-4.8,2.2-7.5,2.3c-19.6,0.8-39,3.5-58.2,7.4
		c-7.7,1.6-15.1,3.9-22,7.7c-5.8,3.2-5.8,6.8-0.1,10.3c5,3.1,10.5,5,16.1,6.4c10.3,2.6,20.8,4.3,31.4,5.6
		c11.7,1.7,23.5,2.4,35.2,3.6c1.8,0.2,3.7,0.2,5.2,1.5c13.1,2.2,26.5,0.5,39.7,1.8c12,1.2,24.1-1.4,36.3-0.8c3.7-0.4,7.5,1.1,11-0.9
		c1.4-1.4,3.3-1.4,5.1-1.5c22.6-0.9,45.1-3.3,67.3-8.1c7.3-1.6,14.6-3.2,21.2-7c2.4-1.4,5.4-2.7,5.2-6.1c-0.1-3.1-2.9-4.2-5.2-5.5
		c-7.8-4.3-16.5-6.2-25.1-8c-17.3-3.5-34.8-5.2-52.4-6.7C392.7,374.8,387.1,375.6,382,373z"/>
	<path class="st5" d="M254,467.9c5-1.7,9.9,0.2,14.8,0.7c3.5,0.3,6.8,0.9,10.1-0.5c3.4-1.4,6,1.3,9,2c1.9,14.1-5.3,26.7-18.3,32.6
		c-2.6,1.2-5.1,2.3-7.7,3.3c-3.7-2.5-0.3-4,1-5.3c5.9-5.9,9.9-12.7,11.6-21c0.8-3.9-0.2-5.7-4.1-6.7
		C264.9,471.7,259.3,470.5,254,467.9z"/>
	<path class="st6" d="M262,505.9c3.7-4.4,10-4.5,14.1-8.4c6.9-6.5,10.9-14.3,11-24c0-1.3-0.4-2.7,0.9-3.6c0.3,0,0.7,0,1,0
		c0.7,0.7,1.3,1.8,2.1,1.9c5.8,1.2,6.3,5.4,6,10.1c-1.4,7.8-6.5,13.5-12.5,17.7C277.9,504.4,270.3,506.8,262,505.9z"/>
	<path class="st7" d="M445,462c4.9-4,9.3-8.8,16-10c1.9,5.7,5.8,9.9,9.7,14.2c1.1,1.2,2.9,2.3,2.1,4.2c-0.8,1.8-2.8,1.7-4.4,1.5
		C459.6,470.9,451.4,468.4,445,462z"/>
	<path class="st8" d="M335.7,325.2c-2.4-6.3,0.6-12,2.7-17.5c1.7-4.5,4.6-8.5,3.4-13.6c-0.2-0.7-0.2-1.9,1.1-1.6
		c0.4,0.1,0.7,1,1.1,1.5c3,8.4,4.1,17,3.4,25.9c-0.2,2.4-0.9,4.6-2.7,6.3C341.8,328.8,339.1,328.5,335.7,325.2z"/>
	<path class="st9" d="M335.7,325.2c6.1,3.1,8.9,1.3,10.3-5.3c1.9-9-0.6-17.4-2.1-26c2.9,3.2,2.9,7.3,3.4,11.1
		c0.9,7.1,2,14.1,1.5,21.3c-0.3,4.3-2.4,5.8-6.1,4.4c-2.2-0.8-2.6,2.3-4.5,2.1C336.4,330.7,335.6,328.1,335.7,325.2z"/>
	<path class="st10" d="M216.8,448.9c4.7,0.8,7.7,4.3,11.1,7c-4.3,0.2-8.6,0.7-12.9-0.5c-1.7-0.5-4.1-0.7-4.3-2.8
		c-0.1-1.8,2.3-2,3.7-2.8C215.2,449.4,216,449.2,216.8,448.9z"/>
	<path class="st11" d="M338.3,332.9c1.7-0.3,0.6-6.7,4.5-2.1c-1.3,1.5-1.8,3.3-2.2,5.2c-1.8,3.5-2.3,7.1-0.8,10.9
		c0.4,1,1.3,2.4-0.5,2.8c-1.5,0.4-1.8-1-2.3-2.1c-1.6-3.5-1.1-7.1-0.2-10.6C337.3,335.6,337.8,334.3,338.3,332.9z"/>
	<path class="st12" d="M253.9,414c-15.7-1.8-31.3-3.9-45.7-10.8c-1.3-0.6-2.7-1.3-3.8-2.3c-4.9-4-4.7-7.8,0.7-10.9
		c8-4.6,16.8-7.1,25.7-9c15.6-3.4,31.4-4.9,47.2-6.7c5.6-0.6,11.3-0.1,16.9-1.2c0,2,0,4,0,5.9c-1.3,2.6-4,2.9-6.3,3.6
		c-8.5,2.5-16.6,5.7-24.1,10.5C256.9,398.1,251.6,404,253.9,414z"/>
	<path class="st13" d="M253.9,414c-3.4-5.4-2.6-10.8,3-16.4c7.3-7.3,16.5-11.4,26.2-14.6c3.9-1.3,7.8-2.7,11.7-4c0,13,0.1,26,0.1,39
		C281.2,417.4,267.5,416.5,253.9,414z"/>
	<path class="st13" d="M382,373c14.8,0.3,29.4,2.1,44,3.7c11.9,1.3,23.5,3.6,35.1,6.2c6.4,1.4,12.3,4,18,7.2
		c5.5,3.1,4.9,8.3-1.2,11.9c-7.3,4.3-15.3,6.3-23.5,8c-17.8,3.7-35.9,6-54.1,7.2c-6.1,0.4-12.3,0.5-18.4,0.8
		C382,403,382,388,382,373z"/>
</g>
</svg>
