<?xml version="1.0" encoding="utf-8"?>
<!-- Generator: Adobe Illustrator 19.0.0, SVG Export Plug-In . SVG Version: 6.00 Build 0)  -->
<svg version="1.1" id="Calque_1" xmlns="http://www.w3.org/2000/svg" xmlns:xlink="http://www.w3.org/1999/xlink" x="0px" y="0px"
	 viewBox="0 0 612 792" style="enable-background:new 0 0 612 792;" xml:space="preserve">
<style type="text/css">
	.st0{fill:#FDE6FB;}
	.st1{fill:#D3D1D2;}
	.st2{fill:#E7E7E8;}
	.st3{fill:#D8D8D9;}
	.st4{fill:#DFB1DB;}
	.st5{fill:#C6C4C5;}
	.st6{fill:#EECFE9;}
	.st7{fill:#EED0E9;}
	.st8{fill:#EEBDE9;}
	.st9{fill:#9F6A9B;}
	.st10{fill:#E8E8E8;}
	.st11{fill:#EEBCE9;}
	.st12{fill:#C197BE;}
	.st13{fill:#9E699A;}
</style>
<g>
	<path class="st0" d="M233.2,316.3c1.2-2,3.4-1.8,5.2-2.5c3.7-1.3,7.6-1.8,10.6-4.9c2-2.2,5.5-0.4,8-1.4c7.4-3.1,15.7-3.7,22.4-8.8
		c2.7-2.1,6.8-0.2,10-1.8c6.5-3.2,14.2-3.2,20-8.2c1.4-1.2,4.2-2,6.5-0.7c0.3,0,0.5,0.1,0.8,0.1c29.2,5.8,58.3,12.6,87.5,18.7
		c1.8,0.4,3.5,0.9,5.2,1.6c2,3.4-1.2,4.3-3,5.4c-12.1,7.6-24.5,14.5-36.7,21.9c-7.7,4.6-15.3,9.3-23.1,13.7
		c-1.6,0.9-3.1,1.9-5.1,1.8c-11.7-2.7-22.9-6.9-34.2-10.5c-23.9-7.6-47.7-15.2-71.5-23C234.9,317.2,233.9,317,233.2,316.3z"/>
	<path class="st0" d="M239,378c-0.7-4,0.8-6.5,4.7-7.9c5.3-2,10-5.1,13.3-9.9c2.5-1.3,5.3-1.8,7.4-4c3.2-3.3,3.1-5.2-1.2-7
		c-9.4-4-19.3-4.8-29.4-3.2c-10.4,1.6-20.4,4.5-30,8.9c-1.8,0.8-3.6,1.7-5.7,1.9c-10.1-3.2-19.7-7.6-29.8-10.9
		c-5.4-1.7-5.3-1.9-6.2,3.5c-0.2,1-0.3,2-1.2,2.6c-2.1-3.1-0.3-6.8-1.5-10.1c-0.4-1.1,1.3-1.6,2.4-1.9c8.9-2.5,17.5-5.2,26-9.4
		c6.2-3.1,13.9-3.5,20.8-5.9c6.3-2.2,11.7-6.7,18.9-6.6c1.9,0,3.9-0.5,5.8-0.3c1.9-1.1,3.6,0,5.2,0.5c30.1,9.7,60.3,19,90.3,29.1
		c3.4,1.1,7.3,1.1,10.1,3.9c0.8,2.3-1.1,2.9-2.4,3.7c-18,11-36,21.9-54.3,32.5c-1,0.6-2.1,1-3.3,1c-10.6-2.6-20.5-7.2-30.6-11.3
		C244.9,375.8,241.9,375.1,239,378z"/>
	<path class="st0" d="M315.9,287.9c4.3-1.6,8.7-3.2,13-4.7c3.9-1.4,8-2,11-5.3c1-1.1,3.2-1.9,4.5-1.6c4.1,0.9,7.4-0.9,11-2
		c6.6-2,12.6-3.8,20.3-1.9c8.2,2,16.7,4.7,25.7,4.7c4,0,8.7,3,13.2,3.1c7.1,0.2,13.5,4,20.9,3.5c3.9-0.2,9.1,1.6,13,3.7
		c2.6,1.3,1.6,4.9,0.3,7.5c-2.2-4.6-2.1-4.4-7.1-2c-8.3,4.1-15.9,9.4-24,13.8c-1.6,0.9-3.2,1.8-5,2.2c-11.6-1.8-23-4.9-34.5-7.2
		c-19.6-4-39.2-8.6-58.8-12.6c-1.3-0.3-2.6-0.4-3.8-1.2L315.9,287.9z"/>
	<path class="st1" d="M428,316c-21.8,13.6-43.5,27.4-65.1,41.4c-23.9,15.5-48.2,30.6-72.4,45.8c-3.3,2.1-4.6,4.3-4.6,8.4
		c0.2,37.1,0.1,74.2,0,111.4c0,4.4-0.1,8.8-0.5,13.2c-0.5,5-3.2,7.5-8.4,6.8c-1.5-4.1,1-7.8,1.4-11.7c1.1-11.6,1.9-23.2,2-34.8
		c0.2-21.3,0-42.6-0.2-63.9c-0.1-5.6-2.2-9.4-7.2-11.7c-0.8-1.9,2.2-7.6-4-4c-2.5-4.1-1.4-8.4-0.5-12.7c1.9-1.9,3.7-0.4,5.4,0.2
		c1.9,0.6,3.5,1.8,5.6,1.9c7.6-3.4,14.1-8.8,21-13.3c11.2-7.4,22.5-14.8,33.7-22.4c2.1-1.4,4.1-2.9,5.5-5c0.8-0.6,1.7-0.9,2.7-1.1
		c8.4-3.4,15.2-9.4,22.6-14.3c15.5-10.2,30.7-20.8,46.3-30.9c0.4-0.3,0.8-0.5,1.2-0.7c8-4.8,15.3-10.6,23.2-15.6c1.6-1,3-2.8,5.3-2
		c-0.1,2.8,0.2,5.7-2.1,7.9C435.8,312.2,432.4,314.8,428,316z"/>
	<path class="st2" d="M273.1,421c1.9,0.4,3.9,0.8,5.8,1.1c1.1,0.2,2.1,0.6,2,1.8c-0.6,4.3,2.2,8.4,0.5,12.8
		c-1.2,3.1,0.8,6.1,0.7,9.3c-0.2,19.1,0.5,38.3-0.3,57.4c-0.5,11,0,22.2-2.8,33.1c-0.6,2.2-1.3,4.4-2,6.6c-3.9-2.3-5.2-5.7-5-10.1
		c0.5-10.6,0.4-21.3,0.6-31.8c0.2-10.8,1.6-21.7-0.4-32.6c-0.4-2.3,0.9-4.9,0.7-7.3c-0.6-9.1,0-18.2-0.1-27.2
		C272.8,429.6,272,425.3,273.1,421z"/>
	<path class="st3" d="M176,498c-3.7-0.8-5.1-3.2-5.1-6.8c0.1-38.4,0.1-76.8,0.2-115.2c6.4-1.5,8.8-0.1,10,5.9
		c0.5,2.6,0.5,5.3,0.5,7.9c0,24.4,0.1,48.8,0,73.3c0,9.5-1.5,18.9-2.4,28.3C178.9,493.9,178.1,496.3,176,498z"/>
	<path class="st2" d="M428,316c3.5-2.6,6.9-5.4,11-7c0,30.1,0.1,60.3,0,90.4c0,2.8-0.5,5.6-1.1,8.3c-0.6,2.7-2.8,3.4-5.4,3.3
		c-3-0.1-3.6-2-3.4-4.4c0.7-7.1-1.2-14.1-0.2-21.3c1-7.5-0.4-15.1,0-22.7c0.3-7.2,0.3-14.5,0-21.7c-0.3-6.8,0-13.5,0.2-20.3
		C429,319,429.5,317.3,428,316z"/>
	<path class="st4" d="M198,356c15-7,30.3-12.5,47.1-12c7.3,0.2,14.4,1.6,21.1,4.9c3.2,1.6,3.3,3.7,1.3,5.8
		c-2.8,2.9-5.1,7.3-10.5,5.4c-18.7-3.6-36.2,0.4-53.3,7.9c-1.8,0.8-3.8,1.3-5.6,1.9C195.7,365.3,195.6,360.7,198,356z"/>
	<path class="st5" d="M176,498c3-10.6,3.5-21.6,3.8-32.4c0.6-25.8,0.2-51.6,0.2-77.4c0-9.6-0.1-9.7-8.9-12.2c-0.1-2-0.2-3.9-0.2-5.9
		c-0.6-0.8-1.1-1.7-1.1-2.7c0.4-4.3-1.4-7.2-5.4-8.9c-1.3-0.5-2.6-1.7-1.4-3.5c0.3-0.1,0.5-0.1,0.8-0.2c1.2-1.1,2.5-0.8,3.7-0.3
		c5.1,1.9,9.9,4.6,14.7,7.3c1.1,0.6,2.2,1.5,1.8,3.2c0,40.3-0.1,80.6-0.1,120.9c0,1.8,0.1,3.7-0.1,5.5
		C183.3,495.9,181.3,499,176,498z"/>
	<path class="st6" d="M280,408c-4.1-0.2-7.1-3.5-11.1-4c-5.4,0.4-9.7-1.5-12.8-6c-2.4-2.1-5.4-3.1-8.3-4.2c-4.5-1.8-9-3.5-8.1-10
		c0.2-1.7-0.6-3.8-0.6-5.8c0.6-5.5,3.6-4.5,7.3-3c10.8,4.5,21.8,8.6,32.7,12.9C281.1,394.6,281.9,401.2,280,408z"/>
	<path class="st7" d="M184.1,365c-6.1-4.7-12.8-8.1-20.2-10.2c-1-0.9-1.9-1.9-2.8-2.8c0.1-9.7,0.1-9.9,9.4-6.7
		c9.4,3.1,18.7,6.4,27.6,10.8c0,4.6,0,9.3,0,13.9c-3.5-0.6-6.3-2.8-9.4-4.1C187.2,365.2,185.8,363.9,184.1,365z"/>
	<path class="st8" d="M441.1,301c-9.4,6.3-18.8,12.6-28.2,18.9c-2-3.2-1.3-6.7-0.8-10.1c0.3-0.9,1.1-1.3,1.9-1.7
		c10.5-6.8,21.4-12.9,32.4-19c2.1-1.2,2.7-0.6,2.7,1.5c0,1.5,0,3,0.1,4.5C446.8,297.6,444,299.4,441.1,301z"/>
	<path class="st9" d="M343,366c-1,0-2-0.1-2.9-0.1c-2.9-4.4-1.1-9.2-1.1-13.8c-22.5-7.4-45.1-14.7-67.6-22.1
		c-12.6-4.1-25.3-8.1-37.9-12.2c-0.1-0.5-0.1-1.1-0.2-1.6c3.7-0.6,6.8,1.3,10,2.3C276.1,329,309,339.5,342,350
		C346.3,355.1,345,360.5,343,366z"/>
	<path class="st2" d="M256,398c3.8,3,8.3,4.5,12.8,6c0,4.3,0.1,8.6,0.1,13c-7.1-1.1-13.6-6.1-13.6-10.6
		C255.3,403.6,255.8,400.8,256,398z"/>
	<path class="st10" d="M163,355c0.1,0.9,0.2,1.8,1.1,2c7.4,1.7,7.6,7.1,6.7,13.1c-2.5-1.3-5-2.5-7.5-3.9
		C159.2,363.6,159,359.2,163,355z"/>
	<path class="st11" d="M343,366c-0.6-5.3,1.1-10.8-1-16c11.5-5.5,22-12.8,33-19.1c10.8-6.1,21.4-12.6,32-19c1.1-0.7,1.9-1.8,2.9-2.7
		c1.5-1,2,0.2,2.5,1.2c-0.1,3.1,0.5,6.3-0.3,9.3c-13,9.6-26.7,18.3-40.1,27.2C362.3,353.4,353.2,360.6,343,366z"/>
	<path class="st12" d="M411.8,310.1c-0.6-0.3-1.3-0.6-1.9-0.9c-24.2-5.2-48.5-10.5-72.7-15.7c-5.7-1.2-11.3-2.4-17-3.6
		c-1.6-0.3-3.3-0.4-4.3-2c13.8,1.9,27.2,5.6,40.7,8.4c17.3,3.6,34.6,7.5,51.8,11.2c1.8,0.4,3.6,0.3,5.4,0.5
		c-0.4,0.3-0.8,0.6-1.1,0.9C412.6,309.5,412.5,310.1,411.8,310.1z"/>
	<path class="st8" d="M338.9,352.1c2.3,4.4,0.4,9.2,1.1,13.8c0.1,1.6-0.6,2.7-2,3.7c-19.4,12.8-38.7,25.6-58.1,38.4
		c-0.7-6.6-1.3-13.3-1-20C299,376,318.9,364.1,338.9,352.1z"/>
	<path class="st13" d="M411.8,310.1c0.4-0.4,0.7-0.7,1.1-1.1c0,3.6,0,7.3,0.1,10.9c-0.3,0-0.5-0.1-0.8-0.1
		C412,316.6,411.9,313.4,411.8,310.1z"/>
</g>
</svg>
