<?xml version="1.0" encoding="utf-8"?>
<!-- Generator: Adobe Illustrator 19.0.0, SVG Export Plug-In . SVG Version: 6.00 Build 0)  -->
<svg version="1.1" id="Calque_1" xmlns="http://www.w3.org/2000/svg" xmlns:xlink="http://www.w3.org/1999/xlink" x="0px" y="0px"
	 viewBox="0 0 612 792" style="enable-background:new 0 0 612 792;" xml:space="preserve">
<style type="text/css">
	.st0{fill:#2D953E;}
	.st1{fill:#F5B44E;}
	.st2{fill:#F2AE43;}
	.st3{fill:#F9BB5A;}
	.st4{fill:#35AE49;}
	.st5{fill:#E1A44A;}
	.st6{fill:#DD9E3D;}
	.st7{fill:#EEA737;}
	.st8{fill:#3CBF4F;}
	.st9{fill:#D79633;}
	.st10{fill:#C48A36;}
</style>
<g>
	<path class="st0" d="M305.4,445.9c-14.1-11.6-30.6-18.1-47.8-23.5c-10.9-3.4-21.2-8.8-30.4-15.8c-12.7-9.8-17.7-23.4-18.8-38.7
		c-1.2-16.4,0.2-32.6,3.1-48.7c0.1-0.8,0.4-1.6,0.6-2.4c0.3-1.1,0.7-2.4,2-2.4c1.3,0,1.8,1.3,2,2.5c1.9,9.1,6.2,17.2,10.9,25
		c12.1,20.3,27.4,38.1,43.3,55.4c6.3,6.9,11.9,14.2,15.7,22.9c3,7.1,9.1,11.8,15.2,16.2c4.2,3,8.4,6,12.6,9c0.7,0.5,1.2,1.1,0.3,1.9
		C311,447.7,308,447.8,305.4,445.9z"/>
	<path class="st1" d="M314.6,442c-5.4-6.2-4.5-12.4-1.8-19.8c8.8-23.5,8.2-47.2-2-70.3c-3.3-7.4-6.3-14.7-3.3-23
		c1.4-3.8,4.7-5,8.1-5.9c6.2-1.7,12.5-1.8,18.8-1.4c5.6,0.4,8.1,3.1,8.3,8.6c0.1,2.5,0,5-0.7,7.4c-5.9,21-7.3,42.3-2.3,63.7
		c1.5,6.5,3.3,12.9,5.9,19.1c2.1,5,3.4,10,2.7,15.5c-0.5,3.8-1.6,6.7-4.9,8.7c-6.8,1.4-13.7,0.5-20.6,1
		C319.8,445.9,316.5,444.9,314.6,442z"/>
	<path class="st2" d="M314.3,446.9c-0.2-0.5-0.4-1-0.7-1.5c0.3-0.8,0.5-1.7,0.8-2.5c9.6,4.2,19.7,1.1,29.5,2
		c7.9,2.2,10,5.3,8.2,13.5c-2.2,9.6-3.5,19.2-4.9,28.9c-2.2,15.4,0.7,30,5.8,44.5c0.8,2.2,1.6,4.4,2.1,6.6c2.2,9-1.2,16.7-9.5,21.2
		c-8.2,1.3-16.2,1.2-23.5-3.6c-0.4-0.4-0.7-0.9-1-1.4c-7.2-9.9-7-12.4,1.4-21.4c7.4-8,7.4-17.8,6.4-27.7
		c-1.4-13.4-3.4-26.6-6.8-39.7c4.4-2.2,4.8-3.6,2.1-7.4c-1.9-2.7-4.5-4.8-6.7-7.2C316.2,449.9,314.7,448.9,314.3,446.9z"/>
	<path class="st3" d="M307.3,326.9c-0.5-3,0.9-5.5,2.1-8.1c7.7-17.7,8.1-35.4,0.3-53.2c-2.5-5.8-5.4-11.4-5.5-18
		c-0.2-11,3.9-16.7,14.8-18.2c7.6-1.1,15.6-2.4,22.4,3.2c2.5,3.2,2.5,6.7,1.1,10.4c-6.5,17.2-7.3,35-5.8,53.1
		c0.4,5.3,0.5,10.7-0.1,16c-0.7,6.6-2.9,8.9-9.4,9.3C320.1,321.8,313.5,323.4,307.3,326.9z"/>
	<path class="st4" d="M230.1,461c-27.2-1.4-44.7-13.9-54.5-37.8c-4.4-10.7-6.6-21.9-8-33.3c-0.1-0.8,0.2-1.6,0.4-2.3
		c0.7,0.2,1.6,0.2,2.2,0.6c1.1,0.7,2.4,1.4,3,2.5c4.4,8.7,11.1,15.2,19.2,20.3c2,3.8,6,4.5,9.5,5.9c9.2,3.5,18.8,5.3,28.4,7.4
		c13.5,3.1,26.6,7.3,38.3,15c-4.6-3.3-9.1-6.8-14.5-9c-1.4-0.6-3.3-1.1-2.4-3.5c0-0.1,0.3-0.1,0.4-0.1c0.2,0,0.3,0.1,0.5,0.2
		c9.4,3.6,18.3,7.9,23.2,17.5c1.2,2.3,3.8,2.9,5.6,4.5c1.2,1.2,3.8,1.4,3,4.1l0,0c-4.9,0.7-6.4-4.6-10-5.5c0.8,1.3,5.2,1.7,1.8,5
		c1.7,0.2,4.1-2,5.2,1.2c-10.8,4.2-22,6.9-33.6,7.3C241.8,461.6,235.9,461.7,230.1,461z"/>
	<path class="st5" d="M307.3,326.9c5.4-5.6,12.7-5.9,19.7-6.9c6.4-1,8.1-2.9,8.3-9.6c0.3-8.3-1.1-16.6-0.8-24.8
		c0.5-14.3,0.4-28.8,6.5-42.3c1.5-3.3,1.8-7,0.4-10.6c6.2,4.9,5.8,11.7,4.4,18.3c-2.1,10.2-5.8,20-6.9,30.5c-1.1,10.3-1,20.5,2.7,30
		c6.6,16.9,6.7,33.5,2.5,51c-4.5,18.8-3.6,37.6,6.6,55c3.5,5.9,5,12.3,2.8,19.1c-0.6,6.2-4.8,9.2-10.2,7.3c6-7,4.4-14.6,1.4-22.1
		c-9.4-23.3-11.8-47.2-7.1-72c1.3-6.7,4.6-13,3.9-20.2c-0.4-3.7-2-6-5.1-6.3c-8.3-0.8-16.6-0.9-24.5,2.5c-1.6,0.7-3,2.1-4.4,3.2
		C307.4,328.3,307.4,327.6,307.3,326.9z"/>
	<path class="st6" d="M345.3,558.9c9.2-6.9,11-12.6,7.3-23.6c-4.1-12.1-7.9-24.3-7.9-37.2c0-6.4,1.5-12.8,2.1-19.2
		c0.7-7.6,2.8-14.9,4.3-22.4c1.3-6-0.1-7.9-6.9-10.5c4.3-1.5,7.8-4,10.1-8.1c3.7,5.5,1.4,11.3,0.5,16.9c-1.5,9.6-4,19.1-4.4,29
		c-0.7,18.4,2.9,35.9,10.5,52.7c4.1,9.1,3,13.5-4.5,19.5C352.8,560,349.8,560.7,345.3,558.9z"/>
	<path class="st7" d="M344.6,586.1c-6.2,1.3-12.5,0.6-19.5,0.9c4.3-8.5,1-14.9-4.3-21.1c-3.7-4.4-3.4-7.3,0.3-11.2
		c0,0,0.3,0.3,0.3,0.3c6.6,4.6,14.2,5.2,21.9,5.5c2,0.1,4,0,6,0.1c2.8,0.2,4.6,1.5,5.5,4.2c0.9,2.7,0.1,4.9-2,6.7
		c-2.7,2.3-6,3.6-8.5,6C340.3,581.3,340.4,582.8,344.6,586.1z"/>
	<path class="st8" d="M252.5,426.8c-1.1,2.3,1,1.8,1.9,2.2c6.6,2.8,12.4,6.8,17.5,11.9c-1,1.1-1.7,0.4-2.3,0
		c-15.7-9.8-33.3-14.4-51.2-18.1c-8.8-1.8-17.4-4.2-25.3-8.6c-1.8-1-2.9-1.7-0.7-3.3C211.9,418.1,232.9,419.8,252.5,426.8z"/>
	<path class="st8" d="M284.4,453c-1-1.4-2-2.7-3-4.1c6.7,0.3,13.4,1.1,20-0.8c1.5-0.4,3.3-0.3,4.1-2.1c3-0.2,6,0,8.9,1
		c4.8,3.6,9,7.7,12.1,12.8c1.1,1.8,1.4,3.7,0,5.5c-1.2,1.7-2.8,1.3-4.4,0.6c-3.2-9.6-11-12.3-19.8-12.9
		C296.3,452.6,290.3,452.9,284.4,453z"/>
	<path class="st9" d="M344.6,586.1c-1.7-0.7-4.3,1-5.1-1.8c-0.6-2.2,0.5-4.2,2-5.9c2.4-2.8,5.6-4.6,8.7-6.5c2.2-1.3,4.6-2.5,3.7-6.1
		c-0.9-3.8-3.3-4-6.3-3.9c-6.9,0.4-13.5-0.7-20-3.1c-2.3-0.9-4.8-1.4-6.2-3.8c7.6,3.7,15.6,4.5,23.9,3.9c4.1,0.5,7.6-1.3,11.2-2.9
		c0.6,2.2,1.3,4.4,1.9,6.6c0.9,3.1,0.5,5.8-2.1,8.1c-2.8,2.5-4.9,6-4.6,9.6C352,586.2,349.1,586.8,344.6,586.1z"/>
	<path class="st10" d="M354.4,437.9c-1.3,5.3-4.5,8.1-10.1,8.1c-6,0-12-0.2-18,0c-4.3,0.2-8.2-0.6-11.8-3.1c-0.1-0.3-0.1-0.6,0.1-1
		c9.3,4.5,19.2,1,28.7,1.9c5.4,0.4,8.2-2.8,10.2-7.3C353.8,437,354.1,437.5,354.4,437.9z"/>
	<path class="st8" d="M281.3,453.7c-2-2.3-4.9,1.5-6.6-0.6c3.4-4.9-2.5-4.6-3.6-6.8c0.7-1.5,1.6-1.1,2.8-0.5
		c3.8,2.1,6.6,5.5,10.6,7.1C283.5,453.8,282.3,453.6,281.3,453.7z"/>
	<path class="st8" d="M230.1,461c5.9,0,11.7,0,17.6,0C241.8,462.3,235.9,462.3,230.1,461z"/>
	<path class="st8" d="M267.8,444c-4.9-0.2-8.9-2.9-14.9-2.9c6.7,3.1,12.6,4.6,18.9,8.5c-3.8,0.4-6.2,0.4-8.8-0.2
		c-12.8-2.9-25-7.8-37.5-11.9c-7.7-2.5-15.6-4.1-23.3-6.8c15.3,7.9,32,12.1,48.1,17.8c-22.3-1.6-43-7.1-60.3-24.4
		c9.7-0.4,16.4,5.8,24.6,6.4c-10.7-5.1-22.4-8.4-30.3-18.2c3.1,1.9,6.1,3.9,9.3,5.7c13.2,7.5,28.1,10,42.5,13.9
		c9.8,2.7,19.3,5.9,28.6,10.2C265.7,442.5,266.7,443.3,267.8,444z"/>
	<path class="st8" d="M192,440.8c-3.1-4.7-6.9-8.7-9.7-14.5c4.6,2.2,6.6,6.3,9.7,9.1c10.3,9.1,22.5,13.1,35.5,15.4
		c9.2,1.7,18.4,2.6,27.7,1.9c2.9-0.2,3.8,2.7,7.1,2.4c-23.4,10.2-62.3,4.5-76.4-19.7C188,437.2,190,439,192,440.8z"/>
	<path class="st8" d="M225.3,447.4c-18.5-2.8-34.1-10.4-43.5-27.6C194,432.7,208.3,442,225.3,447.4z"/>
	<path class="st8" d="M234.3,428.9c-5,0.1-9.5-1.8-14.1-3.5C225.1,426,230,426.3,234.3,428.9L234.3,428.9z"/>
	<path class="st8" d="M234.3,428.9c4.4-0.2,8.3,1.3,12.2,3.1C242.3,431.6,238,431.3,234.3,428.9
		C234.3,428.9,234.3,428.9,234.3,428.9z"/>
</g>
</svg>
