<?xml version="1.0" encoding="utf-8"?>
<!-- Generator: Adobe Illustrator 19.0.0, SVG Export Plug-In . SVG Version: 6.00 Build 0)  -->
<svg version="1.1" id="Calque_1" xmlns="http://www.w3.org/2000/svg" xmlns:xlink="http://www.w3.org/1999/xlink" x="0px" y="0px"
	 viewBox="0 0 612 792" style="enable-background:new 0 0 612 792;" xml:space="preserve">
<style type="text/css">
	.st0{fill:#FDB8FD;}
	.st1{fill:#E7A7E5;}
	.st2{fill:#E9A8E9;}
	.st3{fill:#E8A7E6;}
	.st4{fill:#D38CE5;}
	.st5{fill:#FCB7FC;}
	.st6{fill:#E69BFD;}
	.st7{fill:#9D579D;}
	.st8{fill:#F3B0F2;}
	.st9{fill:#EBB3FD;}
	.st10{fill:#F2AFF1;}
	.st11{fill:#C687DA;}
	.st12{fill:#C17AC1;}
	.st13{fill:#FDB7FD;}
	.st14{fill:#C686D9;}
	.st15{fill:#A873B8;}
	.st16{fill:#DE9FDE;}
	.st17{fill:#B57FB0;}
</style>
<g>
	<path class="st0" d="M275.1,285.1c2.2-3.8,1.9-8.4,3.6-12.3c2.9-6.4,6.2-12.5,12.4-16.5c3.4-2.2,3.8-6.6,6.5-9.3
		c10.5-10.7,21.8-19.8,37.2-22.4c19.4-3.2,38.2-1.9,56.2,6.4c-15.6,16.1-31.6,31.7-47.3,47.6c-1.4,1.3-2.9,2.4-4.6,3.3
		c-12.9,6.2-24.2,14.3-30.6,27.7c-0.9,1.9-1.7,3.9-2.5,5.9c-0.4,1.2-1.6,2.1-1.6,3.6c1.3,0.8,2.2-0.2,3.2-0.7
		c14.4-7.7,29.6-13.5,44.5-20.2c13.5-6.1,26.2-13.8,36.9-24.2c6.5-6.3,14.2-10.2,23.1-11.8c8.4,4.4,13.1,11.9,16.7,20.2
		c2.9,6.8,6.8,13.2,8.4,20.6c4.9,14.3,9.5,28.7,10.8,43.9c1.2,13.6,1.8,27.2-3.6,40.3c-7,17-20.5,25.5-37.8,29.1
		c-2.5,0.5-4.9-1.1-7.4-0.3c-4.8-2.4-5.5-6.6-5.1-11.4c1.7-17.9,1.5-35.8,0.1-53.7c-0.3-4.1-0.8-8.2-1.1-12.4
		c-0.1-1.5,0.2-3.2-2-3.4c-0.9-4.1-0.8-8.5-2.3-12.9c-11.8,9-21,19.6-27.5,32.3c-4,7.8-7.8,15.8-13.5,22.7
		c-8.3,10-18.7,16.5-31.4,18.8c-5,0.9-10.2,0.7-15.3,1.3c-13.5-1.8-22.2-10-28.9-21.1c0.5-5.6-2.7-10.1-4.2-15.2
		c-2.2-3.6-2.1-7.7-2.3-11.6c-0.5-12.7,0.1-25.3,3.5-37.6c0.9-3.1,0.8-6.3,1.3-9.4C271.5,296.4,273,290.7,275.1,285.1z"/>
	<path class="st1" d="M375,402c4.9,5.8,7,12.9,8.9,19.8c6.2,22.6,9.1,45.7,10.4,69.2c0.7,11.9,0.5,23.5-1.3,35.2
		c-0.7,4.9-3.2,8.1-7.7,10.2c-10.3,4.8-21.4,5.9-32.5,6.5c-13.6,0.7-27.2,0-40.8-2c-0.1-2,1.6-1.9,2.7-2.2
		c12.4-2.6,19-11.4,23.1-22.4c2.4-6.4,4-13,4.1-20.2c-3.2-0.1-7.1,0.8-8.5-3.6c-0.1-1.1,0.6-1.8,1.4-2.4
		c6.5-4.6,11.2-10.8,15.4-17.4c2.2-3.6,0.4-6-2.6-7.8c-11.9-7.3-17.9-19.1-23.5-31.1c-0.7-1.5-1.4-3.1-0.4-4.7
		c4.1,0.2,4.8,3.7,6,6.4c2.1,4.9,4.4,9.7,7.9,13.8c1.2,1.4,2.4,2.8,3.8,3.9c1.1,0.9,2.4,2.2,4,1.5c1.9-0.9,1.4-2.9,1.1-4.4
		c-1.5-8.3-4.6-15.9-9.5-22.8c-2.3-3.2-5.1-6.1-6.3-10c0.2-0.5,0.5-0.9,1-1.1c6.7-1,13.6-1.1,20.3-2.5c8.1-1.7,16-3.7,21.3-10.9
		C373.6,402.3,374.3,402.1,375,402z"/>
	<path class="st0" d="M333.9,492c3.2,3.6,4.3,3.8,9.8,1.6c-0.9,10.6-2.6,20.7-7.7,30c-5.2,9.6-13.3,15.3-24,17.2
		c-14.6-2.5-13.3-4.3-10.4-15.6c3.1-12.3,5.9-24.7,7.2-37.4c-1.3-1.5-1.4-3.4-1.3-5.2c0.7-14.8-3.3-28.7-7.8-42.5
		c-1.2-3.6-2.8-7.1-3-11c0.1-2.5,0.9-4.5,3.7-5.1c3.3-0.1,5.6,1.9,7.5,4.2c4.5,5.3,7,11.6,8.3,18.4c1.6,8.1,2.6,16.4,5.1,24.3
		C324,479,328.1,486,333.9,492z"/>
	<path class="st2" d="M275.1,285.1c0,6.8-2.6,13-3.5,19.6c-2.2,14.4-5.4,28.7-4.6,43.4c0.2,4.3,1.7,8.5,1,12.8
		c-7.3,4.9-14.6,9.8-22.6,13.4c-5.7,2.6-10.9,2.1-15.5-2.3c0.5-0.5,1-0.8,1.7-0.9c5.8-0.8,7.6-2.7,8.1-8.5
		c0.6-6.8-0.1-13.6-2.2-20.1c-3.3-10.3-7.5-20.2-15.9-27.7c-2.4-2.1-6.4-2.2-7.6-5.8c2.2-0.6,4.4-0.6,6.8-0.5
		c14.9,0.7,30.1,2.8,42.6-8.7C268,295.5,271.4,290.2,275.1,285.1z"/>
	<path class="st1" d="M301,396c13.7-0.8,27-2.5,38.1-11.9c7.1-6.1,12.7-13.2,16.6-21.5c5.9-12.4,13-23.8,22.8-33.5
		c3.4-3.4,7.6-5.8,11.2-10.6c0.6,6.4,3.6,11.2,1.4,16.6c-6.8,13.7-12.2,28.1-20.5,41c-1.3,2-2.6,4.3-2.5,6.9
		c0.7,5.5-3.4,12.3-9.4,13.9c-11.5,3.1-23.1,5.8-35.2,3.7c-2.4-0.4-5-0.2-7.4-0.1c-3.6,0.2-7.2-0.6-10.7-1.3
		C303.5,398.8,301.2,398.6,301,396z"/>
	<path class="st3" d="M411.9,262.2c-0.1,0.9-0.5,1.6-1.5,1.7c-9.3,1.4-16.2,6.8-22.9,12.9c-11.7,10.7-25.3,18.6-39.8,24.6
		c-13.3,5.5-26.5,11.3-39.3,17.8c-1.8,0.9-4.1,3.9-6,1.6c-1.8-2.2,1.7-3.8,2.6-5.8c9.6-13.1,22.1-23.2,34-34c1.3-1,2.7-2,4-3
		c1-0.8,2.2-1,3.1,0.1c0.9,1.1,0.3,2.2-0.4,3.2c-2.1,2.8-4.8,5-7.2,7.5c-1.4,1.6-3.2,2.8-4.9,5.7c7.2-3.2,14.5-3.3,19.6-9
		c6.6-6.7,13.6-13,19.8-20.2c3.7-4.7,8.3-8.6,12.4-12.9c2.4-2.2,4.4-4.7,7.1-6.5c1.9-1.3,3.4-3.2,5.2-4.7c1.2-1,2.3-2.6,4.3-1.3
		c0.3,1,0.7,2,1,3c-0.8,1.5-1.6,2.9-2.8,4.1c-11.9,11.9-23.8,23.8-36,36c9.2-4.5,17.7-9.2,24.8-16.2c3.6-3.5,7.7-6.3,10.5-10.6
		c0.7-1.2,1.8-2.6,3.6-1.4C406.6,256.6,407.6,261.5,411.9,262.2z"/>
	<path class="st0" d="M268.9,523c-4.3-5.8-6.2-12.7-8.7-19.3c-1.9-4.9,0.8-10,2-15c1-4.3,2.5-8.5,3.8-12.7
		c13.2-8.4,14.3-22.1,15.6-35.7c0.2-2.5-0.1-5,0.2-7.4c0.5-4.8,2.2-6.3,7.5-6.5c0.9,0.4,1.4,1,1.7,1.9c0,6-2.4,11.6-3.2,17.5
		c-2.1,14.4-0.7,28.8-1.2,43.2c-0.3,9.4-1.6,18.5-6.3,26.9c-1.4,2.5-3,4.8-5.3,6.5C273,523.8,271.1,524.6,268.9,523z"/>
	<path class="st1" d="M399.1,415.9c4.3-1.6,9-1.3,13.5-2.7c17.4-5.3,28.5-16.2,32.6-34.1c3.9-16.9,1.7-33.6-1.8-50.2
		c-1.8-8.7-4.2-17.3-6.4-25.9c4.6,8.7,7,18.2,9.8,27.5c4.9,16,8.2,32.4,11,48.8c1.2,6.8-1.4,12.3-6.3,16.4
		c-12.3,10.5-26,18.2-42,21.8C405.6,418.4,402.5,417.2,399.1,415.9z"/>
	<path class="st4" d="M316,399c12.2,1.1,24.2,0.5,36.3-1.8c8.7-1.6,13.5-6.2,15.7-14.3c6.8,3.2,9.1,9.5,7,19
		c-4.4,8.8-12.8,11.1-21.3,12.8c-7.4,1.5-15,2.6-22.7,2.2c-0.1-0.2-0.2-0.3-0.2-0.5c1.2-11.4,1.2-11.4-9.9-14.5
		C319.1,401.5,316.5,401.9,316,399z"/>
	<path class="st5" d="M214,309.1c15.1,6.3,20.4,19.8,24.9,33.9c2,6.2,2.3,12.6,2.1,19.1c-0.3,7.9-3.6,10.9-11.2,10
		c-4.6-1.6-6.8-5.7-9.3-9.3c-7.6-11.1-11.9-23.6-14.4-36.7C204.8,318.9,206.5,312.5,214,309.1z"/>
	<path class="st6" d="M253.9,472c-2.2-4.2-4.6-8.4-6.5-12.7c-0.9-1.9-1-4.4,1.1-5.9c11.2-7.9,14.1-19.7,15.6-32.4
		c0.9-7.2,2.7-14.5,10-18.4c0.8-0.4,1.9-0.5,2.9-0.7c-0.5,5.4-0.1,10.8,1.1,16.1c-4.6,8.4-4.6,17.8-5.9,26.9
		c-1.5,10.3-6.4,18.7-14.3,25.4C256.7,471.3,255.5,472.1,253.9,472z"/>
	<path class="st7" d="M297.8,429c2.8,9.3,5.6,18.6,8.3,28c3,10.1,3.2,20.5,2.7,31c-5.8,0.1-11.8-0.4-16,5c-2.7-0.6-2.3-3-2.4-4.8
		c-0.5-19.2,0.7-38.4,2.1-57.6c0.1-1.5,0.5-2.9,1.5-4.2C297.6,423.9,297.1,427.3,297.8,429z"/>
	<path class="st1" d="M294.7,426c-0.5,5.1-1.4,10.1-1.6,15.2c-0.6,16.5-0.9,33.1-1.3,49.6c0,0.9,0.1,1.6,1,2.1
		c-3.2,5.1-2.4,11.2-3.7,16.8c-1.3,5.6-3.2,10.8-5.9,15.8c-3.8,6.8-6.8,7.1-12,1.3c-1-1.1-2.2-2.1-2.3-3.8c4.9,0.5,7-3.1,9.2-6.4
		c5-7.8,6.5-16.6,6.8-25.6c0.3-10.3,0.1-20.6,0-30.9c-0.1-11,2.4-21.6,5-32.2c0.4-1.4,0.9-2.9,2.8-2.9
		C293.6,425.2,294.2,425.4,294.7,426z"/>
	<path class="st6" d="M316,399c2.7,1.8,5.9,2.3,8.9,2.7c7.8,0.8,10.6,8.3,6.1,15.3c0,0-0.1,0.1-0.1,0.1c-3.4,2.4-7.4,1-11,1.5
		c-1.7,0.1-2.9-0.8-3.7-2.1c-2.9-4.6-7.2-7.7-11.6-10.6c-2.4-2.4-4.8-5.1-8.4-5.8c-4.6-3.4-9.4-3-14.4-1c-1.5,0.6-3,2.3-4.9,0.9
		c-5.4-7.2-8.1-15-4.9-23.9c3.4,1.1,4,4.6,6.1,6.9c6.3,6.7,13.3,11.9,22.7,13.1C305.6,398.7,310.8,398.8,316,399z"/>
	<path class="st8" d="M354,286c-1.7,3.1-4.6,4.6-7.9,5.5c-4.8,1.3-9.4,3.7-15.3,3.3c3.7-3.8,7.5-7.5,11.2-11.3
		c0.9-0.9,2-1.8,2.8-2.8c2-2.6-0.1-2.5-1.8-2.6c13.2-13.4,26.4-26.8,39.7-40.1c2.5-2.5,4.4-6,8.3-6.9c0.7,0.3,1.3,0.7,2,1
		c0.5,2.7-1.7,3.8-3.1,5.3c-10.1,10.2-20.2,20.2-30.9,31c8.3-4.3,15.2-9.2,22.3-13.8c1.4-0.9,2.7-2.8,4.8-1.4c-4,4.3-8,8.7-12,13
		C366.9,272.2,360.2,278.9,354,286z"/>
	<path class="st9" d="M277,400c5.2-2.3,10.3-5.6,16.4-3c1.5,0.6,3.3,0.8,3.5,3c0.7,1.6-0.3,2.9-1.1,4.1c-3.4,5.9-4.8,12-2.5,18.6
		c0.4,1.1,0.5,2.3-0.4,3.3c-1.6-0.2-2,1.4-3,2c-0.3-0.3-0.7-0.7-1-1c-0.5-0.5-1.2-0.5-1.8-0.9c-3.3-2-6.4-3.6-8,1.9
		c-0.3,0.9-1.5,1.9-2.8,0.7c-0.8-1.3-0.7-2.7-0.7-4.1c-0.7-2.4,3.4-3.9,1.2-6.6c-1.1-5.4-3.6-10.7,0-16.1
		C277,401.3,277,400.6,277,400z"/>
	<path class="st1" d="M277.1,429c2.8-1.6,2-5.5,4.7-7.4c2.4,1.8,5.4,2.8,7.2,5.4c-4.8,0.5-6.4,3.3-6,7.9c0.6,8.5-0.9,16.8-3.1,25
		c-2,7.4-5.5,13.9-13.8,16.2c0.6-2.6,1.3-5.3,1.9-7.9c-0.7-0.9-0.8-1.9-0.2-2.8c5.8-8.8,5.3-18.8,5.3-28.7c0-1.5-0.5-3.5,1.9-3.8
		c0.9,1.8,0.5,3.7,0.3,5.3C276.2,435.4,274.3,431.7,277.1,429z"/>
	<path class="st10" d="M403,255c-4.8,4.7-9.6,9.4-14.5,13.9c-7.7,7.1-16.8,12-26.7,16.5c13.9-14.4,27.5-28.4,41-42.4
		C403.9,247,401.7,251,403,255z"/>
	<path class="st0" d="M386,253c-6.8,4.3-13.6,8.6-20.5,12.9c-2.6,1.7-5.3,3.2-9,3.3c12.2-12.4,24.3-24.8,36.5-37.2
		c1.7,1.3,3.9,1.9,5,3.9c1.4,2.7-0.1,4.8-1.5,6.8c-1,1.5-2.6,2.6-3.5,4.2C390.6,249,388.3,251,386,253z"/>
	<path class="st11" d="M274.8,432.9c-1.6,3.1-1.1,6.5-0.7,9.7c1.2,8.9-0.9,16.8-5.9,24.1c-0.3,0.4-0.2,1-0.3,1.4
		c-2.4,1.7-3.8,4.5-6.6,5.8c-3.2,1.5-5.7,1.6-7.4-2c12.3-9.1,17.9-21.6,18.1-36.7c0.1-6.2,2-11.9,5-17.3c5,2-1.2,3.9,0,5.9
		C275.6,426.8,277.1,430.3,274.8,432.9z"/>
	<path class="st10" d="M393,247c1.5-3.8,4.7-6.7,5-11c1.6,1,3.1,2.3,3.9,4.1C397.8,240.9,396.4,245.3,393,247z"/>
	<path class="st3" d="M308.9,281.9c-2,3.4-4.1,6.8-6.1,10.2c-0.3-0.1-0.6-0.1-0.9-0.2c1.2-5.6,2.1-11.3,3.7-16.8
		c2.6-9.1,6.1-18,10.8-26.2c6.3-11.1,15.8-18.2,29.1-18.9c7.4-0.4,14.8-2,22.2-0.2c2.8,0.7,6,1,6.9,4c0.9,2.9-1.7,4.8-3.6,6.6
		c-0.9,0.9-2,1.7-3,2.6c-7.3,0.2-14.5,0.8-21.7,2.7c-12.2,3.1-21.6,9.8-28.3,20.5C314.8,271.3,311.8,276.5,308.9,281.9z"/>
	<path class="st12" d="M308.9,281.9c-0.8-4.6,2.9-7.3,4.6-10.8c10.5-20.8,28.3-29,50.8-29.1c1.3,0,2.7-0.2,3.7,1
		c-8,6.4-17.3,10.5-26.2,15.2C329.7,264.5,317.8,271.1,308.9,281.9z"/>
	<path class="st8" d="M339,281c-7.6,8.3-15.2,16.6-24.1,23.6c-3.8,3-5.6,7.8-9.9,10.4c4-12.5,12-21.8,23.1-28.4
		C331.5,284.5,334.7,281.7,339,281z"/>
	<path class="st6" d="M333.9,492c-7.9-3.7-10.1-11.4-13-18.7c-3.4-8.5-4.1-17.7-6-26.6c-2-9-4.7-17.7-14.1-21.9
		c-10-1.8-11-8.2-6.3-17.9c3.7-2.2,6.8-0.1,9.8,1.5c9.1,4.8,15,12.5,18.6,22c2.3,6.1,4.4,12.2,6.7,18.3c3.8,9.7,8.8,18.3,19.2,22.4
		c0.9,0.4,1.7,1,2.1,2C346.9,480.8,341.5,487.4,333.9,492z"/>
	<path class="st13" d="M318.9,418c3.9-2.2,8-0.5,12-1c7.3,9.3,14.1,18.9,16.5,30.9c0.6,2.9,2,6.7-0.8,8.3c-2.8,1.6-5.4-1.4-7.5-3.5
		c-4.5-4.6-7.8-9.9-10-15.9c-1.1-3-2.7-5.7-5.1-7.8C320.6,426.1,318.8,422.5,318.9,418z"/>
	<path class="st14" d="M318.9,418c1.7,3.7,3.4,7.3,5.1,11c5.1,14.2,11.8,27.2,25.4,35.3c3.8,2.3,4.3,5.6,1.6,8.8
		c-14.2-4.1-19.6-15.7-24.2-28.1c-3.3-9-5.5-18.5-11.9-26c-5.2-6.2-11.1-11.4-19.8-11.8c1.4-4.8,4.5-5.5,9.9-2.1
		C311.2,407.7,315.3,412.5,318.9,418z"/>
	<path class="st15" d="M305,405c-3.6-1-7.3-2.2-9.9,2.1c-0.4,1.4-0.9,2.8-1.3,4.3c-2.2,7.1-1.3,8.8,5.3,11.8
		c0.7,0.3,1.1,1.1,1.7,1.7c-2.4,0.3-3,2-3,4.1c-1.1-0.9-0.7-3.3-3.1-2.9c-0.6,0-1.2,0-1.7-0.1c-3.9-9.5-2-18.1,4-26
		C301.4,398.8,302.8,402.5,305,405z"/>
	<path class="st10" d="M354,286c0.4-3.2,3.1-4.7,5.1-6.5c5-4.5,8.6-10.5,14.9-13.5C367.7,273.1,361,279.7,354,286z"/>
	<path class="st16" d="M223.9,324c8,10,11.9,21.3,11.1,34.1c-0.1,2-0.8,3.6-2.6,4.5c-2,0.9-3.5-0.1-4.8-1.5c-6-6-9.2-13.7-12.5-21.2
		c0.5-3.2-0.5-6.4,0.7-9.7C217.2,326.3,219.2,323.5,223.9,324z"/>
	<path class="st17" d="M223.9,324c-6.2,1.3-7.1,6.2-7.9,11.3c-0.2,1.5,0.6,3.3-0.9,4.6c-0.9-2.8-2-5.6-2.7-8.4
		c-0.9-3.9-1.3-8.3,2.6-10.7C218.8,318.3,221.2,322,223.9,324z"/>
</g>
</svg>
