<?xml version="1.0" encoding="utf-8"?>
<!-- Generator: Adobe Illustrator 19.0.0, SVG Export Plug-In . SVG Version: 6.00 Build 0)  -->
<svg version="1.1" id="Calque_1" xmlns="http://www.w3.org/2000/svg" xmlns:xlink="http://www.w3.org/1999/xlink" x="0px" y="0px"
	 viewBox="0 0 612 792" style="enable-background:new 0 0 612 792;" xml:space="preserve">
<g>
	<path d="M562,537c-2.7,5.3-7.1,6.4-12.6,5.7c-8.6-1.1-16.5-3.7-23.7-8.6c-14.6-10-27.9-9.9-42.7-0.1c-17.6,11.7-38.8,11.7-56.4,0
		c-14.9-9.9-27.9-9.9-42.7-0.1c-17.9,11.8-38.9,11.8-56.8-0.2c-14.3-9.5-27.8-9.6-41.9-0.1c-18.3,12.2-39.2,12.2-57.7-0.1
		c-13.9-9.2-27.9-9.2-41.5,0.1c-18.3,12.4-40,12.3-58-0.3c-13-9.1-27.9-9.1-41,0.1c-7.4,5.2-15.5,8.2-24.5,9.2
		c-5.4,0.6-9.9-0.4-12.6-5.7c0-1.3,0-2.7,0-4c2.3-4.2,5.8-5.4,10.5-6.1c5.9-0.9,12.2-2.8,17.1-6c19.8-13,40.5-13.2,60.1,0.3
		c11.7,8.1,27.2,8.2,39,0.3c20.6-13.9,39.5-13.8,60.4-0.2c12.7,8.2,25.9,8.4,38.5,0.1c20.5-13.5,40.5-13.4,61,0.1
		c12.4,8.2,25.6,8.2,38.1,0c20.7-13.6,40.8-13.4,61.5,0.2c13,8.5,26.4,7.4,39.3-1.1c17.6-11.6,35.9-12.7,54.1-2.2
		c8,4.6,15.6,9.2,25.3,9.3c2.4,0,4.7,3.5,7.1,5.5C562,534.3,562,535.7,562,537z"/>
	<path d="M50,469c2.3-4.2,5.8-5.4,10.5-6.1c5.9-0.9,12.1-2.8,17.1-6c19.7-12.9,40.7-13.1,60.1,0.3c11.7,8.1,27.1,8.2,39,0.2
		c20.6-13.8,39.6-13.8,60.4-0.2c12.5,8.1,25.6,8.5,38,0.3c20.9-13.8,41.1-13.7,61.9,0.1c12,8,25.1,8,37.2,0
		c20.8-13.8,41.1-13.8,61.9,0c12.2,8.1,25.3,8,37.6-0.1c20.7-13.6,40.8-13.7,61.5,0c4.6,3.1,10.7,4.6,16.3,5.4
		c4.7,0.7,8.2,2,10.5,6.1c0,1.3,0,2.7,0,4c-2.7,5.3-7.1,6.4-12.6,5.7c-8.8-1.1-16.8-3.9-24.1-8.9c-14.1-9.6-27.7-9.5-41.9,0
		c-17.9,11.9-38.9,12.2-56.8,0.3c-14.4-9.6-28.3-9.6-42.8-0.1c-18.6,12.1-37.7,12.2-56.3,0.1c-14.7-9.5-28.6-9.5-43.3,0.1
		c-18,11.7-36.9,12.1-55,0.4c-15.6-10.1-30.1-10.2-45.4,0.4c-16,11-38.4,11.1-54.1-0.6c-12.9-9.6-32.2-10-44.5,0.2
		c-6.6,5.4-14.8,7.2-23.2,8.2c-5.3,0.6-9.5-0.7-12.1-5.8C50,471.7,50,470.3,50,469z"/>
	<path d="M562,409c-2.6,5.3-7.1,6.4-12.6,5.7c-8.8-1.1-16.8-3.9-24.1-8.9c-13.6-9.4-27.7-9.5-41.5-0.4
		c-18.9,12.5-39.7,12.5-58.5-0.2c-12.7-8.6-27.1-8.8-39.8-0.3c-20.1,13.3-40,13.1-60.2-0.1c-12.6-8.3-25.9-8.4-38.5-0.1
		c-20.5,13.5-40.6,13.4-61.1-0.1c-12.4-8.2-25.6-8.2-38.1,0.1c-20.7,13.7-40.9,13.9-61.4-0.4c-11.4-7.9-26.9-7.6-38.5,0.7
		c-7.7,5.5-16,8.6-25.3,9.8c-5.5,0.7-9.9-0.4-12.6-5.7c0-1.3,0-2.7,0-4c2.3-4.2,5.8-5.4,10.5-6.1c5.9-0.9,12.2-2.7,17.1-6
		c19.5-12.9,40.3-13.2,59.7,0c12.8,8.7,27.9,8.6,40.6-0.3c17.6-12.4,39.3-12.7,57.1-0.7c14.7,9.9,27.8,9.8,42.7,0.2
		c18.7-12,37.7-12.1,56.3-0.1c14.7,9.5,28.6,9.5,43.3,0c18.4-12,37.4-12,55.8,0c14.7,9.5,28.7,9.8,43.2,0.1
		c17.7-11.9,39.3-11.7,56.7,0.3c6.2,4.3,12.7,7.1,20.4,6.9c4.3-0.1,6.6,2.6,8.6,5.8C562,406.3,562,407.7,562,409z"/>
	<path d="M562,601c-2.7,5.3-7.1,6.4-12.6,5.7c-8.4-1.1-16.2-3.6-23.3-8.4c-15.1-10.2-28.1-10.3-43.1-0.3
		c-17.8,11.8-39,11.7-56.8-0.2c-14.2-9.5-27.7-9.5-41.9-0.1c-18.3,12.2-39.4,12.1-57.7-0.2c-13.6-9.1-27.6-9.2-41.1-0.2
		c-18.8,12.6-39.5,12.6-58.5-0.1c-13.4-8.9-27.6-8.8-41.1,0.3c-18.2,12.4-40,12.3-58-0.3c-13-9.1-28-9.1-41,0.1
		c-7.4,5.2-15.5,8.2-24.5,9.2c-5.4,0.7-9.9-0.4-12.6-5.7c0-1.3,0-2.7,0-4c2.3-4.2,5.8-5.4,10.5-6.1c5.9-0.9,12.2-2.7,17.1-6
		c19.6-12.9,40.5-13.2,59.7,0.1c12.4,8.6,27.9,8.6,40.2,0c18.5-12.9,39.8-13.1,58.3-0.5c13.3,9.1,27.6,9.1,41.1,0.1
		c18.8-12.6,39.6-12.5,58.4,0.1c13.2,8.8,27.4,8.8,40.7,0c18.9-12.6,39.6-12.6,58.4-0.1c13.2,8.9,27.4,8.9,40.7,0.1
		c19.5-12.9,39.9-12.5,59.4,0.2c4.9,3.2,11.2,5.1,17.1,6c4.7,0.7,8.2,2,10.5,6.1C562,598.3,562,599.7,562,601z"/>
	<path d="M562,633c-2.3,4.1-5.6,5.9-10.6,5.9c-163.5-0.1-326.9-0.1-490.4,0c-5.1,0-8.7-1.5-11.1-5.9c0-1.3,0-2.7,0-4
		c2.4-4.4,6-5.9,11.1-5.9c163.3,0.1,326.6,0.1,489.9,0c5.1,0,8.7,1.5,11.1,5.9C562,630.3,562,631.7,562,633z"/>
	<path d="M562,345c-2.7,5.3-7.1,6.4-12.6,5.7c-8.6-1-16.5-3.6-23.7-8.6c-14.5-10-28-10-42.7-0.2c-18.1,11.9-39.2,11.8-57.2-0.3
		c-13.8-9.3-27.7-9.3-41.5-0.1c-18.3,12.3-39.4,12.3-57.6,0.1c-14.1-9.4-27.9-9.4-41.9,0.1c-7.9,5.4-16.5,8.4-26.4,8.9
		c0-5.1,0-10.1,0-15.4c8-0.4,14.6-4.5,21.3-8.5c18.5-11,37.1-10.2,55,1.6c9.1,6,18.8,8.5,29.4,5.6c4.2-1.2,8.4-3.3,12.1-5.7
		c18.5-12.1,39.4-12.2,57.7,0c13.9,9.3,27.7,9.3,41.5,0.1c18.8-12.5,39.9-12.4,58.4,0.4c5.8,4,12,6.5,19.1,6.3
		c4.5-0.1,7,2.5,9.1,5.9C562,342.3,562,343.7,562,345z"/>
	<path d="M562,297c-2.4,4.4-6,5.9-11.1,5.9c-96-0.1-191.9-0.1-287.9-0.1c-1.5,0-2.9,0-4.6,0c0-5.3,0-10,0-15.3
		c1.3-0.1,2.7-0.3,4.1-0.3c96.5,0,192.9,0,289.4-0.1c4.8,0,7.8,2,10.1,5.9C562,294.3,562,295.7,562,297z"/>
	<path d="M50,341c2.3-4.1,5.6-6,10.5-6c6.9,0.1,12.8-2.9,18.4-6.8c14.6-10.1,30.3-11.7,47-5.8c2.8,1,4.3,2.4,4,5.7
		c-0.3,4.4-0.1,8.8-0.1,14.1c-7.3-4.9-14.3-7.7-22.4-7.6c-7.4,0.1-14.1,2.1-20,6.5c-7.3,5.4-15.5,8.3-24.3,9.4
		c-5.5,0.7-10.3-0.1-13-5.7C50,343.7,50,342.3,50,341z"/>
	<path d="M50,293c2.4-4.4,6-6,11.1-5.9c21.3,0.2,42.6,0.1,63.9,0.1c1.5,0,2.9,0.1,4.6,0.2c0,5.2,0,10.1,0,15.5c-3.2,0-6.1,0-9.1,0
		c-19.8,0-39.6-0.1-59.4,0.1C56,303,52.4,301.4,50,297C50,295.7,50,294.3,50,293z"/>
	<path d="M226.2,351c-21.7,0-42.7,0-64.4,0c0,2.3,0,4.3,0,6.4c-0.1,5.6-3.1,9.2-7.6,9.3c-4.7,0.1-8-3.6-8-9.4c0-30.7,0-61.3,0-92
		c0-17,0-34,0-51c0-20.8,16.9-38.3,37.7-39.2c5.7-0.3,9.7,2.7,9.9,7.5c0.2,4.5-3.3,7.7-8.8,8.2c-13.7,1.1-23,10.9-23.1,24.6
		c-0.1,7.6,0,15.3,0,23.3c21.4,0,42.4,0,64.3,0c0-7.8-0.2-15.7,0.1-23.6c0.2-4.6,0.6-9.4,1.9-13.8c5.4-18.4,23.9-30.4,42.2-27.8
		c20.6,2.9,35.2,18.8,35.5,38.8c0.2,11,0.1,22,0,33c0,5.5-3.1,9.2-7.6,9.4c-4.7,0.2-8-3.6-8.1-9.4c-0.1-10,0.1-20,0-30
		c-0.1-14-10.6-24.6-24.2-24.6c-13.6,0.1-24.1,10.6-24.1,24.6c-0.1,46.6,0,93.3,0,140c0,1.3,0.1,2.7-0.1,4c-0.5,4.3-4.1,7.7-8,7.3
		c-4.4-0.4-7-3-7.5-7.4C226,356.8,226.2,354.1,226.2,351z M162.1,255c0,10.9,0,21.3,0,31.7c21.5,0,42.6,0,63.6,0
		c0-10.8,0-21.2,0-31.7C204.4,255,183.5,255,162.1,255z M162.2,303c0,11,0,21.3,0,31.9c21.4,0,42.4,0,63.6,0c0-10.8,0-21.3,0-31.9
		C204.4,303,183.4,303,162.2,303z"/>
</g>
</svg>
