<?xml version="1.0" encoding="utf-8"?>
<!-- Generator: Adobe Illustrator 19.0.0, SVG Export Plug-In . SVG Version: 6.00 Build 0)  -->
<svg version="1.1" id="Calque_1" xmlns="http://www.w3.org/2000/svg" xmlns:xlink="http://www.w3.org/1999/xlink" x="0px" y="0px"
	 viewBox="0 0 612 792" style="enable-background:new 0 0 612 792;" xml:space="preserve">
<g>
	<path d="M59,437c0.5-0.8,1.1-1.6,1.5-2.5c5.1-12,14.2-19,27-21.2c19.8-3.4,39.7-7,59.5-10.1c4.6-0.7,6.1-2.7,7.5-7.3
		c4.4-14.4,9.5-28.7,14.9-42.8c12.8-33.9,26-67.7,39-101.6c9.7-25.1,30.5-34.6,55.8-25.3c13.3,4.9,26.5,9.8,39.6,15.2
		c2.9,1.2,5.9,4,7.3,6.8c9.2,18.1,17.9,36.5,27,54.6c1.1,2.2,3.6,4.4,5.9,5.3c16.9,6.5,34,12.7,51,18.9
		c11.8,4.4,17.6,15.3,14.2,26.5c-3.5,11.6-14.3,17.5-26.8,14.5c-20.7-4.9-41.4-9.8-62.2-14.6c-4.5-1-7.7-3.1-10.2-7.2
		c-7-11.3-14.3-22.4-22.2-34.8c-9.6,24.9-18.7,48.7-28.2,73.3c2.3,0.1,4,0.2,5.7,0.2c45.5,0,91,0,136.5,0c23.4,0,40.8,17.2,41,40.6
		c0.1,21.8,0,43.7,0,65.5c0,1.8,0,3.6,0,5.9c2.5,0,4.4,0,6.4,0c27.2,0,54.3,0,81.5,0c10.5,0,19.2,6.3,22.7,15.8
		c3.4,9.4,0.9,20.3-7.3,26c-4.4,3.1-10.2,4.9-15.5,5.6c-7.5,0.9-15.3,0.2-23.7,0.2c0,2.1,0,3.8,0,5.6c0,21-0.1,42,0.1,63
		c0.1,5.2-1.3,9.1-5.9,11.6c-12,0-24,0-36,0c-4.7-2.5-6-6.4-5.9-11.6c0.2-21,0.1-42,0.1-63c0-1.8,0-3.5,0-5.3
		c-107.1,0-213.5,0-320.3,0c0,2,0,3.6,0,5.2c0,21-0.1,42,0.1,63c0.1,5.2-1.3,9.1-5.9,11.6c-12,0-24,0-36,0c-4.7-2.5-6-6.4-5.9-11.6
		c0.2-21,0.1-42,0.1-63c0-1.8,0-3.5,0-5.7c-7.3,0-14-0.3-20.6,0.1c-5.2,0.3-9.1-1.2-11.6-5.9c0-12,0-24,0-36
		c2.5-4.7,6.4-5.9,11.6-5.9c102.8,0.1,205.6,0.1,308.4,0.1c1.9,0,3.9,0,6.3,0c-1-4-2.1-7.4-2.5-10.8c-0.6-4.6-2.8-5.7-7.3-5.7
		c-91,0.2-181.9-0.2-272.9,0.4c-19.9,0.1-35.3-4.7-43.6-24.1C59,450.3,59,443.7,59,437z M409.1,529.2c16.2,0,31.7,0,47.2,0
		c24.5,0,49,0,73.5,0c6.3,0,10.3-4.1,9.4-9.5c-0.7-4.3-4.1-6.8-9.6-6.8c-30.3,0-60.7,0-91,0c-8.9,0-11.3-2.4-11.3-11.2
		c0-25,0-50,0-75c0-16-9.9-25.9-25.9-25.9c-48.7,0-97.3,0-146,0c-2.6,0-5.3,0.2-7.9,0.6c-23.9,4.1-47.9,8.3-71.8,12.5
		c-28.5,5-57,9.9-85.5,15c-11,2-17.4,13-14.1,23.4c2.6,8.2,9.5,12.8,19.3,12.8c94.5,0,188.9,0,283.4,0c14.9,0,14.8,0,18.2,14.3
		C400.8,495.9,404.9,512.4,409.1,529.2z M169.5,398.9c1.9,0,3.2,0.2,4.4,0c21.2-3.6,42.3-7.4,63.5-10.9c3.8-0.6,5.5-2.4,6.9-6
		c10.9-29.1,22.1-58.1,33.2-87.2c1.4-3.7,2.8-7.2,7.5-7.7c4.6-0.5,6.9,2.4,9,5.8c7.5,12,15.6,23.6,22.6,35.9
		c4.2,7.4,9.5,11.7,18,12.6c4.9,0.5,9.7,2.2,14.6,3.3c12.5,2.9,25,5.8,37.4,8.6c3.6,0.8,6.4-0.2,7.5-3.9c1-3.6-0.5-6.2-4.1-7.4
		c-1.1-0.4-2.2-0.8-3.3-1.2c-17.5-6.3-35.1-12.5-52.5-19c-2.4-0.9-4.9-3-6-5.2c-9.5-18.7-18.5-37.6-28-56.3c-1.3-2.5-3.9-5-6.5-6.1
		c-11.7-4.8-23.6-9.2-35.4-13.6c-15.8-6-28.4-0.3-34.4,15.5c-17.5,45.7-34.9,91.3-52.4,137C170.8,394.8,170.2,396.7,169.5,398.9z
		 M75,528.9c106.2,0,211.7,0,317.9,0c-1.4-5.6-2.7-10.8-4-15.7c-105.1,0-209.5,0-313.9,0C75,518.6,75,523.6,75,528.9z M122.9,609
		c0-21.6,0-42.6,0-63.8c-5.4,0-10.4,0-15.6,0c0,21.5,0,42.6,0,63.8C112.6,609,117.5,609,122.9,609z M490.8,609c0-21.6,0-42.7,0-63.8
		c-5.4,0-10.5,0-15.6,0c0,21.5,0,42.6,0,63.8C480.6,609,485.6,609,490.8,609z"/>
	<path d="M571,431c-0.7,2.5-1.4,5.1-2,7.6c-6.3,25.8-31.3,45.2-59.5,41.8c-30.5-3.7-51.4-28.2-50.3-57.7
		c1.1-28.5,24.1-51.9,52.8-53.5c28.2-1.6,53.4,18.6,58,46.5c0.2,1.1,0.7,2.2,1,3.3C571,423,571,427,571,431z M474.8,425
		c0,22.1,17.8,40.1,39.9,40.2c22.4,0.1,40.4-17.9,40.4-40.2c0-22.1-17.9-40.1-39.9-40.1C492.8,384.8,474.8,402.6,474.8,425z"/>
	<path d="M313,113c2.5,0.7,5.1,1.3,7.6,2c26.5,6.7,44.8,32.3,42,58.5c-3.1,29.1-25.9,50.6-54.4,51.3c-29.5,0.7-54.3-21.9-56.9-51.8
		c-2.4-28.1,18.2-54.3,46.4-59c1.1-0.2,2.2-0.7,3.3-1C305,113,309,113,313,113z M307.1,209.2c21.8,0.1,40-17.9,40.1-39.5
		c0.1-22.6-17.5-40.8-39.7-40.8c-22.6-0.1-40.5,17.5-40.6,40C266.7,191.2,284.6,209.1,307.1,209.2z"/>
</g>
</svg>
