<?xml version="1.0" encoding="utf-8"?>
<!-- Generator: Adobe Illustrator 19.0.0, SVG Export Plug-In . SVG Version: 6.00 Build 0)  -->
<svg version="1.1" id="Calque_1" xmlns="http://www.w3.org/2000/svg" xmlns:xlink="http://www.w3.org/1999/xlink" x="0px" y="0px"
	 viewBox="0 0 612 792" style="enable-background:new 0 0 612 792;" xml:space="preserve">
<g>
	<path d="M217.9,322.7c0-14.4,0-28.9,0-43.3c-3.7-0.5-7.2-0.7-10.5-1.5c-13.3-3.2-22.3-14.7-22.3-28.3c0-2.5,0.2-5,0-7.5
		c-1.6-18.9,15.8-32,30.4-31.1c0.6,0,1.3-0.1,2.3-0.2c0.4-3.3,1.1-6.5,1.1-9.8c0-1.1-1.1-2.6-2.1-3.4c-10.4-8.2-14.4-18.4-10.9-28.7
		c3.9-11.7,14.4-18.9,27.6-18.9c18,0,36,0,54,0c12,0,22.6,7.5,26.4,18.5c3.5,10.2-0.2,20.8-10.2,28.5c-3.5,2.7-3.7,4.4-1.4,13.5
		c3.6,0.4,7.3,0.5,10.8,1.3c13.9,3.1,22.9,14.6,22.9,28.8c0,2.3,0,4.7,0,7c0,18.7-11.9,30.8-30.8,31.2c-1,0-1.9,0.1-3.6,0.2
		c0,6.6,0,13.1,0,19.5c0,6.7,0.2,13.3-0.1,20c-0.1,3.4,1.5,4.2,4.3,5.3c7.4,2.9,11.7,0.5,17-5.5c35.6-40.8,102.3-42.9,143.2-4.7
		c60.1,56.2,34.5,145.1-33.4,171.3c-2.1,0.8-4.7,2.5-5.3,4.3c-11.6,33-34.1,56.7-63.4,74.6c-67.3,41.1-159.9,36.6-222.7-11
		c-24.7-18.7-42.8-42.5-49.9-73.2c-8.6-37.3,1.8-70.2,25.8-99.1c25.2-30.2,58.3-47.3,96-56.5c1.1-0.3,2.3-0.5,3.4-0.8
		C216.9,323.3,217.3,323,217.9,322.7z M260.5,383.4c-40.3,0-80.6,0-121,0.1c-2.4,0-5.6,0.7-7.1,2.3c-28.7,30.8-37.1,73.5-18.6,112
		c13.9,29,37.2,48.2,65.9,61.3c31,14.2,63.6,18.9,97.4,16.2c31.6-2.5,61.2-11.3,87.5-29.4c23.6-16.2,41.4-37.1,48.8-65.4
		c9.1-35.1-0.1-65.7-23-93c-2.6-3.1-5.4-4.3-9.4-4.3C340.8,383.4,300.7,383.4,260.5,383.4z M432,467.8c25.5-9.5,53.6-38.4,51.9-82.8
		c-1.5-39.5-28-71.6-66.4-80.4c-33-7.5-68.8,3.2-84.3,26.6c8.7,4.3,17.7,8.2,26.2,13c26.7,15,48.3,35.3,61.9,63.1
		C430.6,426.2,434.3,446.2,432,467.8z M366.9,367.3c-0.9-1-1.1-1.4-1.5-1.7c-1.2-0.9-2.4-1.7-3.7-2.5c-20.2-12.9-42.2-21-65.7-25.1
		c-8.5-1.5-10.2-3.4-10.2-12.2c0-11.5,0-23,0-34.5c0-3.9,0-7.9,0-12c-17.5,0-34.4,0-51.8,0c0,2.1,0,3.8,0,5.6c0,14.2,0,28.3,0,42.5
		c0,7.1-2,9.4-9.1,10.6c-18.1,3.2-35.5,8.8-51.9,17.2c-6.4,3.3-12.5,7.3-18.8,10.9c0.1,0.4,0.3,0.7,0.4,1.1
		C225.1,367.3,295.6,367.3,366.9,367.3z M260.5,226.9c-15.7,0-31.3-0.1-47,0c-8.6,0.1-12.5,4.1-12.6,12.5c0,3,0,6,0,9
		c0.1,11.2,3.4,14.5,14.6,14.5c24.3,0,48.6,0,72.9,0c6.7,0,13.3,0.2,20-0.1c7.7-0.3,11.5-4.3,11.6-12c0.1-3.5,0-7,0-10.5
		c0-9.8-3.7-13.5-13.6-13.5C291.1,226.9,275.8,227,260.5,226.9z M285.1,210.8c0.9-6.6,0.6-6.4-4.6-9.1c-2.4-1.2-5-4.4-5.1-6.9
		c-0.1-2.5,2.1-5.9,4.3-7.5c2-1.4,5.4-1.2,8.1-1.2c7.7,0.2,11.1-2.5,11.4-9.2c0.3-7.6-3-11-10.7-11c-11,0-22,0-33,0
		c-8.5,0-17-0.1-25.5,0.1c-6.6,0.1-10,4.1-9.7,10.7c0.2,6.4,3.8,9.7,10.2,9.6c2.2,0,4.4-0.4,6.5-0.1c4.3,0.5,7.1,3.2,7.5,7.4
		c0.4,3.9-1.3,7.6-5.5,8.3c-5.8,1-5.3,4.7-4.8,9C251.4,210.8,268.3,210.8,285.1,210.8z"/>
	<path d="M381.8,436.6c-1.1-7.2-2-14.5-3.3-21.6c-1-5.4,1-9.6,5.4-10.7c4.7-1.2,8.7,1.6,10,7.2c8.4,36.6-0.7,69.1-24.5,97.4
		c-27.5,32.7-63.7,49.4-105.5,55.1c-2.1,0.3-4.4,0.5-6.4,0c-3.6-0.9-5.6-3.6-5.5-7.4c0-4.2,2.3-6.9,6.4-7.7
		c7.2-1.4,14.5-2.1,21.6-3.7c30.3-7,56.9-20.6,77.3-44.7C372.8,482,381.1,460.8,381.8,436.6z"/>
</g>
</svg>
