<?xml version="1.0" encoding="utf-8"?>
<!-- Generator: Adobe Illustrator 19.0.0, SVG Export Plug-In . SVG Version: 6.00 Build 0)  -->
<svg version="1.1" id="Calque_1" xmlns="http://www.w3.org/2000/svg" xmlns:xlink="http://www.w3.org/1999/xlink" x="0px" y="0px"
	 viewBox="0 0 612 792" style="enable-background:new 0 0 612 792;" xml:space="preserve">
<g>
	<path d="M214.3,562.4c-31.2,0-62.3,0-93.5,0c-7.4,0-14.1-2-20.2-6.1c-8.6-5.9-11.7-14.4-10.3-24.4c1.3-9.4,7.7-14.7,16.4-16.7
		c7.4-1.7,15.1-2.7,22.7-2.8c36.3-0.4,72.6-0.5,109-0.4c15.5,0,29.6-4.1,42.5-12.4c28.2-18.3,56.5-36.6,84.4-55.2
		c4.7-3.1,8.9-7.7,12.1-12.4c5.2-7.7,3.9-16.7-2.3-22.8c-7.1-7-15.4-8.4-23.6-3.1c-22.2,14-44.3,28.3-66.5,42.6
		c-12,7.7-23.9,15.8-36.1,23.2c-8.9,5.5-19,7.2-29.3,5.6c-10.1-1.5-16.2-10.8-15.1-22.5c0.9-9.5,4.5-17.2,12.6-23.3
		c42.9-31.9,85.7-63.9,128.2-96.4c12.4-9.5,26.1-13.9,41.2-14.3c23.8-0.5,47.6-0.3,71.5-0.3c33.2,0,66.3,0.1,99.5-0.1
		c14.3-0.1,24.3,5.6,30.5,18.9c15.3,32.5,16.6,65,1.7,97.9c-5.9,13.1-16.2,19-30.1,19.1c-15.7,0.1-31.3-0.1-47-0.1
		c-14.7,0-27.9,4-40.3,12.3c-38.4,25.8-77.2,51-115.9,76.6c-17.2,11.4-35.9,17-56.5,16.9C271.2,562.3,242.7,562.4,214.3,562.4z"/>
	<path d="M174.1,195.8c20.5,29,40.6,57.6,53.2,90.5c14.7,38.6-19.9,80.2-60.7,74c-30.1-4.6-50.6-28.9-49.3-59.2
		c0.2-5.7,2-11.4,3.9-16.9C129.8,258.8,155.2,216.6,174.1,195.8z M174.1,240.1c-11,11.3-26.8,38.3-30.7,52.5c-0.7,2.4-1.1,4.9-1,7.4
		c0.2,13.1,8,24.4,19.9,29.1c11.7,4.7,25.3,1.8,34.1-7.1c9.1-9.2,12.2-22.5,6.1-34.5c-7-13.9-15.5-27.1-23.4-40.6
		C177.6,244.5,175.7,242.4,174.1,240.1z"/>
</g>
</svg>
