<?xml version="1.0" encoding="utf-8"?>
<!-- Generator: Adobe Illustrator 19.0.0, SVG Export Plug-In . SVG Version: 6.00 Build 0)  -->
<svg version="1.1" id="Calque_1" xmlns="http://www.w3.org/2000/svg" xmlns:xlink="http://www.w3.org/1999/xlink" x="0px" y="0px"
	 viewBox="0 0 612 792" style="enable-background:new 0 0 612 792;" xml:space="preserve">
<style type="text/css">
	.st0{fill:#CAC9C7;}
	.st1{fill:#1A334B;}
	.st2{fill:#CAC9C8;}
</style>
<g>
	<path class="st0" d="M492.1,374.2c0.7,110.2-88.2,195.7-191.1,198.6c-118.5,3.3-202.9-89.3-205.8-192.4
		C93.5,323.5,113,274.2,153,233.9c40.2-40.5,89.9-60.2,146.6-58.5C405.9,178.6,492.7,265.4,492.1,374.2z"/>
	<path class="st1" d="M343.2,235.2c1.5,1.5,0.6,3.1,0.3,4.6c-14.4,62.9-28.8,125.8-43.2,188.7c-0.5,2.1-0.9,4.3-1.1,6.4
		c-0.5,6.5,2.3,10.5,8.6,12.1c2.9,0.7,5.9,1,8.8,1.6c16,3.3,23.9,16.3,19.7,32.1c-1.8,6.7-5.4,12.1-10.6,16.5
		c-6.6,5.6-14,6.7-21.9,3.3c-7.9-3.5-11.2-10.1-11.7-18.3c-0.3-5.2,0.7-10.3,1.5-15.4c2.7-16.7-7.6-28.4-24.5-27.8
		c-8.1,0.3-13.6,4.7-17.3,11.7c-2.7,5.2-4.9,10.6-8.1,15.4c-5.6,8.2-13.2,11.5-21.8,9.6c-8.7-1.9-14.4-8.7-16-18.4
		c-1.8-11,1.2-20.4,9.4-28.1c6.7-6.4,14.4-8,23-4.9c3.6,1.3,7,3.2,10.5,4.6c6.9,2.7,11.7,1.2,14.9-5.6c3.1-6.4,5.6-13.2,8.1-19.8
		c21.2-55.1,42.4-110.2,63.6-165.2c0.6-1.5,0.7-4.7,2.7-4c2.3,0.9,0.3,3.5-0.2,5.1c-4.4,14.7-8.9,29.3-13.3,43.9
		c-0.3,1-0.5,1.9-0.9,2.9c-0.4,1-0.7,2,0.7,2.4c1.5,0.5,1.5-0.8,1.8-1.7c1.9-6.2,3.9-12.4,5.8-18.6c3-9.9,6-19.7,9-29.6
		C341.5,237.5,341.4,235.8,343.2,235.2z"/>
	<path class="st0" d="M311.5,330.4c2.8,8.9-0.6,16.7-2,24.5c-4.3,23.7-9.1,47.3-13.8,70.9c-0.9,4.4-1.5,9.2-7.1,10.2
		c-5.5,1-15.8-2.7-18.1-6.4c-1.7-2.8-1.3-5.8-0.1-8.6c11.7-27.8,23.5-55.6,35.3-83.4C306.9,334.9,308.8,332.9,311.5,330.4z"/>
	<path class="st2" d="M245.8,445.9c-0.6,8.8-3.3,16.3-10.2,21.7c-9.1,7-19.7,4.1-24-6.6c-4.4-11,0.6-25.5,10.9-31.3
		c8.4-4.7,17.2-2,21.2,6.8C245.1,439.6,245.6,442.9,245.8,445.9z"/>
	<path class="st2" d="M297,478.5c0.2-7.8,2.9-14.6,8.7-19.9c9.3-8.5,21.3-5.4,25.4,6.5c3.4,10-0.2,22.4-8.5,28.8
		c-4.7,3.6-10,5.5-15.8,2.8c-6.2-2.8-8.8-8.3-9.7-14.7C296.9,480.9,297,479.7,297,478.5z"/>
</g>
</svg>
