<?xml version="1.0" encoding="utf-8"?>
<!-- Generator: Adobe Illustrator 19.0.0, SVG Export Plug-In . SVG Version: 6.00 Build 0)  -->
<svg version="1.1" id="Calque_1" xmlns="http://www.w3.org/2000/svg" xmlns:xlink="http://www.w3.org/1999/xlink" x="0px" y="0px"
	 viewBox="0 0 612 792" style="enable-background:new 0 0 612 792;" xml:space="preserve">
<style type="text/css">
	.st0{fill:#231F20;}
</style>
<g>
	<path class="st0" d="M343.6,596.1c-19.3,0-38.7,0-58,0c-7,0-9.7-2.7-9.7-9.6c0-26.7-0.1-53.3,0.1-80c0-3.7-0.9-4.7-4.6-4.7
		c-27.8,0.2-55.6,0.1-83.5,0.1c-9.4,0-11.7-2.3-11.7-11.9c0-29.2-0.1-58.3,0.1-87.5c0-3.7-0.8-4.7-4.6-4.7
		c-22.8,0.2-45.7,0.1-68.5,0.1c-1.2,0-2.3,0.1-3.5,0c-4.3-0.5-7.5-4-7.4-8c0-4.3,3.3-7.9,8-7.9c28-0.1,56-0.1,84,0
		c5.2,0,8.3,3.8,8.3,9.2c-0.1,29.6-0.1,59.3-0.4,88.9c0,4.4,0.9,5.9,5.7,5.9c27.8-0.2,55.6-0.1,83.5-0.1c8.2,0,10.7,2.6,10.7,10.7
		c0,26.3,0.1,52.6-0.1,79c0,3.8,1,4.6,4.7,4.6c34.8-0.2,69.6-0.1,104.5-0.1c2,0,4-0.2,5.9,0.6c3.9,1.6,5.7,4.5,5.1,8.7
		c-0.6,3.9-3,6.2-6.9,6.7c-1.8,0.2-3.7,0.1-5.5,0.1C381,596.1,362.3,596.1,343.6,596.1C343.6,596.1,343.6,596.1,343.6,596.1z"/>
	<path class="st0" d="M505.7,329.8c-0.1,8.6-2.9,16.3-8.6,22.8c-2.3,2.6-4.7,5.2-7.1,7.7c-3.1,3.4-4.9,7.3-5.1,12.1
		c-0.2,5.8-3.6,9.1-8.6,8.8c-4.8-0.3-7.4-3.7-7.3-9.4c0.1-9.3,3.8-17.4,10.5-23.5c12.6-11.5,14.3-23-0.1-37.4
		c-14.7-14.7-14.3-34.5-0.2-49.6c5.5-5.9,10.8-11.6,10.9-20.5c0-3.9,4.3-6.4,8.4-6c4.3,0.4,7.3,3.8,7.2,8.7c-0.2,7-2,13.5-6.4,19.1
		c-2.4,3.1-5.2,6.1-7.8,9c-9.2,10.1-9.3,19.7,0.3,29.5C499.7,309,505.8,317.8,505.7,329.8z"/>
	<path class="st0" d="M464,213.3c-0.4,5.9-3.3,12.1-8.3,17.3c-2.4,2.5-5.1,4.8-7.5,7.3c-6.6,6.6-6.6,14-0.1,20.5
		c2.3,2.4,4.9,4.5,7.2,6.9c12,12.7,11.9,29.5-0.2,42c-2.1,2.2-4.3,4.2-6.5,6.2c-3.2,2.9-5.1,6.4-5.4,10.8c-0.4,5.2-3.7,8.1-8.4,7.8
		c-4.7-0.3-7.8-4-7.5-9.4c0.5-7.4,3.4-13.8,8.5-19.2c2.2-2.3,4.6-4.4,6.8-6.6c7.5-7.3,7.5-14.3,0.1-21.6c-2.5-2.4-5.2-4.7-7.5-7.3
		c-11-12.1-10.8-28.6,0.5-40.5c2.6-2.8,5.5-5.3,8.2-8c2.5-2.4,3.8-5.3,4-8.8c0.3-5.4,3.8-8.9,8.3-8.7
		C461.1,202.4,464.1,206.3,464,213.3z"/>
	<path class="st0" d="M382,329.3c0.2-4.7,3.3-9.5,8-13.2c3.2-2.6,6.9-4.7,10.2-7.2c3.4-2.6,3.4-5.1-0.1-7.6c-3.3-2.5-7-4.6-10.2-7.2
		c-10.8-9-10.9-22.1-0.3-31.4c2.1-1.8,4.5-3.4,6.9-4.9c3.2-2.1,6.1-4.1,6.6-8.6c0.5-3.9,4.8-6.2,8.8-5.5c4.1,0.7,6.9,4.2,6.7,8.6
		c-0.3,5-2.2,9.3-5.7,12.9c-2.9,3-6.4,5.2-9.9,7.5c-7,4.6-7,6.6,0.1,11.3c1.9,1.3,3.9,2.5,5.8,3.9c13.1,9.8,13.2,24.4,0.2,34.2
		c-2.2,1.7-4.6,3.2-7,4.8c-2.3,1.5-3.9,3.1-4.4,6.2c-0.7,4.7-4.8,7.4-8.9,6.8C384.5,339.3,381.8,335.8,382,329.3z"/>
	<path class="st0" d="M420.4,542.8c-8.9-40.1-17.6-80.2-26.4-120.3c-1.7-7.6-2.8-15.4-7.2-22.1c-4.1-6.3-9.3-9.8-17.3-9.7
		c-21.3,0.3-42.7-0.1-64,0c-4.3,0-4.8-1-3.9-5c5.3-24.9,10.2-49.8,15.5-74.7c2.1-9.7,4.4-19.2-4.1-27.3
		c23.2-9.5,37.3-29.8,35.5-50.6c-1.8-21.9-18.3-41.3-39.1-46c-20.9-4.7-42.5,5-54,24.3c-10,16.8-10.8,40.5,10,61.4
		c-7.2,3.5-12.5,7.9-14.2,16c-9.4,46.1-18.8,92.2-28.4,138.2c-1.3,6.3,0.1,11.6,3.8,16.4c7.3,9.3,17.1,14.4,28.8,15.8
		c5.5,0.6,10.9,0.1,16.4,0c18.2-0.1,36.3,0.2,54.5,0c3.8,0,5.5,1,6.3,4.9c6.6,30.9,13.6,61.7,20.2,92.6c1.6,7.6,5.8,12.4,12.6,15.5
		c16.3,7.2,38.2,2.4,49.9-11C420,555.9,422,550.1,420.4,542.8z M264.7,235.8c0.1-20.4,13.9-33.9,34.4-33.9
		c19.5,0.1,33.5,14.3,33.5,33.9c0,19.7-14.4,34-34.1,34C278.8,269.8,264.6,255.6,264.7,235.8z M400.5,554.7
		c-7.9,4-16.2,5.9-25.1,5.2c-3.6-0.3-5.9-1.9-6.7-6c-7.1-33.1-14.5-66.2-21.7-99.3c-2.2-10-3.5-11.2-13.6-11.3
		c-22-0.1-44-0.6-66-0.2c-8.2,0.2-15.8-0.3-23.1-4c-4.4-2.2-6.6-4.9-5.4-10.6c9.6-45.4,18.9-90.8,28.1-136.2
		c0.8-3.9,2.8-5.9,6.5-6.4c9-1.1,17.5,0.7,25.5,5c4.2,2.2,4.9,5.6,3.9,10.1c-6.6,31.1-12.9,62.2-19.4,93.2
		c-1.8,8.5,1.2,12.3,10,12.3c12.7,0,25.3,0,38,0c0,0.1,0,0.2,0,0.2c12.2,0,24.3,0.4,36.5-0.2c5.4-0.2,6.9,2.2,7.9,6.6
		c3.9,18.7,7.9,37.4,12,56.1c5.5,25.3,11,50.7,16.8,75.9C405.6,549.8,404.4,552.7,400.5,554.7z"/>
</g>
</svg>
