<?xml version="1.0" encoding="utf-8"?>
<!-- Generator: Adobe Illustrator 19.0.0, SVG Export Plug-In . SVG Version: 6.00 Build 0)  -->
<svg version="1.1" id="Calque_1" xmlns="http://www.w3.org/2000/svg" xmlns:xlink="http://www.w3.org/1999/xlink" x="0px" y="0px"
	 viewBox="0 0 612 792" style="enable-background:new 0 0 612 792;" xml:space="preserve">
<style type="text/css">
	.st0{fill:#BFE4F4;}
	.st1{fill:#29AAE0;}
	.st2{fill:#BEE4F4;}
	.st3{fill:#F5F9FB;}
</style>
<g>
	<path class="st0" d="M273.1,386c9.4-0.7,18.1,2.7,26.9,5c0.6,4.4-2.5,7.4-4.2,10.9c-4.3,8.8-8.6,17.6-11.9,26.9
		c-4.3,11.9-2.1,22.4,6.2,31.5c8.1,9,18.7,10.9,30.2,8.7c1.6-0.3,3.2-1.3,4.7,0.1c19.6,3.8,39,6.2,57.5-4.3
		c10.3-5.9,14.3-15.7,15.4-27c0.3-3.6,1.7-5,5.2-6c11.6-3.4,23.2-7.4,35.3-8.1c15.7-0.9,30.4,2.7,41.1,15.6c1.9,2.3,3,5.3,3.4,8.2
		c0.5,3.5-0.2,6.2-4.2,7.9c-28.4,13-56.8,26-86.3,36.4c-14.5,5.1-29,10.6-44.6,11.3c-0.6,0-1.1,0.5-1.7,0.8
		c-0.5,0.2-0.9,0.4-1.4,0.2c-10-4.7-20.6-5.4-31.4-4.2c-23.9-6.3-46.9-15.2-69.6-24.8c-4-1.7-6.4-4.6-5.7-8.9
		c1.9-12.3,3.1-24.8,5.5-37c1.4-2,3.6-2.2,5.7-2.6c16.2-3.2,27-19.3,23.8-35.4C272.6,389.5,271.6,387.7,273.1,386z"/>
	<path class="st0" d="M223.1,476.8c-7.7-3.1-14.8-7.4-22.9-9.5c-10.9-2.8-21.7-1-32.4,1.2c-1.6,0.3-3.2,0.7-4.9,0.4
		c0-31.8,0-63.6,0-95.4c0-8.1,2-9.5,10-8c15,2.7,29.7,6.6,44.8,8.5c1.2,3.1-0.9,5.4-1.8,8c-2.5,6.9-4.8,13.8-2.9,21.4
		c2.7,10.5,9.1,17.5,18.7,22c1.5,0.7,3.3,0.8,3.7,2.9c-2.1,12.7-3.3,25.6-5.8,38.2C228.9,470.6,227.9,475,223.1,476.8z"/>
	<path class="st0" d="M343.7,322c-22.4,0-41-23.5-35.8-45.2c4.1-17.1,12-32.6,20-48.1c3.2-6.2,6.7-12.2,10-18.4
		c3.8-7.2,8.2-7.7,12.3-0.8c7.3,12.3,14,24.9,19.8,38c4,8.9,8,17.8,10.5,27.4C386.6,298.5,367.8,322.6,343.7,322z"/>
	<path class="st0" d="M471.9,337.9c0.3,17.8-12.4,33.7-31.3,36.9c-17.4,2.9-34.6-7.9-40.6-25c-4.7-13.2-0.9-25.1,4.1-37.1
		c7.2-17.4,15.9-34,25.2-50.4c3-5.3,8-5.9,10.8-1c11.2,20,22.3,40.1,29.5,61.9c0.9,2.7,1.8,5.4,2.2,8.2
		C472.2,333.6,471.9,335.8,471.9,337.9z"/>
	<path class="st1" d="M325,469c-11.6,3.7-22.6,3.1-32.6-4.7c-10-7.8-14.2-20.8-10.7-33c3-10.4,7.8-20.1,12.8-29.7
		c1.8-3.5,3.6-7.1,5.5-10.6c2.3-4,4.6-8,7.1-11.9c3-4.7,7.7-4.8,10.5,0.1c4.9,8.2,9.5,16.6,14.3,24.9c0.5,0.4,1.2,0.7,1.5,1.3
		c6.1,11.9,12.8,23.8,11.9,37.8c-0.5,7.1-2.7,13.6-9.2,17.8C332.8,464.3,329,466.8,325,469z"/>
	<path class="st0" d="M336,461c9.9-11.6,10.1-24.3,4.2-37.7c-2.8-6.4-5.6-12.8-8.4-19.2c15,2.6,29.9,5.5,43.2,13.5
		c8.2,4.9,12.8,12.2,11.8,21.9c-0.9,9.7-6.8,15.7-15.9,19.1c-5.9,2.3-11.9,2.6-18.1,2.5C347.3,461,341.7,461,336,461z"/>
	<path class="st1" d="M354.9,516.7c-0.9-5.6-4.3-9.6-8.8-12.8c-2.5-1.2-5-2.6-7.6-3.6c-8.3-2.9-16.9-2.9-25.5-1.4
		c-0.4-0.3-0.9-0.3-1.4-0.3c-8.9,0.5-17.2,3.3-25.8,5.4c-2.5,0.6-4.4,1-5.6-2.1c-2.8-6.7-8.3-10.5-14.6-13.5
		c-6.1-2.8-12.5-4.4-19-5.9c-7.9-1.9-16-3.2-23.3-6.9c-5-2.7-10.2-5-15.4-7.1c-15-6.2-29.9-4.5-44.8,0.5c-1.5,1.2-2.2,0.5-2.8-1
		c-2.5-6-7.6-8.5-13.6-9.7c-13.2-2.6-26.4-5.2-39.6-7.8c-5.3-1-7.9,1-7.9,6.6c0,27.3,0,54.7,0,82c0,5.2,1.7,7,6.8,7
		c10.7,0.1,21.3,0.1,32,0c5.2,0,9.7-2.1,12.3-6.4c2.2-3.6,4-3,7.1-1.5c20,9.5,40.5,17.8,61.5,24.7c15.9,5.2,31.4,5.6,47.4-0.1
		c29.5-10.3,57-25,85.1-38.1C354.6,522.9,355.4,520.1,354.9,516.7z M150.8,476.7c-2.6,17.4-5.2,34.9-7.6,52.3
		c-0.6,4.6-2.8,6.3-7.3,6.2c-7.3-0.2-14.7-0.2-22,0c-3.3,0.1-4.3-1-4.2-4.3c0.2-11,0.1-22,0.1-33c0-10.7,0.1-21.3-0.1-32
		c-0.1-3.4,0.7-4.2,4.2-3.4c10.4,2.4,20.8,4.3,31.3,6.3C149.8,469.8,151.5,472.3,150.8,476.7z M337,519.4
		C313,531,289.3,543,264.2,552.1c-13.5,4.9-26.7,5.5-40.4,1.1c-22.7-7.3-44.6-16.4-66.1-26.5c-2.1-1-3-2.1-2.7-4.5
		c1.9-12.7,3.7-25.3,5.5-38c0.2-1.4,0.1-3.2,2.3-3.2c15.1-0.2,30.2-1.9,45.2,1.1c13.7,7,28.5,10.8,43.4,14.2
		c5.2,1.2,10.2,3.1,14.5,6.3c2.2,1.6,4.1,3.8,3.6,6.7c-0.5,2.9-3.2,3.6-5.7,4.1c-10,2-19.9,0.1-29.7-1.7
		c-10.3-1.9-20.4-4.6-30.5-7.6c-3.9-1.2-7.3-0.8-8.5,3.4c-1.2,4.1,1.7,5.9,5.3,6.9c15.7,4.3,31.4,8.6,47.7,10.1c10,0.9,19-1,28.4-5
		c11.7-4.9,24.5-7.3,37.1-9.6c6.7-1.2,13.2-1.5,19.8,0.3c1,0.3,1.9,0.6,2.8,0.9c2.5,0.9,5.9,2,6.1,4.5
		C342.8,518.2,339,518.4,337,519.4z"/>
	<path class="st1" d="M273.1,386c-6.5-17.1-15.2-33.1-24.4-48.9c-3.5-5.9-7.8-5.9-11.2,0c-7.1,12-13.8,24.2-19.6,36.9
		c-2.7,6.9-6.2,13.7-6.8,21.3c-1,14.8,7.9,26.7,24,32.7c2.8,2,5.7,3,9,1C268.7,423.9,278.6,409.2,273.1,386z M258.1,388.3
		c-7.2,1.7-7.3,1.8-7.7,9.2c-0.3,5.3-1.4,10.6-2.1,15.8c-0.3,2.2-1.4,3.7-3.4,4.6c-3,0.4-6,0-8.9-1.1c-1.4-1.5-1.4-3.3-1.1-5.1
		c0.7-4.3,0.9-8.6,1.8-12.8c1.6-7.3-0.3-13.4-5.8-18.4c-1.3-1.2-3.1-2.3-2-4.5c3.9-9.2,8.7-17.8,14.1-27.3
		c6.8,12.3,13.5,23.8,18,36.4C262.1,387.9,259.7,387.9,258.1,388.3z"/>
	<path class="st0" d="M228.9,375.9c0.4,0.7,0.6,1.6,1.2,2.1c8.9,6.3,9.7,14.9,7.6,24.7c-1,4.6-1.9,9.3-1.6,14.2
		c-12.1-5.1-16.9-15.4-12.8-27.8C224.8,384.5,227,380.3,228.9,375.9z"/>
	<path class="st2" d="M245,417.9c3.1-2.6,1.9-6.5,2.7-9.7c1-4.1,1.1-8.4,1.3-12.7c0.3-6.4,1.8-8.1,8.2-8.5c1.6-0.1,3.5,0.5,3.9-2
		C268.6,400.8,261.9,414.5,245,417.9z"/>
	<path class="st0" d="M296,452.9c-4.9-6-6.3-12.7-3.8-20c4.8-14.1,12.1-27,19.1-40c0.2-0.4,0.8-0.6,1.5-1.1
		c7.3,14.1,15.6,27.6,20,42.9c2.8,9.9-1.7,18.4-12,24.1C312.5,457.5,304.3,455.2,296,452.9z"/>
	<path class="st3" d="M296,452.9c2-2.2,4-0.2,5.9,0.2c5.3,1.1,10.5,2.6,15.8,3.8c1.3,0.3,2.6,0.5,3.2,1.9"/>
</g>
</svg>
