<?xml version="1.0" encoding="utf-8"?>
<!-- Generator: Adobe Illustrator 19.0.0, SVG Export Plug-In . SVG Version: 6.00 Build 0)  -->
<svg version="1.1" id="Calque_1" xmlns="http://www.w3.org/2000/svg" xmlns:xlink="http://www.w3.org/1999/xlink" x="0px" y="0px"
	 viewBox="0 0 612 792" style="enable-background:new 0 0 612 792;" xml:space="preserve">
<g>
	<path d="M47.8,257.8c2.3-4.6,4.5-9,6.9-13.7c12.5,6.2,24.7,12.3,36.9,18.4c32.9,16.5,65.9,32.7,98.6,49.5
		c6.9,3.5,13.9,3.8,20.8,2.7c8-1.2,15.8-3.8,24.1-5.9c0-3.3,0.3-6.4-0.1-9.5c-0.2-1.6-1.3-3.8-2.6-4.6c-21.7-12.6-34-31.3-36.7-56.3
		c-0.3-3.1-1.3-4.5-4.4-5.3c-14.4-3.6-24.9-12.3-31.3-25.7c-1.6-3.3-3.5-3.7-6.6-3.2c-33.4,4.9-66.9,9.7-100.9,14.6
		c-0.8-5.1-1.6-10.1-2.4-15.5c35.1-5,69.9-10,105-15.1c0-16.4,0-32.4,0-48.8c5.4,0,10.3,0,15.8,0c0,7.1,0,14,0,20.9
		c0,8.7,0,17.3,0,26c0.1,18.4,14,32.7,31.9,32.8c17.9,0.1,32.2-14.2,32.3-32.4c0.1-15.3,0.1-30.7,0.1-46c0-0.3,0.2-0.6,0.4-1.2
		c4.8,0,9.7,0,15.3,0c0,2.3,0,4.5,0,6.8c0,12.7,0.1,25.3,0,38c-0.1,25.1-13,42.2-37.1,49.3c-0.8,0.2-1.6,0.5-2.7,0.8
		c0.8,14.9,6.3,27.5,17,37.7c7.5,7.2,15.8,12.4,27.1,11.2c7.1-0.8,14.3-0.2,21.5-0.1c7.9,0.1,15.2-1.8,22-5.6
		c12.5-7,24.9-14.1,37.3-21.3c1.5-0.9,2.5-2.7,4.4-4.7c-4.7-0.8-8-1.1-11.2-2c-18.7-4.7-31.7-23.1-29.8-42
		c1.9-19.7,17.4-35.5,37-36.1c7.5-0.2,12.7-3.7,18.6-6.9c6.5-3.5,9.6-8,8.3-15.4c-0.5-3-0.1-6.2-0.1-9.7c5.3,0,10.2,0,15.7,0
		c0,8.7,0.1,17.3-0.1,25.9c0,1.3-1.5,2.8-2.7,3.7c-8,5.5-16,10.9-24.1,16.1c-1.8,1.2-4.3,1.5-6.5,1.8c-4.1,0.5-8.4,0-12.4,0.9
		c-12,2.9-19.5,14.3-18,26.4c1.5,11.7,11.6,20.8,23.7,21c5.2,0.1,10.3,0,16.2,0c0,9.2,0.1,18.1-0.1,27c0,0.9-1.3,2.2-2.4,2.7
		c-16.2,9.3-32.3,18.7-48.6,27.7c-8.1,4.5-17.2,6.3-26.5,6.3c-8.6,0.1-17.2,0-26.3,0c0,7.6,0,14.7,0,22.2
		c-18.6,3.8-36.2,11.5-55.5,9.7c-1.6-0.1-3.3-0.5-4.7-1.2c-46.8-23.3-93.5-46.7-140.3-70.1C49.7,259.1,48.9,258.5,47.8,257.8z"/>
	<path d="M347.1,283.8c10.4-0.9,20.4-1.8,30.3-2.7c16.1-1.4,32.2-2.6,48.3-4.1c10-0.9,18-9,17.2-19.1c-0.8-9.4-3.3-18.6-5.2-27.9
		c-1-4.9-4.2-10.5-2.7-14.3c1.5-3.9,7.6-5.9,11.7-8.8c2.7-1.9,5.5-3.7,9-6c-3.2-4.2-5.8-8.7-9.3-12.3c-9.3-9.6-13.2-20.6-11.3-33.9
		c0.7-4.9,0.1-10,0.1-15.3c5.1,0,10,0,15.8,0c0,7.3,0.3,14.9-0.1,22.5c-0.2,4.7,1.2,8.3,4,11.8c4.7,5.8,9.2,11.9,13.5,18
		c2,2.8,4.3,4,7.8,4.4c23.2,2.2,46.4,4.6,69.6,6.9c0.5,0,0.9,0.3,1.8,0.5c-0.5,4.9-1,9.8-1.5,15.1c-10.9-1-21.2-2-31.6-3
		c-14.2-1.4-28.5-3-42.7-4.3c-1.6-0.2-3.6,0.6-5,1.4c-3.7,2.2-7.1,5-10.9,7.1c-3.3,1.8-3.6,4-2.7,7.3c2.1,8,4.2,16.1,5.4,24.3
		c3.4,21.9-11.5,39.9-33.5,41.5c-20.4,1.5-40.8,3.4-61.6,5.2c0,3.5,0,6.8,0,10.7c11.6,2.6,22.9,7.5,35.4,6.1
		c2.5-0.3,5.1-1.2,7.5-2.4c44.1-22,88.1-44,132.2-66c1.5-0.7,3-1.4,5-2.4c2.3,4.5,4.5,8.8,7,13.7c-1.9,1-3.6,2-5.3,2.9
		c-43.8,21.9-87.6,43.5-131.2,65.8c-10,5.1-19.9,5-30,3.4c-11.3-1.8-22.3-5.2-33.4-8.2c-1.3-0.3-3.1-2.2-3.2-3.3
		C347,307.2,347.1,295.9,347.1,283.8z"/>
	<path d="M301.7,323.1c16.1,0.5,33.3,5.2,47.3,18.3c18.3,17,18.6,41.4,0.6,58.6c-16.3,15.5-36.3,20.2-58.1,18.5
		c-13.9-1.1-26.7-5.5-37.9-13.9c-23.9-18-24.6-46.9-1.4-65.9C264,328.9,281.1,323.2,301.7,323.1z M299.1,403.2
		c13.4-0.3,26.2-3.4,37.1-12.1c14.7-11.8,14.6-28.4,0-40.3c-19.6-16-55.1-15.9-74.6,0.2c-14.5,12-14.3,28.6,0.4,40.3
		C272.8,399.8,285.4,402.9,299.1,403.2z"/>
	<path d="M541.5,364.7c3.8,4.5,6.9,8.3,9.7,11.5c-8.9,10.3-18.2,19.7-25.8,30.3c-28.3,39.2-48,82.4-56.8,130.2
		c-1.2,6.5-1.5,13.2-1.6,19.9c-0.2,25.8-0.1,51.6-0.1,77.9c-5.1,0-10,0-15.8,0c0-1.5,0-3.3,0-5c0-22.2,0.3-44.3-0.1-66.5
		c-0.5-27.8,6.4-54.1,16-79.8c13.3-35.7,30.7-69.1,55.3-98.3C528.2,377.9,534.8,371.6,541.5,364.7z"/>
	<path d="M146.9,634.7c-5.5,0-10.3,0-15.8,0c0-1.9,0-3.6,0-5.4c0-19.2-0.7-38.4,0.2-57.5c1.3-30.1-5.3-58.5-16.1-86.2
		c-13.4-34.4-30.3-66.7-54.9-94.5c-4.3-4.8-9.1-9.2-14-14.2c3.2-3.8,6.3-7.6,10.5-12.6c8.8,9.9,18,18.8,25.6,29
		c30.8,41.1,51.8,86.7,61.8,137.2c1.7,8.4,2.4,17.2,2.5,25.8c0.3,23.7,0.1,47.3,0.1,71C146.9,629.6,146.9,631.9,146.9,634.7z"/>
	<path d="M296.2,522.9c-13.7-0.5-28.6-4.8-40.6-16.4c-16.2-15.6-16.6-37.7-1.1-53.9c22-22.9,66.1-23.2,88.5-0.6
		c16.1,16.3,15.8,38.8-0.7,54.6C331.6,516.9,315.6,522.9,296.2,522.9z M295.7,507.1c15.8,0.1,28-4.3,35.8-11.8
		c10.2-9.9,10.2-22.6,0-32.5c-16.2-15.8-48.8-15.9-65-0.1c-10.2,9.9-10.3,22.7,0,32.5C275.4,503.7,286.5,506.7,295.7,507.1z"/>
	<path d="M298.7,618.9c-14-0.5-26.9-4.6-37.1-15.1c-14.3-14.8-14-36,0.7-50.5c19.4-19.2,54.7-18.9,73.8,0.6
		c14.1,14.4,14.3,35.3,0.3,49.8C326.3,614.2,313.4,618.5,298.7,618.9z M298.6,603.2c9.3,0,17.8-2.4,24.9-8.6
		c10.3-9,10.1-22.3-0.2-31.3c-12.9-11.3-36.1-11.2-48.9,0.2c-10.1,9-10.1,22.5,0.2,31.3C281.5,600.6,289.7,603,298.6,603.2z"/>
</g>
</svg>
