<?xml version="1.0" encoding="utf-8"?>
<!-- Generator: Adobe Illustrator 19.0.0, SVG Export Plug-In . SVG Version: 6.00 Build 0)  -->
<svg version="1.1" id="Calque_1" xmlns="http://www.w3.org/2000/svg" xmlns:xlink="http://www.w3.org/1999/xlink" x="0px" y="0px"
	 viewBox="0 0 612 792" style="enable-background:new 0 0 612 792;" xml:space="preserve">
<g>
	<path d="M173.5,446.5c-28.9,7.8-47.2,2.4-60.4-17.9c-11.1-17.1-10-37.7,3.1-53.9c13-16.2,34-22.4,52.4-15.2
		c11.3,4.4,19.8,12.1,25.7,22.6c5.9,10.5,7,21.7,4.2,34.1c14.7-2.6,25.2,5.7,36.3,12.3c15.8,9.5,31.7,19,47.4,28.7
		c3.2,2,5.4,1.9,8.4-0.2c16.8-12,33.7-23.8,50.6-35.7c14.3-10,29.4-8.6,43.2,2c17.1,13.2,35.2,25.3,52.8,37.8
		c5.2,3.7,10.4,7.2,15.5,11c11,8,16.1,21.8,13,34.9c-3.1,12.9-17,22.5-31.5,20.5c-5.9-0.8-12.1-2.9-17-6.2
		c-17.8-11.8-35.1-24.3-52.4-36.6c-2.9-2-4.8-2.2-7.7-0.1c-16.5,11.8-33.2,23.5-49.8,35.1c-13.2,9.2-27.4,8.4-40.9-0.4
		c-20-12.9-40.6-24.9-60.9-37.2c-3.7-2.2-7.4-4.5-11.1-6.7C180.8,467,177,461.7,173.5,446.5z M203.2,430c-6.2,0.6-10.1,3.5-12.7,8.4
		c-2.6,5-2.7,10.1,1,14.5c2.3,2.8,5.3,5.1,8.3,7c14.9,9.2,29.9,18.1,44.9,27.1c10.3,6.2,20.8,12,30.7,18.8
		c9.9,6.8,13.5,7.4,23.2,0.6c18.7-13.1,37.4-26.2,56-39.4c4.4-3.1,8.3-3.5,12.8-0.3c11.2,8.1,22.5,16,33.8,24
		c9,6.3,17.9,12.8,27,18.9c7.6,5.2,14.8,4.3,20-2.1c6.1-7.5,4.9-15.7-3.7-21.9c-14.3-10.3-28.9-20.3-43.3-30.5
		c-8.7-6.1-17.8-11.8-26-18.6c-11.2-9.3-13.9-9.8-25.9-1.3c-17.9,12.5-35.9,24.8-53.5,37.8c-6.2,4.6-11.1,4.4-17.5,0.4
		c-21.2-13.2-42.7-26-64.1-38.7C210.7,432.6,206.8,431.5,203.2,430z M152.6,435.2c18.7,0.1,31.5-12.6,31.6-31.2
		c0.1-18.6-12.7-31.6-31.2-31.7c-18.3-0.2-31.6,13-31.7,31.3C121.1,422,134.2,435.1,152.6,435.2z"/>
	<path d="M138,493.4c-9.9,15.9-19.5,31.3-29.2,46.7c-9.7,15.5-19.3,31.1-29.2,46.6c-1.3,2-3.2,4.5-5.2,4.9c-2.6,0.5-6.5-0.2-8-1.9
		c-1.7-1.9-1.6-5.6-1.6-8.5c0-1.4,1.5-2.9,2.4-4.3c18.3-29.2,36.5-58.5,54.8-87.7c0.9-1.4,1.7-2.8,2.7-4.6
		c-8.4-5.6-16.7-11.2-25-16.7c-5.3-3.5-10.5-7-15.8-10.6c-5.3-3.6-6.7-7.9-4.1-12.1c2.7-4.3,7.5-4.6,13.1-0.9
		c41.7,27.8,83.4,55.7,125,83.6c18.3,12.2,36.6,24.3,54.8,36.7c3.2,2.2,5.4,2.4,8.8,0.3c21.2-13,42.6-25.4,63.7-38.5
		c6.2-3.9,11.3-4.5,18.4-1.5c40.9,17.4,82,34.2,123,51.2c1.7,0.7,3.5,1.3,4.8,2.5c3.2,2.7,3.7,6.3,1.7,9.9
		c-2.4,4.2-6.3,4.7-10.4,3.1c-10-4-20-8.2-30-12.4c-30.7-12.7-61.5-25.4-92.2-38.3c-3.6-1.5-6.2-1.5-9.6,0.6
		c-22.3,13.6-44.8,26.9-67.2,40.5c-5.1,3.1-9.2,2.9-14.2-0.4c-42.3-28.5-84.7-56.7-127.1-85C141.4,495.4,139.9,494.6,138,493.4z"/>
	<path d="M366.9,349.3c-35.1,0.4-66.2-30.2-66.6-65.7c-0.4-35.5,30.3-66.6,66-66.8c35.3-0.3,66.5,30.1,66.8,64.9
		C433.3,318.2,403.3,348.9,366.9,349.3z M366.8,232.6c-29.1,0-50.6,21.4-50.7,50.4c-0.1,28.9,21.5,50.5,50.5,50.6
		c29,0.1,50.5-21.4,50.5-50.4C417.1,254,395.8,232.6,366.8,232.6z"/>
	<path d="M239.5,215.8c3,1.4,5.1,2.1,6.7,3.3c13.6,10.1,27.2,20.3,40.7,30.5c4.6,3.5,5.6,8.3,2.8,12c-2.9,3.8-7.5,4.1-12.3,0.6
		c-13.7-10.2-27.4-20.5-41.1-30.8c-3.3-2.5-5-5.9-3.1-9.5C234.4,219.4,237.3,217.8,239.5,215.8z"/>
	<path d="M342.6,360.2c-1.4,3.1-2,5-3,6.7c-8.3,14.4-16.7,28.7-25.1,43c-3.2,5.4-7.6,7-11.9,4.4c-4.1-2.4-4.8-7.1-1.8-12.2
		c8.6-14.8,17.2-29.6,25.9-44.3c2.1-3.5,5.3-5.8,9.1-4C338.5,355.1,340.4,358.1,342.6,360.2z"/>
	<path d="M441.8,261c-1.9-1.7-4.7-3.3-6.1-5.7c-1.9-3.2-0.6-6.5,2.2-8.9c0.9-0.7,2-1.2,3-1.7c15.1-7.3,30.1-14.7,45.2-22
		c5.6-2.7,9.7-1.7,12,2.7c2.3,4.5,0.5,8.8-5.2,11.5c-14.9,7.3-29.8,14.6-44.8,21.8C446.6,259.5,444.8,259.9,441.8,261z"/>
	<path d="M293,316c-0.9,1.1-2.3,4-4.5,5.4c-14.9,9-30,17.7-45.1,26.4c-4.7,2.7-9.4,1.4-11.6-2.7c-2.1-4-0.8-8.3,3.8-11
		c14.9-8.8,29.8-17.5,44.8-26.1C286.5,304.6,292.9,307.8,293,316z"/>
	<path d="M394.6,211.3c-7.3,0.2-11.4-5.1-9.1-10.6c7-16.7,14.3-33.3,21.6-49.8c1.9-4.2,6.1-5.6,10-4c4.1,1.7,6.2,5.9,4.3,10.3
		c-7.1,16.7-14.3,33.3-21.8,49.7C398.7,209.2,395.7,210.5,394.6,211.3z"/>
	<path d="M309.9,152.8c1.1,0.9,4.1,2.2,5.4,4.5c8.5,15.4,16.8,30.9,24.9,46.5c2.4,4.6,1,9-3.1,11.1c-3.9,2-8.3,0.8-10.6-3.5
		c-8.6-15.8-17.1-31.5-25.3-47.5C298.4,158.6,302.3,152.8,309.9,152.8z"/>
	<path d="M445.7,311.9c1,0.4,2.8,1.1,4.5,2.1c14.2,9.2,28.4,18.4,42.6,27.7c4.8,3.2,6.1,7.9,3.3,11.8c-2.7,3.9-7,4.5-11.8,1.4
		c-14.5-9.4-28.9-18.9-43.4-28.3c-3.5-2.3-4.8-5.5-3.6-9.4C438.2,313.7,440.9,311.9,445.7,311.9z"/>
	<path d="M393.4,352.4c1.2,1.1,4.2,2.6,5.5,5.1c8,15.5,15.6,31.2,23.2,46.9c2.3,4.8,1,9.1-3,11.2c-4.1,2.1-8.8,0.5-11.1-4.3
		c-7.8-15.6-15.5-31.2-23.1-46.9C382,358.4,385.6,352.5,393.4,352.4z"/>
</g>
</svg>
