<?xml version="1.0" encoding="utf-8"?>
<!-- Generator: Adobe Illustrator 19.0.0, SVG Export Plug-In . SVG Version: 6.00 Build 0)  -->
<svg version="1.1" id="Calque_1" xmlns="http://www.w3.org/2000/svg" xmlns:xlink="http://www.w3.org/1999/xlink" x="0px" y="0px"
	 viewBox="0 0 612 792" style="enable-background:new 0 0 612 792;" xml:space="preserve">
<style type="text/css">
	.st0{fill:#64C9F7;}
	.st1{fill:#03A8F2;}
</style>
<g>
	<path class="st0" d="M529,442l-0.4,0.2c0,0-0.4,0-0.4,0c-0.4-3.4-0.6-6.9,0.8-10.2C529,435.3,529,438.7,529,442z"/>
	<path class="st0" d="M292.2,678.2c-0.1,0.3-0.1,0.6-0.2,0.8c-3.3,0-6.7,0-10,0C285.3,677.6,288.7,677.8,292.2,678.2z"/>
	<path class="st1" d="M529,404c-1-1.5-0.4-3.2-0.5-4.9c-0.8-10.1-0.7-20.3-2.8-30.2c-5.1-24.1-13.7-46.9-25.3-68.6
		c-14.8-27.6-34.2-51.5-57.7-72.1c-27.9-24.5-59.7-42.1-95.4-52.8c-10.7-3.2-21.4-6.1-32.6-6.9c-7.6-0.5-15.2-0.6-22.7-1.6
		c-13,0-26,0-39,0c-1.2,0.9-2.6,0.4-3.9,0.5c-10.1,0.8-20.3,0.7-30.2,2.8c-24.1,5.2-46.9,13.6-68.6,25.3
		c-27.6,14.8-51.5,34.3-72.1,57.7c-24.4,27.7-41.9,59.4-52.6,94.9c-3.3,10.8-6.2,21.7-7,33.1C18,388.5,18,395.8,17,403
		c0,13.3,0,26.7,0,40c0.9,1.2,0.4,2.6,0.5,3.9c0.8,10.1,0.7,20.3,2.8,30.2c5.2,24.1,13.6,46.9,25.3,68.6
		c14.8,27.6,34.3,51.5,57.7,72.1c27.8,24.4,59.5,41.9,94.9,52.6c10.8,3.3,21.7,6.2,33.1,7c7.2,0.5,14.5,0.6,21.7,1.6
		c9.7,0,19.3,0,29,0c3.1-1.1,6.4-0.2,9.6-0.5c11.8-0.2,23.6-0.5,35.2-2.8c28.2-5.6,54.3-16.7,79.1-31.1
		c23.6-13.7,43.6-31.7,61.7-51.8c16.5-18.2,29.4-39,39.8-61.3c13.3-28.5,21.7-58.2,21.1-90c0.3-3.2-0.6-6.4,0.5-9.5
		C529,422.7,529,413.3,529,404z M332.6,370.2c12.7,0.1,22.6,10.3,22.6,23c0,12.6-10.4,22.9-22.9,22.7c-12.7-0.2-22.6-10.3-22.6-23.1
		C309.8,380.2,320,370,332.6,370.2z M276.6,391.7c-7.3-11.9-7.2-11.8-21-9.4c-12,2.1-24,4.1-35.9,6c-5.8,0.9-9.8-1.8-10.8-7
		c-1-5.6,1.6-9.8,7.5-10.9c18.4-3.2,36.8-6.3,55.1-9.3c3.8-0.6,6.9,0.9,9.1,4.1c6.2,9.1,12.3,18.2,18.3,27.4
		c3,4.7,1.8,10.2-3.2,12.9c-22,12.2-43.6,24.9-66.1,36.2c-3.4,1.7-6.3,1.4-9.4-0.6c-4.2-2.7-8.5-5.1-14-6.7
		c15.7-8.7,30.8-17.1,45.9-25.5c7.7-4.3,15.4-8.7,23.1-12.8C277.5,395,278,394.1,276.6,391.7z M394.3,475.1
		c-8.2,4.9-16.6,9.2-25.5,10c-6-0.2-10.6-2.2-14.7-5.2c-6.7-4.9-13-4.8-19.7,0.1c-9.4,6.8-18.9,6.6-28.2-0.2
		c-6.3-4.6-12.4-4.7-18.8,0c-9.5,6.9-19.1,7-28.6,0.1c-6.3-4.6-12.4-4.8-18.8-0.1c-9.7,7.1-19.4,6.9-29.1-0.1
		c-5.5-4-11.2-5.1-17-0.7c-10.5,7.9-21.2,7.3-32.3,1.4c-3.1-1.6-6.2-3.2-9.3-4.9c-2.6-1.4-3.4-3.8-2-6.4c1.4-2.7,4-2.8,6.5-1.5
		c5.4,2.9,10.9,5.7,16.8,7.5c3.8,1.1,7.2,0.7,10.5-1.2c2.6-1.5,5.1-3.1,7.8-4.5c6.7-3.5,13.4-3.5,20,0.2c0.6,0.3,1.2,0.6,1.7,1
		c7.8,6.2,15.4,6.2,23.6,0.1c7.6-5.6,15.9-5.1,23.9-0.3c2,1.2,4,2.3,6,3.5c4,2.4,7.9,2.2,11.8-0.1c2.4-1.4,4.9-2.9,7.4-4.2
		c7-3.9,14-3.9,20.9,0c1.2,0.6,2.4,1.2,3.4,2c6.6,5,13,4.8,19.7,0c8.5-6.2,17.8-7.2,26.4-0.7c8,5.9,15.6,5.2,23.7,1
		c3.1-1.6,6.2-3.3,9.3-4.8c2.2-1,4.4-0.6,5.7,1.6C396.9,471.2,396.7,473.6,394.3,475.1z M394.3,447.7c-8.1,4.7-16.2,9.2-25.8,9.8
		c-5.5,0.1-10.1-2-14.4-5.1c-6.5-4.6-12.8-4.9-19.3-0.2c-9.5,6.9-19.1,6.9-28.6-0.1c-6.3-4.6-12.5-4.6-18.8,0.1
		c-9.5,7-19.2,6.8-28.6-0.1c-6.4-4.6-12.5-4.5-18.9,0c-9.5,6.9-19.1,6.8-28.6,0c-5.9-4.2-11.9-5-18-0.4c-9.8,7.4-20,6.9-30.5,1.6
		c-3.1-1.6-6.2-3.2-9.3-4.7c-3.1-1.5-4.9-3.9-3-7.2c1.8-3,4.5-2.5,7.4-0.9c3.2,1.8,6.5,3.3,9.8,4.9c7.3,3.7,14.2,3.5,21-1.5
		c8.7-6.3,17.6-6,26.5,0c0.7,0.5,1.4,0.8,2.1,1.3c5.6,3.9,11.2,4,16.7,0c10.3-7.6,20.5-7.7,30.8-0.1c5.7,4.2,11.4,4,17.1-0.2
		c10-7.3,19.9-7.5,29.9-0.1c6,4.5,12,4.2,18-0.1c9.6-6.9,19.3-7.3,29-0.1c5.6,4.1,11.6,4.3,17.9,1.7c4.5-1.8,8.7-4.1,13-6.3
		c2.4-1.3,4.7-0.7,6.1,1.5C397,443.8,396.6,446.3,394.3,447.7z"/>
</g>
</svg>
