<?xml version="1.0" encoding="utf-8"?>
<!-- Generator: Adobe Illustrator 19.0.0, SVG Export Plug-In . SVG Version: 6.00 Build 0)  -->
<svg version="1.1" id="Calque_1" xmlns="http://www.w3.org/2000/svg" xmlns:xlink="http://www.w3.org/1999/xlink" x="0px" y="0px"
	 viewBox="0 0 612 792" style="enable-background:new 0 0 612 792;" xml:space="preserve">
<style type="text/css">
	.st0{fill:#E864A1;}
	.st1{fill:#3F3140;}
	.st2{fill:#63A4D8;}
	.st3{fill:#92CDED;}
	.st4{fill:#F89A6A;}
	.st5{fill:#D28761;}
</style>
<g>
	<path class="st0" d="M315,616c-12.7,0-25.3,0-38,0c-7.4-1-14.8-1.1-22.2-1.6c-11.2-0.9-21.9-3.8-32.6-7
		c-35-10.5-66.3-27.8-93.8-51.6c-23.8-20.6-43.5-44.8-58.5-72.7c-12.4-23-21.4-47.3-26.2-73c-1.7-9.1-1.8-18.5-2.2-27.8
		c-0.1-2.1,0.6-4.3-0.5-6.4c0-10.7,0-21.3,0-32c0.9-8.6,0.9-17.2,1.6-25.7c0.9-11.4,3.8-22.3,7.1-33.1
		c10.6-35.4,28.2-67.2,52.6-94.9c20.6-23.4,44.4-42.9,72.1-57.7c22.9-12.3,47-21.2,72.5-25.9c9.1-1.7,18.5-1.8,27.8-2.2
		c2.1-0.1,4.3,0.6,6.4-0.5c10.7,0,21.3,0,32,0c8.6,0.9,17.2,0.9,25.8,1.6c11.5,0.9,22.6,3.9,33.6,7.2c33.9,10.4,64.3,27,91.3,49.9
		c24.9,21.1,45.2,45.9,60.7,74.6c12.4,22.9,21.3,46.9,26,72.5c1.6,8.7,1.5,17.5,2.1,26.3c0.1,1.6-0.5,3.3,0.5,4.9
		c0,11.7,0,23.3,0,35c-1,7.2-1,14.5-1.3,21.8c-0.6,12.3-3.3,24-6.9,35.6c-10.5,34.3-26.8,65.4-50.2,92.8
		c-36.8,43.1-82.7,71.6-137.7,85.2c-12,3-24.3,3.2-36.6,4C318.6,615.6,316.7,615,315,616z"/>
	<path class="st1" d="M154.2,378.2c-1.5-2.8-1.8-5.4,0.9-7.7c2.7-2.3,5.2-1,7.8,0.5c5.3,3.1,10.9,5.8,16.7,7.7
		c4.8,1.6,9.4,1.5,13.8-1.4c7.7-5,15.6-9.7,25.6-7.6c1,0.2,2.4-0.8,3.6-1.5c28.1-15.6,56.1-31.3,84.3-46.7c3.3-1.8,3.3-3.2,1.3-6
		c-4.1-5.7-7.9-11.5-11.6-17.5c-1.4-2.3-2.8-3-5.6-2.5c-17.9,3.2-35.8,6-53.7,9c-1,0.2-2,0.3-3,0.4c-3.2,0.3-5.7-0.7-6.3-4.1
		c-0.7-3.6,1.2-5.7,4.7-6.3c8.8-1.5,17.7-3,26.6-4.5c11.2-1.9,22.4-3.5,33.5-5.6c4.9-0.9,8,0.1,10.7,4.6
		c5.6,9.2,11.9,18.1,17.9,27.1c3.7,5.6,3.2,7.7-2.8,11.1c-26.9,15-53.8,29.9-80.7,44.9c-1.9,1-3.7,2.1-5.7,3.3
		c6.1,5.3,9.7,5.8,15.9,2.4c1-0.6,2.1-1.1,3-1.8c12-8.5,24.1-8.9,36-0.1c6.9,5.1,13.3,4.8,20.1-0.2c11.4-8.3,23.2-8.5,34.7-0.2
		c7.2,5.2,13.7,5.4,20.9,0.1c11.4-8.4,23.3-8.3,34.7,0.1c6.7,4.9,13.4,5.2,20.6,1.8c4.5-2.1,9-4.2,13.4-6.6c2.5-1.3,4.9-2.3,7.4-0.1
		c2.6,2.3,2.4,4.9,0.8,7.7c-0.2,2.2-1.5,3.6-3.4,4.6c-6.6,3.6-13.4,6.7-20.6,8.9c-7.1,2.1-13.8,1.2-20.3-1.9
		c-2.7-1.3-5.3-2.7-7.8-4.4c-5.4-3.6-10.5-3.4-15.7,0.4c-2.2,1.6-4.7,2.6-7,3.8c-9.6,5-18.9,3.8-28-1.3c-1.2-0.6-2.3-1.3-3.4-2.2
		c-6-4.6-11.7-4.3-17.8,0.1c-12,8.6-24.5,9-36.6,0.5c-6.8-4.7-12.7-5-19.6-0.1c-7.1,5-15,7.8-24,5.5c-4.7-1.2-9.1-3.4-13-6.1
		c-5.6-3.9-11-4.3-16.6-0.2c-17.4,12.8-33.4,5.4-49.2-3.5C155,381.4,154.4,379.9,154.2,378.2z"/>
	<path class="st2" d="M439.4,410.6c5.9,5,5.6,10.6-0.8,14.4c-6.3,3.7-13,6.7-19.9,9.1c-10,3.5-19.3,2.3-28.1-3.4
		c-1.3-0.8-2.6-1.5-3.8-2.4c-4.5-3.3-8.8-3.1-13.3,0c-5.3,3.7-11,6.9-17.7,7.6c-8.2,0.9-15.6-1.5-22-6.3c-6.1-4.5-11.4-4.6-17.6-0.2
		c-12.5,8.9-25.5,9-38,0c-6.3-4.5-11.5-4.2-17.6,0.1c-12.2,8.6-24.9,8.9-37.1,0.2c-6.8-4.8-12.4-4.6-18.9,0.2
		c-9.3,6.9-19.6,7.6-30.3,3.6c-6.3-2.3-12.3-5-18.1-8.4c-6.9-4-7.3-9.4-1.4-14.8c2.2-1.5,4.2-0.2,6.1,0.7c5.4,2.6,10.8,5.2,16.4,7.2
		c7.8,2.7,15,1.9,22.1-2.1c1.9-1.1,3.8-2.1,5.6-3.3c6.7-4.4,13.2-3.8,19.5,0.7c2.2,1.5,4.6,2.6,7,3.8c7.4,3.6,14.7,3.5,22-0.5
		c3.2-1.8,6.3-3.8,9.5-5.4c4.7-2.4,9.3-2.1,13.8,0.5c1.7,1,3.5,1.9,5.2,3c10.5,6.9,20.9,6.7,31.2-0.5c1.1-0.8,2.2-1.5,3.4-2.2
		c5.1-2.8,10.3-3.5,15.7-0.5c2.8,1.5,5.5,3.2,8.2,4.8c7.5,4.3,15.1,4.5,22.9,0.7c3.5-1.7,6.7-3.7,10.1-5.5c4.5-2.4,8.8-2.6,13.3-0.1
		c1.6,0.9,3.4,1.4,4.9,2.5c10.7,8,21.7,6.8,33,1.5c3.2-1.5,6.2-3.2,9.4-4.6C435.6,410.2,437.4,409.1,439.4,410.6z"/>
	<path class="st3" d="M154.2,378.2c7.4,4.6,15.1,8.4,23.4,10.9c8.1,2.5,15.8,1.5,23-2.9c1.7-1.1,3.5-2,5.1-3.1
		c5.4-3.8,10.6-3.8,16.2-0.1c4.4,3,9,5.8,14.3,7c8,1.7,15.4-0.3,21.7-5c7.8-5.8,14.7-5.8,22.6-0.1c10.7,7.8,22.2,7.7,33-0.1
		c7.7-5.5,14.5-5.7,22.2-0.1c10.9,7.9,22.5,7.8,33.4-0.1c7.6-5.5,14.3-5.6,21.8,0c9.3,6.9,19.5,7.6,30.1,3
		c6.4-2.8,12.8-5.6,18.7-9.3c5.7,5.9,5.1,10.9-1.9,14.8c-6.4,3.6-13.1,6.5-20,8.9c-9.9,3.5-19.2,2-27.5-3.9
		c-7-5.1-12.8-5.6-20.2-0.3c-12,8.7-24.7,8-36.7-0.5c-6.1-4.4-11.3-4.6-17.6-0.1c-12.5,9-25.5,9-38,0c-6.3-4.6-11.5-4.3-17.6,0.1
		c-12.2,8.7-25,9.1-37.1,0.3c-7-5-12.6-4.7-19.3,0.3c-8.9,6.6-18.9,7.5-29.4,3.7c-6.4-2.3-12.6-5.1-18.6-8.5
		C149.1,389,148.5,384.3,154.2,378.2z"/>
	<path class="st1" d="M439.4,410.6c-7.3,4.3-15,7.9-23.1,10.6c-8.1,2.7-15.8,2-22.3-2.8c-9.7-7.3-18.1-7-27.9,0.1
		c-8.7,6.2-19,6.1-27.7-0.2c-9.7-7-17.9-6.8-27.5,0.1c-8.9,6.4-19.2,6.2-28.1-0.2c-9.3-6.6-17.3-7-26.7-0.1
		c-9.4,6.8-19.7,6-29.6-0.1c-1.3-0.8-2.6-1.5-3.8-2.4c-5.8-4.4-11.7-4.4-17.4-0.1c-11.7,8.8-23.9,8.8-36.6,2.4
		c-4.8-2.4-9.4-4.9-14.1-7.4c-1.8-2.6-2.1-5.3,0.4-7.7c2.5-2.4,5.1-1.5,7.8,0c5.9,3.4,12,6.4,18.6,8.3c4.3,1.3,8.2,0.7,11.9-1.7
		c2-1.2,4-2.4,6-3.6c9.7-5.9,19.9-6.6,29.1,0.1c9.3,6.8,17.3,6.8,26.7,0c9.2-6.7,19.4-6,29.1,0c1.3,0.8,2.6,1.5,3.8,2.4
		c6.1,4.6,12.2,4.5,18.3,0c12.5-9.2,24.9-9,37.3,0.2c6,4.4,11.9,4.3,17.9-0.1c12.6-9.3,25.2-9,37.8,0.2c5,3.7,10.3,4,16.1,1.9
		c5.7-2.1,11.1-4.6,16.3-7.6c2.7-1.5,5.2-2.3,7.7,0.1C441.8,405.4,441.2,408,439.4,410.6z"/>
	<path class="st1" d="M398.2,316.1c-0.1,17.7-14.5,32-32.2,31.8c-17.5-0.1-31.9-14.9-31.7-32.5c0.2-17.3,14.7-31.6,32.1-31.5
		C384.3,284.1,398.3,298.2,398.2,316.1z"/>
	<path class="st4" d="M379,333c-8.8,5.8-18.9,5.5-26.3-0.7c-7.4-6.2-9.5-15.7-5.6-25.3c4-6.9,10.5-7.1,17-6
		C378.9,303.6,387.8,321,379,333z"/>
	<path class="st5" d="M379,333c0.3-2.9,0.8-5.9,1-8.9c0.7-8.8-3.4-15.2-11-18.9c-7.4-3.6-15-3.7-22,1.8c3.4-7.9,11.9-13.4,20-12.8
		c9.2,0.7,17.1,6.7,19.8,15.1C389.8,318.4,386.9,327,379,333z"/>
</g>
</svg>
