<?xml version="1.0" encoding="utf-8"?>
<!-- Generator: Adobe Illustrator 19.0.0, SVG Export Plug-In . SVG Version: 6.00 Build 0)  -->
<svg version="1.1" id="Calque_1" xmlns="http://www.w3.org/2000/svg" xmlns:xlink="http://www.w3.org/1999/xlink" x="0px" y="0px"
	 viewBox="0 0 612 792" style="enable-background:new 0 0 612 792;" xml:space="preserve">
<g>
	<path d="M177.5,162c17.3,2.4,33.4,8.5,48.9,16.3c64.2,32.5,106,83.7,127,152.3c0.5,1.7,1,3.5,1.7,5.9c1.9-1.1,3.6-2,5.2-3
		c43.2-26.1,90.3-37.4,140.5-36.6c19,0.3,35.8,7.1,50.5,18.8c18,14.3,28.5,32.9,32.2,55.5c0.2,1,0.6,1.9,0.9,2.8c0,7.7,0,15.3,0,23
		c-0.3,1.6-0.7,3.2-0.9,4.8c-1.6,10.2-2.5,20.5-4.8,30.5c-11.5,51.3-37.1,94.9-74.7,131.4c-39.1,38-85.5,62.5-139.5,71.7
		c-9.3,1.6-18.8,2.4-28.2,3.5c-5.3,0-10.7,0-16,0c-2.2-0.5-4.5-0.9-6.7-1.4c-39.8-7.5-70-41.1-73.2-81.6c-0.2-2.8-1.3-3.9-3.8-4.8
		c-6.7-2.5-13.5-4.9-19.8-8.2C135.5,501.2,90.6,433.3,75.5,344.2c-1.5-9-2.1-18.1-3.1-27.2c0-6.3,0-12.7,0-19
		c0.3-1.6,0.5-3.2,0.8-4.8c2.4-16.1,4-32.4,7.5-48.2c3.9-17.7,9.5-35,21.4-49.5c10.7-13,23.7-22.8,39.8-28
		c7.7-2.5,15.8-3.7,23.7-5.5C169.5,162,173.5,162,177.5,162z M559.7,350.2c-0.9,4.6-1.5,8.2-2.2,11.7c-8.2,39.2-28.3,70-64.2,89.3
		c-22.3,12-46.4,16.7-71.5,17.9c-13.9,0.6-28,1-41.7,3.1c-29.6,4.6-54.6,18-72.2,43c-18.4,26.1-24.5,56.1-26.3,87.2
		c-0.1,1.5,1.4,3.6,2.8,4.7c9.7,7.8,20.8,12.7,33.2,13.9c24.7,2.3,48.9-1.6,72.4-8.6c62-18.5,109.9-55.8,143.6-110.9
		c21.9-35.8,33.2-74.9,34-117C567.6,372.8,565.4,361.7,559.7,350.2z M238.8,534.9c0.6-0.4,1.2-0.9,1.8-1.3c0-3.8-0.5-7.7,0.1-11.3
		c0.6-3.5-0.7-5.5-3-7.7c-11.1-10.6-20-22.8-26.3-36.7c-14.4-31.7-14.5-64.3-5.3-97.1c4.6-16.5,11.4-32.3,15.7-48.9
		c8.6-33.2,5.1-64.8-15.6-93.2c-17.1-23.4-40.6-38.6-66.3-50.8c-1.6-0.8-4.6,0-6.3,1c-14.8,9.1-24.2,22.5-29.9,38.7
		C89,268.7,85.2,310.9,93.6,353.9c13.8,70.4,50.4,125.7,111.7,163.7C216,524.1,227.6,529.1,238.8,534.9z M266.1,582.8
		c0.1-0.8,0.2-1.6,0.4-2.4c4-26.5,11.9-51.6,27.7-73.6c25-34.8,60.4-50.5,102-53.8c15.9-1.3,32-1.2,47.8-3.2
		c25.9-3.3,49.3-12.8,67.9-31.9c19.2-19.7,27.8-44.2,30.8-71c2.2-19.2,1.3-20.6-16.6-28c-12.4-5.1-25.2-5.4-38.3-5
		c-49.8,1.9-95.8,14.8-136.1,45.1c-65.4,49.1-96.8,114.4-94,196.1C257.9,565,260.5,574.4,266.1,582.8z M244.2,496.8
		c0.7-3,1.1-5.3,1.6-7.5c13.9-57.2,44.1-103.9,90.6-140c2.6-2,3.6-3.8,2.5-7.1c-4.3-12.1-7.4-24.6-12.5-36.3
		C299.4,245,254.1,204,191.2,182.3c-9.3-3.2-18.9-4.3-28.1-3.1c11.4,8.6,23.6,16.6,34.4,26.1c31.1,27.5,46.9,62,44.9,103.9
		c-0.9,19.6-6.1,38.4-13.4,56.6c-6.1,15.4-10.5,31.2-12,47.8C214.1,444.7,222.2,472.5,244.2,496.8z"/>
</g>
</svg>
