<?xml version="1.0" encoding="utf-8"?>
<!-- Generator: Adobe Illustrator 19.0.0, SVG Export Plug-In . SVG Version: 6.00 Build 0)  -->
<svg version="1.1" id="Calque_1" xmlns="http://www.w3.org/2000/svg" xmlns:xlink="http://www.w3.org/1999/xlink" x="0px" y="0px"
	 viewBox="0 0 612 792" style="enable-background:new 0 0 612 792;" xml:space="preserve">
<style type="text/css">
	.st0{fill:#C3CDD9;}
	.st1{fill:#0E4274;}
	.st2{fill:#205080;}
	.st3{fill:#2A68A5;}
	.st4{fill:#FDC32E;}
	.st5{fill:#C3CDD8;}
	.st6{fill:#FDE482;}
	.st7{fill:#F7B613;}
	.st8{fill:#2A67A4;}
	.st9{fill:#FDC22E;}
	.st10{fill:#5883AD;}
	.st11{fill:#5B92CA;}
	.st12{fill:#5B94CC;}
	.st13{fill:#2E69A4;}
</style>
<g>
	<path class="st0" d="M95,572.1c-4.1-2.4-7.5-5.3-8.7-10.3c-1.1-4.6-0.3-5.8,4.2-5.8c54,0,107.9,0,161.9,0c39.8,0,79.6,0,119.4,0
		c8.6,0,13.6-6.6,13.6-15.3c0-6.6-0.4-12.5-4.9-17.5c-1-1.1-2-2.6-3.3-3c-5-1.6-5.6-5.1-5.3-9.7c0.4-6.1,0.5-12.2-1.6-18.4
		c10.5,3.8,17.5,13.9,17.7,24.8c0,1.8,0.1,3.7-0.1,5.5c-0.5,6.2-0.2,11.2,6.6,15.2c7.9,4.7,9.9,19.3,5.8,27.7
		c-1.8,3.7-5.2,4.8-8.3,6.7C293,572.1,194,572.1,95,572.1z"/>
	<path class="st1" d="M336.9,486.7c2.3,0,4.6,0.1,6.9,0.1c7.9,0.2,12.7,4.3,14.3,12.1c0.8,9.3,0.1,18.6,0.4,27.9
		c0.1,2.4-1.3,3.2-3.3,3.5c-1.7,0.2-3.3,0.1-5,0.1c-81.8,0-163.6,0-245.4,0c-1.2,0-2.3-0.1-3.5,0c-3.5,0.1-5-1.3-4.9-5.1
		c0.4-9.1-0.3-18.3,0.4-27.4c2-7.2,6.6-10.8,13.7-11.1c2.5-0.1,4.9-0.1,7.4-0.1c2.1-1.4,4.4-1.2,6.8-1.2c68.5,0,137,0,205.4,0
		C332.5,485.5,334.9,485.3,336.9,486.7z"/>
	<path class="st2" d="M549.2,451.4c-3.3,14.2-12.7,23.3-24.9,30.1c-2.7,1.5-3.6-0.8-5-2c-33.9-27.9-67.8-55.9-101.7-83.9
		c1.2-4.9,5.2-7.9,8.1-11.6c4.6-5.8,9.4-11.5,14.2-17.1c1.1-1.3,2.1-3,4-3.5c7.2,3,12.4,8.8,18.2,13.6c25.9,21.3,51.7,42.7,77.7,64
		c2.3,1.9,4.5,4,6.9,5.7C548.1,448,549.6,449.2,549.2,451.4z"/>
	<path class="st2" d="M322,134c28.3,23.3,56.5,46.5,84.8,69.9c7.3,6.1,8.5,15.3,3.1,22.1c-5.6,7.1-14.9,7.9-22.6,2
		c-1-0.8-1.8-2-3.3-2c-4.1-0.3-6.2-3.7-8.9-6c-23.1-18.9-46-38.1-69.2-57c-1-0.8-2.1-1.7-2.7-2.9c0.2-1.3-0.6-2-1.3-2.9
		c-3.8-5.8-3-13.9,1.9-19.2C308.9,132.4,315.9,130.9,322,134z"/>
	<path class="st2" d="M274.3,358.2c-0.5,2.3,1.5,2.7,2.7,3.7c6.8,6.1,7.7,15.2,2.2,21.9c-5.4,6.5-15.2,7.6-21.9,2.1
		c-28.5-23.5-56.9-47.1-85.4-70.6c-4.3-5.6-4.1-12.3,0.7-18.7c4.1-5.6,13.1-8.8,18.4-5.5c0.9,0.6,1.8,1.4,3,1
		c6.8,4.1,12.6,9.7,18.7,14.7c18.6,15.3,37.2,30.7,55.8,46C270.6,354.4,272.8,356,274.3,358.2z"/>
	<path class="st3" d="M367.1,530c4.4,1.9,6.9,7.9,4.9,11.9c-1,2.1-2.9,1.1-4.4,1.1c-22.2,0.1-44.3,0.1-66.5,0.1
		c-70.7,0-141.3,0-212-0.1c-2.2,0-5.7,2.2-6.8-1.8c-1.5-5.1,0.8-9.4,5.4-11.2c4.1-0.7,8.3-0.4,12.4-0.4c86-0.1,172,0.2,257.9-0.1
		C361.2,529.5,364.2,529.2,367.1,530z"/>
	<path class="st4" d="M336.9,486.7c-13.6,0.1-27.3,0.3-40.9,0.3c-57.7,0-115.4,0-173.1,0c-1.7,0-3.3-0.2-5-0.3c0-1.7-0.1-3.3-0.1-5
		c0.1-5.8,2-7.8,7.8-7.8c15.3-0.1,30.7-0.1,46-0.1c51,0,102,0,152.9,0C336.6,473.8,337.2,474.4,336.9,486.7z"/>
	<path class="st5" d="M325.6,335.4c2.8,0.6,4.3,2.7,5.8,4.2c6,5.8,13.2,7.5,21.1,6.4c1.9-0.3,3.3,0.3,4.5,1.3
		c7.5,6.3,15,12.6,22.5,18.9c0.6,0.5,1.3,1.1,0.9,2.5c-3.5-0.7-5.1-4-7.9-5.6c-1.3-0.8-2.3-1.5-4-1.1c-9.4,2.2-16.7-2.1-23.3-8.1
		c-0.8-0.7-1.4-1.9-3.4-2c0.9,8.7-1.1,16.5-8.3,22c-7.3,5.6-15.4,5.2-24.6,2.2c1.6,5.7,3.3,10.7,3.1,16.2
		c-0.6,14.5-15.3,26.8-29.8,26.1c-12.2-0.6-19.4-8.7-27.7-15.3c-14.8-11.8-29.3-23.9-43.7-36.1c-11.8-10-24.3-19-35.4-29.8
		c-1.3-1.2-2.4-2.5-2.9-4.5c7.9,6.4,15.8,12.8,23.6,19.2c16.9,13.9,34,27.7,50.6,41.9c6.9,5.9,14.1,8.7,23.1,8.4
		c15.6-0.5,28.8-17,25.5-32.2c-0.7-3-1.4-6.1-2.2-9.9c8.7,3.2,17.1,3.1,24.2-2.5C324.5,352.2,327.1,344.5,325.6,335.4z"/>
	<path class="st2" d="M208,275.1c0.8-2.2-1.2-2.8-2.3-3.8c-2-1.8-4.2-3.3-6-5.2c-3.1-3.2-3.3-7.9-0.7-11.4c2.6-3.6,7.5-4.7,11.6-2.7
		c1.2,0.6,2.2,1.4,3.4,2.1c4.1,0.8,6.2,4.7,9.6,6.6c18.6,15.7,37.5,31,56.2,46.5c6.5,5.4,13,10.9,19.7,16.2c2.4,3.3,6.9,4.5,8.5,8.6
		c5.3,4.8,6.3,9.6,2.9,13.9c-3.1,4-8.6,4.7-12.9,1.5c-2.9-2.2-5.6-4.6-8.5-7c-2.3,0.8-3.8-0.9-5.3-2.1c-15.8-13-31.5-26.1-47.3-39.1
		c-8.9-7.3-17.6-14.8-26.7-21.8C209.3,276.6,208.5,276.1,208,275.1z"/>
	<path class="st2" d="M269.2,186.3c-3.1-2.8-5.2-6.1-4-10.5c1.7-6.2,8.9-8.3,14.5-4.6c3.1,2.1,5,5.9,9.3,6.1
		c5.6,3,9.9,7.7,14.8,11.6c20.4,16.7,40.7,33.5,61.1,50.4c1.6,1.4,3.6,2.5,4.1,4.8c1.3,2.6,4,3.8,6.1,5.7c5.4,4.6,6.7,9.9,3.5,14.2
		c-3.2,4.3-8.6,4.5-14.6,0.5c-4-1.1-6.2-4.9-9.6-6.8c-24-19.5-47.6-39.5-71.7-59c-1.4-1.2-2.8-2.4-4.1-3.7
		C275.6,191.9,271.4,190.2,269.2,186.3z"/>
	<path class="st1" d="M208,275.1c7,2.8,11.7,8.5,17.4,13c12.8,10.2,25.4,20.8,38,31.2c8.5,7.1,16.7,14.6,25.9,20.9
		c-5,6-10,12-15.1,18c-5.7-2.8-10-7.4-14.9-11.4c-14.5-11.8-29-23.7-43.2-35.8c-7.4-6.3-15.7-11.6-22.2-19
		C198.3,286.2,203,280.5,208,275.1z"/>
	<path class="st1" d="M368.9,244.1c-25.2-20.7-50.3-41.4-75.4-62.1c-1.6-1.4-3-3.1-4.4-4.7c4.7-5.7,9.5-11.4,14.2-17.1
		c7.2,3.9,12.8,9.9,19.1,14.9c16.6,13.4,33.1,27,49.6,40.6c4.1,3.4,8.1,6.9,12.1,10.3C378.9,232,373.9,238.1,368.9,244.1z"/>
	<path class="st5" d="M405.6,260.2c10.8,20.5-0.8,34.1-18,37.4c3.3,3.1,6.8,6,9.7,9.2c3,3.4,5.1,7.3,4.6,12.7
		c-5.8-3.5-10.7-7.4-14.9-12.1c-0.6-0.7-0.9-1.8-0.9-2.7c0.5-9.3-5.2-15-11.6-20.3c-1.3-1-2.7-1.9-4-3.9c9.3,0,16.5-3.5,20.7-11.8
		c4.2-8.2,2.9-16-2.6-24.5c12,1.8,22.3,0.2,30.4-8.5c8.5-9.1,8.2-19.7,5.4-30.7c16.2,10.4,21.9,22.1,16.3,37.7
		C435,258.8,421.7,263,405.6,260.2z"/>
	<path class="st0" d="M564.3,442.5c3.8,3,7.3,5.6,10.6,8.3c4.5,3.6,5.9,8.5,4.9,13.9c-3.4,17.6-12.1,31.8-27.7,41.3
		c-2.4,1.5-4.8,3.2-7.4,4.1c-5,1.8-9.8,1.9-14.4-2c-25.7-21.3-51.5-42.4-77.2-63.6c-15.7-13-31.5-25.9-47.1-39
		c-2.2-1.8-4.5-3.7-5.2-7c5,4,10.1,7.8,15,11.9c21.2,17.5,42.5,35.1,63.7,52.6c11.8,9.7,23.5,19.5,35.3,29.2c4.1,3.4,8.8,4,13.5,1.7
		C549.6,483.7,562.1,467,564.3,442.5z"/>
	<path class="st2" d="M355.8,329.5c-7.7,5.5-9.8,5.4-17.4-0.7c-5.5-4.5-10.9-9.1-16.4-13.6c-0.7-2.4,1.2-3.7,2.3-5.1
		c7-8.6,14.2-17,21.3-25.6c1.1-1.4,2.3-2.9,4.4-3c5.9,4.8,11.8,9.6,17.6,14.4c6,4.9,6.5,7.2,3.5,14.5c-0.2,0.6-0.1,1.3-0.1,1.9
		C366.4,318.4,362.1,324.8,355.8,329.5z"/>
	<path class="st1" d="M355.8,329.5c5-5.9,9-12.5,15.2-17.4c13.3,11,26.7,22,40,33c1.2,1.5,0.4,3-0.4,4.1c-3.6,4.6-7.3,9-11.2,13.4
		c-0.6,0.7-1.6,1.3-2.7,0.7C383.1,352,369.4,340.7,355.8,329.5z"/>
	<path class="st6" d="M269.2,186.3c3.7,2,6.6,5,9.7,7.8c-2.7,5.2-7,9.2-10.7,13.6c-14.1,17.1-28.1,34.2-42.4,51
		c-0.9,1-1.5,2.2-2.9,2.6c-3.3-2-6.3-4.6-9-7.3c13-15.8,26-31.4,38.9-47.3C258.3,200,264.4,193.7,269.2,186.3z"/>
	<path class="st7" d="M350,281.4c-9.3,11.3-18.6,22.5-27.9,33.8c-4.7,5.6-9.5,11.2-14.2,16.8c-3.1-2.4-6.4-4.5-8.9-7.7
		c3.8-7.1,9.7-12.6,14.8-18.7c12.4-15,24.7-30.1,37.3-45c1.2-1.4,2.1-3.1,4.1-3.4c3.4,1.9,6.3,4.5,8.9,7.4
		C359.3,270.1,354.6,275.7,350,281.4z"/>
	<path class="st2" d="M396.7,363.2c5.2-5.7,11.2-10.8,14.3-18.1c2.5,0.3,2.9-2.7,4.9-3.1c1.1-0.7,2.4-0.6,3.3,0
		c5,4.1,10.9,7.2,14.6,12.8c0.2,1.4-0.3,2.6-1.2,3.7c-7.8,9.2-15.3,18.7-23.3,27.7c-0.4,0.5-1,0.9-1.7,0.9c-2.3-1.8-4.7-3.6-6.9-5.5
		C391.7,374.3,391.5,373.2,396.7,363.2z"/>
	<path class="st8" d="M549.2,451.4c-3.7-5-9.1-8.2-13.7-12.2c-13.1-11.1-26.5-22-39.8-32.9c-17.2-14.1-34.4-28.1-51.5-42.2
		c-0.5-2.5,1.2-3.5,3.1-4.3c16.3,13.4,32.7,26.8,49,40.2c16.8,13.8,33.6,27.8,50.5,41.5C550.4,444.5,551.9,447.2,549.2,451.4z"/>
	<path class="st9" d="M447.2,359.8c-1,1.4-2,2.9-3.1,4.3c-8.8,10.5-17.7,21.1-26.5,31.6c-3.3-2.8-6.7-5.6-10-8.5
		c7.5-9.2,14.9-18.3,22.3-27.5c1.1-1.4,2.2-2.9,3.3-4.4c0.4-2.3,1.7-3.7,4.1-4C440.6,354.2,443.9,357,447.2,359.8z"/>
	<path class="st10" d="M367.1,530c-11.2,0-22.3,0.1-33.5,0.1c-80.4,0-160.9,0.1-241.3,0.1c-1.5,0-3-0.1-4.5-0.2
		c8.2-1.8,8-1.8,8.2-11c0.1-7-1-14.1,0.8-21.1c0,8.5,0.4,17,0,25.4c-0.2,4.6,1.1,5.8,5.8,5.8c65.2-0.2,130.5-0.1,195.7-0.1
		c18.3,0,36.6-0.1,54.9,0.1c3.8,0,4.8-1.1,4.7-4.8c-0.2-8.5,0.1-17,0.2-25.4c1.6,7.8,0.6,15.8,0.5,23.6c-0.1,5.2,1,7.8,6.6,6.8
		C365.9,529.3,366.5,529.8,367.1,530z"/>
	<path class="st11" d="M191,291.1c-12.4,0-17.9,3.6-20.5,13c-1.1,4,0.5,7.5,1.4,11.2c-5.9-3.2-8.3-8.7-7.7-14.9
		c0.5-6.2,4.2-10.8,10.1-13.1C180.6,284.8,186.2,286.3,191,291.1z"/>
	<path class="st12" d="M322,134c-14.7-3.3-23.5,6.8-20.1,23.2c-6.3-3.4-7.7-9.1-6.8-15.6c0.8-5.9,4.3-10.1,9.9-11.9
		C311.3,127.8,317.3,128.5,322,134z"/>
	<path class="st13" d="M437.3,351.4c-1.4,1.3-2.7,2.7-4.1,4c-5.4-4.9-10.4-10.4-17.3-13.3c3.7-3.2,7.3-2,10.7,0.5
		C430.3,345.4,433.8,348.4,437.3,351.4z"/>
	<path class="st4" d="M355.1,257.1c-17,20.4-33.9,40.9-50.9,61.4c-1.7,2-2.8,4.5-5.3,5.8c-25.6-20.6-51-41.5-76-62.8
		c5.2-8.3,12.1-15.2,18.2-22.8c10.6-13.1,21.4-26,32.2-39c1.7-2,3.3-4.1,5.6-5.5C304.3,215.1,329.7,236.1,355.1,257.1z"/>
</g>
</svg>
