<?xml version="1.0" encoding="utf-8"?>
<!-- Generator: Adobe Illustrator 19.0.0, SVG Export Plug-In . SVG Version: 6.00 Build 0)  -->
<svg version="1.1" id="Calque_1" xmlns="http://www.w3.org/2000/svg" xmlns:xlink="http://www.w3.org/1999/xlink" x="0px" y="0px"
	 viewBox="0 0 612 792" style="enable-background:new 0 0 612 792;" xml:space="preserve">
<style type="text/css">
	.st0{fill:#344A5D;}
	.st1{fill:#EE5540;}
	.st2{fill:#65C4B8;}
	.st3{fill:#F16F5A;}
	.st4{fill:#415A6A;}
	.st5{fill:#65C5B8;}
	.st6{fill:#4AB9A4;}
	.st7{fill:#4AB8A4;}
	.st8{fill:#F16F59;}
	.st9{fill:#E6E8E7;}
	.st10{fill:#FDD05B;}
	.st11{fill:#FDCF5B;}
	.st12{fill:#F5B54C;}
</style>
<g>
	<path class="st0" d="M169.6,618.3c-14.5,0.1-28.9,0.2-43.4,0.2c-24.6,0-49.2,0-73.8,0c-1.8,0-3.6-0.3-5.4-0.4c0-0.7,0-1.3,0-2
		c3.1-12.4,4.7-25.1,6.9-37.7c5.5-31.6,10.6-63.3,16.3-94.9c2.5-13.9,10.3-25,23.5-30.4c17.2-7,35.2-12,53-17.2
		c2.9,1.2,0.8,2.8,0.1,3.8c-3.8,5.1-6.9,10.6-10,16.1c-2.4,4.3-2.2,4.7,2.4,6.2c3.2,1,8.2,0.4,8.6,4.5c0.4,3.5-4.3,4.6-7,6.4
		c-4.1,2.9-8.4,5.3-12.6,8.1c-2.7,1.8-3.6,3.9-2.7,7.2c6.8,24.3,15.3,47.9,25.1,71.1c7.9,18.6,17.1,36.5,26.4,54.4
		c2.2,4.2,1.8,4.7-2.9,4.7C172.5,618.7,171,618.9,169.6,618.3z"/>
	<path class="st1" d="M558.9,618.2c-14.3,0.1-28.6,0.4-42.9,0.4c-35.4,0-70.9,0-106.3,0c-13.6,0-27.3,0.3-40.9,0.4
		c-1.6,0-3.3,0.4-4.9-0.4c-1.8-2.2-1.2-4.6-0.6-7.1c2.7-11.6,14-23,29-22.8c44.2-0.2,88.4-0.1,132.6-0.1c2.4,0,5-0.4,7.1,1.6
		c11.5,0.5,20.9,7.6,25.1,18.6c0.6,1.5,0.3,3.3,1.7,4.5C558.9,614.9,558.9,616.5,558.9,618.2z"/>
	<path class="st2" d="M558.9,331.2c-10.7,20.7-21.5,41.5-32.2,62.2c-2.1,4.1-4.2,8.3-6.5,12.3c-3.4,6.1-8.6,7.9-14.2,5.2
		c-6.4-3-8.6-8.5-5.9-15.2c0.5-1.1,0.9-2.1,0.5-3.3c5.9-11.5,11.6-23.1,17.7-34.5c5.3-9.8,10.1-19.8,15.2-29.7
		c0.7-1.3,1-2.8,2.4-3.7c1.2-0.4,1.8-1.4,2.4-2.4c2.3-3.8,5.6-6.3,10.1-5.6c4.8,0.7,8.5,3.4,9.7,8.5c0.1,0.4,0.5,0.8,0.8,1.2
		C558.9,327.9,558.9,329.5,558.9,331.2z"/>
	<path class="st3" d="M168.4,417c-24.2-28.5-31.2-63.3-35.6-98.9c-2.8-23-1.3-45.8,5-68.2c5.9-21,18.7-36.4,37-47.7
		c13.4-8.2,27.9-13.2,43.6-14.6c19.9-1.7,35,7.7,48.3,20.9c22,21.9,34.2,48.2,36.3,79.4c1.8,26.1,2,51.9-5.2,77.3
		c-4.7,16.8-12.1,32.4-20.8,47.4c-1,1.7-2.2,3.3-2.5,5.4c-0.8,5.9-3.9,11.2-4.9,17.1c-1.3,5.3-2.1,10.7-3.1,16.1
		c-0.3,1.6-0.4,3.8-2.3,4c-2.1,0.2-2.8-2-3.3-3.7c-4.1-12-5-24.2-2-36.7c0.9-3.5,2-7,2.8-10.6c1.5-5,0.2-10.1,0.8-15.1
		c0.3-1.8,1.1-3.5,2-5.1c11.5-19.4,16.3-40.1,13-62.8c-3-20.5-6.4-40.8-13-60.5c-2.7-8-7.3-14.5-13.6-19.9c-4.4-3.8-6.1-3.7-9.7,1.1
		c-11.1,14.8-23.2,28.7-36.4,41.7c-12,11.8-25,22.5-39.1,31.8c-6.1,4-8.2,8.3-6.9,15.7c3,17.4,9.3,33.3,17.9,48.5
		c1.1,1.9,2.3,3.7,3,5.8c-0.6,9,2.4,16.9,6.8,24.8c2.9,5.3,4.4,11.5,4.7,17.7c0.1,2.2,0.8,5.1-1.6,6.3c-2.1,1.1-4-0.9-5.8-2.1
		c-1.7-1.1-3.2-2.3-4.8-3.6c-1.3-1.1-2.5-2.4-3.7-3.6C173.1,422.1,170,420.3,168.4,417z"/>
	<path class="st0" d="M390.8,590.1c-15.2,0.6-26.9,13-26.8,28.4c-32.1-0.1-64.1-0.1-96.2-0.2c-3.2-1.8-0.7-3.7,0.2-5.3
		c11.3-21.2,21.6-42.8,30.5-65.1c7.6-18.9,14.2-38.1,19.7-57.6c1.1-4.1,0.3-6.5-3.5-8.6c-5.1-2.8-9.7-6.4-14.7-9.4
		c-1.8-1.1-4.2-2.2-4-4.7c0.3-2.6,2.9-2.9,5-3.5c8.8-2.6,8.8-2.6,3.9-10.8c-2.7-4.6-5.4-9.2-8.6-13.5c-0.8-1-2.9-2.6,0-3.8
		c16.9,5.3,33.9,10.4,50.7,16c14,4.7,22.5,14.7,25.2,29.4c1,5.5,2,11.1,3,16.7c1.4,2,0.1,3.8-0.6,5.6c-1.4,3.7-3.6,7.1-4.2,11.1
		c-1.2,8.4,1.5,15.3,8.4,20.5c1.7,1.3,3.9,2.1,4,4.7c1.5,8.3,3,16.6,4.4,25c0.5,1.7-0.6,2.8-1.2,4.2c-3,6.4-2.2,12.2,2.9,17.3
		C389.8,587.5,391.4,588.2,390.8,590.1z"/>
	<path class="st4" d="M168.4,417c3,2,5.3,4.7,7.7,7.3c0.9,1.5,1.1,3.1,0.9,4.8c-1.8,17.7,0.5,35.1,4.3,52.3
		c2.1,9.7,4.4,19.4,6.1,29.2c7,32.5,13.4,65.1,19.4,97.9c0.6,3.2,2.2,6.4,0.2,9.7c-12.4,1.1-24.9,1.4-37.4,0.1
		c2.5-0.1,5-0.2,7.5-0.4c0.1-2.9-2.1-4.6-3.2-6.7c-18.7-35.7-34.7-72.5-46.4-111.1c-1.4-4.6-2.5-9.3-4-13.8
		c-0.9-2.8,0.6-3.9,2.5-5.2c6.4-4.2,12.8-8.3,19.2-12.5c0.8-0.5,2.1-0.7,2.1-1.9c0-1.5-1.6-1.4-2.6-1.8c-2.1-0.6-4.1-1.2-6.2-1.7
		c-6.3-1.6-6.6-2.1-3.1-7.7c3.8-6,6.8-12.6,11.6-17.9c0.6-0.6,0.4-1.2-0.3-1.6c2.3-0.5,3.9-2.1,5.6-3.7
		C157.5,427.2,163,422.1,168.4,417z"/>
	<path class="st4" d="M296.2,436.1c0.5,4.8,4.9,7.2,6.6,11.4c1.7,3.9,4,7.7,6.4,11.2c2.4,3.7,0.6,4.8-2.7,5.5
		c-2.3,0.4-4.5,1-6.7,1.7c-1.2,0.4-3,0.2-3.1,1.9c-0.1,1.2,1.3,1.8,2.2,2.5c6,3.8,11.9,7.8,18.1,11.4c2.8,1.7,4.1,3.1,3.1,6.7
		c-6.5,23.2-14.4,45.9-23.7,68.1c-7.6,18.3-16.5,36-25.2,53.7c-1.3,2.6-4.8,4.5-3.3,8.2c-0.6,0.4-1.2,0.7-1.9,1.1
		c-8.8,0.6-17.6,0-26.4,0.3c-4,0.1-3.8-2.5-3.4-5.1c1.5-9.2,3-18.4,4.8-27.5c5.5-27.4,10.8-54.8,16.6-82.1
		c5.4-23.3,10.3-46.7,11.3-70.7c1.1-5.8,2.5-11.4,5.8-16.4c5.3,4.9,10.7,9.7,15.9,14.7C292.2,434.2,294,435.3,296.2,436.1z"/>
	<path class="st5" d="M382.7,540.1c-1.1-1.6-2.8-2.2-4.3-3.2c-9-5.9-12.1-16.8-8-26.7c1.6-4,4-7.6,4.7-12
		c4.3-6.9,7.2-14.6,10.7-21.9c15.9-33,33.6-65,54-95.5c0.9-1.3,2.3-2.5,1.8-4.4c1.4-1,2.5-0.1,3.6,0.6c8.1,4.7,16.9,8.2,25.1,12.7
		c1.5,0.8,3.6,1.2,3.5,3.6c-5.3,13-10.4,26.1-15.9,39.1c-14.5,34.2-31.6,67-51,98.5c-4.6,7.5-11.8,10.4-20.6,9.1
		C385.2,539.7,383.9,538.8,382.7,540.1z"/>
	<path class="st5" d="M492.8,388.3c-2.7-1-5.3-2.1-8-3.1c-0.6,0.3-1.3,0.3-1.9-0.1c-13.2-7.1-26.6-13.9-40.1-20.7
		c-0.6-0.3-1-0.8-1.3-1.4c-2.6-1.6-5.1-3.2-7.7-4.8c-1.5-1.8-0.6-3.5,0.2-5.1c10.4-21.2,21.8-41.9,32.1-63.2
		c0.1-0.3,0.4-0.5,0.7-0.7c8.6,2.7,16.1,7.6,24.1,11.5c11.5,5.6,22.7,11.6,34.1,17.4c1.5,0.8,3,1.5,3.9,2.9
		c-11.5,20.2-21,41.4-32.1,61.8C495.8,384.9,495.4,387.4,492.8,388.3z"/>
	<path class="st2" d="M425,353.9c-1.2,0.5-1.6,1.6-2.3,2.6c-4.2,6-9.3,7.2-15,3.6c-6.1-3.8-7.5-8.7-4.1-15.3
		c12.1-23.6,24.2-47.3,36.4-70.9c3.7-7.1,8.5-9.2,14.4-6.6c7.2,3.2,9,7.7,6.1,15.7c-0.5,1.3-0.4,2.2,0.4,3.2
		c-8.7,14.6-16,29.8-23.6,45C433.4,338.9,429.4,346.5,425,353.9z"/>
	<path class="st6" d="M492.8,388.3c10-19.7,20-39.5,30.1-59.1c1.5-3,2.5-6.6,6.1-8.1c2.3,1.1,4.5,2.2,6.8,3.3
		c0.2,1.8-0.7,3.2-1.4,4.7c-10,19.6-20,39.2-30.1,58.8c-0.9,1.7-1.7,3.7-3.7,4.5C498,391.1,495.4,389.7,492.8,388.3z"/>
	<path class="st7" d="M425,353.9c0.2-4,2.7-7.1,4.4-10.4c9.1-17.8,18.4-35.6,27.6-53.3c0.9-1.7,1.3-3.9,3.9-3.9c2,1,4,2,6,3
		c0.2,2.1-0.9,3.8-1.8,5.6c-9.7,19.1-19.4,38.2-29.1,57.3c-1,1.9-2.3,3.7-2,6.1C430.9,356.8,427.9,355.4,425,353.9z"/>
	<path class="st6" d="M441.6,363c8.1,3.4,16,7,23.5,11.4c6.5,3.8,13.7,6.2,19.7,10.8c1.5,3.1,1.5,6.2-1.3,8.5
		c-3.2,2.6-6.5,1.4-9.6-0.6c-4.9-3.4-10.4-5.7-15.7-8.2c-5.7-2.6-11-5.8-16.6-8.6c-3.6-0.9-5.8-3-5.7-6.9
		C436,365.7,438.2,363.8,441.6,363z"/>
	<path class="st8" d="M390.8,590.1c-1.5-1.5-3.1-2.9-4.5-4.5c-4.8-5.8-4.5-12.9,0.9-20.6c3.6-3,7.8-3.9,12.5-3.9
		c40.7,0.1,81.3,0.1,122,0c7.7,0,14,1.7,17,9.4c2.9,7.5,0.3,13.6-5.9,18.5c-0.4,0.3-0.5,0.8-0.7,1.2
		C484.9,590.1,437.8,590.1,390.8,590.1z"/>
	<path class="st9" d="M254.2,620.3c-10,1.1-19.7-1.7-29.6-2c-5.9-0.2-11.8,0.8-17.7-0.1c-6.1-35.9-13.7-71.4-20.7-107.1
		c2.3-1.1,3.7,0.7,5.4,1.6c18,9,36.1,9.1,54.4,1c3.3-1.4,5.8-3.8,8.6-5.9c1.3-0.9,2.1-2.7,4.1-2.4c-4.1,20.3-8.2,40.7-12.2,61
		c-3.2,16.5-6.2,33-9.3,49.4c-0.6,3,0.3,3.8,3.2,3.8c8.5-0.2,17-0.1,25.5-0.2"/>
	<path class="st10" d="M178.9,385.2c-11.7-17.7-19.1-37.2-21.9-58.2c-0.5-4,0.2-7.1,4.1-9.7c17.5-11.9,34-25,48.7-40.3
		c11.2-11.7,21.7-23.8,31.3-36.9c3.5-4.7,5-5.1,9.7-1.3c6,4.9,11.1,10.6,13.8,18c6,16.4,9.9,33.4,12.4,50.7c1.4,9.5,2.6,19,3,28.7
		c0.7,16.8-5.3,31.6-12.7,46.1c-1.1,2.1-2.4,4-3.5,6c-21,18.9-46.5,23.6-72.8,7.2C186.5,392.6,181.6,390.1,178.9,385.2z"/>
	<path class="st11" d="M258.8,505.4c-8.2,9.3-18.9,13.5-30.9,14.9c-15,1.8-28.9-1-41.7-9.1c-3.7-18.3-8.7-36.4-10.6-55.1
		c-1.1-10.6-1-21.2,0.4-31.7c1.3,0.6,2.2,1.6,2.9,2.8c1.8,2.9,1.2,6.1,1.2,9.3c0,3.2,1.3,4.3,4.3,3.3c25.7-8.3,50.5-18.1,69.3-38.7
		c2.1-2.4,3.9-4.9,5.7-7.6c0.7-1.1,1.6-2.5,3.1-2.1c1.4,0.4,0.8,2,0.8,3.1c-0.1,3.3,0.5,6.6-0.4,9.9c0.2,2.2-0.6,4.3-1.3,6.3
		c-5.2,14.8-3.1,32.8,2.6,44.4c2-7.1,2-14.2,4.5-20.6c1.6,16.9-1.6,33.4-5.2,49.7C262,491.2,260.4,498.3,258.8,505.4z"/>
	<path class="st12" d="M263,404.3c0-4.1,0-8.1,0-12.2c-7.9,11.1-17.3,20.1-28.5,27c-16.2,10-33.5,17.5-51.8,22.4
		c-3.2,0.9-3.8-0.1-3.8-2.9c0.1-3.8,0.1-7.6,0.1-11.5c3.7,1.6,6.2,5.4,10.7,6.4c0.9-9.5-1-18.5-6-25.8c-4.9-7.3-5-14.7-4.9-22.5
		c9.8,7.5,19.9,14.2,32.1,17.3c15.1,3.8,28.5,0.1,41.4-7.3c3.9-2.2,6.8-5.8,11.3-7.1C263.5,393.5,264.8,399,263,404.3z"/>
</g>
</svg>
