<?xml version="1.0" encoding="utf-8"?>
<!-- Generator: Adobe Illustrator 19.0.0, SVG Export Plug-In . SVG Version: 6.00 Build 0)  -->
<svg version="1.1" id="Calque_1" xmlns="http://www.w3.org/2000/svg" xmlns:xlink="http://www.w3.org/1999/xlink" x="0px" y="0px"
	 viewBox="0 0 612 792" style="enable-background:new 0 0 612 792;" xml:space="preserve">
<style type="text/css">
	.st0{fill:#858687;}
	.st1{fill:#494B4C;}
</style>
<g>
	<path class="st0" d="M38.8,492.4c0,4.4,0.1,8.9,0.1,13.3c0,0-0.4-0.1-0.4-0.1l-0.5,0c0-4.3,0-8.7,0-13
		C38.2,492.4,38.5,492.3,38.8,492.4z"/>
	<path class="st1" d="M462.3,291.4c-7.8-11.5-22.6-15.9-36.4-10.6c-3.2,1.3-4.9,0.8-7.1-1.6c-37.5-39.8-75-79.4-112.7-119.1
		c-1.9-2.1-2.4-3.7-1.7-6.6c4.6-17.4-5.5-34-22.9-38.1c-0.7-0.2-1.3-0.2-1.6-0.9c-3.7,0-7.3,0-11,0c-10.4,2.7-17.8,9.8-24.8,17.4
		c-2.5,2.7-5.1,5.2-7.7,7.8c-28.8,29.1-57.7,58.2-86.5,87.4c-11,11.2-12.5,28-3.9,40.3c8.4,11.9,24.7,17.6,37.9,10.3
		c2.3-1.3,3.5-0.4,5,1.2c8.5,9.1,17,18.3,25.8,27.2c2.3,2.4,1.8,3.5-0.3,5.4c-7.3,6.8-14.5,13.8-21.7,20.7
		c-46.8,45-93.6,90.1-140.5,135.1c-7.2,6.9-12.3,14.8-13.5,24.9c-0.5,4.4-0.6,8.9,0.1,13.3c2.8,16,12.1,27,27,32.6
		c15.1,5.6,29.2,2.4,41.4-8.3c4-3.5,7.7-7.3,11.6-11c50.7-48.7,101.3-97.5,151.9-146.3c2.6-2.5,4.1-3.1,6.8,0
		c7.9,8.8,16,17.4,24.3,25.8c2.4,2.5,2.8,4.6,1.9,7.8c-3.5,12.7,2.6,26.9,14.2,33.9c11.7,7,27.1,5.9,36.5-3.5
		c35.1-35.1,70.1-70.3,104.9-105.7C469.9,320.3,470.8,303.8,462.3,291.4z M179.9,256.9c-4.9,5-11.5,5.1-16,0.6
		c-4.4-4.4-4.2-11,0.7-16c33.9-34.2,67.8-68.3,101.7-102.5c3.7-3.7,8-4.9,12.7-2.9c4.2,1.8,6.2,5.3,6.4,9.9c0,3.4-1.4,6.1-3.8,8.4
		C247.7,188.6,213.8,222.8,179.9,256.9z M212.3,400.7c-39.4,37.8-78.7,75.7-118,113.6c-4.1,4-9.1,5.9-13.7,6.3
		c-9.2,0-17.2-5.6-20.6-13.4c-3.4-8-1.8-16.7,4.7-23c16.3-15.9,32.8-31.7,49.2-47.5c22.9-22.1,45.9-44,68.7-66.2
		c2.8-2.7,4-2.5,6.5,0.2c7.6,8.4,15.4,16.6,23.3,24.7C214.6,397.5,214.4,398.6,212.3,400.7z M258,357c-8.7,8.2-17.4,16.5-25.9,24.9
		c-1.8,1.8-2.8,1.5-4.4-0.1c-8.3-8.9-16.7-17.7-25-26.5c-1.1-1.2-1.9-2-0.3-3.6c9.1-8.6,18-17.3,27-25.9c0.5-0.5,1-0.8,1.4-1.2
		c1.4-0.1,1.9,0.9,2.5,1.6c8.3,8.7,16.4,17.4,24.8,26.1C260,354.1,260,355.2,258,357z M317.1,385.8c-0.6-0.9-1-1.9-1.6-2.6
		C278.5,344.1,241.6,305,204.6,266c-2.1-2.2-1.5-3.3,0.3-5.1c28-28.1,55.9-56.2,83.8-84.4c2.1-2.1,3.1-1.9,5,0.2
		c36.8,39,73.7,77.9,110.6,116.8c1.9,2,2,3.1,0,5.2c-28.1,28.2-56.1,56.4-84.2,84.7C319.3,384,318.5,384.6,317.1,385.8z
		 M445.8,315.7c-0.8,1.2-1.9,2.3-3,3.3c-33.1,33.4-66.2,66.7-99.2,100.1c-2.8,2.8-5.7,5.1-10.5,5.2c-7.6-0.1-12.4-8.8-8.3-16.2
		c0.9-1.7,2.4-3.2,3.7-4.6c32.7-33,65.4-66,98.2-99c1.4-1.4,2.8-2.9,4.5-3.9c4.5-2.9,9.5-2.3,13.2,1.5
		C448.2,305.7,448.8,311.4,445.8,315.7z"/>
	<path class="st1" d="M550,606.6c-6.3-1-12.6-0.4-18.9-0.3c-3.5,0-5-1.2-6-4.4c-4.2-13.1-8.6-26.2-13-39.2c-3.8-11.3-13-18-24.9-18
		c-73.8,0-147.6,0-221.3,0c-13.8,0-22.5,6.5-26.9,19.5c-4.1,12.5-8.3,24.9-12.2,37.4c-1.1,3.7-2.9,5-6.7,4.7
		c-4.6-0.4-9.3-0.1-14-0.2c-3-0.1-4.5,0.6-4.3,4.1c0.3,5.5,0.2,11,0.2,16.5c114.5,0,229,0,343.5,0c0.8,0,1.7-0.1,2.5,0
		c1.8,0.4,2.1-0.4,2-2.1C549.9,618.6,550,612.6,550,606.6z M501.1,606.3c-30.7-0.1-61.3-0.1-92-0.1c-11,0-22,0-33,0c0,0,0,0,0,0.1
		c-41.2,0-82.3,0-123.5,0c-6,0-6,0-4-5.8c3.2-9.8,6.6-19.5,9.7-29.4c1.3-4.2,3.5-5.8,7.9-5.8c66,0.1,132,0.1,198,0
		c7.3,0,14.7,0.1,22,0c3.7-0.1,5.8,1.4,7,5c3.4,10.8,7.1,21.5,10.8,32.1C505,605.4,504.5,606.3,501.1,606.3z"/>
</g>
</svg>
