<?xml version="1.0" encoding="utf-8"?>
<!-- Generator: Adobe Illustrator 19.0.0, SVG Export Plug-In . SVG Version: 6.00 Build 0)  -->
<svg version="1.1" id="Calque_1" xmlns="http://www.w3.org/2000/svg" xmlns:xlink="http://www.w3.org/1999/xlink" x="0px" y="0px"
	 viewBox="0 0 612 792" style="enable-background:new 0 0 612 792;" xml:space="preserve">
<style type="text/css">
	.st0{fill:#018BC8;}
	.st1{fill:#007299;}
	.st2{fill:#333333;}
	.st3{fill:#FBCC99;}
	.st4{fill:#EB8245;}
	.st5{fill:#7F8081;}
	.st6{fill:#414042;}
	.st7{fill:#FACB99;}
	.st8{fill:#027298;}
	.st9{fill:#F7CA98;}
	.st10{fill:#017197;}
	.st11{fill:#D8A963;}
	.st12{fill:#A2A83B;}
	.st13{fill:#A3A83A;}
	.st14{fill:#808081;}
	.st15{fill:#C8B424;}
	.st16{fill:#F8CA98;}
	.st17{fill:#EDEDED;}
	.st18{fill:#C62B2D;}
	.st19{fill:#047296;}
	.st20{fill:#DD2E29;}
</style>
<g>
	<path class="st0" d="M39.9,404.5c0-13.3,0-26.7,0-40c1-7.4,1-14.8,1.6-22.2c0.9-11.2,3.8-21.9,7-32.6
		c10.7-35.4,28.2-67.1,52.6-94.9c20.6-23.4,44.4-42.9,72.1-57.7c23.1-12.3,47.3-21.3,73-26c8.5-1.6,17.2-1.5,25.8-2.1
		c1.3-0.1,2.7,0.4,3.9-0.5c13,0,26,0,39,0c7.6,0.9,15.2,1,22.7,1.6c11.4,0.9,22.3,3.8,33.1,7.1c35.4,10.7,67.1,28.2,94.9,52.6
		c23.4,20.6,42.9,44.5,57.7,72.1c12.3,23.1,21.4,47.3,26.1,73c1.5,8.5,1.5,17.2,2.1,25.8c0.1,1.6-0.5,3.3,0.5,4.9
		c0,12.7,0,25.3,0,38c-1,6.7-0.7,13.5-1.5,20.3c-0.1,1.3,0,2.7-1.1,3.7c-1.6,0.9-2.5,0-3.2-1.2c-2-3.4-5-5.8-7.7-8.5
		c-39.1-40.4-79-80.1-118.8-119.9c-2.9-2.9-4.8-6.8-8.7-8.9c-0.6-0.4-1.3-0.7-1.9-1.1c-1.5-0.7-3.2-1.1-4.8-0.9
		c-10.3,1.4-20.6,2.3-30.6,5c-1.7,0.5-3.4,1.2-4.9,2.3c-2.7,1.8-3.2,5.6-6.4,7c-2.6,0.3-4.4-1.3-6-2.9c-11.9-12.5-25-23.8-36.1-37
		c-1.3-1.6-3.1-2.5-4.8-3.5c-1.4-1-2.3-2.4-3.3-3.7c-9.7-11.7-27.3-10.6-35.5,6.5c-0.9,1.9-1.9,3.9-1.7,6.2
		c-0.8,10.4,3.5,19.3,7.9,28.2c-0.5,2,0.5,3.8,0.7,5.8c-0.2,3.5,1.6,7-0.3,10.4c-1.6,2-4,2.2-6.3,2.3c-4,0.1-8,0-12,0.1
		c-8.5,0.2-12.8,3.4-15.2,11.6c-4.7,16.1-9.2,32.3-13.6,48.4c-1.4,4.9-3.8,9.7-2.6,15c0,1.5,0.8,3,0.4,4.3c-1.4,4,0.6,6.8,3.1,9.5
		c1.8,3.1,4.3,5.5,7,7.7c3.7,3,5.7,6.5,5.6,11.5c-0.2,8.1-0.8,16.3,1.5,24.3c0.2,3.7,3.3,5.6,5.1,8.3c0.7,1.2,1.9,1.9,2.9,2.7
		c4.3,3.6,6.8,7.8,6.5,13.7c-0.4,10.8-0.1,21.6-0.1,32.4c0,4.8-0.3,9.7,1.6,14.2c0.1,2.4,1.7,4,2.8,5.9c1,3.3,4.2,4.6,6.4,6.7
		c30.9,31,61.9,61.9,92.7,92.9c1.9,1.9,5.6,2.9,5.2,6.7c-0.8,1.5-2.2,1.8-3.7,2.3c-13.8,4.4-27.8,7.1-42.3,7.6
		c-4.7,0.2-9.5,0-14.2,0.9c-12.7,0-25.3,0-38,0c-7.4-1-14.8-1-22.2-1.6c-11.2-0.9-21.9-3.8-32.6-7c-35.4-10.7-67.1-28.2-94.9-52.6
		c-23.4-20.6-42.8-44.5-57.7-72.1c-12.4-23.1-21.3-47.3-26.1-73c-1.6-8.5-1.5-17.2-2.1-25.8C40.3,407.1,40.8,405.7,39.9,404.5z"/>
	<path class="st1" d="M548,427.6c-2.6,19.5-8.3,38.2-16.1,56.2c-30.9,70.8-82.9,118.8-155.8,144.3c-0.8,0.3-1.6,0.3-2.4,0.5
		c-2.2,0-3.6-1.4-5.1-2.9c-32.7-32.7-65.5-65.5-98.2-98.2c-0.9-0.9-1.6-2.1-2.4-3.2c1.1-1.9,2.9-1.9,4.7-2c1.8-0.1,3.6-0.1,5.4-0.1
		c8.2-0.1,9.2-1.1,8.9-9.1c1.3-2.7,0.4-5.6,0.4-8.4c-0.1-16.7-0.6-33.3,0.2-50c0.4-10.2,0.4-20.3,0.6-30.4c0.1-5.8,1.1-6.9,7.1-7
		c1.7,0,3.3,0,5,0.3c2.4,0.4,3.8,1.9,3.9,4.4c0,0.5,0,1,0,1.5c-0.1,25.5,1.4,50.9,0.9,76.4c-0.1,4-1.3,7.9-0.1,11.9
		c0.5,10.4,0.5,10.5,9.6,10.5c10,0,10.3-0.3,10.7-10.2c1.2-2.3,0.2-4.6,0.2-6.9c-0.2-15.5-0.3-31,0-46.5c0-1.2,0.2-2.3,0.8-3.4
		c1.3-3.2,4.1-2.9,6.8-3c8.9-0.5,9.6-0.9,12.2-9.4c9.2-30.2,18.4-60.4,27.5-90.6c0.6-1.9,0.6-4,1.4-5.8c3.3-3.2,7.3-5.7,9.3-10.1
		c4.2-1.8,8.9-0.7,13.2-2.1c1.2-0.4,3-0.4,3.1-1.9c0.2-2-1.8-2-3.2-2.3c-7.2-1.8-7.4-2-7.4-9.3c0-8.3,0-16.6,0-24.9
		c0-2.1,0-4.3,2-5.3c5.3-2.6,10.8-4.7,17-2.9c1.3,2.5-0.2,4.4-1.3,6.3c-1.8,2.9-3.3,6-4.8,9c-1.9,4.1-1.5,5,2.6,5.3
		c2.3,0.2,4.6,0.1,6.9,0.1c5.4-0.2,5.9-0.9,4.3-6.3c-1.4-3.3-3.3-6.5-4.3-9.9c-0.4-1.5-1.4-3.1,0.2-4.5
		c11.7,11.6,23.5,23.1,35.2,34.7c22.5,22.4,45.1,44.7,67.3,67.5c10.3,10.6,20.7,21.2,31.1,31.7C547.2,423.2,548.1,425.2,548,427.6z"
		/>
	<path class="st2" d="M253.9,454.6c-2.3-2-4.5-4-5.2-7.1c-0.6-5-0.6-10-0.2-14.9c0.9-11.5-2.7-22.7-2.1-34.1c0.1-1.6-0.1-3.4-2.2-4
		c-4.3-0.9-9-0.8-11.9-4.9c-1.9-1.5-2.3-3.3-1.6-5.7c5.8-20.3,11.4-40.6,17.3-60.8c2.1-7.4,7.9-11.5,15.6-11.6
		c6-0.1,12-0.1,17.9-0.1c0.6,0.2,1.1,0.6,1.5,1.1c2.3,5.9,1.9,12.2,2.1,18.2c0.7,22.9,2.1,45.7,2.9,68.6c0.6,12.3,0.6,24.6,0.5,36.9
		c0,3.6,0.9,7.2,0.3,10.9c-1,5.6-4.6,9.2-10.3,9.6c-4.5,0.3-9,0.2-13.4-0.1C261,457,257.3,456.7,253.9,454.6z"/>
	<path class="st1" d="M316.9,256.6c7,5.6,12.9,12.5,19.3,18.7c8.6,8.3,17.1,16.8,25.6,25.2c1.8,4.3-2.4,6.5-3.4,9.8
		c-1.6,3.1-0.5,4.7,2.8,4.9c2.5,0.2,4.9,0.1,7.4,0.1c5.8-0.2,6.2-0.8,4.3-6.5c-1.4-3.3-2.9-6.6-4.1-9.9c-0.7-1.9-2.3-4.3,0.5-6.1
		c4.3-0.6,8.4-2.1,12.7-2.3c5.6-0.2,7.3,1.3,7.3,6.8c0,8.6-0.1,17.3,0.1,25.9c0.1,4.1-1.8,6.1-5.8,6.6c-4,0.5-8.1,1-9.8,5.5
		c-0.3,0.5-0.8,0.9-1.3,1.1c-6.1,0.3-11.4,3.2-17.1,5c-5.1,1.6-7.2,0.5-9.1-4.5c-1.8-4.8-2.5-9.9-4.3-14.8c-2.1-5.7-5-7.9-11.1-8.2
		c-5.1-0.2-10.3,0-15.4-0.1c-1.9,0-4,0.3-5.6-1.4c-2.3-3.6-0.9-7.6-0.8-11.4c0-1.4,0.3-2.8,0-4.3c0.3-3.5,2.9-5.9,4.4-8.8
		c3.5-6.9,4.4-14.2,4.2-21.8C317.8,262.9,314,260,316.9,256.6z"/>
	<path class="st3" d="M319.7,265.6c1.8,11.6-2.1,21.6-8.9,30.8c-2.8,6.5-8.3,8.9-14.7,8.9c-6.7,0-12.1-3.1-14.9-9.6
		c-6.1-8.8-10.2-18.2-8.2-29.2c1.2-1.4,2.6-1.9,4.4-1.7c7.6,0.7,14.8-0.7,21.7-4c3.3-1.6,6.3-1.9,9.4,0
		C312,262.7,316.7,262.2,319.7,265.6z"/>
	<path class="st4" d="M319.7,265.6c-0.7,0-1.3-0.1-2-0.1c-5.3,0.1-9.8-4.4-14.5-3.8c-4.8,0.6-9.2,4-14.4,4.9
		c-5.3,0.9-10.5,0.9-15.8-0.1c1.1-10.3,6.6-17.4,16.1-20.8c8.9-3.3,17-0.9,23.6,6c1.5,1.5,2.8,3.3,4.2,4.9
		C317.7,259.6,319.7,262.3,319.7,265.6z"/>
	<path class="st5" d="M372.8,335.2c-1.6-4.9,1.8-5.7,5.2-7c3-1.1,7.1,0.6,8.9-2.2c2-3.1,0.7-7.1,0.8-10.7c0.1-6-0.1-12,0.1-17.9
		c0.1-3.5-1.3-4.9-4.7-4.6c-4.8,0.3-9.6,0.5-14.4,0.8c-0.7,0.5-1.3,0.5-1.8-0.3c14.1-6.2,28.7-9,44.1-6.8c-0.8,0.8-0.8,2.9-2.8,1.8
		c-5.8-0.7-10.7,2.5-16,4.1c-1.5,0.4-1.2,2.2-1.2,3.5c0,9,0.1,18-0.1,26.9c0,3,1.3,4.1,4,4.5c2.3,0.3,4.6,0.8,6.8,1.4
		c1.7,0.5,3.8,1.5,3.9,3.4c0.1,2.2-2.2,2.7-3.9,3.3c-5.7,2.2-11.7,2-17.7,2.1C379.6,339.5,375.9,338.7,372.8,335.2z"/>
	<path class="st6" d="M289.7,514.3c0.5,8.4-1.2,10.3-9.7,10.2c-4,0-7.9-0.1-11.9-0.2c-1.6-1.4-3.1-2.7-3.5-4.9
		c-0.4-1.9-0.2-3.8-0.1-5.8c2.3-10.4,7.7-11.3,17-9.9C287,504.6,289,509.2,289.7,514.3z"/>
	<path class="st7" d="M310.8,300.4c0.7,3.9-0.6,8,0.8,11.8c-0.1,0.5-0.3,1-0.7,1.3c-3.1,2.3-6.6,3.4-10.4,3.5
		c-2.8-0.7-5.3,0.5-7.9,1.3c-3.8-1.4-8.1-2.1-10.6-5.9c-0.2-0.3-0.4-0.7-0.6-1c0.1-3.7,0.2-7.3,0.4-11c2.2-1.3,3.4,0.9,4.8,1.8
		c7,4.5,13.6,4.5,20.2-0.6C307.9,300.6,309.1,299.5,310.8,300.4z"/>
	<path class="st8" d="M244.4,392.7c3-1,4.4-0.4,4.4,3.3c-0.2,17.2-0.1,34.3-0.1,51.5c-1.9-7.4-0.8-14.9-0.7-22.3
		c0.1-6-1-10.6-6.5-13.9c-3-1.8-4.7-5.1-6.7-8C239.4,401.1,240.3,395.5,244.4,392.7z"/>
	<path class="st9" d="M244.4,392.7c-2.1,9.4-3.1,10.4-9.6,10.6c-6.5-3.5-3.6-8.8-2.5-13.7C236.3,390.7,240.3,391.7,244.4,392.7z"/>
	<path class="st10" d="M265,513.6c-0.1,1.9-0.3,3.9-0.4,5.8c-1-1.5-0.7-3.2-0.7-4.9c0-13.8-0.2-27.5,0.1-41.3
		c0.2-5.8-1.2-10.3-5.8-13.9c-1.7-1.3-3-3.1-4.4-4.7c3.6,0,7.2,0.1,10.9,0.1c2.2,1.3,2.4,3.5,2.4,5.7c0.2,14.7,0.2,29.3,0,44
		C267.1,507.6,265.8,510.6,265,513.6z"/>
	<path class="st11" d="M310.8,300.4c-0.3,0.2-0.6,0.3-0.9,0.5c-11.5,9.9-18,7.2-28.2-0.5c-0.9-1.5-0.6-3.1-0.6-4.7
		c4.6,4,8.8,8.4,15.9,7.9c5.9-0.4,9.7-3.9,13.7-7.2C310.8,297.7,310.8,299.1,310.8,300.4z"/>
	<path class="st12" d="M408,288.2c0.9-0.7,1.4-1.9,2.8-1.8c0.3,0.4,0.7,0.7,1,1.1c1.9,4.7,3.8,9.4,5.7,14.1
		c-0.2,0.7-0.6,1.3-1.4,1.3c-4.3-1.3-3.5-6.4-6.5-8.7c-3.6,2.8-3.2,7.2-4.3,10.9c-3.1,1.1-5.4,1.1-4.6-3.3
		C403.2,297.4,405.6,292.8,408,288.2z"/>
	<path class="st13" d="M366.8,293.2c0.6,0.1,1.2,0.2,1.8,0.3c2,5,4.1,10.1,6.1,15.1c-0.2,0.7-0.6,1.3-1.4,1.3
		c-4.2-1.3-3.7-5.9-6.3-8.7c-3.6,2.2-3.6,8.3-8.7,9c-0.5-0.1-0.9-0.3-1.2-0.7c1.6-3,3.2-6,4.8-9
		C363.5,298.1,365.1,295.7,366.8,293.2z"/>
	<path class="st2" d="M311.6,312.2c7.6-1.1,15.2-0.9,22.8-0.4c4.8,0.3,8.1,3.5,9.6,8.3c1.5,4.9,2.8,9.9,4.2,14.8
		c1.8,6.1,1.8,6,7.5,3.9c3.4-1.3,6.8-2.5,10.3-3.8c2.1-0.8,4.2-1.1,6.1,0.5c4,2.6,5.5,6.2,4.1,10.9c-0.3,8.3-3.8,15.8-6.1,23.5
		c-7.6,25.6-15.4,51.2-23.1,76.8c-1.8,5.8-4.5,7.8-10.5,8c-2.8,0.1-5.6,0.2-8.5,0.3c-6.6,2.7-13.1,2.8-19.6-0.3
		c-2.6-1.3-3.9-3.6-3.9-6.5c0-16.3-0.4-32.5,0.7-48.8c1-9.6,0.7-19.3,1.2-28.9c0.9-17.1,1.5-34.2,2.3-51.3c0.1-2.5,0.1-5,2.3-6.8
		C311.1,312.4,311.4,312.3,311.6,312.2z"/>
	<path class="st14" d="M306.9,399.6c0.5,13.3-1,26.4-1.2,39.7c-0.2,13.4,1.6,15.5,15.3,15.5c2.3,0,4.6,0.2,6.9,0.3
		c-0.1,19.6-0.1,39.1-0.2,58.7c-1.7,0.4-2.8-0.7-3.9-1.7c-6.3-6-10.9-5.9-17.4,0.3c-1,0.9-1.9,1.9-3.5,1.3
		c-0.1-29.1-0.1-58.2-0.2-87.4c0-2.1,1.3-5.3-1.4-6.2c-3.2-1.1-7-1-10.3,0c-2,0.6-1.2,3.2-1.2,4.9c0,27.6,0,55.3,0,82.9
		c0,2.2-0.1,4.3-0.1,6.5c-2.5-4.9-5.7-8.8-11.9-9c-6.4-0.3-10.1,3.1-12.8,8.3c-0.1-19.6-0.2-39.2-0.2-58.8c3.5-0.1,7-0.1,10.4-0.2
		c9.2-0.1,12.7-4.3,12.3-13.3c-0.8-13.9-1-27.8-1.5-41.7C290.5,396.2,302.7,396.2,306.9,399.6z"/>
	<path class="st6" d="M303,513.6c5.1-11.3,19.7-11.2,24.7,0.2c0.6,9.1-1,10.8-9.7,10.8c-1.5,0-3,0-4.5,0
		C303.6,524.5,302.4,523.3,303,513.6z"/>
	<path class="st15" d="M416.9,302.6c0.3-0.3,0.5-0.6,0.8-1c0.2,0.5,0.3,0.9,0.6,1.4c3.4,5.9,2.9,6.8-4,7.5
		c-4.4,0.4-8.9,0.6-13.3-0.4c-4.7-1.1-5-2.2-1.8-5.8c0.6-0.7,1.2-1.6,1.7-2.4c0.6,3.8,2.9,2.7,5.1,1.7
		C409.2,299.2,413.1,302.2,416.9,302.6z"/>
	<path class="st16" d="M376.1,346.4c-1.4-3.6-2.7-7.3-4.1-10.9c0.3,0,0.5-0.1,0.8-0.2c3.9-0.3,7.4,1.3,11.1,2.3
		C384.8,343.6,380.3,344.8,376.1,346.4z"/>
	<path class="st17" d="M306.9,399.6c-7,0-14,0-21,0c-1.5-8.6-1-17.2-1.4-25.9c-1-20.4-1.7-40.8-2.5-61.3c3.6,1.5,8.4,0.6,10.7,4.9
		c1.2,0.4,1.7,1.4,1.8,2.6c1.2,7.9,1.1,15.9,0.1,23.8c-0.4,3.2-0.5,6.3-0.1,9.4c0.1,1,0.5,2.1,1.7,2.2c1.5,0.1,1.8-1.1,2.1-2.3
		c0.3-1.1,0.3-2.3,0.1-3.5c-1.6-9.2,0-18.6-1.3-27.8c-0.1-0.5,0.1-1,0.2-1.5c-0.1-2.2,0.5-4,2.8-4.9c3.6-1,7.3-2,10.9-3
		c-1.1,28.4-2.3,56.8-3.5,85.2C307.4,398.3,307.1,398.9,306.9,399.6z"/>
	<path class="st15" d="M373.8,309.6c0.3-0.3,0.6-0.7,0.8-1c0.1,0.3,0.3,0.6,0.4,0.9c0.3,2.1,4,3,2.7,5.3c-1.4,2.4-4.5,2.5-7.1,2.7
		c-3.3,0.2-6.6,0.2-9.9,0c-2.6-0.2-5.8-0.1-6.9-2.9c-0.9-2.3,2.5-3.1,3.2-5.1c0.4,0,0.8,0,1.2,0C363.4,308,368.6,307.6,373.8,309.6z
		"/>
	<path class="st18" d="M300,315.4c-0.4,1.7-0.7,3.4-1.1,5.1c-1.9,1.6-3.7,2.1-5.5,0c-0.2-1.1-0.5-2.1-0.7-3.2
		C294.1,312.6,297.3,315.1,300,315.4z"/>
	<path class="st19" d="M416.9,302.6c-0.9,2.9-3,0.7-4.5,0.9c-2.1,0.3-4.3,0.1-6.4,0.2c-3.1,0.2-4.8-0.3-2.5-3.9
		c2.2-3.4,4.1-7.1,6.5-11.4C412.5,293.6,414.7,298.1,416.9,302.6z"/>
	<path class="st19" d="M373.8,309.6c-5.2,1.3-10.5,1.4-15.7-0.1c2.9-4.5,5.9-9.1,9.1-14C369.6,300.5,371.7,305.1,373.8,309.6z"/>
	<path class="st20" d="M293.4,320.5c1.8,0,3.7,0,5.5,0c1.6,10.9,0.8,21.9,1.8,32.8c0.3,3.4-2.7,5.1-4,8c-3.6-3.1-5.1-6.4-4.8-11
		C292.7,340.5,292.9,330.5,293.4,320.5z"/>
</g>
</svg>
