<?xml version="1.0" encoding="utf-8"?>
<!-- Generator: Adobe Illustrator 19.0.0, SVG Export Plug-In . SVG Version: 6.00 Build 0)  -->
<svg version="1.1" id="Calque_1" xmlns="http://www.w3.org/2000/svg" xmlns:xlink="http://www.w3.org/1999/xlink" x="0px" y="0px"
	 viewBox="0 0 612 792" style="enable-background:new 0 0 612 792;" xml:space="preserve">
<style type="text/css">
	.st0{fill:#D4D7B6;}
	.st1{fill:#414042;}
	.st2{fill:#C2996B;}
	.st3{fill:#5C4D43;}
	.st4{fill:#594A42;}
	.st5{fill:#A78460;}
	.st6{fill:#929497;}
	.st7{fill:#A78461;}
	.st8{fill:#4C3A2E;}
	.st9{fill:#706456;}
	.st10{fill:#F8F8F8;}
	.st11{fill:#F6F6F6;}
	.st12{fill:#BC9569;}
	.st13{fill:#D5D7B7;}
	.st14{fill:#D4D7B7;}
</style>
<g>
	<path class="st0" d="M321,664.8c-10.3,0-20.7,0-31,0c-7.2-1-14.5-0.9-21.8-1.4c-13.8-0.9-26.9-4.4-39.9-8.5
		c-27.3-8.7-52.7-21.4-75.7-38.6c-30.3-22.6-54.7-50.4-72.9-83.6c-13.7-25-23.4-51.5-27.7-79.7c-1.3-8.5-1.6-17.2-1.5-25.8
		c0-0.8,0.1-1.7-0.5-2.4c0-10.3,0-20.7,0-31c1-7.2,1-14.5,1.3-21.8c0.5-9.9,2.6-19.5,5.1-28.9c10.5-39.1,28.7-74.2,55.7-104.5
		c39.2-44,87.7-72.1,145.7-83.3c8.7-1.7,17.5-1.5,26.3-2.1c2.3-0.1,4.6,0.5,6.9-0.5c10.3,0,20.7,0,31,0c6.9,1,13.8,0.9,20.8,1.3
		c12.6,0.7,24.7,3.7,36.6,7.4c39.4,11.9,74,31.8,104,60.2c20.3,19.2,37,41,50.1,65.5c13.1,24.4,22.4,50.1,26.6,77.5
		c1.1,7.5,1.3,15.2,1.5,22.8c0,1.8-0.6,3.6,0.5,5.4c0,10.7,0,21.3,0,32c-0.9,8.9-0.6,17.9-1.8,26.7c-3.2,23-10.6,44.6-20.1,65.7
		c-14.5,32.1-35.3,59.6-61.3,83c-37.1,33.6-80.4,54.8-130,62.7c-7.4,1.2-14.9,1.4-22.4,1.4C324.6,664.4,322.7,663.8,321,664.8z"/>
	<path class="st1" d="M277.9,442.9c-0.5,11.8-6,21.4-14.5,29.1C249,485,232,488.9,213.4,483c-18.3-5.7-29.7-18.2-33.7-37.2
		c-0.3-1.3-0.7-3.3,1-3.3c3.3-0.1,6.2-1.9,9.7-1.8c25.6,0.9,51.3,1,76.9,0C271.1,440.6,274.4,442.3,277.9,442.9z"/>
	<path class="st1" d="M432.2,418.8c-4.3,22.8-23.9,39.1-47.8,39.8c-23.5,0.7-44.5-15.1-49.8-37.4c-0.4-1.8-0.8-3.6-0.5-5.4
		c5.2-1.8,10.6-1.7,16.1-1.6c22.1,0.3,44.3,0.2,66.5,0c4.6,0,9.1-0.4,13.7,1C432.7,415.9,432.7,417,432.2,418.8z"/>
	<path class="st2" d="M292,511.7c0-58.4,0.1-116.9,0.1-175.3c0-1.6,0.3-3.4-1-4.7c0-0.3,0-0.8,0.2-1c3.5-3.4,14.3-4.3,18.7-1.7
		c1.4,2.1,1.2,4.5,1.2,6.8c0,56.4,0,112.8,0,169.2c0,2.5,0.1,5-1.6,7.2C303.6,514.7,297.8,515.4,292,511.7z"/>
	<path class="st3" d="M309,328.9c-6.1,0.3-12,1.4-17.9,2.8c-19.3,3.4-37.9,9-56.1,16.2c-3.7,4.4-8.3,6.7-14.1,6.1
		c-6,1.7-10.1,0.3-11.6-4.1c-1.5-4.4,0.5-7.9,6-10.4c24.5-11.3,50-19.3,76.6-24c1.2-1.2,2.2-2.4,4-2.7c5.9-1.2,11.8-1.9,17.7-2.8
		c1.7-0.3,3.3,0.5,4.6,1.6c18-1.5,36.1-2.5,54.1-0.9c6.9,0.6,13.9,1.3,20.8,2.2c5.7,0.8,8.9,4.2,8.6,8.5c-0.3,4.3-3.7,7-9.6,7.3
		c-5.9,1.5-11.6,0.9-17-2c-16.9-1.6-33.8-1.4-50.6,0c-2.1,0.2-4.3,0-6.4,1C315.2,330.3,312.2,330.8,309,328.9z"/>
	<path class="st4" d="M336.9,540c-18.7,0.1-37.3,0.2-56,0.3c-10.5,0-21-0.2-31.5,0c-3.6,0.1-4.7-1.1-4.4-4.6c0.3-3.8,0.3-7.7,0-11.5
		c-0.2-3.4,0.7-4.8,4.3-4.6c6.2,0.3,12.3,0.1,18.5,0.1c2.9-1.5,5.9-2.1,9.1-2.1c17.6,0.1,35.2,0,52.8,0.1c2.6,0,5.4-0.4,7.6,1.6
		C339.7,526.2,340.9,533.2,336.9,540z"/>
	<path class="st5" d="M309,328.9c2.9-1,6-1.1,9-1c0,61.3,0.1,122.6,0.1,183.9c-3.1,3-6.1,3-9.2,0C309,450.7,309,389.8,309,328.9z"/>
	<path class="st6" d="M220.9,354c4.7-2,9.4-4.1,14.1-6.1c-0.5,3,1.2,5.5,2.3,8c11.5,26.9,23.1,53.7,34.6,80.5c1.3,3,2.7,5.5,6.1,6.4
		c-30.8-0.1-61.5-0.2-92.3-0.2c-2.3,0-5.7-1.3-5.9,3.2c-1-1.4-1.5-3.4,0.4-3.6c4-0.4,4.5-3.6,5.6-6.1c11.4-26.4,22.8-52.8,34.2-79.2
		C220.3,355.9,220.6,355,220.9,354z"/>
	<path class="st6" d="M375,326.8c5.8-0.2,11.4,0.6,17,2c8,18.8,15.9,37.6,23.9,56.4c3.4,7.9,6.7,15.9,10.3,23.8
		c1.1,2.6,1.6,5.7,5.6,6.2c1.9,0.2,1.4,2.2,0.4,3.6c0.2-2.9-1.8-3.1-3.9-3.1c-4.7,0-9.3,0.1-14,0.1c-26.8,0-53.5,0-80.3,0
		c2.1-1.1,4.1-1.9,5.3-4.6c11.2-26.5,22.6-52.8,33.9-79.2C374,330.3,374.4,328.6,375,326.8z"/>
	<path class="st7" d="M318.1,311.6c-8.8,1.3-17.6,2.6-26.3,3.9c0.2-7.3,1.4-14.5,0.5-21.9c-1.1-9.5,4.8-16.2,13.4-16
		c6.7,0.1,12,5.3,12.2,12C318.1,297,318.1,304.3,318.1,311.6z"/>
	<path class="st8" d="M336.9,540c0-6.7,0.1-13.4,0.1-20.1c1.7-1.9,3.5-0.8,5.2-0.2c6.3,0,12.6,0.2,18.9,0c2.9-0.1,4.3,0.6,4,3.8
		c-0.4,5.4,0.5,10.9-0.4,16.4C355.5,540.8,346.2,540.5,336.9,540L336.9,540z"/>
	<path class="st9" d="M342.3,519.6c-1.7,0.1-3.5,0.1-5.2,0.2c-23.1,0-46.1-0.1-69.2-0.1c4.3-6.7,10.7-8.7,18.3-7.9
		c1.9,0.2,3.9-0.1,5.9-0.1c5.6,0,11.3,0,16.9,0c3.1,0,6.1,0,9.2,0c3.1,0,6.3,0.2,9.4,0C334,511.4,338.9,513.9,342.3,519.6z"/>
	<path class="st4" d="M336.9,539.9c9.3,0,18.6-0.1,27.9-0.1C355.5,541.2,346.2,540.9,336.9,539.9z"/>
	<path class="st10" d="M213.4,473.6c-9.3-3.6-15.7-10.4-20.6-18.8c-1.5-2.5,1-2.5,2-2.7c1.7-0.4,3.9-3.1,5.1,0.7
		C202.4,461,207.1,467.8,213.4,473.6z"/>
	<path class="st11" d="M367.8,446.5c-9.4-3.4-15.5-10.4-20.6-18.5c-1.4-2.2,0.4-2.8,1.7-2.9c1.7-0.1,3.9-3.4,5.2,0.5
		C356.7,433.8,361.2,440.8,367.8,446.5z"/>
	<path class="st12" d="M309.7,321c-0.3,2.6-1.8,4.4-4.4,4.5c-2.4,0.1-4.1-1.3-4.3-3.9c-0.2-2.8,1.1-4.5,3.9-4.7
		C307.8,316.6,309.2,318.3,309.7,321z"/>
	<path class="st13" d="M265.9,441.9c-10.3,0-19.6,0-28.9,0c-13.7,0-27.3,0-41,0c-2.6,0-4.3-0.1-2.8-3.5
		c11.5-26.4,22.8-52.9,34.2-79.3c0.3-0.6,0.7-1.1,1.7-2.5C241.4,385,253.4,412.9,265.9,441.9z"/>
	<path class="st14" d="M383.4,329.4c3.9,8.9,7.3,16.9,10.8,24.9c8.1,18.8,16.1,37.6,24.3,56.4c1.6,3.6,0.6,4.2-2.8,4.2
		c-21.5-0.1-43-0.2-64.5,0c-4.9,0-4.6-1.7-3-5.1c9.2-21,18.3-42.2,27.4-63.2C378,341.2,379.7,335.4,383.4,329.4z"/>
</g>
</svg>
