<?xml version="1.0" encoding="utf-8"?>
<!-- Generator: Adobe Illustrator 19.0.0, SVG Export Plug-In . SVG Version: 6.00 Build 0)  -->
<svg version="1.1" id="Calque_1" xmlns="http://www.w3.org/2000/svg" xmlns:xlink="http://www.w3.org/1999/xlink" x="0px" y="0px"
	 viewBox="0 0 612 792" style="enable-background:new 0 0 612 792;" xml:space="preserve">
<style type="text/css">
	.st0{fill:#A2D3DE;}
	.st1{fill:#676767;}
	.st2{fill:#757676;}
	.st3{fill:#F9BE95;}
	.st4{fill:#EFA876;}
	.st5{fill:#E9F1F4;}
	.st6{fill:#5B5B5B;}
	.st7{fill:#DBD8D7;}
	.st8{fill:#E3E3E3;}
	.st9{fill:#333333;}
	.st10{fill:#3A3A3A;}
	.st11{fill:#FBD4B1;}
	.st12{fill:#FBD4B0;}
	.st13{fill:#ECAC81;}
	.st14{fill:#ECAC82;}
	.st15{fill:#FCD4B0;}
	.st16{fill:#E7C19B;}
	.st17{fill:#383736;}
	.st18{fill:#363634;}
	.st19{fill:#F0F0F0;}
	.st20{fill:#F9F9F9;}
</style>
<g>
	<path class="st0" d="M552.2,379.6c1.4,6.2,1.5,12.5,1.7,18.7c1.6,39.8-5.5,78.1-22.1,114.4c-9.6,20.9-21.9,40.3-37,57.8
		c-22.7,26.6-49.8,47.5-81.2,62.7c-22.4,10.8-46,18.1-70.7,21.6c-15.4,2.2-30.8,3.3-46.2,2.7c-32-1.3-62.7-8.3-92-21.5
		c-29-13.1-54.5-31-76.7-53.8c-31.2-32.1-52.1-69.9-62.9-113.3c-5.9-23.5-8.1-47.4-6.8-71.6c0.3-5.9-0.1-11.9,1.6-17.7
		C72,390.9,85,401.2,97.7,411.9c13.7,11.6,27.5,23,41.2,34.7c3.6,3.1,6.3,3.7,9.8,0.4c0.6-0.6,1.4-0.8,2.3-0.8
		c2.2,0.6,3.7,2.2,4.8,4.1c7.2,9.5,14.6,18.8,23.2,27.1c1.5,1.5,4,2.7,3.1,5.7c-2.2,2.3-4.6,4.3-6.4,7c-6.2,9.3-1.4,21,9.6,23.1
		c0.5,0.1,1,0.1,1.5,0.2c1.6,0.3,3.9-0.1,4.2,1.8c0.2,1.7-1.8,2.6-3.3,3.4c-4,2.3-7.3,5.3-9.4,9.4c-3,6.1-2.3,12.7,2.3,17.6
		c4.6,4.9,10.3,6.5,16.9,4.4c2.8-0.8,5-2.7,7.6-3.7c0.9-0.4,2-0.6,2.8,0.3c0.6,0.7,0.1,1.6-0.2,2.3c-0.4,0.9-1,1.7-1.5,2.6
		c-4,7.1-3.4,13.1,1.6,18.3c5.4,5.6,12,6.6,19.1,2.6c5.3-3.1,10.5-6.4,15.6-9.9c1.3-0.9,2.8-2.4,4.4-1c1.4,1.2,0.3,2.8,0,4.2
		c-1.3,5.4-0.9,10.4,4,13.9c5,3.5,10.3,3.4,15.5,0.5c11.9-6.7,23.5-13.9,35.4-20.6c1.6-0.9,3.1-2,5-2.1c7.4,1.6,12.9,6.7,19.4,10.1
		c7.7,4,14.7,9.2,22.5,13c8.7,4.3,17.2,0.6,19.3-8.2c0.7-2.8-0.2-5.3-0.9-7.8c-0.3-1.1-1-2.4,0.2-3.2c1.1-0.8,2.3-0.1,3.3,0.5
		c5,3,9.7,6.5,14.6,9.6c4.4,2.7,8.9,4.3,14.2,2.8c10.1-2.8,14.3-13.7,8.7-22.7c-1.2-1.9-4.4-4.1-2.8-5.7c2.2-2.3,4.7,0.8,6.9,2
		c9.8,5.6,20.6,2.7,24.4-6.6c2.7-6.7,0.3-15.2-5.6-19.8c-1.6-1.2-3.3-2.2-4.9-3.4c-1-0.8-2.4-1.6-2.1-3.1c0.3-1.6,2-1.5,3.3-1.7
		c3.2-0.4,6.2-1.2,8.8-3.3c6.9-5.7,7.4-14.3,1.3-21.7c-1.7-2-4.1-3.5-4.8-6.3c1.5-4.2,5.1-6.9,8-10c5.6-6.1,10.8-12.5,16-19
		c0.6-0.8,1.3-1.5,2.2-1.9c4.7,0.9,7.4-2.9,11.1-4.4c3.6,0.6,6.3-1,8.9-3.3c18.8-16.3,38.1-32,56.8-48.3
		C541.4,390.2,548.3,386.4,552.2,379.6z"/>
	<path class="st0" d="M130.1,234.5c15.2-15,31.9-28,50.3-38.8c27.2-16,56.4-26.3,87.6-31.2c17.3-2.7,34.7-3.8,52.2-2.7
		c29.7,1.9,58.3,8.5,85.6,20.6c21,9.3,40.2,21.2,57.9,35.7c6.1,5,12.5,10,17.3,16.4c0.6,2.1-1.1,2.9-2.3,4c-26,22-52,44-78.1,66
		c-6.4,5.3-12.6,10.8-19.1,16.1c-3.2,2.6-4.4,5.2-2.3,8.9c0.7,1.1,1.2,2.4,1.2,3.8c-1.5,3.6-6,5-6.8,9.1c-1.3,0.8-2,0.3-2.6-0.9
		c-0.9-2.6-0.6-5.3-0.6-7.9c0-28.3-0.1-56.6,0-84.9c0-6.2-1.7-11.1-7.6-13.9c-0.9-5-5.2-8.7-5.5-14.1c-0.1-1.9-1.2-3.1-2.9-3.6
		c-2.8-0.8-3.5-2.6-3.1-5.3c0.6-3.8-1.4-5.9-5-5.7c-5.2,0.3-8.7-2.2-12.1-5.7c-7.7-7.8-17.2-11.7-28.2-11.4
		c-11.2-0.2-20.9,3.5-28.6,11.7c-3.2,3.4-6.7,5.5-11.7,5.5c-4.9,0-5.9,1.6-5.3,6.6c0.2,1.9,0,3.4-2,3.9c-3.1,0.8-3.6,3.2-4.4,5.9
		c-1.1,3.9-4,7.1-5.1,11.2c-6,4.3-7.6,10.2-7.5,17.4c0.3,21.8,0.1,43.6,0.1,65.4c0,2.5,0.2,5-0.4,7.4c-1.5,3.8-3.4,1.3-4.9,0.1
		c-6.1-4.9-12-10-18-15.1c-24.8-20.7-49.4-41.6-74.2-62.4C139.4,242.6,134.5,238.8,130.1,234.5z"/>
	<path class="st1" d="M130.1,234.5c5.1,1.3,8.2,5.5,11.9,8.7c32.7,27.3,65.2,54.7,97.8,82.1c2.9,1.6,1.3,3.9,1,6.1
		c-6.6,14.3-15.8,27-25,39.6c-18.2,25.2-37.7,49.5-59.1,72.1c-1.5,1.6-2.8,3.9-5.6,3.7c-7.4,5.4-7.5,5.4-14.7-0.6
		c-24.8-20.8-49.5-41.7-74.3-62.5c-1.4-1.2-2.2-2.4-2.3-4.1c5.9-48.4,24.6-91.2,55.6-128.7C120,245.2,125.2,239.9,130.1,234.5z"/>
	<path class="st2" d="M379.8,333.7c-4-9.3-4.2-9.4,3.7-16.1c29.4-25,58.9-49.8,88.4-74.7c3.2-2.7,6.1-5.6,9.2-8.4
		c8.7,7.1,15.5,15.9,22.3,24.7c26.2,34.4,42.2,73.1,48.5,115.8c0.2,1.5,0.3,3,0.4,4.5c0.2,2.5-0.8,4.3-2.8,6c-23.7,20-47.4,40-71,60
		c-2.4,2.1-4.9,4.1-8.3,2c-3.1-0.7-5.2-2.9-7.3-5c-23.3-23.1-43.1-49.2-62.6-75.5c-5.9-8-11.3-16.4-16.8-24.8
		C381.7,339.6,379.6,337.1,379.8,333.7z"/>
	<path class="st3" d="M181.8,482.3c-8.6-9-17.2-18-24.6-28c-1-1.3-2.2-2.5-2.7-4.1c8.2,2.9,12.8-3.2,17.2-7.9
		c24.8-26.4,46.8-55,66.8-85.2c2.5-3.7,4.8-7.6,6.7-11.7c0.6-1.3,0.9-3,2.8-3.1c2.2,1.1,4.4,2,6.9,2.3c9.7,2.3,19.4,4.1,29.1,5.9
		c6.8,1.8,14.1,1.4,20.6,4.4c1.1,3.1-1.5,2.7-3,2.8c-4.1,0.4-8.2,1.1-12.3,1.6c-2.9,0.3-4.9,1.2-3.5,4.7c0.2,0.5,0.2,1,0.2,1.5
		c-0.1,1.3-0.1,2.8-1.6,3.3c-1.6,0.5-2.7-0.6-3-1.9c-1-4.3-3.1-3.2-5.6-1.3c-4.3,3.1-8.9,5.7-12,10.2c-2.8-0.3-5.2,1-7.2,2.6
		c-3.7,2.9-8.6,4.2-11.2,8.5c3.7,8.9,14.2,14.3,22.4,10c9.5-4.9,19.4-5.4,29.5-6.3c5.2-0.5,9.7,0.7,13.8,5.1
		c8.2,8.8,18.8,14.8,28.7,21.6c29.5,20,58.8,40.3,88.3,60.3c1.8,1.2,3.8,2.1,4.9,4.1c2.2,3.4,5.8,5.4,7.7,9.1
		c6,11.2-0.8,23.3-13.5,24c-0.8,0-1.6,0.1-3.5,0.2c2.8,1.9,4.7,3.3,6.7,4.7c6.8,4.7,10.1,12.5,8.4,19.9c-1.6,7-6.8,11.5-15.4,12.8
		c-3.9,0.6-7.5-0.5-10.9-2.6c-2.1-1.3-4.3-2.6-7.6-4.6c3.4,4.7,6.6,8,7.1,12.7c0.6,6.4-1.2,12-6.7,15.6c-5.8,3.9-12.3,4.2-18.4,0.6
		c-6.4-3.8-12.5-8.1-19.2-12.5c0.5,3.8,2.8,6.8,2.1,10.4c-2,10.6-12.6,15.3-22.3,9.7c-11.4-6.5-22.6-13.3-34-19.9
		c-2.1-1.2-4.4-2.3-6.6-3.4c-7.1-2.2-12.9-6.8-19.2-10.5c-15.6-9.2-32.1-16.8-48.2-25.1c-19.1-9.9-37-21.8-53.7-35.3
		C184.2,485.9,182.3,484.7,181.8,482.3z"/>
	<path class="st4" d="M433,481.5c-9.5-4.7-17.8-11.5-26.5-17.4c-23.9-16.2-47.5-32.7-71.5-48.9c-8.4-5.7-17.4-10.7-24.2-18.1
		c-5.5-6.1-11.2-5.1-18-4.9c-8.9,0.3-16.9,2-24.8,6.1c-9,4.6-21.7-3.1-23.9-11.8c9,2.6,13.8-2.5,17.6-9.6c0.3-0.6,0.8-1,1.4-1.3
		c3.2-7.3,10.7-9.7,16.6-13.9c2-1.5,1.9,1.4,2.3,2.6c0.5,1.5-0.2,4.1,2.1,3.7c2-0.4,1.2-2.8,0.5-4.2c-1.7-3.8-0.6-5.1,3.5-5.5
		c5.7-0.5,11.3-1.7,16.9-2.5c1.3-1.7,3.2-1.4,4.9-1.7c6.6-1,13.3-2,19.8-3.6c9.3-1.3,18.4-3.7,27.6-5.2c5-0.5,9.4-3.9,14.7-2.9
		c0.6-0.2,1.2-0.4,1.8-0.6c1.4,0.5,1.9,1.8,2.5,2.9c13.8,25,31.5,47.3,49.4,69.5c7.5,9.3,15.7,18.1,23.5,27.2c1.7,2,3.7,3.8,5.8,5.4
		c1.7,1.3,3.6,2.5,4,4.9C451.2,462.4,442.7,472.5,433,481.5z"/>
	<path class="st4" d="M181.8,482.3c19.2,16.2,40.3,29.7,62.4,41.5c9.8,5.2,20.3,9,29.9,14.7c10,5.9,20,11.7,30,17.6
		c1,0.6,1.8,1.4,2.7,2.1c-12.7,7.4-25.5,14.4-37.9,22.3c-6.8,4.4-15.5,3.7-19.5,0.1c-5.9-5.3-5.4-11.6-2.3-19.4
		c-6.3,4.1-11.8,7.6-17.2,11.1c-4.4,2.9-9,4.8-14.5,3.5c-11.7-2.7-16.7-14.5-10.5-24.8c0.8-1.3,1.7-2.7,2.4-4.3
		c-6.7,4-13.4,7.6-21.5,4.3c-3.7-1.5-6.6-3.8-8.5-7.4c-5.4-9.9-2.2-17,13.1-28.8c-10.5,0-17.6-4.3-19-14.5
		C170.6,492.2,175.2,486.5,181.8,482.3z"/>
	<path class="st5" d="M247.8,342.8c-6.7,14.8-16.6,27.5-26,40.5c-15,20.7-31.1,40.5-48.5,59.3c-2.9,3.1-6.4,5.8-9.6,8.7
		c-3.3,2.9-6.2,0.5-9.1-1c-1.1-1.2-2.3-2.3-3.4-3.4c30.7-31.1,57.2-65.5,81.1-102c2.8-4.3,5.2-8.8,7.8-13.2c3.9,0.5,6.2,3.5,8.6,5.9
		C250.4,339.2,250.1,341.3,247.8,342.8z"/>
	<path class="st5" d="M459.1,451.7c-11.8-9.2-21-20.8-30.5-32.2c-16.4-19.7-32.1-40-45.9-61.6c-3.3-5.2-6.6-10.4-8.8-16.2
		c-1.7-5.4,4-5.3,5.9-8c23.2,37.9,50.4,72.7,80.8,105c2.9,3.1,6.3,5.9,9.5,8.8C466.6,449.5,464.3,454.6,459.1,451.7z"/>
	<path class="st6" d="M247.8,342.8c1.2-2.6,0.8-4.6-1.7-6.3c-2.2-1.4-4-3.3-6-5c-0.4-2.1,1.2-4.2-0.2-6.3
		c0.1-26.1,0.2-52.2,0.1-78.3c0-6.8,2.6-11.5,8.9-14c0.9-0.1,1.7,0.2,2.2,0.9c3.4,4.3,7.8,6.8,13,8.1c0.9,0.2,1.8,0.8,2.5,1.5
		c4.1,7.4,8.1,14.8,15.3,20c21,15.2,51.5,7.3,61.9-16.4c0.5-1.2,0.9-2.5,1.8-3.5c6-2.5,11.8-5.3,16.6-9.8c6.2,0.4,9.8,4.9,9.8,12.4
		c0.1,22.5,0,44.9,0,67.4c0,9.6,0,19.3,0,28.9c-4.7,1.3-9.4,2.7-14.1,4.1c-2-2.7-1.7-6-2.2-9.1c-2.2-13.4-5-26.7-9.4-39.7
		c-0.9-2.7-2.1-5.2-3.3-7.8c-2.5-5.1-6.4-7.7-12.1-8c-7.6-0.4-15-3.2-22.7-1.5c-0.8,0.1-1.6,0.1-2.4,0c-9.6-1.6-18.9,1-28.1,2.8
		c-4.3,0.8-6.3,4.8-8.1,8.3c-3.6,7-6.1,14.4-8.1,22c-2.2,8.4-4.2,16.8-5.4,25.4c-0.3,2.3-0.4,4.7-2.1,6.5
		C251.7,345.1,249,345.8,247.8,342.8z"/>
	<path class="st7" d="M362.2,233.6c-3.4,6.4-9.6,8.4-16,10c-4.4,1-7.4-0.6-8-4.7c-0.4-2.4-0.9-4.4-2.7-6.1c-1.8-1.8-2-4.3-1.2-6.5
		c0.8-2.1-0.4-2.1-1.7-3.2c-5.1-4.1-10.7-7.8-15.5-12.3c-7.3-6.8-13-6.8-20.5-0.5c-3.3,2.8-6.1,6.7-11.2,6.6
		c-1.2-2.4,0.9-3.6,2.1-4.9c3.5-3.7,6.9-7.5,10.8-10.8c4.4-3.7,6.7-8.3,7.8-13.6c12.2-0.4,22.3,4.2,30.5,13c2.7,2.9,5.5,4.2,9.5,4.1
		c6.2-0.3,7.7,1.6,6.8,7.8c-0.3,2.1-0.4,3.1,2,3.2c0.9,0,2.6,0.7,2.6,1C357.1,222.8,364.9,226.8,362.2,233.6z"/>
	<path class="st8" d="M306,187.6c0.8,5.2-1,9-5,12.6c-5.6,5.1-11.2,10.3-16,16.3c0.3,3.1-2.2,4.2-4,5.7c-0.9,0.7-2.7,1.2-2.6,2.1
		c1.1,5.6-3.6,9.2-4.5,14.1c-0.8,4.4-3.6,6.1-8.1,5.1c-7.1-1.3-13.1-4.5-17.1-10.7c0.3-3-0.6-6.4,3.2-8.1c1.1-0.5,1-2,0.9-3.2
		c-0.2-3.5,0.8-5.9,4.8-6.1c1.9-0.1,1.9-0.9,1.5-2.6c-1.6-5.5,0.3-8.6,5.9-8.2c5.1,0.3,8.3-1.7,11.5-5.2
		C284.5,191.1,294.5,187.3,306,187.6z"/>
	<path class="st9" d="M330,351.7c-8.2,2.4-16.6,3.5-25,4.1c-7-1.3-14.1-2.6-21.1-3.9c-1.5-2.4-0.7-4.9-0.3-7.3
		c2.6-16.5,4.5-33.2,7.2-49.7c0.5-3.3,0.6-6.6,1.2-9.9c0.9-5.6,1.3-6,7-5.9c1.3,0,2.7-0.2,3.9,0.3c1.1,4.3,1.5,8.7,0.1,13.1
		c-1.3,3.9-2.7,7.9-3.9,11.8c-0.7,2.6-0.1,4.1,2.9,4.3c2.8,0.2,5.4,0.8,8.3,0.2c5.2-1,5.4-1.1,3.8-6.3c-2.1-6.6-5.5-12.9-4.7-20.2
		c0.1-1-0.1-2,0.7-2.8c10.6-1.3,10.8-1.3,12.3,8.9c2.8,18.7,5.4,37.4,8.1,56.1C330.8,346.8,331.7,349.3,330,351.7z"/>
	<path class="st10" d="M303.1,280.7c-6.5-2.8-9-1.9-9.7,4.6c-1.4,12.8-3.5,25.5-5.3,38.2c-1.4,9.4-2.8,18.9-4.1,28.3
		c-10-1.8-20.1-3.4-29.9-6.4c2.1-19.2,6.3-37.8,14.7-55.3c2.3-4.8,5.5-8.7,11.4-9.2c7.4-0.6,14.6-3,22.1-2.4
		c1.3,0.1,2.7-0.3,3.8,0.8C305.4,280.6,304.4,281.1,303.1,280.7z"/>
	<path class="st11" d="M435,535.8c0.6,8.6-9.7,16.1-18,10.9c-8.2-5.1-8.9-5.9-3.5-13.9c0.8-1.2,1.6-2.5,2.5-3.7
		c2.3-2.8,3.5-7.3,8.5-6.2C430.1,524.2,435.1,530.6,435,535.8z"/>
	<path class="st11" d="M408,560.7c-0.1,9.4-8.9,14.6-17.1,10.2c-1.6-0.9-2.9-2.3-4.5-3.1c-3-1.6-2.9-3.9-1.4-6.2
		c2.5-3.9,5.1-7.7,8-11.4c1.8-2.4,3.9-2.8,6.8-0.8C406.8,554.1,408.1,555.5,408,560.7z"/>
	<path class="st12" d="M440,499.7c-0.7,3.7-2.8,7.4-6.5,9.4c-3.6,2-7.6,2.3-11.1-0.7c-1-0.9-2.1-1.6-3.2-2.3
		c-3.6-2.1-3.6-4.6-1.4-7.8c2.6-3.8,5.1-7.7,8.7-10.7c0.9-0.7,1.5-1.9,2.8-1.8C432.9,486.2,440.1,495.1,440,499.7z"/>
	<path class="st13" d="M408.8,507.7c-9.4-5.7-19-11.2-28.3-17.2c-20.5-13.1-39.7-28.1-59.5-42.4c-4.8-3.5-9.9-6.6-14.8-10
		c-0.9-0.6-2.6-0.9-1.5-2.4c1-1.4,2.2-0.3,3.1,0.3c22.1,15.3,44.1,30.6,66.2,46c11.8,8.2,23.6,16.4,35.4,24.6
		C409.2,506.9,409,507.3,408.8,507.7z"/>
	<path class="st12" d="M366,570.9c-0.1,4.6-3.1,8.6-7.1,9.6c-3.4,0.8-11.1-2-12.5-4.6c-0.6-1.1-0.4-2.3,0.2-3.3
		c1.3-2.3,2.4-4.7,3.9-6.9c1.8-2.5,3-6.6,7.1-5.5C363.1,561.5,366.1,565.8,366,570.9z"/>
	<path class="st14" d="M385.6,533.5c-29.9-15-55.5-36.1-82.1-55.8c0.3-0.4,0.5-0.7,0.8-1.1C331.4,495.5,358.5,514.5,385.6,533.5z"/>
	<path class="st15" d="M263.1,375.6c-1,5.4-4.8,9-8.9,12c-3.3,2.5-6.9,0.7-10.1-1.1c0-1,0.3-2,1.3-2.5c5-3.1,10.1-6.2,15.1-9.4
		C262,373.6,262.8,373.6,263.1,375.6z"/>
	<path class="st10" d="M330,351.7c-3.1-17.2-4.7-34.6-7.8-51.8c-0.9-5-1.8-10.1-2-15.2c-0.1-4.8-2.2-5.6-6-5.1c-1.4,0.2-3-0.4-4.2,1
		c-1.1,0.5-1.6-0.1-2-1.1c6.2-2.2,12.3-0.2,18.5,0.4c1,0.1,1.9,0.7,2.9,0.6c8.4-0.6,13.3,3.8,16.1,11.1
		c6.8,17.7,10.9,35.9,12.4,54.8C348.7,348.2,339.5,350.8,330,351.7z"/>
	<path class="st3" d="M289,362.2c0,1.1-0.1,2.2-1.5,2.1c-1.3,0-1.5-1.2-1.5-2.2c0-1-0.1-2.3,1.3-2.2
		C288.4,360.1,288.8,361.2,289,362.2z"/>
	<path class="st16" d="M266,243.6c4.6-0.6,8.2-2.1,6.6-7.8c-0.2-0.6-0.5-1.5,0.2-1.8c4.9-1.7,4.8-5.1,3.4-9.2
		c-0.5-1.4,0.4-2,1.7-2.4c3.2-0.9,5.2-3.3,7.1-5.9c4.6-1.8,8.2-4.9,11.6-8.2c5.6-5.3,13.8-5.9,19-0.4c4.7,5,11.5,7.3,15.3,13.1
		c1.2,1.7,3.3,1.2,5.3,1.8c-1.1,4.2-3.6,8.8,2.8,11c0.7,0.2,0.4,1.1,0.3,1.8c-1.6,5.8,2.1,7.3,6.7,7.9c-5.4,17.3-21.8,29-40.6,29
		C287.6,272.5,271.3,260.5,266,243.6z"/>
	<path class="st8" d="M308,279.5c0.7,0.4,1.3,0.7,2,1.1c0.4,0.7,1.1,1.5,1,2.2c-1.2,8.3,3.4,15.3,5.4,22.8c0.9,3.3-1.1,4.9-4.3,4.7
		c-3.6-0.2-7.4-0.4-10.9-0.2c-4.9,0.3-4.6-1.9-4-4.8c0.5-2.6,1.4-5.2,2.6-7.5c3-5.4,1.7-11.4,3.2-17c1-0.4,1.9-0.9,2.9-1.3
		C306.7,279.4,307.4,279.4,308,279.5z"/>
	<path class="st17" d="M296.8,232.5c3.8,2.3,2.8,5.4,0.7,7.9c-2.1,2.7-5.1,3-7.8,0.6c-2.8-2.5-3.1-5.5-0.9-8.4
		c2-2.6,4.6-3.6,7.3-0.7c-0.4,0.5-1.2,1.5-1,1.6C296.1,234,296.2,232.7,296.8,232.5z"/>
	<path class="st18" d="M322.1,235.4c0.8,0.6,1.1-3.4,2-0.3c0.8,3-0.4,5.6-3.3,7c-2.6,1.3-4.9,0.4-6.6-1.7c-1.9-2.5-2-5.3-0.1-7.7
		c1.9-2.3,4.3-3.6,7-0.9C319.7,233.3,319.1,234.8,322.1,235.4z"/>
	<path class="st19" d="M322.1,235.4c-1.5,2-3.1,1.4-3.8-0.4c-0.9-2.2,0.4-3.4,2.8-3.3C321.4,232.9,321.8,234.1,322.1,235.4z"/>
	<path class="st20" d="M296.8,232.5c0.8,1.7,0.6,3.3-1.4,3.9c-1.5,0.4-2.5-0.7-2.5-2.2c0.1-2,1.1-3,3.2-2.3
		C296.4,232.1,296.6,232.3,296.8,232.5z"/>
</g>
</svg>
