<?xml version="1.0" encoding="utf-8"?>
<!-- Generator: Adobe Illustrator 19.0.0, SVG Export Plug-In . SVG Version: 6.00 Build 0)  -->
<svg version="1.1" id="Calque_1" xmlns="http://www.w3.org/2000/svg" xmlns:xlink="http://www.w3.org/1999/xlink" x="0px" y="0px"
	 viewBox="0 0 612 792" style="enable-background:new 0 0 612 792;" xml:space="preserve">
<g>
	<path d="M535,149.2c0,31.8,0,63.6,0,96c-10.7,0-21.1,0-31.8,0c0,42.8,0,85.1,0,127.9c10.4,0,20.8,0,31.5,0c0,32.1,0,63.7,0,95.8
		c-63.6,0-127.3,0-191.4,0c0-31.6,0-63.3,0-95.4c10.3,0,20.5,0,31.2,0c0-16.1,0-31.8,0-48.2c-111.8,0-223.7,0-335.6,0
		c0-10.7,0-21.3,0-32c111.9,0,223.8,0,335.8,0c0-16.3,0-31.9,0-48.1c-10.6,0-21,0-31.8,0c0-32.3,0-64.1,0-95.9
		C407,149.2,471,149.2,535,149.2z M470.7,373c0-42.8,0-85.1,0-127.4c-21.4,0-42.4,0-63.4,0c0,42.7,0,84.9,0,127.4
		C428.4,373,449.4,373,470.7,373z M502.8,181.5c-42.6,0-85,0-127.4,0c0,10.6,0,21,0,31.4c42.7,0,85.1,0,127.4,0
		C502.8,202.2,502.8,192,502.8,181.5z M375.4,405.4c0,10.8,0,21.2,0,31.4c42.7,0,85.1,0,127.4,0c0-10.7,0-20.9,0-31.4
		C460.2,405.4,418,405.4,375.4,405.4z"/>
	<path d="M327,661.2c0-31.8,0-63.6,0-96c74.9,0,149.4,0,224,0c0,32,0,64,0,96C476.3,661.2,401.7,661.2,327,661.2z M359.2,628.9
		c53.5,0,106.5,0,159.5,0c0-10.6,0-20.9,0-31.4c-53.3,0-106.3,0-159.5,0C359.2,608,359.2,618.3,359.2,628.9z"/>
</g>
</svg>
