<?xml version="1.0" encoding="utf-8"?>
<!-- Generator: Adobe Illustrator 19.0.0, SVG Export Plug-In . SVG Version: 6.00 Build 0)  -->
<svg version="1.1" id="Calque_1" xmlns="http://www.w3.org/2000/svg" xmlns:xlink="http://www.w3.org/1999/xlink" x="0px" y="0px"
	 viewBox="0 0 612 792" style="enable-background:new 0 0 612 792;" xml:space="preserve">
<g>
	<path d="M542,685c-154,0-308,0-462,0c-10.5-3.5-17.5-10.5-21-21c0-153.7,0-307.3,0-461c3.5-10.5,10.5-17.5,21-21c154,0,308,0,462,0
		c15.2,5.7,21.1,16.6,21,32.8c-0.4,74.8-0.2,149.6-0.2,224.4c0,72.5,0,144.9,0.1,217.4c0,9.3-3.1,17-10.5,22.6
		C549.2,681.6,545.5,683.1,542,685z M462,668.1c2.2,0,3.9,0,5.5,0c22.7,0,45.3,0,68,0c8.6,0,10.5-1.9,10.5-10.6
		c0-149.2,0-298.3,0-447.5c0-9.4-1.7-11.2-11-11.2c-149.3,0-298.7,0-448,0c-9.5,0-11.1,1.6-11.1,11c0,149.3,0,298.7,0,448
		c0,8.5,1.8,10.3,10.2,10.3c23.2,0,46.3,0,69.5,0c1.3,0,2.6-0.2,4.3-0.3c0-1.9,0-3.5,0-5.2c0-116.8,0.3-233.7-0.3-350.5
		c-0.1-16.1,12.4-30.1,30-29.7c42.8,0.8,85.6,0.3,128.5,0.3c38.3,0,76.7,0.6,115-0.2c17-0.3,29.3,14,29.2,29
		c-0.5,93.5-0.2,187-0.2,280.5C462,617.1,462,642.2,462,668.1z M445.1,667.8c0-1.5,0-2.8,0-4.1c0-118.3,0-236.6,0-354.9
		c0-7.3-2.2-9.5-9.6-9.5c-37.2,0-74.3,0-111.5-0.1c-3.3,0-5.1,0.8-4.6,4.4c0.2,1.5,0,3,0,4.5c0,118.1,0,236.3,0,354.4
		c0,1.7,0.2,3.5,0.2,5.2C361.7,667.8,403.1,667.8,445.1,667.8z M301.8,667.7c0-122.9,0-245.5,0-368.5c-2,0-3.7,0-5.3,0
		c-36.3,0-72.7,0-109,0c-9,0-10.9,1.9-10.9,10.8c0,117.3,0,234.6,0,352c0,1.8,0,3.6,0,5.7C218.6,667.7,260,667.7,301.8,667.7z"/>
	<path d="M311.1,215.5c18.5,0,37,0,55.4,0c9,0,11.5,2.5,11.5,11.6c0,9.5,0,19,0,28.5c0,7.1-3,10.3-9.9,10.3
		c-38.1,0.1-76.2,0.1-114.4,0c-6.9,0-9.9-3.1-10-10.2c0-10,0-20,0-30c0-7.4,2.8-10.2,10.3-10.2C273.1,215.5,292.1,215.6,311.1,215.5
		C311.1,215.6,311.1,215.5,311.1,215.5z M360.9,232.2c-15.6,0-30.5,0-45.5,0c-16.8,0-33.6,0-50.4,0c-2.1,0-4.6-0.5-4.5,2.9
		c0,4.4,0,8.9,0,13.5c33.8,0,67.1,0,100.4,0C360.9,243.1,360.9,238,360.9,232.2z"/>
	<path d="M529,483.5c0,10.7,0,21.3,0,32c0,7.3-2.9,10.2-10.4,10.3c-9.8,0.1-19.7,0.1-29.5,0c-7.5,0-10.4-2.9-10.4-10.2
		c0-21.1,0-42.3,0-63.4c0-7.4,2.8-10.1,10.3-10.2c10,0,20-0.1,30,0c7,0,9.9,3.1,10,10.1C529.1,462.5,529.1,473,529,483.5
		C529.1,483.5,529.1,483.5,529,483.5z M511.9,492.2c-4.7,0-9.2-0.1-13.6,0.1c-0.9,0-2.5,1.3-2.6,2.1c-0.2,4.7-0.1,9.5-0.1,14.2
		c5.9,0,11,0,16.3,0C511.9,503.2,511.9,498,511.9,492.2z M511.9,474.9c0-5.5,0-10.5,0-15.8c-5.5,0-10.7,0-16.1,0
		c0,5.4,0,10.5,0,15.8C501.3,474.9,506.4,474.9,511.9,474.9z"/>
</g>
</svg>
