<?xml version="1.0" encoding="utf-8"?>
<!-- Generator: Adobe Illustrator 19.0.0, SVG Export Plug-In . SVG Version: 6.00 Build 0)  -->
<svg version="1.1" id="Calque_1" xmlns="http://www.w3.org/2000/svg" xmlns:xlink="http://www.w3.org/1999/xlink" x="0px" y="0px"
	 viewBox="0 0 612 792" style="enable-background:new 0 0 612 792;" xml:space="preserve">
<g>
	<path d="M39,238c0.6-1.5,1.3-3,1.8-4.5c4.5-12.8,16.1-21.4,29.6-21.4c32.3-0.1,64.6-0.2,97,0c18.1,0.1,31.6,14.3,31.6,33
		c0,82.6,0,165.3,0,247.9c0,12.8,0,25.6,0,39c117.6,0,234.8,0,352,0c0,2,0,4,0,6c-1,2.4-1.8,4.9-2.9,7.3
		c-6.1,12.4-16.2,18.7-30,18.7c-72.2,0.1-144.3,0-216.5,0c-33.5,0-67,0-100.5,0c-20.7,0-34.1-13.5-34.1-34.1c0-93.7,0-187.3,0-281
		c0-1.5,0-2.9,0-4.7c-10.8,0-21.2,0-31.8,0c-0.7,9.1-3.7,17-10.5,23.2c-6.1,5.6-13.5,8.5-21.8,8.6c-10.3,0.1-20.7,0.1-31,0
		c-15.7-0.1-27.3-8.8-31.9-23.8c-0.2-0.7-0.7-1.4-1-2.1C39,246,39,242,39,238z"/>
	<path d="M551,474c-0.8,2.1-1.6,4.3-2.5,6.4c-5.2,11.6-14.3,18.9-26.9,19.4c-21.9,0.7-43.9,0.2-66.7,0.2c0-64.1,0-127.9,0-191.8
		c0,0-0.1,0.2-0.1,0.2c22.5-0.1,44.9-0.8,67.4,0.1c13,0.5,22,8.4,26.9,20.7c0.7,1.7,1.3,3.3,2,5C551,380.7,551,427.3,551,474z"/>
	<path d="M272,692c-1.2-0.4-2.5-0.9-3.7-1.2c-25.3-6-41.1-30.2-36.4-56c4.4-24.2,28-41.6,52.3-38.6c26.2,3.3,44.8,25.9,42.6,52
		c-1.7,20.6-17.1,38.1-37.6,42.7c-1.1,0.3-2.2,0.7-3.2,1.1C281.3,692,276.7,692,272,692z"/>
	<path d="M432,692c-1.2-0.4-2.5-0.9-3.7-1.2c-25.3-6-41.1-30.2-36.4-56c4.4-24.2,28-41.6,52.3-38.6c26.2,3.3,44.8,25.9,42.6,52
		c-1.7,20.6-17.1,38.1-37.6,42.7c-1.1,0.3-2.2,0.7-3.2,1.1C441.3,692,436.7,692,432,692z"/>
	<path d="M326.9,307.9c0,48.6,0.1,97.3,0.1,145.9c0,15.1,0,30.3,0,45.8c-1.5,0.1-2.7,0.4-4,0.4c-20,0-40,0.1-60,0
		c-18-0.1-32-14.1-32.1-32c-0.1-42.5-0.1-84.9,0-127.4c0-18.7,13.8-32.4,32.6-32.5c21.1-0.1,42.3,0,63.4,0.1L326.9,307.9z"/>
	<path d="M422.9,307.9c0,63.8,0,127.6,0,191.7c-21.2,0-42.3,0-63.8,0c0-63.9,0-127.8,0-191.7c0,0-0.1,0.1-0.1,0.1
		c21.4,0,42.8,0,64.1,0L422.9,307.9z"/>
	<path d="M327.1,308.1c0-21.1,0-42.2,0-63.7c42.5,0,84.8,0,127.7,0c0,21.2,0,42.5,0,63.9c0,0,0.1-0.2,0.1-0.2
		c-10.7-0.1-21.3-0.1-32-0.2c0,0,0.1,0.1,0.1,0.1c0-10.6,0-21.2,0-31.7c-21.8,0-42.8,0-64.1,0c0,10.8,0,21.3,0,31.7
		c0,0,0.1-0.1,0.1-0.1c-10.7,0-21.4,0-32.2,0C326.9,307.9,327.1,308.1,327.1,308.1z"/>
</g>
</svg>
