<?xml version="1.0" encoding="utf-8"?>
<!-- Generator: Adobe Illustrator 19.0.0, SVG Export Plug-In . SVG Version: 6.00 Build 0)  -->
<svg version="1.1" id="Calque_1" xmlns="http://www.w3.org/2000/svg" xmlns:xlink="http://www.w3.org/1999/xlink" x="0px" y="0px"
	 viewBox="0 0 612 792" style="enable-background:new 0 0 612 792;" xml:space="preserve">
<style type="text/css">
	.st0{fill:#E8E1D8;}
	.st1{fill:#D1CFCB;}
	.st2{fill:#DBDB10;}
	.st3{fill:#30302E;}
	.st4{fill:#D5CB0F;}
	.st5{fill:#D1CFCA;}
	.st6{fill:#2B2C1A;}
	.st7{fill:#2A2B18;}
	.st8{fill:#2D2D1C;}
	.st9{fill:#202118;}
	.st10{fill:#B1A009;}
	.st11{fill:#2F2F2E;}
	.st12{fill:#D5CC0E;}
	.st13{fill:#79790E;}
	.st14{fill:#1B1C17;}
	.st15{fill:#D4CB0D;}
	.st16{fill:#353534;}
	.st17{fill:#FAFAF9;}
	.st18{fill:#1E1F18;}
	.st19{fill:#232422;}
	.st20{fill:#232322;}
	.st21{fill:#424240;}
	.st22{fill:#010101;}
	.st23{fill:#525251;}
	.st24{fill:#1D1E18;}
	.st25{fill:#3E3E3C;}
	.st26{fill:#494A49;}
	.st27{fill:#3F3F3D;}
	.st28{fill:#B3B313;}
	.st29{fill:#474738;}
	.st30{fill:#222318;}
	.st31{fill:#81810A;}
	.st32{fill:#60605E;}
	.st33{fill:#52524F;}
	.st34{fill:#DCDCB6;}
	.st35{fill:#E0E0C9;}
	.st36{fill:#666608;}
	.st37{fill:#D5D5A4;}
	.st38{fill:#D9D9AE;}
	.st39{fill:#F2F2E3;}
	.st40{fill:#595908;}
	.st41{fill:#676708;}
	.st42{fill:#E9E9D8;}
	.st43{fill:#686808;}
	.st44{fill:#747409;}
	.st45{fill:#F6F6F2;}
	.st46{fill:#7A7A0A;}
	.st47{fill:#707009;}
	.st48{fill:#77770B;}
	.st49{fill:#D8D8BB;}
	.st50{fill:#FDFDFD;}
	.st51{fill:#424241;}
	.st52{fill:#818282;}
	.st53{fill:#525252;}
	.st54{fill:#4F504F;}
	.st55{fill:#50504F;}
	.st56{fill:#5B5B5B;}
	.st57{fill:#747474;}
	.st58{fill:#979897;}
	.st59{fill:#646564;}
	.st60{fill:#767776;}
	.st61{fill:#888989;}
	.st62{fill:#676766;}
	.st63{fill:#616261;}
	.st64{fill:#858585;}
	.st65{fill:#565655;}
	.st66{fill:#6B6B6A;}
	.st67{fill:#818281;}
	.st68{fill:#878787;}
	.st69{fill:#808080;}
	.st70{fill:#8A8B8B;}
	.st71{fill:#616160;}
	.st72{fill:#5F5F5F;}
	.st73{fill:#8C8C8C;}
	.st74{fill:#636463;}
	.st75{fill:#8A8A8A;}
	.st76{fill:#848585;}
	.st77{fill:#929292;}
	.st78{fill:#919292;}
	.st79{fill:#929393;}
	.st80{fill:#A1A2A2;}
	.st81{fill:#868786;}
	.st82{fill:#A0A0A0;}
	.st83{fill:#9C9C9C;}
	.st84{fill:#979898;}
	.st85{fill:#989899;}
	.st86{fill:#969797;}
	.st87{fill:#989999;}
	.st88{fill:#4A4A49;}
	.st89{fill:#9C9C9D;}
	.st90{fill:#9C9D9D;}
	.st91{fill:#A2A3A4;}
	.st92{fill:#9FA0A0;}
	.st93{fill:#A5A6A6;}
	.st94{fill:#969696;}
	.st95{fill:#929392;}
	.st96{fill:#9D9D9E;}
	.st97{fill:#959696;}
	.st98{fill:#9E9F9F;}
	.st99{fill:#9FA0A1;}
	.st100{fill:#A0A0A1;}
	.st101{fill:#5D5D5A;}
	.st102{fill:#B2B9B9;}
	.st103{fill:#4C4C4B;}
	.st104{fill:#7F8080;}
	.st105{fill:#ABA605;}
	.st106{fill:#AAA502;}
	.st107{fill:#E8E7E6;}
	.st108{fill:#898A8A;}
	.st109{fill:#F9F9F8;}
	.st110{fill:#E3E3C8;}
	.st111{fill:#DBDAB7;}
	.st112{fill:#4D4D4C;}
	.st113{fill:#DBDBDB;}
	.st114{fill:#F1CF67;}
	.st115{fill:#D6D6D6;}
	.st116{fill:#C95211;}
	.st117{fill:#FAFAFA;}
	.st118{fill:#1B1C1C;}
	.st119{fill:#F1CF66;}
	.st120{fill:#1C1D1D;}
	.st121{fill:#CB5818;}
</style>
<g>
	<path class="st0" d="M296,112c10.7,0,21.3,0,32,0c7,1.1,14.2,0.6,21.2,1.5c29.4,3.9,56.9,13.4,83.1,27
		c28.5,14.7,52.7,34.9,73.9,58.6c15.4,17.3,27.9,36.8,37.9,57.9c9.6,20.1,16.3,41.1,20.7,62.9c1.7,8.7,2.3,17.4,2.6,26.3
		c0.1,1.9-0.6,4,0.5,5.8c0,10.7,0,21.3,0,32c-1,7.6-0.6,15.3-1.5,22.9c-0.2,1.6-0.1,3.3-1.1,4.7c-0.7,0.7-1.4,0.8-2.1-0.1
		c-13.9-16-29.5-30.2-44.4-45.2c-24.7-25-49.4-49.9-74.6-74.5c-11.3-11-22.5-22.1-34.1-32.9c-2.9-2.7-4.2-7.5-9.3-7.7
		c-0.8-0.1-1.6-0.3-2.3-0.5c-10.3-0.6-20.4-2.7-30.7-3.5c-8.8-0.6-17.5-1.5-26.4-1.7c-9.1-0.2-18.2-1-27.3-1.5
		c-1.4-1.2-2.9-2.2-4.4-0.1c-4.9,0.7-9.9,1.4-14.9,1.5c-22.8,0.2-45.4,2.7-67.9,5.9c-1.1,0.1-2.2,0-3.3,0.1c-4.1,0.6-6.1,3.3-8,6.6
		c-11.1,19.5-20.6,39.7-29.6,60.3c-0.8,1.9-1.3,4.2-3.5,5.3c-1.3,0.5-2.5,0.5-3.7-0.3c-1-1.2-0.6-2.5-0.6-3.8c0-5.4-0.6-6-5.8-6.2
		c-4-0.1-8,0.5-11.8,1.5c-5.9,1.6-8.1,5.7-6.3,11.1c4.9,6.3,11.9,10.5,17.1,16.4c1.2,1.3,2.9,2.3,3.2,4.3c0.1,4.2-2.6,6.7-5.6,8.8
		c-9.2,6.3-12.5,15-10.9,25.8c1.4,9.2,3.4,18.2,5,27.3c0.6,3.4,1.1,6.9,0.9,10.4c0.2,22.3,0.2,44.5,0.2,66.8c0,3.5,0.1,7,2.4,10
		c3.4,5,8.4,8.5,12.6,12.7c27.5,27.2,54.6,54.9,82.3,82.1c9.4,9.2,18.9,18.2,28.2,27.5c1.4,1.4,4.3,2.5,2.5,5.5
		c-16.2,0.4-31.8-2.6-47.3-6.8c-30.7-8.3-59-21.8-84.7-40.6c-30-22-54.3-49.1-72.6-81.4c-14.9-26.2-24.9-54.1-29.7-83.9
		c-1.2-7.1-1.5-14.2-1.8-21.4c-0.1-1.8,0.6-3.7-0.5-5.4c0-10.7,0-21.3,0-32c1.1-7,0.6-14.2,1.5-21.3c3.7-27.4,12.1-53.2,24.4-77.9
		c9-18.2,19.9-35,33.2-50.4c15.4-17.9,32.4-34,52.1-47.2c33.3-22.4,69.6-37,109.6-42C283.1,112.5,289.6,113,296,112z"/>
	<path class="st1" d="M293,623c-7.6-8.3-15.8-16-24-23.7c-10-9.5-19.6-19.4-29.4-29.1c-20.5-20.2-40.5-40.9-61.1-60.9
		c-3.9-3.7-8.1-7.3-11.5-11.5c1.8-1.6,4-1.3,6.2-1.4c4.8-0.1,9.7,0,14.5,0c11.2,0,11.7-0.5,11.7-11.4c0-2.5-0.1-5,0.1-7.5
		c0.1-1.8,0.2-3.7,1.7-5.1c2.3-1.3,4.8-1.1,7.3-1.1c68.9,0,137.8,0,206.7,0c8.6,0,9.1,0.7,9.3,9.5c0.1,3.8-0.6,7.7,0.8,11.4
		c1,3.3,3.6,4.1,6.6,4.2c6.3,0.1,12.7,0.1,19,0c7.1-0.1,8.5-1.5,8.5-8.5c0-20.3,0.1-40.6,0.2-60.9c0.5-10.6,2.8-21,4.4-31.5
		c0.8-4.9,1.7-9.8,2.2-14.8c1.2-10.4-1.9-19.1-11.1-24.9c-3.1-2-5.2-4.5-6.3-8c-1.8-5.9-4.1-11.6-6.1-17.4c-0.2-0.8-0.5-1.6-0.5-2.4
		c0-0.9,0.2-1.6,0.8-2.3c1-0.6,2-0.7,3.1-0.6c6.1,0.7,12.1,2.1,18.3,1.6c2.1-0.2,4.6-0.2,5.5-2.6c0.9-2.7-0.5-4.9-2.6-6.5
		c-5.9-4.4-12.7-4.3-19.5-3.6c-2,0.2-2.3,2.1-2.4,3.8c-0.1,1.8,0.5,3.6-0.2,5.4c-0.8,0.8-1.8,1-2.9,0.8c-2.8-0.8-3.5-3.4-4.5-5.6
		c-7.9-18.2-16.5-36.1-25.5-53.9c-1-2-2.8-3.9-1.4-6.4c7.3,7,14.7,13.9,21.7,21.1c3.1,3.2,6.8,5.8,10,9
		c39.4,39.4,78.8,78.8,118.2,118.2c1.6,1.6,3.7,3,3.3,5.8c1.7,1.8,0.9,3.8,0.5,5.7c-3.4,18.2-9.1,35.8-16.4,52.8
		c-8.3,19.6-19.2,37.6-32.2,54.4c-26.1,33.6-58.3,59.5-97,77.2c-22.1,10.1-45.1,17.1-69.1,20.5c-6.9,1-13.9,0.4-20.8,1.4
		c-11.3,0-22.7,0-34,0C294.5,623.3,293.5,623.7,293,623z"/>
	<path class="st2" d="M443.6,328.9c1.4,3.6,3,7,4.1,10.7c2.1,7.1,4.9,12.9,11.6,17.6c8,5.6,9.7,15,8.2,24.7
		c-2.3,14.8-4.5,29.5-6.8,44.3c-0.8,9.7-1.5,19.3-3.5,28.8c-0.5,2.2-0.6,4.6-2.3,6.4c-1.7,1-3.4,1-5.1-0.1
		c-1.3-11.1-0.4-22,3.1-32.7c0.3-1,0.5-1.9,0.6-2.9c2.9-8,4.4-16.5,6.4-24.7c2.1-9.6,4.4-19.3,3.3-29.3c1,8.4-0.5,16.7-2.4,24.8
		c-0.3,1.3-0.3,2.6-0.5,3.9c-2.5,8.1-4,16.6-6.5,24.7c-3.4,10.6-5.3,21.4-4.5,32.6c0.1,1.3,0.4,2.7-0.7,3.8
		c-2.3,1.4-4.8,1.1-7.3,1.1c-14,0-28,0.1-42,0c-5.6,0-10.9,1-15.7,4.1c-3.3,2.1-7,2.9-10.9,2.9c-40.5,0-81,0-121.4,0
		c-3.8,0-7.3-0.7-10.5-2.7c-5.1-3.2-10.8-4.3-16.7-4.3c-13.3,0-26.7,0-40,0c-2.5,0-5,0.2-7.4-0.7c-2.3-1.1-1.8-3.2-1.8-5.1
		c-0.1-3,0-6,0-9c0,3.3,0.1,6.5,0,9.8c0,1.8,0.2,3.8-2.5,3.8c-2.3-1-2.6-3.3-3-5.4c-2.2-12.7-5.3-25.2-6-38.1
		c-2.2-13-4.9-26-6.6-39.1c-1.3-10.1,2.6-18.5,11.3-24.2c3.2-2.1,5.8-4.3,6-8.5c0-7.2,4.1-13.2,5.9-19.8c0.6-1.4,1.8-2.3,2.8-3.3
		c9.7-22.9,20.3-45.4,32.7-67.1c1.8-3.1,3.8-5.4,7.5-5.7c1.2,1.9-0.2,3.4-0.8,5c-1.4,3.7-3.3,7.1-3.7,11.1
		c-7.7,14.4-13.6,29.5-20.2,44.4c-1.5,3.3-3,6.7-4.7,9.9c-1.8,3.6-1.5,6,2.7,7.1c0.5,0.8,0.5,2.1,1.6,2.5c6.3,1.9,10.9,6.8,16.6,9.8
		c6.3,3.4,12.6,7.2,19,10.7c7.5,4.2,14.3,9.7,24.4,9.2c9.1-0.4,18.5-0.2,27.7-0.1c8.3,0.1,16.8,0.1,25.2,0c11.2-0.1,22.5-1,33.8,0.3
		c4.7,0.5,9.5-0.9,14.4-0.7c3.8,0.2,7.4,0.9,11.3,0.4c4.6-0.6,8.7-2,12.5-4.5c3.6-2.4,7.5-4.4,11.8-5.2c1.8-0.4,3.5-1.2,4.9-2.5
		c6.8-6.5,15.1-10.8,23.2-15.5c1.9-1.1,3.8-2.2,4.3-4.5c6.1-2.3,6.1-2.3,3.3-8.6c-7.6-17.3-15.4-34.6-23.1-51.9
		c-1.5-4-3.4-7.9-4.9-11.9c-0.6-1.7-1.7-3.3-0.4-5.1c5.1,0.1,6.5,4.7,9.1,7.8c8.1,17.1,16.2,34.1,24.3,51.2c2.2,4.6,4.3,9.3,6.4,14
		c1.8,0.5,1.4,2,1.4,3.3c0,0.5,0,1,0,1.5c-0.4,1.6-1.3,3-2,4.4c-0.3,0.6,0.8,0.5,0.1,0.3c-0.1,0-0.2-0.2,0-0.5
		C442,331.1,441.9,329.4,443.6,328.9z"/>
	<path class="st2" d="M225.9,250.1c13.2-2.7,26.7-3.8,40.1-4.8c14.9-1.1,29.9-1.4,44.9-2.1c2.3,1.7,0.5,4.2,1.3,6.3
		c0.8-2.1-1.6-4.9,1.4-6.4c28.9,0.1,57.6,2.1,86.2,6.4c1.3,3.7,3.1,7.2,4.5,10.9c0.7,2,1.5,4.1-1.1,5.5c-2.4,0.8-4.6-0.1-6.9-0.3
		c-9.1-0.8-18.2-1.5-27.3-2c-28.3-1.6-56.6-1.8-84.9-0.9c-19.6,0.6-39.2,1.1-58.6,3.6c-1.3,0.2-2.7,0.2-4-0.2
		c-1.3-0.4-2.1-1.4-1.6-2.6C221.2,258.7,222,253.7,225.9,250.1z"/>
	<path class="st3" d="M163.4,418c2.9,14.3,5.8,28.7,8.7,43c0.6,0.8,1.1,1.6,1.4,2.6c2.6,7.8,2.8,7.9,10.7,7.9c3.8,0,7.6-0.1,11.4,0
		c1.9,0.1,4-0.2,5.4,1.7c0,6-0.1,11.9,0,17.9c0.1,4.6-2.2,6.7-6.6,6.7c-9.1,0-18.2,0-27.3,0c-3.5-1.7-3.6-4.8-3.6-8
		C163.4,465.8,163.4,441.9,163.4,418z"/>
	<path class="st4" d="M154,327.2c-3-3.7-2.7-6.7,0.9-10.3c3.8-3.8,18.3-6.4,23.2-4.4c2.3,1,2.2,2.7,2,4.5c-0.2,2-0.6,3.9-0.9,5.9
		c0.8,1.7,0,2.9-1.1,4C170.1,329.3,162.1,331.6,154,327.2z"/>
	<path class="st5" d="M154,327.2c8,1.4,15.8,0.6,23.6-1.1c1.3-0.8,2.5-1.2,3.5,0.4c-2.3,6.6-4.7,13.2-7,19.8
		C167.7,339.6,160.1,334.3,154,327.2z"/>
	<path class="st6" d="M404.3,264.9c-1.5-3.9-3-7.9-4.5-11.8c-0.5-1.2-1.5-2.3-0.1-3.5c0.7,0.2,1.4,0.4,2.1,0.6
		c2,5.5,4.1,11,6.1,16.5C405.9,267.7,404.8,266.7,404.3,264.9z"/>
	<path class="st7" d="M225.9,250.1c-1.9,4.9-3.8,9.8-5.7,14.8c-0.7,1.3-1.5,2.3-3.2,1.7c0.7-5.9,4.1-10.8,6-16.3
		C224,250.3,225,250.2,225.9,250.1z"/>
	<path class="st8" d="M313.5,243.2c-0.2,1.9-0.8,3.9,0.4,5.7c0.5,0.8,1.6,1.4,0.3,2.4c-1.2,0.8-2.5,1-3.7,0.2
		c-1.1-0.7-0.6-1.5,0-2.5c1.1-1.8,0.5-3.8,0.4-5.7c0.7-1.5-0.7-3.6,1.5-4.9C313.8,239.7,312.9,241.7,313.5,243.2z"/>
	<path class="st9" d="M181.2,326.5c-1.2-0.1-2.4-0.2-3.5-0.4c0.5-1.1,1-2.1,1.6-3.2c1.2,0,2.4,0.1,3.6,0.1
		C182.7,324.4,182.3,325.6,181.2,326.5z"/>
	<path class="st10" d="M201,473.3c-5.6-0.1-11.3-0.2-16.9-0.2c-10.2,0-12-1.8-12-12.1c2.5-0.3,1.8-2.3,1.9-3.8
		c0.1-4.4,0.2-8.8,0.2-13.2c2.2,0.6,1.2,2.4,1.3,3.7c0.4,4.4-0.5,8.9,0.5,13.3c16.1,0,32.3,0.1,48.4,0c6.7,0,12.8,1.3,18.3,5.2
		c2,1.4,4.2,1.8,6.6,1.8c41.8,0,83.5,0,125.3,0c3.4,0,6.2-1.1,8.8-3c4.1-2.9,8.7-4,13.6-4c17.3,0,34.6,0,51.9,0
		c0.4-0.6,0.7-0.6,1.1,0c1.6,0,3.2,0,4.8-0.1c3,6.8-0.4,13-7.6,13.5c-5.5,0.4-10.9,0.2-16.4,0.1c-3.8-0.1-5.5,1.4-5.3,5.3
		c0.1,2.6,0.1,5.3-0.1,8c-0.1,1.8,0.1,3.7-1.9,4.8c-0.1-4.7-0.5-9.3-0.2-14c0.3-4.4-1-5.6-5.5-5.6c-24.7,0.2-49.3,0.1-74,0.1
		c-45.8,0-91.6,0-137.5,0C204.6,473.1,202.8,473.2,201,473.3z"/>
	<path class="st11" d="M423.6,492.6c0-5,0.3-10,0.1-15c-0.1-3.4,0.8-4.8,4.4-4.6c5.5,0.3,11,0.1,16.5,0.1c8.2,0,8.4-0.1,10.1-8.2
		c0.3-1.3,0.2-2.6,0.3-3.9c2-11.6,4-23.2,6-34.8c0,21.6,0,43.2,0.2,64.8c0,4.6-2,6.8-6.5,6.8c-8.1,0-16.3,0-24.4,0
		C426.4,497.9,423.9,496.6,423.6,492.6z"/>
	<path class="st12" d="M444.8,323c-2.3-10.3-1.6-11.3,9-10.8c5.1,0.2,10.3,0.3,14.5,4c2.7,2.4,4.5,5.2,3.4,8.7
		c-1.1,3.3-4.5,2.8-7.2,3c-6.1,0.3-12.2-0.3-18.2-1.7C445.1,325.4,444,324.7,444.8,323z"/>
	<path class="st13" d="M443.6,328.9c-1.5,2.1-1.9,5-4.4,6.5c0.9-2.7,1.8-5.3,3.7-7.5C443.2,328.3,443.4,328.6,443.6,328.9z"/>
	<path class="st14" d="M444.8,323c0.5,1,1,2.1,1.5,3.1c-1.1,0.1-2.2,0.2-3.4,0.3c-1-0.9-1.1-2.1-1.4-3.3
		C442.6,323.1,443.7,323,444.8,323z"/>
	<path class="st15" d="M427,328.2c3.1,2.6-0.1,3.1-1.5,4c-6.8,4.4-14.7,7.2-20.6,12.9c-7.9,7.8-19.3,9-28.3,15
		c-3.2,2.1-9.1,2.6-14.4,1.3c-4.7-1.1-10.2-1.7-15.1,0.9c-2.2,1.2-3.2-1.4-5-1.2c-5,0.5-10.3-1.4-15.1,1.3c-2.2,1.2-3.4-1.7-5.5-1.3
		c-4.8,0.7-9.8-1.1-14.7,1.3c-2.3,1.1-4.7-1.6-7.5-1.4c-8.9,0.7-17.9-0.3-26.6,0.5c-8.3,0.7-16.5-1.9-24.6,0.1
		c-0.3,0.1-0.9,0.3-0.9,0.2c-3.6-4.9-9.4-6.2-14.3-9.1c-1.3-0.8-2.3-2.6-3.9-2.9c-7.6-1.3-11.9-8.9-19.8-10.1
		c-2.7-0.4-4.8-4.7-8.1-6.1c-1-0.5-1.8-1.3-3.1-1.2c-3.9,0.3-3-1.8-1.9-3.9c4.6-3.1,10-2.3,14.9-2.4c13.1-0.4,26.2-0.9,39.3-1.4
		c38.2-1.7,76.5-0.8,114.7-0.5c19.4,0.1,38.8,0.7,58.1,2.7C424.5,326.7,426,326.8,427,328.2z"/>
	<path class="st16" d="M233,390.9c0.7-1.3,1.4-2.6,3-3c1,1.6,2.6,1.9,4.3,1.8c7.8-0.3,15.6,0,23.4,0c0.7,0,1.3,0,2-0.1
		c1-0.1,2.2-0.3,2.3-1.5c0.1-1.4-1.3-1.4-2.2-1.3c-9.5,0.9-19.2-1.9-28.5,1.7c-0.5,0.2-1-0.1-1.3-0.5c2.5-4.7,6.3-8.5,10-12.2
		c1,0.4,1.5,1.2,1.4,2.3c-0.4,1.2-1.5,2.2-1.6,4c6.7,0.4,13.3,0.1,19.9,0.1c1.9,0,2.7-1,2.7-2.8c0.5-2.1-0.6-4.9,2.6-5.7
		c0.5,0,0.9,0.1,1.3,0.4c0.9,1.1,1.2,2.5,1.3,3.9c-0.5,3,0.2,4.9,3.8,4.4c1.5-0.2,3-0.2,4.5-0.1c10.2,0.2,20.3-0.2,30.5,0.1
		c0.4-0.1,0.9-0.1,1.3-0.1c3.3,0,6.6,0.1,9.9,0.1c0.4-0.1,0.9-0.1,1.4-0.1c5.3,0.3,10.5,0.1,15.8,0.1c3.7,1.4,3.8-1.7,4.7-3.8
		c0.5-1.3,0.3-3.5,2.2-3.4c2,0,3,1.9,3.8,3.5c0.6,3,2.5,4,5.4,3.7c2-0.2,4-0.1,6-0.1c3.6,0.4,7.2-0.1,10.8,0
		c1.7,0.2,3.4,0.5,5.1-0.3c1.2-0.4,1.5-2.2,3.1-2c1.3,1.6,2.5,3.3,3.8,4.9c-1.4,2.3-3.6,2.8-6,2.2c-1.8-0.4-3.6-0.5-5.4-0.5
		c-2,0-4,0.1-6.1-0.1c-1.8-0.2-3,1.6-4.8,1.5c-0.4-0.2-0.8-0.4-1.1-0.6c-1.5-1-3.3-0.8-5-1c-1.1-0.2-2.2-0.2-3.3,0
		c-1.2,0.3-3.1-0.3-3.1,1.5c0,2.4,2,1.3,3.4,1.3c0.5,0,0.9,0,1.4,0c2.4,0.5,4.7,0.3,7.1,0.2c1.3-0.1,2.5-0.4,3.8-0.3
		c3.2,0.5,6.3,0.3,9.5,0.2c1.1-0.1,2.2,0,3.3,0c2.5,0.1,5.1-0.1,7.6,0.2c1.2,0.4,2.7,0.7,2.5,2.4c-0.3,1.7-1.8,2-3.3,2.3
		c-2.3-0.6-4.7-1.9-7.1-0.1c-1.9,0.3-3.5-0.6-5.3-0.9c-1.9-0.3-3.8-0.3-5.6,0.9c-1.7,0.3-3.5,0.3-5.2,0c-2-1.3-3.9-1.2-5.9,0.1
		c-6.3,0.3-6.3,0.3-5.7,9.4c0.1,1.4,0.9,1.9,2.3,1.7c2-0.4,3.4,0.3,4.2,2.3c0.2,0.7,0.2,1.4,0,2.1c-0.8,2-2.6,1.4-4.1,1.6
		c-1.3,0.2-3-0.9-3.7,1.2c0.2,3.5-1,7,0.8,10.4c4.6,0.7,9.1-0.1,13.7,0.3c1.7-0.3,3.4-1.1,5.2-0.6c2.9,1.1,5-0.4,6.8-2.4
		c0.8-0.5,1.6-0.9,2.6-0.3c-1.3,3-2.6,5.9-5,8.2c-6.2,0-12.4-0.5-18.7-0.4c-1.5,0-4.3-1.1-4.2,1.5c0.1,1.9,2.7,1.3,4.2,1.2
		c6.2-0.6,12.7,0.6,18.7-2.3c-1.1,3.3-2.1,6.7-5.9,7.9c-1.2,0.5-2.3-0.2-3.4-0.5c-3.1-1.9-6.3-1.7-9.5-0.1c-5.4-0.2-10.8,0.8-16.2,0
		c-1.9-1.3-3.9-1.4-5.9-0.1c-1.8,0.2-3.5,0.3-5.3,0c-1.9-1.2-3.8-1.3-5.7,0.1c-1.8,0.5-3.5,0.2-5.3-0.1c-1.9-1.3-3.8-1.2-5.7-0.1
		c-1.7-0.5-3.5-0.9-5.2,0c-1.9-1.1-3.7-1.2-5.6,0c-2.1,0.8-3.8-0.5-5.7-0.9c-1.9-0.2-3.7-0.1-5.4,0.9c-2.1,0.7-3.8-0.6-5.6-0.9
		c-1.9-0.3-3.8-0.1-5.5,1.1c-5.4,1.4-10.7,0.1-16.1,0c-1.3-0.3-2.6-2.2-3.7,0.3c-0.4,0.6-0.9,0.8-1.6,0.5c-2.1-0.1-3.2-1.6-4.1-3.2
		c-3.2-6-6.4-12-9.6-18c-0.3-0.2-0.4-0.5-0.3-0.8c0-0.3,0.1-0.4,0.2-0.4c2-1.8,4.5-1.9,6.3-0.4c2.4,2-1,4.1-0.6,6.3
		c1.2,2.8,3.3,3.9,6.3,3.7c3.1-0.2,6.3-0.1,9.4,0c1.6,0,3.4,0.4,4.3-1.6c-0.1-4,0.8-7.9,0.4-11.9c0.1-4,0.8-8-0.6-12
		c-0.1-2.1-0.2-3.3-3.3-3.5c-7.2-0.3-14.4-0.5-21.6,0.1c-3.2,0.3-6.6-0.3-9.7-1.8C233,392.3,232.5,391.8,233,390.9z"/>
	<path class="st17" d="M427,328.2c-54.8-4-109.8-3.7-164.7-3c-22.1,0.3-44.2,2-66.3,3c-6.6-0.2-6.8-0.3-4.1-6.4
		c7.6-17.2,15.3-34.3,22.9-51.5c0.6-1.4,1-2.8,2.3-3.7c1.1-0.6,2.1-1.2,3.2-1.7c19.6-1.4,39.2-2.7,58.8-3.3c31.6-1,63.3-1,94.9,1.2
		c10.1,0.7,20.2,1.4,30.4,2.1c1.2,0.6,2.4,1.2,3.6,1.8c6.7,12.9,11.9,26.5,18,39.7c2.4,5.1,4.6,10.3,6.9,15.4
		c2.5,5.7,2.1,6.3-4.3,6.3C428,328.1,427.5,328.2,427,328.2z"/>
	<path class="st18" d="M242,454c-3.2-2.8-7.1-3.2-11.2-3.3c-11.2-0.7-22.4,0.1-33.7-0.4c0.1-2.4,1.6-2.4,2.8-2.6
		c1.8-0.3,3.7-0.2,5.5-0.2c71.4,0,142.8,0,214.2,0c2.8,0,5.9-0.8,9.4,2.5c-11.9,1-22.9-0.1-33.8,0.7c-3.7,0.1-7.3,0.7-10.2,3.3
		c-2,1.4-4.3,1.5-6.7,1.5c-43.2,0-86.4,0-129.5,0C246.3,455.5,244.1,455.4,242,454z"/>
	<path class="st19" d="M168.2,372.2c0-14.3,4.9-18.1,18.5-13.9c11.8,3.6,22.7,9.5,33.5,15.4c3.6,2,4.8,5,3.5,8.9
		c-5.3,15.9-3.5,16.2-19.7,14.6c-6-0.6-11.9-1.2-17.8-2.5C171.9,391.5,168.2,386.8,168.2,372.2z"/>
	<path class="st20" d="M456,372.4c0,1.5,0.1,3,0,4.5c-0.7,10.1-3.7,13.7-13.4,16.7c-10.1,3-20.6,3.9-31.1,4.1
		c-9.3,0.1-7.7-9-10.3-14.4c-1.7-3.6-1.2-7.3,2.8-9.4c10.8-5.9,21.6-11.8,33.4-15.4C451.7,354.1,456.2,357.5,456,372.4z"/>
	<path class="st21" d="M357,410c0-0.7,0-1.4,0-2.1c0.4-2.3,1.9-2.5,4-2.5c7.7,0.2,15.4,0.2,23.1-0.3c-11.4-1.8-22.8,0.6-34.2-1.2
		c-0.1-1.6-0.2-3.3-0.4-4.9c-0.5-6.3,0.7-7.1,7.3-4.9c2.1-1.8,4.2-1.9,6.3,0c1.6-1.2,3.2-1.3,4.8,0c1.5-2.3,4.4-0.5,6.2-2.1
		c1.6,0.7,3.2,1.4,4.8,2.1c0.5-0.6,1.2-0.7,1.9-0.4c0.4,0.3,0.6,0.6,0.7,1.1c0.5,2.9,2.2,1.1,3.5,0.9c2.5,0,4.3-1.6,6.1-3.1
		c1.8,1.6,2.5,3.4,1.1,5.7c-4.4,7.3-8.7,14.6-13.1,21.9c-0.6,0.3-1.3,0.7-1.9,1c-3.2-0.7-5.9,0-7.9,2.8c-1.8-0.9-3.1,0.7-4.6,1
		c-1.6-1,0.4-4.7-2.8-4.1c-3.5,0.7-8.1-2.7-10.5,2.7c-0.4,1-1.2,1-2,0.7c-1.5-3.9-0.6-8-0.5-12c10.5,1,21,0.7,31.5-0.3
		c-6.3,0-12.6-0.7-18.9-0.2C359.8,411.7,358.3,411.2,357,410z"/>
	<path class="st22" d="M220,407.6l0,0.4l0.4,0.1c4.6,5.5,7.1,12.2,10.8,18.2c1.6,2.5,3,5.1,4.4,7.8c1.8,3.4,0.7,5.5-3,5.9
		c-3.4,0.3-6.9,0.4-10.4-0.4c-8.3-0.1-16.6,0.4-24.8-0.5c-2.7-0.3-5-0.8-4.9-4.2c1.8-7.7,3.3-15.5,5-23.2c0.5-2.2,0.9-4.2,3.4-5
		c5.3,0,10.5-0.1,15.7,0C217.8,406.6,219.3,405.9,220,407.6z"/>
	<path class="st23" d="M272.9,377.9c-0.9-1.1-1.2-2.3-1-3.7c1.5-1.9,3.6-1.6,5.5-1.6c30.8,0,61.6,0,92.5,0c1.8,0,3.7-0.1,5.2,1.2
		c3.3,0.9,5.1,3.4,6.7,6.2c-1.1,0.8-0.4,3.1-2.6,3c-1.2,0.6-2.2-0.1-2.2-1c-0.2-4.1-2.2-1.6-3.7-1.1c-1.9,1.2-3.7,1.2-5.5,0
		c-1.4-1-3-1.3-4.7-1.2c-4.1-0.6-8.2,0.9-12.2-0.6c-1-1.2-1.9-2.5-3.2-4.1c-0.6,2-0.9,3.1-1.2,4.1c-1.6,1.3-3.5,0.3-5.3,0.6
		c-3.1-0.3-6.2,0-9.3-0.1c-1.5,0-3.2-0.3-3.8,2c-0.5,2.3-3,0.1-4.1,1.5l0,0c-1.2-0.7-6.4-0.9-8.7-0.4c-0.7,0.2-1.6-0.3-2.3,0.4l0,0
		c-1,0.4-1.5-0.2-2-0.9c-0.4-0.6,0.1-1.4-0.4-1.9c-1.3-1.5-14.2-0.9-15.3,0.9c-1.9,2.9-5.2,2-6.1,0.7c-2.3-3.7-4.7-1.7-7.3-1.2
		C278.8,380.1,275.5,380.2,272.9,377.9z"/>
	<path class="st24" d="M196.9,446.2c20.8-0.1,41.6-0.2,62.4-0.2c56.3,0,112.5,0,168.8,0.1c0.5,1.1,0.2,2.1-1,2.4
		c-1.1,0.3-2.3,0.1-3.5,0.1c-74,0-148.1,0-222.1-0.1C199.9,448.4,196.9,450,196.9,446.2z"/>
	<path class="st25" d="M242,454c47.6,0,95.3,0,142.9,0c-1,1.6-2.2,3-4,3.8c-4.3,0.8-8.6,0.7-12.9,0.7c-35.6,0-71.1,0-106.7,0
		c-5.1,0-10.3,0.1-15.4-0.6C244.2,457.1,242.9,455.7,242,454z"/>
	<path class="st24" d="M246,457.9c1.4-1.4,3.1-0.9,4.7-0.9c41.8,0,83.7,0,125.5,0c1.6,0,3.4-0.5,4.8,0.8c-2.6,2.1-5.8,2.4-8.9,2.4
		c-39.2,0-78.4,0-117.6,0C251.4,460.2,248.5,459.9,246,457.9z"/>
	<path class="st26" d="M196.9,446.2c1,3.1,3.6,1.8,5.5,1.8C268,448,333.6,448,399.2,448c8.2,0,16.3,0,24.5,0c1.7,0,3.9,0.8,4.4-1.9
		c0.3-0.3,0.6-0.6,0.8-0.9c1.7,1.9,1.7,3.8,0,5.7c-11.3,0-22.5-0.1-33.8-0.1c6.7-1.6,13.5-0.3,20.3-0.7c3.8-0.2,7.6,0,11.4-0.8
		c-76.2,0-152.4,0-228.7,0c0,0.2,0,0.5,0,0.7c5.8,0,11.6-0.1,17.4,0c5.1,0.2,10.3-0.8,15.3,0.6c-11.6,0-23.2,0-34.8,0
		c-1.5-1.6-1.5-3.2,0.1-4.8C196.4,446,196.7,446,196.9,446.2z"/>
	<path class="st27" d="M243,414.1c0,0.3,0,0.6,0,0.9c-3.5-6.2-7.1-12.4-10.6-18.6c-1-1.8-1.3-3.8,0.6-5.4c0.4,0.4,0.7,0.7,1.1,1.1
		c3.3,3.9,7.3,6.7,12.4,6.6c7.5-0.1,15.1,1.6,22.6-0.6c2.9,3.8,0.8,8,1,12c-4.2,2.2-8.8,1.2-13.2,1.2c-3.4,0.1-6.9,0.4-10.3,0.1
		C244.2,411.2,243.7,412.6,243,414.1z"/>
	<path class="st28" d="M375.1,373.8c-32.6,0.1-65.1,0.1-97.7,0.2c-1.8,0-3.7,0.1-5.5,0.2c0,0-0.5-0.1-0.5-0.1l-0.4,0.1
		c-5.6,2.1-11.4,1.4-17.2,1.3c-1.5,0-3-0.3-3.9-1.7c-3.6-1.7-7.5-0.4-11.3-0.8c-1.9-0.2-4,0.5-5.8-0.8c1.2-1.3,2.8-0.7,4.2-0.7
		c50.2,0,100.5,0,150.7,0c1.4,0,3-0.6,4.3,0.7c-3.7,1.6-7.5,0.4-11.2,0.8C379,373.2,376.9,372.4,375.1,373.8z"/>
	<path class="st29" d="M328.2,435c1.6-1.3,3.2-1.1,4.8,0c2.1-1.9,4.1-1.8,6.1,0c5.3,0,10.5-2,15.8,0c3.4-2,6.8-2,10.1,0
		c1,0.4,2.1,0.7,3.1,1.1c-1.4,1.3-3.1,0.9-4.8,0.9c-34,0-67.9,0-101.9,0c-1.6,0-3.4,0.4-4.8-0.8c0.4-0.3,0.9-0.6,1.3-0.8
		c1.2-2.7,2.6-1.3,4.1-0.3c1-0.5,2-1.3,3.2-0.8c4.1,1.7,8.5,0.4,12.7,0.8c1.5-2.3,4.4-0.5,6.1-2c1.6,0.7,3.3,1.4,4.9,2
		c1.5-2.3,4.3-0.5,6.1-2c1.7,0.7,3.3,1.3,5,2c2.1-1.9,4.1-1.8,6.2,0c1.6-1.9,3.3-1.5,4.9,0c2-1.9,4.1-1.8,6.1,0
		c1.6-1.5,3.2-0.2,4.8,0C324,433.1,326.1,433.2,328.2,435z"/>
	<path class="st30" d="M428.9,450.9c0-1.9,0-3.8,0-5.7c1-2.9,3.7-4.9,4.1-8.1l0,0.1c2.5-1.8,3.2-4.8,5-7.2c0.6-0.7,0.9-1.9,2.1-1.8
		c1.3,0.1,1.5,1.2,1.7,2.1c2.5,9.1,2.9,18.2,1,27.5c-0.4,2.3-1.4,2.8-3.4,1.3C436,456.3,432.4,453.6,428.9,450.9z"/>
	<path class="st9" d="M196.2,446c0,1.6-0.1,3.2-0.1,4.8c-3.6,2.7-7.2,5.3-10.7,8c-1.7,1.3-3.1,2-3.6-1.1c-1.7-9.2-1.6-18.4,1.1-27.5
		c0.3-0.9,0.2-2.1,1.6-2.1c1.2,0,1.5,1.1,2.1,1.9c1.9,2.6,2.9,5.9,5.6,8l0-0.1C192.5,441.1,195,443.2,196.2,446z"/>
	<path class="st31" d="M392.1,372.2c-28.6-0.1-57.2-0.2-85.9-0.2c-24.5,0-48.9,0.2-73.4,0.2c-1.7-0.7-3.3-1.5-5-2.2
		c0.4-0.5,0.9-0.5,1.4-0.1c3.9,1.1,7.8,1.1,11.8,1.1c49,0,97.9,0,146.9,0.1c2.7,0,5.2-0.8,7.8-1.2c0.1,0.1,0.2,0.3,0.4,0.4
		C394.8,370.9,393.5,371.6,392.1,372.2z"/>
	<path class="st32" d="M391.1,392.4c-0.5,3.3-1.9,5.1-5.6,3.6c-1.8,1.2-3.1,0.2-4.4-0.9c0-0.3-0.1-0.7-0.1-1c1-2,1-2,4-0.1
		c1-1,3-0.4,3.5-2.1c0-0.1-1-0.6-1.5-0.9c-2.6-1.2-5.3-1.4-7.9,0c-1,0-2.1,0-3.1,0c-3.2-1.8-6.8,0.1-10.1-1c-0.8,0.6-1.7,1.1-2.8,1
		c-0.7-0.6-0.9-1.4-0.7-2.3c0.2-0.4,0.4-0.7,0.8-0.9c1.5-0.6,2.2-3.2,4.6-1.9c2.1,0.6,4.3,0.6,6.4,0c3.7-1.3,7.8,1.8,11.4-1
		C387.4,387.5,389.3,389.9,391.1,392.4z"/>
	<path class="st33" d="M249.9,373.8c7,0.1,14.1,0.3,21.1,0.4c-2.4,1-0.2,3.5-1.5,4.8c-6.9,1.6-13.8,1.1-20.7,0.3
		c-0.8-0.1-1.5-0.6-1.9-1.4c-0.3-0.7-0.7-1.4-1-2.1C246.9,374.3,248.4,374,249.9,373.8z"/>
	<path class="st34" d="M223,439.2c2.3,0,4.6-0.1,6.9,0c6.5,0,7.1-1,3.9-6.9c-4.5-8.1-8.9-16.2-13.4-24.3c2.2-0.1,2.5,1.9,3.3,3.2
		c4.1,7.2,8.1,14.4,12.1,21.6c2.8,5.1,1.1,8.1-4.5,8.1c-2.8,0-5.6,0.6-8.3-0.7c-0.3-0.2-0.5-0.5-0.3-0.7
		C222.8,439.3,222.9,439.2,223,439.2z"/>
	<path class="st35" d="M429.1,419.9c2,5.6,2.6,11.4,3.9,17.1c0,0,0-0.1,0-0.1c-2.2,2.3-4.8,3.1-8,3.1c-7.3-0.1-14.6,0.1-21.9,0.1
		c-1.9,0-4.1,1.6-5.4-1.1c1.8-2,4.3-1.5,6.5-1.6c6.8-0.2,13.6,0.2,20.4-0.9c3.7-0.6,4.7-2.1,4.1-5.7c-0.7-3.5-2.3-7-1.2-10.8
		C428.1,419.7,428.6,419.6,429.1,419.9z"/>
	<path class="st36" d="M166.5,411.2c-2.8-14.5-9.4-28.6-4.5-43.8C158.4,382.5,165.2,396.6,166.5,411.2z"/>
	<path class="st37" d="M397.9,439.2c1.6,1.3,3.5,0.5,5.3,1c-3.7,1.3-7.5,0.8-11.3,0.7c-4.1-0.2-5.7-3.3-3.9-6.9
		c2.1-4.1,4.6-8,6.9-12c0.4,0.3,0.6,0.7,0.8,1.2c0.2,3.4-1.9,5.8-3.3,8.5c-2.4,4.5-2.2,5.1,2.6,6.1C396.1,438,397.3,438,397.9,439.2
		z"/>
	<path class="st38" d="M200.1,407.1c-3.6,7.7-3.7,16.2-6,24.2c-0.3,0.9-0.6,1.8-1,2.7c-0.3,0.5-0.6,0.5-1,0
		c1.6-7.9,3.2-15.8,4.8-23.8c0.4-1.9,1.1-3.5,3.2-4c0.3,0.2,0.4,0.4,0.3,0.5C200.3,407,200.2,407.1,200.1,407.1z"/>
	<path class="st39" d="M192.2,434c0.3,0,0.6,0,1,0c-0.2,3.3,1.6,4.3,4.6,4.4c8.4,0.2,16.9,0.5,25.3,0.8c0,0.3-0.1,0.6-0.1,1
		c-8.2-0.1-16.3-0.2-24.5-0.2c-2.5,0-4.5-0.9-6.5-2c0,0,0,0.1,0,0.1C192.1,436.7,192.1,435.4,192.2,434z"/>
	<path class="st40" d="M450,461c-0.4,0-0.7,0-1.1,0c-0.3-11.7-0.2-23.3,4.1-34.5c0.2-0.6,0.7-1,1-1.5c0,0,0,0,0,0
		c0,1,0.2,2.1-0.1,2.9C449.9,438.7,449.7,449.8,450,461z"/>
	<path class="st41" d="M460,401c0.3-7.8,3.3-15.2,3-23.1c-0.1-2.3,0-4.6,0.5-6.8C464.6,381.3,463.7,391.3,460,401L460,401z"/>
	<path class="st42" d="M399.8,413.8c1.6-6,5.2-9,11.7-7.9c4.5,0.7,9.2-1.2,13.6,1.1c-0.2,0.2-0.4,0.4-0.5,0.6
		c-2.8,1.3-5.8,1-8.7,0.7c-5.9-0.5-11,0.5-14.5,5.8C400.7,414.3,400.2,414.2,399.8,413.8z"/>
	<path class="st43" d="M454,425c1.1-8.2,3.2-16.2,6-24c0,0,0.1,0.1,0.1,0.1C459.2,409.3,457.2,417.3,454,425
		C454,425,454,425,454,425z"/>
	<path class="st44" d="M201.7,354.4c-4.8-4.6-9.5-9.3-14.2-14C192.2,345.1,197,349.7,201.7,354.4z"/>
	<path class="st45" d="M200.1,407.1c0.1-0.2,0.1-0.5,0-0.8c5.8-0.1,11.5-0.2,17.3-0.3c1.2,0,2.3,0.1,2.7,1.6
		C213.4,406.4,206.7,407.3,200.1,407.1z"/>
	<path class="st46" d="M175.9,461c-1.9-3.2-0.6-6.6-1-9.9c-0.3-2.4,0.7-4.9-0.8-7.1c1.6-0.4,1.8-0.4,1.8,1.2
		C176,450.4,176,455.7,175.9,461z"/>
	<path class="st42" d="M429.1,419.9c-0.3,0-0.7,0-1,0.1c-3.4-3.6-3.6-8.1-3.5-12.7c0,0,0.3-0.3,0.3-0.3
		C429.1,410.4,428.1,415.5,429.1,419.9z"/>
	<path class="st41" d="M171.7,430.2c-1.4-4.4-3.5-8.7-3.4-13.6C170.2,421,171.4,425.4,171.7,430.2z"/>
	<path class="st47" d="M229.2,369.9c-0.5,0-0.9,0.1-1.4,0.1c-3.8-1.4-7.5-2.9-10.2-6.2C221.5,365.9,225.4,367.9,229.2,369.9z"/>
	<path class="st48" d="M395.8,369.8c3.1-1.7,6.2-3.3,9.3-5c0.2,0.4,0.4,0.7,0.6,1.1c-3.1,1.6-5.9,3.6-9.5,4.3
		C396.1,370.1,396,370,395.8,369.8z"/>
	<path class="st49" d="M395.2,423.5c-0.1-0.5-0.2-1-0.2-1.5c1.5-2.8,2.6-5.8,4.8-8.1c0.2,0.1,0.4,0.2,0.5,0.5
		C400.5,418.4,399.1,421.6,395.2,423.5z"/>
	<path class="st50" d="M346.9,399.2c-0.3,3.9,1.2,8-0.9,11.8c-6.1,2.4-12.5,1.2-18.7,1.2c-14.6,0-29.3,0.2-43.9,0.1
		c-3.8,0-8.1,1.1-11.3-2.4c0.4-3.7-1.1-7.5,0.8-11.1c1.5-1.3,3.4-1.4,5.2-1.4c21.8,0,43.5-0.1,65.3,0.2c0.7,0,1.3,0.2,2,0.4
		C345.9,398.3,346.4,398.7,346.9,399.2z"/>
	<path class="st51" d="M274,419c0-1.4,0-2.7,0-4.1c3.7-2.8,8.1-2.7,12.3-2.5c5.9,0.2,11.8,0.3,17.7,0.3c12.3-0.1,24.7-0.2,37.1-0.3
		c2.1,0,4,0.1,4.9,2.5c0.8,1.3,1.1,2.6,0.1,3.9c-2.1,2.9-5.3,0.9-7.9,1.6c-1.7,0.5-3.6-0.1-5.5,0.1c-18,0-36.1-0.1-54.1-0.1
		C276.9,420.5,275.3,420.4,274,419z"/>
	<path class="st52" d="M274,419c18.5,0,37,0.1,55.5,0.1c1.2,0,2.2,0.1,3.3,0.6c0.2,0.1,0.4,0.2,0.6,0.2c2.1,1.4-0.9,2.5-0.2,3.8
		c-3.7,2.6-7.9,1-11.7,1c-15,0-29.9-0.1-44.9,0.1C273.6,424.9,272.3,421.9,274,419z"/>
	<path class="st53" d="M346.9,399.2c-0.3-0.1-0.6-0.2-0.8-0.3c-3.9-0.5-7.7-0.9-11.7-1c-5.8-0.2-11.7,1.4-17.4-0.6
		c-1.6-0.6-2.9,0.8-4.2,0.9c-2.6,0.1-5.8-1.4-7.7-0.9c-5.9,1.7-11.8-2.2-17.4,0.9c-1.2,0.7-2.2-0.3-3.2-0.7
		c-1.9-0.7-4.2-1.3-5.8-0.2c-2.8,2.1-4.5,0.2-6.5-1.1c0.1-5,5.4-3.8,6.6-3.6c6,1.1,12.2,0.3,18,0.1c4.9-0.2,10.2,1.7,15.2-0.5
		c1.4-0.6,3.3-0.6,4.9,0.3c1.7,1,3.4,1.1,5.1,0.1c0.7-0.4,1.8-0.8,2.4-0.5c5.3,2.6,11-1.9,16.2,1.2c0.3,0.2,0.7,0.4,0.9,0.3
		C349.7,389.4,346,396.4,346.9,399.2z"/>
	<path class="st54" d="M243,414.1c-0.7-2.7-1.9-4.9,3.2-4c5.5,1,11.4,0.3,17.1-0.2c2.3-0.2,4.4,0.9,6.7,0.2c0.3,4,0.1,8-0.7,12
		c-7.4-0.4-14.9,0-22.2-1.9c-0.2-0.8-0.9-1.7-0.6-2.2c0.7-1.2,3.7-1.7,2.2-3.4C247.6,413.1,245,413.3,243,414.1z"/>
	<path class="st55" d="M269,398c-2.1,4.7-6.9,2.7-9.5,2.3c-4.6-0.7-9,0.7-13.6-0.2c-2.4-0.5-4.9,1.1-5.5-2.8
		c-0.1-0.9-1.3-0.7-2.2-0.5c-4.5,1.1-4.5-1.7-4.3-4.8c4.3,0.2,8.5,0.9,12.8,0.9c5.7,0,11.7-1.6,17.3,0.6c0.3,0.1,0.7,0.3,0.9,0.2
		C272.3,389.8,268.5,395.8,269,398z"/>
	<path class="st56" d="M346,415c-2.9-3.3-6.8-1.1-10-1.3c-11.7-0.5-23.5-0.3-35.1,0.6c-6.1,0.5-11.9-1.1-18-0.7
		c-3.1,0.2-5.8,2-8.9,1.4c-3.4-0.6-0.9-3.5-2-5.1c7.6,1.8,15.3,0.7,23,0.8c17,0.2,34,0.2,51,0.3C347,412.3,347.3,413.6,346,415z"/>
	<path class="st57" d="M322.7,390.7c-5.5-0.4-11.2-0.8-16.6-0.5c-5.4,0.3-10.8-0.5-16,0.2c-5.2,0.7-10.3-0.9-15.4,0.6
		c-2.5,0.7-2.3-1.6-2.5-3c-0.2-1.7-0.2-3,2.6-2.8c9.5,0.6,19,0.8,28.4,1.1c4.2,0.1,8.5-1.3,12.7,0.5
		C318.5,387.5,321.2,388,322.7,390.7z"/>
	<path class="st58" d="M272.1,396.2c3.1,2.4,5.8-1.6,9.1-0.6c1.4,0.4,3.4-0.1,4.6,1.3c0.5,0.5,1.1,1.3,1.4,0.5
		c1.1-3.4,4-2.1,5.6-1.6c4.1,1.2,7.8-0.5,11.7-0.4c2.4,0.1,4.9,1,7.1,2c1.3,0.6,1.1-0.3,1.7-0.7c1-0.8,2.1-2,3.4-1.2
		c3.2,1.9,6.3,2.2,9.4,0c0.6-0.4,1.2-0.4,1.8,0c3,2,6,2.1,9,0c0.1-0.1,0.4-0.3,0.4-0.2c2.6,1.8,6.7,0.1,8.7,3.5
		c-24.4,0-48.8,0-73.2-0.1C272.6,398,272.4,397.1,272.1,396.2z"/>
	<path class="st59" d="M333.1,431.9c-1.7,0-3.4,0-5.1,0c-2-1.1-3.9-1.1-5.9,0c-1.7,0-3.4,0-5.1,0c-2-0.7-3.9-1.3-5.9,0
		c-1.7,0-3.4,0-5.1,0c-1.9-1.4-5,0.4-6.2-2.6c-0.1-0.5,0-0.9,0.3-1.2c7.6-1.9,15.3-1.3,22.9-1.2c5.8,0.1,11.6,0.2,17.3-0.5
		c2.4-0.3,4,0.8,5.9,1.5c0.6,0.2,0.9,1.2,0.3,1.7c-1.5,1.6-3.2,2.9-5.6,1.9c-0.5-0.2-1.3,0.2-1.9,0.4
		C337,431.3,335,430.6,333.1,431.9z"/>
	<path class="st60" d="M235.9,388c3.6-3.5,8.3-2.9,12.7-2.8c6,0.1,11.9,0.2,17.9-0.1c2-0.1,3.6,0.6,3.5,3.6c-0.1,3.3-2,2.4-3.6,2.4
		c-9.2,0.1-18.4,0-27.7,0.1C236.3,391.2,234.8,390.8,235.9,388C236,387.9,235.9,388,235.9,388z"/>
	<path class="st61" d="M281.9,379.9c2.1-3.5,5.2-1.4,7.9-1.4c1.1,0,1.2,1,0.5,2.2c-1.2,1.9,0.7,1.2,1.3,1c0.8-0.2,3.1,0.7,2.4-0.7
		c-2-3.5,0.8-3,2.2-3c4.5-0.1,9,0,13.4,0.1c2.6,0,5.2,0.1,2.1,3.6c0,0,0.9,0.8,1.3,1.3c-3.7,0.2-7.4,0.7-11,0.7
		c-6.8,0-13.5-0.3-20.3-0.5C281.6,382.1,281.7,381,281.9,379.9z"/>
	<path class="st62" d="M350,403.9c1-0.7,1.8-1.9,3.4-0.8c1.9,1.2,4.3,1.1,6.2,0.3c4.9-2,9.8,0.4,14.8-0.3c2.2-0.3,5.4,0.1,7.8,0
		c4.2-0.3,3,2.1,3.3,4.1c-7.3-0.7-14.4-0.5-21.6-0.1c-2.3,0.1-5-2.3-6.8,0.9c-0.7-1.7-1.9-2.2-3.4-1.2
		C349.8,409.1,349.7,406.7,350,403.9z"/>
	<path class="st63" d="M322.7,390.7c-2.4-1.1-5-1.7-6.8-3.8c6.4-2.7,13-0.2,19.5-0.9c2.7-0.3,5.4,1.8,8,0c1.1-0.7,2.2-0.4,3.3-0.5
		c0.1,1.4,0.3,2.9,0.1,4.3c-0.2,1.6-1.8,1.6-2.8,1.3c-5-1.5-10-0.2-15-0.8C327,390.1,324.8,390.5,322.7,390.7z"/>
	<path class="st64" d="M246.9,377.9c6.1,0.2,12.2,1.8,18.3,0.3c1.6-0.4,2.9,0.4,4.3,0.8c0.2,2.6,1.8,5.2-3.6,4.6
		c-5.7-0.6-11.7-0.1-17.5-0.2c-1.9,0-3.7,0.6-5.2-1C244.8,381.3,244.2,378.2,246.9,377.9z"/>
	<path class="st65" d="M357,410c8.5,0,17.1,0,26.3,0c-3,4.9-7.3,4.1-10.6,3.8c-6.1-0.4-12.2,0.7-18.4-0.1c-2-0.3-3.7-0.6-5.4-1.7
		c-0.6-1.6-1.1-3.2,1.6-2.2C352.8,410.6,354.9,410.4,357,410z"/>
	<path class="st66" d="M374.1,428.2c-3,3.1-6.6,3.8-10.8,3.3c-3.6-0.4-7.2,0.4-10.9,0.6c-1.5,0-3.7,0.8-3.3-2.1
		c0.2-1.7-0.5-3.8,2.8-3.7C359.3,426.6,366.8,425.7,374.1,428.2C374.1,428.2,374.1,428.2,374.1,428.2z"/>
	<path class="st67" d="M247.1,420.1c3.3-0.9,6.4-2.1,9.5,0.7c0.9,0.8,3.1-1.2,4.6,0.4c3.2-4.4,5.5-0.7,8.1,0.8
		c-0.8,0.7,2.4,2.4-0.6,2.5c-5.7,0.2-11.3,0.6-17,0.5C249.2,424.8,248.5,421.9,247.1,420.1z"/>
	<path class="st68" d="M349.5,424c0.5-4.9,3.8-5.4,7.7-4.9c1.6,0.2,3.2,0.3,4.8,0.3c4.1,0,4.1,0,2.8,3.5c-0.2,0.6,0,1.3,0,1.9
		C359.7,424,354.5,425.7,349.5,424z"/>
	<path class="st61" d="M324,383c0.7-1.3,4.4-0.8,2.3-3.8c0.7-0.4,1.5-1.2,2.1-1.1c4.3,0.6,8.6-0.6,12.9,0.6
		c-0.5,1.5,2.7,3.5-0.7,4.5C335,383.9,329.5,384.2,324,383z"/>
	<path class="st69" d="M332.8,419.7c4.4-1.4,8.9-0.1,13.3-0.9c1.5,5.6,1.5,5.4-4.2,5.7c-2.4,0.1-4.6,0-6.8-0.6
		c-0.6-1.2-0.1-3-1.7-3.7C333.1,420.1,332.9,419.9,332.8,419.7z"/>
	<path class="st70" d="M350.9,379c4.1-1,8.2-1.2,12.4-0.3c-0.2,1.5,2.7,3.5-0.7,4.5c-3.1,1.3-6.3,0.4-9.5,0.5
		C351,383.8,350.2,381.3,350.9,379z"/>
	<path class="st71" d="M262.1,426.9c1.1,0.2,2.3,0.4,3.4,0.4c1.8,0,4.2-0.7,4.1,1.9c-0.1,1.7-2.2,2.5-4.3,2.1
		c-1.1-0.2-2.2,0.3-3.3,0.6c-2-1.3-3.9-1-5.9,0c-5.4-1.4-3.5-3.2-0.2-5C257.9,427.5,260,427.5,262.1,426.9z"/>
	<path class="st64" d="M281.9,379.9c1.5,1.2,1.3,2.3-0.2,3.2c-1.6,0.8-3.4,0.1-5,0.3c-5.8,0.9-4.9-2.2-3.8-5.7
		C276,378.3,279.2,378.1,281.9,379.9z"/>
	<path class="st72" d="M278,432c-2-0.6-4.9,1.8-5.9-1.5c-1.1-3.7,0.9-4.9,5.7-3.5c2,0.7,4.2-0.1,6.1,0.9c0.3,0.4,0.4,0.8,0.3,1.3
		C283.2,432.4,279.9,430.6,278,432z"/>
	<path class="st61" d="M313,383c-0.5-1.9,5,0.2,2.2-3.3c-0.5-0.6,0.9-1.5,1.6-1.4c2.3,0.3,4.9-1.1,6.9,0.8c1.5,1.5-0.7,1.5-1.1,2.2
		c-0.4,0.8,0.8,1.2,1.3,1.7C320.4,383.6,316.7,383.9,313,383z"/>
	<path class="st73" d="M362.6,383.2c2.3-1.2-2.2-3.4,0.7-4.5c2-1.1,3.6-0.8,5.1,1c1.5,1.8,3,1.4,4.5,0c1.3,0.5,2.4,1.3,2.2,2.9
		c-0.1,0.8-0.8,0.9-1.5,0.6C369.9,383.8,366.2,384.1,362.6,383.2z"/>
	<path class="st74" d="M300,428.1c0.1,0.5,0.2,0.9,0.2,1.4c0.5,0.9,0.6,1.7-0.2,2.5c-1.7,0-3.4,0-5.1,0.1c-1.8-1.6-5.1,0.4-6.2-2.7
		c-0.1-0.5-0.1-0.9,0.2-1.4c2-1.1,4.3-0.2,6.3-1.1C297.3,425.2,298.4,427.8,300,428.1z"/>
	<path class="st75" d="M369.3,423.8c1.8-0.5-2.3-2.6,0.7-2.7c2.4-0.1,4.7-4.7,7.1,0C375.2,423.8,373.1,426.2,369.3,423.8z"/>
	<path class="st72" d="M354.2,385.9c0.9-0.5,1.7-0.7,2.6,0c2,0.8,4.4-0.1,6.3,1.2c0,0.2,0,0.4,0.1,0.7c-0.1,0.2-0.3,0.3-0.4,0.5
		c-2,3.7-5.3,1.4-8,1.7l-0.5,0c-1,0.5-2.1,0.7-2.5-0.4C351,387.5,352.7,386.7,354.2,385.9z"/>
	<path class="st76" d="M340.6,383.3c1.6-1.3-2.2-3.4,0.7-4.5c1.8-1.3,3.5-0.5,5.2,0.3c1.1,1.2-3.4,2.4,0.1,3.5
		c-0.4,0.5-0.7,1-1.1,1.5C344,382.7,342,384.9,340.6,383.3z"/>
	<path class="st77" d="M373.6,383.2c2.1-1.7-0.9-2.2-0.8-3.5c1.1-1.1,2.5-1.8,3.9-1.5c1.4,0.3,3.9,0.5,1.2,3c-1,0.9,0.8,1.3,1.4,1.8
		C377.4,384.1,375.5,383.8,373.6,383.2z"/>
	<path class="st78" d="M354.2,385.9c0.3,1.4-5,2.9,0.1,4.1c-1.4,1.8-3.2,0.8-4.8,0.7c0.5-1.6-1-3.2,0-4.7
		C351,383.7,352.6,386.4,354.2,385.9z"/>
	<path class="st72" d="M289,432c-1.7-0.5-3.3-0.3-5,0c-0.8-0.8-0.7-1.7-0.2-2.7c0.1-0.2,0.3-0.4,0.4-0.7c0.4-0.9,1.4-1.2,1.8-2
		c0.4-0.1,0.8-0.3,1.2-0.4c0.5,0.9,1.4,1.6,1.8,2.6l0.2,0.3C289.7,430.1,289.9,431.1,289,432z"/>
	<path class="st79" d="M365,435c-3.4-0.6-6.8-0.5-10.1,0C357.1,432.2,362.9,432.2,365,435z"/>
	<path class="st80" d="M365.8,390c3.4-0.2,7-2.2,10.1,1C372.6,390.4,369,392,365.8,390z"/>
	<path class="st81" d="M289,428.8c-1.2-0.4-2.2-1.1-1.8-2.6c2.6,0.7,5.5-0.9,8.1,0.6C293.6,429.1,290.6,426.9,289,428.8z"/>
	<path class="st82" d="M379.1,390.9c1.3-4.1,4.1-0.6,6.1-1.2c0.3-0.1,1.6,0.2,1.8,1.2C384.3,391,381.7,391,379.1,390.9z"/>
	<path class="st83" d="M354.8,390c2.4-1.7,5.7,0.6,8-1.7c0.1,0.9,0.1,1.8,0.2,2.7C360.3,390.6,357.3,392,354.8,390z"/>
	<path class="st84" d="M286,426.7c-0.1,1.2-0.8,1.7-1.8,2c-1.8-1.7-4.6,0.4-6.3-1.7C280.5,425.5,283.3,426.9,286,426.7z"/>
	<path class="st81" d="M289,432c0-1,0.1-1.9,0.1-2.9c1.5,0.4,2.3,2.5,4.6,0.9c1.6-1.1,1.1,1.1,1.3,2C293,432,291,432,289,432z"/>
	<path class="st85" d="M300.1,431.9c0.1-0.8,0.1-1.7,0.2-2.5c1.4-0.1,2.1,2.5,4.2,0.7c1.7-1.4,1.2,0.9,1.5,1.8
		C304,431.9,302,431.9,300.1,431.9z"/>
	<path class="st86" d="M283.8,429.3c0.1,0.9,0.1,1.8,0.2,2.7c-2,0-4,0-6,0C278.6,428.3,282.8,432.3,283.8,429.3z"/>
	<path class="st87" d="M256.1,432c1.7-2,5.1-2,5.9,0C260,432,258,432,256.1,432z"/>
	<path class="st83" d="M311,432c0.9-1.9,4.1-1.9,5.9,0C315,431.9,313,431.9,311,432z"/>
	<path class="st88" d="M333.3,420.3c1.5,0.8,4.4,1,1.7,3.7c-0.6-0.1-1.2-0.2-1.8-0.2C328.8,422.4,335.4,421.5,333.3,420.3z"/>
	<path class="st89" d="M333.1,431.9c0.8-1.9,4.2-1.9,5.9,0C337,431.9,335,431.9,333.1,431.9z"/>
	<path class="st90" d="M262.1,435c-1.3,0.5-2.8-1-4.1,0.3c-0.8-0.4-2.1-1.6-1.6-1.7C258.3,433.4,261.1,431.1,262.1,435z"/>
	<path class="st91" d="M306.1,435c-2.1-0.7-4.1-0.8-6.2,0C302,432.3,304,432.3,306.1,435z"/>
	<path class="st92" d="M317.1,435c-2-0.7-4.1-0.9-6.1,0C312.9,432.3,315,432.3,317.1,435z"/>
	<path class="st86" d="M328.2,435c-2.1-0.6-4.2-0.7-6.3,0C323.8,432.3,326.2,432.3,328.2,435z"/>
	<path class="st92" d="M339.1,435c-2-0.7-4.1-0.8-6.1,0C335.1,432.3,337,432.3,339.1,435z"/>
	<path class="st93" d="M374.2,385.9c-2.1,1.5-4.3,1.5-6.4,0C369.9,385.9,372,385.9,374.2,385.9z"/>
	<path class="st94" d="M363.1,394c-2.1-0.6-4.2-0.6-6.3,0C358.8,391.2,361.2,391.2,363.1,394z"/>
	<path class="st95" d="M374.1,392c-1.1,3.6-4.5,0.4-6.2,2.1C368.9,390.1,372.1,392.8,374.1,392z"/>
	<path class="st96" d="M363.1,387.1c-2-0.8-4.5,0.7-6.3-1.2C358.9,386,361.6,383.5,363.1,387.1z"/>
	<path class="st97" d="M385,394c-1.3,1-2.7-2.6-4,0.1c-0.7,0-1.4,0-2.1-0.1C380.8,391.2,383.3,391.2,385,394z"/>
	<path class="st98" d="M262.1,426.9c-2.1,1.4-4.2,1.5-6.3,0C257.9,426.9,260,426.9,262.1,426.9z"/>
	<path class="st98" d="M322.1,431.9c1.6-1.7,4.4-1.7,5.9,0C326,431.9,324,431.9,322.1,431.9z"/>
	<path class="st99" d="M284,433c-1.1,3.6-4.4,0.2-6.1,2C278.9,431.1,282.2,434.1,284,433z"/>
	<path class="st100" d="M295,433c-1.1,3.5-4.4,0.2-6.1,2C289.9,431.1,293.1,434.1,295,433z"/>
	<path d="M341.2,263.8c19.8,0.1,39.6,1.8,59.3,3.4c3.9,0.3,6,1.8,7.6,5.6c6.9,16.2,14.1,32.2,21.3,48.3c0.6,1.3,1.1,2.7,1.9,4.6
		c-79.5-4.3-158.5-3.7-237.5,0c-0.5-1.2,0.3-2.2,0.7-3.2c7.5-17,15.1-34,22.5-51c1.2-2.7,2.7-3.7,5.5-4c23.1-2,46.2-3.5,69.3-3.7
		c5.6-0.7,11.3-0.1,16.9-0.3c1.5,0,2.7,0.3,2.9,2c0.2,1.8-0.6,2.8-2.2,3.5c-1.7,0.7-4,0.3-6,2.8c6.1,0.9,11.4,0.9,17.3,0
		c-1.7-2.8-3.8-2.2-5.4-2.9c-1.6-0.7-2.3-1.8-2.1-3.5c0.3-1.7,1.5-2,3-2C324.5,263.7,332.9,263.1,341.2,263.8z"/>
	<path class="st101" d="M341.2,263.8c-7.5,0-14.9,0-22.4,0.2c-1.7,0-4.5-1.3-4.7,1.9c-0.2,3.3,2.7,2.1,4.4,2.2
		c2.2,0.2,4.5-0.1,4.6,3.1c0,3.6-2.6,2.8-4.6,2.8c-4.5,0.1-9,0-13.5,0c-1.8,0-3.5-0.3-3.6-2.5c-0.1-2.2,1.3-3,3.4-3.5
		c2.1-0.5,6.1,1.8,5.9-2.1c-0.2-4.1-4.2-1.7-6.4-1.9c-4.1-0.5-8.3,0.5-12.4-0.3C308.3,262.5,324.7,262.5,341.2,263.8z"/>
	<path class="st102" d="M203.6,390.1c-7.7-0.7-16.1-1.5-24.4-3.7c-5.1-1.4-8-4-8.6-9.5c-0.4-4.2-0.7-8.2,0-12.4
		c0.6-3.7,2.5-4.5,6-3.8c5.7,1.2,11.2,3.3,16.5,5.7c4.6,2,9,4.3,13.4,6.6c8.6,4.4,8.2,4.4,5.6,13.6
		C210.8,391.6,207.4,389.9,203.6,390.1z"/>
	<path class="st102" d="M419.7,390.1c-2.1-0.3-5.1,1.3-6.1-0.7c-1.8-3.3-3.1-7-3.4-10.8c-0.1-1.2,0.9-2.1,2-2.6
		c11.3-5.9,22.4-12.2,35-15.2c4.5-1.1,6.2,0.6,6.6,4.6c0,0.3,0.1,0.7,0.1,1c0.6,19-1.7,18.7-16.5,21.6
		C431.6,389.2,425.6,389.8,419.7,390.1z"/>
	<path class="st97" d="M381.1,395.1c1.5,0.3,3,0.6,4.4,0.9c-1.1,3.4-4.2,0.1-5.9,1.7C377.9,395.6,381.1,396.2,381.1,395.1z"/>
	<path class="st95" d="M374.1,397.5c-2.2,0-4,0-6.3,0C370,394.6,371.8,394.6,374.1,397.5z"/>
	<path class="st94" d="M357,397.6c1.9-3.4,3.8-2.5,6.7-0.4C361,397.4,359.1,397.5,357,397.6z"/>
	<path class="st103" d="M210.3,413.2c4.9-1.5,7.3,0.9,9.1,4.8c1.8,3.7,4.1,7.2,6,10.9c1.6,3,0.5,5.2-3,4.7
		c-6.1-0.9-12.3-0.4-18.4-0.6c-3.4-0.1-4.5-1.5-3.7-4.7c0.7-2.9,1.3-5.8,1.8-8.8C202.8,414.6,204.5,411,210.3,413.2z"/>
	<path class="st64" d="M244.8,405.1c-0.7,1.1-0.7,3-2.3,2.8c-1.8-0.1-2.3-1.9-2.1-3.3c0.1-1,0.4-2.9,2.4-2.5
		C244.3,402.4,244.3,404,244.8,405.1z"/>
	<path class="st52" d="M253.9,408c-2,0.1-2.3-1.6-2.5-2.6c-0.3-1.2,0.3-2.7,1.7-3.2c1.9-0.6,2.2,1.2,2.5,2.3
		C256,406,255.1,407.2,253.9,408z"/>
	<path class="st104" d="M264.9,408c-2,0.1-2.3-1.6-2.5-2.6c-0.3-1.2,0.3-2.7,1.7-3.2c1.8-0.6,2.2,1.2,2.6,2.3
		C267,406,266.1,407.2,264.9,408z"/>
	<path class="st105" d="M439.3,434c1.2,7.4,1.1,13.4,0.7,19.4c-0.1,0.9-0.3,1.5-1.5,1.4c-4.5-0.5-7.8-6.5-5.6-10.4
		C434.6,441.3,436.6,438.3,439.3,434z"/>
	<path class="st106" d="M185.4,434.4c2.6,4.3,4.9,7.7,6.9,11.3c1.5,2.7-3.7,9.5-6.7,9.1c-1.1-0.1-1.3-0.9-1.3-1.8
		C184,447.2,183.4,441.3,185.4,434.4z"/>
	<path class="st22" d="M395.2,423.5c2-2.9,3.8-5.9,5.1-9.2c2.5-6.3,7.1-8.2,13.6-7.3c3.6,0.5,7.2,0.2,10.9,0.3
		c2.2,3.9,1.9,8.6,3.5,12.7c0.8,4.2,1.6,8.5,2.6,12.7c0.9,3.8-0.1,5.6-4.3,5.7c-9.5,0.1-19,0.6-28.5,0.9c-11-0.5-11-0.5-5.4-10.5
		C393.5,427,394.3,425.2,395.2,423.5z"/>
	<path class="st61" d="M180.9,382.2c-3.3,0.8-5.2-0.4-6.2-3.7c-1.3-4.1-0.6-8.2-0.6-12.4c0-2.2,1.6-2.3,3.2-1.9
		c11,3,21,8.1,30.9,13.5c1.8,1,2.2,2.9,1.5,4.8c-0.8,2.1-1.9,4.6-4.3,4.2c-7.8-1.2-15.8-0.8-23.3-3.8c1.2-1.4,3-1.2,4.5-2
		c2.7-1.4,3.9-4.8,2.7-7.7c-1.2-2.7-4.7-3.9-7.7-2.4c-3.1,1.6-3.6,4.1-2.4,7.1C179.7,379.5,181,380.5,180.9,382.2z"/>
	<path class="st107" d="M180.9,382.2c-4.6-4.1-5.2-8.5-1.4-11.7c2.4-2,5.2-2.3,7.9-1.1c2.8,1.3,4,3.7,3.8,6.9
		c-0.2,3.2-1.8,5.3-4.7,6.3c-1.4,0.4-2.9,0.3-4.4,0.5C181.6,382.7,181.3,382.4,180.9,382.2z"/>
	<path class="st108" d="M443,382.9c-7.7,2.9-15.8,2.7-23.8,3.9c-3.1,0.5-3.9-2.4-4.7-4.9c-0.9-2.5,0.5-3.9,2.4-4.8
		c9.2-4.7,18.5-9.1,28.2-12.7c3.7-1.3,5.2,0.2,5.8,3.6C452.3,376.3,449.3,381.9,443,382.9c-0.4-1.9,1.4-2.8,2-4.3
		c1.3-3.2,0.4-6.5-2.2-7.8c-2.7-1.3-6.2,0-7.6,2.9c-1.4,2.8-0.1,5.7,3.2,7.3C439.9,381.8,441.8,381.6,443,382.9z"/>
	<path class="st109" d="M210.7,415.1c4.7,0,8.3,3.4,8.4,7.9c0.1,4.6-3.3,8.1-8.1,8.2c-4.8,0.1-8.3-3.2-8.4-7.8
		C202.5,418.9,206.2,415.2,210.7,415.1z"/>
	<path class="st110" d="M438.7,447c-0.4,1.4-1.3,2-2.5,2c-1.2,0-2.4-0.3-2.5-1.7c-0.1-1.4,1.1-2,2.3-2
		C437.2,445.3,438.2,445.9,438.7,447z"/>
	<path class="st111" d="M188.3,449.1c-1.2,0-2.3-0.4-2.4-1.8c-0.1-1.4,1.1-1.9,2.3-2c1.3-0.1,2.7,0.4,2.6,2.1
		C190.7,448.6,189.5,449,188.3,449.1z"/>
	<path class="st112" d="M422,421c0.2,0.2,0.6,0.5,0.6,0.7c3,11.2,3,11.2-8.4,11.4c-3.8,0-7.6,0-11.4,0.5c-4.3,0.6-5.5-1.3-3.5-5.1
		c1.8-3.5,4.2-6.8,5.7-10.5c1.8-4.2,4.5-5.4,8.9-5.2C421.6,413.1,421.8,413.1,422,421c-2.3,0.3-2.9-1.9-4.3-2.9
		c-3.5-2.5-7.3-1.9-9.9,1.8c-2.1,3-1.4,6.7,1.7,8.7c3.3,2.1,8.1,1.1,10-2.2C420.5,424.7,420.4,422.5,422,421z"/>
	<path class="st113" d="M198.1,376.1c2.3,0.3,3.8,1.4,3.9,3.8c0.1,2.5-1.3,4.1-3.8,4.1c-2.3,0.1-3.8-1.4-3.9-3.6
		C194.1,378,195.8,376.7,198.1,376.1z"/>
	<path class="st114" d="M180.9,376.3c0-2.8,1.3-4,3.3-4.1c2.1-0.1,3.5,1.4,3.6,3.4c0.1,2-1.2,3.4-3.4,3.5
		C182.2,379.2,181,378,180.9,376.3z"/>
	<path class="st107" d="M443,382.9c-5.9,0.1-9.3-2-9.8-6.2c-0.4-3.4,1.3-6,4.2-7.3c2.8-1.3,6-1.1,8.2,1.6c2.3,2.7,2.3,5.8,0.5,8.8
		C445.3,381.1,444,381.9,443,382.9C442.9,383,443,382.9,443,382.9z"/>
	<path class="st115" d="M430,379.9c-0.1,2.3-1.2,3.9-3.5,4c-2.5,0.2-4.3-1.2-4.3-3.6c-0.1-2.4,1.6-4.1,4-4.1
		C428.5,376.1,429.7,377.8,430,379.9z"/>
	<path class="st116" d="M211.2,426.1c-2.3-0.2-3.4-1.2-3.3-3.2c0.1-1.8,1.2-2.7,2.8-2.8c1.8,0,3.2,1,3.2,3
		C214,425.2,212.7,426,211.2,426.1z"/>
	<path class="st117" d="M422,421c-0.3,6.4-2.6,9.6-7.4,10.1c-4.3,0.5-7.5-1.2-9-5.4c-1.4-3.8,0-6.9,3.2-9.1
		c3.6-2.4,7.3-2.1,10.5,0.9C420.4,418.5,421.1,419.8,422,421L422,421z"/>
	<path class="st118" d="M198.1,378.2c1.1,0.1,1.8,0.7,1.9,1.8c0.1,1.1-0.4,2-1.6,2.1c-1.3,0.1-2.3-0.5-2.3-1.9
		C196.2,379,197,378.4,198.1,378.2z"/>
	<path class="st119" d="M440.3,379.1c-2.2-0.1-3.5-1.1-3.4-3.3c0.1-2,1.3-3.6,3.3-3.6c2.2,0,3.6,1.5,3.6,3.8
		C443.9,378.2,442.3,379,440.3,379.1z"/>
	<path class="st120" d="M426.4,378.2c1.1,0.3,1.7,1,1.7,2.1c0,1.2-0.7,1.8-1.9,1.8c-1.4,0-2.2-0.8-2-2.2
		C424.4,378.8,425.2,378.2,426.4,378.2z"/>
	<path class="st121" d="M416.7,423c-0.4,2.1-1.4,3.2-3.4,3.1c-1.8-0.1-2.8-1.2-2.9-2.8c-0.1-1.9,1.2-3.2,3.1-3.2
		C415.4,420.1,416.3,421.5,416.7,423z"/>
</g>
</svg>
