<?xml version="1.0" encoding="utf-8"?>
<!-- Generator: Adobe Illustrator 19.0.0, SVG Export Plug-In . SVG Version: 6.00 Build 0)  -->
<svg version="1.1" id="Calque_1" xmlns="http://www.w3.org/2000/svg" xmlns:xlink="http://www.w3.org/1999/xlink" x="0px" y="0px"
	 viewBox="0 0 612 792" style="enable-background:new 0 0 612 792;" xml:space="preserve">
<style type="text/css">
	.st0{fill:#A9CBCD;}
	.st1{fill:#C4D7DB;}
	.st2{fill:#202728;}
	.st3{fill:#AACACC;}
	.st4{fill:#B5BCBC;}
	.st5{fill:#B5BCBB;}
	.st6{fill:#F30000;}
	.st7{fill:#FDFA0C;}
	.st8{fill:#303637;}
	.st9{fill:#231F20;}
	.st10{fill:#040504;}
	.st11{fill:#1F1F1F;}
	.st12{fill:#191919;}
	.st13{fill:#1D1E1E;}
	.st14{fill:#171818;}
	.st15{fill:#1A1B1B;}
	.st16{fill:#0D0D0D;}
	.st17{fill:#1D1E1D;}
	.st18{fill:#270707;}
	.st19{fill:#110C0C;}
	.st20{fill:#230404;}
	.st21{fill:#0F0202;}
	.st22{fill:#AAA1A1;}
	.st23{fill:#333F37;}
	.st24{fill:#4A7B59;}
	.st25{fill:#497B58;}
	.st26{fill:#1E2C23;}
	.st27{fill:#010101;}
	.st28{fill:#080D09;}
	.st29{fill:#0F120F;}
	.st30{fill:#070907;}
	.st31{fill:#0F1912;}
	.st32{fill:#030403;}
	.st33{fill:#0D100E;}
</style>
<g>
	<path class="st0" d="M156.9,178.4c-4.3,0-8.7-0.1-13-0.1c-2.7,0-4-1.2-3.9-3.9c0-12,0-24-0.1-36c0-4.2,2.7-4.2,5.7-4.2
		c26.1,0,52.3,0,78.4,0c57.4,0,114.9,0,172.3,0c6.6,0,6.6,0,6.6,6.7c0,10.5-0.2,21,0.1,31.5c0.1,4.7-1.6,6.3-6.1,5.9
		c-3.6-0.3-7.3-0.1-11-0.1c-4.9,2.8-10.2,1.1-15.3,1.5c-2.5,0.3-5,0.2-7.5,0.2c-61.5,0-123,0-184.5,0c-2.2,0-4.3,0.1-6.5-0.2
		C167.1,179.5,161.8,181.2,156.9,178.4z"/>
	<path class="st1" d="M370.9,178.4c5.1,0,10.1,0,15.2-0.1c0,50.1-0.1,100.2-0.1,150.3c0,68.9,0,137.9,0,206.8c0,3-0.6,6,1,8.8
		c-0.3,3.3,1.6,6.8-1,9.9c0,21.5,0,43.1-0.2,64.6c0,3.4,1,4.9,4.5,4.5c1-0.1,2-0.1,2.7,0.9c-1.2,1.5-2.9,1.7-4.5,1.6
		c-6.1-0.3-12.3,1.2-18.3-1.1c-1.3-1.6-0.8-3.4-0.8-5.2c0-12,0.3-24-0.3-36.1c0.7-8.8,0-17.6,0.4-26.4c0.1-36.2,0.5-72.3-0.2-108.5
		c-0.2-12.6-0.9-25.3-1-37.9c0-2.7-0.1-5.3,0.4-8c-0.7-48.4-0.3-96.8-0.2-145.2c0-1.7,0-3.3,0.3-5c0.9-5,0.6-10,0.6-15
		c0-17.1,0-34.3,0-51.4C369.4,183.5,369,180.7,370.9,178.4z"/>
	<path class="st1" d="M156.9,178.4c5.1,0,10.1,0,15.2,0c1.4,1.5,1.5,3.3,1.5,5.1c0,22.9,0.2,45.8-0.1,68.8
		c0.3,27.3,0.1,54.6,0.1,81.9c0,22.1,0.2,44.3-0.1,66.4c0,0.7,0,1.3,0,2c0.2,13.6,0.2,27.2,0,40.8c0.3,34.6,0.1,69.1,0.1,103.7
		c0,3.3,0.2,6.6-0.1,10c0.2,8.8,0.2,17.5,0,26.3c0.3,12,0.1,23.9,0.1,35.9c0,1.8-0.1,3.7-1.3,5.2c-7.5,2.1-14.9,2.7-22.3-0.3
		c7-2.3,7-2.3,7-10.5c0-143.7,0-287.5,0-431.2C157,181.1,156.9,179.7,156.9,178.4z"/>
	<path class="st2" d="M150,624.2c7.4-0.1,14.9,0.6,22.3-0.2c2-1.5,4.4-1.3,6.7-1.3c61.5,0,123,0,184.5,0c2.3,0,4.7-0.3,6.7,1.3
		c7.6,0.1,15.2,0.2,22.7,0.2c1.8,2.4,0.7,5.1,0.9,7.7c0.1,1.6-0.9,2.4-2.5,2.4c-1.3,0-2.7,0-4,0c-77,0-154.1,0-231.1,0
		C148.2,634.3,146.9,632.2,150,624.2z"/>
	<path class="st3" d="M442,255.2c-1.8-0.3-3.5-0.6-5-1.7c6.2-10.4,16.3-15.2,27.2-18.7c1.6-0.5,2.4-0.3,3.1,1.3
		c0.9,2.1-0.7,2.1-1.9,2.6c-7,3.1-15.1,4.3-20.3,11C443.8,251.4,442.2,252.8,442,255.2z"/>
	<path class="st4" d="M172,252.3c64.2,0,128.3,0,192.5,0c1.8,0,3.7,0.1,5.5,0.1c0,46.3,0,92.6,0,138.9c0,3.7,0.2,7.5,0.2,11.2
		c-0.3,0-0.7,0.1-1,0.1c-28,0.2-56,0.1-84,0.1c-35.2,0-70.3,0-105.5,0c-2.6,0-5.4,0.6-7.7-1.2C172.1,351.8,172,302,172,252.3z"/>
	<path class="st5" d="M172.1,443.4c0-13.8,0-27.5,0.1-41.3c1.6-0.5,3.3-0.3,5-0.3c62.7,0,125.3,0,188,0c1.6,0,3.3-0.4,4.9,0.4
		c0,0,0.3,0.2,0.3,0.2c-0.1,14.9-0.1,29.8,0.6,44.8c1,21.1,0.3,42.3,0.2,63.4c0,15.6-0.1,31.3-0.2,46.9c-0.7,0-1.3-0.3-1.6-0.9
		c-1.2-2.7-0.9-5.6-0.9-8.4c0.1-32.6-0.2-65.3,0.1-97.9c0-5-0.6-5.6-5.9-5.6c-59.3,0.3-118.6,0.1-177.9,0.1
		C180.5,444.9,176,446.1,172.1,443.4z"/>
	<path class="st6" d="M370.3,624c-44.2,0-88.3,0.1-132.5,0.1c-21.8,0-43.7-0.1-65.5-0.1c0-13.5,0-27,0-40.5c1.8-2,4.2-1.8,6.5-1.8
		c61.6,0,123.3,0,184.9,0c2.3,0,4.7-0.2,6.5,1.7C370.8,597,370.7,610.5,370.3,624z"/>
	<path class="st7" d="M370.3,583.4c-66,0-132,0-198,0c0-8.7,0-17.4,0-26.1c1.9-1.9,4.3-1.6,6.6-1.6c61.6,0,123.1,0,184.7,0
		c2.3,0,4.7,0,6.6,1.6c0.2,0.1,0.4,0.2,0.7,0.3C370.3,566.2,371.5,574.9,370.3,583.4z"/>
	<path class="st6" d="M370.2,557.3c-66,0-132,0-197.9,0c-0.1-36.5-0.1-72.9-0.2-109.4c0-1.5,0-3,0-4.5c1.9-0.8,3.9-0.5,5.9-0.5
		c62.2,0,124.3,0,186.5-0.1c4.9,0,6,1.3,6,6.1C370.2,485,370.2,521.2,370.2,557.3z"/>
	<path class="st8" d="M370,402.3c-64.8,0-129.6,0-194.4,0c-1.2,0-2.3-0.1-3.5-0.2c0-0.2,0-0.4,0-0.6c15-0.1,29.9-0.4,44.9-0.4
		c49.2,0,98.4,0,147.6,0.1C366.4,401.2,368.6,400.1,370,402.3z"/>
	<path class="st9" d="M465.4,528.7c-8.8-26.6-21.6-51.4-33.8-76.5c-4.8-9.8-10.4-19.4-13.6-29.9c-5.2-17-2.9-34.1,0.7-50.9
		c4.5-21.1,9.8-42.1,14.8-63.1c0.5-2.3-0.1-5.8,1.2-6.7c4.7-3.1,3.3-7.5,3.1-11.5c-0.1-4,0.6-5.8,5.1-5.2c3.9,0.6,5.2-1.6,5.9-5.5
		c1.8-8.9-4.2-15.7-5.4-23.8c0-0.2-0.9-0.3-1.4-0.5c-1.4-1.4-3-2.2-5-1.7c-4.4-0.7-13.1,4.5-14.5,8.8c-0.4,1.2-0.6,3.4,0.1,3.8
		c3.5,2.4,2.1,5.9,2.2,9c0.2,6.8,0,13.7,0.1,20.5c0,1.2-0.3,2.8,0.3,3.4c3.3,2.9,1.9,6.2,1.1,9.5c-4.5,19.1-9.1,38.2-13.7,57.2
		c-7.1,29.2-5.7,56.9,9.5,84c13.6,24.1,25.1,49.5,34.5,75.7c4.8,13.3,9,26.8,8.5,41.3c-0.5,15-10.7,22.4-25,18.1
		c-1.7-0.5-3.5-1-5.2-1.8c-19.2-8.8-33.8-23.3-47.9-38.5c-2.7,3.1-0.9,6.6-1,9.9c6.2,5.7,12.3,11.7,18.8,17.2
		c10.4,8.7,21.2,16.6,34.6,20.2c17.3,4.7,31.3-5.1,32.7-22.8C473.1,554.9,469.7,541.7,465.4,528.7z M437.9,265.5
		c2.6,4.6,1.5,9.7,6.3,11.8c-2.8-4.9-3.5-10.1-3.1-16c4.8,4.6,7.4,15.3,5.3,20c-1.3,2.9-4,1.4-6.2,1.7c-2.1,0.3-2.4-1.1-2.4-2.8
		C438,275.7,437.9,271.3,437.9,265.5z"/>
	<path class="st10" d="M271,378.3c-23.1,0-46.3,0-69.4,0c-10.6,0-15.4-4.6-15.4-15.1c0-27.6,0-55.3,0-82.9c0-10.2,4.8-15,15-15
		c46.8,0,93.6,0,140.4,0c10.3,0,15.1,4.7,15.2,14.8c0.1,27.8,0.1,55.6,0,83.4c0,9.9-4.9,14.7-14.8,14.7
		C318.2,378.4,294.6,378.3,271,378.3z"/>
	<path class="st11" d="M363.3,394.9c0.9-1.1-2.4-2.9,0.4-3.5c1.7-0.3,3.1,1,3.4,2.9c0.3,1.8-0.4,2.5-2.2,1.7
		C364.1,396.1,363.4,396,363.3,394.9z"/>
	<path class="st12" d="M363.3,394.9c0.5,0.4,1.1,0.8,1.6,1.2c0.2,2-0.6,2.8-2.5,2c-1.6-0.7-3-2.2-2.1-3.9
		C361.5,392.1,362.3,394.7,363.3,394.9z"/>
	<path class="st12" d="M364.1,259.8c0.5-1.7-1.5-2.4-1.7-4.1c2.5-0.8,4,0.2,4.5,2.5c0.6,2.4-1.2,2.1-2.6,1.9L364.1,259.8z"/>
	<path class="st13" d="M181.2,397.4c-0.1-2.4-2.8-3.2-3.2-5.6c1.8-1,3-0.1,4,1.3C183.2,394.8,182.6,396.2,181.2,397.4L181.2,397.4z"
		/>
	<path class="st14" d="M364.1,259.8c0,0,0.2,0.3,0.2,0.3c0.4,0.9,1.1,2-0.6,2.2c-1.7,0.2-2.7-0.9-3.4-2.4c-0.4-0.8-0.4-1.8,0.3-2.3
		c0.9-0.6,1.4,0.3,2,0.9C363.1,259,363.6,259.4,364.1,259.8z"/>
	<path class="st15" d="M178,257.2c-0.4,2.1,2.4,2.7,2.3,4.9c-2.5,0.6-4-0.3-4.5-2.9c-0.4-2.1,1.1-1.8,2.3-1.8L178,257.2z"/>
	<path class="st16" d="M181.1,397.4c-4.3,2.4-5-0.1-5.5-3.9C178.6,393.8,178.9,397.1,181.1,397.4
		C181.2,397.4,181.1,397.4,181.1,397.4z"/>
	<path class="st17" d="M178,257.3c-0.2-1.3,0-2.4,1.6-1.9c2.4,0.7,3.4,2.3,2.4,4.9c-2.1-0.2-2.4-2.7-4.1-3.1
		C178,257.2,178,257.3,178,257.3z"/>
	<path class="st18" d="M181,451.3c-0.9,2.6-2.6,2.3-4.1,0.9c-1.5-1.4-2.3-3.2,0.3-4.6C179.6,447.7,180.5,449.3,181,451.3z"/>
	<path class="st19" d="M181,451.3c-1.3-1.2-2.5-2.5-3.8-3.7c1.4-2.3,3.1-1.7,4.4-0.2C182.6,448.6,183.6,450.4,181,451.3z"/>
	<path class="st20" d="M365.1,452.6c-4.1,0.9-5.6-0.6-4.2-4.6C363.7,448.3,365.4,449.6,365.1,452.6z"/>
	<path class="st21" d="M362,446.7c4.2-0.8,6.2,0.4,4.3,4.9C364.4,450.3,362.5,449.1,362,446.7z"/>
	<path class="st22" d="M362,446.7c1.4,1.6,2.9,3.3,4.3,4.9c-0.4,0.3-0.8,0.6-1.1,1c-1.4-1.5-2.8-3.1-4.2-4.6
		C361.2,447.4,361.1,446.7,362,446.7z"/>
	<path class="st23" d="M271,376.3c-23.2,0-46.3,0-69.5,0c-9.4,0-13.5-4-13.5-13.3c0-27.5,0-55,0-82.5c0-9,4.2-13.2,13.1-13.2
		c46.8,0,93.6,0,140.5,0c8.9,0,13.2,3.6,13.2,12.5c0.2,28,0.3,56,0,84c-0.1,8.9-4.4,12.4-13.3,12.4C318,376.3,294.5,376.3,271,376.3
		z"/>
	<path class="st24" d="M273.9,296.5c0.8-4-0.9-8.2,1.2-12c0.8-0.9,1.8-0.6,2.8-0.6c15.7,0,31.5,0,47.2,0c1,0,2-0.2,2.8,0.6
		c0.7,0.6,1.3,1.3,2,1.9c0.9,3.3,0.9,6.6,0,9.9c-0.6,0.7-1.3,1.3-1.9,2c-1,0.8-2.2,0.5-3.3,0.5c-15.4,0-30.7,0-46.1,0
		C276.7,298.8,274.4,299.4,273.9,296.5z"/>
	<path class="st24" d="M328.9,322.3c-16.7,0-33.4,0-50.2,0.2c-3.7,0-5.2-1-4.7-4.8c0.4-2.7-0.7-5.7,1.1-8.2c1.3-1.4,3.1-1.1,4.7-1.1
		c14.8,0,29.6,0,44.5,0c2,0,4,0,5.6,1.6C330.4,314.1,331.9,318.4,328.9,322.3z"/>
	<path class="st25" d="M282.1,348.2c-0.7-0.6-1.3-1.3-2-1.9c-1-3.3-0.9-6.6-0.1-9.9c0.3-0.5,0.6-1,0.9-1.5c0.5-1.3,1.6-1,2.5-1
		c12,0,24.1,0,36.1,0c0.8,0,1.7,0,2.3,0.6c2.2,3.8,0.5,8.1,1.3,12.1c-0.4,1.8-1.7,2.2-3.3,2.2c-12.3,0-24.6,0.1-37-0.1
		C282.6,348.7,282.3,348.4,282.1,348.2z"/>
	<path class="st26" d="M329.8,310.4c-1.3-1-2.7-1.1-4.3-1.1c-16.8,0.1-33.6,0.1-50.4,0.1c-0.8-2.6,1.3-2.1,2.5-2.1
		c16-0.1,32.1-0.1,48.1,0c2.2,0,4.2,0.8,5.4,3C330.6,310.9,330.2,310.9,329.8,310.4z"/>
	<path class="st27" d="M273.9,296.5c1,2.1,2.9,1.9,4.7,1.9c16.5,0,32.9-0.1,49.4-0.1c-0.2,2.3-2,1-2.9,1c-15.6,0.1-31.2,0.1-46.8,0
		C276.5,299.2,273.2,300.7,273.9,296.5z"/>
	<path class="st28" d="M328,284.4c-17.6,0-35.3,0.1-52.9,0.1c-0.4-0.5-0.2-1.1,0.3-1.1c17.4,0,34.8-0.1,52.2,0
		c0.1,0,0.4,0.1,0.4,0.2C328,283.9,328,284.1,328,284.4z"/>
	<path class="st29" d="M329,323.3c-0.6,0.3-1.1,0.9-1.7,0.9c-17.1,0-34.1,0-51.2-0.9C293.7,323.3,311.4,323.3,329,323.3L329,323.3z"
		/>
	<path class="st30" d="M282.1,348.2c12.3,0,24.5,0.1,36.8,0.1c1.7,0,3.3-0.2,4.4-1.8c1.1,1.9-0.4,2.6-1.6,2.6
		c-13.2,0-26.4-0.1-39.6-0.2c-0.1,0-0.2-0.3-0.1-0.4C281.9,348.5,282,348.3,282.1,348.2z"/>
	<path class="st31" d="M321.9,334.5c-13.6,0-27.3-0.7-40.9,0.4c0.3-0.9,0.9-1.4,1.8-1.4c12.9,0,25.9,0,38.8,0c0.1,0,0.4,0.2,0.4,0.2
		C322,333.9,322,334.2,321.9,334.5z"/>
	<path class="st29" d="M329.8,310.4c0.4,0,0.8,0,1.2-0.1c0,3,0,5.9,0,8.9c0,1.7-0.2,3.3-2.1,4.1c0,0,0,0,0,0c0-0.4-0.1-0.7-0.1-1.1
		C330.9,318.4,329.6,314.4,329.8,310.4z"/>
	<path class="st32" d="M329.9,296.3c0-3.3,0-6.6,0-9.9c2.3,3.2,0.7,6.6,0.8,10c0,0.1-0.2,0.2-0.4,0.2
		C330.2,296.5,330.1,296.4,329.9,296.3z"/>
	<path class="st33" d="M280.1,336.4c0,3.3,0,6.6,0.1,9.9c-2.5-3.1-0.7-6.6-0.9-9.9c0-0.1,0.2-0.2,0.4-0.2
		C279.8,336.2,279.9,336.3,280.1,336.4z"/>
</g>
</svg>
