<?xml version="1.0" encoding="utf-8"?>
<!-- Generator: Adobe Illustrator 19.0.0, SVG Export Plug-In . SVG Version: 6.00 Build 0)  -->
<svg version="1.1" id="Calque_1" xmlns="http://www.w3.org/2000/svg" xmlns:xlink="http://www.w3.org/1999/xlink" x="0px" y="0px"
	 viewBox="0 0 612 792" style="enable-background:new 0 0 612 792;" xml:space="preserve">
<style type="text/css">
	.st0{fill:#E8E1D8;}
	.st1{fill:#D2D0CC;}
	.st2{fill:#ADBD04;}
	.st3{fill:#1E1F1E;}
	.st4{fill:#010101;}
	.st5{fill:#1C1C19;}
	.st6{fill:#BFEA10;}
	.st7{fill:#C0E90F;}
	.st8{fill:#C0EA10;}
	.st9{fill:#799014;}
	.st10{fill:#C7C5C1;}
	.st11{fill:#282828;}
	.st12{fill:#020201;}
	.st13{fill:#C1EB0F;}
	.st14{fill:#C0EB0F;}
	.st15{fill:#3F403A;}
	.st16{fill:#ADBE04;}
	.st17{fill:#394006;}
	.st18{fill:#565E03;}
	.st19{fill:#151802;}
	.st20{fill:#3E4403;}
	.st21{fill:#434444;}
	.st22{fill:#030303;}
	.st23{fill:#738C0A;}
	.st24{fill:#BBE40E;}
	.st25{fill:#B3B3B3;}
	.st26{fill:#4C5D07;}
	.st27{fill:#15180C;}
	.st28{fill:#8D9710;}
	.st29{fill:#474D34;}
	.st30{fill:#1B1C1C;}
	.st31{fill:#384117;}
	.st32{fill:#1B1C1B;}
	.st33{fill:#8A910F;}
	.st34{fill:#8B9411;}
	.st35{fill:#888F11;}
	.st36{fill:#697E08;}
	.st37{fill:#494F32;}
	.st38{fill:#16190C;}
	.st39{fill:#141414;}
	.st40{fill:#2C2C2C;}
	.st41{fill:#4C4C4B;}
	.st42{fill:#4C4C4C;}
	.st43{fill:#3D3D3D;}
	.st44{fill:#3E3E3E;}
	.st45{fill:#A6A6A6;}
	.st46{fill:#ACACAC;}
</style>
<g>
	<path class="st0" d="M286,146c13.3,0,26.7,0,40,0c7,1,14.2,0.8,21.3,1.3c11.9,1,23.3,3.9,34.6,7.1c28.5,8.1,54.7,21.1,78.4,38.7
		c45.6,34,76.9,78.2,93.2,132.9c5.2,17.5,8.3,35.2,8,53.5c0,0.8-0.1,1.7,0.5,2.4c0,13.3,0,26.7,0,40c-0.9,7.8-0.6,15.7-1.5,23.5
		c-0.2,1.5,0,3-1,4.2c-2.4,1.6-3.3-0.7-4.4-1.9c-35.6-35.8-71.5-71.2-107-107.2c-0.7-0.8-1.3-1.6-2.4-1.8
		c-16.3-1.8-32.8-1.9-49.1-3.7c-10.5-1.2-21.1-2.9-31.8-2.1c-10.1,0.8-20.2,0.8-30.3,0c-13.2-1.1-26.1,2.2-39.1,3.5
		c-8.6,0.8-17.2,1-25.7,2c-4.8-0.2-7.6,2.9-10.2,6.2c-8.2,10.7-16.7,21.1-24.9,31.8c-2.6,3.4-5.4,6.4-9.9,7
		c-10.9,3.3-22.1,4.9-33.2,7.1c-8,1.6-16,3-24,5c-1.8,0.4-3.6,0.7-4.6,2.5c-0.2,0.4-0.4,0.9-0.6,1.4c-0.6,2.4-1.5,4.7-1.7,7.2
		c0.7,3.2-1.4,6.2-1,9.4c-0.9,3.5-1.3,7.1-1.1,10.8c0.1,2.8-0.9,4.7-3.9,5.5c-7.3,2.2-8.8,6.5-5.1,13.6c7,4.6,11.7,11.6,18.2,16.6
		c1.8,1.2,3.3,2.8,4.5,4.5c2,3.1,5,5.4,7.5,7.9c15.2,14.9,30.3,29.9,45,45.3c40.9,42.6,83.4,83.6,124.9,125.7
		c1.4,1.4,2.9,2.7,4.1,4.3c1.1,1.5,2.4,3,0.4,4.8c-6.6,2.6-13.7,1.4-20.5,2.3c-2.6,0.3-5.3-0.6-7.8,0.5c-10.3,0-20.7,0-31,0
		c-7.1-1-14.2-0.6-21.3-1.4c-23.4-2.5-45.6-9.3-67.2-18.6c-23.4-10.1-44.9-23.4-64.4-39.8c-24.9-21.1-45.4-45.8-61.2-74.4
		c-14.4-26.1-24.2-53.7-28.9-83.1c-1.2-7.2-1.4-14.5-1.6-21.9c-0.1-2,0.6-4-0.5-5.9c0-10.3,0-20.7,0-31c0.9-7.1,0.5-14.2,1.2-21.3
		c1.4-13.5,4.7-26.5,8.7-39.4c13.7-43.8,37.8-81,71.7-111.7c36.4-33,79.1-53.6,127.6-61.8c7-1.2,14.2-1.2,21.4-1.4
		C282.4,146.4,284.3,147,286,146z"/>
	<path class="st1" d="M558,450c-0.6,8.7-3,17-5.4,25.3c-9.8,34.5-26.3,65.5-49.4,93.1c-21.9,26.1-48,46.9-78.1,62.4
		c-21.3,11-44.1,18.5-67.7,23.1c-0.8,0.2-1.7,0-2.5,0.1c-13.1-13.2-26.2-26.5-39.3-39.7c-28.3-28.4-57-56.5-85-85.2
		c-19-19.5-38.2-38.7-57.3-58.1c-0.9-0.9-2-1.8-2.2-3.2c2-0.9,3.5,0.4,5.1,1.1c14,6.3,28.5,0.8,34.9-13.2c0.9-1.9,1.3-4.2,3.3-5.4
		c0.6-0.2,1.1-0.4,1.7-0.5c49-2,98.1-0.8,147.2-1.1c4.5,1.8,9.1,0.2,13.7,0.5c2.9,0.2,6-0.1,8.2,2.5c1.2,1.4,1.5,3.3,2.4,4.9
		c5,9.6,12.7,15.2,23.8,14.9c10.5-0.3,17.6-5.9,22.1-15.1c1.1-2.2,1.5-4.8,3.9-6.2c3.2-1.6,6.8,0.1,10-1.4c8.6-1.5,8.6-1.5,8.6-10.4
		c0-6.9,0-13.9,0-20.8c0-2.5-0.1-5,1.2-7.3c6.3-3.1,7.5-8.4,7-14.9c-0.4-5.9,0-11.9-0.1-17.9c-0.1-6.1-0.7-6.7-6.6-7.6
		c-1.3-0.2-2.6-0.4-3.8-1.1c-1.4-1-2.1-2.5-2.5-4.1c-1.5-6.7-2.4-13.6-3.2-20.5c-0.2-1.5-0.2-3,1.1-4.1c14.6,14.5,29.3,29,43.9,43.5
		c20.5,20.4,40.9,40.9,61.3,61.4C555.9,446.4,557.8,447.6,558,450z"/>
	<path class="st2" d="M458,409.7c-0.1,11.1-0.2,22.1-0.2,33.2c0,7.4,0,7.4-7.4,7.4c-1.2,0-2.3,0-3.5,0c-0.2-0.2-0.4-0.3-0.7-0.5
		c-3.1-6.9-3.3-14.4-4.7-21.7c-2.6-13.2-3.7-14.4-17.2-14.4c-8.6,0-17.3,0.5-25.9-0.1c-8-0.6-13,2.2-16.8,9.4
		c-4.8,8.9-9.8,17.7-15.6,26.1c-0.5,0.7-1.3,1-2.1,1.3c-41.9,0-83.8-0.1-125.7,0c-7.6,0-15.3,0.7-22.9,0.3c0.2-2.7,2.5-2.2,4-2.4
		c3.1-0.4,6.2-0.2,9.3,0.1c2.2-0.5,1.5-1.8,0.8-3c-5.3-9.3-10.6-18.5-16.4-27.5c-1.9-2.9-4.7-4.1-8.1-4.2c-12.5-0.1-25,0.1-37.5-0.1
		c-3.5,0-6.1,2.7-9.5,2.4c0.3-3.4,0.7-6.8,1-10.2c1.8-1.9,4.2-1.9,6.5-1.9c21,0,41.9,0,62.9,0c2.2,0,4.3,0,6.2,1.3
		c2,1.8,1.4,4.2,1.6,6.5c0.3,5.2-0.8,10.5,0.8,15.7c0.5,3.3,2.4,4.1,5.6,4.1c19.8-0.1,39.6-0.1,59.4-0.1c1.6,0,3.3-0.3,5.1,0.2
		c0.5,0-0.4-1.1-0.2-0.5c-22.5,0.5-45.1,0.2-67.6,0.2c-0.6-0.4-1.2-0.9-0.6-1.6c8.3-8.6,15.9-17.8,25.5-25c2.6-0.7,5.2-0.8,7.8,0.2
		c3,2.5,1.2,4.7-0.5,6.7c-3.6,4.1-7.7,7.8-11.5,11.7c-1.3,1.3-2.8,2.3-3.7,4.4c2.9,1.3,4.6-0.2,6.3-2.1c5.5-6.2,11.6-11.8,17.4-17.7
		c1.3-1.3,2.6-2.6,4.4-3.2c2.6-0.7,5.1-0.8,7.6,0.2c3,2.5,1.2,4.7-0.6,6.7c-3.7,4.1-7.7,7.8-11.5,11.7c-1.2,1.3-2.8,2.3-3.6,4.4
		c2.9,1.3,4.6-0.2,6.3-2.1c5.5-6.2,11.6-11.8,17.4-17.7c1.3-1.3,2.6-2.6,4.4-3.2c2.6-0.7,5.1-0.8,7.6,0.2c3,2.6,1.1,4.8-0.7,6.8
		c-3.8,4.2-8,8-11.9,12.1c-1.1,1.1-2.7,2-3,3.9c2.7,1.2,4.4-0.2,6-2c2.8-3.3,5.9-6.4,9.1-9.2c2-1.7,4.1-3.6,7.1-1.9
		c-0.2,4.4-3.8,7.5-4.3,11.8c0.5-4.4,4.3-7.7,4.5-12.2c0.3-1.4,0.8-2.7,2.7-2.3c2,1.6,1.4,3.8,1.6,5.9c0.2,3.4-0.5,6.9,0.9,10.1
		c0.8,2.4,2.7,2.6,4.8,2.6c11.2,0,22.4,0,33.6,0c1.9,0,3.7-0.1,4.6-2.2c1.1-2.2,1.2-4.5,1.2-6.8c0-9.5-0.1-19,0-28.5
		c0-2.1-0.5-4.4,1.4-6.1c3,0.2,2.4,2.6,2.7,4.4c0.3,2.8,0.1,5.6,0.2,8.5c0,2.8,1,4.4,4.1,4.4c17.8-0.2,35.6,0.2,53.4-0.2
		c1.9,0,3.3-0.7,4.5-2.4c4.7-6.4,9.7-6.3,13.8,0.4c1.1,1.8,2.6,1.9,4.2,1.9c2,0,2.2-1.6,2.5-3.1c0.4-1.5,0.2-3.5,2.4-3.9
		C461,401,460.8,405.4,458,409.7z"/>
	<path class="st3" d="M371,387.1c-1.8,1.4-1,3.4-1,5.1c0,10.8,0.2,21.5,0.2,32.3c0,1.9,0.8,4-1.1,5.5c-0.2-0.2-0.5-0.4-0.7-0.6
		c-2.4-7.7-1.1-15.6-1-23.4c-0.5-10.9-0.4-21.8,0-32.7c0.3-8.5,0.2-16.9,0.1-25.4c0-2.8-1.5-4.3-4.3-4.3
		c-12.9,0.2-25.9-0.5-38.8,0.4c-0.6,0.1-1.1,0-1.7-0.2c-1.4-1.3-1-2,1.2-2.6c-2.7,0.1-5,0.5-7.3,0.4c-13.8,0-27.7,0-41.5,0
		c-2,0-4,0.2-5.9-0.5c-0.8-0.6-1.8-1.1-0.8-2.3c7.7-1.7,15.5-1.5,23.3-1.5c42.7-0.3,85.5-0.2,128.2-0.1c9.5,0,18.9,1.3,28.3,0.7
		c1.1,0.4,0.7,1.5,1.1,2.2c1.2,8.3,2.5,16.6,3.7,24.8c0.2,1.1,0.1,2.3,1.2,3.1c2.9,6.4,5.2,12.8,1.8,19.8c-1.7,1.2-3.7,1.3-5.7,1.3
		c-24.2,0-48.4,0-72.6,0C375.2,389,372.9,388.9,371,387.1z"/>
	<path class="st4" d="M214,451.1c-2.2,15.8-22.3,30.5-42.9,16.6c-1.3-1.3-2.6-2.5-3.9-3.8c-3.6-3.5-6.8-7.4-7.2-12.8
		c-2.4-14.1,6.5-28.3,20.1-31.9c14.1-3.7,29.7,4.3,34.3,17.9C216.1,441.7,216.8,446.5,214,451.1z"/>
	<path class="st5" d="M448.1,337.8c-1.9,2.1-4.4,1.2-6.6,1.2c-57.8,0.1-115.7,0-173.5,0c-0.5,0.2-0.9,0.1-1.1-0.3
		c-0.2-0.7,0.3-1.1,0.8-1.4c17.6-1.7,35.1-3.1,52.6-6.1c1.9-0.3,4-0.3,6-0.2c14.8,0.7,29.6,0.5,44.5,0.1c13-0.4,25.8,2.4,38.8,3.2
		c12.1,0.7,24.2,1.8,36.3,2.8C446.6,337.1,447.3,337.5,448.1,337.8z"/>
	<path class="st4" d="M158.2,416.1c3-3.3,6.7-4.3,11.1-4.3c11.8,0.2,23.6,0.2,35.3,0c5-0.1,8.4,1.8,10.9,6.2
		c5.5,9.6,11.2,19.2,17,28.7c2.2,3.6,0.5,3.8-2.4,3.3c-2.6-1.1-4.2-3.2-5.6-5.5c-4.1-6.9-8.2-13.7-12.3-20.6c-2.1-3.5-4.9-5-9-5.1
		c-11.2-0.3-22.3-0.1-33.5,0.1c-7,0.1-8.9,2.1-9.1,9c-0.1,7.5-0.3,14.9-1.5,22.3c-3.9,1.6-6.7-2.1-10.3-2
		c-2.9-2.7-4.2-11.2-2.3-14.5c1.5-2.6,4-2.8,6.5-2.5c3.2,0.4,3.9-0.9,3.8-3.9C156.7,423.5,156.3,419.6,158.2,416.1z"/>
	<path class="st6" d="M161.1,397.9c1-2.7,3.2-3.5,5.8-4c19.4-3.8,38.8-7.8,58.1-11.7c0.3,0.6,0.3,1.2,0.1,1.8
		c-1.5,3.4-2.6,6.8-2.7,10.5c-0.1,3.3-1.8,4.8-5,4.8c-17.4,0.1-34.8,0.1-52.3,0C163.6,399.4,162.2,399.1,161.1,397.9z"/>
	<path class="st7" d="M234.9,405.9c-25.2,0-50.4,0-75.6,0c0.6-2.3,0.3-4.8,1.6-7c5.8-0.9,11.6-0.3,17.4-0.4
		c12.6-0.1,25.2-0.1,37.8,0c4.8,0,9.5-1.4,14.3-1C236.3,398,237.8,400.5,234.9,405.9z"/>
	<path class="st8" d="M225,382.7c0-0.2,0-0.3,0-0.5c3.4-1,5.7-3.3,7.8-6c8.8-11.3,17.6-22.5,26.4-33.7c2.2-2.8,4.5-5.4,8.5-5.3
		c0.1,0.6,0.2,1.2,0.3,1.8c0.3,0.3,0.7,0.7,1,1c0.2,0.2,0.3,0.5,0.3,0.8c0,0.3-0.1,0.4-0.1,0.4c-2.4,1.8-5.2,3.4-6.2,6.6
		c-8.1,10.3-15.7,21.1-24.1,31.2c-1.3,0.9-1.7,2.4-2.2,3.8c-0.5,3.7-0.2,7.3-0.3,11c0,3.2-1.1,5.1-4.7,4.7c-1.1-0.1-2.3,0-3.5,0
		c-7.1,0-8.3-1.5-6.4-8.5C222.5,387.5,223.5,385,225,382.7z"/>
	<path class="st9" d="M225,382.7c-0.6,3.9-3.1,7.2-3,11.3c0.1,2.6,0.5,3.9,3.5,3.9c11.7-0.2,9.2,0.9,9.5-8.9
		c0.1-2.7-0.8-5.6,0.8-8.2c1.7,1.3,1.6,3.2,1.6,5c0.1,12.4,0.1,24.9,0,37.3c0,1.8,0.1,3.7-1.7,4.9c-1.7-7.3-0.2-14.8-0.8-22.2
		c0.3-6.9,0.3-6.9-6.3-6.9c-22.6,0-45.1-0.1-67.7-0.1c0.1-0.3,0.1-0.7,0.2-1c18.3,0,36.6-0.1,54.9,0.1c4,0,5.1-1.3,5-5.1
		C220.8,389.1,221.7,385.4,225,382.7z"/>
	<path class="st10" d="M149,448.1c3.5-0.3,6.9,0.1,10,1.9c1.4-0.6,2.2,0.2,2.8,1.3c0.3,4.9,3.2,8.5,5.5,12.5
		c-4.5-2.6-7.6-6.9-11.3-10.4C153.9,451.4,151.8,449.3,149,448.1z"/>
	<path class="st4" d="M437,451c-4.4,21.4-29.1,29.1-44.4,15.1c-3.8-3.5-6.7-7.7-7.7-13c-8.3-11.7,4.2-31.5,19.7-34.3
		c14.6-2.6,28.4,5.2,32.9,19.3C438.9,442.4,440,446.8,437,451z"/>
	<path class="st11" d="M437,451c1.1-13.1-3.6-23.2-15.8-28.8c-9.3-4.2-18.7-3.3-26.8,3.1c-8.4,6.6-12.5,15.3-9.5,26.3
		c0.1,0.5,0,1,0,1.5c-0.8-2-2.3-2.4-4.4-2.4c-5.5,0-11-0.2-16.5-0.4c0.2-0.5,0.4-1,0.7-1.5c2.9-0.4,3.9-2.8,5.2-4.9
		c4.2-7,8.4-14,12.5-21.1c3.1-5.3,7.4-7.8,13.5-7.7c10.8,0.2,21.7-0.1,32.5,0.1c7.7,0.1,10.3,2.2,12.3,9.7
		c1.7,6.4,2.6,12.9,3.7,19.5c0.4,2,1,3.8,2.2,5.4c0.2,0.1,0.3,0.3,0.3,0.4C443.7,450.5,440.3,450.8,437,451z"/>
	<path class="st11" d="M161.8,451.4c-0.9-0.4-1.9-0.9-2.8-1.3c0-8,0-16,0.1-24c0.1-6.3,2.8-9,9.2-9.1c11.5-0.1,23,0.2,34.5-0.1
		c5.6-0.2,8.9,1.9,11.6,6.6c5.1,9,10.6,17.7,15.9,26.5c-4.9,0.2-9.8,0.5-14.7,0.7c-0.5,0.1-1,0.2-1.5,0.4
		c0.1-16.8-6.3-26.6-19.8-30.4C176.2,415.5,157.5,433.2,161.8,451.4z"/>
	<path class="st12" d="M456,386.9c-0.7-6.3-1.3-12.7-2-19c2-0.1,4-0.2,5.9-0.1c3.7,0.1,5.9,2.1,6,5.9c0.1,9.9,0.1,19.9-0.1,29.8
		c-0.1,4.8-3.3,6.5-7.8,6.2c-0.3-4.3-0.6-8.6-0.9-13C454.5,393.7,454.1,390.5,456,386.9z"/>
	<path class="st13" d="M238.1,377.8c6.6-8.5,13.2-17,19.8-25.5c1.3-1.7,2.7-3.3,4.1-5c2.6-4.7,6.6-6.4,12-6.3
		c13.8,0.2,27.6,0,41.4,0.1c4.8,0,6,1.1,6,5.9c0.1,18.5,0.1,36.9,0,55.4c0,1.3-0.1,2.7-1,3.8c-2.5,2-5,1.9-7.5-0.1c-3,0-6,0-9,0
		c-3.7,2-7.3,3-11,0c-3,0-6,0-9,0c-3.7,2-7.3,3-11,0c-3,0-6,0-9,0c-1.6,0.9-3.2,1.8-5.1,1.8c-5.9,0-11.8,0-17.7-0.1
		c-1.4,0-3-0.2-4.1-1.3c-1.2-2.7-0.3-5.6-0.6-8.4c1.4-4.5,6-3.8,9.5-5.7c-3-2.7-8-1.8-9.5-6.1C236.6,383.4,235.9,380.3,238.1,377.8z
		"/>
	<path class="st14" d="M456,386.9c0.4,3.3,0.8,6.6,1.2,9.8c-0.1,1-0.3,2-0.3,3c-0.2,5.8-3.6,8.1-9.1,5.9c-1-0.4-0.8-0.9-0.6-1.9
		c0.5-2.3-0.2-4.9-2.7-5c-2.9-0.1-7.5-1.5-8.2,3.2c-0.6,4.2-2.6,3.8-5.7,3.7c-17.4-0.1-34.9,0.2-52.3,0.3c-7.1,0-7.1,0-7.2-7.4
		c0-3.8,0-7.7-0.1-11.5c1.1-0.1,2.3-0.4,3.4-0.4c26.5,0,53.1,0,79.6,0C454.7,386.7,455.3,386.8,456,386.9z"/>
	<path class="st4" d="M446.7,449.9c-3,0.1-3.3-2.1-3.7-4.3c-1.3-7.2-2.6-14.3-4-21.5c-0.9-4.8-3.9-7.1-8.7-7.1
		c-12.1,0-24.3,0.1-36.4,0c-4.1,0-6.9,1.8-8.9,5.2c-4.6,7.9-9.2,15.8-13.9,23.6c-1.3,2.2-2.3,5.8-6.2,3.1
		c6.3-10.7,12.6-21.4,18.9-32.2c1.8-3.1,4.5-4.8,8.2-4.8c13.3,0,26.6-0.1,39.9,0c4.9,0,8.5,2.5,9.6,7.2
		C443.5,429.3,445.7,439.5,446.7,449.9z"/>
	<path class="st15" d="M300,444.8c19.5,0,39,0,58.4,0.1c1.4,0,3.9-1.1,4.1,1.1c0.2,2-2.2,2.6-4.1,2.8c-1.2,0.1-2.3,0.1-3.5,0.1
		c-36.6,0-73.3,0-109.9,0c-1.3,0-2.7,0.1-4-0.1c-2-0.2-4.6-0.7-4.3-3c0.2-2,2.8-1,4.3-1C260.7,444.8,280.3,444.8,300,444.8z"/>
	<path class="st16" d="M237.2,405.9c8.9,0,17.9,0,26.8,0.1c-6.2,6.4-12.3,12.8-18.7,19.1c-1.9,1.9-2.3,5.9-6.5,4.9
		c-2.3-0.1-2.3-1.8-2.3-3.4c0-2.2,0-4.5,0-6.7c1.7-3.6,3.6-7.1,8.7-6.5c-3.3-1.1-6.8-1.3-8.6-4.7
		C236.6,407.7,236.2,406.7,237.2,405.9z"/>
	<path class="st16" d="M313,406c2.3,0,4.5,0,6.8-0.1c2,1,1.5,3,1.8,4.7c0,0.5-0.2,1-0.6,1.3c-0.3,0.9-0.6,1.8-0.9,2.7
		c-0.2,0.8-0.6,0.9-1.1,0.3c-7.6,1.2-11.2,7.5-15.3,12.6c-3.1,3.8-6.3,2.4-9.3,2c-2-0.3-0.2-2.1,0.6-2.9c5-5.1,10.1-10.1,15.1-15.2
		C311.6,409.9,313.3,408.5,313,406z"/>
	<path class="st16" d="M293,406c3.7,0,7.3,0,11,0c-6.5,6.6-13.3,13-19.3,20.1c-2.6,3-4.8,4.5-8.6,3.9c-0.9-0.1-2.2,0.2-2.6-1
		c-0.4-1.1,0.6-1.8,1.3-2.5c5-5.1,10.1-10.1,15.1-15.1C291.6,409.9,293.3,408.5,293,406z"/>
	<path class="st16" d="M273,406c3.7,0,7.3,0,11,0c-6.5,6.6-13.3,13-19.3,20.1c-2.6,3-4.8,4.5-8.6,3.9c-0.9-0.1-2.2,0.2-2.6-1
		c-0.4-1.1,0.6-1.8,1.3-2.5c5-5.1,10.1-10.1,15.1-15.1C271.6,409.9,273.3,408.5,273,406z"/>
	<path class="st17" d="M237.2,405.9c0,1,0,2,0,3c2.5,3.4,1.9,6.8,0,10.2c0.5,3.6-2.1,7.8,1.7,10.9c1.5,1,3.2,0.6,4.9,0.6
		c19,0,38,0,56.9,0c3.6,0,7.2,0.3,11.5-1.2c-2,2.8-4,2.5-5.9,2.5c-21.3,0-42.6,0-63.9,0c-3,0-5.7-0.5-6.6-3.9
		c0.1-15.7,0.1-31.5,0.2-47.2c0.3-1.3,0.9-2.5,2.2-3.2c-1,3-1.4,6-0.9,9.1c2.4,3.4,2.4,6.8,0,10.2
		C237.2,400.1,237.2,403,237.2,405.9z"/>
	<path class="st18" d="M369,430c-0.8,2.3-2.8,2-4.5,2.1c-12.3,0-24.6,0-36.8,0c-2.5,0-4.6-0.4-5.6-3.1c0.5-0.4,1.1-0.7,1.7-0.9
		c12.9-0.1,25.8,0,38.8,0C364.9,428,367.2,428.2,369,430L369,430z"/>
	<path class="st19" d="M323.1,429c-0.3,0-0.7,0-1,0c-0.7-5.7,0.9-11.4-1-17c0-0.3-0.1-0.6-0.1-0.9c-0.1-2.1,0.2-4.1,0.1-6.2
		c0.1-20.1-0.2-40.2,0.2-60.4c0.2-0.6,0.5-1.2,1.1-1.5c0.2,0,0.4,0,0.6,0c1.1,0.9,1.6,2.1,1.5,3.5c-0.3,13.3,0.8,26.7,0.3,40
		c0.2,3.4,0.5,6.8-0.1,10.2c0.3,3,0.5,6,0,9c0,1.2,0,2.4,0,3.6c0.5,3.3,0.4,6.6,0,9.9C324.9,422.6,325.8,426.1,323.1,429z"/>
	<path class="st20" d="M318.9,415c0.4-0.1,0.8-0.2,1.1-0.3c-1.9,4.7-3.9,9.3-5.8,14c-0.4-0.2-0.8-0.3-1.3-0.5
		C315,423.8,317,419.4,318.9,415z"/>
	<path class="st14" d="M323.2,406c0-3,0-5.9,0-8.9c2-3,5.6-3.1,8.9-4.6c-2.7-2.7-7-2.4-9-5.6c-0.1-14.7-0.2-29.3-0.3-44
		c1.3-1.1,2.9-1.3,4.6-1.3c12.3,0,24.6,0,37,0c2.4,0,4.8-0.2,4.7,3.4c-0.1,20.3-0.2,40.6-0.3,60.9c-1.6,1.7-3.8,2-6,1.9
		c-11.4-0.2-22.9,0.3-34.3-0.2C326.7,407.6,324.6,407.7,323.2,406z"/>
	<path class="st21" d="M389.1,348.1c14,0,27.9-0.1,41.9-0.1c1.1-0.1,1.3,0.6,1.5,1.5c1.3,8.2,2.5,16.4,3.7,24.6
		c0.4,2.9-0.6,3.4-3.1,3.4c-13.8-0.1-27.6,0-41.4,0c-1.5,0-3.2,0.1-3.1-2.1C388.9,366.3,387.7,357.1,389.1,348.1z"/>
	<path class="st16" d="M323.2,406c15.2,0,30.5,0,45.7,0c0,8,0.1,16,0.1,24c-13.6,0-27.1,0.1-40.7,0.1c-1.8,0-3.7,0.1-5.2-1.1
		c0-3.3,0.1-6.6,0.1-9.9c0.7-0.9,1.5-1.7,2.6-2.2c1.1-0.4,2.2-0.5,3.4-0.3c-0.2,0.4-2.4-0.6-2.3-1c0.6-2.1,2.6-1.6,4.2-2.3
		c-2.9-1.2-6.1-1.6-8-4.3C323.2,407.9,323.2,406.9,323.2,406z"/>
	<path class="st22" d="M389.1,348.1c0,8.2,0,16.3-0.2,24.5c-0.1,3.1,0.8,4.5,4.2,4.4c13-0.2,26-0.1,39,0c2.8,0,3.5-0.6,3.1-3.7
		c-1.2-8.5-2-17-4.2-25.3c1.2-1,1.8-0.3,1.9,0.9c1.4,8.5,2.7,17,4,25.5c0.4,2.4-0.7,3.7-3.3,3.7c-14.2-0.1-28.3,0-42.5,0
		c-1.6,0-3.1-0.4-3.1-2.4c0-9.1,0.1-18.3,0.2-27.4C388.3,348.2,388.8,348.1,389.1,348.1z"/>
	<path class="st23" d="M268.8,340.8c0.1-0.3,0.2-0.5,0.2-0.8c16.4,0.1,32.7,0.1,49.1,0.2c0.1,0.8-0.2,1.2-1,1.3
		c-14.9,0.1-29.7,0-44.6,0C271.3,341.5,269.9,341.9,268.8,340.8z"/>
	<path class="st24" d="M318.3,340.7c0-0.2,0-0.4-0.1-0.6c1.9-0.1,3.9-0.2,5.9-0.3c0.5,1.9-1.6,1.9-1.7,3.1c-0.2,0.3-0.3,0.6-0.5,0.9
		c-0.3,0.4-0.6,0.5-1,0.3C320.5,342.5,318.9,342,318.3,340.7z"/>
	<path class="st25" d="M171.8,446.3c0.1-8.8,7-15.8,15.9-15.9c8.8-0.1,16.3,7.4,16.2,16.2c-0.1,8.6-7.4,15.9-16,15.9
		C178.9,462.6,171.8,455.4,171.8,446.3z"/>
	<path class="st26" d="M318.3,340.7c1.7,0.3,2.8,1.2,3,3c0.6,18.9,0.1,37.9,0.3,56.8c0,1.8-0.4,3.7,0.4,5.4c0.3,1.8,0,3.6-1,5.2
		c-1.5-1.5-0.6-3.5-1.1-5.2c0.1-20,0.1-39.9,0.2-59.9c0-3-1.1-4.1-4.1-4.1c-15,0.1-29.9,0.2-44.9-0.1c-4.4-0.1-6.1,3.4-9,5.3
		c1-3.5,3.3-5.6,6.9-6.4C285.3,341.1,301.8,341.3,318.3,340.7z"/>
	<path class="st25" d="M394.6,446.4c0.1-9,7.5-16.2,16.4-15.9c8.7,0.2,15.9,7.6,15.7,16.2c-0.1,8.7-7.3,15.8-16,15.9
		C401.8,462.6,394.5,455.3,394.6,446.4z"/>
	<path class="st21" d="M316.8,371.1c-0.2,1-0.9,1.4-1.8,1.6c-16.5-0.5-32.9-0.2-49.4-0.1c-4.4,0-6.2-1.3-5.3-6.5
		c-0.9,2.6,0.3,5.6-2.2,6.1c-3,0.7-6.4,0.8-9.4-0.1c-2.1-0.7,0.3-2.4,0.2-3.7c5.8-8.1,11.8-16.1,18.5-23.5c6.1-1,12.2-0.5,18.3-0.4
		c10.1,0.1,20.2-0.6,30.3,0.4l0,0c1,6.7,0.2,13.5,0.5,20.2C316.6,367.1,316.2,369.1,316.8,371.1z"/>
	<path class="st27" d="M249,368.4c-1.2,4.8,2.4,3.4,4.7,3.5c2.2,0,5.3,1.1,4.4-3.4c-0.4-1.7,0-3.6,0-5.5c0.1-1.1,0.7-1.8,1.9-1.8
		c1.2,0,1.8,0.7,1.9,1.8c0.1,1,0.3,2,0.1,3c-1.3,5.7,1.6,6.1,6.3,6c13.8-0.3,27.6-0.1,41.4-0.1c1.8,0,3.7-0.4,5.3,0.7
		c-16.3,0.1-32.6,0.2-48.9,0.3c-2,0-4,0-6,0.1c-0.8,0.5-1.5,0.5-2.3,0c-2.3,0-4.6,0-6.9-0.1c-1.4-0.1-3.4,0.8-4.1-0.6
		C245.9,370.6,248,369.7,249,368.4z"/>
	<path class="st28" d="M237.2,397.1c0-3.4,0-6.8,0-10.2c3.1,1,6.1,2.1,9.2,3c1.1,0.3,2.3,0.4,2.5,1.9c0.2,1.7-1,2.7-2.3,2.7
		C243.1,394.6,240.4,396.5,237.2,397.1z"/>
	<path class="st29" d="M305.8,390c-1.5,0-3,0.1-4.4,0c-1.2-0.1-3,0.6-3.3-1.2c-0.3-1.7,1-2.7,2.6-3c3.6-0.7,7.2-0.8,10.8,0.1
		c1.4,0.4,2.5,1.3,2.5,2.7c-0.1,2.1-2,1.2-3.1,1.3C309.1,390.1,307.4,389.9,305.8,390z"/>
	<path class="st30" d="M316.1,345c-16.2,0-32.4,0-48.6,0c1.2-1.6,3-1.2,4.6-1.2c13.4,0,26.7,0,40.1,0
		C313.5,343.8,315.1,343.3,316.1,345z"/>
	<path class="st31" d="M257.9,373.1c0.8,0,1.5,0,2.3,0c-2.8,5.4-8.5,4.1-13,5.8c-1.4,0.6-1.2-1.1-1.2-2c0-1.6,0.6-1.6,2.2-1.2
		C251.8,376.7,255.3,376.5,257.9,373.1z"/>
	<path class="st32" d="M316.8,371.1c-1.8-8.7-0.4-17.4-0.8-26.1c2,1.7,1,4,1.1,6C317.1,357.6,316.9,364.3,316.8,371.1z"/>
	<path class="st33" d="M237.2,419.1c0-3.4,0-6.8,0-10.2c3,1.1,5.9,2.3,9.1,2.8c1.3,0.2,2.7,0.7,2.5,2.4c-0.3,2.3-1.8,1.2-3,1
		c-2.9-0.4-5.6-0.6-6.4,3.3C239.3,418.8,238,418.9,237.2,419.1z"/>
	<path class="st34" d="M323.2,386.9c3.8,0.3,6.9,2.6,10.5,3.5c2.2,0.5,1.8,3.1-0.4,3.9c-3.3,1.2-6.7,1.9-10.1,2.9
		C323.2,393.7,323.2,390.3,323.2,386.9z"/>
	<path class="st35" d="M323.2,408.9c3.4-0.1,6,2.5,9.3,2.9c1.4,0.1,2.7,0.8,2.3,2.5c-0.4,1.9-1.9,0.6-2.9,0.7
		c-1.3,0.1-2.5,0-3.8,0.8c1.2,0.1,2.5,0.2,3.7,0.3c-3.3-0.1-5.4,3.3-8.6,2.9C323.2,415.7,323.2,412.3,323.2,408.9z"/>
	<path class="st36" d="M321.9,405.9c-0.8-0.8-0.9-1.7-0.9-2.8c0.1-19.8,0.1-39.6,0.2-59.5c0.2,0.1,0.4,0.1,0.6,0.2
		C321.8,364.5,321.9,385.2,321.9,405.9z"/>
	<path class="st21" d="M366.1,344.2c0.5,0.6,1.3,1.3,1.4,1.9c0.4,8.2,0.7,16.5-0.1,24.7c0,0.4-0.5,0.8-0.8,1.2
		c-10.6,1.1-21.3,0.3-31.9,0.5c-10,0.2-9.2,0.7-9.1-9.1c0.1-6.1-0.6-12.3,0.4-18.4l0,0c9.6-1,19.2-0.2,28.8-0.4
		C358.5,344.4,362.3,344.9,366.1,344.2z"/>
	<path class="st37" d="M358.3,390c-1.5,0-3,0.1-4.5,0c-1.2-0.1-3.1,0.7-3.4-1c-0.3-1.6,1.1-2.7,2.7-3.1c3.6-0.8,7.3-0.9,10.9,0
		c1.4,0.4,2.5,1.4,2.5,2.8c-0.1,2.1-2,1.2-3.1,1.3C361.6,390.1,359.9,390,358.3,390C358.3,390,358.3,390,358.3,390z"/>
	<path class="st38" d="M325.9,344.9c0,7.5,0.1,14.9,0,22.4c-0.1,3.4,1.3,4.7,4.7,4.7c12-0.1,23.9,0,35.9,0c-1,1.1-2.4,1-3.7,1
		c-11.1,0-22.3,0-33.4,0c-2.3,0-4.6-0.2-4.6-3.2c0-8,0.1-15.9,0.2-23.9C325,345.6,325.6,345.3,325.9,344.9z"/>
	<path class="st39" d="M366.1,344.2c-2.1,1.5-4.5,0.8-6.8,0.8c-11.1,0.1-22.3,0-33.4,0c0.2-0.7,0.7-1.2,1.4-1.2
		C340.3,343.8,353.2,343,366.1,344.2z"/>
	<path class="st40" d="M188.4,440c3.5,1,5.9,2.9,5.7,7c-0.2,3.7-3.6,6.7-7.1,6c-3.8-0.7-6-3.3-5.6-7.1
		C181.9,442.1,184.5,440.1,188.4,440z"/>
	<path class="st41" d="M197.6,438c-0.2,0.9-0.7,1.6-1.6,1.5c-1.1,0-1.9-0.7-1.8-1.8c0.1-0.8,0.7-1.5,1.6-1.5
		C197,436.2,197.5,437,197.6,438z"/>
	<path class="st42" d="M197.6,454.2c-0.2,1-0.6,1.8-1.8,1.7c-0.9-0.1-1.5-0.7-1.6-1.5c0-1.2,0.7-1.8,1.8-1.8
		C196.9,452.6,197.4,453.2,197.6,454.2z"/>
	<path class="st43" d="M187.6,433c1-0.1,1.6,0.5,1.7,1.4c0.1,0.9-0.4,1.6-1.4,1.7c-1,0.1-1.7-0.4-1.7-1.4
		C186.1,433.8,186.7,433.2,187.6,433z"/>
	<path class="st43" d="M189.4,457.6c-0.2,0.9-0.6,1.5-1.7,1.4c-1-0.1-1.6-0.7-1.5-1.6c0-0.9,0.7-1.5,1.7-1.5
		C188.9,456,189.2,456.7,189.4,457.6z"/>
	<path class="st40" d="M417.1,446.7c-0.6,3.7-2.6,6.2-6.5,6.2c-3.8,0-6.2-2.4-6.4-6.3c-0.2-3.5,3.3-6.9,6.7-6.6
		C414.7,440.4,416.7,442.8,417.1,446.7z"/>
	<path class="st42" d="M400.8,446.1c-0.3,1.1-0.9,1.8-2,1.6c-0.8-0.1-1.4-0.8-1.4-1.7c0-0.9,0.6-1.5,1.5-1.6
		C400,444.4,400.7,445,400.8,446.1z"/>
	<path class="st42" d="M422,444.4c0.9,0.1,1.6,0.7,1.7,1.5c0.1,1.1-0.6,1.8-1.7,1.9c-0.9,0-1.5-0.7-1.6-1.5
		C420.2,445.2,420.9,444.6,422,444.4z"/>
	<path class="st44" d="M402.4,452.6c0.8,0.2,1.5,0.5,1.5,1.5c0,1.1-0.6,1.8-1.8,1.7c-0.9-0.1-1.3-0.8-1.3-1.7
		C400.9,453.1,401.6,452.8,402.4,452.6z"/>
	<path class="st45" d="M190.2,446.3c0,1.5-0.6,2.6-2.3,2.7c-1.6,0.1-2.6-0.8-2.8-2.3c-0.2-1.5,0.7-2.5,2.3-2.7
		C189.1,443.8,190,444.7,190.2,446.3z"/>
	<path class="st46" d="M410.6,444c1.6,0.1,2.5,1,2.5,2.5c0,1.5-0.9,2.5-2.5,2.5c-1.5,0-2.5-0.9-2.5-2.5
		C408.1,444.9,409,444.1,410.6,444z"/>
</g>
</svg>
