<?xml version="1.0" encoding="utf-8"?>
<!-- Generator: Adobe Illustrator 19.0.0, SVG Export Plug-In . SVG Version: 6.00 Build 0)  -->
<svg version="1.1" id="Calque_1" xmlns="http://www.w3.org/2000/svg" xmlns:xlink="http://www.w3.org/1999/xlink" x="0px" y="0px"
	 viewBox="0 0 612 792" style="enable-background:new 0 0 612 792;" xml:space="preserve">
<style type="text/css">
	.st0{fill:#EE4E62;}
	.st1{fill:#E04058;}
	.st2{fill:#FDFDFD;}
	.st3{fill:#FBF8F9;}
	.st4{fill:#E97A8A;}
	.st5{fill:#FDFCFC;}
	.st6{fill:#FBFAFA;}
	.st7{fill:#FDFAFB;}
	.st8{fill:#E25368;}
	.st9{fill:#DF4057;}
	.st10{fill:#E14158;}
	.st11{fill:#DF4058;}
	.st12{fill:#E88694;}
	.st13{fill:#E34A61;}
	.st14{fill:#E35469;}
	.st15{fill:#E895A1;}
	.st16{fill:#E27C8B;}
	.st17{fill:#E88190;}
	.st18{fill:#EC9AA6;}
	.st19{fill:#EB8F9C;}
	.st20{fill:#E2455C;}
	.st21{fill:#E14259;}
	.st22{fill:#E24D63;}
	.st23{fill:#E04F64;}
	.st24{fill:#E14058;}
	.st25{fill:#E36E7F;}
	.st26{fill:#D9485D;}
	.st27{fill:#FCFAFA;}
	.st28{fill:#E24C62;}
	.st29{fill:#DE4259;}
	.st30{fill:#DD4158;}
	.st31{fill:#E2475E;}
	.st32{fill:#E45066;}
	.st33{fill:#E98896;}
	.st34{fill:#EC8C9A;}
	.st35{fill:#E24F65;}
</style>
<g>
	<path class="st0" d="M357,615c-98.3,0-196.6,0-294.9,0.1c-3.2,0-4.2-0.4-4.2-4C58,443,58,274.9,57.9,106.7c0-3.1,0.7-3.8,3.8-3.8
		c168.1,0.1,336.2,0.1,504.3,0c3.6,0,4,1,4,4.2C570,209.7,570,312.4,570,415c-2.8,1.6-4.3-0.6-5.9-2.2c-7.6-7.4-15.1-15-22.6-22.5
		c-16.1-16.1-32.1-32.2-48.3-48.2c-2.1-2.1-4.1-4.3-5.9-6.7c-2.8-2-6.1-0.8-9.2-1.5c-18-3.7-34.6-10.9-50.3-20.2
		c-13.4-8-27.9-11.7-43.1-13.2c-20.3-2.1-40.6-1.2-60.9-0.9c-30.1,0.4-58.1,8-82.8,26.4c-13.3,9.9-28.9,15.7-45.2,19.3
		c-10.9,2.4-21.6,5.5-31.7,10.3c-8.2,3.9-14.8,9.6-19.3,17.5c-3.2,5.6-2.2,7.8,4.2,8.5c1.9,0.2,4.1,0,5.2,2.3
		c0.1,0.9-0.2,1.6-0.8,2.2c-3,2.3-7.1,0.4-10.1,2.5c-1.7,1.4-2.1,3.2-1.8,5.3c0.2,4.1,2.5,6.5,6.3,7.6c1.7,3,4.9,4.4,7.2,6.8
		c14.3,14.4,28.9,28.5,43,43.2c42.8,44.8,87.5,87.7,131,131.8c8.5,8.7,17.2,17.2,25.7,25.9C356.4,610.7,358.6,612.2,357,615z"/>
	<path class="st1" d="M488.9,334.9c7.1,5.8,13.1,12.7,19.6,19.1c19,18.8,37.8,37.8,56.7,56.7c1.5,1.5,3.2,2.9,4.8,4.3
		c0,65.3,0,130.7,0.1,196c0,3.4-0.7,4.1-4.1,4.1c-69.7-0.1-139.3-0.1-209-0.1c-1.4-1.6-2.8-3.3-4.3-4.8
		c-49.9-49.9-100-99.6-149.5-149.8c-17.9-18.1-35.7-36.2-53.6-54.3c-0.9-0.9-1.7-2-2.6-3c1.3-2.7,3.9-2.3,6.1-2.4
		c5.5-0.2,11,0,16.5-0.1c5.3-0.2,7-1.5,6.9-6.9c-0.1-14.5,12.2-29,29.8-29.9c16-0.8,30.1,10.9,32.7,27.1c0.3,2,0.4,4,0,6
		c-0.6,3.1,0.7,4.2,3.8,4.1c21.3-0.6,42.6-0.2,64-0.2c29.2-0.1,58.3,0,87.5-0.1c2.8,0,5.8,1.5,8.3-0.3c2.8-2,0.9-5.3,1.2-8
		c2.1-16,15.3-28.3,31.1-28.6c15.8-0.3,28.8,10.6,31.9,26.8c0.4,2.3-0.1,6.4,4,5.5c3.9-0.9,1.7-4.1,1.4-6.6
		c-0.9-8.5-0.7-17-0.2-25.4c0.2-3.8,2.9-4.8,6.2-5.2c6.6-0.7,7.6-2,7.4-8.5c-0.1-3.4-1.3-6.5-1.5-9.9
		C483.8,336.9,484.5,334.2,488.9,334.9z"/>
	<path class="st2" d="M488.9,334.9c-3.6,1.1-3.2,3.7-2.3,6.3c1.8,5.3,2.1,10.7,1.7,16.3c-0.1,2.3-0.6,3.5-3.4,3.6
		c-10.9,0.4-10.9,0.5-10.8,11.3c0,4.2,0.2,8.3-0.1,12.5c-0.2,3.9,0.1,7.1,5.9,6.2c-3.2,5-7.3,7.7-11.8,9.9c-3.2,1.5-4,0.6-3.7-2.9
		c1.2-15.1-8-27.8-22.3-31.2c-19-4.4-37.2,10.8-35.8,30.2c0.3,4.6-0.8,5.7-5.2,5.7c-52.3-0.1-104.6-0.1-156.9-0.1
		c-7.3,0-7.3,0-7.3-7.1c0.1-16.6-13.3-30-29.8-29.6c-16.3,0.3-29.3,13.9-28.3,30.4c0.3,5.4-1.3,6.6-6.3,6.4
		c-8.5-0.3-17,0.1-25.5,0.1c-0.3-0.1-0.6-0.2-1-0.2c-7-1.5-7-1.5-6-8.7c2-2.6,4.9-1.3,7.4-1.5c5.1-0.5,6.9-2.7,6.4-8.2
		c-3.5-0.1-7-0.4-10.5-0.3c-2.6,0.1-3.6-0.7-3.5-3.4c0.1-2.4,0.5-4.6,1.7-6.7c5.3-9.6,12.8-16.7,23.1-21.1
		c11.4-4.8,23.1-8.2,35.1-11.1c14.7-3.5,28.5-9.2,40.7-18.2c23.1-17.1,49.2-25.5,77.7-26c22.3-0.4,44.6-1.1,66.9,0.5
		c15.7,1.1,30.6,5.6,44.4,13.7c15.4,9.1,31.6,16.4,49.3,19.7c2.1,0.4,4.3,0.5,6.4,0.6C487.2,332.1,489,332.3,488.9,334.9z"/>
	<path class="st3" d="M140.2,385.1c4.2,0,8.4,0,12.6,0c2.6,0.3,3.3,2,3,4.2c-0.3,2.2-1.8,3.4-4,3.6c-2,0.1-3.9,0.1-5.9,0.1
		C138.9,393,138.4,392.2,140.2,385.1z"/>
	<path class="st4" d="M140.2,385.1c-0.6,7.2-0.6,7.2,6.5,7c1.2,0,2.3,0,3.5-0.1c1.8-0.1,3.8,0.2,4.7-2c1-2.3-0.5-3.7-2.1-5
		c0.3-0.3,0.7-0.6,1-0.9c2.8,1.1,3.8,3.3,3,6c-0.8,2.7-3,3.8-5.8,3.8c-3.7,0-7.3,0-11,0C138.9,391,138.1,388.1,140.2,385.1z"/>
	<path class="st5" d="M232,395.6c-0.1,13.7-11.5,25-25.2,25c-14.2,0-25.7-11.7-25.4-25.9c0.3-13.8,11.8-24.9,25.5-24.7
		C220.9,370.2,232.1,381.6,232,395.6z"/>
	<path class="st6" d="M435.5,420.1c-13.9,0.1-25.3-11-25.5-24.7c-0.2-14.3,11-25.7,25.4-25.7c13.8,0,25.1,11.1,25.3,24.9
		C460.9,408.6,449.6,420,435.5,420.1z"/>
	<path class="st7" d="M476.1,376c0-3,0.1-6,0-9c-0.2-2.9,0.6-4.2,3.8-4c8.7,0.4,8.2-1.8,6.5,7.9c-0.8,4.9-1.6,9.8-3.3,14.5
		c-0.9,2.5-2.4,3.9-5.2,3.4c-3-0.5-1.6-2.8-1.7-4.4C475.9,381.7,476.1,378.8,476.1,376z"/>
	<path class="st1" d="M355.1,332.2c-9.7,0-19.3-0.1-29,0.1c-3.6,0.1-3.7-1.1-2.7-4c2.5-7,4.7-14.2,7-21.3c0.6-1.9,1.1-3.2,3.6-3.1
		c18.8,0.6,37.6-1,56.4,1.2c1.3,0.2,2.6,0.6,3.9,0.7c2.8,0.2,3.4,1.5,2.4,3.9c-2.7,6.6-5.4,13.3-7.9,19.9c-1,2.6-2.9,2.7-5.2,2.6
		C374.1,332.2,364.6,332.2,355.1,332.2C355.1,332.2,355.1,332.2,355.1,332.2z"/>
	<path class="st1" d="M245.7,331.8c-0.3-1.4,0.6-1.8,1.2-2.2c22.4-15.9,47-25.2,74.8-25.7c3.4-0.1,4.4,0.6,3.1,4.1
		c-2.7,7-4.9,14.1-8.2,20.9c-1,2-2.1,3.5-4.8,3.5c-21.5-0.1-43,0-64.4-0.1C246.7,332.2,246.1,331.9,245.7,331.8z"/>
	<path class="st1" d="M407.9,332.2c-3.5,0-5.5,0-7.5,0c-6.1,0-6.1,0-4.1-5.5c1.9-5.3,3.9-10.6,5.5-16c0.7-2.2,1.4-3,3.8-2.3
		c5.9,1.8,11.6,4.1,16.9,7.4c6.3,3.9,6.1,9.7-0.1,13.9C417.4,333,411.8,332.1,407.9,332.2z"/>
	<path class="st8" d="M426,340.1c1.9,1.1,0.9,2.5,0.3,3.8c-6.8,13.1-14.4,25.5-25.1,35.7c-5.6,5.4-11.8,8.2-20.1,8.1
		c-42.8-0.3-85.6-0.1-128.3,0c-2.3,0-4.8,0.4-7.6-0.8c2.2-1.6,4-1,5.7-1c43.4,0,86.9-0.2,130.3,0.1c7.7,0.1,13.4-2.6,18.7-7.6
		c8.7-8.2,15.3-18,21.1-28.3c1.6-2.9,3.3-5.7,4.9-8.6C425.2,341.1,425.3,340.6,426,340.1z"/>
	<path class="st9" d="M426,340.1c0,0.5-0.1,1-0.1,1.6c-1.7-1.1-3.6-0.6-5.4-0.6c-62.5,0-125,0-187.5,0c-1.7,0-3.4,0-5.2-0.5
		c4.4-1.5,8.9-1,13.3-1c60-0.1,120,0,180,0C422.8,339.5,424.5,339.1,426,340.1z"/>
	<path class="st10" d="M158.1,370.3c-2-0.5-5.6,1.3-6.5-0.9c-1-2.6,2.5-4.2,4.4-5.9c6-5.3,13.5-7.7,20.7-10.5c2.9-1.1,3.4,0.3,2.8,3
		C177.4,365.2,170.1,370.3,158.1,370.3z"/>
	<path class="st11" d="M240.5,399.1c1.6-3.5,4-5.4,8-5.4c48,0,96,0,144-0.2c4.3,0,7.5,1,9.3,5.1c-0.2,0.2-0.7,0.5-0.7,0.5
		c-3.5-4.4-8.3-3.8-13.1-3.8c-43.8,0.1-87.7,0.2-131.5,0.3C251,395.5,245.1,394.1,240.5,399.1z"/>
	<path class="st12" d="M173.3,369.5c-7.3,5.9-15.8,2.8-23.8,3.1c7.8-0.9,16,0.6,23.1-3.9C173.5,368.3,173.7,368.6,173.3,369.5z"/>
	<path class="st13" d="M312.9,335.7c2.4-1.1,4.7-1.3,7.7-0.1C317.6,337.5,315.3,337.2,312.9,335.7z"/>
	<path class="st14" d="M393.6,335.4c-0.5,0.8-0.5,1-0.6,1c-2.2,0.9-4.4,0.9-6.6,0c-0.2-0.1-0.2-1.1,0-1.2
		C388.7,334.3,391,334.4,393.6,335.4z"/>
	<path class="st15" d="M178.8,362.5c1.2-3,2.5-6.1,4-9.8c0.1,4.3-0.9,7.6-3.3,10.5c-0.3,0-0.7,0.5-1,0.1
		C178.4,363.2,178.7,362.8,178.8,362.5z"/>
	<path class="st16" d="M172.6,368.7c2.1-2.1,4.2-4.1,6.2-6.2c0.2,0.2,0.5,0.5,0.7,0.7c-1.5,2.6-3.5,4.8-6.2,6.2
		C173.1,369.2,172.8,368.9,172.6,368.7z"/>
	<path class="st17" d="M217.9,378.2c9.4,7,12,17.8,6.7,27.2c-5,8.9-15.8,12.9-25.3,9.3c-10.2-3.9-15.1-14.3-12.3-25.6
		c2.6-0.2,2.3,1.9,2.4,3.4c0.2,2.5,0.3,5,1.4,7.2c1.2,2.1,2.4,4.3,4.7,5.5c1.1,1.2,3.1,0.4,4.2,1.7c1.3,2,2.8,0.2,4.2,0.2
		c2,0.7,3.4-0.5,4.8-1.6c2.1-0.7,3.1,1.5,4.9,1.8c-0.3-6.2,0.6-7.2,5.9-6.7c-1.8-0.6-3.3-1.5-2.9-3.8c0.8-2.5,5.3-1.1,4.8-4.8
		c0.1-3.1-1.2-5.8-2.3-8.6C218.6,381.7,216,380.4,217.9,378.2z"/>
	<path class="st18" d="M217.9,378.2c1,1.6,2,3.3,3,4.9c-0.8,2.2-1.5,4.5-4.7,3.7c-1.5-0.6-1.7-2.3-2.6-3.3c-1-1.3-1.3-3.5-3.8-2.9
		c-3.2-0.1-2.7,3.2-4.2,4.6c-1.9,1-3.1-0.1-4.2-1.4c-2-2.3-3.8-2.1-5.7,0.2c-0.7,0.9-0.8,2.1-1.6,2.9c-2.4,1.6,0.2,3.5-0.3,5.2
		c-1,2-2,4.1-2.2,6.4c-0.1,1.6-0.9,2.7-2.3,3.4c-1.7-2.3-1.3-5-1.4-7.6c-0.1-1.8,0.5-3.6-0.8-5.2
		C190.2,376.2,207.7,371.3,217.9,378.2z"/>
	<path class="st19" d="M430.2,414.8c-10.5-2.8-16.8-12.4-15.2-23.1c1.5-9.9,10.7-17.6,20.8-17.3c10.4,0.2,19,8.1,20.3,18.6
		c1.2,10.2-5.6,19.5-16.1,22C436.7,414.2,433.4,414.4,430.2,414.8z"/>
	<path class="st20" d="M430.2,414.8c3.3-1,6.5-1.2,9.7,0.1C436.7,415.4,433.4,415.4,430.2,414.8z"/>
	<path class="st6" d="M216.1,386.1c2.2-0.1,2.7-2.9,4.9-3c1.4,2.4,3.1,4.7,3.6,7.6c0.3,1.6-0.3,1.7-1.6,1.4
		c-1.2,2.6-4.8,2.2-5.9,4.9c2.2,2.3,4.8,2.5,7.8,1.2c-0.2,1-0.3,1.6-0.5,2.2c-0.9,2.7-1.2,6.7-5.3,2.3c-0.8-0.9-2.2-1.2-3.2-0.3
		c-1.2,1-0.4,2.3,0.4,3c4.9,3.8,1.1,5.1-1.9,6.6c-1,0.5-2,1.2-3.5,0.7c-0.1-2.3,0.3-4.8-1.8-6.6c-1.6,0.9-3.1,2-5.1,1.8
		c-0.2,0.2-0.4,0.5-0.6,0.7c-1.1,1.3,1.3,3.6-0.9,4.3c-1.7,0.5-3.8-0.5-4.9-1.8c-1.4-1.7,2-2.3,1.5-4.1c-1.3-1.3-2.7,0.4-4,0
		c-4.4,1.1-3.9-3.3-5.7-5.1c-0.2-1.4-0.6-2.9,0.8-3.9c2.3-1.3,2.1-3.8,2.9-5.9c-0.3-2.3-4.3,1-3.6-2.2c0.3-1.6,0.2-4.6,3.6-3.7
		c1.9-0.5,1.5-1.9,1.2-3.2c0.2-1.3,1.2-2,2-2.7c4-3.2,5.4-2.8,7,2c0.4,1.1,0.6,2.2,2,2.6c1.9-1.7,2.5-4.4,4.7-5.7
		c1.2-3.8,3.2-0.7,4.6-0.3c3.3,0.9,0.5,2.7,0.4,4.1C215.4,383.9,214.9,385.3,216.1,386.1z"/>
	<path class="st21" d="M217,397c-0.7-4,0.2-4.8,5.9-4.9C223,398.1,223,398.1,217,397z"/>
	<path class="st22" d="M203.9,407.9c0.9-2.7,2.1-4.8,5.1-1.8c0.1,0.6,0,1.3,0.2,1.9c0.5,1.7,0.8,3.4-1.6,3.8
		C204.6,412.2,204,410.2,203.9,407.9z"/>
	<path class="st23" d="M195,407c1-1.2,1.7-3.1,3.7-2.5c1.2,0.4,0.7,1.6,0.3,2.5C197.6,407.5,196.3,409.4,195,407z"/>
	<path class="st10" d="M192.9,392c1.1,1.8,5.6,0.7,4.4,3.9c-1.1,2.7-4.3,3-7.2,1.9C190.3,395.6,189.1,392.6,192.9,392z"/>
	<path class="st24" d="M209.8,379.1c-0.5,2.8,0,6.4-4.7,5.7C203.7,378.8,203.7,378.8,209.8,379.1z"/>
	<path class="st25" d="M194.1,382.9c0.5,0.1,1.1,0,1.4,0.3c1.4,1.3,4,2.7,2.2,4.6c-1.6,1.7-3.6,0.1-4.8-1.7
		C193.3,385.1,193.7,384,194.1,382.9z"/>
	<path class="st26" d="M216.1,386.1c-0.7,0.5-1.6,0.7-2-0.2c-0.5-1.1-0.1-2.2,0.8-3c0.9,0.2,2-1.2,2.6-0.1
		C218.4,384.2,216.3,384.8,216.1,386.1z"/>
	<path class="st27" d="M448.9,398.1c0.5,2.2,4.6-1.4,3.9,2.2c-0.3,1.7,0,5.2-3.8,3.8c-1,0.7-1.9,1.5-1.1,2.9c-1.1,4.8-5.5,4.6-9,6.2
		c1-6.5-0.8-9.2-5.1-8.2l0,0c-2.6,3.4-2.6,3.6-2.1,8c-1.3-0.4-2.6-0.7-3.8-1.1c-2.1-0.8-3.8-1.6-0.8-3.7c1.4-1,2.2-2.9,0.9-4.3
		c-1.1-1.2-2.4,0-3.1,1.3c-0.1,0.6-0.4,0.9-1,1c-1.5,1.8-2.5,1.3-3.7-0.4c-4.3-5.9-4.3-14.3,0.1-20.6c0.9,0.7,1.7,1.5,2.7,2.1
		c1.1,0.6,2.5,1.6,3.6,0.2c1.1-1.4-0.2-2.4-1-3.4c-1.1-1.2-3.7-2.6-0.6-3.9c2.1-0.9,4.3-5.2,7.2-0.9c2.2,1.2,4.3,1.9,5.7-1
		c2.5-2,4.5-0.2,6.2,1.1c1.7,1.3-0.3,2.5-1.1,3.7c-0.7,1-1.1,2.2-0.1,3.1c0.9,0.7,1.8-0.2,2.7-0.5c1.5-0.5,2.1-4.2,4-1.9
		c1.9,2.2,4.4,4.8,2.4,8.4c-0.2,0.1-0.4,0.1-0.6,0.2c-1.7,1.3-3.2,2.8-2.5,5.3C448.9,397.6,448.9,397.8,448.9,398.1z"/>
	<path class="st28" d="M437.9,378.1c2.1,2.3,0.2,4.1-0.7,6c-0.4,1-1.7,1.2-2.6,0.8c-2.3-1.2-2.6-3.4-2.5-5.8
		C433.9,377.8,435.9,378.1,437.9,378.1z"/>
	<path class="st29" d="M452.1,391.9c-0.1,2.5,0.8,5.6-3.1,6.1l0,0c-1.7-1-4.7-1.6-3.4-4.4C446.8,391.3,449.5,391,452.1,391.9
		L452.1,391.9z"/>
	<path class="st30" d="M433.9,404.9c1.6,0.1,3,0.5,3.6,2.2c0.4,1.1,0.8,2.3-0.1,3.3c-0.9,1-2.1,0.9-3.2,0.4c-1.3-0.6-1.2-1.8-1-3
		C433.4,406.8,433.7,405.9,433.9,404.9C433.9,404.9,433.9,404.9,433.9,404.9z"/>
	<path class="st31" d="M447.9,406.9c-3-0.1-3-2.5-4.2-4.6c2.5-0.3,3.8,1,5.2,1.8C448.6,405,448.3,405.9,447.9,406.9z"/>
	<path class="st32" d="M424,406c0.3-0.3,0.7-0.7,1-1c0.8,0,2.1-0.2,2.3,0.1c0.5,1.1-0.5,1.9-1.3,2.3C424.7,408.1,424.3,407,424,406z
		"/>
	<path class="st33" d="M199.3,394c4.7,0.7,5.4-3.5,7.5-6.4c2.3,2.7,5,5.2,6.7,8.2c0.6,1.1-2.4,1-3.6,1.8c-1.9,1.2-0.2,5.3-3.2,4.6
		c-1.5-0.3-2.5-3.1-3.7-4.8C202.1,396.1,199.3,397.4,199.3,394z"/>
	<path class="st34" d="M425.1,392.9c3.7,0.2,7.9,1.5,8.8-4.2c0.1-0.5,0.8-1.1,1.3-1.2c1-0.3,1.7,0.5,1.7,1.3
		c0.1,2.8,1.6,4.2,4.3,4.4c0.9,0.1,1.4,0.9,1.4,1.8c-0.1,0.9-0.8,1.6-1.7,1.5c-1.3-0.1-2.5,0.3-2.9,1.4c-1.7,5.9-3.2,4.6-5.6,0.3
		c-1.7-3.2-4.8-2.8-7.6-1.3C423.8,395.5,423.7,394.2,425.1,392.9z"/>
	<path class="st35" d="M425.1,392.9c-0.1,1.3-0.1,2.6-0.2,4c-2.4,0.2-5.9,4.1-6.7-1.6C417.5,391,419.6,390.3,425.1,392.9z"/>
	<path class="st19" d="M452.1,391.9c-2.2,0.3-4.9-0.2-5.8,2.5c-0.7,2,1.8,2.4,2.7,3.6c-2.4-0.2-5.4-0.9-4.5-3.7
		C445.5,391.1,448.7,390.1,452.1,391.9z"/>
</g>
</svg>
