<?xml version="1.0" encoding="utf-8"?>
<!-- Generator: Adobe Illustrator 19.0.0, SVG Export Plug-In . SVG Version: 6.00 Build 0)  -->
<svg version="1.1" id="Calque_1" xmlns="http://www.w3.org/2000/svg" xmlns:xlink="http://www.w3.org/1999/xlink" x="0px" y="0px"
	 viewBox="0 0 612 792" style="enable-background:new 0 0 612 792;" xml:space="preserve">
<style type="text/css">
	.st0{fill:#424242;}
	.st1{fill:#434343;}
	.st2{fill:#454545;}
</style>
<g>
	<path class="st0" d="M433.9,343.3c0.1-11.2,7.8-19.6,18.6-21c9.9-1.2,19.8,5.8,22.1,16.1c0.6,2.9,1.5,3.6,4.4,3.7
		c9.6,0.4,17.1,8,17.9,17.6c0.7,8.9-5.4,17.5-14.1,19.9c-2.7,0.8-5.2,0.7-6.2-2.3c-1-3,0.7-4.6,3.6-5.3c5.2-1.4,8.3-4.8,8.7-10.2
		c0.3-4.6-1.8-8.1-5.7-10.3c-5-2.8-9.6-1.5-13.6,2.3c-2,1.8-4.1,2.4-6.1,0.4c-2.1-2.1-1.5-4.5,0.6-6.1c4.3-3.2,3.7-7,1.7-11
		c-2.4-4.8-8-7.5-12.9-6.7c-8.8,1.5-13.5,10.4-9.5,18.6c1.1,2.2,2.4,4.3,0.2,6.3c-2.3,2-4.7,1.5-6.3-1
		C434.9,350.8,433.6,347,433.9,343.3z"/>
	<path class="st0" d="M513.3,307.6c-0.1,13.2-6.8,22.2-16.6,23.7c-1.3,0.2-2.7,0.4-4,0.1c-3.9-1-7.5-2.2-9.8,2.8
		c-0.7,1.6-3.1,1.3-4.5,0.4c-1.7-1.1-2.6-3-1.4-4.8c2.3-3.5,3.1-7.2,3.5-11.2c0.2-2,1.8-3.2,3.9-3.3c1.8,0,3.1,1,3.7,2.8
		c1.9,5.2,5.8,6.8,10.5,4.4c5-2.6,7.6-9.4,6.5-17.1c-0.9-6.5-5.5-12.2-10.6-13.2c-4.5-0.9-9.2,2.2-11.3,7.8
		c-0.5,1.4-0.7,2.9-1.1,4.3c-0.7,2.4-2.2,3.8-4.8,3.2c-2.3-0.5-3.4-2.2-3-4.5c1.2-7.8,4.6-14.3,12.2-17.6c6.7-3,13.9-1.2,19.6,4.5
		C511.1,295.2,513.2,301.7,513.3,307.6z"/>
	<path class="st1" d="M447,299.3c-0.1-6.8,4.4-12.2,10.3-13.2c5.9-1,12,2.7,13.8,8.2c0.6,1.9,0.9,3.7-1.3,4.6
		c-2.1,0.9-3.5-0.1-4.3-2.1c-1.2-3.1-3.3-5-6.8-4.7c-2.7,0.3-4.6,1.9-5.4,4.5c-1,3.1,0.4,5.5,3,7.2c1.8,1.2,2.5,2.9,1.3,4.7
		c-1.5,2.2-3.5,1.3-5.2,0.1C449,306.1,447.2,302.7,447,299.3z"/>
	<path class="st2" d="M458.9,366.7c0.6-3-0.3-4.7-2.9-5.8c-1.9-0.7-2.4-2.4-1.7-4.1c0.8-2.1,2.7-2.2,4.6-1.8
		c4.8,1.1,8.1,7.2,6.8,12.2c-0.6,2.2-1.4,4.3-4.3,3.8C458.6,370.6,458.7,368.5,458.9,366.7z"/>
	<path class="st0" d="M477.2,405.8c-2.8-1.5-3.7-3.6-3.8-6.9c-0.1-10.7-5.9-17.7-15.5-21.7c-3.5-1.5-7.2-2.6-11-3.3
		c-14.9-2.9-29.7-5.5-45.1-8.4c1.8-4.8,3.4-9.5,5.2-14.1c7.9-20.7,16.8-40.9,29.9-59c1.1-1.6,2-3.5,4.3-3.9c2.1-0.3,3.9-0.8,4-3.5
		c0-2.4-0.8-4.3-2.8-5.4c-2.2-1.3-4.6-1.2-6.5,0.6c-1.3,1.2-2.2,2.9-3.1,4.5c-13.2,24.2-26.5,48.4-39.6,72.7
		c-1.7,3.2-2.6,3.7-5.4,0.9c-10.6-10.9-21.6-21.3-32-32.3c-5.2-5.5-11.2-8.6-18.5-10c-31.6-6-63.2-5.5-95-1.6
		c-12.5,1.5-22.5,6.7-30.9,16.2c-9.1,10.3-19.5,19.6-29.2,29.5c-2.2,2.2-4.3,3.1-7.4,2.9c-7.3-0.6-14.6-0.9-21.9-0.1
		c-15.8,1.7-24.1,9.3-26.4,24.9c-0.5,3.6-0.8,7.3-0.9,10.9c-0.2,3.5-1.2,6.4-4.5,8.2c-2.6,1.5-4.1,3.8-4.2,7c0,4.8-0.2,9.7,0,14.5
		c0.2,4.5,3.2,7.5,7.6,7.6c4.8,0.2,9.7,0,14.5,0.1c2.1,0,2.9-0.6,2.8-2.8c-0.1-2.8-0.1-5.7,0.3-8.5c3.7-21.7,22.4-35.9,44.6-34
		c20.4,1.7,36.3,19.5,36.1,40.8c0,3.9,1.1,4.5,4.7,4.5c38.8-0.1,77.7-0.1,116.5,0c3.8,0,5-0.8,5-4.9c0-16.5,7.6-28.8,22.1-36.3
		c26.9-14,58.7,5.6,59,36.1c0,2.1-1.6,5.1,3,5.1c13.8-0.2,27.7,0,41.5-0.1c5.1,0,8-3.1,8.2-8.1c0.1-3.5-0.2-7,0.1-10.5
		C483.5,412.3,481.9,408.3,477.2,405.8z M273.7,363.7c-16.2,0-32.3,0-48.5,0c-7.4,0-14.9,0-23.4,0c10.7-10.8,20.4-20.8,30.4-30.6
		c3.5-3.4,8.2-4.3,12.8-5c9.9-1.5,19.9-1.2,29.9-1c2.4,0,3.2,0.8,3.2,3.2c-0.1,10-0.2,20,0,30C278.2,364,276.1,363.7,273.7,363.7z
		 M355.7,363.6c-19.1,0-38.3-0.1-57.4,0c-3.1,0-4.4-0.6-4.3-4.1c0.3-9.5,0.1-19,0.1-28.5c0-2.2,0.1-3.9,3-3.9
		c11.1-0.1,22.3-0.7,33.3,1.6c4.9,1,8.9,3.2,12.5,6.8c7.8,8,15.8,15.8,23.6,23.7c1.1,1.1,2.7,1.9,3.1,4.2
		C364.9,363.6,360.3,363.6,355.7,363.6z"/>
	<path class="st0" d="M182.6,398.7c-18.2,0-32.7,14.4-32.8,32.6c0,18.1,14.5,32.7,32.6,32.7c18.2,0,32.6-14.3,32.7-32.6
		C215.2,413.2,200.9,398.7,182.6,398.7z M182.7,447c-8.8,0.1-15.7-6.9-15.7-15.8c0-8.7,6.7-15.4,15.4-15.5c9,0,15.8,6.7,15.8,15.6
		C198.1,440.1,191.3,446.9,182.7,447z"/>
	<path class="st0" d="M389.5,398.7c-18.2,0.1-32.6,14.5-32.5,32.7c0.1,18.1,14.6,32.6,32.8,32.6c18.1,0,32.5-14.6,32.5-32.8
		C422.2,413,407.8,398.7,389.5,398.7z M389.6,447c-8.5,0-15.6-7-15.6-15.6c0-8.8,7-15.8,15.9-15.7c8.7,0.1,15.3,6.9,15.3,15.7
		C405.1,440.1,398.2,447,389.6,447z"/>
	<path class="st1" d="M182.7,440.4c-5,0.1-9.2-3.9-9.3-9c-0.1-4.9,4.1-9.3,9.1-9.3c4.9,0,9.3,4.3,9.4,9.1
		C191.8,436.2,187.7,440.3,182.7,440.4z"/>
	<path class="st1" d="M398.9,431.3c0,5-4.3,9.1-9.4,9c-5.1-0.1-8.8-3.8-8.9-8.8c-0.1-5.1,4-9.4,9-9.4
		C394.5,422.1,398.9,426.4,398.9,431.3z"/>
</g>
</svg>
