<?xml version="1.0" encoding="utf-8"?>
<!-- Generator: Adobe Illustrator 19.0.0, SVG Export Plug-In . SVG Version: 6.00 Build 0)  -->
<svg version="1.1" id="Calque_1" xmlns="http://www.w3.org/2000/svg" xmlns:xlink="http://www.w3.org/1999/xlink" x="0px" y="0px"
	 viewBox="0 0 612 792" style="enable-background:new 0 0 612 792;" xml:space="preserve">
<style type="text/css">
	.st0{fill:#FDB200;}
	.st1{fill:#747474;}
	.st2{fill:#FD9F01;}
	.st3{fill:#3E3E3E;}
	.st4{fill:#A5A5A5;}
	.st5{fill:#FA9700;}
	.st6{fill:#8C6D62;}
	.st7{fill:#FA9701;}
	.st8{fill:#FD9F02;}
	.st9{fill:#5C7580;}
	.st10{fill:#587079;}
	.st11{fill:#576F79;}
	.st12{fill:#3A4444;}
	.st13{fill:#394444;}
	.st14{fill:#A4873C;}
	.st15{fill:#8D8D8D;}
	.st16{fill:#8B8B8B;}
	.st17{fill:#858585;}
	.st18{fill:#6F6865;}
	.st19{fill:#6D6664;}
	.st20{fill:#686462;}
	.st21{fill:#666666;}
	.st22{fill:#454545;}
	.st23{fill:#6E6764;}
	.st24{fill:#676362;}
	.st25{fill:#636363;}
	.st26{fill:#4D4D4D;}
</style>
<g>
	<path class="st0" d="M135.9,416.9c0-6.5,0.1-12.9,0.1-19.4c0.1-7.4,3.4-12.9,9.7-16.9c10-6.2,21.3-7.9,32.6-9.6
		c4.9-0.7,9.8-1.4,14.7-2.1c1,2-1.2,3.3-1,5.4c2.7,0.5,5.4,0.8,8.1,1.6c7.5,0.8,15,0.3,22.4,0.3c17.1,0.1,34.2,0,51.4,0
		c3,0,6-0.1,8.8-1.3c4.4-0.9,8.9-0.9,13.3-0.1c2.1,0.6,4.1,1.4,6.3,1.4c24.3,0,48.6,0.4,73-0.2c2.2,0.1,4.4,0,6.4-1.1
		c4.2-1,8.4-0.1,12.6,0c2.6,0.7,5.1,1.7,7.9,1.6c7.6,1,15.2,2.5,22.7,4.1c1.1,0.3,2.2,0.6,2.9,1.5c6.2,1.3,12.3,2.5,18.5,3.8
		c4.1,0.8,8,2,11.8,3.8c7.9,3.9,11.9,10.3,11.8,19.2c0,2.7,0.1,5.3,0.1,8c-1.4,1.6-3.3,1.7-5.1,1.5c-4.6-0.4-5.7,2.1-5.5,6.1
		c0.2,3.6,0.1,7.3,0,11c-0.1,2,0.1,4-1.5,5.6c-8.8,0.2-17.5,0.3-26.3,0.6c-2.8,0.1-4-0.9-3.7-3.7c0.1-1.3-0.1-2.6-0.2-4
		c-1.6-1.2-1.8-3.1-2.3-4.8c-5.2-18.2-21.5-26.3-35.3-25.6c-18.7,1-31.8,14-33.8,32.1c-0.5,6.7-1.8,7.5-8.3,7.3
		c-17.8-0.6-35.6-1.2-53.4,0.3c-4.4,0.4-8.6-0.8-12.9-0.7c-16.5,0.2-33-0.7-49.5,0.5c-4.9,0.4-6.3-1.3-6.7-7.5
		c-1.1-17.1-14.1-30.6-32.5-31.9c-15.1-1.1-30.4,7-36.2,25.4c-0.5,1.7-0.4,3.7-2,5c-0.3,0.9-0.9,1.9-0.8,2.7c0.6,5.1-1.9,5.7-6,4.3
		c-1.7-1.5-1.5-3.5-1.6-5.5c-0.1-2.5,0-4.9-0.1-7.4c-0.1-2.8,0.8-5.8-0.7-8.2c-1.6-2.6-4.9-1-7.3-1.7
		C137.4,418,136.5,417.8,135.9,416.9z"/>
	<path class="st1" d="M419.9,453c1.6,2.3,4,1.2,5.9,1.3c26.7,0.1,53.3,0.2,80-0.1c4.6,0,5.6,1.4,5.4,5.6c-0.4,6.3-0.3,12.7,0,19
		c0.2,3.6-1.1,4.4-4.5,4.4c-32-0.1-64,0-95.9,0c-91.9,0-183.9,0-275.8,0c-8.7,0-7,0.6-7.1-7.2c-0.1-5.8,0.2-11.7-0.1-17.5
		c-0.1-3.3,1-4.3,4.3-4.3c8.5,0.2,17,0.1,25.5,0c1.7,0,3.8,0.8,4.9-1.3c1.8-0.3,2.8,0.6,3.6,2.1c8.7,16.5,32.4,17.9,45.2,6.4
		c1.3-1.1,2.1-2.5,3.1-3.9c1.7-2.3,3.5-4.5,6.6-4.9c3-0.4,6-0.3,9-0.3c43.8,0,87.6-0.1,131.4,0.1c3.9-0.1,5.8,3,7.6,5.6
		c4.5,6.5,11,9.6,18.3,10.5c9.1,1,17.7-0.5,24.7-7.4c1.8-1.8,3.7-3.3,4.4-5.8C416.7,453.6,417.8,452.4,419.9,453z"/>
	<path class="st2" d="M295.6,376c-4.2,0-8.4,0-12.6,0c-1.9-1.9-1.4-4.3-1.4-6.6c-0.1-9.2-0.1-18.3,0-27.5c0.1-3.8-1.2-5.5-5.1-5.5
		c-13.5-0.2-26.9,0.4-40.3,2c-6.3,0.7-11.2,3.4-15.1,8.6c-6.4,8.6-12.7,17.1-19.3,25.5c-1.2,1.6-2.3,3.3-3.9,4.5
		c-1.7-1.2-3.7-1-5.7-1c-0.9,0-2.1,0.3-2.6-0.8c-0.5-1.1,0.6-1.7,1.1-2.5c0.8-1.2,1.5-2.5,2.3-3.8c7.6-10.7,15.1-21.6,22.9-32.1
		c5.3-7.1,13.6-7.9,21.5-8.9c26.4-3.3,52.9-1.2,79.4-1.7c6.8-0.1,13.6,0.3,20.4,1.6c7.1,1.3,13.2,4.2,18.3,9.4
		c11.4,11.7,22.9,23.2,34.3,34.9c2.1,2.1,3,1.7,4.2-0.7c3.2-6,6.6-11.8,9.8-17.7c3.2-1.5,4.8-6,9.4-5c-0.4,6.6-4.1,12.1-6.3,18.1
		c-3.7,3.4-6.6,7.7-11.8,9c-4.6,0-9.2,0-13.9,0c-1.5-0.1-2.4-1.1-3.5-1.9c-9.4-9.2-18.7-18.4-27.8-27.8c-4.7-4.9-10.3-7.8-17-8.5
		c-10.2-1.1-20.5-1.6-30.8-1.4c-3.4,0.1-4.7,1.5-4.7,4.9c0.1,9.5,0.1,18.9,0,28.4C297.3,371.9,298,374.4,295.6,376z"/>
	<path class="st3" d="M218.9,454c-3.7,3.5-5.9,8.3-10.8,11.1c-9.1,5.2-17.8,6.5-28,3c-7.6-2.6-12.7-6.7-15.8-13.8
		c-0.3-0.6-1.3-1-2-1.4c-2.3-5.4-3.2-11.1-3.3-17c-0.8-0.8-0.8-1.8-0.6-2.8c2.8-12.2,9.9-20.4,21.7-25.2c13.9-5.7,33,2.2,39.6,15.5
		c2.4,4.9,3.5,9.9,3.4,15.3C223.7,444.4,222.1,449.4,218.9,454z"/>
	<path class="st3" d="M419.9,453c-0.8,0.6-2,0.9-2.4,1.7c-4.8,10.2-14.2,15.1-25,15.4c-8.2,0.2-15-2.4-21.1-6.8
		c-3.5-2.5-5.6-6.8-8.3-10.3c-2.9-2.7-4.2-6.2-4.1-10c0.1-2.3-0.2-4.6-0.3-6.8c1.6-10,5.7-18.7,14.5-24.2c5.5-3.4,11.4-5.6,18.5-5.5
		c12.2,0.3,21.4,5.4,27.6,15.4c2.5,4,5.9,8.6,3.7,14.2C423.2,441.9,422.4,447.6,419.9,453z"/>
	<path class="st4" d="M473.2,323.8c1.1,3.3,0.2,6.3-1.2,9.3c-4.9,4.5-8.8,9.7-11.1,16.2c-1.2,3.5-5.5,4.5-8.9,5.8
		c-2.5,1.8-4.7,1.2-6.7-0.8c-2-1.9-2.8-4.4-1.5-6.8c1.8-3.3,2-6.4,1-10c-0.5-1.9-0.1-4.1,1.3-5.6c1.8-2,1.4-4.8,2.9-6.8
		c1.1-2,2-4.2,3.5-5.8C458.6,312.2,468.1,314.3,473.2,323.8z"/>
	<path class="st5" d="M458,441.1c0-6.6,0.2-13.2,0-19.9c-0.1-3.2,0.9-4.6,4.2-4.3c2.6,0.2,5.3,0,7.9,0c9,0.3,9-1.9,8.9,9.4
		c0,3.7-0.1,7.3,0,11c0.1,2.7-1.1,4.3-3.7,4.3C469.5,441.5,463.7,442.3,458,441.1z"/>
	<path class="st6" d="M423,436.1c-1.8-9.1-4.8-17.2-13.5-22.7c-3.7-2.3-7.4-4.1-11.2-5.1c-5.5-1.4-11.1-0.9-16.9,0.8
		c-4.9,1.5-8.2,4.8-12.2,7.4c-3.8,2.5-5.1,7.1-7.1,10.9c-1.4,2.6-1.6,5.8-2.3,8.8c-2.3,0.9-3.6-0.2-4.6-2.2
		c3.9-19,15.3-30.1,34.3-31.7c15.4-1.2,32.2,8.1,37.4,27.3c0.4,1.4,0.5,2.9,0.8,4.4C426.2,434.7,424.6,435.4,423,436.1z"/>
	<path class="st6" d="M222.2,439.1c0-10.5-3.9-19.3-12.3-25.3c-8.1-5.8-17.1-8.3-27.4-5c-7.1,2.3-12.8,5.8-17.2,11.7
		c-3.5,4.6-4.8,10-6.2,15.4c-1.4-0.6-2.8-1.2-4.2-1.8c0.8-14,11.7-26.5,26.7-30.5c21.3-5.7,43.6,9.3,45.3,30.6
		C225.4,435.9,224.6,438.3,222.2,439.1z"/>
	<path class="st7" d="M135.9,416.9c12.2,0.3,12.2,0.3,12.2,12.3c0,4,0.1,8,0.1,11.9c0,0,0-0.1,0-0.1c-6.4,0.7-12.7,0.7-19.1-0.1
		c-0.9-0.1-1.7-0.6-1.8-1.4c-0.7-6.8-0.6-13.6-0.1-20.4c0.2-1.9,1.7-2.3,3.3-2.2C132.2,417,134,417,135.9,416.9z"/>
	<path class="st8" d="M413.2,349.1c-3.9,0.1-5.2,5.2-9.4,4.8c8.9-16.5,17.8-32.9,26.7-49.4c1.2-2.2,2.8-3.7,5.5-3.5
		c2.2,0.2,3.7,1.4,4.5,3.4c0.9,2.3,0.7,4.6-2,5.1c-2.9,0.5-4.2,2.4-5.6,4.4c-7.1,10.2-13.5,20.8-17.9,32.5c0.1,0.9,0,1.7-0.6,2.5
		C414,349.2,413.6,349.3,413.2,349.1z"/>
	<path class="st9" d="M413.6,349.1c0.4-0.9,0.9-1.8,1.3-2.7c4.9,11.7,8.7,23.8,12.9,35.8c-1-0.1-2-0.3-2.9-0.4
		c-1.6-1.1-2.1-2.9-2.8-4.6c-2.8-7.1-5-14.4-7.7-21.4C413.6,353.7,412.6,351.5,413.6,349.1z"/>
	<path class="st0" d="M129,441c6.4,0,12.7,0,19.1,0.1C141.7,442,135.4,442.2,129,441z"/>
	<path class="st10" d="M197.9,377c-0.2-1.7,0.8-2.8,1.7-4c7.5-9.8,14.9-19.5,22.3-29.4c4.9-6.5,12.4-6.7,19.4-7.4
		c12.6-1.3,25.2-1,37.9-1c3.8,0,3.8,2.2,3.8,4.9c0,12,0.1,23.9,0.2,35.9c-0.9,1.7-2.5,1.9-4.3,1.9c-25.9,0-51.7,0-77.6-0.1
		C200.1,377.8,199,377.3,197.9,377z"/>
	<path class="st11" d="M295.6,376c0-12,0-23.9,0-35.9c0-2.4-0.2-4.9,3.3-4.8c12.8,0.1,25.6-0.6,38.3,1.8c4.3,0.8,8.1,2.9,11.2,6.1
		c10.2,10.3,20.4,20.5,30.6,30.8c0.5,1.9-0.8,2.4-2.1,3.1c-1.5,1-3.2,0.8-4.8,0.8c-23.4,0-46.8,0-70.1,0
		C299.7,377.8,297.4,377.9,295.6,376z"/>
	<path class="st12" d="M227.7,384c2.5,0.4,6.7-1.1,6.7,2.3c0,3.6-4.1,2.8-6.8,2.8c-2.7,0-6.8,0.8-6.6-3
		C221.2,382.8,225.4,384.5,227.7,384z"/>
	<path class="st13" d="M310.4,389.2c-0.7,0-1.3-0.1-2,0c-2.3,0.3-4.6-0.7-4.6-2.7c0-2.5,2.6-2.4,4.7-2.4c1.8,0,3.7,0,5.5,0
		c1.8,0,3.8,0.6,3.7,2.4c-0.1,1.5-1.8,2.7-3.7,2.6C312.7,389.1,311.6,389.1,310.4,389.2C310.4,389.1,310.4,389.2,310.4,389.2z"/>
	<path class="st8" d="M405.9,367c-1.2,3.6-2.4,7.3-3.6,10.9c-2.7,0.3-5.1-0.2-7.3-1.9C398.6,373,402.3,370,405.9,367z"/>
	<path class="st14" d="M377,377.1c0.7-1,1.4-2.1,2.1-3.1c0.7,0.7,1.4,1.4,2,2.1C380.2,378,378.8,378.1,377,377.1z"/>
	<path class="st15" d="M502.9,317.1c-2.8-2.2-5.5-3.9-4.1-8.7c1.2-4.4-1.8-6-7.9-4.9c1.8-2.3,3-3.1,4.9-2.3c2.7,1.1,5.8,3.2,5,6
		c-1.3,4.3,1.2,6.3,3.2,8.8C503.6,316.4,503.5,317,502.9,317.1z"/>
	<path class="st16" d="M502.9,317.1c0.3-0.4,0.6-0.7,1-1.1c1.5,5.1,1.3,6.2-3.4,11.6C502.4,323.4,503.6,320.4,502.9,317.1z"/>
	<path class="st17" d="M462.9,320.3c4.9,2.3,5.8,5.8,2.2,8.5c-2.3,1.8-0.4,3.7-2.2,6.5c0.2-3-2.3-4.9,0.1-6.5
		C467.7,325.7,466.4,323.1,462.9,320.3z"/>
	<path class="st18" d="M189.6,433.5c-2,0.1-2.7-1.2-2.6-2.8c0.2-2.9,1-6,4.4-6.3c1.8-0.2,4.6-0.3,5.2,2.6
		C196.9,428.7,191.6,433.4,189.6,433.5z"/>
	<path class="st19" d="M185.6,441c-0.3,2.1-2.2,2.5-3.7,2c-2.4-0.8-5.8-1.2-5.5-4.8c0.1-1.5-0.2-4,2.6-4
		C181.2,434.1,185.7,438.7,185.6,441z"/>
	<path class="st20" d="M199.7,434.8c2.5,0.3,5,0.8,5.2,4c0.1,2.2-1.5,4.3-3.3,4c-2.8-0.4-5-2.6-5.4-5.6
		C195.9,435.1,198,434.9,199.7,434.8z"/>
	<path class="st21" d="M185,449.8c0.9-1,1.6-2.1,2.6-2.9c1.7-1.4,3.5-3.8,5.9-1.8c2.3,1.9,0.9,4.1-0.6,6.1
		C190,452.8,187.3,452.5,185,449.8z"/>
	<path class="st22" d="M190.8,435.9c1.8,0.1,3.1,1,3.1,3c0.1,2-1,3-3,3.1c-2,0.1-3.1-1-3.2-2.9C187.7,437.2,188.7,436,190.8,435.9z"
		/>
	<path class="st23" d="M395.1,430c0.1,2.1-0.3,3.5-2.3,3.6c-2.2,0.2-7.6-4.9-7.2-6.9c0.6-2.6,3.3-2.1,5-2.2
		C394.6,424.3,394.2,427.9,395.1,430z"/>
	<path class="st19" d="M406.1,438.5c-1,2.6-3,4.4-6.2,4.6c-1.7,0.1-3.2-0.4-2.9-2.4c0.6-3.8,3.5-5.9,6.7-6.6
		C406.1,433.5,405.6,436.4,406.1,438.5z"/>
	<path class="st24" d="M382.4,434.8c2.1,0,4,0.2,3.6,2.5c-0.6,2.9-2.5,5.2-5.5,5.4c-1.2,0.1-3.5-0.6-3.4-3.3
		C377.1,435.6,380,435.3,382.4,434.8z"/>
	<path class="st25" d="M389,451.1c-1-2.1-2.3-4.6,0-6.2c2.4-1.6,4.2,0.9,5.8,2.4c0.8,0.8,1.4,1.8,2.2,2.7
		C394.7,452.8,391.9,452.3,389,451.1z"/>
	<path class="st26" d="M390.4,435.9c2.8-0.2,4.1,0.9,4.3,2.7c0.2,2.1-1,3.4-3.2,3.4c-2,0-3.1-1.2-3.2-3
		C388.2,437.2,389.3,436.1,390.4,435.9z"/>
</g>
</svg>
