<?xml version="1.0" encoding="utf-8"?>
<!-- Generator: Adobe Illustrator 19.0.0, SVG Export Plug-In . SVG Version: 6.00 Build 0)  -->
<svg version="1.1" id="Calque_1" xmlns="http://www.w3.org/2000/svg" xmlns:xlink="http://www.w3.org/1999/xlink" x="0px" y="0px"
	 viewBox="0 0 612 792" style="enable-background:new 0 0 612 792;" xml:space="preserve">
<style type="text/css">
	.st0{fill:#222222;}
	.st1{fill:#232323;}
	.st2{fill:#212121;}
</style>
<g>
	<path class="st0" d="M414.9,359.1c0.2-11.2,8.1-19.7,18.9-20.9c9.7-1.1,19.6,5.9,21.8,15.9c0.7,3.1,1.6,3.8,4.7,3.9
		c9.1,0.4,16.5,7.7,17.6,16.8c1.1,8.9-4.6,17.5-13.4,20.4c-3,1-5.9,1.3-6.9-2.3c-1-3.4,1.5-4.4,4.4-5.3c5.8-1.8,9-7.3,7.9-12.8
		c-1.1-5.6-6.4-9.5-12.1-8.9c-2.9,0.3-5.3,1.8-7.4,3.8c-1.8,1.8-3.9,2.1-5.8,0.4c-2-1.8-1.6-3.8-0.1-5.8c4.3-5.8,4.5-8.5,1.3-13
		c-3.2-4.4-8.5-6.2-13.7-4.7c-5.5,1.6-9,6.1-9.2,11.7c-0.1,2.6,0.4,4.9,1.8,7.1c1.5,2.5,1.7,4.9-1.2,6.3c-2.8,1.4-4.7-0.3-6-2.8
		C415.7,365.8,414.6,362.4,414.9,359.1z"/>
	<path class="st0" d="M494.3,324.6c-0.3,12.5-6.9,21.3-16.5,22.7c-1.5,0.2-3.1,0.4-4.4,0c-3.8-1.1-7.1-1.7-9.4,2.8
		c-0.9,1.7-3.3,1.5-4.9,0.3c-1.5-1-2.3-2.9-1.3-4.4c2.4-3.6,3.1-7.6,3.6-11.7c0.3-1.9,2-3.1,4-3c1.8,0.1,3,1.2,3.5,3
		c1.5,4.9,6.1,6.7,10.6,4c6.3-3.8,7.1-10,6.4-16.6c-0.7-6.5-5.2-12.2-10.3-13.4c-2.8-0.7-5.3,0.1-7.5,1.8c-2.5,1.9-3.9,4.5-4.8,7.4
		c-0.8,3-0.9,7.1-5.4,5.9c-4.7-1.3-3-5.2-2.1-8.3c2.7-9.5,10.2-15.4,18.6-15c9.2,0.4,17.7,9.1,19.3,19.9
		C494.2,321.7,494.3,323.6,494.3,324.6z"/>
	<path class="st1" d="M448,381.5c0.1,1.6-0.2,3.3-1,5c-1,2.1-2.7,3-4.9,2.3c-2.1-0.7-3.2-2.4-2.6-4.7c1-3.5,0.6-6.1-3.4-7.5
		c-2.4-0.9-3.1-3.1-2-5.4c1.1-2.4,3.2-2.6,5.5-1.9C444.6,370.9,447.9,375.6,448,381.5z"/>
	<path class="st2" d="M457.5,421.2c-1.6-0.9-3.1-1.9-2.9-4.2c0.8-14-8.4-23-22.6-26.1c-13.6-2.9-27.4-5.5-41.2-7.8
		c-4.5-0.7-4.5-1.8-2.6-5.4c11.7-21.1,23.2-42.2,34.7-63.4c2.6-4.8,1.5-9.4-2.6-11.7c-4.1-2.3-8.6-0.8-11.3,3.9
		c-2.1,3.6-4,7.3-6,10.9c-10.6,19.4-21.1,38.8-32,58.8c-12.1-12.1-23.9-23.6-35.4-35.5c-6.4-6.7-14-10.7-23.1-11.8
		c-27.4-3.1-54.8-1.8-82.3-1.2c-14.3,0.3-26.1,6.1-35.8,17c-9.9,11-20.9,21-31.3,31.6c-2.1,2.1-4.1,2.9-7,2.7
		c-7.5-0.6-14.9-0.9-22.4-0.1c-15.6,1.7-23.8,9.3-26.1,24.6c-0.7,4.4-1,8.9-1.3,13.4c-0.1,2.2-0.9,3.8-2.8,4.9
		c-4.7,2.6-6.1,6.7-5.6,11.8c0.3,3,0,6,0,9c0.1,6.6,2.9,9.5,9.4,9.5c5.7,0,11.3,0.2,17-0.1c3.2-0.2,4.5,0.7,5.4,4
		c4.4,16.1,17.8,26.3,34,26.3c16.2-0.1,29.6-10.4,33.8-26.5c0.9-3.3,2.2-3.7,5-3.7c43,0.1,86,0.1,128.9-0.1c3.3,0,4.5,1,5.3,4
		c4.2,15.9,17.4,26,33.5,26.2c16,0.2,29.7-9.9,34-25.6c1.1-4,2.8-4.7,6.5-4.6c14.7,0.2,29.3,0.1,44,0.1c6.3,0,9.1-2.9,9.2-9.1
		c0.1-2.8-0.2-5.7,0.1-8.5C464.7,428.6,462.8,424.1,457.5,421.2z M212.8,349.4c3.6-3.5,8.5-4.5,13.2-5.3c9.9-1.5,19.9-1.1,29.9-1
		c2.4,0,3.1,0.8,3.1,3.2c-0.1,10-0.1,20,0,29.9c0,1.9-0.2,3.1-2.6,3.1c-24.1-0.1-48.1,0-73.6,0C193.5,368.6,203.1,358.9,212.8,349.4
		z M163.8,466.3c-10.3,0.1-19.2-8.3-19.3-18.2c-0.1-11.2,8.4-20,19.1-20c10.6,0,18.8,8.4,19.1,19.6C183,457.4,174,466.2,163.8,466.3
		z M259.1,400.1c-0.2,10.8-0.2,21.7,0,32.5c0,2.8-0.7,3.7-3.6,3.6c-9.3-0.2-18.7-0.1-28-0.1c0,0,0,0,0,0c-8.8,0-17.7-0.1-26.5,0.1
		c-2.8,0-4.3-0.6-5.6-3.4c-6.3-13.2-17.1-20.5-31.6-20.5c-14.8-0.1-25.7,7.1-32.1,20.6c-1.2,2.5-2.4,3.6-5.2,3.4
		c-3.5-0.3-7,0-10.5-0.1c-2.4,0-2.8-1.8-1.1-2.7c9.1-4.7,7.2-13.6,7.9-21.2c1.2-13.8,3.9-17,18-17.6c14.3-0.6,28.5,1.6,42.9,1.3
		c23.6-0.4,47.3,0,71-0.2C258.1,395.8,259.2,396.6,259.1,400.1z M275,375c0.3-9.3,0.1-18.6,0-27.9c0-2.3,0.3-3.7,3.1-3.8
		c11.3-0.1,22.6-0.7,33.8,1.7c4.5,1,8.3,3,11.6,6.4c8.8,9,17.9,17.9,27.8,27.8c-5.2,0-9.1,0-13.1,0c-19.6,0-39.2-0.1-58.9,0.1
		C276.1,379.3,274.9,378.5,275,375z M389.7,448.7c-0.7,10.4-9.6,18.1-20.3,17.6c-10.1-0.5-18.2-9.2-17.7-19.1
		c0.5-11.4,9.1-19.6,19.9-19C382.2,428.8,390.4,438.1,389.7,448.7z M447.8,435.3c-0.5,1.6-2,0.9-3,0.9c-12.5,0.1-25,0-37.5,0.1
		c-2.6,0-3.6-1-4.7-3.2c-6.6-13.5-17.5-20.9-32.5-20.7c-14.6,0.2-25.2,7.5-31.4,20.8c-1.1,2.3-2.2,3.2-4.8,3.2
		c-18.3-0.1-36.6-0.1-55,0c-3.1,0-4-0.8-3.9-3.9c0.2-11,0.2-22,0-33c0-3,1-3.5,3.7-3.5c15.5,0.1,31,0.1,46.5,0.1
		c4.8,0,9.7,0.3,14.5,0c25.2-1.8,49.7,2.6,74.2,7.6c5.7,1.2,11.5,1.8,17,3.7c6.1,2.1,7.9,4.2,7.5,10.7c-0.5,6.7,1.4,11.7,7.4,14.9
		C446.8,433.3,448.3,433.8,447.8,435.3z"/>
	<path class="st0" d="M163.6,435.2c-6.5-0.1-12,5.5-12.1,12.1c0,6.7,5.2,12,12,12c6.7,0,12.1-5.2,12.1-11.9
		C175.7,440.8,170.1,435.3,163.6,435.2z M163.8,451.2c-2.6,0-4-1.3-4.1-3.6c-0.1-2.6,1.4-4.2,3.9-4.3c2.2-0.1,3.9,1.4,3.9,3.7
		C167.6,449.5,166.2,451.1,163.8,451.2z"/>
	<path class="st0" d="M370.8,435.2c-6.6-0.1-12,5.3-12.1,11.9c-0.1,6.8,5,12,11.8,12.1c6.7,0.1,12.1-5.2,12.2-11.8
		C382.8,441,377.3,435.3,370.8,435.2z M370.4,451.2c-2.3-0.2-3.6-1.6-3.6-3.9c0-2.6,1.5-4.1,4-4c2.5,0.1,3.7,1.8,4,4.2
		C374.2,449.9,373,451.4,370.4,451.2z"/>
</g>
</svg>
