<?xml version="1.0" encoding="utf-8"?>
<!-- Generator: Adobe Illustrator 19.0.0, SVG Export Plug-In . SVG Version: 6.00 Build 0)  -->
<svg version="1.1" id="Calque_1" xmlns="http://www.w3.org/2000/svg" xmlns:xlink="http://www.w3.org/1999/xlink" x="0px" y="0px"
	 viewBox="0 0 612 792" style="enable-background:new 0 0 612 792;" xml:space="preserve">
<style type="text/css">
	.st0{fill:#333333;}
	.st1{fill:#353535;}
	.st2{fill:#62CAE3;}
	.st3{fill:#62C9E3;}
	.st4{fill:#E9E3DD;}
	.st5{fill:#939393;}
	.st6{fill:#E5DFD9;}
	.st7{fill:#DDD8D2;}
</style>
<g>
	<path class="st0" d="M368,388.2c9,1.6,17.6,3.1,26.2,4.8c7.8,1.5,15.8,2.4,23.4,5c12.7,4.3,18.1,11,18.9,24.4
		c0.2,2.9,1.7,4.2,3.7,5.4c4.6,2.6,6.4,6.5,5.9,11.7c-0.3,3,0,6-0.1,9c-0.1,7-2.7,9.7-9.6,9.8c-14.7,0-29.3,0.1-44-0.1
		c-3.5,0-5,0.8-6.1,4.5c-4.3,15.8-18,25.9-33.9,25.7c-16.2-0.2-29.4-10.3-33.6-26.2c-0.8-3-1.9-4.1-5.3-4.1c-43,0.2-86,0.1-129,0.1
		c-2.8,0-4.2,0.4-5.1,3.7c-4.3,16.2-17.6,26.5-33.8,26.5c-16.3,0.1-29.6-10.1-34-26.3c-0.9-3.3-2.3-4.1-5.4-3.9
		c-5.8,0.3-11.7,0.1-17.5,0c-5.7-0.1-8.6-3-8.8-8.6c-0.1-3.5,0.2-7-0.1-10.5c-0.4-4.8,1.1-8.5,5.3-11c2.2-1.3,3.1-3.2,3.2-5.7
		c0.2-4.3,0.6-8.6,1.2-12.9c2.3-15.1,10.3-22.7,25.7-24.5c7-0.8,14-0.8,20.9,0c4.1,0.5,7.1-0.6,10.1-3.7
		c9.7-10.1,20.3-19.4,29.4-29.9c10.9-12.6,24.7-18,40.6-18c24.3,0,48.6-1,72.9,0.8c11.2,0.8,21.1,4.8,29.2,13.4
		c10.1,10.8,21,21,31.3,31.6c2.6,2.6,3.5,2.7,5.4-0.7c11.1-20.8,22.5-41.5,33.8-62.2c0.7-1.3,1.4-2.7,2.2-3.9c2.6-4.4,7-5.9,11-3.8
		c4.1,2.2,5.4,6.9,2.9,11.6c-3.4,6.5-7,12.9-10.5,19.3C385.8,355.5,377,371.5,368,388.2z"/>
	<path class="st0" d="M396.9,365.1c0.2-11.2,8.1-19.7,18.9-20.9c9.7-1.1,19.6,5.8,21.8,15.9c0.7,3.1,1.7,3.8,4.7,3.9
		c9.3,0.4,16.8,8,17.7,17.3c0.9,8.9-5.1,17.4-13.9,20.1c-2.9,0.9-5.5,0.8-6.5-2.5c-0.9-3,1.1-4.3,3.9-5.2c6.3-2,9.6-7.3,8.4-12.9
		c-1.1-5.6-6.4-9.5-12.1-8.9c-2.9,0.3-5.3,1.8-7.4,3.8c-1.8,1.8-3.9,2.1-5.8,0.4c-2-1.8-2-4.2-0.1-5.7c4.9-3.9,4.4-8.1,1.5-12.6
		c-3-4.6-8.3-6.6-13.5-5.2c-5.6,1.5-9.3,5.8-9.7,11.3c-0.2,2.7,0.3,5.3,1.7,7.6c1.5,2.4,1.7,4.9-1.2,6.3c-2.8,1.3-4.7-0.3-6-2.8
		C397.7,371.8,396.5,368.4,396.9,365.1z"/>
	<path class="st0" d="M476.3,331.4c-0.3,11.7-6.9,20.5-16.6,21.9c-1.3,0.2-2.7,0.4-4,0.1c-3.9-1-7.5-2.2-9.9,2.8
		c-0.8,1.7-3.3,1.4-4.9,0.2c-1.5-1.1-2.1-2.9-1.1-4.4c2.3-3.5,3.1-7.2,3.5-11.2c0.2-2,1.8-3.3,3.8-3.3c2,0,3.3,1.2,3.9,3.2
		c1.3,4.6,5.8,6.3,10.4,4c5-2.5,7.7-9.4,6.6-17.1c-0.9-6.5-5.5-12.2-10.6-13.2c-3.6-0.7-6.5,0.8-8.9,3.5c-2,2.3-3.1,5.1-3.6,8.1
		c-0.5,2.7-2,4.3-4.8,3.7c-2.5-0.5-3.3-2.4-3.1-4.9c0.7-8.2,7.2-16.1,15-18.1c7-1.8,15,1.8,19.7,8.9
		C475,320.2,476.5,325.6,476.3,331.4z"/>
	<path class="st1" d="M430,387.8c0.1,1.5-0.3,3.1-1,4.6c-1,2.1-2.6,3.1-4.8,2.4c-2.2-0.7-3.3-2.4-2.7-4.6c1.1-3.9,0.2-6.3-3.7-7.8
		c-2.2-0.8-2.6-3-1.7-5.1c0.9-2.1,2.9-2.6,5-2.1C426.4,376.4,430.1,381.6,430,387.8z"/>
	<path class="st2" d="M305.7,401.4c14.2,0,28.3-0.1,42.5,0c10,0.1,19.6,2.9,29.4,4.6c10.6,1.9,21.2,3.7,31.7,6
		c10.2,2.3,11.9,4.4,11.5,14.6c-0.2,5.5,2.1,8.7,6.4,11.4c1.3,0.8,3.4,1.7,2.5,3.7c-0.7,1.7-2.7,0.9-4,0.9
		c-11.8,0.1-23.7-0.1-35.5,0.1c-3.1,0-4.6-0.9-5.9-3.8c-6.3-13.3-17.1-20.3-31.6-20.3c-14.5,0-25.4,7-31.6,20.3
		c-1.3,2.8-2.8,3.9-5.9,3.8c-17.8-0.2-35.6-0.2-53.5,0c-3.8,0-4.8-1.1-4.7-4.8c0.3-10.8,0.3-21.7,0-32.5c-0.1-3.5,1.2-4.1,4.3-4.1
		C276,401.4,290.9,401.4,305.7,401.4z"/>
	<path class="st3" d="M210,442.6c-9,0-18-0.1-27,0.1c-2.8,0-4.4-0.7-5.6-3.5c-6.2-13.6-17.2-20.7-32-20.6
		c-14.5,0.1-25.4,7.1-31.5,20.5c-1.2,2.7-2.6,3.8-5.6,3.6c-3.3-0.2-6.7-0.1-10-0.1c-2.6,0-3.1-2.4-1.7-3.1
		c9.3-4.9,8.2-14.1,7.9-21.6c-0.5-14.3,7.9-16.9,20.4-17.8c4.9-0.3,9.6,0.8,14.4,0.9c32.2,0.2,64.3,0.3,96.5,0.3
		c4.1,0,5.4,0.9,5.3,5.2c-0.3,10.5-0.2,21,0,31.5c0.1,3.7-0.8,4.9-4.7,4.8C227.6,442.4,218.8,442.6,210,442.6
		C210,442.6,210,442.6,210,442.6z"/>
	<path class="st4" d="M164.6,385.8c10.7-10.9,20.4-21.2,30.6-30.9c5.2-4.9,12.4-5.3,19.2-5.7c7.8-0.5,15.6,0,23.5-0.2
		c2.8-0.1,3.3,1,3.3,3.5c-0.1,10-0.1,20,0,30c0,2-0.1,3.5-2.9,3.4C214,385.8,189.7,385.8,164.6,385.8z"/>
	<path class="st4" d="M332.8,385.2c-1,1.1-2.2,0.6-3.3,0.6c-22.6,0-45.3-0.1-67.9,0.1c-3.8,0-4.8-1-4.7-4.7c0.3-9.5,0.1-19,0.1-28.5
		c0-1.9-0.2-3.7,2.6-3.7c11.8,0.2,23.6-0.9,35.2,2c4.1,1,7.6,2.9,10.6,6c8.1,8.3,16.5,16.5,24.7,24.8
		C331.2,382.8,332.7,383.5,332.8,385.2z"/>
	<path class="st5" d="M145.7,434c10.7,0.1,19.4,9.1,19.3,20c-0.1,9.9-9.3,18.9-19.4,19c-10,0.1-19.8-9.6-19.6-19.4
		C126.2,442.5,134.9,433.9,145.7,434z"/>
	<path class="st5" d="M352.9,434c10.6,0.1,19.2,8.8,19.1,19.6c-0.1,10.4-7.7,18.9-19.4,19.3c-9.9,0.3-20-9.7-19.5-18.9
		C333.9,440.4,342.9,434,352.9,434z"/>
	<path class="st0" d="M157,453.4c0,6.8-4.7,11.6-11.5,11.6c-6.6,0-11.5-4.9-11.5-11.6c0-6.9,4.6-11.5,11.6-11.5
		C152.6,441.9,157,446.3,157,453.4z"/>
	<path class="st0" d="M352.5,441.9c7,0,11.5,4.5,11.5,11.4c0,6.9-4.6,11.6-11.4,11.6c-6.6,0-11.6-4.9-11.6-11.5
		C341,446.6,345.7,441.9,352.5,441.9z"/>
	<path class="st6" d="M145.6,457.6c-2.6-0.4-4.3-1.8-4.3-4.2c0-2.5,1.6-4.4,4.3-4.4c2.4,0,4,1.7,4.1,4.1
		C149.9,455.8,148,457.1,145.6,457.6z"/>
	<path class="st7" d="M352.9,457.6c-2.5-0.3-4.3-1.6-4.4-4c-0.2-2.6,1.4-4.5,4.1-4.6c2.7-0.1,4.4,1.7,4.4,4.3
		C356.9,455.9,355,457.1,352.9,457.6z"/>
</g>
</svg>
