<?xml version="1.0" encoding="utf-8"?>
<!-- Generator: Adobe Illustrator 19.0.0, SVG Export Plug-In . SVG Version: 6.00 Build 0)  -->
<svg version="1.1" id="Calque_1" xmlns="http://www.w3.org/2000/svg" xmlns:xlink="http://www.w3.org/1999/xlink" x="0px" y="0px"
	 viewBox="0 0 612 792" style="enable-background:new 0 0 612 792;" xml:space="preserve">
<style type="text/css">
	.st0{fill:#010101;}
	.st1{fill:#1ED55A;}
	.st2{fill:#1ED559;}
	.st3{fill:#1CD559;}
	.st4{fill:#149F43;}
	.st5{fill:#FDFDFD;}
	.st6{fill:#1CD558;}
	.st7{fill:#149E43;}
</style>
<g>
	<path d="M332,135c4.4,3.1,5.9,7.1,5.7,12.7c-0.5,11.8-0.1,23.7-0.2,35.5c0,3.1,1.5,3,3.7,3c12.5,0,25-0.1,37.5,0
		c6.9,0,10.4,3.8,10.4,10.6c-0.1,42.3-0.2,84.7-0.2,127c0,35.7,0,71.3,0,107c0,8.7-2.7,11.4-11.3,11.4c-9,0-18,0.2-27-0.1
		c-4-0.2-4.7,1.2-4.5,4.7c0.3,6.3,0.1,12.7,0.1,19c0,7.6-2.9,10.4-10.6,10.5c-6.4,0-6.3,0-5.6,6.3c1.2,11.3,4.4,21.8,10.9,31.2
		c3.1,4.4,2.2,8.9-2.1,12.3c-6.5,5.2-13.1,10.3-19.7,15.3c-5.9,4.6-9.4,4.3-14.7-1.1c-1.2-1.2-2-2.6-3.3-4.3
		c-2.4,3.1-2.2,5.8-2.7,8.3c-0.9,4.3-2.7,7.6-7.2,8.5c-4.8,0.9-7.7-1.8-10.1-5.6c-10.7-17.5-16.4-36.6-18.8-56.8
		c-0.5-3.8-0.8-7.6-1-11.4c-0.1-2.3-1-2.9-3-2.7c-1.2,0.1-2.3,0-3.5,0c-8.1-0.1-10.7-2.7-10.8-10.8c0-6.5-0.2-13,0.1-19.5
		c0.1-3.1-0.8-4-3.9-3.9c-9.2,0.2-18.3-0.2-27.5,0.2c-5,0.2-8.5-1.5-11.4-5.2c0-81.7,0-163.3,0-245c1.3-5.1,4.9-7.1,9.8-7.5
		c5.5-0.4,5.6-0.6,5.7-6.4c0.1-10.8,0-21.6,0-32.3c0-5.3,1.9-9.4,7.5-10.8c13.3,0,26.7,0,40,0c5.2,1.3,6.5,5.2,6.5,9.9
		c0.1,11.2,0,22.3,0.1,33.5c0,2-0.7,4.9,2,5.6c3.5,1,7.4,1.3,10.7-0.4c1.7-0.9,1.2-3.3,1.2-5.1c0.1-10.7-0.1-21.3,0.1-32
		c0.1-5.3,1.5-9.9,7.5-11.5C305.3,135,318.7,135,332,135z"/>
	<path d="M411,647c-4.2-3.1-5.7-7.2-5.2-12.4c0.4-4.3,0.2-8.7,0-13c-0.3-10-6.5-16.5-16.5-16.7c-26.7-0.7-51.6-6.8-73.9-22.1
		c-2.3-1.6-4.6-3.3-6.9-5c-3.5-2.6-5.6-5.8-4-10.3c1.5-4.4,4.9-5.9,9.4-5.9c7.7,0.1,15.3-0.1,23,0.1c3.2,0.1,5.2-0.9,6.9-3.6
		c3.7-5.9,7.7-11.7,11.5-17.5c1.6-2.5,3.8-4.6,6.7-4.6c16.7,0.3,33.7-1.7,50.1,3.4c34.2,10.7,54.1,34.1,60.8,69
		c0.2,0.9-0.3,2.1,1.1,2.4c0,10,0,20,0,30c-0.8,3.2-2.8,5.2-6,6C449,647,430,647,411,647z"/>
	<path class="st0" d="M299,605.3c8.6-2.3,13,1,13,10c0,6.8-0.2,13.6,0.1,20.3c0.3,5.2-1.6,8.9-6,11.4c-2.3,0-4.7,0-7,0
		c-4.1-2-5.5-5.4-5.5-9.8c0-7.6-0.1-15.3,0.1-22.9C293.7,610.4,294.5,606.7,299,605.3z"/>
	<path class="st1" d="M299,605.3c-3.2,2.6-4.3,6-4.1,10.1c0.2,5.5,0.2,11,0,16.4c-0.2,5.6-0.1,10.9,4.1,15.2c-2.3,0-4.7,0-7,0
		c-4.4-2.6-6.1-6.5-5.9-11.6c0.3-6.9,0-13.9,0.1-20.9C286.3,606.3,290.9,603,299,605.3z"/>
	<path class="st0" d="M223.2,545c10.1-1.2,20.2-0.5,30.3-0.1c4.3,0.2,7.5,4.5,7.3,8.6c-0.2,4.6-3.8,8.1-9,8.2c-9,0.2-17.9,0-26.9,0
		c-5.1-1-7.7-3.5-8-7.9C216.5,549.4,218.3,546.9,223.2,545z"/>
	<path class="st0" d="M264.3,579.9c6.1-1.9,9.9-1,12.3,3c2.3,3.9,1.5,7.6-2.9,11.9c-4.7,4.7-9.5,9.3-14,14.1c-3.5,3.7-7.3,5-12,2.9
		c-4.7-2.1-6.9-7.5-3.7-11.8C249.6,592.2,256.2,585.2,264.3,579.9z"/>
	<path class="st2" d="M264.3,579.9c-5.6,5.7-11.2,11.3-16.8,17c-5.2,5.3-5.2,9.6,0.2,14.9c-5.1,1.7-9.1,0.7-11.3-3.1
		c-2.5-4.2-1.5-7.9,1.9-11.2c5.3-5.3,10.5-10.6,15.8-15.8C257.1,578.8,260.4,577.7,264.3,579.9z"/>
	<path class="st1" d="M223.2,545c-7.6,6.2-6.9,12.6,1.7,16.8c-2.3,0-4.6,0.2-6.9,0c-5.1-0.4-8.4-3.9-8.3-8.7
		c0.1-4.8,3.3-8.1,8.6-8.3C219.9,544.6,221.5,544.9,223.2,545z"/>
	<path class="st3" d="M354.9,424.8c-22.8,0.1-45.6,0.2-68.4,0.2c-17.2,0-34.3-0.1-51.5-0.1c-1.8-1.9-1.6-4.3-1.7-6.6
		c0-21.1,0-42.2,0-63.3c0-2.3-0.3-4.7,1.6-6.6c2.1,0,4.3-0.2,6.4-0.1c7.4,0.5,10.7-2.6,10.7-10.1c0-4,0.1-8-0.1-11.9
		c-0.1-2.5,0.7-3.7,3.4-3.5c2,0.1,4,0.2,6-0.1c4.7-0.6,7.9-4.3,7.7-8.8c-0.2-4.7-3.3-7.9-8.3-8.1c-5.6-0.2-11.3-0.4-16.9-0.4
		c-4,0-6.7,2.3-8.7,5.6c-2.1-1.7-1.8-4.2-1.8-6.5c-0.1-31.5-0.1-63,0-94.5c0-2.1-0.1-4.4,1.4-6.2c1.8-0.8,3.6-0.4,5.4-0.4
		c36.5,0,72.9,0,109.4,0c6.7,0,7,0.3,7,7c0.1,29.8,0,59.6,0,89.4c0,38.8,0,77.6,0,116.3C356.6,419.2,357.2,422.3,354.9,424.8z"/>
	<path class="st4" d="M354.9,424.8c0-71.8,0-143.5,0.1-215.3c0-4.4-1.1-5.6-5.5-5.6c-38.1,0.2-76.3,0.2-114.4,0.2
		c-3.4,1.3-6.8,3-9.7-0.9c13.3-0.1,26.6-0.3,39.9-0.3c33.6,0,67.3,0.1,100.9,0c4.5,0,5.6,1.3,5.6,5.7c-0.1,70.5-0.1,140.9,0,211.4
		c0,3.9-1,5.4-5,5C362.9,424.7,358.9,424.9,354.9,424.8z"/>
	<path class="st5" d="M225.5,203.3c3.2,0.3,6.4,0.6,9.7,0.9c0,35.7,0.1,71.3,0.1,107c-0.1,5.5-0.3,11-0.1,16.5
		c0.1,2.7-0.5,4.1-3.5,3.7c-1.1-0.2-2.3,0-3.5,0c-10.1,0-10.1,0-10.1-9.9c0-37,0-73.9,0-110.9C218,203,218,203,225.5,203.3z"/>
	<path class="st5" d="M235,348.5c0,25.5,0,50.9,0,76.4c-5.5,0-12.4,2-16-0.6c-3.4-2.5-1-9.9-1-15.1c-0.1-18.9,0-37.9-0.1-56.8
		c0-3.3,0.8-4.4,4.1-4.1C226.4,348.5,230.7,348.4,235,348.5z"/>
	<path class="st3" d="M311.1,522.9c-2.7-2.7-5.5-5.2-8.1-8c-5.7-6.1-10.7-6-16,0.5c-0.4,0.5-1,0.9-1.7,1.4
		c-4.4-12.1-6.2-24.6-7.2-37.1c-0.2-2.4,0.8-3.2,3.1-3.1c7.6,0.2,15.2,0.2,22.9,0.3c1.9,2.3,1.2,5.1,1.6,7.6
		c1.6,10.6,4.3,20.7,9.8,30.1C318.2,519.4,316.5,522.3,311.1,522.9z"/>
	<path class="st6" d="M311.9,458.9c-16,0.1-32,0.2-48,0.3c-2.4,0-3.3-0.8-3.2-3.2c0.2-4.3,0.2-8.6,0.3-13c2.6-1.1,5.2-0.5,7.9-0.5
		c13.1-0.1,26.2,0.1,39.4-0.1c3.7-0.1,5.3,1.4,5.2,4.9C313.4,451.2,314.7,455.3,311.9,458.9z"/>
	<path class="st6" d="M252.1,168.9c0,4.6-0.1,9.3,0,13.9c0.1,2.3-0.7,3.5-3.1,3.2c-0.3,0-0.7,0-1,0c-13,0.3-13,0.3-13-12.7
		c0-6,0.1-12,0-17.9c-0.1-2.5,0.7-3.4,3.3-3.5c13.8-0.6,13.8-0.6,13.7,13C252.1,166.2,252.1,167.6,252.1,168.9z"/>
	<path class="st6" d="M320.3,169c0,4.5-0.1,9,0,13.5c0.1,2.5-0.6,3.4-3.3,3.5c-13.8,0.7-13.8,0.7-13.8-13.1c0-5.7,0.1-11.3-0.1-17
		c-0.1-2.9,0.6-4.3,3.9-4.1c3.1,0.3,6.3,0.3,9.5,0c3.3-0.3,3.9,1.2,3.8,4.1C320.2,160.4,320.3,164.7,320.3,169z"/>
	<path class="st7" d="M311.1,522.9c5.3-2.5,5.5-3.3,3-7.8c-6.6-11.9-10.2-24.5-10.1-38.2c8.3-0.4,8.2-0.4,9,7.5
		c0.9,9.5,3,18.8,7.3,27.3c2.2,4.5,1.5,7.2-2.7,9.1C315.5,521.7,314.4,525.8,311.1,522.9z"/>
	<path class="st4" d="M311.9,458.9c0-3.8-0.2-7.7,0.1-11.5c0.3-3.6-1.2-4.5-4.6-4.4c-15.4,0.1-30.9,0.1-46.3,0.1c1-1.7,2.7-1,4.1-1
		c19.8,0,39.5,0.2,59.3,0c3.9,0,4.7,1.3,4.6,4.9c-0.1,12.1,0,12.1-12.2,12.1C315.3,459,313.6,458.9,311.9,458.9z"/>
	<path class="st3" d="M438.9,629.8c-4.7,0-9.8,1.4-13.8-0.2c-5.3-2.1-1.6-8.1-2.4-12.3c-3.8-19.5-17.9-30.8-37.8-30.1
		c-13.6,0.5-26.7-2.3-40.5-7.9c6.3-0.5,8.9-4.3,11.4-8.2c3.2-5,6.6-10,9.9-14.9c1-1.5,1.9-3.1,4.2-3c10.7,0.6,21.6-1.4,32.1,1.9
		c7.9,2.6,13.4,8.5,18.6,14.4c14.1,16,20.6,34.9,19.7,56.3C440.2,627.2,440.2,628.7,438.9,629.8z"/>
	<path class="st4" d="M438.9,629.8c1.3-21.1-3.7-40.3-17.1-57.1c-5.6-7-12.7-12.5-19.9-17.8c11.4,1.1,21,6.3,29.5,13.3
		c18.4,15.1,26.3,34.9,25.5,58.5c-0.1,2.8-1.3,3.3-3.6,3.2C448.6,629.9,443.8,629.9,438.9,629.8z"/>
</g>
</svg>
