<?xml version="1.0" encoding="utf-8"?>
<!-- Generator: Adobe Illustrator 19.0.0, SVG Export Plug-In . SVG Version: 6.00 Build 0)  -->
<svg version="1.1" id="Calque_1" xmlns="http://www.w3.org/2000/svg" xmlns:xlink="http://www.w3.org/1999/xlink" x="0px" y="0px"
	 viewBox="0 0 612 792" style="enable-background:new 0 0 612 792;" xml:space="preserve">
<style type="text/css">
	.st0{fill:#1080DE;}
	.st1{fill:#EDF5FB;}
	.st2{fill:#1181DE;}
	.st3{fill:#1180DE;}
	.st4{fill:#1081DE;}
	.st5{fill:#0F80DE;}
</style>
<g>
	<path class="st0" d="M288,658c-4.8-2.3-6.4-6.1-6.2-11.3c0.3-7.3,0-14.6,0.1-21.9c0.1-5.7,3.7-9.6,8.6-9.5c4.8,0.1,8.3,3.8,8.4,9.3
		c0.1,8-0.1,15.9,0.1,23.9c0.1,4.6-2.5,7.3-6,9.5C291.3,658,289.7,658,288,658z"/>
	<path class="st1" d="M461,652"/>
	<path class="st1" d="M455,658"/>
	<path class="st2" d="M226.1,555.7c4.3,0,8.7-0.1,13,0c5.1,0.2,8.7,3.8,8.8,8.4c0.1,4.5-3.6,8.5-8.6,8.6c-8.5,0.2-17,0.2-25.4,0
		c-5.4-0.2-9-4.1-8.7-8.9c0.2-4.7,3.7-7.9,9-8C218.1,555.6,222.1,555.7,226.1,555.7C226.1,555.7,226.1,555.7,226.1,555.7z"/>
	<path class="st3" d="M255.8,589.9c4-0.1,6.5,1.6,8.1,4.7c1.6,3.1,1.4,6.4-0.9,8.9c-6.1,6.4-12.2,12.7-18.7,18.7
		c-3.3,3.1-8.2,2.3-11.3-0.9c-2.9-3-3.2-8.2-0.2-11.4c5.8-6.2,11.9-12.1,18-18C252.2,590.3,254.2,589.7,255.8,589.9z"/>
	<path class="st4" d="M365.4,197.1c-12.3-0.1-24.7-0.1-37,0c-2.5,0-4-0.3-3.9-3.4c0.2-11.7-0.3-23.3,0.2-35
		c0.2-5.5-1.3-9.6-5.7-12.7c-13.3,0-26.7,0-40,0c-6,1.6-7.4,6.1-7.5,11.5c-0.2,10.7,0,21.3-0.1,32c0,1.8,0.5,4.2-1.2,5.1
		c-3.4,1.7-7.2,1.4-10.7,0.4c-2.7-0.7-1.9-3.6-2-5.6c-0.1-11.2,0-22.3-0.1-33.5c0-4.7-1.3-8.6-6.5-9.9c-13.3,0-26.7,0-40,0
		c-5.6,1.5-7.4,5.5-7.5,10.8c0,10.8,0,21.6,0,32.3c0,5.8-0.1,6-5.7,6.4c-5,0.4-8.5,2.4-9.9,7.5c0,81.7,0,163.3,0,245
		c3,4,6.9,5.5,12,5.2c7.8-0.4,15.7-0.1,23.5-0.1c8.3,0.1,7.2-1.2,7.2,7c0.1,6.2-0.1,12.3,0.1,18.5c0.1,4.9,2.8,7.9,7.4,8.5
		c3.1,0.4,7.4-1.3,9.1,0.9c1.7,2.3,1.1,6.3,1.4,9.6c0.1,1.3,0.2,2.7,0.4,4c2.5,20.2,8.2,39.3,19,56.8c2.3,3.7,5.1,6.3,9.7,5.5
		c4.5-0.8,6.5-4,7.4-8.3c0.5-2.5,0.5-5.2,2.3-7.7c1.3,1.2,2.4,2.1,3.4,3.2c6.1,6,9,6.1,15.9,0.8c5.9-4.6,11.9-9.1,17.8-13.8
		c5.8-4.6,6.5-8.5,2.4-14.5c-6.8-10.1-9.3-21.6-10.6-33.4c-0.2-2.2,0.7-3,2.8-2.9c1.3,0.1,2.7,0,4,0c7-0.1,9.9-3,9.9-10.1
		c0-6.7,0.2-13.3-0.1-20c-0.1-3.4,1.1-4.1,4.3-4.1c9,0.2,18,0.1,27,0.1c9,0,11.6-2.6,11.6-11.6c0-35.5,0-71,0-106.5
		c0-42.3,0.1-84.6,0.2-127C376,200.9,372.6,197.2,365.4,197.1z M293.4,163c0.2,0,0.3,0,0.5,0c13.4-0.7,13.4-0.7,13.4,12.9
		c0,1.5,0,3,0,4.5c0,4.5-0.1,9,0,13.5c0.1,2.3-0.7,3.5-3.1,3.2c-0.2,0-0.3,0-0.5,0c-13.4,0.6-13.4,0.6-13.4-12.9c0-6,0.1-12,0-18
		C290.2,163.9,290.9,162.7,293.4,163z M225.5,163c13.6-0.5,13.6-0.6,13.6,13.1c0,1.5,0,3,0,4.5c0,4.5-0.1,9,0,13.4
		c0.1,2.4-0.9,3-3.2,3.2c-13.9,1-13.9,1-13.9-12.9c0-6,0.1-11.9,0-17.9C221.9,163.7,222.9,163.1,225.5,163z M306.1,531
		c-6.7,4.8-6.6,4.9-12.5-1c-1.3-1.3-2.6-2.6-3.8-3.9c-5.8-6.4-11.5-5.9-16,1.3c-0.2,0.4-0.7,0.6-1.3,1.2c-3.5-8.7-5.2-17.5-6.5-26.5
		c-0.5-3.8-1.1-7.5-1.1-11.3c-0.1-3.2,1.1-4,4.1-3.9c8.8,0.2,17.6,0.1,26.5,0c2.6,0,3.6,0.5,3.9,3.5c1.3,11.5,3.4,23,8.7,33.5
		C309.7,527.2,308.9,529,306.1,531z M310.9,470.2c-9.6-0.4-19.3-0.1-28.9-0.1c-10,0-20-0.1-29.9,0.1c-3.2,0.1-4.3-0.8-4.3-4.1
		c-0.1-12.9-0.2-12.9,12.9-12.9c17,0,33.9,0.1,50.9-0.1c3.5,0,4.8,0.9,4.4,4.4c-0.3,2.5-0.3,5,0,7.5
		C316.5,469,315.2,470.4,310.9,470.2z M353,436.2c-47.7-0.2-95.3-0.1-143,0c-3.6,0-5.1-0.6-5.1-4.8c0.2-22.5,0.2-45,0-67.5
		c0-3.7,0.9-4.9,4.7-4.7c6.6,0.4,13.3,0.2,20,0.4c5.8,0.1,9.5-3.3,9.6-9c0.1-4.3,0.1-8.7-0.1-13c-0.1-2.8,0.7-4,3.6-3.7
		c2,0.2,4,0.2,6-0.1c4.7-0.7,7.7-4.5,7.4-9.1c-0.3-4.5-3.4-7.5-8.2-7.7c-5.7-0.2-11.3-0.4-17-0.4c-5.4,0-8.8,3.7-8.9,9.3
		c-0.1,4.2-0.1,8.3,0.1,12.5c0.2,2.9-0.6,4-3.8,4c-13.3,0.1-13.3,0.3-13.3-13c0-36.8,0-73.7-0.1-110.5c0-3.8,1-4.7,4.7-4.7
		c47.5,0.1,95,0.1,142.5,0.1c6.6,0,6.6,0,6.6,6.8c0,34.8,0,69.7,0,104.5c0,35-0.1,70,0.1,105C358.9,435.2,357.4,436.2,353,436.2z"/>
	<path class="st5" d="M460,620.9c-5.2-35.7-29.5-62.4-64.5-71.3c-14.5-3.7-29.1-2-43.7-2.6c-4.5-0.2-7.6,1.6-9.9,5.3
		c-3.5,5.6-7.5,11-10.9,16.7c-1.8,2.9-4,3.9-7.4,3.8c-7.2-0.3-14.3,0-21.5-0.1c-4.9-0.1-9,0.9-10.7,6.1c-1.6,5.1,1.5,8.1,5.1,10.8
		c6.3,4.7,12.9,8.8,19.8,12.4c18.7,9.7,38.9,13,59.7,13.8c10.6,0.4,16.5,6.9,16.7,17.6c0.1,4.2,0.3,8.3-0.1,12.5
		c-0.4,5.1,1.1,9,5.2,12c19,0,38,0,57,0c3.2-0.8,5.2-2.8,6-6c0-9.7,0-19.3,0-29C460.1,622.6,460.2,621.7,460,620.9z M433.9,641
		c-6.5,0-13-0.2-19.5,0.1c-3.9,0.2-4.8-1.2-4.6-4.8c0.4-10.2-2.1-19.5-9.2-27.1c-7.5-8-17.1-11.3-27.8-10.9
		c-14,0.4-27.3-2.2-41.3-7.9c6-0.7,8.7-4.1,11.2-8c3.2-5.1,6.6-10,9.9-15c1.1-1.7,2.1-3.3,4.6-3.2c10.9,0.5,21.9-0.8,32.8,1.6
		c31,6.8,53.4,33.6,54,65.1C444.1,641,444.1,641,433.9,641z"/>
</g>
</svg>
