<?xml version="1.0" encoding="utf-8"?>
<!-- Generator: Adobe Illustrator 19.0.0, SVG Export Plug-In . SVG Version: 6.00 Build 0)  -->
<svg version="1.1" id="Calque_1" xmlns="http://www.w3.org/2000/svg" xmlns:xlink="http://www.w3.org/1999/xlink" x="0px" y="0px"
	 viewBox="0 0 612 792" style="enable-background:new 0 0 612 792;" xml:space="preserve">
<style type="text/css">
	.st0{fill:#50505A;}
</style>
<g>
	<path class="st0" d="M286.6,138.8c-120.3-0.3-218.9,95.1-220.4,217c-1.5,124.9,97.4,220.7,215.3,223.2
		c122.6,2.6,224.6-94.7,224.9-219.6C506.9,237,408.8,138.9,286.6,138.8z M282.2,559.3C175.5,557.1,84.1,468.6,86,355.1
		c1.8-108.4,90.5-196.4,200.2-196.6c111.3,0.1,201.2,90,200.5,201.8C485.9,474.5,391,561.5,282.2,559.3z"/>
	<path class="st0" d="M424.3,449.3c-3.2-19-8.6-37.6-13-56.4c-3.2-13.2-5.5-26.7-10.3-39.5c-5.1-13.7-14.1-22-29.6-21.2
		c-3.1,0.2-3.9-0.9-3.9-4c0.2-11.3-0.7-22.7,0.3-34c1-11.1-2.1-19.4-10.9-26.3c-5.8-4.6-12.4-9.7-15.4-16.1
		c-3.1-6.6-0.7-15.1-0.9-22.7c-0.2-10.5-4.8-15.1-15.4-15.1c-25.8,0-51.7,0-77.5,0c-10.8,0-15.5,4.7-15.5,15.5c0,42,0,84,0,126
		c0,40.3,0,80.7,0,121c0,11,0,11-10.8,11c-10.6,0-10.3,0-10.7,10.7c-0.1,4.4,1.1,5.5,5.5,5.5c44.5-0.2,89-0.1,133.5-0.1
		c12.8,0,12.7,0,12.2-12.7c-0.1-2.6-0.9-3.5-3.5-3.4c-4.2,0.1-8.4-0.3-12.5,0.1c-4.5,0.4-5.5-1.2-5.5-5.5c0.2-42.7,0.1-85.3,0.1-128
		c0-9.5,0-9.3,9.4-9.5c4-0.1,5,1.1,5,5c-0.2,33.8-0.1,67.7-0.1,101.5c0,2.2,0,4.3,0.2,6.5c1.6,18.5,19,32.3,37.9,30.3
		C412.9,485.5,427.5,468,424.3,449.3z M323.5,309.5c-24.8-0.1-49.7-0.1-74.5,0c-3.5,0-4-1.3-4-4.3c0.1-24.7,0.1-49.3,0-74
		c0-3.4,0.7-4.5,4.3-4.5c12.3,0.2,24.7,0.1,37,0.1c12.5,0,25,0.1,37.5-0.1c3.4-0.1,4.2,1,4.1,4.2c-0.1,24.7-0.1,49.3,0,74
		C327.9,308.4,327,309.5,323.5,309.5z M354.9,316.9c-0.4,4-0.2,8,0,12c0.1,2.7-0.9,3.3-3.5,3.4c-11,0.4-11,0.5-11-10.3
		c0-13.5,0-27,0-40.5c0-1.8-0.6-3.6,0.7-5.4c2.9,1.4,3.8,3.7,3.7,6.8c-0.2,7.8,0.1,15.7-0.1,23.5c-0.1,3.5,0.5,5.5,4.5,4.7
		C354,310.2,355.3,312.4,354.9,316.9z M391.7,475c-13.9,1-24-8.3-24.1-22.4c-0.1-17.2,0-34.3,0-51.5c0-17.3,0.1-34.6-0.1-52
		c0-3.8,1.2-4.6,4.8-4.7c8.1-0.2,12.7,4.1,15.8,10.7c3.7,7.9,5.3,16.4,7.3,24.8c5.4,22.8,11,45.6,15.9,68.5
		C414.2,462,404.9,474,391.7,475z"/>
</g>
</svg>
