<?xml version="1.0" encoding="utf-8"?>
<!-- Generator: Adobe Illustrator 19.0.0, SVG Export Plug-In . SVG Version: 6.00 Build 0)  -->
<svg version="1.1" id="Calque_1" xmlns="http://www.w3.org/2000/svg" xmlns:xlink="http://www.w3.org/1999/xlink" x="0px" y="0px"
	 viewBox="0 0 612 792" style="enable-background:new 0 0 612 792;" xml:space="preserve">
<style type="text/css">
	.st0{fill:#884B9C;}
</style>
<g>
	<path class="st0" d="M315.1,246c-82.8-0.3-150.7,67.2-151.2,150.3C163.5,479,231,547.7,313.1,548c85.3,0.3,152.7-66.7,152.9-152
		C466.3,314,398.2,246.3,315.1,246z M269.9,308.4c0.2-4.9,2.6-7.5,7.4-7.6c8.2-0.2,16.3-0.2,24.5,0c4.7,0.1,7.2,2.8,7.5,7.6
		c0.8,13.7,0.8,13.7-12.7,13.8c-2.5,0-5,0-7.5,0c0,0,0,0,0,0c-5.2,0-10.3-0.1-15.5,0c-2.8,0.1-3.9-1-3.8-3.8
		C269.9,315,269.8,311.7,269.9,308.4z M385,481c0,8.9-4.9,13.8-14,13.8c-18.8,0-37.6,0-56.4,0c-18.3,0-36.6,0-55,0
		c-10.2,0-14.7-4.4-14.7-14.5c0-32.3,0.2-64.6-0.1-96.9c-0.1-11.3,1.9-21.6,6.5-31.9c8-17.9,8.9-18.7,28.7-18.7c11,0,22,0.1,33,0
		c4,0,7.5,1,10.8,3.2c17.3,11.8,34.7,23.5,52.2,35.2c6.2,4.1,9.1,9.9,9.1,17.3C385,419.4,385,450.2,385,481z"/>
	<path class="st0" d="M324,446.4c-0.2,10.6-5.1,18.5-14.7,22.9c-9.8,4.5-19.3,3.3-27.6-3.6c-8-6.7-11.6-15.4-8.8-25.8
		c3.8-14.1,12.4-25.6,21.3-36.8c2-2.4,4.9-3,7-0.5c10,11.9,19.2,24.3,22.7,39.9C324.2,443.7,324,445.1,324,446.4z"/>
	<path class="st0" d="M365,385.9c0,8.2-7.1,12.1-13.2,8.4c-4.9-3-9.6-6.5-14.4-9.8c-6.6-4.5-13.1-9-19.6-13.6c-5-3.5-6-8.1-2.9-12.4
		c3-4.2,7.8-4.8,12.7-1.5c11,7.5,21.9,15,32.8,22.5C363.1,381.4,365,383.8,365,385.9z"/>
</g>
</svg>
