<?xml version="1.0" encoding="utf-8"?>
<!-- Generator: Adobe Illustrator 19.0.0, SVG Export Plug-In . SVG Version: 6.00 Build 0)  -->
<svg version="1.1" id="Calque_1" xmlns="http://www.w3.org/2000/svg" xmlns:xlink="http://www.w3.org/1999/xlink" x="0px" y="0px"
	 viewBox="0 0 612 792" style="enable-background:new 0 0 612 792;" xml:space="preserve">
<style type="text/css">
	.st0{fill:#222222;}
</style>
<g>
	<path class="st0" d="M548.9,429.7c-1.8-9.4-0.1-19-1.2-28.4c-0.8-7.1,1.6-15.3-5.4-21c-0.8-0.7-0.4-2.9-0.5-4.4
		c-0.3-4.6-0.5-9.2-0.8-13.9c-3.6,4.1-2.7,8.5-2.1,12.9c0.9,7-1.9,9.2-8.9,7.3c-2.5-0.7-4.7-1.9-6.4-3.7
		c-5.9-6.1-12.1-11.9-17.3-18.7c-3.6-4.7-2.9-7.4,2.5-10.2c9-4.6,18.2-6.9,28.4-2.9c-3.5-7.5-5-8.6-13.3-9.8
		c-1.6-0.2-3.1-0.1-4.3-1.9c-9.8-14.4-22.3-26-37.7-34.7c1.2-0.7,2-1.4,2.9-1.7c3-0.9,3.7-2.9,3.3-5.7c-0.4-3.4-3.1-2.4-5.1-2.6
		c-5.8-0.5-11.7-0.4-17.4-1.2c-32-4.8-64.1-7.7-96.5-7.5c-11.2,0.1-22.3-0.5-33.4-1.6c-1.3-0.1-3-0.5-3.9,0.1
		c-5.8,4-12.6,3.8-19.1,4.9c-50.7,8.6-94.8,31.1-133.8,64.1c-7.1,6-9.2,6.2-16.8,0.3c2.1-1.7,4.3-3.4,6.4-5
		c-6.8-2.3-13.2-1.7-19.6-0.3c-4.4,1-8.8,1.8-13.2,2.7c-22.1,4.8-44,10.5-64.7,19.8c-14.6,6.6-21,18.4-22,34
		c-0.9,13.8,3.6,27.4,1.3,41.3c-0.1,0.8,0.5,2,1.1,2.7c4.8,5,8.8,10.9,15.9,13.2c10.2,3.3,20.8,4.5,31.7,3.8
		c-5.7-22.4-0.7-41.4,18.6-54.7c16.2-11.2,34-11.7,50.8-1.4c20.2,12.4,26.2,31.2,21.5,54.3c1.8,0,3.4,0,5.1,0
		c20.7-0.3,41.3-0.6,62-0.9c57.3-1,114.6-2.1,172-3c3.7-0.1,4.2-0.9,3.6-4.5c-5.2-31.6,24.7-59.8,56.1-53.1
		c22.8,4.9,38.2,23.8,38.2,47.2c0,4.2,1.2,4.4,4.4,2.7c6.8-3.6,11.9-9,16.6-14.9C548.6,432.4,549.2,431.2,548.9,429.7z M114.6,368.2
		c-9.2,7.6-18,15.7-28.4,21.7c-5.3,3.1-11.5,2.9-18.4,3.2c-6.3,3.1-8.3-4.8-13.1-6.8c-0.6-0.3-0.6-1.3-0.1-1.8
		c2.9-2.9,5.6-7.4,9-8.2c7.8-1.9,14.5-6.2,22.1-8.4c8.9-2.5,17.8-3.7,26.9-4.5c1.3-0.1,2.8-0.1,3.4,1.3
		C116.7,366.4,115.6,367.4,114.6,368.2z M238.1,340.9c-10.2,0-17,6.3-17.7,16.5c-0.1,1.9-0.9,2.4-2.4,2.3c-3.9-0.1-7.8,1.4-11.7,0.3
		c-0.1,0,0.2-1.5,0.4-2.3c1.2-4.3,2.4-8.7,3.6-13c2.3-8.3,7.4-14.3,14.7-18.7c7.3-4.5,14.8-8.7,23.6-12.5c-2.5,9.1-4.8,17.4-7,25.7
		C241,341.3,239.6,340.9,238.1,340.9z M342.5,295c-3,17.2-7,34.1-11.7,50.9c-0.5,1.7-1.1,2.9-3.3,2.9c-25,0.6-49.7,3.8-75.5,6.4
		c-3.1,1-2.9-1.5-4-4.5c-5.2-13.9,4.1-25.5,5.4-38.3c0.2-1.8,2.4-2,3.9-2.6c23.1-9.5,47.2-14.5,72-16.7c3.6-0.3,7.3-0.5,10.9-0.8
		C342.3,292,342.9,292.5,342.5,295z M437.6,345.5c-12.3-0.2-24.6-0.1-36.9-0.1c0,0.5,0,1,0,1.4c-12,0-24-0.1-35.9,0.1
		c-3,0-4.4-0.2-4-4c1.7-15.5,3.2-31.1,4.5-46.7c0.3-3.3,1.3-4.4,4.8-4.3c21.8,0.6,43.5,2.4,65,6.1c4.2,0.7,6.2,2.2,6.1,7
		c-0.3,12.1,0,24.3,0.3,36.4C441.5,344.6,440.6,345.5,437.6,345.5z M497.5,336.2c-11,4-22.5,5.8-33.9,7.8c-1.8,0.3-2.9-0.1-3.2-2
		c-2.2-12.9-4.5-25.7-6.8-39.1c18.7,4,33.2,13.5,45.5,27C501.8,332.8,501.7,334.7,497.5,336.2z"/>
	<path class="st0" d="M144.2,404.9c-23.2,0-41.5,18.2-41.5,41.4c0,23,18.6,41.6,41.5,41.6c22.7-0.1,41.2-18.5,41.4-41.3
		C185.8,423.6,167.2,404.9,144.2,404.9z M143.8,476.3c-16.8-0.1-29.9-13.5-29.9-30.4c0.1-16.6,13.7-30,30.3-29.9
		c16.6,0.1,29.9,13.6,29.8,30.4C174.1,463.2,160.6,476.5,143.8,476.3z"/>
	<path class="st0" d="M479.5,403.6c-23-0.1-41.5,18.4-41.5,41.5c0,23,18.6,41.5,41.6,41.4c22.8-0.1,41.3-18.5,41.4-41.2
		C521,422.2,502.5,403.6,479.5,403.6z M479.3,475.1c-16.7-0.1-30.2-13.5-30.1-30.2c0.1-16.6,13.6-30.1,30.3-30
		c16.7,0,30.2,13.5,30.1,30.2C509.6,461.7,496,475.1,479.3,475.1z"/>
</g>
</svg>
