<?xml version="1.0" encoding="utf-8"?>
<!-- Generator: Adobe Illustrator 19.0.0, SVG Export Plug-In . SVG Version: 6.00 Build 0)  -->
<svg version="1.1" id="Calque_1" xmlns="http://www.w3.org/2000/svg" xmlns:xlink="http://www.w3.org/1999/xlink" x="0px" y="0px"
	 viewBox="0 0 612 792" style="enable-background:new 0 0 612 792;" xml:space="preserve">
<style type="text/css">
	.st0{fill:#212329;}
	.st1{fill:#68D4C6;}
	.st2{fill:#F5CB40;}
	.st3{fill:#EB8F3B;}
	.st4{fill:#FCFCFC;}
	.st5{fill:#F9EEEB;}
	.st6{fill:#F8EDE9;}
</style>
<g>
	<path class="st0" d="M52,219c0-28.5,0-57,0-85.5c0-7.8,2.7-10.5,10.5-10.5c17.2,0,34.3,0,51.5,0c7.2,0,10,2.7,10.1,9.9
		c0,2.2,0,4.3,0,6.5c0,7.7,0,7.6,7.9,7.6c31.2,0,62.3,0,93.5-0.1c3.5,0,6.4,0.9,9.3,2.8c27.7,17.8,55.5,35.5,83.4,53
		c4.1,2.6,6.1,5.6,6,10.5c-0.2,12.3-0.1,24.7-0.1,37c0,7.2-2.4,13.4-7.8,18.2c-2.1,1.8-2.3,3.3-1.5,6c4.4,16.1-3.5,31.9-19.1,38.1
		c-2.8,1.1-3.8,2.4-3.7,5.3c0.3,4.1-1.1,8.9,0.5,12.3c1.7,3.7,7.5,2.1,10.9,4.3c11.3,7.1,23.9,4,36,4.4c11.5,0.3,22.6,2,32.9,7
		c30.2,14.4,46.2,38.5,47.8,72c0.3,6.7,0.3,13.3,0,20c-0.2,4,0.8,5.3,5.1,5.2c24.3-0.2,48.7-0.1,73-0.1c20.5,0,34,13.5,34,34.1
		c0,27.8,0,55.7,0,83.5c0,7.8-2.6,10.4-10.5,10.4c-23.7,0-47.3,0.1-71,0c-2.8,0-4.3,0.7-5.8,3.3c-10.9,18.6-27.2,28.6-48.8,28.6
		c-21.6,0-37.8-10.2-48.7-28.7c-1.5-2.6-3.1-3.3-5.8-3.3c-43.7,0.1-87.3,0.1-131,0c-2.8,0-4.3,0.8-5.8,3.3
		c-10.9,18.6-27.2,28.6-48.8,28.6c-21.6,0-37.8-10.2-48.7-28.7c-1.5-2.6-3.1-3.2-5.8-3.2c-13.2,0.1-26.3,0.1-39.5,0
		c-7.2,0-9.9-2.8-9.9-10c0-28.7,0-57.3,0-86c0-17.8,14.3-31.9,32.1-32c12.5,0,25,0,37.5,0c10.4,0,10.4,0,10.4-10.6
		c0-11.8-0.3-23.6,3-35.2c9.6-33.8,41.1-58,76.3-58.1c7.7,0,15.4-0.8,23,0.2c14.3,1.8,27-3.3,40.1-7.2c1.2-0.4,1.6-0.9,1.6-2
		c0-1.3-0.1-2.7,0-4c0.8-7.2,0.3-13-8.4-16c-6.9-2.4-11-9-13.5-15.9c-0.8-2.3-1.9-3-4.3-3c-40.8,0.1-81.7,0.1-122.5,0
		c-3,0-3.6,1-3.5,3.7c0.2,3.5,0.1,7,0,10.5c-0.1,6.9-2.8,9.8-9.6,9.8c-17.7,0-35.3,0-53,0c-6.5,0-9.4-3-9.4-9.5
		C52,276.6,52,247.8,52,219C52,219,52,219,52,219z"/>
	<path class="st0" d="M443.5,123c46.7,0.2,84.6,35.3,88.4,81.5c3.7,44.6-28.3,85.5-73,93.2c-19.8,3.4-38.8,0.3-56.5-9.3
		c-2.7-1.5-4.7-1.4-7.3,0c-11.2,5.8-22.6,11.3-33.9,17c-4,2-7.7,2.5-10.9-1c-3.1-3.2-2.6-6.8-0.7-10.6c5.8-11.4,11.5-22.9,17.3-34.3
		c1.2-2.3,1.2-4.1,0-6.4c-28-54.3,1.7-116.5,61.3-128.6C433.3,123.4,438.6,122.8,443.5,123z"/>
	<path class="st1" d="M330.5,355.4c40.3-4.6,73.4,24.7,73.5,64.7c0,9.8,0,19.7,0,29.5c0,6.5,2.9,9.4,9.5,9.4
		c19.2,0,38.3,0.2,57.5-0.1c4.3-0.1,5.2,1.2,5.1,5.3c-0.3,13.3-0.1,26.7-0.1,40c0,8.4,2.5,10.9,11.1,10.9c8.3,0,16.7,0.1,25-0.1
		c3-0.1,4.1,0.6,4,3.8c-0.2,10.8-0.2,21.7,0,32.5c0,2.6-0.4,3.8-3.5,3.8c-19.2-0.1-38.3-0.2-57.5,0c-3.6,0-3.4-1.4-3.2-4.1
		c1.9-32.8-23.3-59.9-55.8-60c-32.2-0.1-57.7,26.8-55.8,59.4c0.2,4.3-1.1,4.7-4.7,4.7c-39.7-0.1-79.3-0.1-119,0
		c-3.5,0-5-0.2-4.7-4.7c1.9-32.4-23.5-59.3-55.8-59.4c-31.9-0.1-57.5,26.6-55.8,58.9c0.3,5-1.3,5.3-5.3,5.2c-7.7-0.3-15.3-0.2-23,0
		c-2.9,0.1-4-0.6-4-3.8c0.1-25.3,0-50.7,0.1-76c0-9.6,6.8-16.2,16.5-16.2c17.7-0.1,35.3,0,53,0c7.8,0,10.3-2.6,10.5-10.5
		c0.3-13.1-1.1-26.3,0.8-39.4c4.2-29,29.2-52.2,58.5-53.9c9.9-0.6,19.8-0.1,30.4-0.1c-6.3,10.1-10,20.5-9.8,32
		c0.5,20.9,9.7,37.1,27.6,47.9c3.5,2.1,4.5,4.3,4.5,8.2c-0.2,28.3,0,56.7-0.1,85c0,4,0.3,7.7,4.3,9.9c4.3,2.3,7.6,0.1,10.9-2.4
		c9.3-7,18.7-14,28-21c5.3-4,6.6-7.2,3-12.7c-5-7.6-5.2-14.4,0.1-21.7c2.4-3.3,2.2-6.9,0.1-10.3c-0.2-0.3-0.2-0.6-0.4-0.9
		c-6.9-8.6-4.7-18-2.3-27.4c0.7-2.7,2.7-3.1,4.5-4c21.3-11.2,32.1-28.9,31.8-53c-0.1-8.8-2.7-17-7-24.7
		C332.1,358.4,331.3,356.9,330.5,355.4z"/>
	<path class="st2" d="M193.6,275c-21.7,0-43.3-0.1-65,0.1c-3.7,0-4.7-0.8-4.7-4.6c0.2-34.3,0.2-68.6,0-103c0-3.8,1.1-4.6,4.7-4.6
		c31.2,0.1,62.3,0.1,93.5,0.1c2.4,0,4.5,0.6,6.5,1.9c25.2,16.1,50.5,32.2,75.8,48.2c2.5,1.6,3.7,3.2,3.6,6.3c-0.2,10,0,20-0.1,30
		c0,5.9-3.1,9.6-7.8,9.6c-4.9,0.1-8.1-3.7-8.1-9.9c0-4.3,0-8.7,0-13c-0.1-5.6-2.3-8.3-7.8-9.1c-28.8-4.4-57.5-8.9-86.3-13.2
		c-13-1.9-24.9,7.7-25.8,20.5c-1,13.3,9.1,24.6,22.5,24.7c21.3,0.2,42.7,0.1,64,0c4.8,0,8.2,1.7,9.3,6.5c1.3,5.2-2.9,9.5-9.2,9.5
		C236.9,275,215.3,275,193.6,275C193.6,275,193.6,275,193.6,275z"/>
	<path class="st3" d="M68,218.5c0-25,0.1-50-0.1-74.9c0-3.8,1.1-4.7,4.7-4.6c10.5,0.3,21,0.2,31.5,0c3-0.1,4,0.7,4,3.9
		c-0.1,50.8-0.1,101.6,0,152.4c0,3.2-1,3.9-4,3.9c-10.5-0.2-21-0.2-31.5,0c-3.7,0.1-4.7-0.9-4.7-4.7C68.1,269.1,68,243.8,68,218.5z"
		/>
	<path class="st3" d="M116,546.6c0.1-22,18.1-39.7,40.4-39.6c21.7,0.1,39.6,18.2,39.6,40c-0.1,22.2-18.3,40.1-40.7,40
		C133.9,586.8,115.9,568.4,116,546.6z"/>
	<path class="st3" d="M395.9,587c-21.6,0-39.9-18.1-39.9-39.7c-0.1-22.4,17.8-40.3,40.3-40.2c21.7,0,39.7,18.1,39.7,39.8
		C435.9,568.9,417.9,587,395.9,587z"/>
	<path class="st3" d="M276,515c0-27.2-0.1-53.3,0.1-79.5c0-6-1.9-9.4-7.6-11.8c-18.4-7.8-27.8-26.8-23.3-46.2
		c4.3-18.5,22.1-31.5,41.6-30.4c18.5,1,33.5,15.2,36.9,34.9c2.9,16.9-7.9,35.7-25.2,42.1c-6.4,2.4-9.4,5.9-10.3,12.4
		c-0.9,6.7-2.4,13.4-4,20.1c-1.1,4.6,1.3,8.2,3.5,11.6c3,4.7,3.5,9,0,13.6c-4.7,6.3-4.5,12.5,0.1,18.8c2,2.7,1.9,4.8-1.4,6.8
		C283,509.3,280,511.9,276,515z"/>
	<path class="st3" d="M492,478.7c0-5.5,0.1-11-0.1-16.4c-0.1-2.7,0.9-3.3,3.4-3.4c14.2-0.5,20.6,5.5,20.6,19.7
		c0,5.5-0.1,11,0.1,16.4c0.1,2.9-0.5,4.2-3.8,4c-5.6-0.3-11.3-0.2-16.9,0c-2.6,0.1-3.5-0.8-3.4-3.4C492.1,490,492,484.4,492,478.7z"
		/>
	<path class="st4" d="M276.4,249.2c-10.5-8.7-22.1-6-33.1-6.2c-15.5-0.3-30.9-0.1-46.4-0.1c-5.8,0-9-2.5-8.9-7
		c0.1-4.6,3.7-7,9.8-6.1c25,3.7,49.9,7.6,74.8,11.3C277.7,241.9,275.5,245.3,276.4,249.2z"/>
	<path class="st5" d="M284.3,269.3c3.2,2.2,6.2,4.4,10,4.8c3.4,0.4,4.7,2.5,5.4,5.5c1.7,7.4-2.6,15.4-9.7,18.3
		c-7.1,2.8-15.5,0.1-19.3-6.1c-0.9-1.4-1.3-2.3,0.4-3.6C280.7,280.9,280.7,280.8,284.3,269.3z"/>
	<path class="st3" d="M374.8,279.3c2.9-5.9,5.7-11.9,8.9-17.7c2.3-4.2,2.2-7.8-0.4-12.1c-26.6-43.4-3.9-97.5,45.7-109
		c39.8-9.2,80.7,19.3,86.2,60c6.1,45.7-29.3,84.4-75.4,82.3c-12.4-0.6-23.9-4.3-34.2-11.1c-4.1-2.7-7.8-2.9-12.1-0.6
		c-5.8,3.2-11.8,6-17.8,9C375.4,279.9,375.1,279.6,374.8,279.3z"/>
	<path class="st0" d="M202.7,459c-9.7,0-19.3,0-29,0c-6.9,0-9.8-2.8-9.7-9.7c0.2-10.6-1.1-21.3,1-31.9c3.9-20.3,22.1-36.6,42.6-38.4
		c3.5-0.3,4.8,0.6,4.5,4.2c-0.3,3.5,0.9,7.4-0.4,10.4c-1.3,3-5.8,1.7-8.9,2.7c-13,4-22.4,16.1-22.8,29.7c-0.1,4.3,0.2,8.7-0.1,13
		c-0.2,3.3,1,4.2,4.2,4.1c15.6-0.1,31.3,0,46.9-0.1c3.7,0,5.2,0.6,5.1,4.8C235.8,459,236,459,224.6,459C217.3,459,210,459,202.7,459
		z"/>
	<path class="st0" d="M353.4,459c-8.7,0-17.3-0.1-26,0c-2.5,0-3.4-0.6-3.5-3.3c-0.4-12.7-0.5-12.7,12-12.7c10.8,0,21.7-0.1,32.5,0.1
		c2.8,0,3.7-0.7,3.7-3.6c-0.2-9.2,0-18.3-0.1-27.5c0-8.7-4.4-14.5-12.9-16.6c-2.5-0.6-3.3-1.4-3.1-3.8c0.2-3,0.3-6,0-9
		c-0.3-3.5,1.4-3.8,4.1-3.4c15.2,1.9,27.6,15.2,27.9,30.6c0.3,13.5,0.1,27,0,40.5c0,5.8-3.1,8.7-9.1,8.8
		C370.4,459.1,361.9,459,353.4,459z"/>
	<path class="st0" d="M284,411c-13.3,0-24-10.9-24-24.3c0.1-12.9,11-23.8,24-23.7c13.3,0.1,24.1,11,24,24.3
		C307.9,400.3,297,411,284,411z"/>
	<path class="st0" d="M429.4,227c3.2-0.5,6.4-0.4,8.4,4.6c1.4,3.4,5.4,4.3,9.1,2.8c3.6-1.5,5.6-4.4,5.1-8.3c-0.6-4.3-3.3-6.9-7.7-7
		c-6.8-0.2-12.6-2.6-17.4-7.5c-10.8-11.3-8.4-29.6,5.3-37.2c3.2-1.8,4.4-3.6,3.9-6.9c-0.6-3.9,1.1-5.1,4.7-4.6c1,0.1,2,0,3,0
		c7.5,0,7.6,0,8.3,7.4c0.2,2.5,1.9,2.8,3.4,3.6c7,3.9,11.1,9.9,12.5,17.7c1,5.8-1.7,10.3-6.5,11.2c-4.8,0.9-8.3-2.3-9.4-8.5
		c-0.8-4.7-4.2-7.7-8.5-7.4c-4.2,0.3-7.4,3.8-7.4,8c0,4.5,3.2,7.6,8.4,8c19.4,1.5,29.9,21.2,19.7,36.9c-2,3.1-4.5,6.1-7.9,7.4
		c-4,1.5-4.7,4.1-4.2,7.7c0.4,2.9-0.5,4.4-3.8,4c-1.5-0.2-3,0-4.5,0c-7.2,0-7.3,0-7.7-7c-0.1-2.4-1.4-3-3.1-3.9
		c-6.3-3.4-10.5-8.5-12.3-15.6c-1.4-5.6-1.4-5.6,4.2-5.6C426.1,227,427.3,227,429.4,227z"/>
	<path class="st6" d="M292,387.2c-0.1,4.3-3.8,7.9-8.1,7.8c-4.5,0-8.2-3.9-7.9-8.4c0.2-4.3,3.9-7.7,8.3-7.6
		C288.6,379.2,292.1,382.9,292,387.2z"/>
</g>
</svg>
