<?xml version="1.0" encoding="utf-8"?>
<!-- Generator: Adobe Illustrator 19.0.0, SVG Export Plug-In . SVG Version: 6.00 Build 0)  -->
<svg version="1.1" id="Calque_1" xmlns="http://www.w3.org/2000/svg" xmlns:xlink="http://www.w3.org/1999/xlink" x="0px" y="0px"
	 viewBox="0 0 612 792" style="enable-background:new 0 0 612 792;" xml:space="preserve">
<style type="text/css">
	.st0{fill:#32BCA5;}
	.st1{fill:#73D2C1;}
	.st2{fill:#DD2C2C;}
	.st3{fill:#F85655;}
	.st4{fill:#3E3E3F;}
	.st5{fill:#F9DF58;}
	.st6{fill:#F8CA1B;}
	.st7{fill:#FDFDFD;}
	.st8{fill:#FDFCFC;}
	.st9{fill:#32BDA5;}
	.st10{fill:#DE2D2D;}
</style>
<g>
	<path class="st0" d="M357,648c-11.7,0-23.3,0-35,0c-7.4-1-14.8-1-22.2-1.6c-10.8-0.9-21.3-3.5-31.6-6.7
		c-34.1-10.5-65.2-26.7-92.3-50.1c-24.9-21.5-45.9-46.2-61.4-75.4c-12.1-22.8-21-46.7-25.7-72.1c-1.6-8.5-1.5-17.2-2.1-25.8
		c-0.1-1.1,0.4-2.3-0.5-3.4c0-9.3,0-18.7,0-28c1.1-3.4,0.2-7,0.5-10.5c-0.7-32,7.6-61.8,20.8-90.6c15.3-33.4,37.2-61.8,64.4-86.2
		c15-13.5,31.7-24.8,49.6-34.2c20.8-10.9,42.5-19.1,65.4-24c12.4-2.6,25.1-2.9,37.7-3.1c3.5-0.3,7.1,0.6,10.5-0.5c8.7,0,17.3,0,26,0
		c7.7,1,15.5,0.9,23.2,1.7c16.4,1.5,31.9,6.3,47.2,12c26.6,9.8,51.1,23.4,73,41.5c26.3,21.9,48.6,47.3,64.7,77.7
		c11.3,21.3,20,43.5,25.1,67.1c2.4,10.9,2.4,22.1,3.2,33.1c0.2,2.6-0.6,5.3,0.5,7.8c0,10,0,20,0,30c-1,7.5-1,15.2-1.3,22.8
		c-0.6,12.5-3.4,24.4-7,36.1c-10.5,34.1-26.8,65.1-50,92.4c-33.1,38.9-74,65.9-122.8,81.2c-17.3,5.4-35,7.8-53,8.1
		C361.6,647.6,359.2,647,357,648z"/>
	<path class="st1" d="M323.8,136.9c0.1-0.3,0.2-0.6,0.2-0.9c3.7,0,7.3,0,11,0C331.4,137.6,327.6,137,323.8,136.9z"/>
	<path class="st1" d="M86,374c0.3-0.1,0.6-0.2,0.9-0.2c0.1,3.8,0.7,7.5-0.9,11.2C86,381.3,86,377.7,86,374z"/>
	<path class="st2" d="M392.8,332.2c23-1.9,45.2,0.2,65.8,11.8c9.8,5.6,10.4,7.7,5.2,18c-1.2,2.5-2.6,1.3-4,0.7
		c-9.1-3.8-18.6-6.2-28.4-7.2c-32.9-3.2-76.9,22.1-71.4,71.4c1,9,4.4,16.7,13.8,20.3c3.5,1.4,5.4,4.4,5.4,8.3c0,25.3,0.1,50.6,0,76
		c0,6.2-4,9.4-11,9.5c-30.8,0-61.6,0-92.5,0c-17.5,0-35,0-52.5,0c-8.2,0-11.4-3.2-11.4-11.5c0-5.5,0.1-11,0.1-16.5
		c0.6-2.7,2.1-4.8,4.1-6.7c6.3-6.1,12.4-12.4,18.6-18.5c6.5-6.5,8.3-6,10.8,2.8c3.3,9.4,11.9,13.8,23.4,11.9
		c9.4-1.5,14.6-7.7,14.9-17.6c0.1-2.3-0.1-4.7,0.1-7c0.7-9.4-1.2-17.6-10.3-22.5c-0.6-0.3-0.8-1-1.1-1.6c-1-3.4,1.5-5.2,3.4-7.2
		c11.2-11.4,22.6-22.7,33.9-34c24.6-24.6,49.3-49.2,73.9-73.9C386.2,335.9,389.2,333.6,392.8,332.2z"/>
	<path class="st3" d="M392.8,332.2c-1.5,1.6-2.9,3.2-4.4,4.8c-37,37.1-74.1,74.1-111.1,111.2c-1.5,1.5-2.9,3.2-4.3,4.8
		c-0.8,1.5-2.2,1.9-3.8,1.7c-1-0.1-2-0.2-3-0.2c-16-0.6-23.9,8.3-21.5,24.3c0.4,2.6,0.6,5.3,0.4,7.9c-0.1,1.8-0.2,3.7-2.4,4.4
		c-1.5-1.6-0.5-3.9-1.6-6.3c-10.4,9-19,19.6-29.4,28.3c-1-7.3-0.3-14.6-0.4-21.9c-0.1-10.7,0.2-21.3-0.1-32
		c-0.2-6.6,1.2-12.4,5-17.8c2.5-3.5,4.6-7.3,6.9-10.9c1.2-8.3,8-12.8,12.7-18.7c11.1-11.5,22.2-22.8,35.2-32.3
		c21.4-15.7,44.4-28.6,69.5-37.6c2-0.7,4.4-0.4,6.1-2c4.9-1.9,10-3.1,15.1-4.4c2.4-0.7,4.9-0.7,7.1,0.7
		C376.8,334.2,384.7,332.3,392.8,332.2z"/>
	<path class="st4" d="M368.8,335.8c-7.2,2-14.4,4-21.5,6c-4.6-0.5-8.3-3.2-12.3-5.1c-26-12.3-50.6-9.7-72.9,8.3
		c-19.1,15.4-26.6,35.9-24,60.3c0.3,2.7,0.3,5.3-0.9,7.8c-4.6,5.8-9.3,11.6-13.9,17.4c-16.1-34.2-4.2-79,27.5-103.6
		C286.4,299,337.7,302.9,368.8,335.8z"/>
	<path class="st5" d="M466.8,503.2c-18.1,3.9-35.4-14.1-31.3-32.6c5.1-22.4,13.8-43.5,21.9-64.9c1.4-3.7,3-7.4,4.5-11
		c0.4-0.9,0.6-2.2,1.8-0.7c3.6,31.6,0.8,63.3,1.6,95C465.5,493.7,465.4,498.5,466.8,503.2z"/>
	<path class="st6" d="M466.8,503.2c-4,0-3.8-2.8-3.8-5.6c0-27-0.1-53.9,0.1-80.9c0-7.6-0.9-15.3,0.6-22.9
		c9.7,24,19.4,48.1,25.9,73.2c4.2,16.3-3.2,30.3-17.9,35.1C470.1,502.8,468.4,502.9,466.8,503.2z"/>
	<path class="st7" d="M242.8,491c-0.1-5.5-0.3-11-0.3-16.4c-0.1-16.7,10-25.2,26.7-22.4c1.3,0.2,2.6,0.5,3.9,0.7
		c9.6,3.9,13.6,10.9,12.8,21.2c-0.3,4.3,0,8.6-0.1,12.9c-0.1,8-4.1,13.4-11.5,16.4C260.9,508.9,246.7,503.3,242.8,491z"/>
	<path class="st8" d="M314.1,478.5c0-7.5,0.1-15-0.1-22.4c-0.1-2.9,0.9-3.7,3.7-3.7c11.9,0.3,9.3-1.5,9.6,9.3
		c0.2,8.1,0.4,16.3-0.1,24.4c-0.3,4.9,1.5,6,5.9,5.6c4-0.3,8,0,12-0.1c2.5-0.1,3.5,0.7,3.6,3.3c0.5,9.8,0.7,9.8-9.1,9.7
		c-7.2,0-14.3-0.2-21.5,0.1c-3.3,0.1-4.2-1-4.1-4.3C314.2,493.2,314.1,485.8,314.1,478.5z"/>
	<path class="st8" d="M305.9,479c0,7.1-0.1,14.3,0.1,21.4c0.1,3.1-0.6,4.4-4,4.3c-9.2-0.1-9.2,0.1-9.2-9.2c0-12.8,0.1-25.6-0.1-38.4
		c-0.1-3.6,0.7-5,4.6-4.9c8.6,0.2,8.6,0,8.6,8.7C305.9,467,305.9,473,305.9,479z"/>
	<path class="st9" d="M237.1,413c-6.1-25.9,0.8-48.2,19.4-66.6c24.5-24.2,65.9-26.1,90.7-4.6c-41.7,14.5-78.1,37.2-108.3,69.6
		C238.4,411.9,237.8,412.4,237.1,413z"/>
	<path class="st10" d="M255.7,478.1c0-1.8,0-3.7,0-5.5c0.1-6.5,2.4-8.9,8.6-8.7c6,0.1,8.2,2.4,8.2,8.6c0,4.5,0.1,9,0,13.4
		c-0.1,5.1-2.8,7.2-8.6,7.1c-5.7-0.1-8.1-2.1-8.2-7C255.6,483.4,255.7,480.7,255.7,478.1C255.7,478.1,255.7,478.1,255.7,478.1z"/>
</g>
</svg>
