<?xml version="1.0" encoding="utf-8"?>
<!-- Generator: Adobe Illustrator 19.0.0, SVG Export Plug-In . SVG Version: 6.00 Build 0)  -->
<svg version="1.1" id="Calque_1" xmlns="http://www.w3.org/2000/svg" xmlns:xlink="http://www.w3.org/1999/xlink" x="0px" y="0px"
	 viewBox="0 0 612 792" style="enable-background:new 0 0 612 792;" xml:space="preserve">
<g>
	<path d="M585.5,193.3c-19.1-19.1-38.2-38.2-57.3-57.3c-7.3-7.3-11.7-7.3-19.1-0.3c-25.9,24.3-51.7,48.6-77.7,72.8
		c-3.6,3.3-5.1,7.1-5.1,11.9c0.1,18.7,0,37.3,0.1,56c0,2.4-0.1,4.5-1.9,6.4c-8.2,9.2-16.4,18.4-24.4,27.8c-1.7,2-3,2.2-5.4,1.1
		c-9.7-4.9-20-6.9-30.9-6.8c-21.8,0.1-43.7,0-65.5,0c0,0,0,0,0,0.1c-23,0-46-0.2-69,0.1c-33.1,0.4-60.1,25.3-63.5,58.2
		c-1.3,12.5-0.5,25-0.5,37.5c0,4.2-1.1,6.8-4.8,9.3c-14.1,9.4-21.6,21.9-21,39.8c0.9,26.1,0.2,52.3,0.2,78.5
		c0,8.6,3.5,12.1,12.1,12.1c1,0,2,0.2,3,0c4.7-0.9,5.5,1.3,5.3,5.5c-0.3,6.5-0.2,13-0.1,19.5c0.1,9.5,6.5,15.9,16.1,16
		c13.2,0.1,26.3,0.1,39.5,0c9.8-0.1,16.1-6.5,16.2-16.4c0.1-7,0.1-14,0-21c-0.1-2.8,0.8-3.7,3.6-3.6c7,0.2,14,0.1,21,0.1
		c34.7,0,69.3,0.1,104-0.1c3.8,0,4.8,1,4.6,4.7c-0.3,6.6-0.1,13.3-0.1,20c0.1,9.9,6.3,16.3,16.2,16.3c13.2,0.1,26.3,0.1,39.5,0
		c9.6-0.1,15.8-6.3,16.1-16c0.1-5.3,0.1-10.7,0-16c0-8.8,0-8.8,8.7-8.9c7.9-0.1,11.6-3.8,11.6-11.7c0-14.5,0-29,0-43.5
		c0-7.1-4.1-11.5-10.4-11.4c-6.1,0.1-9.9,4.4-9.9,11.3c-0.1,10.3-0.1,20.7,0,31c0,3-0.6,4-3.8,4c-24.8-0.1-49.7-0.1-74.5,0
		c-3.3,0-3.8-1.2-3.7-4c0.2-8.3,0.1-16.7,0-25c-0.1-8.2-3.8-12-11.9-12c-29.8,0-59.7,0-89.5,0c-7.4,0-11.4,3.9-11.4,11.4
		c-0.1,8.5-0.2,17,0.1,25.5c0.1,3.2-0.8,4.2-4.1,4.1c-24.5-0.1-49-0.2-73.5,0c-4,0-4.5-1.3-4.5-4.8c0.2-22,0.4-44-0.1-66
		c-0.2-8.2,2.9-14.1,8.4-19.4c3.1-3,6.5-5.8,10.4-7.7c5.3-2.6,7.3-6.8,7.2-12.5c-0.2-12.3,0-24.7-0.1-37c0-5.2,0.3-10.3,1.6-15.4
		c5.3-20.4,21.2-32,44.9-32.1c44.5-0.2,89-0.2,133.5,0c27.3,0.1,44.9,18,45.2,45.3c0.1,12.7,0.3,25.3-0.1,38
		c-0.2,6.9,2.4,11,8.3,14.5c8.8,5.2,16.7,11.6,18,23c0.5,4.7,5.6,7.6,10.5,7.3c4.9-0.3,8.8-4,9.3-8.9c0.2-2.6,0.1-5.3-0.5-7.9
		c-2.9-12.3-11.1-20.6-21.1-27.3c-2.8-1.9-3.9-3.9-3.8-7.3c0.2-10,0.1-20,0.1-30c-0.1-16.4-4.9-31.1-15.6-43.7
		c-1.9-2.3-1.3-3.4,0.4-5.2c7.6-8.4,15-16.9,22.4-25.6c1.8-2.1,3.7-2.9,6.4-2.9c16.7,0.1,33.3,0,50,0.1c4.8,0,8.6-1.4,12-4.9
		c26.1-26.2,52.3-52.4,78.4-78.5C592,204.8,592,199.8,585.5,193.3z M385.4,543.1c0-2.1,0.8-2.9,2.9-2.9c8.3,0.1,16.6,0.1,25,0
		c2.2,0,2.9,0.8,2.8,2.9c-0.1,5-0.1,10,0,15c0,2.1-0.6,2.9-2.8,2.9c-4.2-0.2-8.3,0-12.5,0c0,0,0,0,0,0c-4.2,0-8.3-0.1-12.5,0
		c-2.1,0.1-3-0.6-2.9-2.8C385.5,553.1,385.5,548.1,385.4,543.1z M262.6,515.7c0.3-4.3,0.2-8.6,0-13c-0.1-2.5,0.5-3.5,3.3-3.5
		c21.6,0.1,43.2,0.1,64.8,0c2.5,0,3.6,0.6,3.5,3.3c-0.2,4.6-0.3,9.3,0,14c0.2,3.1-1.2,3.5-3.8,3.4c-10.6-0.1-21.3-0.1-31.9,0
		c-10.5,0-21-0.1-31.4,0.1C263.8,520,262.3,519.4,262.6,515.7z M180.7,557.2c0.3-4.6,0.2-9.3,0-13.9c-0.1-2.4,0.8-3.2,3.2-3.1
		c4.1,0.2,8.3,0,12.5,0c0,0.1,0,0.3,0,0.4c4.8,0,11.2-1.9,13.9,0.5c3.2,2.8,0.5,9.4,1.1,14.2c0.6,4.8-1.4,5.8-5.7,5.6
		c-7-0.3-13.9-0.2-20.9,0C181.8,561,180.5,560.5,180.7,557.2z M562.8,205.3c-22.2,22-44.4,44.2-66.5,66.3c-1.6,1.6-3.2,2.5-5.6,2.5
		c-13.3-0.1-26.6-0.2-40,0c-3.1,0-3.9-0.8-3.8-3.9c0.2-7.5,0.1-15,0.1-22.5c0-7.3,0.1-14.7,0-22c0-2.5,0.6-4.3,2.5-6.1
		c22.2-20.6,44.4-41.3,66.4-62.1c2.4-2.2,3.4-1.7,5.4,0.3c13.8,14,27.7,27.9,41.7,41.7C565.3,201.9,565,203.1,562.8,205.3z"/>
	<path d="M395.7,371.1c-0.5-12-6.2-20.8-17.2-26c-7.4-3.5-15.3-4.4-23.3-4.4c-19,0-38,0-57,0c-18.7,0-37.3,0-56,0
		c-5,0-10,0.3-14.9,1.3c-15.5,3.2-25.9,14.2-26.3,28.4c-0.3,10.3-0.2,20.6,0,31c0.1,7.7,6.1,12.6,13.4,10.4c20.3-6,41-8.6,62-9.3
		c35.5-1.1,70.9-0.9,105.5,9.2c7.6,2.2,13.6-2.5,13.7-10.6C395.9,391.1,396.1,381.1,395.7,371.1z M375.2,386.2
		c0.2,3-1.1,3.3-3.5,2.7c-36.4-8.3-73.3-8.4-110.3-5.7c-11.8,0.9-23.5,2.7-35,5.4c-3.5,0.8-5.2,0.8-4.9-3.6c0.4-4.3,0.3-8.7,0-13
		c-0.3-4.6,2.1-7.2,6-8.7c4.7-1.8,9.7-2.3,14.7-2.3c18.6,0,37.3,0,55.9,0c18.8,0,37.6,0,56.4,0c4.9,0,9.7,0.6,14.2,2.2
		c4.1,1.4,6.6,4.1,6.2,9C374.9,376.8,375,381.5,375.2,386.2z"/>
	<path d="M201,427.8c-16.9,0.1-30.8,14.1-30.6,30.9c0.2,16.7,14,30.5,30.6,30.4c17.2,0,31.1-14.1,30.9-31.2
		C231.7,441.3,217.8,427.7,201,427.8z M201.3,468.6c-5.8,0.1-10.5-4.5-10.4-10.4c0.1-5.7,4.5-10.1,10.2-10.1c5.7,0,10,4.4,10.1,10.2
		C211.3,464.1,207.1,468.5,201.3,468.6z"/>
	<path d="M395.9,427.8c-17.1-0.1-30.9,13.5-30.9,30.5c0,16.9,13.7,30.7,30.7,30.7c16.7,0,30.5-13.6,30.6-30.3
		C426.4,441.6,412.9,427.8,395.9,427.8z M395.7,468.7c-5.8,0-10.4-4.7-10.2-10.5c0.1-5.6,4.6-10,10.2-10c5.7,0,10.4,4.8,10.3,10.5
		C405.8,464.2,401.2,468.7,395.7,468.7z"/>
</g>
</svg>
