<?xml version="1.0" encoding="utf-8"?>
<!-- Generator: Adobe Illustrator 19.0.0, SVG Export Plug-In . SVG Version: 6.00 Build 0)  -->
<svg version="1.1" id="Calque_1" xmlns="http://www.w3.org/2000/svg" xmlns:xlink="http://www.w3.org/1999/xlink" x="0px" y="0px"
	 viewBox="0 0 612 792" style="enable-background:new 0 0 612 792;" xml:space="preserve">
<style type="text/css">
	.st0{fill:#F5CD32;}
</style>
<g>
	<path class="st0" d="M298,636.1C158.7,636.2,46,523.4,45.8,383.8c-0.2-139.5,113.1-253,252.5-252.6
		c139.5,0.4,252.3,112.2,252.3,252.4C550.7,525.6,435.4,636.5,298,636.1z"/>
	<path d="M275.5,303.9c30,0,60,0,90,0c18.7,0,29.7,11.1,29.7,29.8c0,8.4,0,8.4,8.4,8.3c7.3-0.1,14.7-0.2,22-0.3
		c7.3-0.1,10.6,2.3,12.8,9.3c6.5,20.8,13,41.5,19.3,62.4c0.9,3.1,2.2,4.3,5.5,4.1c7.7-0.3,15.3-0.4,23-0.3c2.9,0,4.5-0.4,3.9-3.8
		c-0.1-0.8-0.2-1.8,0.2-2.5c4.3-6.9,11.2-3.1,16.9-3.8c3.7-0.4,5.5,2.4,5.6,6.2c0.1,14.7,0.3,29.3,0.5,44c0.1,3.7-1.7,5.6-5.3,5.8
		c-3.7,0.2-7.3,0.3-11,0.3c-4,0-6.5-1.7-6.2-6c0.3-3.4-1.3-3.7-4.1-3.7c-14.7,0.3-29.3,0.4-44,0.5c-9.1,0.1-11.2-1.6-13.9-10.3
		c-6.3-20.6-12.7-41.3-19.2-61.9c-0.5-1.6-0.2-4-2.9-4c-3.6,0.1-7.4-0.9-10.8,0.5c-1.3,0.5-0.6,2.8-0.6,4.2c0,17,0,34,0,51
		c0,18.4-11.1,29.6-29.5,29.7c-60.3,0.1-120.6,0.1-180.9,0c-18,0-29.3-11.4-29.4-29.4c0-4.5-0.1-9,0-13.5c0.1-2.5-0.6-3.5-3.3-3.6
		c-15.9-0.1-31.5,0.5-45.7,9.4c-7.3,4.6-12.4,2.5-16.2-5.2c-1.8-3.6-3.4-7.2-5.1-10.8c-3.6-7.7-1.9-12.4,5.6-16.3
		c18.3-9.6,37.7-13.5,58.3-13c6.5,0.2,6.5-0.1,6.5-6.7c0-13.5,0-27,0-40.5c0.1-19,11.2-30.1,30.1-30.1
		C215.5,303.9,245.5,303.9,275.5,303.9z"/>
</g>
</svg>
