<?xml version="1.0" encoding="utf-8"?>
<!-- Generator: Adobe Illustrator 19.0.0, SVG Export Plug-In . SVG Version: 6.00 Build 0)  -->
<svg version="1.1" id="Calque_1" xmlns="http://www.w3.org/2000/svg" xmlns:xlink="http://www.w3.org/1999/xlink" x="0px" y="0px"
	 viewBox="0 0 612 792" style="enable-background:new 0 0 612 792;" xml:space="preserve">
<g>
	<path d="M549.5,448.4c-5-29.5-17.2-56.4-31.2-82.5c-3.5-6.5-11.4-6.1-15,0.6c-10.3,19.2-19.4,38.9-25.7,59.8
		c-4.1,13.6-7.2,27.4-6.5,41.7c0.9,19,10.4,31.4,27.1,35.6c5.9,1.5,11.9,1.8,17.9,1.3c16.6-1.3,28.5-10.3,32.7-24.8
		c1.5-5.3,2.3-10.7,2.1-16.5C551.2,458.6,550.4,453.4,549.5,448.4z M534,473.3c-1.7,8.1-6.4,13.3-14.8,14.8
		c-1.3,0.2-2.6,0.6-3.9,0.7c-19.4,2.1-28.7-6.2-28.3-25.7c0.5-18.7,6.8-36.1,13.5-53.3c3-7.7,6.5-15.1,10.4-23.8
		c10.9,23.4,20.3,45.7,23.5,70C535.2,461.7,535.3,467.5,534,473.3z"/>
	<path d="M199.1,249c-23.3,0-46.7,0-70,0c-7.5,0-10.2-2.7-10.2-10.2c0-30.7,0-61.3,0-92c0-6.8,2.9-9.8,9.7-9.8
		c46.8,0,93.6,0,140.5,0c7.1,0,9.9,2.9,9.9,10c0,30.7,0,61.3,0,92c0,7.2-2.7,10-9.9,10C245.8,249,222.5,249,199.1,249z"/>
	<path d="M216.5,393c-16.4,0-31.9-0.1-47.4,0c-3.7,0-7-0.6-9-4c-2.1-3.5-1-6.6,1-9.8c12.4-19.7,24.7-39.4,36.9-59.2
		c1.8-2.9,3.1-3,5.6-1.1c3.1,2.4,8.7,3.5,9.3,6.8c0.5,2.8-3.4,6.4-5.4,9.7c-8.4,13.5-16.9,27.1-25.3,40.6c-0.1,0.1,0,0.3,0.1,1
		c3,0,6,0,9.1,0c12.8,0,25.6-0.1,38.5,0c7.9,0.1,11.6,6.2,7.5,12.9c-12.6,20.3-25.4,40.6-38,60.9c-1.3,2.1-2.3,2.2-4.2,0.9
		c-3.4-2.4-8.7-3.9-9.9-7c-1.2-3.2,3.4-6.9,5.5-10.4C199.2,420.7,207.7,407.2,216.5,393z"/>
	<path d="M199,265c22.7,0,45.3,0.1,68-0.1c3.2,0,4.1,0.8,4.1,4.1c0,12.1,0.1,12-12.1,12c-42.3,0-84.7-0.1-127,0.1
		c-4.1,0-5.3-0.9-5.1-5.1c0.4-11,0.1-11,11.1-11C158.3,265,178.7,265,199,265z"/>
	<path d="M544.6,272.8c-14.8-7.2-29.5-14.6-44.2-22c-2.5-1.2-4.9-1.9-7.6-1.8c-11.3,0.1-22.7,0-34,0.1c-2.5,0-3.8-0.4-4.6-3
		c-1-3.3-3.8-5.1-7.3-5c-10.3,0.2-20.6-0.5-30.9,0.8c-36,4.6-68.1,36.1-71.9,72.2c-2.8,26.4-0.6,52.9-1,79.4
		c-0.1,4.4,3.3,7.2,7.8,7.5c1.3,0.1,2.7,0.2,4,0c3-0.4,4.4,0.4,4.2,3.9c-0.3,6.6-0.1,13.3-0.1,20c-0.2,26.4-17.8,48.5-43.4,54.7
		c-3.8,0.9-4.7,0.2-4.7-3.8c0.1-120,0.1-240,0.1-360c0-8.2-2.5-10.8-10.6-10.8c-67.2,0-134.3,0-201.5,0C89,105,87,107.1,87,117
		c0,68.8,0,137.7,0,206.5c0,69.2-0.1,138.3,0.1,207.5c0,5-1.1,6.5-6.2,6.1c-7.2-0.5-9.9,2.7-10,9.8c0,9,0,18,0,27
		c0,8.6,2.5,11.1,10.9,11.1c31.2,0,62.3,0,93.5,0c47.2,0,94.3,0,141.5,0c7.4,0,10.2-2.8,10.2-10.3c0-9.7,0.1-19.3,0-29
		c-0.1-5.6-3.1-8.5-8.7-8.7c-1.3,0-2.7-0.1-4,0c-2.5,0.3-3.4-0.5-3.4-3.2c0.2-11.3,0.2-22.7,0-34c0-2.9,1.1-3.5,3.7-3.9
		c28.5-4.5,51.8-26.5,58.5-54.6c2.8-11.9,1.7-23.9,1.8-35.8c0-3.7,0.8-4.7,4.6-4.6c21.5,0.2,43,0.1,64.5,0.1c8.6,0,11-2.4,11-10.9
		c0-29.7,0-59.3-0.1-89c0-3.1,0.5-4.3,4-4.2c10.3,0.3,20.7,0.1,31,0.1c2.2,0,4.2,0.5,6.2,1.5c13.9,7,27.9,14,41.9,21
		c7.5,3.7,13,0.3,13-8c0-9.3-0.2-18.7,0.1-28C551.2,278.3,549.3,275.1,544.6,272.8z M108,120.9c60.7,0.2,121.3,0.2,182,0
		c4.2,0,5.1,1,5.1,5.1c-0.1,67.8-0.1,135.7-0.1,203.5c0,0,0,0,0,0c0,67.5,0,135,0.1,202.5c0,4.1-0.9,5.1-5.1,5.1
		c-60.7-0.2-121.3-0.2-182,0c-4.1,0-5.1-0.9-5.1-5.1c0.1-135.3,0.1-270.7,0-406C102.9,121.9,103.8,120.9,108,120.9z M311.1,558.5
		C310.8,569,311,569,300.5,569c-33.8,0-67.6,0-101.5,0c-35.8,0-71.6-0.1-107.5,0.1c-3.7,0-4.7-0.9-4.6-4.6
		c0.2-11.5,0-11.5,11.7-11.5c69,0,138,0.1,206.9-0.1C310.1,552.9,311.2,554.1,311.1,558.5z M393.5,385c-1.9,0-2.6-0.5-2.6-2.5
		c0.1-13.8,0.1-27.6,0-41.4c0-1.4,0.5-2.6,1.3-3.7c3.2-4.8,6.5-9.6,9.7-14.5c1-1.6,2.3-2.4,4.1-1.9c1.9,0.5,1,2.2,1,3.3
		c0.1,10.1,0.3,20.3,0,30.4c-0.2,5.5,0.8,10.4,3.6,15.2c2.6,4.6,4.8,9.4,7.5,15C409.4,385,401.5,385,393.5,385z M401.2,304.9
		c-4.5-0.1-7.6,1.4-10,5.2c-5.1,8.1-12.1,15.6-15.3,24.4c-3.1,8.7-0.7,18.8-0.9,28.3c-0.1,6.3-0.2,12.7,0,19
		c0.1,2.7-0.8,3.2-3.3,3.3c-12.7,0.3-12.7,0.3-12.7-12.4c0-7.2,0-14.3,0-23.5c0.6-9.9-0.8-21.9,0.9-33.9
		c4.5-31.2,32.9-56.9,64.4-58.2c3.8-0.2,7.7,0.1,11.5-0.2c2.8-0.2,3.3,0.9,3.2,3.4c-0.1,13.8-0.1,27.6,0,41.5c0,2.7-0.9,3.3-3.4,3.3
		C424.2,304.9,412.7,305.1,401.2,304.9z M438,384.9c-1.5,0.4-2.4-0.4-3.1-1.8c-3.7-7.6-7.5-15.2-11.3-22.8c-0.4-0.7-0.7-1.6-0.7-2.3
		c0-11.5,0-23-0.1-34.5c0-1.9,0.6-2.4,2.5-2.6c13.5-1.1,13.5-1.2,13.5,12.1c0,6.8,0,13.7,0,20.5c0,9.5,0,19,0,28.5
		C439,383,439.7,384.5,438,384.9z M535,290.1c-0.3,3.1-0.1,6.2-0.1,10c-11.3-5.6-22.1-10.9-32.8-16.4c-3.5-1.8-7-2.7-10.9-2.7
		c-10.8,0.2-21.6,0-32.4,0.1c-2.9,0-3.9-0.5-3.9-3.7c0-12.4-0.1-11.6,12.2-12.5c18-1.4,34.4,2.1,49.6,11.9c4.6,3,9.7,5.1,14.7,7.3
		C534.3,285.3,535.3,287,535,290.1z"/>
</g>
</svg>
