<?xml version="1.0" encoding="utf-8"?>
<!-- Generator: Adobe Illustrator 19.0.0, SVG Export Plug-In . SVG Version: 6.00 Build 0)  -->
<svg version="1.1" id="Calque_1" xmlns="http://www.w3.org/2000/svg" xmlns:xlink="http://www.w3.org/1999/xlink" x="0px" y="0px"
	 viewBox="0 0 612 792" style="enable-background:new 0 0 612 792;" xml:space="preserve">
<style type="text/css">
	.st0{fill:#DFDFD0;}
	.st1{fill:#E8E8DE;}
	.st2{fill:#F2F2ED;}
	.st3{fill:#E9E9DF;}
	.st4{fill:#F4F4F0;}
	.st5{fill:#F2F2EC;}
	.st6{fill:#C65C5C;}
	.st7{fill:#BAB9AD;}
	.st8{fill:#4F5D73;}
	.st9{fill:#B9B8AD;}
</style>
<g>
	<path class="st0" d="M305,147c5.3,0,10.7,0,16,0c2.3,1.1,4.7,0.3,7.1,0.5c1.8,0,3.7,0,5.5,0c29.4-0.1,56.9,8.1,83.5,19.7
		c23.4,10.2,44.7,23.7,64,40.4c23.7,20.6,43.4,44.6,58.4,72.3c13.5,25,23,51.3,27.5,79.4c1.2,7.5,1.5,15.2,1.6,22.9
		c0,1.6,0,3.1,0,4.7c0.3,2-0.6,4.2,0.5,6.1c0,6.7,0,13.3,0,20c-1.1,2-0.2,4.1-0.5,6.1c0,1.6,0,3.1,0,4.7c0.1,29.2-8,56.5-19.5,82.9
		c-10.3,23.5-23.6,45.1-40.6,64.4c-23,26.2-49.7,47.5-81.1,62.9c-22.6,11.1-46.1,19.1-71,23c-7.7,1.2-15.5,1.5-23.3,1.5
		c-1.6,0-3.1,0-4.6,0c-1.7,0.2-3.6-0.5-5.3,0.5c-6.7,0-13.3,0-20,0c-2-1.1-4.1-0.2-6.1-0.5c-1.6,0-3.1,0-4.7,0
		c-29.2,0.1-56.6-8-83-19.5c-23.5-10.2-45-23.8-64.4-40.7c-23.7-20.7-43.3-44.6-58.3-72.3c-13.5-25-23-51.3-27.5-79.4
		c-1.2-7.5-1.5-15.2-1.5-22.9c0-1.9,0-3.7,0-5.6c-0.2-2.4,0.6-4.8-0.5-7.1c0-5.3,0-10.7,0-16c1.1-2.3,0.3-4.7,0.5-7.1
		c0-1.9,0-3.7,0-5.5c-0.2-29,7.9-56.2,19.2-82.5c10-23.4,23.5-44.7,40.1-64.1c20.2-23.4,43.6-42.9,70.6-58
		c25.7-14.3,52.9-24.2,82-28.8c7.5-1.2,15.2-1.5,22.8-1.5c1.9,0,3.7,0,5.6,0C300.2,147.3,302.7,148.1,305,147z"/>
	<path class="st1" d="M305,147c-2.1,1.8-4.7,0.7-7,1c-0.6-0.3-0.6-0.7,0-1C300.3,147,302.7,147,305,147z"/>
	<path class="st1" d="M328,148c-2.3-0.3-4.9,0.8-7-1c2.3,0,4.7,0,7,0C328.6,147.3,328.6,147.6,328,148z"/>
	<path class="st1" d="M58,388c-0.3,2.3,0.8,4.9-1,7c0-2.3,0-4.7,0-7C57.3,387.4,57.6,387.4,58,388z"/>
	<path class="st1" d="M57,411c1.8,2.1,0.7,4.7,1,7c-0.3,0.6-0.7,0.6-1,0C57,415.7,57,413.3,57,411z"/>
	<path class="st2" d="M298,147c0,0.3,0,0.7,0,1c-2,0-4,0-6,0c0-0.3,0-0.6,0-1C294,147,296,147,298,147z"/>
	<path class="st2" d="M328,148c0-0.3,0-0.7,0-1c2,0,4,0,6,0c0,0.3,0,0.6,0,1C332,148,330,148,328,148z"/>
	<path class="st2" d="M58,388c-0.3,0-0.7,0-1,0c0-2,0-4,0-6c0.3,0,0.6,0,1,0C58,384,58,386,58,388z"/>
	<path class="st3" d="M569,393c-1.7-1.8-0.8-4-1-6c0.3-0.6,0.7-0.6,1,0C569,389,569,391,569,393z"/>
	<path class="st3" d="M568,419c0.2-2-0.7-4.2,1-6c0,2,0,4,0,6C568.7,419.6,568.3,419.6,568,419z"/>
	<path class="st2" d="M57,418c0.3,0,0.7,0,1,0c0,2,0,4,0,6c-0.3,0-0.6,0-1,0C57,422,57,420,57,418z"/>
	<path class="st3" d="M297,658c2,0.2,4.2-0.7,6,1c-2,0-4,0-6,0C296.4,658.7,296.4,658.3,297,658z"/>
	<path class="st4" d="M569,387c-0.3,0-0.7,0-1,0c0-1.7,0-3.3,0-5c0.3,0,0.7,0,1,0C569,383.7,569,385.3,569,387z"/>
	<path class="st4" d="M568,419c0.3,0,0.7,0,1,0c0,1.7,0,3.3,0,5c-0.3,0-0.7,0-1,0C568,422.3,568,420.7,568,419z"/>
	<path class="st4" d="M297,658c0,0.3,0,0.7,0,1c-1.7,0-3.3,0-5,0c0-0.3,0-0.7,0-1C293.7,658,295.3,658,297,658z"/>
	<path class="st3" d="M323,659c1.4-1.5,3.3-0.8,5-1c0.6,0.3,0.6,0.7,0,1C326.3,659,324.7,659,323,659z"/>
	<path class="st5" d="M328,659c0-0.3,0-0.7,0-1c1.7,0,3.3,0,5,0c0,0.3,0,0.7,0,1C331.3,659,329.7,659,328,659z"/>
	<path class="st6" d="M185.1,521.9c0-49.4-0.1-98.7-0.2-148.1c0-2.4,0.9-4,2.5-5.6c3.3-3.2,6.5-6.6,9.7-10c0.8-2.5,2.2-4.5,4.2-6.2
		c23.9-24,47.9-48,71.9-71.9c1.6-1.6,3.1-3.6,5.7-3.7c5.1-5,10.3-9.9,15.3-15c1.6-1.7,3.3-2.4,5.7-2.4c36.1,0.1,72.3,0.1,108.4,0
		c4.9,0,9.1,2,13.1,4.5c19.2,12,34.9,27.7,47,46.9c3.2,5,4.6,10.5,4.6,16.6c-0.1,62.5-0.1,124.9-0.1,187.4c0,2.5-0.1,5-0.2,7.5
		c-2.8,17-14.6,27.2-32,27.2c-74.6,0.1-149.2,0-223.7,0c-4.6,0-9-0.5-13.2-2.4C193.4,541.7,185.9,534.4,185.1,521.9z"/>
	<path class="st7" d="M185.1,521.9c4,12.6,11.7,21.5,25,24.6c2.2,0.5,4.6,0.5,6.9,0.5c74.1,0,148.2-0.2,222.4,0.2
		c15.7,0.1,29.2-10.2,32.6-23.6c0.2-0.6,0.5-1.2,0.8-1.8c0.3,7.5,0.6,14.9-2.6,22c-6.1,13.1-16.6,19.1-30.6,19.1
		c-73.7,0.1-147.5,0-221.2,0c-19.9,0-33.4-13.6-33.4-33.6C185,526.9,185.1,524.4,185.1,521.9z"/>
	<path class="st8" d="M278.9,276.4c-2.2,2.3-4.3,4.7-6.5,6.9c-21.9,21.9-43.8,43.8-65.7,65.7c-1.4,1.4-2.9,2.7-4.4,4
		c-4.2-0.7-3.1-4.5-4.3-7c-3.1-9.6,0.5-17.2,7.1-23.9c0-2.5,1.8-3.9,3.4-5.3c3-2.7,2.2-4.5-0.7-6.6c-10.6-7.8-22.6-12.5-35.1-16
		c-3.7-1-7.5-1.5-11-3.2c-2.9-1.5-6-3-6.4-7c-4.4-12-0.9-21.2,9.2-24.3c3-0.9,5.9-0.8,8.8-0.1c22.5,5.2,43.3,13.8,61,29.1
		c2,1.7,3.2,1.6,4.9-0.3c3.1-3.3,6.3-6.4,9.5-9.5C258.6,269.1,267.5,268.3,278.9,276.4z"/>
	<path class="st7" d="M155.3,283.9c3.6,4.2,8.3,6.3,13.6,7.6c14.9,3.4,28.8,9.2,41.3,18.2c3.7,2.6,4.2,4.5,0.4,7.3
		c-2,1.5-3.7,3.3-5.5,5c-12.6-7.2-25.9-12.2-40-15.7C154.4,303.8,149.9,292.6,155.3,283.9z"/>
	<path class="st9" d="M198.1,345.9c1.4,2.3,2.9,4.7,4.3,7c-1.7,1.7-3.4,3.5-5.2,5.2C196.3,354,198.2,350,198.1,345.9z"/>
	<path class="st7" d="M386,307.9c-5-4.9-10-9.7-14.9-14.6c-0.4-0.4-0.8-1-1.7-2.2c12.2,0,23.7-0.3,35.2,0.1c4,0.1,7,3.7,10,6.3
		c8.3,7.2,16.1,14.8,22.9,23.5c2.5,3.3,4.1,6.7,3.6,11c-0.3,3.3-0.1,6.6-0.2,10c-2.9,0.1-3.7-2.4-5.1-4.2
		c-7.3-9.1-15.6-17.2-24.5-24.8c-3.9-3.3-8.3-4.7-13.4-4.4C393.9,308.9,389.9,308.9,386,307.9z"/>
	<path class="st0" d="M386,307.9c11.1-2.1,21.6-2.2,30.3,6.8c8.5,8.8,17.9,16.8,24.6,27.3c0,6.4,0,12.9,0,20.8
		C422,343.9,404,325.9,386,307.9z"/>
</g>
</svg>
