<?xml version="1.0" encoding="utf-8"?>
<!-- Generator: Adobe Illustrator 19.0.0, SVG Export Plug-In . SVG Version: 6.00 Build 0)  -->
<svg version="1.1" id="Calque_1" xmlns="http://www.w3.org/2000/svg" xmlns:xlink="http://www.w3.org/1999/xlink" x="0px" y="0px"
	 viewBox="0 0 612 792" style="enable-background:new 0 0 612 792;" xml:space="preserve">
<style type="text/css">
	.st0{fill:#018BC8;}
	.st1{fill:#006285;}
	.st2{fill:#981727;}
	.st3{fill:#010102;}
	.st4{fill:#DFDFDF;}
	.st5{fill:#BD1E2D;}
	.st6{fill:#006184;}
</style>
<g>
	<path class="st0" d="M335,619.8c-55.7,5-107.3-7.1-154-37.9c-57.3-37.8-93.4-90.7-104.9-158.5C61.6,338.3,86.5,265,148.8,205.3
		c37.3-35.7,82.4-56.3,133.8-62.3c67.1-7.9,127.5,9.3,180.1,51.5c43,34.5,70.6,79.2,83.1,132.9c9.6,41.6,7.9,82.9-4.4,123.8
		c-0.5,1.6-1.1,3.1-1.6,4.7c-1.4,0.5-2.2-0.4-3-1.2c-41.8-43.2-84.9-85.2-127.3-127.9c-7.4-7.4-14.6-15.1-22.4-22.1
		c-5.3-6-12-10-19.5-12.4c-3.9-1.2-7.4-2.8-10.4-5.7c-2.8-2.8-6.4-4.1-10.4-4.3c-4-3.5-7.6-7.6-12.2-10.5c-2.6-1.5-5.5-1.2-8.3-1.2
		c-32,0-64,0-96,0c-8.2,0-8.8,0.6-8.8,8.8c0,61.5,0,123,0,184.4c0,3,0.2,6-0.5,8.9c-0.8,2.4-2.7,3.1-5,3.4
		c-8.6,1.2-10.6,4.3-8.4,12.7c0.3,1,0.8,1.8,1.4,2.6c1.7,2.3,3.8,4.2,5.8,6.2c38.7,38.7,77.4,77.4,116,116.1
		C332.7,615.6,335.2,616.8,335,619.8z"/>
	<path class="st1" d="M387.9,304.1c5.6,4.2,10.1,9.6,15.1,14.5c43.2,43.1,86.3,86.2,129.4,129.4c2.6,2.6,5,5.3,7.5,7.9
		c-5.2,18.2-13.3,35-23.3,50.9c-37.1,58.6-89.6,95.2-157.4,109.8c-7.9,1.7-15.9,3.3-24.1,3.3c-21.2-21.4-42.5-42.7-63.7-64
		c-19.7-19.8-39.5-39.6-59.3-59.3c-1.1-1.1-2-2.2-3-3.3c2.5-2.4,5.6-1.7,8.5-1.7c38.1-0.1,76.1,0,114.2,0c1.7,0,3.3,0,5,0
		c8.1-0.1,10.2-2.7,8.5-10.9c-0.4-2-1.3-3.3-3.4-3.7c-1.8-0.3-3.7-0.4-5.1-1.7c-1.5-2.2-1.2-4.8-1.3-7.2c0-38.5,0-77.1,0-115.6
		c0-2-0.1-4,0.6-5.9c1.9-3.3,4.4-1.4,6.4-0.4c8.8,4.4,12.6,12.1,12.9,21.6c0.3,8.8,0.1,17.7,0.1,26.5c0,19,0.7,38-0.2,57
		c-0.8,19.1,21.6,29.8,35,25.9c6.8-2,11.2-7.1,15.1-12.5c15-20.4,13.7-41.2,1.1-62.1c-3.5-5.9-6.9-11.8-11.2-17.2
		c-10.9-13.8-16.4-29.6-18.9-46.7c-1-5.3,0.5-9.7,4.4-13.4c5.4-5.3,8.3-11.4,6.7-19.1C387.2,305.2,387.5,304.6,387.9,304.1z"/>
	<path class="st1" d="M337.3,340.3c0-22.8-0.1-45.6-0.1-68.4c3.4,3.3,7.8,5.6,9.8,10.2c18.3,10.3,22.1,28.8,26.2,47
		c0.7,3.1,1.1,6.2,1.8,9.3c1.9,17.5,7.9,33.2,18.6,47.3c6.2,8.1,11.4,16.9,15.7,26.1c10.2,21.6,4.7,41.7-11.4,58.1
		c-7.2,7.3-16.3,7-25.1,3.2c-8.9-3.9-15.3-9.9-15.3-20.7c0-27.5,0.1-55,0-82.5c-0.1-12.5-4.7-22.4-17.2-27.2
		C339.1,342.2,338,341.6,337.3,340.3z"/>
	<path class="st2" d="M219.8,473.8c0.9,1.3,2.3,1.2,3.6,1.2c38,0,76-0.1,113.9-0.1c1.8,0,3.7-0.1,5.5,0.1c2.5,0.2,4.1,1.7,4.1,4.2
		c0.2,13.9,1.5,14.1-11.8,14.1c-42-0.2-84.1-0.1-126.1-0.1c-2.9-3-4.2-13-2.1-16.2c1.3-1.9,3.2-2,5.2-2.2
		C214.7,474.5,217.4,475.6,219.8,473.8z"/>
	<path class="st3" d="M373.8,338c-2.4-9.2-3.6-18.8-6.9-27.8c-2.2-6.1-4.8-12-8.7-17.2c-2.2-2.9-4.7-5.7-8.4-6.8
		c-2.1-0.7-3-1.9-2.8-4c4.3-2.3,7.5,0.5,10.1,3c3.1,3,6.7,4.6,10.6,5.9c7.7,2.7,15,6.3,20.1,13c2.6,6.6,1.4,12.5-2.9,18
		c-3.7,4.7-9.1,8.5-7.9,15.7C376.1,339,375,338.8,373.8,338z"/>
	<path class="st4" d="M373.8,338c1.1-0.1,2.2-0.2,3.3-0.3c2,4.3,2.2,8.9,3.1,13.4c2.7,12.7,9.2,23.4,16.6,33.8
		c5.8,8.1,11.2,16.5,15.5,25.6c10.3,21.8,4.9,47.5-13.4,63.2c-6.6,5.7-14.4,6.5-22.6,4.4c-14.9-3.8-22.3-13.5-22.3-28.7
		c0-26.5,0-53,0-79.5c0-13.2-4.8-20-16.8-24.8c0-1.6,0-3.2,0.1-4.8c14.2,4.1,21.6,13.6,21.7,28.5c0.1,27.8,0.1,55.6,0.1,83.4
		c0,9.4,5.3,16.2,15.6,20.2c9.5,3.7,17.3,2.1,23.7-4.7c16.6-17.6,19.2-38.9,7.5-60.1c-5.3-9.5-11.4-18.4-17.5-27.3
		C379.5,367.6,374.9,353.4,373.8,338z"/>
	<path class="st5" d="M338.6,279.2c0-2.5-0.4-5-1.4-7.3c-1.5-3.1-4.3-3.2-7.2-3.2c-34.1,0-68.3,0-102.4,0c-7.2,0-7.9,0.7-7.9,8.1
		c0,32.1,0,64.3,0,96.4c0,33.5,0.1,67,0.1,100.4c1,3.6,4.1,2.8,6.6,2.8c34.8,0.1,69.6,0.1,104.5,0c2.3,0,4.7,0.2,6.5-1.8
		c0-43.3-0.1-86.5-0.1-129.8c1.5-1.6,1-3.7,1.3-5.6C338.7,319.4,338.6,299.3,338.6,279.2z M320,337.7c0,3.5-0.7,4.9-4.6,4.9
		c-24-0.2-48-0.2-72,0c-3.6,0-4.4-1.2-4.4-4.6c0.1-16,0.1-32,0-48c0-3,0.7-4,3.9-4c12.2,0.2,24.3,0.1,36.5,0.1c0,0,0,0,0,0
		c12.2,0,24.3,0.1,36.5-0.1c3.3-0.1,4.1,1,4.1,4.2C319.9,306,319.8,321.8,320,337.7z"/>
	<path class="st6" d="M375.4,322.3c-2-8.4-4.6-15.5-7.8-23.4c6.3,2.5,12.2,4.5,14.2,10.4C383.5,314.6,379.2,318.1,375.4,322.3z"/>
</g>
</svg>
