<?xml version="1.0" encoding="utf-8"?>
<!-- Generator: Adobe Illustrator 19.0.0, SVG Export Plug-In . SVG Version: 6.00 Build 0)  -->
<svg version="1.1" id="Calque_1" xmlns="http://www.w3.org/2000/svg" xmlns:xlink="http://www.w3.org/1999/xlink" x="0px" y="0px"
	 viewBox="0 0 612 792" style="enable-background:new 0 0 612 792;" xml:space="preserve">
<style type="text/css">
	.st0{fill:#F24336;}
	.st1{fill:#D12F2F;}
	.st2{fill:#E37272;}
	.st3{fill:#273238;}
	.st4{fill:#EAEDEF;}
	.st5{fill:#69575B;}
	.st6{fill:#263238;}
	.st7{fill:#FDC008;}
</style>
<g>
	<path class="st0" d="M152,203c3.6-1.8,6.3-4.8,9.5-7.2c15.1-10.8,32.2-16.5,50.1-20.1c52.6-10.6,104.9-10.2,156.5,5.4
		c13.1,4,25.4,9.8,35.8,19.2c1.2,1.1,2.7,1.8,4.1,2.7c6.8,6.7,9.7,14.9,9.7,24.4c0,132.3,0,264.6,0,396.9c0,2.6,0.5,5.4-1.6,7.6
		c-31.9,0.1-63.9,0.2-95.8,0.2c-57.4,0-114.8,0-172.2,0c-1.3,0-2.7-0.1-4-0.2c-2.2-2.4-1.6-5.3-1.6-8.1c0-32,0-64,0-96
		c0-99.6,0-199.3-0.1-298.9C142.3,218.8,144.7,210,152,203z"/>
	<path class="st1" d="M416,631.8c0-133.9-0.1-267.8,0.1-401.7c0-9-1.7-17-7.1-24.3c-0.5-0.7-2.2-1.4-1-2.9
		c10.2,3.4,19.5,8.4,27.8,15.3c9.1,7.5,13.2,17.3,12.4,29.1c2.8,9.2,1,18.6,1.4,27.9c0.2,22.9,0.1,45.9-0.1,68.8
		c0.2,22.7,0.3,45.3,0.1,68c0,19.7,0.2,39.3,0,59c0.2,16.7,0.1,33.3,0,50c-0.1,12.6,0.2,25.1-0.1,37.7c-0.2,5.6,0.8,11.2-0.8,16.8
		c-1.3,1.8-0.6,3.9-0.7,5.8c-0.1,11.3,0,22.7-0.1,34c-0.1,10.2-6.7,16.8-17,16.8C426,632,421,631.9,416,631.8z"/>
	<path class="st1" d="M152,203c0.5,2.4-1.6,3.7-2.7,5.4c-3.7,5.4-5.3,11.3-5.3,17.8c0,135.2,0,270.5,0,405.7c-5,0.1-10,0.2-15,0.2
		c-10.5-0.1-17-6.7-17-17.3c0-58.5,0-117,0-175.4c0-64.8,0.1-129.6-0.1-194.4c0-10.3,3.5-18.5,10.9-25.2
		C131.2,211.9,141.1,206.5,152,203z"/>
	<path class="st2" d="M467,273.3c7.1-2.6,8.7-2.1,12.9,4c7.4,10.7,14.9,21.3,22.2,32c1.2,1.7,2.5,2.6,4.8,2.9
		c10.5,1.4,22,14.5,22,25.2c0.1,22.6-0.1,45.3,0.1,67.9c0.1,10.1-3.5,18.1-12,23.8c-2.2,3.2-5.8,3.5-9.2,4.1c-2.2,0.3-4.1,1-6,2.1
		c-3.5-3.3-6.1-7-6.2-12c-0.2-5-0.2-10.1,0-15.1c-0.2-6.7,0.2-13.4-0.4-20.1c0.8-4.1,1-8.2-1.1-12c-3.5-7.5-8.5-13.2-17.3-14.1
		c-5.4-0.8-10.9-0.4-16.3-0.5c-9.7-0.2-11.9-2.3-11.9-12c0-1.5,0-3,0-4.4c0-2,0.3-4,0-6c-1.6-10.8,3.4-18.3,11.7-24
		c3.3-2.3,3.4-4.3,1.2-7.3c-3.1-4.1-6.1-8.3-9-12.6c-2.9-4.3-4-8.8-0.1-13.2C457.5,279.6,461.3,274.8,467,273.3z"/>
	<path class="st3" d="M467,273.3c-4.3,3.4-8.4,7.1-13.6,9c-3.5-1-4-4.2-5.2-7c0-9.3,0-18.7,0-28C454.4,255.9,460.7,264.6,467,273.3z
		"/>
	<path class="st4" d="M279.8,400c-23.5,0-47,0-70.5,0c-19.4,0-33.3-13.9-33.3-33.4c0-26,0-52,0-78c0-18.5,14.1-32.6,32.5-32.6
		c47.5,0,94.9,0,142.4,0c19.2,0,33,13.9,33,33.1c0,26,0.1,52,0,78c-0.1,19-13.8,32.8-32.7,32.9C327.4,400,303.6,400,279.8,400
		C279.8,400,279.8,400,279.8,400z"/>
	<path class="st4" d="M277.7,248c-9.7-0.6-19-5.5-25.2-15.7c-1.3-2.2-2.7-3.2-5.4-3.6c-9.5-1.3-19.1-3-28.6-4.6
		c-5.1-0.9-7.8-3.9-7.6-8.3c0.2-4.7,2.9-7.2,7.5-7.9c9.5-1.5,19-3.2,28.6-4.6c2.5-0.4,4-1.3,5.4-3.5c13.3-21.4,42-21.2,55.2,0.3
		c1.2,1.9,2.4,2.7,4.6,3.1c9.7,1.4,19.4,3,29,4.7c5.2,0.9,7.9,3.8,7.6,8.2c-0.3,4.9-3.1,7.3-7.9,8c-9.4,1.4-18.7,3.2-28.1,4.5
		c-2.9,0.4-4.3,1.6-5.7,3.9C301.1,242.5,291.2,248,277.7,248z"/>
	<path class="st5" d="M496.3,387.1c-0.5-4-1-8.1-1.6-12.1C497.1,378.7,497.8,382.8,496.3,387.1z"/>
	<path class="st6" d="M516.9,429.1c-4.1,1.6-8.2,3.3-12.7,2.9c-2.1-0.2-2.4,1-2.6,2.6c-2,4.3-1.1,8.8-0.6,13.2
		c0.5,3.9,0.8,7.8,0.1,12.2c-7.8-3.6-15.6-6.1-23.9-5.3c-12,1.2-22.8,5-29.2,16.3c0,16.6,0,33.3,0,49.9c3.4,6.5,9.1,10.4,15.7,13.1
		c7.3,2.9,15,4,22.9,2.8c-0.1,1.8-1.4,2.5-2.3,3.4c-9,8.5-19.3,14.5-31.5,17.2c-1.7,0.4-3.8-0.1-4.8,1.9c0.1,5.3-0.9,10.7,0.6,16
		c32.9-2.7,68.6-30.4,71.1-74.6C521.1,476.9,519.3,452.9,516.9,429.1z M479.9,520c-13.6-0.1-23.9-10.5-23.9-24.1
		c0.1-13.6,10.4-23.9,24.1-23.9c13.5,0,24.1,10.6,23.9,24.1C503.8,509.8,493.4,520,479.9,520z"/>
	<path class="st6" d="M280,320c20.5,0,41,0,61.5,0c8.3,0,10.5,2.2,10.5,10.7c0,4.2,0.1,8.3,0,12.5c-0.1,5.9-2.7,8.7-8.5,8.7
		c-42.3,0.1-84.7,0.1-127,0c-5.8,0-8.4-2.9-8.5-8.7c-0.1-4.8-0.1-9.7,0-14.5c0.1-6.1,2.8-8.7,9-8.7C238,320,259,320,280,320z"/>
	<path class="st7" d="M280.2,200c8.7,0.1,15.8,7.3,15.8,16c0,8.9-7.4,16.1-16.3,16c-8.9-0.1-16-7.6-15.7-16.5
		C264.2,206.8,271.5,199.9,280.2,200z"/>
	<path class="st6" d="M496.8,408c-2.6-2.2-5.7-1.3-8.6-1.4c-6.4-0.2-6.9-0.6-4.4-6.5c2.9-6.9,4.4-14,3.6-21.4
		c-0.8-7.1-2.6-13.8-9.3-17.8c-1.7-0.8-3.4-1-5.3-1c-5.1,0.1-10.2,0.1-15.3,0c-5.8-0.1-8.3-2.8-8.5-8.6c-0.1-2.5-0.1-4.9-0.1-7.4
		c-0.2,0-0.4,0-0.6,0c0,22.7-0.1,45.3-0.1,68c1.7,8.5,6.9,13.1,15.8,13.4c9.3,0.3,18.5,0.1,27.8,0.1c1.8,0,3.7,0,5.1-1.5
		C496.8,418.7,496.8,413.3,496.8,408z M464.3,400.8c0-10.3,0-20.6,0-31.9C474.9,380.2,468,390.5,464.3,400.8z"/>
</g>
</svg>
