<?xml version="1.0" encoding="utf-8"?>
<!-- Generator: Adobe Illustrator 19.0.0, SVG Export Plug-In . SVG Version: 6.00 Build 0)  -->
<svg version="1.1" id="Calque_1" xmlns="http://www.w3.org/2000/svg" xmlns:xlink="http://www.w3.org/1999/xlink" x="0px" y="0px"
	 viewBox="0 0 612 792" style="enable-background:new 0 0 612 792;" xml:space="preserve">
<style type="text/css">
	.st0{fill:#006826;}
	.st1{fill:#008B33;}
	.st2{fill:#FDB300;}
</style>
<g>
	<path class="st0" d="M370,605.1c6.2-3.4,13.2-5.2,19.3-9.1c14.1-8.9,24.9-20.8,34-34.5c6-9.1,10.8-18.6,13-29.4
		c2.5-12.7,2.1-25.3,1.1-38.1c-1.5-19.5-6.1-38.5-8.4-57.9c-1-8-2.7-16-2.9-24.1c17.1-1.5,34.2-1,51.7-2
		c-2.2,12.2-4.5,24.1-5.8,36.1c-2.3,20.7-4.4,41.3-7,62c-2.5,19.9-6.3,39.7-19.4,55.7c-18.4,22.6-41,38.7-71.2,41.4
		C373,605.3,371.4,605.1,370,605.1z"/>
	<path class="st1" d="M437.3,481.3c-2.9-20.4-6.9-40.7-9.3-61.2c-0.3-2.7-0.1-5.7-2-8.1c-1.5-6.7-1.8-13.5-2.1-20.2
		c-0.1-2.8-0.3-4.1-3.9-3c-19,5.8-38.1,11.2-56.8,17.9c-1.7-0.9-3.2,0.1-4.7,0.7c-12.1,4.8-23.8,10.2-35.2,16.5
		c-29,16-50.1,38.4-60,70.8c-8.9,29.1-5,55.6,14.7,79.1c4.3,5.2,8.9,10.4,15.6,12.8c10.4,7.1,21.3,13.1,33.5,16.8
		c4,1.2,8.4,1.2,12.1,3.5c7,0,14,0,21,0c3-2.1,6.7-0.8,10-1.9c5.9-1.1,11.4-3.1,16.8-6c10.2-5.4,18.5-13,26-21.6
		c11.1-12.6,20.4-26.4,24.3-43.1C441.1,516.8,439.8,499.1,437.3,481.3z M313.8,575.3c-15.5-63.4,23.4-133.7,77-147.5
		C342.8,465.3,322.9,517.4,313.8,575.3z"/>
	<path class="st2" d="M314.5,430.7c15.5-9.6,31.9-17.1,48.7-23.9c-5.5-15.4-12.4-30.1-19.6-44.8c-21.6-43.7-45.4-86.3-67.3-129.8
		c-21.8-43.2-42.5-87-55.4-133.9c-0.2-0.6-0.6-1.1-1.3-2.1c-6.1,22-13.6,42.9-22.2,63.4c-19.2,46-42.7,89.8-65.8,133.8
		c-17.8,33.9-36.3,67.4-50.9,102.8c-9.1,22.1-16.5,44.5-13.9,69.2c4.6,42.9,22.4,79,56.3,105.3c53,41.2,110.3,45.7,170.4,15.9
		c-1-0.9-2-1.7-3-2.6c-22.8-19-34.1-42.9-29.6-72.7C266.1,476.4,284.2,449.5,314.5,430.7z M124,545.6
		c-24.4-25.8-35.3-56.1-28.9-91.7c17,64.9,57.8,105.7,123.3,122.2C189.2,584.7,148.5,571.6,124,545.6z"/>
</g>
</svg>
