<?xml version="1.0" encoding="utf-8"?>
<!-- Generator: Adobe Illustrator 19.0.0, SVG Export Plug-In . SVG Version: 6.00 Build 0)  -->
<svg version="1.1" id="Calque_1" xmlns="http://www.w3.org/2000/svg" xmlns:xlink="http://www.w3.org/1999/xlink" x="0px" y="0px"
	 viewBox="0 0 612 792" style="enable-background:new 0 0 612 792;" xml:space="preserve">
<style type="text/css">
	.st0{fill:#E86052;}
	.st1{fill:#E96254;}
	.st2{fill:#E86153;}
</style>
<g>
	<path class="st0" d="M560.5,393.1c-0.6-9.6-0.6-19.2-2.4-28.7c-4.3-22.7-12.2-44.3-22.7-64.9c-16-31.2-37.6-58-64.4-80.6
		c-28.1-23.8-60-40.6-95.4-50.7c-9.8-2.8-19.6-5.1-29.8-5.7c-6.9-0.4-13.9-0.5-20.8-1.5c-13.7,0-27.3,0-41,0c-1,0.9-2.2,0.4-3.4,0.5
		c-9.3,0.7-18.8,0.6-28,2.4c-22.5,4.3-44,12-64.4,22.4c-26.9,13.7-50.6,31.8-71.4,53.8c-22.1,23.4-39.4,49.8-51.3,79.7
		c-7.1,17.7-13.3,35.7-14.8,55c-0.5,7.1-0.6,14.2-1.7,21.2c0,14,0,28,0,42c0.9,1,0.4,2.2,0.5,3.4c0.7,9.4,0.6,18.8,2.4,28
		c4.3,22.6,12,44,22.4,64.5c16,31.4,37.7,58.3,64.7,81.1c28.2,23.8,60,40.6,95.4,50.8c9.8,2.8,19.6,5.1,29.8,5.7
		c6.9,0.4,13.9,0.5,20.8,1.6c11.7,0,23.3,0,35,0c1.5-1,3.2-0.5,4.9-0.5c25.2,0.3,49.4-4.9,72.8-14.1c41.6-16.3,76.7-41.6,105.6-75.7
		c23.3-27.6,39.7-59,50.1-93.5c3.4-11.3,5.7-22.7,6.4-34.6c0.4-7.6,0.3-15.2,1.3-22.7c0-11.3,0-22.7,0-34
		C560,396.5,560.6,394.8,560.5,393.1z M204.1,507.6c-18-0.2-32.1-14.5-32-32.6c0.1-17.3,14.7-31.4,32.2-31.2
		c18.4,0.2,31.9,14.4,31.6,33.2C235.8,493.7,221,507.8,204.1,507.6z M400.6,507.6c-17.4-0.4-31.4-14.9-31.2-32.4
		c0.2-17.5,14.5-31.6,32-31.5c18,0.1,32,14.2,31.8,32C433.1,494,418.7,508,400.6,507.6z M447.5,440.8c-1.5,2.2-4.4,3.4-6.7,5
		c-0.9,0.6-1.6,0-2.1-0.7c-0.4-0.5-0.9-1-1.1-1.6c-3.6-9.5-10.8-11.2-20.1-10.6c-12.6,0.8-25.3,0.3-38,0.1c-3.4-0.1-5.3,0.9-7,4
		c-7.3,13.6-15,27.1-22.4,40.7c-1.4,2.5-2.9,3.5-5.8,3.5c-26-0.1-52-0.1-78,0c-2.8,0-4.2-1.1-5.6-3.2c-9.1-13.8-18.3-27.4-27.3-41.3
		c-1.8-2.7-3.6-3.7-6.9-3.7c-13.3,0.2-26.7,0.2-40,0c-2.7,0-4.7,0.8-6.5,2.8c-5.7,6-11.6,11.8-17.5,17.8c-1.6-2.1-1-3.8-1-5.4
		c-0.1-16.5-0.1-33-0.1-49.5c0-7,1.5-8.4,8.6-8.4c22,0,44,0.1,66-0.1c3.9,0,6.9,0.8,8.5,4.5c4.5,10,12.1,13.2,22.8,11.8
		c6.7-0.9,13.6-0.1,20.5-0.2c3.8,0,6.9,1.1,7,5.3c0,4.2-2.9,5.5-6.8,5.5c-8.8-0.1-17.6,0-27.3,0c2.3,3.3,4.1,5.8,5.8,8.3
		c1.2,1.9,2.9,2.4,5.1,2.4c12.5-0.1,25,0,37.5-0.1c5.5,0,7-1.8,7.1-7.3c0.1-8.2,0-16.3,0.1-24.5c0-2-0.4-3.4-2.1-4.7
		c-6.8-5.3-13.6-10.7-20.2-16.3c-2.3-2-3.5-1.3-5.1,0.8c-1.8,2.6-3.9,5-6,7.4c-2.2,2.5-4.9,2.8-7.5,0.6c-2.4-2-2.7-4.6-0.8-7.1
		c7.1-9,14.2-18.1,21.5-27c2.1-2.6,5.1-2.7,7.6-0.5c2.4,2,2.2,4.7,0.6,7.2c-0.3,0.4-0.6,0.8-0.9,1.2c-5.4,7.2-5.4,7.2,1.6,12.7
		c3.4,2.7,6.8,5.4,11.3,9c0-10.2,0-19.1,0-28.1c0-5.8,0.1-11.7,0-17.5c0-3.9,1-7.3,5.6-7.2c4.2,0.1,5.2,3.3,5.2,7.1
		c-0.1,17,0.1,34-0.2,51c-0.1,4.7,1.4,5.7,5.9,5.7c27-0.2,54-0.1,81-0.1c7.9,0,9.2,1.4,9.2,9.3c0,6.3,0,12.7,0,19
		c0,1.9,0,4.2,2.7,3.6c10.1-2.2,14.4,4.3,18.4,11.5c0.3,0.6,0.8,1.1,1.1,1.7C445.9,437.2,448.8,439,447.5,440.8z"/>
	<path class="st1" d="M310.9,465c-3.5,0-7,0.1-10.5,0c-3.5-0.1-5.7-1.8-5.7-5.5c0-3.5,2.3-5.1,5.5-5.2c7-0.2,14-0.2,20.9,0
		c3.5,0.1,5.7,2.2,5.5,5.8c-0.2,3.3-2.5,4.9-5.8,4.9C317.6,465,314.3,465,310.9,465z"/>
	<path class="st2" d="M401.5,459.8c8.8,0,15.9,7,15.9,15.8c0,8.9-7.4,16.2-16.2,16.1c-8.5-0.1-15.8-7.6-15.7-16.2
		C385.5,466.8,392.7,459.8,401.5,459.8z"/>
	<path class="st2" d="M220,475.5c0,9-7.3,16.3-16.1,16.2c-8.6-0.1-15.8-7.6-15.8-16.1c0.1-8.7,7.3-15.7,16-15.8
		C212.9,459.8,220,466.8,220,475.5z"/>
</g>
</svg>
