<?xml version="1.0" encoding="utf-8"?>
<!-- Generator: Adobe Illustrator 19.0.0, SVG Export Plug-In . SVG Version: 6.00 Build 0)  -->
<svg version="1.1" id="Calque_1" xmlns="http://www.w3.org/2000/svg" xmlns:xlink="http://www.w3.org/1999/xlink" x="0px" y="0px"
	 viewBox="0 0 612 792" style="enable-background:new 0 0 612 792;" xml:space="preserve">
<g>
	<path d="M347.6,477.3c-0.8-0.6-1-0.8-1.1-0.7c-21.4,5.1-41.9-0.9-62.6-4.7c-9.2-1.7-15.2-7.1-19.3-14.9c-3.1-5.8-2.1-9.1,3.8-12.2
		c6.7-3.6,14-3.8,21.4-3.1c10.3,0.9,20.5,1.9,30.8,2.4c3.7,0.2,7.6-0.5,11.3-1.4c19-4.4,37.8-9.3,56.8-13.3
		c16.8-3.5,33.1,0.1,49.1,5.1c1.7,0.6,3.4,1.5,5.2,1.6c10.5,0.9,15.2,8.1,17.2,16.9c2.1,9,3.5,18.3,3.6,27.5
		c0.2,12.4-6.1,19.2-18.2,21.8c-21.8,4.7-41.9,13.8-62.5,22c-20.8,8.4-41.8,16.5-63.9,20.8c-10.8,2.1-21.3,0-31.6-2.7
		c-15.9-4.2-31.6-9.2-47.4-13.9c-1.6-0.5-3.3-1-4.5-2c-17.3-13-34.6-26-51.7-39.2c-2.9-2.2-5.3-5.1-7.6-7.9
		c-3.9-4.8-3.4-10.3,1.1-14.6c4.6-4.4,14.3-5.9,20.1-2.9c13.9,7.2,28,14.1,41.6,21.6c17.4,9.6,36.7,12.3,55.7,16.4
		c12.9,2.8,23.9-0.3,33.9-8.5C335,486.7,341.3,482.1,347.6,477.3z"/>
	<path d="M250.1,377c-5.4,0-10.2,0-15,0c-6.4,0-9.8-1.8-10.8-8c-0.9-5.6-0.7-11.6,0.3-17.2c6.7-36.5,13.7-72.9,20.6-109.4
		c0.3-1.6,0.7-3.3,1.1-4.9c2.4-8.3,4.3-9.7,13-9.7c40,0,80,0,120,0c8.1,0,10.2,1.2,12.2,9.4c2.5,10.7,4.4,21.5,6.4,32.3
		c5.6,29.3,11.2,58.5,16.6,87.8c0.7,3.8,0.3,8-0.7,11.8c-1.6,6.1-4.5,7.8-11,7.8c-4.5,0-9,0.1-13.5,0.1c-0.3,0-0.6,0.2-1.4,0.6
		c0,9.2-0.3,18.7,0.1,28.1c0.2,5.3-1.9,7.9-6.8,8.5c-2.5,0.3-5,0.6-7.4,0.3c-7.1-0.9-8.3-2.4-8.3-9.7c0-9.1,0-18.3,0-27.7
		c-31.1,0-61.7,0-93.2,0c0,4.3,0,8.5,0,12.8c0,5,0,10,0,15c0,7.2-1.2,8.8-8.4,9.6c-2.9,0.3-6-0.1-8.9-0.7c-3.5-0.7-5.3-2.8-5.2-6.7
		C250.2,397.4,250.1,387.5,250.1,377z M319.8,242.1C319.8,242.1,319.8,242.1,319.8,242.1c-16.5,0-33,0-49.5,0.1
		c-7.8,0-10.8,2.7-12.1,10.2c-2.6,14.4-5,28.9-7.8,43.2c-0.9,4.6,1,6.6,4.9,7.5c1.9,0.4,4,0.6,5.9,0.6c21.8,0,43.6,0,65.5,0.1
		c3.2,0,4.9-1,6.6-3.8c10.4-17.2,34.7-17.3,45.3-0.4c1.3,2.1,2.1,4.7,5.5,3.2c3.3-1.4,4.2-3.5,3.5-7.1c-2.8-14.2-5.2-28.5-7.7-42.7
		c-1.7-9.5-3.1-10.7-13.2-10.8C351.1,242.1,335.4,242.1,319.8,242.1z M362,340.6c-0.1,7.1,5.8,13.1,12.9,13.3
		c7.1,0.2,13.1-5.7,13.3-12.8c0.2-7.6-5.5-13.4-13-13.4C367.8,327.7,362,333.4,362,340.6z M263,327.7c-7.3-0.1-13.1,5.5-13.2,12.7
		c-0.1,7.5,5.7,13.5,13.1,13.4c7,0,13-6.1,13-13.1C276,333.5,270.3,327.8,263,327.7z"/>
</g>
</svg>
