<?xml version="1.0" encoding="utf-8"?>
<!-- Generator: Adobe Illustrator 19.0.0, SVG Export Plug-In . SVG Version: 6.00 Build 0)  -->
<svg version="1.1" id="Calque_1" xmlns="http://www.w3.org/2000/svg" xmlns:xlink="http://www.w3.org/1999/xlink" x="0px" y="0px"
	 viewBox="0 0 612 792" style="enable-background:new 0 0 612 792;" xml:space="preserve">
<style type="text/css">
	.st0{fill:#43BAC1;}
	.st1{fill:#009AA5;}
	.st2{fill:#32353A;}
	.st3{fill:#42454F;}
	.st4{fill:#4F535F;}
	.st5{fill:#303338;}
	.st6{fill:#3B3F45;}
	.st7{fill:#313439;}
	.st8{fill:#313338;}
	.st9{fill:#F9E0ED;}
	.st10{fill:#393D43;}
	.st11{fill:#0299A3;}
	.st12{fill:#222428;}
	.st13{fill:#2B2D32;}
	.st14{fill:#BAE0F7;}
	.st15{fill:#2A2C31;}
	.st16{fill:#2B2D31;}
	.st17{fill:#00C9F5;}
	.st18{fill:#00A3DC;}
	.st19{fill:#FDFDFD;}
	.st20{fill:#FAFBFC;}
	.st21{fill:#F9FBFB;}
	.st22{fill:#F5F9FA;}
	.st23{fill:#EEF5F8;}
	.st24{fill:#02A4DD;}
</style>
<g>
	<path class="st0" d="M62,440c0-13.3,0-26.7,0-40c1-7.4,1.1-14.8,1.6-22.2c0.9-11.2,3.8-21.9,7-32.6c10.7-35.4,28.2-67.2,52.6-94.9
		c20.6-23.4,44.4-42.9,72.1-57.7c23.1-12.3,47.3-21.3,73-26c8.5-1.6,17.2-1.5,25.8-2.1c1.3-0.1,2.7,0.4,3.9-0.5c13,0,26,0,39,0
		c7.7,1,15.5,1,23.2,1.6c11.5,0.9,22.6,3.9,33.6,7.3c33.7,10.4,64,26.9,90.8,49.8c24.8,21.2,45.2,45.9,60.7,74.6
		c10.9,20,18.8,41.1,24.1,63.2c0.7,3,2,6.1,0.3,9.2c-2.6,2-4.4,0.2-6-1.5c-37.9-37.6-75.6-75.4-113.4-113.2
		c-2.4-2.4-4.1-5.7-7.4-7.3c-2.8-4.1-6.8-5.5-11.6-5.6c-4.1-0.1-8.3,0.4-12.4-0.6c-3.7-3.1-7-6.6-10.1-10.3
		c-1.6-1.8-3.2-3.3-5.2-4.5c-2.1-3.4-5.2-4.7-9.2-4.6c-10.9,0.1-21.9,0-32.8,0.1c-7.3,0.1-9.1,1.9-9.4,9.1c-0.1,3.3,0.4,6.7-2,9.5
		c-3,2-6.4,1.3-9.7,1.3c-43.1,0.1-86.2,0-129.3,0c-2.7,0-5.3-0.1-8,0.1c-5.5,0.4-9.3,3.3-10.4,7.8c-1,4.3,1.2,8.1,6.1,10.9
		c1.3,0.7,2.9,1,3.8,2.3c2.4,6.3,1.6,12.8,0.8,19.2c-0.4,2.2-2.2,3.1-3.8,4.2c-4.4,3-4.4,7.3,0,10.3c1.5,1,3.2,1.7,3.7,3.7
		c1.3,6,1.2,12,0.1,18c-0.4,2.2-2.4,3-4,4.1c-4.1,2.9-4.1,7.1,0.1,10.1c1.5,1,3.3,1.6,3.8,3.7c1.2,2.6,0.5,5.3,0.6,7.9
		c0.3,2.8,0.3,5.7,0.3,8.5c0,45.3,0,90.5,0,135.8c0,3.2,0.2,6.3-0.6,9.4c-0.5,1.8-1.6,3-3.2,4.1c-5.5,3.7-5.4,7.5,0.2,11.3
		c1.1,0.8,2.2,1.4,2.6,2.8c1,2.2,0.6,4.5,0.6,6.7c0.3,5.2,0.9,10.5-0.4,15.7c-0.4,1.8-1.7,2.6-3.2,3.6c-5.4,3.6-5.3,7.5,0.2,11.1
		c1.1,0.7,2.3,1.4,2.8,2.7c1.1,2.6,0.8,5.2,0.5,7.8c0,2.5,0.5,4.9,0.4,7.4c-0.1,3.1-1.2,5.3-4,6.9c-9.7,5.6-10.3,11.2-2,18.8
		c1.4,3.2,4.4,4.8,6.8,7.1c20.2,20,40.1,40.1,60.2,60.2c1.9,1.9,4.6,3.7,2.7,7.1c-2.9,2-5.9,0.7-8.7,0c-17.3-4.3-34.2-9.9-50.4-17.5
		c-22.1-10.3-42.2-23.4-60.5-39.3c-19-16.6-35.4-35.6-48.9-57c-15.3-24.1-26-50.2-32.9-77.9c-2.9-11.9-3.2-24-4.1-36.1
		C62.4,442.6,62.9,441.2,62,440z"/>
	<path class="st1" d="M268,670.9c-21.6-21.7-43.2-43.3-64.7-65c-2.2-2.2-4.3-4.6-6.5-6.9c1.2-1.9,3.2-1.5,5-1.5
		c74.5,0.1,149.1,0,223.6,0c3,0,6,0.2,9-0.3c4.6-0.8,7.9-3.8,8.6-7.9c0.7-3.9-1.2-7.5-5.2-9.9c-1.6-0.9-3.4-1.3-4.6-2.9
		c-2.3-6.4-1.7-12.9-0.8-19.4c0.4-2.2,2.2-3.1,3.8-4.2c4.4-3,4.4-7.3,0-10.3c-1.5-1-3.2-1.7-3.7-3.8c-1.3-7.3-1.2-14.6-0.1-21.9
		c0.4-1.8,1.7-2.7,3.1-3.6c5.2-3.4,5.3-7.5,0.2-10.9c-1.6-1.1-3-2-3.5-4c-0.8-2.8-0.6-5.6-0.6-8.4c0-48.1,0-96.1,0-144.2
		c0-2.8-0.1-5.7,0.6-8.4c0.5-2.4,2.4-3.3,4.2-4.6c4.2-2.9,4.1-7.1-0.1-10.1c-1.5-1-3.3-1.7-3.8-3.7c-1.3-6-1.2-12.1-0.1-18.1
		c0.3-1.4,1.2-2.3,2.3-3.1c6.5-4.7,6.5-7.2-0.2-12.1c-1-0.7-1.7-1.6-2-2.8c-1.2-6.1-1.3-12.2,0-18.2c0.4-1.8,1.8-2.7,3.3-3.3
		c5.4-2.2,8-6,7.7-11.9c-0.1-1.2,0.4-2.3,1.5-2.9c12.8,12.6,25.6,25.3,38.3,38c21.1,21,42.1,42.1,63.2,63.2
		c7.4,7.4,14.9,14.7,22.3,22.1c2.5,0.4,2.8,2.3,3.1,4.4c1.1,8.5,0.9,17.1,2,25.6c0,13.7,0,27.3,0,41c-1,7.4-1,14.8-1.7,22.3
		c-1.2,13.5-5,26.5-9.3,39.3c-8.6,26-21.3,49.9-37.7,71.8c-17.4,23.2-38,43-62.1,59.4c-28.9,19.7-60.4,33.1-94.7,39.7
		c-8.8,1.7-17.8,1.7-26.8,2.1c-2,0.1-4-0.6-5.9,0.5c-12,0-24,0-36,0c-9-1-18.1-0.8-27.1-1.9C270.7,673.8,268.5,673.7,268,670.9z"/>
	<path class="st2" d="M202.2,344c-0.1-2.7-0.3-5.3-0.4-8c0.6-1.1,1.5-1.9,2.7-1.9c5.7-0.3,11.4-1.4,16.9,1c2.2,4.9,6.3,5.7,11.1,5.6
		c40.8-0.1,81.6-0.1,122.4,0c3.2,0,6.3-0.1,9.5,0.3c2.9,0.3,5.6,1.7,6,4.5c1.2,7.3,2.1,14.8-0.6,22c-2.7,2.4-4.8,0.8-7-0.9
		c-7.4-5.8-15.5-10.3-24.5-13.2c-40.1-12.8-83.6,15.2-89.3,57c-4.9,35.5,18.8,70,54,77.6c22.1,4.8,41.9-0.6,59.6-14.3
		c2.2-1.7,4.2-3.6,7-1.3c0.9,0.9,1.3,1.9,1.4,3.1c0.5,7.1,0.5,14.2,0.1,21.3c-0.1,1.5-0.7,2.9-1.6,4.1c-2.1,1.8-4.7,1.5-7.2,1.5
		c-45.2,0.1-90.3,0.1-135.5,0c-2.4,0-5,0.3-7.2-1.4c-2.5-3.2-1.9-7-1.9-10.6c-0.1-42.6,0-85.2,0-127.8c0-1.7,0-3.3,0-5
		c0-10.4,0-10.4-10.2-11.3C205.4,346.1,203.4,345.9,202.2,344z"/>
	<path class="st3" d="M434,575.9c7.8,1.3,12.4,6.2,11.9,12.8c-0.5,6.8-5.9,11.2-13.9,11.2c-75.9,0-151.9,0-227.8,0
		c-2.5,0-4.9-0.6-7.4-0.9c-10.3-8.1-9.1-17.7,3.1-22.9c1.9-0.8,2-1.8,2-3.3c0-2.6,0.1-5.3,0.2-7.9c6.4-6.5,17.6-4.1,20.2,4.3
		c0.9,2.8,2.6,4.1,5.4,4.3c2.2,0.1,4.3,0.1,6.5,0.1c41.1,0,82.2,0,123.3,0c4.2,0,8.3,0.5,12.4,0.2c15.3-0.1,30.6-0.4,45.9,0.2
		c4.1-0.3,8.2-0.4,12.3-0.2C430.4,573.8,432.5,574.1,434,575.9z"/>
	<path class="st3" d="M445.1,246.8c2.2,9.9-1.4,15.6-11.1,17.3c-2.4,2.8-5.7,2.1-8.7,2.3c-3.5,0.2-6.9-0.3-10.3-0.4
		c-17.4,0.7-34.7,0.4-52.1,0.2c-3.3-0.7-6.6,0.2-9.9,0.2c-46.9-0.1-93.9,0-140.8-0.1c-3.6,0-7.4,0.7-10.4-2.3
		c-7-0.7-11.9-5.9-11.7-12.4c0.2-6.8,5.5-11.6,13-11.6c42.5,0,85,0,127.5,0c6.5,0,13-0.1,19.5-0.2c1.6-1.8,3.7-2.1,5.9-2.1
		c16.6,0,33.3-0.4,49.9,0.2c4.6-0.3,9.2-0.7,13.4,1.9c4.3,0.1,8.7,0.3,13,0.1C437.8,239.8,442.1,242,445.1,246.8z"/>
	<path class="st4" d="M434,283.9c4.6,0.6,7.6,3,7.9,7.8c0.3,4.3-2.4,7-7.9,8.4c-2.1,2.5-5,2.1-7.8,2.2c-3.8,0.1-7.6,0-11.3-0.3
		c-16.4,0.5-32.7,0.3-49.1,0.2c-3.2-0.5-6.3,0.2-9.5,0.2c-48.3,0-96.5,0-144.8-0.1c-3.4,0-7.1,0.7-9.9-2.3c-5.1-1.1-8-3.9-7.7-8.1
		c0.3-4.9,3.1-7.4,7.9-8c1.9-2.4,4.7-2.2,7.3-2.3c9-0.1,17.9-0.1,26.9-0.1c40.5,0,81.1,0,121.6,0c3.7,0,7.3,0,11,0.3
		c15.7-0.5,31.4-0.5,47.1,0c4.1-0.3,8.2-0.4,12.3-0.2C430.4,281.8,432.5,282.1,434,283.9z"/>
	<path class="st4" d="M221,336.1c-6.4,0-12.8-0.1-19.3-0.1c-4.9-0.5-7.7-3.3-7.6-8.1c0-4.9,3.1-7.4,7.9-8c2.1-2.6,5-2.2,7.8-2.3
		c12.8-0.1,25.6-0.1,38.4,0c40.2,0,80.4-0.1,120.6,0.1c15.7,0.1,31.4-0.4,47,0.2c4.1-0.3,8.2-0.4,12.3-0.2c2.2,0.1,4.3,0.3,5.8,2.2
		c4.6,0.6,7.8,3,7.9,7.8c0.1,5.1-3,7.7-7.9,8.4c-2.1,2.5-5,2.1-7.8,2.2c-3.8,0.1-7.6,0-11.4-0.3c-2.7,0.2-5.3,0.3-8,0.3
		c-58.5,0-117,0-175.5-0.1C227.9,338.3,224,339.3,221,336.1z"/>
	<path class="st4" d="M220,499.9c49.7,0,99.3,0,149,0c1.5-1.9,3.7-2.1,5.9-2.2c13.7,0,27.3-0.4,41,0.2c4.1-0.3,8.2-0.4,12.3-0.2
		c2.2,0.1,4.3,0.3,5.8,2.2c4.6,0.6,7.8,3,7.9,7.8c0.1,5.1-3,7.7-7.9,8.4c-2.1,2.5-5,2.1-7.8,2.2c-3.8,0.1-7.6,0-11.4-0.3
		c-3.3,0.3-6.6,0.3-10,0.3c-57.9,0-115.9,0-173.8,0c-3.3,0-6.7-0.1-10-0.3c-4.5,0.3-9,0.4-13.5,0.2c-2.2-0.1-4.3-0.5-5.9-2.3
		c-5.2-1.1-7.9-3.8-7.7-8c0.3-4.9,3.1-7.5,7.9-8C206.5,496.8,215.5,496.7,220,499.9z"/>
	<path class="st4" d="M434,539.9c4.6,0.6,7.8,3,7.9,7.8c0.1,5.1-3,7.7-7.9,8.4c-2.1,2.5-5,2.1-7.8,2.2c-3.8,0.1-7.6,0-11.4-0.3
		c-3.3,0.3-6.6,0.3-10,0.3c-57.6,0-115.2,0-172.8,0c-3.3,0-6.7-0.1-10-0.3c-4.7,0.3-9.3,0.3-14,0.2c-2.4-0.1-4.7-0.4-6.4-2.3
		c-5.2-1.1-7.9-3.8-7.7-8c0.3-4.9,3.1-7.5,7.9-8c2.4-2.8,5.7-2.1,8.8-2.3c3.1-0.1,6.3,0.1,9.4,0.3c8.1-0.6,16.3-0.3,24.4-0.3
		c37.8,0,75.5,0,113.3,0c3.7,0,7.3,0,11,0.3c15.7-0.5,31.4-0.5,47,0c4.1-0.3,8.2-0.4,12.3-0.2C430.4,537.8,432.5,538.1,434,539.9z"
		/>
	<path class="st5" d="M369.1,319.9c-49.7,0-99.4,0.1-149.1,0.1c-6,0-12,0-18,0c-0.1-6.7-0.2-13.3-0.2-20c52.1,0,104.2,0,156.2,0
		c2.7,0,5.3,0.1,8,0.1c0.8,4.6,5.2,7.5,5.8,12.2C372.1,315.4,372.6,318.3,369.1,319.9z"/>
	<path class="st5" d="M369,283.9c-49.7,0-99.4,0.1-149.1,0.1c-6,0-12,0-18,0c-0.1-6.6-0.2-13.3-0.3-19.9c53.8,0,107.5,0,161.3,0
		c1.5,1.4,2.1,3.5,4.1,4.8C373.2,272.6,373.7,278.2,369,283.9z"/>
	<path class="st6" d="M220,499.9c-6,0-12.1,0-18.1,0c0-50.2,0-100.3,0.1-150.5c0-1.8,0.1-3.6,0.2-5.5c4.3,0,8.7,0.2,13,0
		c3.7-0.2,5.2,1.5,4.9,5c-0.1,1.3,0,2.7,0,4C220,402,220,451,220,499.9z"/>
	<path class="st7" d="M369,539.9c-49.7,0-99.3,0-149,0c-2-1.4-2.2-3.5-2.3-5.8c-0.4-7.5-0.5-7.5-8.1-7.9c-3-0.1-5.6-0.7-7.4-3.3
		c-0.1-2.3-0.3-4.7-0.4-7c6.4,0,12.8,0.1,19.3,0.1c5.1,6.1,12,4.4,18.6,4.4c9.3,0,18.5,0.1,27.8,0c11.3-0.2,22.5,0.2,33.8-0.1
		c7.8-0.2,15.6-0.1,23.3-0.1c12.6,0,25.2,0.5,37.8-0.2c4.7-0.2,8.5,2.8,8.7,7.5C371.2,531.8,372.8,536.3,369,539.9z"/>
	<path class="st8" d="M201.8,556c6.8,0,13.5,0.1,20.3,0.1c5.2,4.7,11.5,3.5,17.5,3.3c9.9-0.2,19.8-0.1,29.7,0c1.5,0,3,0.4,4.5,0.1
		c9.9-1.5,19.9-0.2,29.8-0.3c8.9-0.1,17.9-0.2,26.8,0c10.4,0.2,20.9,0.7,31.3-0.2c5.4-0.5,9.1,2.3,9.5,7.7c0.2,3,1.4,6.3-1.1,9.1
		c-48.1,0-96.3,0-144.4,0.1c-4.4,0-6.1-1.4-5.7-5.8c0.5-4.6-2.3-6.1-6.4-6.3c-3.9-0.2-7.6,0.2-11.4,1C202,562,201.9,559,201.8,556z"
		/>
	<path class="st9" d="M406,239.8c-18.7,0-37.3,0-56,0c0-3.7-0.1-7.3,0-11c0.1-5.6,3.1-8.8,8.6-8.8c12.8-0.1,25.6,0.1,38.5-0.1
		c4.6-0.1,6.9,2.6,8.9,6.1C408.4,230.6,409.9,235.2,406,239.8z"/>
	<path class="st10" d="M202.2,523c4.5,0.7,9.1,1.3,13.7,1c2.9-0.2,4.2,1.2,4.2,4.1c-0.1,3.9,0,7.9,0,11.8c-6,0-12.1,0-18.1,0.1
		C202,534.3,202.1,528.6,202.2,523z"/>
	<path class="st11" d="M406,239.8c0-4.6,0-9.2,0-13.8c5.1,3.9,9.4,8.7,13.2,13.8C414.8,239.8,410.4,239.8,406,239.8z"/>
	<path class="st12" d="M434,499.9c-6,0-12,0-18,0c-2.9-2.2-2.3-5.4-2.3-8.3c-0.1-16.1-0.1-32.3-0.1-48.4c0-29.3,0-58.6,0-87.8
		c0-4.3,0.1-8.6-0.6-12.9c-0.4-2.3-0.2-4.7,2-6.3c6.3,0,12.7,0,19,0C434,390.7,434,445.3,434,499.9z"/>
	<path class="st12" d="M434,539.9c-6,0-12,0-18,0c-1.4-1-2.1-2.5-2.2-4.2c-0.2-4.9-0.3-9.9-0.9-14.8c-0.2-1.9,0.5-3.6,2.1-4.7
		c6.3,0,12.7,0,19,0C434,524,434,532,434,539.9z"/>
	<path class="st12" d="M415,556.1c6.3,0,12.7,0,19,0c0,6.6,0,13.2,0,19.8c-6,0-12,0-18,0C412.7,571.6,412.1,560,415,556.1z"/>
	<path class="st12" d="M434,319.9c-6,0-12,0-18,0c-3.2-4.1-3.8-16-1-19.7c6.3,0,12.7,0,19,0C434,306.7,434,313.3,434,319.9z"/>
	<path class="st12" d="M434,283.9c-6,0-12,0-18,0c-0.7-0.7-1.7-1.3-1.8-2.2c-0.2-5.9-2.2-11.8,0.8-17.5c6.3,0,12.7,0,19,0
		C434,270.7,434,277.3,434,283.9z"/>
	<path class="st13" d="M415,336.1c2.2,54.6,0.3,109.2,1,163.7c-15.7,0-31.3,0-47,0c-0.5-9.3,1-18.6-1-27.8c-1.4-2.5,0.4-4,1.8-5.6
		c12.3-13.8,18.3-30.1,17.8-48.5c-0.4-16.5-6.3-31.2-17.1-43.8c-1.5-1.8-4.1-3.3-2.5-6.3c1.8-6.6,0.9-13.2,0.8-19.9
		c0-3.1-2.2-4.7-5.2-4.9c-1.7-0.1-3.3-0.1-5-0.1c-43.5,0-86.9,0-130.4,0c-6.9,0-7.1-0.2-7.2-6.9C285.7,336.1,350.4,336.1,415,336.1z
		"/>
	<path class="st14" d="M368,367.9c13.6,14.2,21.7,30.9,21.9,50.8c0.3,19.7-6.5,36.7-20,51.1c-0.7,0.7-1.3,1.5-1.9,2.3
		c-15.2,13.5-32.8,20.6-53.3,19.9c-36.1-1.3-66.8-31.4-68.7-67.5c-1.9-37.7,24.7-70.5,61.2-75.6C330.6,345.5,350.6,352.6,368,367.9z
		"/>
	<path class="st15" d="M415,556.1c0.1,6.6,1.5,13.1,1,19.8c-15.3,0-30.7,0-46,0c-0.9-2.7-0.9-5.5-1.1-8.4c-0.2-4.8-2.8-6.7-7.5-5.9
		c-0.8,0.1-1.7,0.4-2.5,0.3c-11-1.3-22.1,0-33.2-0.3c-8.3-0.2-16.8-0.1-25.2,0c-11.2,0.2-22.5,0.8-33.7-0.2
		c-1.9-0.2-3.6,0.1-5.4,0.2c-11.7,0.2-23.4,0.7-35.2-0.2c-3.4-0.3-4.7-1.9-4.3-5.2C286.4,556.1,350.7,556.1,415,556.1z"/>
	<path class="st15" d="M415,264.1c1.5,6.5,0.8,13.2,1,19.8c-15.7,0-31.3,0-47,0c0.3-2.1,0.6-4.2,0.8-6.4c0.3-3.3-0.8-6.5-4.2-6.9
		c-5.8-0.7-4.7-3.2-2.6-6.6C380.4,264.1,397.7,264.1,415,264.1z"/>
	<path class="st15" d="M415,300.1c0.4,6.6,1.4,13.1,1,19.7c-15.7,0-31.3,0-47,0c1.4-5.2,1.4-10.1-3.6-13.6c-3.6-2.5,0.3-4.2,0.5-6.2
		C382.3,300.1,398.7,300.1,415,300.1z"/>
	<path class="st16" d="M415,516.1c0.5,7.9,1.4,15.8,1,23.7c-15.7,0-31.3,0-47,0c0-3.8,0.1-7.7-0.1-11.5c-0.2-4.3-2.6-6.2-6.8-5.9
		c-12.4,0.7-24.9,0.1-37.3,0.2c-8.1,0.1-16.2,0-24.3,0.1c-9.5,0.2-18.9,0.2-28.4,0.2c-13.6,0-27.2,0-40.7,0c-1.5,0-3,0-4.5-0.1
		c-4-0.4-6.6-2.2-5.9-6.8C285.7,516.1,350.4,516.1,415,516.1z"/>
	<path class="st17" d="M318.9,483.8c-24.1,1.1-48.2-13.9-58.9-36.7c-10.8-23-6.8-51,10-69.6c18.4-20.4,46.8-27.1,71.6-17
		c25.6,10.4,41.4,34.9,40.3,62.6c-0.1,2-0.1,4-1,5.9c-2.3,1.2-3.8-0.3-5.2-1.7c-14.5-14.8-30.1-28.7-43.6-44.5
		c-2.1-2.5-4.6-4.2-7.6-5.5c-1.6-1.2-2.9-2.7-4.1-4.3c-2-2.7-3.8-2.2-5.5,0.2c-5.9,8.2-11.8,16.4-15.6,25.9c-4,10-2.9,18.8,5.5,26.1
		c0.5,0.4,0.9,1,1.3,1.5c0.8,2,1.6,3.9,3.5,5.3c1.8,1.4,2.7,3.3,1.4,5.7c-1,1.3-2.5,1.4-4,1.6c-5.7,0.6-9.7,3.5-11.3,9
		c-1.6,5.5,0.6,10,4.9,13.6c0.6,0.5,1.3,1,1.8,1.7c1.8,4.6,6.7,6.2,9.6,9.8c1.6,2.1,3.8,3.7,5.5,5.7
		C318.8,480.4,320,481.8,318.9,483.8z"/>
	<path class="st18" d="M325.9,375.7c2.2-0.1,3,1.9,4.3,3.1c15,14.9,29.9,29.9,44.9,44.9c1.9,1.9,3.9,3.6,5.9,5.4
		c-1,13.9-7.3,25.4-16.7,35.2c-12.3,12.8-27.3,19.7-45.3,19.6c-5.5-6.8-12.8-12-18-19.2c1.4-1.7,3.2-1.3,5-1.2
		c6.4,0.4,11.5-2.5,13.2-7.4c2-5.9,0.2-11.5-5-15.2c-1.5-1-3.3-1.8-3.2-4c-1.3-3.4-5.2-5.2-6-9c2.2-1.7,4.3-0.5,6.6,0.1
		c8.1,2,15.7,0.7,21.7-5.3c6-6,6.8-13.3,3.9-21.2c-1.9-5.2-4.4-10-7.2-14.7c-1.2-2-2.3-4-3.6-6C325.4,379.2,324.6,377.5,325.9,375.7
		z"/>
	<path class="st19" d="M325.9,375.7c3.8,6.4,8.1,12.5,11.2,19.3c5.9,12.7,5.2,21.8-2.3,29.5c-7.6,7.7-17.6,8.9-29.9,3.5
		c-11-9.5-12.9-17.9-6.9-31.4c4.2-9.6,10.1-18.3,16.5-26.5c2.4-3.1,4.3-3.6,6.7-0.1C322.6,371.9,324.4,373.8,325.9,375.7z"/>
	<path class="st20" d="M310.9,436.9c5.3,1.7,9.5,4.7,11,10.4c2.9,11.2-6.3,20.8-17.7,18.2c-1.1-0.3-2.2-0.6-3.4-0.9
		c-6-3.6-8.8-8.9-7.7-15.8c0.9-5.9,4.5-9.9,10.4-11.4C305.9,436.9,308.5,437.1,310.9,436.9z"/>
	<path class="st21" d="M343,451.1c0,3.8-0.1,7.6,0,11.4c0.1,2.3-0.7,3.2-3.1,3.2c-2.5,0-3-1.1-3-3.3c0.1-7.6,0.1-15.2,0-22.8
		c0-2.3,0.7-3.2,3.1-3.2c2.5,0,3.1,1,3,3.3C342.9,443.4,343,447.3,343,451.1C343,451.1,343,451.1,343,451.1z"/>
	<path class="st22" d="M332,455.3c0,2.5-0.1,5,0,7.5c0.2,2.6-1.1,3-3.3,3c-2.3,0-2.8-1-2.8-3c0.1-4.8,0.1-9.6,0-14.4
		c0-2,0.6-3,2.8-3c2.2,0,3.5,0.5,3.3,3C331.8,450.6,332,453,332,455.3z"/>
	<path class="st23" d="M328.8,436.4c1.9,0.2,3.4,1,3.6,3.1c0.2,2.1-1,3.5-3,3.7c-2.3,0.3-3.9-0.9-4-3.2
		C325.3,437.9,326.7,436.7,328.8,436.4z"/>
	<path class="st24" d="M299.9,451.3c0-5.6,2.9-8.9,7.7-9c4.9-0.1,8.3,3.7,8.2,9.1c-0.1,5.6-3.2,9-8.4,8.9
		C302.6,460.3,299.9,457,299.9,451.3z"/>
</g>
</svg>
