<?xml version="1.0" encoding="utf-8"?>
<!-- Generator: Adobe Illustrator 19.0.0, SVG Export Plug-In . SVG Version: 6.00 Build 0)  -->
<svg version="1.1" id="Calque_1" xmlns="http://www.w3.org/2000/svg" xmlns:xlink="http://www.w3.org/1999/xlink" x="0px" y="0px"
	 viewBox="0 0 612 792" style="enable-background:new 0 0 612 792;" xml:space="preserve">
<style type="text/css">
	.st0{fill:#EB1C24;}
	.st1{fill:#3186C7;}
	.st2{fill:#E5E5E5;}
	.st3{fill:#ECB644;}
	.st4{fill:#BABCBE;}
	.st5{fill:#A9ABAD;}
	.st6{fill:#422E39;}
	.st7{fill:#EDB642;}
	.st8{fill:#BBBDBF;}
	.st9{fill:#A9ABAC;}
	.st10{fill:#364A5E;}
	.st11{fill:#808183;}
	.st12{fill:#EE4D5B;}
	.st13{fill:#EC4D5B;}
	.st14{fill:#EB4F5D;}
	.st15{fill:#EE4D5C;}
	.st16{fill:#EA4E5D;}
	.st17{fill:#EF4C5C;}
	.st18{fill:#EE5161;}
	.st19{fill:#EE5160;}
	.st20{fill:#ED5060;}
	.st21{fill:#A6A8AB;}
	.st22{fill:#3E3C5D;}
	.st23{fill:#1A1731;}
	.st24{fill:#C3A66F;}
	.st25{fill:#E1DCDD;}
	.st26{fill:#BABBBD;}
	.st27{fill:#929497;}
	.st28{fill:#E0DBDB;}
	.st29{fill:#E0DBDC;}
	.st30{fill:#DCEAF5;}
	.st31{fill:#EAF2F8;}
	.st32{fill:#3186C6;}
	.st33{fill:#ECB542;}
	.st34{fill:#B29866;}
	.st35{fill:#EAEEEF;}
	.st36{fill:#3F3D5D;}
	.st37{fill:#96A4A4;}
	.st38{fill:#CCA349;}
	.st39{fill:#858688;}
	.st40{fill:#818283;}
	.st41{fill:#96A0A8;}
	.st42{fill:#E9EDEE;}
	.st43{fill:#DEE1E3;}
	.st44{fill:#BF7541;}
	.st45{fill:#961113;}
	.st46{fill:#B54D19;}
	.st47{fill:#5B5C5E;}
	.st48{fill:#5F6062;}
	.st49{fill:#E0DCDC;}
	.st50{fill:#DBD7D8;}
	.st51{fill:#DDD8DA;}
	.st52{fill:#B9BBBD;}
	.st53{fill:#696974;}
	.st54{fill:#DAD6D7;}
	.st55{fill:#6F6F7D;}
	.st56{fill:#9E521E;}
	.st57{fill:#58595B;}
	.st58{fill:#8A8C8F;}
	.st59{fill:#59595A;}
	.st60{fill:#939598;}
	.st61{fill:#57585A;}
	.st62{fill:#DFDADB;}
	.st63{fill:#7B7B7E;}
	.st64{fill:#333146;}
	.st65{fill:#AAB6B8;}
	.st66{fill:#9AA9AA;}
	.st67{fill:#9CABAC;}
	.st68{fill:#46AC85;}
	.st69{fill:#41A67C;}
	.st70{fill:#35A77E;}
	.st71{fill:#E8C627;}
	.st72{fill:#E0BF22;}
	.st73{fill:#EAC623;}
	.st74{fill:#E6C62D;}
	.st75{fill:#E6C016;}
	.st76{fill:#E2C21A;}
	.st77{fill:#242021;}
</style>
<g>
	<path class="st0" d="M417,205c2.3-1,4.6-2.1,6.8-3.1c3.4-1.1,3.4,2,4.7,3.5c0-1.7-2.2-3.4-0.5-5.4c2.3-1,4.6-2.1,6.9-3.1
		c3.7-1.2,3.1,2.5,4.4,3.6c-0.1-1.6-2.4-3.4-0.4-5.5c2.6-1.1,5.1-2.2,7.7-3.4c2.8-0.2,2.3,2.7,3.6,3.8c-0.5-1.8-1.9-3.5-0.3-5.4
		c2.6-1.1,5.3-2.2,7.9-3.3c2.3,0.8,2.5,3.2,3.7,4.8c-0.1-2-2.6-4-0.5-6.3c5.2-2.3,10.3-4.7,15.5-6.8c9.7-4,20.4-0.4,25.2,8.9
		c7.9,15.1,15.6,30.3,23.1,45.7c5,10.2,0.8,21.5-9.5,26.4c-4.3,2.1-8.8,3.8-13.2,5.7c-2.8,3.5-7.1,4.5-10.9,6.1
		c-31.5,14.3-63.3,28-95,41.9c-1.9,0.8-3.9,2-6.2,1.6c-2-0.9-1.2-2.5-0.9-3.9c1.6-8.5-1.7-14.9-8.2-20c-1.4-1.1-3.9-1.7-2.7-4.4
		c12.8-6.8,12.1-18.7,10.8-30.4c-1.2-10.7-3.2-21.3-2.4-32.1c1.2-7,5.8-10.3,12.4-11.6c1.3-0.4,2.7-0.8,4-1.2
		c3.2-0.1,2.3,3.4,3.9,4.5c-0.4-1.8-2.4-3.5-1-5.7c3-1.4,6-2.7,9.1-4.1c1.5,1.1,1.5,3.2,2.8,4.7C417.3,208.6,415.5,207,417,205z"/>
	<path class="st1" d="M494.2,571c-25.1,20.1-52.7,23-82.3,11.7c-1.5-0.6-3.1-1.3-4.6-1.9c-4-0.7-7.6-2.1-9.4-6.3
		c-0.6-7-0.3-13.9-0.2-20.9c0-3.7,1.4-6.9,4.9-8.6c2.8-1.3,2.8-3.2,1.9-5.7c-1.4-4.3-3.2-8.4-4.6-12.6c-0.7-2.2-1.6-4.4-0.4-6.7
		c3.9-3.2,8.7-4.3,13.3-5.7c1.3-0.4,2.6-0.2,3.6,0.8c2.6,7.2,3.5,14.9,5.1,22.3c0.9,4.3,2.7,6.2,7.3,6.1c11.8-0.2,23.6-0.2,35.4,0
		c4.6,0.1,6.5-1.7,7.2-6.1c0.9-5.6,2.4-11.1,3.5-16.6c0.4-2.1,0.6-4.3,2.3-5.9c1.9-1.2,3.3-0.3,4.7,0.9c4,1.6,7.9,3.2,11.9,4.8
		c1.1,1.9,0.2,3.6-0.5,5.2c-1.8,4.5-3,9.2-4.9,13.6c-1.1,2.6-0.9,4.3,1.9,5.6c3.4,1.5,5,4.4,4.8,8.1
		C495,559.1,496.5,565.2,494.2,571z"/>
	<path class="st2" d="M152.8,509c0.1-16.1-10.1-28.9-14-43.8c-4.9-18.8-8.3-37.7-7.9-57.3c0.4-18,2.3-35.6,7.9-52.7
		c1.2-3.8,0.7-5.8-4.1-5.2c-2.2,0.3-4.7,0.8-6.8-0.6c1.1-1.6,2.8-1.8,4.4-1.8c10-0.2,20-0.2,30,0c1.7,0,3.4,0.2,4.6,1.6
		c-7.5,7.7-8.3,18-10.4,27.6c-3.3,14.8-3.7,30-2.9,45.1c-0.2,3.8-3,6.6-4.3,10c-2.3,6.2-1.4,12.3-0.4,18.6c1.3,8.7,4.4,17,5.4,25.8
		c0.3,8.8,0.3,17.7,0.2,26.5C154.5,504.8,154.9,507.3,152.8,509z"/>
	<path class="st2" d="M480.7,455.2c13.4-10.5,23.5-23.8,32.3-38.2c-0.9,33.1-10.6,63.5-27.5,91.8c-1.3,2.2-2.3,4.7-3.5,7
		c-1.4-0.3-2.8-0.6-4.2-0.9c-5.6,0.2-10.2-2.1-14.5-5.2c-1.1-2.6-0.8-5.3-0.5-7.9c0.5-2.6,2.4-4.3,4.1-6c2.5-2.4,4.6-5.2,6.3-8.2
		c1.1-1.9,2.5-3.4,4.3-4.7c7.1-5,7.7-8.6,2.8-15.5c-0.5-0.7-0.9-1.4-1.1-2.2c0.1-2.6,0-5.2-0.2-7.8
		C479.3,456.5,479.7,455.6,480.7,455.2z"/>
	<path class="st3" d="M166.9,350.1c-0.6-1.1-1.6-1-2.6-1c-12.1,0-24.2,0.1-36.3,0.1c-2.1-2.2-1.6-5-1.6-7.5
		c-0.1-21.3,0-42.6-0.1-63.9c0-4.2,1.1-6.3,5.7-5.9c3.3,0.3,6.6,0.1,10,0.1c0.4,0.4,0.6,0.9,0.5,1.5c-0.2,1.7-0.7,3.4-2.5,4.2
		c-7.3,1.5-7.3,1.5-7.4,9.4c0,16.3,0,32.7,0,49c0,7,0.1,7.1,7.4,7.2c10.7,0,21.3,0,32,0c5.1-1.2,8.1-4.5,9.5-9.4c0.1-16,0-32,0-48
		c0-6.6,0-6.6-6.6-8.1c-2.2-1.3-2.8-3.4-2.9-5.8c5.1,0.3,10.2-1,15.2,0.8c1.4,8.2,0.4,16.4,0.6,24.6c0.1,2.1,0.1,4.3,0.2,6.4
		c2,2.1,1.4,4.7,1.5,7.2c0.2,6.6,0.2,13.1,0,19.7c0.2,4.3,0.1,8.6,0,12.8c-0.1,2.4-0.4,4.6-2.8,6c-5.9,1.7-12.1-0.2-18,1.6
		C167.9,351.4,167,351.3,166.9,350.1z"/>
	<path class="st4" d="M183,578.1c-2.9-8.9,4.6-18.8,15-20.2c5-2.6,9.3-0.3,12.8,2.8c3.4,3.1,7,3.9,11.4,3.8c10.5-0.2,21-0.1,31.5,0
		c8.5,0,17-0.1,25.4,0c4,0.1,7.4-0.8,10.7-3.2c5.3-4,11.1-5.1,17.3-1.8c1.8,0.9,3.4,2.1,4.4,3.9c1,1.6,0.8,2.8-1.1,3.4
		c-0.3,0.1-0.6,0.3-1,0.2c-7.3-1.2-11.7,2.8-15.3,8.4c-2.7,1.1-5.5,1-8.2,0.3c-2-0.9-1.9-2.8-2-4.8c-0.8,1.9-0.8,4.3-3.3,5
		c-8,1-16,0.4-24,0.5c-10.3,0.1-20.7,0.1-31,0c-2.8,0-5.8,0.3-7.6-2.6c-0.4-0.9-0.9-1.7-0.9-2.8c-0.1,1.6,0.3,3.5-1.5,4.5
		c-1.7,0.7-3.5,0.7-5.2,0c-1.8-1.1-2.5-3.1-3.6-4.7c-4.3-6.8-11-6.8-15.2,0c-1,1.5-1.7,3.3-3.2,4.4
		C186.5,576.2,184.6,576.7,183,578.1z"/>
	<path class="st5" d="M218.1,572c1.1,2.3,2.7,3.1,5.4,3.1c19.5-0.2,38.9-0.1,58.4-0.1c1.3,0.8,1.5,2.1,1.9,3.4
		c0.3-1.2,0-2.6,1.2-3.4c3,0,6,0,9,0c1.5,0.4,2.5,1.2,2.1,2.9c1.8,6.2,6.8,5.1,11.4,5.2c1.4,0,3.5-0.9,3.9,0.9
		c0.4,1.5-1.5,2.3-2.8,3.1c-7.2,4.4-13.9,3.8-19.9-2.1c-1.6-1.5-3.1-2.2-5.3-2.2c-13.8,0.1-27.6,0.1-41.4,0.1c-6,0-12-0.1-18-0.1
		c-5.4,0-10,0.1-14.7,4.7c-7.5,7.4-23.8,4-26.4-9.6c-0.2-4,2.8-2.9,5-3c1.7,0.3,2.4,1.6,3.3,2.8c4.9,7.1,11.1,7.1,15.9,0.1
		c0.8-1.2,1.4-2.7,3.1-2.9c1.9,0,3.8-0.1,5.7-0.1c1.5,1.4,0.9,2.9,0.2,4.5C218.1,577.2,215.8,574,218.1,572z"/>
	<path class="st6" d="M152.8,509c0.1-11.3,0.2-22.7,0.3-34c2.6,0.1,3,2.4,3.7,4.1c3.7,8.8,9.6,13.6,19.7,12.5c4.9-0.5,10-0.1,15-0.1
		c2.1,0,4.4-0.2,6.1,1.5c1.8,5.4,1.4,10.9,0.5,16.2c-0.7,4.7-4.5,6.6-9.1,7.1c-5.5,0.3-11,0.3-16.5-0.1c-4.4-1-8.7-2-13.3-1.9
		c-2,0.1-4-0.3-5.1-2.4C153.6,511,153.2,510,152.8,509z"/>
	<path class="st5" d="M188,546.1c-1.4-0.1-2.7-0.2-4.1-0.3c-0.6-4.3-0.1-8.2,2.8-11.6c2.1-0.9,4.2-0.8,6.4-0.8c23.9,0,47.8,0,71.8,0
		c2.2,0,4.3-0.1,6.4,0.7c2.6,3.8,4.2,7.9,3.1,12.6c-2.4,1.1-4.9,0.9-7.4,0.9c-15.3,0-30.6,0.1-45.9-0.1c-8.8,0.2-17.6,0-26.4,0.1
		C192.3,547.6,190.1,547.3,188,546.1z"/>
	<path class="st7" d="M494.2,571c0-6-0.1-11.9-0.1-17.9c0-4-1.7-6.9-5.8-7.4c-3.2-0.4-2.7-1.9-2-4c2.6-7,5.1-14,7.6-21
		c5.3,1.6,10.3,3.8,15.1,6.4c4.8,2.6,8,14.7,5.4,19.5C509.3,556.1,502.7,564.3,494.2,571z"/>
	<path class="st2" d="M188,546.1c11,0,22.1,0,33.1,0c10,5.4,19.1,12.5,29.7,16.7c1.4,0.6,3.4,0.8,3.2,3.1c-11.8,0-23.6,0-35.3,0.1
		c-2.9,0-5.2-0.6-7.3-3c-3.4-4-8.1-5.5-13.4-5.2c0.4-4.5-3.8-5.6-6-8.1C190.8,548.4,188.9,547.8,188,546.1z"/>
	<path class="st8" d="M154,512c5.9,1.4,12.3,0.1,17.9,2.9c4.5,1.7,7.5,4.8,9.5,9.1c1.5,3.6,4.1,7.1,1.7,11.4c-2.5,1.4-5.2,1.3-7.9,1
		c-2.6-3-4.1-6.8-6.4-10c-3.2-4.5-14-4.5-17,0.2c-2.1,3.2-3.4,6.8-5.9,9.8c-2.7,0.3-5.4,0.5-7.8-1.3c-0.1-9.3,4.3-15.9,12.3-20.2
		C151.8,514.1,153.9,514.3,154,512z"/>
	<path class="st9" d="M175.1,536c2.4-1.6,5.2-0.8,7.7-1.1c1.9,4.4,1,7.6-2.8,11c-4.6,8.2-11.9,12.3-20.9,11.6
		c-9.9-0.7-17.1-6.3-20.4-16.2c-0.7-2.1-0.8-4.2-0.6-6.3c2.6,0.1,5.3-0.7,7.7,1c3.1,1,3.7,4.1,5.2,6.4c4.1,6.2,14.8,6.3,18.8,0
		C171.3,540.1,172.1,537.1,175.1,536z"/>
	<path class="st10" d="M141.8,273c0.1-0.3,0.1-0.6,0-0.8c1.2-1.1,2.3-2.2,4.2-2.1c3.4,0.2,7.2,1.1,7.7-4.4c0.1-1.4,2-2,3.7-1.8
		c1.7,0.2,3.2,1.2,3.2,2.6c-0.1,4.6,3,3.7,5.6,3.6c2.2,0,4.3-0.3,5.6,2c2.2,1,1.9,3.1,2.4,4.9c0.4,1.1,0.1,1.9-1.1,2.2
		c-0.4-0.2-0.8-0.5-1.1-0.9c-0.3-0.4-0.6-0.7-1-1c-7.8,0-15.7,0.2-23.5,0C144.8,277.3,141.8,277.2,141.8,273z"/>
	<path class="st11" d="M180,546c1.8-3.5,3.1-7,2.8-11c0.5-4-0.9-7.4-2.8-10.8c0.9-1.1,2-1.1,3.1-0.7c4.1,3.8,4.8,6.6,3,11.5
		c0.3,3.8-1,7.3-2.2,10.9C182.6,545.9,181.3,545.9,180,546z"/>
	<path class="st12" d="M461.1,185.2c-0.3,2.8,1.9,4.8,2.3,7.4c0.2,1,0,1.7-1,1.9c-0.7,0.2-1.1-0.4-1.4-1c-1-2.3-2-4.5-3-6.7
		C459,186.3,460,185.8,461.1,185.2z"/>
	<path class="st13" d="M428,200.1c0.8,2.1,1.5,4.3,2.3,6.4c0.3,0.9,0.9,1.9-0.6,2.3c-1,0.2-1.3-0.6-1.7-1.3c-1.1-2.1-1.1-5-4.1-5.5
		C425,200.8,426.4,200.1,428,200.1z"/>
	<path class="st14" d="M439,195.1c-0.3,2.5,1.4,4.3,2.2,6.4c0.3,0.7,0.9,1.6,0,2.1c-1.1,0.6-1.7-0.1-2.3-1c-1.3-1.9-0.7-5.1-3.9-5.6
		C436.1,196,437.4,195.2,439,195.1z"/>
	<path class="st15" d="M450,190.1c-0.3,2.4,1.4,4.3,2.1,6.4c0.3,0.7,1,1.6,0,2.1c-1,0.6-1.8,0-2.3-1c-1-2-2.1-4-3.2-5.9
		C447.6,190.8,448.8,190.3,450,190.1z"/>
	<path class="st16" d="M405.9,209.8c0.7,1.8,1.5,3.6,2.2,5.5c0.4,1.1,1.3,2.3-0.2,2.9c-1.5,0.6-1.7-1.1-2.2-2
		c-0.9-1.7-1-3.9-2.7-5.2C403.7,210,404.8,209.9,405.9,209.8z"/>
	<path class="st17" d="M417,205c0.8,2,1.6,3.9,2.4,5.9c0.4,1,0.7,2-0.5,2.5c-1,0.4-1.5-0.5-1.8-1.2c-0.9-2.1-2.4-3.9-2.1-6.4
		C415.4,204.8,416.2,205,417,205z"/>
	<path class="st18" d="M510.8,279c-2.7-4.7-5.8-9.2-8.7-13.9c-3.8,1.7-7.6,3.4-11.4,5.1c15,17.9,24.1,38.7,27,61.7
		c5.2,40.8-6.6,76.2-34.8,106.2c-0.9,1-2,1.8-2.9,2.7c-0.2,0-0.3-0.1-0.4-0.1c-0.2,0.3-0.4,0.7-0.6,1c-0.5,4.5-1.4,8.9,0.7,13.2
		c2.4,1.5,3.6-0.5,5.2-1.6c5.6-4.2,10.2-9.6,14.6-14.9c5.4-6.5,10.9-13,13.5-21.3c0.7-1.5,1.4-3,2.1-4.5
		C537,367.3,535.5,322.7,510.8,279z"/>
	<path class="st19" d="M417.1,484.5c-4.1-2.4-6-7.2-10-9.7c-0.8-0.2-1.6-0.2-2.4-0.2c-3.3-0.1-6.7-0.1-10,0
		c-25.8,0.8-49.4-6.2-70.9-20.3c-20.5-13.4-35.6-31.4-45.7-53.7c-8.3-18.4-11.6-37.8-10.8-57.9c0.1-2.9,0.4-5.8,0.9-8.6
		c-0.8-0.8-1.1-2.1-0.4-4.1c7.6-44.1,31.8-75.7,71.8-95.2c15.2-7.4,31.4-10.8,48.2-11.6c1.2-6.3,6.5-8.3,11.2-11c-1-0.1-2-0.2-3-0.2
		c-17.6-0.8-34.4,2.7-51,8c-4.7,0.8-9.1,2.6-13.4,4.7c-8.6,4.3-16.6,9.5-24.3,15.2c-3.5,3-7.2,5.8-10.6,9
		c-14.3,13.6-24.7,29.8-32.8,47.6c-4.2,10.7-7.1,21.7-9,33c-0.4,2-0.4,4-0.6,5.9c-2.6,24.6,1.2,48.2,11.3,70.8
		c1.5,2.7,2.9,5.3,4.2,8.1c3.8,7.4,8.3,14.3,13.4,20.9c2.5,2.6,4.4,5.8,7.2,8.2c3.4,3.3,6.7,6.6,10,10c1.1,1.1,2.2,2.2,3.5,3.1
		c2.7,1.9,5.3,3.8,7.9,5.9c1.5,0.9,2.8,2.1,4.3,3.2c3.5,2,7.1,4.1,10.7,6c1.9,1,3.5,2.3,5.5,3.1c1.4,0.5,2.8,1.1,4.1,1.8
		c16.5,7.5,33.8,11.7,52,11.8c2.3,0,4.6,0,6.9,0c7.2,0.1,14.5,0.5,21.4-2.6C416.9,485.4,417.4,484.7,417.1,484.5z"/>
	<path class="st19" d="M425,241.1c-0.1-18,14.2-29.4,29-26.8c13.1,2.3,23.5,13.6,26,27c2.2,11.7-0.2,22-9.7,29.4
		c-12.8,9.8-31.3,4.7-40.3-10.6C426.5,254.1,425,248.2,425,241.1z"/>
	<path class="st20" d="M361.8,295.8c1.8-4.3,6.4-3.9,9.6-5.8c2.1-1.2,4.5-1.8,6.7-2.7c6.1,3.5,10.4,8.3,12.3,15.3
		c1.1,4.1-0.5,7.7-0.4,11.5c-3.4,2.2-7.1,3.8-10.9,5c-0.2-0.1-0.4-0.3-0.6-0.4c-1.1-1.6-0.9-3.4-0.5-5.2c0.7-3.6-0.4-6.8-1.8-9.9
		C373.9,296.5,368.7,294.6,361.8,295.8z"/>
	<path class="st2" d="M398.9,575.1c-0.4-0.5-0.7-1.2-1.2-1.5c-3.7-2.3-5.8-7.1-10.6-7.7c0,0,0,0,0,0.1c-5.4,4.6-12.2,5.8-18.6,7.6
		c-17.7,4.8-35.7,7.3-54.1,6.4c-6.1-0.3-12.2-1.3-18.2-2c0-0.1-0.1-0.1-0.1-0.2c0,0,0,0,0,0c0.2,8.4,7.5,5.7,12.4,7.2
		c-6.5,4.7-12,4.7-17.8-0.1c-2.9-2.4-5.9-3.4-9.6-3.4c-11.1,0.1-22.3,0-33.4,0c-2,0-4-0.2-5.6,1.4c0.5,0.4,1,0.9,1.6,1.2
		c22.3,10,45.7,15.2,70,16.8c15.3,1,30.6-0.4,45.5-3.5c16.7-3.4,33.1-8.5,48.2-16.7C404.8,578.5,401.2,577.8,398.9,575.1z"/>
	<path class="st21" d="M405,475.7c-40.5,3.2-75.5-9.3-103.8-38.4c-19.6-20.2-31.2-44.7-34.4-72.9c-0.8-7.2-0.7-14.2-0.7-21.4
		c1.3-1.3,2.9-1.5,4.6-1.5c15.6-0.1,31.3-0.2,46.9,0.1c0.7,0,1.3,0.2,1.9,0.4c3.1,1.4,1.3,3.3,0.4,4.9c-2,3.2-3.2,6.5-4,10.1
		c-0.6,2.7-0.7,5.3,0.8,7.7c1.1,8,6,13.6,12.2,18.1c11.7,8.6,25.2,12.8,39.6,13.7c10.6,0.7,21.3,0.2,31.7-2.5
		c4.8-1.2,6.1-0.2,6.1,4.8c0.2,24.1,0.1,48.3,0,72.4C406.4,472.8,406.3,474.5,405,475.7z"/>
	<path class="st22" d="M350.8,493.1c-16.6-0.1-33.3-0.3-49.9-0.3c-33.5-0.1-66.9,0-100.4,0c-1.2,0-2.3,0.2-3.5,0.3
		c-7.3,0-14.6,0-21.9,0c-10.7,0-15.5-3.2-19.6-13.2c-0.7-1.7-0.8-3.6-2.4-4.8c-2-9.1-4.3-18-6-27.2c-1.8-9.6,0.4-18.1,6-25.8
		c-0.1-2.2,1.4-3.6,2.8-5c5.3-5.5,10.7-10.7,17.5-14.3c1.1-0.6,1.3-1.9,2.4-2.3c5.7,1.2,6.8,3.1,4.5,8.1c-1.4,3.1-3.2,6.2-3.6,9.7
		c-0.2,2-0.5,4,0.8,5.7c0.6,0.8,1.4,1.5,2.5,1.2c0.9-0.3,0.8-1.3,0.9-2.1c0.1-1.6-0.2-3.3,0.3-4.9c0.3-1.1,0.4-2.9,2.5-1.8
		c1.1,1.8,0.8,3.8,1,5.8c0.3,5.1,1.3,5.7,6.3,6.2c10,1,20.1,2,30.1,2.8c18.3,0.6,36.5,2.1,54.8,2.3c2.8,0,5.7,0,8.3,1.2
		c2.3,2.7,4.6,5.4,6.9,8c-2,2.5-4.8,1.8-7.4,1.8c-19.5,0.1-38.9,0-58.4,0.1c-3.2,0-6.4,0-8.9,2.4c-0.8,0.8-1.7,1.8-1.5,3
		c0.3,1.4,1.8,1.4,2.9,1.4c14.1,0.1,28.3,0.2,42.4-0.1c2.1,0,3.8-1.1,5.5-2.2c5.8-3.6,11.6-3.8,17.3,0.2c2.6,1.8,5.5,2.2,8.5,2.2
		c3.3,0,6.7-0.4,9.8,1.4c1.1,0.9,2.1,1.8,3.2,2.8c-1.6,2.4-4.1,1.7-6.3,1.8c-2.3,0.2-4.6,0-6.9,0.1c-0.8,0-1.8-0.1-1.9,1.1
		c0,1,0.8,1.4,1.6,1.6c1.9,0.5,3.9,0.2,5.9,0.4c5.2,0.3,10.6-1,15.6,1.4c1.7,0.3,2.8,1.7,4,2.7c-1.4,2.3-3.8,1.8-5.8,1.9
		c-5.6,0.1-11.3,0-16.9,0.1c-2,0-4.3-0.3-5.8,1.9c1.5,1.6,3.3,1,4.8,1c8.1,0.1,16.2,0.1,24.4,0c3.3,0,6.6,0.3,9.8,1.3
		c1.8,0.9,3.6,1.9,5.4,2.8c-1.8,2.5-4.5,1.9-6.9,1.9c-11.2,0.1-22.3-0.3-33.5,0.1c-23.6,0.9-47.3-0.7-70.9,0c-2,0.1-5.3-0.9-5.6,1.5
		c-0.4,3,2.9,4.1,5.4,4.8c1.9,0.6,4,0.5,6,0.5c31.7,0,63.3-0.2,95,0.2c6.7,0.1,10.3-3.8,14.5-7.3c16.5,7.2,33.8,11.3,51.8,12
		c0,3-2.1,4.7-4.5,5.3C372.6,495.6,361.7,495.5,350.8,493.1z"/>
	<path class="st23" d="M256.2,329.1c-3.5,27,0.2,52.9,10.9,77.9c-1.6,1.6-3.6,1.4-5.6,1.5c-4.5,0.1-9,0.1-13.4,0
		c-6.5-0.1-12.4,1.4-17.3,6.2c-4.4,4.2-9.8,3-15.1,2.2c-1.4-0.6-1.6-1.9-2-3.2c-2.4-7.9-10.4-10-16.5-4.4c-0.8,0.8-1.4,1.8-2.5,2.4
		c-0.5,0.2-1.1,0.4-1.6,0.5c-3.5,0.1-4-1.8-3.7-4.8c1.2-12.8,3.1-25.6,4.7-38.4c1.1-9,2.1-18,3.4-27c0.2-4.2,0.3-8.5,2.5-12.4
		c3.9-1.7,8.2-1.8,12.2-1.9c9.8-0.2,19.5-1.8,29.4-1.2c3.3,0.2,6.6-0.7,9.9-0.7C253.8,325.7,256.6,325.4,256.2,329.1z"/>
	<path class="st8" d="M405,475.7c0-25.6-0.1-51.3,0.1-76.9c0-3.8-0.5-4.6-4.6-3.7c-25.4,5.8-49.7,4.2-72-10.9
		c-5.6-3.8-9.8-8.9-12.5-15.1c-0.9-2,0.1-3.5,0-5.3c-1-4.5,2.2-7.4,4.6-10.2c4.8-5.4,4.9-5.3,0.5-10.6c-18.3,0-36.6,0-54.9,0
		c-0.2-4.4,0.6-8.7,1.7-12.9c-0.1,2.5,0.6,4.2,3.6,3.8c10.7-1.1,21.4-0.2,32.1-0.4c8.3-0.1,16.8-0.3,25.2,0.1
		c10.7,0.6,21.5,0.2,32.2,0.1c0.9,0,1.9-0.6,2.8-0.8c2.6,2.6,0.6,5.6,0.6,8.4c0,2.1,0.1,4.3-0.4,6.4c-0.1,0.5-0.4,1-0.7,1.4
		c-2.1,1.8-4.9,1.8-7.4,2.4c-3.9,0.9-7.6,1.9-10.9,4.3c-3.6,2.6-5.5,5.6-3.8,10.1c0.5,3.1,2.7,4.9,5.3,6.2
		c13.4,6.4,26.9,6.2,40.3,0.4c2.6-1.1,4.9-2.8,5.8-5.7c1.5-6.5-0.4-9.9-7.2-13.1c-2.3-1.1-5.3-0.9-7.1-3.1c-0.3-0.5-0.5-1-0.6-1.6
		c0.1-5.1-1.7-10.3,1.4-15.1c17.7-0.7,33.7,14.9,33.8,34.5c0.1,22.1,0,44.2,0,66.3c0,1.8-0.5,3.7,0.8,5.3c1.9,5.4,0,11.1,1,16.6
		c0,2.7-0.3,5.3-0.6,7.9c-2.4,3.6-3.6,8.1-7,11.1C406.4,475.7,405.7,475.7,405,475.7z"/>
	<path class="st2" d="M313.5,218.8c-13.6,0-26.9,2.3-39.7,5.7c-27.7,7.4-52.9,20.1-74.9,38.8c-3.8,3.3-6.8,7.8-11.8,9.6
		c-1.3,10-0.9,19.9-0.1,29.9c0.4,0.5,0.8,0.9,1.1,1.1c1.9-0.8,2.5-2.8,3.8-4.2c21-23.8,46.2-41.3,76.5-51.5
		c11.7-3.9,23.8-5.6,35.8-8c1.3-0.3,2.7-0.5,3.7,0.7c0,0,0,0,0,0c11.4-8.6,23.9-15.4,37.1-20.8C334.5,219,324.1,218.8,313.5,218.8z"
		/>
	<path class="st24" d="M407.1,475.6c1.5-3.8,2.7-7.8,6-10.7c3.3-8.5,10.7-11.4,18.5-13.6c13.5-3.8,26.7-2.8,39.3,3.7
		c4.3,2.2,7.6,5.3,9.1,10.1c4.1,3.9,6.8,8.1,3.7,13.9c-0.5,0.9-0.9,2-1.7,2.4c-8.5,4.4-10.8,14.3-18.1,19.7c-2.2,1-2.5-0.7-2.9-2.1
		c-0.5-1.6,0-3.3-0.9-4.8c-0.3,0.3-0.9-2.9-0.9,0c0,5-1.7,8.7-6.4,10.8c-1.7,0.7-3.4,1.3-5.2,0.1c-0.4-0.3-0.5-1-1.5-0.8
		c-7.5,1.6-10.9-0.8-12-8.2c-0.1-1-0.1-2,0.1-4c-1.5,3.9-0.3,7.2-1.7,10c-2.5,3.6,0.1,8.1-2,11.8c-2.6,0.8-2.7-1.3-3.4-2.8
		c2.5-3,3.1-9.4,0.6-11.7c-4.6-4.1-7.5-9.2-10.7-14.3C411.9,483.7,410,479.1,407.1,475.6z"/>
	<path class="st22" d="M203,307.1c20.3-6,41-9.8,62.2-10.9c-3.7,10.8-7,21.6-9,32.9c-0.9-3.1-3.6-2.3-5.4-1.9
		c-4.6,1.1-9.3,0.6-13.9,0.8c-12.2,0.7-24.4,1.4-36.7,2.1C199,322.2,200.3,314.6,203,307.1z"/>
	<path class="st25" d="M336.1,475.3c-2,6.2-6.3,8.8-12.8,8.7c-33.1-0.2-66.3-0.1-99.4,0c-4.7,0-8.5-1.4-10.9-5.6
		c-1.8-3-1.8-4.8,2.6-4.8c16.3,0.2,32.6-0.1,49,0.1c22.5,0.3,45-0.3,67.5-0.2C333.4,474.2,334.8,474.7,336.1,475.3z"/>
	<path class="st6" d="M350.8,493.1c8.3,0,16.6,0,25-0.1c4.9,0,9.1-1.5,12.1-5.6c2.4,0,4.7,0,7.1,0c0,6.5,0.1,13,0,19.5
		c-0.1,5.3-2.3,7.8-7.5,7.9c-9.8,0.2-19.7,0.2-29.5,0c-5-0.1-7.1-2.6-7.2-7.6C350.7,502.4,350.8,497.7,350.8,493.1z"/>
	<path class="st26" d="M283.9,434.6c-18.5,1-36.8-1-55.2-1.7c-2.9-0.1-6,0.7-8.7-0.9c0.1-7.2,5.2-11.1,10.2-14.9
		c3.6-2.8,8-4.2,12.5-4.4c8-0.4,15.9-0.2,23.9-0.1c1.5,0,3,0.4,4.2,1.4C274.7,421.2,279.3,427.9,283.9,434.6z"/>
	<path class="st25" d="M301,452.8c-4.5,0-9,0-13.5,0.2c-2,0.1-3.3-0.6-4.9-1.9c-5.6-4.8-12.1-4.8-17.6,0.1c-1.7,1.5-3.3,1.8-5.4,1.8
		c-14.6,0-29.3,0-43.9,0c-4.4,0-4.9-1-2.8-4.9c2.3-4.1,5.9-5.4,10.4-5.4c22.5,0.1,44.9,0,67.4,0C294.2,446.1,297.6,449.5,301,452.8z
		"/>
	<path class="st27" d="M270.8,414c-7.1,0-14.3,0.3-21.4-0.1c-14.1-0.7-23.9,5.1-29.4,18.1c-9.6,0.2-19.1-1.5-28.6-2.5
		c-1.4-0.2-2.9-1.2-3.5,1.2c-0.2,0.7-0.4,1.1-1.1,0.2c-2.6-3.2-4.8-6.4-3.8-10.9c0.3-1.3,0.1-2.6,0.2-4c0.9-0.9,1.9-0.9,2.9-0.4
		c1.3,1.2,1.3,2.9,1.4,4.5c0.1,1.6,0.7,2.5,2.4,2.4c3.2,0.1,6.3,0.1,9.5,0c5.9-0.1,5.9-0.1,6.5-6.1c0.1-0.8,0.4-1.6,0.8-2.2
		c1.8-1.1,2.2,0.5,3,1.4c0.8,2,1,4.2,2.2,6c1.5,2.2,3.5,3.4,6.2,3.7c1.2,0.1,2.5-0.3,2.9-1.5c0.6-1.9-1.2-1.5-2.1-1.8
		c-2.9-1.1-5.8-2.2-3.5-6.3c6.4,0.4,12.6,1.1,17.7-4.6c2.9-3.3,7.8-4.1,12.4-4.1c7.3,0,14.5,0,21.8-0.1
		C268.3,409.3,269.5,411.7,270.8,414z"/>
	<path class="st28" d="M326.6,470.8c-14,0-28,0-42.1,0c0.9-4.7,3.3-6.5,8.3-6.2c7.8,0.5,15.6,0.1,23.4,0
		C319.7,466.7,323.2,468.7,326.6,470.8z"/>
	<path class="st29" d="M312.2,461.9c-7.3,0-14.7-0.1-22,0.2c-3.9,0.2-3.2-2.6-3.5-4.6c-0.4-3.1,2.2-1.7,3.4-1.8
		c4.7-0.2,9.3-0.1,14-0.1C307.1,457.4,309.9,459.3,312.2,461.9z"/>
	<path class="st7" d="M427.1,511c2.2-0.1,1.6,2.4,2.9,3.1c1.9,1.6,2.6,4.1,4.3,6c4.4,4.8,9.8,6.6,16.1,5.2
		c6.3-1.4,10.5-5.3,12.1-11.7c0.3-1.3,0.4-2.6,1.6-3.5c4.6,1.7,9.2,3.3,13.8,5c-1.9,8.8-3.9,17.5-5.6,26.3c-0.6,3-1.5,4.2-4.7,4.2
		c-14-0.2-27.9-0.1-41.9,0c-2.7,0-4.2-0.5-4.8-3.6c-1.6-9-3.6-17.9-5.4-26.8C419.2,513.1,423.1,512,427.1,511z"/>
	<path class="st7" d="M387,566c-0.3-0.4-0.5-0.9-0.9-1.2c-12.5-9-10.2-20.7-6-32.8c0.9-2.7,2.8-4.4,5.3-5.6
		c4.7-2.1,9.4-4.1,14.1-6.2c2.4,7,4.8,14.1,7.3,21.1c0.8,2.2,1.4,3.8-2,4.3c-4.1,0.6-5.7,3.5-5.7,7.5c0,7.3-0.1,14.6-0.1,21.9
		C394.3,573,390.9,569.1,387,566z"/>
	<path class="st30" d="M478,545.5c1.5,0.1,2.4,0.8,2.3,2.2c0,1-0.7,1.8-1.8,2c-1.4,0.2-2.1-0.7-2.3-1.9
		C476,546.3,477.1,545.9,478,545.5z"/>
	<path class="st31" d="M416.9,547.4c0.1,1.2-0.7,2-1.7,2.2c-1.3,0.2-2.2-0.5-2.3-1.9c0-1.2,0.8-1.8,1.9-1.9
		C416,545.7,416.7,546.2,416.9,547.4z"/>
	<path class="st32" d="M413.6,457.2c-1-5.8-0.8-11.5,0.1-17.3c4.1-14.6,15.3-23.1,30.4-23.1c6.1,0,12.3-0.3,18.1,2.4
		c9.4,4.3,14.9,11.8,17.9,21.5c0.2,4.8,0.4,9.7,0.7,14.5c-0.2,0.7-0.4,1.4-0.7,2.1c-1.2,0.1-1.8-0.6-2.4-1.4
		c-8.6-11.6-21.1-13.8-34.3-13.3c-7.8,0.3-15.4,2.5-22.1,7C418.1,451.7,417,455.6,413.6,457.2z"/>
	<path class="st33" d="M413.6,457.2c2.4-6.2,7.4-9.7,13.1-12.1c13.3-5.5,26.8-5.4,40.1,0.1c5.8,2.4,10.4,6.4,13.3,12.1
		c0.3,2.6,1,5.2-0.1,7.8c-7.9-11.5-20.2-14.7-32.7-14.6c-12.5,0.1-25.4,2-33.4,14.1c-0.2,0.2-0.6,0.3-0.9,0.5
		C412.9,462.4,412.7,459.8,413.6,457.2z"/>
	<path class="st34" d="M464.1,510c-0.4,9.6-6.4,16.2-15.5,17c-9.2,0.8-16.9-4.6-18.6-12.9c0-3.5,0-6.9,0-10.4c0-1.3,0-2.5,1.8-1.7
		c4.9,3.9,10.2,6.3,16.8,5.7c7.5-0.6,10.4-3.2,11.1-10.7c0.1-1.5,0-3,1.5-4c2.3,2.2-1.2,6.4,2.7,8C463.9,504,464,507,464.1,510z"/>
	<path class="st35" d="M173,279c1.1-0.2,0.8-1.3,1.3-1.9c10.4,0,8.7-1,8.7,8.6c0,16.8-0.1,33.6-0.2,50.3c-5.2,0.8-8.1,3.8-8.9,8.9
		c-13.1,0.1-26.3,0.1-39.4,0.2c-2.9,0-3.7-1.2-3.7-3.9c0.1-20.1,0.1-40.2,0-60.4c0-3.1,1-4.2,4.1-4c2,0.2,4,0,6-0.1
		c0.2,0.1,0.4,0.3,0.6,0.4c0.4,0.3,0.7,0.6,1.1,0.9c8,0.9,15.9,0.2,23.9,0.4C168.7,278.7,170.9,278.4,173,279z"/>
	<path class="st23" d="M174.8,401.2c-2.6-0.1-5.3-0.3-7.9-0.3c-2.2,0-3.8-0.9-5-2.7c-1.5-2.2-3.4-4.8-2.5-7.2
		c0.9-2.5,4.1-0.7,6.2-1.1c1.3-0.2,2.7,0.1,4-0.1c5-0.8,8.9,0.8,11.5,5.2c1.2-0.4,1.9,0.2,2.6,1.5c-3.9-11.5-8.8-22.2-10.2-34
		c-0.1-0.8-0.3-1.6-0.4-2.5c-0.8-8.5,0.9-10.5,9.4-10.5c1.2,0,2.3,0.1,3.5-0.2c2.2-1.2,1.7-3.3,1.8-5.2c0.1-4.4,0.2-8.8,0.2-13.2
		c3.5-1.8,7.2-2.7,11.1-1.3c1.1,3.8-1.2,7.4-0.6,11.2c-2.9,21-5.3,42.1-7.9,63.2c-0.3,2.1-0.9,4.2-1,6.4c0.3,1.5-0.5,2.5-1.4,3.5
		c-0.6,0.7-1.3,1.5-2.2,1.8c-1,0.1-1.9,0.2-2.9,0.2c-2.5,3.4-0.2,7.4-1.4,11c-6.5-0.8-8-2.9-6.4-9.8c0.7-3,2.2-5.9,3.6-8.7
		C181.3,403.4,180.9,402.6,174.8,401.2z"/>
	<path class="st22" d="M198.7,330.1c-3.6-0.1-7.1,1.5-10.8,0.8c0-6.6,0-13.2,0-19.8c4.3-1.2,8.7-2.3,13-3.5c1.7,1.9,0.9,4,0.6,6.1
		C200.7,319.3,201.1,324.9,198.7,330.1z"/>
	<path class="st36" d="M185.9,349.3c-0.9,0.9-2.2,0.7-3.3,0.7c-7.3,0.2-9.4,3.2-8.2,10.7c1.8,12.1,5.9,23.4,9.9,34.8
		c0.5,1.3,2.8,3.2,0.5,4.1c-2.4,1-0.8-2.6-2.4-3.3c-0.6-0.2-0.9-0.9-1.4-1.4c0.7-2.5-0.5-4.5-1.4-6.6c-4.9-12.3-9.6-24.6-12.1-37.6
		c0.8-2.1,2.7-1.5,4.2-1.5C176.4,349.2,181.2,349.3,185.9,349.3z"/>
	<path class="st37" d="M174,344.9c0-9.9-0.9-8.8,8.9-8.9C180.4,339.5,177.4,342.4,174,344.9z"/>
	<path class="st38" d="M141.8,273c0.8,2.3,2.3,3.1,4.9,3.1c6.9-0.2,13.8,0,20.7-0.1c1.3,0,2.5,0.1,3.7-0.9c1.4-1.1,1.6-0.8,2,1.9
		c-0.9,0.7-2,1.2-3.2,1.2c-8.7,0.2-17.5,0.2-26.2,0c-1,0-1.9-0.4-2.8-1c0,0,0-0.4,0-0.4C141.1,275.6,140.6,274.1,141.8,273z"/>
	<path class="st39" d="M285,575c0.1,2.2,0.3,4.4,0.4,6.9c-3.3-1.5-3-4.5-3.6-7c0.4-2.8,0.4-5.8,3.5-8.2
		C285.2,569.9,285.1,572.5,285,575z"/>
	<path class="st40" d="M218.1,572c-0.1,2.6-0.2,5.2-0.5,7.8c-0.1,1-0.8,2.5-2.3,2c-1.3-0.5-0.4-1.7-0.2-2.5c0.3-1.4,1.1-2.8,0.8-4.3
		c0.8-2.5-1.1-4.9-0.5-7.8C217.7,568.2,217.9,570.1,218.1,572z"/>
	<path class="st2" d="M189,514.9c0.9,4.2,5.1,5.6,7.1,8.9c-4.3,2.8-8.7,2-13.1,0.2c-1,0-1.9,0.1-2.9,0.1c-1.2-4.4-5.4-6.2-8.1-9.3
		C177.6,514.9,183.3,514.9,189,514.9z"/>
	<path class="st8" d="M182.9,524.1c4.4-0.1,8.7-0.1,13.1-0.2c26.3,0.1,52.7,0.1,79,0.2c0,3.9-1.2,7.5-3.1,10.9
		c-28.6,0-57.2,0-85.8,0C186.2,531,185.6,527.2,182.9,524.1z"/>
	<path class="st11" d="M271.9,535c0-3.9,1-7.6,3.1-10.9c1,0,1.9,0,2.9,0.1c0.6,3.8-2.3,7.1-1.6,10.9c-0.6,3.8,2.3,7.1,1.7,10.9
		c-1,0-2,0-3,0C272.3,542.7,271.8,538.9,271.9,535z"/>
	<path class="st41" d="M173,279c-1.2,1.7-3,1-4.6,1c-8,0.1-15.9,0.1-23.9,0c-1.4,0-4.2,1.1-3.5-2.4c10.7,0.1,21.3-0.6,32,0.4
		C173,278.3,173,278.6,173,279z"/>
	<path class="st42" d="M172.9,278c-10.7-0.2-21.3,0.6-32-0.4c0,0,0-0.3,0-0.3c10.7-0.1,21.4-0.2,32.1-0.2
		C173.2,277.4,173.2,277.7,172.9,278z"/>
	<path class="st43" d="M158.8,267.6c-0.3,1.1-1.1,1.7-2.2,1.4c-0.9-0.2-1.5-0.8-1.4-1.7c0.2-1.1,1.1-1.7,2.1-1.4
		C158.3,266,158.9,266.6,158.8,267.6z"/>
	<path class="st44" d="M362.9,348.9c0.3-5.3,0.6-10.6,0.9-16c0.1-6.6,2.7-13.1,0-19.7c1-0.9,1.7-0.2,2.5,0.4
		c3.5,5.7,5.2,6.4,12.4,5.2c0.2,0.1,0.3,0.2,0.5,0.3c-0.8,4.9-0.6,9.8-0.1,14.7c-0.1,5.4-0.2,10.7-0.2,16.1
		C373.4,352.2,368.1,350.9,362.9,348.9z"/>
	<path class="st45" d="M365.9,314.2c-0.7-0.3-1.4-0.6-2.1-0.9c-3.2-5.5-5.4-11.2-2-17.5c6.8-3.7,11.8-1.4,15.4,7.1
		C375.3,308.5,370.5,311.2,365.9,314.2z"/>
	<path class="st46" d="M365.9,314.2c3.8-3.7,7.6-7.5,11.3-11.2c3.7,5,2.1,10.5,1.5,16C373.5,322.6,367.7,320.5,365.9,314.2z"/>
	<path class="st5" d="M278,545.9c-1.8-3.4-3.4-6.9-2.9-11c4.3-2.2,8.5-2.3,12.7,0.1c6.4,12,6.4,12,19.7,11.9c1.3,0,2.5,0,4,0
		C306.3,557.6,286.5,559.7,278,545.9z"/>
	<path class="st8" d="M287.8,535c-4.2,0-8.5-0.1-12.7-0.1c-0.5-4,1-7.5,2.9-10.8c7.9-12.6,26.5-13,33.5-1.1c-4.4,0-8.4,0.2-12.5-0.1
		c-3.3-0.2-5.2,0.8-6.6,3.9C291.2,529.7,289.4,532.3,287.8,535z"/>
	<path class="st47" d="M321.1,343c6.2,2.9,6.6,5.9,1.6,10.3c-3.3,2.8-5.8,6.2-6.8,10.5c-3.2-1.2-1.8-3.9-1.6-5.8
		C315,352.4,317.4,347.4,321.1,343z"/>
	<path class="st47" d="M393.1,407c-1.7-0.1-3.5,0.1-3.5-1.6c0-1.6,1.9-1.5,3.2-1.5c1.3,0,3.2-0.3,3.3,1.4
		C396.3,407.5,394,406.7,393.1,407z"/>
	<path class="st48" d="M303.2,350.2c-1.6-0.1-3.4,0.1-3.4-1.6c0-1.7,1.8-1.7,3.1-1.6c1.4,0,3.5-0.3,3.4,1.8
		C306.1,350.5,304.2,349.9,303.2,350.2z"/>
	<path class="st25" d="M175,457.3c-5.2,0-10.3-0.2-15.5,0.1c-3.9,0.2-6.4-1.6-7.8-4.9c-0.8-1.8-1.4-3.7-1.8-5.7
		c-2.2-10.1,0-12.6,9.9-11.5c6.6,0.8,13.2,1.3,19.8,2.8c8.1,1.9,14,8.4,15.2,16.6c0.4,2.6-0.9,2.7-2.8,2.7
		C186.3,457.3,180.7,457.3,175,457.3C175,457.3,175,457.3,175,457.3z"/>
	<path class="st25" d="M285.3,461.3c0.1,6.9-5.1,12.5-11.6,12.4c-6.1-0.1-11.5-5.7-11.5-12.2c0-6.4,5.4-12.1,11.5-12.2
		C280,449.2,285.2,454.6,285.3,461.3z"/>
	<path class="st49" d="M263.2,471c-16.3,0-32.6,0-48.8,0c-2.5,0-3.1-1-3.1-3.2c0-2.5,1-3.1,3.3-3.1c5.6,0.1,11.3,0,17,0
		c7.8,0,15.6,0.4,23.4-0.1C259.9,464.3,262.3,466.1,263.2,471z"/>
	<path class="st49" d="M235.7,462c-7,0-14,0-21,0c-2.1,0-3.5-0.1-3.5-2.8c0-2.5,0.7-3.6,3.4-3.5c14.3,0.1,28.6,0,42.9,0.1
		c1.7,0,3.8-0.5,3.4,2.6c-0.3,2.5-0.9,3.8-3.9,3.7C250,461.8,242.8,462,235.7,462z"/>
	<path class="st50" d="M185.3,475.6c-0.2,3.2-1.9,5.2-4.9,5.3c-3.3,0-5.3-2.1-5.3-5.3c0-3.2,1.9-5.4,5.2-5.4
		C183.7,470.1,185.2,472.4,185.3,475.6z"/>
	<path class="st51" d="M172.3,475.3c-0.1,3.4-1.8,5.6-5.1,5.5c-3.3,0-5.1-2.3-5.1-5.5c0-3,1.8-5.1,4.9-5.2
		C170.3,470,172.1,472,172.3,475.3z"/>
	<path class="st52" d="M215.2,415.8c-0.7,6.6,4.8,4.7,8.4,5.6c-1.2,2.3-1.2,5.4-4.4,5.5c-3.3,0.2-6.2-1.2-8.1-3.9
		c-1.4-2-2.4-4.3-2.1-7c-1.1-5.3-5.1-3.5-8.4-3.4c-2.1-0.2-4.3,0-5.9-1.8c2.7-5.2,6.7-7,13.1-5.7C212.6,406,214.9,409.3,215.2,415.8
		z"/>
	<path class="st53" d="M189,411.9c1.4-12.4,2.8-24.7,4.2-37.1c1.2-9.9,2.5-19.8,3.7-29.6c0.2-1.5-0.1-3,1-4.3
		c0.6,0.1,0.7,0.7,0.9,1.1c-2.6,21.9-5.2,43.8-8,65.6c-0.4,3.4,0.7,3.7,3.3,3.5c-0.4,2.5-2.6,2.8-4.4,2.9
		C188.3,414,188.4,412.8,189,411.9z"/>
	<path class="st54" d="M189,411.9c1.9,1.1,3.5,0.2,5-0.8c0.2-0.1,0.4-0.2,0.7-0.2c2.2,0.3,4.4,0.6,6.6,1c2.1,0.1,5.1-1.9,5.7,2.2
		c0,0.6,0,1.3,0,1.9c-5.4,3.1-11.2,1.2-16.8,1.5c-1.8-0.4-4.2-0.4-3.3-3.4C187.6,413.3,188.3,412.6,189,411.9z"/>
	<path class="st55" d="M198.8,341.9c-0.3-0.4-0.6-0.7-0.9-1.1c0.3-3.6,0.6-7.1,0.9-10.7c0.8-7.5,2.6-14.8,2.2-22.4
		c0.5-0.8,1.3-0.7,2.1-0.6c-0.9,7.7-1.8,15.4-2.8,23.1C199.8,334.1,199.3,338,198.8,341.9z"/>
	<path class="st56" d="M362.9,348.9c5.3,0.4,10.7,0.7,16,1.1c0.2,0.2,0.2,0.4,0.3,0.7c1.5,2.2,1.4,4.8,1.3,7.3
		c-0.4,5.5,1.6,11.4-1.9,16.6c-6,3-12.1,2.3-18.3,0.9c-2.1-4.5-0.4-9.1-0.3-13.6c0-2.1,0.7-4.2,0.7-6.4c0-2.3-0.1-4.7,2.1-6.4
		L362.9,348.9z"/>
	<path class="st57" d="M362.6,349.1c-0.2,2-0.5,3.9-0.7,5.9c-0.9,2.4-3,3.4-5.3,3.9c-5.7,1.3-11,3.3-15.2,7.4
		c-0.5,0.1-1,0.1-1.4-0.3c-2.7-5.1,0.3-8.3,3.9-11C349.4,350.9,356.1,350.1,362.6,349.1z"/>
	<path class="st58" d="M340,366c0.3,0,0.6,0,0.8,0.1c5.9,4,12.8,6,19.3,8.7c6,0,12.1,1.2,17.9-0.9c4.8-2.5,10.1-4.1,14.4-7.4
		c0.5,0,0.9,0.1,1.4,0.4c-1.2,5.6-6.1,7.3-10.5,8.7c-12,3.6-24,3.9-35.8-1.3C343.9,372.6,340.3,370.8,340,366z"/>
	<path class="st57" d="M393.9,366.9c-0.3,0-0.6,0-0.9,0c-3.5-4.7-9.4-5.6-13.8-8.9c0-2.5,0-4.9,0-7.4c3.8,0.4,7.3,1.8,10.5,4
		C394.5,358,395.6,361.1,393.9,366.9z"/>
	<path class="st59" d="M461.2,493c0,1.3-0.1,2.6-0.1,4c0,7.9-0.7,9-8,11.4c-6.3,2.1-19.1,0.8-21.3-6.4c0.1-2.2,0.3-4.3,0.2-6.5
		c-0.1-3,1.1-4.6,4.1-5.1c-2.3,6.7-0.4,11.9,5.4,13.7c3,0.9,6.8,0.9,9.8,0.1c6.1-1.7,8.1-7.2,5.4-13.8
		C458.8,490.5,460.1,491.4,461.2,493z"/>
	<path class="st60" d="M247,423.8c0,3.5-1.6,5.2-5.1,5.2c-3.2,0-4.8-1.6-5-4.8c-0.2-3.5,1.9-5.6,4.9-5.7
		C244.8,418.4,247,420.4,247,423.8z"/>
	<path class="st60" d="M262.2,418.9c3,0.1,5.5,1.7,5.5,4.9c0,2.6-1.7,5.2-5,5.2c-3.3,0-5.3-1.9-5.6-5.1
		C256.8,420.5,258.7,419,262.2,418.9z"/>
	<path class="st61" d="M190,416c5.7,0,11.3-0.1,17-0.1c0.3,8,0.3,8-7.5,8c-3.4,0-6.9,0-10.3-0.1C186.9,421,187.6,418.4,190,416z"/>
	<path class="st62" d="M197.6,424.9c2.3,0,4.7,0,7,0c0.7,0,1.8-0.2,2,0.9c0.1,1-0.6,1.7-1.4,1.8c-5.1,0.7-10.3,0.5-15.4,0
		c-0.5,0-1.2-0.8-1.3-1.3c-0.2-1.1,0.8-1.3,1.6-1.3C192.6,425,195.1,425,197.6,424.9C197.6,425,197.6,425,197.6,424.9z"/>
	<path class="st63" d="M190,416c-0.8,2.6-1.3,5.2-0.9,7.8c-2,0.3-3.2-0.4-3.1-2.7c0.1-1.8,0-3.6-0.1-5.5c0.3-0.6,0.7-1.2,1-1.8
		C186.9,416.2,188.8,415.6,190,416z"/>
	<path class="st64" d="M207,414c-1.2-2.5-3.5-2.2-5.7-2.2c7.1-1.9,8-1.3,7.7,4.3C208.4,415.4,207.7,414.7,207,414z"/>
	<path class="st65" d="M164.2,308.1c3.6,0,7.3,0,10.9,0c1.1,0,2.6-0.2,2.5,1.5c0,1.3-1.3,1.3-2.3,1.3c-7.5,0-14.9,0-22.4,0
		c-1,0-2.3-0.2-2.3-1.3c0-1.5,1.4-1.5,2.6-1.5C156.9,308,160.6,308,164.2,308.1C164.2,308,164.2,308.1,164.2,308.1z"/>
	<path class="st66" d="M178.3,325.8c-4.4,1.5-23,1.6-27.6,0.5C153.1,324.6,171.5,324.1,178.3,325.8z"/>
	<path class="st67" d="M177.5,293.8c-8.7,0-17.3,0-26,0c0-0.4,0-0.8,0-1.3c8.6-1.1,17.3-0.4,26-0.4
		C177.4,292.7,177.5,293.3,177.5,293.8z"/>
	<path class="st68" d="M145.8,322.7c1.4-0.6,2.1-2.5,4.2-2.6c-0.4,2.6-2.9,3.3-3.9,5.1c-3.4,4.4-4,4.5-7.1,0.7c0-1-2.6-2.1,0.1-3
		C141.3,324.5,143.6,323.3,145.8,322.7z"/>
	<path class="st69" d="M139,293.2c-0.1-1-2.2-2,0-3.1c2.3,1,4.5,1.2,6.7-0.1c1.8-0.4,2.2-2.9,5.1-2.7c-1.8,2-3.3,3.6-4.8,5.3
		C142.9,296.6,142.3,296.6,139,293.2z"/>
	<path class="st70" d="M139,309.6c-0.2-1-2.3-2-0.1-3.1c2.4,1.4,4.7,1.5,7-0.2c1.5-0.5,2-2.4,4.2-2.6c-0.6,2.5-3.1,3.3-4.1,5.3
		C142.9,312.8,142.1,312.9,139,309.6z"/>
	<path class="st71" d="M139,325.9c2.7,3,4.9,0.9,7.1-0.7c0.3,2.5,0.3,4.6-3.2,4.6C140.1,329.8,138.3,329.2,139,325.9z"/>
	<path class="st72" d="M139,293.2c2.6,2.8,4.8,1.3,7-0.5c0.4,2.6,0.2,4.5-3.3,4.5C139.8,297.1,138.3,296.3,139,293.2z"/>
	<path class="st73" d="M145.8,322.7c-2.2,2.7-4.4,5.1-6.7,0.2C141.3,321.5,143.5,321.8,145.8,322.7z"/>
	<path class="st74" d="M145.7,290c-2.2,3.3-4.4,4.4-6.7,0.1C141.2,288.9,143.5,288.8,145.7,290z"/>
	<path class="st75" d="M139,309.6c2.6,2.8,4.8,1.1,6.9-0.6c0.3,2.3,0.4,4.3-2.9,4.3C140.6,313.1,138.2,313.2,139,309.6z"/>
	<path class="st76" d="M145.9,306.3c-2.2,3.2-4.5,5-7,0.2C141.2,305.5,143.6,305.7,145.9,306.3z"/>
	<path class="st77" d="M360.1,374.8c-7.2-1.1-14.4-2.4-19.3-8.7c3.2-5.3,8.6-6.7,14-8.1c2.6-0.6,5.1-1.3,7.1-3.1
		C361.3,361.6,360.7,368.2,360.1,374.8z"/>
	<path class="st77" d="M379.1,358.1c5.4,1.8,11.6,2.1,13.8,8.9c-4.1,4.2-9.1,6.4-14.8,7C380,368.7,378.4,363.3,379.1,358.1z"/>
</g>
</svg>
