<?xml version="1.0" encoding="utf-8"?>
<!-- Generator: Adobe Illustrator 19.0.0, SVG Export Plug-In . SVG Version: 6.00 Build 0)  -->
<svg version="1.1" id="Calque_1" xmlns="http://www.w3.org/2000/svg" xmlns:xlink="http://www.w3.org/1999/xlink" x="0px" y="0px"
	 viewBox="0 0 612 792" style="enable-background:new 0 0 612 792;" xml:space="preserve">
<g>
	<path d="M519,426c-21.8,0.1-43.6,0.2-65.5,0.3c-3.5,0-6.9,0-10.7,0c-1.9-14.6-8.2-26.3-20.1-34.7c-8.3-5.8-17.7-8.6-27.8-8.3
		c-20.5,0.7-41.4,14.8-45.2,42.2c-0.3,0.2-0.6,0.5-0.8,0.5c-8.8-2-13,3.8-16.7,10.1c-1.9,3.3-4.5,4.2-8.2,4.2
		c-12.7-0.2-25.3-0.1-38-0.1c-3.4,0-6.8-0.5-6.8-4.7c0-4.1,3.2-4.8,6.7-4.8c11.5,0.1,23,0.2,34.5-0.1c2.2,0,4.4-1.5,6.6-2.3
		c-0.1-0.7-0.3-1.3-0.4-2c-1.7-0.1-3.4-0.3-5.1-0.3c-8.8,0-17.7,0.1-26.5,0c-6.3-0.1-9.1-2.9-9.2-9.2c0-1.5,0-3,0-4.5
		c0.2-5.7,2.9-8.6,8.6-8.8c2.6-0.1,5.2,0,9.1,0c-2.7-5.4-4.5-10.1-7.1-14.1c-7.5-11.4-6.5-24.1-6.4-36.7c0-3.6,2.4-4.8,5.5-5.3
		c17.7-3.2,35.3-6.5,53.1-9.6c11-1.9,22.1-3.3,33-5.3c2-0.4,4.1-2.1,5.6-3.6c14.1-14.9,28.1-29.8,41.9-45
		c6.7-7.3,14.7-11.1,24.4-12.1c16.9-1.7,33.8-3.4,50.7-5.2c1.6-0.2,3.2-0.6,4.9-0.8c3.3,0,6.5,0,10,0c0,4,0,8,0,12
		c-1.6,0.2-3.3,0.6-4.9,0.7c-16.7,1.5-33.5,3.1-50.2,4.2c-12.5,0.8-22.9,5-31.2,15c-8.4,10.1-17.8,19.3-26.8,29
		c-1,1.1-1.9,2.3-3.5,4.2c2.4,0,3.5,0,4.7,0c37.3-0.1,74.6-0.1,111.9-0.2C519,362.7,519,394.3,519,426z M420.7,349
		c3.8,0,7.6,0,11.4,0c3.4,0.1,4.2-1.9,4.2-4.8c0-2.8-0.7-5-4-5c-7.5,0-14.9,0-22.4,0c-3.7,0-4.2,2.4-4.1,5.4c0,3.1,1.3,4.6,4.5,4.5
		C413.8,349,417.2,349,420.7,349z"/>
	<path d="M7,340c2.7-8.8,6.4-17,12.7-23.9c12.4-13.3,27-19.9,45.3-14.8c9.8,2.7,17.4,0.3,22.9-8.2c8.5-13.1,17.5-19.2,38.9-11.3
		c18.5,6.8,34.9,16.9,42.4,36.7c1.8,4.8,2.9,9.9,3.9,14.9c3.5,16.2,8.7,19.7,24.6,14.8c10.3-3.2,19.9-2.7,29.6,1.7
		c12.7,5.8,15.6,12.1,11.6,25.5c-1.9,6.5-3.7,13.1-5.4,19.7c-0.5,1.8-0.1,3.9-0.1,5.9c13.6-1.3,23.6,10.4,21.5,23.6
		c-0.7,4.1,5.5,9,11.5,9.2c2.3,0.1,4.7-0.3,7,0c1.4,0.2,2.5,1.5,3.8,2.4c-1.1,1.2-2.3,3.6-3.4,3.5c-4-0.1-8.1-0.9-12.1-1.7
		c-1.5-0.3-2.9-1.6-4.3-2.4c-4.1-2.2-7.5-1.8-10.4,2.3c-1,1.4-3.3,3.1-4.5,2.8c-1.5-0.4-3.2-2.7-3.4-4.3c-0.7-6-3.6-8.1-9.7-8.8
		c-13.9-1.6-27.6-4.1-41.4-6.6c-7-1.3-13.2-4.3-18.4-9.4c-4.9-4.8-7-10.7-7.9-17.3c-2.1-16.7-11.1-23.7-27.6-20.1
		c-12.1,2.7-23.9,7.2-35.9,10.4c-20.5,5.4-41.2,7-62.2,1.7c-15.8-4-24.4-14-28.2-29c-0.3-1.1-0.7-2.1-1.1-3.2C7,349.3,7,344.7,7,340
		z"/>
	<path d="M391,467c-1.6-0.5-3.2-1-4.7-1.4c-17.4-5-29.2-22.4-26.9-39.5c2.7-19.6,17.6-33.2,36.8-33.3c18.1-0.1,34,13.2,36.7,30.5
		c3,19.3-7.9,36.8-26.3,42.2c-1.6,0.5-3.1,1-4.7,1.5C398.3,467,394.7,467,391,467z M382.7,429.5c-0.1,7.6,5.7,13.8,13.2,14
		c7.5,0.3,13.8-5.7,14.1-13.2c0.2-7.8-5.8-14.2-13.5-14.3C389,416,382.9,421.9,382.7,429.5z"/>
</g>
</svg>
