<?xml version="1.0" encoding="utf-8"?>
<!-- Generator: Adobe Illustrator 19.0.0, SVG Export Plug-In . SVG Version: 6.00 Build 0)  -->
<svg version="1.1" id="Calque_1" xmlns="http://www.w3.org/2000/svg" xmlns:xlink="http://www.w3.org/1999/xlink" x="0px" y="0px"
	 viewBox="0 0 612 792" style="enable-background:new 0 0 612 792;" xml:space="preserve">
<g>
	<path d="M190,660c0-12.3-0.1-24.7-0.1-37c0-92.3,0-184.6,0-276.9c0-19.2,10.6-33.4,28.1-37.4c3.4-0.8,6.9-0.9,10.4-0.9
		c26.8-0.1,53.6-0.1,80.5,0c23.4,0.1,38.5,15,38.5,38.4c0.1,103,0,205.9,0,308.9c0,1.7-0.3,3.3-0.4,5C294.7,660,242.3,660,190,660z"
		/>
	<path d="M595.1,316.7c2.7,51.6,0.5,101.4-17.9,149.3c-10.8,28-28.9,49.9-54.1,66c-25.3,16.3-52.8,28.1-80.4,39.8
		c-10.1,4.3-20.3,8.4-30.4,12.6c-5.4,2.2-8.5,0.8-9.3-5c-2.3-18.2,0.5-35.5,9.7-51.6c9.9-17.4,23.7-31.3,38.7-44.1
		c7.3-6.2,14.9-12.1,23.4-19c-1.8,0.6-2.4,0.7-2.9,1c-12.2,7.1-24.7,13.8-36.7,21.4c-36.4,23-51.2,57.1-50.5,99.1
		c0.4,22.3,4.2,44,9.6,65.6c0.4,1.6,0.8,3.2,0.4,5.2c-1.2-2-2.5-4-3.7-6.1c-14.5-25.6-22.6-53.2-25.8-82.3
		c-3.5-31.6-0.3-62.8,7.1-93.7c5.9-24.5,19.6-43.9,38.6-59.8c22.1-18.5,47.5-30.9,75.3-37.7c39.8-9.7,74-29.3,104.2-56.5
		C591.6,319.8,592.9,318.7,595.1,316.7z"/>
	<path d="M261,152.8c-0.3-0.1,0.1-0.1,0.3,0.1c17.5,24,34,48.6,43.3,77.2c6.3,19.3,1.1,37.1-13.3,47.5c-14.4,10.4-34.2,9.7-47.7-1.8
		c-13.6-11.5-17.8-31-9.5-46.7c4.5-8.5,10-16.5,15.2-24.6c6.3-9.7,12.5-19.5,13.1-31.4C262.6,166.3,261.4,159.4,261,152.8z"/>
</g>
</svg>
