<?xml version="1.0" encoding="utf-8"?>
<!-- Generator: Adobe Illustrator 19.0.0, SVG Export Plug-In . SVG Version: 6.00 Build 0)  -->
<svg version="1.1" id="Calque_1" xmlns="http://www.w3.org/2000/svg" xmlns:xlink="http://www.w3.org/1999/xlink" x="0px" y="0px"
	 viewBox="0 0 612 792" style="enable-background:new 0 0 612 792;" xml:space="preserve">
<style type="text/css">
	.st0{fill:#424953;}
	.st1{fill:#EC6D55;}
	.st2{fill:#A6D7E6;}
	.st3{fill:#EB8476;}
	.st4{fill:#C1DDE3;}
	.st5{fill:#E4E7EC;}
	.st6{fill:#FCFCFD;}
	.st7{fill:#FCFCFC;}
</style>
<g>
	<path class="st0" d="M221.8,319.5c30.3,0,60.7,0.1,91-0.1c6.1,0,10.9,2.6,15.8,5.3c28.7,15.6,52.9,36.4,71.3,63.5
		c1.8,2.6,3.7,3.7,6.9,3.5c14.7-0.6,29.3,0.2,43.4,5.1c11.5,4.1,20.7,10.7,24,23.3c0.7,2.6,0.7,5.3,0.7,7.9c0,19.5,0,39,0,58.5
		c0,7-1.9,8.9-8.9,8.9c-8.8,0-17.7,0.1-26.5,0c-2.9,0-4.2,0.6-4.9,3.8c-4.7,20.7-22.6,34.9-43.6,34.9c-20.5,0.1-38.4-14.1-43.5-34.6
		c-0.7-2.9-1.6-4.3-5.1-4.3c-44,0.2-88,0.1-132,0c-3.2,0-4.4,0.8-5.1,4.1c-4.8,20.6-21.9,34.2-43.3,34.7
		c-19.7,0.5-38-13.4-43.3-33.4c-1.2-4.3-2.8-5.7-7.3-5.5c-7.8,0.4-15.7,0.2-23.5,0.1c-5.4-0.1-7.8-2.3-7.8-7.5
		c0.2-26.7-1.3-53.4,0.7-80c1.8-23.3,6.4-46.2,18.1-66.9c5.6-10,13.1-18.1,24.9-20.9c3.3-0.8,6.6-0.7,9.9-0.7
		C163.2,319.5,192.5,319.5,221.8,319.5z"/>
	<path class="st1" d="M95.1,405.6c1.8-1.5,3.8-0.7,5.8-0.7c98.6,0,197.2,0,295.8-0.1c13.6,0,27.3-1,40.8,1.8
		c6.9,1.5,13.6,3.4,19.2,7.9c4,3.2,6.2,7.3,6.2,12.5c0,17.2,0,34.3,0.1,51.5c0,3.3-0.9,4.3-4.2,4.2c-6.3-0.2-12.7-0.2-19,0
		c-2.6,0.1-3.6-0.6-4.2-3.4c-4.8-20.7-22.8-35.3-43.3-35.5c-21-0.3-39.2,14-44.1,35c-0.7,3.2-1.8,4-4.8,3.9
		c-44.1-0.1-88.3-0.1-132.4,0c-3.3,0-4.5-1-5.3-4.3c-4.9-20.3-23-34.7-43.4-34.7c-20.9,0-38.6,14-43.5,34.9
		c-1.1,4.5-3.7,4.3-6.9,3.8c-2-2.2-1.6-5-1.6-7.6c0.3-21.1-0.8-42.1,0.7-63.2c0.2-3.3-1.3-4.3-4.3-4.5
		C102.7,407,98.6,408.4,95.1,405.6z"/>
	<path class="st2" d="M325,337.3c23.7,13,43.8,30.1,60.2,51.6c0.6,0.8,2.1,1.7,1.1,2.9c-0.4,0.6-1.8,0.5-2.7,0.5
		c-33.8,0-67.6,0-101.4,0.1c-2.9,0-4.1-0.8-4.1-4c0.1-17.7,0.1-35.3,0-53c0-2.8,1-3.8,3.8-3.7c10.3,0.1,20.7,0,31,0
		c1.9,0,3.6,0.4,4.9,1.9c-1.8,5.7-5.2,10.6-8.3,15.5c-9.4,9.3-17.4,20-27.9,28.2c-2.3,1.8-1.4,4.5-1.4,7.5c3.4-3,6-6.2,9.1-8.7
		c1.9-1.5,3.7-4.1,6.9-2.5c0.7,4.1-2.2,7.1-3.5,10.5c-0.7,1.8-2.2,3.3-2.8,5.2c5.3,1.8,6.6,1.3,9-3.4c7.2-14.5,14.4-29.1,22.2-43.4
		C322,340.7,322.6,338.3,325,337.3z"/>
	<path class="st2" d="M265.7,363.7c0,3,0,6,0,9c-5.4,6.3-11.6,11.9-17.4,17.6c5.3,1.1,9.5-0.6,12.8-4.9c1-1.3,2.4-3,4.6-1.7
		c0.4,8.7,0.4,8.7-8.3,8.7c-28.1,0-56.1,0-84.2,0c-1.4,0-3,0.6-4.2-0.7c0.4-0.3,0.8-0.8,1.2-0.8c6.9,0.9,10.4-4,14.4-8.1
		c4.6-4.8,9.9-9,13.4-14.7c3.5-5.5,6.7-11.1,9.5-17.7c-12.3,12-23.9,24.1-35.9,35.6c-1.7,1.6-1.2,4.2-2.8,5.7
		c-0.9-0.7-0.7-1.8-0.7-2.8c0-17.8,0-35.6,0-53.5c0-1-0.1-2,0.7-2.8c1.2,0.7,0.8,2.8,2.8,3.4c0.4-2.7-2.4-2-2.9-3.3
		c1.2-1.4,2.8-0.8,4.2-0.8c29.7,0,59.4,0,89.1,0c1.2,0,2.7-0.7,3.6,0.8c-5.6,4.6-10.5,9.8-15.3,15.3c-1.8,2-3,5.4-6.7,4.6
		c-0.3-4.5,2.6-7.7,4.3-11.4c1-2.2,2.8-4.1,3.5-6.8c-3.4-0.8-6.4-0.6-8.2,2.8c-8.9,17.5-17.9,34.9-27.1,52.6
		c4.7,1.6,7.2,0.2,9.2-3.7c2.8-5.2,4.4-11.2,8.7-15.6c2.6-0.5,4.3-2.4,6-4.1c6.8-6.7,13.5-13.6,20.3-20.3c1.4-1.4,2.6-3.7,5.3-2.3
		c0,3,0,6,0,9c-10.4,11.2-21.5,21.6-32.2,32.6c-1.4,1.4-3.1,2.5-3.9,4.7c3.7,1.2,6.6,0.5,9.3-2.4c7-7.3,14.2-14.4,21.4-21.5
		C261.7,364.7,263,362.3,265.7,363.7z"/>
	<path class="st2" d="M127.5,332.5c8.6-1.6,17.2-0.3,25.8-0.7c2.2-0.1,2.2,1.6,2.2,3.1c0,18.1,0,36.3,0,54.4c0,2-0.7,3.1-2.9,3.1
		c-18.6-0.1-37.2-0.1-55.9-0.1c-0.2,0-0.5-0.4-0.7-0.6c4-2.6,8.4-1.3,12.6-1.3c4.2,0,5.9-1.5,6.6-5.5c2.5-14.3,6.7-28.1,13.8-41
		c2.2-3.9,4.7-7.5,7.6-10.5C133.7,334.1,130.5,335,127.5,332.5z"/>
	<path class="st3" d="M95.1,405.6c4.5,0,9,0.2,13.5,0c3.7-0.2,4.6,1.4,4.3,4.7c-2.2,24-0.4,48.1-1,72.2c-4.8,0.1-9.6,0-14.4,0.2
		c-2.7,0.1-3.8-0.6-3.8-3.6c0.1-22.6,0.1-45.2,0.2-67.8C93.8,409.4,93.8,407.4,95.1,405.6z"/>
	<path class="st4" d="M127.5,332.5c3.5,0,6.9,0,11.4,0c-8.8,10-13.5,21-17.3,32.5c-2.5,7.5-4.2,15.3-5.6,23.1
		c-0.5,3.1-1.8,3.7-4.5,3.6c-5.1-0.1-10.3,0-15.5,0c3-18.4,7.6-36.3,19.1-51.5C118.2,336.3,122.2,333.1,127.5,332.5z"/>
	<path class="st5" d="M164.8,470.9c11.3,3.2,17,11.7,14.9,22.1c-1.8,9-11.1,15.6-20.4,14.5c-0.6-0.1-1.2-0.5-1.8-0.8
		c0.5-1,1.8-0.8,2.4-1.6C147.3,494.9,151.8,473.5,164.8,470.9z"/>
	<path class="st5" d="M393.8,470.9c10.7,2.2,17.4,11.1,15.8,21c-1.6,9.6-10.8,16.8-20.3,15.8c-0.6-0.1-1.2-0.5-1.7-0.8
		c2-2.2,4.3-0.9,6.1-0.5c-12.7-4.5-16-20.8-5.8-31C389.6,473.6,391.8,472.3,393.8,470.9z"/>
	<path class="st4" d="M325,337.3c-8.7,17-17.3,33.9-26,50.9c-1.5,2.9-8.6,5-11.1,3.2c-1.6-1.1-0.2-1.9,0.4-2.8
		c3.3-4.6,5.7-9.6,7.5-15c2.7-9.2,7.6-17.2,13-25c3.1-5,5-10.6,9-15C320.4,334.5,322.8,335.8,325,337.3z"/>
	<path class="st2" d="M265.7,363.7c-1.5,0-2.4,1-3.3,2c-7.9,7.9-16,15.6-23.5,23.8c-3.4,3.7-7.2,2.4-10.5,1.9
		c-2.7-0.4-0.2-2.3,0.6-3.1c6.3-6.4,12.7-12.7,19-19.1c4.6-4.6,9.2-9.2,13.8-13.7c1.2-1.1,2.1-2.6,4-2.7
		C265.7,356.4,265.7,360,265.7,363.7z"/>
	<path class="st6" d="M393.8,470.9c-0.3,0.7-0.5,1.7-1,2.2c-13.6,12.1-13.3,22.5,1.7,33.8c-2.8,0-4.8,0-6.9,0
		c-9.3-2-15.7-10.7-14.5-19.7C374.6,476.7,382.7,470.3,393.8,470.9z"/>
	<path class="st7" d="M164.8,470.9c-0.1,0.9-0.5,1.5-1.3,1.9c-12.6,7.3-13.5,23-1.9,31.7c0.5,0.4,1,0.7,1.9,1.4
		c-2.1,1.2-4.1,0.4-5.9,0.8c-9-2.1-14.9-10-14.2-18.9c0.7-8.7,6.6-16.5,18.4-17.2C162.8,470.7,163.8,470.8,164.8,470.9z"/>
	<path class="st2" d="M243.8,352.7c5.7-5.9,11.6-11.8,17.2-17.9c1.4-1.5,2.6-2.4,4.6-2.1c0,3.7,0,7.3,0.1,11c-2.1,0.1-3.1,1.8-4.3,3
		c-7.1,7.1-14.2,14.2-21.4,21.3c-1.4,1.4-2.5,3.5-5.1,2.7c-1.1-1.2-0.6-2.5,0-3.6C237.5,362.1,239.1,356.4,243.8,352.7z"/>
	<path class="st2" d="M265.7,383.7c-2.6,0.3-4.2,2.4-5.3,4.2c-3,4.8-7.6,3.8-11.9,3.8c-1.5,0-2.6-0.9-1.3-2
		c6.5-5.3,11.2-12.7,18.6-17C265.7,376.4,265.7,380,265.7,383.7z"/>
	<path class="st2" d="M313.4,332.7c-11.8,11.8-22.9,23-34.4,34.5c0-5.2-0.9-9.1,4.3-13.1c7.2-5.6,13.9-12.3,19.4-19.8
		C305.3,330.8,309.4,333.3,313.4,332.7z"/>
	<path class="st2" d="M308.8,348.7c-3.8,8.6-8.3,16.9-13,25c-5.1,1.4-8,5.7-11.5,9.1c-1.5,1.5-2.7,3.3-4.5,4.5
		c-1.4-5.5-1.4-9.4,3.8-13.4c8-6.1,14.4-14.1,21.2-21.6C305.9,351,307.4,349.9,308.8,348.7z"/>
	<path class="st2" d="M292.8,332.9c-4.6,4.6-9.1,9.2-13.5,13.5C276.7,338,280.9,330.6,292.8,332.9z"/>
	<path class="st4" d="M195.7,391.6c-4.9,0.8-4.9-1-3-4.8c8.7-16.8,16.8-33.9,25.7-50.7c2.6-4.8,6.3-3.4,9.8-3.3c2.3,0.1,1,2,0.5,3
		c-3,5.8-6.1,11.4-9,17.2c-6,11.7-12,23.4-17.8,35.2C200.4,391.3,198.6,392.2,195.7,391.6z"/>
	<path class="st4" d="M243.8,352.7c-2.9,6-7.1,11.4-9,18c-3.2,4.3-5.1,9.3-7.5,14c-3.8,7.4-3.8,7.5-13.3,6.6
		c3.1-6.3,5.8-12.4,9.2-18.3c6.2-10.8,11.3-22.2,17-33.3c3.9-7.6,3.9-7.7,13.1-6.6C250.6,339.9,246,345.8,243.8,352.7z"/>
	<path class="st2" d="M168.9,371.8c-0.7-3.5,0.8-5.7,3.3-8.1c9.8-9.4,19.3-19.2,29-28.9c1.6-1.6,10.9-3,12.6-1.8
		c1.3,0.9,0.5,1.7-0.1,2.4c-1.5,1.6-3,3.1-4.6,4.6c-11.4,11.4-22.8,22.9-34.3,34.2c-1.5,1.5-2.8,4.8-5.2,3.7
		C167.7,377,169.2,373.9,168.9,371.8z"/>
	<path class="st2" d="M168.9,391.6c-0.7-3.5,1-5.7,3.4-8.1c11-10.6,21.7-21.5,32.5-32.3c1.2-1.2,2.4-2.2,4-3.8
		c0.5,2.2-0.2,3.6-0.9,4.9c-4.9,10.2-10.2,20.1-19,27.7c-2,1.7-4.1,3.5-5.6,5.7C179.8,391,174.9,392.6,168.9,391.6
		C168.9,391.7,168.9,391.6,168.9,391.6z"/>
	<path class="st2" d="M187.9,332.7c1.8,0,2.8,0,3.7,0c0.9,0.1,2.1-0.3,2.6,0.8c0.5,1.1-0.6,1.8-1.2,2.5c-7,7.1-14.1,14.1-21.1,21.1
		c-0.5,0.5-1.5,1.2-2.1,1.1c-1.2-0.2-1-1.5-1-2.5c-0.1-5.1-0.8-10.2,4.8-13.5c2.2-1.3,4-3.5,5.6-5.6
		C181.7,333.5,184.6,331.8,187.9,332.7z"/>
	<path class="st2" d="M168.7,332.6c0.8,0,1.7-0.1,2.4,0.1c1.2,0.3,3.6-0.9,3,1.6c-0.4,1.7-2.1,3.3-4.1,3.8c-0.9,0.2-1.2-0.9-1.2-1.7
		C168.8,335.2,168.8,333.9,168.7,332.6C168.8,332.6,168.7,332.6,168.7,332.6z"/>
</g>
</svg>
