<?xml version="1.0" encoding="utf-8"?>
<!-- Generator: Adobe Illustrator 19.0.0, SVG Export Plug-In . SVG Version: 6.00 Build 0)  -->
<svg version="1.1" id="Calque_1" xmlns="http://www.w3.org/2000/svg" xmlns:xlink="http://www.w3.org/1999/xlink" x="0px" y="0px"
	 viewBox="0 0 612 792" style="enable-background:new 0 0 612 792;" xml:space="preserve">
<style type="text/css">
	.st0{fill:#434A54;}
	.st1{fill:#FDCD57;}
	.st2{fill:#A6D7E6;}
	.st3{fill:#7D9CA9;}
	.st4{fill:#C1DDE3;}
	.st5{fill:#FDD784;}
	.st6{fill:#E4E7EC;}
	.st7{fill:#6A838E;}
	.st8{fill:#69838D;}
</style>
<g>
	<path class="st0" d="M306.5,269.8c66.5,0,133,0,199.5,0c14.9,0,26,10.9,26,25.7c0.1,46.5,0.1,93,0,139.5c0,14.1-10.8,25-25,24.9
		c-3.9,0-5.2,1.3-6.4,4.9c-5.5,16.7-21.7,28.2-39.1,28.1c-18.2,0-33.9-11-39.6-28.1c-1.3-3.9-3.1-4.8-7-4.8c-56,0.1-112,0.1-168,0
		c-3.6,0-4.6,1.1-5.5,4.4c-4.9,19.4-21.2,31.9-40.8,31.7c-18.9-0.2-35.1-13-39.7-31.9c-0.8-3.1-1.9-4.2-5.3-4.2
		c-16.3,0.2-32.7,0.1-49,0c-15.7,0-26.4-10.7-26.4-26.3c0-45.5,0-91,0-136.5c0-17.2,10.4-27.5,27.8-27.5
		C174.2,269.8,240.4,269.8,306.5,269.8z"/>
	<path class="st1" d="M93.3,371.9c1.3-1.2,2.9-0.6,4.3-0.6c95.7,0,191.3,0,287-0.1c4.6,0,5.9,1.1,5.8,5.8c-0.3,18.3-0.1,36.7-0.1,55
		c0,4.2,0.2,8.4,1.9,12.3c1.2,2.7,0.1,3.2-2.3,3c-1.2-0.1-2.3,0-3.5,0c-46.7,0-93.3,0-140,0.1c-3.2,0-4.6-0.9-5.4-4.1
		c-4.9-18.1-21-30.3-39.3-30.5c-19.7-0.1-35.6,11.5-41,30.2c-0.9,3.3-2.2,4.5-5.7,4.4c-12.7-0.3-25.3-0.2-38-0.3
		c-5.2-3.6-5.5-9.3-5.5-14.7c-0.2-15.8,0-31.6-0.1-47.4c0-12.9,0.9-11.2-11.1-11.4C97.9,373.5,95.3,374,93.3,371.9z"/>
	<path class="st1" d="M403.1,405.2c0-10,0-20,0-30c0-2.2,0-4,3-3.9c18.8,0.1,37.7-0.8,56.4,0.4c19.9,1.3,31.9,14.2,39.4,31.7
		c5.4,12.6,7.2,25.9,7.9,39.4c0.1,2,0.9,4.4-2.7,4.5c-2.9,0.1-4.4-0.6-5.1-3.8c-3.9-18.7-18.2-32-35.9-33.7
		c-22.2-2.2-41.2,11.5-45.8,33.4c-0.7,3.5-1.9,4.3-5.1,4.1c-7.2-0.4-11.9-5.1-12-12.6C403.1,424.9,403.2,415,403.1,405.2z"/>
	<path class="st2" d="M519.1,411.9c-3.4-9.1-6.8-18.1-12.2-26.1c-8.8-12.9-20.4-21.9-35.7-25.5c-2.6-0.6-3.5-1.6-3.5-4.3
		c0.1-23.2,0.1-46.3,0-69.5c0-2.7,0.7-3.8,3.6-3.8c12,0.1,24-0.1,36,0.1c6.7,0.1,11.7,4.7,11.7,11.1
		C519.1,333.2,519.1,372.5,519.1,411.9z"/>
	<path class="st2" d="M454.9,321c0,11.1-0.1,22.3,0.1,33.4c0.1,3.2-0.9,4.4-4.2,4.3c-14.5-0.1-29-0.1-43.4,0c-3.2,0-4.3-0.9-4.3-4.3
		c0.2-19.5,0-38.9,0.1-58.4c0-8.7,4.6-13.2,13.2-13.3c11.3-0.1,22.6,0.1,33.9-0.1c3.9-0.1,4.7,1.3,4.6,4.9
		C454.8,298.7,454.9,309.9,454.9,321z"/>
	<path class="st2" d="M204.9,320.8c0,11.3-0.1,22.7,0.1,34c0,3.1-1,4-4,4c-13.8-0.1-27.7-0.2-41.5,0c-3.6,0-4.4-1.3-4.4-4.7
		c0.1-22.3,0.1-44.7,0-67c0-3.6,1.1-4.5,4.6-4.4c13.7,0.2,27.3,0.2,41,0c3.7-0.1,4.4,1.3,4.4,4.6
		C204.8,298.4,204.9,309.6,204.9,320.8C204.9,320.8,204.9,320.8,204.9,320.8z"/>
	<path class="st2" d="M267.1,320.9c0,11.2-0.1,22.3,0.1,33.5c0,3-0.4,4.5-4,4.4c-13.7-0.2-27.3-0.2-41,0c-3.5,0-4.5-1.1-4.5-4.5
		c0.1-22.5,0.1-45,0-67.4c0-3.4,1.3-4.1,4.4-4.1c13.7,0.1,27.3,0.2,41,0c3.3,0,4.2,1,4.2,4.3C267,298.2,267.1,309.6,267.1,320.9z"/>
	<path class="st2" d="M329.1,321c0,11.2-0.1,22.3,0.1,33.5c0.1,3.2-0.8,4.3-4.2,4.3c-13.7-0.2-27.3-0.1-41,0c-3.1,0-4.4-0.7-4.4-4.2
		c0.1-22.6,0.1-45.3,0-67.9c0-3,0.9-4,4-4c13.8,0.1,27.6,0.2,41.5,0c3.5,0,4.1,1.3,4,4.4C329,298.4,329.1,309.7,329.1,321
		C329.1,321,329.1,321,329.1,321z"/>
	<path class="st3" d="M393.1,282.9c-0.5,3.1-2.4,5.8-2.2,9.1c-0.8,2.1-0.4,4.3-0.4,6.4c0,18.4,0,36.8-0.1,55.1
		c0,1.8,0.6,3.6-0.5,5.3c-14.8,0.1-29.6,0.1-44.4,0.2c-2.8,0-3.7-0.9-3.7-3.7c0.1-24.1,0.1-48.2,0.2-72.3c4.9-1.1,9.9-0.5,14.8-0.4
		C368.9,282.7,381,282,393.1,282.9z"/>
	<path class="st2" d="M117,283c7.3-0.1,14.6-0.1,21.9-0.3c2.7-0.1,3.4,1.1,3.3,3.6c-0.1,23-0.1,45.9-0.1,68.9c0,2-0.1,3.6-2.8,3.6
		c-15.1-0.1-30.3-0.1-45.4-0.1c-0.2,0-0.5-0.4-0.7-0.6c3.4-2.6,7.4-1.4,11.1-1.5c6.9-0.2,7.1-0.2,7.1-7c0-17.5-0.1-34.9,0.1-52.4
		C111.5,291.8,112,286.4,117,283z"/>
	<path class="st4" d="M117,283c-3.2,5.3-4.2,10.9-4.1,17.1c0.3,17.6,0,35.2,0.2,52.8c0.1,4.3-1.3,5.5-5.4,5.2
		c-4.8-0.3-9.6-0.1-14.4,0c-0.8-11.5-0.2-23-0.3-34.4c-0.1-9.5-0.1-19,0-28.5c0.1-7.5,4.6-12.1,12.1-12.3
		C109,282.7,113,282.9,117,283z"/>
	<path class="st5" d="M93.3,371.9c4.8,0,9.6,0.3,14.4,0c4.1-0.3,5.4,1,5.4,5.2c-0.2,17.6,0,35.2-0.2,52.8
		c-0.1,6.1,0.9,11.8,4.1,17.1c-4.5,0.1-9,0.3-13.4,0.1c-5.5-0.3-10.5-4.6-10.5-10.1C92.9,415.4,92.4,393.6,93.3,371.9z"/>
	<path class="st6" d="M182.6,454c0.3-10.3,8.8-18.2,18.9-17.8c10.1,0.4,17.9,9,17.5,19.2c-0.4,9.9-8.7,17.8-18.7,17.5
		C190.3,472.7,182.3,464.2,182.6,454z"/>
	<path class="st6" d="M461.2,469.2c-10.3,0-18.3-8-18.3-18.3c0-10,8-18.1,17.9-18.1c10.4,0,18.5,7.8,18.7,18
		C479.7,460.9,471.4,469.2,461.2,469.2z"/>
	<path class="st7" d="M389.9,358.8c0.1-20.4,0.1-40.7,0.2-61.1c0-1.9-0.6-4,0.8-5.7c0,21.1,0.1,42.2,0.1,63.3
		C391,356.5,391.4,358,389.9,358.8z"/>
	<path class="st8" d="M393.1,282.9c-17,0-34.1,0-51.1,0.1c0.9-1.3,2.4-1,3.6-1c14.6,0,29.2,0,43.7,0
		C390.7,282,392.1,281.7,393.1,282.9z"/>
</g>
</svg>
