<?xml version="1.0" encoding="utf-8"?>
<!-- Generator: Adobe Illustrator 19.0.0, SVG Export Plug-In . SVG Version: 6.00 Build 0)  -->
<svg version="1.1" id="Calque_1" xmlns="http://www.w3.org/2000/svg" xmlns:xlink="http://www.w3.org/1999/xlink" x="0px" y="0px"
	 viewBox="0 0 612 792" style="enable-background:new 0 0 612 792;" xml:space="preserve">
<style type="text/css">
	.st0{fill:#010101;}
</style>
<g>
	<path class="st0" d="M294,229.5c28,0,55.6,0,83.3,0c0.6,1.9-1.1,2.6-2,3.6c-9.6,11.3-19.2,22.6-28.9,33.7c-1.7,2-2.6,4-2.5,6.7
		c0.2,6.8-0.1,13.7,0.1,20.5c0.1,2.7-0.6,3.7-3.5,3.8c-13.3,0.4-14,0.5-13.1-12.8c0.7-11.3-2.4-19.9-10.4-27.9
		c-8.2-8.2-15.2-17.6-22.8-26.5C294.2,230.5,294.2,230.2,294,229.5z"/>
	<path d="M428.1,273.4c-0.2,10.3-4.8,17.8-14.2,22.1c-8.9,4.1-19.5,2.4-26.4-4.3c-7.6-7.4-9-16.3-6-26.2c1.2-4,3.4-7.6,5.7-11
		c4.1-6.1,8.2-12.1,12.4-18.1c4.4-6.5,4.5-6.5,9.1,0.1c5,7.2,10.1,14.5,14.8,21.9C426.4,262.6,428.4,267.7,428.1,273.4z"/>
	<path d="M457.6,362.9c-1.4-2.1-3.3-3.2-5.9-3.1c-3.8,0.1-7.7-0.2-11.5,0.1c-3.2,0.2-4.6-0.7-5.4-4.1c-1.9-8.9-4.3-17.8-6.7-26.6
		c-2.1-7.9-7.5-12.6-15.7-13.2c-27.6-2.1-55.2-1.3-82.9-0.5c-10.7,0.3-16.9,6.7-19.3,17c-1.7,7.4-3.9,14.8-5.3,22.3
		c-0.8,4.1-2.5,5.5-6.6,5.1c-3.5-0.4-7,0-10.5-0.1c-2.8-0.1-4.7,1.2-6,3.6c-4.5,8-1.1,17.9,7.5,21c2.9,1,3.7,2.4,3.6,5.4
		c-0.2,11.3-0.1,22.7-0.1,34c0,11.7,0,23.3,0,35c0,6.4,3.1,9.4,9.5,9.6c14.7,0.5,16.4-1,16.3-15.8c0-3.9,1.1-4.6,4.7-4.5
		c29,0.8,58,0.8,86.9,0.2c10.4-0.2,10.4-0.2,10.6,10.3c0.1,6.7,3,9.6,9.8,9.8c1.3,0,2.7,0,4,0c9.3,0,11.9-2.6,11.9-11.9
		c0-22,0.1-44-0.1-66c0-3.6,1.1-5.2,4.5-6.4C459.4,381.2,462.6,370.3,457.6,362.9z M320.5,413.8c-7.2,0.1-12.9-5.7-12.9-12.9
		c0-7.4,5.6-12.9,12.9-12.9c7.4,0,12.9,5.5,12.9,12.9C333.4,408.1,327.8,413.8,320.5,413.8z M418.7,413.8
		c-7.3-0.1-12.9-5.9-12.8-13.2c0.1-7.3,5.9-12.8,13.3-12.7c7.4,0.1,12.9,5.8,12.8,13.1C431.8,408.4,426,414,418.7,413.8z"/>
</g>
</svg>
