<?xml version="1.0" encoding="utf-8"?>
<!-- Generator: Adobe Illustrator 19.0.0, SVG Export Plug-In . SVG Version: 6.00 Build 0)  -->
<svg version="1.1" id="Calque_1" xmlns="http://www.w3.org/2000/svg" xmlns:xlink="http://www.w3.org/1999/xlink" x="0px" y="0px"
	 viewBox="0 0 612 792" style="enable-background:new 0 0 612 792;" xml:space="preserve">
<style type="text/css">
	.st0{fill:#0DB799;}
	.st1{fill:#CFDEDA;}
	.st2{fill:#FDFDFD;}
	.st3{fill:#10B699;}
</style>
<g>
	<path class="st0" d="M115.1,586.8c0-67.2,0-134.4,0-201.6c0.8-2,2.6-2.4,4.4-2.6c2-0.2,4-0.2,6-0.2c119.6,0,239.2,0,358.8,0
		c3.3,0,6.7-0.8,9.6,1.7c14.8,0.1,29.6,0.2,44.5,0.1c3.3,0,4.6,0.6,4.6,4.3c-0.1,66.1-0.1,132.2-0.1,198.3c-0.8,0.8-1.8,0.7-2.8,0.6
		c-29.6-0.8-59.2,1.3-88.8,1.3c-108.7-0.2-217.5-0.1-326.2-0.1C121.7,588.6,118.1,589.5,115.1,586.8z"/>
	<path class="st1" d="M494,384.1c-37.1,0-74.2,0.1-111.4,0.1c-87.6,0-175.1,0-262.7,0c-1.6,0-3.4-0.3-4.8,0.9
		c0-59.9-0.1-119.9-0.1-179.8c0-14.3,0.2-28.6-0.1-43c-0.1-4.6,1.4-5.5,5.7-5.5c76.1,0.1,152.2,0.1,228.3,0.1c9.5,0,19,0,28.5,0
		c1.6,0,3.4-0.7,4.7,0.9c0.8,5.3,0.6,10.6,0.6,15.9c0,28.4,0,56.9,0,85.3c0,7,0.2,7.2,7.3,7.2c31.4,0,62.9,0,94.3,0
		c3,0,6-0.2,8.7,1.6c1.7,1.3,1,3.1,1,4.6C494,309.8,494,346.9,494,384.1z"/>
	<path class="st1" d="M115.1,586.8c13.5,0.1,27,0.4,40.4,0.4c110.6,0,221.3,0,331.9,0c18.5,0,37-0.2,55.5-0.3c-1.3,2-3.3,1.1-5,1.1
		c-13,0.1-26,0.2-39-0.1c-4.1-0.1-5,1.4-5,5.2c0.2,19.5,0,39,0.2,58.5c0.1,4.4-1.2,5.6-5.6,5.6c-122.7-0.1-245.5-0.1-368.2,0
		c-4.2,0-5.3-1.2-5.3-5.3C115.1,630.1,115.1,608.5,115.1,586.8z"/>
	<path class="st0" d="M493,268c-27,0.1-53.9,0.1-80.9,0.2c-9,0-18-0.1-27,0c-3,0-4.4-0.5-4.4-4c0.1-34.3,0.1-68.6,0.1-102.8
		c0-1.2-0.5-2.8,1.2-3.4c30.2,29.8,60.4,59.7,90.6,89.5C479.4,254.2,486.2,261.1,493,268z"/>
	<path class="st2" d="M288.6,456.9c-5.5,8-10,15.4-15.4,22.1c-3.6,4.5-3.2,7.7,0,12.1c6.2,8.8,11.9,18,18.4,27.9c-7.4,0-14,0-20.5,0
		c-1.9,0-2.5-1.3-3.3-2.6c-3.6-5.8-7.1-11.6-10.9-17.3c-1.3-1.9-1.8-5.7-4.9-4.6c-3,1-1.2,4.4-1.4,6.6c-0.3,5-0.3,10-0.2,15
		c0.1,2.2-0.5,3-2.8,2.9c-4.7-0.1-9.3-0.1-14,0c-2.3,0.1-2.8-0.9-2.8-2.9c0.1-28,0.1-55.9,0-83.9c0-2.5,1.1-2.9,3.3-3
		c16.4-1,16.4-1,16.3,15.2c-0.1,9.7-0.2,19.3-0.1,29c0,2.1-1.3,5.4,1.5,6.1c2.5,0.7,2.9-2.7,3.9-4.4c3.1-5.1,6.1-10.3,8.9-15.6
		c1-1.8,2.1-2.7,4.2-2.7C275.2,457,281.4,456.9,288.6,456.9z"/>
	<path class="st2" d="M366.1,457c6.3,0,12.3,0.1,18.3,0c3.1-0.1,2.9,2.4,3.3,4c2.6,9.3,5,18.6,7.4,27.9c0.1,0.3,0.3,0.6,0.5,0.9
		c2.2-0.4,1.9-2.4,2.3-3.8c2.5-8.3,5-16.6,7.1-24.9c0.9-3.4,2.4-4.5,5.9-4.3c5.1,0.3,10.3,0.1,16.1,0.1c-1.8,5.1-3.4,9.7-5,14.4
		c-6.4,18.5-12.8,37.1-19.2,55.6c-4.8,13.9-13.2,19.1-27,17.2c-3.3-0.5-5.4-1.4-4-5.3c0.4-1.1,0.6-2.3,0.6-3.4
		c0-4.3,1.5-6.3,6.4-6.4c5.9-0.1,9.3-6.5,7.2-12.5c-6.1-18.1-12.3-36.2-18.5-54.2C367.2,460.6,366.7,459,366.1,457z"/>
	<path class="st2" d="M337.7,494c-4.7,0-9.3,0.2-14-0.1c-3.8-0.2-3.7,1.4-2.7,4.1c1.7,4.3,4.9,6.6,9.5,7c5.9,0.5,11.7,0,17.1-2.4
		c2.5-1.1,3.4-0.3,4.4,2c4,9.4,3.8,10-6,13.3c-7.1,2.3-14.4,2.9-21.7,2c-13-1.6-22.5-11.6-24.1-25.5c-0.7-6-0.4-12,1.2-17.8
		c4.9-18.7,27.4-27.4,43.6-16.7c7.7,5,10.4,12.7,10.9,21.4c0.7,12.8,0.6,12.8-12.2,12.8C341.7,494.1,339.7,494,337.7,494z"/>
	<path class="st3" d="M328.4,482c-1,0-2,0-3,0c-6,0-6.8-1.3-3.9-6.8c2.1-3.9,6.5-5.7,10.7-4.1c4,1.5,4.2,5.2,4.6,8.7
		c0.2,1.8-0.8,2.3-2.4,2.2C332.4,482,330.4,482,328.4,482z"/>
</g>
</svg>
