<?xml version="1.0" encoding="utf-8"?>
<!-- Generator: Adobe Illustrator 19.0.0, SVG Export Plug-In . SVG Version: 6.00 Build 0)  -->
<svg version="1.1" id="Calque_1" xmlns="http://www.w3.org/2000/svg" xmlns:xlink="http://www.w3.org/1999/xlink" x="0px" y="0px"
	 viewBox="0 0 612 792" style="enable-background:new 0 0 612 792;" xml:space="preserve">
<style type="text/css">
	.st0{fill:#00ADBA;}
</style>
<g>
	<path class="st0" d="M398.8,330.8c-1,0.1-2,0-3,0c-7,0-6.5,1.1-6.5-6.8c0-41,0.3-82-0.2-123c-0.3-29.4-25.1-54.5-54.2-54.7
		c-48-0.4-96-0.4-144,0.1c-20.2,0.2-35.8,9.9-46.9,26.9c-7.9,12-8.7,25.6-8.7,39.4c0.1,37.7,0,75.3,0.2,113c0,4.1-1,5.7-5.3,5.3
		c-4.6-0.4-9.3-0.1-14-0.1c-20.5,0.2-35.1,14.5-35.1,34.9c-0.1,81.8,0,163.7,0,245.5c0,3.5,0.5,7,1.4,10.3
		c4.3,14.9,17.4,24.5,33.8,24.5c68.8,0,137.7,0,206.5,0c18.5,0,36.9,0,56.2,0c-0.8-0.9-0.9-1-1-1.1c-1.4-1-2.7-1.9-4.1-2.9
		c-27-19.8-42.3-46.4-43.8-79.9c-2.1-46.5,25.4-86.9,69.2-102.7c3.2-1.2,3.9-2.7,3.9-5.7c0.1-39.3,0.2-78.7,0.5-118
		C403.9,331.7,402.7,330.2,398.8,330.8z M279,578.5c-2.6,1.6-3.6,3.4-3.6,6.3c0.1,8.5-0.1,17,0,25.5c0.1,3.1-0.8,4.1-3.9,4
		c-6.2-0.2-12.3-0.2-18.5,0c-3.3,0.1-3.9-1.3-3.8-4.1c0.2-4.3,0-8.7,0.1-13c0-1.3-0.1-2.7,0-4c0.7-7.5-0.8-12.9-7.7-18.3
		c-14.7-11.6-14.1-33.7-0.4-46.2c13.5-12.3,34.9-10.3,46,4.2C298.6,547.5,294.9,568.6,279,578.5z M338.4,330.9
		c-25.5-0.1-51-0.1-76.5-0.1c0,0,0,0,0,0c-25.2,0-50.3-0.1-75.5,0.1c-3.6,0-4.8-0.8-4.8-4.7c0.2-40.1,0.1-80.3,0.1-120.4
		c0-10.1,3.5-13.6,13.5-13.6c44.8,0,89.6,0,134.4,0c9.9,0,13.4,3.6,13.4,13.7c0,40.1,0,80.3,0.1,120.4
		C343.3,330.2,342,330.9,338.4,330.9z"/>
	<path class="st0" d="M464.8,474c-4.9-1.8-12.1-1.1-14.3-5.2c-2.3-4.3-0.5-10.7-0.5-16.2c0.1-46.2,0.2-92.3,0.2-138.5
		c0-4.3,1.2-6,5.7-5.8c7,0.3,14,0.1,21,0.1c2.2,0,4.3,0,6.4-0.8c6.1-2.3,10.3-8.8,9.4-14.9c-1.1-7.2-6.7-12.3-14-12.5
		c-8.2-0.2-16.3-0.1-24.5-0.1c-1.9,0-3.5-0.7-3.6-2.7c-0.1-2.2,1.6-2.7,3.4-2.7c1.3,0,2.7,0,4,0c14,0,28,0,42,0.1
		c5.7,0,10.6-1.6,13.8-6.6c2.9-4.5,3.2-9.4,0.7-14.2c-2.9-5.4-7.7-7.7-13.6-7.7c-14.7-0.1-29.3-0.1-44-0.1c-6.3,0-6.3,0-6.3-6.5
		c0-3.3,0-6.7-0.2-10c-0.6-9.9-6.9-16.1-16.1-15.9c-9,0.2-15.3,7.1-15.3,16.8c0,39,0,78,0,117c-0.2,0-0.5,0-0.7,0
		c0,38.8-0.1,77.6,0.1,116.5c0,4.1-1.1,5.9-5.3,6.9c-44.1,11-71.9,50.9-67.2,96c5.2,49.8,52.3,85.9,101.8,77.9
		c41.1-6.6,71.2-38.7,74.9-81.8C525.7,525,502.6,488.2,464.8,474z M434.1,593.8c-20.2,0-36.6-16.3-36.8-36.3
		c-0.1-20.1,16.2-36.5,36.4-36.6c20.5,0,36.4,15.7,36.5,36.2C470.3,577.4,454.2,593.9,434.1,593.8z"/>
</g>
</svg>
