<?xml version="1.0" encoding="utf-8"?>
<!-- Generator: Adobe Illustrator 19.0.0, SVG Export Plug-In . SVG Version: 6.00 Build 0)  -->
<svg version="1.1" id="Calque_1" xmlns="http://www.w3.org/2000/svg" xmlns:xlink="http://www.w3.org/1999/xlink" x="0px" y="0px"
	 viewBox="0 0 612 792" style="enable-background:new 0 0 612 792;" xml:space="preserve">
<style type="text/css">
	.st0{fill:#919191;}
</style>
<g>
	<path class="st0" d="M511,357.1c0-27.3-21.2-48.5-48.5-48.5c-90,0-180,0-270,0c-28.6,0-49.5,20.9-49.5,49.5c0,36.3,0,72.7,0,109
		c0,28.6,20.8,49.5,49.5,49.5c44.8,0,89.7,0,134.5,0c45.2,0,90.3,0,135.5,0c27.3,0,48.5-21.3,48.5-48.5
		C511,431.1,511,394.1,511,357.1z M495,468c0,18.6-14,32.6-32.5,32.6c-45.3,0-90.7,0-136,0c-44.7,0-89.3,0-134,0
		c-19.9,0-33.5-13.7-33.5-33.6c0-36.3,0-72.7,0-109c0-19.6,13.7-33.4,33.3-33.4c90,0,180,0,270,0c18.9,0,32.7,13.9,32.7,32.9
		C495,394.3,495,431.1,495,468z"/>
	<path class="st0" d="M287,412.2c0-17,0.1-34-0.1-51c0-3.8,1-4.7,4.7-4.7c23.7,0.2,47.3,0.2,71,0c3.5,0,4.5,1,4.5,4.5
		c-0.1,11.6,0.1,11.6-11.7,11.6c-16,0-32,0.1-48-0.1c-3.5,0-4.6,1-4.4,4.5c0.3,7.8,0.2,15.7,0,23.5c-0.1,3.3,1,4.2,4.2,4.2
		c13.2-0.2,26.3,0.1,39.5-0.2c3.5-0.1,4.5,1,4.5,4.5c-0.1,11.6,0.1,11.6-11.7,11.6c-10.8,0-21.7,0.1-32.5-0.1c-3.1-0.1-4,0.9-3.9,4
		c0.2,8,0.2,16,0,24c-0.1,3.3,1,4.2,4.2,4.2c18.3-0.1,36.7,0.1,55-0.2c4,0,5,1.1,5,5c-0.2,11.1,0,11.1-11.2,11.1
		c-21.5,0-43-0.1-64.5,0.1c-3.5,0-4.5-1-4.4-4.5C287.1,446.9,287,429.5,287,412.2z"/>
	<path class="st0" d="M207,425.3c0,13.7-0.1,26.2,0.1,38.6c0.1,3.7-0.9,4.8-4.7,4.7c-11.4-0.1-11.4,0-11.4-11.4
		c0-31.8,0.1-63.6-0.1-95.4c0-4,0.8-5.4,5.1-5.3c10.9,0.3,11,0.1,11,10.9c0,10.4,0,20.8,0,32.6c3.9-4,6.9-7,9.9-10
		c10.1-10.1,20.3-20.2,30.3-30.4c2.2-2.2,4.4-3.2,7.4-3c5.1,0.2,10.2,0.1,16.6,0.1c-4.7,4.7-8.6,8.5-12.4,12.3
		c-13.6,13.5-27.1,27.1-40.8,40.4c-2.8,2.7-2.4,4.1,0.1,6.6c17.2,17.4,34.3,34.9,51.6,52.6c-5.9,0-12.3,0.1-18.6-0.1
		c-1.8,0-2.7-1.8-3.8-3C234.1,452.4,221,439.3,207,425.3z"/>
	<path class="st0" d="M415,443.6c3.7-16.5-2.9-29.7-12.7-42.2c-6-7.7-10.7-16.5-16.5-24.4c-4.4-6-3.9-13-2.2-18.6
		c1.4-4.6,8.5-1,13-1.8c2.5-0.5,2.4,1.6,2.4,3.3c0,2.7,0.1,5.3,0,8c-0.2,3.1,0.6,5.7,2.4,8.4c6.5,9.5,12.9,19,19.1,28.7
		c2,3.1,3.1,3,5,0c6.5-10.1,13.2-20,19.9-29.9c2.8-4,1.5-8.4,1.4-12.6c0-4.2,0.7-6.1,5.6-5.9c10.5,0.4,10.4,0.1,10.6,10.8
		c0.1,3.7-0.9,6.7-2.9,9.7c-9.1,13.3-17.9,26.8-27,40.2c-1.6,2.3-2.2,4.6-2.2,7.4c0.1,13.3,0,26.6,0.1,40c0,2.9-0.6,4-3.8,4.1
		C415,468.9,415,469,415,456.6C415,452.2,415,447.9,415,443.6z"/>
</g>
</svg>
