<?xml version="1.0" encoding="utf-8"?>
<!-- Generator: Adobe Illustrator 19.0.0, SVG Export Plug-In . SVG Version: 6.00 Build 0)  -->
<svg version="1.1" id="Calque_1" xmlns="http://www.w3.org/2000/svg" xmlns:xlink="http://www.w3.org/1999/xlink" x="0px" y="0px"
	 viewBox="0 0 612 792" style="enable-background:new 0 0 612 792;" xml:space="preserve">
<style type="text/css">
	.st0{fill:#F8A84B;}
	.st1{fill:#F79A2F;}
	.st2{fill:#F8B667;}
	.st3{fill:#F6921E;}
</style>
<g>
	<path class="st0" d="M182,676c1.7-1.4,3.8-1,5.8-1c90.7,0,181.3,0,272,0c2.1,0,4.4-0.5,6.3,1C371.3,676,276.7,676,182,676z"/>
	<path class="st1" d="M525,386c-0.8-0.8-0.4-1.9-0.5-2.9c-0.6-5.9-0.8-11.9-3.5-17.5c-6.5-13.6-16.4-23.7-29.7-30.6
		c-2.8-1.5-5.1-3.1-5-6.7c0.1-6.7-0.7-13.3-0.9-19.9c-0.5-21.2-5.9-41.2-15.2-60c-14.5-29.4-36.2-52.1-64.9-67.8
		c-13.2-7.2-27-13-42.1-14.9c-7.1-0.9-14.2-0.8-21.2-1.7c-6.7,0-13.3,0-20,0c-1.4,1-2.9,0.4-4.4,0.5c-10.8,0.5-21.5,1-31.9,4.3
		c-23.6,7.5-44.2,19.8-61.9,37c-12.6,11.9-22.6,25.8-30.3,41.2c-10,19.9-15.4,41.1-16.5,63.3c0.8,5.9,2.5,11.8-0.6,17.6
		c-0.9,1.4-2.3,1.8-3.8,2.1c-6,1.1-11.5,3.5-16.6,6.6c-16.9,10.1-29.2,23.4-31.1,44.2c-0.2,2.1,0.5,4.3-0.7,6.3
		c0,77.7,0,155.3,0,233c0.9,1,0.4,2.2,0.5,3.3c0.6,5.1,0.6,10.3,2.6,15.1c6.6,15.1,17.5,26,32.1,33.4c6.3,3.2,13.2,2.5,19.8,4.2
		c1,0,2,0,3,0c1.7-0.9,3.6-0.5,5.4-0.5c91.1,0,182.1,0,273.2,0c1.8,0,3.7-0.5,5.4,0.5c1,0,2,0,3,0c12.7-0.6,24.3-4.2,34.1-12.8
		c11.1-9.8,20-20.8,21.1-36.4c0.2-2.2-0.4-4.7,0.8-6.8C525,542,525,464,525,386z M294.5,197.5c73.6-22.8,149.6,25.8,160.2,102.3
		c1.2,8.9,1.2,17.9,1.2,26.9c0,2.7-1,3.4-3.5,3.4c-8.2-0.1-16.3,0-24.5,0c-6,0-12,0-18,0c-9.3,0-9.3,0-9.3-9.1
		c0-9-0.8-17.9-3.6-26.6c-10-30-40.4-50.2-71.2-47.1c-33.6,3.4-59.2,28.1-63.1,60.8c-0.7,6-0.6,12-0.6,18c0,2.9-0.5,4.1-3.8,4.1
		c-16-0.2-32-0.1-48-0.1c-2.1,0-3.3-0.2-3.4-2.9C203.3,261.5,243.7,213.2,294.5,197.5z M373,326.3c0.2,3.3-1.2,3.8-4.1,3.8
		c-12.6-0.1-25.3-0.1-37.9-0.1c-12,0-24-0.2-35.9,0.1c-4.3,0.1-5.3-1.3-5.1-5.3c0.4-6.6-0.3-13.3,1.6-19.8
		c5.8-19.8,24.6-32.3,45.1-29.9c19.7,2.4,35.1,19,36.2,39.1C373,318.3,372.7,322.3,373,326.3z M497.2,610.3c0,22.8-15,37.7-38,37.7
		c-89.8,0-179.6,0-269.4,0c-23,0-37.9-14.9-37.9-37.7c0-71.3,0-142.6,0-214c0-23.9,14.7-38.4,38.8-38.4c44.8,0,89.6,0,134.5,0
		c44.7,0,89.3,0,134,0c23.3,0,38.2,14.7,38.2,38C497.2,467.4,497.2,538.8,497.2,610.3z"/>
	<path class="st2" d="M179,331c0.1-7,0.2-14.1,0.3-21.1C180.2,316.9,180.7,324,179,331z"/>
	<path class="st3" d="M326.3,611.2c-8.8,0-8.8,0-10.5-9c-2.2-11.6-4.2-23.2-6.7-34.7c-1.5-6.8,0.6-13.1,1.8-19.6
		c1.9-10.6,4.1-21.2,5.8-31.9c0.5-3.4,2-4,4.9-3.9c4.6,0.3,10.3-1.3,13.6,0.9c3.2,2.1,2.3,8.2,3.2,12.6c2.2,11.1,4.5,22.1,6.3,33.3
		c1.2,7.5-1.9,14.7-3,22.1c-1.2,8-3.4,15.9-4.4,24c-0.6,5.1-2.5,7-7.5,6.2C328.6,611,327.4,611.2,326.3,611.2z"/>
</g>
</svg>
