<?xml version="1.0" encoding="utf-8"?>
<!-- Generator: Adobe Illustrator 19.0.0, SVG Export Plug-In . SVG Version: 6.00 Build 0)  -->
<svg version="1.1" id="Calque_1" xmlns="http://www.w3.org/2000/svg" xmlns:xlink="http://www.w3.org/1999/xlink" x="0px" y="0px"
	 viewBox="0 0 612 792" style="enable-background:new 0 0 612 792;" xml:space="preserve">
<style type="text/css">
	.st0{fill:#FDCC66;}
	.st1{fill:#2C2E36;}
	.st2{fill:#DE905E;}
	.st3{fill:#787D88;}
	.st4{fill:#33343A;}
	.st5{fill:#DA8F5E;}
	.st6{fill:#A6ACBC;}
	.st7{fill:#5C616B;}
	.st8{fill:#59A4C6;}
	.st9{fill:#5D616A;}
	.st10{fill:#FCCC66;}
</style>
<g>
	<path class="st0" d="M557.9,421.7c0.9,138.4-112.8,253.7-254.3,252.3c-137-1.4-249.9-112.1-249.5-252.7
		c0.4-141,114.8-252,253.5-251.3C446.5,170.6,558.6,284.5,557.9,421.7z"/>
	<path class="st1" d="M246.7,372.2c-12.4-8.7-21.1-20.1-24.1-35.2c-2.8-14.2-0.7-27.7,7-40.1c0.4-0.7,1.4,0.3,2-1.1
		c1.7-3.7,3.5-7.4,5.8-10.8c6.7-8.7,12.3-18.2,19.2-26.7c10.4-12.8,20.6-25.7,34-35.6c2.3-1.7,4.7-3.2,7.1-4.7
		c7-4.2,14.1-4.5,21.5-1.1c11.9,5.6,23.8,11.2,35.7,16.7c17.8,8.2,35.4,17.1,53.5,24.7c11.7,4.9,16.1,13.4,16.6,25.3
		c1.1,25.5-4.5,49.9-11.1,74.2c-1,3.8-2.5,7.6-3,11.6c-0.3,2.2-1.2,4.1-1.9,6.1c-0.5,1.6-3.7,3.2-0.6,5.2
		c-5.2,16.7-16.4,27.8-32.4,34.3c-15,6.1-29.9,5.3-44.5-1.6c-3-1.4-6.2-2.5-9.1-4.1c-4.5-2.6-9.3-4.3-14-6.5
		c-4-2.2-8.1-4.2-12.4-5.8c-11.4-5.7-23-10.8-34.5-16.2C256.7,377.8,250.7,376.7,246.7,372.2z"/>
	<path class="st2" d="M322.7,408.1c8.7,3.5,17,8,26.6,9.2c25.5,3.1,50.8-12.9,58.4-37.3c3.7-13.3,8.4-26.2,11.9-39.5
		c5-19.1,8.9-38.4,8.8-58.4c0-2.7-1.8-5.5,0.5-8.1c16.7,5.3,18.9,15.1,19.7,29.7c1.1,21.4-4,42.1-9.5,62.6
		c-3.6,13.5-8,26.7-13.5,39.5c-8.1,18.6-22.1,29.6-42.2,33.3c-14,2.6-26.2-1.8-38.3-7.5c-3-1.4-3.9-0.5-5.1,2.1
		c-8.5,18.4-17.1,36.8-25.6,55.1c-17.7,38.1-35.5,76.2-53.2,114.4c-4.1,8.9-8.6,17.6-15.2,25.1c-5,5.7-7.9,6.1-13.5,1
		c-8.9-8-17.6-16.2-26.4-24.4c-2.4-2.3-4.6-4.8-7.4-6.6c-2.8-1.8-4.3-4.6-4-8.1c2.7-0.9,3.8,1.4,5.3,2.8c5,4.7,9.5,9.8,14.9,14
		c4,3.1,5.1,3.1,8.9-0.4c6.6-6.1,11.3-13.4,15-21.6c8.2-18.2,16.8-36.2,25.2-54.3c12.8-27.5,25.6-54.9,38.3-82.4
		c5.5-11.9,11.3-23.7,16.8-35.7C319.9,410.8,320.6,408.8,322.7,408.1z"/>
	<path class="st3" d="M322.7,408.1c-13.3,28.3-26.6,56.6-39.8,85c-10.8,23.2-21.6,46.4-32.4,69.7c-4.2,9-8.5,18.1-12.7,27.1
		c-3.3,7.2-8.3,13.2-14,18.6c-3.2,3-5.9,3.4-9.4,0c-6.3-6.3-13.1-12.2-19.7-18.3c-5.3-4.8-10-10.2-15.8-14.5
		c-3.5-2.6-4.9-6.4-3-10.6c3.1-7,6.5-13.9,9.6-20.8c0.7-1.6,1.9-2.1,3.5-2.3c7.1-0.9,14.1-1.9,21.2-3c2.3-0.3,5.2-0.2,6.1-2.6
		c1-2.7-1.8-4-3.5-5.4c-4.2-3.6-8.4-7.1-12.8-10.4c-1.9-1.5-2.4-2.8-1.3-5c3.3-6.9,6.7-13.8,9.7-20.8c1.3-2.9,3.4-2.7,5.7-2.7
		c1.7,0,3.6,0.1,4.4-1.7c1-2-0.3-3.6-1.8-4.7c-2.5-1.9-2.4-3.7-1.1-6.4c4.4-9,8.6-18,12.7-27.1c1.1-2.3,2.6-3.6,5-4.4
		c5.2-1.7,10.4-3.6,15.5-5.6c5.1-2,6.3-5.4,3.5-10.2c-0.5-0.9-0.9-1.9-1.5-2.6c-7-7.4-6.4-14.8-1.2-23.1c3.5-5.6,5.6-12,8.3-18.1
		c0.4-3.2,1.3-6.1,4-8.2c11.8,5,23.5,10.4,34.9,16.3c1.1,1.7,0.1,3.2-0.6,4.7c-10.5,21.8-20.5,43.8-30.7,65.6
		c-12.5,26.7-25,53.4-37.3,80.2c-3.1,6.7-6.2,13.3-9.3,19.9c-1.1,2.3-2,4.6-1.7,7.2c0.2,2,1.1,3.5,3,4.2c1.9,0.7,3.6,0.1,5.1-1.2
		c1.5-1.4,2.4-3.2,3.2-5c12.3-27.1,25.1-54.1,37.7-81.1c9.8-21,19.4-42.1,29.3-62.9c3.5-7.4,6.7-14.9,10.5-22.1
		c0.8-1.5,1.1-3.2,3-3.7C313.5,403.9,318.1,406,322.7,408.1z"/>
	<path class="st4" d="M428.9,273.9c2.7,25.2-3.2,49.2-9.8,73.1c-3.1,11.2-6.4,22.3-11.4,32.9c-0.1-1.1-2.7,1.5-1.7-1.1
		c1.2-2.9,3.1-5.5,3.7-8.7c5.9-18.3,10.9-36.8,13.8-55.8c2.1-13.5,4.2-26.9,1.9-40.6c-1.4-8.1-4.9-13.9-12.8-17.5
		c-30.5-14.1-60.9-28.3-91.4-42.6c-6.8-3.2-13.2-3-19.6,0.5c-10,5.3-18,13-25.6,21.3c-14.3,15.8-27,32.8-38.3,50.8
		c-1.8,3.3-3,6.9-5.4,9.9c-0.9,1.1-1.6,1.5-2.8,0.8c8.3-17.1,19.2-32.6,30.7-47.7c8-10.5,16.5-20.4,26.6-29c3.6-3,7.3-5.8,11.3-8.2
		c8.2-4.9,16.1-5.4,25-1.1c29.2,14,58.5,27.8,88,41C421.4,256.5,427.3,263.1,428.9,273.9z"/>
	<path class="st5" d="M261.9,379.9c-1,2.9-2.3,5.7-4,8.2c-4.2-4.9-9.4-9.3-11.2-15.9C251.8,374.7,256.8,377.3,261.9,379.9z"/>
	<path class="st6" d="M308.9,401.8c-13.6,29.1-27.2,58.1-40.7,87.2c-13.2,28.3-26.3,56.7-39.5,85c-2.7,5.7-6.6,7.4-10.5,4.6
		c-4.1-3-3-7.1-1.4-10.8c3.8-8.7,7.9-17.2,11.9-25.8c15.9-33.9,31.8-67.7,47.7-101.5c6.9-14.7,13.6-29.6,20.4-44.4
		C301,397.7,305.1,399.4,308.9,401.8z"/>
	<path class="st7" d="M237.7,286.2c3-7.5,8-13.7,12.5-20.2c9.5-13.9,20-27,32-38.7c5.7-5.6,11.7-10.8,18.9-14.5
		c7-3.5,13.6-3.8,20.9-0.3c31.1,14.7,62.3,29.1,93.5,43.6c5.6,2.6,8.6,7.1,10.2,12.8c3.2,11.5,2.3,23.1,0.8,34.6
		c-2.8,21.2-7.8,42-14.8,62.2c-0.5,1.5-0.7,3.3-2,4.5c2.5-9.9,5-19.9,7.4-29.9c4.6-19.1,7.8-38.3,6.6-58.1
		c-0.6-9.6-3.8-17.3-13.7-21.7c-31.4-14.1-62.4-28.8-93.6-43.3c-4.8-2.2-9.7-2.1-14.5,0.1c-10.7,5-19.2,13-27.1,21.5
		c-13,14-24.5,29.2-34.9,45.3C239.4,285,238.5,285.5,237.7,286.2z"/>
	<path class="st2" d="M329.7,271.9c1.6-5.8,4.2-11.2,7.5-16.1c2.5-3.7,6.6-4.4,10.7-2.6c5.8,2.5,11.5,5.1,17.1,8
		c5.6,2.9,6.5,8.1,2.8,14.9c-7.3-0.8-12.1,2-14.1,9.3c-0.3,1.1-1,2.1-2,2.8c-7.4-1-13.7-4.8-19.7-8.9
		C329.8,277.7,328.5,275.1,329.7,271.9z"/>
	<path class="st8" d="M281.9,322.8c2.6-1.2,4.9-1.9,6.7-3.2c5.4-3.9,10.3-2.1,15.3,0.6c2.2,1.2,2.4,2.2-0.1,3.2
		c-1.7,0.7-3.4,1.4-5.1,2.1c-7.8,3.2-7.8,3.3-6.7,11.9c0.5,3.9,0.8,7.9,1.2,11.9c0.2,2.2-0.4,3-2.9,2.2c-6.8-2.3-7.8-3.5-7.9-10.7
		c0-0.3,0.1-0.7,0-1c-0.6-2.2,1.4-5.9-1.9-6.4c-2.9-0.4-5.7,1.8-6.8,4.9c-1.5,4.4-4,3.8-7.3,2.1c-3-1.5-3.3-3.2-1.9-5.9
		c3.6-7.5,7.2-15,10.5-22.6c1.4-3.2,3.1-3.7,6.2-2.2c3,1.5,4.7,2.9,2.9,6.5C283.2,317.9,281.8,319.7,281.9,322.8z"/>
	<path class="st8" d="M319.5,364.8c-0.5-0.2-1.1-0.5-1.7-0.7c-5.9-2.7-11.7-5.5-17.6-8.2c-2.5-1.1-3.1-2.7-2-5.1
		c3.8-8.1,7.7-16.2,11.4-24.4c1-2.2,2.4-2.4,4.4-1.5c5.9,2.8,11.7,5.5,17.6,8.2c2.3,1.1,2.8,2.6,1.8,4.8c-1,2.3-2.7,2.7-4.9,1.8
		c-2.9-1.3-5.7-2.7-8.6-4c-1.7-0.8-3.3-1.1-4.2,1c-0.8,1.9,0.1,3.2,1.8,4c2.6,1.2,5.1,2.4,7.7,3.6c1.9,0.9,2.9,2,1.8,4.3
		c-1.1,2.2-2.4,3-4.7,1.9c-2.2-1.1-4.5-2.1-6.8-3.2c-2.1-1-4-1.8-5.4,1c-1.5,3.1,0.4,4.2,2.8,5.2c2.9,1.3,5.8,2.6,8.6,4
		c1.4,0.7,2.5,1.8,1.6,3.6C322.4,362.7,321.9,364.6,319.5,364.8z"/>
	<path class="st8" d="M339.2,337c4.9,0.4,8.3,4.1,8.6,8.6c0,0.7,0,1.3,0.1,2c0.1,1.5-0.3,3.3,1.2,4.1c1.6,0.9,2.9-0.6,3.9-1.6
		c3.9-3.5,7.9-4.3,12.6-1.3c2.2,1.4,2.6,2.3,0.3,3.7c-2.5,1.6-5,3.3-7.6,4.8c-6,3.3-11,7.4-12.9,14.4c-1.1,3.8-3.4,3.7-6.6,2.3
		c-3.2-1.4-4.6-3.2-2.4-6.4c5.7-8.2,2.8-16.9,1.8-25.5C337.9,340.3,336.4,337.8,339.2,337z"/>
	<path class="st9" d="M329.7,271.9c0.7,4.9,3.6,7.9,8.1,9.7c4.7,1.9,9.3,4.2,13.9,6.3c3.7-0.3,7.3-0.9,11-1
		c-2.3,7.8-7.6,10.3-14.8,7.1c-4.8-2.2-9.7-4.3-14.4-6.7C326.6,283.7,325.4,278.4,329.7,271.9z"/>
	<path class="st10" d="M362.7,286.9c-3.5,2.1-7.1,3.3-11,1.1c1-2.6,1.8-5.3,3-7.7c2.6-5.1,7.6-6.6,13.2-4.1
		C366.7,280,365,283.6,362.7,286.9z"/>
</g>
</svg>
