<?xml version="1.0" encoding="utf-8"?>
<!-- Generator: Adobe Illustrator 19.0.0, SVG Export Plug-In . SVG Version: 6.00 Build 0)  -->
<svg version="1.1" id="Calque_1" xmlns="http://www.w3.org/2000/svg" xmlns:xlink="http://www.w3.org/1999/xlink" x="0px" y="0px"
	 viewBox="0 0 612 792" style="enable-background:new 0 0 612 792;" xml:space="preserve">
<style type="text/css">
	.st0{fill:#DF4F5F;}
	.st1{fill:#E98791;}
	.st2{fill:#E98893;}
	.st3{fill:#FAE058;}
	.st4{fill:#F9CA1B;}
	.st5{fill:#F2B507;}
</style>
<g>
	<path class="st0" d="M604,413c0,8.7,0,17.3,0,26c-1,7.2-0.9,14.4-1.5,21.6c-1.3,16.3-6,31.8-11.6,46.9
		c-11,29.8-26.6,57.1-47.7,80.9c-38.5,43.4-85.9,71.7-142.7,83.7c-9.4,2-19,1.7-28.6,2.4c-1.6,0.1-3.3-0.5-4.9,0.5c-13,0-26,0-39,0
		c-7.8-1.1-15.6-1.1-23.5-1.8c-11.4-0.9-22.4-3.9-33.2-7.3c-34.5-10.8-65.6-27.8-92.7-51.7c-23.7-20.8-43.5-44.9-58.4-72.9
		c-11.5-21.6-20-44.3-25.1-68.2c-2.1-9.8-1.9-19.8-2.7-29.7c-0.1-1.1,0.4-2.3-0.5-3.4c0-9.3,0-18.7,0-28c1.1-3.5,0.2-7,0.5-10.5
		c-0.8-35.4,9.2-68,25-99.3c12.4-24.5,28.2-46.3,47.5-65.7c17.9-18,38.1-33.2,60.6-45.2c21-11.2,43-19.7,66.2-24.7
		c12.7-2.7,25.7-2.9,38.6-3.2c3.5-0.3,7.1,0.6,10.5-0.5c8.7,0,17.3,0,26,0c7.7,1.1,15.4,1.1,23.1,1.7c16,1.2,31.2,5.8,46.1,11.3
		c26.8,9.8,51.6,23.3,73.6,41.5c43.7,36,73.6,81,88.3,135.9c4.3,16.1,5,32.5,5.4,49C603.8,406,602.9,409.5,604,413z"/>
	<path class="st1" d="M329.8,163.9c0.1-0.3,0.2-0.6,0.2-0.9c3.7,0,7.3,0,11,0C337.4,164.5,333.6,164.1,329.8,163.9z"/>
	<path class="st1" d="M92,401c0.3-0.1,0.6-0.2,0.9-0.2c0.3,3.8,0.6,7.5-0.9,11.2C92,408.3,92,404.7,92,401z"/>
	<path class="st2" d="M603.2,401.8c0.3-0.2,0.6-0.1,0.8,0.2c0,3.7,0,7.3,0,11C602.6,409.3,602.9,405.6,603.2,401.8z"/>
	<path class="st3" d="M228.1,542c-15.5-13.9-24.6-31.5-27.8-51.7c-8.1-50.1,23.2-95.8,72.8-106.7c15.4-3.4,30.8-2.8,45.8,2.1
		c3.7,1.2,6,0.4,8.6-2.3c36.4-36.6,73-73.1,109.5-109.7c2.7-2.7,5.3-4,9.1-3.9c15.5,0.2,31,0.1,46.5,0.1c2.8,0,5.1,0.2,4.3,4
		c-1.2,3.7-3.5,6.7-6.3,9.4c-65,64.9-129.9,129.9-194.9,194.9c-2.3,2.3-4.5,4.9-7.8,6.1c-2.7,0.2-4.1-1.9-5.8-3.5
		c-5.3-5.1-10.3-10.4-15.6-15.4c-2.7-2.6-5.8-4.6-9.7-4.7c-4.5-0.1-8.6,2.9-10.4,8c-5.6,15.4-2.3,29.4,6.9,42.5
		c1.2,1.7,3.2,3.1,2.2,5.7c-4.4,7.4-11.5,12.4-17.2,18.6c-1.7,1.8-3.5,3.5-5.3,5.3C231.6,542.2,230,542.9,228.1,542z"/>
	<path class="st4" d="M287.8,483c1.2-1.4,2.4-2.8,3.7-4c67-67,133.9-134,200.9-200.9c1.4-1.4,2.9-2.7,4.4-4.1c0.1,16,0.1,32,0.2,48
		c0,3-1,4.1-4.1,4.1c-9-0.1-18,0.2-27-0.1c-4.7-0.2-6.5,1.1-6.3,6c0.4,8.6,0,17.3,0.2,26c0.1,3.8-1,5.3-5.1,5.2
		c-8.7-0.3-17.3-0.1-26-0.1c-6.4,0-6.4,0-6.4,6.7c0,7.8,0,15.7,0,23.5c0,7,0,7-7.3,7c-8,0-16,0.3-24-0.1c-5-0.2-6.2,1.6-6.1,6.3
		c0.3,9,0.1,18,0.1,27c0,2.2,0.2,4.5-1.8,5.9c-3.7,2.7-3.1,5.8-1.9,9.6c12,40-4.7,82.9-40.8,105.3c-34.6,21.4-80.9,17.1-110.9-10.4
		c-0.6-0.6-1.1-1.2-1.6-1.9c8.7-8.5,17.4-16.9,26.1-25.4c3.1-1.3,4.9,1.1,7.1,2.5c12.2,8.3,25.3,11.7,39.7,7
		c11.3-3.7,13.5-12.4,5.4-20.9c-5.4-5.7-11.2-11-16.5-16.7C288.3,487.1,286.3,485.6,287.8,483z"/>
	<path class="st0" d="M287.8,483c6.9,7,13.8,14,20.6,21c9.1,9.3,6.5,20.4-5.9,24.3c-18.4,5.8-34.4,1-48.4-11.6
		c-6.4-8.2-11.5-16.9-12.8-27.6c-1-8.1,0.1-16,3.4-23.3c3.9-8.8,14.3-10.4,21.6-3.6C273.6,469,280.7,476.1,287.8,483z"/>
	<path class="st5" d="M467.8,279.2c-0.6,2.8-2.3,3.7-3.5,5C429.7,318.8,395,353.4,360.4,388c-5.4,5.4-9,6.2-12.3,3
		c-3.4-3.3-2.6-6.9,2.8-12.3c31.2-31.2,62.5-62.3,93.5-93.7c4.2-4.3,8.4-6.6,14.4-5.9C461.6,279.4,464.5,279.2,467.8,279.2z"/>
</g>
</svg>
