<?xml version="1.0" encoding="utf-8"?>
<!-- Generator: Adobe Illustrator 19.0.0, SVG Export Plug-In . SVG Version: 6.00 Build 0)  -->
<svg version="1.1" id="Calque_1" xmlns="http://www.w3.org/2000/svg" xmlns:xlink="http://www.w3.org/1999/xlink" x="0px" y="0px"
	 viewBox="0 0 612 792" style="enable-background:new 0 0 612 792;" xml:space="preserve">
<style type="text/css">
	.st0{fill:#F96252;}
	.st1{fill:#FA7A6D;}
	.st2{fill:#FA887D;}
	.st3{fill:#FCB6AF;}
	.st4{fill:#FCC5BF;}
	.st5{fill:#F95545;}
	.st6{fill:#FCB5AE;}
	.st7{fill:#3B92CB;}
	.st8{fill:#3B92CC;}
</style>
<g>
	<path class="st0" d="M294,655.9c0-92.9,0-185.8,0.1-278.6c0-2.1-0.8-4.3,0.9-6.2c0,94.6,0,189.2,0,283.8c0,0.3-0.1,0.7-0.1,1
		C294.6,656.4,294.3,656.3,294,655.9z"/>
	<path class="st1" d="M216.1,636c17.9,0,35.8,0,53.7,0.1c1.7,0,3.7-0.8,5.1,1.1c-17.9-0.1-35.9-0.1-53.8-0.2
		C219.5,636.9,217.5,637.9,216.1,636z"/>
	<path class="st2" d="M226.1,577c14.6,0,29.2,0,43.8,0.1c1.7,0,3.7-0.8,5,1.1c-14.6-0.1-29.2-0.1-43.8-0.2
		C229.4,577.9,227.4,578.9,226.1,577z"/>
	<path class="st3" d="M294,655.9c0.3,0,0.6,0,0.9,0c-6.6,1.9-13.2,1.9-19.8,0C281.4,655.9,287.7,655.9,294,655.9z"/>
	<path class="st4" d="M293,193.8c-5.4,0-10.7,0-16.1,0C282.3,192.5,287.7,192.5,293,193.8z"/>
	<path class="st5" d="M391.8,268.1c-4.7-22.8-18.1-40-37-53.1c-18.6-12.9-39.5-19.1-61.8-21.1c-5.4-0.5-10.7-0.5-16.1,0
		c-5.6,0.7-11.2,1.1-16.7,2.2c-28.2,5.7-52.1,18.5-69.3,42.3c-11.9,16.4-16.8,34.9-13.8,54.7c3.6,23.4,16.4,41.6,35.6,55.4
		c17.4,12.5,36.8,19.9,58.2,21.6c3.9,0.3,4,2.4,4,5.4c0,59.3-0.1,118.6,0,177.9c0,3.6-0.7,4.8-4.6,4.8c-13.5-0.3-27,0-40.5-0.2
		c-3.2,0-4.4,0.8-4.2,4.1c0.3,5,0.2,10,0.3,15c1.5,1,3.2,0.5,4.8,0.5c13.1,0,26.2,0,39.2,0.1c1.6,0,3.3-0.6,4.8,0.6
		c0,11.3-0.2,22.6,0.2,33.9c0.1,4.4-1.4,5.1-5.3,5c-16.6-0.2-33.2,0-49.8-0.2c-3.3,0-4.3,0.9-4.1,4.2c0.3,5,0.2,9.9,0.2,14.9
		c1.5,1,3.2,0.5,4.8,0.5c16.4,0,32.8,0,49.2,0.1c1.6,0,3.3-0.6,4.8,0.6c0.1,6.2,0.1,12.5,0.2,18.7c6.4,1,12.8,1.1,19.2,0
		c0.4-2,0.2-4,0.2-6c0-91,0-181.9,0-272.9c0-2-0.4-4,0.4-5.9c3.8-2,8.1-1,12.1-1.9c27.6-5.8,51.8-17.3,69.5-40
		C390.5,311,396.4,290.6,391.8,268.1z M303.2,319.5c-2.1,1-4.3,1.9-6.6,2.2c-4.2,0.6-7.7,1.2-6.7,7c0.6,3.5-2.5,2.2-4.2,2.3
		c-1.8,0.2-4,0.5-3.6-2.5c0.8-5-1.6-6.1-6.2-6.8c-7.4-1.2-14-5-20-9.5c-1.8-1.3-2.8-2.5-0.5-5.1c6.3-7,6-7.1,13.7-2.3
		c3.9,2.5,7.8,5.2,12.9,4.2c0.8-7.3,0.9-14.6-0.1-21.9c-5.8-2-11.9-3.3-17.1-6.9c-6.5-4.6-9.6-11.2-8.6-18.8
		c1.3-9.4,5.8-17.1,15.7-20.2c2-0.6,4-1.4,6.2-1.2c1.5,0.1,3.8-0.2,3.7-2.3c-0.4-4.6,2.7-3.4,5.1-3.6c3.2-0.3,3,1.8,2.9,3.8
		c-0.2,2.3,1.3,2.2,2.9,2.2c6.9,0.3,12.9,3.5,18.9,6.4c1.7,0.8,2.3,2.2,1.1,3.9c-1.7,2.4-3.4,4.8-5.1,7.2c-1.2,1.7-2.4,0.5-3.4,0
		c-3.4-1.5-6.7-3.3-10.2-4.5c-2.5-0.9-4.7-0.3-4.2,3.3c0.1,1,0,2,0,3c0,4.8-1.4,10.3,0.5,14.3c1.7,3.6,7.9,3.2,12,5
		c7.6,3.4,12.8,8.1,13.6,16.8C317,306.4,313.1,314.6,303.2,319.5z"/>
	<path class="st6" d="M281.9,287.1c2.2,7.2,0.7,14.5,0.9,21.8c0,0.1-0.2,0.2-0.3,0.2c-0.2,0-0.3-0.1-0.5-0.2
		C282,301.7,281.9,294.4,281.9,287.1z"/>
	<path class="st7" d="M290,289.2c3.6,0.4,6.4,1.7,8.9,3.6c3.6,2.8,4,6.7,2.4,10.7c-1.2,3.1-7.4,6.8-10,6.4c-1.5-0.2-1.3-1.3-1.3-2.2
		C290,301.6,290,295.5,290,289.2z"/>
	<path class="st8" d="M282.2,261.9c0,1.2,0.1,2.3,0,3.5c-0.2,2.1,1,5.1-0.7,6c-1.9,1-4.3-1.1-6.2-2.2c-3.7-2.3-5-5.7-3.9-9.8
		c1.2-4.3,4.6-6.3,8.7-7.2c1.9-0.4,2.2,0.8,2.2,2.3C282.2,257,282.2,259.4,282.2,261.9z"/>
</g>
</svg>
