<?xml version="1.0" encoding="utf-8"?>
<!-- Generator: Adobe Illustrator 19.0.0, SVG Export Plug-In . SVG Version: 6.00 Build 0)  -->
<svg version="1.1" id="Calque_1" xmlns="http://www.w3.org/2000/svg" xmlns:xlink="http://www.w3.org/1999/xlink" x="0px" y="0px"
	 viewBox="0 0 612 792" style="enable-background:new 0 0 612 792;" xml:space="preserve">
<g>
	<path d="M50.2,437.3c0-126.8,103.7-230.4,230.4-230.2C408,207.3,511,310.3,511,437.6c0,127.3-103.3,230.5-230.5,230.4
		C153.2,667.9,50.2,564.6,50.2,437.3z M280.9,321.6c-63.9-0.2-115.8,51.3-116.1,115.3c-0.4,64.4,51.4,116.6,115.7,116.8
		c63.8,0.2,116.2-52,116.3-115.9C397,373.8,345.1,321.8,280.9,321.6z"/>
	<path d="M349.4,437.8c-0.3,38.6-31.2,68.8-69.8,68.4c-38-0.4-68-31.4-67.7-70c0.3-37.6,31.5-67.8,69.7-67.4
		C319.3,369.2,349.8,400.3,349.4,437.8z M253.6,483.2c18.5,0,36.2,0,54.1,0c-0.5-2-0.9-3.4-1.3-4.8c-4.8-16.4-9.6-32.9-14.2-49.4
		c-0.5-1.6-0.1-4.3,1-5.5c7.6-8.4,7.9-19.4,0.3-26.8c-7.1-6.9-18.6-6.9-25.7,0.1c-7.4,7.4-7.2,18.2,0.2,26.5
		c1.1,1.2,1.6,3.8,1.2,5.5c-2.1,8.1-4.5,16-6.8,24C259.5,462.8,256.6,472.9,253.6,483.2z"/>
</g>
</svg>
