<?xml version="1.0" encoding="utf-8"?>
<!-- Generator: Adobe Illustrator 19.0.0, SVG Export Plug-In . SVG Version: 6.00 Build 0)  -->
<svg version="1.1" id="Calque_1" xmlns="http://www.w3.org/2000/svg" xmlns:xlink="http://www.w3.org/1999/xlink" x="0px" y="0px"
	 viewBox="0 0 612 792" style="enable-background:new 0 0 612 792;" xml:space="preserve">
<g>
	<path d="M295.9,626.4C168.5,625.7,65.5,522,66.2,395c0.6-127.1,104.5-230.3,231-229.5c128.2,0.8,230.8,104.3,229.8,232
		C526.1,524.4,422.3,627.1,295.9,626.4z M372.1,537.4c-0.4-1.5-0.6-2.4-0.9-3.3c-15.3-52.7-30.6-105.4-46-158.1
		c-1-3.5-1.4-6,2.2-8.9c13.6-10.9,20-25.6,19.4-42.9c-1-24.3-18.4-44.3-42.3-49.2c-23.3-4.8-47.3,7.2-57.6,28.9
		c-10.5,22-4.8,47.8,14.2,63.2c3.2,2.6,3.5,4.7,2.4,8.3c-15.4,52.5-30.6,105-45.9,157.6c-0.4,1.4-0.6,2.8-1,4.4
		C268.5,537.4,320,537.4,372.1,537.4z"/>
</g>
</svg>
