<?xml version="1.0" encoding="utf-8"?>
<!-- Generator: Adobe Illustrator 19.0.0, SVG Export Plug-In . SVG Version: 6.00 Build 0)  -->
<svg version="1.1" id="Calque_1" xmlns="http://www.w3.org/2000/svg" xmlns:xlink="http://www.w3.org/1999/xlink" x="0px" y="0px"
	 viewBox="0 0 612 792" style="enable-background:new 0 0 612 792;" xml:space="preserve">
<g>
	<path d="M536.7,568.5c-135.2,0-270.1,0-405.4,0c0-64.1,0-127.9,0-192.5c23.4,0,46.9,0,71.1,0c0-2.8,0-4.9,0-7
		c0.4-17.1-0.5-34.5,1.6-51.4c6.8-54.1,48.4-97.9,101.6-108.7c73.3-14.8,143.7,34.7,154,108.6c1.6,11.8,1.3,23.9,1.9,36.4
		c-14.2-1.5-27.5-3-40.6-4.4c-5.1-14.7,3.7-25.4,11.2-37.6c-4.4,0.2-7.8,0-11.1,0.6c-3.6,0.6-4.4-1.2-5.3-4.1
		c-9.9-28.7-29.1-48.3-58.1-57.3c-55.4-17.3-111.2,22.4-114.1,81.1c-0.7,14.3-0.1,28.6-0.1,43.4c97.9,0,195.4,0,293.3,0
		C536.7,440.1,536.7,504,536.7,568.5z M356.2,509.7c-4.3-14.9-8.4-29.3-12.7-43.6c-0.8-2.7-0.6-4.4,1.4-6.6c5.7-6.1,5.3-15-0.4-20.6
		c-5.7-5.6-15-5.7-20.8-0.3c-6.1,5.7-6.6,14.7-0.7,21c2.1,2.2,2.2,4,1.4,6.6c-3.8,12.7-7.5,25.5-11.2,38.2c-0.5,1.6-0.8,3.3-1.3,5.3
		C326.9,509.7,341.2,509.7,356.2,509.7z"/>
</g>
</svg>
