<?xml version="1.0" encoding="utf-8"?>
<!-- Generator: Adobe Illustrator 19.0.0, SVG Export Plug-In . SVG Version: 6.00 Build 0)  -->
<svg version="1.1" id="Calque_1" xmlns="http://www.w3.org/2000/svg" xmlns:xlink="http://www.w3.org/1999/xlink" x="0px" y="0px"
	 viewBox="0 0 612 792" style="enable-background:new 0 0 612 792;" xml:space="preserve">
<g>
	<path d="M433,327.6c0,0.5,0,1,0,1.5c0,9.3-0.8,18.7,0.2,28c1,9.6,9.5,15.6,14.2,23.4c61.2,101.3-1.7,233.7-118.7,249.3
		c-88.8,11.8-170.2-47.5-185.4-135.9c-7.7-44.7,2.2-86,28-123.4c1.7-2.5,2.8-6,2.9-9.1c0.4-21.8-0.4-43.7,0.8-65.5
		c3-56.3,45.1-104.9,100.3-117c74.2-16.2,146,33.3,156.3,108.3c1.8,13.3,1.3,26.9,1.9,40.4C433.3,327.6,433.2,327.6,433,327.6z
		 M391,324.1c0-10.5,1-21.1-0.2-31.4c-5.9-49.6-55.8-84.8-104.6-74.2c-45,9.8-77.7,48.5-70.3,108.8
		C273.8,293.1,332.3,292.1,391,324.1z M306,559.6c51.1,0.3,93.1-41.6,93.5-93c0.4-51.5-41.3-93.5-93.1-93.8
		c-51.2-0.3-93.2,41.1-93.6,92.1C212.3,517.3,253.8,559.4,306,559.6z"/>
	<path d="M306.1,554.5c-49,0-88.3-39.6-88.2-88.9c0.1-48.2,39.8-87.8,88-87.7c49.1,0.1,88.4,39.2,88.5,88.1
		C394.5,514.7,354.8,554.5,306.1,554.5z M324.9,502.7c-4.2-14.6-8.2-28.7-12.4-42.6c-0.9-3.1-0.7-5.1,1.4-7.9
		c2.2-3.1,3.6-7.6,3.5-11.4c-0.2-6.5-5.5-11.5-11.6-12.7c-6.5-1.2-12.6,1.4-15.9,6.8c-3.4,5.5-3,12.7,1.7,17.6
		c2.2,2.3,2.5,4.1,1.6,7c-3.3,10.6-6.2,21.4-9.3,32.1c-1,3.6-2.1,7.2-3.2,11.2C295.6,502.7,309.9,502.7,324.9,502.7z"/>
</g>
</svg>
