<?xml version="1.0" encoding="utf-8"?>
<!-- Generator: Adobe Illustrator 19.0.0, SVG Export Plug-In . SVG Version: 6.00 Build 0)  -->
<svg version="1.1" id="Calque_1" xmlns="http://www.w3.org/2000/svg" xmlns:xlink="http://www.w3.org/1999/xlink" x="0px" y="0px"
	 viewBox="0 0 612 792" style="enable-background:new 0 0 612 792;" xml:space="preserve">
<style type="text/css">
	.st0{fill:#2A3D4F;}
	.st1{fill:#FAC94F;}
	.st2{fill:#3C95CF;}
	.st3{fill:#2B3D4F;}
	.st4{fill:#E9665D;}
	.st5{fill:#D2C7BB;}
	.st6{fill:#E5E2DF;}
</style>
<g>
	<path class="st0" d="M285.2,169.6c74.1,0,148.3,0,222.4,0c10.9,0,13.6,2.7,13.6,13.5c0,132.9,0,265.9,0,398.8
		c0,23.7-16.8,40.4-40.7,40.4c-99,0.1-197.9,0-296.9,0c-31,0-62,0-93,0c-25.3,0-41.9-16.4-41.9-41.8c0-96.6,0-193.3,0-289.9
		c0-36.3,0-72.6,0-108.9c0-8.8,3.3-12.2,12-12.2C135.6,169.5,210.4,169.6,285.2,169.6C285.2,169.6,285.2,169.6,285.2,169.6z"/>
	<path class="st1" d="M285.2,287.8c70.1,0,140.3,0.1,210.4-0.1c5.2,0,6.2,1.5,6.2,6.4c-0.1,95.3-0.1,190.6-0.1,285.9
		c0,15-7.9,22.9-22.7,22.9c-129.1,0-258.2,0-387.4,0c-6.7,0-12.9-1.2-17.8-6.3c-4.3-4.5-5.6-10-5.6-16.1c0-72.5,0-145,0-217.4
		c0-23.3,0.1-46.7-0.1-70c0-4.5,1.3-5.5,5.6-5.5C144.2,287.8,214.7,287.8,285.2,287.8z"/>
	<path class="st2" d="M284.9,268c-70.3,0-140.7,0-211,0.1c-4.6,0-5.8-1.2-5.8-5.8c0.2-22.5,0.2-45,0-67.5c0-4.7,1.4-5.8,5.9-5.8
		c140.2,0.1,280.3,0.1,420.5,0.1c7.3,0,7.3,0,7.3,7.3c0,5.7-0.3,11.3,0.1,17c0.3,4.4-1.2,5.7-5.6,5.7c-40.5-0.2-81-0.1-121.5-0.1
		c-51,0-102,0-153-0.1c-4.3,0-6.6,0.7-5.9,5.6c0.6,4.4-1.9,10.1,1.1,12.9c2.7,2.6,8.3,0.8,12.6,0.8c88.5,0,177,0,265.5,0
		c6.7,0,6.7,0,6.7,6.9c0,6-0.2,12,0.1,18c0.2,4-1.2,5-5.1,5c-26.2-0.2-52.3-0.1-78.5-0.1C373.8,268,329.4,268,284.9,268z"/>
	<path class="st0" d="M172.8,356.6c30.7,0.3,51.8,9.4,69.1,27.3c2.4,2.5,4.8,3.7,8.2,3.5c4.3-0.3,8.7-0.2,13-0.1
		c7.8,0.2,11.5,3.9,11.6,11.8c0.1,8.1,0.1,8.1,8.2,8.1c53.2,0,106.3,0,159.5-0.1c5.2,0,9.2,1.4,12.9,5.2
		c6.8,7.3,14.1,14.2,21.1,21.3c5.1,5.1,5.3,9.8,0.9,15.5c-7.5,9.7-15.1,19.5-22.8,29.2c-4.3,5.4-8.9,6.2-14.8,2.6
		c-5.2-3.2-10.4-6.5-15.5-10c-1.9-1.3-3.4-1.3-5.3,0c-4.7,3.2-9.7,5.9-14.3,9.2c-5.4,3.9-10.3,3.7-15.6-0.1c-4.5-3.2-9.3-5.9-13.8-9
		c-2.1-1.5-3.7-1.4-5.8,0.1c-4.8,3.3-9.8,6.2-14.7,9.5c-4.7,3.2-9.1,3.3-13.9,0.1c-4.8-3.3-9.8-6.3-14.6-9.5c-2-1.4-3.7-1.9-5.7-0.1
		c-12,10.5-25.9,14.2-41.6,12.1c-3.2-0.4-4.6,0.7-4.3,4.1c0.2,2.1,0.2,4.3,0,6.5c-0.5,5.5-4.5,10-9.8,9.2
		c-13.5-1.9-22.8,3.7-33,12.3c-33.7,28.4-88,23.7-117.8-8.9c-41.8-45.8-28.4-114.9,27.7-141.6C153.3,359.1,165.6,356.5,172.8,356.6z
		"/>
	<path class="st0" d="M186.4,583c-19.1,0-38.3,0-57.4,0c-7.3,0-11.9-3.8-11.9-9.8c0-5.9,4.7-10,11.9-10c38.4,0,76.9,0,115.3,0
		c7.1,0,11.8,4.2,11.7,10.2c-0.1,5.9-4.6,9.6-11.6,9.6C225,583.1,205.7,583,186.4,583z"/>
	<path class="st3" d="M383.5,317.2c19.3,0,38.7,0,58,0c4.3,0,7.9,1.3,10.1,5.2c1.8,3.3,1.8,6.7-0.3,9.9c-2.4,3.7-6.1,4.7-10.4,4.7
		c-31.2-0.1-62.3,0-93.5,0c-7.5,0-15,0.1-22.5,0c-6.5-0.1-10.9-4.1-10.9-9.9c0-5.6,4.5-9.8,10.9-9.9
		C344.5,317.1,364,317.2,383.5,317.2z"/>
	<path class="st0" d="M136.9,238.2c-9.7,0-9.7,0-9.7-9.8c0-9.5,0-9.5,9.7-9.5c10.1,0,10.1,0,10.1,10.1
		C147,238.2,147,238.2,136.9,238.2z"/>
	<path class="st0" d="M98.3,218.9c9.6,0,9.6,0,9.6,9.7c0,9.6,0,9.6-9.8,9.6c-10.1,0-10.1,0-10.1-10.3C88,218.9,88,218.9,98.3,218.9z
		"/>
	<path class="st0" d="M176.6,218.9c10.2,0,10.2,0,10.2,10.1c0,9.2,0,9.2-9.2,9.2c-10.6,0-10.6,0-10.7-10.7
		C166.9,218.9,166.9,218.9,176.6,218.9z"/>
	<path class="st4" d="M255,445.1c0,11.2-0.2,22.3,0.1,33.5c0.1,3.9-1.2,5.1-4.8,4.6c-1.5-0.2-3,0.1-4.5-0.1
		c-6.5-0.7-11.2,1.9-15.6,6.9c-27.8,31.6-73.7,32.7-102.3,2c-18.7-20.1-23.8-44.2-14.3-70c9.5-26.1,28.8-41.5,56.6-45
		c24.5-3.1,44.9,5.4,60.7,24.3c4.9,5.8,10.6,5.8,17,5.8c8.3-0.1,7.1-1.1,7.1,7.1C255,424.5,255,434.8,255,445.1z"/>
	<path class="st5" d="M358.6,427c26.3,0,52.6,0,78.9-0.1c3.1,0,5.3,0.7,7.4,3c3.2,3.6,6.7,7,10.2,10.3c1.9,1.7,1.9,3,0.3,4.9
		c-4,4.7-6.9,12.1-11.8,13.6c-4.6,1.4-10-5.2-14.9-8.4c-5.2-3.3-9.8-3.3-14.7,0.2c-4.5,3.2-9.3,5.8-13.8,9c-2.5,1.7-4.3,1.6-6.7-0.1
		c-4.8-3.3-9.8-6.3-14.6-9.5c-4.4-2.9-8.6-2.9-13,0c-4.8,3.2-9.9,6.2-14.7,9.5c-2.4,1.7-4.2,1.8-6.7,0c-4.6-3.3-9.5-6.1-14.2-9.2
		c-4.7-3.1-9.2-3.4-13.9-0.1c-2.3,1.7-5,2.8-7.1,4.7c-8.9,7.8-19.3,9.5-30.6,8.6c-3.1-0.3-3.9-1.1-3.9-4.1c0.2-9.3,0.3-18.7,0-28
		c-0.2-4.1,1.5-4.5,4.9-4.5C306,427.1,332.3,427,358.6,427z"/>
	<path class="st0" d="M155,411.9c18.4,0,33,14.9,33,33.5c0,18.5-15.2,33.6-33.8,33.4c-18-0.1-33.2-15.6-33.1-33.7
		C121.2,426.5,136.1,411.9,155,411.9z"/>
	<path class="st6" d="M140.9,444.9c0.1-7.5,6.4-13.6,13.8-13.4c7.8,0.2,13.7,6.3,13.5,14.2c-0.1,7.5-6.3,13.5-13.8,13.4
		C146.7,458.9,140.8,452.7,140.9,444.9z"/>
</g>
</svg>
