<?xml version="1.0" encoding="utf-8"?>
<!-- Generator: Adobe Illustrator 19.0.0, SVG Export Plug-In . SVG Version: 6.00 Build 0)  -->
<svg version="1.1" id="Calque_1" xmlns="http://www.w3.org/2000/svg" xmlns:xlink="http://www.w3.org/1999/xlink" x="0px" y="0px"
	 viewBox="0 0 612 792" style="enable-background:new 0 0 612 792;" xml:space="preserve">
<style type="text/css">
	.st0{fill:#6458DA;}
	.st1{fill:#6558DB;}
</style>
<g>
	<path class="st0" d="M371.1,483.9c-16.9,0.2-31.5-2.7-45.4-8.9c-2.8-1.2-4.4-0.8-6.3,1.4c-12.9,13.9-26.3,27.5-38.7,41.8
		c-5.6,6.5-11.7,10.1-20.3,10.7c-8.2,0.6-8.2,1-9.7,9.4c-2.8,16.1-2.8,16.3-19.3,18.4c-4.1,0.5-5.7,1.8-5.8,6
		c-0.1,4.5-1.2,8.9-1.6,13.4c-0.3,3-1.6,4.4-4.5,5c-5.2,1-10.4,2.3-15.6,3.3c-2.6,0.5-3.6,1.7-3.8,4.3c-0.3,4.8-0.9,9.6-1.2,14.4
		c-0.2,2.8-1.4,4.3-4.1,4.7c-15.9,2.7-31.8,5.5-47.7,8.2c-4.8,0.8-6-0.5-5.6-5.3c1.5-15.6,3-31.1,4.4-46.7c0.2-2.7,1.5-4.6,3.3-6.5
		c27.4-29.3,54.9-58.7,82.3-88c13.2-14.1,26.4-28.3,39.6-42.4c0.9-1,1.8-2,2.8-2.8c1.6-1.3,3.4-1.4,4.9,0.2c1.6,1.6,1.5,3.3,0.1,4.9
		c-2.2,2.5-4.5,4.9-6.8,7.4c-38,40.7-75.9,81.4-114,121.9c-3.2,3.4-4.7,7-5.1,11.4c-1.1,11.4-2.1,22.9-3.5,34.3
		c-0.4,3,0.1,4,3.2,3.4c12.1-2.2,24.2-4.3,36.4-6.4c2.2-0.4,3-1.4,3.2-3.6c0.3-4.8,1.2-9.6,1.4-14.4c0.1-3.6,1.9-5,5.1-5.6
		c4.9-0.9,9.7-2.3,14.7-3c3-0.4,4-1.9,4.2-4.5c0.5-4.6,1-9.3,1.4-13.9c0.3-3.4,1.6-5.5,5.4-5.8c3.6-0.3,7.2-1.5,10.8-1.7
		c5-0.2,7.4-2.3,7.7-7.4c0.3-4.3,1.5-8.5,1.9-12.8c0.3-3.7,2.2-5.3,5.6-5.7c4.4-0.6,8.9-1.6,13.3-1.9c3.9-0.2,6.4-2,8.9-4.7
		c14.6-15.8,29.4-31.4,43.9-47.2c2.9-3.1,5.2-3.8,9.4-1.9c62.6,29.3,137.6-11.4,146.7-79.7c4.5-33.7-5.3-63.2-29-87.8
		c-0.9-1-1.9-1.9-2.8-2.8c-1.7-1.8-2.4-3.8-0.5-5.7c1.9-1.9,3.9-1.3,5.7,0.4c5.3,4.9,9.9,10.3,14.1,16.2
		c46.9,65.8,9.8,158.7-69.5,174.1C383.6,483.3,376.5,484,371.1,483.9z"/>
	<path class="st1" d="M493.7,291.2c-5.1-5.4-11.3-9.3-18-12.4c-17.8-8.3-36.5-13.4-56-15.7c-3.5-0.4-5.2-1.8-6.8-4.7
		c-22.9-41.2-71.9-63.8-118.1-54.4c-62.2,12.6-101.1,72.6-87.2,134.8c0.8,3.5,0,5.2-3,7.1c-48.5,32-96.9,64.1-145.4,96.2
		c-1.7,1.1-3.2,2.2-4,4.3C50,462,44.4,477.5,39,493c-1.1,3.2-0.3,5.6,3.8,5.8c16.3,1,32.6,1.9,48.8,3c3.3,0.2,4.8-1.2,5.7-4.2
		c1.3-4.5,3.1-8.8,4.4-13.3c0.7-2.4,1.7-3.1,4.2-3c5.5,0.3,11,0.2,16.5,0.4c2.8,0.1,4.4-1,5.3-3.5c0.6-1.7,1.2-3.5,1.9-5.2
		c1.5-4,2-9.3,4.9-11.7c3-2.5,8.3-0.1,12.6,0.2c9,0.6,9,0.6,12.4-7.6c0.9-2.2,1.7-4.3,2.6-6.5c3.4-8.1,3.4-8.3,12.1-7
		c7.8,1.2,14.2-0.3,20.9-5c15.6-11.1,31.9-21.2,47.7-32c2.8-1.9,4.6-1.9,7.4,0.1c24.9,18,52.7,24.6,83.1,20.2
		c52.9-7.7,94.2-55.1,94.3-108.5c0-15.1-2.7-29.8-8.7-44.5c1.5,0,2.3-0.1,3.1,0c18.4,2.7,36.1,7.7,52.8,16
		c5.5,2.7,10.7,6.1,14.6,11.1c3.7,4.7,3.2,8.3-1.7,11.8c-4.1,3-8.9,4.4-13.8,5.6c-2.4,0.6-4.7,1.7-4,4.7c0.7,2.8,3.2,3.2,5.7,2.6
		c5-1.3,9.9-2.8,14.4-5.5C500.8,310.7,502.2,300.2,493.7,291.2z M337.9,415.4c-31.2,6.5-59.9-0.2-85.3-19.5c-3.9-3-6.7-3.3-10.9-0.4
		c-17.7,12.1-35.8,23.8-53.6,35.8c-3.1,2.1-6.2,2.8-9.8,2.3c-4.6-0.6-9.3-0.9-13.9-1.4c-2.9-0.3-4.3,1.3-5.2,3.6
		c-2.1,5.1-4.3,10.1-6.3,15.2c-1,2.5-2.2,3.7-5.2,3.2c-4.4-0.7-8.9-0.8-13.4-1.2c-3.4-0.4-5.7,0.5-6.8,4.2
		c-1.5,4.8-3.6,9.3-5.1,14.1c-0.9,2.8-2.4,3.6-5.1,3.3c-4.3-0.4-8.7-0.1-13-0.7c-5.4-0.8-8,1.6-9.1,6.6c-0.9,3.9-2.4,7.6-3.6,11.4
		c-0.6,2-1.6,2.9-3.9,2.7c-12.1-0.9-24.2-1.8-36.4-2.5c-3.3-0.2-3.9-1-2.7-4.2c4.4-11.9,8.5-23.8,12.6-35.8c0.9-2.6,2.8-4,4.9-5.3
		c48.5-32.1,96.9-64.2,145.5-96.1c4.4-2.9,5.3-5.5,3.9-10.6c-15.7-60,24.3-121,85.7-129.4c42.4-5.8,76.3,9.9,101.4,44.4
		c1.3,1.7,2.3,3.6,3.3,5.3c-1,1.6-2.3,1.1-3.3,1c-13-1.4-25.9-0.1-38.8,2.1c-2.2,0.4-4.2,0-6.2-1.1c-15.3-7.7-30.1-6.6-43.6,3.9
		c-13.1,10.3-17.9,24.3-14.2,40.5c3.8,16.5,14.8,26.4,31.1,30.2c16.5,3.9,33.8-3.5,42.8-18c8.9-14.4,7.9-32.6-2.5-45.8
		c-0.7-0.9-1.4-1.8-2.5-3.3c13-2.1,25.3-1.6,37.6-1.3c3.1,0.1,4.6,1.4,5.8,4.3C437.5,333.4,402,401.9,337.9,415.4z M339.3,291.9
		c4.8,7.2,12,11.4,19.4,15.3c2,1.1,3.7,0.4,4.7-1.4c1.2-2,0.7-3.9-1.5-5.1c-4.4-2.4-8.8-4.8-12.4-8.3c-3.2-3-7-6.2-4.9-11.5
		c1.4-3.5,10.3-8.8,14-8.5c1.3,0.1,2.1,0.9,3,1.7c10.5,9,13.8,25.5,7.8,38.4c-6.2,13.3-20.7,21.2-34.8,18.9
		c-14.8-2.4-26.2-13.8-27.9-27.9c-3-24.8,18.5-43.3,43-36.3c-3,2.1-5.6,3.6-7.8,5.5C335.9,277.9,334.9,285.3,339.3,291.9z"/>
</g>
</svg>
