<?xml version="1.0" encoding="utf-8"?>
<!-- Generator: Adobe Illustrator 19.0.0, SVG Export Plug-In . SVG Version: 6.00 Build 0)  -->
<svg version="1.1" id="Calque_1" xmlns="http://www.w3.org/2000/svg" xmlns:xlink="http://www.w3.org/1999/xlink" x="0px" y="0px"
	 viewBox="0 0 612 792" style="enable-background:new 0 0 612 792;" xml:space="preserve">
<style type="text/css">
	.st0{fill:#3A91CB;}
</style>
<g>
	<path class="st0" d="M381.4,447c26.3,0,52.6-0.1,79,0.1c3.6,0,5.1-0.9,5.8-4.7c6.4-32.3,35.4-54.9,69.4-54.4
		c31.7,0.5,59.9,24.6,65.5,56.2c7.7,43-25.1,82.1-68.5,81.7c-31.8-0.3-60.1-23.5-66.4-54.7c-0.7-3.6-2.1-4.5-5.5-4.5
		c-30,0.1-60,0.1-90,0c-3.7,0-5.1,0.9-4.7,4.7c0.3,3.5-0.1,7,0.1,10.5c0.2,3.1-0.5,4.6-4,4.3c-4-0.3-8-0.2-12,0
		c-3.2,0.2-4.1-1.1-3.9-4c0.2-4-0.1-8,0.1-12c0.1-2.6-0.8-3.6-3.4-3.5c-5.1,0.3-11.6-2-15,0.9c-3.3,2.8-0.7,9.4-1.1,14.3
		c-0.3,4.5,1.9,10.2-0.8,13c-2.9,3.1-8.9,0.4-13.4,1.1c-4.8,0.7-5.9-1.3-5.6-5.7c0.4-6.3-0.1-12.7,0.2-19c0.2-3.8-1-5.3-4.7-4.6
		c-4.5,0.8-5.9-1.1-5.4-5.5c0.4-3.3,0.3-6.7,0-10c-0.3-3.6,1-4.4,4.4-4.4c20.7,0.2,41.3,0.1,62,0.1C369.4,447,375.4,447,381.4,447z"
		/>
	<path d="M444.9,489.6c0-2.6-0.7-3.4-3.4-3.4c-17.5,0.1-35,0.1-52.5,0c-2.8,0-3.4,1-3.3,3.5c0.2,4.2-0.1,8.3,0.1,12.5
		c0.2,3-0.6,4-3.8,3.9c-10.2-0.2-20.3,0.2-30.5-0.2c-4.4-0.2-6.1,0.9-5.4,5.4c0.3,2.4,0.8,4.8-3.5,4.7c-17.3-0.3-34.7-0.2-52-0.1
		c-2.9,0-3.7-0.8-3.6-3.7c0.2-7-0.2-14,0.2-21c0.2-4.1-0.9-5.9-5.1-5.1c-4.1,0.8-4.9-1.1-4.9-4.9c0.2-16.2,0.2-32.3,0-48.5
		c-0.1-4.5,1-5.8,5.7-5.8c52.3,0.2,104.7,0.1,157,0.2c3.6,0,5.1-0.5,5.1-4.7c-0.2-29.8-0.2-59.7,0-89.5c0-3.2-0.7-4.3-4.1-4.2
		c-10,0.2-20-0.2-30,0.2c-4.8,0.2-5.8-1.5-5.6-5.9c0.3-7.7,0.2-15.3,0.1-23c-0.4-30.7-9.5-58.6-28.2-83.1
		c-28.8-37.7-75.2-54.9-118.6-41.7c-50.9,15.5-77.6,52.7-87.5,103.5c-2.9,14.8-2,29.9-1.8,44.9c0.1,4.6-1.4,5.4-5.5,5.3
		c-9.7-0.3-19.3,0.1-29-0.2c-3.7-0.1-5,0.7-5,4.8c0.3,82,0.4,164,0.4,246c0,4.4,1,5.5,5.5,5.5c50.7-0.2,101.3-0.1,152-0.1
		c12.3,0,24.7,0,37,0c38.5,0,77,0,115.5,0c2.3,0,5,1.1,4.9-3.3C444.8,550.9,444.8,520.2,444.9,489.6z M193.5,328.9
		c-3.6,0-4.8-0.6-4.8-4.5c0.4-18.3-1.1-36.7,4.2-54.6c10.5-35.4,31-62.4,66.9-74.3c34.1-11.3,64.9-2.7,90.7,21.8
		c23.7,22.4,34.3,50.9,35.1,83.2c0.2,7.8-0.2,15.7,0.1,23.5c0.2,3.9-0.9,5-4.9,5c-31.2-0.2-62.3-0.1-93.5-0.1
		C256.2,328.8,224.9,328.8,193.5,328.9z"/>
</g>
</svg>
