<?xml version="1.0" encoding="utf-8"?>
<!-- Generator: Adobe Illustrator 19.0.0, SVG Export Plug-In . SVG Version: 6.00 Build 0)  -->
<svg version="1.1" id="Calque_1" xmlns="http://www.w3.org/2000/svg" xmlns:xlink="http://www.w3.org/1999/xlink" x="0px" y="0px"
	 viewBox="0 0 612 792" style="enable-background:new 0 0 612 792;" xml:space="preserve">
<g>
	<path d="M317.3,365.3c-26.5-6.3-42.6-22.2-48.8-48.6c-4.6,0-9.2,0-13.8,0c-21.3-0.2-35.8-14.7-35.8-35.9c0-5.8-0.1-11.8,1.2-17.4
		c3.6-15,17-25.2,32.5-25.5c5.3-0.1,10.6,0,15.8,0c9.8-32,29.8-48.9,58-49.2c28.5-0.4,48.5,16,59.5,49.3
		c14.7-0.5,29.7-1.3,40.9,11.5c8.2,9.3,8.8,20.4,8.6,31.9c-0.2,12.6-5.3,22.4-15.6,29.6c-10.4,7.2-22.3,5.4-34.1,5.8
		c-6.1,26.1-22.2,42.2-48.4,48.3c0,62.5,0,124.9,0,187.7c16.2,0,32.1,0,48.5,0c0,6.6,0,12.8,0,19.7c-15.9,0-32,0-48.4,0
		c0,13.3,0,26.1,0,39.4c19.3,0,38.7,0,58.4,0c0,6.8,0,13,0,19.7c-19.4,0-38.7,0-58.6,0c0,6.6,0,12.9,0,19.4c-6.9,0-13.1,0-19.8,0
		C317.3,555.7,317.3,460.6,317.3,365.3z"/>
</g>
</svg>
