<?xml version="1.0" encoding="utf-8"?>
<!-- Generator: Adobe Illustrator 19.0.0, SVG Export Plug-In . SVG Version: 6.00 Build 0)  -->
<svg version="1.1" id="Calque_1" xmlns="http://www.w3.org/2000/svg" xmlns:xlink="http://www.w3.org/1999/xlink" x="0px" y="0px"
	 viewBox="0 0 612 792" style="enable-background:new 0 0 612 792;" xml:space="preserve">
<style type="text/css">
	.st0{fill:#F83E2B;}
</style>
<path class="st0" d="M530.3,303.2c0-4.5-1.2-5.4-5.5-5.4c-71.8,0.1-143.7,0.1-215.5,0.2c-4.2,0-5.5-0.8-5.5-5.3
	c0.2-39.3,0.1-78.7,0.2-118c0-3.5-0.6-4.8-4.6-4.8c-79.2,0.1-158.3,0.1-237.5,0c-3.2,0-4.3,0.7-4.2,4.1c0.1,43.3,0.1,86.7,0,130
	c0,2.9,0.5,4.3,3.8,4c3.5-0.3,7-0.4,10.5,0c4.6,0.6,5.4-1.3,5.4-5.5c-0.2-36-0.1-72-0.1-108c0-3.1,0.2-4.8,4.1-4.8
	c66.3,0.1,132.7,0.1,199,0c3.2,0,3.8,1.1,3.8,4c-0.1,33.3-0.1,66.7,0,100c0,3.7-1.2,4.3-4.5,4.3c-16.3-0.2-32.7,0.1-49-0.2
	c-4.4-0.1-5.8,0.9-5.8,5.6c0.2,85,0.2,170,0,255c0,4.8,1.5,5.6,5.8,5.6c49-0.1,98-0.1,147-0.1s98,0,147,0.1c4.1,0,5.6-0.6,5.6-5.3
	C530.2,473.6,530.2,388.4,530.3,303.2z M413.9,452.5c-2.7,2.4-3.7,4.3-3.2,7.9c1.7,11.4,2.7,22.8,4.2,34.2c0.5,3.9,0,5.6-4.6,5.4
	c-10.8-0.4-21.7-0.1-32.5-0.1c-11.3,0-22.7-0.1-34,0.1c-3.2,0-3.8-0.8-3.4-4c1.7-12.2,2.9-24.5,4.4-36.7c0.3-2.5-0.3-4.2-2.4-6
	c-16.4-14.2-22.8-32-16.9-52.9c6-21.1,21-33.7,42.5-37.4c31.4-5.4,59,14.5,63.3,45.4C433.8,426.1,427,440.8,413.9,452.5z"/>
</svg>
