<?xml version="1.0" encoding="utf-8"?>
<!-- Generator: Adobe Illustrator 19.0.0, SVG Export Plug-In . SVG Version: 6.00 Build 0)  -->
<svg version="1.1" id="Calque_1" xmlns="http://www.w3.org/2000/svg" xmlns:xlink="http://www.w3.org/1999/xlink" x="0px" y="0px"
	 viewBox="0 0 612 792" style="enable-background:new 0 0 612 792;" xml:space="preserve">
<style type="text/css">
	.st0{fill:#FBC300;}
</style>
<path class="st0" d="M529.4,374.3c-3.8-3.5-7.4-7.2-10.9-11c-1.8-1.9-3.6-2.4-6.1-2.4c-59.8,0.1-119.7,0.1-179.5,0
	c-25.5,0-51-0.1-76.5,0.1c-3.4,0-4.4-0.8-4.5-4.3c-0.2-4.5,2.5-3.7,5.1-3.7c61.5,0,123,0,184.5,0c21.8,0,43.6,0,65.4,0
	c0.2-0.4,0.4-0.8,0.6-1.1c-3.9-3.8-8.1-7.4-11.8-11.4c-2.5-2.7-5.2-3.5-8.8-3.5c-82.3,0.1-164.7,0-247,0.1c-3.4,0-5.2-0.9-6.8-4.1
	c-18.3-36.7-61.7-58.3-101.4-50.7c-51.8,10-84.8,55-78.8,107.5c5.1,44.8,45.9,82.4,91,83c40.5,0.6,70.5-17.4,89.8-53
	c1.3-2.3,2.6-2.9,5-2.9c10.2,0.1,20.4-0.6,30.5,0.2c10.4,0.8,19.2-1.6,27.2-8.3c3.5-3,7.8-7,11.7-7c3.9,0,8,4.3,11.7,7
	c7.1,5.2,14.1,9.8,23.6,8.3c3.2-0.5,6-0.9,8.7-2.8c5.4-3.9,11.1-7.3,16.5-11.2c2.3-1.7,4.1-1.9,6.5-0.1c5.8,4.2,11.9,7.9,17.8,12
	c2,1.4,4.1,1.8,6.5,2.1c14.1,1.7,26.6-1.5,37.2-11.2c1-0.9,2.3-1.3,3.3-2.3c2.8-2.7,5.2-2.4,8.2,0c11.6,9.6,24.2,16.3,40,13.3
	c0.3-0.1,0.7,0,1,0c2,0.2,3.5-0.4,4.9-1.9c11.9-11.9,23.7-23.9,35.7-35.7C531.9,377.3,531.3,376.1,529.4,374.3z M115.9,401
	c-13.3,0-24.1-11-23.9-24.3c0.1-13,11-23.7,24.1-23.7c13.1,0,23.9,10.8,23.9,23.8C140,390.2,129.3,401,115.9,401z"/>
</svg>
