<?xml version="1.0" encoding="utf-8"?>
<!-- Generator: Adobe Illustrator 19.0.0, SVG Export Plug-In . SVG Version: 6.00 Build 0)  -->
<svg version="1.1" id="Calque_1" xmlns="http://www.w3.org/2000/svg" xmlns:xlink="http://www.w3.org/1999/xlink" x="0px" y="0px"
	 viewBox="0 0 612 792" style="enable-background:new 0 0 612 792;" xml:space="preserve">
<style type="text/css">
	.st0{fill:#F5A83B;}
	.st1{fill:#274D57;}
	.st2{fill:#FDD498;}
	.st3{fill:#E57328;}
</style>
<g>
	<path class="st0" d="M432.8,328.9c4.1-18,16.9-28.6,32-37.2c1.4-0.8,2.9-0.6,4.4-0.6c10.6,0,21.2,0,31.8,0.1c2,2.2,1.6,5,1.6,7.6
		c0,30.6,0,61.3,0,91.9c0,9.1-0.8,9.9-10.1,9.9c-71.4,0-142.9,0-214.3,0c-5.8,0-11.7,0-17.5,0c-3.6,0-5.1,1.5-5.1,5.1
		c0.1,7-0.2,14,0.2,21c-0.4,5.7-0.3,11.5-0.4,17.2c0,2.3,0.2,4.7-1.6,6.5c-0.7,0.5-1.5,0.7-2.3,0.8c-9.6,1.2-11.2-0.2-11.2-9.9
		c0-34.3,0-68.6,0-103c0-1,0-2,0-3c0.3-5.4,0.8-5.9,6.2-5.9c60.1,0,120.3,0,180.4,0C429,329.5,431,330.1,432.8,328.9z"/>
	<path class="st1" d="M254.5,427.3c-0.9-8.6-0.2-17.3-0.4-25.9c-0.1-3.4,2.5-2.5,4.3-2.5c14.8-0.1,29.7,0,44.5,0
		c64.1,0,128.3-0.1,192.4,0.2c5.3,0,6.2-1.6,6.2-6.5c-0.2-32.5-0.1-65-0.1-97.4c0-1.3-0.2-2.6-0.3-4c0-27.3,0.2-54.6,0-81.9
		c0-4.4,1-5.8,5.4-5.5c6.3,0.4,12.7,0.4,19,0c3.8-0.2,4.7,1,4.7,4.7c-0.2,27.1-0.1,54.3-0.1,81.4c0,64.6,0,129.2,0,193.9
		c-0.3,0.4-0.5,0.9-1.1,1c-9.4,1.3-18.8,2-28.2-0.5c-1.7-2.3-1.4-5.1-1.4-7.7c0-12.7,0-25.3,0-38c0-9.9,0-9.9-9.7-9.9
		c-75.3,0-150.6,0-225.9,0C260.6,428.6,257.4,429.3,254.5,427.3z"/>
	<path class="st2" d="M432.8,328.9c-1.6,2.2-4,1.1-6,1.1c-59.3,0-118.5,0-177.8-0.1c-6.9,0-6.9,0-6.9,7c0,35.6,0.1,71.3-0.1,106.9
		c0,5.3,1.6,6.8,6.5,6.1c1.8-0.3,3.7-0.1,5.5-0.1c-1.1,3.6-4.2,2.6-6.5,2.7c-12.5,0.2-24.9,0.1-37.4,0.1c-11.6,0-23.3,0.1-34.9,0
		c-6.4-0.1-7.8-1.3-7.7-7.6c0.1-5.6-1.3-11.3,1.2-16.7c3.4-0.5,2.6,2.4,2.8,3.9c0.5,4,0.1,8,0.2,12c0.1,2.5,1,4.1,3.9,4
		c2.8-0.1,3.7-1.7,3.8-4.2c0-1.2,0.1-2.3,0.1-3.5c0-33.8,0-67.6,0-101.4c0-7.4-0.2-7.5-7.6-7.5c-14.2,0-28.3,0-42.5,0
		c-2.6,0-5.4,0.6-7.5-1.7c3.5-1.6,7.2-0.8,10.8-0.8c98.4,0,196.8,0,295.2,0C429.5,329,431.2,328.9,432.8,328.9z"/>
	<path class="st0" d="M121.9,329.8c17.8,0,35.6,0.2,53.4,0c4.5-0.1,5.9,1.1,5.8,5.8c-0.2,36.3-0.2,72.6,0,108.9c0,5-1.9,5.4-6,5.6
		c-4.9,0.3-5.3-1.9-5.3-5.8c0-5.4,1.1-10.9-0.7-16.3c-0.5-0.4-0.9-0.9-1.1-1.6c-1.2-5.9-0.4-11.9-0.5-17.9c-0.2-7.7-0.2-7.9-7.8-7.9
		c-24.8,0-49.6,0-74.4-0.1c-2.7,0-5.8,0.8-7.8-2c1-13.4,0.7-26.8,0-40.3c-0.5-9,2.5-15.9,10.4-20.4
		C98.4,331.9,110,330.3,121.9,329.8z"/>
	<path class="st3" d="M501.2,483.7c9.6,0,19.3,0,28.9,0c7.2,0.1,14.3,0.3,21.5,0.1c3.1-0.1,4.4,0.6,4.4,4.1
		c0,10.2,0.1,10.2-10.1,10.2c-156.1,0-312.2,0-468.3,0c-9,0-18-0.1-27,0.1c-3.1,0.1-4.4-0.6-4.4-4.1c0-10.2-0.2-10.2,10.1-10.3
		c7,0,14-0.1,21-0.1c1.5-1.3,3.4-1.3,5.2-1.3c7.9,0,15.9-0.2,23.8,0.1c3-0.3,6-0.2,9-0.2c125.4,0,250.8,0,376.2,0
		C494.7,482.4,498.1,481.8,501.2,483.7z"/>
	<path class="st1" d="M106.1,483.7c-9.6,0-19.3,0-28.9,0c-0.1-25.9-0.1-51.8-0.2-77.7c0-2.5,0.2-5,0.4-7.4
		c27.6,0.1,55.3,0.2,82.9,0.3c8.9,0,8.9,0,8.9,8.9c0,6.5-0.1,13-0.2,19.5c-2.2,1.6-4.7,1.3-7.2,1.3c-14.4,0-28.9,0-43.3,0
		c-11.8,0-10.8-1-10.9,10.6c0,12.5,0,24.9,0,37.4C107.6,479,108,481.6,106.1,483.7z"/>
</g>
</svg>
