<?xml version="1.0" encoding="utf-8"?>
<!-- Generator: Adobe Illustrator 19.0.0, SVG Export Plug-In . SVG Version: 6.00 Build 0)  -->
<svg version="1.1" id="Calque_1" xmlns="http://www.w3.org/2000/svg" xmlns:xlink="http://www.w3.org/1999/xlink" x="0px" y="0px"
	 viewBox="0 0 612 792" style="enable-background:new 0 0 612 792;" xml:space="preserve">
<style type="text/css">
	.st0{fill:#EEA11B;}
</style>
<g>
	<path class="st0" d="M308,427.9c-65.5,0-131,0.1-196.5-0.1c-4.8,0-6.1,1.2-6,6c0.3,16.2,0,32.3,0.2,48.5c0,3.5-0.5,5-4.6,4.9
		c-13-0.3-26-0.2-39,0c-3.3,0-4.2-0.9-4.2-4.2c0.1-60.7,0.1-121.3,0-182c0-3.6,1.1-4.4,4.5-4.4c12.3,0.2,24.7,0.4,37-0.1
		c5.5-0.2,6.3,1.9,6.2,6.5c-0.1,23.7,0.1,47.3-0.2,71c-0.1,5,1.1,6.3,6.3,6.3c130.8-0.2,261.7-0.2,392.5,0c5.1,0,6.3-1.3,6.3-6.3
		c-0.3-23.7,0-47.3-0.2-71c0-4.6,0.8-6.7,6.2-6.5c12.5,0.5,25,0.2,37.5,0.1c3,0,4,0.7,4,3.9c-0.1,61-0.1,122,0,183
		c0,2.9-0.9,3.7-3.7,3.6c-13.3-0.1-26.7-0.2-40,0c-3.6,0.1-4.1-1.4-4-4.4c0.1-16.5-0.1-33,0.2-49.5c0.1-4.4-1.1-5.5-5.5-5.5
		C439.3,427.9,373.7,427.9,308,427.9z"/>
	<path class="st0" d="M334.7,373.1c-34,0-68,0-102,0c-13.7,0-20.2-4.8-22.1-18.2c-1.5-10.8-1.7-22,0.3-32.8
		c2.3-12.2,8.6-16.9,20.8-16.9c21.3,0,42.7,0,64,0c12,0,17.9,5.4,19.1,17.5c0.1,0.8,0.1,1.7,0.1,2.5c0.2,10.6,0.2,10.6,10.6,10.6
		c33.2,0,66.3-0.1,99.5,0.1c3.9,0,5.3-1,5-5c-0.3-4.8-0.1-9.7,0-14.5c0-4.5,1.4-8.5,3.9-12.2c5.1-7.3,13.5-7.3,18.7-0.1
		c2.3,3.2,3.6,6.8,3.7,10.7c0.6,14,0.7,28,0,42c-0.6,11.3-6.3,16.3-17.5,16.3C404.1,373.1,369.4,373.1,334.7,373.1z"/>
	<path class="st0" d="M159.5,373.1c-8.7,0-17.3,0.1-26,0c-9.3-0.1-15.3-5.7-16.1-14.9c-0.2-2.8-0.2-5.7-0.1-8.5
		c0.3-12,8-18.5,19.7-16.5c10,1.7,20,3.6,29.9,5.4c7.9,1.4,15.8,2.6,23.5,4.4c10.3,2.4,15,14.1,9.4,22.9c-3,4.7-7.3,7.2-12.9,7.2
		C177.9,373.1,168.7,373.1,159.5,373.1z"/>
	<path class="st0" d="M171.9,298.8c6.3-0.1,11.9,1.7,16.6,5.7c5.5,4.7,8.6,10.6,6.5,18.1c-2,7.2-8.9,12.4-17.7,13.2
		c-6.2,0.6-11.9-0.9-17.1-4.3c-6.9-4.5-10.4-12-8.8-18.7c1.8-7.5,8.5-13.1,17-14C169.6,298.9,170.7,298.9,171.9,298.8z"/>
	<path class="st0" d="M81.6,291.3c-6.6,0-13.3-0.1-19.9,0.1c-2.7,0.1-3.9-0.6-3.8-3.6c0.2-4,0.2-8,0-12c-0.1-3.3,1.1-4.9,4.6-4.9
		c12.8,0.1,25.6,0.1,38.4,0c3.3,0,4.5,1.4,4.5,4.5c0,4,0,8,0.2,12c0.1,2.9-0.9,4.1-4,4C94.9,291.1,88.3,291.3,81.6,291.3z"/>
</g>
</svg>
