<?xml version="1.0" encoding="utf-8"?>
<!-- Generator: Adobe Illustrator 19.0.0, SVG Export Plug-In . SVG Version: 6.00 Build 0)  -->
<svg version="1.1" id="Calque_1" xmlns="http://www.w3.org/2000/svg" xmlns:xlink="http://www.w3.org/1999/xlink" x="0px" y="0px"
	 viewBox="0 0 612 792" style="enable-background:new 0 0 612 792;" xml:space="preserve">
<style type="text/css">
	.st0{fill:#ECF7FC;}
	.st1{fill:#0095E4;}
	.st2{fill:#0195E4;}
</style>
<g>
	<path class="st0" d="M49,504c1.5,2.5,3.5,4.5,6,6C49.9,511.1,47.9,509.1,49,504z"/>
	<path class="st1" d="M552.9,356.8c0.2-25.7-5.1-50.1-18.2-72.2c-25.9-43.7-62.9-69-115.3-68.6c-44,0.4-88,0.1-132,0.1
		c-9.1,0-11.6,2.5-11.6,11.5c0,36.3-0.1,72.6,0.1,109c0,4.4-1.1,5.5-5.5,5.5c-47-0.2-94-0.2-141,0c-4.2,0-4.8-1.4-4.8-5.1
		c0.2-24.2,0.1-48.3,0.1-72.5c0-42-0.1-84,0.1-126c0-5.9,0-11.3-5.8-14.7c-21.3,0-42.7,0-64,0c-3.2,0.8-5.2,2.8-6,6
		c0,124.7,0,249.3,0,374c0.8,3.2,2.8,5.2,6,6c21.3,0,42.7,0,64,0c5.2-1.3,7.1-5.1,7.5-9.9c0.2-2.2,0.1-4.3,0.1-6.5
		c0-21.3,0-42.7,0-64c0-9.9,0-9.9,9.7-9.9c109.8,0,219.6,0,329.5,0c9.6,0,9.6,0,9.6,9.5c0,22.8,0,45.7,0,68.5
		c0,5.7,1.1,10.7,7.6,12.4c21.3,0,42.7,0,64,0c4.7-2.7,5.9-6.9,5.9-12.2C552.7,450.8,552.6,403.8,552.9,356.8z M292.3,237.9
		c0-4,1.2-5,5.1-5c42.1,0.1,84.3,0.1,126.4,0.1c44.9,0,84,26.5,102.2,69.6c4.7,11.1,7.7,22.6,9.2,34.6c0.5,4.2-1,5-4.8,4.9
		c-19.5-0.2-39-0.1-58.5-0.1c-19.5,0-39,0-58.5,0c0,0,0,0,0,0c-38.5,0-77-0.1-115.4,0.1c-4.7,0-5.8-1.4-5.7-5.9
		C292.4,303.5,292.4,270.7,292.3,237.9z M536,488.2c0,3.9-1,5.1-5,5c-10.8-0.3-21.7-0.3-32.5,0c-3.7,0.1-4.7-0.8-4.7-4.6
		c0.2-25.3,0.1-50.7,0.1-76c0-8.9-2.6-11.6-11.5-11.6c-60.7,0-121.3,0-182,0c-60.5,0-121,0-181.5,0c-8.8,0-11.1,2.4-11.2,11.3
		c0,25.3-0.1,50.7,0.1,76c0,4-1,5-5,5c-11-0.3-22-0.2-33,0c-3.3,0.1-4.2-0.9-4.2-4.2c0.1-114.6,0.1-229.3,0-343.9
		c0-3.1,0.5-4.4,4-4.3c11.2,0.2,22.3,0.3,33.5,0c4-0.1,4.6,1.3,4.6,4.9c-0.1,65.8-0.1,131.6-0.1,197.5c0,2.2,0,4.3,0,6.5
		c0.2,6.5,3.3,9.4,10.2,9.4c32.7,0,65.3,0,98,0c104.6,0,209.3,0,313.9-0.1c4.6,0,6.1,0.9,6.1,5.9C535.8,405.9,535.9,447.1,536,488.2
		z"/>
	<path class="st2" d="M201.5,208c-32.3-0.2-59.8,26.5-60.2,58.3c-0.4,31.1,27.1,58.8,58.4,59c31.4,0.1,59.1-27.1,59.2-58.3
		C259,236.1,231.8,208.1,201.5,208z M200.2,308.7c-23.9,0.3-42.1-17.9-42.1-42c0-24.3,17.5-41.9,41.9-41.9c24.5,0,42,17.4,42,41.7
		C242,290.9,224.7,308.4,200.2,308.7z"/>
</g>
</svg>
