<?xml version="1.0" encoding="utf-8"?>
<!-- Generator: Adobe Illustrator 19.0.0, SVG Export Plug-In . SVG Version: 6.00 Build 0)  -->
<svg version="1.1" id="Calque_1" xmlns="http://www.w3.org/2000/svg" xmlns:xlink="http://www.w3.org/1999/xlink" x="0px" y="0px"
	 viewBox="0 0 612 792" style="enable-background:new 0 0 612 792;" xml:space="preserve">
<style type="text/css">
	.st0{fill:#8A5B46;}
	.st1{fill:#492B1C;}
	.st2{fill:#F1D35B;}
</style>
<g>
	<path class="st0" d="M530,584c-4.8-2.3-6.3-6-6.3-11.3c0.2-37.8,0-75.6,0.2-113.4c0-4.6-1.4-5.4-5.6-5.4
		c-112.5,0.1-224.9,0.1-337.4,0.1c-1.7,0-3.3-0.1-5-0.2c-1.8-1.9-1.5-4.3-1.5-6.6c0-36,0-72,0-107.9c0-1.8,0-3.7,0.7-5.4
		c0.3-0.6,0.7-1.1,1.3-1.5c4.5-1.4,9.2-1.5,13.8-1.2c4.8,0.3,9.7,0.7,14.4-0.1c4.7-0.8,8.8,1.6,13.3,1.6c97.2-0.1,194.4,0,291.6-0.1
		c26.8,2,44.3,21.9,48,42.3c0.6,3.6,0.8,7.3,0.8,10.9c0,61.9,0,123.9,0.1,185.8c0,5.2-1,9.4-5.4,12.4C545.3,584,537.7,584,530,584z"
		/>
	<path class="st1" d="M175.8,333.2c0,40.2,0.1,80.3,0.1,120.5c-27,0.1-54,0.2-81,0.1c-4,0-5.2,0.8-5.2,5.1c0.2,37.7,0,75.3,0.2,113
		c0,5.3-1.4,9.3-6,12.1c-7.7,0-15.3,0-23,0c-3.2-0.8-5.2-2.8-6-6c0-81.7,0-163.3,0-245c2.4-2.1,5.3-1.6,8.1-1.6
		c23.3-0.1,46.5,2.2,69.8,1c12.1-0.6,24.2-0.8,36.4-0.8C171.6,331.6,174.1,331,175.8,333.2z"/>
	<path class="st0" d="M175.8,333.2c-36.6-0.1-73.2-0.1-109.8-0.2c-3.7,0-7.3,0-11-0.1c0-47.3,0-94.7,0-142c0.8-3.2,2.8-5.2,6-6
		c7.7,0,15.3,0,23,0c4.6,2.8,6,6.8,6,12.1c-0.2,41.9-0.1,83.9-0.1,125.8c0,9.2,0,9.3,9,9.2c13.5,0,27-0.1,40.4-0.2
		c1.2-1.4,2.9-1.5,4.6-1.5c9.1-0.1,18.2-0.2,27.3,0c1.9,0,4.1-0.1,5,2.3C176,332.9,175.9,333.1,175.8,333.2z"/>
	<path class="st2" d="M176.2,332.8c-8.1-1.5-16.2-0.3-24.4-0.6c-4.2-0.2-8.3-0.1-12.5-0.1c-3.5-2.2-7.3-3.8-10.1-7.2
		c-6.4-7.9-6.6-28.4-0.3-36.4c4.5-5.6,10.4-8.2,17.4-8.2c20-0.1,40-0.2,60,0c13.4,0.1,22.2,9,22.4,22.3c0.1,5.3,0.5,10.6-1.4,15.8
		c-2.3,6.2-6.6,10.2-13.6,13.4c2.4,0.2,3.7,0.4,5.1,0.4c95.1,0,190.2,0,285.3,0c1.8,0,3.6,0.2,5.4,0.4c-1.8,0.1-3.6,0.3-5.5,0.3
		c-96.5,0-193.1,0-289.6,0C201.7,332.8,188.9,332.8,176.2,332.8z"/>
</g>
</svg>
