<?xml version="1.0" encoding="utf-8"?>
<!-- Generator: Adobe Illustrator 19.0.0, SVG Export Plug-In . SVG Version: 6.00 Build 0)  -->
<svg version="1.1" id="Calque_1" xmlns="http://www.w3.org/2000/svg" xmlns:xlink="http://www.w3.org/1999/xlink" x="0px" y="0px"
	 viewBox="0 0 612 792" style="enable-background:new 0 0 612 792;" xml:space="preserve">
<g>
	<path d="M551,116c1.7,0,3.3,0,5,0c4.6,2.5,6.1,6.3,6.1,11.5C562,286.4,562,445.3,562,604.2c0,2.1,0,4.2,0,6.7c6.5,0.1,13-1,17,5.1
		c0,4,0,8,0,12c-170.7,0-341.3,0-512,0c0-3.7,0-7.3,0-11c3.4-7.7,10.7-5.7,17.1-6.2c0-2,0-3.5,0-4.9c0-41,0-82,0-122.9
		c0-118.4,0-236.9-0.1-355.3c0-5.2,1.5-9,6-11.6c2,0,4,0,6,0c4.3,3.1,5.3,7.3,5.2,12.5c-0.2,28-0.1,56-0.1,84c0,1.8,0,3.6,0,5.6
		c6.9,0,13.1,0,18.6,0c-0.5-6.8-1.5-13.3-1.5-19.9c0-17.5,13.5-30.9,31-31c19.2-0.1,38.3-0.1,57.5,0c17.4,0,31.1,13.6,31,31.1
		c0,6.6-1,13.1-1.5,19.9c6.3,0,13.4,0,19.9,0c-0.5-6.6-1.2-13-1.3-19.4c-0.1-18.3,13.1-31.5,31.4-31.5c70.1,0,140.3,0,210.4,0
		c17.7,0,31.3,13.6,31.1,31.4c-0.1,6.4-0.9,12.8-1.4,19.5c5.4,0,11.7,0,18.5,0c0-2.2,0-4.2,0-6.1c0-28.2,0.1-56.3-0.1-84.5
		C544.8,122.2,546.2,118.4,551,116z M356.9,304.1c-85.4,0-170.3,0-255.4,0c0,59.7,0,119,0,178.6c6.6,0,12.8,0,18.3,0
		c-0.6-6.6-1.5-13-1.6-19.4c-0.1-18.4,13-31.5,31.4-31.6c19.3-0.1,38.7-0.1,58,0c16.4,0.1,30,13.3,30.1,29.8c0.1,7-0.9,14.1-1.4,21
		c6.4,0,13.6,0,19.9,0c-0.5-6.7-1.2-13.1-1.3-19.5c-0.1-18.2,12.9-31.2,31-31.2c21.8-0.1,43.7,0,65.5,0c1.8,0,3.5,0,5.4,0
		C356.9,388.9,356.9,346.8,356.9,304.1z M101.5,235.8c-0.1,1.7-0.2,3-0.2,4.3c0,13.8,0.2,27.7-0.1,41.5c-0.1,4.2,1.3,5.3,5.4,5.3
		c81.8-0.1,163.6-0.1,245.4-0.1c1.6,0,3.2-0.1,4.7-0.2c0-17.2,0-33.8,0-50.7C271.6,235.8,186.9,235.8,101.5,235.8z M356.8,500.3
		c-85.4,0-170.2,0-255.2,0c0,17,0,33.7,0,50.4c85.3,0,170.1,0,255.2,0C356.8,533.8,356.8,517.2,356.8,500.3z M101.4,610.6
		c85.4,0,170.4,0,255.3,0c0-14.3,0-28.2,0-42.1c-85.3,0-170.1,0-255.3,0C101.4,582.6,101.4,596.4,101.4,610.6z M391.2,218.1
		C391.2,218.1,391.2,218.1,391.2,218.1c35.8,0,71.6,0,107.4,0c7.6,0,11.5-3.2,12.1-10.3c0.3-4.3,0.3-8.7,0-13
		c-0.6-6.6-4-9.8-10.6-10.5c-2.1-0.2-4.3-0.1-6.5-0.1c-57,0-113.9,0-170.9,0c-12.7,0-25.3-0.1-38,0c-8.8,0.1-12.7,4-12.8,12.4
		c-0.1,2.8,0,5.7,0,8.5c0.1,9.6,3.4,13,12.9,13C320.3,218.1,355.7,218.1,391.2,218.1z M494.3,304c0,42.8,0,85.1,0,127.8
		c13.6-0.9,23.6,4.7,29.9,16.2c6.1,11.1,4.3,23,1.3,34.6c6.5,0,12.7,0,19.1,0c0-59.7,0-119.1,0-178.6C527.7,304,511.2,304,494.3,304
		z M356.7,482.9c0-11.6,0-22.6,0-33.9c-25.1,0-49.9-0.1-74.6,0.1c-6,0-9.7,4.1-10,10.3c-0.2,4-0.1,8,0,12
		c0.2,7.3,3.7,11.4,10.9,11.5C307.3,483,331.8,482.9,356.7,482.9z M178.1,482.9c10.1,0,20.3,0.1,30.4,0c7.6-0.1,11.4-3.4,12-10.5
		c0.4-4.6,0.3-9.3-0.2-13.9c-0.6-6-4.2-9.4-10.3-9.5c-21.5-0.2-42.9-0.2-64.4,0c-5.8,0-9.3,3.3-10.1,9.1c-0.5,3.9-0.4,8-0.4,11.9
		c0.1,8.9,3.9,12.8,12.8,12.8C158.1,483,168.1,482.9,178.1,482.9z M177.7,218.1c10.7,0,21.3,0.1,32,0c6.4,0,10-3,10.7-9.4
		c0.5-4.6,0.5-9.3,0.1-14c-0.5-6.6-4.1-10.2-10.7-10.3c-21.2-0.3-42.3-0.3-63.5,0c-6.9,0.1-10.4,3.8-10.9,10.6
		c-0.3,4.3-0.3,8.7,0.1,13c0.6,6.9,4.2,10,11.2,10.1C157,218.1,167.3,218.1,177.7,218.1z M374.8,610.5c33.9,0,67.5,0,101.1,0
		c0-8.5,0-16.7,0-25c-33.9,0-67.3,0-101.1,0C374.8,594,374.8,602.2,374.8,610.5z M494.3,235.8c0,17,0,33.7,0,50.6
		c16.9,0,33.6,0,50.3,0c0-17,0-33.6,0-50.6C527.9,235.8,511.3,235.8,494.3,235.8z M494.3,500.3c0,17.1,0,33.8,0,50.4
		c17,0,33.7,0,50.3,0c0-17,0-33.6,0-50.4C527.8,500.3,511.2,500.3,494.3,500.3z M476,236.2c-34,0-67.4,0-101,0c0,8.3,0,16.4,0,24.5
		c33.9,0,67.4,0,101,0C476,252.4,476,244.4,476,236.2z M494.4,568.4c0,14.5,0,28.4,0,42.2c17,0,33.6,0,50.3,0c0-14.2,0-28.1,0-42.2
		C527.7,568.4,511.2,568.4,494.4,568.4z M374.8,328.9c33.9,0,67.4,0,101.1,0c0-5.7,0-11,0-16.5c-33.9,0-67.3,0-101.1,0
		C374.8,318,374.8,323.4,374.8,328.9z M374.7,363.1c34,0,67.5,0,101.2,0c0-5.7,0-11,0-16.4c-34,0-67.5,0-101.2,0
		C374.7,352.3,374.7,357.4,374.7,363.1z M374.7,397.3c34,0,67.6,0,101.3,0c0-5.7,0-11.1,0-16.4c-34,0-67.5,0-101.3,0
		C374.7,386.5,374.7,391.6,374.7,397.3z M374.8,431.5c33.9,0,67.5,0,101.1,0c0-5.7,0-11.1,0-16.3c-34,0-67.5,0-101.1,0
		C374.8,420.8,374.8,426.1,374.8,431.5z M374.9,567.9c33.8,0,67.4,0,101,0c0-5.7,0-11,0-16.5c-33.8,0-67.2,0-101,0
		C374.9,556.9,374.9,562.1,374.9,567.9z M374.9,294.8c33.8,0,67.3,0,100.8,0c0-5.7,0-11.1,0-16.4c-33.8,0-67.3,0-100.8,0
		C374.9,284,374.9,289.3,374.9,294.8z M375,465.6c33.8,0,67.3,0,100.9,0c0-5.6,0-10.9,0-16.3c-33.8,0-67.3,0-100.9,0
		C375,454.8,375,460.1,375,465.6z M476.1,483.3c-33.9,0-67.4,0-101,0c0,5.7,0,11,0,16.4c33.9,0,67.4,0,101,0
		C476.1,494.1,476.1,489,476.1,483.3z M476,517.3c-34,0-67.4,0-100.9,0c0,5.6,0,11,0,16.4c33.8,0,67.3,0,100.9,0
		C476,528.1,476,522.9,476,517.3z M494.4,449.2c0,11.4,0,22.5,0,33.5c12.7,0.7,16.4-2.8,16.5-14.9c0-1.3,0-2.7,0-4
		C510.8,451.7,506.6,448,494.4,449.2z"/>
</g>
</svg>
