<?xml version="1.0" encoding="utf-8"?>
<!-- Generator: Adobe Illustrator 19.0.0, SVG Export Plug-In . SVG Version: 6.00 Build 0)  -->
<svg version="1.1" id="Calque_1" xmlns="http://www.w3.org/2000/svg" xmlns:xlink="http://www.w3.org/1999/xlink" x="0px" y="0px"
	 viewBox="0 0 612 792" style="enable-background:new 0 0 612 792;" xml:space="preserve">
<style type="text/css">
	.st0{fill:#319896;}
	.st1{fill:#6DB6B4;}
	.st2{fill:#98CBCA;}
	.st3{fill:#FEFEFE;}
</style>
<g>
	<path class="st0" d="M296,142c10,0,20,0,30,0c0.7,0.6,1.3,0.6,2,0c1.3,0,2.7,0,4,0c7,1.1,14.1,1,21.1,1.6
		c19.2,1.6,37.2,7.6,54.8,14.7c29.8,12.1,56.3,29.2,79.8,51.3c22.3,21,40.5,45.1,54.3,72.3c10.2,20,17.6,41,22,63
		c1.9,9.4,1.7,19.1,2.5,28.7c0.1,1.1-0.4,2.3,0.5,3.4c0,2,0,4,0,6c-0.8,2.3-0.8,4.7,0,7c0,5.3,0,10.7,0,16c-0.8,2.3-0.8,4.7,0,7
		c0,2.3,0,4.7,0,7c-1.4,6.6-1.2,13.4-1.7,20c-1.9,23-9.7,44.2-19.1,65c-10.2,22.6-23.2,43.5-39.7,62.1c-20.4,23-43.5,42.6-70.6,57.3
		c-22.4,12.1-45.8,21.5-70.9,26.5c-9.8,2-19.7,1.9-29.6,2.7c-1.1,0.1-2.3-0.4-3.4,0.5c-2.3,0-4.7,0-7,0c-2-0.8-4-0.8-6,0
		c-5.3,0-10.7,0-16,0c-2.3-0.8-4.7-0.8-7,0c-2.3,0-4.7,0-7,0c-6.8-1.2-13.6-1-20.5-1.6c-21.5-2.1-41.6-9-61.2-17.6
		c-23.8-10.3-45.7-24-65.2-41.2c-23.1-20.3-42.5-43.5-57.3-70.5c-12.4-22.5-21.4-46.2-26.6-71.3c-2-9.7-1.9-19.7-2.6-29.5
		c-0.1-0.8,0.1-1.7-0.5-2.4c0-1.7,0-3.3,0-5c0.6-0.7,0.6-1.3,0-2c0-10,0-20,0-30c0.6-0.7,0.6-1.3,0-2c0-1.7,0-3.3,0-5
		c1.2-6.5,1-13,1.6-19.6c1.8-21.8,9-42.2,17.6-62.1c10.3-24,24.3-45.9,41.5-65.6c20.1-23,43.4-42.2,70.2-57
		c22.5-12.4,46.2-21.4,71.3-26.7c9.7-2,19.7-1.9,29.6-2.7c1.1-0.1,2.3,0.4,3.4-0.5c1.3,0,2.7,0,4,0C294.7,142.6,295.3,142.6,296,142
		z"/>
	<path class="st1" d="M567,390c-1-2.3-1.7-4.7,0-7C567,385.3,567,387.7,567,390z"/>
	<path class="st1" d="M567,413c-1.7-2.3-1-4.7,0-7C567,408.3,567,410.7,567,413z"/>
	<path class="st1" d="M296,654c2.3-1.7,4.7-1,7,0C300.7,654,298.3,654,296,654z"/>
	<path class="st1" d="M319,654c2-1,4-1.6,6,0C323,654,321,654,319,654z"/>
	<path class="st2" d="M296,142c-0.7,0.9-1.3,1.1-2,0C294.7,142,295.3,142,296,142z"/>
	<path class="st2" d="M328,142c-0.7,1.1-1.3,0.9-2,0C326.7,142,327.3,142,328,142z"/>
	<path class="st2" d="M55,381c1.1,0.7,0.8,1.3,0,2C55,382.3,55,381.7,55,381z"/>
	<path class="st2" d="M55,413c0.8,0.7,1.1,1.3,0,2C55,414.3,55,413.7,55,413z"/>
	<path class="st3" d="M524.2,320.1c-3.5,0-6.3,0-9.2,0c-34,0-68,0.1-102-0.1c-4,0-5.6,1-5.5,5.2c0.2,11.3-0.2,22.7,0,34
		c0.1,3.6-1.1,4.5-4.5,4.5c-32.3-0.1-64.7-0.1-97,0c-4.1,0-5-1.4-4.9-5.2c0.2-13.2,0-26.3,0-39.5c0-5.6-1.4-10.9-4.3-15.7
		c-8-13.3-24.6-13.8-33.5-1.1c-3.1,4.5-5.2,9.5-5.2,14.9c-0.3,28.3-0.3,56.7-0.4,85c0,2.4,0.9,3.3,3.2,3.2c1.5-0.1,3,0,4.5,0
		c88.8,0,177.6,0,266.5,0c6,0,7.6,2.5,5.6,8.3c-0.5,1.4-1.3,1.8-2.6,1.8c-1.5,0-3,0-4.5,0c-89.7,0-179.3,0-269-0.1
		c-4.8,0-6.7,0.8-6.4,6.2c0.5,9.8,0.4,19.7,0,29.5c-0.1,4.1,1.3,4.9,5.1,4.9c36.2-0.1,72.3-0.1,108.5-0.1c52,0,104,0,156,0
		c6,0,6.2,0.1,4.4,5.5c-29.3,89.3-89.6,144.9-182.4,160.5c-121,20.3-233.8-59.3-258.3-179.2c-25.2-123.4,57-244.9,181.1-267.7
		c106.6-19.6,211.2,37.6,252.1,137.9C522.3,314.9,523.1,317.1,524.2,320.1z"/>
	<path class="st0" d="M200,416.5c0-31.8,0-63.6,0-95.5c0-9.2,4.3-16,12.6-19.9c8.2-3.8,16-2.4,22.8,3.3c4.9,4.1,7.4,9.5,7.4,15.8
		c0.1,64.6,0,129.3,0.1,193.9c0,3.3-1.4,3.8-4.2,3.7c-11.3-0.1-22.7-0.2-34,0.1c-4,0.1-5-1.2-4.9-5C200.1,480.8,200,448.6,200,416.5
		z"/>
	<path class="st0" d="M386.3,316.7c-0.1,21.5-17.4,38.5-39,38.4C326,355,308.8,337.5,309,316c0.2-21.1,17.7-38.1,39-37.9
		C369.4,278.3,386.4,295.5,386.3,316.7z"/>
</g>
</svg>
