<?xml version="1.0" encoding="utf-8"?>
<!-- Generator: Adobe Illustrator 19.0.0, SVG Export Plug-In . SVG Version: 6.00 Build 0)  -->
<svg version="1.1" id="Calque_1" xmlns="http://www.w3.org/2000/svg" xmlns:xlink="http://www.w3.org/1999/xlink" x="0px" y="0px"
	 viewBox="0 0 612 792" style="enable-background:new 0 0 612 792;" xml:space="preserve">
<g>
	<path d="M545,592c-12.5-4.5-17.1-13.7-16.9-26.7c0.4-31.6,0.1-63.3,0.1-94.9c0-1.9,0-3.9,0-6.1c-142.3,0-284.2,0-426.5,0
		c0,2.2,0,4.1,0,6.1c0,31.3-0.4,62.6,0.2,93.9c0.2,13.4-3.9,22.9-16.9,27.7c-3,0-6,0-9,0c-8.7-2.7-14.1-8.5-17-17
		c0-95.7,0-191.3,0-287c6.5-13.8,15.7-18.7,28.3-15c7.5,2.2,12.2,7.3,13.7,15c0.6,2.9,0.7,6,0.7,8.9c0.1,19.8,0,39.6,0,59.9
		c142.2,0,284,0,426.5,0c0-1.9,0-3.6,0-5.4c0-19.2-0.1-38.3,0-57.5c0.2-16.4,13.6-25.8,29.2-20.8c7.3,2.4,11,8.1,13.6,14.8
		c0,95.7,0,191.3,0,287c-2.7,8.7-8.6,14.1-17,17C551,592,548,592,545,592z M102,420.9c142.3,0,284,0,425.8,0c0-14.2,0-28,0-41.9
		c-142.1,0-283.9,0-425.8,0C102,393.1,102,406.9,102,420.9z"/>
	<path d="M464.2,228.9c0-12.1,0-23.9,0-35.7c0-2.7-0.1-5.3,0.1-8c1-12.5,9.5-20.2,21.8-19.9c12.5,0.3,20.8,8.6,20.8,21.4
		c0.1,34.3,0,68.7,0,103c0,1.1-0.2,2.2-0.3,4.3c-2.2-1.6-3.8-2.5-5.2-3.8c-22.3-19.2-47.4-32.5-76.7-37.4
		c-38.4-6.4-73.8,1.5-106.1,23c-2.1,1.4-3.6,2.6-6.5,0.7c-54.9-37.7-126.3-34-179.7,10.5c-2.7,2.3-5.4,4.5-9,7.4
		c-0.2-3-0.4-4.4-0.4-5.8c0-33.7,0-67.3,0-101c0-15.9,11.3-24.9,26.8-21.7c8.1,1.7,14.3,7.5,15.2,15.8c0.9,8.8,0.6,17.6,0.7,26.4
		c0.1,6.8,0,13.6,0,20.7C265.3,228.9,364.4,228.9,464.2,228.9z"/>
</g>
</svg>
