<?xml version="1.0" encoding="utf-8"?>
<!-- Generator: Adobe Illustrator 19.0.0, SVG Export Plug-In . SVG Version: 6.00 Build 0)  -->
<svg version="1.1" id="Calque_1" xmlns="http://www.w3.org/2000/svg" xmlns:xlink="http://www.w3.org/1999/xlink" x="0px" y="0px"
	 viewBox="0 0 612 792" style="enable-background:new 0 0 612 792;" xml:space="preserve">
<style type="text/css">
	.st0{fill:#4D4948;}
	.st1{fill:#464241;}
	.st2{fill:#E5E5E5;}
	.st3{fill:#B12E2C;}
	.st4{fill:#BC4C4B;}
	.st5{fill:#8F5D5C;}
	.st6{fill:#E3E3E3;}
	.st7{fill:#E6E6E6;}
	.st8{fill:#BCBCBC;}
	.st9{fill:#7A3E3D;}
	.st10{fill:#D18581;}
	.st11{fill:#C9706C;}
	.st12{fill:#B5B5B5;}
	.st13{fill:#B1B1B1;}
	.st14{fill:#AEAEAE;}
	.st15{fill:#8D5958;}
	.st16{fill:#CA706C;}
	.st17{fill:#DBDBDB;}
</style>
<g>
	<path class="st0" d="M63,370c0-6.7,0-13.3,0-20c1.1-3.1,0.2-6.4,0.5-9.5c-0.5-30.6,7.8-59.1,20-86.7c10.3-23.1,23.8-44.2,40.5-63.1
		c20.5-23.2,44.1-42.8,71.5-57.5c23.5-12.6,48.1-21.8,74.3-26.6c8.3-1.5,16.8-1.5,25.3-2.1c1.3-0.1,2.7,0.4,3.9-0.5c10,0,20,0,30,0
		c3.1,1.1,6.4,0.2,9.5,0.5c30.6-0.5,59.1,7.7,86.7,20.1c23.1,10.3,44.2,23.8,63.2,40.5c22.7,19.9,41.7,42.8,56.3,69.3
		c13.3,24,22.9,49.4,27.8,76.5c1.5,8.3,1.5,16.8,2.1,25.3c0.1,1.3-0.4,2.7,0.5,3.9c0,1.3,0,2.7,0,4c-2.4,2.2-4.6,0.9-6.8-0.3
		c-7.8-4.4-15.2-9.7-22.7-14.5c-29.6-19.2-59.4-38.1-88.8-57.5c-3.2-2.1-6.5-1.9-9.7-2.9c-2.5-3.1-11.2-5-14.9-3.2
		c-2.6,1.3-0.5,2.2,0.3,3.2c3.6,4.1,4.2,19.6,0.9,24c-0.2,0.3-0.5,0.4-0.8,0.5c-2.2,1.1-4.5,1-6.9,1c-45.2,0.1-90.4,0-135.6,0
		c-2,0-4-0.2-6-0.3c-15.1,0.6-30.3,0.2-45.4,0.3c-30.8,0.1-61.6,0-92.4,0c-3.1,0-6.3,0.4-9.4-0.8c-0.8-0.3-1.5-0.8-1.9-1.5
		c-3.1-5.1-1.1-20.8,3.8-25.6c-4.6-1.7-8.9-1.4-13.1-0.6c-2,0.4-0.9,2-0.2,3.1c1.8,2,2,4.4,2,7c0,40.1,0,80.2,0,120.3
		c0,4.1-1.5,8.2,0.1,12.3c1.2,6.3,0.6,12.6,0.7,18.9c0.1,11.6-0.1,23.2,0.1,34.8c0.1,10,3.6,13.5,13.5,13.6
		c4.3,0.1,8.6-0.1,12.9,0.1c2,0.1,4-0.1,5.7,1.4c2,2.2,1.8,4.9,1.8,7.5c0.2,9,0.2,8.8,9.4,9c6.1,0.1,12.3-0.9,18.3,0.8
		c3.4,3.4-0.2,3.9-2.1,4.3c-3.3,0.7-6.6,0.2-10,0.3c-2.2,0.1-4.3-0.3-6.9,0.4c2.5,2.6,5.4,4.1,8.1,5.8
		c27.7,17.8,55.2,35.9,82.8,53.9c25.8,16.8,51.5,33.7,77.3,50.4c2.7,1.7,6.7,1.3,8.1,5c-2.8,2.2-6.3-0.2-9.2,1.4c-13,0-26,0-39,0
		c-7.4-1-14.8-1-22.2-1.6c-11.7-1-22.9-4.1-34-7.5c-32-9.9-61.1-25.4-86.9-46.6c-26.2-21.6-47.7-47.1-63.9-77
		c-12.6-23.3-21.7-47.8-26.4-73.9c-1.8-9.8-2-19.8-2.1-29.8C63.2,376.4,64.1,373.1,63,370z"/>
	<path class="st1" d="M569.5,342c-24.3-15.7-48.7-31.4-73.1-47.1c-14.3-9.2-28.6-18.4-42.8-27.7c-2.9-1.9-4.6-1.9-5.5,1.8
		c-5.6-1.6-7.8-0.1-8.3,5.5c-0.2,2-0.1,4-0.1,6c0,36.6,0,73.2,0,109.8c0,2.7-0.1,5.3,0.4,8c1.1,3.4,1.7,6.7,0.4,10.1
		c-0.1,0.5-0.2,1.1-0.3,1.6c-1,7.1-0.4,14.3-0.4,21.4c-0.1,11.1,0.2,22.3-0.1,33.5c-0.2,6.9-3.7,10.3-10.6,10.7
		c-3.5,0.2-7,0-10.5,0.1c-2.8,0.1-5.7-0.5-8.1,1.6c-2.1,2.6-1.6,5.6-1.7,8.6c-0.2,7.4-0.5,7.7-8.1,7.8c-3.5,0-7,0-10.4,0
		c-7.6,0-7.8-0.4-8.1-7.8c-0.1-3.2,0.6-6.7-2.5-9.2c-2.6-1.4-5.5-1-8.3-1c-15.8-0.1-31.6,0-47.5,0c-41.1,0-82.3,0-123.4,0.1
		c-3.4,0-7.1-0.9-10.1,1.7c-2.2,6.3-3.3,12.5,0.6,18.5c-1.5,1.4-3.4,1-5.2,1c-5.5,0-11,0-16.5,0c-1.2,0-3-0.5-3.4,1.1
		c-0.3,1.3,1.3,1.7,2.2,2.4c0.7,0.5,1.4,1,2.1,1.4c26.7,17.3,53.3,34.6,80,52c26.5,17.3,52.9,34.8,79.5,51.8
		c5.4,3.5,10.2,8.9,17.7,8.2c6.9,2.1,13.9,0.5,20.6-0.7c25.9-4.6,50.3-13.6,73.5-26.1c27.8-14.9,51.8-34.4,72.5-58
		c20-22.7,35.4-48.3,46.1-76.6c6.2-16.3,11.5-33,13.3-50.5c0.7-7.1,0.6-14.2,1.7-21.3c0-12.3,0-24.7,0-37
		C572.9,344,571.2,343.1,569.5,342z"/>
	<path class="st0" d="M339,104c-0.1,0.3,0,0.6,0.1,0.9c-3.4,0.3-6.8,0.5-10.1-0.9C332.3,104,335.7,104,339,104z"/>
	<path class="st0" d="M63,340c0.3-0.1,0.6-0.1,0.9-0.1c0.3,3.4,0.5,6.8-0.9,10.1C63,346.7,63,343.3,63,340z"/>
	<path class="st0" d="M63.9,380.1c-0.3,0-0.6,0-0.9-0.1c0-3.3,0-6.7,0-10C64.4,373.3,64.2,376.7,63.9,380.1z"/>
	<path class="st2" d="M441.9,409c0,19,0.1,38,0,57c0,7.5-4.6,11.9-12.2,12c-6.2,0.1-12.3,0.1-18.5,0.2c-5,3.1-26.7,3-31.4-0.1
		c-62.9,0-125.9,0-188.8,0c-1.3,1.4-3,2-4.9,2.1c-7.2,0.2-14.3,0.2-21.5,0c-1.9,0-3.6-0.8-5-2c-6.8-0.1-13.6-0.1-20.5-0.2
		c-8.3-0.1-13-4.7-13-13c0-18.6,0-37.3,0-55.9c1.6-2.7,4.3-2.3,6.7-2.3c10.7-0.2,21.3-0.1,32-0.1c32,0,64-0.5,96,0.1
		c58.1,1,116.3,0.5,174.4,0.7C437.6,407.5,440,407,441.9,409z"/>
	<path class="st3" d="M284,292.4c5.8-0.1,11.7-0.3,17.5-0.3c43.7,0,87.3,0,131,0c3.5,1.5,2.7,4.7,2.7,7.4
		c0.2,15.6,0.1,31.2,0.1,46.8c0,15.3,0,30.6,0,45.9c0,2.8,0.2,5.7-1.5,8.2c-0.4,0.5-0.9,1.1-1.6,1.2c-8,0.8-16,1.9-23.8-0.6
		c-1.4-1.5-0.9-3.1-0.1-4.6c2-3.8,2.6-7.9,2.5-12.1c-0.3-10.8,1-21.6-0.9-32.4c-1-5.7-3.1-7.6-8.8-8.4c-2-0.3-4-0.2-6-0.2
		c-25.3,0-50.6,0-75.9,0c-2.5,0-5-0.1-7.5,0.4c-4.5,1.1-7.1,3.8-7.2,8.3c-0.3,13-0.1,26-0.1,39c0,3.4,3.4,5.9,1.8,9.5
		c-7.2,3.1-14.5,2.1-21.8,0.6c-0.6-0.3-1-0.8-1.4-1.4c-0.8-1.5-1.1-3.1-1.1-4.8c-0.1-32.2-0.1-64.5,0-96.7
		C281.8,296,281.8,293.7,284,292.4z"/>
	<path class="st4" d="M284,292.4c0,35.8,0,71.7,0,107.5c-0.4,0.8-0.9,1.5-1.8,1.6c-6.4,0.8-12.8,1.9-19-0.7
		c-0.9-0.9-1.1-2.2-0.6-3.2c2.9-5.3,2-11,2.1-16.6c0.1-9,0.2-18,0-27c-0.2-7.1-3.3-10.5-10.4-10.6c-28.1-0.3-56.3-0.2-84.4,0
		c-7.9,0.1-11.2,3.5-11.5,11.4c-0.3,10.8-0.2,21.6,0,32.5c0,2.9,0.8,5.6,1.6,8.3c0.5,1.7,1.4,3.5-0.1,5.2
		c-8.2,2.3-16.3,2.6-24.4-0.2c-1.7-2.3-1.7-5-1.7-7.6c-0.1-31.1-0.1-62.2,0-93.2c0-2.7-0.8-5.8,2.5-7.5c47.6,0,95.2,0,142.7,0
		C280.7,292.1,282.4,292.3,284,292.4z"/>
	<path class="st5" d="M136,399.9c8.1,0,16.2,0,24.3-0.1c1.4-2.2,3.7-2,5.8-2c30.4-0.1,60.7-0.1,91.1,0c2.1,0,4.4,0,5.8,2.1
		c7,0,14,0,21,0c0,0,0.1,0.1,0.1,0.1c2.5,5,6.9,5.8,12.1,5.8c45.6-0.1,91.1-0.1,136.7,0c3.2,0,6.8-1.1,9.3,2.2
		c-0.1,0.3-0.1,0.7-0.2,1c-40.1-0.1-80.3-0.1-120.4-0.2c-62.6-0.1-125.2-0.1-187.9-0.2c-2.5,0-5-0.3-7.4,0.5c-2.2-2.7-3-5.6-1.1-8.7
		c1-1.7,0.9-3.5,0.9-5.3c0-39.6,0-79.1,0.1-118.7c0-3.3-0.7-5.4-4.1-6.1c3.8-2.2,6-1.5,6.8,2.4c0.5,2.6,0.4,5.3,0.4,8
		c0,35,0.1,70-0.1,104.9C129.2,391.7,129.1,397.3,136,399.9z"/>
	<path class="st6" d="M432.9,399.9c-0.1-34.1-0.1-68.2-0.2-102.3c0-1.8-0.1-3.6-0.2-5.5c0.1-6.1,0.1-12.2,0.3-18.3
		c0-2.1-0.3-3.7-2.9-3.5c-3.8,0.3-3.1-2.4-3.2-4.7c-0.1-3,1.9-3,4-2.9c3.6,0,7.3,0.3,10.9,0c5-0.5,7.5,1,6.6,6.4
		c-7.6,0.5-6.2,6.1-6.2,10.9c0,40-0.1,80-0.1,120C438.9,403,435.9,403,432.9,399.9z"/>
	<path class="st7" d="M136,399.9c-9,0-9,0-9-8.9c0-38.6,0-77.3,0.1-115.9c0-3.9-0.9-5.7-5-4.8c-2.8-6-2-7.6,4.1-7.6
		c4.2,0,8.3,0,12.5-0.1c2.5-0.1,3.7,0.7,3.6,3.4c-0.1,2.2,0.2,4.5-3.2,4.2c-2.6-0.3-3,1.3-2.9,3.4c0.1,6.2,0.2,12.3,0.2,18.5
		c-0.1,27.4-0.1,54.9-0.2,82.3C136.1,383,136,391.4,136,399.9z"/>
	<path class="st8" d="M159.7,478.2c10.5,0,20.9-0.1,31.4-0.1c0,6-0.1,12-0.1,17.9c-9.4,0.1-18.8,0.2-28.2,0.4
		c-2.4,0-3.2-1.1-3.1-3.3C159.7,488.1,159.7,483.2,159.7,478.2z"/>
	<path class="st2" d="M516.1,400c0,29,0.1,58,0.1,86.9c-1.3,2.3-3.6,2.2-5.7,2.2c-17.6,0.2-35.3,0.2-52.9,0c-2.1,0-4.4,0.1-5.7-2.2
		c0-29,0-58,0.1-86.9c1.4-2.5,3.9-2.2,6.2-2.2c18-0.6,36,1.2,54,0.8C513.6,398.5,515.1,398.6,516.1,400z"/>
	<path class="st9" d="M432.9,399.9c3,0,6,0,9,0c2.9,2.6,3,5.3,0.2,8.1c-50.1,0-100.2-0.1-150.3-0.1c-8,0-8,0-7.7-7.8
		c7.3-0.1,14.6-0.1,21.8-0.2c1.5-2.1,3.7-2,5.9-2.1c30.2-0.1,60.3-0.1,90.5,0c2.2,0,4.4,0,5.9,2.1
		C416.4,399.9,424.7,399.9,432.9,399.9z"/>
	<path class="st10" d="M473.9,371.1c-1.8,0-3.7-0.1-5.5-0.1c-7.2,0-7.2,0-5.2-7.1c3.1-10.9,6.3-21.7,9.4-32.6
		c2.4-8.5,2.4-8.5,11.3-8.1c1.9,1.3,2.2,3.2,2.2,5.3c0.2,12.6,0.2,25.2,0,37.8c0,1.9-0.4,3.6-1.6,5.1
		C480.9,373.7,477.4,374.1,473.9,371.1z"/>
	<path class="st11" d="M484,370.7c0-15.8,0-31.7,0-47.5c1.2-0.1,2.3,0,3.5-0.2c4.3-0.8,6.1,1.2,7.2,5.3c3.3,12.5,6.8,25,10.6,37.4
		c1.5,4.7-0.1,5.6-4.2,5.3c-2.3-0.2-4.7,0.1-7,0.1c-2.7,2.7-5.8,2.5-9,1.1C484.5,371.8,484.2,371.3,484,370.7z"/>
	<path class="st12" d="M451.8,487c21.5,0,42.9,0,64.4,0c3.4,0,6.6-0.1,6.1,5.1c-0.3,3.1-1,4.3-4.3,4.3c-22.1-0.1-44.1,0-66.2,0.1
		c-3.1,0-6.1,0.8-6.1-4.5C445.6,486.8,448.3,486.8,451.8,487z"/>
	<path class="st13" d="M379.9,478.1c10.5,0,20.9,0.1,31.4,0.1c0,4.6,0,9.3,0.1,13.9c0.1,2.8-0.6,4.3-3.8,4.3c-8-0.1-15.9-0.1-23.9,0
		c-2.9,0-3.7-1.2-3.6-3.9C380.1,487.7,379.9,482.9,379.9,478.1z"/>
	<path class="st8" d="M516.1,400c-21.4,0-42.8,0-64.2,0c-6.6-0.7-6.6-0.7-5.6-9c7.2-1.2,14.5-0.2,21.8-0.5c2-0.1,4,0.1,6-0.2
		c3.4-2,6.8-2,10.2-0.2c2.2,6,6.7,7.2,12.6,6.7c4.9-0.4,9.9-0.2,14.9,0.1c2.1,0.1,4.4,0.3,4.6,3.3L516.1,400z"/>
	<path class="st14" d="M516.3,400.2c-2-1.7-4.4-1.1-6.7-1.2c-5.8-0.1-11.6,0-17.4,0c-8.1,0-8.1,0-8.2-8c2.6-2.5,5.9-1.7,8.8-1.1
		c2.4,0.5,4.8,0.7,7.2,0.3c5.8,0,11.6,0,17.4,0.1c2.5,0,5.1-0.4,4.9,3.6c-0.2,3.1,0.6,6.7-4.5,6.1
		C517.2,399.8,516.7,400.1,516.3,400.2z"/>
	<path class="st15" d="M499.9,390.2c-5.3,1.3-10.6,0.3-15.9,0.8c-3.3,0-6.5-0.1-9.8-0.1c-0.8-0.1-0.9-0.4-0.2-0.9
		c0-6.3,0-12.7-0.1-19c3.4-0.1,6.7-0.2,10.1-0.3c0,0,0,0.4,0,0.4c2.8,2,2.3,5,2.2,7.8c-0.2,4.8,0,9.1,6.3,9.6c0.6,0.1,1,0.8,1.5,1.2
		C496,389.9,497.9,390.1,499.9,390.2z"/>
	<path class="st9" d="M494,389.8c-12.2,0.5-9.7,0.3-10-9.3c-0.1-3.1,0-6.2,0-9.3c3.3,0,6.7-0.1,10-0.1
		C494,377.3,494,383.6,494,389.8z"/>
	<path class="st14" d="M474,390c0,0.3,0.1,0.6,0.2,0.9c-9.3,0-18.7,0.1-28,0.1c4.4-2,9-0.5,13.5-0.8
		C464.5,389.9,469.2,390.1,474,390z"/>
	<path class="st16" d="M408.1,399.9c-34.1,0-68.1,0-102.2,0c-3.3-3.1-4.2-6.8-4.1-11.2c0.2-12,0-24,0.1-35.9c0-7.3,4-11.5,11.4-11.5
		c29.1-0.1,58.2-0.1,87.3,0c7.6,0,10.9,3.1,11.7,10.7c1.2,12.6,0.5,25.3,0.4,37.9C412.7,393.7,411.1,397.1,408.1,399.9z"/>
	<path class="st10" d="M263,399.9c-34.2,0-68.5,0-102.7-0.1c-3.1-3.2-4.1-7.2-4.1-11.5c-0.1-11.5-0.1-23,0-34.5
		c0.1-8.8,4.1-12.8,13-12.8c28.6-0.1,57.3-0.1,85.9,0c8,0,11.9,4.1,12,12.1c0,11.8-0.1,23.6,0.1,35.5
		C267.2,393.1,266.2,396.8,263,399.9z"/>
	<path class="st13" d="M484,446.1c7,0,14,0,20.9-0.1c3-0.1,4.2,1.2,4.1,4.1c-0.1,4-0.1,8,0,12c0.1,3-1.3,4.1-4.2,4.1
		c-7.6-0.1-15.3-0.1-22.9-0.1c-2-2.5-0.2-4.7,0.5-6.9c2.3-2.4,1-4.7-0.3-7.1C481.7,449.7,482.1,447.6,484,446.1z"/>
	<path class="st8" d="M484,432.8c-6.8,0-13.6,0-20.4,0.2c-3.4,0.1-5-1.3-4.7-4.7c0.4-4.9-2.3-11.6,1.3-14.2c4.1-3,10.8-1.5,16.3-1.6
		c2.5,0,4.9,0.3,7.4,0.5c2.3,1.5,2.2,3.7,1.8,5.9c-1.8,2.3-1.3,4.5,0.3,6.7C486.3,428.2,486.5,430.9,484,432.8z"/>
	<path class="st13" d="M484,432.8c0.1-2.6-0.5-5.3,1-7.7c-0.1-1.8-1.7-3.3-1-5.3c0-2.3,0-4.6-0.1-6.9c0,0,0,0,0,0c8-0.8,16-0.8,24,0
		c2.4,5.8,0.9,11.8,0.8,17.6c0,2.4-2.4,2.3-4.3,2.3C497.7,433,490.9,432.9,484,432.8z"/>
	<path class="st8" d="M484,459.1c0.5,2.6-1.5,4.6-2,6.9c-6.1,0-12.3-0.1-18.4,0.1c-3.5,0.1-4.8-1.2-4.6-4.7c0.2-3.8,0.1-7.6,0-11.5
		c-0.1-3,1.2-4.1,4.2-4.1c7,0.1,14,0.1,20.9,0.1c0,2.3,0,4.6,0,6.9C484,455,484,457.1,484,459.1z"/>
	<path class="st8" d="M508,413c-8,0-16,0-24,0C492,411.5,500,411.5,508,413z"/>
	<path class="st6" d="M484,459.1c-3.5-2-3.5-4.1,0-6.1C487.4,455,487.5,457.1,484,459.1z"/>
	<path class="st17" d="M484,419.9c2,1.4,4.1,2.9,1,5.3c-1.6-0.2-3.5-0.3-3.7-2.4C481.1,420.9,482.5,420.3,484,419.9z"/>
</g>
</svg>
