<?xml version="1.0" encoding="utf-8"?>
<!-- Generator: Adobe Illustrator 19.0.0, SVG Export Plug-In . SVG Version: 6.00 Build 0)  -->
<svg version="1.1" id="Calque_1" xmlns="http://www.w3.org/2000/svg" xmlns:xlink="http://www.w3.org/1999/xlink" x="0px" y="0px"
	 viewBox="0 0 612 792" style="enable-background:new 0 0 612 792;" xml:space="preserve">
<g>
	<path d="M571,519c-10.2-0.1-20.3-0.2-30.5-0.1c-2.8,0-3.7-0.8-3.6-3.6c0.2-8.8-0.2-17.7,0.2-26.5c0.2-4.1-1.2-4.8-5-4.8
		c-80.1,0.1-160.3,0.1-240.4,0.1c-64.5,0-129,0-193.5-0.1c-4,0-5.5,0.7-5.3,5c0.4,8.5,0,17,0.2,25.5c0.1,2.8-0.3,4.2-3.7,4
		C79.3,518,69.1,519,59,518c0-90.7,0-181.3,0-272c10.5-0.1,21-0.1,31.5-0.3c3.5-0.1,2.6,2.3,2.6,4c0,18.2,0,36.3,0,54.5
		c0,35.8,0.1,71.6-0.1,107.5c0,4,1.2,4.8,4.9,4.8c144.8-0.1,289.5-0.1,434.3,0c4,0,4.9-1.1,4.8-4.9c-0.2-31,0-62-0.2-93
		c0-3.8,1-4.7,4.7-4.6c9.8,0.3,19.7,0,29.5,0C571,382.3,571,450.7,571,519z"/>
	<path d="M502.2,381.7c-91.2,0-181.2,0-272.1,0c8.3-8,16.6-14.8,25.1-21.4c19.9-15.5,41-29,64.8-37.7c34-12.5,67.7-11.9,101.1,2.1
		C451.9,337.6,477.4,358.2,502.2,381.7z"/>
	<path d="M178.4,279.5c28.4-0.1,51.2,22.9,51.3,51.5c0.1,27.6-23.2,50.7-51.1,50.8c-27.9,0.1-51.2-23-51.2-50.6
		C127.4,302.5,150,279.6,178.4,279.5z"/>
</g>
</svg>
