<?xml version="1.0" encoding="utf-8"?>
<!-- Generator: Adobe Illustrator 19.0.0, SVG Export Plug-In . SVG Version: 6.00 Build 0)  -->
<svg version="1.1" id="Calque_1" xmlns="http://www.w3.org/2000/svg" xmlns:xlink="http://www.w3.org/1999/xlink" x="0px" y="0px"
	 viewBox="0 0 612 792" style="enable-background:new 0 0 612 792;" xml:space="preserve">
<path d="M498,308.2c0-7.6-2.7-10.5-10.2-10.1c-4.7,0.3-6.3-0.9-5.9-5.8c0.5-7.5-2.6-10.3-10-10.3c-12.8,0-25.7,0-38.5,0
	c-39.2,0-78.3,0-117.5,0c-3.8,0-6.9,0.7-8.9,4.2c-1.5,2.6-1.1,5.5-0.9,8.3c0.2,2.8-0.7,3.7-3.5,3.6c-7.7-0.2-15.3-0.4-23,0
	c-4.5,0.2-5.9-1-5.7-5.6c0.4-7.9-2.5-10.5-10.3-10.5c-19,0-38,0-57,0c-10.7,0-12.5,1.6-12.5,12.3c0,3.3-1.1,3.8-4,3.7
	c-7.8-0.2-15.7-0.3-23.5,0c-4.2,0.2-4.7-1.3-4.7-5c0.1-32.5,0.1-65,0.1-97.5c0-6.6-2.9-9.6-9.3-9.6c-15.2-0.1-30.3-0.1-45.5,0
	c-6.2,0-9.2,3-9.2,9.2c0,73.8,0,147.6,0,221.4c0,6.4,3,9.3,9.6,9.4c14.8,0,29.7,0,44.5,0c7.1,0,9.9-2.8,9.9-10
	c0-16.5,0.1-33-0.1-49.5c-0.1-3.7,0.8-4.6,4.6-4.6c43.8,0.2,87.6,0.1,131.5,0.1s87.6,0.1,131.5-0.1c3.6,0,4.7,0.7,4.7,4.5
	c-0.3,16.5-0.1,33-0.1,49.5c0,7.2,2.7,10.1,9.9,10.1c14.7,0,29.3,0,44,0c7.5,0,10.1-2.7,10.1-10.3C498,379.9,498,344.1,498,308.2z
	 M482.1,405.1c0,3.6-0.5,5.2-4.7,5c-7.5-0.4-15-0.4-22.5,0c-4.4,0.3-5-1.3-5-5.3c0.2-16.3,0.1-32.7,0.1-49c0-7.1-2.8-9.9-10-9.9
	c-94.6,0-189.3,0-283.9,0c-7.4,0-10,2.7-10,10.4c0,16.3-0.1,32.7,0.1,49c0,3.5-0.4,5-4.5,4.8c-7.8-0.4-15.7-0.3-23.5,0
	c-3.7,0.2-4.2-1.2-4.2-4.5c0.1-62,0.1-124,0.1-185.9c0-4.7,0.2-9.3-0.1-14c-0.2-3.3,1-3.8,3.9-3.7c8,0.2,16,0.3,24,0
	c3.7-0.1,4.3,1.1,4.2,4.4c-0.1,32.3-0.1,64.6-0.1,97c0,8.1,2.6,10.7,10.7,10.7c53.3,0,106.6,0,159.9,0c53.3,0,106.6,0,159.9-0.1
	c4.1,0,5.5,0.6,5.5,5.2C481.9,347.8,481.9,376.5,482.1,405.1z"/>
</svg>
