<?xml version="1.0" encoding="utf-8"?>
<!-- Generator: Adobe Illustrator 19.0.0, SVG Export Plug-In . SVG Version: 6.00 Build 0)  -->
<svg version="1.1" id="Calque_1" xmlns="http://www.w3.org/2000/svg" xmlns:xlink="http://www.w3.org/1999/xlink" x="0px" y="0px"
	 viewBox="0 0 612 792" style="enable-background:new 0 0 612 792;" xml:space="preserve">
<style type="text/css">
	.st0{fill:#3B4652;}
	.st1{fill:#2B78C1;}
</style>
<g>
	<path class="st0" d="M511,538c0-13.8-0.1-27.6,0.1-41.5c0.1-3.6-1.1-4.3-4.5-4.3c-132.9,0.1-265.7,0.1-398.6,0.1c-9,0-9,0-9,8.8
		c0,12.3,0,24.6,0,37c-10,0-20,0-30,0c-1.8-2.1-1.6-4.7-1.6-7.1c0-10.3,0-20.6,0-31c0-5.8-0.5-6.1-6.3-6.3
		c-4.1-0.2-8.4,1.1-12.1-1.5c0-5.3,0-10.7,0-16c1.5-1.3,3.3-1.5,5.1-1.6c1.7-0.1,3.3,0,5,0c163.9,0,327.8,0,491.8,0
		c3.4,0,7.1-0.8,10.1,1.6c0,5.3,0,10.7,0,16c-3.8,2.7-8.1,1.3-12.1,1.5c-5.8,0.3-6.2,0.5-6.3,6.3c-0.1,10.3,0,20.6,0,31
		c0,2.5,0.3,5-1.6,7.1C531,538,521,538,511,538z"/>
	<path class="st1" d="M560.3,397.7c-3.5-26.3-27.5-47.4-57.3-47.9c-19.5-0.3-38.9,2.6-58.4,2.2c-58.8-1.3-117.5-2.3-176.3-1.7
		c-36.1,0.4-72.3,1.4-108.4,1.6c-18.5,0.1-36.9-2.6-55.4-1.9c-25.6,0.9-47.4,18.2-53.9,42.9c-0.5,2.1-0.1,4.4-1.6,6.2
		c0,17.3,0,34.7,0,52c1.1,4.7,4.4,6.3,8.8,6.5c2.3,0.1,4.7,0.1,7,0.1c160.1,0,320.2,0,480.3,0c2.3,0,4.7,0,7-0.1
		c4.4-0.2,7.7-1.9,8.8-6.5c0-17.3,0-34.7,0-52C560.8,398.6,560.4,398.2,560.3,397.7z M514.8,404.2c-0.3,4.6-4.1,7.8-8.9,7.4
		c-8.5-0.8-16.6,0.3-24.2,4.2c-2.8,1.4-5.6,1.3-8.7,0.5c-21-5.5-42.4-8.4-64.2-7.4c-14,0.7-27.8,3.1-41.2,7.2
		c-3.4,1-6.3,0.8-9.6-0.6c-12.1-5.3-25.1-6.2-38.1-7c-19.5-1.3-39.2-1.2-58,4.2c-10.9,3.1-20.6,3.3-31.4,0.5
		c-31.4-8-62.8-4.8-93.8,3.2c-3.1,0.8-5.9,0.8-8.7-0.7c-7.3-3.9-15.1-4.8-23.2-4.2c-5.5,0.4-9.1-2.3-9.6-7.1c-0.5-4.7,2.5-8,8.1-8.8
		c2-0.3,4-0.3,5.7-0.5c7.3,0.5,14.3,0.8,20.8,3.9c3,1.4,5.6,1.2,8.6,0.5c34.9-8.5,69.7-9.7,104.6,0.1c2,0.5,3.8,0.8,5.9,0.1
		c23.7-7.6,48-8.5,72.6-7c13.8,0.9,27.5,2.6,40.6,7.3c1.7,0.6,3.3,0.2,4.9-0.3c35.2-9.9,70.4-8.7,105.5,0.1c2.7,0.7,5,0.4,7.7-0.6
		c8.8-3.7,18-4.5,27.4-3.3C512.3,396.4,515.1,399.8,514.8,404.2z"/>
	<path class="st0" d="M539,157.4c0-13-6.7-21.7-19.3-25.2c-5.3-1.5-10.7-2.1-16.3-2.5c-7.8-0.5-15.7-0.2-23.4-1.5
		c-15.6-2.6-31.3-4.5-47.1-5.3c-34.7-1.8-69.2,0.9-103.7,4.6c-9.3,1-18.5,3.1-27.8,2.3c-13.9-1.3-27.8-3-41.7-4.3
		c-23.4-2.3-46.8-3.2-70.4-3c-29.7,0.2-58.8,7.3-88.5,7.7c-2,0-4,0.5-5.9,0.9C78.2,134.3,71,142.9,71,159.8c0,42.7,0,85.3,0,128
		c0,16.6,0,33.3,0,50.3c3.8-1.5,7.2-2.8,10.6-4c16.6-5.9,33.9-4.4,51-3.7c4.3,0.2,4.8-1,4.8-4.7c0.2-10.5,0-21,2.6-31.3
		c1.2-4.8,1.3-9.5,1-14.4c-0.6-8,1.3-9.4,9.2-7.6c4.8,1.1,9.5,2.5,14.7,1.8c21.8-3.1,43.7-4.7,65.7-2.3c12.2,1.4,24.4,4.3,36.5-0.1
		c0.2-0.1,0.3,0,0.5-0.1c4-0.4,5.9,1.2,5.7,5.4c-0.2,4.1-1.3,8.4-0.2,12.4c3.1,11.7,3.4,23.7,3.5,35.7c0,3.4,0.8,4.6,4.4,4.5
		c16-0.2,32-0.2,48,0c3.7,0,4.3-1.4,4.3-4.6c0.1-10.3,0.1-20.7,2.6-30.8c1.2-4.8,1.4-9.5,1-14.3c-0.6-8.3,1.1-9.8,9.5-7.5
		c6.4,1.7,12.7,2.1,19.2,1.1c14.5-2.3,29.1-2.9,43.8-2.9c18.3,0,36.5,6.7,55,1.1c3.2-0.9,4.9,1.2,4.8,4.6c-0.2,4.2-1.1,8.5-0.2,12.4
		c3,12.6,3.5,25.4,3.6,38.2c0,3,0.9,3.5,3.8,3.3c13.1-0.8,26.3-1.4,39.4,0.4c7.9,1.1,15.4,3.9,23.2,7.3c0-13.7,0-26.8,0-39.9
		C539,251.4,539,204.4,539,157.4z M339.6,213.1c-8.3,12.2-19.4,21.4-32.1,28.7c-1.5,0.9-2.8,1.3-4.6,0.3
		c-13.8-8.1-26.3-17.8-34.2-32c-8-14.3-1.7-30.2,13.2-34.4c8.1-2.3,14.8,0.3,20.4,6.1c2.2,2.3,3.1,2.2,5.3,0
		c6.5-6.7,14.3-8.8,23.2-5.2c8.5,3.4,14.2,12,14.2,23.5C345,203.5,342.8,208.5,339.6,213.1z"/>
</g>
</svg>
