<?xml version="1.0" encoding="utf-8"?>
<!-- Generator: Adobe Illustrator 19.0.0, SVG Export Plug-In . SVG Version: 6.00 Build 0)  -->
<svg version="1.1" id="Calque_1" xmlns="http://www.w3.org/2000/svg" xmlns:xlink="http://www.w3.org/1999/xlink" x="0px" y="0px"
	 viewBox="0 0 612 792" style="enable-background:new 0 0 612 792;" xml:space="preserve">
<style type="text/css">
	.st0{fill:#CED6DA;}
	.st1{fill:#03A8F2;}
	.st2{fill:#5D4037;}
	.st3{fill:#EAEAEA;}
</style>
<g>
	<g>
		<path class="st0" d="M369.4,346.5c0-2.3,0.2-4.7-1.4-6.7c-0.9-10.3-6.9-16-17.2-16c-24.9,0-49.8,0.1-74.8-0.1
			c-7.5,0-14.6,0.8-21,4.7c0.9,1.9,1.4,3.8,1.4,5.7c0,17.1-35.1,30.9-78.5,30.9c-21.1,0-40.2-3.3-54.3-8.6
			c-10.9,3.6-17.2,11.8-21.1,22.6c-0.6,2.1-1,4.2-1.1,6.4c-0.8,12.1-2.1,24.2-4.2,36.2c-1.1,6.6-2.7,13.1-3.6,19.6
			c-1.5,11.4,2.9,18.2,14,21.3c14,4,28.3,6.5,42.8,6.7c39.9,0.3,79.9,0.1,119.8,0.1c2.3,0,4.7,0.3,6.7-1.3c0-2.7-2.6-2.7-4.1-3.7
			c-4.9-3.3-7.9-7.6-7.2-13.8c0.8-6,4.2-10,9.9-12c3-1.1,6.2-1.1,9.4-1.1c21.5,0,42.9,0.1,64.4,0c13.3-0.1,20.1-6.8,20.1-20
			C369.5,393.8,369.5,370.1,369.4,346.5z"/>
		<path class="st1" d="M276.6,467.6c-9.5-3.4-13.9-9.7-12.6-18.2c1.3-8.1,8.6-13.6,18.3-13.6c22.6,0,45.3,0,67.9,0
			c11.3,0,17.7-6.4,17.7-17.6c0.1-26.1,0.1-52.3,0.1-78.4c26.6,0,53.3-0.8,79.9,0.2c38.1,1.3,67.6,18.6,86.8,51.6
			c10,17.2,12.6,35.6,2.4,54.2c-0.6,1.1-0.9,2.5-1.3,3.7c-4.2,13.6-10.6,26.2-17,38.8c-3.2,6.3-9.3,8.1-16.2,7.7
			c-4.3-0.5-7.8-2.6-10.8-5.7c-3.3-3.3-6.7-6.5-9.9-9.9c-7.3-8.1-16.4-11.2-27.2-11.2c-56.6,0.1-113.2,0.1-169.7,0
			C282.1,469.3,279,470.2,276.6,467.6z"/>
		<path class="st2" d="M276.6,467.6c33.8,0.1,67.6,0.1,101.4,0.2c26.8,0,53.6,0,80.4,0c8.5,0,15.9,2.8,21.9,9c3.9,4.1,8.1,8,12,12.1
			c3.2,3.4,7,5.6,11.7,6.1c1.4,1.7,1.5,3.3-0.1,5c-64,0-127.9-0.1-191.9-0.1c-67.6,0-135.3,0-202.9-0.1c-4,0-5.8,0.6-5.2,5
			c0.4,3.4,0.1,7,0,10.5c-0.2,5.7-2.9,8.4-8.8,8.5c-4.7,0.1-9.3,0.1-14,0c-6.6-0.1-9.2-2.8-9.2-9.5c0-53,0-105.9,0-158.9
			c0-50.1,0-100.3,0-150.4c0-12.5,11-20.4,22-16c6.1,2.4,10,8.3,10,15.3c0.1,14.2,0.1,28.3,0.1,42.5c1.5,1.8,1.4,4,1.4,6.1
			c0,11.9,0.1,23.8,0,35.7c-0.2,10.4,0.3,20.7-0.2,31.1c0.1,2,0,4-1.1,5.7c-3.9,6.4-3.6,12.7-0.1,19.1c0.5,0.9,0.7,1.8,0.9,2.8
			c0.5,4.4,0.3,8.8,0.2,13.2c0,1.2,0,2.4,0,3.6c0.5,4.6-0.3,9.1-1.3,13.6c-2.2,21-4.1,42.1-8.8,62.8c-2.2,9.6,1.5,17.6,12.7,20.4
			c16.7,4.3,33.5,6.7,50.7,6.7c36.8-0.1,73.6,0,110.3,0.1C271.6,467.8,274.1,467.7,276.6,467.6z"/>
		<path class="st0" d="M119.9,311.8c-0.6-1.3-1.7-2.3-3-3c-5.6-5.8-10.5-12.1-12.9-19.9c0-14,0-28.1,0-42.1
			c12.7-1.3,22.5,5.6,32.7,11.5c21.7,12.5,39.9,28.9,54.2,49.5c-3.5,0-7.1,0.2-10.6,0c-19.6-0.8-38.6,2.8-57.3,8
			C121.2,315.1,119.9,314,119.9,311.8z"/>
		<path class="st2" d="M503.9,500c0-1.7,0-3.3,0.1-5c8,0,12.8-4,16-11.2c5.1-11.5,9.9-23.2,15.9-34.3c0,21.9,0.1,43.8,0.1,65.8
			c0,5.6-2.8,8.3-8.2,8.5c-5.1,0.1-10.3,0.1-15.4,0c-5.5-0.1-8.2-2.8-8.3-8.4C503.8,510.3,503.9,505.1,503.9,500z"/>
	</g>
	<ellipse class="st3" cx="177.8" cy="334.5" rx="78.5" ry="30.9"/>
</g>
</svg>
