<?xml version="1.0" encoding="utf-8"?>
<!-- Generator: Adobe Illustrator 19.0.0, SVG Export Plug-In . SVG Version: 6.00 Build 0)  -->
<svg version="1.1" id="Calque_1" xmlns="http://www.w3.org/2000/svg" xmlns:xlink="http://www.w3.org/1999/xlink" x="0px" y="0px"
	 viewBox="0 0 612 792" style="enable-background:new 0 0 612 792;" xml:space="preserve">
<style type="text/css">
	.st0{fill:#414042;}
</style>
<g>
	<path class="st0" d="M550,555c-2.8,4.1-6.6,5.3-11.5,5.1c-9-0.3-18-0.1-27-0.1c-6.4,0-9.4-3-9.5-9.5c-0.1-6-0.3-12,0.1-18
		c0.2-3.8-1-4.7-4.7-4.6c-28.7,0.2-57.3,0.1-86,0.1c-106.5,0-212.9,0-319.4-0.1c-5,0-6.6,1.1-6.2,6.2c0.5,5.6,0.2,11.3,0.1,17
		c-0.1,5.9-3.1,8.9-9,9c-9.2,0.1-18.3-0.2-27.5,0.1c-4.9,0.2-8.7-1-11.5-5.1c0-56,0-112,0-168c2.9-7.9,7.3-14.4,15.7-17.5
		c15.6-5.7,32,5.5,32.3,22.2c0.2,8.3,0.2,8.3,8.2,8.3c134.4,0,268.8,0,403.2,0.1c3.7,0,5.1-0.9,4.6-4.6c-0.3-2.5-0.2-5-0.1-7.5
		c0.5-10.7,9.3-19.2,19.9-20.1c13.2-1.1,23,3.2,28.1,16.1C550,441,550,498,550,555z"/>
	<path class="st0" d="M502,351.9c-12.7-5-25.1-8.9-38.1-11.2c-2.4-0.4-1.8-2.4-1.9-3.9c-0.4-8.3,0.8-16.7-0.9-24.9
		c-3.9-18.6-19.9-31.8-38.9-31.8c-24-0.1-48-0.1-72,0c-22.7,0.1-39.9,17.5-40.2,40.3c-0.1,7.6-0.1,7.6-7.5,7.6
		c-6.7,0-13.3-0.2-20,0.1c-3.8,0.2-4.8-0.9-4.6-4.7c0.7-14.8-4.6-27-16.7-35.9c-6.6-4.9-14.2-7.4-22.4-7.5c-24.7-0.1-49.3-0.2-74,0
		c-20.8,0.2-38.4,17.9-38.8,38.7c-0.1,6,0,12,0,18c0,1.4,0.3,2.9-1.9,3.3c-12.9,2.5-25.4,6.6-38.1,11.8c0-15.4,0-30.4,0-45.3
		c0-35.5,0-71,0.1-106.5c0-12.4,9.1-22.5,21.1-24c12-1.5,23,6.2,26.1,18.4c0.4,1.8,0.7,3.6,0.7,5.4c0.2,8.1,0.2,8.1,8,8.1
		c101.5,0,203,0,304.5,0c7.5,0,7.5,0,7.5-7.5c0.1-17.9,17.8-29.7,33.9-22.3c9.5,4.4,14.1,12.3,14.1,22.8c0,45.8,0,91.7,0,137.5
		C502,342.8,502,347.1,502,351.9z"/>
	<path class="st0" d="M493.1,366.4c-3,4.6-5.7,9.1-6.4,14.3c-0.4,3.1-2.1,3.4-4.8,3.4c-39.7-0.1-79.3,0-119,0
		c-85.3,0-170.6,0-255.9,0.1c-4.3,0-6.6-0.6-7.5-5.3c-0.6-3-2.3-6-4.2-8.4c-2.6-3.3-1.1-4.2,1.9-5.4c17.8-6.8,36.4-10.4,55.2-13
		c64.8-8.8,129.8-9.1,195-7.1c37.1,1.2,74.2,3.7,110.7,11.1C470.1,358.4,481.8,361.4,493.1,366.4z"/>
	<path class="st0" d="M446.2,326.3c-0.2,3.5,0.9,8-0.8,10.1c-2,2.4-6.5,0-9.9-0.5c-35.2-4.8-70.5-7-106-7.7c-1.5,0-3.3,0.6-3.5-2.2
		c-1.4-16.6,6.8-26.7,19.3-29.6c1.9-0.4,4-0.5,5.9-0.5c22.8,0,45.6,0,68.4,0c16.7,0,26.4,9.7,26.4,26.3c0,1.3,0,2.7,0,4
		C446.1,326.3,446.1,326.3,446.2,326.3z"/>
	<path class="st0" d="M202.1,296c11.8,0,23.6-0.1,35.5,0c16,0.2,27.6,14.7,24.5,30.3c-0.5,2.4-2,1.8-3.3,1.8
		c-21.1,0.3-42.2,1.3-63.3,3c-16.2,1.3-32.5,3-48.6,5.6c-3.9,0.6-5.3,0-5-4.2c0.4-4.1,0-8.3,0.1-12.5c0.2-13.6,10.5-23.8,24.2-24
		c6-0.1,12,0,18,0S196.2,296,202.1,296z"/>
	<path class="st0" d="M293.5,480c-62.1,0-124.3,0-186.4,0.1c-4.1,0-5.4-1-5.1-5.2c0.4-7.6,0.3-15.3,0-23c-0.1-3.4,1-4,4.2-4
		C179,448,252,448,325,448c52,0,104,0.1,155.9-0.1c4.2,0,5.4,1,5.2,5.1c-0.4,7.5-0.3,15,0,22.5c0.2,3.9-1,4.6-4.7,4.6
		C418.8,480,356.1,480,293.5,480C293.5,480,293.5,480,293.5,480z"/>
</g>
</svg>
