<?xml version="1.0" encoding="utf-8"?>
<!-- Generator: Adobe Illustrator 19.0.0, SVG Export Plug-In . SVG Version: 6.00 Build 0)  -->
<svg version="1.1" id="Calque_1" xmlns="http://www.w3.org/2000/svg" xmlns:xlink="http://www.w3.org/1999/xlink" x="0px" y="0px"
	 viewBox="0 0 612 792" style="enable-background:new 0 0 612 792;" xml:space="preserve">
<style type="text/css">
	.st0{fill:#333F45;}
	.st1{fill:#525C61;}
	.st2{fill:#576166;}
	.st3{fill:#465056;}
	.st4{fill:#4C565B;}
	.st5{fill:#39444A;}
	.st6{fill:#515B60;}
	.st7{fill:#404B51;}
	.st8{fill:#7F868A;}
	.st9{fill:#4B555A;}
	.st10{fill:#424D52;}
	.st11{fill:#3C474C;}
	.st12{fill:#907268;}
	.st13{fill:#9D837A;}
	.st14{fill:#B19C96;}
	.st15{fill:#94786D;}
	.st16{fill:#987D73;}
	.st17{fill:#404B50;}
</style>
<g>
	<path class="st0" d="M571,561c-3.5,5.6-8.5,7.3-15.1,7.1c-19.1-0.4-38.3-0.1-57.4-0.1c-8.8,0-12.7-3.6-12.7-12.2
		c0-24.1,0.1-48.3,0.2-72.4c-5.6-1.9-6.1-2.6-2.9-8.2c2.6-4.5,2.9-9.9,6.4-13.8c3.3-1.1,6.6-0.6,10-0.5c5.9,1.4,8.3,5.7,8.9,11.3
		c0.4,3.8,0.2,7.7,0.2,11.5c0,18,0,36,0,54c0,7.9,0.1,7.9,8.2,7.9c8,0,16,0,24,0c7.3,0,7.6-0.4,7.7-7.6c0-29.6,0-59.3,0-88.9
		c0-9.2,0.2-18.3-0.1-27.5c-0.3-1.2-0.9-2.1-2.3-2.1c-1.2,0-2.3-0.1-3.4-0.5c-8.4-3.6-10-4.1-4.8-12.7c1.8-3,3.7-5.9,5.8-8.6
		c1.3-1.6,2.5-3.7,5.2-2.5c0.1,0.6,0.2,1.3,0.2,1.9c4.4,1.5,9-0.2,13.4,0.9c4.7,0.2,6.4,3.9,8.5,7.1C571,457,571,509,571,561z"/>
	<path class="st1" d="M65,566.7c-3.1-0.8-4-3.9-6-5.7c0-70.7,0-141.3,0-212c2-4.4,5.5-8.3,3.6-13.9c-0.8-2.2,1.2-4.4,2.6-6.3
		c3.9-5.2,8-10.2,11.2-15.9c1.2-2.2,3.1-4.1,4.9-0.2c0.3,1.8,0.2,3.7,0.2,5.5c0,69.8,0,139.6,0,209.5c0,1.8,0.1,3.7-0.2,5.5
		c-0.3,2.2-2.2,3.2-3.6,4.6c-4.3,4.2-8.8,8.2-12.2,13.2c-1.6,2.3-2.1,4.1,0.1,6.6C68.2,560.4,68,563.8,65,566.7z"/>
	<path class="st2" d="M79.9,311c-1.1,0.1-1.8,0.7-2.2,1.7c-2.7,5.9-7,10.8-10.8,15.9c-2.2,2.9-3.8,5.2-2.3,9.6
		c1.2,3.9-1.9,8.1-5.5,10.8c0-52.7,0-105.3,0-158c3.4-5.4,8.1-7.3,14.6-7.1c19.8,0.3,39.5,0.1,59.3,0.1c5.9,0,8.8,2.2,11,8
		c-5.5,4.8-10.7,9.9-15.4,15.6c-1.4,1.7-2.7,4.4-5.9,3.1c-0.8-1.2-0.9-2.9-2.3-3.7c-9.5-1.3-18.9-0.4-28.4-0.5
		c-10.4-0.2-10.4,0-10.4,10.3c-0.1,26.1,0.2,52.2-0.2,78.3c-0.3,2.2-2.2,3.2-3.6,4.6c-4.1,4.1-8.7,7.7-10.8,13.5
		c3.3-2.1,5.8-5.2,8.7-7.8c1.6-1.3,3.3-3.4,5.3-0.4C81.4,307.1,81.8,309.2,79.9,311z"/>
	<path class="st3" d="M277.9,313c7.4,7.9,11.9,17.3,14.1,27.9c1.6,2.2,1.5,4.7,1.4,7.1c-0.1,6.4,0.4,12.9-0.5,19.3
		c-0.3,10.6-6.3,19-11.4,27.5c0.3,0.3,0.4,0.5,0.5,0.5c10,1.2,10.4,0.7,10.5-9.2c0-5.5-0.4-11,0.3-16.4c1-21.5,0.2-42.9,0.5-64.4
		c0-1.8-0.4-3.7,0.4-5.4c1.4-6,4.4-9.1,10-9.1c21.4-0.1,42.7,0.1,64.1,0.1c1.3,2.1,2.7,1.2,4,0c2.3-0.4,4.7-0.4,7,0
		c0.8,2-0.3,3.6-1.3,5c-4.2,5.7-9.1,10.8-13.9,16c-0.7,0.7-1.7,1.1-2.6,1.3c-12.2,0.8-24.3,0.2-36.5,0.4c-7.8,0.1-8,0.2-8,7.7
		c0,22.2,0,44.3,0,66.5c0,7.2,0.3,7.5,7.7,7.5c64.8,0,129.6,0,194.5,0c3.1,0,6.4-0.7,9.2,1.4c-0.6,3.4-3.5,2.6-5.5,2.7
		c-8,0.3-15.9,0.1-23.9,0.1c-19.9,0-39.9,0.1-59.8,0c-33.5-0.2-67,0-100.5-0.1c-3.2,0-5.4,1.1-6.9,3.9c-1.7,3.4-4.6,6.1-6.3,9.9
		c10.1,0.7,19.5,3.1,29.2,3.2c1.8,0,4.5-0.5,4.5,2.8c-3.2,1.9-6.7,1.1-10.1,1.2c-5.1,0.1-10.2,0.2-15.3-0.1c-3.4,0-6.9,0.2-10.3,0
		c-2.8,0.1-5.7,0.2-8.5,0c-28.8,0.2-57.6,0.5-86.4-0.2c-2.4-0.8-5.1-0.7-7.6-1.5c-3-2.7-0.8-4.9,1-6.6c5.2-5.1,9.8-10.8,15-15.9
		c3.4-2.2,7.4-2.6,11-4.4c20.5-10.4,28.9-34.2,19.2-55c-0.7-1.5-1.5-2.9-1.8-4.6c-0.2-2.7,1.2-4.8,2.5-6.9c2-3.2,4.2-6.3,5.9-9.8
		C274.3,313.8,275.3,311.7,277.9,313z"/>
	<path class="st4" d="M277.9,313c-0.7,0.3-1.9,0.4-2.1,0.9c-2.4,6.5-8,11.2-9.8,17.9c-2,0.6-2.6-1.1-3.4-2.2
		c-16.2-19.5-41.4-21.9-60.6-5.8c-12.5,10.5-17,29-10.9,45.6c5.5,15.1,20.9,26,36.8,26.2c3.1,0,6.4-1,9.1,1.3
		c-4.2,5.6-9.1,10.7-14.1,15.6c-1.5,1.5-3.3,2.9-2.9,5.4c-1.4,1.6-3.3,1.4-5.1,1.4c-25.2,0-50.3,0.1-75.5,0c-5.9,0-6.6-0.9-5.5-7.4
		c-2.6,2.1-5.1,3.9-8.4,3c-1.5-0.5-2.3-1.5-2.2-3.1c4.1-7.7,10.8-13.1,16.8-19.1c1-1,2.3-2,3.9-0.8c0,1.5,0,3.1,0,4.6
		c0.6,1.6,2,0.9,3,0.9c10.2,0.1,20.4,0.1,30.6,0c1.2,0,3.1,1,3.4-1.5c-21.8-24.1-20.2-63.1,3.5-86.8c23.5-23.4,62.7-24.9,86.4-3.2
		c-1.5,3.8-4.7,6.4-6.4,10c3.2-2.2,5.4-5.7,8.5-8.1C275,309.3,276.7,310.9,277.9,313z"/>
	<path class="st5" d="M438,398.1c28.1,0,56.3,0,84.4-0.1c1.8,0,4.1,1.1,5.4-1.3c-2.1-0.9-1.9-2.9-2.2-4.7
		c-5.2-29.9-22-51.7-47.6-67.1c-1.8-1.1-4.1-1.7-4.8-4.1c1-5.6,4-10.4,6.8-15.2c1.3-2.2,3.4-3,6-1.7c11.9,6.1,22.6,13.7,31.7,23.6
		c17.6,19.1,28.4,41.4,31.1,67.5c-6.9,4.1-9.6,11.3-13,17.9c-0.8,1.6,1.3,1.9,2.3,2.6c3.5,2.6,8.1,1.7,11.9,3.6
		c-1.5,1.3-3.3,1.4-5.2,1.4c-23.7,0.1-47.3,0.1-71,0c-1,0-2-0.1-3-0.3c-6.9-1.2-13.8-1.5-20.8-1.7c-5-0.1-9.9-0.9-14.9-1.2
		c-2.7-0.1-4.7-1.6-4.2-4.4C431.9,407.4,432.9,401.7,438,398.1z"/>
	<path class="st6" d="M144,392c-6.7,3.6-11,9.7-16.1,15.1c-1.3,1.4-1.7,3.7-4.1,3.9c-2.2-0.4-2.1-2.3-2.4-3.9
		c-0.3-1.5-0.2-3-0.2-4.5c0-59.7,0-119.5,0-179.2c0-1.3-0.1-2.7,0.2-4c0.1-2.9-0.8-6,1.6-8.4c5.6-4.3,9.2-10.6,14.5-15.2
		c1.9-1.6,3.5-3.4,6.1-3.8c1,7.3,0.4,14.6,0.4,21.9c0.1,58,0,116.1,0,174.1C144.3,389.4,144.1,390.7,144,392z"/>
	<path class="st7" d="M486,304c-2.3,0-4.3,0.5-5.3,2.7c-2.3,4.8-4.5,9.7-6.8,14.6c-2.4,1.1-4.6-0.1-6.7-1c-12.2-4.8-24.8-6.9-38-6.8
		c-19.6,0.2-39.2,0.1-58.7,0c-2.6,0-5.4,0.6-7.5-1.7c2.6-5.3,7.6-8.4,11-13.1c1.8-2.5,3.7-4.9,5-7.8c25.6,0.3,51.3-2.4,76.7,2.1
		C466.4,295,476.6,298.4,486,304z"/>
	<path class="st8" d="M292.1,368.1c1.4-9.1,1.4-18.1,0-27.2c2.3-1.1,1.2-3.2,1.2-4.8c0.1-10.1,0-20.2,0-30.3c0-2-0.4-4,0.7-5.8
		c0.5,23.7,0.2,47.5-0.1,71.2C291.6,371.1,293.1,368.9,292.1,368.1z"/>
	<path class="st3" d="M273,307.9c-1.4,4.6-5.7,6.7-8.6,10c-0.3,0.4-1.4,0.7-1.7,0.5c-0.8-0.5-0.8-1.5-0.2-2.2
		c3.1-3.2,4.4-7.9,8.5-10.3C271.9,306.3,272.6,307,273,307.9z"/>
	<path class="st6" d="M181,396c1,1.1,0.5,1.9-0.7,1.9c-11.6,0-23.2,0-34.9-0.1c-0.5,0-0.9-0.8-1.4-1.3c12,1.3,24,0.4,36,0.4
		C180.4,397,180.7,396.3,181,396z"/>
	<path class="st5" d="M562.5,397.9c-4.5-0.3-9.1,1.3-13.4-0.9C553.4,397.9,558.1,396.3,562.5,397.9z"/>
	<path class="st7" d="M372,291c-0.8,1.3-1,3.6-2.8,3.5c-2-0.1-0.9-2.3-1.2-3.5C369.3,290.9,370.7,291,372,291z"/>
	<path class="st9" d="M65,566.7c0.7-3.5,3.1-7.3-2.1-9.7c-1.4-0.7-1.2-2.7-0.3-4.1c4.6-7.1,10-13.5,17.3-18c1.9,1.7,1.4,4,1.5,6.1
		c0,2.8,1.2,4.5,4.1,4.5c10.6,0.1,21.3-0.1,31.9-0.2c2.6,0,3.9-1.4,4-4c0-1.7,0.1-3.3,0.1-5c0-19.9,0-39.9,0-59.8
		c0-12.5,4.7-17,17.3-17.1c5.6,0,11.3-0.2,16.9,0.1c2.5,0,5-0.2,7.5,0c4.1,0.1,8.2-0.2,12.3,0c33.7-0.3,67.3-0.3,101,0
		c2.2,0.1,4.4-0.2,6.6,0c4.3-0.1,8.6-0.1,12.9-0.1c2.8,0.1,5.5-0.2,8.3,0.1c3.8-0.1,7.5-0.2,11.3,0c33.7-0.3,67.3-0.3,101,0
		c2.2,0.1,4.5-0.2,6.7,0c4.4-0.1,8.8-0.2,13.3,0c19-0.3,37.9-0.1,56.9-0.1c2.1,0,4.9-0.7,5.8,2.5c-3.3,0-6.7,0-10,0.1
		c-1.6,1.5-3.6,1.6-5.6,1.6c-38.3,0-76.6,0.2-114.9-0.1c-41.2,0.2-82.5,0-123.7,0.1c-1.8,0-3.7-0.1-5.5,0.1
		c-4.2,0.3-6.3,2.2-6.9,6.4c-0.2,1.3,0,2.7-0.2,4c-0.7,6.4-0.7,6.4,6,6.4c4.5,0,9-0.1,13.5,0.1c1.9,0.1,4.1-0.3,5.2,2.1
		c-21.1,0.1-42.3,0.2-63.4,0.2c-14.8,0-29.6,0.2-44.5-0.1c-4.2-0.1-4.9,1.4-4.9,5.1c0.2,22,0.1,44,0.1,65.9
		c0,10.9-3.3,14.3-14.3,14.3c-19.8,0-39.6,0-59.4,0C68.7,568,66.6,568.5,65,566.7z"/>
	<path class="st10" d="M256.9,482.6c-7.8-1.4-15.6-0.5-23.4-0.5c-4.2,0-6.1-0.7-3.6-5c1-1.8,1.1-3.7,0.7-5.8c-1-4.8,2.9-9.3,7.9-9.3
		c43.2,0,86.3,0,129.4,0c1.5,2.2,0.1,4.1-0.9,6c-1.6,3.2-3.7,6.2-5.6,9.3c-1.4,2.2-0.8,3.4,1.9,3.4c3,0,5.9-0.1,8.9,0.1
		c1.7,0.1,3.8-0.5,4.6,1.8c-19.2,0.1-38.5,0.2-57.7,0.2C298.4,482.8,277.6,482.6,256.9,482.6z"/>
	<path class="st11" d="M376.9,482.5c-4.9-1.2-9.8-0.5-14.7-0.5c-4.4,0.1-4.3-1.5-2.5-4.5c3-5,7.1-9.5,8.3-15.5c40.3,0,80.7,0,121,0
		c-0.3,5.1-2.4,9.5-5,13.7c-2.1,3.5-2.2,5.9,1.9,7.6c-2.4-1-4.9-0.5-7.4-0.5c-32.9,0-65.8,0-98.7,0
		C378.9,482.8,377.9,482.6,376.9,482.5z"/>
	<path class="st12" d="M499,462c-1.7-1.6-3.8-0.9-5.7-0.9c-19.1-0.1-38.2-0.1-57.3-0.1c-1.7-2.2-0.1-3.7,1.1-5.3
		c4.6-5.9,9.3-11.7,14.8-16.8c5.5-5.1,10.5-10.7,13.3-17.8c0.4-0.9,0.9-1.8,1.8-2.3c1-0.2,2-0.3,2.9,0.2c24,0,48,0,72,0.1
		c2.7,0,5.3,0.1,8,0.2c0,40.5-0.1,81,0.1,121.4c0,5.1-1.4,6.6-6.5,6.4c-10.3-0.4-20.7-0.3-31,0c-4.3,0.1-5.7-0.9-5.7-5.5
		c0.2-22.7,0.1-45.3,0.1-68C507,467,504.8,464,499,462z"/>
	<path class="st13" d="M156,461c-7,0-14,0-20.9,0.1c-7.6,0.1-12,4.6-12,12.2c0,22.8-0.1,45.6,0.1,68.3c0,4-0.8,5.5-5.2,5.4
		c-10.8-0.3-21.6-0.3-32.4,0c-4.4,0.1-6.1-1.1-5.5-5.5c0.3-2.1,0-4.3,0-6.5c0-53,0.1-106.1,0.1-159.1c0-21.6-0.1-43.2-0.1-64.9
		c0-2.3,0-4.7,0-7c-1.7-2.3-1.6-4.7,0-7c0-28.6,0.2-57.3-0.1-85.9c0-5.3,1.6-6.4,6.5-6.2c10.5,0.4,21,0.1,31.5,0.2
		c1.7,0,3.7-0.8,5.1,1c-2.1,1.9-4.7,1.6-7.1,1.6c-9,0.1-18,0-27,0.1c-5.5,0.1-5.9,0.6-6.1,6c0,1.5,0,3,0,4.5c0,105.3,0,210.7,0,316
		c0,1.2,0,2.3,0,3.5c0.1,6.3,0.6,6.9,6.9,6.7c5.1-0.2,5.6-0.7,5.8-5.9c0.1-1.8,0-3.7,0-5.5c0-99.3,0-198.7,0-298
		c0-19.6-1.6-17.5,17.9-17.6c3.3,0,6.7-0.8,9.6,1.5c0,44.6,0.1,89.2,0.1,133.9c0,17.7,0,35.3,0,53c0,1.8-0.6,3.7,0.9,5.2
		c0.2,1.1-0.1,2.3,1.1,3c6.2,3.3,12.7,4.8,19.9,4.6c15.8-0.4,31.5-0.1,47.3-0.1c1.3-0.1,2.4,0.1,2,1.9c-0.3,1.5-1.2,2.7-2.3,3.8
		C180,436.5,167.5,448.3,156,461z"/>
	<path class="st14" d="M122.9,218.9c-6.8,0-13.7,0.3-20.5-0.1c-4.6-0.3-5.5,1.4-5.5,5.7C97,278.4,97,332.2,97,386.1
		c0,51.3-0.1,102.7,0.1,154c0,4.9-1.4,6.2-6.1,6C81,545.7,81,546,81,536c0-108,0-216-0.1-324c0-4.7,1.1-6.3,6-6.2
		c12,0.4,24,0.2,36,0.2c0.1,1.7,0.2,3.3,0.3,5C123.1,213.7,123,216.3,122.9,218.9z"/>
	<path class="st1" d="M79.9,297c0,2.3,0,4.6,0,7c-4.2,1.3-6.1,5.4-9.3,7.9c-1.2,0.9-2.2,2-3.4,2.9c-0.6,0.5-1.4,1-2.3,0.4
		c-0.9-0.7-0.3-1.5,0-2.2C68.6,306.4,73.3,300.8,79.9,297z"/>
	<path class="st15" d="M304,461c-2.7,0-5.3,0-8,0c-0.8-1.9,0.3-3.3,1.5-4.4c12.3-12.1,22.4-26.2,35.5-37.4c8.7-0.1,17.3-0.1,26-0.2
		c1.9-1.8,4.3-1.5,6.6-1.5c24,0,47.9-0.3,71.9,0.2c4.8,0.1,9.6,0.4,14.4,0.5c2.5,0.2,3.1,1.5,2,3.7c-0.4,0.7-0.9,1.4-1.5,2
		C441,434.7,431,447,420,458.3c-0.9,1-2,1.7-3,2.6c-34,0-68,0-102,0c-1.8-2.5,0.3-3.9,1.4-5.6c6.6-9.6,16-16.8,21.8-24.9
		C326.7,438.9,316.2,450.9,304,461z"/>
	<path class="st16" d="M156,461c1.7-4.2,5-7.3,8-10.4c8.5-8.8,17.2-17.4,25.9-26c1.7-1.6,3.2-3.4,4-5.6c11-0.9,22-0.7,33-0.1
		c29.3,0.1,58.7,0.1,88,0.2c1.4,2.7-0.9,3.9-2.3,5.3c-8,8.1-16,16.3-24.2,24.2c-4.1,3.9-7.1,8.7-11.5,12.3c-34,0-68,0-102,0
		c-1.5-3,1.1-4.2,2.6-5.7c6.4-6.3,12-13.3,17.3-20.6c1.1-1.6,2.6-3,2.9-5.7c-3,1.5-5.1,3.4-7.2,5.4c-7.4,7.4-14.8,14.8-22.2,22.2
		c-1.7,1.7-3.4,3.2-5.5,4.2C160.7,461,158.3,461,156,461z"/>
	<path class="st17" d="M454,419.1c-31.7-0.1-63.3-0.1-95-0.2c-4.2-1.6-8.8-1.9-13-1.6c-3.8,0.3-7.1,0-10.5-1.5c-3-1.4-6.1-1-9.2,0
		c-1.2,0.4-2.8,0.7-3.7-0.5c-1-1.4,0.3-2.4,1.1-3.4c2.7-3.8,5.9-7.2,7.7-11.5c0.9-2.1,2.5-2.3,4.5-2.3c34.1,0.1,68.2,0.1,102.2,0.1
		c-2.3,4.1-4.1,8.3-5.5,12.7c-1.1,3.5-0.6,5.1,3.6,5.2c10.7,0.4,21.4,1.3,32.1,2c0.6,0,1.2,0.5,1.7,0.8c-1,0.1-2,0.2-3,0.2
		c-1,0.8-2.1,1.2-3.3,1.2C460.4,420.4,457,421.2,454,419.1z"/>
	<path class="st16" d="M333,419.1c0,1.3-0.7,2.2-1.6,3c-11.6,10.3-20.5,23-31.7,33.7c-1.6,1.5-2.9,3.2-3.7,5.2c-4.3,0-8.7,0-13,0
		c-1.4-1.9,0.1-3.2,1.2-4.3c12.9-12.5,24.7-26.2,38.8-37.6C326.3,419.1,329.7,419.1,333,419.1z"/>
	<path class="st15" d="M323,419.1c-0.2,3.1-3.2,3.6-4.9,5.3c-11.2,11.2-22.4,22.4-33.6,33.6c-0.8,0.8-1.6,1.7-1.5,3c-2,0-4,0-6,0
		c1.4-3.8,4.3-6.6,7-9.4c9.2-9.5,18.7-18.7,28-28.1c1.2-1.3,2.9-2.3,3-4.4C317.7,419.1,320.3,419.1,323,419.1z"/>
	<path class="st6" d="M227,418.9c-11,0-22,0.1-33,0.1c-19.1,0-38.2,0-57.2-0.1c-4.6,0-9-0.7-11.8-4.9c5.3,1.5,7.3-4.5,11.5-5.5
		c0.2,0.6,0.5,0.9,0.4,1.2c-3,8.3-3,8.3,6.2,8.3c25.6,0,51.3,0,76.9,0C222.3,418.4,224.8,417.2,227,418.9z"/>
	<path class="st12" d="M454,419.1c3.3,0,6.7,0,10,0c1.7,2.2,0.2,3.8-1.2,5.2c-4.2,4.2-8,8.9-13.2,12.1c-2.3,1.4-4.2,3.3-6,5.2
		c-6.5,6.9-13.7,13-20.6,19.4c-2,0-4,0-6,0c3.3-6.3,9-10.4,13.5-15.7c6.8-8,14.3-15.2,21.6-22.8C453,421.5,454,420.6,454,419.1z"/>
	<path class="st15" d="M423,460.9c0.5-3.3,3.4-4.8,5.5-6.8c10.8-10,21.7-19.8,32.5-29.7c1.6-1.4,3.4-2.8,3-5.4c1,0,2,0,3,0
		c-1.7,6.6-5.5,11.9-10.2,16.6c-6.8,6.7-13.3,13.7-19.2,21.2c-1,1.3-1.6,2.4-1.5,4C431.7,460.9,427.3,460.9,423,460.9z"/>
	<path class="st13" d="M163,461c10.5-11.1,20.9-22.3,32.7-32.2c1.1-0.9,2.2-2.7,3.7-1.1c1.3,1.3-0.1,2.9-0.9,4
		c-6,8.6-12.3,16.9-19.9,24.2c-1.5,1.5-3.6,2.6-3.7,5.1C171,461,167,461,163,461z"/>
	<path class="st16" d="M304,461c0.2-3.3,3.6-3.6,5.2-5.6c8.3-9.7,18.7-17.3,28-26c1.2-1.1,2.7-1.9,5.1-3.5
		c-2.8,5.5-5.9,9.2-9.3,12.6c-5.9,5.8-11.3,12.1-16.5,18.5c-1,1.2-1.6,2.4-1.5,4C311.3,461,307.7,461,304,461z"/>
</g>
</svg>
