<?xml version="1.0" encoding="utf-8"?>
<!-- Generator: Adobe Illustrator 19.0.0, SVG Export Plug-In . SVG Version: 6.00 Build 0)  -->
<svg version="1.1" id="Calque_1" xmlns="http://www.w3.org/2000/svg" xmlns:xlink="http://www.w3.org/1999/xlink" x="0px" y="0px"
	 viewBox="0 0 612 792" style="enable-background:new 0 0 612 792;" xml:space="preserve">
<g>
	<path d="M467.1,438c7.6,0,14.9,0,22.2,0c3.9,0,8,0,8,5.1c0,5.2-4.1,5.1-7.9,5.1c-110,0-219.9,0-329.9,0c-14.7,0-29.3,0-44,0
		c-3.7,0-7-0.7-7-5.1c0-4.4,3.3-5.2,7-5.1c8.3,0.1,16.6,0,25.1,0c3.2-45.2,23.4-81,58.3-108.5c32.2-25.4,69.2-37.3,110.1-36.1
		C392.2,295.8,462.7,358.5,467.1,438z M151.2,437.7c102,0,203.6,0,305.2,0c0-1,0-1.6,0-2.3c-2.1-31.8-14.4-59.3-36.1-82.5
		c-57.1-60.9-156.5-66.4-220.1-12.3C170.6,365.9,153.8,397.9,151.2,437.7z"/>
	<path d="M303,502.9c-52.7,0-105.3,0-158,0c-8.6,0-9.8-1.5-8.4-10.2c1.3-8.1,2.4-16.1,3.5-24.2c0.6-4.6,2.6-6.7,7.5-6.7
		c103.7,0.1,207.3,0.1,311,0.1c5.3,0,6.9,1.8,7.5,7c1,8.1,2.2,16.2,3.4,24.2c1.2,8-0.1,9.7-8,9.7C408.7,502.9,355.8,502.9,303,502.9
		z M456,472.4c-102.3,0-204,0-306,0c-1,6.8-1.9,13.3-2.9,19.9c104.2,0,207.9,0,311.9,0C457.9,485.5,457,479.1,456,472.4z"/>
	<path d="M306.3,252c0,5.7,0,10.7,0,15.7c0,3.8,0.1,8.1-5,8.1c-5,0-5.3-4-5.3-7.9c0.1-5.1,0-10.2,0-15.8c-8.1,0-15.7-0.1-23.4,0
		c-3.7,0-7-0.6-7.1-5c-0.1-4.4,3.1-5.2,6.8-5.2c19.8,0.1,39.6,0.1,59.4,0c3.8,0,7,1,6.8,5.3c-0.1,3.9-3.2,5-6.8,4.9
		C323.6,251.9,315.3,252,306.3,252z"/>
	<path d="M363,378.8c-7.3,0-13.9,0-21.1,0c0,5.8-0.1,11.4,0,17.1c0.1,3.5-0.6,6.7-4.9,6.6c-4-0.1-4.2-3.4-4.2-6.6
		c0.1-14.5,0-29,0-43.4c0-3.4,0.2-6.8,4.6-6.7c4.4,0.1,4.5,3.6,4.4,6.9c-0.1,5.5,0,10.9,0,16.6c7.2,0,13.9,0,21.1,0
		c0-6.1,0-11.9,0-17.7c0-3.2,0.8-5.8,4.5-5.9c3.6,0,4.6,2.5,4.6,5.8c-0.1,15-0.1,30,0,44.9c0,3.2-0.8,5.9-4.4,6
		c-3.9,0.1-4.7-2.8-4.7-6.2C363.1,390.6,363,385,363,378.8z"/>
	<path d="M320,381.9c1.4,1.8,3.9,3.6,3.9,5.3c-0.1,2-2.4,3.9-4.2,5.6c-1.5,3.3,1.3,9.4-5,9.6c-6.7,0.2-3.8-6.3-5.1-10.4
		c-7.7,0-15.3,0.2-22.9-0.1c-2.2-0.1-5.1-1.1-6.2-2.8c-0.8-1.2,0.5-4.4,1.7-6c8.9-11.4,17.9-22.7,27.2-33.8c1.4-1.7,4.3-2.3,6.5-3.4
		c1,2.2,2.8,4.4,2.9,6.7c0.3,9.8,0.1,19.6,0.1,29.4C319.3,381.9,319.7,381.9,320,381.9z M309.7,382.8c0-6.5,0-12.5,0-19.6
		c-5.5,6.8-10.4,12.9-15.8,19.6C299.8,382.8,304.5,382.8,309.7,382.8z"/>
	<path d="M251.8,393.6c4.8,0,9.6,0,14.4,0c3,0,5.5,0.9,5.6,4.3c0.2,3.6-2.4,4.8-5.6,4.8c-8.8,0-17.6,0.2-26.4-0.1
		c-1.9-0.1-4.6-1.6-5.3-3.2c-0.6-1.2,0.8-4.1,2.1-5.4c7.1-6.8,14.5-13.2,21.7-19.9c5.4-5,6.2-11,2.1-15.8c-4-4.6-10.5-4.7-15.9,0
		c-2.6,2.2-5.3,4.2-8.1,0.7c-2.6-3.2-0.2-5.5,2.1-7.6c8.7-7.9,21-7.6,28.5,0.8c7.4,8.2,6.6,20.1-2,28.1c-4.5,4.2-9.1,8.3-13.6,12.4
		C251.5,392.9,251.7,393.2,251.8,393.6z"/>
</g>
</svg>
