<?xml version="1.0" encoding="utf-8"?>
<!-- Generator: Adobe Illustrator 19.0.0, SVG Export Plug-In . SVG Version: 6.00 Build 0)  -->
<svg version="1.1" id="Calque_1" xmlns="http://www.w3.org/2000/svg" xmlns:xlink="http://www.w3.org/1999/xlink" x="0px" y="0px"
	 viewBox="0 0 612 792" style="enable-background:new 0 0 612 792;" xml:space="preserve">
<g>
	<path d="M452.5,478.1c-82.6,0-164.6,0-247.6,0c0,4.9,0,9.9,0,15c0,2.3,0,4.7,0,7c0,3.6-1.1,6.4-5.3,6.3c-3.8-0.1-5-2.8-5-6.2
		c0-37.1-0.4-74.3,0.2-111.4c0.5-24.9,20.9-46.4,47.3-51.5c4.4-0.8,8.9-1.2,13.4-1.2c50.6-0.1,101.3-0.2,151.9,0
		c28.6,0.1,50.5,18.9,54.5,47c1.2,8.8,0.6,18,0.6,26.9c0,29.7,0,59.3,0,89c0,0.8,0,1.7,0,2.5c-0.2,3.1-1.9,5-5.1,4.9
		c-3.2,0-4.9-1.9-5-5.1c-0.1-6,0-12,0-18C452.5,481.8,452.5,480.2,452.5,478.1z M205.3,407.8c0,2.4,0,4.2,0,6
		c0,15.3,0.1,30.6,0.1,46c0,7.5,0,7.5,7.4,7.5c77.9,0,155.9,0,233.8,0c1.8,0,3.5,0,5.4,0c0-20.2,0-39.7,0-59.5
		C369.8,407.8,287.9,407.8,205.3,407.8z M452,397.1c4.1-28-15-50.7-43-50.8c-51.6-0.2-103.3-0.2-154.9,0.1c-6,0-12.3,1.2-18.1,3.1
		c-21.2,7-33.8,26.9-30.5,47.6C287.6,397.1,369.8,397.1,452,397.1z"/>
	<path d="M420,230.4c-61.7,0-122.7,0-184.3,0c0,1.9,0,3.6,0,5.4c0,27.7,0,55.3,0,83c0,1.5,0.5,3.4-0.2,4.4c-1.2,1.7-3.2,3.8-4.8,3.8
		c-1.6,0-3.6-2.2-4.8-3.9c-0.7-0.9-0.2-2.6-0.2-3.9c0-29,0-58,0-87c0-7.2,2.9-10.7,10-11.9c2.3-0.4,4.6-0.4,7-0.4
		c58.5,0,117,0,175.5,0c10.1,0,12.4,2.3,12.4,12.3c0,28.8,0,57.7,0,86.5c0,1.8,0.2,4-0.7,5.3c-1.1,1.5-3.3,3-5,3
		c-1.4,0-3.4-1.9-4.2-3.4c-0.8-1.5-0.5-3.6-0.5-5.4c0-27.2,0-54.3,0-81.5C420,234.8,420,232.9,420,230.4z"/>
	<path d="M359.3,290.9c-20.4,3.9-40.4,3.5-60.7-0.2c0.8,8.2,1.7,15.7,2.4,23.3c0.2,2.6,0.9,5.5,0.1,7.9c-0.7,2.1-3,4.9-4.8,5
		c-1.6,0.1-4.7-2.7-5-4.6c-1.5-10.5-2.6-21.1-3.5-31.7c-0.5-6.2,6.2-11.2,13-10.2c8.1,1.1,16.2,2.8,24.2,2.7
		c10.8,0,21.6-1.2,32.3-2.4c7.8-0.9,13.6,4.6,12.6,12.3c-1.2,9.1-2.1,18.2-2.9,27.3c-0.3,3.7-0.9,7-5.4,6.8c-4.3-0.2-5.3-3.5-5-7.2
		C357.5,310.5,358.4,301.1,359.3,290.9z"/>
</g>
</svg>
