<?xml version="1.0" encoding="utf-8"?>
<!-- Generator: Adobe Illustrator 19.0.0, SVG Export Plug-In . SVG Version: 6.00 Build 0)  -->
<svg version="1.1" id="Calque_1" xmlns="http://www.w3.org/2000/svg" xmlns:xlink="http://www.w3.org/1999/xlink" x="0px" y="0px"
	 viewBox="0 0 612 792" style="enable-background:new 0 0 612 792;" xml:space="preserve">
<style type="text/css">
	.st0{fill:#15B5BE;}
	.st1{fill:#CDE9FB;}
	.st2{fill:#1C3646;}
	.st3{fill:#2C5870;}
	.st4{fill:#B1DDFA;}
	.st5{fill:#FCFDFD;}
</style>
<g>
	<path class="st0" d="M337,645c-13,0-26,0-39,0c-7.4-1-14.8-1.1-22.3-1.6c-11-0.8-21.6-3.7-32.2-6.9c-32.8-9.9-62.5-25.6-88.9-47.3
		c-26.3-21.7-47.9-47.4-64.1-77.6c-12.3-22.9-21.3-47-25.9-72.6c-1.8-10-2.1-20.2-2.1-30.3c-0.3-3.2,0.6-6.4-0.5-9.6
		c0-6.7,0-13.3,0-20c1.1-3.1,0.2-6.4,0.5-9.5c-0.5-30.6,7.6-59.1,20-86.8c10.2-23,23.7-44,40.3-62.8c20.4-23.2,43.8-42.7,71-57.4
		c23.5-12.7,48.1-22.1,74.4-26.8c10-1.8,20.1-2.1,30.3-2.1c3.2-0.3,6.4,0.6,9.6-0.5c6.7,0,13.3,0,20,0c3.1,1.1,6.4,0.2,9.5,0.5
		c30.7-0.5,59.4,7.7,87.2,20.2c22.9,10.3,43.9,23.7,62.7,40.3c23.2,20.3,42.5,43.9,57.3,71.1c12.7,23.4,22,48.1,26.7,74.3
		c1.5,8.5,1.5,17.2,2.1,25.8c0.1,1.6-0.5,3.3,0.5,4.9c0,13,0,26,0,39c-1,7.4-1.1,14.8-1.6,22.2c-0.8,10.7-3.4,21-6.6,31.2
		c-10.5,34.3-26.8,65.5-50.2,92.8c-36.8,43.1-82.6,71.6-137.7,85.2c-11.9,2.9-24,3.2-36.1,4.1C340.2,644.6,338.5,644,337,645z"/>
	<path class="st0" d="M297.9,133.9c0.1-0.3,0.1-0.6,0.1-0.9c3.3,0,6.7,0,10,0C304.7,134.4,301.3,134.1,297.9,133.9z"/>
	<path class="st0" d="M338,133c0,0.3,0,0.6,0.1,0.9c-3.4,0.3-6.8,0.5-10.1-0.9C331.3,133,334.7,133,338,133z"/>
	<path class="st0" d="M62,369c0.3-0.1,0.6-0.1,0.9-0.1c0.3,3.4,0.5,6.8-0.9,10.1C62,375.7,62,372.3,62,369z"/>
	<path class="st0" d="M62.9,409.1c-0.3,0-0.6,0-0.9-0.1c0-3.3,0-6.7,0-10C63.4,402.3,63.2,405.7,62.9,409.1z"/>
	<path class="st1" d="M160.6,440.3l-0.3-0.2c-2.1-0.7-2.5-2.6-2.5-4.4c-0.3-14.9-0.4-29.8,0-44.6c0-1.2,0.3-2.3,1.1-3.2
		c0.5-0.5,1.1-0.9,1.7-1.1c1.8-0.5,3.5-1,5.4-1c27.8-0.2,55.6-0.1,83.3,0c2.2,0,4.4,0.1,5.8,2.1c57.9,0,115.8,0.1,173.7,0.1
		c8.6,0,17.3,0.3,25.9,0.1c9.8-0.1,16.5,4.1,20.1,13.2c2.2,1.1,2,3.2,2.3,5.2c1.4,8.9,1.1,17.9,1,26.9c-0.1,7.2-1,8-8.2,8
		c-49.5,0-98.9,0.1-148.4,0c-8,0-16,0.9-23.9-0.7c-2.4-2.2-2.1-5.1-2.1-7.9c-0.1-11.1,0-22.3-0.1-33.4c-0.1-6.9-1.2-8-8.2-8.1
		c-38.6,0-77.2-0.1-115.7,0c-7.2,0-8.2,1.1-8.3,8.6c-0.1,10.6,0,21.3-0.1,31.9c0,2.5,0.3,5-1.2,7.3
		C161.8,439.7,161.2,440,160.6,440.3z"/>
	<path class="st2" d="M161,460c0-6.3,0-12.6,0-18.8c1.8-2.1,4.2-1.7,6.5-1.7c41.5,0,83-0.9,124.4,0.2c59.3,1.5,118.5,0.2,177.8,0.8
		c6.8,0.1,7.6,0.6,7.5,7.3c-0.1,4.1,1.6,8.7-2.2,12.3l0,0c-1.7,0.8-3.6,0.4-5.4,0.4c-101.1,0-202.1,0-303.2,0
		C164.6,460.5,162.8,460.9,161,460z"/>
	<path class="st3" d="M160.6,387.8c-0.1,17.4-0.1,34.8-0.2,52.3c-0.1,0.6-0.2,1.3-0.4,1.9c-4.5,7.5-11.2,12.8-17.3,18.8
		c-1.9,1.9-4.3,2.5-6.5,0.2c-1.8-44.3-1.7-88.5-0.4-132.8c0.4-14.1,0.9-28.3,2.2-42.3c0.8-8.4,0.9-8.6,9.1-8.6c1.3,0,2.7,0.1,4,0
		c4-0.4,5.6,1.3,6,5.3c2,17.4,2.5,34.8,3,52.3c0.3,11.8,0.6,23.6,1,35.4c1.2,0.7,1.7,1.7,1.9,3C162.6,378.2,161.9,383,160.6,387.8z"
		/>
	<path class="st3" d="M475,460.1c0-3.8-0.1-7.7-0.1-11.5c0-7.4,0-7.4-7.3-7.4c-36.5,0-72.9,0-109.4,0c-63.8,0-127.5,0-191.3-0.1
		c-2,0-4,0.1-6,0.1c-0.1-0.3-0.3-0.6-0.4-0.9c0.2-0.1,0.3-0.2,0.4-0.4c2.6-2.8,6.2-2.1,9.4-2.1c35.6-0.1,71.2,0,106.8,0
		c4.8,0,9.6-0.1,14.5,0.1c2.4,0.1,4.7,0.2,6.4,2.2c20,0.1,39.9,0.2,59.9,0.3c37.4,0,74.9,0,112.3,0.1c4.3,0,5.8-1.1,5.6-5.5
		c-0.5-11.1-0.6-22.3-0.8-33.4c1.8-10.5,0.5-21.3,2-31.8c0.7-4.8,1.2-9.6,1.7-14.4c0.3-2.9,1.8-4.3,5-4.2c15.4,0.5,13.5-3,15.3,14
		c3,28.7,2.3,57.5,2,86.3c-0.2,14.3-0.9,28.6-2.8,42.8c-0.6,4.8-2.3,7-7.6,6.7c-10.5-0.7-11.5,1.9-12.8-11.1
		c-0.8-8.1-1.5-16.2-1.8-24.4C475.9,463.5,476.3,461.6,475,460.1z"/>
	<path class="st4" d="M160.7,373.4c0.1-1.1,0.2-2.1,0.3-3.2c4.4-11.3,12.8-15.6,24.7-15.3c16.6,0.4,33.3,0.7,49.9-0.1
		c18.2-0.9,30.2,16.7,19.7,33c-31.4,0-62.9,0-94.3,0C160.1,383.1,160.5,378.3,160.7,373.4z"/>
	<path class="st3" d="M159.1,459.2c0.4,12.5-0.7,24.9-2.1,37.4c-0.3,3-1.8,4.3-4.9,4.2c-13.6-0.5-13.1,2.5-14.4-12.2
		c-0.5-5.5-0.8-11-0.8-16.5c-0.1-2.8,1.8-4.5,3.4-6.2c3.6-3.7,7.2-7.3,10.9-10.8c1.9-1.8,3.8-4.4,6.7-3
		C160.9,453.7,159.4,456.7,159.1,459.2z"/>
	<path class="st3" d="M161,460c104.7,0,209.3,0,314,0c-1.4,1.4-3.1,0.9-4.7,0.9c-101.2,0-202.4,0-303.5,0
		C164.8,460.9,162.7,461.6,161,460z"/>
	<path class="st3" d="M159.1,459.2c0-0.7,0-1.3-0.1-2c-0.1-1.3,0.3-2.8-1.1-3.6c-1.7-0.9-2.7,0.7-3.7,1.6
		c-5.8,5.6-11.6,11.2-17.3,16.8c-1.2-3.7-0.8-7.4-0.7-11.2c2.5,0.2,4.4-0.9,6.1-2.7c4.3-4.4,8.6-8.7,13-13c1.4-1.4,2.6-3,4.8-3.3
		C160,447.8,161.1,453.6,159.1,459.2z"/>
	<path class="st5" d="M298,439.9c-33.2,0.1-66.5,0.1-99.7,0.2c-12.5,0-24.9-0.1-37.4-0.2c0.1-15.1,0.2-30.3,0.1-45.4
		c0-4.1,1.2-5.5,5.4-5.5c42.1,0.1,84.2,0.1,126.3,0c4.2,0,5.4,1.6,5.3,5.6C297.9,409.6,298,424.7,298,439.9z"/>
	<path class="st0" d="M160.7,373.4c0.1,4.8,0.2,9.6,0.2,14.5c0,0-0.4-0.1-0.4-0.1C160.1,383,159.8,378.2,160.7,373.4z"/>
</g>
</svg>
