<?xml version="1.0" encoding="utf-8"?>
<!-- Generator: Adobe Illustrator 19.0.0, SVG Export Plug-In . SVG Version: 6.00 Build 0)  -->
<svg version="1.1" id="Calque_1" xmlns="http://www.w3.org/2000/svg" xmlns:xlink="http://www.w3.org/1999/xlink" x="0px" y="0px"
	 viewBox="0 0 612 792" style="enable-background:new 0 0 612 792;" xml:space="preserve">
<g>
	<path d="M301.3,250c46.7,0,93.3,0,140,0c19.7,0,33.8,13.9,33.8,33.5c0,57.3,0,114.6,0,172c0,19.3-14.1,33.5-33.4,33.5
		c-93.8,0-187.6,0-281.4,0c-19,0-33.3-14.1-33.3-33c0-57.5,0-115,0-172.5c0-19.4,14-33.4,33.4-33.4C207.3,250,254.3,250,301.3,250z
		 M300.5,477c46.8,0,93.7,0,140.5,0c15.1,0,22.1-6.9,22.1-21.9c0-57,0-114,0-171c0-15.4-6.8-22.1-22.3-22.1c-93,0-186,0-279,0
		c-16.3,0-22.8,6.5-22.8,22.6c0,56.7,0,113.3,0,170c0,15.7,6.8,22.4,22.6,22.4C207.8,477,254.2,477,300.5,477z"/>
	<path d="M301,512.1c-21,1-40.7,5.6-59.2,15.1c-1,0.5-2.1,1.1-3.1,1.6c-3.5,1.9-6.6,1.3-8.5-2.2c-2-3.6-0.6-6.7,2.9-8.3
		c8.3-3.7,16.6-7.9,25.2-10.6c37.2-11.6,73.2-8.1,108,9.2c0.4,0.2,0.9,0.5,1.3,0.7c4.5,2.5,6.2,5.9,4.1,9.1
		c-2.5,3.9-5.7,3.2-9.5,1.6c-9.9-4.1-19.9-8.6-30.2-11.3C321.9,514.4,311.4,513.7,301,512.1z"/>
	<path d="M301,463.2c-46.3,0-92.6,0-139,0c-8.3,0-9.5-1.2-9.5-9.6c0-56.2,0-112.3,0-168.5c0-8.4,1.2-9.6,9.5-9.6c92,0,184,0,275.9,0
		c11,0,11.5,0.7,11.5,11.5c-0.1,29.7,0,59.3,0,89c0,25.8,0,51.7,0,77.5c0,8.4-1.2,9.6-9.5,9.6C393.7,463.2,347.3,463.2,301,463.2z
		 M164.8,451c90.9,0,181.5,0,272.4,0c0-54.5,0-108.7,0-163.2c-90.9,0-181.5,0-272.4,0C164.8,342.4,164.8,396.6,164.8,451z"/>
</g>
</svg>
