<?xml version="1.0" encoding="utf-8"?>
<!-- Generator: Adobe Illustrator 19.0.0, SVG Export Plug-In . SVG Version: 6.00 Build 0)  -->
<svg version="1.1" id="Calque_1" xmlns="http://www.w3.org/2000/svg" xmlns:xlink="http://www.w3.org/1999/xlink" x="0px" y="0px"
	 viewBox="0 0 612 792" style="enable-background:new 0 0 612 792;" xml:space="preserve">
<style type="text/css">
	.st0{fill:#373737;}
</style>
<g>
	<path class="st0" d="M546,481c-2.6,4-6.2,5.2-11,5.1c-75.5-0.1-150.9-0.1-226.4-0.1c-8.2,0-10.7-2.4-10.7-10.7
		c0-11.3-0.8-22.8,0.5-33.9c2.8-23.5,20.1-41.2,44.6-47.4c11.9-3,24.1-4,36.2-2.7c32.6,3.3,65.1,3.1,97.8,0.8
		c8.8-0.6,17.7-0.5,26.3,2.1c22.4,6.7,36.9,21,41.7,44.4c0.1,0.7,0.2,1.3,0.9,1.5C546,453.7,546,467.3,546,481z"/>
	<path class="st0" d="M34,441c1.2-4.1,2.1-8.4,3.6-12.4c8.2-21.7,29.3-36,53.6-36.6c14.4-0.4,28.6,0.6,42.9,1.7
		c20.5,1.5,40.9-0.9,61.4-2.2c17-1.1,34-1.1,50.2,5.5c23.7,9.6,36.4,28.7,36.4,54.3c0,8.3,0,16.7,0,25c0,7-2.8,9.8-9.6,9.8
		c-76.3,0-152.6,0-229,0.1c-4.4,0-7.1-2.1-9.5-5.2C34,467.7,34,454.3,34,441z"/>
	<path class="st0" d="M34,506c80.9,0,161.9,0.1,242.8-0.1c4.6,0,5.4,1.3,5.3,5.5C281.8,522,282,522,271.5,522
		c-11.5,0-11.5,0-11.5,11.5c0,11.5,0,23,0,34.5c-10,0-20,0-30,0c-1.8-2.1-1.6-4.6-1.6-7.1c0-10.3,0-20.6,0-30.9
		c0-5.8-0.4-6.3-6.2-6.3c-42.7,0-85.5,0-128.2,0c-5.8,0-6.2,0.5-6.2,6.3c-0.1,10.3,0,20.6,0,30.9c0,2.5,0.2,5-1.6,7.1
		c-10,0-20,0-30,0c-1.8-2.1-1.6-4.7-1.6-7.1c0-10.3,0-20.7,0-31c0-5.8-0.5-6-6.3-6.3c-4.7-0.3-9.7,1.3-14.1-1.5
		C34,516.7,34,511.3,34,506z"/>
	<path class="st0" d="M320,568c0-14-0.1-28,0.1-42c0-3.3-0.9-4.3-4.1-4.1c-4.8,0.3-9.7-0.1-14.5,0.1c-2.9,0.1-3.5-1-3.5-3.7
		c-0.2-12.4-0.3-12.4,12.2-12.4c78.6,0,157.2,0,235.8,0c0,5.3,0,10.7,0,16c-4.1,2.8-8.7,1.4-13.1,1.5c-7.1,0.3-7.2,0.3-7.3,7.4
		c0,10,0,20,0,30c0,2.5,0.3,5-1.6,7.1c-10,0-20,0-30,0c-1.8-2.1-1.6-4.6-1.6-7.1c0-10.3,0-20.6,0-30.9c0-5.8-0.4-6.3-6.2-6.3
		c-42.7,0-85.5,0-128.2,0c-5.8,0-6.2,0.5-6.2,6.3c-0.1,10.3,0,20.6,0,30.9c0,2.5,0.2,5-1.6,7.1C340,568,330,568,320,568z"/>
	<path class="st0" d="M524,380.5c-10-4.7-19.7-7.4-29.9-8.3c-2-0.2-2.6-1-2.4-2.8c1.4-17-4.7-33.6-3.5-50.6c0.2-3.4-1.7-4.8-4.9-4.8
		c-0.2,0-0.4,0-0.5,0c-15.3,5.7-30.7,0.6-45.9-0.4c-18.4-1.2-36.6,0.3-54.8,2.8c-6.4,0.9-12.2-0.4-18.2-1.8
		c-6.9-1.6-8.7-0.2-8.1,6.8c0.5,5.9-0.1,11.5-1.4,17.3c-2.1,9.5-2.1,19.2-2.1,28.8c0,3.3-0.7,4.7-4.1,5.1
		c-9.6,1.1-18.7,4.3-28.2,8.7c0-2.2,0-4,0-5.7c0-51.3,0-102.6,0-153.9c0-16,7.1-24.6,23-27.7c4.9-0.9,9.9-1.8,14.8-1.7
		c14,0.3,27.5-2.2,40.9-5.5c15.7-3.8,31.4-3.9,46.9,0.2c15.6,4.1,31.5,5.1,47.4,5.9c1.3,0.1,2.7,0.1,4,0.3
		c20.3,3.4,26.9,11.4,26.9,32c0,49.6,0,99.3,0,148.9C524,376,524,377.9,524,380.5z"/>
	<path class="st0" d="M260,381.4c-9.9-4.7-19.3-7.7-29.3-9c-2.7-0.3-3-1.7-3-4c-0.2-12.3-0.4-24.6-3.6-36.7
		c-1.1-4.1,0.1-8.3,0.2-12.4c0.1-3.9-1.9-6.3-5.4-5.1c-15.3,5.3-30.4,0.5-45.5-0.5c-18.8-1.3-37.3,0.3-55.8,2.8
		c-6.1,0.8-11.5-0.5-17.2-1.7c-7.5-1.7-9.1-0.4-8.6,7.3c0.3,5,0.3,9.9-1,14.8c-2.6,10.3-2.4,20.8-2.6,31.3c0,2.9-0.6,4.1-3.7,4.3
		c-9.8,0.8-19.1,3.7-28.6,8c0-15.6,0-30.5,0-45.5c0-36.7,0.4-73.3-0.1-110c-0.3-21.9,10-30.4,28.4-31.5c21.7-1.3,42.9-5,64.2-8.8
		c10-1.8,20-0.7,29.7,1.7c16.4,4,33,6,49.9,6.5c2.5,0.1,5,0.5,7.4,1c17.3,3.1,24.5,11.6,24.5,28.9c0,51.3,0,102.6,0,154
		C260,378.1,260,379.4,260,381.4z"/>
</g>
</svg>
