<?xml version="1.0" encoding="utf-8"?>
<!-- Generator: Adobe Illustrator 19.0.0, SVG Export Plug-In . SVG Version: 6.00 Build 0)  -->
<svg version="1.1" id="Calque_1" xmlns="http://www.w3.org/2000/svg" xmlns:xlink="http://www.w3.org/1999/xlink" x="0px" y="0px"
	 viewBox="0 0 612 792" style="enable-background:new 0 0 612 792;" xml:space="preserve">
<g>
	<path d="M468,503.7c-116.9,0-233,0-349.9,0c0,6.4,0,12.8,0,19.2c0,1.7,0.5,3.7-0.2,4.9c-1,1.8-3.1,4.2-4.5,4.1
		c-1.9-0.1-3.9-2.3-5.2-4c-0.7-1-0.2-2.9-0.2-4.4c0-34.8,0.5-69.6-0.1-104.5c-0.6-32.2,26.7-54.9,54.4-57c2.3-0.2,4.7-0.2,7-0.2
		c84.3,0,168.6,0,252.9,0c24.1,0,44,12.9,52.1,34.1c2.3,5.9,3.6,12.6,3.8,18.9c0.6,24.6,0.6,49.3,0.7,73.9c0,12.1-0.4,24.3-0.5,36.5
		c0,3.7-0.6,7-5.2,6.9c-4.5-0.1-5.1-3.4-5.1-7.1C468.1,518.1,468,511.2,468,503.7z M467.8,433.5c-1.6-0.1-2.7-0.2-3.8-0.2
		c-113.6,0-227.3,0-340.9-0.1c-3.7,0-4.9,1-4.8,4.8c0.3,15.8,0.2,31.7,0.3,47.5c0,7.6,0,7.6,7.4,7.6c112.1,0,224.3,0,336.4,0
		c1.8,0,3.5,0,5.5,0C467.8,473,467.8,453.5,467.8,433.5z M118.6,422.8c116.5,0,232.7,0,350,0c-0.8-6.7-0.8-13.3-2.3-19.4
		c-5-19.6-21.3-31.4-43.2-31.4c-85-0.1-169.9,0-254.9,0c-4,0-8,0.4-11.9,1.1C131.5,377.5,115.3,398.9,118.6,422.8z"/>
	<path d="M437.3,256.1c-95.7,0-190.8,0-286.6,0c0,2.1,0,4,0,6c0,27.3,0,54.6,0,82c0,1.7,0.4,3.7-0.4,4.9c-1.1,1.7-3.2,3.8-4.9,3.8
		c-1.7,0-3.5-2.3-4.8-4c-0.7-0.9-0.3-2.6-0.3-3.9c0-28.8,0-57.6,0-86.5c0-8.5,3.5-12.2,11.9-12.7c1.5-0.1,3-0.1,4.5-0.1
		c92.3,0,184.6,0,276.9,0c2.6,0,5.4,0,7.9,0.8c4.5,1.5,6.1,5.3,6.1,9.9c0,30,0,60,0,90c0,3.5-0.9,6.6-5.1,6.6
		c-4.5,0-5.3-3.2-5.3-6.9c0-27.8,0-55.6,0-83.5C437.3,260.6,437.3,258.7,437.3,256.1z"/>
	<path d="M275.2,316.5c-20.7,3.9-40.7,3.5-61-0.2c0.8,7.3,1.6,14,2.3,20.8c0.3,3.6,0.9,7.4,0.2,10.9c-0.4,1.9-3.2,4.2-5.2,4.6
		c-1.3,0.2-4.2-2.8-4.5-4.6c-1.5-10.4-2.4-20.8-3.5-31.2c-0.6-6.4,5.7-11.8,12.4-10.8c4.4,0.7,8.9,1.4,13.3,2
		c14.8,2,29.6,1,44.2-1.7c6.8-1.2,13.1,4.7,12.3,11.4c-1.1,9.7-2.1,19.5-3.1,29.3c-0.3,3.4-1.7,6-5.4,5.9c-3.7-0.1-5-2.8-5-6.2
		c0-0.7,0-1.3,0-2c0.8-7.6,1.5-15.2,2.3-22.8C274.8,320.4,274.9,318.9,275.2,316.5z"/>
	<path d="M376,316.6c-20.4,3.7-40.4,3.6-60.8-0.3c0.8,7.2,1.6,13.7,2.2,20.3c0.3,3.5,0.5,7,0.5,10.5c0.1,3.5-1.6,5.9-5.3,5.9
		c-3.4,0-4.7-2.4-4.9-5.7c-0.8-9.6-1.8-19.2-2.9-28.8c-1-7.9,4.7-13.6,12.5-12.3c4.4,0.7,8.9,1.4,13.3,2c14.7,2,29.2,0.9,43.7-1.7
		c7.3-1.3,13.3,4.9,12.3,12.2c-1.2,8.9-2.1,17.8-2.9,26.8c-0.3,3.7-0.7,7.2-5.4,7.5c-3.5,0.2-5.4-2.7-5-8.1
		C374.1,335.7,375.1,326.6,376,316.6z"/>
</g>
</svg>
