<?xml version="1.0" encoding="utf-8"?>
<!-- Generator: Adobe Illustrator 19.0.0, SVG Export Plug-In . SVG Version: 6.00 Build 0)  -->
<svg version="1.1" id="Calque_1" xmlns="http://www.w3.org/2000/svg" xmlns:xlink="http://www.w3.org/1999/xlink" x="0px" y="0px"
	 viewBox="0 0 612 792" style="enable-background:new 0 0 612 792;" xml:space="preserve">
<g>
	<path d="M595.7,359c0,9.3,0,18.7,0,28c-0.3,1.8-0.8,3.5-0.9,5.3c-1.8,25.2-6.8,49.9-16.5,73.2c-36.7,87.9-101.7,141.4-195.4,159.6
		c-9.6,1.9-19.4,2.6-29.1,3.9c-9.3,0-18.7,0-28,0c-1.3-0.3-2.6-0.7-3.9-0.8c-21.5-1.3-42.7-5-62.9-12.4
		c-94.2-34.5-151.6-100.7-171.3-199.2c-1.9-9.4-2.7-19.1-4-28.6c0-10,0-20,0-30c0.3-1.3,0.8-2.5,0.9-3.8
		c2.5-35.9,11.8-69.9,29.2-101.3c41.4-74.6,104.3-119.2,188.7-133c7.3-1.2,14.8-2,22.1-2.9c10,0,20,0,30,0c3.4,0.4,6.8,0.9,10.3,1.3
		c54.2,5.9,102.2,26.2,143.2,62.3c47.1,41.5,75.4,93.5,84.7,155.8C593.9,343.8,594.7,351.4,595.7,359z M285.5,395.5
		c-2.2-1-3.6-1.6-4.9-2.2c-13.2-5.6-26.8-8.8-41.3-8.3c-27.7,1-46.3,21.6-42.5,47.8c0.7,4.9-0.4,7.2-3.9,10.2
		c-17.5,14.9-15.9,36.7,3.3,49c4.3,2.8,9,5.2,13.8,6.8c25.1,8.8,51,11.3,77.3,7.8c12.8-1.7,25.1-5.3,34.5-15.3c1-1,3.3-1,5-1.1
		c11.8-0.1,23.6,0,35.5-0.2c4.6,0,9.2-0.4,14.2-0.6c0,1.5,0,2.6,0,3.8c0.4,10.2,6.2,15.5,16.5,14.9c8-0.4,14.8-3.9,20.8-8.7
		c4.1-3.3,7.7-7.2,11.6-10.9c1,1.9,1.9,4,3.1,6c5.4,9.3,12.4,16.9,22.9,20.5c9.7,3.3,17.7-0.8,19.7-10.8c1-5.1,1.2-10.8-0.1-15.8
		c-1.9-7.4-5.3-14.4-8.2-21.6c1.3-0.2,3.1-0.5,4.9-0.9c10-2.1,19.1-6.1,25.9-14c8.1-9.4,6.1-19.5-5-25c-8-4-16.6-4.8-25.3-3.6
		c-3,0.4-6,1.1-9.2,1.6c1.7-11.9,1-22.9-5.3-32.8s-15.9-11-24.4-3c-2.2,2.1-4,4.6-6.5,7.4c0-9.4,0.1-18,0-26.7
		c-0.2-24.7-0.6-49.3-5-73.7c-1.6-8.9-2.8-10.1-11.8-11.5c-10.2-1.5-20.4-2.5-31-3.7c0.8-20.5-5.8-38.5-18.9-54.9
		c-13.1,16.5-19.6,34.6-19,55c-9.3,0.9-18.3,1.7-27.2,2.8c-12.7,1.6-14.7,3.7-16.2,16.5c0,0.2,0,0.3,0,0.5c-1,23.6-2.1,47.2-3,70.8
		C285.3,379.5,285.5,387.1,285.5,395.5z"/>
	<path d="M405.7,417.3c-9.2-3.2-18-5.5-27.3-3.5c-13,2.8-17.7,12.7-11.2,24.4c5.1,9.1,13.1,15,22.4,19.1c1.4,0.6,2.7,1.2,3.7,1.5
		c-4.4,6.2-8.6,12.4-13.1,18.4c-0.7,0.9-2.2,1.5-3.4,1.6c-16.1,0.7-32.2,1.3-49.3,1.9c3-18.1-5.9-29.4-19.1-38.2
		c6.6-16.9,4.2-26.1-9.4-38.1c-1.6-1.4-3-4.1-3-6.2c0.7-32,1.7-63.9,2.7-95.9c0.3-7.5,0.5-7.7,7.9-8.5c30.4-3.1,60.9-2.7,91.3,0.2
		c5.3,0.5,5.4,4.1,5.6,7.7c1.3,24.9,2.8,49.9,3.7,74.8c0.4,11-0.5,22-0.8,33C406.4,412,406,414.5,405.7,417.3z"/>
	<path d="M269.2,497.8c-18.7-0.5-37.3-1.8-55.1-7.9c-5.1-1.8-10.2-4.3-14.6-7.4c-13.7-9.5-8.5-27.5,2.6-33.7c1.1-0.6,3.1-0.9,4-0.3
		c8.2,5.4,17.5,7.3,27,8c18,1.4,35.9,1.9,53.6-2.4c2.3-0.6,4.8-0.9,6.6-2.1c5.3-3.5,9.5-1.2,13.5,2.1c1.9,1.5,3.8,3.3,5.4,5.1
		c9.1,10.7,6.5,25-5.7,31.8c-9.1,5.1-19.3,6.1-29.4,6.8C274.6,497.9,271.9,497.8,269.2,497.8z"/>
	<path d="M428,459c-2.1,4.7-3.8,9.7-6.5,13.9c-4.2,6.5-8.9,12.8-14,18.5c-2.5,2.8-6.4,5-10.1,6.1c-2.8,0.9-7.1,0.7-9.1-1
		c-1.7-1.5-2.1-5.9-1.3-8.6c3.3-11.7,11.6-19.6,21.7-25.7c4.7-2.8,9.5-5.3,15.7-8.8c-7.1-1-12.7-1.7-18.3-2.5
		c-8.2-1.2-15.8-4.1-22.4-9.1c-2.5-1.9-5.1-4-6.7-6.6c-1.4-2.3-2.5-6.1-1.6-8.2c1-2.1,4.6-3.8,7.2-4c10.8-0.8,20.1,3.6,28.5,10
		c4.2,3.2,8.1,6.7,13.1,10.9c-0.8-6.3-1.5-11.5-2-16.7c-0.9-9.2,0.6-17.9,4.8-26.1c1.8-3.4,4.2-6.9,8.6-6.5c4.8,0.4,6.3,4.5,7.4,8.4
		c2.6,9.7,1.4,19.1-2,28.4c-1.5,4.2-3.2,8.3-5.3,14c4.8-2.4,8.4-4.2,11.9-6c8.1-4.2,16.7-6.7,25.9-6.3c3.1,0.2,6.3,0.8,9.2,1.9
		c5.8,2.3,6.8,7.4,2.4,11.8c-5.7,5.7-13,8.2-20.7,8.9c-7.2,0.6-14.6-0.1-21.9-0.4c-2.4-0.1-4.8-0.4-8.7-0.8c4.8,4.4,8.4,7.7,12,11.1
		c8.2,7.5,13.9,16.5,16.1,27.5c0.2,1.1,0.7,2.5,0.4,3.4c-1,3-1.7,7-3.9,8.4c-1.9,1.2-6.3,0.2-8.6-1.4c-10.6-7.3-15.6-18.3-18.2-30.5
		c-1-4.7-1.9-9.4-2.8-14.1C428.7,459.1,428.3,459,428,459z"/>
	<path d="M252.2,448c-10.5-1.3-21.2-1.9-31.6-4.1c-10.8-2.3-14.4-8.1-13.9-19.2c0.8-15.9,9.9-26.4,25.6-28.5
		c19.9-2.7,38.5,1.4,55.4,12.2c4.2,2.7,8.1,6.5,11,10.6c6.1,8.6,3.6,18.6-6.2,22.2c-8.5,3.1-17.7,4.1-26.7,5.5
		c-4.4,0.7-9,0.1-13.5,0.1C252.3,447.2,252.3,447.6,252.2,448z"/>
	<path d="M359.4,281c-5.8,0-10.9,0-16.5,0c-1.4-12.8,2-24.3,8-36.1C357.2,256.5,360.2,268,359.4,281z"/>
</g>
</svg>
