<?xml version="1.0" encoding="utf-8"?>
<!-- Generator: Adobe Illustrator 19.0.0, SVG Export Plug-In . SVG Version: 6.00 Build 0)  -->
<svg version="1.1" id="Calque_1" xmlns="http://www.w3.org/2000/svg" xmlns:xlink="http://www.w3.org/1999/xlink" x="0px" y="0px"
	 viewBox="0 0 612 792" style="enable-background:new 0 0 612 792;" xml:space="preserve">
<g>
	<g>
		<path d="M285.7,495.9c-51.7,0-103.3,0-155,0c-16.9,0-30.5-10.8-33-26.1c-3.3-20.3,5-35.7,22.7-41.2c3.8-1.2,3.4-3.8,4.1-6.3
			c2.8-9.5,4.5-19.6,8.7-28.5c12.2-26.2,34.1-39.7,62-43.8c8.2-1.2,16.6-1,24.9-1.5c1.7-0.1,3.3-0.1,5-0.3c8.4-0.9,8.6-1.1,8.6-9.7
			c0-3.5,0-7,0-10.5c0.1-11.7,6.9-18.6,18.7-18.7c9.8-0.1,19.7,0,29.5,0c12.5,0,25-0.1,37.5,0c12.3,0.1,19,7,19.1,19.4
			c0,4.3,0.3,8.7-0.1,13c-0.3,4.2,1.7,5.8,5.4,6.2c3.1,0.3,6.3,0.6,9.5,0.6c17.5-0.2,34.6,1.7,50.6,9.5c24.3,12,37,32.6,42.8,58.2
			c0,0.2,0.1,0.3,0.1,0.5c0.2,7.1,3.2,11.1,10.4,14.3c16.4,7.3,20.4,22.7,17,40.1c-3,15.1-16.1,24.9-32,24.9
			C390,495.9,337.8,495.9,285.7,495.9z M430.2,446.8c-0.5-7.3-0.9-14-1.6-20.6c-3.2-30.8-22-51.4-52.4-56.4c-10-1.6-20.2-1.4-30.4-2
			c-18.4-1-27.2-10.2-27.1-28.5c0-3.4,0-6.8,0-10.2c-22.2,0-43.6,0-65.4,0c0,4.7,0,9,0,13.3c0,12.3-5.6,20.2-17.5,23.5
			c-5.2,1.4-10.8,1.4-16.3,1.9c-9.1,0.9-18.4,0.6-27.3,2.6c-28.1,6.2-44.5,25.2-48.6,55.1c-1,7-2,14-3,21.2c-4.4,0-8.2-0.1-12,0
			c-6,0.2-11.1,4.4-11.8,10.3c-1.5,12.1,2.5,19.4,15.9,19.3c95.8-0.2,191.7-0.1,287.5-0.1c7.7,0,15.3,0.2,23-0.1
			c8.5-0.4,12.6-6,12.3-16c-0.2-8.2-5.1-13.2-13-13.3C438.6,446.8,434.6,446.8,430.2,446.8z"/>
		<path d="M410.4,215c0-7.4,0-14,0-20.9c-1-0.1-1.8-0.2-2.6-0.2c-24.2,0-48.3-0.6-72.5,0.2c-23.5,0.8-42.2,11.1-53.9,32.2
			c-4.1,7.4-5.8,15.5-5.8,24c0,11.5,0,23,0,34.5c0,7.3-1.9,9-9.8,9c-8.1,0-10-1.7-10-8.8c0-13.3-0.9-26.8,0.4-40
			c3.2-33.6,22.6-55.1,53.7-66c9.2-3.2,19.5-4.4,29.4-4.7c23.5-0.7,47-0.3,70.5-0.2c14,0,20.4,6.5,20.4,20.5c0,7.2,0.1,14.3,0,21.5
			c-0.2,11.4-7.1,18.3-18.6,18.3c-24,0.1-48-0.1-72,0.1c-4.4,0-9,0.8-13.1,2.5c-6.8,2.8-10.7,7.9-10.4,16c0.4,10.7,0.2,21.3,0.1,32
			c0,7.3-1.9,8.8-10.6,8.7c-7.2,0-9-1.8-9-8.7c0-10.5,0-21,0-31.5c0-20.1,12.5-34.9,32.5-37.8c6.4-0.9,12.9-0.9,19.4-0.9
			c18.5-0.1,37,0,55.5,0C406.1,215,408.1,215,410.4,215z"/>
		<path d="M219.7,529.2c-0.4,1-0.9,2.5-1.6,4c-11.1,22.2-22.2,44.3-33.4,66.4c-3.1,6.2-5.4,6.7-13,2.8c-6.6-3.3-7.5-5.6-4.5-11.7
			c11.1-22.1,22.2-44.3,33.4-66.4c2.8-5.6,5.2-6.4,10.8-3.6C214.9,522.5,219.2,523.4,219.7,529.2z"/>
		<path d="M407.2,596.1c-1.3,1.6-2.4,3.4-3.9,4.7c-1.4,1.2-3.2,1.8-4.8,2.6c-5.5,2.7-8.1,1.9-10.8-3.6
			c-7.7-15.1-15.3-30.3-22.9-45.4c-3.7-7.3-7.4-14.5-11-21.9c-2.3-4.7-1.4-7.3,3.1-9.9c1.3-0.7,2.7-1.4,4-2
			c5.3-2.5,7.9-1.8,10.5,3.4c7.7,15.1,15.3,30.3,22.9,45.5c3.6,7.1,7.2,14.3,10.7,21.4C405.8,592.4,406.3,594,407.2,596.1z"/>
		<path d="M303.9,561.9c0-9.8,0-19.6,0-29.4c0-9.7,1.1-10.7,11-10.7c0.5,0,1,0,1.5,0c4.9,0.2,7.2,2.1,7.2,6.9
			c0.1,22.3,0.1,44.6,0,66.9c0,4.4-2.3,6.8-6.7,7.1c-1.8,0.1-3.7,0.1-5.5,0c-5.4-0.2-7.5-2.3-7.5-7.8
			C303.8,583.8,303.9,572.8,303.9,561.9z"/>
		<path d="M268.3,561.8c0,10.6,0,21.3,0,31.9c0,7.4-1.9,8.9-10.5,8.8c-7.4-0.1-9.2-1.8-9.2-9.1c0-20.9,0-41.9,0-62.8
			c0-7.3,1.5-8.8,8.6-8.9c9.9-0.1,11,0.9,11,10.7C268.3,542.2,268.3,552,268.3,561.8z"/>
	</g>
</g>
</svg>
