<?xml version="1.0" encoding="utf-8"?>
<!-- Generator: Adobe Illustrator 19.0.0, SVG Export Plug-In . SVG Version: 6.00 Build 0)  -->
<svg version="1.1" id="Calque_1" xmlns="http://www.w3.org/2000/svg" xmlns:xlink="http://www.w3.org/1999/xlink" x="0px" y="0px"
	 viewBox="0 0 612 792" style="enable-background:new 0 0 612 792;" xml:space="preserve">
<g>
	<path d="M657.5,432.2c-0.6,35.7-9.6,60.6-30.7,80.5c-8,7.5-17,12.7-27.9,15.3c-89.8,20.8-179.6,42-269.4,63c-4.3,1-9.3,1-13.6,0.1
		C226.2,571,136.5,550.4,46.8,530c-13.3-2.9-21.4-10.9-24.9-24c-7.8-28.6-11.4-57.7-2.4-86.4c4.1-13.4,10.9-26.3,18.3-38.2
		c13-21.1,32.7-29.5,57.7-31.9c63.3-6.2,126.2-15,189.4-22.7c28.5-3.5,56.9-7.8,85.5-10c11.7-0.9,23.9,1.8,35.5,4.4
		c72.6,16.2,145,33,217.4,49.4c14.3,3.2,24,10.9,27.1,25.5C653.5,410.3,656.1,424.7,657.5,432.2z M364.8,554.6
		c0.4-0.1,2.4-0.3,4.3-0.7c73.6-17.3,147-34.8,220.6-51.8c10.9-2.5,19.2-7.7,25.1-16.4c4.7-7.1,9.1-14.7,11.7-22.7
		c6.3-20.4,3.8-40.9-2.7-60.8c-0.7-2.4-4.6-4.7-7.5-5.5C548.1,381,480,365.4,411.8,350.1c-15.5-3.5-30.7-8.3-47.2-6
		c-59.4,7.7-118.9,14.7-178.3,22.1c-10.5,1.3-20.8,2.7-31.1,4c0.9,1.3,1.8,1.6,2.5,1.8c53.8,12.2,107.7,24.5,161.3,36.9
		c5.5,1.2,11.4,2.7,15.6,5.8c32.4,23.9,47.9,56,42.6,96.5C375.4,525.9,369.2,540,364.8,554.6z M351.5,502.1c0-21.1-6.2-37-16.4-50.9
		c-9.3-12.5-22.3-16.2-36.6-19.3c-72-16.1-143.9-32.6-215.9-49.3c-6.3-1.5-10.5-0.3-14.9,4.3c-9.4,9.6-16.5,20.6-20.8,33.5
		c-8.8,26.3-6.3,52.4,1.3,78.2c0.7,2.4,4.6,4.9,7.4,5.5c86,19.8,172.1,39.4,258.2,58.8c2.2,0.4,5.8,0.1,7.2-1.3
		C339.1,544.3,351.1,524.1,351.5,502.1z"/>
	<path d="M285.3,285.2c-29.9,0-53.8-23.7-54-53.5c-0.1-30.1,24.3-54.6,54.1-54.3c29.6,0.1,53.7,24.5,53.7,54.1
		C339.1,261.2,315.1,285.2,285.3,285.2z M312,231.4c0-14.7-12.1-26.5-27-26.5c-14.9,0-26.8,11.9-26.7,26.7
		c0.1,14.6,12.4,26.8,26.8,26.7C299.9,258.2,312.1,245.8,312,231.4z"/>
	<path d="M197.8,249.5c20.9,0,38,17.1,38,37.9c0,21.2-17.4,38.5-38.5,38.2c-20.8-0.3-37.9-17.7-37.8-38.3
		C159.8,266.3,176.9,249.5,197.8,249.5z M197.8,276.6c-5.9,0-10.8,4.7-10.8,10.8c0,6,4.6,10.8,10.6,10.9c6,0.1,10.8-4.6,10.9-10.6
		C208.5,281.6,203.7,276.6,197.8,276.6z"/>
	<path d="M379.2,148.2c0.1,19.8-15.6,35.7-35.2,36c-19.5,0.3-35.7-15.9-35.8-35.4c0-19.8,15.6-35.7,35.2-36
		C362.9,112.5,379.1,128.6,379.2,148.2z M346.5,140.1c-7.8,0.3-10.9,3.2-10.9,8.4c0,4.7,2.7,8,7.7,8.3c5.3,0.3,9.1-2.9,8.6-7.8
		C351.5,145.4,347.8,142.3,346.5,140.1z"/>
</g>
</svg>
