<?xml version="1.0" encoding="utf-8"?>
<!-- Generator: Adobe Illustrator 19.0.0, SVG Export Plug-In . SVG Version: 6.00 Build 0)  -->
<svg version="1.1" id="Calque_1" xmlns="http://www.w3.org/2000/svg" xmlns:xlink="http://www.w3.org/1999/xlink" x="0px" y="0px"
	 viewBox="0 0 612 792" style="enable-background:new 0 0 612 792;" xml:space="preserve">
<g>
	<path d="M339.1,130.1c4.4,0,7.7,0,11,0c48,0,95.7-0.2,143.7,0c53.1,0.2,97.9,37.5,105.2,88.4c-13.2,2-26.2,4.8-39.3,5.9
		c-3.1,0.2-8.4-3.8-9.9-7.3c-11.2-27.8-32.2-38.6-61.1-38.4c-45.8,0.4-91.5,0-137.3,0c-3.7,0-7.1,0-10.8,0
		c-2.9,7.5-1.1,11.5,5.7,15.2c11.2,6,17.2,16.3,17.8,29.1c0.4,11,0.5,22,0,32.9c-0.4,6.8,2.2,8.8,8.8,9.2
		c47,3.3,85.8,37.9,94.4,84.2c1.6,8.4,2,17,2,25.4c0.2,78.3,0.2,156.8,0,235.2c-0.2,53.1-31.5,94.3-80.7,106.1
		c-8.4,2-17.6,2.7-26.2,2.9c-61.3,0.2-122.6,0.2-183.9,0c-61.3-0.2-106.9-45.4-107.1-107.1c-0.4-80,0-159.8-0.2-239.8
		c-0.2-66.6,52.2-106.3,98.3-107.2c5.7-0.2,7.1-2.7,7.1-7.9c-0.2-11-0.2-22,0.2-32.9c0.4-13.9,7.1-24,18.9-31.5
		c2.7-1.8,5.5-6.4,5.5-9.7c0.4-29.3,0.2-58.6,0.2-87.8c0.2-28.7,13.9-42.6,42.6-42.8c18.3-0.2,36.6-0.2,54.9,0
		c25.4,0.2,39.5,14.1,40.1,39.5C339.3,104.3,339.1,116.6,339.1,130.1z M119.7,491.2L119.7,491.2c0,40.8-0.4,81.8,0.2,122.6
		c0.4,32.2,22.7,56.2,54.9,56.6c63.7,0.9,127.6,0.9,191.3,0c32.6-0.5,54.5-24.9,54.7-57.8c0.2-26.2,0-52.5,0-78.7
		c0-54.9,0.2-109.8,0-164.7c-0.2-29.1-20.5-52.5-48.7-56.2c-4.2-0.5-8.4-2.2-11.2,4.2c-6.4,15-18.9,22-35,22.1
		c-37.2,0.2-74.5,0.2-111.6,0c-14.6-0.2-27.3-5.9-33.3-19.9c-3.3-7.3-7.7-7.3-13.5-6.2c-28.6,4.9-47.4,27.3-47.6,57.3
		C119.5,410.7,119.7,450.9,119.7,491.2z M225.3,237c0,18.7,0,36.1,0,53.3c30.6,0,60.2,0,90,0c0-18.1,0-35.5,0-53.3
		C284.9,237,255.3,237,225.3,237z M250.4,100.6c0,29.6,0,58.4,0,87.1c13.5,0,26.5,0,39.5,0c0-29.3,0-58,0-87.1
		C276.7,100.6,263.9,100.6,250.4,100.6z"/>
</g>
</svg>
