<?xml version="1.0" encoding="utf-8"?>
<!-- Generator: Adobe Illustrator 19.0.0, SVG Export Plug-In . SVG Version: 6.00 Build 0)  -->
<svg version="1.1" id="Calque_1" xmlns="http://www.w3.org/2000/svg" xmlns:xlink="http://www.w3.org/1999/xlink" x="0px" y="0px"
	 viewBox="0 0 612 792" style="enable-background:new 0 0 612 792;" xml:space="preserve">
<style type="text/css">
	.st0{fill:#B7B7B7;}
	.st1{fill:#E0E1E2;}
	.st2{fill:#FEFEFE;}
</style>
<g>
	<g>
		<path class="st0" d="M316.3,159c1,0,2,0,3,0c-0.5,3,2.1,3,3.8,3.7c14.2,5.8,23.7,15.8,27.5,30.7c0.9,3.4,2.8,5.5,5.4,7.3
			c14.5,9.6,29.2,19.1,43.6,28.9c26.2,18,52.3,36,77.9,54.8c3.7,2.7,7.4,4.3,12,3.2c1.8,0.1,3.6,0.3,5.5,0.3
			c7.7,0.1,10.1,2.4,10.6,10c0.3,5,0.9,10,2.5,14.7c7.5,22.4,23.8,33.2,46.7,34.9c4.5,0.3,8,1.7,10.6,5.4c0,47.7,0,95.3,0,143
			c-2.6,3.6-6,5.4-10.6,5.3c-3.5,0-7,0.6-10.4,1.3c-22.6,5.1-36.8,22.4-38.7,47.8c-0.3,4.6-1.8,8-5.3,10.6c-127.3,0-254.7,0-382,0
			c-3.6-2.6-5-6-5.3-10.6c-2-29-20.7-47.4-49.8-49.3c-7.5-0.5-9.9-3-9.9-10.7c0-21.5,0-43,0-64.5c0-22.7,0-45.3,0-68
			c0-5.7,2.1-9,6.4-9.9c2.4-0.5,4.9-0.9,7.4-1c19.8-1.3,36.5-14.1,43-32.9c2.1-5.9,1.9-12.1,3-18.2c1-5.5,3.5-7.8,9-8.1
			c1.8-0.1,3.7-0.3,5.5,0c5.7,0.8,10.1-1.3,14.7-4.6c39.8-28.6,79.8-56.8,121-83.2c2.4-1.5,3.7-3.4,4.4-6.2
			c4.2-16.5,14.7-27.2,30.8-32.5c1.4-0.5,3.7,0.1,3.7-2.5c0.7,0,1.3,0,2,0C308.3,160.6,312.3,160.7,316.3,159z M308.4,227.7
			c2.6,0.3,5.2,0.5,7.9-0.2c12-3.1,20-14.2,18.5-26c-2.1-16.2-10.2-24-25.4-24.1c-12.2-1.7-27.5,8.8-25.8,27.2
			C285.1,219.6,295.3,228.6,308.4,227.7z M270.3,220.9c-0.4-5.7-3.3-3-5.5-1.5c-30,19.8-59.5,40.3-88.8,61c-3,2.1-6.4,3.8-8.8,7.1
			c2.7,0.8,5,0.5,7.3,0.4c15.3,0,30.6,0.1,46,0.1c75.8,0,151.5,0,227.3-0.1c1.2,0,2.6,0.6,3.8-0.9c-0.6-0.5-1.2-1.1-1.9-1.6
			c-22.4-15.6-44.7-31.3-67.3-46.7c-8.9-6.1-17.4-12.8-27.1-17.7c-5.6-4.7-5.3-5.3-8.9,1.5c-3.3,6.2-7.8,11.3-13.9,15.2
			c-3.9,2.5-8.4,3.8-12.2,6.5c-14.4,2.7-27.3-0.1-38.6-9.7C277.1,230.7,274.3,225.3,270.3,220.9z M138.2,543.8
			c9.3,0.1,18.7,0.2,28,0.2c68.5,0,136.9,0,205.4,0c34.7,0,69.3,0,104,0.1c3.9,0,5.7-1.1,6.2-5.2c1.1-10.8,5.9-20.5,11.2-29.7
			c9.7-16.7,22.4-29.8,42.6-33.2c2.2-0.4,3.8-1.3,3.9-3.8c0.3-11.5,1-22.9,0.7-34.4c-0.2-8.4-0.3-16.9-0.1-25.2
			c0.3-11.1-0.9-22.2,0.4-33.3c0.1-0.5,0-1-0.1-1.5c-0.4-2.9-1.5-4.7-5-5c-9.9-0.7-18.1-5.6-25.3-11.9
			c-15.5-13.7-24.3-31.4-28.6-51.4c-0.7-3.4-2.3-4.6-5.8-4.6c-15,0.2-30,0.1-45,0.1c-68.5,0-136.9,0-205.4,0c-29,0-58,0.1-87,0.2
			c-8.2-0.5-7.9-0.5-10.2,7.3c-1.7,5.8-3.4,11.6-6.6,17c-10.8,17.7-25.9,29.2-46.2,33.8c-3.5,0.8-4.9,2.1-4.9,5.9
			c0.2,36.5,0.2,72.9,0,109.4c0,4.8,1.6,6.4,6.1,7.5c26.8,6.8,43.9,24,51.7,50.4C130.3,544.2,130.1,544.3,138.2,543.8z"/>
		<path class="st1" d="M324.3,159c0.3,1.4,1.3,1.8,2.5,2.1c17.9,4.6,28.3,16.6,33.2,33.8c0.7,2.5,2.1,4,4.1,5.3
			c16.9,11.2,33.9,22.3,50.6,33.8c24.4,16.8,48.5,34,72.7,51c1,0.7,1.8,1.5,2.1,2.7c-4.6,1.1-8.3-0.5-12-3.2
			c-25.6-18.8-51.7-36.8-77.9-54.8c-14.4-9.9-29.1-19.3-43.6-28.9c-2.7-1.8-4.5-3.9-5.4-7.3c-3.8-14.9-13.3-24.9-27.5-30.7
			c-1.7-0.7-4.3-0.7-3.8-3.7C321,159,322.6,159,324.3,159z"/>
		<path class="st1" d="M138.2,305.2c29-0.1,58-0.2,87-0.2c68.5,0,136.9,0,205.4,0c15,0,30,0.1,45-0.1c3.5,0,5,1.2,5.8,4.6
			c4.3,20,13.1,37.7,28.6,51.4c7.2,6.3,15.4,11.2,25.3,11.9c3.5,0.2,4.6,2.1,5,5c0.1,0.5,0.1,1,0.1,1.5c-1.3,11.1-0.1,22.2-0.4,33.3
			c-0.2,8.3-0.1,16.8,0.1,25.2c0.3,11.4-0.4,22.9-0.7,34.4c-0.1,2.5-1.7,3.4-3.9,3.8c-20.1,3.5-32.9,16.6-42.6,33.2
			c-5.4,9.2-10.1,18.8-11.2,29.7c-0.4,4.1-2.3,5.2-6.2,5.2c-34.7-0.1-69.3-0.1-104-0.1c-68.5,0-136.9,0-205.4,0
			c-9.3,0-18.7-0.1-28-0.2c-2.7-17.3-9.2-33-20.5-46.4c-9.5-11.3-20.6-20.5-36.3-21.4c-2.9-0.2-2.8-1.7-2.7-4
			c0.3-11.1,0.7-22.2,0.3-33.3c-0.4-8.4,0-16.9-0.2-25.3c-0.2-12.2,0.5-24.5-0.2-36.7c-0.1-2.6,0.5-3.7,3.1-3.8
			c10.7-0.5,19.5-5.4,27.2-12.3C125.6,345.9,134.1,326.7,138.2,305.2z M309.2,527c1.2,0,2.3,0,3.5,0c51,0,102,0,153,0.1
			c8.2,0,9.7-1.1,13.1-8.7c9.1-20.5,24-35.4,44.7-44.1c5.5-2.3,8.1-5.8,7.9-11.8c-0.2-9.4-0.1-18.9-0.1-28.3c0-15.8,0-31.6,0-47.4
			c0-7-1.3-9.1-7.7-11.8c-21.1-8.7-35.9-23.8-44.8-44.6c-2.7-6.2-6.6-8.5-13-8.4c-23.3,0.2-46.7,0.1-70,0.1
			c-81.5,0-162.9,0-244.4-0.1c-5.6,0-9,2.4-11.1,7.5c-9,21.5-24.3,36.7-45.8,45.7c-5.1,2.1-7.4,5.6-7.3,11.2
			c0.1,25.8,0.1,51.7,0,77.5c0,4.8,2,7.8,6.3,9.7c22.3,9.3,38,25.2,47.4,47.5c1.9,4.4,4.9,6.2,9.7,6.2
			C203.5,527,256.3,527,309.2,527z"/>
		<path class="st2" d="M138.2,305.2c-4,21.5-12.5,40.7-29.2,55.5c-7.7,6.8-16.6,11.8-27.2,12.3c-2.6,0.1-3.3,1.1-3.1,3.8
			c0.6,12.2,0,24.5,0.2,36.7c0.1,8.4-0.2,16.8,0.2,25.3c0.5,11.1,0,22.2-0.3,33.3c-0.1,2.4-0.1,3.9,2.7,4
			c15.7,0.9,26.8,10.1,36.3,21.4c11.3,13.4,17.8,29.1,20.5,46.4c-8.1,0.5-7.9,0.4-10.2-7.3c-7.8-26.4-24.8-43.6-51.7-50.4
			c-4.5-1.2-6.1-2.8-6.1-7.5c0.2-36.5,0.2-72.9,0-109.4c0-3.8,1.4-5.2,4.9-5.9c20.3-4.5,35.4-16.1,46.2-33.8
			c3.3-5.4,4.9-11.2,6.6-17C130.2,304.7,130,304.7,138.2,305.2z"/>
		<path class="st1" d="M270.3,220.9c-5.2,4.7-11.3,8.1-17,12c-26.1,17.8-52.1,35.6-77.7,54c-0.4,0.3-0.7,0.7-1.1,1
			c-2.3,0.1-4.6,0.5-7.3-0.4c2.4-3.3,5.8-5,8.8-7.1c29.3-20.7,58.8-41.2,88.8-61C267,217.9,269.9,215.2,270.3,220.9z"/>
		<path class="st1" d="M309.5,177.4c-0.5,0.9-1.3,1.4-2.3,1.8c-9.5,4.2-14.5,11.5-14.7,21.8c-0.3,11.1,3.1,20.3,14.3,25
			c0.7,0.3,1.2,1.1,1.7,1.7c-13.1,0.9-23.3-8-24.8-23.1C281.9,186.2,297.2,175.7,309.5,177.4z"/>
		<path class="st1" d="M355.3,221.1c-4.7,12.9-23.4,25.3-35,23.2c3.7-2.7,8.2-4,12.2-6.5c6.1-3.9,10.6-9,13.9-15.2
			C350,215.8,349.7,216.3,355.3,221.1z"/>
		<path class="st0" d="M309.2,527c-52.8,0-105.6,0-158.5,0c-4.8,0-7.8-1.8-9.7-6.2c-9.4-22.2-25.1-38.2-47.4-47.5
			c-4.4-1.8-6.4-4.9-6.3-9.7c0.1-25.8,0.1-51.7,0-77.5c0-5.6,2.2-9,7.3-11.2c21.5-8.9,36.8-24.2,45.8-45.7c2.1-5.1,5.5-7.5,11.1-7.5
			c81.3,0.3,162.8,0.3,244.3,0.3c23.3,0,46.7,0.1,70-0.1c6.4,0,10.3,2.2,13,8.4c8.9,20.7,23.8,35.9,44.8,44.6
			c6.4,2.6,7.7,4.8,7.7,11.8c0,15.8,0,31.6,0,47.4c0,9.4-0.1,18.9,0.1,28.3c0.1,6-2.4,9.5-7.9,11.8c-20.7,8.7-35.6,23.6-44.7,44.1
			c-3.4,7.6-4.9,8.7-13.1,8.7c-51,0-102,0-153-0.1C311.5,527,310.3,527,309.2,527z M309.8,339.1c-13,0-26,0-39,0
			c-36.8,0-73.6,0-110.4,0c-3,0-5.4,0.4-7,3.5c-10.4,19.9-25.7,35-45.5,45.6c-2.5,1.4-3.6,3.1-3.6,5.9c0.1,20.3,0.1,40.6,0,61
			c0,2.8,1,4.6,3.6,5.9c20,10.1,34.6,25.6,45.2,45.1c1.6,2.9,3.4,4,6.7,4c99-0.1,197.9-0.1,296.9,0.1c4.9,0,7.5-2,9.7-6.1
			c10-17.9,24-31.9,41.8-41.8c4.4-2.5,6.1-5.5,6.1-10.4c-0.1-19-0.2-38,0-57c0-3.7-1.5-5.6-4.6-7.3c-19-10.1-33.7-24.7-43.8-43.7
			c-2-3.7-4.2-4.8-8.2-4.8C408.4,339.1,359.1,339.1,309.8,339.1z"/>
		<path class="st1" d="M309.8,339.1c49.3,0,98.6,0,147.9-0.1c4,0,6.2,1.1,8.2,4.8c10.1,19,24.7,33.6,43.8,43.7
			c3.2,1.7,4.7,3.5,4.6,7.3c-0.2,19-0.2,38,0,57c0,4.9-1.7,7.9-6.1,10.4c-17.9,9.9-31.9,24-41.8,41.8c-2.3,4.1-4.8,6.1-9.7,6.1
			c-99-0.1-197.9-0.1-296.9-0.1c-3.2,0-5.1-1.1-6.7-4c-10.6-19.4-25.3-35-45.2-45.1c-2.6-1.3-3.6-3-3.6-5.9c0.1-20.3,0.1-40.6,0-61
			c0-2.8,1-4.6,3.6-5.9c19.8-10.5,35.1-25.6,45.5-45.6c1.6-3.1,4-3.5,7-3.5c36.8,0,73.6,0,110.4,0
			C283.8,339.1,296.8,339.1,309.8,339.1z M437.5,484c5.6,0.1,9.9-5.5,7.7-11.2c-4.4-11.1-9-22.2-13.6-33.2
			c-9.5-22.9-19-45.8-28.5-68.6c-1.5-3.6-4-6-8.3-6.1c-4.5-0.1-7.1,2.3-8.9,6c-0.7,1.5-0.9,3.2-1.6,4.7c-10.4,25-20.9,50-31.3,75
			c-3.1,7.4-6.2,14.7-9.1,22.1c-1.5,3.9,0,7.3,3,9.8c2.9,2.3,6.3,1.9,9.4,0.3c2.6-1.3,3.5-3.9,4.5-6.4c4.3-10.3,8.7-20.5,12.9-30.9
			c1.1-2.8,2.7-3.8,5.6-3.8c9.8,0.1,19.6,0.2,29.5,0c3.9-0.1,5.9,1.4,7.4,5.1c4,10.2,8.3,20.3,12.5,30.5
			C430.2,481.2,432.5,484.1,437.5,484z M200.1,467C200.1,467.1,200.1,467.1,200.1,467c-6.3,0.1-12.7-0.2-19,0.2
			c-5.2,0.3-9.1,4.9-8.6,9.2c0.6,4.8,5.9,8.5,10.9,8.1c8.6-0.6,17.2,0.1,25.8,0c6.3-0.1,12.2-0.6,18-2.7c16.6-6,26.4-25.8,20.4-41.9
			c-4.6-12.4-13.3-20.3-26.5-23.2c-5.3-1.2-10.6-0.3-15.9-0.7c-5.1-0.4-9.4-2.2-12.3-6.5c-4.1-6.2-4.5-12.8-1.2-19.4
			c3.2-6.3,8.7-8.2,15.4-8.1c8.3,0.1,16.7,0.2,25,0c5.1-0.1,9.2-4.5,9-8.9c-0.2-4.2-4.3-8-9.2-8.1c-9.2-0.1-18.3-0.3-27.5,0.1
			c-16.2,0.6-33,18.1-32.1,33.9c0.9,14.4,8.7,24.7,21.6,31.2c7,3.5,14.3,2.5,21.5,2.8c11,0.5,16.9,6.9,16.7,18.1
			c-0.2,10-6.4,15.8-17.2,15.9C210.1,467.1,205.1,467,200.1,467z M292.3,451.4L292.3,451.4c0-4.7,0.1-9.3,0-14
			c-0.2-14.8-0.2-14.1,14.9-13c7.3,0.6,15.2,0.8,22.5-2.6c12.6-6,20.6-20.1,17.4-33.3c-3.3-13.3-15.1-23.6-29.3-23.6
			c-10.5,0.1-21-0.1-31.5,0c-8.7,0-10.8,2.2-10.9,11c-0.5,30.6,1.2,61.2-0.9,91.8c-0.2,2.6-0.1,5.3,0.6,7.9c1.6,6.2,4.6,8.8,9.9,8.3
			c4.8-0.5,7.4-3.8,7.5-10.1C292.4,466.4,292.3,458.9,292.3,451.4z"/>
		<path class="st0" d="M437.5,484c-5,0.1-7.3-2.8-8.9-6.6c-4.2-10.1-8.5-20.2-12.5-30.5c-1.4-3.7-3.4-5.1-7.4-5.1
			c-9.8,0.2-19.6,0.1-29.5,0c-2.9,0-4.5,1-5.6,3.8c-4.2,10.3-8.5,20.6-12.9,30.9c-1,2.5-2,5-4.5,6.4c-3.2,1.6-6.5,2-9.4-0.3
			c-3.1-2.5-4.6-5.9-3-9.8c2.9-7.4,6-14.8,9.1-22.1c10.4-25,20.9-50,31.3-75c0.6-1.5,0.9-3.2,1.6-4.7c1.7-3.7,4.3-6.1,8.9-6
			c4.3,0.1,6.8,2.5,8.3,6.1c9.5,22.9,19,45.7,28.5,68.6c4.6,11.1,9.2,22.1,13.6,33.2C447.4,478.5,443.1,484.1,437.5,484z
			 M394.4,396.3c-3.7,8.8-7.2,16.8-10.5,24.8c-0.6,1.5-0.1,2.7,1.6,2.8c5.9,0.4,11.8,1.3,17.8,0.9c2.1-0.2,3.2-0.9,2.2-3.2
			C401.9,413.6,399.1,405.1,394.4,396.3z"/>
		<path class="st0" d="M200.1,467c5,0,10,0,15,0c10.8-0.1,17-5.9,17.2-15.9c0.2-11.2-5.7-17.6-16.7-18.1c-7.3-0.3-14.6,0.7-21.5-2.8
			c-13-6.6-20.8-16.8-21.6-31.2c-0.9-15.9,15.8-33.3,32.1-33.9c9.1-0.4,18.3-0.2,27.5-0.1c4.8,0.1,9,3.9,9.2,8.1
			c0.2,4.4-4,8.8-9,8.9c-8.3,0.2-16.7,0.1-25,0c-6.7-0.1-12.2,1.9-15.4,8.1c-3.3,6.6-2.9,13.2,1.2,19.4c2.9,4.3,7.2,6.1,12.3,6.5
			c5.3,0.4,10.6-0.5,15.9,0.7c13.2,2.9,21.9,10.8,26.5,23.2c5.9,16-3.8,35.9-20.4,41.9c-5.7,2.1-11.7,2.6-18,2.7
			c-8.6,0.1-17.2-0.6-25.8,0c-5,0.4-10.3-3.3-10.9-8.1c-0.6-4.3,3.4-8.9,8.6-9.2C187.5,466.9,193.8,467.1,200.1,467
			C200.1,467.1,200.1,467.1,200.1,467z"/>
		<path class="st0" d="M292.3,451.4c0,7.5,0.1,15,0,22.5c-0.1,6.3-2.7,9.6-7.5,10.1c-5.3,0.5-8.3-2.1-9.9-8.3
			c-0.7-2.7-0.8-5.3-0.6-7.9c2.1-30.6,0.4-61.2,0.9-91.8c0.1-8.8,2.2-11,10.9-11c10.5,0,21,0.1,31.5,0c14.2-0.1,26,10.3,29.3,23.6
			c3.3,13.2-4.8,27.3-17.4,33.3c-7.3,3.5-15.1,3.2-22.5,2.6c-15.1-1.1-15-1.8-14.9,13C292.3,442.1,292.3,446.7,292.3,451.4
			L292.3,451.4z M308.2,382L308.2,382c-4,0-8,0-12,0c-2.7-0.1-3.9,1.1-3.9,3.8c0.1,5.8,0.1,11.6,0,17.4c0,2.8,1.1,3.8,3.8,3.9
			c6.5,0.1,12.9,0.5,19.4,0.8c2.7,0.1,5.3-0.4,7.8-1.4c5.7-2.4,8.2-8.1,6.9-15.5c-0.8-5-5.3-8.7-11.1-8.9
			C315.5,381.9,311.8,382,308.2,382z"/>
		<path class="st1" d="M394.4,396.3c4.7,8.7,7.5,17.2,11.1,25.4c1,2.2-0.1,3-2.2,3.2c-6,0.5-11.9-0.5-17.8-0.9
			c-1.8-0.1-2.3-1.3-1.6-2.8C387.3,413.1,390.7,405.1,394.4,396.3z"/>
		<path class="st1" d="M308.2,382c3.7,0,7.3-0.1,11,0c5.8,0.2,10.3,3.9,11.1,8.9c1.3,7.4-1.2,13.1-6.9,15.5
			c-2.5,1.1-5.1,1.5-7.8,1.4c-6.5-0.3-12.9-0.6-19.4-0.8c-2.7-0.1-3.9-1.1-3.8-3.9c0.1-5.8,0.1-11.6,0-17.4c0-2.8,1.2-3.9,3.9-3.8
			C300.2,382,304.2,382,308.2,382L308.2,382z"/>
	</g>
</g>
</svg>
