<?xml version="1.0" encoding="utf-8"?>
<!-- Generator: Adobe Illustrator 19.0.0, SVG Export Plug-In . SVG Version: 6.00 Build 0)  -->
<svg version="1.1" id="Calque_1" xmlns="http://www.w3.org/2000/svg" xmlns:xlink="http://www.w3.org/1999/xlink" x="0px" y="0px"
	 viewBox="0 0 612 792" style="enable-background:new 0 0 612 792;" xml:space="preserve">
<style type="text/css">
	.st0{fill:#37474F;}
	.st1{fill:#384850;}
	.st2{fill:#38474F;}
	.st3{fill:#38484F;}
	.st4{fill:#FDD34F;}
</style>
<g>
	<path class="st0" d="M347.6,326c-33.6,0.1-61.2-27.5-61.4-61.4c-0.1-33.5,27.8-61.5,61.3-61.5c33.2,0,61.3,27.4,61.5,59.7
		C409.2,298.5,382.5,325.9,347.6,326z"/>
	<path class="st0" d="M160.5,510.2c-10,0-18.8,0-27.6,0c-5.6,0-8.1-1.8-8.2-5.8c-0.1-4.1,2.7-6.3,8.4-6.3c49,0,97.9,0,146.9,0.1
		c3.7,0,6-1,8.2-4.1c7.3-10.3,15-20.4,22.5-30.6c3.1-4.1,6.6-5.2,9.6-2.8c3.1,2.4,3.2,5.6-0.1,10c-7.4,10.1-14.7,20.1-22.4,30
		c-2.1,2.8-2.4,4.8-0.5,7.8c5.6,9.2,11,18.6,16.3,28c2.5,4.3,1.6,8.1-2.2,9.7c-3.9,1.6-6.3-0.3-8.2-3.6c-5.5-9.7-11.2-19.3-16.6-29
		c-1.5-2.6-3.1-3.7-6.2-3.7c-34,0.1-68,0.1-101.9,0c-3.4,0-5,1.3-6.5,4c-5.3,9.4-10.7,18.8-16.2,28.1c-2.7,4.6-5.9,6-9.3,3.7
		c-3.9-2.7-3.2-6.1-1.2-9.6C150.4,528,155.2,519.5,160.5,510.2z"/>
	<path class="st1" d="M300.6,175.7c2.1-0.1,3.9,1.2,5.1,3.4c2.4,4.2,4.8,8.3,7.2,12.5c1.9,3.5,1.1,6.5-2.4,8.4
		c-3.4,1.9-6.1,0.5-8-2.6c-2.6-4.2-5.1-8.5-7.4-12.9C292.9,180.2,295.5,175.8,300.6,175.7z"/>
	<path class="st1" d="M259.5,270.1c-2.5,0-5,0.1-7.5,0c-3.5-0.1-5.7-2-6-5.4c-0.3-3.5,1.7-6.1,5-6.3c5.8-0.4,11.6-0.4,17.3,0.1
		c3.1,0.2,4.9,2.7,4.7,6c-0.2,3.5-2.2,5.5-5.7,5.6C264.8,270.2,262.2,270.1,259.5,270.1C259.5,270.1,259.5,270.1,259.5,270.1z"/>
	<path class="st2" d="M354,176.9c0,2.5,0.1,5,0,7.5c-0.2,3.5-2.1,5.6-5.6,5.8c-3.8,0.2-6.1-1.9-6.3-5.6c-0.3-5.3-0.3-10.6,0-15.9
		c0.2-3.4,2.4-5.6,5.8-5.6c3.7,0,5.8,2.1,6,5.9C354.2,171.5,354,174.2,354,176.9z"/>
	<path class="st1" d="M388,201.1c-3.9-0.1-6.9-4.1-5.3-7.6c2.6-5.3,5.6-10.5,8.9-15.4c1.6-2.4,4.4-2.8,7.1-1.2
		c2.7,1.7,4.2,4.2,2.7,7.1c-2.6,5.2-5.6,10.1-8.6,15C391.8,200.6,389.9,201.2,388,201.1z"/>
	<path class="st1" d="M436.2,312.6c0,4.5-4.1,7.5-7.9,5.7c-5.1-2.5-10-5.3-14.7-8.4c-2.6-1.7-3.3-4.6-1.6-7.5c1.5-2.6,4-4.1,6.7-2.8
		c5.3,2.7,10.5,5.8,15.6,8.9C435.7,309.4,436.3,311.1,436.2,312.6z"/>
	<path class="st1" d="M353.2,352.6c0,2.7,0.1,5.3,0,8c-0.2,3.5-2.2,5.4-5.8,5.6c-3.4,0.1-5.6-1.8-5.9-4.9c-0.4-5.6-0.4-11.3,0-17
		c0.2-3.3,2.8-5.4,6.3-5.1c3.5,0.3,5.3,2.5,5.5,6C353.3,347.6,353.2,350.1,353.2,352.6z"/>
	<path class="st3" d="M435.7,259c2.5,0,5-0.1,7.5,0c3.6,0.2,6,2.1,6,5.9c0,3.8-2.2,5.8-5.9,5.9c-5,0.1-10,0.1-15,0
		c-3.7-0.1-6.1-2.2-6-5.9c0-3.7,2.3-5.8,6-6C430.7,258.9,433.2,259,435.7,259z"/>
	<path class="st1" d="M411.7,224c0-1.6,1.1-3.3,3.1-4.5c4.3-2.5,8.6-5,12.9-7.4c3.3-1.8,6.2-1,8.2,2.1c2,3.2,1,6.2-2.1,8.1
		c-4.5,2.8-9,5.5-13.7,7.9C416,232.1,411.7,229.1,411.7,224z"/>
	<path class="st3" d="M299.4,353.1c-4.4,0-7.1-4.4-5.1-8.6c2.3-4.8,5.1-9.4,7.9-13.8c1.7-2.6,4.4-3.5,7.4-2c3.2,1.6,4.4,4.5,2.9,7.5
		c-2.5,5.1-5.5,9.8-8.5,14.6C303.1,352.6,301.3,353.2,299.4,353.1z"/>
	<path class="st3" d="M387.7,328.6c2.4,0,4.1,1.2,5.3,3.2c2.4,4.2,4.8,8.3,7.2,12.5c1.9,3.4,1.4,6.6-2.1,8.5
		c-3.3,1.9-6.2,0.6-8.1-2.5c-2.6-4.2-5.2-8.5-7.5-12.9C380.2,333,383,328.6,387.7,328.6z"/>
	<path class="st2" d="M277.2,230c-5.4-2.8-11.9-5.5-17-10.3c-1.8-1.7-1.5-4.3,0-6.5c1.5-2.2,3.7-3.3,6-2.4
		c5.9,2.3,11.3,5.5,16.4,9.3c2,1.5,2.1,4.2,1.1,6.4C282.6,228.9,280.7,230.1,277.2,230z"/>
	<path class="st2" d="M258.8,311.3c0-1.7,1-3.2,2.6-4.2c4.4-2.6,8.8-5.3,13.4-7.7c3.2-1.6,6.3-1,8.2,2.3c1.9,3.4,0.7,6.2-2.4,8.1
		c-4.2,2.6-8.5,5.2-13,7.4C263.1,319.5,258.4,316.5,258.8,311.3z"/>
	<path class="st4" d="M397,265c0.7,25.6-21.9,50.2-51.6,49.2c-25.6-0.9-47.5-23.4-47.4-50.1c0.1-26.9,22.8-49.2,50.1-48.9
		C376.6,215.3,398,239.3,397,265z"/>
</g>
</svg>
