<?xml version="1.0" encoding="utf-8"?>
<!-- Generator: Adobe Illustrator 19.0.0, SVG Export Plug-In . SVG Version: 6.00 Build 0)  -->
<svg version="1.1" id="Calque_1" xmlns="http://www.w3.org/2000/svg" xmlns:xlink="http://www.w3.org/1999/xlink" x="0px" y="0px"
	 viewBox="0 0 612 792" style="enable-background:new 0 0 612 792;" xml:space="preserve">
<g>
	<g>
		<path d="M588,460c0,5.3,0,10.7,0,16c-1.2,5.5-2.1,11-3.6,16.4c-8.1,29.3-26.4,51.7-49.8,70c-45,35.3-97.5,51.4-153.4,58.5
			c-10,1.3-20.2,2-30.3,3c-13,0-26,0-39,0c-1.5-0.3-2.9-0.6-4.4-0.8c-21.7-3.1-43.7-4.9-65.1-9.4c-40.8-8.6-78.8-24.4-112-50.3
			c-23.8-18.6-42.7-41.1-51-70.9c-1.5-5.4-2.4-11-3.6-16.5c0-5.3,0-10.7,0-16c5.6-19.7,20.1-31.5,37-41.1c3.8-2.1,7.5-4.8,11.5-5.8
			c9.8-2.6,12.2-8.4,11.6-18.1c-0.7-10.5-0.7-21.5,1.6-31.8c6.1-28,30.3-45.8,60.5-45.9c57.7-0.1,115.3,0,173,0c1.9,0,3.8,0,5.9,0
			c-0.8-4.8-1.8-8.9-2-13c-0.2-3.3-1.4-4.1-4.5-4.3c-20.6-1.7-37.3-18.9-38.4-39.4c-1.2-21.3,13.4-40.5,33.8-44.5
			c21.2-4.2,42,7.5,49,27.6c0.7,2,1.3,4.1,1.9,6c38.7-5.8,70,30.1,57.6,67.8c0.6,0.2,1.2,0.4,1.9,0.5c26.9,4,46.6,22.8,51,49.6
			c1.5,9,1.6,18.4,0.7,27.4c-1,9.7,2.4,14.3,11.4,18.3C561,422.8,580.6,435.3,588,460z M136.4,426.1c-14.3,6.7-26.6,13.1-36.1,23.9
			c-9.9,11.2-10,22.7,0.6,33.3c6.4,6.3,13.9,11.9,21.8,16.4c19.9,11.4,41.8,18,64,23.4c40.3,9.8,81.3,14.1,122.7,15.3
			c56.7,1.7,112.8-2.2,168.1-15.4c24.2-5.8,47.8-13.3,69.2-26.4c8-4.9,15.4-10.5,20.5-18.6c4.7-7.5,5.1-15.1,0.3-22.6
			c-9.3-14.4-23.9-21.5-39.3-29c0,3.6,0.1,6.2,0,8.9c-0.2,6.3,0.3,12.8-0.7,18.9c-4.9,29.9-29.2,50.5-59.7,50.7
			c-35,0.2-70,0.1-105,0.1c-55.5,0-111,0.1-166.4-0.1c-30.6-0.1-54.8-20.3-59.7-50.5C135.2,445.6,136.4,436.4,136.4,426.1z
			 M331.5,402.6L331.5,402.6c37.3,0,74.7,0,112,0c4.7,0,9.3,0,14-0.5c20.3-2.2,37.2-21.6,36.6-41.6c-0.2-5.1-3.5-8.8-8.2-8.9
			s-8.3,3.2-8.8,8.4c-1.7,16.8-11.1,25.6-27.8,25.6c-78,0-156,0-234,0c-3.3,0-6.7-0.3-9.9-1.1c-10.8-3-17.4-11.6-18.4-24
			c-0.5-5.6-3.9-9-8.8-8.9c-4.9,0.2-8.3,3.9-8.1,9.4c0.2,3.6,0.6,7.3,1.6,10.8c5.6,19.2,21.9,30.8,43.4,30.8
			C253.8,402.6,292.7,402.6,331.5,402.6z M425.7,317.3c6.5,0,13,0,19.5,0c11.7,0,12.9-1.1,14.6-12.8c0.1-1,0.2-2,0.2-3
			c0.7-24.1-22.8-41.2-45.6-33.2C404,272,400,269,400.1,257.8c0-1.8-0.1-3.7-0.4-5.5c-3.1-13.9-16.8-22.5-30.8-19.4
			c-13.6,3-22.3,16.8-19.2,30.4c3.3,14.1,16.7,22.4,30.8,19.2c9.1-2.1,13.7,2.4,11.9,11.7c-1.3,6.7-0.5,13.2,2.1,19.6
			c1.1,2.7,2.7,3.7,5.6,3.6C408.7,317.2,417.2,317.3,425.7,317.3z"/>
		<path d="M304,130c1.4,0.5,2.7,1.1,4.1,1.6c16,5.2,26.2,21.2,23.6,37.2c-2.7,17.3-17.1,29.4-34.5,29.3c-16.5-0.2-31.1-12.9-33.2-29
			c-2.2-17.2,7.8-32.8,24.3-37.8c1.2-0.4,2.4-0.9,3.7-1.3C296,130,300,130,304,130z"/>
		<path d="M76,303c0.6-1.5,1.2-3,1.7-4.6c5.3-16.1,21.4-26,37.9-23.2c16.5,2.7,28.5,16.9,28.5,33.6c0.1,17.2-11.9,31-29.3,33.9
			c-15.7,2.6-31.8-7.4-37.1-23.1c-0.5-1.5-1.2-3-1.8-4.5C76,311,76,307,76,303z"/>
		<path d="M289.2,258.2c-0.3,23.9-19.6,42.4-43.6,42c-23.5-0.4-42-19.8-41.7-43.5c0.4-23.3,20.1-42.1,43.6-41.6
			C270.9,215.6,289.6,235,289.2,258.2z"/>
	</g>
</g>
</svg>
