<?xml version="1.0" encoding="utf-8"?>
<!-- Generator: Adobe Illustrator 19.0.0, SVG Export Plug-In . SVG Version: 6.00 Build 0)  -->
<svg version="1.1" id="Calque_1" xmlns="http://www.w3.org/2000/svg" xmlns:xlink="http://www.w3.org/1999/xlink" x="0px" y="0px"
	 viewBox="0 0 612 792" style="enable-background:new 0 0 612 792;" xml:space="preserve">
<g>
	<g>
		<path d="M263.4,566.4c-32.5-0.3-59.7-4.6-85.3-16.1c-61.9-27.8-87.1-89.5-62.4-152.8c15.1-38.7,41.2-69,74.1-93.6
			c49.8-37.2,105.7-57.9,168.1-59.7c34.6-1,68.1,5,98.5,22.6c31.1,18,51.1,44.3,57.1,80.1c4.5,26.7-0.9,52-12.2,76.2
			c-17.4,37.3-44.6,66-77.9,89.3c-40.3,28.2-84.9,45.5-133.7,51.8C279.5,565.7,269.1,566,263.4,566.4z M263.9,541.6
			c6.2-0.6,17.5-1.2,28.7-2.9c54.4-8.5,102.4-30.8,143-68.1c22.7-20.8,40.5-45.1,49.6-74.9c13.8-45-2.6-86-43.8-108.7
			c-23.5-13-49.1-18.2-75.5-17.9c-70.2,0.6-131,25.4-182.5,72.8c-21.5,19.8-38.1,43.2-47.1,71.4c-15.2,47.8,3.8,91.5,49.1,113.2
			C208.7,537.5,233.4,541.3,263.9,541.6z"/>
		<path d="M298.2,218.7c-28.3,0.2-51.9-22.8-52.1-50.9c-0.3-29.1,22.9-52.7,51.9-52.8c28.1-0.1,51.7,23.2,51.9,51.3
			C350.1,195.1,327,218.5,298.2,218.7z M297.6,201c18.7,0.3,34.3-14.8,34.5-33.4c0.2-19-14.7-34.4-33.7-34.8
			c-18.3-0.3-34.1,14.8-34.4,33C263.5,185.3,278.3,200.7,297.6,201z"/>
		<path d="M188.1,223.9c-20.1-0.3-35.5-16.1-35.2-36.3c0.3-19.6,16.5-35.2,36.2-34.9c19.5,0.4,35.2,16.7,34.9,36.3
			C223.6,208.5,207.4,224.1,188.1,223.9z M206.1,188.4c0.1-9.8-7.8-17.8-17.6-17.8c-10.1-0.1-18.1,8-18,18
			c0.1,9.8,8.2,17.7,17.9,17.6C198.3,206.2,206,198.3,206.1,188.4z"/>
		<path d="M130.9,247.7c19.2,0,34.2,15.1,34.1,34.3c-0.1,18.5-15.3,33.6-33.8,33.7c-19,0.1-34.2-15.3-34.2-34.4
			C97.1,262.8,112.3,247.6,130.9,247.7z M130.9,297.8c9,0.1,16.2-7,16.4-15.9c0.1-9.1-6.8-16.3-15.8-16.5
			c-9.4-0.1-16.5,6.8-16.6,16.1C114.8,290.5,121.9,297.7,130.9,297.8z"/>
		<path d="M418.3,214.9c-16.8,0-30.3-13.5-30.2-30c0.1-16.4,13.5-29.8,29.9-30c16.5-0.2,30.1,13.4,30.1,30.1
			C448.1,201.6,434.7,214.9,418.3,214.9z M430.3,184.8c-0.1-6.7-5.4-12-12.1-12s-12.3,5.7-12.2,12.5c0.1,6.7,5.5,12,12.2,12
			C425,197.2,430.4,191.8,430.3,184.8z"/>
		<path d="M396.9,288.3c-1.7,8.5-3.2,16.2-4.8,24.3c-39.8-6.6-77.4,0.6-114.3,15.8c-3.3-7.6-6.4-14.8-9.9-22.8
			C309.4,288.5,351.8,280.8,396.9,288.3z"/>
		<path d="M224.5,522.2c1.7-8.7,3.2-16.4,4.8-24.4c39.9,6.6,77.5-0.7,114.3-15.8c3.2,7.5,6.4,14.8,9.9,22.7
			C312,522,269.8,529.5,224.5,522.2z"/>
		<path d="M252.2,387.9c0.1,15.5-12,27.7-27.3,27.8c-15.3,0.1-27.8-12.2-27.8-27.4c-0.1-15.4,12-27.7,27.4-27.7
			C239.9,360.5,252.1,372.5,252.2,387.9z M224.3,397.9c5.5,0.2,10-4,10.2-9.4c0.2-5.4-4-10-9.5-10.2s-10,3.9-10.2,9.4
			C214.7,393.3,218.8,397.7,224.3,397.9z"/>
		<path d="M298.2,392.5c14.3,0.1,25.8,11.6,25.7,25.8c-0.1,14.3-11.5,25.6-25.9,25.7c-14.5,0-26.1-11.6-25.9-26.1
			C272.3,403.6,283.8,392.4,298.2,392.5z M297.9,410.1c-4.3,0-7.9,3.5-8,7.9c-0.1,4.5,3.6,8.3,8.1,8.3s8.2-3.9,8-8.4
			C305.9,413.7,302.2,410.1,297.9,410.1z"/>
	</g>
</g>
</svg>
