<?xml version="1.0" encoding="utf-8"?>
<!-- Generator: Adobe Illustrator 19.0.0, SVG Export Plug-In . SVG Version: 6.00 Build 0)  -->
<svg version="1.1" id="Calque_1" xmlns="http://www.w3.org/2000/svg" xmlns:xlink="http://www.w3.org/1999/xlink" x="0px" y="0px"
	 viewBox="0 0 612 792" style="enable-background:new 0 0 612 792;" xml:space="preserve">
<style type="text/css">
	.st0{fill:#F2ADD7;}
	.st1{fill:#C880B0;}
	.st2{fill:#CA65A0;}
	.st3{fill:#AE528B;}
	.st4{fill:#F2ADD8;}
</style>
<path class="st0" d="M-468.8,120.3c-16,0-31.6,1.5-46.8,4.3c-3.8,0.6-7.5,1.4-11.2,2.3c-0.7,0.2-1.4,0.3-2,0.5
	c-0.5,0.1-0.9,0.2-1.4,0.3c-0.1,0-0.3,0.1-0.4,0.1c-1.4,0.3-2.7,0.7-4.1,1c-8.2,2.1-16.4,4.5-24.3,7.7
	c-97.8,36.6-167.4,130.8-167.4,241.4c0,142.3,115.3,257.6,257.6,257.6S-211.1,520.2-211.1,378S-326.5,120.3-468.8,120.3z"/>
<path class="st1" d="M-449.8,122c6.5,1.9,13.3,1.8,20,2.8c34.3,5.3,66.1,17.1,95.6,35.2c30.7,19,56.4,43.4,76.7,73.2
	c21.9,32,36,67.2,41.7,105.7c1.1,7.3,2,14.7,3,22.1c0,11.3,0,22.7,0,34c-1,7.2-1.9,14.4-2.9,21.6c-6.3,42.6-22.6,81.1-48.5,115.4
	c-30.9,40.9-70.7,70.1-118.9,87.4c-21.1,7.6-43,12.4-65.5,13.7c-5.6,0-11.3,0-16.9,0c67.1-9.6,123.2-39.2,166.7-91.2
	c43.7-52.2,63.1-112.9,59-180.6c-7.2-117.7-96.7-221.7-225.9-237.8c2.9-1.5,6.4,0.7,9-1.5C-454.5,122-452.1,122-449.8,122z"/>
<g>
	<path class="st2" d="M-470.7,598.9c-18.2-0.1-36-2.7-53.6-7.2c-28.3-7.4-54.3-19.9-77.5-37.7c-32.5-24.9-56.8-56.3-72-94.4
		c-8.7-21.7-13.4-44.3-15.2-67.6c-2.8-38,4.8-73.9,20.5-108c9.8-21.2,23-40.3,39.3-57.4c30-31.6,66.1-52.6,108.3-63
		c16.4-4.1,33.2-6.5,50.2-6.5c4.1,1.6,8.5,1.2,12.7,2c41.2,7.3,77.6,24.6,109,52.2c33.3,29.3,55.8,65.3,67.7,108
		c6.5,23.2,9.1,46.8,7.7,70.7c-3,50.5-21.1,95.1-54.3,133.5c-19.3,22.4-42.3,39.9-68.7,53.1c-22.5,11.3-46.3,18.7-71.4,21.3
		C-468.9,598.1-469.9,598.2-470.7,598.9z"/>
	<path class="st3" d="M-470.7,598.9c1.5-3.4,5-2.2,7.3-2.6c22.1-3.1,43.1-9.6,63.1-19.2c18.6-8.9,35.6-20.4,51.2-34.1
		c18-15.9,32.9-34.1,44.9-54.9c12.2-21.2,20.8-43.7,25.6-67.7c3.6-18.4,5-36.9,3.8-55.5c-1.6-24.8-6.8-48.8-16.7-71.8
		c-7.7-18-17.2-34.8-29.2-50.2c-18.2-23.5-40.4-42.4-66.3-57.2c-22.3-12.8-46.2-20.8-71.4-25.5c-3.2-0.6-6.5-0.9-9.8-1.3
		c-1.3-0.1-2.3-0.3-2.4-1.9c1,0,2,0,2.9,0c4.3,1.1,8.8-0.4,13.1,0.8c41.3,2.1,78.6,15.6,112.4,39.2c31.6,22.1,55.8,50.6,72.6,85.4
		c10.6,22,17.2,45.1,20.1,69.5c4.6,37.6-0.5,73.9-14.5,108.8c-10.3,25.7-25.2,48.6-44.4,68.8c-26,27.3-56.8,46.9-92.6,58.6
		c-17.4,5.7-35.2,9.4-53.6,9.9c-4.6,1.2-9.4-0.3-14.1,0.8C-469.4,598.9-470.1,598.9-470.7,598.9z"/>
</g>
<path class="st2" d="M-468.8,598.9c4.6-1.8,9.4-0.5,14.1-0.8C-459.3,599.9-464.1,598.8-468.8,598.9z"/>
<path class="st2" d="M-454.7,157.9c-4.4-0.3-8.8,1-13.1-0.8C-463.4,157.3-459,156-454.7,157.9z"/>
<path class="st0" d="M-379.7,346c17.1,1.4,33.6,3.9,46.1,17.5c7.8,8.5,7.9,20.4,0,28.8c-10.1,10.8-23,14.9-37.2,16.8
	c-13,1.7-25.5,0.1-37.6-4.2c-8-2.9-15.5-6.9-20.6-14.2c-6.9-10-6.1-19.8,2.5-28.4c9.5-9.4,21.4-13.8,34.4-15.2
	C-388,346.7-384,345.4-379.7,346z"/>
<path class="st4" d="M-500.8,467.1c0.6-15.8,3.4-30.4,12.9-43.1c10.7-14.2,27.9-14.2,38.3,0.4c10.5,14.7,13.6,31.2,12,49
	c-1,11.5-3.7,22.2-10,31.9c-10.5,15.9-26.4,18.9-38.9,4.8c-5.3-6-8.8-12.9-10.9-20.5C-499.5,482.2-500.6,474.4-500.8,467.1z"/>
<path class="st0" d="M-500.8,289c0.9-11.9,2.4-23.7,8.2-34.5c2.9-5.4,6.9-9.9,11.6-13.6c9.1-7.2,21.6-4.8,30.4,5.5
	c7.4,8.6,10.8,18.9,12.5,29.9c3,19.4,0.6,37.9-10.6,54.3c-10.5,15.4-28.4,16.7-40.2-0.1c-6.7-9.6-10.3-20.4-10.8-32.1
	C-500,295.3-501.3,292.3-500.8,289z"/>
<path class="st0" d="M-557.9,409.9c-13.6-1-27.1-2.9-38.7-10.8c-17.7-12.1-17.7-30-0.1-42.1c7.5-5.2,16-8,24.9-9.4
	c18.4-3,36-1,52.5,8.3c3.8,2.1,7.1,4.9,9.9,8.3c9.8,11.9,5,25.8-6.1,33.6c-9.8,6.9-20.8,10.9-33,11.4
	C-551.6,409.2-554.7,410.6-557.9,409.9z"/>
</svg>
