<?xml version="1.0" encoding="utf-8"?>
<!-- Generator: Adobe Illustrator 19.0.0, SVG Export Plug-In . SVG Version: 6.00 Build 0)  -->
<svg version="1.1" id="Calque_1" xmlns="http://www.w3.org/2000/svg" xmlns:xlink="http://www.w3.org/1999/xlink" x="0px" y="0px"
	 viewBox="0 0 612 792" style="enable-background:new 0 0 612 792;" xml:space="preserve">
<style type="text/css">
	.st0{fill:#70BF84;}
	.st1{fill:#26AC5F;}
	.st2{fill:#1C8948;}
	.st3{fill:#385B50;}
	.st4{fill:#527E71;}
	.st5{fill:#537F72;}
	.st6{fill:#395C51;}
	.st7{fill:#4D8057;}
	.st8{fill:#4C7F56;}
	.st9{fill:#1C8848;}
</style>
<g>
	<path class="st0" d="M96.4,587.4c0-5.3,0.1-10.6,0.1-15.9c0-1.4-0.1-2.7-0.1-4.1c0-5.3,0.1-10.6,0.1-15.9c0-1.4-0.1-2.7-0.1-4.1
		c0-5.3,0.1-10.6,0.1-15.9c0-1.4-0.1-2.7-0.1-4.1c0-5.3,0.1-10.6,0.1-15.9c0-1.4-0.1-2.7-0.1-4.1c0-5.3,0.1-10.6,0.1-15.9
		c0.1-1.7,0.4-3.5-0.5-5.1c0-4-0.4-8-1.5-11.9c-0.6-1.7-0.5-3.6-1.7-5.1c-0.6-4.3-2.4-8.2-4.7-11.8c-0.2-0.7-0.4-1.4-0.6-2.2
		c0.3-0.4,0.7-0.7,1-1.1c1.2,1.7,3,1.1,4.6,1.1c6.8,0,13.6,0,20.4,0c14.9,0.1,29.8,0.2,44.7,0.4c-1.2,3.2-2.3,6.4-3.5,9.6
		c-1.3,2.2-2,4.5-2.1,7c-2.3,5.8-2.8,11.9-2.8,18c0,1.7,0,3.4,0.1,5c0,5,0,10-0.1,15c0,1.7,0,3.4,0.1,5c0,7.6-1,15.2,0.6,22.8
		c-1.1,5-0.9,10-0.9,15c0,5.7,0.1,11.4,0.1,17.1c0,1.7,0,3.4,0.1,5c0,5,0,10-0.1,15c0,1.7,0,3.4,0.1,5c-0.8,4.7,0.4,9.3,1,14
		c0.3,1.3,0.7,2.7,1,4c1,9.1-2.7,15.5-11.2,19c-12,0-24,0-36,0c-4.9-3.2-9.5-6.5-10.3-13.1c-0.3-2.1,0.5-3.9,0.2-5.9
		c0.1-2,1.5-3.9,0.9-6c1.1-5.3,1.4-10.6,1-16C96.4,590.1,96.4,588.8,96.4,587.4z"/>
	<path class="st0" d="M94.5,268.4c1.6-5.5,2.2-11.2,2-17c0-1.7-0.1-3.4-0.1-5.1c0-3.3,0.1-6.7,0.1-10c0.1-0.4,0.1-0.7,0.2-1.1
		c0.4-4.7-0.5-9.4-0.8-14.1c1.8-4.9,0.6-9.9,0.6-14.8c0-5,0.1-10,0.1-14.9c0-1.7-0.1-3.4-0.1-5.1c0-5,0.1-10,0.1-14.9
		c0-1.7-0.1-3.4-0.1-5.1c0.3-5,0.5-9.9-0.1-14.9c0.4-1.5-0.1-2.8-0.7-4.1c0.5-4.5-1.4-8.6-2-13c0.3-2,0.7-4,1-6c1.8-3.6,5-5.8,8.1-8
		c13.7,0,27.3,0,41,0c8.3,5,10.5,12,7.5,21.2c-0.9,2.8-0.8,5.9-1.2,8.9c-0.6,1.6-0.4,3.3-0.1,5c0,5,0,10-0.1,15c0,1.7,0,3.4,0.1,5
		c0,5,0,10-0.1,15c0,1.7,0,3.4,0.1,5c0,5,0,10-0.1,15c0,1.7,0,3.4,0.1,5c0,5,0,10-0.1,15c0,1.7,0,3.4,0.1,5c0,5,0,10-0.1,15
		c0,1.7,0,3.4,0.1,5c0.3,4.4,0.3,8.8,1.8,13c-0.2,1.5,0.2,2.8,1.1,4c0.5,4.3,2.4,8.1,4.1,11.9c0.6,1,1.1,2.1,1.7,3.1
		c-0.1,0.8-0.1,1.6-0.9,2c-0.9-1.3-2.4-1-3.7-1c-20.5,0-41,0-61.4,0c-1.4,0-3.1-0.4-4.1,1.1c-1.8-2.5,0.8-4.2,1.4-6.2
		c0.8-2.7,2.4-5.1,2.7-7.9C93.7,273.3,94.5,271,94.5,268.4z"/>
	<path class="st1" d="M279.6,120.5c13.3,0,26.7,0,40,0c4.5,2.5,8.2,5.6,9.2,11c0,1.7,0,3.4,0,5c-1.4,5.6-2.8,11.2-2.2,17
		c0,1.7,0,3.3,0,5c0,5,0,10-0.1,15c-0.1,4.3-0.3,8.6-0.4,13c0.9,4.4,0.1,8.9,0.5,13.3c-0.5,4.6-0.4,9.1,0,13.7
		c0.1,1.7,0.2,3.4,0.3,5.1c0.8,4.6,1.2,9.2,3.4,13.4c0.3,0.9,0.5,1.7,0.8,2.6c0.5,3.5,3.3,6.2,3.4,9.9c-23.3,0-46.5,0-69.8,0
		c-0.3-3.4,2.8-5.8,2.8-9.1c3.1-6.3,4.5-13,4.9-20c0-1.7,0-3.3,0-5c0-5,0-10,0.1-15c0-1.7,0-3.3-0.1-5c0-5,0-10,0.1-15
		c0-1.7,0-3.3-0.1-5c0-5,0-10,0.1-15c0-1.7-0.1-3.3-0.1-5c0.5-4.5-0.8-8.7-2-13c-0.1-1.7-0.1-3.4-0.2-5
		C271,126.6,274.8,123.1,279.6,120.5z"/>
	<path class="st2" d="M328.8,616.5c-0.2,7.8-4.7,12.6-11.2,16c-12,0-24,0-36,0c-6.1-3.2-10.7-7.6-11.1-15c0.3-2,0.6-4,0.9-6
		c1.4-5.3,1.5-10.6,1.2-16c0-1.7,0-3.3-0.1-5c0-5,0-10,0.1-15c0-1.7,0-3.3-0.1-5c0-5,0-10,0.1-15c0-1.7,0-3.3-0.1-5
		c0.5-5,0.3-10-0.1-15c-0.3-1.3-0.6-2.7-0.9-4c0-4.3-1.5-8.1-3-12c-0.3-1.5-0.6-2.9-1.7-4.1c0.1-2.5-2.6-4.3-2.1-6.9
		c23.3,0,46.5,0,69.8,0c0.1,0.7,0.1,1.3,0.2,2c-3.9,6.8-6.5,14.1-7.2,22c-1.3,1.9-0.9,3.9-0.7,6c-0.6,5-0.5,10-0.1,15
		c0,1.7,0,3.3,0.1,5c0,5,0,10-0.1,15c0,1.7,0,3.3,0.1,5c0,5,0,10-0.1,15c0,1.7,0,3.3,0.1,5c-0.6,4.7,0.2,9.4,1.2,14
		C328.2,613.8,328.5,615.1,328.8,616.5z"/>
	<path class="st3" d="M503.2,602.6c0,4,0.6,8,1.6,11.9c0,2,0,4,0,6c-1.5,6.1-5.8,9.5-11.2,12c-11.7,0-23.3,0-35,0
		c-5.4-2.5-9.7-5.9-11.1-12c-0.1-1.7-0.1-3.4-0.2-5c1.2-5.6,2.4-11.2,2.2-17c0-1.7,0-3.3,0-5c0-5,0-10,0-15c0-1.7,0-3.3,0-5
		c0-5,0-10,0-15c0.1-1.4,0.3-2.8-0.7-4c0.1-5.1-0.9-9.9-2.9-14.5c-0.2-0.9-0.5-1.7-0.7-2.6c-1.2-3.2-2.5-6.5-3.7-9.7
		c1.2-1.6,3-1.1,4.6-1.1c20,0,40.1,0,60.1,0c1.6,0,3.4-0.5,4.6,1.2c-0.1,0.6-0.2,1.2-0.3,1.8c-1.9,2.7-2.9,5.8-3.7,9
		c-2.4,5.8-3.3,11.9-3.7,18.1c-0.6,2-0.5,3.9-0.2,5.9c0,5,0,10,0,15c0,1.7,0,3.4,0,5c0,5,0,10,0,15
		C502.6,599.2,502.5,600.9,503.2,602.6z"/>
	<path class="st4" d="M446.6,136.5c-0.4-7.3,3.1-12.3,9-16c13.7,0,27.3,0,41,0c5.3,3.2,9,7.4,9.1,14c-0.3,2-0.7,4-1,6
		c-1.7,5.7-2.3,11.5-1.9,17.4c0,1.2,0,2.4,0,3.6c0,5.3,0,10.6-0.1,16c0,1.7,0,3.4,0.1,5c-0.1,4.8,0.2,9.5,1.7,14
		c0.1,1.4-0.3,2.9,0.9,4c0.2,3.9,2,7.4,3.5,10.9c0.5,1.1,0.5,2.3,1.6,3c-0.5,1.4,2.1,2.7,0.2,4.2c-1.2-1.7-3-1.2-4.6-1.2
		c-20.1,0-40.1,0-60.2,0c-1.6,0-3.4-0.5-4.6,1.1c-1.8-1.5,0.1-2.7,0.5-3.8c1.7-4.4,4-8.5,4.6-13.3c1.4-2.1,1.3-4.7,1.8-7
		c0.9-5.3,1.7-10.6,1.1-16c0-1.7,0-3.4-0.1-5c0-5,0-10,0.1-15c0-1.7,0-3.4-0.1-5c-0.1-4.4-0.3-8.8-1.8-13
		C447.8,139,447.6,137.6,446.6,136.5z"/>
	<path class="st5" d="M504.1,277.2c3.1-6.9,6.4-13.8,11.9-19.3c6.1-6.1,13.5-10,21.6-12.7c2-0.3,4-0.7,6-1c4,0.1,8,0.1,12,0.2
		c0,4.7,0,9.3,0,14c-2,2.9-2.1,6.4-3.4,9.6c-3.6,8.6-9.4,15.4-16.7,21c-3.3,1.7-6.5,3.4-9.8,5.1c-7.5,2.1-15,3.5-22.8,2.6
		c0-4.2-0.1-8.5-0.1-12.7c0.4-2.2,0.9-4.5,1.3-6.7L504.1,277.2z"/>
	<path class="st6" d="M504.5,453.4c9-23.5,26.4-33.9,51.1-33c0,5,0,10,0,15c-2.6,5.6-4,11.6-7.3,16.9c-4.7,6.2-10.1,11.6-16.9,15.6
		c-6.3,3.1-12.9,5-19.9,5.7c-3,0-6-0.1-9-0.1c-0.7-4.8,1.1-9.5,0.9-14.3C503.9,457.3,504.2,455.4,504.5,453.4z"/>
	<path class="st7" d="M43.6,182.5c5.3-0.3,10.6-0.3,15.9,0.6c1.7,0.4,3.4,0.9,5.1,1.3c2.6,1.1,5.1,2.2,7.7,3.2
		c1.5,0.9,2.9,1.8,4.4,2.7c2.4,2,4.7,4,7.1,6.1c1.3,1.4,2.5,2.9,3.8,4.3c1.4,2.2,2.8,4.5,4.2,6.7c1.6,4.5,3.8,8.9,4.1,13.8
		c0.3,4.7,1.3,9.3,0.8,14.1c-0.3,0.1-0.7,0.1-1,0.2c-2,0-4,0-6,0c-1.6-0.1-3.2-0.3-4.9-0.4c-4-1-8-2-12.1-3c-1-0.5-2.1-1-3.1-1.5
		c-3-1.8-5.9-3.7-8.9-5.5c-1-0.9-2-1.8-3.1-2.8c-7.1-6.9-10.6-15.9-14.1-24.9C43.6,192.5,43.6,187.5,43.6,182.5z"/>
	<path class="st8" d="M88.5,289.6c1.1-1.5,2.7-1.1,4.1-1.1c20.5,0,41,0,61.4,0c1.3,0,2.7-0.3,3.7,1c-2.4,6.2-5.6,12.2-6.2,19
		c-1.3,1.8-1,3.9-0.9,6c-1.8,5.2-0.8,10.6-0.9,16c0,1.7,0,3.4,0,5c0,5,0,10,0,15c0.3,3.6-1.3,7.4,0.8,10.9c-1.6,5-0.8,10.1-0.9,15.2
		c0,4.6,0,9.3,0,13.9c0,1.7,0,3.4,0,5c0,5,0,10,0,15c0,1.7,0,3.4,0,5c-0.1,4.7-0.8,9.4,0.7,14c0,1.7-0.2,3.5,0.7,5.1
		c0.5,3.8,1.4,7.5,3.1,11c0.4,1.9,0.9,3.7,2.2,5.2c0.6,1.7,1.1,3.4,1.7,5.1c-14.9-0.1-29.8-0.3-44.7-0.4c-6.8,0-13.6,0-20.4,0
		c-1.6,0-3.4,0.5-4.6-1.1c2.9-6.8,5.8-13.7,6.8-21.1c0.1-1.9,0.3-3.9,0.4-5.8c1.5-5.3,0.8-10.6,0.7-16c0-1.3,0-2.7-0.1-4
		c0-5.3,0-10.6,0.1-16c0-1,0-2,0-3c0-0.7,0-1.3,0-2c0-5,0-10,0-15c0-1,0-2,0-3c0-0.7,0-1.3,0-2c0-5,0-10,0-15c0-1,0-2,0-3
		c0-0.7,0-1.3,0-2c0-5,0-10,0.1-15c0-1.7,0-3.4-0.1-5c0.6-4.7-0.2-9.3-0.9-14c0.3-1.5-0.2-2.8-1-4c-0.2-4.3-1.7-8.3-3.5-12.2
		c-0.3-1-0.2-2.2-1.3-2.8C89.3,292.1,88.9,290.9,88.5,289.6z"/>
	<path class="st7" d="M149.6,553.3c0-5-0.2-10.1,0.9-15c3.1-17.8,14.1-29,30.1-35.9c2.3-0.6,4.7-1.2,7-1.9c5,0,10-0.9,15-0.1
		c0,0.7,0.1,1.4,0.1,2c-0.2,5.4-0.4,10.8-1.8,16.1c-0.9,2.6-1.8,5.2-2.6,7.8c-5.1,9.5-12.4,16.8-21.7,22.1c-2.7,1-5.3,2-8,3
		C162.4,552.8,156,553.1,149.6,553.3z"/>
	<path class="st1" d="M267.6,500.5c1.4-2.1,2-4.5,2.3-6.9c2.2-5.8,3.1-11.9,2.7-18.1c0-1.7,0-3.3,0-5c0-5,0-10,0.1-15
		c0-1.7,0-3.3-0.1-5c0-5,0-10,0.1-15c0-1.7,0-3.3-0.1-5c0-5,0-10,0.1-15c0-1.7,0-3.3-0.1-5c0.5-5,0.3-10-0.1-15
		c0.3-1.4,0.1-2.8-0.8-4c0.1-4.3-1.1-8.2-2.9-12.1c-0.2-1.9-0.8-3.7-2-5.2c0-2.5-2.4-4.2-2.1-6.7c23.3,0,46.5,0,69.8,0
		c-0.3,1.3-0.6,2.7-0.9,4c-3.8,6.5-5.5,13.7-6.6,21.1c-0.7,1.9-0.5,3.9-0.3,5.9c-0.5,5-0.4,10-0.1,15c0,1.7,0,3.3,0.1,5
		c0,5,0,10-0.1,15c0,1.7,0,3.3,0.1,5c-0.1,5.1-0.4,10.3-0.2,15.4c0.2,4.1-1.2,8.3,0.9,12.2c-0.1,0.8-0.3,1.6-0.3,2.4
		c0,4.7-2.1,9.3-0.4,14c0.6,3,0.6,6.1,2,8.9c-0.2,2,0.8,3.7,1.7,5.5c0.7,3.5,2.1,6.7,3.9,9.7c0.1,0.6,0.2,1.2,0.2,1.9
		c-23.3,0-46.5,0-69.8,0C265.7,505.8,266.6,503.1,267.6,500.5z"/>
	<path class="st4" d="M503.5,459.3c0.2,4.8-1.6,9.5-0.9,14.3c0.1,3,0.1,5.9,0.2,8.9c-0.2,4.7-0.7,9.4,0.3,14.1
		c0.2,1.6,0.4,3.2,0.6,4.9c0.1,4.9,1.5,9.6,3.4,14.1c0.5,1.1,0.2,2.4,1.3,3.2c0,3.2,3.6,5.5,2.3,9c-1.2-1.7-3-1.2-4.6-1.2
		c-20,0-40.1,0-60.1,0c-1.6,0-3.4-0.5-4.6,1.1c-0.3-0.1-0.5-0.1-0.8-0.2c0.9-2.7,1.9-5.3,2.8-8c3.2-6.3,5-12.9,5.2-20
		c1-1.9,1-3.9,0.7-6c0-5,0-10,0.1-15c0-1.7,0-3.4-0.1-5c0-5,0-10,0.1-15c0-1.7,0-3.4-0.1-5c0-5,0-10,0.1-15c0-1.7,0-3.4-0.1-5
		c0-4,0-8,0-12c0.1-0.3,0.2-0.6,0.2-0.9c0-5.1,0-10.2,0-15.3c0-8.9-0.1-17.9-0.1-26.8c0-1.7,0-3.4-0.1-5c0.1-4.7,0.9-9.4-0.7-14
		c-0.2-1.7-0.3-3.4-0.5-5.1c-0.8-4.1-1.3-8.2-3.5-11.9c0.1-1.2-0.3-2.2-1.2-3c0.4-3-3.6-4.9-2-8.2c1.2,1.7,3,1.2,4.6,1.2
		c21.7,0,43.5,0,65.2,0c0.1,0.3,0.1,0.7,0.2,1c-4.3,7.1-6.6,14.9-7.8,23c-0.1,1.7-0.2,3.3-0.3,5c-1.5,5.3-0.7,10.7-0.7,16
		c0,1.7,0,3.4,0.1,5c0,5,0,10-0.1,15c0,1.7,0,3.4,0.1,5c0,5,0,10-0.1,15c0,1.7,0,3.4,0.1,5c0,5,0,10-0.1,15c0,1.7,0,3.4,0.1,5
		c0,3.3,0,6.7-0.1,10C502.8,454.8,501.8,457.2,503.5,459.3z"/>
	<path class="st9" d="M334.5,367.4c-23.3,0-46.5,0-69.8,0c0.6-2,1.3-4,1.9-6c1.5-2.5,2.6-5.1,2.9-8c2.3-5.8,3.4-11.8,3-18
		c0-1.7,0-3.3,0-5c0-2.3,0.1-4.7,0.1-7c1.6-5.3,1.5-10.6,0.1-15.9c-0.1-10.7-0.1-21.4-0.2-32c-0.1-1.7-0.1-3.3-0.2-5
		c-0.6-4.1-0.9-8.2-2.8-12c0.1-2-0.8-3.7-1.8-5.3c-0.4-3.2-2.3-5.8-3.5-8.7l0.2,0.2l0.2-0.1c23.3,0,46.5,0,69.8,0
		c0.1,0.3,0.1,0.7,0.2,1c-1.7,2.4-2.7,5-3.4,7.9c-2.8,6.4-4.5,13.1-4.5,20.1c0,1.7,0,3.3,0,5c0,5,0,10-0.1,15c0,1.7,0,3.3,0.1,5
		c0,5,0,10-0.1,15c0,1.7,0,3.3,0.1,5c0,5,0,10-0.1,15c0.1,1.7,0.1,3.3,0.2,5c-0.4,4.5,1,8.7,2.1,13c0.5,1.4,1,2.8,1.4,4.1
		c0.8,3.5,2.1,6.9,4.1,10C334.4,366.2,334.5,366.8,334.5,367.4z"/>
	<path class="st2" d="M379.1,147.3c-0.1,4.7-0.3,9.4-0.4,14.1c-0.6,2.3-1.2,4.7-1.8,7c-5.5,13.9-15.2,23.7-29.2,29.2
		c-2.3,0.6-4.7,1.2-7,1.8c-4.6,0.1-9.3,0.2-13.9,0.3c-0.4-4.4,0.4-8.9-0.5-13.3c1.5-4.7,2.9-9.3,4.4-14c5.4-8.6,12.2-15.8,21.1-20.9
		c2.7-1,5.3-2,8-3.1c5.3-0.6,10.6-1.3,16-1.9C376.8,146.8,377.9,147.1,379.1,147.3z"/>
	<path class="st3" d="M511.3,332.4c-21.7,0-43.5,0-65.2,0c-1.6,0-3.4,0.5-4.6-1.2c0.8-2.3,1.7-4.6,2.5-6.9c1.3-2.5,2.5-5.1,2.5-8
		c2.3-5.8,2.8-11.8,2.9-18c0-1.7,0-3.3,0-5c0-5,0-10,0-15c0-1.7,0-3.3,0-5c0-5,0-10,0-15c0-1.7,0-3.3,0-5c0.7-4.4-0.5-8.7-1-13
		c-0.4-2.2-0.5-4.4-1.7-6.3c-0.5-4-1.9-7.7-3.9-11.2c-0.2-0.9-0.1-2-1.2-2.5c-0.1-0.6-0.1-1.2-0.2-1.8c1.2-1.7,3-1.1,4.6-1.1
		c20.1,0,40.1,0,60.2,0c1.6,0,3.4-0.5,4.6,1.2c-1.8,5.3-4.8,10.1-5.4,15.8c-1.1,2.2-1.5,4.6-1.6,7c-0.9,5.3-1.5,10.6-1,16
		c0,1.7,0,3.4,0,5.1c0.3,4.9-1.6,10,1.2,14.7c0,0,0,0.2,0,0.2c-2.9,1.8-0.7,4.5-1.3,6.7c0,4.2,0.1,8.5,0.1,12.7
		c-0.2,6.4,0.3,12.6,2.6,18.7c0,1.4,0,2.8,1.2,3.9c0.7,4.2,2.6,8,4.7,11.6C511.3,331.5,511.3,332,511.3,332.4z"/>
	<path class="st0" d="M154.5,348.4c5-8.4,11.7-15.1,20.1-20.1c3-1.2,6-2.4,8.9-3.5c5.4-0.5,10.7-1,16.1-1.6c1,0.1,1.9,0.2,2.9,0.3
		c0.2,4.7,0.2,9.4-0.4,14.1c-0.5,2.3-1,4.6-1.5,6.9c-5.7,14.3-15.6,24.3-30,30c-2.3,0.5-4.6,1-6.9,1.5c-4.7,0.2-9.3,0.4-14,0.6
		c0-5.1-0.8-10.2,0.9-15.2C151,356.8,153.3,352.8,154.5,348.4z"/>
	<path class="st2" d="M326.8,482.5c-1.7-4.7,0.4-9.4,0.4-14c0-0.8,0.2-1.6,0.3-2.4c2-12.1,9.1-20.9,18.3-28.5
		c3.7-1.8,7.4-3.7,11-5.5c5.5-1.8,11.1-2.7,16.9-2.9c1.7,0.1,3.4,0.1,5,0.2c0.9,3.7,0.1,7.5,0.3,11.3c-0.4,2.3-0.7,4.5-1.1,6.8
		c-5.3,17.4-16.9,28.5-34.2,33.9c-2,0.1-4.2-0.2-6,1.1C334,482.5,330.4,482.5,326.8,482.5z"/>
	<path class="st6" d="M396.5,371.5c-0.4-3.1,1.1-4.4,4.1-4.1c4.6,0.4,9.3,0.9,13.9,1.3c0.8,0.9,1.9,0.8,3,0.9
		c3.7,1.8,7.3,3.5,11,5.3c0.7,0.5,1.4,1,2.2,1.5c2.3,2,4.6,4.1,6.9,6.1c0.9,1,1.8,2.1,2.6,3.1c4.3,6,6.7,12.9,9.4,19.7
		c0,5.1,0,10.2,0,15.3c-0.3-0.1-0.7-0.1-1,0.1c-1.3,0-2.7,0-4,0c-1.7,0-3.3-0.1-5-0.1c-4-0.8-8-1.6-11.9-2.4
		c-1.4-0.6-2.7-1.1-4.1-1.7c-3-1.8-5.9-3.6-8.9-5.3c-1-0.9-2.1-1.8-3.1-2.7c-2.2-2.5-4.5-5.1-6.7-7.6c-0.3-0.5-0.7-1-1-1.4
		c-1.7-3.7-3.5-7.3-5.2-11c0-1.1,0-2.2-0.9-3C397.3,380.8,396.9,376.1,396.5,371.5z"/>
	<path class="st1" d="M246.7,319.3c-0.7-0.4-1.5-0.8-2.2-1.2c-3.2-2.3-6.5-4.6-9.7-6.9c-0.6-0.6-1.2-1.2-1.8-1.8
		c-2.3-3.2-4.7-6.3-7-9.5c-0.4-0.8-0.9-1.6-1.3-2.4c-1.1-3.4-2.3-6.8-3.4-10.2c-0.3-1.6-0.6-3.2-0.9-4.8c0-11.9,0-11.9,11.8-11.9
		c0.2,0,0.3,0,0.5-0.1c1.2,0.9,2.6,0.9,4,0.8c3.2,1.1,6.5,2.2,9.7,3.2c1.4,0.7,2.7,1.5,4.1,2.2c2.6,1.9,5.2,3.9,7.9,5.8
		c1,1.1,2.1,2.1,3.1,3.2c5.4,6.4,8.6,13.9,11.4,21.7c1.4,5.3,1.5,10.6-0.1,15.9c-3.7,0-7.4,0.1-11,0.1c-1.7-0.3-3.3-0.6-5-1
		C253.3,321.5,250,320.4,246.7,319.3z"/>
</g>
</svg>
