<?xml version="1.0" encoding="utf-8"?>
<!-- Generator: Adobe Illustrator 19.0.0, SVG Export Plug-In . SVG Version: 6.00 Build 0)  -->
<svg version="1.1" id="Calque_1" xmlns="http://www.w3.org/2000/svg" xmlns:xlink="http://www.w3.org/1999/xlink" x="0px" y="0px"
	 viewBox="0 0 612 792" style="enable-background:new 0 0 612 792;" xml:space="preserve">
<style type="text/css">
	.st0{fill:#FFFFFF;}
</style>
<g>
	<path d="M534.9,498.5c-21.5,0-42.3,0-63.4,0c-1.1-13.1-2.3-25.9-3.1-38.9c-0.2-3.8-1.5-4.9-5.1-4.7c-4.5,0.2-9,0.2-13.5,0
		c-3.8-0.2-4.8,1.4-5,4.9c-0.9,12.8-2.1,25.5-3.2,38.5c-21.4,0-42.6,0-64.5,0c0.8-6.6,1.5-13,2.3-19.3c4.9-37.4,9.9-74.8,14.8-112.3
		c4.7-35.1,9.3-70.2,13.9-105.3c0.4-2.9,1.4-4.1,4.4-4.1c27.7,0.1,55.3,0.1,83,0c2.8,0,4,0.9,4.4,3.9c7.2,49.5,14.6,99,22,148.5
		c4.2,28,8.4,55.9,12.6,83.8C534.8,495.2,534.7,496.7,534.9,498.5z M466,412.6c-3-32.8-6-65.1-9-97.4c-0.5,0-0.9,0-1.4,0
		c-3.8,32.3-7.6,64.6-11.5,97.4C452,412.6,458.7,412.6,466,412.6z"/>
	<path d="M220.6,330.1c-20,0-38.9,0-58.4,0c0-6.9,0.1-13.5,0-20.1c-0.1-3.1-0.4-6.3-0.8-9.4c-0.5-4.3-2.9-7.1-7.3-7.7
		c-4.8-0.6-8.5,1.1-10.8,5.4c-6.2,11.1-2.7,31.3,7.5,38.8c8.7,6.4,18.2,11.6,27.2,17.7c7.8,5.3,15.5,10.9,23.1,16.7
		c12.2,9.3,19.6,21.4,22,36.7c2.9,18.6,3.4,37,0,55.6c-2.3,12.3-9.1,21.2-19.6,27.6c-17.2,10.4-36,13.2-55.7,11.9
		c-13.8-0.9-26.9-4.2-38.8-11.6c-11-6.8-18.4-16.1-21.2-28.9c-3.6-16.4-3.6-33-3.5-50c19.3,0,38.2,0,57.7,0c0,2.2,0,4.2,0,6.1
		c0.3,11.2,0.4,22.3,0.9,33.4c0.3,6.6,3.3,9.9,8.5,10.7c6.3,0.9,11.4-1.8,13.1-8.1c3.3-12.2,2.5-24.5-2.2-36.2
		c-1.3-3.3-4.6-6.2-7.6-8.4c-12.6-9.1-24.9-18.6-38.2-26.4c-28.9-17.1-36.4-43.3-33.7-74.3c0.5-5.3,1-10.6,1.9-15.8
		c3.1-17.8,14-29.4,30.5-35.2c26.4-9.3,52.9-8.7,78.8,2.8c13.9,6.2,23,16.5,24.5,32.1C219.5,305.5,219.9,317.6,220.6,330.1z"/>
	<path d="M307.9,401.5c0,32.8,0,64.7,0,96.9c-20.9,0-41.3,0-62.1,0c-0.1-2.1-0.3-4-0.3-6c0-76.1,0-152.3,0-228.4
		c0-6.5,0-6.5,6.6-6.5c20.7,0,41.3-0.6,62,0.2c12.4,0.5,24.9,2,36.9,5c15.6,3.9,25.2,15,27.4,31c3.3,23.8,3.6,47.9,0.7,71.7
		c-2.6,21.4-13.3,31.2-34.6,34.3c-7.5,1.1-15.2,1.3-22.9,1.8C317.3,401.7,313,401.5,307.9,401.5z M307.9,299.2
		c0,19.6,0,38.8,0.1,58.1c0,1,1,2.5,1.9,2.8c7.5,2.7,16.6-2.2,17.3-10.2c1-11.7,1.1-23.6,1-35.3C328.1,302,321.3,296.9,307.9,299.2z
		"/>
	<path class="st0" d="M466,412.6c-7.3,0-14,0-21.9,0c3.9-32.8,7.7-65.1,11.5-97.4c0.5,0,0.9,0,1.4,0C460,347.5,463,379.8,466,412.6z
		"/>
	<path class="st0" d="M307.9,299.2c13.4-2.3,20.2,2.8,20.3,15.4c0.1,11.8,0,23.6-1,35.3c-0.7,8-9.8,12.9-17.3,10.2
		c-0.9-0.3-1.9-1.9-1.9-2.8C307.8,338,307.9,318.7,307.9,299.2z"/>
</g>
</svg>
