<?xml version="1.0" encoding="utf-8"?>
<!-- Generator: Adobe Illustrator 19.0.0, SVG Export Plug-In . SVG Version: 6.00 Build 0)  -->
<svg version="1.1" id="Calque_1" xmlns="http://www.w3.org/2000/svg" xmlns:xlink="http://www.w3.org/1999/xlink" x="0px" y="0px"
	 viewBox="0 0 612 792" style="enable-background:new 0 0 612 792;" xml:space="preserve">
<style type="text/css">
	.st0{fill:#FD98FD;}
	.st1{fill:#FDFDFD;}
	.st2{fill:#FDFCFD;}
	.st3{fill:#FCF9FC;}
</style>
<g>
	<path class="st0" d="M323.2,492.1c-2,4.4-2.7,8-1.2,12.4c2.9,8.7-3.7,17.3-14.6,19.2c-3.6,0.6-5,2.2-6.1,5.3
		c-3.5,10.5-4.3,21.4-5.7,32.3c-2.8,21,0.4,41.7,4.8,62.2c0.9,4.4,2.7,7,7.8,8.1c12.9,2.9,18.3,15.8,10.9,24.9
		c-3.5,4.3-8.2,6.5-14,6.5c-28.5,0-57,0-85.5,0c-9.4,0-17.1-6-18.1-13.9c-0.9-7.5,5.6-16,14.6-17.6c4.5-0.8,6.4-3.1,7.3-6.8
		c2.9-12.1,4.9-24.4,5.1-36.9c0.4-17.5,0.2-34.9-4-52c-0.4-1.6-0.7-3.2-1.2-4.8c-1-4.1-2.7-6.6-7.7-7.6c-12.2-2.5-16-9.9-12.6-22.1
		c0.5-1.6,0.1-2.9-0.4-4.3c-3.5-10.9,2.7-20.6,14.3-21.8c3.3-0.3,4.6-1.8,5.6-4.5c3.8-10.6,5-21.7,5.7-32.7
		c0.8-12.4,1-24.9-0.4-37.4c-1.1-9.4-2.2-18.8-4.8-27.9c-1-3.5-2.5-5.3-6.7-5.8c-11.1-1.2-16.8-11-13.4-21.9
		c0.5-1.5,0.6-2.7,0.2-4.3c-3.5-11.7,0.9-19.6,13-22c5-1,6.5-3.6,7.6-7.7c2.7-10.1,4.3-20.5,4.7-30.9c0.9-20.6,0.7-41.2-4.6-61.4
		c-1.1-4.3-2.4-7.6-7.8-8.1c-4-0.4-7.4-2.9-10.1-6c-3.7-4.2-5.8-9.2-3.4-14.7c3-6.9,8.5-11.6,16.1-11.7c29-0.3,58-0.2,87-0.1
		c8,0,16.7,8,17.1,14.9c0.5,8.1-6,16.3-15.1,17.7c-4.3,0.7-5.7,3-6.6,6.2c-3,10.2-3.8,20.8-5.2,31.3c-2.6,19.7,0.3,39,4,58.3
		c0.5,2.4,1.3,4.8,2,7.2c0.7,2.6,2.1,4,5.1,4.5c10.5,1.7,14.9,6.6,16.2,17.5c6.3-4.4,12.5-8.4,20.1-9.8c15.3-2.9,29.7,0.6,43.9,5.8
		c24.6,9,45.5,23.9,65,40.9c10.1,8.8,19.2,18.5,28.6,27.9c1.5,1.5,3,3.2,4.1,5c2.5,4.2,1.1,8.5-3.3,10.3c-1.5,0.6-3.2,1-4.8,1.1
		c-19.2,2-38.5,2.4-57.7,0.8c-17-1.4-33.9-3.9-51.1-9.9c6.6,12.4,10.5,24.8,13.3,37.6c2.6,12,4,24.2,4.7,36.4
		c0.7,13.1,0.5,26.2-0.1,39.3c-0.4,7.1-1.2,14.2-2,21.3c-0.5,4.6-7.4,9-11.8,4.5c-6.7-6.7-13.8-13.1-20.2-20
		C341.4,516.2,331.8,505,323.2,492.1z"/>
	<path class="st1" d="M216.7,193.7c30.4,0,60.3,0,91,0c-1.2,1.1-1.6,1.6-2,1.7c-13.2,1.7-17.2,12-20.2,22.5
		c-4.9,17.4-7.1,35.3-5.9,53.2c1,15.6,2.1,31.5,8.4,46.3c4.7,11.1,7,13.4,17.9,17c-29.3,0-58.6,0-88,0c0.6-1.9,1.9-1.2,2.9-1.4
		c8.7-1.5,12.1-8.3,15-15.3c3.7-8.9,5.3-18.4,6.6-28c1.7-13.3,1.3-26.6,0.8-39.9c-0.5-14.4-2.4-28.8-8.8-42.1
		c-3.1-6.4-7.4-11-14.8-11.9c-0.6-0.1-1.2-0.5-1.8-0.8C217.6,195,217.4,194.6,216.7,193.7z"/>
	<path class="st1" d="M218.1,491.5c12.5-2,16.3-11.6,19.5-21.6c3.9-11.9,5.8-24.2,5.9-36.7c0.2-19.4,0.9-38.9-4.9-57.9
		c-0.9-2.8-1.9-5.7-3-8.5c-3.1-8.3-7.8-14.7-17.5-16.2c29.3,0,58.5,0,87.8,0c0.1,1.3-0.9,1.3-1.6,1.3c-5.3,0.2-9,3-11.9,7.2
		c-5.7,8.3-8,17.9-9.7,27.5c-2.3,14.1-4.3,28.3-3.1,42.6c1.1,13.9,2.2,27.8,6.9,41.1c3.4,9.6,7,19.3,19.4,21.1
		C276.7,491.5,247.4,491.5,218.1,491.5z"/>
	<path class="st1" d="M306.3,647.9c-29.6,0-59.3,0-89,0c0.1-1.8,1.4-1.7,2.5-1.8c6.4-0.6,10.6-4.3,13.6-9.7
		c5.5-10.1,7.6-21.2,9-32.4c1.8-13.8,1.3-27.6,0.9-41.4c-0.5-13.1-2.4-26-7.6-38.4c-3.4-8.3-7.8-15.1-17.8-16.5
		c29.3,0,58.6,0,87.9,0c-15.1,2.8-18,15.2-21,27c-4.4,17-6.4,34.4-5.1,51.8c1.2,16.1,2.3,32.5,9.6,47.5c3.2,6.5,7.5,11.3,15.2,12.2
		c0.7,0.1,1.4,0.7,2.1,1C306.5,647.4,306.4,647.6,306.3,647.9z"/>
	<path class="st1" d="M461.2,402.6c-16.7,1.8-32.9,1.1-49.1-0.4c-16-1.4-31.5-4.4-46.4-10.4c-10.5-4.2-20.6-9.4-28.2-18.2
		c-5.3-6.2-10.2-12.6-7.1-21.5c3.5-9.9,12.2-11.6,21-12c15.7-0.8,30.1,4.6,43.9,11.4C417.7,362.5,446.9,385.3,461.2,402.6z"/>
	<path class="st1" d="M370.1,524c-12.5-11.7-22.9-24.1-32.5-37.3c-10.9-15-20.2-30.9-25.2-48.9c-2.6-9.5-3.9-19.1-2.2-29
		c1.4-7.8,4.6-14,12.6-16.3c7.6-2.2,13.6,1.8,19,6.3c10.8,9.2,16.2,21.7,20.6,34.7c4.9,14.7,7.2,29.9,8.2,45.3
		c0.6,9.3,0.7,18.6,0.8,27.9C371.6,512.3,370.9,517.7,370.1,524z"/>
	<path class="st2" d="M296.9,398c0.8-8.7,1.6-17.2,4.2-25.5c1.1-3.4,2.3-5.9,6.7-5.8c2.3,0.1,4.7-1.4,7-2.1
		c1.6,3.4,3.2,6.9,4.9,10.3c1,1.9,0.5,2.7-1.4,3.2C307.7,380.9,301.2,388.2,296.9,398z"/>
	<path class="st3" d="M295.8,434.9c3.9,14.1,9.5,27.4,16.6,40.3c-8.5,0.7-9.7,0.2-11.7-7C297.7,457.3,296.4,446.2,295.8,434.9z"/>
</g>
</svg>
