<?xml version="1.0" encoding="utf-8"?>
<!-- Generator: Adobe Illustrator 19.0.0, SVG Export Plug-In . SVG Version: 6.00 Build 0)  -->
<svg version="1.1" id="Calque_1" xmlns="http://www.w3.org/2000/svg" xmlns:xlink="http://www.w3.org/1999/xlink" x="0px" y="0px"
	 viewBox="0 0 612 792" style="enable-background:new 0 0 612 792;" xml:space="preserve">
<style type="text/css">
	.st0{fill:#303C42;}
	.st1{fill:#FDFDFD;}
</style>
<g>
	<path class="st0" d="M35,429c3.4-5.4,8.2-7.2,14.6-7.1c43.3,0.2,86.7,0.1,130,0.2c3.5,0,4.8-0.5,4.8-4.5c-0.2-23-0.1-46-0.1-69
		c0-2.7-0.6-4.5-3.1-6.1c-6-4-9.8-10-12.1-16.7c-8.6-24.9-8.5-50,0.2-74.9c3.5-9.9,9.7-17.9,20.8-20.4c3-0.7,5.9-0.6,8.9,0.1
		c9,2.3,18.2,3.9,27.2,6.5c15.5,4.4,30.9,3.7,46.3-0.4c7.2-1.9,14.6-3.4,21.8-5.2c18.6-4.7,35.1,5.7,38.6,24.6
		c0.9,4.8,1.2,9.5,0.3,14.4c-1.8,10.4-7.3,17.7-17.4,21.2c-2.6,0.9-3.6,1.8-3.6,4.8c0.1,40.5,0.1,81,0,121.5c0,3.4,1,4.1,4.2,4.1
		c23.5-0.1,47,0,70.5-0.1c6.9,0,11.1-3.7,10.9-10.2c-1.1-35.7,26.2-70.9,67-74.7c46.6-4.3,77.6,30.7,81.3,63.8
		c0,0.4,0.5,0.7,0.8,1.1c0,6.7,0,13.3,0,20c-1.6,14.7-7.3,27.5-17,38.6c-12.3,14.2-27.5,22.8-46.1,25.7c-7.7,1.2-15.3,1.5-22.8-0.1
		c-6.5-1.4-10.8,1-13.9,6.8c-6.6,12.4-14.8,23.7-24.7,33.8c-22.9,23.4-50.2,39.9-80.9,50.9c-26.2,9.4-53.1,14.5-81,15.8
		c-38.4,1.8-75.3-4-111-17.8c-30.2-11.7-57.1-28.7-79-52.9c-16.8-18.6-28.8-39.9-34.1-64.6c-0.8-3.7-0.2-7.6-1.5-11.3
		C35,441,35,435,35,429z"/>
	<path class="st0" d="M251.5,230c-26.6,0.2-46.2-18.8-45.8-41.4c0.1-5.4,1.7-10.5,3.9-15.4c7.5-17.1,18.6-31.8,30.6-46
		c5.6-6.7,14.6-5,18.1,3.1c5.2,12,11.4,23.2,20.7,32.6c12,12,15.7,26.2,8.5,42C280,221.5,266.3,229,251.5,230z"/>
	<path class="st1" d="M193.4,324.7c-3.3-2.6-4.4-5.8-5.3-8.9c-5.2-18-5.1-36.1-0.1-54.1c0.3-1.1,0.7-2.2,1.2-3.3
		c2.9-6.7,3.8-7.1,10.8-5.5c11.8,2.7,23.7,5.1,35.5,7.8c14.1,3.1,27.8-0.3,41.4-3.2c7.5-1.5,14.9-3.5,22.3-5.3
		c7-1.7,11.7,1.4,12.8,8.6c1.4,9.2-0.3,11.7-9.6,11.8c-11.1,0.1-19.6,4.4-25.6,13.7c-3.4,5.3-8.3,7.3-14.3,7.7
		c-9.6,0.6-18.4-1.7-27.1-5.4c-4.7-2-9.5-4-14.6-4.8c-9.3-1.4-14.9,1.4-18.9,9.9c-3.2,6.7-4.1,14-5.8,21.1
		C195.2,317.9,194.3,321.1,193.4,324.7z"/>
	<path class="st1" d="M504.2,411.7c-0.3,18.1-14.5,31.8-32.8,31.5c-17.2-0.2-31.5-15.1-31.1-32.5c0.4-17.4,15.1-31.7,32.3-31.4
		C490.4,379.5,504.4,393.9,504.2,411.7z"/>
</g>
</svg>
