<?xml version="1.0" encoding="utf-8"?>
<!-- Generator: Adobe Illustrator 19.0.0, SVG Export Plug-In . SVG Version: 6.00 Build 0)  -->
<svg version="1.1" id="Calque_1" xmlns="http://www.w3.org/2000/svg" xmlns:xlink="http://www.w3.org/1999/xlink" x="0px" y="0px"
	 viewBox="0 0 612 792" style="enable-background:new 0 0 612 792;" xml:space="preserve">
<g>
	<path d="M71.4,472.1c0-43-0.5-86,0.1-129c0.8-56.7,27.4-97.8,77.5-123.9c2.7-1.4,4.1-2.8,3.8-6c-0.3-3-0.2-6,0-9
		c0.4-7.4,0.7-14.5-6.8-19.2c-1.8-1.1-3.1-3.7-3.7-5.8c-3.9-13.7-4.7-27.8,0.6-41.1c3.9-9.6,12.3-15,22.9-15.1
		c28.3-0.3,56.7-0.3,85,0c13.9,0.2,25.1,11.9,25.6,25.8c0.2,7,0.2,14,0,21c-0.3,8-4.1,14.2-9.9,19.5c-1.6,1.4-2.8,4-2.9,6.1
		c-0.4,5.8,0.1,11.7-0.2,17.5c-0.2,3.3,1,4.9,4,6.4c39.4,19.8,64.7,51.1,74.4,94.2c2.3,10.1,3.2,20.8,3.2,31.2
		c0.2,87.7,0.2,175.3,0.1,263c0,16.6-9,25.5-25.7,25.5c-74.2,0-148.3,0-222.5,0c-16.8,0-25.5-8.7-25.5-25.6
		C71.4,562.4,71.4,517.3,71.4,472.1z M298.6,452.1c0-36.3,0-72.6,0-109C298.5,284,245.8,241,188,253c-40.6,8.4-71.3,46-71.3,87.5
		c0,74,0,147.9,0,221.9c0,16.1,9.4,25.5,25.4,25.5c17.3,0,34.7,0,52,0c26.8,0,53.6-0.3,80.5,0.1c14.9,0.2,24.4-11.9,24.2-23.9
		C298.2,526.7,298.6,489.4,298.6,452.1z"/>
	<path d="M368.6,633c46.8-45.7,93-90.8,139.2-135.9c-0.3-0.4-0.7-0.8-1-1.3c-41.1,7.9-76.9,26-107,56.1c-0.4-0.9-0.7-1.5-0.8-2
		c-1.3-24.5,1.2-48.3,13-70.3c14-26.1,37-39.3,65.3-44.4c27.1-5,54.1-2.5,80.9,2.5c1.4,0.3,3.3,1.8,3.6,3.1c6,30.3,9,60.7,1.5,91.1
		c-7.8,31.7-27.8,52.9-58.5,62.9c-31.1,10.2-62.7,19-94.2,28c-12.6,3.6-25.5,6.4-38.2,9.6C371.5,632.7,370.5,632.7,368.6,633z"/>
	<path d="M146.4,399.2c41.7,0,82.4,0,123.7,0c0,2.1,0,3.9,0,5.7c0,39.8,0,79.6,0,119.5c0,21.4-12.5,34-33.7,34c-19,0-38,0.1-57,0
		c-20.5-0.1-33-12.6-33-33c0-40.2,0-80.3,0-120.5C146.4,403.1,146.4,401.3,146.4,399.2z"/>
</g>
</svg>
