<?xml version="1.0" encoding="utf-8"?>
<!-- Generator: Adobe Illustrator 19.0.0, SVG Export Plug-In . SVG Version: 6.00 Build 0)  -->
<svg version="1.1" id="Calque_1" xmlns="http://www.w3.org/2000/svg" xmlns:xlink="http://www.w3.org/1999/xlink" x="0px" y="0px"
	 viewBox="0 0 612 792" style="enable-background:new 0 0 612 792;" xml:space="preserve">
<style type="text/css">
	.st0{fill:#3C5A63;}
	.st1{fill:#3C5A64;}
	.st2{fill:#FDFDFD;}
</style>
<g>
	<path class="st0" d="M295.6,575.7c6.5-21.6,14.5-42.3,26.2-61.5c37.2-61,90.8-98.3,161.2-111.1c11.5-2.1,23.1-3,34.8-3.1
		c6.4,0,8.4,1.9,8.2,8.3c-1.4,63.1-24.5,117-69.2,161.3c-35.6,35.3-78.5,56.9-128.2,63.9c-63.4,8.8-121-6.4-171.9-45.3
		c-45.5-34.8-74.1-80.7-86-136.9c-3.1-14.4-4.5-28.9-4.6-43.6c0-5.7,2.1-7.9,7.8-7.8c68.1,1.6,124.9,27.8,170.4,78.3
		c24.8,27.6,41.4,59.7,50.9,95.5C295.2,574.5,295.4,575.1,295.6,575.7z"/>
	<path class="st0" d="M335.4,192c2.8,4.3,5.2,8,7.6,11.7c19.3,29.4,36.5,60,47.2,93.7c7.7,24.4,11.2,48.9,3.3,74.1
		c-14,44.8-57.4,75.1-104.4,72.4c-54.8-3.1-99.8-55-95-109.6c2.2-24.5,10.1-47.4,20.3-69.6c11-24,24.6-46.4,39.2-68.3
		c0.8-1.2,1.6-2.5,2.6-4.1c-4.6-0.4-8.5,1.1-12.4,2C159.3,214.5,94.3,284.9,81,370.8c-1.1,7-3.3,9.7-7.5,9.2
		c-4.2-0.6-5.6-3.7-4.4-10.8c9.1-54.1,34.5-99.2,75.3-135.6c30.3-27,65.6-44.6,105.4-52.9c6-1.2,12.2-1.9,18.2-3
		c3.1-0.5,5.6,0,7.2,3c1.6,2.9,0.5,5.4-1.3,7.8c-13.7,18.7-26.2,38.1-37.3,58.5c-13.4,24.6-24.6,50.1-29.4,78.1
		c-7.1,41.7,12.8,81.4,50.5,98.6c54.5,24.8,119.2-7.6,127.3-70c2.4-18.6-1.1-36.5-6.8-54c-12.6-38.9-33.9-73.2-57-106.5
		c-1.3-1.9-2.7-3.8-4-5.7c-1.6-2.2-2.1-4.5-0.6-7c1.6-2.6,4.1-3.4,6.9-3c32,4.4,62.2,14.1,89.8,31.2c59.2,36.7,95.8,89.2,109,157.7
		c0.4,2.1,0.8,4.3,1,6.4c0.4,3.7-1.2,6.3-4.8,7c-3.6,0.7-6.2-1.1-6.9-4.9c-1.9-10.1-3.6-20.3-6.7-30.2
		c-26.2-82.2-81.6-132.8-165.5-152.4C338.6,192.1,337.4,192.1,335.4,192z"/>
	<path class="st1" d="M277.4,401.2c-0.1,4.2-4,7.1-8.1,5.4c-17.6-7.5-30.3-20.2-37.9-37.8c-1.4-3.1-0.4-6.1,2.8-7.6
		c3-1.4,6-0.7,7.8,2.3c1.3,2.1,2.2,4.5,3.3,6.7c6.1,11.2,15.1,19.3,26.7,24.5C275,396.1,277.3,397.6,277.4,401.2z"/>
	<path class="st2" d="M311.2,623.2c6-6,11-11,16.1-16c10.7-10.7,21.5-21.4,32.1-32.2c2.1-2.2,4.2-3.2,7.4-3.1c13,0.2,26,0.1,39,0.1
		c5.4,0,8.1-2,8.2-5.8c0.1-4-2.8-6.1-8.4-6.1c-9.9,0-19.9,0-31.3,0c7.7-7.6,14.5-14.3,21.3-21.1c5-4.9,9.2-11.7,15.1-14.2
		c6-2.5,13.8-0.7,20.8-0.7c7.7,0,15.3,0,23,0c4.8,0,7.6-2.3,7.5-6.1c0-3.7-2.8-5.9-7.7-5.9c-10.2,0-20.3,0-30.7,0
		c0.1-2.1,1.7-2.8,2.8-3.9c15.8-15.8,31.6-31.6,47.3-47.4c1.2-1.2,2.4-2.3,3.3-3.7c1.7-2.6,1.3-5.1-0.9-7.2
		c-2.2-2.1-4.7-2.5-7.3-0.8c-1.4,0.9-2.5,2.2-3.7,3.3c-16.7,16.7-33.5,33.5-50.5,50.6c-1.2-3.7-0.5-7.1-0.6-10.4
		c-0.1-7.2-0.1-14.3,0-21.5c0-4.1-1.9-7-6.1-6.9c-4.3,0-6,2.9-5.9,7.1c0,13.5,0,27,0,40.5c0,2,0.2,3.8-1.5,5.5
		c-11.3,11.1-22.4,22.3-34.4,34.4c0-3.7,0-6.4,0-9.2c0-7.7,0-15.3,0-23c0-4.7-2.5-7.7-6.2-7.3c-4.3,0.4-5.8,3.2-5.8,7.3
		c0.1,13.2-0.1,26.3,0.1,39.5c0,3.2-0.8,5.5-3.1,7.9c-14.8,14.6-29.5,29.4-44.2,44.1c-1,1-1.8,2.2-3.2,3c-0.5-9.5,0.9-18.5,2.8-27.3
		c16.1-72.6,57.8-124.9,125.5-156.1c24.4-11.3,50.5-16.6,77.3-18.3c4-0.3,5,0.9,4.8,4.9c-4.4,97.9-74.8,181.2-171,202
		C332.9,621.1,322.9,622.8,311.2,623.2z"/>
	<path class="st2" d="M279.4,623.2c-10.9-0.3-21.7-1.9-32.2-4.7c-88.6-23.1-143.4-79.4-164.7-168.3c-2.6-11-3.3-22.4-4.3-33.6
		c-0.3-3.5,0.8-4.6,4.4-4.4c57,3.6,106.1,24.9,146.2,65.9c32.5,33.3,51.7,73.4,58.9,119.3c0.7,4.3,1,8.6,1.4,12.9
		c0.1,1.1,0.5,2.3-0.7,3.9c-2.3-2.4-4.5-4.9-6.8-7.2c-13.7-13.7-27.3-27.4-41.1-40.9c-1.8-1.8-2.5-3.6-2.5-6.1
		c0.1-13.3,0-26.7,0.1-40c0-4.2-1.1-7.3-5.8-7.8c-3.8-0.4-6.2,2.7-6.3,7.8c0,10.1,0,20.3,0,30.6c-1.9-0.3-2.7-1.7-3.6-2.7
		c-9.9-9.9-19.8-19.8-29.8-29.6c-1.9-1.9-2.7-3.9-2.7-6.5c0.1-13.2,0.1-26.3,0-39.5c0-5.3-2.1-8.1-6-8.1c-3.9,0-6,2.8-6,8.1
		c0,10.1,0,20.2-1.1,30.9c-6-6.2-11.9-12.4-17.9-18.5c-11-11.1-22.1-22.2-33.2-33.2c-3.8-3.8-7.1-4.2-9.9-1.5
		c-2.8,2.8-2.4,6.1,1.4,9.9c16,16,32,32.1,48.1,48.1c1.1,1.1,2.7,1.8,4,2.7c-0.3,0.5-0.6,1-1,1.5c-8.6,0-17.2,0-25.7,0
		c-1.8,0-3.7,0-5.5,0c-4.1,0-7,1.7-7,6c0,4.3,2.9,6,7,6c12.8,0,25.7,0.1,38.5-0.1c4.1-0.1,7.1,1,10,4c10.2,10.5,20.7,20.8,31.1,31.1
		c-1.4,1.6-3,0.9-4.3,0.9c-9,0.1-18,0-27,0.1c-4.7,0-7.7,2.5-7.3,6.2c0.4,4.3,3.2,5.8,7.2,5.8c13.2-0.1,26.3,0.1,39.5-0.1
		c3.5-0.1,5.8,1.1,8.2,3.5c14.4,14.6,28.9,29,43.5,43.5c1.1,1.1,2.8,1.7,4.2,2.6C280.2,622.1,279.8,622.6,279.4,623.2z"/>
</g>
</svg>
