<?xml version="1.0" encoding="utf-8"?>
<!-- Generator: Adobe Illustrator 19.0.0, SVG Export Plug-In . SVG Version: 6.00 Build 0)  -->
<svg version="1.1" id="Calque_1" xmlns="http://www.w3.org/2000/svg" xmlns:xlink="http://www.w3.org/1999/xlink" x="0px" y="0px"
	 viewBox="0 0 612 792" style="enable-background:new 0 0 612 792;" xml:space="preserve">
<g>
	<path d="M51,553c5-15.7,11.7-20.9,28.9-21.9c9.5-0.5,19-0.6,28.5-0.6c30.7-0.2,61.3-0.5,92-0.3c15,0.1,28.7-3.7,41.2-11.7
		c28.9-18.5,57.6-37.3,86.2-56.2c3.8-2.5,7.2-6,10.1-9.6c6.4-8.3,6.2-18,0-24.6c-7.5-8-16.2-9.2-25.6-3.2
		c-33.1,21.2-66.1,42.6-99.2,63.7c-4.1,2.6-8.9,4.4-13.6,5.9c-3.4,1.1-7.2,1.5-10.8,1.6c-16,0.6-24.6-9-22.3-24.9
		c1.2-8.5,4.8-15.5,12.1-21c43.4-32.3,86.8-64.8,129.8-97.6c11.3-8.6,23.8-12.2,37.4-13.4c4-0.4,8-0.4,12-0.4
		c53.7,0,107.3,0.1,161-0.1c15.4-0.1,25.8,5.9,32.2,20.2c14.7,32.4,15.7,64.5,1,97.1c-5.8,12.9-16,18.7-29.7,18.9c-16,0.2-32,0-48,0
		c-14.2,0-27,3.8-39,11.8c-38.6,25.9-77.6,51.2-116.3,76.8c-17.8,11.8-37.2,17.5-58.4,17.4c-59-0.1-118,0-177-0.1
		c-3.6,0-7.3-0.4-10.8-1.4C60.1,576,52.6,568.1,51,555C51,554.3,51,553.7,51,553z"/>
	<path d="M135.9,213.6c20.5,29.1,40.8,57.9,53.3,91c14.2,37.4-19,78.7-58.8,74c-32.4-3.8-54.6-30.4-51.2-62.8
		c0.8-8.1,4.2-16.1,7.4-23.7c11.9-28.1,28.9-53.2,47.6-77.1C134.5,214.6,134.9,214.4,135.9,213.6z"/>
</g>
</svg>
