<?xml version="1.0" encoding="utf-8"?>
<!-- Generator: Adobe Illustrator 19.0.0, SVG Export Plug-In . SVG Version: 6.00 Build 0)  -->
<svg version="1.1" id="Calque_1" xmlns="http://www.w3.org/2000/svg" xmlns:xlink="http://www.w3.org/1999/xlink" x="0px" y="0px"
	 viewBox="0 0 612 792" style="enable-background:new 0 0 612 792;" xml:space="preserve">
<style type="text/css">
	.st0{fill:#2B2A29;}
</style>
<g>
	<path class="st0" d="M286.6,426.7c61.5,0,123,0,184.5-0.1c3.9,0,5.7,0.4,5,5c-9.9,65.9-39,120.6-93,161.1
		c-7.1,5.3-14.4,7.6-23.4,7.5c-51.3-0.4-102.6-0.2-154-0.1c-3.5,0-6.4-0.9-9.3-2.7c-47.5-29.9-76.7-73.2-92.3-126.4
		c-3.8-13.1-6-26.6-7.7-40.2c-0.5-4.1,1-4.3,4.2-4.2c26.2,0.1,52.3,0,78.5,0C214.9,426.7,250.7,426.7,286.6,426.7
		C286.6,426.7,286.6,426.7,286.6,426.7z"/>
	<path class="st0" d="M452.5,358.4c12.4,0,23.6,0,34.9,0c6.5,0,12.5,1.2,17.8,5.4c14.3,11.3,12.7,33-3.2,42.1c-2.4,1.3-4.8,2-7.6,2
		c-138.8,0-277.6,0-416.4,0c-12.1,0-22.8-14.2-20.7-27.3c2.2-13.4,12.1-21.8,26.7-21.9c22.2-0.2,44.3-0.1,66.5,0
		c83.3,0,166.6,0,249.9,0.1c2.7,0,4.6-0.6,6.4-2.8c15.7-19.2,31.5-38.4,47.4-57.4c2.1-2.5,1.4-4.3,0.4-6.7
		c-7.8-19.8-2-40.1,16.3-57.1c13.6-12.7,34.7-15.7,51.6-7.5c20.1,9.7,31.1,32.7,24.2,54c-6.8,20.9-20.4,35.5-43.2,39.5
		c-5.3,0.9-10.7,0.4-15.9-0.7c-2.1-0.4-3.3-0.2-4.7,1.5C473.2,333.4,463.2,345.5,452.5,358.4z"/>
	<path class="st0" d="M255.7,266.2c0.4-35.3,16.5-62.3,44.3-83c24.9-18.6,53.7-27.3,83.9-32.2c19.1-3.1,38.4-4.3,57.7-2
		c6.3,0.8,12.6,1.7,17.2,6.9c1.7,1.9,3.3,3.8,2.5,6.6c-0.8,2.8-3.4,2.8-5.6,3.3c-12.1,2.6-23.2,7-32.5,15.4
		c-9.2,8.2-11.5,19.1-12,30.7c-0.7,16.1,0.5,32.3-1.1,48.4c-3.3,32.7-16.5,59-47.4,73.9c-8,3.9-16.4,6.3-25.2,7.5
		c-16.9,2.2-27.8-9.8-23.8-26.2c7.7-31.5,18.9-61.3,40.8-86.1c2-2.2,3.4-4.9,5-7.4c0.8-1.3,1.5-2.8,0.2-4.1
		c-1.3-1.3-2.9-0.4-4.2,0.3c-5.5,2.9-10.3,6.7-14.8,10.9c-15.3,14.8-23.5,33.6-30.4,53.2c-4,11.3-7,22.9-10,34.4
		c-0.4,1.4-0.7,2.9-1.2,4.3c-3.9,11.5-12.4,13.7-21.3,5.4c-11.1-10.4-16.3-24.1-19.7-38.5C256.3,280.8,255.6,273.6,255.7,266.2z"/>
	<path class="st0" d="M148.1,276c0-5.3,0.1-10.7,0-16c-0.2-10.6-5.8-17.7-14.9-22.4c-4.2-2.1-8.6-3.6-13.1-4.6
		c-4.1-0.9-3.9-3-1.9-5.7c1.9-2.5,4.7-3.9,7.7-4.2c35.8-3.4,69.6,1.9,98.1,25.6c22.2,18.4,28.4,49,16.3,74.3
		c-2,4.1-4.3,7.9-7.7,10.9c-6,5.4-11.1,4.2-13.5-3.5c-2.2-6.8-3.8-13.8-6-20.6c-4.5-14-10-27.6-21.2-37.8c-2.3-2.1-5-3.8-7.6-5.7
		c-1-0.7-2.2-1.3-3.2-0.4c-1.2,1-0.2,2.3,0.4,3.1c1.4,2.2,3,4.4,4.7,6.4c12.9,15.3,19.4,33.6,23.8,52.6c2.4,10.3-5.6,17.3-16.6,15.3
		c-23.4-4.3-39.4-20.6-43.3-44.3C148.7,291.7,148.8,283.8,148.1,276z"/>
</g>
</svg>
