<?xml version="1.0" encoding="utf-8"?>
<!-- Generator: Adobe Illustrator 19.0.0, SVG Export Plug-In . SVG Version: 6.00 Build 0)  -->
<svg version="1.1" id="Calque_1" xmlns="http://www.w3.org/2000/svg" xmlns:xlink="http://www.w3.org/1999/xlink" x="0px" y="0px"
	 viewBox="0 0 612 792" style="enable-background:new 0 0 612 792;" xml:space="preserve">
<style type="text/css">
	.st0{fill:#37474F;}
	.st1{fill:#FDFDFD;}
	.st2{fill:#FAFAFA;}
	.st3{fill:#3F4E56;}
</style>
<g>
	<path class="st0" d="M131.9,528.1c7.2-0.8,12.9-0.1,19,2.8c15.5,7.4,32.4,8.9,49.2,9c56.5,0.3,113,1.1,169.5-1
		c22.6-0.8,45.2-3,67-9.9c6.4-2,12.5-4.7,18.2-8.1c14.6-8.7,21.6-21.8,21.2-38.7c-0.4-17.3-3.4-34.1-11.8-49.5
		c-2.6-4.9-6-9.2-9.9-13.1c-6.4-6.5-12.5-10.5-22.9-6.8c-16.4,5.8-34,6.2-51.3,6.3c-25.7,0.2-51.3,0-77.1,0c2.2-7.9,2.6-8.2,9.9-8.2
		c24.7,0,49.3,0.4,74-0.1c16.6-0.3,33.2-2,49.2-7.5c32.4-11.1,42.3-45.4,20.7-72.3c-10.9-13.6-26-20.8-41.9-26.8
		c-9.2-3.5-18.1-4.3-28.1-1.9c-19.7,4.8-40,4.6-60.2,4.3c-25.8-0.3-51.6-1.5-76.7-8.9c-3.9-1.2-7.5,1-11.1,2c-4.4,1.3-4-3-5.9-4.6
		c-2.4-2.2,1.3-2.2,1.4-3.7c-2-1.2-4-2.2-5.9-3.5c-18-11.9-22.1-33.2-9.9-51c7.6-11.1,18.4-18.1,30.2-23.9c2.8-1.4,5.7-2.6,8.5-3.9
		c-0.4-0.7-0.5-1.1-0.7-1.2c-16.9-9.5-15.2-28.9-5.9-41c8.3-10.8,19.7-17.5,32.3-21.6c32.7-10.6,64.9-9.6,95.8,6.6
		c7.3,3.8,13.6,9,18.4,15.8c9.9,13.8,8.6,27.3-4,38.9c7.4,3.5,14.7,7.2,21.1,12.3c10.7,8.4,18.6,18.6,20.6,32.4
		c2.7,17.9-3.5,31.7-19.2,40.9c-1.1,0.7-2.2,1.4-3.9,2.4c9.2,3.4,18.1,6.5,26.3,11.1c14.5,8,26.5,18.3,33,34.1
		c8.5,20.3,6.2,51-18.5,64.4c-1.5,0.8-2.5,1.6-0.5,3.1c21.3,15.9,27.8,38.8,30.9,63.6c1,8.3,1.3,16.6-0.6,24.8
		c-3.4,15.1-12.6,25.8-25.9,33.2c-14.2,7.9-29.7,11.4-45.6,13.9c-22.8,3.6-45.7,4.5-68.7,4.8c-44.3,0.5-88.7,0.9-133,0.7
		c-19.8-0.1-39.6-1.2-58.5-8.5C144.2,537.3,137.9,533.8,131.9,528.1z"/>
	<path class="st0" d="M134.3,342.3c-1.8-6.8-4.3-12.6-5.7-18.7c-2.6-11.5,0.5-21,8.6-29.2c11.4-11.7,25.7-18.8,40.5-24.9
		c1.5-0.6,2.8-0.4,4.3,0.2c13.3,5.5,25.9,12.1,36.9,21.6c12,10.4,15.7,23,10.3,38.1c-1.4,4-2.8,8.1-4.4,13
		c5.6-3.9,10.2-7.7,15.3-10.9c10.6-6.7,21.3-6.6,32.2-0.9c14.1,7.5,25.2,18.4,35.3,30.4c1,1.2,1.4,2.6,1.2,4.2
		c-1.3,13.3-3.1,26.5-8.1,38.9c-7.3,18.1-17.2,24.7-36.8,24.4c-3.4,0-6.9-0.3-11.5-0.5c4.4,3.1,7.8,5.5,11.2,7.9
		c14,9.6,18.2,22.6,14,38.8c-3.5,13.5-9.7,25.8-16.9,37.6c-0.7,1.2-1.6,2.2-3,2.5c-15.6,3.6-31.3,6.4-47.5,3.9
		c-14.2-2.2-22.3-10.9-26.5-24c-1.4-4.4-2.7-8.8-4.3-13.9c-1.7,6.7-3.4,12.5-5.7,18.2c-4.7,12.1-13.9,18.2-26.4,19.9
		c-15.5,2.2-30.5-0.6-45.5-4c-1.6-0.4-2.6-1.4-3.4-2.7c-8.3-13.7-15.6-27.8-17.9-44c-1.6-10.9,1.2-20,9.4-27.5
		c4.9-4.5,10.4-8.4,16.3-12c-1.4-1.3-2.9-0.7-4.2-0.6c-4.5,0.4-9,0.2-13.5,0c-12.3-0.6-21-6.4-26.7-17.2
		c-7.5-14.5-10-30.2-11.3-46.2c-0.1-1.8,0.5-3.2,1.6-4.5c8.6-10.1,17.9-19.3,29.1-26.5c16.7-10.6,27.7-10.1,43.6,1.4
		C127.9,337.3,130.7,339.6,134.3,342.3z"/>
	<path class="st1" d="M331.3,297.8c-25.5,0.4-51-0.1-75.8-6.8c-8-2.2-15.8-5.1-22.8-9.8c-13.7-9.2-17.1-24.3-8.5-38.4
		c2.8-4.6,6.5-8.4,10.6-11.9c5.7-4.7,12.1-8.2,18.6-11.5c8.5-4.2,16.6-5.5,26.5-4c33.7,4.9,67.6,5.9,101.1-3.1
		c1.3-0.4,2.7-0.6,3.9-0.1c12.7,4.9,24.7,11,33.5,21.9c17.4,21.5,10.1,46-16.7,56c-13.1,4.9-26.8,6.8-40.6,7.6
		C351.3,298.3,341.3,297.8,331.3,297.8z"/>
	<path class="st1" d="M323.6,209.9c-17.9,0.3-35.8,0.1-53.4-4.7c-19.7-5.4-24.8-21.4-10.6-36.4c9.2-9.8,21.1-15.1,33.8-18.1
		c29.3-7.1,57.7-5.5,84.4,10.1c6.5,3.8,12,8.9,15.4,15.9c5.7,11.7,1.5,21.6-10.6,26.4c-10.5,4.1-21.4,6.1-32.5,6.7
		C341.2,210.3,332.4,209.9,323.6,209.9z"/>
	<path class="st1" d="M261.8,420.4c-12.7-0.4-25.1-2.8-37.4-5.9c-1.3-0.3-2.6-0.7-3.9-0.9c-2.2-0.3-4,0.4-4.6,2.8
		c-0.6,2.2,0.2,3.9,2.4,4.8c4.6,1.9,9.2,3.8,13.8,5.9c9.3,4.2,18.3,8.8,26.4,15c12.4,9.3,15.1,16.6,11.2,31.6
		c-2.9,11.2-8,21.5-13.8,31.4c-0.9,1.5-1.9,2.5-3.8,2.9c-12.4,2.4-24.9,4.6-37.7,3.1c-11-1.2-18.6-6.4-22.4-17
		c-5-13.9-7-28.4-8.1-43c-0.2-3.2,1.1-8-4-8.3c-5.8-0.3-4.4,5-4.6,8.2c-1,12.3-2.4,24.5-5.9,36.4c-5.3,18.1-11.7,23.4-30.4,24.2
		c-10.9,0.5-21.6-1.5-32.2-3.7c-1.4-0.3-2.4-1-3.1-2.3C97,494.1,91.2,482.3,88.7,469c-2-10.3,1.1-18.2,9.2-24.7
		c11.6-9.3,24.8-15.4,38.3-21.1c1.4-0.6,2.8-1.1,4.2-1.7c2.4-1,4-2.6,2.9-5.4c-0.9-2.6-2.9-2.8-5.3-2.3c-9.4,2.3-18.8,4.4-28.4,5.7
		c-6.1,0.8-12.3,0.8-18.5,0.9c-11.6,0.1-19.2-5.5-23.6-15.9c-5.1-11.7-7.6-24.1-8.6-36.7c-0.2-1.8,0.2-3.2,1.5-4.5
		c8.4-9.3,17.3-17.9,28.2-24.4c9.9-5.9,19.2-6,28.9,0.8c10.9,7.6,20.1,16.9,28.8,26.8c1.6,1.9,3.3,3.8,4.8,5.7
		c1.7,2.1,3.8,3,6.1,1.4c2.4-1.6,2-3.8,0.6-6.1c-4.1-7-8.4-14-12.2-21.2c-4-7.5-7.1-15.4-9.1-23.7c-2.1-8.7-0.2-16.2,6.2-22.5
		c10.1-10,22.3-16.7,35.3-22.2c1.4-0.6,2.6-0.4,3.8,0.2c12.4,5.4,24.2,11.8,34.1,21.3c7.2,6.9,9.2,15,6.6,24.6
		c-4.1,14.8-11.4,28-19.3,40.9c-1.6,2.7-5,5.8-1.1,8.6c3.8,2.8,5.9-1.2,7.9-3.6c9.3-10.9,19.1-21.3,30.9-29.7
		c10.2-7.4,20-7.5,30.6-0.9c10.6,6.6,19.5,15,27.7,24.3c1.1,1.2,1.6,2.4,1.4,4c-1.2,10.6-2.7,21.1-6.5,31.2
		C287.3,416.7,280.9,420.9,261.8,420.4z"/>
	<path class="st0" d="M229.1,401.2c-10.6,1.6-21.2,3.2-32.1,4.9c7.9,7.8,15.6,15.4,23.2,23c-0.3,0.4-0.5,0.7-0.8,1.1
		c-7.9-3.5-15.9-7-24.6-10.9c1,10.2,2,19.5,2.9,28.9c-0.2,0.1-0.4,0.2-0.7,0.3c-4.8-9.6-9.7-19.3-14.9-29.8
		c-5.3,10.3-10.2,20.1-15.2,29.9c-0.2-0.1-0.4-0.2-0.6-0.3c0.9-8.8,1.8-17.7,2.8-27.2c-9.3,4.1-18.1,7.9-28.2,12.4
		c8.6-8.8,16.2-16.5,24.2-24.7c-11.1-1.7-21.9-3.4-32.6-5.1c0-0.2-0.1-0.4-0.1-0.6c8.7-1.9,17.3-3.7,26.9-5.8
		c-6.8-7.6-13.1-14.6-19.4-21.7c0.2-0.2,0.3-0.4,0.5-0.6c9.7,5,19.3,10,29.6,15.3c-1.8-11.2-3.5-21.9-5.2-32.5
		c0.3-0.1,0.5-0.2,0.8-0.3c4.3,7.5,8.7,15,13.4,23.2c5-8.5,9.6-16.4,14.3-24.3c0.3,0.1,0.7,0.2,1,0.3c-1.7,10.3-3.4,20.7-5.3,32
		c10.2-5.2,19.6-10,29.1-14.9c0.2,0.3,0.4,0.5,0.7,0.8c-4.8,5.3-9.5,10.7-14.5,15.9c-2.4,2.6-3.8,4.1,1.3,5c7.9,1.3,15.6,3.3,23.4,5
		C229,400.6,229.1,400.9,229.1,401.2z"/>
	<path class="st2" d="M179.6,390.8c6.7,0,12.2,5.4,12.1,12c-0.1,6.6-5.6,12-12.2,12c-6.6-0.1-11.8-5.6-11.7-12.4
		C167.9,395.8,173,390.8,179.6,390.8z"/>
	<path class="st3" d="M179.8,406.7c-2.1-0.3-3.8-1.2-4-3.6c-0.2-2.6,1-4.2,3.6-4.3c2.4-0.2,3.9,1.2,4.1,3.4
		C183.8,404.8,182.2,406.2,179.8,406.7z"/>
</g>
</svg>
