<?xml version="1.0" encoding="utf-8"?>
<!-- Generator: Adobe Illustrator 19.0.0, SVG Export Plug-In . SVG Version: 6.00 Build 0)  -->
<svg version="1.1" id="Calque_1" xmlns="http://www.w3.org/2000/svg" xmlns:xlink="http://www.w3.org/1999/xlink" x="0px" y="0px"
	 viewBox="0 0 612 792" style="enable-background:new 0 0 612 792;" xml:space="preserve">
<style type="text/css">
	.st0{fill:#414042;}
	.st1{fill:#FDFDFD;}
</style>
<g>
	<path class="st0" d="M430,302c9.8,3,18.4,8.5,26.6,14.3c9.4,6.7,18,14.3,25.5,23.1c1.6,1.8,1.9,3,0.1,5c-18.3,20.1-39.2,36-66.4,42
		c-15,3.3-29.8,1.2-44.5-2.1c-0.6-0.1-1.3-0.2-2.6-0.4c0.8,5.9,1.5,11.5,2.3,17.1c3.5,23.9-2.6,45.5-15.8,65.4
		c-7.6,11.5-16.4,21.8-26.8,30.8c-1.8,1.6-3,2-5,0.2c-21.8-19.8-38.8-42.6-43-72.7c-1.8-12.5,0.1-24.9,2.9-37.2c0.8-3.6,0-4-3.2-3.3
		c-45.2,10.6-79.8-7.8-109.3-40.1c-1.5-1.7-2.7-3-0.5-5.4c18.4-20.2,39.4-36.2,66.8-42.1c14.5-3.1,28.8-1.2,43.1,1.9
		c3.2,0.7,4.2,0.4,3.4-3.1c-9.3-39.2,3.6-71.7,30.4-99.9c3.3-3.5,7.1-6.6,10.5-10c1.7-1.8,3-1.4,4.6,0.1
		c22.2,20.4,39.6,43.6,43.3,74.7c1.4,11.6-0.3,23-2.9,34.2c-1.1,4.6,0,5,4.1,4.2c14.6-2.8,29.4-4.2,44.1-0.8
		c1.5,0.3,2.9,0.8,4.3,1.3C424.2,301.6,427.1,301.7,430,302z"/>
	<path class="st0" d="M213.6,435.3c0.6-15.4,3.3-30.9,9-45.8c1.4-3.7,3-4.5,6.3-2.5c1.1,0.7,2.3,1.3,3.6,1.7c2.6,0.8,2.7,2,1.7,4.4
		c-5.9,14.1-8.1,29.1-8.8,44.3c-0.2,3.3,0.3,4.8,4.2,4.7c14.9-0.4,29.5-2.2,43.4-7.9c3.4-1.4,4.8-1,6.2,2.5c2.9,7.1,3.1,7-4.1,9.6
		c-18.6,6.6-37.8,8.8-57.4,7.2c-3-0.2-3.8-1.4-3.9-4.2C213.5,444.7,213.2,440.3,213.6,435.3z"/>
	<path class="st0" d="M231.5,229.1c15.7,0.8,31,3.2,45.9,8.6c4.1,1.5,4.8,3.1,2.6,6.6c-0.7,1.1-1.2,2.4-1.6,3.6
		c-0.7,2.4-2,2.4-4.1,1.6c-13.9-5.6-28.5-7.4-43.4-8.2c-4-0.2-5.1,0.9-4.9,4.9c0.6,15.4,2.7,30.5,9,44.6c1.1,2.4,0.6,3.3-1.7,4.4
		c-8.2,4.2-8.2,4.3-11.4-4.5c-6.7-18.4-8.9-37.4-7.4-56.9c0.2-2.8,0.9-4.1,4.1-4.1C222.9,229.8,227.2,229.4,231.5,229.1z"/>
	<path class="st0" d="M438.2,247.3c-0.2,16.1-2.9,31.7-8.4,46.9c-1.5,4.2-3.2,6.4-7.5,3.2c-0.8-0.6-1.8-0.9-2.7-1.2
		c-2.3-0.8-3-1.8-1.9-4.4c6.1-14.6,8.2-30,8.9-45.7c0.2-3.4-1-4.2-4.2-4.1c-14.7,0.3-29.2,2.3-42.9,8c-3.3,1.4-4.5,0.6-5.8-2.4
		c-3.1-7.3-3.3-7.3,4.2-9.9c18.1-6.3,36.8-8.6,56-7.1c2.9,0.2,4.5,1,4.3,4.4C438.1,239,438.2,243.1,438.2,247.3z"/>
	<path class="st0" d="M423.9,453.7c-17-0.3-33.8-2.5-49.9-8.5c-3.3-1.2-4.4-2.4-2.4-5.5c0.6-1,1-2.1,1.3-3.2
		c0.9-3.3,2.5-3.8,5.8-2.5c13.8,5.4,28.3,7.2,43,7.9c3.3,0.2,4.4-0.8,4.2-4.1c-0.8-14.2-2.4-28.2-7.7-41.5c-1.5-3.7-1-5.4,3-6.8
		c6.7-2.4,6.6-2.7,8.9,3.9c6.1,17.5,8.2,35.6,7.7,54c-0.1,4.6-1.8,6.6-6.4,6.3C428.9,453.6,426.4,453.7,423.9,453.7z"/>
	<path class="st0" d="M430,302c-3.5,1.3-6.6,1.7-8-2.8C424.9,299.7,427.6,300.4,430,302z"/>
	<path class="st1" d="M350.3,317.5c8.8-2.1,16.4-5,24.2-6.9c36.5-8.7,66,4.1,91.6,29.2c1.7,1.6,1.9,2.6,0.1,4.3
		c-16.5,15.6-34.6,28.4-57.8,31.3c-16.7,2.1-32.8-1.7-48.5-6.9c-2.7-0.9-5.4-1.8-8-2.6c-0.3-0.1-0.6,0.1-1.2,0.3
		c2.1,7.7,4.8,15.1,6.6,22.8c8.9,36.6-3.5,66.3-28.9,92.1c-1.5,1.5-2.5,2.3-4.4,0.4c-15.5-16.3-28.2-34.2-31.3-57.2
		c-2-14.8,0.8-29.2,5-43.3c1.4-4.9,3.1-9.7,4.9-15.3c-6.8,2-12.7,3.8-18.7,5.5c-38,10.9-69.7-0.5-96.9-27.7
		c-1.5-1.5-2.3-2.5-0.3-4.4c18-17.1,37.9-30.7,63.7-31.9c15.7-0.7,30.7,3.1,45.4,8.2c1.7,0.6,3.5,1.1,5.2,1.6
		c0.2,0.1,0.6-0.1,1.2-0.3c-1.8-6.1-3.8-12.3-5.5-18.4c-10.6-37.9,0.9-69.4,27.9-96.4c1.5-1.5,2.5-2.2,4.3-0.3
		c15.9,16.9,29,35.3,31.6,59.2c1.7,16-2,31.4-6.8,46.6C352.6,310.5,351.6,313.5,350.3,317.5z"/>
	<path class="st0" d="M316.1,346.9c3.6-2.1,2.4-4.4,0.4-6.5c-2.5-2.6-2.6-4.7,1-6.3c2.7-1.2,4.5-5.9,8.4-2.3c3.3-4.5,5.4,0.2,8,1.1
		c3.8,1.4,4.7,3.7,1.7,6.9c-2.4,2.6-2.1,5,1.1,7.4c3.4-7,6.9-13.9,10-21c1.3-3.1,2.7-3.4,5.5-1.9c7.1,3.5,7.1,3.4,3.8,10.4
		c-4.3,9-8.5,18-12.9,27c-2,4.3-7.8,4.8-10.7,1c-2-2.6-3.9-5.4-6.1-8.4c-1.6,2.5-3.1,4.7-4.5,6.9c-3.7,5.7-9.1,5.5-12.2-0.5
		c-5.1-9.7-10.1-19.5-15.3-29.1c-1.4-2.5-1.5-3.8,1.4-5.3c7.5-3.9,7.4-4.1,11.3,3.4C310.1,335.4,313.1,341.1,316.1,346.9z"/>
</g>
</svg>
