<?xml version="1.0" encoding="utf-8"?>
<!-- Generator: Adobe Illustrator 19.0.0, SVG Export Plug-In . SVG Version: 6.00 Build 0)  -->
<svg version="1.1" id="Calque_1" xmlns="http://www.w3.org/2000/svg" xmlns:xlink="http://www.w3.org/1999/xlink" x="0px" y="0px"
	 viewBox="0 0 612 792" style="enable-background:new 0 0 612 792;" xml:space="preserve">
<g>
	<path d="M419,132c1.7,0,3.3,0,5,0c4.6,2.5,6.1,6.3,6.1,11.5c-0.2,22.5-0.1,45-0.1,67.5c0,1.9,0,3.9,0,6.2c9.1,0,17.6,0,26,0
		c15.7,0,16.6,0.9,16.6,16.7c0,132.4,0,264.9,0.1,397.3c0,5.3-0.9,9.8-5.7,12.8c-77.7,0-155.3,0-233,0c0-140.3,0-280.7,0-421
		c1.9-1.8,3.5-4.2,5.7-5.2c32.6-15.7,65.3-31.2,98-46.8C364.8,158,391.9,145,419,132z M455.2,234.8c-68.2,0-135.9,0-203.9,0
		c0,130.9,0,261.3,0,391.9c68.1,0,135.8,0,203.9,0C455.2,496.1,455.2,365.6,455.2,234.8z M412.7,154.2
		c-43.6,20.8-86.7,41.4-131,62.5c44.7,0,87.8,0,131,0C412.7,195.8,412.7,175.4,412.7,154.2z"/>
	<path d="M353.3,398.9c-11,8.8-21.9,17.5-32.8,26.2c-0.7,0.5-1.3,1-1.9,1.6c-3.7,3.3-7.8,5.4-12.6,2.3c-3.8-2.4-4.4-6.2-2.4-12.5
		c4.2-12.8,8.3-25.6,12.8-38.3c1.2-3.5,0.5-5.3-2.3-7.5c-10.8-8.4-21.3-17-32.1-25.4c-3.9-3-6.5-6.4-4.7-11.5
		c1.8-4.8,5.9-5.7,10.6-5.6c12.8,0.1,25.6-0.1,38.5,0.1c3.2,0,4.7-0.9,5.8-3.9c4.1-10.7,8.5-21.3,12.7-32c1.6-4.2,4.2-6.8,8.9-6.6
		c4.5,0.2,6.8,3,8.3,6.8c4.2,10.7,8.5,21.3,12.6,32c1.1,2.8,2.6,3.7,5.5,3.7c12.8-0.1,25.6,0,38.5-0.1c4.8,0,9.1,0.8,10.9,6
		c1.7,5.1-1.2,8.3-5,11.3c-11,8.6-21.8,17.5-32.9,26.1c-2.4,1.8-2.4,3.4-1.5,5.9c4.5,13.2,8.8,26.5,13.2,39.8
		c1.9,5.9,1.1,9.6-2.8,12c-4.4,2.7-8.1,1.1-11.8-1.9C377,417.8,365.3,408.5,353.3,398.9z M395.6,346.5c-0.1-0.4-0.2-0.8-0.3-1.2
		c-7.8,0-15.5-0.1-23.3,0c-5.2,0.1-8.4-2-10.2-6.9c-2.5-6.8-5.4-13.4-8.5-21.1c-3,7.5-5.6,13.9-8.2,20.4c-2.6,6.4-4.2,7.6-11.2,7.6
		c-7.6,0-15.1,0-22.7,0c6.1,6.2,12.5,11.4,19,16.5c6.8,5.4,7.3,7.2,4.5,15.4c-2,6.1-4,12.2-6.1,18.2c6.4-3.8,11.8-8.1,17.3-12.5
		c6-4.7,9.2-4.6,15,0.1c5.4,4.4,10.9,8.7,16.4,13.1c-1.5-7.5-3.7-14.3-6-21c-1.8-5.1-0.6-9,3.7-12.3
		C381.9,357.6,388.7,352,395.6,346.5z"/>
	<path d="M353.5,575.8c18.3,0,36.7,0,55,0c1.3,0,2.7,0,4,0c5.3,0.3,8.7,3.4,8.8,8.2c0.1,5-3.4,8.6-8.9,8.8c-5.7,0.2-11.3,0-17,0
		c-33.2,0-66.3,0-99.5,0c-1.2,0-2.4,0.1-3.5-0.1c-4.4-0.8-7.5-4.5-7.4-8.7c0.1-4.5,3.6-8.1,8.4-8.1c11.8-0.1,23.7-0.1,35.5-0.1
		C337.2,575.8,345.4,575.8,353.5,575.8z"/>
	<path d="M353.4,541.7c8.1,0,16.3-0.1,24.4,0c5.8,0.1,9.2,3.1,9.4,8.1c0.2,5.2-3.3,8.9-9.2,8.9c-16.6,0.1-33.2,0.1-49.9,0
		c-5.4,0-9.1-3.9-9-8.7c0.1-4.8,3.7-8.2,9.3-8.3C336.8,541.6,345.1,541.7,353.4,541.7z"/>
</g>
</svg>
