<?xml version="1.0" encoding="utf-8"?>
<!-- Generator: Adobe Illustrator 19.0.0, SVG Export Plug-In . SVG Version: 6.00 Build 0)  -->
<svg version="1.1" id="Calque_1" xmlns="http://www.w3.org/2000/svg" xmlns:xlink="http://www.w3.org/1999/xlink" x="0px" y="0px"
	 viewBox="0 0 612 792" style="enable-background:new 0 0 612 792;" xml:space="preserve">
<g>
	<path d="M388.9,262.6c-4.3-0.3-8.7-0.1-13-0.1c-6.1-0.1-6.4-0.4-6.4-6.6c0-18.1,0-36.3,0-54.4c0-12.3-5.8-19.7-17.5-22.5
		c-3.3,0-6.7,0-10,0c-2.6,0.9-5.4,1.2-8,2.5c-55.2,27.7-110.4,55.2-165.6,82.8c-7,3.5-12.4,8.3-13.4,16.6c0,131.3,0,262.7,0,394
		c1.9,9.4,7.6,14.6,17,16c74,0,148,0,222,0c9.4-1.3,15-6.7,17-16c0-131.3,0-262.7,0-394C408.1,269.2,401.3,263.5,388.9,262.6z
		 M325.7,234.8c0,9.5,0,18.4,0,27.2c0,1.8-0.9,2.2-2.5,2.2c-18.1,0-36.2,0-54.3,0c-0.1-0.3-0.2-0.6-0.2-0.9
		C287.5,253.9,306.2,244.6,325.7,234.8z M220,371c12.4,0,24.8-0.1,37.2,0.1c3.3,0.1,5-0.9,6.4-3.9c6.1-12.7,12.5-25.3,19.3-38.9
		c6.9,13.7,13.3,26.4,19.6,39.2c1.3,2.6,2.7,3.5,5.6,3.5c12.5-0.2,25-0.1,37.5-0.1c0.5,1.8-1.1,2.3-1.9,3.2
		c-9.2,9.4-18.3,18.9-27.7,28.1c-2.4,2.3-2.7,4.4-2,7.4c3.9,14.9,7.5,29.9,11.3,45c-2,0.6-2.6-0.8-3.6-1.6
		c-11.9-9.4-23.8-18.8-35.5-28.4c-2.6-2.2-4.2-2-6.7,0.1c-11.3,9.3-22.8,18.4-34.3,27.5c-1.3,1-2.3,2.5-4.6,2.8
		c2.3-9.7,4.4-19.2,6.6-28.7c1.4-6,2.7-12,4.3-17.9c0.7-2.6,0.1-4.3-1.8-6.1c-10.4-9.8-20.7-19.6-31.1-29.5
		C219.2,372.2,219.6,371.6,220,371z M325.7,542.1c-0.4,11.7-9.7,20.7-21.8,20.8c-7.2,0.1-14.3,0-21.5,0c-6.8,0-13.6,0.1-20.5,0
		c-12.1-0.1-21.4-9.1-21.8-20.8c-0.4-11.4,8.8-21.5,20.8-21.8c14.6-0.4,29.3-0.4,43.9,0C316.9,520.7,326.1,530.7,325.7,542.1z
		 M324.2,627c-7,0-14,0-21,0c-6.8,0-13.7,0-20.5,0c-13.7,0-27.3,0-41,0c-13.2,0-22.8-9-22.8-21.3c0-12.2,9.6-21.4,22.7-21.4
		c27.5-0.1,55-0.1,82.5,0c13.2,0,22.8,9.1,22.8,21.4C346.9,618,337.4,626.9,324.2,627z"/>
</g>
</svg>
