<?xml version="1.0" encoding="utf-8"?>
<!-- Generator: Adobe Illustrator 19.0.0, SVG Export Plug-In . SVG Version: 6.00 Build 0)  -->
<svg version="1.1" id="Calque_1" xmlns="http://www.w3.org/2000/svg" xmlns:xlink="http://www.w3.org/1999/xlink" x="0px" y="0px"
	 viewBox="0 0 612 792" style="enable-background:new 0 0 612 792;" xml:space="preserve">
<g>
	<path d="M338,127c1.7,0,3.3,0,5,0c4.6,2.5,6.1,6.3,6.1,11.5c-0.2,22.5-0.1,45-0.1,67.5c0,1.9,0,3.9,0,6.3c2.4,0,4.2,0,6,0
		c8.7,0,17.3-0.1,26,0c7.5,0.1,10.5,3.1,10.6,10.7c0,1,0,2,0,3c0,133.7,0,267.5,0.1,401.2c0,5.1-1.3,9.1-5.7,11.8
		c-77.6,0-155.2,0-233,0c0-140,0-280,0-420c2.6-2.4,4.8-5.6,7.8-7.1c31.3-15.2,62.7-30,94-45C282.6,153.6,310.3,140.3,338,127z
		 M263.6,289.6c-1.6,0.3-2.9,0.5-4.2,0.8c-32.5,6.3-55,32.3-56.2,64.8c-0.2,6.8,2.8,10.7,8.9,10.8c40,0.1,79.9,0.1,119.9,0
		c6.1,0,9.3-3.4,9.2-9.4c-0.3-20.4-8.1-37.5-23.6-50.9c-10.4-9.1-22.8-14-36.5-16c-1-7.1,2.3-17.5-9.2-17.2
		C261.2,272.6,264.6,282.5,263.6,289.6z M331.6,211.9c0-20.6,0-41.3,0-62.7c-43.5,20.8-86.6,41.3-129.7,61.9
		c0.1,0.3,0.2,0.5,0.2,0.8C245.1,211.9,288.2,211.9,331.6,211.9z M272.5,400c22,0,44,0.1,66-0.2c3,0,6.7-1.5,8.6-3.6
		c1.5-1.7,1.6-5.7,0.9-8.2c-1.1-3.9-4.8-5.1-8.8-5.1c-19,0.1-38,0-57,0c-25.5,0-51,0-76.5,0c-5.7,0-9.2,2.6-9.8,7.2
		c-0.8,5.8,3,9.8,9.6,9.8C227.9,400.1,250.2,400,272.5,400z M272.5,570.8C272.5,570.8,272.5,570.8,272.5,570.8
		c-19.3,0-38.6-0.1-58,0.1c-2.5,0-6,0.6-7.2,2.2c-1.7,2.3-2.8,6-2.3,8.9c0.8,4.5,4.8,5.9,9.2,5.9c38.6,0,77.3,0,115.9,0
		c6.7,0,10.4-3.4,10.2-8.9c-0.2-5.3-3.7-8.1-10.4-8.1C310.8,570.8,291.6,570.8,272.5,570.8z M272.5,536.7c-8,0-16,0-24,0
		c-6.4,0-10.2,3.3-10.3,8.4c-0.1,5.1,3.9,8.6,10.1,8.6c16,0.1,32,0.1,48,0c6.3,0,10-3.4,9.9-8.7c-0.1-5.1-3.6-8.2-9.8-8.3
		C288.5,536.6,280.5,536.7,272.5,536.7z"/>
	<path d="M323.1,348.8c-34.1,0-67.9,0-101.7,0c1.2-22.6,24.8-42.4,50.6-42.6C297.7,305.9,321.7,325.7,323.1,348.8z"/>
</g>
</svg>
