<?xml version="1.0" encoding="utf-8"?>
<!-- Generator: Adobe Illustrator 19.0.0, SVG Export Plug-In . SVG Version: 6.00 Build 0)  -->
<svg version="1.1" id="Calque_1" xmlns="http://www.w3.org/2000/svg" xmlns:xlink="http://www.w3.org/1999/xlink" x="0px" y="0px"
	 viewBox="0 0 612 792" style="enable-background:new 0 0 612 792;" xml:space="preserve">
<style type="text/css">
	.st0{fill:#EEEBDE;}
	.st1{fill:#D4CFB9;}
	.st2{fill:#D3CFB9;}
</style>
<g>
	<path class="st0" d="M318,639c-75,0-150,0-225,0.1c-3.4,0-4.1-0.7-4.1-4.1C89,495,89,355,89,215c0.7-1.2,1.8-1.8,3.2-1.6
		c33.3-0.7,66.6-0.2,99.9-0.3c25-0.1,50,0,75,0c2.3,0,4.7,0,7,0.3c13-0.7,26-0.4,38.9-0.2c5,0.1,6.4,1.8,6.9,6.7c0.2,2,0.1,4,0.1,6
		c0,134.2,0,268.4,0,402.6C319.9,632.1,320.8,635.9,318,639z"/>
	<path class="st1" d="M91.1,214.1c18-8.5,36-17.1,54-25.6c23.9-11.3,47.7-22.6,71.6-33.9c18.1-8.6,36.2-17.3,54.4-26.1
		c0.7-0.3,1.3-1,1.9-1.5c0.3,0,0.7,0,1,0c0,29.3,0,58.7,0,88c-59.1,0-118.1,0-177.2,0C94.9,215,92.8,215.7,91.1,214.1z"/>
	<path class="st2" d="M203.5,365c-20.4,0-40.9,0-61.3,0c-6.8,0-10.4-3.6-10.2-10.5c1.1-28.4,18.2-53.8,45.6-63.8
		c4.6-1.7,9.2-3.9,14.4-3.8c2,0,2.9-1.3,3-3.3c0-2.3-0.1-4.7,0.1-7c0.3-4.7,4.5-8.7,8.7-8.6c4.3,0.1,8,4.1,8.3,8.9
		c0,0.2,0,0.3,0,0.5c0.5,8.6,0.5,8.5,8.6,10.6c28,7.1,45.5,24.9,52.9,52.6c1.4,5.4,1.9,11.1,1.4,16.8c-0.4,4.9-3.4,7.6-8.7,7.6
		c-13.1,0.1-26.2,0-39.4,0C219.1,365,211.3,365,203.5,365z"/>
	<path class="st1" d="M203.7,383c22.7,0,45.3,0,68,0c6.9,0,11.4,3.6,11.3,9.1c0,5.5-4.5,8.9-11.5,8.9c-44.8,0-89.6,0-134.5,0
		c-3.9,0-7.9-0.4-10.5-3.5c-2-2.4-3.6-5.4-1.8-8.8c1.9-3.7,4.7-5.8,9.1-5.8c13.5,0.1,27,0,40.5,0C184.1,383,193.9,383,203.7,383z"/>
	<path class="st1" d="M203.7,577c19.8,0,39.6,0,59.4,0c6.6,0,10.8,3.3,10.9,8.4c0.1,5.9-4,9.6-10.8,9.6c-40.1,0-80.2,0-120.3,0
		c-5.6,0-9.9-3.9-9.9-9c-0.1-5,4.1-9,9.8-9C163.1,577,183.4,577,203.7,577z"/>
	<path class="st1" d="M204,542c8.6,0,17.3,0,25.9,0c4.3,0,8.5,3.7,9,7.7c0.5,4-2.7,8.3-7.1,9.4c-2.3,0.6-4.5,0.9-6.9,0.9
		c-15.5-0.1-30.9,0-46.4,0c-5.2,0-8.7-3.1-9.8-8.1c-1-4.6,1.2-7.2,4.9-9.2c1.6-0.8,3.2-0.7,4.9-0.7C187,542,195.5,542,204,542z"/>
	<path class="st0" d="M204.1,348c-16,0-31.9-0.1-47.9,0.1c-4.9,0.1-5.4-1.4-4.3-5.8c5.3-21.3,26.4-37.8,48.4-38.4
		c17.9-0.5,32.9,5.1,44.7,18.6c5.4,6.2,9.1,13.3,11.1,21.4c0.9,3.6-0.3,4.2-3.5,4.1C236.4,347.9,220.2,348,204.1,348z"/>
</g>
</svg>
