<?xml version="1.0" encoding="utf-8"?>
<!-- Generator: Adobe Illustrator 19.0.0, SVG Export Plug-In . SVG Version: 6.00 Build 0)  -->
<svg version="1.1" id="Calque_1" xmlns="http://www.w3.org/2000/svg" xmlns:xlink="http://www.w3.org/1999/xlink" x="0px" y="0px"
	 viewBox="0 0 612 792" style="enable-background:new 0 0 612 792;" xml:space="preserve">
<style type="text/css">
	.st0{fill:#010101;}
	.st1{fill:#020202;}
	.st2{fill:#E0C644;}
	.st3{fill:#FDFDFD;}
	.st4{fill:#020201;}
	.st5{fill:#DFC544;}
	.st6{fill:#DFC543;}
	.st7{fill:#DFC444;}
	.st8{fill:#DFC443;}
	.st9{fill:#E0C544;}
	.st10{fill:#FCFCFC;}
</style>
<g>
	<path class="st0" d="M283.9,563c-73.8,0-147.6,0-221.4,0C44.6,563,31,549.3,31,531.3c0-54.2,0-108.3,0-162.5
		c0-18.8,12.9-32.1,31.9-32.3c26.2-0.2,52.3-0.2,78.5,0.1c4.8,0,7.9-1.5,11.1-5c32-35.6,64.1-70.9,96.2-106.4
		c3.5-3.8,6.2-3.6,9.1,0.7c13.2,19.8,39.4,19.8,52.4,0c2.8-4.2,5.6-4.4,9-0.6c32.4,35.8,64.9,71.6,97.2,107.5
		c2.4,2.7,4.8,3.9,8.5,3.8c26.5-0.2,53-0.1,79.5-0.1c19.5,0,32.6,13.1,32.6,32.5c0,53.7,0,107.3,0,161c0,20.1-13,33-33.1,33
		C430.6,563,357.3,563,283.9,563z"/>
	<path class="st1" d="M284.1,181c14.5,0,27,12.7,26.9,27.2c-0.1,14.2-12.8,26.7-27,26.6c-14.3-0.1-26.8-12.5-26.9-26.8
		C257,193.6,269.6,181,284.1,181z"/>
	<path class="st2" d="M284,342.6c73.5,0,147,0,220.5,0c17,0,26.6,9.6,26.6,26.6c0,53.7,0,107.3,0,161c0,17.3-9.6,26.8-27,26.8
		c-147,0-294,0-440.9,0C47,557,37,547,37,530.8c0-53.5,0-107,0-160.5c0-18.5,9.1-27.7,27.5-27.8C137.7,342.5,210.8,342.6,284,342.6z
		"/>
	<path class="st2" d="M410.9,335.6c-1.8,1.3-3.5,0.8-5.1,0.8c-9.5,0.1-19-0.5-28.5,0.2c-7.8,0.6-12.8-2.3-18-7.9
		c-23-24.8-46.5-49.1-69.8-73.6c-4.8-5.1-6.3-5-11.2,0.1c-24.3,25.6-48.7,51.1-73,76.8c-3,3.2-5.9,4.7-10.3,4.5
		c-11-0.3-22-0.1-33-0.1c-1.6,0-3.3,0.5-5.2-0.8c8.3-9.2,16.5-18.3,24.7-27.4c22.5-24.8,45-49.6,67.4-74.5c2.6-2.8,3.7-4.3,7.2-0.2
		c15.1,17.8,41.3,17.4,56.3-0.6c2.1-2.5,3.1-2.9,5.4-0.3c30.3,33.7,60.7,67.2,91.1,100.8C409.6,334.1,410.2,334.8,410.9,335.6z"/>
	<path class="st3" d="M209.7,336.1c19.6-20.6,38.6-40.6,57.6-60.6c4.5-4.7,9.2-9.2,13.4-14.2c2.5-3,3.9-2.7,6.4,0
		c21.6,22.9,43.4,45.7,65.1,68.5c1.8,1.9,3.6,3.8,6,6.3C308.6,336.1,259.6,336.1,209.7,336.1z"/>
	<path class="st2" d="M284,187c11.8,0,20.8,9,20.9,20.8c0.1,12-9.2,21.2-21.2,21c-11.8-0.2-20.7-9.3-20.7-21.1
		C263.1,196,272.2,187,284,187z"/>
	<path class="st4" d="M283.9,364c70.6,0,141.3,0,211.9,0c10.1,0,13.4,3.4,13.4,13.5c0,48.2,0,96.3,0,144.5
		c0,10.2-3.2,13.4-13.4,13.4c-141.5,0-282.9,0-424.4,0c-9.5,0-13.1-3.5-13.1-12.8c0-47.8,0-95.6,0-143.5c0-3.1-0.4-6.4,1.2-9.3
		c2.5-4.5,6.4-5.7,11.3-5.7c64.8,0.1,129.6,0,194.4,0C271.6,364,277.8,364,283.9,364z"/>
	<path class="st3" d="M284.5,370.1c70.7,0,141.3,0,212,0c6.5,0,6.8,0.3,6.8,6.7c0,48.7,0,97.3,0,146c0,6.3-0.2,6.5-6.4,6.5
		c-142,0-284,0-426,0c-6,0-6.4-0.4-6.4-6.7c0-48.7,0-97.3,0-146c0-6.1,0.5-6.6,6.5-6.6C142.2,370.1,213.3,370.1,284.5,370.1z"/>
	<path class="st0" d="M300.1,458.9c1.7,0,3.4,0.2,5,0c3.7-0.5,6,0.3,5.6,4.8c-0.2,2.9,1.4,5,4.5,5.7c3.5,0.8,7.2,1.4,10-1.3
		c2.1-2,1.5-4.7-1.2-6.1c-2.8-1.5-5.7-2.7-8.7-3.7c-5.3-1.9-10.6-3.9-15.4-6.9c-12.9-8-13.3-25.6-0.9-34.3
		c10.3-7.2,28.5-7.3,38.9-0.3c6.5,4.4,9.4,10.5,9.4,18.2c0,2.9-1,4.3-4.2,4c-3.5-0.2-7-0.2-10.5,0c-4,0.2-7.4,0.6-7.1-5.4
		c0.1-2.9-2.9-3.7-5.6-3.8c-2.8-0.1-5.9-0.4-7.6,2.5c-1.1,1.9-0.2,3.6,1.7,4.5c3.3,1.5,6.7,3,10.1,4.2c4.2,1.5,8.4,3.1,12.3,5.3
		c8.5,4.9,12.6,12.2,11.5,22c-1.1,9.3-6.9,14.9-15.5,17.6c-10.6,3.4-21,2.8-31.1-2c-8.1-3.9-11.9-10.7-12.5-19.6
		c-0.2-3.9,0.7-6.1,5.2-5.5C296.1,459.1,298.1,458.9,300.1,458.9C300.1,458.9,300.1,458.9,300.1,458.9z"/>
	<path class="st0" d="M361.9,449.5c0-11.2,0.1-22.3-0.1-33.5c0-2.7,0.6-3.8,3.6-3.7c14.7,0.2,29.3,0.1,44,0c2.5,0,3.6,0.6,3.5,3.3
		c-0.3,4.8,1.5,10.9-0.9,14c-2.3,3.1-8.7,0.8-13.3,1c-4,0.2-8,0.2-12,0c-3.8-0.2-2.9,2.3-2.8,4.3c0.1,1.9-1.1,4.5,2.7,4.4
		c6-0.2,12,0.1,18-0.1c2.6-0.1,3.6,0.6,3.4,3.3c-0.2,4-0.2,8,0,12c0.1,2.6-0.7,3.5-3.4,3.4c-5.7-0.2-11.3,0.1-17-0.1
		c-3-0.1-4,0.6-3.9,3.8c0.1,7.3-0.1,7.3,7.4,7.3c6,0,12,0.1,18-0.1c2.7-0.1,3.9,0.5,3.7,3.5c-0.3,4.6,1.5,10.6-0.8,13.6
		c-2.4,3.2-8.7,0.9-13.3,1c-11.2,0.2-22.3,0-33.5,0.1c-2.9,0-3.6-0.8-3.5-3.6c0.2-5.7,0.1-11.3,0.1-17
		C361.9,460.8,361.9,455.1,361.9,449.5z"/>
	<path class="st0" d="M136,445c2.6,5.8,6,11.5,6.1,17.8c0.2,13.9-8.6,23-23.4,25c-21.2,2.9-36.5-10.4-36.6-31.8c0-4,0-8,0-12
		c0-23.4,17.1-36.8,39.9-31.4c13.3,3.2,20.4,12,20.2,24.7c-0.1,3.4-1.2,4.8-4.7,4.5c-4.3-0.3-8.7-0.3-13,0c-3.2,0.2-4-0.9-3.9-3.9
		c0.1-4.2-1.3-7.5-6.3-7.9c-5.2-0.4-8.2,1.1-9.2,6.1c-1.8,9-1.7,18.2-0.1,27.2c0.6,3,2.5,5.5,5.7,6.4c5.8,1.6,9.5-0.9,9.7-7.1
		c0.1-3.5,0.8-4.8,4.7-4.7c10.8,0.2,10.8,0,10.9-11C136,446.4,136,445.7,136,445z"/>
	<path class="st1" d="M155.3,449.8c0-10.8,0.1-21.6-0.1-32.5c-0.1-3.7,0.6-5.5,4.8-5.1c4.1,0.4,8.3,0.3,12.5,0
		c3.6-0.3,4.8,0.7,4.8,4.6c-0.2,15.8,0,31.6-0.2,47.4c0,3.7,1,4.9,4.7,4.7c7-0.3,14,0,21-0.1c2.9-0.1,4.3,0.5,4,3.8
		c-0.4,4.6,1.4,10.7-0.9,13.5c-2.4,3-8.7,0.9-13.3,0.9c-11.2,0.1-22.3-0.1-33.5,0.1c-3,0-4-0.7-3.9-3.8
		C155.4,472.1,155.3,460.9,155.3,449.8z"/>
	<path class="st4" d="M426.2,448.5c0-10.6,0.1-21.3-0.1-31.9c0-3.1,0.6-4.5,4-4.3c9.3,0.3,18.7-0.3,27.9,0.5
		c15.7,1.5,26,12.2,27.5,28c0.6,6.6,0.8,13.3-0.3,19.9c-2.4,15.4-14.2,25.9-29.8,26.3c-6.7,0.2-13.3,0-20,0c-8,0-9.4-1.5-9.3-9.5
		C426.2,467.8,426.2,458.2,426.2,448.5z"/>
	<path class="st0" d="M282,450.7c0.3,5.8-0.1,12.5-2.9,18.9c-5.8,13.3-19.9,20.6-34.9,18c-15.1-2.7-25.5-13.6-26.2-28.3
		c-0.4-8.1-1.2-16.3,0.8-24.3c4-16,17.8-25,35.2-23.2c16,1.7,27.4,13.9,28,29.9C282.1,444.3,282,447,282,450.7z"/>
	<path class="st5" d="M318.3,417.6c3.8,0,7.7,0.2,11.3,1.6c4,1.5,7.6,3.6,9.7,7.5c1,1.8,3.2,4,0.7,6.1c-1.8,1.5-8.1-0.3-9.1-2.2
		c-3.8-6.9-14.3-9.2-20.8-4.6c-5.6,4-5.6,11.6,0.2,15.5c3.6,2.4,7.7,3.9,11.8,5.2c4.1,1.3,8.1,3,11.9,5.1c6.4,3.7,8.9,9.2,8,16.3
		c-0.8,6.5-5.2,9.9-10.8,11.8c-8.6,3-17.3,2.8-25.8-0.9c-3.1-1.3-5.9-3.2-7.8-6c-1.5-2.2-3.5-5.3-2.1-7.3c1.5-2.3,5.2-0.7,7.9-0.8
		c2-0.1,1.7,1.8,2.1,2.9c2.8,9.7,19.4,9.7,24.3,4.4c4.1-4.5,3.3-11.8-2.1-15.2c-2.8-1.7-6-2.9-9.1-4.1c-5.3-2-10.7-3.8-15.5-6.9
		c-9.7-6.2-9.7-18.4,0-24.7C307.7,418.5,312.9,417.6,318.3,417.6z"/>
	<path class="st6" d="M367.9,449.5c0-9.2,0.1-18.3-0.1-27.5c0-2.7,0.7-3.8,3.6-3.8c10.5,0.2,21,0.1,31.4,0.1c2.1,0,3.9-0.1,4,3
		c0.1,3.2-1.6,3.4-4.1,3.4c-7-0.1-14,0.1-21-0.1c-3.4-0.1-4.3,1.1-4.1,4.3c0.2,4.3,0.2,8.7,0,13c-0.1,2.6,0.7,3.5,3.4,3.4
		c5.8-0.2,11.6,0.1,17.5-0.1c2.6-0.1,3.4,0.8,3.5,3.4c0,2.8-1.2,3.3-3.6,3.3c-5.8-0.1-11.7,0.1-17.5-0.1c-2.8-0.1-3.3,1.2-3.2,3.6
		c0.1,5.3,0.2,10.7,0,16c-0.1,2.8,0.9,3.7,3.7,3.7c7.2-0.2,14.3,0,21.5-0.1c2.4,0,4,0.1,4,3.4c-0.1,3.3-2.1,2.8-4,2.8
		c-10.5,0-21-0.1-31.4,0.1c-2.9,0-3.6-0.9-3.6-3.6C368,468.1,367.9,458.8,367.9,449.5z"/>
	<path class="st7" d="M88.1,448.7c0.1-3.5-0.3-8.1,0.7-12.7c2.3-10.8,10.3-17.7,21.4-18.2c4.8-0.2,9.7-0.1,14.3,1.7
		c4.3,1.7,7.9,4.3,10,8.6c1.1,2.2,2.7,4.9,1.1,7c-1.2,1.7-4.1,0.4-6.2,0.6c-2.4,0.3-3-1.2-3.5-3.2c-1.5-5.9-6-8-11.6-8.5
		c-5.8-0.5-10.5,1.4-13.4,6.7c-0.8,1.4-1.5,3-1.8,4.6c-1.6,9.6-1.9,19.2,0,28.8c1.6,8,7.8,12.3,15.6,11.8c6.1-0.4,9.6-2.9,11.2-8.8
		c1.5-5.7,5.8-3,8.5-2.8c3.6,0.3,1,3.4,0.7,5.1c-0.7,3.4-2.6,6.2-5.5,8.1c-8.9,5.9-18.6,6.2-28.1,2.1c-8.9-3.9-12.8-11.7-13.3-21.2
		C88,455.6,88.1,452.7,88.1,448.7z"/>
	<path class="st8" d="M161.3,449.5c0-9,0.2-18-0.1-27c-0.2-4.4,2.2-4.2,5.3-4.3c3.1-0.1,4.8,0.2,4.8,4.2
		c-0.2,15.8,0.1,31.6-0.2,47.4c-0.1,4.3,1.3,5.3,5.3,5.1c7-0.3,14,0,21-0.1c2.5,0,3.5,0.6,3.5,3.4c0,2.7-1.4,2.8-3.4,2.8
		c-10.8-0.1-21.6-0.2-32.4,0c-3.4,0.1-3.7-1.4-3.7-4.1C161.4,467.8,161.3,458.6,161.3,449.5z"/>
	<path class="st9" d="M432.2,449.6c0-9,0.1-18-0.1-27c-0.1-3.1,0.6-4.6,4.1-4.4c7.1,0.3,14.3-0.2,21.4,0.4
		c12.3,1.2,20.5,9.4,21.8,21.5c0.6,6.1,0.6,12.3,0.1,18.4c-1.3,13.1-11.2,22-24.4,22.2c-6.3,0.1-12.7-0.1-19,0.1c-3,0.1-4-0.8-4-3.9
		C432.3,467.9,432.2,458.8,432.2,449.6z"/>
	<path class="st9" d="M276,450.6c-0.2,3.2,0.2,7.5-0.7,11.8c-2.9,13.1-13.7,20.6-28.3,19.6c-13-1-22.6-10.8-23.1-23.7
		c-0.2-5.6-0.2-11.3,0-17c0.6-14,10.9-23.5,25.6-23.7c14.7-0.2,25.6,9.4,26.5,23.4C276.1,443.8,276,446.7,276,450.6z"/>
	<path class="st4" d="M442.1,450.8c0-6.5,0.3-13-0.1-19.4c-0.3-4.2,2.7-5.6,5.1-6.2c11.6-2.8,20.6,2.9,22.3,14.4
		c1.1,7.3,1.3,14.9-0.4,22.3c-2,8.7-7.5,12.9-16.3,13c-10.6,0.1-10.6,0.1-10.6-10.6C442.2,459.8,442.2,455.3,442.1,450.8
		C442.2,450.8,442.1,450.8,442.1,450.8z"/>
	<path class="st0" d="M266,449.8c0,4.5,0.2,9-1,13.4c-2,7.6-7.6,12.3-14.8,12.6c-7.1,0.3-13.4-4-15.4-11.7c-2.5-9.6-2.5-19.5,0-29.1
		c2-7.4,7.4-11.1,14.6-11.2c7.3-0.1,12.4,3.6,15,10.8c0.9,2.5,1.5,5.1,1.5,7.8C266,444.8,266,447.3,266,449.8z"/>
	<path class="st10" d="M448.2,449.9c0-5.3,0.1-10.7,0-16c0-2.1,0.4-2.9,2.7-3c7.9-0.5,12.4,3,12.9,10.9c0.3,5.3,0.4,10.7,0,16
		c-0.5,7.8-4.8,11.3-12.3,11.2c-2.8-0.1-3.4-1.1-3.3-3.6C448.3,460.2,448.2,455.1,448.2,449.9C448.2,449.9,448.2,449.9,448.2,449.9z
		"/>
	<path class="st3" d="M260,449.6c-0.3,4.1,0.4,8.1-0.8,12.1c-1.6,5.3-4.7,8.1-9.4,8.1c-4.6,0-8.6-2.7-9.6-7.8
		c-1.6-8.2-1.6-16.6,0-24.7c0.9-4.2,3.7-7.3,8.7-7.5c5.1-0.2,8.1,2.3,9.9,6.7C260.6,440.8,259.7,445.3,260,449.6z"/>
</g>
</svg>
