<?xml version="1.0" encoding="utf-8"?>
<!-- Generator: Adobe Illustrator 19.0.0, SVG Export Plug-In . SVG Version: 6.00 Build 0)  -->
<svg version="1.1" id="Calque_1" xmlns="http://www.w3.org/2000/svg" xmlns:xlink="http://www.w3.org/1999/xlink" x="0px" y="0px"
	 viewBox="0 0 612 792" style="enable-background:new 0 0 612 792;" xml:space="preserve">
<style type="text/css">
	.st0{fill:#CA8152;}
	.st1{fill:#BA9500;}
	.st2{fill:#F7E9AF;}
	.st3{fill:#BBC1C5;}
	.st4{fill:#D05627;}
	.st5{fill:#E44C3C;}
	.st6{fill:#9D2C00;}
	.st7{fill:#F09B1F;}
	.st8{fill:#8B7000;}
	.st9{fill:#B99500;}
	.st10{fill:#C7A319;}
	.st11{fill:#B99501;}
	.st12{fill:#C7A419;}
	.st13{fill:#F7E9AE;}
	.st14{fill:#B46B01;}
	.st15{fill:#973D01;}
	.st16{fill:#762101;}
</style>
<g>
	<path d="M441,645c-91.3,0-182.7,0-274,0c-14.2-1.2-24.5-9.7-34.1-18.8c-10.1-9.6-21.5-14.4-35.5-13.9c-12.8,0.5-25.6,0.1-38.4,0.1
		c-4.7,0-8.5-1.4-10-6.4c0-2.3,0-4.7,0-7c1.3-5.2,5.2-6.3,9.9-6.4c12.7,0,25.3,0,38,0c5.8,0,6.1-0.1,3.9-5.3
		c-8.3-20.4,10.2-44.5,30.4-45.6c5.4-0.3,5.4-0.3,3.6-5.3c-2.8-7.6-2.5-15.1,0.3-22.5c1.2-3,1.2-4.4-2.7-4.6
		c-15.3-0.9-28.4-12.2-32.6-26.7c-4.4-15.3,5.6-31.3,15.7-37.6c5.3-3.3,11-5.7,17.2-6.2c2.8-0.2,3.6-1.2,2.5-3.8
		c-3.2-8.1-3.4-16.2,0.2-24.3c1.6-3.7-1.2-3.2-3.3-3.4c-16.3-1.7-29.7-13.8-32.9-29.7c-2.8-13.5,5.1-29.1,18.4-36.4
		c4.7-2.6,9.7-4.6,15.2-4.5c3.2,0.1,3.7-1.3,2.5-4c-8.8-19.6,7.1-43.8,28.7-46.9c3.7-0.5,3.8-2.5,3.6-5.1c-0.9-8.9,2.8-15.7,9-21.8
		c6.3-6.3,14-8.1,22.4-8.2c17.2-0.1,34.3,0,51.9-0.1c-0.2-2.4-1.6-4.1-2.5-5.9c-10-19.3-2.1-40.6,14-52.8c3.7-2.8,7.7-5.3,12.2-6.7
		c2.7-0.9,4.3-2.5,3.8-5.5C275.4,160,293,135,315,133c4.3,0,8.7,0,13,0c19.9,0.9,36.6,21.5,38,39.1c0.4,4.8-0.2,9.3-1.4,13.8
		c-0.9,3.3-0.2,5.7,2.4,7.9c4.3,3.7,8.1,7.9,10.8,13c7.1,13.3,7.3,26.7,0.1,40.1c-0.5,0.9-1.1,1.7-1.2,2.8c1.4,1.6,3.4,0.8,5.1,0.8
		c21.5,0.1,43-0.1,64.5,0.1c13.2,0.1,23,5.8,28.6,18.1c1.8,4,3.1,8.2,1.9,12.6c-0.8,3.2,0.6,4,3.5,4.4c16.8,2.7,29.8,17,31,33.8
		c0.9,13.4-10.2,29.3-24,34.3c-3.5,1.2-7,2.3-10.7,2.5c-2.2,0.1-3,1-2.1,3.2c3.4,8.3,3.6,16.5,0,24.8c-1.6,3.7,1.4,3.1,3.4,3.4
		c16,2.1,26.5,11.2,31.8,26c5.1,14.5-2.3,31.4-16.5,39.7c-4.8,2.8-9.8,5-15.5,4.9c-3.2,0-4.3,1-2.9,4.2c3.3,7.7,3.3,15.6,0.1,23.3
		c-1.2,2.8-0.5,3.9,2.5,4.2c7.9,0.7,15,3.4,20.8,8.8c9.7,9,15.7,19.7,12.3,33.4c-3.7,14.8-13.3,24.2-28.1,28.2
		c-2.6,0.7-6-0.1-7.5,1.8c-1.7,2.2,1,4.9,1.6,7.4c1.4,6.2,0.9,12.2-1.2,18.2c-1.7,4.8-1.6,5,3.6,5c23.8,0,47.6,0,71.5,0
		c4.9,0,9.4,0.6,10.9,6.4c0,2.3,0,4.7,0,7c-1.5,5-5.3,6.4-10,6.4c-13.5,0-26.9,0.3-40.4-0.1c-12.8-0.3-23.2,4.3-32.4,12.9
		c-6.2,5.8-12.7,11.2-20.1,15.4C452.7,643.6,446.8,644,441,645z"/>
	<path class="st0" d="M439.9,286c-6.8,0.1-13.7,0.2-20.5,0.3c-9.3,0.1-12.4,3.1-12.4,12.2c0,18.5,0,37,0,55.5
		c0,7.5-2.8,9.9-10.1,9.1c-3.8-0.4-6-2.4-6-6.5c0-6,0.1-12-0.2-18c-0.3-5.5-3.3-9-7.8-9.5c-4.5-0.4-7.5,1.9-9.4,5.9
		c-0.8,1.6-0.5,3.3-0.5,4.9c0,20.8,0,41.7,0,62.5c0,6.6-3.6,10.9-9.2,11.7c-8.3,1.1-13.5-1.4-15.3-7.7c-0.5-1.7-0.5-3.6-0.5-5.4
		c0-29.3,0-58.7-0.1-88c-0.1-17.7-19-31-34.9-24.8c-9.5,3.7-16.8,14.6-16.8,25.6c-0.1,13.5,0,27,0,40.5c0,6.6-2,8.7-8,8.8
		c-6.3,0.1-8.3-2-8.4-8.9c0-18.8,0-37.7,0.1-56.5c0-7.5-3.6-11.4-11.2-11.4c-24.7-0.1-49.3-0.1-74,0c-4,0-7.2-0.8-8.6-5.1
		c-2.3-7.2,0.9-11.4,8.9-11.4c27.3-0.1,54.7,0,82,0c51.3,0,102.6,0,154,0c3,0,6,0.2,9,0.3C443.5,274.5,443.6,281.4,439.9,286z"/>
	<path class="st1" d="M436,490.9c-22.2,0.1-44.3,0.2-66.5,0.2c-64.7,0-129.3,0-194,0c-11.8,0-23.7,0-35.5,0c-6.9-5.5-9-16-5.1-26.2
		c1.2-3.2,2.1-6.8,6.4-7.3c96.2,0,192.5,0,288.7,0c7.9,0,10.4,1.8,12,9.6c1.3,6.5,1.2,12.9-1.8,19C439.2,488.1,438.1,490,436,490.9z
		"/>
	<path class="st2" d="M441.7,542.3c-61,0-121.9,0-182.9,0.1c-3.6,0-6.1-0.8-8.7-3.5c-17.7-18-44.1-17.8-61.5,0.4
		c-2,2.1-3.9,3.2-6.8,3.1c-4.7-0.2-9.3,0-14-0.1c-10.6-0.2-16.7-6.5-16.5-17c0.2-10.3,6.2-16.4,16.6-16.4c40.5,0,80.9,0,121.4,0
		c51.8,0,103.6-0.1,155.4-0.1c7.6-0.4,15.3,0,22.9-0.2c2.4-0.1,4.1,1,5.4,2.9c5.9,9.3,5.3,19.1,0.1,28.3c-1.2,2-3.1,2.8-5.5,2.8
		C459,542.3,450.4,542.8,441.7,542.3z"/>
	<path class="st2" d="M469.8,439.9c-23.5,0-47,0.1-70.5,0.1c-76.7,0-153.3-0.1-230,0.1c-14,0.1-20.4-10.6-17-23.2
		c1.9-7,7.8-10.8,16.6-10.8c22.8,0,45.7,0,68.5,0c29.7,0,59.3,0.1,89-0.1c3.2,0,4.5,0.8,5.5,3.8c4.2,12.8,16.3,22,28.5,22.1
		c12.3,0.1,24.4-9.3,28.8-22.3c0.7-2,1.1-3.6,4.1-3.6c25.3,0.2,50.7,0.2,76,0.2c7.3,4.9,10,16.7,5.8,26.3
		C473.9,435.3,473.1,438.6,469.8,439.9z"/>
	<path class="st1" d="M254.9,591.9c5.5-8.8,8.9-18.1,7.1-28.7c-0.6-3.4,1.6-3.2,3.9-3.2c18.5,0,36.9,0,55.4,0c36.4,0,72.8,0,109.2,0
		c1.8,0,3.6,0.1,5.5,0.2c1.8,0.8,2.9,2.2,3.7,3.9c3.8,7.8,3.9,15.7,1,23.7c-1.5,4-4.2,5.8-8.7,5.8c-57.7-0.1-115.5-0.1-173.2-0.1
		C257.5,593.4,255.3,594.7,254.9,591.9z"/>
	<path class="st1" d="M140,355.1c30.5,0,60.9-0.1,91.4-0.1c8.8,0,17.7,0.1,26.5-0.1c3-0.1,4.1,0.8,4.8,3.9
		c2.6,11.2,9.5,18.5,20.7,21.2c12.5,2.9,26.6-6.6,29.5-19.9c0.9-3.9,2.2-5.3,6.4-5.2c11,0.4,11,0.1,11,10.9c0,6.2-0.3,12.3,0.1,18.5
		c0.3,4.1-1.3,4.9-5.1,4.8C282.7,389,240,389,197.4,389c-19.1,0-38.3-0.1-57.4-0.1C130.6,380.9,130.6,363.1,140,355.1z"/>
	<path class="st3" d="M144,611.1c107.7,0,214.4,0,321.9,0c-9.5,9.6-19.1,17-32.9,16.9c-85.3-0.1-170.6-0.1-256,0
		C163.2,628,153.7,620.7,144,611.1z"/>
	<path class="st2" d="M212.7,303.9c15.2,0,30.3,0.1,45.5-0.1c3,0,4,0.5,3.9,3.8c-0.2,8.8-0.2,17.7,0,26.5c0.1,2.8-0.8,3.7-3.7,3.6
		c-30-0.1-60,0-90-0.1c-11.1-0.1-17.2-6.5-17.1-17c0.1-10.6,6.3-16.7,17.4-16.8c6.5-0.1,13,0,19.5,0c4.2,0,8.3,0.1,12.5,0.2
		C204.7,304,208.7,303.9,212.7,303.9z"/>
	<path class="st4" d="M288,252.1c-13.4,1.1-25.6-8.5-25.7-25.3c-0.1-14.8,10.5-25.6,24.8-25.6c14.6,0,26,11.2,26,25.6
		C313.1,242.4,303.5,252.1,288,252.1z"/>
	<path class="st5" d="M219.7,593.1c-15.1,1-25.4-9.7-25.4-24.9c0-12.5,9.8-25.9,25.7-25.4c14.7,0.5,25,10.9,25.2,25.9
		C245.2,581.2,235.9,594.4,219.7,593.1z"/>
	<path class="st2" d="M469.2,337.7c-13.6,0-27.3,0-40.9,0.1c-2.5,0-3.5-0.7-3.5-3.4c0.1-9.2,0.1-18.3,0-27.5c0-1.9,0.2-3.1,2.6-3
		c14.1,0.1,28.3,0.1,42.4,0.1c6.9,4.8,7.7,12.2,6.9,19.5C476.2,328.9,475.2,334.9,469.2,337.7z"/>
	<path class="st1" d="M140,560c11.6,0,23.2-0.1,34.9,0c0.9,0,2.7-0.6,2.4,1.4c-1.5,11.6,1.2,22.3,8.6,32.3c-18.4,0-35.8,0-53.2,0
		c-0.6,0-1.2-0.4-1.9-0.6c1.8-2,4.3-1.1,6.7-1.6c-4.5-7.4-5.9-15.2-3.1-23.6C135.5,564.8,136.8,561.7,140,560z"/>
	<path class="st6" d="M338,183.9c-7.6,0.5-14.7,2.7-21.1,6.8c-2.5,1.6-4.4,2.1-7,0.1c-2-1.6-4.5-2.9-7-3.6c-4.8-1.3-5.9-4.5-6.1-8.9
		c-0.9-19.9,14-32.4,32.2-27.1c8.3,5.7,13.6,19.8,11.1,29.5C339.7,182,339,183,338,183.9z"/>
	<path class="st7" d="M347,251c-4.6,2.1-9.6,1.5-14.2,0.7c-7.1-1.2-7.7-2.7-5-9.5c4.5-11.3,4.2-22.4-1.3-33.2
		c-1.4-2.8-1.1-4,1.7-5.2c6.2-2.6,12.4-3.3,18.8-0.7c4.6,2.3,6.1,6.9,8,11.1C360.6,226.4,356.7,243.5,347,251z"/>
	<path class="st1" d="M435,388.8c-13.6,0.1-27.3,0.1-40.9,0.2c-6,0-2.6-4.5-3.2-6.9c-0.8-3.1,1.6-2.6,3.3-2
		c10.1,3.4,25.8-5.2,29.1-18.4c1.6-6.3,4.4-7.6,9.8-6.7c0.7,0.1,1.3,0.1,2,0.1c1.5,0.7,2.9,1.5,3.9,2.9c4.8,6.6,4.8,21.2,0,27.9
		C437.9,387.4,436.5,388.2,435,388.8z"/>
	<path class="st8" d="M436,490.9c5.3-8.3,6.8-17.2,3.6-26.7c-1.5-4.4-4.1-6.3-9.3-6.3c-85.6,0.2-171.2,0.1-256.8,0.1
		c-11.2,0-22.3,0-33.5,0c-3.4,1.7-6.8,2.5-10.1-0.2c1.6-1.3,3.5-0.9,5.3-0.9c101.1,0.1,202.1,0.2,303.2,0.3c3.7,0,7.4,0.1,10.8,1.4
		c6.9,2.6,10.7,10.4,9.3,18.5c-1.6,8.8-6.7,13.6-15,13.8C441,491.1,438.5,490.9,436,490.9z"/>
	<path class="st8" d="M254.9,591.9c1.6,1.8,3.7,1,5.6,1c55.9,0,111.9,0,167.8,0c8.8,0,12.1-3.4,12.8-12.4c0.6-7.5-1.1-14.2-5.1-20.4
		c1.5-0.1,3-0.2,4.5-0.2c13.4,0,20.2,8.2,17.6,21.3c-1.6,8.2-7.4,12.5-17.3,12.5c-24.5,0.1-49,0.1-73.5,0.1c-36.3,0-72.6,0-109-0.1
		C257.3,593.8,254,596,254.9,591.9z"/>
	<path class="st9" d="M441.7,542.3c7.9,0,15.9-0.2,23.8,0c3.3,0.1,5.2-1.1,6.7-3.9c4.6-8.9,4.7-17.7-0.5-26.5
		c-1.4-2.3-3-3.1-5.7-3.1c-7.1,0.1-14.2,0-21.3-0.1c11.9-1.1,23.9-1.1,35.8,0.4c7.7,1,12.4,7.8,12.3,16.4c0,8.6-4.6,15.4-12.3,16.4
		C467.6,543.6,454.7,543.4,441.7,542.3z"/>
	<path class="st8" d="M435,388.8c8.3-7.9,8.4-25.7,0-33.7c2.5,0,5-0.1,7.5-0.1c9.7,0.1,15.9,6.4,16.3,16.4
		c0.4,9.6-5.9,16.8-15.3,17.5C440.6,389.1,437.8,388.9,435,388.8z"/>
	<path class="st10" d="M140,355.1c-1.2,3.9-4,7.1-5.1,11.2c-2.4,8.6,1.5,15.5,5.1,22.5c-1.5,0.1-3,0.1-4.5,0.1
		c-11.6,0-18.3-6.2-18.3-17c0-10.8,6.6-16.9,18.3-17C137,354.9,138.5,355,140,355.1z"/>
	<path class="st9" d="M469.2,337.7c8.6-10.5,8.8-20.6,0.6-33.7c1.8-0.1,3.6-0.2,5.4-0.2c11.2,0.1,17.6,6.4,17.6,17
		c-0.1,10.6-6.6,16.9-17.7,17.1C473.1,337.9,471.2,337.8,469.2,337.7z"/>
	<path class="st11" d="M469.8,439.9c8.1-13.3,8-22.4-0.5-33.7c1.8,0,3.7-0.1,5.5-0.1c13.7,0.1,21.3,10.7,16.9,23.7
		c-2.1,6.4-6.9,9.6-13.4,10.2C475.5,440.2,472.6,439.9,469.8,439.9z"/>
	<path class="st12" d="M140,560c-7.3,10.6-7.6,21.5-0.1,33.1c-3.5,0-6.3,0-9,0c-8.4-0.9-13.5-6.8-13.7-16c-0.2-9.1,5.1-16.1,13.4-17
		C133.7,559.7,136.9,560,140,560z"/>
	<path class="st12" d="M129.9,457.9c3.4,0.1,6.7,0.1,10.1,0.2c-7.9,11-7.3,22,0,33c-2.5,0.1-5,0.3-7.5,0.1
		c-8.9-0.5-14.5-6.1-15.3-15.2C116.4,466.7,121.1,459.9,129.9,457.9z"/>
	<path class="st13" d="M313.9,322.6c0-3.8-0.1-7.6,0-11.5c0.2-5,3-7.2,8.7-7.2c5.1,0,7.4,2,7.5,7.1c0.2,7.8,0,15.6,0.2,23.4
		c0.1,2.7-1,3.8-3.5,3.3c-4.3-0.9-10.2,2.7-12.6-1.8C312.4,332.3,313.9,327.1,313.9,322.6z"/>
	<path class="st14" d="M347,251c2.9-4.8,6.5-9.1,8-14.7c3.3-12.5-0.2-23.4-8-33.2c9.6,1.3,15.9,8.7,17.7,20.6
		C366.5,236.5,358.5,249,347,251z"/>
	<path class="st15" d="M439.9,286c1.7-5.3,1.7-10.7,0-16c3.8-0.1,7.7-0.3,11.5-0.1c4.8,0.2,7.4,3.2,7.4,8.2c0,5.2-2.4,7.9-7.3,8.1
		C447.6,286.2,443.8,286,439.9,286z"/>
	<path class="st16" d="M338,183.9c3.4-12.7-0.8-23.3-9-32.8c14.3,2.4,21.3,17.8,18,31c-0.4,1.8-1.2,2.5-3.1,2.1
		C342,183.9,339.9,184,338,183.9z"/>
</g>
</svg>
