<?xml version="1.0" encoding="utf-8"?>
<!-- Generator: Adobe Illustrator 19.0.0, SVG Export Plug-In . SVG Version: 6.00 Build 0)  -->
<svg version="1.1" id="Calque_1" xmlns="http://www.w3.org/2000/svg" xmlns:xlink="http://www.w3.org/1999/xlink" x="0px" y="0px"
	 viewBox="0 0 612 792" style="enable-background:new 0 0 612 792;" xml:space="preserve">
<style type="text/css">
	.st0{fill:#0095E4;}
</style>
<g>
	<path class="st0" d="M557,583c-1.3-3.7-2.5-7-7.5-7.4c-6-0.5-6.9-1.9-7.1-8c-0.1-2.2,0-4.3,0-6.5c0-117,0-233.9,0-350.9
		c0-3.7,0-7.3-0.5-11c-3.8-26.5-16.6-47.9-37.5-64.4c-11.9-9.4-24.9-16.5-40.6-17.1c-2.2-0.1-4.7,0.3-6.9-0.8c-104,0-208,0-312,0
		c-0.9,0.7-1.9,0.5-2.9,0.5c-12.5,0.1-23.9,3.6-34.4,10.3c-5,3.1-9.6,6.6-14,10.4c-19.7,17-32,38.3-33.7,64.2
		c-1.6,25.4-0.6,51-0.3,76.5c0.1,6.2,4,10.2,10,11.3c2.1,0.4,4.3,0.3,6.5,0.3c11.7,0,23.3,0,35,0c7,0,8.2,1.2,8.3,8.1
		c0.1,4.8,0,9.7,0.1,14.5c0,3,0.8,5.6,3.2,7.5c3.9,3.1,5.1,7.2,4.8,12c-0.1,2-0.1,4,0.2,6c1,7.2,3.6,9.8,10.7,10.9
		c4.8,0.7,5.9,1.8,6,6.9c0.2,7.7,0.1,15.3,0,23c-0.1,7-1.2,8.2-8.1,8.2c-12.8,0.1-25.7-0.1-38.5,0.1c-8.6,0.1-12.2,3.6-12.3,12.2
		c-0.2,16.3-0.1,32.7,0,49c0,1.7,0.2,3.3,0.5,5c2.8,18.6,11.5,34.2,23.9,48.1c1.3,1.4,4,2.6,3,4.7c-0.9,2-3.6,1-5.5,1
		c-5.3,0.1-10.7,0-16,0c-7,0-14-0.2-21,0.1c-6.8,0.3-10.4,3.9-10.8,10.6c-0.2,2.7-0.1,5.3-0.1,8c0,14,0,28,0,42c0,3.9-1,7.2-5.6,7.2
		c-5.3,0-7.9,2.7-9,7.5c0,3,0,6,0,9c0.6,0.7,0.5,1.5,0.5,2.3c-0.2,16.5,16.3,33,31.7,34.1c1.6,0.1,3.3-0.5,4.8,0.6
		c146,0,292,0,438,0c0.7-0.6,1.5-0.5,2.3-0.5c16.5,0.2,33-16.3,34.1-31.7c0.1-1.6-0.5-3.3,0.6-4.8C557,589,557,586,557,583z
		 M143.1,135.2c5.5-0.9,11.2-1.2,16.9-1.2c47,0.1,94,0,141,0c47.2,0,94.3,0,141.5,0c19.6,0,37.6,4.7,52.8,17.4
		c20.4,16.9,28,39.3,27.5,65.1c0,1.8-0.6,2.8-2.6,2.8c-3.5-0.1-7,0.1-10.5-0.2c-4.1-0.3-5-3.6-6.1-6.9
		c-7.3-22.6-22.7-36.6-45.6-42.6c-4.2-1.1-8.5-1.5-12.9-1.5c-96.1,0-192.3,0-288.4,0c-26.7,0-50.1,17.7-58.3,43.5
		c-2,6.5-12.4,10.6-18.2,7.4c-1.4-0.8-1-1.9-1.1-3C77.8,174.4,103.1,142.1,143.1,135.2z M143.7,304.6c-3.6,0-4.9-0.8-4.9-4.7
		c0.1-12.2-0.1-12.2,12.3-12.2c28.2,0,56.3,0.1,84.5-0.1c4.1,0,5.8,0.7,5.7,5.4c-0.3,11.5-0.1,11.5-11.6,11.5c-13.3,0-26.7,0-40,0
		C174.4,304.5,159,304.4,143.7,304.6z M249.9,327.6c-0.3-3.4,0.1-5.8,4.1-7.1c3.2-1,4.3-4.3,4.3-7.8c0-7,0.1-14-0.1-21
		c-0.1-3,0.8-4.1,3.9-4c10.8,0.2,21.7-0.1,32.5,0.2c13.4,0.4,23.3,10.3,23.3,23.7c0.1,58,0.1,115.9,0,173.9c0,12.9-9,22.8-21.8,23.6
		c-11.1,0.7-22.3,0.3-33.5,0.5c-1.1,0-2.3,0-5,0c13.3-10.8,22.8-22.7,28.6-37.2c3.8-9.3,6-19,6.1-29.1c0.2-14.5,0.4-29,0.5-43.4
		c0-6-3.9-9.8-10.2-9.8c-15-0.1-30-0.2-45,0.1c-4,0.1-5-1.2-4.9-5c0.2-11,0.2-22,0-33c-0.1-3.6,0.8-4.9,4.7-4.9
		c10.4,0.1,12.4-2.2,12.5-12.7C249.9,332.2,250,329.9,249.9,327.6z M224.5,330.2c-1.3,0-2.7-0.1-4,0c-3.1,0.3-4.9-0.2-4.8-4.1
		c0-3.7,1.5-4.6,4.7-4.3c2.1,0.2,4.3,0,6.5,0c3,0.1,6.3-1.1,6.1,4.3c-0.2,5.6-3.7,3.7-6.5,3.9C225.8,330.2,225.1,330.1,224.5,330.2
		C224.5,330.2,224.5,330.2,224.5,330.2z M215.8,385.7c0.1,3.6-1.2,4.5-4.6,4.4c-7-0.2-14-0.1-21-0.1c0,0,0,0,0,0
		c-7.5,0-15-0.1-22.5,0.1c-2.6,0.1-3.5-0.8-3.4-3.4c0.1-12,0.1-24,0-35.9c0-2.6,1-3.6,3.5-3.4c1.5,0.1,3,0.1,4.5,0
		c5.8-0.2,8.9-3.2,9.1-9c0.2-4,0.2-8,0-12c-0.2-3.3,0.7-4.6,4.3-4.6c12.8,0,12.8-0.1,12.8,12.6c0,11,1.6,12.8,12.6,12.9
		c3.4,0,4.6,1,4.6,4.5C215.6,363.1,215.6,374.4,215.8,385.7z M160.2,321.9c3.7-0.5,4.3,1.4,4.4,4.6c0.1,3.8-2,3.9-4.7,3.8
		c-2.3-0.1-4.6-0.1-7-0.1c-2.8,0-5.5,0.8-5.7-3.8c-0.1-4.7,2.3-4.7,5.5-4.5c1.2,0.1,2.3,0,3.5,0c0,0,0,0,0,0
		C157.5,321.9,158.9,322,160.2,321.9z M105,445.7c-0.4-11.7-0.1-23.3-0.2-35c0-2.8,0.8-3.8,3.7-3.7c12,0.1,24,0.1,36,0
		c2.5,0,3.5,0.7,3.7,3.3c0.3,4.8,1.1,9.6,1.6,14.4c0.5,5.2-0.1,10.1-3.2,14.7c-6.4,9.6-5.4,23.4,1.8,31.7c4.1,4.7,9.7,5.5,13.6,1.8
		c3.8-3.6,3.6-8.7-0.8-13.1c-2.9-2.9-4.1-6-1.5-9.3c8.5-11.1,8-23.5,6.2-36.3c-0.2-1.2-0.3-2.3-0.5-3.5c-0.5-2.6,0.1-3.9,3.3-3.9
		c14.7,0.2,29.3,0.1,44,0c2.8,0,3.7,0.8,3.9,3.6c0.3,4.5,1.1,8.9,1.5,13.4c0.6,5.7-0.1,11-3.5,16.1c-6.5,9.9-4.6,24.8,3.4,32.3
		c3.9,3.7,9.1,3.9,12.5,0.5c3.6-3.6,3.6-8.4-0.5-12.4c-3.5-3.4-4.6-6.9-1.5-11c6.5-8.5,7.3-18.3,6.4-28.5c-0.3-3.5-0.7-7-1.3-10.4
		c-0.4-2.4,0-3.6,2.9-3.6c12,0.1,24,0.1,36,0c1.6,0,3.1,0.2,3,2.3c-0.5,16.3,1.9,32.7-1.9,48.8c-7.2,30.9-32.5,50.4-65.9,51.3
		c-5.7,0.1-11.3,0-19.7,0c-10.5-0.2-23.9,0.8-36.9-3.4C124.4,497.6,105.8,473.5,105,445.7z M79,531.6c-0.1-4,1.1-5,5-5
		c39.2,0.2,78.3,0.3,117.5,0.3c29.7,0,59.3-0.1,89-0.2c25.2-0.1,44.6-19.5,44.6-44.7c0-55.3-0.5-110.7,0.3-166
		c0.3-23-19.6-45.9-46-45.6c-51.3,0.6-102.6-0.1-154-0.1c-16.8,0-33.7,0.1-50.5,0.5c-5,0.1-6.2-1.4-5.9-6.2
		c0.4-8.1,0.2-16.3,0.1-24.5c-0.1-2.9,0.9-3.8,3.7-3.7c4.5,0.1,9,0.5,13.4-0.9c9.1-3,15.5-8.9,18.5-18.1c7.2-22,20.6-32.1,43.7-32.1
		c95.8-0.1,191.6-0.1,287.5,0c20.4,0,35.3,11.3,41.2,30.7c4.1,13.3,13.7,20.4,27.8,20.5c8.1,0,8.1,0,8.1,8.2
		c0,109.2,0,218.3,0.1,327.5c0,4.7-1.4,5.7-5.8,5.7c-72.2-0.1-144.3-0.1-216.5-0.1c0,0,0,0,0,0c-72.2,0-144.3,0-216.5,0.1
		c-4.1,0-5.4-1-5.3-5.2C79.2,558.9,79.2,545.2,79,531.6z M536.1,600.8c-5.3,8.3-13.3,11.2-22.6,11.2c-42,0-84,0-126,0
		c-99.5,0-198.9,0-298.4,0c-9.8,0-18.1-2.9-23.4-11.6c-2.9-4.8-2.6-5.4,2.9-5.4c77.6,0,155.3,0,232.9,0c0,0,0,0,0,0
		c77.1,0,154.3,0,231.4,0c1.7,0,4.1-1.1,5,0.9C538.7,597.5,537,599.2,536.1,600.8z"/>
	<path class="st0" d="M429.1,270.6c-34.7-0.1-59.6,29.6-59.9,59.6c-0.3,31.5,27.8,59.7,59.7,59.8c31.5,0.2,59.8-27.7,59.9-59.1
		C488.9,300.4,463.8,270.7,429.1,270.6z M440.9,371.5c-19.4,5.2-39.9-2.8-48.9-19c-9.9-17.8-6.7-40.4,7.5-53.8
		c4.7-4.4,10.3-7.2,16.4-9.2c3.1-1,4.8-0.6,4.6,3.1c-0.2,3.3,0,6.7,0,10c0,0,0,0,0.1,0c0,3.5-0.2,7,0,10.5c0.3,5.2,3.8,8.7,8.4,8.8
		c4.6,0,8.3-3.5,8.5-8.6c0.2-6.7,0.3-13.3,0.1-20c-0.1-4.1,1.2-4.8,5-3.6c17.9,5.5,29.4,21.6,29.2,41.3
		C471.4,350.8,459.5,366.5,440.9,371.5z"/>
	<path class="st0" d="M429.3,407.1c-32-0.3-60.1,28-60,60c0.1,31.5,27.9,59.3,59.6,59.5c31.7,0.2,60-27.9,60-59.6
		C488.4,435.1,462,407.4,429.3,407.1z M466.8,487.4c-6.6,13.8-20.2,21.6-39.1,22.1c-14.6-0.2-28.3-6.3-36.2-21.6
		c-8.2-15.9-7.5-32.1,2.9-46.8c9.8-13.9,24.3-18.4,40.8-16.4c2.9,0.4,5.8,1.3,8.7,1.9c3.1,0.7,2.8,2,0.8,3.9
		c-4.2,4-8.3,8.2-12.4,12.3c-4.2,4.3-4.5,9.1-1,12.8c3.6,3.7,8.8,3.4,13.2-0.9c4.4-4.3,9-8.4,13-13.1c3.4-4,5.1-2.6,7.1,0.9
		C473.4,457.1,474.1,472.2,466.8,487.4z"/>
</g>
</svg>
