<?xml version="1.0" encoding="utf-8"?>
<!-- Generator: Adobe Illustrator 19.0.0, SVG Export Plug-In . SVG Version: 6.00 Build 0)  -->
<svg version="1.1" id="Calque_1" xmlns="http://www.w3.org/2000/svg" xmlns:xlink="http://www.w3.org/1999/xlink" x="0px" y="0px"
	 viewBox="0 0 612 792" style="enable-background:new 0 0 612 792;" xml:space="preserve">
<style type="text/css">
	.st0{fill:#0295E4;}
	.st1{fill:#0095E4;}
</style>
<g>
	<path class="st0" d="M98,337c2.1-3.1,4.3-6,8.5-5.9c4.1,0.1,7,2.3,8.1,6.1c1.2,3.9-0.1,7.3-3.5,9.5c-3.4,2.2-6.9,1.9-10.1-0.7
		c-1.1-0.9-2-2.1-3-3.1C98,341,98,339,98,337z"/>
	<path class="st0" d="M464.7,552.9c0.1,4.6-3.9,8.6-8.6,8.6c-4.5,0-8.2-3.6-8.4-8.2c-0.2-4.8,3.5-8.8,8.2-8.9
		C460.6,544.4,464.7,548.3,464.7,552.9z"/>
	<path class="st1" d="M519.8,212.6c-4.9-3.4-9.9-6.8-15-10c-2.1-1.3-2.6-2.4-1-4.6c3.1-4.3,6-8.8,8.9-13.3
		c4.9-7.4,4.3-10.8-2.7-15.8c-2,0-4,0-6,0c-2.9,0.8-4.8,2.6-6.4,5.1c-2.2,3.5-4.6,7-6.9,10.4c-3.2,4.7-3.2,4.6-8.3,1.9
		c-15.4-8.2-31.2-8.3-46.4-0.2c-18.9,10-38.3,18.6-58.6,25.4c-25.9,8.7-51.8,9.1-78,1c-20.5-6.3-39.9-14.9-58.8-24.9
		c-17.1-9.1-34.1-10.4-51.3-0.3c-2.6,1.5-4.3,0.9-5.8-1.5c-2.5-3.9-5.2-7.7-7.7-11.7c-1.7-2.7-3.8-4.5-6.9-5.3c-2,0-4,0-6,0
		c-6.5,5.7-6.9,8.8-2,16.1c2.8,4.3,5.6,8.7,8.6,12.8c1.6,2.1,1.3,3.3-0.9,4.7c-4.8,3-9.5,6.2-14.2,9.4c-5.6,3.8-7,8.5-3.9,13
		c3,4.3,7.8,4.8,13.1,1.3c3.7-2.4,7.4-4.9,11.5-7.6c4.6,22.1,16,39.4,33.3,52.8c23.3,18,50.5,26.2,79.2,30.4
		c4.9,0.7,6.5,2.1,6.4,7.2c-0.3,31.6-0.2,63.3-0.1,94.9c0,11.8,9.1,20.8,20.8,20.9c2.8,0,5.7,0.3,8.5-0.1c4.2-0.5,4.9,1.3,4.8,5
		c-0.2,14.3-0.2,28.7,0,43c0,3.4-1.1,4.7-4.1,6.2c-13.7,6.7-21.5,17.3-21.4,33.1c0,14.3-0.4,28.6-0.4,43c0,30.5,0.3,60.9,0.4,91.4
		c0,9.2,3.7,16.7,9.7,23.4c5.1,5.6,11.7,8.4,18.5,11.1c3.7,0,7.3,0,11,0c0.6-0.3,1.1-0.7,1.7-0.9c16.8-4.7,27.2-18.3,27.2-35.6
		c0-44,0-88,0-131.9c0-16.1-7.9-27.1-22.1-33.7c-3.1-1.4-3.7-3-3.7-6c0.1-11.5,0-23,0.1-34.5c0-4.3-1.9-9.8,0.8-12.5
		c2.7-2.7,8.2-0.8,12.5-0.8c11.7-0.1,20.7-9.1,20.8-20.9c0-9.6,0-19.3,0-28.9c0-20.3,0-40.6,0-61c0-10.8,0-10.8,10.3-12.7
		c1-0.2,2-0.3,2.9-0.5c23.1-4.2,45.2-11,65-24.1c20.2-13.4,34.4-31.2,39.9-55.2c0.2-0.8,0-2.1,1.4-2.4c3.8,2.5,7.6,5.2,11.6,7.6
		c4.7,3,9.6,2.2,12.4-1.8C525.6,221.1,524.4,215.8,519.8,212.6z M319.8,578.5C319.8,578.5,319.8,578.5,319.8,578.5
		c0-4.7,0.1-9.3,0-14c0-2.1,0.7-3,2.9-2.9c9.5,0.1,18.9,0,28.4,0c2.2,0,2.9,0.9,2.8,3c-0.1,9.3-0.1,18.6,0,27.9
		c0,2.4-0.8,3.2-3.2,3.2c-9.3-0.1-18.6-0.1-27.9,0c-2.5,0-3.1-1.1-3-3.3C319.9,587.8,319.8,583.2,319.8,578.5z M353.8,647.4
		c-0.2,10.3-7,16.6-17.3,16.5c-10.4-0.1-16.5-6.3-16.7-16.9c-0.1-4.8,0-9.6,0-14.5c0,0,0,0,0,0c0-5.3,0.1-10.6,0-16
		c-0.1-2.6,0.5-3.9,3.5-3.9c9,0.2,18,0.2,26.9,0c2.8,0,3.7,0.9,3.7,3.7C353.8,626.8,354.1,637.1,353.8,647.4z M353.8,508.7
		c0.4,10.8,0.1,21.7,0.2,32.5c0,2.4-0.9,3.2-3.2,3.2c-9.2-0.1-18.3-0.1-27.5,0c-2.6,0-3.5-0.9-3.4-3.5c0.1-5.5,0-11,0-16.5
		c0,0,0,0,0,0c0-5-0.1-10,0-15c0.3-9.9,6.4-15.8,16.5-16.2C346.2,492.9,353.4,499,353.8,508.7z M349.4,408c-4.3,0-8.6,0-13,0
		c-7.2,0-14.3-0.1-21.5,0.1c-3.1,0.1-3.9-1-3.9-4c-0.2-13.1-0.3-13.1,12.7-13.1c11.5,0,23,0.1,34.4-0.1c3.3-0.1,4.2,0.9,4.2,4.2
		C362.4,408,362.5,408,349.4,408z M328.2,369.4c0,3.4-0.8,4.5-4.4,4.5c-12.8,0-12.8,0.1-12.7-12.6c0-7.3,0-14.6,0-22
		c0-10.3,0.1-20.6-0.1-30.9c0-2.8,0.7-3.7,3.7-3.6c13.5,0.2,13.4,0.1,13.4,13.7C328.1,335.5,328.1,352.5,328.2,369.4z M362.3,369.9
		c0,2.9-0.7,4.3-3.9,4c-3.1-0.3-6.3-0.3-9.5,0c-3.2,0.3-3.8-1.2-3.8-4.1c0.1-20.1,0.1-40.2,0-60.3c0-3.2,0.8-4.3,4.1-4.4
		c13-0.5,13-0.6,13,12.5c0,7.5,0,15,0,22.4C362.2,350,362.1,360,362.3,369.9z M481.5,214.9c-3.4,19.7-14.7,34.3-30.3,45.9
		c-17.1,12.6-36.8,19.4-57.5,22.9c-40.6,6.9-81.2,7-121.6-1.7c-22.8-4.9-43.8-13.6-60.6-30.6c-9.6-9.7-16.3-21-19.1-34.4
		c-1-4.7,0-8.4,3.7-11.6c7.8-6.8,16.4-9,26.4-5.8c2.6,0.9,3.7,2.1,3.6,4.9c-0.2,5-0.1,10-0.1,15c0.1,5.4,3.6,9.2,8.4,9.3
		c4.8,0,8.4-3.8,8.6-9.1c0.1-3,0-6,0-9.7c5.6,2.5,10.7,4.8,15.9,7.2c1.6,0.7,1.1,2.3,1.1,3.5c0,5.3-0.1,10.7,0,16
		c0.1,5.4,3.7,9.2,8.5,9.1c4.8,0,8.3-3.8,8.4-9.2c0.1-3.8,0-7.6,0-11.9c5.4,1.8,10.2,3.5,15.1,4.9c2,0.6,1.9,2,1.9,3.5
		c0,4-0.1,8,0,12c0.2,5.7,3.4,9.1,8.5,9.1c5.1,0.1,8.2-3.3,8.6-9c0.2-3.4-1.6-8,1-9.8c2.1-1.4,6.3,0.6,9.6,0.7c5,0,7.1,1.9,6.4,7.1
		c-0.6,4.6,0.8,8.8,5.6,10.6c5.8,2.2,11.1-1.9,11.4-8.6c0.3-8.1,0.3-8.1,8.4-9.1c8.5-1,8.5-1,8.5,7.8c0,4.8,1.4,8.7,6.4,10.1
		c4.1,1.2,7.6-0.2,9.8-4c1.3-2.3,0.9-4.9,0.9-7.3c0-12,0-12,11.1-15.8c5.9-2,5.9-2,5.9,4.2c0,2.5-0.1,5,0.3,7.5
		c0.7,4.6,3.6,7.1,8.1,7.4c4.2,0.3,8.2-2.9,8.5-7.5c0.5-5.8,0.3-11.6,0.2-17.5c0-2,0-3.4,2.2-4.3c4.8-1.9,9.4-4.2,14.9-6.8
		c0,3.9-0.1,7.1,0,10.2c0.2,5.2,3.8,8.8,8.3,8.8c4.5,0,8.4-3.6,8.6-8.7c0.3-5.2,0.3-10.3,0-15.5c-0.2-3.2,1.1-4.4,3.9-5.3
		c10.2-3.2,21.4,0,28,8.2C481.3,209.7,482,212,481.5,214.9z"/>
	<path class="st1" d="M233.3,629.7c-14.9-0.8-24-10-24.3-24.8c-0.1-5.6-3.7-9.5-8.7-9.5c-4.6,0-8.2,3.8-8.6,9.1
		c-1.1,16.2-9.1,24.2-25,25.3c-5.7,0.4-9.5,4-9.2,8.9c0.3,5.2,3.8,8.3,9.7,8.4c14.1,0.3,23.9,9.6,24.4,23.7c0.2,4.6,1.5,8,5.4,10.3
		c2.3,0,4.7,0,7,0c3-2.7,5.1-5.5,5.1-10c-0.1-13.8,10.1-23.7,24-24c6.3-0.1,9.8-3.1,9.8-8.6C243,632.8,240,630,233.3,629.7z
		 M208.5,638.6c-0.5,2.6-4.2,4.4-6.3,6.8c-1.4,1.7-2.3,1.9-3.8,0.1c-2.1-2.6-4.5-4.9-6.7-7.4c2.7-2.6,5.8-5.6,8.9-8.7
		c0.6,0.7,1.5,1.5,2.1,2.4C204.5,634.5,209.1,635.8,208.5,638.6z"/>
	<path class="st1" d="M539.1,299.6c-3.9-3.8-8.6-3.7-12.4,0.1c-8.6,8.4-17,16.8-25.4,25.4c-3.4,3.5-3.5,8.3-0.2,11.7
		c8.6,8.8,17.3,17.5,26.1,26.1c3.3,3.2,8.1,3.4,11.3,0.2c9.7-9.6,19.7-18.8,28.6-29.1c0-2,0-4,0-6
		C557.7,318.5,548.5,309,539.1,299.6z M537,340.7c-2.8,3.4-5.1,3.9-8,0.1c-2.7-3.5-8.8-6-8.3-9.8c0.4-3.5,5.5-6.6,8.7-9.8
		c1.1-1.1,2-2.7,3.9-3.1c1.2,1.1,2.4,2.2,3.5,3.4c2.9,3.3,8.7,5.9,8.5,9.8C545.1,334.5,539.7,337.4,537,340.7z"/>
</g>
</svg>
