<?xml version="1.0" encoding="utf-8"?>
<!-- Generator: Adobe Illustrator 19.0.0, SVG Export Plug-In . SVG Version: 6.00 Build 0)  -->
<svg version="1.1" id="Calque_1" xmlns="http://www.w3.org/2000/svg" xmlns:xlink="http://www.w3.org/1999/xlink" x="0px" y="0px"
	 viewBox="0 0 612 792" style="enable-background:new 0 0 612 792;" xml:space="preserve">
<style type="text/css">
	.st0{fill:#71C184;}
	.st1{fill:#DCDDE2;}
	.st2{fill:#E54C3C;}
</style>
<g>
	<path class="st0" d="M510.9,441c-51.6-51.5-103.1-103.2-154.7-154.9c-15.9-15.9-31.7-31.9-47.5-47.9c-1.3-4.2-4.9-6.5-8-9.2
		c-1.4-1.2-3.2-1.2-4.6,0c-3.1,2.7-6.7,5-8,9.2c-1.7,1.8-3.4,3.7-5.1,5.4C217.4,309.5,151.7,375.3,86,441c-2.4,2.4-3.7,3.8-0.5,7
		c56.3,56.1,112.4,112.3,168.6,168.6c14.7,14.7,29.3,29.6,43.9,44.4c0.3,0,0.7,0,1,0c1.2-1.4,2.3-2.8,3.6-4.1
		c69.4-69.4,138.7-138.9,208.1-208.2C513.7,445.8,514.2,444.3,510.9,441z M473.2,448.8c-40.7,40.4-81.1,81-121.6,121.5
		c-16.6,16.6-33.2,33.2-49.6,50c-2.8,2.9-4.3,2.6-7-0.1C238,563.1,181.1,506,124,449c-3.5-3.5-3.4-5.2,0.1-8.7
		c57-56.8,113.9-113.8,170.7-170.7c1.2-1.2,2.4-2.3,3.6-3.4c1.4,1.3,2.6,2.4,3.8,3.6c28.2,28.2,56.3,56.3,84.4,84.5
		c28.7,28.8,57.4,57.6,86.3,86.2C476.2,443.6,476.8,445.2,473.2,448.8z"/>
	<path class="st1" d="M319.2,155.7c-4.6-3.4-10-4.8-15.2-6.7c-4,0-8,0-12,0c-0.6,1-1.7,0.8-2.6,1.1c-7.1,2-12.9,5.8-17.6,11.4
		c-10.9,12.9-10.3,26.7-3.5,41.2c5.8,12.3,12.7,24,19.9,35.5c2.6-2.5,5.3-5,7.8-7.6c1.8-1.9,3.2-1.8,4.9,0c2.5,2.6,5.2,5.1,7.8,7.6
		c7.7-12.2,14.8-24.8,21-37.8C337.7,184.1,333.2,166,319.2,155.7z M307.4,206c-2.2,4.3-4.8,8.3-7.2,12.5c-0.7,1.2-1.6,3.4-3,0.9
		c-5.5-10.4-12.6-19.9-15.6-31.6c-1.9-7.1,0.6-12.7,5.5-17c5.2-4.4,11.8-5.3,18.3-2.5c6.6,2.9,10.5,8.9,10.6,17
		C314.5,191.7,311.1,198.9,307.4,206z"/>
	<path class="st2" d="M299,315.6c0.9,1.1,1.4,2.2,2.3,3c41.1,41.1,82.1,82.3,123.4,123.3c3,3,1.2,4.2-0.7,6.1
		c-33.7,33.7-67.3,67.4-101,101.1c-7.2,7.2-14.5,14.3-21.5,21.6c-2.3,2.4-3.6,2.4-5.9,0c-33.7-33.9-67.5-67.7-101.3-101.5
		c-7.3-7.3-14.5-14.7-21.9-21.9c-2.3-2.2-2.1-3.3,0.1-5.5c41.3-41.2,82.5-82.4,123.7-123.7C296.8,317.5,297.7,316.8,299,315.6z"/>
</g>
</svg>
