<?xml version="1.0" encoding="utf-8"?>
<!-- Generator: Adobe Illustrator 19.0.0, SVG Export Plug-In . SVG Version: 6.00 Build 0)  -->
<svg version="1.1" id="Calque_1" xmlns="http://www.w3.org/2000/svg" xmlns:xlink="http://www.w3.org/1999/xlink" x="0px" y="0px"
	 viewBox="0 0 612 792" style="enable-background:new 0 0 612 792;" xml:space="preserve">
<style type="text/css">
	.st0{fill:#EF5936;}
	.st1{fill:#FCFCFC;}
	.st2{fill:#EF5A36;}
	.st3{fill:#FDFDFC;}
	.st4{fill:#FDFCFC;}
</style>
<g>
	<path class="st0" d="M448.8,661c-86.7,0-173.3,0-260,0c-3.9-0.9-7.9-0.8-11.8-1.1c-23.8-2-43.9-12.8-62.3-27.2
		c-16.7-13.1-29.9-29.3-39.5-48.3c-7.5-14.8-11.9-30.3-11.9-47c0-0.8,0.1-1.7-0.5-2.4c0-86.7,0-173.3,0-260c0.9-4,0.9-8.2,1.2-12.3
		c1.8-21.5,11.1-40,23.5-57c18.5-25.4,42.7-43.1,72.8-52.7c8.4-2.7,17.1-2.6,25.7-3.5c1-0.1,2,0.3,2.9-0.5c86.3,0,172.7,0,259,0
		c4.4,0.9,8.8,0.9,13.3,1.2c17.8,1.3,33.6,8.4,48.4,17.7c29.7,18.8,50.4,44.9,61.3,78.5c2.8,8.6,2.7,17.5,3.5,26.3
		c0.1,1.1-0.4,2.3,0.5,3.3c0,86.7,0,173.3,0,260c-1,3.7-0.9,7.5-1.2,11.3c-2,23.4-12.6,43.1-26.6,61.1
		c-18.1,23.2-41.2,39.4-69.2,48.5c-8.5,2.8-17.4,2.7-26.1,3.6C450.7,660.6,449.6,660.2,448.8,661z"/>
	<path class="st1" d="M260.8,258.3c10.4-0.1,19.4,7.9,20,18.4c0.2,2.9,1.2,4.3,3.8,5.5c35.3,15.9,70.6,32,105.8,48.1
		c2.3,1.1,4.3,1.1,6.6,0.2c15.1-5.8,30.2-11.4,45.2-17.2c3-1.2,4.4-1.2,5.7,2.4c14.6,39.3,29.4,78.5,44.4,117.6
		c1.5,4-0.2,4.7-3.2,5.8C406.1,470.4,323,501.7,239.9,533c-14.9,5.6-29.9,11.2-44.8,17c-3.3,1.3-4.4,0.7-5.7-2.6
		c-14.5-38.8-29.1-77.5-43.8-116.2c-1.6-4.2-0.9-5.7,3.4-7.3c14.9-5.3,29.5-11.2,44.4-16.6c3.3-1.2,5.1-3.1,6.5-6.2
		c15.9-34,32-68.1,48.1-102c1.4-2.9,1.2-4.4-1.1-6.7c-6-6.1-7.7-13.4-4.4-21.6C245.6,263.3,252.9,258.4,260.8,258.3z"/>
	<path class="st2" d="M196.7,541.3c-2.5-0.2-2.3-2.5-2.9-4c-6.7-17.7-13.4-35.5-20.1-53.2c-6.2-16.3-12.3-32.7-18.6-49
		c-1.4-3.6-1.2-5.1,2.9-6.7c86.3-32.4,172.4-65,258.6-97.5c6.8-2.6,13.8-5,20.5-7.8c3.8-1.6,5.3-0.9,6.7,3
		c12.7,34.1,25.7,68.2,38.7,102.2c1.4,3.7,0.8,5-2.9,6.4c-32.1,11.9-64.2,24.1-96.2,36.1C322.3,494,261.2,517,200,540.1
		C198.9,540.5,197.9,540.9,196.7,541.3z"/>
	<path class="st2" d="M207.9,401.7c5.5-11.7,10.3-22.1,15.2-32.4c10.6-22.4,21.2-44.8,31.7-67.2c1.3-2.8,2.6-4.3,6.2-4
		c6.6,0.5,12-2.6,15.9-7.8c1.3-1.8,2.4-2.3,4.5-1.3c33.3,15.2,66.5,30.3,99.8,45.5c0.4,0.2,0.8,0.6,1.7,1.3
		C324.8,357.6,267.1,379.4,207.9,401.7z"/>
	<path class="st2" d="M261,291c-6.8,0-12.3-5.6-12.4-12.4c0-6.9,5.3-12.5,12.2-12.6c6.9-0.1,12.9,5.8,12.8,12.7
		C273.6,285.2,267.7,291,261,291z"/>
	<path class="st1" d="M320.4,469.2c-8-0.1-14.3-3.8-18.1-10.5c-5.8-10.3-10.2-21.3-12.6-32.9c-2.3-11.6,3.8-21.1,15.2-25.5
		c11.3-4.4,22.7-1.5,28.6,8.4c6.3,10.6,11,22.1,13,34.3C348.7,457.2,336.2,469.3,320.4,469.2z"/>
	<path class="st1" d="M377.2,414.7c-5.1,0.3-9.9,0-14.5-1.7c-10.9-3.9-15.6-16.8-9.6-26.6c4.5-7.4,11.6-10.7,20.2-10.8
		c7.5,0,13.1,3.4,16.7,9.9c0.7,1.3,2.9,3.5-0.1,4.3c-2.5,0.7-5.1,4.8-8,0.6c-1.2-1.8-2.5-3.6-4.2-4.8c-4.1-2.9-8.4-2.9-12.7-0.5
		c-3.7,2-5.5,5.4-5,9.6c0.5,4.7,2.6,8.6,7.5,10.2c3.2,1.1,6.5,1.2,9.9,1.1c4-0.1,8,0.2,11.9,0.9c8.2,1.5,14.1,7.5,15.5,15.6
		c1.3,7.7-1.9,14.8-9.1,19c-6.7,4-13.8,5.7-21.5,3.3c-3.8-1.2-6.9-3.3-9.2-6.5c-4.1-5.5-2.8-8.2,4.1-9.2c2.3-0.3,2.3,1.5,3,2.6
		c3.9,5.9,9.5,7.8,15.9,5.2c4.6-1.8,7.6-4.9,7.7-10c0.1-5.1-3.4-9.6-8.3-11.3C384,414.5,380.4,414.9,377.2,414.7z"/>
	<path class="st3" d="M439.7,355.1c0,3.3-2,3.2-3.2,3.7c-6,2.4-12,4.9-18.2,6.9c-3.6,1.1-3.8,2.7-2.4,5.7c1.9,4.2,3.6,8.6,5,13
		c1.1,3.6,2.8,3.6,5.8,2.3c4.9-2.1,10-3.8,14.8-5.9c2.5-1.1,3.5-0.4,4.3,2c0.7,2.1,1.8,3.9-1.5,5c-5.2,1.8-10.2,4.1-15.4,5.8
		c-3.3,1.1-3.6,2.5-2.3,5.4c2.2,5.2,4.3,10.5,6.1,15.8c1,2.8,2,3.6,5,2.3c6.3-2.7,12.8-4.7,19.1-7.4c3-1.3,3.9-0.2,5,2.4
		c1.2,2.8,0.2,3.7-2.2,4.6c-9.5,3.5-19,7.1-28.4,10.9c-3,1.2-3.9,0.3-4.9-2.4c-7.4-19.4-14.8-38.8-22.4-58.2c-1-2.5-0.9-3.7,2-4.7
		c9.4-3.4,18.7-7.1,28-10.6C437,350.6,439.8,352.7,439.7,355.1z"/>
	<path class="st4" d="M237.9,488.1c-0.3,10.8-5.4,16.5-13.6,20c-9.1,3.9-17.5,3.3-25-3.5c-1.6-1.4-3.1-3.1-4.1-5
		c-5.4-10.7-10.2-21.7-12.7-33.4c-1.7-8.3,0.8-15.7,7.7-20.8c7.5-5.6,15.9-7.7,24.9-4.2c3.3,1.3,5.7,3.9,7.6,6.9
		c3.5,5.6,3.2,6.3-3,8.4c-2.4,0.8-3.1-0.1-4.2-1.9c-4-6.7-8.4-8.5-14.9-6.4c-6.5,2.1-9.5,6.8-9,14.3c0.2,3.7,1.6,7.1,2.9,10.5
		c2.9,7.2,5,14.8,8.9,21.6c4.3,7.4,10.3,9.7,17.1,7c6.3-2.4,8.9-7.1,7.6-13.8c-0.7-3.8,2.7-7.5,6.6-7.1c1.3,0.1,1.6,1,1.9,2
		C237.3,484.9,238,487.2,237.9,488.1z"/>
	<path class="st1" d="M242.4,425.1c3.2-0.4,3.1,1.8,3.7,3.2c6.4,16.6,12.9,33.1,19.1,49.8c1.4,3.9,2.9,4.7,6.7,3
		c5.9-2.7,12.1-4.6,18.1-7.1c2.9-1.2,3.9-0.5,5,2.3c1,2.7,0.6,3.7-2.1,4.7c-9.7,3.6-19.3,7.2-28.8,11.1c-2.6,1.1-3.6,0.6-4.7-2.1
		c-7.5-19.7-15.1-39.4-22.7-59.1C235.7,428.2,239,425.4,242.4,425.1z"/>
	<path class="st2" d="M337.1,445.1c-0.1,8.8-3.3,13.2-9.5,15.4c-6.3,2.2-12.3,0.9-15.8-4.8c-6.4-10.2-10.6-21.4-12.9-33.2
		c-1.5-7.7,2.1-12.7,9-15.2c7.1-2.5,13.4-0.7,17.1,6C330.8,424,334.7,435.5,337.1,445.1z"/>
</g>
</svg>
