<?xml version="1.0" encoding="utf-8"?>
<!-- Generator: Adobe Illustrator 19.0.0, SVG Export Plug-In . SVG Version: 6.00 Build 0)  -->
<svg version="1.1" id="Calque_1" xmlns="http://www.w3.org/2000/svg" xmlns:xlink="http://www.w3.org/1999/xlink" x="0px" y="0px"
	 viewBox="0 0 612 792" style="enable-background:new 0 0 612 792;" xml:space="preserve">
<style type="text/css">
	.st0{fill:#030302;}
	.st1{fill:#3F3F3F;}
	.st2{fill:#FBDE02;}
	.st3{fill:#FCDF01;}
	.st4{fill:#FDDF00;}
	.st5{fill:#FDA700;}
	.st6{fill:#000100;}
	.st7{fill:#62D1FB;}
	.st8{fill:#00D86B;}
	.st9{fill:#010101;}
</style>
<g>
	<path d="M73.8,319.8c1.8-17.5,17.3-31.6,35.4-31.7c37.8-0.2,75.7-0.1,113.5-0.1c105,0,210,0,315,0c23.5,0,39.2,15.5,39.2,39
		c0,91.2,0,182.3,0,273.5c0,20.5-10.4,33.8-30.3,38.8c-0.2,0.1-0.4,0.5-0.6,0.7c-147.7,0-295.3,0-443,0
		c-12.7-2.2-21.6-9.2-27.3-20.6c-2.1-4.2-2.3-8.6-2.2-13.1c0-48.3,0-96.5,0-144.8c1.2-5,3-6.7,7.6-6.9c4.7-0.3,8.1,2,9.6,6.3
		c1,2.9,0.8,5.9,0.8,8.9c0,42.5,0,84.9,0,127.4c0,2.7-0.1,5.3,0.3,8c1.4,9.3,8.2,15.6,17.6,16.1c2,0.1,4,0.3,6,0
		c139.7-0.1,279.4-0.1,419.1,0c2.5,0.4,5,0.1,7.5-0.1c8.5-0.9,15-7.4,16.2-15.9c0.3-2.3,0.2-4.7,0.2-7c0-89.6,0-179.2,0-268.7
		c0-1.7,0-3.3-0.1-5c-0.6-10.5-7.7-17.6-18.2-18c-1.8-0.1-3.7-0.3-5.5,0c-140,0-279.9,0.1-419.9,0c-15.9-0.6-23.2,6.2-23.3,22
		c-0.1,21.3,0,42.6,0,63.8c0,2.5,0.1,5-0.7,7.4c-1.5,4.3-5.5,6.8-10.1,6.4c-4.5-0.4-6.5-2.7-7.2-7.9c0-24.4,0-48.8,0-73.2
		C73.5,323.4,73.2,321.5,73.8,319.8z"/>
	<path d="M350.5,237.3c3.2,0.1,6.3,0.3,9.5,0.3c67.5,0,135,0,202.5,0c1.3,0,2.7,0,4,0c8.7,0.1,11.9,4.6,9.3,13
		c-0.9,3.2-3.3,4.4-6.3,4.8c-2.7,0.3-5.3,0.2-8,0.2c-90.9,0-181.9,0-272.8,0c-4.2,0-8.3,0.2-12.5,0.2c-3.9,0-7.8-0.5-9.1-5.3
		c-2.1-7.1-0.2-11,6.2-13.2c51.6-17.6,103.3-35.2,154.9-52.9c45.2-15.5,90.4-31,135.6-46.5c0.8-0.3,1.5-0.7,2.2-1.1c1.7,0,3.3,0,5,0
		c6.1,4.1,6.8,6.2,4.8,13c-1,3.5-4,4.6-7.1,5.7c-12.1,4.1-24.3,8.3-36.4,12.4c-45.6,15.4-91,31.3-136.5,46.7
		c-21.6,7.3-43.1,14.6-63.8,22C337.7,237,344.1,235.9,350.5,237.3z"/>
	<path class="st0" d="M73,428c0.5-0.8,1-1.7,1.6-2.5c3.4-4.2,8.9-4.7,12.6-1.2c3.4,3.3,3.5,8.6,0.1,12c-3.7,3.7-9.1,3.3-12.6-1
		c-0.6-0.7-1.1-1.6-1.7-2.4C73,431.3,73,429.7,73,428z"/>
	<path class="st1" d="M73.8,608.2c-0.3-0.1-0.6-0.2-0.8-0.2c0-49,0-98,0-147c0.3,0,0.6,0,1,0c0,48.6,0.1,97.2,0.1,145.8
		C74.1,607.3,73.9,607.8,73.8,608.2z"/>
	<path class="st1" d="M73.8,399.3c-0.3-0.1-0.5-0.2-0.8-0.3c0-26.3,0-52.7,0-79c0.2-0.4,0.5-0.4,0.8-0.2
		C73.8,346.3,73.8,372.8,73.8,399.3z"/>
	<path d="M157.1,271.1c-10.7,0-21.3,0-32,0c-6.2,0-8.8-2.2-10-8.1c-5.3-25.5-9.9-51.2-15.8-76.7c-4.9-21,10.7-40.4,32.5-40.9
		c17-0.3,34-0.4,51,0c21.6,0.5,36.9,19.8,32.3,40.6c-5.6,24.8-10.2,49.8-15.3,74.7c-1.8,8.9-3.7,10.4-12.7,10.4
		C177.1,271.1,167.1,271.1,157.1,271.1z"/>
	<path class="st2" d="M267.1,250.6c3.5,4.4,8.3,3.8,13.2,3.7c37-0.1,73.9-0.1,110.9-0.1c58.1,0,116.2,0,174.3,0
		c4,0,7.6-0.4,10.3-3.7c2.1,7.8-1.4,12.2-10,12.2c-60.6,0-121.3,0-181.9,0c-36,0-72,0.1-107.9,0.1
		C268.1,263,264.3,257.7,267.1,250.6z"/>
	<path class="st3" d="M350.5,237.3c-7.6,0-15.3,0-22.9,0c0.7-1.7,2.8-1.6,4.4-2.1c78.8-27.1,157.7-54.1,236.5-81
		c2.7-0.9,5.2-2.1,7.2-4.2c1.9,7.1,0,10.1-8.4,12.9c-46.9,16-93.7,32-140.6,48.1c-23.3,8-46.5,16-69.8,23.9
		C354.8,235.7,352.7,236.5,350.5,237.3z"/>
	<path class="st4" d="M114.7,622.9c-5.8-6.7-8.3-14.4-7.8-23.2c0.3-6.2,0.2-12.5,0.2-18.8c2.5,0.4,2.8,2.7,3.7,4.3
		c4,7.5,10.4,11.2,18.7,11.2c18.5,0.2,37,0.2,55.4,0c10.9-0.1,18.4-6.7,20.7-17.4c0.6-2.8,1-5.6,1-8.4c0-15.5,0-31,0-46.5
		c0-5.9-1.1-11.6-4.7-16.5c-4.8-6.4-11.5-9-19.1-9.1c-16.6-0.2-33.3-0.3-50,0c-9.9,0.2-18.3,3.6-22.9,13.2c-0.6,1.2-1.2,2.4-2.7,2.7
		c-0.1-23.8-0.2-47.6-0.2-71.3c0-38.2,0.1-76.5-0.1-114.7c-0.1-8.9,2-16.7,7.8-23.5c25.3-0.1,50.6-0.2,76-0.2
		c113.1,0,226.3,0,339.4,0c1.7,0,3.3,0.2,5,0.2c5,2.2,6.5,7,8.1,11.5c1.4,4,1.6,8.1,1.6,12.3c0,82.6,0,165.3,0,247.9
		c0,2.6,0.3,5.4-1.1,7.8c-3.4,1.8-3.6-1.4-4.3-3.1c-2.7-6.1-5-12.3-7.5-18.5c-6.7-16.8-13.5-33.7-20.2-50.5
		c-0.7-1.9-1.5-3.7-2.2-5.6c-1.6-3.8-3.2-7.7-8.1-7.6c-4.9,0.1-6.4,4.2-7.9,7.9c-10.1,25.4-20.3,50.7-30.4,76
		c-0.3,0.8-0.6,1.5-0.9,2.3c-2.3,6.6,0.6,10.9,7.6,11.1c9.3,0.2,18.6,0.1,28,0.1c10,0,20-0.1,30,0.1c5.2,0.1,10.3-0.1,14.9-3
		c1.3,0.4,1.8,1.5,1.9,2.6c0.8,8.4-0.5,16.4-5.3,23.6c-1,1.5-2.4,2.2-3.9,3c-30,0.1-60,0.2-90,0.2c-108.6,0-217.3,0-325.9,0
		C117.6,623.1,116.2,623,114.7,622.9z"/>
	<path class="st5" d="M542.2,585c1.3-1.8,0.7-3.9,0.7-5.8c0-83.6,0-167.2,0.1-250.8c0-8.9-2.5-16.6-8.1-23.4
		c16.2-1.3,25,6.7,25,22.7c0,90.6-0.2,181.3,0.2,271.9c0.1,13.9-9.3,25.7-25.2,23.3c7-8.5,9.4-18.2,7.3-29
		C541.2,591,541.2,588,542.2,585z"/>
	<path d="M107.1,514.5c4.5-12.5,13.5-17.5,26.6-17.2c16.3,0.4,32.6,0.1,48.9,0.1c15.9,0,25,9.2,25,25.2c0,16.8,0,33.6,0,50.4
		c0,16.1-9,25-25,25c-16.3,0-32.6-0.4-48.9,0.1c-13.2,0.4-22-4.8-26.5-17.2C106.7,558.8,106.7,536.7,107.1,514.5z"/>
	<path class="st4" d="M121.9,211.2c6.1,1.5,11.5,1.7,17,1.7c13.3-0.1,26.6,0,39.9-0.1c3.5,0,7-0.1,10.4-0.9c3.5-0.9,3.1,0.8,2.7,3
		c-2.4,12.1-4.9,24.1-7.2,36.2c-0.5,2.6-1.6,3.4-4.3,3.4c-15.5-0.1-31-0.1-46.4-0.1c-1.8,0-3.4,0.2-4-2.5
		C127.4,238.4,124.7,225.1,121.9,211.2z"/>
	<path class="st4" d="M156.5,195.4c-7.8,0-15.6,0.1-23.5,0c-10.4-0.1-18.1-7.4-17.9-16.7c0.2-9.5,7.9-16.5,18.2-16.5
		c16.1,0,32.3-0.1,48.4,0c8.4,0.1,15,5.2,16.9,12.9c1.7,7-2,15-8.6,18.5c-2.9,1.6-6,1.8-9.2,1.8
		C172.8,195.4,164.6,195.4,156.5,195.4C156.5,195.4,156.5,195.4,156.5,195.4z"/>
	<path d="M396.9,380.7c1.7,9.1,2,17.5-0.7,25.8c-0.5,1.7,0.7,2.2,1.8,3.1c10,8,13.4,18.4,9.7,29.1c-3.7,10.7-13,16.9-25.6,16.9
		c-40.8,0-81.6,0.1-122.5,0c-13.2,0-23-7.4-26-19.1c-3-11.4,2.3-22.5,13.6-28.7c1.5-0.8,2.6-1.5,3-3.5c2.9-16.8,13-28.5,26.7-37.4
		c15.8-10.3,33.6-14.9,52-17.8c9.4-1.5,18.8-3,28.3-2.3c11.1,0.8,20.5,5.5,28.1,13.6c2,2.1,3.6,2.8,6.4,1.8
		c4.8-1.7,9.2-3.9,12.9-7.3c2.5-2.3,4.2-5,4.6-8.6c0.5-5.2,4.5-8.5,9-8c4.8,0.5,8.2,4.7,7.7,9.9c-0.7,7.7-4.3,14-10,18.9
		c-2.5,2.1-3.1,3.4-0.3,5.9c6.4,5.7,9.4,13.2,10.3,21.6c0.6,5.8-2.4,10.1-7.3,10.6c-5.4,0.6-8.9-2.7-9.5-9
		C408.3,388.8,404.6,383.8,396.9,380.7z"/>
	<path d="M451,396.8c0-15,0-30,0-45c0-12.7,8.9-21.8,21.5-21.9c13.7-0.1,27.3-0.1,41,0c12.1,0.1,21.3,9.1,21.4,21.1
		c0.2,30.6,0.2,61.3,0,91.9c-0.1,11.7-9.4,20.8-21.1,21c-14,0.2-28,0.2-42,0c-11.7-0.2-20.7-9.5-20.8-21.2
		C450.9,427.4,451,412.1,451,396.8z"/>
	<path d="M199.1,397c0,14.8,0,29.6,0,44.5c-0.1,13.6-8.9,22.5-22.5,22.5c-13,0.1-26,0.1-39,0c-13-0.1-22.3-8.7-22.4-21.7
		c-0.3-30.5-0.2-60.9,0-91.4c0.1-12.1,9.4-20.8,21.6-20.9c13.7-0.1,27.3-0.1,41,0c12.3,0.1,21.3,9.2,21.3,21.6
		C199.2,366.7,199.1,381.8,199.1,397z"/>
	<path class="st6" d="M434.1,547.9c0,9.2,0.1,18.3,0,27.5c-0.1,13.1-9.7,22.6-22.8,22.7c-18.3,0.1-36.6,0.1-55,0
		c-12.9-0.1-22.6-9.2-22.9-22.1c-0.3-18.8-0.3-37.6,0-56.5c0.2-12.5,9.5-21.7,22.1-21.9c18.8-0.3,37.6-0.3,56.5,0
		c13,0.2,21.9,9.9,22.1,22.9c0.1,4.7,0,9.3,0,14C434.1,538.9,434.1,543.4,434.1,547.9z"/>
	<path d="M266,598c-10.7,0-21.3,0-32,0c-7.8,0-11.5-5.4-8.6-12.7c10.8-27.2,21.8-54.3,32.6-81.4c1.5-3.7,3.9-6.3,8.1-6.4
		c4.4-0.1,7,2.4,8.6,6.4c10.8,27.2,21.7,54.3,32.5,81.5c3,7.5-0.6,12.6-8.6,12.6C287.7,598.1,276.9,598,266,598z"/>
	<path class="st6" d="M542.2,585c1.1,3,1.3,6,0,8.9c-2.3,3.1-5.3,4.1-9.1,4.1c-21.3-0.1-42.6,0-64-0.1c-8.1,0-11.7-5.3-8.6-13
		c10.8-27,21.6-53.9,32.4-80.9c1.6-3.9,4-6.6,8.4-6.6c4.4,0,6.8,2.7,8.4,6.6C520.5,531.1,531.4,558.1,542.2,585z"/>
	<path class="st7" d="M157,581.2c-8.7,0-17.3,0-26,0c-5.7,0-7.3-1.5-7.3-7c-0.1-17.7-0.1-35.3,0-53c0-5,1.9-7,6.9-7
		c17.7-0.1,35.3-0.1,53,0c5.2,0,7.2,2.1,7.2,7.4c0.1,17.5,0.1,35,0,52.5c0,5.2-2,7.1-7.3,7.1C174.7,581.2,165.8,581.2,157,581.2z"/>
	<path class="st7" d="M322.5,405.2c-17.1,0-34.3-0.1-51.4,0.1c-4.2,0.1-4.2-1.4-2.9-4.5c3.3-7.8,8.7-13.7,15.6-18.4
		c13.6-9.4,29.1-13.6,45-16.3c6.9-1.2,13.8-1.8,20.8-2.6c20.7-2.5,37.7,19.4,30.4,39.1c-1,2.8-2.8,2.7-5,2.7
		C357.4,405.2,339.9,405.2,322.5,405.2z"/>
	<path class="st7" d="M321,438.9c-20.3,0-40.6,0-61,0c-4.5,0-8.3-1.1-10-5.8c-2.1-5.9,2.1-11.1,8.9-11.1c17-0.1,34,0,51,0
		c24.2,0,48.3,0,72.5,0c4,0,7.2,1.2,9,5c1.3,2.9,1,5.9-1,8.5c-2.3,2.9-5.4,3.4-8.9,3.4C361.3,438.8,341.2,438.9,321,438.9z"/>
	<path class="st8" d="M467.9,416.6c0-6.2,0.2-11.5-0.1-16.8c-0.2-4.1,1.6-6.5,4.9-8.4c8.7-5.2,18.3-7.7,28.2-9.3
		c4.4-0.7,8.9-0.9,13.3-1.6c2.8-0.4,3.9,0.2,3.9,3.2c-0.2,6.1-0.2,12.3,0,18.5c0.1,2.5-0.7,3.5-3.3,3.6
		C498.7,406.5,483.2,409.6,467.9,416.6z"/>
	<path class="st8" d="M467.9,374.9c0-8.4,0-15.8,0-23.3c0-3.4,1.9-4.8,5.1-4.8c13.3,0,26.7,0,40,0c3.5,0,5,1.8,5.2,5.3
		c0.6,11,0.6,10.9-10.1,12.2C494.4,365.8,481.1,368.3,467.9,374.9z"/>
	<path class="st8" d="M493,447.1c-6.2,0-12.3,0-18.5,0c-2.6,0-5.5,0.2-6.2-2.9c-0.8-3.2-1.2-6.6,2-9.1c3.4-2.7,7.4-4.5,11.4-6.1
		c10.7-4.1,21.9-5.6,33.1-6.7c2.4-0.2,3.3,0.5,3.3,2.9c-0.1,5.5-0.1,11,0,16.5c0,3.8-1.9,5.4-5.6,5.4
		C506,447.1,499.5,447.1,493,447.1z"/>
	<path class="st8" d="M132,416.7c0-6.7,0-12.8,0-19c0-3.4,2.7-4.8,5-6.3c8.6-5.3,18.3-7.7,28.2-9.3c4.4-0.7,8.9-0.9,13.4-1.6
		c2.5-0.4,3.7,0,3.7,2.9c-0.1,6.3-0.1,12.6,0,19c0,1.9-0.3,3.2-2.6,3.3C163.3,406.5,147.4,409.6,132,416.7z"/>
	<path class="st8" d="M132,374.8c0-8.2,0-15.8,0-23.4c0-3,1.8-4.6,4.7-4.6c13.6-0.1,27.2,0,40.9,0c2.4,0,4.3,1.3,4.4,3.8
		c0.2,3.6,0.1,7.3,0.1,11c0,1.8-1.1,2.2-2.6,2.3C163.3,364.6,147.4,367.6,132,374.8z"/>
	<path class="st8" d="M157.5,447.1c-6.3,0-12.7,0-19,0c-2.7,0-5.3-0.2-6.1-3.1c-0.8-3-1.1-6.3,1.9-8.7c2.7-2.2,5.8-3.9,9-5.3
		c11.5-4.9,23.6-6.6,35.9-7.8c2.6-0.3,3.1,0.9,3.1,3.1c-0.1,5.5,0,11,0,16.5c0,3.5-1.8,5.2-5.3,5.2
		C170.5,447.1,164,447.1,157.5,447.1z"/>
	<path class="st7" d="M417.3,547.5c0,8.8,0,17.7,0,26.5c0,5.6-1.5,7.2-7.1,7.2c-17.7,0.1-35.3,0.1-53,0c-5,0-7-2-7-6.9
		c-0.1-17.7-0.1-35.3,0-53c0-5,2.1-7,7-7.1c17.8-0.1,35.6-0.1,53.5,0c4.5,0,6.7,2.3,6.7,6.8C417.3,529.8,417.3,538.7,417.3,547.5z"
		/>
	<path class="st8" d="M266.3,528.5c6.9,17.2,13.3,33.2,19.8,49.2c1.3,3.1,0.2,3.6-2.6,3.5c-11.5-0.1-23,0-34.5-0.1
		c-1.7,0-4.1,0.6-2.8-2.7C252.8,562.2,259.3,545.8,266.3,528.5z"/>
	<path class="st8" d="M480.2,581.2c7.1-17.7,13.9-34.7,21.1-52.7c6.2,15.5,12,29.9,17.7,44.3c3.4,8.4,3.4,8.4-5.7,8.4
		C502.5,581.2,491.7,581.2,480.2,581.2z"/>
	<path d="M174,538.6c0,3.2-1.1,5.2-2.8,6.9c-5.4,5.4-10.7,10.9-16.2,16.2c-3.7,3.6-8.7,3.7-12,0.4c-3.4-3.3-3.5-8.3,0.1-12
		c5.4-5.6,11-11.1,16.5-16.6c2.7-2.7,6-3.5,9.6-1.7C172.3,533.4,173.7,536,174,538.6z"/>
	<path class="st9" d="M375.5,564.5c-3.2-0.1-5.9-1.4-7.5-4.6c-1.6-3.1-1.4-6.3,0.9-8.8c5.9-6.3,12-12.4,18.3-18.3
		c3.2-2.9,7.8-2.4,10.8,0.6c3.1,3,3.6,8,0.6,11.3c-5.8,6.2-11.9,12-17.9,18C379.3,564,377.5,564.3,375.5,564.5z"/>
</g>
</svg>
