<?xml version="1.0" encoding="utf-8"?>
<!-- Generator: Adobe Illustrator 19.0.0, SVG Export Plug-In . SVG Version: 6.00 Build 0)  -->
<svg version="1.1" id="Calque_1" xmlns="http://www.w3.org/2000/svg" xmlns:xlink="http://www.w3.org/1999/xlink" x="0px" y="0px"
	 viewBox="0 0 612 792" style="enable-background:new 0 0 612 792;" xml:space="preserve">
<style type="text/css">
	.st0{fill:#D1D4D5;}
	.st1{fill:#AFC2CF;}
	.st2{fill:#FDFDFD;}
	.st3{fill:#8CACBE;}
	.st4{fill:#ED761D;}
	.st5{fill:#83919C;}
	.st6{fill:#69818E;}
	.st7{fill:#F7D849;}
	.st8{fill:#799AB1;}
</style>
<g>
	<path class="st0" d="M409,615.1c1.2,1.3,2.8,0.9,4.2,0.9c40.8,0,81.5,0.3,122.3-0.2c10.9-0.1,18.2,3.4,22.5,13.3c0,3,0,6,0,9
		c-1.6,7.1-5.9,11.4-13,13c-161.7,0-323.3,0-485,0c-7.7-1.1-12.3-5.5-14-13c0-3,0-6,0-9c1.7-2.8,2.9-5.8,5.4-8.2
		c3.5-3.2,7.1-4.9,12-4.9c41.9,0.1,83.7,0.1,125.6,0c2.1,0,4.4,0.8,6.1-1.1c0.8-0.6,1.8-0.7,2.8-0.5c33.4,0.1,66.8,0.1,100.1,0
		c0.8,0,1.7,0,2.5-0.3c1-0.2,1.9-0.2,2.9,0c2.6,0.8,5.3,0.3,8,0.3c31.6,0,63.3,0.2,94.9-0.1C407.3,614.2,408.2,614.3,409,615.1z"/>
	<path class="st1" d="M309,148c6.8,2.5,13.8,4.3,19.7,9c8.7,6.8,14,15.4,16.4,25.9c-1.5,1.8-3.6,1.5-5.6,1.5
		c-24.6-0.1-49.3,0.4-73.9,0.2c-2.3,0-4.7,0.2-6.6-1.6c3.4-17,13.8-27.6,30-33c2-0.7,4.3-0.5,6-2C299.7,148,304.3,148,309,148z"/>
	<path class="st2" d="M46,638c3,6.2,7.4,10.7,14,13c-0.3,0-0.7,0-1,0c-4.3,0-10.4,1.7-12.5-0.5C44.3,648.4,46,642.3,46,638z"/>
	<path class="st2" d="M545,651c5.8-2.8,10.2-7.2,13-13c0,4.3,1.7,10.4-0.5,12.5C555.4,652.7,549.3,651,545,651z"/>
	<path class="st1" d="M100,504c-1.8-2.7-1-5.8-1-8.7c-0.1-40.8-0.1-81.6,0-122.4c0-2.6,0-5-3.1-5.9c1.3-3.1,1.5-6.4,1.5-9.8
		c0-29.1,0-58.3,0-87.4c0-2-0.1-4,0.5-5.9c2.3-4.2,0.6-8.7,1.1-13c0.2-2,0.2-3.9,0.2-5.9c1.9-1.8,4.3-1.5,6.6-1.5
		c63.1,0,126.3,0,189.4,0c2.3,0,4.7-0.1,6.7,1.3c1.4,1.4,1.6,3.3,1.6,5.1c0,30.3,0.4,60.6-0.2,90.9c-0.3,2.1-1.5,3.6-3,5.1
		c-10.5,10.5-20.9,21-31.7,31.6c10,10,20.1,20.1,30.2,30.2c1.9,1.9,4,3.6,4.5,6.5c0.7,13.8,0.2,27.6,0.3,41.4
		c0.1,12.6,0,25.3,0,37.9c0,2.6,0.3,5.4-1.5,7.7c-3,2.2-6.4,1.5-9.7,1.5c-60.6,0-121.1,0-181.7,0C107.1,502.6,103.5,502.6,100,504z"
		/>
	<path class="st3" d="M301.9,245c-67.6,0-135.1-0.1-202.7-0.1c0-10.3-1.1-20.8,0.3-30.9c2.6-19,17.6-30.7,37.7-30.8
		c39.1-0.1,78.3,0,117.4-0.1c1.5,0,3-0.1,4.5-0.2c28.7,0,57.4-0.1,86.1-0.1c41.1,0,82.2,0,123.3,0.1c1.9,0,4-0.6,5.8,0.8
		c-2.6,2.6-5.9,1.8-9,1.8c-50.6,0.1-101.2,0-151.8,0c-9.7,0-9.7,0-9.7,9.9c0,13.8,0,27.6,0,41.5c0,2.5,0.3,5-1,7.3
		C302.3,244.6,302.1,244.8,301.9,245z"/>
	<path class="st3" d="M100,504c-0.2-3.9,2.7-3,4.9-3c30.5,0,61,0,91.5,0c35.2,0,70.3,0,105.5,0c0.2,0.2,0.5,0.4,0.7,0.6
		c1.9,8.3,1,16.7,0.6,25.1c-0.8,2.6-3.2,3.7-5.1,5.1c-8.9,6.5-18.2,12.6-25.3,21.3c-1.1,1.3-2.6,2.1-4.3,2.3
		c-20.8,0.5-41.6,0.4-62.4,0.1c-3.1-0.3-5.2-2.2-6.8-4.6c-2.3-3.5-4.8-3.3-7.8-0.8c-2.2,1.8-4,4.6-7.5,4.1
		c-11.9-0.7-23.9,0.7-35.8-1.1C124.7,549.6,101.8,526.4,100,504z"/>
	<path class="st3" d="M97.9,263.9c1.4,1.1,1.1,2.7,1.1,4.1c0,31.6,0,63.1,0,94.7c0,2.2,0.3,4.5-3.1,4.4
		c-20.8-3.8-38.6-23.5-40.9-45.4c-2.8-26.1,13.6-50.2,38.9-57.1C95.2,264.2,96.6,264.1,97.9,263.9z"/>
	<path class="st4" d="M183.8,554.1c3.1-2.3,6.2-4.4,9.1-6.8c2.3-1.9,3.9-1.6,5.6,0.8c1.5,2.1,3.4,4,5.1,6
		c8.3,7.1,14.5,15.9,18.9,25.8c1.6,3.6,1.6,8.1-0.2,11.7c-5.4,11-14.6,18.1-25.2,23.5c-0.6-0.1-1.3-0.2-1.9-0.3
		c-5.8-7.4-11.7-14.8-17.4-22.3c-1.7-2.2-3.3-4.6-4.7-7c-5.1-8.6-4.6-15.1,2-22.7C177.7,559.8,180.9,557,183.8,554.1z"/>
	<path class="st5" d="M301.9,342.9c0-32.6,0-65.3,0-97.9c0,0,0.3,0,0.3,0c1.9-1.8,4.3-1.6,6.6-1.6c63.2,0,126.3,0,189.5,0
		c2.3,0,4.7-0.2,6.6,1.6c0.1,6.2,0.2,12.5,0.3,18.7c1.5,2.2,1.4,4.7,1.4,7.2c0,30,0,60.1,0,90.1c0,2.5,0.1,5-1.5,7.2
		c0,42.7,0,85.5-0.1,128.2c0,2.6,0.8,5.3-0.9,7.7c-3.5-1.4-7.1-1.4-10.8-1.4c-60.7,0-121.3,0-182,0c-3.1,0-6.4,0.7-9.1-1.6
		c0,0-0.3,0-0.3,0c0-29.6,0-59.3,0-88.9c0-0.3,0.1-0.7,0.3-0.9c10.8-11.7,22.4-22.7,33.4-33.8c-3.5-2.5-6.6-6.2-10-9.6
		c-6.8-6.6-13.4-13.4-20.1-20.1C304.1,346.2,302.3,345.1,301.9,342.9z"/>
	<path class="st6" d="M504.9,245c-67.6,0-135.1,0-202.7,0c0-19,0-38-0.2-56.9c-0.1-4.6,2.6-4.1,5.4-4.1c53.9,0,107.9,0,161.8,0
		c1.7,0,3.3-0.1,5-0.1c16.9,1.6,30.7,16.7,30.8,33.7C505,226.7,504.9,235.8,504.9,245z"/>
	<path class="st6" d="M302.1,501c65.5,0,131,0,196.5,0c2.2,0,5.4-1.3,5.4,3c-3.1,20.3-14.7,34.4-32.4,43.8c-8.2,4.3-17,6.3-26.3,6.2
		c-10-0.1-19.9,0.1-29.9,0.1c-2.3-0.2-3.6-1.8-4.6-3.5c-2.3-3.9-4.5-3.2-7.5-0.8c-2.8,2.3-5.4,5.1-9.3,5.4
		c-22.4,0.4-44.8,0.4-67.1,0c-1.9-0.2-3.6-0.9-4.8-2.4c-6-7.3-12.4-14.4-18.4-21.7c-0.8-1-1.7-2.1-1.7-3.5
		C302,518.9,302.1,509.9,302.1,501z"/>
	<path class="st3" d="M505.1,368.1c0-34.8,0.1-69.6,0.1-104.5c22.7,2.7,42.7,25.3,44,48.1C550.6,338.5,532.6,362.8,505.1,368.1z"/>
	<path class="st4" d="M395.7,554.1c3.2-2.4,6.6-4.5,9.6-7.1c2.1-1.8,3.3-1.4,4.8,0.6c1.7,2.3,3.6,4.4,5.4,6.5
		c4.7,6.6,10.4,12.6,14.6,19.6c6.3,10.2,5.8,16.8-2.4,25.6c-5.6,6-12.3,10.7-18.7,15.8c-0.6,0-1.3-0.1-1.9-0.1
		c-1.1-0.1-1.9-0.7-2.5-1.5c-6.8-8.6-13.8-17-20.2-26C374.3,573,385.5,559.3,395.7,554.1z"/>
	<path class="st7" d="M325,554.1c2.6,3.7,5.3,7.2,7.6,11c6.9,11,6,19.3-2.9,28.7c-7.9,8.4-17.5,14.6-26.8,21.3
		c-0.6-0.1-1.3-0.1-1.9-0.2c-8.7-10.4-17.4-20.8-25.9-31.4c-2.3-2.8-4.1-6-5.9-9.2c-3.8-6.9-3-13.7,0.7-20.3
		c9-10.8,20.2-18.9,32-26.3C309.7,536.6,317.4,545.3,325,554.1z"/>
	<path class="st8" d="M301.9,342.9c11.6,10.4,22.1,21.9,33.3,32.7c1.4,1.4,1.4,2.3,0,3.6c-11.2,10.8-21.7,22.4-33.3,32.7
		c-11-10.9-21.9-21.7-33-32.6c-1.6-1.5-1.6-2.5,0-4C279.9,364.7,290.9,353.8,301.9,342.9z"/>
</g>
</svg>
