<?xml version="1.0" encoding="utf-8"?>
<!-- Generator: Adobe Illustrator 19.0.0, SVG Export Plug-In . SVG Version: 6.00 Build 0)  -->
<svg version="1.1" id="Calque_1" xmlns="http://www.w3.org/2000/svg" xmlns:xlink="http://www.w3.org/1999/xlink" x="0px" y="0px"
	 viewBox="0 0 612 792" style="enable-background:new 0 0 612 792;" xml:space="preserve">
<style type="text/css">
	.st0{fill:#666666;}
	.st1{fill:#7F5333;}
	.st2{fill:#5F2800;}
	.st3{fill:#EAEEEF;}
	.st4{fill:#BCC2C6;}
	.st5{fill:#F7E9AF;}
	.st6{fill:#EEC319;}
	.st7{fill:#B28E00;}
	.st8{fill:#866A00;}
	.st9{fill:#A4B0B4;}
	.st10{fill:#788894;}
	.st11{fill:#010000;}
</style>
<g>
	<path d="M40,375c2.3-5.7,2-11.9,3.3-17.8c9.1-42.2,31.7-75.9,65.4-102c48.4-37.5,103.6-51.3,164.2-44.5c16.3,1.8,32.1,5.5,47.5,11
		c3,1.1,5,0.8,7.5-1.3c13.8-11.8,29.3-18.9,47.9-17.4c15.2,1.2,28.4,7.8,40.5,16.6c3,2.2,4.7,2.1,7.2-0.6c6.9-7.3,14-14.3,21.2-21.2
		c3.9-3.7,4.4-7.4,1.7-12c-4.9-8.1-6.1-16.9-4-26c3.5-15.4,16.3-25,32.9-24.9c16.4,0.2,29.2,10.6,32.2,27.1c1,5.4,3.5,7.4,8.6,8.4
		c20.6,4.3,31.5,23.2,25.4,43.2c-6,19.7-28.2,28.5-47.5,18.9c-8.8-4.4-8.8-4.4-15.8,2.6c-6.7,6.7-13.4,13.5-20.2,20.1
		c-1.9,1.9-2.1,3-0.4,5.3c6.2,8.3,11.4,17.2,14.4,27.2c0.7,2.4,2.5,3.3,4.4,4.4c36.8,22.1,59.4,54.1,66.1,96.7
		c3.6,23.1-0.1,45.4-9,67c-0.5,1.2-1,2.4-1.6,3.6c0.5,0.3,0.7,0.6,1,0.6c10.9,0.5,11,0.5,10.9,11.4c-0.2,18.9-8.6,33.1-25,42.4
		c-15.9,9-33.1,13.4-51.3,14c-2.8,0.1-4.5,0.9-6.2,3.1c-4.4,6.2-9.1,12.3-13.8,18.4c-6,7.7-13.8,11.7-23.6,11.7c-88,0-176,0-263.9,0
		c-10.1,0-18-4-24-11.9c-4.6-6.1-9.3-12.1-13.8-18.4c-1.5-2.2-3.1-2.9-5.7-2.9c-17.8-0.6-34.7-4.9-50.4-13.4
		c-13.9-7.5-22.5-18.8-25.4-34.3c-0.1-0.4-0.5-0.8-0.8-1.1c0-6.3,0-12.7,0-19c2.6-2.1,5.7-1.3,8.7-1.4c6.2-0.1,6.3-0.1,4-5.7
		c-3.9-9.6-7.5-19.2-9.7-29.4c-1.8-8-2.5-16.1-2.4-24.3c-0.3-7.4,0.6-14.9-0.5-22.3C40,376.3,40,375.7,40,375z"/>
	<path class="st0" d="M40.9,400.1c-0.3-0.1-0.6-0.1-0.9-0.1c0-7.7,0-15.3,0-23c1.6,0.5,1.1,1.9,1.1,2.9
		C41,386.7,40.9,393.4,40.9,400.1z"/>
	<path class="st1" d="M496,459.9c-47.2,0-94.3,0.1-141.5,0.1c-43.7,0-87.3,0-131,0c-1.5,0-3,0-5.5,0c5.4-4.9,10.2-9.4,14.1-14.7
		c11.3-14.9,17.6-31.6,17.8-50.4c0.1-7-3-10-10.1-10c-49.3,0-98.7,0-148,0c-6.5,0-10,3.4-9.8,9.9c1,24.8,10.5,45.7,29.2,62.3
		c0.7,0.6,1.4,1.3,2.9,2.7c-12.6,0-24.1,0-35.7,0c-1.8,0-2.6-1.1-3.4-2.4c-13.9-25.7-20.4-52.9-17.5-82.1
		c5.4-53.9,33.9-92.7,78.9-120.6c26.5-16.4,55.6-25.1,86.6-28c27.3-2.5,54.2-0.7,80.5,7.1c1.1,0.3,2.2,0.7,3.4,0.9
		c4.1,0.7,4.1,2.4,1.8,5.5c-11.6,15.2-19.3,32.2-22.3,51.1c-4.7,29.1,0.5,55.8,21.5,77.7c13,13.5,29.4,21.1,48.1,22.8
		c46.3,4.3,82-14.3,108.8-51.4c4.6-6.4,7.5-13.7,9.3-21.4c2.3-0.5,3.2,1.3,4.4,2.6c18.6,20.7,29.6,44.6,32.1,72.5
		c1.8,20.1-1.7,39-9.2,57.5C500.2,454.8,499.3,458.2,496,459.9z"/>
	<path class="st2" d="M369.5,377c-35.2,0-62.6-23.8-67.6-57.2c-2.7-17.8,0.9-34.4,8.6-50.2c8.3-17.1,20.1-31.7,36.1-42.4
		c17.5-11.8,35-10.4,52.4,0.3c15.7,9.7,28.1,23.2,40.5,36.7c4.5,4.9,8.5,10.1,11.8,16c11.4,20.2,10,38.4-3.6,55.6
		c-16.4,20.6-37.2,34.4-63.1,39.8C379.3,376.6,374,377.6,369.5,377z"/>
	<path class="st3" d="M482,508.9c-5.6,1.9-11.5,1.6-17.3,1.6c-115,0.1-230,0-345,0.1c-17.2,0-33.2-3.9-48-12.7
		c-6.2-3.7-10.8-8.6-13.2-15.7c-1.3-3.8-0.5-4.9,3.6-4.9c32.3,0.2,64.7,0.3,97,0.3c52.3,0,104.7,0,157,0c62.8,0,125.7,0,188.5,0
		c1.5,0,3,0.2,4.5,0.3c1.7,2.1,0.4,4.1-0.3,6.1C504.2,497.1,495,505,482,508.9z"/>
	<path class="st4" d="M415,544c-4.2,0.1-8.3,0.3-12.5,0.3c-79.5,0-159-0.1-238.4,0.2c-7.7,0-13.2-1.8-17-8.5
		c-1.4-2.5-3.4-4.8-5.2-7.1c1.3-1.2,2.5-0.8,3.6-0.8c92.3,0,184.6,0,276.9,0c1.2,0,2.3,0.1,3.5,0.1c0.8,2.1-0.6,3.5-1.7,4.9
		C421.2,536.7,419.1,541.2,415,544z"/>
	<path class="st5" d="M509.5,220c-2.2-0.1-5.5-1-8.6-2.7c-12.1-6.2-23.7-4.4-33.3,5.1c-6.7,6.7-13.5,13.4-20.1,20.2
		c-1.8,1.8-2.9,2.1-4.7,0c-2.8-3.3-8-6-8.4-9.4c-0.4-3.6,5.2-6.3,8.1-9.4c4.4-4.6,8.9-9,13.4-13.4c9.3-9.3,11.1-21.2,5.1-32.9
		c-4.6-9-3.8-16.2,2.6-22.3c4.3-4.1,9.4-6,15.1-4c6.1,2.1,10.9,6.1,12.2,12.7c2.6,13.1,10,20.9,23.2,23.3c7.8,1.4,14.5,10.6,13.6,18
		C526.7,213.2,518.9,220.1,509.5,220z"/>
	<path class="st2" d="M496,459.9c7.5-13.9,11.7-28.7,13.1-44.5c3.1-34.8-7.5-65-30.3-91.1c-1.5-1.7-2.3-4.1-4.6-5.1
		c1.8-1.9-0.9-6.1,2.4-6.5c1.9-0.2,4.2,2.3,6.2,3.8c24.8,19.6,39.8,44.8,43.5,76.6c2.6,22.3-1.1,43.2-11.1,63.2
		c-1.4,2.7-2.9,4.1-6.1,3.9C504.7,459.8,500.3,459.9,496,459.9z"/>
	<path class="st6" d="M145.2,401.9c-10.3,10.6-20.3,20.8-30.2,31c-1.8,1.8-2.7,1.1-3.8-0.5c-5.8-8.3-9.7-17.3-11.3-27.4
		c-0.4-2.4,0.1-3.2,2.7-3.2C116.7,401.9,130.8,401.9,145.2,401.9z"/>
	<path class="st7" d="M157.8,414.6c0,14.9,0,28.8,0,42.7c0,2.4-1.1,2.7-3.1,2.3c-10.8-2-20.6-6.1-28.9-12.6
		C136.3,436.5,146.7,425.9,157.8,414.6z"/>
	<path class="st6" d="M186.8,401.9c14.9,0,29.2,0,43.5,0c1.8,0,2.7,0.3,2.3,2.5c-1.7,10.2-5.4,19.5-11.4,27.9
		c-1.4,1.9-2.4,2.3-4.2,0.4C207.2,422.6,197.3,412.6,186.8,401.9z"/>
	<path class="st8" d="M176.1,415c2.7,2.9,5.2,5.8,8,8.6c6.8,6.8,13.6,13.6,20.5,20.3c1.9,1.8,2.6,2.8-0.2,4.7
		c-8.1,5.5-16.8,9.1-26.4,10.9c-2,0.4-3.2,0.4-3.2-2.1c0-13.9,0-27.7,0-41.6C175.2,415.5,175.6,415.2,176.1,415z"/>
	<path class="st9" d="M482,508.9c5.9-3.9,12.6-6.4,17.5-11.7c5.1-5.5,8.1-11.9,9.5-19.1c4.6-0.1,9.3-0.1,13.9-0.5
		c3.4-0.3,3.7,1.4,2.9,3.8c-1.3,4.5-3.4,8.7-7.1,11.7C508.1,501.9,495.7,506.9,482,508.9z"/>
	<path class="st10" d="M415,544c3.6-5.3,7.3-10.6,10.9-15.8c5.2,0,10.5,0,15.9,0C434.6,543,430.6,545.2,415,544z"/>
	<path class="st11" d="M240.2,242c8.5-0.1,12.4,2.2,12.8,7.6c0.5,5.9-2.8,9.4-9.3,9.6c-18.9,0.5-37.4,2.9-55.3,8.9
		c-23.2,7.8-44,19.6-61.3,37.1c-2.5,2.6-5.2,4.8-9.1,4.3c-3.2-0.4-5.7-2.3-6.7-5.3c-1.3-3.9-0.5-7.5,2.6-10.5
		c10.3-9.8,21.4-18.4,33.6-25.6c23.5-13.8,49.1-21.6,76.1-25C229.3,242.4,234.9,242.3,240.2,242z"/>
	<path class="st11" d="M366.2,360c-26-1.9-44.8-17.4-47.3-44.8c-0.8-8.4-0.3-16.5,2.1-24.5c1.4-4.8,5.1-6.8,10.1-5.6
		c4.2,1.1,6.4,4.1,5.9,8.5c-0.7,5.9-2.2,11.7-2.1,17.7c0.3,18,13.5,31.4,31.6,31.7c7,0.1,10.3,2.6,10.6,7.9
		C377.3,357,373.6,360.1,366.2,360z"/>
</g>
</svg>
