<?xml version="1.0" encoding="utf-8"?>
<!-- Generator: Adobe Illustrator 19.0.0, SVG Export Plug-In . SVG Version: 6.00 Build 0)  -->
<svg version="1.1" id="Calque_1" xmlns="http://www.w3.org/2000/svg" xmlns:xlink="http://www.w3.org/1999/xlink" x="0px" y="0px"
	 viewBox="0 0 612 792" style="enable-background:new 0 0 612 792;" xml:space="preserve">
<style type="text/css">
	.st0{fill:#039AE3;}
	.st1{fill:#3AB0E9;}
	.st2{fill:#FDD34F;}
	.st3{fill:#C64E44;}
	.st4{fill:#C62E2A;}
	.st5{fill:#C62D2A;}
	.st6{fill:#C52E2A;}
	.st7{fill:#C52E2B;}
	.st8{fill:#699E38;}
	.st9{fill:#699D38;}
	.st10{fill:#6C9F39;}
	.st11{fill:#343E3E;}
	.st12{fill:#333D3E;}
	.st13{fill:#313B3E;}
	.st14{fill:#343E40;}
	.st15{fill:#343F42;}
	.st16{fill:#313C3D;}
	.st17{fill:#323C3E;}
	.st18{fill:#313C3F;}
	.st19{fill:#323C3D;}
	.st20{fill:#303B3E;}
	.st21{fill:#333D3F;}
	.st22{fill:#323C3F;}
	.st23{fill:#303A3D;}
	.st24{fill:#97A4AA;}
	.st25{fill:#9AA7AE;}
	.st26{fill:#9DABB1;}
	.st27{fill:#C52C2A;}
	.st28{fill:#E79071;}
	.st29{fill:#E89373;}
	.st30{fill:#E48F70;}
	.st31{fill:#E89272;}
	.st32{fill:#E39273;}
	.st33{fill:#E69171;}
	.st34{fill:#E79473;}
	.st35{fill:#E78E6F;}
	.st36{fill:#E99372;}
	.st37{fill:#E99776;}
	.st38{fill:#A3B0B7;}
	.st39{fill:#A0ADB3;}
	.st40{fill:#AAB8BF;}
	.st41{fill:#A5B3BA;}
	.st42{fill:#9BA8AE;}
	.st43{fill:#AEBCC3;}
	.st44{fill:#A9B7BE;}
	.st45{fill:#9CAAB0;}
	.st46{fill:#A7B5BC;}
	.st47{fill:#9FADB4;}
	.st48{fill:#A0ADB4;}
	.st49{fill:#A1AFB6;}
	.st50{fill:#F2C2AE;}
	.st51{fill:#C52C2B;}
	.st52{fill:#C42C2B;}
	.st53{fill:#F0C1AC;}
	.st54{fill:#C42D2B;}
	.st55{fill:#F1C1AD;}
</style>
<g>
	<path class="st0" d="M581,397c0,16.3,0,32.7,0,49c-1.1,7.5-0.2,15.1-0.5,22.6c0.2,24.3-0.5,48.6-1.7,72.8
		c-1.3,25.4-4.2,50.8-9.7,75.7c-3.1,14.1-8.6,26.9-18.4,37.7c-8,8.9-18.3,13.8-29.4,17.1c-24.5,7.3-49.7,11-75.3,12
		c-18.8,0.7-37.6,1.5-56.4,1.5c-4.6,0-9.1,0-13.7,0c-6.7,0.3-13.4-0.6-20.1,0.5c-16.7,0-33.3,0-50,0c-6.9-1.1-13.8-0.2-20.7-0.5
		c-24,0.1-47.9-0.5-71.8-1.7c-25.4-1.3-50.8-4.2-75.7-9.7c-13.9-3-26.6-8.5-37.4-18.1c-9.9-8.8-15.1-20.3-18.5-32.6
		c-6.5-23.8-10.2-48.2-11-72.9c-0.6-18.6-1.5-37.2-1.4-55.8c0-4.9,0-9.7,0-14.6c-0.3-6,0.6-12.1-0.5-18.1c0-17.7,0-35.3,0-53
		c1.1-6.9,0.2-13.8,0.5-20.7c0.2-26.8,0.3-53.6,2.4-80.3c2-25.5,4.4-51.1,12-75.8c7.4-24,23.5-38.9,47.6-45.3
		c23.9-6.3,48.2-10.1,72.9-11c18.9-0.6,37.9-1.5,56.9-1.4c4.5,0,9.1,0,13.6,0c5.7-0.3,11.5,0.6,17.1-0.5c14,0,28,0,42,0
		c5.7,1.1,11.4,0.2,17.1,0.5c4.8,0,9.7,0,14.5,0c27.1,0.1,54.3,0.3,81.3,2.4c25.7,2,51.4,4.4,76.3,12.1
		c23.8,7.4,38.5,23.6,44.9,47.4c6.4,23.9,10.1,48.2,11,72.9c0.6,18.6,1.4,37.2,1.4,55.9c0,4.2,0,8.5,0,12.7
		C580.8,384.3,579.9,390.7,581,397z"/>
	<path class="st1" d="M69.9,480.2c-0.4,0.5-0.7,0.4-0.9-0.2c0-6,0-12,0-18"/>
	<path class="st2" d="M451.9,455.9c-43.9,19.2-87.7,38.3-131.6,57.5c-46.4,20.3-92.8,40.6-139.2,61c-1.5,0.7-3,1.3-6,2.5
		c42.3-91.1,84-181,125.7-270.8c2.7-2.9,5.6-1.1,8.3-0.3c16.3,5.1,31.6,12.3,46.4,20.8c19.2,11.1,36.4,24.7,51,41.4
		c18.6,21.2,33,45,42.7,71.6c1.4,3.8,2.9,7.4,3.7,11.4C453.3,452.8,453.9,454.6,451.9,455.9z"/>
	<path class="st3" d="M451.9,455.9c-7.9-29-21.8-55-40.5-78.4c-28.3-35.3-65.2-57.8-108.1-71c-0.8-0.2-1.6-0.3-2.4-0.4
		c-3.4-0.9-6.6-2.3-10.1-2.7c-3.6-0.5-3.4-2-2.1-4.5c0.8-1.5,1.4-3,2-4.6c5.1-11.6,5.1-11.7,17.1-8.2
		C395.1,311.7,450.1,369,474,456.6c0.8,3,0.8,4.8-2.7,6c-4.2,1.4-8.3,3.4-12.3,5.4c-3,1.5-3.9,0.7-4.4-2.4
		C454,462.3,452.8,459.1,451.9,455.9z"/>
	<path class="st4" d="M270.6,434.2c0.1-12,10.1-21.9,22-21.9c12.2,0.1,22.3,10.1,22.3,22.2c0,12.3-10.3,22.6-22.6,22.4
		C280.1,456.7,270.6,446.7,270.6,434.2z"/>
	<path class="st5" d="M268.3,515.4c0,12.6-9.8,22.6-22.3,22.5c-11.8,0-21.9-10.2-22-22c-0.1-12.4,10-22.5,22.5-22.5
		C258.4,493.4,268.3,503.4,268.3,515.4z"/>
	<path class="st6" d="M315.6,372.3c-12.3,0-22.2-9.7-22.3-22.1c-0.1-12,10.1-22.2,22.3-22.2c12.1,0,22.3,10.2,22.2,22.2
		C337.8,362.5,328.1,372.2,315.6,372.3z"/>
	<path class="st7" d="M392.3,443.1c-0.2,12.4-10.2,22-22.5,21.8c-12.1-0.3-22-10.5-21.8-22.7c0.2-12.3,10.3-21.9,22.7-21.7
		C383.1,420.8,392.5,430.6,392.3,443.1z"/>
	<path class="st8" d="M311.5,482.1c-6.5,0.3-13.5-1.5-20-5.1c-1.5-0.8-5-0.8-3.5-4.2c1.5-3.4,3.7-1.3,5.8-0.3
		c12.5,6.2,25,6.3,37.3-0.2c2.6-1.4,5.1-3.2,7.4-5c1.5-1.2,2.7-1.6,4.3,0c1.8,1.9,0.3,3-0.9,4C333.3,478.3,323.7,482.3,311.5,482.1z
		"/>
	<path class="st9" d="M382.5,374.8c7.3-0.4,14.4,1.8,21.1,5.4c1.3,0.7,3.9,1.1,2.6,3.8c-1.3,2.7-3,1.7-4.9,0.8
		c-16.2-8.1-31.5-6.6-45.6,4.8c-1.6,1.3-2.7,1.6-4.2,0c-1.8-1.9-0.4-2.9,0.9-4C361,378.4,370.8,374.6,382.5,374.8z"/>
	<path class="st10" d="M223.8,553.1c-9.9-0.2-23.1-13.1-23.7-23.3c-0.1-1.1-0.4-2.5,1.3-2.7c1.6-0.2,1.8,1.2,2,2.3
		c3,11.2,10,18,21.3,20.6c1,0.2,2,0.5,1.8,1.8C226.3,553.4,225,553.2,223.8,553.1z"/>
	<path class="st11" d="M296,510.3c-0.3,3.4-1.8,6.3-5.5,6.3c-3.5,0-5.2-2.8-5.2-6c0-3.3,1.7-6,5.2-6.1
		C293.9,504.4,295.5,506.9,296,510.3z"/>
	<path class="st11" d="M333.9,457.7c-0.6,3-2.4,5.7-5.7,5.8c-3.5,0.1-5.2-2.7-5.1-6.1c0.1-3.3,1.8-6,5.3-6
		C332,451.3,333.4,454.1,333.9,457.7z"/>
	<path class="st12" d="M347.9,409c4,2.2,3.1,5.3,1.3,8.2c-1.6,2.5-4.2,3.4-6.8,1.4c-2.8-2.2-3.3-5.3-1.7-8.4c1.5-2.8,3.9-4,7-2
		c0.2,0.1,0.2,0.6,0.3,0.9L347.9,409z"/>
	<path class="st13" d="M260.9,437c3.6,2.7,3.1,5.8,0.8,8.9c-1.8,2.4-4.2,2.7-6.5,0.8c-2.9-2.5-3.3-5.8-1.1-8.9
		c1.8-2.5,4.3-3.6,6.9-0.7l-0.3,0.2L260.9,437z"/>
	<path class="st14" d="M276,468.9c3.6,2.5,2.8,5.6,0.7,8.5c-1.7,2.4-4.2,2.5-6.6,0.9c-2.6-1.7-3.2-6.3-1.2-8.9
		c1.8-2.4,4.1-3.4,6.8-1.3C276,468.3,276,468.7,276,468.9l-0.1,0.2L276,468.9z"/>
	<path class="st15" d="M202.9,547c3.9,2.4,2.8,5.5,0.8,8.4c-1.7,2.5-4.3,2.6-6.6,0.9c-2.9-2.3-3.2-5.5-1.4-8.5
		c1.5-2.6,3.8-3.7,6.7-1.9c0.3,0.2,0.4,0.8,0.6,1.2l-0.4,0.2L202.9,547z"/>
	<path class="st16" d="M439.1,444c2.7,3,1.7,5.7-0.8,8.1c-2,1.9-4.3,1.8-6.2,0.1c-2.5-2.3-2.9-5.2-1.2-8.1c2.1-3.9,5.4-3.8,8.3,0.1
		c-0.6,0.2,0.3,0-0.3,0.1C438.7,444.2,438.8,444.1,439.1,444z"/>
	<path class="st17" d="M242.7,475.1c0.5,0.6,1.2,1.2,1.6,1.9c1.7,3.4,0.7,6.2-2.2,8.2c-2,1.5-4.2,1.1-5.8-0.6
		c-2.4-2.6-2.8-5.7-0.6-8.6c2-2.7,4.5-3.1,7.2-0.8L242.7,475.1z"/>
	<path class="st18" d="M319.9,490.2c0.3-3.5,1.5-6.2,5.3-6.2c3.8-0.1,5.4,2.7,5.3,5.9c-0.1,3.3-2.5,5.9-5.7,6
		C321.5,496,320.2,493.1,319.9,490.2z"/>
	<path class="st19" d="M217.4,525.8c3.9,1.8,3,4.7,1.5,7.4c-1.3,2.4-3.5,3.8-6.2,2.3c-3.3-1.8-4.1-4.7-2.8-8.1
		c1.1-3,3.3-4.1,6.3-3.3c0.5,0.1,0.7,1,1.1,1.5L217.4,525.8z"/>
	<path class="st20" d="M285.9,376c3.4,2.1,3.4,4.9,1.4,7.9c-1.7,2.4-3.8,4.3-6.8,2c-3.1-2.4-3.5-5.7-1.4-8.8c1.7-2.6,4.2-3.7,6.9-1
		l-0.4,0.3L285.9,376z"/>
	<path class="st20" d="M318.4,396.4c-1.1,2.3-2,5.5-5.4,5.4c-3.5,0-5.2-2.7-5.1-6.1c0.1-3.4,1.6-6,5.3-5.9
		C317,389.9,318.1,392.6,318.4,396.4z"/>
	<path class="st20" d="M413.3,397c-0.3,3-1.9,5.7-5.2,5.9c-3.6,0.3-5.2-2.4-5.2-5.8c0-3.3,1.3-6,5-6.1
		C411.6,390.8,412.9,393.4,413.3,397z"/>
	<path class="st20" d="M384.6,397.9c-0.4,3.1-2.5,5.7-5.6,5.9c-3.2,0.2-4.9-2.5-5-5.7c-0.1-3.4,1.2-6,4.9-6.3
		C382.7,391.6,384,394.3,384.6,397.9z"/>
	<path class="st19" d="M272.7,406.1c0.5,0.6,1.2,1.2,1.5,1.9c1.5,3.4,0.6,6.2-2.4,8.2c-2.3,1.6-4.5,0.8-6.1-1.2
		c-2.1-2.6-2.2-5.6-0.1-8.2c2.1-2.6,4.7-2.9,7.3-0.6L272.7,406.1z"/>
	<path class="st17" d="M341.9,370c2.8,2.6,3,5.1,0.2,8c-2.1,2.2-4.1,3.3-6.6,1.1c-2.5-2.3-3-5.1-1.4-8.1c1.8-3.4,4.5-3.6,7.9-0.8
		l-0.4,0.2L341.9,370z"/>
	<path class="st21" d="M355.9,340.9c4.3,1.6,3.9,4.9,2.4,8c-1.2,2.6-3.6,3.9-6.6,2.5c-2.8-1.3-4.1-5.8-2.3-8.7
		c1.5-2.5,3.5-4.5,6.6-1.8l-0.3,0.4L355.9,340.9z"/>
	<path class="st22" d="M408.9,427c4,2.8,2.5,5.5,0.2,8.6c-1.9,2.6-4.1,2.2-5.9,0.8c-3-2.4-3.3-5.7-1.3-8.8c1.6-2.5,4-3.4,6.8-1.3
		c0.2,0.2,0.2,0.6,0.3,0.9c-0.2,0.1-0.3,0.2-0.3,0.2C408.7,427.3,408.7,427.2,408.9,427z"/>
	<path class="st23" d="M361.6,480.8c0.2-3.4,1.5-6.1,5.1-6.2c3.6-0.1,5.5,2.5,5.3,5.8c-0.1,3-1.5,6.1-5,6.2
		C363.4,486.8,361.9,484.1,361.6,480.8z"/>
	<path class="st24" d="M272.7,406.1c-0.2,1.5,1,3.6-1.7,3.9c-0.9,0.1-1.7-0.5-1.8-1.4c-0.4-3.1,2-2.3,3.6-2.4
		C272.9,406.3,272.7,406.1,272.7,406.1z"/>
	<path class="st25" d="M242.7,475.1c-0.3,1.4,1.3,3.5-1.4,3.9c-1.1,0.2-2-0.7-2-1.7c0-2.5,2-2,3.6-2.1
		C242.8,475.3,242.7,475.1,242.7,475.1z"/>
	<path class="st26" d="M217.4,525.8c0.6,1.4,1.1,2.9-1.2,3.2c-1.1,0.2-1.9-0.7-1.9-1.7c0-1.9,1.2-2.5,2.9-1.7
		C217.2,525.6,217.4,525.8,217.4,525.8z"/>
	<path class="st27" d="M276.9,445.7c-0.1-0.6-0.3-1.1-0.4-1.7c-4.4-6.2-2.9-12.7-0.5-19.1L276,425c1.9-3.2,4.2-3.5,6.5-0.5
		c1.9,2.5,6.4,3.6,4.6,8.1c-3,2.9,2.1,2.1,1.7,3.8c-0.8,5.2-5.1,7.5-8.8,10.2C279.1,447.3,277.7,446.8,276.9,445.7z"/>
	<path class="st28" d="M309.2,445.1c-5.8,10-19.1,12.4-28.3,5c0.1-0.2,0.2-0.4,0.4-0.6c1.9-1.5,3.7-0.4,5.6,0
		c2.9,0.6,5.7,1.7,8.7,0.6c1.3-0.5,3.2-0.3,3.6-2.1c0.4-1.8-0.8-3.1-2-4.3c-1.2-1.1-2.7-1.9-3.6-3.3c-0.9-3.2,0.8-4.4,3.6-4.8
		c4.7,1.9,7.6,6.2,11.8,8.8C308.9,444.7,309,444.9,309.2,445.1z"/>
	<path class="st29" d="M304,419c8.8,4.6,11.3,17.2,5.2,26.1c0,0-0.3-0.3-0.3-0.3c-1.6-1.2-1.5-2.8-1.2-4.4c0.3-1.3,0.8-2.5,0.9-3.9
		c0.2-3,0.8-6.7-1.9-8.2c-2.4-1.4-4.6,1.5-6.5,3.2c-1,0.9-2,1.7-3.4,1.8c-2.2-0.3-4.2-0.9-3.9-3.8c4.1-2.9,6.4-7.5,10.4-10.5
		C303.5,419.2,303.8,419.1,304,419z"/>
	<path class="st28" d="M286,432c-1.4-5.3-6.5-8.9-10-7c1-3.6,3.5-5.8,6.9-7.2c0.2,0.1,0.4,0.3,0.6,0.4c2,4.3,5.5,7.4,8.9,10.6
		c0.5,2.8-0.5,4.9-3.3,5.6C287.5,434.9,285.9,434.4,286,432z"/>
	<path class="st28" d="M276.9,445.7c5.5-1.2,8.3-5.4,11.1-9.7c0.5-2.1,1.8-1.2,2.7-0.6c1.7,1.1,2.7,2.7,1.7,4.9
		c-4.3,2.5-6.1,7.9-11.2,9.6c-0.1,0.1-0.3,0.2-0.4,0.3C279,449.1,277.5,447.8,276.9,445.7z"/>
	<path class="st28" d="M282.9,417.9c6.6-4.6,15.4-4.1,21.1,1.1c0,0,0,0,0,0c-1,0.9-2.2,1.5-3.6,1.2c-4.6-1-9.2-1-13.9-0.6
		c-1.4,0.1-2.6-0.3-3.4-1.5L282.9,417.9z"/>
	<path class="st28" d="M276,425c-1.3,6.4-2.2,12.8,0.5,19.1C271.7,439.9,271.5,431.4,276,425z"/>
	<path class="st30" d="M256.2,498.7c10.5,6.1,13.1,18.7,5.9,28.3c-0.2-0.1-0.4-0.2-0.6-0.3c-1.5-1.6-1-3.4-0.4-5.2
		c0.8-2.4,0.7-4.9,0.6-7.4c-0.1-1.8,0.5-4.1-1.7-4.8c-1.9-0.6-3.3,1.3-4.6,2.4c-0.9,0.7-1.2,2-2.1,2.8c-4.8,1.8-6.8,0.4-6.7-4.8
		c3.4-2.9,6.8-5.9,8.5-10.2C255.4,499.2,255.8,498.9,256.2,498.7z"/>
	<path class="st31" d="M229.8,526.1c-6.2-8.9-3.9-20.8,5.1-26.3c0.2,0.1,0.5,0.1,0.7,0.2c4.1,2.8,6.2,7.7,10.4,10.5
		c0.6,2.9-1.4,3.5-3.5,3.9c-3.3-0.2-4.7-3.5-7.4-4.9c-2.3-1.2-3.4-0.7-4.1,1.6c-0.9,2.8-0.9,5.5-0.2,8.4c0.5,1.9,1.3,3.8,0.1,5.8
		C230.7,525.7,230.3,526,229.8,526.1z"/>
	<path class="st32" d="M235.9,532.2c-2.8-1.2-4.9-3.1-6-6c0,0,0.3-0.2,0.3-0.2c3.7-3.1,7-6.8,11.3-9.1c2.8,0.1,4.5,1.2,3.9,4.4
		c-3.2,3.4-6.4,6.8-8.9,10.7C236.3,532,236.1,532.1,235.9,532.2z"/>
	<path class="st30" d="M262.1,527.1c-0.8,1.8-2.2,3.1-3.9,4.1c-0.2,0-0.5-0.1-0.7-0.1c-4.9-2.5-7.5-7.2-10.4-11.4
		c0.4-2.7,1.5-4.5,4.6-3.6c2.7,4.2,7.6,6.4,10.1,10.8L262.1,527.1z"/>
	<path class="st30" d="M234.9,499.9c6.1-5.1,14.1-5.5,21.3-1.1c-0.1,0.2-0.3,0.3-0.4,0.5c-0.6,0.8-1.5,1.4-2.5,1.3
		c-5.2-0.5-10.4-0.3-15.6,0.6c-1,0.2-1.9-0.5-2.6-1.1L234.9,499.9z"/>
	<path class="st30" d="M258.2,531.2c-6.7,5.3-15.6,5.7-22.3,1c0,0,0.3-0.4,0.3-0.4c0.6-0.9,1.5-1.6,2.5-1.4
		c5.6,1.3,11.2,0.8,16.8-0.4c0.8-0.2,1.6,0.4,2.3,0.8C257.9,530.9,258.1,531.1,258.2,531.2z"/>
	<path class="st33" d="M325.2,367.3c-9.5,5.6-20.7,2.6-26.4-7.1c0.1-0.2,0.2-0.4,0.3-0.6c4.3-2.1,7.6-5.4,10.6-9
		c5.2-0.1,6.7,2,4.6,6.6c-0.2,0.2-0.5,0.5-0.8,0.6c-2.7,1-5.1,3-4.7,5.7c0.5,3.2,4,1.9,6.3,2.3c3.1,0.5,6.2-1.3,9.3,0.3
		C324.9,366.4,325.1,366.8,325.2,367.3z"/>
	<path class="st34" d="M300,339c4.9-9.1,17.7-11.5,26.1-5c-0.1,0.2-0.2,0.4-0.3,0.6c-1.6,1.5-3.4,1-5.2,0.6
		c-1.6-0.4-3.2-0.8-4.9-0.8c-2.3,0.1-5.2-0.1-6.4,2c-1.3,2.4,1.3,4.1,2.7,5.8c1,1.3,2.3,2.4,2.5,4.2c-0.3,2.2-0.9,4.1-3.8,3.7
		c-3-4-7.6-6.4-10.5-10.4C300.1,339.4,300,339.2,300,339z"/>
	<path class="st34" d="M326,333.9c3.1,0.9,4.9,3.1,6.1,5.9c-0.1,0.2-0.2,0.4-0.3,0.6c-4,2.3-7.2,5.6-10.4,8.8
		c-3.9,0.7-5.4-0.8-4.7-4.7c3.2-3.4,6.1-7.1,9.3-10.6L326,333.9z"/>
	<path class="st33" d="M331.1,362.2c-1.4,2.3-3.2,4.2-5.9,5.1c-0.1-0.2-0.3-0.3-0.4-0.5c-1.8-4.6-4.9-8.2-8.9-11.1
		c-0.5-4.1,1.2-5.9,5.4-5c2.6,4.2,7.8,6.1,9.8,10.8C331.1,361.7,331.1,361.9,331.1,362.2z"/>
	<path class="st33" d="M298.8,360.2c-4.4-7.2-4-15.5,1.2-21.2c0,0,0.1,0.1,0.1,0.1c0.8,0.9,1.4,1.9,1.1,3.1c-1,4.7-0.9,9.4-0.5,14.2
		c0.1,1.4-0.2,2.6-1.4,3.5C299.1,359.9,298.9,360.1,298.8,360.2z"/>
	<path class="st33" d="M332.1,339.9c4.7,6.7,4.3,15.7-1,22.3c-0.1-0.2-0.2-0.3-0.3-0.5c-0.5-0.9-1-1.9-0.8-2.8
		c1.5-5.2,1.7-10.5,0.4-15.8c-0.3-1.2,0.4-2.3,1.4-3L332.1,339.9z"/>
	<path class="st35" d="M380.2,425.8c10.5,6,13.3,19.3,5.9,28.3c-0.2-0.1-0.4-0.3-0.6-0.4c-2-3.4,0.9-6.7,0.3-10.1
		c-0.4-2.5,1.1-6.2-1.8-7.1c-3-0.9-4.5,2.5-6,4.8c-2.2,1.9-4.4,1.9-6.4-0.2c-1.9-2-1.9-4,0.1-5.9c3.5-2,5.7-5.2,7.4-8.7
		C379.4,426.2,379.7,426,380.2,425.8z"/>
	<path class="st36" d="M359.9,459.1c-3-1-5-3-6-6c0.1-0.2,0.2-0.4,0.4-0.6c3.5-2.7,6.9-5.4,9.5-9c5-0.3,5.9,0.7,5.7,5.6
		c-3.2,3-6.4,6-9,9.6C360.3,458.8,360.1,459,359.9,459.1z"/>
	<path class="st37" d="M354.8,430.9c0.8-1.9,2-3.4,4.1-3.9c0.2,0.1,0.4,0.1,0.7,0.2c4.1,2.8,6.1,7.7,10.3,10.4
		c0.7,3-1.3,3.5-3.5,3.9c-4.6-2.3-8.9-5.1-11.5-9.9C354.9,431.3,354.9,431.1,354.8,430.9z"/>
	<path class="st36" d="M386,454c-0.7,1.9-2.1,3.2-3.9,4.1c-0.2,0-0.5-0.1-0.7-0.1c-4.8-2.6-7.5-7.1-10.4-11.4
		c0.4-2.7,1.5-4.5,4.7-3.6c2.7,4.3,7.8,6.4,10.2,10.9L386,454z"/>
	<path class="st35" d="M359,427c5.8-5.2,13.9-5.6,21.2-1.2c-0.1,0.2-0.2,0.3-0.4,0.5c-0.7,1-1.8,1.5-3,1.4
		c-4.8-0.5-9.5-0.5-14.2,0.5C361.3,428.5,360.1,428,359,427L359,427z"/>
	<path class="st36" d="M382.2,458.1c-6.9,5.6-15.4,6-22.2,0.9c0,0,0.1-0.1,0.1-0.1c1-1.4,2.4-1.8,3.9-1.4c4.6,1.5,9.1,0.9,13.6-0.4
		c1.5-0.5,2.9-0.1,4.3,0.7L382.2,458.1z"/>
	<path class="st36" d="M353.9,453.1c-5.1-7.1-4.8-15.6,0.9-22.2c0,0,0.3,0.3,0.3,0.3c0.3,0.6,0.8,1.2,0.7,1.8c-1.1,6-1.8,12-0.4,18
		c0.2,0.7-0.6,1.5-1.3,2L353.9,453.1z"/>
	<path class="st38" d="M293.8,508c-0.2,1.1-0.7,2-1.9,1.7c-1.1-0.2-1.7-0.9-1.7-2c0-1.2,0.7-1.8,1.9-1.7
		C293.2,506.2,293.6,507,293.8,508z"/>
	<path class="st39" d="M331.7,454.8c-0.1,1.1-0.5,1.9-1.7,2c-1.1,0-1.8-0.8-1.9-1.8c-0.1-1.1,0.4-1.9,1.6-1.9
		C330.9,453,331.4,453.8,331.7,454.8z"/>
	<path class="st40" d="M347.9,409c0.2,1.4,1.1,3.1-1,3.7c-1.1,0.3-1.8-0.7-1.9-1.7c-0.2-2.5,1.6-1.9,3-1.9
		C348,409.1,347.9,409,347.9,409z"/>
	<path class="st41" d="M260.9,437c0.1,1.5,1.2,3.4-1.3,3.8c-1,0.2-1.7-0.8-1.7-1.9c0-2.3,1.7-1.8,3.1-1.8
		C261,437.1,260.9,437,260.9,437z"/>
	<path class="st42" d="M276,468.9c0,1.4,0.9,3.2-1.4,3.6c-1.1,0.2-1.9-0.8-1.8-1.9C272.9,468.1,274.7,468.9,276,468.9
		C276.1,469,276,468.9,276,468.9z"/>
	<path class="st43" d="M202.9,547c0.1,1.4,0.8,3.2-1.5,3.4c-0.8,0.1-1.5-0.7-1.5-1.7c0-2.5,1.7-1.8,3.1-1.6
		C203,547.1,202.9,547,202.9,547z"/>
	<path class="st38" d="M439.1,444c-0.9,0.9-0.7,3.3-3,2.4c-1.1-0.4-1.5-1.5-1-2.4c1.3-2.5,2.7-0.1,4,0.1
		C439.1,444.1,439.1,444,439.1,444z"/>
	<path class="st40" d="M326.6,485.4c1.1,0.2,1.7,1,1.7,2.1c0,1.2-0.8,1.8-1.9,1.5c-1.2-0.2-1.5-1.2-1.4-2.2
		C325.1,486,325.7,485.4,326.6,485.4z"/>
	<path class="st39" d="M285.9,376c-0.1,1.4,1.7,3.3-1.1,3.9c-0.9,0.2-1.6-0.4-1.8-1.3c-0.5-2.6,1.2-2.6,3-2.5
		C286,376.1,285.9,376,285.9,376z"/>
	<path class="st44" d="M316.1,392.8c0.1,1.2-0.2,1.9-1.1,2.1c-1.2,0.2-1.9-0.4-2.1-1.5c-0.1-1,0.2-2,1.4-2.2
		C315.5,391.1,315.9,392.2,316.1,392.8z"/>
	<path class="st45" d="M411.1,394.5c0,1-0.4,1.6-1.4,1.6c-1.1,0.1-1.8-0.6-1.9-1.7c-0.1-1.1,0.4-2,1.6-1.9
		C410.4,392.6,411.1,393.3,411.1,394.5z"/>
	<path class="st46" d="M380.9,397c-1.2,0-1.9-0.6-2-1.7c-0.1-1.1,0.2-2.1,1.6-2c1.2,0.1,1.7,0.9,1.8,2
		C382.3,396.3,381.9,396.9,380.9,397z"/>
	<path class="st47" d="M341.9,370c-0.2,1.5,0.5,3.6-2.1,3.4c-1-0.1-1.8-1-1.6-2.1c0.5-2.6,2.4-1.3,3.8-1.2
		C342,370.1,341.9,370,341.9,370z"/>
	<path class="st48" d="M355.9,340.9c0.7,1.3,2.3,2.7,0.1,4c-0.7,0.4-1.6,0.1-2.1-0.7c-1.1-2.2,0.3-2.9,2.1-3.3
		C356,341,355.9,340.9,355.9,340.9z"/>
	<path class="st47" d="M408.9,427c0.1,1.5,1.1,3.5-1.6,3.6c-1.1,0-1.7-1-1.6-2.1c0.2-2.3,1.9-1.6,3.3-1.4
		C409,427.1,408.9,427,408.9,427z"/>
	<path class="st49" d="M370,477.9c0,1.1-0.3,1.9-1.6,2c-1.2,0-1.8-0.8-1.9-1.8c-0.1-1.1,0.4-1.9,1.6-2
		C369.2,476.1,369.8,476.8,370,477.9z"/>
	<path class="st50" d="M291.1,440c0.4-2.4-1.5-3.1-3.1-4c-1.8,0.3-3,3.2-5.2,1.4c-1.3-1.1-1-2.8-0.7-4.2c0.6-2.5,2.1-2.7,4-1.2
		c3,1.5,4.2,0.7,5-3c-2.1-1.4-3.9-3.1-1.6-5.5c2-2.1,4.7-2.2,6.7-0.3c3.1,3.1,0.1,4.9-2,6.8c0.1,1.9,2.1,1.2,2.9,2
		c0.7,0.1,1.3-0.1,1.8-0.6c1.9-1.7,3.9-2.1,5.6,0.1c1.5,1.9,1.5,4.1-0.1,6c-1.8,2.2-3.8,1.4-5.7-0.1c-0.3-0.2-0.6-0.4-0.8-0.6
		c-1.5,0.6-3.7,0.5-3.3,3c2.1,2,4.5,4,1.3,6.8c-2.4,2.1-5.1,1.4-6.9-0.9C286.8,443.1,288.8,441.4,291.1,440z"/>
	<path class="st51" d="M297.9,436.9c2.3,0.4,5.4,2.8,5.7-1.9c0.2-2.5-0.3-5.4-4.2-3.1c-0.7,0.4-1.5,1.5-2.3,0
		c2.5-2.4,5.1-4.7,7.6-7.1c2-1.9,3.3-1.5,4.4,1c3,6.4,1.7,12.6-0.3,18.9c-1.7,1.4-3,0.5-4.3-0.7
		C302.2,441.8,299.6,439.8,297.9,436.9z"/>
	<path class="st52" d="M291.1,440c-0.7,1.5-3.1,2.7-1.2,4.5c1.4,1.4,3.5,1.7,5.4,0.4c2.7-1.9-0.3-3.3-0.6-4.9c1.4,0.1,2.4,1.1,3.3,2
		c2.1,2.2,6.2,4.3,5.4,7.1c-0.9,3.2-5.4,3.1-8.6,3.6c-4.8,0.8-9.1-1-13.4-2.8C283.5,445.6,286.3,441.8,291.1,440z"/>
	<path class="st51" d="M294.1,430c-0.1-2,4.7-3.9,0.3-5.9c-1.4-0.6-3.4-0.8-4.7,0.7c-1.5,1.8,0.6,2.9,1.3,4.3
		c-5.8-2.2-9.4-7.2-7.9-10.9c7.1-2.1,14.1-1.9,20.9,0.9C302.5,424.2,298.5,427.2,294.1,430z"/>
	<path class="st53" d="M251,517.1c-2-0.1-1.9,2.1-3.1,2.8c0.3,0.6,0.6,1.2,1.1,1.6c1.9,1.8,3,3.8,0.6,5.9c-2.1,1.8-4.5,2.2-6.7,0.2
		c-2.5-2.2-0.9-4.1,0.6-5.9c0.2-0.3,0.4-0.5,0.6-0.8c0.5-2.6-1.5-2.4-3-2.9c-1.7,1-3.1,2.8-5.4,1.6c-1.6-0.9-2.3-2.4-2.2-4.2
		c0.1-3.3,2.8-5,5.8-3.5c0.9,0.4,1.5,1.3,2.7,1.1c0.9-0.7,2.7-0.3,2.9-2.1c-3.8-3.6-4.2-5.8-1.2-7.4c2.3-1.2,4.6-0.9,6.2,1.2
		c1.8,2.4,0,3.9-1.9,5.2c0,2.7,0.9,4.3,4,3.4c1.7-2,3.7-3.1,5.7-0.6c1.7,2.1,1.5,4.5-0.6,6.2C254.4,521.2,252.6,519.2,251,517.1z"/>
	<path class="st52" d="M248,510c0.7-1.4,2.8-2.4,1.2-4.3c-1.2-1.4-3.3-1.3-4.7-0.7c-4.4,2,0.2,3.9,0.3,5.9
		c-4.2-2.7-8.3-5.6-9.7-10.9c6.8-2.9,13.7-3.1,20.7-0.8c0.8,0.9,1.9,2,1,3C254.2,505.2,252.3,509,248,510z"/>
	<path class="st27" d="M251,517.1c2,0.3,4,4.4,5.9,0c0.5-1.3,0.5-3-0.6-4.3c-1.7-2-2.9,0.3-4.4,0.5c0.4-2.3,2.3-3.6,3.8-5
		c1.5-1.4,2.8-4.2,5-3.4c2.5,0.8,2.7,4,3.1,6.3c1,5.4-0.1,10.5-2.1,15.5C256.6,525.4,253.7,521.4,251,517.1z"/>
	<path class="st52" d="M241.9,513c-0.5,1.1-1.1,0.7-1.9,0.3c-1.2-0.6-2.5-2.2-3.8-0.4c-1.1,1.5-1.3,3.3-0.3,5.1
		c1.4,2.3,2.8,0.5,4.2,0.1c0.3-0.1,0.6-0.1,1-0.1c-1.7,2.9-4.4,4.9-6.7,7.2c-1.2,1.2-2.5,2.2-4.3,0.7c-2-6.1-3.2-12.1-0.5-18.4
		c1.3-3,2.7-3.5,5-1.2C237.1,508.5,239.5,510.8,241.9,513z"/>
	<path class="st51" d="M244.1,520.8c-1.7,4.4-1,6.3,2.4,5.8c2.6-0.4,4.6-1.4,2.3-4.5c-0.5-0.6-2-1-0.9-2.3c3.6,3.4,7.8,6.2,9.8,10.9
		c-7,3.8-14.3,3.6-21.6,1c-1.5-1.6-0.8-2.9,0.4-4.2C238.9,525.1,241,522.4,244.1,520.8z"/>
	<path class="st50" d="M321,351.9c-2.5-0.4-3.1,1.5-4,3.1c2.1,1.5,4.1,3.2,2,6c-1.6,2.1-4,2.4-6.1,0.9c-2.7-2.1-1.9-4.1,0.5-5.9
		c0.8-3.1-1.1-3.8-3.5-4c-1.4,2.2-3,3.9-5.5,1.6c-2.1-2-2.3-4.7-0.3-6.7c3.1-3.1,4.9-0.1,6.8,1.9c1.9-0.1,1.2-2.1,2-2.9
		c0.1-0.9-0.3-1.6-0.9-2.2c-1.5-1.9-1.5-3.7,0.4-5.2c1.7-1.4,3.7-1.5,5.5-0.2c2,1.3,2.4,3.1,1,5.1c-0.5,0.7-0.9,1.4-1.2,2.2
		c0.1,2,1,2.9,3,2.5c4.3-3,7.3-2.5,7.7,1.3c0.3,2.2-0.7,4-2.6,5C323.5,355.6,322.1,353.9,321,351.9z"/>
	<path class="st52" d="M313.5,356c-0.5,1.5-2.9,3-0.2,4.6c1.6,0.9,3.7,1.1,5.1-0.4c2-2.1-0.9-3.4-1.3-5.2c3.8,1.6,6,4.9,8.7,7.7
		c1.7,1.8,0.4,2.9-1,4c-5.8,1.7-11.6,2.2-17.5,0c-2.6-1-3.5-2.4-1.3-4.7C308.3,359.8,310,356.8,313.5,356z"/>
	<path class="st27" d="M311,348.8c-2-0.1-3.9-4.7-5.9-0.3c-0.7,1.4-0.8,3.4,0.7,4.7c1.9,1.6,2.9-0.6,4.2-1.2
		c-2,5.6-7.1,9.4-10.8,7.9c-2.2-7-2.2-14,0.8-20.8C305.3,340.5,308.2,344.6,311,348.8z"/>
	<path class="st51" d="M317.9,345.5c-0.5-2.1,3.4-5.1-1.4-6.2c-1.5-0.4-3,0-4.1,1.2c-1,1.1,0,2.1,0.6,3.1c0.4,0.8,1.5,1.5,0,2.3
		c-2.3-2.4-4.5-4.9-6.8-7.2c-2.4-2.4-1.6-3.8,1.2-5.1c6.3-2.7,12.4-1.3,18.5,0.5c1.4,1.9,0.3,3.3-1,4.6
		C322.6,341,320.3,343.3,317.9,345.5z"/>
	<path class="st54" d="M321,351.9c1.5,0.6,2.6,3.2,4.5,1.3c1.4-1.4,1.7-3.4,0.4-5.4c-1.8-2.8-3.3,0.5-5,0.2c1.4-3.1,4.1-5.1,6.5-7.4
		c1.3-1.3,2.7-1.9,4.3-0.5c2.5,7.3,2.8,14.6-1.1,21.6C326.6,359.4,322.8,356.7,321,351.9z"/>
	<path class="st55" d="M375,444.1c-2,0-1.9,2-3,3c3.6,4.8,3.7,6.6,0.2,8.2c-2.2,1-4.2,0.7-5.7-1.2c-1.8-2.3-0.6-3.9,1.5-5.1
		c0.8-3.5-0.6-4.8-4-4.1c-1.2,2.1-2.9,2.7-4.8,1.1c-2.1-1.7-2.3-4-0.8-6.2c1.3-1.9,3-2.4,5-0.9c0.8,0.6,1.5,1.3,2.6,1.1
		c0.9-0.7,2.7-0.3,2.9-2c-1.8-1.6-4.4-3-2.7-6c1.4-2.3,3.8-2.6,6.1-1.4c3.8,1.9,2,4.5,0.6,7c-1.5-0.2-2.1,0.5-0.8,1.4
		c1.4,0.9,2.4,4.4,4.9,1.2c1.2-2.1,2.8-2.2,4.4-0.6c1.6,1.6,1.7,3.5,0.6,5.4c-1,1.7-2.6,2.5-4.6,1.6C376.4,446,375.7,445,375,444.1z
		"/>
	<path class="st27" d="M375,444.1c1.8,0.4,3,3.1,5.2,1.4c1.3-1,1-2.8,0.7-4.2c-0.5-2.5-2-2.7-3.9-1.2c0.5-4.2,4-6,6.9-8
		c1.8-1.2,2.4,1.2,2.9,2.5c2.6,6.6,1.3,13-0.9,19.4C380.7,452.4,377.7,448.5,375,444.1z"/>
	<path class="st27" d="M372.9,437.5c-0.7-1.8,3-4.5-1.1-5.5c-1.5-0.4-3.5-0.7-4.5,0.8c-1.4,2.1,1.3,3.4,1.6,5.2
		c-4.4-2.7-8.4-5.7-9.8-11c6.8-2.6,13.7-3.1,20.8-0.8c1.7,1.6,1.4,3.2-0.1,4.7C377.4,433.1,375.2,435.3,372.9,437.5z"/>
	<path class="st27" d="M366,440c-0.7,1.5-1.5,0.5-2.3,0.1c-1.2-0.7-2.5-1.9-3.7,0.2c-0.9,1.7-1,3.6,0.2,5.1c1.3,1.7,2.6,0.3,3.8-0.5
		c-1.5,4.9-6.2,8.7-9.9,8c-2.6-7.4-2.9-14.7,1-21.8C359.8,432.8,361.9,437.6,366,440z"/>
	<path class="st51" d="M368,449c-0.8,1.3-2.6,2.6-0.1,4.1c1.8,1.1,3.6,0.8,5.1-0.3c1.9-1.4,0.1-2.6-0.5-3.8
		c-0.2-0.6-0.4-1.2-0.5-1.8c3.7,3.2,7.7,6.2,9.8,10.8c-7.1,3.7-14.4,3.6-21.8,1.1c-1.6-1.9-0.5-3.5,1-4.7
		C363.3,452.4,364.4,449,368,449z"/>
</g>
</svg>
