<?xml version="1.0" encoding="utf-8"?>
<!-- Generator: Adobe Illustrator 19.0.0, SVG Export Plug-In . SVG Version: 6.00 Build 0)  -->
<svg version="1.1" id="Calque_1" xmlns="http://www.w3.org/2000/svg" xmlns:xlink="http://www.w3.org/1999/xlink" x="0px" y="0px"
	 viewBox="0 0 612 792" style="enable-background:new 0 0 612 792;" xml:space="preserve">
<style type="text/css">
	.st0{fill:#973D00;}
	.st1{fill:#C98151;}
	.st2{fill:#24AD5E;}
	.st3{fill:#F09B1F;}
	.st4{fill:#D05627;}
	.st5{fill:#E37D25;}
	.st6{fill:#70C084;}
	.st7{fill:#C98152;}
	.st8{fill:#C88050;}
	.st9{fill:#9D2C01;}
	.st10{fill:#AB5000;}
	.st11{fill:#B56B00;}
	.st12{fill:#712E00;}
	.st13{fill:#AC4300;}
	.st14{fill:#AB4300;}
	.st15{fill:#C77F50;}
	.st16{fill:#963D01;}
	.st17{fill:#E27D25;}
	.st18{fill:#029025;}
	.st19{fill:#EC981F;}
	.st20{fill:#C75325;}
	.st21{fill:#DE7925;}
	.st22{fill:#010101;}
	.st23{fill:#010000;}
	.st24{fill:#C87F50;}
</style>
<g>
	<path d="M38,452c0-3,0-6,0-9c3.3-13.9,13.9-22.2,28.3-22.3c0.7,0,1.3-0.1,2,0c3.6,0.3,4.8-1,3.8-4.7c-1.7-6.3-2.1-12.8-0.6-19.3
		c4.6-20.7,16.8-34.7,36.9-41.7c4-1.4,5.7-3,5.3-7.4c-1.8-21.6,14.4-45.6,37.6-52.5c4.2-1.2,5.3-3,4.9-7.4c-0.7-9,1.4-17.6,5.8-25.5
		c9.7-17.4,24.4-27.3,44.3-29.4c1.2-0.1,2.3-0.2,3.5-0.1c7.3,0.5,7.1,0.5,8.7-6.8c5.7-26.1,14-51,30.3-72.7
		c5-6.7,10.8-12.6,17.6-17.5c2.3-1.7,4.9-2.7,7.5-3.7c2,0,4,0,6,0c8.7,3,14.6,9.6,20.2,16.5c7.4,9.1,13.1,19.2,17.6,30.1
		c2.4,5.9,2.5,5.8,7.4,2.2c17.4-12.7,36.6-21,58.1-23.8c4.6-0.6,9.3-0.4,14-0.1c5,0.3,8.2,3.2,8.8,8c2.9,22.3,0.5,43.8-10.4,63.9
		c-0.5,0.9-0.9,1.8-1.4,2.6c-1.6,2.4-1.2,3.6,1.6,4.7c21.5,8.5,33.4,24.4,36.1,47.3c0.1,0.7,0.2,1.3,0.2,2c0.1,7.9,0,8.1,7.6,10.8
		c20.7,7.4,36.4,30.5,34.6,51.1c-0.4,4.4,1.1,6.3,5.4,7.8c21.4,7.5,33.7,22.8,37.4,45.2c0.8,5.2,0,10.3-1.1,15.4
		c-1.1,4.9-0.9,5.2,4.2,5c9.7-0.5,17.4,3,24,10c3.4,3.6,4.9,7.8,5.9,12.3c0,3,0,6,0,9c-0.9,8.5-5.4,14.6-12.7,18.5
		c-4.7,2.5-7,6.1-8.9,10.8c-20.5,51.5-41.1,103-61.7,154.5c-1.5,3.8-3.2,7.4-7.7,8.3c-110,0-220,0-330,0c-4.5-0.9-6.2-4.5-7.7-8.3
		c-20.5-51.3-41.1-102.6-61.5-154c-2-5-4.5-8.8-9.5-11.5C43.2,466.4,38.8,460.3,38,452z"/>
	<path class="st0" d="M117,524.9c9.8,0,19.6,0,29.4-0.1c9.2-0.1,12.6-5,9.7-13.7c-0.1-0.8-0.4-1.6-0.5-2.4c-1.2-6.6-2.7-8-9.6-8.1
		c-10.8-0.1-21.6,0-32.4,0c-2.3,0-4.7,0.2-6.9-0.6c-1.6-0.8-2.4-2.3-3-3.8c-2.5-6-5-11.9-7.1-17.9c-0.5-1.4-2.7-3.8,0.9-4.6
		c128.9,0,257.8,0,386.7,0c1.3,0,2.7,0.1,4,0c3.3-0.2,4.4,1.6,3.4,4.3c-2.7,7.3-4.8,14.9-9.2,21.5c-2.9,1.8-6.1,1.3-9.3,1.3
		c-62.2,0-124.3,0-186.5,0c-2,0-4,0-6,0c-8.1,0.2-10.2,2.3-10.7,10.4c-2.9,6.7-1.5,10.4,5.1,13.2c2,0.5,4,0.2,6,0.2
		c61.6,0,123.1,0,184.7,0c6.6,0,7.2,0.6,4.7,6.7c-4.9,11.8-8.8,24-14.5,35.5c-1.5,1.6-3.6,1.6-5.5,1.6c-2.3,0.1-4.6,0-6.9,0
		c-8.5,0.1-9.9,1.5-11.4,10.8c-3.4,9.3,0.1,13.3,12,13.9c1.2,1.4,0.4,2.9-0.1,4.2c-3.5,8.8-7.3,17.5-10.5,26.4
		c-0.5,1.3-1.3,2.3-2.4,3.1c-36.2,0.1-72.3,0.1-108.5,0.1c-54,0-108,0-162,0c-1.5,0-3-0.1-4.5-0.2c-4-9.4-7.8-18.9-11.3-28.5
		c-0.6-1.7-1.6-3.3-0.7-5.2c38.8-0.1,77.6-0.1,116.4-0.2c16.2,0,32.3-0.3,48.5,0.1c7.8,0.2,13.8-6.9,9.1-13.9
		c-1-8.9-2.8-10.6-12.2-10.6c-54.2,0-108.5,0-162.7,0c-3,0-6,0.3-8.9-0.5c-2.1-0.7-2.8-2.6-3.6-4.5c-4.4-11-8.8-22.1-13.2-33.1
		C116.7,528.7,115.6,526.9,117,524.9z"/>
	<path class="st1" d="M503.9,455.8c-31.8,0.1-63.7,0.2-95.5,0.2c-114.5,0-229,0-343.5,0c-7.2,0-9.8-2.1-9.9-8.1
		c-0.1-6.3,2.6-8.8,9.9-8.8c57.2,0,114.3,0.1,171.5,0.1c86.2,0,172.3,0,258.5,0c7,0,14,0,21,0c1.9,5.3-2.3,13.5-8.1,15.5
		C506.5,455.3,505.2,455.4,503.9,455.8z"/>
	<path class="st2" d="M315.3,239c-7.5-3-15.4-5.9-23.5-4.7c-6,0.9-6.4-1.2-6.2-6c0.3-6.3-0.1-12.6-0.3-19c-0.2-5.6-3.6-9.2-8.4-9.2
		c-4.8,0.1-8.4,3.8-8.5,9.3c-0.2,9-0.2,18,0,27c0.1,3.4-0.6,5.9-3.8,7.9c-4.4,2.8-8.1,6.4-11.1,10.7c-1.4,2.1-2.5,2.1-4,0
		c-3.4-4.8-7.7-8.8-12.6-12c-2.1-1.4-2.1-3.2-1.8-5.2c5.3-28,12.4-55.5,31.9-77.4c11.2-12.6,9.2-12,19.5,0.1
		c13.3,15.7,19.5,35,24.5,54.6c1.8,6.7,3.1,13.6,4.7,20.3C316,236.6,316.2,237.7,315.3,239z"/>
	<path class="st3" d="M208.6,317c-7.9-10.5-17.5-17.8-29.9-21.1c-2.4-0.7-3.4-2.1-3.8-4.5c-2.9-17.5,6.7-33.7,22.9-38.4
		c17.9-5.2,35.2,3,42.3,19.9c2.6,6.2,3.1,12.5,2.1,19c-0.3,2.1-1.2,3.4-3.2,3.9C226.5,299,216.7,306.4,208.6,317z"/>
	<path class="st4" d="M294,251.9c19-1.6,36.8,17.7,33.8,38.5c-0.4,2.8-1.2,4.9-4.4,5.7c-11,2.8-19.8,9.2-26.9,17.9
		c-2.3,2.9-3.2,2.3-5.3-0.1c-7.1-8.7-15.9-15-27-17.8c-3.3-0.8-3.9-3.1-4.3-5.8C257.8,270.7,272.4,250.7,294,251.9z"/>
	<path class="st5" d="M251.4,376.8c-8-10.8-18.2-18.1-31-21.6c-1.9-0.5-2.1-1.7-2.5-3.2c-4.5-18.5,9.5-38.1,28.4-40
		c17.4-1.7,28.8,4.7,36.6,20.3c3.2,6.5,2.3,13.3,1.9,20.1c-0.1,1.6-1.1,2.5-2.8,3C269.3,358.8,259.3,366.1,251.4,376.8z"/>
	<path class="st3" d="M336.6,376.8c-7.9-10.5-17.7-17.8-30.2-21.3c-2.3-0.6-3.2-1.9-3.5-4.1c-2.8-21.6,10.6-39.6,33.3-39.9
		C361,311,374,332.9,370.1,352c-0.3,1.6-0.7,2.7-2.5,3.2C354.8,358.7,344.6,366,336.6,376.8z"/>
	<path class="st4" d="M157.1,366.7c-6.4-5.1-13.3-9.3-21.4-11.3c-2.8-0.7-3.2-2.6-3.5-4.7c-3.6-27.1,18.1-42.1,37.5-39
		c19.7,3.1,31.5,17.1,30.3,37c-0.2,3.7-1.2,6.2-5.6,7.4c-10.7,2.9-19.2,9.5-26.4,17.8C164.2,371.8,161.3,368.2,157.1,366.7z"/>
	<path class="st4" d="M293.9,422c-8.3,0-16.6-0.3-24.9,0.1c-3.9,0.2-5.6-1.4-6.9-4.8c-7.9-20.4,5.8-43.4,26.6-45.7
		c12.5-1.4,23.2,1.5,31.3,11.2c8.3,9.9,10.3,21.3,6.2,33.7c-1.3,4-3.3,5.8-7.8,5.6C310.2,421.7,302.1,422,293.9,422z"/>
	<path class="st5" d="M379.3,422c-8.6,0-17.3-0.1-25.9,0.1c-2.7,0.1-4.1-0.9-5.3-3.3c-9.1-19.2,3.6-43.3,24.4-46.8
		c19.9-3.3,33.5,7,38.8,21.2c3.3,8.9,2.9,17.9-1.2,26.6c-1.1,2.4-2.9,2.3-4.9,2.3C396.6,422,387.9,422,379.3,422z"/>
	<path class="st3" d="M180,387.1c11.8-20.7,43.7-21.4,56.9-1.2c6.8,10.4,7.8,21.3,3.1,32.7c-0.9,2.1-1.9,3.5-4.6,3.5
		c-18.4-0.2-36.9-0.2-55.3-0.2c-1.4-1.9-0.7-3.8-0.1-5.7c2.3-7.3,2.2-14.6,0.2-21.9C179.4,391.9,178.8,389.5,180,387.1z"/>
	<path class="st5" d="M109.3,373.6c19.2-7.7,40.5,1.8,46.6,21.3c2.5,7.9,2.1,16.1-1.3,23.9c-1,2.2-2.1,3.3-4.8,3.3
		c-16.3-0.2-32.6-0.2-48.8-0.2c-3.5-2.8-3.8-6.8-4.2-10.7C95.1,396.7,99,384,109.3,373.6z"/>
	<path class="st6" d="M369.9,213.1c1.6-3.9,1.4-7.5-1.8-10.5c-3.2-3-7-2.8-10.8-1.4c-4.9,1.7-8.4,5.3-11.4,9.4
		c-5.5,7.4-8.6,16-12.2,25.6c-2.4-10.8-4.3-20.7-7.3-30.3c-0.6-1.9,0.5-2.7,1.7-3.7c16.2-14.4,34.8-23.7,56.4-26.9
		c3.4-0.5,4.7,0.3,4.6,4c-0.3,19.6-4,38-18.4,52.8c-4.8,4.9-11.5,5.8-16.8,9.4c-0.7-0.2-1.4-0.7-1.2-1.3c1.4-5.7,3.1-11.9,8.6-14.3
		C367.3,223.1,370,219.5,369.9,213.1z"/>
	<path class="st7" d="M269.9,511.1c-3-5.4-0.1-11.2,6-12c1.6-0.2,3.3-0.1,5-0.1c65.1,0,130.1,0,195.2,0c2,0,4-0.1,6-0.1
		c5.6-2.5,11.5-1.4,17.2-0.9c1,0.1,1.8,0.8,1.9,2c-1.1,6.1-4.6,7.6-10.8,7.6c-69.9-0.3-139.7-0.2-209.6-0.2
		C276.6,507.3,272.7,507.4,269.9,511.1z"/>
	<path class="st8" d="M133,566.9c51,0,102,0.1,153,0.1c8,0,16-0.1,24,0c7.7,0.2,11.6,6.2,8,12.1c-2.6-3.2-6.2-3.4-9.9-3.4
		c-61,0-121.9,0-182.9,0c-8.7,0-8.7,0-11.1-8.8C120.4,564.4,126.7,564.6,133,566.9z"/>
	<path class="st5" d="M370.9,307.1c-7.1-4.9-14.2-9.7-22.7-11.7c-1.5-0.3-1.9-1.4-2.3-2.9c-4.5-16.9,7.7-36.4,25-39.7
		c2.5-0.9,4,0.8,5.6,2.3c11.4,10.4,15.9,30.3,10.2,44.5c-1,2.5-2.5,4.4-5.1,4.9C378,305.4,374.6,306.8,370.9,307.1z"/>
	<path class="st9" d="M446.7,357.2c-5.8,2.3-10.8,5.8-15.6,9.6c-3.2-1.6-6.2-0.9-9.3,0.6c-1.8,0.9-3.5,2.5-5.9,1.7c-2-1.7-4-3.3-6-5
		c0.4-0.6,0.8-1.2,1.5-1.2c6.6-0.7,7.9-5.6,8.7-10.9c1.7-11.4-0.5-21.8-7.6-31c-1.6-2.1-3.9-3.8-3.6-6.8c8.8-3.6,17.7-4.1,26.7-0.5
		c7.3,7.5,11.7,16.3,13.3,26.6C449.8,346.1,449.2,351.8,446.7,357.2z"/>
	<path class="st10" d="M370.9,307.1c1.9-2.2,4.6-2.7,7.1-3c4.5-0.5,7-2.4,8.1-7c4.3-16.7,0-30.8-12.3-42.6c-0.9-0.9-1.9-1.4-3-1.6
		c19-5.9,39.3,6.8,42.1,26.3c0.3,2,0.7,3.9,0.7,5.9c0.2,7.9-0.7,9.3-8,11.8c-6.1,2.1-11.2,5.8-16.5,9.1c-4.3,2.2-7.7,5.8-12.2,7.8
		C375,311.6,373,309.4,370.9,307.1z"/>
	<path class="st11" d="M478.7,421.9c-8.6,0-17.2,0-25.8-0.1c-1.3-2.1-0.3-4.2,0.3-6.2c3.2-11.8,1.1-22.7-5.1-33
		c-1.1-1.8-2.9-3.3-2.2-5.8c5.9-4.5,12.8-5.5,19.9-5.7c5.5,2.2,8.4,6.9,11.2,11.6c6.5,10.8,8.1,22.4,4.4,34.5
		C480.9,419,480.5,420.9,478.7,421.9z"/>
	<path class="st4" d="M408.9,314.2c6.1,7.3,11.3,15.1,12.7,24.9c1,7.3,0.1,14.2-2.3,21c-1.6,4.5-6.2,2.7-9.4,4
		c-5.8-3.7-11.7-7.1-18.4-8.7c-2-0.5-2.6-1.6-3-3.3C384.5,337.5,394.4,319.1,408.9,314.2z"/>
	<path class="st12" d="M455,566.9c3.9-12.5,9.5-24.4,14-36.7c1.9-5.2,1.9-5.2-3.5-5.2c-61.4,0-122.8,0-184.2,0
		c-2.1,0-4.3,0.7-6.3-0.8c45,0,89.9-0.1,134.9-0.1c18,0,36-0.1,54,0c8,0,15.9,0.5,23.9,0.7c1.7,0.1,3.6-0.2,2.4,2.6
		c-5.5,13.1-10.1,26.7-16.3,39.6C467.6,569.4,461.3,569.6,455,566.9z"/>
	<path class="st12" d="M501.1,499.9c-6.3-2.1-12.8-0.2-19.1-1.1c2.7-7,5.2-14,8-20.9c1.2-2.8,0.8-4.1-2.4-3.9c-0.7,0-1.3,0-2,0
		c-128.6,0-257.1,0-385.7,0c-1.3,0-2.7,0.1-4,0.1c-6.3,2.2-12.6,2.4-18.9-0.1c1.5-1.7,3.4-0.9,5.2-0.9c134.5,0,269.1,0,403.6,0
		c7.3,0,14.6,0.6,21.9,0.7c3.4,0,3.4,1.4,2.3,4C507,485.1,504.1,492.5,501.1,499.9z"/>
	<path class="st3" d="M445.9,376.8c6.7,9.3,10.8,19.3,10.1,31c-0.3,4.9-2.1,9.3-3.1,14c-5,0.1-9.9,0-14.9,0.2
		c-2.1,0.1-3.2-0.6-4.3-2.5C426.3,405.7,432.3,384.4,445.9,376.8z"/>
	<path class="st13" d="M133,566.9c-6.3,0-12.6,0.1-19,0.1c-5.4-13.2-10.7-26.4-16.2-39.6c-1.1-2.7,0.3-2.8,2.2-2.7
		c5.7,0.1,11.3,0.1,17,0.2c3.9,12.3,9.4,23.9,13.9,36C131.7,562.9,132.3,564.9,133,566.9z"/>
	<path class="st12" d="M431,626.8c4.3-11.3,8.7-22.5,13-33.8c5.5,0,11,0,16.5-0.2c2.4-0.1,3.5,0.5,2.4,3
		c-3.8,9.4-7.6,18.8-11.4,28.2c-0.9,2.2-2.3,3-4.6,2.9C441.6,626.9,436.3,626.9,431,626.8z"/>
	<path class="st14" d="M144,593.1c3.9,9.8,7.9,19.6,11.7,29.5c0.5,1.3,1.3,2.8,0.3,4.3c-5.8,0-12.5,1.7-17.2-0.5
		c-5-2.3-5-10-7.4-15.2c-2.3-4.8-4-9.9-6-14.8c-1-2.3-1-3.7,2.2-3.5C133,593.1,138.5,593,144,593.1z"/>
	<path class="st7" d="M106,498.9c14.1,0,28.2,0,42.2,0.2c7.3,0.1,10.4,5,7.8,12.1c-2.6-3.1-6-3.8-9.9-3.8c-16.3,0.1-32.6,0-48.9,0
		c-8.2,0-8.2,0-10.5-8.3C93.2,496.3,99.6,496.6,106,498.9z"/>
	<path class="st14" d="M106,498.9c-6.4,0.1-12.8,0.1-19.1,0.2c-3.8-8.1-7.4-16.3-9.8-25c6.3,0,12.6,0.1,18.9,0.1
		C99.3,482.4,102.7,490.6,106,498.9z"/>
	<path class="st15" d="M455,566.9c6.3,0,12.6,0.1,18.9,0.1c-2.2,8.8-2.2,8.8-11,8.8c-7.3,0-14.6,0.1-22,0c-3.5-0.1-6.5,0.8-9,3.4
		c-2.7-6.7,0.5-11.8,7.7-12.1C444.8,566.9,449.9,567,455,566.9z"/>
	<path class="st16" d="M503.9,455.8c7.1-3.3,11.7-8.3,12-16.5c3-0.1,6-0.3,8.9-0.2c5.8,0.3,8.4,3.3,8.1,9c-0.2,5.3-3,7.8-8.7,7.8
		C517.5,456,510.7,455.9,503.9,455.8z"/>
	<path class="st17" d="M180,387.1c0.5,5.4,2.8,10.4,3.1,15.9c0.4,6.6-1.9,12.6-3.1,18.9c-2.8-1.2-3.3-4.1-3.8-6.4
		C173.8,405.5,173.6,395.8,180,387.1z"/>
	<path class="st18" d="M369.9,213.1c2.1,6.9,0.1,11-6.7,12.7c-3.9,1-5.2,4-6.5,6.9c-1.3,2.7-3.9,5.1-2.9,8.6c-1.3,1-2.5,2.1-4.8,2.4
		c2.2-8.6,4.2-16.8,9.3-24c1.1-1.6,2.7-2.6,4.6-2.6C366,217.1,368,215.4,369.9,213.1z"/>
	<path class="st19" d="M415.9,369.1c3-1.4,6-2.8,8.9-4.2c2.6-1.2,4.8-0.8,6.2,1.9c-1.1,1-2.1,2.1-3.2,3c-2.3,1.8-3.5,6.3-5.9,5.8
		C419.5,375.2,417.9,371.4,415.9,369.1z"/>
	<path class="st20" d="M377,313.9c3.1-4.1,7.2-6.6,12.2-7.8c-3.1,3.6-6.9,6.6-9.5,10.7C378.3,316.2,377.6,315.1,377,313.9z"/>
	<path class="st21" d="M157.1,366.7c5,0.3,8.4,3.2,11,7.2c-1.1,2.5-2.3,2.6-4.1,0.4C161.8,371.7,159.4,369.3,157.1,366.7z"/>
	<path class="st22" d="M250,511.1c3,8.6-0.5,13.6-9.7,13.7c-18.3,0.1-36.5,0.1-54.8,0c-9.2,0-12.6-5.1-9.7-13.7
		c1.6-4.7,5.6-5.3,9.6-5.5c7-0.4,13.9-0.1,20.9-0.1c11,0,21.9-0.2,32.9,0.1C243.7,505.6,248.2,505.9,250,511.1z"/>
	<path class="st23" d="M412,579.2c3.1,8.7-0.3,13.7-9.5,13.7c-18.3,0-36.6,0-54.9,0c-9.2,0-12.6-5-9.5-13.7c1.3-4.6,5.2-4.7,8.8-4.7
		c10.6-0.2,21.2-0.1,31.9-0.1c8.3,0,16.6-0.2,24.9,0.1C407.1,574.6,410.7,574.9,412,579.2z"/>
	<path class="st24" d="M412,579.2c-2.4-2.7-5.4-3.4-8.9-3.4c-18.7,0.1-37.4,0.1-56.1,0c-3.5,0-6.5,0.8-8.9,3.4
		c-2.6-6.5,0.4-12,7.3-12.1c19.7-0.2,39.5-0.2,59.2,0C411.6,567.2,414.6,572.6,412,579.2z"/>
	<path class="st1" d="M250,511.1c-2.7-2.9-6-3.8-9.9-3.7c-18.1,0.1-36.2,0.1-54.4,0c-3.8,0-7.3,0.7-9.8,3.8
		c-2.7-7.2,0.4-12,7.8-12.1c19.5-0.1,38.9-0.1,58.4,0C249.4,499,252.6,504.1,250,511.1z"/>
</g>
</svg>
