<?xml version="1.0" encoding="utf-8"?>
<!-- Generator: Adobe Illustrator 19.0.0, SVG Export Plug-In . SVG Version: 6.00 Build 0)  -->
<svg version="1.1" id="Calque_1" xmlns="http://www.w3.org/2000/svg" xmlns:xlink="http://www.w3.org/1999/xlink" x="0px" y="0px"
	 viewBox="0 0 612 792" style="enable-background:new 0 0 612 792;" xml:space="preserve">
<style type="text/css">
	.st0{fill:#020201;}
	.st1{fill:#FDDF00;}
	.st2{fill:#FDA700;}
	.st3{fill:#FDE000;}
	.st4{fill:#FCDE00;}
	.st5{fill:#FADD00;}
	.st6{fill:#F3D703;}
	.st7{fill:#010100;}
</style>
<g>
	<path d="M22,429c1.9-3.5,3.5-7.2,7.3-9.1c1.9-1,1.6-2.7,1.7-4.4c5.3-80.7,66.6-147.3,146-158.3c28.2-3.9,55.8-1.3,82.6,8.7
		c3.2,1.2,5.8,1.2,9-0.3c58.5-26.3,116.9-52.5,175.5-78.7c2.7-1.2,4.6-3,6.2-5.5c11.7-18.4,23.5-36.7,35.3-55
		c3.3-5.1,10.9-7.6,16.4-5.4c8,3.2,16,6.5,24,9.8c4.2,1.7,7.6,12.5,5,16.2c-3.4,5.1-6.9,10.2-10.6,15.1c-1.6,2.1-1.8,3.8-0.5,6.2
		c3.5,6.4,6.6,13.1,9.8,19.6c3.3,6.6,0,15.4-6.7,18.2c-14.2,5.7-28.4,11.4-42.5,17.1c-2,0.8-3.9,1.5-5.3,3.5
		c-17.1,24.6-34.3,49.1-51.8,74c14.5,3.2,28.1,8,40.4,15.7c36.8,22.9,57.2,56.1,61.5,99.2c0.2,2.1,0.6,3.7,2.6,4.8
		c3.3,1.9,4.7,5.4,6.4,8.6c0,2.3,0,4.7,0,7c-4.4,15.1-11.2,29.1-18.8,42.8c-10.7,19.5-23.3,37.6-37.7,54.6
		c-15.9,18.6-33.8,34.8-53.6,49.1c-4.2,3-8.3,6.2-12.7,8.8c-2.9,1.7-4.2,4-4,7.4c0.1,2.2,0,4.3,0,6.5c-0.1,14.1-7.7,23.3-21.3,25.8
		c-34,0-68,0-102,0c-5.7-2.3-7-4.2-7-10.4c1.6-5.9,5.7-8.2,11.5-8.2c23.9,0.1,47.8-0.1,71.7,0.1c6.3,0,12.6,0.2,19-0.1
		c6.6-0.2,9.8-4.9,8.2-11.3c-0.6-2.4-2.3-2.6-4.1-2.7c-3.3-0.1-6.7,0.1-10-0.1c-6.7-0.3-9.7-2.9-11.3-9.7c0.7-5.2,3.1-8.9,8.5-9.9
		c5.3-0.1,10.7-0.3,16,0c5.6,0.3,10.3-1.5,14.9-4.6c17.6-11.5,34-24.7,48.6-39.8c26.3-27.2,47.1-58.1,61.4-93.3
		c1.7-4.3,1.5-4.8-3.4-4.8c-6.7,0-13.3-0.1-20,0.1c-2.8,0.3-5.7,0.2-8.5,0.2c-134.9,0-269.8,0-404.7,0c-2.7,0-5.3,0.1-8-0.2
		c-6.3-0.3-12.6-0.2-18.9-0.2c-5.1,0-5.2,0.3-3.3,5.2c9.9,24.7,23.4,47.4,39.7,68.4c18.9,24.4,41.4,44.9,66.8,62.4
		c6.9,4.8,13.9,7.5,22.3,6.6c2.3-0.3,4.7-0.1,7-0.3c20-0.2,40-0.1,60-0.1c2.2,0,4.3,0,6.4,0.8c4,1.5,6.1,4.5,6.4,8.7
		c0.2,4-1.4,7.1-5,9c-2.3,1.2-4.7,1.6-7.2,1.6c-15.8,0-31.7,0.2-47.5-0.1c-6.1,0.1-12.3-0.1-18.5,0.1c-2.8,0.1-6.3-0.9-6.6,3.8
		c-0.4,5.6,1.5,9.1,6,9.9c4.3,0.7,8.6,0.2,13,0.3c2.2,0,4.3-0.1,6.5,0.1c7.5-0.1,15-0.1,22.5,0c5.8,0.1,9.9,2.6,11.6,8.4
		c0.5,5.3-2.1,8.5-7,10.1c-17,0-34,0-51,0c-13.6-2.5-21.7-11.7-21-25.8c0.4-8.4-2.5-13.2-9.5-17.7c-18.5-12-35.3-26.2-50.4-42.3
		c-26.7-28.6-48.3-60.6-62.8-97.1c-1.6-4-3.5-7.9-4.3-12.1C22,433.7,22,431.3,22,429z"/>
	<path class="st0" d="M255,631c-1.7,0-3.3,0-5,0c-4.3-1.1-7.1-3.5-7.3-8.3c0.7-6.2,3.5-9.4,8.4-9.9c5-0.5,8.9,2.6,11,8.7
		C262.3,626.5,259.7,629.6,255,631z"/>
	<path class="st1" d="M243.8,622.4c-5.6,0-11.1,0-16.7-0.1c-2.1-7-4-8.4-11.4-8.4c-7.1,0-14.3-0.1-21.4-0.2
		c-4.3-5.2-3.3-10.9-1.5-16.7c16.5-0.1,32.9-0.2,49.4-0.2c4.6,0,8.2-1.5,9.7-6.1c1.9-5.9-2.3-10.9-9.1-11c-18.8-0.1-37.6,0-56.4,0
		c-2.5,0-5-0.1-7.5-0.2c-4.2-0.6-7.1-3.6-10.3-5.9c-37.3-27.4-66.6-61.6-88.1-102.6c-5.4-10.4-10.1-21-14.6-31.8
		c-0.6-1.3-1.6-2.6-0.8-4.2c27.8-0.1,55.6-0.2,83.4-0.2c112.9,0,225.9,0,338.8,0c0.8,0,1.7,0.1,2.5,0.2c-0.9,6.6-4.4,12.3-7.1,18.2
		c-0.4,0.9-1.4,1.4-2.5,1.4c-2.3-0.2-4.3-1.7-6.8-1.5c-3.9,0.4-5.6,3.2-7.1,6.3c-6.5,13.8-14.6,26.5-24.7,38
		c-12.4,14-25.3,27.3-41.2,37.5c-5.5,3.5-5.6,4.2-2.2,9.9c0.6,1,1.3,1.9,1.8,3c1.3,3,3.1,2.8,5.5,1.3c4.5-2.9,8.8-6,13-9.3
		c1.6-1.2,3-2.6,5.3-2.5c2.8,2.6-0.3,3.9-1.5,5c-9.5,9.5-19.6,18.5-30.2,26.8c-2,1.5-4.1,2.9-6,4.5c-4.4,3.9-9.2,6.5-15.3,5.9
		c-4.8,0.7-7,3.9-8.1,8.3c0.1,6.2,0.8,12.4,0.5,18.6c-0.1,2.6,0,5.4-2.6,7.1c-24.1,0.1-48.2,0.1-72.3,0.2c-6.9,0-9.1,1.8-10.8,8.4
		c-5.6,0-11.1,0-16.7,0c-1.6-5.9-4.2-8.4-8.8-8.4C247.7,614,245,616.6,243.8,622.4z"/>
	<path class="st1" d="M345.6,417.3c-7.8,0-7.8,0-8.8-7.4c-7.6-58.7-49.9-104.7-107.8-117.5C155,276.2,79.6,327.2,66.9,402
		c-0.5,3.1-1.5,6.3-1.3,9.4c0.3,5.6-2.5,6.2-7.2,6.1c-10.6-0.3-11-0.1-9.4-10.3c9.7-63,44.7-106,104.7-126.7
		c44.4-15.3,87.6-9.5,127.9,15.2c38.4,23.5,60.7,58.3,70.3,101.8c1,4.7,1.4,9.5,2.1,14.2c0.7,4.3-0.7,6.6-5.4,5.7
		C347.6,417.2,346.6,417.3,345.6,417.3z"/>
	<path class="st1" d="M200.9,306.8c60.4-0.1,111.1,44.5,118.9,104.7c0.5,3.8,0.5,6.5-4.7,5.7c-3.7-0.6-8.6,1-11.1-0.8
		c-2.1-1.5-1.6-6.7-2.4-10.2c-10.7-51.6-57-86.3-109.5-82.1c-46.6,3.7-86.3,41.3-92.2,87.6c-0.5,4.3-1.9,6.4-6.4,5.5
		c-0.6-0.1-1.3,0-2,0c-10.1,0-10.1,0-8.4-10.1C92.5,349.6,142.5,306.9,200.9,306.8z"/>
	<path class="st1" d="M201.1,340.9c42.1-0.1,77.8,30.4,84.5,72.4c0.4,2.6,0.4,4-2.9,3.8c-4.1-0.3-8.8,1.1-12.4-0.4
		c-4-1.7-2.7-7.3-3.9-11c-9.7-30.1-37.7-49.3-70.1-47.7c-29.9,1.5-56.2,24.8-62.1,55.2c-0.6,3.2-1.7,4.2-4.8,3.9c-2.3-0.2-4.7,0-7,0
		c-6.5,0-6.5,0-5.3-6.5C124.8,370.3,159.9,341.1,201.1,340.9z"/>
	<path class="st2" d="M480.3,454c3.8-2.2,3.6-6.7,5.5-10c1.6-2.8,2.2-6.2,4.2-8.8c8.1,0,16.3,0,24.5,0c1,1.2-0.1,2.2-0.4,3.1
		c-23.3,57.7-61,103.6-112.9,137.8c-4.1,2.7-8.1,4.2-13,3.9c-5.6-0.4-11.3-0.2-17-0.2c9.4-0.4,15.1-7.5,21.8-12.5
		c10.4-7.8,20.1-16.6,29.2-26c0.8-0.8,3-1.3,1.8-3.4c-0.3-2,1.3-2.9,2.5-4c15.6-14.3,30.3-29.3,41.8-47.3
		c4.2-6.6,7.7-13.6,11.5-20.4C482,462,480.7,458.1,480.3,454z"/>
	<path class="st1" d="M364.7,376.1c-1.7-4.5-3.1-8.7-4.8-12.8c-0.8-2-0.3-2.7,1.5-3.7c48.1-27.5,102.5,4.6,111.5,52.3
		c0.8,4.4,0,5.9-4.7,5.4c-3.6-0.4-7.9,0.9-10.8-0.5c-3.1-1.6-2.3-6.5-3.5-9.8c-11.9-34.6-52.2-50.6-84.5-33.5
		C368.1,374.2,366.6,375,364.7,376.1z"/>
	<path class="st1" d="M242.5,417.1c-1.7,0-3.3-0.2-5,0c-2.6,0.3-3.6-0.9-4.6-3.2c-5.5-13.6-17.6-21.8-31.6-21.8
		c-14.1,0-26.3,8.2-31.8,21.6c-1.1,2.6-2.2,3.6-5,3.4c-3.3-0.3-6.7-0.3-10,0c-3.5,0.3-3.7-1-2.9-4c5.7-21.6,25.7-37.7,47.6-38.1
		c24-0.5,44.3,14.3,51.1,36.9c1.2,4.1,0.7,5.9-3.9,5.2C245.2,416.9,243.8,417,242.5,417.1z"/>
	<path class="st3" d="M439.3,417.1c-3.3,0-6.1,0-8.9,0c-18.1,0-36.3-0.1-54.4,0.1c-2.8,0-4-0.4-4.2-3.7c-0.3-5.6-1.1-11.2-2.2-16.7
		c-0.4-2.1,0.1-3,1.5-4.1c12.3-9.3,26-11.7,40.5-6.6C426.2,391.1,435,401.8,439.3,417.1z"/>
	<path class="st2" d="M428,319.9c21.5,5.4,39.1,17.2,53.6,33.8c14.8,17,23.2,37,26.1,59.4c0.4,3.1-0.1,4.7-3.7,4.3
		c-2.5-0.3-5-0.3-7.5,0c-5.1,0.7-6.9-1.6-6.4-6.4c1-2.9-0.4-5.6-1.1-8.3c-6-23.7-16.9-44.7-34.6-61.9c-7-6.7-14.9-12.2-23.1-17.3
		C430,322.7,427.7,322.4,428,319.9z"/>
	<path class="st1" d="M428,319.9c7.4,5,15,9.6,22,15.3c10.9,8.8,19.2,19.7,26.3,31.5c7.4,12.4,11.8,25.9,14.5,40
		c0.3,1.5,0.6,3-0.5,4.3c-7.6-36.9-28.8-61.9-64.6-74.3c-6.6-2.3-13.5-3.7-20.5-3.9c-3.3-0.1-3.8-1.3-1.7-3.7
		c0.6-0.8,1.1-1.6,1.7-2.4C413.5,314.6,413.6,314.6,428,319.9z"/>
	<path class="st4" d="M447.2,236.7c-22.9,32.5-45,63.9-67,95.3c-2,2.8-4.9,2.7-8.4,3.5c7.8-12.4,15.3-24.3,22.9-36.1
		c10.2-16,20.7-31.7,30.5-47.9c3.7-6,7.9-10.4,14.8-12.1C442,239,443.9,238,447.2,236.7z"/>
	<path class="st2" d="M361,613.8c2.1-6.6,0.6-13.4,1.1-20.1c0.1-1.9-0.7-4,1-5.6c1.9,7.2,4.1,8.9,11.6,8.9c3.8,0,7.7,0.1,11.5,0
		c2.1-0.1,3.1,0.5,2.9,2.8c-0.2,2.2,0.1,4.3-0.1,6.5c-0.3,4.8-3.2,7.7-8,7.8C374.3,614,367.6,613.8,361,613.8z"/>
	<path class="st1" d="M477.1,171c6.5-10.2,13.1-20.3,19.5-30.5c1.2-2,2.3-2.1,4.4-1.4c11.7,4.2,11,3.7,5,14.1
		C499.3,164.6,487.4,166.2,477.1,171z"/>
	<path class="st5" d="M187.5,416.6c6.9-10,19.6-10.1,27.6,0C205.8,416.6,196.8,416.6,187.5,416.6z"/>
	<path class="st6" d="M359.8,321.7c-4.2,6.6-7.7,12-11.2,17.4c-0.4-0.3-0.8-0.5-1-0.7c-6.2-10.4-7.8-7.3,3.3-13.1
		C353.4,324.2,355.9,323.4,359.8,321.7z"/>
	<path class="st7" d="M480.3,454c3.4,4,2.8,8,0.7,12.5c-12.8,26.7-31.3,48.8-53.4,68c-1.2,1.1-2.4,2.2-3.6,3.4
		c-6.4,4.5-12.5,9.3-19.1,13.4c-2.5,1.5-3.6,1.2-4.8-1.3c-1.8-3.7-5.5-7.4-5.3-11c0.2-3.9,5.9-4.9,9.1-7.3
		c26.6-19.7,48.2-43.6,62.3-73.8C469,451.5,473.7,450.2,480.3,454z"/>
</g>
</svg>
