<?xml version="1.0" encoding="utf-8"?>
<!-- Generator: Adobe Illustrator 19.0.0, SVG Export Plug-In . SVG Version: 6.00 Build 0)  -->
<svg version="1.1" id="Calque_1" xmlns="http://www.w3.org/2000/svg" xmlns:xlink="http://www.w3.org/1999/xlink" x="0px" y="0px"
	 viewBox="0 0 612 792" style="enable-background:new 0 0 612 792;" xml:space="preserve">
<style type="text/css">
	.st0{fill:#7E5232;}
	.st1{fill:#5F3E26;}
	.st2{fill:#35495D;}
	.st3{fill:#F7E9AF;}
	.st4{fill:#F97A75;}
</style>
<g>
	<path class="st0" d="M187.8,479c1.5,2.4,3,0.3,4.2-0.2c45.4-17.7,90.7-35.4,136.1-53.2c76.3-29.9,152.6-59.7,228.8-89.7
		c5-2,9.9-2.6,15.1-2c0,5.7,0,11.3,0,17c-25.9,11.7-51.8,23.4-77.8,34.9c-110.2,49.2-220.4,98.4-330.6,147.5
		c-4.2,1.9-7.1,4.5-9.5,8.3c-16.5,26-33.3,51.8-49.7,77.8c-2.1,3.4-3.9,3.9-7.5,2.4c-12.2-5.2-24.6-10-36.9-14.9c0-0.3,0-0.7,0-1
		c8.9-12.4,17.8-24.7,26.7-37.1c-4.2,2-5.8,0-7.4-3.5c-5-10.6-10.2-21.2-15.7-31.6c-1.7-3.2-1.2-4.3,2.1-5.6
		c18.6-7.1,37.1-14.4,55.6-21.6c1.8-0.7,3.5-1.8,5.3-2.7c3.8-2.8,8.3-4.1,12.6-5.8c14.3-5.4,28.4-11.3,42.7-16.6
		C184,480.8,185.5,479,187.8,479z"/>
	<path class="st1" d="M187.8,479c-3.3,4.5-8.8,4.8-13.4,6.7c-14.4,5.9-29,11.5-43.5,17.1c-1.4,0.5-2.9,0.7-4.3,1
		c16.1-22.7,32.2-45.3,48.3-68C251.9,328.3,329,220.6,406,113c3,0,6,0,9,0c0.1,0.1,0.2,0.3,0.3,0.4c2.4,3.1,7.5,5.1,7.4,8.8
		c-0.1,3.3-3.6,6.5-5.7,9.7c-75.7,114.8-151.4,229.5-227.1,344.3C189.2,477.2,188.5,478.1,187.8,479z"/>
	<path class="st2" d="M511.9,289.4c0,48.7-39.5,88.4-88.2,88.5c-48.7,0.1-88.4-39.5-88.5-88.2c-0.1-48.6,39.6-88.4,88.2-88.5
		C472.1,201.1,511.9,240.8,511.9,289.4z"/>
	<path class="st3" d="M454.3,332.3c-12.2,9.1-25.6,12.2-40.5,8.8c-1.2-1.7-0.6-3.5-0.4-5.3c3.2-25.7-10.3-49.6-33.9-60.5
		c-1.9-0.9-4.2-1.3-5.4-3.3c6.8-19.5,20.9-30.6,40.7-34.6c20.7-4.1,43.5,6.5,54.1,24.8c0.5,0.8,0.8,1.8,1.1,2.7
		c-1.3,2.6-4,3.4-6.3,4.7c-11.1,6-17.8,15-20,27.5c-1.6,9.4,1.5,17.6,6,25.5C451.6,325.6,454.6,328.2,454.3,332.3z"/>
	<path class="st4" d="M374.1,271.9c27.9,8.4,45.6,37.9,40,66.6c-0.2,0.8-0.2,1.6-0.3,2.5c-11.9-1.3-21.1-7.4-29.1-15.8
		C371.4,311.4,366.9,288.6,374.1,271.9z"/>
	<path class="st4" d="M454.3,332.3c-4.1-7.2-9.4-13.8-11.2-22.1c-3.5-15.9,2.8-30.6,16.6-39.5c3.3-2.1,6.9-3.9,10.4-5.8
		c10.9,16.7,8,43.2-6.5,59.2C460.8,327.2,458.1,330.4,454.3,332.3z"/>
</g>
</svg>
