<?xml version="1.0" encoding="utf-8"?>
<!-- Generator: Adobe Illustrator 19.0.0, SVG Export Plug-In . SVG Version: 6.00 Build 0)  -->
<svg version="1.1" id="Calque_1" xmlns="http://www.w3.org/2000/svg" xmlns:xlink="http://www.w3.org/1999/xlink" x="0px" y="0px"
	 viewBox="0 0 612 792" style="enable-background:new 0 0 612 792;" xml:space="preserve">
<style type="text/css">
	.st0{fill:#194F81;}
	.st1{fill:#FDC00D;}
	.st2{fill:#56ABDE;}
</style>
<g>
	<path class="st0" d="M518.1,579.6c-0.1-26.5-15.1-47.8-40.2-56.8c-63.7-23-129.4-32.7-197.1-29c-49.2,2.7-96.9,12.5-143.2,29.2
		c-23.7,8.5-39.3,30-39.5,55.2c-0.2,20.5,0,41-0.1,61.5c0,12.2,5,17.4,17.1,17.4c64.3,0,128.6,0,193,0c64.7,0,129.3,0,194,0
		c10.6,0,16.1-5.4,16.1-15.9C518.1,620.6,518.2,600.1,518.1,579.6z M485,628.9c-59-0.1-118-0.1-176.9-0.1c0,0,0,0,0,0
		c-59,0-118,0-176.9,0.1c-4.2,0-5.2-1.2-5.1-5.3c0.3-14.7,0.1-29.3,0.1-44c0.1-14.2,7.9-25.4,21.1-30.2
		c59.8-21.5,121.4-30.9,184.9-27.6c46.5,2.4,91.7,11.4,135.5,27.2c14.9,5.4,22.3,16,22.3,31.9c0,14.3-0.1,28.7,0.1,43
		C490,627.9,488.9,628.9,485,628.9z"/>
	<path class="st0" d="M382.7,212.9c-3.2-0.7-4.4-1.9-5.1-5.3c-8.4-40-41.4-63.3-81.4-57.6c-28.4,4-54.3,29.9-58,58.3
		c-0.4,3.1-1.8,3.7-4.2,4.2c-23.5,5.3-39.2,19.5-45.7,42.6c-6.6,23.5-0.2,44,17.6,60.9c1.6,1.5,2.3,3,2.2,5.2c-0.1,7,0,14-0.1,21
		c0,2.9,0.3,5.8,2.1,8c1.9,2.3,2.1,4.7,2,7.4c-0.4,21.7,4.1,42.3,15.1,61.2c35.4,61.1,116.4,65.4,156.8,8.4
		c14.6-20.6,19.9-43.9,19.9-68.8c0-2.1-0.8-4.5,0.7-6.3c3.2-3.9,3.5-8.4,3.4-13.2c-0.1-5.5,0.1-11-0.1-16.5
		c-0.1-3.1,0.9-5.2,3.1-7.3c12.5-11.8,18.8-26.3,19.1-43.5C430.4,243.4,410.6,218.8,382.7,212.9z M386.8,298.4
		c-4.6,3.2-7.1,7.3-6.9,13c0.1,4.3-0.3,8.7,0.1,13c0.3,3.9-1.1,4.7-4.7,4.6c-22.5-0.2-45-0.1-67.5-0.1c-22.3,0-44.6-0.1-67,0.1
		c-3.6,0-5.2-0.6-4.7-4.6c0.4-3.6-0.1-7.3,0.1-11c0.5-7-2.3-11.9-8.2-15.9c-16.9-11.6-18.8-34.9-4.2-49c6.6-6.3,14.5-9.1,23.6-8.7
		c13.3,0.5,18.5-4.7,18.2-18.1c-0.7-27.8,18.2-43.8,43.1-44c23.5-0.2,42.9,17.6,41.7,44.9c-0.5,11.7,5.4,17.7,17.1,17.3
		c15.9-0.6,28.3,7.8,33,22.1C405,275.5,399.7,289.6,386.8,298.4z"/>
	<path class="st1" d="M308.1,357c21.1,0,42.3,0,63.4,0c2.2,0,4.2-0.3,4.2,3.1c-0.4,25.7-8.1,48.2-28.7,64.8
		c-27.8,22.3-63.1,18.9-86.8-8.3c-13.6-15.6-20.6-33.9-20.3-54.8c0-3.6,1-4.8,4.8-4.8C265.9,357.1,287,357,308.1,357z"/>
	<path class="st2" d="M308,600.8c-49.5,0-99,0-148.4,0.1c-4.1,0-5.7-1.1-5.4-5.3c0.3-4.5,0.3-9,0-13.5c-0.2-3.8,1.3-5.8,4.9-7
		c23.6-8.2,47.6-14.7,72.2-19.1c25.3-4.5,50.8-6.8,76.4-6.7c51.3,0.1,101.2,8.6,149.6,25.9c3.2,1.2,4.9,2.9,4.7,6.6
		c-0.3,4.6-0.3,9.3,0,14c0.2,3.9-1,5.2-5,5.2c-33.5-0.2-67-0.1-100.5-0.1C340.3,600.8,324.1,600.8,308,600.8z"/>
</g>
</svg>
