<?xml version="1.0" encoding="utf-8"?>
<!-- Generator: Adobe Illustrator 19.0.0, SVG Export Plug-In . SVG Version: 6.00 Build 0)  -->
<svg version="1.1" id="Calque_1" xmlns="http://www.w3.org/2000/svg" xmlns:xlink="http://www.w3.org/1999/xlink" x="0px" y="0px"
	 viewBox="0 0 612 792" style="enable-background:new 0 0 612 792;" xml:space="preserve">
<g>
	<path d="M430,154c0,121.3,0,242.5,0,363.9c2.7,0.2,4.8,0.3,7.4,0.5c0,12.9,0,25.8,0,39c-2.3,0.2-4.6,0.4-7.4,0.7c0,36,0,72,0,107.9
		c-19.7,0-39.3,0-59,0c0-35.9,0-71.9,0-108c-2.8-0.2-5.1-0.3-7.8-0.5c0-13,0-25.9,0-39.1c2.4-0.2,4.7-0.3,7.7-0.5c0-2.1,0-4.2,0-6.3
		c0-91.5,0-182.9,0-274.4c0-39.7,18.6-67.2,55.5-82.2c0.6-0.2,1-0.7,1.5-1.1C428.7,154,429.3,154,430,154z"/>
	<path d="M285,154c5.3,2.4,7.2,6.5,7.2,12.4c-0.2,50.3-0.1,100.6-0.1,150.9c0,20.9-3.1,41.1-11.8,60.3c-4.2,9.2-9.6,17.4-17.2,24.3
		c-1.3,1.2-1.9,3.7-2,5.6c-0.2,13.8-0.1,27.6-0.1,41.8c-12.2,0-24.1,0-36.4,0c0-12.2-0.2-24.2,0.1-36.1c0.2-6.3-1.2-10.8-6-15.7
		c-12.6-12.7-18.5-29.2-21.5-46.4c-2.1-11.7-3.2-23.8-3.2-35.7c-0.3-49.3-0.1-98.6-0.3-147.9c0-5.8,1.3-10.3,6.3-13.5
		c2.3,0,4.7,0,7,0c5.1,3.1,6.6,7.6,6.5,13.4c-0.2,25-0.1,50-0.1,74.9c0,12.7,0,25.3,0,38c0,4.5,1.2,8.3,5.5,10.4
		c7,3.6,14.2-1.5,14.2-10.2c0-37.6,0.1-75.3-0.1-112.9c0-6.1,1.6-10.7,7-13.6c2,0,4,0,6,0c5.4,2.7,7.3,7,7.1,13
		c-0.3,13.2-0.1,26.3-0.1,39.5c0,24.5,0,49,0,73.5c0,4.7,1.2,8.6,5.6,10.8c6.9,3.5,13.9-1.5,13.9-9.9c0-37.6,0.1-75.3-0.1-112.9
		c0-6,1.3-10.7,6.6-13.9C281,154,283,154,285,154z"/>
	<path d="M213,666c0.1-1.5,0.4-3,0.4-4.4c0-56.6,0-113.2,0-169.9c0-1.3,0-2.6,0-4.2c-2-0.3-3.7-0.6-5.8-0.9c0-11.6,0-23.1,0-35
		c23.5,0,46.9,0,70.5,0c0,11.7,0,23.1,0,34.9c-1.5,0.3-3.1,0.6-4.9,0.9c-0.1,1.1-0.3,2.2-0.3,3.3c0,57.8,0,115.6,0,173.4
		c0,0.7,0.1,1.3,0.1,2C253,666,233,666,213,666z"/>
</g>
</svg>
