<?xml version="1.0" encoding="utf-8"?>
<!-- Generator: Adobe Illustrator 19.0.0, SVG Export Plug-In . SVG Version: 6.00 Build 0)  -->
<svg version="1.1" id="Calque_1" xmlns="http://www.w3.org/2000/svg" xmlns:xlink="http://www.w3.org/1999/xlink" x="0px" y="0px"
	 viewBox="0 0 612 792" style="enable-background:new 0 0 612 792;" xml:space="preserve">
<g>
	<path d="M258.9,207.6c0.4-1.5,0.7-2.9,1.1-4.4c3.9-16.4,18.8-29.1,35.6-29.3c31.3-0.4,62.7-0.4,94,0c17.3,0.2,31.4,11.9,35,28.8
		c1,4.7,3,5.2,6.9,5.3c27.8,0.4,51.1,19.4,57,46.4c0.8,3.9,1.3,7.9,1.3,11.9c0,57.7,0,115.3-0.1,173c0,27.9-12.1,48.5-37.7,59.9
		c-7.4,3.3-16.1,4.9-24.2,5c-57.7,0.4-115.3,0.4-173,0.1c-35-0.2-61.7-27.4-61.7-62.6c-0.1-56.5,0.3-113-0.1-169.5
		c-0.3-37.8,29.7-65,62.8-64.2C256.7,207.9,257.7,207.7,258.9,207.6z M342.3,427.5c42.5,0.1,76.6-33.9,76.8-76.4
		c0.2-42.9-33.7-77.1-76.4-77.2c-42.9-0.1-76.9,33.7-77,76.5C265.6,393.3,299.6,427.5,342.3,427.5z"/>
	<path d="M391.4,601.2c0,16.7,0,33.3,0,50c0,10-3.1,13.1-13.2,13.1c-16.3,0-32.6,0-49,0c-9.1,0-12.4-3.3-12.4-12.3
		c0-33.6,0-67.3,0-100.9c0-9,3.3-12.5,12.3-12.6c16.7-0.1,33.3-0.1,50,0c9.3,0,12.3,3.2,12.3,12.3
		C391.4,567.5,391.4,584.4,391.4,601.2z M338.4,557.9c0,28.6,0,56.7,0,84.8c10.6,0,20.9,0,31.2,0c0-28.4,0-56.6,0-84.8
		C359.1,557.9,348.9,557.9,338.4,557.9z"/>
	<path d="M291.1,601c0,16.8,0,33.6,0,50.5c0,9.5-3.2,12.7-12.5,12.8c-16.7,0-33.3,0.1-50,0c-8.7,0-12.1-3.4-12.1-12.2
		c-0.1-33.8-0.1-67.6,0-101.4c0-8.7,3.5-12.1,12.2-12.2c16.7-0.1,33.3-0.1,50,0c8.6,0.1,12.4,4,12.4,12.6
		C291.1,567.7,291.1,584.3,291.1,601z M269.7,558c-10.8,0-21.1,0-31.5,0c0,28.4,0,56.4,0,84.6c10.7,0,21,0,31.5,0
		C269.7,614.3,269.7,586.4,269.7,558z"/>
	<path d="M470.3,591.9c0-14.5-0.1-28.1,0-41.8c0.1-8.8,6.1-13.4,14.2-11.1c4.5,1.2,7.2,4.1,7.2,9c0,35.1,0.1,70.2,0,105.4
		c0,7.3-4,10.9-11.4,10.9c-17.3,0.1-34.6,0.1-51.9,0c-7.7,0-11.3-3.7-11.4-11.4c-0.1-16.5-0.1-33,0-49.4c0-7.8,3.8-11.5,11.8-11.5
		c12-0.1,24,0,36,0C466.4,591.9,468,591.9,470.3,591.9z M438.7,611c0,11,0,21.4,0,31.7c10.7,0,20.9,0,31.2,0c0-10.7,0-21,0-31.7
		c-1.7,0-3,0-4.3,0C456.8,611,448,611,438.7,611z"/>
	<path d="M137.9,557.8c0,10.9,0,21.1,0,32c3.2,0,6.2,0,9.1,0c11,0,22-0.1,33,0c6.9,0.1,10.8,4,10.9,10.4c0.1,6.5-4.1,10.8-11,10.8
		c-13.8,0.1-27.6,0-42.2,0c0,2.4,0,4.4,0,6.5c0,11.7,0.1,23.3,0,35c-0.1,8.1-4.2,12.1-11.6,11.7c-6.1-0.3-9.7-4.2-9.8-10.9
		c-0.2-7.7,0-15.3,0-23c0-26,0-52,0-77.9c0-10.5,3.3-13.9,13.6-13.9c16.5,0,33-0.1,49.5,0c9.3,0.1,14.3,7.6,10.7,15.5
		c-2.1,4.6-5.8,6-10.5,4c-0.6-0.2-1.3-0.3-2-0.3C164.5,557.7,151.5,557.8,137.9,557.8z"/>
	<path d="M116.2,442c0-17.1,0-34.3,0-51.4c0-7,2.8-10.7,8.4-11.8c7-1.3,12.2,2.4,13,9.5c0.1,0.5,0.1,1,0.1,1.5
		c0,35.1,0.1,70.2,0,105.3c0,7.5-4.2,11.4-11.1,11.2c-6.5-0.2-10.3-4.2-10.3-11.5C116.1,477.2,116.2,459.6,116.2,442z"/>
	<path d="M342.5,376.2c-14.2,0-25.5-11.1-25.6-25.2c-0.1-14.4,11.2-25.9,25.4-25.9c14.1,0,25.7,11.6,25.7,25.8
		C367.9,365,356.6,376.2,342.5,376.2z"/>
</g>
</svg>
