<?xml version="1.0" encoding="utf-8"?>
<!-- Generator: Adobe Illustrator 19.0.0, SVG Export Plug-In . SVG Version: 6.00 Build 0)  -->
<svg version="1.1" id="Calque_1" xmlns="http://www.w3.org/2000/svg" xmlns:xlink="http://www.w3.org/1999/xlink" x="0px" y="0px"
	 viewBox="0 0 612 792" style="enable-background:new 0 0 612 792;" xml:space="preserve">
<style type="text/css">
	.st0{fill:#333333;}
	.st1{fill:#FDFDFD;}
	.st2{fill:#40A4A7;}
</style>
<g>
	<path class="st0" d="M484.8,283.7c1.8,0.8,2,2.4,2.3,4.1c5.9,42.2,11.9,84.3,17.8,126.5c7.1,50.7,14.2,101.5,21.3,152.2
		c3.9,28,7.9,56,11.9,84c0.1,0.7,0.2,1.3,1,1.5c0,2.7,0,5.3,0,8c-0.6,2.7-2.3,4.4-5,5c-140.3,0-280.7,0-421,0
		c-4.4-1.2-6-4.5-6.3-8.6c-1.4-15.4-2.2-30.9-3.2-46.3c-0.9-13.8-1.9-27.5-2.7-41.3c-0.7-12.5-1.6-24.9-2.4-37.3
		c-0.8-13.4-1.5-26.9-2.7-40.3c-0.3-3.5-0.3-7-0.3-10.5c0-3.7-1.4-5.7-5.3-6.5c-5.8-1.1-8.3-4.1-8.5-10c-0.3-10.1-0.3-20.3,0-30.5
		c0.2-6.8,3.9-10,11-10.2c8.8-0.2,8.9,0.6,8.8-9.3c0-3.7-0.1-7.3,0-11c0.2-8.2,3.5-11.5,11.6-11.8c4.8-0.1,9.7,0,14.5,0
		c30.1,0,60.3,0,90.4,0c4.5,0,9-0.2,12.5,3.8c1.8-6.2,1.1-12.2,3.5-17.6c0.9-1.5,2.6-1.9,4.1-2.3c3.7-0.9,7.1-2.3,10.3-4.3
		c1.2-0.8,2.6-2.4,4.2-0.4c0.9,5.7-0.9,11.2-1.6,16.8c-1.3,10.4-2.9,20.8-4.4,31.2c-0.4,2.8-0.1,5.2,2.3,7.2
		c2.6,2.2,3.5,5.2,3.5,8.5c0.1,9.7,0.2,19.3,0,29c-0.1,6.8-2.5,9.8-9.2,11c-3.5,0.6-4.6,2.3-4.8,5.7c-1.4,24.7-3.3,49.5-4.7,74.2
		c-1.1,18.1-2.5,36.2-3.4,54.3c-0.5,11.1-1.5,22.2-2.2,33.4c-0.3,5.1-0.2,5.5,4.9,5.6c8.8,0.1,17.7,0,26.5,0c50.5,0,101,0,151.4,0
		c7.1,0,7.2-0.1,8.2-7C434,536.7,449,432.8,463.7,328.9c0.2-1.3,0.6-2.6,0.2-4.5c-5.8,7-11,13.9-16.3,20.7c-2.4,3-5,5.4-9.1,5.3
		c-57.1,0-114.2,0-171.4,0c-8.4,0-13.3-4.1-14.6-12.2c-0.5-3.1,1.4-4.6,4.1-5.3c2.3-0.6,4.6-0.3,7-0.3c54,0,107.9,0,161.9,0
		c2.5,0,5,0.4,7.3-1c3.6-2.4,5.7-6,8.3-9.3c5.3-6.6,10.3-13.5,15.6-20.2c0.7-0.8,1.9-1.7,1.1-3c-0.6-0.9-1.8-0.6-2.8-0.6
		c-1.2,0-2.3,0-3.5,0c-61.7,0-123.3,0-185,0c-3.1,0-6.4,0.8-9-1.7c-1.4-3.6,0.1-7.2,0-10.9c0-1.5,0.8-2.5,2.5-2.4c0.8,0,1.7,0,2.5,0
		c73.3,0,146.5,0,219.8,0C483.1,283.6,484,283.6,484.8,283.7z"/>
	<path class="st1" d="M252,370.1c4.4-4.8,7.3-10.4,7-17.1c-0.2-3.9,2.3-3.2,4.6-3.2c21.3,0,42.6,0,63.9,0c35.5,0,70.9,0,106.4-0.1
		c1.6,0,3.3,0.4,4.9-0.5c3.2,0,5.2-1.8,7-4.2c5.6-7.3,11.2-14.5,16.8-21.7c1-1.2,1.6-2.9,3.9-3.5c-1.6,11.6-3.1,22.9-4.7,34.2
		c-4.5,31.8-9.1,63.6-13.7,95.3c-5.9,41-11.7,82-17.6,123c-3.5,24.2-7,48.4-10.3,72.6c-0.4,3.3-1.6,4-4.6,4
		c-61.8-0.1-123.6-0.1-185.4,0c-3.3,0-4.1-0.7-3.9-4.1c3.1-45.2,6-90.4,8.9-135.6c0.7-10.6,1.5-21.3,2-31.9c0.2-3.2,0.8-4.7,4.5-4.6
		c6.6,0.2,9.3-2.8,9.4-9.4c0-9.8,0-19.7,0-29.5c0-2.6-0.2-5.7-2.5-6.7c-5.4-2.4-3.7-6.5-3.1-10.3C247.6,401.4,249.8,385.7,252,370.1
		z"/>
	<path class="st1" d="M166.6,473c17,0,34,0,51,0c2,0,4.1-0.7,3.9,3.1c-3.8,56.2-7.4,112.3-10.9,168.5c-0.2,3.7-1.3,4.6-4.9,4.5
		c-25.8-0.2-51.6-0.2-77.5,0c-3.7,0-4.7-1-5-4.6c-2.3-39.6-4.8-79.1-7.3-118.7c-1-16.1-1.9-32.3-3.2-48.3c-0.4-4.2,1-4.5,4.4-4.5
		C133.6,473.1,150.1,473,166.6,473z"/>
	<path class="st1" d="M433.9,333.4c-16.3-0.1-32.6-0.3-48.9-0.3c-41.6,0-83.3,0-124.9,0c-1.2,0-2.3-0.1-4-0.2
		c4.5-9.4,3.9-18.2-2-26.5c-0.9-1.2-0.5-2,0.2-3.1c1.3-2.1,2.6-4.2,3.8-6.4c65.6,0,131.1,0,196.7,0.1c2.3,0,4.6,0,7.8,0
		c-5.6,7.3-10.6,14-15.9,20.6C442.5,322.9,438.9,328.7,433.9,333.4z"/>
	<path class="st1" d="M471.1,406.6c0,22.1,0,44.3,0,66.4c0,43.8-0.1,87.6,0,131.4c0,3.3-1,5.5-3.5,7.6c-9.7,8-19.3,16.2-30.1,25.3
		c11.2-78,22.1-154.4,33-230.8C470.7,406.5,470.9,406.5,471.1,406.6z"/>
	<path class="st1" d="M487.5,406.6c11,77.6,21.8,153.8,32.7,231c-11.2-9.6-21.6-18.5-32.1-27.5c-1.2-1-1.1-2.3-1.1-3.6
		c0-65.5,0-130.9,0.1-196.4C487.1,409.4,487.2,408.7,487.5,406.6z"/>
	<path class="st1" d="M167.6,441c21,0,42,0.1,62.9-0.1c3.8,0,4.7,0.9,4.6,4.6c-0.2,11.4-0.1,11.4-11.7,11.4
		c-40,0-79.9-0.1-119.9,0.1c-3.7,0-4.7-0.9-4.6-4.6c0.2-11.5,0-11.5,11.7-11.5C129.7,441,148.6,441,167.6,441z"/>
	<path class="st1" d="M167.1,409.1c14.6,0,29.3,0.1,43.9-0.1c3.2,0,4.2,0.7,4.2,4.1c0,12,0.1,12-12.1,12c-26.5,0-52.9-0.1-79.4,0.1
		c-3.7,0-4.7-0.8-4.6-4.6c0.2-11.4,0.1-11.5,11.6-11.5C142.8,409.1,154.9,409.1,167.1,409.1z"/>
	<path class="st1" d="M509.1,648.8c-20.5,0-39.9,0-60.4,0c10.1-8.5,19.4-16.4,28.7-24.3c1.7-1.4,2.7-0.3,3.8,0.7
		C490.3,632.8,499.3,640.4,509.1,648.8z"/>
	<path class="st2" d="M264.1,283.8c71.9,0.1,143.8,0.1,215.7,0.1c1.7,0,3.3-0.1,5-0.2c-2.3-1.2-4.9-0.6-7.3-0.6
		c-69.6,0-139.3-0.1-208.9,0.2c-6.7,0-11.7-0.6-14.1-7.8c-0.6-1.9-1.1-3,0.2-4.8c5.5-8,6.2-16.5,1.4-24.9
		c-4.8-8.5-12.4-12.7-22.2-12.7c-14.2,0-28.3,0.1-42.5,0c-6.6,0-9.3-3-9.4-9.5c0-10.5,0.2-21-0.1-31.5c-0.3-11.7-5.1-21.5-13.9-29.3
		c-5.8-5.1-12.8-7.4-20-9.6c-3.3,0-6.7,0-10,0c-9.2,2.3-13.2,7.3-13.5,17c-0.1,1.7,0,3.3,0,5c0,14.6,0,29.3,0,43.9
		c0,2.2,0.1,4.3-0.4,6.5c-0.9,3.6-3,5.9-6.9,6c-3.7,0.1-7.7,1.2-9.4-4c-1.6-4.8-5.8-6.7-10.7-6.8c-20.1-0.2-40.3-0.2-60.4,0
		c-4.5,0-8.1,1.8-9.7,6.4c0,51.7,0,103.3,0,155c2.1,2.9,4.2,5.4,8.3,5.3c21-0.1,42-0.1,62.9,0c4.9,0,8.1-2.3,8.6-7.2
		c0.3-2.8,1.3-3.2,3.6-3.2c41.5,0.1,82.9,0.1,124.4,0.1c6.5-0.3,12.1-2.8,17-7c2.8-0.5,4.1-2.7,5.3-4.9c1.6-2.7,2.8-5.8,3.1-8.9
		c0.4-3.6,2.3-4.8,5.7-4.7c1.7,0.1,3.3,0,5,0c52.4,0,104.9,0,157.3,0c2.2,0,4.3,0.1,6.5-0.1c1.6-0.2,3.4,0,4-2.2
		c-1.8-0.1-3.6-0.3-5.5-0.3c-54.8,0-109.6-0.1-164.5,0.1c-6.2,0-11.5,0.1-12.8-7.6c-0.2-0.9-1-1.7-1.6-2.5c-2.3-2.9-0.4-4.2,2.1-5
		c1.2-0.4,2.6-0.1,4-0.1c56,0,112,0,168,0c1.8,0,3.7,0.5,5.4-0.5c-2.3-2.8-5.5-1.9-8.4-1.9c-52.7-0.1-105.3,0-158,0
		c-1.5,0-3,0-4.5,0c-3.1,0.1-4.3-1.1-3.4-4.3c1.2-4.1,1.2-8.2,0-12.3c-1.3-4.5-2.1-13.9-1.6-17.9c0.3-2.6,1.3-5.4,0.9-7.9
		C258.1,284.4,259.9,283.8,264.1,283.8z M85.5,371.4c-12.8-0.3-25.6-0.2-38.5-0.1c-2.9,0-4.1-0.6-4-3.8c0.1-41.8,0.1-83.6,0-125.4
		c0-2.9,0.6-4.1,3.8-4.1c13.5,0.2,27,0.2,40.5,0c3.9-0.1,3.8,1.8,3.8,4.6c-0.1,20.8,0,41.6,0,62.5c0,20.2-0.1,40.3,0.1,60.5
		C91.2,369.9,90.3,371.6,85.5,371.4z M234.8,345.1c5.5,0.8,8.4,3.7,8.2,8.1c-0.2,4.5-3.9,7.8-9.3,7.8c-20.5,0.1-41,0-61.5,0
		c-20.2,0-40.3-0.1-60.5,0.1c-3.6,0-4.8-0.7-4.8-4.6c0.2-32.7,0.1-65.3,0.1-98c0-9.5,0-9.5,9.3-9.5c2.5,0,5-0.1,7.4-0.8
		c11-3,18.2-12,18.3-23.4c0.1-17,0-34,0-51c0-5.5,0.1-5.6,5.7-4.1c11.4,3.1,18.2,12,18.3,23.8c0.1,10.3,0,20.7,0.1,31
		c0.1,13.9,10.4,24.3,24.3,24.4c14.2,0.1,28.3,0,42.5,0c6,0,9.7,2.7,10.1,7.3c0.4,4.8-2.4,7.5-8.8,8.7c-4.3,0.8-6.9,3.3-7.2,7.7
		c-0.3,4.1,2.7,7.4,7.2,8.2c6.2,1.2,8.9,3.7,8.8,8.2c-0.1,4.4-2.8,6.9-8.6,7.9c-4.6,0.8-7.4,3.9-7.4,8c0,4.3,2.8,7.3,7.5,7.9
		c2.2,0.3,4.3,0.7,5.9,2.3c2.3,2.3,3.3,5.1,2.2,8.2c-1.2,3.5-3.8,5.2-7.5,5.6c-5.2,0.6-8,3.4-8.1,7.8
		C227,341.2,230,344.3,234.8,345.1z"/>
	<path class="st0" d="M350.1,399.9c22.3,0,44.6,0,67,0c8.1,0,11,3.6,9.8,11.7c-4.6,30.3-9.2,60.5-13.8,90.8
		c-1.1,7.3-3.5,9.6-10.8,9.6c-44.3,0-88.6,0-132.9,0c-8,0-11.2-3.8-10-11.7c4.6-30.6,9.2-61.2,13.8-91.8c0.9-6.3,3.5-8.6,10-8.6
		C305.4,399.9,327.7,399.9,350.1,399.9z"/>
	<path class="st1" d="M337,495.9c-18.8,0-37.6-0.1-56.4,0.1c-3.7,0-4.3-0.8-3.7-4.4c3.8-24.1,7.6-48.3,11-72.5
		c0.5-3.6,2.4-3.2,4.8-3.2c37.6,0,75.3,0.1,112.9-0.1c3.7,0,3.9,1.3,3.5,4.3c-2.9,18.7-5.7,37.5-8.5,56.2c-0.7,4.9-2,9.8-2.2,14.8
		c-0.2,4.5-2.2,4.9-5.9,4.8C374,495.9,355.5,495.9,337,495.9z"/>
</g>
</svg>
