<?xml version="1.0" encoding="utf-8"?>
<!-- Generator: Adobe Illustrator 19.0.0, SVG Export Plug-In . SVG Version: 6.00 Build 0)  -->
<svg version="1.1" id="Calque_1" xmlns="http://www.w3.org/2000/svg" xmlns:xlink="http://www.w3.org/1999/xlink" x="0px" y="0px"
	 viewBox="0 0 612 792" style="enable-background:new 0 0 612 792;" xml:space="preserve">
<style type="text/css">
	.st0{fill:#989898;}
	.st1{fill:#323232;}
	.st2{fill:#98907D;}
	.st3{fill:#C92C22;}
	.st4{fill:#491B04;}
	.st5{fill:#968E7A;}
	.st6{fill:#827B6A;}
	.st7{fill:#7C1B15;}
	.st8{fill:#FBFAFA;}
	.st9{fill:#C92B22;}
	.st10{fill:#C92A20;}
	.st11{fill:#C92B21;}
	.st12{fill:#FBFBFB;}
	.st13{fill:#7D1B15;}
	.st14{fill:#FCFBFB;}
	.st15{fill:#CA2A21;}
	.st16{fill:#CA2B21;}
	.st17{fill:#1F1C19;}
	.st18{fill:#2C2823;}
	.st19{fill:#1C1917;}
	.st20{fill:#2B2622;}
	.st21{fill:#716458;}
	.st22{fill:#655447;}
	.st23{fill:#665242;}
	.st24{fill:#655142;}
	.st25{fill:#645142;}
	.st26{fill:#655446;}
	.st27{fill:#938F88;}
	.st28{fill:#867B6B;}
	.st29{fill:#88807B;}
	.st30{fill:#857969;}
	.st31{fill:#89837D;}
	.st32{fill:#593A27;}
	.st33{fill:#624939;}
	.st34{fill:#675243;}
	.st35{fill:#593926;}
	.st36{fill:#583824;}
	.st37{fill:#55331F;}
	.st38{fill:#614938;}
	.st39{fill:#583724;}
	.st40{fill:#583825;}
	.st41{fill:#624A3A;}
	.st42{fill:#614837;}
	.st43{fill:#665243;}
	.st44{fill:#614737;}
	.st45{fill:#614838;}
	.st46{fill:#675343;}
	.st47{fill:#583925;}
	.st48{fill:#665142;}
	.st49{fill:#573723;}
	.st50{fill:#938E87;}
	.st51{fill:#4B1F08;}
	.st52{fill:#4C1F09;}
	.st53{fill:#4D220C;}
	.st54{fill:#4B1F09;}
	.st55{fill:#4C200A;}
	.st56{fill:#867A70;}
	.st57{fill:#4A1D07;}
</style>
<g>
	<path class="st0" d="M477.3,602c-16.5,8.1-33,16.2-49.5,24.4c-38.5,19.2-76.9,38.4-115.3,57.7c-1.8,0.9-3.4,1.9-5.2,2.9
		c-0.3,0-0.7,0-1,0c-16-8.1-31.9-16.3-47.9-24.3c-39.2-19.6-78.4-39.2-117.6-58.8c-1.5-0.7-3-1.3-4.5-1.9c0-0.3,0-0.7,0-1
		c2.9-0.4,4.9-3,7.9-3c4.6,0.1,9.2,0.6,13.4,2.7c46.5,23.3,93,46.5,139.5,69.7c3.6,1.8,5.3,5.6,9,6.9c2.7,0.3,4.6-1.2,6.3-3.1
		c1-1.3,2.4-2.3,3.8-3.2c2.1-1.4,4.3-2.5,6.6-3.6c44.4-22.2,88.8-44.4,133.2-66.6c2.2-1.1,4.3-2.5,6.9-2.7c2.3,0.8,4.5-1.1,6.8-0.2
		c2.6,1,5.1,2.1,7.7,3.1C477.3,601.3,477.3,601.7,477.3,602z"/>
	<path d="M306.1,678.9c-22.9-16.8-49.7-26.5-74.5-39.7c-24.9-13.3-50.4-25.3-75.6-38c-3.7-1.9-8.3-0.3-11.7-3.2c0-9.7,0-19.4,0-29.1
		c-0.7-1.7-1.6-3.6,0.3-4.9c1.9-1.4,3.7,0.1,5.5,0.9c2.7,1.6,5.6,3,8.4,4.3c2.6,1.5,5.4,2.8,8.1,4.1c2.6,1.4,5.3,2.7,8,4
		c2.6,1.5,5.4,2.7,8.1,4c2.1,1.2,4.4,2,6.3,3.4c0.9,0.8,1.3,1.9,1.6,3c0.5,1.8,1.1,3.6,3.4,3.5c2.5-0.2,4.5-1.5,4.8-4.1
		c0.4-3.9,0.9-7.8-0.4-11.6c-1.7-1.9-4.1-2.6-6.3-3.7c-3-1.6-6.1-3.1-9.2-4.6c-2.2-1.2-4.5-2.3-6.8-3.4c-2.6-1.4-5.3-2.8-8.1-3.8
		c-2.6-1.5-5.3-2.7-8-4.1c-6.6-3.9-6.6-3.9-12.4,1c-0.9,0.7-1.7,1.5-2.9,1.6c-0.1-1.8-0.3-3.6-0.3-5.5c0-65.7,0-131.3,0-197
		c0-3,0-5.4-3.5-6.6c-3.4-1.2-0.8-3.4-0.1-4.8c12.4-25.1,25-50,37.5-75.1c13-26.1,26.1-52.1,39.1-78.2c0.6-1.2,1.3-2.3,2-3.4
		c1.9-1.4,3.5-0.1,5.1,0.7c32.4,16.5,64.9,32.7,97.1,49.4c18.2,9.4,36.7,18.4,55,27.5c3,1.5,5.9,3.2,8.7,4.9c2.4,1.5,3,3.4,1.7,5.9
		c-0.9,1.8-1.8,3.6-2.6,5.4c-25.1,50-50,100.2-75.2,150.2c-0.7,1.4-1.3,2.7-1.1,4.3c0,77.7,0,155.4,0,233
		C307.9,672.6,308.8,676.2,306.1,678.9z"/>
	<path class="st1" d="M306.6,434.2c20.3-40.5,40.6-80.9,60.9-121.4c6-11.9,11.8-23.9,17.9-35.7c1.5-2.9,1.7-4.4-1.7-6.1
		c-10.3-5-20.4-10.5-30.7-15.7c-42.6-21.6-85.2-43.3-127.8-64.9c-1.9-1-3.7-2.3-5.9-2.5c0.7-4.4,2.5-5,6.6-2.9
		c53.2,27.1,106.4,54.1,159.6,81.2c2.2,1.1,4.3,2.4,6.1,4.2c25,25.6,50,51.2,75,76.8c1,1,2.5,1.8,2.5,3.6c-1.2,1.5-2.5,0.8-3.8,0.1
		c-0.6-0.4-1.1-0.9-1.6-1.4c-1.1-1.1-2.2-2.2-3.3-3.3c-5.2-5.2-10.3-10.3-15.5-15.5c-1.5-1.5-2.8-3.3-4.3-4.9
		c-0.5-0.5-0.9-0.9-1.3-1.5c-1.1-1.6-2.6-2.9-4-4.2c-7.2-7.4-14.9-14.4-21.8-22.2c-1.2-1.5-2.8-2.7-3.8-4.3c-0.4-0.5-0.8-1-1.2-1.4
		c-1.3-1.4-2.7-2.7-4.1-4c-2.6-2.6-5.1-5.1-7.7-7.7c-0.8-0.8-1.7-1.6-2.5-2.4c-4.5-4.3-4.6-4.3-7.4,1.4
		c-17,34.3-33.8,68.6-50.6,102.9c-7.1,14.6-14.3,29.3-21.8,43.8c-0.8,1.5-1.6,3-2.3,4.5C310.9,432.9,310,435.7,306.6,434.2z"/>
	<path class="st2" d="M465.4,350c1.1,1.1,2.4,1.1,3.8,0.9c0.1,2.2,0.2,4.3,0.2,6.5c0,78,0,156.1,0,234.1c0,2.2,0.2,4.3,0.3,6.5
		c-2.1,0.8-4.1,2.9-6.6,1c-0.2-0.5-0.3-1-0.3-1.6c0.4-3.3,0.2-6.6,0.1-9.9c0-0.6,0-1.2,0-1.8c0-76,0-151.9,0.1-227.9
		C463,355.1,461.3,351.5,465.4,350z"/>
	<path class="st3" d="M144.6,558.4c0.8-0.8,1.6-1.6,2.4-2.4c5.7-6,5.7-6,13.1-1.1c1.1,0.9,0.4,1.9-0.2,2.5c-3,3.1-5.4,6.9-9.6,8.6
		c-1.8-0.7-3.5-1.3-5.6-2.1c-0.2,1.9-0.3,3.4-0.4,5C139.6,565.2,141.4,561.8,144.6,558.4z"/>
	<path class="st4" d="M463.4,598c-0.2,0.3-0.3,0.5-0.3,0.8c-17,8.4-34,16.8-50.9,25.2c-32,16-63.9,32.1-95.8,48.1
		c-2.4,0.7-3-0.9-3.2-2.7c-0.3-2.5-0.5-5,0.7-7.3c1.6-2.1,4-2.9,6.2-4c40.6-20.3,81.2-40.6,121.8-60.9c6.7-3.3,12.8-7.8,20-10
		c0.9,0.1,1.6,0.3,1.9,1.3C463.6,591.7,464.3,594.9,463.4,598z"/>
	<path class="st5" d="M306.6,434.2c2.8,0,3.8-2.1,4.9-4.1c3.2,1.3,2.2,4.1,2.2,6.4c0,29.8,0,59.5,0,89.3c0,43.6,0,87.2,0,130.7
		c0,6.1-0.5,12.3-0.4,18.4c-1.7,2.6-4.3,3.5-7.2,3.9c0.1-2.3,0.4-4.6,0.4-6.9C306.5,592.7,306.5,513.5,306.6,434.2z"/>
	<path class="st6" d="M313.3,675c-1.8-1.8-0.9-4.1-0.9-6.2c0-77.6,0-155.3-0.1-232.9c0-1.9,0.7-4-0.8-5.7c0.7-1.3,1.3-2.7,2-4
		c2.5-0.2,2.5,1.6,2.5,3.3c0,11.1,0,22.1,0,33.2c0,4.5-0.4,8.9,0.2,13.4c0,0.5,0,1.1-0.1,1.6c-0.3,9.4,0,18.8-0.1,28.2
		c-0.1,14.7-0.1,29.4,0,44.2c0,7.3-0.3,14.6,0.2,21.8c0,0.5,0,1-0.1,1.5c-0.5,10.3-0.2,20.6,0.1,30.8c0,0.5,0,1-0.1,1.6
		c-0.1,12.2,0.2,24.4-0.1,36.6c-0.2,6.5,1.3,13.1-0.6,19.6c-0.6,3.5-2.5,7.2,1.1,10.3C315.5,673.3,313.8,673.4,313.3,675z"/>
	<path class="st7" d="M242.2,596.1c2.1,4.6,1.3,9.4,0.4,14c-0.7,3.6-4.3,4.3-7.1,4.5c-2.9,0.2-3.3-2.6-3.4-5.1
		c0-0.8-0.5-1.6-0.8-2.3C233.8,602.3,237.8,599,242.2,596.1z"/>
	<path class="st8" d="M176,562.9c2.7,1.2,5.3,2.5,8,3.7c-0.8,5.9-5.3,8.6-9.9,11.4c-2.6-1.3-5.3-2.7-7.9-4
		C168,569,171.8,565.8,176,562.9z"/>
	<path class="st9" d="M174.1,577.9c2.9-4.1,7.4-6.9,9.9-11.4c2.8,1.3,5.7,2.2,8.1,4.3c-1.4,5.3-5.3,8.5-9.8,11.1
		C179.3,581.1,176.6,579.8,174.1,577.9z"/>
	<path class="st10" d="M251.3,616.8c-2.7-1.3-5.3-2.6-8.3-4c1.9-2.1,3.4-3.9,5-5.6c5.8-6.2,5.8-6.2,13.3-1.5
		C259.3,610.6,256.1,614.4,251.3,616.8z"/>
	<path class="st11" d="M208.9,595.7c-8.6-4.3-8.6-4.3-2.2-11.3c4.4-4.7,4.4-4.7,11.8-0.2C217.1,589.6,213.1,592.8,208.9,595.7z"/>
	<path class="st12" d="M150.2,566c3.3-3.7,6.6-7.4,9.9-11.1c2.9,1,5.7,2.2,8,4.4c-1.5,5.2-5.6,8.1-10,10.7
		C155.5,568.6,152.9,567.3,150.2,566z"/>
	<path class="st9" d="M158.2,569.9c3.3-3.6,6.6-7.1,10-10.7c3.1,0.1,5.5,1.8,7.8,3.6c-3.3,3.7-6.5,7.4-9.8,11.1
		C163.2,573.1,160.6,571.8,158.2,569.9z"/>
	<path class="st13" d="M300.6,625.1c1.9,4.7,1.1,9.7,0.6,14.4c-0.4,3.5-4,4.2-6.9,4.4c-2.8,0.2-3.2-2.3-3.7-4.4
		c-0.3-1.1-0.7-2.2-1-3.2C292.8,632.1,296.5,628.4,300.6,625.1z"/>
	<path class="st14" d="M277.3,613.7c2.9,1,5.7,2.2,8.1,4.1c-2,5-5.4,8.7-10.3,10.9c-2.6-1.3-5.2-2.6-7.8-4
		C269.3,619.9,272.5,616.1,277.3,613.7z"/>
	<path class="st7" d="M199.5,574.2c1.8,4.6,1,9.4,0.5,14c-0.4,3.4-3.7,4.6-6.8,4.6c-2.9,0.1-3.8-2.1-3.8-4.8c0-0.9-0.6-1.8-1-2.7
		C191.5,581.1,195.5,577.6,199.5,574.2z"/>
	<path class="st15" d="M277.3,613.7c-3.3,3.7-6.7,7.4-10,11.1c-2.9-1.4-5.9-2.9-8.8-4.3c3.1-4.1,6-8.5,10.9-10.6
		C272.4,610.6,274.9,612,277.3,613.7z"/>
	<path class="st12" d="M269.4,609.9c-3.8,3.3-6.4,8-10.9,10.6c-2.4-1.2-4.8-2.5-7.1-3.7c3.3-3.7,6.7-7.4,10-11
		C264.2,606.7,267,607.9,269.4,609.9z"/>
	<path class="st14" d="M208.9,595.7c2.2-4.7,6.9-7.2,9.7-11.5c2.7,1.3,5.4,2.6,8.1,4c-1.9,5.2-5,9.2-10.4,10.9
		C213.8,598,211.4,596.9,208.9,595.7z"/>
	<path class="st16" d="M216.2,599.2c3.8-3.3,7.2-7,10.4-10.9c2.6,1.3,5.3,2.7,7.9,4c-2,4.9-4.9,9.1-10.1,11
		C221.5,602.3,218.7,601,216.2,599.2z"/>
	<path class="st15" d="M275.1,628.8c3.4-3.6,6.9-7.3,10.3-10.9c2.9,0.7,5.5,2.1,7.9,3.9c-2,4.9-5.3,8.7-10,11.1
		C280.6,631.5,277.9,630.1,275.1,628.8z"/>
	<path class="st12" d="M199.5,574.2c-3,4.4-6.3,8.6-11.1,11.2c-2.1-1.1-4.1-2.3-6.2-3.4c3.3-3.7,6.6-7.4,9.8-11.1
		C194.5,572,197,573.1,199.5,574.2z"/>
	<path class="st14" d="M224.4,603.3c3.4-3.7,6.8-7.3,10.1-11c2.5,1.3,5.1,2.6,7.6,3.8c-3.6,3.7-7.2,7.4-10.8,11.1
		C229.1,605.9,226.8,604.6,224.4,603.3z"/>
	<path class="st14" d="M283.3,632.9c3.3-3.7,6.7-7.4,10-11.1c2.4,1.1,4.8,2.2,7.2,3.3c-3.1,4.3-6.2,8.6-11.1,11.1
		C287.4,635.1,285.4,634,283.3,632.9z"/>
	<path class="st17" d="M262.3,371.2c0,8.4,0,16.8,0,25.2c-0.2,0-0.3,0-0.5,0c0-8.4,0-16.9,0-25.3C262,371.2,262.1,371.2,262.3,371.2
		z"/>
	<path class="st18" d="M194.9,338c0,8.1,0,16.3,0,24.4c-0.1,0-0.3,0-0.4,0c0-8.1,0-16.3,0-24.4C194.6,338,194.8,338,194.9,338z"/>
	<path class="st19" d="M285.5,407.8c0.7-7.5-0.8-15.2,0.4-22.7C286.4,392.7,286.3,400.2,285.5,407.8z"/>
	<path class="st20" d="M171.1,327.1c0,7.6,0,15.2,0,22.9c-0.1,0-0.3,0-0.4,0c0-7.6,0-15.2,0-22.9
		C170.8,327.1,170.9,327.1,171.1,327.1z"/>
	<path class="st21" d="M315.3,661.9c-1.1-13.8-0.7-27.7-0.5-41.5c0-3.6,0.7-7.5-0.3-11.2c-0.4-1.3-0.6-3,0.9-4.1
		c2.9,3.5,3.2,3.5,5.9-0.6c-2.1-1-3.8,1.8-5.9,0.6c-1.9-7.6-0.5-15.3-0.7-22.9c-0.1-2.9-1.8-6.3,0.7-9.1c2.4,4.5,2.9,4.5,6.2-0.1
		c-2.1-1.4-4.2,2-6.2,0.1c-1.9-7.6-0.4-15.2-0.8-22.9c-0.4-6.8-0.1-13.6-0.1-20.3c0-6.5,0-13,0-19.5c0-6.8-0.3-13.6,0.1-20.3
		c0.3-4.3-1.2-8.7,0.7-12.9c1.6,2.6,3.2,3.7,5.5,0.1c-1.9-0.9-3.9,1.5-5.5-0.1c-1.9-7.6-0.4-15.3-0.8-22.9
		c-0.4-6.8,0.3-13.6-0.3-20.4c-0.2-2.5,2.7-5.5-0.8-7.6c15.4-31.3,30.8-62.5,46.2-93.8c9-18.3,18-36.7,27-55c2.9-6,3-6,7.6-1
		c0.4,0.5,0.8,1.1,1.1,1.6c-0.8,2-3.9,1.8-4.2,4.6c2.9,0.9,4.2-1.9,6.2-2.6c3,2.3,5.6,5.1,8,8c0.5,2.7-3.4,2.5-3.1,5.2
		c2.6,1.2,4.4-3.2,7.1-1.2c0.3,0.3,0.7,0.7,1,1c0.8,2.8-3,2.8-3.1,5.5c2.7,1.3,4.5-2.4,7.1-1.4c7.4,7.6,14.7,15.3,22.1,22.9
		c0.8,2.3-2.4,2.9-2.1,5.2c2.3,1.1,3.8-2.2,6.1-1.2c0.3,0.3,0.7,0.7,1,1c1.8,2.7-2.6,3.1-1.9,5.5c2.1,1,3.9-1.7,6.1-0.7
		c5.6,5.1,11,10.4,15.9,16.2c1.1,1.2,0.7,2.4-0.1,3.6c-0.6,0.8-1.6,1.9-0.9,2.7c4,5-0.5,6.1-3.5,7.9c-0.7,0.4-1.4,0.9-1.5,1.9
		c0.6,1.1,1.4,0.5,2.1,0.3c1.4-0.5,2.8-1.7,4.1-0.2c1.2,1.5,0.1,2.8-0.7,4c-0.4,0.6-0.9,1.4-0.6,1.8c4.5,5.6-1.2,6.4-4,8.5
		c-0.5,0.4-1,0.9-0.8,1.7c0.7,0.7,1.5,0.3,2.2,0c1.2-0.5,2.5-1.4,3.7-0.2c1.3,1.4,0.4,2.8-0.4,4c-0.4,0.5-1.1,1.3-0.7,1.8
		c4,5.7-1.6,6.8-4.4,9.2c-0.3,0.2-0.4,0.6-0.3,0.9c0.9,1,1.8,0.1,2.7-0.1c1.1-0.3,2.3-0.8,3.2,0.3c0.9,1.1,0.2,2.2-0.3,3.2
		c-0.5,0.9-1.4,2-0.8,2.7c3.6,4.9-0.5,6.2-3.5,8.2c-0.6,0.4-1.1,0.7-1.3,1.5c0.8,1.3,1.7,0.2,2.6,0.1c3.7-0.7,4.2-0.1,3.2,3.3
		c-0.2,0.6-0.7,1.2-0.7,1.8c-0.5,6.4-0.5,6.4-5,10.8c0.8,1.3,1.7,0.2,2.6,0.1c3.7-0.7,4.3-0.1,3.1,3.4c-0.2,0.6-1,1.4-0.7,1.8
		c4.1,6.3-2,7.8-5.2,10.3c0.7,1.6,1.5,0.9,2.2,0.7c4.4-1,4.8-0.6,3.5,3.5c-0.1,0.5-0.7,1.1-0.5,1.4c3.8,6-1.5,7.6-4.8,10.2
		c-0.3,0.2-0.3,0.6-0.2,1c1.2,0.7,2.2-0.3,3.2-0.5c2.5-0.5,3.8,0.4,2.7,2.9c-0.9,2-1.1,3.6,0.1,5.6c1.1,1.8-0.6,3-2,4
		c-1.5,1.1-3.8,1.4-4.2,3.8c1.3,1,2.2-0.1,3.3-0.3c2.9-0.5,3.8,0.5,2.7,3.3c-0.3,0.6-1,1.4-0.7,1.8c3,5.7-1.6,7.7-5,10.2
		c-0.3,0.2-0.3,0.6-0.2,1c0.9,1,1.8,0.1,2.7-0.1c3.7-0.7,4.2-0.2,3,3.4c-0.3,0.8-1.1,1.7-0.7,2.3c3.5,5.3-1,6.9-4.2,9.1
		c-0.4,0.3-0.7,0.7-0.8,1.3c0.9,1.1,1.8,0.1,2.6-0.1c3.6-0.7,4.2-0.1,3,3.5c-0.2,0.6-1,1.4-0.7,1.8c3.7,5.9-1.8,7.1-4.7,9.7
		c-0.3,0.2-0.3,0.6-0.4,1c0.8,1.3,1.7,0.3,2.6,0.1c3.9-0.8,4.5-0.2,3,3.6c-0.6,1.6-0.7,2.8,0.4,4.1c1,1.3,0.6,2.5-0.4,3.6
		c-1.8,1.7-4.9,1.8-6,4.9c2.2,0.8,3.9-1.3,5.7-0.7c0.1,0.1,0.4,0.2,0.4,0.2c-0.1,3.9,0.3,7.7-0.2,11.6c-1.8,1.7-4.9,1.8-6,4.9
		c2.2,0.8,3.9-1.3,5.8-0.7c0.1,0.1,0.4,0.2,0.4,0.2c-0.1,3.9,0.3,7.7-0.2,11.6c-1.8,1.7-4.9,1.8-6,4.9c2.2,0.8,3.9-1.3,5.8-0.7
		c0.1,0.1,0.4,0.1,0.4,0.2c-0.1,3.9,0.3,7.7-0.2,11.6c-1.6,1.4-3.9,1.8-5.3,3.4c-0.3,0.4-0.6,0.8-0.3,1.7c1.9,0.7,3.7-1.7,5.7-0.8
		c0.9,0.7,1.1,1.5,0.5,2.5c-15.7,8.8-31.9,16.5-47.9,24.6C380.8,629.2,348,645.5,315.3,661.9z"/>
	<path class="st22" d="M460.3,549c0.1-0.1,0.2-0.4,0.2-0.4c-2.5-3.5-1-7-0.2-10.6c-0.8-1.7-0.1-3.3,0-5c0.2-0.6,0.7-1.7,0.7-1.8
		c-4.9-2.8-1.6-5.6,0.2-8.2c-1.7-1.2-2.7,0.3-3.8,0.5c-1.3,0.3-2.7,2.4-3.8,0.3c-0.8-1.7-0.4-3.6,1.6-4.7c0.9-0.4,1.9-0.8,2.6-1.4
		c1.3-1.1,5.5-1.1,1.2-4.4c-2.7-2.1,1.6-4.1,2-6.5c-1.9-1-3,0.7-4.4,1.1c-1,0.3-2.2,1.7-3,0.1c-0.6-1.1-0.7-2.7,0.6-3.7
		c1.2-0.9,2.7-1.3,3.9-2.2c1.5-1.1,5.1-1.6,1-4.7c-2.9-2.2,1.9-4.2,1.9-6.7c-1.7-0.7-2.6,0.6-3.9,0.9c-1.2,0.3-2.5,2.1-3.4,0.4
		c-0.9-1.6-0.6-3.6,1.3-4.8c1.1-0.7,2.4-1.2,3.5-1.8c1.6-1,4.2-1.3,0.7-3.9c-3.1-2.3,1.7-4.3,1.7-6.8c-1.6-0.9-2.5,0.6-3.7,0.8
		c-1.2,0.2-2.7,2.5-3.7,0.2c-0.7-1.5-0.4-3.4,1.3-4.4c1.3-0.8,2.7-1.3,4-2.1c1.6-0.9,3.5-1.4,0.5-3.6c-3.3-2.5,1.5-4.3,1.7-6.7
		c-1.7-1.2-2.7,0.6-4,0.9c-1.1,0.3-2.5,2-3.4,0.2c-0.7-1.5-0.5-3.3,1.5-4.2c1.1-0.5,2.2-0.9,3.1-1.6c1.6-1.2,5-2.1,0.8-4.6
		c-1.3-0.8-0.8-1.9,2-6.5c-1.6-1.3-2.6,0.5-3.9,0.8c-1.2,0.2-2.5,2-3.4,0.3c-0.8-1.5-0.6-3.3,1.4-4.2c1.1-0.5,2.2-0.9,3.1-1.6
		c1.5-1.2,5.4-2,0.9-4.6c-1-0.6-0.8-1,1.8-6.9c-1.7-0.6-2.7,0.9-4.1,1.3c-1,0.3-2.2,1.7-3,0.2c-0.7-1.3-0.8-3,0.8-4
		c1.3-0.8,2.8-1.2,3.9-2.1c1.4-1.1,4.5-1.7,0.7-4.4c-3-2.2,1.9-4.2,1.8-6.8c-1.8-0.7-2.8,0.8-4.2,1.1c-1,0.3-2.2,1.7-3,0.3
		c-0.8-1.3-0.8-2.9,0.7-4c1-0.7,2-1.1,3.1-1.7c2.9-1.6,2.7-1.5,1.1-4.5c-1.5-2.9,1.4-4.7,2.7-6.9c-2-1.2-3.1,0.5-4.4,0.8
		c-1.1,0.3-2.4,2-3.3,0c-0.6-1.3-0.6-3,1.2-3.9c1-0.5,2.3-0.9,3-1.7c1.1-1.1,5.9-1.3,1-4.3c-1.4-0.9-0.5-3.7,1.6-5
		c0.8-0.5,1.2-1.3,0.6-2.1c-0.7-1-1.4-0.1-2.1,0.2c-1.6,0.7-3.6,3.3-5.1,0.9c-1.6-2.6,0.7-4,3-5.1c3.3-1.6,3.1-1.6,1.8-5
		c-0.6-1.5-0.4-3.3,1.3-4.5c0.9-0.6,1.8-1.3,1.2-2.4c-0.8-1.3-1.6,0-2.5,0.3c-1.6,0.6-3.4,3.3-4.9,0.4c-1.3-2.5,0.9-3.8,3-4.8
		c1.2-0.5,2.4-1.2,3.5-1.8c0.8-0.4,1.5-1.7,0.9-1.9c-6.6-2.8-0.5-5.1,0.2-7.6c0.1-0.5,0.1-1,0.1-1.5c1.4,0.6,2.3,1.7,3.1,2.9
		c-0.8,1.9-0.6,3.9-0.6,5.9c0,75.7,0,151.5,0,227.2c0,1.6-0.4,3.3,0.4,4.9c0,0.3,0,0.7,0,1c-0.3,0.5-0.6,0.5-1,0
		c-0.6,0.1-1.2,0.1-1.8,0.2c-0.1-0.9-0.2-1.7-1.1-2.2c-0.8-1.7-0.1-3.3,0-5c0.1-0.1,0.2-0.4,0.2-0.4c-2.5-3.5-1-7-0.2-10.6
		c-0.8-1.7-0.1-3.3,0-5c0.1-0.1,0.2-0.4,0.2-0.4c-2.5-3.5-1-7-0.2-10.6C459.5,552.3,460.2,550.7,460.3,549z"/>
	<path class="st21" d="M464.2,587c-1.5-1.5-0.9-3.5-0.9-5.2c0-75.9,0-151.8,0-227.7c0-1.7-0.7-3.7,1-5.2c0.3,0.3,0.7,0.7,1,1
		c-1.9,1.8-1,4.1-1,6.2c-0.1,74.8,0,149.6,0,224.4C464.3,582.7,464.3,584.8,464.2,587z"/>
	<path class="st23" d="M409.3,292c-2.2,0.1-3.3,2.1-5.3,2.6c-1.1,0.3-2.4,2-3.4,0.3c-0.8-1.4-0.6-3.3,1-4.5c1.2-0.9,2.4-1.6,3.7-2.4
		C407,289,408.3,290.3,409.3,292z"/>
	<path class="st24" d="M414.2,297.1c-1.7,1-3.4,2.1-5.1,3c-1.1,0.6-2.6,1.6-3.4,0c-0.7-1.5-0.7-3.2,1.2-4.3c1.3-0.7,2.8-1.1,3.4-2.7
		C411.6,294.4,412.9,295.7,414.2,297.1z"/>
	<path class="st23" d="M397.3,280c0,2.3-1.8,3-3.4,3.7c-1.4,0.6-3.1,2.4-4.2,0.3c-1.1-1.9-0.3-3.8,2-4.7c1.2-0.5,2.4-0.9,3.6-1.3
		C396,278.7,396.7,279.3,397.3,280z"/>
	<path class="st24" d="M440.3,324.1c-1.2,0.8-2.4,1.7-3.7,2.3c-1.2,0.5-2.7,2.3-3.8,0.7c-1-1.5-0.7-3.5,1.1-4.7c1-0.6,2-1.1,2.4-2.3
		C438,321,439.3,322.3,440.3,324.1z"/>
	<path class="st25" d="M445.4,329.9c-1,0.5-2,1.2-3.1,1.5c-1.5,0.5-3.3,2.8-4.7,0.5c-1.2-1.9-0.2-3.8,2-4.7c1-0.4,1.6-1.1,1.6-2.2
		C442.7,326.7,444,328.3,445.4,329.9z"/>
	<path class="st26" d="M463.3,588c0.3,0,0.6,0,1,0c-0.2,3.4,1.1,6.8-0.8,10C463.4,594.7,463.3,591.4,463.3,588z"/>
	<path class="st27" d="M420.4,505c-0.7,1.6-1.4,3.3-2.1,4.9c-2.9,5-6.8,9.1-12.1,11.3c-3.5,1.5-5.3,4-6.7,7.4
		c-1.9,4.6-4.3,8.9-9.2,11.2c-1.3,0.6-2.2,2.2-3.9,2.1c-3,1.3-5.7,0.2-7.8-1.8c-2.5-2.4-4.5-1.9-7-0.1c-1.9,1.5-4,3.3-6.8,1.9
		c-1.2-6.6-5.6-7.9-11.4-7.2c-0.9,0.1-1.9-0.4-2.9-0.7c-1.5-0.5-2.7-1.4-4-2.2c-7.8-4-9-11.3-8.3-18.8c1-10.7,5.8-20,12.8-28.2
		c1.6-1.9,3.4-3.7,5.3-5.3c4.1-3.5,7-7.6,8.6-13c1.7-5.9,5.8-10.8,10.5-15c1.6-1.4,3.3-2.9,5.8-2.1c2.2,3.1,1.8,8.1,7,8.6
		c-0.9-4.2-5.8-8.5-0.3-13c2.2-0.5,4.2-0.5,5.3,2c0.4,2.6,1,5,3.1,7.1c3.4,3.4,2.7,6.8-1.5,9.4c-5.3,3.1-10.8,6-15.1,10.5
		c-4.4,4.6-8,10-13.5,13.5c-1.1,0.7-1.9,1.8-2.6,3c-1.6,2.7-2.7,5.5-1.4,8.5c1.4,3.1,4.5,2.2,7,2.5c1.2,0.5,2.1,1.4,2.5,2.7
		c0.2,1.9-1,3.5-1.5,5.2c-1.5,4.7,0,7,4.9,7.4c8.4,0.6,15.5-3,22.5-6.9c6.4-3.6,12.1-8.1,17.1-13.5c1.7-1.9,3-3.9,4.1-6.2
		c1.9-4.3,1.5-5.8-2.6-7.9c-1.2-0.6-2.4-1.1-2.7-2.7c0.6-5.3,1.9-10.4,1.4-15.8c-0.4-4.9-1.4-6.2-6.1-4.9c-4.6,1.3-6.7,0.3-8.9-4.4
		c-2.4-5.2-5.5-9.4-1.7-15c3.5-3.2,7.2-5.9,11.7-7.4c9.4-3.1,15.6,0.4,17,10.1c0.6,4.4,1.8,5.4,6.2,4.8c6.1-0.8,10.5,2.3,12.2,7.1
		c0,0.3,0,0.6,0,1c0.5,2.5-0.2,5.1-1.9,6.4c-5.7,4.7-6.4,11.6-8.7,17.9c-2.5,7.1-5.1,14-11.8,18.4
		C420.2,499.5,420.4,502.3,420.4,505z"/>
	<path class="st28" d="M350.1,533.2c3.9,0.2,7.7,1.6,11.7,0c1.8-0.7,2.6,0.7,2.6,2.5c0,2.1-0.3,4.3,1,6.2c0.3,0.2,0.5,0.4,0.4,0.6
		c-0.1,0.2-0.2,0.3-0.3,0.3c-7,3.7-14.4,6.2-22.3,4.9c-8.6-1.5-13.2-7.4-14.8-15.8c-1.4-1.6-1.2-3.2-0.1-4.9c-0.2-7,1.4-13.7,4-20.2
		c-0.5-1.3,0-2.2,1.1-2.9c1-1.5,2-3,3-4.5c2.2-3.3,3.2-6.4,2.3-10.9c-1.8-9.2,1.8-17.6,7.4-24.9c2-2.6,4.1-5.1,6.2-7.7
		c2.1-2.6,4.7-4.4,8-5c2.8,0.2,4.9-1.6,7.3-2.7c1.6-0.7,3-1.7,2.6-3.7c-0.5-2.4-2.1-1.2-3.5-1c-1.2,0.1-1.2-0.8-1.4-1.6c0,0,0,0,0,0
		c3.3-4.3,6.7-8.7,10-13c1.1-2.7,3.5-4,6-5c4.2-1.3,8.1-3.8,12.7-4c2.2-0.1,4.3-0.2,6.3,1l0,0c0.2,0.9-0.7,2.7,1.5,2.2
		c1.8-0.4,3,0.4,3.5,2c1.5,5,3.4,2.5,5.7,0.6c6.7-5.6,14.3-8.8,23.2-8.9c2.9,0,5.5,1.1,8.2,1.9c0.3-0.2,0.6-0.2,0.8,0.1
		c10.4,11.1,7.7,24,2,35c-4.1-5.3-9.2-7.1-15.8-5.3c-2.1,0.6-3.7,1.1-3.6-2.9c0.4-9.5-4.4-17.4-17.2-12c-3.6,1.5-6.3,4.2-9.6,6.1
		c-2.1-0.8-1.5,1.3-2.1,2.1c-1.5,2.1-1.4,5.4-4.7,6.1c-0.6-3.2-3.2-1.7-5-2.1c-2.1-2.3-0.9-4.7-0.1-6.7c-2.3,3.2-1.8,8.1-5.8,10.7
		c-9,3.3-12.8,11-16,19.1c-1.2,3-1.7,5.9-4.6,8.3c-10.7,8.9-18.5,19.8-21.1,33.9c-1.6,8.5,1.3,16.5,7.7,19.6
		c-0.9,1.4-2.6,1.1-3.8,1.9C348,536.5,348,536.5,350.1,533.2z"/>
	<path class="st29" d="M420.4,505c-1.5-2.1-3.3-4.2-0.2-6.3c8-5.4,12.9-13.4,14.2-22.5c1.3-8.8,8.5-13.6,11-21.3
		c3.4,6,2.5,12.5,0.8,18.6c-1.2,4.4-3.8,8.3-5.8,12.5c0.3,2.5-1.4,3.7-3.1,4.9c-4.9,3-8.7,7.3-12.9,11.1c-0.7,1.3-1.5,2.5-3,3
		C421,505,420.7,505,420.4,505z"/>
	<path class="st30" d="M390.3,540c4-4.7,7.9-9.4,9.7-15.4c0.3-0.9,0.3-2.1,1.5-2.4c7.2-1.8,11.4-7.8,16.7-12.2c0,1.3,0,2.7,0,4
		c0.2,2-0.2,3.8-2,5c-1.2,1.1-1.8,2.4-1.9,4.1c0.2,3-2.2,4.3-4,6c-3.3,3-6.6,6-10,9c-0.4,2.5-1.8,3-4,2
		C394.3,540.3,392.3,541.7,390.3,540z"/>
	<path class="st31" d="M365.4,542.9c0-0.3,0-0.6,0-0.9c3.2-0.5,5.6-2.6,8-4.6c1.6-1.4,2.9-1.4,4.1,0.2c2.2,3.1,5.6,3.7,8.9,4.4
		C379.7,548.3,372.3,548.6,365.4,542.9z"/>
	<path class="st32" d="M339.3,428.5c-0.1,2.2-6.1,6.8-7.8,6c-2-1-1.4-3-0.5-4.2c1.6-2.2,4.3-3,6.8-3.8
		C339.7,425.9,338.9,428,339.3,428.5z"/>
	<path class="st32" d="M355.3,381c-0.2,1.9-6.7,6.4-8,5.5c-1.6-1.2-1.3-3.3-0.2-4.3c1.8-1.6,4.1-2.8,6.4-3.6
		C355.7,377.8,355.1,379.9,355.3,381z"/>
	<path class="st33" d="M332.1,594.5c-1.4,0.2-1.7-0.6-1.7-1.5c-0.1-1.3-0.1-2.8,1.2-3.5c2.1-1.1,4.1-3.2,6.7-2.6
		c1.2,0.2,1.3,2,0.8,3C337.7,593,334.3,593,332.1,594.5z"/>
	<path class="st32" d="M337.1,634.1c2.1,0.1,2.3,1.3,2,2.5c-0.9,3.6-4.2,4.3-7.1,5.2c-1.5,0.5-1.8-1.2-1.5-2.4
		C331.3,635.7,335.1,635.8,337.1,634.1z"/>
	<path class="st34" d="M421.3,505c0.7-1.3,1.2-2.9,3-3c1.6,0.4,3.8-2.6,4.9,0.7c0.7,2.1-2.9,5.6-6.1,5.8
		C420.2,508.7,421.8,506.2,421.3,505z"/>
	<path class="st35" d="M371.1,572.1c-0.1,2.2-5.2,6.2-7.3,5.8c-1.3-0.3-1.4-1.2-1.4-2.3c0.1-2,5.7-5.9,7.6-5.4
		C371,570.5,371.2,571.2,371.1,572.1z"/>
	<path class="st36" d="M348.9,564.3c0.4,4.7-2.3,8.1-5.9,8.3c-0.8,0-1.4-0.1-1.5-0.8c-0.3-1.5-0.6-3.1,0.9-4.1
		C344.3,566.5,346.4,565.6,348.9,564.3z"/>
	<path class="st35" d="M450.4,492.5c0,1.8-5.2,6.4-6.9,6c-0.4-0.1-0.9-0.5-1-0.9c-0.3-1.7-0.3-3.4,1.2-4.5c1.7-1.3,3.5-2.6,5.7-2.6
		C450.5,490.5,450.3,491.7,450.4,492.5z"/>
	<path class="st37" d="M428.9,564.3c0.5,4.7-2.2,8.1-5.9,8.4c-0.8,0.1-1.4-0.1-1.5-0.8c-0.3-1.5-0.6-3.2,0.8-4.1
		C424.2,566.5,426.4,565.6,428.9,564.3z"/>
	<path class="st36" d="M376.3,321.9c0,2.1-5,6.2-6.9,5.6c-0.4-0.1-0.8-0.6-0.9-0.9c-0.3-1.5-0.5-3.1,1-4c1.9-1.2,3.8-2.7,6.2-2.7
		C376.6,319.9,376.2,321.2,376.3,321.9z"/>
	<path class="st38" d="M347.9,562.6c-0.8,0.2-1.3-0.2-1.4-0.9c-0.2-1.3-0.5-2.8,0.7-3.7c1.7-1.2,3.7-2.1,5.6-3
		c0.7-0.3,1.4-0.2,1.5,0.6c0.1,1.1,0.1,2.3-0.1,3.4C353.9,559.7,348.8,562.6,347.9,562.6z"/>
	<path class="st39" d="M381.3,343.6c-0.1,2.1-4.9,5.9-6.8,5.7c-1.5-0.2-1.1-1.4-1.1-2.2c-0.1-2.1,4.9-6.2,6.9-5.7
		C381.6,341.7,381.1,342.9,381.3,343.6z"/>
	<path class="st40" d="M416.7,599.3c-0.5-4.2,2-7.4,5.8-7.8c0.8-0.1,1.4,0,1.6,0.7c0.3,1.5,0.6,3.2-0.8,4.1
		C421.3,597.7,419.3,599,416.7,599.3z"/>
	<path class="st36" d="M384.7,583.3c-0.5-4.2,1.9-7.4,5.8-7.8c1.1-0.1,1.6,0.1,1.7,1.1c0.2,1.5,0.3,3.1-1.2,4
		C389,581.7,387.1,583.1,384.7,583.3z"/>
	<path class="st40" d="M423,399.4c0.8,0.1,1.1,0.5,1.2,1.3c0.1,1.5,0.1,3-1.2,4.1c-1.7,1.3-3.6,2.7-5.7,2.7c-1.6,0-1-1.8-1-2.8
		C416.4,403.4,421.8,399.3,423,399.4z"/>
	<path class="st36" d="M332.9,548.8c0.4,4.2-2.1,7.5-5.8,7.8c-0.8,0.1-1.4,0-1.6-0.7c-0.3-1.4-0.6-3.1,0.8-4.1
		C328.3,550.4,330.4,549.1,332.9,548.8z"/>
	<path class="st40" d="M400.9,551.7c-0.7-4.3,2.6-8.5,6-8.3c0.8,0.1,1.2,0.4,1.3,1.1c0.2,1.5,0.4,3.1-1.2,4
		C405.1,549.7,403,550.6,400.9,551.7z"/>
	<path class="st40" d="M432.8,551.7c-0.5-4.6,2-7.8,5.8-8.2c0.8-0.1,1.4,0,1.6,0.7c0.3,1.5,0.6,3.2-0.8,4.1
		C437.3,549.6,435.1,550.5,432.8,551.7z"/>
	<path class="st36" d="M337.6,615.3c-1,0.1-1.3-0.5-1.3-1.2c-0.1-1.8-0.3-3.9,2-4.5c1.9-0.5,4-3.8,5.7-1.1c1.6,2.6-0.9,4.4-3.4,5.4
		C339.6,614.3,338.5,614.9,337.6,615.3z"/>
	<path class="st36" d="M407.9,303.2c0.4,4.7-2.4,8.1-6,8.3c-0.8,0-1.3-0.1-1.5-0.8c-0.3-1.5-0.5-3.2,0.9-4.1
		C403.3,305.4,405.4,304.5,407.9,303.2z"/>
	<path class="st41" d="M315.3,573c1.4-0.5,2.7-1.2,4.1-1.5c1.2-0.3,2.6-2.4,3.6-0.1c0.7,1.5,0.4,3.4-1.3,4.3c-1.8,1-3.8,1.9-5.7,2.8
		C314.8,576.6,315.5,574.7,315.3,573C315.3,573,315.3,573,315.3,573z"/>
	<path class="st38" d="M384.4,555c1.4-0.5,1.9,0,1.9,1c0,1.4,0.5,3.1-1.2,4c-2,1-3.8,2.8-6.2,2.4c-0.3-0.1-0.7-1.8-0.5-2.7
		C379.1,556.2,382.6,556.4,384.4,555z"/>
	<path class="st42" d="M327.9,636.8c-2.1,0.2-2.5-0.8-2.5-2.1c0.2-4,4-3.9,6.4-5.2c1.2-0.7,1.5,0.8,1.5,1.8
		C333.6,635.6,329.5,635.2,327.9,636.8z"/>
	<path class="st23" d="M349.3,631.4c-0.1,2.1-5.7,5.9-7.1,5.1c-0.4-0.3-0.7-1-0.8-1.6c-0.4-2.4,4.4-6.4,6.7-5.6
		C349.4,629.6,349.2,630.7,349.3,631.4z"/>
	<path class="st23" d="M397.4,295.6c-0.5,3.8-3.7,4.3-6.2,5.1c-1.9,0.6-2.1-1.3-1.8-2.6c0.7-3.4,4-3.6,6.4-4.6
		C397.7,292.8,396.9,295,397.4,295.6z"/>
	<path class="st23" d="M375.5,316.8c-1.9,0.1-2.2-0.9-2.2-2.2c0.3-4,4-4,6.4-5.1c1.6-0.7,1.5,1.3,1.5,2.3
		C381.1,315.6,377.5,315.4,375.5,316.8z"/>
	<path class="st23" d="M397.4,311.6c-0.5,3.8-3.6,4.3-6.1,5.1c-1.9,0.6-2.1-1.3-1.9-2.6c0.6-3.5,4-3.6,6.4-4.6
		C397.7,308.8,396.9,311,397.4,311.6z"/>
	<path class="st23" d="M411.4,309.4c2.3,0.1,2,1.5,1.9,2.6c-0.3,3.6-3.6,3.9-6.1,4.8c-1.5,0.5-1.9-1-1.8-2.2
		C405.6,310.4,409.9,311.3,411.4,309.4z"/>
	<path class="st23" d="M381.4,327.5c-0.3,3.8-3.5,4.2-6,5.2c-1.8,0.7-2.2-1-2-2.4c0.5-3.6,3.9-3.6,6.3-4.7
		C381.4,324.7,381.1,326.7,381.4,327.5z"/>
	<path class="st23" d="M397.4,327.5c-0.3,3.8-3.5,4.2-6,5.2c-1.8,0.7-2.2-1-2-2.4c0.5-3.6,3.9-3.6,6.3-4.7
		C397.4,324.7,397.1,326.7,397.4,327.5z"/>
	<path class="st23" d="M429.3,327.7c-0.1,3.6-3.4,3.9-5.8,5c-1.7,0.7-2.3-0.8-2.2-2.3c0.4-3.7,3.8-3.6,6.2-4.8
		C429.2,324.7,429.2,326.4,429.3,327.7z"/>
	<path class="st34" d="M433,330.7c1.4-0.1,1.3,0.8,1.4,1.6c0.2,2.5-4.3,6.8-6.7,6.2c-2.1-0.5-1.5-2.6-1-3.7
		C427.8,332.2,430.9,332.1,433,330.7z"/>
	<path class="st23" d="M365.4,343.8c-0.1,3.6-3.4,3.9-5.9,4.9c-1.7,0.7-2.3-0.9-2.1-2.3c0.4-3.6,3.9-3.6,6.2-4.8
		C365.3,340.7,365.2,342.5,365.4,343.8z"/>
	<path class="st23" d="M429.4,344c-0.5,3.4-3.6,3.9-6.1,4.7c-1.9,0.6-2.1-1.3-1.8-2.6c0.7-3.4,4-3.6,6.4-4.6
		C429.5,340.9,429.1,342.8,429.4,344z"/>
	<path class="st23" d="M443.6,341.4c2.1,0.1,1.8,1.5,1.7,2.5c-0.3,3.7-3.6,3.9-6.1,4.8c-1.5,0.6-1.9-1-1.8-2.2
		C437.7,342.6,441.7,343.1,443.6,341.4z"/>
	<path class="st40" d="M417.9,346.3c1.7,5.6-2.5,6.6-5.6,8.1c-0.9,0.4-1.7,0.2-1.8-0.9c-0.2-1.5-0.3-3.1,1.2-4
		C413.6,348.3,415.7,347.4,417.9,346.3z"/>
	<path class="st40" d="M449.8,346.3c0.6,4.4-1.8,7.7-5.6,8.2c-1,0.1-1.6-0.1-1.7-1.1c-0.2-1.5-0.3-3.1,1.2-4
		C445.6,348.3,447.7,347.4,449.8,346.3z"/>
	<path class="st23" d="M349.4,375.9c-0.3,3.5-3.5,3.9-6,4.8c-1.8,0.7-2.2-1.1-2-2.5c0.5-3.5,3.9-3.6,6.3-4.7
		C349.4,372.8,349.2,374.7,349.4,375.9z"/>
	<path class="st39" d="M413.3,375.3c-0.1,2.4-4.6,5.8-6.5,5.5c-0.7-0.1-1.2-0.5-1.3-1.2c-0.2-1.5-0.4-3.1,1.4-3.8
		c1.9-0.8,3.6-2.6,5.9-2.2C413.1,373.6,413.2,375,413.3,375.3z"/>
	<path class="st39" d="M359.4,396.8c-1.8,0.2-2.1-1-2-2.2c0.3-4,4-3.9,6.5-5.1c1.3-0.7,1.4,0.9,1.5,1.9
		C365.5,393.6,362,396.7,359.4,396.8z"/>
	<path class="st39" d="M391.6,412.7c-1.9,0.3-2.3-0.7-2.2-2c0.1-4.1,4-3.9,6.3-5.2c1.2-0.7,1.5,0.7,1.6,1.7
		C397.6,411.5,393.7,411.2,391.6,412.7z"/>
	<path class="st39" d="M349.3,438.9c0.1,2.7-4.5,6.5-6.6,5.9c-0.4-0.1-1-0.5-1.1-0.8c-0.3-1.4-0.8-3.1,0.9-4c2-1,3.8-2.8,6.3-2.4
		C349.1,437.7,349.2,438.8,349.3,438.9z"/>
	<path class="st23" d="M445.3,519.8c-0.1,3.2-3.5,3-5.5,4.4c-0.6,0.4-1.6,0.9-2.1-0.1c-0.7-1.4-0.8-3.1,0.4-4.1
		c1.7-1.5,3.7-2.9,6.1-2.7C445.3,517.4,445.2,518.5,445.3,519.8z"/>
	<path class="st36" d="M328.2,527.1c0,1.6,0,3.2,0.1,4.9c-2.5,1.2-4.7,2.9-7.7,3.4C319.5,529.1,324.4,528.5,328.2,527.1z"/>
	<path class="st36" d="M422.6,527.5c1-0.2,1.5,0.2,1.6,0.9c0.2,1.3,0.5,2.8-0.7,3.7c-1.7,1.2-3.6,2.2-5.6,3c-2,0.9-1.6-1-1.6-1.9
		C416.5,529.1,420.3,529,422.6,527.5z"/>
	<path class="st43" d="M429.3,535.2c-0.1,2.2-5.6,6-7.1,5.3c-0.3-0.1-0.6-0.4-0.6-0.7c-0.3-1.7-0.6-3.5,1.2-4.4c1.8-1,3.5-2.8,5.8-2
		C429,533.6,429.2,534.8,429.3,535.2z"/>
	<path class="st44" d="M445.4,535.6c-0.2,3.8-3.5,4.1-5.9,5.1c-1.8,0.7-2.2-0.9-2.1-2.4c0.4-3.6,3.9-3.6,6.2-4.8
		C445.3,532.7,445.2,534.5,445.4,535.6z"/>
	<path class="st42" d="M333.4,647.8c-0.4,3.7-3.6,4.1-6.3,5c-1.5,0.5-1.8-1.2-1.7-2.3c0.3-3.7,3.8-3.6,6.2-4.8
		C333.2,644.7,333.2,646.4,333.4,647.8z"/>
	<path class="st34" d="M416.6,551.3c-1.1-5.3,2.7-6.3,5.7-7.8c0.8-0.4,1.7-0.2,1.9,0.9c0.2,1.5,0.4,3.1-1.1,4
		C421.1,549.7,419.2,551,416.6,551.3z"/>
	<path class="st43" d="M375,556.7c-2-0.2-1.7-1.6-1.6-2.7c0.4-3.6,3.6-4,6.2-4.7c1.9-0.5,1.9,1.5,1.7,2.7
		C380.5,555.4,376.9,555.1,375,556.7z"/>
	<path class="st44" d="M407.5,556.8c-2.1,0-2.3-1.2-2.1-2.4c0.4-3.9,4.1-3.9,6.6-5c1.5-0.6,1.4,1.4,1.3,2.5
		C412.9,555.7,409.4,555.4,407.5,556.8z"/>
	<path class="st23" d="M429.3,551c0,2.2-5.2,6.1-6.9,5.6c-0.3-0.1-0.7-0.3-0.7-0.5c-0.5-1.6-0.7-3.5,0.9-4.4c1.9-1.1,3.6-3.2,6.2-2
		C429.2,549.8,429.2,550.8,429.3,551z"/>
	<path class="st23" d="M445.3,551.7c-0.1,1.7-5.8,5.6-7.2,4.8c-0.4-0.3-0.7-1.1-0.8-1.6c-0.4-2.4,4.5-6.4,6.8-5.6
		C445.4,549.7,445.2,550.7,445.3,551.7z"/>
	<path class="st34" d="M352.6,567.3c-1.1-5.3,2.7-6.3,5.7-7.8c0.8-0.4,1.7-0.2,1.9,0.9c0.2,1.5,0.4,3.1-1.1,4
		C357.1,565.7,355.2,567,352.6,567.3z"/>
	<path class="st34" d="M384.9,567.6c-0.5-4.3,2.4-8.2,5.8-8.2c0.8,0,1.3,0.2,1.4,1c0.2,1.5,0.3,3-1,4.1c-0.4,0.3-0.8,0.5-1.3,0.7
		C388.2,566,386.6,566.8,384.9,567.6z"/>
	<path class="st34" d="M432.7,567.8c-0.2-4.7,2.2-7.9,5.7-8.3c0.8-0.1,1.4-0.1,1.6,0.6c0.4,1.5,0.6,3.2-0.8,4.1
		C437.4,565.5,435.3,566.4,432.7,567.8z"/>
	<path class="st43" d="M363,565.2c1.7-0.3,2.3,0.5,2.3,1.9c0,4.2-3.9,3.9-6.2,5.3c-1.2,0.7-1.6-0.5-1.7-1.6
		C357,566.7,360.8,566.7,363,565.2z"/>
	<path class="st44" d="M397.4,567.7c-0.4,3.7-3.6,4.2-6.3,5c-1.6,0.5-1.8-1.2-1.7-2.3c0.4-3.7,3.8-3.6,6.2-4.8
		C397.2,564.7,397.2,566.4,397.4,567.7z"/>
	<path class="st44" d="M445.4,567.5c-0.4,3.9-3.6,4.3-6,5.2c-1.8,0.7-2.1-1.1-1.9-2.5c0.5-3.6,4-3.6,6.3-4.7
		C445.5,564.7,445,566.8,445.4,567.5z"/>
	<path class="st34" d="M416.9,583.6c-0.6-4.3,2.4-8.2,5.8-8.2c0.8,0,1.3,0.2,1.4,0.9c0.2,1.5,0.4,3.1-1.1,4.1
		C421.2,581.6,419.1,582.5,416.9,583.6z"/>
	<path class="st34" d="M349.3,583.4c-0.1,2.1-5.8,5.9-7.2,5.1c-0.4-0.3-0.7-1-0.8-1.6c-0.4-2.4,4.5-6.4,6.8-5.6
		C349.4,581.7,349.2,582.8,349.3,583.4z"/>
	<path class="st23" d="M397.3,583.2c-0.1,2.2-5.6,6-7.1,5.3c-0.3-0.1-0.6-0.4-0.6-0.7c-0.3-1.7-0.6-3.5,1.2-4.4c1.8-1,3.5-2.8,5.8-2
		C397,581.6,397.2,582.8,397.3,583.2z"/>
	<path class="st23" d="M413.3,583.2c-0.1,2.2-5.6,6-7.1,5.3c-0.3-0.1-0.6-0.4-0.6-0.7c-0.3-1.7-0.6-3.5,1.2-4.4c1.8-1,3.5-2.8,5.8-2
		C413,581.6,413.2,582.8,413.3,583.2z"/>
	<path class="st23" d="M423,588.6c-2-0.2-1.7-1.6-1.6-2.6c0.4-3.6,3.6-3.9,6.1-4.8c1.5-0.5,1.9,1,1.8,2.2
		C428.9,587.5,425,586.9,423,588.6z"/>
	<path class="st23" d="M445.3,583.7c-0.1,1.6-5.1,5.2-6.7,4.9c-1.1-0.2-1.1-1-1.2-1.8c-0.3-2.4,4.6-6.4,6.8-5.6
		C445.4,581.7,445.2,582.7,445.3,583.7z"/>
	<path class="st45" d="M418,586.7c1.5,5.2-2.5,6.2-5.7,7.7c-0.9,0.4-1.6,0.1-1.8-0.9c-0.2-1.5-0.3-3.1,1.2-4
		C413.6,588.3,415.5,586.9,418,586.7z"/>
	<path class="st45" d="M359.9,591.7c1.6,5.2-2.4,6.2-5.6,7.7c-0.8,0.4-1.7,0.2-1.8-0.9c-0.2-1.5-0.4-3.1,1.1-4
		C355.5,593.3,357.5,592,359.9,591.7z"/>
	<path class="st34" d="M432.7,599.3c-1.5-5.2,2.5-6.2,5.7-7.7c0.9-0.4,1.7-0.2,1.8,0.9c0.2,1.5,0.4,3.1-1.2,4
		C437.1,597.7,435.2,599,432.7,599.3z"/>
	<path class="st34" d="M349.3,599c0.1,2.2-5.2,6.1-6.9,5.6c-0.3-0.1-0.7-0.3-0.7-0.5c-0.5-1.6-0.7-3.5,0.9-4.4
		c1.9-1.1,3.6-3.2,6.2-2C349.2,597.8,349.2,598.8,349.3,599z"/>
	<path class="st42" d="M375.4,604.8c-2.1-0.1-2.1-1.3-2.1-2.5c0-1.6,5-5.3,6.7-5c1.7,0.3,1.4,1.7,1.2,2.8
		C380.8,603.7,377.3,603.5,375.4,604.8z"/>
	<path class="st23" d="M397.3,599c0.1,2.2-5.2,6.1-6.9,5.6c-0.3-0.1-0.7-0.3-0.7-0.5c-0.5-1.6-0.7-3.5,0.9-4.4
		c1.9-1.1,3.6-3.2,6.2-2C397.2,597.8,397.2,598.8,397.3,599z"/>
	<path class="st23" d="M407.2,604.6c-2.1,0.1-1.9-1.3-1.8-2.3c0.2-3.7,3.5-3.9,6-4.9c1.4-0.6,2,0.8,1.9,2
		C413.1,603.4,409.1,602.8,407.2,604.6z"/>
	<path class="st23" d="M429.4,600.1c-1.1,3-4.1,3.5-6.6,4.4c-1.6,0.6-1.4-1.4-1.4-2.4c0.1-2,4.7-5.4,6.6-4.9
		C429.5,597.6,429.2,598.9,429.4,600.1z"/>
	<path class="st42" d="M418,602.7c1.6,5.2-2.5,6.2-5.6,7.7c-0.9,0.4-1.7,0.2-1.8-0.9c-0.2-1.5-0.4-3.1,1.1-4
		C413.6,604.3,415.5,603,418,602.7z"/>
	<path class="st34" d="M352.7,615.8c-0.2-4.7,2.3-7.9,5.8-8.3c0.8-0.1,1.4,0,1.6,0.7c0.4,1.5,0.6,3.2-0.8,4.1
		C357.4,613.5,355.3,614.5,352.7,615.8z"/>
	<path class="st34" d="M384.7,615.3c-1.5-5.2,2.5-6.2,5.7-7.7c0.9-0.4,1.7-0.2,1.8,0.9c0.2,1.5,0.4,3.1-1.2,4
		C389.1,613.7,387.2,615,384.7,615.3z"/>
	<path class="st43" d="M349.3,615.8c-0.1,3.1-3.5,3-5.5,4.4c-0.6,0.4-1.6,0.9-2.1-0.1c-0.7-1.4-0.8-3.1,0.4-4.1
		c1.7-1.5,3.7-2.9,6.1-2.7C349.3,613.4,349.2,614.5,349.3,615.8z"/>
	<path class="st23" d="M365.3,615.8c-0.1,3.2-3.5,3-5.5,4.4c-0.6,0.4-1.6,0.9-2.1-0.1c-0.7-1.4-0.8-3.1,0.4-4.1
		c1.7-1.5,3.7-2.9,6.1-2.7C365.3,613.4,365.2,614.5,365.3,615.8z"/>
	<path class="st23" d="M378.7,613.3c1.9-0.3,2.5,0.5,2.5,1.9c0,4.2-3.9,3.9-6.2,5.3c-1.2,0.7-1.6-0.5-1.7-1.6
		C373,614.6,376.9,614.8,378.7,613.3z"/>
	<path class="st23" d="M397.3,615.8c-0.1,3.1-3.5,3-5.5,4.4c-0.6,0.4-1.6,0.9-2.1-0.1c-0.6-1.4-0.8-3.1,0.5-4.1
		c1.7-1.4,3.7-2.9,6.1-2.6C397.3,613.5,397.3,614.6,397.3,615.8z"/>
	<path class="st45" d="M385.9,618.3c1.2,4.3-0.8,6.1-3.6,7.2c-1.1,0.5-2.6,2.5-3.7,0.2c-0.7-1.5-0.4-3.4,1.3-4.4
		C381.7,620.2,383.7,619.4,385.9,618.3z"/>
	<path class="st42" d="M359.8,623.4c0.5,4.3-2.4,8.2-5.9,8.2c-0.8,0-1.3-0.2-1.4-1c-0.2-1.5-0.4-3.2,1.1-4.1
		C355.5,625.4,357.6,624.5,359.8,623.4z"/>
	<path class="st34" d="M428.6,561.8c-1.9,0.1-2.4-0.9-2.1-2.2c0.6-3.4,3.7-4.1,6.2-5.1c1.8-0.7,1.7,1.1,1.6,2.2
		C434.2,560.6,430.6,560.4,428.6,561.8z"/>
	<path class="st34" d="M434.4,572.9c-0.3,3.5-3.5,3.9-6,4.9c-1.5,0.6-2.1-0.8-1.9-2.1c0.6-3.4,3.6-4.1,6.2-5.1
		C434.4,569.9,434.2,571.6,434.4,572.9z"/>
	<path class="st46" d="M434.4,541c-0.5,3.4-3.6,3.9-6.2,4.7c-1.5,0.5-2-1-1.7-2.2c0.7-3.3,3.7-4.1,6.3-5
		C434.6,537.9,434.1,539.8,434.4,541z"/>
	<path class="st26" d="M460.3,533c1.9,1.7,0.7,3.3,0,5c-1,0.5-2,1.2-3.1,1.5c-1.2,0.3-2.6,2.5-3.7,0.2c-0.7-1.5-0.4-3.4,1.3-4.4
		C456.6,534.4,458.5,533.8,460.3,533z"/>
	<path class="st40" d="M370.4,604.7c-0.1,2.1-4.9,5.8-6.8,5.1c-1.2-0.4-1.3-1.5-1.1-2.4c0.9-3.4,4-4.1,6.7-4.9
		C370.5,602.1,370.3,603.8,370.4,604.7z"/>
	<path class="st42" d="M440.3,514.6c-0.8,3.2-3.8,4.1-6.6,4.9c-1.6,0.5-1.4-1.5-1.3-2.5c0.3-3.6,3.6-3.8,6-4.8
		C439.9,511.7,440.3,513.1,440.3,514.6z"/>
	<path class="st26" d="M460.3,565c1.9,1.7,0.7,3.3,0,5c-1,0.5-2,1.2-3.1,1.5c-1.2,0.3-2.6,2.5-3.7,0.1c-0.7-1.5-0.4-3.4,1.3-4.4
		C456.6,566.4,458.5,565.8,460.3,565z"/>
	<path class="st34" d="M448.5,586.5c1.7-0.3,1.8,0.7,1.8,1.7c0.2,4.2-3.4,4.4-6,5.5c-1.1,0.5-1.9-0.4-1.9-1.6
		C442.6,588.2,446.1,587.9,448.5,586.5z"/>
	<path class="st34" d="M424.2,353.5c0.2,2.5-4.8,6.6-6.8,6c-0.4-0.1-0.9-0.6-1-0.9c-0.3-1.5-0.5-3.2,1-4.1c1.8-1.1,3.5-2.7,5.9-2.2
		C423.8,352.5,424.1,353.4,424.2,353.5z"/>
	<path class="st26" d="M460.3,581c1.9,1.7,0.7,3.3,0,5c-1,0.5-2,1.2-3.1,1.5c-1.2,0.3-2.6,2.5-3.7,0.2c-0.7-1.5-0.4-3.4,1.3-4.4
		C456.6,582.4,458.5,581.8,460.3,581z"/>
	<path class="st47" d="M315.3,605c1.3-0.6,2.6-1.4,4-1.9c1.2-0.5,2.7-2,3.7,0.1c0.7,1.5,0,3-1.3,3.9c-1.7,1.2-3.6,3-5.6,2.4
		C314.4,608.9,315.6,606.5,315.3,605C315.3,605,315.3,605,315.3,605z"/>
	<path class="st26" d="M460.3,549c1.9,1.7,0.7,3.3,0,5c-1,0.5-2,1.2-3.1,1.5c-1.2,0.3-2.6,2.5-3.7,0.2c-0.7-1.5-0.4-3.4,1.3-4.4
		C456.6,550.4,458.5,549.8,460.3,549z"/>
	<path class="st34" d="M385,330.7c1.8,0.2,1.4,1.4,1.3,2.2c-0.4,3.4-3,4.5-5.9,5c-1.5,0.2-2.2-0.8-2-2.1
		C379.1,332.1,382.9,332.3,385,330.7z"/>
	<path class="st34" d="M354.4,620.8c-0.2,3.5-3.3,3.9-5.8,4.8c-1.2,0.5-2.2-0.9-2.1-2.1c0.5-3.3,3.6-4,6.1-5
		C354.4,617.8,354.2,619.5,354.4,620.8z"/>
	<path class="st23" d="M349.3,551.2c0,2.1-5.4,6-7,5.4c-0.3-0.1-0.6-0.3-0.7-0.6c-0.4-1.6-0.7-3.5,1.3-4.2c2-0.7,3.2-3.7,5.9-2.1
		C349.2,550,349.2,550.9,349.3,551.2z"/>
	<path class="st23" d="M333.4,504c-0.4,1-0.7,1.9-1.1,2.9c-1.1,0.3-2.2,0.5-3.3,0.8c-1.1,0.2-2.5,2-3.3,0.1c-0.7-1.5-0.5-3.8,1.5-4
		C329.1,503.7,331.6,497.6,333.4,504z"/>
	<path class="st39" d="M320.7,488.1c-1.3-7,4-6.7,7-9.2C329.8,485.9,323.9,485.3,320.7,488.1z"/>
	<path class="st45" d="M416.3,519c0.4-1.8,0.8-3.6,2-5c1.8-0.8,3.6-1.6,5.4-2.5C424.5,516.8,421.6,519.5,416.3,519z"/>
	<path class="st34" d="M354.4,605c-0.5,3.4-3.5,3.9-6,4.6c-1.2,0.3-2.1-1.1-1.8-2.3c0.8-3.2,3.8-4,6.3-4.8
		C354.6,601.9,354.1,603.8,354.4,605z"/>
	<path class="st40" d="M443.3,419c-0.3,0-0.6-0.1-0.8-0.1c-1.4-6,3.4-6.6,7.3-8.5c1.1,2.9,0.6,4.8-2.2,6.1
		C446.1,417.1,444.7,418.1,443.3,419z"/>
	<path class="st34" d="M402.4,588.8c-0.2,3.5-3.4,3.9-5.8,4.8c-1.2,0.5-2.2-0.9-2-2.1c0.5-3.3,3.6-4,6.1-5
		C402.4,585.8,402.2,587.5,402.4,588.8z"/>
	<path class="st34" d="M396.3,540c1.6-0.2,2.9-0.8,4-2c3.2,1,2.5,3.4,1.1,4.9c-1.4,1.6-3.7,3.6-5.9,2.4
		C392.7,543.6,395.6,541.7,396.3,540z"/>
	<path class="st34" d="M395.5,418.6c-0.8-0.1-1.1-0.7-1.1-1.4c-0.1-1.5-0.1-3.1,1.4-3.9c1.9-1,3.8-1.9,5.9-2.5
		c0.7-0.2,0.6,1.3,0.6,2.1C402.2,414.4,397,418.8,395.5,418.6z"/>
	<path class="st34" d="M384.8,602.4c1.9,0.1,1.6,1.5,1.5,2.5c-0.4,3.6-3.5,4-6,4.7c-1.2,0.3-2-1.1-1.7-2.4
		C379.4,604,382.5,603.6,384.8,602.4z"/>
	<path class="st23" d="M429.3,358.9c0.1,2.3-5.2,6.2-6.9,5.6c-0.4-0.1-0.8-0.6-0.9-1c-0.3-1.5-0.4-3.1,1.4-3.8
		c1.9-0.8,3.5-2.6,5.8-2.2C429.1,357.7,429.2,358.7,429.3,358.9z"/>
	<path class="st34" d="M381.4,424c-1.3,2.5-4,3.3-6,5c-2.5-0.3-2.4-2.3-1.8-3.7c1.2-2.5,4-3.2,6.5-3.9
		C381.6,421.1,381.1,423,381.4,424z"/>
	<path class="st43" d="M336.8,439.3c-0.3-3.5,3.4-7.8,6.4-7.6c0.9,0.1,1.1,0.5,1.1,1.2c0.1,1.4,0.1,2.8-1.2,3.6
		C341.1,437.6,339.2,439,336.8,439.3z"/>
	<path class="st34" d="M376.1,399.1c1,6.8-4.1,6.5-7.4,8.5C367.3,401.2,372.7,401.5,376.1,399.1z"/>
	<path class="st48" d="M427.5,405.4c1.9-0.2,1.9,1,1.8,1.9c-0.2,4-4,3.9-6.4,5.1c-1.3,0.7-1.5-0.9-1.5-1.9
		C421.6,406.6,425.6,407.2,427.5,405.4z"/>
	<path class="st23" d="M413.3,406.9c0.1,2.3-5,6.3-6.8,5.7c-0.4-0.1-0.9-0.6-0.9-0.9c-0.2-1.3-0.5-2.8,0.9-3.5c2-1,3.8-2.8,6.3-2.5
		C413,405.6,413.2,406.7,413.3,406.9z"/>
	<path class="st43" d="M437.3,490.9c0.1-2.3,2.3-3.1,3.1-4.9c1.6,0.6,3.6-2,4.7,0.3c0.7,1.5,0.3,3.6-1.7,3.9
		C441.4,490.6,439.7,495,437.3,490.9z"/>
	<path class="st43" d="M375.5,412.4c-1.7,0.5-2.1-0.3-2.1-1.5c-0.1-4.3,3.8-3.9,6.1-5.4c1.2-0.7,1.7,0.4,1.8,1.5
		C381.5,411.4,377.2,410.7,375.5,412.4z"/>
	<path class="st23" d="M365.3,442c-1.7,0.7-3.3,1.3-5,2c-0.8,0.3-1.9,1.3-2.6,0.2c-0.4-0.7-0.6-2.1-0.2-2.8c1.3-2.5,4.1-3.7,6.4-3.8
		C366.4,437.5,364.9,440.5,365.3,442C365.3,442,365.3,442,365.3,442z"/>
	<path class="st39" d="M448.7,583.4c-1.9-5.9,2.7-6.3,6.1-8C456.7,581.6,452.3,582,448.7,583.4z"/>
	<path class="st46" d="M385.8,410.3c1.7,5.6-2.4,6.1-5.4,7.5c-0.8,0.4-1.6,0-1.9-1c-0.4-1.2-0.2-2.4,0.8-3.1
		C381.3,412.5,383.4,411.6,385.8,410.3z"/>
	<path class="st34" d="M418.3,362.3c0,1.6,0.2,2.4,0,3.2c-0.8,3.1-3.7,3.3-6,4.3c-0.8,0.3-1.6-0.2-1.7-1.2c-0.5-3.2,2.2-3.6,4.1-4.7
		C415.6,363.4,416.6,363,418.3,362.3z"/>
	<path class="st34" d="M444.7,513.8c-1.7,0.2-2.4-0.7-2.2-2c0.6-3.6,4.2-3.7,6.7-5c1-0.5,1.2,0.6,1.2,1.5
		C450.5,512.4,446.8,512.3,444.7,513.8z"/>
	<path class="st39" d="M448.7,551.4c-1.9-5.9,2.7-6.3,6.1-7.9C456.7,549.6,452.3,550,448.7,551.4z"/>
	<path class="st34" d="M360.3,451c-2.3,2.2-5.1,3.6-8,5c-0.7-3.9,1.2-5.9,4.6-7.5C360.3,447,360.6,448.4,360.3,451z"/>
	<path class="st39" d="M455.4,386.5c-0.3,3.7-3.3,4.1-5.6,5c-1.8,0.6-1.5-1.2-1.5-2.2c0-3.5,3.2-3.9,5.5-4.7
		C455.7,383.8,455,385.8,455.4,386.5z"/>
	<path class="st34" d="M410.3,529c0.2-2.8,3-3.8,4-6c1.2,0.6,3.1-1.6,3.8,0.6c0.6,1.9,0,3.7-2.1,4.5
		C414.2,528.7,412.6,531.2,410.3,529z"/>
	<path class="st49" d="M448.8,519.6c-1.5-4.5,1.2-6.1,4.3-7.3c1.4-0.5,2.2,0.2,2.2,1.7C455.3,518.5,451.3,518,448.8,519.6z"/>
	<path class="st40" d="M400.4,421c0.4-4.2,4.8-3.4,6.9-6.1c1.4,2.3,1.4,4-0.1,5.7C405.1,423.1,402.7,421.5,400.4,421
		C400.4,421,400.4,421,400.4,421z"/>
	<path class="st23" d="M315.3,477c2.1-0.8,4.2-1.6,6.5-2.4c1.8,4.7-1.7,6.2-4.7,6.7C313.8,481.8,316.1,478.4,315.3,477L315.3,477z"
		/>
	<path class="st49" d="M455.4,450.5c0,3.4-3.3,3.4-5.4,4.6c-1.4,0.8-1.6-0.3-1.7-1.4c-0.2-3.9,3.1-4.3,5.5-5.3
		C455.2,447.9,455.2,449.3,455.4,450.5z"/>
	<path class="st4" d="M392.4,448.1c1.9-3.2,3.8-6.3,5.7-9.5c0.3-0.4,0.6-1.4,1.1-0.1c0.1,0.4,0,1,0,1.4c-1.8,4.4-3.4,8.8,1.9,12.2
		c2.3,1.5,1.2,4.3,1.4,6.6c3-0.6,5.7-1.3,8.4-1.6c3.4-0.4,5.3,1,5.3,4.8c0,6.1,0.3,12.3-2,18.2c-0.4,0.9,0.1,1.9-0.2,2.8
		c-4.8,11.6-12.9,19.4-25.1,22.8c-3.9,1.1-7.9,0.8-10.8-2c-2.9-2.9-5.6-2.8-8.9-1.6c-2.7,0.6-5.6,1.9-7.8-1c-2.2-2.9-1.4-6-0.2-9
		c0.9-2.4,2.3-4.5,4.3-6c10.3-7.5,17.1-19.2,29.6-23.9c3-1.1,3.1-5.1,0.1-7.2C392.7,453,391.9,451,392.4,448.1z"/>
	<path class="st50" d="M369.3,502c2.7-2.9,4.7-4.4,8.3-0.2c4.1,4.8,10,3.7,15.2,1.4c9.8-4.2,16.3-11.6,20.5-21.3
		c5.5-0.5,7.7,2.5,5.7,7.9c-1.4,3.9-4.1,6.8-7.1,9.5c-8.5,7.8-17.9,13.8-29.3,16.4c-2.1,0.5-4.3,0.7-6.4,0.4
		c-5.3-0.8-7.3-4.1-5.5-9.2c0.3-0.9,0.9-1.8,0.8-2.8C370.5,503.7,369.7,503,369.3,502z"/>
	<path class="st51" d="M371.5,504.1c0.8,0.4,0.7,1,0.5,1.7c-1.9,7.3-0.2,10.2,7.1,9.1c16-2.4,29-10.4,38.1-23.9
		c3.3-5,1.5-8.4-3.8-9.1c0.3-0.6,0.6-1.2,0.9-1.9c8.1,3,9.6,6.5,4.2,13.5c-10.2,13.2-23.6,21.8-40.3,24.5c-3.2,0.5-7.1,0.9-9.1-2.4
		c-2.1-3.4-0.3-6.7,1.5-9.8C370.9,505.3,371.2,504.7,371.5,504.1z"/>
	<path class="st52" d="M381.4,450c1.5-4.3,3.1-8.7,6.8-12.8c-0.4,3.4-1.4,6.1-0.9,8.8c-2.2,5.5,1.1,9.7,3.9,14.1
		C383.6,459.3,381.4,457,381.4,450z"/>
	<path class="st53" d="M362.5,510.9c2.6,4.6-0.9,7.5-3.3,10.4c-1.5,1.9-3.6,4.2-6.6,1.8c1.7-4.6,6.6-7,8.2-11.6
		C361.2,510.9,361.7,510.4,362.5,510.9z"/>
	<path class="st54" d="M350.1,533.2c0.4,2,0.1,3.9-1.5,5.9c-2.3-2.4-4.4-4.8-7.9-5.2c1.6-3.3,4.3-2.7,6.7-2.9
		C348.3,531.6,349.2,532.4,350.1,533.2z"/>
	<path class="st55" d="M362.5,510.9c-0.4,0.3-0.7,0.6-1.1,1c-3.3,3.4-4.8,8.5-10,10c0-4.6,2.7-7.7,5.9-10.5
		C358.8,510.1,360.6,509,362.5,510.9z"/>
	<path class="st56" d="M351.4,521.9c4.3-2.4,5.8-7.6,10-10c-1.6,4.8-4.9,8.2-8.8,11.2C352.2,522.7,351.8,522.3,351.4,521.9z"/>
	<path class="st57" d="M342.7,543c-3.2,0.1-4.6-1.3-4.5-4.2c0.1-1.3-0.1-3.5,1.4-3.2c2.8,0.6,5,3.1,6,5.5
		C346.4,542.8,343.9,542.9,342.7,543z"/>
	<path class="st50" d="M379.4,480.9c-1.3-0.1-2.4,0.1-2.9-1.1c-0.5-1.1,0.1-2,0.7-2.7c4.7-5.6,10.9-10.8,17.5-11.6
		c4.9-0.6,5.9-5.8,10.6-5.1c2.4,0.4,5.9-2.7,7.3,0c1.5,2.8-2.1,4.8-4.1,6.5c-7.9,6.2-16.7,10.9-26.5,13.4
		C381,480.5,380.1,480.8,379.4,480.9z"/>
	<path class="st50" d="M373.3,490.4c0.8,4.2-0.5,7.2-4.6,8.8c-3.6,1.4-6.5-0.7-5.9-4.5c0.4-2.7,1.7-5.1,3.7-6.9
		c1.6-1.4,3.4-3.4,5.6-2.6C374.5,486,372.8,488.7,373.3,490.4z"/>
</g>
</svg>
