<?xml version="1.0" encoding="utf-8"?>
<!-- Generator: Adobe Illustrator 19.0.0, SVG Export Plug-In . SVG Version: 6.00 Build 0)  -->
<svg version="1.1" id="Calque_1" xmlns="http://www.w3.org/2000/svg" xmlns:xlink="http://www.w3.org/1999/xlink" x="0px" y="0px"
	 viewBox="0 0 612 792" style="enable-background:new 0 0 612 792;" xml:space="preserve">
<g>
	<path d="M507.1,387.4c0,85.5,0,170.6,0,256.1c-102,0-203.7,0-305.9,0c0-85.9,0-171.8,0-257.9c-3.8-1.3-7.2-2.4-10.6-3.6
		c-42.5-15.6-70.3-58.6-66.3-102.4c4.4-47.8,38.3-85.3,84.6-92.6c12.7-2,25.9-1.3,38.8-2.1c2.3-0.2,5.1-1.4,6.6-3.2
		c60.3-73.1,173.1-60.3,214.8,24.7c1.8,3.6,3.9,4.6,7.6,4.5c13.1-0.2,26.3-0.8,39.2,2.5c41.5,10.6,69.3,47.4,67.8,89.8
		c-1.5,41.3-32.1,75.9-74.2,83.6C509,387,508.3,387.2,507.1,387.4z M252,339.2c0,33.4,0,66.1,0,99c68.1,0,136,0,204.1,0
		c0-16.9,0-33.4,0-49.9c0-16.6,0-33.2,0-50.4c2.8,0,5.1,0,7.3,0c12.3-0.2,24.7,0.5,36.9-1c19.3-2.3,33.7-22,31.4-41
		c-2.5-20.9-19.9-35.5-40-34.9c-19.6,0.7-39.3,0.3-59,0.3c-0.6,0-1.2-0.3-2.2-0.6c-0.2-2-0.4-4-0.5-5.9
		c-2.4-37.1-35.3-68.8-72.5-69.8c-34-0.9-61.8,17.3-74.9,48.8c-0.7,1.6-2.8,3.6-4.3,3.6c-16.5,0.2-33,0.8-49.5,0
		c-28.4-1.5-53.3,20.7-54.1,49.1c-0.8,29.2,22.2,52.8,51.5,52.9C234.8,339.2,243,339.2,252,339.2z M455.7,593c0-25,0-49.3,0-73.7
		c-68.1,0-135.8,0-203.5,0c0,24.8,0,49.2,0,73.7C320.2,593,387.8,593,455.7,593z"/>
</g>
</svg>
