<?xml version="1.0" encoding="utf-8"?>
<!-- Generator: Adobe Illustrator 19.0.0, SVG Export Plug-In . SVG Version: 6.00 Build 0)  -->
<svg version="1.1" id="Calque_1" xmlns="http://www.w3.org/2000/svg" xmlns:xlink="http://www.w3.org/1999/xlink" x="0px" y="0px"
	 viewBox="0 0 612 792" style="enable-background:new 0 0 612 792;" xml:space="preserve">
<style type="text/css">
	.st0{fill:#353535;}
	.st1{fill:#EDE3D1;}
	.st2{fill:#58B69F;}
	.st3{fill:#F5B921;}
	.st4{fill:#67C8B9;}
	.st5{fill:#67C7B8;}
	.st6{fill:#67C7B9;}
</style>
<g>
	<path class="st0" d="M313.6,653c-72.8,0-145.6,0-218.4,0c-17.9,0-32.2-14.4-32.2-32c0.1-31.6,0-63.3,0-94.9
		c0-114.3,0-228.6,0-342.9c0-7.4,2.8-10.2,10.3-10.2c137,0,273.9,0,410.9,0c8.2,0,10.8,2.5,10.8,10.6c0,5.7,0.2,11.3-0.1,17
		c-0.2,3.4,0.6,4.5,4.3,4.5c11-0.3,22-0.1,33-0.1c8.3,0,10.8,2.5,10.8,10.6c0,95.6,0,191.3,0,286.9c0,46.2,0,92.3,0,138.5
		c0,9.9-2.1,12-12,12C458.5,653,386.1,653,313.6,653C313.6,653,313.6,653,313.6,653z"/>
	<path class="st1" d="M79,593.3c0-26.2,0-51.7,0-77.2c0-107.1,0-214.3-0.1-321.4c0-5,1.4-5.8,6-5.8c92.1,0.1,184.3,0.2,276.4,0
		c5,0,5.9,1.4,5.8,6.1c-0.3,21.2-0.1,42.3-0.2,63.5c0,4.1,0.5,7.6,4.6,9.7c4.2,2.1,7.3,0,10.5-2.3c7.3-5.5,14.7-10.9,21.9-16.6
		c2.5-1.9,4-1.7,6.4,0.1c7.1,5.5,14.4,10.8,21.5,16.3c3.3,2.5,6.5,4.7,10.9,2.4c4-2.1,4.4-5.8,4.4-9.8c-0.1-21.5,0.1-43-0.1-64.5
		c0-4.1,1.1-5,5-4.8c7.2,0.3,14.3,0.4,21.5,0c4.4-0.2,5.8,0.8,5.8,5.5c-0.2,47.8-0.1,95.6-0.1,143.5c0,81.8,0,163.6,0.1,245.4
		c0,4.4-1,5.7-5.6,5.7c-124.6-0.1-249.3-0.1-373.9-0.2C92.5,588.9,85.7,589.6,79,593.3z"/>
	<path class="st2" d="M308.7,637c-70.8,0-141.7,0-212.5,0c-7,0-12.3-2.7-15.5-8.9c-2.9-5.7-2.3-11.4,1.5-16.5
		c3.5-4.7,8.4-6.7,14.3-6.7c72.5,0.1,145,0,217.5,0c56.7,0,113.3,0,170,0c8.6,0,11-2.4,11-10.9c0-122.3,0.1-244.7-0.1-367
		c0-5.2,1.4-6.5,6.4-6.2c6.8,0.4,13.7,0.4,20.5,0c4.7-0.3,5.4,1.4,5.4,5.6C527,296,527,365.5,527,435c0,65.2,0,130.3,0,195.5
		c0,7.3,0.9,6.5-6.3,6.5C450,637,379.4,637,308.7,637z"/>
	<path class="st3" d="M431,245c-6.5-4.9-12.3-9.1-17.9-13.5c-4.2-3.2-8.1-3.2-12.2,0.1c-5.6,4.4-11.4,8.6-17.9,13.4
		c0-5.8,0-10.7,0-15.6c0-12.2,0-24.3,0-36.5c0-2.5,0.1-4,3.3-3.9c13.8,0.2,27.7,0.1,41.5,0c2.2,0,3.3,0.5,3.2,3
		C430.9,209.3,431,226.6,431,245z"/>
	<path class="st0" d="M237.1,294.1c9.1,8.7,15.6,18.4,17.4,30.7c0.5,3.5,1.1,7.2,0.1,10.4c-1.6,5.1,0.5,8,4.1,11
		c6,5.1,11.7,10.4,17.3,15.9c2.4,2.3,4,2.3,6.1-0.1c1.1-1.3,2.4-2.3,3.7-3.4c5.7-4.6,10.7-9,8.3-18c-1.6-6.1,2-12,6.5-16.6
		c16.7-16.8,33.5-33.4,50.2-50.3c2-2,3.1-2.1,5.1-0.1c9,8.7,9,8.6,0.2,17.4c-7.4,7.4-14.7,15-22.3,22.2c-3.2,3-3,4.8,0.2,7.3
		c2.3,1.9,4.5,4,6.4,6.3c2.1,2.5,3.4,2.1,5.5-0.1c9.4-9.7,19.1-19.1,28.5-28.7c2.2-2.2,3.4-2.6,5.9-0.2c8.6,8.5,8.7,8.4,0.2,16.8
		c-7.7,7.7-15.2,15.5-23.1,22.9c-2.9,2.7-2.6,4.3,0.2,6.6c2.4,2,4.7,4.3,6.7,6.7c2,2.5,3.4,2.1,5.5-0.1c9.3-9.5,18.9-18.8,28.2-28.4
		c2.4-2.5,3.8-3.2,6.6-0.2c8,8.4,8.1,8.3,0,16.4c-14.3,14.3-28.6,28.4-42.7,42.8c-7.2,7.3-15.4,10.2-25.4,7.8
		c-0.6-0.2-1.3-0.3-1.9-0.3c-0.8,0-12.9,12.8-13,13.6c-0.2,1.2,0.8,1.7,1.5,2.4c14.4,13.2,28.7,26.3,43.5,39.8
		c7.3-11.1,12-23,14.6-35.8c2.6-12.9,2.8-25.8,0.2-38.7c-0.6-2.9,0.1-4,3.2-4.7c12.4-2.6,12.3-2.8,13.8,9.9
		c3.1,27.5-2.9,52.9-17.4,76.3c-1.9,3-2,4.7,0.9,7c3.8,3,7.3,6.4,10.7,9.8c14.1,13.7,14.2,35.9,0.4,49.8
		c-13.8,13.9-36,13.9-49.8-0.1c-5.1-5.2-10-10.7-14.9-16.2c-1.7-1.9-3.1-2.7-5.9-1.6c-28.7,11.1-57.5,11.2-86.2,0
		c-2.5-1-3.9-0.7-5.6,1.2c-4.6,5.3-9.4,10.4-14.2,15.5c-14.3,15-36.6,15.5-50.8,1.2c-14.2-14.3-13.6-36.5,1.4-50.8
		c3.3-3.1,6.5-6.2,10-9.1c2.4-2,2.5-3.5,0.8-6.2c-12.7-19.9-18.8-41.7-18.5-65.3c0.1-9.5,1.4-18.9,4-28.1c0.8-2.8,0.4-4.9-1.1-7.4
		c-8.9-14.4-14-29.8-11-47c3-17.4,16.2-28.7,33.9-29.8c11.4-0.7,22.2,1.6,32.5,6.5c3.4,1.6,5.9,1.5,9.2-0.1
		c32.2-15.4,65-16.5,98.2-3.5c4.2,1.6,6.7,3.2,3.3,7.9c-1.9,2.7-2.4,7.1-4.8,8.4c-1.9,1-5.6-1.8-8.6-2.9
		c-25.2-8.8-50.3-8.3-75.1,1.7C238.9,293.2,238.3,293.5,237.1,294.1z"/>
	<path class="st0" d="M455,412.9c0,33.8-0.1,67.7,0.1,101.5c0,4.2-1.2,7.3-4.2,10.2c-6.7,6.5-13.3,13.1-19.8,19.8
		c-1.8,1.8-2.8,2-4.8,0.1c-9.4-8.7-10-9.4-0.4-17.3c10.6-8.7,13.6-18.8,13.4-32.3c-0.8-59.3-0.4-118.6-0.3-178
		c0-3.2-0.8-5.6-3.2-7.8c-5.5-5.1-10.6-10.6-16-15.8c-2-1.9-2.1-3-0.1-5.1c8.7-9,8.6-9.1,17.5-0.2c4.7,4.7,9.4,9.5,14.1,14.1
		c2.6,2.5,3.7,5.2,3.7,8.9C455,344.9,455,378.9,455,412.9z"/>
	<path class="st0" d="M130.2,279.1c1.9,2.2,3.6,4.5,5.6,6.5c4.9,5,4.9,4.9,0.2,9.7c-4.8,4.8-9.6,9.7-14.5,14.5
		c-1.9,1.8-2.5,3.6-2.5,6.1c0.1,64.6,0.1,129.3,0,193.9c0,2.7,0.7,4.6,2.7,6.5c5.7,5.4,11,11.1,16.7,16.5c1.8,1.8,1.9,2.8,0.1,4.8
		c-8.8,9.3-8.7,9.3-17.5,0.5c-4.8-4.8-9.6-9.7-14.5-14.5c-2.3-2.2-3.4-4.7-3.4-7.9c0.1-68.5,0-137,0-205.4c0-2.8,0.6-5.3,2.6-7.3
		c7.2-7.2,14.4-14.4,21.6-21.5C127.8,280.9,128.6,280.3,130.2,279.1z"/>
	<path class="st4" d="M387,494.5c-0.7,7.5-4.2,13.5-11.7,16.8c-7.6,3.3-15.2,2-21-4.2c-14.5-15.4-28.7-31-43.1-46.6
		c-25.1-27.4-50.2-54.8-75.3-82.1c-0.7-0.7-1.3-1.5-2.1-2.2c-3.1-2.6-3.2-4.6,0.5-7.1c3.1-2.1,6.2-4.7,8.3-7.8
		c2.8-4.1,4.6-4,8.1-0.7c17.3,16.2,34.8,32.1,52.2,48.1c25.5,23.4,51,46.9,76.6,70.3C384.2,483,386.9,487.9,387,494.5z"/>
	<path class="st4" d="M166,316c-0.1-18.5,9.5-26.9,27.3-24.8c16.2,1.9,29.8,9.1,39.7,22.4c7.6,10.1,8,20.9,1.6,31.8
		c-4.9,8.3-11.9,14.3-21.2,17.2c-11.5,3.6-21.1-0.6-29.1-8.4C172.8,343.3,166.8,329.7,166,316z"/>
	<path class="st4" d="M191.4,512.9c-8.9,0-16.1-4.8-18.9-12c-3-7.8-1.7-14.9,4.4-20.6c15.9-14.9,32.1-29.6,48.2-44.4
		c6.7-6.2,13.6-12.3,20.2-18.7c2.1-2,3.3-1.9,5.1,0.2c5.2,5.9,10.5,11.6,15.9,17.3c1.7,1.8,1.4,2.8-0.2,4.5
		c-20.7,22.4-41.3,44.9-61.9,67.3C200.3,510.8,195.6,512.8,191.4,512.9z"/>
	<path class="st1" d="M174.9,387.1c-0.3-3.6,0.7-8.8,1.2-14.1c0.2-2.2,0.6-3.9,3.6-1.8c9.9,6.9,20.7,10.4,32.9,8
		c1.7-0.3,2.8,0.5,3.9,1.6c6.2,6.8,12.3,13.5,18.6,20.2c1.6,1.7,1.6,2.7-0.2,4.4c-13.8,12.5-27.6,25.1-41.2,37.8
		c-2.4,2.2-3.1,0.9-4.2-1C179.9,425.6,175.1,407.9,174.9,387.1z"/>
	<path class="st1" d="M244.1,486.8c11.4-12.4,22.1-24.1,32.7-35.7c1.2-1.3,2-2.5,3.9-0.5c10.8,11.9,21.7,23.8,33.1,36.2
		C290.3,495,267.5,495,244.1,486.8z"/>
	<path class="st5" d="M343,374.1c-2.8,0.3-4.7-1.2-6.5-3c-7.8-7.9-15.8-15.7-23.6-23.6c-4.3-4.4-4.3-8.5,0-13c6-6.3,6-6.3,12.1-0.1
		c8.3,8.4,16.7,16.7,25,25c5.7,5.7,5.7,5.7-0.2,11.5C347.9,372.8,345.9,374.5,343,374.1z"/>
	<path class="st6" d="M309,392c-0.7-0.6-1.4-1-2-1.5c-4.7-4.2-9.2-8.6-14-12.7c-1.8-1.6-1.8-2.7,0-4.3c3.9-3.3,7.4-9.1,11.6-9.7
		c4.5-0.7,7.3,6.2,11.2,9.4c1.4,1.2,2.6,2.6,3.9,3.8c1.1,1,1.6,2,0.3,3.3c-3.2,3.4-6.3,6.9-9.4,10.3
		C310.2,391.1,309.7,391.5,309,392z"/>
</g>
</svg>
