<?xml version="1.0" encoding="utf-8"?>
<!-- Generator: Adobe Illustrator 19.0.0, SVG Export Plug-In . SVG Version: 6.00 Build 0)  -->
<svg version="1.1" id="Calque_1" xmlns="http://www.w3.org/2000/svg" xmlns:xlink="http://www.w3.org/1999/xlink" x="0px" y="0px"
	 viewBox="0 0 612 792" style="enable-background:new 0 0 612 792;" xml:space="preserve">
<style type="text/css">
	.st0{fill:#333333;}
	.st1{fill:#B18657;}
	.st2{fill:#E7C9A6;}
	.st3{fill:#D94242;}
	.st4{fill:#40A4A7;}
	.st5{fill:#A23434;}
	.st6{fill:#79593F;}
	.st7{fill:#989898;}
	.st8{fill:#5D4331;}
	.st9{fill:#767676;}
	.st10{fill:#F0D936;}
</style>
<g>
	<path class="st0" d="M580,640c0,3.3,0,6.7,0,10c-0.8,1.9-2.1,3.2-4,4c-140.7,0-281.3,0-422,0c-5.3-1.2-6.8-4.7-7.2-9.9
		c-1.5-21.6-2.7-43.1-4.1-64.7c-1-15.3-1.9-30.5-2.9-45.8c-1.4-21.1-3-42.1-4-63.2c-0.2-3.6-1.4-5.8-5.3-6.7
		c-5.8-1.3-8.4-4.8-8.5-10.8c-0.2-10-0.2-20,0-30c0.2-6.7,3.9-10.5,10.5-11.1c1.3-0.1,2.7-0.2,4-0.1c3.8,0.1,5.5-1.6,5.4-5.4
		c0-4.8-0.1-9.7,0.1-14.5c0.2-8,4-11.8,12.1-12c4.5-0.2,9-0.1,13.5-0.1c30,0,60,0,90,0c3.7,0,7.4-0.3,10.8,1.4c1.1,0.5,2.7,1,3-0.5
		c0.8-3.4,1.8-6.8,1.2-10.3c-0.3-1.6-1.5-2.1-2.9-2.2c-1.3-0.2-2.7-0.1-4-0.1c-35.8,0-71.7,0-107.5-0.1c-4.4,0-7.6,0.7-9.7,5.1
		c-1.6,3.4-4.9,4.8-8.7,4.9c-21.2,0.1-42.3,0.1-63.5,0c-4.9,0-7.1-2.8-8.2-7.1c0-51.7,0-103.3,0-155c1.2-5,4.7-7,9.5-7
		c20.3-0.2,40.6-0.2,60.9,0c4.9,0,8.5,2.5,10.8,6.8c2.2,4,5.2,5,10.5,3.9c4.1-0.9,5.1-4,5.1-7.5c0.2-11.6,0-23.3,0.1-34.9
		c0-5.8-0.1-11.6,0-17.5c0.2-10.9,3.6-15.3,14.1-17.7c3.3,0,6.7,0,10,0c20.3,3.8,32.1,15.2,35.7,34.8c1.1,5.9,0.4,12,0.4,18
		c0.1,5.5,0,11,0,16.5c0.1,7.2,1.4,8.5,8.5,8.6c13.7,0.1,27.3,0,41,0c9.2,0,16.3,4.1,21.9,11c6.4,7.9,7.3,16.5,3.1,25.7
		c-0.4,0.9-0.9,1.8-1.3,2.7c-1.9,4.5,0.2,7.9,5.1,8.4c2.2,0.2,4.3,0.1,6.5,0.1c67.3,0,134.6,0,201.9,0c2.7,0,5.3-0.1,8,0.1
		c5.7,0.4,9.3,3.7,10.2,9.2c3.5,23.7,6.8,47.4,10.2,71c3.6,24.8,7,49.7,10.5,74.5c3.2,22,6.3,44.1,9.4,66.1c3.6,25,7.1,50,10.6,75
		c3.5,24.8,8.1,49.5,8.8,74.7C579.5,639.1,579.8,639.6,580,640z"/>
	<path class="st1" d="M507.3,309.7c-1.6,11.4-3.1,22.6-4.7,33.8c-4.2,29.5-8.4,59-12.6,88.4c-4.5,31.4-9,62.9-13.5,94.3
		c-4.1,29-8.3,58-12.4,86.9c-1,7.2-2.1,14.5-3,21.7c-0.3,2.3-1.3,3.3-3.5,3.1c-0.8-0.1-1.7,0-2.5,0c-60.7,0-121.3,0-182,0
		c-6.2,0-6,0-5.6-6c1.3-17.6,2.4-35.2,3.5-52.8c1.6-23.6,3.2-47.2,4.7-70.8c0.9-13.5,1.7-26.9,2.3-40.4c0.2-4.1,0.9-6.4,5.9-6.2
		c5,0.3,8-3.1,8.1-8.2c0.1-10.3,0.1-20.7,0-31c0-3.2-1.3-5.9-4.2-7.4c-2-1-2.4-2.2-2.1-4.4c2.4-16,4.6-31.9,6.8-47.9
		c0.4-3.1,1.5-5.7,3.3-8.2c2.5-3.4,4.4-7.3,4.1-11.6c-0.2-4.1,1.6-4.6,5-4.6c27.3,0.1,54.7,0.1,82,0.1c29.7,0,59.3-0.1,89,0.1
		c4.9,0,8.5-1.5,11.5-5.5c5.4-7.4,11.1-14.6,16.8-21.8C504.8,310.8,505.2,309.7,507.3,309.7z"/>
	<path class="st2" d="M213,350c-20.2,0-40.3-0.1-60.5,0.1c-3.9,0-4.6-1.2-4.6-4.8c0.1-34.2,0.2-68.3,0-102.5c0-3.9,0.9-5.2,4.9-5
		c3.8,0.3,7.6,0.4,11.4-0.7c10.9-3.2,18.6-13,18.7-24.4c0.1-16.8,0.2-33.7-0.1-50.5c-0.1-4.1,1.3-4.7,4.9-4
		c11.7,2.4,18.9,10.7,19.1,22.8c0.2,10.7,0,21.3,0.1,32c0.1,13.7,11.5,24.9,25.2,24.9c14.2,0,28.3,0,42.5,0c6.1,0,8.9,2.2,9.3,7.3
		c0.4,4.9-2.5,7.9-8.1,8.7c-4.9,0.6-7.9,3.8-7.9,8.1c0,4.3,3.1,7.3,8,7.9c6.1,0.7,7.9,2.6,7.9,8c0,5.5-2.1,7.5-8.5,8
		c-4.8,0.4-7.5,3.4-7.5,8.1c0.1,4.7,2.8,7.5,7.7,7.9c6,0.4,8.1,2.4,8.3,7.7c0.1,5.6-1.8,7.6-8.2,8.3c-4.6,0.5-7.6,3.5-7.8,7.6
		c-0.2,4.3,2.9,7.7,7.6,8.4c5.7,0.8,8.7,3.8,8.4,8.4c-0.3,4.2-4.4,7.6-9.5,7.6C254,350,233.5,350,213,350z"/>
	<path class="st3" d="M227,637.9c-19.7,0-39.3,0-59,0.2c-2.9,0-3.7-1.1-3.9-3.8c-1.3-22.3-2.7-44.5-4.1-66.8
		c-1.9-29.2-3.8-58.5-5.7-87.7c-0.3-4.3-0.1-8.7-0.8-13c-0.6-4,0.6-4.8,4.4-4.8c21,0.1,42,0.1,63,0.1c5.7,0,11.3,0.1,17,0.1
		c2.2,1.6,2.2,4,2.2,6.3c-0.4,14.4-1.7,28.8-2.7,43.2c-0.4,6.3-0.7,12.6-1.1,18.9c-1.1,18.4-2.4,36.8-3.4,55.2
		c-0.8,15.2-2.2,30.4-2.9,45.7C230,634.2,229.1,636.3,227,637.9z"/>
	<path class="st1" d="M502.9,287c-6.2,8.1-13,15.6-18.3,24.2c-5.9,9.4-13.3,12.1-24.3,11.9c-52.8-0.6-105.6-0.3-158.5-0.2
		c-4.4,0-6-0.2-3.5-5.1c3.6-7.2,1.6-14.3-2.7-20.7c-2.5-3.7,1-10.6,5.5-10.9c1.7-0.1,3.3,0,5,0c63.8,0,127.7,0,191.5,0
		C499.1,286.1,500.8,285.6,502.9,287z"/>
	<path class="st4" d="M132,294c0,20.3-0.1,40.7,0.1,61c0,4.2-1.2,5.4-5.4,5.4c-12.8-0.2-25.7-0.2-38.5,0c-3.3,0-4.3-1-4.3-4.3
		c0.1-41.7,0.1-83.3,0-125c0-3.1,1-4,4-4c13.3,0.1,26.7,0.2,40,0c4.1-0.1,4.1,2,4.1,5C132,252.7,132,273.3,132,294z"/>
	<path class="st5" d="M227,637.9c1.9-7.3,1.2-14.9,1.8-22.3c1.6-18.7,2.1-37.4,3.3-56.1c1.5-23,3.5-46,4.8-69
		c0.5-9.4,2-18.9,1.1-28.4c6.7-0.1,13.3,0,20-0.2c3.3-0.1,4.4,1.1,4.2,4.4c-0.9,13.4-1.5,26.9-2.4,40.3c-0.8,13.1-1.8,26.2-2.7,39.3
		c-1.3,18.9-2.5,37.8-3.8,56.7c-0.7,10.3-1.4,20.6-1.9,30.9c-0.2,3.4-1.4,4.6-4.8,4.5C240,637.8,233.5,638,227,637.9z"/>
	<path class="st6" d="M512,395.5c0,1.6,0,3.3,0,4.9c0,64,0,127.9,0.1,191.9c0,3.8-0.9,6.7-3.9,9.1c-8.5,7-16.8,14.1-25.2,21.1
		c-1,0.8-1.8,2.5-3.2,1.6c-1.3-0.8-0.8-2.5-0.6-3.7c1.7-12.2,3.6-24.3,5.4-36.5c2.9-20.2,5.7-40.4,8.6-60.6
		c2.8-19.7,5.6-39.4,8.4-59.2c2.9-20,5.7-40.1,8.6-60.1c0.4-2.9,0.9-5.8,1.4-8.7C511.6,395.4,511.8,395.5,512,395.5z"/>
	<path class="st6" d="M561.2,626.4c-7.7-6.5-14.3-12-20.8-17.5c-0.3-0.2-0.4-0.5-0.7-0.7c-11.1-5.8-12-15.4-11.9-26.7
		c0.5-59.3,0.2-118.6,0.2-177.8c0-2,0-4,0-6c0.2,0,0.5,0,0.7-0.1C539.5,473.4,550.2,549.1,561.2,626.4z"/>
	<path class="st7" d="M251.9,445.9c-36.1,0-72.2,0-108.3,0.2c-2.8,0-3.6-0.9-3.7-3.7c-0.4-12.3-0.5-12.2,11.7-12.2
		c33.4,0,66.9,0.1,100.3,0.1C255,434.5,255,441.5,251.9,445.9z"/>
	<path class="st7" d="M231.9,413.9c-22.8,0.1-45.6,0.1-68.4,0.2c-2.9,0-3.6-1.1-3.7-3.8c-0.4-12.2-0.4-12.2,11.7-12.2
		c19.5,0,38.9,0,58.4,0.1C234.9,400.5,235.8,408.3,231.9,413.9z"/>
	<path class="st8" d="M548.3,637.7c-19.4,0-38.3,0-58.3,0c7.5-6.3,14.1-11.9,20.8-17.5c0.8-0.6,1.6-1.1,2.4-1.8
		c7.1-6.2,7-6.1,13.9,0.1c5.4,4.8,11.2,9.4,16.8,14.1C545.4,633.9,547.2,635.1,548.3,637.7z"/>
	<path class="st9" d="M231.9,413.9c0-3.7,0-7.3,0.1-11c0-1.9-0.3-3.6-2-4.8c7.4,0,14.9,0,22.3-0.2c2.8-0.1,3.8,1.1,3.7,3.8
		c-0.3,15.1,2.2,11.8-11.7,12.2C240.2,414.1,236.1,413.9,231.9,413.9z"/>
	<path class="st9" d="M251.9,445.9c0-5.2,0-10.4-0.1-15.7c6.8-0.1,13.6-0.1,20.3-0.2c2.8-0.1,3.7,1,3.8,3.8
		c0.6,12.2,0.7,12.2-11.2,12.2C260.5,446,256.2,445.9,251.9,445.9z"/>
	<path class="st0" d="M376.8,500.9c-22,0-44,0-66,0c-9,0-11.8-3.7-10.5-12.6c4.6-30.1,9.1-60.2,13.6-90.3c1-6.8,3.4-9.2,10.5-9.2
		c44.5,0,89,0,133.4,0c7.4,0,10.9,4.1,9.9,10.9c-3.7,23.5-7.2,47-10.8,70.5c-1.1,7.1-2.1,14.1-3.2,21.2c-1.1,7.2-3.7,9.4-11,9.4
		C420.8,500.9,398.8,500.9,376.8,500.9z"/>
	<path class="st10" d="M377.5,484.9c-18.5,0-37-0.1-55.5,0.1c-3.6,0-4.9-0.5-4.2-4.6c3.7-23.5,7.3-47,10.6-70.5c0.6-3.9,1.8-5,5.9-5
		c37.1,0.2,74.3,0.2,111.4,0c4.4,0,4.8,1.5,4.2,5.1c-3.2,20.5-6.3,41.1-9.4,61.6c-0.1,0.3-0.1,0.7-0.2,1c-0.8,4,0.4,9.6-2.7,11.7
		c-3,1.9-8,0.7-12.2,0.7C409.5,484.9,393.5,484.9,377.5,484.9C377.5,484.9,377.5,484.9,377.5,484.9z"/>
</g>
</svg>
