<?xml version="1.0" encoding="utf-8"?>
<!-- Generator: Adobe Illustrator 19.0.0, SVG Export Plug-In . SVG Version: 6.00 Build 0)  -->
<svg version="1.1" id="Calque_1" xmlns="http://www.w3.org/2000/svg" xmlns:xlink="http://www.w3.org/1999/xlink" x="0px" y="0px"
	 viewBox="0 0 612 792" style="enable-background:new 0 0 612 792;" xml:space="preserve">
<style type="text/css">
	.st0{fill:#C08F62;}
	.st1{fill:#D6C4A2;}
	.st2{fill:#D94242;}
	.st3{fill:#956F4B;}
	.st4{fill:#40A4A7;}
	.st5{fill:#A23434;}
	.st6{fill:#7E5C42;}
	.st7{fill:#CF986E;}
	.st8{fill:#F0D936;}
	.st9{fill:#8B6648;}
	.st10{fill:#767676;}
	.st11{fill:#676767;}
	.st12{fill:#989898;}
	.st13{fill:#8B8B8B;}
</style>
<g>
	<path class="st0" d="M461,647c-68.7,0-137.3,0-206,0c5.4-12,4.2-24.9,5.5-37.5c1.9-19,3-38.1,4.5-57.1c1.3-15.4,2.3-30.8,3.5-46.2
		c1-13.4,2.1-26.8,3.1-40.2c0.1-1,0.3-2,0.9-2.8c1.4-1.5,3.3-1.5,5.1-1.7c4.3-0.5,6.7-2.9,6.8-7.2c0.3-10.2,0.3-20.3,0-30.5
		c-0.1-4.9-2.5-6.8-7.7-7.3c-3.7-0.4-7.7,1-11.1-1.6c-2-5.8-1-11.6-0.7-17.5c1.4-8.5,1.7-17,2.6-25.5c0.4-3.8,0.8-7.5,1.6-11.2
		c1.1-2.6,3.4-2.8,5.8-3c13.9-1.4,19.4-8.9,16.6-22.2c-0.2-1-0.3-2,0-2.9c5.6-3.1,11.7-3,17.7-2.6c4.8,0.3,9.6,1,14.4-0.1
		c2-0.4,3.9-0.5,5.9,0c1,0.2,2,0.6,2.9,0.5c10.5-1.3,21.1,1.1,31.7-0.6c1.7-0.3,3.3-0.3,4.9,0.1c1.3,0.3,2.6,0.8,3.9,0.6
		c10.5-1.5,21.1,1.1,31.7-0.7c4.5-0.8,8.9,1.8,13.3,0.8c8.1-1.8,16.2,0.8,24.2-0.5c6.2,1.3,12.6,0.8,18.8,0.5
		c5.2-0.3,8.6-4,11.6-7.8c7.5-9.5,14.9-19.1,22.5-28.5c1.2-1.5,2.3-5.1,5.6-2.2c-0.2,11.5-2.3,22.8-3.8,34.2
		c-7.2,56.7-14.3,113.4-21.6,170c-5.1,40-10,80-15.3,119.9c-0.7,5.3-1.3,10.6-1.7,15.9C456.1,637.6,458.3,642.3,461,647z"/>
	<path class="st1" d="M292,333c5.2,14.9-1.8,25.3-17.5,25.9c-1.5,0.1-3,0.1-4.2,1.1c-1.8,0.5-3.6,0.6-5.4,0.6
		c-43.6,0-87.1,0-130.7,0c-2.8,0-5.7,0.4-8.2-1.3c-1.7-2.2-1.4-4.7-1.4-7.2c0-41.4,0-82.8,0-124.3c0-2.2-0.1-4.3,0.9-6.4
		c1.6-2.2,4.1-1.9,6.4-2c5-0.1,10,0.1,14.9-0.1c8.6-0.2,14.3-5,16.2-13.4c0.6-2.8,0.6-5.6,0.6-8.4c0-17.4,0-34.9,0-52.3
		c0-4.8,1-9,6.5-10.3c3.3,0,6.7,0,10,0c9.1,3,17.6,6.9,23,15.4c3.8,6,6,12.6,6,19.7c0.1,10.6,0,21.3,0,31.9c0,12,6.9,19,18.8,19
		c15.1,0,30.3,0,45.4,0c11,0,18.7,5.3,20.6,14.3c1.8,8.4-2.9,15.7-13.4,20.4c4.4,1.6,7.5,4.6,10.7,7.5c6.7,7.9,4.1,18-7.2,27.1
		c7,3.9,10.9,9.4,10.5,17.7c-0.4,8.4-4.8,13.4-12,16.6c-0.8-0.1-0.1,1.1-0.2,0.4C287.3,325.4,290.6,328.1,292,333z"/>
	<path class="st2" d="M149,647c-3.5-2.6-4.9-6.1-5.2-10.6c-3.4-46.7-7-93.3-10.5-139.9c-0.8-11.1-1.6-22.3-2.3-33.4
		c1.8-2,4.2-1.7,6.5-1.7c35.1-0.1,70.2,0,105.4,0c2,0,4,0,5.8,1c1.8,1.4,1.9,3.5,1.7,5.5c-1.2,13.9-2.1,27.9-3.2,41.8
		c-1.3,15.6-2.3,31.2-3.6,46.8c-1.3,15.4-2.4,30.9-3.6,46.3c-0.8,11-1.8,21.9-2.5,32.9c-0.3,4.9-1.4,9.2-6.5,11.4
		C203.7,647,176.3,647,149,647z"/>
	<path class="st3" d="M500,291.1c-6.1,5-9.8,11.9-14.8,17.8c-5.1,5.9-9.7,12.1-14.6,18.1c-3,3.7-7.2,5.3-11.9,5
		c-5.2-0.3-10.5,1.3-15.6-0.9c12.9-9.7,20.8-23.9,31-36c6.8-8,13-16.4,19.5-24.6c3.2-4.1,7.1-7,12.4-7.3c2.5-0.1,5-0.2,7.5-0.2
		c6.7,0.1,11.1,3.6,12,10.1c2.6,18.7,5,37.5,7.5,56.2c2.9,21.4,5.8,42.7,8.6,64.1c2.2,16.1,4.2,32.2,6.4,48.4
		c2.5,18.9,5.1,37.8,7.6,56.7c2.1,16,4.2,31.9,6.3,47.9c2.8,21.4,5.7,42.8,8.6,64.1c1,7.5,1.3,15.1,3.4,22.5c0,1.3,0,2.7,0,4
		c-5.3-2.8-9-7.5-13.4-11.3c-13.4-11.6-26.6-23.4-39.9-35.1c-2.9-2.5-6-4.8-7.2-8.7c-0.6-1.8-1-3.6-0.9-5.4
		c0.6-10.8,0-21.6,0.1-32.4c0.1-8.5,0.2-16.9,0-25.4c-0.2-10.8,0-21.6-0.1-32.4c-0.1-9.5,0-18.9,0-28.4c0-10.5,0-21,0-31.4
		c0-9.6-0.1-19.3,0-28.9c0.1-11-0.3-22,0.1-32.9c0.3-7.6,0.1-15.3,0-22.9c-0.3-18.3,0.2-36.6-0.2-54.9c0-1.3,0.6-2.9-0.8-3.7
		c-1.5-0.8-2.8,0.4-4.1,1.2C504.8,286.1,503.3,289.7,500,291.1z"/>
	<path class="st4" d="M126.2,359c-0.1,1.7-0.1,3.3-0.2,5c-0.2,5.2-3.1,8.7-8.2,8.7c-15.9,0.2-31.8,0.1-47.7,0
		c-3.9,0-6.2-2.6-8.1-5.7c0-51.3,0-102.7,0-154c1.2-4.9,4.7-7.2,9.4-7.3c15.1-0.4,30.3-0.7,45.4,0.1c8.5,0.4,12.5,7.5,9.3,15.2
		c0,41.9-0.1,83.7-0.1,125.6C126,350.7,126.1,354.9,126.2,359z"/>
	<path class="st5" d="M231,647c4.2-3.9,4.8-8.9,5.2-14.4c0.8-15,2.7-30,3.6-45c0.6-9.6,1.4-19.2,2.2-28.7
		c1.4-16.8,2.7-33.7,3.9-50.5c0.8-10.4,1.6-20.8,2-31.3c0.2-4.7,1.7-9.2,1.1-13.9c2.4-2.4,5.4-1.5,8.2-1.6c3.6,0.1,7.2-0.3,10.9,0
		c1.8,0.1,3.7,0.1,5,1.6c-0.7,17.2-2.3,34.4-3.8,51.6c-0.9,10.6-1.4,21.2-2.2,31.8c-1.2,15.7-2.6,31.4-3.8,47.1
		c-0.8,10.1-1.4,20.2-2.1,30.3c-0.4,5.1-0.6,10.3-1.1,15.4c-0.3,3.3-2.4,5.7-4.9,7.8C247,647,239,647,231,647z"/>
	<path class="st6" d="M515,583c6.9,8.2,15.7,14.3,23.4,21.5c7,6.6,14.6,12.6,21.6,19.1c4.8,4.4,10.2,8,14,13.4c0,1.7,0,3.3,0,5
		c-0.6,2.7-2.3,4.4-5,5c-36,0-72,0-108,0c-5.5-4.5-6.3-7.3-4-14c9.2-9.8,19.9-18.1,29.6-27.3c6.4-6.1,13-11.8,19.5-17.8
		C508.5,585.6,510.6,582.1,515,583z"/>
	<path class="st7" d="M506,263.2c-9.6,2.7-13.9,11.4-19.6,18.3c-12,14.8-23.6,29.9-35.4,44.8c-2,2.6-4.8,4-8,4.7
		c-9.8,1.4-19.8,1.2-29.4,0.5c-9-0.7-18,2.7-27-0.8c-2.3-0.9-5.3,1.8-8.2,1.2c-10.4-2.2-21,1.8-31.4-1.2c-2.9-0.8-6,1.9-9.2,1.2
		c-10.2-2.4-20.5,1.1-31-0.9c-4.2-0.8-10.1-0.2-14.9,2c-2.8-4.1-6.7-6.7-11.3-8.5c16.9-7.1,16.7-28.3,0.8-34.2
		c0.1-0.3,0-0.8,0.2-0.9c12.3-8,13.9-12.4,9.4-26.4c34.3-0.1,68.6-0.1,103-0.2c35.7,0,71.3,0,107,0C502.7,263,504.3,263.1,506,263.2
		z"/>
	<path class="st8" d="M364.1,507c-21.8,0-43.7,0-65.5,0c-8.5,0-11.2-3.5-9.9-11.8c2.6-17,4.9-34.1,7.3-51.2
		c1.9-13.6,3.9-27.2,5.9-40.8c1-6.3,3.3-8.2,9.6-8.2c35.5,0,71,0,106.5,0c8.8,0,17.7,0,26.5,0c6.9,0,10.2,3.4,9.4,10.4
		c-1.2,10.2-2.9,20.3-4.4,30.5c-2.2,15.1-4.3,30.2-6.5,45.2c-0.8,5.7-1.6,11.5-2.7,17.2c-1.4,7.2-3.3,8.7-10.8,8.7
		C407.7,507,385.9,507,364.1,507C364.1,507,364.1,507,364.1,507z"/>
	<path class="st9" d="M515,583c-2.9,0.6-4.9,2.7-6.9,4.5c-12.9,11.7-25.4,23.8-38.6,35.2c-4,3.5-7.2,8.3-12.5,10.3
		c0.1-10.6,2.3-21,3.4-31.6c1.3-11.7,3.1-23.3,4.6-34.9c2-15.1,3.9-30.2,5.8-45.3c1.5-12,2.8-24,4.3-36c1.4-11,2.9-22,4.3-32.9
		c1.6-12.1,3.1-24.3,4.6-36.4c1.5-11.6,3-23.3,4.5-34.9c1.5-12,3-23.9,4.5-35.9c1.5-11.6,2.9-23.3,4.4-34.9
		c0.8-6.4,1.7-12.8,2.5-19.2c2.4-4.8,6-8.4,10.9-10.4c2.8-1.2,4.3-0.1,3.8,3c-1,5.8-0.8,11.5,0,17.3c0.4,2.8-0.9,5.9-0.6,8.8
		c1,10.9,0.4,21.8,0.4,32.6c0,10.8-0.3,21.8-0.1,32.6c0.1,9,0.1,18.1,0.1,27.1c0,10.8-0.2,21.8-0.1,32.6c0.1,9.2,0.1,18.5,0.1,27.6
		c0,11-0.2,22.1-0.1,33.1c0.1,9,0.1,18.1,0.1,27.1c0,10.6-0.2,21.4-0.1,32.1C514.4,563.9,512.5,573.6,515,583z"/>
	<path class="st10" d="M273,463.1c-5.3-0.1-10.7-0.2-16-0.2c4.1-6.3,3.7-13.4,3.6-20.5c-0.1-4.6-0.1-9.3,0-13.9
		c0.1-4.2,0-8.3-3.2-11.6c-0.6-0.6-0.8-1.4-0.1-2.2c3-1.5,5.9-1.6,8.8,0.4c3.5,0,7,0,10.5,0c6.7,0,9.4,2.7,9.5,9.3
		c0,9.8,0.1,19.6,0,29.4c0,6.4-2.8,9.1-9,9.3C275.7,463,274.3,463.1,273,463.1z"/>
	<path class="st11" d="M266.1,415c-3,0-6.1,0-9.1,0.1c-4.8,2.6-9.7,1.8-14.7,0.6c-1.8-1.4-1.6-3.5-1.7-5.5c-0.1-2.6-0.2-5.3,0-7.9
		c0.5-6.9-0.1-13.4-4.5-19.1c6.5-0.1,13-0.2,19.4-0.2c7.7,0,10.4,2.7,10.6,10.4c0,1.2,0,2.3,0.1,3.5
		C266.1,402.9,266.1,408.9,266.1,415z"/>
	<path class="st12" d="M242,415c5,0,9.9,0,14.9,0.1c3.8,2.4,5.3,5.8,5.1,10.5c-0.3,9.1-0.1,18.2-0.1,27.3c0,4.2-1.1,7.8-5,10
		c-2.7,0.1-5.3,0.2-8,0.3c-39.4,0-78.7,0-118.1,0c-1.8,0-3.7,0-5.5-0.2c-4.3-0.4-7.4-3.4-7.4-7.8c-0.1-10.8-0.1-21.6,0-32.3
		c0.1-4.7,3.2-7.6,7.9-7.8c4-0.1,8,0,11.9-0.1c1.9-1.6,4.3-1.6,6.6-1.6c30.3,0,60.6,0,90.9,0C237.7,413.4,240.1,413.3,242,415z"/>
	<path class="st13" d="M242,415c-34.7,0-69.4,0-104.1,0c0-7.8,0-15.6,0.1-23.4c0.1-5.3,3.1-8.5,8.3-8.5c29.9,0,59.8,0.1,89.7,0.1
		c4.5,2.8,6.3,6.6,6,12C241.7,401.8,242,408.4,242,415z"/>
</g>
</svg>
