<?xml version="1.0" encoding="utf-8"?>
<!-- Generator: Adobe Illustrator 19.0.0, SVG Export Plug-In . SVG Version: 6.00 Build 0)  -->
<svg version="1.1" id="Calque_1" xmlns="http://www.w3.org/2000/svg" xmlns:xlink="http://www.w3.org/1999/xlink" x="0px" y="0px"
	 viewBox="0 0 612 792" style="enable-background:new 0 0 612 792;" xml:space="preserve">
<style type="text/css">
	.st0{fill:#52CF52;}
	.st1{fill:#A3E5A3;}
	.st2{fill:#FDFDFD;}
	.st3{fill:#52D052;}
	.st4{fill:#50B150;}
	.st5{fill:#F6F6F6;}
	.st6{fill:#F6F7F6;}
	.st7{fill:#54B254;}
	.st8{fill:#53CF53;}
	.st9{fill:#54CF54;}
</style>
<g>
	<path class="st0" d="M290,110c12,0,24,0,36,0c8.3,1,16.7,1,25.1,1.7c10.8,0.8,21.3,3.6,31.6,6.8c35.4,10.7,67.3,28,94.9,52.5
		c43.3,38.4,71.7,85.7,83.5,142.6c2,9.4,1.7,19,2.4,28.6c0.1,1.6-0.5,3.3,0.5,4.9c0,9.7,0,19.3,0,29c-1.1,3.1-0.2,6.4-0.5,9.6
		c0.6,31.2-7.6,60.4-20.7,88.4c-10.3,22-22.8,42.6-39,60.7c-20.5,23-43.5,43-70.9,57.6c-22.4,12-45.8,21.5-70.8,26.5
		c-11.3,2.2-22.9,2.5-34.5,2.7c-3.2,0.3-6.5-0.6-9.6,0.5c-10,0-20,0-30,0c-7.3-1-14.7-1-22-1.6c-19.5-1.7-37.9-7.8-55.9-15.1
		c-26.1-10.7-50.1-25-71.2-43.8c-22.6-20.2-42.3-42.9-56.9-69.8c-12.4-22.7-21.7-46.5-26.9-71.8c-2-9.9-1.9-20-2.7-30.1
		c-0.1-1.6,0.5-3.3-0.5-4.9c0-12.7,0-25.3,0-38c1-8,1-16,1.6-24.1c0.9-11,3.8-21.6,7-32.1c10.7-35.2,28-66.9,52.5-94.4
		c20.9-23.5,44.8-43.5,72.9-58.3c21.7-11.4,44.3-20,68.2-24.9c10-2.1,20.3-2,30.5-2.7C286.4,110.4,288.3,111,290,110z"/>
	<path class="st1" d="M564,386c-0.3,0.1-0.6,0.1-0.9,0.1c-0.4-3.4-0.3-6.8,0.9-10.1C564,379.3,564,382.7,564,386z"/>
	<path class="st1" d="M328.1,621.1c-0.1,0.3-0.1,0.6-0.1,0.9c-3.3,0-6.7,0-10,0C321.3,620.8,324.7,620.8,328.1,621.1z"/>
	<path class="st2" d="M307.7,606C175.3,605.8,67.9,498.1,68,365.7C68.1,233.3,176,125.8,308.3,126c132.4,0.2,239.9,108,239.7,240.3
		C547.7,498.8,440,606.2,307.7,606z"/>
	<path class="st3" d="M461,214c20.2,19.7,35.3,42.8,46.2,68.7c12.7,30.1,18.8,61.6,16.4,94.1c-5.8,80.5-44.2,140.9-114.9,180.2
		c-33.6,18.7-70.2,26.6-108.6,25c-55.3-2.3-103-22.9-143-61.2c-0.5-0.5-0.8-1-1.2-1.5c-1.4-3.5,1.4-5.2,3.3-7.1
		c16.9-17,33.9-34,50.9-50.9c7.5-7.5,15.1-15.1,22.6-22.6c1.3-1.3,2.3-2.9,4.3-3.4c1.9-0.3,3,1.1,4.2,2.3c6.4,6.2,14,9.9,23,10.4
		c2.1,0.1,4.5,0.1,5.4,2.6c0.8,2.3-0.9,3.7-2.2,5.2c-2.4,2.7-5.2,5.1-7,8.3c-4.4,8.1-0.6,18.2,8.1,19.7c7.1,2,12.3-0.7,16.9-6.1
		c3.2-3.8,7-7.1,10.5-10.6c1.5-1.5,3-2.6,5.2-2.2c2.8,0.3,4.1,2.7,5.8,4.4c4.9,4.7,9.7,9.6,14.5,14.5c2.2,2.2,3.3,4.5,1.6,7.6
		c-1.3,2.4-0.3,4.5,1.4,6.3c13.2,13.4,26.5,26.6,39.9,39.9c2.7,2.6,5.3,2.4,7.9-0.2c5.6-5.5,11.1-11,16.6-16.6
		c2.5-2.6,2.5-5.3-0.1-7.9c-13.2-13.4-26.5-26.7-39.9-39.9c-2-2-4.2-2.4-6.8-1c-2,1.1-3.9,0.8-5.5-0.7c-6.9-6.5-13.5-13.3-20.2-20
		c-0.4-0.4-0.5-1.2-0.5-1.9c-0.3-2.4,1.4-3.6,2.8-4.9c4.6-4.7,9.3-9.3,14-14c2.4-2.4,3.8-4.9,2.7-8.4c1.2-5.6-1-9.8-5.5-12.8
		c-4.6-3.1-9.4-2.8-14.1-0.1c-3.5,2-6.1,5.1-9.2,7.6c-3,2.4-5.7,1.7-6.3-1.9c-1.4-10-5-18.9-12-26.3c-0.5-0.5-0.4-1.2-0.4-1.9
		c0-2.3,1.3-4,2.8-5.6c10.8-10.9,21.7-21.8,32.6-32.6c1.5-1.4,3-2.6,5.2-2.6c1.5-0.2,2.6,0.5,3.6,1.4c6.5,6.3,14.5,9.1,23.2,10.6
		c5.7,0.9,6.4,3.4,2.7,7.6c-2.4,2.7-5.1,5.2-6.9,8.5c-2.6,4.6-2.7,9.2,0.2,13.7c3,4.5,7.2,6.8,12.8,5.6c3.6,1.1,6.3-0.4,8.7-2.9
		c4.5-4.6,9-9.1,13.6-13.6c1.4-1.3,2.5-3.2,4.9-2.9c1.8,0.2,2.9,1.5,4.1,2.6c5.6,5.5,11.1,11,16.6,16.6c2.1,2.2,3.6,4.4,1.8,7.5
		c-1.4,2.4-0.6,4.5,1.2,6.3c13.2,13.4,26.6,26.7,39.9,39.9c2.6,2.6,5.3,2.4,7.9-0.1c5.6-5.5,11.2-11,16.6-16.6
		c2.6-2.6,2.5-5.3,0-7.9c-13.3-13.4-26.5-26.7-40-39.9c-1.8-1.8-3.9-2.5-6.4-1.2c-2.4,1.3-4.5,0.9-6.4-0.9
		c-6.5-6.3-12.9-12.5-19-19.1c-0.5-0.5-0.7-1.1-0.7-1.8c-0.5-2.4,0.8-4,2.4-5.6c4.4-4.3,8.6-8.7,13-13c2.9-2.8,4.7-5.8,3.8-10
		c0.5-11-9.9-17.5-19.8-12.3c-3.6,1.9-6.2,5-9.1,7.7c-1.4,1.2-2.8,2.5-4.9,1.6c-1.8-0.7-2.3-2.4-2.3-4.1
		c-0.3-9.6-4.2-17.6-10.6-24.6c-0.9-1-1.7-2-1.6-3.5c0.2-2.4,2-3.8,3.5-5.3c24.2-24.3,48.5-48.6,72.8-72.8
		C455.8,215.4,457.5,212.6,461,214z"/>
	<path class="st4" d="M237,436.3c-0.7,2.4-2.6,3.8-4.3,5.4c-24,24.1-48.1,48.1-72.1,72.1c-1.6,1.6-3.1,3.4-4.7,5.2
		c-13.6-12.2-24.3-26.9-33.6-42.4c-15.9-26.4-25.9-55-29-85.6c-6.4-62,10-117.5,50.5-165.3c26.1-30.8,58.5-52.4,96.8-65.1
		c28.1-9.3,57-12.4,86.5-9.8c43.6,3.8,82.3,19.7,116.5,46.9c6.2,5,12.5,9.9,17.5,16.2c-1.7,1.6-3.5,3-5.2,4.7c-24,24-48,48-72,72
		c-1.6,1.6-3.5,3.1-5.2,4.6c-1.5,1.6-3.1,0.8-4.6,0c-5.4-2.9-11.1-4.3-17.2-4.9c-1.8-0.2-3.8-0.4-4.5-2.5c-0.7-2.1,0.6-3.5,1.8-4.9
		c2-2.2,4.3-4.2,6.2-6.5c4.9-6.1,4.8-13.5-0.3-18.6c-5-4.9-12.7-5-18.6-0.2c-2.3,1.9-4.3,4.2-6.5,6.2c-1.4,1.2-2.8,2.5-4.9,1.7
		c-2.1-0.8-2.3-2.7-2.4-4.6c-0.4-6.6-2.3-12.7-6-18.3c-6-9-14.8-13.1-25.2-14.3c-2.3-0.3-5,0.2-6-2.6c-1-2.7,1.2-4.3,2.8-5.9
		c2-2.2,4.3-4.2,5.9-6.8c3.9-6,3-14-2-18.2c-5.6-4.7-12.4-4.4-18,1c-4.8,4.6-9.6,9.2-14.7,13.6c-3.1,2.7-5.8,2.9-8.7,0
		c-2-2-3.9-4.1-6.3-5.7c-4.6-3.1-9.5-2.8-12.7,0.8c-3.3,3.7-3.3,8.5-0.1,12.8c1.4,1.9,3.2,3.4,4.8,5.1c4.5,4.8,4.4,6.1,0.1,10.9
		c-4.2,4.7-9.6,8.2-13.4,13.4c-4.5,5.9-4.8,12.8-0.4,17.8c4.7,5.3,11.6,6.1,18.1,2.1c2.3-1.4,4-3.5,6-5.2c1.7-1.5,3.1-3.8,5.9-3
		c3,0.9,3.1,3.9,3.4,6.2c0.7,6.1,2.5,11.7,6.1,16.7c5.8,8.1,13.8,12.3,23.5,13.3c0.5,0.1,1,0,1.5,0.1c2.4,0.3,5.3-0.4,6.4,2.7
		c1,2.7-1.4,4.2-2.9,5.9c-1.9,2.1-4.1,3.9-5.9,6.1c-4.8,6-4.3,13.4,1,18.5c5.2,4.9,12.4,5,18.1,0.2c2.7-2.3,4.9-5,7.6-7.2
		c3.4-2.7,6.4-1.8,6.5,2.5c0.2,7,2.1,13.4,5.4,19.5c0.8,1.4,1.1,2.8-0.3,4.1c-13.7,12.6-26.8,25.8-39.5,39.5c-1.5,1.6-3,0.9-4.5,0.1
		c-5.8-3.2-11.9-5.2-18.6-5.1c-1.7,0-3.4-0.4-4.2-2.2c-0.9-2,0.2-3.5,1.5-4.9c2.2-2.5,4.7-4.7,6.9-7.2c4.8-5.7,4.7-12.9-0.2-18.1
		c-5-5.4-12.5-5.8-18.5-1c-2.6,2.1-4.8,4.6-7.2,6.9c-1.4,1.3-2.8,2.6-4.8,1.9c-2.3-0.8-2.5-3-2.6-5c-0.1-4-0.6-8-2.1-11.7
		c-4.6-11.5-13-18.2-25.1-20.4c-1.6-0.3-3.3-0.6-4.9-1c-5.1-1.3-5.8-3.6-2.2-7.6c1.6-1.9,3.6-3.5,5.1-5.5c5.1-6.5,5-13.8-0.2-19
		c-5.1-5.2-12.3-5-18.9,0.1c-4.9,3.8-9.1,8.3-13.5,12.6c-4.7,4.5-5.9,4.5-10.8-0.1c-1.6-1.5-3-3.1-4.8-4.4
		c-4.3-3.2-9.3-3.1-12.8,0.2c-3.5,3.3-3.8,8.2-0.7,12.7c1.6,2.4,3.7,4.3,5.7,6.3c2.9,3,2.7,5.7-0.1,8.7c-4.7,4.9-9.8,9.5-14,15
		c-4.9,6.6-5,13.3,0.2,18.5c4.6,4.6,12.5,4.9,18.3,0.7c2.7-2,4.8-4.6,7.4-6.7c3.6-2.9,6.2-1.9,6.8,2.7c0.3,2.1,0.4,4.3,0.9,6.4
		c3.4,15.1,14.5,25,29.9,26.6c1.2,0.1,2.3,0.1,3.5,0.4c3.3,0.8,4.3,3.1,2.2,5.9c-2.1,2.8-4.9,4.9-7.1,7.7c-3.4,4.4-4.7,9.2-2.5,14.5
		c2,4.7,5.7,7.3,10.7,7.9c4.7,0.6,8.4-1.5,11.7-4.5c2.2-2,4.1-4.4,6.6-6.1c2.8-2,5.5-1.2,5.9,2.2c0.8,6.9,2.4,13.4,5.5,19.6
		C238.2,434.2,237.8,435.3,237,436.3z"/>
	<path class="st2" d="M237,436.3c-5.6-9.7-5.7-10.2-7.5-25.9c-3.3,3.5-5.8,6.5-8.6,9.2c-6.9,6.7-16.3,6.8-22.8,0.4
		c-6.3-6.1-6.3-16.1,0.2-22.9c2.7-2.8,5.7-5.4,9.1-8.7c-23.7-0.5-39.5-14.7-39.9-40.2c-3.3,3.5-5.9,6.4-8.7,9.1
		c-6.7,6.5-16.6,6.6-22.9,0.4c-6.4-6.4-6.4-16,0.2-22.9c4.6-4.8,9.3-9.5,14.1-14.1c2-1.9,2.4-3.2,0.1-5.2c-2.3-1.9-4.4-4.1-6.3-6.4
		c-4.3-4.9-4.2-11.8,0.1-16.3c4.5-4.7,11.6-5,16.7-0.6c0.5,0.4,1,0.9,1.4,1.4c7.6,7.4,7.6,7.4,14.9,0c3.2-3.2,6.3-6.4,9.6-9.5
		c6.6-6.2,16.4-6.1,22.5-0.1c6.3,6.3,6.4,15.7,0.2,22.5c-2.7,2.9-5.7,5.5-9.5,9.1c25.7,1.5,38.8,14.3,39.9,40.3
		c3.5-3.7,6.1-6.6,8.9-9.4c6.7-6.5,16.7-6.5,22.8-0.2c6.3,6.5,6.2,16-0.5,22.8c-2.7,2.8-5.8,5.3-8.3,8.6c10-0.1,18.4,2.9,26,8.2
		c8.9,8.2,13.3,18.3,13.1,31.6c3.8-3.7,6.7-6.8,9.9-9.6c5.2-4.7,12-5.5,18-2.4c6.1,3.2,8.9,8.8,8.2,16.1
		c-3.9,7.5-10.2,12.9-16.1,18.5c-13.4,12.9-26.1,26.4-39.4,39.4c-4,3.9-8.3,8.1-14.8,6.2c-9.8-1.2-17-15.6-7.7-26
		c2.8-3.2,6.1-5.9,9-9.4C255.6,450.8,245.2,445.9,237,436.3z"/>
	<path class="st2" d="M328.3,346.8c-5.3-7.7-8.3-16.1-7.5-25.7c-0.5-0.2-0.9-0.5-1.4-0.7c-2.6,2.9-5.1,6-7.9,8.7
		c-6.8,6.7-16.3,6.8-22.8,0.5c-6.3-6.1-6.3-16.1,0.2-22.8c2.7-2.8,5.6-5.5,8.8-8.6c-29-5.2-36.2-12.3-39.7-39.1
		c-3.3,1.9-5.5,4.9-8,7.3c-7.4,7.1-17,7.5-23.6,0.9c-6.4-6.4-6-16.4,1-23.6c4.6-4.6,9.1-9.3,13.8-13.8c1.7-1.6,1.9-2.7,0-4.4
		c-2.4-2.1-4.6-4.3-6.7-6.7c-4.4-5-4.1-12.2,0.5-16.7c4.5-4.3,11.4-4.5,16.3-0.3c0.4,0.3,0.7,0.7,1.1,1c8,7.6,8,7.6,15.7-0.1
		c3.1-3.1,6-6.2,9.2-9.2c6.7-6.2,16.2-6.2,22.5,0.1c6.1,6.1,6.2,16,0.1,22.5c-2.8,3-5.9,5.7-9.4,8.9c29.2,4.9,36.2,11.8,40.1,40
		c3.2-3.3,5.8-6.2,8.6-9c6.8-6.5,16.7-6.6,22.8-0.3c6.4,6.5,6.3,15.9-0.3,22.8c-2.7,2.7-5.6,5.2-8.3,8.5c9.4,0.3,17.7,2.9,25.2,7.9
		c9.3,8.3,14.3,18.5,13.5,31.3c0.5,0.2,1,0.5,1.4,0.7c2.7-3,5.3-6.2,8.3-9c5-4.8,12.2-5.9,18-3.1c6.1,2.9,9.2,8.6,8.9,15.9
		c-3.8,7.6-10.2,13-16.1,18.8c-12.7,12.3-24.9,25-37.4,37.5c-3.4,3.4-7,6.4-11.3,8.7c-7.3,0.8-12.9-2.1-16.1-8.2
		c-3.1-6-2.3-12.8,2.4-18c2.8-3,6-5.7,8.9-9.2C346.8,360.1,336.5,355.8,328.3,346.8z"/>
	<path class="st2" d="M408.1,359c6.4,6.3,12.8,12.5,19.2,18.9c1.8,1.8,3.1,2.6,5.2,0.3c2.2-2.5,4.7-1.8,6.9,0.4
		c14.5,14.5,28.9,29,43.4,43.4c2.7,2.7,2.7,5,0,7.6c-6.9,6.8-13.7,13.6-20.5,20.5c-2.8,2.9-5.2,2.7-8-0.1
		c-14.3-14.4-28.7-28.7-43.1-43.1c-2.4-2.4-3.1-4.8-0.3-7.2c2.2-1.8,1.4-3-0.3-4.7c-6.6-6.5-13.1-13.2-19.7-19.8
		c-2.5-4.6,2-5.3,4.1-7.3c3.2,0.4,5.2,2.6,7.4,4.6c4.3,4.1,8.4,8.5,12.7,12.6c0.9,0.9,2.1,2.3,3.4,1.2c1.6-1.4,0-2.7-0.9-3.8
		c-4-4.2-8.1-8.3-12.2-12.4c-2-2-3.9-4-4.9-6.8C402.3,358.1,404.6,356.8,408.1,359z"/>
	<path class="st2" d="M316.9,449c7.2,5.9,13.3,12.9,20,19.4c1.9,1.9,3.1,2.5,5.1,0.2c2.2-2.6,4.6-1.9,6.8,0.4
		c14.5,14.5,28.9,29,43.5,43.5c2.7,2.7,2.6,5.1,0,7.7c-6.9,6.8-13.7,13.6-20.5,20.5c-2.9,2.9-5.2,2.6-8-0.2
		c-14.2-14.3-28.5-28.6-42.8-42.8c-2.5-2.5-3.5-5-0.5-7.6c2.4-2.1,0.9-3.3-0.6-4.8c-6.3-6.4-12.6-12.8-18.9-19.2
		c-2.2-3.5-0.9-5.7,4.4-7.7c6.9,3.1,10.9,9.6,16.3,14.4c1.5,1.3,2.7,3,4.5,3.9c0.7,0.4,1.6,0.6,2.2-0.2c0.4-0.6,0.2-1.3-0.2-1.9
		c-0.7-1.2-1.7-2.1-2.6-3c-4.2-4.3-8.5-8.4-12.6-12.8c-1.5-1.6-2.9-3.2-3.2-5.5C311.5,450.7,312.4,447,316.9,449z"/>
	<path class="st5" d="M305.8,460c-2.6,1.2-5.3,2.4-4.9,6.1c-2.1-0.7-2.9,1.2-4.1,2.2c-4.6,4.5-9.1,9.3-13.8,13.7
		c-4.3,4-9.3,6.3-15.4,4.1c4.4,0.4,7.5-1.6,10.5-4.6c18.3-18.5,36.7-36.8,55.1-55.2c1.5-1.5,3.2-2.9,4.8-4.3
		c0.1,4.3-2.3,7.4-5.1,10.3c-5.3,5.6-11.4,10.5-16,16.7c-2.8,0.8-4.4,2.9-5.8,5.2C311.9,458.4,309.6,459.8,305.8,460z"/>
	<path class="st6" d="M408.1,359c-3.7-0.5-4.9,2.2-6.1,4.9c-0.2,3.7-1.5,6.1-5.8,5.2c-2.4,1.5-4.5,3.2-5.2,6.1
		c-6.3,4.4-11,10.5-16.5,15.7c-3,2.8-6,5.2-10.4,5.1c5.4-5.6,10.8-11.3,16.3-16.8c16.1-16.1,32.3-32.1,48.4-48.2
		c-0.2,4.2-2.2,7.6-5.1,10.5c-4.5,4.5-8.9,8.9-13.4,13.4C409.3,356,407.5,356.8,408.1,359z"/>
	<path class="st4" d="M209.5,416.8c-5.2,0.2-9.3-5.2-7.8-10.2c0.5-1.8,1.7-3.2,3-4.5c16.3-16.2,32.5-32.5,48.7-48.7
		c0.6-0.6,1.2-1.2,1.8-1.7c3.5-2.6,8-2.4,10.8,0.8c3,3.3,2.9,7,0.3,10.4c-1.8,2.4-4.1,4.3-6.3,6.4c-14.5,14.5-29,28.9-43.4,43.4
		C214.6,414.8,212.5,416.6,209.5,416.8z"/>
	<path class="st4" d="M146.6,354.6c-2.7-0.3-5.2-1.7-6.7-4.7c-1.4-2.8-1.1-5.5,0.7-8c1-1.3,2.2-2.5,3.4-3.6
		c15.3-15.3,30.6-30.6,45.9-45.9c0.8-0.8,1.6-1.7,2.5-2.4c3.5-3,8.2-3,11.2,0.1c3.2,3.2,3.4,7.6,0,11.1c-4.8,5.1-9.8,9.9-14.8,14.9
		c-11.5,11.5-23.1,23.1-34.6,34.6C152.3,352.7,150.2,354.6,146.6,354.6z"/>
	<path class="st3" d="M272.1,479c-3.4-0.1-5.9-1.3-7.4-4c-1.6-2.8-1.6-5.7,0.2-8.5c0.6-1,1.5-1.8,2.3-2.6
		c16.1-16.1,32.2-32.3,48.4-48.3c4.3-4.3,8.7-4.8,12.2-1.4c3.3,3.1,3.4,8-0.1,11.5c-16.9,17-33.9,33.9-50.8,50.9
		C275.5,478.1,273.8,478.8,272.1,479z"/>
	<path class="st7" d="M152.8,297.2c1.4,0,10.7,7.9,10.6,9.3c-0.2,2.4-2.5,3.3-3.9,4.9c-1.1,1.3-2.1,0.3-2.9-0.6
		c-2.2-2.2-4.5-4.4-6.6-6.7c-1.3-1.3-1.5-3-0.8-4.6C149.9,298.1,151.2,297.3,152.8,297.2z"/>
	<path class="st4" d="M300.1,326.1c-3.6,0.1-5.8-1.5-7.2-4.2c-1.6-2.9-1.6-6.1,0.6-8.4c17.4-17.6,34.9-35.2,52.6-52.6
		c3.1-3.1,7.2-2.3,10.3,0.8c3.2,3.2,3.1,6.8,0.6,10.4c-0.6,0.8-1.3,1.5-2,2.2c-16,16-32,32-48,48
		C304.9,324.5,302.9,326.4,300.1,326.1z"/>
	<path class="st4" d="M237.6,264c-3.1-0.1-5.4-1.5-6.9-4.2c-1.4-2.7-1.5-5.4,0.2-8c0.7-1.1,1.7-2.1,2.6-3c16-16,32-32,48-48
		c4.5-4.5,9-4.9,12.6-1.3c3.7,3.7,3.3,8-1.3,12.6c-16.1,16.2-32.2,32.3-48.4,48.4C242.5,262.4,240.5,264.2,237.6,264z"/>
	<path class="st3" d="M421,329c-0.1,2.8-1,4.6-2.6,6.2c-16.8,16.7-33.4,33.4-50.2,50.1c-3.9,3.9-8.4,4.2-11.8,0.8
		c-3.4-3.4-3.2-7.9,0.7-11.9c16.5-16.6,33.2-33.2,49.7-49.8c2.8-2.8,6-3.5,9.6-2C419.4,323.7,420.8,326.3,421,329z"/>
	<path class="st7" d="M243.4,206.9c1.6,0.1,10.7,7.9,10.5,9.3c-0.3,2.3-2.5,3.3-4,4.8c-1.5,1.5-2.3-0.3-3.2-1.1
		c-2.3-2.2-4.5-4.4-6.6-6.8c-1.1-1.2-1.2-2.7-0.4-4.1C240.6,207.6,241.8,206.8,243.4,206.9z"/>
	<path class="st8" d="M396.2,369c2-1.7,3.4-4.1,5.8-5.2c6.6,6.6,13.1,13.3,19.8,19.7c2.5,2.3,1.7,3.6-0.3,5.5
		c-1.9,1.9-3.1,2.9-5.5,0.3C409.6,382.4,402.8,375.8,396.2,369z"/>
	<path class="st9" d="M305.8,460c1.1-2.5,3.6-3.8,5.2-5.9c6.9,6.8,13.6,13.6,20.6,20.2c2.5,2.4,0.8,3.6-0.7,5.1
		c-1.6,1.6-2.7,3.2-5.1,0.7C319.3,473.3,312.5,466.7,305.8,460z"/>
</g>
</svg>
