<?xml version="1.0" encoding="utf-8"?>
<!-- Generator: Adobe Illustrator 19.0.0, SVG Export Plug-In . SVG Version: 6.00 Build 0)  -->
<svg version="1.1" id="Calque_1" xmlns="http://www.w3.org/2000/svg" xmlns:xlink="http://www.w3.org/1999/xlink" x="0px" y="0px"
	 viewBox="0 0 612 792" style="enable-background:new 0 0 612 792;" xml:space="preserve">
<style type="text/css">
	.st0{fill:#E1E3E4;}
	.st1{fill:#F6B3B3;}
	.st2{fill:#EFF0F0;}
	.st3{fill:#FAC7C7;}
	.st4{fill:#3E3E3F;}
</style>
<g>
	<path class="st0" d="M304,374c0-41.5,0.1-82.9-0.1-124.4c0-4.7,1.4-5.8,5.9-5.7c28,0.6,54.1,7.2,77,24c15.2,11.2,26,25.9,33.9,42.8
		c7.2,15.4,11,31.9,13.1,48.7c0.5,4.4,0.2,9,0.2,13.5c-0.1,2.1-1.8,2.1-3.2,2.4c-1.6,0.3-3.3,0.2-5,0.2c-37.9,0-75.8,0-113.7,0
		C309.3,375.6,306.4,376.2,304,374z"/>
	<path class="st1" d="M220,485.9c5.5-18.6,7.3-37.3,2.1-56.3c-2.2-8-5.9-15.1-10.8-21.7c-5.1-6.8-4.5-9.7,3.6-14.1
		c4.1-4.2,8.7-2.4,13.3-1.2c9.8,4.5,16.5,12.2,22.6,20.7c4.6,6.4,8.4,13.2,12.4,19.9c4.9,8.2,11.5,10.7,20.8,8.5
		c11.2-2.6,19.4-10.2,27.9-17c10.7-8.5,21.2-17.3,33-24.2c6.5-3.8,13.4-6.6,20.8-8.4c4.4-1,8.8-0.7,13.2-0.5c2,0.1,3.9,0.5,5.2,2.2
		c6,2.9,6.5,5.2,1.8,9.8c-3.9,3.9-7.9,7.6-11.8,11.4c-27.8,17.6-56.9,33.2-85.3,49.8c-16.9,9.9-34,19.6-50.9,29.5
		c-1.3,0.8-2.4,1.8-3.6,2.7C228.3,495,223.7,491.1,220,485.9z"/>
	<path class="st2" d="M228.1,393.9c-4.4-1.6-8.8-1.9-13.2-0.1c-1.6-1.5-3.5-0.8-5.2-0.8c-15.3-0.1-30.6-0.1-45.9,0
		c-3.3,0-7.2-0.2-8.1-3.5c-1.2-4.4-1.8-9.3,0.7-13.6c1.4-2.5,4.4-1.9,6.9-1.9c29.5,0,58.9,0,88.4,0c17.5,0,35,0,52.4,0
		c41.5,0,82.9,0,124.4,0c1.9,0,4,0.7,5.7-1c3.8,1.9,7.8,0.8,11.7,1c5.6,0.2,7.1,1.5,7.2,7c0,1.3,0,2.7,0,4c0,6-1.9,8-8,8
		c-18.6,0-37.2,0-55.7,0c-1.7,0-3.7-0.7-5.2,0.9c-6.4-1.2-12.8-1.6-19.2,0c-4.2-1.2-8.1,0.8-12.3,0.8c-38.5-0.2-77.1-0.1-115.6-0.1
		C234,394.7,231.1,393.9,228.1,393.9z"/>
	<path class="st3" d="M234,496.8c0.1-1.5,1.1-2.2,2.3-2.9c26.2-15.1,52.3-30.1,78.5-45.2c18.5-10.7,37-21.5,55.5-32.2
		c1.1-0.7,2.3-1.4,3.7-1.3c-0.9,1-1.7,2.1-2.6,3C337.6,452,303.6,486,269.7,519.9c-1.1,1.1-2,2.7-3.9,3c-6.8-3.2-11.9-8.8-17.8-13.2
		c-3.7-2.7-7.2-5.8-10.9-8.6C235.7,499.9,234.2,498.8,234,496.8z"/>
	<path class="st4" d="M234,496.8c9.9,8,19.8,16,29.7,24.1c0.7,0.6,1.4,1.4,2.1,2c-30.3,0-60.5,0-92.1,0c16-12.8,31.1-24.9,46.3-36.9
		C224.7,489.5,229.3,493.2,234,496.8z"/>
</g>
</svg>
