<?xml version="1.0" encoding="utf-8"?>
<!-- Generator: Adobe Illustrator 19.0.0, SVG Export Plug-In . SVG Version: 6.00 Build 0)  -->
<svg version="1.1" id="Calque_1" xmlns="http://www.w3.org/2000/svg" xmlns:xlink="http://www.w3.org/1999/xlink" x="0px" y="0px"
	 viewBox="0 0 612 792" style="enable-background:new 0 0 612 792;" xml:space="preserve">
<style type="text/css">
	.st0{fill:#B0E0F7;}
	.st1{fill:#434B56;}
	.st2{fill:#F9E48E;}
	.st3{fill:#F8B98E;}
</style>
<g>
	<path class="st0" d="M175.2,411c2.2,0,4.1,0,5.9,0c87.4,0,174.9,0,262.3,0c6.1,0,6.1,0,4.3,5.7c-15.6,49.3-31.2,98.5-46.8,147.8
		c-1.1,3.5-2.6,6.8-3.7,10.3c-2,6.3-6.7,8.7-12.8,9.2c-7.3,0.6-14.6,1-21.9,1c-45.1,0-90.3-0.1-135.4,0.1c-3.9,0-5.2-1.2-6.2-4.9
		c-14.9-55.7-30.1-111.3-45.2-167C175.5,412.7,175.4,412.2,175.2,411z"/>
	<path class="st1" d="M570.5,165.2c-6.8-0.2-13.7-0.3-20.5-0.6c-52.6-1.9-105.2-3.7-157.8-5.6c-21.5-0.8-42.9-1.5-65.8-2.3
		c2-0.3,2.7-0.5,3.3-0.6c43.1-2.7,86.1-5.4,129.2-8c38.1-2.3,76.1-4.6,114.2-7c7.6-0.5,12.7-6.2,12.3-13.5c-0.4-7.1-5.9-12-13.4-12
		c-3.7,0-7.3,0.2-11,0.3c-17.3,1.1-34.6,2.3-51.8,3.3c-51.9,3.2-103.7,6.4-155.6,9.6c-44.1,2.7-88.1,5.3-132.2,8
		c-10,0.6-15.2,9.1-11.4,18.5c0.5,1.2,1.2,2.1,0.7,3.7c-4.2,12.9,0.5,19.5,13.9,19.9c9.4,0.2,18.8,0.2,28.4,1.3
		c-11,24.2-7.3,45.3,10.7,64.5c8.2,8.7,7.6,24.2-0.4,32.6c-16.7,17.4-20.7,37.2-12.2,59.7c0.2,3.6,2,6.5,4,9.4
		c1.9,2.7,4.2,5.2,6.4,7.7c6.1,6.7,7.4,14.7,5.4,23.3c-1,4.2-3.3,6.4-8.1,6.4c-22.8-0.1-45.6,0-68.4-0.1c-4.9,0-5.2-0.6-2.6-4.7
		c5.8-9,11.8-17.7,17.6-26.6c1.8-2.8,4.2-4,7.5-3.9c3.7,0.1,7.3,0.2,11-0.1c7.1-0.6,11.2-4.6,12-11.5c0.1-10.4-4.8-15.4-15.1-15.5
		c-3.8,0-7.7-0.2-11.5,0c-3.2,0.2-5.6-0.9-8-3c-14.1-12.5-28.2-24.9-42.4-37.3c-7.3-6.4-12.1-6.6-20.1-0.9
		c-18.6,13.2-37.2,26.3-55.9,39.5c-10,7.1-10.6,15-1.8,23.4c17.6,16.6,34.8,33.5,52.8,49.6c9.1,8.1,14.3,17.2,17.4,29
		c16.1,61.6,33.1,122.9,49.6,184.4c1,3.7,2.6,4.9,6.5,4.8c15.7-0.3,31.3,0,47-0.1c42-0.3,84,0.7,125.9-0.6
		c21.4-0.7,36.2-9.8,42.5-30.9c0.3-1.1,0.8-2.2,1.1-3.3c17.6-55.4,35.3-110.8,52.8-166.3c1-3.3,2.7-5.9,5.2-8.3
		c20.8-19.5,41.5-39.1,62.2-58.7c8.2-7.8,7.7-16-1.4-22.5c-19.1-13.6-38.3-27.1-57.5-40.6c-6.9-4.9-12.1-4.6-18.5,0.9
		c-10.1,8.8-20.7,16.9-29.9,26.6c-10.7,11.3-22.6,16.4-38.3,14.6c-11.5-1.3-16.2,4.7-15.6,16.4c0.9,6.1,5.1,9.9,12,10.3
		c5.3,0.4,10.7,0.3,16,0.1c4.5-0.2,7.6,1.6,9.8,5.4c5.3,9,11.4,17.6,17.2,26.4c0.6,0.9,1.7,1.7,1.1,3c-0.3,0.3-0.6,0.5-0.9,0.5
		c-19.3,0.1-38.6,0-57.9,0.1c-3.4,0-3.6-1.5-3.3-4.4c1.5-12.2,0.1-23.9-6.2-34.7c-1.3-2.2-2.4-4.4-4.9-5.5c-1.6-1.9-3.3-3.7-4.9-5.6
		c-10-10.9-10-25.1,0.1-35.9c20-21.6,20.9-50.9,0.9-72.5c-9.7-10.5-11.6-27.1-0.3-38.5c1.8-1.8,3.2-2.8,5.8-2.7
		c24.5,0.9,48.9,1.6,73.4,2.5c42.9,1.5,85.8,3,128.7,4.7c5.4,0.2,9.8-1.1,13.5-5C588.6,174.4,583.3,165.7,570.5,165.2z M181.6,338.6
		c-8.7,13-17.2,26-26,39.3c-15.2-14.4-30.2-28.6-45.2-42.7c-2.1-1.9-1.3-2.8,0.5-4.1c11.4-8,22.9-16.1,34.2-24.2
		c1.8-1.3,2.9-1.4,4.7,0.2c10.2,9.1,20.5,18.1,30.7,27.1C182,335.5,183.1,336.4,181.6,338.6z M444.3,334.3c10.3-9,20.5-17.9,30.7-27
		c1.6-1.5,2.8-1.7,4.7-0.3c11.3,8.1,22.7,16.2,34.2,24.2c2.2,1.5,2.5,2.5,0.4,4.4c-14.9,14-29.7,28-44.9,42.4
		c-8.8-13.5-17.2-26.4-25.8-39.2C442.2,336.6,442.7,335.7,444.3,334.3z"/>
	<path class="st2" d="M293.1,181.5c-5.7,12.2-7.6,24.4-4.2,37.2c2.5,9.3,7.3,17.1,13.7,24c9.9,10.8,10,25.4,0,35.9
		c-20.5,21.7-20.5,51.8-0.1,73.7c7.5,8,9.4,17.2,5.7,27.7c-1.3,3.6-3.1,5.7-7.2,5c-1.6-0.3-3.3-0.2-5,0c-2.6,0.2-2.9-0.6-2.3-3.1
		c4-18.9-1.5-35.1-14.5-49c-9.2-9.9-9.2-25,0.1-34.8c20.8-21.9,21.1-51.6,0.7-74.2c-10.3-11.4-10.4-24.7-0.3-36.4
		c0.3-0.4,0.8-0.7,1-1.1C282.6,180,287.5,180.5,293.1,181.5z"/>
	<path class="st3" d="M341,385c-6.9,0-6.9,0-6-5.8c2.6-17.3-2.3-32.3-14.1-45c-10.8-11.7-10.8-25.7,0.2-37.4
		c19.5-21.1,19.5-51.2,0-72.3c-10.8-11.7-10.9-25.1-0.7-37.2c2.7-3.1,4.7-6,9.6-4.8c2.6,0.6,2.8,1.2,1.9,3.4c-2.4,5.9-3.8,12-4,18.4
		c-0.3,14.8,5,27.3,15,38c10.3,11.1,10.5,25.2,0.3,36.2c-20.7,22.4-20.5,52.3,0.5,74.6c6.7,7.1,8.5,15.6,5.8,25
		C348.2,382.9,346.2,386.6,341,385z"/>
</g>
</svg>
