<?xml version="1.0" encoding="utf-8"?>
<!-- Generator: Adobe Illustrator 19.0.0, SVG Export Plug-In . SVG Version: 6.00 Build 0)  -->
<svg version="1.1" id="Calque_1" xmlns="http://www.w3.org/2000/svg" xmlns:xlink="http://www.w3.org/1999/xlink" x="0px" y="0px"
	 viewBox="0 0 612 792" style="enable-background:new 0 0 612 792;" xml:space="preserve">
<style type="text/css">
	.st0{fill:#E4BF76;}
	.st1{fill:#5F300F;}
	.st2{fill:#A11D1D;}
	.st3{fill:#BF1818;}
	.st4{fill:#F6AB06;}
	.st5{fill:#EDEDED;}
	.st6{fill:#AC1B1B;}
	.st7{fill:#97722E;}
	.st8{fill:#C39C57;}
	.st9{fill:#C49D57;}
	.st10{fill:#9C1515;}
	.st11{fill:#DDDDDD;}
	.st12{fill:#EFEFEF;}
	.st13{fill:#891B16;}
	.st14{fill:#BD9752;}
	.st15{fill:#ECECEC;}
	.st16{fill:#E4C077;}
	.st17{fill:#BF9744;}
	.st18{fill:#DEB870;}
	.st19{fill:#D6AE68;}
	.st20{fill:#F5DBA9;}
	.st21{fill:#6A3714;}
	.st22{fill:#CD9417;}
	.st23{fill:#C4A5A4;}
	.st24{fill:#C32C2C;}
	.st25{fill:#FEFEFE;}
	.st26{fill:#D5B068;}
	.st27{fill:#E9C785;}
	.st28{fill:#E3BE74;}
	.st29{fill:#F5DBA8;}
</style>
<g>
	<path class="st0" d="M53.2,469.1c0-25.2,8.4-47.6,23.7-67.3c19.4-25,45.2-39.2,76.4-43.5c6.6-0.9,13.3-1,19.9-1
		c29.3-0.2,58.6-0.2,87.9-0.3c0,0.3,0.1,0.6,0.1,0.9c-0.4,0.5-0.8,0.9-1.4,1.1c-8.9,1.2-17.8,0.3-26.8,0.5c-7.6,0.2-9.3,1.7-9.5,9.3
		c-0.3,7.1,0.6,14.2-0.5,21.3c-0.4,1.3-1.6,2.1-2.4,3.1c-3.5,4.2-3,8.5,1.4,11.8c0.8,0.6,1.6,1.2,1.7,2.3c0,18.5,0,36.9,0,55.4
		c0,2.3,0.2,4.7-1.4,6.7c-2.2,1.5-4.8,1.3-7.2,1.3c-51.5,0-103.1,0-154.6,0C57.8,470.6,55.2,471,53.2,469.1z"/>
	<path class="st1" d="M56,549.1c-9.8-0.5-14.8-5.7-14.8-15.6c0-8.7,0.3-17.3,0.3-26c0-7.4,3-12.4,10.2-14.7c2.7-1.4,4.9,0.3,7,1.4
		c16.3,8.7,33,16.8,49.4,25.2c7.5,3.9,14.7,4.7,23,2c27.6-8.8,55.2-17.7,83-25.9c9.3-2.7,18.9-4.1,28.6-4.1c38,0,76,0,114,0
		c14.6,0.1,29.2,0,43.7,0.1c3.9,0,7.7,0.5,9.1,5.2c-0.9,3.1-3.6,2.7-5.8,2.7c-9.5-0.3-19,0.9-28.4,1.1c-5.2,0.1-5.6,0.6-5.7,5.8
		c0,1.2,0,2.3-0.1,3.5c-0.4,4.8-2.2,6.5-7,6.5c-4.7,0-6.9-1.8-6.9-6.6c0-10.3-0.6-9.2-10.5-9.3c-5.2,0-10.3,0.1-15.5,0
		c-3.6-0.1-5.3,1.4-5.1,5c0.1,1.2,0,2.3-0.1,3.5c-0.3,5.6-2.1,7.5-7.1,7.4c-4.8-0.1-6.5-1.9-6.8-7.2c-0.5-8.7-0.5-8.6-9.1-8.7
		c-5.8-0.1-11.6,0.3-17.4,1c-3.1,0.3-4.5,1.8-4.4,4.8c0,1,0,2-0.1,3c-0.4,5.3-2.1,7.1-6.9,7.2c-4.9,0-6.7-1.7-7.1-7
		c-0.6-7.9-0.6-7.9-8.4-7.9c-5.8,0-11.7,0.1-17.5,0c-3.6,0-5.2,1.5-5.1,5.1c0.1,1.2,0,2.3-0.1,3.5c-0.5,4.5-2.3,6.2-6.7,6.3
		c-4.5,0.1-6.4-1.5-7.1-5.9c-1-6-1-6.2-6.9-4.4c-8.9,2.8-18,4.8-26.3,9.2c-1.7,0.9-3.5,1-5.3,1.2c-3.7,0.4-7,1.7-11,3
		c2.9,1.3,5.2,0.8,7.5,0.8c74,0,147.9,0,221.9,0c4.5,0,9.1-0.4,12.8,3c2.2,6,2.2,12.1,0,17.9c-2.9,7.7-9.6,9.4-17,9.2
		c-111,0.1-222.1,0-333.1,0C60.6,550.6,58,551,56,549.1z"/>
	<path class="st2" d="M409,497c-1.9-3.2-4.9-4-8.4-4c-14.9,0-29.7-0.1-44.6-0.1c1.1-3,3.8-2.2,5.9-2.2c10.6-0.2,21.2-0.1,31.8-0.1
		c1.5,0,3,0.1,4.5-0.1c4.8-0.6,5.6-2.7,2.8-6.9c-1.2-1.1-2.9-1.2-4.1-2.3c1.6-4.1,5-7.8,3.7-12.7c-0.2-8.3-2.5-16.3-2.8-24.5
		c2-5.3,6.1-8.8,10.8-11.6c2.6,0,4,2.1,5.6,3.7c7.8,7.7,15.6,15.6,23.4,23.3c15.7,15.8,31.5,31.7,47.4,47.3c2,2,3,3.9,2,6.6
		c-1.2,20.4-2.4,40.8-3.6,61.2c-0.5,7.8-1,15.6-1.5,23.4c-0.2,2.8,0.2,5.7-0.9,8.4c-0.8,0.1-1.6,0.4-2.4,0.4
		c-23.9,0-47.7,0.1-71.6,0c-1.7,0-3.3-0.1-4.8-1.1c-2-1.8-1.6-4.2-1.7-6.5c-0.1-10.3-0.3-20.6,0.1-30.8c0.3-6.8-0.9-13-3.9-19
		c11.7,0.8,17.4-6.9,16.2-16.7c-0.3-2.8-0.1-5.6-0.1-8.4c-1.8-2.3-1.4-5-1.4-7.6C411.6,509.8,411.9,503.2,409,497z"/>
	<path class="st3" d="M261.1,357c-1.6-26.3-3.3-52.6-4.9-78.9c1.7-0.9,3.6-0.7,5.4-0.7c36.3,0,72.5,0,108.8,0c3,0,6-0.5,8.7,1.3
		c1.6,2,1.5,4.4,1.5,6.7c0,32.3,0.1,64.6,0,97c0.1,6.2-4.3,9.1-8.7,12.1c-1.8,0-3-1.2-4.2-2.4c-19.4-19.2-42.8-29.9-69.8-32.9
		c-0.7-0.1-1.3-0.2-2-0.4c-4.6-1.1-5.2-4.9-5.3-8.6c-0.2-6.8-0.9-13.6-1-20.4c-0.2-8.8-1.6-17.6-1.2-26.4c0.1-1.3-0.2-2.7-0.5-4
		c-1.1-4.5-3.4-6.1-7.9-5.8c-4.3,0.3-5.5,3.1-5.6,6.8c-0.3,11.1,0.9,22.2,1.6,33.3c0.4,6.8,0,13.6,1,20.4c0.2,1.2-0.2,2.3-1.1,3.2
		c-5,1.2-9.9,2.2-14.7-0.6L261.1,357z"/>
	<path class="st4" d="M401,481.9c3.2,0.9,4.1,3.4,3.6,6.2c-0.6,3.1-2.9,4.1-5.9,4.1c-12.4,0-24.9,0-37.3,0c-1.8,0-3.7-0.5-5.3,0.6
		c-38.8,0-77.6,0.1-116.4,0.2c-16.1,0-31,5.7-46,10.4c-21.6,6.7-43.1,13.5-64.7,20.3c-6.7,2.1-13.1,1.4-19.3-1.8
		c-17.3-8.8-34.7-17.6-52.1-26.4c-1.9-1-3.9-1.7-5.9-2.6c-5.4-4.4-5.5-7.7-0.3-10.9c2.5-0.6,4.9-0.6,7.4,0.1c2.2,2.2,5,1.5,7.6,1.5
		c98.6,0,197.3,0,295.9,0c7.7,0,15.3,0.1,23-0.1c3.7-0.1,7.6,1,11.1-1.7C397.3,480.9,399.4,481.2,401,481.9z"/>
	<path class="st5" d="M501.9,293.8c-0.9,12.7-1.7,25.4-2.7,38.1c-0.5,5.8-0.3,11.6-0.9,17.4c-1.3,13-1.5,26.1-2.3,39.2
		c-0.6,9.6-1.4,19.2-2.1,28.7c-3.4-0.5-4.6-3.6-6.5-5.7c-6.3-6.6-13.6-10.6-22.9-9.9c-6.8,0.5-13.3,2.7-19.4,5.8
		c-1.6,0.8-3.2,1.7-4.9,2.3c-1.6,0.6-3.3,1.2-4.1-1.1c-0.8-2.6-0.5-5.3-0.5-7.9c-0.1-21.1,0.1-42.3-0.1-63.4
		c-0.1-1.2,0.1-2.3,0.7-3.3c7-6.8,15.4-11.6,23.5-16.8C473.1,308.3,487.3,300.7,501.9,293.8z"/>
	<path class="st6" d="M437,410c7.5-3.8,14.9-7.7,23.4-9.1c12.2-2.1,21.7,2.2,29.4,11.4c1.4,1.6,2.7,3.3,4.1,5
		c-1,13.4-2,26.9-2.9,40.3c-1.2,17.9-2.2,35.9-3.4,53.8c0,0.6-0.4,1.3-0.6,1.9c0.2-2.4-0.9-3.8-2.6-5.5
		c-15.7-15.4-31.2-31-46.7-46.6c-0.3-0.3-0.5-0.8-0.8-1.3c-0.8-1.3-1.5-2.7-1.5-4.2c0-14.7-0.7-29.5,0.4-44.2
		C436.1,411,436.5,410.4,437,410z"/>
	<path class="st7" d="M401.8,468.9c0.8,5,0,9.3-4.7,12c-1.7,1.4-3.4,2.6-5.7,2.6c-8.9-0.1-17.7,0.5-26.6-0.3c-2.9-1-5.9-0.7-8.9-0.7
		c-96.2,0-192.5,0-288.7-0.1c-3.1,0-6.8,1.3-9.1-2.4c-4.4-2.4-5.5-6.3-4.9-10.9c53.8,0,107.6-0.1,161.3-0.1c2.5,0,5-0.1,7.5-0.1
		c1.5-1.3,3.3-1.4,5.2-1.4c38.6,0,77.1-0.2,115.7,0.1c17.8-0.3,35.5-0.1,53.3-0.1C398.2,467.4,400.2,467.4,401.8,468.9z"/>
	<path class="st8" d="M396.8,549.1c4,3.1,5.4,7,5.3,12.1c-0.3,14.6,0,29.2,0,43.8c-0.3,0.1-0.6,0.1-0.9,0.2
		c-0.5-0.3-0.9-0.8-1.2-1.4c-1.3-8.4-0.3-16.9-0.6-25.3c-0.1-2.6,0-5.3,0-8c0.1-10.7-0.7-8.8-8.9-9.2c-14.9,0.2-29.8,0.2-44.7,0
		c-36,0.3-71.9,0.1-107.9,0.1c-5.3,0-10.7,0.2-16-0.1c-24.8,0.3-49.6,0.1-74.3,0.1c-20.5,0-40.9,0.2-61.4-0.1
		c-7.4,0.2-14.7,0.2-22.1,0c-3.8-0.2-7.7,1-11.2-1.5c-0.8-4.1-0.4-7.9,2.9-10.9c2-0.1,4-0.1,6-0.1c109.5,0,218.9,0,328.4,0
		C392.5,548.9,394.7,549.1,396.8,549.1z"/>
	<path class="st9" d="M345,616.8c-22.1,0-44.3,0-66.4-0.1c-69.3,0-138.5,0-207.8-0.1c-2.7,0-5.3-0.1-8-0.4c-7.8-0.7-10-3.3-9.7-11.3
		c3.4-2.6,7.3-1.3,11.1-1.5c7.7-0.2,15.4-0.2,23,0c31.7-0.3,63.5-0.1,95.2-0.1c13.1,0,26.3-0.2,39.4,0.1c18.7,0,37.3-0.6,56,0.3
		c2.4,0.8,4.9,0.8,7.4,0.8c17.5,0,34.9,0,52.4,0C346.2,604.6,348.8,609,345,616.8z"/>
	<path class="st10" d="M379,279c-38.8,0-77.6,0-116.5,0c-2.1,0-4.4,0.4-6.3-0.9c-0.3-3.3-0.7-6.5-1-9.8c1.1-3.1,3.9-2.8,6.3-2.8
		c14.3,0.1,28.6-0.2,42.9-0.1c14.5,0.1,28.9-0.3,43.4,0.1c8.6-0.2,17.3-0.2,25.9,0c2.5,0,5,0.1,7.6,0c8.9-0.2,17.7-0.2,26.6,0
		c2.6,0,5.1,0,7.7,0c19.9-0.3,39.8-0.2,59.7-0.1c7.6,0.1,15.3-0.5,22.9,0c2.2,0.1,5.4-0.5,5.2,3.5c-0.7,3.3,0.5,6.8-0.9,10.1
		c-1.7,1.3-3.7,1.5-5.7,1.5c-19.8,0-39.6,0.2-59.4-0.1c-11.7,0.2-23.4,0.2-35.1,0c-5.8,0.2-11.6,0.1-17.5,0.1
		C382.6,280.6,380.6,280.5,379,279z"/>
	<path class="st11" d="M511,253c0.3,2.3,0.7,4.7,1,7c-1.6,1.6-3.6,1.4-5.6,1.4c-5,0.1-10,0.1-14.9,0c-3.1,0-5.7,0.4-8.1,2.8
		c-2.5,2.6-5.9,2.7-8.4,0.1c-2.4-2.4-5-3-8.1-2.9c-3.3,0.1-6.6,0-10,0c-2.4,0-4.4,0.5-6.2,2.4c-2.9,3-7.3,3.1-10.1,0.1
		c-2-2-4.1-2.6-6.7-2.6c-3.8,0-7.6,0-11.5,0c-2.5,0-4.5,0.7-6,2.9c-5,2.6-7.1,2.4-10.4-1.4c-1.2-1.4-2.4-1.5-3.9-1.5
		c-4.2-0.1-8.3,0-12.5,0c-3,0-5.5,0.1-7.7,3.1c-1.9,2.6-5.3,2.1-8,0.1c-0.7-0.5-0.9-1.4-1.5-2c-2.4-2.3-20.9-1.5-23.3,1
		c-3.2,3.3-6.5,3.5-9.9,0.2c-1.7-1.7-3.6-2.2-5.8-2.2c-3.7,0-7.3,0-11,0c-2.8,0-5,0.5-7.2,2.6c-2.9,2.8-7.1,2.7-9.7-0.1
		c-1.8-1.9-3.7-2.5-6.2-2.5c-2.8,0-5.7,0-8.5,0c-2.4,0-4.4,0.6-6.3,2.4c-3.5,3.2-7.1,3.1-10.5-0.3c-1.8-1.8-3.7-2-5.9-2.1
		c-5.3,0-10.7,0-16,0c-2.2,0-4.4,0.1-6.2-1.4c-0.6-3-0.2-5.7,2-8c1.8-1.6,4-1.4,6.2-1.5c4.7,0,9.3,0,14,0c2.2,0,4.2-0.3,6-1.9
		c3.2-2.8,6.5-2,10.1-0.3c7.1,3.4,14.5,4,21.6-0.4c3-1.8,6.5-2.2,8.9-0.1c3.2,2.8,6.6,2.7,10.3,2.7c3,0,6,0,9,0c1.9,0,3.5-0.4,5-1.8
		c3.2-2.9,6.6-2.9,9.9-0.1c1.7,1.5,3.4,1.9,5.5,1.9c4,0,8,0,12,0c2.7,0,5.1-0.3,7.3-2.3c2.5-2.2,5.9-2.5,8.3-0.3
		c2.8,2.6,5.9,2.7,9.2,2.6c2.8,0,5.7,0,8.5,0c2.5,0,4.8-0.4,6.9-2.2c3-2.5,6.7-2.7,9.7-0.3c2.6,2.1,5.3,2.5,8.3,2.5
		c3.2,0,6.3,0,9.5,0c2.4,0,4.4-0.5,6.4-2.1c3.2-2.6,6.9-2.7,10.1-0.1c2.1,1.7,4.3,2.3,6.9,2.2c3.5,0,7,0,10.5,0
		c2.4,0,4.5-0.4,6.4-2.1c2.9-2.5,6.3-2.5,9.2-0.3c2.4,1.9,5,2.3,7.9,2.3c4.5,0,9-0.1,13.5,0C507.2,250.6,509.6,250.5,511,253z"/>
	<path class="st6" d="M437,279c21.7,0,43.5,0.1,65.2,0.1c-0.1,4.9-0.2,9.8-0.4,14.7c-0.4,1.6-1.7,2.3-3,3
		c-22,10.2-42.3,23.1-61.9,37.2c-1.8-1.9-1.6-4.3-1.6-6.6c-0.1-13.9,0-27.9,0-41.8C435.4,283.3,435.3,280.9,437,279z"/>
	<path class="st5" d="M511,253c-6.5-2.1-13.2-0.5-19.8-1c-3.3-0.3-6.7,1.1-9-3.2c-0.8-1.6-5.4-2.2-7,1.2c-1,2.1-2.3,2.1-3.9,2.1
		c-5.8,0-11.7,0-17.5,0c-1.3,0-2.5,0.2-3.5-1.2c-3.1-4.1-6-4-9.5,0.2c-1.1,1.3-2.4,1-3.6,1c-5.7,0-11.3,0-17,0
		c-1.8,0-3.3,0.2-4.3-2.3c-1-2.6-7.5-2.6-8.6,0c-1,2.4-2.5,2.2-4.3,2.3c-4.5,0-9,0.1-13.5,0c-3-0.1-6.3,1.3-8.3-3.2
		c-0.7-1.6-5.4-2.2-6.9,1.1c-1,2.1-2.3,2.1-3.9,2.1c-6.2,0-12.3,0-18.5,0c-1.7,0-3,0-3.9-2.1c-1.2-2.7-6.5-2.9-7.6-0.3
		c-1,2.3-2.3,2.4-4.2,2.4c-5.7,0-11.3,0-17,0c-1.8,0-3.3,0.2-4.3-2.3c-1.1-2.6-7.5-2.6-8.6,0c-1,2.4-2.5,2.2-4.3,2.3
		c-4.2,0-8.3,0-12.5,0c-2.4,0-4.6,0.4-6.2-2.7c-1.2-2.5-6.9-1.8-8.2,0.9c-1,2.1-2.5,1.8-4.1,1.8c-7.7,0-15.3,0-23,0
		c1.1-5.4,4.7-7,9.8-7c36.7,0.1,73.5,0,110.2,0c7.7-2.5,15.3-2.5,23,0c36.4,0,72.8,0,109.2,0C506.5,245,509,246.9,511,253z"/>
	<path class="st12" d="M368,241c0-30.4,0.1-60.8-0.1-91.2c0-4.1,1.4-5.3,5.2-4.9c3,0.3,6,0.1,9,0.1c2.1,2.4,1.6,5.3,1.6,8.1
		c0,26.3,0,52.7,0,79C383.6,242.6,378,245.8,368,241z"/>
	<path class="st11" d="M368,241c3,0,6-0.3,9,0c4,0.4,5.1-1.1,5.1-5.1c-0.2-27-0.1-54-0.1-81c0-3.3,0-6.7,0-10c9-0.1,9-0.1,9,8.9
		c0,30.4,0,60.7,0,91.1c-7.7,0-15.3,0-23,0C368,243.7,368,242.4,368,241z"/>
	<path class="st13" d="M402.1,605.1c24.8,0,49.6,0,74.4,0c1.6,0,3.4-0.5,4.6,1.2c-0.1,7.5-3.2,10.7-10.4,10.7
		c-11.3,0-22.5-0.1-33.8-0.1c-11.2-0.7-22.5-0.1-33.7-0.3c-4.8-0.1-4.9-0.1-3.6-4.5c0.7-2.3,0.5-5,2.2-7L402.1,605.1z"/>
	<path class="st14" d="M401.8,604.9c0.4,3.8,0.5,7.6-3.1,11.2c11.7,0,22.2,0,32.8,0c1.8,0,3.6-0.5,5.3,0.6
		c-13.8,0.1-27.6,0.2-41.4,0.2c-16.8,0-33.6-0.1-50.5-0.2c-0.1-12.2,1.5-10.8-10.9-10.8c-17-0.1-33.9,0-50.9,0
		c-1.7,0-3.7,0.7-5.2-0.9c1.5-1.6,3.6-1.6,5.6-1.6c20.4,0,40.9-0.2,61.3,0.1c15.3-0.2,30.5-0.2,45.8,0c3.5,0.2,7.1-0.9,10.3,1.4
		C401.3,605,401.5,605,401.8,604.9z"/>
	<path class="st15" d="M246,260c8.3,0,16.6,0,25,0c1.8,0,3.3-0.2,4.2,2.3c1.3,3.6,7.1,3.9,8.5,0.4c1.1-2.9,2.9-2.7,5-2.7
		c3.8,0,7.7,0,11.5,0c2.7,0,5.4-0.7,6.5,3.4c0.8,2.8,6.9,2.3,8.1-0.9c1-2.7,2.6-2.5,4.6-2.5c4.8,0,9.7,0,14.5,0
		c2.8,0,5.8-0.9,6.9,3.5c0.7,2.6,5.9,2.1,7.2-0.8c1-2.4,2.5-2.7,4.7-2.7c5,0,10,0,15,0c3,0,5.7-0.4,7.2,3.6c1,2.6,6.3,2,7.1-0.9
		c0.8-2.8,2.4-2.7,4.5-2.7c4.8,0,9.7,0,14.5,0c2.8,0,5.4-0.7,7.1,3.3c1.4,3.2,5.3,1.3,8.2,0.6c1.1,1.5,0,2.3-1,3.1
		c-2.3,0.4-4.6,0.4-7,0c-9-5.7-18-5.7-27,0c-2.3,0.5-4.6,0.5-7,0.1c-8.7-5.9-17.4-5.5-26,0c-13.4,0.1-26.8,0.2-40.3,0.3
		c-15.8,0-31.5,0-47.3,0c-1.8,0-3.7-0.4-5.3,0.9c-1-1.5-2.6-1.2-4-1.3C244.6,266.7,244.3,266.4,246,260z"/>
	<path class="st15" d="M415,267.1c0.3-1,0.7-2.1,1-3.1c-0.4-3,0.8-4.2,3.9-4c4.8,0.2,9.7,0,14.5,0.1c3,0,6.1-1,7.3,3.6
		c0.7,2.7,7.1,1.9,8-1.1c0.8-2.4,2.1-2.6,4-2.5c5,0,10,0,15,0c2.8,0,5.8-0.9,6.9,3.6c0.5,2.3,6.1,2.1,7-0.4c1.2-3.3,3.3-3.2,5.9-3.2
		c7.8,0,15.6,0,23.5,0c2,5.5,1.2,6.8-4.2,6.9c-1.9,0-3.5,0.4-4.6,2c-0.9-3-3.3-1.6-5-1.6c-25.9-0.1-51.8,0-77.7,0
		C418.6,267.4,416.8,267.2,415,267.1z"/>
	<path class="st16" d="M64,605c-3.6,0-7.2,0.1-10.9,0.1c0-15-0.1-30-0.1-45.1c3.7,0,7.3,0.1,11,0.1c1.5,1.6,1.5,3.6,1.6,5.6
		c0.1,11.2,0.1,22.5,0,33.7C65.6,601.4,65.5,603.4,64,605z"/>
	<path class="st17" d="M58.1,480c2.3,1.4,4.8,1,7.3,1c97.8,0,195.6,0,293.4,0.1c2.1,0,4.4-0.8,6.2,0.9c-1.8,2-4.3,1.6-6.6,1.6
		c-98.1,0-196.1,0-294.2,0c-2.1,0-4.4,0.2-6.2-1.4c-2.3-0.1-4.6-0.1-6.8-0.2C53.2,480,56.4,482.8,58.1,480z"/>
	<path class="st18" d="M343,468.9c-40.3,0-80.7,0-121,0c0-18.8,0-37.6,0-56.5c0-2.1-0.3-4.4,1-6.3c2.6-5.2,2.2-10.3-1-15.1
		c0-7.9-0.1-15.9,0-23.8c0-6.7,2.6-9.1,9.2-9.1c9.9,0,19.9,0,29.8,0c6.2-1.2,12.6,0.2,18.8-1.1c1.8-0.4,3.5,0.7,5,1.9
		c20.6,17.2,37.4,37.4,47.9,62.4c0.7,1.7,1.9,3.2,2.7,4.8c0.1,0.5,0.1,1-0.1,1.5c-2.4,5.7-0.4,9.9,4.5,13.1
		c1.7,7.4,3.1,14.8,4.3,22.3C344.4,464.9,344.6,467.1,343,468.9z"/>
	<path class="st19" d="M343,468.9c0.2-7.7-2.1-15-3.4-22.4c-0.4-2.2-0.5-4.3-0.6-6.4c0-1.5,1-2.7,1.4-4.1c1.4-5.6,0.1-8.1-5.4-9.9
		c-2.9-0.6-3-3.2-3.9-5.3c-6.1-14.3-14.5-27-24.5-38.9c-6.8-8-14.7-14.7-22.3-21.8c-1.7-1.6-3.2-2-5.2-2c-6,0-12,0-17.9,0
		c0.1-0.4,0.2-0.8,0.3-1.1c4.9,0,9.8,0.1,14.7,0.1c5-2.5,10.3-2,15.3-0.5c1.9,0.6,3.8,0.8,5.7,1.3c26.4,2.3,49.2,12.5,68.7,30.4
		c2.1,1.9,4.1,3.8,6.2,5.7c3.9,3.1,7.2,6.9,10,11c6.9,10,12.3,20.7,16,32.2c0.6,1.9,1.1,3.8,0.8,5.8c1,8.6,3.3,17.1,3.1,25.9
		C382.2,468.9,362.6,468.9,343,468.9z"/>
	<path class="st20" d="M222,390.9c5.4,4.4,5.8,10.7,1,15.1c-3.4,0.3-5.6-1.3-5.9-4.6C216.7,397.2,216.4,392.6,222,390.9z"/>
	<path class="st20" d="M186,432.3c0.1,2.2,0.1,4.1-1.1,5.9c-1.7,2.4-5.1,2.6-6.6,0.1c-2-3.3-2-7-0.4-10.4c0.7-1.5,2.2-3.4,4.3-2.6
		C185.2,426.5,186.5,429.1,186,432.3z"/>
	<path class="st20" d="M154,399.6c-0.3,2.8-0.2,6.4-4.7,6.4c-4.5-0.1-4.3-3.6-4.4-6.8c-0.1-3.7,0.5-7.9,4.8-7.7
		C153.5,391.6,154,395.7,154,399.6z"/>
	<path class="st20" d="M109.1,433.8c0.1,0.6-0.4,2.1-1.3,3.6c-0.9,1.5-2,2.6-4,2.5c-2.1-0.1-2.8-1.7-3.4-3.2c-0.5-1.4-1.1-3-0.8-4.4
		c0.6-2.9,0.1-7.3,4.5-7.1C108.2,425.4,108.9,429.1,109.1,433.8z"/>
	<path class="st21" d="M409,497c2.9,2.4,4,5.5,4,9.2c0,6,0,11.9-0.1,17.9c-4.2-2.1-8.6-2-13.1-2c-75.3,0-150.7,0-226,0
		c-2.1,0-5.7,1.3-6.1-1.6c-0.4-2.7,3.4-2.4,5.4-3.2c4.2-1.7,9.6-0.8,12.8-2.8c5.4-3.3,11.4-4.2,17-6.4c4.3-1.7,8.9-2.8,13.3-4.2
		c5.2-1.6,5.7-1.2,5.7,4.3c0.1,6.8,0.6,7.2,6.9,7c3-0.1,4.1-1.3,4.2-4.3c0.1-3.4-1.6-7.8,0.9-10c2.6-2.2,7-0.6,10.7-0.7
		c5.7-0.1,11.3,0.2,17-0.1c4.3-0.2,5.8,1.5,5.3,5.6c-0.1,1,0,2,0,3c0,6.3,0.6,6.8,6.8,6.5c2.9-0.1,4.2-1.2,4.2-4.2
		c0-3.3-0.8-7.2,0.6-9.8c1.6-2.7,5.9-0.7,8.9-1.4c7.1-1.6,14.3-0.5,21.4-0.7c2-0.1,3,1.3,3,3.2c0,2.2,0.2,4.4,0,6.5
		c-0.6,4.8,1.3,6.6,6.2,6.3c3.7-0.2,4.9-1.5,4.9-5.1c0.1-11,0.2-11,11.4-11c6.2,0,12.3,0.1,18.5,0c2.9-0.1,4.4,0.8,4.1,3.9
		c-0.2,2,0.2,4-0.1,6c-0.6,4.9,1.5,6.5,6.3,6.2c3.3-0.2,4.7-1.1,4.8-4.6c0.3-11.4,0.5-10.9,11.9-11.6c8.8-0.6,17.6-0.7,26.4-0.8
		C407.4,498,408.4,497.9,409,497z"/>
	<path class="st22" d="M58.1,482.1c71,0,141.9-0.1,212.9-0.1c31.3,0,62.6-0.1,94-0.1c8.4,0,16.9,0,25.3,0.1c2.4,0,4.6-0.4,6.8-1.1
		c1.3,0.3,2.9-0.3,4,1.1c-2,0.3-4.2-0.5-5.6,2.2c-0.9,1.8-3.4,0.9-5.1,0.9c-27.8,0-55.7,0-83.5,0c-80.8,0-161.7,0-242.5-0.1
		C62.1,484.9,58.7,486.4,58.1,482.1z"/>
	<path class="st3" d="M436.8,410.6c0.1,16.5,0.1,32.9,0.2,49.4c-7.9-7.7-15.8-15.5-23.8-23.2c-1.3-1.3-2.7-2.5-4-3.7
		c-0.5-0.2-0.7-0.6-0.6-1.2c7.5-7.8,15.8-14.8,24.9-20.7C434.6,410.6,435.6,410.1,436.8,410.6z"/>
	<path class="st23" d="M409.2,432.3c0.1,0.2,0.1,0.5,0.1,0.7c-4.1,2.7-7,6.6-10.5,9.9c-4.3-13.3-10.2-25.9-17.8-37.8
		c2.5-1,3.5,1.2,4.8,2.4c5.7,5.5,11.2,11.2,16.8,16.7C404.7,427.1,408.1,428.7,409.2,432.3z"/>
	<path class="st6" d="M379,279c7.7,0,15.3,0,23,0c1.3,1.5,1.5,3.3,1.5,5.1c0,25.7,0.3,51.3-0.2,76.9c0,0.6-0.1,1.1-0.2,1.7
		c-5.6,6.5-12.1,12.1-18.1,18.3c-1.3,1.4-2.5,3.2-4.9,3c-2-1.5-1.2-3.7-1.2-5.5C379,345.4,379,312.2,379,279z"/>
	<path class="st24" d="M297,357.8c-7-0.3-14-0.6-21-0.9c-1.4-18.8-2.5-37.7-3-56.6c-0.1-4.2,0.5-7.8,5.5-8.4
		c7.1-0.8,9.3,0.5,10.7,6.4c0.4,1.4,0.7,2.9,0.7,4.4c0.7,15.7,1.3,31.5,2,47.2C292.2,353.5,292.7,356.9,297,357.8z"/>
	<path class="st5" d="M380.2,384.1c5.8-5.7,11.6-11.3,17.4-16.9c1.3-1.2,2.4-2.8,4.3-3.2c1.9,1.8,1.6,4.3,1.6,6.5
		c0.1,16.1,0.1,32.2,0,48.2c0,2.3,0.2,4.7-1.7,6.5c-7.4-6.3-13.3-14-21-20c-2.8-3.9-7-6.7-9.1-11.3
		C374.6,390.6,378.2,388,380.2,384.1z"/>
	<path class="st25" d="M401.9,425.2c0-20.4,0-40.9,0.1-61.3c0.1-0.2,0.1-0.5,0.1-0.7c3.7-5.8,9.7-9.4,14.6-13.9
		c4.9-4.5,10.1-8.5,15.4-12.5c1-0.8,2.1-1.7,3.6-1c2,1.5,1.3,3.6,1.3,5.5c0,22.9,0,45.8,0,68.6c-0.1,0.2-0.2,0.4-0.2,0.6
		c-10.4,5.7-18.7,14.2-27.6,21.7C406.3,430.4,404,427.9,401.9,425.2z"/>
	<path class="st3" d="M435.7,335.8c-10.3,7.1-19.6,15.4-29,23.7c-1.5,1.3-3.1,2.5-4.6,3.7c0-28.1,0-56.1-0.1-84.2
		c11.7,0,23.3,0,35,0c0,18.3,0,36.6,0,55C436.6,334.6,436.1,335.2,435.7,335.8z"/>
	<path class="st0" d="M222,605c-45,0-90,0-135,0c-1.4-1.5-1.5-3.3-1.5-5.1c-0.1-12.5,0-24.9-0.1-37.4c0-0.8,0.2-1.6,0.6-2.4
		c45.3,0,90.7,0,136,0c1.5,1.6,1.6,3.6,1.6,5.6c0.1,11.3,0.1,22.5,0,33.8C223.6,601.4,223.5,603.4,222,605z"/>
	<path class="st18" d="M222,605c0-15,0-29.9,0-44.9c41.3,0,82.7,0,124,0c1.6,1.8,1.6,4,1.6,6.1c0,10,0.1,20,0,29.9
		c0,3.2-0.2,6.4-2.6,8.9c-22.3,0-44.6,0.1-67,0.1C259.3,605,240.7,605,222,605z"/>
	<path class="st26" d="M345,605c2-14.9,0.6-29.9,1-44.9c15,0,30,0,45,0c1.5,1.6,1.5,3.6,1.6,5.6c0.1,11.2,0.1,22.5,0,33.7
		c0,2-0.1,4-1.6,5.6C375.7,605,360.3,605,345,605z"/>
	<path class="st27" d="M86,560.1c1.2,1.8,1,3.8,1,5.8c0,13,0,26.1,0,39.1c-7.7,0-15.3,0-23,0c0-15,0-29.9,0-44.9
		C71.3,560.1,78.7,560.1,86,560.1z"/>
	<path class="st28" d="M391,605c0-15,0-30,0-44.9c10-0.1,10-0.1,10,9.7c0,11.7,0,23.5-0.1,35.2C397.6,605,394.3,605,391,605z"/>
	<path class="st15" d="M381,267.1c1.9-4.2,5.2-5.5,9.6-5.1c2.6,0.3,5.3,0.3,7.9,0c4.4-0.4,7.7,0.9,9.6,5.1
		C399,267.5,390,267.5,381,267.1z"/>
	<path class="st15" d="M348,267.1c5.7-7.5,20.9-7.5,26,0C365.3,267.6,356.7,267.6,348,267.1z"/>
	<path class="st29" d="M253.9,433.1c0.3-3.9,0.9-7.8,5-7.8c4.1,0,4.9,4.2,4.9,7.4c0,3-0.5,7-4.6,7.1
		C254.8,439.9,254.5,436,253.9,433.1z"/>
	<path class="st20" d="M300.1,398.8c-0.3,3.2,0.1,7.2-4.7,7.1c-4.3-0.1-4.3-3.8-4.4-6.9c-0.1-3.5,0.6-7.5,4.5-7.6
		C299.3,391.3,300.4,395.1,300.1,398.8z"/>
	<path class="st20" d="M335,426c3.8-2.3,6,0.3,6.7,3.2c0.9,3.8,1.4,8-2.7,10.9C332.3,438.7,330.7,432.9,335,426z"/>
</g>
</svg>
