<?xml version="1.0" encoding="utf-8"?>
<!-- Generator: Adobe Illustrator 19.0.0, SVG Export Plug-In . SVG Version: 6.00 Build 0)  -->
<svg version="1.1" id="Calque_1" xmlns="http://www.w3.org/2000/svg" xmlns:xlink="http://www.w3.org/1999/xlink" x="0px" y="0px"
	 viewBox="0 0 612 792" style="enable-background:new 0 0 612 792;" xml:space="preserve">
<style type="text/css">
	.st0{fill:#25B6D2;}
	.st1{fill:#6ACDE0;}
	.st2{fill:#6CCDE0;}
	.st3{fill:#FEFEFE;}
	.st4{fill:#E1E3E4;}
	.st5{fill:#F6B3B3;}
	.st6{fill:#EFF0F0;}
	.st7{fill:#FAC7C7;}
	.st8{fill:#3E3E3F;}
</style>
<g>
	<path class="st0" d="M72,404c0-9,0-18,0-27c1.1-3.4,0.2-7,0.5-10.5c-0.7-35.2,9-67.8,24.9-98.9c11.7-23,26.4-43.8,44.4-62.4
		c19.5-20.2,41.4-36.9,66.2-50c20.5-10.8,41.9-18.8,64.5-23.6c12.5-2.7,25.3-2.9,38-3.1c3.5-0.3,7.1,0.6,10.5-0.5c7.3,0,14.7,0,22,0
		c9,0.8,18,0.9,27,1.7c16.1,1.3,31.4,6,46.4,11.5c26.9,9.9,51.9,23.5,74,41.9c27.6,23.1,50.7,49.9,67.1,82.2
		c10.1,19.9,17.9,40.5,22.7,62.2c2.9,13.2,3,26.6,3.3,40c0.3,3.5-0.6,7.1,0.5,10.5c0,8.7,0,17.3,0,26c-1.1,7.5-1,15-1.7,22.5
		c-1.5,16.4-6.3,32-12,47.3c-10.9,29.3-26.3,56.2-47.1,79.5c-21.3,23.9-45.5,44.3-74.3,59.1c-20.7,10.6-42.2,18.9-65,24
		c-10.6,2.3-21.3,2.3-32,3.2c-1.6,0.1-3.3-0.5-4.9,0.5c-13,0-26,0-39,0c-7.6-1.1-15.3-1.2-23-1.8c-11.4-0.9-22.3-3.8-33.1-7.2
		c-34.8-10.8-66.2-28-93.5-52.1c-23.7-21-43.6-45.1-58.5-73.3c-11.4-21.5-19.7-44-24.7-67.7c-2.1-9.9-2-20-2.7-30
		C72.4,406.6,72.9,405.2,72,404z"/>
	<path class="st1" d="M309.8,128.9c0.1-0.3,0.2-0.6,0.2-0.9c3.7,0,7.3,0,11,0C317.4,129.6,313.6,129.1,309.8,128.9z"/>
	<path class="st1" d="M72,366c0.3-0.1,0.6-0.2,0.9-0.2c0.2,3.8,0.7,7.5-0.9,11.2C72,373.3,72,369.7,72,366z"/>
	<path class="st2" d="M583.2,366.8c0.3-0.1,0.6-0.1,0.8,0.2c0,3.7,0,7.3,0,11C582.4,374.4,583,370.6,583.2,366.8z"/>
	<path class="st3" d="M197.9,378.6c1.5-35.7,12.2-67.6,38.3-93.1c17.1-16.7,38.3-25.4,61.6-29.5c1.5-0.3,2.9-0.6,4.4-0.8
		c3.9-0.6,9.3,0.7,11.2-2.2c1.9-2.8,0.7-7.7,0.6-11.7c-0.1-4.4,1.9-6.4,6.3-6.4c5,0.1,10,0.1,15,0c4.6-0.1,6.8,1.8,6.7,6.5
		c-0.1,4.2,0,8.3,0,12.5c-4.4,4.3-8.8,0.6-12.9,0.5c1.5,1.6,1.3,4.2,1.3,6.7c0.1,38.6,0.1,77.1,0,115.7c0,2.8-0.1,5.7-1.9,8.1
		c-2.1,1.7-4.7,1.4-7.2,1.4c-38.6,0.1-77.2,0.1-115.8,0C197.8,386.3,197.1,385.5,197.9,378.6z"/>
	<path class="st4" d="M328,384c0-41.1,0-82.1,0-123.2c0-4.2,0.1-8.1-6.3-7c7-1.4,13.6-0.5,20.2,0.2c13.9,1.5,27.7,3.7,40.8,8.7
		c37.9,14.5,59.7,43,70.1,81.2c3.6,13.1,5.4,26.4,5.3,39.9c-1.1,2.5-3.5,2.3-5.6,2.4c-4.8,0.3-9.6,0.1-14.4,0.1
		c-33.7,0-67.4,0.1-101.1-0.1C334,386.3,330.4,387.4,328,384z"/>
	<path class="st5" d="M405.9,403c1.1,0.4,2.1,0.8,3.2,1.2c4.3,1.7,5.3,5.2,2.2,8.5c-4.1,4.3-8.5,8.3-12.8,12.4
		c-10.2,7.6-21.2,14.2-32.3,20.5c-28.4,16.2-56.7,32.6-85,49c-7.6,4.4-15.1,8.9-22.9,13.1c-5.2-0.4-13.5-7.2-14.3-11.8
		c3.7-12.5,5.6-25.2,5-38.2c-0.7-14.6-4.9-28-13.8-39.7c-5.2-6.8-4.8-9.1,2.3-13.6c0.7-0.4,1.4-0.9,2-1.4c3-5,7.3-2.6,11.2-2.1
		c15.3,6.7,24,19.9,32.4,33.4c1.8,3,3.5,6.1,5.3,9.1c4,6.6,10.4,9.1,18,7.5c9.6-2.1,17.1-7.9,24.6-13.8
		c12.4-9.8,24.4-20.2,38.1-28.1c3.5-2,6.9-4,11-4.3c3.9-0.4,6.6-4.1,10.7-3.8c3.3-0.2,6.6-0.2,9.8,0
		C402.7,400.8,404.8,400.7,405.9,403z"/>
	<path class="st6" d="M405.9,403c-5.1,0-10.2,0-15.4,0c-8.5,1.5-17,2.5-25.7,2.5c-32.6-0.2-65.3-0.1-97.9,0
		c-5.6,0-10.9-0.7-16.2-2.5c-3.7-0.7-7.4-0.8-11,0c-17.1-0.1-34.2-0.2-51.2-0.3c-3.2,0-7.4,1.1-8.7-2.9c-1.4-4.3-1.5-9.1,0.2-13.6
		c0.7-1.6,2.4-2.2,4.2-2.2c2.3,0,4.7-0.3,7,0c4.4,0.7,6.9-0.6,6.8-5.5c-0.3,5,2.6,5.5,6.7,5.5c41.2-0.1,82.3-0.1,123.5-0.1
		c43.4,0,86.9-0.1,130.3-0.1c4.2,0,8.3,0.2,12.5,0.1c4.1-0.1,6.1,1.7,6.3,5.9c0.6,12.3,0.1,12.8-12.4,12.8
		C445.1,402.8,425.5,402.9,405.9,403z"/>
	<path class="st7" d="M257.9,506.6c3.9-5.1,10-7,15.2-10c26.8-15.7,53.7-31.2,80.6-46.7c13.7-7.9,27.3-15.8,41-23.6
		c1.1-0.6,2.5-0.8,3.8-1.2c-1.5,1.6-2.9,3.2-4.4,4.7c-33.1,33.2-66.3,66.3-99.5,99.4c-1.4,1.4-2.3,3.3-4.6,3.5
		c-8.6-2.2-14-9.1-20.8-14c-3.1-2.2-5.9-4.8-8.9-7.1C258.6,510.4,257.4,508.9,257.9,506.6z"/>
	<path class="st8" d="M257.9,506.6c10.7,8.7,21.4,17.4,32,26.1c-30.2,0-60.4,0-92.1,0c16-12.8,31.1-24.8,46.2-36.8
		C248.7,499.5,253.3,503.1,257.9,506.6z"/>
	<path class="st0" d="M250.7,403c1.7-0.1,3.3-0.3,5-0.3c43.1,0,86.2,0,129.3,0c1.8,0,3.7,0.2,5.5,0.3c-23.3,5.9-40.2,22-58.2,36.2
		c-7.8,6.2-15.6,12.4-25.9,14.2c-8.4,1.5-15.5-1.2-19.9-8.8c-5-8.6-10-17.2-16.2-25.1C264.9,412.7,258.6,406.9,250.7,403z"/>
</g>
</svg>
