<?xml version="1.0" encoding="utf-8"?>
<!-- Generator: Adobe Illustrator 19.0.0, SVG Export Plug-In . SVG Version: 6.00 Build 0)  -->
<svg version="1.1" id="Calque_1" xmlns="http://www.w3.org/2000/svg" xmlns:xlink="http://www.w3.org/1999/xlink" x="0px" y="0px"
	 viewBox="0 0 612 792" style="enable-background:new 0 0 612 792;" xml:space="preserve">
<g>
	<path d="M59,504c1.3-9.4,2.2-18.8,3.9-28.1c10.5-60.2,39.1-110.3,85.4-150c38.2-32.7,82.6-51.8,132.3-58.7
		c4.1-0.6,8.3-0.9,12.8-1.4c0-7.7,0-15.2,0-23.5c-7,0-14,0.1-20.9,0c-15.6-0.3-24.6-12.4-20.6-27.5c2.4-9.2,9.3-14.7,19.4-14.8
		c15.8-0.2,31.7-0.1,47.5-0.1c12.8,0,25.7-0.1,38.5,0c15.8,0.2,25,12.4,20.8,27.7c-2.3,8.6-9,14-18.1,14.6
		c-3.8,0.2-7.7,0.1-11.5,0.1c-3.8,0-7.6,0-11.8,0c0,7.9,0,15.5,0,23c11.2,1.9,22.4,3.2,33.4,5.7C448.9,289,507.2,334,544.3,406
		c15.2,29.5,23.5,61.1,25.8,94.2c0.1,1.3,0.6,2.6,0.8,3.8c0,5.3,0,10.7,0,16c-1.8-0.1-3.6-0.2-5.5-0.2c-167,0-334,0-501.1,0
		c-1.8,0-3.6,0.2-5.5,0.2C59,514.7,59,509.3,59,504z M523.7,476.8C506.6,384,421.5,305.1,312.7,306.4
		c-112.6,1.4-191.6,85.5-206.3,170.3C245.5,476.8,384.6,476.8,523.7,476.8z"/>
	<path d="M59,589c0-9,0-18,0-27c1.8,0.1,3.7,0.2,5.5,0.2c167,0,334,0,501,0c1.8,0,3.7-0.2,5.5-0.2c0,9,0,18,0,27
		c-2.6,8-8,13.4-16,16c-160,0-320,0-480,0C67,602.4,61.6,597,59,589z"/>
	<path d="M472.9,453.5c-15.8-35-40.2-61.2-72.5-81.1c3.6-6.4,7-12.6,10.7-19.2c36.8,22.3,64.6,51.5,81.1,91.7
		C485.7,447.8,479.5,450.5,472.9,453.5z"/>
</g>
</svg>
