<?xml version="1.0" encoding="utf-8"?>
<!-- Generator: Adobe Illustrator 19.0.0, SVG Export Plug-In . SVG Version: 6.00 Build 0)  -->
<svg version="1.1" id="Calque_1" xmlns="http://www.w3.org/2000/svg" xmlns:xlink="http://www.w3.org/1999/xlink" x="0px" y="0px"
	 viewBox="0 0 612 792" style="enable-background:new 0 0 612 792;" xml:space="preserve">
<style type="text/css">
	.st0{fill:#491F58;}
	.st1{fill:#EC5655;}
	.st2{fill:#FDFDFD;}
	.st3{fill:#EE6A6B;}
	.st4{fill:#8AC2D0;}
	.st5{fill:#EA4242;}
	.st6{fill:#EB4242;}
	.st7{fill:#FBF8F8;}
	.st8{fill:#FBF9F9;}
	.st9{fill:#F3B7B6;}
</style>
<g>
	<path class="st0" d="M156,670c-10-1.6-20-2.9-29.9-5c-18.9-4-37.3-9.7-54.4-18.9c-5.6-3-10.8-6.6-15.2-11.3
		c-10-10.8-7.2-24.2,6.4-30c9.1-3.9,18.8-4.4,28.4-4.3c11,0.1,22,1.2,32.8,3.2c2.9,0.5,4.1,0.1,4.8-3c5.9-26.8,12-53.5,18.1-80.3
		c0.7-2.9,0-4-2.8-4.9c-51.5-17.6-77.8-67.3-73.6-118.7c2-24.5,9.7-47.8,16.5-71.3c6.9-24.1,14-48.2,20.8-72.3
		c1.9-6.8,7-10.3,12.7-13.1c9.2-4.5,19.2-5.6,29.2-5.9c34.2-0.9,67.2,5.5,99.5,16.3c14.8,4.9,29.2,11,42.3,19.7
		c1.7-1.1,0.9-2.5,0.8-3.7c-0.1-4.8-0.1-9.7-0.6-14.5c-1.1-10.5,3.9-17.9,12-23.7c12.1-8.6,26-13.3,40.2-16.9
		c34-8.6,68.5-12.2,103.5-9.2c12.3,1,24.4,3.1,35.9,8c10.3,4.4,16,11.7,17.7,23.3c5,33.2,11.1,66.3,16.2,99.5
		c3.9,25.7,6.7,51.6-1.2,77.2c-12.7,41.1-39.1,68-81.4,78.2c-3.7,0.9-4.5,2-4,5.8c3.3,26.8,6.4,53.6,9.3,80.4
		c0.4,3.9,2.1,4.3,5.5,4.2c15.7-0.6,31.3-0.1,46.5,4.3c4.5,1.3,8.8,3.1,12.6,5.9c9.5,7.1,10.4,18.2,2.2,26.8
		c-4.5,4.6-10,7.8-15.8,10.3c-20.7,9-42.7,12.8-65,13.9c-16.8,0.9-33.7,1-50.2-2.9c-5.5-1.3-10.9-3.2-15.7-6.3
		c-10.5-6.8-12-18.6-3.3-27.7c6.3-6.5,14.4-10.1,22.7-13.1c12.4-4.4,25.2-7.3,38.3-8.9c3.4-0.4,4.5-1.5,4.1-4.9
		c-3.3-27.1-6.6-54.2-9.7-81.3c-0.3-2.6-0.9-3.7-3.8-3.7c-51.1,0-94-35.8-107.5-89.8c-0.5-2-0.3-4.3-2.6-6.1
		c-2.2,13.3-4.5,26.3-8.4,38.9c-14.3,46.2-43.2,77.2-92.3,86.4c-8.9,1.7-17.9,2-26.9,0.6c-3.4-0.5-5.2,0-6.1,4.1
		c-5.7,26.5-11.7,52.9-17.9,79.3c-0.8,3.5,0.4,4.1,3.2,4.9c14.1,4,27.9,8.8,40.6,16.3c5.5,3.2,10.6,6.9,14.5,12
		c7.5,9.7,5,21.1-5.8,27c-5.5,3-11.7,3.2-17.3,5.3C173.3,670,164.7,670,156,670z"/>
	<path class="st1" d="M270,158c10.8,6,14.9,20.1,9.2,31.4c-2.3,4.5-5.7,6-10.3,3.9c-7.9-3.4-13.4-9.3-16.2-17.4
		c-2.5-7.1,1.3-13.3,10.3-17.9C265.3,158,267.7,158,270,158z"/>
	<path class="st1" d="M317.7,213.9c-2.9-0.1-7.9-1.2-12.7-3.1c-8.2-3.4-11.4-12.7-7.2-20.3c4.2-7.4,13.2-9.5,20.6-4.6
		c4.8,3.2,8.2,7.7,10.9,12.7C334.5,208.5,331.1,214,317.7,213.9z"/>
	<path class="st1" d="M268.9,223.6c-0.1,4.7-0.4,9.3-2,13.7c-2.3,6.5-7.4,8-12.4,3.4c-6.2-5.7-9.7-13-9.7-21.6
		c0-3.9,1.7-7.1,4.5-9.6c7.5-6.9,16.4-4.1,18.9,5.7C268.9,218,268.9,220.7,268.9,223.6z"/>
	<path class="st1" d="M158.8,500.1c-14.8-2.8-27.6-9.7-38.7-19.6c-19.9-17.8-29.7-40.5-31.2-66.9c-0.7-13,0.3-25.9,4.2-38.5
		c1.5-0.4,2.6,0.5,3.6,1.3c18.8,15.2,41.1,23.1,63.8,29.9c21.3,6.3,43.1,10.7,65.2,12.1c12.9,0.8,26,1.3,38.9-0.8
		c1.3-0.2,2.6-0.5,3.9,0.1c1.4,1.2,0.8,2.8,0.5,4.2c-8.8,38.4-38.6,72.1-79.2,79.2C179.4,502.7,169.1,502.2,158.8,500.1z"/>
	<path class="st1" d="M419,472.1c-15.4,2.5-30.3-0.1-44.2-6.3c-34.1-15.2-51.6-43-57.8-78.9c-0.7-4.3-1.3-8.6-1.1-12.9
		c1.6-1.2,3.2-0.5,4.7,0.1c12.2,4.9,25,6.5,38,7.5c34,2.7,67.4-1.1,100.3-9.2c10.8-2.7,21.4-6.2,31.4-11.2c1.6-0.8,3.2-1.7,5.2-1.6
		c3.3,4.1,2.6,9.2,2.5,13.7c-0.4,14.8-2.8,29.4-8.9,43.1c-11.6,25.8-30.1,44.3-57.6,52.8C427.4,470.6,423.1,470.9,419,472.1z"/>
	<path class="st2" d="M314,350.2c-0.4-18.2-2.3-36.4-0.6-54.8c0.6-6.5-2.2-13.6-2.2-20.6c0-1.8,0-3.6,0-4.5
		c60,12.3,118,7.3,174.5-17.6c4.1,25.5,8.3,51.5,12.6,77.6c-1.6,1.8-3.4,0.7-5,0.2c-24.4-7.6-49.3-8-74.5-6.5
		c-17.1,1-34,3.3-50.8,6.9c-17.5,3.7-34.5,8.7-49.8,18.4C316.9,350.2,315.6,351.1,314,350.2z"/>
	<path class="st2" d="M98.8,352.2c6.7-23.3,13.4-46.6,20.1-69.9c0.6-2,1-3,3.2-1.4c25,17.6,53.6,26,83,32.3
		c22.2,4.8,44.6,7.3,67.4,5.8c5.5-0.4,10.9-1.2,16.2-2.7c1.6-0.4,3.3-1.2,2.8,2c-3.9,24.3-7.7,48.6-11.6,72.9
		c-1.8,0.4-3.2-0.7-4.5-1.6c-17.4-13.2-37.7-20.3-58.2-26.7c-19.3-6-39-10-59.1-12.1c-18.2-1.9-36.5-2.9-54.5,1.8
		C102,352.9,100.4,353.3,98.8,352.2z"/>
	<path class="st3" d="M314,350.2c22.2-14.8,47.5-20.1,73.2-24.3c20.3-3.3,40.7-4.6,61.2-3.9c16.3,0.6,32.5,2.2,48,8.1
		c0.6,0.2,1.3,0.2,1.9,0.3c1.6,7.8,2.7,15.6,2.9,23.5c0.7,4.1-1.2,6-5.2,6.1c-21.3,11.2-44.2,16.6-67.8,20.1
		c-14.3,2.1-28.6,3.6-43,3.8c-23.6,0.4-47.1-0.7-69.3-9.9C314.2,366.2,313.9,358.2,314,350.2z"/>
	<path class="st3" d="M98.8,352.2c30.5-8.2,60.8-3.7,90.9,2.3c26.3,5.3,51.8,13.2,75.5,26.4c5.2,2.9,10,6.6,14.8,10.2
		c-0.7,8.8-2.6,17.3-5.1,25.8c-1.8,1.4-3.6,2.4-5.9,1.1c-16,3.1-32,2.2-48,1.1c-17.6-1.3-34.7-4.7-51.7-9.1c-23.2-6-45.8-13.8-66-27
		c-3.6-2.3-6.7-5.3-10.1-8C94.4,367.2,96.1,359.6,98.8,352.2z"/>
	<path class="st2" d="M367.9,258.4c-16,0-32-0.9-47.4-5.7c-3.5-1.1-8.9-1.6-9.2-5.5c-0.3-3.4,4.7-5.1,7.9-6.8
		c16.3-8.8,34.1-13.1,52.1-16.2c23-4,46.3-5.5,69.6-4.1c11.5,0.7,22.9,2.2,33.7,6.3c2.4,0.9,6.1,1.7,6.4,4.2c0.3,2.6-3.1,4-5.3,5.4
		c-12.5,7.7-26.4,11.7-40.5,15C413.1,256,390.7,258.3,367.9,258.4z"/>
	<path class="st2" d="M159.6,252.7c38.8,1.6,76.1,9.3,111.1,26.6c5.8,2.9,11.3,6.3,16.2,10.6c1.6,1.4,4,2.9,3.6,5
		c-0.4,2.2-3.2,2.5-5.2,3.2c-4.8,1.6-9.8,2.4-14.7,2.5c-47.1,1.2-91.8-8.2-133.1-31.4c-3.3-1.9-6.4-4.2-9-7c-3.2-3.4-3-4.4,1.6-6
		c8.1-2.9,16.6-3.3,25.1-3.4C156.6,252.7,158.1,252.7,159.6,252.7z"/>
	<path class="st4" d="M492.5,603.4c-19,17.2-101.3,25.3-121.2,12C390.4,597.8,471.5,590.3,492.5,603.4z"/>
	<path class="st4" d="M189.4,648.6c-23.5,10.2-102.5-7.3-118.9-26.5C93.2,611.2,173.3,629,189.4,648.6z"/>
	<path class="st5" d="M496,360c2.1-1.7,5.4-2.4,5.2-6.1c8.9,49.7-16.1,107.3-76.2,117.8c-2,0.3-4,0.3-6,0.4
		c5.5-3.1,11.9-3.4,17.8-5.8c31.6-13.2,49.5-37.2,57.3-69.8c1.8-7.5,1.9-15.1,2.7-22.6C497.3,369.4,495.6,364.7,496,360z"/>
	<path class="st6" d="M269,418c2-0.4,3.9-0.7,5.9-1.1c-6.3,39.9-36,80-84.2,85.7c-10.7,1.3-21.6,1.2-32-2.6c5.3-0.8,10.5,1.1,15.9,1
		c29.5-1,53.2-13.1,71.9-35.8C258,451.3,264.5,435.2,269,418z"/>
	<path class="st7" d="M130,472.5c-21.7-14.3-28.2-35.8-28.7-60.2C105.8,434.8,115.4,454.8,130,472.5z"/>
	<path class="st8" d="M337.9,411.1c10.7,17.8,25,32.2,42.3,43.5c-22.3-6.1-35.2-21.8-43.4-42.5C336.5,411.1,337,410.8,337.9,411.1z"
		/>
	<path class="st9" d="M337.9,411.1c-0.4,0.3-0.7,0.7-1.1,1c-0.6-1.1-1.4-2.2-1.7-3.4c-0.3-1.2-1.4-2.3-0.7-3.9
		C336.1,406.7,337.1,408.9,337.9,411.1z"/>
</g>
</svg>
