<?xml version="1.0" encoding="utf-8"?>
<!-- Generator: Adobe Illustrator 19.0.0, SVG Export Plug-In . SVG Version: 6.00 Build 0)  -->
<svg version="1.1" id="Calque_1" xmlns="http://www.w3.org/2000/svg" xmlns:xlink="http://www.w3.org/1999/xlink" x="0px" y="0px"
	 viewBox="0 0 612 792" style="enable-background:new 0 0 612 792;" xml:space="preserve">
<path d="M448.8,288.4c-0.6-5.6-1.7-11.2-3-16.7C425.1,183.9,339,126.5,247.6,145.4c-87,18-147.5,100.7-131.1,198.2
	c7,41.4,22.1,80.1,40.3,117.7c30.2,62.1,73,115.1,120.9,164.2c3.3,3.3,5.8,2.8,8.7-0.3c10.4-11.3,21.2-22.2,31.3-33.7
	c48.7-55,88.3-115.5,112.6-185.3c10.6-30.6,19.8-61.5,20-94.4C450,304,449.7,296.2,448.8,288.4z M305.2,235.6
	c-0.6-0.6-1.1-1.2-1.7-1.8c-0.1-0.1-0.1-0.3-0.2-0.4c3.1-4.1,10.1-4.9,13.3-1.3c7.3,8.2,9.7,17.6,6.7,28.2c-0.9,3-1.9,6-3.4,8.8
	c-6.1,11.8-7.1,22.9,4.1,32.6c-4.6,4.7-10.2,4.4-13.8,0.4c-8.1-9-9-19.2-5.3-30.2c1.4-4.1,2.9-8.1,4.7-12
	C314,250.6,311.7,242.7,305.2,235.6z M273.9,235.8c-2.9-3.2-2.3-5,1.9-5.7c4.1-0.7,7.6-0.2,10.6,3.6c6.7,8.5,8.2,17.6,5,27.7
	c-0.9,2.8-2.1,5.6-3.3,8.3c-6.6,15.2-6.1,19,3.9,32.2c-4.4,4.6-9.8,4.1-13.6-0.3c-8.3-9.4-8.6-19.7-4.7-30.8
	c1.3-3.8,2.7-7.5,4.4-11.1C282.3,250.8,280.2,242.9,273.9,235.8z M241.4,235.1c-0.5-0.6-1-1.2-1.7-2.1c5.7-4.5,10.9-3.9,15.1,1
	c7.2,8.4,8,18,4.9,28.1c-1.5,4.9-3.8,9.5-5.7,14.3c-3.3,8.2-1.8,15.6,3.9,22.2c1.1,1.2,2.1,2.5,3.1,3.8c-3.3,3.8-9,4.5-12.3,1.4
	c-7.8-7.5-10.8-16.7-8.1-27.2c1.4-5.3,3.2-10.5,5.5-15.4C250.8,251.1,248.7,242.7,241.4,235.1z M401.6,320.6
	C384,353,365.9,385.3,349,418.1c-4.9,9.4-10.2,12.6-20.8,12.3c-32.6-0.9-65.3-0.4-98-0.2c-4,0-6.2-1.1-8.2-4.7
	c-19.4-34.7-39.1-69.3-58.6-104c-3.6-6.3-2.2-8.6,5.2-8.6c38,0,76,0,114,0c37,0,74,0,111,0c1.3,0,2.7-0.1,4,0
	C402.8,313.4,404.2,315.8,401.6,320.6z"/>
</svg>
