<?xml version="1.0" encoding="utf-8"?>
<!-- Generator: Adobe Illustrator 19.0.0, SVG Export Plug-In . SVG Version: 6.00 Build 0)  -->
<svg version="1.1" id="Calque_1" xmlns="http://www.w3.org/2000/svg" xmlns:xlink="http://www.w3.org/1999/xlink" x="0px" y="0px"
	 viewBox="0 0 612 792" style="enable-background:new 0 0 612 792;" xml:space="preserve">
<style type="text/css">
	.st0{fill:#333333;}
	.st1{fill:#F7F7F7;}
	.st2{fill:#303030;}
	.st3{fill:#E83953;}
	.st4{fill:#FDFBFB;}
	.st5{fill:#FCFBFB;}
	.st6{fill:#FCFAFB;}
	.st7{fill:#FCFAFA;}
	.st8{fill:#FBF9FA;}
	.st9{fill:#FBFAFA;}
	.st10{fill:#E43F57;}
	.st11{fill:#E84058;}
	.st12{fill:#E83A54;}
</style>
<g>
	<path class="st0" d="M401.2,321.9c2.9-0.4,4.3,1.3,5.2,3.7c13.5,37.5,27,75,40.6,112.5c1.7,4.6,0,6.2-4.3,7.3
		c-41.4,9.9-82.8,19.9-124.1,29.8c-53.5,12.8-107,25.6-160.5,38.5c-6.8,1.6-7.6,1.2-9.1-5.7c-2.3-10.2-4.8-20.4-6.9-30.7
		c-0.6-2.7-1.3-3.1-3.9-2.4c-9.8,2.4-19.8,4.5-29.7,6.7c-5.7,1.3-7.3-0.3-6.4-6.2c5.6-33.3,11.2-66.6,16.7-99.9
		c0.5-2.7,1.7-3.8,4.4-4.3c35.1-6.1,70.1-12.4,105.2-18.6c43.9-7.8,87.8-15.5,131.7-23.3c12.4-2.2,24.9-4.5,37.3-6.7
		C398.6,322.2,399.9,322.1,401.2,321.9z"/>
	<path class="st1" d="M127.5,379.4c-0.2-2.3,2.4-1.8,3.8-2c13.4-2.5,26.9-4.8,40.3-7.1c61.4-10.9,122.8-21.9,184.3-32.8
		c13.3-2.4,26.5-4.7,39.8-7.1c2.9-0.5,4.4,0.1,5.5,3.1c12.1,33.8,24.3,67.5,36.7,101.2c1.3,3.5,0.3,4-2.8,4.8
		c-59.4,14.1-118.7,28.4-178,42.6c-32.2,7.7-64.4,15.3-96.5,23.2c-3.4,0.8-4.4,0.3-5.2-3.2c-9-40.1-18.2-80.1-27.3-120.1
		C127.8,381.4,127.7,380.7,127.5,379.4z"/>
	<path class="st2" d="M389.9,343.2c3.6-0.3,5,1.5,5.8,3.9c8.3,24.2,16.5,48.4,24.8,72.6c2.5,7.4,2.2,8.2-5.2,9.9
		c-79.4,18.9-158.8,37.7-238.2,56.7c-4.5,1.1-6.4-0.2-7.4-4.5c-6.9-28.4-13.9-56.8-20.9-85.3c-1.4-5.9-0.8-7,5.1-8.1
		c72-13.8,144.1-27.5,216.1-41.3C376.9,345.7,383.8,344.4,389.9,343.2z"/>
	<path class="st3" d="M179.3,478c-3.1,0.4-3.2-1.5-3.6-3.4c-4.6-19.1-9.3-38.1-14-57.1c-1.5-6.1-2.9-12.3-4.6-18.4
		c-0.8-2.8-0.1-3.7,2.8-4.2c34.3-6.5,68.5-13.2,102.8-19.7c37.4-7.2,74.7-14.3,112.1-21.4c4.5-0.9,9.8-3.7,13.5-1.8
		c3.5,1.8,3.6,7.8,5.1,12c6.4,18.2,12.5,36.5,18.8,54.7c0.8,2.3,1.4,3.7-2,4.5c-76.6,18.1-153.2,36.3-229.9,54.6
		C179.9,477.9,179.4,478,179.3,478z"/>
	<path class="st4" d="M303.4,409.2c3.3,2.1,6.1,4,8.2,6.6c1.1,1.3,3,2.7,0.9,4.6c-1.8,1.6-3.4,0.4-4.8-0.8c-1.9-1.6-3.6-3.5-5.5-5.1
		c-1.3-1.1-2.7-1.9-4.1-2.7c-1.4-0.8-3-0.6-4.3,0.4c-1.5,1.1,0,2.4,0.2,3.6c0.3,1.8,1.2,3.5,1.6,5.2c0.4,1.5,0.2,3-1.7,3.6
		c-1.5,0.5-2.9-0.1-3.3-1.4c-2.6-7.7-5.1-15.4-7.4-23.2c-0.5-1.7,0.9-2.7,2.6-3c4.2-0.9,8.4-2.1,12.7-2.5c3.7-0.4,6.7,1.5,8.4,5
		C308.9,403.6,307,406.4,303.4,409.2z"/>
	<path class="st5" d="M197.7,431.5c3.4,2,6.2,4.1,8.5,6.7c1.1,1.2,2.6,2.7,1,4.3c-1.5,1.6-3.4,0.9-4.9-0.4c-1.7-1.5-3.4-3.2-5.1-4.7
		c-1.3-1.1-2.5-2.2-4-2.9c-1.5-0.8-3.5-0.9-4.8,0c-1.7,1.1,0,2.7,0.3,4c0.3,1.6,0.8,3.2,1.4,4.8c0.6,1.7,0.3,3.1-1.3,3.7
		c-1.6,0.7-3.2,0-3.7-1.5c-2.5-7.5-4.9-15.1-7.2-22.8c-0.5-1.8,0.8-2.8,2.4-3.2c3.7-0.8,7.4-1.7,11.2-2.3c4.4-0.8,8,0.4,10,4.7
		C203.2,425.9,201.9,429.2,197.7,431.5z"/>
	<path class="st5" d="M375,378c6.8,0,10.7,2.6,13,7.3c2.5,5,4.2,10.2,1.2,15.7c-1.9,3.3-14.2,7.4-17.7,6.1c-1.7-0.6-2.1-2.1-2.5-3.5
		c-2-6.2-3.9-12.4-5.9-18.5c-1-3-0.2-4.7,3.1-5.3C369.6,379.3,373,378.4,375,378z"/>
	<path class="st6" d="M347.2,412.8c-2.1,0.1-3.2-1.1-3.8-3c-2.1-6.6-4.2-13.3-6.4-19.9c-0.8-2.5,0.2-3.9,2.6-4.4
		c4.7-1.1,9.4-2,14.1-3.1c1.7-0.4,3.2-0.1,3.7,1.6c0.7,2.1-1.3,2.5-2.6,2.8c-2.7,0.7-5.5,1.1-8.3,1.8c-1.4,0.4-4.1,0-2.8,3.1
		c0.8,1.9,0.3,5,4.2,3.7c2.5-0.9,5.2-1.1,7.8-1.7c1.7-0.4,3.6-0.7,4,1.5c0.4,2.4-1.8,2.4-3.3,2.8c-2.3,0.5-4.6,0.8-6.8,1.4
		c-1.6,0.4-3.8,0.7-2.4,3.1c1,1.8-0.3,5.7,4,4.8c3.4-0.7,6.8-1.5,10.2-2.1c1.5-0.3,3.2-0.4,3.7,1.6c0.5,2.1-1.2,2.5-2.6,2.8
		C357.4,410.7,352.3,411.7,347.2,412.8z"/>
	<path class="st7" d="M216,440.7c-2.2,0.1-3.3-1.3-3.9-3.2c-2.1-6.5-4.1-12.9-6.2-19.4c-0.8-2.5,0-4.2,2.7-4.8c4.5-1,9.1-2,13.6-3
		c1.7-0.4,3.6-0.4,4,1.7c0.4,2.1-1.6,2.3-2.9,2.7c-2.4,0.6-5,0.8-7.3,1.6c-1.4,0.5-4.6-0.7-3.6,3c0.7,2.7,1.3,5.2,5.1,3.8
		c2.3-0.8,4.8-1.1,7.3-1.7c1.6-0.4,3.2-0.3,3.7,1.4c0.6,2.1-1.2,2.5-2.6,2.8c-2.4,0.6-4.9,1-7.3,1.5c-1.6,0.3-3.8,0.6-2.7,3
		c0.9,1.9,0,5.7,4.1,4.9c3.3-0.6,6.5-1.4,9.8-1.9c1.6-0.3,3.6-0.8,4.1,1.5c0.5,2.4-1.7,2.5-3.2,2.9
		C225.7,438.7,220.8,439.7,216,440.7z"/>
	<path class="st8" d="M267.1,412.6c3.8-0.9,6.5-1.5,9.3-2.1c1.8-0.4,3.6-0.3,3.9,1.8c0.3,2-1.7,2.2-3.1,2.6
		c-1.9,0.5-3.9,0.8-5.8,1.3c-1.7,0.5-4.9-0.4-3.7,3.4c0.8,2.7,1,5.8,5.3,4.5c3-0.9,6.2-1.4,9.3-2c1.5-0.3,3.2-0.1,3.4,1.9
		c0.2,1.8-1.3,2.1-2.6,2.4c-4.9,1.1-9.7,2.1-14.6,3.1c-2.4,0.5-3.8-0.7-4.5-2.9c-2.1-6.5-4.1-13-6.1-19.5c-0.8-2.7,0-4.5,3-5
		c4.4-0.8,8.8-1.9,13.2-2.8c1.5-0.3,3.2-0.6,3.8,1.3c0.8,2.4-1.3,2.7-2.9,3.1c-2.7,0.7-5.6,1.1-8.3,1.7c-1.5,0.4-3.6,0.5-2.3,3.1
		C265.1,410.3,264.5,413.5,267.1,412.6z"/>
	<path class="st9" d="M245.5,434.4c-3.4,0.2-6.2-1.1-8.3-3.7c-1-1.2-2.3-2.8-0.6-4.4c1.6-1.5,3.1-0.6,4.2,0.8
		c1.9,2.5,4.3,3.6,7.4,2.9c2.2-0.5,4.3-1.6,4.2-4.2c-0.1-2.5-2.1-3.6-4.5-3.7c-3.1-0.2-6.3-0.2-9.4-0.9c-3.9-0.9-6.2-3.4-6.4-7.3
		c-0.2-3.6,2.2-5.8,5.4-6.9c4.5-1.6,9.1-2.3,13.2,1.2c1.3,1.1,2.9,2.7,1.1,4.7c-1.6,1.7-3.1,0.5-4.3-0.7c-2.3-2.4-4.9-2.7-7.7-1.5
		c-1.3,0.5-2.3,1.5-2.2,3c0.1,1.6,1.1,2.4,2.6,2.6c2.5,0.3,4.9,0.6,7.4,0.7c6.8,0.4,10.1,3.1,10.3,8.4c0.2,4.9-3.6,8.3-10,8.9
		C247.1,434.3,246.3,434.4,245.5,434.4z"/>
	<path class="st9" d="M326.8,409.7c0-6.2,0-12.1,0-18c0-2-0.1-4.4,2.7-4.4c2.5,0,3.1,2.1,3,4.3c-0.4,7.1-0.8,14.3-1.3,21.4
		c-0.1,1.8-0.6,3.7-2.8,4.2c-2,0.4-3.6-0.2-4.9-1.8c-4.9-6.5-9.8-13-14.7-19.5c-0.9-1.2-1.6-2.6,0-4c1.7-1.4,3.2-0.7,4.3,0.7
		c3.3,4.4,6.4,8.9,9.7,13.3C323.7,407.2,324.2,409,326.8,409.7z"/>
	<path class="st10" d="M301.8,403.1c-0.9,4.3-5,3.8-8.2,4.5c-4.1,0.9-3.6-3.3-3.6-5c-0.2-4.3,4-2.7,6.2-3.3
		C298.8,398.5,301.2,399.5,301.8,403.1z"/>
	<path class="st11" d="M196.5,425.6c-1.4,4.1-5.3,4-8.5,4.4c-3.8,0.4-3.6-3.6-3.5-5.3c0.4-4,4.6-2.4,7.1-3.1
		C194.1,420.9,195.9,422.8,196.5,425.6z"/>
	<path class="st12" d="M384.8,393.7c0.1,5.5-4.5,9.2-9,8.4c-1.5-0.3-1.7-1.4-2.1-2.5c-1-3.1-2.3-6.3-2.9-9.5
		c-0.4-2.1-3.4-4.9-0.3-6.4c3.3-1.5,7.5-2.2,10.6,1.2C383.6,387.7,384.4,391.1,384.8,393.7z"/>
</g>
</svg>
