<?xml version="1.0" encoding="utf-8"?>
<!-- Generator: Adobe Illustrator 19.0.0, SVG Export Plug-In . SVG Version: 6.00 Build 0)  -->
<svg version="1.1" id="Calque_1" xmlns="http://www.w3.org/2000/svg" xmlns:xlink="http://www.w3.org/1999/xlink" x="0px" y="0px"
	 viewBox="0 0 612 792" style="enable-background:new 0 0 612 792;" xml:space="preserve">
<style type="text/css">
	.st0{fill:#22B1D9;}
	.st1{fill:#3B4A6B;}
	.st2{fill:#F13557;}
	.st3{fill:#E2617D;}
</style>
<g>
	<path class="st0" d="M292,434.3c-93-10.5-169-82.3-185.2-174.9c-2.5-14.3-3.2-28.8-3.1-43.3c0.1-15,0.1-30-0.1-45
		c0-3.4,0.8-5,4.4-4.5c0.8,0.1,1.7,0,2.5,0c137.6,0,275.2,0,412.8,0c7.9,0,6.8-0.8,6.8,7c0,19.2,0.4,38.3-0.2,57.5
		c-1.7,47.3-17.8,89.4-47.7,126c-32.1,39.4-73.4,63.9-123.1,74.4c-5.7,1.2-11.5,1.8-17.3,2.7c-1.7,1.3-3.7,1.3-5.7,1.3
		c-12.8,0-25.6,0-38.4,0C295.8,435.6,293.8,435.6,292,434.3z"/>
	<path class="st1" d="M342.1,584.9c23.2,0.1,46.3,0,69.5,0.2c25.7,0.2,47.2,20.6,48.7,45.7c0.2,3.3-0.3,4.7-4.1,4.7
		c-92.8-0.1-185.6-0.1-278.4,0c-3.8,0-4.3-1.3-4.1-4.7c1.6-25.2,23-45.5,48.7-45.7c23.2-0.2,46.3-0.2,69.5-0.2
		c1.7-1.3,3.7-1.3,5.7-1.3c12.9,0,25.9,0,38.8,0C338.4,583.6,340.4,583.5,342.1,584.9z"/>
	<path class="st2" d="M292,434.3c16.6,0,33.3,0,49.9,0c0,49.9,0,99.8,0,149.7c-3.7,1.1-7.5,0.4-11.3,0.5c-11.2,0.1-22.5,0.1-33.7,0
		c-1.6,0-3.3,0.4-4.8-0.5c-0.1-16.1-0.2-32.3-0.2-48.4C291.9,501.8,292,468.1,292,434.3z"/>
	<path class="st3" d="M292.1,584c16.6,0,33.2,0,49.8,0c0.1,0.3,0.2,0.6,0.2,0.9c-16.7,0-33.5,0-50.2,0
		C291.9,584.5,291.9,584.3,292.1,584z"/>
</g>
</svg>
