<?xml version="1.0" encoding="utf-8"?>
<!-- Generator: Adobe Illustrator 19.0.0, SVG Export Plug-In . SVG Version: 6.00 Build 0)  -->
<svg version="1.1" id="Calque_1" xmlns="http://www.w3.org/2000/svg" xmlns:xlink="http://www.w3.org/1999/xlink" x="0px" y="0px"
	 viewBox="0 0 612 792" style="enable-background:new 0 0 612 792;" xml:space="preserve">
<style type="text/css">
	.st0{fill:#DBD8C1;}
	.st1{fill:#8A6156;}
	.st2{fill:#DF5049;}
	.st3{fill:#D8251D;}
	.st4{fill:#7D5144;}
	.st5{fill:#FAD066;}
	.st6{fill:#FACB56;}
	.st7{fill:#989898;}
	.st8{fill:#F2EFD4;}
	.st9{fill:#8A6155;}
	.st10{fill:#40310C;}
</style>
<g>
	<path class="st0" d="M565.1,434.1c-1.4,27.8-8,54.4-18.6,80c-9.5,23-22,44.3-37.9,63.5c-18.2,21.9-39,40.7-63.3,55.8
		c-15.2,9.4-31.1,17.2-47.9,23.3c-13.1,4.7-26.3,9.3-40.3,10.4c-7.1-2-12.3-7.2-18.2-11c-23-14.5-45.7-29.6-68.5-44.5
		c-19.3-12.6-38.6-25.2-57.8-37.9c-1.2-0.8-2.3-1.8-3.5-2.7c1.6-1.8,3.8-1.9,6-1.9c32.1-0.1,64.1-0.1,96.2,0c0.8,0,1.6,0.2,2.5,0.3
		c15.6-0.6,31.3-0.1,46.9-0.3c1.8,0.3,3.2-0.3,4.4-1.7c3.2-3.4,7.1-6.1,10.3-9.4c15-15,31.1-29,46.1-44c1.6-1.7,3.5-3.1,5.3-4.5
		c1.7-1.3,2.7-2.9,2.3-5.1c-0.1-34.8,0-69.7,0-104.5c0-2.2,0-4.3,0.3-6.5c-0.4-3.8-0.3-7.5,0-11.3c-0.6-6.5-0.2-13-0.3-19.4
		c-0.1-5.6,0.5-11.3-1.6-16.8c-0.4-0.9-0.3-2,0.3-2.9c4.8,0.8,8.1,4.4,11.9,6.9c18,11.5,35.9,23.2,53.8,34.8
		c14.5,9.3,29.1,18.5,43.5,27.9c8.6,5.6,17.1,11.3,25.8,16.8C564.9,430.6,565,432.2,565.1,434.1z"/>
	<path class="st1" d="M314,571c-35,0-70,0-105,0c-9.1-3.9-13.3-10.5-13.1-20.6c0.4-22.1,0.2-44.2,0.2-66.3c0.7-0.9,1.4-1.9,2.5-2.3
		c10.3-4,20.2-8.7,30.9-11.7c0.7-0.1,1.3-0.1,2-0.2c1.3-0.5,2.1-1.6,3.3-2.1c24.1-10,48.5-19.2,72.8-28.6c2.3-0.9,4.8-1.9,6.9,0.6
		c1.4,2.1,1.4,4.4,1.4,6.7c0.1,39.2,0,78.4,0,117.6C315.9,566.5,315.9,569,314,571z"/>
	<path class="st2" d="M232.1,471.7c-0.4-0.3-0.8-0.6-1.2-0.8c-3.6-1.8-4-5.8-6-8.7c-8-16.2-16.2-32.3-24.3-48.5
		c-1.9-3.7-3.6-7.5-4.5-11.5c-10.7-21.4-20.8-43.1-32.2-64.1c-6-11.1-8.5-22-6.5-34.3c2.4-14.7,9.1-27,20.1-36.9
		c15.5-13.7,33.8-20,54.4-19.7c1,0.9,1.6,2.2,1.6,3.5c0.1,10.7,0.9,21.4-0.4,32.1c-1.2,2.9-4,3.2-6.6,3.7
		c-18.6,3.8-29.6,19.2-27.1,37.9c1.7,12.6,12.2,23.6,25.5,26.9c2.9,0.7,6.5,0.5,8.1,4c0.9,2.6,0.7,5.3,0.7,7.9c0,32.4,0,64.8,0,97.2
		C234,464.3,233.5,468.1,232.1,471.7z"/>
	<path class="st3" d="M232.1,471.7c0-39.2-0.1-78.5-0.1-117.7c2.1-2.3,5.1-2.2,7.8-2.8c14.7-3.8,25-16.4,25.5-31.5
		c0.5-13.5-9.2-27.1-22.5-31.8c-2.1-0.7-4.2-1.1-6.3-1.3c-1.8-0.2-3.7-0.3-4.5-2.4c0-12.3,0-24.6,0.1-36.9
		c18.9-0.2,35.7,5.6,50.7,17c1.3,1,2.6,2,4,2.9c14.3,10.1,20.2,24.7,21.8,41.5c0.9,9.8,0,19.3-6,27.7c-9.3,18.8-18.9,37.4-28.4,56
		c-3.6,6.6-6.8,13.4-10.1,20.1c-7.5,14.5-14.7,29.2-21.9,43.8c-2.8,4.2-3.7,9.6-8,12.8C233.4,470,232.7,470.8,232.1,471.7z"/>
	<path class="st4" d="M427.8,343.1c2.6,4.4,3.5,9.1,3.3,14.2c-0.2,8.3-0.1,16.5-0.2,24.8c-1.4,1.7-3.3,2.7-5.3,3.5
		c-35.2,13.6-70.3,27.4-105.5,41.1c-2.5,1-5.4,2.7-7.4-1c-0.9-2.4-0.8-4.9-0.8-7.4c0-24.7,0-49.3,0-74c0-3-0.4-6,1.6-8.7
		c2.1-1.7,4.7-1.7,7.1-1.7c21.3-0.1,42.6,0,63.9,0c3.2,0,6.2,0.9,9.3,1.8c5.2,0.1,10.3,0.4,15.5,0.1
		C416.8,335.5,422.8,337.8,427.8,343.1z"/>
	<path class="st0" d="M394,335.9c-24,0-48,0.1-72,0.1c-2.7,0-5.3,0.1-8,0.2c-4.3,2.4-8.6,2.7-12.9-0.3c6.4-9.6,7.2-20.3,5.5-31.4
		c-2-13.3-8-24.8-17.4-34.4c-0.9-0.9-1.7-2-2.6-3c7.3,2.8,13.3,7.9,19.8,12c24.1,15.4,48.1,31.1,72.1,46.7
		C383.8,329.1,388.9,332.5,394,335.9z"/>
	<path class="st1" d="M196.1,402.1c10.5,19.7,20.5,39.5,29.9,59.7c-0.3,1-1,1.7-1.9,2.1c-7.9,3.6-16.1,6.8-24.3,9.7
		c-1.3,0.5-2.6,0.4-3.7-0.5C196.1,449.5,196.1,425.8,196.1,402.1z"/>
	<path class="st5" d="M196.1,473.2c10.3-2.9,19.9-7.7,30-11.3c2.2,2.7,3.3,5.9,4.9,9c-11.6,4.4-23.2,8.8-34.8,13.2
		C196.1,480.4,196.1,476.8,196.1,473.2z"/>
	<path class="st4" d="M431,392.8c0,37.4,0.1,74.7,0.1,112.1c0,0.7-0.2,1.3-0.3,2c-2.1,1.6-4.5,2-7,2c-13.9,0-27.8,0-41.7,0
		c-2,0-4-0.1-5.8-1.1c-2.3-1.8-2.1-4.4-2.1-6.9c-0.1-26.9,0-53.9-0.1-80.8c0-5.2,2.1-8.3,7-10.2c14.6-5.6,29.2-11.2,43.7-17
		C426.8,392.2,428.9,391.3,431,392.8z"/>
	<path class="st4" d="M314,571c0-41.6,0-83.3,0-124.9c0-2.5,0.3-5-1.1-7.3c0-1,0.6-1.7,1.4-2.2c10.8-5.2,22.2-9,33.3-13.5
		c4.5-1.8,8.9-3.8,13.5-5.1c4.7-1.3,6.1-0.3,6.5,4.5c0.2,1.8,0.1,3.7,0.1,5.5c0,25.1,0,50.3,0,75.4c0,3.3-0.1,6.7-0.4,10
		c-4.5,12.6-1.8,25.6-2.5,38.5c-0.2,4.1,0,8.3,0,12.4c0,2.4-0.5,4.6-1.9,6.6C346.6,571,330.3,571,314,571z"/>
	<path class="st6" d="M366.2,513.1c0-31.5,0-63,0-95.1c-17.8,6.7-35,13.3-52.2,19.8c-2.3-2.7-1.8-6-1.7-9.2c0.3-0.8,0.9-1.3,1.8-1.5
		c18.7-7.2,37.5-14.4,56.2-21.6c20.3-7.8,40.5-15.6,60.8-23.5c0,3.6,0,7.1,0,10.7c-17.5,6.7-35,13.5-52.5,20.1
		c-2.5,0.9-2.5,2.7-2.5,4.8c0.1,29.7,0.1,59.5,0.1,89.2C373.5,510.1,370.9,513.4,366.2,513.1z"/>
	<path class="st7" d="M366.2,513.1c3.4-2,6.2-4.9,10-6.2c18.2,0,36.5,0,54.7-0.1c-6.7,6.6-13.4,13.3-20.2,19.8
		c-9.6,9.2-19.3,18.2-29,27.2c-6.2,5.7-12.5,11.4-18.7,17c0-13.5,0.1-27-0.1-40.5C362.7,524.4,363,518.5,366.2,513.1z"/>
	<path class="st5" d="M313,428.1c1.2,3.2,1.1,6.4,1,9.7c-0.4,0.3-0.7,0.7-1.1,1c-24.7,9.6-49.4,19.2-74.1,28.8
		c-1.5,0.6-3.1,1-4.7,1.5c2-4.5,4-9.1,6.8-13.2c2.1-2.9,5.4-3.6,8.5-4.9c13.8-5.7,11.6-2.8,11.9-17.8c0.2-7.1-1-14.3,1.7-21.2
		c3-6.8,6.1-13.4,10-19.8c2.2,1.9,1.8,4.5,1.8,6.9c0.1,11.4,0,22.9,0,34.3c0,7.4,0.1,7.4,7.2,4.7c8.2-3.2,16.4-6.3,24.6-9.6
		C308.5,427.8,310.7,426.3,313,428.1z"/>
	<path class="st8" d="M565.5,397.6c0.4-18.3-2.9-36.1-8.1-53.6c-14.3-48.1-40.2-89-78-122.1c-23.9-21-50.9-36.9-80.8-47.8
		c-16.9-6.2-34.2-11.1-52.2-12.9c-6.4-0.7-12.9-0.3-19.3-1.2c-11.3,0-22.7,0-34,0c-6.4,1-12.9,0.5-19.3,1.2
		c-23,2.6-44.9,9.3-66.2,18.4c-30.3,12.9-56.8,31.3-80,54.6c-22.1,22.2-39.8,47.4-52.5,76c-9.8,22.2-17,45.2-19.8,69.4
		c-0.7,6.4-0.3,12.9-1.3,19.3c0,11.3,0,22.7,0,34c1.1,1.9,0.4,3.9,0.5,5.9c0.4,7.1,0.4,14.3,1.7,21.4c5.8,33,17.7,63.8,35.4,92.3
		c14.1,22.7,31.4,42.7,51.6,59.9c21.1,17.9,44.6,32.2,70.3,42.4c19.4,7.7,39.3,13.6,60.2,15.9c6.7,0.7,13.6,0.3,20.3,1.2
		c10.7,0,21.3,0,32,0c7.8-1,15.7-0.6,23.6-1.5c2.6-0.3,5.3-0.4,7.4-2.3c0.7-2.4-1.4-2.7-2.6-3.6c-6-4.2-12.3-8-18.4-12.1
		c-26.8-17.7-54-34.9-80.8-52.7c-15.5-10.3-31.5-19.9-46.7-30.8c-8.1-4.5-11.6-11.3-10.8-20.6c0.4-4.9,0.1-9.9,0.1-14.9
		c-0.2-16.6,0.4-33.2-0.3-49.7c0.4-3.7,0.5-7.4,0.1-11.2c0.4-2.1,0.4-4.3,0.3-6.4c-0.2-20.9,0.5-41.8-0.5-62.7
		c0.1-3.3-1.6-6.1-2.9-8.9c-10.6-21.8-22.2-43.2-33-64.9c-1.3-2.5-2.6-5-2.9-7.9c-1.9-23.6,5.7-43.2,24.9-57.7
		c14.4-10.9,30.8-15.2,48.5-15.6c18.7,0.7,35.9,5.7,50.6,17.7c1,0.8,2.2,1.5,3.4,2c1.3,0.4,2.5,1,3.6,1.7
		c24.8,16.3,49.8,32.1,74.6,48.3c10,6.5,19.9,13.4,30.5,19c3.9,0.8,7.9,0.6,11.8,0.4c7.6-0.5,14.3,1.2,20.2,6.2
		c2.2,0.8,4.2,1.9,6.2,3.2c9.6,6.5,19.4,12.8,29.2,19.1c30,19.1,59.7,38.8,89.7,57.9c4.6,2.9,9.7,5.3,12.8,10.1
		c0.5,0.3,0.9,0.3,1.3-0.1c0-11.3,0-22.7,0-34C565.4,399.3,565.5,398.5,565.5,397.6z"/>
	<path class="st1" d="M313,428.1c-11.6,4.5-23.3,8.8-34.8,13.5c-4,1.6-5.3,1.4-5.3-3.4c0.2-15.3,0-30.6,0-45.9
		c3.4-8.6,8.1-16.6,12.3-24.9c5.3-10.5,10.6-21,16-31.5c4.3,0.1,8.6,0.2,12.9,0.3c0,30.3,0,60.7,0,91
		C313.7,427.5,313.3,427.8,313,428.1z"/>
	<path class="st9" d="M262.9,412c0,10.6,0,21.2,0.2,31.8c0.1,2.9-1.2,4.1-3.6,5c-6.2,2.3-12.4,4.7-18.6,7
		C247.8,441,255.1,426.4,262.9,412z"/>
	<path class="st10" d="M320.9,491.5c0-14.2,0.1-28.3-0.1-42.5c0-3.3,0.8-5,4.1-6.3c10.6-3.9,21.1-8.2,31.5-12.6
		c3.9-1.6,4.6-0.4,4.5,3.2c-1.1,28.5-0.9,56.9-0.9,85.4c0,2.6-1,3.9-3.3,5c-10.4,4.9-20.7,9.9-31.1,14.9c-3.5,1.7-4.9,1.3-4.9-3.1
		C321.1,520.8,320.9,506.1,320.9,491.5z"/>
</g>
</svg>
