<?xml version="1.0" encoding="utf-8"?>
<!-- Generator: Adobe Illustrator 19.0.0, SVG Export Plug-In . SVG Version: 6.00 Build 0)  -->
<svg version="1.1" id="Calque_1" xmlns="http://www.w3.org/2000/svg" xmlns:xlink="http://www.w3.org/1999/xlink" x="0px" y="0px"
	 viewBox="0 0 612 792" style="enable-background:new 0 0 612 792;" xml:space="preserve">
<style type="text/css">
	.st0{fill:#FFFFFF;}
</style>
<g>
	<path d="M559,626c0,3.7,0,7.3,0,11c-143,0-286,0-429,0c-3.2-2-5.6-4.4-5.9-8.6c-1.6-25.9-3.3-51.8-4.9-77.8
		c-1.8-28.8-3.6-57.5-5.4-86.3c-0.4-6.4-0.9-12.8-1.4-19.2c-1.3-0.1-1.9-0.2-2.6-0.3c-8.3-0.3-10.7-2.7-10.7-10.8
		c0-9.3-0.1-18.7,0-28c0.1-5.9,3-8.8,9-9c3.6-0.1,7.2,0,10.6,0c0.2-1.1,0.4-1.4,0.4-1.8c0-6.5,0.1-13,0.1-19.5
		c0-8.1,2.6-10.8,10.7-10.8c34.6,0,69.3,0,103.9,0c11.5,0,13.1,1.7,13.1,13.4c0,5.9,0,11.9,0,17.8c0.5,0,0.9,0,1.4,0
		c2.3-15.7,4.5-31.3,6.8-47.3c-43,0-85.4,0-127.8,0c-1.4,8.5-3.1,10-11.4,10.1c-19.3,0-38.6-0.1-58,0.1c-4.8,0.1-8.4-1.3-10.9-5.3
		c0-51.3,0-102.7,0-154c2.4-4.4,6.2-5.9,11.2-5.8c18.5,0.2,37,0.1,55.5,0.1c10.4,0,11.6,0.9,14,10.9c2.4,0,4.9,0,7.4,0
		c8.5,0,11-2.6,11-11c0-15.8,0.4-31.7-0.2-47.5c-0.4-10.1,2.6-17.5,12.1-21.7c3,0,6,0,9,0c0.8,0.3,1.5,0.8,2.3,0.9
		c17.7,3.9,29.8,16,31.8,33.9c1.3,11.4,0.6,22.9,0.7,34.4c0.1,8.2,2.5,10.8,10.6,10.8c14.2,0,28.3-0.2,42.5,0.1
		c18.9,0.4,30.4,20.6,20.2,36c-3.7,5.5,1.1,8.1,2.1,12c0.3,1.1,3.7,2,5.7,2c37.5,0.1,75,0.1,112.5,0.1c34.8,0,69.6,0.1,104.5-0.1
		c4.7,0,7.2,1,7.2,6.3c0,3.3,0.8,6.6,1.3,9.9c5.5,38.9,11.1,77.8,16.6,116.6c5.2,36.7,10.3,73.5,15.5,110.2
		c4.9,34.4,9.7,68.9,14.6,103.3C556.1,609.7,557.6,617.8,559,626z M279,321.4c0.4,7.5-1.7,13.7-6.2,19c-0.9,1-1,2.8-1.2,4.2
		c-2.5,17.1-4.9,34.3-7.3,51.4c-0.2,1.1,0.1,2.3,0.3,3.4c0.7,3.5,2,6.9,2.2,10.4c0.3,7.1,0.1,14.3,0.1,21.5
		c0,11.7-0.9,12.7-12.4,13.8c-0.3,0-0.5,0.3-1.1,0.8c-3.8,58.1-7.6,116.5-11.4,174.9c1.2,0.2,1.7,0.4,2.2,0.4c64,0,128,0,191.9,0.1
		c3.1,0,3.8-1.3,4.1-4.1c2.3-17.1,4.9-34.3,7.4-51.4c5.5-38,11-76.1,16.4-114.1c5.2-36.2,10.4-72.5,15.6-108.7
		c2.4-17.1,4.9-34.2,7.6-52.9c-2,2.3-3.1,3.5-4.1,4.8c-5.3,6.8-10.9,13.5-15.8,20.6c-3.2,4.6-7.2,6.2-12.7,6.2
		c-55.8-0.1-111.6-0.1-167.5-0.1C284.6,321.4,281.9,321.4,279,321.4z M237.7,445.2c-36.8,0-72.9,0-109.5,0
		c3.7,58.7,7.4,117.1,11.2,175.6c29.2,0,57.9,0,86.9,0C230.1,562.1,233.9,503.9,237.7,445.2z M127.1,332.7c0.9,0.2,1.2,0.3,1.5,0.3
		c41.8,0,83.6,0,125.5,0c5.2,0,8.7-3.2,9-7.5c0.3-4.7-2.5-7.7-8.3-8.6c-4.7-0.8-7.6-3.7-7.7-7.8c-0.1-4.1,2.8-7.2,7.4-8
		c5.7-1,8.4-3.5,8.5-8c0.1-4.6-2.7-7.3-8.7-8.3c-4.3-0.8-6.9-3.2-7.2-7.7c-0.3-4,2.8-7.2,7.4-8c5.7-1,8.4-3.5,8.5-7.9
		c0.1-4.6-2.6-7.3-8.6-8.4c-4.5-0.8-7.6-4.1-7.3-8.1c0.4-4.4,3-6.8,7.3-7.6c6.2-1.1,9-4,8.6-8.8c-0.4-4.7-4.1-7.4-10.1-7.4
		c-13.8,0-27.7,0-41.5,0c-15.3,0-25.3-10.1-25.4-25.4c0-10.5,0.1-21-0.1-31.5c-0.2-14.7-15.1-24.8-24.2-22.3c0,1.7,0,3.5,0,5.3
		c0,16.5,0.1,33-0.1,49.5c-0.1,14.1-10.4,24.1-24.4,24.4c-3.4,0.1-6.8,0-10.3,0C127.1,258.6,127.1,295.6,127.1,332.7z M482.8,268.9
		c-2.9,0-4.5,0-6.1,0c-63.6,0-127.3,0.1-190.9-0.2c-6.9,0-10.9,1.9-12.5,8.7c6.5,8.4,7,17.7,2.1,27.8c1.9,0.2,3.2,0.4,4.4,0.4
		c57,0,113.9,0,170.9-0.1c1.8,0,4.1-0.8,5.1-2.1C464.8,292.4,473.3,281.2,482.8,268.9z M63.2,343c16.2,0,32,0,47.5,0
		c0-44.7,0-88.7,0-132.8c-16,0-31.6,0-47.5,0C63.2,254.6,63.2,298.7,63.2,343z M457.3,609c2.2-1.5,3.1-2.1,3.9-2.8
		c8.9-7.5,17.9-14.9,26.6-22.7c1.7-1.5,3.1-4.4,3.1-6.6c0.2-64.5,0.1-128.9,0.1-193.4c0-1.6-0.1-3.2-0.2-4.8c-0.2,0-0.5,0-0.7,0.1
		C479.3,455.1,468.4,531.4,457.3,609z M540.5,609.8c-11-78-21.9-154.4-32.7-230.8c-0.3,0-0.6,0-0.9,0.1c0,2,0,4,0,5.9
		c0,60.1,0.3,120.2-0.3,180.4c-0.1,11.6,2.3,19.8,12.2,26.3C526.2,596.6,532.5,603.1,540.5,609.8z M115.1,428.8
		c45.6,0,90.6,0,135.7,0c0-5.4,0-10.5,0-15.6c-45.4,0-90.5,0-135.7,0C115.1,418.5,115.1,423.5,115.1,428.8z M135.2,381.1
		c0,5.5,0,10.6,0,15.7c32.1,0,63.8,0,95.6,0c0-5.4,0-10.5,0-15.7C198.8,381.1,167.2,381.1,135.2,381.1z M468.6,620.8
		c20.7,0,40.1,0,60.6,0c-10-8.4-19-16.2-28.2-23.8c-0.8-0.6-2.7-0.9-3.4-0.4C488.1,604.4,478.8,612.3,468.6,620.8z"/>
	<path class="st0" d="M279,321.4c3,0,5.6,0,8.2,0c55.8,0,111.6-0.1,167.5,0.1c5.5,0,9.4-1.5,12.7-6.2c5-7.1,10.5-13.8,15.8-20.6
		c1-1.2,2.1-2.4,4.1-4.8c-2.7,18.7-5.1,35.8-7.6,52.9c-5.2,36.2-10.4,72.5-15.6,108.7c-5.5,38.1-11,76.1-16.4,114.1
		c-2.5,17.1-5,34.2-7.4,51.4c-0.4,2.8-1,4.1-4.1,4.1c-64-0.1-128-0.1-191.9-0.1c-0.5,0-1-0.2-2.2-0.4c3.8-58.3,7.6-116.7,11.4-174.9
		c0.6-0.4,0.9-0.7,1.1-0.8c11.5-1.1,12.4-2.1,12.4-13.8c0-7.2,0.2-14.3-0.1-21.5c-0.2-3.5-1.5-6.9-2.2-10.4
		c-0.2-1.1-0.5-2.3-0.3-3.4c2.4-17.1,4.9-34.3,7.3-51.4c0.2-1.5,0.3-3.2,1.2-4.2C277.3,335.1,279.3,329,279,321.4z M370,372
		c-22.2,0-44.3,0-66.5,0c-7.1,0-9.4,2.2-10.4,9.2c-4.5,30.3-9,60.6-13.6,90.9c-1.2,7.9,1.8,11.7,9.9,11.7c44,0,88,0,132,0
		c8.1,0,10.3-2,11.5-9.9c4.5-30.1,9.1-60.2,13.7-90.3c1.2-7.9-1.6-11.4-9.5-11.4C414.7,372,392.4,372,370,372z"/>
	<path class="st0" d="M237.7,445.2c-3.8,58.7-7.6,117-11.4,175.6c-29,0-57.7,0-86.9,0c-3.7-58.5-7.4-116.9-11.2-175.6
		C164.8,445.2,200.8,445.2,237.7,445.2z"/>
	<path class="st0" d="M127.1,332.7c0-37.2,0-74.1,0-111.8c3.5,0,6.9,0,10.3,0c14-0.2,24.3-10.3,24.4-24.4c0.2-16.5,0-33,0.1-49.5
		c0-1.8,0-3.6,0-5.3c9.1-2.5,23.9,7.6,24.2,22.3c0.2,10.5,0,21,0.1,31.5c0.1,15.3,10.1,25.3,25.4,25.4c13.8,0,27.7,0,41.5,0
		c6,0,9.7,2.7,10.1,7.4c0.4,4.8-2.4,7.8-8.6,8.8c-4.3,0.7-6.9,3.2-7.3,7.6c-0.3,4,2.8,7.3,7.3,8.1c6,1.1,8.8,3.8,8.6,8.4
		c-0.1,4.4-2.8,6.9-8.5,7.9c-4.6,0.8-7.6,4-7.4,8c0.3,4.4,2.9,6.9,7.2,7.7c6,1.1,8.8,3.7,8.7,8.3c-0.1,4.5-2.8,7-8.5,8
		c-4.6,0.8-7.5,3.9-7.4,8c0.1,4.1,3,7,7.7,7.8c5.7,0.9,8.6,4,8.3,8.6c-0.3,4.3-3.9,7.5-9,7.5c-41.8,0.1-83.6,0-125.5,0
		C128.3,333.1,128,332.9,127.1,332.7z"/>
	<path class="st0" d="M482.8,268.9c-9.5,12.3-18.1,23.6-26.9,34.6c-1,1.3-3.4,2.1-5.1,2.1c-57,0.1-113.9,0.1-170.9,0.1
		c-1.3,0-2.5-0.2-4.4-0.4c4.9-10.1,4.4-19.4-2.1-27.8c1.7-6.9,5.6-8.8,12.5-8.7c63.6,0.3,127.3,0.2,190.9,0.2
		C478.4,268.9,480,268.9,482.8,268.9z"/>
	<path class="st0" d="M63.2,343c0-44.3,0-88.4,0-132.8c15.9,0,31.5,0,47.5,0c0,44,0,88.1,0,132.8C95.1,343,79.3,343,63.2,343z"/>
	<path class="st0" d="M457.3,609c11.1-77.6,21.9-153.9,32.8-230.2c0.2,0,0.5,0,0.7-0.1c0.1,1.6,0.2,3.2,0.2,4.8
		c0,64.5,0.1,128.9-0.1,193.4c0,2.2-1.4,5.1-3.1,6.6c-8.7,7.7-17.7,15.1-26.6,22.7C460.4,606.9,459.5,607.5,457.3,609z"/>
	<path class="st0" d="M540.5,609.8c-8-6.8-14.3-13.3-21.7-18.1c-9.9-6.5-12.3-14.7-12.2-26.3c0.6-60.1,0.3-120.2,0.3-180.4
		c0-2,0-4,0-5.9c0.3,0,0.6,0,0.9-0.1C518.6,455.5,529.4,531.9,540.5,609.8z"/>
	<path class="st0" d="M115.1,428.8c0-5.3,0-10.3,0-15.6c45.3,0,90.3,0,135.7,0c0,5.1,0,10.1,0,15.6
		C205.7,428.8,160.6,428.8,115.1,428.8z"/>
	<path class="st0" d="M135.2,381.1c32,0,63.6,0,95.6,0c0,5.3,0,10.3,0,15.7c-31.8,0-63.5,0-95.6,0
		C135.2,391.7,135.2,386.6,135.2,381.1z"/>
	<path class="st0" d="M468.6,620.8c10.2-8.6,19.6-16.5,29-24.2c0.6-0.5,2.6-0.2,3.4,0.4c9.2,7.6,18.3,15.4,28.2,23.8
		C508.7,620.8,489.2,620.8,468.6,620.8z"/>
	<path d="M370,372c22.3,0,44.7,0,67,0c7.9,0,10.7,3.5,9.5,11.4c-4.6,30.1-9.2,60.2-13.7,90.3c-1.2,7.9-3.4,9.9-11.5,9.9
		c-44,0-88,0-132,0c-8.1,0-11.1-3.7-9.9-11.7c4.6-30.3,9.1-60.6,13.6-90.9c1-7,3.3-9.2,10.4-9.2C325.7,372,347.9,372,370,372z
		 M308.2,388c-4.1,26.8-8.1,53.1-12.1,79.7c1.3,0.2,1.9,0.4,2.6,0.4c38.5,0,76.9,0,115.4,0.1c3,0,3.9-1.1,4.3-4
		c2.1-15,4.5-29.9,6.7-44.9c1.5-10.3,3-20.6,4.6-31.2C388.9,388,348.9,388,308.2,388z"/>
	<path class="st0" d="M308.2,388c40.7,0,80.8,0,121.5,0c-1.6,10.6-3,20.9-4.6,31.2c-2.2,15-4.6,29.9-6.7,44.9c-0.4,2.8-1.2,4-4.3,4
		c-38.5-0.1-76.9-0.1-115.4-0.1c-0.6,0-1.3-0.2-2.6-0.4C300.1,441.1,304.1,414.8,308.2,388z"/>
</g>
</svg>
