<?xml version="1.0" encoding="utf-8"?>
<!-- Generator: Adobe Illustrator 19.0.0, SVG Export Plug-In . SVG Version: 6.00 Build 0)  -->
<svg version="1.1" id="Calque_1" xmlns="http://www.w3.org/2000/svg" xmlns:xlink="http://www.w3.org/1999/xlink" x="0px" y="0px"
	 viewBox="0 0 612 792" style="enable-background:new 0 0 612 792;" xml:space="preserve">
<style type="text/css">
	.st0{fill:#1B4A99;}
	.st1{fill:#649AD9;}
	.st2{fill:#FAFBFB;}
	.st3{fill:#FCFCFC;}
	.st4{fill:#B8D2F6;}
	.st5{fill:#1B4A98;}
	.st6{fill:#1D4B99;}
	.st7{fill:#1D4B9A;}
	.st8{fill:#1D4C9A;}
	.st9{fill:#1E4C9A;}
	.st10{fill:#1E4C99;}
	.st11{fill:#1F4D9A;}
	.st12{fill:#B6D1F5;}
	.st13{fill:#AEC8ED;}
</style>
<g>
	<path class="st0" d="M315.7,484.2c-43.5,0-86.9,0-130.4,0c-12.3,0-18-7.5-14.6-19.2c9.9-34.5,19.8-69,29.8-103.5
		c2.4-8.2,6.4-11.5,14.1-11.5c66.8,0,133.6,0,200.4,0c10.3,0,15.1,3.7,18,13.7c9.5,33.7,19,67.5,28.4,101.3
		c3.3,11.8-2.3,19.2-14.7,19.2C403,484.2,359.3,484.2,315.7,484.2z"/>
	<path class="st1" d="M445.1,435c3.2,11.3,6.6,22.6,9.7,33.9c1.5,5.7-0.7,8-7.3,8c-53.5,0-106.9,0-160.4,0c-11.2,0-22.3,0-33.5-0.1
		c-8.3,0-11.1-2.2-13.2-10c-9.2-34.8-18.3-69.6-27.6-104.4c-1.2-4.4-0.3-5.4,4.1-5.4c61.6,0,123.3-0.1,184.9-0.1
		c6.1,0,12.2-1.2,18.2,0.8c-2.6,2.6-5.9,1.8-9,1.8c-52,0-104,0.2-156.1-0.2c-2.3,0-4.7,0-7,0c-7.5,0.1-15,0.1-22.5,0
		c-3.7,0-4.7,1.5-3.7,4.9c2.8,10.4,5.6,20.9,8.9,31.2c3.9,12,6.9,24.3,11.5,36.2c6.3,16.4,19.4,26.7,38.5,25.8
		c8.8-0.4,17.7-0.2,26.5,0c36.3,0.6,72.6-1.6,108.9-1.1c4.8,0.1,9.6-0.7,14.4-1.3c5.3-0.6,9.2-3.6,11.3-8.7c1.2-3,1.7-6.1,2.1-9.2
		C444,436.4,444.3,435.6,445.1,435z"/>
	<path class="st1" d="M210,382c5.3,19.8,10.6,39.7,16,59.5c3,11,5.3,22.2,9.2,33c1.3,3.6-1.6,2.4-3,2.4c-14.5,0-28.9,0-43.4-0.1
		c-3.7-2.2-5-5.6-5.2-9.6c-0.2-3.4,0.4-6.6,1.6-9.8c8-22.6,14.4-45.6,21-68.5C206.9,386.4,206.5,383,210,382z"/>
	<path class="st2" d="M247.1,358.1c30.8-0.1,61.6-0.1,92.5-0.2c26.8,0,53.7-0.1,80.5-0.1c2.9,0.8,4.2,2.9,5,5.7
		c6.7,23.8,13.4,47.7,20.1,71.5c-0.1,0.6-0.1,1.3-0.2,1.9c-3.6,1.3-4.7-1.7-5.8-3.9c-2.3-4.3-3.5-9-5.2-13.5
		c-4.5-12.7-9.2-25.4-13.1-38.3c-2-6.8-6.2-10.5-13.2-12c-10.9-2.2-21.9-1.9-32.8-2.7c-29.6-2-59.1-3-88.8-3.4
		c-10.4-0.1-21-0.6-31.4-2C252,360.9,248.5,361.7,247.1,358.1z"/>
	<path class="st3" d="M210,382c-5.1,14.2-8.2,29-12.9,43.4c-3.3,10.1-6.3,20.3-9.9,30.3c-2.8,7.5-3.4,14.5,1.7,21.2
		c-13,0.1-13.6-0.7-10-13.3c8.8-30.4,17.5-60.8,26.2-91.2c0.3-1.1,0.8-2.2,1.5-4.3C207.9,373.3,208.9,377.7,210,382z"/>
	<path class="st4" d="M247.1,358.1c5.8,3,12.3,2,18.5,2.7c10,1.1,20.2,1.3,30.3,1.1c16.3-0.3,32.6,0.9,48.8,1.3
		c17.1,0.4,34.1,2.4,51.1,2.9c4.9,0.1,9.8,1.3,14.7,2.3c6.2,1.3,9.7,5.5,11.4,11.3c5.1,17.3,11.6,34.2,17.6,51.3
		c0.9,2.6,1.9,5.5,5.3,6c0.7,11.2-6.4,20-19,20.4c-20.6,0.7-41.2-0.1-61.8,0.9c-28.1,1.3-56.3,0.2-84.4,0.9
		c-18.7,0.4-32.3-9.5-38.7-26.4c-7.2-19.1-12.3-38.9-18-58.5c-1.2-4.1-1.9-8.4-3.3-12.5c-1.1-3.2,0.1-3.8,2.9-3.7
		C230.8,358.1,238.9,358.1,247.1,358.1z"/>
	<path class="st5" d="M344.2,451.3c-9.8,0-19.6,0-29.4,0c-2.6,0-5.5-0.1-5.5-3.4c-0.1-3.7,2.8-3.9,5.7-3.9c19.8,0,39.5,0,59.3-0.1
		c2.6,0,4.9,0.3,5,3.5c0.1,3.5-2.4,3.9-5.1,3.8C364.2,451.2,354.2,451.2,344.2,451.3C344.2,451.2,344.2,451.2,344.2,451.3z"/>
	<path class="st6" d="M342.1,404.1c2,0,4-0.2,6,0.1c3.2,0.5,5.6,2.3,6.6,5.4c0.9,2.7,0.8,5.4-2,7c-2.3,1.2-0.7,1.8,0.1,2.8
		c1.8,2,3.5,4,5.2,6.1c0.7,0.9,1.6,2,0.3,3.1c-1.2,1.1-2.6,0.7-3.6-0.3c-1.5-1.6-2.8-3.3-4.2-4.9c-1.3-1.5-2.7-2.9-4.2-4.2
		c-1-0.9-2.5-1.3-3.7-0.6c-1.1,0.7-0.4,2.2-0.4,3.3c0,0.5,0.2,1,0.3,1.5c0.3,2,2.1,4.8-0.8,5.6c-3.6,1-3.5-2.7-4.1-4.9
		c-1.1-4.5-1.8-9.1-2.8-13.7c-1.3-6-1.1-6.2,4.9-6.2c0.8,0,1.7,0,2.5,0C342.1,404,342.1,404,342.1,404.1z"/>
	<path class="st7" d="M248.8,404.1c1.3,0,4-0.3,6.6,0.8c5.3,2.2,6.9,7.9,2.9,11.8c-1.6,1.6-0.8,1.9,0.1,3c1.7,1.8,3.3,3.7,4.9,5.7
		c0.8,1,1.7,2.4,0.3,3.5c-1.2,0.9-2.6,0.4-3.6-0.7c-1.7-1.9-3.2-3.8-4.8-5.7c-1.3-1.5-2.5-3.1-4.6-3.7c-2.6-0.8-3.9-0.3-3.1,2.8
		c0.4,1.4,0.6,2.9,1,4.4c0.4,1.4,0.3,2.8-1.3,3.2c-1.4,0.4-2.8-0.2-3.2-1.7c-1.6-6.9-3.2-13.9-4.5-20.9c-0.3-1.5,1.1-2.3,2.6-2.4
		C243.8,404.1,245.6,404.1,248.8,404.1z"/>
	<path class="st6" d="M412.8,403.8c10.1,0,16.2,6,16.2,16c0,5.2-2.6,8.4-7.7,8.5c-12.8,0.3-11,2.2-13.5-10c-0.6-2.9-0.9-6-1.9-8.8
		c-1.5-4.5-0.2-6.3,4.5-5.7C411.1,403.9,411.9,403.8,412.8,403.8z"/>
	<path class="st8" d="M278.6,429c-1.7,0-3.3-0.1-5,0c-3.3,0.3-4.9-1.3-5.5-4.3c-1-5.4-2-10.8-3.3-16.1c-0.8-3.3,0-4.7,3.5-4.6
		c3.8,0.1,7.6,0,11.5,0c1.6,0,3.2,0.6,3.1,2.4c-0.1,1.8-1.9,1.5-3.2,1.5c-2.2,0-4.3-0.1-6.5,0.1c-1.3,0.1-3.4-0.7-3,1.9
		c0.3,1.8,0.1,4.2,3.2,4c2.7-0.1,5.3,0,8,0c1.5,0,2.7,0.7,2.6,2.4c-0.1,1.5-1.5,1.5-2.7,1.5c-1.7,0-3.3-0.2-5,0.1
		c-1.5,0.2-4.3-1.3-4,1.9c0.2,2.3,0,5.6,4.2,5.2c2.8-0.3,5.6,0,8.5,0c1.5,0,2.7,0.7,2.7,2.3c0,1.4-1.4,1.7-2.6,1.7
		C282.9,429,280.7,429,278.6,429C278.6,429,278.6,429,278.6,429z"/>
	<path class="st9" d="M316.5,408.3c-0.6,5.4,2.5,5.9,6.7,5.7c2.3-0.1,6.6-1.8,6.6,1.8c0,3.7-4.3,1.1-6.6,2c-1.6,0.6-4.5-1.8-4.6,1.7
		c0,3,0.6,6,5.1,5.4c2.6-0.4,5.3-0.1,8,0c1.3,0.1,2.3,0.8,2.1,2.2c-0.1,1.2-1.1,1.6-2.1,1.6c-4.5,0-9,0.1-13.5,0
		c-2.1,0-3.2-1.5-3.6-3.5c-1.2-5.7-2.5-11.4-3.6-17.1c-0.6-2.7,0.1-4.5,3.5-4.3c3.7,0.2,7.3,0,11,0c1.5,0,3.4-0.1,3.5,1.9
		c0.1,2.7-2.2,1.8-3.7,2C322.3,408.1,319.3,407.5,316.5,408.3z"/>
	<path class="st10" d="M294.9,403.8c4.8-0.1,8,1,10.2,4.1c0.8,1.1,1.4,2.4,0.2,3.6c-1.4,1.3-2.5,0.1-3.3-0.9
		c-1.5-1.8-3.1-3.6-5.8-3.4c-1.6,0.1-3.1,0.5-3.3,2.3c-0.2,1.6,0.9,2.5,2.2,3c2.7,0.9,5.4,1.5,8.1,2.4c4.7,1.6,7.5,5.6,6.5,9.3
		c-1.3,4.7-5.1,5.1-9.2,5c-3.9-0.1-7.1-1.5-9.4-4.7c-0.9-1.2-1.9-2.8-0.5-4c1.5-1.3,2.8,0,3.7,1.2c1.4,1.9,3,3.7,5.5,3.9
		c2.1,0.2,4.2-0.3,4.8-2.6c0.5-2.1-1.1-3.3-3-3.9c-2.7-0.9-5.5-1.4-8.1-2.4c-3.8-1.5-6.3-4.1-5.4-8.4
		C288.9,404,292.6,403.9,294.9,403.8z"/>
	<path class="st11" d="M391.1,403.8c2,0,4,0,6,0c1.3,0,2.9,0.1,3,1.8c0.1,1.9-1.4,2-2.8,2c-2.2,0.1-4.3,0-6.5,0.1
		c-1.2,0.1-3.4-1-3.1,1.7c0.2,1.9,0,4.2,3.1,4.2c2.5,0,5,0,7.5,0c1.4,0,3,0.2,3.1,1.8c0.2,2-1.7,1.6-2.9,1.7c-1.7,0.1-3.3-0.1-5,0.2
		c-1.6,0.2-4.1-0.6-3.6,2.6c0.3,2.4,0.4,4.8,3.8,4.6c2.8-0.1,5.7-0.1,8.5,0c1.3,0,2.8,0.2,2.7,2.1c-0.1,1.6-1.4,1.8-2.5,1.8
		c-4.2,0.1-8.3,0.2-12.5,0.1c-2.2-0.1-3.6-1.2-4.1-3.5c-1.2-5.9-2.5-11.7-3.8-17.5c-0.5-2.4,0.2-3.9,3-3.8
		C387.1,403.9,389.1,403.8,391.1,403.8C391.1,403.8,391.1,403.8,391.1,403.8z"/>
	<path class="st9" d="M370.8,423c0.8-6.1,1.5-11.2,2.2-16.2c0.2-1.6,0.2-3.7,2.6-3.3c1.9,0.3,2.7,1.9,2.4,3.8c-1,6.2-2,12.5-3,18.7
		c-0.2,1.4-0.8,2.6-2.3,2.9c-1.9,0.4-3.4-0.5-4.3-2c-4-6.7-7.9-13.5-11.8-20.2c-0.7-1.2-0.6-2.3,0.6-3c1.5-0.9,2.7,0,3.4,1.2
		c1.9,3.1,3.7,6.3,5.5,9.5C367.5,417,368.9,419.5,370.8,423z"/>
	<path class="st12" d="M343.5,407.8c3.1-0.1,6.2,0.2,6.3,3.7c0,3.8-3.5,2.4-5.7,2.8c-3.6,0.7-4.1-1.7-4.4-4.4
		C339.4,405.9,342.6,408.8,343.5,407.8z"/>
	<path class="st13" d="M249,408c3.4-0.1,6.4,0.5,6.4,3.8c0,3.5-3.4,2.8-5.7,3.1c-3.9,0.6-4.4-2.2-4.5-4.9
		C244.9,406.3,248.2,409,249,408z"/>
	<path class="st12" d="M414.7,407.8c6.5,0.3,11.1,8.9,8.3,14.3c-1.5,2.9-4.2,2-6.6,2.3c-2.6,0.3-2.9-1.7-3.3-3.4
		c-0.6-2.9-1.1-5.9-1.9-8.7C410.3,408.4,411.6,407.2,414.7,407.8z"/>
</g>
</svg>
