<?xml version="1.0" encoding="utf-8"?>
<!-- Generator: Adobe Illustrator 19.0.0, SVG Export Plug-In . SVG Version: 6.00 Build 0)  -->
<svg version="1.1" id="Calque_1" xmlns="http://www.w3.org/2000/svg" xmlns:xlink="http://www.w3.org/1999/xlink" x="0px" y="0px"
	 viewBox="0 0 612 792" style="enable-background:new 0 0 612 792;" xml:space="preserve">
<style type="text/css">
	.st0{fill:#1B4A99;}
	.st1{fill:#B8D3F6;}
	.st2{fill:#649AD9;}
	.st3{fill:#B8D2F6;}
	.st4{fill:#FBFBFC;}
	.st5{fill:#6499D9;}
	.st6{fill:#B7D2F6;}
	.st7{fill:#6499D8;}
	.st8{fill:#1C4B9A;}
	.st9{fill:#1C4A99;}
	.st10{fill:#1D4C9A;}
	.st11{fill:#1D4B99;}
	.st12{fill:#1E4C9A;}
	.st13{fill:#1C4B99;}
	.st14{fill:#B1CCF0;}
	.st15{fill:#B2CDF2;}
	.st16{fill:#B7D1F5;}
</style>
<g>
	<path class="st0" d="M359.1,265.7c44,0,88,0,132,0c9.7,0,15.2,5.4,15.2,15c0.1,23.2,0.1,46.3,0,69.5c0,9.8-5.7,15.3-15.7,15.2
		c-36.2,0-72.3,0.1-108.5-0.2c-4.5,0-5.4,1.2-5.4,5.5c0.3,18,0.2,36,0,54c0,3.7,0.8,5,4.7,4.7c20.6-1.4,42.8,14.6,46.1,39.8
		c0.9,6.8-0.3,8.4-7.1,8.4c-41.2,0-82.3,0-123.5,0c-6.3,0-7.5-1.4-6.8-7.8c2.6-23.1,21.7-40.3,45.1-40.3c4.5,0,5.8-1,5.8-5.7
		c-0.3-17.8-0.3-35.7,0-53.5c0.1-4.4-1.3-5.1-5.3-5.1c-36,0.2-72,0.1-108,0.1c-11.3,0-16.4-5.2-16.5-16.6c0-22.5,0-45,0-67.5
		c0-10.4,5.4-15.6,15.7-15.6C271.1,265.7,315.1,265.8,359.1,265.7C359.1,265.7,359.1,265.7,359.1,265.7z"/>
	<path class="st1" d="M498.8,313.7c0,12.3,0,24.7,0.1,37c-1,2.4-2.9,3.5-5.3,4.2c-3.2,0.9-6.5,1.4-9.9,1.4
		c-16.8,0-33.6,0.4-50.4-0.1c-26.4-0.8-52.9-1-79.3-2.1c-36-1.5-72.1-3.6-108-6.9c-11.9-1.1-17.2-6.8-17.6-18.7
		c-0.4-11.5,0.8-22.9,1.2-34.4c0.5-13.7,7.3-20,21.1-20.8c2.3-0.1,4.7-0.1,7,0c5.2,1.1,10.4,1.8,15.8,2c18.1,0.7,36.2,1.5,54.3,2.7
		c9,0.6,18,0.8,26.9,0.9c16.5,0.3,32.9,1.1,49.4,1.5c20.4,0.4,40.9,0.8,61.3,0.9c3.8,0,7.6,0.7,11.4,1.5
		c12.3,2.8,17.9,11.7,20.7,23.1C498,308.4,498.1,311.1,498.8,313.7z"/>
	<path class="st2" d="M257.9,273.7c-3.7-0.1-7.3,0.1-10.9,1c-11,2.7-15.6,7.7-15.9,19.1c-0.3,11.6-1.6,23.2-1.2,34.9
		c0.4,11,4.4,16.1,15.3,16.9c20.7,1.4,41.3,3.3,62.1,4.3c25.9,1.4,51.8,2.3,77.7,3.1c33.3,1,66.5,1.8,99.8,1.7c5,0,9.9-0.9,14.1-4
		c-0.2,5.8-1.4,7-7.1,7.1c-88.5,0-176.9,0-265.4,0c-6.2,0-7.5-1.3-7.5-7.7c0-22.7,0-45.3,0-68c0-7.7,1.1-9,8.9-9.1
		c10.8-0.2,21.7-0.3,32.5-0.3c76.6,0,153.3,0,229.9,0c1.9,0,4-0.6,5.7,1c-1.8,1.9-4.3,1.7-6.5,1.7c-68.9,0-137.8,0.2-206.7-0.1
		C274.4,275.2,266,276,257.9,273.7z"/>
	<path class="st3" d="M407,445.6c6.5,4.8,10.1,11.4,12,19.1c-1,3.7-4.2,3.3-6.9,3.4c-14.4,0.7-28.8,1.2-43.3,0.8
		c-14.1-0.4-28.2-1.4-42.2-2.8c-3.8-0.4-7.6-1-11.1-2.7c-5.4-2.6-6.5-7.6-2-11.6c7.3-6.4,15.7-10.9,25.9-9.4c21,3,42.1,3.1,63.3,2.4
		C404.2,444.9,405.6,444.9,407,445.6z"/>
	<path class="st4" d="M257.9,273.7c36.6,0,73.2-0.1,109.8-0.1c42.8,0,85.5,0,128.3,0c2.4,1.2,3,3.3,3,5.8
		c-0.1,11.4-0.1,22.8-0.1,34.2c-2.2-5.7-4.2-11.5-6.5-17.1c-3.1-7.7-9.7-11.2-17.3-12.7c-5.7-1.2-11.5-1.3-17.3-1.1
		c-24.6,0.8-49.2-0.8-73.8-1.2c-18.6-0.3-37.1-1.2-55.7-1.9c-13.6-0.5-27.2-1-40.7-2.1c-8.2-0.7-16.6,0.2-24.8-1.7
		C260.9,275.4,259.1,275.3,257.9,273.7z"/>
	<path class="st5" d="M407,445.6c-15.2,2.1-30.5,1.3-45.8,0.5c-8.3-0.4-16.5-1.7-24.8-2.3c-8.9-0.6-16,3.8-22.4,9.4
		c-3.8,3.3-2.9,6.8,1.7,8.9c6.4,2.9,13.3,2.9,20,3.5c19.5,1.7,39.2,2.7,58.8,2.1c6.5-0.2,12.9-0.6,19.4-1.1c1.7-0.1,3.7-0.2,5-1.8
		c1.6,5.5,1.4,6-3.8,5.8c-15.6-0.6-31.2-0.3-46.7-0.3c-17.2,0-34.5-0.3-51.7,0.3c-5,0.2-9.9-0.1-14.9,0.1c-3.5,0.1-4.4-1.1-3.7-4.4
		c3.4-16.4,18-29.1,34.6-29.3c17.5-0.3,35-0.3,52.5,0.1C393.4,437.1,400.9,439.9,407,445.6z"/>
	<path class="st6" d="M360,365.9c9.2-0.7,9.2-0.7,9.2,8.3c0,16.3,0,32.6,0,48.8c0,6.3,0,6.3-6.3,5.7c-4.3-2.7-5.3-7.3-6-11.6
		c-2.6-14.9-3.5-29.9-1.2-45C356.2,369.5,357.2,367.1,360,365.9z"/>
	<path class="st7" d="M360,365.9c-3.9,4.2-3.3,9.7-3.7,14.7c-1,12.3-0.1,24.5,2,36.7c0.7,4.1,2.5,7.9,4.6,11.5c-0.7,0-1.3,0.2-2,0.1
		c-15.2-0.4-12.7,2.7-12.8-13.3c-0.1-10.2-0.1-20.4,0-30.6c0-5.8,0.3-11.6,0.3-17.3c0-2.2,1.4-1.9,2.7-1.9
		C354.1,365.8,357,365.9,360,365.9z"/>
	<path class="st8" d="M378.4,317.2c3.1,3,5.6,6.2,7.1,9.9c0.6,1.5,0.8,2.9-0.8,4c-1.7,1.1-3.3,0.6-4.4-0.9c-1.7-2.4-3.2-5-4.8-7.6
		c-1-1.5-1.9-3.1-3.6-4c-3.4-1.9-5.2-1-5.3,2.9c-0.1,2.3,0,4.7-0.2,7c-0.2,1.8-1.1,3.2-3.2,3.2c-1.7-0.1-2.9-1.3-3-2.9
		c-0.1-8.6-0.2-17.3,0-25.9c0.1-2.4,2.3-3,4.5-3c3.3,0,6.7,0,10,0c6.2,0.1,9.6,2.3,10.6,7C386.3,311.4,384.6,314.1,378.4,317.2z"/>
	<path class="st9" d="M260.2,317.4c2.7,2.8,5.1,5.7,6.6,9.3c0.7,1.6,1.3,3.2-0.6,4.4c-2,1.3-3.6,0.3-4.7-1.3c-1.8-2.6-3.4-5.3-5-8
		c-1-1.6-2.1-3.1-4-3.6c-2.6-0.8-5.1-1.1-4.7,3c0.2,2.3,0,4.7,0,7c0,1.9-0.9,3.3-2.8,3.5c-2,0.2-3.2-1.1-3.2-3
		c-0.1-8.5-0.1-17,0-25.4c0-2.6,1.9-3.3,4.1-3.3c3,0,6,0,9,0c6.8,0,10.6,2,11.8,6.2C268,310.8,266.4,313.6,260.2,317.4z"/>
	<path class="st9" d="M449.6,315.1c0-3.7,0-7.3,0-11c0-2.5,0.9-4.3,3.7-4.3c3.8,0,7.7-0.3,11.4,0.2c8.2,1.1,11.9,7.2,11.3,18
		c-0.5,7.8-5.3,12.8-13,12.8c-16.2,0.1-13,1.8-13.4-12.8C449.6,317.1,449.6,316.1,449.6,315.1z"/>
	<path class="st10" d="M432.2,331c-13.2,0-11.9,1.5-12-12.1c0-4.7,0-9.3,0-14c0-3.5,1.5-5.2,5.1-5.1c4.8,0.1,9.7,0,14.5,0
		c1.9,0,4,0.3,3.9,2.8c-0.1,2.2-2.1,2.2-3.8,2.2c-3,0-6,0.2-9,0c-2.7-0.2-4.3,0.2-4.2,3.7c0.1,3.3,1,4.5,4.3,4.2
		c2.5-0.2,5-0.1,7.5,0c1.8,0,4.2-0.3,4,2.4c-0.1,2.3-2.4,2.4-4.3,2.4c-2.7,0-5.3,0.2-8-0.1c-3.6-0.3-3.5,1.9-3.5,4.4
		c-0.1,2.6,0.1,4.5,3.6,4.3c3.5-0.3,7-0.1,10.5,0c1.8,0,3.4,0.6,3.2,2.9c-0.2,2.1-1.9,2.1-3.4,2.1C437.9,331,435.1,331,432.2,331z"
		/>
	<path class="st11" d="M331,315.5c0-3.5,0.1-7,0-10.5c-0.1-3.5,1.3-5.3,5-5.2c5,0.1,10,0,15,0c1.9,0,3.6,0.6,3.5,2.6
		c0,2.2-2,2.3-3.7,2.3c-3.2,0-6.3,0.1-9.5-0.1c-2.7-0.2-3.9,0.7-3.8,3.6c0.1,2.6,0.2,4.6,3.7,4.3c2.8-0.2,5.7-0.1,8.5,0
		c1.5,0,3.2-0.1,3.4,2c0.2,2.5-1.8,2.5-3.4,2.5c-3,0.1-6,0.3-9,0.2c-3.5-0.1-3,2.2-3,4.4c-0.1,2.2-0.3,4.4,3.1,4.2
		c3.5-0.2,7-0.1,10.5,0c1.8,0,3.5,0.3,3.7,2.5c0.2,2.4-1.7,2.5-3.4,2.5c-5.5,0-11,0-16.5,0c-3,0-4.1-1.7-4-4.5
		C331.1,322.9,331,319.2,331,315.5z"/>
	<path class="st12" d="M272.9,315.5c0-3.7,0-7.3,0-11c0-3.1,1.4-4.7,4.5-4.7c5.2,0,10.3,0,15.5,0c1.9,0,3.6,0.6,3.5,2.6
		c0,2.2-2,2.3-3.7,2.3c-3.5,0-7,0.1-10.5-0.1c-3.1-0.2-3.1,1.7-3,3.8c0.1,2-0.2,4.1,2.9,4c3.3-0.1,6.7,0,10,0c1.4,0,2.8,0.2,2.9,2
		c0.1,2-1.3,2.6-2.9,2.7c-3,0.1-6,0.3-9,0.1c-3.7-0.3-3.9,1.8-4,4.6c-0.1,3,0.7,4.3,3.9,4.1c3.5-0.2,7-0.1,10.5,0
		c1.7,0.1,3.4,0.6,3.3,2.9c-0.2,2.1-1.9,2.1-3.4,2.1c-5.5,0-11,0-16.5,0c-3,0-4.1-1.7-4-4.5C273,322.9,272.9,319.2,272.9,315.5z"/>
	<path class="st13" d="M313.2,299.5c3.9-0.2,7.3,0.7,9.8,3.9c1.4,1.9,2.1,4.2,0,5.8c-2.2,1.7-3.6-0.3-4.6-2.1
		c-0.9-1.7-2.4-2.9-4.3-3.1c-2.6-0.3-5.3-0.2-6.2,2.7c-1,3.2,1.9,3.8,4.1,4.5c3,1.1,6.1,1.6,9,2.9c4.8,2.2,6.4,7.7,3.5,12.2
		c-2.7,4.3-7,5.3-11.7,5.3c-4.6-0.1-8.5-1.6-10.8-5.8c-1.1-1.9-2-4.2,0.5-5.7c2.5-1.4,3.5,0.8,4.4,2.6c1,2,2.3,3.7,4.7,4
		c3.3,0.3,6.9,0.2,7.7-3.7c0.7-3.6-2.6-4.5-5.4-5.3c-1.9-0.5-3.9-1-5.7-1.6c-4.3-1.4-6.8-4.1-6.4-8.8c0.4-4.8,3.8-6.7,8-7.6
		C310.9,299.5,312.1,299.6,313.2,299.5z"/>
	<path class="st11" d="M402.1,324.4c2.6-7.8,4.7-14.2,6.9-20.6c0.7-2.2,1.3-5,4.5-4c3.4,1,2,3.7,1.3,5.8c-2.6,7.2-5.3,14.3-8,21.4
		c-0.9,2.4-2,4.7-5.1,4.6c-2.8-0.1-3.8-2.3-4.7-4.6c-2.7-7.3-5.4-14.6-8.1-21.9c-0.7-2.1-1.5-4.4,1.5-5.4c2.8-0.9,3.8,1.3,4.5,3.4
		C397.2,309.8,399.4,316.4,402.1,324.4z"/>
	<path class="st14" d="M370.9,313.4c-4.1,0.8-4.1-1.6-4.4-4.6c-0.4-4.6,2.4-4.1,5.2-4c3.3,0.1,7.4-0.5,7.2,4.4
		C378.6,314.4,373.8,312.6,370.9,313.4z"/>
	<path class="st15" d="M254.6,304.8c0.3,0,1.9-0.1,3.2,0.4c2.7,1.1,3.7,3.3,2.1,6c-1.1,1.9-9.7,3.4-11.2,1.9
		c-1.8-1.9-0.7-4.4-0.8-6.6c-0.1-2,1.7-1.6,2.9-1.6C251.8,304.7,252.6,304.8,254.6,304.8z"/>
	<path class="st16" d="M455.8,315.4c0-1.3-0.2-2.7,0.1-4c0.5-2.2-1.7-5.2,1.7-6.5c3.7-1.4,9.4,0.8,10.9,4c2,4.5,1.9,9.1-0.3,13.5
		c-1.5,3-8,4.8-11.1,3.4c-1.2-0.6-1.1-1.5-1.1-2.5C455.9,320.7,455.9,318.1,455.8,315.4C455.9,315.4,455.9,315.4,455.8,315.4z"/>
</g>
</svg>
