<?xml version="1.0" encoding="utf-8"?>
<!-- Generator: Adobe Illustrator 19.0.0, SVG Export Plug-In . SVG Version: 6.00 Build 0)  -->
<svg version="1.1" id="Calque_1" xmlns="http://www.w3.org/2000/svg" xmlns:xlink="http://www.w3.org/1999/xlink" x="0px" y="0px"
	 viewBox="0 0 612 792" style="enable-background:new 0 0 612 792;" xml:space="preserve">
<style type="text/css">
	.st0{fill:#7EE6D8;}
	.st1{fill:#FDFDA5;}
	.st2{fill:#01A1A5;}
	.st3{fill:#29D7C1;}
	.st4{fill:#8DB455;}
	.st5{fill:#8EB455;}
	.st6{fill:#29D7C0;}
</style>
<g>
	<path class="st0" d="M364.1,554.3c-50,0-100,0.1-150,0.2c-4.6,0-7.3-2.1-9.5-5.9c-18.6-32.3-37.2-64.6-55.9-96.9
		c-16.1-27.8-32.1-55.6-48.2-83.4c-2.2-3.8-2.4-7.4-0.1-11.3c29.9-51.7,59.7-103.5,89.5-155.2c4.7-8.2,9.6-16.4,14.1-24.7
		c2.6-4.7,6-6.9,11.6-6.9c69,0.1,138,0.1,206.9,0c5.4,0,8.6,2.2,11.2,6.7c33.6,58.4,67.2,116.8,101.2,175c4.2,7.3,4.8,13.1,0.2,20.6
		c-12.8,21-24.8,42.5-37.2,63.8c-0.5,0.9-0.8,1.8-1.2,2.7c-2.6,0.2-3.2-2-4.2-3.6c-8.7-14.7-17.5-29.5-25.6-44.5
		c-3.2-6-7.3-8.6-14.3-8.4c-13.1,0.4-26.3,0.2-39.4,0.1c-2.4,0-5.1,0.5-7-1.8c-0.8-1.5-0.9-3.2-0.8-4.9c1.5-19.4,2.2-38.9,3.9-58.2
		c1.9-2.5,4.7-1.8,7.2-1.8c9.1-0.2,9.7-0.9,7.7-9.7c-0.1-0.5-0.1-1-0.1-1.5c0.1-1.2,0.6-2.3,0.7-3.4c0.5-4.1-0.9-5.9-5.1-6.3
		c-4-0.4-8,0-12-0.2c-3.4-0.1-5.7-0.8-5-5.3c0.7-4.8-0.9-6.2-5.7-6.6c-1.2-0.1-2.3-0.1-3.5-0.1c-50.6,0-101.2,0-151.9,0
		c-1.2,0-2.3,0-3.5,0c-4.8,0.3-6.1,1.5-5.3,6.3c0.8,4.6-1.4,5.6-5.1,5.6c-2.8,0.1-5.7,0-8.5,0.1c-6.1,0.2-7.3,1.7-6.1,7.7
		c0.1,0.7,0.3,1.3,0.4,1.9c-1.6,10.4-1.6,10.4,9.4,11.4c1.6,0.1,3.3,0.1,4.3,1.8c2,28.7,4.5,57.3,6.9,86c0.6,7.5,0.9,14.9,1.8,22.4
		c1,8.2,2.8,9.6,11,9.6c24.5,0.1,48.9,0,73.4,0c2.7,0,5.3-0.2,7.9,0.4c3.3,1.3,1.7,3.5,0.8,5.3c-2.7,5.3-5.5,10.7-9,15.5
		c-5.3,7.3-4.9,13.7-0.2,21.4c13.6,22.3,26.4,45.1,39.3,67.8C360.8,549.1,363.5,551.1,364.1,554.3z"/>
	<path class="st1" d="M364.1,554.3c-4-2.8-5.7-7.2-8-11.2c-12.8-22.1-25.4-44.4-38.5-66.3c-3.9-6.6-4-11.9,0.2-18.2
		c4.5-6.7,8.1-14.1,12.1-21.1c2-7.3,7-13,10.2-19.6c4.3-7.5,8.9-14.9,12.9-22.5c1.2-2.4,2.9-4.5,4-6.9c3-6.4,7.8-9.3,14.8-8.5
		c3.8-0.1,7.7-0.1,11.5,0c6.1-0.3,12.2-0.1,18.3-0.1c1.8,0,3.7,0,5.2,1.3c15.8,0.1,31.6,0.4,47.4,0.1c6.5-0.2,10,2.4,13,7.8
		c8.9,16,18.2,31.7,27.3,47.5c0.6,1,1.4,1.8,2.1,2.7c2.7,6.8,6.6,13,10.7,19.1c4.3,6.4,4.2,12.2,0.2,18.9
		c-13.7,23-27,46.1-40.2,69.4c-3.1,5.6-6.8,8-13.4,7.9C424,554.2,394.1,554.4,364.1,554.3z"/>
	<path class="st2" d="M406.9,381.1c-8,0-15.9,0-23.9,0c-1.9-1.9-1.5-4.3-1.6-6.6c-0.1-9.7,0-19.3,0-29c0-1.8,0-3.7-0.4-5.5
		c-0.5-2.2-2.1-2.9-4.1-2.9c-2,0-3.6,0.7-4.1,2.9c-0.6,2.5-0.4,5-0.4,7.5c0,9,0,18,0,27c0,2.3,0.3,4.7-1.6,6.6
		c-6.4-0.7-10.3,2.4-12.8,8c-1.2,2.6-2.8,4.9-4.3,7.3c-3.2-1.5-2.3-4.5-2.4-6.9c-0.1-14.5,0-28.9-0.1-43.4c0-1.8,0-3.7-0.3-5.5
		c-0.4-2.4-1.8-3.4-4.2-3.4c-2.3,0-3.7,1.1-4.1,3.5c-0.3,2-0.3,4-0.3,6c0,20.5,0,40.9,0,61.4c0,3.5-0.3,7-1.6,10.3
		c-3.3,6.6-7,13-11,19.1c-28.2,0-56.3-0.1-84.5-0.1c-7.7,0-10-1.8-10.6-9.3c-1.7-19.5-3.2-39.1-4.9-58.6
		c-1.2-14.1-2.5-28.1-3.7-42.2c-0.3-3.3-0.9-6.6,0.6-9.8c1.9-1.9,4.3-1.6,6.6-1.6c56.6,0,113.3,0,169.9,0c2.3,0,4.7-0.2,6.6,1.6
		c0.8,2.4,0.4,4.8,0.3,7.3C409,343.5,407.9,362.3,406.9,381.1z"/>
	<path class="st2" d="M213,305.4c-2.9-2.9-2.7-6.5-1.4-9.7c1.2-3,4.5-2.2,7.1-2.2c4.3,0,8.6,0,13.4,0c-0.4-1.6-0.9-2.8-1.1-4.2
		c-0.7-6.2,0.7-7.8,7-7.8c52.3,0,104.6,0.1,157-0.1c9.4,0,11.7,1.8,8.9,12.1c5.1,0,10,0,15,0c2.8,0,6.1-0.7,7.4,2.7
		c1.3,3.2,1.3,6.5-1.5,9.2c-1.8,1.9-4.3,1.7-6.6,1.7c-66.2,0-132.5,0-198.7,0C217.2,307,214.8,307.3,213,305.4z"/>
	<path class="st3" d="M213,305.4c70.6,0,141.2,0,211.8-0.1c1.8,1.9,2.3,4.2,2.2,6.8c-0.1,3.5-1.6,5.3-5.1,5.2c-4,0-8,0-11.9,0
		c-61,0-122,0-183.1,0c-3,0-6-0.4-8.9,0.1c-7.1,1.1-8.4-4.3-6.1-10.4C212.1,306.4,212.6,305.9,213,305.4z"/>
	<path class="st4" d="M441.9,473c3.5,0.7,6.3,1.4,9.2,1.9c3.4,0.6,4.3,1.9,3.1,5.5c-5.1,14.5-20,19.3-35.4,10.4
		c6.2-4,12.9-6.2,19.1-9.6c-12.7,4.5-25.5,9-40,7.9c8.1-12.3,17.7-22.8,27.3-33.4c-13.2,7.4-22.2,18.9-30.6,31.4
		c-2.4-9.6,1.3-22.9,8.7-31.8c11-13.3,26.1-18.3,42.4-20.7c3-0.5,2.9,2,3.3,3.9C451,450.9,449.9,462.5,441.9,473z"/>
	<path class="st4" d="M375.6,444.6c6.3-3,11.1-5.2,15.8-7.5c3-1.5,3.1,1.1,3.3,2.6c0.4,4.9,0.2,9.9,1.9,16c-5.9-4-7.4-0.3-9.4,3.2
		c-7.1,12.6-14.5,25.1-21.7,37.6c-2.6,4.5-2.4,4.9,2.8,5c5.2,0.1,10.3,0.1,15.5,0c2.4,0,3.1,0.8,3.2,3.2c0.4,7.5,0.4,7.6-7,8.3
		c-6,0.6-12-0.1-17.9-0.7c-7.8-0.9-12.1-10.4-8.1-17.8c5.2-9.6,10.9-19.1,16.4-28.6c2.7-4.8,5.4-9.5,8.2-14.3
		C380.1,448.9,382.9,446,375.6,444.6z"/>
	<path class="st5" d="M408.1,518.8c-5.3-3.8-9.5-6.8-13.7-9.7c-1.7-1.2-1.7-2.2,0-3.4c4.2-2.9,8.4-5.9,13.3-9.4
		c-0.6,5.6,3,6.1,6.4,5.8c9.5-0.9,18.9,0.3,28.4-0.3c5.3-0.4,10.6,0.3,15.9,0.4c1.8,0,4.8-0.6,2.8-2.8c-6.1-6.8-1.7-12.5,1.7-19.1
		c3.8,6.4,9.1,11.9,9.9,19.5c0.8,8-5,13.4-13.8,13.5c-15.5,0.1-31,0.2-46.5,0C409.1,513.1,407.2,513.8,408.1,518.8z"/>
	<path class="st6" d="M341,418.3c0-25.4,0-50.9,0-76.3c0-5.7,1-6.5,6.1-6.7c5.2-0.2,6,2.8,5.9,7c-0.1,16.3-0.1,32.6,0,48.9
		c0,1.8-0.6,3.7,0.8,5.3C349.5,403.7,345.3,411,341,418.3z"/>
	<path class="st4" d="M412.9,405.2c4.3-0.2,7.7,1.4,9.9,4.9c3.4,5.5,6.5,11.2,9.9,16.8c1.2,2,0.3,2.5-1.5,3c-1.4,0.3-3,0.6-4.3,1.3
		c-3.2,1.8-4.7,0.4-6.1-2.4c-1.7-3.4-3.8-6.6-5.6-10c-1.7-3-3.1-3.1-4.8,0c-2.3,4.1-4.8,8-7,12.1c-1.2,2.2-2.2,2.8-4.6,1.6
		c-7-3.5-7-3.4-3.1-10.3c2.1-3.6,4.1-7.2,6.3-10.7C404.4,407.2,407.9,404.8,412.9,405.2z"/>
	<path class="st6" d="M370.9,381.1c0-13.1,0.1-26.3,0-39.4c0-4.4,1.4-6.4,6.1-6.4c4.6,0,6.1,2.1,6,6.4c-0.1,13.1,0,26.3,0,39.4
		C379,381.1,374.9,381.1,370.9,381.1z"/>
	<path class="st6" d="M255,380.4c0-13,0.1-26-0.1-38.9c-0.1-4.5,1.8-6.2,6.3-6.2c4.4,0,5.8,2,5.8,6.1c-0.1,25.9-0.1,51.9,0,77.8
		c0,4.5-1.8,6.2-6.3,6.2c-4.4,0-5.8-2-5.8-6.1C255,406.3,255,393.4,255,380.4z"/>
	<path class="st6" d="M285,380.2c0-12.8,0.1-25.6,0-38.4c0-4.3,1.3-6.5,6-6.4c4.6,0,6.1,2,6.1,6.4c-0.1,25.8-0.1,51.6,0,77.3
		c0,4.3-1.4,6.5-6,6.5c-4.6,0-6.1-2-6.1-6.4C285,406.1,285,393.1,285,380.2z"/>
	<path class="st6" d="M313,380.4c0-13,0.1-26-0.1-38.9c-0.1-4.5,1.8-6.2,6.2-6.2c4.3,0,5.9,1.9,5.8,6.1c-0.1,25.9-0.1,51.9,0,77.8
		c0,4.5-1.8,6.2-6.3,6.2c-4.3,0-5.9-1.9-5.8-6.1C313,406.4,313,393.4,313,380.4z"/>
</g>
</svg>
