<?xml version="1.0" encoding="utf-8"?>
<!-- Generator: Adobe Illustrator 19.0.0, SVG Export Plug-In . SVG Version: 6.00 Build 0)  -->
<svg version="1.1" id="Calque_1" xmlns="http://www.w3.org/2000/svg" xmlns:xlink="http://www.w3.org/1999/xlink" x="0px" y="0px"
	 viewBox="0 0 612 792" style="enable-background:new 0 0 612 792;" xml:space="preserve">
<style type="text/css">
	.st0{fill:#434A54;}
	.st1{fill:#FDD7A8;}
	.st2{fill:#E5C498;}
	.st3{fill:#FD927F;}
</style>
<g>
	<path class="st0" d="M87,130c16.2,15.5,32.5,31,48.7,46.4c5.2,4.9,10.4,9.8,15.4,15c2.5,2.6,5.2,3.5,8.8,3.5
		c97.8-0.1,195.6-0.1,293.4-0.1c4.3,0,8.7,0,13,0c6.9,0.1,9.6,2.7,9.6,9.7c0,30,0,60,0,90c0,112,0,223.9,0.1,335.9
		c0,4.9-1.1,8.7-5.1,11.5c-107.7,0-215.3,0-323,0c-5.1-2.4-8.9-6.5-12.8-10.3c-17.9-17.4-35.9-34.7-54.1-51.8
		c-4.9-4.6-6.8-9.7-6.8-16.4c0.1-140.1,0.1-280.1,0.1-420.2c0-1.5,0-3,0.1-4.5c0.2-4.4,1.8-7.7,6.5-8.9C83,130,85,130,87,130z"/>
	<path class="st1" d="M460,418.5c0,67.3,0,134.6,0.1,201.9c0,4.6-1.1,5.7-5.7,5.7c-96.3-0.1-192.6-0.2-288.9,0
		c-4.6,0-5.7-1.1-5.7-5.7c0.1-134.6,0.1-269.2,0-403.9c0-4.5,1.1-5.8,5.7-5.8c96,0.1,191.9,0.1,287.9,0.1c7.6,0,6.6-1.1,6.6,6.6
		C460,284.5,460,351.5,460,418.5z"/>
	<path class="st2" d="M92,156.8c12.2,11.7,23.4,22.5,34.7,33.3c2,2,3.8,4.3,6.1,5.9c8.9,5.9,10.6,14,10.6,24.3
		c-0.3,129.5-0.2,259-0.3,388.5c0,1.6,0.5,3.3-0.7,5.2c-3.3-3-6.4-5.8-9.5-8.8c-12.6-12.1-25.2-24.3-37.9-36.3
		c-2-1.9-3.2-3.8-3.2-6.8C92,428.3,92,294.7,92,161C92,160,92,159,92,156.8z"/>
	<path class="st3" d="M274.5,488.9c-25.6,0-51.3,0-76.9,0c-6.6,0-6.6,0-6.6-6.8c0-6.8,0.1-13.7-0.1-20.5c-0.1-3.3,0.7-4.7,4.4-4.7
		c52.8,0.1,105.6,0.1,158.4,0c3.6,0,4.5,1.3,4.4,4.7c-0.2,7.5-0.3,15,0,22.5c0.2,4.2-1.4,5-5.2,4.9
		C326.8,488.9,300.7,488.9,274.5,488.9z"/>
	<path class="st3" d="M274,568c-25.8,0-51.6-0.1-77.4,0.1c-4.8,0-5.9-1.5-5.7-5.9c0.3-7.3,0.2-14.7,0-22c-0.1-3.3,0.9-4.7,4.3-4
		c5.3,1.1,10.5,0.8,15.8,0.1c3.4-0.4,7,0.9,10.4,0.5c10.4-1.4,20.8-0.2,31.2-0.3c9.5-0.1,19.2,0,28.7,0c10.4,0,20.8,0,31.2,0
		c9.5,0,19.1-1.1,28.7,0.3c3.4,0.5,6.9,0.1,10.4-0.6c4.8-0.9,6.4,0.7,6.4,5.4c0,7.2-0.2,14.3,0.1,21.5c0.2,4.1-1.2,5-5.1,5
		C326.7,567.9,300.4,568,274,568z"/>
	<path class="st3" d="M274,409.1c-26,0-52-0.1-78,0.1c-3.9,0-5.3-0.9-5.1-5c0.3-7.2,0.3-14.3,0-21.5c-0.2-3.8,1.2-4.7,4.9-4.7
		c40,0.1,80,0.1,120,0.1c12.7,0,25.3,0.1,38-0.1c3.2,0,4.4,0.8,4.3,4.2c-0.2,7.3-0.3,14.7,0,22c0.2,4.1-1.3,5-5.1,5
		C326.7,409,300.3,409.1,274,409.1z"/>
	<path class="st0" d="M228.9,266.9c-4.3,2.8-6.4,7.5-11.4,7.7c-5.2,0.2-7.3-4.6-11.8-7.6c0,8.5,0,16.4,0,24.2c0,2,0,4-0.6,5.9
		c-1.2,4-4.1,6.1-8.3,5.7c-4-0.4-7-2.8-7-7.1c-0.1-16.5-0.1-33,0-49.5c0-3.4,2-5.6,5.1-6.8c3.8-1.5,6.9,0.1,9.5,2.7
		c3.6,3.5,7.1,7.1,10.4,10.7c1.7,1.9,2.9,2,4.8,0c3.5-3.8,7.3-7.3,10.9-11c2.7-2.7,5.8-3.9,9.5-2.3c3.6,1.6,5.1,4.7,5.1,8.5
		c0,15.3,0,30.6-0.1,46c0,5.4-3.5,8.9-8.1,8.9c-4.7-0.1-7.8-3.5-7.8-9C228.8,285.2,228.9,276.4,228.9,266.9z"/>
	<path class="st0" d="M257,271c0-7.7-0.1-15.3,0-23c0.1-6,3-8.9,8.9-9c9.5-0.1,19-0.1,28.5,0c5.4,0.1,8.8,3.3,8.7,8.1
		c-0.1,4.7-3.5,7.8-9,7.9c-6,0.1-12,0.2-18-0.1c-3.5-0.1-3,2-3.1,4.1c-0.1,2.4,0,4.1,3.3,4c6-0.3,12-0.1,18-0.1
		c5.5,0.1,8.9,3.2,8.8,8c0,4.8-3.3,7.9-8.9,8c-6,0.1-12,0.2-18-0.1c-3.3-0.1-3.3,1.6-3.3,4c0.1,2.2-0.4,4.3,3.1,4.1
		c6-0.2,12-0.1,18,0c5.6,0.1,8.9,3,9,7.8c0.1,5-3.3,8.1-9.2,8.2c-9.3,0.1-18.6,0.1-28,0c-5.8-0.1-8.9-3.1-8.9-9
		C256.9,286.3,257,278.7,257,271C257,271,257,271,257,271z"/>
	<path class="st0" d="M350.1,265.3c0-5.6-0.1-11.2,0-16.8c0.1-5.9,3.2-9.5,8-9.5c4.9,0,8,3.5,8,9.4c0,15-0.1,30,0.1,45
		c0,4.5-1.4,8-5.9,9.3c-4.6,1.3-7.6-1.2-9.9-4.9c-4.4-7.2-9-14.3-14.4-21.3c0,5.5,0,11.1,0,16.6c0,6.2-3.1,9.9-8.1,9.9
		c-5,0-7.9-3.7-7.9-10c0-14.7,0.1-29.3-0.1-44c0-4.7,1.3-8.4,6-9.7c4.8-1.3,7.8,1.5,10.1,5.3c4.3,7,8.7,13.9,13.1,20.9
		C349.5,265.5,349.8,265.4,350.1,265.3z"/>
	<path class="st0" d="M430,263.5c0,4.8,0,9.7,0,14.5c-0.1,13.3-11.2,24.9-23.7,25c-12.3,0.1-23.7-11-24.1-24.1
		c-0.3-10.3-0.2-20.7-0.1-31c0.1-5.4,3.5-8.9,8.1-8.9c4.7,0,7.8,3.5,7.9,9c0.1,10.2,0,20.3,0.1,30.5c0.1,5.7,2.1,8,7,8.4
		c5.9,0.5,8.7-2,8.8-8.1c0.1-10.3,0-20.7,0.1-31c0-5.4,3.3-8.9,8.1-8.9c4.4,0,7.7,3.2,7.9,8C430.1,252.5,430,258,430,263.5
		C430,263.5,430,263.5,430,263.5z"/>
	<path class="st3" d="M411.8,457c4.2,0,8.3,0.1,12.5,0c2.4-0.1,3.8,0.5,3.7,3.3c-0.1,8.5-0.1,17,0,25.5c0,2.4-1,3.2-3.3,3.2
		c-8.5-0.1-17-0.1-25.5,0c-2.4,0-3.2-1-3.2-3.3c0.1-8.5,0.1-17,0-25.5c0-2.4,1-3.2,3.3-3.2C403.5,457.1,407.7,457,411.8,457z"/>
	<path class="st3" d="M412,568c-4.2,0-8.3-0.1-12.5,0c-2.6,0.1-3.5-1-3.5-3.5c0.1-8,0.1-16,0-24c-0.1-3,1.3-3.6,3.9-3.6
		c8.1,0.1,16.2-0.7,24.3,0c2.7,0.2,3.9,0.9,3.8,3.8c-0.1,8-0.1,16,0,24c0,2.7-1.1,3.5-3.6,3.4C420.3,567.9,416.1,568,412,568z"/>
	<path class="st3" d="M412.5,378c4,0,8,0.1,12,0c2.5-0.1,3.6,0.7,3.6,3.4c-0.1,8.1-0.1,16.3,0,24.5c0,2.3-0.9,3.3-3.2,3.3
		c-8.5-0.1-17-0.1-25.5,0c-2.8,0-3.3-1.3-3.3-3.7c0.1-8,0.1-16,0-24c0-2.6,0.9-3.6,3.5-3.5C403.8,378.1,408.2,378,412.5,378z"/>
</g>
</svg>
