<?xml version="1.0" encoding="utf-8"?>
<!-- Generator: Adobe Illustrator 19.0.0, SVG Export Plug-In . SVG Version: 6.00 Build 0)  -->
<svg version="1.1" id="Calque_1" xmlns="http://www.w3.org/2000/svg" xmlns:xlink="http://www.w3.org/1999/xlink" x="0px" y="0px"
	 viewBox="0 0 612 792" style="enable-background:new 0 0 612 792;" xml:space="preserve">
<style type="text/css">
	.st0{fill:#24E8CA;}
	.st1{fill:#24DBDB;}
	.st2{fill:#24CEEB;}
	.st3{fill:#24DDD8;}
	.st4{fill:#FDFDFD;}
	.st5{fill:#FBFCFC;}
	.st6{fill:#24E5CE;}
	.st7{fill:#24E2D2;}
	.st8{fill:#FCFCFC;}
	.st9{fill:#24E1D2;}
</style>
<g>
	<path class="st0" d="M45,572c0-113.3,0-226.7,0-340c1.2-2.7,0.7-5.6,0.8-8.3c0.9-17.7,9.3-32.1,20.2-45.1
		c9.9-11.8,22.1-20.9,36.5-27.1c8-3.4,16.3-4.4,24.7-5c1.3-0.1,2.7,0.4,3.8-0.5c113.3,0,226.7,0,340,0c3.2,1,6.5,0.1,9.7,1.1
		c3,1.2,2.7,3.4,1.8,5.8c-0.8,2.1-2.3,3.6-3.9,5.2c-36.3,36.4-72.7,72.7-109.1,109.1c-1.8,1.8-3.7,3.3-6.1,4.2c-2.4,0.3-4.2-1-6-2
		c-20.5-11-42.5-15.7-65.6-13.9c-25.3,2-47.9,11.2-67.2,27.8c-21.6,18.6-34.8,42.1-39.7,70.2c-3.5,20.1-1.2,39.8,4.7,59.2
		c3.7,12.3,8.1,24.3,14.2,35.7c1,1.9,2,3.9,1.5,6.2c-1.2,2.5-3.3,4.2-5.1,6C158,502.7,115.8,544.8,73.7,587
		c-4.5,4.5-9.6,8.2-14,12.8c-1.8,1.8-4,3-6.8,2.1c-4.4-2.8-4.9-7.7-5.9-12.1C45.7,583.9,46,577.9,45,572z"/>
	<path class="st1" d="M53.5,601.2c6.7-3.5,11.8-9.2,17-14.4c42.7-42.3,85.1-84.9,127.6-127.4c1.7-1.7,3.2-4,5.9-4.4
		c2.9-0.5,3.7,1.8,4.7,3.6c8.8,15.3,18.5,30,29.1,44.1c9.1,12.1,19,23.5,29.1,34.8c8.7,9.9,18.2,19,27.5,28.2c5.3,5.3,7.6,5.2,13,0
		c26.7-25.7,51-53.4,71.4-84.4c1.4-2.1,4.9-4.9,1.5-7.2c-3.7-2.6-5,1.9-6.5,4.1c-13.4,19.7-28.1,38.3-44.2,55.9
		c-7,7.6-14.3,14.9-21.6,22.2c-5.6,5.6-8.9,5.6-14.4,0.1c-4.9-4.8-9.7-9.6-14.5-14.5c-1.6-1.7-3.4-3.3-3.3-5.9
		c0.5-2.4,2.2-4,3.9-5.7c42-42,84-83.9,125.9-126c1.8-1.8,4-3,5.7-4.8c3.1-0.8,5.2-2.4,5.5-5.9c0.1-1.1,0.9-2.1,1.8-2.8
		c2.8-0.8,3.9-3.5,5.7-5.3c21.7-21.6,43.1-43.6,65.2-64.9c18.7-18.1,36.7-36.8,51.8-51.4c-12.5,12.5-28.6,28.6-44.6,44.6
		c-2,2-3.9,3.8-6.9,2.1c-2.7-1.5-3.6-4.5-2.1-7.3c0.8-1.5,2.1-2.6,3.3-3.8c19.1-19.1,38.2-38.2,57.3-57.2c2.2-2.2,4.3-5.7,8.3-2.8
		c0,58.7,0,117.3,0,176c-2.3,3.5-5.5,6.2-8.5,9.1c-73.4,73.4-146.9,146.8-220.3,220.2c-3.1,3.1-6.1,6-10.3,7.6
		c-62.3,0-124.7,0-187,0c-2.7-1.2-5.6-0.7-8.3-0.8c-17.8-0.8-32.1-9.4-45.1-20.2c-9.4-7.8-17.2-17.2-23-28
		C53.3,606.6,51.4,604.1,53.5,601.2z"/>
	<path class="st2" d="M318,658c1.2-2.9,4-4.4,6.1-6.5c75-75.1,150.2-150.2,225.2-225.3c2.2-2.2,4.3-4.7,7.7-5.2
		c0,50.3,0,100.7,0,151c-1.2,2.7-0.7,5.6-0.8,8.3c-1,18.8-10.2,33.8-22.2,47.3c-9.7,10.9-21.3,19.3-34.9,25.1
		c-7.8,3.4-16,4.2-24.2,4.8c-1.3,0.1-2.7-0.4-3.8,0.5C420,658,369,658,318,658z"/>
	<path class="st3" d="M557,245c-2.5-0.1-3.9,1.4-5.5,3c-20.1,20.1-40.3,40.3-60.4,60.4c-1.5,1.5-3.5,2.7-1.1,5.3
		c2.6,2.7,3.9,0.9,5.6-0.8c16.1-16.1,32.2-32.3,48.4-48.4c1.7-1.7,3.2-3.8,6.5-3.9c-0.8,3-2.5,4.9-4.3,6.8
		c-40.5,40.5-81,81-121.5,121.5c-1.4,1.4-2.7,3-4.9,3.1c-2.8-2.1-2.1-5.2-1.7-7.8c2.5-19.5-1-38.1-8.2-56.2
		c-8.5-21.4-22.6-38.6-41.4-51.9c-2.1-1.5-5-2.4-4.4-5.9c1.4-1.6,2.8-3.3,4.3-4.8c36.1-36.1,72.2-72.2,108.3-108.4
		c2.3-2.3,5.7-4.4,4.4-8.6c4.1-1.9,8.1-0.5,11.9,0.8c22.6,7.7,39.8,22.3,52.4,42.4c7.4,11.8,11.4,24.6,11.2,38.7
		c0,0.7,0,1.3,0.5,1.9C557,236.3,557,240.7,557,245z"/>
	<path class="st4" d="M364,270.1c14.9,10,28,21.9,37.8,37.2c15.3,24.1,21.6,50.2,18.4,78.6c-0.2,2-0.3,4-0.4,6
		c-0.3,1.3-0.6,2.5-0.8,3.8c-0.6,4.1-2.8,6-7,5.7c-4.4,0.9-5.6-1.8-5.9-5.3c-0.3-3.3,0.7-6.6,1.1-9.9c3.5-32-4.7-60.4-26.3-84.6
		c-1.5-1.6-2.5-3.5-3.9-5.1c-9.5-7.8-19.1-15.5-30.5-20.6c-11.6-5.2-23.7-8.6-36.5-9.7c-28.4-2.4-53.7,5.6-75.9,23.1
		c-21.9,17.2-34.7,40-38.9,67.5c-4,25.9,2.3,50.2,12.2,73.9c3.4,8.3,7.6,16.2,11.6,24.3c9.4,16,19.6,31.5,31,46.1
		c7.6,9.6,15.2,19.2,23.7,28.1c1.9,2,3.6,3.9,3.4,6.9c6.6,7.8,14.1,14.6,21.3,21.7c2.5,2.5,4,1,5.7-0.7c14.9-14.1,28.9-29,41.9-44.9
		c9.9-12.1,19.3-24.6,27.8-37.8c2.8-4.3,6-5.2,8.9-2.4c3,2.8,1.7,5.6-0.2,8.5c-13.3,20.4-28.4,39.4-44.7,57.5
		c-9.6,10.6-19.6,20.9-30.1,30.6c-6.1,5.6-7.5,5.7-13.7-0.2c-34.8-33.1-65.6-69.4-88.8-111.7c-0.3-0.6-0.8-1.1-1.1-1.6
		c-6.2-13.3-12.4-26.5-16.6-40.6c-11.7-39.4-8.6-76.8,15.5-111c35.5-50.5,103.9-65.5,157.3-35C361.6,269,362.8,269.5,364,270.1z"/>
	<path class="st3" d="M377.9,295.2c17.1,16.4,27.1,36.6,31,59.8c2.1,12.9,1.9,25.8-0.6,38.6c-0.7,3.6,0.2,6.2,3.6,7.7
		c-12.7,12.7-25.3,25.5-38,38.2c-30.7,30.7-61.4,61.4-92,92c-1.5,1.5-3.2,2.9-4.8,4.4c-22.8-24.3-43.4-50.2-59.3-79.6
		c-0.4-1.3-0.5-2.8,0.4-3.8c6.4-6.7,12.3-14,20-19.3c2.7-0.2,4.2,1.7,5.9,3.3c32.9,30.7,84.3,29.7,115.9-2.3
		c16.8-17,25.1-37.6,24.5-61.3c-0.5-20.3-8.2-38.2-21.8-53.4c-1.5-1.7-3.5-3.2-3.7-5.8c0.1-2,1.1-3.5,2.4-4.8
		c3.9-3.9,7.7-7.9,11.6-11.7C374.5,296,375.9,294.8,377.9,295.2z"/>
	<path class="st5" d="M390.8,445.4c0.2-0.7,0.6-1.8,1-2.9c2.7-6.4,5.5-12.8,8.2-19.2c1.3-3.1,3.5-5.1,7-3.8c3.3,1.3,4.4,3.9,3.1,7.3
		c-2.6,7.2-5.7,14.1-9.1,20.9c-1.3,2.5-3.3,3.8-6.1,3C392.5,450.2,391,448.5,390.8,445.4z"/>
	<path class="st6" d="M238,434.1c-1.3,4.1-5,6-7.6,9c-4,4.6-9,8.3-12.6,13.3c-5.7-8.4-9.6-17.8-13.5-27.1
		c-7.8-18.9-12.9-38.4-12.6-59.1c0.8-47,31.9-88.9,77.1-102c40.1-11.6,75.9-3,107.1,24.8c0.7,0.7,1.3,1.5,2,2.2
		c-5.7,6.2-11.5,12.2-17.9,17.8c-2.3,1.3-3.8-0.3-5.3-1.5c-12.7-10.3-27.1-16.9-43.4-18.6c-25.1-2.8-47.6,3.8-66.3,21
		c-18.7,17.1-28,38.7-27.6,64c0.3,18.9,7.3,35.7,18.8,50.6C237.5,430.1,239.4,431.6,238,434.1z"/>
	<path class="st4" d="M238,434.1c-12.3-14.2-20-30.3-22.4-49.1c-5.6-43.9,27.1-87.3,71-94c28-4.2,52.3,3.5,73.4,22
		c13.1,13.2,21.9,28.7,25.5,47.1c9.7,50-29.2,99.1-80.1,101C278.9,462.1,256.6,452.7,238,434.1z"/>
	<path class="st7" d="M301.1,300.4c41.6,0.1,75.2,33.7,75.1,74.9c-0.1,41.8-33.5,75.2-75.3,75.3c-41.4,0.1-75.1-33.8-75-75.6
		C226,333.7,259.5,300.3,301.1,300.4z"/>
	<path class="st8" d="M300.9,402c-17.3,0-34.7,0-52,0c-3.7,0-6.9-0.5-7.2-5c-0.3-4.4,2.6-5.9,6.4-5.7c3.4,0.2,3.1-2,3.4-4.2
		c1.8-17.8,10.1-31.4,25.6-40.5c4.7-2.7,9.7-4.5,15-5.3c3.1-0.5,3.9-1.7,3.8-4.5c-0.1-4.1-0.8-9.3,5.4-9.2c5.7,0.1,5.2,5.1,5,9.1
		c-0.1,2.6,0.4,4,3.5,4.7c23.2,5.6,36.8,21.2,39.8,45.4c0.4,3.2,1.1,4.8,4.6,4.5c3.6-0.3,6.3,1.5,6.2,5.5c-0.1,4.1-2.8,5.2-6.5,5.2
		C336.2,402,318.5,402,300.9,402C300.9,402,300.9,402,300.9,402z"/>
	<path class="st9" d="M300.5,391.2c-11.3,0-22.6-0.1-34,0.1c-3.8,0.1-4.9-1-4.5-4.8c2.5-20.5,18.6-35.6,38.4-35.6
		c19.5-0.1,35.7,14.9,38.4,35.1c0.6,4.3-0.7,5.4-4.9,5.3C322.8,391,311.7,391.2,300.5,391.2z"/>
</g>
</svg>
