<?xml version="1.0" encoding="utf-8"?>
<!-- Generator: Adobe Illustrator 19.0.0, SVG Export Plug-In . SVG Version: 6.00 Build 0)  -->
<svg version="1.1" id="Calque_1" xmlns="http://www.w3.org/2000/svg" xmlns:xlink="http://www.w3.org/1999/xlink" x="0px" y="0px"
	 viewBox="0 0 612 792" style="enable-background:new 0 0 612 792;" xml:space="preserve">
<style type="text/css">
	.st0{fill:#BFE4F4;}
	.st1{fill:#FDFDFD;}
	.st2{fill:#29AAE0;}
	.st3{fill:#BEE4F4;}
	.st4{fill:#FCFCFC;}
</style>
<g>
	<path class="st0" d="M215.7,318.4c-1.1-23.7,2.6-46.4,14.1-67.4c18.7-34,47.2-55.3,85.4-61.4c35.1-5.6,66.7,4,93.8,27.4
		c17.3,15,28.9,33.5,35.8,55.2c4.3,13.4,6.2,27.3,5.5,41.1c-0.8,16.1-4.9,31.7-10.7,46.8c-13.3,34.5-33.4,64.8-56.1,93.7
		c-14.2,18.1-29.1,35.4-45.5,51.5c-4.3,4.2-5.4,4-10,0.1c-7-5.9-12.2-13.6-19.5-19.1c-0.9-2.6,0.8-4.4,1.9-6.4
		c7.6-13.8,14.1-27.9,17.8-43.3c4-16.7,4.3-33.3-0.3-49.9c-0.6-2-1.7-4.1-0.8-6.3c1.5-1.7,3.6-1.4,5.6-1.5
		c38.9-1,69.4-28.5,73.2-67.1c3-30.3-14.4-59.5-40.3-71.7c-26.4-12.3-51.9-10.8-75.6,6.3c-19.2,13.8-29.7,32.9-30.1,57
		c-0.1,4.6-0.4,9.3,0.8,13.9c0.3,1,0.3,2-0.9,2.5c-7.1,0.1-14-2.3-21.2-2.2c-5.8,0.1-11.6,0.4-17.3,1.3
		C219.5,319.3,217.5,320,215.7,318.4z"/>
	<path class="st1" d="M273.6,323.4c-4.3-1.4-8.6-2.8-12.9-4.2c-4-7.6-2.7-15.9-1.6-23.5c3.9-26.3,18-45.9,42-57.4
		c20.7-9.9,42-9.9,63-0.3c22.8,10.4,36.7,28.3,41.9,52.4c5.1,23.8-0.6,45.4-16.8,63.9c-16.3,18.6-36.9,26.9-61.4,25.9
		c-6.4-16.9-16.9-31-30.3-42.9c2.1-2,4.7-1.4,7.1-1.4c27.1,0,54.3,0,81.4,0c1.7,0,3.3,0.1,5-0.1c1.5-0.2,3-0.6,3.6-2.2
		c0.7-1.8,0.1-3.4-1.4-4.4c-2.7-1.9-3.5-4.6-4.2-7.6c-4.7-22.6-18.4-37.2-40.2-44.1c-3.6-1.1-6.1-2.4-7.3-6.4
		c-1.4-4.7-4.5-6.4-9.1-6.3c-4.4,0.1-7.2,2.5-8.3,6.6c-0.8,3.1-2.6,4.8-5.7,5.6c-22.2,6.2-35.8,20.7-41.4,43
		C276.7,321.9,276.7,324.4,273.6,323.4z"/>
	<path class="st2" d="M327.7,380.3c0.6-3.2-1.3-5.7-2.4-8.4c-6-14.1-16-25.2-27.3-35.2c-7.6-5.6-15.4-11-24.4-14.4
		c-4.3-1.2-8.1-4.2-12.9-3.1c-14.9-3.7-29.9-3.7-45-0.8c-13.6,3.8-26.4,9.2-37.4,18.1c-26.2,21.3-39,48.7-36.9,82.6
		c1.5,23.5,11,44.4,22.5,64.4c18,31.4,41.1,58.9,66.6,84.5c5.9,5.9,7.2,5.9,13,0.1c24.8-24.8,47.1-51.7,65.2-81.8
		c3-5.7,6.1-11.4,9-17.2C331.9,440.8,338.1,411.5,327.7,380.3z M300.6,478.3c-12.7,22.4-28.5,42.6-45.5,61.8
		c-5.2,5.9-10.7,11.4-16,17.2c-1.3,1.4-2.2,2.2-3.9,0.4c-32.3-34-62.3-69.6-78.1-114.7c-15.4-44.1,3.2-88.8,44.5-108.3
		c5.1-2.4,10.4-4.5,16-5.4c2.6,2.8,2.9,6.2,2.6,9.8c-1.3,2.3-3.7,2.7-5.9,3.4c-28.5,10.1-45.8,30.3-49.8,60
		c-5.9,42.8,24.8,77.8,64,82.4c21.9,2.6,41-3.8,57.5-18.4c1-0.9,2-1.8,3.4-2.1C294.7,465.7,301.2,473.6,300.6,478.3z"/>
	<path class="st0" d="M273.6,323.4c1.7-0.2,1.8-1.4,2.2-2.8c5.3-23.6,19.7-38.6,42.9-45.1c2-0.6,3.6-0.7,4.1-3.4
		c1.1-6.1,4.2-8.7,9.5-8.8c6.1-0.1,10,2.4,11.2,8.4c0.5,2.6,1.4,3.3,3.9,3.8c22.2,5,40.1,24.8,43.3,47.5c0.3,1.8,0.5,3.7,2.6,4.4
		c3.5,1.1,3.9,4,3.1,6.9c-0.8,3-3.4,3.2-6,3.2c-31,0-62,0-93,0C289.7,332.3,282.1,327.1,273.6,323.4z"/>
	<path class="st3" d="M300.6,478.3c-1.8-5.9-6.2-9.6-11-13c-0.6-2,0.9-3.1,1.9-4.3c21-24.3,24.6-54.9,9.9-83.6
		c-0.6-1.2-1.3-2.3-1.2-3.7c1.5-2.1,3.2-0.6,4.8-0.1c2.8,0.8,5.4,2.3,8.5,1.7c9.5,19.1,11,39.1,5.6,59.6
		C315.3,450.3,308.7,464.7,300.6,478.3z"/>
	<path class="st4" d="M313.7,375.3c-0.3,2.2-1.6,2.1-3.2,1.5c-3.2-1.2-6.4-2.4-9.7-3.5c-1.7-0.1-2.5-1.5-3.4-2.7
		c-6.9-9.3-15.1-17.3-25.4-22.8c-1.6-0.9-3.1-1.9-4.2-3.5c-1.9-2.8-3.3-5.9-4.4-9.2c-0.6-1.8-0.7-3.8,2.3-2.9
		C287.4,340.2,303.5,354.5,313.7,375.3z"/>
	<path class="st3" d="M265.7,332.3c-2.5,0.3-1.7,1.7-1.1,3.1c1.4,3,2.7,5.9,4,8.9c-1.8,1.3-3.5,0.2-5.2-0.4c-12.4-4.4-25-6.3-38.1-4
		c-1.9,0.3-3.9,1-5.7-0.6c-0.7-3.3-1.4-6.6-2.1-9.9C233.9,325.6,250,326.2,265.7,332.3z"/>
	<path class="st2" d="M219.7,339.4c13.7-2.6,27.3-2.5,40.6,2c2.8,0.9,5.6,2,8.4,3c13.1,7,24.1,16.3,32.2,28.9
		c6.3,11.1,10.4,22.9,10.8,35.8c0.7,21.9-6.9,40.6-22,56.3c-13,12.3-28.1,19.6-46.1,21.3c-28.4,2.8-57.9-12.5-71.7-37.8
		c-23.2-42.5-2.3-93.7,44.1-108.2C217.2,340.3,218.4,339.8,219.7,339.4z"/>
	<path class="st1" d="M283.8,455.4c-14,15.9-32,22.7-52.7,20.6c-29.6-3-50.9-22.5-56.9-51.4c-7.3-35.1,17.1-68.2,48.4-74.2
		c1.3,0.6,2.1,1.6,2.4,2.9c1.6,6.2,5.3,11.6,6.4,18c-1.2,3.3-3.5,6-4.2,9.5c-0.4,2-2.4,2.5-4.2,3.1c-17,5.8-27.4,17.6-31.5,34.9
		c-0.5,2.3-1.2,4.3-3.4,5.8c-4.2,3-3.9,5.1,0.8,7.9c2.1,0.7,4.3,0.4,6.5,0.4c21.2,0,42.3,0.2,63.5-0.1c6.3-0.1,10.9,1.4,14.2,6.9
		C276.5,445.1,281.7,449.2,283.8,455.4z"/>
	<path class="st0" d="M283.8,455.4c-5.5-5.3-9.5-11.8-14.1-17.8c-2-2.6-4.1-3.3-7.1-3.3c-23.3,0.1-46.5,0.1-69.8,0
		c-1.8,0-3.7,0.6-5.2-0.8c2.1-2.3,5-1.6,7.5-1.6c28-0.1,56,0,83.9,0c2,0,4,0.2,6-0.3c3.3-0.9,4.3-3.7,1.7-5.9
		c-3.1-2.6-4-5.9-5.1-9.4c-4.4-15.2-13.9-25.9-28.8-31.5c-2.9-1.1-5.3-2.3-6.7-5.5c-3.1-7.4-5.1-8.4-13-7.6
		c-0.8,0.1-1.7,0.1-2.4-0.3c-2.7-7-5.3-14.1-8-21.1c20.4-5.2,38.8-0.4,54.7,12.6c27.4,22.5,31.4,60.5,10.2,88.6
		C286.5,452.9,285.5,454.5,283.8,455.4z"/>
	<path class="st2" d="M230.7,371.4c9-3.6,14.5-1,16.9,8.1c0.5,1.7,1.2,2.5,2.8,3c18.6,5.9,29.7,18.7,33.7,37.7
		c0.3,1.2,0.3,2.7,2,3.2c3.1,1,4.8,3,4,6.4c-0.9,3.7-3.9,3.9-7.1,3.9c-28.6-0.1-57.2-0.1-85.8-0.1c-3.2,0-6.3,0.1-9.5,0.2
		c-5.4-3.6-5.4-7.4,0.2-10.2c1.5-0.7,1.8-1.6,2.1-2.9c4-19.4,15.3-32.3,34.3-38.2c1.4-0.4,2.4-1,2.4-2.7
		C226.4,376,228.6,373.7,230.7,371.4z"/>
	<path class="st1" d="M200.7,422.3c0.9-15.1,15.9-29.6,32-30.9c2.6-0.2,5.3,0,7.9,0.1c1.4,0.6,2.4,1.7,3.2,3.1
		c4.3,7.7,9.1,15.1,13.7,22.6c2.9,4.7,2.3,5.7-3,5.7c-16.6,0-33.3,0-49.9,0C203.3,422.8,201.9,423.2,200.7,422.3z"/>
	<path class="st3" d="M200.7,422.3c17.8,0,35.6,0,53.4,0c1.3,0,3,0.6,3.8-0.5c1.1-1.6-0.8-2.7-1.5-3.8c-5.5-8.7-11.1-17.3-15.7-26.5
		c14.6,0.5,29.8,13.8,32.7,28.4c0.5,2.5-0.2,3.3-2.6,3.3c-4.8,0-9.6,0.1-14.5,0.1c-16.8,0-33.6,0-50.4,0
		C204.1,423.3,202.1,424.1,200.7,422.3z"/>
</g>
</svg>
