<?xml version="1.0" encoding="utf-8"?>
<!-- Generator: Adobe Illustrator 19.0.0, SVG Export Plug-In . SVG Version: 6.00 Build 0)  -->
<svg version="1.1" id="Calque_1" xmlns="http://www.w3.org/2000/svg" xmlns:xlink="http://www.w3.org/1999/xlink" x="0px" y="0px"
	 viewBox="0 0 612 792" style="enable-background:new 0 0 612 792;" xml:space="preserve">
<style type="text/css">
	.st0{fill:#491F58;}
	.st1{fill:#F4EFF1;}
	.st2{fill:#DED5D5;}
	.st3{fill:#EB5555;}
	.st4{fill:#DED6D6;}
	.st5{fill:#ED5555;}
	.st6{fill:#ED6969;}
	.st7{fill:#FDFDFD;}
	.st8{fill:#E84344;}
	.st9{fill:#8AC3D2;}
	.st10{fill:#EC5554;}
	.st11{fill:#EC4343;}
	.st12{fill:#EB4242;}
	.st13{fill:#EE6A6A;}
	.st14{fill:#EE6B6A;}
	.st15{fill:#EC5655;}
	.st16{fill:#EC5453;}
	.st17{fill:#EC696A;}
	.st18{fill:#E74243;}
	.st19{fill:#ED6A6B;}
	.st20{fill:#E64243;}
	.st21{fill:#E84243;}
	.st22{fill:#EB6869;}
	.st23{fill:#EB696A;}
	.st24{fill:#EB5453;}
	.st25{fill:#E54244;}
	.st26{fill:#E94242;}
	.st27{fill:#EB6A6A;}
	.st28{fill:#EE6B6B;}
	.st29{fill:#E84142;}
	.st30{fill:#EF6B6B;}
	.st31{fill:#EC6A6B;}
	.st32{fill:#EA4242;}
	.st33{fill:#EC5756;}
	.st34{fill:#E84242;}
	.st35{fill:#E86769;}
	.st36{fill:#6DB7CB;}
	.st37{fill:#A8D8E3;}
	.st38{fill:#492058;}
	.st39{fill:#F7CECE;}
	.st40{fill:#F3C8C8;}
	.st41{fill:#F9F1F1;}
	.st42{fill:#FCEDED;}
	.st43{fill:#F1ECEE;}
	.st44{fill:#F0EAED;}
	.st45{fill:#ED5455;}
	.st46{fill:#8AC2D2;}
	.st47{fill:#6EB7CB;}
	.st48{fill:#A9D8E3;}
	.st49{fill:#89C2D1;}
	.st50{fill:#EC6A6A;}
	.st51{fill:#A8D7E2;}
	.st52{fill:#8AC3D1;}
	.st53{fill:#89C1D0;}
	.st54{fill:#8AC4D3;}
	.st55{fill:#F3EEF0;}
	.st56{fill:#EA5555;}
	.st57{fill:#DCD3D3;}
	.st58{fill:#EA696A;}
	.st59{fill:#EB6161;}
	.st60{fill:#DBD1D2;}
	.st61{fill:#F9F8F9;}
	.st62{fill:#E1666A;}
	.st63{fill:#F1F8F9;}
	.st64{fill:#F2F8F9;}
	.st65{fill:#ECF4F6;}
	.st66{fill:#EFF4F6;}
	.st67{fill:#EAF2F4;}
	.st68{fill:#F1F7F8;}
	.st69{fill:#E7EFF1;}
	.st70{fill:#E4ECEE;}
</style>
<g>
	<path class="st0" d="M64,573c3.7-2.8,8.1-1.5,12.1-1.5c13,0,12.9,0.1,12.9-12.8c0-75.8,0-151.6,0.1-227.5c0-4.1-1-5.6-5.1-6.3
		c-10.3-1.8-17-10.3-17-20.9c0-9.2,0-18.3,0-27.5c0-12.4,9.3-21.6,21.8-21.6c38.5,0,77-0.1,115.5,0.2c5.3,0,6.2-2,6.7-6.3
		c4.3-39.8,24.4-69.2,59.7-87.3c64.6-33.1,143.7,6.1,157.1,77.1c0.7,3.6,1,7.2,1.2,10.9c0.2,3.9,1.2,5.6,5.8,5.5
		c39.2-0.2,78.3-0.1,117.5-0.2c4.8,0,9.2,1.1,13.1,3.9c6.3,4.4,9.3,10.7,9.4,18.3c0.1,8.5,0.1,17,0,25.5
		c-0.1,12.4-7.6,21.4-19.8,22.9c-3.4,0.4-4.2,1.3-4.2,4.6c0.1,59.7,0.1,119.3,0.1,179c0,18.8,0.2,37.7-0.2,56.5
		c-0.1,5,1.4,6.3,6.1,5.9c4.5-0.4,9-0.1,13.5-0.1c2,0,4,0.1,5.6,1.6c0,8.7,0,17.3,0,26c-1.1,2-3.1,2.4-5.1,2.6
		c-1.8,0.1-3.7,0.1-5.5,0.1c-163.6,0-327.2,0-490.8-0.1c-3.6,0-7.8,1.3-10.6-2.6C64,590.3,64,581.7,64,573z"/>
	<path class="st1" d="M528,571.1c-16.7,0.1-33.3,0.4-50,0.4c-33.8,0.1-67.7-0.1-101.5,0.1c-4.4,0-5.8-1.1-5.8-5.7
		c0.2-39.8,0-79.7,0.2-119.5c0-4.8-1.4-6.4-6.3-6.4c-29.8,0.2-59.7,0.2-89.5,0c-4.8,0-6.3,1.5-6.3,6.3c0.2,40.2,0,80.3,0.2,120.5
		c0,3.6-0.7,4.8-4.6,4.8c-55.2-0.1-110.3-0.1-165.5-0.1c-1.3,0-2.7,0.5-3.8-0.6c2.5-2,5.4-1.2,8.1-1.2c6.6-0.2,7.4-0.8,7.3-7.5
		c0-1.3,0.3-2.6-0.7-4.1c-3.8,2.1-6.1,5.8-9.3,8.5c-1.6,1.3-2.9,4-5.8,2.4c-0.4-1.3-0.4-2.7,0-4c2.6-4.8,6.7-8.3,10.7-11.7
		c5-4.3,6-9.2,4.6-15.6c-4.1,2.5-6.6,6.3-9.9,9.1c-1.5,1.3-2.7,3.7-5.4,2.2c-0.4-1.3-0.4-2.7,0-4c2.6-4.8,6.7-8.3,10.7-11.7
		c5-4.3,6-9.2,4.6-15.6c-4.1,2.5-6.6,6.3-9.9,9.1c-1.5,1.3-2.7,3.7-5.4,2.2c-0.4-1.3-0.4-2.7,0-4c2.6-4.8,6.7-8.3,10.7-11.7
		c5-4.3,6-9.2,4.6-15.6c-4.1,2.5-6.6,6.3-9.9,9.1c-1.5,1.3-2.7,3.7-5.4,2.2c-0.4-1.3-0.4-2.7,0-4c2.6-4.8,6.7-8.3,10.7-11.7
		c5-4.3,6-9.2,4.6-15.6c-4.1,2.5-6.6,6.3-9.9,9.1c-1.5,1.3-2.7,3.7-5.4,2.2c-0.4-1.3-0.4-2.7,0-4c2.6-4.8,6.7-8.3,10.7-11.7
		c5-4.3,6-9.2,4.6-15.6c-4.1,2.5-6.6,6.3-9.9,9.1c-1.5,1.3-2.7,3.7-5.4,2.2c-0.4-1.3-0.4-2.7,0-4c2.6-4.8,6.7-8.3,10.7-11.7
		c5-4.3,6-9.2,4.6-15.6c-4.1,2.5-6.6,6.3-9.9,9.1c-1.5,1.3-2.7,3.7-5.4,2.2c-0.4-1.3-0.4-2.7,0-4c2.6-4.8,6.7-8.3,10.7-11.7
		c5-4.3,6-9.2,4.6-15.6c-4.1,2.5-6.6,6.3-9.9,9.1c-1.5,1.3-2.7,3.7-5.4,2.2c-0.4-1.3-0.4-2.7,0-4c2.6-4.8,6.7-8.3,10.7-11.7
		c5-4.3,6-9.2,4.6-15.6c-4.1,2.5-6.6,6.3-9.9,9.1c-1.5,1.3-2.7,3.7-5.4,2.2c-0.4-1.3-0.4-2.7,0-4c2.6-4.8,6.7-8.3,10.7-11.7
		c5-4.3,6-9.2,4.6-15.6c-4.1,2.5-6.6,6.3-9.9,9.1c-1.5,1.3-2.7,3.7-5.4,2.2c-0.4-1.3-0.4-2.7,0-4c2.6-4.8,6.7-8.3,10.7-11.7
		c5-4.3,5.9-9.2,4.7-15.6c-4.1,2.5-6.6,6.3-10,9.1c-1.5,1.3-2.7,3.7-5.4,2.2c-0.4-1.3-0.4-2.7,0-4c2.6-4.8,6.7-8.3,10.7-11.7
		c5-4.3,6-9.2,4.6-15.6c-4.1,2.5-6.6,6.3-9.9,9.1c-1.5,1.3-2.7,3.7-5.4,2.2c-0.4-1.3-0.4-2.7,0-4c2.3-4.3,6.2-7.2,9.5-10.5
		c2.6-2.7,5.3-5.4,7.6-8.4c39.9-0.1,79.9-0.2,119.8-0.2c96.9,0,193.8,0,290.7,0c1.8,0,3.7,0.1,5.5,0.2c1,1,1.4,2.3,1.3,3.6
		c-0.5,14.8,0.1,29.6-0.1,44.3c-0.1,8.6-0.1,17.3,0,25.9c0.1,11,0.4,21.9-0.1,32.9c-0.4,7.5-0.2,15,0,22.4c0.4,16,0,31.9,0.1,47.8
		c0.1,10.4,0,20.9-0.1,31.4c-0.1,8.8-0.7,17.6,0.1,26.4C529.7,564.4,530.3,568,528,571.1z"/>
	<path class="st2" d="M528,571.1c0-9.6,0.6-19.2-0.2-28.7c-0.8-9.1-0.3-18.2-0.2-27.1c0.1-10.8,0.1-21.7,0.1-32.6
		c0-9.1-0.1-18.5-0.1-27.6c0-11,0.2-22.1,0.1-33.1c-0.1-9-0.1-18.1,0-27.1c0-10.3,0-20.7,0-31.1c0-9.3,1.7-18.7-0.4-28.1
		c-0.7-3.1,1.2-6.5,0.8-9.8c5.5,0,12.2-2,16.1,0.5c4.2,2.6,1.2,9.8,1.2,14.9c0.3,23.8,0.2,47.6,0.2,71.4c0,29.8,0,59.6,0,89.4
		c0,21.8,0,43.6,0.1,65.4c0,2.7-0.7,4-3.6,3.8C537.3,571.3,532.7,571.3,528,571.1z"/>
	<path class="st1" d="M298.8,157.9c10-2.6,20-3.2,30.2-1.8c6.9,1.8,12.6,6.1,18,10.3c9.1,7,17.5,14.8,24.2,24.3
		c1.2,1.6,3.3,3.1,1.8,5.7c-2.3,1.4-5,1.6-7.6,2.1c-17.9,3.9-31.2,19.4-32.1,37.8c-0.2,4.3-7.8,12.7-11.9,13.3
		c-5.1,0.7-12.7-8.6-10.9-13.3c4.1-10.9,2.5-16.7-6.3-24.1c-6.5-5.5-13.3-10.5-19.7-16.1c-3.4-3-6.9-5.7-11.1-7.4
		c-1.5-2.7,0.9-3.9,2.3-5.3c6.9-7,13.9-13.9,20.8-20.9C297.6,161.2,299.5,160.2,298.8,157.9z"/>
	<path class="st3" d="M206,261.1c3.3-0.7,7,1,9.8-1.8c1.9,1.6,1.7,3.9,1.7,6c0.1,6,0.1,12-0.1,17.9c0.2,1.7-0.1,3.4-0.1,5.1
		c-0.4,4.1,0.3,7.9,2.4,11.5c0.7,1.5,1.8,2.8,3.2,3.7c2.4,1.6,5.1,2.3,7.9,3c3.5,0.4,7-0.1,10.5-0.1c50.2,0,100.4,0,150.6,0
		c2.3,0,4.7-0.1,7,0.2c3,0,6,0.1,9,0c7.9-0.3,14-5.6,14.6-13.5c0.7-9.4,0.3-18.9,0.5-28.3c0-1.8-0.7-3.7,1.4-4.8
		c2.7,1.4,5.7,0.6,8.5,1.1c1.7,1.9,1.6,4.3,1.6,6.6c0,15.2,0,30.4,0,45.7c0,2.3,0.3,4.7-1.6,6.6c-32.3,0.1-64.5,0.1-96.8,0.2
		c-41.6,0-83.2,0-124.7,0c-1.8,0-3.7-0.1-5.5-0.2c-1.9-1.9-1.6-4.3-1.6-6.6c-0.1-15.2-0.1-30.3,0-45.5
		C204.4,265.4,204.2,263,206,261.1z"/>
	<path class="st4" d="M424.4,259.9c-0.1,10.4,0.1,20.8-0.2,31.2c-0.4,11-6.8,16.8-17.8,16.9c-2.2,0-4.3-0.1-6.5-0.2
		c-1.6-1.3-2-2.9-1.9-4.9c1.7-22.5-1-44.5-6.7-66.2c-0.6-2.6,0.8-4.8,1.7-7.1c2.7-7.1,3.1-14.2-0.4-21.1c-2.8-5.5-7.4-8.7-13.4-10.1
		c-2.2-0.5-4.7-0.5-6.3-2.5c-4.7-9-12-15.7-19.2-22.5c-7.4-6.9-16.2-12.1-24.8-17.4c20.1,1.2,37.9,8.5,53.6,20.7
		c25.9,20,39.5,46.6,41.3,79.2C424,257.3,424.3,258.6,424.4,259.9z"/>
	<path class="st5" d="M70,590c0-2.3,0-4.7,0-7c3.6-2.2,7.6-2,11.6-1.9c12,0.3,23.9,0.1,35.9,0.1c8.5,0,17-0.1,25.4,0
		c11,0.1,22,0.1,32.9,0.1c9.1,0,18.3,0,27.4,0c10.8,0,21.6,0,32.4,0c9.3,0,18.6,0,27.9,0c10.5,0.1,21,0,31.4,0
		c9.6,0,19.3,0.1,28.9,0c11-0.1,22,0.2,32.9-0.1c7.6-0.2,15.3-0.1,22.9,0c19.8,0.1,39.6-0.2,59.4,0c15.6,0.1,31.3,0.1,46.9,0.2
		c17.5,0,34.9,0.1,52.4-0.1c8.8-0.1,17.6-0.6,26.4,0.2c1.8,0.2,3.7,0.3,5.2,1.6c0,2.3,0,4.7,0,7c-1.6,1.5-3.7,1.5-5.7,1.4
		c-16.6-1-33.2,0-49.8-0.3c-8.7-0.1-17.6-0.1-26.4,0c-10.8,0.1-21.6,0.1-32.4,0c-8.8-0.1-17.6-0.2-26.4,0
		c-10.3,0.3-20.6,0.1-30.9,0.1c-9.8,0-19.6,0-29.3,0c-10.1,0-20.3,0-30.4,0c-10,0-19.9,0.1-29.9,0c-10.6-0.2-21.3,0.3-31.9-0.1
		c-8.3-0.3-16.6-0.1-24.9-0.1c-12.1,0-24.2-0.1-36.4,0.1c-8.8,0.1-17.6-0.2-26.4,0.1c-10.1,0.3-20.3,0-30.4,0.1
		c-10.1,0-20.3,0.2-30.4,0c-10.8-0.2-21.6,0.4-32.4-0.2c-7.5-0.4-14.9,1-22.4-0.2C72.5,590.7,71.1,590.9,70,590z"/>
	<path class="st5" d="M359,570.8c-10.3,0-20.7,0-31,0c-1.8-1.9-1.6-4.3-1.6-6.6c0-28.9,0-57.8,0-86.6c0-2.3-0.1-4.7,1.4-6.7
		c9.8-1,19.5-0.2,29.3-0.4c1.9,0,2.7,1,3.1,2.6c0.5,1.8,0.4,3.6,0.4,5.4c0,28.2,0,56.5,0,84.7C360.6,565.9,361.1,568.6,359,570.8z"
		/>
	<path class="st5" d="M312,570.8c-10,0-20,0-30,0c-1.7-1.7-1.6-3.9-1.6-6.1c-0.1-29.1-0.1-58.2,0-87.3c0-6.6,0.5-7,7.2-6.9
		c8.1,0.2,16.3-0.6,24.4,0.4l0.1,0.1c1.8,1.9,1.6,4.3,1.6,6.6c0,28.9,0,57.7,0,86.6C313.6,566.5,313.8,568.9,312,570.8z"/>
	<path class="st6" d="M570,583c-166.7,0-333.4,0-500.1,0c-1.2-4.9,0.8-6.1,5.7-6.1c156.3,0.1,312.5,0.2,468.8,0.2
		c6.7,0,13.3,0.2,20-0.2C569.2,576.7,571.3,578,570,583z"/>
	<path class="st7" d="M216.1,284c-0.1-8.2-0.2-16.5-0.3-24.7c1.6-39.9,19.3-70.4,53.8-90.7c9-5.3,18.7-9,29.1-10.7
		c3.1,0,2.9,1,1,2.9c-7.8,7.7-15.5,15.4-23.2,23.1c-1.3,1.3-2.4,2.7-3.6,4c-2.3,3-6,4.9-6.5,9.1c-2.7,2.8-6.2,4.7-8,8.3
		c-5.5,4-5.9,9.1-3,14.9c-0.3,2.3-0.9,4.4-3.3,5.3c-1.2,0.2-2.3-0.3-3.4-0.7c-3.6-1.1-6.7-0.5-8.6,3c-1.8,3.4-0.8,6.3,1.8,9
		c1.9,2,4.8,3.2,5.7,6.1c-0.3,8.3-2.6,15.4-9.3,21.1c-6.2,5.3-11.6,11.4-17.4,17.1C219.7,282.5,218.6,284.4,216.1,284z"/>
	<path class="st8" d="M70,590c3.7-1.7,7.5,0.4,11.2,0c10.5-1.3,21.1-0.4,31.6-0.4c9.8,0,19.7-0.3,29.6,0.2c14.3,0.8,28.6,0.4,43,0.2
		c12.8-0.2,25.7-0.2,38.5,0c13.5,0.2,27,0,40.5,0c13.2,0,26.3,0,39.5,0c13.5,0,27,0,40.5,0c13.2,0,26.3,0,39.5,0c13.5,0,27,0,40.5,0
		c13.3,0,26.7,0,40,0s26.7,0.1,40,0c13.2-0.1,26.3,0,39.5-0.1c8.8-0.1,17.5,0.4,26.2,0.2c1.1,4.4-2,4.7-4.9,4.7
		c-11.1,0.1-22.3,0.2-33.4,0c-8-0.2-16-0.1-23.9-0.1c-19.6,0-39.2,0.1-58.8-0.1c-16.9-0.2-33.9,0.3-50.8,0.3
		c-23.3,0-46.5-0.3-69.8-0.4c-16.9,0-33.9,0.4-50.8,0.4c-22.9,0-45.9-0.3-68.8-0.4c-16.8,0-33.6,0.4-50.3,0.4
		c-23.3,0-46.5-0.3-69.8-0.4c-4.8,0-9.7,0.2-14.5,0.4C70.5,595,69.2,593.4,70,590z"/>
	<path class="st9" d="M282.1,464.7c-2.4-0.1-4.9,1.2-7-0.7c4.4-1.6,5.4-5.2,5.5-9.4c0.1-2.9-0.7-6,1.4-8.5c25.7,0,51.3,0,77,0
		c2.9,5.2,1.7,10.6,1.1,16c-0.4,3-3.1,2.4-5.2,2.4c-22.3,0-44.5,0-66.8,0C286.1,464.5,284.1,464.2,282.1,464.7z"/>
	<path class="st10" d="M553,261c8.8,0,15.7,6.2,15.9,14.9c0.3,9.6,0.3,19.2,0,28.8c-0.2,8.6-7,14.8-15.9,15
		c-1.9-1.8-1.6-4.3-1.6-6.5c-0.1-15.2,0-30.4,0-45.6C551.4,265.3,551.3,262.9,553,261z"/>
	<path class="st11" d="M311.9,471c-8.3,0-16.6,0.2-25-0.1c-4-0.1-5.1,1.2-5,5.1c0.1,31.6,0.1,63.2,0.1,94.8
		c-7.1,0.4-7.1,0.4-7.1-6.5c0-29.6,0.1-59.1-0.1-88.7c0-4.3,1-5.8,5.5-5.6c9,0.4,17.9,0.1,26.9,0.1
		C308.8,470.2,310.5,469.6,311.9,471z"/>
	<path class="st10" d="M84.9,319.1c-7.1-1.5-11.9-6.7-12-13.7c-0.2-10.1-0.2-20.2,0-30.3c0.2-7.6,6.2-13.3,14.1-13.9
		c1.4,1.4,1.6,3.3,1.6,5.1c0.1,16,0.2,32-0.1,48C88.5,316.3,89,319.6,84.9,319.1z"/>
	<path class="st12" d="M359,570.8c0-31.5-0.1-62.9,0.1-94.4c0-4.5-1.3-5.7-5.6-5.5c-8.5,0.4-17,0.1-25.5,0.2
		c-0.4,0.3-0.7,0.3-0.9-0.1c5.5-1.6,11.2-0.5,16.7-0.7c5.8-0.2,11.6,0.1,17.4-0.1c3.1-0.1,4,1,4,4c-0.1,30.9-0.1,61.8,0,92.7
		C365.3,572.5,361.9,570.8,359,570.8z"/>
	<path class="st13" d="M327.1,470.9c0.3,0,0.6,0.1,0.9,0.1c0,33.3,0,66.5,0,99.8c-3.7,0.8-5.2-0.2-5.2-4.5c0.2-30.3,0.1-60.5,0-90.8
		C322.8,472.3,323.4,470.4,327.1,470.9z"/>
	<path class="st14" d="M312,570.8c0-33.3,0-66.5,0-99.8c3.5-0.5,5.2,0.2,5.2,4.6c-0.2,30.2-0.2,60.5,0,90.7
		C317.2,570.6,315.8,571.7,312,570.8z"/>
	<path class="st15" d="M451,261c3,0,6,0,9,0c1.5,1.7,1.2,3.7,0.9,5.7c-0.6,4.5,0.2,9,0,13.4c-0.6,13.2,1,26.5-1,39.7c-3,0-6,0-8.9,0
		c-1.9-1.9-1.6-4.3-1.6-6.5c-0.1-15.2,0-30.4,0-45.7C449.4,265.3,449.3,262.9,451,261z"/>
	<path class="st16" d="M181,261.1c2.7,0,5.3,0,8,0c1.8,1.9,1.6,4.3,1.6,6.6c0,15.2,0,30.4,0,45.6c0,2.3,0.2,4.7-1.6,6.5
		c-2.7,0-5.3,0-8,0c-1.6-1.6-1.5-3.6-1.5-5.6c-0.3-15.8-0.2-31.6,0-47.4C179.5,264.7,179.5,262.7,181,261.1z"/>
	<path class="st10" d="M105,261.1c2.7,0,5.3,0,8,0c1.5,1.6,1.7,3.5,1.7,5.5c-0.4,15.5,0.1,31.1-0.2,46.6c0,2.3,0.3,4.7-1.5,6.6
		c-3,0-6,0-8.9,0c-0.9-1.5-0.7-3.2-0.7-4.9c0-15.4,0-30.8,0-46.3C103.4,266.1,103,263.3,105,261.1z"/>
	<path class="st10" d="M477,261c2.7,0,5.3,0,8,0c1.7,1.9,1.6,4.3,1.6,6.6c0,15.2,0,30.4,0,45.6c0,2.3,0.3,4.7-1.6,6.5
		c-2.7,0-5.3,0-8,0c-1.9-1.9-1.6-4.3-1.6-6.5c-0.1-15.2,0-30.4,0-45.7C475.4,265.3,475.3,262.9,477,261z"/>
	<path class="st15" d="M131,261.1c2.7,0,5.3,0,8,0c1.8,1.9,1.6,4.3,1.6,6.6c0,15.2,0.1,30.3,0,45.5c0,2.3,0.3,4.7-1.6,6.6
		c-2.7,0-5.3,0-8,0c-1.8-1.9-1.6-4.3-1.6-6.5c-0.1-15.2,0-30.4,0-45.6C129.4,265.3,129.2,263,131,261.1z"/>
	<path class="st17" d="M534,261c7.7-0.4,7.7-0.4,7.7,7.3c0,14.8,0,29.5,0,44.3c0,7.6,0,7.6-7.7,7.2c-1.9-1.9-1.6-4.3-1.6-6.5
		c-0.1-15.2,0-30.4,0-45.7C532.4,265.3,532.3,262.9,534,261z"/>
	<path class="st18" d="M451,261c0,19.6,0,39.2,0,58.8c-6.8,0.4-6.8,0.4-6.8-6.3c0-15.4,0-30.8,0-46.2
		C444.2,260.7,444.2,260.7,451,261z"/>
	<path class="st19" d="M509,261c6.9-0.4,6.9-0.4,6.9,6.2c0,15.5,0,30.9,0,46.4c0,6.6,0,6.6-6.9,6.2c-1.9-1.9-1.6-4.3-1.6-6.5
		c-0.1-15.2,0-30.4,0-45.7C507.4,265.3,507.3,262.9,509,261z"/>
	<path class="st10" d="M157,261.1c2.3,0,4.7,0,7,0c1.8,1.9,1.6,4.3,1.6,6.6c0,15.2,0.1,30.3,0,45.5c0,2.3,0.3,4.7-1.6,6.6
		c-2.3,0-4.7,0-7,0c-1.9-1.9-1.6-4.3-1.6-6.6c-0.1-15.2-0.1-30.3,0-45.5C155.4,265.4,155.2,263,157,261.1z"/>
	<path class="st20" d="M189,319.8c0-19.6,0-39.2,0-58.7c6.8-0.3,6.8-0.3,6.8,6.3c0,15.4,0,30.8,0,46.2
		C195.8,320.2,195.8,320.2,189,319.8z"/>
	<path class="st21" d="M113,319.8c0-19.6,0-39.2,0-58.7c6.8-0.3,6.9-0.3,6.9,6.3c0,15.4,0,30.8,0,46.2
		C119.9,320.2,119.9,320.2,113,319.8z"/>
	<path class="st22" d="M105,261.1c0,17.6,0,35.3,0,52.9c0,2,0.3,4-0.9,5.8c-4.5,1.1-6-0.5-5.9-5.3c0.3-15.9,0.3-31.7,0.2-47.6
		C98.3,262,100,259.9,105,261.1z"/>
	<path class="st23" d="M460,319.8c-0.2-0.4-0.6-0.9-0.6-1.3c0-10.6-0.4-21.3,0.2-31.9c0.2-3.2-0.2-6.2-0.5-9.2
		c-0.5-5.5,0.6-10.8,1-16.3c4.5-1,6,0.5,5.9,5.3c-0.3,16.1-0.3,32.1,0,48.2C466,319.4,464.4,320.8,460,319.8z"/>
	<path class="st24" d="M534,261c0,19.6,0,39.2,0,58.8c-2,0-4,0-6,0c-2.7-6.8-2.8-13.9-2.1-21c0.3-3.3,0.4-6.6,0-9.9
		c-1.1-8.1,1.3-16.2-0.2-24.3c-0.2-1.3,0.4-2.6,1.4-3.6C529.3,261,531.7,261,534,261z"/>
	<path class="st25" d="M527,261c1.2,19.6-0.5,39.2,1,58.8c-6.8,0.4-6.8,0.4-6.8-6.3c0-15.7,0.2-31.5-0.1-47.2
		C521,261.5,522.5,260,527,261z"/>
	<path class="st26" d="M84.9,319.1c3-0.6,2-3,2-4.8c0.1-17.7,0-35.5,0-53.2c4.8-1.2,6.2,0.8,6.1,5.6c-0.3,15.6-0.1,31.2-0.1,46.8
		C93,320.7,92.2,321.3,84.9,319.1z"/>
	<path class="st27" d="M131,261.1c0,19.6,0,39.2,0,58.7c-4.4,1-6.1-0.4-6-5.2c0.3-16.1,0.3-32.2,0-48.3
		C124.9,261.4,126.6,260.1,131,261.1z"/>
	<path class="st12" d="M139,319.8c0-19.6,0-39.1,0-58.7c4.6-1,6.4,0.4,6.3,5.5c-0.3,15.9-0.3,31.8,0,47.7
		C145.4,319.4,143.6,320.8,139,319.8z"/>
	<path class="st28" d="M157,261.1c0,19.6,0,39.1,0,58.7c-4.7,1.1-6.2-0.5-6.1-5.5c0.3-15.9,0.3-31.8,0-47.7
		C150.7,261.6,152.3,260,157,261.1z"/>
	<path class="st29" d="M164,319.8c0-19.6,0-39.1,0-58.7c4.9-1.2,6.2,0.8,6.1,5.6c-0.3,15.8-0.3,31.7,0,47.5
		C170.2,319.1,168.9,321,164,319.8z"/>
	<path class="st30" d="M485,319.8c0-19.6,0-39.2,0-58.7c4.6-1,6.4,0.3,6.3,5.5c-0.4,15.9-0.4,31.9,0,47.9
		C491.4,319.5,489.6,320.8,485,319.8z"/>
	<path class="st31" d="M433,319.8c0-19.6,0-39.2,0-58.8c4.4-1,6.1,0.3,6,5.2c-0.3,16.1-0.3,32.3,0,48.4
		C439.2,319.7,437.3,320.8,433,319.8z"/>
	<path class="st32" d="M503,319.8c-4.7,1.2-6.2-0.5-6.1-5.5c0.3-15.9,0.3-31.8,0-47.7c-0.1-4.9,1.3-6.7,6.1-5.6
		c1.7,1.9,1.6,4.3,1.6,6.6c0,15.2,0,30.3,0,45.5C504.6,315.5,504.9,317.9,503,319.8z"/>
	<path class="st33" d="M503,319.8c0-19.6,0-39.1,0-58.7c2,0,4,0,6,0c0,19.6,0,39.2,0,58.8C507,319.8,505,319.8,503,319.8z"/>
	<path class="st26" d="M553,261c0,19.6,0,39.2,0,58.8c-4.8,1.2-6.2-0.6-6.1-5.5c0.3-15.9,0.3-31.8,0-47.7
		C546.8,261.7,548.2,259.9,553,261z"/>
	<path class="st34" d="M477,261c0,19.6,0,39.2,0,58.8c-5,1.3-6.1-0.9-6-5.7c0.3-15.8,0.3-31.6,0-47.4C470.9,262,472,259.8,477,261z"
		/>
	<path class="st35" d="M181,261.1c0,19.6,0,39.1,0,58.7c-4.7,1.2-5.9-0.7-5.8-5.4c0.3-16,0.3-31.9,0-47.9
		C175.1,261.9,176.3,259.9,181,261.1z"/>
	<path class="st31" d="M206,261.1c0,19.6,0,39.1,0,58.7c-3.4,0.7-5.1,0-5-4.2c0.2-16.8,0.2-33.6,0-50.3
		C200.9,261.2,202.6,260.4,206,261.1z"/>
	<path class="st7" d="M95,409c5.5-2.2,8.2-7.5,12.5-10.9c1.2-1,2-3.2,3.8-2.3c1.4,0.7,0.5,2.7,0.7,4.1c1,6.1-1,10.8-5.9,14.6
		c-4,3.1-6.9,7.5-11.2,10.5C94.5,419.7,94.5,414.3,95,409z"/>
	<path class="st7" d="M95,369c5.5-2.2,8.2-7.5,12.5-10.9c1.2-1,2-3.2,3.8-2.3c1.4,0.7,0.5,2.7,0.7,4.1c1,6.1-1,10.8-5.9,14.6
		c-4,3.1-6.9,7.5-11.2,10.5C94.5,379.7,94.5,374.3,95,369z"/>
	<path class="st7" d="M95,429c5.5-2.2,8.2-7.5,12.5-10.9c1.2-1,2-3.2,3.8-2.3c1.4,0.7,0.5,2.7,0.7,4.1c1,6.1-1,10.8-5.9,14.6
		c-4,3.1-6.9,7.5-11.2,10.5C94.5,439.7,94.5,434.3,95,429z"/>
	<path class="st7" d="M95,389c5.5-2.2,8.2-7.5,12.5-10.9c1.2-1,2-3.2,3.8-2.3c1.4,0.7,0.5,2.7,0.7,4.1c1,6.1-1,10.8-5.9,14.6
		c-4,3.1-6.9,7.5-11.2,10.5C94.5,399.7,94.5,394.3,95,389z"/>
	<path class="st7" d="M95,349c5.5-2.2,8.2-7.5,12.5-10.9c1.2-1,2-3.2,3.8-2.3c1.4,0.7,0.5,2.7,0.7,4.1c1,6.1-1,10.8-5.9,14.6
		c-4,3.1-6.9,7.5-11.2,10.5C94.5,359.7,94.5,354.3,95,349z"/>
	<path class="st7" d="M95,449c5.5-2.2,8.2-7.5,12.5-10.9c1.2-1,2-3.2,3.8-2.3c1.4,0.7,0.5,2.7,0.7,4.1c1,6.1-1,10.8-5.9,14.6
		c-4,3.1-6.9,7.5-11.2,10.5C94.5,459.7,94.5,454.3,95,449z"/>
	<path class="st7" d="M95,469c5.5-2.2,8.2-7.5,12.5-10.9c1.2-1,2-3.2,3.8-2.3c1.4,0.7,0.5,2.7,0.7,4.1c1,6.1-1,10.8-5.9,14.6
		c-4,3.1-6.9,7.5-11.2,10.5C94.5,479.7,94.5,474.3,95,469z"/>
	<path class="st7" d="M95,529c5.5-2.2,8.2-7.5,12.5-10.9c1.2-1,2-3.2,3.8-2.3c1.4,0.7,0.5,2.7,0.7,4.1c1,6.1-1,10.8-5.9,14.6
		c-4,3.1-6.9,7.5-11.2,10.5C94.5,539.7,94.5,534.3,95,529z"/>
	<path class="st7" d="M95,489c5.5-2.2,8.2-7.5,12.5-10.9c1.2-1,2-3.2,3.8-2.3c1.4,0.7,0.5,2.7,0.7,4.1c1,6.1-1,10.8-5.9,14.6
		c-4,3.1-6.9,7.5-11.2,10.5C94.5,499.7,94.5,494.3,95,489z"/>
	<path class="st7" d="M95,509c5.5-2.2,8.2-7.5,12.5-10.9c1.2-1,2-3.2,3.8-2.3c1.4,0.7,0.5,2.7,0.7,4.1c1,6.1-1,10.8-5.9,14.6
		c-4,3.1-6.9,7.5-11.2,10.5C94.5,519.7,94.5,514.3,95,509z"/>
	<path class="st7" d="M95,549c5.5-2.2,8.2-7.5,12.5-10.9c1.2-1,2-3.2,3.8-2.3c1.4,0.7,0.5,2.7,0.7,4.1c1,6.1-1,10.8-5.9,14.6
		c-4,3.1-6.9,7.5-11.2,10.5C94.5,559.7,94.5,554.3,95,549z"/>
	<path class="st36" d="M282.1,464.7c1.6-1.3,3.5-0.7,5.3-0.7c22.2,0,44.4-0.1,66.7,0.1c4,0,5.3-1.1,5-5.1c-0.3-4.3-0.1-8.6-0.1-12.9
		c6.2-0.4,6.2-0.4,6.2,5.8c0,13,0,13-12.8,13C329,464.9,305.5,464.8,282.1,464.7z"/>
	<path class="st7" d="M112,326.1c0.1,1.4-0.1,2.6-1.2,3.6c-5.3,5.1-10.1,10.7-15.9,15.3c-0.1-5.4-0.1-10.9-0.3-16.3
		c-0.1-2.3,1-2.8,3-2.7C102.4,326.1,107.2,326.1,112,326.1z"/>
	<path class="st7" d="M95,569c5.5-2.2,8.2-7.5,12.5-11c1.1-0.9,2-2.9,3.5-2.5c2,0.7,1,2.9,1,4.4c0.2,11,0.1,11-10.7,11c-2,0-4,0-6,0
		C94.6,570.4,94.7,569.7,95,569z"/>
	<path class="st37" d="M282,446.1c-0.2,4.2,0.1,8.5-0.3,12.7c-0.4,4.5-2.6,5.8-6.6,5.2c-0.1-3.8-0.2-7.5-0.2-11.3
		C274.8,445.6,274.8,445.6,282,446.1z"/>
	<path class="st0" d="M460.8,510.8c-15.7,0-31.3-0.1-47,0.1c-4.4,0.1-6.5-1.1-6.1-5.9c0.3-4,0.2-8,0-12c-0.1-3.2,1.2-4.9,4.4-4.5
		c3.7,0.4,3.9-1.6,3.9-4.4c-0.1-17.3-0.1-34.7,0-52c0.1-22.1,15.4-39.9,37.6-43.8c20.2-3.5,41.3,9.4,48.3,29.6
		c1.7,4.9,2.3,10,2.3,15.2c-0.1,16.8,0.1,33.7-0.1,50.5c-0.1,4,1.1,5.4,5,4.9c3.6-0.4,5.2,1.1,5,4.9c-0.2,4-0.2,8,0,12
		c0.3,4.2-1.6,5.5-5.6,5.4C492.5,510.7,476.6,510.8,460.8,510.8z"/>
	<path class="st0" d="M181.8,510.8c-15.7,0-31.3-0.1-47,0.1c-4.6,0.1-6.4-1.3-6-6c0.3-3.8,0.2-7.7,0-11.5c-0.1-3.3,0.9-5.3,4.4-4.9
		c3.5,0.4,3.7-1.5,3.6-4.2c-0.1-17.2,0-34.3-0.1-51.5c-0.1-22.7,16.2-41.7,38.4-44.6c21.4-2.9,42.1,10.8,48.1,31.9
		c1.1,4,1.7,8.1,1.7,12.3c0,17.2,0.1,34.3-0.1,51.5c0,3.6,0.6,5.4,4.6,4.7c4.1-0.7,5.7,1.3,5.5,5.4c-0.2,3.6-0.3,7.3,0,11
		c0.4,4.8-1.8,6-6.2,5.9C213.1,510.7,197.4,510.8,181.8,510.8z"/>
	<path class="st38" d="M320.1,431.8c-15.2,0-30.3-0.1-45.5,0c-3.6,0-5.5-0.8-5.6-4.9c-0.7-26.2,18-49.4,43-52.8
		c26.9-3.7,51,12.4,57.5,38.3c1.1,4.4,1.3,8.8,1.6,13.4c0.2,4.5-1.3,6.2-5.9,6.1C350.1,431.6,335.1,431.8,320.1,431.8z"/>
	<path class="st0" d="M265.9,197c0-4.9,2.7-7.6,7.1-9c3,0.1,5.4,1.5,7.6,3.3c8.2,6.8,16.5,13.5,24.8,20.2c8.8,7.2,10.9,15.2,6,25.6
		c-1.5,3.1-0.9,4.5,1.6,6.4c7.7,5.8,7.5,5.8,15.2-0.2c2.9-2.2,4-4.5,3.9-8.3c-0.5-16.8,15.8-34.8,33.9-38c2.3-0.4,4.6-0.6,6.9-1
		c15.1,2.2,21.9,8.2,23.4,20.4c0.8,7-1.7,13.3-4.6,19.4c-0.4,4.6-3.7,7.4-6.7,10.1c-10.2,9.2-22,14.3-36.1,11.8
		c-1.7-0.3-3.3-0.3-4.8,0.6c-4.1,2.3-4.3,3.8-0.7,6.9c3.8,3.2,8,6,11.8,9.3c5.3,4.7,6.2,11,2.3,16c-4.1,5.3-10.1,6.1-16,2.1
		c-5.8-4-11-8.7-16.6-12.9c-2.9-2.2-5.2-2.1-7.9,0.4c-5.2,4.7-10.8,8.9-16.3,13.2c-5.4,4.3-12.5,3.8-16.6-1.1
		c-3.9-4.7-3.3-11.7,1.6-16.2c4.2-3.8,8.6-7.3,13.1-10.9c1.4-1.1,3.4-2.2,1.5-4.4c-1.5-1.7-3.4-2.1-5.3-0.7c-2.7,2-5.7,3.4-9,4.3
		c-4.1,1.2-8.4,1.5-12.2-0.4c-10.4-5.1-19-12.7-26.9-21.1c-1.5-1.3-3-2.6-4.5-3.9c-5-4.2-6.2-8.4-3.5-12.4c2.7-4.1,6.9-4.6,12.7-1.5
		c7.1,3.1,12,9.3,18.2,13.6c2.8,1.9,5.1,4.8,9.3,4.4c-0.1-2.7-2.1-3.5-3.5-4.7c-5.9-4.6-11.4-9.6-17.4-14.1
		c-1.5-1.1-2.8-2.4-3.5-4.1c-4.4-6.5-3.6-10.7,3-15.5c3.6-3.4,7.1-1.8,10.3,0.6c7.3,5.3,13.9,11.3,21,16.8c0.9,0.7,1.7,1.5,2.9,1.6
		c-3.5-4.6-8.4-7.7-12.7-11.5c-3.2-2.9-6.8-5.4-10.1-8.2C267.3,202.3,265.4,200.2,265.9,197z"/>
	<path class="st1" d="M247,243c6.8,5.4,13.5,10.8,20.3,16.1c8.5,6.6,17.9,6.7,26.7,0.3c2.9-2.2,8.1-0.9,9.6,2.3
		c0.8,1.7-0.7,2-1.5,2.6c-4.7,3.9-9.6,7.7-14.3,11.6c-5.7,4.6-6.7,10.9-2.8,15.6c4,4.8,10,5,15.9,0.2c5.8-4.7,11.7-9.3,17.4-14.2
		c2.2-1.9,3.7-1.9,5.9,0c5.6,4.7,11.5,9.1,17.3,13.5c5.6,4.3,11.2,3.9,15-1c3.8-4.9,3-10.4-2.4-14.8c-4.7-3.8-9.4-7.5-14.2-11.1
		c-1.9-1.4-2.3-2.3-0.2-4c3.4-3,6.5-4.3,11.5-3.5c15,2.4,26.8-4.4,36.5-15.3c1.5-1.7,2.8-3.7,4.2-5.5c3.6,5.4,3.9,11.9,5,17.9
		c2.7,14.8,3.8,29.8,3.3,44.9c-0.1,3.1-1.7,6.1-0.1,9.2c-33.2,0-66.3,0.1-99.5,0.1c-22,0-44,0-66-0.1c-2,0-4,0.5-5.8-0.8
		c2.6-1.9,5.8-2.7,8.2-5.1c3.2-3.1,4.2-6.5,3.8-10.7c-0.1-1,0.1-2.2-1-2.6c-1.1-0.4-1.8,0.6-2.5,1.2c-3.5,3.5-7,7-10.5,10.5
		c-1.4,1.4-2.5,3.1-4.7,3.4c-1.3-0.6-2.3-1.6-2.8-3c0.6-2.6,2.8-4,4.5-5.8c3.2-3.3,6.3-6.9,9.9-9.8c6-4.7,8.3-10.8,7.7-18.3
		c-1.5-0.3-2.1,1.1-3,2c-5.8,5.7-11.5,11.5-17.3,17.2c-1.4,1.3-2.5,3.3-4.9,2.8c0-1.7,0-3.4,0-5c8.9-8.8,18.1-17.5,26.7-26.5
		C246.6,253.6,245.3,247.7,247,243z"/>
	<path class="st7" d="M216.1,289c7.5-7.3,14.9-14.7,22.4-22c1.1-1,2-3.4,3.8-2.2c1.3,0.9,0.2,3.1,0.4,4.7
		c0.6,8.5-4.7,13.5-10.3,18.6c-4.5,4.1-8.8,8.5-13.2,12.8C216.2,297.5,215.6,293.4,216.1,289z"/>
	<path class="st7" d="M222,303.9c5.3-5.5,10.6-11,16-16.4c1.8-1.8,3.2-1.6,3.9,1c2.3,9.3-4.8,19-13.2,18.6
		C226.1,307,223.8,305.8,222,303.9z"/>
	<path class="st39" d="M333.2,517.6c-1.1,2.1,1.3,5.9-1.8,5.9c-2.4,0-1.3-4-1.2-6.1c0.1-2.1-1.3-5.9,1.5-5.8
		C334.2,511.7,332.2,515.6,333.2,517.6z"/>
	<path class="st40" d="M331.7,526.4c1.5,0.7,1.3,2.1,1.2,3.4c0,1.1-0.1,2.6-1.7,2.1c-1.6-0.5-1-2.2-1-3.4
		C330.2,527.5,330.5,526.5,331.7,526.4z"/>
	<path class="st41" d="M308.3,523.7c-1.8-4.3-1.7-9.2,0.2-13C309.5,515.4,309.5,519.6,308.3,523.7z"/>
	<path class="st42" d="M308.5,526.1c1,2.2,1.2,4-0.1,6.2C306.5,530,306.3,528.2,308.5,526.1z"/>
	<path class="st43" d="M254.9,220.2c8.3,6.6,16.6,13.3,24.9,19.9c0.9,0.7,2.7,1.2,1.5,3.1c-0.8,1.2-2,1.7-3.5,1.5
		c-1.8-0.2-3.5-1-5-2.2c-7.1-5.8-14.1-11.6-21.1-17.4C253.6,224,253.8,221.8,254.9,220.2z"/>
	<path class="st44" d="M265.9,197c0.9,2.8,2.7,4.9,5,6.7c6.8,5.4,13.5,10.9,20.2,16.3c2,1.6,3.8,3.4,2.3,6.9
		c-5.3-4.2-10.4-8.4-15.6-12.5c-3-2.4-6.1-4.7-8.9-7.3c-3.3-3.1-6.8-3.9-11-2.4C259.3,200.7,262.3,198.6,265.9,197z"/>
	<path class="st5" d="M458,393.9c2,0,4,0.1,6,0.1c13.3,5.8,19.6,16.9,23,30.1c0.4,1.6,0.3,3.3-1,4.7c-16.7,0-33.3,0-50,0
		c-1.5-1.6-1.1-3.4-0.7-5.2C438.6,410.5,445.3,399.8,458,393.9z"/>
	<path class="st9" d="M481,434.8c4.6,0,9.3,0.1,13.9,0c2.8-0.1,3.9,0.7,3.8,3.6c-0.3,5.8-0.4,11.6-0.4,17.4c0,2.9-0.7,4.1-3.9,4.1
		c-9.3-0.2-18.6-0.1-27.9,0c-2.8,0-3.8-0.9-3.7-3.7c0.2-6.1,0.2-12.3,0-18.4c-0.1-2.5,0.9-3.1,3.2-3.1
		C471,434.9,476,434.8,481,434.8C481,434.8,481,434.8,481,434.8z"/>
	<path class="st45" d="M496,504.8c-23.7,0-47.3,0-71,0c-1.7-3.4-2.6-6.9-0.9-10.6c24,0,47.9,0,71.9,0
		C498.2,497.8,498.1,501.3,496,504.8z"/>
	<path class="st46" d="M439,465.3c4.8,0,9.7,0.1,14.5,0c2.4-0.1,3.7,0.5,3.6,3.3c-0.2,5.5-0.2,11-0.1,16.5c0,2.4-1,3.1-3.3,3.1
		c-9.8-0.1-19.6,0-29.5,0.1c-2,0-3-0.5-2.9-2.8c0.1-5.5,0-11-0.2-16.5c-0.1-2.8,0.9-3.8,3.8-3.7C429.7,465.3,434.4,465.2,439,465.3
		C439,465.2,439,465.2,439,465.3z"/>
	<path class="st47" d="M463.2,466c1.9-1.6,4.1-0.8,6.2-0.8c8.3-0.1,16.6,0.1,24.9,0c3.1,0,4.7,0.7,4.5,4.1
		c-0.3,5.3-0.4,10.6-0.4,15.9c0,2.1-0.9,2.9-3,2.9c-9.8,0-19.6,0.2-29.4-0.1c-5.6-0.1-2.1-4.6-2.9-7.1c1.9-3.3,5.5-4.2,8.3-6.2
		c3.1-2.2,6.1-4.5,9.4-7.1C474.6,466.3,468.7,468.8,463.2,466z"/>
	<path class="st48" d="M421.9,459c-1.5-7.4,0.2-14.9-0.4-22.3c-0.2-2,1.3-1.9,2.7-1.9c10,0,19.9,0,29.9,0c4.5,0,2.6,3.1,2.8,5.2
		c-4.3,3.3-8.2,7.1-13.8,8.4c-2.1,0.2-1.2-4.2-4-2.6c-2.1,1.2-3.6,2.5-0.5,4.4c0.6,0.3,0.8,1,0.7,1.7
		C435.4,458.7,429.4,460.8,421.9,459z"/>
	<path class="st28" d="M458,393.9c-5.2,4.8-11.4,8.3-15.1,14.6c-3.7,6.3-6.9,12.8-7,20.3c-3.5,0.1-7-0.1-10.5,0.2
		c-3.5,0.3-3.8-1.4-3.4-4.2C424.5,408.2,440.9,394.1,458,393.9z"/>
	<path class="st12" d="M486,428.9c-0.8-13.9-7.7-24.1-18.6-32.1c-1.2-0.9-2.8-1.2-3.4-2.7c15.9,0.5,32.5,15.8,34,31.3
		c0.3,2.9-0.7,3.9-3.5,3.7C491.6,428.8,488.8,428.9,486,428.9z"/>
	<path class="st9" d="M442.9,448c5-2,8.6-6.6,14-8c0.1,5.6,0.1,11.2,0.2,16.9c0,1.6,0,3-2.2,3c-10.8-0.1-21.5-0.1-32.3-0.2
		c-0.2,0-0.4-0.4-0.7-0.7c7.5,1.3,12.7-2.5,17.1-8C439.6,449.1,440.6,447.7,442.9,448z"/>
	<path class="st49" d="M463.2,466c6.6,0,13.2,0,21.1,0c-6.9,6.6-13.8,11.2-21.2,15C462.9,476,462.6,471,463.2,466z"/>
	<path class="st34" d="M496,504.8c0-3.5,0-7,0-10.6c2.1-0.1,4.3,0,6.4-0.3c4.4-0.6,5.9,0.9,5.9,5.5c0,4.7-1.5,6.1-5.9,5.5
		C500.3,504.8,498.1,504.9,496,504.8z"/>
	<path class="st50" d="M424.1,494.3c0.3,3.5,0.6,7.1,0.9,10.6c-2.1,0.1-4.3-0.1-6.4,0.2c-4.3,0.6-5.7-0.8-5.6-5.3
		c0.1-4.3,0.9-6.6,5.7-5.7C420.4,494.3,422.3,494.2,424.1,494.3z"/>
	<path class="st5" d="M207,428.9c-16.7,0-33.3,0-50,0c-1.6-1.7-1.3-3.7-0.8-5.7c3.7-12.8,10.1-23.5,22.8-29.3c2,0,4,0.1,6,0.1
		c13.3,5.8,19.6,16.8,23,30.1C208.4,425.8,208.3,427.5,207,428.9z"/>
	<path class="st9" d="M201.4,459.9c-4.7,0-9.3-0.1-14,0c-2.6,0.1-3.6-0.8-3.5-3.4c0.1-6.2,0.1-12.3,0-18.5c0-2.2,0.5-3.3,3-3.3
		c9.8,0.1,19.7,0.1,29.5,0.1c2.3,0,3.4,0.6,3.3,3.1c-0.2,6.2-0.4,12.3-0.3,18.5c0,2.5-0.8,3.6-3.4,3.5
		C211,459.7,206.2,459.8,201.4,459.9C201.4,459.9,201.4,459.9,201.4,459.9z"/>
	<path class="st9" d="M160,488.1c-4.8,0-9.7-0.1-14.5,0c-2.3,0.1-3.3-0.8-3.2-3.2c0.1-5.5,0.1-11-0.1-16.5c-0.1-2.7,1.2-3.4,3.7-3.3
		c9.5,0.1,19,0.1,28.5,0c2.7,0,4,0.7,3.8,3.6c-0.2,5.2-0.3,10.3,0,15.5c0.1,3.3-1.3,3.9-4.2,3.8C169.3,487.9,164.6,488.1,160,488.1
		C160,488.1,160,488.1,160,488.1z"/>
	<path class="st45" d="M217,504.8c-23.7,0-47.3,0-71,0c-1.7-3.4-2.9-6.9-1-10.6c24,0,48,0,72,0C219.2,497.8,219.1,501.3,217,504.8z"
		/>
	<path class="st47" d="M184.2,466c1.9-1.6,4.1-0.8,6.2-0.8c8.3-0.1,16.6,0.1,24.9-0.1c3.6-0.1,4.7,1.2,4.5,4.6
		c-0.3,5.1-0.4,10.3-0.4,15.4c0,2.1-0.9,2.9-3,2.9c-9.8,0-19.6,0.2-29.4-0.1c-5.6-0.1-2.1-4.6-2.9-7.1c1.9-3.3,5.5-4.2,8.3-6.2
		c3.1-2.2,6.1-4.5,9.4-7.1C195.6,466.3,189.7,468.8,184.2,466z"/>
	<path class="st51" d="M143,435.2c10.7-0.1,21.4-0.2,32.2-0.4c4.5-0.1,2.6,3.1,2.7,5.2c-4.3,3.3-8.2,7.1-13.8,8.3
		c-1.8-0.2-1.7-3.5-3.5-2.8c-1.7,0.6-4.8,1.9-1.1,4.5c0.9,0.6,1.1,1.6,0.6,2.6c-1.3,2.5-3.5,3.9-5.7,5.4c-3.3,2.3-7.3,2.1-10.5,1
		c-2.8-1-1.2-4.7-1.2-7.1C142.6,446.4,141.9,440.7,143,435.2z"/>
	<path class="st28" d="M179,393.9c-5.2,4.8-11.5,8.3-15.1,14.7c-3.6,6.3-7.2,12.6-7,20.3c-3.3,0.1-6.7-0.1-10,0.2
		c-3.9,0.4-4.5-1.4-3.9-4.7C146.1,407.5,161.9,394.1,179,393.9z"/>
	<path class="st12" d="M207,428.9c-0.8-13.9-7.7-24.1-18.6-32.1c-1.2-0.9-2.8-1.1-3.4-2.7c15.9,0.5,32.4,15.8,34,31.3
		c0.3,2.9-0.7,3.9-3.5,3.7C212.6,428.8,209.8,428.9,207,428.9z"/>
	<path class="st52" d="M163.9,448c5-2,8.6-6.6,14-8c0.1,5.5,0,11,0.2,16.4c0.1,2.5-0.7,3.5-3.4,3.5c-9.6-0.1-19.3,0-28.9,0
		c-1.4,0-3.5,0.5-3.5-1.7c0.1-7.7-1.1-15.5,0.7-23.1c0,6,0,12,0,18c0,5.5,4.4,8.3,8.8,5.1c2.9-2.1,6.2-3.9,8.2-7.2
		C160.6,449.1,161.6,447.7,163.9,448z"/>
	<path class="st53" d="M184.2,466c6.6,0,13.2,0,21.1,0c-6.9,6.6-13.8,11.2-21.3,15C183.9,476,183.6,471,184.2,466z"/>
	<path class="st26" d="M217,504.8c0-3.5,0-7,0-10.6c2.1-0.1,4.3,0,6.4-0.3c4.4-0.6,5.9,0.9,5.9,5.5c0,4.7-1.5,6.1-5.9,5.5
		C221.3,504.8,219.1,504.9,217,504.8z"/>
	<path class="st23" d="M145,494.3c0.1,3.5,1.6,7,1,10.6c-2.1,0.1-4.3,0-6.4,0.2c-3.6,0.4-5.8-0.1-5.5-4.8c0.4-6.2,0.1-6.3,6.6-6.2
		C142.1,494.1,143.5,494.2,145,494.3z"/>
	<path class="st54" d="M353,425.9c-22.7,0-45.3,0-68,0c-1.8-5.1,0.1-9.7,1.9-14.3c5.1-12.8,14.6-22,25.8-29.6
		c0.6-0.4,2.8-0.4,1.2-2.2c2-1.1,4.1-0.9,6.2-0.6c16.9,8.8,29.7,21,33.7,40.5C354.2,421.9,354.7,424,353,425.9z"/>
	<path class="st36" d="M353,425.9c-0.3-15.1-7.9-26.4-18.8-35.8c-4.5-3.9-9.4-7.2-14.1-10.9c22.9-0.6,43.7,18.6,45.1,41.2
		c0.3,4.2-0.5,6.3-5.2,5.6C357.7,425.8,355.3,426,353,425.9z"/>
	<path class="st48" d="M313.8,379.9c1,0.1,2,0.2,3.8,0.3c-17.2,11.2-31,24.2-32.6,45.7c-11.3,0.6-11.5,0.4-9.1-10.8
		C279.8,396.4,296.1,381.3,313.8,379.9z"/>
	<path class="st1" d="M350.9,210.8c6.8-6.3,14.8-9.4,24.1-8.8c9.3,0.6,15.8,7.4,16,16.6c0.5,18.8-22.7,37.2-40.8,32.5
		c-2.3-0.6-4.4-1.4-6.1-3.2c-6.1-10.5-4.2-23.7,5-34.8C349.6,212.3,350.3,211.6,350.9,210.8z"/>
	<path class="st55" d="M271.7,255.2c-8.8-7-17.7-14.1-26.5-21.2c-1.3-1-2.8-2.2-1.4-4.1c1.6-2.2,3.1-0.9,4.6,0.3
		c6.9,5.5,13.7,11.1,20.6,16.6c3.2,2.6,6.8,4.2,11,3.5c3.7-0.6,6-2.8,7-6.3c0.9-3.3-0.6-5.7-3.2-7.8c-7.8-6.2-15.5-12.6-23.3-18.8
		c-2.2-1.8-3.7-3.6-1.6-6.2c2.1-2.6,4.3-1.4,6.4,0.4c7.3,6,14.8,11.9,22.1,17.9c3,2.5,6.1,4.3,9.8,1.4c3.1-2.4,3.4-7.4,1-11.4
		c-1-1.6-2.4-2.7-3.8-3.9c-6.7-5.4-13.5-10.9-20.2-16.3c-1.5-1.2-3.8-2.6-1.8-4.8c1.7-1.8,3.3,0.1,4.7,1.3
		c8.6,7,17.2,14.1,25.8,21.2c2.3,4.3,1.7,8.7,0.5,13.1c-3.3,12.3-11.4,20.3-23.1,25C277.5,256.2,274.6,256.4,271.7,255.2z"/>
	<path class="st56" d="M290,288c-2.8-2.4-2-4.9,0.3-6.7c14-11.5,28.1-22.9,42.2-34.2c3.3-2.7,3.5,1.3,4.7,2.8
		c-1.7,3.9-5.5,5.8-8.5,8.2c-11.6,9.5-23.3,18.8-34.9,28.3C292.7,287.3,291.7,288.6,290,288z"/>
	<path class="st57" d="M271.7,255.2c14.3,0.7,32.5-15.6,31.3-33.1c-0.1-1.7,0-3.3,0-5c5.4,4.6,6.9,10.1,3.8,16.8
		c-3.9,8.4-9.7,15.4-16.8,21.2C284.1,259.7,277.7,259.4,271.7,255.2z"/>
	<path class="st58" d="M290,288c15.8-12.7,31.5-25.5,47.3-38.2c2.6,1.5,3,2.9,0.3,5c-13.6,10.9-27.1,21.9-40.7,32.8
		C294.7,289.5,292.4,290.7,290,288z"/>
	<path class="st59" d="M332.6,266.1c0.6,0.2,0.8,0.2,1,0.3c6.3,5,12.8,10,18.9,15.2c1.3,1.1,1,3.4-0.5,5c-1.7,1.9-4,2.2-5.9,0.8
		c-6.4-4.7-12.6-9.7-18.8-14.6c-0.4-0.3-0.9-1.4-0.8-1.5C328.6,269.5,330.7,267.7,332.6,266.1z"/>
	<path class="st60" d="M350.9,210.8c-0.7,4.3-4.2,6.9-6,10.6c-4.2,8.8-3.3,17.6-0.9,26.5c-6-4.2-7-10.3-5.9-16.7
		C339.5,222.7,343.7,215.8,350.9,210.8z"/>
	<path class="st61" d="M307,256.8c-0.6-0.3-1.1-0.7-1.7-1.1c-4.2-3.1-4.1-7.3,0.6-9.4c2.9-1.3,4.3,2.1,6.3,3.6
		C312.9,254.1,309.9,255.4,307,256.8z"/>
	<path class="st62" d="M307,256.8c1.9-2.2,4.4-3.9,5.2-6.8c1.3,1,4.4,1.9,3,3.3C313.2,255.3,311.5,260.1,307,256.8z"/>
	<path class="st63" d="M485.9,441.9c0.6,3.9,1,6.7-2.7,8.5c-2.1,1-3.6-0.6-4.6-1.2c-1.4-0.8,0.7-2.1,1.5-2.9
		C481.8,444.9,483.5,443.7,485.9,441.9z"/>
	<path class="st64" d="M441.8,471.3c0.4,7.9-0.8,8.9-7.8,6.7C435.8,474.8,438.9,473.4,441.8,471.3z"/>
	<path class="st65" d="M486.1,474.7c1.2,3.4-2,4-3.9,4.9c-0.8,0.4-2.8-0.8-3.9-1.7c-0.6-0.5,5.2-6.1,6.7-6.1
		C487.8,471.8,485.7,473.5,486.1,474.7z"/>
	<path class="st66" d="M442.9,448c-1.3,1-2.6,2.1-3.9,3.1c-1.8-0.1-2.8-2.2-5.2-1.4c1.8-3.7,4.5-5.5,7.3-6.3
		C442.2,443,442,446.4,442.9,448z"/>
	<path class="st63" d="M207.1,442.5c-0.1,2.9,1.2,5.6-2.3,7.6c-2.3,1.3-3.4-1.5-5.2-0.6c-1-2,1-2.6,1.9-3.5
		C203,444.6,204.6,443.2,207.1,442.5z"/>
	<path class="st64" d="M163,474.8c1.4,3.2-1.8,3.9-3.5,4.7c-0.9,0.5-2.9-0.9-4.2-1.8c-0.4-0.3,5.8-6.2,6.9-6
		C164.9,472.1,162.5,473.7,163,474.8z"/>
	<path class="st67" d="M207.1,470.8c-0.1,3.8,0.9,6.4-2.4,8.3c-2.3,1.4-4.4-0.2-5-0.8c-1.6-1.4,0.7-2.4,1.7-3.2
		C202.9,473.7,204.8,472.6,207.1,470.8z"/>
	<path class="st68" d="M163.9,448c-1.3,1-2.6,2.1-3.9,3.1c-1.8-0.1-2.8-2.2-5.4-1.3c2.2-3.7,4.8-5.5,7.9-6.7
		C163.1,444.7,163.5,446.3,163.9,448z"/>
	<path class="st69" d="M300.4,401.7c1.6-6.3,4.8-8.9,9.7-9C306.6,395.9,303.5,398.8,300.4,401.7z"/>
	<path class="st70" d="M297.7,403.6c0.6,3.5-1.7,5.2-3.8,7.1C293.8,407.5,295.8,405.5,297.7,403.6z"/>
</g>
</svg>
