<?xml version="1.0" encoding="utf-8"?>
<!-- Generator: Adobe Illustrator 19.0.0, SVG Export Plug-In . SVG Version: 6.00 Build 0)  -->
<svg version="1.1" id="Calque_1" xmlns="http://www.w3.org/2000/svg" xmlns:xlink="http://www.w3.org/1999/xlink" x="0px" y="0px"
	 viewBox="0 0 612 792" style="enable-background:new 0 0 612 792;" xml:space="preserve">
<style type="text/css">
	.st0{fill:#B4948C;}
	.st1{fill:#A68982;}
	.st2{fill:#FBD576;}
	.st3{fill:#201B18;}
	.st4{fill:#E3E3E3;}
	.st5{fill:#E4BB53;}
	.st6{fill:#E8E8E8;}
	.st7{fill:#EAC874;}
	.st8{fill:#E8C675;}
	.st9{fill:#FACC56;}
	.st10{fill:#ACACAB;}
	.st11{fill:#B3948C;}
	.st12{fill:#B2938B;}
	.st13{fill:#B1928A;}
	.st14{fill:#AF9189;}
	.st15{fill:#B1918A;}
	.st16{fill:#F0F0F0;}
	.st17{fill:#FAD576;}
	.st18{fill:#989898;}
	.st19{fill:#FCE9C3;}
	.st20{fill:#FDE9C4;}
	.st21{fill:#FDEAC4;}
	.st22{fill:#FDE5B8;}
	.st23{fill:#FCE5B8;}
	.st24{fill:#FCE5B7;}
	.st25{fill:#D1C3A9;}
</style>
<g>
	<path class="st0" d="M329.7,115.1c10.7,0,21.3,0,32,0c8.9,0.9,17.9,0.7,26.7,1.8c20.8,2.6,40.6,9.1,59.8,17.3
		c24.9,10.6,47.3,25.1,67.6,42.8c22.5,19.7,41,42.7,55.5,68.8c13.4,24.2,23,49.9,27.8,77.1c1.6,9.1,2,18.5,1.9,27.8
		c-2.6,2.3-4.7,0.1-6.6-1.1c-10.7-6.7-21.1-13.9-31.8-20.7c-9.8-6.3-19.6-12.6-29.3-19c-11.1-7.3-22.1-14.8-33.3-21.9
		c-9.7-6.1-19.2-12.6-29-18.6c-2.1-1.3-4.3-2.6-6.3-4.1c-3.4-2.7-7-5-11.3-6c-5.9-5.9-12.9-7.9-21.2-7.8
		c-29.4,0.3-58.9,0.1-88.3,0.1c-2.5,0-5-0.1-7.5,0.2c-13.1,0.9-26.1,0.4-39.2,0.3c-1,0-2-0.3-2.8-0.9c-0.5-0.3-0.9-0.7-1.1-1.3
		c1-3.6,4.1-2.9,6.5-2.9c13-0.1,25.9,0,38.9-0.1c1.6,0,3.2,0.1,5.8-0.2c-5.8-3.1-10.9-5.4-15.9-8c-12.6-6.6-25.5-12.7-37.8-19.9
		c-1.2-0.7-2.5-0.8-3.7-1.4c-4.9-3.2-10.2-4.6-16-4.4c-13.7,0.6-27.4-1.4-41.2-0.4c-1.7,0.1-3.2,0.5-4.8,0.9
		c-8.7,0.8-14.7,9.7-13.5,18c-0.2,1.9-0.5,3.8,0.2,5.7c0.2,4.5-0.2,8.9-0.2,13.4c0.3,2.1-0.6,4.2,0.2,6.2c0.1,4.5-0.1,8.9-0.3,13.4
		c0.5,1.9-0.6,3.8,0,5.8c0.4,4.1,1.2,8.1,3.7,11.6c0.8,1,0.9,2.1,1,3.3c1.2,11.6,0.4,23.3,0.5,34.9c0.2,12.3,0,24.6,0,36.9
		c0,13.8-0.1,27.6,0,41.4c0,1.2,0,2.3-0.5,3.4c-0.9,2-2.6,2.2-4.5,2.5c-3.3,0.5-6.6,0.7-9.9,1.2c-16.7,2.7-25.8,13.5-30.3,28.8
		c-1.4,4.7-3,9.2-5.3,13.4c-4.6,8.2-5.7,16.9-3.5,26.1c0.9,3.5,0.6,6.9-0.5,10.3c-2.2,6.7-3.5,13.5-1.3,20.6
		c1.8,5.9,5.1,10.4,10.2,13.7c3,1.9,5.5,4.2,7.4,7.2c4.3,6.7,10.3,11.3,18,13.5c3.6,1,6.6,3,9.2,5.7c10.5,10.7,23.7,16.1,38.4,17.1
		c12.4,0.9,19-4.5,17.1-18c-0.4-2.6-0.9-5.4,1.7-7.3c2.4-0.9,4.2,0.4,6,1.6c24.3,15.7,48.6,31.5,72.9,47.3
		c14.1,9.1,28.5,17.8,42.2,27.6c1.8,1.2,4.4,2.2,3.7,5.3c-5.7,2.9-11.9,1.4-17.8,2.3c-2.7,0.4-5.6-0.5-8.3,0.5c-12,0-24,0-36,0
		c-7.5-1.1-15.2-0.8-22.7-1.8c-21.3-2.8-41.5-9.4-61.1-17.9c-23.6-10.2-45-23.8-64.4-40.6c-23.4-20.2-42.7-43.8-57.6-70.9
		c-13.1-23.8-22.4-49-27.4-75.7c-1.6-8.7-1.7-17.5-2.2-26.3c-0.1-2.3,0.5-4.6-0.5-6.9c0-10.7,0-21.3,0-32c0.9-8.9,0.7-17.9,1.8-26.7
		c2.8-21.5,9.5-41.8,18.1-61.6c12-27.4,28.5-51.8,49.2-73.4C177.7,173.6,199,157,223,144c23.2-12.6,47.6-21.3,73.5-26.2
		c8.7-1.7,17.5-1.7,26.3-2.2C325.1,115.4,327.5,116.1,329.7,115.1z"/>
	<path class="st1" d="M455.7,259c3.9-1,6.3,2.1,9.1,3.8c6.6,4.1,13,8.6,19.5,12.9c6.3,4.2,12.7,8.3,19.1,12.5
		c10.4,6.7,20.9,13.3,31.3,20.1c9.9,6.4,19.6,13,29.4,19.4c12.1,7.9,24.3,15.6,36.4,23.4c0.7,0,0.7,0.7,1.1,1c0,11.7,0,23.3,0,35
		c-0.9,8.9-0.6,17.8-1.8,26.7c-2.8,21.5-9.5,41.8-18.1,61.5c-10.3,23.8-24.2,45.5-41.4,65c-19.7,22.4-42.3,41.4-68.5,55.9
		c-24.2,13.4-49.8,23-77,28.1c-2.4,0.5-5,1.2-7-1.1c-6.1-2.3-10.9-6.8-16.4-10.2c-18.7-11.6-36.9-23.9-55.3-35.9
		c-17.6-11.4-35.2-22.8-52.8-34.2c-2.6-8.8-4.8-17.6-7.2-26.4c-0.1-0.3,0.2-0.6,0.4-0.9c1.5-1.6,3.5-1.6,5.5-1.6
		c3.8-0.1,7.6,0,11.4,0c10.6-0.2,16.3-5,18-15.4c0.4-2.2,0.5-4.3,2.6-5.6c6-1.8,12.1-0.7,18.2-0.8c8.1-0.2,16.2-0.1,24.2,0.1
		c32.8-0.3,65.6,0,98.4-0.1c13.3,0,21.2-7.9,21.7-21.2c0.6-13.6,0-27.2,0.2-40.8c0.2-11.5,0.2-22.9,0.2-34.4
		c-0.1-15.3-0.1-30.5-0.1-45.8c0-17.1,0.1-34.2,0.1-51.3c0-9.8,0.7-19.6-0.3-29.4C456.4,265.8,453.7,262.6,455.7,259z"/>
	<path class="st2" d="M293.6,250.2c14.3,0,28.6,0,42.9,0c1.1,0.9,1.5,2.1,1.7,3.4c1.2,7.9,0.4,15.9,0.5,23.8
		c0.1,7.5,0.1,14.9,0,22.4c0,2.1,0.1,4.3-1.3,6.2c-1.7,2-4,2.2-6.3,2.2c-5.3,0.1-10.6,0-16,0.1c-5.7,0.1-6.4,0.7-6.4,6.4
		c-0.1,21.9-0.1,43.9-0.1,65.8c0,15.5-0.1,30.9,0.1,46.4c0.1,6.6,0.5,7,7.2,7.1c5.2,0.1,10.3,0,15.5,0.1c2.2,0,4.3,0.3,5.9,2.1
		c1.2,1.5,1.4,3.3,1.4,5.2c0.1,14.4,0.1,28.8,0,43.3c0,1.5-0.1,3-0.9,4.3c-2,2.6-4.8,3.3-7.9,3.3c-9.3-0.1-18.6-0.1-27.9,0
		c-3.3,0-6.3-0.6-8.9-2.6c-1.9-2.1-1.6-4.6-1.6-7.1c-0.1-9.6-0.1-19.3,0-28.9c0.1-9-3-15.9-12.3-18.7c-3.6-1.1-5.3-3.4-5.1-7.4
		c0.4-7.1-0.4-14.3,0-21.4c0-4.3,0-8.6,0-12.9c-0.3-27.1,0.3-54.2-0.3-81.3c-0.1-4.1,0.2-8.3,0.3-12.5c0-3,0.9-4.8,4-6
		c11.4-4.8,15.3-11.8,13.8-24.5c-0.7-5.6,0.4-10.9,0.5-16.4C292.4,251.4,292.9,250.7,293.6,250.2z"/>
	<path class="st3" d="M256.6,516.1c4.4,8.4,7.9,17,6.8,26.8c-1.3,2.2-0.7,4.4-0.2,6.7c2.6,12.3-3.2,20.3-15.8,20.2
		c-17.4-0.2-32.6-6.1-44.4-19.3c-1.3-1.4-2.5-2.3-4.4-2.9c-10.2-2.8-18.8-7.6-23.1-18c-0.4-1-1.2-1.5-2.1-2
		c-13.9-8.4-18.7-19.2-14.2-34.4c1.8-6,2.2-11.4,0.8-17.4c-2.1-9.5,1.3-18.1,5.9-26.2c1.4-2.5,2.3-5,3-7.8
		c5.8-22.8,21.8-35.2,45.8-32.9c1.6,1.2,1.7,2.8,1,4.6c-1.4,2.4-3.8,2.4-6.1,2.5c-1.7,0.1-3.3,0-5,0.1c-5.6,0.6-5.8,0.8-4.2,6.2
		c0.3,1.1,0.6,2.3,0.8,3.4c1.4,8-4.2,12.8-12.1,10.4c-2.9-0.9-5.3-3.3-8.5-3.6c-0.3,1.7,0.8,1.5,1.4,1.6
		c9.7,0.6,14.1,13.4,10.2,21.5c-3,6.2-10.8,8.2-18.3,4.8c-4.4-2-4.8-1.9-6,2.6c-0.4,1.6-1,3.2-1,4.9c-0.1,2-0.8,4.3,0.3,5.9
		c1.6,2.3,3.5-0.2,5.3-0.5c6.1-1,10.5,1.3,12.8,7c1,2.3,1.4,4.8,1.4,7.3c0.3,10.5-6.4,15.4-16.3,11.9c-5-1.8-6.2-1-5.5,4.5
		c0.5,4.3,1.3,8.6,4.3,12c2.1,2.5,3.8,3,5.3-0.6c1.7-4,4.4-7.5,8.1-9.9c6.9-4.6,14.3-1.6,16.2,6.4c1.7,7.2-2.7,15.5-9.7,18.3
		c-1.2,0.5-2.7,0.3-3.7,1.5c1.2,2.5,3.5,4,5.8,5.2c3.6,2,4.2,1.7,4.4-2.4c0.2-4.3,1.4-8.2,3.5-11.9c3.4-6.1,9.8-7.4,15.1-2.9
		c4.9,4.2,8.3,9.6,9.2,16.2c0.8,6.2-1.1,9.7-6.8,12.5c-1,0.5-2.2,0.7-3,1.7c8.9,10.3,32,15.7,42.3,9c-5.6,2.1-10.1,4.2-15.3,3.4
		c-3.3-0.5-6.1-1.6-8.5-3.8c-6.8-6.1-9.3-16.7-5.7-24.7c1.9-4.2,4.8-7.2,9.7-7.6c6.6-0.5,11,0.8,19.4,6.2c-0.6-4.2-2.7-7.5-4.1-11
		c-0.9-2.2-2.7-4.5,0-6.7C253.4,514.2,255.2,514.2,256.6,516.1z"/>
	<path class="st4" d="M209.9,277c0-2,0-4,0-6c1-2.3,2.7-4.1,4.5-5.9c10.5-10.4,20.9-21,31.4-31.3c3.5-3.4,4.7-7,3.5-11.9
		c-2,0.2-3.1,1.8-4.3,3c-9.7,9.6-19.3,19.3-29,28.9c-1.7,1.7-3.2,4.1-6.2,3.2c0-2,0-4,0-6c1-2.3,2.7-4.1,4.5-5.9
		c10-9.9,20-19.9,30.5-30.5c-4.8-1.1-8.5-1.1-11.8,2.3c-5.7,5.8-11.4,11.6-17.3,17.2c-1.6,1.5-3,3.7-5.9,2.9c0-2,0-4,0-6
		c2.9-5.6,8.2-9,12.3-13.5c1.5-1.7,3.1-3.1,1.4-5.5c19.2-1.4,38.3-1.4,57.5,0.2c2.8,0.2,5.1,2.3,7.3,4c5.1,2.8,7.6,7.2,7.4,13
		c-0.2,5.9,0.8,11.9-0.7,17.7c-1.3,2.1-2.5,1.7-3.6-0.3c-0.7-1.3-0.2-3-1.3-4.4c-5,4.2-9.3,9-13.8,13.5
		c-5.4,5.3-10.9,10.7-16.2,16.2c-2.8,2.9-6,5.2-9.4,7.2c-5.8,5.8-11.3,12-17.8,17c-0.5,0.2-0.9,0.3-1.4,0.4c-1.3,0-2.5,0-3.5-0.9
		c-1.6-3,0.9-4.6,2.5-6.3c5.2-5.4,10.4-10.7,15.9-15.9c3.4-3.3,4.1-6.9,3-11.3c-2.2,0.2-3.2,1.9-4.4,3.1
		c-7.5,7.4-14.8,14.8-22.3,22.2c-1.6,1.6-3.1,3.5-5.5,4.2c-1.2,0.2-1.8-0.4-2.4-1.3c-0.4-0.7-0.9-1.4-1.3-2.1c0.2-2.8,2.3-4.3,4-6.1
		c9.6-9.7,19.2-19.4,29-28.9c3.4-3.3,3.9-7,2.8-11.3c-2.4,0.7-3.5,2.4-4.9,3.8c-9.4,9.4-18.8,18.8-28.3,28.2
		C214.4,275.4,212.9,277.8,209.9,277z"/>
	<path class="st4" d="M249.7,278.1c13.6-10.4,24.5-23.8,37-35.5c1.5-1.4,2.9-4.2,5.1-3.4c2,0.8,0.6,3.6,0.9,5.4
		c0.2,1.1,0.4,2.3,0.6,3.4c0.4,0.1,0.6,0.3,0.6,0.5c0,0.3-0.1,0.5-0.2,0.5c0,0.4-0.1,0.7-0.1,1.1c0,8.5,0,17,0,25.5
		c0,10.5-4.7,16.9-15.1,19.3c-3.6,0.8-2.8,3.1-2.8,5.2c0,26.8,0,53.6,0,80.4c0,4.2-0.1,8.3-0.2,12.5c-3.8-0.1-1.8-3.3-2.7-5
		c-0.3-3.1,0.2-6.3-0.2-9.8c-1.7,0.2-2.4,1.6-3.3,2.5c-11.4,11.2-22.6,22.6-33.9,33.8c-2.1,2.1-4.4,5-8.1,2.6
		c-0.6-0.9-0.7-1.8-0.6-2.8c1.5-3,3.9-5.4,6.2-7.7c11.5-11.5,22.9-23.2,34.7-34.5c4.2-4.1,6.3-8.4,4.8-14.5
		c-7.6,7.6-15.1,15-22.6,22.5c-5.1,5.1-10,10.2-15.2,15.2c-2,1.9-4.2,4.1-7.4,1.8c-0.6-0.9-0.7-1.8-0.5-2.8c1.6-3,3.9-5.3,6.2-7.7
		c11.5-11.5,22.9-23.2,34.7-34.5c4.2-4.1,6.2-8.4,4.9-14.6c-8.3,8.5-16.7,16.5-24.8,24.8c-4.4,4.5-8.8,9.1-13.5,13.3
		c-1.9,1.8-4.1,3.7-7,1.5c-0.6-0.9-0.7-1.8-0.5-2.8c1.6-3,3.9-5.3,6.2-7.7c11.5-11.5,22.9-23.2,34.7-34.5c4.2-4.1,6.2-8.4,4.9-14.5
		c-11.6,11.5-23,22.8-34.3,34.2c-1.6,1.7-3.2,3.4-5.1,4.8c-1.8,1.3-3.7,2.3-5.9,0.5c-0.6-0.9-0.7-1.8-0.5-2.9
		c1.6-2.9,3.9-5.3,6.2-7.7c10.5-10.4,20.6-21.2,31.5-31.2c6.3-5.7,9.8-11.8,8.5-20.4c0.2-2.4,2-3.7,3.6-5.1
		c4.1-3.6,7.8-7.6,11.7-11.4c1.3-1.2,2.8-2.4,2-5.6c-6.3,6.4-12.4,12.2-18.2,18.4c-1.2,1.3-0.2,2.5,0.2,3.7c0.4,2.7-1.4,4.3-3.1,5.9
		c-11.2,11.3-22.5,22.5-33.8,33.7c-2.1,2.1-4.4,5-8.1,2.6c-0.6-0.9-0.8-1.8-0.6-2.8c1.5-3,3.9-5.3,6.2-7.7c8.3-8.3,16.7-16.6,25-25
		c1.2-1.2,2.9-2.2,3.3-4.2c-2.4-1.1-5.5,0.1-7.5-2.1c-0.9-2.5,1-3.6,2.4-5c10.5-10.2,20.7-20.7,31.1-31c1.6-1.5,3.9-2.8,3.3-5.7
		c-1.1-0.3-1.6,0.5-2.2,1.1c-10.9,11-22.1,21.6-32.6,33c-1.2,1.3-2.2,3.7-4.8,1.8C248.7,285.9,250,281.9,249.7,278.1z"/>
	<path class="st5" d="M336.7,253.1c-0.1-1-0.1-1.9-0.2-2.9c34.8,0,69.5-0.1,104.3-0.1c5.2,0,9,3.1,12.6,6.4c0.9,0.8,1.5,1.7,2.3,2.6
		c2.3,4.2,3.1,8.6,3.1,13.4c-0.1,66.8,0,133.5-0.1,200.3c0,11.9-8.7,21.2-20.6,21.2c-33.8,0.2-67.6,0-101.4-0.1
		c-1.2-1.3-1.2-2.6-0.2-4c2.3-2.2,5.2-1.9,8-1.9c29.6,0,59.3-0.1,88.9,0c6.5,0,11.6-2.4,15.8-7.2c2-2.3,3.2-4.9,3-8.2
		c-0.2-4.8,2.3-9.5,1.3-14.3c-2.1-9.2-0.3-18.5-0.4-27.7c-0.1-8.8-1.5-17.8,0.3-26.7c0.6-3.1,0.5-6.3-0.3-9.4
		c-0.7-2.8-0.8-5.6,0-8.4c0.3-1,0.5-2,0.4-3c-1.6-10.4,1.1-20.8-0.9-31.2c-0.6-3,1.2-6,0.8-8.9c-1.6-10.4,1.3-20.9-0.8-31.2
		c-0.5-2.5,0.9-5,0.7-7.4c-1-10.9,1-21.8-0.6-32.7c-1.6-10.1-9.2-16.5-19.3-16.5c-16.1,0-32.3,0-48.4,0c-13.8-0.1-27.6,0.2-41.4,0
		C341.1,255.1,338.5,255.3,336.7,253.1z"/>
	<path class="st1" d="M293.7,249c-0.1-0.3-0.3-0.7-0.4-1c0.1-6.9,0.3-13.9,0.1-20.8c-0.1-4.3-2.3-7.9-5-11.1
		c6.4,3.1,12.7,6.3,19.1,9.4c11.4,5.5,22.3,12.1,34,17.1c3,1.3,5.5,3.5,8.1,6.4C331,249,312.3,249,293.7,249z"/>
	<path class="st6" d="M209.9,257c11.8-11.7,23.7-23.4,35.5-35.2c1.1-1.1,2.1-2.2,3.3-3c1.4-1,2.8-0.5,2.8,1.3c0,5,1.2,9.9-3.5,14.3
		c-11.2,10.5-21.8,21.6-32.6,32.4c-1.7,1.7-3.4,3.2-5.6,4.2C209.9,266.3,209.9,261.7,209.9,257z"/>
	<path class="st7" d="M214.8,290.2c0.6,0.3,1.2,0.7,1.8,1c1.6-0.1,2.6,0.7,3.3,2c0.8,5.5,2.9,10.8,1.1,16.6c-1,3.2-0.7,7,0.2,10.4
		c0.8,3,0,5.9,0,8.8c0,10.5-0.7,21.1,0.2,31.6c0.2,2.9-0.1,5.5-0.1,8.3c-0.1,10.6-0.5,21.1,0.1,31.7c0.2,2.8,0.6,5.5-0.2,8.3
		c-0.9,3.2-0.9,6.8-0.1,9.9c1.5,5.5,0,10.5-1.4,15.6c-1.5,2-3.1,4.1-6,1.9c-1.5-7.6-2.7-15.2,0.9-22.6c0-1.6,0.1-3.2,0.1-4.9
		C214.7,369.4,214.7,329.8,214.8,290.2z"/>
	<path class="st6" d="M209.9,277c11.8-11.7,23.7-23.4,35.5-35.1c1.1-1.1,2.1-2.2,3.3-3c1.4-1,2.8-0.6,2.8,1.2c0.1,5,1.3,10-3.4,14.3
		c-11.9,10.9-22.5,23.1-34.6,33.8C210.5,285,209.4,281.3,209.9,277z"/>
	<path class="st6" d="M209.9,237c7.2-7.1,14.8-13.9,21.6-21.4c4.6-5.1,10.1-3.7,15.3-3.2c3.1,0.3,0.6,2.5-0.3,3.4
		c-7.5,7.6-14.9,15.2-22.6,22.6c-4.5,4.4-8.2,9.7-14,12.7C209.9,246.3,209.9,241.7,209.9,237z"/>
	<path class="st6" d="M223.5,212c1.5,0.4,3.7-0.7,4.4,1.2c0.6,1.5-1.3,2.5-2.4,3.5c-5.3,4.7-9.3,10.8-15.7,14.4
		C209.3,220.7,214.2,213.9,223.5,212z"/>
	<path class="st4" d="M256.6,516.1c-2,0-4-0.1-5.9-0.1c-0.9,1.4-2.2,2-3.8,2c-7.3,0-14.6,0.9-21.8-0.7c-0.5-0.2-1-0.5-1.4-0.8
		c-0.8-1.4,0.1-2.2,1.1-2.9c8.3-5.9,14.6-14,22-20.8c3.3-3.1,3.5-6.8,2.5-10.9c-2.2,0.5-3.2,2.1-4.5,3.3c-8,8-16,15.9-23.9,23.9
		c-1.3,1.3-2.4,2.7-4.2,3.4c-2.8-0.1-4.2-1.6-4.4-4.3c0.6-2,2.3-3.2,3.7-4.6c10.1-10.1,20.2-20.3,30.4-30.3c3.4-3.3,4.1-6.9,3-11.4
		c-2.4,0.3-3.4,2.2-4.8,3.5c-9.6,9.5-19,19.1-28.7,28.5c-1.8,1.8-3.5,4.9-7,2.7c-1-1.7-1-3.4-0.4-5.2c12-13.1,24.9-25.3,37.5-37.9
		c3.4-3.4,4.6-7.1,3.3-11.7c-2.3,0.3-3.4,2.2-4.7,3.5c-9.6,9.5-19,19.1-28.6,28.5c-1.8,1.8-3.5,4.9-7,2.7c-1.1-1.7-1.1-3.4-0.4-5.2
		c12.4-13.1,25.1-25.8,38.2-38.2c0.7-0.7,1.4-1.4,1.9-2.3c8.6-8.3,16.6-17.2,25.5-25.2c0.5-0.2,0.9-0.1,1.4,0.2
		c0.1,7.3,0.2,14.6,0.1,22c0,2.6,0.7,3.7,3.4,4.4c10.2,2.8,14.5,8.7,14.6,19.2c0.1,12.5,0.1,25,0.1,37.4c1.4,1.7,1.5,3.3,0,5
		c-0.4,3,0.1,5.9-0.8,8.9c-2.3,7.8-8.6,12.8-16.9,13C269.5,516.1,263.1,516.1,256.6,516.1z"/>
	<path class="st8" d="M293.7,494c0-1.7,0-3.3,0-5c11.6,2.2,23.4,0.1,35.1,1c2.7,0.2,5.3-0.2,7.9-1c0.3,0.2,0.4,0.4,0.3,0.7
		c-0.1,0.2-0.1,0.4-0.2,0.4c0,1.3,0,2.5,0,3.8C322.4,493.9,308,494,293.7,494z"/>
	<path class="st9" d="M336.7,490.1c0-0.3,0-0.7-0.1-1c0-17.5,0.1-35,0.1-52.6c0.2-0.6,0.6-1.1,1.1-1.5c2.6-1.5,5.5-1,8.3-1
		c25.8-0.1,51.7,0,77.5,0c1.7,0,3.3-0.1,5,0c3.9,0.1,6-1.5,5.8-5.6c0-1,0-2,0-3c0-36.2,0-72.3,0-108.5c0-8.1-0.4-8.5-8.4-8.5
		c-26.7,0-53.3,0-80,0c-2.8,0-5.7,0.5-8.3-1c-0.5-0.4-0.9-0.9-1.1-1.6c0-17.5,0-35,0-52.5c31.1,0.1,62.2,0.6,93.3,0.1
		c10.6-0.2,18.9,2.5,23.4,12.2c2.7,5.9,3.1,12.8,2,19.1c-0.8,4.4,0.7,8.6,0.1,12.6c-1.5,10.8,1.8,21.7-0.9,32.5
		c-0.7,2.9,1.8,6,1.1,9.3c-2.1,10.3,1,20.6-0.9,31c-0.8,4.6,1.6,10.2,0.7,15.2c-1.6,8.5-0.6,17.2-0.4,25.5c0.2,9.9-0.2,20,0.2,30
		c0.5,11.4,0.8,22.9-0.6,34.4c-0.8,6.9-10.7,15-18.9,15C402.7,490.1,369.7,490.1,336.7,490.1z"/>
	<path class="st10" d="M336.7,436.5c-8.3-0.1-16.7-0.4-25-0.2c-3.7,0.1-5.3-0.8-5.3-5c0.1-32.3,0.1-64.6,0.1-96.9
		c0-7.2,0-14.3,0-21.5c0-6.9,0.1-6.9,7.2-6.9c7.7-0.1,15.3-0.2,23-0.3c0,0,0,0.4,0,0.4c2.1,2.2,2.2,4.5,0.8,7.1
		c-2.4,2.9-5.7,3-9.1,2.6c-12.4-1.6-12.6-1.4-12.6,11c0,3.7,0,7.3,0,11c0.1,6.7,0.4,7.1,7,7.2c3,0,6,0,9,0.1c2,0,4,0.2,5.5,1.8
		c1.5,2.3,1.7,4.6-0.2,6.8c-2.3,3.1-5.6,3.3-9,3c-12.3-1.1-12.3-1.1-12.3,11c0,4,0.1,8,0,12c-0.2,3.8,1.6,5.4,5.1,6
		c7,1.2,13.9-0.4,20.9-0.9c2.1-0.1,2.6-1.8,2.7-3.6c0.2-6.7,0.1-13.3,0-20c0-2.7-1.7-3.6-4.1-4.1c-1.6-0.3-4.4-0.1-3.2-3.4
		c7.4-4,12.5-1.3,12.6,6.9c0.1,7.2,0.1,14.3,0,21.5c-0.1,5.8-1,7.1-6.6,8.1c-3.2,0.5-4.4,2.6-5.7,5c-3.2,3.1-7.2,2-10.9,2
		c-10.8,0.2-10.8,0.1-10.8,10.6c0,4.5,0,9,0,13.5c0,2.7,1,4.3,3.8,4.9c7.5,1.8,14.9-0.4,22.3-0.7c2.5-0.1,2.4-2.8,2.5-4.8
		c0.1-6.5,0-13,0.1-19.5c0-2.3-0.2-4.8,2.1-6.3c2.8,0.6,3,2.8,3,5c0.2,8.1,0.1,16.2,0,24.3c-0.1,4.1-1.8,6.8-6.1,6.9
		c-3.6,0.1-4.9,3-7,5L336.7,436.5z"/>
	<path class="st6" d="M275.4,406.1c-0.2,0-0.5,0-0.7,0c-2.7-1.8-1.3-4.9-2.7-7.8c-10.7,10.1-20.7,20.6-31.3,31
		c3.1,1.7,6.9-0.3,9,2.8c-12.5,12.7-25,25.3-37.6,38c-0.5,0.5-1.5,0.7-2.2,1c-1.9-1-2.2-2.8-2.2-4.7c-0.1-6.4-0.5-12.9,0.2-19.3
		c0.4-4.4,1.3-9,6.9-10.1c1.3-1,2.6-2,3.9-2.9c1.8-3.3,4.7-4,8.1-3.7c3.4,0.3,4.9-2.6,6.8-4.4c11.6-11.4,23-22.9,34.5-34.4
		c1.8-1.8,3.3-4.4,6.6-3.5c0.4,1.6-1.4,3.6,0.8,4.9C275.4,397.3,275.4,401.7,275.4,406.1z"/>
	<path class="st0" d="M214.7,436.9c-3.8,4.3-5.4,9.3-5.1,15.2c0.3,6.3,0.2,12.6,0.2,19c0,2,0,4,0,6c3.2,4.7,2.6,9.3,0,14
		c0,2,0,4,0,6c2.6,3.3,3.2,7,2.9,11c0.9,1.8,2.3,3.1,3.9,4.1c2.9-0.5,5.3,0.2,6.8,3c0.1,0.3,0.2,0.5,0.2,0.8c3.5,2.1,7.6,3,10.8,5.7
		c2,1.7,4.4,3.3,2.2,6.4c-8.9,1.5-11.3,10.9-8.8,20.1c2.6,9.6,9.9,14.4,18.5,12.4c4.3-1,8.1-2.9,11.5-5.9c0.3,6.3-1.1,8.8-6.8,9.5
		c-16.4,2-30.1-4.2-42.6-14.7c2.2-2,4.5-1.5,6.5-2.3c6-2.3,7.8-4.8,6.6-11c-1.2-6.2-4.3-11.6-9.3-15.5c-4.2-3.4-8-2.6-10.9,1.9
		c-3.3,5.1-4.1,8.9-3.8,19.4c-7-2.3-12.6-5.7-16.4-12c1.6-1.3,3.1-0.8,4.5-1c9.1-1.2,14.7-12.1,10.3-20.3c-2.3-4.2-6.8-5.4-11.1-2.6
		c-5,3.2-8.3,7.7-9.9,13.4c-0.6,2.1-1,2.8-3.2,1.6c-6.9-3.9-11.6-18.9-8-26c0.5-0.9,0.9-1.3,1.8-0.8c0.4,0.2,0.7,0.7,1.2,0.9
		c6.7,4.4,12.2,4.7,15.9,0.8c3.2-3.4,2.9-13.2-0.5-17.9c-2.6-3.6-6.9-4.7-11.1-2.7c-1.6,0.8-3.1,1.9-4.6,2.9
		c-3.1-6.6-2.3-13.9,2.9-23.8c5.6,5.2,12,8.2,19,3.2c4.3-3,4.6-10.9,1.4-16.7c-2.8-5.1-6.2-6.3-13.2-4.6c-0.8-1,0.2-1.8,0.6-2.6
		c2.8-5.8,2.8-5.7,7.9-2c1.6,1.1,3.5,2.1,5.3,2.6c6.8,1.9,10.3-1.4,9.1-8.3c-0.6-3.5-1.7-6.7-4-9.8c6.4-2.8,12.8-2.7,19.3-2.7
		C214.6,421.5,214.7,429.2,214.7,436.9z"/>
	<path class="st11" d="M232,542.3c0-7.4,2.9-9.9,9.7-8.5c6.2,1.3,10.7,4.9,14.1,10.2c1.1,1.8,1.1,3.3-0.1,5
		c-2.7,4.1-10.2,7.9-14.7,6.8c-5.7-1.4-7.6-5.9-8.6-11.1C232.2,543.8,232.1,542.8,232,542.3z"/>
	<path class="st1" d="M236.7,528.1c0.2-4.1-3.4-4.9-5.9-6.4c-2.7-1.6-5.6-2.7-7.1-5.7c9,0,18,0.1,27,0.1c3.5,6.7,7.4,13.3,7.7,22.3
		C252.1,531.4,245.1,528.3,236.7,528.1z"/>
	<path class="st12" d="M202.5,535.8c0.3-4.5,0.7-10.1,4.8-11.2c4-1,5.9,4.5,7.7,7.9c1.4,2.6,3.5,5.8,1.1,8.3
		c-2.6,2.7-6.7,3.3-10.3,2.4C202,542.4,203,538.5,202.5,535.8z"/>
	<path class="st13" d="M186.5,449.8c-0.3,2.9-1.4,5.6-5.7,5.3c-4.1-0.3-7.3-3.1-7.3-6.6c0-3,4.6-7.5,7.5-7.5
		C184,440.9,186.6,444.8,186.5,449.8z"/>
	<path class="st13" d="M179.8,488.6c0.2,2.9-0.6,5-3.9,5.2c-3.9,0.2-8.4-3.7-8.3-7.1c0.1-2.8,4.8-7.3,7.6-6.8
		C180.1,480.9,179.3,485.2,179.8,488.6z"/>
	<path class="st14" d="M182.9,524.2c-2.9,0.4-4-0.9-2.8-4c1.3-3.7,3.5-6.7,6.6-9.1c2.8-2.1,4.5-1.2,5.3,2.1
		C193.5,518.9,189.3,524.2,182.9,524.2z"/>
	<path class="st15" d="M194.2,427.2c0.4,2-0.3,3.1-2,2.6c-3-0.9-6.3-1.7-6.5-5.7c-0.1-2.7,2-4.2,4.2-3.9
		C194.1,420.7,193.4,424.8,194.2,427.2z"/>
	<path class="st6" d="M218.7,293.2c-0.7-0.6-1.4-1.3-2.1-1.9c9.8-11.1,20.8-21,31.1-31.6c0.8-0.8,1.7-1.7,3-1.1
		c1.1,0.5,0.9,1.7,1,2.6c0.4,5.6-0.2,10.4-5.1,14.7c-6.7,5.9-12.6,12.7-18.9,19.1c-0.2,0.2-0.3,0.4-0.5,0.7
		C223.6,297.6,220.8,296.4,218.7,293.2z"/>
	<path class="st6" d="M249.7,278.1c3.3,1.4,1.7,4.3,2,6.5c0.2,1.8,0,3.6,0,5.5c0.7,1,0.3,1.9-0.3,2.7c-1.1,1.6-1.1,2.4,0,3.4
		c0,0.3,0.1,0.7-0.1,1c-5.7,8.6-13.5,15.1-21.1,21.8c-0.9,0.7-2.1,0.9-3.1-0.1c-1-1.4-1.1-2.8-0.6-4.4c4-6.3,10-10.8,15.1-16.7
		c-2.9-1.7-6.7,0.3-8.8-2.7C237.9,289,243.6,283.3,249.7,278.1z"/>
	<path class="st16" d="M232.7,295.1c3.2,0,6.3,0,9.5,0c1,0,2.2-0.3,2.7,0.8c0.7,1.4-0.6,2.1-1.4,2.9c-5.2,5.1-10.4,10.2-15.6,15.3
		c-4.1-4.2-1.8-9.2-1.9-14c0.9-2.8,3.5-3.7,5.7-5C232,295.1,232.3,295.1,232.7,295.1z"/>
	<path class="st6" d="M231.7,295.1c-1,1.7-2.3,2.9-3.9,4c-1.4-1.2-1.3-2.6-0.2-4c0,0,0.1-0.1,0.1-0.1
		C229,295,230.4,295.1,231.7,295.1z"/>
	<path class="st17" d="M227.6,295.1c0.1,1.3,0.1,2.6,0.2,4c0,5,0,10,0,15c0,1.7,0,3.3,0,5c3.6,5,2.2,10,0,15c0,1,0,2.1,0,3.1
		c3.4,5.6,2.5,11.3,0,16.9c0,1,0,2.1,0,3.1c3.4,5.6,2.5,11.3,0,16.9c0,1,0,2.1,0,3.1c3.4,5.6,2.5,11.3,0,16.9c0,1,0,2.1,0,3.1
		c3.4,5.6,2.5,11.3,0,16.9c0,1,0,2.1,0,3.1c2.9,4.5,2.8,10.8-0.3,14.9c-3.2-0.3-6,0.9-8.9,2c-0.3-2.7,1-5.5,0.8-7.6
		c-0.7-7.8-0.4-15.5-0.1-23.3c0.2-5.4-1.9-11,0.3-16.4c0.7-1.6,0-2.7-0.3-4.1c-1-5.2-2-10.5,0.1-15.6c0.7-1.8,0.2-2.9-0.1-4.5
		c-1-5.1-2-10.5,0.2-15.6c0.7-1.5,0.4-2.6,0-4.1c-1.4-5.3-2.1-10.7,0-16c0.6-1.6,0.3-2.6-0.1-4.1c-1.2-5.3-2-10.7,0.1-16
		c0.4-0.9,1.1-1.9,0.5-2.8c-2.5-3.3-1.1-7.1-1.5-10.6C221.6,294.3,224.5,295.4,227.6,295.1z"/>
	<path class="st16" d="M227.8,394c0-5.6,0-11.3,0-16.9c2.7,0.1,4.1-1.9,5.8-3.5c12-12,24-23.9,35.9-36c1.3-1.3,2.1-3,4-4
		c0.6,6.7,2.9,12.7-3.1,18.4C255.9,365.7,242,380,227.8,394z"/>
	<path class="st16" d="M227.8,414c0-5.6,0-11.3,0-16.9c2.7,0.1,4.1-1.9,5.8-3.5c12-12,24-23.9,35.9-36c1.3-1.3,2.1-3,4-4
		c0.6,6.7,2.9,12.7-3.1,18.4C255.9,385.7,242,400,227.8,414z"/>
	<path class="st16" d="M227.8,374c0-5.6,0-11.3,0-16.9c2.7,0.1,4.1-1.9,5.8-3.5c12-12,24-23.9,35.9-36c1.3-1.3,2.3-2.8,4.2-3.9
		c0.5,6.5,2.7,12.6-3.3,18.2C255.9,345.7,242,360,227.8,374z"/>
	<path class="st16" d="M227.6,432c0.1-5,0.2-10,0.3-14.9c2.7,0.1,4.1-1.9,5.8-3.5c12-12,24-24,36-36c1.3-1.3,2.1-3,3.1-4.5
		c0.6,0.3,1.3,0.6,1.9,1c0,4.7,0,9.3,0,14c-13.6,13.5-27.2,26.9-40.9,40.4C232,430.2,230.5,432.4,227.6,432z"/>
	<path class="st16" d="M227.8,354c0-5.6,0-11.3,0-16.9c1.6,0,2.9-0.6,4-1.7c13.3-13.4,26.6-26.9,39.9-40.3c0.6-0.5,1.3-0.7,2,0
		c1.7,6.3,2.1,11.9-3.4,17.1C255.9,325.9,241.9,340,227.8,354z"/>
	<path class="st16" d="M227.8,334c0-5,0-10,0-15c7.9-7.4,15.7-14.9,22.8-23c0.7-1.3,1.5-2.1,3-1c2.8,0,5.6,0,8.5,0
		c1,0,2.2-0.3,2.7,0.8c0.7,1.4-0.6,2.1-1.3,2.9c-5,5.1-10,10.1-15.1,15.1C241.6,320.6,234.7,327.3,227.8,334z"/>
	<path class="st4" d="M253.7,295.1c-1,0.3-2,0.7-3,1c-4.6-2.8,0.8-4,1-6c7.9-11,18.6-19.4,27.7-29.2c3.1-3.3,6.3-6.4,9.5-9.5
		c0.8-0.8,1.5-2.1,2.9-1.5c1.3,0.6,0.8,2,0.9,3.1c0.1,2.2-0.1,4-2,5.8c-9.7,9.4-19.1,19-28.7,28.4
		C259.3,289.9,256.5,292.5,253.7,295.1z"/>
	<path class="st4" d="M273.7,295.1c-0.7,0-1.3,0-2,0c-1.3-0.2-2.9,0.4-3.6-1.1c-0.7-1.5,0.6-2.5,1.5-3.4c6.4-6.5,12.9-13,19.4-19.4
		c0.8-0.8,1.5-2.1,2.9-1.3c1,0.6,0.6,1.8,0.7,2.7c0.2,2.6-0.3,4.6-2.5,6.6C284.5,284.3,279.2,289.8,273.7,295.1z"/>
	<path class="st6" d="M209.8,491c0-4.7,0-9.3,0-14c11.7-11.6,23.4-23.1,35.1-34.7c0.9-0.9,1.8-1.9,2.8-2.8c2.1-1.8,3.6-1.8,3.9,1.4
		c0.4,5.6-0.1,10.4-4.8,14.7c-11.1,10.3-21.5,21.3-32.2,31.9C213.2,489,212.1,490.8,209.8,491z"/>
	<path class="st6" d="M212.7,508c-2.6-3.2-3.4-7-2.9-11c11.8-11.7,23.7-23.4,35.5-35.2c1.1-1.1,2.1-2.2,3.3-3c1.4-1,2.8-0.5,2.8,1.3
		c0,5,1.2,9.9-3.5,14.3c-10.5,9.8-20.4,20.2-30.5,30.3C216.1,506.1,215,507.8,212.7,508z"/>
	<path class="st16" d="M249.7,432.1c-3.2,0-6.3,0-9.5,0c-1,0-2.1,0.2-2.7-0.8c-0.6-1.1,0.4-1.8,1-2.5c10.9-10.9,21.9-21.9,32.8-32.8
		c0.7-0.7,1.4-1.7,2.5-1c1,0.6,0.8,1.7,0.8,2.7c0,2.8,0,5.7,0,8.5c-0.4,0.9-0.6,2-1.3,2.6C265.6,416.5,257.6,424.3,249.7,432.1z"/>
	<path class="st6" d="M223.5,515.2c-2.6-0.1-4.9-1.2-6.8-3c0.1-1.6,1.1-2.7,2.2-3.8c9.3-9.3,18.6-18.6,27.9-27.9c1-1,2-2.6,3.7-2
		c1.8,0.7,1,2.6,1.2,4c0.8,5.6-1.1,9.8-5.4,13.6c-5.7,5-11,10.7-16.3,16.2C228.2,514.2,226.1,515.3,223.5,515.2z"/>
	<path class="st16" d="M274.6,414.2c0,3.8,0.4,7.6-0.1,11.3c-0.5,4.1-3.2,6.6-7.5,6.4c-3.2-0.2-7.9,1.7-9.3-1.1
		c-1.2-2.5,3.5-4.6,5.5-6.9c3.1-3.7,6.5-7.1,9.7-10.7C273.6,413.6,274.1,413.9,274.6,414.2z"/>
	<path class="st6" d="M240.7,515.1c-1.8-0.5-5.1,1.2-6-1c-1-2.3,2.3-3.6,3.8-5.2c2.9-3.2,6-6.1,9.1-9.2c0.8-0.8,1.7-1.7,3-1.1
		c1.1,0.5,1,1.6,1,2.6c0,2.5,0.2,5-0.1,7.5C251.1,513.1,247.8,515,240.7,515.1z"/>
	<path class="st18" d="M336.6,313.2c0-2.4,0-4.8,0.1-7.1c32,0,64,0,95.9-0.2c3.4,0,4.2,1.3,4.2,4.5c-0.1,40.3-0.1,80.6,0,120.9
		c0,3.5-0.7,5.1-4.7,5c-31.8-0.2-63.6-0.2-95.4-0.2c-0.1-6.4-0.8-7.3,6.6-7c2.3,0.1,4.4-0.1,4.4-3.3c0-9.5,0-19-0.1-28.4
		c0-0.7-0.8-1.4-1.2-2.1c-3.3,2.6-6.6,2.8-9.7-0.2c0-6.7,0-6.9,6.6-6.9c3.6,0,4.6-1.4,4.5-4.8c-0.2-7.8-0.3-15.6,0-23.4
		c0.2-4.8-1.4-6.7-6.2-6.1c-1.6,0.2-3.3,0.1-5,0.1l0,0c0-2.4,0-4.8,0-7.1c0.4-0.7,1.1-1.5,1.9-1.5c5.9-0.1,6.3-3.9,6.1-8.4
		c-0.2-5-0.2-9.9,0-14.9c0.2-4.1-0.6-7.3-5.6-7.4C338,314.8,337.2,314.1,336.6,313.2z"/>
	<path class="st19" d="M336.6,313.2c10.2,0.5,10.2,0.5,10.3,11.1c0,5.6-0.3,11.3,0.1,16.9c0.3,4.7-1.4,6.3-5.9,5.7
		c-1.5-0.2-3,0-4.5,0.1c-6.1,0-12.3-0.2-18.4,0c-3.6,0.1-4.6-1.3-4.5-4.6c0.2-7.8,0.2-15.6,0-23.4c-0.1-4.3,1.2-5.8,5.6-5.8
		C325.1,313.1,330.9,314.6,336.6,313.2z"/>
	<path class="st20" d="M336.7,395.1c3.2,0.1,6.5,0.1,9.7,0.2c0.1,9.8,0.2,19.6,0.4,29.4c0,1.9-0.4,3.5-2.7,3.4
		c-9-0.4-17.9,1.9-26.9,0.2c-2.5-0.5-3.5-1.3-3.4-3.8c0.1-8.3,0.1-16.6,0-25c0-3.2,1.2-4.5,4.4-4.4
		C324.4,395.2,330.5,395.1,336.7,395.1z"/>
	<path class="st21" d="M336.6,354.1c0.9,0.3,1.9,0.7,2.8,0.8c7.2,0.5,7.2,0.5,7.3,7.9c0,6.8,0,13.7,0,20.5c0,1.9-0.1,3.9-2.7,3.9
		c-9-0.1-17.9,1.8-26.9,0.2c-2.5-0.5-3.4-1.4-3.4-3.8c0.1-8.3,0.1-16.7,0-25c0-3.2,1.3-4.3,4.5-4.4
		C324.4,354,330.5,355.1,336.6,354.1C336.6,354.1,336.6,354.1,336.6,354.1z"/>
	<path class="st22" d="M412.2,354.3c4.2,0,8.3,0.1,12.5,0c2.9-0.1,4.3,0.8,4.2,4c-0.1,8.6-0.1,17.3,0.1,25.9c0,2.8-1.1,3.8-3.8,3.8
		c-8.1-0.1-16.3,0-24.4-0.1c-3.3,0-5.1-1.2-5-5.1c0.3-8.1,0.2-16.3,0-24.4c0-3,0.9-4.2,4-4.1C403.9,354.4,408,354.3,412.2,354.3z"/>
	<path class="st23" d="M387.9,371.9c0,4-0.1,8,0,12c0.1,2.6-0.7,4.1-3.6,4c-8.2-0.1-16.3-0.1-24.5-0.1c-3.7,0-5.3-1.4-5.1-5.4
		c0.3-7.8,0.2-15.7,0-23.5c-0.1-3.4,1.1-4.8,4.6-4.7c8,0.2,16,0.2,24,0c3.6-0.1,4.7,1.3,4.5,4.7
		C387.7,363.2,387.8,367.5,387.9,371.9C387.9,371.9,387.9,371.9,387.9,371.9z"/>
	<path class="st24" d="M428.9,330.4c0,4-0.1,8,0,12c0.1,3.1-0.7,4.6-4.1,4.5c-8.1-0.2-16.3-0.2-24.5-0.1c-3.4,0.1-4.7-1.2-4.6-4.7
		c0.2-8.1,0.2-16.3,0-24.4c-0.1-3.2,1-4.5,4.3-4.5c8.3,0.1,16.6,0.1,24.9,0c3.1,0,4,1.3,4,4.2C428.7,321.8,428.8,326.1,428.9,330.4
		C428.8,330.4,428.9,330.4,428.9,330.4z"/>
	<path class="st22" d="M428.9,412.1c0,4.2-0.1,8.3,0,12.5c0.1,3-1.1,4.5-4.1,4.2c-7.8-0.9-15.6,0.3-23.4,0c-3.9-0.1-6-1.3-5.8-5.9
		c0.4-7.6,0.3-15.3,0-23c-0.1-3.8,1.3-4.9,4.9-4.8c7.8,0.2,15.7,0.2,23.5,0c3.8-0.1,5,1.3,4.8,5
		C428.7,404.1,428.9,408.1,428.9,412.1C428.9,412.1,428.9,412.1,428.9,412.1z"/>
	<path class="st22" d="M387.9,412c0,4.3-0.1,8.6,0,13c0,2.4-0.8,4.1-3.4,3.8c-8.6-1-17.2,0.8-25.9-0.3c-2.9-0.4-4-1.4-3.9-4.4
		c0.1-8.1,0.1-16.3,0-24.4c0-3.1,1-4.5,4.3-4.5c8.1,0.1,16.3,0.1,24.4,0c3.2-0.1,4.5,1,4.4,4.3C387.7,403.6,387.9,407.8,387.9,412
		C387.9,412,387.9,412,387.9,412z"/>
	<path class="st25" d="M387.7,314c1.9,4.8,0.7,9.8,0.9,14.7c0.2,4.8,0,9.6,0.1,14.5c0.1,2.7-1,3.9-3.8,3.9c-8.8-0.1-17.6-0.1-26.4,0
		c-2.8,0-3.8-1.1-3.8-3.8c0.1-8.8,0-17.6,0-26.4c0-2,0.4-3.7,2.9-3.7c9.6,0,19.3,0.1,28.9,0.2C386.9,313.3,387.3,313.8,387.7,314
		c-1.7,2.1-4,2.1-6.3,2.1c-6,0.1-12,0.1-17.9,0c-4-0.1-5.7,1.7-5.6,5.7c0.1,5.8,0,11.6,0.1,17.4c0,3.1,1.5,4.5,4.6,4.6
		c6.1,0,12.3,0,18.4,0c3.5,0,4.6-1.9,4.6-5.1c0-6.1,0-12.3,0-18.4C385.6,318,385.6,315.7,387.7,314z"/>
	<path class="st22" d="M387.7,314c0,9.1-0.1,18.3,0,27.4c0.1,3.4-1,4.8-4.5,4.7c-7.6-0.2-15.3-0.2-22.9,0c-3.4,0.1-4.7-1.1-4.6-4.6
		c0.2-7.6,0.2-15.3,0-22.9c-0.1-3.6,1.3-4.6,4.7-4.5C369.4,314.2,378.6,314.1,387.7,314C387.7,314.1,387.7,314,387.7,314z"/>
</g>
</svg>
