<?xml version="1.0" encoding="utf-8"?>
<!-- Generator: Adobe Illustrator 19.0.0, SVG Export Plug-In . SVG Version: 6.00 Build 0)  -->
<svg version="1.1" id="Calque_1" xmlns="http://www.w3.org/2000/svg" xmlns:xlink="http://www.w3.org/1999/xlink" x="0px" y="0px"
	 viewBox="0 0 612 792" style="enable-background:new 0 0 612 792;" xml:space="preserve">
<style type="text/css">
	.st0{fill:#010100;}
	.st1{fill:#010101;}
</style>
<g>
	<path d="M270,430.8c4.9-10.7,9.5-20.6,14.1-30.4c8.4-18.2,16.9-36.5,25.2-54.8c1.3-2.9,2.9-3.8,6-3.7c10,0.2,20,0.5,30,0
		c7.2-0.3,12.5,2.4,17.3,7.3c19.4,19.5,38.9,38.9,58.3,58.4c2.4,2.4,3.6,2.7,6.1,0.1c15.1-15.4,30.5-30.6,46.5-46.6
		c-2.6,0-4.2,0-5.8,0c-22,0-44,0-66,0c-7.3,0-11.7-3.7-11.7-10c0-6.3,4.3-10,11.7-10c55.8,0,111.7,0,167.5,0
		c7.4,0,11.8,3.7,11.8,9.8c0.1,6.4-4.4,10.2-12,10.2c-16.5,0-33,0-49.5-0.1c-3.1,0-5.3,0-5.7,4.1c-0.3,3.1-2.7,5.6-5,7.8
		c-23.7,23.7-47.4,47.4-71.1,71c-8.2,8.2-19.2,8.3-27.5,0.1c-14.9-14.8-29.7-29.7-44.6-44.5c-1.1-1.1-2-2.7-3.8-3.2
		c-1,1.7-0.5,3.6-0.5,5.3c0,38.5,0,77,0,115.5c0,10.9-4.1,14.9-15.1,14.9c-47.2,0-94.3,0-141.5,0c-10,0-13-2.3-15.3-11.8
		c-0.5-2-1.8-3.1-3.1-4.3c-22.7-22.8-45.5-45.5-68.2-68.2c-9.7-9.8-9.7-19.7,0-29.5c23-23,46-45.9,68.9-69
		c4.9-4.9,10.3-7.5,17.3-7.2c7,0.3,14,0.3,21,0c3.5-0.1,5.2,0.9,6.6,4.2c11.9,26.7,23.9,53.3,35.9,80
		C268.4,427.4,269,428.7,270,430.8z"/>
	<path d="M321.2,282.2c-0.1,27.6-22.3,49.8-49.8,49.8c-27.7,0-50.2-22.6-50.1-50.2c0.1-27.7,22.7-49.9,50.5-49.8
		C299.2,232.1,321.3,254.5,321.2,282.2z"/>
	<path d="M490,295.5c0,11-0.1,22,0.1,33c0,2.8-0.7,3.6-3.5,3.6c-14.3-0.1-28.6-0.1-43,0c-2.7,0-3.7-0.6-3.6-3.5
		c0.1-21.8,0.1-43.6,0-65.4c0-2.4,0.5-3.9,3-4.2c11-1.7,13.6-8.5,12.2-18.6c-0.7-5.1,0-10.3-0.2-15.5c-0.1-2.1,0.5-2.9,2.8-2.9
		c4.8,0.2,9.7,0.2,14.5,0c2.7-0.1,2.9,1.2,2.8,3.3c-0.1,8.3,0.1,16.7-0.1,25c0,2.6,0.3,4.6,3.3,5.1c10.3,1.7,13.2,7.9,11.9,17.8
		C489.3,280.4,490,288,490,295.5z"/>
	<path class="st0" d="M529.6,291.2c0,4.2-0.3,8.4,0.1,12.5c0.3,3.6-0.8,5.7-4.5,6.3c-4.1,0.6-6.1,2.6-5.3,7c0.2,1,0,2,0,3
		c0,7.5,0,7.5,7.4,8.1c1.3,0.1,2.6-0.2,2.6,1.9c0,2-0.9,2.1-2.4,2.1c-8.3,0-16.7,0-25,0c-1.3,0-2.6,0.3-2.7-1.9
		c-0.1-2.4,1.4-2.1,2.9-2.2c7.1-0.4,7.1-0.4,7.1-7.3c0-1-0.1-2,0-3c0.7-4.5-0.6-7.3-5.6-7.8c-3.6-0.4-4.7-2.4-4.6-6
		c0.3-9.2,0.2-18.3,0-27.5c0-2.5,0.4-3.5,3.2-3.4c7.7,0.2,15.3,0.2,23,0c3-0.1,3.6,1,3.5,3.7C529.5,281.5,529.6,286.3,529.6,291.2z"
		/>
	<path class="st1" d="M250.2,370.1c0-8.9,0-17.2,0-26.2c13.5,7.8,27,7.5,40.7,0c0,8.9,0,17.1,0,26
		C277.3,362.7,263.8,362.1,250.2,370.1z"/>
	<path d="M464.7,218c-1.8,0-3.7,0-5.5,0c-2.3,0-4.4,0.6-4.4-3.3c0-3.8,1.8-3.8,4.5-3.8c4.3,0.1,8.7,0.2,13,0
		c2.8-0.2,2.8,1.4,2.7,3.4c-0.1,2,0.5,4.1-2.9,3.8C469.7,217.8,467.2,218,464.7,218z"/>
</g>
</svg>
