<?xml version="1.0" encoding="utf-8"?>
<!-- Generator: Adobe Illustrator 19.0.0, SVG Export Plug-In . SVG Version: 6.00 Build 0)  -->
<svg version="1.1" id="Calque_1" xmlns="http://www.w3.org/2000/svg" xmlns:xlink="http://www.w3.org/1999/xlink" x="0px" y="0px"
	 viewBox="0 0 612 792" style="enable-background:new 0 0 612 792;" xml:space="preserve">
<style type="text/css">
	.st0{fill:#3B4652;}
	.st1{fill:#2B78C1;}
</style>
<g>
	<path class="st0" d="M232,632c-1.8-11.7-2-23.6-2.8-35.3c-3.1-49.9-6-99.8-8.9-149.7c-1-18.3-1.6-36.6-2.6-54.9
		c-0.2-3.3,0.9-4.6,4.1-5.4c15.8-4.2,32-6.3,47.8-10.3c2.2-0.6,2.5,0.3,2.5,2.2c-0.3,37.9,15.6,70.6,33.3,102.7
		c10.5,19.1,22.4,37.4,32,57c2.8,5.6,5.2,11.4,7.3,18.2c12.3-32.7,32.6-60,47.8-90c10.9-21.4,20.3-43.4,23.9-67.4
		c1.1-7.6,1.7-15.2,1.4-23.2c17,4.2,33.8,6.4,50.2,10.9c3.2,0.9,4.2,2.1,4.1,5.4c-1.2,35-3.6,69.9-5.7,104.8
		c-1.9,31.9-3.6,63.9-5.6,95.8c-0.8,13.1-1.2,26.3-2.9,39.3C382.7,632,307.3,632,232,632z"/>
	<path class="st0" d="M355,120c5.7,1.1,11.4,2,17,3.5c23.3,6,39.9,20.5,51.2,41.4c1,1.9,1.9,3.9,3.9,5c8.3,4.4,10.7,12.3,11.9,20.7
		c2.3,15.4,0.1,30.5-2.5,45.7c-0.3,1.9-0.7,3.9-1.2,6.2c3.3-0.2,6.7-1.1,9,1.6c2.3,2.7,2.4,6.1,2.6,9.4c0.4,7.4-1.5,13.9-7.7,18.6
		c-4.5,3.4-7.3,9.3-14.3,9.1c-2-0.1-2,2.4-2.6,3.9c-8.1,19.7-18.2,38.2-33.8,53c-14.1,13.4-30.5,21.3-50.6,18.9
		c-12.8-1.6-23.7-7.4-33.3-15.7c-17.2-15-28.2-34.3-36.7-55.1c-1.3-3.1-2.6-4.7-6.3-5.6c-12.7-2.8-22.3-22.2-17.5-34.3
		c0.6-1.4,1.3-3.2,2.8-3.3c6.3-0.4,4.3-4.3,3.6-7.8c-3.7-18.1-5.3-36.1,1-54.2c3.5-10.2,9.3-17.9,19.5-21.9c1.7-0.7,2.8-1.6,3.7-3.1
		c12-20,30-31,52.7-35c0.9-0.2,2.1,0.2,2.5-1.1C338.3,120,346.7,120,355,120z"/>
	<path class="st1" d="M139,632c0.4-31.2,3.3-62.2,6.7-93.1c3.3-29.8,7.4-59.4,14.3-88.6c1.6-6.8,3.8-13.4,5.9-20.1
		c4.4-14.1,13.8-24,26.4-31.3c3-1.7,4.4-2.2,4.5,2.2c1.1,39.6,4.4,79.2,6.4,118.8c1.8,35.6,3.9,71.2,6,106.7
		c0.1,1.8,0.5,3.6,0.8,5.4C186.3,632,162.7,632,139,632z"/>
	<path class="st1" d="M480,632c1.8-13.7,2.1-27.5,3-41.3c2-34.6,3.9-69.1,5.7-103.7c1.5-28.4,3.1-56.8,4.4-85.3
		c0.2-4.2,0.7-5,4.8-2.8c17.3,9.5,25.5,25,30.1,43.2c6.5,25.5,10.6,51.4,14,77.5c4.2,31.8,7,63.8,8.7,95.9c0.3,5.5,0.2,11,0.3,16.5
		C527.3,632,503.7,632,480,632z"/>
	<path class="st1" d="M305,407.7c0-6.7,0-13.3,0-20c0-6.3,3-8.2,8.5-5.3c9,4.7,18,9.2,26.9,14.2c3.5,1.9,6.1,1.8,9.5-0.2
		c8.8-5,17.9-9.5,26.9-14.2c5-2.6,8.2-0.8,8.2,4.8c0.1,13.6,0.1,27.3,0,40.9c-0.1,5.6-3.2,7.5-8.2,4.9c-9.3-4.8-18.6-9.6-27.8-14.6
		c-2.8-1.5-5-1.6-7.8-0.1c-9,5-18.2,9.7-27.3,14.4c-5.8,3-8.7,1.2-8.8-5.5C304.9,420.7,305,414.2,305,407.7z"/>
</g>
</svg>
