<?xml version="1.0" encoding="utf-8"?>
<!-- Generator: Adobe Illustrator 19.0.0, SVG Export Plug-In . SVG Version: 6.00 Build 0)  -->
<svg version="1.1" id="Calque_1" xmlns="http://www.w3.org/2000/svg" xmlns:xlink="http://www.w3.org/1999/xlink" x="0px" y="0px"
	 viewBox="0 0 612 792" style="enable-background:new 0 0 612 792;" xml:space="preserve">
<g>
	<path d="M181.2,109.2c107,0,214,0,321,0c15.4,5,20.8,15.9,20.7,31.7c-0.3,90.1-0.1,180.2-0.1,270.3c0,60.5,0,120.9,0,181.4
		c0,15.2-5.6,22.9-19.9,28c-0.3,0.1-0.5,0.4-0.7,0.6c-107,0-214,0-321,0c0.2-1.5,0.5-2.9,0.5-4.4c0-167.6,0-335.1,0-502.7
		C181.7,112.4,181.4,110.8,181.2,109.2z M406.6,450.4c17.9,0.2,34.2-6,48.2-17.6c9.5-7.8,18.1-16.7,26.6-25.6
		c2.7-2.7,4.5-6.6,5.7-10.4c4.2-13-0.7-23.8-9.1-33.4c-10.3-11.8-22.6-21.2-35.6-29.6c-5.1-3.3-10.4-6.7-16-9
		c-11.9-4.9-21.8-1.7-29.6,8.3c-3.5,4.5-7.3,8.7-11.1,12.8c-9.5,10.2-21.4,10.7-31.8,1.3c-4.2-3.8-8.1-7.9-12.1-11.9
		c-13.1-13.1-26.3-26-39.1-39.3c-10.4-10.7-9.8-22.7,1-32.9c3.6-3.4,7.1-7.2,11.3-9.8c13.6-8.4,14.6-24.3,6.6-36.4
		c-9-13.6-18.9-26.5-29.1-39.2c-4-4.9-9.4-9-14.9-12.4c-12.5-8-26.9-6.3-37.6,3.9c-6,5.8-11.9,11.6-17.6,17.8
		c-25.2,27.4-30.2,58.3-15.4,92.4c8.2,18.9,20.3,35.2,34.6,49.7c25.8,26.3,51.6,52.5,78.2,78c10.4,10,22.1,18.7,34.2,26.7
		C369.6,444.1,386.9,450.4,406.6,450.4z M394.7,501.7c12.5,0,25,0,37.5,0c10,0,20,0.1,30,0c6.4-0.1,10-4.1,9.3-9.7
		c-0.6-4.7-4-7.3-10.2-7.3c-44.3,0-88.6,0-132.8,0c-1.5,0-3.4-0.2-4.3,0.6c-2.2,2-5.2,4.4-5.4,6.9c-0.2,2.7,1.9,6.1,4.1,8.2
		c1.5,1.4,4.7,1.3,7.1,1.3C351.4,501.7,373.1,501.7,394.7,501.7z M284.3,553C284.3,553,284.3,553,284.3,553c-19.5,0-38.9,0-58.4,0
		c-6,0-9.4,2.7-9.9,7.6c-0.5,5.6,3.2,9.4,9.7,9.4c38.8,0.1,77.5,0.1,116.3,0c6.3,0,10.1-3.3,10.2-8.5c0.1-5.4-3.7-8.5-10.5-8.5
		C322.6,553,303.4,553,284.3,553z M335,535.9c13.8,0,27.7,0,41.5,0c3.5,0,7,0.2,10.5-0.1c4.3-0.4,7.1-3,7.7-7.3
		c0.6-3.9-1.1-7-4.6-8.6c-1.7-0.8-3.9-1-5.8-1c-32.8-0.1-65.7,0-98.5,0c-1,0-2,0-3,0.1c-4.4,0.6-6.9,3.4-7.3,7.7
		c-0.4,4,1.6,7.2,5.5,8.5c1.8,0.6,3.9,0.7,5.9,0.7C303,535.9,319,535.9,335,535.9z M420.7,553c-13.8,0-27.6,0-41.5,0
		c-6,0-9.8,3.2-9.9,8.2c-0.1,5.1,3.8,8.8,10,8.8c27.5,0.1,55,0.1,82.4,0c6.3,0,9.9-3.5,9.8-8.9c-0.1-5.2-3.6-8.1-9.9-8.1
		C448,553,434.3,553,420.7,553z M258,501.7C258,501.7,258,501.7,258,501.7c11.3,0,22.6,0.1,33.9-0.1c5.6-0.1,9.2-3.6,9.2-8.5
		c0-4.8-3.6-8.4-9.2-8.5c-22.3-0.1-44.6-0.1-66.9,0c-6.4,0-10.2,4.8-8.8,10.5c1.2,4.8,4.7,6.6,9.3,6.6
		C236.4,501.7,247.2,501.7,258,501.7z M442.1,518.8c-6.8,0-13.7-0.1-20.5,0c-6.1,0.1-9.6,3.3-9.5,8.5c0,5.2,3.5,8.5,9.6,8.5
		c13.5,0.1,27,0.1,40.5,0c5.9-0.1,9.5-3.7,9.3-8.8c-0.2-5-3.6-8.1-9.4-8.2C455.5,518.8,448.8,518.8,442.1,518.8z M237.1,535.9
		c4.2,0,8.3,0.2,12.5,0c5.5-0.3,8.9-3.8,8.8-8.8c-0.1-4.8-3.5-8-8.9-8.1c-8.2-0.1-16.3-0.1-24.5,0c-5.7,0.1-9.1,3.4-9,8.5
		c0,5,3.5,8.3,9.1,8.5C229.1,536,233.1,535.9,237.1,535.9z"/>
	<path d="M45.2,371.2c0-4,0-8,0-12c0.4-1.1,0.8-2.1,1.1-3.2c3.9-15.1,12.9-25.8,27.8-30.9c4.2-1.4,6.1-3.2,5.3-7.6
		c-0.2-1.3-0.1-2.6-0.2-3.8c-0.3-0.2-0.4-0.4-0.6-0.4c-1.4-0.5-2.8-1-4.2-1.5c-12.7-4.5-21.5-13-26.3-25.6c-1.1-2.9-1.9-6-2.8-9
		c0-4,0-8,0-12c0.4-1.1,0.8-2.1,1.1-3.2c3.7-14.5,12.2-25.3,26.3-30.2c6.2-2.1,7.5-5.2,6.7-10.6c-0.1-0.6-0.2-1.2-0.3-1.8
		c-16.8-6.1-25.4-13.4-30.5-25.9c-1.3-3.3-2.2-6.9-3.3-10.3c0-4,0-8,0-12c0.2-0.2,0.6-0.5,0.6-0.7c3.6-17.5,14-28.9,31.1-34.3
		c1-0.3,2.2-1.6,2.3-2.5c1.4-13,9-20.6,21-24.4c21.3,0,42.7,0,64,0c0.1,2,0.4,4,0.4,5.9c0,158.2,0,316.4,0,474.6
		c0,10.5-0.3,20.9-0.4,31.4c-21.3,0-42.7,0-64,0c-12-3.8-19.6-11.4-21-24.4c-0.1-1.1-2.2-2.5-3.7-3c-13.1-4.4-22.3-12.9-27.4-25.7
		c-1.1-2.9-2-5.9-2.9-8.9c0-4,0-8,0-12c0.4-1.3,0.8-2.5,1.1-3.8c3.6-13.9,11.9-23.9,25-29.7c2.5-1.1,5.2-1.9,8-2.9
		c0-1.2-0.1-2.2,0-3.1c0.8-4.8-0.8-7.1-5.8-8.7c-11.8-3.8-20-12.1-24.9-23.5c-1.4-3.3-2.3-6.8-3.4-10.3c0-4,0-8,0-12
		c2.3-9.1,5.3-18.2,12.8-24.3c6.2-5,13.4-8.8,20.2-13.2c0.3,0.4,0.6,0.7,0.9,1.1c0-3.1,0-6.3,0-9.6c-1.8-0.6-3.5-1.2-5.2-1.8
		c-13.1-4.7-21.8-13.7-26.5-26.7C46.6,376.3,46,373.7,45.2,371.2z M79.2,341.7c-10.4,3.5-17.2,13.6-16.8,24.4
		c0.4,10.5,7.7,20.2,16.8,22.3C79.2,372.9,79.2,357.5,79.2,341.7z M79.4,248c-9.6,2.5-16.7,12.1-17,22.5
		c-0.3,10.9,6.5,20.9,16.7,24.1c0.1-1.3,0.3-2.6,0.3-3.9C79.4,276.6,79.4,262.3,79.4,248z M79.2,435.9c-9.3,2-16.8,12.3-16.8,23.1
		c0,10.8,7.5,21.3,16.8,23.2C79.2,466.7,79.2,451.3,79.2,435.9z M79,576.1c0-15.5,0-31,0-46.5c-10.1,3.1-16.9,13-16.7,24
		C62.6,563.9,69.7,573.7,79,576.1z M79.3,201c0-8.2,0-16,0-23.8c0-7.7,0-15.3,0-23.3c-10.3,3.6-16.8,12.9-17,23.2
		C62.2,187.7,68.7,197.2,79.3,201z"/>
	<path d="M281,264c-1.3-5.6-2.7-11.3-3.7-17c-1.1-6.2-4.5-9.5-9.8-8.9c-5,0.5-7.9,4.4-7.1,10.6c2.4,20.9,11.4,39,25.4,54.3
		c12.1,13.3,25.3,25.6,38.1,38.2c8.2,8.1,16,16.6,24.9,23.8c15.9,12.9,34.5,20.6,54.8,23.8c1.2,0.2,2.3,0.3,3.5,0.4
		c5.6,0.3,9.5-2.7,9.9-7.6c0.5-4.9-2.9-8.4-8.3-9.4c-7.3-1.3-14.5-3-21.8-5.1c10.4-6.3,17.2-15.7,24.4-24.6c2.7-3.4,6.1-3.3,9-1.8
		c19,10.3,36.9,22.1,49.5,40.2c3.5,5,2.9,11.4-1.3,15.7c-7.3,7.5-14.6,15.1-22.6,21.9c-19,16-40.6,18.8-63.7,10.3
		c-17.5-6.5-32.7-16.8-45.8-29.7c-30-29.4-59.6-59.2-88.8-89.4c-12.2-12.6-21.6-27.5-27.4-44.3c-7.9-23-4.3-44.1,11.5-62.6
		c6.4-7.6,13.7-14.6,20.8-21.6c4.7-4.6,10.7-5.4,16-1.6c5.2,3.6,10.4,7.6,14.2,12.4c8.4,10.5,16.3,21.4,23.9,32.6
		c5,7.4,4.1,10-2.7,15.9c-8,7-16.9,13.1-21.3,23.4C281.9,263.9,281.4,263.9,281,264z"/>
</g>
</svg>
