<?xml version="1.0" encoding="utf-8"?>
<!-- Generator: Adobe Illustrator 19.0.0, SVG Export Plug-In . SVG Version: 6.00 Build 0)  -->
<svg version="1.1" id="Calque_1" xmlns="http://www.w3.org/2000/svg" xmlns:xlink="http://www.w3.org/1999/xlink" x="0px" y="0px"
	 viewBox="0 0 612 792" style="enable-background:new 0 0 612 792;" xml:space="preserve">
<style type="text/css">
	.st0{fill:#3476DE;}
</style>
<path class="st0" d="M565.8,415.7c-4.5-15.1-14.8-24.6-30.4-27.7c-2.9-0.6-4.1-2.3-5.2-4.7c-5.9-13.8-15.2-24.9-27.8-33.2
	c-15-10-31.8-15.9-49.4-17.5c-14.2-1.3-24.6-6.3-33.1-17.9c-8.6-11.8-19.7-21.5-31.1-31.6c4.9-2,9.5-3.6,13.2-6.8
	c8.5-7.2,8.1-17.6-1-24c-3.9-2.7-8.2-4.4-12.8-5.2c-14.3-2.5-28.6-1.2-42.9-0.4c-3.5,0.2-6.3-0.3-9.3-2.2
	c-16.3-10.1-33-19.3-51.1-26c-9.5-3.5-19.2-6.6-29.6-6.4c-10.5,0.2-17.9,7.3-18.5,17.7c-0.3,5.2,0.2,10.3,1.6,15.3
	c2.7,10,6.7,19.5,11.1,28.8c9.6,20.7,19.2,41.3,29,61.9c1.9,3.9,1.7,5.4-3.1,6.4c-31.6,6.5-62.7,14.9-92.6,27.5
	c-4.7,2-9.9,6.4-14,5.6c-4.4-0.8-7.9-6.6-11.9-10c-11.6-9.9-23.9-18.7-39.3-21.8c-13-2.5-22.3,3.8-24.7,16.8
	c-1,5.5-0.8,10.9-0.2,16.4c1.6,13.5,5.6,26.3,10.5,38.9c10.8,27.5,28.5,48.3,56,60.6c26.2,11.7,53.5,18.9,81.6,23.9
	c13.1,2.3,26.3,4.3,39.6,5.2c3.4,0.2,4.4,1.4,2.5,4.6c-2.1,3.6-3.8,7.4-5.7,11.1c-12.2,24.4-26.4,47.7-37.7,72.6
	c-4.1,9.1-8.1,18.3-8.6,28.5c-0.5,12.7,7.3,19.5,19.9,17.6c7.8-1.2,15.2-3.7,22.3-6.9c21.4-9.5,40.9-22.2,60.4-35
	c1.8-1.2,3.3-2.6,5.8-2.3c15.4,2,30.6,0,45.8-1.8c6.9-0.8,13.4-2.7,18.7-7.5c5-4.5,8.2-9.9,6.8-16.8c-1.3-6.6-6.2-10.4-12.4-12.5
	c-1.2-0.4-2.5-0.8-4.2-1.4c6.3-4.6,12.5-8.9,18.4-13.4c15.5-11.8,30.8-24,41.3-40.9c1.2-1.8,2.7-2.1,4.5-2.4
	c18.6-3.6,37.1-7.9,54.8-14.7c15.6-6,30.6-13.2,42.5-25.5C567.5,446.3,570.6,431.8,565.8,415.7z M231.1,423.7
	c-2.9,4.1-6.9,6.3-12,5.8c-5-0.5-8.9-3.3-10.6-8c-3.3-9.2-3-18.3,1.5-27.1c2.3-4.5,6.4-6.7,11.5-6.5c5.2,0.2,8.7,2.8,10.9,7.5
	c2,4.3,2.5,8.9,2.6,14.3C235.3,414.4,234.2,419.4,231.1,423.7z M288.5,423.3c-6.9,7.2-18.1,6.3-23-2.3c-5.8-10.3-6.2-21.3-1.6-32.2
	c2.2-5.1,6.6-7.6,12.3-7.9c5.9-0.3,10.3,2.1,13.2,7.2c3.4,5.9,4.5,12.4,4.6,16.2C294.1,413.3,292.8,418.8,288.5,423.3z M355.1,419.5
	c-4,7.4-11.5,12-18.5,11.2c-8.8-1-14.3-6-16.5-14.4c-3.1-11.5-2.1-22.8,3.1-33.4c3.5-7.3,9.8-10.6,17.9-10
	c7.6,0.6,12.5,4.7,15.2,11.7c2.1,5.5,2.8,11.2,2.8,18.2C359.2,407.9,358,413.9,355.1,419.5z M494.4,418.1
	c-11.2,7.8-23.8,11.8-37,13.8c-4.9,0.8-9.9,1.2-14.9,1c-10.5-0.7-21-0.7-31.3-3.1c-11.8-2.8-21.2-8.2-23.3-21.4
	c-2.2-14,0.7-26.3,12.8-35c9-6.5,19.7-8.7,30.5-10.1c15.2-2,30.2-2.7,44.4,4.6c12.9,6.6,22.3,16.1,25.9,30.6
	C503.6,406.8,501.5,413.2,494.4,418.1z"/>
</svg>
