<?xml version="1.0" encoding="utf-8"?>
<!-- Generator: Adobe Illustrator 19.0.0, SVG Export Plug-In . SVG Version: 6.00 Build 0)  -->
<svg version="1.1" id="Calque_1" xmlns="http://www.w3.org/2000/svg" xmlns:xlink="http://www.w3.org/1999/xlink" x="0px" y="0px"
	 viewBox="0 0 612 792" style="enable-background:new 0 0 612 792;" xml:space="preserve">
<style type="text/css">
	.st0{fill:#0A93E1;}
	.st1{fill:#0B93E1;}
	.st2{fill:#0C93E1;}
	.st3{fill:#0B93E2;}
	.st4{fill:#0B94E1;}
</style>
<g>
	<path class="st0" d="M550.9,234.9c-9.9-10.5-21.9-15.3-36.1-15.3c-31.7,0-63.3,0-95,0c-2,0-4,0.1-6-0.2c-3.1-0.4-4.8-2-5.2-5.1
		c-0.2-1.8-0.2-3.7-0.2-5.5c-0.2-15.5,0.6-30.9,0-46.4c-0.1-3.7-0.4-7.3-2-10.7c-5.3-11.5-14.4-17-27-17.1c-50.3,0-100.7,0-151,0
		c-1.2,0-2.3,0-3.5,0.1c-12.2,0.8-23.7,10.5-25,22.2c-1,8.9-1.1,17.9-0.7,26.9c0.4,9.8,0.3,19.7,0.2,29.5c0,4-2.3,6-6.3,6.2
		c-1.8,0.1-3.7,0.1-5.5,0.1c-31.3,0-62.7,0-94,0c-25.2,0-41.1,13.2-45.6,37.4c0,107.7,0,215.3,0,323c0.7,0.9,0.5,1.9,0.5,2.9
		c0.5,11,6.3,18.9,14.7,25.4c8.6,6.6,18.2,9.2,28.9,9.2c139.3-0.1,278.5,0,417.8,0c3.3,0,6.7,0.1,10-0.1
		c13.2-0.7,23.8-6.5,32.5-16.3c5.5-6.2,6.3-13.6,7.6-21.1c0-107.7,0-215.3,0-323C558.9,248.9,556.9,241.3,550.9,234.9z M505.5,239.8
		c2.3,0.2,4.6,0,7,0c15.8-0.1,25.3,5.6,29,17.4c1.7,5.3,1.5,10.8,1.4,16.3c0,8.7,0,8.8-8.4,5.7c-16.7-6.2-27.5-17.9-32.6-35
		C500.9,240.6,501.7,239.4,505.5,239.8z M223.7,154.9c1.6-0.7,3.2-0.9,4.9-0.9c50.3,0,100.6,0,150.9,0c7.8,0,13.3,9.5,9.4,15.9
		c-1.2,2-3.3,1.1-5,1.1c-26.6,0.1-53.3,0-79.9,0c-25.8,0-51.6,0.1-77.4-0.1c-2.5,0-6.4,2.2-7.6-2.1
		C217.2,162.6,219.3,157,223.7,154.9z M218.7,192.3c-0.1-3.4,1.2-4.2,4.3-4.2c54.1,0.1,108.3,0.1,162.4,0c3.2,0,3.9,1.2,3.8,4.1
		c-0.1,8.5-0.3,17,0,25.5c0.1,3.9-1.3,4.7-4.8,4.7c-27-0.1-54-0.1-81-0.1c0,0,0,0,0,0c-26.8,0-53.6,0-80.5,0.1
		c-3.1,0-4.5-0.6-4.4-4.1C218.9,209.6,218.9,201,218.7,192.3z M65,276.8c0.2-3.8-0.1-7.7,0.1-11.5c0.8-15.4,10.9-25.2,26.3-25.5
		c1.3,0,2.7,0,4,0c0,0,0,0,0,0c1.2,0,2.3,0,3.5,0c8.9,0,9.1,0.1,5.8,8.6c-6.4,16.5-18.1,27.1-35.1,32
		C65.8,281.5,64.8,280.4,65,276.8z M102.7,597.9c-3.8-0.3-7.6,0-11.5-0.1c-15.6-0.6-25.9-11.2-26.2-26.8c0-1.7,0-3.3,0-5
		c0.1-11.3,0.1-11.5,10.8-6.9c15.5,6.6,25.5,18,30.2,34.3C107,596.6,106.7,598.2,102.7,597.9z M478.5,598
		c-58.2-0.1-116.3-0.1-174.5-0.1c0,0,0,0,0,0c-58.3,0-116.7,0-175,0.1c-3.9,0-4.8-1.3-5.6-4.8c-6.8-29.6-25.3-47.5-54.9-54
		c-3.1-0.7-3.6-1.8-3.6-4.5c0.1-77.3,0.1-154.7,0-232c0-2.7,0.4-4.1,3.5-4.7c29.7-6.3,48-24.4,54.9-53.9c0.8-3.6,1.9-4.8,5.7-4.7
		c26.8,0.3,53.6,0.4,80.5,0.4c60.3,0,120.6-0.2,181-0.3c29.5,0,59,0,88.5-0.1c3.3,0,4.7,0.7,5.5,4.3c6.8,29.7,25.1,48,55.1,54.3
		c3.1,0.7,3.5,2.1,3.5,4.8c-0.1,60,0,120,0,180c0,17.2-0.1,34.3,0.1,51.5c0,3.1-0.6,4.4-4.1,5.1c-29.3,6.5-47.7,24.5-54.4,53.9
		C483.7,597.2,482.2,598,478.5,598z M542.9,567.2c0.4,7.4-0.7,15.4-6.7,22.1c-5.2,5.8-11.9,8.2-19.5,8.5c-3.3,0.1-6.6,0-10,0
		c-6.1,0-6.2,0-4.5-5.6c5.7-18,17.6-29.6,35.6-35.3c4.2-1.3,5.8-0.3,5.2,4.1C542.7,562.7,542.9,564.4,542.9,567.2z"/>
	<path class="st0" d="M339.2,463.8c-19.2,24.1-38.3,48.2-57.5,72.3c-5.8,7.3-13.2,12-22.5,13.6c-0.9-1.6,0.1-3,0.5-4.3
		c6.1-17.6,12.1-35.2,18.2-52.8c2.4-7,1.8-9.2-4-13.7c-4.8-0.6-9.2,0.1-11.1,5.3c-7.3,20.8-14.7,41.7-21.6,62.7
		c-3.8,11.5,5.8,22.2,17.8,20.3c14.5-2.3,26.7-8.8,36-20.4c19.1-24.1,38.3-48.2,57.5-72.3c4.1-5.2,4.2-7.8,0.4-13.4
		C346.7,457.7,343.6,458.3,339.2,463.8z"/>
	<path class="st0" d="M502.6,338.1c-14.3-4.1-28.8-3.4-43.1-0.5c-26.9,5.3-53.3,13.2-79.8,20.2c-5.3,1.4-9.1,0.9-13.6-2.5
		c-33.8-25.4-67.9-50.5-101.8-75.8c-15.9-11.9-32.9-12.1-50.6-5.2c-4.9,1.9-7.9,5.9-9.1,11.1c-1.4,5.7,1.1,10.4,3.8,15
		c16.2,27.9,32.4,55.9,48.5,83.8c1,1.7,2.3,3.2,2.5,5.5c-29,8.1-58,16-87,24.2c-7.9,2.2-15,1.3-21.9-3.2
		c-10.6-6.9-21.4-13.6-32-20.3c-3.1-2-6.2-3.9-9.8-4.9c-8.7-2.4-19.5,0.8-23.9,7.3c-4.5,6.6-3.7,12.9,2.8,21.9
		c11.6,15.9,23.1,31.8,34.7,47.7c8.5,11.6,19.7,19.7,33.3,24.4c16.2,5.7,32,3.3,48-1.2c24.7-6.9,49.5-13.1,74.2-19.6
		c3.1,1.9,6.2,0.7,9.2-0.1c16.5-4.4,33.1-8.6,49.6-13.3c10.6-3,21.9-4.2,31.3-10.7c1.1-0.4,2.2-0.8,3.3-1.1
		c33.7-9.3,67.4-18.3,101-27.9c16.3-4.7,31.5-11.9,43.5-24.4c5.7-5.9,9.7-12.7,10.2-21.1C526.7,353.3,518.3,342.6,502.6,338.1z
		 M503.5,377.3c-7.4,8.1-16.9,12.9-26.9,16.7c-23.6,8.8-48.1,14.3-72.3,20.9c-70.6,19.1-141.3,37.8-212,56.7
		c-22.6,6-43.1-1.1-56.8-19.9c-11.9-16.3-23.5-32.7-35.5-49.2c3.3-1.9,5.4-0.2,7.5,1.1c11.4,7.2,22.9,14.3,34.2,21.6
		c11,7.1,22.7,8.8,35.3,5.2c31.5-8.9,63.1-17.6,94.6-26.4c10.2-2.8,12-7.6,6.6-16.9c-18.1-31-36.1-62.1-54.3-93.1
		c-2-3.3-1.8-4.5,2.1-5.6c10.3-2.9,19.6-1.3,28.3,5.2c36,26.9,72.2,53.6,108.1,80.6c4.1,3.1,8,3.7,13,2.5
		c28.8-7.3,57.4-15.8,86.6-21.8c11-2.3,22.1-3,33.2-0.6c0.5,0.1,1,0.1,1.5,0.3C510.2,357.7,513,366.9,503.5,377.3z"/>
	<path class="st1" d="M295.5,417.1c-0.1,5-4.4,8.9-9.6,8.7c-5.1-0.2-9.4-6.6-9.1-13.5c0.2-4.8,3.9-8.4,8.7-8.4
		C291.3,404,295.6,409.7,295.5,417.1z"/>
	<path class="st2" d="M399.6,389.1c0.1,4.6-3.8,8.6-8.4,8.8c-5.6,0.2-10.3-5.7-10.2-13c0-4.8,3.7-8.6,8.4-8.8
		C394.9,375.8,399.5,381.6,399.6,389.1z"/>
	<path class="st1" d="M330.6,407.6c0.1,4.9-3.7,8.6-8.8,8.8c-6,0.2-9.2-4-9.6-12.4c-0.2-4.9,3.6-9,8.5-9
		C327.6,395,329.4,400.7,330.6,407.6z"/>
	<path class="st3" d="M217.9,444.2c-7.8,0.1-9.6-5.7-10.5-13.1c-0.6-4.6,3.8-8.4,8.5-8.4c6.8,0.1,8.8,5.3,9.9,13.2
		C226.5,440.6,222.6,444.2,217.9,444.2z"/>
	<path class="st4" d="M364.8,398.4c0.1,4.7-3.7,8.5-8.4,8.6c-5.9,0.1-10.2-5.3-10.1-12.9c0-4.7,3.9-8.5,8.6-8.4
		C361.6,385.8,363.4,390.9,364.8,398.4z"/>
	<path class="st1" d="M424,366.9c5.7,0,9.9,5.4,10,12.7c0.1,4.8-3.5,8.5-8.4,8.7c-5.6,0.2-9.7-5.1-9.9-12.7
		C415.6,370.6,419.1,366.9,424,366.9z"/>
	<path class="st1" d="M260.4,426.4c0.1,4.8-3.5,8.5-8.3,8.7c-6.6,0.2-9.3-5.7-10-13c-0.4-4.7,3.7-8.4,8.5-8.4
		C256.8,413.6,259.3,418.8,260.4,426.4z"/>
</g>
</svg>
