<?xml version="1.0" encoding="utf-8"?>
<!-- Generator: Adobe Illustrator 19.0.0, SVG Export Plug-In . SVG Version: 6.00 Build 0)  -->
<svg version="1.1" id="Calque_1" xmlns="http://www.w3.org/2000/svg" xmlns:xlink="http://www.w3.org/1999/xlink" x="0px" y="0px"
	 viewBox="0 0 612 792" style="enable-background:new 0 0 612 792;" xml:space="preserve">
<g>
	<path d="M388.2,461.6c-25.6-1.1-46-13.3-59.9-36.1c-17.7-29.1-13.8-67.4,9-92.8c28.7-31.9,77.9-31.6,106.1,0.8
		c36.4,41.7,18.8,108.8-32.8,124.9C403.7,460.5,396.6,461.4,388.2,461.6z"/>
	<path d="M74.9,390.1c6.8-4.9,13.3-5.6,20.7-3c12.2,4.4,24.6,8.1,36.8,12.3c2.8,1,4.1,0.5,5.5-2c9.3-15.9,21-29.9,33.8-43.1
		c30.1-31,60-62.1,89.9-93.2c16.8-17.5,36.4-30.4,59-39.2c3.8-1.5,7.3-1.6,10.2,1.4c2.8,2.9,3.8,6.4,2.4,10.6
		c-6.8,20.8-17.8,39-32.9,54.6C266.6,323.4,232.8,358.2,199,393c-10.4,10.7-21.8,20.1-34.1,28.4c-2.5,1.7-3.1,3-1.9,6
		c5.4,13.7,10.5,27.6,15.8,41.4c2.6,6.7,1.3,12.6-3,18.6c-11.8-15-23.6-29.7-34.9-44.6c-3.2-4.2-5.8-5.6-10.4-2.4
		c-2.8,2-6.1,2.1-8.8-0.4c-2.8-2.6-2.1-5.9-0.4-8.7c2.6-4.1,1.5-6.4-2.4-9.1C104.3,411.7,89.9,401,74.9,390.1z"/>
	<path d="M212.4,274.6c5.5,1.8,10.3,3.4,15.8,5.3c-5.3,5.4-10.1,10.4-15,15.3c-7.7,7.9-15.4,15.7-23,23.6c-1.9,2-3,2.1-5.2,0.3
		c-28.4-22.9-56.8-45.7-85.3-68.4c-2.3-1.8-2.5-3-0.2-4.7c1.2-0.9,2.3-2,3.2-3.2c2-2.8,4.2-2.9,7.3-1.8c9.1,3.2,18.3,5.9,27.4,9.1
		c2.4,0.8,3.9,0.5,5.6-1.4c3-3.4,6.3-6.4,9.3-9.8c2-2.3,3.8-2.2,6.1-0.8c1,0.6,2,1.3,2.9,2c7.7,6.2,7.9,8.9,1.2,15.8
		c-0.5,0.5-0.9,1-1.6,1.8c9.9,3.2,19.5,6.2,29,9.5c1.9,0.7,2.8-0.1,3.8-1.2c3-3.1,6-6.2,9-9.3c0.7-0.7,1.3-1.8,2.1-2.1
		c5.2-1.6,7.9,2.3,10.6,5.3c2.1,2.3,5.8,4.9,2.2,8.8C216.1,270.7,214.5,272.3,212.4,274.6z"/>
	<path d="M280.4,326.9c2.4,6.4,4.5,12.1,6.7,18.2c1.5-1.6,2.7-2.8,3.8-4c4.3-4.6,5.4-4.8,10.2-0.9c1.7,1.3,3.1,3,4.6,4.6
		c2.8,3.2,3.5,6.4-0.6,9.2c-9.7,6.7-11.1,14.9-5.4,25.1c4.6,8.2,2.9,17.9,5,26.8c3.1,13,8.5,24.8,16.4,35.4
		c5.3,7.1,4.2,12.9-3.4,17.1c-2.4,1.3-2.8-1.1-3.7-2.1c-13.8-15.8-27.5-31.6-41.3-47.5c-10.5-12.1-21-24.1-31.4-36.2
		c-1-1.2-3.2-2.1-1-4.4C253.6,354.7,266.7,341.1,280.4,326.9z"/>
	<path d="M535.1,560.7c-2.4-18.5-10.9-34-23.7-47.3c-15.6-16.3-34.8-27-55.4-35.5c-2.9-1.2-3.4,0.5-4.4,2.2c-6.5,11-13.1,22-19.6,33
		c-8.8,14.8-17.6,29.6-26.9,45.2c-0.4-2.3-0.7-3.7-0.9-5.1c-1.1-13.1-1.8-26.3-3.4-39.3c-1-8.1,0.4-15.4,4-22.5
		c1.9-3.7,3.2-7.7,5.1-11.4c1.4-2.7,1.1-3.7-2.3-3.7c-13,0.1-26,0.1-39.8,0.1c2.1,5.1,3.7,9.6,5.8,13.9c3.9,7.8,5.2,15.7,4.3,24.5
		c-1.6,14.1-2.3,28.3-3.3,42.9c-2.2-1.5-2.8-3.4-3.7-5.1c-14.1-23.9-28.1-47.9-42.2-71.8c-1.2-2-1.8-4.3-5.5-2.7
		c-18,7.7-35.1,16.9-49.6,30.2c-15.4,14.2-25.8,31.1-28.9,52.1c-1.3,9,1.8,15.4,9.3,20.3c16.5,10.6,34.5,17.7,53.5,22.4
		c49.4,12.1,99.2,12.5,149.2,3.6c24.5-4.4,47.9-12.2,69-26C533.3,575.8,536.2,569.2,535.1,560.7z M479.7,564.9c-0.2,1.6-0.1,3.3,0,5
		c0.1,2.1-0.7,2.9-2.9,2.9c-12.3-0.1-24.6-0.1-36.9,0c-2.2,0-2.7-0.8-2.9-2.9c-0.6-8.6-0.6-8.6,8.1-8.6c4.5,0,9,0,13.5,0
		c5.8,0,11.6,0.1,17.5-0.1C478.8,561.1,480,562,479.7,564.9z"/>
</g>
</svg>
