<?xml version="1.0" encoding="utf-8"?>
<!-- Generator: Adobe Illustrator 19.0.0, SVG Export Plug-In . SVG Version: 6.00 Build 0)  -->
<svg version="1.1" id="Calque_1" xmlns="http://www.w3.org/2000/svg" xmlns:xlink="http://www.w3.org/1999/xlink" x="0px" y="0px"
	 viewBox="0 0 612 792" style="enable-background:new 0 0 612 792;" xml:space="preserve">
<style type="text/css">
	.st0{fill:#545B85;}
	.st1{fill:#4D4D78;}
	.st2{fill:#17B5E8;}
	.st3{fill:#ABC337;}
	.st4{fill:#49C6ED;}
	.st5{fill:#D5DF49;}
	.st6{fill:#D5DF4A;}
	.st7{fill:#0794CC;}
	.st8{fill:#E4E6E9;}
	.st9{fill:#BDD330;}
	.st10{fill:#CED3DD;}
	.st11{fill:#BAD43B;}
	.st12{fill:#4ABBAD;}
	.st13{fill:#42B9B5;}
	.st14{fill:#2FB8CD;}
	.st15{fill:#CDD3DD;}
	.st16{fill:#BBD234;}
	.st17{fill:#ABC57C;}
	.st18{fill:#18B5E8;}
	.st19{fill:#4AC5EC;}
</style>
<g>
	<path class="st0" d="M47,409c0-13.3,0-26.7,0-40c1.1-7.6,1.2-15.4,1.8-23.1c0.8-11.4,3.9-22.2,7.2-33.1
		c10.6-34.9,28-66.1,52.1-93.5c20.6-23.4,44.4-42.9,72-57.7c21.9-11.7,44.8-20.3,69.1-25.4c9.9-2.1,20-2,30-2.7
		c1.6-0.1,3.3,0.5,4.9-0.5c12.7,0,25.3,0,38,0c7.7,0.9,15.4,1,23.1,1.6c11.9,0.9,23.2,4.1,34.5,7.5c34.7,10.7,65.7,28.1,93,51.9
		c23.4,20.4,42.7,44.2,57.5,71.6c11.9,22,20.6,45.1,25.7,69.5c2.1,9.9,2,20,2.7,30c0.1,1.6-0.5,3.3,0.5,4.9c0,6.7,0,13.3,0,20
		c-2,1.2-3.5,0.1-4.9-1.2c-2.1-1.9-4.1-3.9-6.1-5.9c-26.7-26.7-53.4-53.4-80.1-80.2c-5.2-5.2-10.4-10.3-15-16
		c-2-2.5-4.1-5.4-7.8-5.8c-6.7-5.7-12.3-12.4-18.3-18.8c-6.2-7-13.7-12.6-21.2-17.9c-17.8-12.6-37.3-21.8-58.5-27
		c-7.1-1.7-13.8-4.6-21.2-4.9c-2.7-0.1-5.2,1.3-7.9,0.4c-9.9-1.7-19.8-1.9-29.8-0.2c-37.4,1.7-69.5,16.5-98.2,39.6
		c-3.7,3-8.6,4.7-10.5,9.6c-10.7,9.6-20.2,20.7-27.4,32.8c-11.4,19.1-19.8,39.9-23.7,62.2c-1.9,10.6-4.2,21.1-3.9,32
		c0.1,4.3,1.2,8.6,1.1,12.9c1.7,19.9,6.1,39,14,57.4c6.4,14.8,14.5,28.4,24.6,40.9c1.9,2.4,2.5,5.9,5.8,7.3
		c5.8,8.2,14.4,13.5,21.1,20.9c0.6,0.6,1.5,0.7,2.2,1c1.8,1.6,4,2.8,5.2,5.1c0.2,3.3,2.3,5.5,4.7,7.3c3.9,2.9,7.3,6.3,10.7,9.7
		c28.9,29,58,57.8,86.8,86.9c1.8,1.8,5,3.3,3.3,7c-6.7,0-13.3,0-20,0c-7.7-0.9-15.4-1-23.1-1.6c-11.5-0.8-22.6-3.9-33.6-7.2
		c-35-10.7-66.5-28.1-93.9-52.2c-23.4-20.5-42.9-44.4-57.7-72c-11.8-21.9-20.3-44.8-25.5-69c-2.1-9.9-2-20-2.7-30.1
		C47.4,411.6,47.9,410.2,47,409z"/>
	<path class="st1" d="M304,645c-1.4-1.6-2.8-3.3-4.3-4.8c-33.2-33.2-66.4-66.4-99.6-99.7c-1.4-1.5-4.4-2.4-3.1-5.5
		c2.3-1.4,4.1,0,5.9,1.2c18.6,12.6,39,20.9,60.7,26.1c5.1,1.2,10.2,2.9,15.5,3.6c3.1,0.4,5.9-1,8.9-0.2c10,1.7,19.9,1.4,29.9-0.2
		c28.6-0.4,53.9-11.2,78-25.3c21.5-12.6,39.3-29.6,53.2-50.3c16.1-23.8,26.5-49.8,29.8-78.5c2.1-6.4,2.6-12.8,2.1-19.5
		c-1.1-16.3-2.4-32.4-6.5-48.3c-5.3-20.5-14.4-39.2-26.4-56.6c-1.6-2.3-4.6-4.3-2.5-7.8c2.8,0.2,4.3,2.4,6,4.1
		c34.2,34.1,68.3,68.3,102.4,102.4c1.5,1.5,3.2,2.9,4.8,4.3c0,5.7,0,11.3,0,17c-0.9,8.3-0.9,16.7-1.6,25.1
		c-1.2,14.7-5.5,28.8-10.3,42.6c-7.6,22-18.3,42.5-31.6,61.6c-14.2,20.4-30.8,38.4-50.1,53.9c-23.9,19.3-50.4,34-79.6,44
		c-19.9,6.8-40.4,10.6-61.5,10.4c-1.1,0-2.3-0.4-3.4,0.5C315.3,645,309.7,645,304,645z"/>
	<path class="st2" d="M287,210c10.7-1.6,21.4-1.3,32.1,0.1c23.2,2.8,40.3,15.8,54.9,32.8c5.1,5.9,9.9,12.1,14,18.8
		c1,1.7,2.4,3.2,2.3,5.4c-0.1,0.8-0.4,1.5-1,2c-2.1,1.1-3.4-0.3-4.9-1.4c-5.1-3.6-10.6-6.3-16.2-8.8c-11.7-5.2-22.1-0.7-32.3,4.5
		c-7.2,3.6-13.6,8.2-18,15.2c-2.4,0.9-4-0.3-5.7-1.8c-9.1-7.9-9.2-7.9-18.3-0.1c-0.6,0.5-1.2,1.1-2,1.4c-7.3,1-8.1,2.5-6.6,11.3
		c-3.8,12-6.5,24.2-7.4,36.9c-0.5,6.5-0.3,12.9-0.5,19.3c-0.1,2.3,0,4.6-0.5,6.9c-1.6,2.6-3.9,4.5-6.5,5.8
		c-10.8,5.3-21.3,11.3-32.1,16.6c-2.5,1.2-5.1,2.7-7.9,0.7c-2-1.7-1.5-5.5-4.7-6c-4.6-0.7-9.3-1-13.8,0.1c-3.2,0.7-3.6,3.7-3.2,6.5
		c0.7,3.6,0.6,7.2,0.7,10.9c-0.3,2.1-1.9,3-3.4,3.9c-4.5,2.4-9,4.6-13.4,7.2c-2.1,1.2-4.3,1.8-6.4-0.1c-1.3-1.5-1.3-3.4-1.3-5.2
		c-0.9-41.3,6.5-80.7,25.4-117.7c1.3-2.6,2.4-5.7,6.1-5.8c13.8,3.4,26-1.8,37.7-7.9c10.7-5.6,21.1-11.9,31.2-19.7
		c-10.5,3.2-20.6-0.3-30.7,0.4c-4.1,0.3-8.3-0.2-12.4,0.6c-1.8,0.3-3.7,0.3-5.1-1.3c-1.6-2.9,0.5-4.7,2.2-6.4
		C252.2,221.6,267.7,212.2,287,210z"/>
	<path class="st3" d="M389.1,269c-0.3-0.9-0.7-1.8-1-2.7c1.6-1.2,3.4-1.3,5.2-0.6c8.8,3.4,16.8,0.8,24.6-3.3c3.5-1.8,7-4.1,11.1-1.6
		c5.6,6.1,11.2,12.3,16.8,18.4c6.2,9.3,12.5,18.6,17.8,28.6c10.3,19.7,16.2,40.6,18.5,62.6c1.5,13.9,1.6,27.8-0.6,41.7
		c-3.4-0.5-3.5-3.1-3.6-5.6c-0.2-4.3,0.1-8.7-1.1-12.9c-0.3-1-0.3-2-0.8-2.9c-1.1-2.3-1.6-5.7-5-5.3c-3,0.3-3.4,3.4-4,5.7
		c-2.1,7.7-0.4,15.2,2.2,22.4c0.9,2.5,2.1,4.9,2.9,7.4c1.2,3.8-0.6,6.5-4.6,7.1c-7,1-13.8-5.5-14.5-13.9c-0.5-5.2,0.9-10.3,1.8-15.3
		c1.3-7.1-0.1-13.2-5.8-18c-1.4-1.2-3-2.1-4.8-2.6c-3.8-1.1-5.2-0.1-5.7,3.8c-1.2,11-6.6,16.4-18.3,18.2c-1.2-0.4-2-1.2-2.4-2.4
		c-0.6-8.3,0.3-16.7-0.9-24.9c0.1-7.8-1.2-15.4-2.5-23c-2.9-17.3-6.9-34.3-13-50.8c-1.2-3.3-2.5-6.5-4.2-9.5
		c-1.4-7.2-6.5-12.8-8.1-19.9C389,269.5,389.1,269.2,389.1,269z"/>
	<path class="st4" d="M216.8,270.8c-5.3,3.6-6.6,9.8-9,15.1c-11.5,25.5-17.7,52.3-20,80.2c-0.9,10.6-0.4,21.2-0.8,31.8
		c1,2-0.5,3-1.8,4c-3.4,2.8-5.3,12.1-3.4,15.8c0.8,1.6,2.3,1.8,3.8,1.8c1.7,0,3.4-0.1,4.5,1.5c2.2,8,4.5,16.1,3.8,24.6
		c-2.1,2.6-4.4,1.9-6.5,0.2c-3.2-2.5-5.9-5.4-6.9-9.5c-1.8-6.8-5.8-11.8-12.2-15c-6.3-3.1-12-7.1-18.1-10.5c-5.7-3.2-7.9-2.2-9,4.1
		c-1.3,7.2-1.3,14.6-2.4,21.8c-0.3,2.1,0.3,3.5,2.7,1.9c2-1.3,4-1,6.2-0.1c4.4,2,5.1,4,2.6,8.1c-3.2,5.3-3.2,5.9,2.4,8.5
		c3.5,1.6,5.1,3.9,4.7,7.8c-0.9,9.7,1.8,18,9,24.9c5.3,5,5.5,11.5,4.7,18.1c-0.2,1.4-0.7,2.6-2.2,3c-12.3-12.8-21.6-27.7-29.1-43.6
		c-9.5-20-14.8-41.1-16.4-63.2c0.4-0.3,0.8-0.7,1.3-0.8c1.8-0.6,4.4,0.4,4.9-2.4c0.4-2.3-1.7-3-3.3-3.9c-1.7-0.9-2.1-2.5-2.2-4.2
		c-0.6-8.2,1.1-16.2,1.3-24.4c0.1-3.3,2.5-4.2,5.2-2.2c3.1,2.3,5.8,5,6.8,8.4c-2.2-3.8-1.6-8.5-2-13.1c-0.2-2.1,1.2-3.9,3.4-4.4
		c4.5-1.1,6.9-4.2,7.6-8.4c1.7-11.5,9.4-18.7,17.5-25.8c7.5-6.6,15.6-12.4,23.9-18c2.7-1.8,6.3-4,5.2-7.7c-1-3.2-5.1-2.1-7.9-2.8
		c-8.1-2.2-14.4-0.7-18.9,7.2c-1.5,2.7-4.4,4.5-7.4,5.8c-2.6,1-4.9,1-7-0.8c-2-1.7-2.1-4.1-1.5-6.4c1.3-5.1,4.9-8.6,8.6-12
		c4.4-4.1,8.8-8.1,12.6-12.8c3-3.8,4.7-3.6,7.7,0.3c4.4,5.8,9.9,7.3,15.1,4c3.6-2.2,5-5.8,3.7-9.9c-1-3.2-4.1-6.2-1.4-9.8
		c2.9-3.9,7.2-5.7,11.6-7.2c0.3-0.1,0.7-0.1,1-0.2c10-1.5,13.1,0.9,9.8,10.3c-0.7,2,0.3,3.9,0.4,5.9
		C219,268.5,218.8,270.3,216.8,270.8z"/>
	<path class="st5" d="M168.9,508.8c1-8.8-0.4-16.4-7.4-23c-6.2-5.9-7.6-14.3-6.5-22.7c0.5-3.4-0.2-5-3.7-6c-8.7-2.7-9-4.7-3-11.8
		c0.7-0.9,1.5-1.7,2.5-2.8c-1.3-0.5-2.5-0.7-3.3-1.4c-2.5-2-4.3-2-6,1.1c-0.9,1.7-2.8,3.5-4.9,2.6c-2.1-0.9-0.7-3.3-0.6-5
		c0.8-9.1,1.7-18.2,2.8-27.3c0.9-6.7,4.3-8.3,10-5.1c8.4,4.8,16.6,9.8,24.9,14.7c4.9,2.8,6.8,7.5,8.4,12.5
		c1.7,5.4,4.2,10.2,10.5,11.4c1.8-2.2,3.9-1.2,6-0.6c6.8,2.1,13.6,4.5,20.4,6.7c3.8,1.2,4.8,3.5,3.4,7.4c-1.7,4.7-3.8,9.2-5.3,14
		c-1.2,3.7-1,6.8,1.6,10.2c5.7,7.4,2.4,15.7-6.4,17.4c-2.8,0.3-5.4,1.4-8.2,1.9c-3.9,0.8-5.6,3.9-6.4,7.5c-1.1,4.7-1.7,9.5-2.6,14.2
		c-0.4,2.4-0.7,5-3.5,6.2C183.3,524.2,175.1,517.6,168.9,508.8z"/>
	<path class="st6" d="M217.1,266c-0.5-3.4,0-6.6,0.8-9.9c0.8-3-0.4-4.2-3.5-4.3c-4.7-0.2-8.9,1-12.6,3.8c-3.2,2.5-6,4.6-2.3,9.5
		c3.6,4.8,1.3,11.8-3.7,14.8c-6.1,3.7-14,2-18.1-4c-0.8-1.2-1.4-2.6-2.4-4.4c-4.7,7.9-11.3,13.6-18.4,18.9c-3.2,2.4-5.2,5.6-5.2,9.8
		c0.1,3.6,1.6,4.9,5.1,3.4c5.6-2.4,9.8-6.3,12.1-12c1.1-2.7,2.3-3.4,5.2-2.9c6.4,1,12.9,1.8,19.3,2.2c3.8,0.2,4.1,2,3.2,4.9
		c-1.4,4.3-4.5,7.4-8.3,9.7c-10.8,6.7-20.6,14.7-29.7,23.4c-5,4.8-8.3,10.2-9.7,17c-1.1,5.5-3,10.7-9.9,11.4
		c-2.3,0.2-1.6,2.2-1.5,3.6c0.3,5.7,1.4,11.2,3.3,16.6c0.4,1,2.5,2.7-0.2,3.6c-2,0.6-3-0.6-3.4-2.5c-1.4-6.1-4.9-10.7-11-14.5
		c-0.4,9.3-0.8,17.8-1.2,26.3c-0.1,2,1.5,2.3,2.8,2.9c4.8,2,6.7,5,4.7,8.2c-2.5,4-5.9,2.4-9.2,0.7c-1.9-29.2,2.7-57.4,14.3-84.3
		c9.5-22,22.8-41.3,40.2-57.8c15.8-8.9,33.2-13.2,50.3-18.4c1.9-0.6,3.9-0.9,5.7,0.5c1.9,2.2,0.6,4.1-0.7,5.8
		c-4,5.1-7.4,10.6-11.3,15.8C220.8,265.3,219.6,267.1,217.1,266z"/>
	<path class="st7" d="M428.9,260.8c-3.7,0.5-7,2.1-10.1,3.9c-10,5.7-20.2,7-30.8,1.7c-11.8-19.6-26.6-36.2-46.9-47.6
		c-7-3.9-14.8-5.8-22.1-8.7c17.6,0.9,34.5,5.3,50.7,11.8C392.1,230.8,412,243.5,428.9,260.8z"/>
	<path class="st4" d="M191.7,530.6c1.2-6.8,2.1-13.7,3.5-20.5c1.8-8.7,4.8-10.5,16.5-10.8c3.4,1.6,4.8,5,6.5,8
		c6.2,10.7,13.1,20.9,21.7,29.8c11.7,12.1,25.2,21.6,41.6,26.5c2.2,0.7,5.7,0.5,5.4,4.5c-22.5-1.3-43.6-7.8-63.8-17.5
		c-9.2-4.4-18-9.5-26.2-15.6C195.3,533.5,193.5,532.1,191.7,530.6z"/>
	<path class="st4" d="M234,242.9c-10.2,1.6-19.8,5.5-29.6,8.5c-8.8,2.8-17.3,6.7-26.5,8.4c15.9-16.4,34.7-28.3,55.6-37.1
		c17.1-7.1,34.8-12,53.5-12.9c-9.4,3.4-19,6.2-27.4,11.8c-8.3,5.6-16.3,11.5-22.7,19.4C237,243.5,235.5,243.1,234,242.9z"/>
	<path class="st2" d="M287,568.1c-8.6-3.5-17.6-5.8-25.6-10.7c-19.3-11.9-33.4-28.5-44.6-47.8c-1.9-3.3-4.4-6.3-5-10.2
		c3.6-0.8,6.6-2.5,7.2-6.6c0.5-4.1-0.2-7.7-4.4-9.6c-2.6-1.2-1.5-3-1.2-4.7c1.7-8,4.7-15.5,8.7-23.1c-9.9-3.2-19.6-6.3-29.2-9.4
		c-1.5-8.2-3.8-16.2-3.8-24.7c0.5-2.4,2.6-2.9,4.5-3.3c23.1-4.4,46.2-8.8,69.3-12.9c0.5-0.1,1,0,1.5,0.1c4.1,2.3,6.6,6.2,9.3,9.9
		c2.6,3.5,4.9,7.3,8.2,10.3c2.7,15.6,4.2,31.4,7.3,47c-1,4.8-4.9,7-8.7,9c-8.4,4.5-16.6,9.1-25,13.6c-1,0.6-2.1,1-3,1.8
		c-1.4,1.1-2.3,2.5-1.5,4.3c0.7,1.7,2.4,1.6,3.9,1.4c5.6-1.1,11.1-2.3,16.6-3.3c7-1.2,13.9-3.6,21.1-3.4c3.2,0.8,3.9,3.8,5.3,6.2
		c1.2,2,2,4.5,4.8,4.6c3,0.1,3.8-2.7,5.1-4.8c1.5-2.4,1.9-5.9,5.8-6.1c10,0.8,19.6,3.4,29.4,5.4c1.2,0.3,2.1,1,2.8,2
		c0.9,1.7,0.7,3.5,0.6,5.3c-0.2,3-0.2,6,0.7,8.9c1.9,5.5,5.1,9.8,11.1,11c6,1.2,10.7-1.4,14.6-5.7c3.8-4.2,5.8-9.3,7.3-14.6
		c2-6.8,5-12.7,10.8-17.4c5.8-4.7,5-12.4,5.5-19.1c0.6-7.6-0.3-15.3,1.2-22.9c1.9-9.2,4.9-17.6,13.1-23.2c2-1.4,4-2.5,6.4-1.1
		c2.6,2.8,1.3,6.1,0.8,9c-4.1,24.8-11.2,48.6-23,70.8c-10.2,19.1-23,36.1-40.5,49.3c-10.6,8-22.5,12.5-35.5,14.4
		C308.3,569.3,297.7,569.7,287,568.1z"/>
	<path class="st7" d="M319,567.9c12.2-3.9,23.9-8.8,34.3-16.7c20.3-15.4,34-35.7,44.5-58.4c9.9-21.6,15.8-44.4,19-67.9
		c-0.4-2.6,2.2-3,3.4-4.5c2.2-0.6,4.4-1.3,4.4-4.2c1.5-2.5,2.2-5,0.3-7.6c-0.4-2.4-0.8-4.9-3.1-6.5c-0.9-0.6-1.5-1.8-0.7-3.1
		c1.4-0.8,2.8-1.8,4.3-2.5c7.9-3.4,12.2-8.9,10.2-17.9c-0.8-3.7,1.2-4.1,4.2-4c10.5,0.4,18.8,9.9,17.6,20.6
		c-0.6,4.9-1.7,9.8-2.2,14.8c-0.8,7.9,2.4,13.4,8.3,15.3c2.4,0.7,4.9,1,6.5-0.9c1.5-1.7-0.5-3.4-1.1-4.9c-3.7-8.6-6.5-17.4-5-27
		c0.4-2.7,1.3-5.2,2.6-7.5c2.7-5,5.3-5.3,9-0.8c3.4,4.2,4.2,9.3,4.4,14.5c0.2,4.5-0.4,9,1.5,13.3c-9,76.6-70.8,141.5-146.6,154
		C329.6,566.9,324.4,568.2,319,567.9z"/>
	<path class="st8" d="M313,497c-1.1,2.2-2,4.5-3.3,6.6c-1.6,2.8-2.9,6.4-6.9,6.3c-3.7-0.1-4.9-3.4-6.5-6.1c-1.3-2.1-1.7-4.7-3.5-6.5
		c-4.6-6.8-8-13.9-5.6-22.4c0.2-0.7,0.2-1.3-0.1-1.9c-3.6-15.9-5.2-32.1-7.5-48.2c-3.9-6-3.8-12.9-3.8-19.7
		c-2.2-15-1.6-30.1-3.1-45.1c-0.3-2.6,1.1-4.8,2-7.1c0.2-15.3-0.1-30.6,3-45.8c1.3-6.4,3.4-12.5,5.4-18.7c0.2-5.5,2.5-9.7,7.5-12.3
		c0.1-0.1,0.3-0.2,0.4-0.3c11.4-10.7,13.9-10.5,24.5,1.3c0.3,0.4,0.7,0.7,1.1,1c2.3-0.2,3.8,1,4.7,2.9c4.9,10.2,9.2,20.6,9.6,32.2
		c1.4,6.6,2.1,13.3,2.1,20.1c0.1,6.8,0.3,13.6,0.1,20.5c-0.6,12.5-1,25-1.8,37.5c-0.3,4.5-0.8,8.9-1.4,13.3
		c-0.4,9.8-1.1,19.6-3,29.2c-0.9,13.2-3.1,26.3-5.9,39.3c-1.2,5.5-2.7,10.9-4,16.4C316.6,492.5,316,495.5,313,497z"/>
	<path class="st9" d="M329.2,312.6c-1.8-10-4.2-19.8-9.1-28.9c-1-1.9-2.1-3.7-3.2-5.5c0.7-3.9,2.8-7.2,6-9.5
		c8.5-6.2,17.6-11.2,27.9-13.8c6.4-1.6,12.6-1,18.4,1.9c7,3.5,14.7,5.8,20,12.2c0,0-0.1,0-0.1,0c3.9,6.7,7.2,13.8,10.6,20.8
		c7.3,17.7,12.5,36.1,15.7,55c1.6,9.3,2,18.7,3.3,28c0,8.1,0,16.1,0,24.2c-0.5,2.4-2.3,2.4-3.8,1.7c-5.8-2.6-11.2-5.7-16.6-8.9
		c-1.2-0.7-1.5-2.2-1.5-3.5c-1-3.8,0.4-7.5,0.1-11.3c-0.2-3.6-1.6-5.6-5.4-5.5c-1.6,0-3.3,0.1-4.9-0.1c-5-0.6-8.7,0.9-10.3,6.1
		c-2.1,1.8-4.3,1.4-6.5,0.4c-11.8-5.4-22.8-12.1-34.5-17.7c-1.9-0.9-2.8-2.7-3.9-4.4c0-6.8,0-13.7,0-20.5c1.9-1.9,4.3-1.7,6.6-1.3
		c2.8,0.4,5.5,1.2,8.3,1.6c4.3,0.7,6.7,3.1,7.9,7.2c2.7,8.9,6.6,11.3,15.3,7.6c5.5-2.3,10.8-2.9,16.5-2.9c1,0,2-0.1,3-0.4
		c1.1-0.3,2.4-0.5,2.7-1.9c0.4-1.4-0.6-2.2-1.5-2.9c-1.8-1.5-3.9-2.5-6.1-3.4c-4.7-1.7-9.7-2.5-14.5-3.6c-8.6-2-16.6-4.5-21.3-13.2
		c-2.4-4.4-7.5-4.4-12-4.9C333.5,315.1,330.5,315.8,329.2,312.6z"/>
	<path class="st10" d="M274.9,352.9c1,17.4,2.1,34.7,3.1,52.1c-3.8,3.6-8,4.5-12.7,2.2c-25.4,4.7-50.8,9.4-76.2,14.1
		c-9.8,2-9.8,2-9.8-8c0-0.2,0-0.3,0-0.5c-1.1-6.9,0.4-12.4,7.8-14.8c7.2-3.2,14.5-6.4,21-10.9c3.1-5.3,8.9-7,13.8-9.7
		c2.6-1.4,5.8-3.3,9.3-2.5c0.3,0,0.7,0.2,1,0.1C246.6,368,261.1,361.3,274.9,352.9z"/>
	<path class="st9" d="M234,242.9c1-0.6,1.9-1.2,2.9-1.8c11.4-1.8,22.8-1.3,34.3-0.5c6.8,0.5,13.6-0.3,20.7-1.7
		c-1.8,1.6-3.4,3.3-5.3,4.7c-16.7,12.2-33.7,23.6-54.1,28.7c-4.1,1-8.2,0.9-12.4,0.6c-1.6-0.1-3-0.3-3.3-2.2
		c0.1-1.6,0.2-3.2,0.3-4.8C222.7,258.3,228.3,250.6,234,242.9z"/>
	<path class="st8" d="M231.1,374.9c-0.6,0.6-1,1.5-1.7,1.7c-7.6,2.5-13.8,8-21.4,10.4c-1.8-4.9-1.9-10-1.7-15.1
		c0.1-3,2.2-4.8,5.3-4.8c4.8-0.1,9.6-0.2,14.4,0C231.1,367.3,231.6,370.8,231.1,374.9z"/>
	<path class="st11" d="M290.8,276.2c-2.5,4.1-5,8.2-7.5,12.2C281.6,280.1,283.1,277.7,290.8,276.2z"/>
	<path class="st10" d="M331.1,353.8c12.9,6.5,25.8,13,38.7,19.4c1.6,0.8,3.1,2.1,5.1,1.7c1-0.1,1.9-0.4,2.9,0
		c7.1,2.9,14.1,6.1,20,11.1c0.3,2.2,2.3,2.6,3.8,3.4c5.4,2.7,10.8,5.4,16.2,8.1c0.5-0.2,0.9-0.1,1.1,0.4c0.7,0.4,1.5,0.8,2.2,1.1
		c3.9,1.7,6.6,4.1,5.6,8.9c0.5,3,0,5.9,0,8.9c0.9,5.2-1.4,6.5-6,5.2c-7.8,2.3-15.1-0.6-22.5-2c-20.9-3.8-41.8-7.7-62.7-11.6
		c-2.8-0.5-5.6-1.1-7.5-3.5C329.1,387.9,330.1,370.9,331.1,353.8z"/>
	<path class="st12" d="M417.9,372c-1.2-9.3-2.4-18.7-3.8-28c-2.7-18.1-7.8-35.6-14.8-52.5c-0.2-0.6-0.3-1.3-0.4-1.9
		c-0.4-0.6-0.3-1.2,0.1-1.7c8,16.7,12.6,34.5,16,52.6c2,10.4,3.1,21,3.7,31.6C418.5,372.8,418.2,372.8,417.9,372z"/>
	<path class="st13" d="M399.1,287.9c0,0.6-0.1,1.1-0.1,1.7c-3.3-6.9-7.3-13.4-10-20.6C393.8,274.5,396.2,281.3,399.1,287.9z"/>
	<path class="st14" d="M417.9,372c0.3,0,0.6,0.1,0.9,0c0,8.6,0.1,17.3,0.1,25.9c-0.4-0.1-0.7-0.3-1.1-0.4
		C417.9,389,417.9,380.5,417.9,372z"/>
	<path class="st9" d="M328,405c13.2,1.5,26.2,4.6,39.3,7c17.8,3.2,35.6,6.8,53.4,10.1c-1.3,0.9-2.6,1.9-3.8,2.8
		c-9.1,3.5-13.5,10.9-15.9,19.7c-1.8,6.8-2,13.8-2.2,20.8c-0.1,5.2-0.3,10.3-0.8,15.4c-0.5,5.9-2.7,10.9-8.2,14
		c-3.5,1.9-4.8,5.4-5.8,9c-1.4,5.3-2.9,10.6-5.7,15.4c-5.6,9.6-14.7,14.1-22.6,11.2c-8.5-3.1-13.2-12.7-11.5-23.6
		c0.2-1,0.4-1.9,0.7-2.9c1.2-2.2,3.1-2.1,5.1-1.7c1.9,0.3,4.2,1.1,5-1.5c0.8-2.5-1-4-3.1-5c-4.9-2.4-9.4-5.4-14.3-7.8
		c-2.1-1-4.2-2.1-4.2-4.9c-0.9-3.8-0.7-7.5,1-11.1c1.5-3,1.1-6-0.7-9c-3.7-6.3-5.7-13.1-5.2-20.4c0.2-3.6-1.3-6.4-3.5-9
		C326.1,424.1,327.1,414.5,328,405z"/>
	<path class="st15" d="M334.6,483.2c6.7,3.7,13.3,7.4,20,11.2c2.9,1.6,4.6,7.3,3.2,10.3c-0.7,1.5-1.9,1-3,0.8
		c-3.3-0.5-6.5-1-9.8-1.6c-9.4-2-18.8-4-28.1-6c-1.3-0.3-2.6-0.7-3.8-1c1.9-8,3.9-16,5.8-24C324.6,475.6,331.1,477.1,334.6,483.2z"
		/>
	<path class="st15" d="M287.2,473c0.9,8.4,4.8,16,5.6,24.4c-12.7,2.5-25.4,5.2-38.2,7.4c-1.9,0.3-5.4,3.2-6.2-0.5
		c-0.8-3.5-1.8-7.7,3.3-10.2c10.3-5.1,20.2-10.8,30.3-16.3c1.2-0.6,2.3-1.3,3.5-1.9C286.7,475.2,287.1,474.2,287.2,473z"/>
	<path class="st16" d="M265.3,407.2c4.2-1,8.3-2.3,12.7-2.2c0.6,6.6,1.2,13.2,1.8,19.8C273.6,420,269.5,413.5,265.3,407.2z"/>
	<path class="st17" d="M426.7,416.9c-1-3-0.9-5.9,0-8.9C428.7,411,428.2,413.9,426.7,416.9z"/>
	<path class="st2" d="M329.2,312.6c4,0,8,0,11.9,1c4.5,1.1,8.6,2.1,10.5,7.6c1.5,4.4,6.2,6.2,10.5,7.8c5.5,2.1,11.4,2.5,17,4
		c6.2,1.6,12.2,3.6,16,9.3c2.7,4.1,2.3,4.9-2.5,5.1c-3.2,0.1-6.3,0.4-9.5,0.4c-4,0-7.8,0.3-11.4,2.7c-3.1,2-6.9,2.2-10.6,2
		c-4.7-0.2-8.7-0.7-8.6-7.3c0.1-5.4-2.7-9.3-9-9.7c-4.1-0.3-8.2-1.4-12.3-2.1C330.5,326.4,329.8,319.5,329.2,312.6z"/>
	<path class="st18" d="M334.6,483.2c-4.4-2.3-8.8-4.6-13.2-6.9c-1.4-0.7-2.6-1.6-2.6-3.3c2.9-13,4.5-26.2,6.4-39.4
		c4.5,0.6,6.8,2,6,7.6c-1.1,7.7,1,15.2,5.6,21.7c2.1,3,2.1,5.8,0.5,8.9C335.4,475.4,334.3,479.1,334.6,483.2z"/>
	<path class="st19" d="M288.3,308.2c0.8-7.6,7.1-12.8,14.7-12.9c7.2-0.1,13.7,5.3,14.6,12.9C307.9,302.8,298.3,303,288.3,308.2z"/>
	<path class="st8" d="M397.8,386c-2.2,0.8-3.8-0.6-5.5-1.4c-5.9-3-12-5.7-17.4-9.7c-0.3-7.1,0.7-8.2,7.7-8.2c4,0,7.9,0,11.9,0.1
		c3.2,0.1,4.8,1.8,4.8,5C399.3,376.6,399,381.4,397.8,386z"/>
</g>
</svg>
