<?xml version="1.0" encoding="utf-8"?>
<!-- Generator: Adobe Illustrator 19.0.0, SVG Export Plug-In . SVG Version: 6.00 Build 0)  -->
<svg version="1.1" id="Calque_1" xmlns="http://www.w3.org/2000/svg" xmlns:xlink="http://www.w3.org/1999/xlink" x="0px" y="0px"
	 viewBox="0 0 612 792" style="enable-background:new 0 0 612 792;" xml:space="preserve">
<style type="text/css">
	.st0{fill:#010100;}
	.st1{fill:#010101;}
</style>
<g>
	<path d="M482.7,392.1c-1.2,6.2-3.6,11.2-8.8,14.4c-1.7,1.1-3.7,2.5-5.5,1.8c-4.6-1.9-5.5,1.3-6.9,4.3c-2.5,5.2-5.5,10.1-12.3,10.1
		c-5.9,0-8.8-2.4-8.8-8.3c0-5.9,0.5-11.9,0.8-18c-4.4,2.8-6.7,7-6.6,11.9c0.1,3.2,0.8,6.3,0.2,9.5c-1.4,7.3-7,10-13.3,6.1
		c-3.5-2.2-6.7-4.9-10.1-7.3c-6.9-4.8-14.1-4.5-20.6,0.9c-5.1,4.2-7.9,9.8-9.1,16.2c-0.4,2.4-0.5,5,2.2,7.1c1.2-2.8,2.1-5.5,3.4-8.1
		c3.4-6.9,9.9-10.6,16.9-10c6.5,0.6,14.4,7.1,16,13.4c1.1,4.2,0.1,8-3,11c-2.4,2.5-3.9,5.3-4.6,8.7c-1.5,7.1-4.2,9.9-11.3,8.7
		c-9-1.5-16.7,1.8-24.6,4.5c-2.2,0.8-3.9,1.3-1.8,4.3c2.6,3.7,1.2,6.9-2.5,9.2c-1.6,1-3.3,1.7-4.8,2.7c-1.1,0.7-3.5,0.4-3.2,2.3
		c0.2,1.8,1.8,3.2,3.4,4.1c1.9,1,2.6-0.9,3.6-1.9c2.8-3,5.3-6.4,8.7-9c4.8-3.6,8.1-3.5,12.5,0.4c3.9,3.4,7.7,6.9,11.8,10.6
		c0.3-2.8-1.7-4.2-2.8-5.8c-6.2-8.5-3.2-16.1,7.2-18c1.8-0.3,3.7-0.3,5.4,0.1c10.9,2.9,16.6,10.7,18.8,21.1
		c2.1,9.9-1.2,18.4-9.7,23.9c-6.1,4-12.7,7.2-19.5,10c-7.4,3.1-16.3-1.5-18.7-9.5c-1-3.5-2.1-3.3-4.6-1.8c-3.5,2.1-7.2,3.6-11.3,3.6
		c-2.5,0-3,1.6-3.8,3.2c-3.2,6.6-7.2,12.7-12,18.3c-1.9,2.2-4.1,4.3-7.3,2.5c-3.3-1.9-2.9-4.9-1.8-7.9c0.4-1.1,0.6-2.4,1.3-3.2
		c5.1-6.3,10.4-12.5,14.2-19.7c0.8-1.6,2.6-2.9,4.5-2.9c5.7-0.1,10.5-2.6,15.6-4.7c7.2-2.9,12.9,0.6,14.5,8.2
		c0.9,4.1,3.5,5.4,7.4,3.6c4.5-2.1,9-4.3,13.4-6.6c5.1-2.7,8.3-6.9,8-12.8c-0.3-6.2-3.3-11.1-8.6-14.4c-1.9-1.2-4.1-1.4-6.4,0.2
		c3.2,2.3,5.2,5.4,6.5,8.9c1.7,4.5,0,8.2-3.1,11.3c-2.9,3.1-6.6,2.9-10.2,1.4c-5.5-2.3-10-6.1-13.7-10.6c-1.5-1.8-1.8-1.6-3-0.3
		c-2.5,2.7-4.8,5.5-7.4,8.1c-4.8,4.7-8.9,5.5-13.9,2.9c-5.2-2.7-10.4-10.7-9.8-15.3c0.5-4.1,3.3-6.4,6.7-8.1
		c2.1-1.1,3.5-1.9,1.2-4.5c-3-3.3-2.2-7,1.5-8.8c11.6-5.6,23.1-12.1,36.8-9.9c2.2,0.4,3-0.4,3.3-2.4c0.6-3.9,2.5-7.2,5.1-10.1
		c1.2-1.5,3.3-2.8,1.1-5c-2.2-2.2-4-5.1-7.9-3.8c-3.1,1.1-4.8,3.5-5.9,6.3c-0.6,1.4-1.2,2.8-1.7,4.2c-1.4,4-3.4,7.5-8.2,7.5
		c-5.3,0-9.8-1.9-12.3-7c-2.5-5.1-2.3-10.3-0.9-15.6c3.4-13.6,13.9-23.6,27-25.5c8.7-1.3,20.7,4.6,25.2,13.2c0-2.3,0.1-3.5,0-4.6
		c-1.6-10.6,3.6-18.3,10.7-25.1c6.1-5.8,13-3.7,15.1,4.5c1.8,7.2,1.7,14.4-2.1,22.1c3.8-2.6,4.6-6.1,6.1-9c3.7-7,4.8-7.7,12.8-6.5
		c2.5,0.4,3.3-1.4,4.1-2.9c3.4-6.4,2.1-14.5-3.1-19.7c-41.6-41.6-91.9-61.1-150.5-57c-50.3,3.5-92.6,24.8-127,61.8
		c-2,2.2-1.7,3,0.3,4.9c3.8,3.7,7.2,7.8,10.9,11.7c3.4,3.6,7,3.4,10.4-0.1c2.6-2.6,5.4-5,7.6-7.9c8.8-11.8,20.8-18.1,35-21.3
		c15.4-3.4,30.7-7.3,46.1-10.9c4.4-1,9-0.6,13.4,0.5c6.2,1.5,8.3,5.7,6.3,11.7c-1.5,4.4-4.7,7.2-8.5,9.5c-7.3,4.3-14.8,8.3-22,12.8
		c-9.8,6.1-10,9.2-1.1,16.6c5.4,4.5,9.8,9.3,11,16.6c1.6,10.4-5.2,17.3-15.6,15.4c-5.6-1-10.1-4.2-14.4-7.6
		c-7.6-6.1-12.3-4.8-18.4,2.9c-2.7,3.4-4.6,7.3-5.7,11.5c-0.6,2.2-0.3,4.5,1.3,6c1.7,1.6,3.5-0.2,5-0.9c3.7-1.8,7.3-3.9,11-5.9
		c3.5-1.9,7.3-2.3,11.1-1.6c11.2,1.9,23,16.8,22.3,28.1c-0.4,6.4-4.2,10.4-10.6,11.1c-0.3,0-0.7,0.1-1,0.1
		c-8.8-1.2-13.6,2.7-17,10.9c-3.4,8.4-11.7,11.8-19.7,14.9c-2.2,0.8-4.5,1.3-6.5,2.4c-4.6,2.5-4.9,6.1-0.9,9.5
		c5.4,4.4,11.9,6.5,18.2,9c1.4,0.5,2.9,1,4,1.9c1.9,1.6,2,3.8,0.9,5.9c-1,2.1-2.7,2.7-5,2c-7.9-2.6-15.8-5.4-22.9-9.7
		c-5.3-3.2-9.6-7.7-8.7-14.6c0.9-6.8,5.2-11.4,11.4-14c2.9-1.2,6-2,8.9-3.2c6-2.5,10.8-6.1,13.3-12.6c3.5-9,10.4-12.9,20-12.5
		c5.9,0.2,6.7-1.3,4.2-6.7c-1.5-3.2-3.6-6-6.2-8.4c-5.2-4.8-8-5.1-14.3-1.7c-3.1,1.7-6.1,3.4-9.3,4.9c-5.1,2.4-10.3,3.5-15-0.6
		c-4.7-4.2-6.3-10-4.8-16c2.1-8.4,6.2-15.8,12.9-21.5c7.3-6.4,15.7-6.9,23.9-1.7c3.6,2.3,7.1,5,10.8,7.1c1.8,1,4.3,2.1,6,0.3
		c1.6-1.6,0.2-3.9-0.3-5.7c-0.6-2.3-2.5-3.9-4.2-5.4c-2.7-2.5-5.6-4.8-8.1-7.5c-6.6-7.3-6.2-15.9,0.9-22.6
		c5.8-5.4,12.8-8.9,19.6-12.7c4.1-2.3,8.6-4.1,12.3-7.8c-4-1.5-7.7-0.5-11.1,0.3c-15.7,3.7-31.3,7.8-46.9,11.7
		c-8.5,2.1-15.6,6.4-21.2,13.2c-4,4.9-8.2,9.7-13.2,13.6c-7.1,5.5-12.6,5.6-20,0.5c-4.9-3.4-8.3-8.2-12.1-12.6
		c-2.3-2.7-3.7-2.6-5.9,0.4c-6.5,9.1-12.4,18.4-17.6,28.7c15.1-0.1,23,9.1,28.5,21.2c4.3,9.5,6.1,19.7,7.1,30
		c0.4,4.4-0.9,8.6-2.8,12.5c-2.1,4.2-1.9,8.1-0.4,12.5c4.6,13.6,13.6,23.4,25.7,30.7c2.4,1.5,4.9,2.9,7.2,4.4c1.8,1.1,3.1,2.5,2,4.9
		c-1.1,2.2-2.7,3.5-5.1,3c-1.8-0.3-3.6-0.9-5.2-1.6c-20.3-8.2-30.9-24.3-35.9-44.8c-1-4.1,0-8.3,1.9-12.1c2.2-4.3,2.7-8.8,2-13.6
		c-1.2-7.9-3-15.7-6.2-23c-1.6-3.7-3.9-7-6.9-9.7c-5.3-4.7-10.4-5.3-16.6-2.2c-1.5,0.7-1.7,2-2.1,3.2
		c-10.8,27.8-15.3,56.4-12.6,86.1c0.2,2.3,0.4,4.6,0.5,7c0.2,3.1-1.2,5.3-4.3,5.7c-3.4,0.4-5.3-1.6-5.8-4.8c-0.5-3.1-0.8-6.3-1-9.4
		c-6.7-99.7,58.8-188,156.2-210.4c105.1-24.2,213.3,42.6,238.6,147.4c5.4,22.4,7.1,45,4.9,67.9c-0.1,0.8-0.2,1.7-0.3,2.5
		c-0.4,3.8-1.6,7.3-6.2,6.7c-4.6-0.7-4.5-4.5-4.1-8.2c4.8-48.9-7.1-93.4-35.9-133.2C484.2,394,483.6,393.2,482.7,392.1z"/>
	<path class="st0" d="M86.4,496.9c2.7-52,19.9-99.3,52.4-140.6c32.9-41.9,75.2-70.4,126.6-85.1c3.6-1,6.9-1.3,8.1,3
		c1.2,4.2-1.7,5.8-5.3,6.9c-19.9,5.6-38.9,13.5-56.5,24.4c-62.2,38.6-99.7,93.8-112.2,166c-1.8,10.2-2.7,20.5-2.8,30.8
		c0,3.8-1.1,7-5.3,6.9c-4.3-0.1-5.2-3.4-4.9-7.2C86.5,500.4,86.4,498.9,86.4,496.9z"/>
	<path class="st1" d="M179.5,271.3c0.2,3.3-2.3,4.6-4.5,6.1c-16.5,11.2-31.5,24-45.2,38.4c-21.4,22.5-38.5,47.9-51.4,76.2
		c-0.6,1.4-1.2,2.7-1.9,4.1c-1.5,2.7-3.8,3.9-6.7,2.6c-3-1.4-3.9-3.8-2.5-7c4.1-9.4,8.8-18.6,13.9-27.6
		c22.2-38.6,51.7-70.4,88.5-95.5c2.1-1.5,4.2-2.9,6.9-1.6C178.4,267.8,179.4,269.2,179.5,271.3z"/>
	<path class="st1" d="M238.8,234.3c3-0.1,4.8,1.2,5.5,3.7c0.8,3.1-0.8,5.2-3.6,6.3c-5.9,2.3-11.8,4.3-17.6,6.8
		c-5.9,2.5-11.7,5.4-17.6,8.2c-3.2,1.5-6.1,1.3-7.7-2c-1.4-2.9-0.3-5.4,2.7-7c11.8-6.1,24-11.2,36.5-15.6
		C237.8,234.4,238.5,234.4,238.8,234.3z"/>
	<path d="M447,262.1c-7.9-7.3-17.2-12.1-27.9-13.5c-10-1.3-19.3-3.9-27.7-10c-8.1-5.8-16.9-10.7-25.3-15.9c-1.7-1-3.4-2-5.5-2.3
		c-7.9-1.1-15.8-2.4-23.7-3.7c-2.7-0.4-5,0-6.5,2.5c-1.4,2.4-0.5,4.5,1.1,6.4c2.7,3.2,5.3,6.3,8.9,10.6c-4.2-0.6-7.2-1.6-10.1-1.5
		c-10.2,0.5-14.3-5-16.6-14.3c-4.3-17.6-1.7-13.2-18.6-16.7c-0.2,0-0.3-0.1-0.5-0.1c-5.5-0.8-7.3,0.5-8.1,6
		c-1.8,11.5-3.7,23-5.2,34.6c-0.5,3.4-2,4.5-5.2,5.3c-76.8,17.6-135,60.8-174.5,128.8c-18.9,32.5-29.4,67.9-32.9,105.3
		c-1.5,16.3-1.5,32.6,0.1,48.9c0.3,3.4,1.6,6.4,5.8,6c4.1-0.4,4.9-3.3,4.6-6.9c-2.6-26.7-1-53.2,4.9-79.5
		c22.1-98.6,100.7-174.8,200-194c2.8-0.5,4.6-0.2,6.7,1.5c6.2,5.1,13.2,9,20.8,11.7c4.7,1.7,9.6,2.9,14.9,4.5
		c-2.3,2.2-4.3,3.9-6.1,5.9c-2.6,2.9-1.9,7.5,1.5,8.1c7.4,1.3,14.7,4.2,22.5,1.1c7.1-2.9,14.4-5.1,21.6-7.8c2.3-0.9,4.5-1,6.8-0.7
		c11.8,1.9,23.7,3.6,35.5,5.7c12.1,2.1,23.9,1.5,35.2-3.7C454.5,279.5,455.9,270.3,447,262.1z M375.5,241.2
		c-9.7-2-21.5,0.9-26.5-11.7C360,228.3,367.2,236.1,375.5,241.2z M336.2,282.9c5.2-5.7,9.9-11.1,14.8-16.4c0.3-0.4,1.3-0.4,1.9-0.3
		c6.5,0.9,13,1.9,19.5,2.9c0,0.3,0,0.6,0,0.9C360.4,274.4,348.4,278.6,336.2,282.9z M438.6,275.6c-9.3,4-19,4.5-28.9,2.5
		c-6-1.2-12.1-2-18.6-3c1.5-1.9,3.5-1.9,5.1-2.6c2.6-1.1,4.2-2.8,3.8-5.7c-0.3-2.5-2-4.1-4.7-4.5c-14.6-2.3-29.3-4.5-43.9-6.9
		c-3.3-0.5-5.7,0.9-7.3,3.3c-5.4,7.8-12.4,8.2-20.8,5.8c-10.7-3.1-20.5-7.6-29-14.8c-2.5-2.1-3.2-4.2-2.7-7.3
		c1.4-7.9,2.5-15.8,3.9-23.6c0.3-1.6-0.7-4.1,2.2-4.1c2.6,0,4.5,0.7,5.2,4c1,4.8,2.8,9.5,4.6,14.2c2.4,6.4,6.6,9.9,13.9,10.9
		c32.4,4.6,64.8,9.8,97.2,14.9c8.1,1.3,15,5.3,21.2,10.5C443.6,272.4,443.3,273.6,438.6,275.6z"/>
</g>
</svg>
