<?xml version="1.0" encoding="utf-8"?>
<!-- Generator: Adobe Illustrator 19.0.0, SVG Export Plug-In . SVG Version: 6.00 Build 0)  -->
<svg version="1.1" id="Calque_1" xmlns="http://www.w3.org/2000/svg" xmlns:xlink="http://www.w3.org/1999/xlink" x="0px" y="0px"
	 viewBox="0 0 612 792" style="enable-background:new 0 0 612 792;" xml:space="preserve">
<style type="text/css">
	.st0{fill:#87BF57;}
	.st1{fill:#E4E4E3;}
	.st2{fill:#EA7A71;}
	.st3{fill:#EA7B72;}
	.st4{fill:#88BF58;}
	.st5{fill:#8DB95C;}
	.st6{fill:#8AC05A;}
	.st7{fill:#9FCC78;}
	.st8{fill:#BDDCA3;}
	.st9{fill:#93C667;}
	.st10{fill:#F3F8EE;}
	.st11{fill:#6AB5E4;}
</style>
<g>
	<path class="st0" d="M518.2,406c0.9,0.7,2,1.2,2.6,2.1c1.6,2.3,3,3.3,5.2,0.6c0.8-1,2.1-1.1,3.1-0.2c1.4,1.2,0.4,2-0.8,2.6
		c-0.7,0.4-1,0.9-0.3,1.5c0.8,0.7,1.7,0.4,2.1-0.5c1.7-3.9,4.7-3.1,7.9-2.5c6.3,1.3,13,0.9,18,6.1c0.5,0.5,2,0.5,2.8,0.1
		c5.1-2.1,8.7,0.4,11.7,4c2.6,3.1,6.9,5.2,5.1,11c-0.7,2.2,1.7,5.5,4.3,7.2c0,0.7,0,1.3,0,2c-4.9,1.6-6.6-2.5-9-5.1
		c-2.4-2.6-4-4.8-6.3,0.1c-1,2.3-4,2.3-4.8,0.1c-2.2-5.9-7.5-9.6-9.7-16c-2.2,3.5-7.9,3.5-7.8,9.1c0,0.8-1.4,1.5-2.4,1
		c-1-0.5-2.6-1.7-2.5-1.9c2.5-4.6-0.9-2.8-2.9-3c-0.7-0.1-1.3-1.3-2.3-2.3c-0.6,3.4-0.3,5.4-5.3,4.1c-5.9-1.6-6.3-4.8-6.6-9.2
		c-0.1-1.1-0.1-2.4-1.6-3.4c-2.6,4-5.6,7.7-11.2,6.1c-4.7-1.4-4.9-6-6.3-9.5c-1.3-3.3,3.2-3.1,4.4-5
		C510.7,402.4,515.2,402.7,518.2,406z"/>
	<path class="st1" d="M265.9,292.3c0.4-20,2.5-39.8,6.3-59.5c0.2-1.1,0.9-2.2-0.5-3c0.3-5.3,2.2-10.1,4.2-14.9
		c4.4-8.2,6.3-17.4,11.2-25.4c5.1-8.3,10.8-15.8,20-20.1c10.2-4.7,22.5-2.5,30.9,5.1c13.7,12.3,19,28.8,23.8,45.5
		c2.1,7.3,3.4,14.8,5.1,22.1c1.4,1.4,1.8,3.2,2,5c1.8,13.3,3.7,26.6,3.4,40.1c1.8,18,1.2,36.1,0.4,54.2c-0.6,14.2-1.2,28.5-2.3,42.7
		c-0.3,4.3-1.1,8.6-1.2,12.9c-0.2,3.7-1.3,7.2-1.6,10.9c-3.4,4.3-1.3,9.6-2.7,14.4c-0.8,2.7-1,5.9-1,8.8c0,11.8-3.6,23.1-5.2,34.6
		c-2.1,14.7-5.1,29.3-8.9,43.6c0.9,1.2,0.8,2.5,0.5,3.8c-3,10.9-5.7,21.8-10.2,32.2c-0.3,0.6-0.7,1.1-1.2,1.6
		c-2.6,1.4-3.1,4.1-4.1,6.5c-2.1,4.9-5.1,9.1-9.1,12.6c-2-2.3-1.4-5-1.4-7.6c-0.1-15.1,0.6-30.3-2.1-45.3c-0.5-2.6-0.4-5.3-2.6-7.6
		c-1.9,1.6-2.1,3.8-2.4,5.8c-2.1,16-4,32-2.2,48.2c0.3,2.6,0.9,5.3-1.4,7.5c-6.1-2.6-8.3-8.6-11.6-13.5c-1.6-2.4-2.1-5.6-4.4-7.6
		c-2.6-3.2-3.3-7.3-4.6-11c-2.5-6.7-4-13.7-6.2-20.6c-0.5-1.7-1-3.6-0.1-5.4c-4.3-19.4-8.6-38.9-11.1-58.7
		c-1.4-10.8-3.4-21.5-4.7-32.3c-0.7-6.3-0.3-12.8-2.2-19c-2.9-5.5-1.8-11.7-2.5-17.5c-2.3-20.3-1.5-40.8-3.1-61.1
		c-0.6-8.3,1.1-16.6,1.1-24.9C264.6,294.3,265,293.2,265.9,292.3z"/>
	<path class="st2" d="M368.1,398.1c0.8-12.3,1.6-24.5,2.3-36.8c1.3-23.4,2.5-46.8,0.9-70.3c-0.1-1.3,0-2.6,0.1-4
		c2-1.2,3.5,0.1,5.1,0.9c5.4,2.6,10.7,5.4,16.1,8c11.7,5.6,23.4,11,35,17c11.5,6,23.5,10.9,35,17c10.8,5.6,22.2,10.3,33,16
		c4.8,2.9,10.4,4.3,14.7,8.2c4.9,2.5,9.7,5,14.6,7.4c4.8,2.4,7.2,6.1,7.2,11.5c0,5.8,0,11.7,0,17.5c0,10.8-3.2,14.3-13.8,15.5
		c-4-1.7-8.2-0.8-12.4-0.9c-5.2-0.3-10.5-0.6-15.7-0.9c-3.7,1.8-7.3,1.8-10.8-0.3c-8.5-1.6-17.2-1.1-25.8-1.6
		c-25.2-1.5-50.4-2.4-75.6-3.5c-0.8,0-1.7,0.1-2.5,0.2C372.9,399.2,370.3,400,368.1,398.1z"/>
	<path class="st2" d="M265.9,292.3c-1.1,20-0.3,39.9,0.3,59.9c0.4,14.1,1.9,28.2,2.8,42.3c0.1,1.5,0,3,0,4.5
		c-22.1,1.2-44.2,2.4-66.2,3.7c-6.1,0.4-12.3-0.2-18.4,1.3c-1.3,0.8-2.6,1.4-4.2,1.5c-16.1,0.5-32.1,2.1-48.1,2.4
		c-1,0-2-0.1-2.8-0.9c-9.4-0.7-13.4-5.1-13.4-14.7c0-5.1-0.1-10.2-0.1-15.3c-2-3.2-1.2-6.4,0-9.6c1.7-3.6,4.5-5.9,8-7.7
		c6.7-3.5,13.9-6.1,20.5-9.8c8.6-4.2,17.2-8.6,25.8-12.8c2.8-1.4,5.7-2.6,8.9-3c11.2-4.9,22.2-10.3,32.9-16.1
		c6.7-5.1,14.6-7.8,21.9-11.7c4.2-2.2,8.1-5.1,13.2-5.3C253.3,298.1,259.6,295.2,265.9,292.3z"/>
	<path class="st0" d="M117.1,366.8c-1.3,3.3-0.9,6.8-1.2,10.2c-1.4-0.1-2.7-0.6-3.6-1.6c-4.4-5.2-10.6-5.9-16.7-7.2
		c-5.9-1.3-9.7-6.8-9.7-12.5c0-3.4-1-6.9-1.9-10.2c-0.7-2.5-2.1-4.9-2.9-7.4c-0.7-2.3-1.1-4.8-1.6-7.5c-1.2,2.7,0.2,5.7-2.5,8.5
		c-0.3-5.6-2.4-10.3-1.8-15.5c0.1-0.7,0.3-1.6-0.1-2c-4.5-4.9-1.7-10.2-0.8-15.4c0.5-2.8,1.8-5.1,3.5-7.6c3.8-5.7,10-10,11.8-17
		c0.5-1.9,0.9-3.9,0.3-5.9c-0.2-0.8-0.6-2.2-0.4-2.3c4.7-1.8,2.4-6.8,4.5-10c3.7-5.6-0.3-13.2-6.9-14.5c-2.2-0.4-3.9,0.6-5.3,2.2
		c-1.3,1.4-2.8,2-4.8,2.1c-3.6,0.2-7-0.8-7.4-4.2c-0.3-2.5,1.2-5.4,4.7-7.1c2.9-1.4,5.6-3.2,8.9-3.8c2.3-0.4,2.3-1.7,0.9-3
		c-0.8-0.8-1.5-1.6-0.9-2.5c0.6-1,1.8-0.3,2.8-0.1c3.6,0.8,7.1,1.2,8.2-3.7c0.3-1.4,1.9-1.1,3-1.4c9.3-3.3,18.1-2.9,26.6,2.7
		c2.8,1.9,6,3,9.7,2c2-0.5,4.2,0.2,6.4,0.6c2.4,0.4,5.8,2.2,5.5-3.4c-0.2-3.8,10.9-6.8,14.1-3.9c1.7,1.5,3.6,3,4.9,1.3
		c1-1.2,0.4-4.1-2.3-4.9c-0.3-0.1-0.5-0.8-0.7-1.1c0.8-1.4,2.3-1.9,3.5-1.6c6.3,1.2,12.5-0.6,18.5-1.7c3.8-0.7,7.1-0.1,10.7-0.3
		c0.8,0,2,0.1,2.4-0.4c4.6-5.1,11-3.7,16.7-4.7c3.7-0.2,7.5-0.4,11.2-0.6c-8.8,4.8-16.9,10.8-27,14.2c2.2,1,2.7,2.3,3,4.4
		c0.3,2.2,0.2,5.5,3.7,6.4c0.6,0.2,1.3,0.9,0.9,1.5c-2.2,3.2-0.5,4.7,2,6.8c2.5,2.1-1.1,3.1-2.1,4.3c-2.6,3.3-1.9-1.8-3.6-1.5
		c-1.5,1.5,0.2,3,0.2,4.5c-0.1,2.4-0.2,4.2-3.3,2.6c-0.5-0.3-1.1-1.4-1.5,0.3c-0.8,3-1,3-3.2,0.9c-2.7-2.6-4.1-7.7-9.7-4.6
		c0.3-2.7,3.5-4.1,1.7-6.7c-0.7-1-2.2-0.9-3.3-0.4c-3.1,1.4-5,3.7-3.7,7.5c-1.7-0.2-2.9-0.4-4.2-0.6c-2.2-0.3-4.1,0.7-6.1,1.1
		c-6,2.8-11.7,6.1-16.7,10.5c-2.9,2.5-1.8,5.2,0.7,7.7c3,2.8,9.8,4.1,6.4,11c-0.4,0.8,0.4,3,1.2,3.5c1.5,1,2.5-0.9,2.9-1.9
		c1.7-4,4.1-7.1,8.3-8.5c0.5-0.2,1.4-1.1,1.3-1.3c-2.5-5.4,3.2-8.4,3.8-12.9c0-0.3,0.2-0.6,0.3-0.9c10.8,1.8,12,3.1,7.6,8.8
		c3.1,2.7,5.9-0.7,9-0.5c0.6,2.9-0.9,6.3,2,8.9c0.7,0.6,0.5,2.4-0.4,3.2c-2.2,2-0.9,2.4,1,2.5c1.7,0,2.5,1,2.5,2.5
		c0,1.5-1.2,2.2-2.5,2.7c-4.6,1.8-9.2,2.5-14.1,2.2c-2.4-0.2-4.7,0.1-5.8,3.4c7.2-1.2,3,3.8,3.7,6.3c-7.9,4-15.7,7.4-25,6.6
		c-7.2-0.6-9.2,1.8-10.4,9.1c-0.7,4.4,0.8,9-1.5,13.2c-4.2,3-6.6,6.9-5.9,12.2c0.1,1.1-0.2,2.3-0.6,3.4c-0.6,1.6-1.3,3.3-3.4,3
		c-2.2-0.4-2.1-2.2-2-3.9c0.3-4.7-2.5-7.7-6.8-6.8c-3.1,0.7-6.2,0.6-9.3,1c-1.5,0.2-3,0.4-4.2,1.2c-3.5,2.3-8.1,13.6-7.2,17.8
		c0.4,2,1.1,3.9,3.4,4.5c2.3,0.6,3.8-0.7,4.9-2.5c1.2-1.9,2.8-3.3,5.1-3.6c3.1-0.3,4.6,1.6,3.6,4.5
		C118.6,361.4,117.8,364.1,117.1,366.8z"/>
	<path class="st0" d="M129.4,407c7.5-1.9,15.2-1.1,22.8-1.6c10.7-0.7,21.5-2,32.3-1.4c-1.4,5.3,3.5,3.9,5.7,5.2
		c0.6,0.3,2.1-0.3,2.7,0.5c3.4,4.1,8.5,3.6,12.8,5.2c9.9,3.8,12.2,7.7,7.1,17.5c-1.9,3.6-2.9,7.3-3,11.3c-0.1,3.8,0.2,7.7,0,11.5
		c-0.3,4.8-1.8,8.4-7.7,9.2c-4.9,0.7-6.3,4.8-6,9.5c0.4,6.2-1.4,11.9-4.1,17.4c-0.3,0.6-0.7,1.5-1.1,1.5c-6.8-0.5-5.2,3.9-4.7,7.8
		c0.4,2.8-0.7,4.6-3.8,4.4c-2.8-0.1-4.3,0.8-3,3.8c0.3,0.6,0.5,1.7-0.2,1.7c-5.6,0.5-1.8,3.8-1.8,6c0,0.8,0.7,1.9,0.4,2.4
		c-2.9,3.7-1.1,5.9,2.1,7.9c1.8,1.1,1,2.8,0.3,4.4c-2.3,5.7-1.7,7.2,3.7,9.7c1.5,0.7,3.6,0.8,3.1,3.1c-0.6,2.5-2.8,1.6-4.1,1.1
		c-7.8-2.6-14.4-6.9-16.9-15.2c-2.3-7.6-7-14.2-9.3-21.8c-0.2-0.6-0.9-1.3-0.7-1.7c2.7-7.5,0.4-15.1-1.1-22.1
		c-1.8-8.2,0-16.6-3-24.5c-0.8-2.3-1.8-3.9-4.1-5.2c-5.2-2.9-8.6-6.7-11.3-12.7c-3.2-7-4.2-14.8-8-21.5
		C126.3,416.3,127.6,411.4,129.4,407z"/>
	<path class="st0" d="M562.9,445.4c2.2,5.5,3.9,9.2,4.7,13.8c1,6.1,2.9,12.2,4.5,18.2c0.8,2.9,0.9,5.2-2.3,6.6
		c-1.3,0.6-2.2,1.5-2.6,2.8c-3.6,11-13.8,16.8-20.3,25.4c-2.9,3.9-7.2,6.7-9,11.5c-0.4,1.2-1.5,2.2-2.3,3.2
		c-0.7,0.8-1.6,1.4-2.6,0.8c-1.1-0.6-1.1-1.7-0.8-2.6c1.2-4,0.6-7.9-0.1-11.8c-0.3-2-0.1-4,1.9-5.3c1.4-0.9,2.5-2.1,2.5-4.4
		c-3.8,0.7-6.9,0.6-7.1-4.6c-0.1-2.9-3.2-4.8-5.8-4.6c-4,0.3-8.1-0.1-11.8,3.5c-3.3,3.2-8.8,3-13.4,3.4c-2.4,0.2-4.7-2.6-3.2-5.9
		c1.1-2.6,2.6-5.4,1.9-8.1c-2-7.5,2.4-12.7,5.9-18.3c1.7-2.8,4.6-3.7,7.4-4.7c4.2-1.4,7-4.8,10.4-6.9c3.9-2.4,6.3-9.6,13-6.3
		c1.4-3.2,4.9-3.9,7-6.3c1.9-2.1,4.1-2,6.4-1.4c2.2,0.7,3.3,1.9,2.2,4.5c-1.6,3.8,0.6,8.8,4.5,9.8c4.5,1.1,5.5-2.5,6.6-5.7
		C561.2,450.2,561.8,448.6,562.9,445.4z"/>
	<path class="st2" d="M339.2,546.9c1.1-7.6,5-14.3,6.7-21.7c1.2-5.3,2.8-10.6,4.2-15.8c14.8,7.1,29.7,14.2,44.5,21.4
		c4.2,2,6.1,13.8,2.9,17.3c-1.5,1.6-3.4,1.8-5.5,1.7C374.4,548.7,356.8,547.8,339.2,546.9z"/>
	<path class="st2" d="M287,509c3.3,11.6,6.3,23.3,10.7,34.5c0.3,0.7,0.1,1.6,0.2,2.4c-17.3,0.8-34.6,1.5-51.8,2.6
		c-4.4,0.3-6.2-1.3-6.2-5.5c0-2.5-0.1-5,0.1-7.5c0.2-2.4,1-4.5,3.4-5.7C257.9,522.8,272.4,515.9,287,509z"/>
	<path class="st3" d="M313.8,567c-0.2-7.5-0.7-15-0.6-22.4c0.1-12.1,0.7-24.3,3.2-36.2c0.5-2.3,0.4-6,3.3-6c2.9,0,2.8,3.6,3.3,5.9
		c2.7,12.8,3.2,25.7,3,38.7c-0.1,6.3-0.1,12.7-0.1,19c-1,6.2-1.9,12.4-2.9,18.6c-0.2,1.1-0.5,2.3-0.9,3.4c-0.4,1.2-0.7,2.8-2.3,2.9
		c-1.7,0.1-2-1.6-2.4-2.8C315,581.3,314.9,574.1,313.8,567z"/>
	<path class="st4" d="M479.3,404c3.6,0.1,7.2,0.2,10.8,0.3c1.5,6.8,2.4,13.7,7,19.4c1.9,2.4,3.6,4.3,6.9,2c1.7-1.2,3.8-1,5.6,0.3
		c3.1,2.2,6.5,3.7,11.1,4.5c-12.5,2.4-25.8-3-33.3-11.8C483.7,414.1,481.1,409.4,479.3,404z"/>
	<path class="st5" d="M368.1,398.1c2.4,0.3,5-0.7,7.3,1c-1.9,3.4-5.1,5.7-7.4,8.8C365.7,404.6,367.7,401.3,368.1,398.1z"/>
	<path class="st6" d="M529,431c-0.5,0.6-0.8,1.6-1.5,1.9c-1.4,0.6-2.9,0.7-4.3,0.1c-0.9-0.4-0.4-1.2-0.1-1.7
		c1.1-2.1,2.6-0.1,3.9-0.3C527.7,430.8,528.3,431,529,431L529,431z"/>
	<path class="st7" d="M529,431c1.2-2.8,3.4-3.4,6.8-2.7C533.6,430.4,531.1,430.2,529,431C529,431,529,431,529,431z"/>
	<path class="st0" d="M462,330.8c-11.7-5.7-23.4-11.4-35.1-17.1c-2.2-5.5-0.2-11.1,0.1-16.7c0.2-5.3-0.8-10.2-1.6-15.3
		c-0.4-2.9-2.5-4.2-5.3-4.3c-6.8-0.2-13.6-0.2-20.4,0c-4.5,0.2-5.6,3.2-6.1,7.1c-0.4,4.1,1,8.3-1.3,12.2c-6.9-3.3-13.9-6.5-20.8-9.8
		c-0.8-15-2.6-29.9-4.4-44.9c0.7-0.4,1.8-0.7,2-1.3c1.4-3.6,3.3-2.6,5.6-0.9c1.4,1,3.1,2.7,4.8,1.4c1.4-1.1,0-2.8-0.4-4.1
		c-0.8-2.4,0.5-3.5,2.5-4c3.1-0.7,5.3,0.7,6.2,3.5c0.6,1.8,0.6,3.8,2.6,5.2c-0.2-6.4,0-6.5,5.6-4.5c1.3,0.5,2.7,0.9,3.7-0.3
		c1-1.3,0.3-2.6-0.9-3.4c-2.7-1.8-1.4-3,0.5-4.4c7.2-5.3,15.2-7.3,24-5.6c1.5,0.3,3.6,0.3,2.7,2.4c-1.6,4,0.6,3.3,3,3
		c4.1-0.6,8.3-0.8,12.4-1.5c4.9-0.9,9.6-1.4,13.2,3.2c1.3,1.7,3.4,1.1,5.1,0.7c10.6-2.6,21-2.9,31.4,0.8c4.3,1.5,8.1,1.8,12.4-1.8
		c3.4-2.9,9.1-3.2,13.9-1.8c4.2,1.2,8.1,3.8,12.8,3.2c1.2-0.2,2.2,0.9,1.9,2.4c-0.4,2-1.6,0.9-2.6,0.6c-1.4-0.4-2.8-0.5-3.3,1.2
		c-0.5,1.5-0.4,2.7,1.1,3.9c5.2,4.5,5.3,6.7,0.1,10.9c-2.2,1.7-1.6,3.4-0.6,5.2c1.8,3.2,4.1,6.1,6.6,8.8c1.1,1.2,2.6,2.6,1,4.3
		c-1.5,1.6-3.4,1.1-4.9-0.1c-3.4-2.8-5.8-6.4-7.3-10.6c-0.8-2.5-1.2-5.2-2.1-7.7c-0.7-1.9-1.2-4.9-4.2-1.7c-0.9,0.9-1.4-0.2-1.7-0.9
		c-0.5-1.1-0.8-2.4-2.3-2.1c-1.3,0.3-0.8,1.6-1,2.5c-0.8,4.8-3.5,7-8.4,6.4c-4.4-0.6-5.7,1.2-4.4,5.4c0.3,1.1,1.3,2.2,0,3.6
		c-3.3,3.8-1,5.1,2.7,4.8c8.1-0.6,12.2,5.3,15.3,10.8c3.2,5.6,6.2,12.1,3.3,19.3c-0.6,1.3-0.8,2.7-1.8,3.9
		c-2.7,3.6-2.2,8.5,1.2,11.6c1.2,1.1,2.4,2.3,3.2,3.8c1.6,2.9-1,4.6-2.4,5.9c-1.9,1.8-2.5-1.1-3.3-2.1c-1.8-2.2-3.4-4.5-4.9-6.9
		c-1.3-2.1-2.4-4.1-5.3-2.3c-0.8,0.5-2.3,0.3-2.7-0.6c-1.8-3.4-3.4-1.4-5.2-0.1c-0.3,0-0.8,0-0.9-0.2c-3.6-7.3-10.2-6.9-16.8-6.6
		c-2.7,0.1-5.3,0-8,0c-6.6,0.2-8.7,2.2-8.8,8.7c-0.1,3.7,0,7.3,0,11C463.4,327.2,463.6,329.3,462,330.8z"/>
	<path class="st0" d="M276,214.9c-0.2,5.3-1.7,10.3-4.2,14.9c-3.9,1.4-5.6,5.4-8.9,7.6c-0.5,0.3-0.1,1.8-1.6,1.8
		c-2.4,0-2.5,2.6-2.7,3.7c-0.2,1.7,2.4-0.8,3.2,1.3c-8.5,2.8-16.3,6.9-24.4,10.5c-2.7,1.2-4.7,2.4-5.4,5.8c-0.7,3.6-4.2,4.3-7,2
		c-6.8-5.6-6.3-13.5,1.2-19.1c2.7-2.1,5.8-4,1.6-7.5c-0.8-0.6-0.1-1.1,0.1-1.6c1.9-6.4,0.3-8.7-6.4-9.2c-0.8-0.1-1.7,0.3-2.4-0.9
		c0.4-1.1,4.4-1.5,1.3-3.9c-0.8-0.6,0.1-1.7,0.9-1.8c4.9-1.1,8.1-5.1,12.8-6.6c5.5,2.6,11,2,16.7,0.8c3.9-0.9,8.1-0.4,12.2-0.6
		c2.7,0.2,5.7-0.2,7.1,3.1C272.1,217.7,274,214.7,276,214.9z"/>
	<path class="st1" d="M462,330.8c-0.1-6.1-0.2-12.2-0.1-18.4c0-5.6,2.5-8.1,8.2-8.2c4.8-0.1,9.6,0.4,14.4-0.1
		c6.8-0.7,11.6,1.3,13.6,8.2c-1.8,2.8-1.1,5.3,1,7.5c1.2,7.9-0.6,15.7-1.6,23.5c-0.2,1.5-0.7,2.9-2.3,3.6
		C484.1,341.6,473,336.2,462,330.8z"/>
	<path class="st0" d="M495.2,346.9c2-7.2,2-14.7,2.7-22.1c0.2-1.7-0.7-3.7,1.1-5.1c3.8,0.4,7.7,0.1,5.5,6.5
		c-0.9,2.8,3.6,5.2,5.5,7.8c4.2,5.6,4.6,14.3,0.1,20.1C504.9,352.2,500.1,349.6,495.2,346.9z"/>
	<path class="st8" d="M270,215c-2.4-1-4.7-2.1-7.1-3.1c3.8-1.5,7.5-1.5,11.6,0.2C272.9,213.2,271.5,214.1,270,215z"/>
	<path class="st1" d="M140.8,327.9c2.2-5.4,0.6-11.1,1.8-16.7c1.1-4.8,3.6-6.8,8.2-7c2-0.1,4-0.1,6,0c5.2,0.3,10.2,0,14.6-3.4
		c2.1-1.7,4.8-2.1,7.6-1.7c0,0,0-0.1,0-0.1c1.4,3.8-3.5,3.3-4,5.8c2.6,3.3,3,7.1,3.1,11.2c0.1,6-1.3,12.2,0.9,18.1
		c-11.4,5.6-22.7,11.2-34.1,16.7c-1.1-0.6-1.8-1.6-1.9-2.7C141.9,341.3,140.1,334.7,140.8,327.9z"/>
	<path class="st1" d="M247,301c-11.6,5.9-23.1,11.9-35,16.9c-0.7-5.4-1.4-10.8-1.9-16.2c-0.7-7,0.7-13.9,1.2-20.8
		c0.2-3.5,3.1-5.7,7.1-5.3c5.3,0.5,10.5,0,15.8-0.2c8-0.4,12.6,0.9,12.1,10C245.9,290.5,244.8,295.9,247,301z"/>
	<path class="st9" d="M175,304.8c-1-3.5,4.2-2.8,4-5.8c1.8,0.6,3.5,1.3,5.3,1.9C180.9,301.8,178,303.4,175,304.8z"/>
	<path class="st10" d="M167.9,252c1.7-0.9,3.6-1.5,4.9-3.2c0.5-0.7,1.5-1.2,1.9-0.1c0.2,0.5-0.4,1.5-0.7,2.2
		C172.4,253.5,170.1,252.6,167.9,252z"/>
	<path class="st11" d="M353.8,249c-9.1-11.3-19.9-17-33.7-17.1c-13.7-0.1-24.7,5.3-33.6,16.2c-1-16.2,14-30.6,29-32.1
		C335.6,214,352.3,228.1,353.8,249z"/>
	<path class="st1" d="M392.2,296.8c0-4.5-0.2-9,0-13.5c0.2-5.2,2.6-7.5,7.8-7.6c6.6-0.1,13.3-0.1,20,0c4.9,0.1,6.5,2.1,7.3,6.8
		c1.9,10.5,0.8,20.8-0.4,31.2C415.3,308.1,403.7,302.5,392.2,296.8z"/>
</g>
</svg>
