<?xml version="1.0" encoding="utf-8"?>
<!-- Generator: Adobe Illustrator 19.0.0, SVG Export Plug-In . SVG Version: 6.00 Build 0)  -->
<svg version="1.1" id="Calque_1" xmlns="http://www.w3.org/2000/svg" xmlns:xlink="http://www.w3.org/1999/xlink" x="0px" y="0px"
	 viewBox="0 0 612 792" style="enable-background:new 0 0 612 792;" xml:space="preserve">
<style type="text/css">
	.st0{fill:#FDED2E;}
	.st1{fill:#EBAE97;}
	.st2{fill:#E6FDFB;}
	.st3{fill:#E89074;}
	.st4{fill:#44E0E0;}
	.st5{fill:#010101;}
	.st6{fill:#F7ED92;}
	.st7{fill:#EF8960;}
	.st8{fill:#E35947;}
	.st9{fill:#E35A47;}
	.st10{fill:#E15A47;}
	.st11{fill:#4DE1E0;}
	.st12{fill:#4CE1E1;}
	.st13{fill:#E25A48;}
	.st14{fill:#53E0E0;}
	.st15{fill:#4DDFDE;}
	.st16{fill:#46E0DF;}
	.st17{fill:#46E0E0;}
	.st18{fill:#47E0E0;}
	.st19{fill:#D27150;}
	.st20{fill:#D17150;}
	.st21{fill:#11709A;}
	.st22{fill:#11719B;}
	.st23{fill:#12729B;}
</style>
<g>
	<path class="st0" d="M333,648c-12,0-24,0-36,0c-11.4-1.1-22.8-1.7-34-4.2c-41.1-9-77.9-26.8-110.3-53.7
		c-27.4-22.7-49.3-49.9-65.4-81.7c-12.9-25.4-21.6-52.3-25.1-80.7c-0.8-6.6-0.3-13.2-1.2-19.8c0-10.7,0-21.3,0-32
		c1-6.7,0.4-13.5,1.3-20.3c4.2-32.5,14.9-62.8,31.1-91.1c21.5-37.8,50.9-68.2,87.7-91.2c30.6-19.1,63.8-31.5,99.7-36.2
		c6.7-0.9,13.5-0.3,20.3-1.3c10.3,0,20.7,0,31,0c7.5,1,15.2,0.4,22.7,1.5c24.6,3.4,48.1,10.6,70.5,21.1c21.1,9.9,40.7,22,58.3,37.3
		c23.3,20.2,43.2,43.4,58.1,70.5c14.3,26,24.5,53.5,29.1,83c1.1,6.9,1.5,13.9,1.7,20.8c0.1,2.3-0.6,4.6,0.5,6.8c0,10.3,0,20.7,0,31
		c-1,6.9-0.4,13.9-1.4,20.8c-6.6,47.7-25.7,90-56.2,127.1c-28.5,34.6-63.9,60-105.7,76.3c-18.2,7.1-37,12.2-56.4,14.5
		C346.5,647.5,339.7,647,333,648z"/>
	<path class="st1" d="M364,394c-0.1,0.3-0.1,0.6,0,0.8c-1.3,1.8-3.5,1.7-5.4,2.3c-8.4,2.5-16.7,5.4-25.2,7.8
		c-2.7,0.7-5.3,1.6-7.9,2.4c-2.8,0.6-5.6,1.6-8.3,2.6c-1.8,0.6-3.6,1.2-5.5,1.5c-2,0.5-4,1.3-6,1.9c-1.6,0.5-3.1,1-4.6,1.6
		c-1.3,0.5-2.7,0.9-4,1.3c-1.4,0.3-2.8,0.8-4.2,1.2c-16.4,5.3-32.9,10.2-49.4,15.3c-4.7,1.5-9.6,2.6-13,6.6c-3-2.2-5.9-0.9-8.9,0.2
		c-1.9,0.6-3.7,1.3-5.7,1.8c-4.5,0.5-8.4,3.9-13.2,2.8c-13.3,4-26.7,7.9-40,12.2c-4.5,1.4-6.4,1.2-7.9-4
		c-11.1-37-22.6-74-34.2-110.9c-1.4-4.4,0.4-5.4,4-6.5c54-16.6,107.9-33.3,161.8-49.9c12.2-3.8,24.5-7.4,36.7-11.1
		c3.9-0.9,3.8,2.6,4.4,4.6c4,13,8,26.1,12,39.1c7.3,23.9,14.8,47.6,22.1,71.5C362.1,390.9,363.3,392.3,364,394z"/>
	<path class="st2" d="M230.2,438.7c0.7-2.7,2.2-4.2,5.2-5.1c19.3-5.7,38.4-11.7,57.6-17.5c1.9,1.2,3-0.2,4.3-1.1c1-1,2.2-1,3.5-1
		c2,0.3,2.2,2.9,4.4,3.5c0.3-1.8-1.6-3.4-0.3-5.1c2-0.7,4-1.3,6-2c1,0.7,0.9,1.7,0.9,2.7c0,5.9,0.2,6.1,7.3,6.3
		c-2-1.4-4.4-1.3-4.8-3.6c-0.5-2.6,1.4-3.2,3.3-4.2c1.7-0.9-1-1.5-0.7-2.6c2.6-1.6,5.5-2.3,8.5-2.8c5.6,0.1,5.5,0.1,5.3,6
		c-0.1,2.3-0.6,4.6-0.3,7.1c1.9-1.1,1.2-2.8,1.4-4.3c0.2-1.6,0.5-3.2,1-4.8c0.5-1.7,1.8-2.7,3.1-3.7c-0.1-1.6-2.3-1.2-2.6-2.6
		c10.2-3.2,20.1-7.3,30.7-8.9c20.6,2.3,41.2,4.5,61.8,6.8c-3.1,16-4.2,32.3-6,48.4c-2.8,24.4-5.5,48.8-8.1,73.3
		c-0.2,1.6-0.2,3.4-1.9,4.4c-26.1-2.9-52.3-5.8-78.4-8.7c-22.3-2.5-44.6-5-67-7.4c-19.8-2.2-39.7-4.5-59.5-6.5
		c-8.2-0.9-8.5-0.7-7.7-8.9c1.7-17.4,3.8-34.7,5.7-52c4.3-1.6,8.6-3.3,13.2-4c1.8,1.6,1.2,3.7,1,5.6c-1.1,11.6-2.5,23.1-3.8,34.7
		c-0.6,5.5,0.4,6.7,5.4,7.1c3.3,0.3,4.8-0.8,5.2-4.3c1.3-11.6,2.5-23.1,3.9-34.7C227.9,445.2,227.5,441.5,230.2,438.7z"/>
	<path class="st3" d="M364,394c-2.5,0.4-3-1.5-3.5-3.3c-11.2-36.7-22.5-73.5-33.8-110.2c-0.7-2.3-0.4-5.5-3.6-6.6
		c10.4-4.5,21.4-7,32.1-10.4c17.5-5.7,35.2-10.9,52.7-16.4c3.1-1,4.5-0.8,5.6,2.8c11.7,38.2,23.6,76.4,35.5,114.5
		c1.1,3.6-1.1,3.8-3.3,4.5c-25.4,7.8-50.7,15.6-76.1,23.4C367.8,392.9,365.9,393.5,364,394z"/>
	<path class="st4" d="M409.7,527.7c2.7-24.6,5.4-49.2,8.1-73.7c1.8-16,3.5-32,5.2-48c0.2-2-0.2-4.2,2.8-4.3
		c28.6,3.1,57.1,6.3,85.7,9.3c2.9,0.3,3.5,1.3,3.1,4.1c-3.6,32.2-7.1,64.4-10.7,96.6c-0.8,7.6-1.9,15.2-2.7,22.8
		c-0.3,2.7-0.9,3.6-3.9,3.3C468.1,534.2,438.9,531,409.7,527.7z"/>
	<path class="st5" d="M176.5,431.7c0.4,1.3,0.2,1.9-0.6,2.2c-3.7,1.1-7.3,2.3-11,3.2c-1.5,0.4-1.7-1.1-2.1-2.2
		c-5-16.3-10.1-32.7-15.1-49c-0.1-0.3-0.4-0.7-0.3-0.9c1.9-4,6.4-2.8,9.5-4.5c1.3-0.7,3.2-1.6,4,1c5.2,16.8,10.4,33.6,15.5,50.5
		C176.6,432,176.6,432.2,176.5,431.7z"/>
	<path class="st5" d="M230.2,438.7c-1.8,15.9-3.6,31.7-5.2,47.6c-0.3,2.7-1.1,3.2-3.7,2.9c-10.7-0.9-10.6-0.8-9.5-11.1
		c1.4-12.7,2.7-25.5,4.1-38.2c3.8-1.3,7.7-2.5,11.4-3.9C230.2,435,230.2,436.9,230.2,438.7z"/>
	<path class="st6" d="M146.3,364c-6.5-0.1-12.3-5.9-12.3-12.5c0-7,6.1-12.7,13.4-12.5c6.9,0.1,12.8,6.1,12.2,13
		C159,357.7,155.5,364.3,146.3,364z"/>
	<path class="st7" d="M188.3,386.7c-1.2,0.2-2-0.1-2.2-1.4c-0.3-1.8,1-2.2,2.3-2.7c7.8-2.5,15.5-5,23.3-7.4
		c22.4-6.9,44.7-13.8,67.1-20.7c8.2-2.5,16.5-5.1,24.7-7.6c1.5-0.5,3.3-1.5,4,1.1c0.6,2.3-1.4,2.4-2.7,2.8
		c-38.2,11.8-76.4,23.5-114.7,35.3C189.5,386.3,188.9,386.5,188.3,386.7z"/>
	<path class="st7" d="M300,360.8c-0.5,2.7-2.5,2.8-4.2,3.4c-14.6,4.6-29.2,9.1-43.8,13.7c-19.5,6.1-39,12.1-58.6,18.1
		c-1.3,0.4-3.3,2.3-4.2-0.3c-1-2.7,1.7-2.9,3.2-3.4c21.7-6.8,43.5-13.5,65.2-20.3c12.7-3.9,25.4-7.9,38.1-11.8
		C297.1,359.9,299.2,358.1,300,360.8z"/>
	<path class="st7" d="M285.9,343.2c-0.2,2.3-2.2,2.1-3.4,2.5c-12,3.8-24.1,7.4-36.1,11.2c-19.8,6.1-39.6,12.2-59.4,18.3
		c-1.8,0.6-3.8,1.6-4.6-1c-0.8-2.7,1.9-2.1,3.3-2.5c31.8-9.9,63.7-19.7,95.5-29.6C282.9,341.6,285,340.2,285.9,343.2z"/>
	<path class="st8" d="M215,331.7c-1.5,2.3-0.9,3.9-0.4,5.4c0.4,1.3,0.4,2.4-1.1,2.7c-1,0.2-2.1,0.1-2.5-1.1
		c-1.6-4.9-3.2-9.8-4.6-14.7c-0.3-0.9,0.5-1.5,1.3-1.8c1.1-0.4,2-0.1,2.5,1c0.6,1.3,1.1,2.7,2.1,4.8c1.1-2.9,1.9-5.1,2.9-7.3
		c0.7-1.5,2.3-2.4,3.7-1.6c1.3,0.7,0.4,2.3-0.2,3.1c-3.7,5.3,0.3,7.6,3.6,10.5c1,0.8,3.3,1.7,1.8,3.4c-1.3,1.6-3.3,1.1-4.8-0.4
		C218,334.5,216.6,333.3,215,331.7z"/>
	<path class="st9" d="M231.8,330.5c0.5-0.2,0.9-0.4,1.4-0.4c1.7,0,4.2-2.8,4.9,0.6c0.6,3-2.7,2.2-4.2,2.8c-6.4,2.2-6.4,2.1-8.3-4.3
		c-0.4-1.4-0.9-2.8-1.4-4.3c-2.4-7.4-1.6-8.6,6-9.8c1.4-0.2,2.9-0.3,3.3,1.3c0.4,1.7-1.5,1.4-2.3,2c-1.2,1-4.4,0-3.3,3
		c0.7,2.2,2.6,1.4,4.2,0.9c1.1-0.3,2.5-0.8,2.8,0.8c0.4,2-1.3,2.4-2.8,2.7c-1.7,0.3-2.9,0.8-2.2,2.9
		C230.2,329.9,230.4,330.9,231.8,330.5z"/>
	<path class="st9" d="M191.9,333.8c0-5.2,3.7-9.3,8.8-9.8c1.1-0.1,2.5-0.5,2.9,1.1c0.4,1.7-0.7,2.4-2.2,2.6
		c-2.8,0.3-4.7,1.6-5.3,4.5c-1,5,3.1,8.4,8.3,7c1.2-0.3,2.5-1.5,3.3,0.5c0.7,1.8-0.9,2.3-2,2.8C198.5,345.9,191.9,341.7,191.9,333.8
		z"/>
	<path class="st9" d="M178.2,350.7c-1.4-0.1-1.5-1.2-1.8-2.1c-0.9-2.5-1.6-5-2.4-7.6c-0.6-2.3-0.9-4.9-4.4-3.4
		c-1.2,0.5-1.9-0.4-2.2-1.4c-0.3-1.2,0.7-1.8,1.7-2.1c3-0.9,6-1.8,9-2.7c1-0.3,2.1-0.6,2.6,0.5c0.6,1.3,0,2.4-1.3,2.8
		c-3.2,0.7-2.1,2.6-1.5,4.6c0.9,2.8,1.6,5.7,2.6,8.6C181.2,350,179.6,350.2,178.2,350.7z"/>
	<path class="st10" d="M248.9,311.9c-0.1,0.3-0.1,0.8-0.3,0.9c-6.2,2.7-1.7,6.8-1.3,10.3c0.2,1.3,0.7,2.6,1.2,3.8
		c0.6,1.5-0.1,2.1-1.3,2.6c-1.5,0.7-2.2-0.2-2.6-1.4c-0.9-2.7-1.7-5.4-2.6-8c-0.7-2-0.7-5.1-4.4-3.4c-0.8,0.4-1.6-0.1-2-1
		c-0.4-0.9-0.2-1.8,0.7-2.1c3.6-1.2,7.2-2.4,10.9-3.5C248.1,309.8,248.9,310.6,248.9,311.9z"/>
	<path class="st11" d="M333.2,403.7c1.5,0.2,3,0.3,4.4,0.5c1,0.1,1.3,0.9,1.3,1.8c0,0.9-0.3,1.9-1.3,1.8c-4.9-0.6-3.9,3.4-4.5,5.9
		c-0.5,2.1-0.3,4.3-0.6,6.4c-0.2,1.6-1.4,2.1-2.9,1.8c-1.6-0.3-1.6-1.4-1.5-2.6c0.3-2.5,0.2-5,0.9-7.3c1-3.7-0.4-5.4-3.9-5.9
		C327.9,405.3,330.6,404.5,333.2,403.7z"/>
	<path class="st12" d="M316.8,409c1,0.3,1.9,0.6,2.9,0.8c1.2,0.2,2.5,0.3,2.1,2c-0.2,1.3-1.4,1.2-2.4,1.2c-1,0-2,0-3,0
		c-1,0.1-1.4,0.7-1.5,1.6c-0.1,1.1,0.1,2,1.4,2.2c1.3,0.2,2.6,0.4,3.9,0.7c1.1,0.2,1.8,0.9,1.5,2.1c-0.2,1-1,1.3-1.9,1.2
		c-2.8-0.3-5.6-0.6-8.4-1c-1.6-0.2-1.6-1.5-1.5-2.7c0.2-2.3,0.6-4.6,0.9-6.9C312.9,409.9,314.8,409.4,316.8,409z"/>
	<path class="st13" d="M191.8,345.1c0.2,1.3-0.6,1.7-1.7,2c-1,0.3-2,0.4-2.4-0.9c-1.6-4.9-3.1-9.8-4.6-14.7
		c-0.3-1.1,0.6-1.9,1.6-2.2c1.1-0.4,2-0.1,2.4,1.1C188.7,335.3,190.3,340.2,191.8,345.1z"/>
	<path class="st14" d="M304.9,412.3c0.9,2.3,1.9,4.5,2.9,6.9c-4.9,1.2-5.6-2.4-6.9-5.3C301.9,412.7,303.5,412.8,304.9,412.3z"/>
	<path class="st15" d="M297.4,414.9c-0.4,1.1,0.2,2.9-1.7,3.1c-1.4,0.2-2.7,0-2.6-2C294.4,415.3,295.8,414.8,297.4,414.9z"/>
	<path class="st16" d="M375.3,464.6c-12.6-1.3-25.1-2.6-37.7-4c-19.5-2.2-38.9-4.4-58.4-6.6c-8.1-0.9-16.2-1.9-24.2-2.9
		c-1.5-0.2-3.3,0-2.9-2.3c0.4-2.4,2.1-1.4,3.5-1.2c29.1,3.2,58.1,6.3,87.2,9.5c10.9,1.2,21.8,2.5,32.7,3.8c1.3,0.2,2.8,0.1,2.7,2.1
		C378,464.9,376.6,464.9,375.3,464.6z"/>
	<path class="st17" d="M255.8,458c16.4,1.8,32.6,3.6,48.7,5.4c16.8,1.9,33.7,3.8,50.5,5.6c2.8,0.3,5.6,0.7,8.4,1
		c1.4,0.1,2.7,0.2,2.6,2.1c-0.1,1.9-1.4,2-2.8,1.8c-12.7-1.4-25.4-2.9-38.1-4.3c-16.5-1.9-33-3.7-49.5-5.5
		c-6.6-0.7-13.2-1.3-19.8-2.1c-1.8-0.2-4.8,0.3-4.6-2.4C251.4,456.4,254.4,458.6,255.8,458z"/>
	<path class="st18" d="M355.6,451c-16.3-1.8-32.3-3.4-48.3-5.2c-16.7-1.9-33.3-3.8-50-5.7c-1.6-0.2-4.3,0.7-4.1-2.2
		c0.2-2.9,2.8-1.8,4.3-1.7c22.1,2.4,44.2,5,66.3,7.5c10.2,1.2,20.5,2.2,30.7,3.3c0.3,0,0.7,0,1,0c1.8,0.4,4.8-0.4,4.4,2.6
		C359.6,452.3,356.9,450.5,355.6,451z"/>
	<path class="st19" d="M387.7,367.6c0.2,1.1-0.4,1.9-1.5,2.1c-1.9,0.5-2.1-1.1-2.5-2.3c-2.7-8.5-5.6-17-8.2-25.6
		c-4.5-14.7-9-29.5-13.4-44.2c-0.4-1.5-1.7-3.2,0.9-4.1c2.6-0.8,2.2,1.5,2.6,2.6c7.2,23.1,14.4,46.2,21.5,69.3
		C387.2,366.2,387.4,366.8,387.7,367.6z"/>
	<path class="st19" d="M352.4,307.1c1.9,0.4,2.2,2,2.6,3.4c3.7,11.7,7.3,23.4,11,35.1c2.4,7.7,4.8,15.5,7.1,23.2
		c0.5,1.6,2.2,3.8-0.2,4.7c-2.5,1-2.7-1.8-3.2-3.4c-6.2-19.8-12.3-39.5-18.5-59.3C350.7,309.4,349.8,307.6,352.4,307.1z"/>
	<path class="st20" d="M385.4,321.2c1.7,0.1,2.2,1.2,2.6,2.6c3.9,12.8,8,25.6,11.9,38.4c0.3,1.1,1.3,2.7-0.5,3.4
		c-2.1,0.8-2.7-1-3.1-2.3c-2.5-7.6-4.8-15.2-7.2-22.8c-1.6-5.2-3.1-10.5-4.7-15.7C384,323.4,383.4,321.9,385.4,321.2z"/>
	<path class="st21" d="M451.9,440.4c-1.4,13.1-2.8,25.8-4.2,38.5c-1.2,10.7-2.5,21.4-3.7,32.1c-0.2,1.5,0.6,3.8-2,3.7
		c-3-0.2-2-2.6-1.8-4.2c2.6-23.7,5.2-47.5,7.9-71.2c0.2-1.5-0.4-4,2.2-3.5C453.3,436.4,451.6,439.1,451.9,440.4z"/>
	<path class="st22" d="M436.9,447.8c-1.9,16.4-3.7,32.6-5.6,48.7c-0.5,4.3-0.9,8.6-1.4,12.9c-0.2,1.6,0.2,3.8-2.4,3.4
		c-2.6-0.3-1.7-2.6-1.5-4c1.3-12.7,2.8-25.4,4.2-38.1c0.9-7.6,1.8-15.2,2.7-22.8c0.2-1.7-0.6-4.2,2.4-3.9
		C437.9,444.3,436.7,446.6,436.9,447.8z"/>
	<path class="st23" d="M461.9,472.9c-1.6,13.6-3.2,26.7-4.7,39.8c-0.2,1.6,0,3.7-2.6,3.1c-2.2-0.5-1.3-2.3-1.1-3.7
		c1.5-13.1,3-26.3,4.5-39.4c0.2-1.6-0.4-3.7,2.3-3.4C462.8,469.6,461.7,471.8,461.9,472.9z"/>
</g>
</svg>
