<?xml version="1.0" encoding="utf-8"?>
<!-- Generator: Adobe Illustrator 19.0.0, SVG Export Plug-In . SVG Version: 6.00 Build 0)  -->
<svg version="1.1" id="Calque_1" xmlns="http://www.w3.org/2000/svg" xmlns:xlink="http://www.w3.org/1999/xlink" x="0px" y="0px"
	 viewBox="0 0 612 792" style="enable-background:new 0 0 612 792;" xml:space="preserve">
<style type="text/css">
	.st0{fill:#FDC547;}
	.st1{fill:#FDD34F;}
	.st2{fill:#FD5722;}
	.st3{fill:#785548;}
	.st4{fill:#F7BB41;}
	.st5{fill:#FDC447;}
	.st6{fill:#1C5E20;}
	.st7{fill:#FDD44F;}
	.st8{fill:#BE360C;}
	.st9{fill:#FCD34E;}
	.st10{fill:#FCC447;}
	.st11{fill:#939C39;}
</style>
<g>
	<path class="st0" d="M482.1,379c-3.3,12-8,23.4-12.4,34.9c-3.6,1.3-7.2,0.6-10.5-0.7c-4-1.6-8-3-12.5-2.5c-2.1,0.2-3.8-1.1-5.6-1.8
		c-3.3-1.3-6.6-2-10.1-1.9c-1.8,0.2-3.6-0.1-5.2-0.9c-3.8-1.7-7.9-2.2-12.1-2.1c-2.1,0.3-4-0.3-5.9-1c-3.8-1.1-7.7-2.1-11.7-1.1
		c-1.6,0.3-3.1-0.1-4.5-0.8c-3.9-1.4-7.9-1.9-12-1.5c-2.4,0.7-4.7,0.4-7-0.5c-4.1-0.8-8.2-1.7-12.5-1.3c-2.5,0.8-4.9,0.4-7.4-0.1
		c-4.2-0.9-8.5-1.5-12.7-0.1c-3,1-5.8-1-8.8-1c-8.4,0.2-16.9,0-25.3,0.2c-5.2,0.1-10.3,1.6-15.6,1.2c-6.3-0.7-12.4,0.4-18.5,1.5
		c-3.6-1.3-7.3-0.1-10.8,0.3c-12,1.3-23.9,3.1-35.9,4.2c-4.5,0.4-9,0.9-13.2,2.5c-2.2,0.9-4.6,0.7-6.9,1c-14,1.7-28,3.4-41.6,7.1
		c-3.6,1-7.2,1-10.9,0.5c-0.8-0.1-1.5-0.6-2.2-1.1c-4.3-11.2-8.7-22.4-12.1-34c0.6-0.9,1.4-1.5,2.4-1.7c8.1-1.1,15.7-3.9,23.8-5.1
		c13.1-1.8,26.3-3.2,39.2-6.6c2-0.5,3.9-0.7,5.9-0.6c5,0.1,10-0.3,14.8-1.8c2.9-0.9,5.7-1.2,8.8-1.2c5.6,0,11.3-0.3,16.7-2.3
		c1.9-0.7,3.9-0.9,5.9-0.6c0.3,0.1,0.7,0.2,1,0.1c12-1.1,24-1.6,36-2.9c2.2-0.2,4.3-0.4,6.4-0.2c5,0.5,10,0.9,14.9-0.6
		c1.6-0.5,3.3-0.5,4.9,0c1.6,0.5,3.2,1.2,4.9,0.9c9.7-1.5,19.5,0.8,29.2-0.4c3.5-0.4,6.5,1.9,9.8,1.4c9.7-1.3,19.1,1.3,28.6,2.1
		c7.7,0.6,15.9,1.1,23.6,3.4c2.2,0.7,4.6,1.2,6.9,1.1c3.7-0.2,7.2,1.4,10.6,1.7c9.1,0.9,18,3.3,26.7,5.4
		C466.7,374.1,475.3,373.7,482.1,379z"/>
	<path class="st1" d="M482.1,379c-6.6-3.1-14.3-1.5-20.8-5.5c-2.4-1.5-6.4,0.2-9.5-1.1c-5.9-2.4-12.4-2.1-18.5-3.6
		c-11.9-3.1-24.2-3.2-36-6c-6.2-1.4-12.6,0.9-18.3-1.9c-4.7-2.3-9.4,0.1-14.1-0.9c-7.9-1.7-16.1,0-23.8-1.4c-4.8-0.8-9,1.1-13.3,0.3
		c-10.7-2.1-21.4,1.8-32.1-0.8c-2.7-0.7-4.9,2.2-8,2c-8.2-0.4-16.3,0.9-24.4,1.3c-8.2,0.5-16.1,2.6-24.2,2.5
		c-8.7-0.1-17,3.3-25.6,3.3c-10.3-0.1-19.7,5.2-30.1,3.9c-3.4-0.4-6.1,2.6-9.4,2.7c-12.3,0.4-23.9,4.1-35.9,6.2
		c-3.7-10-7.3-20-11-30c1.7-1.9,4.1-2,6.4-2.4c29.8-5.3,59.6-10.4,89.5-14.6c2.8-0.4,5.6-0.8,8.4-0.4c0.9,0.3,1.2,1,1.3,1.9
		c0.1,2.2-0.7,4.3-0.5,6.4c0.5,5,4.4,8.3,9.2,7.7c4.8-0.6,8.3-5.3,7.4-10c-0.4-1.8-1.2-3.5-1.1-5.4c0.1-1.2,0.5-2.3,1.6-2.9
		c6.6-1.8,13.5-2,20.3-2.5c23.5-1.9,47.1-3,70.8-2.2c7,0.3,13.9,0.8,20.9,1c3.1,0.1,6.3,0.5,9.2,1.8c1.9,1.5,1.6,3.7,1.6,5.7
		c-0.3,2.1-1,4.2-0.9,6.3c0.1,4.7,3.6,8.1,8.2,8.1c4.6,0,8-3.5,8.1-8.1c0-2-0.5-3.9-0.8-5.9c-0.1-1.4,0-2.8,1.1-3.9
		c2.8-1.6,5.8-1,8.7-0.7c31,3.9,61.5,10.1,91.8,17.9c1.6,0.4,3.3,0.6,4.4,2.1C489.3,359.7,486.3,369.6,482.1,379z"/>
	<path class="st2" d="M371.1,334.9c0-2-0.1-3.9-0.1-5.9c-1.6-1.8-1.5-4-1.5-6.1c0-9.3-0.1-18.6,0.1-27.8c0.2-14.1,0.2-28.3,0.1-42.4
		c-0.2-30.7-27.1-56.5-57.8-57.4c-29.2-0.9-55.8,20.6-60.8,49.4c-0.4,2.3-0.6,4.6-0.6,6.9c0,14.8-0.1,29.6,0.1,44.4
		c0.2,9.6,0.1,19.3,0.1,28.9c0,2.2,0,4.4-1.5,6.1c-0.1,1-0.2,2-0.3,3c-1.1,0.3-2-0.2-2.8-0.7c-4.1-2.7-7.9-2.1-11.5,0.8
		c-0.6,0.5-1.3,1.1-2.2,0.8c-0.1-0.6-0.1-1.3-0.2-1.9c-1.9-1.9-1.6-4.3-1.6-6.6c-0.1-6.6-0.9-13.4,0.1-19.9
		c3.1-19.1,1.3-38.3,2.2-57.4c1.9-36.4,32.5-68,69-71.2c47.2-4.2,85.6,30.8,85.9,78.2c0.1,13.3,0.2,26.6,0.3,39.9
		c1.4,1.4,1.6,3.2,1.6,5.1c0.1,8.3,0.1,16.5,0,24.8c0,1.8-0.3,3.6-1.6,5.1c0,1.3,0,2.6-0.1,3.9c-0.5,0.2-1,0.2-1.4-0.2
		c-4.7-4.4-9.3-3.9-14,0C372.1,335.1,371.6,335.1,371.1,334.9z"/>
	<path class="st3" d="M415.8,534.8c-70.5,0-141.1,0-211.6,0c-0.2-2.8,2.2-3.5,3.9-4.5c12.6-7.3,26.2-12.1,40.3-15.8
		c13.5-3.6,27.3-5.7,41.3-6.8c2.4-0.2,4.9-0.3,4.2-3.9c-0.2-11.4-2.7-22.2-6.8-32.8c-4.1-11.3-9.7-21.9-16-32.1c-1.9-3-4-5.7-5-9.2
		c-0.2-1.5,0.2-3,0.4-4.5c1-5.2,1.5-5.4,6.5-2.9c11.3,14.8,19.5,31.3,26,48.7c3.3,9,5.5,18.3,5.8,28c0.1,0.7,0.9-0.3,0.3,0
		c-0.3,0.1-0.4,0.1-0.4-0.2c0.1-5.8,2.8-10.9,5.1-16c2.1-4.7,4.6-9.2,7.3-13.6c9.2-14,19.7-26.9,32.1-38.3c2.1-2,2.8-5.3,6.1-6
		c4.1,1.9,7.1,4.6,6.4,9.7c-12.1,9.8-22,21.6-31,34.3c-7.3,11-14.3,22.2-16.4,35.6c0.3,2.8,2.7,2.1,4.3,2.3
		c9.9,1.3,19.8,1.4,29.7,2.9c21,3.2,41.3,8.8,60.2,18.7C411.2,529.8,415.3,530.5,415.8,534.8z"/>
	<path class="st1" d="M313,504c2.5-13.5,9-25.1,16.9-36c4-2.4,8-1.2,12-0.2c1.8,0.9,3.5,0.2,5.3,0.1c10.4-0.6,20.7,1,31,1.9
		c1,0.1,1.9,0.6,2.6,1.3c0.9,3.9,1.6-1.2,2.5-0.1c0.8-0.3,1.6-0.5,2.4-0.4c9.9,1.6,20,1.4,29.7,4.6c1.8,0.6,3.5,0.7,5.4,0.6
		c2.7-0.2,22.5,4.1,24.3,5.2c-3.3,11.6-7.9,22.7-12.1,34c-8.2-2.8-16.9-3-25.4-4.2c-9.3-1.3-18.7-2.3-28.1-3.4
		c-9.2-1-18.6,0.1-27.7-2.3c-2.7-0.7-5.6,0.6-8.4,0.4c-8.1-0.7-16.1-0.8-24.2,0C317,505.6,314.8,505.7,313,504z"/>
	<path class="st4" d="M232.8,249.1c-0.1,16.7,0.7,33.4-0.5,50.1c-0.8,11.2-0.2,22.5-0.3,33.8c-8.4,1.3-16.9,2.6-25.3,4
		c-11.6,1.8-23.1,3.6-34.6,5.5c-15,2.5-29.9,5-44.8,7.5c-3-7.9-6.2-15.7-8.8-23.7c-1.7-5.3,1.4-10,7-11.1c26-4.8,52.1-9.5,78.2-14.2
		c8.5-1.5,16.8-3.8,25.5-4.1c3.1-0.1,3.1-2.2,3.1-4.5c0-12.5,0-25,0-37.4C232.1,253,231.7,251,232.8,249.1z"/>
	<path class="st4" d="M387.9,331c0-11.7,0-23.3,0-35c17.9,1.1,35.6,4.2,53.2,7.3c17.8,3.1,35.4,7.2,52.9,11.7c7.2,1.9,9.5,6,7,13.1
		c-2.6,7.3-5.5,14.6-8.2,21.9c-11-1.5-21.5-5-32.3-7.3c-20.3-4.4-40.7-8.2-61.3-10.8C395.5,331.4,391.7,331,387.9,331z"/>
	<path class="st1" d="M287.9,470c4.6,10.9,7.5,22.1,7.2,34c-7.9,1.9-15.8,3.3-24,2.8c-4.4-0.3-8.4,1.9-12.8,1.7
		c-11.5-0.7-22.8,1.7-33.9,3.4c-10.5,1.6-21.6,0.9-31.7,5.1c-1.5,0.6-3.3,0.6-4.9,0.3c-4.2-11.4-8.4-22.8-12.6-34.2
		c1.7-1.7,4-2,6-1.9c8.3,0.1,16-3.2,24-3.7c10.8-0.6,21.1-4.4,32-4c4.7,0.2,9.4-2.5,14.2-2.2c11.1,0.6,21.9-4.1,33.1-1.9
		C285.7,469.4,287,469.2,287.9,470z"/>
	<path class="st0" d="M287.9,470c-2.7,0.9-5.3,1.1-8.3,0.2c-4.3-1.3-9.1-0.4-12.7,1.1c-6.2,2.6-12.3-0.3-18.4,1.5
		c-8.7,2.6-18.3,0.9-26.7,3.6c-7.7,2.4-15.8,0.3-23.1,3.5c-7.5,3.3-15.7,1.6-23.4,3.1c-4.3-11.6-9-23-12.3-35c1-2.3,3.1-2.4,5.1-2.4
		c7,0,13.7-1.5,20.5-3.2c6.1-1.6,13.1-0.1,19.2-2.3c6.2-2.2,12.5-1.2,18.6-2.4c1.3-0.2,2.7-0.1,3.9,0.4c1.8,0.9,1.9,2.6,2,4.3
		c0.1,7.1,2.1,13.7,4.2,20.6c0.4-3.1,0.2-6.1,0.4-9c0.1-1.7-0.3-3.9,2.4-4.2c2-0.2,0.8-1.4,0.7-2.2c-0.3-2.1-1.1-4.2-1-6.4
		c0.1-1.8-0.6-4.3,2.6-4.3c1.1,0,1.4-1,1.4-1.7c0.2-4.7,3.8-6.5,7.2-8.6c1.9-1.1,2.3-0.4,2.6,1.3c0.1,0.5,0,1,0,1.5
		c-0.6,15.4,5.3,25.6,18.5,32.5c-4.4-3.6-8.3-8.6-10.4-13.7c-2.1-5.2-4.2-11.7-0.8-17.9c1.7-3.1,3.2-3.3,6.9-0.1
		C275.2,442.8,283.1,455.6,287.9,470z"/>
	<path class="st1" d="M231.2,439c-9.5,0.1-18.8,1.1-28,3.4c-1.4,0.4-2.9,0.5-4.4,0.6c-12.1,0.5-23.7,4.8-35.8,5
		c-4.2-11.3-8.5-22.7-12.7-34c9.5,1.7,18-4,27.2-4c10.6,0,20.4-4.7,31.1-4.4c4.8,0.2,10.1-3.2,15.3-2.9c10,0.6,19.3-4.3,29.6-3
		c4.5,0.5,9.5-1.7,14.4-2.2c1.6-0.1,3.3-1.2,4.1,1.2c-3.1,4.3-7.4,7.6-9.9,12.3c-0.9,1.8-2.6,2-4.3,1.1c-4.3-2.2-8.4-4.9-13.6-3.2
		c-6.1,2-9.7,6.7-13.1,11.7c-0.5,0.7-0.9,1.4-1.6,2.4c3.3-3.2,7.8-3.5,10.8-7.1c1-1.2,6.3-3.7,9.4,0.2c0.1,0.7,0,1.5-0.3,2.1
		c-0.6,0.8-1.5,1.3-2.4,1.7c-7.2,3.2-11.5,8.8-13.6,16.3C233,437.3,233,438.9,231.2,439z"/>
	<path class="st0" d="M445,481c-6.4-0.5-12.7-2.4-18.9-2.8c-9-0.6-17.2-4.5-26.6-3.9c-5.1,0.3-11-2.5-16.8-2.4
		c-1.2-2.5,0.5-4.6,1.3-6.6c2.8-6.4,3.9-13,3.6-19.9c-0.3-7.9-3.5-14.1-9.9-18.6c-1.2-0.9-2.5-1.6-3.7-2.6c-1.2-1-1.6-2.1-0.8-3.5
		c0.7-1.2,1.8-1.4,3-1.1c4.3,1.2,8.9,1.9,10,7.4c0.1,0.6,0.3,0.6,0.3,0.5c2.4-2.4,3.4,0.3,4.7,1.4c1.7,1.5,3.1,3.5,5.3,4.5
		c2,0.5,3.6,1.6,5.5,2.2c8.8,1.3,17.6,2.8,26.5,3.9c7.6,0.9,14.7,3.8,22.5,4c2.2,0,5.8,0.8,6.1,4.6C453.6,459.4,449.9,470.4,445,481
		z"/>
	<path class="st1" d="M457.2,448.2c-3.8-4.2-9.3-2.8-13.9-4.3c-8.9-2.9-18.3-2.5-27.3-5.4c-4.4-1.4-10-0.3-14.9-1.6
		c-0.4-1.2,0.2-1.9,1-2.5c10.8-8.3,19.8-18.4,29-28.5c0.6-0.8,1.3-0.8,2.2-0.4c8.9,3.6,18.9,2.8,27.7,7.1c2.6,1.2,5.9-0.1,8.8,1.3
		C465.5,425.4,461.3,436.8,457.2,448.2z"/>
	<path class="st0" d="M313,504c5.7-0.7,11.6,1.6,17-1.8c1-0.6,2.3-0.2,3.3,0.6c1.1,0.9,2.3,1.2,3.7,1.2c8.2,0.1,16.3,0.1,24.5,0.7
		c7,0.5,14,2.2,20.8,1.7c8-0.6,15.2,3.5,23.2,2.1c3.4-0.6,7.7,3,11.4,2.3c5.3-1,9.5,2.2,14.3,2.6c0.6,0,1.2,1.1,1.7,1.6
		c-1.7,4.9-3.1,9.8-5,14.5c-2.2,5.5-7,5.9-12.1,5.3c-3.6-3.6-8.2-5.5-12.7-7.6c-23.8-11.2-49.2-16.6-75.3-18.3
		c-4.1-0.3-8.3-0.7-12.4-0.7C311.7,508.2,311.4,506.7,313,504z"/>
	<path class="st5" d="M187.8,517.2c5.6-1.6,10.8-4.5,16.9-4.3c6.1,0.2,12.2-0.2,17.8-2.9c1.3-0.7,2.7-0.5,4.3-0.3
		c6,0.8,11.6-0.6,17.4-2c4.3-1.1,9.1-0.2,13.6-0.7c9.1-1.1,18.2-1.4,27.3-2.2c3.3-0.3,6.4-2.2,9.9-0.7c1.9,4.6-0.8,4.8-4.3,5.1
		c-29,2.2-57,8.3-82.7,22.8c-1.4,0.8-3.1,1.4-3.9,3c-8.8,0.5-10.4-0.5-13.5-8.8C189.6,523.2,188.8,520.2,187.8,517.2z"/>
	<path class="st6" d="M249.2,415.8c-3,0.3-7.6-0.4-8.7,1.2c-3.3,5-9.7,4.6-13.2,8.9c3.3-7.4,7.4-14,14.9-17.7c5-2.4,10-1.4,14.1,1.8
		c3.3,2.5,4.4,1.6,6.1-1.6c2.1-4.1,5.3-7.5,9.6-9.8c5.8-2.3,11.7-3.3,17.8-1.3c5.8,0.5,8.4,4.7,10.5,9.3c0.5,1.1,0.6,2.4-0.4,3.2
		c-0.9,0.7-1.9,0.1-2.7-0.5c-3-2.4-7.1-2.5-10.3-4.6c-2.1-1.4-11.8,3-14.3,6.1c14.8-0.8,23.6,6.5,27.7,20.1c1.6,8.2,2.7,16.4,1,24.7
		c-0.3,1.3-0.1,3.1-1.6,3.3c-1.8,0.2-2-1.8-2.5-3.2c-0.7-2-1.1-4.2-1.7-6.3c-0.3-1.1-0.4-2.9-1.4-3.1c-4.7-0.9-3.5-4.2-3.5-7.2
		c-0.1-2.2,1.1-5.7-3.5-5.1c-0.5,0.1-1.1-0.9-1.1-1.5c-0.3-6.4-6.8-6.4-9.9-9.8c-1-1.1-2.2,0.1-3.2,0.4c-1.4-0.4-2.8-0.9-4.4-1.4
		c-0.5,2.9-1,5.7-1.5,8.5c-2,0.5-4-3.1-5.2-1c-1.6,2.7-2.1,6.1-2.4,9.3c-0.1,1.4,1.4,3,2,4.5c0.4,1.1,3.2,2.5-0.5,3.3
		c-1.1,0.2,0.1,1.5,0.5,1.8c5.3,4.3,7.3,11.6,13.6,14.9c0.1,0.1,0.2,0.3,0.2,0.4c-13.5,0.9-27.1-20.1-23.5-36.6
		c-1.9,0.6-2,5.3-5.3,2.4c-1.6,2.2-2.4,4.8-2.5,7.4c0,3.8-0.9,4.5-3.8,0.7c-0.4,5.3,0.7,9.7,2.1,14.1c-1.6,0.7-2.4-1.2-4.2-0.7
		c-0.1,4.9,0,10-1.2,16.1c-4.6-9.4-6.1-18.3-5.7-27.6c2.2-10.2,7.5-17.8,17.7-21.2c1.5-1.8,4-1.2,6-2.7c0.3-0.1-0.8-0.5-0.3,0
		C252.8,416,251.2,417.2,249.2,415.8z"/>
	<path class="st7" d="M299.1,431c-5.9-15.6-10.2-18.4-30.1-19.2c3.7-3.4,5.8-8.7,12.1-6.9c0.4,0.1,1.3,0.1,1.4-0.2
		c2.3-6.2,5-0.9,7.2,0c3.4,1.3,7.9,0.3,9.9,4.8c-1-6.1-4.8-9.6-9.8-12.3c0.7-1.2,1.8-1.5,3-1.3c8.6,1.4,16.9-2.4,25.7-0.5
		c3.8,0.8,9-1.2,13.2-0.3c8.1,1.8,16.5-2.2,24.4,1.6c1.3,0.6,2.6-0.3,3.8-0.8c2.5,4.6-1.6,6.4-3.7,9.1c-2.1,0.6-3.4-1-4.9-1.9
		c-8.8-5.1-17.7-3.9-24.7,3.5c3.9-0.9,8-3,11.4-2.7c4.4,0.3,9.8,1.5,12.9,5.6c1.4,1.9,4.9,3.5,3.8,5.9c-1.4,2.9-4.9,0.8-7.3,0.6
		c-9.7-0.7-16.7,3.3-21.5,11.6c-1,1.7-2,3.5-3.8,4.5C314.4,434.2,306.7,434.5,299.1,431z"/>
	<path class="st7" d="M408,402c2,0.3,3.9,1.4,6,1c1.3,1.7,0.4,3.3-0.7,4.5c-6.5,6.9-12.7,14.3-20.6,19.8c-2.3-0.7-3-2.9-4.3-4.6
		c-3.7-5.1-8-8.8-14.8-8.5c-1,0-2-0.3-2.7-1c-0.2-0.7-0.1-1.5,0.6-1.6c5.3-1,8.4-5.1,12-8.4c2.4-2.1,4.9-3.9,8.4-3.1
		c1.2,0.7,2.5,1.2,4,1c1.9,2.7-0.4,4.2-1.8,5.9c-1.3,1.5-2.8,2.8-4.2,4.2c-0.9,1-2,2-0.7,3.4c1.3,1.4,2.4,0.4,3.4-0.5
		c2.7-2.6,5.4-5.4,8.1-8C402.9,404,404.9,402.1,408,402z"/>
	<path class="st7" d="M431,406c-0.3,2.7-1.9,4.5-3.7,6.2c-6.3,6.3-12.8,12.5-18.9,19.1c-2.2,2.4-5.7,2.9-7.3,5.7
		c-1.6-1.1-3.2-2.3-5.3-2.2c-0.2-1.1-1.5-1.9-0.7-3.2c7.9-7.4,15.3-15.3,23.1-22.7c2.2-2.1,4.2-4.8,8-3.9
		C427.5,405.9,429.2,406.1,431,406z"/>
	<path class="st1" d="M426,405c-3,0.7-5.2,2.7-7.3,4.9c-6.4,6.4-12.7,12.7-19.1,19.1c-1.3,1.3-2.3,3-4.4,3.1
		c-2.3-0.9-3.3-2.4-2.2-4.9c5-6.5,11.5-11.6,17-17.6c1.8-1.9,3.8-3.7,4-6.6C418.2,402.3,422.2,403.2,426,405z"/>
	<path class="st7" d="M373,398c2,0.3,4,1.6,6,0c1.5,3.1-0.9,4.8-2.6,6.7c-2.9,3.3-6.5,6-8.7,10c-4.3,3.5-4.9,3.5-7.2-1
		c-1.1-2.1-3-4-2.8-6.7c3.4-2.4,6.8-4.6,9.9-7.4C369,398.3,370.8,397,373,398z"/>
	<path class="st1" d="M408,402c-5.9,3.5-10.3,8.9-15.1,13.6c-1.8,1.7-2.5,1.9-4.6,0c-2.3-2.2-1.3-2.9,0.1-4.6
		c2.6-3.3,7.4-4.9,7.6-10C400.2,398.7,404.1,400.8,408,402z"/>
	<path class="st1" d="M367.1,414.3c1.1-4.3,4.9-6.4,7.6-9.4c1.9-2.1,4-3.8,4.3-6.9c4.4-0.1,8.9-0.1,13,2c-3.4,0.7-6.2,2.4-8.4,5
		c-3.4,3.9-7.1,7.2-12.6,7.9C370.2,414.8,368.9,415.2,367.1,414.3z"/>
	<path class="st1" d="M373,398c-2.9,0.6-5,2.4-6.9,4.5c-2.2,2.4-4.7,4-8,4.5c-1.7,0.2-2.6-0.3-2-2.2c0.5-3.3,5.2-4.7,4-8.7
		C364.4,395.9,368.8,396.6,373,398z"/>
	<path class="st4" d="M249,331c0-12,0-24.1,0-36.1c1.5-1.5,3.3-2.2,5.4-2.3c26.4-2,52.7-3.3,79.1-1.4c7.8,0.6,15.6,0,23.4,0.3
		c4.8,0.2,9.7,0,14,2.6c0,11.7,0,23.3,0,35c-21.5-1.8-43-2.8-64.6-1.8c-16.6,0.7-33.4,1.1-49.9,3.7C254.1,331.2,251.5,331,249,331z"
		/>
	<path class="st8" d="M232.2,334.9c5.2-6.1,9.5-6.3,16.6-0.9c3.1,7.7,1.6,13.1-4.4,15.4c-3.9,1.5-7.5,0.9-10.6-2.1
		C230.1,343.6,230.1,339.4,232.2,334.9z"/>
	<path class="st8" d="M371.1,334.9c5.5-6.4,11.3-6.4,16.8,0c2.5,6.4,1.4,11.1-3.4,13.9c-4.2,2.5-9.8,1.4-12.9-2.7
		C368.9,342.6,369.4,338.8,371.1,334.9z"/>
	<path class="st6" d="M356,404.8c0.7,0.7,1.4,1.5,2,2.2c1.7,3.2,3.5,6.3,5.4,9.7c1.2-0.8,2.4-1.6,3.6-2.4c1.3-0.5,2.6-1,3.9-1.4
		c8.8-1.6,14.5,3,19,9.8c1,1.5,2,3,3,4.5c0.7,1.6,1.5,3.2,2.2,4.9c0.2,0.9,0.3,1.9,0.5,2.8c-2-2-3.8-5.4-6-5.7c-4.3-0.7-5-6-7.4-6.1
		c-3.2-0.2-4.9-2.4-7.5-2.8c-0.8-0.1-0.8,0.8-1.1,1.3c-0.9,1.5,0.6,1.6,1.2,2c4.3,2.3,8.1,5.2,10.7,9.4c4.4,7.1,4.3,14.8,3,22.6
		c-1,5.8-3.7,11-5.7,16.4c-0.7-0.6-1.2,3.2-1.9,0.1c-1.4-2.3-1.2-4.8-1-7.3c0.3-2.9,1.7-5.7-1.9-7.9c-1.8-1.1,0.1-3.7,0.3-5.6
		c0.2-2,2.1-4.4-1.5-5.6c-1.1-0.4-1-2.3-1.1-3.7c-0.1-3-0.9-5.5-3.9-6.6c0.9,3.4-0.4,6.9-1.6,10.2c-3.4,9.3-9.6,16.4-18.5,20.7
		c-2.7,1.4-6,3.6-9,0.2c2.4-3.7,6.8-5.4,9.1-9.4c1.8-3.1,5.7-4.3,5.9-9.3c0.1-3.6,4.7-6.9,2.3-11.5c-0.2-0.3,0.3-0.9,0.7-1.2
		c1-5.1-3.2-7-6-9.9c-8.2-1.3-14.6,1.4-18.8,8.6c-0.4,0.7-1,1.9-1.5,1.9c-4.5-0.6-3.5,3.1-3.9,5.2c-0.5,2.7-0.6,5.1-3.9,6.2
		c-1.4,0.5-1.5,2.5-2.1,3.8c-0.9,2.1-1.4,4.5-2.5,6.5c-0.4,0.7-0.7,1.6-1.7,1.5c-1-0.1-1.3-1-1.4-1.8c-0.4-9-1.2-18,3.9-26.1
		c3.2-6.6,7.1-12.5,14.5-14.9c5.5-1.8,11.1-1.4,17.5-0.1c-4.1-3.9-5.6-10.2-12.7-8.3c-0.3,0.1-1.2-0.3-1.2-0.5
		c-0.1-5.9-3.9-2.2-5-1.4c-3.5,2.6-8.8-0.2-11.6,5.1c1-6.3,6.8-11.4,12.2-11.9C343.9,398.3,350.3,400.2,356,404.8z"/>
	<path class="st0" d="M322.9,431c-2.5,8.8-3.7,17.8-2.9,28.5c1.9-5.1,3.4-8.9,4.8-12.7c0.9-2.5,0.9-2.5,4.1-1
		c0.4-4.5,0.5-8.9,2.3-13.4c0.8,1.3,1.5,2.3,2.2,3.5c1.3-2.6,2.3-5.1,3.9-7.1c0.5-0.7,1-6.1,4.1-1.2c0.5,0.8,2-1.2,2.8-2.1
		c3.5-3.6,7-3.3,10.6-0.4c-0.9,1.3-1.6,2.9-2.8,4c-12.7,12.2-23.9,25.5-33.8,40.1c-6.8-0.2-13.4,2.6-20.3,1.8
		c-6.5-17-15.3-32.7-25.1-47.9c0.5-1.2,1-2.3,2.1-5c1.6,2.2,2.5,3.9,3.8,5.1c0.7,0.7,1.7,4.5,3.4,0.4c0.4-0.9,1.3,0.5,1.7,1.1
		c1.8,2.6,3.2,5.4,3.6,8.6c2.2,0.6,1.8-2.1,3.4-2.5c1,4.7,1.6,9.2,0.5,14.5c3.2-3.1,4.3-2.3,4.9,1.2c0.7,3.9,2,7.6,3.3,12.3
		c1.9-10,1.4-18.9-0.3-27.9c5.4,0,10.6,1.5,16.1,1.1C317.8,431.9,320.4,431.8,322.9,431z"/>
	<path class="st0" d="M360.8,435c1.6,5,0.2,9-2.5,13.8c-4.5,7.8-8.8,15.1-15.1,17.3c-1,0.7,0,2.3-1.2,3c-4-1-8-1.2-12.1-1
		c8-12.3,18-22.8,28.4-33C359.2,434.1,360,434.2,360.8,435z"/>
	<path class="st9" d="M298,471c0.2-0.5,0.4-1.3,0.5-1.3c6.7,1.6,13.1-4,19.8-0.5c-5.4,9.9-10.9,19.8-13.9,30.9
		C303.1,490.1,300.8,480.5,298,471z"/>
	<path class="st10" d="M342,469c0-1.1-0.2-2.4,1.2-3c3.1,2.2,5.7,0.1,8.2-1.1c12.7-5.8,20.3-19.3,18.9-32.7
		c5.4,2.3,8.1,6.6,6.5,12.7c2,1.4,2.3-1.7,4.1-1c-0.4,4.2-1.5,8.3-3.1,13c3.4-1.2,4.5-0.4,3.9,3c-0.6,3.9-0.6,8-0.9,11.9
		c-5.4-1.4-10.7-2.1-16.5-1.5c-4.6,0.5-9.4-1.7-14.4-1.6C347.3,468.9,344.7,471.5,342,469z"/>
	<path class="st11" d="M249.2,415.8c1.9-0.3,3.8-0.5,6.1-0.8c-1.8,2.5-4.5,2-6.5,2.8C249,417.2,249.1,416.5,249.2,415.8z"/>
</g>
</svg>
