<?xml version="1.0" encoding="utf-8"?>
<!-- Generator: Adobe Illustrator 19.0.0, SVG Export Plug-In . SVG Version: 6.00 Build 0)  -->
<svg version="1.1" id="Calque_1" xmlns="http://www.w3.org/2000/svg" xmlns:xlink="http://www.w3.org/1999/xlink" x="0px" y="0px"
	 viewBox="0 0 612 792" style="enable-background:new 0 0 612 792;" xml:space="preserve">
<style type="text/css">
	.st0{fill:#333333;}
	.st1{fill:#62CAE3;}
	.st2{fill:#FDFDFD;}
	.st3{fill:#FDD2B2;}
	.st4{fill:#929292;}
</style>
<g>
	<path class="st0" d="M326.2,534c-35.2,0-70.3,0-105.5,0c-6.6,0-8.4-1.2-10.7-7.5c-23.5-64.8-47.1-129.6-70.6-194.3
		c-2.7-7.5-0.6-11.3,7.1-13.2c33-8.1,66.4-14.1,100.1-17.8c3.3-0.4,3.6-1.7,3.6-4.4c-0.1-12.2-0.1-24.3,0-36.5
		c0.3-43.8,35.9-77.9,79.6-76.3c39,1.5,71.8,35,72.3,74.1c0.2,12.2,0.3,24.3-0.1,36.5c-0.1,4.5,1.3,5.8,5.6,6.3
		c33.1,3.4,65.8,9.6,98,18.1c8.2,2.1,10.1,5.6,7.2,13.5c-23.3,64.3-46.6,128.7-69.9,193c-2.8,7.6-4.1,8.6-12.4,8.6
		C395.8,534,361,534,326.2,534C326.2,534,326.2,534,326.2,534z"/>
	<path class="st1" d="M365.7,421.5c1.9,7.3-0.5,13-3.8,18.4c-1,1.7-2.3,3.3-3.7,4.7c-1.8,1.9-2.2,4-0.2,5.7c1.9,1.6,4.1,1.1,5.8-0.7
		c5.7-6.1,9.6-13.1,9.9-21.7c0-1,0.1-2,0.2-3c0-0.1,0.2-0.2,0.3-0.3c7.2,3.5,8.4,17.2,4.5,24.6c-0.6,1.2-1.3,2.3-2.1,3.4
		c-1.5,2.3-0.9,4.1,1.2,5.5c2.2,1.5,3.9,0.3,5.1-1.4c4.3-6.4,6.5-13.4,5.5-21.2c-0.8-6.7-3.8-12.3-8.9-17.6c5,0.4,7.2,3.3,8.9,6.7
		c1.2,2.3,2.1,5,5.3,3.7c3.6-1.5,2.6-4.6,1.3-7.2c-4.1-8.2-10.9-11.9-19.8-11.4c-3.6,0.2-5.4-0.5-6.8-4.3
		c-4.7-12.7-18.1-17.6-30.4-11.4c-2.2,1.1-4.8,2.3-3.4,5.6c1.5,3.6,4.1,2.4,6.7,1.3c10.1-4.3,18-0.9,20.2,8.9
		c-8.4-0.7-16.3,0.4-22.8,6.2c-5.9,5.2-9.1,11.7-10.5,19.3c-0.5,2.5,0.7,4.3,3.3,4.6c2.9,0.3,4-1.5,4.5-4.2
		c1.6-9.3,6.8-15.6,16.1-18.3c0.8-0.2,1.6-0.5,2.4-0.6c1.2-0.1,2.3,0,4.6,0c-18.6,19.2-34.5,39.3-41.6,64.9
		c-1.9-26.4-13.6-48.8-27.4-70.5c10.1,0.5,18.2,9.3,18.8,20.3c0.1,1.2,0,2.3,0,3.5c0,2.1,0.8,3.5,3.1,3.7c2.4,0.2,3.6-1,4-3.4
		c2.4-13.6-8.4-29-22.3-31.6c-1.6-0.3-3.2-0.6-4.9-1c3.5-7.9,11.1-10.3,18.9-6c1.2,0.6,2.1,1.6,3.3,2.3c2,1.2,4.1,1.6,5.8-0.4
		c1.9-2.3,0.6-4-1.1-5.6c-9-8.5-24.6-7.5-31.8,2.5c-2.8,3.9-4.7,5.6-10,4.4c-8.2-1.9-15.8,0.7-21,8.2c-1.5,2.2-2.6,4.5,0,6.6
		c2.9,2.3,4.6,0.2,6-2c2.4-3.6,5.9-5.1,10.2-5.5c-6,4.8-11.1,10.3-12.6,18.1c-1.2,6.3-1.2,12.5,1.3,18.6c0.9,2.3,2.2,4.5,5.1,3.5
		c2.9-1,3-3.3,2.1-6.1c-3.5-10.1-1.2-19.9,5.9-25.3c0.5-0.4,1.1-0.6,2.3-1.3c-0.8,8.9-0.4,17.1,3.9,24.6c0.6,1,1.1,2,1.8,3
		c1.4,2,3.4,2.3,5.2,1.1c1.9-1.2,2.4-3,1-5.1c-2.2-3.5-3.7-7.4-4.6-11.5c-1-4.4-0.2-8.5,1.6-13.4c8.8,12.5,15.7,25,20.9,38.5
		c4,10.4,6.3,21.2,7,32.4c0.3,4.8-1.4,6.3-6,6.6c-22.7,1.3-44.6,6.1-65.5,15c-4.6,2-9.2,3.9-13.3,6.6c-4.3,2.9-5.3,1.4-6.8-2.7
		c-12-33.5-24.2-67-36.3-100.4c-8.8-24.3-17.5-48.6-26.4-72.8c-1.1-3.1-1-4,2.6-4.8c27.4-6.5,55.2-10.9,83.1-14.7
		c6.6-0.9,6.4-0.8,6.7,5.8c0.2,4.6-0.7,8-4.6,11.5c-7.9,7-7.1,19.3,0.9,26.5c7.6,6.9,20.2,5.7,26.7-2.4c6.5-8.2,4.8-20.2-3.9-26.4
		c-2.5-1.8-4.6-14-2.9-16.4c0.7-1,1.8-0.7,2.7-0.8c6.3-0.6,12.6-1.4,18.9-1.7c27.5-1.5,54.9-1.5,82.4,0c4.1,0.2,8.3,0.7,12.4,0.9
		c2.2,0.1,3.4,0.6,3.3,3.1c-0.2,3.5-0.2,7,0,10.5c0.1,2-0.9,2.9-2.4,4c-7.8,5.5-10.4,13.4-7.6,21.7c2.8,8,10,12.4,19.2,11.9
		c8.1-0.5,14.4-6.2,16.3-15c1.3-6.2-0.4-12.1-5.2-15.8c-4.2-3.3-4.6-7-4.5-11.6c0.2-6.9,0-6.6,6.9-5.9c27.1,2.8,53.7,7.9,80.1,14.2
		c6.8,1.6,6.8,1.6,4.5,8.1c-20.7,57.1-41.5,114.2-62,171.4c-1.4,3.9-2.4,4.6-6.2,2.4c-18.6-10.8-38.9-16.5-60-19.8
		c-11.8-1.9-23.7-3.2-35.7-3c-2.7,0-3.2-0.6-2.7-3.4c3-16.1,11.2-29.7,20.8-42.5C351.2,436.1,357.7,428.6,365.7,421.5z"/>
	<path class="st2" d="M385.3,250.3c-4.4-28.8-29.9-50.3-59-50.2c-29.3,0.1-54.6,21.5-59.1,50.2c-2.2,14.5-0.3,29.3-1.1,43.9
		c-0.2,4.3,1.1,5.2,5.2,4.8c22.2-2.2,44.5-2.5,69.5-2.6c12.3,0.6,27.3,1.3,42.3,2.1c1.8,0.1,3.3,0.5,3.2-2.2
		C385.8,280.9,387.7,265.5,385.3,250.3z"/>
	<path class="st3" d="M232.4,516.2c60.9-25.2,121.7-25.2,182.4,0c0,0.5,0,1.1,0,1.6c-60.8,0-121.6,0-182.3,0
		C232.5,517.2,232.5,516.7,232.4,516.2z"/>
	<path class="st4" d="M383.3,340.2c0.8,7.5,3.8,11.7,8.3,11.8c4.1,0.1,7.4-3.9,8.4-10.1c3.1,4.4,2.3,9.7-2,13.6
		c-4.2,3.6-9.8,3.5-13.9-0.3C379.6,351.1,379.2,345.4,383.3,340.2z"/>
	<path class="st4" d="M247.1,341.3c1.3,7,4.7,11,8.8,10.7c4.4-0.3,7.1-4,8.1-11.4c3.6,3.8,3.8,9.3,0.5,13.3
		c-3.6,4.4-9.2,5.5-13.8,2.7C245.7,353.4,244.3,348,247.1,341.3z"/>
</g>
</svg>
