<?xml version="1.0" encoding="utf-8"?>
<!-- Generator: Adobe Illustrator 19.0.0, SVG Export Plug-In . SVG Version: 6.00 Build 0)  -->
<svg version="1.1" id="Calque_1" xmlns="http://www.w3.org/2000/svg" xmlns:xlink="http://www.w3.org/1999/xlink" x="0px" y="0px"
	 viewBox="0 0 612 792" style="enable-background:new 0 0 612 792;" xml:space="preserve">
<style type="text/css">
	.st0{fill:#50C1F5;}
	.st1{fill:#424242;}
	.st2{fill:#DEDEDE;}
</style>
<g>
	<path class="st0" d="M205.8,295.3c0.7-0.7,1.6-1.2,2.2-2c7.1-10,16.5-13,28.7-12.3c17.8,1.1,35.6,0.3,53.5,0.3
		c2.7,0,4.7,0.8,6.6,2.7c65.1,65.2,130.3,130.3,195.4,195.5c9.2,9.2,9.3,22.4,0.1,31.7c-31.2,31.3-62.4,62.5-93.7,93.7
		c-9.6,9.5-22.7,9.4-32.5-0.4c-25.6-25.5-51.2-51.1-76.7-76.7c-38.9-38.9-77.7-77.8-116.7-116.6c-2.9-2.8-4-5.6-3.9-9.6
		c0.2-20.7,0.3-41.3-0.1-62c-0.1-5.3,1.2-9.3,5.3-12.5c1.8-1.4,3.2-3.3,4.8-5c0.8-0.9,1.8-0.9,2.8-0.5c9.2,3.4,18.7,5.9,28.1,8.7
		c1.4,1,1.9,2.6,2.8,4c2.6,3.9,6.8,5.2,10.7,3.5c3.6-1.6,5.8-5.8,5.1-9.8c-0.7-4-4-6.6-8.5-6.8c-1.5,0-3,0.3-4.4,0.3
		c-7.6-1.7-15.1-3.6-22.5-6c-1.9-0.6-3.9-0.9-5.2-2.7c1.7-4.2,5.9-6,8.4-9.4C199.6,300.9,201.7,296.9,205.8,295.3z"/>
	<path class="st1" d="M210.1,331.4c-10.6-2.2-20.9-5.8-31.1-9.3c-11.4-5.4-22.9-10.7-33.2-18.1c-9.2-6.5-17.5-13.8-23.8-23.2
		c-14-20.8-5.2-39.9,19.8-42.4c9.4-1,17.6,2.7,25.1,8.1c13.8,10,23.2,23.7,32.2,37.8c2.3,3.6,4.6,7.3,6.9,10.9
		c-2.9,2.9-5.9,5.9-8.8,8.8c-3.2-0.5-3.7-3.5-5-5.6c-7.7-12.3-15.1-24.7-25.7-34.9c-4.4-4.2-9.2-7.7-14.9-9.9
		c-3.3-1.3-6.8-1.7-10.3-1.3c-12,1.2-15.7,8.5-9.5,18.7c7.4,12.2,18.5,20.4,30.4,27.5c7.3,4.4,14.9,8,22.8,11.2
		c1.4,0.5,2.9,0.9,3.6,2.5c7,3.2,14.4,4.9,21.8,6.6c2,0.5,3.8,1.1,5.5,2.2c3,1.9,3,4.6,1.6,7.3C215.9,331.1,213.6,333,210.1,331.4z"
		/>
	<path class="st2" d="M332.4,457.3c-1.8,8.1-3.5,16-5.2,24c-1.6,7.7-3.2,15.5-5.1,24.8c-7.1-10.9-14.6-20-19.4-30.3
		c-2.9-6.2-1.9-14.3-2.6-21.6c-1.5-15.4-3-30.8-4.2-46.1c-0.5-6.4-5-10.3-8.4-14.9c-7.6-10.3-15.4-20.4-23.2-30.7
		c-0.8-1.1-1.6-2.2-2.1-3.4c-3.8-9,0.5-15.7,10.3-16c6.6-0.2,12.8,1.7,18.9,3.9c14.9,5.4,26.4,14.1,34.6,28.4
		c23.1,40.5,47.1,80.4,70.6,120.6c1.7,2.9,3.6,4.1,7,4.3c6.6,0.2,13.2,1.3,19.8,1.8c1.9,0.1,3.1,0.9,4.1,2.4c2.9,4.5,5.7,9,8.9,13.3
		c1.8,2.5,0.8,3.2-1.6,4c-10.5,3.6-21,7.5-31.5,11c-7.1,2.4-13.9-0.2-19.2-7.2c-7.8-10.2-15.4-20.5-23-30.8
		c-8.7-11.8-17.3-23.6-26-35.4C334.6,458.4,334.2,457.4,332.4,457.3z"/>
</g>
</svg>
