<?xml version="1.0" encoding="utf-8"?>
<!-- Generator: Adobe Illustrator 19.0.0, SVG Export Plug-In . SVG Version: 6.00 Build 0)  -->
<svg version="1.1" id="Calque_1" xmlns="http://www.w3.org/2000/svg" xmlns:xlink="http://www.w3.org/1999/xlink" x="0px" y="0px"
	 viewBox="0 0 612 792" style="enable-background:new 0 0 612 792;" xml:space="preserve">
<style type="text/css">
	.st0{fill:#3E4F77;}
	.st1{fill:#59686A;}
	.st2{fill:#46577D;}
	.st3{fill:#39496E;}
	.st4{fill:#39496D;}
	.st5{fill:#3C4A57;}
	.st6{fill:#364361;}
	.st7{fill:#394754;}
	.st8{fill:#364362;}
	.st9{fill:#60686E;}
	.st10{fill:#646B71;}
	.st11{fill:#8F8D8B;}
	.st12{fill:#888684;}
	.st13{fill:#747E8D;}
	.st14{fill:#46567D;}
	.st15{fill:#FDFAD9;}
	.st16{fill:#36788E;}
	.st17{fill:#F9E611;}
	.st18{fill:#F8E512;}
	.st19{fill:#566772;}
	.st20{fill:#53626F;}
	.st21{fill:#626E81;}
	.st22{fill:#535F69;}
	.st23{fill:#FDBA7F;}
	.st24{fill:#FDC08B;}
	.st25{fill:#E4A873;}
	.st26{fill:#FCEF55;}
	.st27{fill:#FDE90F;}
	.st28{fill:#FCE90F;}
	.st29{fill:#E0CF10;}
	.st30{fill:#7E5D42;}
	.st31{fill:#7B5E46;}
	.st32{fill:#E1D010;}
	.st33{fill:#313F4D;}
	.st34{fill:#606C7A;}
	.st35{fill:#E5A873;}
	.st36{fill:#36788D;}
	.st37{fill:#505B64;}
	.st38{fill:#5C92A4;}
	.st39{fill:#5A5F64;}
	.st40{fill:#595F65;}
	.st41{fill:#575E64;}
</style>
<g>
	<path class="st0" d="M477,519c-14.1,11.1-30.2,18.5-46.8,24.7c-13.7,5.1-27.8,8.8-42.2,11.1c-7.5-0.5-14.7,2-22.1,2.4
		c-7.7,0.5-15.5,1.2-23.2,1.5c-1,0.1-0.2-2.2-2.7-1.2c-5.1,2.1-10.8,0.8-16.3,0.7c-1.8,0-3.6-0.2-5.5,0.1
		c-11.9-0.6-23.7-1.6-35.4-3.8c-1-0.2-2-0.2-2.9,0.3c-30.5-5.4-59.3-15.1-85-32.8c2.4-1.6,2.7-3.5,1.6-6.3
		c-6.2-16.5-8.2-33.7-8.3-51.3c-0.2-23.9,3.4-47.3,7.6-70.7c1.3-7.1,5.3-11.3,12.5-12.3c1.9-0.3,3.6-0.8,4.9-2.2
		c3.9-4,8.8-6,14.1-7.1c14.1-3.1,27.8-8.1,42-10.9c1.5-0.3,2.9-0.9,4.3-1.3c2.7-0.8,3.4-2.4,2.3-4.9c2.7-1,4.5-2.8,6.1-5.2
		c2.1-3.1,4-6.5,7.8-7.9c0.2,0.2,0.3,0.4,0.5,0.6c1.2,5.7,2.6,11.3,4.1,17c1.3,4.6,2.2,9.4,5.9,13c1,0.9,1.6,2.2,0.8,3.6
		c0.4,2-2.7-1.9-1.8,1.1c6.2,21.1,14.4,41.5,21,62.9c1-2.4,0.7-4.9,2.8-6.2c1.3,0.2,1.6,1.2,1.9,2.2c0.1,0.3,0.2,0.7,0.1,1
		c-3,11.2,0.9,21.5,3.8,31.9c1.6,5.9,3.6,11.7,4,17.8c-0.8,2.5-0.3,5.7-3.9,6.6c-2.2-0.6-3.1-2.4-4.1-4.1
		c-11.6-20.6-24.4-40.5-37.2-60.3c-1.8-2.9-2.5-5.7-1.5-9c0.2-0.8,0.3-1.6,0.6-2.4c2.1-5.7,1.6-10.4-4-14.2
		c-5.8-3.9-7.1-9.2-4.7-16.1c3.2-9.5,3.9-19.4,3.7-27.5c0.1,10-1.4,21.6-5.3,32.8c-1,2.9-1.7,5.8,0.4,8.6c0.6,2.5,2.2,4.2,4.4,5.6
		c2.2,1.3,4.4,2.8,5.1,5.6c0.2,2.7-0.6,5.3-1.9,7.6c-2,3.8-1.8,7.2,1.5,10.2c1,0.9,1.8,2,2.2,3.3c2.5,4.9,5.2,9.6,9.2,13.4
		c2.1,2,3.6,4.4,4.9,7c0.4,2.9,1.5,5.5,4.2,7c1.7,1.8,2.6,4,3.9,6.1c0.7,3.9,2.6,7.1,5.9,9.4c5.6,10,12.4,19.2,17.2,29.7
		c0.3,0.6-0.3,0,0.2,0.4c0.5,0.5,0.2-0.3,0.4-0.4c0.3-1.1,1.1-1.8,1.5-2.8c6.2-11.8,12.1-23.7,20.4-34.3c2.8-1.4,3.7-3.8,4.1-6.6
		c0.1-0.5,0.3-0.9,0.6-1.2c2.8-1.5,4.2-3.9,4.6-6.9c2-0.8,1-3.7,3-4.4c4.7-4.6,7.9-10.3,11-16c1.2-3.9,5.5-6.6,4.6-11.4
		c0.3-3-0.1-5.8-2.4-8c-0.3-0.6-0.4-1.3-0.3-2c0.9-3.4,4.9-4.6,5.7-8.1c5.1-3.4,5.4-7.6,3.5-13.3c-3.5-10.6-4.4-21.7-4.6-28.8
		c0.1,7.3,1.3,18.6,4.7,29.5c1.4,4.6,0.6,7.9-3.4,10.2c-6.8,4-8.8,9.4-5.8,16.7c1.8,4.5,0.4,8.3-2.1,12.2c-13,20-25.9,40-37.5,60.7
		c-1,1.7-1.9,3.5-4,4.3c-2,0.3-2.9-1-3.7-2.6c-0.8-3.4,0.4-6.6,1.1-9.8c2-8.7,4.2-17.4,6.9-26c1.4-4.3,2.2-8.7,1.4-13.2
		c0.2-1.6,0-3.3,1.9-4.2c0.8,0.3,1.2,0.9,1.3,2.4c6.2-20.9,14.3-40.6,20.2-61.1c0.7-2.5,1.4-5.1,2.9-7.4c2.3-0.8,0.1-2.3,0.5-3.4
		c2.7-9.2,5.2-18.5,7.2-27.9c0.2-0.2,0.3-0.4,0.5-0.6c3.8,1.5,5.8,4.8,7.8,7.9c1.6,2.5,3.4,4.2,6.1,5.2c-1.3,2.8-0.3,4.1,2.7,4.9
		c16.1,4.1,32.2,8.5,48.2,13c4.4,1.2,8.6,2.5,11.8,6.1c1.3,1.4,3,2,4.8,2.3c7.1,1.2,11.2,5.8,12.5,12.6c2.7,14,4.7,28.2,6.3,42.4
		c1.4,12.2,1.3,24.5,1.1,36.8c-0.2,14.2-3.4,27.7-7.5,41.1c-0.5,1.6-1.3,3.1-1.5,4.8C472.7,520,474.9,515.7,477,519z"/>
	<path class="st1" d="M394,207.9c-3.8,3.1-4.4,7.7-4.3,11.9c0.1,3.6-1.2,8.8,5.3,9.6c1.9,0.2,2.7,3.2,3,5.4
		c1.4,10.5,0.8,20.9-2.1,31.1c-1.4,5-4.1,9.2-9.8,10.1c-1.4,0.2-1.9,0.8-2.3,2.1c-3,10.2-7.1,19.9-12.7,29.1
		c-0.3,0.5-0.3,1.3-0.4,1.9c-1.4,0.9-2,0.1-2.4-1.2c0-2.1,1.3-3.7,2.3-5.5c7.5-13.6,12.8-27.7,13-43.5c0-2.3,0.1-2.3,2.2-5.4
		c2.5,4.5,1.2,9,1.5,13.2c0.2,1.6-0.7,3.2,0.4,5.2c3.2-1.4,4.7-4.1,5.6-7.1c2.6-9.2,2.7-18.7,2.2-28.1c-0.3-5-4.5-5-7.9-5.9
		c-2.2-1.8,0-4.5-1.2-6.5c-6.8,1.3-7.7,3.1-5,10.7c1.9-0.8,1.4-5.2,5.1-3.6c0.5,3.6-1.7,6.3-3.1,9.2c-1,2.1-2.5,1.8-3.8,0
		c-1.5-2.2-2.5-4.7-3.3-7.2c-0.8-2.5-2.1-3.6-4.8-2.6c-7.3,2.7-14.9,4.2-22.6,5.4c-8.9,0.7-17.8,0.3-26.7,0.3
		c-8.3-1-16.5-2.3-24.3-5.3c-3.6-1.4-5.4-0.5-6.6,3.3c-0.8,2.9-1.5,7.3-4.9,7.2c-3-0.1-2.9-4.7-4.4-7.2c-0.5-0.8-0.7-1.9-0.4-2.9
		c3.6-1.9,3.2,2.4,5,3.1c2.7-6.5,2.4-7.4-2.1-10c-2.3-1.4-3.3-1.1-3.1,1.8c0.1,1.4,0.8,3-0.7,4.1c-8,2-8.2,2.3-8.3,10.8
		c-0.1,7.2,0,14.3,1.8,21.3c0.9,3.6,2.2,6.9,5.8,8.8c1.8-1.6,0.5-3.3,0.8-4.9c0.4-4.3-1-8.8,1.4-13c2.5,1.3,2.3,3.3,2.3,5.1
		c0.1,15.8,5.4,29.9,12.9,43.5c1,1.7,2.2,3.3,2.3,5.5c-0.3,1.3-0.9,2.1-2.4,1.2c-2.8-6-5.7-11.9-8.4-17.9c-1-2.1-1.9-4.2-2.6-6.4
		c-1.4-4.5-2.1-8.6-8-10.2c-4.4-1.2-6-6.5-6.9-10.9c-1.7-9.3-3-18.7-1.3-28.2c0.6-3.7,2.1-6.7,6.2-7.4c1.1-0.2,2-0.3,1.9-1.7
		c-0.4-3.4,1.2-6.9,0.2-10.3c0.4-0.3,0.8-0.5,1.2-0.7c5.5-0.9,9-5.4,14-7.3c5.6-2.5,11.3-4.5,17.2-6c4.6-0.6,9-2.5,13.8-1.9
		c6.4,0.9,12.9,0.8,19.3,0c7.8-0.2,15,2.2,22.3,4.3c4.9,1.9,9.9,3.6,14.3,6.5c0.7,0.4,1.3,1.1,2.1,1.4c1.8,0.6,3.3,4,5.3,1.1
		c1.6-2.3,1.7-5.1-1.1-7c-0.7-0.5-1.4-0.9-2.1-1.4c-1.4-1.2-3.4-1.9-3.8-4c1.7-2.7,3.2-0.4,4.8,0.1
		C388.1,203.7,392.2,204.3,394,207.9z"/>
	<path class="st2" d="M306.9,153.8c6.6-4.8,13.8-8.1,22-8.9c3.4,0.2,6.7,0.2,10.1,0.1c8.3,0.6,15.4,4.2,22.1,8.8
		c-3.9,1.8-2.7,5.2-2.9,8.3c-0.7,9.6-3.1,18.9-4.7,28.4c-0.1,0.5-0.5,0.8-1,1.1c-5.2,0.8-10.2-1-15.4-1.1
		c-7.2-0.2-14.2,1.2-21.4,1.3c-3.6-10.5-10.4-20.3-7.8-32.3C308.4,157.2,306.8,155.7,306.9,153.8z"/>
	<path class="st0" d="M353,190.8c-1.4-5.9,1.8-11.2,2.2-16.8c0.4-5.4,2.4-10.6,1.3-16.1c-0.8-3.8,2-3.9,4.5-4.2
		c8.6,4.6,16,12,25.8,13.5c9.8,1.6,15.4,6.6,18.7,15.3c0.6,1.5,1.4,2.9,2.2,4.4c-2.3,13.2-10.7,18.7-22.8,15
		c-1.4-0.1-2.3-2.4-4.1-0.8c-2,1.1-3.5-0.1-5.1-0.9c-4.5-2.1-9.1-4-14-5.4C359,193.3,355.1,194,353,190.8z"/>
	<path class="st0" d="M306.9,153.8c1.1,1,3.8,0.2,3,3.2c-2.5,9.7-0.4,18.7,4.7,27.1c1.3,2.1,2.6,4.3,0.4,6.7c-1.7,2.4-4.5,2.1-6.8,3
		c-6.1,1.7-11.9,4.6-17.6,7.3c-3.7,0.9-6.1,5.1-10.6,4.2c-0.6-1-1-2-2.5-2.1c-9.6-0.5-14-6.6-15.8-15.2c-0.2-1-0.3-2-0.6-2.9
		c2-4.5,5.2-8.4,6.8-13.2c0.3-1.1,1.1-1.6,2.2-1.7c13.3-1.5,24.1-8.5,35-15.5C305.7,154.3,306.3,154.1,306.9,153.8z"/>
	<path class="st3" d="M275.9,354.9c1.9,0.2,3.1,1.1,3,3.2c-0.1,2.1-2,2.1-3.3,2.4c-15.5,4.2-31,8.3-46.5,12.4
		c-5.8,1.5-11.6,3-15.6,8.1c-0.9,1.1-2.1,1.3-3.5,1.5c-7.9,0.8-11.3,3.5-12.6,10.9c-2.4,13.3-5.2,26.7-6.1,40.1
		c-0.7,10.1-1.9,20.2-1.7,30.5c0.3,14.8,2.2,29.2,5.5,43.5c1.1,5,4,9.4,4.8,14.6c-1.7,0.6-3.3-1.4-4.8-0.1c-1.3-0.1-1.7-1.5-2.9-2
		c-7-3.4-11.2-8.7-9.9-17c0.9-5.8-0.6-11.5-0.4-17.2c0.4-9.8-0.6-19.6-0.2-29.3c1.1-6.4,0.5-12.8,1.3-19.3
		c2-16.3,5.2-32.3,11.7-47.5c0.5-1.2,0.9-2.5,1.3-3.8c0.8-9.1,7.7-12.1,14.9-13.8C232.6,367.1,254.4,361.5,275.9,354.9z"/>
	<path class="st4" d="M477,519c-3.7-1.3-5.2,3.1-8.7,3.3c0.2-5.2,3.2-9.5,4.3-14.4c2.8-12.3,5.5-24.4,5.5-37.2
		c0.1-17.9-0.8-35.6-3.8-53.2c-1.3-7.4-2.3-15-3.4-22.5c-1.1-7.8-5.3-11.5-13.2-12.4c-1-0.1-2,0.1-2.7-0.9c-4.7-7.4-13-7.4-20.1-9.4
		c-14.2-4-28.2-8.4-42.7-11.3c-1.4-0.3-3-0.8-3.1-2.7c-0.2-2.1,1-3,3-3.2c4.6,1.4,9.2,2.8,13.9,4.3c0.9,3,3.5,1.1,5.2,1.7
		c15.1,4.4,30.6,7.7,45.9,11.4c7.4,1.8,13.8,5,14.9,13.8c7.2,16.7,11.4,34.2,13.1,52.3c1.5,15.2,2.4,30.5,1.2,45.7
		c-0.5,6.3-1.2,12.5-0.6,18.9C486.9,510.5,483.8,515.8,477,519z"/>
	<path class="st5" d="M195.9,385.9c1.5,3.4-1.4,5.9-2.4,8.6c-6.7,18.4-10.1,37.3-10.4,56.8c0,1.7-0.3,3.3-1,4.8
		c0.7,9.9,0.7,19.8,0,29.7c1.4,5.7,1.5,11.4,0.1,17.1c-3-31.6-3.3-63.1,4.8-94.1C189.1,400.9,191,392.9,195.9,385.9z"/>
	<path class="st6" d="M261.2,185c2,1.1,2.1,3.3,2.6,5.1c2.3,8.4,5.9,11.6,14.7,11.7c3.9,0.1,2.4,1.6,1.5,3.4
		c-2.1,3.4,1,7.2-0.8,10.6c-0.4,0-0.7,0-1.1,0.1c-0.4-1.4-1-2.8-1.3-4.3c-0.5-2.2-1.3-3.7-4.2-3.9c-2.6-0.2-5.1-1.3-7.4-2.6
		C257.7,200.7,256.3,193.9,261.2,185z"/>
	<path class="st7" d="M485.8,503c-1.7-4.5-1.1-9.3-0.7-13.8c1.2-12.4,0.6-24.8,0.1-37.3c-0.7-16.2-3.3-31.9-7.3-47.5
		c-1.2-4.5-3-8.8-4.8-13.1c-0.7-1.7-1.3-3.4-1.1-5.3c3.6,3.5,4.4,8.3,5.9,12.7c8.2,24,10.2,48.9,9.6,74.1
		C487.3,482.9,486.4,492.9,485.8,503z"/>
	<path class="st5" d="M280,554.8c1.6-1.4,3.5-1,5.2-0.7c9.9,1.7,19.9,3.1,30,2.9c1.3,0,2.6,0.5,3.9,0.8c7.6-0.6,15.2-0.6,22.8,0
		c13.3-0.5,26.6-1.3,39.8-3.7c2.1-0.4,4.3-0.9,6.2,0.5C352,561.4,316,561.4,280,554.8z"/>
	<path class="st8" d="M385,202c3.1-0.1,6.4,0.2,9.4-0.4c6.5-1.4,10.4-5.5,11.5-12.1c0.2-1.3,0.4-2.3,1.8-2.5
		c4.8,11-0.5,18.9-13.8,20.9C390.8,206.2,387.7,204.5,385,202z"/>
	<path class="st9" d="M289.8,341.8c6.6-5.4,5.8-13.5,7.3-20.8c1.5-0.1,1.7,1.1,2,2.2c0.5,3.3-0.4,6.4-1,9.5
		c-0.9,2.9-1.5,5.9-2.5,8.8c-1.7,1.4-3.6,1.4-5.5,0.5L289.8,341.8z"/>
	<path class="st10" d="M370.9,321.1c0.3,4.1,1.2,8.2,2.2,12.2c0.8,3.4,2.1,6.5,5.1,8.6c0,0-0.2,0.2-0.2,0.2c-1.9,1-3.7,0.8-5.4-0.5
		c-1-1.8-1.1-3.8-1.8-5.7c-1-3.9-2.1-7.7-2-11.8C369,322.8,368.9,321.1,370.9,321.1z"/>
	<path class="st11" d="M370.9,321.1c-1.1,0.7-0.9,1.9-1.1,3c-3.5-2.1-1.9-5.6-1.8-8.4c0.1-2-0.7-2.2-2.1-2.5
		c-0.7-2.7,0.3-4.5,3.1-5.1c0.4,0.9,1.1,1,1.9,1C370.8,313,370.9,317,370.9,321.1z"/>
	<path class="st12" d="M298.2,323.1c-0.3-0.7-0.7-1.4-1-2.1c0-4,0-8.1,0-12.1c0.8,0,1.5-0.1,1.9-1c2.9,0.5,3.7,2.4,3.2,5
		c-0.6,0.8-2.6-0.2-2.2,2.4C300.4,317.9,301.7,321.3,298.2,323.1z"/>
	<path class="st13" d="M339,144.9c-3.4,1.6-6.7,1.7-10.1-0.1C332.3,143.4,335.7,143.5,339,144.9z"/>
	<path class="st0" d="M411.1,360.9c-2,1.6-4.1,0.9-5.9,0c-1.2-0.6,0.6-1,0.7-1.7C407.7,359.8,409.4,360.3,411.1,360.9z"/>
	<path class="st2" d="M307.1,539.9c-14.2-3-31.9-5.3-44-20.3c-6.4-7.9-8.7-17.5-11.1-26.9c-5.5-22.3-10.8-44.7-15.6-67.1
		c-1.9-8.8-4.4-17.4-3.7-26.8c0.9-12.8,14.9-24.9,27.7-22.6c4.9,0.9,8.1,5.5,8.5,13.6c0.5,9.8,2.7,19.3,5.5,28.7
		c1.8,6,4.5,11.9,7.5,17.3c9.8,17.5,20.3,34.6,29.8,52.2c6.4,11.8,11.1,24.7,11.9,38.2C324.2,535.7,322.9,540.5,307.1,539.9z"/>
	<path class="st2" d="M439,407.2c-1.5,7-3.7,17.2-6,27.3c-4,17.4-8,34.8-12,52.2c-1.4,6-3,11.9-4.7,17.8
		c-4.2,14.4-13.6,24.2-27.7,29.1c-8.4,2.9-17,5.7-26,6.6c-11.2,1.1-16-4.5-14.4-15.7c3.4-24.6,15.8-45.1,28.5-65.6
		c8-12.9,15.2-26.2,20.2-40.5c3.5-10,5.4-20.5,6-31.1c0.4-7.1,4.7-11.3,11.9-11.2C428.4,376.2,439,388.4,439,407.2z"/>
	<path class="st14" d="M225.9,468.1c0.9,10.9-1.2,22.2-2.9,33.5c-0.3,1.8-0.5,3.8-2.7,4.3c-2.2,0.6-3.8-0.7-5.2-2.2
		c-2.6-2.7-4.2-6-5.2-9.5c-3.1-10.3-5.2-20.8-6.9-31.5c-2.2-14.6-2.6-29.4-2-44.2c0.2-5.9,0.4-11.9,3.3-17.4
		c2.9-5.3,6.1-5.5,9.6-0.5c5,7.2,5.8,15.8,7.7,24C225.1,438.6,226.5,453,225.9,468.1z"/>
	<path class="st14" d="M470,431.9c1.4,22.3-3,43.9-9.2,65.1c-0.5,1.6-1.2,3.1-2.1,4.5c-1.6,2.4-3.8,4.7-6.8,4.3
		c-3.3-0.4-3.3-4-3.7-6.3c-1.5-10.1-1.9-20.4-2.4-30.6c-1-20.8,2.9-40.7,8.1-60.6c0.6-2.5,1.8-4.6,2.9-6.8c1.2-2.2,2.6-4.6,5.5-4.3
		c3.2,0.3,4.7,2.8,5.6,5.6c1.5,4.6,2.4,9.3,2.1,14.2C469.8,421.9,470,426.9,470,431.9z"/>
	<path class="st15" d="M370.9,373.1c-6.8,24.1-16,47.4-24.3,71.1c-0.2-1.4-0.5-2.7-0.7-4.1c-2.7-2.8-2.2-6.5-2.8-9.9
		c-1.9-11.4-3.6-22.9-5.7-34.3c-0.5-2.9-0.2-5.2,2.3-7c0.6-0.5,1.2-0.9,2-1.2c3.7,3.1,7.1,1.2,10.4-0.6c4.5-2.5,8.6-5.5,12-9.3
		c0.5-0.5,1-1,1.5-1.4C367.2,375.2,368.1,372.6,370.9,373.1z"/>
	<path class="st15" d="M323.1,434.1c-0.6,3.2-1.1,6.4-1.7,9.6c-8.6-23.1-17.1-46.2-24.5-70.7c2,1.8,3.2,2.9,4.5,4
		c0.7-0.1,1.4,0.1,2,0.5c3.8,3.8,8,7,12.6,9.7c3.4,1.9,6.6,3.7,10.2,0.6c0.8,0.3,1.4,0.7,2,1.2c2.4,2,2.8,4.5,2.3,7.6
		c-1.9,11-4,22-5.4,33.1C324.9,431.3,324.4,432.9,323.1,434.1z"/>
	<path class="st15" d="M302.4,378c-0.3-0.4-0.7-0.7-1-1.1c-7-8.8-8.9-19.6-11.5-30.2c-0.4-1.6-1.2-3.2,0.2-4.6
		c1.8-0.9,3.6-1.3,5.3,0.1c1.7,0.2,1.7,1.9,2.5,2.9c8.2,12.5,19.7,20.4,33.7,25.1c0.4,0.2,0.8,0.6,1.1,0.9c1.1,1.6,0.2,2.9-0.8,4
		c-3.4,3.5-5.8,7.7-7.4,12.2c-1.1,3.1-2.7,3.1-5.2,1.8c-4.9-2.5-9.6-5.2-13.6-9C304.7,379.3,303.8,378.3,302.4,378z"/>
	<path class="st15" d="M366,377.6c-0.1,0.1-0.3,0.3-0.4,0.4c-5.1,3.3-9.5,7.7-15.2,10.3c-5.5,2.5-5.5,2.6-7.7-2.9
		c-1.4-3.4-3.3-6.5-5.8-9.3c-1.2-1.3-2.8-2.6-1.8-4.8c0.3-0.4,0.6-0.7,1-1c15.4-5,27.2-14.7,36.3-28c0.2-0.1,0.4-0.2,0.6-0.3
		c1.6-1.7,3.3-0.4,4.9,0c0.3,0.7,1,1.6,0.8,2.2c-2.5,8.8-3.7,18.1-7.8,26.5C370,373.6,366.7,374.6,366,377.6z"/>
	<path class="st16" d="M332,486.9c-1.8-9.6-4.3-19-7.3-28.2c-2-6.3-2.8-12.4-1-18.8c0.4-1.2,0.2-2.6,0.3-3.9c1-13.7,4-27.1,6.2-40.7
		c0.4-2.3,1.3-3.6,3.8-3.6c2.5,0,3.4,1.5,3.8,3.7c2.5,14,4.5,28.1,7,42.2c0.4,2.1-1.1,4.3,0.2,6.3c1.9,9.9-3.7,18.4-5.5,27.7
		c-1.3,7.1-3.9,13.9-4.5,21.2c-2,1.1-2.5-0.2-2.9-1.7C331.8,489.8,332.4,488.4,332,486.9z"/>
	<path class="st17" d="M334.9,506.1c0,1,0,1.9,0,2.9c-4.8-8.4-10.2-16.4-14.7-24.9c-1.4-2.7-3.9-4.9-4.4-8.1
		c-3.1-2.3-4.5-5.7-5.7-9.2c-2.5-1.3-2.5-4.2-3.9-6.3c-2.2-1.6-3.3-4-4.2-6.6c-1.6-2.4-3.2-4.9-4.9-7.3c-3.5-3.9-6.4-8.2-8.9-12.8
		c-0.7-0.9-1.4-1.8-2.2-2.6c-4.2-4-4.8-8.3-1.5-13.3c1.1-1.6,1-4,1.4-6c0.1-2.1-1.3-3.1-2.9-4.2c-2.3-1.5-4.9-2.8-6.1-5.6
		c-2.8-2-3.4-4.4-2.1-7.8c4.5-12.4,6.6-25.1,5.9-38.3c-0.1-1.3-0.1-2.7,2-3.4c1,11,0.8,22-2.7,32.4c-3,8.9-1.1,14.9,6.6,19.6
		c3.5,2.1,4.3,4.8,2.7,8.3c-3.8,8.5-0.6,15.3,4.3,22.3c13,18.5,23.9,38.3,35.6,57.6C333.5,496.3,335.4,500.6,334.9,506.1z"/>
	<path class="st18" d="M384.9,422.1c1.6,5.4-3.1,8-5.2,11.8c-3.2,5.6-6.6,11-10.9,15.8c-1.6,1-1.7,3-2.9,4.3c-1,2.7-2.2,5.3-4.7,7
		c-0.3,0.2-0.4,0.5-0.4,0.9c-0.7,2.6-1.9,5-4.1,6.7c-7.2,11.4-14.2,22.9-19.9,35.1c-3.8-2.6-3.6-4.8,1-8.8
		c13.7-23.2,27.7-46.2,42.5-68.8c1-1.6,1.2-3,0.6-4.7c-0.3-0.8-0.4-1.6-0.7-2.4c-3.2-7.7-1.9-13.9,5.7-18.3c4-2.4,5-5.5,3.4-10.4
		c-3.2-10-4.3-20.5-4.2-31c0-1.9-0.2-4,0.9-5.7c1.1-0.2,1.1,0.7,1.1,1.2c-0.3,14.3,0.9,28.4,6.5,41.8c0.8,2-0.3,3.5-1.8,4.7
		c-1.6,1.3-3.2,2.6-4.9,3.8c-0.9,2.8-5.3,3-5,6.7c0.1,0.7,0.1,1.3,0.2,2C384,416.4,384.5,419.2,384.9,422.1z"/>
	<path class="st19" d="M345,444.1c-1.3-7.9-2.6-15.9-3.9-23.8c-1.3-8.2-2.8-16.3-4-24.5c-0.3-1.8-0.8-2.7-2.7-2.7
		c-1.9,0-3,0.3-3.4,2.6c-1.5,9.8-3.1,19.6-5,29.3c-0.7,3.7-0.2,7.6-1.9,11.1c-0.1-0.8-0.1-1.6-0.9-2c2-12.4,3.7-24.8,6.2-37.1
		c0.8-3.8-0.1-5.9-2.9-7.8c0.1-0.1,0.3-0.3,0.4-0.3c4.9,0.5,9.8-0.3,14.7,0.3c-2.9,1.9-3.5,4.2-2.8,7.9c2.7,14.3,4.8,28.7,7.1,43.1
		C344.6,441.2,345.2,442.7,345,444.1z"/>
	<path class="st20" d="M337.9,495c-0.4,2.9-5.4,5.3-1,8.8c-0.7,0.8-1.3,1.6-2,2.3c-0.8-4.9-3.6-8.9-5.8-13.1c2.7-1.2,1.4-4.3,2.9-6
		c2.3,1.3-0.8,5.4,3,6C336,493.6,336.4,495.1,337.9,495z"/>
	<path class="st21" d="M342,557.9c-7.6,0-15.2,0-22.8,0c4.8-1.9,9.7-0.7,14.6-0.8c4-0.1,8,0.6,7.9-6.3
		C343.1,554.8,343.1,554.8,342,557.9z"/>
	<path class="st2" d="M368.9,449.7c3.1-5.6,6.7-10.9,10.9-15.8c-0.8,5.7-5.5,9.2-8.1,13.9C371.2,448.6,371.3,451.4,368.9,449.7z"/>
	<path class="st2" d="M277,402.2c2.9,2.1,5.7,4.2,8.6,6.1c1.7,1.2,1.3,2.3,0.4,3.6c-1.6-2.4-4.1-3.6-6.3-5.3
		C278.2,405.7,275.7,405,277,402.2z"/>
	<path class="st14" d="M229.3,459.4c3.4,5.9,0.9,11.2,0,16.4C229.3,470.7,229.3,465.5,229.3,459.4z"/>
	<path class="st2" d="M288.2,433.9c3.5,3.9,6.5,8.2,8.9,12.8c-0.1,0.1-0.2,0.3-0.3,0.4C292.7,443.6,289.7,439.2,288.2,433.9z"/>
	<path class="st2" d="M310.1,466.9c2.3,2.8,4,6,5.7,9.2C312.6,475.5,309.7,470.9,310.1,466.9z"/>
	<path class="st14" d="M230.6,489.9c-1.6-5.1,0.6-9.9,0.9-14.9C233,480.1,230.5,484.9,230.6,489.9z"/>
	<path class="st14" d="M217.5,395.4c2,2.8,2.2,6.3,2.7,9.7c-1.3-3.1-2.7-6.3-4-9.4C216.6,395.6,217,395.5,217.5,395.4z"/>
	<path class="st2" d="M382,412c-2.1-5.1,3.4-4.4,5-6.7C387.9,409.4,382.8,409.1,382,412z"/>
	<path class="st2" d="M361.3,461.1c1.3-2.5,2.7-5,4.7-7C366.4,457.7,365.3,460.4,361.3,461.1z"/>
	<path class="st14" d="M451.9,395.9c-1.3,2.8-2.5,5.7-3.8,8.5C448.2,401.1,448.5,397.8,451.9,395.9z"/>
	<path class="st2" d="M384.9,422.1c-1.7-2.5-2.2-5.3-2.7-8.1C385.8,415.8,385.9,418.8,384.9,422.1z"/>
	<path class="st2" d="M356.8,468.6c1-2.5,2.4-4.7,4.1-6.7C361.8,465.5,360.2,467.6,356.8,468.6z"/>
	<path class="st2" d="M302,454.1c1.8,1.9,3.2,4.1,4.2,6.6C302.5,459.9,301.4,457.5,302,454.1z"/>
	<path class="st22" d="M366,377.6c0.2-3.3,3.2-4.6,4.9-6.8c0.1,1.1,2,1,1.6,2.4c0,0.1-1.1-0.1-1.6-0.1
		C369.2,374.6,367.6,376.1,366,377.6z"/>
	<path class="st23" d="M387,230.6c6.9-1.7,9.7,0.4,10,7.3c0.4,8.8,0,17.5-2.1,26.1c-0.8,3.3-2.1,6.3-4.8,8.4c-1.3,1-2.8,2.3-4.4,1.3
		c-1.3-0.9-0.1-2.4,0.1-3.7c0.2-1,0.3-2,0.5-2.9c4.5-5.4,4.7-11.9,4.1-18.4c-0.2-2-0.8-4.4-3.3-4.4c-2.7,0-2.6,2.6-2.7,4.6
		c-0.4,8.3-1.1,16.5-2.9,24.7c-4.3,19.6-13.7,35.9-29.7,48.3c-12.4,9.6-29.3,9.3-39.6-2.5c-15.9-18.3-27-39.2-27.9-64.2
		c-0.2-5.2,0.1-10.2-3.4-14.6c-1.4,8.9-3.3,17.8,1,26.6c0.1,0.5,0.3,1,0.2,1.5c-0.4,1.8,2.3,4.3-0.2,5.2c-2.3,0.9-4.3-1.3-5.7-3.2
		c-3.9-5.4-4.2-11.8-4.9-18.1c-0.5-4.8-0.3-9.6-0.2-14.5c0.1-6.9,3.1-9,10-7.4l0.5,0l0,0.5c2.1,3.2,3.2,6.9,4.8,10.9
		c2.5-3.7,3.9-7.3,4.8-11.1c0.5-2.2,1.2-3.2,3.7-2.1c8.3,3.7,17.2,4.9,26.1,6.4c0.3,1.7-1,2.3-2.1,3c-8.1,5-11.6,13.8-8.8,23
		c0.7,2.3,1.2,4.5,0.4,6.8c-0.2,0.5-0.3,1-0.2,1.5c1.8,8.2,3.2,16.6,7.1,24.2c0.4,0.7,1.4,1.3,1.4,2c-0.3,7.4,5.7,10.3,10,14.5
		c2.9,2.8,6.1,3.1,9.6,1.3c8.8-4.5,21.9-21.6,18.9-33.8c-0.5-2,0.3-3.9,0.8-5.8c1.1-4.4,1.4-8.9-0.7-13.1c-0.6-1.2-1.3-2.5-0.9-3.8
		c2.3-8.2-3.2-13.7-6.5-20c8.1-1.5,16.2-2.9,23.8-6.3c2.1-1,2.6,0.4,3.1,1.9c1.1,3.8,2.4,7.6,4.8,11.2c1.7-3.7,3.3-7.2,4.9-10.7
		l0.1-0.4L387,230.6z"/>
	<path class="st24" d="M349.8,234.9c2.1,0.3,4.7,0,3.6,3.7c-0.5,1.5,1.2,2.2,1.9,3.3c2.6,3.8,4.1,7.8,2.3,12.3
		c-0.4,1-0.5,1.9,0.1,2.8c3.8,5.7,2.7,11.5,0.9,17.6c-1.1,3.8,0.9,7.9-0.3,12.2c-3.2,11.3-9.6,19.8-19.4,26c-4,2.5-9.3,1.5-11.8-2.3
		c-0.8-1.2-1.5-2-2.8-2.5c-2.4-0.9-4.7-2.8-5.1-5.1c-0.9-4.6-4.2-8.2-5-12.3c-1.5-6.7-5.5-13-5-19.7c0.6-6.7-2.6-13.1-0.9-19.5
		c1.4-5.7,3.2-11.6,9.6-14c1.3-0.5,2.6-0.7,3.2-2.1C330.6,235.1,340.2,235,349.8,234.9z"/>
	<path class="st25" d="M281.8,267c-1.9-0.9-3.6-2.2-3.7-4.4c-0.1-6.8-0.2-13.7,0.1-20.5c0.1-1.5,0.1-4.3,2.4-4.4
		c2.4-0.1,2.6,2.4,3.4,4.2c3.8,7.9,0.7,16.4,2.6,24.7c1.8,7.8,3.8,15.5,7.5,22.5c5.8,11,11.6,21.9,20.4,31.1
		c9.1,9.4,26.9,7.7,35.8,0.9c18.5-14,27.5-33.2,31.4-55.3c1-6,1-12.2,1.2-18.3c0.1-2.8,0.6-5.2,3.7-5.5c2.9-0.3,3.9,1.9,4.6,4.3
		c1.8,6.4,0.3,12.5-1.4,18.6c-0.5,1.8-2,2-3.6,2c0-4,0-7.9,0-11.9c-0.4-0.1-0.8-0.1-1.3-0.2c0.6,19.6-6.1,36.8-16.1,53
		c-1.2,1.5-2.7,2.9-2.8,5c0.7,1.7-0.7,2.6-1.5,3.7c-4.2,4.5-8.9,8.4-14,11.9c-0.4,0.3-0.8,0.5-1.3,0.8c-10.6,5.2-21,5.6-31.3-0.8
		c-5.5-3-10-7.4-14.6-11.6c-1-1.1-2.1-2.2-1.4-3.8c-0.2-2.2-1.7-3.5-3-5.1c-10-16.3-16.8-33.5-16.4-53.1
		C281.3,258.9,282,263,281.8,267z"/>
	<path class="st26" d="M308.1,192.9c2.3-0.7,4.6-1.4,6.9-2.1c12.7-2.5,25.3-2.5,38,0c3,1,6.1,2,9.1,2.9c1.6,1.6,4,2.4,4.9,4.7
		c1,2.6,2.5,5.3-1,7.3c-7.3-1.9-14.5-4.3-22.1-4.6c-6.6,0.6-13.2,0.6-19.9,0c-4.7,0.6-9.4,1.3-14.1,1.9
		C305.1,200.5,307.1,196.6,308.1,192.9z"/>
	<path class="st27" d="M308.1,192.9c0.6,0.2,1.6,0.5,1.1,1.2c-2.3,3.3-1.2,6.2,0.8,9c-5.6,2.1-11.2,4.1-16.7,6.1
		c-4.3-1.8-5.1-4.1-3.2-9.1C295.8,197.1,301.6,194.2,308.1,192.9z"/>
	<path class="st28" d="M366,205.7c1.9-3.2,0.8-5.9-1.3-8.5c-0.9-1.1-2.3-1.9-2.6-3.5c6.8,1.2,12.6,4.9,18.9,7.4c1.3,1,2.7,2,4,3
		c0.2,5.8-0.9,7.5-5,7.9C375.3,209.9,370.7,207.8,366,205.7z"/>
	<path class="st29" d="M290,200.2c0,3.4,0,6.8,3.2,9.1c-3.6,2.2-7.2,4.4-10.7,6.7c-1.3,0.9-2.3,1.1-3.3-0.1
		c-0.4-1.6-0.5-3.3-1.1-4.8c-1.1-2.6-0.2-4.4,2-5.8C283.4,203.6,286.7,201.9,290,200.2z"/>
	<path class="st30" d="M387,230.6c-0.1,0.3-0.3,0.4-0.6,0.4c-3,0.9-2.8,4.3-4.9,6.2c-2.5-2.4-2.5-5.8-3.4-8.8
		c-0.3-1.1,7.5-7.3,8.7-7.1c1,0.2,1.1,1.1,1.1,1.9C388.2,225.8,388,228.2,387,230.6z"/>
	<path class="st31" d="M281.5,231c-0.3,0-0.5-0.2-0.5-0.5c-0.9-3-2.5-7.4,0-8.6c2.4-1.2,5.5,2.7,8.2,4.4c2.1,1.4,0,3.6-0.2,5.5
		c-0.2,2-1.2,3.8-2.4,5.4C284.3,235.6,284.8,231.8,281.5,231z"/>
	<path class="st32" d="M380,212c4.5-0.8,3-5.4,5-7.9c2.3,1.5,5.8,1.9,5,6.1C388.6,218.2,388.6,218.3,380,212z"/>
	<path class="st33" d="M324.1,201.1c6.6-0.7,13.2-0.7,19.9,0C337.3,202.5,330.7,202.5,324.1,201.1z"/>
	<path class="st34" d="M182.1,485.9c0-9.9,0-19.8,0-29.7c1.9,3.4,0.9,7.1,0.8,10.6C182.7,473.1,184.1,479.6,182.1,485.9z"/>
	<path class="st23" d="M296.5,345c-0.3-0.9-0.7-1.8-1-2.8c-1.1-3.4,0.5-6.2,1.6-9.2c6.1-3.9,12.4-2.6,18.7-0.6
		c3.9,1.3,7.7,3.2,11.8,3.8c6.1,0.8,12.2,0.9,18.1-1.9c2.8-1.4,5.8-2.5,8.8-3.5c7.5-2.7,12.3-1.2,17.4,5.2c1.3,1.8,1.1,4,1.2,6.1
		c0,0,0-0.1,0-0.1c-7.5,11.2-17,20.1-29.3,25.9c-2.5,1.2-5.3,1.8-7.8,3.1l0.1-0.1c-1.4,1-2.7,1-4.1,0l0.1,0.1
		c-11.1-4-20.9-10-29.1-18.6C300.6,350,299.3,346.9,296.5,345z"/>
	<path class="st35" d="M371.8,336c-4-2.4-7.5-6.1-13-5.1c-3.3,0.6-6.3,1.9-9.3,3.3c-10,4.8-20.1,5.4-30.2,0.9
		c-7.2-3.2-14.6-4-22.2-2.2c0.4-3.3,0.8-6.6,1.1-9.9c1.5-4.1,0.8-8.2,0.2-12.4c1.5,0.4,1.8,2.5,3.6,2.3c0.5,1,1,2,1.5,2.9
		c4.3,4.5,8.8,8.8,14.3,11.9c10.7,6.3,21.5,6.4,32.2,0.1l-0.1,0c5.3-3.5,10.8-6.8,14-12.5c0.7-0.9,1.3-1.7,2-2.6c1.8,0.4,2-2,3.6-2
		c-0.6,4.4-1.3,8.8,0.2,13.1C370.4,328,371.1,332,371.8,336z"/>
	<path class="st36" d="M341.5,389.1c-5,2.2-10.1,2.1-15.1,0c-0.3,0-0.5-0.2-0.5-0.5c-1.2-4,3.6-13.8,7.3-14.9c0.5-0.1,0.9-0.2,1.4,0
		c3.7,1.1,8.5,10.9,7.4,14.9C342,388.9,341.9,389.1,341.5,389.1z"/>
	<path class="st22" d="M342.1,388.6c-0.3-5-5.2-14-7.8-14.3c-2.7-0.3-8,8.7-8.3,14.3c-1.7,2.8-3.8,3-6.7,1.5
		c-6.2-3.3-12.3-6.6-16.8-12.1c3.4,0,4.8,3.2,7.3,4.7c4.1,2.5,8,5.3,12.8,7.1c1.8-6.1,4.5-11.5,9.1-15.8c1.1-1,1.1-1.8,0.3-2.9
		c1.4,0,2.7,0,4.1,0c-0.4,0.8-1.2,1.5-0.1,2.5c4.8,4.3,7.6,10,9.5,16.1c5.9-2.4,11-5.7,15.9-9.5c1.2-0.9,2-2.8,4.1-2.2
		c-5.1,6-11.8,9.5-18.7,12.9C343.7,392.5,343.6,389.4,342.1,388.6z"/>
	<path class="st37" d="M296.5,345c1.5-0.3,2.1,0.8,2.7,1.7c8,10.4,18.4,17.7,30.4,22.8c0.9,0.4,2,0.5,2.4,1.6
		C316.6,367.3,305.2,358,296.5,345z"/>
	<path class="st37" d="M336,371c7.8-4.5,16.1-8.1,23.1-14c5.3-4.5,8.9-10.4,14-15c-3.6,8.5-10.4,14.4-17.6,19.8
		C349.7,366.1,343.5,370,336,371z"/>
	<path class="st38" d="M334.6,397.7c2.6,8.3,3.2,17,4.4,25.6c0.8,5.4,1.3,10.8,2,16.2c1.3,10.7-3.9,19.9-7.3,29.6
		c-3.6-10.6-8.1-20.6-6-32.6c2.1-12.1,2.7-24.6,5.4-36.7C333.2,398.9,333.3,398.1,334.6,397.7z"/>
	<path class="st39" d="M350,328c-7.4,6.3-15.9,6.2-24.6,4c-3-0.7-6-1.9-8.4-4c0.2-0.4,0.5-0.7,1-0.8c9.7,5.5,19.6,6.4,29.7,1.2
		C348.4,328.1,349.2,328.1,350,328z"/>
	<path class="st40" d="M364,315.5c-2.7,6.4-7.8,10.1-14,12.5C354.7,323.8,359.3,319.7,364,315.5z"/>
	<path class="st41" d="M317.9,327.2c-0.3,0.3-0.7,0.5-1,0.8c-5.4-3-10.1-6.8-13.5-12.1C308.9,318.9,312.4,324.5,317.9,327.2z"/>
</g>
</svg>
