<?xml version="1.0" encoding="utf-8"?>
<!-- Generator: Adobe Illustrator 19.0.0, SVG Export Plug-In . SVG Version: 6.00 Build 0)  -->
<svg version="1.1" id="Calque_1" xmlns="http://www.w3.org/2000/svg" xmlns:xlink="http://www.w3.org/1999/xlink" x="0px" y="0px"
	 viewBox="0 0 612 792" style="enable-background:new 0 0 612 792;" xml:space="preserve">
<g>
	<path d="M234.5,260c0-2.3-0.1-4.1,0-5.9c0.6-11.5,8.4-19.2,19.9-19.4c6.3-0.2,12.7,0,19-0.1c1.6,0,3.2-0.2,5.1-0.2
		c0-4.2,0-7.9,0-12.4c-5.2,0-10.3,0-15.4,0c-3.7,0-7-0.9-7-5.2c0-4.5,3.4-5,7.1-5c13.8,0,27.7,0,41.5,0c3.7,0,7,0.9,6.9,5.2
		c-0.2,4.3-3.5,5.1-7.2,5.1c-5-0.1-9.9,0-15.1,0c0,4.3,0,8,0,12.7c6.1,0,12.1,0,18.2,0c3.2,0,6.4-0.1,9.5,0.4
		c8.8,1.3,15.7,9.2,16.1,18.4c0.1,2,0,4,0,6.6c2.9,0,5.5,0,8.1,0c2.7,0,5.3,0,8.8,0c0-2,0-3.8,0-5.6c0-12,0-24,0-36
		c0-3.5,0.7-6.6,4.9-6.7c4.4-0.1,5.3,3,5.3,6.8c0,13.6,0,27.2,0,41.1c7,0,13.6,0,21,0c0-6,0.1-12.1,0-18.2c-0.1-3.8,0.8-7,5.2-7
		c4.4,0,5.1,3.3,5.1,7c-0.1,6,0,12,0,17.8c15.1,3.9,19.3,9.5,19.3,24.9c0,17.7,0,35.3,0,53c0,1.8,0,3.6,0,5.8c4.6,0,8.6,0,12.5,0
		c19.5,0,39,0,58.5,0c13.6,0,20.4,11.2,14,23.3c-9.5,18-18.9,36-28.6,53.8c-2.8,5-6.6,9.5-10.3,14.5c6.8,2.2,14.1,2.2,20.8-0.4
		c6.7-2.6,13-6.5,19-10.5c3-2,5.6-3.5,8.3-0.5c2.8,3,1.2,5.7-1.4,8.2c-17.3,16.9-46.1,19.6-67,6c-1.7-1.1-3.3-2.3-5.4-3.7
		c-10.2,7.7-21.6,12.4-34.8,12.4c-13.2,0-24.8-4.4-35.3-12.5c-10.4,8.1-21.9,12.6-35.1,12.5c-13,0-24.5-4.3-34.8-12.4
		c-23.2,16.4-46.5,16.7-70,0.1c-23.1,16.4-46.4,16.6-68.7,1c-9.3,3.6-17.7,8.3-26.8,10.2c-17.7,3.7-33.6-1.4-47.1-13.6
		c-2.7-2.4-3.9-5.3-1.1-8.2c2.5-2.6,5.3-1.8,7.9,0.5c19.4,16.5,42,16.6,61.1,0.2c3.6-3.1,6.3-2.5,9.5,0.4
		c9.5,8.5,20.2,12.3,32.5,11.4c-1.1-1.1-1.8-2.1-2.7-2.9c-22.4-21.1-44.9-42.2-67.4-63.4c-4.9-4.6-6.9-10.2-4.5-16.7
		c2.2-6.2,7.6-9.7,14.8-9.7c9.2-0.1,18.3-0.2,27.5,0.1c3.4,0.1,5.3-0.9,6.9-4.1c11.5-22.2,23.4-44.1,34.8-66.3
		c4.6-8.8,11.3-13.2,21.2-12.8C224.1,260.2,229.1,260,234.5,260z M305.6,353.3c-41.8,0-83.6,0-125.5,0c-16.8,0-33.7-0.1-50.5,0.1
		c-2,0-4.9,1.3-5.6,2.9c-0.6,1.4,0.8,4.1,1.9,5.9c0.9,1.5,2.6,2.6,3.9,3.8c20.2,18.9,40.2,38,60.5,56.8
		c13.4,12.4,13.9,11.2,26.4,0.9c2.9-2.4,5.6-2.9,8.4-0.2c16.5,16.4,44.6,17,61.9,0.1c2.7-2.7,5.4-2.4,8.3,0.2
		c18.8,16.6,42.3,16.7,61.1,0.4c3.2-2.8,5.9-3,9.2-0.1c18.6,16.1,42,16.2,60.3,0.3c3.6-3.1,6.4-3.2,9.9,0c7.8,7,9.2,6.9,16.4-0.9
		c1.2-1.3,2.5-2.7,3.4-4.3c10.5-19.5,21-39,31.3-58.6c2.1-3.9,0.1-6.8-4.4-7.2c-1.3-0.1-2.7,0-4,0
		C420.9,353.3,363.2,353.3,305.6,353.3z M172.5,342.7c76.3,0,151.8,0,227.4,0c0-3.6,0-6.8,0-10.6c-1.9,0-3.5,0-5.1,0
		c-9.2,0-18.3,0-27.5,0c-3.4,0-5.5-1.6-5.5-5.1c0-3.5,2.2-5,5.5-5c1.5,0,3,0,4.5,0c9.3,0,18.6,0,28,0c0-3.8,0-7.1,0-10.8
		c-7.4,0-14.6,0.3-21.7-0.2c-2.1-0.1-5-2-6-3.8c-1.5-3,1.5-6,5.6-6.1c7.3-0.1,14.6,0,22.2,0c0-2.2,0-3.9,0-5.5
		c0-1.6-0.2-3.2-0.3-5.3c-3.3,0-6.3,0-9.3,0c-3.3,0-5.5-1.5-5.5-5c0-3.5,2.2-5,5.5-5.1c3.1-0.1,6.2,0,9.4,0c-0.4-7-3.7-10-10.8-10
		c-56.7,0-113.3,0-170,0c-7.4,0-10.4,2.5-12.2,9.9c8.6,0,17,0,25.5,0c3.8,0,6.4,1.5,6.3,5.4c-0.1,3.6-2.8,4.9-6.3,4.8
		c-8-0.1-16,0-24,0c-8.7,0-10.8,1.8-12.6,10.8c8.9,0,17.7,0.1,26.5,0c3.8,0,6.9,0.8,6.7,5.3c-0.1,4.2-3.2,4.9-6.7,4.9
		c-9.7-0.1-19.3-0.1-29,0.1c-1.5,0-3.6,0.3-4.3,1.3c-1.9,2.6-3.1,5.7-5,9.4c8.5,0,16.1,0.1,23.7,0c3.6,0,6.7,0.8,6.8,4.9
		c0.1,4.3-2.9,5.4-6.8,5.4c-8.7-0.1-17.3-0.1-26,0c-1.4,0-3.4,0.6-4.2,1.6C175.6,336.3,174.3,339.3,172.5,342.7z M245.3,259.6
		c26,0,51.7,0,77.3,0c0.7-11.5-2.2-14.7-13.1-14.7c-17.3,0-34.6,0-51.9,0C247.1,244.9,244,248.5,245.3,259.6z"/>
	<path d="M396.1,475.3c-23.6,16.8-46.9,16.7-70.3,0.1c-23.1,16.4-46.4,16.5-69.9,0c-23.1,16.5-46.4,16.7-70.1,0
		c-1.3,0.9-2.8,1.8-4.2,2.8c-20.6,14.1-47.9,12.5-66.7-3.9c-0.6-0.5-1.2-1.1-1.8-1.7c-2.6-2.6-3.5-5.5-0.7-8.3
		c2.6-2.6,5.1-1.4,8,0.4c6.4,4,12.8,8.8,19.9,10.8c14.9,4.2,28.7,0.5,40.4-9.8c4.6-4.1,6-4.1,10.6-0.1c17.6,15.4,42.2,15.4,59.6-0.1
		c3.7-3.3,6.5-3.4,10.3-0.1c17.8,15.8,42.1,15.7,59.9-0.1c3.6-3.2,6.3-3.2,9.8,0.1c16.8,15.7,42.2,15.9,59.6,0.7
		c5-4.3,6.1-4.4,10.9-0.1c17.1,15,41.7,15.1,58.9,0.2c0.4-0.3,0.7-0.7,1.1-1c2.7-2.5,5.6-3.4,8.3-0.4c2.7,3.1,1.1,5.8-1.5,8.2
		c-8.4,7.6-18.1,12.4-29.3,14C423.1,489.4,409,485.1,396.1,475.3z"/>
	<path d="M302,311.1c-15.2,0-30.3,0-45.5,0c-3.9,0-7.4-0.6-7.3-5.3c0.1-4.4,3.5-4.9,7.2-4.9c30.5,0,61,0,91.5,0c3.7,0,7,0.6,7.1,5
		c0,4.5-3.2,5.2-6.9,5.1C332.7,311.1,317.3,311.1,302,311.1C302,311.1,302,311.1,302,311.1z"/>
	<path d="M313.5,280c14.7,0,29.3,0,44,0c3.7,0,7.1,0.6,7.2,4.9c0.1,4.7-3.5,5.3-7.3,5.3c-29.5-0.1-58.9-0.1-88.4,0
		c-3.7,0-7-0.6-6.9-5.1c0.1-4.5,3.4-5.1,7-5.1C283.9,280,298.7,280,313.5,280C313.5,280,313.5,280,313.5,280z"/>
	<path d="M289.5,332c-14.5,0-29,0-43.5,0c-3.7,0-7-0.6-7-5.1c0-4.5,3.2-5.1,6.9-5.1c29.1,0,58.3,0.1,87.4,0c3.7,0,7,0.6,7.1,5
		c0,4.3-3.2,5.2-7,5.2C318.8,332,304.1,332,289.5,332C289.5,332,289.5,332,289.5,332z"/>
</g>
</svg>
