<?xml version="1.0" encoding="utf-8"?>
<!-- Generator: Adobe Illustrator 19.0.0, SVG Export Plug-In . SVG Version: 6.00 Build 0)  -->
<svg version="1.1" id="Calque_1" xmlns="http://www.w3.org/2000/svg" xmlns:xlink="http://www.w3.org/1999/xlink" x="0px" y="0px"
	 viewBox="0 0 612 792" style="enable-background:new 0 0 612 792;" xml:space="preserve">
<style type="text/css">
	.st0{fill:#6C6D70;}
	.st1{fill:#7F8184;}
	.st2{fill:#414042;}
	.st3{fill:#242433;}
	.st4{fill:#252534;}
	.st5{fill:#605F67;}
	.st6{fill:#FB6B38;}
	.st7{fill:#FBFAF7;}
	.st8{fill:#F6E7B6;}
	.st9{fill:#BBBDBF;}
	.st10{fill:#929497;}
	.st11{fill:#EEEFEF;}
	.st12{fill:#4C4A4C;}
	.st13{fill:#4C494C;}
	.st14{fill:#4A474A;}
	.st15{fill:#FDFDFD;}
	.st16{fill:#555456;}
	.st17{fill:#565455;}
	.st18{fill:#797779;}
	.st19{fill:#BAB8B8;}
	.st20{fill:#FBFBF9;}
	.st21{fill:#D6C6BB;}
	.st22{fill:#BBB9B9;}
	.st23{fill:#F7EAC2;}
	.st24{fill:#020202;}
	.st25{fill:#030303;}
	.st26{fill:#5D595A;}
	.st27{fill:#E54C3C;}
	.st28{fill:#F8F8F8;}
	.st29{fill:#2D7BAF;}
	.st30{fill:#2979AF;}
	.st31{fill:#21618D;}
	.st32{fill:#02A04B;}
	.st33{fill:#039F4B;}
	.st34{fill:#01A04B;}
	.st35{fill:#E25749;}
	.st36{fill:#E64D3D;}
	.st37{fill:#E15041;}
	.st38{fill:#A5372B;}
	.st39{fill:#FBF6F6;}
	.st40{fill:#F8F0EF;}
	.st41{fill:#FAF1F1;}
	.st42{fill:#E04F40;}
	.st43{fill:#E35546;}
	.st44{fill:#F7F3F3;}
	.st45{fill:#E05749;}
	.st46{fill:#FAF3F3;}
	.st47{fill:#FBF5F4;}
	.st48{fill:#E45445;}
	.st49{fill:#FAF1F0;}
	.st50{fill:#FAF4F3;}
	.st51{fill:#E55546;}
	.st52{fill:#FAF5F4;}
	.st53{fill:#E45142;}
	.st54{fill:#DF5749;}
	.st55{fill:#A5382C;}
	.st56{fill:#A5443A;}
	.st57{fill:#2978AE;}
	.st58{fill:#E54D3E;}
	.st59{fill:#EFF0F1;}
	.st60{fill:#F6F7F8;}
	.st61{fill:#F3F1F2;}
	.st62{fill:#F5F6F7;}
	.st63{fill:#E65243;}
	.st64{fill:#2D7BB0;}
	.st65{fill:#2E7CB1;}
	.st66{fill:#307DB1;}
	.st67{fill:#307BAE;}
	.st68{fill:#317DB1;}
	.st69{fill:#959394;}
	.st70{fill:#327CAE;}
	.st71{fill:#E1E4EA;}
	.st72{fill:#E8EBF0;}
	.st73{fill:#3A82B3;}
	.st74{fill:#E5E5EA;}
	.st75{fill:#4285B2;}
	.st76{fill:#4184B1;}
	.st77{fill:#EFEEF0;}
	.st78{fill:#3782B4;}
	.st79{fill:#CBCBCB;}
	.st80{fill:#424143;}
	.st81{fill:#C7C7C7;}
	.st82{fill:#F9EDEC;}
	.st83{fill:#FBE9E7;}
	.st84{fill:#DCDEE0;}
	.st85{fill:#327FAF;}
	.st86{fill:#256893;}
	.st87{fill:#DFE8ED;}
	.st88{fill:#EDF3F8;}
	.st89{fill:#2E80B4;}
	.st90{fill:#B7A09E;}
	.st91{fill:#BBA6A4;}
	.st92{fill:#A43C31;}
	.st93{fill:#F3F7FA;}
	.st94{fill:#D5D6DE;}
	.st95{fill:#E1EBF2;}
	.st96{fill:#E1ECF3;}
	.st97{fill:#EAEEF0;}
	.st98{fill:#E2EDF4;}
	.st99{fill:#536673;}
</style>
<g>
	<path class="st0" d="M392,601.3c-42.3,0-84.6,0-126.9,0c-0.3,0.2-0.5,0.3-0.8,0.5c-0.3,0.1-0.6,0.2-0.9,0.3
		c-5.3,0.2-10.5-0.4-15.7-0.3c-4.4,0.1-8.9,0-13.2,1.1c-2.4,0.6-4.6,0.4-6.3-1.6c-8-1.2-16.4,1.1-24.2-2.2c-7.4-3-9.3-8.8-9.3-16.4
		c0.2-66.4,0.1-132.8,0.1-199.2c0-2.9-0.6-6.1,1.5-8.6c2.6-2.1,5.6-1.9,8.6-1.6c11.3,1.1,22.6,1.4,33.9,1.5
		c60.3,0.1,120.6,0.1,180.9,0.1c7.6,0,15.3-0.6,22.9-0.2c4.9,0.3,8.1-2.4,9.4-7c-0.6-4.1,0.1-8.1,0-12.2c-0.7-2.9,0.3-5.7,0-8.6
		c-0.7-20.4-0.3-40.8-0.2-61.2c0-2.2-0.2-4.9,3.1-5.4c0.3,0.3,0.7,0.6,1,0.9c1.2,3.2,1.4,6.5,1.4,9.8c0,96.3,0,192.7,0,289
		c0,7.3-0.6,14-7.4,18.5c-6.8,2.9-14,2.3-21,2.8c-0.3,0.2-0.5,0.3-0.8,0.5c-0.3,0.1-0.6,0.1-0.9,0.2c-10.4,0.1-20.9-0.9-31.2,0.8
		C394.4,603,393.1,602.4,392,601.3z"/>
	<path class="st1" d="M455,280.3c-1.4,1.9-0.9,4.2-0.9,6.3c0,20.3,0,40.5,0,60.8c-4.8,5.9-10.5,11-15.8,16.4c-1.3,1.3-2.6,2.6-4.5,3
		c-2.1,0.5-3.8-0.1-4-2.4c-0.2-2.6-1.2-5.2-1.1-7.9c-1.6-18.7,1-37.4-1.1-56c-3.2-15.5-20.5-26.9-35.6-26.9
		c-39.8,0.1-79.6,0-119.4,0c-3.2,0-6.3,0.2-9.4-0.8c-5-1.8-5.2-6.8-6.7-10.8c-1.4-3.6-3-6.2-7.4-5.5c-2.6-0.3-4.4-1.6-5.5-4
		c-0.4-4.4,3.1-6.3,5.7-8.6c3.8-3.4,8.1-6.1,12.2-9.2c3.9-0.5,7.8-1.5,11.8-1.4c3.1,0.9,6.3,0.7,9.4,0.7c29.5,0,58.9,0,88.4,0.1
		c3.1,0,6.4-0.7,8.9,2.1c19.1,0,38.3,0.1,57.4,0.1c11.2,0,17.3,5.9,17.6,17C455.1,262.3,455,271.3,455,280.3z"/>
	<path class="st2" d="M197.1,375.3c0,70,0,140-0.1,210.1c0,6,3.5,9.8,7,13.8c-14.3-2.5-23.2-13.1-23.3-28c0-47,0-93.9,0-140.9
		c0-41.5,0.1-82.9,0-124.4c0-12.2,5.2-21,16.1-26.5c2.5,1.1,2.4,3.4,2.4,5.5c0.2,28.2,0.2,56.4,0,84.7
		C199.3,371.7,199,373.8,197.1,375.3z"/>
	<path class="st2" d="M450,598.5c7-10.4,5-22.2,5-33.6c0.1-92.1,0.1-184.2,0.1-276.4c0-2.4-0.6-5,0.9-7.3c9.5,5.7,13.5,14.2,13.5,25
		c-0.1,38.3,0,76.6,0,114.9c0,49.9,0,99.9-0.1,149.8C469.3,584.9,462.3,594.7,450,598.5z"/>
	<path class="st1" d="M197.1,375.3c-0.1-29.5-0.1-59-0.2-88.5c0-2.5-0.1-5-0.1-7.5c0-9-0.1-18,0.1-26.9c0.2-10.2,6.1-16,16.2-16.1
		c9.3,0,18.6,0.1,27.9,0.1c0.7,1.9-0.4,3.2-1.8,4.2c-3.6,2.5-6.4,5.6-8.3,9.6c-0.7,1.4-1.8,2.3-3.4,2.6c-8-0.4-11.6,4.2-13.5,11.4
		c-1.3,5-2.6,9.8-2.9,15c-0.8,15.2-1.3,30.4-2.7,45.6c-0.7,7.6,0.3,10.4,7.8,10.7c1.9,0.1,4,0.4,5.8,1.2c1.9,2.3,5.1,3.2,6.3,6.2
		c1.7,7.1,0.6,14.3,0.8,21.4c0.2,7.9,0.8,8.6,8.6,8.6c60.8,0,121.6,0,182.3,0c7.5,0,7.6-0.3,7.7-7.9c0-2.9-1.3-6.6,3.1-7.9
		c0.5,2.7-1.3,6.8,1.1,7.8c2.9,1.1,4.6-3,6.7-4.9c3.5-3.2,6.8-6.7,10.2-10.1c1.4-1.4,2.9-2.7,5.1-2.6c0,2.7,0,5.3,0,8
		c-3.5,6.4-9.8,10.5-14.5,16.8c3.9,0,5.9-1.9,8-3.7c1.9-1.6,3.9-3.4,6.5-1.1c0.9,5-1.4,7.4-6.2,8.1c-2.6,0.4-5.2,0.9-7.9,0.9
		c-75.8,0-151.6,0-227.5,0C207.3,376.3,202.3,374.7,197.1,375.3z"/>
	<path class="st3" d="M379.9,236.1c-34.9,0.1-69.9,0.1-104.8,0.2c-1.3,0-2.7,0.1-3.3-1.5c-1.8-1.7-2.1-3.7-1.5-5.9
		c2.9-5.5,7.4-8.9,13.3-10.7c2.5-1,5.2-1.1,7.9-1.1c22.9,0,45.9,0,68.8,0c2.6,0,5.3-0.3,7.8,1.1c2.3,0.4,4.2,1.6,6.2,2.7
		c2.9,1.2,3.9,4,5.2,6.5c0.2,0.7,0.1,1.5,0,2.2C379.6,231.7,379.8,233.9,379.9,236.1z"/>
	<path class="st4" d="M272.2,157.3c-7.4-1.6-8.4-3.2-7.9-13c1.7-3.1,4.7-3.3,7.8-3.3c13.3-0.1,26.6,0,39.9,0c21.6,0,43.3,0,64.9,0
		c3.3,0,6.8-0.2,8.8,3.3c-0.1,5.1,0.9,10.7-5.7,12.9c-0.4,0.4-0.8,0.8-1.3,1.1c-1.5,1.1-3.3,0.9-5,0.8c-1.8,0.2-3.6,0-5.4,0.1
		c-28,0.5-56,0.6-84,0c-0.6,0-1.2-0.1-1.8-0.1c-1.8,0.1-3.6,0.2-5.4,0C275.1,159.3,273.4,159,272.2,157.3z"/>
	<path class="st5" d="M385.8,144.4c-2.5-0.9-5.2-1-7.8-1c-35.2,0-70.5,0-105.7,0c-2.7,0-5.3,0.2-7.8,1.1c0.4-5.8,4.5-6.8,9.1-6.8
		c13.6-0.1,27.2,0,40.9,0c20.6,0,41.2,0,61.8,0C382.6,137.5,384.5,138.9,385.8,144.4z"/>
	<path class="st2" d="M428.1,601.3c0.3-0.1,0.6-0.1,0.9-0.1c0,4.3,0.3,8.6-0.7,12.9c-1.1,5.2-4.3,8.3-9.5,8.5
		c-5.6,0.3-11.3,0.3-16.9,0c-6-0.3-9.6-4.3-9.8-10.4c-0.1-3.6-0.1-7.3-0.1-10.9C404,600,416,599.7,428.1,601.3
		c-1.5,1.9-3.6,2.4-5.8,2c-5.8-1.1-11.8-0.7-16.6-1.5c-1.7-0.1-1.2,0.8-1.3,0.1c0-0.2,0.1-0.3,0.4-0.2c4.4,0.7,8.9,0.4,13.3,1
		c1,0.1,2.2-0.2,2.9,0.5C424.6,607.1,426.3,604.1,428.1,601.3z"/>
	<path class="st2" d="M228.1,601.3c10.2-1.5,20.4-0.7,30.6-0.9c1.8,0,3.7-0.3,5.3,0.9c-1.4,1.7-3.1,2.4-5.3,1.8
		c-5-1.5-10.2-0.2-15.2-1.5c5,1.3,10.4,0,15.3,1.7c2.4,0.8,3.7-0.4,5.1-1.9c0.3,0,0.7,0,1,0c0.6,17.9-3.4,20.8-19.9,19.9
		c-1.3-0.1-2.7,0-4,0c-9.4,0-13-3.6-13.1-12.9C228.1,606,228.1,603.6,228.1,601.3z"/>
	<path class="st6" d="M228.2,251.4c1.8-7.2,7.5-10.9,12.9-15c10.7-6.6,21.1-13.5,31.2-21.1c1.4-1.8,2-4.3,4.7-4.8
		c1.9-1,3.7-1.1,5.6-0.1c3.1,2.1,4.2,4.6,1.6,7.8c-4,2.3-8.3,4.2-11.4,7.8c-3.3,3.7-7.2,6.8-11.9,8.7c-1.6,0.6-2.5,2.1-3.8,3.1
		c-5.6,3.3-10.7,7.5-16.1,11.2c-1.4,0.9-2.6,2.1-2.5,4c-0.4,2.4,0.3,4.5,0.9,6.8c0.5,1.8,0.4,3.6-0.6,5.2c-5,4.1-9.2,2.9-11.2-3.2
		c-0.4-1.3-0.8-2.5-1.4-3.7C225.7,255.6,225.8,253.2,228.2,251.4z"/>
	<path class="st7" d="M277.3,212.2c-1.6,1.2-3.1,2.6-5,3.1c0-19.3,0-38.6,0-57.9c1.6,0,3.2,0,4.9-0.1c1.9,1.5,2.2,3.6,2.2,5.8
		c0.1,14.2,0.1,28.3,0,42.5C279.3,208,278.6,210.2,277.3,212.2z"/>
	<path class="st8" d="M379.1,157.3c0.3,0,0.7,0,1-0.1c0,22.5,0,44.9,0,67.4c0,1.6-0.4,3.3-0.6,4.9c-0.2-0.7-0.4-1.3-0.6-2
		c-1.4-3.1-2.2-6.2-2.1-9.6c0-17.6,0-35.2,0.1-52.8C376.8,162.4,376.4,159.4,379.1,157.3z"/>
	<path class="st9" d="M226.1,555.4c-0.1-25.5-0.2-50.9-0.2-76.4c0-6.6-1-13.3,0.1-19.9c0.3-1.6,0-3.3,1.1-4.8c2.3-7.4,4-15.1,8-21.9
		c5.9-10.1,12.9-18.9,24.6-22.9c2.9-1,5.8-1.4,8.8-1.4c38.1,0,76.2-0.1,114.3,0c12.9,0,22.3,6.6,29.7,16.6
		c5.3,7.2,8.3,15.4,11.6,23.6c2.4,6.1,2.9,12.5,2.9,19c0.1,29.3,0,58.5,0.1,87.8c-1.4,2.1-3.5,2.2-5.8,2.2c-63.3,0-126.6,0-189.8,0
		C229.4,557.3,227.5,557.1,226.1,555.4z"/>
	<path class="st10" d="M427.1,559.3c0,4.6,0,9.3,0,13.9c-1.5,1.7-3.6,1.6-5.6,1.6c-63.3,0-126.6,0-189.9,0c-2,0-4.1,0.2-5.5-1.6
		c0-4.7,0-9.4,0-14c2-2.4,4.8-1.9,7.4-1.9c56.9,0,113.8,0,170.7,0c5.7,0,11.3,0,17,0C423.4,557.3,425.5,557.3,427.1,559.3z"/>
	<path class="st1" d="M426,576.2c1.9,2.9,0.9,6.1,1,9.2c0.1,1.8-1.1,2.7-2.9,2.7c-1.7,0-3.3,0.1-5,0.1c-61.3,0-122.6,0-183.9,0
		c-10,0-9.1,1-9.1-9.1c0-1,0-2,0-3c1.6-1.6,3.7-1.3,5.6-1.3c62.9,0,125.8,0,188.7,0C422.4,574.8,424.5,574.3,426,576.2z"/>
	<path class="st11" d="M424.1,448.3c-2.5,0.4-1.7-1.9-2.1-2.9c-4.3-11-9.8-21.1-19.7-28.3c-6-4.3-12.5-6.9-19.9-6.9
		c-35.8,0-71.6,0.6-107.4-0.2c-18.3-0.4-29.6,8.6-38.6,22.7c-4.2,6.5-6.5,13.8-8.3,21.3c0,0.2,0,0.4-0.1,0.5c-0.5,0.7-0.7,0-0.9-0.3
		c2.6-16.4,8.8-31,22-41.8c5.8-4.8,12.5-7.5,20.2-7.5c37.9,0,75.9-0.1,113.8,0c8.6,0,15.9,3.4,22.1,9
		C415.4,423.2,421.3,434.9,424.1,448.3z"/>
	<path class="st12" d="M427.1,559.3c-63.7,0-127.4,0-191,0c-3.3,0-6.6-0.1-10-0.1c0-1.3,0-2.6,0-3.8c65.2,0,130.3,0,195.5-0.1
		c1.8,0,3.7-0.1,5.5-0.2C427,556.5,427,557.9,427.1,559.3z"/>
	<path class="st13" d="M426,576.2c-66.6,0-133.3-0.1-199.9-0.1c0-1,0-2,0-2.9c67,0,134,0,201,0C426.7,574.3,426.3,575.2,426,576.2z"
		/>
	<path class="st14" d="M227.2,589.7c66.3,0,132.5,0,198.8,0c0,0.3,0,0.7,0,1c-66.3,0-132.6,0-198.8,0
		C227.1,590.4,227.1,590.1,227.2,589.7z"/>
	<path class="st1" d="M454.1,367.3c-2.5-0.2-4.1,1.3-5.5,3c-2,2.4-4.9,3.4-7.6,4.7c-1.2,0.6-2.6,0.4-3.7-0.7c-0.9-1-1.3-2.2-0.3-3.1
		c5.6-5.3,10-12,17-15.8C454.1,359.3,454.1,363.3,454.1,367.3z"/>
	<path class="st9" d="M431,357.1c-1.4,4.1-0.8,8.2-0.2,12.3c0.6,4-0.3,6-5.1,6c-61.3-0.1-122.6-0.1-183.9-0.1c-3.5,0-7-0.1-10.5,0.1
		c-2.9,0.1-4.2-0.9-4.2-4c0.2-9.7,0.2-19.3,0.2-29c3-2.4,6.6-2.7,10.2-2.6c6.7,0.2,13.2-0.7,19.8-1.7c3.9-0.6,5.4-2.6,5.5-6.3
		c0.3-13.4-0.9-26.8-1.6-40.2c-0.2-4.8-0.8-9.6,0.6-14.3c0.2-0.6,0.5-1.1,0.9-1.6c2.2-1.6,4.7-1.6,7.2-1.6
		c40.8,0,81.7-0.2,122.5,0.1c15.7,0.1,27.2,7.8,34.4,21.8c0.8,1.5,1.2,3.1,2.5,4.3c1.4,2.6,1.9,5.5,1.7,8.2
		c-0.8,10,0.2,19.9-0.5,29.8C429.9,344.6,431.1,350.8,431,357.1z"/>
	<path class="st15" d="M228.2,251.4c0,2.2,0,4.4,0.1,6.6c-0.3,1.4-0.9,2.8-0.6,4.3c0.5,2.4,1.4,4.2,4,5c2.9,0.9,4.7-0.6,6.2-2.7
		c0.9-2.6-0.4-4.7-1.3-7c-0.7-1.8-0.8-3.8,0-5.7c2.6-1.5,5.1-2.6,7.5,0.3c2.1,0.4,3.5,1.8,5,3.2c1.8,0.5,2.7,1.8,3.1,3.5
		c1.1,4.8,2.8,9.4,2.8,14.4c0.5,1.7-0.2,3.4,0,5.1c0.6,5.7-1,11.3-0.8,17c-0.4,2.5-0.9,5.3-3.5,6.1c-3,1-4.7-1.6-6.5-3.5
		c-4.1-4.4-7.4-9.5-11.9-13.6c-1.3-0.2-1.9,0.5-1.9,1.6c0.2,6.6-4.5,10.6-8.1,15.1c-1.2,1.5-2.9,2.7-3.2,4.8c0.5,2.4,2.2,4,3.8,5.6
		c1.7,1.8,3.4,3.6,3.4,6.3c-0.1,1.2-1.4,2.3-0.4,3.7c3.2,4,6.8,7.7,9.9,11.8c3,4,2.4,5.6-2.5,6.5c-1.6,0.3-3.2,0.9-4.9,0.6
		c-2.3-0.2-4.3-1-6.2-2.1c-3.3-0.3-6.6-0.6-9.9-0.8c-4.3-0.3-6.3-2.7-6.1-6.9c0.8-14.6,1.8-29.2,2.5-43.7c0.5-9.6,0.9-19.1,5-28.1
		c3.3-7.4,2.9-7.6,11.1-7.5C225.9,251.3,227,251.4,228.2,251.4z"/>
	<path class="st11" d="M429.2,300.2c-2.5,2.1-2-0.9-2.3-1.5c-6.4-12.8-16.7-20.1-30.7-21.9c-7-0.9-14.3-0.4-21.4-0.4
		c-37.3,0-74.5,0-111.8,0c-1.9-1-2.3-2.5-1.5-4.5c0.2-0.2,0.4-0.3,0.6-0.5c43.4,0,86.9-0.1,130.3,0
		C409.7,271.3,424.7,283.2,429.2,300.2z"/>
	<path class="st16" d="M253.2,273.2c-1.4-5.9-2.8-11.9-4.2-17.8c4.1-2.5,6.9-1,8.5,3c1.7,4.2,3.1,8.6,4.6,12.9l0,0
		C259.5,273.7,256.9,276,253.2,273.2z"/>
	<path class="st17" d="M244,252.2c-2.5-0.1-5-0.2-7.5-0.3c0.5-2.2,1.8-3.9,3.6-5.1c5.4-3.6,10.7-7.2,16.1-10.7
		c1.6-0.3,3.3-1.4,4.7,0.4C256,242.4,248.7,245.9,244,252.2z"/>
	<path class="st18" d="M222.1,338.4c2.3,0,4.6,0.1,6.9,0.1c5.5,1.7,10.4-1.1,15.5-2.1c2.6-0.5,3.3-3.2,3.2-5.6
		c-0.2-7.2,1.8-14.3,1-21.4c-0.5-5,3.6-8.4,3.2-13.1c0.4-6,0.8-12,1.2-17.9c4.1-3.9,5.6-4,9.7-0.9c0.8,18.1,1.7,36.2,2.4,54.3
		c0.3,7.2-0.7,7.9-7.7,8.7c-10.1,1.3-20.3,0.1-30.3,1.9C224.8,342,223.3,340.4,222.1,338.4z"/>
	<path class="st19" d="M379.1,157.3c-0.1,23.4-0.1,46.8-0.2,70.2c-1.6-1.7-3.2-3.4-4.9-5.1c-1.9-2.1-2.2-4.7-2.2-7.5
		c0-17-0.1-33.9,0-50.9c0-2.5,0-5.1,2.2-6.8C375.7,157.3,377.4,157.3,379.1,157.3z"/>
	<path class="st20" d="M374.1,157.3c0,21.7,0,43.5,0,65.2c-1.6-0.8-3.3-1.6-4.9-2.3c0-20.9,0-41.9,0-62.8
		C370.8,157.3,372.4,157.3,374.1,157.3z"/>
	<path class="st21" d="M282.9,218.1c0.1,0.7,0.1,1.3,0.2,2c-4.9,1.3-8.1,4.7-10.8,8.7c-0.1-1.2-0.2-2.3-0.2-3.5
		C275.6,222.9,279.3,220.5,282.9,218.1z"/>
	<path class="st22" d="M277.3,212.2c-0.1-18.3-0.1-36.6-0.2-54.9c1.7,0,3.3,0,5,0.1c1,3.1,0.5,6.3,0.5,9.4
		c-0.1,14.8,0.5,29.6-0.3,44.4c0,0-0.1,0.5-0.1,0.5C280.4,210.9,278.8,211.3,277.3,212.2z"/>
	<path class="st23" d="M282.2,211.2c-0.1-17.9-0.1-35.9-0.2-53.8c0.3,0,0.7,0,1,0c0,16,0,32.1,0,48.1
		C283,207.3,283.6,209.4,282.2,211.2z"/>
	<path class="st24" d="M428.1,601.3c0,2.9,0,5.9,0,8.8c-7.5-7.7-17.4-6.5-26.2-8.9C410.6,601.3,419.3,601.3,428.1,601.3
		C428,601.3,428.1,601.3,428.1,601.3z"/>
	<path class="st25" d="M264.1,601.3c0,0.8,0.2,1.7,0.1,2.5c-0.1,1.3,0.5,3-0.7,3.7c-1.3,0.8-2.5-0.5-3.5-1.3c-6-4.6-13.4-2.5-20-4.9
		C248,601.3,256,601.3,264.1,601.3C264,601.3,264.1,601.3,264.1,601.3z"/>
	<path class="st26" d="M237.8,264.7c-0.9,3.3-3,5-6.5,4.8c-2.5-0.1-4.4-1.3-5.4-3.6c-1.3-3.1-0.6-5.8,2.2-7.8c0.6,1.5,1.3,3,2,4.4
		C231.9,266.1,234.3,267.5,237.8,264.7z"/>
	<path class="st27" d="M362.9,433.1c7.6-2.7,15.3-5.3,22.9-8.2c2.3-0.9,3.3-0.2,4,1.9c2.8,8.7,5.7,17.3,8.7,25.9
		c0.8,2.4,0.1,3.3-2,4c-6.8,2.1-13.5,4.4-20.3,6.6c-1.6-0.2-2.6-1.2-3.2-2.7c-3.3-7.6-6-15.4-9.8-22.7
		C362.4,436.4,362.1,434.8,362.9,433.1z"/>
	<path class="st27" d="M373,464.6c-6.9,2.4-13.8,4.7-20.6,7.2c-2.3,0.8-3.6,0.5-4.4-2.1c-2.7-8.5-5.7-17-8.5-25.4
		c-0.7-2-0.6-3.4,1.9-4.2c7-2.1,13.8-4.5,20.8-6.7c4,8.8,6.9,18,10.6,26.8C373.3,461.6,373.3,463.1,373,464.6z"/>
	<path class="st28" d="M385.2,509.3c2-6.2,2-6.3,7.6-3.4c4.6,2.4,9,4.9,13.6,7.3c2.2,1.1,2.8,2.4,1.5,4.7c-3.8,7-7.5,14-11.2,21.1
		c-1,2-2.2,2.6-4.4,1.4c-4.8-2.6-9.7-5-14.4-7.8c-3.9-2.3-0.2-4.8,0.2-7.3c0.4-1.3,1.7-1.5,2.7-1.9c6-2.7,6.8-4.3,5.1-10.8
		C385.6,511.6,384.9,510.5,385.2,509.3z"/>
	<path class="st28" d="M375,523.4c-2.9,6-2.9,6-8.7,3c-2.2-1.1-4.4-2.2-6.6-3.4c-7.6-4-7.6-4-3.7-11.4c2.9-5.4,5.8-10.8,8.6-16.3
		c1.3-2.7,2.7-3.4,5.4-1.8c3.4,2.1,6.9,3.9,10.5,5.7c5.9,3.1,6,3,2.5,9c-0.3,0.8-1.1,1.1-1.8,1.5c-6.1,3.1-6.8,4.4-5.7,11.3
		C375.5,522,375.6,522.7,375,523.4z"/>
	<path class="st29" d="M265.3,442.2c-1.3-3.1,3.2-4.3,2.3-7.9c-0.6-2.6,1.6-5.9,2.5-9c0.7-2.7,2.5-2.1,4.3-1.5
		c7.4,2.4,14.8,4.7,22.3,7.1c0.3,1,1,1.8,0.9,2.8c0,1.2-0.6,2.3-0.7,3.6c-0.1,0.7,0,1.4-0.3,2.1c-0.5,1.3-0.8,2.6-1,3.9
		c-0.1,0.5-0.1,0.9-0.3,1.3c-0.7,1.2-1.5,2.3-2.1,3.6c-0.7,1-0.9,2.4-2.3,2.8c-8-1.4-15.7-4.2-23.4-6.9
		C266.4,443.8,265.8,443,265.3,442.2z"/>
	<path class="st30" d="M403.1,502.3c-4.3-0.4-6.4-3.4-7.7-6.9c-4.5-12.4-3.6-24.5,3.2-35.8c2.2-3.6,5.2-6.8,10-6.2
		c4.8,0.6,6.9,4.3,8.4,8.2c1.2,3.1,2.2,6.3,2,9.7c-2.4,0.9-3.4-0.7-4.6-2.3c-1.3-1.7-2.2-4-4.9-4.2c-3.3-1.5-3.2,1.9-4.5,3.2
		c-2.9,3.3-3.7,6.8-2.3,11.3c1.7,5.5-0.5,11.1-1.2,16.6C400.7,498.4,404.7,499.6,403.1,502.3z"/>
	<path class="st31" d="M403.1,502.3c-1-2.1-3.6-3.2-4-5.8c7.1-0.6,8.5-5.3,8.5-11.4c0-2.4,0.7-4.7,2.2-6.9c1.5-2.2,1-5.1,0-7.6
		c-0.8-2-1.6-4,0-6.1c0.5-1.3,0.4-3.5,2.5-0.9c2.1,2.7,4.4,5.2,6.7,7.7c0.8,8.7-0.6,17-5.2,24.4
		C411.4,499.5,408.6,503.3,403.1,502.3z"/>
	<path class="st32" d="M284.6,503.2c-3.2,5.4-6.3,10.8-9.5,16.2c0.6,3.2-0.7,5-3.9,5.5c-2.1-4-4-8-6.3-11.9
		c-1.4-2.4-0.7-3.5,1.6-4.6c6.9-3.3,13.7-6.8,20.5-10.2c0,0,0.2,0.2,0.2,0.2C287.9,500.8,286.6,502.2,284.6,503.2z"/>
	<path class="st32" d="M319.1,500.3c-10.2-1-20.4-2-30.6-3c6.9-3.6,13.8-7.3,20.7-10.9c1.3-0.7,2.7-1.8,3.6,0.4
		C314.8,491.4,317.9,495.4,319.1,500.3z"/>
	<path class="st33" d="M305.9,523.2c4.4-7.6,9.7-14.8,13.1-23c3.3,4,4.9,8.9,7.4,13.4c1.2,2.1-0.3,2.6-1.6,3.3
		c-6.9,3.5-13.8,7.1-20.7,10.6C302.8,525.2,304.1,524.2,305.9,523.2z"/>
	<path class="st34" d="M301.8,528.3c-6.5,4.3-13.7,7.2-20.5,11c-2.1,1.2-2.9,0.1-3.7-1.6c-2.1-4.3-4.2-8.6-6.4-12.9
		c5.5-3.1,11.3-0.6,16.9-0.5c3.4,0.1,6.8,0.6,10.3,1C300,525.8,301.1,526.9,301.8,528.3z"/>
	<path class="st35" d="M263.2,447.2c0.3-0.9,0.6-1.8,0.9-2.7c1.6-0.9,3.1-0.3,4.7,0.1c8.5,2.4,16.8,5.7,25.6,7.4
		c6.5,3.1,13.6,4.1,20.3,6.7c1.7,0.7,3.6,0.9,4.5,2.8c0.1,1.1,0.2,2.2-0.8,3c-2.1,0.9-4.1,0.3-6.2-0.4c-6.6-2.3-13.4-4.3-20.1-6.2
		c-1.3-0.3-2.4-0.9-3.7-1.2c-7-2.4-14.2-4.5-21.3-6.7C265.3,449.4,264.1,448.6,263.2,447.2z"/>
	<path class="st36" d="M385.2,509.3c3.5,2.9,5.2,6.5,3.5,10.8c-1.8,4.8-5.9,5.6-10.5,5.2c0-0.2,0-0.3-0.1-0.5
		c-0.4-5.9,2.7-10.5,5.4-15.3c0.2-0.1,0.4-0.2,0.7-0.3C384.5,509.3,384.8,509.3,385.2,509.3z"/>
	<path class="st37" d="M296.6,434.6c-0.6-1.2-0.2-2.5,0.1-3.7c8.8,2.7,17.7,5.5,26.5,8.2c2.3,0.7,3.7,1.6,1.9,4.1
		c-0.7,0.8-1.6,1.1-2.7,0.8c-8.1-2.5-16.1-5.2-24.2-7.6C297.4,436.2,296.9,435.4,296.6,434.6z"/>
	<path class="st38" d="M373,464.6c-2.8-2.7-3-6.5-4.2-9.9c-2.4-7-5.2-14-6.7-21.3c0.2-0.2,0.5-0.3,0.8-0.2
		c4.4,10.1,8.8,20.2,13.3,30.3C375.3,464.4,374.1,464.4,373,464.6z"/>
	<path class="st39" d="M294.3,442.9c0.1-1.2-0.3-2.5,1-3.3c1.2-1,2.5-1,3.8-0.5c6.8,2.6,14,4.1,20.8,6.6c1.5,0.5,2.8,1.1,3.3,2.7
		c-0.1,0.9-0.1,1.8-0.2,2.7c-1.1,1.1-2.5,0.9-3.7,0.5c-7.8-2.6-15.7-5-23.6-7.3C294.9,444.2,294.6,443.6,294.3,442.9z"/>
	<path class="st40" d="M296.6,434.6c9.7,2,19,5.7,28.5,8.6c-0.3,0.8-0.6,1.6-1,2.4c-1,0.7-2,1-3.3,0.6c-7.9-2.4-15.8-4.7-23.6-7.5
		c-0.8-0.3-1.4-0.9-1.7-1.7C295.4,436,295.9,435.3,296.6,434.6z"/>
	<path class="st41" d="M292.5,447c-0.2-1.1,0.2-1.9,1.2-2.4c7.7,0.1,14.5,3.8,21.7,5.9c2.1,0.6,4.8,0.3,5.8,3.1
		c0.5,0.9,0.3,1.8-0.1,2.7c-3.4,1.8-6.4-0.5-9.4-1.1c-3.9-0.8-7.4-2.6-11.3-3.5c-2.1-0.9-4.4-1-6.4-2.2
		C293,449,292.6,448.1,292.5,447z"/>
	<path class="st42" d="M375,523.4c-2.6-3.2-3.7-6.6-1.6-10.4c2-3.8,5.5-4.8,9.6-4.7c0.4,0.3,0.8,0.6,1.2,1c0,0-0.1,0.1-0.1,0.1
		c-2.1,3.2-3.4,6.7-5.1,10.1c-0.8,1.5-0.9,3.6-3.2,4C375.5,523.4,375.2,523.4,375,523.4z"/>
	<path class="st43" d="M295.5,437c9.5,2.9,19,5.8,28.6,8.6c0,1.1,0.2,2.2-1,2.9c-9.3-3-18.6-5.9-27.8-8.9
		C295.2,438.7,294.9,437.8,295.5,437z"/>
	<path class="st44" d="M294,453.4c-10-3-19.9-6-29.9-9c0.4-0.8,0.8-1.5,1.2-2.3c8.5,2.7,17,5.3,25.5,8c1.5-0.8,2.7-0.5,3.6,0.9
		C294.8,452,294.7,452.8,294,453.4z"/>
	<path class="st45" d="M321.2,453.6c-9.2-3-18.3-6-27.5-9c0.2-0.6,0.4-1.1,0.6-1.7c9.9,1.5,19,5.7,28.6,8.3
		C322.8,452.3,322.2,453.1,321.2,453.6z"/>
	<path class="st46" d="M294,453.4c0-0.7,0-1.3,0-2c0.2-0.2,0.3-0.4,0.5-0.6c2.2-1.1,4,0.3,6,0.7c4.7,1.5,9.3,2.9,14,4.4
		c1.7,0.6,4.1,0.4,4.6,2.9c0.7,0.9,1,1.8,0,2.7C310.7,459,302.2,456.8,294,453.4z"/>
	<path class="st47" d="M261.1,455.2c0.1-1.2,0.9-1.8,1.9-2.3c0.5-0.5,1.1-1,1.7-0.8c7.8,2.1,15.8,3.5,22.9,7.8
		c0.6,1.1,0.6,2.2,0,3.3c-0.3,0.5-0.8,0.8-1.3,0.9c-8-1.5-15.5-4.7-23.2-6.9C262.1,457,261.4,456.3,261.1,455.2z"/>
	<path class="st48" d="M261.1,455.2c8.3,2.7,16.7,5.4,25,8.1c0.6,0.8,0.5,1.6-0.3,2.3c-7.7-2.4-15.5-4.8-23.3-7.1
		C260.7,458,259.5,457.3,261.1,455.2z"/>
	<path class="st49" d="M317,469.5c-0.3,0.9-0.6,1.9-0.9,2.8c-0.7,0.6-1.4,0.9-2.3,0.6c-7.6-2.6-15.6-3.9-22.9-7.6
		c-0.4-0.4-0.6-1-0.6-1.5c0-1.3,0.6-2.1,1.7-2.7C300.7,462.8,309.4,464.5,317,469.5z"/>
	<path class="st50" d="M292.5,456.4c8.6,2.7,17.2,5.4,25.8,8.1c-0.1,0.9-0.2,1.8-0.3,2.8c-0.3,0.2-0.6,0.6-0.8,0.5
		c-8.8-2.2-17.7-4-25.6-8.6C291.2,458,291,456.9,292.5,456.4z"/>
	<path class="st51" d="M292.3,459.1c8.6,2.7,17.1,5.5,25.7,8.2c-0.3,0.8-0.6,1.5-1,2.3c-8.3-2.5-16.6-4.9-24.9-7.4
		c-0.4-0.2-0.6-0.4-0.9-0.8c-0.2-0.6-0.2-1.1,0-1.7C291.6,459.3,291.9,459.1,292.3,459.1z"/>
	<path class="st52" d="M263.2,447.2c8.6,2.7,17.2,5.5,25.8,8.2c1.2,1.8,0,2.6-1.4,3.2c-7.9-1.6-15.4-4.4-23-6.8
		c-0.8-0.3-1.3-0.9-1.5-1.8C263.1,449,263.2,448.1,263.2,447.2z"/>
	<path class="st51" d="M263.1,449.9c8.1,2.5,16.2,5.1,24.4,7.6c0.6,0.3,1.1,0.6,1.3,1.3c0.1,0.7-0.1,1.3-0.6,1.8
		c-0.4,0.2-0.8,0.1-1.2-0.1c-8-2.5-16-5-24.1-7.5C262.1,451.9,261.5,450.9,263.1,449.9z"/>
	<path class="st53" d="M291,464.6c8.3,2.6,16.7,5.2,25,7.8c-0.5,3.5-2.8,2.1-4.5,1.6c-7.2-2.2-14.3-4.5-21.4-6.8
		C289.4,465.9,289.9,465.1,291,464.6z"/>
	<path class="st54" d="M319.2,458.8c-6.4-2.1-12.8-4.2-19.2-6.3c-0.5-0.8-0.5-1.5,0.1-2.3c7,2,14,4.1,21,6.1
		C321.1,457.7,320.5,458.5,319.2,458.8z"/>
	<path class="st55" d="M375.7,523.5c2.7-4.8,3.4-10.6,8.3-14.1c-1,5.5-3.9,10.3-5.9,15.5C377.1,524.7,376.3,524.3,375.7,523.5z"/>
	<path class="st56" d="M291,464.6c-0.3,0.9-0.6,1.7-0.9,2.6c-1.4-0.5-2.8-1-4.3-1.4c0.1-0.8,0.2-1.5,0.3-2.3
		c0.3-0.1,0.5-0.2,0.8-0.3c1.8-1.1,3-0.1,4.1,1.2L291,464.6z"/>
	<path class="st57" d="M292.1,327.3c6.6-2.7,13.3-5.3,19.9-8c1.6-0.6,2.7-0.7,3.5,1.3c2.8,7.6,5.7,15.3,8.7,22.8
		c0.9,2.2,0,3-1.8,3.7c-12.6,4.8-25.2,9.6-37.7,14.5c-2.3,0.9-3.7,0.7-4.6-1.9c-1.2-3.8-2.6-7.5-3.9-11.3c2.1-3.1,2.6-7.9,7.8-7.7
		c0.6,0,1.1,0,1.6-0.4c1-1.4,2.2-2.1,3.9-1.5c0.2,0.1,0.8,0.7,0.7-0.2c-0.1-0.3-0.4-0.5-0.5-0.9c-0.2-1,0.5-2.1-0.2-3.1
		C286.5,330.9,290.8,329.6,292.1,327.3z"/>
	<path class="st2" d="M328.5,310.3c-8.3,0-16.6-0.2-24.9,0.1c-4.7,0.1-6.5-1.7-6.4-6.4c0-4.5,1.1-6.8,6.1-6.7
		c17.1,0.2,34.2,0.2,51.3,0c4.8,0,5.8,2.2,5.8,6.4c0,4.5-1,6.9-6.1,6.7C345.8,310.1,337.1,310.3,328.5,310.3
		C328.5,310.3,328.5,310.3,328.5,310.3z"/>
	<path class="st58" d="M401.3,338.5c1.4,0.7,3.5,1,2.6,3.3c-0.8,2.2-2.5,0.7-3.8,0.8c-0.7,0-1.3,0-2,0c-3.2,0.4-6.2,1.3-9.5,0.8
		c-3.3-0.5-2.9,2.2-2.8,4.4c-0.1,1.3-0.5,2.5-1.7,3.2c-1.7,1.2-3.4,2.4-5.4,0.4c-0.1-0.3-0.1-0.6-0.2-1c-0.6-8-1.6-8.9-9.7-9.5
		c-3.1-0.2-6.3-0.2-8.7-2.7c0.3-1.5,0-3.3,1.8-4.1c5.2-1.8,10.8,0.6,16-1.2c2.2-1.2,0.5-4.8,3.4-5.7c0.7-1.2,0.8-3,3-2.2
		c1.9,0.7,1.2,2,1,3.3c-0.1,1-0.1,2-0.2,2.9c0,3.3,1.3,4.3,4.9,4.4C393.9,335.7,398.1,335.6,401.3,338.5z"/>
	<path class="st59" d="M360.2,338.1c5.4,0.7,10.8,1.5,16.3,1.9c2.7,0.2,4,0.9,3.2,3.9c-0.6,2.4-0.6,4.9-0.9,7.4
		c-0.3-1.3-0.6-2.6-0.9-4c-1.1-1.1-2.4-1.1-3.6-0.4c-3.4,2.1-7.4,2.1-11.1,3.3c-1.3-0.6-4.7,1.1-3.1-2.8c0.4-3.2,3-4,5.6-5.1
		c-2.4,0.2-4.3-0.6-5.4-2.7C360.1,339.1,360.1,338.6,360.2,338.1z"/>
	<path class="st60" d="M401.3,338.5c-3.6-0.4-7.3-1.2-10.9-1.1c-4.7,0.1-6.3-1.8-5.1-6.3c1,0.8,0.3,2.5,1.7,3
		c3.2-5.5,8.5-6.6,14.2-6.9c1.2,0.7,4.8-1.4,2.9,2.7c-0.8,3.6-3.6,4.4-6.3,4.9c2.1,0.4,4.9-0.3,6.3,2.7
		C403.1,337.9,402.2,338.2,401.3,338.5z"/>
	<path class="st61" d="M380,335.2c-3.1,2.2-6.2-0.3-9.3-0.1c-2.9,0.1-5.8-0.6-8.7-1c1-0.3,2-0.7,3-1c1-1.4,2.4-1.6,3.7-1.3
		c-2.6-1.4-5.7-2.7-5.7-6.7c-0.3-0.7-1.1-1.6-0.4-2.2c1.2-1.1,2.4,0.1,3.7,0.2c5.2,1.6,9.7,4.3,12.9,8.9
		C379.5,333,380.4,333.9,380,335.2z"/>
	<path class="st62" d="M384,347.4c-1-5.7-0.3-6.5,4.8-6c3.1,0.4,6.2,0.8,9.3,1.1c-1,0.3-2,0.7-3.1,1c-0.6,2.2,1.4,2.2,2.6,2.9
		c2.4,1.4,4.3,3.1,4.4,6.1c-0.8,2.9-2.6,1.3-4.1,1c-2.9-0.2-5.5-1.1-7.4-3.2C388.8,348.3,386.4,348,384,347.4z"/>
	<path class="st63" d="M287.1,342.5c0.2,1.1-0.3,2.3-1.3,2.4c-1.4,0.2-1.7-1.2-1.8-2.4c-2.1-3.6-3.4,0.2-5.1,0.5
		c-0.7,0.1-1.3-0.1-1.8-0.7c-1.1-0.8-4,1.4-3.4-2.1c-0.1-1.5,0.9-2.1,2.1-2.4c1.5-0.3,2.9-0.7,3.3-2.5c0.1-1,0.3-2,1.1-2.8
		c0.9-1.3,1.9-1.2,3-0.2c0.9-0.1,1.6,0.4,2.4,0.8c2.1,0.5,4.2,1.2,6.4,0.2c0.9,0.1,2-0.2,2.1,1.2c0.3,2.8-2.9,1.2-3.6,2.7
		C289.3,339,284.8,338.6,287.1,342.5z"/>
	<path class="st64" d="M384,347.4c1.6-0.6,0.6-2.4,1.8-3.6c4,3.2,8.1,6.4,12.2,9.7c-4.9,0.8-9.8,1.3-13.8-2.5
		C384.1,349.8,384.1,348.6,384,347.4z"/>
	<path class="st65" d="M378.1,333.2c-3.9-3.4-7.9-6.8-11.8-10.1c4.8,0.1,9.6-0.2,13.9,2.2C380.1,328.1,382.3,331.5,378.1,333.2z"/>
	<path class="st66" d="M363.1,350.3c4.4-3,9.3-4.7,14-7.1c1.5,1.3,0.5,2.9,0.7,4.2c-0.4,3.6-2,5.1-5.8,4.1
		C369.1,350.7,366.1,350.6,363.1,350.3z"/>
	<path class="st64" d="M401.1,327.3c-4.7,2.3-9.4,4.6-14.2,6.9c0.2-8.9,0.2-8.9,9-8C397.7,326.4,399.6,325.9,401.1,327.3z"/>
	<path class="st67" d="M404.1,337.5c-1.6-0.2-3.3-0.3-4.9-0.5c-2-0.3-3.9-0.6-6.5-1c3.7-2.8,7.7-4.2,11.3-6.1
		C406,332.5,405.2,335,404.1,337.5z"/>
	<path class="st66" d="M360.1,339.6c3.5,1.5,7.6-0.2,11.7,2.1c-4.2,2.1-8,3.9-11.8,5.7C358.1,344.8,360.3,342.2,360.1,339.6z"/>
	<path class="st68" d="M402,352.5c-3.4-2.8-6.8-5.6-10.2-8.5c1.1-1.2,2.2-0.3,3.3-0.5c0.9,0.3,1.8,0.6,2.8,0.7
		C404.3,345,404.8,346,402,352.5z"/>
	<path class="st69" d="M262.8,277.4c-3.3-0.6-6.5,0.4-9.7,0.9c0-1.7,0.1-3.4,0.1-5.1c3-0.7,5.8-1.9,8.9-1.8c0.3,1.6,0.6,3.3,0.9,4.9
		C263,276.7,262.9,277.1,262.8,277.4z"/>
	<path class="st70" d="M363,325c3,2.5,6,5,10.2,8.5c-3.7-0.2-6-0.4-8.2-0.5C360.2,331.4,359.7,329.6,363,325z"/>
	<path class="st71" d="M291.9,333.3c-1.9,0.9-3.8,1.7-5.6,2.6c-1.4,0.6-2.1,0.1-2.3-1.4c0.5-3,2.6-4.4,5.2-5.3
		c0.9-0.7,1.5-1.9,2.9-1.9c0.1,1.6-1.1,2.6-1.9,3.7C288,333.9,290.5,333.2,291.9,333.3z"/>
	<path class="st72" d="M278.9,342.3c0.1-2.5,2.3-2.2,3.6-2.4c1.3-0.2,1.5,1.4,1.4,2.6c-1.5-1.4-2.1-0.1-2.9,0.9
		c-1.6,1.8-2.2,4.4-4.9,5.1c-0.1-0.4-0.1-0.8-0.2-1.2C275.4,344.8,277.5,343.7,278.9,342.3z"/>
	<path class="st73" d="M289.2,329.2c-1.8,1.7-2.4,4.6-5.2,5.3c-1-0.5-0.8-1.4-0.8-2.2C284,329.1,286.2,328.4,289.2,329.2z"/>
	<path class="st74" d="M281.1,334.7c1.9,5.2-2.8,3.4-4.8,4.5c-1.6-1.1-3.8-1.1-5.2-2.7c0.6-1.4,1.9-1.2,3-1.4
		C276.3,333.5,278.7,334.4,281.1,334.7z"/>
	<path class="st75" d="M281.1,334.7c-2.2,3.2-4.7-0.2-7,0.4c1.3-2.6,3.5-2.9,6.1-2.5C280.5,333.3,280.8,334,281.1,334.7z"/>
	<path class="st76" d="M271.1,336.5c1.8,0.3,3.6,0.4,5.3,0.9c2.1,0.6,0,1.2-0.1,1.9c-1,0.1-2,0-2.6,1
		C271.7,339.7,271.7,337.9,271.1,336.5z"/>
	<path class="st77" d="M378.1,333.2c2.9-2.1,1.3-5.3,2.1-7.9c0.4,0.6,0.8,1.3,1.2,1.9c-0.5,2.6,0.2,5.5-1.4,8
		C379.4,334.5,378.7,333.9,378.1,333.2z"/>
	<path class="st78" d="M278.9,342.3c-0.2,2.1-2.2,3.2-2.9,5c-3-2.4-1-3.7,1.1-5C277.7,342.3,278.3,342.3,278.9,342.3z"/>
	<path class="st79" d="M251.9,296.3c-0.7,12.4-1.3,24.8-2,37.2c-0.2,3.1-1.8,5.7-5.1,5.7c-5.3,0.1-10.6,0.7-15.8-0.8
		c2.3-0.1,4.6-0.3,7.6-0.5c-4.7-5.8-9.1-11.1-13.5-16.5c5.3-1.9,6.4-6,5.9-10.9c0-0.5,0.1-1,0.2-1.5c0.7-6.2,2.8-7.3,9.1-4.5
		c-1.5-2.9-3.4-5.5-5.2-8c-3-4.2-2.8-10.5,0.1-14.3c5.6,6.2,11.2,12.3,17.2,18.9C251,299,251.4,297.6,251.9,296.3z"/>
	<path class="st80" d="M233.1,282.3c-0.1,2.3,0,4.7-0.2,7c-0.3,3.1,1.7,4.7,3.1,7.1c2.3,3.7,5.7,7.4,6,12.9
		c-2.7-1.5-5.2-2.9-7.8-4.2c-1.4-0.7-3-1.6-3.1,1c-0.1,5.2-3.6,11,3.2,15c-4.1,0.3-7.8-1.1-11.4,0.4c-1-2.1,1.5-2.1,2-3.3
		c1.6-3.2-0.5-6.3-0.4-9.5c0.1-1.8-1.7-1.5-3.1-1.3c-2.1,0.3-4.4,0.8-5.4-2c1.9-3.6,4.5-8,7.2-9.5c5.8-3.2,3.5-8,4.6-12.1
		c0.4-1.5,0.7-3.1,2.2-3.6C232,279.5,232.2,281.4,233.1,282.3z"/>
	<path class="st81" d="M216.2,305.4c3,1.7,5.5-0.7,8.1-1.4c2.6-0.7,3.5,0,3.1,2.4c-0.7,3.9,2.3,8.6-2.3,11.8
		c-1.5-4.2-5.7-6.4-7.9-10C216.5,307.3,214.8,306.8,216.2,305.4z"/>
	<path class="st82" d="M356.1,442.7c-4.2,1-6.6,2.7-5.7,6.1c1,4,4.3,3.9,8.2,2.9c-2.7,3.7-5.6,4.4-8.9,2.5c-3.1-1.8-4.3-4.7-2.8-8.1
		C348.4,442.5,351.1,441.1,356.1,442.7z"/>
	<path class="st83" d="M359.3,448.2c-1.1,0-1.8-0.7-1.9-1.8c-0.1-1.1,0.6-1.8,1.7-1.9c1.1-0.1,1.8,0.6,1.9,1.7
		C361.1,447.4,360.4,448,359.3,448.2z"/>
	<path class="st54" d="M294.1,451.4c-1.1-0.4-2.2-0.8-3.2-1.3c0.3-1.2,0.6-2.3,1.7-3.1c0.8,0,1.4,0.4,1.7,1.1c0.6,1,0.8,1.9-0.2,2.8
		C294.1,451.1,294.1,451.2,294.1,451.4z"/>
	<path class="st84" d="M409.8,464.4c2.6,5.5,3.2,10.6,0.7,16.8c-1.9,4.5-2.4,10.3-0.6,15.9c-3.6-0.2-7.2,0.9-10.7-0.6
		c-0.3-2.7,1.3-4.9,1.3-7.6c0.1-4.1,0.5-8.1-0.1-12.3c-1.1-7,4.7-11.6,6.9-17.5C409.8,460.4,408.6,462.9,409.8,464.4z"/>
	<path class="st85" d="M286.1,511.5c1-5.5,3.9-8.4,8.6-8.5c5.5-0.2,8.6,2.6,10.1,8.9c-3.6,1.2-7.2-0.8-10.9-0.1
		C291.3,511.3,288.7,512.9,286.1,511.5z"/>
	<path class="st86" d="M302.9,518.5c-1,0.9-1.9,1.7-2.9,2.6c-0.3,0-0.6,0-0.9-0.1c-3.1-2.4-5.8-5-3-9.3c3.3-0.6,6.3-0.2,8.3,2.9
		C303.9,515.9,303.4,517.2,302.9,518.5z"/>
	<path class="st87" d="M304.5,514.6c-2.9-0.7-5.4-2.8-8.6-2.4c-0.3,0.3-0.7,0.4-1.2,0.2c-0.7-0.6-1.3-1.2-0.6-2.2
		c3.7-0.2,7.4-0.1,10.8,1.6C304.7,512.8,304.6,513.7,304.5,514.6z"/>
	<path class="st88" d="M294,510.3c0.3,0.6,0.6,1.2,1,1.7c-2.3,3-5.1,4.3-8.8,2.4c0,0-0.3-0.2-0.3-0.2c0.1-0.9,0.2-1.8,0.3-2.8
		C288.7,510.9,291.2,509.4,294,510.3z"/>
	<path class="st89" d="M286.2,514.4c2.8-1.5,5.8-2.1,8.8-2.4c0.3,0,0.6,0.1,0.8,0.2c0.6,3.1,3.1,5.5,3.3,8.8
		C292.5,523.2,288.6,521.2,286.2,514.4z"/>
	<path class="st90" d="M288.2,458.3c-0.3-0.3-0.5-0.5-0.8-0.8c0.9-0.4,1.7-1,1.5-2.2c1.2,0.4,2.4,0.7,3.6,1.1
		c-0.1,0.9-0.2,1.7-0.3,2.6c0,0-0.2,0.4-0.2,0.4C290.4,460.3,289.3,459.5,288.2,458.3z"/>
	<path class="st35" d="M294,450.9c0.1-0.9,0.1-1.8,0.2-2.8c2,0.7,3.9,1.4,5.9,2.1c0,0.8-0.1,1.5-0.1,2.3
		C298,452,296,451.4,294,450.9z"/>
	<path class="st91" d="M291,464.3c-1.4-0.4-2.7-0.8-4.1-1.2c0-0.9,0.1-1.8,0.1-2.7c0.3-0.1,0.6-0.1,0.9-0.2c1.7-0.9,2.9,0,3.9,1.1
		c0.1,0.3,0.2,0.5,0.2,0.8C291.8,462.9,291.4,463.6,291,464.3z"/>
	<path class="st92" d="M291.9,461.4c-1.4,0-2.8-0.2-3.9-1.1c0.1-0.6,0.2-1.3,0.3-1.9c1.4,0,2.7,0.2,3.8,1.1
		C292,460.1,292,460.7,291.9,461.4z"/>
	<path class="st93" d="M292.3,350.8c-0.1,2.1-1,3.5-3.3,3.6c-2.2,0.1-3.5-1.2-3.6-3.3c-0.1-2.1,1.2-3.5,3.3-3.7
		C290.9,347.3,292.1,348.6,292.3,350.8z"/>
	<path class="st94" d="M287.1,342.5c-3.1-4.4-0.4-5.1,3.3-5.2c1.3,2.4,4.5,1.1,6.5,3.2c-2.6,1.6-4.8,0-6.8-0.2
		C288.1,340.1,286.9,340,287.1,342.5z"/>
	<path class="st95" d="M314.1,346.3c-0.2,1.5-1,2.2-2.6,2.1c-1.3-0.1-2.2-0.9-2.2-2.2c0-1.5,0.9-2.5,2.4-2.6
		C313.3,343.7,314.1,344.6,314.1,346.3z"/>
	<path class="st96" d="M303.9,341.5c-1.6-0.1-2.5-0.9-2.5-2.5c0.1-1.4,1.1-2.4,2.6-2.3c1.3,0.1,2.1,0.9,2.1,2.3
		C306.3,340.5,305.5,341.4,303.9,341.5z"/>
	<path class="st97" d="M305.2,325.4c1.4,0.3,2.2,1.2,2,2.7c-0.1,1.3-0.8,2.1-2.2,2.2c-1.6,0-2.5-1.1-2.5-2.4
		C302.6,326.5,303.4,325.4,305.2,325.4z"/>
	<path class="st98" d="M315.6,330.4c-0.3,1.3-1,2.2-2.5,1.9c-1.1-0.2-1.7-1.1-1.6-2.2c0.1-1.3,1-2.1,2.4-1.8
		C315.1,328.4,315.5,329.3,315.6,330.4z"/>
	<path class="st99" d="M409.7,474.4c-0.3,2-1.5,3.1-3.4,3.1c-2.2-0.1-3.4-1.3-3.2-3.5c0.2-2,1.6-2.9,3.5-2.7
		C408.5,471.4,409.5,472.6,409.7,474.4z"/>
</g>
</svg>
