<?xml version="1.0" encoding="utf-8"?>
<!-- Generator: Adobe Illustrator 19.0.0, SVG Export Plug-In . SVG Version: 6.00 Build 0)  -->
<svg version="1.1" id="Calque_1" xmlns="http://www.w3.org/2000/svg" xmlns:xlink="http://www.w3.org/1999/xlink" x="0px" y="0px"
	 viewBox="0 0 612 792" style="enable-background:new 0 0 612 792;" xml:space="preserve">
<style type="text/css">
	.st0{fill:#3C92C8;}
</style>
<g>
	<path class="st0" d="M324,375.1c35.8,0,71.6,0,107.5,0c8.6,0,12.3,3.9,12.5,12.5c0.4,17.7-3.4,34.4-12.7,49.6
		c-1.1,1.8-1.4,2.9,0.5,4.5c4.7,4,9,8.4,13.6,12.5c6.3,5.7,12.2,5.6,18.5-0.3c4.3-4,8.5-8,12.8-11.9c11.6-10.4,29.3-10.9,41.3-1.1
		c5.1,4.2,6.1,9.9,2.5,14.4c-3.7,4.6-9.3,5-14.6,1.1c-5.6-4.1-11.6-3.8-16.7,1c-4.5,4.2-9,8.5-13.5,12.6
		c-12.1,11-30.7,10.8-42.7-0.4c-4.1-3.9-8.3-7.7-12.4-11.6c-6.4-6-12.9-5.9-19.4,0.2c-4,3.8-8,7.6-12,11.3
		c-12.4,11.4-31.2,11.3-43.5-0.2c-4.1-3.9-8.2-7.8-12.4-11.6c-6.2-5.6-12.5-5.5-18.6,0.1c-4,3.7-8,7.5-12,11.3
		c-13.3,12.3-31.5,12.2-44.5-0.2c-4-3.8-8-7.5-12-11.3c-5.6-5.2-12.2-5.3-17.8-0.2c-4.3,3.9-8.6,7.9-12.8,11.9
		c-12.7,11.8-31.2,11.9-43.8,0.1c-4.3-4-8.5-8-12.8-11.9c-5.2-4.7-11.1-5-16.7-0.9c-5.5,4-10.9,3.5-14.6-1.1
		c-3.7-4.7-2.6-10.6,2.8-14.8c12-9.4,29.5-8.8,40.9,1.5c4.6,4.1,9,8.4,13.6,12.6c5.5,5,11.8,5,17.4-0.1c4.7-4.3,9.2-8.7,14-12.9
		c1.8-1.6,1.8-2.6,0.6-4.5c-9.6-15.5-13.2-32.5-12.7-50.5c0.2-7.6,4.1-11.5,11.9-11.5C252,375.1,288,375.1,324,375.1z"/>
	<path d="M298.6,258.5c0-29.7,0-59.3,0-89c0-10.9,3.1-14.1,14.1-13.5c22.1,1.2,40.8,10.6,56.8,25.1c32,29.1,49.9,65.9,57.5,108.1
		c3.5,19.3,3,38.5-4.8,56.9c-4,9.5-4.1,9.5-14.4,9.5c-34.7,0-69.3-0.1-104,0.1c-4.2,0-5.2-1.1-5.2-5.2
		C298.6,319.8,298.6,289.2,298.6,258.5z"/>
	<path class="st0" d="M376.1,556.1c-9.2-0.1-17.3-3.1-24-9.4c-5.5-5.1-11-10.2-16.5-15.3c-7-6.5-16.3-6.4-23.4,0
		c-5,4.6-10,9.3-15,14c-14.8,14-35.3,14.3-50.4,0.5c-5.3-4.8-10.5-9.8-15.7-14.7c-6.8-6.3-16.1-6.4-23-0.1
		c-5.2,4.7-10.2,9.6-15.3,14.3c-15.1,14.1-35.8,14.1-50.8,0c-5-4.7-9.9-9.4-14.9-14c-6.6-6.2-15-6.6-22.3-1.2
		c-5.7,4.2-11.5,3.9-15-0.8c-3.5-4.7-2.4-10.5,2.9-14.9c13.3-11,34-10.2,47.2,1.9c5.5,5.1,10.9,10.3,16.5,15.3
		c6.7,6.1,15.4,6.1,22.1,0c5.4-4.9,10.7-10,16.1-15c14.6-13.5,35.7-13.5,50.1,0.1c5.2,4.9,10.4,9.8,15.7,14.7
		c6.8,6.3,15.7,6.4,22.5,0.2c4.9-4.5,9.8-9.1,14.6-13.6c15.9-15.1,36.8-15.2,52.8-0.2c4.9,4.6,9.6,9.2,14.6,13.7
		c7,6.4,15.9,6.3,22.9-0.2c5.2-4.7,10.2-9.5,15.3-14.3c14.6-13.7,36-13.8,50.5,0c5.1,4.8,10.2,9.6,15.3,14.4
		c7.2,6.7,16.1,6.6,23.3-0.1c5.2-4.9,10.4-9.8,15.7-14.7c12.7-11.7,31.5-13.2,45.6-3.4c2.7,1.9,5.5,4,6.3,7.5c1.1,4.4,0,8.4-3.9,11
		c-3.7,2.4-7.6,2.2-11.2-0.3c-10.5-7.1-16.6-6.6-25.7,2c-4.6,4.3-9.2,8.7-13.9,12.9c-14.3,13.1-35.2,13-49.3-0.2
		c-5-4.7-10-9.4-15-14c-7.9-7.4-16.5-7.5-24.5-0.3c-5.2,4.7-10.2,9.6-15.3,14.3C394,552.7,385.8,556.1,376.1,556.1z"/>
</g>
</svg>
