<?xml version="1.0" encoding="utf-8"?>
<!-- Generator: Adobe Illustrator 19.0.0, SVG Export Plug-In . SVG Version: 6.00 Build 0)  -->
<svg version="1.1" id="Calque_1" xmlns="http://www.w3.org/2000/svg" xmlns:xlink="http://www.w3.org/1999/xlink" x="0px" y="0px"
	 viewBox="0 0 612 792" style="enable-background:new 0 0 612 792;" xml:space="preserve">
<style type="text/css">
	.st0{fill:#A7C322;}
	.st1{fill:#F7B684;}
	.st2{fill:#80152D;}
	.st3{fill:#EBEBEB;}
	.st4{fill:#A3897A;}
	.st5{fill:#279082;}
	.st6{fill:#1D1D1B;}
	.st7{fill:#7A6958;}
	.st8{fill:#F7D6A8;}
	.st9{fill:#4ABBA8;}
	.st10{fill:#1A3C53;}
	.st11{fill:#3D3C3B;}
	.st12{fill:#F2F3F3;}
	.st13{fill:#F5B483;}
	.st14{fill:#F0B27E;}
	.st15{fill:#CEDFDB;}
	.st16{fill:#68ADA1;}
	.st17{fill:#134960;}
	.st18{fill:#F7D7A9;}
	.st19{fill:#144960;}
	.st20{fill:#9C9C9A;}
	.st21{fill:#4CBAA3;}
	.st22{fill:#5A0D21;}
	.st23{fill:#A38879;}
	.st24{fill:#E1DDDE;}
	.st25{fill:#E6E3E3;}
	.st26{fill:#591224;}
	.st27{fill:#5C1627;}
	.st28{fill:#C4AAB0;}
	.st29{fill:#A5C123;}
	.st30{fill:#1E4257;}
	.st31{fill:#1E4157;}
	.st32{fill:#476B76;}
	.st33{fill:#1A3D54;}
	.st34{fill:#624E42;}
	.st35{fill:#A7C222;}
	.st36{fill:#F3F3F3;}
	.st37{fill:#BC1723;}
	.st38{fill:#A5BF25;}
	.st39{fill:#35241A;}
	.st40{fill:#1B3D53;}
	.st41{fill:#396670;}
	.st42{fill:#FAE7CC;}
	.st43{fill:#292723;}
	.st44{fill:#A6C222;}
	.st45{fill:#4AB8A6;}
	.st46{fill:#5C172A;}
	.st47{fill:#591326;}
	.st48{fill:#272623;}
</style>
<g>
	<path class="st0" d="M164.5,268c2.2-2.2,4.4-4.3,6.6-6.5c0.3-1.3,1.3-2.1,2.4-2.2c10.8-1.1,21.5-1.5,29.7,7.5
		c0.3,0.5,0.4,1,0.4,1.5c-0.2,2-2.4,2.6-3.4,4c-3.6,5.4-2.3,11.6,3.2,13.8c9.3-1.7,18.7-2,28-2.8c2.5-0.3,4.5,0.8,6.5,2
		c7.7,4.8,15.9,7.2,25.1,6.6c6.5-0.4,13-0.1,19.4-0.1c1.5,0,3,0,4.5-0.3c1.1-0.3,2.5-0.4,2.9-1.7c0.4-1.4-0.8-2.1-1.7-2.7
		c-1.8-1.2-3.6-2.3-5.5-3.4c-11-6.2-22-12.4-32.8-18.9c-2-1.2-4.6-2.3-3.8-5.1c0.8-2.7,3.4-2.8,5.8-2.9c2.2-0.1,4.3-0.4,6.4-0.7
		c2.8-0.4,5.7-0.8,8.1,1.3c1.8,9.8,8.9,11.8,17.5,12.6c8.5,0.8,15.3,5.3,20.4,12.2c2.6,3.6,2.1,7.9,1.4,12.1
		c-0.5,3.1-1.5,6.2-1.5,9.3c-0.2,6.6-3.7,10.5-9.7,12.4c-5.9,1.9-12,2.7-18.2,2.9c-11.2,0.3-22.2,1.1-33.1,3.8
		c-6.3,1.6-7.2,2.5-6.9,8.8c0.2,5.8-1,6.9-6.7,7.4c-13.4,1.3-25.3-2.6-36.3-10c-1.7-1.1-3.3-2.3-5-3.3c-2.4-1.3-4.6-4.6-7.5-2.8
		c-3.5,2.2-5.1,6.1-5.4,10.2c-0.3,3.2,1.6,4.5,4.7,4.1c1.5-0.2,2.7-1.2,4-1.9c4.3-2.3,7.8-1.7,11.4,1.6c1.7,1.6,3.1,3.5,4.4,5.4
		c6.5,9.5,16.1,12.8,26.8,14.4c11.8,1.8,22.3,6.9,31.2,14.7c4.8,4.2,10,6.5,16.3,6.2c10.1-0.4,20,0.2,29.5,3.9
		c1.2,0.5,2.5,0.9,3.7,1.5c9,4.3,10.2,7.9,5.7,16.8c-0.4,0.7-1,1.3-1.8,1.7c-5.8,3.1-9.7,7.3-8.9,14.4c-4.1,9.5-10.6,16.9-19.2,22.5
		c-3.9,0.3-6.3-2.4-9-4.5c-3-2.6-6.3-4.7-9.3-7.2c-4.2-3.2-8.4-6.6-12.6-9.8c-4.5-3.3-5.2-3.2-8.9,1.3c-3.4,4.1-6.5,8.4-9.8,12.6
		c-1.9,2.4-3.8,4.7-7.1,5c-25.3-4.5-29.4-29.4-19.7-46.2c2-3.4,4.6-6.5,6.3-10.2c2.4-5.3,1.7-6.6-3.7-8.1c-2.9-0.8-5.7-1.9-7.9-4
		c-9.3-8.5-20.9-11.5-32.9-12.5c-6.7-0.5-10.7-3-12.5-9.2c-1.8-6.1-5.2-9.8-11.8-11.2c-4.8-1-9.5-3.1-13.4-6.3
		c-1.9-3.1-0.4-6.1,0.6-9.1c6-18.4,16-34.4,29.6-48.1C162.2,270.3,163.1,268.9,164.5,268z"/>
	<path class="st1" d="M381.9,527.8c-8.8,5.4-17.2,11.2-26.6,15.6c-30.5,14.5-62.3,20.1-95.9,15.8c-12.4-1.6-24.4-4.8-36.3-8.4
		c-1.3-2.4,0.3-4.2,1.5-5.9c9.3-12.6,18.7-25.1,28.2-37.5c1.4-1.9,3-3.6,5.5-3.9c8-1.6,16.2-0.4,24.3-1.4
		c20.8-2.5,39.9-9.4,57.7-20.4c4.5-2.8,8.8-5.9,13.3-8.7c1.7-0.6,3.3-0.3,4.9,0.3c7,2.6,13.9,5.5,20.7,8.5c1.8,0.8,3.5,2,4.1,4.1
		c1.7,12.7,0.7,25.5,0.6,38.2C384,525.7,383.4,527.1,381.9,527.8z"/>
	<path class="st2" d="M382,485.3c-9.2-3.7-18.3-7.4-27.5-11.1c-4.4,0.9-8-1.4-11.9-2.8c-3.3-1.2-6.4-2.7-9.6-4.1
		c-3.7-1.6-5.8-4.7-4-8.5c5-10.6,5.8-22.4,10.7-33c3.4-7.6,6.3-15.4,9.6-23c3.8-8.8,6.6-9.8,15.3-5.4c0.6,0.3,1.2,0.6,1.8,0.8
		c8.4,3,16.3,7,24.8,9.7c1.5,0.3,2.5,1.5,3.8,2c7.7,3.4,15.4,6.8,23.3,9.7c1.7,0.5,3.3,1.1,4.7,2c6.9,2.1,13.4,5.4,20,8.1
		c1.7,0.7,3.2,1.6,3.9,3.5c1.2,0.6,2.3,1.3,3.5,1.9c7.4,3.2,7.4,3.2,4.4,10.3c-4.4,10.5-8.7,21.1-13.1,31.6c-2.2,5.3-7.2,9-8,15.1
		c0.1,1.3-0.4,2.6-0.7,3.9c-1.9,9.6-8.6,11.9-16.4,5.7c-0.9-0.7-1.5-1.7-2.2-2.6c-0.7-0.3-1.3-0.6-2-0.9c-4.1,1.1-7.4-0.9-10.7-2.6
		c-4.9-1.7-9.6-3.7-14.3-5.7C385,488.7,383.2,487.3,382,485.3z"/>
	<path class="st3" d="M266.4,258.1c-6,0.4-11.9,0.8-17.9,1.2c-0.6,0-1.2,0.4-2.7,0.9c7.4,4.2,14.1,8.1,20.8,11.9
		c7.8,4.5,15.6,8.9,23.3,13.4c1.8,1,4.3,2,3.9,4.6c-0.4,2.7-3.1,2.9-5.1,3.1c-12.6,1.6-25.2,1.3-37.8,0.1
		c-7.1-0.7-12.5-5.9-18.9-8.6c-10.1-1.9-17.9-8.6-26.7-13.2c-1.2-0.6-1.8-1.9-2-3.2c-9.7-7.6-20.7-8.9-32.4-7
		c-11.8-1.1-23.6-0.2-35.4-0.5c-8.6-0.3-17.3,0.8-25.9-0.8c-5.7-1.1-11.6-2.4-13.4-8.8c-1.8-6.6,3.8-9.7,7.8-13.3
		c3.1-2.8,6.8-4.7,10.8-6.1c1.2-0.7,2.4-0.8,3.6-0.4c1.2,0.5,2.3,1.1,3.6,1.3c5.2,0.5,10.5-0.5,15.7,0.1c4.3-0.1,8.5-0.1,12.6,1.4
		c2,0,3.9,0.2,5.9,0.3c4.3,1.2,8.9-0.9,13.1,1.1c2.3,0.2,4.7,0.1,7,0.4c3.9-0.7,7.5,0.9,11.2,1.2c2.8,0.8,5.7-0.8,8.4,0.2
		c31.7,1,63.4,2.8,95.1,2.1c4.3-0.1,8.6,0.1,12.9-0.6c3.6-0.6,6.8,0.2,7.2,4.7c0.6,5.2-2.3,8-6.7,9.8c-5,3.1-10.4,4.9-16.4,4.1
		c-1.2-0.2-2.3,0.1-3.4,0.5c-4.8,1.2-9.8,0.5-14.7,1.4C268.9,260,267.4,259.5,266.4,258.1z"/>
	<path class="st4" d="M390.7,408.8c-1.4,1.2-2.8,0.4-4.1-0.2c-7-2.9-14-5.9-21-8.8c-2.2-3.4-1.7-7.2-1.5-10.9
		c-0.3-6.9-0.7-13.9,0.2-20.8c0.3-2.1-0.5-3.9-1.2-5.7c1.3-9.2-0.2-18.5,0.1-27.7c0.3-8.5,0.4-17.2,0.1-25.8
		c-0.2-5.1-0.1-10.5,4.9-13.9c4.8-3.6,10-3.9,15.6-2.3c1.1,0.5,1.6,1.6,2.3,2.5c5.7,11.1,10.2,22.7,14.9,34.2c0.8,2,1.7,3.9,2.8,5.8
		c1.3,3.7,3.6,7,3.9,10.2c0.6-3.4,2.6-7.1,4.1-11c4-7.8,6.7-16.1,10.5-23.9c2.4-5.2,3.6-11,7.7-15.4c0.4-0.3,0.8-0.6,1.2-0.9
		c4.7,0.4,9.6-1,14.1,1.6c1.4,3.6-1.3,6.7-1.1,10.2c0.3,6.6-0.3,13.4,0.2,20c1.3,17.5-5.9,32.1-15.6,45.8c-1.3,1.9-2.5,4-4.4,5.5
		c-2.7,2.3-3.7,5-2.7,8.4c-1.4,4.1-4.2,7.2-8.5,7.2c-5.6,0-8.9,2.8-11.7,7c-0.9,1.3-1.8,2.8-3.4,3.6
		C394,403.1,394,408.2,390.7,408.8z"/>
	<path class="st1" d="M164.5,268c-9.1,10.8-17.8,22-23.9,34.9c-3.8,8-7,16.1-9.3,24.7c1.9,2.8,0.9,5.8,0.4,8.7
		c-8,42.2,0.7,80.4,26.9,114.5c7.5,9.8,16.6,18.1,26.6,25.4c2,1.5,4.1,2.9,5.5,5c1,2,0.8,4-0.4,5.6c-7.5,10.2-15,20.4-23.2,30.1
		c-23.6-21-40.4-46.6-48.8-77c-17.7-63.9-3.7-120.4,42-168.7C161.4,269.9,162.4,268.2,164.5,268z"/>
	<path class="st5" d="M167,516.9c-0.4-2.6,0.9-4.4,2.4-6.3c6.2-7.9,12.3-15.8,18.4-23.7c1.1-1.4,2.7-2.6,2.4-4.7
		c0-2,1.3-3.4,2.4-4.8c9.8-12.8,19.7-25.5,29.6-38.2c1.4-1.7,2.8-3.3,4.9-4c5.7-5.4,9.8-12.1,14.7-18.2c4.7-5.8,5.5-6.1,11.2-1.6
		c4.4,3.5,9.2,6.5,13.1,10.6c1.4,2.8-0.5,4.8-2,6.7c-19.3,24.5-37.5,49.9-57.4,73.9c-5.4,6.5-10.3,13.4-15.6,20.1
		c-1.6,2-2.8,4.7-6.1,4.3C178.7,526.8,172.6,522.1,167,516.9z"/>
	<path class="st5" d="M170,237.7c-4.6-0.3-9.2-0.6-13.8-0.9c-0.7-3,1.3-5.7,0.8-8.6c-0.3-1.5,0.5-3.7-1.9-3.9
		c-2.2-0.1-2,2.2-2.6,3.6c-1,2.5,1,5.7-1.5,7.9c-4.4-0.4-8.7-0.7-13.1-1.1c-1.4-3.4,0.9-6,2.1-8.7c1.6-3.6,1.3-4.3-2.6-4.4
		c-3.6-0.1-7.2-0.2-10.2-2.8c-0.5-0.5-0.7-1.1-0.6-1.8c3.2-3.2,7.3-3.6,11.6-3.5c18.3,0.5,36.5,2.3,54.7,4
		c19.2,1.8,38.4,3.7,57.6,5.5c8-0.1,16,0.7,23.7-2.1c0.5-0.6,1.2-1.2,1.5-1.9c5-11.7,16-16.2,26-21.8c1.5-0.9,3.4-2.1,5.1-0.8
		c1.8,1.5,1.1,3.7,0.5,5.5c-0.7,2.4-1.8,4.6-2.7,6.9c-3.3,2.7-7.3,2.7-11.2,3.1c-5.7,0.6-8.7,2.8-10,7.4c0.1,0.3,0.1,0.6,0.2,0.9
		c3.2,0.7,6.2-0.9,9.4-0.9c1.9,0,4-0.6,5.8,0.9c0.9,4,3.2,6.8,7,8.5c2.6,3.2,6,5.8,6.4,10.3c0.2,2.1,1.3,4.7-2.1,5.6
		c0.2-2.8-0.9-3.6-3.8-3.5c-35.2,1.7-70.5,0.3-105.7-1.4c-2-0.1-3.9-0.5-5.9-0.8c-1.5-1.8-0.5-3.7-0.4-5.6c0-1.6,1.3-3.3-0.2-4.9
		c-1.8-2.3-3.3-2.2-4.5,0.5c-1.4,2.5-1.2,5.1-0.7,7.8c-0.1,0.7-0.4,1.3-0.9,1.9c-4.1,0.3-8.2-0.3-12.2-0.9c-1-1.5-0.9-3.2-0.4-4.8
		c0.6-2-0.2-3.6-1.1-5.2c-0.4-0.7-0.6-1.7-1.6-1.6c-1.3,0.1-1.4,1.3-1.6,2.2C170.6,231.5,172,234.8,170,237.7z"/>
	<path class="st5" d="M274.9,432.8c2.6,1.7,5.2,3.4,7.8,5.1c4.6,0.5,7.6,3.3,10,7c0.5,2.8-1.1,4.7-2.6,6.8
		c-14.6,19.6-29.4,39.2-44,58.7c-8.1,10.8-16.4,21.4-24.4,32.3c-3.7,4.9-8.4,7.2-14.6,5.6c-4.6-3.7-9.3-7.4-13.9-11.1
		c-0.3-2.6,1.3-4.4,2.7-6.2c15-19,28.9-38.9,44.2-57.7c9.8-12.1,19-24.8,28.9-36.8C270.4,434.4,271.9,432.2,274.9,432.8z"/>
	<path class="st6" d="M378.3,227c-3.5-1.4-7.3-1.9-10.7-3.9c-7-4.1-10.9-10.6-10.3-18.5c5.7,5.7,12.3,6.4,20.3,4.9
		c-5.2-3.1-8-7.1-8.5-13.1c6.1,3.8,12.5,4.1,18.9,4.1c15.8,0,31.6,0,47.4,0c7.7,0,9.8,2.1,9.8,9.7c0,9-0.1,17.9,0,26.9
		c0,2.5-0.5,4.6-2.6,6.1c-4.8,2.6-8.7,0.7-9.6-4.7c-1.5-9.2-1.5-9.3-10.8-9.2c-10.6,0.2-21.1-1.2-31.7-0.8c-2.5,0.1-5,0.2-7.4,0.5
		c-1.3,0.1-2.4-0.3-3.5-0.8C379.1,227.8,378.6,227.4,378.3,227z"/>
	<path class="st7" d="M421,386c-4.4-3.6-4.3-3.7,0.3-8.8c10-11.2,18.1-23.8,20.1-38.9c1.4-10.5,0.6-21.3,0.5-31.9
		c0-4,0.7-7.6,3.2-10.7c1.4-0.4,2.8-0.9,4.3-1.2c8.3-1.9,14.5,2.6,14.2,11.1c-0.5,13.9-0.1,27.9-1.8,41.7
		c-0.9,7.6-3.8,14.7-7.5,21.5c-1.3,2.3-3.1,4.4-3.6,7.1c-1.9,7.3-7,12.5-11.8,17.9c-3,3.3-5.2,3.1-9.9-0.2
		C425.8,391.8,421.6,390.7,421,386z"/>
	<path class="st8" d="M382,227.2c16.5,0,32.9,0.1,49.4,0c2.8,0,3.9,0.8,3.6,3.7c-0.2,1.8,0,3.7,0,5.5c0.1,6,1.2,7.1,7.5,6.9
		c0.3,4.4,2.5,9.6-4.6,11.1c-1.5,0.3-1,1.9-1.3,3c-2.5,10.9-8.8,18.8-18.9,23.5c-1.9,0.9-2.3,1.9-2.3,3.7c0.1,5.6,4,9.5,9.6,9.6
		c2,0,4,0.1,6,0.2c0,0.3-0.1,0.6-0.3,0.9c-6.9,2.4-14.2,3.5-20.6,7.9c-3,2.1-7.7,0.8-10.4-2.4c-2.5-2.9-5.4-3.6-8.8-3.4
		c-2.2,0.1-4.3-0.4-6.3-1.2c-0.2-0.6-0.4-1.2-0.6-1.8c0.7-1.6,2.2-1.6,3.6-1.9c2.8-1,6.3,0.5,8.7-1.4c2.7-2.1,0.8-5.7,1.9-8.4
		c0.3-0.6,0.5-1.2,0.9-1.8c6.4-1.8,7.1-6.4,6.7-12.2c-0.3-5,0.1-9.8-4.8-13.3c-2.5-1.8-2.3-4.7-0.1-7c3-3,3.8-7,4.4-10.9
		c0.7-5.2-0.9-7.1-6-7.2c-4.2-0.1-8.3,0.1-12.5-0.1C384.9,230,382.5,230.1,382,227.2z"/>
	<path class="st1" d="M399.9,281.1c0,0.3,0,0.7,0,1c-0.3,13.6,2.5,11.9-12,11.8c-2.2-1.3-3.9-3-5.3-5.1
		c-9.9-14.9-22.3-27.2-36.6-37.8c-11.1-6.7-22.5-13-34.8-17.2c-2.3-0.8-4.3-2.5-6.3-3.9c-0.4-0.2-0.8-0.6-1.2-0.7
		c-6.9-1.8-6.9-1.8-3.9-8.3l0.1,0.1c3.9,2.2,8.3,2,12.5,2.8c22.1,4.1,42.4,12.5,61.2,24.6c1.2,0.8,2.4,2.4,3.9,1.7
		c1.6-0.7,0.8-2.7,0.8-4.1c0.1-6.3,0.1-12.7,0.1-19c0.3-0.1,0.6-0.1,0.9,0.1c1.8,1.6,1.9,3.7,2,5.9c0,6.1,0.3,12.3,0,18.4
		c-0.7,11.7,5.4,19.3,14.4,25.3C397.2,277.9,399.4,278.6,399.9,281.1z"/>
	<path class="st6" d="M207,548.2c2.4-1.1,4.8-2.4,7.6-2.1c1.8,0.2,2.7-1,3.6-2.2c24.2-32.2,48.4-64.4,72.6-96.6
		c0.5-0.7,0.8-1.5,1.1-2.2c0.1-1-0.1-2.1,0.5-2.9c5-6.3,8.2-14.1,15.5-18.5c4-0.5,6.7,0.8,7.2,5.2c0,2.5-1.3,4.4-2.8,6.2
		c-15.8,20.8-31.4,41.7-47,62.6c-2.1,2.8-4,5.7-7.5,7.1c-12,15-23.5,30.4-34.7,46c-0.9,1.3,0,2.5,0,3.8c0.4,5.2-1.8,8.9-6.3,10.6
		c-4.5,1.7-8.3,0.4-11.1-3.1c-3-3.8-2.9-7.9-0.3-12C206,549.5,206.5,548.9,207,548.2z"/>
	<path class="st9" d="M274.9,432.8c-7.1,7.2-12.7,15.7-19,23.6c-10.3,13-21,25.7-30.7,39.1c-9.6,13.3-20.1,25.9-29.7,39.2
		c-0.7,0.9-1.6,1.6-2.5,2.4c-3-1.6-5.6-3.6-7.9-6.1c18.3-23.1,36.6-46.2,54.7-69.5c9-11.6,17.6-23.6,26.4-35.5
		C269.5,427.8,272.4,430.1,274.9,432.8z"/>
	<path class="st4" d="M382,485.3c6.7,2.8,13.4,5.6,20.1,8.4c2,5.8,1.4,11.4-0.8,17c-0.1,12-0.3,24.1-0.4,36.1
		c-4.3,3.4-14.6,3.4-18.7,0c-0.1-6.3-0.2-12.7-0.3-19C381.9,513.6,381.9,499.5,382,485.3z"/>
	<path class="st4" d="M429.8,392.1c3.8,3.5,6.4,2.8,9.3-1.5c3.4-5.2,7.7-9.8,11.6-14.7c0.1,16.3,0.1,32.6,0.2,48.9
		c0,3.5-2.1,5.8-4.2,8.2c-8.6-2.7-16.7-6.6-25-10.1c-0.7-1.2-1.2-2.5-0.7-3.8c1.3-2.9,0.2-5.5-1-8.1c1.7-5.4,4.5-10.4,6.1-15.8
		C426.8,393.8,428.3,392.8,429.8,392.1z"/>
	<path class="st4" d="M414.2,498.9c2.9,1.1,6,2,8.8,3.3c3.6,1.6,6,1,7.3-3c0.8-2.5,2.1-4.9,3.2-7.3c0,18.3,0.1,36.6,0.1,55
		c-4.1,3.3-14.3,3.3-18.9,0c-1.3-2.5-0.6-5.2-0.6-7.8C414.1,525.7,414.2,512.3,414.2,498.9z"/>
	<path class="st10" d="M126.7,217.1c3.9,2,8.1,2.8,12.3,2.9c3.9,0.1,4.4,1.8,3.4,5c-1,3.5-2.6,6.7-4.6,9.8c-5.7,0.8-11.4,1.3-17-0.6
		c1.3-3.6,4.7-4.6,7.8-5.7c1.7-0.6,3.6-0.5,4.3-1c-1.5,1.3-4.8,0.5-7.4,2.2c-2.3,1.5-4.2,4.5-7.7,3.6c-1-0.4-1.9-0.8-2.9-1.2
		C117.3,225.7,120.9,220.5,126.7,217.1z"/>
	<path class="st11" d="M382.1,546.9c6.2,0,12.5,0,18.7,0c-0.3,12.1,2,10.4-10.5,11c-8.5,0.4-16.9,0.1-25.5,0.1
		C369.9,553.7,375.9,550.1,382.1,546.9z"/>
	<path class="st11" d="M414.8,546.9c6.3,0,12.6,0,18.9,0c6.1,3.4,12,7,17.2,12.2c-11.2-0.6-22.4-1.1-33.5-1.6
		c-2.1-0.1-2.3-1.3-2.4-3C414.9,551.9,414.8,549.4,414.8,546.9z"/>
	<path class="st12" d="M283,220c-1-0.1-1.9-0.1-3-0.2c3.2-6.7,8.1-10.2,15.5-9.9c3.1,0.1,6.2-0.5,9.3-0.8c-1.2,2.7-2.3,5.4-3.5,8.1
		C295.6,220.8,289.3,220.7,283,220z"/>
	<path class="st13" d="M401.2,510.7c0-5.7-1.1-11.4,0.8-17c3.4,1.4,6.8,2.9,10.2,4.3C409.3,502.9,404.8,506.4,401.2,510.7z"/>
	<path class="st14" d="M274.3,221c-0.8,1.7-1.5,3.3-3.8,3.3c-6.7-0.2-13.4,0.7-20-1.2C258.5,222.5,266.3,220.8,274.3,221z"/>
	<path class="st15" d="M299.8,220.9C299.8,220.9,299.7,220.8,299.8,220.9c-7,0.6-14,1.3-21.1,1.9c0.7-2.6,2.8-1.6,4.2-2.1
		c5.8-0.9,11.5-3.6,17.5-1.4C300.2,219.9,300,220.4,299.8,220.9z"/>
	<path class="st16" d="M300.4,219.5c-6-1-11.6,1.4-17.5,1.4c0-0.3,0.1-0.5,0.1-0.8c6-1.8,12.3-1.6,18.3-2.9
		C301,217.9,300.7,218.7,300.4,219.5z"/>
	<path class="st17" d="M304.8,229.9c15.4,3.8,29.3,10.6,42.1,19.9c1.5,3.5,1.4,7.2,0.4,10.8c-0.9,3.1,0.5,4.4,3.1,5
		c2.6,0.6,5.3,0.8,7.8,1.7c5.4,1.8,6.4,6.4,2.3,10.3c-1,0.9-2.1,1.7-3.2,2.3c-2.5,1.5-3.2,3.4-2.4,6.3c1.5,5.8,0.1,7.6-5.9,8.9
		c-3.4,0.7-6.9,1.1-10.4,1c-3.3,0-5.2,1.5-6.1,4.7c-1.2,4.4-0.2,8.4,2.7,10.4c2.8,1.9,5.1,1.1,7.8-0.6c2.9-1.9,5.8-5.7,10-2.3
		c1.8,4.4,1.1,9,0.6,13.5c-1,2.4-3.4,3.5-5.3,5c-6.9,5.5-13.2,11.6-18.5,18.6c-6.7,8.7-6.1,13.5,2.2,20.8c1,0.9,2.1,1.6,2.9,2.7
		c1.7,2.8,0.2,5.1-1.4,7.3c-3.5,4.8-7,9.6-11.3,13.8c-2.1,2-3.5,4.3-4.2,7.1c-1.6,2.3-3,5-6.4,2.3c5.2-7.9,3.3-10.5-5-14.2
		c-8.9-4-18.4-6-28.2-5.3c-8.9,0.7-16.2-1.5-23.2-7.8c-8.5-7.6-19-11.9-30.7-13.4c-10.2-1.3-19.3-5.2-25.5-14.1
		c-1-1.5-2.2-2.9-3.4-4.3c-4.6-5.5-5.9-5.7-11.9-1.8c-2.7,1.8-5.6,2.4-8.4,0.6c-3.1-2-2.8-5-2.2-8.1c0.2-1.1,0.8-2.2,1.2-3.3
		c4.5-9.6,6.3-10.2,14.7-4.2c12.4,8.8,25.4,15.1,41.3,13.5c3.5-0.4,5-0.6,3.9-4.9c-1.9-7.5-0.3-9.4,7.2-11.3c10.9-2.8,22-3.6,33.2-4
		c6.7-0.2,13.3-0.8,19.7-2.9c5.1-1.7,8-4.8,8-10.6c0-3.4,0.8-6.9,1.6-10.3c1.4-6.1-0.2-10.9-5.5-14.2c-5.4-3.3-10.2-7.5-17.6-6.7
		c-4.8,0.5-9.5-2.6-13.4-6c-2.7-2.4-2.7-5.2-0.7-8c6.1-0.6,12.3-1.1,18.4-1.7c3.2,0.9,6.2,2.2,9.2,3.8c2.4,1.2,4.8,2.3,7.5,2.5
		c3.9,0.3,5.3-1.8,3.4-5.1c-0.9-1.6-2.2-3-1.4-5c2.8-2,5.8-4,6.6-7.8c1.8-4.7-0.6-8.4-3.1-12.1C306.5,231.7,304.7,231.5,304.8,229.9
		z"/>
	<path class="st17" d="M227.2,435.2c-6.3,10.1-14.3,19-21.4,28.5c-3.9,5.2-7.9,10.2-11.8,15.4c-1,1.3-2,2.7-3.7,3.1
		c-31.5-20.6-51.4-49.5-60.2-86c-5.5-22.9-4.6-45.8,1.2-68.6c7.1,2.3,13.6,6.2,21.1,7.7c1.6,0.3,2.3,1.8,2.8,3.3
		c0.9,2.2,1.8,4.3,2.6,6.5c3,7.6,3.1,6.7,11.3,7.9c11.6,1.7,23.5,3.8,32.6,12.4c2.8,2.6,5.9,4.4,9.7,4.6c5.1,0.3,5.5,3.3,4.9,7.2
		c-0.7,4.3-3.4,7.6-5.8,10.9c-5.1,7.1-6.8,14.9-6,23.6c0.8,9.1,5.3,15.2,13.1,19.2C220.7,432.4,224,433.8,227.2,435.2z"/>
	<path class="st18" d="M311.6,399.6c3.1,0.9,4.1-1.6,5.6-3.4c4.9-0.3,9.5,2.9,11.4,8c-1.8,3.1-2.1,6.5-1.7,10c0.3,2.5-0.2,5-1.5,7.1
		c-2.8,3.1-4.6,7.4-9.2,8.5c-0.8,0.1-1.5,0-2.1-0.6c-0.2-4.1-3.4-3.8-6.1-4.4c-5.2-1-6.9-3.2-6.8-8.9
		C300,407.5,302.4,403.8,311.6,399.6z"/>
	<path class="st19" d="M301.1,416c1.6,3.5,4,6.4,6.8,8.9c-5.9,6.3-9.9,14.1-16,20.2c-3.4-2-6.6-4.2-9.2-7.2
		C289.2,430.9,296.5,424.6,301.1,416z"/>
	<path class="st20" d="M203.4,268.4c9.6,5.5,19.1,10.9,28.7,16.4c-9.9,1.5-19.9,2.7-29.9,3c-0.7-6.2-1.4-12.4,0.6-18.5
		C203,269,203.2,268.7,203.4,268.4z"/>
	<path class="st21" d="M202.8,269.3c1.4,6.2,2.3,12.4-0.6,18.5c-4.8-1.2-6.5-4-5.9-10.5C196.7,273.3,197.1,269,202.8,269.3z"/>
	<path class="st17" d="M314,429.2c0.6-0.1,1.3-0.3,1.9-0.4c6.6-0.3,6.9-0.6,7.7-7.9c1.5-2.5,2.2-5.4,1.2-8.1c-1.5-4,0.1-6.6,3-9
		c6.9,1,10.1-4,13.6-8.4c2.4-2.9,4.6-6,6.9-9c1.5-2,3.1-3.9,6-3.7c3.8,1.9,7.9,3.5,11.3,6.3c0,3.6,0,7.1,0,10.7
		c-11-4.3-11-4.3-15.6,6.7c-3.2,7.7-6.4,15.4-9.6,23c-4.1,9.9-4.5,20.9-9.9,30.4c-1.5,2.7,0.4,4.2,2.9,5.2c7.1,2.9,14.1,6,21.1,9
		c-18.2,15.3-39.3,24.4-62.4,28.8c-11.3,2.2-22.7,2.6-34.2,1.9c9.6-13,19.1-25.9,28.7-38.9C295.7,453.7,304.9,441.5,314,429.2z"/>
	<path class="st22" d="M416.6,476c-14.3-6-28.6-11.9-42.8-17.8c-4.6-1.9-9.3-3.7-13.8-5.7c-1.6-0.7-3.6-1.2-4-3.4l0,0
		c20.5,8.4,40.9,16.8,61.4,25.1C417.6,474.9,417.5,475.6,416.6,476z"/>
	<path class="st23" d="M417.9,420.9c-8.2-2.4-16.1-5.7-23.7-9.8c-0.4-5.5,0.9-6.5,6-5.2c4.7,5.8,11.2,7.1,18.2,7.2
		C421.7,416.5,421.6,417.9,417.9,420.9z"/>
	<path class="st24" d="M356,449c-1.5,2.6-2.7,5.4-6.7,3.2c-2.7-1.5-3.3-3.1-1.3-5.5c0.4,0.7,1,1.3,1.7,1.7c-0.7-0.4-1.3-1-1.9-1.6
		c0.5-1.6,1-3.1,1.5-4.7c1-3.1,2.7-4.2,6-2.8c3.1,1.3,3.2,3.3,2,6C356.8,446.5,356.4,447.8,356,449C356,449,356,449,356,449z"/>
	<path class="st25" d="M417.9,473.9c0.6-2.2,1-4.6,3.1-6c1.8-1.3,3.5,0.1,5.1,0.9c1.5,0.8,2,2.1,1.4,3.8c-0.9,2.1-1.8,4.3-2.6,6.4
		c-0.4,0.3-0.8,0.4-1.3,0.3c-1.7-1.2-3.8-1.8-5.2-3.4C417.9,475.3,417.5,474.7,417.9,473.9z"/>
	<path class="st26" d="M417.9,420.9c0.1-2.3,2.9-4.7,0-7c-0.3-2.3,0.8-3.3,3.1-3.1c6.2,3.6,1.9,8,1,12.1
		C420.5,422.3,419.2,421.6,417.9,420.9z"/>
	<path class="st27" d="M400,407.1c-4.6-2.4-4.2,2.3-5.8,4c-1.6-0.2-2.7-1-3.5-2.4c0.8-1.8,1.3-3.8,2.4-5.4c0.8-1.1,2.3-3.4,4-0.4
		c0.8,0.5,1.5,0.4,2.3,0c1.3-0.6,2.8-0.8,3.2,0.9C402.9,405.7,402.4,407.2,400,407.1z"/>
	<path class="st28" d="M424.1,479c0.2-0.1,0.5-0.1,0.7-0.1c-0.6,2.4-1.9,3.7-4.6,2.7c-2.6-1-4.9-2.1-3.5-5.6
		c0.2-0.6,0.5-1.2,0.7-1.8c0.2-0.1,0.4-0.1,0.6-0.2c0.4,0.4,0.8,0.8,1.2,1.2C419.6,477.9,422.2,477.9,424.1,479z"/>
	<path class="st29" d="M303.6,252.6c0.7,0.7,1.3,1.5,2,2.2c2,2.3,4.2,4.7,2.2,7.9c-1.9,3-5.2,2.8-8.1,2.1
		c-5.6-1.4-10.8-3.9-14.9-8.3C291.3,255.8,297.7,255.3,303.6,252.6z"/>
	<path class="st30" d="M151,235.8c-0.9-3.6-1.2-7.1-0.1-10.8c0.7-2.5,2.3-3.8,4.7-3.6c2.5,0.2,4,2.1,3.7,4.5
		c-0.5,3.7,1.3,8.2-3.1,10.9C154.3,237.4,152.6,236.7,151,235.8z"/>
	<path class="st31" d="M170,237.7c-2-3.4-1-7.2-0.9-10.8c0.1-2.5,1.9-3.9,4.4-3.8c2.3,0.1,2.1,1.9,2.9,3.5c2.3,4.3,1.1,7.6-0.5,11.3
		C173.9,238.6,171.9,238.8,170,237.7z"/>
	<path class="st32" d="M117.9,233.1c6.6-4.4,14.1-7.2,21.5-10.1c-3.6,2.5-6.3,6.4-11.4,6.8c-2.9,0.2-4.9,2.6-7.1,4.3
		C119.8,234,118.6,234.1,117.9,233.1z"/>
	<path class="st33" d="M196,232.9c0.1,2.1,0,4.2-1.1,6.2c-2.3,1-4.6,1.2-6.7-0.3c-0.1-0.6-0.1-1.2-0.2-1.8
		C190,234.4,191.9,231.5,196,232.9z"/>
	<path class="st34" d="M353.9,383.8c-5.2,3.4-7.3,9.5-11.6,13.8c-1.4,1.4-2.7,2.9-3.8,4.5c-3,4.6-6.4,5.5-10.7,1.7
		c-3.5-2.5-7.1-5.1-10.6-7.6c-2-2.5,0.1-3.9,1.6-5.4c5.3-5.2,9.8-11.2,14.2-17.2c0.8-1.1,1.8-2,1.2-3.5c0.2-2.6,1.6-4.6,2.9-6.8
		c6.8-11.1,12.8-22.4,12.9-35.9c0-1.8,0.9-3.1,2-4.4c0-5.1,0-10.1-0.1-15.2c-4-6.1-1.2-13.9,5.7-15.7c5.8-1.4,9.9-0.1,11.6,3.9
		c-3.2,3-3.9,7-3.8,11c0.5,14.9-0.7,29.8,0.3,44.7c0.2,3.5-0.3,7-0.5,10.4C364.5,371.1,360,377.9,353.9,383.8z"/>
	<path class="st35" d="M369.2,296.1c-4.1-3.2-8.8-3.1-13.1-1c-5.5,2.6-4.3,8-4.2,12.7c-3.1,0.9-5.6,2.9-7.9,5.1
		c-2.5,2.3-5.3,2.6-8.3,1.3c-3.1-1.3-5.4-3.4-5.5-7c-0.1-2.3,0-4.7,0.3-7c0.6-4.4,3-6.7,7.7-6.6c4.1,0.1,8.3-0.3,12.4-0.8
		c3.4-0.4,4.6-1.9,2.8-5.4c-2.8-5.5-2.3-6.8,3.2-9.8c1-0.6,2.1-1.1,3-1.7c1.4-1,2.5-2.4,2.2-4.2c-0.3-1.9-2.1-2.4-3.7-2.7
		c-3.4-0.6-6.9-1.1-10.3-1.8c-3.2-0.7-4.7-2.8-2.9-5.9c2.1-3.7,0.6-7.9,2.1-11.6c14.3,9,25.5,21.2,35.3,34.8c2.1,3,4.5,5.8,5.7,9.3
		c-1.3,0.1-2.6,0.2-3.8,0.3C379,294,374,294,369.2,296.1z"/>
	<path class="st36" d="M384.7,296c4.1-2.1,8.5-0.8,12.7-1c1.3-0.1,1.9,0.9,2.5,2c3.6,6.4,11.6,6.6,15,0.2c1.1-2.1,2.5-2.3,4.4-2.3
		c3.8,0,7.7,0.1,11.5,0.1c-5.4,12.8-10.7,25.5-16.1,38.2c-0.3,0.7-1,1.2-1.5,1.9c-2.8-1.5-2.8-4.4-3.1-7c-0.6-6.7-2.1-13.4-2.3-20.2
		c-0.7,7.4-1.6,14.7-2.7,22.1c-0.4,2.3-0.5,4.7-3.2,5.7C395.6,322.7,390.2,309.4,384.7,296z"/>
	<path class="st8" d="M400,407.1c0.5-1,1.1-2,1.6-3c-1.5-0.7-4.2,3.9-4.6-1.1c1.7-2.6,2.9-5.5,5-7.9c2.6-2.9,5.5-5.2,9.4-4.2
		c5,1.3,5.8-4.3,9.5-5c3,2,5.9,4.1,8.9,6.1c-3.5,6-3,13.9-8.9,18.8c-1,1-2.1,2.1-3.1,3.1C410.7,416.5,401.7,413.1,400,407.1z"/>
	<path class="st37" d="M401.9,335.8c1-7.3,2.1-14.7,3-22c0.2-1.9,1-3.8-0.6-5.6c-1.1-1.2,0.1-2.6,1-3.5c1.2-1.2,2.8-1,4.2-0.4
		c1.3,0.5,2.4,2.2,1.8,3.2c-2.7,4.9,0.1,9.7,0.2,14.5c0.2,4.4,1,8.9,1.6,13.3c-1,4.8-3.2,9-5.7,14.1
		C405.3,344.3,403.6,340,401.9,335.8z"/>
	<path class="st38" d="M353.9,383.8c0.7-4.6,4.2-7.6,6.1-11.6c1.6-3.4,3.4-6.7,5.2-10c1.2,8.9,0.6,17.9,0.3,26.9
		C360.5,389.9,357.2,386.9,353.9,383.8z"/>
	<path class="st39" d="M383.8,347.8c-3,0-6,0.1-9,0c-1.6,0-3-0.7-3-2.6c0-1.9,1.4-2.6,3-2.7c6-0.1,12-0.1,18,0c1.6,0,3.1,0.7,3,2.6
		c0,1.9-1.4,2.6-3,2.7C389.8,347.9,386.8,347.8,383.8,347.8z"/>
	<path class="st40" d="M187.8,228c0.4-2.4,2.1-3.7,4.4-3.6c2.1,0.1,3.6,1.3,3.9,3.6c0,4-3.5,4.8-6.1,6.2c-1.3,0.7-2.6,0-2.5-1.8
		C187.5,230.9,187.2,229.5,187.8,228z"/>
	<path class="st41" d="M187.8,228c0.5,1.6-0.9,4,1,4.9c1.7,0.8,3.1-1.4,4.6-2.2c1.1-0.6,1.9-1.8,2.8-2.7c1.3,1.7,0.6,3.3-0.1,4.9
		c-2.7,1.4-5.4,2.7-8.1,4.1C186.4,234.1,186.6,231,187.8,228z"/>
	<path class="st42" d="M399.9,281.1c-14.5-5.2-21.3-15.3-20.9-30.6c0.2-7.8,0.1-15.6,0.1-23.4c1,0,1.9,0.1,2.9,0.1
		c6.7,2,13.5,0.6,20.2,0.8c3.3,0.1,4.8,0.5,5.2,4.4c0.7,6.8-0.1,12.9-5.2,17.7c-1.9,1.8-1.3,3,0.3,3.8c5.5,2.7,5.9,7.4,5.5,12.6
		c-0.2,2.1,0,4.3,0,6.5C408,280.9,408,280.9,399.9,281.1z"/>
	<path class="st43" d="M424,245c-1.8-0.3-2.9-1.5-2.7-3.3c0.2-1.7,1.4-2.9,3.4-2.7c1.7,0.2,2.6,1.4,2.5,3C427.2,244,426,245,424,245
		z"/>
	<path class="st44" d="M351.9,323c1.6,17.6-6.8,31.8-15.7,45.8c-0.4,0.6-1.3,0.8-2,1.3c-2.3-1.7-4.7-3.1-6.8-5
		c-4.4-4-5.8-9.2-3-14.4C330.9,338.9,339.7,329.2,351.9,323z"/>
	<path class="st45" d="M323.6,420.9c2.3,2.7,3,5.3,0,8.2c-2.8,2.7-5.2,2-7.7-0.3C318.5,426.2,321.1,423.6,323.6,420.9z"/>
	<path class="st46" d="M347.8,446.8c0.6-0.1,1.2-0.2,1.9-0.2c2.1-0.1,4,0.3,4.5,2.8c0.2,1.1-0.6,2.1-1.6,2.1c-2.2,0-4.4-0.3-4.6-3.3
		c0-0.5,0-1-0.1-1.5C347.9,446.7,347.8,446.8,347.8,446.8z"/>
	<path class="st47" d="M424.1,479c-1.8,1.3-3.7,1.5-5.4,0c-1.5-1.3-0.6-2.7,0.5-3.9C421.6,475.4,423.9,475.8,424.1,479z"/>
	<path class="st48" d="M392.4,242c-0.2,1.8-1,3.1-3.1,3c-2-0.1-3-1.4-2.9-3.2c0.1-1.5,1-2.8,2.8-2.8
		C391.2,238.9,392.1,240.1,392.4,242z"/>
</g>
</svg>
