<?xml version="1.0" encoding="utf-8"?>
<!-- Generator: Adobe Illustrator 19.0.0, SVG Export Plug-In . SVG Version: 6.00 Build 0)  -->
<svg version="1.1" id="Calque_1" xmlns="http://www.w3.org/2000/svg" xmlns:xlink="http://www.w3.org/1999/xlink" x="0px" y="0px"
	 viewBox="0 0 612 792" style="enable-background:new 0 0 612 792;" xml:space="preserve">
<style type="text/css">
	.st0{fill:#FD756B;}
	.st1{fill:#E4F1E9;}
	.st2{fill:#EBD3B2;}
	.st3{fill:#C2D3D2;}
	.st4{fill:#858075;}
	.st5{fill:#FDC558;}
	.st6{fill:#D49680;}
	.st7{fill:#EF675A;}
	.st8{fill:#FDC65E;}
	.st9{fill:#FDC559;}
	.st10{fill:#D1EFF1;}
	.st11{fill:#D0EFF1;}
	.st12{fill:#EE675A;}
	.st13{fill:#545772;}
</style>
<g>
	<path class="st0" d="M381.2,560c-17.8,0-35.5,0-53.3-0.1c-17.4-0.1-34.9-0.3-52.3-0.3c-15.6,0-31.2,0.2-46.8,0.3
		c-5.8,0-11.6,0-17.4,0.1c-1.8-1.5-1.3-3.6-1.4-5.6c-0.7-14.9-12.5-27.5-26.9-28.7c-15.7-1.3-28.9,8.4-32.4,23.5
		c-0.8,3.5-0.4,7.3-2.3,10.6c-10.3,0-20.6,0.2-30.9-0.2c-6.9-0.2-9-2.9-9-9.8c0-2.2,0-4.3,0.1-6.5c6.8-1.8,13.9-0.1,20.7-1.4
		c1.9-0.4,4.5,0.6,5.2-1.8c0.9-3.2,1.1-6.6-0.1-9.8c-0.6-1.7-2.6-0.8-4.1-0.7c-7.3,0.2-14.5-0.5-21.7-1.3c0-0.3,0-0.7-0.1-1
		c-4.2-23.8,7.8-41.2,22.9-57.3c3.1-3.3,6.2-6.5,9.5-9.5c8-7.4,17.2-11,28.4-11.3c33.6-0.9,67.2-1.8,100.9-1.9
		c25.2-0.1,48.6,5.6,71,16.9c18.9,9.6,37.6,19.2,55.9,29.9c5.8,3.4,12.6,2.9,18.9,4.1c13.7,2.7,27.8,2.8,41.2,7
		c11.4,3.6,22.1,8.5,30.3,17.5c1.2,1.3,2.6,2.6,3.2,4.4c-2.4,3.2-5.9,2.7-9.1,2.3c-8.7-1-17.5,1-26.3-0.4c-3.4-0.5-5.5,1.6-5.4,5.4
		c0.1,3.5-0.6,7.2,4.6,7.7c2.8,0.2,5.6,0.7,8.4,0.2c4.3-0.7,8.6-0.8,12.9,0c2.8,0.5,5.6,0.1,8.4-0.2c4.1-0.3,8.3-1.4,12.1,1.1
		c1.2,14.9-1,17-15.6,16.7c-12.1-0.2-24.3-0.2-36.4-0.2c-2-3.2-1.5-7.1-2.3-10.6c-3.1-13.6-14.3-23.1-28-23.6
		c-14-0.5-26.6,8.6-30.4,21.9c-0.7,2.3-0.8,4.6-0.9,6.9C382.6,556.4,383,558.5,381.2,560z"/>
	<path class="st1" d="M361.4,199.3c6.7-1.9,13.6-2,20.4-2c2.5,0,4.9-0.1,7.1,1.7c1,0.9,2.8,2,3.6-0.3c1-2.8,3.7-5.4,3.7-8
		c0.1-4.7,3.5-6.3,6.1-9c9.8-10.2,22.5-14.1,35.8-14.2c25.1-0.3,46.1,17.4,49.3,42.8c0.1,1.1,1,2.3,0.8,3.4
		c-1.6,7.3,3.1,8.9,8.7,10.7c13.6,4.3,21.4,20.6,20,34.1c-1.2,11.8-8.6,18.4-16.4,24.7c-3.8,3.1-10,2.9-15.2,3
		c-44.3,0.2-88.6,0.3-132.9,0.1c-20.2-0.1-34.9-18.1-31.4-38c0.4-2.6-1.3-5.2,0.4-7.7c4-5.9,8-11.9,14.6-15.3
		c2.4-1.2,4.7-2.5,7.3-3.2c1.8-0.5,3.6-1.3,4.3-3.1C350.1,210.9,355.4,204.8,361.4,199.3z"/>
	<path class="st1" d="M145.4,312.3c-29.2,0-58.3-0.1-87.5,0.1c-4.8,0-5.9-1.5-5.7-6c0.4-11.7,7.9-23.8,19-26.7c7.2-1.9,8.8-6,9-12.2
		c1.1-21.6,22-40.1,40.4-41.5c9.2-0.7,17.7,0.3,25.9,4c9.3,4.1,15.9,11.1,20.9,19.8c0.8,1.4,2,2.8,2.5,4.3c0.7,2.2,1.8,2.4,3.7,1.5
		c16.6-7.4,34.3,4.4,37.6,19.2c0.6,2.6,2.8,3,4.9,3.6c13.4,3.7,21.8,15.1,22.1,29c0.1,3.9-1.1,5.1-5.1,5.1
		C204,312.2,174.7,312.3,145.4,312.3C145.4,312.3,145.4,312.3,145.4,312.3z"/>
	<path class="st2" d="M217.3,398.3c0-5.2-0.1-10.3,0-15.5c0.1-5.4,3.4-9.4,8.7-9.5c23-0.1,45.9-0.2,68.9,0c6,0,8.2,3.3,8.6,9.3
		c0.7,12.2-1,24.4,0.7,36.6c0.3,1.9-0.4,3.9-0.7,5.9c-1.8,1.9-4.3,1.7-6.6,1.7c-20.5,0.1-41,0-61.5,0c-2,0-4,0-5.8-1
		c-2-1.7-1.8-4.2-1.8-6.5c-0.1-4.8-0.1-9.6,0-14.4c0.1-3.4-1.2-5.3-4.9-5.2C221,399.8,218.9,399.9,217.3,398.3z"/>
	<path class="st3" d="M229.2,425.2c24.8,0,49.5,0,74.3,0c4.2,0,8.3,0,12.5,0.1c4.9,0,9.5,4.1,9.3,8.3c-0.2,4.9-3.3,7.7-9.1,7.7
		c-53.9,0-107.8,0-161.7,0c-6.1,0-9.2-2.7-9.2-7.9c0-5.2,3.1-8,9.1-8.1c4-0.1,8,0,12,0c1.9-1.7,4.3-1.6,6.6-1.6
		c16.6,0,33.1,0,49.7,0C224.9,423.7,227.3,423.4,229.2,425.2z"/>
	<path class="st4" d="M381.2,560c-0.7-10.6,1.8-20,10.1-27.4c9.1-8.1,19.5-10.4,30.9-6.8c11.4,3.6,18.2,11.6,21,23.1
		c0.9,3.5,1.3,7.2,1,10.9c-2.1,7.8-5.1,15-11.6,20.3C413.2,595.7,386,585.1,381.2,560z"/>
	<path class="st4" d="M148.4,559.8c-0.2-18.4,8.6-30.8,24.6-34.6c19.7-4.7,38.4,10.1,38.4,30.3c0,1.5,0,3,0,4.5
		c-3.9,16.6-14.8,26.7-29.8,27.3c-15.4,0.6-28.5-9.2-32.2-24.2C149.1,561.9,148.8,560.9,148.4,559.8z"/>
	<path class="st5" d="M361.4,199.3c1.1,2.1-0.4,3-1.7,4c-5.4,3.8-8.6,9.1-10.6,15.2c-0.8,2.5-2.3,3.9-4.7,4.5
		c-9,2.3-15.7,7.6-20.2,15.7c-0.7,1.2-1.2,2.4-2.9,1.8c-19.4-10.3-19.6-32.5-10.5-44.4c12.4-16.2,37-15.9,48.9,0.7
		C360.2,197.7,360.8,198.5,361.4,199.3z"/>
	<path class="st6" d="M229.2,425.2c-21,0-41.9,0-62.9,0.1c0-7.5,0.2-15-0.1-22.5c-0.1-3.7,1.2-4.4,4.6-4.4c15.5,0.1,31,0,46.5-0.1
		c11.9,0.3,11.9,0.3,12,12.4C229.3,415.6,229.2,420.4,229.2,425.2z"/>
	<path class="st7" d="M496.3,543.3c-9.4-0.2-18.7,0.9-28.1,0.2c-5.5-0.4-11.1,1.1-16.7-0.1c-2.3-0.5-3.3-1.1-3.1-3.4
		c0.1-1.3,0-2.7,0-4c0-7.6,2.3-9.9,10-8.6c5.5,0.9,10.8,1.2,16.2-0.1c3.5-0.8,6.8,1.3,10.3,0.9c2-0.2,3.9-0.7,5.8-1.1
		C494.5,531.8,496.3,537.2,496.3,543.3z"/>
	<path class="st7" d="M108.5,528.3c6.5-2.3,13,0.1,19.6,0.1c2.6,0,5.6-2.5,7.5-0.3c1.9,2.3,0.6,5.8,0.7,8.7c0.1,6.5,0,6.4-6.4,6.5
		c-6.4,0.1-12.7,0.6-19.1,0.8c-0.8,0-1.5-0.5-2.3-0.8C108.5,538.3,108.5,533.3,108.5,528.3z"/>
	<path class="st8" d="M280.6,206.4c8.7,0.3,7.2-1.9,7.8,9.5c0.4,7.5-4.7,5.1-8.2,5.2c-6.7,0.2-7-0.4-6.7-11.1
		C273.7,203.9,278.4,207.4,280.6,206.4z"/>
	<path class="st9" d="M334.9,167.4c-8.8-0.3-6.8,1.4-7.5-9.5c-0.3-5.5,3-4.7,6.3-4.7c8.6,0.1,8.6,0.1,8.6,8.2
		C342.3,167.4,342.3,167.4,334.9,167.4z"/>
	<path class="st9" d="M383.8,176.9c-1.7,1.3-3.7,2.3-5.2,3.8c-5.6,5.4-5.5,5.4-11,0c-4.7-4.7-4.7-4.7-0.1-9.3
		c1.2-1.2,2.4-2.3,3.5-3.5c1.5-1.8,2.8-1.8,4.4,0c2,2.2,4.2,4.3,6.2,6.4C382.1,174.8,382.5,175.3,383.8,176.9z"/>
	<path class="st5" d="M306.3,175.8c-0.1,1.2-8.8,10.2-9.3,9.8c-1.5-1-2.8-2.3-4.1-3.5c-1.3-1.2-2.5-2.6-3.9-3.8
		c-1.8-1.5-2-2.9-0.1-4.4c0.4-0.3,0.7-0.7,1.1-1.1c2.3-2.1,5.6-6.5,6.6-6c3.4,1.6,6,4.9,8.9,7.7
		C305.9,174.9,306.1,175.6,306.3,175.8z"/>
	<path class="st5" d="M306.3,251.6c-0.1,1-9,9.8-9.5,9.4c-3.1-2.8-6.4-5.4-8.9-8.7c-1.7-2.3,1.6-3.5,3-4.9c5.9-6.1,6-6.1,12,0.1
		C304.1,248.8,305.8,249.8,306.3,251.6z"/>
	<path class="st10" d="M361.4,488.3c-31.4,0-62.7,0-94,0c-2.5,0-3.8-0.5-4.4-3.3c-1.9-8.4-4.2-16.8-6.3-25.1
		c-0.5-1.9-0.9-3.7,2.1-3.6c17.1,0.4,34.3-1.7,51.1,3.9c5.9,1.9,11.6,4.1,17,7.2c10.7,6.1,21.4,12.2,32.1,18.4
		C359.9,486.3,361.7,486.3,361.4,488.3z"/>
	<path class="st10" d="M181.2,488.3c3.4-10.3,6.7-20,9.9-29.8c0.6-1.8,1.6-2.2,3.3-2.2c16.8,0,33.7,0.1,50.5,0c2.2,0,3.2,0.7,3.7,3
		c2,8.6,4.3,17.1,6.5,25.6c0.5,2.1,0.4,3.5-2.4,3.5C229,488.2,205.4,488.3,181.2,488.3z"/>
	<path class="st11" d="M182.9,456.7c-3.2,9.7-6.4,19.3-9.6,28.9c-0.7,2.2-2.4,2-4,2c-10.5,0-21,0-31.4-0.1c-1.1,0-2.5,0.6-3.1-0.8
		c-0.5-1.1,0.6-1.8,1.2-2.5c11.3-15.3,26.4-24.5,45.1-27.7C181.5,456.4,182,456.6,182.9,456.7z"/>
	<path class="st7" d="M372.7,504.3c1.7,0,3.3,0,5,0c4.8-0.2,6.3,2.9,6.6,7c0.3,4.9-1.8,7.7-6.2,8c-3.6,0.3-7.3,0.2-11,0
		c-4.5-0.2-6.3-3.4-6.8-7.2c-0.4-3.8,3-7.5,6.8-7.7C369.1,504.2,370.9,504.3,372.7,504.3z"/>
	<path class="st12" d="M288.3,511.8c0,7.8-0.4,8.5-5.5,8.4c-9.6,0-10.5-0.7-10.5-8.2c0-8.2,0.5-8.7,7.9-8.8
		C287.5,503.2,288.3,504.1,288.3,511.8z"/>
	<path class="st13" d="M412.6,569.3c-7.7,1.3-14.1-7.3-14.2-13.5c-0.1-7.6,6.1-13.5,14.1-13.5c8.3,0,13.8,5.3,13.9,13.4
		C426.4,563.8,420.9,569.3,412.6,569.3z"/>
	<path class="st13" d="M180.5,542.2c6.6-1.3,13.8,6.8,13.8,13.6c0,6.2-6.4,14.3-14.3,13.7c-8.2-0.7-13.7-5.7-13.6-14
		C166.4,547.4,172,542.2,180.5,542.2z"/>
</g>
</svg>
