<?xml version="1.0" encoding="utf-8"?>
<!-- Generator: Adobe Illustrator 19.0.0, SVG Export Plug-In . SVG Version: 6.00 Build 0)  -->
<svg version="1.1" id="Calque_1" xmlns="http://www.w3.org/2000/svg" xmlns:xlink="http://www.w3.org/1999/xlink" x="0px" y="0px"
	 viewBox="0 0 612 792" style="enable-background:new 0 0 612 792;" xml:space="preserve">
<g>
	<path d="M522.1,567c-1.6-1.7-3.3-3.3-4.9-5C438.6,483.5,360,404.9,281.4,326.3c-1.6-1.6-3.5-2.8-5.2-4.2c0.3-0.5,0.7-0.9,1-1.4
		c1.6,0,3.2,0,4.8,0c54.8,0,109.6,0,164.5,0c4.5,0,8.5-0.7,12.1-3.6c19.3-15.4,36.2-33,49.3-54c10.8-17.3,18.1-35.8,18.4-56.6
		c0.8-49.9-46.3-87.6-94.6-75.6c-42.9,10.6-67.3,52.6-56,96.6c6.4,24.9,20.5,45.2,37.3,64c0.9,1,2.5,1.6,2.4,3.6
		c-27.8,0-55.4,0-83,0c-29,0-58,0-87,0c-5.7,0-10,2.5-12.3,7.8c-2.3,5.3-1.1,10.1,2.8,14.2c0.8,0.9,1.6,1.7,2.5,2.5
		c79.3,79.3,158.6,158.6,237.9,237.9c1.9,1.9,4.1,3.7,6.1,5.5c-0.2,0.3-0.5,0.7-0.7,1c-92.5,0.5-185.1,1.1-277.6,1.6
		c-0.4-0.5-0.7-1-1.1-1.5c1.6-1.2,3.4-2.2,4.8-3.6c19.5-19.8,36.6-41.4,48.5-66.7c11-23.2,16.7-47.3,12.9-73.1
		c-6.5-44.9-42.2-80.1-87.8-86.5c-43.9-6.2-88.1,18.3-106.5,58.9c-14.6,32.3-11.3,64.3,2.6,95.7c18.1,40.7,47.6,72.2,82.1,99.5
		c3.4,2.7,7.3,3,11.3,2.9c100.5-0.5,201-1,301.5-1.6c13.5-0.1,27-0.3,40.5-0.4c5.7,0,10-2.4,12.3-7.7
		C527.5,576.1,526.3,571.2,522.1,567z M402.3,227.7c-2.6-7.1-3.8-14.5-3.9-22c-0.1-29.6,25.1-53.5,54.3-51.5
		c29.8,2,51.4,28.5,47.7,58.1c-1.6,12.5-6.1,23.7-12.4,34.4c-9.6,16.2-22.1,29.9-36,42.5c-1.2,1.1-2.1,2.4-4,0.6
		C428.5,272.2,411.4,252.9,402.3,227.7z M170.3,560.2c-1.3,1.1-2.3,2.2-4.1,0.6c-27.9-24.5-52.8-51.4-67-86.4
		c-9.5-23.5-11.9-47.4-0.7-71.2c14.7-31.4,48.1-48.8,82.8-43.1c33,5.4,59.1,33.2,63,67.2c0.3,3,0.5,6,0.8,8.9
		c-0.6,22.1-8.2,42-19.5,60.6C210.9,521.2,191.7,541.7,170.3,560.2z"/>
	<path d="M449.7,179.9c14.3,0.1,25.4,11.4,25.4,25.8c0,13.9-11.5,25.3-25.4,25.4c-14.4,0-25.9-11.7-25.7-26.1
		C424.2,191,435.6,179.8,449.7,179.9z"/>
	<path d="M167.8,386.7c-28.3,0.1-50.9,22.8-50.9,51.2c0,28.5,23,51.3,51.5,51.1c28-0.1,50.8-23.2,50.7-51.5
		C219,409.2,196.1,386.6,167.8,386.7z M167.9,463.2c-14.2,0-25.7-11.6-25.6-25.7c0.1-13.9,11.6-25.4,25.4-25.4
		c14.1,0,25.8,11.5,25.8,25.6C193.7,451.8,182.1,463.3,167.9,463.2z"/>
</g>
</svg>
