<?xml version="1.0" encoding="utf-8"?>
<!-- Generator: Adobe Illustrator 19.0.0, SVG Export Plug-In . SVG Version: 6.00 Build 0)  -->
<svg version="1.1" id="Calque_1" xmlns="http://www.w3.org/2000/svg" xmlns:xlink="http://www.w3.org/1999/xlink" x="0px" y="0px"
	 viewBox="0 0 612 792" style="enable-background:new 0 0 612 792;" xml:space="preserve">
<style type="text/css">
	.st0{fill:#555555;}
</style>
<g>
	<path class="st0" d="M303,595.8c-13.7,0-27.3,0.1-41,0c-13.6-0.1-21.3-7.8-21.3-21.5c0-11.8-0.1-23.7,0-35.5c0-2.5-0.3-5.4,0.8-7.4
		c2.4-4.3,1-7-2.4-9.6c-1.7-1.3-3.1-3-4.6-4.6c-6.3-6.3-6.3-6.3-11.9,1c-16.5,22-24.7,46.9-25.6,74.3c0,1.2,0,2.3-0.1,3.5
		c-0.3,5.9-3.6,9.4-8.9,9.2c-5-0.1-8.2-3.6-8.1-9.3c0.3-35.6,11.1-67.5,34.5-94.5c24.8-28.7,56.1-43.8,94.5-42.4
		c25.5,1,48.1,10.3,67.5,26.6c29.3,24.6,45.1,56.5,49.7,94.2c0.6,5.3,1,10.6,1,16c-0.1,6-3.3,9.5-8.5,9.5c-5.1,0-8.4-3.6-8.5-9.6
		c-0.5-29.6-9.2-56.2-27.3-79.8c-2.6-3.4-4-3.4-6.9-0.4c-6.2,6.4-12.3,11.4-10,22.7c2.3,11.4,0.5,23.6,0.5,35.4
		c0,14.2-7.7,22.1-21.8,22.1c-7,0-14,0-21,0C316.7,595.9,309.8,595.9,303,595.8C303,595.8,303,595.8,303,595.8z"/>
	<path class="st0" d="M126.7,127.7c36.6-0.1,66.7,28.7,68.1,65.2c0.4,9.5-2.3,18.4-5.5,27.2c-11.7,32-29,61.2-46.7,90.2
		c-4.4,7.2-9.1,14.3-13.7,21.5c-1.1,1.7-1.9,3.2-3.7,0.5c-23.2-36.1-45.7-72.6-61.1-113c-14.7-38.5,6.4-70,29.2-82.7
		C103.8,130.7,114.4,127.8,126.7,127.7z"/>
	<path class="st0" d="M301.3,292.9c45.6-0.1,81.7,36.2,81.8,82.3c0.1,43.5-36.7,80.7-79.9,80.8c-46.6,0.1-83.3-35.7-83.3-81.4
		C219.9,329.3,256.1,293,301.3,292.9z"/>
	<path class="st0" d="M456.6,384.9c35.4-0.1,58.5,23.8,57.4,52.8c-0.3,8.3-3.3,15.9-6.4,23.4c-11.3,27.1-26.7,52-42.6,76.6
		c-0.9,1.4-1.8,3.7-3.7,0.7c-17.3-27-34.4-54.2-45.8-84.4c-6.4-17.2-4.7-33.4,6.2-48.2C431.8,392,445.6,385.1,456.6,384.9z"/>
	<path class="st0" d="M155.6,468.5c-15-23.5-30.4-46.1-38.8-72.3c-5.4-16.9,1-34.5,15.2-44.5c14.6-10.2,33.3-10,47.6,0.4
		c14.3,10.5,20.1,27.6,14.7,44.6c-6.9,21.4-18.9,40.3-30.5,59.2C161.3,460.1,158.5,464.1,155.6,468.5z"/>
	<path class="st0" d="M445.8,366.1c-15-23-29.7-45.4-38.5-70.9c-5.7-16.2-1.7-30.8,10.8-42.3c12.4-11.6,27.3-14.3,43.1-7.9
		c16,6.5,24.2,19.1,25.6,36.1c0.3,3.7-0.4,7.3-1.5,10.8C476.8,319,461.2,342.1,445.8,366.1z"/>
	<path class="st0" d="M301.6,139.9c13.3,0.7,25.8,8.1,32.6,23.4c6.6,14.8,4.6,28.9-6,41.4c-4.3,5.1-9.8,9-14.5,13.7
		c-4,4-6.8,8.4-6.9,14.4c-0.1,5.4-4.2,9.1-8.9,8.8c-4.8-0.3-8.1-4.1-8.1-9.5c0-10.1,4.3-18.3,11.3-25.2c4.1-4.1,8.7-7.8,12.8-11.9
		c7.5-7.5,8.9-17.7,4-26.5c-4.8-8.5-14.8-13.2-24.2-11.2c-10,2.1-17,10.3-17.8,20.7c-0.5,6.4-3.8,10.1-8.9,9.9
		c-5.4-0.2-8.4-4.3-8.1-10.9C259.6,156.3,277,140,301.6,139.9z"/>
	<path class="st0" d="M306.8,261c-0.1,6.2-3.4,10-8.6,10.1c-5.5,0-8.5-3.7-8.4-10.6c0.1-6.3,3.3-9.9,8.7-9.8
		C303.8,250.9,306.9,254.7,306.8,261z"/>
	<path class="st0" d="M126.9,165c14.2,0,25.9,11.5,26,25.5c0,14.4-11.5,26.1-25.9,26.3c-14.1,0.2-26-11.9-25.9-26.2
		C101.1,176.4,112.7,165,126.9,165z"/>
	<path class="st0" d="M441.9,433c-0.1-11.8,8.9-21,20.6-21.2c11.9-0.1,21.3,9.1,21.4,21c0.1,11.3-9.7,21.1-21,21.1
		C451.4,453.8,442,444.5,441.9,433z"/>
	<path class="st0" d="M167.3,382.6c0,6.7-5,11.7-11.6,11.8c-6.6,0-11.7-5-11.7-11.6c0-6.6,5-11.7,11.6-11.8
		C162.2,371,167.3,376,167.3,382.6z"/>
	<path class="st0" d="M445.6,267.9c7.2-0.1,12.6,5.2,12.6,12.5c0,6.7-5.6,12.5-12.2,12.5c-6.9,0-12.8-5.8-12.8-12.6
		C433.3,273.5,438.8,268,445.6,267.9z"/>
</g>
</svg>
