<?xml version="1.0" encoding="utf-8"?>
<!-- Generator: Adobe Illustrator 19.0.0, SVG Export Plug-In . SVG Version: 6.00 Build 0)  -->
<svg version="1.1" id="Calque_1" xmlns="http://www.w3.org/2000/svg" xmlns:xlink="http://www.w3.org/1999/xlink" x="0px" y="0px"
	 viewBox="0 0 612 792" style="enable-background:new 0 0 612 792;" xml:space="preserve">
<g>
	<path d="M130,442c4.7,0,9.3,0,14.4,0c0.5-5.3,2.1-10.1-4.1-13.8c-3-1.9-5.7-6.7-5.9-10.4c-2.6-43.3-3.2-86.6,7.9-129.1
		c3.6-13.6,8.8-26.6,17.3-38c11.1-15,25.5-23.2,44.8-22.7c23.5,0.6,47,0.6,70.5,0c19.1-0.4,33.3,7.7,44.3,22.5
		c11.6,15.6,17,33.8,20.8,52.5c1.2,6,2.6,12.1,2.9,18.2c0.3,6.2,3,10.7,8,13.5c13.2,7.6,26.7,14.9,40.1,22.2
		c2.3,1.3,5.2,1.7,7.3,3.2c2.8,2,6.4,4.2,7.3,7.1c1.7,5.5,5.3,5.3,9.5,5.3c12.3-0.1,20.5,5.3,23.3,15.5c0.7,2.5,0.8,5.3,0.8,7.9
		c0.1,15.5,0,31,0,46.9c1.9,0.1,3.5,0.2,5.1,0.3c9.6,0.6,16.7,7.6,16.7,17.2c0.1,45.7,0.1,91.3,0,137c0,9.3-5,14.4-17.1,17.9
		c0,2.4,0.1,5,0,7.6c-0.2,4.4-3.1,7.5-6.8,7c-4.1-0.5-6.1-3-6-7.2c0-2.5,0-4.9,0-7.7c-24.6,0-48.7,0-73.7,0c0,2.7,0,5.2,0,7.8
		c0,4.1-2,6.7-6.1,7.1c-3.7,0.3-6.3-2.7-6.5-7.2c0-0.8-0.1-1.7,0-2.5c0.5-3.7-0.5-5.5-4.7-6.3c-8-1.6-12.7-8.7-12.7-18
		c0-31.8,0-63.7,0-95.5c0-12,0-24,0-36c0-14.3,5.6-20.3,19.9-21.2c0.5,0,0.9-0.2,1.9-0.4c0-7.9,0-15.9,0-23.8c0-6.2,0.1-12.3,0-18.5
		c-0.2-8,0.1-15.7,6.5-21.8c-5.9-3.6-11.3-6.8-16.6-10.2c-18.2-11.7-30-26.8-31.3-49.8c-0.7-12.4-5.4-24.5-8.3-36.7
		c-0.8,0.1-1.5,0.2-2.3,0.3c0,2,0,3.9,0,5.9c0,103.5,0,207,0,310.5c0,21-20.7,34.1-38.6,24.5c-9.9-5.3-14.2-14.1-14.2-25.1
		c0-45.2,0-90.3,0-135.5c0-18.2,0-36.3,0-54.8c-3.2,0-6.1,0-9.8,0c0,1.7,0,3.4,0,5.2c0,60.7,0,121.3,0,182c0,4.1-0.1,8.4-1.1,12.4
		c-3.4,12.6-15.9,20.6-28.7,18.9c-12.9-1.8-22.7-12.5-22.7-25.8c-0.2-38.3-0.1-76.7-0.1-115c0-66.7,0-133.3,0-200c0-0.9,0-1.8,0-2.8
		c-0.4-0.1-0.9-0.2-1.3-0.3c-1.8,5.4-3.9,10.7-5.4,16.1c-5.4,19.7-7.4,40-7.8,60.3c-0.3,18,0.3,36,0.8,54c0.3,9-2.8,15.5-11.4,19.1
		c-2.9,1.2-2.8,1.4-2.1,10.5c2.2,0,4.4,0,6.6,0c2.3,0,4.7,0,7.4,0c0,28.5,0,56.9,0,86c-12.8,0-25.7,0-38.6,0
		C130,499.3,130,470.7,130,442z M430.7,442.9c0-17,0.2-33.4-0.1-49.9c-0.2-7.1-5.7-11.7-12.9-12c-2.3-0.1-4.7-0.4-7,0.1
		c-1.8,0.4-4,1.4-5,2.8c-5.2,7.7-13,10.4-21.8,7.1c-5.1-1.9-10.2-4.1-15.2-6.3c-5.3-2.3-7.8-1.6-9.9,3.9c-0.9,2.2-1.2,4.8-1.2,7.3
		c-0.1,10.8,0,21.7,0,32.5c0,4.8,0,9.5,0,14.5C382.2,442.9,406.1,442.9,430.7,442.9z M230.9,272.7c-0.1,0.5-0.5,1.3-0.6,2.1
		c-3.7,26.9-7.3,53.7-10.9,80.6c-0.1,0.9-0.2,2.2,0.3,2.8c6.4,8.3,13,16.6,19.7,25.1c6.3-7.9,12.2-15.1,17.7-22.6
		c1.3-1.8,2.1-4.5,1.9-6.7c-2.3-18.8-5-37.6-7.5-56.4c-1.2-8.5-2.3-17-3.4-25C242.1,272.7,236.9,272.7,230.9,272.7z M442.8,480.2
		c-32.9,0-65.2,0-97.8,0c0.1,2.1,0.2,3.7,0.3,5.4c32.7,0,65,0,97.5,0C442.8,483.7,442.8,482,442.8,480.2z M231.3,245.8
		c-0.9,3.3-1.6,6.1-2.4,9c-2.1,8.3-0.1,11.5,8.6,11.9c3.6,0.2,7.4-1.1,10.9-2.6c1.3-0.5,2.5-3.4,2.2-5c-2.3-13.4-2.4-13.4-15.8-13.3
		C233.9,245.8,232.9,245.8,231.3,245.8z"/>
	<path d="M564,253c-1.3,6.2-2.2,12.4-3.9,18.5c-13.7,50.7-58.8,83.4-112.4,81.6c-49.1-1.6-92.3-39-102.4-88.6
		c-14.2-70,42.2-135.4,113.6-131.7c54,2.8,97.5,43.1,104.2,96.4c0.2,1.3,0.6,2.6,0.9,3.8C564,239.7,564,246.3,564,253z M453.8,151.3
		c-49.7-0.4-91.4,40.8-91.7,90.5c-0.3,50.8,40.2,92.1,90.6,92.5c50.8,0.4,91.9-40,92.4-90.7C545.5,192.9,504.7,151.7,453.8,151.3z"
		/>
	<path d="M287.3,167.9c0.1,26.6-21.1,48.1-47.7,48.2c-26.6,0.1-48.1-21.2-48.3-47.7c-0.2-26.3,21.4-48.2,47.8-48.3
		C265.7,120,287.2,141.3,287.3,167.9z"/>
	<path d="M390.1,218c2.5-5.3,4.8-10.1,7.3-15.3c17.6,5.4,35,10.7,52.3,15.9c4.8-7.5,9.3-14.7,14.1-21.7c2.4-3.5,5.3-6.9,8.5-9.7
		c1.9-1.7,4.9-2.1,7.3-3.1c0.7,2.6,2.1,5.2,2,7.8c-0.2,4.3-1.1,8.6-2.3,12.7c-2.3,8-5,15.8-7.7,24.4c14.9,9.9,30,20.1,45.5,30.4
		c-2.4,5.2-4.8,10.1-7.3,15.4c-16.4-7.7-32.4-15.3-48.8-23.1c-4.3,7.5-8.5,14.7-12.9,22.4c9.1,6.1,18.2,12.2,27.5,18.5
		c-1.5,3.3-2.9,6.2-4.5,9.6c-9.9-4.7-19.5-9.1-29-13.8c-2.6-1.3-4.5-1.5-6.4,1c-0.8,1-2,1.8-3.1,2.5c-3.9,2.5-7.2,1.2-6.5-3.2
		c1.2-7.8-3.5-9.8-9.1-12.2c-7.8-3.3-15.3-7.2-23.5-11.1c1.5-3.2,2.9-6.2,4.5-9.6c10.6,3.2,21,6.3,31.7,9.6c3.1-8.1,6.2-16,9.3-24.1
		C422.8,233.6,406.7,225.9,390.1,218z"/>
</g>
</svg>
