<?xml version="1.0" encoding="utf-8"?>
<!-- Generator: Adobe Illustrator 19.0.0, SVG Export Plug-In . SVG Version: 6.00 Build 0)  -->
<svg version="1.1" id="Calque_1" xmlns="http://www.w3.org/2000/svg" xmlns:xlink="http://www.w3.org/1999/xlink" x="0px" y="0px"
	 viewBox="0 0 612 792" style="enable-background:new 0 0 612 792;" xml:space="preserve">
<g>
	<path d="M143,502c-7.6-3.6-10-9.7-9.8-17.8c0.4-13.1,0.1-26.3,0.1-39.8c1.5,0.3,2.5,0.5,3.6,0.6c5.5,0.6,9.4-3.2,8.7-8.8
		c-1.5-12.5-4.3-24.6-10.8-35.6c-1-1.7-1.4-4.1-1.4-6.1c-0.1-19.8-0.1-39.7-0.1-59.5c0-1.8,0-3.5,0-5.3c-0.5-0.2-1-0.3-1.6-0.5
		c-3.8,8.1-7.7,16.2-11.3,23.9c-5.1-2.2-9.9-4.4-15.3-6.7c6.4-16,12.6-32.9,29.6-42.5c2.2-1.3,5-1.6,7.5-2.3c0.3-0.1,0.7,0,1,0
		c21.2,0.8,42.2,0.2,62.7-6.1c3.7-1.1,6.3-0.2,9.1,2.8c8.9,9.2,23.1,9.9,33.1,1.8c2.4-2,4.5-2.7,7.1-1.1c7.6,4.6,15.5,8.9,22.7,14.2
		c5,3.7,5.1,9.2,1.3,13c-3.6,3.7-8.2,3.5-12.9-0.5c-2.4-2.1-4.9-4-7.7-5.6c6.8,9.2,13.9,14.9,22,7.8c0.7-0.6,2.4-0.4,3.5,0
		c11.7,3.7,23.4,7.6,35.1,11.4c3.6,1.1,6.5,3.2,6,6.9c-0.4,2.5-2.6,5.5-4.8,6.6c-3.1,1.5-6.1,0.2-8.3-3.3c-5.6-8.7-15.3-11.4-25-8.1
		c-2.1,0.7-4.9,0.6-6.9-0.2c-6.7-2.7-13.3-6-20.4-9.2c2.9,14.8,5.7,29.1,8.4,43.5c0.1,0.5,0.2,1,0.3,1.5c1.9,6.7,1.7,12.6-2.7,19
		c-6.1,9-6.9,20-8,30.6c-0.1,1.1-0.2,2.3-0.4,3.7c-23.7,0-47.3,0-71.7,0c6.3-32.4,12.5-64.7,18.8-96.9c-0.3-0.2-0.7-0.4-1-0.5
		c-3.1,5.4-6.3,10.8-10,17.4c0-9.4-0.8-17.7,0.4-25.7c0.5-3.6,5-6.7,7.5-9.8c-7.4-1-10.1,1.2-10.1,8.9c0,21.2,0.7,42.4-0.3,63.5
		c-0.5,11.7-3.7,23.3-5.8,34.9c-0.6,3.4-1.2,6.8-1.9,10.5c2.8,0.3,5.1,0.5,7.9,0.8c0,1.9,0,3.7,0,5.5c0,15.2-0.3,30.3,0.1,45.5
		c0.2,8.2-2.2,14.3-9.7,17.9c-2.3,0-4.7,0-7,0c-7.6-3.1-10.2-8.9-10.1-17c0.3-29.3,0.1-58.6,0.1-88c0-1.6,0-3.2,0-5.2
		c-1.9,0.1-3.3,0.2-5,0.3c0,2.2,0,4,0,5.8c0,29-0.2,58,0.1,87c0.1,8.1-2.5,13.8-10.1,17.1C147.7,502,145.3,502,143,502z"/>
	<path d="M67,435c1-4.4,1.8-8.7,2.9-13.1c1.1-4,2.2-8,3.8-11.9c9-21.3,20.8-25.6,42.2-21.9c6.6,1.1,11.2,5.6,15,10.9
		c8.1,11.3,10.9,24.5,12.5,38c0.4,3.2-1.4,5.6-4.7,5.9c-3.3,0.3-5.2-1.6-5.8-4.9c-1.6-8.1-3.4-16.1-5.1-24.2c-0.5,0.1-1,0.2-1.5,0.3
		c1,7.4,2,14.8,2.9,22.2c0.4,3.6,0.7,7.3,0.9,10.9c0.4,7-0.2,7.7-7,9.7c-12,3.5-24,3.4-35.9-0.1c-6.4-1.9-7.2-3-6.6-9.6
		c1.1-11.2,2.4-22.5,2.7-34c-1.7,7.7-3.3,15.4-5.3,23c-0.7,2.4-2.4,5.8-4.2,6.2c-1.9,0.5-4.5-2.2-6.7-3.5C67,437.7,67,436.3,67,435z
		"/>
	<path d="M283,502c-5.2-2.4-7-6.4-6.9-12c0.2-16,0.1-32,0.1-48c0-1.5,0.1-2.9,0.2-4.7c12.5,0,24.7,0,37.6,0c0,4.2,0,8.3,0,12.4
		c0,13.5-0.2,27,0.1,40.5c0.1,5.7-1.8,9.6-7.1,11.8c-1.3,0-2.7,0-4,0c-4.9-2.7-6.5-6.8-6.3-12.3c0.4-9.5,0.2-19,0.1-28.4
		c0-1.5-0.7-3-1.1-4.5c-0.6,0.1-1.3,0.2-1.9,0.3c-0.1,1.8-0.2,3.5-0.2,5.3c0,9.1-0.2,18.3,0.1,27.4c0.2,5.5-1.5,9.7-6.6,12.2
		C285.7,502,284.3,502,283,502z"/>
	<path d="M242,502c-5.9-3-7.9-7.8-7.8-14.3c0.3-16.5,0.1-32.9,0.1-49.4c0-1.6,0-3.3,0-5.3c7.3,0,14.2,0,21.6,0c0,5.3,0,10.4,0,15.5
		c0,13.1-0.2,26.3,0.1,39.4c0.1,6.6-2,11.3-8,14C246,502,244,502,242,502z"/>
	<path d="M217,502c-5.9-2.9-8-7.7-7.8-14.2c0.3-16.5,0.1-32.9,0.1-49.4c0-1.6,0-3.3,0-5.3c7.3,0,14.2,0,21.7,0c0,2.7,0,5.3,0,7.9
		c0,15.6-0.2,31.3,0.1,46.9c0.1,6.5-2,11.3-8,14.1C221,502,219,502,217,502z"/>
	<path d="M114,502c-4.7-2-6.4-5.3-6.2-10.5c0.4-9.6,0.1-19.2,0.1-29.1c4.6-0.8,9-1.5,13.8-2.3c0,11.9,0.4,23.7-0.3,35.3
		c-0.1,2.3-4.2,4.4-6.4,6.6C114.7,502,114.3,502,114,502z"/>
	<path d="M579,394c-2.9,7.3-8.7,12.1-15.5,14.6c-11.6,4.3-23.7,7.5-35.5,11.1c-0.9,0.3-2.1-0.4-3.1-0.7c0-0.5,0-1,0-1.5
		c1.6-0.5,3.2-1,4.9-1.5c9.5-2.9,19.1-5.7,28.5-9c3.9-1.3,7.6-3.5,10.9-5.9c7.8-5.5,8-10.8,1.2-17.6c-0.9-0.9-1.5-2.3-1.7-3.8
		c5.6,1.4,8.2,5.7,10.5,10.2C579,391.3,579,392.7,579,394z"/>
	<path d="M414,195c1,0.8,2,1.6,3.7,3c-8.7,0.7-13.6,6-18,12.3c-7-3-13.9-5.8-21.7-2c2.3-5.9,5.5-8.2,11.4-6.4
		c6.1,1.8,10.8,1.5,14.7-3.9c0.9-1.2,2.5-2,3.8-3C410,195,412,195,414,195z"/>
	<path d="M489.8,327.4c0.1-2,0.2-3.4,0.4-6c-3.2,2.7-5.7,4.7-8.6,7c0-1.4,0-2.2,0-3.4c-2.1,0.5-4.1,1-6.5,1.6c1.1-3.3,2-6,3.1-9.5
		c3.9-1.3,3.9-1.3,4.3-4.9c5.5,0.5,11,0.8,16.4,1.6c1.3,0.2,2.4,2,3.8,3.3c0.5-3.3-1.1-6.7,3.4-8.6c1.8-0.7-0.2-7.6,5.6-4.7
		c1.6-2.5,3.1-4.7,4.5-6.9c0.1,0.5,0.2,0.9,0.3,1.4c3.1,0,6.2,0,9.8,0c0,0,0,1,0.1,1.8c2.7,1.3,5.3,2.5,8.8,4.2
		c-3.2,1.4-5.4,2.4-7.9,3.5c0.9,1,1.7,1.9,3.1,3.5c-4.8,0-8.6,0-13.4,0c2,1.9,3.1,2.9,5,4.8c-4,0.2-7.1,0.4-11.3,0.7
		c3,2.4,3.3,5.5,7.4,5.9c2.8,0.3,5.5,3.7,7.9,6c0.5,0.5-0.2,2.3-0.4,3.4c2.2,1.7,4.3,3.4,7.1,5.7c-6.3,2.1-3.3,5.5-2.4,7.5
		c-2.6,3.2-4.9,6-7.6,9.4c-0.9-2.5-1.7-4.7-2.6-7.3c-1.1,0.7-2,1.3-3.6,2.3c0.5-4.4,0.9-8.1,1.5-13.1c-2.3,1.8-3.6,2.8-5.5,4.3
		c0-3.4,0-6.4,0-9.9c-1.6,0.8-2.8,1.4-4.5,2.4c-0.9-2.1-1.7-4.1-2.8-6.6c-9.1,6.5-14.6,15.3-17.8,25.8c0.4,0.2,0.7,0.4,1.1,0.7
		c1-2.2,2-4.4,3.7-8.1c3.8,4.2,6.8,7.9,10.2,11.2c6.3,6.2,12.8,12.1,19.3,18.1c3.8,3.5,4,5.9-0.9,7.5c-9.1,3-18.4,5.8-27.9,7.3
		c-35,5.6-70.3,7.1-105.6,3.9c-11.5-1-23.1-3.4-34.1-6.9c-16.2-5.2-18.8-15-8.7-28.5c10.6-14,24.7-23.4,41.1-30.5
		c1.7,4.2,3.3,8.1,5.1,12.5c2.2-7.9-10.1-27.3-21.7-34.8c-1.1,2.8-2.1,5.6-3.4,9c-2.1-1.6-3.5-2.7-5.5-4.2c0,4.7,0,9,0,14.6
		c-2.4-2.6-3.9-4.2-6-6.6c-2.8,5.9,1.2,11.1,0.3,17.1c-1.7-1.5-2.9-2.6-4.3-3.8c-1.1,3.4-2.2,6.6-3.6,11c-2.4-4.1-4.2-7.3-6.4-11
		c-0.7,0.1-2.2,0.2-3.9,0.3c0.5-4.2,6.8-8.8-2.6-11.8c3.7-3,6.7-5.5,9.9-8.1c-3-3.5-1.3-5.4,2.5-6.5c2.1-0.6,5.7,0,4-4.2
		c2.4-0.8,4.9-1.5,7.4-2.3c1.1-1.7,2.5-3.8,4.1-6.3c-4.5-0.2-8.8-0.4-14.4-0.7c2.9-2.4,4.6-3.8,7.6-6.3c-6.6,0-11.8,0-16.9,0
		c-0.3-0.4-0.5-0.9-0.8-1.3c1.3-0.9,2.5-1.8,4.3-3c-3.4-1.4-6.5-2.7-10.7-4.5c4.3-2.1,7.5-3.6,11.3-5.5c0-0.5,0.1-2.1,0.2-3.8
		c4,0.5,8.3,7.5,11.8-2c2.8,4,4.9,7.2,7.1,10.3c5.1-1.9,6-0.9,7.1,7.1c4.6,1.1,4.6,1.1,4.6,10.6c2.5-1.6,3.5-6.8,8-3.6
		c0.1,0.1,1-0.7,1.5-1.2c2.6-2.8,5.1-3.7,7,0.3c3.2-1,6.1-1.9,10-3.2c-2,7.3,2.9,6.5,7.1,7.1c-0.9,1.5-1.6,2.5-2,3.1
		c1.5,3,2.9,5.8,4.7,9.6c-3.7-0.9-6.3-1.6-9.4-2.4c0.2,1.6,0.4,2.8,0.7,5.1c-4.1-3.4-7.4-6.3-10.8-9.1c-0.3,0.3-0.6,0.5-1,0.8
		c0.3,1.8,0.6,3.7,1.2,6.7c-3.6-2.6-6.5-4.5-9.5-6.7c-0.4,2.3-0.7,4.1-0.9,5.1c7.5,8.9,15,17.8,22.5,26.7c-0.3-0.9-0.7-2.3-1.2-3.6
		c-0.5-1.3-1.2-2.6-2-4.3c9.6-1.8,17.5,0.8,24.2,7c4.3,4.1,8.1,8.8,12.3,13.1c6.7,6.9,10.9,8,19.6,4c4.8-2.2,9.2-5.4,13.6-8.3
		c5-3.2,9.8-3.8,15.1-0.1c-1.3,2.7-2.6,5.4-4.1,8.8c6.2-7.4,11.8-14.2,17.9-21.6c0-0.3-0.3-1.7-0.7-3.7
		C494.4,324.3,492.3,325.7,489.8,327.4z M363.5,302.1c-6.5,1.1-16.1,10.5-16.8,15.6C351.9,313,357.9,307.4,363.5,302.1z
		 M354.2,277.5c5.3,6.7,10.1,12.9,14.9,19.1C366.5,288.6,362,282.2,354.2,277.5z M371.4,298.4c8.2-1.7,15.2-3.2,21.6-4.5
		C386,291.8,379.1,294.4,371.4,298.4z M516.1,306.3c-0.3-0.2-0.6-0.5-0.9-0.7c-3.5,4.5-7,9-10.5,13.4c0.3,0.3,0.7,0.5,1,0.8
		C509.2,315.4,512.7,310.8,516.1,306.3z"/>
	<path d="M314,409.6c0,8,0,16.1,0,24.5c-12.7,0-24.9,0-37.6,0c0-8,0-16,0-23.9c-0.5-0.1-1.1-0.1-1.6-0.2c-0.9,6.1-2,12.2-2.6,18.4
		c-0.5,5.1-0.1,10.3-0.4,15.5c-0.2,3.6-2.2,6.1-6,6c-3.7-0.1-5.7-2.4-5.8-6.2c-0.3-12.9,0.2-25.7,4.2-38.1c1.4-4.4,3.5-8.7,5.9-12.6
		c3.5-5.7,8.5-9,15.8-8.5c6.1,0.5,12.4,0.5,18.5,0c7.5-0.6,13,2.8,15.9,8.9c3.6,7.4,6.7,15.3,8.2,23.3c1.7,8.6,1.3,17.6,1.7,26.4
		c0.2,3.9-1.7,6.7-5.7,6.7c-4.3,0-5.8-2.9-6.1-7c-0.7-9.6-1.5-19.2-2.4-28.8c-0.1-1.6-0.8-3.1-1.2-4.6
		C314.5,409.5,314.3,409.5,314,409.6z"/>
	<path d="M493.9,243.9c-8.9,8.7-8.9,8.7,2.1,14.3c-12.1,4.7-12.1,4.7-2.2,13.8c-2.7-0.2-4.7-0.5-6.7-0.6c-4.5-0.1-5.7,1.6-3.9,5.8
		c0.8,1.8,1.8,3.5,3.2,6.2c-2.6-1.3-4.2-2.2-6-3c-4.6-2.1-6.5-0.7-6.1,4.4c0.1,1.8,0.5,3.6,0.9,6.6c-2.1-2.4-3.4-4.1-4.8-5.5
		c-3.2-3.2-5.3-2.9-7.1,1.3c-0.8,1.9-1.3,3.9-2.1,6.3c-5.5-12-5.5-12-14.3-2.4c0.3-2.6,0.6-4.5,0.7-6.3c0.4-5.1-1.6-6.4-6.2-4.3
		c-1.6,0.7-3.2,1.7-5.8,3.1c1.3-2.6,2.3-4.3,3-6c2.1-4.6,0.8-6.5-4.4-6.1c-1.8,0.1-3.5,0.4-5.8,0.7c9.1-10.1,9.1-10.1-3.2-13.9
		c1.5-0.6,2.5-0.9,3.4-1.4c2.2-1.3,4.4-2.6,6.6-3.9c-1.5-2.1-2.8-4.2-4.4-6.2c-0.7-0.9-1.6-1.5-2.8-2.5c12.7,1.1,13.9,1.4,7.9-11.4
		c1.6,0.9,2.6,1.7,3.8,2.1c2.1,0.6,4.3,1,6.5,1.5c0.4-2.2,0.9-4.4,1.1-6.6c0.1-1.3-0.2-2.6-0.3-4.1c9.1,8.3,9.1,8.3,13.9-2.5
		c4.9,10.7,4.9,10.7,13.7,2.7c-0.1,12.3-0.1,12.3,11.4,7.3c-1.2,2.3-2.2,4.1-3,5.9c-1.8,4.1-0.5,5.9,4.1,5.7
		C489.1,244.7,491.1,244.3,493.9,243.9z M460.8,245.6c-6.8,0.1-12.4,5.6-12.4,12.4c0,6.9,5.9,12.8,12.7,12.7
		c6.9-0.1,12.6-6.1,12.3-13C473.2,250.8,467.7,245.5,460.8,245.6z"/>
	<path d="M162.4,295.3c-13.4-0.1-24.2-10.9-24.2-24.1c0-13.3,11-24.2,24.3-24.1c13.3,0,24.2,10.9,24.2,24.2
		C186.7,284.5,175.7,295.4,162.4,295.3z"/>
	<path d="M232.8,303.4c-12.9,0.1-23.2-10.2-23.2-23c0-12.8,10.5-23.3,23.2-23.2c12.5,0.1,22.9,10.4,23.1,22.9
		C256,292.8,245.5,303.4,232.8,303.4z"/>
	<path d="M313.9,360.8c0.1,10.3-8.3,18.8-18.6,19c-10.3,0.2-19.2-8.6-19.1-19c0.1-10.3,8.6-18.7,18.9-18.8
		C305.3,342.1,313.9,350.6,313.9,360.8z"/>
	<path d="M105.7,349.9c9.4,0.1,17,7.9,16.9,17.3c-0.1,9.4-7.8,17-17.3,16.9c-9.6,0-17.5-8-17.2-17.5
		C88.4,357.1,96.2,349.8,105.7,349.9z"/>
	<path d="M89,460.1c4.8,0.8,9.1,1.4,13.9,2.2c0,10.9,0.2,22-0.1,33.1c-0.1,4-3.2,6.2-7.3,5.9c-4.1-0.3-6.4-2.8-6.5-6.9
		C88.9,483.2,89,471.9,89,460.1z"/>
	<path d="M397,424.3c27,0,54.1,0,81.5,0C474.2,428.9,402.9,429.8,397,424.3z"/>
	<path d="M369.5,228.1c-9,0.7-13.8,6.2-18.2,12.4c-6.9-3.3-13.8-5.6-21.4-2.3c2-5.7,5.3-7.9,11.4-6.2c6,1.7,10.1,1.3,14.4-3.7
		C359.8,223.6,363.8,224.1,369.5,228.1z"/>
	<path d="M410.9,246c-8.4,0.6-13.3,5.9-17.8,12.3c-6.9-2.8-13.8-6.1-21.4-2c1.3-4.5,2.5-5.9,6.4-6.6c1.7-0.3,3.9-0.6,5.4,0.1
		c5.7,2.6,9.7,1,13.9-3.5C401.6,241.6,405.8,242,410.9,246z"/>
	<path d="M443.5,402.5c9.1-0.5,18.2-0.4,27.2-1.6c15.9-2.2,31.8-5,47.6-8c4.6-0.9,9.1-3.1,13.3-5.4c7.3-4,7.4-8.1,1-13.2
		c-0.5-0.4-0.9-0.8-1.1-1.4c3.6,1.6,7.6,3.8,7.1,8c-0.3,2.9-3.1,6.8-5.7,7.8c-10.2,3.9-20.5,8.2-31.2,9.8c-18.4,2.8-37,3.7-55.6,5.3
		c-0.9,0.1-1.9-0.1-2.8-0.2C443.5,403.2,443.5,402.9,443.5,402.5z"/>
	<path d="M490.1,409.9c6.3-1,12.7-1.5,18.8-3c10.9-2.7,21.7-5.9,32.6-9c1.7-0.5,3.4-1.4,5-2.3c10.2-5.6,10.8-10.7,2.3-18.5
		c-0.3-0.3-0.5-0.8-0.8-1.3c7.1,0.7,11.4,9.2,7.4,14.8c-1.7,2.3-4.1,4.4-6.7,5.8c-18.1,10.1-38.1,12.7-58.2,15
		C490.3,411,490.2,410.5,490.1,409.9z"/>
	<path d="M84.4,371.1c4.9,5.9,8.4,10,11.8,14c-2.7,1.2-5.8,3-9.1,3.6c-1.8,0.3-5.1-1.1-5.7-2.6c-1.1-2.8-1.2-6.3-0.7-9.3
		C81.2,374.7,83.3,372.7,84.4,371.1z"/>
	<path d="M414.5,412.5c18.7,0,37.4,0,56.1,0c-18.6,2.6-37.3,2.7-56.1,2.1C414.5,413.9,414.5,413.2,414.5,412.5z"/>
	<path d="M397.5,414.3c-17.4-2.3-34.9-4.7-52.3-7c0.1-0.6,0.2-1.3,0.2-1.9c17.4,2.3,34.9,4.7,52.3,7
		C397.7,413.1,397.6,413.7,397.5,414.3z"/>
	<path d="M366.7,424.6c-10.9-1.8-20.8-3.5-30.7-5.2C339.9,416.1,364.3,420.5,366.7,424.6z"/>
	<path d="M524.5,364.4c13.8,0,27.5,0,41.3,0c0,0.4,0,0.7,0,1.1c-13.8,0-27.5,0-41.3,0C524.5,365.1,524.5,364.7,524.5,364.4z"/>
	<path d="M393.8,401c8.9,0.5,17.9,1,26.8,1.5c0,0.5-0.1,1-0.1,1.5c-8.9-0.5-17.8-1-26.8-1.5C393.8,402,393.8,401.5,393.8,401z"/>
	<path d="M337.6,390.2c9,2.5,18,4.9,26.9,7.4c-0.1,0.4-0.2,0.9-0.4,1.3c-9-2.5-17.9-5-26.9-7.4C337.4,391.1,337.5,390.6,337.6,390.2
		z"/>
	<path d="M333.4,389.8c-2.2-2.7-5.4-5.2-6.3-8.3c-0.6-2.2,2-5.2,3.1-7.9c0.4,0.2,0.8,0.4,1.2,0.5c-0.9,2.7-3,5.6-2.5,8
		c0.5,2.5,3.5,4.5,5.4,6.7C334.1,389.1,333.7,389.4,333.4,389.8z"/>
	<path d="M320.3,364.4c4.5,0,9,0,13.5,0c0,0.3,0,0.6,0.1,1c-4.5,0-9,0-13.5,0C320.3,365,320.3,364.7,320.3,364.4z"/>
</g>
</svg>
