<?xml version="1.0" encoding="utf-8"?>
<!-- Generator: Adobe Illustrator 19.0.0, SVG Export Plug-In . SVG Version: 6.00 Build 0)  -->
<svg version="1.1" id="Calque_1" xmlns="http://www.w3.org/2000/svg" xmlns:xlink="http://www.w3.org/1999/xlink" x="0px" y="0px"
	 viewBox="0 0 612 792" style="enable-background:new 0 0 612 792;" xml:space="preserve">
<g>
	<path d="M151,552c-10.3-3.8-14.3-11.2-14-22.1c0.4-18.3,0.1-36.6,0.1-55.3c1.4,0.5,2.5,0.9,3.6,1.1c7.3,1.8,13.6-3.4,12.8-11
		c-1.9-17.2-5.7-33.8-14.9-48.8c-1-1.7-1.4-4.1-1.4-6.1c-0.1-27.8-0.1-55.7-0.1-83.5c0-1.8,0-3.5,0-5.3c-0.5-0.2-1.1-0.4-1.6-0.5
		c-5.3,11.3-10.7,22.5-15.5,32.8c-6.8-3-13.5-5.9-20.6-9c8.7-20.7,16.5-43.3,38.7-56c3.6-2.1,8-2.6,12.1-3.6
		c1.7-0.4,3.7-0.1,5.5-0.1c24.4,0.3,48.9,1.3,72.5-7c1.5-0.5,3.3-0.5,4.9-0.9c5.3-1.5,9.2-0.7,13.5,3.9
		c11.7,12.2,31.4,12.6,44.5,1.5c2.7-2.3,4.8-2.6,8-1.4c11.9,4.4,22.5,10.7,31.6,19.5c5.5,5.4,6,12.4,1.2,17.3
		c-4.6,4.8-11.3,4.5-16.9-0.5c-2.7-2.4-5.6-4.7-8.5-7c-0.6-0.5-1.4-0.7-2.6-1.3c0.1,1.3-0.1,2.4,0.3,2.8c4.7,3.9,9.3,8.2,14.5,11.2
		c4.9,2.8,9.9,1,14.5-2.3c1.3-0.9,3.6-1.2,5.1-0.8c15.8,5,31.6,10.3,47.4,15.4c6.1,1.9,9.2,6.6,7.5,12c-1.7,5.4-7,8-12.8,5.9
		c-1.4-0.5-2.6-1.9-3.5-3.1c-8.2-12.7-21.8-17-35.7-11.4c-1.7,0.7-4.3,0.8-6,0.1c-9.6-4.1-19.1-8.6-29.2-13.2
		c1.8,9.4,3.5,18.5,5.3,27.7c2.8,14.4,5.8,28.7,8.3,43.1c0.4,2.4-0.5,5.5-1.9,7.6c-9.2,13.2-12.1,28.3-13.9,43.8
		c-0.3,2.9-0.6,5.9-0.9,9.1c-31.8,0-63.2,0-95.7,0c8.4-43.5,16.8-86.7,25.2-129.8c-0.4-0.2-0.9-0.5-1.3-0.7
		c-4.3,7.6-8.7,15.2-13.2,23.1c-0.2-1.2-0.5-2.4-0.5-3.5c0-8.2,0.3-16.4-0.2-24.5c-0.4-5.8,1.7-9.9,5.8-13.5c2.2-1.9,4.4-4,6.1-6.9
		c-4.2,1.1-8.6,1.9-12.7,3.4c-1.1,0.4-1.9,3.2-1.9,4.8c-0.1,29,0.6,58-0.4,87c-0.4,13.3-3.8,26.6-6,39.9c-1.3,7.7-2.9,15.3-4.5,23.4
		c3.6,0.2,6.9,0.4,10.6,0.6c0.1,2,0.2,3.8,0.2,5.6c0,21.3-0.3,42.7,0.1,64c0.2,10.9-3.4,18.8-13.9,22.7c-2.7,0-5.3,0-8,0
		c-10.5-3.9-14.1-11.7-14-22.6c0.3-39.5,0.1-78.9,0.1-118.4c0-1.9,0-3.9,0-5.8c-2.5,0-4.2,0-6.5,0c0,2.6,0,4.9,0,7.1
		c0,39-0.2,77.9,0.1,116.9c0.1,10.9-3.4,18.7-13.8,22.7C156.3,552,153.7,552,151,552z"/>
	<path d="M476,552c-1.3-3-2.6-5.9-4.2-9.6c-7.2-2.1-7.8-2.8-7.8-11.7c0-31,0-61.9,0-92.9c0-8.5,1.9-10.4,10.7-10.4
		c2.4,0,4.9,0,7.9,0c0-6.7-0.1-12.9,0-19c0.1-12.3,7-19.2,19.2-19.3c6.7,0,13.3-0.1,20,0c11.3,0.1,18.4,7,18.7,18.3
		c0.2,6.4,0,12.9,0,20c3.2,0,5.8,0,8.4,0c8.1,0,10.1,2,10.1,9.9c0,31.6,0,63.3,0,94.9c0,7.2-1.5,8.9-7.7,9.9c-1.6,3.6-3,6.8-4.4,9.9
		c-3,0-6,0-9,0c-1.3-3.1-2.7-6.2-4.1-9.7c-14.8,0-30.3,0-44.6,0c-1.7,3.7-3,6.7-4.3,9.7C482,552,479,552,476,552z M533.2,427.2
		c0-7.2,0.1-13.8,0-20.5c-0.1-6.2-4-10.2-10.4-10.4c-7.5-0.2-15-0.2-22.5,0c-5,0.1-9.4,2.6-9.9,7.5c-0.8,7.7-0.2,15.5-0.2,23.4
		C504.5,427.2,518.5,427.2,533.2,427.2z M475.7,476.9c24.1,0,47.8,0,71.9,0c-0.1-2.1-0.2-3.9-0.3-5.5c-24.2,0-47.7,0-71.6,0
		C475.7,473.3,475.7,474.9,475.7,476.9z"/>
	<path d="M413,552c-1-3-2-6-3.1-9.5c-8.1-2.5-8.3-2.7-8.3-12.6c0-30.2,0-60.3,0-90.5c0-10.7,1.3-12,12.1-12c2,0,3.9,0,6.4,0
		c0-6.8,0-13.1,0-19.4c0.1-11.5,7.2-18.8,18.7-18.9c7-0.1,14-0.1,21,0c10.9,0.1,18.2,7.3,18.3,18.2c0.1,5.5,0,11,0,16.9
		c-2.2,0-4.3,0-7.1,0c0-5.2,0-10.5,0-15.7c0-8.2-4-12.2-12.3-12.3c-6.5-0.1-13-0.1-19.5,0c-7.7,0.1-11.8,4.1-11.9,11.7
		c-0.1,5.8,0,11.7,0.1,17.5c0,0.5,0.3,0.9,0.6,1.9c11.5,0,23.1,0,34.7,0c-3.2,14.6-0.5,28.9-1.8,43.7c-15.7,0-31.4,0-47.4,0
		c0,2.3,0,4,0,6.4c15.8,0,31.5,0,47.7,0c0,8.4,0,16.2,0,24c0,9.7-0.1,19.3,0.1,29c0.1,3.7,0.7,7.5,1.2,11.7c-11.8,0-24.2,0-35.9,0
		c-1.3,3.8-2.4,6.9-3.5,10.1C419.7,552,416.3,552,413,552z"/>
	<path d="M337,552c-7.1-2.9-9.4-8.1-9.3-15.7c0.4-21.6,0.1-43.2,0.1-64.9c0-1.8,0-3.6,0-5.8c16.7,0,33.1,0,50.1,0c0,1.9,0,3.6,0,5.4
		c0,21.8-0.2,43.6,0.1,65.4c0.1,7.9-2.5,13.2-10.1,15.6c-1,0-2,0-3,0c-7.6-2.4-10.6-7.7-10.1-15.6c0.4-6,0.1-12,0.1-17.9
		c0-8.8,0-17.5,0-26.1c-4.2-1.5-4.2,0.8-4.2,3.4c0,13.5-0.2,26.9,0.1,40.4c0.2,7.7-2.2,13.2-9.9,15.8C339.7,552,338.3,552,337,552z"
		/>
	<path d="M182,212c1.5,0.6,3,1.3,4.5,1.8c15,5.3,24,20.5,21.3,36c-2.7,15.5-16.5,26.9-32.2,26.7c-15.4-0.2-28.8-11.3-31.4-26.3
		c-2.8-15.8,6.1-31.1,21.3-36.4c1.5-0.5,3-1.2,4.5-1.8C174,212,178,212,182,212z"/>
	<path d="M249,552c-8.2-3.6-10.8-10.1-10.7-18.8c0.3-22.8,0.1-45.6,0.1-68.3c0-1.5,0-3,0-4.9c9.6,0,19,0,28.7,0
		c0,16.3,0,32.4,0,48.5c0,8.1-0.4,16.3,0.1,24.4c0.6,8.7-2.3,15.1-10.2,19.1C254.3,552,251.7,552,249,552z"/>
	<path d="M282,552c-7.8-4-10.4-10.4-10.2-19.1c0.5-22.6,0.2-45.2,0.2-67.9c0-1.6,0-3.3,0-5.3c9.6,0,18.8,0,28.7,0c0,2,0,3.8,0,5.6
		c0,22.6-0.2,45.2,0.1,67.9c0.1,8.8-2.5,15.2-10.7,18.8C287.3,552,284.7,552,282,552z"/>
	<path d="M70.4,433.7c-2.1,8.9-4.3,17.9-6.4,26.8c-0.4,1.9-0.5,4-0.9,5.9c-0.9,4.9-3.9,7.3-8.2,6.6c-4-0.6-6.8-3.8-5.8-8.4
		c2.7-12.5,5.8-24.8,9.3-37.1c1-3.7,3.5-7.2,5.6-10.5c7.6-12,18.3-17.6,32.8-18.4c22-1.3,35.6,8.8,44.2,27.9c5.4,12.1,8.1,25,9.7,38
		c0.6,4.4-1.9,7.9-5.8,8.5c-4.3,0.7-7.4-1.7-8.4-6.5c-1.8-8.6-3.5-17.3-5.4-25.8c-0.6-2.7-1.9-5.2-3.4-7.6
		c1.6,12.8,3.3,25.5,4.8,38.3c0.4,3.5,0.2,7,0.7,10.5c0.6,4.6-1.4,7.2-5.6,8.7c-18.4,6.5-36.8,6.5-55.3,0.1
		c-4.4-1.5-6.3-4.2-5.7-9.1c1.8-14.2,3.3-28.4,4.9-42.6c0.2-1.6,0.4-3.2,0.7-4.8C71.6,434,71,433.9,70.4,433.7z"/>
	<path d="M378.1,461.7c-17.2,0-33.5,0-50.1,0c0-11.5,0-22.8,0-34.1c-0.4-0.1-0.8-0.2-1.2-0.2c-0.9,3.7-2.3,7.4-2.7,11.2
		c-1,11.3-1.8,22.6-2.3,33.8c-0.3,6.3-3,10.1-7.9,10.1c-4.9,0.1-7.9-3.7-8-9.9c-0.2-17.1,0.7-34,6-50.4c2.6-8,6.2-15.4,12.3-21.4
		c3.9-3.8,8.4-5.7,13.9-5.6c9.5,0.2,19,0.3,28.5,0c7-0.2,12.2,2.5,16.6,7.6c7.8,9,12,19.8,13.3,31.3c1.6,14.2,1.6,28.5,2,42.8
		c0.1,4.2-3.4,5.5-6.9,5.7c-4.3,0.2-7.6-3.4-7.8-8.1c-0.4-8.8-0.3-17.7-1.1-26.4c-0.6-6.9-2.3-13.7-3.5-20.5c-0.4,0-0.8,0.1-1.3,0.1
		C378.1,438.9,378.1,450.1,378.1,461.7z"/>
	<path d="M269.3,287.2c-17.2-0.2-30.6-13.8-30.5-30.9c0.1-17.2,13.7-30.6,30.9-30.5c17.3,0.1,30.8,13.9,30.5,31.5
		C300,273.9,286.2,287.3,269.3,287.2z"/>
	<path d="M352.7,338.9c14-0.1,25.3,11,25.3,24.8c0,13.8-11.1,25.1-24.9,25.3c-13.9,0.1-25.1-11-25.2-24.9
		C327.8,350,338.7,338.9,352.7,338.9z"/>
	<path d="M77,372.1c-0.1-12.7,10-22.9,22.6-23.1c12.8-0.1,23.3,10.3,23.3,23c0,12.4-10.5,22.9-23,22.9C87.3,394.9,77,384.7,77,372.1
		z"/>
	<path d="M121.7,496.1c0,15.6,0.2,30.9-0.1,46.2c-0.1,5.5-4.2,9-9.4,8.9c-5.3-0.1-9.1-3.9-9.2-9.7c-0.1-13.9,0-27.9,0-42.4
		C109.1,498.2,115,497.2,121.7,496.1z"/>
	<path d="M78,496.1c6.5,1.1,12.4,2,18.6,3c0,14.7,0.2,29.1-0.1,43.6c-0.1,5.2-4.3,8.5-9.3,8.5c-5-0.1-9-3.6-9.1-8.7
		C77.9,527.2,78,511.9,78,496.1z"/>
	<path d="M87.5,396.2c-3.5,1.5-8,3.6-12.5,5.3c-1,0.4-2.6-0.2-3.7-0.7c-6.8-3.5-8.1-12.6-2.6-18.1c1.7-1.7,3.8-3.1,4.7-3.8
		C78.3,385,83,390.7,87.5,396.2z"/>
</g>
</svg>
