<?xml version="1.0" encoding="utf-8"?>
<!-- Generator: Adobe Illustrator 19.0.0, SVG Export Plug-In . SVG Version: 6.00 Build 0)  -->
<svg version="1.1" id="Calque_1" xmlns="http://www.w3.org/2000/svg" xmlns:xlink="http://www.w3.org/1999/xlink" x="0px" y="0px"
	 viewBox="0 0 612 792" style="enable-background:new 0 0 612 792;" xml:space="preserve">
<style type="text/css">
	.st0{fill:#4DCFDF;}
	.st1{fill:#FD5252;}
	.st2{fill:#4DCEDF;}
	.st3{fill:#FD6C67;}
	.st4{fill:#FD6965;}
	.st5{fill:#FD6662;}
	.st6{fill:#ECECEC;}
	.st7{fill:#38474F;}
	.st8{fill:#FD5E5C;}
	.st9{fill:#EDEDED;}
	.st10{fill:#DEDEDE;}
	.st11{fill:#3A4850;}
	.st12{fill:#FEFDFD;}
	.st13{fill:#FDFDFD;}
	.st14{fill:#FD5655;}
	.st15{fill:#F9FDFD;}
	.st16{fill:#F6F9FA;}
	.st17{fill:#FEFBFB;}
	.st18{fill:#EAE9E9;}
	.st19{fill:#455A63;}
	.st20{fill:#F9BF2D;}
	.st21{fill:#455963;}
	.st22{fill:#42565E;}
	.st23{fill:#39484F;}
	.st24{fill:#F8BE2E;}
	.st25{fill:#F7BF35;}
	.st26{fill:#4F5A58;}
	.st27{fill:#F4BC31;}
	.st28{fill:#D3A733;}
	.st29{fill:#C8CBCC;}
	.st30{fill:#D1A533;}
	.st31{fill:#CAA135;}
	.st32{fill:#435760;}
	.st33{fill:#DFDFDF;}
	.st34{fill:#F8BE2D;}
	.st35{fill:#435259;}
	.st36{fill:#455962;}
	.st37{fill:#4F5D63;}
	.st38{fill:#F9BE2D;}
	.st39{fill:#3D4B4E;}
	.st40{fill:#3E4E53;}
	.st41{fill:#F7BD2D;}
	.st42{fill:#FABF2D;}
	.st43{fill:#F4BB2D;}
	.st44{fill:#F0BA30;}
	.st45{fill:#455861;}
	.st46{fill:#3A4950;}
	.st47{fill:#EAEBEA;}
	.st48{fill:#F9BF2E;}
	.st49{fill:#E9E9E9;}
	.st50{fill:#5A6253;}
	.st51{fill:#535749;}
	.st52{fill:#D0A534;}
</style>
<g>
	<path class="st0" d="M460,227.3c1.5-0.3,2.5,0.7,3.5,1.6c31.9,29.9,53.5,65.9,64,108.5c5,20.3,7.1,41,5.9,61.9
		c-2,36.1-12,70-31.1,100.9c-30.7,49.7-74.4,82.2-130.8,97.2c-17.6,4.7-35.5,7.1-53.7,6.8c-0.4-0.4-0.5-0.9-0.3-1.4
		c12.2-14.3,24.3-28.7,35.9-43.5c35.2-45.2,67.2-92.4,91.9-144.2c13.7-28.8,24.5-58.6,29.3-90.4c4.8-31.9-0.1-62.3-13-91.6
		C460.6,231.1,459.3,229.4,460,227.3z"/>
	<path class="st1" d="M460,227.3c13.4,26.8,19.4,55.2,17,85.1c-2.1,27.4-9.8,53.6-20.1,79c-20.9,51.4-50.3,97.8-82.8,142.5
		c-15.8,21.7-32.5,42.7-50,63c-2,2.4-3.8,5.1-6.6,6.7c-2.3-2.5-1.6-5.6-1.6-8.6c0-45.9,0-91.8,0-137.7c0-1.7,0-3.3,0-5
		c-0.1-5.6-0.5-5.7-5.8-6.5c-7.2-1-14.6-0.7-21.6-3.4c-3.8-3.2,1-4.9,1.4-7.7c-3,1.7-4.6,5.1-8,5.7c-6.8,0.8-12.3-3-18.3-4.9
		c-12.3-5.7-24.2-11.8-34.8-20.3c-5.4-4.3-11.4-8.1-14.8-14.6c0.1-2.8,2.5-4.1,4-6c2.4-2.2,4.4-4.8,7.9-5.2c2.8,0.1,4.3,2.3,6.1,4
		c19.4,18.1,42.3,28.7,68.5,32.2c4.4,1.2,5.3,5.5,7.8,8.5c0.9,1.1,1.3,3.1,3.2,2.4c1.7-0.6,2.4-2.2,2.6-3.9c0.2-1.8-1.1-4.1,1.4-5.3
		c10.6-0.9,21.2-1.5,31.6-4c3.2-0.8,6.2-2.5,9.7-1.8c1.9,0.8,1.9,2.6,2,4.2c0.1,1.9,0.7,3.2,3,3c1.1-0.1,2.1,0.3,2.3,1.4
		c0.8,4.7,3.7,3.1,6.4,2.2c21.1-7.7,38.8-20.6,53.6-37.3c18.9-21.2,30.8-45.9,34.6-74.1c5.6-41.5-4.6-78.9-31.1-111.6
		c-8.9-11-19.5-20-31-28c-1.7-1.2-3.4-2.6-5.6-3.1c-1-0.3-1.8-0.8-2.5-1.5c-13.5-8.6-28.3-13.8-44.1-16c-4.8-0.7-6.2,0.9-6.4,5.8
		c-0.1,2.3,0.3,4.7-1,6.8c-1.9,1.5-4.1,1.3-6.2,1c-34.2-3.6-64.9,5.4-91.6,26.6c-26.7,21.2-42.5,49.1-47.1,83.1
		c-0.2,1.5-0.1,3-1.1,4.3c-1.7,1.3-3.5,0.6-5.2,0.1c-3.3-1-6.7-1.7-10-2.6c-5.8-1.5-11.5-3.6-17.4-0.8c-1.3-2-1.1-4.2-0.8-6.3
		c2.1-15.2,6.1-29.9,12.4-44c1.3-2.9,2.4-5.9,5.2-7.8c7.3-13.4,15.5-26.2,26.6-36.9c2.2,2.2,2.2,2.4,0.5,5.5
		c-1.4,2.6-3.1,5.1-3.1,8.3c0,1.4-0.5,3.3,1.2,3.9c1.4,0.5,2.5-0.5,3.5-1.4c5.1-4.7,10.6-9.1,15.8-13.7
		c22.3-19.9,48.2-32.2,77.8-36.5c4.6-0.7,9.2-1.3,13.9-1.3c4,0,5.1-1.7,5.1-5.5c-0.1-3.1-1-6.4,1.3-9.1c36-0.1,68.3,11,97,32.6
		C433.8,187.6,448.7,205.9,460,227.3z"/>
	<path class="st2" d="M174.9,227.1c-9.4,18.7-15.2,38.3-17,59.2c0.6,0.7,0.8,1.5,0.9,2.4c0.3,6.4,0.3,12.8,0,19.1
		c-0.3,2.7-2.1,4.4-3.9,6.2c-4.7,4.7-9.4,9.4-14.1,14.1c-1.1,1.1-2.7,2.1-2.9,4.1c1.7,0.4,2.3-0.9,3.2-1.7c4.5-4.4,8.9-9,13.5-13.3
		c1.2-1.1,2.6-3.6,4.8-1c2.5,21.5,7.7,42.4,15.2,62.7c0.3,0.9,0.5,1.9,0.4,2.9c-1.4,2.4-3.8,1.8-5.8,1.4c-3.8-0.8-7.6-0.4-11.4-0.9
		c-2.2-0.3-4.2,0.5-4.9,2.5c-0.9,2.5,1.6,2.9,3.1,3.7c7.8,4.4,15.4,9,23.3,13.3c2.4,1.4,5,2.6,6.7,5.1c1,2.3-0.6,3.7-1.9,5.2
		c-1.5,1.7-3.5,3.1-4.4,5.8c3.5-0.7,4.5-5.3,8.3-4.8c1.4,0.8,2,2.2,2.6,3.6c10.5,22.7,23.2,44.2,36.5,65.4
		c8.7,13.8,17.7,27.4,27.3,40.6c19,26.5,39,52.3,60.6,76.7c1.2,1.4,2.5,2.7,2.1,4.8c-32.3,0.2-63.1-6.6-92.1-20.9
		c-60.2-29.6-100-76.7-116.4-141.8c-17.7-70.4-2.4-134.4,42.8-191.1c6-7.6,12.9-14.4,19.9-21C172.3,228.3,173.2,227,174.9,227.1z"/>
	<path class="st3" d="M316.9,604.1c-12.5-15-25.2-29.6-37.1-45.1c-9-11.7-18.2-23.3-26.4-35.7c2.4-3.6,5.6-6.6,7.7-11.1
		c-2.5,0.6-5.1,1.8-6.8-0.7c-1.6-2.4-0.7-4.8,0.1-7.2c1.3-4.1,4.1-7.5,6.4-11.4c-6.8,0.4-8.3-1.5-6.8-7.8c1.2-4.9,4.8-8.3,7-12.6
		c-6.9,1.3-9-1.3-6.7-8.1c1.5-4.3,4.4-7.8,6.6-11.7c-7,1.1-9.2-1.6-6.5-8.3c1.7-4.3,2.8-9.6,9-10c6.4,1.3,11.9,5.8,18.9,5
		c0.9,2.5-1.3,3.5-2.5,4.8c-4.9,5.1-10.1,10-14.6,15.5c5.9-5.1,11.4-10.7,17-16.2c1.4-1.4,2.6-3.6,5.2-3.1c3.3,2.9,7.6,1.8,11.4,2.7
		c4.5,1,9.2,1.2,13.8,1.2c3.7-0.1,4.9,1.1,4.8,4.8c-0.2,21.8-0.1,43.7-0.1,65.5c0,29.7,0,59.3,0,89c0,0.2,0.1,0.5,0.1,0.7
		c0,0-0.4,0-0.4,0L316.9,604.1z"/>
	<path class="st4" d="M317.5,140.4c0,0.7,0,1.3,0,2c0,14-0.1,13.8-14,14.9c-26.6,1.9-50.3,11.6-71.6,27.2
		c-9.5,7-18.3,14.8-26.9,22.8c-1.2,1.2-2.5,2.2-4.2,2.7c-2,0.6-3.2,0-3.3-2.3c-0.3-4.3,0.2-8.2,2.9-11.8c1.1-1.6,3.3-3.2,1.1-5.6
		c15.1-17,33.7-29.1,54.4-37.8C275.5,144.2,296.1,139.8,317.5,140.4z"/>
	<path class="st3" d="M389.5,176.3c0.4,0.8,1.2,1,2,1c1.4,1.5,2.8,3,5,3c11.8,7.3,21.8,16.6,30.9,27.2
		c12.8,14.8,21.9,31.7,27.7,50.2c5.1,16.2,7.3,33,6.3,50.1c-1.8,29.9-11.6,57.1-30.1,80.8c-16.4,21-36.7,36.8-62.1,45.7
		c-2.7,0.9-7.3,3.9-5.9-3.3c0.1-0.7-0.5-1.5-1.1-1.2c-7.3,3.1-3.9-3-4.7-5.5c-0.2-0.6,0-1.3,0-2c0.1-2.3,2.1-2.4,3.5-2.9
		c27.1-10.2,48.3-27.6,63.9-52c10.4-16.2,16.4-34,18.5-53.2c3.7-34.3-5.4-65-26.3-92.1c-7.4-9.6-16.1-18.2-26.3-25.1
		c-1.9-1.3-4.1-2.3-5-4.7c-0.7-2.6,1.2-4.3,2.4-6.8c-2.3-0.4-5.6,1.9-6.5-1.9c-0.6-2.5-0.8-5,1.1-7
		C384.8,174.5,387.2,174.9,389.5,176.3z"/>
	<path class="st5" d="M263.5,434.2c-5.5,2.9-7.5,8.1-8.9,13.6c-0.9,3.6,1.1,4.9,4.6,3.5c1.2-0.5,2.4-1.1,3.8-1.7
		c1,2.6-1.1,3.8-2,5.3c-2.2,3.5-4.7,6.8-5.9,10.9c-0.5,2-1.3,4,0.5,5.6c1.8,1.6,3.4-0.2,5-0.8c0.8-0.3,1.5-0.6,2.7-1.1
		c-0.2,3.9-2.9,6.1-4.6,8.7c-1.7,2.7-3.3,5.3-3.9,8.5c-0.3,1.7-0.7,3.4,0.7,4.7c1.4,1.3,2.8,0.3,4.1-0.3c1-0.4,2.2-1.5,3.2-0.4
		c1.1,1.2-0.5,2-1.1,2.9c-2.1,3.7-5.1,7-6.3,11.2c-0.6,2.2-2,4.6,0.2,6.5c1.9,1.7,3.7-0.4,5.5-1c0.6-0.2,1.2-0.4,3.2-1.1
		c-3.5,5.8-5.4,11.2-10.9,14c-8.2-10.1-15.1-21.2-22.1-32.1c-16.3-25.1-31.2-50.9-43.9-78c-0.2-1.6,0.7-2.2,2.1-2.5
		c1.4,0.1,2.1,1.2,2.9,2.1c5.5,8.9,10.6,18.1,15.7,27.3c1,1.7,1.5,4.9,4.1,4.3c3.1-0.7,3.1-3.9,3.1-6.6c0-0.7-0.1-1.3-0.1-2
		c-1.3-8.8-2-17.7-2.8-26.5c-0.3-3.1-2-6.9,2.2-9.1c8.2,10.1,18.7,17.3,29.7,23.8C250.5,427.7,257.1,430.9,263.5,434.2z"/>
	<path class="st6" d="M157.8,287.3c0.1-0.3,0.1-0.6,0.2-1c3.5-4.9,7.9-4.6,13-3c6.3,2,12.8,3.3,19.3,4.8c0.4-0.3,0.9-0.4,1.4-0.4
		c3.1,0.4,6.2,1.1,9.1,2.1c5.2,1.9,9.2,0.8,12.5-3.6c0.8-1,1.8-1.9,2.7-2.8c2.5-2.7,5.4-4.1,9.2-2.9c3.2,1.8,5.5,4.4,7.1,7.8
		c1.1,3.1-0.2,5.5-2,7.8c1.3,3.2,4.8,1.9,6.9,3.2c2,0.9,3-0.9,4.3-1.8c2.7-1.8,4.8-4.3,7.2-6.6c1.4-1.4,2.9-2.7,5-2.6
		c2.1,0.1,3.8,1.1,5.4,2.4c2.7,2.5,4.9,5.2,4.3,9.2c-0.1,0.6-0.3,1.3-0.7,1.8c-2.4,2.6-1.3,3.8,1.6,4.5c1.3,0.3,2.5,0.8,3.3,1.9
		c0.3,1.1-0.1,2-0.8,2.7c-8.4,9.6-17.6,18.5-26.1,27.9c-0.6,0.6-1.4,0.9-2.3,0.8c-11.2-6.2-21.7-13.7-32.6-20.4
		c-3.8-2.4-7.7-4.7-11.4-7.2c-1.5-1.1-3-2.2-4.6-3.1c-9.4-5.7-18.5-11.8-27.9-17.6C160.3,290.3,158.4,289.4,157.8,287.3z"/>
	<path class="st7" d="M191.4,288.3c-0.4-0.1-0.7-0.1-1.1-0.2c2.9-48.6,39.3-94.1,88.1-109.7c17-5.4,34.4-7.5,52.2-5.4
		c2,0.2,4,0.2,6,0.3c1.8-1,3.6-0.3,5.3,0c14.4,2.6,27.7,8,40.4,15c1.8,1,3.3,2.2,4.2,4.1c32,21.4,52.2,50.8,57.5,88.9
		c6.6,47.5-9.2,87.1-45.7,118.2c-12,10.3-26.1,17.1-40.7,22.7c-14,3.8-28.2,6.5-42.8,6.1c-0.8-0.6-1-1.4-1-2.3
		c0.3-2.2,1.9-2.7,3.8-3c11.9,0,23.5-1.8,34.8-5.1c3.4-1,6.2-2.4,8.8-5c2.8-2.7,7.2-3.4,10.6-5.7c3.6,0.7,6.7-0.3,9.8-2.3
		c33.7-21.6,53.2-52.1,57.8-92c0.6-5.1,1.3-10.1,0.4-15.7c-3.7,2.1-5.8,4.8-6.2,8.7c-0.2,1.5-0.7,3.1-2.4,3.4
		c-1.6,0.2-2.3-1.1-2.7-2.4c-0.5-2.4-0.5-4.7,0.1-7c1.5-3.3,4.4-5.4,6.9-7.8c3.1-2.9,4-6.1,3.4-10.3c-3.8-24.7-14.3-46.2-31-64.6
		c-2.9-3.2-6.1-6.9-11.5-5.9c-0.8,0.1-1.5-0.6-2.1-1.2c-0.5-0.5-1-1.1-1.3-1.8c-0.6-3.1-1.8-5.9-4.6-7.8
		c-16.5-12.4-35.2-19.2-55.6-21.9c-5.1-0.7-10.2-1.3-15.4-1c-17.7-0.1-34.5,3.7-50.6,11c-2.5,1.2-5.2,2-7.2,4c-0.9,1-1,2.4-1.5,3.6
		c-0.2,0.4-0.5,0.8-0.8,1.1c-5.3,1.8-6.8,6.2-7.7,11.1c-1.1,0.9-2.3,1-3.5,0.6c-0.5-0.2-0.9-0.5-1.2-0.9c-2.1-3.9-4.9-2.6-7.6-0.8
		c-4.2,2.8-7.6,6.6-10.8,10.3c-10.9,12.6-19.9,26.3-24.7,42.5c-3.5,7.6-4.5,15.9-6,24C195.4,286.5,195.1,289.3,191.4,288.3z"/>
	<path class="st6" d="M314.3,426.6c0.1,0.6,0.2,1.1,0.3,1.7c1,3.6,1.5,6.9-2.2,9.6c-1.8,1.3-2.6,1.3-3.8-0.5
		c-2.5-3.8-4.3-8.2-7.9-11.2c-1.8-0.6-2.4-2.2-3.3-3.6c-4.7-8.4-10-16.5-15.3-24.5c-0.8-1.2-1.5-2.9-3.4-1.6c-1.5,1-3.1,2.1-1,4.3
		c1.1,1.1,0.9,2.8-0.4,4c-3.4,1.1-5.8-0.8-8.1-2.9c-1.4-3.5,1.4-5.4,3.4-6.8c4.2-3,4.8-6,1.5-9.9c-0.4-0.5-0.5-1.2-0.6-1.9
		c-0.1-1.8,0.9-3.1,2.1-4.3c5.7-5.8,11.4-11.6,17.2-17.2c1.1-1,2.2-2.1,3.9-1.8c2.7,1.5,1.4,5.4,3.6,6.7c2.4,1.5,4-2.4,6.7-1.9
		c4.7,0.9,7.6,3.9,9.6,7.9c1.7,3.5-0.3,6-2.6,8.3c-9.7,10-8.8,5.9-5.3,20.6c1.4,5.6,2.6,11.3,4.5,16.8
		C314.3,421.1,314,423.9,314.3,426.6z"/>
	<path class="st8" d="M386.5,192.3c-15.3-9.8-32.2-15.6-50-19c0-2.3,0-4.6,0-7c0-6.4,1-7.7,7.2-7c16.3,1.9,31.3,7.7,45.3,16.1
		c0.2,0.1,0.3,0.6,0.5,0.8c-2,0.2-4.2-0.7-5.8,0.7c-2.1,1.9-1.6,4.9-0.8,7c0.8,2.1,2.8,0.1,4.3-0.2c0.9-0.2,1.5-1.4,2.9-1
		C391.5,186.9,385.7,188.5,386.5,192.3z"/>
	<path class="st9" d="M191.5,413.3c-0.7-0.7-1.3-1.5-2-2.2c-0.4-2.4,1.5-3.5,2.9-4.9c7.1-7.2,14.3-14.4,21.5-21.5
		c1.5-1.5,2.9-4,5.2-3.3c2.2,0.7,1.3,3.5,1.7,5.3c0.1,0.3,0.2,0.6,0.8,1.1c2.3-0.6,3.9-2.7,5.4-4.4c11.6-13.1,24.3-25,37-37.1
		c16.5-15.7,32.4-32.1,48.4-48.3c4.5-4.6,9.8-8.6,13.2-14.2c0.8-1.7,0.3-3.7,1.4-5.3c2.6-0.5,3.5,2.4,5.7,2.8
		c0.5,2.7-0.6,4.8-2.4,6.6c-2.6,1.5-4.8,3.5-6.9,5.6c-12,12-23.9,24-36,35.9c-4.6,4.6-8.8,9.5-12.9,14.5c-5,5.7-10.2,11.3-16.3,16
		c-1.6,1.2-3,2.7-4.4,4.2c-7.8,8.4-16.9,15.3-24.7,23.7c-1,1-2.1,1.9-3.6,1.9c-2.2,1.9-4.5,3.9-6.7,5.8c-2.3,0.7-4.3,2.3-5.5,4.1
		c-4.7,7.3-11.8,10.3-19.7,12.4C193,412.4,192.3,413,191.5,413.3z"/>
	<path class="st10" d="M192.5,411.3c2.6-0.9,5.2-1.9,7.8-2.8c4-1.4,7.3-3.5,9.8-7.1c2.1-2.9,4.8-5.5,8.7-6c-1.5,1.6-2.9,3.2-4.4,4.8
		c-2.1,3.4-0.9,7-0.6,10.5c0.7,8.9,1.6,17.7,2.4,26.6c-1.6,0.2-2.3-1.2-3.2-2.1c-5.7-5.8-11.6-11.4-17.2-17.3
		C194.3,416,191.6,414.5,192.5,411.3z"/>
	<path class="st11" d="M225.6,389.6c0.9-0.8,1.8-1.7,2.7-2.5c2-0.7,3.1,0.9,4.2,1.9c10,9.1,20.9,16.9,33.3,22.5
		c1.9,1.4,4,2.3,6.2,3.1c6.6,2.7,6.6,2.7,9.9-2.8c1.5,0.1,2.8,0.9,3,2.2c0.9,5.3,5.1,5.7,9.1,6.5c1.6,0.3,3.3,0.4,4.5,1.6
		c0.6,1.4,2.4,2.1,2.3,3.9c-4.8,1.8-9.2-0.6-13.7-1.6C263.2,419,243,406.7,225.6,389.6z"/>
	<path class="st12" d="M287.5,440.3c-6.7,6.6-13.4,13.2-20.2,19.8c-0.9,0.8-1.5,2.9-3.5,1.1c-2.1-1.9-0.2-2.8,0.9-3.9
		c5.9-6.1,11.8-12.1,17.7-18.1c2.1-2,4.3-4.1,6.4-6.1c0.9-0.8,1.7-1.5,2.9-0.4c1.4,1.2,0.8,2.2-0.2,3.3
		C290.2,437.4,288.9,438.8,287.5,440.3z"/>
	<path class="st8" d="M396.5,180.3c-3.3,1.7-4.3-0.3-5-3C393.6,177.5,395,179,396.5,180.3z"/>
	<path class="st13" d="M326.5,284.2c-0.1,1.9-1.4,2.9-2.6,4.1c-19.9,19.9-39.5,40.1-59.9,59.6c-10.1,9.7-19.9,19.6-30,29.3
		c-3.2,3.1-6,6.6-9,9.9c-1.2,1.4-2.8,3.2-4.5,2.5c-2.1-0.8-0.7-3.2-1-4.9c-0.1-0.8,0-1.6,0-2.5c-10.1,9.7-20,19.2-30,28.8
		c-0.7,0.7-1.4,1.4-2.2,2.1c-1.7,1.6-3.3,3.2-5.1,4.7c-1.3,1.1-2.7,3.5-4.4,1.6c-1.5-1.6,0.6-3.3,1.8-4.6c1.4-1.6,3-3.1,4.5-4.6
		c0.9-0.8,1.5-1.7,1.4-3c5.4-4.2,10.1-9.2,14.9-14c38.2-38.2,76.3-76.3,114.5-114.5c-39.7,39.7-79.4,79.4-119.1,119
		c-1.2,1.2-2.3,2.4-3.5,3.5c-1.3,1.2-2.6,3.2-4.6,1.8c-1.8-1.3-0.8-3.4-0.1-5.1c1.9-5.2,4.7-9.9,7.9-14.4c4.1-5.5,9.8-9.6,14-15
		c0.8-1.1,1.7-2.2,2.6-3.2c7.8-7.1,14.3-15.5,21.9-22.9c1.4-1.4,2.5-3.1,4.7-3.4c9.6-10.3,19.2-20.6,28.9-30.9
		c0.2-1.8,1.7-2.8,2.7-4.1c9-9.8,18.4-19.3,27.7-28.8c6.9-7.1,14.9-11.7,24.5-13.4c3.9-0.1,7.9-1,11.3,1.8c1.7,2.2,2,4.7,2.1,7.3
		c-0.5,3.6-0.1,7.5-3.6,10.1c-3.6,2.2-3.6-1.2-4.6-3c-0.8-0.2-1.3-0.9-2.5-1.2C325.3,279.6,327.6,281.7,326.5,284.2z"/>
	<path class="st14" d="M210.1,369.5c-4.5,4.9-9,9.9-13.6,14.8c-7.7,2.3-15.1,1.3-22.2-2.2c-8-21.7-14.2-43.8-16.3-66.9
		c0-1.9,1.4-2.9,2.5-4.1c1-1.1,2.3-1.9,2.7-3.9c-2.3-0.4-3.3,2.8-5.6,2c0-7.3,0.1-14.7,0.1-22c10.8,6.9,21.6,13.9,32.4,20.8
		c2.3,4.3,1.6,9.1,2.4,13.6c2.7,15.2,8.1,29.4,15.7,42.8C209.2,366,210.2,367.6,210.1,369.5z"/>
	<path class="st6" d="M174.3,382.2c7.4,1,14.8,2,22.2,2.2c-3.9,5.6-7.7,11.3-8.9,18.2c0.4,0.3,0.8,0.6,1.3,0.9
		c42.8-42.8,85.5-85.5,128.4-128.4c1.6,2.3-0.1,3-0.9,3.8c-42,42.1-84.1,84.1-126.1,126.2c-1.3,1.3-2.7,2.5-4.7,2.3
		c-9.9-6.7-20.6-12-30.8-18.2c-1.6-1-5.5-1.3-4.2-4.1c1.3-2.6,3.5-5.3,7.9-4.3C163.6,381.9,169,381.8,174.3,382.2z"/>
	<path class="st15" d="M112.8,337.2c-1.1,0.1-1.7-0.5-2.2-1.2c-1.3-1.6,0.4-2.4,1.2-3.2c8.6-8.6,17.2-17.2,25.8-25.8
		c2.4-2.4,4.7-4.7,7.1-7.1c0.9-0.9,1.7-1.5,2.9-0.3c0.9,1,1.4,1.8,0.3,3c-11.3,11.3-22.6,22.6-33.9,33.9
		C113.5,336.8,113,337,112.8,337.2z"/>
	<path class="st16" d="M157.6,309.2c1.4-1.2,2.8-2.4,4-3.7c1-1,1.8-1.3,2.9-0.1c1,1.1,1.1,1.9,0,3c-2.2,2.2-4.4,4.6-6.6,6.8
		c-5.9,5.8-11.8,11.7-17.7,17.4c-1,1-1.9,3.2-3.9,1.1c-2-2,0-2.9,1.1-4C144.2,322.9,150.9,316.1,157.6,309.2z"/>
	<path class="st17" d="M262.3,487.5c-0.7-0.7-1.4-1.1-1.9-1.7c-1-1.1,0.1-1.8,0.7-2.4c3.9-3.9,7.7-7.8,11.6-11.6
		c7.2-7.2,14.3-14.3,21.5-21.5c0.9-0.9,1.6-2.3,3.2-0.8c1.6,1.5,0.9,2.5-0.3,3.7c-10.9,10.9-21.8,21.8-32.8,32.7
		C263.7,486.4,263.1,486.9,262.3,487.5z"/>
	<path class="st18" d="M192.5,411.3c0,2.3,1.9,3.3,3.3,4.7c6.8,7.2,14.3,13.5,20.5,21.2c0.1,1.3,0.4,2.6,0.3,4
		c-0.1,3.1-2.5,4.9-4.7,5.8c-2.1,0.9-2.5-2.2-3.3-3.6c-5.8-10-11.5-20.1-17.2-30.1C191.5,412.5,191.7,411.7,192.5,411.3z"/>
	<path class="st19" d="M321.5,263.2c-11.1,2.7-19.6,9.1-27.2,17.4c-7.7,8.4-15.9,16.5-23.8,24.7c-4.6,1.4-6.1-1.9-7.7-5.1
		c0.3-3.9-2.6-6-4.6-8.7c0.3-1.2,0.9-1.9,1.5-1.9c-1.7,0.5-4-1.2-6.3-0.4c-3.7,0.6-5.2,3.9-7.7,6c-1.4,1.1-2.3,2.8-4.1,3.5
		c-5.1-2.2-5.1-2.2-5.7-10.8c-1.5-0.3-2.8,2-4.4,0.6c-2.1-2.2-4.2-4.5-6.3-6.7c-2.8-4.7,1.5-6.5,3.7-9c1.8-2.1,4.1-1.6,6.4-0.4
		c0.5,0.3,0.7,1.6,2.1,0.3c2.8-2.6,5.4-1.3,7.4,1.6c0.2,0.6,0.2,1.3-0.1,1.9c-0.7,1.4-0.1,2.3,1.3,2.5c2.3,0.2,1.6-1.5,1.5-2.7
		c0.1-0.7-0.4,0,0-0.5c4.4-6.3,6.7-14.1,13.8-18.2c2.5-1.4,1.8-4.1,3.3-5.8c0.5-0.9,1.8-1.8,1.5-2.5c-2.7-6.4,3.4-6.8,6.4-8.8
		c2.2-1.5,4.5-2.3,3.4-5.5c-1.1-3.2-3.3-5.7-6.6-6.8c-1.4-0.5-3.5,2-4.4-0.2c-1-2.5-4.1-4.1-3.3-7.4c1.4-1.1,3.1-0.9,4.7-1.1
		c1.4-0.1,3,0.3,4-0.3c-0.1-6.7-0.9-13-8.2-15.5c-1.6-2.3-5-3.4-4.6-6.9l0,0.1c1.5-1.1,2.5-2.3,1-4.2c1.7-2.3,4.3-3.1,6.9-3.8
		c2.5,4.8,6,7.8,11.8,6.7c2.9,0,7,0,7.3,2.8c0.5,4.2,4,8.5,0.7,12.7c-2,2.5-1.2,3.8,0.5,6.2c2.4,3.4,4.8,6.6,8,9.3
		c2.7-8.9,12.7-9.9,17.7-16.3c0.3-0.4,0.4-0.8,0-1.3c-3-4.1-3-4.5,1.4-5.2c4.2-0.7,4.9-4.3,5-6.9c0.1-2.6,0.6-5.8-1.4-8.3
		c-0.4-2.5,0.4-4.6,1.7-6.8c0.4-0.7-2.8-2.7-0.8-4.8c25.1-0.1,48,7,68.9,20.8c1.4,0.9,2.7,1.9,3.4,3.5c1.5,2.4,0.8,6,4,7.6
		c0.3,0.2,0.6,0.5,0.9,0.7c0.8,4.8-4.3,3.9-6,6.2c-3.7,1.4-7.5,2.4-10.2,5.6c-0.9,1-2.8,0.8-4.3,0.4c-2.2-0.5-4.3-1.8-4.3-4.2
		c0-2.2,2.4-1.7,3.9-2.1c0.5-0.1,1-0.1,1.1-1.1c-3.6-0.2-6.8-1.5-10-3.4c-5.6-3.2-11.8-0.7-14.3,5.2c-1,2.2-2.7,3.8-4.3,5.4
		c-1.5,1.6-2.9,3.2-3.1,5.5c-0.1,0.6-0.4,1.8,0.2,1.7c5.1-0.4,4.4,5.7,8,7c1.2,1.6,3.5,1.4,4.7,3.1c-2,4.8-6.1,3.5-9.2,2.4
		c-2.9-1.1-3.4-0.4-3.8,2c-0.6,3.6-2.7,6-6.5,6.5c-1.8,0.2-2.7,0.5-2.1,2.7c0.9,3.1-0.3,5.2-3.8,5.5
		C326.5,257.8,324.8,261.7,321.5,263.2z"/>
	<path class="st20" d="M244.8,275.2c-2.4-1.6-4.5-6.3-7.7-0.6c-0.5,0.9-1.5-0.7-2.2-1.1c-2.3-1.4-3.9-2.9-5.8,1.3
		c-1,2.1-4.5,3.3-3.7,6.8c-3.5-1.6-6.1,0-8.4,2.5c-3.6-1.9-5.9-5.4-9-8c-1.2-3.1,0.4-5.9,1.3-8.7c5.8-18.8,15.6-35.2,29.8-48.8
		c1.4-1.4,2.9-4.7,5.8-1.5c-0.1,0.7-0.5,1.2-0.8,1.8c-1,1.7-4,3.9-3.7,4.1c3.2,2,2.2,7.4,6.9,8c3.2,0.4,3.3,3.3,4.6,5.9
		c3-3.7,4.9-7.2,4.6-12c-0.2-2.8,0-6,4.4-5.3c0.5,0.2,0.8,0.5,1,1c1.6,2.2,4.7,3.5,3.7,6.9c2.2-0.1,3-3.7,4.9-1.9
		c2.7,2.5,6.6,4.3,7,8.5c0.3,3,1.2,6.4-4.1,6.8c-2.3,0.2-3.6,4.1-7.9,3.4c3.4,3.1,4.7,5.5,0.2,7.1c-3.4,2.5-5.3,6.9-9.7,8.3
		c-1.1,6.5-7.6,9.6-9.8,15.4C245.7,275.4,245.3,275.4,244.8,275.2z"/>
	<path class="st21" d="M238.7,339.3c-8.7,9.1-17.3,18.2-26,27.3c-2.1-0.6-3-2.5-4-4.2c-8-13.8-12.9-28.6-15.3-44.3
		c-0.4-2.4-0.9-5,1.2-7C209.5,320.1,224.5,329.1,238.7,339.3z"/>
	<path class="st22" d="M208.6,276.1c3.5,1.9,5.9,4.9,8.4,8c-4.9,7.2-11,10.3-19.5,6.2c-1.9-0.9-4-1.3-6-1.9c2.2-0.2,3-1.5,3.2-3.7
		c0.7-7.1,2.3-14,4.3-20.8c0.5-1.7,0.6-3.7,2.5-4.7c1.7,4.5,2.1,9.4,5.1,13.5c0.4,0.5,0.3,1.4,0,1.9c-3.2,4.4,0.7,5.8,3.4,7.7
		c-0.7-1.5-2.2-2.5-2.9-4C206,276.6,206,275.3,208.6,276.1z"/>
	<path class="st23" d="M194.6,311c-0.2,13.9,4.2,26.7,9.5,39.3c2.4,5.6,5.7,10.9,8.6,16.3c-0.9,1-1.7,2-2.6,3
		c-12.2-18.7-19.3-39-19.9-61.5C191.6,309,193.1,310,194.6,311z"/>
	<path class="st24" d="M231.6,288.3c2.5,0.3,3.4-2.4,5.4-3.1c1,1.4,0.4,2.9,0.5,4.3c0.2,3.1-1.2,7,3.9,7.7c0.2,0,0.2,0.9,0.3,1.4
		c-1.1,1.8-2.4,2.8-4.5,1.5c-2.3-2.6-6.2-1.8-8.7-4.1C230.2,293.8,232.5,291.7,231.6,288.3z"/>
	<path class="st25" d="M262.9,300.1c0.6,0.1,1.8,0.2,1.8,0.3c0.1,3.9,3.5,3.7,5.8,4.8c-0.6,1.4-1.8,2.3-3,3.1
		c-0.8-0.3-1.5-0.6-2.3-0.8C258.4,305.6,258.4,305.6,262.9,300.1z"/>
	<path class="st26" d="M228.4,296c3.6-0.1,6.9,0.3,8.7,4.1c-2.8-0.6-5.7-1.2-8.5-1.9C227,297.8,227,297,228.4,296z"/>
	<path class="st27" d="M253.5,289.1c2.2-1.9,4.6-0.5,7-0.9c0.1,1.8-1.4,2.2-2.1,3.2C256.7,290.7,255.1,289.9,253.5,289.1z"/>
	<path class="st19" d="M314.3,426.6c-3.2-11.9-6.3-23.7-9.5-35.6c-0.5-1.9,0.6-2.8,1.6-3.8c2.7-2.7,5.3-5.6,8.1-8.2
		c3.9-3.6,1.6-6.6-1-9.4c-3.9-4.3-6.7-4.9-10.1-2.1c-1,0.8-2,1.7-3.5,2.9c-1.1-3.6-2.2-7-3.2-10.3c-1.9-1.5-0.8-3,0.2-4.3
		c1-1.5,2.4-2.7,3.7-4c8.2-7.8,8-9.7-1.3-16.2c-0.3-0.4-0.4-0.8-0.5-1.3c0-0.2,0-0.4,0.1-0.5c3.6-3.8,3.9-7.5-0.5-11
		c-0.5-0.4-0.5-1.2-0.5-1.9c3.7-6.4,9.6-10.8,14.8-15.7c0.9-0.8,2.1-0.9,3.3-0.3c1.3,0.8,2,2.1,2.6,3.5c2.5,6.4,8.7,8.5,14.8,5.2
		c5.8-3.1,12.2,0.1,13.4,6.6c0.9,4.6,3.9,8.3,5.2,12.7c0.9,3,0.7,4.9-1.2,7.2c-5.1,5.9-5,6.7,1.3,10.9c0.8,0.6,2,1.1,2,2.1
		c-0.1,5.5,4.9,9.4,4.7,14.9c0,1.4,0.8,2.5,1.9,3.4c0.4,0.3,1,0.9,1.3,0.7c4.2-2.1,9.4-2.7,12.2-6.8c1.6-2.3,3.2-5.1,3.6-7.5
		c1.1-7.2,6.4-13.2,5.4-20.8c-0.8-5.6,1.1-10.2,5.7-13.5c4.9-3.5,6.3-9.2,9.3-13.9c0.9-1.4,0-2.1-1-2.8c-0.7-0.4-1.6-1-2.3-0.5
		c-3.2,2.2-5.6,1.5-8.7-0.7c-2.9-2-5.1-3.9-6.2-7.3c-1.1-3.4-4.3-6-3.6-10.1c0.3-1.6-0.2-3.8,1.9-4.1c1.8-0.3,3.2,1.3,3.7,2.9
		c1.1,3,2.9,5.6,4.2,8.4c1.2,2.9,3.1,3.5,5.8,3.4c3.2,0,6.1-0.6,7.6-3.7c1-2.2,1.7-4.6,2.7-7.3c-5.4,1.2-8.1-2.7-11.6-4.8
		c-1.9-1.1-2.2-3.3-0.7-5.2c1.5-1.8,3.2-2.9,5.6-1.6c5.8,3,11.4,6.4,18.2,7.3c3.9,0.6,7.1,4.2,8.3,8c1.8,5.6,5.3,10.3,7.5,15.6
		c1.7,2.6,3.1,1.3,2.8-0.8c-0.7-4.9,2.6-7.2,5.4-10c0.8-0.8,1.6-2.2,2.8-1.7c1.6,0.6,0.9,2.3,0.9,3.5c0.2,11.7-1.2,23.1-4.3,34.4
		c-5.9,21.8-17.1,40.6-33.1,56.4c-7.6,7.4-16.1,13.7-25.3,19.1c-2.2,1.3-4.1,0.5-6.2,0c-1.4-1-2.7-1.3-4.5-0.4
		c-4.3,2.3-8.8,2.7-13-0.3c-1.3-0.9-2.4-0.9-3.6,0c-2.2,1.7-4.8,2-7.5,2c-3.8,0-7.5,0.1-11.3,0.1c-2.1,0-3.9,0.4-5.2,2.1
		c-6.3,1.8-8.8,6.5-9.8,12.5C315.9,424.1,314.5,424.6,314.3,426.6z"/>
	<path class="st20" d="M360.5,372.4c-2.9,0.3-3.2-1.5-3-3.7c0.3-2.8-1.7-4.9-2.2-7.2c-1.4-5.7-4.3-9.7-9-13c-1.7-1.2-1.2-4,0.6-5.8
		c1.5-1.5,3.1-3,4.6-4.6c0.7-0.7,1.9-1.9,1-2.5c-3.7-2.5-1.9-7.7-5.5-10.1c-1.6-1.1-1.6-2.8-1.5-4.5c0.1-2.7-0.2-4-3.5-5.5
		c-3.7-1.6-5.2-2.2-8.9,0.1c-5.9,3.6-13.1-0.3-15.9-7.3c-0.5-1.2-1.6-2.1-2.4-3.1c-0.1-1.5,0.8-2.5,1.8-3.4c4.9-4.4,8.5-10,13-14.7
		c1.6-1.7,2.2-3.9,2.7-6c1.4-3.3,1.9-6.8,2.3-10.4c1.8-3.9,5.4-3.8,8.9-3.9c3.9-0.2,6.7,0.7,7.9,5c0.6,2.2,2.7,3.8,4.9,1.3
		c2.4-2.6,4.6-2.1,7-0.3c3.1,2.3,6.3,2.7,9.8,0.9c1-0.5,2-1.4,2-2.7c-0.1-1.7-1.6-1.5-2.6-1.6c-4.3-0.3-6.5-3.5-8.6-6.6
		c-1.9,1.2-0.6,4.7-3.6,4.4c-2.8-0.3-3.6-2.5-4.1-5c-0.3-1.3-0.7-2.6-1.8-3.5c-0.7-0.5-1.4-0.9-2.3-0.5c-1,0.5-0.6,1.4-0.4,2.2
		c0.3,1.3,2.1,2.9,0.2,3.9c-2.1,1.2-3.8-0.5-5.1-1.9c-5.9-6-5.9-6.1-11.7,0.2c-0.6,0.6-0.9,1.4-1.7,1.8c-3.7-2.2-7.8-1.1-11.8-1.4
		c0.2-1-0.6-2.7,1.1-2.8c2.1-0.1,2.8-0.9,3-2.9c0.2-1.9,2.1-0.9,3.3-1.2c1.5-0.4,3.6,1,4.4-1.1c0.7-1.9-0.2-3.5-1.7-4.9
		c-0.3-0.3-0.5-0.8-1.1-1.6c3.3-1,7,0.6,9.6-2.7c2.1-2.7,0.2-7.4,4.7-8.5c1.6,3.8,6.5,4.2,10.4,0.9c0.6-2.4,0.8-4.9,2.8-6.8
		c0.5-0.4,1.2-1.1,0.6-1.6c-4-3.5-1.2-6.5,1.2-10c-5.4,3-5.1,7.5-5.2,12c-0.1,2.4,0.5,6.1-4.2,4.6c-2.8-1.6-5.4-3.4-5.1-7.1
		c-1.7-0.5-2,1.8-3.9,1.3c0.1-2.4-1-5.1,0.9-7.4c3-3.6,7.1-6.1,7.8-11.6c0.3-2.1,3-3.8,5.9-3.5c4.5,0.4,9.3-1.1,12.8,3.4
		c1.1,1.4,3.5,0.5,5.3,0.6c1.4,0.1,3.2-0.5,3.1,2c0,2.5-1.8,1.8-3.2,2c-1.3,0.2-2.6-0.4-3.9,0.6c1.4,2.3,3.1,4,5.9,3.4
		c3.4-0.7,5.1-3.2,5.6-6.8c1.9,0.7,3.5,4.1,5.8,0.9c3.5-1.5,5.3,1.3,7.2,3.1c8.2,7.7,15.1,16.4,20.7,26.1
		c8.9,15.3,13.6,31.8,15.2,49.2c0.2,2.4-0.2,4.6-1,6.8c-0.1,2.6-0.1,5.1-0.2,7.7c-2.5-1-3.1-3.2-4.2-5.5
		c-3.1-5.8-4.8-12.5-10.6-16.6c-0.4-0.3-0.9-0.8-1.2-0.8c-5.7,1.4-9.7-3.1-14.6-4.2c-1.5-0.3-2.4-1.1-3.2-2.1
		c-1.6-2-2.8-1.4-4.4,0.1c-2.1,2-0.8,3.1,0.6,4.4c0.9,0.8,1.7,1.7,3,1.5c2.7-0.6,2.6,1.6,3.1,3.2c1.9-0.6,2.9-3.9,5.5-1.2
		c2.2,2.3,0.4,3.4-0.9,4.9c-0.3,0.4-0.7,0.8-0.9,1.2c-3.4,8.1-5.2,9.2-13.9,7.9c-0.6-0.1-1.8-0.4-1.8-0.4c0.6-4.1-4.1-5.6-4.3-9.1
		c-0.1-2.7-1.6-4.1-3.9-6c-0.5,4.3-1.2,8,2.6,10.7c1.1,0.8,1,2,1.1,3.2c0.3,3.2,2.3,5.5,5.3,5.6c2.6,0.1,2.6,1.7,3.1,3.3
		c2.7-0.6,4.5-6.6,7.8-1.1c-0.5,4.9-3.1,8.8-5.6,12.7c-0.7,1.1-1.7,2.1-2.8,2.8c-5.3,3.9-7.3,9.1-6.5,15.6c0.4,3.5-0.1,7-2.6,9.8
		c-0.7,0.7-1.3,1.7-1.1,2.7c0.7,5.8-3.8,9.7-5.2,14.7c-0.4,1.4-1.6,2.8-3,3.2C367.3,369.2,364.3,371.7,360.5,372.4z"/>
	<path class="st28" d="M429.7,299.6c-0.7-22.9-7-44-20.1-62.9c-5.5-7.9-11.3-15.5-19.3-21.2c-0.8-0.5-1.8-0.8-2.6-1.2
		c1.2-3.1,6.5-1,6.9-5.3c1,0.2,1.6,4.1,3.1,0.3c0.7-1.6,2.5-1.4,3.3-0.4c4.3,5.4,10.4,8.9,14.3,14.7c4,5.9,8.3,11.7,11.6,18
		c3.3,6.2,6.1,12.6,8.3,19.2c2.3,6.8,3.7,13.8,5.1,20.8c0.9,4.6,0.4,8.4-3.6,11.5C434.1,295,432,297.4,429.7,299.6z"/>
	<path class="st28" d="M208.6,276.1c-1,0.3-2.8,0.3-1,1.9c1.9,1.7,4.1,3.2,5.7,5.3c-6.2,1.6-7.4-4-11.8-6.6c3.9-0.5,5.6-3,3.5-4.8
		c-4.4-3.7-3-8.4-3.6-12.8c0.3-6,3.6-11,6.1-16.1c6.8-13.7,16.2-25.4,27.6-35.6c1.8-1.6,3.5-3.3,6.4-3.4c3.2-0.1,4.7,0.9,4.1,4.2
		c-0.5,0.5-1.2,0.4-1.6,1c0.5-0.4,1.1-0.6,1.6-1c1.3,0,2.7,0,4,0.1c0.2,0.2,0.3,0.3,0.5,0.5c0.4,0.9,0.3,1.8-0.1,2.7
		c-0.9,1.5-2.5,2.5-3,4.3c-0.6,0.9-1,2.2-2.5,1.2c-4.7-0.2-6.3,4.1-8.8,6.7c-13.3,14-21.8,30.8-26.9,49.3
		C208.5,274,208.6,275.1,208.6,276.1z"/>
	<path class="st28" d="M277.6,196c-2.6,0-5.5,0.6-7.8-0.2c-3-1.1-4.7-4-4.4-7.5c11-6.5,23.3-9,35.7-11c5.4-0.8,10.8-1.3,16.3-1
		c0.3,1.2-0.6,3.2,0.8,3.6c2.5,0.7,2.1,1.5,0.6,2.8c-1.8,1.5-1.3,3.6-1.4,5.6c-2.7,2.3-6.1,1.4-9.1,1.7
		C297.9,190.8,287.9,194.1,277.6,196z"/>
	<path class="st29" d="M344.4,408.4c2.8-0.1,5.7,0,7.5-2.8c1-1.5,2-1,3.3,0.1c3.8,3.4,8.5,3.7,12.3,0.6c3.1-2.5,3.9-0.2,5,1.9
		c-3.4,1.8-7.6,3.1-10.3,4.8c-8.2,5.3-13.8,8.6-27.3,10c-5.8,0.6-11.5,1.5-17.4,1.1c-0.3-9.7-0.3-9.7,8.9-12.9
		C332.3,409.1,338.6,410,344.4,408.4z"/>
	<path class="st30" d="M257.5,196.2c1.7,1.9,3.4,3.8,5.1,5.7c-0.8,4.4-5.4,4.5-8,7c-0.5,0.2-1,0.4-1.5,0.4c-1.4,0.2-2.6-0.1-3.7-1.1
		c0,0,0.1,0.1,0.1,0.1C247.7,201.3,251.8,198.2,257.5,196.2z"/>
	<path class="st31" d="M393.6,208.3c-7,0.4-3.2-4.8-4-7.6C392.8,202.3,394,204.9,393.6,208.3z"/>
	<path class="st30" d="M258.5,192.1c1.3,0.3,3.1-0.1,2.9,2.2c-0.2,2.9-2.4,1.7-4,2C257.7,194.9,256.9,193.2,258.5,192.1z"/>
	<path class="st32" d="M265.4,412.3c-10.1-3.7-18.7-9.8-26.9-16.6c-3.4-2.8-6.8-5.7-10.2-8.6c8.4-7.9,16.7-15.8,25.1-23.6
		c2.5,2.6,1.4,5.9,1.5,9c0.1,2.8,0.5,5.2,2.5,7.7c2.9,3.5,1.7,7.4-1.1,10.8c-2.2,2.3-1.6,4.5,0.6,6.4c1.8,1.6,3.5,1.9,4.9-0.5
		c1.1-1.8,1.8-3.6,0.5-5.6c-0.9-1.3-1.4-2.7,0.2-3.9c1.4-1,1.1-2.3,0.2-3.5c-2.7-3.5-0.9-4.7,2.6-4.8c2-0.1,2.9-1.3,3.9-2.7
		c2.3-0.8,2.7,1.3,3.8,2.4c1.2,1.3,0.6,3.1,1.6,4.4c1.6,2.8,3.3,5.6,4.8,8.4c-4,2.5-7.6,5.4-9.7,9.7c0.3,0.6,0.7,1.7,0.4,1.8
		C265.4,404.6,266.9,409.2,265.4,412.3z"/>
	<path class="st33" d="M274.5,383.2c-1.1-0.9-1.8-2.2-2.2-3.6c-0.7-2.5,1.3-3.6,2.6-5c5.1-5.2,10.3-10.4,15.5-15.6
		c0.8-0.8,1.7-1.6,2.4-2.6c1.3-1.9,0.8-8.7-0.9-9.3c-3-1-3.8,2-5.3,3.5c-6.4,6.9-12.7,14.1-20.3,19.8c-5.1-2.2-6-7.7-8.9-11.6
		c5.9-4.6,11-10.1,16-15.7c4.6-3.3,7.5-8.2,11.8-11.8c1.3-1.1,2.2-3.1,4.4-2.3c1.7,1.9,1.7,4.6,3,6.8c2.3-0.2,3.8-4.2,6.8-1.6
		c0.2,0.2,0.2,0.5,0.3,0.7c-3.4,6.1-2.8,11.8,1.6,17.1c-1.1,2.9-5.5,3.8-4.6,7.9C288.9,367.4,280.6,374.2,274.5,383.2z"/>
	<path class="st32" d="M298.5,422.3c-2.8,0.3-5.5-0.4-8.2-1c-3.2-0.7-6.5-1-6-5.8c0.2-1.4-1.4-2.5-2.8-3.2c-4.8-1.3-5.8-3-4.2-8
		c0.5-2.5,0.4-4.5-3.3-4.2c6.2-7.3,6.3-7.4,10.8-0.1C289.4,407.4,294.9,414.3,298.5,422.3z"/>
	<path class="st29" d="M277.3,404.2c-0.4,3.6,1.4,6.1,4.2,8c-0.1,7.3-0.2,7.6-6.9,4.8c-3.1-1.3-7-1.6-9.2-4.8c0.7-3-0.4-5.3-2.8-7.1
		c2.2-2.4,7.2,1.5,7.1-4C272.2,402.3,274.3,404.4,277.3,404.2z"/>
	<path class="st34" d="M257.5,359c4.5,2.6,5.1,8.2,8.9,11.4c2.1,1.5,3.8,3.2,3.3,6.1c0.4,6-4.5,2.9-7.2,4.1c0.4,2.6,6.9,5.5-0.2,8.3
		c3.2,2.5,3.3,5.5,0.4,8.5c-4.9,0.2-7.8-1.9-8.1-6c2.6-2.2,3.4-5.1,2.9-8.4c-0.1-0.6,0.1-1.8-0.2-1.9c-7.3-2.7-2.5-8.9-3.8-13.2
		c-0.4-1.4-0.1-2.9-0.2-4.4C254.8,362,256.1,360.5,257.5,359z"/>
	<path class="st13" d="M289.4,329.3c-3.8,3.7-7.7,7.4-11.5,11.1c-1.3,1.2-2.3,2.9-4.4,3c8.1-10.7,18.3-19.6,27.6-29.2
		c7.5-7.7,15.2-15.2,22.8-22.9c1.7-1.7,3.4-3.2,5.6-4c-3,7.6-9.6,12.2-14.7,18.1c-5.9,4.8-11.3,10.2-16.5,15.7
		C296.8,325.4,293,327.2,289.4,329.3z"/>
	<path class="st35" d="M326.5,284.2c0-2.1-1.2-3.7-2.3-5.3c-1.1-1.6-2.3-3.1,0.1-4.3c2.5-1.2,2,1.7,3,2.7c0.2,0.2,0.3,0.6,0.4,0.9
		C327.1,280.2,329.5,282.7,326.5,284.2z"/>
	<path class="st36" d="M333.3,264.6c0.5-5,4.6-8.6,9.3-8.4c2,0.1,2.7,0.5,3.1,2.7c0.5,3.4,2.9,4.9,6.6,4.9c-0.1-0.3-0.2-0.7-0.4-0.9
		c-1.6-1.6-3-3.3-2.2-5.7c0.5-1.5,2.1-1.2,3-0.9c2.5,0.7,4.6,2.4,4.8,5.1c0.2,2.6,0.9,4.4,3.2,5.4c1,0,0.7-0.7,0.9-1.1
		c0.7-1.8-1.6-4.7,1.7-5.4c3.5-0.7,1.7,2.8,2.8,4c1.7,2,3.2,4.1,6.5,4c1.7,0,4.8-1.9,5,1.9c0.2,3.1-2.2,5.2-4.6,5.7
		c-3.2,0.6-6.8,1.3-9.8-1.8c-1.9-2-4.5-4.3-5.8,1.1c-0.6,2.4-5.8,1.3-6.9-2.3c-1.2-3.8-2.7-5.1-6.6-4.7c-3.3,0.3-6.7-0.4-9.1,2.7
		C334.2,268.8,333.8,266.7,333.3,264.6z"/>
	<path class="st37" d="M312.2,269.7c3.4-0.9,6.3-0.3,9.1,1c0.9,0.4,2.6,0.8,1.6,2.4c-0.7,1.2-1.7,2.3-3.5,1
		C317.3,272.4,314.8,271.2,312.2,269.7z"/>
	<path class="st38" d="M277.6,196c12.7-5.8,26.1-7.6,39.8-7.8c0.8,1.3,3.5,2.3,2.5,3.6c-2,2.5,0,5.2-1.3,8.3c-2.1,4.8-5,3.8-8.3,4.3
		c0.9,1.4,1.6,2.6,2.3,3.8c-5.5,2.6-8.7,8.6-15,10.1c-1.8,0.4-2.5,2.4-2.7,4.4c-0.1,1.6,0.1,3.4-1.3,4.6c-3.5-2.6-7.5-4.7-8.1-9.7
		c-7.8-3.2-1.7-6.4-0.1-9.8c0.9-2,0.3-4-2.8-3.5C285.8,198.8,284.5,196.6,277.6,196z"/>
	<path class="st20" d="M254.6,208.1c2-2.9,5.9-3.4,8.1-6.2c0.7,0.5,1.3,1.4,2,1.4c5.5-0.2,4.9,5.4,7.6,7.9c2,1.8-1.6,2.7-1.7,4.6
		c0.9,0.9,3.5,0,3,2.7c-0.4,2.7-2.5,1.6-3.8,1.7c-2.6,0.2-5.3,0.2-7.9,0.3c-0.2-0.2-0.4-0.3-0.6-0.5c-4.6-3.4-4.4-4.8,1.1-9
		C260.4,208.3,256.5,210.7,254.6,208.1z"/>
	<path class="st20" d="M329.5,247.1c0-2.4,0-4.2,0-5.9c-1.7-0.4-2.1,0.9-2.8,1.7c-1.5,1.5-3.4,2.3-4.7,0.8c-1.2-1.4-0.6-3.5,1-4.8
		c1.5-1.3,3.1-2.5,4.4-4c1.4-1.5,2.7-3.3,5-2.4c2.3,0.9,1,3.2,1.1,4.8c0.1,1.8,0.2,3.3,2.6,3.2c1.4-0.1,1.4,1,1.5,2.1
		c0,1.3-0.6,1.9-1.8,1.7C333.1,243.7,332.1,246.2,329.5,247.1z"/>
	<path class="st39" d="M245.2,275.2c0.2-2.4,1.3-4.2,3.1-5.9c2.5-2.4,5.9-4.4,5.5-8.8c-0.1-0.5,0.6-1.2,1-1.6c3.4-2.6,7-4.8,9.3-9
		c1.6-2.9,1,0.7,1.5,1.3c-0.7,3.5-0.9,7.5-6,7.7c-0.6,0-1.7,1-1.7,1.6c-0.5,6.1-5.7,8.8-8.8,13.1c-0.4,0.6-0.3,1.6-0.4,2.4
		C247,277.2,245.8,277.2,245.2,275.2z"/>
	<path class="st40" d="M350.5,236.4c3.9,0.2,3.3-2.7,2.9-4.7c-1.3-7,2.6-11.1,7.7-14.6c1.3,2.9-0.9,4.3-2.3,6.1
		c-1.6,2-3.1,4.4,1.2,5.2c2.1,0.4,1.4,2.9,1.3,2.9c-4.6,0.1-3,5.6-6.1,7C353.4,238.3,351.6,238.5,350.5,236.4z"/>
	<path class="st39" d="M293.5,227.3c-0.1-8.1,0-7.9,7.7-11.4c2.3-1,4-3.4,5.8-5.3c1.6-1.7,3.2-2.8,5.6-2.4c0.7,0.3,1.8,0.5,2.1,1
		c0.5,0.8-0.5,0.9-1.1,1c-2.8,0.3-4,2.8-5.8,4.4c-2,1.7-3.6,3.5-6.6,3.9c-3.6,0.5-4.7,3.5-4.7,7.1
		C296.5,228.7,296.2,228.7,293.5,227.3z"/>
	<path class="st41" d="M318,215.3c1.8-0.1,2.6-3.8,5-1.4c1,1,2.5,1.9,1,3.7c-1.7,2.1-3.7,3.5-6.4,2.3c-1.1-0.5-2-1.7-2.9-2.6
		c-1.3-1.2-1.3-2.7-0.9-4.1c0.3-1,1.3-0.8,2.1-0.8C318.2,212,316.9,214.6,318,215.3z"/>
	<path class="st42" d="M277.3,248.3c-1.7-0.2-4,0.8-3.8-2.3c0.1-2.1,1.6-3.1,3-4.2c0.4,2.9,5.1,1.4,4.9,4.8
		C281.2,249.5,278.6,247.7,277.3,248.3z"/>
	<path class="st43" d="M252.4,288.2c-3.3,0-6,0-8.8,0c-1.4,0-2.1-0.6-2-2.1c0-1.2,0.5-1.9,1.7-1.9
		C246.5,284.4,250.3,283.3,252.4,288.2z"/>
	<path class="st44" d="M245.2,275.2c0.8,1.5,2.1,0.9,3.3,0.8c1.4,1.3,1.8,3.1,0,4c-2.2,1-4.1-0.4-5.5-2.2c-2-2.6,2.3-1,1.8-2.6
		C244.8,275.2,245.2,275.2,245.2,275.2z"/>
	<path class="st45" d="M254.6,208.1c3.6,0.5,7.9-1.2,10.1,3.8c-2.2,0.2-4.2,1-5.6,2.9c-2.1,2.9,1.5,3.4,2.1,5.2
		c-1.3,0.6-4-0.6-3.6,2.1c0.9,6.5-1.4,12-5.3,17.3c-2.5-6.9-10.7-9.1-13.6-17.7c1.2-1,3.5-2.9,5.8-4.8c0.7-0.6,1.3-1.2,2-1.8
		c2.7-1.6,3.2,1.4,5.1,2.5c1.3-2.6,0.1-5.5,1.1-8.1c0.2-0.4,0.5-0.8,0.9-1.1C253.9,208.4,254.2,208.2,254.6,208.1z"/>
	<path class="st46" d="M360.5,372.4c2.9-1.6,4.9-5,9-4.5c0.6,0.1,1.5-0.9,1.8-1.6c1.9-4.8,6.2-8.7,6.2-14.3c0-2.4,0.2-4.6,2.3-6.2
		c2.6-2,2-4.9,1.6-7.4c-1.1-7.4,1.3-13.2,7.3-17.6c5-3.6,5.5-10,8.9-14.7c4.2,0.3,2.6,2.2,1.7,4.7c-2.6,7.5-8.5,12.3-13.7,17.7
		c-1.7,1.8-1,4.1-1.2,6.2c-0.4,5.1,1.6,10.8-3.5,14.8c-0.5,0.4-0.7,1.6-0.5,2.4c1.6,5.9-4.5,9.2-5.1,14.5c-0.1,1.3-2.4,3.3-3.9,3.4
		c-2.9,0.4-4.8,1.6-6.9,3.5C363.3,374.6,361.3,375.2,360.5,372.4z"/>
	<path class="st47" d="M301.4,352.2c-1.4,0.1-2.5-0.3-3.2-1.7c-2.9-5.2-2.3-10.9,1.6-15.5c1.8,0.1,3,1.2,4.3,2.3
		c5.1,4.6,5.2,7.3,0.3,12.2C303.4,350.5,302.4,351.4,301.4,352.2z"/>
	<path class="st48" d="M289.4,329.3c3-2.7,5.9-5.4,8.9-8.2c0.2,0.2,0.4,0.5,0.7,0.7c6.1,6.3,6.1,6.3,0.5,12.6
		c-3.5-0.5-4.8,3.1-7.7,4.3C291,335.5,290.2,332.4,289.4,329.3z"/>
	<path class="st38" d="M397.5,344.4c0,2,0.3,4-1.5,5.2c-2.5,1.8-2.7,4.3-2.6,7.1c0,1.3,0.8,3.4-1.6,3.4c-2,0-4.6,1.2-6-0.8
		c-0.9-1.3-0.3-3.2,1-4.5c2.1-2.2,5.1-4.3,0.3-6.9c-0.8-0.4,0.3-1.4,0.9-1.9c1.3-1.3,2.6-2.6,3.9-3.9c1.2-1.3,2.6-2.2,4.4-1.7
		C398.6,341,397,343.2,397.5,344.4z"/>
	<path class="st49" d="M344.4,408.4c-5.7,2.7-11.7,3.3-17.9,2.9c1.5-2.5,3.8-3.2,6.6-3.1C336.9,408.4,340.7,408.4,344.4,408.4z"/>
	<path class="st34" d="M253.5,209.3c0,2.8,0,5.5,0,8.3c0,1.1,0.3,2.4-1.5,2.5c-1.5,0.1-2.6-0.2-2.5-2c0.1-2.1-1.1-2.9-3.1-2.9
		c-0.4-2.4,1.8-2.8,2.9-3.9C250.9,210.9,251.3,208.4,253.5,209.3z"/>
	<path class="st50" d="M253.5,209.3c-1.8-0.3-2,2.9-4.1,2c0-1,0.1-2,0.1-3.1c1.4,0.1,2.7,0.2,4.1,0.3
		C253.6,208.8,253.5,209.1,253.5,209.3z"/>
	<path class="st51" d="M245.5,208.2c-1,1.3-1.8,2.7-3.6,3.3C240.6,207.4,243.5,208.4,245.5,208.2
		C245.5,208.3,245.5,208.2,245.5,208.2z"/>
	<path class="st6" d="M269.7,376.5c-1.1-2-2.2-4-3.3-6.1c4.5-5.7,10.2-10.4,15.2-15.7c2.6-2.8,4.9-5.8,7.6-8.4
		c1.8-1.8,3.4-2.2,4.6,1.1c1.7,5.1,2,8.9-2.7,13.1c-6.7,5.9-13.2,12-18.7,19.1C271.5,378.6,270.6,377.5,269.7,376.5z"/>
	<path class="st52" d="M254.6,391.4c1.1,4.1,5.2,4.2,8.1,6c-0.6,3.2-3,3.8-5.1,2.4C254.8,397.9,251.5,395.6,254.6,391.4z"/>
</g>
</svg>
