<?xml version="1.0" encoding="utf-8"?>
<!-- Generator: Adobe Illustrator 19.0.0, SVG Export Plug-In . SVG Version: 6.00 Build 0)  -->
<svg version="1.1" id="Calque_1" xmlns="http://www.w3.org/2000/svg" xmlns:xlink="http://www.w3.org/1999/xlink" x="0px" y="0px"
	 viewBox="0 0 612 792" style="enable-background:new 0 0 612 792;" xml:space="preserve">
<style type="text/css">
	.st0{fill:#010100;}
	.st1{fill:#040404;}
	.st2{fill:#070707;}
	.st3{fill:#E6E6E5;}
</style>
<g>
	<path d="M258.7,252.9c1.5-1.7,3.3-1,5-0.4c11.7,3.8,22.2,9.8,31,18.5c5,4.9,5.4,11,1,15.5c-4.3,4.4-10.3,4.2-15.5-0.6
		c-3.7-3.5-7.6-6.8-12.4-8.9c8.6,44.1,17,87.9,25.7,131.8c0.6,3.3,0,3.9-3.2,3.9c-34.8-0.1-69.6-0.1-104.5,0c-4,0-4.2-1.4-3.5-4.7
		c7.3-36.7,14.4-73.4,21.6-110.1c0.1-0.5,0-1,0-2.6c-5.2,6.4-8,13.3-11.9,19.7c0-10.3,0-20.5,0-30.8c0-3.3,2.9-4.6,4.6-6.8
		c1.5-2,3.1-3.8,4.5-5.6c-3.1-0.1-6.4,1.4-9.8,2.2c-2.9,0.7-1.7,3.3-1.7,5c-0.1,24.2-0.1,48.3-0.1,72.5c0,12.6-4,24.6-5.9,36.9
		c-1.2,7.5-2.8,15-4.5,22.5c-0.7,3.2,0,4.3,3.5,4.2c7-0.2,6.9,0,6.9,7.2c0,18.8-0.3,37.7,0.1,56.5c0.2,9.8-3.3,16.7-12.7,20.2
		c-2.3,0-4.7,0-7,0c-9.9-2.4-14.2-7.6-14.5-18.4c-0.3-12.7-0.1-25.3-0.1-38c0-22.5,0-45,0-67.5c0-2.2,0.6-4.6-1.5-7
		c-1.7,2.6-1.3,5.1-1.3,7.4c0,33.5,0,67,0,100.4c0,1.8,0,3.7,0,5.5c-0.2,10.1-4,15-13.6,17.4c-2.7,0-5.3,0-8,0
		c-10.1-3.2-13.4-8.1-13.4-19.8c0-65.4,0-130.9,0-196.3c0-1.7-0.1-3.3,0-5c0.1-3.4-1.2-6-3.8-8.2c-13.1-10.7-24.4-23.1-34.8-36.4
		c-10-12.8-18.6-26.4-25.9-40.8c-1.4-2.7-1.8-5.7-3-8.4c0-1.7,0-3.3,0-5c0.3-0.2,0.7-0.3,0.8-0.5c1.8-4.7,5.2-7.4,10.2-7.3
		c5.1,0.1,8,3.4,10.1,7.7c14.1,28.5,33.1,53.4,57.2,74.2c3.1,2.6,6.2,3.7,10.3,3.9c22.9,1.2,45.4-1.1,67.5-7.3
		c4.1-1.2,7.1-0.6,10.4,3c9,9.8,21.8,11.4,35.4,5.3C253.7,255.4,256.1,254.1,258.7,252.9z"/>
	<path d="M250,499c-7.4-3-10.2-8.5-10.1-16.4c0.3-21.1,0.2-42.3,0-63.4c0-3.2,0.7-4.3,4.1-4.2c6.3,0.3,12.6,0.2,19,0
		c2.4-0.1,3.1,0.7,3.1,3.1c-0.1,22.8,0,45.6-0.1,68.4c0,6.3-4.4,9.5-9,12.5C254.7,499,252.3,499,250,499z"/>
	<path class="st0" d="M219,499c-7-3.5-9.5-9-9.3-16.9c0.4-20.6,0.3-41.2,0-61.8c-0.1-4.6,1.4-5.5,5.5-5.3c5.8,0.4,11.6,0.2,17.5,0.1
		c2.3-0.1,3.2,0.6,3.2,3c-0.1,22.6,0,45.2-0.1,67.8c0,6.6-4.1,10.5-9.8,13.1C223.7,499,221.3,499,219,499z"/>
	<path class="st1" d="M521,160c1,0.8,2,1.5,3.7,2.8c-7.6,0.8-12.4,4.7-16.1,10.2c-1.1,1.6-2.1,1.6-3.6,0.8c-6-3-12.1-4.2-18.8-0.9
		c3.1-6.8,7.4-8.5,15.4-5.6c3.1,1.1,5,1.3,6.9-1.7c1.7-2.7,4.8-4,7.4-5.7C517.7,160,519.3,160,521,160z"/>
	<path d="M154.4,249.2c-16.2,0-29.3-13-29.3-29.1c0-16.1,13-29.1,29.2-29.2c16.2-0.1,29.2,12.9,29.3,29.1
		C183.7,236.1,170.6,249.1,154.4,249.2z"/>
	<path class="st0" d="M281.9,257.4c18.4-10.4,31.3-25.8,42.2-43.3c0.9-1.4,1.6-2.9,2.6-4.2c2.9-4,7.5-4.9,11.4-2.4
		c3.7,2.4,5.2,6.9,2.9,10.9c-10.8,19-24.2,35.7-42.3,48.4c-2,1.4-3.2,1.4-5.1-0.3C290,263.4,286.1,260.6,281.9,257.4z"/>
	<path class="st1" d="M439.8,201.9c3.1-6.8,7-8.5,14.2-6.1c3.9,1.3,6.3,1,9.2-2.3c5.1-5.8,9.4-6.1,15.1-1.9
		c-7.3,0.5-12.1,4.4-15.8,9.8c-1.4,2.1-2.6,1.7-4.4,0.8C452.4,199.7,446.5,198.5,439.8,201.9z"/>
	<path class="st1" d="M518.1,208.9c-7,0.5-11.9,4.4-15.5,9.8c-1.4,2-2.4,1.9-4.4,1c-5.7-2.7-11.5-4.2-17.6-0.9
		c0.9-5.1,4.5-7.4,10.3-6.5c7.8,1.1,8.1,1,14.5-3.6C510.2,205.1,513.4,205.1,518.1,208.9z"/>
	<path d="M251.7,206.9c-14.1-8-32-2.5-39,12c-7.1,14.9-0.2,32.3,15.2,38.3c7.9,3.1,15.5,1.9,23.1-1.2c2.3-1.7,4.6-3.5,6.9-5.2
		c0.9-1.3,1.9-2.7,2.8-4C270.1,233.2,266.1,215,251.7,206.9z"/>
	<path class="st2" d="M102.3,434c-1.3,0-2.7-0.2-4,0c-5.2,1-5.5-1.9-5.3-5.9c0.1-2.2,0.9-2.9,3-2.8c3.3,0.1,6.6,0,10,0
		c5.5,0,6.4,1.2,5.5,6.8c-0.2,1.5-0.8,1.9-2.2,1.9C106.9,434,104.6,434,102.3,434z"/>
	<path class="st3" d="M301,351.4c-0.1,1.5-0.9,2.5-2.4,2.7c-1.8,0.2-2.9-0.8-3-2.5c0-1.4,0.7-2.5,2.3-2.7
		C299.7,348.8,300.6,349.8,301,351.4z"/>
	<path d="M552.1,425.4c-5.1-0.2-12.1,1.7-15-0.9c-3.3-3-0.5-10.1-1.1-15.3c-0.5-4.1,1.2-5,5-4.9c8.8,0.3,8.8,0.1,8.8-8.9
		c0-10.8,0-10.8-10.4-11.3c-0.2,0-0.3,0-0.5,0c-2.2,0.3-2.9-0.7-2.8-2.8c0.1-5.2,0.2-10.3,0-15.5c-0.1-3.2,0.7-4.3,4.1-4.2
		c9.7,0.1,9.7-0.1,9.7-9.4c0-10.3,0-10.3-10.4-10.8c-2.1-0.1-3.8-0.3-3.3-2.9c0.9-4.7-1.7-5.2-5.3-4.8c-1.1,0.1-2.4,0.2-3.5,0
		c-3.4-0.5-5,0.5-4.4,4.2c0.4,2.4-0.3,3.5-3.2,3.5c-19.2-0.1-38.3-0.1-57.5,0c-2.2,0-3.7-0.3-3.2-2.9c0.9-4.7-1.6-5.2-5.3-4.8
		c-1.3,0.2-2.7,0.2-4,0c-2.9-0.4-4.5,0.4-3.9,3.7c0.5,3-0.5,4-3.7,4c-19-0.2-38-0.1-57,0c-2.2,0-3.6-0.3-3.1-2.9
		c0.8-4-1-5.3-4.8-4.8c-1.6,0.2-3.3,0.2-5,0c-2.5-0.2-3.9,0.4-3.4,3.2c0.8,4.1-1.4,4.5-4.8,4.5c-17.8-0.1-35.7-0.2-53.5,0
		c-3.8,0-6.6-0.1-5.6-5.1c0.1-0.7-0.3-2.2-0.5-2.2c-3.8-0.2-7.7-0.7-11.4-0.2c-2.5,0.4-0.9,3.4-1.3,5.1c-0.2,0.8,0.1,1.9-0.9,2
		c-3.6,0.5-1.9,2.9-1.7,4.5c1.4,7.7,2.6,15.4,4.6,23c2.2,8.3,0.7,17.6,6.9,24.8c0.6,0.7,0.4,1.7-0.3,2.3c-1.8,1.6-0.8,3.3-0.5,5.1
		c0.8,4.3,1.5,8.5,2.4,12.8c1.3,6.7,1.3,6.6-5.7,6.8c-1.6,0-4.6-1.1-4.6,1.3c0,4.9-3.1,3.7-5.7,3.8c-3,0.1-6,0.2-9,0
		c-2.5-0.2-3.3,0.6-3.5,3.3c-0.3,4.1,0.6,5.5,5.3,5.5c94.3-0.2,188.6-0.1,282.9-0.1c0-2.7,0-5.3,0-8
		C558.8,424.7,555.4,425.5,552.1,425.4z M305,364.8c-0.1-2.4,0.6-3.1,3-3.1c19.1,0.1,38.2,0.1,57.3,0c2.4,0,3.6,0.4,3.5,3.3
		c-0.2,5.3-0.2,10.6,0,16c0.1,2.7-0.9,3.4-3.4,3.3c-9.5-0.1-18.9,0-28.4,0s-18.9-0.1-28.4,0.1c-2.7,0-3.8-0.6-3.7-3.5
		C305.2,375.4,305.1,370.1,305,364.8z M368.9,421.8c0.2,3-1.1,3.6-3.8,3.6l-28.5,0c-9.2,0-18.3-0.1-27.5,0.1c-3,0.1-4.5-0.4-4.3-4
		c0.3-4.6,0.2-9.3,0-14c-0.1-2.4,0.8-3.1,3.1-3.1c19.1,0.1,38.3,0.1,57.4,0c2.6,0,3.5,0.9,3.4,3.5
		C368.7,412.5,368.6,417.2,368.9,421.8z M372.8,351.2c0.1-1.5,1-2.3,2.7-2.3c1.6,0.2,2.6,1.1,2.5,2.9c-0.1,1.5-1.2,2.3-2.7,2.3
		C373.4,354.1,372.6,352.9,372.8,351.2z M374.9,396.9c-1.6-0.2-2.2-1.3-2.2-2.8c0-1.5,1-2.4,2.5-2.4c1.7,0,2.7,1,2.7,2.8
		C377.7,396.3,376.6,397.1,374.9,396.9z M382,364.7c-0.1-2.5,0.8-3,3.1-3c19.1,0.1,38.3,0.1,57.4,0c2.5,0,3.5,0.7,3.4,3.3
		c-0.2,5.3-0.2,10.7,0,16c0.1,2.8-1,3.3-3.5,3.2c-9.7-0.1-19.3,0-29-0.1c-9.3,0-18.6-0.1-28,0.1c-2.8,0.1-3.7-0.7-3.6-3.6
		C382.2,375.3,382.1,370,382,364.7z M442.2,425.4c-9.5-0.1-19,0-28.5-0.1c-9.2,0-18.3-0.1-27.5,0.1c-3,0.1-4.5-0.4-4.2-4
		c0.3-4.6,0.2-9.3,0-14c-0.1-2.5,0.8-3.1,3.2-3.1c19.2,0.1,38.3,0.1,57.5,0c2.7,0,3.4,1,3.3,3.5c-0.2,4.7-0.2,9.3,0,14
		C446.1,424.9,444.8,425.4,442.2,425.4z M452,396.9c-1.5-0.2-2.3-1.2-2.2-2.7c0.1-1.8,1.2-2.6,2.9-2.4c1.5,0.2,2.2,1.1,2.3,2.7
		C454.7,396.2,453.8,397.1,452,396.9z M452.4,354.1c-1.9,0-2.7-1.1-2.6-2.9c0.1-1.6,1.1-2.4,2.7-2.2c1.6,0.1,2.3,1.1,2.4,2.4
		C454.9,353.2,454,354.1,452.4,354.1z M459,365.1c-0.1-2.5,0.4-3.5,3.2-3.5c19.1,0.1,38.3,0.1,57.5,0c2.7,0,3.4,0.8,3.3,3.4
		c-0.2,5.2-0.3,10.3,0,15.5c0.2,3.3-1.2,3.8-4,3.7c-9.5-0.2-19-0.1-28.5-0.1c-9.3,0-18.7-0.1-28,0.1c-2.9,0.1-3.7-0.8-3.6-3.6
		C459.2,375.5,459.2,370.3,459,365.1z M522.1,424.2c-2.9,3.6-10.5,0.9-16.1,1.1c-5,0.2-10,0-15,0c-9.5,0-19-0.1-28.4,0.1
		c-2.8,0.1-3.8-0.7-3.6-3.6c0.2-4.6,0.2-9.3,0-14c-0.1-2.5,0.5-3.5,3.3-3.5c19.1,0.1,38.2,0.1,57.4,0c2.6,0,3.5,0.8,3.3,3.4
		C522.7,413.4,524.9,420.7,522.1,424.2z M526.9,351.2c0.2-1.6,1.2-2.3,2.8-2.2c1.5,0.2,2.4,1.1,2.3,2.7c-0.1,1.9-1.3,2.6-3,2.4
		C527.4,353.8,526.8,352.7,526.9,351.2z M529,396.9c-1.6-0.2-2.2-1.4-2.1-2.9c0.1-1.6,1.2-2.2,2.7-2.2c1.5,0.2,2.5,1.1,2.4,2.7
		C531.9,396.2,530.8,397.2,529,396.9z"/>
	<path d="M543.8,310.1c-8.3-0.1-16.7-0.2-25,0c-3.5,0.1-6.4-0.8-9.3-2.7c-29.1-17.9-52.5-41.7-72.7-69c-3.7-5-7.4-9.9-12-14
		c-11-9.9-22.8-11.4-35.8-4.4c-7.5,4.1-13.9,9.7-20.2,15.4c-7.4,6.7-14.6,13.6-22.1,20.2c-8.7,7.6-18.4,13-30.4,13.6
		c-2.6,0.1-5.2,1-7.9,1.3c-2.7,0.4-3.3,1.2-2.6,4.2c2.2,9.7-2.3,18-11,21.4c-4.9,1.9-9.7,1.3-15.3-0.6c1.1,5.8,2.2,10.6,2.8,15.6
		c0.5,4.1,2.1,5.2,6.3,5.2c48.3-0.2,96.6-0.1,144.9-0.1c36.8,0,73.6,0,110.5-0.1c2,0,4.8,1.4,4.9-2.9
		C549,308.8,546,310.1,543.8,310.1z M434.3,242.1c-1,1.5-2.8,1-4.1,0.8c-5.7-1-11.4-2.1-17.1-3.4c-6-1.4-11.5-0.9-16.3,3.4
		c-2.2,2.1-4.5,2.2-7.3,0.9c-3.6-1.7-7.4-3.2-11.4-3.4c-3.9-0.2-7.6,2.2-12.3,1.3c7.3-6.7,14-13.1,22-18c14-8.6,25.1-7.4,36.9,4.1
		c3.2,3.1,6.1,6.6,8.6,10.3C434.1,239.3,435.4,240.6,434.3,242.1z"/>
</g>
</svg>
