<?xml version="1.0" encoding="utf-8"?>
<!-- Generator: Adobe Illustrator 19.0.0, SVG Export Plug-In . SVG Version: 6.00 Build 0)  -->
<svg version="1.1" id="Calque_1" xmlns="http://www.w3.org/2000/svg" xmlns:xlink="http://www.w3.org/1999/xlink" x="0px" y="0px"
	 viewBox="0 0 612 792" style="enable-background:new 0 0 612 792;" xml:space="preserve">
<style type="text/css">
	.st0{fill:#FCCB17;}
</style>
<g>
	<path class="st0" d="M555.5,362.1c-0.5-8.1-0.4-16.3-1.8-24.3c-4-23.1-11.5-45.2-22-66.1c-14.3-28.7-33.1-54-56.9-75.7
		c-23-21-48.6-37.7-77.5-49.3c-17.5-7-35.3-12.9-54.1-15c-8.7-1-17.5-0.8-26.2-1.7c-11.3,0-22.7,0-34,0c-1.4,1-2.9,0.4-4.4,0.5
		c-9,0.2-18,0.3-26.8,1.9c-24.6,4.2-48,12.4-70.1,23.9c-27,14.1-51.1,32.2-71.7,54.9c-21.1,23.1-37.9,48.9-49.5,77.9
		c-6.9,17.3-12.7,35-14.8,53.7c-1,8.7-0.8,17.5-1.7,26.2c0,11.3,0,22.7,0,34c1,1.9,0.4,3.9,0.5,5.9c0.6,8.8,0.4,17.6,2,26.3
		c5,26.9,14.2,52.2,27.6,76.1c15.1,27,34.1,50.8,57.7,70.8c19.5,16.5,40.7,30.5,64.4,40.5c19.4,8.2,39.1,15,60.1,17.6
		c7.9,1,15.9,0.7,23.7,1.8c13,0,26,0,39,0c8.2-1,16.5-0.7,24.7-1.8c26.7-3.6,51.7-12.6,75.4-24.9c26.4-13.8,49.8-31.7,70.1-53.7
		c21.6-23.4,38.7-49.5,50.4-79.1c6.8-17.2,12.5-34.8,14.7-53.2c0.9-7.7,0.7-15.5,1.7-23.2c0-13,0-26,0-39
		C555,365.5,555.6,363.8,555.5,362.1z M509,466.7c0,19-10.1,31.4-28.9,35.3c-3.1,0.6-6.2,1-9.4,1c-56.7,0-113.3,0-170,0
		c-57.2,0-114.3,0-171.5,0c-17,0-32.3-10.5-36.5-25c-0.6-2.1-0.7-4.3-0.7-6.4c0-42.2,0-84.3,0-126.5c0-17.8,9.4-29.7,26.8-34
		c5.2-1.3,10.5-1.8,15.8-1.8c19.7,0,39.3,0,59,0c2.8,0,5.1-0.6,7.5-2.1c21.5-13.6,43.1-27.1,64.7-40.6c2.6-1.6,3.5-2.9,2.5-6.2
		c-2.5-8.1,0.2-15.1,6.1-20.9c11.8-11.4,33-11.6,45.2-0.6c6.2,5.6,8.7,12.5,7.1,20.7c-0.5,2.4-0.2,3.5,1.8,4.8
		c23.3,14.5,46.5,29.1,69.8,43.8c2.2,1.4,4.5,1.1,6.7,1.1c21,0,42,0,63,0c10.9,0,21.1,2.5,29.7,9.6c7.3,6,11.4,13.5,11.3,23.3
		C508.9,383.7,509,425.2,509,466.7z"/>
	<path class="st0" d="M213.7,312.6c8.3-4.8,15.7-9.2,23.1-13.4c13-7.5,26-14.9,38.9-22.4c2.1-1.3,3.9-1.6,6.5-0.9
		c10.6,3.4,21.3,3.2,31.8-0.7c1.7-0.6,3.2-1.1,5.1,0c21.3,12.4,42.6,24.6,65,37.4C326.8,312.6,270.8,312.6,213.7,312.6z"/>
	<path class="st0" d="M117,410c0-10.5,0.2-21-0.1-31.5c-0.1-3.9,1.2-4.9,4.8-4.6c4.6,0.3,9.3,0.2,14,0c2.6-0.1,3.5,0.8,3.4,3.4
		c-0.2,6,0.1,12-0.1,18c-0.1,2.9,0.6,4.3,3.8,4.1c5.8-0.2,11.7-0.2,17.5,0c2.9,0.1,3.7-1.2,3.6-3.9c-0.1-6,0.1-12-0.1-18
		c-0.1-2.9,0.9-3.8,3.7-3.7c5,0.2,10,0.1,15,0c2.5-0.1,3.5,0.5,3.5,3.3c-0.1,21.8-0.1,43.7,0,65.5c0,2.7-1,3.4-3.5,3.3
		c-5-0.1-10-0.2-15,0c-2.8,0.1-3.8-0.8-3.7-3.7c0.2-7.2-0.1-14.3,0.1-21.5c0.1-3-0.7-4.2-3.9-4c-5.8,0.2-11.7,0.2-17.5,0
		c-2.8-0.1-3.7,0.8-3.7,3.7c0.2,7.2-0.1,14.3,0.1,21.5c0.1,3-0.7,4.2-3.9,4c-3.5-0.3-7,0-10.5-0.1c-7.7,0-7.7,0-7.7-8
		C117,428.7,117,419.4,117,410z"/>
	<path class="st0" d="M355.7,409.8c0-10.3,0.1-20.7-0.1-31c-0.1-3.4,0.5-5,4.6-5c17,0.2,34,0.2,51,0.1c3,0,4,0.7,4,3.9
		c0.2,11.3,0.3,11.3-11.1,11.3c-7.3,0-14.7,0.2-22-0.1c-3.6-0.1-4.8,1.2-4.4,4.6c0.1,1.1,0.2,2.3,0,3.5c-0.4,3.1,0.9,4,3.9,3.9
		c8.8-0.2,17.7,0.1,26.5-0.1c3.3-0.1,4.2,0.9,4.2,4.2c0,10.2,0.1,10.2-10.2,10.3c-6.8,0.1-13.7,0.1-20.5,0c-3-0.1-4,1-4,4.1
		c-0.2,10.4-0.4,10.5,9.9,10.5c8.2,0,16.3,0.2,24.5-0.1c3.3-0.1,4.1,1,4.2,4.2c0.1,12,0.2,11.9-11.9,11.9c-14.5,0-29-0.2-43.5,0.1
		c-4.3,0.1-5.3-1.3-5.2-5.4C355.8,430.5,355.7,420.1,355.7,409.8z"/>
	<path class="st0" d="M311.5,374c9.7,0,19.3,0.1,29-0.1c3.3-0.1,5.1,0.5,4.6,4.3c-0.6,4.4,2,10.1-1,12.9c-2.7,2.6-8.3,0.7-12.6,0.7
		c-9.3,0.1-9.3,0-9.3,9.6c0,13.5-0.1,27,0.1,40.5c0,3.3-0.9,4.4-4.2,4.2c-4.5-0.3-9-0.3-13.5,0c-3.6,0.2-4.4-1.2-4.4-4.6
		c0.2-15-0.1-30,0.1-45c0-3.7-0.9-5-4.7-4.8c-4.5,0.3-9-0.1-13.5,0.1c-3.1,0.1-4.4-0.6-4.5-4.1C277.3,374,277.2,374,291,374
		C297.9,374,304.7,374,311.5,374C311.5,374,311.5,374,311.5,374z"/>
	<path class="st0" d="M428.7,410c0-10.3,0.2-20.7-0.1-31c-0.1-4.3,1.3-5.5,5.4-5.1c3.8,0.3,7.7,0.3,11.5,0c3.8-0.3,5.2,0.8,5.1,4.9
		c-0.2,15,0.2,30-0.1,45c-0.1,4.4,1.4,5.3,5.4,5.2c8.5-0.3,17,0,25.5-0.1c2.9-0.1,4,0.7,4.1,3.9c0.3,13.4,0.4,13.4-13,13.4
		c-12.8,0-25.7-0.2-38.5,0.1c-4,0.1-5.5-0.8-5.3-5.1C428.9,430.7,428.7,420.3,428.7,410z"/>
	<path class="st0" d="M237.8,373c-25.7-0.1-39.6,13.1-39.5,37.5c0.1,21.8,12.6,37.5,37.6,36.7c22.3,1,36.9-12.7,37.1-36.6
		C273.1,387.4,259.7,373.1,237.8,373z M251,410.4c-0.4,3.1-0.6,6.3-1.3,9.4c-1.5,7-6.8,11.1-13.9,11.2c-7.2,0.1-12.8-4.1-14.6-11.2
		c-1.6-6.4-1.7-12.9,0-19.3c1.9-7.2,7.4-11.2,14.7-11c7.4,0.3,12.6,4.6,13.9,11.9C250.4,404.4,251.4,407.3,251,410.4z"/>
</g>
</svg>
