<?xml version="1.0" encoding="utf-8"?>
<!-- Generator: Adobe Illustrator 19.0.0, SVG Export Plug-In . SVG Version: 6.00 Build 0)  -->
<svg version="1.1" id="Calque_1" xmlns="http://www.w3.org/2000/svg" xmlns:xlink="http://www.w3.org/1999/xlink" x="0px" y="0px"
	 viewBox="0 0 612 792" style="enable-background:new 0 0 612 792;" xml:space="preserve">
<style type="text/css">
	.st0{fill:#4CA9F0;}
</style>
<path class="st0" d="M590.5,375.1c-0.2-9-0.5-18-1.9-26.8c-4.1-25-12.8-48.6-24.5-71c-15.7-30.1-37-55.9-62.9-78
	c-27.3-23.2-58.2-39.7-92.4-50c-11.8-3.6-23.7-6.4-36.1-7c-7.2-0.4-14.5-0.3-21.8-1.3c-10.7,0-21.3,0-32,0c-2,1.1-4.2,0.4-6.4,0.5
	c-9,0.4-18,0.5-26.8,2c-24.7,4.2-47.9,12.7-70.1,24.1c-30.4,15.7-56.2,37.2-78.4,63.1c-23.3,27.2-39.7,58.2-50,92.4
	c-3.6,11.8-6.4,23.7-7,36.1C80,366.5,80,373.8,79,381c0,10.7,0,21.3,0,32c1.1,2,0.4,4.2,0.5,6.4c0.4,9,0.5,18,2,26.8
	c4.1,24.7,12.7,47.9,24.2,70.1c15.7,30.3,37.1,56.2,63.1,78.4c27.3,23.2,58.2,39.7,92.4,50c11.8,3.6,23.7,6.4,36.1,7
	c7.2,0.4,14.5,0.3,21.8,1.3c10.7,0,21.3,0,32,0c1.9-1,3.9-0.4,5.9-0.5c9-0.2,18-0.5,26.8-1.9c25-4.1,48.6-12.9,71-24.5
	c30.2-15.6,55.9-37,77.9-62.9c23.3-27.3,39.6-58.2,50-92.4c3.6-11.8,6.4-23.7,7-36.1c0.4-7.2,0.3-14.5,1.3-21.8c0-10.7,0-21.3,0-32
	C590,379.1,590.6,377.1,590.5,375.1z M202.4,276.4c0-21,13.2-38.6,32.1-43.9c23.7-6.6,49.8,7.4,55.9,30.2c0.8,3.2,1.4,6.5,1.5,9.8
	c0.2,6.4-4.6,11.8-10.7,12.4c-6.1,0.6-11.4-3.9-12.5-10.4c-2.1-13.3-8.1-18.9-21.3-19.9c-11.3-0.8-21.4,8-21.5,19.5
	c-0.2,28.8,0,57.7-0.1,86.5c0,3.2,1.3,3.9,4.2,3.9c15.3,0,30.7,0.1,46,0.1c16.3,0,32.7-0.3,49-0.1c4.7,0.1,6.2-1,6.2-6
	c-0.3-27.8-0.2-55.7-0.1-83.5c0.1-19.6,13.5-37.1,32-42.3c21.6-6.1,50.6,5.6,56.3,31.5c0.6,2.9,0.9,5.9,0.9,8.9
	c0,6.5-4.9,11.7-11,11.9c-6,0.3-11.5-4.6-12.2-10.9c-1.6-13.4-10.1-20-24.6-19.3c-10.4,0.6-18.2,9.6-18.2,21.8
	c-0.1,30.7-0.1,61.3-0.1,92c0,4.7-0.3,9.3-0.1,14c0.2,3.4-1.1,4.3-4.3,4.3c-14.5-0.1-29,0-43.5,0c-9.3,0-18.7,0-28,0
	c-23.5,0-47-0.1-70.5,0.1c-3.4,0-5-0.4-5.1-4.5C201.9,347,202.3,311.7,202.4,276.4z M511.6,549.6c-0.2,9.3-5.4,13.6-14.6,12.2
	c-12.3-1.9-23.1-7.2-33.2-14.2c-8.4-5.8-16.7-11.5-26.2-15.4c-14.6-6.1-29.9-7.4-45.4-7.6c-26.1-0.4-49.2,7.5-70.4,22.6
	c-31.7,22.6-64.1,19.8-96.4,0.7c-12.3-7.3-24.3-15.2-38.2-19.2c-6.2-1.8-12.6-3.2-19.1-3.6c-6.5-0.4-10.4-4.4-10.5-11
	c-0.1-9.7-0.1-19.3,0-29c0.1-7.6,4.1-11.4,11.6-11c13.5,0.7,26,5.2,37.8,11.7c8.7,4.8,17.1,10.4,25.9,14.9
	c29.8,15.1,59,15.4,87.3-3.9c12.7-8.6,25.5-17,40.9-20.1c28.7-5.9,56.8-5.7,83.8,7.6c7.2,3.5,13.6,8.3,20.2,12.9
	c11.2,7.7,23.3,12.7,36.9,14c5.7,0.5,9.2,4.8,9.5,11c0.1,2.5,0,5,0,7.5c0,2.3,0,4.7,0,7C511.6,540.9,511.7,545.3,511.6,549.6z
	 M511.6,475.6c-0.2,8.4-4.8,12.3-13.3,11.4c-11.3-1.2-21.4-5.7-30.9-11.9c-11.9-7.8-23.4-16.4-37.5-20.5
	c-17.2-5.1-34.7-5.4-52.4-4.1c-20.9,1.5-39.1,9.8-55.8,22c-15.8,11.5-33.4,16.7-53,15.4c-17.3-1.1-32.4-7.9-46.8-16.9
	c-13.8-8.7-28-16.7-44.4-19.4c-3.6-0.6-7.2-1.1-10.8-1.6c-5.1-0.7-8.6-4.1-8.8-9.2c-0.3-5.5-0.1-11-0.1-16.5c0,0-0.1,0-0.1,0
	c0-4.5-0.1-9,0-13.5c0.1-8.5,5.1-12.8,13.5-11.6c13,1.8,25.2,5.8,36.7,12.2c11.3,6.3,21.8,14.1,34,18.8c26.6,10.3,52.3,9.4,76.6-6.8
	c12.6-8.4,25-17.2,40.1-20.6c36.1-8,70.7-6.5,101.8,16.4c12.3,9.1,25.6,15.8,41.3,17.2c6.4,0.6,9.7,4.8,9.8,11.2
	C511.8,456.9,511.8,466.3,511.6,475.6z"/>
</svg>
