<?xml version="1.0" encoding="utf-8"?>
<!-- Generator: Adobe Illustrator 19.0.0, SVG Export Plug-In . SVG Version: 6.00 Build 0)  -->
<svg version="1.1" id="Calque_1" xmlns="http://www.w3.org/2000/svg" xmlns:xlink="http://www.w3.org/1999/xlink" x="0px" y="0px"
	 viewBox="0 0 612 792" style="enable-background:new 0 0 612 792;" xml:space="preserve">
<style type="text/css">
	.st0{fill:#83FDFD;}
	.st1{fill:#FDB200;}
	.st2{fill:#42A4F3;}
	.st3{fill:#3949AA;}
	.st4{fill:#6A4A40;}
	.st5{fill:#FD8E00;}
	.st6{fill:#283592;}
	.st7{fill:#FD3D00;}
	.st8{fill:#DB2C00;}
	.st9{fill:#ECECEC;}
	.st10{fill:#FDFDFD;}
	.st11{fill:#FBFBFB;}
	.st12{fill:#FCFCFC;}
	.st13{fill:#4BA9ED;}
	.st14{fill:#BADCF9;}
	.st15{fill:#82F3F3;}
</style>
<g>
	<path class="st0" d="M298,101.8c10.3,0,20.7,0,31,0c7.1,0.9,14.2,0.5,21.3,1.2c18.2,1.8,35.7,6.5,52.7,13
		c58.4,22,103.3,60.1,134.6,113.9c15.1,26,25.3,54,30.2,83.7c1.3,7.7,1.6,15.5,1.7,23.4c0,1.9-0.6,4,0.5,5.9c0,10,0,20,0,30
		c-1,7.2-0.6,14.5-1.3,21.8c-2,21.1-8.1,41.2-16.1,60.6c-10.7,26.1-25,50.1-43.7,71.3c-34.2,38.7-75.9,65.5-125.8,79.6
		c-17,4.8-34.1,7.3-51.7,7.2c-0.8,0-1.7-0.1-2.4,0.5c-10,0-20,0-30,0c-7.2-1-14.5-0.6-21.8-1.3c-21.4-2.2-41.7-8.3-61.5-16.5
		c-25.7-10.7-49.4-24.8-70.3-43.3c-23.1-20.5-42.8-43.7-57.5-71c-13.6-25.3-23.3-51.9-27.9-80.2c-1.2-7.2-1.3-14.5-1.6-21.8
		c-0.1-1.9,0.6-4-0.5-5.8c0-10.7,0-21.3,0-32c1-6.6,0.7-13.2,1.3-19.8c1.6-19.5,6.9-38,13.9-56.1c20.9-54,56.2-96.4,105.1-127.2
		c28.4-17.8,59.2-29.7,92.5-34.9c8-1.2,16.2-1.6,24.4-1.6C296.1,102.3,297.2,102.6,298,101.8z"/>
	<path class="st1" d="M446.9,475.7c-1.6,0-3.2,0-4.9,0c-1.9-1.6-1.6-3.9-1.8-6c-1.7-25.3-17.7-42.8-42.8-45.6
		c-13.6-1.6-25.9,2.7-36.5,11.8c-10.8,9.4-16.4,21.2-17.3,35.3c-0.1,1.7-0.3,3.3-1.7,4.5c-21.3,0-42.7,0-64,0
		c-1.5-1.3-1.6-3.2-1.7-5c-1.5-38.8-44-59.4-77-38.8c-14.2,8.9-22.4,21.4-23.5,38.3c-0.1,2-0.1,4-1.7,5.5c-4.4,0-8.8,0.1-13.2,0.1
		c-2.1-2.7,0.3-6.2-1.3-9c-2.2-3.8-5.6-5.2-9.9-5.1c-3.9,0.1-7.9,0.1-11.8,0c-2.1-0.1-4.3,0.1-5.8-1.9c-6.1-27-7.9-54.2-5.2-81.8
		c0.2-2,0.3-4,0.5-6c1.3-1.5,3-2,4.9-2.1c0.8,0,1.7-0.1,2.5-0.1c102.7,0,205.5,0,308.2,0c7.4,0,14.1,2.1,20.2,6.2
		c11.4,7.7,18.6,18.3,22.7,31.2c0.3,2.4-1.3,4-2.5,5.7c-3.2,4.8-4.2,10-2.8,15.6c1.6,6.5,4.1,8.6,10.8,9.3c1,0.1,2,0.3,2.7,1
		c3.7,6.8,2.9,14.1,2.4,21.3c-2.2,1.9-5,1.6-7.6,1.7c-9.8,0.1-19.6,0.1-29.3,0c-4.6-0.1-8.5,1.1-11.5,4.6
		C445.6,469.3,448.4,472.7,446.9,475.7z"/>
	<path class="st2" d="M485,408.6c-4.2-9.5-9-18.5-16.6-25.8c-7.3-7-15.8-11-26-11c-104.1,0-208.1,0-312.2,0c-1,0-2,0.1-3,0.1
		c2.4-18.6,6.9-36.5,15.9-53.1c5.1-9.5,11.8-17.6,20.4-24.2c2.7-2,5.4-2.9,8.7-2.9c18,0,35.9-0.1,53.9-0.1c2.3-2.3,5.2-1.7,8-1.5
		c2.8-0.5,5.6-0.3,8.4-0.1c13.1-0.5,26.1-0.6,39.2,0c2.8-0.2,5.6-0.5,8.3,0.1c3.6-0.5,7.2-0.4,10.8-0.3c4.1,1,8.2-0.3,12.3-0.2
		c3.3,0.2,6.6,0,9.9,0.5c19.5-0.8,39.1-0.2,58.6-0.3c2.3,0,4.7,0.1,6.4,2c12,0,23.9,0.2,35.9-0.1c7.1-0.2,12.6,2.8,16.3,8
		c12,17.1,24.9,33.7,35.2,51.9c9.8,17.2,14.6,36.2,17.9,55.6c0.1,0.6-0.1,1.3-0.2,1.9C490.3,410.2,487.6,410.2,485,408.6z"/>
	<path class="st3" d="M322.1,291.6c-3,0-6,0.9-8.9-0.9c-3-1.2-2.9-4.2-3.5-6.6c-0.4-1.8-1.1-3.4-1.4-5.2c-0.6-3.9-0.4-7.8-0.3-11.7
		c0.1-1.8,0.4-3.6,2.1-4.7c2.5-10.4,6.3-20.2,14.3-27.8c11.6-10.9,24.9-14,39.9-8.3c3,1.1,4.2,0.9,4.5-2.2c0-0.2,0-0.3,0.1-0.5
		c1.3-3.7,0.5-9.3,3.7-10.6c2.1-0.8,6.3,3.5,9.5,5.5c2.3,1.5,4.6,3.1,7.6,5.2c-3.2,1.6-5.6,2.8-8.1,4.1c-2.4,1.2-4.7,2.4-7.5,3.8
		c1.3,1.6,2.4,2.9,3.5,4.2c-0.2,2.4-1.9,3.8-3.5,5.3c-15.5,15.5-31,31-46.5,46.6C326.1,289.4,324.3,290.7,322.1,291.6z"/>
	<path class="st4" d="M262.2,471.9c-3.5,20-16.6,32.1-34.7,31.9c-17.6-0.2-30.3-12.2-33.6-31.9c-1.9-1.7-1.6-3.9-1.4-6.1
		c1.6-17.8,17.6-31.9,35.8-31.8c18,0.1,33.8,14.3,35.3,31.9C263.8,468,264,470.2,262.2,471.9z"/>
	<path class="st4" d="M426.2,471.9c-3.4,20.1-16.9,32.3-35.2,31.9c-14.2-0.3-30.8-10.5-33.1-31.9c-2.2-2.2-1.6-4.9-1.2-7.5
		c2.7-17.5,17.7-30.4,35.4-30.4c17.6,0,32.6,12.9,35.4,30.4C427.8,467,428.4,469.7,426.2,471.9z"/>
	<path class="st5" d="M262.2,471.9c0.2-20.8-13.9-32.4-26.5-35.2c-21.3-4.7-41.2,10.8-41.7,32.7c0,0.8-0.1,1.7-0.2,2.5
		c-6.6,1.4-13.1,3.1-19.8,3.7c-2.1-31.3,25.1-53.8,53.1-53.7c28.1,0.1,52.4,21.7,50.9,53.7C272.7,474.4,267.4,473.2,262.2,471.9z"/>
	<path class="st6" d="M322.1,291.6c10.5-10.7,21-21.4,31.5-31.9c8-8,16.1-15.9,24.2-23.8c13.3,14.5,16.4,31.5,11.8,50.2
		c-0.5,1.9-1.1,3.8-1.7,5.7C366,291.7,344,291.7,322.1,291.6z"/>
	<path class="st5" d="M426.2,471.9c-1.1-19.1-10.6-31.7-26.6-35.2c-21.5-4.8-41.2,10.7-41.6,32.8c0,0.8-0.1,1.7-0.1,2.5
		c-5.3,1.2-10.6,2.5-15.9,3.7c-0.5-20.6,8.1-36.4,25.7-46.8c29-17.2,67.9-1.2,73.5,34c0.7,4.3,0.8,8.6,0.9,12.9
		C436.8,474.4,431.5,473.2,426.2,471.9z"/>
	<path class="st7" d="M242,236c13.4,0,26.7,0,40.1,0c2.3,2.4,1.8,5.1,1.3,7.9c-0.6,2-2.1,3.4-3.5,4.8c-10.8,11-21.7,21.9-32.7,32.6
		c-1.7,1.6-3.8,5.2-6.6,0.8c-1.3-8.6-0.3-17.2-0.6-25.8c-0.1-4.8-0.1-9.6,0-14.4C240,239.7,240.2,237.6,242,236z"/>
	<path class="st8" d="M310.2,262.5c0,5.9,0,11.7,0,17.6c0.2,7.7-1.6,9.9-9.1,11.6c-3.7,0-7.4-0.1-11.1-0.1c-2-1.7-2-4.1-2-6.4
		c0-14.3,0-28.6,0-42.8c0-2.3,0.1-4.7,2-6.4c1.2,0,2.3-0.1,3.5-0.1c12.8-0.1,16.5,3.6,16.5,16.3C310,255.6,310.1,259,310.2,262.5z"
		/>
	<path class="st7" d="M234,291.6c-2.7,0-5.3,0-8,0c-6-3-8.5-7.7-8.1-14.5c0.4-8.6,0.6-17.4,0-26c-0.8-10.8,6.1-17,16.1-15.2
		c2,1.7,2,4.1,2.1,6.4c0,14.3,0,28.6,0,42.9C236,287.6,236,289.9,234,291.6z"/>
	<path class="st9" d="M446.9,475.7c-1.2-2.9-3.2-5.7-0.9-8.9c4.2-1.4,8.2-1.7,12.9-1.4c9.9,0.8,20,0.9,29.8,0c5.9-0.6,11,1,16.4,1.4
		c2,6.3-2.1,12.8-8.7,13c-13.9,0.3-27.9,0.1-41.8,0.1C451.3,479.8,449.2,477.4,446.9,475.7z"/>
	<path class="st10" d="M485,408.6c2.8-1.2,5.5-0.8,8.1,0.5c7.9,7.5,7.1,16.3,3.9,25.5c-0.9,1.7-1.2,3.9-3.8,4
		c-6.2,2.1-10.1,0.6-13-5.2C475.8,424.9,477.8,415,485,408.6z"/>
	<path class="st9" d="M161.2,466.6c2,3.1,0.2,6.1-0.4,9.1c-2.8,3.2-6.3,4.4-10.7,4.2c-5.8-0.3-11.7-0.1-17.5-0.1
		c-8.1,0-12-5.2-9.8-13.1C127.6,465.1,157.2,465,161.2,466.6z"/>
	<path class="st11" d="M234,291.6c0-18.6,0-37.1,0-55.7c2.7,0,5.3,0,8,0c0.1,15.9,0.1,31.9,0.2,47.8c2.2,2.7,2.1,5.3-0.2,7.8
		C239.3,291.6,236.7,291.6,234,291.6z"/>
	<path class="st12" d="M290,235.9c0,18.6,0,37.1,0,55.7c-2.7,0-5.3,0-8,0c-2-1.7-2-4.1-2-6.4c0-11.1,0-22.2,0-33.3
		c0-2.6,0.8-4.9,1.9-7.1c0.1-2.9,0.1-5.9,0.2-8.8C284.7,236,287.4,235.9,290,235.9z"/>
	<path class="st12" d="M505.1,466.7c-3.4,1.4-6.9,2.2-10-0.5c-1.1-0.9-1.7-0.3-2.6,0c-5.9,2.1-11.9,3-17.7-0.3
		c-0.7-0.4-1.2-0.3-1.8,0c-6.2,2.7-12.4,3.4-18.5-0.2c-1-0.6-1.8,0.5-2.6,1.1c-2,1.4-4,1.5-5.9,0c1.8-5.2,5.8-6.9,10.8-7
		c13.1-0.1,26.2-0.1,39.2-0.2c0.7-0.4,1.4-0.4,2,0.2C500.9,461.6,504.2,462.9,505.1,466.7z"/>
	<path class="st12" d="M161.2,466.6c-0.7,0.9-1.7,1.4-2.6,1.1c-8-2.3-16.4,2.5-24.5-1.2c-1.6-0.7-3.8,1.6-6.1,1.3
		c-1.8-0.3-3.7,0.4-5.2-1.2c1.2-4.6,4.4-6.8,9-7c6.6,0,13.2,0.1,19.8,0.1C156.4,459.8,159.8,461.8,161.2,466.6z"/>
	<path class="st13" d="M498,459.9c-0.7-0.1-1.4-0.2-2-0.2c-0.6-7.1-1.1-14.1-2.8-21.1c1.3-1.3,2.5-2.7,3.8-4
		C497.8,443,498.2,451.4,498,459.9z"/>
	<path class="st14" d="M414.1,355.8c-11.5,0-23,0-34.5,0c-8.8,0-13.6-4.8-13.6-13.6c0-5.7,0-11.3,0-17c0.1-8.5,4.9-13.4,13.3-13.4
		c13.5,0,27-0.1,40.5,0c7.8,0,14.4,3.2,18.9,9.5c5.8,7.9,11.2,16.2,16.5,24.4c3.8,5.9,1.5,10-5.6,10.1
		C437.7,355.9,425.9,355.8,414.1,355.8z"/>
	<path class="st14" d="M205.6,355.8c-8.8,0-17.6,0-26.5,0c-8.1-0.1-13-5-13.1-13.1c0-6,0-12,0-18c0.1-7.8,5-12.9,12.7-12.9
		c18.3-0.1,36.6-0.1,54.9,0c7.1,0,12.2,5.1,12.4,12.3c0.1,6.5,0.1,13,0,19.5c-0.2,7.2-5.2,12.1-12.5,12.2
		C224.2,355.9,214.9,355.8,205.6,355.8z"/>
	<path class="st14" d="M306.1,311.8c8.6,0,17.3,0,25.9,0c9.2,0,13.9,4.7,14,13.7c0,5.8,0.1,11.6,0,17.5c-0.1,7.8-5,12.8-12.9,12.8
		c-18.1,0.1-36.3,0.1-54.4,0c-7.5,0-12.6-5-12.7-12.5c-0.1-6.3-0.1-12.6,0-19c0.1-7.5,5.1-12.5,12.6-12.5
		C287.8,311.7,296.9,311.8,306.1,311.8z"/>
	<path class="st8" d="M281.8,244.8c0.1,15.6,0.1,31.2,0.2,46.8c-13.3,0-26.7,0-40,0c0.1-2.6,0.1-5.2,0.2-7.8
		c11.5-11.4,23-22.8,34.6-34.2C278.4,247.9,280.1,246.4,281.8,244.8z"/>
	<path class="st15" d="M301.1,291.7c5.1-2.2,8.5-5.8,9.1-11.6c1,3.6,2,7.1,3.1,10.7C309.3,292.8,305.1,291.4,301.1,291.7z"/>
	<path class="st10" d="M210.8,469.5c0.2-9.9,7.7-17,17.7-16.9c9.5,0.1,16.8,7.8,16.7,17.5c-0.1,9.7-8,17.2-17.8,16.9
		C217.9,486.8,210.6,479.2,210.8,469.5z"/>
	<path class="st10" d="M409.2,470.1c-0.2,9.9-7.7,17-17.8,16.9c-9.5-0.2-16.8-7.9-16.7-17.5c0.2-9.8,8-17.2,17.8-16.9
		C402.2,452.8,409.4,460.4,409.2,470.1z"/>
</g>
</svg>
