<?xml version="1.0" encoding="utf-8"?>
<!-- Generator: Adobe Illustrator 19.0.0, SVG Export Plug-In . SVG Version: 6.00 Build 0)  -->
<svg version="1.1" id="Calque_1" xmlns="http://www.w3.org/2000/svg" xmlns:xlink="http://www.w3.org/1999/xlink" x="0px" y="0px"
	 viewBox="0 0 612 792" style="enable-background:new 0 0 612 792;" xml:space="preserve">
<style type="text/css">
	.st0{fill:#E5F0C2;}
	.st1{fill:#E7F1C6;}
	.st2{fill:#C5DE76;}
	.st3{fill:#1F6971;}
	.st4{fill:#DDDEDE;}
	.st5{fill:#8BDDF0;}
	.st6{fill:#29888D;}
	.st7{fill:#1F6A72;}
	.st8{fill:#206A72;}
	.st9{fill:#1F6A71;}
</style>
<g>
	<path class="st0" d="M293.9,93.9c0-0.3,0.1-0.6,0.1-0.9c9.3,0,18.7,0,28,0c0,0.3,0,0.6,0.1,0.9c-0.8,1-1.8,1.4-3,1.5
		c-7.4,0.4-14.8,0.4-22.2,0C295.8,95.3,294.7,94.9,293.9,93.9z"/>
	<path class="st0" d="M52,335c0.3-0.1,0.6-0.1,0.9-0.1c1,0.8,1.4,1.8,1.5,3c0.4,7.4,0.4,14.8,0,22.2c-0.1,1.2-0.5,2.2-1.5,3
		c-0.3,0-0.6,0-0.9-0.1C52,353.7,52,344.3,52,335z"/>
	<path class="st1" d="M563.1,334.9c0.3,0,0.6,0,0.9,0.1c0,9.3,0,18.7,0,28c-0.3,0.1-0.6,0.1-0.9,0.1c-1-0.8-1.4-1.8-1.5-3
		c-0.4-7.4-0.4-14.8,0-22.2C561.7,336.8,562.1,335.7,563.1,334.9z"/>
	<path class="st1" d="M294,605c0-0.3,0-0.6-0.1-0.9c0.8-1,1.8-1.4,3-1.5c7.4-0.4,14.8-0.4,22.2,0c1.2,0.1,2.2,0.5,3,1.5
		c0,0.3-0.1,0.6-0.1,0.9C312.7,605,303.3,605,294,605z"/>
	<path class="st2" d="M322.1,604.1c-9.4,0-18.8,0-28.2,0C164.4,597.4,59.6,493,52.9,363.1c0-9.4,0-18.8,0-28.2
		c6.7-129.8,111.4-234.3,241-241c9.4,0,18.8,0,28.2,0c130,6.8,234.3,111.6,241,241.1c0,9.4,0,18.8,0,28.2
		C557.4,491.5,450.5,598.4,322.1,604.1z"/>
	<path class="st3" d="M426,199.1c3.4,1.8,2.7,5,2.7,7.9c0,43,0.1,86,0.1,129c0,55.3,0,110.6,0,166c0,8.7-1.2,9.8-9.7,9.8
		c-73,0-146,0-218.9,0c-4.3,0-6.6-1.1-9.2-5.4c-6.4-10.6-2.6-21.7-3.2-32.4c-0.9-17.7-0.3-35.6-0.3-53.4c0-16.1,0.2-32.3,0.2-48.4
		c0-17-0.1-33.9-0.2-50.9c0-8.7-0.1-17.3-0.1-26c0-18.6,0-37.3,0-55.9c0-14.6-0.1-29.3,0-43.9c0.1-8.3,1.3-9.3,9.8-9.3
		c72.3,0,144.6,0,216.9,0c6.7,0,7.7,1.1,8.2,8.8c1.5,2,1.3,4.4,1.3,6.7c0,97.7,0,195.3,0,293c0,9.8-2,11.7-11.7,11.7
		c-70.5,0-141,0-211.5,0c71.3,0,142.5,0,213.8,0c9.3,0,10.2-0.8,10.2-10.3c0-95.8,0-191.7,0-287.5C424.4,205.5,423.6,202,426,199.1z
		"/>
	<path class="st4" d="M426,199.1c0,41-0.1,82-0.1,123c0,59.5,0,119,0,178.5c0,6-1.4,7.4-7.2,7.4c-72.7,0-145.3,0-218,0
		c-2.5,0-5.4,0.8-7.3-2.8c1.7-0.1,3.1-0.3,4.4-0.3c71.8,0,143.7,0,215.5,0c7.9,0,8.8-0.9,8.8-8.9c0-99,0-198,0-297
		c0-1.3,0.1-2.7,0.2-4C424.7,195.4,425.1,197.5,426,199.1z"/>
	<path class="st5" d="M230.7,314.5c0.1-42.1,33-74.5,75.6-74.4c39.9,0.1,72.9,34,72.8,74.8c-0.1,40.9-33.7,74.2-74.7,74
		C263.8,388.7,230.6,355.3,230.7,314.5z"/>
	<path class="st6" d="M305.1,451c22,0,44,0.1,66-0.1c4,0,7.1,0.8,7.6,5.2c0.4,3.8-2.5,5.8-7.7,5.8c-44,0-87.9,0-131.9,0
		c-4.2,0-7.8-1.2-7.8-5.7c0-4.7,3.9-5.3,7.9-5.3C261.1,451,283.1,451,305.1,451z"/>
	<path class="st6" d="M305,423c22,0,43.9,0,65.9,0c3.8,0,7.1,0.2,7.1,5.3c0,4.4-1.6,5.8-7.3,5.8c-44.1,0-88.2,0-132.3,0.1
		c-4.3,0-7.1-1.7-7.2-5.7c-0.1-4.4,3.4-5.4,7.3-5.4C260.7,423,282.8,423,305,423z"/>
	<path class="st7" d="M305.7,319.1c6.7,0,13.3,0.1,20,0c2.9-0.1,3.8,0.9,3.5,3.8c-0.5,5.3-1.7,10.5-3.1,15.6c-0.5,2-1.5,2.8-3.5,2.5
		c-10.9-1.9-21.9-1.9-32.8-0.8c-3.1,0.3-4.5-0.6-5-3.8c-0.6-4.3-1.7-8.5-2.6-12.7c-0.8-3.5,0.4-4.7,4.1-4.6
		C292.7,319.2,299.2,319.1,305.7,319.1z"/>
	<path class="st8" d="M306,310c-6.6,0-13.3-0.1-19.9,0.1c-3.1,0.1-4.8-0.6-4.1-4.1c0.1-0.3,0-0.7,0-1c0.4-14.3,2.5-16.1,16.4-14.5
		c7.7,0.9,15.3,0,22.8-1.2c4.2-0.6,6.1,0.5,6.6,4.6c0.5,4.1,1.1,8.2,1.9,12.3c0.6,3.2-0.8,4-3.8,3.9C319.3,309.8,312.7,310,306,310z
		"/>
	<path class="st7" d="M354.8,319.1c2.5,0,5,0,7.5,0c9.7,0,7.7-0.9,6.5,7.5c-1.2,7.9-4.3,15.3-8.6,22.1c-1.5,2.4-2.6,3.3-5.4,1.8
		c-5.2-2.9-10.9-4.9-16.7-6.3c-2.8-0.7-3.9-1.8-2.8-4.8c1.9-5.5,2.6-11.3,3.3-17c0.3-2.5,1.3-3.4,3.8-3.3
		C346.5,319.2,350.6,319.1,354.8,319.1z"/>
	<path class="st7" d="M256.3,319.3c5,0,10.9-1.7,14.7,0.5c4.1,2.3,2.1,9,3.3,13.7c2.1,8.3,1.9,8.2-6.6,10.6
		c-4.8,1.3-9.5,2.9-14.2,4.6c-2.5,1-3.8,0.6-5.1-1.8c-4.2-7.5-6.7-15.5-8.2-23.9c-0.6-3.2,0.6-4.1,3.7-3.9c4.1,0.2,8.3,0,12.5,0
		C256.3,319.1,256.3,319.2,256.3,319.3z"/>
	<path class="st8" d="M354.4,310c-4.2,0-8.3-0.1-12.5,0c-2.1,0-2.9-0.6-3-2.8c-0.2-6-1-11.9-2.7-17.7c-0.6-2.3,0.2-3.2,2.4-3.9
		c5.9-1.7,11.7-3.7,17.1-6.7c2.5-1.4,3.5-0.3,4.7,1.6c5,8.2,7.9,17.1,9.2,26.6c0.4,2.5-0.8,2.8-2.7,2.8
		C362.7,309.9,358.6,310,354.4,310z"/>
	<path class="st7" d="M256,310c-4,0-8-0.2-12,0.1c-3.3,0.2-4.6-0.8-3.9-4.2c1.5-8,3.9-15.7,7.8-23c1.3-2.4,2.5-2.8,5-1.8
		c6.3,2.5,12.8,4.7,19.5,5.9c2.5,0.5,3.1,1.7,2.4,3.8c-1.5,5.1-1.9,10.4-2.4,15.7c-0.2,2.7-1.1,3.7-3.9,3.6
		C264.4,309.8,260.2,310,256,310z"/>
	<path class="st9" d="M303.6,280.8c-4,0-8,0-12,0c-2.9,0-3.8-1.2-2.5-4c3.9-8.5,8.8-16.4,14.5-23.8c1.7-2.2,2.7-1.7,4.1,0.1
		c5.8,7.3,10.7,15.2,14.4,23.8c1.2,2.7,0.1,2.9-2.2,3.2C314.6,281,309.1,281.1,303.6,280.8z"/>
	<path class="st7" d="M321.7,350.2c-4.2,10-9.5,18.7-15.9,27.2c-6.2-7.9-10.9-15.9-14.9-24.3c-1-2-1.8-3.9,1.7-3.9
		C302.1,348.9,311.6,348.3,321.7,350.2z"/>
	<path class="st7" d="M294.5,378.3c-9-0.8-16-4-22.7-7.9c-4.9-2.8-9.3-6.3-13.3-10.4c-1.9-1.9-1.6-2.8,0.9-3.7
		c5.8-1.9,11.7-3.7,17.7-4.9c1.3-0.3,2.6-0.7,3.3,1C284,361.3,288.8,369.5,294.5,378.3z"/>
	<path class="st7" d="M293.9,250.2c-6.3,8.7-11.3,17.2-14.8,26.5c-0.8,2-2,1.7-3.6,1.4c-5.7-1.2-11.2-2.8-16.7-4.8
		c-2.6-0.9-3.2-1.7-1-3.9C267.6,259.4,279.3,253.1,293.9,250.2z"/>
	<path class="st7" d="M316.8,378.3c5.3-8.4,9.9-15.9,13.2-24.1c0.7-1.6,1.5-2.5,3.4-1.9c6.1,2,12.3,3.7,18.3,7.2
		C342.1,369.2,331.1,375.5,316.8,378.3z"/>
	<path class="st7" d="M318,250.7c13.4,2.9,23.9,8.8,32.8,17.7c1.3,1.3,1.2,2.1-0.5,2.9c-4.8,2.3-9.8,4.1-14.9,5.6
		c-1.6,0.5-2.9,0.3-3.6-1.6C328.4,266.8,323.8,259,318,250.7z"/>
</g>
</svg>
