<?xml version="1.0" encoding="utf-8"?>
<!-- Generator: Adobe Illustrator 19.0.0, SVG Export Plug-In . SVG Version: 6.00 Build 0)  -->
<svg version="1.1" id="Calque_1" xmlns="http://www.w3.org/2000/svg" xmlns:xlink="http://www.w3.org/1999/xlink" x="0px" y="0px"
	 viewBox="0 0 612 792" style="enable-background:new 0 0 612 792;" xml:space="preserve">
<style type="text/css">
	.st0{fill:#30302F;}
	.st1{fill:#343433;}
	.st2{fill:#373736;}
	.st3{fill:#383837;}
	.st4{fill:#313130;}
	.st5{fill:#323231;}
	.st6{fill:#333332;}
</style>
<g>
	<path class="st0" d="M452.1,249.5c0-6.5,0-6.6-6.8-6.6c-40.3,0-80.6,0-120.9,0c-87,0-173.9,0-260.9-0.1c-4.4,0-5.7,1.4-5.7,5.8
		c0.1,61.3,0.1,122.6,0.1,183.9c0,6.6,0.1,6.6,6.7,6.6c63.5,0,127,0,190.4,0c63.3,0,126.6,0,189.9,0c7.2,0,7.2,0,7.2-7.2
		C452.1,371.1,452.1,310.3,452.1,249.5z M446,427.5c0,4.5-1.2,5.5-5.5,5.4c-31.8-0.2-63.6-0.2-95.5,0c-4.7,0-6.9-0.9-5.9-5.9
		c0.1-0.5,0-1,0-1.5c0.1-2.1-0.8-3.6-3.1-3.6c-2.3,0-3,1.5-3.2,3.6c-0.7,7.3-0.8,7.3-8.4,7.3c-85.1,0-170.3,0-255.4,0.1
		c-4,0-5-1-5-4.9c0.1-40.5,0.2-81,0-121.5c0-4.2,1.5-4.8,5.1-4.7c43.2,0.1,86.3,0.1,129.5,0.1c43,0,86,0.1,129-0.1
		c4.4,0,6.2,1,5.3,5.4c-0.1,0.6,0,1.3,0,2c0,2,0.5,3.8,2.9,3.9c2.6,0.1,3.3-1.6,3.4-3.9c0.5-7.3,0.6-7.3,7.8-7.3
		c31.2,0,62.3,0.1,93.5-0.1c4.1,0,5.6,0.6,5.6,5.3C445.8,347.2,445.8,387.4,446,427.5z M445,294.4c-2.7,2.8-8.5,0.9-13,0.9
		c-59.2,0.1-118.3,0-177.5,0c0,0,0,0,0,0c-61.7,0-123.3-0.1-185,0.1c-4.8,0-5.7-1.5-5.6-5.8c0.3-12,0.2-24,0-36
		c-0.1-3.4,0.8-4.5,4.4-4.5c61,0.1,122,0.1,183,0.1c25.3,0,50.7,0,76,0c3.1,0,6.2-0.5,5.5,4.4c-0.2,1.7,1.3,2.6,3,2.6
		c2,0,3.3-1.2,3-3.1c-0.5-3.8,1.6-3.9,4.4-3.9c32.7,0.1,65.3,0.1,98,0c3.4,0,4.8,0.8,4.5,4.4c-0.3,4-0.3,8,0,12
		c0.3,3.8-0.9,4.7-4.6,4.7c-34.7-0.2-69.3-0.1-104-0.1c-64,0-128,0-192,0c-1,0-2-0.1-3,0c-1.9,0.2-3.2,1.2-3.2,3.1
		c-0.1,2,1.3,3,3.2,3.1c2,0.1,4,0.1,6,0.1c59.8,0,119.7,0,179.5-0.1c3.5,0,5.9,0.2,5.2,4.7c-0.3,2.1,0.8,3.7,3,3.8
		c2.6,0,3.5-1.9,3.2-4.1c-0.5-3.6,1.1-4.4,4.5-4.4c32.5,0.1,65,0.1,97.5,0c4,0,5.3,1.1,4.9,5C445.5,285.8,447.7,291.6,445,294.4z"/>
	<path class="st1" d="M226.3,391.2c26.6,0,53.3,0,79.9,0c1.3,0,2.7-0.1,4,0.2c1.6,0.3,2.7,1.3,2.7,3.1c0,1.8-1.1,2.9-2.6,3.2
		c-1.6,0.3-3.3,0.2-5,0.2c-53.1,0-106.2,0-159.3,0c-0.3,0-0.7,0-1,0c-2.7,0-6,0.3-5.9-3.5c0.1-3.4,3.3-3.1,5.8-3.1
		c23.6,0,47.3,0,70.9,0C219.3,391.2,222.8,391.2,226.3,391.2C226.3,391.2,226.3,391.2,226.3,391.2z"/>
	<path class="st0" d="M226,319.9c25.7,0,51.3,0,77,0c2.3,0,4.7-0.1,7,0.1c1.9,0.1,3.1,1.3,3,3.3c-0.1,1.7-1.2,2.7-2.9,2.8
		c-1.2,0.1-2.3,0.1-3.5,0.1c-53.7,0-107.3,0-161,0c-1.2,0-2.3,0-3.5-0.1c-1.7-0.1-2.9-1.1-3-2.8c-0.1-2,1-3.1,2.9-3.4
		c1-0.1,2-0.1,3-0.1C172,319.9,199,319.9,226,319.9z"/>
	<path class="st0" d="M225.5,362c-26.8,0-53.7,0-80.5,0c-1,0-2,0.1-3,0c-1.9-0.3-3-1.5-2.9-3.4c0.1-1.7,1.3-2.7,3-2.8
		c1.8-0.1,3.7-0.1,5.5-0.1c53.2,0,106.3,0,159.5,0c0.7,0,1.3,0,2,0c2,0,3.8,0.6,3.9,2.9c0.1,2.5-1.6,3.4-3.9,3.4
		c-9.8,0-19.7,0-29.5,0C261.5,362,243.5,362,225.5,362C225.5,362,225.5,362,225.5,362z"/>
	<path class="st0" d="M375,327.8c5.8,0,11.6,0,17.4,0c2.2,0,4.3,0.3,4.4,2.9c0.1,2.8-2,3.4-4.4,3.4c-11.5,0-22.9,0-34.4,0
		c-2.4,0-4.5-0.5-4.4-3.4c0.1-2.6,2.2-2.9,4.4-2.9C363.7,327.8,369.3,327.8,375,327.8C375,327.8,375,327.8,375,327.8z"/>
	<path class="st0" d="M375.5,362c-5.8,0-11.6,0-17.4,0c-2.4,0-4.5-0.5-4.4-3.4c0.1-2.7,2.2-2.9,4.4-2.9c11.4,0,22.9,0,34.3,0
		c2.1,0,4.3,0.3,4.4,2.9c0.1,2.8-2,3.4-4.4,3.4C386.8,362,381.1,362,375.5,362z"/>
	<path class="st2" d="M96.8,391.2c4.6,0,9.3,0,13.9,0c2.4,0,4.6,0.5,4.7,3.2c0.1,2.7-2,3.5-4.4,3.5c-9.6,0-19.3,0-28.9,0
		c-2.2,0-4.1-0.6-4.2-3.2c-0.1-2.9,2.1-3.4,4.4-3.5C87.2,391.2,92,391.2,96.8,391.2C96.8,391.2,96.8,391.2,96.8,391.2z"/>
	<path class="st0" d="M96.6,326.2c-4.8,0-9.7,0-14.5,0c-2.2,0-4.1-0.4-4.1-3.1c0-2.7,1.9-3.2,4.1-3.2c9.8,0,19.6,0,29.5,0
		c2.1,0,3.8,0.8,3.9,2.9c0.1,2.5-1.6,3.4-3.9,3.4C106.6,326.2,101.6,326.2,96.6,326.2z"/>
	<path class="st0" d="M96.5,362c-4.8,0-9.7,0-14.5,0c-2.3,0-4-0.8-4-3.3c0-2.4,1.7-3,3.8-3c10,0,20,0,30,0c2.1,0,3.8,0.8,3.8,3
		c0,2.4-1.7,3.3-4.1,3.3C106.5,362,101.5,362,96.5,362C96.5,362,96.5,362,96.5,362z"/>
	<path class="st3" d="M361,410c0,3.1,0,6.3,0,9.4c0,2.3-0.9,4-3.3,4.1c-2.1,0-3.2-1.6-3.2-3.7c0-7,0-13.9,0-20.9c0-1.9,1-3.3,3-3.3
		c2.2-0.1,3.4,1.3,3.4,3.4C361,402.7,360.9,406.4,361,410C361,410,361,410,361,410z"/>
	<path class="st3" d="M413.2,409.5c0-3.3,0-6.6,0-10c0-2.3,1-4,3.4-3.9c2.2,0.1,3.1,1.7,3.2,3.7c0,6.8,0,13.6,0,20.4
		c0,2.1-1,3.7-3.2,3.7c-2.5,0-3.4-1.7-3.4-4C413.2,416.1,413.2,412.8,413.2,409.5C413.2,409.5,413.2,409.5,413.2,409.5z"/>
	<path class="st3" d="M369.1,409.1c0-3.2,0-6.3,0-9.5c0-2.3,0.9-4,3.4-4c2.2,0,3.2,1.6,3.2,3.7c0.1,6.8,0.1,13.6,0,20.4
		c0,2-1,3.7-3.1,3.8c-2.4,0.1-3.5-1.6-3.5-3.9C369.1,416.1,369.1,412.6,369.1,409.1z"/>
	<path class="st0" d="M405,409.6c0,3.5,0,7,0,10.5c0,2.2-1.3,3.5-3.4,3.4c-1.9-0.1-2.9-1.5-2.9-3.4c0-7,0-14,0-21
		c0-1.9,0.8-3.3,2.9-3.4c2.2-0.1,3.4,1.2,3.4,3.4C405,402.6,405,406.1,405,409.6z"/>
	<path class="st4" d="M428,409c0-3.3,0-6.7,0-10c0-1.9,1-3.3,2.9-3.4c2.3-0.2,3.4,1.2,3.4,3.4c0.1,7,0.1,14,0,21
		c0,1.9-0.9,3.3-2.9,3.4c-2.1,0.1-3.4-1.2-3.4-3.4C428,416.3,428,412.7,428,409z"/>
	<path class="st0" d="M383.9,409.5c0-3.3,0-6.7,0-10c0-2.1,0.7-3.7,3-3.8c2.3-0.1,3.3,1.3,3.3,3.5c0,7,0,14,0,21
		c0,2-1.1,3.3-2.9,3.3c-2.1,0.1-3.3-1.3-3.3-3.5C383.9,416.5,383.9,413,383.9,409.5C383.9,409.5,383.9,409.5,383.9,409.5z"/>
	<path class="st5" d="M339,330.9c0,1.3,0.1,2.7,0,4c-0.2,1.7-1.4,2.7-3.1,2.6c-1.6,0-2.9-0.9-3-2.7c-0.1-2.1,0-4.3-0.1-6.5
		c-0.1-2.3,0.7-4.1,3.2-4.1c2.5,0,3.2,1.9,3.1,4.2C339.1,329.2,339.1,330.1,339,330.9C339.1,330.9,339,330.9,339,330.9z"/>
	<path class="st5" d="M339.1,355.1c0,1,0,2,0,3c0,2.1-0.7,3.7-2.9,3.9c-2.6,0.1-3.4-1.6-3.3-3.9c0-1.7,0-3.3,0-5
		c-0.1-2.2,0.2-4.2,2.9-4.3c3-0.1,3.5,2,3.4,4.4C339.1,353.7,339.1,354.4,339.1,355.1z"/>
	<path class="st5" d="M332.9,379.6c0-1.3-0.1-2.7,0-4c0.2-1.7,1.3-2.6,3-2.6c1.7,0,2.8,1,3,2.7c0.2,2.1,0.1,4.3,0.1,6.5
		c0.1,2.3-0.6,4.1-3.2,4.1c-2.6,0-3.2-1.9-3.1-4.1C332.9,381.3,332.8,380.5,332.9,379.6C332.9,379.6,332.9,379.6,332.9,379.6z"/>
	<path class="st6" d="M332.9,404c0-1.3-0.1-2.7,0-4c0.2-1.8,1.5-2.7,3.1-2.6c1.6,0,2.9,1,3,2.7c0.1,2.1,0.1,4.3,0.1,6.5
		c0,2.3-0.8,4.1-3.2,4.1c-2.6,0-3.1-2-3-4.2C332.9,405.7,332.8,404.9,332.9,404C332.9,404,332.9,404,332.9,404z"/>
	<path class="st5" d="M89.1,258.4c3.2-1.2,5.2-0.1,6.9,2.3c3.4,4.6,6.4,9.8,13.6,8.5c1.3-0.2,3.7,0.6,3.7,2.5c0,1.6-1.9,2.6-3.3,2.4
		c-8.5-1.3-10.6,5.7-13.9,10.9c-1.5,2.4-2.9,4.5-6.9,3.1c1.4-3.4,2.7-6.8,4.2-10.2c1-2.3,0.9-3.4-2-3.2c-1.3,0.1-2.7,0.1-4,0.1
		c-1.8,0-3.5,3.7-4.9,1.2c-1.1-2-0.6-5.1-0.4-7.7c0.2-2.1,2.2-1.6,2.9-0.9c2.7,2.8,5.8,1.1,9.5,1.6
		C92.5,265.1,90.8,261.8,89.1,258.4z"/>
</g>
</svg>
