<?xml version="1.0" encoding="utf-8"?>
<!-- Generator: Adobe Illustrator 19.0.0, SVG Export Plug-In . SVG Version: 6.00 Build 0)  -->
<svg version="1.1" id="Calque_1" xmlns="http://www.w3.org/2000/svg" xmlns:xlink="http://www.w3.org/1999/xlink" x="0px" y="0px"
	 viewBox="0 0 612 792" style="enable-background:new 0 0 612 792;" xml:space="preserve">
<style type="text/css">
	.st0{fill:#1D1D1B;}
</style>
<g>
	<path class="st0" d="M438.4,362.8c6.6,24.1,13.1,47.7,19.6,71.3c0.7,2.4,1.3,4.8,2,7.2c2.2,8.4,0,13.6-7.7,17.7
		c-3.8,2.1-7.9,3.5-12.3,3.9c-3.3,0.4-4.2,1.8-4.2,5.1c0.1,26.7,0.2,53.3,0,80c-0.1,14-12.1,23.3-25.3,19.8c-4.5-1.2-7.9-4.2-11-7.8
		c-5,6-11.2,9.6-19.1,8.3c-10.5-1.6-17.2-9.6-17.2-20.6c-0.1-26.3-0.1-52.7,0.1-79c0-4-0.7-5.9-5.1-6.4c-5.3-0.6-10.3-2.6-14.6-5.9
		c-4.9-3.7-6.3-8.1-4.6-14c7.4-25.5,14.9-51,22.3-76.5c0.3-1.1,1-2.1,0.3-4c-1,1.8-1.8,3.3-2.6,4.7c-7.9,15.7-16,31.4-23.7,47.2
		c-2.7,5.5-6.9,7.9-12.7,7.9c-6.5,0-12.6-0.6-16-7.6c-5-10.3-10.4-20.4-16.3-32c-0.8,10.9-1.7,20.4-2.3,29.9
		c-0.5,9.3-0.8,18.7-6.5,26.7c-1,1.4-0.5,2.9-0.5,4.3c0,34.8,0,69.7,0,104.5c0,9.1-3.8,15.7-12.1,19.5c-7.7,3.5-15.6,1.7-22.3-4.9
		c-1.3-1.3-1.8-2.2-3.6-0.3c-6.1,6.7-13.7,8.7-22.2,5.2c-8.8-3.6-12.4-10.6-12.5-19.8c0-20.8,0-41.7,0-62.5c0-14.3,0.1-28.7,0.2-43
		c0-1,0.2-2-0.4-2.9c-6.9-9.4-6.1-20.5-7-31.2c-0.7-8.1-1.2-16.3-2.7-24.7c-1.9,3.7-3.7,7.4-5.6,11.1c-3.2,6.2-6.4,12.4-9.5,18.6
		c-4.1,8-10,10.5-18.5,7.9c-11.7-3.5-15.9-13.2-10.4-24c13.7-26.8,27.7-53.4,40.8-80.4c6.6-13.6,17.1-21,31.3-23.6
		c14.7-2.7,29.5-3,43.9,2c10.7,3.7,18.6,10.4,23.6,20.8c8.5,17.5,17.5,34.7,26.7,52.7c5.4-11.3,10.6-22,15.7-32.6
		c3.1-6.4,6.3-12.8,9.3-19.3c9.7-20.6,26.5-31.4,48.6-33.3c22.7-2,41.5,5.9,54.5,25.5c7.5,11.3,12.6,23.7,18.4,35.9
		c8.6,18,17.7,35.7,27.1,53.3c3.9,7.3,3.2,12.5-2.4,18c-5.9,5.8-14.9,7.6-21.1,4.4c-2.7-1.4-4.1-3.7-5.4-6.3
		c-7.8-15.6-15.5-31.2-23.4-46.8C441.2,365.6,441,363.5,438.4,362.8z"/>
	<path class="st0" d="M487.5,504.1c0-15,0-30,0-45c0-12.9,6.4-19.4,19.3-19.2c3.9,0,5.1-1,5-5c-0.3-7.5-0.1-15-0.1-22.5
		c0.1-6.9,4.4-10.8,12-10.8c7.7,0,12.2,3.9,12.2,10.7c0.1,7.8,0.2,15.7-0.1,23.5c-0.1,3.4,1.1,4.4,4.2,4c1.1-0.2,2.3,0,3.5,0
		c12.4,0.1,19,6.7,19,19.2c0,26.8-0.5,53.6,0.2,80.4c0.6,23.9-4.4,30.7-29.7,29.4c-8.8-0.5-17.6,0-26.5-0.1c-12,0-19-6.7-19.1-18.8
		C487.4,534.7,487.5,519.4,487.5,504.1C487.5,504.1,487.5,504.1,487.5,504.1z"/>
	<path class="st0" d="M85.3,504c0-15,0-30,0-45c0-12.5,6.6-19.2,19.1-19c4.2,0.1,5.4-1.1,5.2-5.2c-0.4-7.3-0.2-14.7-0.1-22
		c0.1-7.2,4.5-11.1,12.4-11c7.6,0.1,11.9,4,12,11c0.1,7.7,0.2,15.3,0,23c-0.1,3.1,0.6,4.5,4.1,4.2c3-0.3,6-0.2,9,0.3
		c7.4,1.2,13.4,7.9,13.4,15.9c0.2,32.2,0.2,64.3,0,96.5c-0.1,9.2-7.5,16.1-16.9,16.3c-13.5,0.2-27,0.2-40.5,0
		c-10.6-0.2-17.5-7.4-17.6-18.3C85.2,534.9,85.3,519.4,85.3,504C85.3,504,85.3,504,85.3,504z"/>
	<path class="st0" d="M281.9,234.6c-0.1,20.7-17,37.4-37.6,37.3c-20.3-0.1-37-17-37-37.4c0-20.6,17.1-37.5,37.6-37.3
		C265.3,197.4,282,214.3,281.9,234.6z"/>
	<path class="st0" d="M365.7,234.6c-0.1-20.6,16.5-37.4,36.9-37.4c20.5-0.1,37.3,16.5,37.4,36.9c0.1,20.8-16.6,37.7-37.2,37.7
		C382.4,271.9,365.8,255.3,365.7,234.6z"/>
</g>
</svg>
