<?xml version="1.0" encoding="utf-8"?>
<!-- Generator: Adobe Illustrator 19.0.0, SVG Export Plug-In . SVG Version: 6.00 Build 0)  -->
<svg version="1.1" id="Calque_1" xmlns="http://www.w3.org/2000/svg" xmlns:xlink="http://www.w3.org/1999/xlink" x="0px" y="0px"
	 viewBox="0 0 612 792" style="enable-background:new 0 0 612 792;" xml:space="preserve">
<style type="text/css">
	.st0{fill:#E6005E;}
	.st1{fill:#841A53;}
	.st2{fill:#E92C79;}
	.st3{fill:#EA2F7C;}
	.st4{fill:#E6005F;}
	.st5{fill:#FBCCE7;}
	.st6{fill:#E92B79;}
	.st7{fill:#FDC1E1;}
</style>
<g>
	<path class="st0" d="M243.3,464.9c-10.5-22.9-27.8-37.5-52.7-42c-31.1-5.5-60.9,9.7-75,38c-0.5,1-1.1,2.1-1.6,3.1
		c-1.3,2.2-3.5,2.4-5.7,2.4c-13.2,0-26.3,0.1-39.5,0c-5,0-5.3-0.6-4.9-5.5c1.3-13.7,3.9-27.3,6.1-40.9c2.8-2.2,6-1.3,9.1-1.5
		c6.9-0.4,9.2-2.6,9.4-9.4c0.1-5,0.2-9.9-0.1-14.9c-0.2-3.7-1.8-5.8-5.8-5.8c-2.1,0-4.9,0.8-5.7-2.4c2.1-7.5,3.9-15.1,6.2-22.6
		c4.6-15,12.7-21.2,28.4-21.6c8.7-0.3,17.3-0.2,26,0c3,0.1,4.4-1,5.5-3.7c11.2-26.8,22.9-53.4,33.1-80.7c6-16,15.5-22.6,32.5-22.6
		c7.2,0,14.3,0.1,21.5,0.2c1.5,1.9,0.4,3.5-0.8,4.8c-3.7,4-7.6,7.9-11.6,11.6c-2.1,1.9-5,1.6-7.4,2.8c-8.1,2-13,7.3-16,15
		c-8.5,21.7-17.6,43.1-26.1,64.8c-2.4,6.1-2.2,6.4,4.4,6.4c24.1,0,48.2,0,72.4,0c6.4,0,6.6-0.3,6.7-6.9c0-21.1,0-42.3,0-63.4
		c0-2.5-0.2-5,0.5-7.4c8.8-9.5,18.3-18.3,27.3-27.6c2.6-2.6,6.4-2.1,9.4-1c3.3,1.2,2.1,3.8,0.4,5.6c-4.4,4.5-8.3,9.5-13.7,12.9
		c-0.9,0.6-1.6,1.1-1.8,2.2c-0.5,24.3-0.1,48.6-0.2,72.9c0,14.2-1.8,12.5,12.4,12.5c45.1,0.1,90.2,0,135.3,0c1.3,0,2.7,0,4,0
		c5.1-0.1,5.5-0.7,3.3-5c-10.7-21.4-21.3-42.9-32.2-64.3c-3-5.8-6.5-11.2-12.1-14.9c-1.5-1.9-1.1-3.8,0.2-5.4
		c3.4-4.1,6.7-8.4,11.6-11c6.5,3.5,10.5,9.1,13.5,15.5c13,27.8,27.6,54.9,41.7,82.2c1.7,3.3,3.7,4.3,7.3,4.3
		c21.5-0.2,43-0.2,64.4-0.1c15.8,0.1,23.7,5.7,29.3,20.7c3.1,8.3,4.5,17,6.5,25.5c-1.9,2.1-4.7,1.4-7,1.8
		c-6.4,1.2-10.5,4.8-12.1,11.1c-2.4,9.7,3.6,17.1,14,17.9c4.1,0.3,8.3-1.1,12.2,1.3c3.2,9.4,3.9,19.3,6,28.9c1.1,4.7,0.8,9.7,3,14.2
		c0,0.7,0,1.3,0,2c-1.3,1.2-3,1.4-4.7,1.4c-17,0-33.9,0-50.9,0c-1.9,0-3.6-0.3-5.2-1.5c-13.1-27.7-34.6-43-65.5-42.9
		c-27.9,0.1-48.2,13.7-61.7,37.9c-1,1.7-1.8,3.5-2.7,5.3c-1.9,1.3-4.1,1.2-6.2,1.2c-42.7,0-85.4,0-128.1,0
		C247.7,466.4,245.3,466.5,243.3,464.9z"/>
	<path class="st1" d="M575,471c-1.5,0.5-1.4,2.1-1.9,3.2c-3.9,8.1-10.4,12.4-19.3,12.6c-10.3,0.3-20.6,0-30.9,0.1
		c-1.9,0-3.8,0.2-3.9-2.5c-0.2-6.4-2.6-12.3-4.1-18.3c1.5-0.9,3.2-0.5,4.9-0.5c16.7,0,33.5,0,50.2,0c1.6,0,3.3-0.4,4.9,0.5
		C575,467.7,575,469.3,575,471z"/>
	<path class="st1" d="M113,466c-1.5,6.1-3.9,12-4.2,18.4c-0.1,1.9-1.1,2.5-2.9,2.5c-7.8-0.1-15.7,0.4-23.4-0.2
		C72.1,486,66.2,479.4,63,470c0-1.3,0-2.7,0-4c8.1-1.1,16.2-0.4,24.2-0.4C95.8,465.6,104.4,464.8,113,466z"/>
	<path class="st2" d="M575,466c-20,0-40,0-60,0c-0.2-0.4-0.5-0.7-0.7-1.1c20.2,0,40.5,0,60.7,0.1C575,465.3,575,465.7,575,466z"/>
	<path class="st3" d="M113,466c-16.7,0-33.3,0-50,0c0-1.7,0-3.3,0-5c0.3,0,0.6,0,0.9-0.2c-0.2,3.1,1.1,4.3,4.3,4.2
		c13.6-0.2,27.3-0.1,40.9-0.1c1.7,0,3.3-0.1,4.8-1C114.1,464.9,113.6,465.5,113,466z"/>
	<path class="st4" d="M211,252.8c9-3.1,14.7-9.6,19-17.7c3.3,0,6.7,0,10,0c1.4,2.7-1,3.8-2.3,5.3c-2.7,3.2-6.4,5.6-8.7,9.7
		c3.6,1.4,6.3,0.4,8.7-2.1c4.2-4.2,8.6-8.2,12.3-12.9c8.8-0.5,8.8-0.5,11.2-9.4c1.3-4.8,2.5-9.6,3.9-14.4c1.2-4.1,3.7-6.4,8.3-6.3
		c13,0.2,26,0,39,0.1c6,0,7.8,1.4,9.5,7.4c2.1,7.5,4.2,15.1,6.2,22.6c-9,1.4-13.1,9-19.6,14.8c4.2,1.8,6.8,0.7,9.2-1.7
		c4.2-4.2,8.6-8.3,12.3-13c3.3,0,6.7,0,10,0c1.4,2.7-1,3.8-2.3,5.3c-2.7,3.2-6.4,5.6-8.7,9.7c3.6,1.4,6.3,0.4,8.7-2.1
		c4.2-4.2,8.6-8.2,12.3-12.9c3.3,0,6.7,0,10,0c1.4,2.7-1,3.8-2.3,5.3c-2.7,3.2-6.4,5.6-8.7,9.7c3.6,1.4,6.3,0.4,8.7-2.1
		c4.2-4.2,8.6-8.2,12.3-12.9c3.3,0,6.7,0,10,0c1.4,2.7-1,3.8-2.3,5.4c-2.7,3.3-6.5,5.5-8.5,9.6c2.9,1.4,5,0.2,7.1-1.3
		c4.9-3.5,8.6-8.2,12.7-12.6c2.6,0.7,5.1,1.7,7.1,3.6c-2.2,3.5-5.5,5.9-8.3,8.9c-1.7,1.8-3.4,3.5-3.8,6.1c-4.3,1.4-8.5-0.2-12.8-0.2
		c-30.2,0.2-60.4,0.1-90.6,0.1c-2.9,0-6,0.5-8.6-1.6c7.5-2.8,11.5-9.7,17.1-14.7c1.1-1,1.4-2.9-0.5-3c-3.2-0.1-6.5-1.3-9.6,2
		c-7.2,7.9-15,15.2-22.5,22.8c-0.9,0.9-1.8,2-3.3,2c-2.2-2.4-1.6-5.1-1-7.9c4.6-6,10.8-10.6,15.9-16.9c-3.1-1.6-5.7-1.4-7.9,0.8
		c-3,3-6.1,6.1-9.1,9.2c-1.7,1.7-2.6,2.9,0.6,4.2c2.7,1.1,0.9,2.1-0.5,2.8c-12.1,0.9-24.1,0.4-36.1,0.3
		C213.5,254.5,212,254.2,211,252.8z"/>
	<path class="st5" d="M566,419.9c-4,0-8,0.2-12,0.1c-9.8-0.3-15.8-5.8-15.9-14.7c-0.2-10.1,5.4-16.3,15.3-17.2
		c1.8-0.2,3.6-0.1,5.5-0.2C561.9,398.4,565.1,408.9,566,419.9z"/>
	<path class="st5" d="M76.8,386c2.3,2.1,5,1,7.5,1c3.1-0.1,4.8,1,5,4.1c0.7,7.5,0.6,14.9,0.1,22.4c-0.3,3.9-3,6.2-7.1,6.3
		c-4.1,0.1-8.3,0.2-12.4,0.3C72.3,408.7,74.6,397.3,76.8,386z"/>
	<path class="st0" d="M250,235.1c0.3,2.1-0.9,3.4-2.3,4.7c-3.3,3.2-6.7,6.4-9.8,9.9c-2.7,3.1-6,2.6-9.1,2.2
		c-2.8-0.4-1.7-2.3-0.5-3.5c2.8-3,5.8-5.9,8.7-8.8c1.2-1.3,2.9-2.3,3-4.4C243.3,235.1,246.7,235.1,250,235.1z"/>
	<path class="st0" d="M330,235.1c0.4,3-2,4.3-3.7,6.1c-2.6,2.7-5.6,5.2-8,8.1c-2.5,3.1-5.7,2.8-9,2.7c-2.1-0.1-2.9-1.4-1.5-2.9
		c4.2-4.7,8.4-9.4,13.1-13.5c1.5-1.3,4.8-0.5,7.2-0.6C328.7,235,329.4,235.1,330,235.1z"/>
	<path class="st0" d="M350,235.1c0.3,2.1-0.9,3.4-2.3,4.7c-3.3,3.2-6.7,6.4-9.8,9.9c-2.7,3.1-6,2.6-9.1,2.2
		c-2.8-0.4-1.7-2.3-0.5-3.5c2.8-3,5.8-5.9,8.7-8.8c1.2-1.3,2.9-2.3,3-4.4C343.3,235.1,346.7,235.1,350,235.1z"/>
	<path class="st0" d="M370,235.1c0.3,2.1-0.9,3.4-2.3,4.7c-3.3,3.2-6.7,6.4-9.8,9.9c-2.7,3.1-6,2.6-9.1,2.2
		c-2.8-0.4-1.7-2.3-0.5-3.5c2.8-3,5.8-5.9,8.7-8.8c1.2-1.3,2.9-2.3,3-4.4C363.3,235.1,366.7,235.1,370,235.1z"/>
	<path class="st0" d="M389,236.2c-2.6,6.9-12.9,15.9-18.2,15.8c-1.2,0-2.9,0.6-3.5-1.1c-0.6-1.5,0.8-2.4,1.6-3.3
		c3.6-4.3,8.7-7.1,11.1-12.5C383.1,234.8,386.1,234.6,389,236.2z"/>
	<path class="st1" d="M178.9,441c21.5-1.8,50.5,17.1,51,50.6c0.4,28.5-22.6,51.6-51.1,51.8c-28.1,0.2-51.4-22.6-51.8-50.1
		C126.6,460.1,155.1,438.8,178.9,441z"/>
	<path class="st1" d="M449.7,441c22.1-1.9,50.9,17.8,51.1,50.9c0.2,28.4-22.9,51.4-51.5,51.4c-28.6,0-51.5-22.9-51.3-51.5
		C398.2,459,427.1,438.8,449.7,441z"/>
	<path class="st1" d="M383.9,466.1c-1.6,5.9-3.8,11.7-4,17.9c-0.2,3.8-2.9,2.9-5,2.9c-27.8,0-55.6,0-83.3,0c-13,0-25.9-0.1-38.9,0.1
		c-3,0-4.5-0.6-4.6-4c-0.2-5.8-2.5-11.3-3.9-16.9c1.4-0.9,2.9-0.5,4.4-0.5c43.7,0,87.4,0,131.1,0C381,465.5,382.6,465.1,383.9,466.1
		z"/>
	<path class="st6" d="M383.9,466.1c-46.6,0-93.2,0-139.9,0c-0.2-0.4-0.5-0.7-0.7-1.1c44.7,0,89.3,0,134,0.1c2.3,0,4.7,0.1,7,0.2
		C384.2,465.5,384.1,465.8,383.9,466.1z"/>
	<path class="st7" d="M272,253c34.1,0,68.2,0,102.3-0.1c3.4,0,6.6,0.9,9.7,1.8c5.7,3,9.5,7.6,12.3,13.3c11.7,23.5,23.5,47,35.3,70.4
		c0.4,0.9,0.7,1.8,1.1,2.7c-1.6,1.1-3.1,0.6-4.5,0.6c-50.5,0-101,0-151.4,0c-2.8,0-5.1,0.3-5-3.9C272,309.6,271.9,281.3,272,253z"/>
	<path class="st7" d="M252.9,253.1c0.1,3,0.1,6,0.2,8.9c-0.1,24.8-0.2,49.6-0.1,74.4c0,4.4-1.1,5.5-5.5,5.5
		c-26.3-0.2-52.6-0.2-78.9,0c-4.1,0-5.3-0.5-3.5-4.9c9.6-23.3,19-46.8,28.4-70.2c3.2-7.9,8.9-12.7,17.4-14
		C225,252.9,239,253,252.9,253.1L252.9,253.1z"/>
	<path class="st0" d="M253,253.1c-6.8-2.8-6.8-2.8-1-8.6c2.6-2.6,5.1-5.2,7.6-7.8c0.5-0.5,0.9-1.3,1.4-1.3c2.9-0.2,6.6-1.7,8.4,0.7
		c1.6,2.2-1.8,3.9-3.3,5.3C261.7,245.2,258.6,250.6,253,253.1C252.9,253.1,253,253.1,253,253.1z"/>
	<path class="st0" d="M305.3,235c1.5,0.3,3.6-0.9,4.4,1.1c0.7,1.9-1.3,2.9-2.4,4c-3,3.1-6.1,6.1-9.1,9.2c-0.6,0.6-1.1,1.3-1.8,1.7
		c-2.9,1.6-6.7,2.1-8.7,0c-1.9-2,1.8-3.7,3.2-5.3c2.4-2.7,5.4-5,7.6-7.8C300.3,235.5,302.3,234.5,305.3,235z"/>
</g>
</svg>
