<?xml version="1.0" encoding="utf-8"?>
<!-- Generator: Adobe Illustrator 19.0.0, SVG Export Plug-In . SVG Version: 6.00 Build 0)  -->
<svg version="1.1" id="Calque_1" xmlns="http://www.w3.org/2000/svg" xmlns:xlink="http://www.w3.org/1999/xlink" x="0px" y="0px"
	 viewBox="0 0 612 792" style="enable-background:new 0 0 612 792;" xml:space="preserve">
<g>
	<path d="M279.2,569.2c-7.4-8.3-14.2-15.7-20.8-23.4c-37.3-43.4-72.6-88.3-101.4-137.9c-10.2-17.6-19-36.2-27.2-54.9
		c-16.3-37.3-13.5-74.8,2.4-111.5c26.6-61.5,87.6-99.3,154.6-96.4c78.8,3.4,144.3,66.4,151.6,145.1c2.6,28.4-5.3,54-16.8,79
		c-18.7,40.6-43.3,77.6-70.6,112.8c-21.9,28.1-45.2,55.1-67.9,82.5C281.8,565.9,280.7,567.4,279.2,569.2z M295,288.8
		c-0.1-8.8-7.3-15.9-16-15.8c-8.9,0-16.2,7.4-15.9,16.4c0.2,8.7,7.5,15.7,16.3,15.6C288,304.9,295.1,297.5,295,288.8z"/>
</g>
</svg>
