<?xml version="1.0" encoding="utf-8"?>
<!-- Generator: Adobe Illustrator 19.0.0, SVG Export Plug-In . SVG Version: 6.00 Build 0)  -->
<svg version="1.1" id="Calque_1" xmlns="http://www.w3.org/2000/svg" xmlns:xlink="http://www.w3.org/1999/xlink" x="0px" y="0px"
	 viewBox="0 0 612 792" style="enable-background:new 0 0 612 792;" xml:space="preserve">
<style type="text/css">
	.st0{fill:#EEC65E;}
	.st1{fill:#E1574C;}
	.st2{fill:#304A57;}
	.st3{fill:#CA4E44;}
	.st4{fill:#334D5B;}
	.st5{fill:#334E5B;}
	.st6{fill:#F08F87;}
	.st7{fill:#F1F0EE;}
	.st8{fill:#F0AAA5;}
	.st9{fill:#CB4E44;}
	.st10{fill:#233641;}
	.st11{fill:#233640;}
</style>
<g>
	<path class="st0" d="M299,138c10.3,0,20.7,0,31,0c9.1,0.9,18.2,0.7,27.2,1.7c16.1,1.7,31.6,6.3,46.7,11.9
		c26.7,9.9,51.5,23.4,73.4,41.7c26.8,22.3,49.3,48.3,65.6,79.5c12,22.9,20.8,46.8,25.5,72.1c1.7,9,1.5,18.2,2.1,27.3
		c0.1,2.3-0.5,4.6,0.5,6.8c0,10,0,20,0,30c-0.9,9-0.7,18.2-1.7,27.2c-1.7,16.3-6.4,31.9-12.1,47.1c-9.9,26.5-23.5,50.9-41.4,72.9
		c-9.4,11.5-20.2,21.6-30.8,31.9c-1.9,1.9-4.5,3.9-7.4,1c-1.5-3.2-0.9-6.6-0.9-9.8c0-60.8,0-121.6,0-182.4
		c0-15.2-4.9-28.3-16.2-38.9c-8.8-8.2-19.2-12.6-31.1-12.9c-13.6-0.3-27.3,0-41-0.1c-3,0-6.1,0.3-7.9-3.1c-1-2-0.8-4.2-0.8-6.4
		c-0.2-16.6,0-33.2,0.7-49.8c0.2-4.1,2-5.6,5.9-5.5c8,0.1,15.9,0.3,23.8-1.6c7-1.2,10-4.6,9.5-11c-0.4-6-4-9.2-10.6-9.6
		c-2-0.1-4-0.1-6-0.1c-58.6,0-117.3,0-175.9,0c-2,0-4,0-6,0.1c-6.6,0.4-10.2,3.6-10.6,9.6c-0.4,6.3,2.5,9.7,9.5,11
		c7.9,1.9,15.9,1.7,23.8,1.6c3.6-0.1,5.6,1.1,5.7,5.1c0.7,17.1,0.9,34.3,0.7,51.4c0,1.8,0,3.7-0.9,5.3c-1.7,3.1-4.7,2.8-7.4,2.9
		c-11.1,0.3-22.2-0.3-33.3,0.3c-26.6-4.4-55.1,17.1-55.2,48.5c-0.2,43.8,0,87.6,0,131.3c0,18.5,0,37,0,55.4c0,2.8,0.4,5.7-0.9,8.4
		c-3.1,3-5.6,0.9-7.7-1.2c-10.6-10.3-21.4-20.5-30.7-32c-11.7-14.4-21.6-30-29.9-46.5c-10.8-21.5-18.7-44.1-22.7-67.9
		c-1.4-8.6-1.7-17.5-1.8-26.3c0-1.8,0.6-3.6-0.5-5.4c0-10.7,0-21.3,0-32c0.8-8.6,0.9-17.2,1.6-25.7c1-11.5,4-22.6,7.3-33.5
		c10.7-35.2,28.1-66.8,52.4-94.3c21.4-24.2,46.2-44.4,75.2-59.3c22.4-11.5,45.7-20,70.4-24.5c8.6-1.6,17.5-1.6,26.3-2.1
		C294.4,138.4,296.8,139,299,138z"/>
	<path class="st1" d="M335,650c-13.3,0-26.7,0-40,0c-8-1-16.2-1.1-24.2-1.8c-13.7-1.3-26.6-5.6-39.6-9.7c-8.4-2.7-16.5-6.2-24.5-9.8
		c-3-1.3-6.5-2.3-6.6-6.6c-0.1-2.8-0.3-5.7-0.3-8.5c0-68.8,0-137.7,0-206.5c0-1.2,0-2.3,0-3.5c-0.2-7.9,1.2-15.3,7.8-20.6
		c2.2-1.6,4.8-1.2,7.2-1.2c68.8-0.1,137.6-0.1,206.4,0c12.2,0,18.9,6.6,19,18.9c0.3,31.6,0.1,63.3,0.1,95c0,37.1,0,74.3,0,111.4
		c0,3.7-0.1,7.3-0.9,10.9c-0.6,3-3,4.3-5.3,5.5c-22.2,11.3-45.4,19.7-69.9,24.2c-8,1.5-16.2,1.4-24.3,1.8
		C338.2,649.6,336.5,649,335,650z"/>
	<path class="st1" d="M180.9,612.1c-5.2-3.1-10.3-6.2-14.9-10.1c-1.1-2.8-1.2-5.8-1.2-8.8c0-67.1-0.1-134.1,0.1-201.2
		c0-20.9,10.9-35.3,28.3-45.5c4.6-2.7,10-1.9,14.9-3.4c11.5,0,22.9,0,34.4-0.1c2,0,3.9-0.3,5.9-0.5c3.3-2.7,7.2-1.3,10.9-1.6
		c1.8-0.1,3.6,0.3,5.4,0.2c20.8-0.7,41.5-0.2,62.3-0.3c12.8,0,25.6-0.4,38.4,0.3c3.8-0.1,7.6-0.4,11.3-0.2c1.8,0.1,3.6,0.1,5,1.6
		c11.3,1.2,22.6,0.2,33.9,0.5c7.1,0.2,14.3-0.6,21.4,0.8c24.6,4.9,41.9,25.5,41.9,50.6c0.1,58.6,0,117.2,0.1,175.8
		c0,6.7,0.1,13.3,0.1,20c-9.1,8.6-19.4,15.4-30,21.9c-2.8-0.1-3-2.3-3.2-4.3c-0.3-2.8-0.2-5.7-0.2-8.5c0-65.1,0-130.3,0-195.4
		c0-3.3,0.2-6.7-0.6-10c-2.6-10.8-11.2-17.7-22.5-17.7c-71.8-0.1-143.6-0.1-215.4,0c-13.5,0-22.9,9.7-23,23.6
		c-0.1,36.1,0,72.3-0.1,108.4c0,32,0.1,64-0.1,96C184.2,607.2,185.5,611,180.9,612.1z"/>
	<path class="st2" d="M218.7,281.1c-7.4-1.1-11.5-6.1-11.1-13.3c0.4-6.9,5.6-11.8,12.9-11.9c25-0.1,50,0,75,0c37.7,0,75.3,0,113,0
		c8.5,0,14,5.1,13.9,12.9c0,6.8-4,11.3-11.1,12.4c-8.4,0.9-16.8,0.1-25.2,0.4c-1.8,0.1-3.7-0.5-5.1,1.2c-4.9,2.7-10.2,1.1-15.3,1.2
		c-28,0.7-56,0.1-84,0.3c-5.8,0-11.7,0.2-17.5-0.3c-5.1-0.1-10.4,1.4-15.3-1.2c-1.3-1.8-3.3-1.2-5-1.3
		C235.5,281.2,227.1,282,218.7,281.1z"/>
	<path class="st3" d="M208,343c-2.6,2.1-5.9,2.2-8.8,3.3c-18.3,6.5-32.6,27.6-32.4,47.7c0.6,66.7,0.2,133.5,0.2,200.2
		c0,2.6,0.3,5.4-1,7.8c-5.5-3.4-10.7-7.2-15.2-11.9c0.1-12.1,0.2-24.3,0.2-36.4c0-52.7,0-105.5,0-158.2c0-26.3,16.4-46.5,42.1-51.9
		C198,342.5,203,342.8,208,343z"/>
	<path class="st4" d="M381,282c2.9-1.9,6.1-0.9,9.1-1c7.1-0.1,14.1,0,21.2,0.1c-8.1,1.3-16.2,0.5-24.4,0.5c-3.7,0-5.2,0.8-5.1,4.9
		c0.1,18.6-0.1,37.3-0.2,55.9c-5.1,0.9-10.3,0.3-15.5,0.4c-1.5-1-2.2-2.4-2.3-4.2c-0.2-13.4-0.5-26.8,0.1-40.2
		c0-0.7,0.3-1.3,0.7-1.8c2.1-2.7,5.1-1.6,7.8-1.8c5.4-0.3,5.9-0.7,6.2-6C378.9,286.3,378.7,283.8,381,282z"/>
	<path class="st5" d="M218.7,281.1c8.7,0,17.4-0.1,26.1-0.1c1.5,0,3,0,4.2,1c2.6,2,2.2,5,2.2,7.7c0,3.5,1.7,4.9,5.1,5.1
		c3,0.1,6.3-1.1,8.9,1.7c0.9,1.3,0.9,2.8,1,4.3c0.2,12.1,0.2,24.2,0,36.3c0,2.2-0.3,4.3-2.4,5.7c-5.2-0.1-10.3,0.6-15.5-0.4
		c-0.1-18.6-0.3-37.3-0.2-55.9c0-4.1-1.4-4.9-5.1-4.9C234.9,281.6,226.8,282.4,218.7,281.1z"/>
	<path class="st6" d="M180.9,612.1c1.8-2,1-4.5,1-6.7c0-68.2,0.3-136.3-0.2-204.5c-0.1-13.3,10.4-27.4,27.2-27.2
		c70.8,0.5,141.7,0.5,212.5,0c16.1-0.1,26.8,13.7,26.7,26.7c-0.4,68.3-0.2,136.7-0.2,205c0,2.3-0.7,4.7,1,6.7
		c-3.4,2.8-7.3,4.7-11.2,6.7c0-41.5,0.1-83,0.1-124.4c0-30.6,0-61.3,0-91.9c0-12.7-5.6-18.4-18.1-18.4c-69.3,0-138.6,0-207.9,0
		c-1.3,0-2.7,0.1-4,0.1c-0.6,0.5-1.3,1.1-2.1,1.4c-9.3,3.4-11.8,10.5-11.7,19.7c0.2,68,0.1,135.9,0,203.9c0,3.3,1.2,7.1-2.1,9.8
		C188.1,617,184.4,614.8,180.9,612.1z"/>
	<path class="st7" d="M277.8,550.9c7.1,4,11.5-1.7,16.3-6.8c7.8-8.1,7.9-8-1.1-15.1c-6.6-5.1-13.1-10.2-19.6-15.4
		c-2.4-1.9-5.8-3.4-3.7-7.5c2.3-4.5,6.8-6.9,10.9-5.7c11.2,3.1,22.5,6.4,33,11.3c7.5,3.5,12.3,2.6,17.1-3.9
		c2.9-3.8,6.7-6.9,10.1-10.3c3.3-3.3,7.3-5.2,11.8-6c5.7-1,9.1,2.2,8.4,7.9c-0.6,4.9-2.9,9.2-6.4,12.7c-4.9,5-9.8,10-14.9,14.8
		c-2.1,1.9-2.2,3.5-1.1,6c5.1,12.5,9.5,25.2,13.3,38.1c1.4,4.7-1.5,10.3-5.9,11.9c-2.9,1.1-4.6-0.7-6.2-2.8
		c-6.8-8.8-13.9-17.5-20.6-26.3c-2.2-2.9-3.7-3.1-6-0.3c-1.2,1.6-2.7,3-4.2,4.2c-6,4.9-10.6,10.1-7.3,18.7c1,2.7-0.9,4.8-3.1,6.2
		c-2.6,1.7-3.8-1-5.3-2.3c-1.3-1.1-2.4-2.3-3.5-3.5c-1.7-2-3.4-3-6.4-2.1c-5.1,1.4-6.9-0.6-5.6-5.7c0.6-2.4,0.3-4.1-1.6-5.7
		c-1.3-1.1-2.5-2.2-3.5-3.5c-1.3-1.7-4.3-2.6-3.2-5.6C270.2,552,273,550.7,277.8,550.9z"/>
	<path class="st8" d="M315.5,419.8c25.8,0,51.6,0,77.4,0c5.5,0,8.9,2.8,9,7.1c0.1,4-2.7,7.3-6.8,7.9c-1.5,0.2-3,0.1-4.5,0.1
		c-50.5,0-100.9,0-151.4,0c-1.3,0-2.7,0.1-4-0.1c-4.4-0.5-7.4-3.8-7.3-8c0.1-3.9,3.2-7,7.5-7.1c11.3-0.1,22.6-0.1,34-0.1
		C284.9,419.8,300.2,419.8,315.5,419.8z"/>
	<path class="st9" d="M192.1,618.8c0-72.8-0.1-145.6,0-218.3c0-10.3,6-16.3,16-16.4c-6.3,8.3-6.1,17.8-6,27.6
		c0.1,68.3,0.1,136.5,0,204.8c0,2.3,0.6,4.7-1.1,6.7C198,621.7,195,620.2,192.1,618.8z"/>
	<path class="st0" d="M263.8,342.8c0-15.6,0-31.2,0-46.8c-2.9-4.2-2.8-9.8,0.1-14c5.5-0.1,10.9-0.3,16.4-0.3c26.6,0,53.1,0,79.7,0
		c2,0,4,0.2,5.9,0.3c3,4.2,3,9.8,0.1,14c0,15.6,0,31.2,0,46.8C332.1,342.8,297.9,342.8,263.8,342.8z"/>
	<path class="st10" d="M264,282c0,4.7-0.1,9.4-0.1,14c-4,1.8-8.1,0.8-12.2,0.8c-2.2,0-2.6-1.7-2.6-3.5c0-3.8,0-7.6,0-11.4
		C254,282,259,282,264,282z"/>
	<path class="st11" d="M366.2,296c0-4.7-0.1-9.4-0.1-14c5,0,10,0,14.9,0c0,3.8,0,7.6,0,11.4c0,1.8-0.4,3.5-2.6,3.5
		C374.3,296.8,370.1,297.8,366.2,296z"/>
</g>
</svg>
