<?xml version="1.0" encoding="utf-8"?>
<!-- Generator: Adobe Illustrator 19.0.0, SVG Export Plug-In . SVG Version: 6.00 Build 0)  -->
<svg version="1.1" id="Calque_1" xmlns="http://www.w3.org/2000/svg" xmlns:xlink="http://www.w3.org/1999/xlink" x="0px" y="0px"
	 viewBox="0 0 612 792" style="enable-background:new 0 0 612 792;" xml:space="preserve">
<style type="text/css">
	.st0{fill:#CED6DA;}
	.st1{fill:#AFBDC4;}
	.st2{fill:#424242;}
	.st3{fill:#747474;}
	.st4{fill:#DEDEDE;}
	.st5{fill:#8FC9F7;}
	.st6{fill:#757575;}
</style>
<g>
	<path class="st0" d="M259,576c-0.1-11.1-2.2-22.1-3.5-33c-1.5-12.2-3-24.3-4.5-36.5c-1.2-9.7-2.5-19.3-3.7-29
		c-0.6-4.8-0.8-9.6-1.4-14.3c-0.3-2.6,0.3-6-4-6.2c2-8.6-0.4-17.1-1-25.7c-1.6-21.2-4.2-42.3-4.6-63.6c-0.1-8.3-1.8-16.5-0.5-24.8
		c1.2-1.6,1.1-3.4,1.1-5.3c0-7.7-0.2-15.3,0-23c0.4-15.7,1.5-31.4,3.7-47c2.8-20.2,7.5-39.7,15.3-58.4c2.1-5.1,4.5-10,8.8-13.7
		c2.1-1.8,4.2-3.6,6.7-4.1c10.8-2.1,21.7-3.2,32,2.4c2,1.1,3.5,2.5,4.6,4.4c10.8,19.4,16.4,40.4,19.9,62.1c4.2,26,5.4,52.1,4.9,78.3
		c0,1.5,0.2,3,1.1,4.3c0.9,5,0.7,10,0.4,14.9c-1.4,25.2-2.8,50.4-5.4,75.5c-0.8,7.8-2.2,15.5-1.6,23.3c-3.2,11.8-2.8,24.1-5.1,36
		c-1.1,5.8,0.2,12.1-3.1,17.5c-0.7,0.6-1.6,0.9-2.5,1.1c-4.5,0.5-9,0.2-13.5,0.3c-11.2,0.2-16.6,5.7-16.6,17.2
		c-0.1,33.6,0,67.2-0.1,100.8c0,2.9,0.8,6.1-1.7,8.5c-6.3,0.3-11.8-1.4-16.2-6.3c-0.5-0.6-1.8-0.6-2.7-0.8
		c-2.5-7.3-2.6-14.9-3.6-22.4c-1.2-9.2-2.3-18.4-3.4-27.5C258.8,579.3,258.7,577.7,259,576z"/>
	<path class="st1" d="M235.9,342.9c0.9,0.7,1.2,1.6,1.1,2.6c-0.7,9,0.8,17.9,1.1,26.9c0.5,16,2,32,3.6,48
		c1.1,10.9,1.9,21.8,3.3,32.6c0.3,2.6-1.9,2.8-3,3.9c-35.1,9.2-70.3,18.5-105.4,27.6c-20.7,5.4-41.4,10.7-62.1,16.2
		c-4,1.1-6.1,0.6-7.6-3.8c-3.7-10.5-8.1-20.7-12.3-31c-1.2-3-0.8-4.6,2.1-6.4c12.2-7.7,24.3-15.7,36.4-23.7c2.3-3.9,6.4-5.5,10-7.9
		c6-4,12.3-7.8,18.2-11.9c1.5-1.1,3.1-1.8,4.9-2c7.7-5,15.3-10,23-15.1c0.3-0.4,0.5-1,0.8-1.2c10.3-6.7,19.8-14.6,31.1-19.7
		c13.3-8.5,26.5-17,39.8-25.5C225.8,349.3,230.9,346.1,235.9,342.9z"/>
	<path class="st1" d="M327.1,456.9c-3.8-3.9-0.9-8.5-0.7-12.5c0.6-9.9,1.7-19.7,2.7-29.5c1.9-17.6,2.2-35.3,3.8-52.9
		c0.4-4.6,0-9.3,0.1-13.9c0-1.7-0.6-3.7,1.1-5.1c15.5,10,30.9,20,46.4,30c2.8,1.8,5.7,3.4,8.6,5.1c2.9,0.5,5.1,2.3,7.4,3.8
		c7,4.6,14,9.3,21.1,13.8c1.4,0.9,2.6,2,3.5,3.4c7.3,5.5,15.2,10.3,22.9,15.1c1.5,0.2,2.9,0.6,4.1,1.4c8.5,5.7,17.2,11,25.7,16.8
		c1.4,1,2.3,2.3,3.3,3.6c11.7,7.6,23.2,15.5,35.1,22.7c4.3,2.6,4.5,5.2,2.8,9.2c-4.3,10.3-8.4,20.6-12.4,30.9
		c-1.1,2.8-2.5,3.1-5.3,2.4c-17.9-4.8-35.8-9.4-53.8-14.1c-2.5-0.6-4.9-1.8-7.6-1c-1.9,0-2.4-1.7-3.1-2.9
		c-4.6-8.3-11.9-11.7-21.1-11.7c-9.2,0-18.3,0-27.5,0c-2.3,0-4.7,0.1-7-0.4c-14.9-3.6-29.7-7.7-44.6-11.4
		C330.7,459.1,328.4,458.9,327.1,456.9z"/>
	<path class="st2" d="M348.9,510.2c0,53.2,0,106.5,0,159.7c-10.6,0-21.3,0-31.9,0c-1.9-1.9-1.7-4.3-1.7-6.6c0-48.9,0-97.7,0-146.6
		c0-2.3-0.2-4.7,1.7-6.6c0.7-0.1,1.3-0.2,2-0.3c1.3-1.2,3-1.4,4.6-1.4c6.8-0.1,13.5-0.1,20.3,0C345.8,508.5,347.6,508.5,348.9,510.2
		z"/>
	<path class="st2" d="M445.1,669.8c0-53.2,0-106.5,0-159.7c10.6,0,21.3,0,31.9,0c1.8,1.9,1.7,4.3,1.7,6.6c0,48.9,0,97.7,0,146.6
		c0,2.3,0.2,4.7-1.7,6.6C466.3,669.8,455.7,669.8,445.1,669.8z"/>
	<path class="st3" d="M317.1,510.1c0,53.2,0,106.5,0,159.7c-5.5,0-10.9,0.2-16.4,0.1c-8.9-0.2-15.5-7.1-15.7-16
		c-0.1-5.3-0.1-10.6-0.2-15.9c0.1-32,0.1-63.9,0.2-95.9c0-5.3-0.1-10.7,0-16c0.1-9.4,6.7-16,16.1-16.1
		C306.4,510,311.7,510.1,317.1,510.1z"/>
	<path class="st3" d="M476.9,669.8c0-53.2,0-106.5,0-159.7c4.8-0.1,9.7-0.1,14.5-0.2c10.9-0.1,17.5,6.5,17.6,17.3
		c0,29.5,0,59,0,88.5c0,12.2,0,24.3,0,36.5c0,11.1-6.6,17.8-17.6,17.8C486.6,670,481.8,669.9,476.9,669.8z"/>
	<path class="st1" d="M259,576c2.9,5.1,2,10.9,2.8,16.4c1.9,11.9,2.4,23.9,4.8,35.7c0.2,1.1-0.2,1.9-0.6,2.8
		c-15.3,3.8-30.5,7.6-45.8,11.5c-1.6,0.4-3.2,0.8-4.9,1c-3.4,0.4-7.1,3.5-10,1.2c-2.3-1.9,0.3-14.8,2.7-17.2
		c11.9-11.9,23.8-23.8,35.7-35.7C248.8,586.5,253.9,581.2,259,576z"/>
	<path class="st2" d="M373.1,510c-5.4,0-10.8,0-16.2,0c-2.5-11.9-3.1-23.7,5.6-33.6c3.7-4.2,8.4-6.9,14.4-6.4
		c11.1,0,22.2,0.3,33.3,0c12.3-0.3,21,4.7,25.7,16.1c1.9,7.9,0.7,16,1.1,23.9c-5.4,0-10.8,0-16.1,0c-2.5-3.6-1.3-7.7-1.4-11.6
		c-0.2-9-1.9-10.8-10.8-10.8c-8.3,0-16.6-0.1-24.9,0c-7.1,0.1-9,2.2-9.3,9.3C374.2,501.2,375.6,505.8,373.1,510z"/>
	<path class="st4" d="M181,378.1c-10.3,7.5-21,14.5-32,21c0-9.5,0.1-18.9-0.1-28.4c-0.1-3.8,1.3-4.8,4.9-4.7
		c7.6,0.2,15.3,0.2,22.9,0c3.2-0.1,4.6,0.8,4.3,4.2C180.8,372.7,181,375.4,181,378.1z"/>
	<path class="st4" d="M421,399c-10.9-6.6-21.7-13.4-32-21c-0.1-12.1-0.1-12.1,11.8-12c5.3,0,10.6,0.1,15.9-0.1
		c3.2-0.1,4.4,0.9,4.3,4.2C420.9,379.8,421,389.4,421,399z"/>
	<path class="st4" d="M126,414.1c-11,7.3-22.1,14.6-33.1,21.8c0-8.5,0.2-17,0-25.5c-0.1-3.5,1.1-4.6,4.6-4.5c7.3,0.2,14.7,0.3,22,0
		c4.4-0.2,6.3,1,5.6,5.5C124.9,412.4,125.1,413.4,126,414.1z"/>
	<path class="st4" d="M477.1,435.9c-11-7.3-22.1-14.5-33.1-21.8c0.2-0.2,0.5-0.5,0.7-0.7c1.3-2.2-1.2-5.9,1.9-7.1
		c2.3-0.9,5.2-0.3,7.9-0.4c6,0,11.9,0.2,17.9-0.1c3.6-0.2,5,0.8,4.8,4.7C476.8,419,477,427.5,477.1,435.9z"/>
	<path class="st5" d="M315.8,278.7c-2.2-10.1-5.5-18.2-12.2-24.7c-12.8-12.4-32.4-9.9-41.8,5.5c-3.9,6.4-6.4,13.3-8.3,20.5
		c-1.3-14.8,1.4-28.6,11.3-39.9c11.2-12.8,26.6-14.5,39.5-1.1c9.7,10.1,13.3,23.1,12.7,37.1C316.9,276.5,316.6,276.9,315.8,278.7z"
		/>
	<path class="st3" d="M446.6,516.8c0-2.3,0.2-4.7-1.6-6.6c-2.7-0.1-5.3-0.1-8-0.2c-5.2-2.9-10.8-1.1-16.2-1.5
		c-15.9-0.2-31.8-0.2-47.6,0c-5.4-0.2-10.9-0.2-16.3,0c-2.9,0-6-0.7-8.5,1.7c-1.2,2-1.1,4.2-1.1,6.3c0,48.9,0,97.8,0,146.7
		c0,2.3-0.2,4.7,1.6,6.6c32,0,64.1,0,96.1,0c1.8-1.9,1.6-4.3,1.6-6.6C446.7,614.4,446.7,565.6,446.6,516.8z M410.7,635.1
		c-4.9,1.8-6,4.1-5.8,8.9c0.4,10.1,0.1,9.8-10,10.2c-4.9,0.2-6.6-1.3-5.9-6.1c1.1-6.9-0.2-11.8-8.2-14.5
		c-7.2-2.4-11.9-8.7-14.3-16.4c-0.8-2.6-0.1-3.3,2.4-3.2c3.5,0.1,7,0.1,10.5,0c2-0.1,3.5,0.3,4.6,2.2c1.1,1.9,3,3,5.9,3.9
		c0-7.3,0-14.2,0-21.1c0-2.6-2.3-2.5-3.9-3.1c-8.7-3.2-15.4-8.6-18.6-17.5c-4.9-13.7,2.3-28.3,17.4-33.9c4.3-1.6,5.4-3.5,5.3-7.7
		c-0.2-10.7,0-10.4,10.3-10.9c4.8-0.2,6.3,1.4,5.6,5.8c0,0.2,0,0.3,0,0.5c-1.1,6.9,0.6,11.3,8,14.2c8.2,3.2,13.2,10.2,15.1,19.4
		c-8.4,0-17,2.7-22.9-6.5c-0.4,0.3-0.7,0.6-1.1,1c0,7,0,14,0,21c0,2.3,2.2,2.2,3.6,2.7c7.7,3,14.1,7.5,17.8,15.1
		C433.2,613,426.3,629.3,410.7,635.1z"/>
	<path class="st6" d="M388.8,580.1c-4.6-2.5-7.7-5.5-7.7-10.3c0-4.8,3.4-7.5,7.7-10.1C388.8,566.8,388.8,573.1,388.8,580.1z"/>
	<path class="st6" d="M405.2,620.4c0-7.2,0-13.5,0-20.4c4.5,2,7.5,4.8,7.8,9.5C413.3,614.7,409.9,617.5,405.2,620.4z"/>
</g>
</svg>
