<?xml version="1.0" encoding="utf-8"?>
<!-- Generator: Adobe Illustrator 19.0.0, SVG Export Plug-In . SVG Version: 6.00 Build 0)  -->
<svg version="1.1" id="Calque_1" xmlns="http://www.w3.org/2000/svg" xmlns:xlink="http://www.w3.org/1999/xlink" x="0px" y="0px"
	 viewBox="0 0 612 792" style="enable-background:new 0 0 612 792;" xml:space="preserve">
<style type="text/css">
	.st0{fill:#010101;}
	.st1{fill:#040404;}
	.st2{fill:#080808;}
</style>
<g>
	<path d="M72,119c0,1.6,0,3.3,0,5.3c5.5-2.2,10.7-4,16.2-4.2c7.1-0.3,13.8,1.4,19,6.1c12,10.6,25.1,10.8,39.2,5.4
		c1.1-0.4,2.1-0.9,3.7-1.5c-1.2,12.1-3.3,23.4-10.4,33.2c-6,8.4-14.9,11.1-25.2,8.3c-5.3-1.5-10.1-4.3-14.9-6.8
		c-7.6-3.9-15-4.1-22,1.4c-3.8,3-6.1,6.5-5.8,11.9c0.5,8.8,0.2,17.7,0.1,26.5c0,2.5,0.4,4.1,2.9,5.4c6,3.1,8.3,9.1,6.5,15.7
		c-2.4,8.7-4.7,17.3-4.4,26.5c0.3,8.8,3.7,13,12.4,15c6.4,1.4,12.9,1.5,19.4,1.4c8.5-0.2,17-0.3,25.5-0.7c3.3-0.2,4.5,0.8,4.9,4.3
		c0.9,9.2,2.3,18.4,3.6,28.6c5.6-6.8,10.6-12.8,15.6-18.7c1.6-1.9,0-2.7-0.9-3.7c-2.8-3.2-5.7-6.4-9.1-10.1c10.5,0,20.2,0,30.6,0
		c-3.2,3.6-6.2,6.9-9.1,10.2c-0.9,1-2.4,1.8-0.9,3.7c5,5.9,9.9,11.9,15.6,18.7c1.3-10.2,2.6-19.1,3.5-28.2c0.3-3.3,1.1-4.7,5-4.8
		c16.9-0.6,28.4,8,37.1,21.3c9.1,13.9,13.2,29.7,15.8,45.9c4.4,27.6,4.1,55.4,2.6,83.3c-0.4,7.7-4.9,12.8-11.3,13.9
		c-8.7,1.4-16.3-5-16-14c0.3-12.3,1.2-24.6,0.9-37c-0.5-21.7-1.7-43.3-8.8-64c-0.5-1.6-1.2-3.1-1.8-4.6c-0.2-0.4-0.4-0.8-1.3-2.4
		c0,2.8,0,4.3,0,5.8c0,82-0.2,164,0.1,246c0,13.2-4.5,22.1-17.1,26.4c-3,0-6,0-9,0c-12.4-3.1-17.6-9.6-17.6-22.8
		c0-47.5,0-94.9,0-142.4c0-2,0.1-4-0.2-6c-0.2-1.4-0.7-2.7-2.4-2.7c-1.7,0.1-2,1.5-2.2,2.9c-0.2,1.8-0.1,3.7-0.1,5.5
		c0,45.3,0,90.6,0,135.9c0,3.3,0,6.7-0.5,10c-1.7,10.5-6.7,18-18,19.7c-3,0-6,0-9,0c-13.3-3.2-18.5-10.1-18.5-24.7
		c0-85.4,0-170.8,0-256.2c0-9.5,0-9.6-9.6-9.5c-9.4,0.1-18.7-0.7-27.6-3.5c-11.8-3.7-20.8-10.9-26.1-22.4c-2.2-4.7-2.5-9.6-2.6-14.6
		c0-4.6,0-9.3,0-13.9c0.1-8.3,0.9-16.6,3.8-24.5c1.6-4.3,3.7-8.2,8-10.4c3.3-1.7,3.1-4.8,3.1-7.8c0-24.6,0-49.2,0-73.8
		c0-2.6-0.4-5.4,1.5-7.6C68,119,70,119,72,119z"/>
	<path class="st0" d="M561,456c-36.6,0-73.2,0.1-109.7,0.1c-1.4,0-3.5,1.1-3.7-1.8c-0.2-3.2,2.1-2.3,3.7-2.3
		c36.6,0,73.2,0,109.7,0.1C561,453.3,561,454.7,561,456z"/>
	<path d="M378.9,357.7c-4,6.8-5.1,14.3-5.9,21.8c-1.4,12.5-1.2,24.9-0.6,37.4c0,0.8,0.1,1.7,0,2.5c-0.5,4.4-3,7-7.4,7.5
		c-4.1,0.5-7.9-2.5-8.3-6.9c-1.6-22.2-1.7-44.3,5.3-65.7c1.8-5.4,4.4-10.4,8.2-14.7c4.8-5.4,10.7-8.3,18-8.3c11.5,0.1,23,0,34.5,0
		c6.1,0,11.8,2,17.7,3c1.6,0.3,3.2,1,5.1,0.3c-3-8.9-8.3-16.3-13.4-23.9c-1.2-1.8-2.7-3.4-3.6-5.4c-1.9-3.9-1.2-7.7,2.4-10.2
		c3.6-2.5,7.7-2.3,10.3,1.2c8.2,10.9,16.5,21.8,20,35.4c3,11.4-3.5,19.3-15.4,19.3c-4.2,0-8.2-1.1-12.4-1.8c-1,1.7-0.5,3.6-0.5,5.3
		c0,49.6,0,99.3-0.1,148.9c0,8.6-5.2,14.2-12.8,14c-7.2-0.2-12-5.6-12-13.8c-0.1-27.8,0-55.6,0-83.5c0-1.2,0-2.3,0-3.5
		c0-1.3-0.7-1.7-1.9-1.7c-1.1,0.1-2.5-0.3-2.5,1.5c0,1.3,0,2.7,0,4c0,27.5,0,55,0,82.5c0,9.2-5.5,15.1-13.3,14.5
		c-6.8-0.5-11.3-5.7-11.4-13.3c0-25.7,0-51.3,0-77C378.9,404,378.9,380.9,378.9,357.7z"/>
	<path d="M352.7,387.1c-3.6-2.9-3.4-6.1-3.3-9.5c0.9-17.5,1-35-3.5-52.1c-0.6-2.2-1.4-4.3-3-6.3c0,10.2,0,20.4,0,30.6
		c0,38.5,0,77,0,115.4c0,8.1-4.3,13.4-11.2,13.9c-8,0.6-13.5-4.9-13.5-13.7c-0.1-27.8,0-55.6,0-83.5c0-1.2,0-2.3,0-3.5
		c0-1.8-1.3-1.6-2.4-1.6c-1.1,0-2,0.1-2,1.5c0,1.2,0,2.3,0,3.5c0,27.7,0,55.3,0,83c0,8.5-4.4,13.8-11.4,14.3
		c-7.8,0.5-13.3-4.9-13.3-13.3c0-29.5,0-59,0-88.5c0-19.3,0-38.6-0.3-58c-3.6,7-4.8,14.7-5.6,22.4c-1.3,12.5-1.4,24.9-0.5,37.4
		c0.4,5.3-2.6,9.2-7.3,9.6c-4.5,0.4-8.3-3-8.6-8.3c-1.3-20.3-1.2-40.6,4.3-60.5c1.8-6.6,4.6-12.8,9.1-18.1c5.3-6.3,12-9.2,20.2-8.8
		c2.5,0.1,3.3,0.7,2.7,3.1c-4.8,19.5-2.5,39.4-2.9,59.2c-0.1,3,1.1,3.6,3.8,3.5c8.2-0.1,16.3-0.1,24.5,0c2.3,0,3.7-0.3,3.6-3.2
		c-0.3-19.8,2-39.7-2.8-59.2c-0.6-2.5-0.1-3.4,2.8-3.5c8.9-0.3,15.8,3.2,21.1,10.2c6.7,8.9,9.1,19.4,11.1,30.1
		c0.9,4.8,0.2,8.8-2.1,13.2C355.2,358.9,354,372.7,352.7,387.1z"/>
	<path d="M462.9,282.3c-4.8,9-5.7,18.8-6.7,29.2c-4.6-6.4-8.6-12.1-12.7-17.7c-0.6-0.9-0.9-1.7-0.7-2.8c2.4-11.6,5.8-22.6,15.6-30.4
		c5.4-4.3,5.9-4.1,9.4,1.8c13.3,22.8,28.6,44.1,46.3,63.7c2.1,2.3,2.9,4.5,2.9,7.5c-0.1,31.7-0.1,63.3,0,95c0,5.9-2.2,10.4-7.8,12.7
		c-4.7,1.9-9.1,1.1-13-2.3c-3.2-2.9-4.1-6.6-4.1-10.8c0.1-27.5,0-55,0-82.5c0-1,0-2,0-3c0.1-1.7,0-2.8-2.3-2.8c-2.3,0-2.2,1.4-2.2,3
		c0,8,0,16,0,24c0,20.5,0,41,0,61.5c0,7.5-3.8,12.6-9.8,13.7c-8.2,1.5-14.8-4-14.8-12.6c-0.1-22.7-0.1-45.3,0-68
		c0-6.9-1-13.9,1.9-20.7c0.9-2.1,0.8-5.1,0.1-7.4c-3.6-12.4-1.5-25.1-2-37.7C462.8,291.2,462.9,286.7,462.9,282.3z"/>
	<path d="M163.7,180.8c21.5,0,38.4,17.2,38.3,38.9c-0.1,21.1-17.4,38.3-38.5,38.3c-21.4,0-38.7-17.4-38.6-38.8
		C125,197.6,142.1,180.8,163.7,180.8z"/>
	<path d="M517,281.2c0,14.8,0,28.2,0,41.7c-2,0.3-2.4-1.3-3.2-2.2c-16.5-18.6-30.7-38.9-43.4-60.3c-2.6-4.3-0.9-4.4,2.8-4.3
		c10.8,0.2,21.7,0.3,32.5,0c10.3-0.3,17.5,4.4,22.8,12.6c5.5,8.6,7.9,18.3,9.3,28.2c2.2,15.4,2.5,30.9,1.3,46.4
		c-0.4,5.4-3.8,8.9-8.4,8.6c-4.6-0.3-7.9-4.1-7.6-9.4c1.1-16.5,1-33-2.3-49.3C520.2,289.5,519.4,285.8,517,281.2z"/>
	<path d="M512.2,228.1c0,12.6-10,22.5-22.6,22.4c-12.2-0.1-22.2-10-22.3-22.3c-0.1-12.4,9.9-22.5,22.4-22.5
		C502.4,205.7,512.2,215.5,512.2,228.1z"/>
	<path d="M316.5,242.7c12.5,0.3,22.2,10.4,21.8,23c-0.3,12.2-10.5,22-22.7,21.8c-12.6-0.3-22.3-10.3-22.1-22.9
		C293.8,252,303.9,242.4,316.5,242.7z"/>
	<path class="st0" d="M302.9,324.9c-0.1-9.3,1-18.6,2.9-27.7c0.6-3,1.5-4.6,4.8-4c1,0.2,2,0,3,0c12.2,0,12.3-0.1,14.2,11.9
		c1.6,10.2,1.8,20.5,1.5,30.9c-0.1,2.3-0.7,3.1-3.2,3.1c-6.7-0.2-13.3-0.2-20,0c-2.4,0.1-3.2-0.8-3.1-3.1
		C303,332.2,302.9,328.5,302.9,324.9z"/>
	<path class="st0" d="M425,314.3c-5.4,9.3-15.3,13.3-25.1,10.7c-9.4-2.6-16.3-11.5-16.5-21.4c-0.1-10.2,6.5-19,16.4-21.9
		c9.4-2.8,19.2,0.9,24.5,9.7c-8.8,0-17.2,0.2-25.5-0.1c-3.7-0.1-5,0.9-4.7,4.7c0.3,4.8,0.3,9.7,0,14.5c-0.2,3.1,0.9,4,3.9,3.9
		C406.8,314.1,415.6,314.3,425,314.3z"/>
	<path class="st0" d="M246.4,456.1c-7.7,0-15.3,0-23,0c-1.6,0-3.5,0.5-3.3-2.3c0.1-2.5,1.9-1.8,3.3-1.8c15.1,0,30.3,0,45.4,0
		c1.6,0,3.4-0.4,3.2,2.3c-0.1,2.6-1.9,1.8-3.2,1.8C261.4,456.1,253.9,456.1,246.4,456.1z"/>
	<path class="st1" d="M419.5,303c-0.3,3.3-2,5.6-5.8,6c-3.4,0.3-6.7-2.6-6.6-5.9c0.1-3.6,2-5.9,5.7-6.2
		C416.5,296.5,419.4,299.2,419.5,303z"/>
	<path class="st2" d="M316,343.8c3.6,0.2,5.6,2.2,5.6,5.7c-0.1,3.4-2.2,5.6-5.8,5.5c-3.3-0.1-5.3-2.3-5.3-5.4
		C310.3,346.1,312.3,344,316,343.8z"/>
</g>
</svg>
