<?xml version="1.0" encoding="utf-8"?>
<!-- Generator: Adobe Illustrator 19.0.0, SVG Export Plug-In . SVG Version: 6.00 Build 0)  -->
<svg version="1.1" id="Calque_1" xmlns="http://www.w3.org/2000/svg" xmlns:xlink="http://www.w3.org/1999/xlink" x="0px" y="0px"
	 viewBox="0 0 612 792" style="enable-background:new 0 0 612 792;" xml:space="preserve">
<style type="text/css">
	.st0{fill:#00ADED;}
</style>
<path class="st0" d="M467,188.2c-2.7-12-14.8-22.6-26.7-24.1c-24.2-3.1-45.1,3.6-62.4,20.9c-19.7,19.7-39.5,39.2-59.1,58.9
	c-2.1,2.1-4.2,3.2-7.4,3.2c-66.2-0.2-132.3-0.2-198.5-0.5c-5.7,0-11.3-0.1-16.8,0.8c-19.3,3-34,13.8-46.5,28
	c-5.8,6.6-1.9,18.1,6.7,20.5c41.7,11.4,83.4,22.8,125.1,34.2c13.1,3.6,26.3,7.2,39.8,10.9c-12.8,12.9-25.2,25.4-37.6,37.9
	c-1.1,1.1-2.4,1-3.7,1.1c-20,0.6-40,2-59.9,1.8c-13.4-0.1-23.8,4.2-32.6,14.1c-6.7,7.6-4.6,18.1,5.1,21.8
	c26.7,10.1,53.4,20.3,80.3,30.3c5.1,1.9,8.7,4.3,10,9.8c0.9,3.8,2.8,7.5,4.2,11.2c9.4,24.3,18.8,48.7,28.3,73
	c2.9,7.5,12.4,11.3,18.5,6.7c9.4-7.3,17-16,17.4-28.9c0.6-21.8,1.4-43.6,2-65.4c0.1-2.8,0.9-4.6,2.9-6.5
	c9.8-9.5,19.5-19.1,29.3-28.7c7.3-7.1,7.2-7.1,10,2.9c14,51.2,28.3,102.2,41.7,153.5c2.7,10.2,16.9,15.8,23.8,6
	c1.4-2,3.5-3.6,5.3-5.3c14.1-14,21.1-30.9,21.1-50.7c0.1-67.8,0.1-135.7,0-203.5c0-3.2,0.9-5.6,3.2-7.8
	c11.5-11.3,22.9-22.8,34.3-34.2c8.5-8.5,17.2-16.8,25.4-25.5C467.5,235.5,472.5,213.1,467,188.2z M435.3,246.6
	c-20.3,19.3-39.6,39.5-59.6,59.2c-3.5,3.4-5,7-4.9,11.9c0.1,68.7,0,137.3,0.2,206c0,17.4-5.6,31.8-19.4,43.8
	c-1.3-4.3-2.4-8.1-3.5-12c-14.1-51.6-28.2-103.3-42.3-154.9c-0.5-1.8-0.7-3.6-1.3-5.3c-2.5-7.1-9.1-8.7-14.5-3.5
	c-8.6,8.3-17.1,16.8-25.7,25.2c-7.7,7.6-15.4,15.2-23.2,22.7c-2.7,2.6-4,5.4-4.1,9.2c-0.6,23-1.4,46-2,68.9
	c-0.1,5.5-1.5,10.1-6.8,13.4c-5.4-13.9-10.8-27.7-16.1-41.5c-5.8-15-11.7-30-17.4-45.1c-1.6-4.4-4.3-7-8.7-8.7
	c-26.5-9.9-52.9-19.9-79.3-30c-1.4-0.5-4-0.5-3.8-2.4c0.1-1.2,2.1-2.4,3.4-3.5c2-1.6,4.5-1.9,7.1-2c23.3-0.7,46.6-1.5,69.9-2.1
	c4.3-0.1,7.6-1.5,10.6-4.5c15.5-15.6,31.1-31.1,46.6-46.7c7.3-7.3,5.7-13.5-4.2-16.2c-54.4-14.9-108.7-29.7-163.1-44.6
	c-2.2-0.6-4.4-1.3-7.2-2.1c10.9-11.8,23.2-19,39.4-18.9c54.2,0.2,108.3,0.1,162.5,0c16,0,32-0.1,48,0.1c4.5,0.1,7.9-1.4,11-4.6
	c20.8-20.9,41.9-41.5,62.6-62.5c13.9-14.1,30.6-18.7,49.7-15.9c6.7,1,11.5,5.7,12.7,12.4C455.6,213.3,451.3,231.4,435.3,246.6z"/>
</svg>
