<?xml version="1.0" encoding="utf-8"?>
<!-- Generator: Adobe Illustrator 19.0.0, SVG Export Plug-In . SVG Version: 6.00 Build 0)  -->
<svg version="1.1" id="Calque_1" xmlns="http://www.w3.org/2000/svg" xmlns:xlink="http://www.w3.org/1999/xlink" x="0px" y="0px"
	 viewBox="0 0 612 792" style="enable-background:new 0 0 612 792;" xml:space="preserve">
<style type="text/css">
	.st0{fill:#8F278D;}
	.st1{fill:#00ACEC;}
	.st2{fill:#C7252C;}
	.st3{fill:#C6252C;}
	.st4{fill:#8AC43F;}
	.st5{fill:#FCFCFC;}
</style>
<g>
	<path class="st0" d="M212.1,389.6c2.2-2.1,5-2.5,7.3-3.8c3.1-1.9,5-4.4,4.6-8.2c-0.4-3.6-2.7-5.6-6-6.6c-3.6-1.1-7.4-2-11-3.3
		c-4.9-1.8-9.4-1.3-13.9,1.2c-1.4,0.8-3,1.3-4.5,2c-1.2-7.5-0.9-8.4,5.6-10.8c14.7-5.6,30.1-8.1,45.5-11
		c29.9-5.5,60.1-9.7,90.3-13.7c33.3-4.4,66.7-8.3,100-12.4c11.9-1.5,23.8-3.2,35.7-4.2c19.6-1.6,38,2.6,55.3,12
		c3.9,2.1,3.3,3.6,0.6,6c-3.8,3.4-8.1,5.9-13,7.1c-4.9,1.2-2,4.3-1.9,6.7c0.1,3.2,2.1,2.6,4.2,2c7.4-2.1,14-5.5,18.9-11.5
		c1.9-2.3,2.9-2.2,5-0.2c9.9,9.6,9.7,19.6,0.3,29.6c-9.5,10.1-21.4,10.1-33.6,10.1c-33,0-64.5-8.4-96-17
		c-19.5-5.3-39.1-9.7-59.3-10.3c-24.3-0.7-47.5,4.5-69.8,14.1c-16,6.9-31,15.3-45.2,25.2c-3.7,2.6-6.8,3.3-10.7,0.7
		C217.9,391.9,215,390.9,212.1,389.6z"/>
	<path class="st1" d="M370.2,389.1c2.1,0.1,5-0.4,5.7,2.4c0.7,3.1-2.5,4.1-4.6,5.2c-30.6,16-61.3,32-92,47.9
		c-56.9,29.6-113.8,59.3-170.8,88.8c-11.1,5.8-22.8,10-35.2,12c-1.8,0.3-4.1,0.8-5-1c-1-1.9,1.1-3.3,2.4-4.5
		c4.9-4.5,10.5-8.1,16.3-11.4c76.9-43.7,153.8-87.4,230.8-131.1c5.9-3.3,12.1-5.3,18.9-5.7C347.7,391.1,358.8,390,370.2,389.1z"/>
	<path class="st2" d="M501.7,388c-43.1,11.2-87.4,12.9-131.3,18c0.1-1.8,1.6-1.9,2.5-2.5c1.1-0.7,2.4-1.2,3.5-1.9
		c5.1-3.2,7.5-7.6,6.3-11.9c-1.2-4.4-5.4-7.6-11.3-7.3c-13.6,0.7-27.2,1.8-40.8,3.1c-5.8,0.6-11.2,3-16.3,6
		c-6.5,3.8-13.5,6.7-19.4,11.2c-11,8.5-23.1,8.4-35.6,6c-8.8-1.7-16.9-5.6-25.7-9.5c10.9-7.7,21.7-14,32.9-19.6
		c24.9-12.5,51.1-20,79.2-19.3c21.5,0.5,42.2,5.6,62.8,11.1c21.2,5.7,42.4,11.4,64.3,14.1C482.4,386.7,492,387.4,501.7,388z"/>
	<path class="st1" d="M391.5,320.7c2.7-4.4,5-8.1,7.2-11.7c21-33.4,41.9-66.8,62.9-100.2c2-3.2,4.1-6.5,7.2-8.9
		c3.8-2.9,7.6-1.2,8.2,3.5c0.4,3.2-0.6,6.2-1.6,9.2c-11.5,32.8-23,65.5-34.4,98.3c-0.9,2.6-2,4-5,4.3
		C421.4,317,407,318.8,391.5,320.7z"/>
	<path class="st3" d="M229.1,344.2c-8.9,2.1-17.4,3.9-25.9,6.1c-10.3,2.6-10.3,2.8-16.5-6.1c-15.5-22.2-31.1-44.4-46.5-66.7
		c-0.8-1.1-2.7-2.2-1.5-3.7c0.9-1.3,2.8-0.9,4.2-0.7c2.4,0.3,4.4,1.4,6.2,2.9c26.2,22.1,52.3,44.2,78.5,66.4
		C228,342.8,228.4,343.3,229.1,344.2z"/>
	<path class="st0" d="M336.5,474.3c-14.7,1.2-23.3-3.8-28.8-16.3c-2-4.6-3.6-9.3-5.8-13.8c-1.3-2.7-0.4-3.9,2-4.9
		c1.8-0.8,3.6-1.7,5.3-2.7c2.6-1.6,4.7-2.5,5.9,1.5c0.5,1.6,1.3,1.6,2.9,0.8c11.5-6,23.8-4.7,36.1-3.9c2.2,0.1,4,1.5,5.6,3
		c8.6,8.5,6.2,26.3-4.5,31.9C349,473.2,342.3,474.1,336.5,474.3z"/>
	<path class="st4" d="M115.5,421.8c-1.8-0.2-4.2,0.1-4.8-1.9c-0.7-2.3,1.7-3.4,3.4-4.2c10.5-5.4,21.1-10.6,31.7-15.9
		c16.1-8,32.5-15.5,48.2-24.1c8.3-4.5,14.8-0.1,21.8,1.9c2.8,0.8,0.2,2.3-1,2.8c-6.4,2.9-12.8,5.7-19.2,8.5
		c-22.9,9.9-45.8,19.8-68.7,29.8C123.4,420.4,119.6,421.5,115.5,421.8z"/>
	<path class="st4" d="M256,308.4c-1.2,4.9-2.7,10.7-4.1,16.4c-0.9,3.5-1.9,7.1-2.8,10.6c-1.8,7.1-8.3,9.2-14,4.4
		c-6.2-5.2-6.2-5.2-2.2-12.4c3.3-5.9,6.6-11.9,10-17.8c1.2-2,2.5-4,3.9-5.7c1.6-1.9,3.7-3.9,6.4-2.6
		C255.7,302.4,255.9,305,256,308.4z"/>
	<path class="st5" d="M341.8,453.2c-0.1-2.5,0.4-5,1.6-7.2c1.5-2.6,3.6-4.4,6.7-4.4c3.2,0,5.2,1.8,6.7,4.5c2.1,3.9,2.4,7.9,0.9,12
		c-1.3,3.5-3.4,6.4-7.4,6.5c-4,0.1-6.1-2.7-7.7-6.1C342,456.8,341.9,455,341.8,453.2z"/>
</g>
</svg>
