<?xml version="1.0" encoding="utf-8"?>
<!-- Generator: Adobe Illustrator 19.0.0, SVG Export Plug-In . SVG Version: 6.00 Build 0)  -->
<svg version="1.1" id="Calque_1" xmlns="http://www.w3.org/2000/svg" xmlns:xlink="http://www.w3.org/1999/xlink" x="0px" y="0px"
	 viewBox="0 0 612 792" style="enable-background:new 0 0 612 792;" xml:space="preserve">
<style type="text/css">
	.st0{fill:#B2B2B2;}
	.st1{fill:#EFF0F0;}
	.st2{fill:#FDFDFD;}
	.st3{fill:#698A3C;}
	.st4{fill:#95C455;}
	.st5{fill:#405424;}
	.st6{fill:#987207;}
	.st7{fill:#5B7633;}
	.st8{fill:#5D7733;}
	.st9{fill:#9BA197;}
	.st10{fill:#989898;}
	.st11{fill:#AA6D17;}
	.st12{fill:#6A8A3C;}
	.st13{fill:#6A8A3E;}
	.st14{fill:#FCBE0C;}
	.st15{fill:#F09B21;}
	.st16{fill:#915E14;}
</style>
<g>
	<path class="st0" d="M325.8,181.3c24.1-0.3,46.1,6.5,66.6,18.9c2.1,1.3,4.3,2.5,6.4,3.8c1.6,0.2,3.4-0.4,4.8,0.8
		c1.3,3.3,5.1,4,6.9,6.8c5.7,4.1,9.8,9.8,14.7,14.7c14.8,18.1,23.5,38.8,27.1,61.8c3.7,23.5-1.6,45.2-11.9,66.2
		c-3.3,6.7-7.1,13.2-10.5,19.9c-3.5,3.3-4.7,7.9-7.4,11.7c-6.1,8.7-11,18.2-18.5,25.9c-1.3,1.3-2,3-2.6,4.8
		c-21.5,28.9-44.9,56.3-70.2,82c-1,0.8-1.8,1.7-2.8,2.5c-0.7,0.5-1.5,0.6-2.4,0.5c-1.3-0.5-1.8-1.5-1.8-2.8
		c-0.3-2.8-0.5-5.6-0.5-8.5c0-43.1,0-86.2,0-129.3c0-3-0.4-6,0.7-8.9c2-4,6-3.7,9.5-4.3c13-2,24.1-7.5,33.2-16.8
		c19.2-19.5,20.5-53.1,3.3-74.1c-9.6-11.7-21.8-18.7-36.7-21.1c-3.2-0.5-7.2,0-9.3-3.8c-0.8-1.4-0.8-2.9-0.8-4.4
		c-0.1-13.7-0.1-27.3,0-41C323.8,184.7,324,182.7,325.8,181.3z"/>
	<path class="st1" d="M326,351c0,47.5,0,95,0,142.5c0,2.3,0.7,4.7-1,6.7c-1.6,0.8-2.9,0.2-4.1-1c-5.5-7.8-13-13.7-19.3-20.8
		c-12.6-14.3-25-28.9-37-43.7c-2.9-5.9-8-10.1-11.8-15.3c-8.7-11.9-17-24.1-25-36.5c-1.8-2.8-2.5-6.2-5-8.5
		c-6.9-11.8-13-23.9-17.8-36.7c-6.8-18.1-7.7-36.6-4-55.4c4.2-21.3,13-40.4,27.1-57c4.3-5.2,8.9-10.1,14-14.5
		c3.2-2.7,6.5-5.3,10-7.6c2.9,0.5,5-1.3,7.3-2.7c20.4-12.6,42.5-19.3,66.5-19.2c0.1,17.3,0.1,34.5,0.2,51.7
		c-0.1,0.2-0.3,0.4-0.4,0.7c-3,2.5-6.7,1.5-10.1,2.2c-42.4,8.3-61,58.2-33.9,91.9c10,12.4,23.2,19.7,39.3,21.2
		c1.7,0.1,3.4,0.1,4.6,1.4C325.7,350.5,325.9,350.8,326,351z"/>
	<path class="st2" d="M252,203.2c-1,5-5.5,6.5-9.1,8.8c-4.4,2.4-8.2-0.5-12.3-1.1c-1.7-0.5-3.3,0-4.9,0.5c-27.9,7.2-56,13.8-83.9,21
		c-2.3,0.6-4.6,0.3-6.8,1.2c-3.7,1.5-7.7,2.2-11.5,3.2c-2.5,0.7-4.3,1.9-4.2,4.8c0.2,6.2-1.4,12.2-0.9,18.4
		c-0.7,2.3-0.8,4.5-0.9,6.9c-0.4,16.4-1.7,32.8-3,49.2c-0.5,6.6-0.7,13.3-1.1,19.9c-1.3,23.7-3.1,47.4-4.4,71.1
		c-0.6,10.9-1,21.9-2.4,32.8c-0.2,9.3-1.1,18.6-1.6,27.8c-0.9,12.7-1.3,25.5-2.5,38.3c-0.5,5.5-0.7,11-1,16.4
		c-1,18.6-2.7,37.1-3.3,55.7c-0.2,6.7,0.2,6.9,6.6,5.1c35-9.6,70-19.1,105-28.6c2.9-0.8,5.8-1.6,8.8-1.2c4.8,0,9.1,1.9,13.5,3.2
		c31.7,9.7,63.3,19.6,95,29.1c18.3-5.6,36.5-11.4,54.8-17.1c15.6-4.9,31.1-9.7,46.7-14.6c2.3-0.7,4.6-0.4,6.9-0.9
		c10.2,1.7,20,4.9,30,7.6c28.1,7.5,56.3,15,84.4,22.7c5.9,1.6,6.3,1.3,6-4.9c-0.9-20.3-2.6-40.5-3.7-60.7
		c-0.8-15.3-2.6-30.5-2.5-45.8c-1.4-13.6-2-27.2-2.7-40.9c-1.2-11.6-1.7-23.2-2.4-34.8c-0.6-11.1-2-22.2-1.8-33.4
		c0-1.2-0.2-2.3-0.4-3.5c0.4-10.6-1.6-21.1-2.1-31.6c-0.1-2.8,0-5.6-0.2-8.4c-2-7.3-1.5-14.9-2-22.3c-0.9-13.6-1.9-27.2-2.3-40.8
		c-0.1-4-1.3-7.9-1-11.9c0.4-4.6-1.6-6.9-6.2-8c-14.6-3.4-29-7.3-43.6-10.8c-20-4.8-40.1-9.5-59.9-15.2c-4.9-0.5-9.8,0.5-14.7-1
		c-2.7-0.8-5.4-1.4-7.3-3.7c-1.5-0.6-3-1.2-4.5-1.8c7.3-2.2,14.6-4.5,21.9-6.7c1.8-0.5,3.6-0.2,5.4,0.2
		c38.8,9.6,77.5,19.1,116.3,28.6c3.1,0.8,4.7,1.7,4.9,5.4c1.1,20.6,2.5,41.2,3.8,61.8c1.5,23.1,3.1,46.2,4.6,69.3
		c1.5,22.9,2.8,45.9,4.3,68.8c2.2,34.7,4.5,69.4,6.7,104.2c1.3,21.1,2.5,42.2,3.9,63.3c0.3,4.4-2.1,3.2-4.4,2.6
		c-19.8-5.3-39.5-10.5-59.3-15.9c-22.7-6.1-45.3-12.2-67.9-18.4c-3.1-0.9-6-0.7-9.2,0.3c-31.6,10-63.2,19.7-94.8,29.8
		c-5.7,1.8-10.8,1.7-16.5-0.1c-32.4-10.2-64.8-20.1-97.3-30.2c-2.4-0.7-4.5-0.6-6.8,0.1c-40.8,11.2-81.5,22.3-122.3,33.4
		c-9,2.4-8.9,2.5-8.3-6.5c2.1-34.4,4.2-68.8,6.3-103.2c2.1-33.6,4.5-67.1,6.7-100.7c2.2-33.9,4.1-67.8,6.2-101.7
		c1.2-18.9,2.6-37.9,3.7-56.8c0.2-3.3,1.4-4.6,4.4-5.3c37.6-9.3,75.2-18.7,112.8-28.1c3.7-0.9,7.2-1,10.8,0.1
		C240.5,199.9,246.3,201.5,252,203.2z"/>
	<path class="st3" d="M327,587.7c-17.4-5.2-34.8-10.4-52.2-15.7c-18.7-5.7-37.3-11.5-56-17.3c-2.6-1.1-3.2-3.4-2.9-5.8
		c1.6-13.9,0-27.9,1.6-41.9c0.1-1,0.3-2,0.2-3c-0.5-16,1.5-31.9,1.1-47.9c-0.2-6.7,0.8-13.2,1.7-19.8c2.5-4.3,5.4-1.9,8-0.3
		c10.3,6.4,20.4,13.1,30.6,19.6c16.5,10.6,32.9,21.3,49.5,31.7c5,3.1,8.9,7.5,13.5,10.9c1,0.6,2,1.3,3,1.9c0.4,0.9,1.2,0.7,1.9,0.7
		c2.3,1.3,2.3,3.5,2.3,5.7c0.2,25.1,0.1,50.2,0,75.3C329.2,584.1,328.9,586.2,327,587.7z"/>
	<path class="st4" d="M327,587.7c0-29-0.1-57.9-0.1-86.9c0.3-0.3,0.6-0.7,0.9-1c6.3-2.5,11.9-6.4,17.6-10
		c20.8-13.1,41.3-26.5,60.9-41.3c4.1-3.1,8.4-6,11.8-10c2.5-1.8,4.7-4.1,7.4-5.7c2-1.2,4.2-2.3,6,0.4c1.2,4.9,1.6,9.9,1.6,14.8
		c-0.1,15.6,0.7,31.2,1.4,46.8c0.6,14.9,0.3,29.9,1.6,44.8c0.4,5,1.5,10.3-1.2,15.1c-17.5,4.5-34.5,10.6-51.8,15.8
		C364.3,576.2,345.7,582,327,587.7z"/>
	<path class="st5" d="M427.8,373.7c5.1-10.2,10.7-20.3,15.1-30.9c15.8-38.5,7.8-73.8-13.8-107.5c-1.9-2.9-4-5.7-6.1-8.5
		c-1.6-3.3-2.5-6.8-2.1-10.6c0.5-4.9,2.9-6.6,7.4-4.7c9.8,4,18.9,9,27.2,15.6c24.4,19.3,40.7,43.8,46.2,74.7c2.6,15,2.5,30.1-1.3,45
		c-0.2,1.1-0.6,2.1-1.4,2.9c-19.7,15-40.7,28.1-60.8,42.4c-1.6,1.2-3.2,2.4-5.1,3.2c-2.1,0.9-4.2,1.3-5.7-1.1
		C426.5,387.3,425.1,380.4,427.8,373.7z"/>
	<path class="st3" d="M498.9,346.9c1.1-9.6,2.5-19.1,2.2-28.8c-1-28.3-11.3-52.6-30-73.6c-12-13.5-26.4-23.7-43-30.9
		c-4.6-2-5-1.8-5.1,3.3c0,3.3,0,6.7,0.1,10c-4.6-4.6-9.2-9.2-13.9-13.8c-0.3-2.8,1.5-3.5,3.7-3.4c4.1,0.1,8.2-0.2,12.3-0.7
		c26.9,6.6,53.8,13.1,80.7,19.7c8.9,2.2,17.7,4.3,26.6,6.5c2.3,0.6,4.3,1,4.4,4.2c1.5,26.6,3.2,53.1,4.9,79.7
		c-1.1,2.1-2.5,3.9-4.5,5.2c-10.6,7-20.9,14.3-31.3,21.4C503.9,346.9,501.7,349.2,498.9,346.9z"/>
	<path class="st6" d="M430,432.3c-3.5,2.6-7.1,5.1-10.6,7.7c-24.1,17-48.3,33.7-73.2,49.6c-3.9,2.5-7.8,5-11.8,7.4
		c-1.4,0.9-2.8,2.8-4.8,1.1c24.7-26.2,48.2-53.4,70-82.1c7.2-7.3,15.3-13.3,23.9-18.9c2.3-1.5,4.6-2.9,7-0.2c1.2,2.5,1,5.2,0.8,7.8
		c-0.5,8.7,1.2,17.5,0,26.2C430.9,431.5,430.5,431.9,430,432.3z"/>
	<path class="st1" d="M326,233c32.2,0.1,59,26.6,59,58.5c0,32.9-26.1,59.3-59,59.5l0,0c-3.5-3.7-2.3-8-1.4-12.2
		c1.7-3.1,5-3.2,7.8-3.7c20.1-3,34.9-20.2,36.8-37.4c1.9-17.1-4.3-30.5-17.6-40.9c-5.4-4.2-11.5-6.5-18.1-7.8
		c-3.1-0.6-6.7-0.6-8.9-3.7C323.7,241,322.6,236.7,326,233L326,233z"/>
	<path class="st7" d="M429,396.1c-7.3,5.1-14.6,10.2-21.9,15.3c-2.4,1.7-4.7,3.7-7.6,4.6c9.8-13.9,19.2-28,28.3-42.3
		c0.4,7.2,0.8,14.3,1.3,21.5C429.3,395.5,429.3,395.8,429,396.1z"/>
	<path class="st8" d="M329.5,498.1c2.3-0.2,3.9-1.7,5.7-2.9c26.1-17.4,52.3-34.9,78.4-52.3c1.8-1.2,3.4-2.8,5.7-3
		c-9.1,8.3-19.4,15.1-29.4,22.2c-18.3,13-37.2,25.1-56.5,36.6c-1.6,1-3.3,3.4-5.6,1.1C328.4,499.3,329,498.7,329.5,498.1z"/>
	<path class="st9" d="M425.1,208.8c-2.6,1.8-5.6,0.9-8.4,1.3c-2.7,0.4-5.5,0.6-7.6,2.9c-1.4-2.9-6.3-2.9-5.9-7.2
		c2.4,0.5,5.1,0.6,7.2,1.7C415.2,210,420.3,207.8,425.1,208.8z"/>
	<path class="st4" d="M134.7,232c14.9-3.8,29.8-7.7,44.8-11.4c15.9-4,31.9-7.9,47.8-11.9c1.3-0.3,2.5-1.1,3.7,0.1
		c0.4,5.8,0.5,11.6-1.1,17.3c-15.8,19.6-25.3,41.9-28.4,67c-2.5,20.8,2.9,39.9,11.6,58.3c3.6,7.7,7.8,15,11.7,22.6
		c2.2,11.3,0.2,22.7-0.3,34c-0.2,0.5-0.4,1-0.8,1.5c-4.1,2.8-8.9,3.4-13.6,4.5c-4.1,0.9-6.6-1.3-8.1-4.9c-3-7.2-5.9-14.5-8.8-21.8
		c-12.8-32.7-25.7-65.3-38.5-98c-6.6-16.9-13.5-33.6-19.9-50.6C134,236.4,133.1,234.3,134.7,232z"/>
	<path class="st10" d="M326,233c0,4.3,0.1,8.6,0.1,12.9c-1.5,2.2-4.1,2.3-6.3,3.1c-22.8,3.8-37.5,21.7-37.4,43.3
		c0.1,22.1,15.6,39.9,38.3,42.9c2,0.7,4.2,1,5.5,3c-0.1,4.3-0.1,8.6-0.2,12.9c-31.5,1.2-58.2-25.7-58.9-54
		C266.3,259,290.4,233.4,326,233z"/>
	<path class="st11" d="M322,498.2c-6.8-3.1-12.8-7.8-19.1-11.8c-25.8-16.5-51.5-33.1-77.2-49.6c-1.1-0.7-2.3-1.2-3.5-1.7
		c-0.6-0.3-1.1-0.7-1.4-1.2c-1.8-6.8-0.8-13.7-0.6-20.6c0-1.8,1.6-2.8,2.7-4c0.1-0.2,0.2-0.4,0.4-0.5c2.2-1.4,4.1-0.3,6,0.8
		c9.5,5.7,19.1,11.1,28.5,17c3.2,2,5.8,4.8,8.6,7.3c13.8,16.5,27.6,33.1,42.1,49C313,487.8,318.4,492.3,322,498.2z"/>
	<path class="st12" d="M266.2,433.8c-14.4-8.4-28.8-16.8-43.1-25.1c-0.2-11.6-0.3-23.2,1.7-34.7
		C237.2,394.9,251.7,414.4,266.2,433.8z"/>
	<path class="st13" d="M229.9,226.1c-1-5.8-2.6-11.7,1.1-17.3c4,1.1,8,2.2,12,3.2C238.6,216.7,234.3,221.4,229.9,226.1z"/>
	<path class="st3" d="M434.8,554.7c-0.6-7.8-1.4-15.5-1.7-23.3c-0.9-27.8-1.4-55.5-2.3-83.3c-0.2-5.3-0.8-10.6-0.8-15.9
		c0,0,0.1-0.5,0.1-0.5c1.3-3.1,3.3-5.4,6.5-6.6c4.8-1.7,8.8-4.6,12.7-7.7c4.2-3.4,8.3-3.4,12.8-0.7c23.1,13.8,46.3,27.4,69.4,41.2
		c4.4,2.7,8.9,5.2,13.3,7.8c2.7,1.6,4.9,3.4,6.7,5.8c0.9,13.4,1.8,26.9,2.7,40.3c1.5,23.7,2.9,47.5,4.7,71.1c0.4,5.1-1.2,4.8-5,3.8
		C514.1,576.1,474.5,565.4,434.8,554.7z"/>
	<path class="st4" d="M221.9,434.3c0.1,0.3,0.1,0.5,0.3,0.8c-0.7,22.3-0.9,44.6-2.4,66.9c-0.9,14.3,0.1,28.6-1.6,42.9
		c-0.4,3.2-0.7,6.7,0.6,9.9c-17.2,4.5-34.3,9-51.5,13.7c-22.3,6-44.5,12.2-66.7,18.3c-5.8,1.6-5.6,1.6-5.1-4.5
		c1.3-17.9,2.3-35.8,3.5-53.8c1.3-20.2,2.8-40.5,4.2-60.7c1.4-3.2,4.6-3.7,7.4-4.5c19.4-5.5,38.8-10.8,58.1-16.3
		c14.6-4.1,29.1-8.2,43.7-12.3C215.4,433.8,218.6,431.9,221.9,434.3z"/>
	<path class="st14" d="M221.9,434.3c-39.6,11.1-79.2,22.3-118.8,33.4c-0.3-9.2,0.8-18.4,1.6-27.6c2-2.4,4.6-3.6,7.6-4.4
		c18.5-4.9,37-9.7,55.4-15c6.4-1.8,6.6-2,4.2-8.1c-9.7-25.5-19.2-51.1-28.9-76.6c-8.1-21.3-15.9-42.7-24.2-63.9
		c-1.6-4.2-1.8-8.8-2.7-13.2c0.3-6.6,0.7-13.3,0.9-19.9c0.1-2.3,1-3.4,3.1-3.8c4.8-1.1,9.7-2.2,14.5-3.3
		c14.5,37,29.1,73.9,43.6,110.9c8.6,21.8,17.3,43.6,25.7,65.5c1.4,3.6,3.1,4.3,6.6,3.3c4-1.1,7.8-2.9,12.1-2.6
		C221.7,417.5,222.2,425.9,221.9,434.3z"/>
	<path class="st4" d="M116.2,259c10.6,28,21.3,55.9,31.9,83.9c9.3,24.4,18.4,48.9,27.7,73.3c1,2.7,1.6,4.4-2.1,5.4
		c-23,6.1-45.9,12.3-68.9,18.5C108.6,379.8,112.4,319.4,116.2,259z"/>
	<path class="st15" d="M551.3,471.6c-9.5-4.1-17.9-10.1-26.8-15.2c-21.6-12.6-43-25.4-64.4-38.3c-3.1-1.9-5.5-2.2-8.5,0
		c-4.8,3.4-9.8,6.2-14.8,9.3c-1.3-3.8,1.7-5.4,3.9-7.3c14.9-12.8,28.7-26.6,40.4-42.5c4.8-6.5,8.6-13.4,11.9-20.7
		c1.3-2.9,2.8-5.6,4.8-8.1c0.4-0.7,0.7-1.3,1.1-2c3.5-0.5,5.8-3.1,8.5-4.9c10.5-7.1,20.9-14.3,31.3-21.4c0.9-0.6,2-1,3.1-1.6
		c1,11.4,2.1,22.7,3.1,34.1c0.2,2,1,4.3-0.7,6.2c-1.2,2.8-3.5,4.7-6,6.3c-13,8.2-26,16.6-39,24.9c-4.1,2.6-4.1,2.6,0.1,5.4
		c14.3,9.7,28.9,18.8,43.2,28.5c2.6,1.8,5.3,3.4,6.4,6.7C549.6,444.5,550.5,458,551.3,471.6z"/>
	<path class="st3" d="M548.8,431c-18.2-11.9-36.4-23.9-54.6-35.7c-2.7-1.8-2.7-2.7-0.1-4.4c16.7-10.5,33.4-21.2,50.1-31.7
		c0.9,13.5,1.9,27.1,2.8,40.6C547.6,410.2,548.2,420.6,548.8,431z"/>
	<path class="st16" d="M497.8,348.9c-3.5,14.7-11.9,26.6-21.1,38c-10.6,13.1-22.7,24.8-35.6,35.7c-1.6,1.4-3.5,2.6-4.3,4.8
		c-2.3,1.5-4.5,3-6.8,4.4c-1.5-11.9-1-23.8-1.1-35.7c0-0.3,0.1-0.6,0.1-0.9c10.9-6.4,20.8-14.1,31.3-21
		C472.9,365.8,485.3,357.3,497.8,348.9z"/>
	<path class="st7" d="M318.9,246.9c2.3-1.3,4.8-0.7,7.2-1c15.6,1,28.7,7,37.6,20.2c20.1,29.6,1.5,67.9-34.7,71.8c-1,0.1-2,0.2-3,0.3
		c-2.1-0.4-4.4,0.2-6.4-1c5.4-3.4,4.9-8.7,4.9-14c-0.1-20.5-0.1-40.9,0-61.4C324.9,255.8,325.2,250.1,318.9,246.9z"/>
	<path class="st5" d="M318.9,246.9c1,0,2,0.2,3,0.1c4-0.5,5.2,1.3,5.1,5.1c-0.2,14.8-0.1,29.6-0.1,44.4c0,11,0,22,0,32.9
		c0,7.3,0,7.3-7.2,7.7c-21.8-2.1-39.4-22-39.7-44.7C279.9,269.9,297,249.7,318.9,246.9z"/>
</g>
</svg>
