<?xml version="1.0" encoding="utf-8"?>
<!-- Generator: Adobe Illustrator 19.0.0, SVG Export Plug-In . SVG Version: 6.00 Build 0)  -->
<svg version="1.1" id="Calque_1" xmlns="http://www.w3.org/2000/svg" xmlns:xlink="http://www.w3.org/1999/xlink" x="0px" y="0px"
	 viewBox="0 0 612 792" style="enable-background:new 0 0 612 792;" xml:space="preserve">
<style type="text/css">
	.st0{fill:#375E97;}
</style>
<g>
	<path class="st0" d="M506.6,274.3c-2.4-4.4-2.7-7.7-0.2-12.3c9.6-17.3,18.8-34.9,28-52.3c3.1-5.8,1.4-8.7-5.2-9
		c-6.8-0.3-13.7-0.3-20.5-0.7c-3.9-0.2-6.5,1-8.9,4.1c-8.6,11-17.5,21.9-26.3,32.7c-1.2,1.5-2.1,3.2-4.7,3.2
		c-19.5-0.1-38.9,0-58.8,0c0.6-1.8,1.1-3.2,1.6-4.6c14-35.8,27.9-71.5,41.9-107.3c2.7-6.8,1.3-9.2-6.1-9.7
		c-11.3-0.7-22.7-0.6-33.9-1.8c-5.8-0.6-8.8,1.4-11.8,5.9c-26,37.9-52.2,75.7-78.2,113.5c-2,3-4.1,4-7.7,4c-23-0.2-46-0.2-69,0
		c-11.4,0.1-22,3.4-31.3,10.1c-13.7,9.9-14,26.2-0.7,36.7c8.1,6.4,17.5,9.4,27.9,9.3c24,0,48,0.1,72-0.1c4.4,0,6.9,1.4,9.3,5
		c26.1,38,52.4,75.9,78.5,113.9c2.2,3.1,4.4,5,8.5,4.7c12-0.8,24-1.3,35.9-1.8c7.5-0.3,9.1-2.8,6.3-9.9
		c-10.4-26.6-20.7-53.3-31.1-79.9c-4.1-10.5-8.1-21-12.3-31.9c20,0,39.3,0,58.6,0c2.7,0,3.8,1.8,5.1,3.4
		c8.8,10.9,17.6,21.7,26.3,32.7c2.2,2.7,4.5,4,8,3.8c6.8-0.3,13.7-0.2,20.5-0.4c7.4-0.2,9.1-3.2,5.6-9.9
		C525,308.6,516,291.4,506.6,274.3z M518.4,326.1c-7.6,1-12.6-1.6-17.1-7.9c-7.2-10-15.3-19.3-23-29c-1.7-2.2-3.8-3.1-6.4-3.1
		c-22.7,0-45.3-0.1-68,0c-5.9,0-7.5,3-5.1,9.2c13.9,35.8,27.7,71.6,41.8,107.3c1.7,4.4,1.4,5.6-3.6,5.6c-7.5-0.1-15,0.5-22.5,1
		c-2.6,0.2-4.3-0.6-5.8-2.8c-26.6-38.7-53.3-77.3-79.8-116c-2.3-3.3-5-4.4-8.8-4.3c-25.8,0.1-51.6,0-77.5,0.1
		c-6.4,0-12.6-1-18.3-4.1c-5.3-2.9-9.1-7-9.3-13.3c-0.2-6.2,3.8-10,8.8-12.9c6.9-4,14.5-5.8,22.4-5.9c12.2-0.1,24.3,0,36.5,0
		c12.5,0,25-0.2,37.5,0.1c4.2,0.1,6.7-1.5,9-4.8c26.1-38,52.4-75.9,78.5-113.9c2.2-3.2,4.4-4.8,8.5-4.4c7.1,0.7,14.3,1.1,21.5,1
		c4.9-0.1,4.5,1.8,3.1,5.2c-7.9,19.9-15.7,39.9-23.5,59.9c-6.2,15.9-12.5,31.9-18.6,47.9c-2.5,6.5-0.7,9.1,6.1,9.1
		c22,0,44-0.1,66,0.1c3.6,0,5.9-1.3,8-4c8.8-11.1,17.7-22.1,26.6-33.1c1.9-2.3,13.6-4.3,15.7-2.5c1.7,1.5-0.1,2.8-0.7,3.9
		c-8.2,15.6-16.3,31.3-24.9,46.6c-2.9,5.1-2.9,9.1,0,14.2c8.6,15.4,16.7,31.1,25,46.6C522.3,324.8,522.4,325.6,518.4,326.1z"/>
	<path class="st0" d="M371,443.8c-9.2-6.6-19.6-9.8-30.9-9.9c-22.2-0.1-44.3-0.2-66.5,0.1c-5.4,0.1-8.6-1.5-11.7-6
		c-26-38.1-52.2-76-78.3-114c-1.8-2.6-4-3.7-7.1-3.6c-12.3,0.6-24.6,1.2-36.9,1.8c-7.2,0.4-8.8,2.9-6.2,9.7
		c10.1,25.9,20.1,51.7,30.2,77.6c4.4,11.3,8.7,22.6,13.3,34.2c-1.5,0.1-2.5,0.2-3.4,0.2c-17.8,0-35.7-0.1-53.5,0.1
		c-3.1,0-4.9-1.2-6.7-3.4c-8.8-11.1-17.8-22.1-26.5-33.2c-1.9-2.5-4.1-3.6-7.2-3.4c-6.5,0.2-13,0.2-19.5,0.3
		c-9.3,0.2-10.9,2.8-6.7,10.9c9.1,17,18,34.1,27.4,51c2.4,4.4,2.2,7.6-0.1,11.9c-9.6,17.3-18.7,34.9-28,52.4c-3.1,5.8-1.3,8.8,5.3,9
		c7,0.3,14,0.3,21,0.7c3.5,0.2,6-1,8.1-3.7c5.2-6.7,10.6-13.3,15.9-19.9c4.4-5.4,7.9-12.8,13.6-15.6c5.5-2.7,13.4-0.8,20.2-0.8
		c13.3,0,26.5,0,40.2,0c-0.8,2.4-1.5,4.3-2.2,6.1c-13.8,35.5-27.6,70.9-41.4,106.4c-2.3,6-0.9,8.5,5.5,8.9c12,0.7,24,1,35.9,1.8
		c4.8,0.4,7.6-1.4,10.2-5.3c26.1-38,52.4-75.9,78.4-114c2.2-3.2,4.5-4.1,8.1-4.1c24.3,0.1,48.7,0.1,73,0.1c10.1,0,19.4-3,27.4-9.3
		C385.4,470,385.1,453.8,371,443.8z M364,474.8c-5.7,3.8-12.2,5.2-19,5.2c-13,0-26,0-39,0c-12.3,0-24.7,0.4-37-0.2
		c-6.2-0.3-9.6,2-12.9,6.9c-25.6,37.5-51.6,74.9-77.3,112.3c-2,2.9-4.1,4.3-7.7,4c-7.5-0.6-15-0.9-22.5-1c-3.6,0-4.2-0.9-2.9-4.3
		c9.3-23.7,18.5-47.4,27.7-71.1c4.9-12.7,9.9-25.4,14.8-38.1c2.1-5.4,0.2-8.5-5.5-8.5c-22.7-0.1-45.3,0-68-0.1
		c-3.1,0-4.9,1.5-6.6,3.6c-8.6,10.8-17.3,21.6-25.9,32.4c-2.7,3.3-12.6,5.6-16.3,3.7c-2-1.1-0.5-2.3,0-3.3
		c2.7-5.3,5.6-10.6,8.4-15.9c5.9-11.2,11.8-22.4,17.9-33.4c2-3.6,2-6.6,0-10.2c-8.8-16.1-17.2-32.3-25.9-48.4
		c-1.7-3.1-1.9-4.1,2.4-4.5c7.1-0.7,12,1.4,16.3,7.4c7.1,9.9,15.2,19,22.7,28.5c2.3,2.9,4.8,4.1,8.5,4.1c21.7-0.1,43.3,0,65-0.1
		c7.5,0,9.3-2.7,6.5-9.7c-13.8-35.5-27.6-70.9-41.4-106.4c-2.2-5.7-2.2-5.7,4.1-5.9c6.8-0.3,13.7-0.5,20.5-1.1
		c3.6-0.3,5.7,0.9,7.8,3.9c26.1,38,52.4,75.9,78.5,113.9c2.7,3.9,5.6,5.4,10.3,5.4c24.2-0.2,48.3-0.1,72.5-0.1
		c8.5,0,16.6,1.8,23.8,6.3C374.3,456.7,374.4,467.9,364,474.8z"/>
</g>
</svg>
