<?xml version="1.0" encoding="utf-8"?>
<!-- Generator: Adobe Illustrator 19.0.0, SVG Export Plug-In . SVG Version: 6.00 Build 0)  -->
<svg version="1.1" id="Calque_1" xmlns="http://www.w3.org/2000/svg" xmlns:xlink="http://www.w3.org/1999/xlink" x="0px" y="0px"
	 viewBox="0 0 612 792" style="enable-background:new 0 0 612 792;" xml:space="preserve">
<style type="text/css">
	.st0{fill:#3A3E49;}
</style>
<g>
	<path class="st0" d="M584.2,396.8c-20.7,2.3-41.4,4.2-62.1,6.5c-3.6,0.4-5.8-0.6-8.2-3c-21.9-21.7-44-43.2-65.8-64.9
		c-7.8-7.8-16.5-11.9-28-11.7c-26.1,0.6-52.3,0.2-78.5,0.2c-1.6,0-3.2,0-5.5,0c3.9-7.7,7.7-14.7,10.9-22c1.9-4.4,4.3-6,9.3-5.9
		c22.8,0.3,45.6,0.2,68.5,0.2c5.5,0,8.6-2.5,8.7-6.7c0.1-4.2-3.1-6.8-8.6-6.8c-25.8,0-51.6,0-77.5-0.1c-4.2,0-6.8,1.5-8.6,5.3
		c-5.2,10.8-10.9,21.3-16.1,32.1c-1.4,3-3.1,3.9-6.4,3.9c-35.3-0.1-70.6-0.1-106-0.1c-1,0-2.3,0.5-3.3-0.7c0.4-1.2,0.6-2.6,1.3-3.6
		c6.9-10.8,5.3-20.6-2.1-30.6c-4.5-6-7.5-13.1-11.4-20.3c6.5,0,12.1,0.2,17.8-0.1c2.8-0.1,4.6,0.9,6.3,3.1c9,11.4,18.1,22.6,27.1,34
		c2.3,2.9,4.9,4.1,8.6,4.1c15.3-0.1,30.7,0,46-0.1c5.9,0,9.2-2.6,9.2-6.9c0-4.4-3.3-6.8-9.1-6.8c-13.5,0-27-0.1-40.5,0.1
		c-3.1,0-5.1-0.8-7.1-3.3c-8.9-11.4-18.1-22.7-27-34c-2-2.6-4.3-3.8-7.6-3.8c-11.2,0.1-22.3,0-33.5,0.1c-7.7,0.1-10.5,4.9-6.8,11.5
		c4.5,8.2,8.3,16.8,13.8,24.3c7.4,9.9,7.9,19.3,1.6,29.5c-0.1,0.1-0.2,0.3-0.2,0.5c-0.5,2.6-2,3.4-4.6,3.3c-3.8-0.2-7.7-0.2-11.5,0
		c-10,0.5-14.6,7.4-11.3,16.9c1.6,4.5,3.9,8.5,6.9,12.1c2.1,2.5,1.9,4.3,0.3,6.9c-10.4,17.4-20.8,34.8-30.9,52.4
		c-1.9,3.3-4,5-7.8,4.4c-5.1-0.8-8.2,1.6-10.9,5.9C109.7,444.5,95.8,466.2,82,488c0,1.7,0,3.3,0,5c2.6,2.8,5.5,4.1,9.5,4.1
		c139-0.1,277.9-0.1,416.9,0c5,0,8.3-1.6,11.5-5.3c24.6-28.7,49.4-57.2,74.1-85.8c0-1.7,0-3.3,0-5
		C591.7,397.3,588.5,396.4,584.2,396.8z M566.9,416.4c-18.4,21.3-36.8,42.6-55.2,64c-2,2.3-3.9,3-6.8,3
		c-132.6-0.1-265.3,0-397.9-0.1c-1.6,0-3.3,0.5-5.2-0.7c3.7-5.9,7.4-11.8,11.1-17.7c6.5-10.3,13.1-20.5,19.4-30.8
		c1.7-2.9,3.6-4.1,7.1-4c16.2,0.2,32.3,0.1,48.5,0.1c6.3,0,9.1-2,9.3-6.5c0.1-4.7-2.8-6.9-9.4-7c-9.2,0-18.3-0.1-27.5,0.1
		c-4,0.1-5.1-0.3-2.6-4.4c10-16.5,19.7-33.2,29.5-49.8c4.1-7,4-7.5-0.7-13.8c-2-2.7-3.9-5.4-5.8-8.1c-0.5-0.7-0.8-1.4-1.1-2.1
		c1.2-1.4,2.6-0.8,3.8-0.8c79,0,158,0,236.9-0.1c6.3,0,11.7,1.4,16.3,5.9c20.3,19.5,40.6,39,61,58.5c0.4,0.4,0.8,0.9,1.9,2.2
		c-14.9,0-28.7,0-42.5,0c-1.5,0-3-0.1-4.5,0.1c-4,0.4-6.5,2.4-6.7,6.7c-0.2,4,2.4,7,6.8,7c28.1-0.4,56.3,1.6,84.3-2.3
		c10.8-1.5,21.7-2.3,32.8-3.5C569.4,414.2,567.9,415.2,566.9,416.4z"/>
	<path class="st0" d="M430.5,419.7c-1.1-16.4-7.5-30.6-19-42.4c-17.4-17.8-39.6-23.9-63.6-24.1c-39.5-0.3-79-0.1-118.5-0.1
		c-9.5,0-11.2,1.7-11.2,11.5c0,18.2,0,36.3,0,54.5c0,8.2,1.8,10.1,9.8,10.1c32.2,0,64.3,0,96.5,0c32.3,0,64.7,0,97,0
		C428.5,429.2,431,426.4,430.5,419.7z M411.5,415.8c-29.1-0.2-58.3-0.1-87.4-0.1c-29.1,0-58.3,0-87.4,0.1c-3.2,0-4.7-0.4-4.6-4.2
		c0.3-13.5,0.2-27,0-40.5c0-3.1,0.7-4.3,4.1-4.2c38.6,0.1,77.3-0.1,115.9,0.3c17.6,0.2,33.8,5.2,47.2,17.2
		c8,7.2,13.2,16.1,16.2,26.4C416.6,415,415.7,415.9,411.5,415.8z"/>
</g>
</svg>
