<?xml version="1.0" encoding="utf-8"?>
<!-- Generator: Adobe Illustrator 19.0.0, SVG Export Plug-In . SVG Version: 6.00 Build 0)  -->
<svg version="1.1" id="Calque_1" xmlns="http://www.w3.org/2000/svg" xmlns:xlink="http://www.w3.org/1999/xlink" x="0px" y="0px"
	 viewBox="0 0 612 792" style="enable-background:new 0 0 612 792;" xml:space="preserve">
<style type="text/css">
	.st0{fill:#34C7A1;}
	.st1{fill:#E2E3E5;}
	.st2{fill:#010101;}
	.st3{fill:#7BD5BA;}
	.st4{fill:#030303;}
	.st5{fill:#040404;}
	.st6{fill:#C3C3C3;}
	.st7{fill:#DCDCDC;}
	.st8{fill:#27B98F;}
	.st9{fill:#020504;}
	.st10{fill:#5DCBAD;}
	.st11{fill:#E3E4E5;}
	.st12{fill:#E3E4E6;}
	.st13{fill:#060605;}
	.st14{fill:#C4C4C4;}
	.st15{fill:#C1C1C1;}
	.st16{fill:#0B1310;}
	.st17{fill:#E1E2E4;}
	.st18{fill:#05100D;}
	.st19{fill:#04110D;}
	.st20{fill:#020605;}
	.st21{fill:#020806;}
	.st22{fill:#040706;}
	.st23{fill:#C2C2C2;}
	.st24{fill:#0C0C0C;}
	.st25{fill:#020202;}
</style>
<g>
	<path class="st0" d="M245,652c-0.3,0-0.7,0-1,0c-2.8-4.1-1.4-8.7-1.5-13.1c-0.3-7-0.3-7.3-7.3-7.3c-30.4,0.1-60.8-0.3-91.2,0.2
		c-2.7-0.2-5.4-0.4-8.1-0.4c-3.5,0.1-7.1,0.1-10.6,0c-2.4,0.1-4.7,0.1-7.1,0c-5.2,0.1-10.3,0.1-15.4,0c-10.5-0.3-16.8-6.7-17.2-17.3
		c0-86.2,0-172.4,0-258.5c-0.3-7.6,4-12,10.3-15c3.4-1.6,7-2.1,10.7-2.1c16,0,31.9-0.1,47.9,0c5.2,0,5-3.7,5-7.3
		c0-31.9,0-63.8,0-95.8c0-10.1-0.1-20.3,0.1-30.4c0-2.2-0.7-5.1,2.7-6c1.4,1.5,1.4,3.3,1.4,5.2c0,39.2,0.2,78.3-0.1,117.5
		c0.2,4.1,0.1,8.3,0.1,12.4c0,2.9,1.3,4.3,4.2,4.3c17.4,0.1,34.9,0,52.3,0c3.7,0,4.3-2.3,4.3-5.3c0.1-11.5-0.1-22.9,0.1-34.4
		c-0.3-31.5-0.1-62.9-0.1-94.4c0-1.8,0.1-3.7,1.3-5.2c2.7-0.4,2.3,1.8,2.6,3.2c0.4,2.1,0.2,4.3,0.2,6.5c0,40.7,0,81.5,0,122.2
		c0,3.8-0.3,7.7,5.3,7.5c15.3-0.2,30.6-0.1,46-0.1c16.4,0,24.7,7.9,24.3,24.2c-0.2,7,0.4,13.9,0.4,20.9c0,67.5,0,134.9,0,202.4
		c0,2.8,0.9,6.1-2.1,8.2c-2.5-2-1.9-4.8-1.9-7.4c-0.1-18.3,0-36.6,0-55c0-48.3,0-96.6,0-144.9c0-8.7-1.4-9.6-9.7-6.7
		c-13.9,4.9-22.8,17.8-23.2,34.1c-0.2,9.2-0.1,18.3-0.1,27.5c0,37.5,0,75,0,112.4c0,8.7,1.9,16.8,7.1,24c5,6.9,11.6,11.3,19.9,13.2
		c2.4,0.6,5,0.6,7.1,2.2c6.6,10.1,1.8,30.2-8.4,35.8c-4,2.2-8.3,2-12.6,2c-3.5,0-7,0.1-10.5,0c-5.6,0.4-5.5,0.4-5.8,6
		c-0.2,2.7,1.3,6-2.4,7.7c-2-2.1-1.4-4.6-1.4-7.1c-0.2-6.6-0.4-6.9-7.2-6.4c-0.5,0-1,0.1-1.5,0.1c-4.2-0.7-5.4,1.3-5.5,5.3
		C246.2,642,247.8,647.2,245,652z"/>
	<path class="st1" d="M85,236c2.2-3.2,1.1-7.1,1.8-10.6c6.5-33.3,32.6-59.4,66.4-65.2c19.7-3.4,38.2,0.1,55.4,10.6
		c3.2,1.9,6.5,2,10,2.2c5.1,0.4,10.5-1.6,15.4,1.2c-2.3,1.8-5.1,1.4-7.7,1.4c-20.8,0-41.7,0-62.5,0c-8.1,0-8.1,0-8.1,8
		c0,42.5,0,85,0,127.5c0,2.8,0.2,5.7-0.5,8.4c-1.2,3.3-3.9,2.6-6.3,2c-11.9-2.9-23-7.7-32.7-15.4c-13.8-10.9-23.3-24.8-28.6-41.6
		c-2-6.4-1.5-13.1-2.6-19.6C85,242,85,239,85,236z"/>
	<path class="st2" d="M342,140c6.6,20.3,15,39.7,27.3,57.3c3.5,5,7.2,10,11.7,14.2c2.5,0.4,3.9,2.4,5.6,4c8.1,7.4,17,13.2,27.7,16.3
		c4.7,1.4,9.5,1.7,14.3,2.6c3,1.1,4.2,3.3,3.3,6.3c-1.2,3.6-4.5,2.6-7.2,2.8c-4.5,0.2-8.8-0.8-13-2.2c-12.6-4.2-23.9-10.7-33.2-20.4
		c-1.3-1.3-2.7-2.5-3-4.5c-18.9-20.4-30.5-44.9-39.6-70.9c-1.7-4.7,2.5-3.7,4-5.4C340.7,140,341.3,140,342,140z"/>
	<path class="st2" d="M459,211.4c13.9-14.1,23-31.1,30.8-49c3.2-7.3,5.9-14.8,8.1-22.4c0.7,0,1.3,0,2,0c5,1.2,4.6,3.9,3.1,8.1
		c-8.9,25-20.4,48.4-38.5,68.1C461.1,216.6,459.7,214.5,459,211.4z"/>
	<path class="st2" d="M118,652c0-7.3,0-14.5,0-21.8c2.3,0,4.6,0,7,0c2.2,2.7,1.3,6,1.4,9.1c0.1,2.8,1.1,4.3,4.1,4.3
		c3.1,0,3.9-1.6,4-4.3c0.1-3-0.9-6.3,1.5-9c2.3,0.3,4.8-0.5,7.1,0.6c0,7.1-0.1,14.2-0.1,21.3C134.7,652,126.3,652,118,652z"/>
	<path class="st2" d="M269.9,630.2c0,7.3,0.1,14.5,0.1,21.8c-8.3,0-16.7,0-25,0c0-5.2,0-10.5,0-15.7c0-6.7,0-6.7,6.9-5.5
		c1.9,1.6,1.6,3.9,1.6,5.9c0,5.5,0,7.1,6,7c1,0,1.9,0.5,2.8,0.8c1.5-2.2,0.6-4.8,0.7-7.1C263.1,630.3,263,630.3,269.9,630.2z"/>
	<path class="st3" d="M85.8,615.2c-0.3,0-0.6,0-0.8-0.2c0-86.7,0-173.3,0-260c0.3,0,0.6,0,0.9-0.1c0,4.3,0.6,8.7,0,13
		c-0.6,4.1,1.7,7.8,0.4,12.1c-1.2,4.1-0.3,8.9-0.3,13.4c0,4.7,0,9.3,0,14c0,4.5,0,9,0,13.5c0,62.8,0,125.6,0,188.4
		C86,611.2,85.9,613.2,85.8,615.2z"/>
	<path class="st4" d="M520,525c-12.5-0.1-22.6-10.3-21.7-21.8c2.1,0,4.3,0,6.4,0c0.6,0.3,1.1,0.7,1.3,1.4c1.5,6.3,5,10.6,11.5,12.2
		c1.2,0.3,1.9,1.2,2.5,2.2C520,521,520,523,520,525z"/>
	<path class="st5" d="M505.1,648.1c-8.1,0.2-8.7-0.6-5.4-8c2.8-6.4,7.7-10.6,14.4-12.7c2-0.7,4.1-1.2,6,0.6c0,2,0,4,0,6
		c-4,2.1-8.9,2.6-11.4,7C507.3,643.3,506.9,646.1,505.1,648.1L505.1,648.1z"/>
	<path class="st6" d="M520,519c-0.9-0.4-1.7-1-2.6-1.1c-8.2-1.5-11.7-7-12.7-14.7c5.1,0.2,10.3-1,15.3,0.8C520,509,520,514,520,519z
		"/>
	<path class="st6" d="M505.1,648.1c1.1-9.5,5.7-13.8,14.9-14.1c0,4.7,0,9.3,0,14C515,648,510.1,648,505.1,648.1z"/>
	<path class="st7" d="M520,626c-1.5-1.3-1-3.1-1-4.7c0-30.2,0-60.4,0-90.7c0-1.6-0.6-3.4,1-4.7C520,559.3,520,592.7,520,626z"/>
	<path class="st1" d="M226.4,199.6c-0.1,14.3-0.3,28.5-0.3,42.8c-0.1,18.9-0.1,37.8-0.2,56.8c-10.4,9.4-22.1,16.9-35.6,21
		c-7.7,2.4-15.5,3.4-23.5,3.1c-1.7,0-3.3,0-4.7-1.2c-0.1-25.3-0.2-50.5-0.2-75.8c0-14.3,0-28.6,0-42.9c0-1.3-0.3-2.6-0.4-3.9
		c1.3-2.4,3.6-2.1,5.7-2.1c17.9-0.1,35.8-0.1,53.7,0C222.8,197.4,225.2,197.2,226.4,199.6z"/>
	<path class="st8" d="M302.2,594.2c-22-1.5-36.2-16.9-36.2-39c0-46.8,0-93.6,0-140.4c0-18.3,10-31.7,27.4-37
		c1.6-0.5,3.2-0.6,4.9-0.7c2.9-0.2,3.8,1.1,3.7,3.8c-0.1,8.2,0,16.3,0,24.5c0,61.3,0,122.6,0,183.9
		C302,590.9,302.1,592.5,302.2,594.2C302.2,594.2,302.2,594.2,302.2,594.2z"/>
	<path class="st2" d="M226.4,199.6c-1-0.8-2.2-0.6-3.4-0.6c-19.4,0-38.9,0-58.3,0c-1.1,0-2.3,0.3-3.4,0.5
		c-0.1,9.3-0.3,18.6-0.3,27.9c-0.1,35.3,0,70.6-0.1,105.9c0,6.8,0,6.8-6.9,6.7c-0.1-6.3-0.2-12.7-0.2-19
		c0.1-35.3,0.1-70.5,0.2-105.8c0-12.6,0-25.3,0-37.9c0-2.2,0-3.7,3-3.7c25,0.1,49.9,0.1,74.9,0.2c0.6,0,1.3,0.3,1.9,0.5
		c0.1,7.3,0.1,14.5,0.2,21.8c1.4,2.4,1.6,5,1.6,7.7c0,24.5,0,49.1,0,73.6c0,3-0.5,5.9-1.6,8.7c-0.1,18-0.2,36-0.3,54
		c-6.9,0.2-6.9,0.2-6.9-6.7c0-43,0-85.9-0.1-128.9C226.8,202.8,226.5,201.2,226.4,199.6z"/>
	<path class="st9" d="M154.2,486.1c0-22.6,0-45.3,0-67.9c0-1.2,0-2.3,0-3.5c0.1-2.4,0.9-4.5,3.6-4.6c3-0.1,3.8,2.2,3.9,4.8
		c0,1,0,2,0,3c0,45.4,0,90.9,0,136.3c0,1.2,0.1,2.3-0.1,3.5c-0.3,2-1.3,3.5-3.5,3.5c-2.5,0-3.6-1.5-3.8-3.7c-0.1-1.5-0.1-3-0.1-4.5
		C154.2,530.7,154.2,508.4,154.2,486.1z"/>
	<path class="st9" d="M233.8,486c0,22.7,0,45.3,0,68c0,1.3,0.1,2.7-0.1,4c-0.4,2-1.6,3.3-3.8,3.2c-2-0.1-3.1-1.3-3.3-3.1
		c-0.2-1.5-0.2-3-0.2-4.5c0-45.2,0-90.3,0-135.5c0-3.1-1.3-7.8,3.7-7.8c4.9,0,3.7,4.6,3.7,7.7C233.9,440.7,233.8,463.3,233.8,486z"
		/>
	<path class="st9" d="M190.2,485.6c0-22.5,0-45,0-67.5c0-1.7-0.1-3.4,0.2-5c0.3-1.8,1.5-3,3.4-3c1.9,0,3.1,1.2,3.5,2.9
		c0.3,1.3,0.3,2.6,0.3,4c0,45.8,0,91.7,0,137.5c0,1,0,2-0.1,3c-0.3,2.2-1.3,3.8-3.8,3.7c-2.2-0.1-3.2-1.6-3.5-3.6
		c-0.2-1.3-0.1-2.7-0.1-4C190.2,530.9,190.2,508.3,190.2,485.6z"/>
	<path class="st10" d="M121.2,561.7c0-50.9,0-101.7,0-152.6c0.2,0,0.3,0,0.5,0c0,50.9,0,101.8,0,152.7
		C121.5,561.8,121.4,561.8,121.2,561.7z"/>
	<path class="st2" d="M469,503c-6.8,1.8-6.9,1.6-7.2-4.9c-0.2-5.4,0.9-10.9-0.8-16.3c-1.4-0.7-2-2.2-2.8-3.4
		c-2.7-3.8-6.3-5.9-11-5.9c-18.3-0.1-36.6-0.1-54.9,0c-5.2,0-8.8,2.4-11,7.1c-0.7,1.5-1,3.2-2.6,4.2c-1.3,4-0.5,8.2-0.6,12.3
		c-0.2,7.1,0,7.1-7,6.9c0.1-7.5-0.8-15,0.7-22.4c2.1-10.5,8.7-16.6,19.3-16.8c19-0.4,38-0.5,56.9,0c13.5,0.3,20.7,8.7,20.9,22.3
		C469,491.7,469,497.3,469,503z"/>
	<path class="st11" d="M302.6,195c-12.5,0.3-18.3-9.4-18.4-17.5c0-9.5,7.4-18.5,18.8-18.5c8.3,0,17.7,7.5,17.7,18.5
		C320.7,188.1,311.5,196.4,302.6,195z"/>
	<path class="st1" d="M234.1,286c0-29.8-0.1-59.7-0.1-89.5c0-0.2,0.1-0.3,0.1-0.5c6.9,6.6,9.6,15.6,11.6,24.3
		c4.9,20.6,3.1,40.7-7.6,59.6C236.9,282,235.8,284.2,234.1,286z"/>
	<path class="st12" d="M512,467.5c0,6.6-3.9,10.5-10.4,10.5c-5.9,0-10.6-4.7-10.6-10.6c0-6.3,4.7-11.4,10.6-11.3
		C507.5,456.1,512,461.1,512,467.5z"/>
	<path class="st13" d="M341.8,503.2c1,10-8.2,20.9-18.1,21.8c-2,0.2-3.2-0.2-2.9-2.6c0.2-1.5,0.2-2.9,0.3-4.4c0.5-0.6,1.2-1.2,2-1.4
		c5.9-1.7,9.6-5.5,10.9-11.5c0.2-0.8,0.6-1.5,1.4-1.9C337.5,503.2,339.6,503.2,341.8,503.2z"/>
	<path class="st14" d="M335.3,503.2c-1.7,10-4.9,13.3-14.3,14.8c-0.3,0-0.7,0-1,0c1.5-3.7,1.2-7.4,0.4-11.2c-0.5-2.6,0.5-3.8,3-3.8
		C327.4,503.1,331.4,503.2,335.3,503.2z"/>
	<path class="st15" d="M334.7,648.4c-3.3-0.1-6.5-0.4-9.8-0.3c-4.2,0.2-5.2-2.1-4.5-5.5c0.6-2.8,0.7-5.5,0.2-8.3
		c0.2-0.1,0.3-0.3,0.5-0.4c4.7-2.3,8.1,0.5,11,3.4c2.7,2.8,5.4,6.1,3,10.6C334.9,648.1,334.8,648.2,334.7,648.4z"/>
	<path class="st16" d="M501.1,325.8c-2.5,0.2-5.1,1.2-5.2-3.3c-0.1-4.4,2.1-4.4,5.2-4C501,320.9,501.1,323.3,501.1,325.8z"/>
	<path class="st6" d="M520,525c-0.9-0.9-2-1.2-3.1-1.4c-9.8-2.2-15.6-8.3-17.6-18.1c-0.2-0.8-0.4-1.6-1-2.3
		c-9.7-0.1-19.5-0.1-29.2-0.2c-4.4-0.2-5.9-2.6-5.6-6.8c0.2-3.6,0.3-7.3-0.1-10.9c-0.3-2.4-0.4-2.4-2.9-2.8
		c-1.8,4.5-0.8,9.2-0.9,13.9c-0.1,3.6-1.5,5.1-5.1,5.1c-22.8,0-45.7,0-68.5,0c-3.8,0-5.3-1.5-5.4-5.3c0-3.9,0.9-8-1.1-11.8
		c-2.4-1-2.3,1.1-2.6,2.2c-0.6,2.2-0.5,4.6-0.3,6.9c0.5,4.5-0.6,8-5.3,9.5c-9.8,0.1-19.7,0.2-29.5,0.2c-0.9,1.1-0.9,2.4-1.2,3.7
		c-1.2,6.2-4.6,10.9-10,14.1c-5.9,3.6-7.2,3.1-9.3-3.1c-0.4-0.3-0.9-0.3-1.3,0c-0.8,7.3,1.9,14.5,0.9,21.8
		c-1.2,8.4-0.4,16.9-0.3,25.2c0.2,10.9-0.9,21.8,0.4,32.7c0.3,3-1.2,5.8-0.6,8.9c1.1,5.2,0.8,10.5,0.1,15.9
		c-0.5,3.9-1.4,7.9,0.2,11.8c0.5-0.1,0.9-0.3,1.1-0.8c1.2-5.5,2-5.9,7.3-3.6c4.7,2,7.7,5.7,10,10.1c2.6,4.9,2,6.1-3.5,7.3
		c-0.4,0.2-0.7,0.6-0.8,1.1c4.6,2.3,9.1-0.4,13.6-0.4c27.8,0.2,55.6-0.2,83.4,0.2c22.9,0.3,45.9-1.3,68.8,0.9c1.5,0.1,3.4,0.8,4.6-1
		c-6.2-3-6.6-4.5-2.5-10.6c4.2-6.2,10.1-9.1,17.4-9.5c0-0.7,0-1.3,0-2c-0.8-1.2-0.5-2.6-0.5-3.9c0-30.7,0-61.5,0-92.2
		c0-1.3-0.3-2.7,0.5-3.9C520,525.7,520,525.3,520,525z M490.5,603.9c-6.4,8.5-18.1,10.7-27.3,5.2c-1.3-0.8-2.5-1.7-3.2-3
		c1-1.2,2.3-1.1,3.6-1c1.6,0.1,3.1,0,3.1-2.1c0.1-2-1.4-2.3-2.9-2.6c-2.7-0.5-5.5-0.8-8.2-1.6c-0.8-0.3-1.4-0.9-1.6-1.7c0-1,0-2,0-3
		c2-1.9,4.3-0.8,6.6-0.6c1.5,0.2,2.9,0.5,4.4,0.7c1.5,0.2,3.1,0.3,3.5-1.7c0.4-2.1-1.2-2.5-2.7-2.7c-2.6-0.5-5.2-0.8-7.8-1.3
		c-1.6-0.3-3.3-0.4-4-2.4c0.3-0.9,0.7-1.9,1-2.8c2.6-2.3,5.3-0.4,8-0.3c1.3,0,2.6,0.5,3.9,0.5c1.4,0,2.8-0.1,3.1-1.7
		c0.3-1.8-1.2-2-2.4-2.6c-2.3-1-5.5,0.2-6.8-2.9c8.7-7.2,19.4-6.9,27.4,0.8C495.4,583.7,496.4,596,490.5,603.9z"/>
	<path class="st2" d="M398.9,555.5c0.2,1.6-1.2,1.5-2.3,1.8c-12.3,3.3-24.7,6.5-37,9.9c-1.9,0.5-2.6,0.1-3.1-1.8
		c-1.7-6.9-3.6-13.8-5.5-20.6c-0.6-2.2,0.4-3,2.3-3.4c12.2-3.2,24.4-6.4,36.5-9.6c1.1-0.3,2.4-1.1,2.9,0.6
		C394.9,539.9,396.9,547.6,398.9,555.5z"/>
	<path class="st4" d="M454,597c3.8,1.3,7.7,1.7,11.7,2.1c3,0.3,3.2,1.7,2.7,4.3c-0.5,2.5-0.8,4.1-3.9,3c-1.3-0.5-2.9-0.3-4.4-0.4
		c-8-1.4-16-2.8-24-4.1c-2.7-0.4-4.6-0.8-4-4.5c0.7-3.8,2.5-3.3,5.2-2.8C442.8,595.6,448.4,596.2,454,597z"/>
	<path class="st4" d="M454,586c4.7,0.9,9.4,2,14.1,2.7c4,0.6,1.6,3.1,1.8,4.8c0.2,2.2-1.1,2.8-3.2,2.4c-4.2-0.7-8.5-1.3-12.7-1.9
		c-5.7-1-11.3-2.3-17-3c-3.5-0.4-3.2-2.2-3-4.7c0.2-2.7,1.4-3.1,3.9-2.6C443.2,584.7,448.6,585.2,454,586z"/>
	<path class="st4" d="M460.9,576.1c2.5,0.5,5.1,1.4,7.6,1.5c3.1,0.2,3.8,1.3,3.4,4.3c-0.4,3.4-2.2,3.4-4.8,2.9
		c-4-0.7-8.1-1.2-12.1-1.8c-5.7-1-11.3-2.2-17.1-3c-2.7-0.4-2.8-1.5-2.2-3.7c0.5-1.8-0.2-4.1,3.2-3.6
		C446.2,574.1,453.6,575.1,460.9,576.1z"/>
	<path class="st4" d="M335.1,647.9c-1-9-5.2-13.2-14-14c-0.4-2.3-1.4-5.3,0.3-6.6c2.1-1.7,5.1,0,7.4,1.1c5.4,2.4,9.3,6.3,11.7,11.7
		C343.8,647.4,343,648.5,335.1,647.9z"/>
	<path class="st17" d="M193.5,191.8c-9.3,0-18.7-0.2-28,0.1c-3.8,0.1-4.8-1.4-4.2-4.6c0.5-2.6-2-6.5,3.8-6.4c19.3,0.2,38.6,0.1,58,0
		c3.1,0,3.6,1.1,3.5,3.8c-0.5,8.4,1.2,7.1-7.1,7.2C210.8,191.8,202.2,191.8,193.5,191.8z"/>
	<path class="st8" d="M501.6,364.7c-0.1-13-0.3-26-0.5-38.9c-1.5-1.1-3.8-1.3-3.7-3.9c0.1-2.4,2.2-2.5,3.6-3.4
		c0.1-0.7,0.3-1.3,0.3-2c0.1-18,0.1-36,0.3-54c0.1-7.9-0.6-14.6-8.1-20.3c-10.3-7.8-20-16.5-28.9-26c-2.5-0.9-4-2.9-5.6-4.8
		c-11.5-10.1-23.1-20-34.3-30.3c-3.6-3.4-5.7-3.2-9.3,0c-11.3,10.3-22.9,20.3-34.4,30.4c8.7,9.7,19.2,16.9,31.6,21.1
		c8.2-4.4,11.5-3.9,15.7,2.6c1.1,0.6,2.1,0.9,2.4,2.6c0.9,5.9-3.6,3.8-6.2,4.5c-0.6,2.2,2.4,1,2.5,2.7c-6.7,6.2-13.6,3.9-16.3-5.4
		c-13.9-4.5-25.3-12.8-35.2-23.3c-1,1.1-2,2.3-3.1,3.2c-9.8,8.8-19.6,17.6-29.5,26.1c-3,2.6-4.3,5.3-4.3,9.3c0.2,19.5,0,39,0.2,58.4
		c0,4.2-2.1,8.4,0.1,12.5c0,0,0,0,0,0c-0.1,1.2-0.2,2.3-0.2,3.5c0,32,0.1,64-0.2,96c0,4.8,1.5,5.6,5.9,5.6
		c49.7-0.1,99.3-0.1,149-0.1c8.4,0,8.2,0,8.2-8.8C501.5,403,501.7,383.9,501.6,364.7z M339.6,325.4c0.8-1.3,0.2-3.5,2.1-4.4
		C343.5,323.9,341.1,324.4,339.6,325.4z M465.2,398c0,3.4-1.2,4.1-4.3,4.1c-13.8-0.1-27.6-0.1-41.4-0.1c0,0,0,0,0,0
		c-13.5,0-27-0.1-40.4,0.1c-3.2,0-4.3-0.8-4.2-4.1c0.2-14.1,0.2-28.3,0-42.4c0-3.6,1.1-4.4,4.5-4.4c27.1,0.1,54.2,0.1,81.4,0
		c2.8,0,4.6,0.1,4.5,3.9C465.1,369.4,465.1,383.7,465.2,398z"/>
	<path class="st18" d="M404,325.9c-3.2,0-6,0.9-5.9-3.8c0.1-4.8,3.3-3.6,5.8-3.7c2.7-0.1,5.5-0.8,5.5,3.9
		C409.2,327.3,406,325.6,404,325.9z"/>
	<path class="st19" d="M370.8,318.4c3.5-0.1,6.2-0.7,6.2,4c-0.1,5.5-3.8,3.2-6.3,3.6c-2.8,0.4-5,0.3-5-3.9
		C365.7,317.1,368.9,318.6,370.8,318.4z"/>
	<path class="st20" d="M436.3,325.9c-2.4-0.3-5.4,1.2-5.5-3.5c-0.1-4.8,2.9-3.8,5.5-3.8c2.6,0,5.7-1.2,5.7,3.7
		C442,327.4,438.6,325.5,436.3,325.9z"/>
	<path class="st21" d="M469,325.9c-3.1,0.1-5.8,0.7-5.8-3.6c0-5,3.4-3.4,5.9-3.5c2.6-0.2,5.2-0.7,5.2,3.7
		C474.4,327.4,470.9,325.5,469,325.9z"/>
	<path class="st22" d="M339,326c0-1.3-0.1-2.6,0-3.9c0.1-1.5-0.5-3.5,2.2-3.5c1.6,0,3.2,0.2,2.8,2.3c-0.3,1.8,1.6,4.6-2.1,4.9
		C340.9,326,339.9,326,339,326C339,326,339,326,339,326z"/>
	<path class="st23" d="M359.7,548.4c-0.4-1.3,1.1-1.6,2.3-2c7.7-2.1,15.4-4.1,23-6.2c1.6-0.4,2.3,0,2.9,1.6c3.4,8.7,3.1,9.4-6,11.8
		c-5.1,1.4-10.3,2.6-15.3,4.1c-3.1,0.9-4.9,0.6-5.4-3C361,552.9,360.3,551,359.7,548.4z"/>
	<path class="st24" d="M420.3,362.1c4,0,8,0.2,12-0.1c2.8-0.2,3.6,0.8,3.7,3.6c0.1,3.1-0.8,4-3.9,3.9c-8-0.2-16-0.2-23.9,0
		c-3,0.1-3.9-0.8-4-3.9c-0.1-3.5,1.5-3.7,4.2-3.6C412.4,362.3,416.3,362.1,420.3,362.1z"/>
	<path class="st5" d="M420.2,373.1c4.1,0,8.3,0.2,12.4-0.1c2.8-0.1,3.3,1,3.3,3.5c0,2.4-0.1,4-3.3,3.9c-8.4-0.2-16.9-0.2-25.3,0
		c-3,0.1-3-1.5-3-3.7c0-2.2,0.1-3.8,3.1-3.7C411.6,373.2,415.9,373.1,420.2,373.1C420.2,373.1,420.2,373.1,420.2,373.1z"/>
	<path class="st25" d="M420,384c4.3,0,8.6,0.2,12.9-0.1c3.1-0.2,3,1.5,3,3.7c0,2.2-0.1,3.7-3.1,3.6c-8.4-0.2-16.9-0.2-25.3,0
		c-3.3,0.1-3.2-1.6-3.3-4c-0.1-2.7,0.8-3.5,3.4-3.3C411.7,384.1,415.9,384,420,384z"/>
</g>
</svg>
