<?xml version="1.0" encoding="utf-8"?>
<!-- Generator: Adobe Illustrator 19.0.0, SVG Export Plug-In . SVG Version: 6.00 Build 0)  -->
<svg version="1.1" id="Calque_1" xmlns="http://www.w3.org/2000/svg" xmlns:xlink="http://www.w3.org/1999/xlink" x="0px" y="0px"
	 viewBox="0 0 612 792" style="enable-background:new 0 0 612 792;" xml:space="preserve">
<style type="text/css">
	.st0{fill:#D9EEF3;}
	.st1{fill:#D05153;}
	.st2{fill:#FDFDFD;}
	.st3{fill:#D5D5D5;}
	.st4{fill:#B3494B;}
	.st5{fill:#938269;}
	.st6{fill:#776850;}
	.st7{fill:#EAB675;}
	.st8{fill:#D06B63;}
	.st9{fill:#FAFCFD;}
	.st10{fill:#CE4041;}
	.st11{fill:#932F30;}
	.st12{fill:#AE3738;}
	.st13{fill:#964042;}
	.st14{fill:#912E2F;}
</style>
<g>
	<path class="st0" d="M64,394c-0.2-138.7,108.6-238.7,225.4-248c73.4-5.8,137.8,15.7,191.7,65.8c49.2,45.7,76.1,102.9,78.6,169.8
		c5.6,150.9-112.8,255-237.8,259.3C175.2,646,63.7,528,64,394z"/>
	<path class="st1" d="M212,242c6.2-3.2,10-8.8,14.6-13.8c8.2-9.1,18.6-14.4,30.7-16.3c4-0.6,7.6-1.8,11-4.1
		c8.1-5.4,17.1-7.2,26.7-5.3c2,0.4,3.4,0.1,5.1-1.1c10.9-7.5,18.7-7.5,29.9-0.1c1.6,1.1,3.1,1.5,5.1,1.1c8.9-1.8,17.4-0.4,24.9,4.6
		c4,2.7,8.2,3.9,12.8,4.7c14.9,2.5,26.5,10.3,35.1,22.6c1.4,2,3,3.3,5.1,4.5c15.7,9.3,23.2,24.1,26,41.2c4.6,27.9,0.1,55-10.8,80.6
		c-14.1,33.2-31.8,64.5-55.8,91.8c-7,8-14.6,15.6-24.2,20.6c-1.1,0.5-2,0.2-2.3-1.1c5.1-4.8,11.1-8.4,16.1-13.3
		c18.2-17.8,31.8-38.8,44.2-60.8c7.2-12.9,13.9-26.2,20-39.7c1.4-3.2,2.2-6.6,3.2-10c5.1-16.3,8.1-33,8-50
		c0-16.6-3.2-32.8-14.1-46.3c-2.4-3-5.1-5.5-8.4-7.8c5.4,12,7.3,24.5,7.7,37.4c0,5,0,9.9,0,14.9c-0.4,18.2-3.8,36-8.3,53.6
		c-2.2,3.6-1.8,8.6-5.8,11.2c-0.6,0.1-1.1-0.1-1.5-0.4c-1.4-4,1.9-7,2.3-10.5c5.6-19.1,8.8-38.7,9.2-58.5
		c0.4-19.4-1.6-38.7-13.4-55.4c-8-11.3-18.4-19.1-33.1-21.4c5.6,7.4,10.4,14.9,13.9,23.1c14.4,33.8,14.6,68.3,5.3,103.3
		c-1,3.8-1,8-4.2,11c-5.1,2-10.2,0.8-15.3,0c-8.9-1.4-17.7-2.9-25.8-7.1c-1.5-2.1-0.9-4.4-0.7-6.8c2.7-23,5.2-46,4.4-69.2
		c-0.5-14.8-2.1-29.5-7.2-43.7c-2.3-6.2-5.3-11.8-9.5-16.9c-9.5-11.6-23.4-12.3-33.9-1.6c-3.9,4-6.8,8.6-8.9,13.7
		c-5.6,13.2-8,27.2-8.4,41.4c-0.3,13.6-1,27.3,0.6,40.9c0.2,1.8,0.2,3.7-1.4,5.1c-5.3,1-10.2-1.1-15.3-1.8
		c-8.1-1.1-16.3-1.2-24.4-1.1c-2.5,0-5,0.3-7.4-0.7c-2.1-1.2-2-3.3-2.1-5.3c-0.9-22.6,4.1-43.9,13.3-64.4c3-6.7,6.7-13,11.6-18.4
		c-0.8-1.6-1.9-0.9-2.7-0.7c-16.4,4.2-27.8,14.5-34.9,29.6c-4.8,10.2-7,21.1-7.6,32.3c-0.1,2.2,0.9,5.4-3.2,5.3
		c-2.3-3.1-1.4-6.7-1-10c1-9.2,2.9-18.3,6.4-26.9c0.4-0.9,1.5-2-0.2-2.9C212.6,243.2,212.2,242.7,212,242z"/>
	<path class="st2" d="M346,472c0.7,0.4,1.3,0.8,2,1.2c4.7,3.4,5,5.3,2.6,10.8c-3,6.6-5.7,13.3-8.4,19.9c-0.5,1.3-0.8,2.5-2.2,3.1
		c-0.5,0.1-1,0.3-1.4,0.1c-15.4-7-30.7-6.4-46.1,0c-0.5,0.2-1,0-1.4-0.1c-3.3-7.3-6.3-14.8-10-21.9c-2.1-4.1-2-7.2,1.1-10.4
		c0.7-1.3,2-1.9,3.3-2.6c2.5-1.2,4.9-2.7,7.6-3.3c12.2-3.1,24.6-3.3,37.1-2c0.5,0,1.1,0.1,1.6,0.3c2.5,0.8,5.1,1.1,7.6,1.7
		C341.7,469.5,344.4,469.7,346,472z"/>
	<path class="st3" d="M291,507c9.5-8,39.9-8.6,49,0c1.5,1.9,0.5,3.7,0,5.6c-2.1,9.1-5.2,18-6,27.4c-2.2,0.1-2.3-1.6-2.6-3.1
		c0.8-5.4,2.5-10.6,3.7-15.9c0.7-3.1,0-4.4-3.5-3.4c-3,0.9-6,2-9.2,1.4c-2.4-0.7-2.8-3-3.9-4.8c-2.2-3.6-3-3.5-5.3,0.1
		c-0.9,1.3-0.7,3.7-3.2,3.7c-5.3-0.1-10.4-1.4-15.4-3.5c-0.6,1.9,1.1,3.6-0.5,6.2C293.1,515.7,290.8,511.7,291,507z"/>
	<path class="st4" d="M285.1,473.1c-1,0.5-2,1-3,1.5c-21.9-14.1-36.7-34.5-50.4-55.9c-11.9-18.7-23-37.9-30.9-58.6
		c-10.8-28.1-16.3-57.3-8.6-87.4c3.1-12.3,9.2-23.1,20-30.7c0.3,0.3,0.6,0.7,1,1c0.5,2.4-1.3,3.7-2.6,5
		c-12.7,12.3-17.1,27.9-17.9,44.9c-0.3,5.8-0.1,11.6,0,17.4c0.9,8.1,2.2,16.1,3.9,24.1c2.7,12.8,6.8,25,12.7,36.7
		c11.4,22.8,23.5,45.2,38.9,65.6c10.2,13.5,21.2,26.1,35.9,34.9C284.4,472,284.8,472.5,285.1,473.1z"/>
	<path class="st5" d="M331.8,537.2c0.7,0.9,1.5,1.9,2.2,2.8c1.1,4.2,2.6,8.4-0.9,12.2c-8.6-5.9-18-5.7-27.6-3.6
		c-1.9,0.4-3.7,1.9-5.6,0.4c-0.1-2,0.2-4.2-0.5-5.8c-2.3-5,0.8-6.4,4.5-7.7c3.3-1.1,6.6-1.7,10.1-1.6c1.1-1.2,2.5-1.2,4-1.3
		C322.9,533,328.2,532.6,331.8,537.2z"/>
	<path class="st6" d="M299.9,549c8.5-3.6,17.3-3.9,26.1-1.9c2.9,0.7,6.3,1.3,7.1,5.1c-0.4,1.8-1.8,2.8-3.4,3.4
		c-9.3,3.4-18.7,3.6-28.1-0.1C298.4,554.2,297.5,552,299.9,549z"/>
	<path class="st7" d="M310,518c1.4-2.4,2.7-4.9,4.1-7.3c1.2-2,2.6-2,3.7,0c1.4,2.4,2.7,4.9,4.1,7.3c3.2,5.5,2.8,9.3-1.1,13.2
		c-2.9-1-1.3-3.6-1.9-5.5c-0.6-2.2-0.4-5.6-2.8-5.8c-2.6-0.1-2.3,3.4-3.2,5.5c-0.8,1.8,0.5,4-1,5.7C307.8,527.3,309.2,522.6,310,518
		z"/>
	<path class="st8" d="M311.9,531.2c-1.2-4.2-0.1-8,1.9-11.7c1.5-2.7,2.6-3,4.4-0.1c2.2,3.7,2.3,7.7,2,11.8c0.2,1.5-0.9,2-1.9,2.7
		c-1.4,0-2.8,0.1-4.2,0.1C313.3,533,312.6,532.1,311.9,531.2z"/>
	<path class="st9" d="M280.8,308c-1-15.1-1.5-30.3-0.8-45.4c0.6-13.2,2.5-26.2,7.1-38.6c2-5.3,4.5-10.4,8.1-14.8
		c11.7-14.7,27.9-14.8,39.7-0.1c7.5,9.4,10.9,20.5,13.1,32c4.3,23,3.5,46.1,1.5,69.2c-1,11.6-2.2,23.2-3.4,34.8
		c1.4,2.2,0.5,4.6,0.2,6.8c-4.7,33.3-11.6,66.2-22.5,98.1c-1.1,3.3-2.4,6.6-3.7,9.8c-0.7,1.8-1.2,4.3-3.6,4.3
		c-2.3,0-2.9-2.5-3.7-4.3c-3.2-7-5.9-14.1-8.3-21.4c-10.8-32.8-17.8-66.5-21.9-100.8c-1-8.3-1.8-16.5-2.6-24.8
		C279.9,311.1,279.7,309.4,280.8,308z"/>
	<path class="st10" d="M280.8,308c3.1,33.7,7.7,67.1,16.2,99.8c4.7,18.2,10.1,36.1,17.8,53.3c0.4,0.9,0.9,1.8,1.6,3.3
		c4.4-9.6,7.4-19,10.3-28.4c8.5-28.4,14.5-57.3,18.3-86.7c0.2-1.5,0.6-2.9,0.9-4.4c7,1.3,13.6,4.1,20.7,5.2
		c6.7,1.1,13.4,2.1,20.2,1.8c0.1,0.2,0.2,0.5,0.3,0.7c0.2,2.2-0.5,4.3-1.2,6.3c-8.3,24.5-18.6,48.1-31,70.8
		c-5.7,10.5-11.9,20.8-18.3,30.9c-1.7,2.6-2.9,5.7-5.9,7.3c-13.1-0.9-26.1-0.8-38.9,2.1c-4.4-2-7.3-5.8-10.4-9.2
		c-26.4-29.1-47.4-61.6-62.2-98.1c-6.5-16.2-9.5-33.2-11.7-50.4c-0.2-1.5-0.2-3,0.2-4.5c0.2-0.5,0.5-0.9,0.9-1.3
		c0.8-0.4,1.5-0.3,2.2,0.1c2.2,7.2,2.5,14.7,3.7,22c3.7,23,13,44,23.9,64.3c11.3,21.2,25.3,40.7,41,58.9c4.5,5.2,9.3,10.3,15.1,14.2
		c-2.7-6.2-6.7-11.4-10.1-17.1c-18.9-32.1-34.9-65.5-45.1-101.4c-3.7-13.2-6.1-26.6-7.6-40.2c-0.1-1-0.1-2,0.4-2.9
		c0.2-0.2,0.4-0.4,0.5-0.5C249.1,303.7,265.1,303.8,280.8,308z"/>
	<path class="st4" d="M387,352c4.9-18.4,9.2-36.9,9-56.2c-0.3-30.3-7.8-58.2-27.3-82.5c15.5,1.4,27.4,8.9,36.5,21.1
		c9.4,12.7,12.7,27.3,14,42.9c2,24.5-2.3,48.1-8.1,71.6c-0.2,0.8-0.7,1.4-1,2.2c-0.7,0.7-1.3,1.7-2.3,1.8
		C400.8,353.6,393.8,354.9,387,352L387,352z"/>
	<path class="st4" d="M211,307c-0.7,0-1.4,0-2,0c-1,0.1-1.7-0.5-1.8-1.3c-0.5-7-2.5-14-0.3-21.1c0.2-0.6,0.6-1.2,1.1-1.6
		c2.5-0.4,1.9-2.3,2-3.9c0.6-16.8,4.6-32.5,15-46c8.6-11.1,20.1-17.4,35.1-19.5c-20.9,27.3-28.1,57.6-27,90.4c0,0,0,0,0,0
		c-1,1.2-2.2,2.1-3.8,2.2c-5.2,0.2-10.2,1.2-15.4,1.7C212.8,308,211.8,307.7,211,307z"/>
	<path class="st11" d="M346,472c-2.4-0.8-4.7-1.5-7.1-2.3c-2.8-2.1-0.3-3.6,0.8-4.7c8.8-9.1,17-18.7,24.7-28.7
		c16.4-21.3,30.1-44.2,40.3-69.2c0.9-2.1,1.5-4.4,3.2-6.2c2.9-2.7,2.1-7.3,4.9-10.1c4.7-3.2,10.1-3.1,15.4-3.7
		c0.9-0.1,1.9,0.4,1.8,1.8c-0.5,5.8-3.2,10.8-5.6,15.8c-12.1,25.3-25.3,50-42.2,72.6c-9.3,12.4-19.6,23.7-32.3,32.8
		C348.9,471.1,347.4,471.5,346,472z"/>
	<path class="st12" d="M387,352c7.7-0.5,15.4,1,23-1c0,3.6-2.7,6.5-3,10c-0.8,5-3,9.4-5.1,13.9c-12.7,27.6-28.9,53-48.8,76
		c-4.4,5.2-9.3,9.9-13.8,15.1c-2.1,2.4-4.7,3-7.7,2.1l-0.4,0.1c0,0-0.4-0.2-0.4-0.2c9.3-15.1,18.8-30,26.9-45.9
		C369.5,399.5,379.6,376.3,387,352z"/>
	<path class="st13" d="M430.1,349c-5-1.4-9.5,1.4-14.2,1.6c-1,0-2,0.2-2.9,0.4c1.8-9,3.7-18,5.2-27c1.5-8.9,3-17.8,2.9-26.9
		c0.8-5.3,0.8-10.7,0-16c-0.5-13.5-2.6-26.7-9.4-39.9c5.4,2.5,9.1,5.6,12.1,9.4c9.5,12,13.6,25.9,14.4,41.1
		C439.2,311.3,436.2,330.4,430.1,349z"/>
	<path class="st13" d="M208,283c-1.5,6.6,0.3,13.3,0,19.9c-0.1,1.4-0.4,3,0.9,4.1c0,0.3,0,0.7,0,1c-5.8,1.9-11.6,3.9-17.8,3
		c0-13.3-1-26.5,3.5-39.5c3.3-9.6,7.6-18.4,15.5-25.2c1.1-1,2-2.2,2.9-3.4c1.2-0.4,2.1-1.6,3.8-1.2C210.9,255,207.7,268.6,208,283z"
		/>
	<path class="st4" d="M331.8,468.1c4.6,0.3,6.8-2.9,9.7-5.8c8.8-8.9,16.7-18.5,24.2-28.4c16.4-21.5,29.7-44.8,39.8-69.8
		c0.4-1.1,1-2.1,1.6-3.1c0.3,0,0.6,0,0.9,0c-0.7,5.2-3.1,9.7-5.2,14.4c-9.5,21-21.4,40.8-35.2,59.2c-8.1,10.8-16.8,21.2-26.4,30.9
		c-1.1,1.1-3.5,1.9-2.1,4.3C336.6,469.2,334.2,468.7,331.8,468.1z"/>
	<path class="st4" d="M421,281c1.6,5.3,1.6,10.7,0,16C421,291.7,421,286.3,421,281z"/>
	<path class="st14" d="M191.1,311c5.9-1.4,11.7-3.4,17.8-3c1.8,21.6,6.3,42.4,15.2,62.4c9.9,22.4,22.1,43.5,36.7,63.1
		c7.4,10,15.4,19.5,23.8,28.6c2.5,2.7,5,5.3,7.5,8c-2.3,1-4.7,2-7,3c-6.8-2.2-12-7-17.1-11.7c-17.8-16.7-31.3-36.8-43.3-57.9
		c-7.4-13-14.3-26.2-20.6-39.8c-5.8-12.5-8.5-25.7-11.2-39C192.1,320.2,191.7,315.6,191.1,311z"/>
	<path class="st0" d="M318.2,533.8c0.6-0.9,1.3-1.8,1.9-2.7c3.9-3.9,2.2-8.6,1.8-13.2c4.1,0.2,7.8-1,11.5-2.4c2.9-1,3.9,0.2,3.4,2.7
		c-1.3,6.4-2.3,12.9-5.1,18.9C327.5,535.1,323,533.8,318.2,533.8z"/>
	<path class="st12" d="M211,307c7.3-1,14.7-2,22-3c2.6,28.1,10.3,54.9,21,80.9c11.5,27.9,25.7,54.2,42,79.5c0.6,1,1.4,1.8,1.2,3.2
		c-2.6,1.1-4.3-0.3-6.1-2c-12.5-11.8-23.1-25.2-33-39.1c-16.9-23.8-30.9-49.2-39.7-77.1C214,335.7,211.4,321.5,211,307z"/>
</g>
</svg>
