<?xml version="1.0" encoding="utf-8"?>
<!-- Generator: Adobe Illustrator 19.0.0, SVG Export Plug-In . SVG Version: 6.00 Build 0)  -->
<svg version="1.1" id="Calque_1" xmlns="http://www.w3.org/2000/svg" xmlns:xlink="http://www.w3.org/1999/xlink" x="0px" y="0px"
	 viewBox="0 0 612 792" style="enable-background:new 0 0 612 792;" xml:space="preserve">
<style type="text/css">
	.st0{fill:#6DC966;}
	.st1{fill:#FD4F59;}
	.st2{fill:#5C6FFD;}
</style>
<g>
	<path class="st0" d="M214.8,382.8c-11.4,0-22.8,0-34.2,0c-0.1-18.1-0.2-36.2-0.2-54.3c0-4.8,0-9.7,0.4-14.5
		c0.3-3.6-1.1-5.3-4.4-6.6c-22.1-8.7-44.1-17.7-66.2-26.3c-3.5-1.4-4.1-2.6-2.6-6c3.4-7.9,6.5-16,9.6-24.1c1.1-2.9,2.3-3.2,5.1-2.1
		c29.3,11.8,58.6,23.6,87.9,35.2c3.8,1.5,4.8,3.5,4.8,7.3C214.7,321.9,214.8,352.4,214.8,382.8z"/>
	<path class="st1" d="M478.2,386.1c-0.8-2.8-2.2-3.2-4.6-3.2c-16.7,0-33.3,0.1-50-0.1c-3.1,0-4.8,1.1-6.3,3.6
		c-4.6,7.7-9.5,15.2-14.1,23c-1.8,3-2.7,3.8-5.3,0.6c-6.6-8.1-13.7-15.8-20.5-23.9c-2-2.4-4.1-3.3-7.2-3.2c-11.3,0.1-22.6,0-34-0.1
		c-0.5-0.5-1-0.9-1.7-1c-12.1-0.7-24.1-0.8-36.2,0c-0.8,0.1-1.5,0.6-2.3,0.9c-27.1,0-54.2,0-81.3,0c-1.2-1.1-2.7-1.3-4.2-1.3
		c-8.4-0.2-16.9-0.1-25.3,0c-1.7,0-3.3,0.5-4.7,1.4c-18,0-36,0.1-54,0.1c-2.6,0-4.1,0.2-4.9,3.3c-7.2,25.9-10.7,52-8.9,79
		c2.6,39.1,14.2,75.1,36.3,107.4c27.3,40,64,67.1,111.5,78.8c9,2.2,18.3,2.8,27.4,4.6c8.7,0,17.3,0,26,0c4.5-1.7,9.4-1.4,14-2.2
		c42.2-7.5,78-27.1,105.8-59.4C486.3,533.3,499.2,463.2,478.2,386.1z M373.9,600.7c-57.2,35.6-131.8,25.1-178.8-25.1
		c-30.1-32.2-45.7-70.5-48.3-114.3c-0.8-13.2,0.1-26.3,1.8-39.3c0.5-4,2-5.1,5.9-5c33.5,0.2,67,0.1,100.5,0.1
		c33.3,0,66.7,0.1,100-0.1c3.3,0,5.1,1.5,7,3.7c13.4,15.5,26.9,30.9,40.1,46.6c2.8,3.3,3.8,2.7,5.8-0.6
		c9.5-15.5,19.1-30.9,28.7-46.3c1.8-2.8,10.7-4.9,13.3-3c0.9,0.6,0.9,1.7,1.1,2.7C462.3,486.7,436.6,561.7,373.9,600.7z"/>
	<path class="st2" d="M503.8,324.2c-7.2-32.9-14.4-65.9-21.5-98.8c-5.8-27.1-11.6-54.2-17.3-81.3c-0.7,0-1.3,0-2,0
		c-0.8,1.3-2.3,1.3-3.5,1.6c-23.2,7.2-46.4,14.3-69.5,21.4c-34.3,10.6-68.6,21.1-102.8,31.7c-2.1,0.6-4.6,0.5-3,4.3
		c14.1,34.2,35.3,62.8,65.2,84.8c3.1,2.3,3.8,3.7,1.5,7.4c-18.4,29.1-36.5,58.4-54.7,87.6c13.4,0,26.8,0,40.2,0
		c14.4-23,28.9-45.9,42.9-69.1c2.7-4.4,4.6-4.3,8.8-2.3c23.7,11.4,48.7,18.4,75.1,20c12.2,0.7,24.2-1,36.4-1.2
		C504.3,330,504.7,328.3,503.8,324.2z M459.6,296.9c-22.9-2.4-44.1-9.3-64.1-20c-24.1-12.9-44.8-29.9-61-52.1
		c-2.5-3.4-2.1-4.5,2-5.7c32.6-9.9,65.2-19.9,97.7-30.1c3.8-1.2,5.4-1.1,6.3,3.5c7,33.5,14.3,66.9,21.6,100.4
		C462.5,295.2,463.6,297.9,459.6,296.9z"/>
</g>
</svg>
