<?xml version="1.0" encoding="utf-8"?>
<!-- Generator: Adobe Illustrator 19.0.0, SVG Export Plug-In . SVG Version: 6.00 Build 0)  -->
<svg version="1.1" id="Calque_1" xmlns="http://www.w3.org/2000/svg" xmlns:xlink="http://www.w3.org/1999/xlink" x="0px" y="0px"
	 viewBox="0 0 612 792" style="enable-background:new 0 0 612 792;" xml:space="preserve">
<style type="text/css">
	.st0{fill:#6DCA66;}
	.st1{fill:#5C6FFD;}
	.st2{fill:#FD4F59;}
</style>
<g>
	<path class="st0" d="M229,334.4c11.2,2.4,22.4,4.7,33.6,7.1c-10.9,42.8-21.7,85.6-32.6,128.5c-3.8,15-7.5,30-11.2,45
		c-12.5,2.6-25,5.3-37.4,7.9c9-35.6,18-71.2,27-106.8C215.3,388.8,222.1,361.6,229,334.4z"/>
	<g>
		<path class="st1" d="M181.6,522.6C181.6,522.6,181.6,522.6,181.6,522.6L181.6,522.6z"/>
		<path class="st1" d="M545.4,576.9c-7.6-4.5-14.9-9.4-22.6-13.8c-40.8-23.1-84.7-37.6-130.5-46.4c-1.1-1.5-2.6-1.9-4.3-2.2
			c-20.6-3.7-41.4-5.8-62.3-6.9c-2.3-0.1-4.7-0.4-6.7,1.2c-1.2,0-2.3,0.1-3.5,0.1c-20.7-0.3-41.5-0.4-62.1,2
			c-11.5,1.3-23,2.7-34.5,4.1c-12.8,0.2-25.1,2.9-37,7.6c-0.1,0.1-0.2,0.1-0.2,0.1c0,0,0.1,0-0.2,0.2c-1.4,0.4-2.9,0.8-4.3,1.2
			c-42.9,11.4-83.4,28.3-120.5,52.9c-5.2,3.4-9.4,7.2-11.6,13.1c0,2.7,0,5.3,0,8c2.5,9.8,8.1,14.3,18.5,14.6c1.3,0,2.7,0,4,0
			c155.6,0,311.3,0,466.9,0c1.3,0,2.7,0,4,0c10.4-0.3,16.1-4.7,18.5-14.6c0-2.7,0-5.3,0-8C554.9,584.1,550.7,580,545.4,576.9z
			 M130.3,576.7c54.4-23.7,111.5-33.9,170.7-33.9c59.2,0,116.3,10.2,170.8,33.9C357.9,576.7,244.1,576.7,130.3,576.7z"/>
	</g>
	<path class="st2" d="M436.2,299.2c-4.3-35.6-17.2-67.8-40-95.4c-42-50.8-96.3-74.6-162.3-69.9c-42.3,3-79.1,19.8-110.5,48.1
		c-34,30.6-53.2,69.3-60.8,114.1c-0.6,3.7,1.5,3.4,3.5,3.8c54.3,11.5,108.6,23,162.9,34.4c1.2,1.6,3,1.9,4.8,2.3
		c7.5,1.5,14.9,3.4,22.4,4.7c2.1,0.4,4.2,1,6.4,0.1c19.5,4.1,39,8.2,58.6,12.3c34.8,7.3,69.6,14.7,104.4,22.1
		c2.6,0.6,4.5,0.8,5.3-2.8C436.3,348.6,439.2,324.2,436.2,299.2z M164.6,285.9c-18.8-4.2-37.7-8.2-56.6-12c-3.8-0.8-4.4-2-3-5.6
		c21.3-53.2,59.8-86.1,115.8-98.3c6.1-1.3,12.3-2.3,19.9-2c-14.1,11.8-25.7,24.1-35.8,38c-16.6,22.9-28.2,48.1-34.3,75.8
		C169.8,285.6,168.6,286.8,164.6,285.9z M304.1,311.2c-0.6,3-1.3,3.7-4.5,3.1c-31-6.7-62.1-13.2-93.2-19.6c-3-0.6-3.5-1.6-2.8-4.7
		c9.5-41.4,31.5-74.7,65-100.7c3.5-2.7,6.9-8.1,10.5-7.2c2.8,0.7,4.1,7,6.2,10.8c11.4,21,18.8,43.3,21.1,67.1
		c0.6,5.8,0.7,11.6,1,17.4C307.4,288.8,306.2,300,304.1,311.2z M403,333c-0.1,2.1-0.5,2.9-3,2.4c-20-4.3-40-8.5-60-12.6
		c-2.9-0.6-3.2-2-2.6-4.6c3.5-16.4,4.6-32.9,3.9-49.6c-1.1-26.9-7.4-52.6-18.5-77.1c-0.9-2-1.8-3.9-2.7-5.8
		c11.6,4.6,21.5,11.5,30.6,19.5c30.6,27.2,47.9,61.3,52.2,101.9C403.7,315.7,403.3,324.4,403,333z"/>
	<path class="st2" d="M418.9,452.2c-5.7-24.6-25.3-41.8-52-45.8c-32.4-4.8-65.2,23.5-65.9,56.7c-0.4,17.8,5.7,32.9,18,45.6
		c24.6,1.1,49.1,3.7,73.3,8C414.9,500.7,424.7,477.2,418.9,452.2z M360.7,491.3c-14.4,0-25.7-11.4-25.6-25.7
		c0.1-13.9,11.6-25.4,25.6-25.4c14.2,0,25.6,11.5,25.5,25.8C386.1,480.1,374.9,491.3,360.7,491.3z"/>
</g>
</svg>
