<?xml version="1.0" encoding="utf-8"?>
<!-- Generator: Adobe Illustrator 19.0.0, SVG Export Plug-In . SVG Version: 6.00 Build 0)  -->
<svg version="1.1" id="Calque_1" xmlns="http://www.w3.org/2000/svg" xmlns:xlink="http://www.w3.org/1999/xlink" x="0px" y="0px"
	 viewBox="0 0 612 792" style="enable-background:new 0 0 612 792;" xml:space="preserve">
<style type="text/css">
	.st0{fill:#1B8D98;}
	.st1{fill:#37484A;}
</style>
<g>
	<path class="st0" d="M564,312.9c0-3.3-0.3-6.7-1-9.9c-4.8-22.1-15.8-39.2-39-45.4c-9.8-2.6-20-3.6-30.2-3.6c-64,0-128,0-192,0
		c-21.2,0-42.3,0-63.5,0c-44.8,0-89.7,0-134.5,0c-11.7,0-19.8,7.4-19.8,18.5c-0.1,46-0.1,92,0,138c0,6.2,2.7,8.8,8.8,8.8
		c8.3,0.1,16.7-0.2,25,0.1c4.1,0.2,5.9-1.1,7.3-5.2c6.6-20.1,23.8-31.9,44.8-31.3c18.6,0.5,36,14.4,41.1,33c0.7,2.6,1.8,3.5,4.4,3.4
		c5.7-0.1,11.3,0,17,0c24.7,0,49.3,0,74,0c22,0,44,0,66,0c24.7,0,49.3-0.2,74,0.1c5.3,0.1,8-0.8,10-6.5
		c6.5-18.7,22.9-30.2,41.6-30.2c18.8,0,36.2,11.6,42.5,28.5c3.1,8.3,3.1,8.3,12.4,7.9c0.7,0,1.3,0,2-0.1c6.9-0.2,9.2-2.6,9.2-9.5
		C564,377.6,564,345.3,564,312.9z M123.6,328.4c0,3.2-1.6,4.9-5,4.8c-5-0.1-10-0.1-15,0c-3.7,0.1-5.1-1.7-5.1-5.1
		c0-9.8,0-19.6,0-29.4c0,0,0,0,0,0c0-9.3,0.1-18.6,0-27.9c-0.1-4.3,1.5-6.1,5.9-5.8c4.6,0.2,9.3,0.1,14,0c3.6-0.1,5.2,1.8,5.2,5.1
		C123.7,289.5,123.7,308.9,123.6,328.4z M172.7,333.2c-10-0.2-20-0.1-30,0c-4,0.1-5.7-1.7-5.7-5.7c0.1-19.2,0.1-38.3,0-57.5
		c0-3.5,1.5-5.2,5.1-5.2c10.3,0.1,20.7,0.1,31-0.1c4-0.1,5.8,1.6,5.7,5.6c-0.1,9.5,0,19,0,28.5c0,0,0,0,0,0c0,9.3-0.1,18.7,0,28
		C179,331.4,177.3,333.3,172.7,333.2z M234,299c0,9.5-0.1,19,0,28.5c0.1,4-1.5,5.8-5.6,5.7c-10.2-0.1-20.3-0.2-30.5,0
		c-4.4,0.1-5.8-2-5.8-6.1c0.1-18.7,0.1-37.3,0-56c0-4.4,1.5-6.4,6.2-6.3c9.8,0.2,19.7,0.2,29.5,0c4.5-0.1,6.3,1.6,6.2,6.1
		C233.9,280.3,234,289.7,234,299z M283.6,333.2c-10.2-0.1-20.3-0.2-30.5,0c-4.2,0.1-5.5-1.9-5.5-5.8c0.1-19,0.1-38,0-56.9
		c0-4,1.5-5.7,5.6-5.6c10.2,0.2,20.3,0.2,30.5,0c4.2-0.1,5.6,1.8,5.5,5.7c-0.1,9.5,0,19,0,28.5c0,9.5-0.1,19,0,28.5
		C289.2,331.7,287.6,333.3,283.6,333.2z M344.4,299.5C344.3,299.5,344.3,299.5,344.4,299.5c0,9.2-0.2,18.3,0,27.5
		c0.1,4.4-1.3,6.4-6,6.3c-10-0.2-20-0.1-30,0c-4.1,0.1-5.6-1.5-5.6-5.6c0.1-19,0.1-37.9,0-56.9c0-3.9,1.3-5.9,5.5-5.8
		c10.2,0.1,20.3,0.1,30.5,0c4.1-0.1,5.7,1.7,5.7,5.7C344.3,280.2,344.4,289.9,344.4,299.5z M393.7,333.2c-10-0.2-20-0.1-30,0
		c-4.4,0.1-5.9-1.8-5.8-6c0.2-9.5,0-19,0-28.5c0,0,0,0,0,0c0-9.3,0.1-18.7-0.1-28c-0.1-4.3,1.6-5.9,5.9-5.9c10,0.2,20,0.2,30,0
		c4.4-0.1,5.9,1.9,5.9,6c-0.1,18.8-0.1,37.6,0,56.5C399.8,331.5,398,333.3,393.7,333.2z M448.6,333.3c-9.8-0.2-19.6-0.2-29.4,0
		c-4.6,0.1-6.2-1.9-6.1-6.3c0.2-9.3,0.1-18.6,0.1-27.9c0-9.3,0.1-18.6-0.1-27.9c-0.1-4.5,1.7-6.3,6.2-6.2c9.8,0.2,19.6,0.2,29.4,0
		c4.4-0.1,6.3,1.4,6.3,6.1c-0.1,18.6-0.1,37.3,0,55.9C455,331.5,453.4,333.4,448.6,333.3z M554.5,327.5c-0.1,3.4-1.6,5.3-5.1,5.3
		c-11.7,0.1-23.3,0.1-35,0.2c-3.2,0-4.5-1.6-4.5-4.6c0-3.7,0-7.3,0-11c0.1-3-0.9-4.6-4.3-4.6c-14.2,0.1-11.4-1.4-11.6,11
		c0,1.5,0,3,0,4.5c-0.1,3-1.5,4.7-4.6,4.7c-5.5,0-11,0-16.5,0c-3.9,0-4.5-2.7-4.5-5.8c0-9.5,0-19,0-28.5c0-9,0-18,0-27
		c0-5.9,0.9-6.9,6.5-6.8c12.2,0.2,24.3-0.5,36.5,0.7c20.9,2.1,33.4,13.8,39.9,33.3C554.3,308.3,554.8,317.8,554.5,327.5z"/>
	<path class="st1" d="M168,396.1c-17.9-0.1-32.1,14-32.1,31.8c0,17.8,14.2,32.1,31.9,32.1c17.3,0,31.9-14.7,31.8-31.8
		C199.4,410.5,185.3,396.2,168,396.1z M167.6,449.1c-11.8,0-21.3-9.5-21.2-21.2c0.1-11.7,9.6-21.1,21.4-21.1
		c11.8,0,21.2,9.5,21.2,21.3C188.9,439.8,179.4,449.2,167.6,449.1z"/>
	<g>
		<path class="st1" d="M498.7,412c-9.3-0.2-16.7,7-16.7,16c0,8.9,7.2,15.9,16.2,16c9.1,0.1,16.4-6.9,16.5-15.8
			C514.9,419.5,507.6,412.1,498.7,412z"/>
		<path class="st1" d="M498.3,396.1c-17.3-0.1-31.8,14.3-32,31.6c-0.1,17.6,14.3,32.2,31.9,32.2c17.5,0,31.8-14.1,31.8-31.6
			C530.1,410.4,516,396.2,498.3,396.1z M498,449.1c-11.7,0-21-9.5-21-21.4c0-11.4,9.5-20.8,21-20.9c12-0.1,21.3,9.1,21.4,20.9
			C519.4,440,510.3,449.1,498,449.1z"/>
	</g>
	<path class="st1" d="M167.8,412c9.1,0,16.3,7.1,16.2,16c0,9.1-7.3,16.1-16.7,16c-8.9-0.1-16.3-7.5-16.1-16.3
		C151.4,418.9,158.7,411.9,167.8,412z"/>
</g>
</svg>
