<?xml version="1.0" encoding="utf-8"?>
<!-- Generator: Adobe Illustrator 19.0.0, SVG Export Plug-In . SVG Version: 6.00 Build 0)  -->
<svg version="1.1" id="Calque_1" xmlns="http://www.w3.org/2000/svg" xmlns:xlink="http://www.w3.org/1999/xlink" x="0px" y="0px"
	 viewBox="0 0 612 792" style="enable-background:new 0 0 612 792;" xml:space="preserve">
<style type="text/css">
	.st0{fill:#34495D;}
	.st1{fill:#34495E;}
	.st2{fill:#FDC450;}
	.st3{fill:#2C3E52;}
	.st4{fill:#2D4053;}
	.st5{fill:#596977;}
	.st6{fill:#2A3C4E;}
	.st7{fill:#FDCF5F;}
	.st8{fill:#405466;}
	.st9{fill:#F4F6F9;}
	.st10{fill:#F5B54D;}
	.st11{fill:#374B5D;}
	.st12{fill:#384B5D;}
</style>
<g>
	<path class="st0" d="M534.1,229c4.7,0,9.3,0,14,0c10.2,0.1,17.6,6.4,19.3,17.1c0.5,3.2,1.5,4.1,4.6,3.9c3-0.2,6-0.1,9-0.1
		c0,31.7,0,63.3,0,95c-10.5-0.1-20.9-0.4-31.4-0.3c-3.4,0-4.6-0.8-4.6-4.4c0.1-28.6,0.1-57.2,0-85.8c0-3.4,0.9-5,4.4-4.5
		c1.5,0.2,3,0,4.5,0c5.5,0,6.4-1.3,3.8-6.3c-1.9-3.6-4.8-5.8-9.1-5.8c-4.8,0-9.6,0-14.5,0C531.8,235,531.9,232,534.1,229z"/>
	<path class="st1" d="M69,250c4.6,0,9.2,0,13.8-0.1c2.7-1.7,5.5-2,8.2,0.1c0.8,0.1,1.7,0.1,2.5,0.2c11.2,0.2,11.1,0.2,11.1,11.6
		c0,25.8-0.1,51.5,0.1,77.3c0,4.2-1.2,5.3-5.3,5.2C89.3,344,79.1,344.1,69,344C69,312.7,69,281.3,69,250z"/>
	<path class="st2" d="M534.1,229c0,3,0,6,0,9c0,41.6-0.1,83.2-0.1,124.7c0,33.8-0.1,67.5-0.2,101.3c-4.1,3.1-10.7,3.4-14.2,0.2
		c-1.7-1.5-2.6-1.2-4.2-0.3c-5.6,2.9-11.2,4.4-16.5-0.4c-1.2-1.1-2.1-0.3-3.1,0.3c-5.7,3-11.4,4.4-17.1-0.2c-1.6-1.3-2.7,0.3-4,0.9
		c-5.4,2.3-10.7,3.7-15.7-0.9c-1.5-1.4-2.4-0.1-3.5,0.3c-4.4,1.7-6.2,0.6-6.7-4c0-0.3,0-0.7-0.1-1c-0.8-4.4,1.3-8,3.4-11.6
		c-4.4-2.5-3.3-6.7-3.5-10.6c-0.2-3.4,2.4-5.9,3-8.7c0.4-2.2-3.3-4.1-3.1-7.5c0.3-4.1-0.2-8.3,2.9-11.8c0.5-0.5,1.1-1.2,0.1-2.1
		c-5.3-4.4-3.5-10.2-1.7-15c1.4-3.7,0.2-3.8-2.5-3.9c-78.3,0-156.6,0-234.9,0c-3.2,0-6.3-0.1-9.4,0.4c-1.9,1.2-1.8,3.1-1.8,4.9
		c0.1,3.4-1.7,5.9-2.9,8.8c-1.1,2.5,3.5,3.7,3,7.2c-0.6,4,0.5,8.3-2.5,11.9c-0.6,0.7-1.3,1.5-0.3,2.6c4.8,5.5,3.4,11.2,0.6,16.9
		c-0.5,1.1-1.4,1.7-0.3,3.4c6.1,9.5,1.2,19.5-6.8,21.8c-4.3,1.2-9.2,2.3-13-1.9c-1.6-1.7-2.7-0.1-3.9,0.5c-5.5,2.5-11,4-16.2-0.6
		c-1.4-1.3-2.4-0.2-3.6,0.4c-5.6,2.7-11.2,4.4-16.5-0.5c-1-0.9-1.8-0.4-2.7,0.1c-7.3,4.2-14.1,4.4-19.9-2.6
		c-0.1-33.1-0.1-66.2-0.2-99.4c-0.1-41.3-0.1-82.6-0.1-123.8c-1.8-2.8-1.8-5.7,0-8.5c1.6-32.8,21.3-55.7,53.3-61.9
		c7.7-1.5,15.6-0.6,23.4-0.6c93-0.1,186,0,279,0C506,166.8,532.4,193.2,534.1,229z"/>
	<path class="st0" d="M95.1,565c0-6.2,0.1-12.3-0.2-18.4c-0.2-3.3,1.2-3.8,4.1-3.7c5.6,0.1,11.3,0,16.9-0.1c1.6-1.2,3.4-1.4,5.2-1.4
		c36.6,0,73.2-0.2,109.8,0.1c7.3-0.3,14.7-0.1,22-0.1c53.3,0,106.7,0,160,0c2,0,4,0,6,0.2c36.6-0.3,73.3-0.1,109.9-0.1
		c1.8,0,3.7,0.2,5.2,1.4c6.6,0.1,13.3,0.2,19.9,0.3c1.1,6.1,0.3,12.2,0.5,18.4c0.1,6.3-0.2,12.7,0.1,19c0.1,3.4-1.1,4.1-4.3,4.1
		c-30.8,0.8-61.5,1-92.3,0.9c-83.7-2.2-167.4-0.8-251.1-0.7c-24.1,0-48.2,0.8-72.3,0.5c-11.9-0.1-23.9-0.8-35.9-0.7
		c-2.8,0-3.2-1.2-3.3-3.6C95.4,575.6,95.9,570.3,95.1,565z"/>
	<path class="st3" d="M199,646.9c-9.9,1.2-19.8,0.3-29.8,0.5c-13.4,0.3-26.8-0.1-40.2-0.2c-0.6,0-1.3-0.2-1.9-0.4
		c-0.9-1.4-0.5-2.9-0.5-4.4c0-17.7,0.1-35.3-0.1-53c0-3.7,0.7-5.2,4.8-5.1c21.2,0.2,42.3,0.2,63.5,0c3.6,0,4.9,0.7,4.8,4.6
		c-0.2,18-0.1,36-0.1,54C199.5,644.3,199.8,645.7,199,646.9z"/>
	<path class="st4" d="M523,646.9c-10.2,1.3-20.5,0.3-30.8,0.6c-12.7,0.4-25.5-0.1-38.2-0.2c-1,0-2-0.2-2.9-0.3
		c-0.9-1.5-0.5-3.2-0.5-4.9c0-16.8,0-33.5,0-50.3c0-7.3,0-7.3,7.5-7.3c20.3,0,40.6,0.1,60.9-0.1c3.7,0,4.8,1,4.7,4.7
		c-0.2,18-0.1,35.9-0.1,53.9C523.5,644.3,523.8,645.7,523,646.9z"/>
	<path class="st5" d="M458,584.9c-7,0.2-6.9,0.2-6.9,7.4c0,18.2,0,36.4,0,54.6c-1.8-1.4-0.8-3.4-0.8-5.1c-0.1-17.5-0.2-35,0-52.5
		c0-3.9-1.1-4.6-4.7-4.6c-80.3,0.1-160.6,0.1-240.9,0c-4.2,0-4.8,1.5-4.8,5.1c0.2,17.3,0.1,34.6,0,52c0,1.7,0.9,3.7-0.9,5.1
		c0-19-0.1-38,0-57c0-3.9-1-5.1-5-5.1c-20.7,0.2-41.3,0.2-62,0c-3.9,0-5.1,1-5,5c0.2,19,0.1,38,0,57c-1.6-1.3-0.8-3.1-0.8-4.6
		c-0.1-17.6-0.2-35.2,0-52.8c0-3.7-0.8-4.9-4.7-4.7c-7.5,0.3-14.9-0.1-22.4,0.2c-3.6,0.1-4.5-1.1-4.3-4.5c0.3-5.1,0.2-10.3,0.3-15.4
		c1.8,4.3,0.9,8.9,0.7,13.3c-0.2,4.7,1.4,5.8,5.9,5.7c72.3-0.1,144.6-0.1,216.9-0.1c46.5,0,92.9,0.1,139.4,0.1
		c0.3,0.2,0.4,0.4,0.3,0.6C458.2,584.8,458.1,584.9,458,584.9z"/>
	<path class="st6" d="M115.8,229.3c0,2.8,0,5.7,0,8.5c-4.1,0-8.3,0-12.4,0c-8.9,0.1-12.2,3.3-12.5,12.2c-2.7,0-5.5-0.1-8.2-0.1
		c-0.3-12.4,7.3-20.4,19.6-20.6C106.9,229.2,111.4,229.3,115.8,229.3z"/>
	<path class="st5" d="M458,584.9c0-0.3,0-0.6,0-0.8c30.2-0.1,60.3-0.2,90.5-0.1c4.2,0,5.8-0.9,5.7-5.5c-0.4-11.8-0.1-23.7-0.2-35.5
		c2,0.8,1,2.6,1,3.9c0.1,11.1-0.1,22.3,0.1,33.4c0.1,3.9-1.2,4.7-4.8,4.6c-7.3-0.3-14.6,0.1-21.9-0.2c-3.7-0.1-4.8,0.9-4.7,4.7
		c0.2,17.6,0.1,35.2,0,52.8c0,1.5,0.8,3.3-0.8,4.7c0-19-0.2-38,0-57c0-4-1.1-5.1-5-5C498,585.1,478,584.9,458,584.9z"/>
	<path class="st7" d="M449,387c-8.9,9-17.7,18.1-26.7,27c-2.4,2.4-3.5,4.9-3.4,8.3c0.1,40.2,0.1,80.3,0.1,120.5
		c-28,0.1-56,0.2-84,0.2c-34.7,0-69.3-0.1-104-0.1c0-40.1-0.1-80.2,0.1-120.3c0-3.7-1.1-6.2-3.7-8.7c-8.9-8.5-17.6-17.2-26.4-25.8
		c0.8-3.3,3.5-1.9,5.4-1.9c44-0.1,88-0.1,132-0.1c35,0,70,0,105,0C445.2,386,447.4,385.3,449,387z"/>
	<path class="st8" d="M289,364.9c-32.2,0.1-64.3,0.1-96.5,0.2c-17,0-34-0.1-51,0.1c-3.9,0-4.6-1.2-4.6-4.8c0.1-35,0.2-70,0-105
		c0-4.7,1.4-5.4,5.6-5.4c56.3,0.1,112.7,0.1,169,0.1c6.3,0,6.3,0,6.3,6.5c0,34.7,0,69.3,0,104c0,1.4,0.7,3-0.8,4.1
		c-2-2.3-1.4-5.1-1.4-7.7c0-32.3,0-64.6,0-96.9c0-7.8,0-7.8-7.7-7.8c-41,0-81.9,0-122.9,0c-1.6,0-3.3-0.4-4.9,0.4
		c0.6,1.9,2.2,2.9,3.5,4.1c33.7,33.7,67.4,67.4,101,101.1C286.5,360,289.2,361.5,289,364.9z"/>
	<path class="st8" d="M484,364.9c-30.3,0.1-60.6,0.2-90.9,0.2c-18.8,0-37.6-0.1-56.5,0.1c-3.5,0-4.5-0.9-4.5-4.4
		c0.1-35.5,0.1-71,0-106.4c0-3.3,0.9-4.3,4.2-4.3c57.8,0.1,115.6,0.1,173.4,0.1c1.1,0,2.4-0.5,3.1,0.9c-2.3,2-5.1,1.3-7.7,1.3
		c-41.1,0-82.3,0-123.4,0c-2,0-4-0.3-6.2,0.5c0.3,2.4,2.3,3.5,3.7,4.9c33.4,33.5,66.9,66.9,100.3,100.4
		C481.4,360,484.2,361.5,484,364.9z"/>
	<path class="st0" d="M484,364.9c-1.3-1.5-2.6-3-4-4.4c-34.6-34.6-69.2-69.2-103.8-103.8c-1.1-1.1-2.2-2.1-3.1-3.2
		c-1-1.2-0.9-2.2,0.9-2.3c1.3-0.1,2.7-0.1,4-0.1c45,0,89.9,0,134.9,0c0.1,25.8,0.2,51.6,0.3,77.4c0,11-0.1,22,0,33
		c0,2.8-0.7,3.8-3.6,3.7C501,364.9,492.5,365,484,364.9z"/>
	<path class="st0" d="M289,364.9c-1.3-1.5-2.6-3-4-4.4c-34.9-34.9-69.7-69.8-104.6-104.6c-1.3-1.3-3-2.1-4.5-3.2
		c2.1-2.4,3.7-1.7,5.1-1.7c43.5,0,87,0,130.5-0.2c4.8,0,5.8,1.5,5.7,5.9c-0.2,36-0.1,72-0.1,108C307.7,365.4,298.3,365.2,289,364.9z
		"/>
	<path class="st9" d="M324.6,229.2c-33,0-66-0.1-99,0.1c-4.5,0-5.5-1.1-5.2-5.6c0.5-9.6,0.3-19.3,0-28.9c-0.2-6.4,0-7,6.1-7
		c65.5,0,131,0.1,196.5-0.1c5,0,6.6,1.2,6.4,6.3c-0.4,10-0.3,20,0,30c0.1,4.1-1,5.4-5.3,5.4C390.9,229.1,357.8,229.2,324.6,229.2z"
		/>
	<path class="st0" d="M492.1,193.9c8.2,0,14.7,6.3,14.8,14.4c0.1,8-6.5,14.6-14.6,14.6c-8.2,0-14.6-6.3-14.6-14.5
		C477.7,200.2,483.8,193.9,492.1,193.9z"/>
	<path class="st0" d="M157.6,194c8.3-0.1,14.7,6.1,14.7,14.3c0.1,8.2-6.2,14.7-14.3,14.8c-8,0.1-14.7-6.4-14.9-14.3
		C143,200.7,149.5,194,157.6,194z"/>
	<path class="st10" d="M232.5,422.5c0-3.7-1.1-6.8-3.8-9.4c-7.4-7.4-14.8-14.8-22.3-22.2c-1.5-1.5-2.9-3.3-5.5-2.9
		c-1.5,5.5-0.8,11.8-6.4,16.4c8.5,0.2,4.3,5.9,5.3,9.1c1.4,4.6-4.1,6.9-4.2,11.1c6,0.1,5.9,4-0.1,19.9c1.4,0.5,3.2-0.9,4.1,1.4
		c2.7,6.6-1.4,16.3-8.1,18.7c-5.8,2.1-11.5,0.3-12.6-3.9c-14.4,6.2-18.3,6.2-20,0c-14.2,6.2-18.3,6.2-20.1-0.3
		c-1.9,1.2-3.7,2.3-5.6,3.4c-3.7,2.2-13,2-13.4-0.6c-0.5-3.4-2.3-2-3.9-2.2c-0.1,2.2-0.2,4.3-0.2,6.5c0,25.1,0,50.2,0,75.3
		c38.4,0,76.7,0.1,115.1,0.1c1.6-1.6,1.5-3.7,1.5-5.6C232.5,499,232.5,460.7,232.5,422.5z M199.8,518.2c0,2.7-0.7,3.8-3.6,3.8
		c-18.6-0.1-37.2-0.1-55.9,0c-2.7,0-3.4-1.1-3.3-3.5c0.1-9.8,0.1-19.6,0-29.4c-0.1-3.2,1.1-3.9,4.1-3.9c9.1,0.2,18.3,0.1,27.4,0.1
		c0,0,0,0,0,0c9,0,18,0.1,26.9-0.1c3.1,0,4.6,0.6,4.5,4.1C199.7,498.9,199.7,508.6,199.8,518.2z"/>
	<path class="st10" d="M533.9,464c-3.4,1.3-6.9,1-10.3,1c-1.6,0-3.6-0.6-3.7-2c-0.1-3.6-1.7-2.1-3.2-1.3c-1.3,0.7-2.5,1.7-3.8,2.3
		c-3.8,1.9-12.6,1.4-12.9-1.1c-0.5-3.5-1.8-2.1-3.3-1.3c-1.3,0.7-2.5,1.7-3.8,2.3c-3.8,1.9-12.5,1.4-12.9-1.1
		c-0.5-3.6-1.9-2-3.3-1.2c-1.2,0.6-2.2,1.5-3.4,2.1c-3.5,2-12.5,1.8-13.1-0.5c-1-4.2-2.8-2-4.5-1.1c-4.7,2.5-5,1.9-5.8-3.3
		c-0.8-5.5,3-8.8,4.6-13c-7.2-0.6-3.5-6-4.4-9.3c-1.3-4.7,4-7,4.3-11.1c-6.1-0.1-6-4.6,0.1-19.9c-1.3-0.6-3.9,1-4-1.4
		c-0.2-4.5-1.9-9.3,1.4-13.4c0.9-1.2,2.4-2.6,1.7-3.9c-1.1-2-2.9,0.4-4.5,0.1c-2.1,0.3-3.5,1.9-4.9,3.3
		c-7.4,7.4-14.8,14.9-22.3,22.2c-3.1,3-4.4,6.4-4.3,10.7c0.1,37.8,0,75.6,0.1,113.5c0,2.1-0.2,4.4,1.5,6.1
		c21.6,0.1,43.2,0.2,64.8,0.2c16.8,0,33.5-0.1,50.3-0.2C534,516.5,533.9,490.3,533.9,464z M509.3,522c-9.3-0.1-18.6,0-27.9-0.1
		c-9,0-18-0.2-26.9,0.1c-3.3,0.1-4.3-1-4.2-4.2c0.2-9.5,0.2-19,0-28.4c-0.1-3.4,1.3-4.2,4.4-4.2c18.1,0.1,36.3,0.1,54.4,0
		c2.9,0,4.1,0.7,4.1,3.9c-0.2,9.8-0.1,19.6,0,29.4C513.1,521.4,512,522.1,509.3,522z"/>
	<path class="st11" d="M325.5,459.1c24.3,0,48.7,0,73-0.1c3,0,4.9,0.1,4.9,4.1c0,3.9-1.4,4.6-4.9,4.6c-49-0.1-98-0.1-147,0
		c-3.6,0-4.9-0.8-4.9-4.7c0-4.1,2-4.1,4.9-4.1C276.2,459.1,300.8,459.1,325.5,459.1z"/>
	<path class="st11" d="M325.5,509.3c24.3,0,48.7,0.1,73-0.1c3.6,0,4.9,0.8,4.9,4.7c0,4.1-2,4.1-4.9,4.1c-49-0.1-98-0.1-147,0
		c-3.6,0-5-0.7-4.9-4.6c0-4,2-4.1,5-4.1C276.2,509.3,300.8,509.2,325.5,509.3C325.5,509.3,325.5,509.3,325.5,509.3z"/>
	<path class="st12" d="M324.7,451c-24.5,0-49,0-73.5,0c-2.7,0-4.8,0.1-4.6-3.8c0.1-3.2,0.6-4.7,4.3-4.7c17.3,0.2,34.6,0.1,51.9,0
		c23.6,0,47.3-0.1,70.9-0.1c8.5,0,17,0.1,25.5-0.1c3.4-0.1,4.1,1.4,4.1,4.5c0,3.2-0.9,4.2-4.2,4.2C374.3,450.9,349.5,451,324.7,451z
		"/>
	<path class="st0" d="M325.3,476c24.5,0,49,0,73.5,0c2.7,0,4.8-0.1,4.6,3.8c-0.1,3.3-0.9,4.6-4.5,4.6c-49.3-0.1-98.6-0.1-148,0
		c-3.7,0-4.2-1.4-4.4-4.6c-0.2-4,2.1-3.7,4.7-3.7C276,476,300.6,476,325.3,476z"/>
	<path class="st0" d="M324.6,501c-24.3,0-48.7,0-73,0.1c-3.3,0-5.1-0.2-5.1-4.4c0.1-4.2,2.2-3.9,5-3.9c48.8,0,97.7,0.1,146.5,0
		c3.5,0,5.5,0.3,5.3,4.7c-0.2,3.4-1.6,3.7-4.3,3.6c-14.2-0.1-28.3,0-42.5,0C346,501,335.3,501,324.6,501
		C324.6,501,324.6,501,324.6,501z"/>
</g>
</svg>
