<?xml version="1.0" encoding="utf-8"?>
<!-- Generator: Adobe Illustrator 19.0.0, SVG Export Plug-In . SVG Version: 6.00 Build 0)  -->
<svg version="1.1" id="Calque_1" xmlns="http://www.w3.org/2000/svg" xmlns:xlink="http://www.w3.org/1999/xlink" x="0px" y="0px"
	 viewBox="0 0 612 792" style="enable-background:new 0 0 612 792;" xml:space="preserve">
<style type="text/css">
	.st0{fill:#1E596D;}
	.st1{fill:#1B5163;}
	.st2{fill:#A5CD39;}
	.st3{fill:#FDF000;}
	.st4{fill:#FDF001;}
	.st5{fill:#EB2323;}
	.st6{fill:#A4CC39;}
	.st7{fill:#A5CC39;}
	.st8{fill:#EB2223;}
	.st9{fill:#0094D8;}
	.st10{fill:#0194D8;}
	.st11{fill:#EB1D25;}
	.st12{fill:#A4CC3A;}
	.st13{fill:#EA1D25;}
</style>
<g>
	<path class="st0" d="M42.7,394.3c0-4.7,0-9.3,0-14c1.1-3.4,0.2-7,0.5-10.5c-0.7-31.8,8-61.5,21-90.1c14.7-32.3,35.4-60.2,61.7-83.9
		c30.3-27.3,65.2-46.4,104.5-57.5c16.6-4.7,33.5-6.6,50.7-6.6c3.5-0.3,7.1,0.6,10.5-0.5c9,0,18,0,27,0c7.5,1.1,15.2,0.8,22.7,1.8
		c20.1,2.8,39.3,8.7,57.8,16.6c36.7,15.7,68.1,38.7,94.3,68.8c22.8,26.2,39.4,55.9,50.5,88.8c2,5.8,3.5,11.8,5.1,17.7
		c0.7,2.7,1.7,5.5,0.1,8.2c-2.8,2.1-5.1,0.3-7.3-1.1c-10.9-6.8-21.6-13.9-32.3-20.9c-0.8-0.5-1.7-1.1-2.5-1.6c-3.6-3.2-7.4-6.3-12-8
		c-1.4-1-3-1.5-4.7-1.7c-10.9-1.9-21.5,0.4-31.9,3.4c-6.4,1.8-12.6,4.1-18.8,6.7c-1.8,0.8-3.7,1.5-5.8,1.1c-2.9-1-4.4-3.5-6-5.8
		c-23.6-33.4-55.3-55-95.3-63.4c-47.8-10.1-91.4,0.4-129.6,30.6c-32.5,25.7-51.3,59.7-57.3,100.8c-0.3,2-0.6,4-2.4,5.3
		c-2.7,1.3-4.8-0.2-6.9-1.5c-5.4-3.2-10.9-6.4-16.3-9.5c-1.3-0.7-2.6-1.6-4-2c-1.5-0.4-3.1-0.3-3.9,1.3c-0.8,1.5-0.5,2.9,0.7,4.1
		c1.3,1.3,2.9,2.2,4.5,3.1c7.1,4.2,14.2,8.5,21.4,12.7c2.3,1.3,4.8,2.5,5.4,5.5c0.7,5.6,1.9,11.3-0.8,16.8c-2.4,2-4.7,1-6.9-0.2
		c-4.1-2.1-8.1-4.6-12.3-6.6c-1.9-0.9-4.4-1.9-5.7,0.7c-1.2,2.4,0.5,4.1,2.4,5.3c6.1,3.8,12.5,7,18.8,10.2c2.8,1.4,5.8,2.7,7.2,5.8
		c1.1,3.9,2.3,7.8,3.1,11.8c0.4,1.9,1,3.9-0.6,5.5c-3,1.6-5.5-0.3-8-1.4c-16.2-7.6-31.4-16.8-46.7-26c-1.9-1.1-3.7-2.3-5.8-2.9
		c-1.6-0.4-3,0-3.8,1.6c-0.8,1.4-0.2,2.6,0.7,3.7c1.1,1.3,2.6,2.1,4,2.9c20.1,12.2,40.2,24.3,62,33.3c1.4,0.6,2.7,1.3,3.8,2.4
		c5.9,9.1,10.3,19,16.6,27.9c17.3,24.6,39.8,42.7,67.3,54.7c2.1,0.9,4.4,1.6,6,3.4c1,1.7,2.1,3.2,4,4.2
		c37.2,20,73.2,42.1,109.9,63.2c7.4,4.2,14.5,8.8,22,12.8c2.7,1.4,6,2.7,5.6,6.8c-1.3,2.5-3.9,3-6.2,3.8
		c-19.5,6.6-39.5,10.9-60.2,10.7c-1,0-2-0.2-2.9,0.5c-13,0-26,0-39,0c-7.5-1.2-15.2-0.7-22.7-1.8c-28.3-4.1-54.8-13.8-79.9-27.3
		c-26.1-14-49.1-32.1-68.8-54.1C78,527.6,58.1,490,47.7,447.4c-3.4-14-4.2-28.2-4.5-42.5C42.9,401.3,43.7,397.8,42.7,394.3z"/>
	<path class="st1" d="M507.4,308.4c9.1,4.2,17,10.3,25.4,15.6c5.2,3.2,9.9,7.2,15.8,9.3c3.9,1.6,3.6,5.2,4,8.4
		c1.1,8.8,1,17.8,2,26.6c0,13,0,26,0,39c-1.1,7.5-0.8,15.2-1.8,22.7c-2.6,19.8-8.6,38.7-16.3,57c-15.6,37-38.7,68.6-68.9,95
		c-21.9,19.1-46.4,34.1-73.4,44.8c-2.4,0.9-4.9,2.6-7.5,0.5c-12.3-7.3-24.5-14.7-36.8-21.9c-18.9-11.1-37.9-22.2-56.8-33.2
		c-14.4-8.3-28.8-16.6-43.2-24.9c-2.2-1.3-5-1.8-5.3-5.1c2.7-1.8,5.2-0.3,7.6,0.4c16.2,4.9,32.6,8.1,49.6,7.4
		c37.1-1.4,70.4-13.2,98.9-37.4c28.1-23.9,45.1-54.3,52.3-90.2c2.8-13.9,3.5-28.1,1.9-42.2c-0.2-1.5,0.1-3,0.2-4.5
		c0.5-3.2,3-4.7,5.4-6.2c9-5.8,17.4-12.2,25.3-19.3c7.2-6.5,12.9-14.2,17.7-22.6c0.5-0.9,0.6-1.9,0.7-2.9c1-1.8,1.1-3.9,1.1-5.9
		C506.1,315.5,504.3,311.5,507.4,308.4z"/>
	<path class="st2" d="M142.7,378.6c2.1-13,4.2-26,9.1-38.3c22.7-57.1,64-92.8,124.9-101.6c66.6-9.6,119,16.2,156.9,71.6
		c-0.3,2.5-2.4,3.4-4.3,4.4c-10.6,5.4-21,11.3-31.1,17.5c-2,1.3-4.2,2.9-6.9,1.4c-1.4-1.6-1-3.5-0.7-5.3c1.4-8,1.4-15.9-0.3-23.8
		c-0.1-0.7-0.2-1.3-0.2-2c0.2-4,1.4-7.7,5.1-9.7c3.8-2,5.9,1.5,7.8,2.7c-9-8.1-18.6-16.9-29.9-23.3c-9.6-5.5-19.4-10.3-29.9-13.7
		c-2.6-0.8-3.9-0.9-5.1,2.3c-2.1,5.7-6.4,10.1-11.2,13.8c-2.3,1.8-5.1,2.4-8,2.1c-7-0.5-13.9-0.6-20.9,0.4c-7.5,1.1-14.5,0-20.5-5.4
		c-3-2.8-6.7-5-9.9-7.6c-4.6-3.6-4.5-5.5-0.3-8.5c-25,6.1-47.9,18.1-67.2,37.5c13.4-3.6,26.2-7.2,39.2-10.3c6.4-1.5,12.1-1,18,1.5
		c6.1,2.6,12.2,5.3,19.2,2.9c2.9-1,5.5,0.8,7.8,2.6c15.8,12.8,31.8,25.3,43.6,42.3c4.7,6.7,4.9,8.1-0.7,14
		c-9.6,10-13.9,22.5-17,35.6c-2.7,11.2-5,22.5-1,33.9c-1,2.4-2.9,3-5.2,2.8c-2.5-0.6-3.7-2.6-4.6-4.6c-1.4-3.1-3.7-5.7-5-8.8
		c0.3-2.3,2.1-3.3,3.7-4.4c1.5-1,2.6-2.3,1.8-4.2c-0.9-2.1-2.9-2-4.7-1.5c-2.3,0.6-4.3,1.7-6.4,2.8c-21.3,10.9-44.1,14.2-67.7,12.5
		c-1.8-0.1-3.7-0.4-4.7-2.2c-0.3-8.5-2.5-16.5-7-23.6c-4.5-7.2-5-14.5-2.2-22.4c2.2-6.3,3.3-12.9,5.1-19.3c1.1-3.9,0.5-7.1-2-10.2
		c-2.7-3.4-5.4-6.8-8.6-9.7c-2.4-2.1-4.7-2.5-7.7-0.9c-6.5,3.5-7.2,3.4-11.6-2.2c-2.4-3-3.1-0.9-4.1,0.8
		c-9.3,15.6-15.5,32.3-18.7,50.2c-0.9,5,0.1,10.4-3.5,14.8C150.6,386.7,144.7,383.6,142.7,378.6z"/>
	<path class="st2" d="M456.5,375.2c10.8,82.3-46.8,160.2-128.9,174.3c-13,2.3-26.2,3.3-39.3,2.5c-14.9-1-29.6-4.5-43.8-9.7
		c-14-6.1-27.6-13-39.9-22.3c-22.1-16.9-38.5-38.4-50-63.7c0.6-0.7,1.4-1.1,2.2-0.9c6.2,1.7,12.6,2.9,17.8,7.1
		c23.8,39.8,57.9,64.9,104,72.4c15.3,2.5,30.8,2.2,46.2-0.7c4-0.7,4.7-1.9,2.1-4.7c-10.2-11.2-12.5-25.4-15.6-39.4
		c-0.8-3.4-0.3-6.6,0.1-9.9c1.2-9.1,1.9-18.2,4-27.1c0.5-1.3,1.5-2.3,2.7-2.8c5.4-2,8.9-5.3,8.3-11.6c6.4-3.2,13-1.1,19,0.5
		c17.5,4.8,28.3,17,33.3,34.2c2.9,10.2-1.2,19.1-7.8,26.7c-4,4.6-5.9,9.4-5.3,15.5c0.4,4.3,0.8,4.7,4.7,2.4
		c17.4-10,32.2-23.1,44.1-39.2c7.2-9.7,12.8-20.2,17.6-31.2c3.1-7.1,2.1-11.2-6-16c-6.8-4.1-14.2-7.4-20.5-12.4
		c-3.1-2.5-6.2-5-8.4-8.4c-0.7-4.9,4.1-6.7,5.8-10.3c4.3-3.2,9.4-4.9,14.2-7.1c10.8-4.9,21.2-10.3,31.5-16.2
		C451,375.8,453.3,373.5,456.5,375.2z"/>
	<path class="st3" d="M507.4,308.4c0.3,4.1,0.5,8.3,0,12.4c-5.4,7.2-13.2,11.5-20.3,16.6c-20.9,15.1-42.9,28.3-65.7,40.4
		c-16.4,8.8-33.3,16.5-50.5,23.5c-0.9,0.4-1.9,0.4-2.9,0.6c-15.5-2.6-19.2-9.1-13.7-24.4c9.8-8.5,20.3-16,31.3-22.9
		c19.3-12.3,39.1-23.9,59.6-34.2c14.1-7.1,28.6-13.3,43.2-19.1c2.3-0.9,4.7-1.6,7.3-1.4C500.4,301.6,504.5,304.1,507.4,308.4z"/>
	<path class="st4" d="M173.7,463.2c-6.3-2.3-12.6-4.6-18.9-6.9c-24.1-9.7-46.3-23.1-68.5-36.4c-3.3-2-5.8-4.5-3.4-8.5
		c2.3-3.9,5.7-3.1,9.1-1.1c18.5,11,36.8,22.5,56.7,31.1c5-1.1,8.8,2.1,13.1,3.5c1.7,0.6,3.2,1.8,5.1,1.8
		c16.8,6.1,33.9,10.9,51.7,12.1c22.1,1.5,44.2,0.1,65.5-7c4.4-1.5,9.2-1.8,13.2-4.2c7.2-3.2,14.5-6.2,21.3-10.2c3-0.9,6.1-2.1,8,1.8
		c3.1,4.7,2.5,7.2-2.2,9.9c-2.5,1.4-5.2,2.7-7.7,4.1c-1,2.2-2.8,3.5-5,4.5c-22,10-45,15.8-69.3,16.7c-20.8,0.7-41-1.4-61-7
		C178.4,466.7,175.9,465.3,173.7,463.2z"/>
	<path class="st4" d="M303.8,417.3c1.8-0.3,3.5-0.5,4.9-1.8c0.1-2.4,2-3.3,3.7-4.3c6.8-3.9,13.3-8.2,19.6-12.8
		c0.7-0.5,1.3-1,2.1-1.4c4.2-2.3,8.6-1.8,10.8,1.3c2.5,3.4,1.8,7.9-2.2,11c-14.3,10.7-29.2,20.3-46.4,25.7c-1.1,0.4-2,1.1-3.1,1.6
		c-9.5,3.9-19.3,6.6-29.5,7.5c-1.8,0.2-3.4,1.1-5.2,1.4c-8.7,0.9-17.5,2.3-26.2,1.8c-15.2-0.8-30.4-2.1-45.2-6.3
		c-8.9-2.5-17.9-4.8-26.4-8.7c-5.3-2.1-11.3-3-15.2-7.9c-8.5-4.7-17.1-9.4-25.6-14.1c-1.6-0.9-3.3-1.7-4.1-3.5
		c-1-2.3-0.8-4.6,1.1-6.4c2.1-1.9,4.5-1.9,6.9-0.6c5.9,3.3,11.9,6.6,17.8,9.8c4.8-0.8,8.5,2.1,12.5,3.8c1.6,0.7,3.1,1.8,5,2
		c15.9,6.4,32.2,11.7,49.2,14.3c4.9,0.7,9.9,1.4,14.8,1.8c9,3.1,18,0.3,26.9-0.6c6.9-0.6,13.7-2,20.5-3c9.4-2.9,18.9-5.6,27.9-9.8
		C300.3,417.3,302.1,417.8,303.8,417.3z"/>
	<path class="st4" d="M216.6,407.5c12.5,1.5,25.1,1.7,37.5-0.6c12.9-2.3,25.1-6.5,36.7-12.5c0.1-0.1,0.3-0.1,0.5-0.2
		c5.7-2.8,9.4-2.5,11,0.8c1.7,3.6-0.1,6.3-6.1,9.1c-0.6,0.3-1.1,0.7-1.6,1.1c-0.8,3-3.5,3.8-5.8,4.8c-7,2.9-14,5.9-21.5,7.3
		c-11.6,3.8-23.6,4.8-35.8,4c-6,4.6-11.6-0.2-17.3-1c-20.4-2.9-39.7-9.4-57.7-19.4c-5-2.6-10.9-3.8-14.1-9.2
		c-9.6-5.7-19.1-11.4-28.7-17c-3.5-2.1-6.3-4.6-3.8-8.7c2.5-4.1,6-2.9,9.5-0.8c7.7,4.6,15.5,9,23.2,13.5c4.1,2.5,8,5.5,12.8,6.9
		c2.3-0.7,4.2,0.6,6.1,1.5c15.9,7.5,32.1,14.4,49.6,17.5C213.3,404.8,215.6,405.2,216.6,407.5z"/>
	<path class="st3" d="M391.9,333.4c13.7-8.1,27.4-16.2,41.7-23.1c13.5-5.4,26.9-10.9,41.7-12.4c5.7-0.6,11.2-0.3,16.8,0.9
		c-1.1,3.1-4.1,3.1-6.5,4c-41.1,16.4-79.5,37.8-115.9,63c-3.5,2.5-6.9,5.1-10.4,7.8c-1.4,1.1-2.8,2.4-4.8,2.3
		c-3.5-1.7-4.9-4.5-5.2-8.2c0.3-2.7,2.2-4.3,3.9-6.2c5.6-6.4,12.8-10.9,19.3-16.3c4.5-3.6,9.2-6.8,13.9-10
		C388.1,334,389.8,333,391.9,333.4z"/>
	<path class="st5" d="M354.8,375.5c40.3-30.8,84.3-55.2,131.3-74.2c2-0.8,4-1.7,6-2.5c1.2,0.4,2.3,0.8,3.5,1.2
		c-22,8.9-43.8,18.3-64.7,29.6c-26.1,14.2-51.5,29.7-75,47.9C354.9,377.2,354.4,376.6,354.8,375.5z"/>
	<path class="st6" d="M145.5,424.4c5.1,2,10.1,4,15.2,6c3.2,3.8,4.3,8.6,5.7,13.2c0.5,1.6,0.8,3.3-0.6,4.7c-6-1.5-11.6-4.2-17.1-6.8
		C148.8,435.6,145.5,430.3,145.5,424.4z"/>
	<path class="st7" d="M142.5,391.6c4.8,2.5,9.5,5,14.3,7.4c1.3,6,3.6,12,1,18.3c-5.4-2.5-10.8-5.1-16.1-7.6
		c2.3-3.8,0.4-7.9,0.8-11.8C142.6,395.8,142.5,393.7,142.5,391.6z"/>
	<path class="st3" d="M456.5,375.2c-16.6,9.4-33.4,18.3-51,25.6c-0.6,0.3-1.2,0.5-1.9,0.7c-8.4,6.8-18.1,9.9-28.9,10.1
		c-3.7-1.9-5.5-5-5.5-9.2c2-2.5,5.2-2.9,7.9-4c38.7-16,74.8-36.6,109-60.6c5.3-3.7,10.4-7.6,15.6-11.5c1.2-0.9,2.3-2,4-1.2
		c-1.3,7.4-5.9,12.9-10.5,18.3c-9.7,11.6-21.9,20.4-34.4,28.7C459.4,373,457.9,374.2,456.5,375.2z"/>
	<path class="st8" d="M505.7,325c-25,18.6-50.8,35.9-78.3,50.6c-18.6,10-37.6,19.2-57.3,26.9c-1.5,0.1-1.5-0.8-1.4-1.9
		c34.5-13.8,67.1-31.2,98.3-51.3c13.8-8.9,27-18.8,40.3-28.5C507.6,322.5,506.7,323.8,505.7,325z"/>
	<path class="st9" d="M368.8,400.6c0.5,0.6,0.9,1.3,1.4,1.9c1.4,2.9,2.7,5.8,4.9,8.3c2.9,5,1.5,10.7,2.6,15.9c0.4,2.1,0,4.3,0.2,6.9
		c5.3-6.6,9.9-13.4,14.9-19.9c1.4-1.9,2.6-4.4,5.7-4c8.2,9.1,18.6,15,29.4,20.3c7.1,3.5,9.7,9.9,6.8,17
		c-13.1,32.4-34.9,57.1-65.4,74.1c-1.3,0.7-2.7,1.3-4.5,2.2c-1.3-8.7-2.4-16.4,4.3-24c11.7-13.1,11.6-24.4,1.8-39
		c-10.6-15.8-25.7-21.9-44.2-20.9c-2.6-2-5.3-0.8-7.9,0c-7.9,2.7-15.5,0.5-23.1-1.5c-1.5-0.4-3-1.4-2.8-3.5
		c17.9-6.3,34-15.8,49.1-27.2c2.9-2.2,4-5.1,1.6-8.2c-2.4-3.1-5.5-2.7-8.4-0.5c-8.4,6.4-17.2,12-26.5,16.9c-4.5-4.8-4.7-11-3.9-16.6
		c1.9-11.8,4-23.6,8.6-34.8c3.5-8.4,8-16.1,15-22.1c2.5-2.2,1.7-3.4,0.2-5.6c-12.7-18.6-30-32.4-47.3-46.3c-1.7-1.3-3.1-1.7-5-0.9
		c-5.3,2.2-10.4,1.5-15.3-1.2c-8.9-4.9-17.7-4.8-27.3-1.8c-11.7,3.7-23.9,5.9-35.6,9.9c-1,0.3-2.2,1.7-3.1,0.4
		c-1.1-1.6,0.8-2.3,1.6-3.1c18.8-19.3,41.3-32.3,67.4-39.1c2.7-0.7,5.5-1.3,8.7-1.2c-2.6,2.2-5.3,4.4-7.9,6.6
		c6.4,4.8,12.6,9.3,18.7,13.9c1.9,1.5,3.8,1.8,6,1.7c8.7-0.4,17.5-2,25.9-0.6c12,1.9,15.2-7.3,21-13.5c1.8-1.9-0.7-4-0.6-6.1
		c20.5,1.4,69.1,32.1,72.5,46.2c-2.9-2.1-5.7-3.8-8.1-5.9c-2.8-2.4-4.4-2.6-6.3,1.1c-1.6,3.1-2.4,5.8-1.4,9.4
		c2.6,9.3,1.1,18.5-0.7,27.7c-6.3,4.5-12.6,9.1-19,13.6c-8.2,3.8-17.2,3.1-25.9,4.2c-4.7,0.6-9.5,1.2-15.1,1.4
		c4.7,4,9.6,6.1,13.8,9.2c1.8,1.4,4.1,2.4,4.5,5.1c1.5,2.8,3,5.7,4.5,8.5c0.4,0.7,0.7,1.3,1.1,2c-0.6,2.6-1.1,5.1-1.7,7.7
		c-1.5,6.7,0,9.8,6.3,12.4C363.2,398.7,366,399.6,368.8,400.6z"/>
	<path class="st9" d="M216.6,407.5c-21.8-3.5-42.1-10.8-61.1-22.1c2-20.2,6.7-39.6,16.3-57.7c2.1-4,4.6-7.7,6.7-11.7
		c1.6-2.9,2.7-2.2,3.9,0.2c0.1,0.3,0.3,0.6,0.5,0.9c4.2,6.7,4.3,6.8,10.7,2.3c2.8-2,5.3-1.6,7.8,0.3c5.8,4.4,9.7,10.4,13.6,16.5
		c1,1.5,0.2,2.9-0.1,4.3c-2.4,9-4.5,18.1-7.1,27c-1.2,4.1-1,7.6,1.2,11.3c4.5,7.6,7.9,15.7,9.3,24.6
		C218.5,405.1,219.8,407.2,216.6,407.5z"/>
	<path class="st10" d="M267.9,415.5c9-3.2,18-6.3,26.7-10.4c2.3-0.4,3.1,1.3,3.9,2.9c1.7,3.1,3.5,6.2,5.3,9.4
		c-9.9,6.2-21,9.1-32.1,12.1C267.1,427.7,265.4,421.4,267.9,415.5z"/>
	<path class="st9" d="M173.7,463.2c21.1,6.3,42.6,10.1,64.8,9.6c27.5-0.6,53.4-7.7,78.2-19.4c0,9.7-2.2,19.1-3.3,28.7
		c-0.4,3.6-0.2,6.9,0.7,10.3c0.3,1.1,0.6,2.3,0.8,3.4c1.9,13.3,7.1,25.1,15.9,35.4c2,2.3,2.8,3.7-1.5,4.6
		c-60.8,12.4-123.6-15.1-155.1-70.7C173.9,464.5,173.8,463.8,173.7,463.2z"/>
	<path class="st11" d="M398.4,409.7c-7.3,9.6-14.6,19.3-21.8,28.9c-0.5-0.1-1-0.1-1.5-0.2c0-9.2,0-18.4,0-27.6
		c9.8-2,19.2-5.6,28.5-9.2C402.8,404.8,399.9,406.8,398.4,409.7z"/>
	<path class="st10" d="M165.8,448.3c-1.5-6-4.8-11.5-5.1-17.9c31.6,12.1,64.1,17.4,97.9,13c11.1,3,22.4,3,33.7,2.9
		c2.4,0,5.5-0.6,6.3,3c-24.9,9.6-50.6,14.1-77.3,12C202.2,459.8,183.6,455.7,165.8,448.3z"/>
	<path class="st12" d="M298.6,449.3c-0.8-2.3-2.8-1.3-4.2-1.3c-5.8,0-11.7-0.2-17.5,0.3c-6.8,0.6-12.7-1.2-18.3-4.9
		c11.6-2.2,23.2-4.4,34.2-8.9c5.4,3.1,11.6,3.3,17.5,4.2c2.8,0.4,5.6,0.5,8.4,0.8C312.4,443.5,305.6,446.6,298.6,449.3z"/>
	<path class="st10" d="M157.8,417.3c-0.9-6.1-3.2-12-1-18.3c19.5,9.8,39.7,17.2,61.5,19.8c2.7,0.3,5.2,0.8,6.8,4.2
		c0.1-5,3.3-3,5.3-3.5c5.4,1.4,7.5,6.1,10.3,10.1c1.4,2,1,4.3-2.3,4.2c-5.2-0.2-10.5,0.4-15.7-0.3
		C200.1,431.9,178.6,426,157.8,417.3z"/>
	<path class="st7" d="M222.6,433.5c5.9-0.5,11.8,0.8,18.4-0.4c-3.7-4.8-7.1-9.1-10.5-13.5c12.7,0.5,25.1-1.5,37.4-4.1
		c0.6,3.3,1.2,6.5,1.8,9.8c0.3,1.6,0,3.4,2,4.2c-6.5,2-13.3,2.8-20,3.5c-7.9,0.8-15.8,2.2-23.8,1.5
		C226.1,434.3,224.3,434.6,222.6,433.5z"/>
	<path class="st13" d="M350.3,367c-7.8-4.9-15.6-9.8-24.6-15.5c16.8-1.5,32-3.8,47.3-4.4C365.2,353.5,357,359.4,350.3,367z"/>
</g>
</svg>
