<?xml version="1.0" encoding="utf-8"?>
<!-- Generator: Adobe Illustrator 19.0.0, SVG Export Plug-In . SVG Version: 6.00 Build 0)  -->
<svg version="1.1" id="Calque_1" xmlns="http://www.w3.org/2000/svg" xmlns:xlink="http://www.w3.org/1999/xlink" x="0px" y="0px"
	 viewBox="0 0 612 792" style="enable-background:new 0 0 612 792;" xml:space="preserve">
<style type="text/css">
	.st0{fill:#1C70D8;}
	.st1{fill:#FD5D5D;}
	.st2{fill:#1C70D9;}
	.st3{fill:#FDC404;}
	.st4{fill:#00D30B;}
</style>
<g>
	<path class="st0" d="M484.5,582c-11.6,0.2-19.8-3.1-26.5-9.6c-2.2-2.2-3.2-2-5.4,0c-14.4,13.2-34.5,13.2-48.7-0.2
		c-2.6-2.5-3.5-1.2-5.4,0.5c-11.3,10-24.3,12.4-38.1,6.6c-13-5.4-20.4-15.7-21.6-29.9c-0.7-7.3,2.1-11.2,7.6-11.8
		c5.9-0.6,9.3,2.7,10.2,10.1c1.1,9,7.2,15.5,15.5,16.3c8.9,0.9,16.4-3.6,19.2-11.8c0.6-1.7,0.7-3.6,0.9-5.4c0.7-5.9,3.9-9.3,9-9.4
		c5.2,0,8.3,3.2,9.1,9.2c1.2,9.5,6.6,15.9,14.7,17.2c8.4,1.4,15.9-2.4,19.5-9.8c1.1-2.3,1.6-4.7,1.8-7.2c0.5-6,3.8-9.3,9-9.3
		c5.3,0,8.4,3.1,9,9.2c1.1,10.6,8.3,17.5,18.2,17.5c9.7-0.1,16.8-7,17.7-17.3c0.5-6,4.1-9.6,9.4-9.4c5.4,0.2,8.5,3.9,8.5,10.2
		C517.9,566.3,501.8,581.9,484.5,582z"/>
	<path class="st0" d="M266.3,258.8c-9.3,0-17.3-3.3-23.9-9.7c-2.3-2.2-3.3-1.9-5.5,0.1c-10.6,9.8-23.1,12.3-36.6,7.3
		c-13.7-5-21.2-15.5-23.3-29.8c-0.7-4.7-0.1-9.1,4.6-11.6c6.2-3.3,12.7,1,13.3,9c1,13.2,14.7,20.9,26.3,14.7c6-3.2,8.7-8.4,9.5-14.9
		c0.8-6.4,3.9-9.9,9-9.8c5.1,0,8.4,3.7,9,10c0.9,9.5,7.7,16.4,16.6,16.8c9.8,0.5,17.3-5.6,19-15.4c0.1-0.8,0.2-1.6,0.3-2.5
		c0.7-5.7,4.4-9.3,9.4-8.9c5.4,0.4,8.9,4.8,8.5,10.9C301.4,244.4,285.8,258.9,266.3,258.8z"/>
	<path class="st1" d="M119.1,230.2c0.1,3.4-3.4,5.8-6.2,8.6c-5.7,5.8-5.8,5.8-0.1,11.5c1.2,1.2,2.4,2.3,3.5,3.6
		c3.7,4.2,3.8,9.4,0.2,13c-3.8,3.7-8.6,3.6-12.9-0.3c-2.4-2.3-4.9-4.6-7.1-7.1c-1.7-1.9-2.8-1.7-4.3,0.1c-2.2,2.5-4.6,4.8-7.1,7.1
		c-4.2,3.8-9.3,3.9-13,0.3c-3.4-3.3-3.3-9.1,0.4-13.1c1.7-1.8,3.4-3.7,5.3-5.3c3.3-2.6,4.1-4.8,0.2-7.7c-2.1-1.5-3.9-3.7-5.7-5.6
		c-3.5-3.9-3.6-9.1-0.3-12.6c3.7-3.9,8.5-4,12.9-0.1c2.6,2.3,5.1,4.8,7.4,7.4c1.4,1.6,2.5,1.7,4,0.1c2.5-2.7,5-5.3,7.8-7.8
		c2.8-2.5,6.1-3.4,9.7-1.6C117.4,222.3,119.1,225.2,119.1,230.2z"/>
	<path class="st0" d="M550.4,357.6c-17.2,0.3-34.3,0-51.5,0.1c-3,0-5.2-0.7-7.5-2.8c-23.7-21.2-47.6-42.3-71.2-63.5
		c-4.4-3.9-8.8-5.8-14.7-5.7c-30.5,0.2-61,0.1-91.5,0.1c-8,0-11.2,3.2-11.2,11.2c0,18,0.1,36,0,54c0,7.7,1.1,6.7-6.6,6.7
		c-65.8,0-131.7,0-197.5,0c-8.4,0-11.6,3.1-11.6,11.4c0,40.5,0,81,0,121.5c0,7.4,3.6,10.9,11.2,10.9c6.8,0,13.7,0.2,20.5-0.1
		c3.6-0.2,4.4,1.1,4.4,4.5c-0.2,12.5,0,25-0.1,37.5c0,4.4,0.4,8.4,4.8,10.7c4.3,2.2,7.9,0.6,11.6-1.9c23.5-15.8,47.1-31.4,70.6-47.2
		c3.8-2.5,7.5-3.6,12-3.6c59.3,0.1,118.7,1,178-0.2c45.4-0.9,82.5-20.7,109.8-57.2c18.2-24.4,35.5-49.5,53.1-74.3c0-2,0-4,0-6
		C560.1,358.9,556,357.5,550.4,357.6z M386.9,303.7c1.2,0.1,2.4,0.2,3.5,0c10.9-1.6,19.6,1.6,27.7,9.5
		c15.3,14.8,31.6,28.5,47.4,42.7c0.3,0.3,0.5,0.8,1,1.8c-27,0-53.3,0-79.7,0c-2.6,0-3.6-0.4-3.6-3.6c0.2-15.6-0.1-31.2-0.3-46.9
		C383,304.4,384.2,303.4,386.9,303.7z M324.9,303.6c12.2,0.1,24.3,0.1,36.5,0c2.8,0,3.7,1,3.8,3.8c0.1,15.5,0.7,31.1,0,46.6
		c-0.1,2.9-1.2,3.7-3.9,3.6c-12.2-0.1-24.3-0.1-36.5,0c-3.2,0-4-1.2-3.9-4.1c0.1-7.7,0-15.3,0-23c0-7.7,0.1-15.3-0.1-23
		C320.8,304.5,321.9,303.6,324.9,303.6z M141,529.4c0-9.3,0-17.5,0-25.7c0-1.8,0.9-2.3,2.5-2.3c12.6,0,25.1,0,37.7,0
		c0.1,0.3,0.2,0.6,0.3,1C168.3,511.2,155.1,520,141,529.4z M508.7,414.7c-7.5,10.4-13.8,21.7-23.1,30.7
		c-25.4,24.3-55.2,38.2-91,38.2c-94.8-0.1-189.6,0-284.4,0.1c-3.6,0-5.3-0.4-5.2-4.7c0.2-32.8,0.2-65.6,0-98.5
		c0-3.7,0.8-4.8,4.7-4.8c141.1,0.1,282.2,0.1,423.3,0.1c0.8,0,1.6,0.1,3.5,0.2C526.9,389.3,517.9,402.1,508.7,414.7z"/>
	<path class="st2" d="M195.4,285.9c-18.3-0.4-36.7-0.4-55,0c-17,0.4-28.9,15.4-25.6,32.1c0.7,3.3-0.2,3.8-3.3,3.8
		c-16-0.1-32,0.1-48-0.2c-5.5-0.1-9.7,1.4-12.6,6.1c0,1.3,0,2.7,0,4c1,1.7,0.5,3.6,0.5,5.4c0,50.8,0,101.6,0,152.4
		c0,1.8-0.3,3.7,0.3,5.4c2.2,5.1,5.5,7.2,9.9,6.3c4.6-0.9,7.2-4.1,7.4-9.3c0.1-1.2,0-2.3,0-3.5c0-47.8,0-95.6-0.1-143.5
		c0-4,0.7-5.4,5.1-5.3c40,0.2,80,0.1,120,0.1c15.1,0,27.3-11.3,27.8-25.7C222.4,298.9,210.8,286.2,195.4,285.9z M194.1,321.6
		c-8.8,0.1-17.6,0-26.5,0c-8.5,0-17,0-25.5,0c-6.1,0-10.3-3.9-10.2-9.2c0.1-5.1,4.3-8.8,10.1-8.8c17.3,0,34.6,0,51.9,0
		c5.8,0,9.9,3.8,9.9,8.9C204,317.7,199.9,321.6,194.1,321.6z"/>
	<path class="st3" d="M288.1,557.8c-8.2-8.5-16.6-16.9-25.1-25.1c-4.1-4-8.8-3.9-12.9,0c-8.5,8.3-16.8,16.6-25.1,25.1
		c-4,4.1-4,8.7-0.1,12.9c2.8,3.1,5.8,6,8.8,8.8c6.8,6.3,12.5,13.8,20.3,19.1c1.7,0,3.3,0,5,0c11.1-8.6,20.3-19.1,30-29.2
		C292.3,566.1,291.7,561.5,288.1,557.8z M267.7,565.7c-3.7,3.6-7.3,9.9-11.1,10c-3.6,0.1-7.3-6.4-11.1-9.8c-1.6-1.5-1-2.4,0.3-3.5
		c3.6-3.4,7.1-9.6,10.8-9.6c3.5-0.1,7.2,6.1,10.7,9.5c0.6,0.6,1.1,1.2,1.8,1.9C268.5,564.7,268.1,565.3,267.7,565.7z"/>
	<path class="st4" d="M496.6,223.2c-4.9-9.1-13-13.9-22.6-16.5c-3.7,0-7.3,0-11,0c-0.8,1.8-2.6,1.1-3.9,1.6
		c-17.3,6-26,24.8-19.2,41.6c6.7,16.7,25.9,24.3,42.2,16.8C498.6,259.1,505.2,239.1,496.6,223.2z M469.1,251.6
		c-7.5,0-13.5-6-13.4-13.7c0.1-7.4,6-13.3,13.3-13.3c7.6,0,13.5,6,13.5,13.6C482.3,245.6,476.4,251.6,469.1,251.6z"/>
</g>
</svg>
