<?xml version="1.0" encoding="utf-8"?>
<!-- Generator: Adobe Illustrator 19.0.0, SVG Export Plug-In . SVG Version: 6.00 Build 0)  -->
<svg version="1.1" id="Calque_1" xmlns="http://www.w3.org/2000/svg" xmlns:xlink="http://www.w3.org/1999/xlink" x="0px" y="0px"
	 viewBox="0 0 612 792" style="enable-background:new 0 0 612 792;" xml:space="preserve">
<style type="text/css">
	.st0{fill:#F38F8B;}
	.st1{fill:#1F3444;}
	.st2{fill:#CBE034;}
	.st3{fill:#BABE1D;}
	.st4{fill:#E1B600;}
	.st5{fill:#FAD402;}
	.st6{fill:#96BD15;}
	.st7{fill:#D4373D;}
	.st8{fill:#13283B;}
	.st9{fill:#F4A406;}
	.st10{fill:#E96159;}
	.st11{fill:#2E4356;}
</style>
<g>
	<path class="st0" d="M267,624.2c-11.8-5.4-23.5-10.8-35.4-16c-2.7-1.2-3.6-2.7-3.6-5.6c0.1-118.4,0.1-236.8,0.1-355.2
		c0-1.4-0.8-3.1,1.1-4c12.4,5.2,24.2,11.7,36.2,17.8c1.5,0.8,2.6,2.1,2.9,3.9c0.5,3,0.4,6,0.4,9c-0.1,28.1,0.2,56.2-0.2,84.3
		c0.2,3,0.2,6,0.2,9c0,82.5,0,164.9,0,247.4C268.7,617.9,269.6,621.4,267,624.2z"/>
	<path class="st1" d="M383.3,291.1c1.1,1.7,0.5,3.6,0.5,5.3c0,101.5,0,203,0.1,304.5c0,4.3-1.3,6.4-5.3,8.1
		c-11.3,4.7-22.4,10-33.6,15c-2.1-2.4-1.3-5.4-1.3-8.2c0-83,0-165.9,0-248.9c0-2.8,0.3-5.7-0.6-8.4c-1.1-14.4-0.5-28.8-0.3-43.2
		c0-1.3,0.4-2.6,0.9-3.8c0.8-2,2.4-3.1,4.2-4c10.4-5.2,20.8-10.4,31.2-15.6C380.4,291.1,381.8,290.4,383.3,291.1z"/>
	<path class="st2" d="M267,624.2c0-22.7,0.1-45.3,0.1-68c0-66,0-131.9,0-197.9c0.3-0.5,0.8-0.6,1.3-0.6c11.7,5.6,23,11.9,34.9,17.2
		c1.5,0.7,2.8,1.8,3.5,3.4c1,2.6,0.9,5.2,0.9,7.9c0,83.4,0,166.7,0,250.1c0,1.7-0.1,3.3-0.5,4.9c-0.6,0.2-1.3,0.8-1.7,0.6
		C292.7,636,279.5,630.9,267,624.2z"/>
	<path class="st3" d="M307.3,641.3c-2-1.7-1.1-4.1-1.1-6.1c0-83.7,0-167.5,0-251.2c0-2.3,0.4-4.7-1-6.8c0.7-1.2,1.9-1.8,3.1-2.4
		c9.9-4.8,19.6-9.9,29.5-14.7c6-2.9,6.9-2.3,6.9,4.1c0,85,0,170.1,0,255.1c0,1.6,0.4,3.3-0.4,4.9C332.1,630.5,319.7,636,307.3,641.3
		z"/>
	<path class="st4" d="M345.2,162.2c0.1,2,0.3,4,0.3,5.9c0,34.4,0.1,68.8,0.1,103.3c-1,1.7-2.8,2.3-4.4,3.1
		c-9.7,4.9-19.3,9.7-29,14.5c-1.9,0.9-3.7,2.3-6.1,1.4c-0.4-0.4-0.8-0.9-1-1.5c-1.2-8.8-0.4-17.6-0.5-26.4c-0.1-6.5-0.1-13,0.1-19.4
		c-0.1-20.1-0.6-40.3,0.2-60.4c0.6-2.5,2.6-3.7,4.7-4.8c10.2-5.1,20.4-10.2,30.6-15.3C341.7,162,343.3,160.9,345.2,162.2z"/>
	<path class="st5" d="M306.1,181.2c0,20.7-0.1,41.5-0.1,62.2c-0.4,0.3-0.9,0.4-1.4,0.4c-12-5-23.4-11.4-35-17.2
		c-0.9-0.4-1.6-1.1-1.7-2.3c0-18.8,0.1-37.5,0.1-56.3c0-2,0.2-4,0.3-5.9c1.7-1,3.2-0.1,4.7,0.6c10.1,5,20.1,10.1,30.1,15.1
		C304.4,178.5,306.3,178.9,306.1,181.2z"/>
	<path class="st6" d="M344.2,624.3c0-85.6,0-171.2,0-256.8c0-1.3-0.1-2.7,0-4c0.4-4.1-1-4.5-4.4-2.7c-9.6,5-19.3,9.7-29,14.5
		c-1.8,0.9-3.5,2-5.6,1.8c-12.4-6.2-25.2-11.6-37.1-18.9c0.3-1.5,1.5-2.1,2.7-2.7c11-5.5,21.9-11.1,32.9-16.5
		c0.8-0.4,1.6-0.6,2.4-0.6c4.9,1,9,3.9,13.5,6.1c6.5,3.2,13,6.4,19.5,9.7c1.9,1,3.9,1.8,5.1,3.7c1.5,1.9,0.8,4.2,0.8,6.3
		c0.1,86.6,0.1,173.2,0.1,259.7C344.8,624.2,344.5,624.3,344.2,624.3z"/>
	<path class="st7" d="M267.9,224.4c12.4,6.4,24.8,12.7,37.2,19.1c0.2,2.1-1.5,2.8-2.9,3.6c-10.4,5.4-20.9,10.5-31.4,15.7
		c-1.2,0.6-2.4,1.2-3.8,0.6c-11.1-5.6-22.3-11.3-33.4-16.9c-1.6-0.8-3.6-1.1-4.4-3C242.1,237,255,230.7,267.9,224.4z"/>
	<path class="st8" d="M307.1,290.4c12.8-6.3,25.6-12.7,38.5-19c11.1,5.6,22.2,11.2,33.2,16.9c1.6,0.8,3.5,1.1,4.5,2.8
		c-12.7,6.4-25.5,12.7-38.2,19.1c-2,0.8-3.6-0.4-5.1-1.2c-9.5-4.8-19.1-9.5-28.6-14.3C309.6,293.7,307,293.3,307.1,290.4z"/>
	<path class="st9" d="M306.1,181.2c-12.3-7-25-13.2-37.9-19c5.5-4.4,12.1-6.6,18.2-9.8c6.7-3.5,13.7-9.2,20.5-9.2
		c6.7,0,13.4,5.7,20,9.2c6.1,3.2,12.7,5.4,18.2,9.8c-11.8,4.7-22.7,11.2-34.2,16.6C309.4,179.5,307.8,180.4,306.1,181.2z"/>
	<path class="st10" d="M267,263.3c11.2-5.6,22.4-11.2,33.6-16.9c1.6-0.8,3.5-1.2,4.4-3c0.3-0.1,0.6-0.1,0.9,0
		c0.1,15.6,0.1,31.3,0.2,46.9c1,1.8,1.5,3.7,1.5,5.7c0,12.6,0.1,25.3,0,37.9c0,1.8,0,3.7-1.6,5.1c-12.7,6.4-25.4,12.8-38.1,19.2
		c0,0-0.4,0-0.4,0s-0.4,0.1-0.4,0.1C267.1,326.7,267.1,295,267,263.3z"/>
	<path class="st11" d="M306.1,339.1c0-16.2,0.1-32.5,0.1-48.7c0.3-0.1,0.6,0,0.9,0c2,2.7,5.3,3.4,8.1,4.8c9.9,5.1,19.9,10,29.9,15
		c-2.1,15.9-0.5,31.9-0.9,47.8C331.5,351.7,318.8,345.4,306.1,339.1z"/>
</g>
</svg>
