<?xml version="1.0" encoding="utf-8"?>
<!-- Generator: Adobe Illustrator 19.0.0, SVG Export Plug-In . SVG Version: 6.00 Build 0)  -->
<svg version="1.1" id="Calque_1" xmlns="http://www.w3.org/2000/svg" xmlns:xlink="http://www.w3.org/1999/xlink" x="0px" y="0px"
	 viewBox="0 0 612 792" style="enable-background:new 0 0 612 792;" xml:space="preserve">
<g>
	<path d="M393.4,535c-8.7-8.8-17.1-17.3-25-25.2c-12.4,5.9-24.4,12.6-37.1,17.3c-101.2,37.7-210.3-25.3-228.5-131.8
		c-16.1-93.9,47.5-182.5,141.9-197.4c90.2-14.2,176.5,44.4,195.6,133.6c9.3,43.5,2.1,84.7-20.4,123.1c-2,3.5-2.2,5.4,0.9,8.4
		c7.6,7.2,14.8,14.9,22.1,22.3c11.3-9.9,12.2-9.8,22.3,0.5c22,22.5,44,45.1,66,67.6c19.1,19.5,18.8,50.6-0.7,70.2
		c-19.6,19.6-50.3,19.8-70,0.1c-23.1-23.1-45.9-46.4-68.9-69.7c-6.8-6.9-6.7-10.2,0.1-17.2C392.3,536.2,392.9,535.6,393.4,535z
		 M425.2,367.3c-0.2-85.7-68.4-153.4-154.5-153.2C188,214.2,118.4,284,118.4,366.6c0,85.8,68.6,153.7,154.9,153.5
		C357.1,519.9,425.4,451.2,425.2,367.3z M408.4,545.2c1.1,1.3,1.8,2.2,2.6,3c20.1,20.7,40.1,41.4,60.3,61.9
		c13,13.3,33.6,13.7,46.2,1.2c13-12.9,12.8-32.4-0.4-46c-19.1-19.6-38.1-39.2-57.1-58.7c-2.2-2.2-4.3-4.4-6.5-6.7
		c0.3,0.5,0.6,1,0.9,1.6C439.1,516.1,423.8,530.6,408.4,545.2z M407.3,475.9c-8.3,7.3-16.5,14.5-23.3,20.5
		c7.6,8.5,14.9,16.7,21.5,24c8.1-8.1,15.7-15.7,23.1-23.1C421.3,489.9,413.5,482.1,407.3,475.9z"/>
	<path d="M271.8,499.7c-72.2,0.3-132.7-59.7-132.8-131.5c-0.2-74.6,58.6-134,132.9-134.3c72.9-0.3,132.7,58.9,133,131.6
		C405.1,439.9,346.1,499.4,271.8,499.7z M272,251.8c-63.1-0.3-114.7,50.4-115.1,113.3c-0.4,64.2,50.7,116.3,114.5,116.7
		c63.2,0.4,115.1-51,115.4-114.3C387.1,303.4,336.2,252.1,272,251.8z"/>
	<path d="M276.2,311.7c8.4,1.9,16.1,3.3,23.6,5.4c5.6,1.5,7.3,5.2,5.5,10.2c-1.9,5.2-4.2,5.9-10.2,4.1c-5.5-1.6-11.3-2.6-17.9-4.1
		c0,7.4,0,13.8,0,20.2c0,11.5,0,11.6,10.9,15.4c6.2,2.2,11.5,5.3,16.2,10.3c10.2,10.9,8.4,33.7-8.5,42.4c-4.9,2.5-10.6,3.9-16,5.2
		c-2.7,0.7-3.7,1.7-3.5,4.3c0.1,1.8,0.5,3.8-0.1,5.5c-0.7,1.9-2.4,5-3.5,5c-2.2-0.1-4.5-1.9-6.5-3.3c-0.6-0.4-0.5-1.9-0.6-2.8
		c-0.7-9.2-0.7-9-9.5-11.1c-6.6-1.6-13.2-3.3-19.6-5.7c-6.2-2.3-7.8-9.1-3.6-13.2c2.6-2.5,5.4-2.3,8.8-1.3c7.6,2.3,15.3,4,23.9,6.3
		c0-10.6,0.1-19.7-0.2-28.8c0-1-2.4-2.3-3.9-2.9c-7.4-2.8-14.9-4.9-21.5-10c-13.6-10.7-9-31.9,1.8-40.3c7.1-5.5,15.4-7.6,24.6-8.8
		c0-3.6,0-7.1,0-10.5c0-2.9,1.1-5,4.2-5.1c3.3-0.1,5.4,1.6,5.6,5C276.3,306.1,276.2,309.1,276.2,311.7z M267.9,329.4
		c-10.5,0.9-17.5,6.3-17.7,13.6c-0.2,7.2,6.3,12.5,17.7,14.2C267.9,347.9,267.9,338.7,267.9,329.4z M277.4,405.4
		c5.1-2.1,9.9-3.2,13.6-5.8c5.7-4.1,5.7-12.9,0.3-16.2c-4.1-2.5-8.9-4-13.8-6.1C277.4,386.8,277.4,395.3,277.4,405.4z"/>
</g>
</svg>
