<?xml version="1.0" encoding="utf-8"?>
<!-- Generator: Adobe Illustrator 19.0.0, SVG Export Plug-In . SVG Version: 6.00 Build 0)  -->
<svg version="1.1" id="Calque_1" xmlns="http://www.w3.org/2000/svg" xmlns:xlink="http://www.w3.org/1999/xlink" x="0px" y="0px"
	 viewBox="0 0 612 792" style="enable-background:new 0 0 612 792;" xml:space="preserve">
<style type="text/css">
	.st0{fill:#2E4356;}
	.st1{fill:#13283B;}
	.st2{fill:#E1C108;}
	.st3{fill:#F38F8B;}
	.st4{fill:#CBE034;}
	.st5{fill:#E96159;}
	.st6{fill:#3E5162;}
	.st7{fill:#314658;}
	.st8{fill:#2F4456;}
</style>
<g>
	<path class="st0" d="M361.4,493.8c3.8-25.3,7.7-50.6,11.5-76c5.5-36.9,10.9-73.7,16.4-110.6c5.6-37.8,11.3-75.7,17.8-113.6
		c15.4,102.7,30.7,205.4,46.1,308.1c1.6,1.2,1.9,3,2.2,4.9c4.3,28.8,8.6,57.5,12.9,86.3c0.4,2.5,1.6,5.2-0.8,7.5
		c-2.3,1.2-4.9,0.9-7.3,0.9c-35.4,0-70.8,0-106.1,0c-2.5,0-5,0.2-7.4-0.8c-2.7-2-1.7-4.8-1.4-7.3c4.3-29,8.6-58,13-87
		C358.9,502,358.4,497.4,361.4,493.8z"/>
	<path class="st1" d="M345.8,599.5c40.8,0,81.5,0,122.3,0.1c1.9-1.8,4.3-1.5,6.6-1.6c23.9,0,47.8,0,71.7,0c2.3,0,4.7-0.1,6.7,1.4
		c8.3,0.1,16.6,0.3,24.9,0.1c3.4-0.1,4.2,1,4,4.2c-0.3,7-0.2,13.9-0.3,20.9c-6.4,1.2-12.9,0.2-19.3,0.5c-2.5,0.1-4.9-0.2-7.2,1.3
		c-1.7,1.1-4.1,1.3-5.8,0.4c-6-2.9-12.4-1.6-18.6-1.7c-5.9-0.1-11.9-0.7-17.8,0.4l0,0c-3.4,2.2-6.8,2.1-10.2,0.1
		c-11.3-0.7-22.5-0.6-33.8,0c-3.4,2.1-6.8,2.1-10.1,0c-11.3-0.6-22.5-0.6-33.8,0c-3.4,2-6.8,2.1-10.1-0.1l0,0
		c-10.6-1.2-21.2-0.8-31.8-0.2c-4.1,0.2-8,3.1-12.2,0.2l0,0c-10.4-1.1-21-1.4-31.2,0c-5.7,0.8-10.7,0.1-16.1-0.3
		c-9.7-0.6-19.6-0.3-29.3-0.1c-3.4,2.4-7.1,2.7-10.7,0.6c-1.4-0.8-2.9-0.7-4.3-0.7c-9.6,0-19.3-0.1-28.9,0c-2.4,2-5.4,2.8-8,1.7
		c-6.4-2.8-13.1-1.5-19.6-1.6c-5.6-0.1-11.3-0.8-16.8,0.4l0,0c-3.4,2.2-6.8,2.1-10.2,0.1c-11.3-0.7-22.5-0.6-33.8,0
		c-3.4,2.1-6.8,2.1-10.1,0c-14.3-0.1-28.6-0.4-42.9-0.3c-4.1,0-5.4-0.9-5.3-5.1c0.3-11.5,0.1-23,0.1-34.4c-2.1-3.8-2.1-7.6,0-11.4
		c0-10.9,0-21.7,0-32.6c-2.1-3.8-2.1-7.6,0-11.4c0-10.9,0-21.8,0-32.6c-2.2-3.8-1.9-7.6,0.1-11.3c0-10.9-0.1-21.7-0.1-32.6
		c-2-3.5-2-7.1,0-10.6c0-11.1,0-22.2,0-33.3c-1.9-3.6-2-7.1,0.1-10.7c0-10.9,0.1-21.8,0.1-32.6c-1.9-3.8-2.3-7.5-0.1-11.3
		c0-10.9,0-21.7,0-32.6c-2.1-3.8-2.1-7.6,0-11.4c0-10.9,0-21.7,0-32.6c-2.1-3.8-2.1-7.6,0-11.4c0-10.9,0-21.7,0-32.6
		c-2.1-3.8-2.1-7.6,0-11.4c0-10.9,0-21.8,0-32.6c-2.2-3.8-1.9-7.6,0.1-11.3c0-9.7,0-19.3-0.1-29c-0.1-2.8,0.8-3.8,3.6-3.7
		c6.2,0.2,12.3,0.2,18.5,0c2.6-0.1,3.7,0.8,3.4,3.4c-0.1,1.2,0,2.3,0,3.5c0,146.5,0,293.1-0.1,439.6c0,4.9,0.9,7,6.2,6.2
		c3.1-0.5,6.3-0.2,9.5-0.2c1.6-1.1,3.4-1.4,5.2-1.4c37.6,0,75.2-0.2,112.8,0.1c17.7-0.3,35.3-0.2,53,0c8.1-0.2,16.2-0.1,24.3-0.1
		C342.1,598.1,344.2,598,345.8,599.5z"/>
	<path class="st2" d="M262.9,599.5c-28.9,0.1-57.8,0.2-86.7,0.2c-10.5,0-20.9-0.1-31.4-0.2c2-11,4.1-22,6.1-33
		c2.4-12.7,4.7-25.5,7.1-38.2c3.2-16.7,6.5-33.4,9.6-50.1c3.9-20.5,7.5-41.1,11.4-61.6c3.4-18,7-36,10.4-54.1
		c2.6-13.7,4.6-27.5,7.7-41c2.3-10,3-20.4,6.8-30.2c2,10.5,4.1,21.1,6.1,31.6c4.2,21.8,8.4,43.6,12.5,65.4
		c3.6,18.9,6.8,37.9,10.4,56.9c3.4,18,7,35.9,10.5,53.8c3.2,16.8,6.3,33.7,9.5,50.5c0.4,2.1,0.8,4.2,1.2,6.3c1.8,1,2.2,2.9,2.6,4.6
		c2.3,11.4,4.5,22.9,6.6,34.4C263.7,596.3,264.2,598,262.9,599.5z"/>
	<path class="st3" d="M553.1,599.4c-28.3,0.1-56.7,0.1-85,0.2c-2-12.4-4.1-24.9-5.9-37.3c-3-20.2-5.9-40.4-8.9-60.5
		c2.9-14.3,5.9-28.6,8.6-42.9c4.9-25.4,9.5-50.9,14.3-76.4c5.6-29.4,11.2-58.7,16.8-88.1c0.2-1.3,0.2-2.7,1.6-4
		c3.1,16.2,6.3,32.2,9.3,48.2c4.5,23.8,8.9,47.7,13.4,71.5c7.9,41.8,15.8,83.5,23.7,125.3C545.1,556.7,549.1,578,553.1,599.4z"/>
	<path class="st4" d="M345.8,599.5c-10,0-20.1-0.1-30.1-0.1c-2.1-1.3-2.4-3.5-2.8-5.6c-3.4-16.6-6.7-33.2-9.9-49.8
		c-0.5-2.3-1.6-4.8,0.2-7.2c3.7-14.3,5.9-28.9,8.7-43.4c6.7-34.2,13.1-68.5,19.6-102.8c1.5-8.1,3.1-16.3,5.4-24.4
		c8.2,42.6,16.4,85.1,24.6,127.7C356.2,529.1,351,564.3,345.8,599.5z"/>
	<path class="st5" d="M303.2,536.8c4.2,20.9,8.3,41.7,12.5,62.6c-17.6,0-35.2,0-52.8,0c-2.9-14.6-5.8-29.2-8.7-43.8
		c3.7-7.4,4-15.6,5.6-23.5c6.6-32.5,12.9-65.1,19.4-97.7c0.3-1.5,0.8-3,2.4-4.6C288.8,465.5,296,501.2,303.2,536.8z"/>
	<path class="st6" d="M294,624.7c7.6,0,15.3-0.5,22.9,0c16.4,1.2,32.7-0.7,49-0.1c1.7,0.1,3.7-0.8,5.1,1c-10,0-19.9,0-29.9-0.2
		c-2.5,0-3.6,0.6-3.4,3.3c0.2,4-0.2,8,0.1,11.9c0.4,4.9-3,3.7-5.6,3.7c-2.5,0-5.5,1-5.2-3.6c0.3-4-0.1-8,0.1-11.9
		c0.1-2.4-0.4-3.6-3.2-3.5c-10,0.2-19.9,0.2-29.9,0.2c-0.3-0.2-0.4-0.4-0.3-0.7C293.8,624.8,293.9,624.7,294,624.7z"/>
	<path class="st0" d="M513,625.7c0.5-0.4,1.1-1,1.6-1c11.3,0.4,22.6-1.3,33.8,0.9c4.1,0.8,7.9-1,11.8-1c7.2,0,14.3,0,21.5,0
		c-6.6,1.9-13.4,0.7-20.1,0.7c-4.1,0-5.2,1.3-4.8,5c0.3,2.6,0.1,5.3,0.1,8c0,5.6-3.8,8.1-9.1,6.1c-1.8-0.7-1.4-2.1-1.4-3.3
		c-0.1-4.2-0.1-8.3,0-12.5c0.1-2.3-0.6-3.3-3.1-3.2C533.3,625.6,523.1,625.6,513,625.7z"/>
	<path class="st0" d="M206,625.7c0.5-0.4,1.1-1,1.6-1c11.2,0.3,22.5-1.1,33.7,0.8c2.9,0.5,6,0.8,8.7-0.8c0.4,0.2,0.5,0.5,0.4,0.7
		c-0.1,0.2-0.2,0.4-0.3,0.4c0,5.2-0.3,10.3,0,15.5c0.2,4.4-2.8,3.3-5,3.2c-2.3-0.1-5.7,1.6-5.6-3.2c0.2-4.2-0.1-8.3,0.1-12.5
		c0.1-2.2-0.5-3.3-3-3.3C226.3,625.6,216.2,625.6,206,625.7z"/>
	<path class="st6" d="M250,625.7c0-0.3,0-0.7,0-1c10.1,0,20.3-0.2,30.4,0c4.5,0.1,9,2.5,13.6,0c0,0.3,0,0.7,0,1c0,4.7-0.4,9.4,0,14
		c0.4,4.7-1.8,4.9-5.5,5c-4.1,0.1-5.8-0.9-5.3-5.2c0.4-3.5-0.1-7,0.1-10.5c0.1-2.5-0.6-3.5-3.3-3.5C270,625.6,260,625.6,250,625.7z"
		/>
	<path class="st7" d="M103.9,223.5c0,3.8,0,7.6,0,11.4c-6.1-0.1-12.3-0.5-18.3-0.2c-4.7,0.2-3.6-2.7-3.5-5.1
		c0.1-2.5-1.4-5.7,3.6-5.6C91.7,224.2,97.9,224.8,103.9,223.5z"/>
	<path class="st7" d="M103.9,267.5c0,3.8,0,7.6,0,11.4c-6.1-0.9-12.2-0.5-18.3-0.3c-5.1,0.2-3.4-3.2-3.5-5.6
		c-0.1-2.4-1.1-5.4,3.5-5.1C91.7,268,97.8,267.6,103.9,267.5z"/>
	<path class="st7" d="M103.9,311.5c0,3.8,0,7.6,0,11.4c-6.1-1.1-12.2-0.6-18.3-0.4c-5.1,0.2-3.5-3.2-3.6-5.6
		c-0.1-2.4-1.1-5.4,3.5-5.1C91.6,312,97.8,311.6,103.9,311.5z"/>
	<path class="st7" d="M103.9,530.5c0,3.8,0,7.6,0,11.4c-6.1-0.1-12.3-0.5-18.3-0.2c-4.7,0.2-3.6-2.7-3.5-5.1
		c0.1-2.5-1.4-5.7,3.6-5.6C91.7,531.2,97.9,531.8,103.9,530.5z"/>
	<path class="st7" d="M103.9,574.5c0,3.8,0,7.6,0,11.4c-6.1-0.9-12.2-0.5-18.3-0.3c-5.1,0.2-3.4-3.2-3.5-5.6
		c-0.1-2.4-1.1-5.4,3.5-5.1C91.7,575,97.8,574.6,103.9,574.5z"/>
	<path class="st0" d="M371.1,625.6c12.9-1.4,25.9-1.1,38.9-1c1.7,0,3.7-0.8,5,1.1c-10.1-0.1-20.2-0.1-30.3-0.3
		c-2.8-0.1-3.3,1.3-3.2,3.6c0.1,4-0.2,8,0.1,11.9c0.3,5.1-3.4,3.3-5.8,3.5c-2.3,0.2-5.1,0.9-4.8-3.3
		C371.3,635.9,371.1,630.8,371.1,625.6z"/>
	<path class="st0" d="M104,179.6c0,3.8,0,7.5-0.1,11.3c-6-0.1-11.9-0.5-17.9-0.1c-5.1,0.4-3.8-2.9-4.1-5.6c-0.3-3.2,0-5.1,4.3-5
		C92.1,180.3,98.1,181.3,104,179.6z"/>
	<path class="st0" d="M103.9,355.4c0,3.8,0,7.5,0.1,11.3c-5.7-1.7-11.5-0.8-17.2-0.6c-4.6,0.2-4.9-1.8-4.9-5.5
		c0.1-3.4,0.2-5.4,4.6-5.1C92.3,356,98.1,355.5,103.9,355.4z"/>
	<path class="st0" d="M104,486.6c0,3.8,0,7.5-0.1,11.3c-6-0.1-11.9-0.5-17.9-0.1c-5.1,0.4-3.8-2.9-4.1-5.6c-0.3-3.2,0-5.1,4.3-5
		C92.1,487.3,98.1,488.3,104,486.6z"/>
	<path class="st0" d="M103.9,399.4c0,3.6,0,7.1-0.1,10.7c-6.1-0.1-12.3-0.4-18.4-0.1c-5.2,0.2-3.1-3.5-3.3-5.7
		c-0.3-2.3-0.9-4.9,3.4-4.7C91.6,399.8,97.7,399.5,103.9,399.4z"/>
	<path class="st0" d="M103.8,443.3c0,3.5,0,7.1,0,10.6c-6.1-0.1-12.3-0.4-18.4-0.1c-4.7,0.2-3.4-2.9-3.4-5.2c0-2.3-1.3-5.4,3.4-5.2
		C91.6,443.7,97.7,443.4,103.8,443.3z"/>
	<path class="st8" d="M151.9,625.7c3.4,0,6.8,0,10.1,0c0,5.1-0.2,10.3,0.1,15.4c0.2,4.8-3.2,3.1-5.4,3.3c-2.3,0.1-5.2,1.1-4.9-3.3
		C152.1,636,151.9,630.8,151.9,625.7z"/>
	<path class="st8" d="M195.9,625.7c3.4,0,6.8,0,10.2-0.1c0,5.1-0.2,10.3,0.1,15.4c0.3,4.3-2.6,3.4-4.9,3.3c-2.2-0.1-5.7,1.6-5.5-3.2
		C196,636,195.8,630.9,195.9,625.7z"/>
	<path class="st8" d="M415,625.7c3.4,0,6.8,0,10.1,0.1c0,5-0.2,10,0.2,14.9c0.4,4.9-2.9,3.6-5.5,3.8c-2.8,0.2-5.3,0.4-4.9-3.8
		C415.2,635.6,415,630.6,415,625.7z"/>
	<path class="st8" d="M458.9,625.7c3.4,0,6.8,0,10.1,0c0,5.1-0.2,10.3,0.1,15.4c0.2,4.8-3.2,3.1-5.4,3.3c-2.3,0.1-5.2,1.1-4.9-3.3
		C459.1,636,458.9,630.8,458.9,625.7z"/>
	<path class="st8" d="M502.9,625.7c3.4,0,6.8,0,10.2-0.1c0,5.1-0.2,10.3,0.1,15.4c0.3,4.3-2.6,3.4-4.9,3.3c-2.2-0.1-5.7,1.6-5.5-3.2
		C503,636,502.8,630.9,502.9,625.7z"/>
</g>
</svg>
