<?xml version="1.0" encoding="utf-8"?>
<!-- Generator: Adobe Illustrator 19.0.0, SVG Export Plug-In . SVG Version: 6.00 Build 0)  -->
<svg version="1.1" id="Calque_1" xmlns="http://www.w3.org/2000/svg" xmlns:xlink="http://www.w3.org/1999/xlink" x="0px" y="0px"
	 viewBox="0 0 612 792" style="enable-background:new 0 0 612 792;" xml:space="preserve">
<style type="text/css">
	.st0{fill:#E6EAEB;}
	.st1{fill:#008181;}
</style>
<g>
	<path class="st0" d="M450.8,598.2c-2.4,3.6-6.5,5.1-10,7.1c-26.9,15.8-55.9,26.1-86.7,31c-16.4,2.6-33,4-49.6,3.1
		c-30.5-1.7-60-7.9-88.2-20c-22.5-9.6-43.2-22.1-61.8-37.8c-24.5-20.6-44.6-44.9-59.9-73.2c-12-22.3-20.4-45.7-25.5-70.4
		c-4.4-21.4-5.6-43.2-4.2-64.9c2.3-34.8,11.3-68,27.6-98.9c8.7-16.7,19.2-32.2,31.5-46.5c18.4-21.5,39.7-39.6,64.1-54
		c23.7-14,48.9-23.7,75.9-29.1c16.8-3.4,33.7-5.4,50.8-5c1.7,1.9,1.5,4.3,1.5,6.6c0,9.6,0.2,19.3-0.1,28.9c-0.1,4.5,0.8,7.8,5.4,9.2
		c-0.2,3.4-2.9,2.4-4.7,2.4c-27.9-0.9-54.7,4.3-80.3,15.1c-42.8,18.2-75.9,47.5-99,88c-14.1,24.8-22.6,51.5-25.2,79.9
		c-3.6,39,3.2,76.2,21,111.3c9.7,19.1,21.8,36.3,36.9,51.3c28.4,28.3,62.1,47.4,101.6,55.6c40.5,8.4,80.2,5.3,118.7-10.1
		c10.5-4.2,20.7-9.2,30.3-15.3c1.7-1.1,3.2-2.4,5.4-2.5c1.9,0.3,2.7,1.9,3.6,3.2c6.7,10.1,13.7,20,19.9,30.4
		C450.4,595.1,451.7,596.4,450.8,598.2z"/>
	<path class="st1" d="M450.8,598.2c-7.1-11-14.1-22-21.2-33c-1-1.5-1.9-3.1-2.8-4.6c0.6-2.6,2.9-3.5,4.8-4.8
		c39.9-28.9,67.5-66.7,79.4-114.6c16.3-65.5,3.6-125.4-38-178.9c-18.4-23.7-41.6-41.7-68.2-55.1c-24.5-12.2-50.6-19.4-78.2-20.4
		c-1.6-0.1-3.4,0.1-4.6-1.4c-7.4-1.3-7.4-1.3-7.4-9.2c0-12.2,0.1-24.4,0.1-36.7c93,2,164.5,42.6,213.7,121.1
		c29,46.3,40.4,97.7,34.9,152c-7.9,77.4-44.4,138.7-108.2,183.5C453.8,597.1,452.7,598.5,450.8,598.2z"/>
	<path d="M368.6,426.5c-2.6-1.4-5.3-2.4-7.5-4.1c-1.6-1.2,0.4-2.6,1.1-3.7c9.6-15.6,19.3-31.1,29-46.6c3.1-4.9,6.5-9.7,9.2-14.9
		c2-3.7,3.7-3.7,7.2-2c4,2,4.8,3.3,2.2,7.4c-12.8,20-25.3,40.3-37.9,60.4C370.9,424.5,370.7,426.4,368.6,426.5z"/>
	<path d="M335.7,389.3c0-6.2,0.5-12.4-0.1-18.5c-1.4-15.7-13.2-26.2-29-26.6c-16.5-0.4-28.8,9.1-30.9,25c-1.8,13.6-1.8,27.3,0,40.8
		c1.9,14.3,13.1,24,27.2,24.6c16.6,0.7,28-7.2,31.9-21.9C336.8,405,335.9,397.1,335.7,389.3z M315.8,389.7c0,0-0.1,0-0.1,0
		c0,5.3,0,10.6,0,16c0,3-0.7,6-2.2,8.6c-3.6,6.4-12.1,6.4-15.8,0.1c-1.9-3.3-2.3-6.9-2.3-10.6c-0.1-9.5-0.1-18.9,0-28.4
		c0-3.3,0.3-6.6,1.8-9.7c1.6-3.4,4.3-5.6,8.1-5.6c4-0.1,6.9,1.9,8.6,5.6c1.3,2.8,1.9,5.7,1.9,8.7
		C315.8,379.4,315.8,384.5,315.8,389.7z"/>
	<path d="M266.5,407.5c-0.1-1.2-0.1-2.3,0-3.5c0.5-3.7-0.6-5.8-4.8-5c-3.7,0.7-4.3-1.1-4.2-4.4c0.2-7.5,0.1-15,0.1-22.5
		c0-7.7-0.1-15.3,0.1-23c0.1-2.7-0.6-3.9-3.5-3.7c-4.5,0.2-9,0.3-13.5,0c-2.8-0.2-4.1,1-5.5,3.2c-9.7,15.3-19.3,30.7-29.4,45.7
		c-3.6,5.4-5.5,10.5-4.3,17.1c0.6,3.1,1.6,3.8,4.3,3.7c5.5-0.2,11-0.2,16.5,0c4.7,0.2,11.1-2.2,13.8,1c2.3,2.7,0.7,8.9,0.8,13.5
		c0,0.3,0,0.7,0,1c-0.4,2.6,0.9,3.1,3.2,3c4.8-0.1,9.7-0.2,14.5,0c2.4,0.1,3.2-0.7,3.1-3.1c-0.2-4.2,0-8.3-0.1-12.5
		c0-1.8,0.1-3.6,2.6-3.1C266.9,416.4,266.8,412.2,266.5,407.5z M234.5,399.2c-5.1,0-10.2,0-16.2,0c3.4-5,6.4-9.3,9.4-13.5
		c2.9-4.1,5.8-8.3,9.2-13.1c0,8.7,0,16.5,0,24.4C237,398.7,236.2,399.3,234.5,399.2z"/>
	<path d="M366.7,344.2c-12.9-0.1-19.8,7-19.9,20.2c0,13.6,6.9,20.8,19.8,20.8c12.7,0,19.6-7.2,19.6-20.5
		C386.3,351.4,379.6,344.3,366.7,344.2z M370.2,373.1c-2.8,1.7-5.8,1.6-8.2-0.8c-2.8-2.7-2.9-12-0.2-15.1c2.3-2.6,5.3-2.7,8.2-1.1
		c3.2,1.8,3.1,5.2,3,8.4C373,367.7,373.3,371.1,370.2,373.1z"/>
	<path d="M408.6,393.8c-12.7-0.1-19.8,7.3-19.8,20.3c0,13.7,6.7,20.6,19.9,20.6c12.9,0,19.5-6.9,19.5-20.4
		C428.2,401,421.4,393.9,408.6,393.8z M406.5,423.4c-3.6-1.4-4.5-4.6-4.5-8.1c0.1-3.8-0.4-7.9,4.1-9.9c3.7-1.7,7.6,0.2,8.6,4.2
		c0.4,1.8,0.3,3.6,0.4,4.1C414.9,422.4,411.9,425.5,406.5,423.4z"/>
</g>
</svg>
