<?xml version="1.0" encoding="utf-8"?>
<!-- Generator: Adobe Illustrator 19.0.0, SVG Export Plug-In . SVG Version: 6.00 Build 0)  -->
<svg version="1.1" id="Calque_1" xmlns="http://www.w3.org/2000/svg" xmlns:xlink="http://www.w3.org/1999/xlink" x="0px" y="0px"
	 viewBox="0 0 612 792" style="enable-background:new 0 0 612 792;" xml:space="preserve">
<style type="text/css">
	.st0{fill:#EB6958;}
	.st1{fill:#37987A;}
	.st2{fill:#F57737;}
	.st3{fill:#FAAF40;}
	.st4{fill:#232323;}
	.st5{fill:#252525;}
	.st6{fill:#262626;}
	.st7{fill:#242424;}
</style>
<g>
	<path class="st0" d="M507.8,373.8c0,62-0.1,124,0.1,186c0,4.4-1,5.6-5.5,5.5c-24.3-0.2-48.7-0.2-73,0c-3.8,0-4.7-1.1-4.7-4.8
		c0.1-97.8,0.1-195.7,0.1-293.5c0-14.2-0.2-28.3,0.1-42.5c0.1-4.3-0.9-5.7-5.5-5.6c-12.3,0.3-24.7,0-37,0.2c-3.4,0-4.7-0.7-4.6-4.4
		c0.3-9.7,0.3-19.3,0-29c-0.1-3.6,1.1-4.4,4.5-4.4c40.3,0.1,80.7,0.1,121,0c3.5,0,4.5,1,4.5,4.5c-0.1,40.8-0.1,81.7-0.1,122.5
		C507.8,330.2,507.8,352,507.8,373.8C507.8,373.8,507.8,373.8,507.8,373.8z"/>
	<path class="st1" d="M225.9,448.5c0,37.2-0.1,74.3,0.1,111.5c0,4-0.8,5.3-5.1,5.3c-39.8-0.2-79.6-0.2-119.5,0
		c-4.6,0-5.4-1.5-5.4-5.6c0.1-74.1,0.1-148.3,0-222.4c0-4.7,1.1-6.1,6-6.1c39.8,0.2,79.6,0.2,119.5,0c4,0,4.5,1.3,4.5,4.8
		C225.9,373.5,225.9,411,225.9,448.5z"/>
	<path class="st2" d="M413.8,398c0,54,0,108,0.1,162c0,4.1-1,5.4-5.2,5.3c-24.3-0.2-48.7-0.2-73,0c-4,0-4.9-1.1-4.9-5
		c0.1-94.5,0.1-189,0.1-283.5c0-6.5,0-6.5-6.7-6.5c-12,0-24-0.1-36,0c-3.2,0-4.3-0.7-4.2-4.1c0.2-10.7,0.2-21.3,0-32
		c-0.1-3.6,1.2-4.4,4.5-4.4c40,0.1,80,0.1,120,0c4.5,0,5.5,1.4,5.4,5.6C413.8,289.7,413.8,343.9,413.8,398
		C413.8,398,413.8,398,413.8,398z"/>
	<path class="st3" d="M319.9,423.3c0,45.5-0.1,91,0.1,136.5c0,4.4-1,5.6-5.5,5.5c-24.2-0.2-48.3-0.2-72.5,0c-4.3,0-5.2-1.3-5.2-5.3
		c0.1-77.6,0.1-155.3,0.1-232.9c0-7.9,0.9-6.6-6.5-6.7c-12-0.1-24-0.1-36,0.1c-3.6,0.1-4.5-1.1-4.4-4.5c0.2-10.2,0.2-20.3,0-30.5
		c-0.1-3.3,1-4.2,4.2-4.2c40.3,0.1,80.6,0.1,121,0c4.2,0,4.8,1.6,4.8,5.2C319.9,332,319.9,377.7,319.9,423.3z"/>
	<path class="st4" d="M301.5,573.2c74.7,0,149.3,0.1,224-0.1c4.8,0,5.6,1.4,5.6,5.8c-0.3,13-0.3,26,0,39c0.1,3.9-1.1,4.6-4.7,4.6
		c-149.7-0.1-299.3-0.1-449,0c-4.2,0-5.2-1.1-5.1-5.2c0.3-13,0.3-26,0-39c-0.1-4.3,1.3-5.1,5.3-5.1
		C152.2,573.2,226.8,573.2,301.5,573.2z"/>
	<path class="st5" d="M370.2,146.8c0,6.8-0.2,13.7,0.1,20.5c0.1,3.5-1.2,4-4.3,4.1c-3.1,0-3.9-0.9-3.9-4c0.2-10.6-0.2-21.3,0.2-31.9
		c0.1-4.2-1.1-5.5-5.2-5.1c-1.9,0.2-5.3,1.7-5.1-2.9c0.1-2.5,0.7-3.7,3.2-3.7c2.2,0,4.3-0.3,6.5-0.4c8.6-0.7,8.5-0.7,8.5,8.1
		C370.2,136.5,370.2,141.6,370.2,146.8z"/>
	<path class="st6" d="M499.3,130.1c-0.7,1.2-1.1,2-1.6,2.9c-6.6,10.6-13.2,21.1-19.8,31.7c-1,1.6-1.7,3.2-4.1,1.6
		c-2.4-1.5-0.9-2.6-0.1-3.9c6.7-10.7,13.4-21.4,20.1-32.1c0.6-1,0.8-2.9,2.7-2C497.5,128.7,498.4,129.5,499.3,130.1z"/>
	<path class="st6" d="M170.1,283.3c-0.4,0.8-0.9,1.6-1.4,2.5c-6.6,10.5-13.2,21.1-19.8,31.6c-0.9,1.4-1.3,3.5-4,1.9
		c-2.7-1.6-1.1-2.8-0.2-4.3c6.7-10.7,13.3-21.4,20-32c0.6-0.9,0.7-2.9,2.7-1.9C168.5,281.5,169.7,281.9,170.1,283.3z"/>
	<path class="st6" d="M260.1,228.7c-0.4,0.7-0.8,1.6-1.3,2.4c-6.6,10.6-13.2,21.1-19.8,31.7c-1,1.6-1.6,3.2-4.1,1.6
		c-2.3-1.5-1-2.6-0.2-3.9c6.7-10.7,13.4-21.4,20.1-32.1c0.7-1.2,1.2-3.1,3.3-1.9C258.9,227,260.1,227.1,260.1,228.7z"/>
	<path class="st6" d="M357,174.9c-0.6,1-1.1,1.7-1.5,2.4c-6.5,10.4-13,20.9-19.6,31.3c-0.9,1.5-1.4,4-4.4,2.1
		c-2.9-1.8-0.6-3.1,0.2-4.3c6.5-10.6,13.1-21.2,19.8-31.7c0.7-1,0.9-3.3,3.2-1.8C355.6,173.5,356.8,173.9,357,174.9z"/>
	<path class="st7" d="M269.5,190.6c7.3-6.5,8.4-14.3,2.9-19.8c-5.4-5.4-17.4-5.3-22.9,0.2c-5.5,5.5-4.3,12.9,3.2,19.7
		c-7.2,4.7-9.4,9.4-7.4,16c1.7,5.6,7.6,9.4,14.9,9.6c8.1,0.2,14.1-3.2,16.2-9.1C278.8,200.7,276.7,195.8,269.5,190.6z M261.2,173.4
		c3.9,0,6.7,3,6.6,7.1c-0.1,4.3-2.8,7.1-6.7,7c-3.9-0.1-6.7-3-6.7-7.1C254.4,176.2,257.2,173.4,261.2,173.4z M261.1,209.9
		c-4.8-0.1-8.2-3.6-8.1-8.2c0.1-4.7,3.6-7.9,8.5-7.8c4.7,0.1,7.9,3.5,7.7,8.5C269,206.9,265.7,210.1,261.1,209.9z"/>
	<path class="st7" d="M217.9,232.4c-1.3-7.3-7.2-11.8-14.6-12c-7.7-0.2-13.3,4-15.5,11.5c-1.3,4.3-0.6,8.6-0.9,12.9
		c0.3,4.6-0.5,9.3,0.9,13.9c2.2,7.2,7.7,11.4,15.1,11.3c7.2-0.1,13.5-4.7,14.8-11.8C219.3,249.6,219.4,240.9,217.9,232.4z
		 M210,256.7c-0.5,3.8-2.6,6.4-6.8,6.6c-4.2,0.2-6.8-2-7.4-5.9c-1.3-8.2-1.3-16.5,0-24.8c0.6-4,3.5-5.9,7.6-5.6
		c3.9,0.3,6.1,2.6,6.6,6.3c0.5,4.1,0.5,8.3,0.7,12.4C210.5,249.4,210.5,253.1,210,256.7z"/>
	<path class="st7" d="M128.1,289.4c-1-8.9-6.9-14.2-15.6-14.1c-8.5,0-14.8,5.6-15.4,14.4c-0.5,6.8-0.5,13.6,0,20.4
		c0.6,8.8,6.9,14.4,15.4,14.4c8.7,0,14.6-5.3,15.6-14.2c0.4-3.6,0.4-7.3,0.6-10.3C128.5,296,128.5,292.6,128.1,289.4z M120.1,310.5
		c-0.3,4.3-2.5,7.4-7,7.6c-4.6,0.2-7.4-2.7-7.7-6.9c-0.5-7.4-0.5-15,0-22.4c0.2-4.1,2.8-7.1,7.5-7.1c4.1,0,6.8,2.9,7.3,7.9
		c0.1,0.5,0.1,1,0.1,1.5c0,3,0,6,0,9c-0.1,0-0.1,0-0.2,0C120.1,303.5,120.3,307,120.1,310.5z"/>
	<path class="st7" d="M418.9,137.2c-0.7-8.4-6.4-14.3-14.1-14.9c-8.3-0.6-15.2,4-16.6,11.8c-1.5,8.6-1.5,17.3,0,25.8
		c1.3,7.2,7.3,11.7,14.7,11.8c7.5,0.1,13.2-4.1,15.2-11.2c1.3-4.6,0.9-9.2,0.9-13.9C418.9,143.6,419.1,140.4,418.9,137.2z
		 M410.2,159.6c-1.1,3.6-3.3,5.8-7.2,5.7c-4.1-0.1-6.6-2.5-7.1-6.4c-1-7.9-1-15.9,0-23.9c0.5-3.7,2.8-6,6.7-6.1
		c3.8-0.1,6.2,1.7,7.4,5.4c1.3,4.3,0.3,8.6,0.8,12.9C410.6,151.3,411.5,155.5,410.2,159.6z"/>
	<path class="st7" d="M315,191.5c0-3.5,0.3-7-0.1-10.5c-0.7-8.4-6.9-14-15.2-14.2c-8.4-0.2-14.9,5.2-15.7,13.5
		c-0.8,7.4-0.7,15,0,22.4c0.8,7.6,6.6,12.9,13.8,13.5c8.1,0.6,14.2-3.6,16.5-11.4C315.6,200.5,315,196,315,191.5z M306.9,202.1
		c-0.4,5-3.3,7.7-7.5,7.7c-4.2,0-7.2-2.8-7.4-7.8c-0.3-7-0.3-14,0-20.9c0.2-5,3.2-7.7,7.4-7.7c4.2,0,7.1,2.9,7.4,7.8
		c0.3,3.5,0.1,7,0.1,10.5c0,0,0,0,0,0C307,195.1,307.2,198.6,306.9,202.1z"/>
	<path class="st7" d="M457.1,147.3c0-3.5,0.2-7-0.1-10.5c-0.8-8.8-6.8-14.5-15.3-14.5c-8.5-0.1-15,5.5-15.6,14.2
		c-0.5,6.9-0.5,14,0,20.9c0.6,8.8,7,14.3,15.6,14.3c8.5,0,14.6-5.7,15.4-14.5C457.4,154,457.1,150.7,457.1,147.3z M449,158.3
		c-0.4,4-2.6,6.9-7,7c-4.4,0.2-7-2.5-7.5-6.5c-1-7.8-0.9-15.6,0-23.4c0.4-4,3-6.7,7.5-6.5c4.6,0.2,6.9,3.1,7.2,7.4
		c0.3,3.8,0.1,7.6,0.1,11.5c0,0,0,0-0.1,0C449.1,151.3,449.3,154.8,449,158.3z"/>
	<path class="st7" d="M179.9,248.1c-1.9-7.1-7.5-10.7-15.2-9.8c-2.7,0.3-4.9,1.8-7.7,3c-0.4-11.6,4.4-15.9,15.2-13.7
		c1.9,0.4,3.3,0.8,3.6-1.6c0.2-1.6,1.7-3.3-1-4.5c-8.1-3.5-19.9-0.2-23.4,7.9c-4.6,10.6-4.4,21.8-0.1,32.4c3,7.4,12.5,10,20.1,6.9
		C178.8,265.6,182.3,257.2,179.9,248.1z M165.5,263.4c-5.2,0.2-8.5-4.3-8.6-11.7c-0.1-4.8,2.2-7.1,7.3-7.3c5-0.2,8.3,3.2,8.5,8.9
		C173,259,169.9,263.2,165.5,263.4z"/>
	<path class="st7" d="M89.8,306.7c-5.3,0.7-4.5-2.7-4.5-5.9c0-3.2,0-6.3,0-9.5c0-3.7,0.1-7.3-0.1-11c-0.1-1.6,1.3-4.2-1.6-4.4
		c-2.5-0.2-5.6-1.6-7.4,1.3c-6.4,10.1-12.7,20.2-18.8,30.6c-2,3.4-0.4,5.4,3.7,5.5c3.3,0,6.7,0.3,10-0.1c4.9-0.6,7,0.9,6.2,6.1
		c-0.4,2.4-0.6,4.9,3.5,4.9c3.3-0.1,4.9-0.7,4.5-4.4c-0.3-3.2-1.4-7.4,4.6-6.6c2,0.3,1.4-1.9,1.4-3C91.5,308.8,92,306.4,89.8,306.7z
		 M74.8,306.7c-2.9,0-5.9,0-9.7,0c4.1-6.4,7.7-12,11.3-17.6c0.3,0,0.7,0.1,1,0.1c0,5.2,0,10.3,0,15.5
		C77.4,306.5,76.2,306.7,74.8,306.7z"/>
	<path class="st6" d="M168.2,302.2c-6.5,0.1-10.1,4.3-10,11.5c0.1,6.8,3.8,10.7,10.3,10.7c6.6,0,10.3-4.1,10.2-11.3
		C178.6,306,174.9,302.1,168.2,302.2z M168.3,319.5c-4.1-0.2-4.4-3.3-4.4-6.6c0-3,0.7-5.8,4.5-5.8c4.1,0,4.6,3,4.6,6.2
		C173,316.7,172.5,319.7,168.3,319.5z"/>
	<path class="st5" d="M332,166.7c-6.2,0.1-10,4.2-10,11.1c0,7.4,3.5,11.4,10,11.5c6.6,0.1,10.2-3.9,10.2-11.3
		C342.2,170.6,338.6,166.6,332,166.7z M336.8,178.3c-0.1,3.2-0.8,6.1-4.9,6c-3.8-0.1-4.4-2.9-4.3-6.8c0-2.3,0.3-5.5,4.3-5.7
		C336.1,171.7,336.9,174.8,336.8,178.3z"/>
	<path class="st6" d="M258.4,247.4c-6.4,0.1-10.2,4.4-10.1,11.5c0.1,6.9,3.7,10.8,10.1,10.9c6.6,0.1,10.4-4,10.4-11.2
		C268.8,251.5,265,247.3,258.4,247.4z M258.5,265.1c-3.8-0.1-4.6-3.1-4.6-6.4c0-3.3,0.7-6.3,4.6-6.2c3.9,0.1,4.7,3,4.5,6.3
		C263.2,262.1,262.5,265.2,258.5,265.1z"/>
	<path class="st5" d="M474.5,122.3c-6.6,0-10.4,4.1-10.4,11.3c0.1,7,3.6,10.9,10.1,10.9c6.8,0,10.3-3.8,10.3-11.2
		C484.5,126.2,480.9,122.3,474.5,122.3z M474.2,139.8c-4-0.1-4.6-3.1-4.3-6c0-3.6,0.6-6.5,4.7-6.4c4,0.1,4.5,3.1,4.5,6.4
		C479,137.1,478.1,139.9,474.2,139.8z"/>
	<path class="st6" d="M497.5,149.3c-6.5,0-10.3,4.2-10.2,11.4c0,7,3.5,10.8,10,10.9c6.7,0.1,10.4-3.7,10.4-11
		C507.7,153.4,504,149.3,497.5,149.3z M497.4,167c-3.9-0.1-4.6-3.1-4.6-6.4c0-3.2,0.4-6.3,4.6-6.2c4,0.1,4.6,3.1,4.6,6.8
		C502.1,164,501.4,167,497.4,167z"/>
	<path class="st5" d="M145.7,275.1c-6.8-0.1-10.6,3.8-10.6,10.9c-0.1,7.2,3.7,11.3,10.3,11.3c6.4,0,10-4,10-11
		C155.5,279.1,152.2,275.2,145.7,275.1z M145.1,292.5c-4.1-0.2-4.4-3.2-4.2-6.1c0-3.6,0.8-6.4,4.8-6.2c4.1,0.2,4.3,3.4,4.3,6.5
		C150,290,149.1,292.7,145.1,292.5z"/>
	<path class="st5" d="M355.1,193.9c-6.5,0.1-10.1,4.2-10,11.5c0,6.8,3.8,10.8,10.1,10.9c6.5,0.1,10.2-4,10.1-11.3
		C365.3,197.6,361.7,193.7,355.1,193.9z M355.3,211.4c-4.2,0-4.5-3.2-4.6-6.1c0-3.2,0.5-6.1,4.3-6.2c4-0.1,4.9,2.8,4.8,6.1
		C359.8,208.3,359.5,211.4,355.3,211.4z"/>
	<path class="st6" d="M235.5,220.4c-6.2-0.1-10.3,4.2-10.4,10.9c-0.1,7.1,3.4,11.2,9.7,11.4c6.9,0.2,10.7-3.5,10.8-10.7
		C245.8,224.8,242,220.4,235.5,220.4z M235.7,237.9c-3.8,0.1-4.9-2.7-4.7-5.9c-0.1-3.5,0.5-6.5,4.5-6.7c4-0.1,4.7,2.8,4.7,6.1
		C240.1,234.8,239.6,237.8,235.7,237.9z"/>
</g>
</svg>
