<?xml version="1.0" encoding="utf-8"?>
<!-- Generator: Adobe Illustrator 19.0.0, SVG Export Plug-In . SVG Version: 6.00 Build 0)  -->
<svg version="1.1" id="Calque_1" xmlns="http://www.w3.org/2000/svg" xmlns:xlink="http://www.w3.org/1999/xlink" x="0px" y="0px"
	 viewBox="0 0 612 792" style="enable-background:new 0 0 612 792;" xml:space="preserve">
<style type="text/css">
	.st0{fill:#70BCD4;}
	.st1{fill:#506F79;}
</style>
<g>
	<path class="st0" d="M403.9,623.2c-28.1,0-55.9,0-83.7,0c-65,0-130-0.1-194.9,0.1c-4.5,0-5.5-0.9-4.7-5.4
		c7-36.5,13.9-73.1,20.7-109.6c2.6-13.7,4.2-27.7,7.9-41.1c9.2-33.2,32.1-52.6,64.8-61.2c6.8-1.8,13.8-2.1,20.8-2.1
		c2.5,0,3.8,0.8,5,3c10.7,20.9,21.5,41.7,32.5,62.5c1.4,2.7,1.7,5.3,1.2,8.2c-3.8,19.9-7.6,39.8-11.4,59.7c-0.5,2.9-0.6,5.4,1.1,8.1
		c13.2,20.6,26.3,41.2,39.9,62.5c3.2-5.3,6.2-10.1,9.2-14.9c9.9-16,19.7-32,29.7-48c2.2-3.4,2.9-6.6,1.9-10.8
		c-4.3-19.5-8.1-39-12.2-58.5c-0.5-2.5-0.3-4.8,0.9-7.2c10.6-20.4,21.2-40.8,31.6-61.2c1.2-2.4,2.6-3.3,5.3-3.4
		c26.6-0.3,48.9,9.5,67.6,28.2c3,3,2.7,4.3-1.1,6.3c-13.9,7.2-24.8,17.4-30.5,32.3c-9.5,24.9-1.9,50,19.6,66.1
		c6.6,4.9,13.5,9.2,20.8,12.7c2.7,1.3,3.6,2.8,3.5,5.8c-0.2,5.8-0.3,11.7,0,17.5c0.2,3.7-1.1,3.9-4.3,3.3
		c-10.5-2.1-19.8-6.7-28.9-11.9c-3.9-2.2-5-1.5-6,2.8c-3.8,15-7.8,29.9-12.3,44.7c-1.5,4.8-1.4,7.9,3.9,9.4c0.6,0.2,1.1,0.7,1.7,1.1
		C403.8,622.2,403.8,622.4,403.9,623.2z"/>
	<path class="st0" d="M230.8,298.9c-0.5-14.9-0.2-27.3,4.9-39.1c12.9-29.3,44.6-46.9,76.5-41.9c30.3,4.7,50.6,21.4,59.7,50.9
		c2.6,8.3,2.3,17,2.1,25.7c-0.2,6.6,0.4,13.4-0.5,19.9c-4.5,32.9-20.1,58.4-51.4,71.8c-22.3,9.5-42.5,3-60-12.2
		c-17.8-15.4-28.2-35.2-31.3-58.5C230.1,309.3,230.8,302.8,230.8,298.9z"/>
	<path class="st1" d="M303,594.1c-11.9-17.4-23.4-34.3-34.9-51.2c-1.4-2.1-0.5-4.2-0.1-6.3c7.6-34.2,15.2-68.4,22.9-102.6
		c0.6-2.7,0.4-4.8-1.1-7c-1.6-2.3-2.8-4.8-4.6-7.9c11.4,0,22.2,0,33.2,0c-0.1,0.4,0,1-0.3,1.3c-6.4,7.4-4.4,15.4-2.3,23.8
		c7.7,30.4,15,61,22.5,91.5c0.6,2.4,0.5,4.4-1,6.6C326,559.2,314.8,576.3,303,594.1z"/>
	<path class="st1" d="M518.6,531.4c-8.3-6-17.2-10.8-26.8-14.2c-3.8-1.4-4.9-3.3-4.8-7.3c0.3-12.3,0.3-24.6,0.2-37
		c0-3.5,1.4-3.7,4.2-3.4c9.3,0.8,18.5,2.5,27.1,6.1c2.5,1,3.5,0.6,4.2-2c1.9-6.7,3.8-13.4,6.1-20c1.3-3.6,0-4.8-3.2-5.9
		c-11-3.8-22.2-5.8-33.8-6c-3.3,0-4.8-1.1-4.5-4.7c0.3-3.6-0.2-7.3-0.1-11c0.1-2.4-0.9-3.2-3.2-3.1c-5.8,0.1-11.7,0.1-17.5,0
		c-2.2,0-2.9,0.8-2.8,2.9c0.1,4.8-0.1,9.7,0.1,14.5c0.1,2.4-0.7,3.3-3.2,3.9c-9.3,2.2-18,5.8-25.8,11.6c-24.3,18-25.3,49-2.2,68.4
		c8.1,6.8,17.3,11.8,27.2,15.6c3.2,1.2,4.2,2.9,4.1,6.2c-0.3,6.8-0.1,13.7-0.1,20.5c0,7.2-0.2,14.3,0.1,21.5
		c0.1,3.7-1.2,4.4-4.6,4.2c-12-0.8-23.8-3.1-34.8-8.1c-3.1-1.4-3.9-0.6-4.6,2.2c-1.7,6.9-3.4,13.9-5.5,20.7c-1,3.3,0,4.6,2.8,5.4
		c1.4,0.4,2.8,1,4.2,1.5c12.3,4,24.9,6.1,37.8,6.2c3.6,0,5,1.2,4.7,5c-0.3,3.6,0,7.3-0.1,11c-0.1,2.2,0.7,2.9,2.9,2.8
		c5.8-0.1,11.7-0.2,17.5,0c2.7,0.1,3.5-0.9,3.4-3.5c-0.2-4.5,0.1-9-0.2-13.5c-0.2-3,1.1-4,3.8-4.6c7.5-1.6,14.6-4.4,21.4-8.1
		C542.7,593,546.9,551.9,518.6,531.4z M463.4,503.1c-5.5-3.7-7.9-8.3-7.9-14.4c0-5.9,2.6-10.3,7.9-13.9
		C463.4,484.5,463.4,493.5,463.4,503.1z M490.4,585.8c-1.6,1.1-3.5,2.6-3.3-1.1c0.3-10.4-0.6-20.9,0.4-31.3
		C500.2,561.1,501.6,577.9,490.4,585.8z"/>
</g>
</svg>
