<?xml version="1.0" encoding="utf-8"?>
<!-- Generator: Adobe Illustrator 19.0.0, SVG Export Plug-In . SVG Version: 6.00 Build 0)  -->
<svg version="1.1" id="Calque_1" xmlns="http://www.w3.org/2000/svg" xmlns:xlink="http://www.w3.org/1999/xlink" x="0px" y="0px"
	 viewBox="0 0 612 792" style="enable-background:new 0 0 612 792;" xml:space="preserve">
<style type="text/css">
	.st0{fill:#E1B600;}
	.st1{fill:#FAD402;}
	.st2{fill:#F38F8B;}
	.st3{fill:#E96159;}
	.st4{fill:#1F3444;}
	.st5{fill:#2E4356;}
	.st6{fill:#BABE1D;}
	.st7{fill:#CBE034;}
	.st8{fill:#13283B;}
	.st9{fill:#F4A406;}
	.st10{fill:#D4373D;}
	.st11{fill:#96BD15;}
	.st12{fill:#CCE035;}
	.st13{fill:#FAD610;}
	.st14{fill:#CCE138;}
	.st15{fill:#CCE137;}
	.st16{fill:#33475A;}
	.st17{fill:#CCE139;}
	.st18{fill:#F3928E;}
	.st19{fill:#FAD60C;}
	.st20{fill:#2F4456;}
	.st21{fill:#F3908C;}
	.st22{fill:#2F4457;}
	.st23{fill:#FAD504;}
	.st24{fill:#FAD404;}
	.st25{fill:#314658;}
	.st26{fill:#F3918D;}
	.st27{fill:#CBE035;}
	.st28{fill:#FAD507;}
</style>
<g>
	<path class="st0" d="M519.9,199.9c0.1,1.8,0.2,3.7,0.2,5.5c0,131,0,261.9,0.1,392.9c0,4.4-1.4,6.4-5.3,8c-9.6,4-19,8.6-28.6,12.9
		c-1.4,0.6-2.6,2.2-4.5,1.1c-1.9-3-1.5-6.4-1.5-9.7c0-91.9,0-183.8,0-275.7c0-35.6,0-71.2,0-106.9c0-2.8-0.2-5.7,0.4-8.5
		c0.5-2.2,2.2-3.2,4-4.1c10-5,19.9-10,29.9-15C516.4,199.8,518,198.8,519.9,199.9z"/>
	<path class="st1" d="M482,217.9c0,132.7,0,265.3,0,398c0,1.5-0.1,3-0.2,4.5c-11.4-5.1-22.7-10.3-34.1-15.4c-2.2-1-3-2.3-2.8-4.5
		c0.1-1,0-2,0-3c0-130.8,0-261.5,0-392.3c0-2-1-4.3,0.9-6.1c11.9,4.8,23.1,11.2,34.6,16.9C481.3,216.3,481.8,217,482,217.9z"/>
	<path class="st2" d="M346.1,619.9c-1.7,2-3.4,0.5-5-0.2c-10.3-4.6-20.5-9.5-30.8-14c-3.2-1.4-4.2-3.3-4.2-6.8
		c0.1-56.3,0.1-112.6,0.1-168.9c0-57.5,0-114.9,0-172.4c0-1.9-0.9-4,1-5.6c2.8,0.3,5.3,1.6,7.8,2.9c8.3,4.2,16.5,8.3,24.8,12.4
		c2.4,1.2,4.8,2.3,5.5,5.3c0.6,3.2,0.4,6.3,0.4,9.5c0,108.6,0,217.2,0,325.7C345.6,611.9,345.7,615.9,346.1,619.9z"/>
	<path class="st3" d="M346.1,619.9c-1.4-0.2-2.1-0.9-2-2.3c0-1.5,0-3,0-4.5c0-111.5,0-223.1,0-334.6c0-2.5-0.1-5-0.1-7.5
		c0.4-0.8,1-1.3,1.8-1.7c11.7-5.8,23.1-12.3,35.3-17.2c1.7,1.2,0.9,3.1,0.9,4.6c0,114.2,0,228.4,0.1,342.6c0,3-0.7,4.8-3.7,6
		C367.5,610,356.8,615,346.1,619.9z"/>
	<path class="st4" d="M251,296.9c3.3,0.5,1.9,3.1,1.9,4.7c0.1,26.5,0.1,53,0.1,79.5c0,72.5,0,145,0.1,217.4c0,4-1.2,5.8-4.7,7.3
		c-10.6,4.4-20.9,9.3-31.4,14c-2.5,1-2.8-1-3.2-2.5c-0.6-2.1-0.4-4.3-0.4-6.5c0-95,0-190.1,0-285.1c0-2.3-0.1-4.7,0.3-7
		c0.6-3.3,3.3-4.3,5.8-5.6C230,307.7,240.9,303.1,251,296.9z"/>
	<path class="st5" d="M215,316.8c0,99.4,0,198.8,0,298.1c0,1.8-1.1,4.2,1.9,4.9c-1.3,1.6-2.6,0.7-4,0.1c-10.8-5-21.6-10-32.5-14.8
		c-2.2-1-3-2.3-2.8-4.6c0.1-0.8,0-1.7,0-2.5c0-98.4,0-196.8,0.1-295.2c0-1.9-1.2-4.3,1.3-5.8c11.1,5.3,21.9,10.9,32.9,16.4
		C213.3,314.2,215.2,314.6,215,316.8z"/>
	<path class="st6" d="M123.1,345.8c1.9,1.4,0.9,3.4,0.9,5.1c0.1,82.7,0,165.5,0.1,248.2c0,3.5-1,5.3-4.3,6.7
		c-10.7,4.5-21.2,9.4-31.8,14.2c-2.7-0.1-3.1-2.1-3.4-4.1c-0.3-2-0.2-4-0.2-6c0-78.7,0-157.4,0-236.1c0-2.3-0.1-4.7,0.3-7
		c0.4-1.9,1.6-3.3,3.3-4.2c10.8-5.6,21.7-11,32.6-16.3C121.4,345.9,122.2,345.9,123.1,345.8z"/>
	<path class="st7" d="M86.1,364.8c0,83.1,0,166.3,0,249.4c0,2.1-0.6,4.5,2,5.7c-1.6,1.9-3.1,0.3-4.4-0.3
		c-10.5-4.6-20.9-9.4-31.3-13.9c-2.5-1.1-3.4-2.4-3.4-5.2c0.1-83.7,0.1-167.4,0.1-251.1c0-1.2-0.6-2.7,1-3.6
		c2.4,0.1,4.4,1.4,6.5,2.4c8.6,4.3,17.2,8.6,25.7,12.9C83.7,361.9,86,362.2,86.1,364.8z"/>
	<path class="st8" d="M215,316.8c-10.3-6.2-21.4-10.9-32-16.5c-1.5-0.8-3.7-1-4-3.2c11.1-5.6,22.2-11.1,33.3-16.7
		c1.6-0.8,3-1.7,5-0.6c11.2,5.8,22.4,11.4,33.6,17.1c-0.1,2.6-2.3,3-4,3.9C236.4,306.2,225.7,311.5,215,316.8z"/>
	<path class="st9" d="M482,217.9c-10.5-5.3-21-10.5-31.6-15.8c-1.6-0.8-3.5-1.3-4.5-3c11.5-5.9,23.1-11.7,34.6-17.6
		c1.3-0.7,2.4-0.8,3.8-0.1c11.7,5.9,23.4,11.8,35.1,17.7c0.2,0.1,0.3,0.5,0.4,0.8c-11,4.5-21.3,10.5-32,15.6
		C486,216.3,484,217.1,482,217.9z"/>
	<path class="st10" d="M380.9,252.1c-2.3,2.8-5.8,3.7-8.9,5.2c-9.4,4.6-18.4,9.8-28.1,13.7c-12.2-6.5-24.9-11.8-36.7-18.9
		c11.1-5.5,22.2-11,33.2-16.7c2.6-1.3,4.6-1.6,7.3-0.2C358.7,241,369.9,246.5,380.9,252.1z"/>
	<path class="st11" d="M86.1,364.8c-10.4-5.3-20.8-10.6-31.2-16c-1.7-0.9-3.7-1.4-5-3c11.5-5.9,23-11.7,34.5-17.6
		c1.5-0.7,2.7-0.8,4.2,0c11.5,5.9,23,11.8,34.5,17.6c-9.7,6.1-20.3,10.4-30.3,15.7C90.5,362.7,88.3,363.7,86.1,364.8z"/>
	<path class="st12" d="M60.1,279.9c-4.9,0-9,0-13,0c-1.9,0-3.1-0.3-3.1-2.7c0-2.2,0.5-3.4,3.1-3.3c5.5,0.1,11,0,16.5,0.1
		c1.5,0,3.7-1,4.3,1.2c0.5,1.8,0.8,4-0.7,5.7c-6,6.7-8.7,14.4-8.2,23.4c0.2,3.4-2.4,2.4-4.2,2.5c-1.8,0.1-3.7,0.4-3.7-2.6
		c-0.1-7.2,1.8-13.8,5.9-19.8C57.9,283.2,58.8,281.9,60.1,279.9z"/>
	<path class="st13" d="M450.8,134.8c0,3.1-0.1,6.3,0,9.4c0.1,2.4-0.5,3.6-3.3,3.6c-2.6,0-3-1.3-2.9-3.4c0.1-4.8,0-9.6,0-14.4
		c0-2.1-0.3-3.6-2.9-3.4c-1.9,0.1-2.6-0.8-2.6-2.7c0-2.3,1.6-2.1,3-2.3c8.6-1.5,8.6-1.5,8.6,7.3
		C450.8,130.8,450.8,132.8,450.8,134.8z"/>
	<path class="st14" d="M129,299.8c0.1,4.7-2.6,7.5-7.2,7.7c-4.7,0.1-7.7-2.9-7.7-7.7c0-4.7,2.7-7.6,7.2-7.7
		C126,291.9,129,295,129,299.8z"/>
	<path class="st15" d="M105.9,273.7c4.9,0,7.2,2.4,7.2,7.4c0,5.1-2.3,7.7-7,7.7c-5,0.1-7.5-2.5-7.4-7.8
		C98.7,275.9,100.9,273.7,105.9,273.7z"/>
	<path class="st16" d="M235.4,243.2c-1.9-0.6-3.7-0.9-2.2-3.3c4.6-7.3,9.2-14.6,13.8-22c0.7-1.1,1.4-1.7,2.8-1
		c1.3,0.7,1.7,1.4,0.9,2.7c-4.7,7.5-9.4,14.9-14.1,22.4C236.4,242.5,235.8,242.8,235.4,243.2z"/>
	<path class="st17" d="M106,303.9c-1.5-0.5-2.6-1.2-1.4-3.1c4.7-7.4,9.4-14.9,14-22.3c0.9-1.5,1.9-1,2.9-0.5
		c1.1,0.6,1.3,1.3,0.6,2.4c-4.7,7.4-9.3,14.9-14,22.3C107.7,303.5,107.1,304,106,303.9z"/>
	<path class="st18" d="M380.1,175.6c-0.6,1-1,1.7-1.4,2.4c-4.2,6.8-8.4,13.5-12.6,20.3c-0.8,1.3-1.5,3.2-3.7,1.7
		c-2.2-1.5-0.2-2.6,0.4-3.6c4.1-6.8,8.3-13.5,12.5-20.3c0.7-1.1,1.3-2.6,3-1.9C379,174.3,379.5,175,380.1,175.6z"/>
	<path class="st19" d="M513,131c2.3-1.1,2.7-3.6,4.1-5.4c0.7-0.8,1.1-2.2,2.6-1.4c1.6,0.8,0.9,1.8,0.2,2.8
		c-3.4,5.5-6.8,10.9-10.3,16.4c-0.6,1-1.3,2.1-2.7,1.4c-2-1.1-0.4-2.3,0.1-3.3C508.9,137.9,512.1,135,513,131
		C513,130.9,513,131,513,131z"/>
	<path class="st20" d="M193.8,230.4c-1.1-1.2-1.7-1.6-0.3-3c2.9-2.9,3.3-6.5,1.3-10.1c-2-3.6-5.5-4.6-9.4-4.5
		c-4.2-0.1-8.1,0.9-10.2,4.9c-2,3.6-1.4,7.1,1.8,9.9c2.2,2-0.2,2.3-1,3.2c-3.9,4-4,9.3,0,12.7c3.8,3.2,8.3,4,13.1,2.7
		C197.4,244,199.6,236.6,193.8,230.4z M185,218.7c2.4-0.1,3.3,1.4,3.3,3.5c0,1.9-0.4,3.8-2.8,3.8c-2.3,0-3.2-1.5-3.3-3.5
		C181.9,220.3,182.7,218.9,185,218.7z M185.3,240.6c-2.6,0-4.4-1.4-4.4-4.3c0-2.9,1.7-4.1,4.3-4.5c2.8,0.3,4.3,1.9,4.2,4.6
		C189.3,239,187.8,240.6,185.3,240.6z"/>
	<path class="st21" d="M352,187c0-2.2,0.1-4.3,0-6.5c-0.5-6.2-4.9-10.5-11-10.7c-6.4-0.2-11.3,3.8-11.8,10.3c-0.4,4.3-0.4,8.7,0,13
		c0.6,6.7,5.4,10.8,11.7,10.6c6.3-0.2,10.6-4.5,11.1-11.2C352.1,190.7,352,188.9,352,187z M344,194.2c-0.1,2-1.3,3.5-3.4,3.6
		c-2.2,0-3.4-1.6-3.5-3.5c-0.2-5-0.2-10,0-14.9c0.1-1.9,1.4-3.5,3.6-3.3c2,0.1,3,1.6,3.2,3.3c0.2,2.6,0.1,5.3,0.1,8c0,0,0,0,0.1,0
		C344,189.6,344.2,191.9,344,194.2z"/>
	<path class="st22" d="M223.2,229.6C223.1,229.6,223.1,229.6,223.2,229.6c-0.1-2.3,0.1-4.7-0.1-7c-0.6-5.9-4.8-9.6-10.6-9.8
		c-6.4-0.2-10.6,2.9-11.7,9c-0.9,4.9-0.8,9.9-0.1,14.9c1,6.5,5.3,9.9,11.7,9.6c6.3-0.2,10.3-4.2,10.7-10.8
		C223.3,233.5,223.2,231.5,223.2,229.6z M215.2,237.2c-0.2,2-1.4,3.5-3.6,3.5c-1.9,0-3.2-1.5-3.4-3.1c-0.5-5.3-0.6-10.6,0.1-15.9
		c0.2-1.7,1.4-3,3.5-2.9c2,0.1,3,1.3,3.3,3.1c0.3,2.8,0.4,5.6,0.6,8.5C215.5,232.6,215.5,234.9,215.2,237.2z"/>
	<path class="st21" d="M320.1,171.8c-4.8-3-10.9-2.5-14.7,1.3c-3.7,3.7-4.5,10.1-1.8,14.8c2.5,4.3,6.2,5.3,13.3,3.5
		c-0.3,5.7-1.7,7.3-6.6,6.3c-2.8-0.6-3.4,0.4-4,2.6c-0.8,3,1.6,2.8,3.2,3.3c3.7,1.1,7.3,0.3,10.5-1.6
		C327.5,197.2,327.5,176.5,320.1,171.8z M313.5,186.8c-3.5-0.2-3.5-2.9-3.6-5.4c-0.1-2.6,0.4-5.4,3.7-5.4c3.9-0.1,3.3,3.3,3.5,4.3
		C317.4,184.5,317.1,187,313.5,186.8z"/>
	<path class="st23" d="M476.8,129.3c-0.7-5.4-4.2-8.5-9.2-8.5c-5.1,0.1-8.3,3.2-8.9,8.8c-0.4,3.8-0.5,7.6,0.3,11.4
		c0.8,4.3,3.5,6.6,7.9,6.9c4.5,0.3,7.7-1.4,9.3-5.8c1-2.6,0.7-5.2,0.7-7.9C476.8,132.6,477,131,476.8,129.3z M470.7,139.5
		c-0.1,1.9-0.9,3.7-3.3,3.5c-2.1-0.2-2.5-1.9-2.6-3.6c-0.1-1.8,0-3.6,0-5.5c0,0,0,0,0,0c0-1.5-0.1-3,0-4.5c0.1-1.9,0.5-3.8,3-3.8
		c2.2,0,2.9,1.7,3,3.4C470.9,132.5,470.9,136,470.7,139.5z"/>
	<path class="st24" d="M498.1,134.9C498.1,134.9,498.1,134.9,498.1,134.9c0-2,0.1-4-0.1-6c-0.5-4.8-3.8-7.9-8.4-8.1
		c-4.9-0.2-8.9,2.8-9.4,7.7c-0.4,3.9-0.4,8,0,11.9c0.5,4.9,4.4,7.7,9.4,7.5c4.7-0.2,7.9-3.2,8.4-8.1
		C498.2,138.3,498.1,136.6,498.1,134.9z M491.9,140.6c-0.2,1.5-1.1,2.3-2.7,2.4c-1.6,0.1-2.6-1-2.8-2.3c-0.8-4.1-0.6-8.2-0.1-12.3
		c0.2-1.5,1.1-2.8,3-2.7c1.8,0.1,2.6,1.4,2.7,3c0.1,2,0,4,0,5.9c0.1,0,0.2,0,0.2,0C492.2,136.6,492.2,138.6,491.9,140.6z"/>
	<path class="st25" d="M234.6,212.8c-4.8,0-7.4,2.5-7.5,7.2c-0.1,5,2.6,7.8,7.4,7.9c4.7,0,7.3-2.5,7.4-7.3
		C242.1,215.5,239.5,212.8,234.6,212.8z M234.3,223.7c-1.8-0.2-2.2-1.8-2.2-3.4c0-1.8,0.3-3.5,2.6-3.5c2.3,0.1,2.3,1.9,2.4,3.8
		C237,222.4,236.5,224,234.3,223.7z"/>
	<path class="st26" d="M363.3,169.9c-4.9,0-7.4,2.8-7.3,8c0.2,4.8,2.7,7.1,7.7,7c4.8-0.1,7.2-2.7,7.1-7.6
		C370.8,172.8,367.8,169.8,363.3,169.9z M363.4,180.8c-2.2,0-2.4-1.8-2.4-3.5c0-1.6,0.4-3.2,2.3-3.1c1.9,0.1,2.6,1.8,2.6,3.7
		C365.8,179.4,365.3,180.9,363.4,180.8z"/>
	<path class="st16" d="M250,231.1c-4.5,0.1-7,2.9-7,7.8c0,4.8,2.5,7.5,7.1,7.6c4.8,0.1,7.7-2.9,7.6-7.7
		C257.7,233.9,254.7,230.9,250,231.1z M250.3,242.3c-2.1-0.1-2.5-1.8-2.4-3.5c0-1.7,0.2-3.3,2.2-3.3c2.6,0,2.7,2,2.7,3.8
		C252.7,241,252.2,242.5,250.3,242.3z"/>
	<path class="st27" d="M81.9,273.7c-5.8,0.4-9.7,4.3-10,10.4c-0.2,4.3-0.2,8.7,0,13c0.4,5.9,4.3,9.6,9.9,9.9
		c6.7,0.4,10.8-2.4,12.2-8.4c0.6-2.6,0.6-5.3,0.8-8c-0.3-2.6-0.3-5.3-0.8-7.9C92.9,276.3,88.7,273.3,81.9,273.7z M86.6,298.2
		c-0.3,1.9-1.5,3.5-3.7,3.4c-1.9-0.1-3.1-1.5-3.3-3.2c-0.7-5.3-0.9-10.6,0.1-15.8c0.3-1.8,1.5-2.9,3.5-2.9c2,0.1,3,1.4,3.3,3.1
		c0.4,2.6,0.5,5.3,0.6,7.4C86.9,293.2,87,295.8,86.6,298.2z"/>
	<path class="st26" d="M379.2,188.7c-5-0.1-7.3,2.2-7.3,7.2c0,5.3,2.4,8,7.2,7.9c4.7,0,7.1-2.6,7.1-7.6
		C386.2,191.1,384.1,188.8,379.2,188.7z M379.1,199.5c-2.2,0-2.3-1.9-2.3-3.6c0-1.6,0.2-3.1,2.3-3c2.1,0.1,1.9,1.8,2,3.3
		C381.1,197.7,381.2,199.5,379.1,199.5z"/>
	<path class="st28" d="M519.6,135.8c-3.7,0.2-5.5,2.3-5.5,6.1c0,4,2.1,6.1,6.2,6c3.9-0.1,5.6-2.3,5.6-6
		C526,137.8,523.8,135.8,519.6,135.8z M520.5,144.6c-1.6,0.3-2.3-0.8-2.5-2.3c-0.1-1.4,0.2-2.6,1.8-3.1c1.6,0.2,2.1,1.3,2.1,2.7
		C522,143.1,521.9,144.4,520.5,144.6z"/>
	<g>
		<path class="st28" d="M513,131L513,131C513,130.9,513,130.9,513,131C513,130.9,513,131,513,131z"/>
		<path class="st28" d="M507.6,120.9c-3.8-0.1-5.9,1.9-5.8,5.8c0,2.3,0.3,4.4,2.5,5.6c3.2,1.6,6,0.6,8.7-1.3c0.1-1.5,0.2-3,0.2-4.4
			C513.2,122.8,511.2,120.9,507.6,120.9z M507.6,129.7c-1.7,0.2-2.3-1.1-2.2-2.6c0-1.3,0.3-2.6,1.9-3c1.8,0.3,2,1.5,1.9,2.9
			C509.2,128.3,509,129.6,507.6,129.7z"/>
	</g>
</g>
</svg>
