<?xml version="1.0" encoding="utf-8"?>
<!-- Generator: Adobe Illustrator 19.0.0, SVG Export Plug-In . SVG Version: 6.00 Build 0)  -->
<svg version="1.1" id="Calque_1" xmlns="http://www.w3.org/2000/svg" xmlns:xlink="http://www.w3.org/1999/xlink" x="0px" y="0px"
	 viewBox="0 0 612 792" style="enable-background:new 0 0 612 792;" xml:space="preserve">
<style type="text/css">
	.st0{fill:#F57737;}
	.st1{fill:#37987A;}
	.st2{fill:#EB6958;}
	.st3{fill:#252525;}
	.st4{fill:#262626;}
	.st5{fill:#2A2A2A;}
	.st6{fill:#292929;}
	.st7{fill:#282828;}
	.st8{fill:#272727;}
</style>
<g>
	<path class="st0" d="M349.7,382.7c0,54.8-0.1,109.6,0.1,164.4c0,4.4-1,5.6-5.5,5.3c-48.5-2.9-89-22.5-120.7-59.2
		c-31-35.9-44-78.1-40.6-125.3c5.4-74.8,64.2-139.6,138.1-152.7c7.7-1.4,15.5-2,23.3-2.9c4.5-0.5,5.5,1,5.5,5.3
		c-0.2,49-0.1,97.9-0.1,146.9C349.7,370.7,349.7,376.7,349.7,382.7z"/>
	<path class="st1" d="M355.7,468.3c0-26.2,0.1-52.3-0.1-78.5c0-3.9,0.9-5.7,4.9-6.9c50.3-16.2,100.6-32.5,150.8-49
		c3.5-1.2,4.5-0.4,5.4,2.9c27,94.8-34.7,194.4-131.7,212.6c-8.4,1.6-16.8,2.5-25.2,3c-3.5,0.2-4.1-1-4.1-4.2
		C355.7,521.7,355.7,495,355.7,468.3z"/>
	<path class="st2" d="M355.7,294.8c0-26,0.1-52-0.1-78c0-4,1.3-4.6,4.9-4.4c68.9,3.4,128.1,47.3,151.9,111c1.2,3.3,0.2,4.1-2.7,5.1
		c-49.8,16.1-99.6,32.3-149.4,48.6c-3.8,1.2-4.7,0.7-4.7-3.3C355.7,347.5,355.6,321.1,355.7,294.8
		C355.7,294.8,355.7,294.8,355.7,294.8z"/>
	<path class="st3" d="M96.6,364c4.8-1.1,9.7-1.8,13,2.9c2.9,4.1,3,8.8,1.1,13.3c-1.9,4.4-5.7,6-10.1,5.9c-4.1-0.1-7.9-1.2-9.9-5.4
		c-0.6-1.3-1.7-3.2,0-3.9c1.5-0.6,3.9-1.6,5,1.2c1.5,3.8,4.5,4.3,7.7,2.8c2.8-1.3,3.7-7.2,1.6-10.3c-2.2-3.4-5.5-3.3-8.2-1.2
		c-1.9,1.5-3.7,1.7-5.4,1c-1.9-0.9-0.6-3-0.5-4.5c0.2-3.8,0.7-7.6,1-11.4c0.1-1.8,0.4-3.2,2.8-3.2c4.5,0.1,9,0,13.5,0
		c1.5,0,2.5,0.3,2.5,2.2c0,1.7-0.3,2.9-2.4,2.8c-1.3-0.1-2.7,0-4,0C96.8,356.1,96.8,356.1,96.6,364z"/>
	<path class="st4" d="M515.2,464.4c3.9,0.3,7.7,1.1,9.6,5c1.9,4,1.7,7.8-1.9,10.9c-1.2,1.1-1,1.5,0.2,2.5c3.8,3.1,4,7.2,2.4,11.3
		c-1.7,4.2-5.5,5.7-9.7,5.9c-4.5,0.2-8.6-1.1-11.1-5.3c-0.8-1.3-2.1-3.3-0.1-4.2c1.4-0.6,3.9-1.2,5,1.6c1.5,3.7,4.8,4.1,7.9,2.7
		c3.2-1.5,3.4-4.6,2.3-7.8c-1-2.7-3.4-2.9-5.8-2.8c-1.8,0.1-3.3,0.1-3.2-2.5c0.1-2.3,1.5-2.2,3-2.2c3-0.1,5.7-0.6,6.1-4.4
		c0.2-2.5-0.2-4.9-2.9-5.6c-2.9-0.9-5.7-0.4-7.1,2.9c-1.1,2.8-3.6,2-5,1.3c-2-1.1-0.4-3.1,0.4-4.3
		C507.5,465.8,511.1,464.6,515.2,464.4z"/>
	<path class="st4" d="M464.4,238.3c4.6,0,8.2,0,11.8,0c1.6,0,3.4-0.4,3.3,2.3c-0.1,2.6-1.8,2.3-3.5,2.3c-5,0-10,0-15,0
		c-1.4,0-3.2,0.7-3.9-1.3c-0.5-1.7,0.2-3.2,1.4-4.5c3.3-3.7,6.6-7.5,9.8-11.3c1.7-2,3.4-4.2,3.9-6.8c0.6-2.7,0-5.1-2.8-6.2
		c-2.9-1.1-5.8-0.1-6.5,2.8c-1,3.8-3.7,3.6-5.6,2.5c-2-1.2-0.2-3.6,0.7-5.2c2.8-4.9,10.9-6.6,15.9-3.4c4.5,2.8,5.6,8.9,2.4,14.1
		c-1.6,2.5-3.6,4.8-5.5,7.1C469.2,233,467.1,235.2,464.4,238.3z"/>
	<path class="st5" d="M519.4,240c-1.3-0.5-2.5-1.2-1.4-2.9c4.9-7.9,9.9-15.8,14.8-23.7c0.8-1.3,1.7-1.4,2.9-0.6
		c1.3,0.8,0.6,1.6,0.1,2.5c-4.8,7.8-9.7,15.5-14.6,23.3C520.8,239.2,520.5,240.1,519.4,240z"/>
	<path class="st5" d="M168.8,356.8c-0.3,0.5-0.7,1.3-1.1,1.9c-4.5,7.1-8.9,14.3-13.5,21.4c-0.7,1.1-1.1,3.1-3.2,1.9
		c-2.3-1.3-0.4-2.5,0.2-3.6c4.5-7.3,9.1-14.6,13.7-21.9c0.5-0.8,0.8-2.5,2.4-1.7C168.1,355.1,169,355.4,168.8,356.8z"/>
	<path class="st6" d="M583.5,470.6c-0.2,0.4-0.5,0.9-0.7,1.3c-4.7,7.6-9.4,15.2-14.2,22.7c-0.7,1.1-1.3,2.5-3,1.3
		c-1.8-1.2-0.5-2.2,0.2-3.3c4.6-7.4,9.2-14.9,13.9-22.3c0.5-0.8,0.8-2.5,2.5-1.5C582.7,469.3,583.7,469.5,583.5,470.6z"/>
	<path class="st3" d="M553.8,482.3c0-2.3,0.1-4.7,0-7c-0.5-6.4-4.8-10.8-10.7-11c-6.1-0.2-10.5,3.4-11.6,9.9
		c-0.8,5.3-0.8,10.6,0,15.8c1,6.6,5.3,10,11.6,9.7c5.9-0.3,9.9-4.2,10.5-10.5C553.9,487,553.7,484.6,553.8,482.3
		C553.7,482.3,553.8,482.3,553.8,482.3z M547.7,490.5c-0.3,2.7-1.7,4.6-4.7,4.9c-2.9,0.2-4.9-1.3-5.5-4c-1.2-6-1.1-12.2-0.1-18.2
		c0.5-2.7,2.6-4.2,5.5-3.9c3,0.3,4.4,2.3,4.7,4.9c0.3,2.8,0.1,5.6,0.1,8.4C547.8,485.2,548,487.9,547.7,490.5z"/>
	<path class="st3" d="M506.2,216.8c-1.6-5.9-5.3-8.9-11-8.8c-5.7,0.1-9.6,3.2-10.7,9.2c-1,5.6-1,11.3,0,16.9c1,6,4.8,9.1,10.6,9.3
		c6,0.1,10.1-3,11.2-9.1c0.5-2.7,0.4-5.6,0.5-7.4C506.6,222.8,507.1,219.8,506.2,216.8z M500.7,233.7c-0.2,3-1.8,5.1-4.9,5.3
		c-3.1,0.2-5.2-1.8-5.6-4.6c-0.8-5.8-0.8-11.6,0-17.4c0.4-2.7,2.4-4.4,5.3-4.3c2.9,0.1,4.7,1.9,5.1,4.6c0.4,2.9,0.1,6,0.1,8.9
		c0,0,0.1,0,0.1,0C500.7,228.7,500.9,231.2,500.7,233.7z"/>
	<path class="st3" d="M138.9,360.8c-0.6-6.4-5.1-10.5-11.2-10.4c-5.8,0.1-10.4,4.2-10.8,10.3c-0.3,5-0.3,10,0,15
		c0.4,6.2,4.8,10.2,10.7,10.3c6.2,0.2,10.7-3.8,11.3-10.2c0.3-2.5,0-5,0-7.5C138.9,365.8,139.1,363.2,138.9,360.8z M132.8,377.6
		c-0.5,2.6-2.4,3.8-5.1,3.7c-2.7-0.1-4.4-1.7-4.8-4.2c-0.5-2.9-0.5-5.9-0.7-8.5c0.2-3.4,0.2-6.4,0.6-9.4c0.4-2.6,2.1-4.1,4.8-4.2
		c2.7-0.1,4.6,1.2,5.2,3.7C134,365.1,133.9,371.4,132.8,377.6z"/>
	<path class="st7" d="M565.9,464.4c-4.6,0-7.3,2.9-7.2,8.1c0,5.2,2.5,8,7.3,8c4.7,0,7.4-2.9,7.3-8
		C573.2,467.4,570.5,464.4,565.9,464.4z M566.3,476.9c-2.7,0.1-3.7-1.7-3.6-3.8c0-2.7,0.1-4.9,3.1-5c3-0.1,3.3,2.1,3.3,4.4
		C569.1,474.7,568.8,476.8,566.3,476.9z"/>
	<path class="st7" d="M535.4,227.4c-4.6,0-7.4,3.1-7.4,8.1c0,5,2.8,7.9,7.5,7.9c4.7,0,7.3-2.9,7.3-8
		C542.8,230.4,540,227.4,535.4,227.4z M535.3,240c-2.4-0.1-3.3-2-3.3-4.2c0-2.3,0.4-4.6,3.3-4.6c2.9-0.1,3.4,2.1,3.5,4.4
		C538.8,238,538,240.1,535.3,240z"/>
	<path class="st7" d="M519,208.1c-4.8-0.1-7.4,2.6-7.5,7.8c-0.1,5,2.6,8.1,7.1,8.2c4.6,0.1,7.4-2.8,7.5-7.9
		C526.2,211,523.7,208.2,519,208.1z M522,216.4c0,2.2-0.4,4.1-3.1,4.1c-2.9,0-3.3-2.1-3.3-4.4c0-2.4,0.6-4.6,3.4-4.4
		C521.7,211.8,522.1,214.1,522,216.4z"/>
	<path class="st7" d="M151.2,350.5c-4.5,0.1-7.3,3.2-7.3,8.2c0,5,2.7,7.8,7.6,7.8c4.7,0,7.3-3,7.3-8.1
		C158.7,353.4,155.8,350.4,151.2,350.5z M151.4,363.1c-2.6,0-3.5-2-3.5-4.4c0-2.3,0.4-4.4,3.3-4.5c2.9-0.1,3.3,2.2,3.5,3.5
		C154.8,360.9,154.1,363.1,151.4,363.1z"/>
	<path class="st8" d="M582.5,483.8c-4.6,0-7.4,3.1-7.5,8c0,4.9,2.8,7.9,7.5,8c4.7,0,7.3-2.8,7.3-8
		C589.8,486.8,587.1,483.8,582.5,483.8z M582.3,496.3c-2.6-0.1-3.2-2.1-3.2-4.2c0-2.3,0.5-4.6,3.3-4.6c2.8,0,3.4,2.2,3.4,5.2
		C585.8,494.3,585.3,496.5,582.3,496.3z"/>
	<path class="st4" d="M167.7,369.9c-4.5,0.1-7,2.8-7.1,7.8c-0.1,5.3,2.4,8.1,7.2,8.1c4.7,0,7.5-2.9,7.4-8
		C175.3,372.7,172.5,369.8,167.7,369.9z M171.1,378.3c-0.1,2.1-0.3,4.1-3.1,4.1c-2.9-0.1-3.3-2.1-3.3-4.5c0-2.4,0.6-4.6,3.4-4.4
		C170.9,373.7,171.1,376,171.1,378.3z"/>
</g>
</svg>
