<?xml version="1.0" encoding="utf-8"?>
<!-- Generator: Adobe Illustrator 19.0.0, SVG Export Plug-In . SVG Version: 6.00 Build 0)  -->
<svg version="1.1" id="Calque_1" xmlns="http://www.w3.org/2000/svg" xmlns:xlink="http://www.w3.org/1999/xlink" x="0px" y="0px"
	 viewBox="0 0 612 792" style="enable-background:new 0 0 612 792;" xml:space="preserve">
<style type="text/css">
	.st0{fill:#EB6958;}
	.st1{fill:#F57737;}
	.st2{fill:#FAAF40;}
	.st3{fill:#232323;}
	.st4{fill:#242424;}
	.st5{fill:#262626;}
	.st6{fill:#252525;}
</style>
<g>
	<path class="st0" d="M282.8,376.8c0-8.2-0.2-15.5,0.1-22.8c0.2-3.9-1.1-4.7-4.8-4.7c-43,0.1-86,0.1-129,0.1
		c-21.2,0-42.3-0.1-63.5,0.1c-4,0-5-1.2-4.9-5.1c0.2-22.3,0.2-44.7-0.1-67c0-4.2,1.2-5.2,5.3-5.2c63.6,0.1,127.3,0.1,190.9,0.2
		c4.8,0,6.4-1.1,6-6c-0.5-6.8-0.1-13.6-0.1-21.6c38.3,22.1,75.9,43.8,114.1,65.9C358.9,332.9,321.3,354.6,282.8,376.8z"/>
	<path class="st1" d="M354.6,439c-0.4,1.7-1.5,1.9-2.3,2.4c-35.3,20.4-70.6,40.7-105.9,61.1c-5.2,3-5.2,3-5.2-3.2
		c0-5.7-0.1-11.3,0.1-17c0.1-2.9-0.6-4.1-3.8-4.1c-18.1,0.1-36.3,0-54.4,0c-23.5,0-46.9-0.1-70.4-0.1c-9.3,0-18.6-0.2-28,0
		c-3.3,0.1-3.8-1-3.8-3.9c0.1-23,0.1-46,0-69c0-2.9,0.6-4.1,3.8-4.1c26,0.1,51.9,0.1,77.9,0c25,0,49.9-0.2,74.9-0.2
		c3.4,0,3.8-1.4,3.7-4.2c-0.1-7.4,0-14.9,0-23.3C279.5,395.6,317.1,417.3,354.6,439z"/>
	<path class="st2" d="M316.3,568.1c-10.3,6-20.1,11.7-30.1,17.4c-26.5,15.3-53,30.6-79.5,46c-3.4,2-4.8,2.3-4.6-2.5
		c0.3-6-0.2-12,0.1-18c0.2-3.8-1-4.8-4.7-4.7c-36.3,0.1-72.6,0.1-108.9,0.1c-7.8,0-7.9,0-7.9-7.9c0-21.3,0.1-42.6-0.1-64
		c0-4.1,1.1-5.3,5.3-5.2c37,0.2,73.9,0,110.9,0.2c4.5,0,5.8-1.2,5.5-5.6c-0.4-5.8,0.1-11.7-0.2-17.5c-0.1-3.8,0.7-4.3,4-2.4
		c18.4,10.7,36.9,21.3,55.3,32c17.3,10,34.6,20,51.9,30C314.3,566.6,315,567.2,316.3,568.1z"/>
	<path class="st3" d="M39,439c0-60.8,0-121.7-0.1-182.5c0-4.3,0.8-5.9,5.4-5.5c5.1,0.4,10.3,0.4,15.5,0c3.9-0.2,5.1,0.8,5,4.9
		c-0.2,31.7-0.1,63.3-0.1,95c0,90.3-0.1,180.7,0.1,271c0,4.9-1.2,6.4-6,6c-5-0.4-10-0.4-15,0c-4,0.3-4.9-1.1-4.9-4.9
		C39,574.1,39,525.3,39,476.5C39,464,39,451.5,39,439z"/>
	<path class="st4" d="M429.6,308.9c7.5,5.6,9.7,12.2,6.6,19.8c-2.8,6.7-11.2,10.9-19.6,9.5c-6.2-1-12-3.2-14.6-9.7
		c-0.7-1.7-2.6-4.8,0.3-5.4c2.5-0.5,6.6-2.7,8.3,2.3c1.6,4.6,5.4,6.1,10,5.6c4.8-0.5,7.6-3.8,7.7-8.8c0.1-5.5-2-8.2-7.1-9.1
		c-1.3-0.2-2.6-0.3-4-0.3c-2.4,0-4.4,0.4-4.3-3.4c0-3.6,1.4-3.9,4.4-3.9c7.2,0,9.5-1.6,10.1-6.9c0.6-4.9-1.3-8.2-5.4-9.4
		c-4.6-1.3-9.1,0.3-10.7,4.7c-1.9,4.9-5.9,2.7-8.3,2.2c-2.5-0.5-0.9-3.6-0.1-5.5c3.5-7.9,14.5-11.5,24.2-8
		c7.3,2.6,11.2,10.1,9.2,17.7C435.2,304.2,432.6,306.6,429.6,308.9z"/>
	<path class="st3" d="M367.3,461.2c7.1,0,13,0,18.9,0c2.4,0,5.2-1.1,5.3,3.5c0.1,4.9-2.9,3.7-5.5,3.7c-8.3,0-16.6,0.1-25-0.1
		c-1.7,0-4.4,1.4-5.1-1.2c-0.6-2.3-0.6-4.8,1.4-7c5.5-6,10.7-12.3,16-18.5c2.4-2.8,4.7-5.6,6-9.1c2-5.3,0.5-10.5-3.5-12.1
		c-5.3-2-10,0.5-11.7,6.7c-1.3,4.9-5,2.2-7.3,2.3c-3.6,0.1-1.7-3-1.3-4.5c1.7-7,6.5-11.2,13.5-12.2c7.1-1.1,13.9-0.1,18.2,6.4
		c4,6,3.3,12.3-0.5,18.3C381.3,445.8,374.3,452.7,367.3,461.2z"/>
	<path class="st4" d="M338.9,568.4c0,8.2-0.2,16.3,0.1,24.5c0.1,3.8-2,3.5-4.4,3.4c-2.3-0.1-5,1-5-3.3c0.2-13-0.1-26,0.2-39
		c0.1-3.9-1.1-5.1-4.7-4.5c-1.1,0.2-2.3,0-3.5,0c-2.1,0.1-4.1,0.3-3.7-2.9c0.3-2.2-0.6-4.7,3.1-4.9c4.8-0.2,9.6-0.7,14.4-1.3
		c3.1-0.4,3.6,0.8,3.5,3.5C338.8,552.1,338.9,560.2,338.9,568.4z"/>
	<path class="st5" d="M415.2,591.5c-1.7-1.1-4.5-1.3-2.2-4.8c8.1-12.5,16-25.2,23.8-38c1.3-2.1,2.2-2.2,4.2-1.1
		c2.1,1.2,1.6,2.3,0.6,3.8c-7.9,12.6-15.8,25.3-23.7,38C417.1,590.4,416.8,591.7,415.2,591.5z"/>
	<path class="st6" d="M502.4,333.3c-1.3-0.8-2.6-1.3-3.6-2.2c-1-0.9,0-1.8,0.5-2.6c8-12.9,16.2-25.9,24.2-38.8
		c1.3-2.1,2.4-1.5,4-0.6c2,1.1,1.4,2.1,0.5,3.6c-8.1,12.9-16.1,25.9-24.2,38.8C503.5,332.2,502.9,332.7,502.4,333.3z"/>
	<path class="st6" d="M482.7,422.1c-0.5,0.7-0.9,1.4-1.4,2.1c-7.7,12.4-15.5,24.8-23.1,37.2c-1.1,1.9-1.9,3.2-4.5,1.7
		c-2.7-1.6-1.2-2.9-0.2-4.4c7.8-12.5,15.6-25.1,23.4-37.6c0.8-1.2,1.3-3,3.3-1.6C481.1,420.3,482.8,420.3,482.7,422.1z"/>
	<path class="st4" d="M394,554.8c-1.5-9.1-8.2-14.5-17.5-14.4c-9.2,0-15.8,5.5-17.5,14.5c-0.8,4.4-0.5,9-0.7,13.4
		c0.2,4.5,0.1,9,0.8,13.4c1.3,9.4,8,15.1,17.4,15.2c9.3,0.2,16.3-5.4,17.6-14.9C395.4,573,395.4,563.8,394,554.8z M384.9,581.5
		c-0.3,5.2-3.8,8-8.5,8c-4.6-0.1-7.7-3.1-8.4-8.2c-0.3-2.1-0.2-4.3-0.2-6.5c0-2.2,0-4.3,0-6.5c0.1,0,0.1,0,0.2,0c0-4-0.3-8,0.1-12
		c0.4-5.5,3.8-8.7,8.4-8.8c4.7-0.1,8.3,2.9,8.6,8.5C385.4,564.5,385.3,573,384.9,581.5z"/>
	<path class="st3" d="M481,310c0-4.2,0.3-8.3-0.1-12.5c-0.8-9.1-7.5-15.4-16.2-16c-9-0.6-16.7,4.2-18.5,12.6
		c-2.1,10.3-2.1,20.9,0,31.2c1.6,8,8.5,12.9,16.8,13c8.4,0.1,14.7-4.5,17.2-12.4C481.8,320.7,481,315.3,481,310z M471.9,321
		c-0.4,6.2-3.5,9.7-8.4,9.9c-5.1,0.2-8.5-2.9-8.9-9.3c-0.5-7.8-0.5-15.7,0-23.4c0.4-6.3,4-9.4,9.1-9.1c5,0.2,8.1,3.8,8.4,9.9
		c0.2,3.5,0,7,0,10.5c0,0,0,0,0,0C471.9,313.3,472.1,317.1,471.9,321z"/>
	<path class="st3" d="M434,426.4c-1.6-8.5-8-13.6-16.5-13.8c-8.8-0.3-15.4,4.5-17.8,12.9c-1.5,5.1-0.7,10.2-0.7,15.4
		c0,4.2-0.3,8.3,0.1,12.5c0.9,9.2,7.8,15.6,16.8,16c9.4,0.4,16.6-4.8,18.2-14.2C435.7,445.7,435.7,436,434,426.4z M425.1,453.8
		c-0.7,5.5-3.7,8.1-8.4,8.1c-4.8,0-8.1-3.1-8.6-8.6c-0.4-4.1-0.1-8.3-0.1-12.5c0,0,0,0,0,0c0-3.8-0.2-7.7,0.1-11.5
		c0.4-5.9,3.5-9.1,8.5-9.3c5-0.1,8.3,2.7,8.8,8.8C425.9,437.1,426.2,445.5,425.1,453.8z"/>
	<path class="st6" d="M414.3,540.2c-7.7,0-11.8,4.4-11.9,12.7c-0.1,8.1,3.9,12.6,11.3,12.7c7.8,0.1,12.1-4.2,12.2-12.4
		C426,545.1,421.7,540.3,414.3,540.2z M414,560.2c-4.6-0.2-5.3-3.7-5.2-7.6c-0.1-3.8,1-7,5.3-6.9c4.7,0.1,5.2,3.8,5.1,7.6
		C419.3,557,418.4,560.3,414,560.2z"/>
	<path class="st6" d="M527,312.6c-7.1,0-11.4,4.8-11.4,12.8c0,8.4,4.1,13,11.6,13.1c7.5,0,11.7-4.7,11.7-13
		C538.9,317.3,534.4,312.5,527,312.6z M527.4,332.6c-4.8,0-5.5-3.4-5.5-7.2c0-3.6,0.6-6.9,5.1-7c5-0.1,5.3,3.5,5.4,7.1
		C532.3,329,532.2,332.6,527.4,332.6z"/>
	<path class="st6" d="M480.7,443.6c-7.3,0-11.7,4.9-11.7,13.1c0,8.1,4.5,12.8,12.1,12.7c7.3-0.1,11.3-4.7,11.3-12.8
		C492.5,448.4,488.2,443.6,480.7,443.6z M480.8,463.6c-4.9-0.1-5.2-3.8-5.3-7.4c-0.1-3.5,0.6-6.9,5.1-6.9c4.8,0,5.4,3.4,5.4,5.7
		C486,460.2,485.7,463.7,480.8,463.6z"/>
	<path class="st4" d="M500.7,281.5c-7.3-0.1-11.6,4.6-11.7,12.4c-0.1,8.6,4.2,13.4,11.9,13.3c7.3-0.1,11.4-4.6,11.4-12.7
		C512.3,286.2,508.2,281.6,500.7,281.5z M500.6,301.5c-4.8-0.1-5.2-3.9-5.3-7.4c-0.1-3.5,0.8-6.8,5.2-6.9c4.8-0.1,5.3,3.5,5.5,7
		C506,298.1,505.5,301.6,500.6,301.5z"/>
	<path class="st4" d="M454.2,412.5c-7.2,0-11.5,4.6-11.6,12.5c-0.1,8.4,3.8,13,11.4,13.2c7.2,0.2,11.8-4.5,11.9-12.2
		C466,417.4,461.7,412.5,454.2,412.5z M454.3,432.6c-4.8-0.1-5.2-3.7-5.3-7.1c0-3.8,0.7-7.1,5.1-7.2c4.7-0.1,5.5,3.4,5.5,7.1
		C459.6,429.1,459.1,432.7,454.3,432.6z"/>
	<path class="st4" d="M440.8,571.4c-7.7-0.1-11.8,4.3-11.9,12.7c0,8.2,4.3,13,11.7,12.9c7.4,0,11.5-4.5,11.6-12.5
		C452.3,576,448.3,571.4,440.8,571.4z M440.9,591.4c-3.6,0.3-5.8-2.8-5.7-7.7c0.1-3.7,1.1-6.9,5.4-6.8c4.6,0.1,5.4,3.5,5.4,6.8
		C445.9,587.8,445.3,591,440.9,591.4z"/>
</g>
</svg>
