<?xml version="1.0" encoding="utf-8"?>
<!-- Generator: Adobe Illustrator 19.0.0, SVG Export Plug-In . SVG Version: 6.00 Build 0)  -->
<svg version="1.1" id="Calque_1" xmlns="http://www.w3.org/2000/svg" xmlns:xlink="http://www.w3.org/1999/xlink" x="0px" y="0px"
	 viewBox="0 0 612 792" style="enable-background:new 0 0 612 792;" xml:space="preserve">
<g>
	<path d="M348.7,652.8c-5.2,0-10.1,0-15.5,0c0-2.2,0-4.2,0-6.1c0-37.8,0.5-75.7-0.1-113.5c-0.8-43.5-21.6-74.8-60.3-94.4
		c-1.2-0.6-2.4-1.1-3.7-1.6c-0.4-0.2-1,0-1.9,0c-6,27.1-12.1,54.1-18.3,82.2c-9.5-12.6-18.3-24.4-27.3-36.3
		c-5.6,6.3-8.9,12.2-7,21.3c5.3,25.9,9.3,52.1,13.9,78.1c0.6,3.4,0.2,5.9-2.2,8.6c-9.8,11.1-19.3,22.4-29.3,34
		c-8.1-9.5-15.5-18.9-23.8-27.4c-6.7-6.8-8.5-13.4-6.5-23c5.2-24.6,8.7-49.5,13.3-74.2c1.5-7.8-4.2-11.6-7.3-17.8
		c-9.3,12.4-18.1,24.1-27.6,36.8c-6.3-28.1-12.3-55.1-18.4-82.7c-1.9,0.7-3.5,1.1-4.9,1.9C83.1,458,61.9,489.2,61,532.7
		c-0.8,38-0.2,76-0.2,114c0,2,0,3.9,0,6.1c-5.4,0-10.3,0-15.7,0c0-2.1,0-4.1,0-6c0-36.7,0-73.3,0-110c0-55.2,30.4-98.6,82.2-117.3
		c0.7-0.3,1.5-0.6,2.9-1.1c-1.6-1.2-2.7-2-3.8-2.8C99.8,397.9,85.7,373,85.3,341c-0.4-32.2-0.3-64.3-0.1-96.5
		c0.3-48,39.3-86.8,87.4-87.2c14.7-0.1,29.3-0.1,44,0c26.4,0.1,46.8,14.6,55.1,39.6c1.4,4.1,2.7,6,7.6,5c3.4-0.8,7.3-0.1,10.9,0.6
		c3.5,0.7,6.9,2.3,10.5,3.7c9.7-11.4,21-21.2,33.9-29.1c82.6-49.9,189.4-0.3,204.5,95.1c10.8,68-31,133.1-97.5,151.6
		c-3.8,1.1-5.1,2.5-4.8,6.4c0.3,4.8,0.1,9.6,0.1,15c5.4,0,10.4,0,15.7,0c0,5.5,0,10.4,0,15.7c-5.1,0-10.1,0-15.7,0
		c0,2.3,0,4.3,0,6.2c0,40.3,0,80.7,0,121c0,16.2-10.2,28.9-25.4,32.1c-20,4.2-38.3-10.7-38.3-31.5c-0.1-40.3,0-80.7,0-121
		c0-2,0-4,0-6.6c-5.3,0-10.4,0-15.7,0c0-5.5,0-10.4,0-15.7c5.1,0,10,0,15.3,0c0-6.8,0-13.2,0-20.3c-25.9-6.7-48.5-19.7-67.6-40.2
		c-9.1,14.8-20.9,26.4-37.2,34.8c2.6,1.1,4.3,1.9,6,2.6c44.3,18,74.3,61.3,74.7,108.9c0.3,39.3,0.1,78.7,0.1,118
		C348.9,650.3,348.8,651.4,348.7,652.8z M316.8,348.7c-1.2,5.9-1.9,11.1-3.5,16.2c-1.1,3.5-0.4,5.8,2,8.4
		c30.4,32.3,67.4,45.4,111.2,38.1c65.7-10.9,110.5-77.6,96.1-142.6c-14.3-64.8-74.8-105.3-140.2-93.5c-27.3,4.9-50.1,18.5-68.3,39.4
		c-1,1.1-2,3-1.7,4.2c1.6,5.9,3.7,11.8,5.5,17.2c29.6-39.2,68.5-56,117-41.8c41.4,12.1,66.2,41.7,72.6,84.3
		c6.1,40.5-9.5,73.1-41.5,98.9c-3.3-4.5-6.2-8.5-9-12.5c44.3-33.7,44.6-91.2,18.2-125.2c-26.7-34.5-74-44.9-112.1-24.2
		c-38.5,20.9-56,66.5-41,107.5c7.4,20.3,20.6,36.1,39.5,46.7c25.6,14.4,52.2,15.1,79.6,4.1c2.2,4.8,4.2,9.2,6.2,13.6
		C415.8,403.9,353.3,403.2,316.8,348.7z M100.7,278.7c5.2-3.4,9.3-6.1,13.3-8.9c12.7-8.8,26.6-14.8,42-15.7
		c14.3-0.8,28.6-0.8,43-0.6c13.9,0.2,27.1-2.4,39.9-7.8c8.5-3.6,17.2-6.8,25.9-10.3c3.6,7.2,6.8,13.9,10.3,20.5
		c5.3,10.1,14.7,14.7,26.1,12.8c0-10.7,0.1-21.5,0-32.3c-0.1-15.4-15.1-23.9-28.6-16.3c-2.5,1.4-5.1,2.9-7.9,4.5
		c-2.8-8.3-5.3-16.1-8-23.8c-6.1-17.5-20.6-27.7-39.1-27.8c-15,0-30-0.1-45,0c-29.5,0.1-55.7,18.3-66.8,45.7
		C98.1,237.9,101.9,257.8,100.7,278.7z M100.9,325.2c0,5.4,0,10.4,0,15.3c0.1,40.8,31.8,72.6,72.5,72.8c18.2,0.1,36.3-0.3,54.5,0.1
		c39.6,0.8,80.3-32.6,72.7-88.1c-5.1,0-10.1,0-15.4,0c-0.2,1-0.3,1.8-0.4,2.6c-2.6,16.6-13.9,27.8-29.5,29.1
		c-15,1.3-27.9-8.2-33.2-24.1c-0.5-1.6-2.2-3.3-3.7-4.1c-9.9-4.7-20.1-5.2-30.6-2c-4.5,1.4-7.5,3.3-9,8.5
		c-4,13.8-17.7,22.7-31.7,21.7c-14.4-1-26.2-11.3-29-25.4c-0.4-2.1-0.8-4.2-1.2-6.4C111.6,325.2,106.6,325.2,100.9,325.2z
		 M257.4,255.1c-5.7,2.2-10.7,4.1-15.6,6.1c-13.1,5.4-26.8,7.9-40.9,7.8c-11.7,0-23.3,0.1-35,0c-14.9-0.1-28.6,4.1-41,12.3
		c-5.7,3.8-11.4,7.6-17,11.4c-8,5.3-8.4,6.4-6.3,16.7c4.9,0,9.9-0.2,14.8,0.1c3.5,0.2,5.6-1,7.8-3.8c14.1-17.9,40.8-15.9,52.3,3.7
		c0.7,1.3,1.5,2.5,2.3,4.1c14.9-5.8,29.7-5.4,44.1,0.1c0.6-0.7,0.9-0.9,1-1.2c10.3-22.6,40.8-25.8,55.2-5.1c0.6,0.9,1.7,1.9,2.6,1.9
		c6.4,0.2,12.8,0.1,19,0.1c0-8.6,0-16.3,0-24.2C279,285.7,265.3,274.9,257.4,255.1z M389.1,461.2c-0.1,1.3-0.2,2.1-0.2,2.9
		c0,41.7,0,83.3,0,125c0,1.5,0.2,3,0.6,4.4c2.2,8,9.9,12.9,18,11.7c7.9-1.2,13.7-8,13.7-16.6c0-41.2,0-82.3,0-123.5
		c0-1.3-0.2-2.5-0.4-4C410.2,461.2,399.9,461.2,389.1,461.2z M197,601.2c4.7-5.5,9-10.1,12.8-15.2c1.4-1.9,2.4-4.9,2.1-7.1
		c-4.1-24.9-8.5-49.8-12.9-74.7c-0.2-1.1-1.2-2-1.9-3.1c-0.7,1-1.8,1.8-2,2.9c-4.4,25-8.8,50.1-13.1,75.2c-0.3,1.6-0.2,3.9,0.7,5.1
		C187.2,589.9,191.9,595.2,197,601.2z M141.4,431c4,17.8,7.7,34.2,11.6,51.8c5.3-7,9.7-12.8,14-18.7c3.7-5,9.9-9.9,10.3-15.2
		c0.4-5.4-4.9-11.3-7.6-16.9c-0.1-0.1-0.1-0.4-0.2-0.4c-1.4-0.9-2.9-2.5-4.3-2.4C157.6,429.5,150.1,430.3,141.4,431z M252.5,431.4
		c-6.5-0.8-12.4-1.4-18.3-2.3c-6-0.9-10.1,0.7-12.1,7c-1.1,3.4-3,6.7-4.8,9.8c-1.6,2.7-1.3,4.6,0.7,7.1c6.5,8,12.6,16.3,18.9,24.4
		c1.1,1.5,2.3,3,4.2,5.3C245,465.1,248.7,448.6,252.5,431.4z M149.2,341.3c8.9-0.1,16.1-7.3,16-16.3c-0.1-8.9-7.3-16-16.3-16
		c-8.9,0.1-16,7.3-16,16.3C133,334.2,140.2,341.4,149.2,341.3z M253.1,341.3c8.9-0.1,16.1-7.3,16-16.3c-0.1-8.9-7.3-16.1-16.3-16
		c-8.9,0.1-16.1,7.3-16,16.2C237,334.2,244.2,341.4,253.1,341.3z M420.9,428.6c-10.7,0-21,0-31.6,0c0,5.4,0,10.9,0,16.4
		c10.8,0,21.1,0,31.9,0c0-4.8,0-9.2,0-13.7C421.2,430.4,421,429.4,420.9,428.6z M211.2,469.9c-5.8-8.8-5.8-8.3-16.1-9
		c-6.3-0.4-8.9,3.4-10.9,7.5c-0.8,1.6,1.6,5.1,2.8,7.5c1,1.9,2.4,3.6,3.6,5.4c4,5.9,9.1,5.9,13.1,0
		C206,477.6,208.5,473.8,211.2,469.9z M208.2,429.3c-7.8,0-14.7,0-22.4,0c2.5,5.1,4.7,9.7,7.1,14.2c1.6,2.9,6.6,2.7,8.2-0.2
		C203.5,439,205.6,434.5,208.2,429.3z"/>
	<path d="M101.4,541.6c5.2,0,10.1,0,15.2,0c0,37.2,0,74,0,111.2c-5.2,0-10.1,0-15.2,0C101.4,615.6,101.4,578.8,101.4,541.6z"/>
	<path d="M277.6,573.6c5,0,9.7,0,14.9,0c0,26.2,0,52.5,0,79.1c-4.7,0-9.6,0-14.9,0C277.6,626.6,277.6,600.4,277.6,573.6z"/>
	<path d="M292.5,556.8c-4.9,0-9.7,0-14.9,0c0-4.8,0-9.7,0-15c4.6,0,9.5,0,14.9,0C292.5,546.4,292.5,551.3,292.5,556.8z"/>
	<path d="M413,349.1c0,5.5,0,10.4,0,15.7c-5.3,0-10.2,0-15.6,0c0-4.9,0-9.9,0-15.7c-5.8,0-11.2,0.1-16.6,0
		c-17.4-0.4-31.3-14.2-31.4-31.4c4.9,0,9.9,0,13.6,0c3.1,4.5,4.9,9.7,8.6,12.2c3.8,2.5,9.3,3.2,14.1,3.4c14,0.4,28,0.2,42,0.1
		c10.4,0,17.6-6.8,17.5-16.4c-0.1-9.3-7.3-15.9-17.5-15.9c-15.7,0-31.3,0.1-47-0.1c-16.2-0.2-29.1-12-31.3-28.1
		c-2.1-14.8,7.8-30.4,22.6-34c7.8-1.9,16.2-1.5,24.9-2.2c0-4.5,0-9.6,0-15c5.5,0,10.4,0,15.7,0c0,4.9,0,9.9,0,15.7
		c5.8,0,11.2-0.1,16.6,0c17.4,0.3,31.3,14.1,31.4,31.4c-4.9,0-9.8,0-13.6,0c-3-4.5-4.9-9.7-8.6-12.2c-3.8-2.5-9.3-3.2-14.1-3.4
		c-14-0.4-28-0.2-42-0.1c-10.4,0-17.6,6.8-17.5,16.4c0.1,9.3,7.3,15.9,17.4,15.9c15.2,0,30.3,0,45.5,0c18.6,0.1,32.9,13.8,33,31.6
		c0.1,18-14.3,32-33.2,32.1C423.1,349.1,418.4,349.1,413,349.1z"/>
</g>
</svg>
