<?xml version="1.0" encoding="utf-8"?>
<!-- Generator: Adobe Illustrator 19.0.0, SVG Export Plug-In . SVG Version: 6.00 Build 0)  -->
<svg version="1.1" id="Calque_1" xmlns="http://www.w3.org/2000/svg" xmlns:xlink="http://www.w3.org/1999/xlink" x="0px" y="0px"
	 viewBox="0 0 612 792" style="enable-background:new 0 0 612 792;" xml:space="preserve">
<style type="text/css">
	.st0{fill:#E20613;}
</style>
<g>
	<path d="M288,619c-13.1-4.5-26-9.6-38.6-15.5c-33.8-15.9-67.6-31.9-101.4-47.8c-13.5-6.3-27.5-10.8-42.5-11.8
		c-5.1-0.3-8.1-3.5-9.4-8.3c-0.5-1.9-0.6-3.9-0.6-5.9c0-32,0-64,0-96c0-7.9,2.1-10.7,9.6-13.1c34.6-10.8,70-16.3,106.3-14.6
		c24.8,1.2,48.6,7.4,70,19.6c21.5,12.3,44.5,15.8,68.4,17.3c23.5,1.4,46.6,5.1,68.9,12.8c23,8,28,34.2,9.5,50.3
		c-4.9,4.3-11,5.2-17.2,5.8c-18.5,2-36.9-0.4-55.4-1.5c-17.3-1.1-34.4-4.8-51.8-3.5c-4.4,0.3-8.8,0.8-13.3,1.2
		c0.1,1.7,1.5,1.7,2.5,2.1c12.7,4.5,24.5,11.2,37.6,14.6c18.1,4.8,36.6,4.5,55.1,2.7c14.1-1.3,28.2-2.4,41.9-6.5
		c11.7-3.5,21.8-9.7,30.7-17.9c13.1-12,27.9-20.4,46.4-20.3c6.3,0,12.2,1.9,17.2,5.7c7.8,5.8,8.8,14.1,2.9,21.6
		c-1.4,1.8-3,3.5-4.5,5.4c9.6,3.6,11.6,9.3,6,17.9c-5.4,8.2-12.6,14.7-20.2,20.7c-18,14.3-37.5,26.4-56.7,39.1
		c-9.3,6.2-20,8.2-31.1,9.7c-25.6,3.4-51,7.6-76.5,11.5c-9.9,1.5-19.7,3.1-29.7,3.8c-0.8,0.1-1.7-0.2-2.1,0.9
		C302.7,619,295.3,619,288,619z"/>
	<path class="st0" d="M386,107c3.8,1.6,7.9,2.4,11.4,4.6c10.7,6.7,16.6,16.1,16.9,28.8c0.2,8,0.3,16,0,24c-0.2,4.1,0.9,5.4,5.2,5.3
		c29.3-0.2,58.6-0.1,88-0.1c14.4,0,20.6,6.2,20.6,20.7c0,47.6-0.1,95.3,0.1,142.9c0,4.1-0.9,5.2-5.1,5.2c-44.3-0.2-88.6-0.1-132.9,0
		c-3.8,0-5.2-0.8-5-4.9c0.3-10.2,0.2-20.3,0.1-30.5c-0.1-10.2-6.9-17.4-17.1-17.7c-11.7-0.3-23.3-0.3-35,0c-10.2,0.3-17,7.6-17,17.8
		c-0.1,10.3-0.1,20.7,0,31c0,3.1-0.5,4.3-4,4.3c-45.1-0.1-90.3-0.1-135.4,0c-2.8,0-3.6-0.8-3.6-3.6c0.1-49.3,0-98.6,0.1-147.9
		c0-10.2,7.5-17.2,18.1-17.2c30-0.1,60-0.2,90,0.1c4.7,0,6-1.3,5.7-5.8c-0.4-7-0.1-14-0.1-21c0-18.2,9.5-30.5,27.1-35.2
		c0.4-0.1,0.8-0.5,1.2-0.8C338.7,107,362.3,107,386,107z"/>
	<path class="st0" d="M244.4,352.6c22.3,0,44.7,0.1,67-0.1c3.8,0,4.7,1,4.7,4.7c-0.1,10.9,6.9,17.8,17.7,18
		c11.2,0.1,22.3,0.1,33.5,0c10.7-0.1,17.8-7.1,17.8-17.9c0-3.7,0.9-4.8,4.7-4.8c44.7,0.1,89.3,0.1,134,0c3.4,0,4.5,0.8,4.4,4.4
		c-0.2,22.5,0,45-0.1,67.5c0,10.7-7.1,17.8-17.9,17.9c-30.5,0.1-61,0.4-91.5-0.2c-7.6-0.1-15.2-3.4-22.8-5
		c-19.3-4.2-38.9-5.5-58.5-7c-15-1.2-29.3-4.7-43-11.7c-23.5-12.1-48.1-21.1-74.6-23.9c-13.9-1.5-28-0.9-41.9,0.5
		c-3.9,0.4-5.1-0.4-5-4.5c0.3-11,0.3-22,0-33c-0.1-4.1,1.3-4.8,5-4.8C200.1,352.7,222.2,352.6,244.4,352.6z"/>
	<path class="st0" d="M22.9,482.1c0-24.3,0-48.7,0-73c0-9,3.4-12.4,12.3-12.5c11.3,0,22.7-0.1,34,0c7.8,0,11.7,3.9,11.7,11.6
		c0,49.2,0,98.3,0,147.5c0,8-4,12.1-11.9,12.1c-11.5,0.1-23,0.1-34.5,0c-7.8-0.1-11.6-4-11.6-11.8C22.9,531.4,22.9,506.8,22.9,482.1
		z"/>
	<path class="st0" d="M367.9,330.4c0,7.7-0.1,15.3,0.1,23c0.1,2.7-0.5,3.8-3.5,3.8c-9.3-0.2-18.7-0.1-28,0c-2.5,0-3.5-0.6-3.5-3.3
		c0.1-15.8,0.2-31.6,0-47.5c0-3,1.1-3.6,3.8-3.5c9.2,0.1,18.3,0.1,27.5,0c2.8-0.1,3.7,0.8,3.6,3.6
		C367.8,314.4,367.9,322.4,367.9,330.4z"/>
</g>
</svg>
