<?xml version="1.0" encoding="utf-8"?>
<!-- Generator: Adobe Illustrator 19.0.0, SVG Export Plug-In . SVG Version: 6.00 Build 0)  -->
<svg version="1.1" id="Calque_1" xmlns="http://www.w3.org/2000/svg" xmlns:xlink="http://www.w3.org/1999/xlink" x="0px" y="0px"
	 viewBox="0 0 612 792" style="enable-background:new 0 0 612 792;" xml:space="preserve">
<style type="text/css">
	.st0{fill:#EDEDED;}
	.st1{fill:#AFBDC4;}
	.st2{fill:#263238;}
	.st3{fill:#90A3AD;}
	.st4{fill:#8FA3AD;}
	.st5{fill:#232323;}
	.st6{fill:#222222;}
	.st7{fill:#29B5F5;}
	.st8{fill:#FCD735;}
	.st9{fill:#F34336;}
</style>
<g>
	<path class="st0" d="M493,250.1c0,85.3,0,170.5,0,255.8c-2.3,2.3-5.3,1.7-8,1.7c-28.2,0.1-56.3,0-84.5,0c-80.7,0-161.3,0-242,0
		c-3.2,0-6.7,0.9-9.5-1.7c0-85.3,0-170.5,0-255.8c2.3-2.3,5.3-1.7,8-1.7c28.2-0.1,56.3,0,84.5,0c80.7,0,161.3,0,242,0
		C486.7,248.4,490.2,247.5,493,250.1z"/>
	<path class="st1" d="M493,250.1c-1.3,0-2.7-0.1-4-0.1c-112,0-224.1,0-336.1,0c-1.3,0-2.7,0.1-4,0.1c-6.6,0-13.2,0-19.8,0
		c-1.9-1.6-1.7-3.9-1.7-6c-0.1-12.1-0.1-24.1,0-36.2c0-2.1-0.1-4.4,1.7-6c80.3,0,160.5,0.1,240.8,0.1c47.6,0,95.3,0,142.9-0.1
		c1.9,1.6,1.7,3.9,1.7,6c0.1,12.1,0.1,24.1,0,36.2c0,2.1,0.1,4.4-1.7,6C506.2,250.1,499.6,250.1,493,250.1z"/>
	<path class="st1" d="M149,505.9c1.3,0,2.7,0.1,4,0.1c112,0,224.1,0,336.1,0c1.3,0,2.7-0.1,4-0.1c6.6,0,13.2,0,19.8,0
		c1.5,1.1,1.6,2.8,1.7,4.5c0.2,7.7,0.2,15.5,0,23.2c0,1.6-0.2,3.3-1.7,4.5c-47.9,0-95.8,0-143.7,0c-1.4,0-3-0.6-4.1,1
		c-7.4,1-14.7,0.7-22.1,0c-4.5-2.1-9.3-0.6-13.9-1c-5.4,2.4-10.7,2.4-16.1,0c-4.6,0.5-9.4-1.1-13.9,1c-7.4,0.6-14.7,0.9-22.1,0
		c-1.1-1.5-2.7-1-4.1-1c-47.9,0-95.8,0-143.7,0c-1.5-1.1-1.6-2.8-1.7-4.5c-0.2-7.7-0.2-15.5,0-23.2c0-1.6,0.2-3.3,1.7-4.5
		C135.8,505.9,142.4,505.9,149,505.9z"/>
	<path class="st2" d="M129.2,201.9c0,16,0,32.1,0,48.1c-0.4,7.9-0.4,7.9-8.7,7.9c-6.7,0-13.3-0.1-20,0c-2.3,0-3.6-0.2-3.6-3.1
		c0.1-19.3,0.1-38.6,0-57.9c0-2.9,1.2-3.1,3.6-3.1c7.8,0.1,15.6,0.3,23.4-0.1c4.1-0.2,5.9,0.8,5.1,5.1
		C128.9,199.9,129.1,200.9,129.2,201.9z"/>
	<path class="st2" d="M512.8,250.1c0-16,0-32.1,0-48.1c0.4-7.9,0.4-7.9,8.7-7.9c6.7,0,13.3,0.1,20,0c2.3,0,3.6,0.2,3.6,3.1
		c-0.1,19.3-0.1,38.6,0,57.9c0,2.9-1.2,3.1-3.6,3.1c-7.8-0.1-15.6-0.3-23.4,0.1c-4.1,0.2-5.9-0.8-5.1-5.1
		C513.1,252.1,512.9,251.1,512.8,250.1z"/>
	<path class="st3" d="M277,539c7.4-1.5,14.7-1.8,22.1,0c-21.3,21.3-42.7,42.6-64,64c-4.5-2.8-8.2-6.4-11-11
		C241.7,574.3,259.3,556.7,277,539z"/>
	<path class="st3" d="M343,539c7.4-1.8,14.7-1.5,22.1,0c17.7,17.7,35.3,35.3,53,53c-2.8,4.6-6.4,8.2-11,11
		C385.6,581.7,364.3,560.4,343,539z"/>
	<path class="st2" d="M129.2,505.9c0,10.7,0,21.4,0,32.1c-0.4,7.9-0.4,8-8.7,7.9c-5,0-11.6,1.7-14.4-0.8c-3.2-2.9-0.9-9.7-1-14.8
		c-0.1-9.6,0.1-19.3-0.1-28.9c0-2.8,0.7-3.8,3.5-3.6c5.1,0.2,10.3,0.4,15.4,0c4.1-0.3,5.9,0.8,5.1,5.1
		C128.9,503.9,129.1,504.9,129.2,505.9z"/>
	<path class="st2" d="M512.8,538.1c0-10.7,0-21.4,0-32.1c0.4-7.9,0.4-8,8.7-7.9c5,0,11.6-1.7,14.4,0.8c3.2,2.9,0.9,9.7,1,14.8
		c0.1,9.6-0.1,19.3,0.1,28.9c0,2.8-0.7,3.8-3.5,3.6c-5.1-0.2-10.3-0.4-15.4,0c-4.1,0.3-5.9-0.8-5.1-5.1
		C513.1,540.1,512.9,539.1,512.8,538.1z"/>
	<path class="st4" d="M312.9,538c5.4,0,10.7,0,16.1,0c-0.1,22-0.1,44.1-0.2,66.1c-5.3,2.2-10.5,2.2-15.8,0
		C313.1,582.1,313,560,312.9,538z"/>
	<path class="st5" d="M224,592c3.7,3.7,7.3,7.3,11,11c-1.9,1.9-3.6,4-5.7,5.5c-3.7,2.7-7.3,1.9-10.2-1.3c-2.8-3.1-3-6.6-0.3-9.9
		C220.3,595.3,222.2,593.7,224,592z"/>
	<path class="st5" d="M407,603c3.3-4,7-7.7,11-11c1.7,1.6,3.5,3.1,4.9,4.9c3,3.5,2.7,7.7-0.3,10.7c-3.1,3.1-7.2,3.3-10.7,0.4
		C410.1,606.5,408.6,604.6,407,603z"/>
	<path class="st6" d="M313.1,604.1c5.3,0,10.5,0,15.8,0c0,2.2,0.2,4.3,0.1,6.5c-0.3,4.7-3.6,7.6-8.2,7.4c-4.4-0.1-7.4-2.9-7.7-7.4
		C312.9,608.4,313.1,606.3,313.1,604.1z"/>
	<path class="st7" d="M313.1,490c-6.8,2.1-13.5,0.1-20-1.3c-43-9-74.7-44.6-79.3-88.5c-5.7-53.5,33.6-102.9,87-109.3
		c12.2-1.5,12.2-1.5,12.2,10.6c0.1,29.3,0.1,58.6,0.2,87.9c1.7,2,1.4,4.4,1.4,6.7c0,29.1,0,58.2,0,87.3
		C314.6,485.6,314.8,488,313.1,490z"/>
	<path class="st8" d="M313.1,490c0-33.5,0-67.1,0.1-100.6c8-8,16-16.1,24-24.1c0.6-2.2,2.1-3.7,3.6-5.2c12.7-12.6,25.3-25.3,38-37.9
		c1.4-1.4,2.4-3.7,5.1-2.8c19.1,19.9,28.9,43.7,28.9,71.2c0,49.6-38.5,92.6-87.8,98.7C321.1,489.7,317.1,490.1,313.1,490z"/>
	<path class="st9" d="M383.9,319.3c-12.3,12.1-24.5,24.2-36.8,36.3c-3.3,3.3-6.7,6.4-10,9.7c-0.1-32-0.1-64-0.2-96
		c0-2.7,0.9-3.4,3.4-3.3c24.9,1.2,46.6,9.9,64.7,27.3c2,1.9,1.7,3-0.1,4.7C397.9,305,391,312.2,383.9,319.3z"/>
</g>
</svg>
