<?xml version="1.0" encoding="utf-8"?>
<!-- Generator: Adobe Illustrator 19.0.0, SVG Export Plug-In . SVG Version: 6.00 Build 0)  -->
<svg version="1.1" id="Calque_1" xmlns="http://www.w3.org/2000/svg" xmlns:xlink="http://www.w3.org/1999/xlink" x="0px" y="0px"
	 viewBox="0 0 612 792" style="enable-background:new 0 0 612 792;" xml:space="preserve">
<style type="text/css">
	.st0{fill:#FED24E;}
	.st1{fill:#FDE69D;}
	.st2{fill:#304269;}
	.st3{fill:#90BDD3;}
	.st4{fill:#4B525F;}
	.st5{fill:#E96045;}
</style>
<g>
	<path class="st0" d="M580,366c0,10.7,0,21.3,0,32c-0.9,8.7-0.7,17.5-1.7,26.2c-1.9,16.3-6.5,31.9-12.2,47.2
		c-10.9,29.5-26.5,56.3-47.3,79.9c-25.8,29.3-56.4,52.1-92.3,67.6c-17.2,7.4-34.9,13.1-53.3,16.4c-8.7,1.6-17.5,1.7-26.3,2.2
		c-2.3,0.1-4.6-0.5-6.9,0.5c-10.7,0-21.3,0-32,0c-8.7-0.9-17.5-0.7-26.2-1.7c-16.3-1.8-31.9-6.5-47.2-12.2
		c-29.4-11-56.4-26.4-79.9-47.3c-23.6-21.1-43.8-45-58.4-73.4c-11.9-22.9-21.1-46.7-25.6-72.1c-1.7-9.8-2.1-19.8-2.2-29.8
		c-0.3-3.2,0.6-6.4-0.5-9.6c0-8.7,0-17.3,0-26c0.9-8.7,0.7-17.5,1.7-26.2c2.3-19.3,8.1-37.7,15.4-55.6
		c10.8-26.2,25.2-50.3,44.1-71.5c22.9-25.7,49.3-47,80.6-62.1c20.8-10.1,42.3-17.8,65.1-21.9c8.7-1.6,17.5-1.7,26.3-2.2
		c2.3-0.1,4.6,0.5,6.9-0.5c8.7,0,17.3,0,26,0c3.1,1.1,6.4,0.2,9.5,0.5c30.6-0.5,59.1,7.8,86.7,20.3c23,10.4,44.4,23.6,63.2,40.5
		c22.5,20.1,41.9,42.8,56.3,69.5c12.9,24,22.8,49.2,27.6,76.1c1.5,8.7,1.7,17.5,2.1,26.3C579.6,361.4,579,363.8,580,366z"/>
	<path class="st1" d="M344,126c0,0.3,0,0.6,0.1,0.9c-3.4,0.1-6.9,0.8-10.1-0.9C337.3,126,340.7,126,344,126z"/>
	<path class="st1" d="M68.9,402.1c-0.3,0-0.6-0.1-0.9-0.1c0-3.3,0-6.7,0-10C69.7,395.3,68.9,398.7,68.9,402.1z"/>
	<path class="st2" d="M484.4,281.2c4.2,3.6,6,8.2,6,13.7c0,75.1,0,150.3-0.1,225.4c0,10.6-7,17.6-17.6,17.6c-99.1,0-198.3,0-297.4,0
		c-10.6,0-17.5-7-17.5-17.6c-0.1-75.1,0-150.3,0-225.4c0-5.5,1.8-10.1,5.9-13.7c2.6-0.5,4.4,1,6.3,2.5
		c37.9,29.9,75.9,59.8,113.8,89.6c24.6,19.4,56.1,19.4,80.6,0c37.9-29.9,75.8-59.8,113.8-89.6C479.9,282.3,481.7,280.7,484.4,281.2z
		"/>
	<path class="st3" d="M484.4,281.2c-40.4,31.9-80.6,64-121.3,95.5c-23.3,18-54.9,18-78.1,0c-40.7-31.5-80.9-63.7-121.3-95.6
		c3.3-4.2,7.8-5.2,12.8-5.2c24.5,0,48.9-0.1,73.4-0.1c1.6-1.7,3.7-2,5.9-2c5.1,0,10.2-0.1,15.3,0.2c30.6-0.6,61.2-0.1,91.8-0.3
		c4.7,0,9.3-0.1,14,0.3c4.5-0.3,8.9-0.3,13.4-0.2c2.2,0,4.3,0.4,5.9,2c25.1,0.1,50.2,0.1,75.3,0.1C476.6,276,481.1,277,484.4,281.2z
		"/>
	<path class="st4" d="M271.1,275.8c-7.1,0-14.2,0-21.3,0c0-11.5-0.1-23,0-34.4c0.1-9.3,6-15.3,15.3-15.4c38.6-0.1,77.2-0.1,115.8,0
		c9.3,0,15.2,6,15.3,15.4c0.1,11.5,0,23,0,34.4c-6.4,0-12.9,0-19.3,0c-2-1.5-2-3.7-2-5.9c-0.1-4.2,0-8.3-0.1-12.5
		c-0.1-7.1-1.1-8.2-8.1-8.2c-13.2-0.1-26.3,0-39.5,0c-15.2,0-30.3,0-45.5,0c-7.6,0-8.5,1-8.6,8.7c-0.1,4.2,0,8.3-0.1,12.5
		C273.1,272.5,272.9,274.5,271.1,275.8z"/>
	<path class="st0" d="M271.1,275.8c0-7.3,0-14.6,0-21.9c0-5.4,1.4-6.9,6.7-6.9c30.8,0,61.5,0,92.3,0c5.3,0,6.7,1.5,6.7,6.9
		c0.1,7.3,0,14.6,0,21.9C341.6,275.8,306.4,275.8,271.1,275.8z"/>
	<path class="st5" d="M311,365.4c0.1-6.4,8.1-14.3,14.4-14.2c6.3,0.1,14.3,8.4,14.2,14.6c-0.1,6.4-8.3,14.3-14.6,14.2
		C318.6,379.9,310.9,371.9,311,365.4z"/>
</g>
</svg>
