<?xml version="1.0" encoding="utf-8"?>
<!-- Generator: Adobe Illustrator 19.0.0, SVG Export Plug-In . SVG Version: 6.00 Build 0)  -->
<svg version="1.1" id="Calque_1" xmlns="http://www.w3.org/2000/svg" xmlns:xlink="http://www.w3.org/1999/xlink" x="0px" y="0px"
	 viewBox="0 0 612 792" style="enable-background:new 0 0 612 792;" xml:space="preserve">
<style type="text/css">
	.st0{fill:#37484A;}
	.st1{fill:#1B8D98;}
</style>
<g>
	<path class="st0" d="M298.9,519.3c17.6,7.5,34.3,17.3,53.8,18.5c24.6,1.5,48.9-0.3,72.9-6.1c11.5-2.8,21.4-8.9,30.1-17
		c11.4-10.6,24.3-17.9,40.2-19.1c6.3-0.5,12.3,0.8,17.7,4.1c9.2,5.5,10.8,14.6,3.6,22.5c-2.6,2.9-5.1,5,0.9,6.8c3.3,1,4,4.2,3.6,7.4
		c-0.8,6.2-3.6,11.4-8.1,15.6c-5.9,5.6-12.2,10.8-19,15.4c-14.3,9.7-28.6,19.4-43.1,29c-9.4,6.2-19.6,9.8-31.1,11.2
		c-24.3,3.1-48.4,7.3-72.6,10.9c-11.5,1.7-23.1,3-34.7,4.3c-13,1.5-25-2.1-36.8-7.2c-34.1-14.6-67.1-31.4-100.7-47.1
		c-5.6-2.6-11.3-4.9-16.8-7.6c-10-5-20.7-6.9-31.7-7.9c-7.2-0.6-11.2-4.7-11.2-12c-0.1-31,0-62,0-93c0-5.3,2.6-8.8,7.7-10.3
		c35.2-10.3,70.9-17,107.8-13.6c22.1,2,43.1,8.8,62.4,19.7c16.2,9.1,33.4,12.4,51.6,13.3c23.7,1.2,47,5,69.7,12
		c9.1,2.8,17.1,7.2,21.9,16.1c2.5,4.7,2.9,9.4,1,14.4c-4.6,12.3-11.6,22.3-25.9,24c-6.7,0.8-13.2-1.4-19.8-1.9
		c-18.3-1.5-36.6-1.6-54.9-2.9c-12.2-0.8-24.3-1.7-36.4,0.1C300.4,519.1,299.7,519.2,298.9,519.3z"/>
	<path class="st1" d="M522,285.5c0,22.5-0.1,45,0.1,67.5c0,3.6-0.5,5.2-4.7,5.2c-41-0.2-82-0.2-123,0c-4.6,0-5.5-1.4-5.3-5.6
		c0.3-9.2,0.1-18.3,0.1-27.5c-0.1-9.4-6.6-16.1-16-16.2c-10.7-0.1-21.3-0.1-32,0c-9.4,0.1-16,6.6-16.1,16c-0.1,9.7-0.2,19.3,0,29
		c0.1,3.3-1,4.2-4.2,4.2c-41.7-0.1-83.3-0.1-125,0c-3.2,0-3.8-1-3.8-4c0.1-45.3,0-90.7,0.1-136c0-10.3,6.8-17,17.4-17
		c27.5-0.1,55-0.1,82.5,0.1c4.5,0,6.1-1,5.8-5.7c-0.4-7-0.2-14,0-21c0.5-18.1,13.9-31.4,32-31.5c18.3-0.1,36.7-0.1,55,0
		c17.3,0.1,31.1,13.6,31.5,30.9c0.2,7.3,0.3,14.7,0,22c-0.2,4.1,1,5.3,5.2,5.3c27.2-0.2,54.3-0.1,81.5-0.1
		c12.9,0,19.1,6.2,19.1,18.9C521.9,241.8,521.9,263.7,522,285.5C521.9,285.5,521.9,285.5,522,285.5z"/>
	<path class="st1" d="M258.7,371.1c20.5,0,41,0.1,61.5-0.1c3.7,0,4.8,0.9,4.7,4.7c-0.1,10.1,6.6,16.4,16.6,16.5
		c10.2,0,20.3,0.1,30.5,0c10.4-0.1,16.9-6.3,16.9-16.8c0-3.6,1.1-4.4,4.5-4.4c41.3,0.1,82.7,0.1,124,0c3.4,0,4.6,0.7,4.5,4.3
		c-0.2,20.3-0.1,40.7-0.1,61c0,11.9-6.3,18.3-18.2,18.3c-28.7,0.1-57.3,0.2-86,0c-8-0.1-15.6-3.3-23.4-4.7
		c-17.5-3.2-35.2-5.5-53-6.7c-14.8-1-28.7-4.9-41.9-11.7c-13.3-6.8-26.9-13.2-41.6-16.6c-20.3-4.5-40.8-6.5-61.5-4.2
		c-3.1,0.3-4.4-0.2-4.4-3.8c0.2-10.7,0.2-21.3,0-32c-0.1-3.5,1.3-4,4.3-4C217.1,371.1,237.9,371.1,258.7,371.1z"/>
	<path class="st1" d="M48,494.8c0-22.5,0-45,0-67.5c0-9.5,3.1-12.5,12.6-12.6c10.3,0,20.7,0,31,0c7.4,0,10.7,3.3,10.7,10.7
		c0.1,30.8,0,61.6,0.1,92.4c0,15,0,30,0,45c0,9-3.1,12.1-11.9,12.1c-10,0-20,0-30,0c-9.1,0-12.4-3.2-12.4-12.2
		C48.1,540.1,48.1,517.5,48,494.8C48.1,494.8,48,494.8,48,494.8z"/>
	<path class="st1" d="M340.9,349.9c0-7.2,0.1-14.3-0.1-21.5c-0.1-2.9,0.9-3.6,3.7-3.6c8.3,0.2,16.6,0.2,24.9,0
		c2.9-0.1,3.6,1,3.6,3.7c-0.1,14.3-0.1,28.6,0,42.9c0,2.5-0.3,4-3.4,3.9c-8.5-0.2-17-0.2-25.4,0c-2.7,0.1-3.4-0.9-3.3-3.5
		C341,364.5,340.9,357.2,340.9,349.9z"/>
</g>
</svg>
