<?xml version="1.0" encoding="utf-8"?>
<!-- Generator: Adobe Illustrator 19.0.0, SVG Export Plug-In . SVG Version: 6.00 Build 0)  -->
<svg version="1.1" id="Calque_1" xmlns="http://www.w3.org/2000/svg" xmlns:xlink="http://www.w3.org/1999/xlink" x="0px" y="0px"
	 viewBox="0 0 612 792" style="enable-background:new 0 0 612 792;" xml:space="preserve">
<style type="text/css">
	.st0{fill:#E1DDDE;}
	.st1{fill:#3FC08C;}
	.st2{fill:#4384EB;}
	.st3{fill:#83B1FB;}
	.st4{fill:#4383EB;}
	.st5{fill:#84B1FB;}
</style>
<g>
	<path class="st0" d="M341.2,349c1.6,1.7,0.9,3.8,0.9,5.7c0,70.8,0.1,141.6-0.1,212.4c0,4.8,1.3,6.2,6.1,6.1c12-0.3,24-0.3,36,0
		c4.8,0.1,6.1-1.2,6.1-6.1c-0.1-80.9-0.1-161.9-0.1-242.8c0-2-1-4.4,1-6.1c2.3,2.7,1.5,6,1.5,9.1c0,77.6,0,155.2,0,232.8
		c0,12.4-0.9,11.3,11.3,11.3c7.1,0,7.4-0.3,7.4-7.8c0-78.8,0-157.5,0-236.3c0-3.1-0.7-6.4,1.5-9.1c2,1.7,1,4.1,1,6.1
		c0.1,80.8,0.1,161.7-0.1,242.5c0,5,1.1,6.6,6.3,6.4c14-0.4,28-0.2,42-0.2c1.6-1.6,3.6-1.5,5.6-1.6c3.2-0.1,6.3,0,9.5-0.1
		c5.5-0.1,5.9-0.6,6.1-6.1c0.1-1.8,0-3.7,0-5.5c0-97,0-193.9,0-290.9c0-3.3-0.8-6.7,1.4-9.7c2.2,1.7,1.1,4,1.1,6
		C486,365.5,486,465.8,486,566c0,7,0,7,7,7c8.2,0,16.3,0,24.5,0c6.1,0,9.4,2.7,9.5,7.7c0.1,5.3-3.2,8.2-9.6,8.2
		c-62.5,0-124.9,0-187.4,0c-85.6,0-171.2,0-256.9,0c-1.8,0-3.7,0.1-5.5-0.3c-4.7-1-7.1-4-6.7-8.4c0.4-4.4,3.5-7.2,8.5-7.3
		c11.2-0.1,22.3,0,33.5,0c7.7-2.5,15.3-2.5,23,0c16.3,0,32.7,0,49,0c7.6-2.5,15.3-2.5,22.9,0c16.3,0,32.7,0,49,0
		c7.6-2.5,15.3-2.6,22.9,0c14.1,0,28.3-0.1,42.4,0.2c4.5,0.1,5.9-1.1,5.8-5.8c-0.2-61.1-0.1-122.1-0.1-183.2c0-10,0-20,0-29.9
		c0-1.7-0.7-3.7,0.9-5.2c2.3,2.7,1.7,6,1.7,9.1c0,67.5,0,135,0,202.5c0,11.7-0.7,10.7,10.9,10.8c7.6,0,7.8-0.2,7.8-7.8
		c0-68.3,0-136.7,0-205C339.4,355.3,338.6,351.8,341.2,349z"/>
	<path class="st1" d="M187.4,376.9c13.6,2.2,27.2,4.4,40.9,6.7c7.1,1.2,14.2,2.1,21.2,3.5c3.9,0.8,5.9-0.6,7.9-3.8
		c21.2-32.7,42.7-65.2,63.9-97.9c2.8-4.3,6.2-6.5,11.1-7.3c20.2-3.3,40.3-6.8,60.5-10.2c3.4-0.6,6.1-1.9,8.5-4.5
		c21.4-22.9,43-45.6,64.5-68.3c2.4-2.5,4.8-4.8,8.5-4.5c3.2,0.3,5.6,1.9,6.9,5c1.5,3.6,0.4,6.5-2,9.1c-9.8,10.4-19.7,20.8-29.5,31.2
		c-13.3,14-26.6,28-39.8,42.1c-2.8,3-5.9,4.5-9.9,5.1c-20.2,3.3-40.3,6.9-60.5,10.3c-3.2,0.5-5.3,1.9-7.1,4.6
		c-21.8,33.5-43.8,66.9-65.5,100.4c-3.2,4.9-6.7,6.9-12.8,5.8c-20-3.6-40-6.6-60-10c-3.7-0.6-6.5,0.1-9.5,2.6
		c-21,17.2-42.1,34.3-63.2,51.4c-4.8,3.9-9.7,3.9-12.8,0.2c-3.4-4-2.5-8.7,2.6-12.9c23-18.7,46-37.4,69-56.1
		C182.2,377.8,184.5,376.5,187.4,376.9z"/>
	<path class="st2" d="M484.8,259.2c0.1,1.8,0.2,3.7,0.2,5.5c0,100.8,0,201.7,0.1,302.5c0,4.8-1,6.5-6,6.1c-5.6-0.5-11.3-0.2-17-0.2
		c0-102.7,0-205.4-0.1-308.2c0-4.6,1.2-6.1,5.8-5.7C473.5,259.5,479.1,259.2,484.8,259.2z"/>
	<path class="st3" d="M412.9,318.2c0.1,1.7,0.1,3.3,0.1,5c0,81.3,0,162.5,0.1,243.8c0,4.7-0.9,6.8-5.9,6.1c-5.2-0.7-12,2.2-15.4-1.2
		c-3.1-3.2-0.9-9.8-0.9-15c-0.1-77.3,0-154.6,0-231.8c0-2.3,0.1-4.7,0.2-7C398.3,318.1,405.6,318.1,412.9,318.2z"/>
	<path class="st4" d="M341.2,349c0,73.3,0,146.6,0.1,219.9c0,3.3-1,4.4-4.3,4.2c-5-0.2-10-0.1-15,0c-2.3,0-3.4-0.8-3.2-3.2
		c0-0.3,0-0.7,0-1c0-73.3,0.1-146.6,0.1-219.9C326.3,349,333.8,349,341.2,349z"/>
	<path class="st2" d="M197.9,573c-7.6,0-15.3,0-22.9,0c0-46.6,0.1-93.3-0.1-139.9c0-4.5,1.2-5.8,5.6-5.4c4,0.4,8,0.3,12,0
		c4.2-0.4,5.7,0.8,5.6,5.4c-0.3,15.5-0.1,31-0.1,46.5C197.9,510.7,197.9,541.8,197.9,573z"/>
	<path class="st3" d="M269.8,573c-7.6,0-15.3,0-22.9,0c0-44.6,0-89.2,0-133.8c0-7.9-0.8-7,6.8-7.1c3.3,0,6.7,0.3,10-0.1
		c4.7-0.5,6.3,1.2,6.3,6.1c-0.2,22.8-0.1,45.6-0.1,68.4C269.9,528.7,269.8,550.8,269.8,573z"/>
	<path class="st5" d="M126,573c-7.7,0-15.3,0-23,0c0-31,0.1-61.9-0.1-92.9c0-4.3,1.3-5.5,5.4-5.1c4.1,0.3,8.3,0.3,12.5,0
		c4.1-0.3,5.4,0.9,5.4,5.2C125.9,511,126,542,126,573z"/>
</g>
</svg>
