<?xml version="1.0" encoding="utf-8"?>
<!-- Generator: Adobe Illustrator 19.0.0, SVG Export Plug-In . SVG Version: 6.00 Build 0)  -->
<svg version="1.1" id="Calque_1" xmlns="http://www.w3.org/2000/svg" xmlns:xlink="http://www.w3.org/1999/xlink" x="0px" y="0px"
	 viewBox="0 0 612 792" style="enable-background:new 0 0 612 792;" xml:space="preserve">
<style type="text/css">
	.st0{fill:#00D0FD;}
	.st1{fill:#E2E8F4;}
	.st2{fill:#00D1FD;}
	.st3{fill:#2A90AB;}
	.st4{fill:#2991AC;}
	.st5{fill:#2893B0;}
	.st6{fill:#2991AD;}
	.st7{fill:#01D0FD;}
	.st8{fill:#2893AF;}
	.st9{fill:#2894B0;}
	.st10{fill:#2992AE;}
	.st11{fill:#FDD581;}
	.st12{fill:#02D0FD;}
	.st13{fill:#16D0F9;}
	.st14{fill:#FCAA6E;}
	.st15{fill:#FBFBFA;}
	.st16{fill:#FDFCFB;}
	.st17{fill:#FCAA6F;}
	.st18{fill:#FDE1A7;}
	.st19{fill:#CD943C;}
	.st20{fill:#FBDEA3;}
	.st21{fill:#FBDDA1;}
	.st22{fill:#F9F8F6;}
	.st23{fill:#F7DBA0;}
	.st24{fill:#F9DCA0;}
	.st25{fill:#FBDFA4;}
	.st26{fill:#F5D89D;}
</style>
<g>
	<path class="st0" d="M135.2,533.3c-22.9-31-36.1-65.7-39.4-104.1c-0.5-5.3-1-10.6-0.6-15.9c1-1,2.2-1.5,3.6-1.5
		c15.3,0,30.6-0.7,45.9,0.3c2.7,1,2.1,3,1.4,5c-1.5,4.2-3.3,8.4-5.1,12.5c-0.7,1.6-2,3.6-0.7,5.2c1.5,1.7,3.4,0.1,5-0.5
		c7.9-3,15.7-6.6,23.6-9.6c2-0.7,4-2.1,6,0c1.4,1.9,1.5,4,1.6,6.2c1.2,31.4,6.7,62.1,16.5,92c3.6,11.1,3.1,11.9-8.6,11.9
		c-14,0-27.9,0-41.9,0C139.9,534.7,137.4,534.7,135.2,533.3z"/>
	<path class="st0" d="M504.2,413.3c-0.4,44.3-13.7,84.3-40.2,119.9c-1.6,1-3.3,1.6-5.2,1.6c-12.6,0.1-25.2,0.1-37.8,0
		c-1,0-2-0.2-2.9-0.5c-3.1-2.2-0.6-4.2,0.5-5.8c3.9-5.4,7.2-11.2,9.4-17.5c6.2-18.2,5-35.9-4-53c-1.2-2.2-2.5-4.3-2.5-7
		c0.4-11.1,1.9-22.2,1.9-33.4c0-4.7,1.5-5.9,6.7-6c10.5-0.2,21-0.1,31.5-0.1c11.8,0,23.6,0,35.5,0
		C499.6,411.6,502.2,411.2,504.2,413.3z"/>
	<path class="st1" d="M382.9,224.2c4-9.6,8.1-19.1,15-27.1c12.4-14.6,27.3-24.8,46.2-29c9.1-2,18.2-2.6,27.2-1.7
		c11.3,1.2,22.3,4.7,32.2,10.6c15.4,9.2,27.2,21.8,34.3,38.3c6,13.8,8,28,6.3,43.2c-1.7,15.8-7.6,29.4-17.3,41.6
		c-10.4,12.9-23.3,22.4-39.3,27.5c-0.3,0.1-0.5,0.4-0.7,0.7c-5.7,3.7-12.3,3.7-18.6,4.2c-15.6,1.3-30.4-1.8-44.2-9
		c-2.7-1.4-5.3-1.6-8.1-0.4c-1.8,0.5-3.4,1.3-5.1,2c-9.9,3.9-19.7,8.2-29.6,12c-2.3,0.9-4.8,2.1-7-0.1c-2.2-2.2-1.1-4.6-0.2-7
		c4.2-10.4,8.5-20.6,12.6-31c0.7-1.6,1.7-3.2,2.1-5c0.7-2.4,0.2-4.5-0.9-6.7c-6.7-13-9.8-26.7-9.2-41.3c0.1-1.9-0.1-3.9,0.1-5.8
		C379.9,234.8,379.8,229.1,382.9,224.2z"/>
	<path class="st2" d="M247.9,213.3c16.4-4.5,33.1-6.5,50.1-6.6c1.9,1.9,1.6,4.3,1.6,6.6c0,25.1,0.1,50.2,0,75.3c0,7-1.2,8.1-8.2,8.1
		c-12.5,0-24.9,0.3-37.4-0.2c-2,0-3.9-0.7-5.7-1.7c-13.5-7.4-28.1-8.1-43-6.9c-1.5,0.1-3,0.5-4.4,0c-2.6-1.4-1.5-3.5-0.8-5.2
		c8.1-20.1,18.2-39.1,32.5-55.5C237.2,222,241.3,216.4,247.9,213.3z"/>
	<path class="st0" d="M379.7,246.2c-0.1,15,2.9,29.3,10.4,42.4c1.4,2.5,0.5,4.4-0.5,6.5c-1.9,1.7-4.3,1.7-6.6,1.7
		c-24.8,0-49.7,0.1-74.5,0c-6.9,0-8.1-1.2-8.1-8.3c-0.1-25.2-0.1-50.3,0-75.5c0-2.1-0.1-4.4,1.5-6.2c17-0.2,33.7,2.3,50.2,6.5
		C363.8,222.2,373.3,232.9,379.7,246.2z"/>
	<path class="st0" d="M414.9,322.3c3.1-2.3,6-2.2,9.6-0.3c18.6,9.8,38.3,11.6,58.6,6.9c1.3-0.3,2.6-0.4,3.9-0.6
		c11,25.9,17.5,52.8,17.2,81c-1.8,1.6-4,1.4-6.2,1.4c-22.1,0-44.3,0.1-66.4,0c-7.1,0-8-1.1-8.2-8.1c-0.7-24.3-3.2-48.4-8.7-72.2
		C414.1,327.7,412.9,324.9,414.9,322.3z"/>
	<path class="st0" d="M297.9,616c-17.2,0.1-34.2-2.2-50.7-6.8c-10-6.2-16.9-15.4-23.6-24.7c-9.2-12.7-16.5-26.5-22.4-41
		c-2.6-6.4-1.9-7.6,5-7.6c28.6-0.1,57.2-0.1,85.8,0c6.6,0,7.3,0.9,7.4,7.6c0,3.2,0,6.3-0.1,9.5c-0.4,2.5-0.8,5.1,0,7.6
		c0.7,17,0.2,34,0.3,51C299.5,613.1,299.2,614.8,297.9,616z"/>
	<path class="st0" d="M95.2,409.3c0.3-40.1,11.4-77,33.8-110.4c1-0.6,2-1.1,3.2-1.1c13.2,0,26.4-0.8,39.5,0.4
		c3.3,2.2,0.4,3.6-0.9,4.8c-5.1,5-10.4,9.8-14.3,15.9c-15,23.3-16.1,47.6-4.8,72.6c2.9,6.4,1.1,14.1-4.9,18.8
		c-9.9,1.2-19.8,0.3-29.7,0.5c-5.3,0.1-10.6,0.1-15.9,0C99.1,410.7,96.9,410.9,95.2,409.3z"/>
	<path class="st3" d="M298,553.2c0-3.8-0.4-7.7-0.1-11.5c0.3-3.9-1.2-4.7-4.8-4.7c-23.3,0.2-46.6,0.1-69.9,0.1c-7.5,0-14.9,0-22.9,0
		c5.2,14.3,12.1,27.2,19.7,39.6c7.5,12.1,17.2,22.3,27.1,32.4c-2.5-0.1-4.9-0.8-7.1-2.1c-9.9-6.7-16.1-16.6-22.6-26.2
		c-7.9-11.6-14.1-24.1-19.5-37c-1.6-3.9-3.9-5.5-8.3-5.5c-14.6,0.2-29.3,0.1-43.9,0.1c-2.5,0-5,0.2-7.2-1.3c-1.4-1.1-2.5-2.4-3.3-4
		c18-0.1,35.9-0.1,53.9-0.2c5.5,0,5.7-0.2,3.9-5.2c-7.7-22.1-12.8-44.9-15.7-68.1c-1.2-9.2-2.6-18.4-2.3-27.7
		c0.1-2.6-0.5-5.3-0.8-7.9c1.2-2.1,2.6-3.4,4.8-1.1c2.8,8.2,1.6,16.8,2.5,25.2c2.8,26.4,7.9,52.3,16.3,77.6c1.4,4.1,3.8,5.7,8.1,5.7
		c28.3-0.1,56.6,0,85-0.1c5.1,0,5.7-0.6,5.7-5.9c0-35,0-70,0-104.9c0-5.5-0.5-6-6-6c-5.8-0.1-11.7,0-17.5,0c-2.2,0-4.3,0.2-6.4-0.9
		c-1.7-4.1,1.6-4.7,4.1-5.8c6.6-0.8,13.3-0.2,20-0.4c5.2-0.2,5.8-0.6,5.8-5.8c0.1-31.7,0.1-63.3,0-95c0-5.4-0.6-5.9-6.1-6
		c-10-0.2-20,0.3-30-0.3c-3.2-0.8-6.3-1.6-7.5-5.3c13,0,25.9-0.3,38.9,0c4.9,0.1,6.5-0.9,6.4-6.2c-0.3-27.4-0.1-54.9-0.1-82.3
		c1.3-0.5,2.6-0.6,3.9,0.2c0,27.7,0.1,55.3-0.1,83c0,4.2,1.2,5.3,5.3,5.3c27.5-0.1,55-0.1,82.5,0c-0.6,1.3-1.1,2.6-1.7,3.9
		c-2.4,2.1-5.3,1.8-8.1,1.8c-22.8,0-45.7,0-68.5,0c-7.6,0-7.7,0.1-7.7,7.9c0,30.3,0,60.7,0,91c0,7.8,0.1,7.9,7.7,7.9
		c33.5,0,67,0,100.5,0c7.4,0,7.7-0.2,7.6-7.5c-0.5-23.4-3.6-46.5-8.4-69.3c-0.5-2.2-1.4-4.5,0-6.8c1.2-0.9,2.5-1.5,3.9-1.6
		c2.2,11.9,4.6,23.7,6.5,35.7c1.3,8,2.1,16.1,2.6,24.2c0.4,7.5,1.8,14.9,1.1,22.4c-0.4,3.8,1.1,4.8,4.8,4.7
		c23.6-0.2,47.3-0.1,70.9,0c1.2,0,2.3,0,3.5,0c0.9,1.3,1,2.6,0.1,4c-24.8,0-49.6,0-74.4-0.1c-3.5,0-5.1,0.8-4.9,4.7
		c0.4,11.6-1,23.2-2.1,34.8c-3.1-0.5-3.8-2.8-4.1-5.5c-1.1-8.5,1.2-16.9,0.8-25.4c-0.3-6.5-0.5-6.9-6.8-6.9c-34.3,0-68.6,0-102.8,0
		c-5.7,0-6.2,0.5-6.2,5.8c0,19.1,0,38.3-0.1,57.4c0.2,7.3,0.1,14.5,0.1,21.8c-0.4,9,0.1,18,0,26.9c0,2.3,0.6,4.3,2.4,5.8
		c1.2,1.6,1,3.1-0.1,4.6c-2.5,1.4-2.7,3.8-2.7,6.3C301.9,546.9,302.1,551.2,298,553.2z"/>
	<path class="st0" d="M352,609.2c-16.3,4.6-33,6.8-50,6.8c-1.3-1.3-1.5-2.9-1.5-4.6c0-17-0.5-34.1,0.2-51.1c0.5-2.4,2.2-3.6,4.3-4.4
		c8.2-3.3,16.3-6.6,24.5-10c2.8-1.2,5.5-1,8.2,0.3c16.6,8.3,33.6,9.6,51.2,3.7c1.1-0.4,2.2-0.6,3.4-0.4c2.3,1.2,1.6,3.2,0.8,4.7
		c-9.6,19.9-21.4,38.3-38.3,53C354,608.1,352.9,608.4,352,609.2z"/>
	<path class="st2" d="M131.4,295c27.4-39.1,63.8-65.7,109.4-79.6c0.6,2.2-1.1,3.3-2.4,4.6c-18.3,18.6-30.7,40.8-40.2,64.9
		c-0.5,1.4-1,2.8-2,4c-6,3.1-11.9,6.3-18.6,7.7c-13.4,0.5-26.9,0.2-40.3,0.2C135.2,296.7,133,296.9,131.4,295z"/>
	<path class="st2" d="M138.5,537.2c18.1-0.1,36.3,0,54.4-0.2c2.9,0,4,1.3,5,3.6c7.6,18.1,16.7,35.5,28.9,51
		c4.2,5.3,8.9,10.3,13.3,15.4c-29.9-8.6-55.9-24-78.8-44.9C152.9,554.6,145.1,546.5,138.5,537.2z"/>
	<path class="st2" d="M460.9,537.2c-26.6,34.1-60.4,57.5-101.9,69.9c-0.6-2.3,1.1-3.3,2.4-4.6c15.6-15.9,26.6-34.8,35.7-54.9
		c5.4-4.6,10.7-9.2,17.4-11.8c13.9-0.6,27.9-0.2,41.8-0.2C458,535.6,459.7,535.8,460.9,537.2z"/>
	<path class="st4" d="M195.9,288.2c7.3-21.5,18.1-41,32.2-58.7c3.9-4.9,8.4-9.4,12.6-14.1c2.2-1.1,4.6-1.9,7.1-2
		c-15.5,13.7-27.4,30.1-36.9,48.4c-4.3,8.2-8.2,16.6-11.1,25.5C199,289.1,197.6,289.4,195.9,288.2z"/>
	<path class="st4" d="M398,547.7c-5,13.4-12.3,25.6-20.4,37.4c-5.5,7.9-12,15-18.5,22.1c-2.2,1.3-4.5,2-7.1,2.1
		c7.1-8.1,15.2-15.1,21.5-24c7.1-10,13.3-20.5,18.7-31.6c0.6-1.2,1-2.4,0.9-3.8C394,547.4,395.8,547.2,398,547.7z"/>
	<path class="st5" d="M301.9,559c0,19,0.1,38,0.1,57c-1.4,0-2.7,0-4.1,0c0-18.9,0-37.8,0-56.7C299.1,558,300.5,558,301.9,559z"/>
	<path class="st6" d="M95.2,409.3c17.5,0,35,0,52.5,0c1.1,2.1-0.1,3.2-1.8,4.1c-16.9,0-33.8-0.1-50.7-0.1
		C95.1,411.9,95.2,410.6,95.2,409.3z"/>
	<path class="st7" d="M382.9,224.2c-1,5.4-2,10.7-3,16.1c-1.8,0.4-2.8-0.8-3.6-2c-4.4-6.9-10.2-12.5-15.3-18.8c-0.8-1-1.8-2-1.3-3.5
		C367.9,217.7,375.3,221.2,382.9,224.2z"/>
	<path class="st8" d="M460.9,537.2c-16-0.1-31.9-0.2-47.9-0.3c0-2.6,1.3-3.9,3.9-4c15.7,0.1,31.4,0.1,47.1,0.2
		C463.5,534.8,462.5,536.3,460.9,537.2z"/>
	<path class="st9" d="M131.4,295c16,0.1,32,0.2,48,0.2c-0.7,3.3-3.1,4-6,3.9c-14.8-0.1-29.6-0.2-44.4-0.3
		C129.1,297.2,130.3,296.1,131.4,295z"/>
	<path class="st10" d="M359.8,215.9c6.7,8.1,13.5,16.2,20.2,24.4c-0.1,2-0.2,4-0.2,6c-8-12-17.4-22.8-27.7-32.8
		C354.7,213.9,357.4,214.5,359.8,215.9z"/>
	<path class="st1" d="M173.3,299.1c2-1.3,4-2.6,6-3.9c5.5-2.3,11.1-4.7,16.6-7c1.4,0.1,2.8-0.2,4-1c11.7-1.6,23.3-2.1,34.9,0.9
		c6.3,1.6,12,4.6,17.9,7.1c2,1.3,4.1,2.7,6.1,4c8.2,3.5,13.5,10.2,18.3,17.1c18.8,26.8,17.8,62.3-2.1,88.2c-1.4,1.9-2.9,3.6-5.2,4.4
		c-1.4,1.4-2.7,2.7-4.1,4.1c-0.2,2.1-1.7,3.2-3.2,4.2c-24.9,18.4-51.4,21.4-79.6,8.5c-1.8-0.8-3.5-1.9-4.8-3.5
		c-1.4,0.6-2.7,1.2-4.1,1.8c-10,4-20.1,8-30.1,12c-1.8,0.7-3.8,2.2-5.5,0.4c-1.7-1.8-0.2-3.8,0.5-5.6c2.3-5.9,4.6-11.7,6.9-17.6
		c0.6-1.4,1.2-2.7,1.8-4.1c4.1-7.5,4.7-14.2,0.7-23c-13.1-29.3-3.4-64.3,21.9-84.5C171.3,300.9,172.3,300,173.3,299.1z"/>
	<path class="st1" d="M417,533c-1.3,1.3-2.6,2.7-3.9,4c-4.7,4-9.8,7.5-15.1,10.7c-1.7,0.7-3.3,1.4-5,2.2
		c-19.3,7.6-38.3,6.8-56.7-2.8c-1.6-0.8-3-1.3-4.7-0.5c-9.9,4.2-19.8,8.4-29.7,12.5c-1.3,0.1-2.7,0.2-4,0.3c-2-2.1,0.1-4.1,0.2-6.1
		c1.8-3,3-6.3,4-9.7c1.1-2.1,0.4-4.9,2.8-6.4c0.5-1.3,1-2.7,1.6-4c-0.3-0.8-0.4-1.7,0-2.4c3.4-5.8,1.9-11.2-1.2-16.7
		c-2.5-4.4-2.3-9.5-3.2-14.3c0-7.1,0-14.1,0-21.2c4.3-45.6,62-76,106.4-42.7c4.4,3.3,9,7,11.2,12.5c1,1.4,2.1,2.8,3.1,4.3
		c6.1,10.7,10.2,21.9,10.5,34.4C433.8,504.5,427.8,519.5,417,533z"/>
	<path class="st2" d="M410.9,323.9c4.8,19.9,7.9,40,9.2,60.4c0.5,7,0.7,13.9,0.9,20.9c0.1,3-0.9,4-4,4c-37.2-0.1-74.3-0.1-111.5,0
		c-2.8,0-3.8-1-3.8-3.8c0.1-34.2,0.1-68.3,0-102.5c0-4.1,2.2-4,5.1-4c27,0,54,0,81,0c-4.3,10.6-8.5,21.2-12.8,31.8
		c-0.7,1.8-2.1,3.7-0.2,5.5c1.9,1.8,3.7,0.4,5.5-0.3C390.6,332,400.8,328,410.9,323.9z"/>
	<path class="st11" d="M462.4,319.2c-38.3,0.3-70.8-30.1-71.2-70.4c-0.4-40.4,32-71.4,70.3-71.8c39.2-0.5,71.8,30.4,72.2,70.4
		C534.1,288.8,500.4,319.8,462.4,319.2z"/>
	<path class="st0" d="M178.2,422.4c8,3.4,15.9,7.4,24.7,8.8c22.8,3.6,43.1-1.8,60.9-16.5c0.6-0.5,1.3-1,2-1.5c9.3,0,18.6,0.2,28,0
		c3.3-0.1,4.2,1,4.2,4.3c-0.1,37.1-0.1,74.2,0,111.3c0,3.6-1.3,4.4-4.6,4.4c-30.1-0.1-60.3-0.1-90.4,0c-3.9,0-5.1-1.7-6.2-4.9
		c-7.1-20.9-11.9-42.4-15-64.3C179.9,450.2,179.2,436.3,178.2,422.4z"/>
	<path class="st7" d="M419.7,448.3c-9.9-11.2-21.5-19.6-36.3-23.2c-36.8-8.9-72.9,14-80.5,51.1c-0.2,0.8-0.6,1.5-0.8,2.3
		c0-20.5,0-40.9-0.2-61.4c0-3.1,1.1-3.9,4.1-3.9c37,0.1,73.9,0.1,110.9-0.1c3.3,0,4.1,1,4.2,4.3C421.4,427.7,419.8,438,419.7,448.3z
		"/>
	<path class="st7" d="M269.9,409c12.6-14.6,19.7-31.3,19.3-50.9c-0.4-23.2-10-41.9-27.7-56.7c-0.9-0.7-1.8-1.5-2.6-2.3
		c11.7-0.1,23.3,0,35-0.3c3.5-0.1,4.1,1.4,4.1,4.4c-0.1,34-0.1,68,0,102c0,2.7-0.6,4-3.6,3.9C286.2,409.1,278,409.1,269.9,409z"/>
	<path class="st12" d="M302,499.7c2.2,7.4,4.5,14.7,7.8,21.7c2,4.1-2.1,7.8-3.5,11.7c-3.4,0.5-4.7-0.9-4.6-4.4
		C302.1,519,302,509.3,302,499.7z"/>
	<path class="st13" d="M304.8,537.1c-0.7,2.3-1.3,4.5-2.8,6.4C302.6,541.2,299.8,537.4,304.8,537.1z"/>
	<path class="st11" d="M215.7,421.3c-33.4,1.2-64.4-28.8-62.8-65.7c1.4-32.7,29.2-60.8,64-60.3c34.1,0.4,63.1,29.1,62.3,65.1
		C278.5,392.9,250.1,422.7,215.7,421.3z"/>
	<path class="st11" d="M424.1,489c0.7,30-25.6,56.2-56,56.3c-31.5,0.1-57.5-26.1-57.3-57.3c0.2-30.6,26-56.2,56.7-56.2
		C398.1,431.7,425.2,457.7,424.1,489z"/>
	<path class="st14" d="M473,191.2c9.9,1.1,18.5,5.3,26,11.5c13.3,11,20.9,25.4,21.9,42.6c0.8,14.9-4,28.5-13.6,40
		c-8.9,10.7-20.2,17.9-34,20.1c-18.3,2.9-34.9-0.9-49-13.6c-13.5-12.1-20.5-27.1-20.1-45.3c0.5-26.9,21.4-51,47-55.6
		c5.7-1,11.2-0.6,16.9-0.9c1.6-0.1,3,0.2,3.3,2.2c0.4,0.8,0.4,1.5-0.2,2.2c-5.2,2.1-10.8,0.9-16.3,1.6
		c-25.3,3.4-44.7,27.8-44.8,52.2c-0.1,26.9,23.4,53.3,54,52.5c27.8-0.7,50.1-24,50.9-51.6c0.6-22.7-14.8-43.9-35.5-51
		c-2-0.7-4.2-1-5.9-2.6C472.2,194.3,471.9,192.8,473,191.2z"/>
	<path class="st15" d="M470.9,194.1c0.1-0.6,0.2-1.2,0.3-1.8c0.6-0.4,1.2-0.8,1.8-1.1c0.4,1.3,0.7,2.6,1.1,4c2.1,4,5,6.5,9.8,5.8
		c1.1-0.1,2.5,0.1,3,1.3c0.6,1.3-0.4,2.3-1.3,2.9c-4.4,2.6-5.7,6.1-3.7,10.9c0.5,1.2,0.1,2.6-1.2,3.5c-0.8,0.3-1.7,0.3-2.4-0.1
		c-4.3-2.7-8.4-3.5-12.7,0.3c-2,1.7-3.4,0.3-3.2-2.2c0.1-1.5,0.7-2.9,1.2-4.3c0.7-2.1,0.5-3.9-1.4-5.3c-0.5-0.4-1.1-0.8-1.6-1.2
		c-1.2-1.1-3-2.2-2.5-4c0.5-2,2.7-1.7,4.2-1.7c3.2,0.1,5.5-0.9,6.4-4.2C469,195.5,470,194.8,470.9,194.1z"/>
	<path class="st14" d="M225.8,309.3c1.3-1.7,2.9-1.1,4.5-0.5c20,6.6,32.6,20,36.6,40.7c6.3,32.8-21,64.1-56.6,60.5
		c-23.6-2.4-42.5-21.7-45.6-45.1c-3.8-28.5,17.9-53.3,41.2-57.2c6-1,12.1-1.6,18.1,0.5c0.9,1.5,0.2,2.5-1,3.5
		c-3.5,1.4-7.2,0.4-10.9,0.7c-18.5,1.6-31.7,11-38.9,27.8c-12.7,30,7.4,58.2,33.4,63.8c24,5.2,49.2-11,54.8-35.8
		c5.1-22.9-8.1-46-30.7-53.9c-1.4-0.5-2.9-0.8-4.2-1.5C225.3,311.9,224.9,310.7,225.8,309.3z"/>
	<path class="st16" d="M225.8,309.3c0.1,1.1,0.2,2.2,1.1,3c2,3.1,5.2,3.7,8.6,3.9c2,0.2,4.1,1.5,1.9,3.3c-4,3.4-5.7,6.9-3.6,12
		c0.3,0.7-0.4,1.6-1.1,2c-0.8,0.3-1.7,0.2-2.4-0.3c-4-2.8-7.8-3.2-11.6,0.3c-0.7,0.6-1.8,1.2-2.7,0.4c-0.8-0.8-0.4-1.8-0.3-2.8
		c0.4-2.8,3-5.5,0.2-8.3c-1.7-1.7-5.4-2.6-4.7-5.1c0.7-2.8,4.2-1.7,6.5-1.8c3.1-0.2,3.4-3.3,5.3-4.7c0.4-1,0.7-2,1.1-2.9
		C224.6,308.6,225.2,308.9,225.8,309.3z"/>
	<path class="st17" d="M375.9,443.2c12.7,1.2,21.7,8.5,29.1,18.1c19,24.5,7,63-25,72c-24,6.8-51.7-7.2-58.1-35.2
		c-5.6-24.2,11.7-50.7,36.1-55c5.7-1,11.4-2,17,0.1c0.8,1.5,0.1,2.6-1.1,3.4c-7.3,0.1-14.4,0.4-21.5,3c-13.5,4.9-26.7,22-26.5,38.9
		c0.1,17,12.1,35.7,31.3,40.3c30.3,7.3,52.5-18,51.7-39.6c-0.6-16.3-7.4-27.9-20.4-36.7c-0.4-0.2-0.9-0.5-1.3-0.8
		c-3.2-2.3-7.2-2.7-10.7-4.5C375.6,446.1,375.1,444.8,375.9,443.2z"/>
	<path class="st16" d="M375.9,443.2c0.4,1.3,0.9,2.6,1.3,3.8c2.7,3.6,7.3,2.3,10.7,4.3l0,0c0.6,2.2-1.3,3-2.6,3.7
		c-3.1,1.7-3.6,4-2.3,7.1c0.6,1.3,1.1,2.8,0.1,4.3c-1.4,0.5-2.7-0.1-3.7-0.9c-2.8-2-5.4-2.1-8.2-0.1c-0.9,0.6-2,1.5-3.2,0.5
		c-1-0.9-0.8-2.1-0.5-3.2c0.5-2.1,1.3-4.2-0.5-6.1c-1.2-1.9-4.6-2.6-3.8-5.2c0.7-2.3,3.7-1.4,5.7-1.7c2.3-0.4,3.5-2.2,5.1-3.7
		c0.4-1,0.8-1.9,1.2-2.9C375.4,443.2,375.6,443.2,375.9,443.2z"/>
	<path class="st18" d="M480,219.2c1.7-1.4,1-3.1,0.3-4.5c-2.1-4.2-1.1-7.2,3-9.3c1.1-0.6,2.1-1.5,4.1-3.1
		c-6.1-0.5-13.2,1.6-13.3-7.2c13.4,3.8,24.6,10.7,32.6,22.2c14.2,20.3,12.4,48.8-4.2,66.8c-11.1,12-24.9,18.1-41.2,17.9
		c-29-0.2-52.2-25.6-52.7-52.5c-0.5-25.8,18.1-48.6,41.4-54c6.9-1.6,13.8-1.3,20.8-1.5c-2.6,7.6-2.6,7.6-12.1,8.2
		c0.1,2.8,3,3.1,4.2,4.8c-1,1.5-3,2.3-3.4,4.2c-0.9,3.7-3.7,4.7-6.9,5.4c-10,2.4-14.6,8.7-14.3,18.7c0.3,7.8,4.5,12.8,13.1,15.6
		c7.8,2.5,7.8,2.5,7.8,10.7c0,2.5,0.2,5-0.1,7.5c-0.5,3.6-2.3,4.5-5.6,3c-2.3-1.1-3.9-3.1-5.6-4.9c-2.3-2.5-5.1-3.6-7.8-1
		c-2.7,2.6-1.7,5.5,0.5,8c3.2,3.6,7.3,5.7,12,6.6c2.9,0.5,5.4,1.4,6.9,4.3c1.4,2.7,3.5,2.6,4.8,0c1.7-3.3,4.6-3.9,7.7-4.8
		c9.3-2.5,14.3-8.6,14.5-17.3c0.2-8.7-4.2-15-13.4-17.3c-8.4-2.1-8.6-1.5-8.6-12c0-1.2-0.1-2.3,0-3.5c0.1-1.9-0.4-4.4,1.8-5.3
		c2.6-1.1,4.5,0.8,6,2.6c2.1,2.5,4.3,4.6,7.3,5.9c1,1.3,1.4,3.7,3.8,1.3c1.9-1.8,4-0.5,6.7,1.1c-1.2-3.8-0.3-6.4,3.4-8.5
		c-3.9,0.1-6.1-1.1-7-4.1c-0.9-3.1-1.7-0.1-2.5,0.1C481.4,223.3,479.9,222,480,219.2z"/>
	<path class="st19" d="M480,219.2c1.3,1.4,2.5,2.7,3.8,4.1c0.2,5.7-4.1,3.3-6.6,3.8c-0.9-0.3-0.3,0.9-0.4,0.3c0-0.2,0.1-0.3,0.5-0.1
		c4.6,2.1,5.1,3.5,2.6,6.8c-3.1,0-5.4-1.3-7-4c-0.7-1.1-1.7-2.1-2.7-2.9c-1-0.8-2.2-1.9-3.5-1.3c-1.3,0.6-0.6,2.1-0.7,3.2
		c-0.1,0.7,0,1.3,0,2c0,3.5-0.8,7.3,0.3,10.4c1.4,3.5,6.1,2.2,9.1,3.5c9.8,4.1,13.5,10.1,12.5,20.7c-0.8,7.9-7.4,14.5-16.6,16.4
		c-2.9,0.6-5.5,0.7-5.9,4.6c-0.1,1.6-2,2.6-3.9,2.5c-1.7,0-3.2-1-3.4-2.4c-0.5-3.8-3.2-4.1-6-4.6c-5.1-0.9-9.5-3.2-12.9-7
		c-3.1-3.5-3.2-7.7-0.4-10.2c3.1-2.7,7.2-2,10.3,1.8c0.5,0.6,1,1.3,1.6,1.9c1.6,1.7,3.6,3.8,5.9,3c2.1-0.7,0.7-3.5,1-5.4
		c0.1-0.6,0-1.3,0-2c-0.1-3.2,0.6-6.6-0.5-9.4c-1.2-3-5.3-2-8-3.1c-9.3-3.8-13.2-9.8-12.4-20.3c0.5-7.8,6.6-14.3,15.4-16.2
		c3.1-0.7,5.8-0.8,5.9-5.1c0.1-2.5,2.5-3.3,4.9-3.2c2.3,1.1,3.1,2.6,2.1,5.2c-0.9,2.2-1.5,4.6-2,7.6
		C468.8,213.8,474.4,214.7,480,219.2z"/>
	<path class="st18" d="M223,311.2c-0.1,8.4-6.5,5.5-11.4,6.1c1,2.7,4,2.9,5.3,4.9c-1.5,1.5-3.4,2.6-4.1,4.9
		c-0.8,2.6-3.3,3.1-5.5,3.7c-4.1,1.2-7.9,2.8-10.3,6.6c-5.6,8.8-2.1,19.2,7.7,22.9c1.7,0.6,3.5,1.2,5.2,1.7c2,0.6,3.1,1.9,3.2,4
		c0.2,3.5,0.4,7,0,10.5c-0.4,3.7-2.8,4.7-6.1,2.8c-1.5-0.8-2.5-2.2-3.7-3.3c-2.3-2.2-5-3.2-7.4-0.5c-2.4,2.7-0.4,4.9,1.6,6.9
		c2.8,2.8,6.3,4.2,10.1,5.2c2.5,0.6,4.7,1.2,6,3.9c1,2.1,2.7,2,3.7,0c1.5-3,4.2-3.5,6.9-4.3c3.9-1.1,7.6-2.6,10.1-6
		c5.9-7.9,3.6-18.3-5.1-23.1c-2.2-1.2-4.6-1.9-7.1-2.5c-2.8-0.6-4.3-2.4-4.4-5.2c-0.2-2.8-0.2-5.7,0-8.5c0.1-1.5,0.1-3.2,1.8-3.9
		c1.7-0.7,3.3,0.2,4.5,1.4c2.5,2.2,4.4,5,7.7,6.3c1.1,0,0.3,3,2.2,1.5c2.3-1.8,4.3-1,6.9,0.5c-0.7-2.9-0.6-5.1,2.3-7.1
		c-3.1-0.1-4.9-1.1-5.6-3.4c-0.5-1.9-1.6-1.1-2.6-0.5c-2-0.2-3.2-1-3-3.3c1.3-0.8,1.1-2,0.5-3c-2.7-4.5-1.6-7.8,3.1-10.1
		c0.8-0.4,1.7-1.1,1.8-2.4c-3.3-1.9-10.2,2.6-10.3-5.4c15.6,3.3,26.8,12.5,32.8,27c10,24,1.5,47.9-20.8,61.3
		c-16,9.6-40.6,6.5-54.3-6.2c-11.1-10.2-17.2-22.7-16.4-37.5c1.4-28.2,24-47.9,50.8-45.9C220.3,311.2,221.7,311.1,223,311.2z"/>
	<path class="st19" d="M231.8,346c-3.5,0.3-5.4-2-7.1-4.6c-1.1-1.5-2.8-3.1-4.5-2.7c-2,0.5-0.8,2.9-1,4.4c-0.2,1.1,0.1,2.3-0.1,3.5
		c-0.7,4.8,0.6,7.2,6,8.4c9.6,2,14,8.2,13.8,16.8c-0.1,8.5-5,14-14.6,16.4c-2.7,0.7-5.6,0.8-5.9,4.7c-0.1,1.1-1.7,2.1-3.2,2
		c-1.6-0.2-3.1-1.2-3.2-2.7c-0.2-2.8-1.9-2.8-4-3.3c-4.9-1.1-9.6-2.9-12.9-7c-2.5-3-3-6.2,0.3-8.7c2.8-2.1,6-1.8,8.4,1
		c1.8,2.1,3.5,5.7,6.4,4.6c3.2-1.2,0.9-5,1.4-7.6c1.1-5.6-1-8.4-6.9-9.8c-7.8-1.9-11.9-8-12-15.2c-0.1-7.6,4.2-13.5,11.7-16.1
		c3.4-1.2,7.5-1.2,7.9-6.5c0.1-1.8,2.7-1.5,4.3-1.5c2.3,1.2,2,2.9,1.2,5c-0.8,1.9-1.3,4-1.7,6.5c5.3-5.9,10.4-5,15.5-0.4
		c1,1,2,2,3,3c1.2,3.9-1.9,3.5-4.1,4.1C232.1,342,235,343.5,231.8,346z"/>
	<path class="st18" d="M373.9,446.1c-1.4,4.7-1.4,4.7-10.5,5.5c1.7,1.6,3.2,3,4.6,4.4c-2.6,4.4-5.9,7.5-11.2,8.9
		c-5.6,1.6-8.6,5.9-8.6,12c-0.1,6.1,2.7,10.1,8.2,12.5c0.3,0.1,0.6,0.3,0.9,0.4c8,3.4,9.2,5.7,7.8,14.3c-0.6,3.7-2.7,4.7-6,2.8
		c-1.6-0.9-2.6-2.5-4.2-3.5c-1.7-1-3.6-1.2-5.1,0.3c-1.6,1.6-0.9,3.4,0.3,4.9c1.4,1.9,3.3,3.2,5.5,4.2c1.2,0.5,2.6,1.4,3.8,1.1
		c4-0.8,5.4,6.4,8.8,3.7c2.9-2.4,6-3.2,9.2-4.4c5.8-2.2,9.1-6.9,9.2-12.9c0.1-6.4-2.7-10.4-8.9-13c-0.6-0.3-1.3-0.4-1.9-0.6
		c-6.8-2.2-9.3-8.1-6.2-14.6c1.5-3.2,3.6-2.5,5.5-0.7c2.1,1.9,4.1,3.9,6.7,5.2c0.8,0.4,0.6,2.5,2.4,1.4c1.7-1,3.5-0.5,5.6,0.8
		c-1-2.5-0.9-4.6,2-6.5c-3.5,0.1-4.9-1.6-5.6-4.4c-0.5,1.5-0.9,2.5-2.1,2.5c-1.3-1.1-1.6-2.4-1.1-4c-3.7-6.8-1.5-11.6,4.9-15.1
		c12.3,5.9,19.7,16.1,21.8,29.1c2.9,17.9-2.6,33.3-18.2,43.8c-25.2,17-60.7,2.7-66.1-27c-4.8-26.3,12.8-48.2,36.8-51.2
		C366.2,445.4,370,445.4,373.9,446.1z"/>
	<path class="st18" d="M387.9,451.3c-1.8,0-3.7-0.3-5.5,0c-3.4,0.5-4.9-1.1-5.3-4.2C381.1,447.5,384.9,448.4,387.9,451.3z"/>
	<path class="st19" d="M383,466.4c0.4,1.3,0.7,2.5,1.1,3.8c-0.6,2.6-2.2,2.1-3.8,1.6c0.9,1.4,3.8,2.6,1.6,5.3
		c-2.8,0.3-4.7-1-6.2-3.3c-1-1.6-2.5-3.4-4.3-2.7c-1.3,0.6-1.1,2.9-1.2,4.6c0,1,0.1,2,0,3c-0.8,4.2,1.2,5.7,5.1,6.6
		c5.9,1.3,11.1,4.2,12.4,10.8c1.2,5.8,0.3,11.3-4.6,15.5c-2.1,1.8-4.4,2.9-7,3.6c-2.8,0.7-5.5,0.8-6.7,4.6c-0.7,2.3-4.3,2.1-5-0.4
		c-0.9-3.3-3.3-3.4-5.5-3.9c-4.1-0.9-7.5-2.8-10.1-5.9c-2.1-2.5-2.6-5.4,0.2-7.4c2.6-1.9,5.6-1.9,8,0.9c0.7,0.9,1.4,1.9,2.2,2.7
		c1,0.8,2.2,1.8,3.6,1.3c1.7-0.6,1-2.2,1.1-3.5c0.1-1-0.1-2,0-3c0.5-4.7-0.4-7.7-6-9.2c-8.2-2.1-11.2-7.4-10.9-15.7
		c0.3-6.3,5.1-11.8,12.3-13.3c2.7-0.6,4.7-0.8,4.9-4.2c0.1-2.1,2.3-2,3.9-2.2c4.5,3-0.7,6.1,0.4,10
		C373.6,459.4,378.3,463.1,383,466.4z"/>
	<path class="st15" d="M479.9,234.1c3.4-5.1-3.5-4.4-4-7.6c2.2-1.6,6.8,1.7,7.8-3.1c0.5-1.5,1.1-3,2.1-5.7c1.9,5.2,2.7,10.7,9.9,8.5
		c-3.4,3.4-7.7,6.1-3.3,12.3c-5.1-5-9.1-3.3-13.1,0.8C479.6,236.9,479.8,235.5,479.9,234.1z"/>
	<path class="st20" d="M475,264c0.1,2.3-0.6,4.3-2.3,5.8c-1.6,1.4-3.7,2.8-5.8,1.9c-1.8-0.7-0.8-2.9-0.9-4.5c-0.1-2-0.2-4,0-5.9
		c0.2-1.7-1.1-4.1,1.1-4.9c2.2-0.8,4.1,0.8,5.7,2.3C474.4,260,475.1,261.9,475,264z"/>
	<path class="st21" d="M457.9,232.9c0,0.5,0.1,1,0,1.5c-0.5,1.9,1.4,5-1.5,5.5c-2.9,0.5-4.7-2-5.8-4.6c-1.7-3.9,1.1-8.8,5.2-9.7
		c1.7-0.4,2.1,0.4,2.1,1.7C457.9,229.3,457.9,231.1,457.9,232.9z"/>
	<path class="st22" d="M231.8,346c2.4-4-2.6-3.9-3.4-6.4c1.6-2,6.3,1.3,6.6-3.3c0.6-1.1,1.1-2.3,2-4.2c1.3,4.7,2.9,8.5,8.8,7
		c-4.4,4.4-4.4,4.4-3.2,11.1c-3.6-2.3-7.1-6-10.2-0.1C230.5,348.3,232.5,347.2,231.8,346z"/>
	<path class="st23" d="M219.1,372.4c0-0.7-0.1-1.4,0-2c0.3-1.7-1.1-4.2,1.1-4.9c2.1-0.6,4.1,1.1,5.5,2.8c2,2.3,1.8,5,0.7,7.5
		c-1.1,2.4-3.6,4.1-6,3.7c-2.5-0.5-0.9-3.3-1.3-5.1C219,373.8,219.1,373.1,219.1,372.4z"/>
	<path class="st24" d="M212.1,345.1c-1,2.1,1.4,6-1.6,6.2c-3,0.2-5.6-2.8-5.5-6.5c0.1-3.4,2.5-6.3,5.4-5.9
		C213.5,339.2,211.2,342.9,212.1,345.1z"/>
	<path class="st22" d="M381.9,477.1c1.4-3.4-2.7-3.5-3.3-5.7c1.7-1.2,4,0.3,5.5-1.3c1.6-0.9,0.2-3.4,2.5-4.4
		c1.1,3.1,2.1,6.8,7.1,5.5c-3.4,2.7-4.3,5.8-2.2,9.8c-3.5-3.5-6.7-3.4-10.3,0C381.5,479.2,381.7,478.2,381.9,477.1z"/>
	<path class="st25" d="M377.6,501.3c-0.4,1.8-0.7,3.8-2.7,5c-2.5,1.4-4.1,1.4-4.1-2.1c0-1.2-0.2-2.4,0-3.5c0.4-1.8-1.6-5.1,1.7-5.3
		C375.8,495.2,377.3,498,377.6,501.3z"/>
	<path class="st26" d="M364.4,476.1c-1.4,2.1,1.3,5.7-2.4,5.7c-2.3,0-4.1-2.5-4.1-5.4c0-3.1,1.6-5.7,4.4-5.6
		C366.1,471,362.3,474.7,364.4,476.1z"/>
</g>
</svg>
