<?xml version="1.0" encoding="utf-8"?>
<!-- Generator: Adobe Illustrator 19.0.0, SVG Export Plug-In . SVG Version: 6.00 Build 0)  -->
<svg version="1.1" id="Calque_1" xmlns="http://www.w3.org/2000/svg" xmlns:xlink="http://www.w3.org/1999/xlink" x="0px" y="0px"
	 viewBox="0 0 612 792" style="enable-background:new 0 0 612 792;" xml:space="preserve">
<style type="text/css">
	.st0{fill:#FDDCCB;}
	.st1{fill:#000074;}
	.st2{fill:#5B5D6D;}
	.st3{fill:#0000B1;}
	.st4{fill:#C43421;}
	.st5{fill:#E4E4E4;}
	.st6{fill:#F5C4A9;}
	.st7{fill:#6F7283;}
	.st8{fill:#464655;}
	.st9{fill:#030302;}
	.st10{fill:#010137;}
	.st11{fill:#010135;}
	.st12{fill:#FDD581;}
	.st13{fill:#FDFDFC;}
	.st14{fill:#FDFDFD;}
</style>
<g>
	<path class="st0" d="M237,464.4c-0.3-0.6-1-1.2-0.9-1.7c1.5-6.8-2.4-10.5-7.4-14.1c-12.9-9.4-21.6-22.4-29.9-35.7
		c-4-6.4-5.5-13.9-7.7-21c-0.8-2.6-1.3-3.5-4.3-2.8c-4.2,1.1-7.8-1-10.7-4.1c-8.1-8.5-12.1-18.4-10.2-30.2c1.7-10.7,9-13.7,17.9-7.4
		c2,1.4,2.1,3.6,2.4,5.8c0.9,6,1.8,11.9,1.9,18c-0.6-14.1,2.9-27.2,9.7-39.4c6.3-11.2,12.1-22.6,14.8-35.3c1-4.7,2.5-5.4,6.6-3.5
		c13.6,6.3,28.1,7.7,42.7,9.1c12.7,1.2,25.5,1.4,38.3,2.3c1.9,0.4,3.3,1.5,4.6,2.9c12.9,13.1,28.6,20.8,46.5,24.5
		c2.6,0.6,5.3,1.1,6.5,3.9c4.8,11.5,6.7,23.7,7.8,36c-0.1,0.7,0.7-0.3,0.2,0c-0.3,0.1-0.4,0-0.4-0.4c0.4-7.3,2.5-14.4,3.3-21.6
		c0.2-1.3,0.8-2.5,2.1-3.2c9.7-4.8,16.3-0.8,16.9,11.3c0.5,11.5-3.6,21.5-12.7,28.9c-2.3,1.9-5.2,3.8-8.2,2.5
		c-3.5-1.4-4.2,0.6-4.7,3c-2.5,12.8-8.5,23.9-16.2,34.2c-8.2,10.9-17,21.1-29,28.1c-1,2-2.6,3.4-4.6,4.3c-7.1,3.2-14.3,6.6-22.2,7.4
		c-15.7,1.6-31.3,1.4-45.8-6c-4.9-2.5-4.9-2.4-6.5,3C237.7,463.6,237.4,464,237,464.4z"/>
	<path class="st1" d="M166,645.1c-25.5,0-50.9,0-76.8,0c6.4-29.3,10.9-58.8,21.1-86.9c3.8-10.6,10.3-19.1,19.6-25.8
		c23.5-16.8,49.2-29.6,75.1-42.1c4.6-2.2,9.4-4.2,14.1-6.4c1,2.3-0.8,3.7-1.8,5.3c-9.3,14.8-19,29.3-28.4,44.1
		c-3.8,5.9-3.5,7.7,2.8,11.3c7.4,4.3,15.6,6.6,23.7,9c2.3,0.7,5.9,0.5,6.4,3c0.6,3-3.1,3.9-5.1,5.3c-6.6,4.5-13.2,9.1-20,13.3
		c-3.4,2.1-3.9,4.2-2.1,7.8c6.8,13.2,13.3,26.5,19.9,39.7c3,6,5.3,12.2,8.5,18.1c0.7,1.3,1.5,2.7,0.9,4.3c-17.3,0-34.7,0-52,0
		c-1-0.8-1.3-1.9-1.3-3.1c-0.3-13.2-0.6-26.3,0.7-36.5c-0.4,9.7-1.9,22.2-3.7,34.6C167.4,641.8,167.5,643.7,166,645.1z"/>
	<path class="st1" d="M382,645.1c-17.3,0-34.7,0-52,0c-1.3-2.4,0.5-4.2,1.3-6c8.8-18.3,17.6-36.7,26.8-54.8c3-5.8,2.8-6.1-2.4-9.6
		c-6.6-4.5-13.3-8.9-20-13.3c-1.6-1.1-4-2.1-3.7-4.3c0.3-2.4,2.9-2.4,4.7-2.9c9-2.6,17.9-5.3,26-10.2c5.7-3.4,5.9-4.4,2.5-10.2
		c-8.1-13.8-16.5-27.4-24.4-41.3c-1.1-1.9-3-3.7-1.9-6.4c28.6,12.9,56.6,26.9,82.7,44.7c11.7,8,19,18.6,23.4,31.8
		c7.6,22.8,11.9,46.3,16.8,69.7c0.1,0.3,0.1,0.7,0.1,1c0.5,3.9,3.7,8.7,1.4,11.3c-2.2,2.4-7.6,0.7-11.5,0.7
		c-21.3,0-42.6-0.1-63.9-0.1c-1.2-1-1.6-2.5-1.8-4c-1.8-12.4-3.1-24.9-3.5-34.5c1.1,8.6,0.9,20.2,0.9,31.9
		C383.5,640.8,383.8,643.3,382,645.1z"/>
	<path class="st2" d="M356.9,335.5c-0.9-0.8-1.4-1.9-3-2.2c-20.8-3.3-38.3-13-53-28c-3.8-1.5-5.8-4.9-7.9-8.1
		c-11.7-16.7-17.6-35.3-17.3-55.8c0.1-4.4,0.1-9,2.3-13.1c2.4-6.8,3.8-14,6.8-20.7c14.9-33.8,49-55.4,85.9-54.1
		c49.7,1.7,89.7,44.8,87.1,94.4c-1.2,23.1-10,43.2-26.4,59.8c-1.7,1.8-3.9,3.1-5.1,5.4c-3.5,4.7-8.7,7.1-13.4,10.2
		c-1.6-0.9-2.8,0.1-4.1,0.8c-10,5.1-20.5,8.8-31.7,9.3c-5.3,0.2-5.2,3.7-6.1,6.9C368,334.1,362.1,335.8,356.9,335.5z"/>
	<path d="M278,228.4c-0.8,10.2-1.5,20.4,0.4,30.6c3.2,17.6,11,32.8,22.6,46.3c-32.1-1-66.2-1.9-86.1-13.1c-2.3,17-11,31.3-18.6,46
		c-5.8,11.3-7.2,23.8-8.1,36.5c-1.4-9.1-2.9-18.2-4.3-27.3c-0.8-14.9-2.7-29.8-1-44.8c2-18,6.6-35,18.8-49
		c11.4-13,26.9-18.5,43.1-22.1C255.7,229.1,266.8,228.1,278,228.4z"/>
	<path class="st3" d="M339,486.1c5.6,11.3,12.6,21.8,19,32.7c3.2,5.6,6.3,11.4,9.9,16.7c2.5,3.6,1.4,5.7-1.7,7.8
		c-8.8,6-18.8,9.1-28.8,12c-1.6,0.5-3.1,0.9-5.2,1.5c4.4,4.3,9.5,6.8,14,10c4.2,3,8.5,5.8,12.9,8.5c2.8,1.7,3.4,3.6,1.8,6.6
		c-3.9,7.5-7.7,15.1-11.4,22.7c-6.5,13.5-13,27-19.4,40.4c-10,0.1-19.9,0.2-29.9,0.3c-2-2.3-1.6-5-1.3-7.6
		c3.3-27.8,6.5-55.7,9.8-83.5c0.3-2.2,0.7-4.3,2.3-5.9c3-23.6,6-47.1,9.1-71.1C326.6,480.2,333.1,482.5,339,486.1z"/>
	<path class="st3" d="M224,645.1c-10.6-21.5-21.2-42.9-31.9-64.3c-1.1-2.3-0.7-3.4,1.4-4.8c9.3-6,18.5-12.3,28.3-18.9
		c-6.9-2.1-13.3-3.9-19.5-6.2c-5.6-2-11.2-4.2-15.7-8.3c-2.6-2.3-2.8-4.1-0.8-7.1c11.2-17,22.1-34.3,33.1-51.4
		c4.4-2.2,8.8-4.4,14-6.9c1.4,9.9,2.7,19.4,4.1,28.8c2,14.1,4,28.3,6,42.4c3.4,5.2,2.6,11.3,3.3,16.9c2.7,22,5.2,44,7.8,66
		c0.4,3.5,0.2,7,1,10.4c0.3,1.3-0.2,2.6-1.3,3.6C243.9,645.2,233.9,645.2,224,645.1z"/>
	<path class="st4" d="M297.9,645.4c-14.2,0-28.3-0.1-42.5-0.1c-1.5-6.2,0.2-12.2,1.1-18.2c2.9-20.5,5.8-41.1,8.8-61.6
		c0.3-1.8,0.3-3.7,1.4-5.2c4.1-3.3,8-6.7,11.3-10.9c2.8-3.6,5.7-2.5,8.1,2.7c2.7,12.8,4,25.9,5.9,38.8c2.3,16.1,4.9,32.1,6.7,48.3
		C299,641.3,299.6,643.5,297.9,645.4z"/>
	<path class="st5" d="M243.1,548.4c5.6-5.3,11.2-10.7,16.8-16c4.2,4,7.4,9,9.7,14.2c2,4.5,0.5,9.4-1.6,13.8
		c-1.9,12.5-3.9,24.9-5.7,37.4c-2.3,15.8-4.5,31.6-6.7,47.5c-0.5,0-1.1,0-1.6,0.1"/>
	<path class="st6" d="M237,464.4c0-9.5-0.2-9.2,8.2-5.4c19.5,8.7,39.3,9.2,59.3,1.6c4.3-1.6,8.7-3.4,12.4-6.2c1.9,8.9-3.3,14.5-9,20
		c-5.1,5.6-12,6.6-18.9,7.6c-11.6,1.6-23.1,1.1-34.5-2.1c-4-1.1-7.2-3.2-9.7-6.5C242.3,470.4,239.7,467.4,237,464.4z"/>
	<path class="st0" d="M245,473.4c7.8,6.1,17.2,7.4,26.6,7.9c12.6,0.7,25.1-0.3,36.4-6.9c-2.9,6.4-8.2,11.1-12.3,16.6
		c-4.9,6.7-10.3,13-15.4,19.5c-2,2.5-3.7,3.6-6.2,0.5c-9.4-11.9-19-23.8-28.5-35.7C245.2,474.8,245.2,474,245,473.4z"/>
	<path class="st7" d="M474.1,366.4c6.6,9.3,13.3,18.6,20,27.9c1.1,1.6,1.8,3.6,4,4.2c-0.1,2.3-2.3,2.7-3.7,3.6
		c-5.2,3.1-9.3,7.9-15.4,9.7c-1.3-0.4-2.3-1.4-3-2.5c-6.5-9-12.8-18.2-19.2-27.3c-1.1-1.6-1.9-3.5,0-4.9c5.1-3.9,10.1-8.1,15.9-11
		C473.1,365.9,473.6,366.1,474.1,366.4z"/>
	<path class="st2" d="M474.1,366.4c-5.4,3.7-10.8,7.5-16.3,11.1c-1.9,1.3-1.1,2.5-0.3,3.7c7.1,10.1,14.3,20.1,21.5,30.1
		c-2.3,4-5.5,6.6-10.2,7.1c-7.7-10.9-15.4-21.9-23.1-32.8c-2.7-3.9-4.9-8.6-10.9-8.2c11.2-3,18.8-11.8,28.3-17.5
		c1.8-1.1,3.2-2.9,5.7-2.6C469.7,360.9,473.2,362.8,474.1,366.4z"/>
	<path class="st4" d="M294,532.4c-1.7,4.5-4.8,8.1-7.4,12.1c-1.4,2.2-2.3,4.3-1.9,6.9c-2.5-4.1-3.3-3.9-6.3-0.3
		c-3,3.6-5.9,7.5-10.6,9.3c2.8-9.6-0.5-17.6-6.6-24.9c-0.7-0.8-0.9-2.1-1.4-3.1c5-5.3,10.1-10.5,15-15.8c1.7-1.8,2.6-1.8,4.2,0
		C283.9,521.9,289,527.1,294,532.4z"/>
	<path class="st7" d="M437.1,328.3c7.5-2.1,9.5-1.3,14.3,5c3.4,4.5,5.4,10.2,10.7,13.2c-6.2,5.2-11.9,11.3-20.3,13.2
		c-4.6-5-8.3-10.6-11.8-16.4c-2-3.2-1.4-6.7,0-10C431.7,330.8,434.1,329.1,437.1,328.3z"/>
	<path class="st8" d="M468.8,418.4c3.4-2.4,6.8-4.7,10.2-7.1c6.3-4.3,12.7-8.6,19-12.8c3.9-0.9,6.9,0.2,8.4,4.2
		c1.4,3.8-0.6,6.3-3.5,8.4c-7.9,5.5-15.8,11-23.5,16.7c-3.3,2.4-6.6,3.5-9.9,0.5C466.1,425.3,466.6,421.9,468.8,418.4z"/>
	<path class="st8" d="M442,359.4c4.8-1.6,8.2-5.3,12.2-8c2.6-1.7,5.1-3.4,7.8-4.9c7.4,0,10,4.2,6.7,10.8
		c-8.6,6.2-17.3,12.3-25.8,18.6c-2.6,2-5.4,0.9-8.1,1.5c-4.6-2.9-5.1-4.9-2.6-10.1C434.3,363.3,437.9,361.1,442,359.4z"/>
	<path class="st2" d="M442,359.4c-3.3,2.7-6.5,5.3-9.8,8c-2.4-5.5-6.5-9.9-9.8-14.9c-4-6-3.9-8.7,0.6-14.1c1.8-3.1,4.1-5.2,7.9-5
		c-1.8,4.7-1.1,8.8,2.2,12.9C436.5,350.4,439.1,355,442,359.4z"/>
	<path class="st8" d="M431,333.4c-2.6,1.7-5.3,3.3-7.9,5c-3.4-5-6.7-10-10.1-15c3.4-4.8,8.8-7,13.4-10.2c3.6,5,7.1,10.1,10.7,15.1
		C435.7,330.8,432.7,331.3,431,333.4z"/>
	<path class="st9" d="M356.9,335.5c1.5-3.8,4.2-0.5,6.4-1.1c4.9-1.2,7.7,0.8,7.8,6c0,2,0,4,0,6c-2.2,8.6-2,17.7-5.7,26.8
		C363.2,359.9,361.2,347.4,356.9,335.5z"/>
	<path class="st10" d="M166,645.1c0.8-15,3.6-29.7,6-44.6c0,14.9,0,29.7,0,44.6C170,645.1,168,645.1,166,645.1z"/>
	<path class="st11" d="M382,645.1c0-14.6,0-29.1,0-43.7c0.3,0,0.5,0,0.8,0c1.7,14.6,3.5,29.1,5.2,43.7
		C386,645.1,384,645.1,382,645.1z"/>
	<path class="st12" d="M371.6,171.2c40,1.8,70.4,36.1,68.9,75c-1.7,44.7-38.9,73.1-76.7,70.8c-43.3-2.6-70.8-38.2-69.4-75.2
		C296.3,195.5,335.4,168.5,371.6,171.2z"/>
	<path class="st13" d="M367,284.3c-0.7,0-1.3-0.1-2,0c-8,0.9-13.9-0.4-16-10.2c-1.6-7.5-8-12.9-12.7-18.9
		c-9.5-12.3-14.1-25.9-10.4-41.5c3.9-16.5,20.8-29.6,36.5-31.7c24.6-3.3,51.7,18,47.4,48.9c-1.6,11.3-7.7,20.8-15.2,29.3
		c-4.5,5.2-8.5,10.8-10.2,17.5c-1.3,4.9-4.1,6.9-9,6.6C372.6,284.2,369.8,284.3,367,284.3z"/>
	<path class="st14" d="M366.2,307.3c-3.6,0.5-6.9,0.6-6.2-4.7c0.2-1.3-0.6-2.3-2-2.2c-2.9,0.2-3-1.6-3.1-3.8
		c-0.1-6.2-0.2-6.2,6.1-6.2c4.5,0,8.9,0.1,13.4,0c2.5-0.1,4.1,0.7,3.4,3.3c-0.5,2.3,2.2,6-2.6,6.6c-1.5,0.2-3.3,0.1-3.1,2.2
		C372.9,307.7,369.8,307.9,366.2,307.3z"/>
	<path class="st12" d="M334.9,224.2c0.1-17.9,13.1-31.4,31.6-32.7c15.9-1.1,31.3,12.2,33.6,28.6c1.9,13.5-4.8,23.7-12.7,33.2
		c-4.4,5.3-8.3,10.8-10.8,17.2c-1.1,2.8-2.5,4.2-5.4,3.8c-0.5-0.1-1-0.1-1.5,0c-6.9,1.3-10.8-1.2-13.3-8.1
		c-2.8-7.9-9.7-13.4-14.3-20.3C337.6,239.4,334.4,232.4,334.9,224.2z"/>
</g>
</svg>
