<?xml version="1.0" encoding="utf-8"?>
<!-- Generator: Adobe Illustrator 19.0.0, SVG Export Plug-In . SVG Version: 6.00 Build 0)  -->
<svg version="1.1" id="Calque_1" xmlns="http://www.w3.org/2000/svg" xmlns:xlink="http://www.w3.org/1999/xlink" x="0px" y="0px"
	 viewBox="0 0 612 792" style="enable-background:new 0 0 612 792;" xml:space="preserve">
<style type="text/css">
	.st0{fill:#333333;}
	.st1{fill:#00A0EF;}
</style>
<g>
	<path class="st0" d="M490.3,550.5c0.2-10.5-4.7-19.8-14.5-27c-9.5-6.9-20.3-10.4-31.4-13.6c-20.3-5.9-40.4-12.5-58.4-23.9
		c-19.1-12.2-32.9-28-37.8-51c-10.7-50.6,20.8-98.6,71.5-107.9c2.9-0.5,4.1-1.5,3.8-4.4c-0.2-2.3-0.1-4.7,0-7
		c0.4-9.9,7.2-16.7,16.8-16.8c9.4-0.1,16.7,6.7,17.4,16.3c0.3,3.8-1.6,8.5,1,11c2.2,2.2,6.9,1.8,10.3,2.9
		c29.5,8.9,51.5,26.4,63.5,55.4c2,4.8,3.2,9.8,3.5,15c0.6,10.4-3.6,18.5-12.3,24.1c-9,5.7-18.6,5.5-28.1,1c-4.7-2.2-8-6-9.7-10.9
		c-1.8-5.2-3.5-10.4-4.9-15.7c-4.4-16.7-15-27.6-31.9-30.6c-18.2-3.2-32.9,4.2-42.9,19.3c-9.7,14.6-8.6,29.9,0.1,44.8
		c6.7,11.3,17,18,29.3,21.8c17.1,5.3,34.5,10,51.4,16.1c42.7,15.5,59.3,47.2,55.4,89c-4,42.3-34.8,66.1-68.8,74.7
		c-3.1,0.8-6.2,1.9-9.3,1.9c-6-0.1-7.3,2.7-6.6,7.9c0.4,3.2-0.1,6.3-1.2,9.3c-2.8,7.3-10.6,12-18.3,10.9
		c-7.9-1.1-13.8-7.5-14.6-15.5c-0.4-4,1.8-9.2-1.3-11.8c-2.7-2.2-7.6-1.7-11.5-2.5c-33.5-6.6-56.8-25.7-69.5-57.3
		c-4.7-11.7-5-23.4,4.6-33.5c12.1-12.7,37.6-10.3,43.5,7.8c2,6,4.8,11.7,7.6,17.3c16.5,32.7,60.4,38.2,84.7,10.7
		C487.5,571.7,490.6,562.3,490.3,550.5z"/>
	<path class="st1" d="M440.8,244.7c0-10.9-4.6-15.5-15.4-15.5c-34,0-68,0-102,0.1c-3.8,0-5.2-1-5.4-4.9c-0.6-10.6-3.4-20.7-8.1-30.1
		c-10.2-20.2-25.5-32.5-49.4-31.3c-8.1,0.4-16.3,0.3-24.5,0c-15.3-0.4-27.4,5.9-37.1,17.3c-10.9,12.7-15.7,28-17.3,44.4
		c-0.3,3.4-1.2,4.7-5,4.7c-33.7-0.2-67.3-0.1-101-0.1c-12.5,0-16.6,4.2-16.6,16.8c0,84.8,0,169.6,0,254.5c0,12.3,4.1,16.4,16.5,16.4
		c96.3,0,192.6,0,288.9,0c17.7,0,35.5,0,53.2,0c0.1-0.2,0.1-0.5,0.2-0.7c-1.8-0.7-3.5-1.5-5.3-2.2c-8.8-3.1-17.3-6.8-25.6-11.2
		c-43.2-22.7-59.4-59.9-53.5-102.9c5.7-41.7,31-68.8,70.3-83c3.7-1.3,5.5-2.9,6.3-6.9c2.6-13.4,13.8-23.8,27-25.1
		c3-0.3,3.9-1.3,3.9-4.2C440.8,268.7,440.8,256.7,440.8,244.7z M277.6,227.3c-9.3-0.1-18.6,0-27.9,0c0,0,0,0,0,0
		c-8.8,0-17.6-0.2-26.4,0.1c-4.1,0.1-5.6-0.5-4.4-5.1c1.7-6.5,3.5-12.8,7.8-18.1c2.4-3.1,5.3-4.6,9.4-4.5c9.5,0.2,19,0.2,28.4,0
		c3.3,0,5.8,1,7.8,3.5c5,6.1,7.4,13.3,8.7,20.9C281.6,227.1,279.9,227.3,277.6,227.3z"/>
</g>
</svg>
