<?xml version="1.0" encoding="utf-8"?>
<!-- Generator: Adobe Illustrator 19.0.0, SVG Export Plug-In . SVG Version: 6.00 Build 0)  -->
<svg version="1.1" id="Calque_1" xmlns="http://www.w3.org/2000/svg" xmlns:xlink="http://www.w3.org/1999/xlink" x="0px" y="0px"
	 viewBox="0 0 612 792" style="enable-background:new 0 0 612 792;" xml:space="preserve">
<style type="text/css">
	.st0{fill:#4EBDF4;}
	.st1{fill:#56BFF4;}
	.st2{fill:#00A0EF;}
	.st3{fill:#333333;}
	.st4{fill:#F45314;}
</style>
<g>
	<path class="st0" d="M288.8,126.8c0-0.3,0.1-0.6,0.2-0.8c3.7,0,7.3,0,11,0C296.4,127.7,292.6,127,288.8,126.8z"/>
	<path class="st1" d="M562,399l-0.4,0.3l-0.4,0c-0.1-3.4-0.9-6.9,0.8-10.2C562,392.3,562,395.7,562,399z"/>
	<path class="st2" d="M562,363c-0.5-0.5-0.5-1.2-0.5-1.9c0-17.3-2.7-34.1-7.5-50.6c-11.2-38.2-30.1-72.2-56.8-101.6
		c-23.7-26.1-51.5-46.8-83.6-61.4c-20.7-9.4-42.1-16.6-64.8-19.7c-7.9-1.1-15.9-0.8-23.7-1.8c-8.3,0-16.7,0-25,0
		c-3.5,1.1-7,0.2-10.5,0.5c-19.8-0.2-39,2.6-58,8.4c-36.9,11.4-69.8,29.8-98.3,55.6c-26.2,23.7-47,51.7-61.7,84
		c-9.4,20.7-16.6,42.1-19.7,64.7c-1.2,9.2-1,18.5-1.8,27.7c0,11.7,0,23.3,0,35c0.5,0.5,0.5,1.2,0.5,1.9c0.2,16.7,2.7,33.1,7.4,49.2
		c11.3,38.4,30.1,72.5,57,102.1c23.7,26.1,51.5,46.7,83.6,61.4c20.7,9.4,42.1,16.6,64.8,19.7c7.5,1,15.2,0.7,22.7,1.8
		c13,0,26,0,39,0c1.2-0.9,2.6-0.4,3.9-0.5c12.6-0.6,25.1-1.6,37.5-4.7c42.4-10.4,79.9-30.2,112.3-59.4
		c27.2-24.5,48.4-53.5,63.2-87.1c12.3-28,20.4-57,19.6-87.9c0.3-3.2-0.6-6.4,0.5-9.5C562,380.3,562,371.7,562,363z M306.1,604
		C183.4,604.1,84,504.8,84,382c0-122.8,99.3-222,222.1-222c122.7,0.1,222,99.5,221.9,222.2C527.8,504.8,428.7,603.9,306.1,604z"/>
	<path class="st3" d="M315.6,467.8c12.3,5.9,24.5,11.7,38.5,11.7c12.4,0,24.6-0.9,36.7-3.4c8.5-1.7,15.9-5.6,22.3-11.5
		c7-6.4,14.9-11.1,24.7-11.9c1.3-0.1,2.7-0.2,4,0c5.2,0.5,9.7,2.3,12.3,7.3c2.5,5-1.3,8-3.9,11.4c5.9,4,6.4,7.2,1.8,12.9
		c-3.5,4.3-7.4,8.2-11.9,11.4c-10.3,7.3-20.8,14.4-31.3,21.5c-6.7,4.5-14.4,5.5-22.2,6.5c-20.1,2.5-40,6.7-60.2,8.8
		c-8,0.8-15.5-0.1-22.9-3.1c-23.2-9.6-45.4-21.2-68.2-31.7c-9.2-4.3-18.5-8.3-28.9-8.8c-4.3-0.2-6.6-3-6.6-7.3c0-19.7,0-39.3,0-59
		c0-3,1.4-5.3,4.2-6.1c31.3-9.1,62.7-14.3,94.5-2.3c3.9,1.5,7.9,2.9,11.3,5.1c11.7,7.3,24.8,9,38.2,9.8c14.3,0.9,28.5,2.9,42.1,7.7
		c13.2,4.7,16.3,19.3,6,29c-3.8,3.6-8.6,4-13.5,4.2c-14.9,0.6-29.6-1-44.3-2.6C330.7,466.6,323.2,466.4,315.6,467.8z"/>
	<path class="st4" d="M287.5,375.9c12.7,0,25.3,0.1,38-0.1c2.8,0,4,0.5,4.2,3.7c0.5,6.3,4.3,9.5,10.6,9.6c6.5,0.1,13,0.1,19.5,0
		c6.2-0.1,10-3.5,10.3-9.8c0.2-3,1.3-3.5,3.9-3.5c25.5,0.1,51,0.1,76.5,0c3,0,4,0.8,4,3.9c-0.2,12.8,0,25.7-0.1,38.5
		c-0.1,6.5-4.1,10.5-10.7,10.6c-17.7,0.1-35.3,0.5-53-0.2c-8-0.3-15.8-3.5-23.9-4.8c-11.5-1.8-23.3-1.4-34.7-3.8
		c-4.9-1-9.6-2.6-14.1-4.9c-21.6-11.1-44.2-17.5-68.7-14.4c-3.2,0.4-4.1-0.6-4-3.7c0.2-5.7,0.2-11.3,0-17c-0.1-3.3,1-4.2,4.2-4.2
		C262.1,376,274.8,375.9,287.5,375.9z"/>
	<path class="st4" d="M157,452c0-14,0-28,0-42c0-6.6,1.7-8.2,8.3-8.2c6.3,0,12.7,0,19,0c4.5,0,6.8,2.2,6.8,6.7c0,29,0,58,0,87
		c0,4.9-2.1,6.9-7.1,7.1c-6.5,0.1-13,0.1-19.5,0c-5.5-0.1-7.5-2.1-7.5-7.6C156.9,480.7,157,466.4,157,452z"/>
	<path class="st4" d="M360.1,362.5c0,0.2,0,0.3,0,0.5c0,17.5,0,17.4-17.5,15.6c-2.2-0.2-2.8-1-2.8-3.1c0.1-8.6,0.1-17.3,0-25.9
		c0-2.4,0.8-3.2,3.2-3.1c4.6,0.1,9.3,0.2,13.9,0c2.8-0.1,3.3,1.1,3.2,3.6C360,354.2,360.1,358.3,360.1,362.5z"/>
	<path class="st4" d="M454.4,321.1c0-13.2,0-26.3,0-39.5c0-10.2-3.3-13.5-13.4-13.5c-16.3,0-32.7-0.1-49,0.1c-3.4,0-4.8-0.7-4.6-4.4
		c0.3-4.1,0.2-8.3,0-12.5c-0.4-11.4-8.6-19.8-20.1-20.1c-11.8-0.3-23.7-0.3-35.5,0c-10.9,0.3-19,8.5-19.8,19.4c-0.1,1.7,0,3.3-0.1,5
		c-0.2,4,1.6,9.1-0.7,11.6c-2.6,2.7-7.9,0.8-12,0.9c-14.2,0.1-28.3,0-42.5,0.1c-7.5,0-11.6,3.9-11.6,11.3c-0.1,28.2,0,56.3-0.1,84.5
		c0,2.7,0.7,3.8,3.6,3.8c25.7-0.1,51.3-0.1,77,0c3.3,0,3.8-1.4,3.7-4.2c-0.2-5.7-0.2-11.3,0.1-17c0.3-6.1,3.9-9.9,10.1-10.2
		c6.8-0.3,13.7-0.3,20.5,0c6.1,0.2,9.7,4.2,9.9,10.3c0.2,5.7,0.2,11.3,0,17c-0.1,3.1,0.9,4,4,4c25.3-0.1,50.6-0.1,76,0
		c3.6,0,4.5-1.3,4.4-4.6C454.3,349.1,454.4,335.1,454.4,321.1z M370.8,268.1c-7-0.2-14-0.1-21-0.1c-6.8,0-13.7-0.1-20.5,0.1
		c-2.9,0.1-3.7-1-3.6-3.7c0.2-4.3,0-8.7,0.1-13c0.1-4.2,2.3-6.6,6.5-6.6c11.7-0.1,23.3-0.1,35,0c4.4,0,6.7,2.5,6.7,6.9
		c0,4.3-0.1,8.7,0,13C374.2,267.3,373.5,268.2,370.8,268.1z"/>
</g>
</svg>
