<?xml version="1.0" encoding="utf-8"?>
<!-- Generator: Adobe Illustrator 19.0.0, SVG Export Plug-In . SVG Version: 6.00 Build 0)  -->
<svg version="1.1" id="Calque_1" xmlns="http://www.w3.org/2000/svg" xmlns:xlink="http://www.w3.org/1999/xlink" x="0px" y="0px"
	 viewBox="0 0 612 792" style="enable-background:new 0 0 612 792;" xml:space="preserve">
<g>
	<path d="M370,127c2,0,4,0,6,0c6.5,5.3,6.9,8.3,2.3,15.7c-18.2,29.4-36.5,58.9-54.7,88.3c-0.9,1.5-1.7,3-2.9,4.9c2.4,0,3.9,0,5.4,0
		c65.3,0,130.6,0,195.9,0c20.1,0,35.6,15.2,35.6,35.2c0.1,93.8,0.1,187.6,0,281.4c0,20-15.5,35.3-35.6,35.4c-2,0-3.9,0-6.4,0
		c0,4.8-0.2,9.1,0.1,13.4c0.3,5.2-1.4,9.1-5.9,11.7c-2,0-4,0-6,0c-4.2-3.2-5.6-7.4-5.1-12.6c0.4-4.1,0.1-8.2,0.1-12.2
		c-129,0-257.3,0-386,0c0,4.6-0.2,8.9,0.1,13.2c0.4,5.2-1.4,9.1-5.9,11.6c-1.7,0-3.3,0-5,0c-4.7-2.4-6.4-6.3-6.1-11.5
		c0.3-4.4,0.1-8.9,0.1-13.6c-2.7,0-4.6,0-6.6,0c-9.5,0.2-17.5-3.3-24.4-9.7c-5.7-5.2-8.7-12-11-19.3c0-98,0-196,0-294
		c0.2-0.4,0.5-0.9,0.7-1.3c5.8-19,17.6-27.7,37.5-27.7c64,0,128,0,192,0c1.7,0,3.4,0,5.9,0c-2.1-3-3.5-5.1-4.9-7.1
		c-19.9-28.6-39.8-57.1-59.7-85.7c-5.2-7.5-4.9-10.1,1.5-16.1c2,0,4,0,6,0c2,2.1,4.4,4,6.1,6.4c21,30,41.9,60,62.8,90
		c1.1,1.5,2.2,3,3.6,4.9c1.4-2.2,2.5-3.9,3.5-5.6c18.3-29.5,36.6-59.1,55-88.6C365.6,131.5,368,129.4,370,127z M306,252.8
		c-72,0-144,0-215.9,0c-14,0-19.1,5.1-19.1,18.9c0,94,0,187.9,0,281.9c0,11.6,5.9,17.4,17.6,17.4c144.6,0,289.2,0,433.9,0
		c1.8,0,3.7,0.1,5.5-0.3c8.6-1.5,13-7.6,13-17.9c0-66.5,0-133,0-199.4c0-27.7,0-55.3,0-83c0-11.7-5.8-17.4-17.5-17.6
		c-1.8,0-3.7,0-5.5,0C447.2,252.8,376.6,252.8,306,252.8z"/>
	<path d="M255.2,554.3c-38.3,0-76.7-0.6-115,0.2c-28.1,0.6-53.2-24.1-52.8-52.9c0.7-59.6,0.7-119.3,0-178.9
		c-0.3-27.5,22.7-53.5,53.6-53.4c76.6,0.4,153.3,0.1,229.9,0.1c29.5,0,52.3,22.7,52.3,52.1c0,60-0.5,120,0.2,179.9
		c0.3,28.7-24.8,53.7-53.3,53C331.9,553.6,293.6,554.3,255.2,554.3z M255.5,286.1C255.5,286.1,255.5,286.1,255.5,286.1
		c-38.2,0-76.3-0.1-114.5,0c-4.5,0-9.1,0.4-13.3,1.5c-15.3,4.1-23.4,16.3-23.4,34.7c0,60,0,119.9,0,179.9c0,22,13.2,35.3,35.1,35.3
		c77.1,0.1,154.3,0,231.4,0c3.8,0,7.7-0.3,11.4-1.2c15.8-4,24.3-16.1,24.4-34.4c0-60,0-119.9,0-179.9c0-3.8-0.3-7.7-1.2-11.4
		c-3.7-15.2-15.9-24.4-32.9-24.4C333.5,286.1,294.5,286.1,255.5,286.1z"/>
	<path d="M524,453.5c0,10.8,0,21.7,0,32.5c0,6.4-3.1,9.7-9.4,9.7c-21.7,0.1-43.3,0.1-65,0c-6.4,0-9.5-3.3-9.5-9.7
		c-0.1-21.5-0.1-43,0-64.5c0-6.4,3.2-9.6,9.5-9.6c21.7-0.1,43.3,0,65,0c6.4,0,9.4,3.1,9.5,9.5C524.1,432.2,524,442.8,524,453.5z
		 M457.2,429c0,16.8,0,33.2,0,49.7c16.7,0,33.1,0,49.6,0c0-16.7,0-33.1,0-49.7C490.3,429,474,429,457.2,429z"/>
	<path d="M482,328.1c-10.7,0-21.3,0-32,0c-6,0-9.9-3.3-9.9-8.2c-0.1-5.1,3.9-8.6,10.1-8.6c21.1-0.1,42.3,0,63.4,0
		c6.6,0,10.3,3.1,10.4,8.3c0.1,5.5-3.6,8.5-10.5,8.5C503,328.1,492.5,328.1,482,328.1z"/>
	<path d="M482.2,344.9c10.7,0,21.3,0,32,0c6.1,0,9.7,3.1,9.8,8.2c0.1,5.1-3.5,8.5-9.6,8.5c-21.5,0.1-43,0.1-64.4,0
		c-6,0-9.8-3.3-9.9-8.3c-0.1-5.1,3.8-8.4,10.1-8.4C460.9,344.9,471.6,344.9,482.2,344.9z"/>
	<path d="M481.8,395.1c-10.7,0-21.3,0-32,0c-5.9,0-9.8-3.4-9.7-8.4c0-4.8,3.7-8.3,9.3-8.3c21.8-0.1,43.6-0.1,65.4,0
		c5.7,0,9.2,3.5,9.1,8.5c0,5-3.5,8.2-9.3,8.2C503.8,395.1,492.8,395.1,481.8,395.1z"/>
	<path d="M128.9,354.1c-2.3-1.9-5.6-3.4-6.6-5.8c-1-2.5-0.7-6.9,1-8.6c11.2-11.9,22.8-23.3,34.5-34.7c3.3-3.2,8.2-2.6,11.3,0.5
		c3.1,3.1,3.5,8,0.3,11.3c-11.3,11.6-22.8,22.9-34.3,34.2C133.8,352.3,131.6,352.8,128.9,354.1z"/>
	<path d="M223,302.5c-1.8,2.9-2.7,5.3-4.3,7c-7.8,8-15.7,15.8-23.6,23.6c-4.2,4.1-9.3,4.3-12.8,0.7c-3.4-3.6-3.2-8.3,0.8-12.4
		c7.9-8.1,16-16,24-24c2.9-2.9,6.6-4,10-1.9C219.4,297.1,220.9,300,223,302.5z"/>
	<path d="M147.2,377.7c-1.4,2.8-1.9,4.8-3.1,6.2c-2.7,3.1-5.7,6.1-8.8,8.8c-3.7,3.3-8.4,3.1-11.6-0.2c-3.3-3.3-3.4-7.9-0.1-11.6
		c2.8-3.1,5.5-6.5,8.9-8.6c2.4-1.5,6.4-2.1,9-1.1C143.9,372.1,145.4,375.5,147.2,377.7z"/>
	<path d="M171.5,353.2c0,4.5-3.7,8.3-8.2,8.4c-4.7,0.1-8.5-3.8-8.4-8.6c0.1-4.6,3.7-8.1,8.3-8.1C167.8,345,171.5,348.7,171.5,353.2z
		"/>
</g>
</svg>
