<?xml version="1.0" encoding="utf-8"?>
<!-- Generator: Adobe Illustrator 19.0.0, SVG Export Plug-In . SVG Version: 6.00 Build 0)  -->
<svg version="1.1" id="Calque_1" xmlns="http://www.w3.org/2000/svg" xmlns:xlink="http://www.w3.org/1999/xlink" x="0px" y="0px"
	 viewBox="0 0 612 792" style="enable-background:new 0 0 612 792;" xml:space="preserve">
<style type="text/css">
	.st0{fill:#AA6842;}
	.st1{fill:#FDFDFD;}
	.st2{fill:#BCC2C6;}
	.st3{fill:#BCC2C5;}
	.st4{fill:#596B6B;}
	.st5{fill:#DFA385;}
	.st6{fill:#DFA284;}
	.st7{fill:#849594;}
	.st8{fill:#849493;}
</style>
<g>
	<path class="st0" d="M51,592c0-101.3,0-202.7,0-304c2.6-13.9,10.9-21.8,23.6-22.4c69.3,0,138.5,0,207.8,0c10.1,0,20.2-2.1,30.4-1.2
		c36.5,0,73,0,109.5,0c33.8,0,67.7,0,101.5,0c9.3,0,17.8,2,24.5,9.1c4.6,4.8,7.1,10.4,7.3,17c0,0.7,0,1.3,0,2
		c0,98.3,0,196.6,0,294.9c0,11.5-5.6,19.6-15.7,24.7c-3,1.5-6.2,2.4-9.6,2.3c-3.5-0.3-7.1-0.1-10.7-0.1c-3.5,0.3-7,0-10.5,0
		c-133.3,0-266.6,0-399.9,0.1c-10.8,0-21.6,0.1-32.5-0.1C62.9,613.9,53.7,605.8,51,592z"/>
	<path class="st1" d="M530,613.2c15-1.6,24.3-11.8,24.3-27.1c0.1-75.8,0-151.5,0.1-227.3c0-21.5,0-43,0-64.4
		c-0.1-17.5-10.9-28.1-28.5-28.1c-69.4,0-138.9,0-208.3,0c-1.5,0-3-0.2-4.5-0.2c-0.6-2.8,1.5-4.6,2.7-6.7
		c20.5-33.4,41-66.8,61.9-100c3.1-4.9,2.8-7.1-1.1-11.5c-0.7-0.8-1.9-1.4-1.5-2.9c61.3,0,122.7,0,184-0.1c3.4,0,4.1,0.7,4.1,4.1
		c-0.1,165-0.1,330,0,495c0,3.4-0.7,4.2-4.1,4.1c-15-0.2-30-0.1-45-0.1c6.4-8.2,4.2-17.9,4.6-27.1c0.1-2-0.2-4,0.4-5.9
		c0.2-0.5,0.6-0.9,1.1-1.3C523.4,613.2,526.7,614,530,613.2z"/>
	<path class="st1" d="M73,266.8c-12.2,2-18.6,10.1-22,21.2c0-46.5,0-93-0.1-139.5c0-3,0.6-3.6,3.6-3.6C110.3,145,166.2,145,222,145
		c0.2,0.9-0.2,1.6-0.7,2.3c-4.8,6.6-4.8,7.2-0.1,14c22,31.8,44.1,63.5,66.1,95.2c2,2.8,5.8,6,4.3,9c-1.3,2.7-6.1,1-9.3,1
		c-68,0.1-135.9,0.1-203.9,0.1C76.7,266.5,74.8,266.2,73,266.8z"/>
	<path class="st1" d="M508,648c-137,0-274,0-411,0c6-8,4.2-17.3,4.4-26.3c0-1.5,0-3,0.2-4.5c0.3-2.5,1.4-4.1,4.2-3.7
		c0.5,0.1,1,0,1.5,0c131.3,0,262.7,0,394,0c2.2,0.8,2,2.8,2.1,4.6c0.2,3,0.2,5.9,0,8.9C502.8,634.5,503.6,641.6,508,648z"/>
	<path class="st1" d="M227,145c47.3,0,94.7,0,142,0c-4.3,6.8-8.7,13.5-12.9,20.4c-16.6,27.1-33.5,54-50.1,81.2
		c-2.9,4.8-4.1,4.9-7.4,0.2c-11.9-16.8-23.6-33.8-35.4-50.8c-10.6-15.2-21.2-30.3-31.6-45.5C230.2,148.4,227.3,147.8,227,145z"/>
	<path class="st2" d="M227,145c6.2,3.1,8.6,9.5,12.3,14.6c20.8,29.5,41.3,59.1,61.9,88.7c0.3,0.4,0.5,0.9,1.1,1.8
		c7.7-12.5,15-24.4,22.3-36.2c13.3-21.5,26.5-43,39.9-64.5c1.1-1.8,3-3,4.6-4.5c2,0,4,0,6,0c7.2,5.7,7.6,8.6,2.8,16.3
		c-20.8,33.5-41.5,67-62.2,100.5c-0.9,1.4-1.8,2.8-2.6,4.2c-60.2,1.6-120.4,0.5-180.6,0.8c-19.8,0.1-39.6,0-59.4,0
		c2.1-1.5,4.5-0.8,6.8-0.8c67.3,0,134.5,0,201.8,0c3.1,0,6.3,0,10.4,0c-5.3-7.9-10.2-15.1-15.2-22.3c-13-18.7-26-37.3-39-56
		c-6.6-9.4-13.1-18.8-19.8-28.1c-3.8-5.3-2.7-9.5,3.9-14.6C223.7,145,225.3,145,227,145z"/>
	<path class="st1" d="M51,592c3.9,11.8,11,19.9,24,21.2c2.1,0.6,4.3,0.3,6.4,0.3c5.5,0.1,5.8,0.3,6,6c0.1,4.2,0.3,8.3,0,12.5
		c-0.6,6,0.8,11.4,4.6,16.1c-12.7,0-25.3-0.1-38,0.1c-2.5,0-3.1-0.6-3.1-3.1C51.1,627.3,51,609.7,51,592z"/>
	<path class="st3" d="M92,648c-4.8-2-6.3-5.7-6.1-10.8c0.3-6.2-0.1-12.3,0.1-18.5c0.2-3.6-0.8-5.2-4.7-4.9c-2.1,0.2-4.3,0.6-6.3-0.7
		c28-0.1,56-0.2,84-0.2c109,0,218,0,327,0c11.3,0,22.7,0.2,34,0.3c0.3,0.2,0.4,0.3,0.3,0.5c-0.1,0.2-0.2,0.3-0.3,0.3l0,0
		c-0.1,0.1-0.3,0.3-0.3,0.4c1.9,9.9-5.3,14.7-11.2,20.3c-1.3,1.3-2.9,2.6-4.8,1.7c-2-0.9-0.9-2.9-1.2-4.4c-0.6-4.1,0.6-7.3,4-9.9
		c2-1.5,4-3.3,5.3-5.8c-3.1-2.4-7.2,1.1-9.9-2.2c-51.3,0-102.5-0.1-153.8-0.1c-79.4,0-158.8,0-238.2,0c-6.8,0-6.8,0-6.9,6.6
		c0,5.2-0.3,10.4,0.1,15.5c0.5,5.5-1.6,9.3-6.1,12C95.3,648,93.7,648,92,648z"/>
	<path class="st2" d="M501.9,614c3.4,0,6.9,0,10.3,0c0.8,0,1.7-0.2,2.2,0.8c0.4,0.9-0.3,1.6-0.9,2.1c-2.7,2.7-5.4,5.4-8.1,8.1
		c-0.7,0.7-2,1.3-2.1,2c-0.3,2.9-1.8,6.6,0.7,8.4c2.2,1.6,3.6-2,5.3-3.3c5.8-4.7,10.7-9.9,10.7-18c0,7.1-0.2,14.2,0,21.3
		c0.2,5.4-1.4,9.7-6.1,12.6c-2,0-4,0-6,0c-4.7-2.9-6.2-7.3-6-12.6C502.2,628.3,501.9,621.1,501.9,614z"/>
	<path class="st4" d="M250.7,301c40.2,0,80.3,0,120.5,0c21.2,0,38.6,13.6,43.3,34.2c0.9,3.8,1.4,7.9,1.4,11.8
		c0.1,61.6,0.1,123.3,0.1,184.9c0,24.2-14.2,40.7-33.7,45.4c-4,1-8.2,1.5-12.3,1.5c-79.5,0.1-158.9,0.1-238.4,0.1
		c-23.2,0-39.9-13.4-45-36c-0.4-1.8-0.5-3.6-0.5-5.4c0-65,0-130,0-194.9c0-18.9,15.7-37.2,34.4-40.6c4-0.7,7.9-1,11.9-1
		C171.7,301,211.2,301,250.7,301z"/>
	<path class="st5" d="M484.9,448.9c10.2,0,20.3,0.1,30.5-0.1c3.3-0.1,4.7,0.8,4.7,4.4c-0.2,20-0.2,40,0,59.9c0,3.6-0.8,4.9-4.7,4.9
		c-20.3-0.2-40.6-0.2-60.9,0c-3.7,0-4.4-1.3-4.4-4.7c0.1-20,0.2-40,0-59.9c0-3.9,1.4-4.7,4.9-4.7C464.9,449,474.9,448.9,484.9,448.9
		z"/>
	<path class="st6" d="M484.5,388c-11.1,0-22.3,0.1-33.4,0c-5.6-0.1-8.8-3.1-9.1-7.9c-0.4-5.4,2-8.4,8-9.4c2.4-0.4,4.9-0.5,7.4-0.5
		c4.9,0,9.9,0.2,14.8,0.1c15-0.4,30.1-0.2,45.1-0.1c5.8,0,10.1,2.8,10.8,6.9c1.1,6.4-2.6,10.8-9.6,10.9
		C507.1,388.1,495.8,388,484.5,388z"/>
	<path class="st5" d="M484.9,405c11.3,0,22.6-0.1,33.9,0c4.1,0,7.6,1.6,8.9,5.9c1.1,3.7,0.5,7.2-2.9,9.8c-1.9,1.4-4.2,2.2-6,1.9
		c-8.1-1.3-16.2,0.1-24.2,0c-8.7-0.1-17.5-1-26.2,0.2c-6.8,0.9-13.6-0.6-20.4-0.9c-3.9-0.1-6.3-4.2-6-8.9c0.3-4.9,3.4-7.8,9-7.9
		C462.3,404.9,473.6,405.1,484.9,405C484.9,405,484.9,405,484.9,405z"/>
	<path class="st5" d="M484.6,336c11.3,0,22.6,0,34,0c6.3,0,9.4,2.9,9.5,8.3c0.1,5.7-3.2,8.7-9.7,8.7c-22.3,0-44.6,0-66.9,0
		c-6.2,0-9.4-2.9-9.5-8.4c-0.1-5.7,3.2-8.6,9.7-8.6C462.6,335.9,473.6,336,484.6,336C484.6,336,484.6,336,484.6,336z"/>
	<path class="st2" d="M520,614c0-0.3,0-0.5,0-0.8c3.3,0,6.6,0,10,0C526.8,614.6,523.3,613.6,520,614z"/>
	<path class="st7" d="M121,379c-4.1-0.1-6.8-1.4-8.2-4.7c-1.6-3.9-1.1-7.5,2-10.5c7.9-7.9,15.8-15.8,23.7-23.7
		c3.4-3.4,6.8-6.9,10.3-10.2c4-3.8,8.8-3.8,12.4-0.2c3.9,3.8,4,8.6-0.1,12.8c-11.1,11.3-22.4,22.4-33.6,33.6
		C125.5,378,123.2,379.3,121,379z"/>
	<path class="st7" d="M173,352.9c-0.4-2.3,0.6-4.1,2.2-5.8c8.8-8.7,17.4-17.5,26.2-26.1c3.1-3,8.9-3,11.8-0.3c3.6,3.4,4,8.4,0.4,12
		c-8.8,9.1-17.8,18-26.8,26.9c-2.6,2.6-5.7,3-9.2,1.3C174.2,359.2,172.6,356.7,173,352.9z"/>
	<path class="st7" d="M120.7,422c-3.8,0.6-6.4-1.2-7.9-4.6c-1.5-3.4-1.4-6.7,1.7-9.5c2.9-2.7,5.6-5.6,8.5-8.4
		c3.3-3.2,9.2-3.5,12.1-0.7c3.7,3.5,3.9,8.5,0.2,12.4c-2.7,2.9-5.7,5.6-8.4,8.5C125.2,421.5,123.2,422.4,120.7,422z"/>
	<path class="st8" d="M147,378.9c0.1-4.9,3.1-7.9,8.1-7.9c5.6,0,9.1,3.3,8.9,8.4c-0.2,4.5-4.4,8.7-8.7,8.7
		C150.3,387.9,146.9,384.2,147,378.9z"/>
</g>
<path class="st6" d="M484.5,423c-11.1,0-22.3,0.1-33.4,0c-5.6-0.1-8.8-3.1-9.1-7.9c-0.4-5.4,2-8.4,8-9.4c2.4-0.4,4.9-0.5,7.4-0.5
	c4.9,0,9.9,0.2,14.8,0.1c15-0.4,30.1-0.2,45.1-0.1c5.8,0,10.1,2.8,10.8,6.9c1.1,6.4-2.6,10.8-9.6,10.9
	C507.1,423.1,495.8,423,484.5,423z"/>
</svg>
