<?xml version="1.0" encoding="utf-8"?>
<!-- Generator: Adobe Illustrator 19.0.0, SVG Export Plug-In . SVG Version: 6.00 Build 0)  -->
<svg version="1.1" id="Calque_1" xmlns="http://www.w3.org/2000/svg" xmlns:xlink="http://www.w3.org/1999/xlink" x="0px" y="0px"
	 viewBox="0 0 612 792" style="enable-background:new 0 0 612 792;" xml:space="preserve">
<style type="text/css">
	.st0{fill:#FDDB09;}
	.st1{fill:#FDFDFD;}
	.st2{fill:#FB9708;}
	.st3{fill:#FDFDFC;}
</style>
<g>
	<path d="M552,580c-164,0-328,0-492,0c-3.2-0.8-5.2-2.8-6-6c0-18.3,0-36.7,0-55c2.2-6.1,3.8-7.4,10.7-7.4c21.7-0.1,43.3,0,65-0.1
		c2.3,0,5.6,1.2,6.5-2c0.9-3.5,1.2-7.3-0.3-10.8c-0.8-1.9-3.2-1.3-5-1.3c-11.2,0-22.3,0-33.5,0c-5.2,0-10.3,0.1-15.5,0
		c-8.9-0.1-12-3.3-12.3-12c-0.3-11.2,0.8-22.3,2.4-33.3c6-42.8,21.6-81.7,47.9-116c37.7-49.3,87.2-79.3,148.4-89.9
		c7.2-1.2,14.5-2,21.8-2.5c5.2-0.4,5.5-0.6,5.5-6c0.1-8.2,0.1-8.2-8.3-8.2c-6.3,0-12.7,0-19,0c-1.8,0-3.7,0-5.5-0.4
		c-5-1-7.7-4-8.1-8.8c-0.5-5,1-7.1,6.3-9.3c30,0,60,0,90,0c4.3,1.2,6.3,4.1,6.3,8.4c0,4.2-2.4,7.5-6.6,9.1c-2.2,0.9-4.6,0.9-6.9,0.9
		c-7.3,0-14.7,0-22,0c-6.1,0-6.4,0.4-6.4,6.6c0,0.8,0.1,1.7,0,2.5c-0.3,3.6,1.4,4.8,5,5.1c54.1,3.6,101.5,23.2,141.6,59.9
		c45.4,41.5,70.7,93.4,78.4,154.2c1.1,8.6,1.9,17.2,1.9,25.9c0,10.4-3.4,13.9-13.7,13.9c-15.7,0-31.3,0-47,0.1
		c-2.2,0-5.3-0.9-5.9,2.2c-0.7,3.5-1.3,7.4,0.6,10.7c1,1.9,3.7,1.2,5.6,1.2c20.2,0,40.3,0,60.5,0c14.1,0,17,2.9,17,16.9
		c0,13.3,0.1,26.6,0,40C559.3,573.8,558,578.4,552,580z"/>
	<path class="st0" d="M507,479c-14.1,0-28.3,0.1-42.4,0.1c-105.6,0-211.3,0-316.9,0c-14.3,0-28.6,0-43-0.1
		c-1.9-3.8-1.2-7.9-0.9-11.8c4.2-50,20.4-95.6,51.5-135.3c14.5-18.6,31.2-35,52-46.8c0.7-0.4,1.5-0.8,1.7-1.7
		c18.7-9.3,38.3-15.7,58.9-18.9c45.7-7.2,89.8-2.3,131.9,17.6c0.4,0.2,0.8,0.6,1.2,0.8c37,21.6,63,53.2,81.8,91
		c12.8,25.7,20.6,52.9,23.7,81.5c0.5,4.8,0.8,9.6,1.5,14.4C508.5,472.9,509.1,476.2,507,479z"/>
	<path class="st0" d="M87.7,530c24.3,0,48.6-0.1,72.9-0.1c100.3,0,200.6,0,300.9,0c20.8,0,41.6,0,62.4,0.1c2.6,11,2.6,21.9,0,32.9
		c-28.1,0.1-56.3,0.2-84.4,0.2c-115.8,0-231.6,0-347.3,0c-1.5,0-3-0.1-4.5-0.2c-1-1.2-1.3-2.7-1.3-4.2c-0.1-8.2-0.1-16.3,0-24.5
		C86.5,532.7,86.8,531.3,87.7,530z"/>
	<path class="st1" d="M305.5,512.9c-48.3,0-96.6-0.1-144.9,0.1c-4.3,0-6-0.7-5.8-5.5c0.4-11.3,0.1-11.3,11.5-11.3
		c95.1,0,190.2,0,285.3-0.1c4.1,0,5.7,0.6,5.6,5.3c-0.4,11.5-0.1,11.5-11.7,11.5C398.8,512.9,352.1,512.9,305.5,512.9z"/>
	<path class="st1" d="M209,283.4c0.2,1.8-1.3,2.1-2.4,2.8c-43.3,28.9-72,68.9-88.7,117.8c-8.3,24.2-12.7,49.2-13.2,74.9
		c-4,0.1-8,0-12,0.3c-3.8,0.3-5.1-0.7-4.9-4.8c1.2-19.8,4.2-39.4,10.2-58.3c18.4-58.6,53.9-103.1,108.6-131.7
		C207.5,284.1,208.3,283.8,209,283.4z"/>
	<path class="st2" d="M507,479c-1.1-33.7-8.2-65.9-21.8-96.9c-13.3-30.2-32.5-56-56.7-78.1c-7.8-7.1-16.3-13.6-25.4-19.1
		c-0.9-0.5-1.7-1.1-2-2.1c14.4,6,27.3,14.5,39.3,24.3c45.5,36.7,71.4,84.6,80.7,142c1.4,8.6,1.9,17.2,2.8,25.8
		c0.3,3.1-0.4,4.6-3.9,4.4C515.7,479,511.3,479.1,507,479z"/>
	<path class="st3" d="M87.7,530c0,11,0,21.9,0,32.9c-4.7,0.1-9.3,0-14,0.3c-2.6,0.1-2.9-1-2.9-3.2c0.1-9,0.1-18,0-27
		c0-2.1,0.2-3.4,2.9-3.3C78.4,530,83.1,529.9,87.7,530z"/>
	<path class="st2" d="M524,562.9c0-11,0-21.9,0-32.9c4.6-0.1,9.3-0.1,13.9-0.3c2.5-0.1,3.1,1,3,3.3c-0.1,9-0.1,17.9,0,26.9
		c0,2.3-0.6,3.3-3,3.2C533.3,563,528.6,563,524,562.9z"/>
	<path d="M271.3,281c5.1-0.1,8.7,3,9.4,7.3c0.6,4.5-2.4,8.6-7.6,9.5c-8.9,1.6-17.6,3.6-26.1,6.7c-59.7,21.2-97.6,63.2-116.8,122.8
		c-2.7,8.4-6,11.3-11.7,9.7c-5.5-1.5-7.2-6.2-4.4-14.6c24.8-73.3,73.7-121.1,149.5-139.9C266.3,281.9,269.1,281.4,271.3,281z"/>
</g>
</svg>
