<?xml version="1.0" encoding="utf-8"?>
<!-- Generator: Adobe Illustrator 19.0.0, SVG Export Plug-In . SVG Version: 6.00 Build 0)  -->
<svg version="1.1" id="Calque_1" xmlns="http://www.w3.org/2000/svg" xmlns:xlink="http://www.w3.org/1999/xlink" x="0px" y="0px"
	 viewBox="0 0 612 792" style="enable-background:new 0 0 612 792;" xml:space="preserve">
<style type="text/css">
	.st0{fill:#37474F;}
	.st1{fill:#38484F;}
	.st2{fill:#CED6DA;}
	.st3{fill:#CDD6DA;}
	.st4{fill:#FBFBFB;}
	.st5{fill:#FDE37E;}
	.st6{fill:#FDD540;}
	.st7{fill:#FCD540;}
	.st8{fill:#FAFAFA;}
	.st9{fill:#FCE37E;}
</style>
<g>
	<path class="st0" d="M324.5,560c-57,0-114,0-170.9,0c-8.1,0-13.1-5.3-12.6-13.2c0.4-5.6,4.9-10.6,10.6-10.6c3.5,0,4.5-1.5,5.4-4.3
		c5.1-15.6,10.4-31.2,15.4-46.9c1.2-3.7,2.6-5.2,6.8-5.1c20.5,0.3,41,0.1,61.5,0.2c3.4,0,5-0.7,4.4-4.3c-0.6-3.1,0.6-3.9,3.8-3.9
		c50.8,0.1,101.6,0.1,152.4,0c3,0,4.4,0.7,3.8,3.8c-0.7,3.6,0.9,4.4,4.3,4.3c20.8-0.2,41.7,0,62.5-0.2c3.2,0,4.5,1,5.5,4.1
		c5.1,16.1,10.6,32.2,15.9,48.3c0.8,2.4,1.5,3.9,4.7,3.9c6.8,0.1,11.4,5.6,11.2,12.6c-0.2,6.5-5.2,11.3-12,11.3
		c-27.2,0-54.3,0-81.5,0C385.2,560,354.9,560,324.5,560z"/>
	<path class="st0" d="M324.7,464c-44.2,0-88.3,0-132.5,0c-2.3,0-4.7,0.1-6.9-0.5c-7.4-1.7-12.3-8.1-12.3-15.6
		c0-7.2,4.6-13.7,11.9-15.3c3.6-0.8,4.2-2.3,4.1-5.6c-0.2-12.7-0.1-25.3-0.1-38c0-49.8,34.6-91.2,83.6-99.8
		c12.1-2.1,24.3-1.2,36.4-1.3c17.7-0.1,35.3-0.1,53,0c53.9,0.2,98.8,45.2,99,99.2c0,13.7,0.1,27.3,0,41c0,2.4,0.3,3.6,3.2,4.2
		c8.6,1.9,13.8,9.4,12.8,17.6c-1,8.1-7.9,14-16.8,14C415,464,369.9,464,324.7,464C324.7,464,324.7,464,324.7,464z"/>
	<path class="st0" d="M325.3,216c4,0,8-0.1,12,0c6.6,0.2,11.7,5.5,11.7,11.9c0,6.4-5,11.9-11.6,12.1c-8.3,0.2-16.7,0.2-25,0
		c-6.7-0.2-11.6-5.6-11.5-12.1c0.1-6.4,5.1-11.6,11.8-11.8C317,215.9,321.1,216,325.3,216z"/>
	<path class="st0" d="M333,263.6c0,4.3-0.1,8.6,0,13c0.1,2.4-0.4,3.4-3.2,3.5c-12.8,0.4-12.8,0.5-12.8-12.2c0-5.5,0.1-11,0-16.4
		c-0.1-2.4,0.4-3.4,3.2-3.5c12.8-0.4,12.8-0.5,12.9,12.2C333,261.3,333,262.5,333,263.6z"/>
	<path class="st0" d="M321,156c0-8.1,0.2-16.3-0.1-24.4c-0.1-3.4,1.4-3.7,4.1-3.7c2.7,0,4.1,0.1,4.1,3.6c-0.2,16.3-0.2,32.6,0,48.9
		c0,3.4-1.3,3.7-4.1,3.7c-2.7,0-4.2-0.1-4.1-3.6C321.2,172.3,321,164.2,321,156z"/>
	<path class="st0" d="M244.5,240c-8,0-16-0.2-23.9,0.1c-3.5,0.1-3.6-1.4-3.6-4.1c0-2.7,0.2-4.1,3.6-4.1c16.3,0.2,32.6,0.2,48.9,0
		c3.5,0,3.6,1.4,3.6,4.1c0,2.7-0.2,4.2-3.7,4.1C261.1,239.8,252.8,240,244.5,240z"/>
	<path class="st0" d="M405.5,232c8,0,16,0.2,23.9-0.1c3.5-0.1,3.6,1.5,3.6,4.1c0,2.8-0.3,4.1-3.7,4.1c-16.3-0.2-32.6-0.2-48.9,0
		c-3.5,0-3.6-1.5-3.6-4.1c0-2.7,0.2-4.2,3.7-4.1C388.9,232.2,397.2,232,405.5,232z"/>
	<path class="st1" d="M291,196.6c-1.7,1.7-3.1,3.4-4.9,4.6c-1.7,1.1-2.4-1-3.3-1.9c-11.5-11.4-22.8-22.9-34.4-34.1
		c-2.7-2.6-1.5-3.7,0.4-5.7c2-2.1,3.1-2.5,5.4-0.1c11.4,11.7,23,23.1,34.5,34.7C289.4,194.8,290.1,195.6,291,196.6z"/>
	<path class="st1" d="M404.2,162.6c-12.6,12.5-25.2,24.9-37.5,37.5c-2.6,2.7-3.5,0.4-4.9-1c-1.5-1.4-3.4-2.4-0.8-4.9
		c11.9-11.6,23.7-23.4,35.3-35.3c2-2,3.1-1.7,4.6,0.2C401.8,160.3,402.9,161.3,404.2,162.6z"/>
	<path class="st2" d="M187.9,488.2c28.5-0.1,57-0.2,85.5-0.2c63,0,126,0.1,188.9-0.2c5.9,0,8.7,1.4,10.4,7.3
		c3.9,13.5,8.7,26.8,13.2,40.1c-1.2,1.1-2.4,0.7-3.5,0.7c-102.3,0-204.6,0-306.9,0c-0.8,0-1.7-0.1-2.5-0.2c-0.8-1.8-0.2-3.6,0.3-5.3
		c3.9-12.8,8-25.6,11.8-38.4C185.6,490.5,186.2,488.9,187.9,488.2z"/>
	<path class="st3" d="M158.9,544.2c36,0,71.9-0.1,107.9-0.1c75.5,0,150.9,0,226.4,0c1.5,0,3-0.2,4.5,0.1c2,0.4,3.2,1.8,3.2,3.9
		c0,2.1-1.3,3.4-3.2,3.9c-1,0.2-2,0.1-3,0.1c-111.4,0-222.9,0-334.3,0c-0.5,0-1-0.1-1.5-0.1C155,548.7,155,547.3,158.9,544.2z"/>
	<path class="st4" d="M187.9,488.2c-4.6,15-9.3,29.9-13.9,44.9c-0.3,0.9-0.7,1.8-1,2.8c-2.8,0-5.6,0-9,0c2.8-8.6,5.6-17,8.4-25.4
		c1.7-5,3.4-10.1,5-15.1C179.9,487.7,179.9,487.7,187.9,488.2z"/>
	<path class="st4" d="M158.9,544.2c-2.4,2.6-2.4,5.1,0,7.7c-2,0-4,0.3-6,0.1c-2.2-0.2-3.8-1.7-3.8-3.9c0-2.2,1.6-3.6,3.8-3.9
		C154.9,543.9,157,544.1,158.9,544.2z"/>
	<path class="st5" d="M437,431.8c-32.6,0.1-65.2,0.1-97.8,0.2c-41.7,0-83.5,0-125.2,0c-3,0-6-0.1-9-0.2c-1.7-1.8-1.3-4-1.3-6.2
		c0-14-0.6-28,0.1-42c1.1-22.4,9.3-42,24.6-58.6c11.9-13,26.1-22,43.2-26.5c2.5-0.7,5.3-0.2,7.5-1.8c1.3-0.3,2.6-0.8,3.8-0.8
		c24,0,48,0.1,72.1,0.1c37.5,0.9,73.9,34,81.6,73.8c1,5.1,1.8,10.1,1.8,15.3c-0.1,13.3,0,26.6,0,39.9
		C438.4,427.5,438.8,429.9,437,431.8z"/>
	<path class="st5" d="M194.1,440.2c37.7-0.1,75.3-0.1,113-0.2c45.2,0,90.3,0,135.5,0c1.8,0,3.7,0.1,5.5,0.2c4.3,0.9,6.1,3.7,6.1,7.8
		c0,4.1-1.9,7-6.2,7.8c-39.8,0.1-79.6,0.1-119.5,0.2c-43.5,0-87,0-130.5,0c-1.3,0-2.7-0.1-4-0.1c-4.4-0.9-6.3-3.8-6.2-8.1
		C187.9,443.7,189.9,441,194.1,440.2z"/>
	<path class="st6" d="M437,431.8c0-15,0.5-30-0.1-45c-1.5-37.4-19.3-64.6-52.6-81.8c-9.2-4.8-19.2-6.9-29.3-8.9
		c54.1-2.6,97.7,38.6,98,92.7c0.1,13-0.1,26,0.1,39c0,3.2-0.7,4.5-4.1,4.2C445,431.7,441,431.9,437,431.8z"/>
	<path class="st4" d="M279.1,296.8c-0.8,2.1-2.9,1.6-4.4,2c-37.7,10.6-60,35.6-68.5,73.3c-1.6,7-1.4,14.2-1.3,21.3
		c0.1,12.8,0,25.6,0,38.4c-8,0.5-8.1,0.5-8-7.3c0.4-16-1.1-32,0.8-47.9c4.3-37,32.1-68.5,68.1-77.6
		C270.3,297.9,274.6,296.7,279.1,296.8z"/>
	<path class="st7" d="M448,455.8c6.9-5.2,6.9-10.5,0-15.7c4.3-0.1,8.6-0.2,12.9-0.1c4.7,0.1,8,3.4,8.1,7.7c0.1,4.5-3.2,8-8.1,8.2
		C456.6,456.1,452.3,455.9,448,455.8z"/>
	<path class="st8" d="M194.1,440.2c-7,5.4-7,10.3,0,15.7c-1.7,0-3.3,0.2-5,0.1c-4.6-0.2-8-3.5-8.1-7.7c-0.1-4.5,3.2-8,8.1-8.2
		C190.8,439.9,192.4,440.1,194.1,440.2z"/>
	<path class="st9" d="M325,232c-3.7,0-7.3,0-11,0c-2.7,0-4.7-1-4.9-3.8c-0.1-2.8,1.8-4.2,4.5-4.2c7.6,0,15.3,0,22.9,0
		c2.5,0,4.3,1.3,4.4,3.8c0.1,2.8-1.7,4.1-4.5,4.2C332.6,232,328.8,232,325,232z"/>
</g>
</svg>
