<?xml version="1.0" encoding="utf-8"?>
<!-- Generator: Adobe Illustrator 19.0.0, SVG Export Plug-In . SVG Version: 6.00 Build 0)  -->
<svg version="1.1" id="Calque_1" xmlns="http://www.w3.org/2000/svg" xmlns:xlink="http://www.w3.org/1999/xlink" x="0px" y="0px"
	 viewBox="0 0 612 792" style="enable-background:new 0 0 612 792;" xml:space="preserve">
<g>
	<path d="M242.6,496.3c-15,0-30,0.1-45-0.1c-3.7,0-5.2,1.1-4.9,4.8c0.2,3.3,0.5,6.8-0.2,10c-0.5,2.7-1.8,6.3-3.8,7.2
		c-2,0.9-5.8-0.5-7.8-2.1c-12.1-10.2-23.9-20.7-35.8-31.2c-2.6-2.3-5.4-4.5-7.9-7c-3.3-3.3-3.3-6.4,0.2-9.5
		c14.8-13.2,29.7-26.2,44.8-39.2c4.6-3.9,9.7-1.6,10.3,4.4c0.3,3.6,0.5,7.3,0.2,11c-0.2,4.2,1.4,5.4,5.5,5.4
		c22.8-0.2,45.7-0.1,68.5-0.1c6.7,0,13.3,0,20,0c5.9,0.1,8.3,2.3,8.4,8.1c0.1,10.2,0.1,20.3,0,30.5c-0.1,5.7-2.2,7.7-8,7.7
		C272.3,496.3,257.4,496.3,242.6,496.3z M180.7,499.9c0-5.9-0.3-10.6,0.2-15.1c0.2-2,1.8-4.5,3.5-5.4c1.5-0.8,5.2-0.3,5.8,0.8
		c2.8,4.9,7.2,3.9,11.4,4c5.7,0,11.3,0,17,0c19.8,0,39.6,0.1,59.5-0.1c1.6,0,4.6-1.5,4.7-2.5c0.4-6.2,0.2-12.5,0.2-18.5
		c-0.9-0.4-1.2-0.7-1.5-0.7c-28.6-0.1-57.3-0.1-85.9,0c-1.1,0-2.6,0.8-3.1,1.7c-1.8,2.8-4,4.5-7.4,3.5c-3.5-1.1-4.3-3.8-4.2-7.1
		c0.1-4.2,0-8.3,0-13.8c-10.9,9.6-20.5,18-30.5,26.7C160.4,482.2,170,490.6,180.7,499.9z"/>
	<path d="M424.4,496.3c-14.8,0-29.7,0.1-44.5-0.1c-4-0.1-5.4,1.1-5.2,5.1c0.2,3.8,0.2,7.7-0.2,11.5c-0.6,6.1-5.7,8.4-10.3,4.5
		c-15.1-12.9-30-26-44.8-39.1c-3.6-3.2-3.5-6.7,0.1-9.9c14.7-13,29.5-26,44.4-38.8c1.6-1.4,4.9-2.1,6.7-1.3c1.8,0.7,3.3,3.6,3.7,5.8
		c0.7,3.4,0.6,7,0.3,10.5c-0.4,4.5,1.4,5.7,5.7,5.7c28.7-0.2,57.3-0.1,86-0.1c8.8,0,10.7,1.7,10.7,10.3c0,9.3,0,18.7-0.1,28
		c-0.1,6-2.1,8-8.2,8C454.1,496.3,439.3,496.3,424.4,496.3C424.4,496.3,424.4,496.3,424.4,496.3z M362.7,499.9
		c0-6.3-0.4-11,0.2-15.6c0.2-1.9,2.1-4.3,3.8-5.1c1.5-0.7,5,0,5.7,1.3c2.4,4,5.9,3.7,9.5,3.7c5.5,0,11,0,16.5,0
		c20.5,0,41,0.1,61.4-0.1c1.6,0,4.6-1.6,4.7-2.6c0.4-6.2,0.2-12.5,0.2-18.7c-1.1-0.3-1.6-0.6-2-0.6c-28.3,0-56.6-0.1-84.9,0
		c-1.2,0-3,0.8-3.6,1.7c-1.8,2.8-3.9,4.6-7.4,3.5c-3.7-1.2-4.3-4.2-4.2-7.6c0.1-4,0-8,0-13.4c-10.9,9.6-20.6,18-30.5,26.7
		C342.5,482.2,352.1,490.6,362.7,499.9z"/>
	<path d="M134.8,336.2c0-3.8,0-7.7,0-11.5c0-9.8,1.1-11,10.8-11c28.5,0,57-0.1,85.5,0.1c4.8,0,6.7-1.2,6.2-6.1
		c-0.3-3.6-0.3-7.4,0.2-11c0.7-5.7,5.8-7.8,10.2-4c15,12.9,29.9,26,44.8,39.2c3.7,3.3,3.6,6.6,0,9.9c-14.7,13-29.5,26-44.4,38.8
		c-1.6,1.4-4.9,2.1-6.8,1.3c-1.8-0.7-3.3-3.6-3.7-5.7c-0.7-3.4-0.5-7-0.3-10.5c0.3-4.4-1.5-5.7-5.8-5.6c-28.5,0.2-57,0.1-85.5,0.1
		c-9.6,0-11.1-1.4-11.1-10.9C134.8,344.8,134.8,340.5,134.8,336.2C134.8,336.2,134.8,336.2,134.8,336.2z M147.2,325.6
		c0,7.6,0,14.8,0,22.4c29.7,0,59,0,88.2-0.1c0.9,0,2.1-0.9,2.5-1.7c1.5-2.9,3.7-4.3,6.9-3.5c3.6,0.9,4.3,3.7,4.2,7
		c-0.1,4.4,0,8.7,0,14.3c11-9.6,20.9-18.4,31.1-27.3c-10.4-9.1-20.3-17.7-31.2-27.2c0,6.4,0.4,11.3-0.2,16c-0.2,1.9-2.2,4.5-3.8,5
		c-1.7,0.5-5.2-0.6-5.9-2c-1.6-3.4-4.2-3.2-7-3.2c-26.8,0-53.6,0-80.4,0C150.2,325.3,148.8,325.5,147.2,325.6z"/>
	<path d="M369.6,313.7c14.7,0,29.3-0.2,44,0.1c4.9,0.1,6.1-1.7,5.8-6.1c-0.2-3.5-0.3-7,0.1-10.5c0.7-6.4,5.8-8.5,10.7-4.3
		c14.8,12.7,29.4,25.6,44,38.5c4.3,3.8,4.1,7.1-0.3,10.9c-14.4,12.7-28.7,25.3-43.4,37.7c-1.8,1.5-5.5,2.3-7.6,1.5
		c-1.7-0.7-3-4.1-3.4-6.4c-0.6-3.1-0.4-6.3-0.2-9.5c0.3-4.4-1.5-5.7-5.8-5.7c-24.2,0.2-48.3,0.1-72.5,0.1c-5.5,0-11,0.1-16.5-0.1
		c-5.3-0.1-7.6-2.4-7.6-7.7c-0.1-10.3-0.1-20.7,0-31c0.1-5.4,2.3-7.5,7.7-7.5C339.6,313.6,354.6,313.7,369.6,313.7
		C369.6,313.7,369.6,313.7,369.6,313.7z M431.1,309.4c0,6.1,0.4,10.8-0.2,15.3c-0.3,2.2-2.2,5.1-4.1,5.8c-1.5,0.6-4.2-1.5-6.3-2.5
		c-1.9-0.9-3.7-2.6-5.5-2.6c-26.8-0.2-53.6-0.1-80.4-0.1c-1.8,0-3.5,0.2-5.4,0.3c0,7.7,0,14.8,0,21.9c0.7,0.2,1.2,0.5,1.7,0.5
		c28.6,0,57.3,0.1,85.9,0c1.1,0,2.7-1,3.3-2c1.7-2.7,4.2-4.7,7-3c2,1.2,3.6,4.1,3.9,6.5c0.6,4.3,0.2,8.8,0.2,14.5
		c10.9-9.6,20.8-18.3,31.1-27.3C452,327.7,442.1,319.1,431.1,309.4z"/>
</g>
</svg>
