<?xml version="1.0" encoding="utf-8"?>
<!-- Generator: Adobe Illustrator 19.0.0, SVG Export Plug-In . SVG Version: 6.00 Build 0)  -->
<svg version="1.1" id="Calque_1" xmlns="http://www.w3.org/2000/svg" xmlns:xlink="http://www.w3.org/1999/xlink" x="0px" y="0px"
	 viewBox="0 0 612 792" style="enable-background:new 0 0 612 792;" xml:space="preserve">
<g>
	<path d="M499.3,599.5c-5.2-4.4-5.2-6.8-0.3-11.8c4.5-4.6,9-9.3,13.5-14c-1-1.1-2.4-0.5-3.6-0.5c-143.1,0-286.3,0-429.4,0
		c-9.4,0-10.3-1-10.3-10.2c0-148.5,0-296.9,0-445.4c0-2.9,0-5.8,0-9.3c-5.3,5.1-10.1,9.7-14.8,14.3c-3.7,3.6-7.5,4.3-9.9,1.4
		c-3-3.6-1.6-6.6,1.4-9.6c8.9-8.9,17.7-18,26.6-27c1.7,0,3.3,0,5,0c9.2,9.3,18.5,18.7,27.7,28.1c2.7,2.8,3.1,6,0.1,8.8
		c-2.8,2.5-5.8,1.9-8.5-0.6c-5.1-4.9-10.3-9.9-15.4-14.8c-1,0.9-0.5,2.1-0.5,3.2c0,147.2,0,294.5,0,441.7c0,1.3,0.1,2.7,0,4
		c-0.3,2.7,0.5,3.8,3.5,3.7c31.8-0.2,63.6-0.2,95.4-0.2c2.5-1.9,5.5-1.1,8.2-1.2c16.7-0.2,33.4-0.2,50.1,0c2.9,0,5.8-0.6,8.4,1.3
		c12.4,0,24.7,0,37.1,0c2.5-2,5.5-1.1,8.3-1.3c16.7-0.2,33.4-0.3,50.2,0c2.9,0,5.8-0.6,8.4,1.3c12.3,0,24.6,0,36.9,0
		c2.6-1.8,5.5-1.2,8.4-1.3c16.7-0.2,33.4-0.3,50.1,0c2.8,0.1,5.8-0.7,8.3,1.3c19.5,0,39.1,0,59.2,0c-5.2-5.3-9.8-10.1-14.6-14.8
		c-2.9-2.9-4.7-5.8-1.5-9.5c2.5-2.9,6.1-2.4,9.9,1.3c8.2,8,16.4,16,24.6,24c3,2.9,3.7,6.1,0.7,9.1c-9.6,9.5-19.3,18.7-29,28.1
		C502,599.5,500.7,599.5,499.3,599.5z"/>
	<path d="M427.5,151.2c-9,3.7-17.1,7-25.2,10.4c-3.8,1.6-7.2,1.8-9.2-2.6c-1.6-3.4,0.1-6.3,4.8-8.3c14.6-6.1,29.2-12.1,43.8-18.2
		c4.7-2,8.3,0.2,8.6,5.3c1,15.5,1.8,30.9,2.8,46.4c0.2,3.9-0.9,7-5.4,7.5c-3.9,0.4-6.1-2.2-6.4-7c-0.6-9.2-1.1-18.5-1.7-28.1
		c-2.4,1.4-3.1,3.3-4.2,4.9c-32.5,47.4-64.9,94.8-97.4,142.2c-4.9,7.2-6.4,7.5-13.7,3c-13.9-8.5-28-16.8-41.8-25.5
		c-3.2-2-4.6-1.6-6.7,1.4c-17.8,24.8-35.7,49.4-53.6,74.1c-4.3,6-6,6.4-12.4,2.8c-11.7-6.4-23.4-12.6-35-19.3
		c-3.2-1.8-4.7-1.3-6.8,1.4c-15.7,19.4-31.6,38.7-47.5,58c-1.2,1.4-2.3,2.9-3.8,3.9c-2.5,1.7-5.2,1.4-7.2-0.8
		c-2.4-2.6-2.2-5.4,0-8.1c6.5-8,13.1-16,19.6-24c11.3-13.8,22.6-27.6,34-41.3c4.5-5.4,5.9-5.6,12.3-2.2
		c11.5,6.3,23.1,12.6,34.5,19.1c3.2,1.8,4.6,1.2,6.7-1.6c17.8-24.8,35.7-49.4,53.6-74.1c4.7-6.5,6.1-6.7,13.1-2.5
		c14.2,8.6,28.5,17.2,42.7,25.9c2.2,1.4,3.5,1.6,5.2-0.8c31.9-46.8,63.9-93.5,95.8-140.2C427.1,152.8,427.1,152.4,427.5,151.2z"/>
	<path d="M454.1,561.4c-2.6,0-5.3,0-7.9,0c-2-2.6-1.4-5.7-1.4-8.7c0-75.5,0-151,0-226.5c0-10,0-10-10.2-10c-10.2,0-20.3,0-30.5,0
		c-6.7,0-7,0.4-7,7.1c0,34.3,0,68.7,0,103c0,42.2,0,84.3,0,126.5c0,2.9,0.6,6.1-1.7,8.6c-2.6,0-5.3,0-7.9,0c0-82,0-164,0-245.9
		c0-8.3,0.3-8.6,8.3-8.5c16.8,0,33.7,0,50.5,0c7.3,0,7.9,0.7,7.9,8c0,80.6,0,161.3,0,241.9C454,558.4,454,559.9,454.1,561.4z"/>
	<path d="M291.4,561.3c-2.6,0-5.3,0-7.9,0c0-61,0-122,0-183c0-7.4,0.6-7.9,8-7.9c17.3,0,34.7,0,52,0c6.3,0,6.8,0.5,6.8,6.9
		c0,61.3,0,122.7,0,184c-2.7,0-5.3,0-8,0c-2.4-2.7-1.7-6-1.7-9.1c0-54.1,0-108.2,0-162.3c0-9.8,0-9.8-9.8-9.8c-9.7,0-19.3,0-29,0
		c-8.9,0-8.9,0-8.9,8.7c0,29.5,0,58.9,0,88.4c0,25.3,0,50.6,0,75.9C292.9,556,293.5,558.9,291.4,561.3z"/>
	<path d="M246.4,561.3c-2.6,0-5.3,0-7.9,0c-2.3-2.3-1.8-5.3-1.8-8c0-27.8,0-55.6,0-83.4c0-1.7-0.1-3.3,0-5c0.1-3.4-1.5-4.8-4.8-4.8
		c-12.6,0-25.3,0.1-37.9,0c-5.1-0.1-5,3.2-5,6.7c0,28.8,0,57.6,0,86.4c0,2.8,0.6,5.7-1.4,8.2c-2.6,0-5.3,0-7.9,0
		c0-34.1,0-68.2,0-102.4c0-8,0.5-8.4,8.5-8.4c17.3,0,34.6,0.1,51.9-0.1c4.8,0,6.4,1.8,6.4,6.5C246.3,491.8,246.4,526.6,246.4,561.3z
		"/>
</g>
</svg>
