<?xml version="1.0" encoding="utf-8"?>
<!-- Generator: Adobe Illustrator 19.0.0, SVG Export Plug-In . SVG Version: 6.00 Build 0)  -->
<svg version="1.1" id="Calque_1" xmlns="http://www.w3.org/2000/svg" xmlns:xlink="http://www.w3.org/1999/xlink" x="0px" y="0px"
	 viewBox="0 0 612 792" style="enable-background:new 0 0 612 792;" xml:space="preserve">
<g>
	<path d="M443.6,647.4c25.6-13.1,50.5-16.6,76.5-3.2c-2.6,4.9-5,9.5-7.6,14.4c-10.8-5.2-22-8.1-33.6-6c-6.6,1.2-13.4,3-19.4,5.9
		c-23.6,11.5-46.9,12.2-70.5,0.1c-17.7-9.1-35.6-8.9-53.2,0.1c-23,11.7-46,11.8-69,0.2c-18.3-9.2-36.4-9.1-54.6,0.1
		c-22.1,11.2-44.6,11.7-66.8,0.6c-18-9-35.9-10.2-54.3-1.6c-0.4,0.2-0.9,0.2-1.6,0.4c-2.4-4.5-4.8-9.1-7.4-14
		c26-13.3,50.9-10.7,76.6,3.8c-18.7-80.3-37.1-159.3-55.6-238.7c10-5.2,19.7-10.6,29.7-15.5c3.3-1.6,4.4-3.5,4.4-7.2
		c-0.1-57.2-0.1-114.3-0.1-171.5c0-2,0-4,0-6.5c43.7,0,87.1,0,131.1,0c0-16.6,0-32.7,0-49c22.1,0,43.7,0,65.7,0
		c0,16.2,0,32.1,0,48.6c43.8,0,87.2,0,131.3,0c0,3.2,0,5.8,0,8.4c0,56.5,0,113-0.1,169.5c0,4.1,1.3,6.2,4.9,8
		c9.7,4.8,19.2,9.9,29.2,15.2C480.6,488.5,462.2,567.4,443.6,647.4z M176.2,650.7c10,0.6,18.9-1.3,27.2-5.6
		c24.1-12.6,48-12.4,72.2-0.1c17,8.6,34.4,8.4,51.4-0.2c23.7-12.1,47.1-11.9,71-0.3c7.1,3.5,15.5,4.4,23.4,6.3
		c3.4,0.9,4.9-0.7,5.7-4.2c17.3-74.7,34.7-149.4,52.2-224.1c0.8-3.3,0.4-4.9-2.8-6.5c-57.3-29.8-114.5-59.6-171.7-89.6
		c-2.7-1.4-4.6-1.4-7.3,0c-57.1,29.9-114.2,59.7-171.3,89.3c-3.6,1.9-4,3.7-3.2,7.3c13.6,57.8,27.1,115.7,40.6,173.5
		C167.7,614.5,171.9,632.4,176.2,650.7z M153.7,225.5c0,52.7,0,104.7,0,157.5c2.5-1.3,4.3-2.2,6.2-3.2c45.3-23.6,90.6-47.2,135.9-71
		c3.9-2,6.7-1.9,10.5,0.1c45.7,24,91.4,47.8,137.2,71.7c1.5,0.8,3.1,1.4,4.8,2.2c0-52.9,0-105,0-157.2
		C349.9,225.5,252,225.5,153.7,225.5z M317.1,176.5c-10.9,0-21.5,0-32,0c0,11,0,21.4,0,31.8c10.9,0,21.5,0,32,0
		C317.1,197.4,317.1,187,317.1,176.5z"/>
	<path d="M234.9,306.9c-21.7,0-43.1,0-64.8,0c0-21.8,0-43.3,0-65.1c21.6,0,43,0,64.8,0C234.9,263.4,234.9,284.9,234.9,306.9z
		 M218.8,258.3c-10.9,0-21.6,0-32.3,0c0,11,0,21.5,0,32.1c10.9,0,21.5,0,32.3,0C218.8,279.6,218.8,269,218.8,258.3z"/>
	<path d="M367.1,241.7c21.7,0,43,0,64.7,0c0,21.7,0,43.3,0,65.2c-21.4,0-42.8,0-64.7,0C367.1,285.2,367.1,263.7,367.1,241.7z
		 M415.6,258.3c-11,0-21.6,0-32.3,0c0,11,0,21.5,0,32.1c10.9,0,21.4,0,32.3,0C415.6,279.7,415.6,269.3,415.6,258.3z"/>
	<path d="M260.2,282.2c0-5.2,0-10.3,0-15.7c5.2,0,10.3,0,15.7,0c0,5.2,0,10.2,0,15.7C270.9,282.2,265.7,282.2,260.2,282.2z"/>
	<path d="M308.8,282.3c-5.3,0-10.3,0-15.6,0c0-5.3,0-10.3,0-15.8c5.2,0,10.2,0,15.6,0C308.8,271.6,308.8,276.7,308.8,282.3z"/>
	<path d="M325.8,282.3c0-5.3,0-10.2,0-15.6c5.3,0,10.4,0,15.9,0c0,5.2,0,10.2,0,15.6C336.6,282.3,331.5,282.3,325.8,282.3z"/>
</g>
</svg>
