<?xml version="1.0" encoding="utf-8"?>
<!-- Generator: Adobe Illustrator 19.0.0, SVG Export Plug-In . SVG Version: 6.00 Build 0)  -->
<svg version="1.1" id="Calque_1" xmlns="http://www.w3.org/2000/svg" xmlns:xlink="http://www.w3.org/1999/xlink" x="0px" y="0px"
	 viewBox="0 0 612 792" style="enable-background:new 0 0 612 792;" xml:space="preserve">
<g>
	<path d="M213.6,645.7c0.1-7.2-1.7-15.1,0.8-21.3c2.4-6,9.3-10.2,14.2-15.1c8.4-8.4,16.8-16.7,25-25.2c1.3-1.4,2.6-3.6,2.6-5.5
		c0.1-33.7,0.1-67.3,0.1-101c0-0.5-0.2-1-0.4-2.4c-56.6,21.2-113,42.4-170,63.7c-0.1-1.6-0.3-2.9-0.3-4.1c0-9.8,0.4-19.7-0.2-29.5
		c-0.4-6.6,1.7-10.1,7.7-13.4c52.8-28.7,105.4-57.8,158.1-86.6c4-2.2,5.1-4.5,5.1-8.9c-0.2-44.7-0.1-89.3-0.1-134
		c0-15.4,10.8-24.3,26-21.7c9.8,1.6,16.3,9.4,16.4,20.2c0.2,18.2,0.1,36.3,0.1,54.5c0,27.2,0.1,54.3-0.1,81.5c0,4,1.1,6.1,4.7,8.1
		c53.3,29.1,106.5,58.5,159.8,87.6c4.6,2.5,6.7,5.1,6.5,10.6c-0.5,11.6-0.2,23.3-0.2,35.7c-56.9-21.3-113.4-42.5-170.5-63.9
		c-0.1,2.5-0.3,4.3-0.3,6c0,32.2-0.1,64.3,0.1,96.5c0,2.3,1.3,5.2,2.9,6.8c12.1,12.4,24.5,24.5,36.6,36.9c1.7,1.8,2.8,4.8,3,7.3
		c0.4,5.6,0.1,11.3,0.1,17c-0.7,0-1.3,0-2,0c-0.5-0.4-0.9-0.9-1.5-1.1c-19.4-6.5-38.7-13-58.1-19.4c-1.8-0.6-4.3-0.2-6.2,0.4
		c-17.8,5.8-35.6,11.8-53.4,17.8c-1.7,0.6-3.2,1.5-4.8,2.2C214.9,645.7,214.3,645.7,213.6,645.7z"/>
	<path d="M533.6,261.7c-83.7-27.9-167.5-55.9-251.2-83.7c-2.9-1-6.6-1-9.5,0c-83.8,27.8-167.5,55.7-251.2,83.7c0-7.3,0-14.7,0-22
		c1.7-0.5,3.5-0.8,5.2-1.5c68.2-28.4,136.3-56.8,204.5-85.2c15.2-6.3,30.3-12.8,45.4-19.3c0.7,0,1.3,0,2,0c1.2,0.6,2.3,1.4,3.5,1.9
		c78.6,32.7,157.2,65.5,235.8,98.2c5.2,2.2,10.5,4,15.7,6C533.6,247.1,533.6,254.4,533.6,261.7z"/>
</g>
</svg>
