<?xml version="1.0" encoding="utf-8"?>
<!-- Generator: Adobe Illustrator 19.0.0, SVG Export Plug-In . SVG Version: 6.00 Build 0)  -->
<svg version="1.1" id="Calque_1" xmlns="http://www.w3.org/2000/svg" xmlns:xlink="http://www.w3.org/1999/xlink" x="0px" y="0px"
	 viewBox="0 0 612 792" style="enable-background:new 0 0 612 792;" xml:space="preserve">
<g>
	<path d="M69,189.3c25.5,0.1,51,0.2,76.5,0.2c58.2,0,116.3,0,174.5,0c1.5,0,2.9,0,4.7,0c0,114,0,227.5,0,341.3
		c-21.2,0-42.1,0-63.5,0c0-28.3,0-56.3,0-84.8c-42.8,0-85.2,0-128,0c0,28.1,0,56.2,0,85.3c-21.7,0-42.9,0-64.2,0
		C69,417.3,69,303.3,69,189.3z M153.9,274.8c0-14.4,0-28.3,0-42.2c-14.1,0-27.9,0-41.8,0c0,14.1,0,28,0,42.2
		C126.1,274.8,139.8,274.8,153.9,274.8z M176,274.7c14.4,0,28.1,0,41.9,0c0-14.2,0-28.1,0-42c-14.2,0-28.1,0-41.9,0
		C176,246.8,176,260.6,176,274.7z M282,232.6c-14.3,0-28.1,0-42,0c0,14.1,0,28,0,42c14.1,0,28,0,42,0C282,260.5,282,246.7,282,232.6
		z M154,296.6c-14.3,0-28.1,0-41.9,0c0,14.2,0,28,0,42c14.2,0,28,0,41.9,0C154,324.4,154,310.7,154,296.6z M176.1,296.5
		c0,14.3,0,28.2,0,42.2c14.2,0,28,0,41.7,0c0-14.3,0-28.2,0-42.2C203.8,296.5,190.2,296.5,176.1,296.5z M240.1,296.5
		c0,14.3,0,28.2,0,42.1c14.2,0,28,0,41.7,0c0-14.3,0-28.2,0-42.1C267.8,296.5,254.2,296.5,240.1,296.5z M112.1,360.6
		c0,14.3,0,28.1,0,42.2c14.1,0,27.8,0,41.8,0c0-14.2,0-28.1,0-42.2C140,360.6,126.2,360.6,112.1,360.6z M176.1,360.6
		c0,14.2,0,28.1,0,42.2c14.1,0,27.8,0,41.8,0c0-14.2,0-28,0-42.2C204,360.6,190.3,360.6,176.1,360.6z M240.1,360.6
		c0,14.2,0,28.1,0,42.2c14.1,0,27.8,0,41.8,0c0-14.2,0-28,0-42.2C268,360.6,254.3,360.6,240.1,360.6z"/>
	<path d="M474,680.3c0.1-13.5,0.1-26.9,0.2-40.4c0.1-15,8.7-23.5,23.5-23.6c13.1,0,26.3,0,39.4,0c13.4,0,22.4,9,22.5,22.6
		c0.1,13.8,0.2,27.6,0.3,41.4C531.3,680.3,502.7,680.3,474,680.3z"/>
	<path d="M261,680.3c0-13.8,0-27.6,0-41.4c0-13.5,9-22.6,22.5-22.6c13.5,0,26.9-0.1,40.4,0c13.4,0.1,22.3,8.7,22.3,22.1
		c0.1,14-0.1,27.9-0.2,41.9C317.7,680.3,289.3,680.3,261,680.3z"/>
	<path d="M368,680.3c0-15-0.4-29.9,0-44.9c0.3-10.4,9.5-18.9,20.1-19c14.8-0.2,29.6-0.3,44.4,0c11.4,0.2,20.3,9.4,20.4,21
		c0.2,14.3,0,28.6,0,42.9C424.7,680.3,396.3,680.3,368,680.3z"/>
	<path d="M496.2,253.6c6.1,0,12.1,0,18,0c7.8,0,15.7-0.1,23.5,0c12.6,0.2,21.4,8.7,22,21.2c0.3,7.3,0.3,14.7,0,22
		c-0.6,12.3-9.5,20.6-21.8,20.8c-12,0.1-24,0-36,0c-1.8,0-3.6,0-5.8,0c-0.1,2.2-0.3,4-0.3,5.8c0,11.8,0,23.7,0,35.5
		c-0.1,13.9-9,22.7-22.9,22.7c-6.8,0-13.7,0.2-20.5-0.1c-11.8-0.4-20.3-9-20.5-20.8c-0.2-12.3-0.1-24.7-0.1-37c0-1.8,0-3.6,0-5.9
		c-2.2-0.1-4-0.2-5.8-0.3c-12.2,0-24.3,0.1-36.5,0c-12.9-0.2-21.5-8.8-21.7-21.7c-0.1-6.7-0.1-13.3,0-20
		c0.2-13.3,8.9-22.1,22.4-22.2c12-0.1,24,0,36,0c1.6,0,3.3,0,5.6,0c0-4.3,0-8.3,0-12.2c0-10-0.1-20,0-30
		c0.2-12.5,8.8-21.3,21.3-21.7c6.7-0.2,13.3-0.1,20,0c13.7,0.2,22.5,9,22.6,22.6c0.1,13.2,0.1,26.3,0.1,39.5
		C495.8,252,495.9,252.4,496.2,253.6z"/>
	<path d="M239.3,616.1c-28.1,0-56.2,0-84.7,0c-0.1-1.4-0.3-2.8-0.3-4.3c0-12.1-0.1-24.3,0-36.4c0.1-14.3,8.9-23,23.1-23
		c13.6,0,27.3-0.1,40.9,0c10.8,0.1,20.1,7.2,20.8,17.7C240,585.3,239.3,600.6,239.3,616.1z"/>
	<path d="M303.7,552.3c11.6,0,21.3,9.6,21.3,21.3c0,11.7-9.5,21.3-21.2,21.4c-11.5,0.2-21.4-9.5-21.6-21.1
		C282.1,562.1,291.8,552.3,303.7,552.3z"/>
	<path d="M389,573.5c0-11.7,9.7-21.2,21.4-21.2c11.7,0,21.3,9.6,21.3,21.2c0.1,11.8-10,21.7-21.7,21.5
		C398.3,594.8,389,585.2,389,573.5z"/>
	<path d="M218.2,509.8c-0.1,11.8-9.5,21.3-21.3,21.2c-11.9,0-21.4-9.7-21.2-21.8c0.2-11.8,9.7-21,21.5-20.9
		C209,488.5,218.3,498,218.2,509.8z"/>
	<path d="M495.8,573.7c0-11.8,9.3-21.3,21.1-21.3c12-0.1,21.4,9.5,21.4,21.6c-0.1,11.7-9.7,21.3-21.3,21.1
		C505.1,594.9,495.8,585.5,495.8,573.7z"/>
</g>
</svg>
