<?xml version="1.0" encoding="utf-8"?>
<!-- Generator: Adobe Illustrator 19.0.0, SVG Export Plug-In . SVG Version: 6.00 Build 0)  -->
<svg version="1.1" id="Calque_1" xmlns="http://www.w3.org/2000/svg" xmlns:xlink="http://www.w3.org/1999/xlink" x="0px" y="0px"
	 viewBox="0 0 612 792" style="enable-background:new 0 0 612 792;" xml:space="preserve">
<g>
	<path d="M24,439.8c63.8,0,127.6,0,191.9,0c0,14.2,0,28.2,0,42.4c1.9,0.1,3.4,0.3,4.8,0.3c49.5,0,99,0,148.5,0.1c3.4,0,5.8-0.7,7-4
		c0.3-0.8,0.8-1.4,1.3-2.1c3.2-5,5.3-12,9.9-14.5c4.6-2.6,11.7-0.8,17.6-0.9c42.2,0,84.3,0,126.5,0c1.5,0,3-0.2,4.5-0.2
		c0,42.7,0,85.3,0,128c-17.7,0.6-31-8.2-42.7-20.7c-11.5,12.7-25.1,21-42.7,21c-17.5,0-31.1-8.3-42.6-20.9
		c-11.8,12.8-25.4,21-43,20.9c-17.5-0.1-31-8.4-42.4-21c-24.3,27.8-60.6,28.2-85.2,0.3c-34.7,28.2-51.1,28.3-85.5,0.3
		c-0.2,0-0.4,0-0.5,0.1c-1.4,1.4-2.8,2.8-4.3,4.2c-9.2,8.8-19.8,14.4-32.6,16c-3.7,0.5-5.9-0.5-7.9-4
		C80.3,538.3,53.7,491.8,27,445.2c-0.9-1.5-2-2.9-3-4.4C24,440.5,24,440.2,24,439.8z"/>
	<path d="M387,119.8c0,6.8,0,13.6,0,21c-57.2,0-113.7,0-170.8,0c-1.4,8.9-2.8,17.4-4.1,25.9c-6.8,44.4-13.6,88.8-20.5,133.3
		c-5.8,38-11.7,76-17.5,114c-0.4,2.7-0.6,4.7-4.2,4.7c-26.7-0.1-53.3-0.1-80-0.1c-0.3,0-0.6-0.2-1.6-0.5c0.4-1.6,0.9-3.3,1.3-5
		c27.6-96.6,55.2-193.2,82.7-289.8c0.3-1.1,0.5-2.3,0.7-3.4C244.3,119.8,315.7,119.8,387,119.8z"/>
	<path d="M24,610.8c17.2-1,31.3-8.2,42.4-21.3c26.5,29.3,62.6,26.3,85.7,0c11.3,12.7,25,20.9,42.4,21c17.5,0.1,31.2-8.1,42.5-20.8
		c28.2,30.7,64,24.6,85.7-0.2c11.3,12.6,25,20.9,42.3,21c17.4,0.1,31.3-7.9,42.9-21.2c11.5,12.9,25.2,21.2,42.6,21.2
		c17.4,0,31.2-8.1,42.8-21.2c11.4,13.4,25.5,20.6,42.7,21.6c0,7,0,14,0,21c-2.3,0-4.7,0-7,0c-14-3.2-26.1-9.7-35.7-21.4
		c-9.3,11.6-21.5,18-35.3,21.4c-4.7,0-9.3,0-14,0c-6.4-2.3-13.1-3.9-18.9-7.2c-6.3-3.5-11.6-8.7-17.7-13.4
		c-9,10.9-21.1,17.5-35.3,20.6c-4.7,0-9.3,0-14,0c-11.9-3-22.8-7.9-31.3-17c-1.3-1.4-2.3-3.1-3.6-5c-10.1,12.4-22.1,18.8-36.1,22
		c-4.7,0-9.3,0-14,0c-6.3-2.4-13-4-18.8-7.3c-6.2-3.5-11.5-8.6-17.5-13.3c-8.8,10.8-20.8,17.2-34.7,20.6c-4.7,0-9.3,0-14,0
		c-6.9-2.7-14.2-4.6-20.6-8.2c-5.7-3.1-10.4-8-15.9-12.5c-9.1,11-21.2,17.6-35.4,20.7c-4.7,0-9.3,0-14,0c-11.9-3-22.8-7.9-31.3-17
		c-1.3-1.4-2.3-3.1-3.4-4.7c-13.8,13.7-14.3,14-36.3,21.6c-2.3,0-4.7,0-7,0C24,624.8,24,617.8,24,610.8z"/>
	<path d="M536,439.8c-45.1,0-90.3,0-136,0c0.7-1.5,1.1-2.6,1.7-3.7c15.6-26.1,31.3-52.3,47-78.3c0.9-1.4,2.9-3.1,4.3-3.1
		c27.6-0.1,55.3,0,82.9,0.1C536,383.2,536,411.5,536,439.8z"/>
	<path d="M259,354.2c0-21.2,0-42.1,0-63.3c49.7,0,99,0,148.7,0c0,21.1,0,42,0,63.3C358.4,354.2,309,354.2,259,354.2z"/>
	<path d="M333.3,162.6c6.1,0,10.8,4.8,10.7,10.8c-0.1,5.7-4.9,10.4-10.6,10.4c-6,0-10.7-4.8-10.6-10.9
		C322.9,167,327.4,162.6,333.3,162.6z"/>
	<path d="M333.4,269.1c-5.9,0-10.5-4.4-10.6-10.3c-0.1-6.1,4.5-10.9,10.5-11c5.9,0,10.8,4.9,10.7,10.8
		C343.9,264.4,339.2,269,333.4,269.1z"/>
	<path d="M333.3,205.1c5.9-0.1,10.8,4.9,10.7,10.9c-0.1,5.7-4.9,10.5-10.6,10.5c-5.7,0.1-10.5-4.6-10.7-10.4
		C322.6,210.1,327.3,205.2,333.3,205.1z"/>
</g>
</svg>
