<?xml version="1.0" encoding="utf-8"?>
<!-- Generator: Adobe Illustrator 19.0.0, SVG Export Plug-In . SVG Version: 6.00 Build 0)  -->
<svg version="1.1" id="Calque_1" xmlns="http://www.w3.org/2000/svg" xmlns:xlink="http://www.w3.org/1999/xlink" x="0px" y="0px"
	 viewBox="0 0 612 792" style="enable-background:new 0 0 612 792;" xml:space="preserve">
<g>
	<path d="M283.9,161.6c95.7-0.4,173.8,75.5,177.3,170.1c3.6,99.5-75.3,182-174.6,183.2C191,516,108,438.4,107.6,339.1
		C107.3,236.3,192.4,159.9,283.9,161.6z M298.3,317.1c-25.4-18.4-44.4-41.8-59.1-68.9c-0.9,0.5-1.4,0.7-1.8,1
		c-24.2,22.2-43.5,48.1-57.7,77.7c-0.9,1.8-0.5,5.1,0.6,6.8c9,13.4,17.7,27,27.7,39.6c8.3,10.6,18.9,19,30.6,26.7
		C258.5,372.3,278.2,344.9,298.3,317.1z M256.8,410.7c1.8,0.9,2.9,1.6,4.1,2.2c25.3,12.1,52.3,17.4,80.1,18.7
		c2.1,0.1,4.8-1.3,6.3-2.9c20.2-22,36.4-46.7,49.4-73.6c0.5-1.1,0.8-2.3,1.3-3.8c-2.4-0.4-4.4-0.8-6.3-1c-25-2-48.8-8.4-71.1-19.9
		c-3.5-1.8-5.2-1-7.3,2c-6.3,9-12.8,17.9-19.2,26.8C281.6,376.1,269.4,393.2,256.8,410.7z M310.4,300.3
		c21.7-30.1,42.9-59.6,64.2-89.1c-6.4-6.4-31.6-19.6-39.6-20.8c-1.4-0.2-3,0.1-4.3,0.6c-25.9,10.5-50.2,23.9-72.5,40.8
		c-2.5,1.9-3.1,3.6-1.4,6.2c6.3,9.8,12.1,19.9,19,29.3C285.2,280,296.7,290.8,310.4,300.3z M328.6,310.9c0.9,0.7,1.3,1.2,1.9,1.4
		c23.1,11.4,47.6,16.8,73.2,17.7c3.1,0.1,4.5-1.2,5.4-3.9c5.3-17,10.9-33.9,16-50.9c0.8-2.5,0.3-6.1-1-8.4
		c-4.3-7.7-8.7-15.4-14-22.4c-5.5-7.2-12-13.6-18.5-20.7C370.2,253.3,349.4,282.1,328.6,310.9z M192.5,463.9
		c11.4-15.9,22.5-31.2,33.7-46.8c-24-16.6-42.9-37.2-58.2-61.7c-0.7,1.3-1.2,2-1.4,2.8c-4,18-8.2,35.9-11.9,54
		c-0.8,3.9-1.6,9.1,0.3,12.1C164.6,439.8,177.2,452.7,192.5,463.9z M210.3,475.1c1.8,1,3.1,2.1,4.6,2.6c12.5,4.4,24.9,9.1,37.6,13
		c3.1,1,7.3,0.4,10.5-0.9c21-8.4,39.7-20.8,57.2-35.1c1.1-0.9,2.4-1.6,3.6-2.3c-28.4-4.1-54.7-11.4-79.5-24.3
		C232.9,443.8,221.7,459.3,210.3,475.1z M166.8,305.4c1.2-0.8,1.6-0.9,1.7-1.2c15.7-27.9,35.4-52.8,59.1-74.3c1-0.9,1.1-3.6,0.6-5.2
		c-2.5-8.1-5.4-16.1-8.2-24.1c-0.4-1.2-1-2.3-1.6-3.6c-1.6,0.7-2.8,1.2-3.9,1.8c-19.1,9.7-35.8,22.5-49.2,39.2
		c-13.9,17.3-12,11.6-8.1,32.6c0.2,0.8,0.3,1.6,0.5,2.4C160.6,283.8,163.6,294.4,166.8,305.4z M375.2,431.2
		c11.3-1.3,22.4-2.7,33.6-3.7c4.2-0.4,6.8-2.2,8.5-5.8c5.8-12.6,12.2-25.1,17.2-38c4.2-10.6,5.9-22,6.4-34.2
		c-5.4,0.6-10.3,1.4-15.2,1.5c-2.9,0.1-4.3,1.2-5.6,3.7c-4.8,10-9.4,20.3-15.1,29.8C395.7,400.1,385.6,415.1,375.2,431.2z
		 M136.9,388.4c3.9-13.3,7.2-25.2,10.9-37c2.1-6.6,6.7-13.1,6.6-19.6c-0.1-6.5-4.8-12.9-7.2-19.4c-3.1-8.7-5.8-17.5-9.1-27.6
		C126,319.5,125.7,353.2,136.9,388.4z M303,493.8c35.3-4.7,65.1-18.8,91.2-43.7c-13.8,1-26.2,1.9-38.6,3c-1.6,0.1-3.2,1.6-4.5,2.8
		c-6.1,5.4-11.9,11.2-18.3,16.2C323.4,479.4,313.6,486.1,303,493.8z M296.3,182.4c-20-1.1-39.1,0.5-58.2,7
		c2.8,8.7,5.3,16.6,7.7,24.4C263,203.1,279.4,192.9,296.3,182.4z M438.6,307.1c-0.4,0-0.9,0-1.3,0c-2.4,7.4-4.7,14.9-7.4,23.3
		c4.6-0.6,7.9-1,11.6-1.5C440.4,321.2,439.5,314.1,438.6,307.1z"/>
	<path d="M295.5,557.6c0,13.9,0,27.3,0,41.4c12.8,0,25.5,0,38.5,0c0,6.5,0,12.4,0,18.6c-31,0-61.9,0-93.2,0c0-6,0-11.9,0-18.2
		c12,0,23.9,0,36.3,0c0-14,0-27.5,0-41.7c-57.5-3-106.8-24.8-146.8-65.1c4.6-5.1,8.9-9.9,13.2-14.7c79.8,82.9,210.2,76.3,284.3,0.1
		c74.3-76.3,77.3-202-2.9-280.7c4.7-4.4,9.4-8.7,14.7-13.7c50.9,52.3,72.9,115.4,62.3,188.8c-7.4,51.5-31.6,94.7-70.3,129.5
		C392.9,536.5,347.3,554.7,295.5,557.6z"/>
</g>
</svg>
