<?xml version="1.0" encoding="utf-8"?>
<!-- Generator: Adobe Illustrator 19.0.0, SVG Export Plug-In . SVG Version: 6.00 Build 0)  -->
<svg version="1.1" id="Calque_1" xmlns="http://www.w3.org/2000/svg" xmlns:xlink="http://www.w3.org/1999/xlink" x="0px" y="0px"
	 viewBox="0 0 612 792" style="enable-background:new 0 0 612 792;" xml:space="preserve">
<g>
	<path d="M126.1,411.4c8.3,0,15.9,0,24.1,0c0-2,0-3.8,0-5.6c0-18.5,0-37,0-55.5c0-6.8,0.8-7.8,8-9.8c0-8.3,0-16.7,0-25.2
		c0-7.2,1.6-8.8,8.8-8.8c20.2,0,40.3,0,60.5,0c6.9,0,8.6,1.7,8.6,8.5c0,8.5,0,17,0,25.4c7.8,2.6,8,2.9,8,11.1c0,19.8,0,39.6,0,59.8
		c12.9,0,25.4,0,38.7,0c0-9.8,0-19.5,0-29.3c0-13.5,0-27,0.1-40.5c0-4.5,2.4-6.7,6.9-6.8c17.2,0,34.3-0.1,51.5,0c5.1,0,7,2.2,7,7.6
		c0,21,0,42,0,63c0,1.8,0,3.6,0,5.9c3.8,0,7.4,0,11.6,0c0-9.9,0-19.8,0-29.8c0-13.3,0.1-26.6,0.1-40c0-4.5,2.4-6.7,6.9-6.7
		c17.2,0,34.3-0.1,51.5,0c5,0,6.9,2.2,7,7.6c0,19.8,0,39.7,0,59.5c0,3,0,6,0,9.7c2,0,3.8,0,5.5,0c19.7,0,39.3,0,59,0
		c8,0,10.3,3.8,6.6,10.7c-15.7,29.2-31.4,58.3-47,87.5c-1.9,3.5-4.2,5-8.3,5c-96.5-0.1-193,0-289.4-0.1c-20.7,0-37.4-17-37.5-37.7
		c-0.1-48.7-0.1-97.3,0-146c0-5.3,2.1-8.1,5.9-8.2c3.8-0.1,6.1,2.9,6.1,8.1c0,24.8,0,49.7,0,74.5
		C126.1,407.4,126.1,409.2,126.1,411.4z M126.6,424c-0.1,1.1-0.3,1.7-0.3,2.3c0,17.7,0,35.3,0,53c0,1.3,0.3,2.6,0.7,3.9
		c3.4,12.5,12.9,19.6,26.6,19.6c23.5,0.1,47,0,70.5,0c70.2,0,140.3,0,210.5,0.1c2.9,0,5.1-0.2,6.8-3.4
		c12.6-23.8,25.4-47.5,38.1-71.2c0.7-1.3,1.2-2.6,1.9-4.3C362.9,424,245,424,126.6,424z M162.4,411.3c23.3,0,46.3,0,69.2,0
		c0-19.5,0-38.6,0-57.9c-23.2,0-46.1,0-69.2,0C162.4,372.7,162.4,391.8,162.4,411.3z M223.7,341c0-7.5,0-14.7,0-22.1
		c-17.9,0-35.6,0-53.4,0c0,7.5,0,14.6,0,22.1C188.1,341,205.8,341,223.7,341z M294.5,411.4c14.3,0,27.7,0,41.2,0
		c0-8.9,0-17.4,0-26.3c-13,0-25.7-0.1-38.3,0.1c-1,0-2.7,1.6-2.8,2.4C294.4,395.5,294.5,403.3,294.5,411.4z M412.9,385.1
		c-13.3,0-26.1,0-38.9,0.1c-0.9,0-2.4,1.4-2.5,2.2c-0.2,7.9-0.1,15.9-0.1,23.8c14.2,0,27.8,0,41.4,0
		C412.9,402.6,412.9,394.2,412.9,385.1z M294.5,347c0,7.3,0.2,14.4-0.1,21.5c-0.1,3.7,0.9,5,4.7,4.9c10.1-0.2,20.3-0.1,30.4-0.1
		c2.1,0,4.1-0.2,6.2-0.3c0-9,0-17.3,0-25.9C322,347,308.6,347,294.5,347z M412.9,347.2c-14,0-27.5,0-41.5,0c0,7.3,0.2,14.3-0.1,21.2
		c-0.1,3.7,1,5,4.8,4.9c10.6-0.2,21.3-0.1,31.9-0.1c1.6,0,3.2-0.3,4.8-0.4C412.9,364.1,412.9,355.8,412.9,347.2z"/>
	<path d="M327.5,438.5c2,1.4,3.9,2.2,5.2,3.5c10.2,11.4,20.3,22.8,30.4,34.3c3.1,3.5,3.2,7.3,0.5,9.7c-2.8,2.5-6.3,1.9-9.5-1.7
		c-10.2-11.4-20.4-22.8-30.2-34.4c-1.5-1.8-1.8-5.2-1.4-7.7C322.7,440.8,325.5,439.9,327.5,438.5z"/>
	<path d="M291.3,481.8c-1.6,1.9-2.8,4.7-4.4,4.9c-2.4,0.3-5.8-0.5-7.4-2.1c-5.6-5.6-10.7-11.8-16-17.8c-4.7-5.4-9.5-10.7-14.2-16.1
		c-3.3-3.7-3.5-7.7-0.7-10.1c2.7-2.3,6.5-1.5,9.6,2c10,11.2,19.9,22.4,29.8,33.7C289.2,477.6,290,479.5,291.3,481.8z"/>
	<path d="M402.1,438.4c2.2,1.4,4.3,2.3,5.6,3.7c10.2,11.3,20.2,22.6,30.2,34c3.1,3.6,3.4,7.3,0.7,9.7c-2.8,2.6-6.5,1.9-9.9-1.9
		c-10-11.2-20-22.3-29.7-33.8c-1.5-1.8-2.1-5.1-1.8-7.6C397.5,441.2,400.2,440,402.1,438.4z"/>
	<path d="M216.4,481.9c-1.6,1.9-2.8,4.6-4.2,4.7c-2.4,0.2-5.8-0.3-7.4-1.9c-5.2-5.1-9.9-10.8-14.7-16.3c-5.3-6-10.6-11.9-15.9-17.9
		c-3.1-3.5-3.3-7.4-0.6-9.7c2.6-2.4,6.6-1.7,9.6,1.7c9.8,11.1,19.7,22.2,29.4,33.3C214,477.4,214.9,479.5,216.4,481.9z"/>
</g>
</svg>
