<?xml version="1.0" encoding="utf-8"?>
<!-- Generator: Adobe Illustrator 19.0.0, SVG Export Plug-In . SVG Version: 6.00 Build 0)  -->
<svg version="1.1" id="Calque_1" xmlns="http://www.w3.org/2000/svg" xmlns:xlink="http://www.w3.org/1999/xlink" x="0px" y="0px"
	 viewBox="0 0 612 792" style="enable-background:new 0 0 612 792;" xml:space="preserve">
<g>
	<path d="M350.3,395.2c0,7.4,0,14.8,0,22.2c0.6,0,1.1,0,1.7,0c0-7.4,0-14.8,0-22.3c0.7,0,1.4-0.1,2.1-0.1c1.9,7.2-0.2,14.9,1.1,22.2
		c0.5,0,0.9,0,1.4,0c0-7.4,0-14.8,0-22.2c0.7,0,1.3,0,2,0c0,7.4,0,14.8,0,22.2c0.7,0,1.4,0.1,2.1,0.1c0-7.4,0-14.8,0-22.2
		c0.8,0,1.6,0,2.4-0.1c0,7.3,0,14.6,0,21.9c0.6,0,1.1,0,1.7,0c0.9-7.3-0.4-14.8,0.7-22c0.7,0,1.5,0.1,2.2,0.1c0,7.4,0,14.8,0,22.2
		c0.6,0,1.3,0,1.9,0c0-7.4,0-14.8,0-22.2c0.8,0,1.6,0,2.3-0.1c0,7.4,0,14.8,0,22.2c0.7,0,1.4,0,2.1,0c0-7.4,0-14.8,0-22.2
		c0.7,0,1.4-0.1,2.2-0.1c1.8,7.1-0.2,14.8,1.4,22c1.6-7.2-0.4-14.8,1.4-21.9c0.6,0,1.3,0,1.9,0c0,7.4,0,14.8,0,22.3
		c0.6,0,1.2,0,1.8,0c0-7.4,0-14.8,0-22.2c0.7-0.1,1.5-0.1,2.2-0.2c0.3,2.2,0.7,4.4,0.8,6.7c0.1,2.5,0.1,5,0.1,7.5
		c0,2.6,0,5.3,0.4,7.9c2-7.2-0.5-14.9,1.8-22c0.6,0,1.1,0,1.7,0.1c0,7.5,0,14.9,0,22.2c4,1.4,4.9-0.2,4.9-3.1
		c-0.1-6.5-0.2-13,0.1-19.5c0.1-2,1.5-4,2.2-6c0.4-1.4,0.9-2.8,0.9-4.2c0.1-15.8-0.1-31.7,0.1-47.5c0-3.6-1.2-4.7-4.6-4.5
		c-4,0.2-8,0.2-12,0c-2.7-0.1-4,0.7-4,3.6c0.1,6.3,0,12.5-0.1,18.8c0,0.8-0.6,1.5-0.7,2.3c-0.1,1.5,0,3,0,5.4
		c-0.3-0.1-1.8-0.1-2.1-0.7c-1-2-2.1-4.2-2.4-6.4c-0.6-5.5-0.6-11-1.1-16.5c-0.3-2.9-1-5.8-1.7-9.1c3-1.9,47.4-1.7,52.1,1.8
		c-4.4,0.3-7.5,0.6-10.6,0.7c-6.7,0.1-6.7,0-6.7,6.5c0,14.8-0.1,29.7,0.1,44.5c0,2,1.5,4,2.2,6c0.5,1.5,1,3.1,1.1,4.7
		c0.1,6.3-0.1,12.7,0.2,19c0.1,1.6,1.4,4.4,2.5,4.6c3.8,0.6,2.8-2.7,2.9-4.8c0.1-3.1,0-6.3,0-9.9c11.9,0,23.6-0.1,35.2,0.1
		c1,0,2.3,1.5,3,2.7c0.8,1.4,1,3.2,1.5,4.8c1.3,4.3,1.8,9.4,10,7c-1.7,2.5-2.4,3.8-3.3,4.8c-12.8,13.8-25.5,27.7-38.4,41.4
		c-1.2,1.3-3.9,1.7-5.9,1.7c-34.8,0.1-69.7,0.1-104.5,0.1c-36,0-72-0.1-108,0.1c-4.3,0-6.1-1.4-7.3-5.4
		c-5.2-17.7-10.8-35.3-16.3-52.9c-0.2-0.8-0.3-1.6-0.4-2.8c5.5,0.4,5.6-3,5.6-7c0.1-11.5,0.7-22.9,0.9-34.4
		c0.1-3.4-0.8-6.9-0.8-10.4c0-1.5,1.3-2.9,2-4.4c0.6,1.3,1.8,2.7,1.8,4c0.1,14.8,0.1,29.7,0.1,44.5c0,7.1,0,7.2,6.9,7.2
		c10.7,0,21.3,0.2,32,0c4.1-0.1,6.3,0.9,6.5,5.3c0,1.5,1,2.9,2.6,4.1c0-12.8,0.1-25.5-0.1-38.3c0-1.1-1.6-2.2-2.6-3.2
		c-1.2-1.3-3-2.3-3.7-3.8c-1.3-2.5-1.2-5.1,2.7-5.2c3.2,0,3.9-1.8,3.9-4.5c-0.1-7-0.2-14,0.1-21c0.1-1.6,1.6-3.1,2.5-4.6
		c0.8,1.5,2.3,3.1,2.3,4.6c0.3,7,0.1,14,0.1,21c0,2.3,0.1,4.3,3.2,4.5c1.3,0.1,3.7,1.5,3.7,2c-0.2,2-0.9,5-2.2,5.6
		c-5.4,2.2-4.7,6.5-4.7,10.7c0,9.8,0,19.7,0,29.5c0,8,0.2,8.1,9.2,6.4c0-7.2,0-14.7,0-22.1c0.7,0,1.4,0,2.1,0
		c1.5,7.2,0,14.7,0.8,21.9c0.5,0,1,0,1.4,0c0-7.3,0-14.6,0-21.9c0.8,0,1.5,0,2.3,0c0,7.4,0,14.9,0,22.3c0.7,0,1.3,0,2,0
		c0-7.4,0-14.8,0-22.8c2.9,2.2,2.9,2.2,2.9,11.1c0,3.8,0,7.6,0,11.3c0.6,0,1.2,0,1.8,0c0-7.4,0-14.7,0-22.1c0.7,0,1.5,0,2.2,0
		c0,7.5,0,14.9,0,22.4c0.7,0,1.3,0,2,0c0-7.4,0-14.8,0-22.2c0.7,0,1.3-0.1,2-0.1c2.2,7.1-0.3,14.8,1.4,22c0.5,0,0.9,0,1.4,0
		c0-7.4,0-14.8,0-22.1c0.6,0,1.3,0,1.9,0c0,7.4,0,14.9,0,22.3c0.7,0,1.4,0.1,2.1,0.1c0-7.4,0-14.8,0-22.2c0.8,0,1.6,0,2.4,0
		c0,7.3,0,14.6,0,21.9c0.7,0,1.4,0,2.1,0c0-7.3,0-14.7,0-22c0.8,0,1.5-0.1,2.3-0.1c1.5,7.2-0.1,14.8,1,22.1c0.5,0,1,0,1.5,0
		c0-7.3,0-14.7,0-22c0.7,0,1.4,0,2.1,0.1c0,7.4,0,14.8,0,22.3c0.6,0,1.3,0,1.9,0.1c0-7.4,0-14.9,0-22.3c0.8,0,1.7-0.1,2.5-0.1
		c1.4,7.3,0,14.9,0.8,22.6c1.8,0,3.4,0,5.8,0c0-7.6,0-15,0-22.5c0.7,0,1.4,0,2.1,0c0,7.3,0,14.6,0,21.9c0.8,0,1.5,0,2.3,0
		c0-7.3,0-14.7,0-22c0.7,0,1.5,0,2.2,0c0,7.5,0,14.9,0,22.4c0.7,0,1.4,0,2.1,0c0-7.4,0-14.7,0-22.1c0.7,0,1.4,0,2.1-0.1
		c0,7.4,0,14.7,0,22.1c0.7,0,1.5,0,2.2,0.1c0-7.4,0-14.8,0-22.2c0.8,0,1.6,0,2.4-0.1c0.2,3.5,0.4,7,0.5,10.5c0.1,3.8,0,7.6,0,11.4
		c0.5,0,1.1,0,1.6,0.1c0-7.3,0-14.6,0-21.9c0.8,0,1.6,0,2.3,0c0,7.4,0,14.9,0,22.3c0.7,0,1.4,0,2.1,0c0-7.4,0-14.8,0-22.2
		c0.7,0,1.4-0.1,2.2-0.1c1.8,7.2-0.1,14.9,1.1,22.1c0.4,0,0.9,0,1.3,0c0-7.4,0-14.8,0-22.2c0.7,0,1.4,0,2.1,0c0,7.5,0,15,0,22.5
		c0.7,0,1.5,0,2.2,0c0-7.5,0-15,0-22.4c0.8,0,1.5,0,2.3,0c0,7.4,0,14.7,0,22.1c0.7,0,1.5,0,2.2,0c0-7.4,0-14.8,0-22.1
		c0.7,0,1.3,0,2,0c0,7.4,0,14.8,0,22.2c0.7,0,1.5,0.1,2.2,0.1c0-7.4,0-14.7,0-22.1c0.7,0,1.4-0.1,2.1-0.1c0.2,1.5,0.6,2.9,0.6,4.4
		c0.1,5-0.1,10,0.2,15c0.1,1.2,1.8,2.3,2.8,3.5c0.9-1.2,2.6-2.4,2.7-3.6c0.3-4.8,0.1-9.7,0.2-14.5c0-1.6,0.5-3.2,0.7-4.8
		C348.8,395.1,349.5,395.2,350.3,395.2z M425.9,435.1c3.8-0.3,5.8-2.7,5.7-6.3c-0.1-3.5-2.2-6.1-6-6c-3.8,0.1-5.7,2.5-5.6,6.3
		C420,432.9,422.1,434.8,425.9,435.1z M215.2,424.4c-5.3,0.3-8.3,3.6-8.2,8.9C210,430,212.2,427.6,215.2,424.4z M214.9,419.9
		c-2.7-3-4.8-5.3-7.6-8.3C206.7,416.7,209.7,419.9,214.9,419.9z M424.9,408.7c-0.8-0.6-1.6-1.2-2.3-1.8c-1.2,1.2-2.3,2.3-3.5,3.5
		c1,0.9,2.1,1.8,3.1,2.7C423.1,411.6,424,410.2,424.9,408.7z M432,407.9c-1.7,0-3.1,0-4.9,0c0.1,1.9,0.2,3.4,0.3,5.3
		c1.9-0.2,3.3-0.3,4.9-0.4C432.2,410.9,432.1,409.5,432,407.9z M435,407.8c0,1.9,0,3.4,0,5.1c1.6,0,3,0,4.6,0c0-1.8,0-3.3,0-5.1
		C438,407.8,436.7,407.8,435,407.8z M196.3,424.4c-0.3,0.4-0.7,0.7-1,1.1c2.2,2.3,4.4,4.6,7.3,7.6
		C202.8,428.3,199.7,424.7,196.3,424.4z M203.7,414.2c-0.7-0.6-1.3-1.3-2-1.9c-2.1,2.2-4.2,4.4-6.3,6.7c0.6,0.6,1.3,1.2,1.9,1.8
		C199.4,418.7,201.5,416.4,203.7,414.2z"/>
	<path d="M445.7,400c-11.2,0-21.6,0-32.4,0c0-5.2,0-10.3,0-16c8.9,0,17.8,0,26.7,0.1c0.7,0,1.9,0.9,2.1,1.5
		C443.4,390.2,444.4,394.8,445.7,400z M425.7,392.6c-1.8-1.4-2.8-2.8-3.7-2.7c-1,0.1-1.9,1.4-2.9,2.2c0.9,1,1.6,2.5,2.7,2.9
		C422.5,395.2,423.8,393.8,425.7,392.6z M434.9,395.9c2.2-1,3.9-1.3,4.8-2.3c0.5-0.5-0.3-2.8-1.2-3.6c-0.7-0.6-2.3-0.1-3.7-0.1
		C434.9,391.8,434.9,393.1,434.9,395.9z M432,389.5c-1.8,0.4-3.6,0.4-4.6,1.3c-0.6,0.5-0.5,3.1,0.1,3.5c1.1,0.8,2.8,0.6,4.5,0.9
		C432,393,432,391.6,432,389.5z"/>
	<path d="M418.8,380.8c-0.1-1.4-0.5-2.8-0.2-4c0.3-1.8,1.1-4.9,1.7-4.9c2.4,0,5.2,0.4,7.1,1.7c2.3,1.6,4,4.3,6.5,7.2
		C428.3,380.8,423.7,380.8,418.8,380.8z"/>
	<path d="M251.6,367.6c0.6,1.3,1.3,2.1,1.4,2.9c0.1,6.8,0.1,13.6,0,20.5c0,0.9-1,1.7-1.6,2.5c-0.5-0.7-1.4-1.4-1.4-2.2
		c-0.1-7.2-0.1-14.3,0.1-21.5C250,369.3,250.8,368.7,251.6,367.6z"/>
	<path d="M368.1,368.3c0,3.3,0,6.7,0,10c0,4.3,0.1,8.6-0.1,13c0,0.8-0.9,1.5-1.4,2.2c-0.6-0.7-1.6-1.3-1.6-2
		c-0.1-7.3,0-14.6,0.1-21.9c0-0.5,0.7-1,1.1-1.4C366.8,368.2,367.5,368.3,368.1,368.3z"/>
	<path d="M305.7,367.5c0,9.3,0,17.6,0,26.1C302.1,391.6,301.8,371.5,305.7,367.5z"/>
	<path d="M312.6,393.8c0-8.9,0-17.2,0-26.4C316,371.7,315.8,391.1,312.6,393.8z"/>
	<path d="M281.5,394.7c0-9.6,0-17.9,0-26.8C284.8,370.8,285,390.3,281.5,394.7z"/>
	<path d="M389.6,393.4c-3.3-1.8-3.7-21.9,0-25.8C389.6,376.6,389.6,385,389.6,393.4z"/>
	<path d="M259.4,367.2c3.6,4.7,3.3,24,0,26.7C259.4,385.1,259.4,376.7,259.4,367.2z"/>
	<path d="M265.7,368.4c0,8.3,0,16.7,0,25.3C262.5,391.5,262,372.6,265.7,368.4z"/>
	<path d="M268.4,367.8c3.2,3.4,3.3,22.6,0,26.3C268.4,385.1,268.4,376.8,268.4,367.8z"/>
	<path d="M274.4,393.7c-3.2-2.6-3.4-21.9,0-26.4C274.4,376.6,274.4,384.9,274.4,393.7z"/>
	<path d="M290.4,367.9c3.8,3.2,3.7,23.3,0,25.8C290.4,385,290.4,376.7,290.4,367.9z"/>
	<path d="M301,368.3c0,8.4,0,16.8,0,25.2c-0.7,0-1.3,0-2,0c-0.6-8.4-0.4-16.7-0.1-25.1C299.6,368.4,300.3,368.4,301,368.3z"/>
	<path d="M321.2,394.5c0-9.4,0-17.7,0-26.2C324.7,370.2,325.2,390.2,321.2,394.5z"/>
	<path d="M327.6,394.3c-3.5-3.8-3.3-23.3,0-26.5C327.6,376.7,327.6,385,327.6,394.3z"/>
	<path d="M330.2,394c0-9.1,0-17.4,0-26.1C333.6,371.1,333.7,390.5,330.2,394z"/>
	<path d="M336.5,393.5c-3.4-2-3.7-22.1,0-25.8C336.5,376.7,336.5,385,336.5,393.5z"/>
	<path d="M349.9,367.3c0,9.4,0,17.7,0,26.2C346.3,391.6,345.9,371.8,349.9,367.3z"/>
	<path d="M352.4,367.8c3.3,3.4,3.4,22.8,0,26.4C352.4,385.1,352.4,376.8,352.4,367.8z"/>
	<path d="M358.5,393.7c-3.1-2.7-3.4-21.9,0-26.3C358.5,376.6,358.5,384.9,358.5,393.7z"/>
	<path d="M374.3,393.6c0-8.5,0-16.8,0-25.1c0.6-0.1,1.2-0.2,1.8-0.3c0.3,1.8,0.9,3.7,0.9,5.5C377.1,392,377.1,392,374.3,393.6z"/>
	<path d="M380.5,393.7c-2.9-2.8-3.2-21.3,0-26.7C380.5,376.6,380.5,384.9,380.5,393.7z"/>
	<path d="M383.4,367.3c3.5,4.4,3.3,23.8,0,26.6C383.4,385.1,383.4,376.8,383.4,367.3z"/>
	<path d="M256.9,368.5c0,8.3,0,16.6,0,25C253.7,391.5,253.2,372.5,256.9,368.5z"/>
	<path d="M361.4,368c2.9,3.2,3.2,21.8,0,26.7C361.4,385.1,361.4,376.8,361.4,368z"/>
	<path d="M318.6,394.2c-3.1-3.7-3.2-22.3,0-26.8C318.6,376.7,318.6,385,318.6,394.2z"/>
	<path d="M287.9,368.5c0,8.3,0,16.6,0,25C284.7,391.5,284.2,372.4,287.9,368.5z"/>
	<path d="M278.8,367.1c0,9.6,0,18,0,27C276,390.7,275.8,372,278.8,367.1z"/>
	<path d="M340.8,368.4c0,8.3,0,16.6,0,24.9c-0.5,0-1,0-1.5,0c0-8.3,0-16.6,0-24.9C339.8,368.5,340.3,368.5,340.8,368.4z"/>
	<path d="M370.3,393.4c0-8.3,0-16.6,0-25c0.5,0,1.1,0,1.6-0.1c1.1,8.3,0.5,16.6,0.3,24.9C371.5,393.3,370.9,393.4,370.3,393.4z"/>
	<path d="M308.2,393.5c0-8.7,0-16.9,0-25.9C311.5,372.2,311.2,391.3,308.2,393.5z"/>
</g>
</svg>
