<?xml version="1.0" encoding="utf-8"?>
<!-- Generator: Adobe Illustrator 19.0.0, SVG Export Plug-In . SVG Version: 6.00 Build 0)  -->
<svg version="1.1" id="Calque_1" xmlns="http://www.w3.org/2000/svg" xmlns:xlink="http://www.w3.org/1999/xlink" x="0px" y="0px"
	 viewBox="0 0 612 792" style="enable-background:new 0 0 612 792;" xml:space="preserve">
<g>
	<path d="M101.9,375.5c5.1,0,9.6,0,14.5,0c0-11.5,0-22.6,0-33.7c0-11.8,0.1-23.6,0.3-35.4c0-1,1.3-1.9,1.9-2.8
		c0.7,1.1,1.9,2.3,2,3.4c0.2,10.8,0.1,21.7,0.1,32.5c0,11.8,0,23.6,0,35.8c12.8,0,25.2,0,38.4,0c0-6.4,0-12.9,0-19.3
		c0-3.5-0.1-7,0-10.5c0.1-5,0.9-10-5.7-11.9c-1.2-0.3-2.2-2-2.9-3.3c-2.4-4.8-0.8-7.8,4.6-8.4c1.1-0.1,2.3-0.3,3.9-0.5
		c0-10,0-20,0-30c0-1.5-0.5-3.2,0.1-4.4c0.8-1.6,2.2-3.7,3.7-4.1c2.8-0.8,4.2,1.2,4.2,4.1c0,9.3,0,18.7,0,28c0,2.1,0,4.3,0,6.4
		c1.4,0.3,2.2,0.3,3,0.6c2.2,0.8,6.2,2,6.1,2.4c-0.7,3.2-1.3,8.1-3.4,9c-6.2,2.8-5.9,7.4-5.8,12.6c0.2,9.8,0,19.6,0,29.5
		c2.8,0.2,4.9,0.4,6.9,0.6c4.5,17.9,6.3,19.5,20.5,17.4c0-9.6,0-19.4,0-29.5c20,0,39.5,0,59.7,0c0,7.9-0.1,15.9,0.1,23.8
		c0.1,2,1.1,4.1,1.7,6.1c0.7-2.1,1.9-4.1,2-6.2c0.2-7.8,0.1-15.6,0.1-23.7c20,0,39.4,0,59.6,0c0,8-0.1,15.9,0.1,23.9
		c0,2,1.1,4,1.7,6c0.6-2,1.7-3.9,1.7-5.9c0.2-7.8,0.1-15.6,0.1-23.9c19.8,0,39.4,0,59.5,0c0,9.7,0,19.4,0,29.6c6.6,0,12.7,0,19.5,0
		c0-15.7,0-31.6,0-47.6c2.6-0.2,4.6-0.4,6.9-0.6c0-3.8,0-7.4,0-11.3c5.9-1,11.1-1.7,14.7,4.1c3.6,5.8,8.5,9.2,16,7.2
		c1.8,7.4,3.3,14.4,5.2,21.3c0.4,1.5,2.3,2.6,3.5,3.8c1,1.1,2.4,2,2.9,3.3c1.8,5,3.4,10.1,4.7,15.3c0.9,3.6,2.5,5.3,6.5,4.9
		c4.1-0.4,8.2-0.1,13.6-0.1c-1.7,2.2-2.7,3.6-3.9,4.8c-13.8,14.7-27.6,29.4-41.4,44.1c-1.1,1.2-2.6,2.3-3.3,3.7
		c-5,9.1-12.8,10.2-22.5,10.2c-90.3-0.4-180.6-0.2-271-0.1c-3.6,0-5.1-1.1-6.2-4.6c-6.4-21.5-13-43-19.6-64.4
		C105.1,383.8,103.6,380.1,101.9,375.5z M453,393.7c-1.9-6.3-3.7-11.8-5.2-17.4c-0.8-3-2.5-3.8-5.4-3.7c-10.7,0.1-21.3,0-32,0
		c-2.4,0-4.9,0-7.8,0c0,6.6-0.1,12.4,0.1,18.2c0,1,1.9,2.8,2.9,2.8C421.2,393.7,436.7,393.7,453,393.7z M402.7,347.8
		c0,7.1-0.1,13.4,0.1,19.6c0,1,1.6,2.7,2.5,2.7c11.7,0.2,23.5,0.1,35.8,0.1c-1.7-7.1-3-13.6-4.7-19.9c-0.3-1-2-2.4-3-2.4
		C423.5,347.7,413.6,347.8,402.7,347.8z M152.6,324.9c0.4,5.7,3.3,7.6,7.4,8.3c6.2,1,11.1-0.6,12.8-4.1c1.1-2.2,1-4.1-2-4.1
		C165,324.8,159.1,324.9,152.6,324.9z M162.5,374.4c2.8-4,2.6-33.4,0-37C162.5,350.3,162.5,362.4,162.5,374.4z M164,284.8
		c-2.7,5.5-2.5,32.8,0,36.1C164,308.9,164,297.5,164,284.8z M424.8,345.2c-2.9-3.3-4.8-6.2-7.4-8.1c-1.6-1.2-4.3-1.2-6.5-1.1
		c-0.6,0-1.2,2.7-1.3,4.2c-0.2,1.6,0.2,3.2,0.4,5C414.9,345.2,419.3,345.2,424.8,345.2z M431.1,409.5c0-0.8,0-1.6-0.1-2.3
		c-2.2-1.5-4.2-4.1-6.5-4.3c-3.3-0.4-5.4,2.5-5.3,5.9c0.1,3.3,2.2,6.1,5.6,5.5C427.2,413.8,429.1,411.2,431.1,409.5z"/>
	<path d="M317.5,360.2c-20.2,0-39.6,0-59.3,0c0-11.4,0-22.4,0-33.7c0.9-0.2,1.7-0.6,2.5-0.6c17.6,0,35.3-0.1,52.9,0
		c1.3,0,3.7,1.6,3.8,2.4C317.6,338.9,317.5,349.4,317.5,360.2z"/>
	<path d="M380.6,360.3c-20,0-39.4,0-59.2,0c0-11.3,0-22.4,0-33.9c19.6,0,39.3,0,59.2,0C380.6,337.7,380.6,348.7,380.6,360.3z"/>
	<path d="M253.9,326.2c0,11.5,0,22.6,0,34c-19.7,0-39.1,0-59.3,0c0-8.3,0-16.3,0-24.4c0-9.8,0-9.8,9.7-9.8c14.8,0,29.6,0,44.4,0
		C250.4,325.9,252,326.1,253.9,326.2z"/>
	<path d="M417.7,381.6c0,1.7,0,3.5,0,5.6c-1.8,0-3.5,0-5.2,0C410.9,381.2,411.6,380.5,417.7,381.6z"/>
	<path d="M432.1,387.2c-0.6-6.4-0.6-6.5,5.5-5.8c0,1.8,0,3.7,0,5.8C435.8,387.2,434.1,387.2,432.1,387.2z"/>
	<path d="M427.7,387.3c-1.9,0-3.4,0-5.4,0c0-1.9,0-3.6,0-5.3C427.8,380.3,428.3,380.7,427.7,387.3z"/>
	<path d="M407.9,357.9c2,0,3.7,0,5.7,0c0,2.1,0,4,0,6.2c-1.9,0-3.6,0-5.7,0C407.9,362.1,407.9,360.1,407.9,357.9z"/>
	<path d="M427.8,364c0-1.9,0-3.8,0-6c1.9,0,3.6,0,5.7,0c0,1.8,0,3.7,0,6C431.8,364,430,364,427.8,364z"/>
	<path d="M418.3,357.7c2,0,3.4,0,5.3,0c0,2.1,0,4.1,0,6.4c-1.7,0.1-3.2,0.1-5.3,0.2C418.3,362.2,418.3,360.2,418.3,357.7z"/>
</g>
</svg>
