<?xml version="1.0" encoding="utf-8"?>
<!-- Generator: Adobe Illustrator 19.0.0, SVG Export Plug-In . SVG Version: 6.00 Build 0)  -->
<svg version="1.1" id="Calque_1" xmlns="http://www.w3.org/2000/svg" xmlns:xlink="http://www.w3.org/1999/xlink" x="0px" y="0px"
	 viewBox="0 0 612 792" style="enable-background:new 0 0 612 792;" xml:space="preserve">
<g>
	<path d="M135,385.8c8.3,0,15.9,0,24.1,0c0-2,0-3.8,0-5.6c0-18.5,0-37,0-55.5c0-6.9,0.8-7.9,8-9.8c0-8.3,0-16.7,0-25.1
		c0-7.3,1.6-8.8,8.7-8.9c20.2,0,40.3,0,60.5,0c7.1,0,8.7,1.6,8.7,8.9c0,8.3,0,16.6,0,24.9c7.8,2.7,8,2.9,8,11.1
		c0,19.8,0,39.6,0,59.8c12.8,0,25.4,0,38.7,0c0-9.7,0-19.5,0-29.2c0-13.5,0-27,0.1-40.5c0-4.5,2.4-6.8,6.8-6.8
		c17.2,0,34.3-0.1,51.5,0c5.2,0,7,2.2,7,8c0,21.3,0,42.7,0,64c0,1.3,0,2.6,0,4.4c3.8,0,7.3,0,11.6,0c0-9.9,0-19.8,0-29.7
		c0-13.3,0.1-26.6,0.1-40c0-4.5,2.4-6.7,6.8-6.7c17.2,0,34.3-0.1,51.5,0c5,0,7,2.2,7,7.6c0,19.8,0,39.7,0,59.5c0,3,0,6,0,9.8
		c2,0,3.7,0,5.5,0c19.5,0,39,0,58.5,0c8.7,0,11,3.7,6.9,11.2c-15.5,28.9-31.1,57.7-46.5,86.7c-2.1,3.9-4.5,5.5-9,5.5
		c-96-0.1-192,0-287.9-0.1c-21.9,0-38.5-16.7-38.5-38.7c-0.1-48.2,0-96.3,0-144.5c0-1-0.1-2,0.1-3c0.4-3.5,2.5-5.6,5.8-5.7
		c3.7,0,5.9,2.2,6.1,5.9c0.2,3.2,0.1,6.3,0.1,9.5c0,22.5,0,45,0,67.5C135,382.1,135,383.7,135,385.8z M135,398.3
		c0,17.5,0,34.4,0,51.4c0.1,16.7,10.9,27.6,27.5,27.6c93.8,0,187.6,0,281.5,0.1c3.3,0,5-1.1,6.5-4c12.5-23.5,25.1-47,37.7-70.4
		c0.8-1.4,1.4-2.9,2.3-4.7C371.8,398.3,253.7,398.3,135,398.3z M171.3,328.2c0,19.4,0,38.3,0,57.3c23.3,0,46.3,0,69.3,0
		c0-19.3,0-38.2,0-57.3C217.4,328.2,194.6,328.2,171.3,328.2z M232.7,293.4c-18.1,0-35.7,0-53.3,0c0,7.5,0,14.6,0,21.6
		c17.9,0,35.5,0,53.3,0C232.7,307.7,232.7,300.8,232.7,293.4z M303.9,346.9c14,0,27.4,0,40.7,0c0-8.7,0-17.1,0-25.4
		c-13.8,0-27.2,0-40.7,0C303.9,330.2,303.9,338.4,303.9,346.9z M381,346.9c13.8,0,27.3,0,40.8,0c0-8.7,0-16.9,0-25.3
		c-13.8,0-27.3,0-40.8,0C381,330.2,381,338.5,381,346.9z M344.8,360.3c-13.8,0-27.2,0-40.8,0c0,8.6,0,16.8,0,25.4
		c13.7,0,27.1,0,40.8,0C344.8,377.2,344.8,368.9,344.8,360.3z M381,385.5c14.1,0,27.4,0,40.8,0c0-8.7,0-16.9,0-25.3
		c-13.7,0-27.1,0-40.8,0C381,368.8,381,377,381,385.5z"/>
	<path d="M261.3,412.6c2.1,1.5,4,2.4,5.3,3.8c10.3,11.5,20.6,23.1,30.8,34.7c2.7,3,3.3,6.3,0.1,9.2c-3.3,2.9-6.4,1.7-9.1-1.3
		c-10.2-11.6-20.6-23.1-30.6-34.8c-1.4-1.7-2-4.9-1.5-7.1C256.6,415.4,259.3,414.3,261.3,412.6z"/>
	<path d="M449.6,454.8c0.1,5.3-4.5,8.4-8.3,6.4c-1.4-0.7-2.6-2-3.7-3.2c-9.8-11.1-19.6-22.2-29.5-33.2c-2.8-3.1-4-6.3-0.7-9.6
		c2.8-2.9,6.2-2.2,9.8,1.8c9.9,11.2,19.9,22.4,29.7,33.6C448.1,452.1,449,453.9,449.6,454.8z"/>
	<path d="M225.3,456.6c-1.6,1.7-2.9,4.2-4.7,4.6c-2,0.5-5.1-0.3-6.6-1.7c-4.8-4.8-9.2-10.1-13.7-15.2c-5.8-6.6-11.7-13.2-17.5-19.8
		c-3.2-3.7-3.3-7.3-0.3-9.6c3.5-2.7,6.5-1.5,9.1,1.5c10.2,11.6,20.5,23.1,30.7,34.8C223.5,452.6,224.1,454.4,225.3,456.6z"/>
	<path d="M336.3,412.7c2.1,1.4,3.9,2.2,5.2,3.6c10.4,11.6,20.8,23.4,31.1,35.1c2.6,2.9,2.9,6.1,0,8.8c-3,2.8-6.1,2.1-8.8-0.8
		c-10.6-11.9-21.3-23.8-31.6-36c-1.3-1.5-1.5-4.7-0.8-6.8C331.8,415.1,334.4,414.2,336.3,412.7z"/>
</g>
</svg>
