<?xml version="1.0" encoding="utf-8"?>
<!-- Generator: Adobe Illustrator 19.0.0, SVG Export Plug-In . SVG Version: 6.00 Build 0)  -->
<svg version="1.1" id="Calque_1" xmlns="http://www.w3.org/2000/svg" xmlns:xlink="http://www.w3.org/1999/xlink" x="0px" y="0px"
	 viewBox="0 0 612 792" style="enable-background:new 0 0 612 792;" xml:space="preserve">
<style type="text/css">
	.st0{fill:#033768;}
	.st1{fill:#053868;}
	.st2{fill:#E2C96A;}
	.st3{fill:#8E9294;}
	.st4{fill:#919192;}
	.st5{fill:#909091;}
	.st6{fill:#1B4A76;}
	.st7{fill:#1A4A76;}
	.st8{fill:#EEC48E;}
	.st9{fill:#063968;}
	.st10{fill:#063969;}
	.st11{fill:#FDFDFC;}
	.st12{fill:#FBFBFB;}
	.st13{fill:#FAFAFB;}
	.st14{fill:#083A6A;}
</style>
<g>
	<path class="st0" d="M412.4,300.2c0,16.3,0.1,32.7-0.1,49c0,3.8,1.1,4.7,4.8,4.7c30-0.1,60-0.1,90-0.1c8.3,0,10.1,1.8,10.1,9.9
		c0,31.3,0,62.7,0,94c0,7.8-1.9,9.8-9.6,9.9c-11.5,0.2-23,0.3-34.5,0.3c-2.7,0-4,0.6-4.8,3.4c-4.7,16.1-17.6,26.1-33.6,26.3
		c-15.5,0.2-28.7-9.6-33.8-25.3c-0.9-2.9-2.4-3.3-5-3.2c-13.3,0.4-26.6,0.7-40,1c-2.3,0-3.5,0.7-4.6,2.8
		c-7.7,15.5-20.3,24.1-37.7,24.5c-17.3,0.4-30.4-7.4-38.8-22.6c-1.4-2.5-3.1-2.5-5.4-2.4c-10.7,0.3-21.3,0.3-32,0.8
		c-4.9,0.2-9.1-1.5-13.5-2.7c-33.7-9.2-67.3-18.3-101-27.5c-4-1.1-7.7-2.4-9.4-6.6c-1.4-3.7-1.1-7.2,1.5-10.3
		c2.9-3.4,6.6-4.3,10.8-3.1c15.6,4.2,31.1,8.3,46.7,12.5c8,2.2,16.1,4.1,24,6.6c3.8,1.2,5,0.4,6-3.4c11-41.6,22.2-83.2,33.3-124.8
		c3-11.1,5.9-22.2,9-33.2c1.8-6.8,7.1-10.1,13-8.4c5.5,1.6,8.1,7.1,6.3,13.7c-14,52.2-28,104.3-41.9,156.5c-0.6,2.2-3.6,5.4,2,6.7
		c4.5,1.1,5.4,0.2,6.2-4.1c8.6-45.6,22.2-90,34.8-134.6c2.4-8.6,4.9-17.2,7.2-25.9c5.3-20.6,19.1-32.5,38.8-38.5
		c20.1-6.1,40.7-5.9,61.4-5.3c10.3,0.3,20.6,0.7,31,1c6.4,0.2,8.6,2.3,8.6,8.9C412.4,267.2,412.4,283.7,412.4,300.2z"/>
	<path class="st1" d="M212,358c-3.9-1-8.1-2-12.3-3.2c-16.2-4.3-32.4-8.7-48.6-13c-5.9-1.6-7.5-4.3-5.9-10.3
		c5.2-19.4,10.4-38.8,15.7-58.2c1.4-5.3,4-6.8,9.1-5.4c19.6,5.2,39.2,10.4,58.7,15.6c5.9,1.6,7.3,4.1,5.7,9.9
		c-5.1,19.4-10.3,38.8-15.5,58.3C218,355.2,216.2,357.7,212,358z"/>
	<path class="st1" d="M213,367.6c-1,4-2,8.1-3.1,12.1c-4.3,16.2-8.7,32.4-13,48.6c-1.7,6.5-4.2,7.9-10.5,6.2
		c-19.1-5.1-38.2-10.2-57.2-15.4c-6.5-1.7-7.8-4.1-6.1-10.5c5-18.9,10.1-37.9,15.2-56.8c1.9-6.9,4.4-8.2,11.3-6.3
		c19.1,5.1,38.1,10.3,57.2,15.3C210.4,361.8,212.5,363.8,213,367.6z"/>
	<path class="st2" d="M504,356c1.7,0,3.3,0.1,5,0.1c3.9,0,5.8,2.1,5.8,5.9c0,32.5,0,65,0,97.5c0,3.6-1.9,5.5-5.6,5.5
		c-12.2,0-24.3,0-36.5,0.3c-4.5,0.1-3.1-2.9-3.3-5c-1.5-17.6-13.3-30.1-31-32.7c-15.3-2.3-31,7.2-36.9,22.4c-1.5,3.9-2.4,8-2.3,12.2
		c0.1,3.3-0.7,4.6-4.3,4.7c-12.7,0.1-25.3,0.4-38,0.8c-4.6,0.2-2.8-2.3-2.3-4.5c4.5-22.2-9.4-44.5-31.2-50
		c-22.3-5.7-45.1,6.9-51.8,28.8c-2.5,8-2.7,16.1-0.3,24.1c1.1,3.8-0.1,4-3.3,4.1c-10.2,0.1-20.3,0.4-30.5,0.6
		c-7.4,0.2-8.1-0.3-7.5-7.9c1.1-13.5,4.3-26.6,7.4-39.7c10.2-43.1,22.7-85.5,35-128c2.3-7.8,3.6-15.9,7.8-23
		c9.4-15.7,24.4-22.5,41.4-26c18.9-3.9,38.1-3.4,57.3-2.7c8,0.3,16,0.5,24,0.8c5.6,0.2,7,1.5,7,7.2c0,32.7,0,65.3,0,98
		c0,6.8,0,6.8,6.9,6.8c1.3,0,2.7,0,4,0c1.8,2.5-0.3,4.4-1.2,6.3c-6.1,13.1-13.5,25.5-19.7,38.6c-0.8,1.6-3.1,3.9-0.9,5.2
		c2.3,1.4,5.5,1.2,7.8-1.2c1.2-1.2,1.7-2.8,2.5-4.3c6.6-13.8,13.8-27.3,20.9-40.8c0.8-1.6,1.1-4,3.8-3.9c7.3,0,14.6,0.1,21.9,0.1
		c1.6,2.3-0.1,4.1-1,5.9c-6.2,12.9-13,25.4-19.5,38.1c-0.8,1.6-3.2,3.8-0.9,5.1c2.3,1.3,5.6,1.3,7.8-1.1c1-1.1,1.6-2.5,2.2-3.9
		c6.4-13.5,13.8-26.5,20.5-39.9c0.9-1.8,1.2-4.3,4-4.4c7.3,0,14.6,0.1,21.9,0.1c1.6,2.3-0.1,4.1-1,5.9
		c-6.3,12.8-12.8,25.6-19.5,38.2c-0.8,1.5-3.2,3.8-1,5.1c2.3,1.3,5.6,1.3,7.8-1.1c1-1.1,1.6-2.5,2.2-3.9
		c6.4-13.5,13.9-26.5,20.5-39.9C500.8,358.6,501.1,356,504,356z"/>
	<path class="st3" d="M123.3,424.9c1.9,0.5,4.3,1,6.7,1.7c23.1,6.2,46.2,12.3,69.3,18.7c3.5,1,4.1-0.2,4.9-3.2
		c14.2-53,28.4-105.9,42.7-158.8c0.3-1,0.5-1.9,0.8-2.9c1.6-4.7,5.1-6.9,9-5.9c4.3,1.2,6.6,4.9,5.3,9.7c-2.9,11.3-5.9,22.5-8.9,33.7
		c-11.4,42.5-22.7,85.1-34.3,127.5c-1,3.8-0.2,4.9,3.4,5.6c7,1.4,7.1,1.6,5.9,9.1c-0.4,2.8,1.7,6.8-1.3,8c-2,0.9-5.3-1.2-8-2
		c-32.2-8.8-64.4-17.5-96.7-26.3c-4.8-1.3-7.6-4.5-6.9-8.3C116,427.7,118.4,425.2,123.3,424.9z"/>
	<path class="st4" d="M353,454.5c0,22.5-18.2,40.6-40.7,40.5c-22-0.1-40.3-18.5-40.2-40.6c0.1-22,18.5-40.3,40.5-40.3
		C334.7,414.1,353,432.4,353,454.5z"/>
	<path class="st5" d="M401.9,462.5c0-18.1,14.1-32.5,32-32.6c18.3-0.1,33,14.1,33.1,32.1c0.1,18.1-14.4,32.9-32.4,33
		C416.5,495.1,402,480.6,401.9,462.5z"/>
	<path class="st6" d="M434,356c-6.7,10.9-11.9,22.6-17.9,33.9c-2.6,4.8-5,9.8-7.5,14.7c-0.9,1.9-1.9,3.5-4.4,3.2
		c-2.6-0.3-6.2,1.2-7.6-0.6c-1.6-2.1,1.3-4.7,2.4-7c6.6-13.2,13.4-26.3,20.2-39.5c0.7-1.5,1.9-2.8,1.7-4.6
		C425.3,354.5,429.6,354.3,434,356z"/>
	<path class="st6" d="M504,356c-8,13.8-15.2,28-21.9,42.4c-3.5,7.4-7.7,10.6-15.7,8.1c-0.5-1.5,0.9-2.8,1.6-4.1
		c7-13.8,14.1-27.5,21.1-41.2c0.8-1.6,2.1-3,1.9-5C495.3,354.5,499.6,354.3,504,356z"/>
	<path class="st7" d="M469,356c-7.5,12.7-13.7,26.2-20.6,39.2c-1,1.9-2,3.8-3,5.8c-3.2,6.3-5.5,7.4-12.5,6.2
		c-3.6-0.6-1.2-2.4-0.7-3.5c6.5-12.9,13.2-25.7,19.7-38.6c1.5-2.9,3.6-5.6,4-9C460.3,354.5,464.6,354.3,469,356z"/>
	<path class="st8" d="M211,355.1c-3.4-0.9-7.6-2-11.7-3.1c-15.9-4.3-31.8-8.6-47.7-12.8c-3.9-1-5.1-2.8-4-6.8
		c5.3-19.2,10.4-38.5,15.4-57.8c1.1-4.1,3.2-5.4,7.3-4.3c19.4,5.3,38.8,10.5,58.3,15.7c3.4,0.9,4.6,2.7,3.7,6.2
		c-5.4,19.7-10.6,39.5-15.9,59.2C215.6,353.9,214.5,355.4,211,355.1z"/>
	<path class="st8" d="M125,410.8c1.1-3.9,2.4-8.9,3.8-13.8c4-14.9,8.1-29.8,12-44.8c1.1-4.4,3.1-5.6,7.5-4.3
		c19.1,5.3,38.2,10.3,57.3,15.3c4.2,1.1,5.3,3.4,4.2,7.4c-5.2,19.1-10.4,38.1-15.4,57.3c-1.2,4.5-3.2,5.5-7.5,4.3
		c-19.1-5.2-38.2-10.3-57.3-15.4C127,416,124.5,415.3,125,410.8z"/>
	<path class="st9" d="M322.1,350.3c-7,0-14,0.1-21,0c-6.9-0.1-9.8-3.6-8.1-10.2c4.8-18.2,9.7-36.3,14.6-54.4c0.1-0.5,0.3-1,0.4-1.4
		c4.6-14.3,5.7-15.2,20.8-15c6,0.1,12-0.7,17.9,0.5c11.9,2.4,20,11.9,20.2,23.9c0.2,10.8,0.2,21.7,0,32.5
		c-0.3,13.5-10.7,23.8-24.3,24.1C335.7,350.4,328.9,350.2,322.1,350.3C322.1,350.2,322.1,350.3,322.1,350.3z"/>
	<path class="st10" d="M343.1,454.9c0,17-13.4,30.2-30.5,30.2c-17.5,0-30.7-13.4-30.7-31.1c0-16.7,13.8-30.1,30.8-30.1
		C329.9,424,343.2,437.5,343.1,454.9z"/>
	<path class="st10" d="M434.1,437.1c13.8-0.1,25.6,11.5,25.6,25.3c0.1,13.5-11.4,25.1-25.1,25.4c-13.6,0.2-25.5-11.5-25.6-25.3
		C409,449,420.7,437.2,434.1,437.1z"/>
	<path class="st11" d="M322,347.9c-7,0-14,0.1-21,0c-5.1-0.1-6.9-2.4-5.5-7.4c4.8-18.1,9.7-36.3,14.6-54.4c0.1-0.5,0.3-1,0.4-1.4
		c4.3-12.7,4.4-12.8,17.8-12.8c4.7,0,9.3,0,14,0c12.2,0.2,21.6,9.2,21.8,21.4c0.2,10.8,0.2,21.6,0,32.5
		c-0.2,12.7-9.3,21.8-22.2,22.1C335.3,348,328.6,347.9,322,347.9z"/>
	<path class="st12" d="M340.8,454.6c0.1,15.2-12.7,28.1-27.9,28.2c-15.6,0.1-28.4-12.5-28.5-28c-0.2-15.5,12.6-28.4,28.1-28.4
		C328,426.3,340.7,439,340.8,454.6z"/>
	<path class="st13" d="M411.8,462.3c0.1-12.8,10-22.6,22.9-22.5c12.4,0.1,22.3,10.1,22.3,22.6c0,12.7-10.2,22.6-22.9,22.5
		C421.6,484.9,411.8,474.8,411.8,462.3z"/>
	<path class="st14" d="M313,475c-11.5,0.1-20.8-8.9-20.9-20.2c-0.1-11.3,9.1-20.7,20.4-20.8c11.3-0.1,20.5,9.1,20.6,20.5
		C333.1,465.8,324.1,475,313,475z"/>
	<path class="st10" d="M434.4,479.2c-9.3,0-16.8-7.4-16.8-16.7c0-9.4,7.2-16.8,16.6-16.9c9.3-0.1,16.9,7.2,17,16.5
		C451.3,471.7,444,479.2,434.4,479.2z"/>
	<path class="st4" d="M312.5,436.9c10.2,0,18.1,7.7,18.2,17.9c0.1,9.4-8.2,17.7-17.9,17.9c-9.9,0.2-17.9-8-17.9-18.2
		C294.9,444.3,302.3,436.9,312.5,436.9z"/>
	<path class="st4" d="M420,462.2c0.1-7.9,6.6-14.2,14.4-14.2c7.7,0,14.3,6.6,14.4,14.3c0.1,7.8-6.9,14.8-14.7,14.5
		C426.4,476.6,419.9,470,420,462.2z"/>
</g>
</svg>
