<?xml version="1.0" encoding="utf-8"?>
<!-- Generator: Adobe Illustrator 19.0.0, SVG Export Plug-In . SVG Version: 6.00 Build 0)  -->
<svg version="1.1" id="Calque_1" xmlns="http://www.w3.org/2000/svg" xmlns:xlink="http://www.w3.org/1999/xlink" x="0px" y="0px"
	 viewBox="0 0 612 792" style="enable-background:new 0 0 612 792;" xml:space="preserve">
<style type="text/css">
	.st0{fill:#1E87E3;}
	.st1{fill:#FDFDFC;}
	.st2{fill:#FCFCFB;}
	.st3{fill:#1E87E4;}
</style>
<g>
	<path class="st0" d="M73,563.1c0-114,0-228,0-342c1.2-2.7,0.7-5.6,0.8-8.3c0.7-17.5,8.9-31.8,19.6-44.6
		c10.1-12.1,22.4-21.5,37.2-27.8c8-3.4,16.2-4,24.6-4.8c1.3-0.1,2.7,0.4,3.8-0.5c113.7,0,227.3,0,341,0c3.7,0.9,7.5,0.8,11.3,1.2
		c15.6,1.6,28.5,9.1,40.1,18.8c12.8,10.6,22.8,23.6,29.1,39.4c2.9,7.4,3.3,15.1,4,22.8c0.1,1.3-0.4,2.7,0.5,3.9
		c0,113.3,0,226.7,0,340c-1.2,2.7-0.7,5.6-0.8,8.3c-0.9,18.6-9.8,33.4-21.6,46.8c-9.9,11.2-21.7,19.9-35.6,25.8
		c-8.1,3.4-16.6,4-25.1,4.6c-1,0.1-2-0.3-2.8,0.5c-113.3,0-226.7,0-340,0c-4-0.9-8.2-0.8-12.3-1.2c-16-1.5-29-9.4-40.8-19.3
		c-12.1-10.1-21.6-22.5-27.7-37.4c-3.2-7.7-3.9-15.7-4.7-23.8C73.4,564.7,73.6,563.8,73,563.1z"/>
	<path class="st1" d="M411.1,337.1c0,12.5,0.2,25-0.1,37.5c-0.1,3.9,1,5.1,5,5.1c18.5-0.2,37-0.1,55.5-0.1c6.6,0,7.5,1,7.5,7.5
		c0,23.8,0,47.6,0,71.5c0,7.2-0.7,7.9-8.1,8c-10.8,0.1-21.7,0.1-32.5,0.4c-3.3,0.1-4.5-0.6-4.6-4.3c-0.6-16.2-12.5-28.5-28.6-30
		c-15.2-1.4-29.2,9-32.7,24.3c-0.3,1.3-0.5,2.6-0.6,3.9c-0.4,6.6-0.3,6.6-7.2,6.7c-0.7,0-1.3,0-2,0c-4,0-8.7,1.4-11.8-0.3
		c-3.2-1.7-1.2-6.9-2-10.6c-3.5-15.1-18.1-25.7-33.5-24c-16,1.7-27.8,14.7-27.8,30.7c0,7.5,0,7.2-7.6,7.7c-6.6,0.4-12.8-1.3-19-3
		c-24.4-6.7-48.8-13.3-73.2-19.9c-7-1.9-9.9-4.8-8.8-9.2c1.1-4.7,5-6,12.4-4c17.3,4.6,34.7,9.2,52,14c3.7,1,4.7,0.1,5.6-3.4
		C260,404.8,271,364,281.9,323.2c1.1-4.3,3-7.5,8-7.1c4.7,0.4,6.8,4.5,5.3,10.2c-6.9,25.9-13.8,51.7-20.8,77.6
		c-4,15.1-8.1,30.2-12.2,45.3c-0.7,2.6-1.1,4.4,2.7,5.3c3.5,0.9,4.2-0.4,5-3.2c11-41.1,22-82.2,33.1-123.3
		c5.1-18.8,18.3-29.5,36-35.6c1.2-0.4,2.6-0.3,4-0.3c20.3,0,40.7,0,61,0c5.9,0,7,1.1,7,7C411.1,311.8,411.1,324.4,411.1,337.1
		C411.1,337.1,411.1,337.1,411.1,337.1z"/>
	<path class="st1" d="M254.3,404.3c-0.2,0.9-0.4,2-0.7,3.2c-2.9,10.9-5.8,21.8-8.7,32.7c-1,3.9-2.8,6.3-7.4,5
		c-11.9-3.2-23.7-6.3-35.6-9.5c-3.3-0.9-4.7-3.1-3.8-6.4c3.2-12.2,6.5-24.4,9.8-36.6c0.9-3.5,3.5-4.3,6.6-3.5
		c12,3.2,24,6.5,36.1,9.7C253.1,399.7,254.3,401.3,254.3,404.3z"/>
	<path class="st1" d="M252.9,394.1c-0.4-0.1-1.3-0.2-2.1-0.4c-11.4-3.1-22.8-6.2-34.2-9.1c-4.7-1.2-5.8-3.7-4.6-8.1
		c3.1-11.4,6.1-22.8,9.2-34.2c1-3.8,3.1-5.5,7.3-4.4c11.7,3.3,23.4,6.3,35.2,9.4c3.8,1,5.1,3.4,4.1,7.1c-3.2,11.9-6.5,23.7-9.7,35.6
		C257.4,392.6,256.1,394.1,252.9,394.1z"/>
	<path class="st2" d="M345,463.8c-0.1,14.6-11.9,26.3-26.5,26.2c-14.5-0.1-26.4-12-26.4-26.5c0-14.6,12.2-26.6,26.9-26.5
		C333.5,437.3,345.1,449.2,345,463.8z"/>
	<path class="st1" d="M429.2,463.9c0,14.5-12,26.4-26.5,26.2c-14.5-0.2-26.3-12-26.3-26.5c0-14.4,11.9-26.4,26.3-26.4
		C417.5,437.1,429.2,448.9,429.2,463.9z"/>
	<path class="st0" d="M341.3,375.1c-5.3,0-10.7,0.1-16,0c-4.9-0.1-6.7-2.4-5.4-7c3.8-14.5,7.7-28.9,11.6-43.3c0.6-2.1,1.7-4,2.4-6
		c1.4-3.8,4-5.3,8.1-5.1c5.2,0.3,10.3-0.1,15.5,0.1c10.3,0.4,17.5,7.4,17.9,17.7c0.3,8.6,0.3,17.3-0.1,26
		c-0.5,10.5-8,17.4-18.6,17.6C351.6,375.2,346.5,375.1,341.3,375.1z"/>
	<path class="st3" d="M318.6,446.2c9.2-0.1,17.2,7.7,17.3,17.1c0.2,9.6-7.7,17.6-17.3,17.6c-9.3,0-17.2-7.8-17.3-17
		C301.2,454.3,309,446.3,318.6,446.2z"/>
	<path class="st0" d="M420.1,463.6c0,9.4-7.6,17.2-17,17.3c-9.6,0.1-17.4-7.7-17.4-17.4c0-9.3,7.7-17.2,17-17.3
		C412.3,446.1,420,453.9,420.1,463.6z"/>
</g>
</svg>
