<?xml version="1.0" encoding="utf-8"?>
<!-- Generator: Adobe Illustrator 19.0.0, SVG Export Plug-In . SVG Version: 6.00 Build 0)  -->
<svg version="1.1" id="Calque_1" xmlns="http://www.w3.org/2000/svg" xmlns:xlink="http://www.w3.org/1999/xlink" x="0px" y="0px"
	 viewBox="0 0 612 792" style="enable-background:new 0 0 612 792;" xml:space="preserve">
<style type="text/css">
	.st0{fill:#B29CD9;}
	.st1{fill:#045155;}
	.st2{fill:#414141;}
	.st3{fill:#084144;}
	.st4{fill:#F8C13C;}
	.st5{fill:#F7C03D;}
	.st6{fill:#151515;}
	.st7{fill:#141414;}
	.st8{fill:#424242;}
	.st9{fill:#161616;}
	.st10{fill:#B19CD9;}
	.st11{fill:#B19BD8;}
	.st12{fill:#AF9AD6;}
	.st13{fill:#B09BD7;}
	.st14{fill:#AD98D3;}
	.st15{fill:#A794CB;}
	.st16{fill:#AF9AD2;}
	.st17{fill:#F8F9F8;}
	.st18{fill:#FAFBFA;}
	.st19{fill:#F9F9F8;}
	.st20{fill:#F9FAF9;}
	.st21{fill:#FDFDFC;}
	.st22{fill:#FBFBFA;}
	.st23{fill:#D2D2D1;}
	.st24{fill:#F1FCFC;}
	.st25{fill:#F0FCFC;}
	.st26{fill:#161615;}
</style>
<g>
	<path class="st0" d="M274.2,144.6c23.7,0,47.3,0,71,0c7.2,1.1,14.4,0.2,21.7,0.5c23.1,0,46.3,0.2,69.3,1.9
		c25.9,1.8,51.8,4.2,77.2,9.9c12.6,2.8,24.4,7.4,34.9,15.4c11.8,9.1,17.5,21.7,21.4,35.2c5.7,19.7,8.6,40,10.4,60.4
		c2.3,25.2,2.5,50.5,2.6,75.8c0,1.3-0.4,2.7,0.5,3.9c0,24.3,0,48.7,0,73c-1.1,6.9-0.2,13.8-0.5,20.7c0,22.3-0.2,44.6-1.8,66.8
		c-2.2,29.4-4.2,58.8-12.3,87.4c-4.8,16.9-13.3,31.3-29.3,40c-8.4,4.6-17.4,7.6-26.7,9.7c-26.5,6.1-53.4,9.3-80.6,10
		c-15.5,0.4-30.9,1-46.4,0.9c-1.8,0-3.7-0.5-5.4,0.5c-24,0-48,0-72,0c-6.9-1.1-13.8-0.2-20.7-0.5c-23,0-45.9-0.2-68.8-1.9
		c-27.2-2-54.5-4.3-81.1-10.8c-8-2-15.6-4.7-22.8-8.7c-16.4-9.1-25.3-23.6-30.1-41.1c-6.4-23.2-9.7-46.9-11.3-70.9
		c-1.3-20.1-1.7-40.2-1.7-60.3c-0.3-7.2,0.6-14.5-0.5-21.7c0-19.7,0-39.3,0-59c1.1-7.2,0.2-14.4,0.5-21.7
		c0.1-22.8,0.2-45.6,1.9-68.3c1.8-25.9,4.2-51.8,9.9-77.2c2.7-12,6.9-23.2,14.2-33.3c9.3-12.8,22.4-19.1,36.9-23.2
		c23-6.5,46.6-9.7,70.4-11.2c21.7-1.4,43.5-1.7,65.3-1.7C271.6,145.1,273,145.5,274.2,144.6z"/>
	<path class="st1" d="M271.9,502.5c0-5.8,0.1-11.5,0.1-17.3c0-7.8,1.5-10.1,8.8-13c1.6-2.1,3.9-2.5,6.2-2.5
		c31.5-0.1,63.1-0.3,94.6,0.1c0.3,0,0.7,0.1,1,0.2c3.5-0.2,6.9-0.5,10.4,0.1c2.5,0,5-0.5,7.5,0c11.4-0.6,22.8-0.6,34.3-0.1
		c2.6-0.1,5.2-0.6,7.2,1.7c9.9,2.4,11.9,4.9,11.9,15.1c0,2.7,0.2,5.3,0,8c-0.5,5.1,0.1,9.1,6.7,8.7c-1.5,2-3.8,2.1-5.9,1.8
		c-7.1-1-14.2-0.8-21.3-0.7c-35.4,0.2-70.8,0.2-106.2,0.1c-16.6-0.1-33.2,0.2-49.8-0.1C275.3,504.4,273.3,504.3,271.9,502.5z"/>
	<path class="st2" d="M280.4,446.7c-24.8-46-49.6-92-74.4-138c0.5-1.4,1.8-2,3.1-2.3c8.4-2.6,12.9-8.4,14.5-16.8
		c0.2-1,0.5-1.9,1.1-2.8c2.9-1.5,4.3,1,5.7,2.6c19,21.5,38.6,42.6,57.6,64.2c9.6,10.8,19.4,21.5,29,32.2c1.1,1.2,2.4,2.3,2.6,4.1
		c-2.7,4-6.8,5.6-11.3,6.6c-3-0.6-4.7-3-6.4-5.2c-2.2-2.7-4.7-5.1-7.2-7.7c-1.3-1.4-2-4.3-4.2-3.6c-1.8,0.5-1.8,3.4-2.4,5.2
		c-1.8,6.2-3.9,12.4-5.7,18.6c-0.7,2.6,0.1,3.3,2.7,3c3.7-0.5,7.5-1.9,11.2,0.4c-0.3,5.9-4.1,9.9-7.7,13.9c-0.9,0.5-1.8,0.7-2.8,0.8
		c-2.4,0.1-2.6,1.3-1.6,3.2c0.8,1.6,1.5,3.3,1.5,5.1c-0.4,4.6-2,9-2.9,13.5C282.5,445.1,282.1,446.5,280.4,446.7z"/>
	<path class="st3" d="M271.9,502.5c57.9,0,115.8,0.1,173.7,0c5,0,9.8,1.8,14.8,0.9c2.8-0.1,5.2,0.8,7.6,2.1c5.3,2.8,9,7,9,13.3
		c0,6.1-3.6,10.2-8.7,13c-3.6,1.9-7.4,2.9-11.5,2.9c-62.6,0-125.2,0-187.7,0c-3.9,0-7.6-0.7-11.1-2.4c-7.2-3.5-10.7-10-9.1-16.5
		c1.7-6.9,9.1-12.4,16.3-12.3C267.5,503.5,269.9,504.3,271.9,502.5z"/>
	<path class="st4" d="M308.3,396c3.5-2,7-4,10.6-6.1c1-2.4,3.3-3.2,5.5-3.9c18.5-5.5,36.9-4.3,55.2,0.6c3.3,0.9,5,3.2,5.3,6.5
		c0.2,1.7,0.2,3.3,0.2,5c0,21.7,0,43.3,0,65c0,3,0.4,6.1-1.9,8.5c-18.3,0.1-36.6,0.2-54.9,0.3c-15.8,0.1-31.6,0.2-47.5,0.3
		c-0.1-8.5-0.2-17-0.3-25.4c1.4-5.8,2.8-11.5,4.2-17.3c-0.6-3.8,1-6.7,3.6-9.2c2.8-4.3,5.6-8.7,8.4-13
		C298.3,401.2,302.7,397.9,308.3,396z"/>
	<path class="st2" d="M185.1,416.5c5.8,0.2,6-3.3,6-8c-0.1-34.7,0-69.3,0.1-104c4.6-0.4,8.4,1.6,12.1,4.1
		c-0.1,25.6-0.2,51.3-0.2,76.9c0,8,0.3,16-0.1,24c-0.2,4.3,0.6,7,5.4,7c-0.8,1.2-2.1,1.7-3.4,1.8c-5.5,0.5-10.9,0.5-16.4,0
		C187.2,418.2,186,417.7,185.1,416.5z"/>
	<path class="st5" d="M442,471.6c-2.2,0-4.4,0-6.6,0c-3-3-1.8-6.9-1.9-10.4c-0.2-8.9-0.1-8.9-9.1-8.9c-3.3,0-6.7,0.2-9.9-0.1
		c-4.7-0.4-7.1,1.7-8.2,6c-0.7,2.7-1.8,5.3-2.7,8c-0.7,2.1-1.7,3.9-3.5,5.3c-2.3,0.4-4.6,0.4-6.8,0c-1.6-1.9-0.6-3.8,0-5.7
		c7.3-21.9,14.6-43.9,21.9-65.8c0.6-1.7,1.2-3.5,2.8-4.6c4.1,0.3,5.3,3.4,6.4,6.6c-0.2,4.6-2.2,8.6-3.6,12.9
		c-2.4,7.4-4.9,14.8-7.4,22.2c-1.7,5.2-1.4,5.6,4.2,5.6c3.7,0,7.3-0.1,11,0c3.7,0.1,5-1.5,4.9-5.1c-0.1-8.5,0-16.9,0-25.4
		c0-2.5-0.2-5,0.7-7.4c1.9-2.6,4.1-4.6,7.7-3.4C441.9,424.9,442,448.3,442,471.6z"/>
	<path class="st2" d="M203.2,442.6c-0.1,3-0.1,6-0.2,9c-0.2,4.2-1.8,6.9-6.6,7.1c-4.5,0.2-7.1,2.9-7.2,7.4c-0.1,4.2,2.2,6.9,6.4,7.6
		c4.4,0.7,7.6-1.7,8.7-6.2c0.2-0.6,0.2-1.3,0.3-2c0.8-3.7,3.1-5.5,6.8-5c3.7,0.5,4.8,3,4.9,6.4c0.1,7.5-5,14.8-12.5,17.7
		c-7.8,3-16.2,0.9-21.9-5.3c-5.4-6.1-6.5-15.1-2.6-22.3c1.9-3.5,4.4-6.4,8-7.9c3.1-1.3,3.9-3.2,3.4-6.2
		C195,439.7,199.1,439.8,203.2,442.6z"/>
	<path class="st6" d="M203.3,308.6c-4.5,0.1-8.2-2.2-12.1-4.1c-6.1-5.9-9.6-12.8-7.6-21.5c3.6-15.9,22.4-21.8,34.6-11
		c1,0.9,1.9,1.8,2.9,2.7c2.2,1.7,3.6,4,4.3,6.6c0.5,1.7,1.4,3.3-0.1,5c0,9.7-5.8,20.2-19.3,22.3
		C205.1,308.7,204.2,308.7,203.3,308.6z"/>
	<path class="st7" d="M203.2,442.6c-4.1,0-8.2,0.1-12.3,0.1c-8.9,0.5-10-3.4-10.7-11.2c-0.5-5.5-0.7-11.3,4.8-15
		c7.7,0,15.5,0,23.2-0.1c3.5,1,4.1,4.2,4.7,7c0.8,3.4,0.9,6.9,0.3,10.4C212.1,441,210.4,442.5,203.2,442.6z"/>
	<path class="st8" d="M224.1,281.6c-1-2.3-2-4.5-3-6.8c31.4,16.4,62.8,32.7,94.2,49.2c33.6,17.6,67.2,35.2,100.8,52.8
		c1.6,0.8,3.1,2.1,5.1,1.9c0.4,2.5-0.7,3.9-3.1,4.4c-10.6-4.7-20.7-10.6-31-16c-17.4-9.1-34.8-18.2-52.1-27.4
		C298,320.3,261,301.1,224.1,281.6z"/>
	<path class="st9" d="M418.5,382.7c0.9-1.3,1.8-2.7,2.7-4c7.3-6.6,16-6.8,22.2-0.5c6.6,6.6,6,15.1-1.5,23.4c-2.2,1-4.4,2-6.5,2.9
		c-4.8,2.6-8.6,1.7-12.1-2.8c-1.6-1.9-3.3-3.9-4.9-5.8C414.3,391.6,414.3,386.6,418.5,382.7z"/>
	<path class="st0" d="M418.5,382.7c-2,4.4-1.4,8.8-0.1,13.2c-8.4,25.3-16.8,50.5-25.2,75.8c-3.3,0-6.7,0-10,0
		c0-25.6-0.1-51.2,0.1-76.9c0-4-1-5.9-5.1-6.8c-20-4.5-39.8-5.7-59.3,2c-26.1-29-52.2-58.1-78.3-87.1c-5-5.5-10.2-10.9-15.3-16.4
		c-0.4-1.6-0.8-3.2-1.2-4.8c1.7-2.2,3,0,4.2,0.6c39.8,20.7,79.5,41.5,119.2,62.3c22.2,11.6,44.4,23.3,66.6,35
		C415.7,380.4,417.6,380.8,418.5,382.7z"/>
	<path class="st0" d="M400.1,471.6c2-6,4-11.9,5.8-18c0.7-2.4,1.9-3.1,4.3-3.1c7.1,0.1,14.3,0.2,21.4,0c3.3-0.1,3.9,1.3,3.8,4.2
		c-0.1,5.6,0,11.3,0,17C423.6,471.6,411.8,471.6,400.1,471.6z"/>
	<path class="st10" d="M308.3,396c-4.1,3.5-8.2,7.1-11.7,11.2c-5.4,0.5-10.9,1.1-17.3,1.7c3.4-11.3,6.7-22,10.2-33.3
		C296,382.7,302.2,389.3,308.3,396z"/>
	<path class="st11" d="M277.9,372.5c-2.9,9.5-5.6,18.1-8.7,28.2c-4.1-7.6-7.7-14-11.1-20.5c-1.1-2,0.9-2.1,2-2.5
		C265.7,376,271.3,374.4,277.9,372.5z"/>
	<path class="st12" d="M247.7,360.8c-3.5-6.5-6.8-12.4-10.2-18.9c5.6-1,10.5,0.6,15.5,0.8c2.2,0.1,1.2,1.9,0.8,3.1
		C251.8,350.6,249.9,355.3,247.7,360.8z"/>
	<path class="st13" d="M265.5,348.7c3.6,4,6.9,7.6,10.6,11.7c-5.9,1.8-11.2,3.3-17.5,5.2C261.1,359.6,263.2,354.4,265.5,348.7z"/>
	<path class="st14" d="M248.8,330.1c-4.1-0.2-6.9-0.5-9.8-0.5c-3.8,0.1-4.7-1.4-3.3-4.9c0.8-1.8,1.2-3.8,2.2-6.7
		C241.6,322.1,244.8,325.6,248.8,330.1z"/>
	<path class="st15" d="M224.6,318.4c-1.7-3.2-3.3-6.2-5-9.4C228,309.2,228.7,310.5,224.6,318.4z"/>
	<path class="st16" d="M288.2,420.2c-1.2,3.1-2.4,6.2-3.6,9.2c-0.2-0.4-0.4-0.9-0.6-1.3C280.1,421,280.1,421,288.2,420.2z"/>
	<path class="st17" d="M283.6,505.6c7.5,0,13.4,6,13.2,13.3c-0.2,7.4-6.1,13.1-13.6,13c-7.2-0.1-12.9-5.9-13-13.1
		C270.2,511.4,276.1,505.5,283.6,505.6z"/>
	<path class="st18" d="M317.8,505.6c7.3,0.1,13.4,6.2,13.1,13.5c-0.2,7.1-6.2,12.9-13.3,12.9c-7.4,0-13.4-6-13.4-13.3
		C304.3,511.3,310.3,505.5,317.8,505.6z"/>
	<path class="st19" d="M421.3,518.8c0,7.2-5.7,13-12.9,13.1c-7.6,0.1-13.4-5.5-13.5-13c-0.1-7.6,5.6-13.3,13.1-13.3
		C415.7,505.6,421.3,511.2,421.3,518.8z"/>
	<path class="st20" d="M442.4,505.6c7.3,0.1,12.9,5.7,12.9,13c0,7.8-5.8,13.5-13.6,13.3c-7.2-0.2-12.7-6-12.7-13.3
		C429,511.1,434.7,505.5,442.4,505.6z"/>
	<path class="st21" d="M351.2,403.5c12,0.8,12,0.8,12.1,12.4c0,13.8,0,27.6,0.1,41.5c0,2.6-0.1,4.4-3.6,4.3
		c-14.5-0.2-29-0.2-43.4-0.2c-1-2.1,0.2-3.9,1.1-5.6c9.3-16.5,18.7-32.9,28.4-49.1C347.1,404.7,348.2,402.6,351.2,403.5z"/>
	<path class="st21" d="M302.1,461.4c-1.2,0.1-1.8-0.4-1.8-1.6c0.1-10.1-0.9-20.2,2.9-30c5.8-14.8,15.8-24.3,32-26.4
		c1.1,2-0.4,3.5-1.2,5c-9,16.2-18.8,31.9-27.7,48.2C305.2,458.4,304.1,460.3,302.1,461.4z"/>
	<path class="st22" d="M339.2,402.8c2,0,4,0,6.1,0c1.5,2.3,0,4.2-1,6c-9.6,16.2-18.7,32.8-28.3,49c-0.9,1.6-2,3.1-3.8,3.7
		c-2.3,0-4.6,0-6.8,0c-0.9-1.8,0.2-3.1,1-4.6c9.5-16.7,19.3-33.2,28.7-50C336,405.1,337.2,403.5,339.2,402.8z"/>
	<path class="st23" d="M312.1,461.4c9.9-17.2,19.9-34.3,29.8-51.5c1.3-2.3,2.2-4.8,3.3-7.2c2-0.1,4.1-0.5,6,0.8
		c-1.4,0.2-2.3,1-3.1,2.2c-10.7,18.5-21.9,36.8-31.8,55.7C314.9,461.4,313.5,461.4,312.1,461.4z"/>
	<path class="st23" d="M339.2,402.8c-11.3,19.6-22.6,39.1-33.9,58.7c-1.1,0-2.1,0-3.2,0c3.9-8.5,8.8-16.4,13.5-24.4
		c6.5-11.2,13-22.4,19.6-33.6C336.4,402.2,337.8,402.7,339.2,402.8z"/>
	<path class="st0" d="M423.3,401.7c3.8,2,7.7,3.2,12.1,2.8c0,11.8-0.1,23.6,0.1,35.4c0.1,3.5-1,4.7-4.5,4.6
		c-5.8-0.2-11.7-0.3-17.5,0c-4.3,0.2-4.1-1.5-3-4.6C414.8,427.2,419,414.4,423.3,401.7z"/>
	<path class="st24" d="M204.1,300.4c-6.8,0.1-12.8-5.8-12.9-12.6c-0.1-7,5.9-13.1,13-13c6.8,0.1,12.7,6.1,12.7,12.9
		C216.8,294.5,211,300.4,204.1,300.4z"/>
	<path class="st25" d="M442.9,388.9c0.1,5.6-4.9,10.6-10.5,10.5c-5.5-0.1-10.1-4.7-10.2-10.3c-0.1-5.5,4.4-10.3,9.9-10.5
		C437.8,378.5,442.8,383.2,442.9,388.9z"/>
	<path class="st26" d="M292.6,519c-0.1,5.2-4.2,8.9-9.5,8.7c-4.9-0.2-8.8-4.3-8.7-9.1c0.1-5,4.4-9.1,9.3-9
		C288.7,509.7,292.7,513.9,292.6,519z"/>
	<path class="st9" d="M317.4,509.6c5.1-0.1,9.2,4,9.2,9.1c0,5-3.7,8.9-8.7,9.1c-5.2,0.2-9.4-3.7-9.6-8.7
		C308.2,514.1,312.4,509.7,317.4,509.6z"/>
	<path class="st6" d="M408.3,509.6c5,0.1,9.1,4.4,8.9,9.4c-0.1,5-4.4,8.9-9.5,8.8c-4.9-0.2-8.6-4.1-8.6-9.1
		C399.1,513.6,403.2,509.5,408.3,509.6z"/>
	<path class="st6" d="M441.9,509.6c5-0.1,9.2,3.9,9.3,9c0.1,5-3.6,8.9-8.6,9.1c-5.3,0.2-9.3-3.5-9.5-8.7
		C433,513.9,436.9,509.7,441.9,509.6z"/>
</g>
</svg>
