<?xml version="1.0" encoding="utf-8"?>
<!-- Generator: Adobe Illustrator 19.0.0, SVG Export Plug-In . SVG Version: 6.00 Build 0)  -->
<svg version="1.1" id="Calque_1" xmlns="http://www.w3.org/2000/svg" xmlns:xlink="http://www.w3.org/1999/xlink" x="0px" y="0px"
	 viewBox="0 0 612 792" style="enable-background:new 0 0 612 792;" xml:space="preserve">
<style type="text/css">
	.st0{fill:#023668;}
	.st1{fill:#FDFDFD;}
	.st2{fill:#6A9799;}
	.st3{fill:#6C8E90;}
	.st4{fill:#F0C869;}
	.st5{fill:#8E8E8E;}
	.st6{fill:#737373;}
	.st7{fill:#E2BF6A;}
	.st8{fill:#86898B;}
	.st9{fill:#DEBD6A;}
	.st10{fill:#717273;}
	.st11{fill:#FCFCFC;}
	.st12{fill:#FAFBFB;}
	.st13{fill:#F6F7F7;}
	.st14{fill:#F6F7F8;}
	.st15{fill:#F2F5F7;}
	.st16{fill:#ECF0F3;}
	.st17{fill:#033768;}
	.st18{fill:#043768;}
	.st19{fill:#073A69;}
	.st20{fill:#083A6A;}
	.st21{fill:#063969;}
	.st22{fill:#EDEDED;}
	.st23{fill:#ECEDED;}
	.st24{fill:#E1F0FB;}
	.st25{fill:#F6FDFD;}
	.st26{fill:#F5FCFC;}
</style>
<g>
	<path class="st0" d="M148.8,250.6c-1.2,2.2-0.7,4.2-0.7,6.1c0,41.5,0,83-0.1,124.5c0,3.8,0.7,5.5,4.8,5c3.1-0.4,5,1.8,6.1,4.3
		c4.3,9.1,4.3,18.3-0.1,27.4c-1.4,2.9-3.8,4.8-7.2,4.3c-3.4-0.5-3.9,1.2-3.7,4c0.2,2.2,0.1,4.3,0.1,6.5c-0.1,6.7-2.7,9.5-9.5,10.2
		c-4.7,0.5-7.8,3.5-7.9,8c-0.1,4.6,2.1,7.6,6.6,8.8c4.1,1.1,8.4-1.2,10-5.3c0.4-0.9,0.5-1.9,0.7-2.9c0.9-6.1,4.7-9.6,9.7-9.1
		c5.1,0.6,8.6,5.5,8,11.4c-1.2,12-11.2,22.3-22.9,23.6c-13,1.4-24.6-5.7-28.6-17.6c-4-11.8,0.8-24.8,11.6-31.2
		c1-0.6,2.1-1.1,3.1-1.6c1.5-0.7,1.5-2,1.4-3.4c-0.1-1.8-1.6-1.4-2.6-1.3c-5.1,0.5-7.7-2.5-9.2-6.8c-2.7-8-2.8-16,0.5-23.9
		c1.3-3,3.2-5.8,6.9-5.4c4.1,0.5,4.5-1.5,4.5-4.9c-0.1-35.5-0.1-71-0.1-106.5c0-5.7-0.1-11.3,0-17c0.2-7.4-0.4-14-5.5-20.7
		c-8.4-10.9-5.1-26.8,5.6-35.9c10.4-8.8,25.9-8.9,36.2,0.1c2.8,2.4,5.7,4.5,9,6.2c81.7,42.8,163.4,85.6,245.1,128.5
		c3,1.6,5.1,2,8.2-0.5c8.5-6.5,20.4-4.9,27.5,3c7.1,7.9,7.3,19.7,0.1,27.7c-1.8,2-2.5,4-2.5,6.6c0.1,26.7,0.1,53.3-0.1,80
		c0,3.5,1,4.7,4.4,5.5c6.9,1.7,10.8,7.2,10.9,14.3c0.1,6.5,0.3,13-0.1,19.5c-0.3,4.4,1.3,5.4,5.3,5.1c5.6-0.5,10.9,0.4,15.7,3.8
		c7.4,5.4,10.8,14.8,8.3,23.4c-2.9,9.6-10.9,15.6-21.3,15.7c-25,0.1-50,0.1-75,0.1c-58.2,0-116.3,0-174.5,0
		c-11.7,0-20.1-6.1-22.7-16.4c-3.3-13.1,6.3-26,19.8-26.5c9.4-0.4,9.4-0.4,9.4-9.7c0-4.7,0.1-9.3,0-14c-0.2-6.4,2.5-11.1,8-13.8
		c2.6-1.3,3.2-2.7,3.2-5.3c-0.1-8-0.1-16,0-24c0-2.2-0.5-4.2-1.6-6.2c-30.6-56.6-61.2-113.2-91.8-169.8
		C151.2,253,150.7,251.4,148.8,250.6z"/>
	<path class="st1" d="M176.3,215.4c22.3,11.7,44.5,23.3,66.8,34.9c57.7,30.2,115.4,60.5,173.2,90.6c3.7,1.9,6,3.5,4,8.1
		c-0.7,1.6-0.7,3.8-0.2,5.4c2.3,6.2-0.2,11.7-2.1,17.4c-9.1,27.1-18.1,54.2-27.1,81.3c-1.2,3.5-8.2,6.2-11.2,4.1
		c-1.7-1.1-0.8-3.1-0.8-4.7c-0.1-32,0-64,0-96c0-2.3,0.5-4.6-2.8-5.5c-24.7-6.4-49.5-9.4-74.2-0.8c-4.9,1.7-7.4,1-10.8-2.8
		c-37.2-41.8-74.7-83.4-112.1-125C177.2,220.5,175.2,218.7,176.3,215.4z"/>
	<path class="st2" d="M351.9,497.1c-36.5,0-73-0.1-109.5,0.1c-5.3,0-6.6-1.6-6.3-6.5c0.4-5.3,0.1-10.7,0.1-16
		c0.1-9.9,4.8-14.7,14.8-14.7c67.1,0,134.3,0,201.4,0c9.8,0,14.5,4.7,14.5,14.4c0,5.8-0.2,11.7,0.1,17.5c0.2,4.1-1.1,5.3-5.2,5.3
		C425.2,497.1,388.5,497.1,351.9,497.1z"/>
	<path class="st3" d="M351.5,537.3c-42,0-84,0-125.9,0c-9.5,0-17.4-6.6-18.6-15.4c-1.4-10.9,4.1-19.7,14.1-22.1
		c1.7-0.4,3.6-0.5,5.4-0.5c83.5,0,166.9,0,250.4,0c9.6,0,16.7,5.2,19.2,13.7c2.3,8.3-1,17.2-8.1,21.8c-3.4,2.2-7.1,2.6-11,2.6
		C435.1,537.3,393.3,537.3,351.5,537.3z"/>
	<path class="st4" d="M312,457.3c-19.8,0-39.6-0.1-59.4,0.1c-4,0-4.9-1.1-4.9-5c0.1-16.1-0.4-32.1,5.2-47.8
		c15-42.4,48.6-59.4,88.7-57c10.5,0.6,20.8,2.5,31,4.9c3,0.7,3.9,2,3.9,5.1c-0.1,31.8-0.1,63.6,0,95.4c0,3.5-1,4.4-4.5,4.4
		C351.9,457.3,332,457.3,312,457.3z"/>
	<path class="st5" d="M245.6,422.6c-5.4-9.9-10.4-19-15.3-28.2c-25-46.2-49.9-92.5-75-138.7c-2-3.8-2.7-5.6,2.6-6.9
		c7.2-1.7,7.2-2.3,10.6,4.1c26.7,49.3,53.3,98.6,79.9,147.9c1.4,2.5,1.7,4.7,0.8,7.5C247.8,412.7,246.9,417.2,245.6,422.6z"/>
	<path class="st5" d="M176.3,223.2c10.3,11.4,19.5,21.6,28.8,31.9c16.7,18.6,33.4,37.2,50,55.8c11.9,13.3,23.8,26.5,35.8,39.7
		c1.9,2.1,2.2,3-0.6,4.6c-8.7,4.8-8.5,4.9-15.3-2.7c-23-25.7-46-51.3-69-77c-10.6-11.8-21.1-23.6-31.7-35.3c-1.6-1.7-2.1-3-0.8-5.1
		C175.3,231.9,176.2,228.4,176.3,223.2z"/>
	<path class="st5" d="M132.9,246.7c4.1,1.1,7.3,3.3,11.2,3.6c1.9,0.1,1.8,1.7,1.8,3c0,2.8,0,5.7,0,8.5c0,39.6-0.1,79.3,0.1,118.9
		c0,5.1-1.9,5.8-6.1,5.5c-3.7-0.3-7.3,1.1-7.2-5.4c0.3-43.1,0.2-86.3,0.2-129.4C132.9,249.9,132.9,248.5,132.9,246.7z"/>
	<path class="st5" d="M146,429.2c-0.1,9-0.1,9-9.3,11.2c-5.3,1.2-9.2,6.7-8.5,11.9c0.6,5.4,5.4,9.7,10.9,9.8
		c5.6,0.1,10.4-3.8,11-9.4c0.4-3.5,1.1-6.7,5.1-7.6c4.7-1.1,7.9,1.8,8,6.9c0.1,11-8.9,21.2-20.4,23c-11.4,1.8-23.4-5.9-26.6-17.2
		c-3.3-11.6,2.2-23.4,13.3-28.6c1.8-0.9,3.8-1.3,3.5-4c-0.2-1.5-0.1-3.3,2.2-3c3.5,0.4,7.5-1.6,10.4,1.2
		C146.6,424.4,145.9,427.2,146,429.2z"/>
	<path class="st6" d="M139.3,420c-3.7,0-7.3-0.1-11,0c-3.9,0.2-6.2-1.7-7.5-5.2c-2.6-7.5-2.7-14.9,0.3-22.3c1.2-2.9,3.1-4.4,6.5-4.3
		c7.8,0.2,15.6,0.2,23.4,0c2.9-0.1,4.8,1,5.9,3.5c3.8,8.3,3.7,16.7-0.1,24.9c-1.1,2.4-3.2,3.6-6.1,3.5
		C146.9,419.9,143.1,420,139.3,420z"/>
	<path class="st1" d="M443.4,397.7c0,6.8-0.1,13.6,0,20.5c0,2.6-0.4,4-3.5,3.9c-8.1-0.2-16.3-0.1-24.4,0c-2.3,0-3-0.7-2.3-2.9
		c5.2-15.6,10.5-31.1,15.7-46.7c0.6-1.8,1.2-2,2.8-1.3c1.6,0.8,3.5,1.9,5.1,1.7c7.1-0.9,6.9,3.5,6.6,8.4
		C443.2,386.7,443.4,392.2,443.4,397.7C443.4,397.7,443.4,397.7,443.4,397.7z"/>
	<path class="st6" d="M123,222.5c0-14.6,10.9-25.4,25.6-25.3c14.5,0,25.5,11.1,25.5,25.6c0,14.1-11.5,25.5-25.7,25.5
		C133.9,248.2,122.9,237,123,222.5z"/>
	<path class="st1" d="M400.6,457.3c2.7-8.1,5.1-15.3,7.5-22.6c0.6-2,1.8-2.4,3.7-2.4c9.5,0.1,19,0.1,28.5,0c2.3,0,3.3,0.7,3.2,3.1
		c-0.1,6.3-0.1,12.7,0,19c0,2-0.5,3-2.8,3c-4.3-0.1-8.7,0-13,0C418.9,457.3,410.1,457.3,400.6,457.3z"/>
	<path class="st1" d="M280,361.5c-4.8,3.8-8.9,7.6-12.5,12c-1.3,1.6-2.8,2.3-4.7,2.5c-5.8,0.7-11.5,1.3-18.2,2.1
		c4.3-14,8.4-27.6,12.8-41.8C265.2,344.9,272.6,353.2,280,361.5z"/>
	<path class="st7" d="M423.3,364.5c3.7,2.3,4.2,5,2.8,9.2c-8.9,26.1-17.5,52.3-26.2,78.5c-0.4,1.3-0.8,2.6-1.4,3.7
		c-1.3,2.4-3.6,1.5-5.3,1.1c-1.8-0.4-0.4-2-0.1-2.9c9.8-29.5,19.6-59,29.5-88.5C422.7,365.3,423,365,423.3,364.5z"/>
	<path class="st8" d="M174.1,209.4c83.2,43.6,166.3,87.1,249.5,130.7c-0.3,0.6-0.6,1.1-0.9,1.7c-83.2-43.6-166.4-87.2-249.6-130.7
		C173.5,210.5,173.8,209.9,174.1,209.4z"/>
	<path class="st9" d="M451.8,370.7c0,28.2,0,55.8,0,83.4c0,2.3-0.6,3.2-3.1,3.3c-2.8,0-2.8-1.5-2.8-3.5c0-26,0.1-51.9-0.1-77.9
		C445.8,371.9,448.5,371.9,451.8,370.7z"/>
	<path class="st10" d="M459.1,352.5c0,10.4-8,18.6-18.1,18.6c-10,0-18.8-8.7-18.9-18.7c-0.1-10.1,8.1-18.2,18.5-18.2
		C451.6,334.1,459.1,341.6,459.1,352.5z"/>
	<path class="st11" d="M243,331.2c-3.6,11.8-7,22.7-10.7,34.7c-4.9-9.1-9.5-17.5-14-25.9c-1-1.9,1-1.7,1.9-1.9
		C227.5,335.8,234.8,333.6,243,331.2z"/>
	<path class="st12" d="M192.1,291.4c7.5,0.7,14.1,1.2,21.4,1.9c-2.9,7.2-5.6,14-8.7,21.6C200.4,306.8,196.4,299.5,192.1,291.4z"/>
	<path class="st9" d="M427.4,424.2c4.3,0,8.6,0.1,13,0c2,0,3.1,0.4,3.1,2.7c0,2.2-0.6,3.3-3.1,3.3c-8.8-0.1-17.6,0-26.4-0.1
		c-1.3,0-3.8,1.3-3.6-1.6c0.2-2.2,0.7-4.6,4.1-4.3C418.8,424.5,423.1,424.2,427.4,424.2z"/>
	<path class="st13" d="M239.4,316.3c-7,2.1-13.5,4-21.1,6.3c2.9-7.2,5.4-13.6,8.2-20.6C230.9,306.8,235,311.3,239.4,316.3z"/>
	<path class="st14" d="M191.7,263.2c4,4.5,7.9,8.8,12.5,14c-2.7-0.2-4.2-0.4-5.8-0.5C186,275.2,186,275.2,191.7,263.2z"/>
	<path class="st15" d="M169.8,250.1c9.6,0.7,10,1.7,5.7,10.6C173.6,257.2,171.7,253.8,169.8,250.1z"/>
	<path class="st16" d="M251.5,401.4c-1.6-2.8-2.8-5.1-4.3-7.9c2.7-0.5,5-0.9,8.1-1.4C253.9,395.4,252.8,398.1,251.5,401.4z"/>
	<path class="st17" d="M441.7,533.3c-8.7-0.1-14.9-6.5-14.8-15.4c0.1-8.2,7-14.9,15.1-14.7c8.3,0.2,15.2,7.4,15,15.6
		C456.8,527.1,450.1,533.4,441.7,533.3z"/>
	<path class="st18" d="M300.2,533.3c-8.4,0-15.1-6.4-15.2-14.6c-0.1-8.2,6.9-15.4,15.1-15.5c8.4-0.1,15,6.6,14.9,15.3
		C315,527,308.7,533.3,300.2,533.3z"/>
	<path class="st17" d="M261.4,533.3c-8.4,0-15.2-6.7-15.2-14.8c0-8.3,7.1-15.3,15.3-15.3c8.2,0,15.3,7.3,15.2,15.5
		C276.6,526.5,269.5,533.3,261.4,533.3z"/>
	<path class="st17" d="M403.1,533.3c-8.6,0-15.2-6.6-15.1-15.2c0.1-7.9,7.1-14.8,15.2-14.9c8.4-0.1,14.9,6.7,14.9,15.4
		C418.1,527.1,411.7,533.3,403.1,533.3z"/>
	<path class="st19" d="M311.5,446.4c-12.3,0-24.6-0.1-37,0.1c-3.3,0-4.3-0.9-4.3-4.2c0.4-12.6-0.9-25.2,3.6-37.5
		c8.7-23.9,28.3-37.4,53.8-36.2c7.7,0.4,15.2,1.5,22.7,3.4c2.6,0.6,3.5,1.9,3.5,4.5c-0.1,22.1-0.1,44.3,0,66.4
		c0,3.5-1.7,3.6-4.3,3.6C336.8,446.4,324.1,446.4,311.5,446.4C311.5,446.4,311.5,446.4,311.5,446.4z"/>
	<path class="st20" d="M148.1,205.2c9.9,0,17.8,7.4,17.9,16.9c0.2,9.8-7.8,18.1-17.4,18.1c-9.5,0.1-17.5-7.9-17.6-17.4
		C130.9,213,138.4,205.2,148.1,205.2z"/>
	<path class="st21" d="M440.7,338.2c8.5,0,14.4,5.9,14.4,14.4c0,7.9-6.5,14.5-14.1,14.4c-7.7,0-14.7-7-14.7-14.7
		C426.2,344.7,432.8,338.2,440.7,338.2z"/>
	<path class="st22" d="M441.8,508.1c5.9,0,10.4,4.5,10.4,10.4c0,5.6-4.5,10.2-10.2,10.2c-5.7,0.1-10.5-4.8-10.4-10.5
		C431.6,512.6,436.1,508.2,441.8,508.1z"/>
	<path class="st22" d="M289.9,518.7c-0.1-6,4.3-10.5,10.2-10.6c5.7,0,10.2,4.4,10.4,10c0.2,5.8-4.6,10.6-10.3,10.7
		C294.7,528.8,290,524.3,289.9,518.7z"/>
	<path class="st23" d="M251.1,517.9c0.3-5.7,5.3-10,11.1-9.7c5.4,0.3,9.9,5.2,9.7,10.6c-0.2,5.7-5.2,10.3-10.9,10
		C255.3,528.5,250.7,523.5,251.1,517.9z"/>
	<path class="st22" d="M392.9,518.5c0-5.9,4.5-10.5,10.4-10.4c5.7,0.1,10.1,4.5,10.1,10.2c0,5.8-4.7,10.6-10.4,10.5
		C397.4,528.7,392.9,524.1,392.9,518.5z"/>
	<path class="st24" d="M311.9,444.1c-11.7,0-23.3-0.1-35,0.1c-3.3,0.1-4.2-1-4.1-4.2c0.4-12.2-0.9-24.5,4-36.4
		c8.4-20.6,24.6-32.2,46.9-32.5c8.2-0.1,16.2,0.9,24.2,2.8c2.4,0.6,3.3,1.4,3.3,3.9c-0.1,21-0.1,42,0,63c0,3-1.2,3.5-3.8,3.5
		C335.6,444.1,323.7,444.2,311.9,444.1C311.9,444.1,311.9,444.1,311.9,444.1z"/>
	<path class="st25" d="M163.6,222.9c-0.1,8.4-7.2,15.1-15.6,14.8c-8.3-0.3-14.8-7-14.8-15.1c0-8.3,7.1-15.3,15.4-15.2
		C156.9,207.5,163.7,214.5,163.6,222.9z"/>
	<path class="st26" d="M440.8,364.3c-6.8,0-12-5.3-11.9-12.1c0.1-6.7,5.6-12,12.2-11.9c6.4,0.2,11.7,5.5,11.7,11.9
		C453,358.9,447.5,364.4,440.8,364.3z"/>
</g>
</svg>
