<?xml version="1.0" encoding="utf-8"?>
<!-- Generator: Adobe Illustrator 19.0.0, SVG Export Plug-In . SVG Version: 6.00 Build 0)  -->
<svg version="1.1" id="Calque_1" xmlns="http://www.w3.org/2000/svg" xmlns:xlink="http://www.w3.org/1999/xlink" x="0px" y="0px"
	 viewBox="0 0 612 792" style="enable-background:new 0 0 612 792;" xml:space="preserve">
<style type="text/css">
	.st0{fill:#FDCB7F;}
	.st1{fill:#8FC8F7;}
	.st2{fill:#7FC9C3;}
	.st3{fill:#7FC9C2;}
	.st4{fill:#ED9999;}
	.st5{fill:#7FC8C1;}
	.st6{fill:#80C3BC;}
	.st7{fill:#010101;}
	.st8{fill:#B9B9B9;}
</style>
<g>
	<path d="M225.2,539.6c-32.2,0-64.3,0-96.5,0c-13.8,0-21.6-7.8-21.7-21.6c0-14,0-28,0-42c0-12.2,8.2-20.3,20.3-20.4
		c5.3,0,10.7-0.3,16,0.1c3.8,0.2,5-0.7,5-4.8c-0.2-38,0-76-0.2-114c0-4.5,1.4-6.5,5.7-7.5c30.7-7.3,61.2-9.1,91.1,3.3
		c2.9,1.2,3.8-0.1,5.3-1.7c23.5-26.2,47-52.3,70.5-78.5c24.1-26.8,48.1-53.5,72.1-80.3c2.4-2.7,4.7-5.6,7.1-8.4
		c8.1-9.4,21.2-11,31-3.9c9.9,7.3,12.2,20.7,5.2,31.1c-1.4,2-2,4-2,6.4c0.1,64.5,0.1,129-0.1,193.5c0,4.5,1.1,6,5.5,5.4
		c1.9-0.3,4-0.1,6,0.1c3.1,0.3,4.7,2.5,4.9,5.4c0.2,3-1.2,5.2-4.2,6c-1.4,0.4-3,0.3-4.4,0.5c-2.5,0.4-6.4-1.4-7.3,1.1
		c-1.2,3-0.5,6.9-0.2,10.4c0.1,1.8,2.3,1.6,3.6,2.2c11.4,4.8,18.4,16.2,16.9,27.8c-1.6,12.5-11,21.9-23.6,23.6
		c-14.6,2-28.8-9.9-29.4-24.7c-0.2-4.8,1.8-7.9,5.6-7.8c4.2,0.1,5.9,2.8,6.4,6.8c1.1,9.9,9.4,15.8,18.3,13.2c7-2,11.5-8.5,10.9-15.4
		c-0.7-7.3-6.4-12.7-14-13c-4.6-0.2-6.7-2.6-6.8-6.9c-0.1-4.7-0.2-9.3,0-14c0.1-2.6-0.6-3.6-3.3-3.4c-2.3,0.2-4.7,0.2-7,0
		c-3.6-0.3-6-2.3-5.9-6.1c0.1-3.8,2.4-5.6,6.1-5.8c3.1-0.1,7.4,0.9,9.1-0.7c2.4-2.2,0.8-6.6,0.8-10c0.1-60,0.1-120-0.1-180
		c0-1.6,1.8-4.4-1.4-4.8c-2.4-0.3-4.5,0.3-6,3.1c-19.2,35.9-38.5,71.7-57.8,107.5c-17.6,32.6-35.2,65.2-53,97.7
		c-1.4,2.6-1.9,5.1-1.8,8c0.3,11.5,0.4,23,0.3,34.5c0,3,0.7,4.1,3.9,4c5.8-0.3,11.7-0.1,17.5-0.1c11.4,0.1,19.8,7.9,20,19.2
		c0.3,15.2,0.3,30.3,0,45.5c-0.2,11.6-8.7,19.3-20.4,19.3C290.5,539.7,257.9,539.6,225.2,539.6z"/>
	<path class="st0" d="M225.3,527.6c-32.5,0-65,0-97.5,0c-6.2,0-8.8-2.5-8.8-8.6c0-14.3,0-28.7,0-43c0-5.9,2.6-8.5,8.5-8.5
		c65.3,0,130.6,0,195.9,0c5.7,0,8.5,2.8,8.5,8.6c0.1,14.3,0.1,28.7,0,43c0,5.7-3,8.5-8.7,8.5C290.6,527.6,258,527.6,225.3,527.6z"/>
	<path class="st1" d="M225.3,449.6c-20.3,0-40.6-0.1-61,0.1c-3.2,0-4.2-0.7-4.2-4.1c0.1-33.8,0.1-67.6,0-101.4
		c0-2.2,0.1-3.8,2.8-4.4c22.7-4.7,45.6-7.2,68.1,0.4c34.1,11.4,51.4,37.1,57.9,71.2c2.1,11.1,1.8,22.5,1.8,33.9
		c0,3.4-0.9,4.5-4.4,4.4C265.9,449.5,245.6,449.6,225.3,449.6z"/>
	<path class="st2" d="M290.4,304c6.4,20.7,12.4,40.3,18.7,60.8c-7.7-0.9-15-2-22.3-2.5c-4.9-0.3-8-2.4-11-6.2
		c-4.4-5.6-9.8-10.5-15.7-14.5c-1.6-1.1-1.9-1.7-0.5-3.3C269.7,327.1,279.7,315.9,290.4,304z"/>
	<path class="st3" d="M342.3,313.2c-7.7,14.4-15.3,28.4-23.5,43.6c-2.2-6.9-4-12.8-5.8-18.6c-3.4-11.2-6.8-22.4-10.4-33.6
		c-0.9-2.8-0.6-3.4,2.3-2.5C317.2,305.7,329.5,309.4,342.3,313.2z"/>
	<path class="st3" d="M373.5,255.5c-7.4,13.7-14.5,26.8-21.9,40.6c-5-12.2-9.6-23.7-14.3-35.2c-0.8-1.9,0.3-2.3,1.8-2.4
		c4.8-0.5,9.6-1.1,14.3-1.5C359.8,256.4,366.2,256,373.5,255.5z"/>
	<path class="st3" d="M326.2,264.2c5,12.4,9.7,24.1,14.7,36.5c-12.1-3.6-23.3-6.9-34.5-10.1c-2.9-0.8-2.4-1.9-0.8-3.6
		C312.3,279.6,318.9,272.2,326.2,264.2z"/>
	<path class="st3" d="M368,217.7c2.8,9,5.4,17.3,8,25.9c-11.1,1-21.9,1.9-33.9,3C351,236.6,359.2,227.5,368,217.7z"/>
	<path class="st4" d="M417.6,167.6c6.2,0,10.6,4.4,10.7,10.6c0.1,6.1-4.9,11.2-10.8,11.2c-5.9,0-10.9-5.3-10.8-11.3
		C406.8,172.4,411.8,167.6,417.6,167.6z"/>
	<path class="st3" d="M401,204.5c-5.5,10.1-10.4,19.2-15.8,29.3c-2.5-7.8-4.8-14.8-6.9-21.8c-0.6-1.9,0.8-2,2.2-2.4
		C387,208,393.5,206.4,401,204.5z"/>
	<path class="st5" d="M297.5,396.1c-2.7-7.8-5.6-14.6-9-22c6.9,0.8,13,1.5,19.7,2.3C304.5,383.2,301.2,389.3,297.5,396.1z"/>
	<path class="st6" d="M396.1,186.4c4,6.6,4,6.7-3.2,8.2c-1.4,0.3-2.7,1.5-4.7,0.6C390.8,192.2,393.4,189.4,396.1,186.4z"/>
	<path class="st7" d="M150.9,506.6c-4.3,0-8.6,0.1-13,0c-4-0.1-6.9-1.8-6.9-6.1c0-4,2.9-5.8,6.6-5.8c8.8-0.1,17.6-0.1,26.4,0
		c3.8,0,6.7,2,6.7,5.9c0,4.1-2.9,6.1-6.9,6.1C159.6,506.7,155.3,506.6,150.9,506.6z"/>
	<path class="st7" d="M250.3,494.7c4.3,0,8.6-0.1,12.9,0c3.7,0.1,6.6,1.7,6.7,5.8c0.1,4.4-2.8,6.1-6.7,6.2c-8.6,0.1-17.3,0-25.9,0
		c-4.1,0-7-2-7-6c0-4.1,3.1-6,7.1-6C241.7,494.7,246,494.7,250.3,494.7z"/>
	<path class="st7" d="M299.5,506.6c-4.3,0-8.7,0.1-13,0c-3.7-0.1-6.5-1.7-6.5-5.9c0-4.2,2.8-5.9,6.5-6c8.8-0.2,17.7-0.1,26.5,0
		c3.8,0,6.6,2,6.6,5.9c0,3.8-2.7,5.9-6.6,6C308.5,506.7,304,506.6,299.5,506.6z"/>
	<path class="st7" d="M200.7,494.7c4.3,0,8.6-0.1,13,0c3.7,0.1,6.6,1.6,6.6,5.8c0,4.5-2.8,6.1-6.8,6.1c-8.5,0.1-16.9,0.1-25.4,0
		c-3.9,0-6.9-1.4-7.1-5.9c-0.2-3.9,2.3-6,7.3-6.1C192.4,494.6,196.5,494.7,200.7,494.7z"/>
	<path class="st7" d="M224.5,438.6c-12.5,0-25,0-37.5,0c-6.2,0-8-1.7-8.1-7.9c-0.6-21.8-1-43.6-1.8-65.4c-0.2-5.2,1.6-8.1,6.8-9.3
		c13.6-3.1,27.2-5,41.1-2c24.4,5.3,41.6,24.9,45.1,51.2c1.2,9,0.5,18,0.5,26.9c0,4.7-3,6.6-7.6,6.5
		C250.1,438.6,237.3,438.6,224.5,438.6z"/>
	<path class="st8" d="M224.5,426.6c-9.8,0-19.7-0.1-29.5,0c-2.9,0-4.4-0.4-4.4-3.9c-0.3-17.3-0.8-34.6-1.3-51.9
		c-0.1-2.9,0.8-4,3.7-4.5c8.6-1.6,17.2-2.6,25.8-1.2c23.3,3.7,39.5,22.7,39.9,46.6c0.1,4.8,2,11-0.8,14c-2.9,3-9.1,0.8-13.9,0.9
		C237.5,426.8,231,426.6,224.5,426.6z"/>
</g>
</svg>
