<?xml version="1.0" encoding="utf-8"?>
<!-- Generator: Adobe Illustrator 19.0.0, SVG Export Plug-In . SVG Version: 6.00 Build 0)  -->
<svg version="1.1" id="Calque_1" xmlns="http://www.w3.org/2000/svg" xmlns:xlink="http://www.w3.org/1999/xlink" x="0px" y="0px"
	 viewBox="0 0 612 792" style="enable-background:new 0 0 612 792;" xml:space="preserve">
<style type="text/css">
	.st0{fill:#9EA7D8;}
	.st1{fill:#B9B9B9;}
	.st2{fill:#FDFDFD;}
	.st3{fill:#F7ED99;}
	.st4{fill:#F8EE9A;}
	.st5{fill:#FAF09B;}
	.st6{fill:#FBF19B;}
	.st7{fill:#FBF29C;}
	.st8{fill:#F6ED9A;}
</style>
<g>
	<path d="M331.8,360.6c48.5,0,97,0,145.5,0c1.5,0,3-0.1,4.5,0.2c3,0.6,4.6,2.6,4.6,5.7c0,3-1.5,5.1-4.5,5.7
		c-1.8,0.4-3.6,0.3-5.5,0.3c-44.3,0-88.7,0.1-133-0.1c-5.2,0-6.5,1.5-6.1,6.3c0.4,5.3,0.2,10.7,0,16c-0.1,2.7,0.8,3.4,3.4,3.3
		c5.5-0.2,11-0.1,16.5,0c5.3,0.1,7.2,1.9,7.5,7.1c0.2,3.6-1.6,8.3,0.8,10.6c2.5,2.4,7.3,0.8,11.1,0.8c25.7,0.1,51.3,0,77,0.1
		c3,0,5-0.7,7.1-3.3c10.5-12.8,24.3-17.3,40.1-13.1c15.7,4.1,25,15.2,28.1,31c3.1,15.6-5.4,32.4-19.9,40.2
		c-14.6,7.9-32.9,5.6-44.7-6c-2.9-2.9-5.6-4-9.6-3.5c-15.9,1.9-31.6,4.7-46.4,11.1c-17.8,7.6-31.2,20-40.2,37.2
		c-5.9,11.2-10.2,23.1-15.1,34.7c-9.2,21.9-23.3,39-46.1,47.7c-1.1,0.4-2.2,1.3-3.3,1.2c-6.7-0.9-6.3,3.3-6.1,7.9
		c0.2,4.7,0.2,9.3,0,14c-0.2,3.2,1,3.9,4,3.9c9.7-0.2,19.3-0.1,29,0c3.8,0,6.6,1.7,6.6,5.8c0,4.4-2.8,6-6.9,6.1c-0.7,0-1.3,0-2,0
		c-26.3,0-52.7,0-79,0c-25.8,0-51.7,0-77.5,0c-0.8,0-1.7,0-2.5,0c-3.7-0.1-6.1-1.8-6.3-5.6c-0.2-4.1,2.3-6.2,6.2-6.2
		c9.5-0.1,19-0.3,28.5,0c4.1,0.1,5-1.2,4.8-5c-0.3-5.6-0.3-11.3,0-17c0.1-2.9-0.9-3.7-3.7-3.5c-3.7,0.2-7.4-0.3-11,0.2
		c-6.6,0.9-11.4-1.9-16.1-6c-26-23-33.7-57.2-20.2-91.5c18.5-47.1,66.4-79.8,117.4-80.1c8.2,0,16.3-0.2,24.5,0.1
		c3.5,0.1,5-0.5,4.8-4.5c-0.7-14.5,0.4-14.3,14.3-14.1c4.1,0,9.7,1.8,11.9-0.8c2.1-2.5,0.8-7.9,0.7-12c-0.1-4.1,1.8-9.6-0.9-12
		c-2.3-2-7.6-0.6-11.6-0.6c-41.8,0-83.7,0-125.5,0c-0.7,0-1.3,0-2,0c-6-0.1-9.1-2.2-9-6.2c0.1-3.9,3-5.8,8.8-5.8
		C234.2,360.6,283,360.6,331.8,360.6z"/>
	<path class="st0" d="M209.9,446.9c9.2-7.5,19.8-11.9,30.9-14.9c10.5-2.8,21.1-4,32-4c58.5,0,117,0.1,175.4-0.1
		c4.8,0,5.8,1.5,4.6,5.6c-1.2,4.2-0.4,8.5,0.8,12.3c1.7,5.3-1.7,4.7-4.5,5c-13.4,1.3-26.4,4.2-39.1,8.5
		c-27.3,9.3-45.6,28.1-56.7,54.4c-4.7,11.1-9.1,22.3-14.3,33.2c-7.1,15-17.9,26.6-33.4,33.4c-2.5,1.1-4.9,1.7-7.7,1.7
		c-37,0-74-0.1-111,0c-2.7,0-4.7-0.7-6.7-2.5c-12.5-10.6-20.1-24-22.8-40.2c-1.1-6.8-0.7-7.4,6.1-7.4c26.2,0,52.3,0,78.5,0
		c6.2,0,8-1.7,8-7.9c0-23.2,0-46.3,0-69.5c0-6-1.8-7.8-7.7-7.8C231.6,446.9,220.8,446.9,209.9,446.9z"/>
	<path class="st1" d="M198.3,520.9c-11.8,0-23.7-0.2-35.5,0.1c-4.8,0.1-5.1-1.9-4.3-5.5c3.7-16.7,11.2-31.5,22.2-44.5
		c10.9-13,11-12.9,28.1-12.9c8.3,0,16.7,0.1,25-0.1c3.3-0.1,4.6,0.6,4.6,4.3c-0.2,18.1-0.2,36.3,0,54.4c0,3.2-0.8,4.3-4.1,4.2
		C222.3,520.8,210.3,520.9,198.3,520.9z"/>
	<path class="st2" d="M250.4,619.4c-10.7,0-21.3-0.1-32,0.1c-3.1,0-4-0.9-3.9-4c0.2-6,0.1-12,0-18c0-2.4,0.3-3.6,3.2-3.6
		c21.6,0.1,43.3,0.1,64.9,0c2.4,0,3.2,0.7,3.1,3.1c-0.1,6.2-0.2,12.3,0,18.5c0.1,3.1-0.9,3.9-3.9,3.9
		C271.4,619.3,260.9,619.4,250.4,619.4C250.4,619.4,250.4,619.4,250.4,619.4z"/>
	<path class="st3" d="M332,410c5.8,0,11.6,0,17.5,0c2,0,3.9-0.3,3.8,2.9c-0.1,2.6-0.4,4-3.5,3.9c-12.1-0.1-24.3-0.1-36.4,0
		c-2.9,0-3.1-1.3-3.2-3.6c-0.1-2.7,0.9-3.3,3.4-3.3C319.7,410.1,325.9,410,332,410C332,410,332,410,332,410z"/>
	<path class="st4" d="M507.6,443.1c0.5,0,1-0.1,1.5,0c2.4,0.3,5.8-1.3,6.9,0.8c1.3,2.5-1.3,5.2-2.6,7.6c-0.3,0.6-0.7,1.1-1.1,1.7
		c-2.3,3.1-5,7-8.6,6.9c-2.4-0.1-2.1-5.3-3-8.3C498,443.1,498.2,443.1,507.6,443.1z"/>
	<path class="st5" d="M471.4,455.3c4.7-2.7,9.1-5,13.2-7.7c2.2-1.4,2.9-0.4,3.4,1.4c1.1,4,2.1,8,3.2,11.9c0.8,3-0.7,3.4-3,3
		C481.9,462.9,476.2,460.6,471.4,455.3z"/>
	<path class="st6" d="M490.2,411c1.3,0,2.2,0,3,0c5.6,0.2,5.8,0.7,3.1,5.5c-1.5,2.6-3.2,5.1-4.5,7.7c-1.4,2.8-2.5,4-5,0.9
		c-2.2-2.7-4.7-5.2-7.4-7.4c-3.2-2.7-1.8-3.7,1.2-4.8C483.9,411.7,487.1,410.7,490.2,411z"/>
	<path class="st7" d="M464.4,437.4c-0.3-4.1,0.8-7.8,2.5-11.5c0.9-2,1.9-2.7,3.5-0.7c0.2,0.3,0.5,0.5,0.7,0.7
		c3.1,3.4,9.2,6.4,8.9,10c-0.3,3.5-7.2,4.7-10.9,7.4c-3.6,2.6-4.5,1-4.7-2.4C464.3,439.7,464.4,438.6,464.4,437.4z"/>
	<path class="st8" d="M500.8,431.8c2.9-5,5.3-9.3,7.8-13.6c0.5,0.3,1,0.4,1.3,0.8c3.2,3.4,7.3,7.6,5.9,11.8c-1,2.9-6.8,0.5-10.5,1
		C504.2,431.9,503,431.8,500.8,431.8z"/>
</g>
</svg>
