<?xml version="1.0" encoding="utf-8"?>
<!-- Generator: Adobe Illustrator 19.0.0, SVG Export Plug-In . SVG Version: 6.00 Build 0)  -->
<svg version="1.1" id="Calque_1" xmlns="http://www.w3.org/2000/svg" xmlns:xlink="http://www.w3.org/1999/xlink" x="0px" y="0px"
	 viewBox="0 0 612 792" style="enable-background:new 0 0 612 792;" xml:space="preserve">
<style type="text/css">
	.st0{fill:#65B969;}
	.st1{fill:#9AD19D;}
	.st2{fill:#8FCC91;}
	.st3{fill:#CBE7CD;}
	.st4{fill:#1975D0;}
	.st5{fill:#E44A19;}
	.st6{fill:#2195F1;}
	.st7{fill:#141414;}
	.st8{fill:#FDFDFC;}
	.st9{fill:#65B869;}
	.st10{fill:#FDFCFC;}
</style>
<g>
	<path class="st0" d="M334,652c-16,0-32,0-48,0c-7.9-1.1-15.8-0.2-23.6-0.5c-24.8,0.2-49.6-0.4-74.3-1.7
		c-27.1-1.4-54.1-4.2-80.6-10.8c-27-6.7-44.8-23-51.8-50.5c-6.1-23.8-9.9-47.9-10.7-72.5c-0.6-18.5-1.4-36.9-1.4-55.4
		c0-4.5,0-9.1,0-13.6c-0.3-5.7,0.6-11.5-0.5-17.1c0-15,0-30,0-45c1.1-6.3,0.2-12.7,0.5-19c0-4.5,0-9.1,0-13.6
		c0.3-26.1,0.3-52.3,2.4-78.3c2-25.5,4.4-51.1,12-75.8c7.3-24,23.5-38.9,47.6-45.4c23.9-6.3,48.2-10.1,72.9-11
		c19.6-0.7,39.2-1.5,58.9-1.4c7.2-0.3,14.5,0.6,21.7-0.5c18,0,36,0,54,0c8.2,1.1,16.4,0.2,24.6,0.5c24.3-0.1,48.6,0.5,72.9,1.7
		c25.6,1.2,51.1,4.3,76.2,9.8c13.5,3,26,8.3,36.5,17.6c6.2,5.5,10.8,12.2,14,19.8c7.4,17.5,10.4,36.1,13.1,54.7
		c3.2,22,3.2,44.1,3.8,66.2c0.2,8.7,0.3,17.3,0.4,26c0.3,7.9-0.6,15.8,0.5,23.7c0,15.3,0,30.7,0,46c-1.1,6.3-0.2,12.7-0.5,19
		c0,4.5,0,9.1,0,13.6c-0.2,26.4-0.3,52.9-2.4,79.3c-2.1,26-4.3,52.1-12.4,77.2c-7.2,22.2-22.2,36.7-44.7,43.1
		c-24.6,7-49.7,10.8-75.3,11.8c-18.6,0.7-37.2,1.3-55.9,1.5c-3.9,0-7.8,0-11.7,0C346,651.8,340,650.9,334,652z"/>
	<path class="st1" d="M554.1,335.8c0.3-0.1,0.6,0,0.8,0.2c0,8,0,16,0,24C553.1,352,554,343.9,554.1,335.8z"/>
	<path class="st2" d="M554.1,425.1c0-6.4-1-12.8,0.9-19.1c0,6.3,0,12.7,0,19C554.8,425.6,554.5,425.6,554.1,425.1z"/>
	<path class="st3" d="M554.1,425.1c0.3,0,0.6,0,0.9-0.1c0,4.7,0,9.3,0,14l-0.4,0.1l-0.4,0C554.1,434.4,554.1,429.8,554.1,425.1z"/>
	<path class="st4" d="M331,425.8c-7.1,10.4-15.5,19.4-26.6,25.6c-9.2,5.2-19.2,8.2-29.4,10.7c-2.5,3.1-5.8,3.2-9.3,2.9
		c-6.2,0.5-12.3,0.5-18.5,0c-3.5,0-6.9-0.2-9.3-3.2c-13.3-3.4-26.1-8-36.9-16.8c-11.8-9.5-20-21.3-22.1-36.7
		c-2.1-15.6,2.8-29,12.9-40.5c14.2-16.2,32.7-24,53.8-26.7c2.5-0.3,5-0.6,7.4-1c3.1-2.9,6.1-2.9,9.2,0c12.6,1.3,25,3.6,36.5,9.1
		c13.6,6.4,24.2,16.2,32.3,28.8c2.4,1.6,3.9,3.8,5,6.5c4.7,12.6,3.8,24.9-0.9,37.2C334.3,423.7,332.6,424.7,331,425.8z"/>
	<path class="st5" d="M389.9,377.9c18.5-10.4,36.9-20.9,56.6-32.1c-1.5,9.4-2.7,17.2-4,25.1c-2.1,12.8-4.2,25.6-6.4,38.4
		c-0.4,2.4,0.1,4.6,0.7,6.9c3.4,11.6,6.8,23.3,10.2,35c0.5,1.7,1.4,3.4,0.9,5.9c-19.5-10.5-38.8-20.8-58-31.2
		c-2.2-1.6-2.2-4-2.2-6.3c-0.1-11.8-0.1-23.5,0-35.3C387.7,381.9,387.9,379.6,389.9,377.9z"/>
	<path class="st6" d="M389.9,377.9c0,16,0,32,0,48c-19.6,0-39.3,0-58.9-0.1c1.1-3,2.1-5.9,3.2-8.9c3.9-11.3,3.3-22.4-1.2-33.4
		c-0.7-1.8-1.3-3.7-2-5.6C350.6,377.9,370.2,377.9,389.9,377.9z"/>
	<path class="st7" d="M265.7,463.2c3.1-0.3,6.1-0.7,9.2-1c0,5.2,0.2,10.3,0,15.5c-0.2,3.3,1,4.3,4.2,4.3c11.1-0.2,22.3,0,33.5-0.1
		c3.4,0,6.8,0.3,6.8,4.6c0,4.2-3.3,4.7-6.8,4.7c-36.8,0-73.6,0-110.3,0c-3.5,0-6.8-0.4-6.8-4.7c0-4.3,3.4-4.7,6.8-4.6
		c9.7,0.1,19.3,0,29,0c6.4,0,6.3,0,6.4-6.6c0-4.5,0.2-9,0.3-13.5c3,0.5,6.1,0.9,9.1,1.4c3,2.3,2.2,5.7,2.3,8.7
		c0.2,7.2,4.7,10.1,11.5,7.4c2.8-1.1,2.6-3.4,2.9-5.8C264,470,262.6,466.1,265.7,463.2z"/>
	<path class="st5" d="M257.6,309.3c11.3-5.7,23.6-6.9,35.8-7.7c20.1-1.4,40.3-1.2,60.1,3.4c4,0.9,8.1,1.8,11.6,4.3
		c-12,9.7-70.3,11.2-103.1,2.9C259.5,313,257.9,312.2,257.6,309.3z"/>
	<path class="st5" d="M252.8,312.1c-32.6,8.4-90.9,6.9-103.2-2.9c5.7-3.2,11.9-4.6,18.1-5.5c26-4,52-4,77.9,1.4
		c4.1,0.9,8,2.2,11.7,4.3C257,312.2,255.4,313,252.8,312.1z"/>
	<path class="st7" d="M252.8,312.1c1.5-0.9,3-1.9,4.5-2.8c0,0,0.4,0,0.4,0c1.5,0.9,3,1.9,4.5,2.8c0,9.3,0,18.6,0,27.9
		c-3.1,0-6.1,0-9.2,0C252.9,330.7,252.8,321.4,252.8,312.1z"/>
	<path class="st8" d="M219,402.9c-9.2,0-18.3-0.2-27.5,0.1c-3.7,0.1-4.9-0.8-4.5-4.7c2.4-21.5,13-33.1,34.2-37
		c8.9-1.6,17.9-1.3,26.9-1.6c2.9-0.1,3.1,1.4,3.1,3.7c-0.1,12-0.1,24,0,36c0,3-1.1,3.6-3.8,3.6C238,402.9,228.5,402.9,219,402.9z"/>
	<path class="st9" d="M265.7,463.2c0,5-0.1,10,0,14.9c0.1,2.8-1.1,3.6-3.8,3.8c-15,0.8-15,0.8-15-14.3c0-1.5,0-3,0-4.5
		C253.2,463.1,259.5,463.1,265.7,463.2z"/>
	<path class="st10" d="M422.6,402c-0.1,4.7-3.9,8.3-8.7,8.3c-5,0-9-4.1-8.8-8.8c0.2-4.6,4.2-8.5,8.8-8.5
		C418.7,393,422.7,397.1,422.6,402z"/>
</g>
</svg>
