<?xml version="1.0" encoding="utf-8"?>
<!-- Generator: Adobe Illustrator 19.0.0, SVG Export Plug-In . SVG Version: 6.00 Build 0)  -->
<svg version="1.1" id="Calque_1" xmlns="http://www.w3.org/2000/svg" xmlns:xlink="http://www.w3.org/1999/xlink" x="0px" y="0px"
	 viewBox="0 0 612 792" style="enable-background:new 0 0 612 792;" xml:space="preserve">
<style type="text/css">
	.st0{fill:#0671AC;}
	.st1{fill:#2C2C2C;}
	.st2{fill:#9C2C2A;}
	.st3{fill:#E33935;}
	.st4{fill:#0287D0;}
</style>
<g>
	<path class="st0" d="M414.3,426.1c0.9,10.7,0.2,21.5,0.4,32.2c0.1,9.4,0,18.9,0.1,28.3c-15.9,0.9-31.8,0.2-47.6,0.4
		c-9.3,0.1-18.5-0.1-27.8-0.2c4.1-10.4,7.7-20.7,7.1-32.2c-0.5-8.9-2.3-17.4-6-25.4c-1.1-2.3-0.8-3.3,2-3.3
		C366.4,426,390.3,426,414.3,426.1z"/>
	<path class="st1" d="M255.6,534.9c4-0.6,7.9-1.1,11.9-1.7c0.1,6.8,0.4,13.6,0.1,20.5c-0.1,3.8,0.8,5.1,4.9,5.1
		c14.6-0.3,29.3-0.1,43.9-0.1c5.6,0,8.1,1.8,8.2,5.8c0.1,4.2-2.6,6.3-8.3,6.3c-47.4,0-94.9,0-142.3,0c-5.7,0-9-2.6-8.3-6.8
		c0.7-4,3.3-5.3,7.2-5.3c14,0.1,28-0.1,41.9,0.1c3.7,0.1,4.9-0.8,4.8-4.7c-0.2-7,0.2-13.9,0.3-20.9c4-0.3,7.8,0.7,11.7,1.6
		c2.3,4.9,0.9,10.2,1.1,15.2c0.3,6.9,0.5,7.4,7.4,7.3c15.6-0.2,13.3,2.1,13.6-13.4C253.9,540.9,252.9,537.5,255.6,534.9z"/>
	<path class="st2" d="M244.3,337.8c41.6-14.6,83.9-13.1,126.4-4.9c4.3,0.8,8.6,2.2,12.9,5c-4.4,3.8-9.5,4.9-14.6,5.9
		c-21.3,4.4-42.9,5-64.6,4.5c-18-0.4-35.8-2-53.3-6.6c-2.8,0.4-4.7-1.5-6.9-2.6C244.1,338.7,244.1,338.2,244.3,337.8z"/>
	<path class="st3" d="M244.3,337.8c0,0.3,0,0.6-0.1,0.8c-0.8,2.5-2.5,3.3-5,2.6c-24,7.2-48.6,7.4-73.3,7
		c-16.3-0.3-32.6-1.3-48.5-5.5c-3.6-1-7.3-2-10.6-4.8c6.1-3.7,12.5-5.4,19-6.5c36.5-6.3,72.8-6.7,109,2.3
		C238.1,334.6,241.5,335.6,244.3,337.8z"/>
	<path class="st1" d="M239.2,341.3c1.7-0.9,3.3-1.8,5-2.6c2.8-0.1,4.8,1.8,7,3.1c0,11.9,0.1,23.9,0.1,35.8c-4,0-8,0-12.1,0
		C239.2,365.5,239.2,353.4,239.2,341.3z"/>
	<path class="st4" d="M408.2,425.3c-21.8,0-43.6,0-65.4,0.1c-2.9,0-4.8-0.7-6.5-3.4c-5.8-9.7-13.7-17.5-23-24
		c-18.6-13.1-39.6-19.1-62.1-20.5c-4-1.9-8-1.8-12.1,0c-1.5,0.1-3,0.2-4.5,0.3c-25.4,2.4-48.3,10.5-67.4,27.9
		c-27.5,25.1-31.2,62.5-8.9,91.2c10.4,13.3,23.9,22.4,39.4,29c7.2,3.1,14.9,4.4,22.2,7.2c3.8,2.5,8.4,1.6,12.5,2.9
		c7.5,0.6,14.9,0.3,22.4,0.2c4.2-1,8.9,0.1,12.5-3c29.6-5.9,54.5-18.8,70.8-45.4c0.2-0.4,0.7-0.7,1.1-1c1.8-1.3,2.7-3.3,3.6-5.3
		c6.7-16,6.6-32.1,0.8-48.2c-2-5.6-1.9-5.9,4.1-5.9c19.6,0,39.3,0,58.9,0c2.5,0,5,0.3,7.3-1c0.2-0.2,0.4-0.4,0.6-0.7
		C412.5,424.9,410.3,425.3,408.2,425.3z M233.6,457.8c-12.7,0-25.3,0-38,0c0,0,0,0,0,0c-12.3,0-24.6-0.1-37,0.1
		c-3.4,0.1-4.3-1-3.7-4.2c0.8-3.7,1-7.6,1.8-11.3c4.6-20.8,17.8-32.8,38.3-37.2c13-2.7,26.1-2.5,39.3-2.7c2.1,0,2.9,0.7,2.9,2.8
		c-0.1,16.5-0.1,33,0,49.5C237.4,457.8,235.8,457.8,233.6,457.8z"/>
	<path class="st3" d="M489.2,523.5c-4.8-16.4-9.6-32.8-14.4-49.3c-0.6-2.2-1.5-4.3-1.1-6.8c2.2-12.4,4.2-24.9,6.3-37.4
		c2.4-14.9,4.8-29.8,7.4-45.3c-4.1,2.3-7.6,4.2-11,6.1c-20.6,11.6-41.1,23.2-61.7,34.8c0,0.2-0.1,0.3-0.3,0.4
		c-1.6,1.5-1.6,3.6-1.6,5.6c-0.1,16.4-0.1,32.8,0,49.2c0,2.1-0.1,4.4,2,5.8c1.4,0.9,2.7,1.9,4.1,2.7c17.1,9.2,34.3,18.4,51.4,27.6
		c6.4,3.4,12.8,6.9,19.8,10.6C489.7,525.7,489.5,524.6,489.2,523.5z M445.3,467.5c-6,0-11-5-11.1-11.2c-0.1-6.4,5-11.5,11.2-11.5
		c6.2,0.1,11,4.9,11.1,11.1C456.6,462.4,451.6,467.6,445.3,467.5z"/>
</g>
</svg>
