<?xml version="1.0" encoding="utf-8"?>
<!-- Generator: Adobe Illustrator 19.0.0, SVG Export Plug-In . SVG Version: 6.00 Build 0)  -->
<svg version="1.1" id="Calque_1" xmlns="http://www.w3.org/2000/svg" xmlns:xlink="http://www.w3.org/1999/xlink" x="0px" y="0px"
	 viewBox="0 0 612 792" style="enable-background:new 0 0 612 792;" xml:space="preserve">
<style type="text/css">
	.st0{fill:#020202;}
	.st1{fill:#070707;}
	.st2{fill:#030303;}
</style>
<g>
	<path class="st0" d="M276.9,272.8c-33.7,0-67.3-0.1-101,0.1c-3.9,0-5-1-5-4.9c0.2-11.8,0-11.7,11.6-11.7c65.3,0,130.6,0,195.9-0.1
		c4.6,0,5.9,1.1,5.7,5.7c-0.3,11-0.1,11-10.9,11C341.2,272.8,309.1,272.8,276.9,272.8z"/>
	<path d="M228,371c-17.5,0-34.9-0.1-52.4,0.1c-3.9,0.1-4.6-1.2-4.5-4.7c0.1-11.8,0-11.8,11.9-11.8c32.6,0,65.2,0.1,97.8-0.1
		c3.7,0,5.1,0.7,5,4.8c-0.3,11.7-0.1,11.7-11.9,11.7C258.6,371,243.3,371,228,371z"/>
	<path d="M228,469.2c-17.5,0-35-0.1-52.5,0.1c-3.4,0-4.5-0.7-4.5-4.3c0.1-12.1-0.1-12.1,12.1-12.1c32.7,0,65.3,0.1,98-0.1
		c3.7,0,4.7,0.8,4.7,4.6c-0.2,11.8,0,11.8-11.8,11.8C258.6,469.2,243.3,469.2,228,469.2z"/>
	<path class="st1" d="M220.4,559.1c0,8.7,0,8.7-8.4,8.7c-8.2,0-8.2,0-8.2-8c0-8.6,0-8.6,8.5-8.6
		C220.4,551.2,220.4,551.2,220.4,559.1z"/>
	<path class="st1" d="M244.7,567.8c-8.1,0-8.1,0-8.1-8.1c0-8.6,0-8.6,8.7-8.5c7.9,0,7.9,0,7.9,7.8c0,0.2,0,0.3,0,0.5
		C253.2,567.8,253.2,567.8,244.7,567.8z"/>
	<path class="st2" d="M187.5,559.4c0,8.4,0,8.4-8.6,8.4c-7.8,0-7.8,0-7.8-7.9c0-8.7,0-8.7,8.5-8.7
		C187.5,551.2,187.5,551.2,187.5,559.4z"/>
	<path d="M457.8,596.5c-0.1-4.1,1.9-9.7-0.9-11.8c-2.6-2-8-0.5-12.1-0.7c-2.5-0.2-3.5,0.5-3.4,3.3c0.2,5.5-0.1,11,0.1,16.5
		c0.2,3.7-0.6,5.1-4.7,5.1c-100.7-0.1-201.3-0.1-302,0c-3.8,0-4.7-1-4.7-4.7c0.1-133.5,0.1-267,0-400.5c0-4.2,1.4-4.7,5-4.7
		c16.2,0.2,32.3,0,48.5,0.1c3.8,0,8.7-1.2,11.1,0.7c2.5,2,0.9,7.2,0.7,10.9c-0.2,3.6,0.7,4.8,4.6,4.7c54.5-0.1,109-0.1,163.5-0.1
		c4,0,9.2,1.2,11.6-0.8c2.6-2.1,0.8-7.5,0.7-11.5c-0.1-3.3,1-4.1,4.2-4.1c19.2,0.2,38.3,0.2,57.5,0c3.4,0,4,1.1,4,4.2
		c-0.1,19.3-0.1,38.7-0.1,58c0,11.7,0,11.5,11.5,11.7c4,0.1,5-1.1,4.9-5c-0.2-26.8-0.2-53.7,0-80.5c0-4.1-1.2-4.9-5-4.9
		c-24.2,0.2-48.3,0-72.5,0.2c-3.5,0-4.6-0.9-4.5-4.4c0.3-8.2-0.1-16.3,0.1-24.5c0.1-3.2-0.9-4-4-3.8c-5.3,0.2-10.7-0.2-16,0.2
		c-4.2,0.3-4.9-1.3-4.8-5c0.3-8,0-16,0.1-24c0.1-2.8-0.2-4.1-3.6-4.1c-41.3,0.1-82.7,0.1-124,0c-2.9,0-3.6,0.8-3.6,3.6
		c0.2,8.7,0,17.3,0.1,26c0,2.6-0.7,3.5-3.4,3.4c-5.7-0.2-11.4,0.2-17-0.2c-4-0.3-4.6,1.2-4.5,4.8c0.3,7.8-0.1,15.7,0.2,23.5
		c0.1,3.7-0.9,4.7-4.7,4.7c-24.2-0.2-48.3,0-72.5-0.2c-4,0-4.9,1.1-4.9,5c0.1,72.2,0.1,144.3,0.1,216.5c0,72,0,144-0.1,216
		c0,4.2,1.1,5.1,5.2,5.1c35.5-0.2,71-0.1,106.5-0.1c76,0,152,0,228,0.1c3.7,0,4.8-0.7,4.7-4.6C457.6,612.5,457.9,604.5,457.8,596.5z
		 M212,194.4c0.3-8.3,0.2-16.6,0-25c0-2.6,0.7-3.5,3.4-3.4c5.5,0.2,11-0.3,16.5,0.2c4.2,0.3,4.9-1.3,4.7-5
		c-0.3-7.8,0.1-15.7-0.1-23.5c-0.1-3.4,0.7-4.5,4.3-4.5c30,0.1,59.9,0.1,89.9,0c3.2,0,4.4,0.8,4.3,4.2c-0.3,8.2,0.1,16.3-0.2,24.5
		c-0.1,3.6,1.1,4.5,4.5,4.3c5.3-0.3,10.7,0.1,16-0.1c3.1-0.1,4.4,0.5,4.3,4c-0.3,8.3-0.3,16.7,0,25c0.1,3.3-1,4.1-4.1,4
		c-23.1-0.1-46.3-0.1-69.4-0.1c-23.1,0-46.3-0.1-69.4,0.1C212.7,199.1,211.9,198.1,212,194.4z"/>
	<path d="M452.6,281c-83.4-0.6-149.8,64.2-150.3,146.9c-0.5,80.9,65.1,147.3,146.2,148c81.2,0.7,147.9-65.1,148.7-146.7
		C598,349.2,531.9,281.5,452.6,281z M449.4,559.4c-72.5-0.3-131-59.1-130.8-131.5c0.2-72.2,59.6-131.2,131.7-130.7
		c72.4,0.4,130.9,59.5,130.4,131.8C580.2,501.4,521.5,559.7,449.4,559.4z"/>
	<path d="M529.8,380.1c-1.6,1.8-2.5,3-3.6,4.1c-31.5,34.1-63.1,68.3-94.6,102.4c-6.3,6.8-6.3,6.8-12.8,0.3
		c-15.2-15.2-30.4-30.4-45.7-45.4c-2.6-2.5-2.6-3.9,0.1-6.1c3.1-2.5,5.8-7.6,8.7-7.6c2.9,0,5.8,4.9,8.6,7.7
		c10.3,10.2,20.6,20.4,30.7,30.8c2.7,2.8,4.1,3.3,7.1,0.1c28.4-31.1,57.1-62,85.5-93.1c3.1-3.4,4.9-3.3,7.6-0.1
		c1.8,2.1,4.1,3.9,6.2,5.8C528.2,379.4,529,379.7,529.8,380.1z"/>
</g>
</svg>
