<?xml version="1.0" encoding="utf-8"?>
<!-- Generator: Adobe Illustrator 19.0.0, SVG Export Plug-In . SVG Version: 6.00 Build 0)  -->
<svg version="1.1" id="Calque_1" xmlns="http://www.w3.org/2000/svg" xmlns:xlink="http://www.w3.org/1999/xlink" x="0px" y="0px"
	 viewBox="0 0 612 792" style="enable-background:new 0 0 612 792;" xml:space="preserve">
<style type="text/css">
	.st0{fill:#010100;}
	.st1{fill:#ED9999;}
	.st2{fill:#9494A9;}
	.st3{fill:#9494A8;}
	.st4{fill:#000100;}
	.st5{fill:#E5E7EC;}
	.st6{fill:#F1FDFD;}
</style>
<g>
	<path d="M162.2,554.4c-10.1,0-19.5,0-29,0c-5.5,0-7.5-2-7.5-7.5c0-32.3,0-64.6,0-97c0-5.9,1.8-7.6,7.8-7.7c11,0,22-0.1,33,0
		c3,0,4.3-0.4,4.3-4c-0.6-35.8-1.1-71.6-6.1-107.2c-0.8-5.8-1.9-11.5-3.9-17c-2-5.4,1.3-9.4,7-8.7c6.6,0.9,11.7,4.5,15.9,9.5
		c8.4,9.9,12.3,21.9,15.1,34.3c6.3,28.6,5.8,57.6,4.4,86.5c-0.3,6.4-0.5,6.4,6,6.4c20,0,40-0.1,60,0.1c3.7,0,4.9-1.2,5.9-4.7
		c12.8-48.2,25.8-96.3,38.6-144.4c1.3-4.9,3.8-6.8,8.8-6.8c55,0.1,110,0.1,165,0.1c6.2,0,8.1,1.9,8.3,7.9c2,53.8,4,107.5,5.9,161.3
		c0.1,2,0,4,0.2,6c0.2,2.8-0.8,5-3.2,6.3c-2.6,1.3-5,0.7-7.3-1.3c-11.6-9.7-24.7-16.6-39.4-20.6c-58.2-15.9-118.1,23.1-127.2,82.7
		c-0.9,5.8-1,11.6-1.2,17.4c-0.2,6.8-1.7,8.2-8.3,8.2c-15,0-30,0.2-45-0.1c-4.5-0.1-5.8,0.3-4.3,5.4c9,29.7-8.6,61-38.4,68.5
		c-20.8,5.2-39.1,0.1-53.9-15.3c-14.7-15.3-18.2-33.8-12.7-54.1C161.1,557.6,161.6,556.3,162.2,554.4z"/>
	<path class="st0" d="M425.2,460.2c47.1,0.1,84.6,37.9,84.4,84.9c-0.1,46.2-38.1,84-84.5,84c-46.7,0-84.6-38.2-84.5-85
		C340.9,497.8,378.9,460,425.2,460.2z"/>
	<path class="st1" d="M488.9,449.9c-2.8-1.6-5.2-3-7.6-4.4c-69.4-39.7-157.8,3.7-168.8,83c-0.2,1.6-0.6,3.3-0.8,4.9
		c-0.8,9-0.8,9-10,9c-13.5,0-27-0.1-40.5,0.1c-2.7,0-4.4-0.8-6.3-2.9c-22-25.7-62-25.6-83.6,0.2c-1.7,2-3.3,2.8-5.8,2.8
		c-8.2-0.2-16.3-0.2-24.5,0c-2.6,0-3.4-0.7-3.4-3.3c0.1-27.2,0.2-54.3,0-81.5c0-4.3,2.4-3.4,4.8-3.4c44,0,88,0,132,0
		c7.7,0,8.5-0.6,10.6-8.2c12.6-47.2,25.4-94.3,37.8-141.6c1.3-4.8,3.2-6.1,8-6c49.3,0.2,98.7,0.2,148,0c3.7,0,5,0.7,5.2,4.8
		c1.7,48.3,3.5,96.6,5.4,144.9C489.3,448.3,489.2,448.6,488.9,449.9z"/>
	<path class="st2" d="M213.2,532.3c23.6-0.1,43.3,19.5,43.3,43c-0.1,23.3-19.6,43-42.7,43c-24.1,0-43.6-19.1-43.7-43
		C170,551.7,189.4,532.4,213.2,532.3z"/>
	<path class="st3" d="M174.4,320.6c6.6,6,9.2,12.7,11.2,19.6c3.9,13.1,5.1,26.5,6.3,40.1c1.6,18.7,0.1,37.3-0.3,55.9
		c-0.1,2.4,1.2,5.9-3.6,6.1c-4,0.2-5.3-0.7-5.4-5c-0.4-21-0.8-42-2-62.9C179.4,356.9,178.2,339.2,174.4,320.6z"/>
	<path class="st2" d="M425.6,472c38.3-0.4,75.2,32.4,72,78.1c-2.5,35.6-32.5,68.2-74.6,67.1c-39-1-72.9-33.6-70.3-77.4
		C354.8,502.9,386.1,471.5,425.6,472z"/>
	<path class="st0" d="M399,408.5c-17.7,0-35.3,0-53,0c-6.7,0-8.3-1.6-8.3-8.1c0-23.8,0-47.6,0-71.5c0-5.9,1.8-7.7,7.8-7.7
		c35.8,0,71.6,0,107.5,0c6,0,7.8,1.7,7.8,7.6c0,24,0,48,0,72c0,5.9-1.8,7.7-7.8,7.7C434.9,408.5,416.9,408.5,399,408.5z"/>
	<path class="st0" d="M241.7,575.4c0.8,13-10,28.5-28.7,28.7c-16.1,0.2-28.4-13-28.4-29.5c0-15.4,13.2-28.6,28.7-28.2
		C231.7,546.9,242.6,562,241.7,575.4z"/>
	<path class="st4" d="M473.8,544.7c0.8,25.4-20.8,48.2-47.6,48.7c-28.4,0.5-49.8-23.5-49.8-48.7c0-24.2,19-49.1,49.1-48.9
		C455.2,495.9,474.7,520.4,473.8,544.7z"/>
	<path class="st5" d="M398.6,396.9c-15,0-30-0.1-44.9,0.1c-3.2,0-4.2-0.8-4.2-4.1c0.2-18.6,0.1-37.3,0-55.9c0-3.2,0.7-4.2,4.1-4.2
		c30.5,0.1,60.9,0.1,91.4,0c2.9,0,4,0.6,4,3.8c-0.2,18.8-0.2,37.6,0,56.4c0,3.6-1.4,4-4.4,4C429.2,396.9,413.9,396.9,398.6,396.9z"
		/>
	<path class="st6" d="M213.6,558.3c9.3,0.1,17.1,7.9,16.9,17.2c-0.1,9.3-8,16.9-17.4,16.8c-9.4,0-17.1-7.7-17.2-17
		C195.9,565.9,203.8,558.2,213.6,558.3z"/>
	<path class="st6" d="M425.5,507.3c20.4,0.1,37.1,17,37,37.6c-0.1,20.2-17.1,36.9-37.4,36.8c-20.6-0.1-37.4-17-37.3-37.4
		C388,523.9,404.9,507.3,425.5,507.3z"/>
</g>
</svg>
