<?xml version="1.0" encoding="utf-8"?>
<!-- Generator: Adobe Illustrator 19.0.0, SVG Export Plug-In . SVG Version: 6.00 Build 0)  -->
<svg version="1.1" id="Calque_1" xmlns="http://www.w3.org/2000/svg" xmlns:xlink="http://www.w3.org/1999/xlink" x="0px" y="0px"
	 viewBox="0 0 612 792" style="enable-background:new 0 0 612 792;" xml:space="preserve">
<style type="text/css">
	.st0{fill:#000100;}
	.st1{fill:#8FC9F7;}
	.st2{fill:#FDF39C;}
	.st3{fill:#9494A9;}
	.st4{fill:#9494A8;}
	.st5{fill:#BDBDC8;}
	.st6{fill:#E5E7EB;}
	.st7{fill:#E4E6EB;}
	.st8{fill:#010101;}
	.st9{fill:#030303;}
	.st10{fill:#050506;}
	.st11{fill:#040405;}
</style>
<g>
	<path class="st0" d="M463.1,282.1c0-3.9-0.9-7-5.1-7.9c-1.4-0.3-3-0.1-4.5-0.1c-90.3,0-180.6,0-270.9,0c-1.3,0-2.7-0.1-4,0.1
		c-24,4.6-48,9.2-72,13.9c-3.8,0.7-5.6,3.1-5.6,7c0.1,4.8,0,9.7,0,14.5c0,7.4,1.6,8.9,9.2,8.9c20.7,0,41.3,0.1,62-0.1
		c4.1,0,4.9,1.2,4.9,5c-0.2,21.7-0.1,43.3-0.1,65c0,5.5,2,7.5,7.5,7.6c8.8,0.1,17.7,0,26.5,0c2.2,0,4.1-0.5,4.1,3.1
		c0,3.7-2.3,2.9-4.3,2.9c-10.5,0-21-0.2-31.5,0.1c-3.6,0.1-4.3-0.9-4.3-4.4c0.2-19.7,0.1-39.3,0.1-59c0-9.8-4.6-14.4-14.3-14.4
		c-10.3,0-20.7,0.6-31-0.2c-7.9-0.6-12.5,2.7-16.9,8.7c-9.7,13.3-17.3,27.9-25.8,41.9c-2.7,4.5-4.8,9.1-4,14.5
		c0.3,2-0.6,3.3-2.1,4.7c-2.6,2.5-3,6.1-0.5,8.5c2.5,2.5,2.6,5.1,2.6,8c-0.1,3.5-0.1,7,0,10.5c0.2,8,4.7,12.6,12.6,12.9
		c1.9,0.1,3.1,0,3.6,2.7c3.2,15.5,14.8,25.3,29.6,25.3c14.6,0,26.3-9.5,29.6-24.6c0.7-3.1,2-3.4,4.6-3.4c13.7,0.1,27.3,0.2,41,0
		c2.9,0,3.7,0.7,4.3,3.7c2.5,13.8,14.7,24,28.4,24.3c14.5,0.4,26.8-8.7,30.3-22.5c0.8-3.3,2-4.5,5.6-4.4c10.2,0.3,20.5,0.1,31.5,0.1
		c-5.9-10.3-11.5-19.9-16.8-29.6c-1.5-2.7-3.1-3.6-6.2-3.6c-14.7,0.2-29.3,0.1-44,0.1c-2,0-4.2,0.8-4.2-3c0-3.6,2-3,4.1-3
		c17.3,0,34.7,0.1,52-0.1c2.7,0,4.1,0.8,5.6,3c6.9,10.4,14,20.7,20.8,31.1c2.1,3.2,4.7,5.2,8.6,4.7c3.5-0.4,5,0.7,5.9,4.4
		c3.1,12.8,14,21.9,26.5,22.8c13.3,0.9,25.1-6.1,30.4-18.3c0.5-1.1,0.5-2.5,1.9-3.1c5.1,13.8,16.2,21.7,29.9,21.4
		c12.8-0.3,24.3-8.8,27.6-21.4c1.3-4.9,3.2-6.2,7.9-5.9c7.2,0.4,9-1.7,9-9.1c0-14.3,0-28.7,0-43C463,349.1,463,315.6,463.1,282.1z"
		/>
	<path class="st1" d="M387.9,423.4c-4.9-11.6-12.4-18.6-24.2-20.5c-13.4-2.1-25.7,4.2-31.8,16.4c-2.6,5.2-5.7,5.4-8.9,0.6
		c-6.9-10.2-13.9-20.3-20.6-30.6c-2.5-3.8-5.3-5.3-9.8-5.3c-32.8,0.1-65.7,0-98.5,0.2c-4.1,0-5.2-0.9-5.2-5.1
		c0.2-20.8,0.1-41.7,0.1-62.5c0-8.2-1.4-9.7-9.4-9.7c-20.7,0-41.3,0-62,0c-2.1,0-4.9,1.1-4.7-3c0.1-3,0-5.1,4-5.8
		c20.2-3.6,40.4-7.7,60.5-11.5c1.9-0.4,4-0.4,6-0.4c87.3,0,174.6,0,261.9-0.1c4.5,0,5.7,1.1,5.6,5.7c-0.2,42.2-0.1,84.3-0.2,126.5
		c0,1.6,1.6,4.2-1.6,4.9c-2.8,0.6-3.5-1.3-4.6-3.3c-5.7-11.3-15.1-17.3-27.6-17.2c-12.6,0.2-22.1,6.3-27.9,17.8
		C388.9,420.9,388.6,421.7,387.9,423.4z"/>
	<path class="st2" d="M120.3,339c0.1-2.6,1.6-2.9,3.5-2.9c12,0,24,0.1,36,0c2.7,0,3.3,1.1,3.3,3.5c-0.1,26.3,0,52.6-0.1,78.9
		c0,1.2,1,3.3-1.5,3.5c-2.3,0.1-4.2,0.3-5.6-2.6c-4.5-9.2-11.9-14.9-22.2-16.5c-13.4-2-25.4,3.9-31.4,15.9c-1.4,2.8-3,3.7-5.7,3.1
		c-3.2-0.7-1.4-3.3-1.4-4.9c-0.2-8,0.1-16-0.2-24c-0.1-3.6,1.1-4.4,4.5-4.3c9,0.2,18,0.1,27,0.1c10.5,0,16.7-4.8,18.2-15.2
		c1-7,1.2-14.3-0.3-21.3c-2-8.9-7.5-13.3-16.5-13.4C125.3,339,122.8,339,120.3,339z"/>
	<path class="st3" d="M128.4,450.1c-9.9-0.1-17.5-7.8-17.4-17.8c0.1-10.2,7.9-18.2,17.8-18.2c9.9,0,18.2,8.5,18.2,18.6
		C146.9,442.4,138.7,450.1,128.4,450.1z"/>
	<path class="st3" d="M435.3,432.9c-0.2,10.4-7.9,17.3-18.9,17.1c-9.7-0.2-16.8-8.1-16.6-18.5c0.2-9.7,8.5-17.6,18.2-17.3
		C428,414.6,435.5,422.6,435.3,432.9z"/>
	<path class="st3" d="M220,432.3c0.1-10.1,8-17.9,18.2-17.6c9.9,0.2,17.8,8.2,17.6,17.8c-0.2,9.7-8.4,17.6-18,17.6
		C228,450,219.9,441.9,220,432.3z"/>
	<path class="st4" d="M359.1,414.6c10,0.1,18,8.4,17.7,18.3c-0.2,9.3-8.6,17.2-18.1,17c-9.6-0.1-17.7-8.1-17.7-17.4
		C341,422.6,349.1,414.5,359.1,414.6z"/>
	<path class="st5" d="M100.1,376.5c4.7-8.2,9.4-16.3,14.1-24.4c0.7-1.3,1.9-1.8,3.3-1.7c14.2,0.3,15.7-2.5,15.6,13.7
		c-0.1,15.4-1,12.9-13.1,13c-6.2,0-12.3,0-18.5,0C101.3,377,101,376.8,100.1,376.5z"/>
	<path class="st6" d="M206.8,414c-1.8,8-1.8,8-9.3,8c-6.6,0-13.3-0.1-19.9,0.1c-3.5,0.1-2.6-2.2-2.5-4c0.1-1.7-1.2-4.2,2.4-4.1
		C187.2,414.1,197,414,206.8,414z"/>
	<path class="st7" d="M282.9,423.4c-4.6,0-9,0.3-13.4-0.1c-4.7-0.4-3.5-5.1-4.1-7.8c-0.6-2.7,2.6-1.4,4-1.4
		C279.4,413.9,279.4,414,282.9,423.4z"/>
	<path class="st8" d="M318.5,316c-30.3,0-60.6,0-91,0c-1.8,0-3.6,0.2-5.4-0.7c-2.3-1.2-3.4-3-3.3-5.6c0.1-2.4,1.4-3.9,3.6-4.9
		c1.8-0.8,3.6-0.6,5.4-0.6c60.8,0,121.6,0,182.4,0c1.5,0,3-0.1,4.5,0.3c2.8,0.8,4.5,2.6,4.4,5.8c-0.1,3.2-2,4.8-4.7,5.6
		c-1.4,0.4-3,0.2-4.5,0.2C379.5,316,349,316,318.5,316z"/>
	<path d="M319,349.4c-30.5,0-60.9,0-91.4,0c-1.8,0-3.8,0.1-5.4-0.5c-2.4-0.9-3.4-2.9-3.3-5.6c0.2-2.9,1.9-4.5,4.5-5.2
		c1.1-0.3,2.3-0.1,3.5-0.1c61.4,0,122.9,0,184.3,0c3.6,0,6.8,0.3,7.8,4.4c1,4-1.5,6.9-6.1,7c-6.7,0.1-13.3,0-20,0
		C368.3,349.4,343.7,349.4,319,349.4z"/>
	<path class="st9" d="M133.3,432.3c-0.2,3-2.1,4.7-4.8,4.5c-2.6-0.2-4.7-2.2-4.4-5c0.3-2.7,2.2-4.3,5.2-4
		C132.2,428,133.3,429.7,133.3,432.3z"/>
	<path class="st10" d="M417.4,427.2c2.7,0.3,4.7,1.6,4.9,4.6c0.2,2.9-1.3,4.9-4.2,5.2c-3.1,0.3-5.1-1.4-5.2-4.7
		C412.7,429.2,414.5,427.8,417.4,427.2z"/>
	<path class="st11" d="M242.6,432.2c-0.4,2.9-2,4.9-4.9,4.7c-2.8-0.1-4.7-1.9-4.7-4.8c0-3,2.1-4.6,4.9-4.6
		C240.8,427.4,242.4,429.4,242.6,432.2z"/>
	<path class="st10" d="M363.9,432.3c-0.5,2.7-2,4.7-4.9,4.7c-3,0-5-2-4.9-5.1c0.1-2.8,2.2-4.5,5-4.4
		C362,427.5,363.5,429.4,363.9,432.3z"/>
</g>
</svg>
