<?xml version="1.0" encoding="utf-8"?>
<!-- Generator: Adobe Illustrator 19.0.0, SVG Export Plug-In . SVG Version: 6.00 Build 0)  -->
<svg version="1.1" id="Calque_1" xmlns="http://www.w3.org/2000/svg" xmlns:xlink="http://www.w3.org/1999/xlink" x="0px" y="0px"
	 viewBox="0 0 612 792" style="enable-background:new 0 0 612 792;" xml:space="preserve">
<style type="text/css">
	.st0{fill:#010101;}
	.st1{fill:#9EA7D8;}
	.st2{fill:#9494A9;}
	.st3{fill:#FBC97F;}
	.st4{fill:#010100;}
	.st5{fill:#020202;}
	.st6{fill:#B1B0B7;}
</style>
<g>
	<path class="st0" d="M409.1,480.2c-35.2,0-70.3,0-105.5,0c-6.7,0-6.7,0-6.6,6.7c0.2,19.9-14,36.3-33.6,38.9
		c-18.8,2.5-36.9-10-41.8-28.7c-1.1-4.2-2-8.5-1-12.8c0.8-3.4-0.2-4.2-3.6-4.1c-21.7,0.1-43.3,0.1-65,0.1c-8.4,0-11-2.6-11-11
		c0-61.5,0-123,0-184.5c0-8.7,2.5-11.3,11.3-11.3c31,0,62-0.1,93,0.1c3.7,0,5-0.6,4.8-4.8c-0.4-9,6.7-16.5,15.7-16.6
		c22.8-0.2,45.7-0.2,68.5,0c9.2,0.1,16.4,7.7,15.8,17c-0.3,4.2,1.1,4.4,4.5,4.4c31-0.1,62-0.1,93,0c9.2,0,11.5,2.4,11.6,11.5
		c0.3,60,0.6,120,0.7,180c0,3.3,1.3,3.3,3.7,3.3c17.7-0.1,35.3,0,53,0c2.2,0,4.4,0,6.1,1.5c1.9,1.7,2.7,3.9,1.9,6.3
		c-0.8,2.3-2.4,4-5.1,4.1c-3.5,0.1-7,0.1-10.5,0.1C475.8,480.2,442.4,480.2,409.1,480.2C409.1,480.2,409.1,480.2,409.1,480.2z"/>
	<path class="st1" d="M153,376.7c0-28.8,0.1-57.6-0.1-86.5c0-3.8,0.9-5,4.9-5c33.8,0.2,67.6-0.3,101.5,0.2
		c23.8,0.4,47.6,0.6,71.4,0.2c37.1-0.6,74.3,0,111.4-0.4c4,0,5.4,0.9,5.4,5.1c0.6,57.8,1.3,115.6,2.1,173.4c0,3.4-0.8,4.5-4.4,4.5
		c-49.8-0.1-99.6-0.1-149.4,0c-2.6,0-4.2-0.8-5.8-2.9c-16.3-22-46.6-21.9-62.8,0.1c-1.5,2-2.8,2.7-5.3,2.7
		c-21.5-0.1-43-0.1-64.5,0.1c-3.8,0-4.6-1.1-4.6-4.7C153.1,434.6,153,405.6,153,376.7z"/>
	<path class="st2" d="M285,487.8c0,14.9-11.5,26.2-26.6,26.1c-14.4,0-26.3-11.8-26.4-26.3c-0.1-14.2,12.4-26.7,26.7-26.7
		C273.4,461.1,285,472.9,285,487.8z"/>
	<path class="st3" d="M300.4,264c10.6,0,21.3,0.1,31.9-0.1c3.6-0.1,6.2,1.2,6.3,4.7c0.1,3.6-2.7,5-6.1,5c-21.6,0-43.2,0-64.8,0
		c-3,0-5.7-1-5.7-4.8c0-4,2.5-4.9,6-4.9C278.7,264,289.6,264,300.4,264z"/>
	<path class="st0" d="M415.7,377.2c0,9.8,0,19.7,0,29.5c-0.1,13.2-7.3,20.5-20.3,20.5c-18,0-36,0-54,0c-12.7,0-20.2-7.5-20.2-20.1
		c0-20,0-40,0-60c0-13.2,7.2-20.5,20.3-20.6c18-0.1,36-0.1,54,0c12.9,0.1,20.1,7.4,20.2,20.2C415.7,356.8,415.7,367,415.7,377.2z"/>
	<path class="st4" d="M184.8,376.7c0-10.3-0.1-20.7,0-31c0.1-11.6,7.3-19.1,18.9-19.3c18.8-0.2,37.6-0.2,56.5,0
		c11.5,0.1,18.8,7.9,18.8,19.5c0,20.7,0,41.3,0,62c0,11.4-7.7,19.1-19,19.2c-18.8,0.1-37.6,0.1-56.5,0c-10.9,0-18.5-7.5-18.7-18.4
		c-0.1-5.3,0-10.7,0-16C184.8,387.4,184.8,382.1,184.8,376.7z"/>
	<path class="st5" d="M258.9,481c3.8,0.1,6.3,2.8,6.2,6.8c-0.1,3.9-2.7,6.3-6.6,6.2c-3.8-0.1-6.6-3-6.4-6.6
		C252.2,483.9,255.4,480.9,258.9,481z"/>
	<path class="st6" d="M333,376.8c0-10.2,0-20.3,0-30.5c0-5.6,2.6-8.2,8.2-8.3c18.1-0.1,36.3-0.1,54.4,0c5.6,0,8.3,2.7,8.3,8.2
		c0,20.5,0,40.9,0,61.4c0,5.1-2.4,7.9-7.5,8c-18.6,0.2-37.3,0.2-55.9,0c-5.3,0-7.5-2.8-7.5-8.4C333,397.1,333,386.9,333,376.8z"/>
	<path class="st6" d="M267.1,377c0,10.2,0,20.3,0,30.5c0,5.8-2.2,8.2-8.1,8.2c-18.1,0.1-36.3,0.1-54.4,0c-5.7,0-8.3-2.7-8.3-8.3
		c-0.1-20.3-0.1-40.6,0-60.9c0-5.9,2.7-8.4,8.6-8.4c18,0,35.9,0,53.9,0c6.1,0,8.2,2.2,8.3,8.5C267.1,356.7,267.1,366.9,267.1,377z"
		/>
</g>
</svg>
