<?xml version="1.0" encoding="utf-8"?>
<!-- Generator: Adobe Illustrator 19.0.0, SVG Export Plug-In . SVG Version: 6.00 Build 0)  -->
<svg version="1.1" id="Calque_1" xmlns="http://www.w3.org/2000/svg" xmlns:xlink="http://www.w3.org/1999/xlink" x="0px" y="0px"
	 viewBox="0 0 612 792" style="enable-background:new 0 0 612 792;" xml:space="preserve">
<style type="text/css">
	.st0{fill:#023768;}
	.st1{fill:#A1A1AC;}
	.st2{fill:#7FCCEE;}
	.st3{fill:#C9CACF;}
	.st4{fill:#94817B;}
	.st5{fill:#B9B9C6;}
	.st6{fill:#8A7C78;}
	.st7{fill:#F2FBFB;}
	.st8{fill:#C8B872;}
	.st9{fill:#EAEDEF;}
	.st10{fill:#F7F7F7;}
	.st11{fill:#164570;}
	.st12{fill:#92926F;}
	.st13{fill:#093C6B;}
	.st14{fill:#083A69;}
	.st15{fill:#184673;}
	.st16{fill:#FCFCFC;}
	.st17{fill:#FAFBFB;}
	.st18{fill:#053868;}
	.st19{fill:#214D78;}
	.st20{fill:#063968;}
	.st21{fill:#F5FDFD;}
	.st22{fill:#F6A959;}
	.st23{fill:#F6A859;}
	.st24{fill:#EAA359;}
	.st25{fill:#0A3C6B;}
	.st26{fill:#2B4964;}
	.st27{fill:#E2D9C9;}
</style>
<g>
	<path class="st0" d="M357.8,277.9c2.4-5.8,5.6-8.1,11.1-6.8c33.9,8.3,63.6,23.7,84.4,52.9c15.8,22.1,20.9,47.1,19.2,73.8
		c-0.7,11.3-2.8,22.4-5.5,33.5c-1.1,4.6-3.3,7.9-7.9,9.1c-0.2,0.9,0,1.4,0.6,1.8c14.1,10.3,19,25.1,20.2,41.7
		c1.4,19.1-1.6,37.9-4.5,56.6c-1.3,8.4-2.5,16.8-3.5,25.2c-0.3,2.5-1,3.7-3.6,4.5c-18.9,6.1-38.3,9.8-58.1,11.7
		c-47.1,4.4-92.9-2.7-138.4-14.3c-34.4-8.8-69.6-12-105.1-7.5c-26,3.2-50.8,10.1-73.1,25.9c-0.1-1.9-0.3-3.5-0.3-5
		c0-40.3,0-80.7-0.1-121c0-3.9,1-5.5,5-6c9.4-1.1,18.8-2.8,28.2-4c3.1-0.4,3.2-1.4,2.5-4.1c-6.6-24.8-13-49.8-19.7-74.6
		c-1.2-4.5-0.2-5.3,4.1-5.2c14,0.2,28,0.1,42,0.2c2.7,0,4.5-0.6,6.4-2.8c6.7-7.7,14.7-12,25.7-11.8c27.7,0.5,55.3,0.2,83,0.1
		c3,0,5.5,0.7,7.8,2.5c5.1,4,10.3,7.9,15.4,11.9c12,0.7,23.9-0.1,35.9,0.4c15.6,0.7,31.2-1.9,46.8-1c17.5,0.2,35,0,52.4,0.2
		c2.6,0,6.3-1.1,7.4,2.3c1.1,3.2-2,5-4.2,6.7c-27.1,21.2-54,42.8-82.1,64.2c14.5-3.8,28-1.3,41.4,1.8c9.6,2.2,19,5,28.7,6.4
		c9.7,1.4,18.9-0.3,27.6-4.6c2.5-1.2,3.7-2.5,1.6-5.3c-2.5-3.4-2.2-7.3-1.1-11.1c3-10.8,4.8-21.9,5-33c0.5-24-5.4-46.2-21.5-64.8
		c-13.5-15.5-30.4-26.2-49.8-33.1c-1.6-0.6-3.3-1.9-5.1-0.2c-1.4,8.3-0.2,16.5-0.6,24.8c-0.1,2,0.1,4-0.3,5.9
		c-0.3,1.2-0.7,2.4-2.1,2.4c-1.4,0-1.8-1.2-2.2-2.3c-0.1-0.5-0.2-1-0.2-1.5c0.1-11.8-0.5-23.5,0.3-35.3c1.2-2.8,3.5-2.1,5.6-1.5
		c17.5,5.7,33.5,13.9,47.5,26c18.5,16.1,29.7,36.1,32.9,60.5c2.2,16.6,0.7,32.8-3.1,49c-0.6,2.6-1.6,5.1-1.4,7.8
		c0.1,1.9,0.7,3.7,2.9,4.2c2.2,0.6,3.9-0.2,5.2-2c0.7-1,1.1-2,1.4-3.2c7.2-28.7,8.8-57.3-2.9-85.3c-8.6-20.5-23.1-36.1-41.5-48.1
		c-14.8-9.6-30.7-16.7-48-20.6c-5.5-1.2-6.6-0.6-8.7,4.6c-0.9,12.8-0.1,25.6-0.4,38.5c0,2,0.1,4-0.2,6c-0.2,1.4-0.3,3.4-2.4,3.1
		c-1.9-0.2-1.3-2.1-1.3-3.3c0-12.5-0.1-25,0-37.5C357.5,284.2,357.1,281.1,357.8,277.9z"/>
	<path class="st1" d="M357.8,277.9c0,16.4,0,32.9,0,50.6c3-2.5,2.4-4.4,2.4-6c0-12.8,0-25.6,0-38.4c0-1.8-0.5-3.7,0.6-5.3
		c1.9,1.8,1.6,4.3,1.6,6.6c0.1,9.8,0,19.6,0,29.4c0,1.3-0.1,2.7,0,4c0.4,3-1.4,7.4,4.1,7.4c5.2-0.1,3.6-4.3,3.7-7.1
		c0.2-8.5-0.1-17,0.2-25.4c0.1-2.1-0.8-4.9,2.5-5.6c0,13.1,0,26.2,0,40c2.9-1.5,2.2-3.3,2.2-4.8c0.1-8.8,0-17.6,0.1-26.4
		c0-1.6-0.7-3.3,0.8-4.7c1.5,1.6,1.5,3.6,1.5,5.6c-0.5,21.6,1.7,43.1,1.1,64.6c0,1.5,0.1,3-0.6,4.4c-26.8,0.1-53.7,0.2-80.5,0.2
		c-1.3,0-2.7,0.5-3.7-0.8c18,0,35.9,0,53.9,0c8.4,0,7.2,1,7.3-7.5c0.1-5.2-0.5-10.4,0.1-15.5c2.3-20.8,1.7-41.6,1.9-62.4
		C357,279.7,357,278.7,357.8,277.9z"/>
	<path class="st2" d="M446,503.3c6,3,10.3,1.2,12-5.3c1.3-4.8,0.8-9.6,0.7-14.4c0-2.9,0.5-4.6,3.5-6.1c9-4.7,9.3-18.2,0.4-23
		c-4.1-2.2-4.4-4.5-3.4-8.6c5.5,3.8,9,8.8,11.7,14.3c3.7,7.4,5.4,15.3,6,23.5c1.6,21.3-2.2,42.1-5.4,63c-0.9,5.6-1.9,11.2-2.4,16.8
		c-0.2,2.9-1.4,3.8-4,4.7c-29.2,9.1-59.2,12.4-89.7,12.1c-33.7-0.4-66.5-6.4-99-14.6c-32.6-8.3-65.8-12.2-99.5-9.5
		c-27.6,2.2-54.2,8.4-78.3,23c-0.5,0.3-1.1,0.5-1.7,0.8c-1.3-1.6-0.7-3.4-0.7-4.9c0-37.5,0-75-0.1-112.5c0-3.5,0.6-4.9,4.6-5.7
		c31.8-6.8,64-4.4,96.1-4.6c43.5-0.2,87-0.1,130.5-0.1c2,0,3.9,0.1,5.7-1.1c15.7-10.6,32.9-11.3,50.8-7.4c11.4,2.4,22.5,5.9,34,7.7
		c13.1,2,25.1-0.3,36.6-7.9c0.4,5.1,1.1,8.6-4.7,11.5c-9,4.6-7.9,18.4,1.3,22.8c2.9,1.4,4,2.7,3.7,5.9c-0.3,3.3,0,6.7-0.1,10
		c-0.1,2.5-0.1,5-2.6,6.6c-0.7-0.2-1.1-0.7-1.3-1.3c-1.1-2.6-2.7-5-5.8-3.9c-3.1,1-6.1,2.6-5.7,6.8c1.2,1.6,2.7,0.4,4.1,0.4
		C444.6,502.2,445.6,502.2,446,503.3z"/>
	<path class="st3" d="M399.7,393.9c-6,6.4-13.9,10.6-20.2,16.7c-7.7,7.5-16.3,9.5-26.9,9.4c-73.9-0.4-147.9-0.3-221.8-0.1
		c-4.3,0-6.1-1.2-6.9-5.4c-1-5.4-2.4-10.7-4.1-15.9c-1.3-3.9-0.7-5.1,3.7-5.1c26.8,0.2,53.6,0.1,80.4,0.1c35.3,0,70.6,0,105.9,0
		c0.7,0.3,1,1,1.3,1.7c1.2,5.4,3.6,10,8.4,13.1c1.1,0.7,2.5,2.5,3.8,0.6c1-1.4-0.1-2.9-1.4-3.9c-3.5-2.6-5.8-5.9-6.5-10.2
		c0.2-0.9,0.6-1.5,1.5-1.9c8.4-1,16.9-0.9,25.3,0c0.8,0.4,1.3,0.9,1.5,1.8c-0.3,4.5-2.8,7.7-6.2,10.3c-1.4,1.1-2.8,2.5-1.5,4.1
		c1.3,1.5,2.7-0.1,3.9-0.8c5-3.2,6.9-8.3,8.4-13.7c0.4-0.8,1-1.3,2-1.3c14.7,0.1,29.5,0,44.2,0.1C396.1,393.5,398,393.1,399.7,393.9
		z"/>
	<path class="st4" d="M363.7,422.9c-11.7,9.1-22.1,17.2-32.5,25.4c-1.3,1-2.9,0.8-4.3,0.8c-63.3,0-126.6,0-189.9,0.1
		c-3,0-4.5-0.9-5.1-3.9c-1.2-5.7-2.7-11.3-4.4-16.9c-1.3-4.1-1-5.6,4-5.6c68.5,0.2,136.9,0.1,205.4,0.1
		C345.3,422.9,353.7,422.9,363.7,422.9z"/>
	<path class="st4" d="M309.8,391c-6-0.1-12-0.2-18-0.2c-56.1,0-112.2-0.1-168.3,0.1c-4.5,0-6.6-1.2-7.4-5.7
		c-0.8-4.6-2.1-9.1-3.4-13.5c-0.6-2.1,0-2.7,2-2.7c1.3,0,2.7,0,4,0c42,0,83.9-0.3,125.9,0.3c25.8,0.4,51.6,0,77.4,0.6
		c0.8,0.8,0.9,1.7,0.6,2.7c-3.9,3.9-8.6,7.1-10.6,12.6c-0.6,1-0.7,2.2-0.9,3.3C310.9,389.5,310.7,390.5,309.8,391z"/>
	<path class="st5" d="M373,288c-1.8,1.4-1,3.4-1,5.1c-0.1,9.7-0.2,19.3,0.1,29c0.1,4.4-0.9,6.1-5.7,6c-4.7,0-5.4-1.7-5.4-5.8
		c0.2-14.5,0-29-0.1-43.5c0.7-4.3,3.7-5.7,7.3-4.7c45.4,11.8,82.1,34.1,97.1,81.8c8,25.5,5,51-1.5,76.4c-1,3.8-3.6,5.7-7.5,4.7
		c-4.5-1-5-4.5-4.1-8.2c2.6-10.9,4.6-21.8,5.2-33c1.8-36.8-11.6-66.3-41.6-87.9C402.7,298.6,388.6,291.8,373,288z"/>
	<path class="st4" d="M322,372.7c0-0.9,0-1.8,0-2.7c1.7,0.1,3.7-0.9,5.1,0.9c0.4,2.3,0,4.7,0.7,7c0.4,5-3.4,7.5-6.7,10.5
		c8.3,0.7,9.4-0.1,13.6-9.3c2.7-0.9,3.7,1.4,5.3,2.7c1.2,1.1,2,2.7,3.6,3.4c0.9,0.4,2,0.8,2.7-0.1c0.6-0.7,0-1.6-0.3-2.3
		c-1.6-2.9-3.6-5.5-6.5-7.4c-2.7-1.7-4.3-1.6-4.5,2c0,0.7-0.5,1.2-0.8,1.8c-1,0.4-1.9,0.3-2.4-0.7c0-2.5-0.2-5.1-0.7-7.6
		c0.5-1.1,1.6-1.1,2.6-1.1c32.1,0,64.2,0,98,0c-9.5,7.3-17.8,13.8-26.1,20.2c-1.6,1.2-3.5,0.7-5.3,0.7c-14.8,0-29.6,0-44.5,0
		c-1.8,0-3.7-0.6-5.4,0.9c1,2.2,3.1,1.4,4.7,1.4c14.8,0.1,29.6,0,44.5,0c0.2,0,0.3,0,0.5,0.1c0.4,0.2,0.4,0.4,0,0.7
		c-16.9,0-33.8,0-50.6,0c-0.1-0.1-0.3-0.2-0.4-0.3c-2.5-5.1-2.5-5.1-7-1.5c-8.3,0.6-16.5,0.8-24.8-0.1c-2.1-1.6-4.5-2.5-6.8-3.8
		c-0.1-1.1-0.3-2.3,0.7-3.2c3.8,0.7,11.7-4.6,12.6-8.4C323.8,374.9,322.6,373.9,322,372.7z"/>
	<path class="st6" d="M163.3,366.2c7.3-7.4,13.8-11.6,23.3-11.5c26.8,0.5,53.6,0.5,80.4,0c9.9-0.2,14.9,6.2,22.6,11.9
		C246.9,367.4,205.8,365.8,163.3,366.2z"/>
	<path class="st7" d="M456.5,457.1c4.4,0,8.3,4.1,8.3,8.8c0,4.6-3.6,8.4-8,8.5c-4.6,0.1-8.5-3.7-8.5-8.5
		C448.2,461.2,452.1,457.1,456.5,457.1z"/>
	<path class="st8" d="M437.9,502.8c0-4.3,3-8.6,6.8-9.6c3.6-1,6.9,2,7.6,6.9c-1,3.2-4.1,2.2-6.3,3.2c-1-0.1-1.9-0.2-2.9-0.3
		C441.4,502,439.6,504.2,437.9,502.8z"/>
	<path class="st9" d="M330.9,370.9c3.5,2,2.8,4.6,1.1,7.3c-1.7,1.3-3.4,1.1-5.1,0c-1.8-2.5-1.6-4.9,0.1-7.3
		C328.4,370.9,329.6,370.9,330.9,370.9z"/>
	<path class="st10" d="M310.1,388.1c2.2,0.5,5.8-1.9,6.1,2.8c0.6,0.9,0.7,1.8,0,2.7c-0.1,0.7-0.2,1.5-0.2,2.2
		c-1.9,1.7-3.9,1.5-5.9,0.3c-0.1-0.9-0.2-1.7-0.3-2.6c0-0.9,0-1.8,0-2.7C309.9,390,310,389.1,310.1,388.1z"/>
	<path class="st11" d="M365.5,526.2c1.4-3.3,5.9-5,5.3-7.7c-0.5-2.2-4.6-3.5-6.9-5.4c-6-4.8-8.6-5-15.1-0.5c-2.7,1.9-5.3,4-8.4,5.3
		c-1.2,0.5-2.6,1-3.7-0.2c-1-1-0.4-2.1-0.1-3.3c1.3-4.1,6.1-6.8,6.4-10.4c0.3-3.4-5-6.1-5.4-10.6c-0.2-2-0.8-4.2,1.3-5.4
		c2-1.1,3.2,1,4.6,2.1c1.8,1.5,3.6,2.9,5.6,4.1c7.7,4.6,7.7,4.5,14.3-1.3c0.5-0.4,1-1,1.5-1.3c4.8-2.4,6.7-5.3,1.9-9.6
		c-1.6-1.4-1.6-2.8,1-3.3c2.3-0.4,4.4-1.2,6.7,0.2c4.7,3,10,4,15.5,4.8c11.1,1.5,17.6,10,24.3,17.8c1.5,1.8-0.1,3.2-1.2,4.3
		c-7.9,8.7-15.6,17.6-29,16.9c-2.6-0.1-4.7,1.6-6.8,2.9C373.5,527.9,369.8,528.6,365.5,526.2z"/>
	<path class="st12" d="M437.9,502.8c3.4-2.4,3.4-2.4,5.2,0.2C441.3,504.3,439.6,504.8,437.9,502.8z"/>
	<path class="st13" d="M310.1,396.3c2-0.1,3.9-0.2,5.9-0.3c2.3,3.4,4.1,7.1,8,9.2c2.5,1.3,1.8,4.4,0.9,6.2c-1,1.8-3,0-4.3-0.7
		C314.7,407.6,311.6,402.5,310.1,396.3z"/>
	<path class="st14" d="M348.9,396.2c-1.3,6.4-4.6,11.3-10.4,14.4c-1.3,0.7-3.5,2.9-4.5,0.4c-0.7-1.7-1.5-4.7,1.3-6.1
		c3.8-1.9,5.6-5.5,7.6-8.9C345,394.4,347,394.3,348.9,396.2z"/>
	<path class="st15" d="M316.2,393.7c0-0.9,0-1.8,0-2.7c8.9,0,17.8,0,26.7,0c0.9,1,0.9,1.9-0.1,2.8
		C333.9,393.7,325.1,393.7,316.2,393.7z"/>
	<path class="st16" d="M342.8,393.8c0-0.9,0-1.9,0.1-2.8c0.6-0.9-1.6-3.4,1.4-2.8c1.6,0.3,4.3-1.6,4.7,1.8c0.1,1.3,0.1,2.6,0.1,3.9
		c0,0.8-0.1,1.5-0.1,2.3c-2-0.1-4-0.2-6-0.2C342.9,395.2,342.9,394.5,342.8,393.8z"/>
	<path class="st17" d="M329.5,407c1.6-0.1,3.7-1.2,3.4,2.1c-0.2,2.2-0.6,3.8-3.3,3.9c-2.9,0.1-3.4-1.5-3.6-4
		C325.8,405.5,328.1,407.1,329.5,407z"/>
	<path class="st18" d="M322,372.7c1,0.1,2.6-1.4,2.8,0.5c0.3,2,1.3,4.4-1,6c-2.7,1.8-4.5,4.4-6.6,6.7c-1.9,2.1-4.8,3-6.5-0.8
		C313.1,379.6,316.6,375.3,322,372.7z"/>
	<path class="st19" d="M460.1,429.4c-0.2,1.5-0.9,2.2-2,2.1c-1.1-0.1-1.8-0.9-1.8-2c0.1-1.1,0.9-1.7,2-1.7
		C459.6,427.8,460,428.7,460.1,429.4z"/>
	<path class="st20" d="M334,378.9c0.3-2.2-1.2-5.4,0.8-6.4c2.1-1,4.5,1.4,6.5,2.8c2.6,1.9,4.5,4.5,5.7,7.4c0.6,1.3,2.4,3.3,0.3,4.2
		c-1.7,0.7-4.4,1.2-5.8-1.1c-1.7-2.7-3.6-5.2-6.6-6.5C334.6,379.4,334.3,379.3,334,378.9z"/>
	<path class="st4" d="M334,378.9c0.3,0,0.6,0.1,0.9,0.3c-0.8,8.6-5.2,11.4-16.5,10.3c2.5-4.2,8.5-5.7,8.5-11.4c1.7,0,3.4,0,5.1,0
		C332.7,378.5,333.4,378.7,334,378.9z"/>
	<path class="st21" d="M385.4,485c7.3,0,7.4,0.1,5.5,5.6c-3,8.6-1.7,17.1,1.4,25.3c1.8,4.7-0.2,5.1-3.7,5.1
		c-13.3,0.1-22.8-7-31.1-16.3c-0.9-1-1-2-0.1-3.1C365.1,492.3,374.3,485.7,385.4,485z"/>
	<path class="st22" d="M395.9,487c1.6,1.1,3.7,2.2,5.4,3.7c15.3,13.7,15.2,11.1,0.1,24.6c-5.9,5.2-6.3,4.8-8.4-2.8
		c-2.2-7.7-2.9-15.3,0.1-22.9C394,487,394.2,486.9,395.9,487z"/>
	<path class="st23" d="M337.8,517.3c0.5-4.7,2.8-7.4,5.1-9.8c2.7-2.7,3.3-4.6-0.1-7.3c-3-2.5-4.3-6.1-3.7-10.9
		c2.9,2.1,5.3,4.2,8,5.9c2.8,1.7,5.9,3,9,4.6c-0.9,1.8-3.3,3.8-0.2,6c0.8,0.6,0.8,1.7-0.2,1.9C349.3,509.2,344.7,514.6,337.8,517.3z
		"/>
	<path class="st24" d="M379.4,483.6c-3.5,1.3-7.1,5.6-10-0.5c-0.4-0.8-1.6-1.7-0.8-2.6c0.5-0.6,1.8-0.8,2.8-0.7
		C374.4,480,376.7,482.2,379.4,483.6z"/>
	<path class="st24" d="M379.8,522.5c-3.7,1.5-6.6,4.9-11.1,3.2C371.6,518.8,372.9,518.4,379.8,522.5z"/>
	<path class="st25" d="M374.4,505.4c4.4,1.7,5.4-2.3,7.5-4.5c0.7-0.7,1.2-2.5,2.6-1.4c1.1,0.9,0.2,2-0.4,3.1
		c-2.6,4.7-6.3,6.8-11.8,5.8c-2.2-0.4-3.1-1-1.8-3.1c0.1-0.1,0.2-0.3,0.3-0.4c2.1-2.3,3.4-7.9,6.1-6.5
		C379.7,499.6,374.2,502.4,374.4,505.4z"/>
	<path class="st26" d="M405.8,500.5c-0.4,2.4-1.7,4.1-4.1,4.2c-2.7,0.1-4.4-1.7-4.3-4.4c0.1-2.4,1.8-4,4.3-4
		C404,496.4,405.4,498,405.8,500.5z"/>
	<path class="st27" d="M403.9,500.6c-0.3,1.4-1.1,2.3-2.6,2.2c-1.3-0.1-2.1-1-2.1-2.2c-0.1-1.5,0.9-2.5,2.4-2.5
		C403,498.1,403.8,499.1,403.9,500.6z"/>
</g>
</svg>
