<?xml version="1.0" encoding="utf-8"?>
<!-- Generator: Adobe Illustrator 19.0.0, SVG Export Plug-In . SVG Version: 6.00 Build 0)  -->
<svg version="1.1" id="Calque_1" xmlns="http://www.w3.org/2000/svg" xmlns:xlink="http://www.w3.org/1999/xlink" x="0px" y="0px"
	 viewBox="0 0 612 792" style="enable-background:new 0 0 612 792;" xml:space="preserve">
<g>
	<path d="M475.5,510.2c0,9.4,0,18.5,0,27.7c0,1.3,0,2.7,0,4c0,10.1,0,10-10.3,11.1c-17.8,2-34-1.9-48.5-12.7
		c-9.8-7.3-23.1-6.9-33.1,0.4c-23.6,17.3-54.6,17.4-78.3,0.3c-11.1-8-23.7-7.9-34.8,0.1c-23.2,16.8-54.4,16.9-77.5,0.1
		c-11.2-8.1-23.7-8.1-34.7-0.2c-16.2,11.6-34.2,15-53.6,10.9c-1.6-0.3-4-2.4-4-3.6c-0.3-12.2-0.2-24.3-0.1-36.5
		c0-0.4,0.3-0.9,0.6-1.7c6.4,4.6,13.4,7.1,21.1,5.9c4.2-0.6,8.7-1.8,12.1-4.2c9.1-6.5,18.8-11.2,30.6-13.2c-1.5-1.9-2.7-3.5-3.9-5
		c-19.3-22.9-38.7-45.8-57.9-68.8c-1.5-1.8-2.5-4.7-2.6-7.1c-0.3-9.3-0.1-18.7-0.1-28c0-1.6,0.2-3.2,0.3-5.1c25,0,49.5,0,74.7,0
		c0,12.4,0,24.5,0,36.9c12.6,0,24.7,0,37.4,0c0-18.3,0-36.7,0-55.4c19,0,37.4,0,56.3,0c0,18.4,0,36.7,0,55.3c12.7,0,24.9,0,37.7,0
		c0-31,0-61.9,0-93.3c12.7,0,24.8,0,37.2,0c0-12.5,0-24.4,0-36.9c6.3,0,12.2,0,18.7,0c0-37.7,0-74.9,0-112.5c12.8,0,25,0,37.9,0
		c0,37.3,0,74.5,0,112.1c6.4,0,12.2,0,18.6,0c0,12.5,0,24.5,0,37c12.7,0,24.8,0,37.5,0c0,31.3,0,62.2,0,93.6c6.2,0,11.8,0,19,0
		c-22,26-43,50.9-64.6,76.5c1.8,0.5,3,0.7,4.1,1.2c7.9,3.5,16.2,6.2,23.4,10.7c11.8,7.6,22.9,8.4,35,1
		C473.9,510.7,474.4,510.6,475.5,510.2z M400.2,366.3c-12.6,0-24.7,0-36.8,0c0,12.5,0,24.7,0,36.9c12.4,0,24.5,0,36.8,0
		C400.2,390.7,400.2,378.7,400.2,366.3z"/>
</g>
</svg>
