<?xml version="1.0" encoding="utf-8"?>
<!-- Generator: Adobe Illustrator 19.0.0, SVG Export Plug-In . SVG Version: 6.00 Build 0)  -->
<svg version="1.1" id="Calque_1" xmlns="http://www.w3.org/2000/svg" xmlns:xlink="http://www.w3.org/1999/xlink" x="0px" y="0px"
	 viewBox="0 0 612 792" style="enable-background:new 0 0 612 792;" xml:space="preserve">
<g>
	<path d="M28.4,580.3c-2.1-5.1-4-9.7-6.4-15.6c10.2-2.6,19.8-5.8,29.6-7.5c26.5-4.8,52.4-1.6,77.4,8.5c4.9,2,10,3.3,15,5
		c0.2-0.4,0.4-0.7,0.6-1.1c-41.3-46.2-82.6-92.5-124.5-139.4c107.2,0,213.5,0,320.3,0c0-100.8,0-201.2,0-302c5.6,0,10.7,0,16.3,0
		c0.2,2.3,0.3,4.7,0.5,7.5c56.1,0,112,0,168.8,0c-1.2,2.3-2,3.8-2.9,5.4c-10.7,18.8-21.4,37.6-32.3,56.3c-1.7,2.9-1.6,4.8,0,7.6
		c10.5,18.1,20.9,36.4,31.3,54.6c1.1,2,2.3,4,3.8,6.8c-56.6,0-112.5,0-168.7,0c0,54.7,0,108.7,0,163.4c55,0,110.2,0,166.1,0
		c-14,42.1-27.8,83.4-41.7,125.3c15.9,1.4,31.2,3.9,46.2,10.3c-2,5-4,9.8-5.5,13.5c-13.4-2.5-26-5.6-38.8-7.1
		c-18.3-2.1-36.2,1-53.4,7.8c-36.9,14.7-73.5,14.6-110.5,0.1c-29.6-11.6-59.7-11.7-89.3-0.1c-37.1,14.6-73.8,14.6-110.9-0.1
		c-28.3-11.2-57.2-11-86-1.1C32.1,579.1,30.5,579.6,28.4,580.3z M500.3,446.6c-147.8,0-295.2,0-443.2,0c1.3,1.7,2.2,2.9,3.2,4
		c36,40.3,71.9,80.6,108,120.7c1.5,1.7,4.5,2.9,6.8,2.9c16.5,0.4,32.4-3,47.8-9c34.9-13.7,69.9-13.6,104.8,0
		c31.7,12.4,63.1,12.1,95,0.2c11.9-4.4,24.7-6.6,37.2-9.1c3.5-0.7,5.1-1.9,6.1-5.1c10.9-33.2,22-66.3,33-99.5
		C499.4,450.1,499.8,448.5,500.3,446.6z M357.2,249.8c46.9,0,93.3,0,140.3,0c-1.2-2.3-2.2-4-3.1-5.7c-7.5-13.2-14.9-26.3-22.6-39.4
		c-1.4-2.5-1.5-4.3,0-6.7c7.9-13.5,15.6-27.1,23.3-40.7c0.8-1.5,1.5-3,2.4-4.8c-47.2,0-93.6,0-140.3,0
		C357.2,185,357.2,217.2,357.2,249.8z"/>
	<path d="M528,608.9c-2.2,5.2-4.1,9.8-5.9,14.3c-8.4-2.2-16.4-4.7-24.7-6.3c-22.8-4.3-45.3-2.7-66.7,6.1
		c-35.7,14.6-71.3,14.2-107.2,1.3c-33.3-12-66.3-12.7-99.4,1c-7.9,3.3-16.5,5.2-25,6.7c-25.5,4.6-50.5,2.3-74.6-7.3
		c-31.1-12.4-62.1-13.4-93.5-1.8c-0.5,0.2-1,0.3-1.4,0.4c-0.3,0.1-0.6,0-1.3-0.1c-1.8-4.5-3.7-9-5.9-14.2c1.6-0.7,3-1.5,4.5-2
		c32.8-11.7,65.8-12.1,98.2,0.6c33.6,13.2,66.5,13.3,100.1,0.1c33.1-13,66.9-13,100,0c33.4,13.1,66.2,13.2,99.6,0
		c32.4-12.7,65.3-12.5,98.2-0.9C524.5,607.4,526,608.1,528,608.9z"/>
</g>
</svg>
