<?xml version="1.0" encoding="utf-8"?>
<!-- Generator: Adobe Illustrator 19.0.0, SVG Export Plug-In . SVG Version: 6.00 Build 0)  -->
<svg version="1.1" id="Calque_1" xmlns="http://www.w3.org/2000/svg" xmlns:xlink="http://www.w3.org/1999/xlink" x="0px" y="0px"
	 viewBox="0 0 612 792" style="enable-background:new 0 0 612 792;" xml:space="preserve">
<g>
	<path d="M128.4,423.4c11.2-2.5,22.4-2.9,33.6,0.2c11.4,3.2,21,9.1,27.4,19.5c16.6-25,52.2-26,72.4-15.3c5.8,3.1,10.9,7.1,14.6,12.6
		c1.6,2.4,2.3,2.6,4,0.1c16.5-24.2,62-25.5,81.8-3.9c1.8,1.9,3.3,4.1,5,6.3c13.7-19.3,33.3-23.2,55.2-20.9c11,2.3,21,6.3,28.8,14.8
		c8.5,9.3,10.8,23.2,5.2,32.6c-19-32.2-76.5-27.9-89.1,0.9c-9.7-17.6-25.9-23.2-44.3-23.3c-18.4,0-34.7,5.5-44.5,22.9
		c-9.8-17.1-26.1-23-44.6-22.9c-18.3,0.1-34.7,5.5-44.3,23.4c-12.6-28.7-69.9-33.3-89.5-0.2c-4.2-10.8-3.4-20.5,2.7-29.7
		c5.2-7.8,12.9-12.4,21.4-15.6C125.6,424.3,127,423.9,128.4,423.4z"/>
	<path d="M268.3,286.3c-0.5,3.9,2.2,10.2-1.1,13.4c-3,2.9-9.2,0.7-13.9,0.9c-4.1,0.1-8.3-0.1-12.4,0.1c-2.5,0.1-3.5-0.7-3.5-3.4
		c0.1-8,0.1-15.9,0-23.9c0-2.9,1.1-3.7,3.9-3.7c7.8,0.1,15.6,0.1,23.4,0c2.8-0.1,3.8,1,3.7,3.8C268.2,277.4,268.3,281.4,268.3,286.3
		z"/>
	<path d="M272.6,308.8c4,0,8,0.1,12,0c2.5-0.1,3.6,0.9,3.6,3.5c-0.1,8-0.1,15.9,0,23.9c0,2.6-1,3.5-3.6,3.5c-8-0.1-15.9-0.1-23.9,0
		c-2.7,0-3.4-0.9-3.4-3.5c0.1-8,0.1-15.9,0-23.9c0-2.5,0.8-3.6,3.4-3.5C264.6,308.9,268.6,308.8,272.6,308.8z"/>
	<path d="M233,340.3c-3.8,0-7.7-0.1-11.5,0c-2.9,0.1-4.2-0.7-4.1-3.9c0.2-7.8,0.1-15.6,0-23.4c0-2.5,0.8-3.6,3.4-3.5
		c8,0.1,16,0.1,23.9,0c2.4,0,3.6,0.6,3.6,3.3c-0.1,8-0.2,16,0,23.9c0.1,3-1.3,3.7-3.9,3.6C240.6,340.2,236.8,340.3,233,340.3z"/>
	<path d="M228.3,364c0,3.2-0.2,6.3,0.1,9.5c0.4,4-0.8,5.6-5.1,5.4c-7.1-0.4-14.3-0.3-21.5,0c-3.6,0.1-4.6-1.2-4.5-4.6
		c0.2-7.3,0.2-14.6,0-22c-0.1-3,0.8-4.2,3.9-4.1c7.8,0.2,15.6,0.2,23.5,0c2.9-0.1,3.7,1.1,3.6,3.8
		C228.2,356.1,228.3,360.1,228.3,364z"/>
	<path d="M251.8,378.8c-4-0.6-10.3,2.2-13.5-1.1c-2.9-3.1-0.7-9.2-0.8-14c-0.1-3.8,0.1-7.7-0.1-11.5c-0.1-2.6,0.6-4,3.6-4
		c8,0.1,16,0.1,24,0c2.6,0,3.5,0.8,3.5,3.4c-0.1,8-0.1,16,0,24c0,2.4-0.9,3.2-3.2,3.2C261,378.8,256.8,378.8,251.8,378.8z"/>
	<path d="M291.5,378.8c-4-0.6-10.4,2.2-13.5-1.1c-2.8-3-0.6-9.2-0.8-14c-0.1-4,0.1-8-0.1-12c-0.1-2.6,0.8-3.5,3.4-3.5
		c8,0.1,15.9,0.1,23.9,0c2.4,0,3.7,0.6,3.6,3.3c-0.1,7.8-0.1,15.6,0,23.4c0,2.7-0.9,3.9-3.8,3.8
		C300.3,378.7,296.4,378.8,291.5,378.8z"/>
	<path d="M454.5,344.4c-19.8,0.2-39.7,0.2-59.5,0c-3.3,0-5.1,1.1-6.9,3.7c-8.1,12-16.4,23.8-24.4,35.8c-2.2,3.2-4.5,4.7-8.5,4.7
		c-61.8-0.1-123.6-0.1-185.5-0.1c-5.6,0-12.3,2.1-16.6-0.8c-4.3-2.9-5.6-9.5-7.8-14.8c-0.8-2-2-3.4-4.4-3.4c-13.3,0-26.7,0-40,0
		c-2.9,0-2.6,1.2-1.1,3c2.8,3.3,5.6,6.6,8.1,10.1c8.8,12.5,16.9,25.5,20.5,40.7c1.2,1.4,2.8,0.9,4.2,0.5c5.4-1.3,10.9-1.3,16.4-1
		c13.2,0.7,25.2,4.8,34.5,14.7c6.1,6.4,6.1,6.9,11.7,0.3c17.7-20.3,61.4-20.5,78.5,1.5c4,5.2,4.8,5,9.1,0c6.1-7,13.3-11.8,22.4-14.3
		c7.7-2.1,15.4-2.9,23.2-2.2c13.7,1.2,25.8,6.2,34.8,17.2c3.7,4.6,4.1,4.6,7.6,0.1c5.1-6.7,11.9-11,19.7-14
		c8.6-3.3,17.5-3.7,26.6-3.5c1.7,0,3.7,0.9,5.2-0.8c11.7-24.3,23.4-48.6,35.3-72.7C459.6,345.3,458.9,344.4,454.5,344.4z
		 M404.6,372.3c-3.2-0.1-6.3-3.3-6.2-7.1c0.6-3.1,2.2-5.7,6.3-5.6c3.9,0.1,6.1,2.3,6.5,6.1C411.5,369,407.9,372.4,404.6,372.3z
		 M428,373.6c-4,0-6.1-2.2-6.5-6c-0.3-3.5,3.2-7,6.6-6.6c3.7,0.4,5.9,2.6,6.3,6.5C433.8,371.1,432,373.5,428,373.6z"/>
</g>
</svg>
