<?xml version="1.0" encoding="utf-8"?>
<!-- Generator: Adobe Illustrator 19.0.0, SVG Export Plug-In . SVG Version: 6.00 Build 0)  -->
<svg version="1.1" id="Calque_1" xmlns="http://www.w3.org/2000/svg" xmlns:xlink="http://www.w3.org/1999/xlink" x="0px" y="0px"
	 viewBox="0 0 612 792" style="enable-background:new 0 0 612 792;" xml:space="preserve">
<g>
	<path d="M235.7,199.5c-0.1-6.9,0.2-13.7,6.4-17.7c3.1-2,7-3.3,10.6-3.4c9.6-0.3,13.6,5.1,16.6,21c24.5,0,49.1,0,73.7,0
		c0.4-3.1,0.5-5.9,1.1-8.7c1.8-8.1,8.9-13.1,17.4-12.5c7.8,0.6,14.6,7,14.5,15.1c-0.1,5.9,2.3,6.5,7.3,6.5
		c39.8-0.2,79.7-0.1,119.5-0.1c16,0,24,8,24,24c0,97.7,0,195.3,0.1,293c0,7-1,13.6-6.3,18.8c-5.2,5.1-11.6,5.9-18.4,5.9
		c-53.5-0.1-107,0-160.5,0c-77.3,0-154.6-0.3-232,0.2c-16.1,0.1-24.4-10.5-24.4-24.3c0.3-97.7,0.1-195.3,0.2-293
		c0-16.7,7.8-24.5,24.4-24.5c40,0,80,0,120,0C231.6,199.8,233.4,199.6,235.7,199.5z M118.2,508.2c125.7,0,250.4,0,375.3,0
		c0-91.9,0-183.4,0-275.6c-3.3,0-6.3,0-9.3,0c-120,0-239.9,0-359.9-0.1c-4.7,0-6.2,1-6.2,6c0.2,87,0.1,174,0.1,260.9
		C118.2,502.2,118.2,505,118.2,508.2z"/>
	<path d="M197.5,558.8c17.4,0,34.3,0,51.8,0c-0.6,2.6-1.1,4.8-1.8,7c-9.9,34.5-19.8,69-29.7,103.5c-2.1,7.4-8.9,12-16.3,10.9
		c-7.5-1.1-12.8-7.6-12.2-15.7c1.3-18.6,2.8-37.2,4.3-55.7C194.8,592.2,196.1,575.7,197.5,558.8z"/>
	<path d="M356.4,558.8c17.3,0,34.2,0,51.7,0c0.5,5.3,1,10.5,1.4,15.8c2.3,30,4.7,60.1,6.9,90.1c0.6,7.6-4.9,14.2-12.2,15.4
		c-7.2,1.1-14.1-3.2-16.1-10.3c-10.2-35.3-20.4-70.6-30.5-105.9C357.2,562.3,356.9,560.7,356.4,558.8z"/>
	<path d="M411.7,489.3c-12.6,0-24.7,0-37.3,0c0-57.8,0-115.5,0-173.6c12.3,0,24.7,0,37.3,0C411.7,373.5,411.7,431,411.7,489.3z"/>
	<path d="M294.3,489.2c-12.6,0-24.9,0-37.7,0c-0.1-1.9-0.2-3.5-0.2-5.1c0-46,0.1-91.9-0.1-137.9c0-4.9,1-6.7,6.3-6.5
		c10.4,0.4,20.9,0.1,31.8,0.1C294.3,389.8,294.3,439.2,294.3,489.2z"/>
	<path d="M352.8,489.2c-12.6,0-24.8,0-37.4,0c0-44.3,0-88.3,0-132.6c12.4,0,24.7,0,37.4,0C352.8,400.6,352.8,444.6,352.8,489.2z"/>
	<path d="M221.3,345.2c1.3,7.4-3.6,13.7-10.4,14.5c-6.8,0.8-13.4-4.6-14.3-11.7c-0.8-6.4,4.3-12.1,11.4-13.5
		c2.2-0.4,4.7-1.8,6.1-3.5c10.8-12.9,21.4-25.9,32.1-38.9c2-2.5,3.4-4.8,2.6-8.5c-1.2-5.8,2.7-11,8.7-12.8c6-1.9,12.6,0.2,15,5.6
		c1.7,3.8,4.3,5.3,8,6.6c15.2,5.4,30.3,11.1,45.5,16.5c2.4,0.8,5.3,0.1,8,0c0.8,0,1.6-0.7,2.4-0.6c6.8,1.2,11.2-2.8,15.8-6.7
		c10.8-9.2,21.6-18.3,32.6-27.2c3.1-2.5,4.9-5.3,5.6-9.4c1.1-6.5,5.5-9.8,11.8-9.9c6.8-0.1,11.2,3.2,12.9,9.4
		c2.1,7.8-4.4,15.5-12.9,15.8c-2.7,0.1-5.9,1.1-7.9,2.8c-13.2,10.7-26.2,21.6-39.1,32.7c-1.7,1.4-2.8,4-3.3,6.3
		c-1.1,5.6-4.9,10.1-10.1,11.1c-5.5,1.1-10.3-1.4-13.7-6.2c-1.7-2.4-4.1-4.8-6.8-5.8c-15.5-6-31.2-11.6-46.8-17.3
		c-4.7-1.7-14.4,0.8-17.5,4.6c-11.1,13.5-22.2,27-33.1,40.7C222.6,341.2,222.1,343.4,221.3,345.2z M403.4,248.8
		c-5.1-0.1-9.8,4.3-9.7,9.3c0,4.7,4.4,9.2,9.2,9.4c5,0.2,9.5-4.2,9.6-9.4C412.5,253.2,408.3,248.9,403.4,248.8z M218.5,347.2
		c0-5.4-3.6-9.3-8.7-9.4c-5.3-0.1-9.6,4.1-9.6,9.3c0,5,4.2,9.2,9.2,9.3C214.2,356.5,218.5,352.2,218.5,347.2z M348.4,311.2
		c0.1-4.8-4.2-9.2-9.2-9.3c-4.9-0.2-9.3,4.1-9.5,9c-0.1,5,4,9.5,8.8,9.7C343.4,320.7,348.2,316.2,348.4,311.2z M260.7,291.7
		c5.7,0.3,9.5-2.9,9.8-8.2c0.3-5.4-3.2-9.4-8.4-9.7c-5.6-0.3-9.8,3.4-10,8.7C252.1,287.4,255.8,291.5,260.7,291.7z"/>
	<path d="M238,406.6c0,27.6,0,54.9,0,82.5c-12.5,0-24.8,0-37.4,0c0-27.4,0-54.8,0-82.5C212.9,406.6,225.1,406.6,238,406.6z"/>
</g>
</svg>
