<?xml version="1.0" encoding="utf-8"?>
<!-- Generator: Adobe Illustrator 19.0.0, SVG Export Plug-In . SVG Version: 6.00 Build 0)  -->
<svg version="1.1" id="Calque_1" xmlns="http://www.w3.org/2000/svg" xmlns:xlink="http://www.w3.org/1999/xlink" x="0px" y="0px"
	 viewBox="0 0 612 792" style="enable-background:new 0 0 612 792;" xml:space="preserve">
<g>
	<path d="M284,670.5c-2.2-0.7-4.4-1.3-6.6-2c-19.7-5.8-34.2-24-34.3-44.4c-0.2-53.8-0.1-107.6-0.1-161.5c0-0.5,0.1-1,0.2-1.9
		c10.4,0,20.7,0,31.8,0c0,1.7,0,3.5,0,5.2c0,51.3,0,102.6,0,154c0,12.3,6.2,18.5,18.4,18.5c62.7,0,125.3,0,188,0
		c11.2,0,17.6-6.5,17.6-17.7c0-137.3,0-274.6,0-411.9c0-12.2-6.2-18.3-18.5-18.3c-62.3,0-124.6,0-187,0c-12.3,0-18.5,6.2-18.5,18.4
		c0,50.5,0,101,0,151.5c0,1.8,0,3.6,0,5.8c-10.7,0-21,0-32,0c0-1.8,0-3.6,0-5.3c0-50.5,0-101,0-151.5c0-26.3,14.2-44,39.8-50.1
		c0.4-0.1,0.8-0.5,1.2-0.8c68.7,0,137.3,0,206,0c1.1,0.4,2.1,0.8,3.2,1.1c17.7,4.4,29.5,15.3,35.5,32.4c0.9,2.5,1.5,5,2.2,7.5
		c0,143.3,0,286.7,0,430c-0.3,0.9-0.8,1.8-1,2.7c-4.9,19.9-17.4,32.3-37.3,37.3c-0.9,0.2-1.8,0.7-2.7,1
		C421.3,670.5,352.7,670.5,284,670.5z"/>
	<path d="M19,398.5c120,0,239.9,0,359.8,0c-22.6-22.5-45.2-45-67.5-67.1c8.5-8.5,15.9-15.9,23.1-23.1
		c35.2,35.2,70.7,70.7,105.8,105.8c-35.2,35.2-70.8,70.8-105.9,106c-6.6-6.7-14-14-21.5-21.6c21.8-21.8,44.3-44.3,66.9-66.8
		c-0.2-0.4-0.4-0.8-0.6-1.2c-120,0-240.1,0-360.1,0C19,419.8,19,409.2,19,398.5z"/>
</g>
</svg>
