<?xml version="1.0" encoding="utf-8"?>
<!-- Generator: Adobe Illustrator 19.0.0, SVG Export Plug-In . SVG Version: 6.00 Build 0)  -->
<svg version="1.1" id="Calque_1" xmlns="http://www.w3.org/2000/svg" xmlns:xlink="http://www.w3.org/1999/xlink" x="0px" y="0px"
	 viewBox="0 0 612 792" style="enable-background:new 0 0 612 792;" xml:space="preserve">
<style type="text/css">
	.st0{fill:#000102;}
</style>
<g>
	<path d="M76.5,318.9c9.7,12.8,22.7,17.4,36,21.3c17.6,5.2,35.7,7.6,54,9c14.3,1.1,28.6,2,42.9,1.7c32-0.8,63.9-2.5,94.5-12.8
		c10.8-3.6,21.1-8.2,28.7-19.4c0,9.4,0,17.4,0,25.5c0,57.2-0.3,114.3,0.1,171.5c0.2,22-9.2,38.3-26.6,50.7
		c-18.5,13.2-39.6,19.3-61.7,22.8c-20.6,3.3-41.4,4.1-62.2,2c-28.3-2.8-55.5-9-79.1-25.9c-17.4-12.5-26.9-28.9-26.8-51.2
		c0.5-63.3,0.2-126.6,0.2-190C76.5,322.7,76.5,321.4,76.5,318.9z"/>
	<path d="M202.5,337.2c-30.4-0.2-60.5-2.6-89.6-12c-11-3.5-21.6-8-29.7-16.6c-8-8.6-7.9-18.8,0.4-27c7.7-7.6,17.5-11.4,27.6-14.5
		c20.1-6.1,40.9-8.5,61.8-10c15.3-1.1,30.6-1.4,45.9-0.8c29.8,1.1,59.5,3.2,87.8,13.8c7.3,2.7,14.4,6.2,20,12
		c7.6,7.8,7.9,17.9,0.5,25.9c-6.6,7.2-15.1,11.3-24,14.7c-18.4,7.1-37.7,10.4-57.3,12.4C231.5,336.6,217,337.5,202.5,337.2z"/>
	<path class="st0" d="M552.6,258.8c-20.1-96.4-112.6-161-209.1-144.2c-71.2,12.4-119.2,54.2-144.9,121.7c-0.4,1.1-1.4,2.3-0.4,3.9
		c19.8-0.2,39.5,0.7,59.3,2.9c23.4,2.7,46.4,6.7,67.6,17.9c1.2,0.7,2.5,2,3.4-0.6c0.7-1.9,2.6-1.1,3.9-1.1c26.8-0.1,53.7,0,80.5-0.1
		c3.3,0,4.4,0.8,4.8,4.3c2.3,21.3,1.9,42.6-0.1,63.9c-0.4,4.4-1.7,5.8-6.3,5.8c-19.5-0.3-39-0.1-58.5-0.2c-3.2,0-4.4,0.7-4.3,4.1
		c0.3,6.3,0.3,12.7,0,19c-0.1,3.4,1,4.3,4.2,4.1c5.8-0.2,11.7-0.1,17.5-0.1c14.1,0,28.3,0,42.4,0c-0.9,11.9-16.9,75.7-21.5,86.4
		c-0.8,1.8-1.9,2.4-3.7,2.6c-9.8,1-19.6,0.8-29.4,0.1c-2.5-0.2-3.4-1.2-4-3.4c-1.4-4.9-3-9.8-4.6-14.7c-0.3,0-0.6,0-0.9,0
		c0,14.3,0.2,28.6-0.1,42.9c-0.1,4,1.7,4.7,4.9,5c16.7,1.6,33.2,1.1,49.8-1.7C506,459.7,573.8,360.6,552.6,258.8z M314.4,188.3
		c-3.5,13.5-6.9,27.1-9.1,40.9c-0.6,3.6-2.2,4.7-5.9,4.7c-20.7-0.2-41.3-0.1-62-0.1c-2.5,0-5,0.5-2.9-3.5c19.6-37,48-64.3,87.7-79.1
		c0.6-0.2,1.3-0.4,1.9-0.5c0.1,0,0.3,0.1,0.6,0.3C321.2,163.4,317.6,175.8,314.4,188.3z M405.6,233.8c-11,0-22,0-33,0c0,0,0,0,0,0
		c-12.3,0-24.6-0.1-37,0.1c-3.1,0-4-0.6-3.4-3.9c5-28.2,12.3-55.8,21-83c0.7-2.1,1.7-2.8,3.8-3.1c10.1-1.1,20.2-1,30.4-0.1
		c3,0.3,4.2,1.5,5.1,4.2c8,25.7,15.1,51.6,19.9,78.2C413.7,233.9,413.7,233.8,405.6,233.8z M460,170.7
		c21.2,15.4,37.9,34.8,49.8,58.2c2.5,4.8,2.5,4.9-2.7,4.9c-20,0-39.9-0.1-59.9,0.1c-3.8,0-5.6-0.8-6.3-4.9
		c-4.7-25.3-10.7-50.3-18.2-75c-0.2-0.7-0.2-1.6-0.4-2.9C436.3,155.7,448.5,162.4,460,170.7z M510.4,363.4
		c-19.2,35.4-46.3,62.3-84,77.8c-1.2,0.5-2.5,0.9-3.8,1.3c-0.2,0.1-0.6,0-1.2-0.1c3-10.8,6.2-21.4,8.8-32.1c3.7-15,7-30.1,10.2-45.2
		c0.8-3.8,2.1-5.1,6.1-5c20.5,0.2,41,0.1,61.5,0.1C510.5,360.1,512.3,360,510.4,363.4z M521.4,329.3c-0.6,2.8-1.7,3.8-4.6,3.7
		c-11.3-0.2-22.6-0.1-34-0.1c-10.8,0-21.7-0.1-32.5,0.1c-3.8,0.1-5.4-0.7-4.8-4.9c2.4-19.1,2.5-38.2,1-57.3c-0.1-1-0.1-2-0.2-3
		c-0.9-8.7-0.9-8.7,8.1-8.7c20.5,0,41,0.1,61.4-0.1c3.7,0,5,1.1,5.8,4.8C526.3,285.8,526.1,307.5,521.4,329.3z"/>
</g>
</svg>
