<?xml version="1.0" encoding="utf-8"?>
<!-- Generator: Adobe Illustrator 19.0.0, SVG Export Plug-In . SVG Version: 6.00 Build 0)  -->
<svg version="1.1" id="Calque_1" xmlns="http://www.w3.org/2000/svg" xmlns:xlink="http://www.w3.org/1999/xlink" x="0px" y="0px"
	 viewBox="0 0 612 792" style="enable-background:new 0 0 612 792;" xml:space="preserve">
<g>
	<path d="M164.9,497c0-3.5,0-6.5,0-10.2c-6,0-11.9,0-17.8,0c-13.9,0-21.9-8.1-21.9-22.1c0-25.3,0-50.7,0-76
		c0-13.6,8.2-21.7,21.8-21.7c5.8,0,11.6,0,17.8,0c0-3.4,0-6.4,0-10.2c-5.9,0-11.8,0-17.8,0c-13.6,0-21.8-8.2-21.9-21.7
		c0-25.5,0-51,0-76.5c0-13.3,8.2-21.6,21.4-21.6c119,0,238,0,357,0c13.2,0,21.4,8.3,21.4,21.6c0,25.5,0,51,0,76.5
		c0,13.5-8.2,21.6-21.9,21.7c-5.8,0-11.6,0-17.8,0c0,3.4,0,6.5,0,10.2c6.1,0,12.2,0,18.3,0c13,0.1,21.3,8.3,21.3,21.3
		c0.1,24,0,48,0,72c0,1.3,0,2.5,0,3.8c-0.5,0.3-0.9,0.6-1.4,0.8c-4.1-4.5-8.2-9-12.5-13.4c-7.3-7.5-14.7-15-22.3-22.2
		c-2.8-2.6-4-5.3-3.7-9.1c0.3-4.1,0.1-8.3,0.1-12.9c-106.6,0-213,0-319.8,0c0,12.9,0,26,0,39.5c87,0,174,0,261.6,0
		c0,5.5,0,10.5,0,16.3c-1.9,0-3.9,0-5.8,0c-23.8,0-47.7,0-71.5,0c-21,0-27.3,4.3-35,23.8c-36.2,0-72.5,0-109.2,0c0,3.3,0,6.4,0,10
		c36.2,0,72.6,0,109.3,0c0,13.5,0,26.4,0,39.9c-49.7,0-99.4,0-149.4,0c0,13.6,0,26.7,0,40.2c49.8,0,99.4,0,149.1,0
		c0.7,13.5,1.3,26.6,1.9,40c-0.5,0-2.3,0-4.2,0c-54.7,0-109.3,0-164,0c-15.3,0-23-7.8-23-23.1c0-24.8,0-49.7,0-74.5
		c0-14.3,8-22.3,22.3-22.3C153,497,158.6,497,164.9,497z M165.1,316.7c106.9,0,213.3,0,319.6,0c0-13.4,0-26.5,0-39.5
		c-106.7,0-213.1,0-319.6,0C165.1,290.5,165.1,303.4,165.1,316.7z M444.9,357.2c-80.3,0-160,0-239.6,0c0,3.4,0,6.5,0,9.5
		c80.1,0,159.8,0,239.6,0C444.9,363.4,444.9,360.4,444.9,357.2z"/>
	<path d="M335.5,546.7c0-17.2,0-34.3,0-51.5c0-8.9,2-10.9,10.7-11c31.8,0,63.7,0,95.5,0c6.6,0,6.7-0.2,6.8-6.7
		c0-13.7-0.2-27.3,0.2-41c0.1-2.7,1.7-6.3,3.8-7.8c2.9-2,6.2-0.2,8.8,2.5c36.4,36.5,72.8,72.8,109.2,109.3c4.7,4.7,4.7,8,0,12.8
		c-36.3,36.3-72.6,72.6-108.9,108.9c-2.4,2.4-4.8,4.8-8.7,3.3c-4-1.5-4.4-4.9-4.4-8.6c0.1-13.2,0-26.3,0-39.5c0-7.8,0-7.8-7.6-7.8
		c-31.5,0-63,0-94.5,0c-8.9,0-10.8-2-10.8-10.9C335.5,581.4,335.5,564.1,335.5,546.7z"/>
</g>
</svg>
