<?xml version="1.0" encoding="utf-8"?>
<!-- Generator: Adobe Illustrator 19.0.0, SVG Export Plug-In . SVG Version: 6.00 Build 0)  -->
<svg version="1.1" id="Calque_1" xmlns="http://www.w3.org/2000/svg" xmlns:xlink="http://www.w3.org/1999/xlink" x="0px" y="0px"
	 viewBox="0 0 612 792" style="enable-background:new 0 0 612 792;" xml:space="preserve">
<g>
	<path d="M151.1,462.2c0-3.6,0-6.5,0-10.2c-5.9,0-11.6,0-17.4,0c-14.3,0-22.4-8-22.4-22.2c0-25.2,0-50.3,0-75.5
		c0-14.2,8-22.2,22.4-22.2c5.6,0,11.3,0,17.3,0c0-3.4,0-6.4,0-10.2c-5.9,0-11.9,0-17.8,0c-13.6-0.1-21.8-8.2-21.8-21.7
		c0-25.5,0-51,0-76.5c0-13.3,8.2-21.6,21.4-21.6c119,0,238,0,357,0c13.2,0,21.4,8.3,21.4,21.6c0,25.5,0,51,0,76.5
		c0,13.5-8.2,21.7-21.9,21.7c-5.8,0-11.6,0-17.8,0c0,3.4,0,6.4,0,10.2c6.1,0,12.2,0,18.3,0c13,0.1,21.3,8.3,21.3,21.2
		c0.1,24.6,0,49.3,0,74.4c-14,0-27.7,0-42.1,0c0.7-5.4-2.5-11.1,1.9-16.2c0.4-0.4,0.3-1.3,0.4-1.9c0-12.3,0-24.6,0-37.3
		c-106.7,0-213.1,0-319.8,0c0,13.1,0,26.2,0,39.6c79,0,157.9,0,237.8,0c-1.5,1.8-2.3,2.9-3.3,3.9c-11.1,11.1-22.1,22.3-33.3,33.1
		c-1.8,1.7-4.8,2.9-7.3,2.9c-49.2,0.2-98.3,0.1-147.5,0.1c-2,0-4,0-6.3,0c0,3.3,0,6.4,0,9.9c48.8,0,97.8,0,147.9,0
		c-13.1,13.5-25.4,26.2-38.8,40.1c-48.1,0-98.4,0-149.1,0c0,13.3,0,26.4,0,40.2c1.8,0,3.8,0,5.7,0c52.7,0,105.3,0,158-0.1
		c3.2,0,5.5,0.9,7.8,3.2c11.8,12,23.7,23.8,36.2,36.3c-2.3,0.2-3.6,0.3-5,0.3c-73.7,0-147.3,0-221,0c-13.9,0-22-8.1-22-22.1
		c0-25.3,0-50.7,0-76c0-13.6,8.2-21.7,21.8-21.7C138.9,462.2,144.7,462.2,151.1,462.2z M471.1,242.4c-106.8,0-213.2,0-319.6,0
		c0,13.4,0,26.4,0,39.5c106.7,0,213.1,0,319.6,0C471.1,268.6,471.1,255.7,471.1,242.4z M191.3,331.9c80.2,0,159.9,0,239.6,0
		c0-3.4,0-6.5,0-9.5c-80,0-159.7,0-239.6,0C191.3,325.7,191.3,328.6,191.3,331.9z"/>
	<path d="M560.7,512.4c0,17.2,0,34.3,0,51.5c0,8.9-2,10.9-10.8,10.9c-31.6,0-63.3,0-94.9,0c-7.2,0-7.2,0-7.2,7.2c0,13.5,0,27,0,40.5
		c0,3.6-0.5,7.4-4.3,8c-2.6,0.4-6.3-0.8-8.2-2.7c-36.7-36.4-73.2-72.9-109.6-109.4c-4.7-4.7-4.7-7.6-0.1-12.3
		c36.5-36.5,73-73,109.5-109.6c2.6-2.6,5.9-4.4,8.8-2.4c2.1,1.4,3.7,5.1,3.8,7.8c0.4,13.8,0.3,27.6,0.1,41.5
		c-0.1,4.9,1.6,6.3,6.4,6.3c32.1-0.1,64.3-0.1,96.4-0.1c8.1,0,10.2,2.1,10.2,10.4C560.7,477.4,560.7,494.9,560.7,512.4z"/>
</g>
</svg>
