<?xml version="1.0" encoding="utf-8"?>
<!-- Generator: Adobe Illustrator 19.0.0, SVG Export Plug-In . SVG Version: 6.00 Build 0)  -->
<svg version="1.1" id="Calque_1" xmlns="http://www.w3.org/2000/svg" xmlns:xlink="http://www.w3.org/1999/xlink" x="0px" y="0px"
	 viewBox="0 0 612 792" style="enable-background:new 0 0 612 792;" xml:space="preserve">
<g>
	<path d="M426,553c-61,0-122,0-183.1,0c-1.9-4.6-1.9-31.6,0.3-35.7c1.7-3,2.8-5.9,2.2-9.4c-0.3-1.6,0.5-3.3,1.1-4.8
		c10.3-25.4,28-43.5,53.9-52.7c5.8-2.1,12.2-3.4,18.5-4.3c14.3,0.1,28.6-1,42.6,2.9c19.8,5.6,35.6,16.8,47.9,33.1c1,1.3,1.6,3,3.6,3
		c9,14.5,14.4,30.1,14.4,47.3c0,5,0,9.9,0,14.9C427.4,549.3,427.5,551.3,426,553z"/>
	<path d="M330.9,297.1c14.3,1.3,27,6.4,37.7,16c9.9,8.9,16.4,19.8,19.5,32.8c6.5,27-7.2,54.9-30.8,67.9c-8.2,4.5-17,7.5-26.4,8
		c-10.6-2.2-20.2-6.6-28.4-13.6C288.3,396.1,280,381,279.7,362c-0.4-29.1,13.3-49.2,39.4-61.3C322.9,298.9,327.1,298.8,330.9,297.1z
		"/>
	<path d="M426,553c-0.5-12.7,1.1-25.5-2-38.1c-2.2-9.1-5.7-17.6-10.1-25.8c-0.7-1.2-2.2-2.3-0.9-3.9c14.5-12.5,31.5-18,50.5-18
		c14.2,0,28.3-0.3,41.8,5c26.6,10.5,44.6,36.6,44.6,65.2c0,3.3-0.2,6.7,0.1,10c0.4,4.4-0.8,6-5.6,5.9C505,552.9,465.5,553,426,553z"
		/>
	<path d="M225.9,552.9c-39.9,0-79.9,0.1-119.8,0.1c-1.9,0-4,0.6-4.2-2.7c-0.8-18.8,1.1-36.9,12.6-52.7
		c12.6-17.3,29.2-27.9,50.7-29.7c16.6-1.4,33.2-2.2,49.3,3.2c9.2,3.1,17.6,7.7,24.5,14.8c1.2,1.9,0.1,3.5-0.8,5.1
		c-7.7,14-11.8,28.8-11,44.9c0.2,3.8,0.1,7.6,0,11.5C227.4,549.3,227.5,551.3,225.9,552.9z"/>
	<path d="M418.9,400.5c0.4-27,19.9-49.4,50.3-50c29.2-0.5,50.9,21.1,51.6,48.7c0.6,28.5-20.5,51.5-52.1,51.3
		C441.1,450.4,419.1,428.7,418.9,400.5z"/>
	<path d="M181.4,450.2c-27.5,1-50.7-23.6-50.4-50.3c0.3-26.3,24.1-50.6,53.8-49.2c24.4,1.2,50,22.4,48.3,53.1
		C231.7,428.1,209.2,451.7,181.4,450.2z"/>
	<path d="M330.9,297.1c-0.2,2.5-2.5,1.9-3.8,2.3c-25.7,7.6-41.6,24.9-45.7,50.9c-4.6,29.3,10.7,54.9,38.1,66.9
		c3.8,1.6,8.5,1,11.4,4.7c-27.9,1.1-49.5-10.1-62.1-34.9c-19.2-37.9,4.3-82,46.2-89.1C320.4,297,325.6,297.1,330.9,297.1z"/>
	<path d="M225.9,552.9c0-7.1,0.2-14.3,0-21.4c-0.3-15.2,4.1-29,11.7-42c0.7-1.1,1-2.4,1.5-3.7c4.2-3.3,6.6-8.1,10.3-11.9
		c19.1-19.7,42.1-29.2,69.5-27.9c-3.2,1.4-7.1,1.6-9.5,4.7c-0.3,0.3-0.9,0.6-1.3,0.6c-11.4-1.8-19.8,5.1-28,10.9
		c-11.9,8.5-22.1,19.1-28.4,32.6c-2.4,5.2-7.1,10.2-4,16.9c0.2,0.5-0.6,1.5-1,2.1c-4.6,6.3-5,13.1-2.4,20.2c0.9,2.4-1.7,3.7-1.5,6
		c0.4,4.3,0.1,8.6,0.1,13C237.3,552.9,231.6,552.9,225.9,552.9z"/>
</g>
</svg>
