<?xml version="1.0" encoding="utf-8"?>
<!-- Generator: Adobe Illustrator 19.0.0, SVG Export Plug-In . SVG Version: 6.00 Build 0)  -->
<svg version="1.1" id="Calque_1" xmlns="http://www.w3.org/2000/svg" xmlns:xlink="http://www.w3.org/1999/xlink" x="0px" y="0px"
	 viewBox="0 0 612 792" style="enable-background:new 0 0 612 792;" xml:space="preserve">
<g>
	<path d="M188,600.2c-5.6-11.3-10.6-21.6-15.6-31.9c-8-16.3-16.1-32.5-23.9-48.9c-1.5-3.2-2.6-6.9-2.6-10.5
		c-0.2-57.3-0.1-114.6-0.1-172c0-2.5,0.1-5.1,0.9-7.4c2.1-5.7,6.6-8,12.6-7.9c22.3,0,44.7,0,67,0c1.8,0,3.6,0,6.1,0
		c0-2.4,0-4.4,0-6.3c0-21.7,0-43.3,0-65c0-11.5,4.2-15.7,15.6-15.7c8.8,0,17.6,0,26.7,0c0-11.1,0-21.7,0-32.9c-20.5,0-40.9,0-61.5,0
		c0-8.5,0-16.5,0-24.8c35.3,0,70.4,0,106,0c0-10.7,0-20.9,0-31.6c8.6,0,16.6,0,25.2,0c0,10.2,0,20.3,0,31c35.6,0,70.7,0,106.1,0
		c0,8.5,0,16.4,0,24.8c-20.5,0-40.8,0-61.4,0c0,11.1,0,21.6,0,33c2.8,0,5.8,0,8.7,0c6.7,0,13.3-0.1,20,0c8.4,0.2,13.3,5.1,13.3,13.5
		c0.1,22.5,0,45,0,67.5c0,1.8,0,3.6,0,6c2.3,0,4,0,5.8,0c21.8,0,43.7,0,65.5,0c11.3,0,15.7,4.4,15.7,15.7c0,56.7,0.1,113.3-0.1,170
		c0,4.1-1.1,8.6-2.9,12.4c-12,25.2-24.3,50.3-36.6,75.5c-0.7,1.5-1.4,3-2.3,5.1c24.3,0,48.2,0,72.5,0c0,8.5,0,16.6,0,24.9
		c-144.3,0-288.7,0-433.6,0c0-8,0-16,0-24.5C139.1,600.2,163,600.2,188,600.2z M170.8,433.2c0,2.4,0,4.3,0,6.3
		c0,19.2,0.1,38.3-0.1,57.5c0,3.9,1.3,5.3,4.9,6.5c41.3,13.2,83.5,21.3,126.8,23.8c63.7,3.7,125.9-4.2,186.7-23.9
		c3.4-1.1,4.8-2.4,4.7-6.1c-0.2-19.7-0.1-39.3-0.1-59c0-1.6,0-3.2,0-5C385.9,433.2,278.8,433.2,170.8,433.2z M182.8,531.6
		c0.2,1.3,0.2,1.8,0.4,2.2c10.3,21.2,20.6,42.5,31.2,63.7c0.6,1.3,3,2.4,4.6,2.4c9.7,0.2,19.3,0.1,29,0.1c65,0,130,0,195,0.1
		c3.7,0,5.6-1.1,7.1-4.5c4.5-9.8,9.4-19.5,14.2-29.2c5.5-11.3,11.1-22.7,17.2-35.1C381.4,560.2,282.2,560.1,182.8,531.6z M406.2,321
		c0-20.8,0-41.1,0-61.6c-20.6,0-40.8,0-61.4,0c0,20.5,0,40.9,0,61.6C365.3,321,385.6,321,406.2,321z M344.8,346.4
		c0,20.6,0,41,0,61.6c20.6,0,40.9,0,61.4,0c0-20.6,0-41,0-61.6C385.6,346.4,365.4,346.4,344.8,346.4z M319.1,320.9
		c0-20.7,0-41.1,0-61.5c-20.6,0-40.9,0-61.3,0c0,20.7,0,41,0,61.5C278.5,320.9,298.7,320.9,319.1,320.9z M319.2,346.6
		c-20.9,0-41.1,0-61.5,0c0,20.6,0,40.9,0,61.3c20.7,0,41,0,61.5,0C319.2,387.3,319.2,367,319.2,346.6z M232.7,346.8
		c-20.9,0-41.3,0-61.6,0c0,20.7,0,40.8,0,61.1c20.7,0,41,0,61.6,0C232.7,387.3,232.7,367.2,232.7,346.8z M492.8,408
		c0-20.9,0-41.1,0-61.4c-20.7,0-41.1,0-61.4,0c0,20.7,0,41,0,61.4C452,408,472.3,408,492.8,408z M363.7,234.4c0-11.2,0-22,0-32.8
		c-21.3,0-42.4,0-63.4,0c0,11.1,0,21.8,0,32.8C321.5,234.4,342.4,234.4,363.7,234.4z"/>
</g>
</svg>
