<?xml version="1.0" encoding="utf-8"?>
<!-- Generator: Adobe Illustrator 19.0.0, SVG Export Plug-In . SVG Version: 6.00 Build 0)  -->
<svg version="1.1" id="Calque_1" xmlns="http://www.w3.org/2000/svg" xmlns:xlink="http://www.w3.org/1999/xlink" x="0px" y="0px"
	 viewBox="0 0 612 792" style="enable-background:new 0 0 612 792;" xml:space="preserve">
<g>
	<path d="M298,516.7c-59.3,0-118.6-0.3-178,0.2c-14.7,0.1-24-10.3-24-23.6c0.4-75.5,0.4-151,0-226.5c-0.1-14.2,10.1-23.8,24-23.7
		c88.5,0.4,177,0.2,265.5,0.2c30.7,0,61.3-0.1,92-0.1c13.9,0,22.4,8.4,22.4,22.4c0,76.2-0.2,152.3,0.1,228.5
		c0.1,13.1-9.6,23-23,22.9C417.3,516.6,357.6,516.8,298,516.7C298,516.8,298,516.7,298,516.7z M285.5,342.7c0.4-0.1,0.8-0.2,1.2-0.3
		c-1.7-8.1-2.7-16.4-5.3-24.1c-5.3-15.7-16.7-25.2-33.1-27.4c-16.1-2.2-30.5,2.2-41.1,15.3c-14.7,18.3-16.6,50.7-4.2,70.6
		c17.1,27.7,56.2,28,73.7,0.6C283.4,366.9,285.8,355.1,285.5,342.7z M308.5,414.7c0.6,4.1,1,9.8,2.3,15.2
		c5.1,21.8,21.5,35.8,41.9,36.3c20.5,0.5,38.1-12.9,44.2-33.7c3.5-12.2,4-24.6,1.4-37c-8.5-40.2-49.9-44-70.7-26.8
		C313.6,380.2,309.5,396,308.5,414.7z M344.1,290.6c-7.5-2.3-11.4,2.5-15.3,9.6c-20.4,37-41.3,73.8-62,110.6
		c-9.1,16.3-18.3,32.5-27.4,48.8c-3.3,5.9-2.2,7.6,4.6,7.7c3.3,0,6.7-0.2,10,0c3.8,0.2,6.1-1.2,8-4.6c30.9-55,61.8-109.9,92.8-164.9
		c3.1-5.6,2.2-7.1-4-7.3C349,290.6,347.2,290.6,344.1,290.6z"/>
	<path d="M106.2,209.2c11-0.4,15.7,3.6,14.3,9.2c-1,3.9-3.5,6.2-7.8,6.5c-12.5,0.7-22.1,6.2-28.6,17.1c-2.9,4.7-7.3,5.7-11.5,3.1
		c-3.9-2.4-5-7.3-2.2-11.9C79.4,218.5,92.4,210.3,106.2,209.2z"/>
	<path d="M532.1,255c-0.1,2.1,0,4-0.4,5.8c-1,3.9-4.1,5.9-7.8,5.7c-4.2-0.2-7.4-2.7-7.5-7.2c-0.5-13.1-5.9-23.2-17.2-30.2
		c-4.3-2.7-5.1-7.4-2.5-11.3c2.5-3.7,7.1-4.9,11.4-2.2C522.8,224.7,530.8,238,532.1,255z"/>
	<path d="M532,492.4c0.3,9.6,0.2,20.1-5,29.7c-2,3.7-4.7,6.1-9.1,5.5c-4.8-0.6-8.6-6.1-6.3-10.5c6.2-11.8,4.3-24.3,4.6-36.6
		c0.2-8.1,2.7-12,8-12c5.3,0.1,7.8,3.8,7.8,12C532,484.2,532,487.9,532,492.4z"/>
	<path d="M119.4,548.9c-9.9,0.5-20.8,0.1-30.2-6.1c-2.4-1.5-4.7-5.4-4.5-7.9c0.3-2.5,3.5-5,6-7c0.9-0.7,3.4-0.4,4.6,0.3
		c8.6,5,18.1,5.2,27.6,4.9c4.2-0.1,8.3-0.2,12.5,0c4.7,0.2,7.7,3.5,7.6,8.1c-0.1,4.4-2.9,7.4-7.6,7.5
		C130.5,549.1,125.5,548.9,119.4,548.9z"/>
	<path d="M532,411.7c0,6.8,0.1,13.7,0,20.5c-0.1,5.7-3,8.8-7.9,8.8c-4.9,0-7.8-3.2-7.8-8.9c-0.1-14.1-0.1-28.3,0-42.4
		c0-5.1,3.3-8.4,7.9-8.4c4.4,0,7.6,3.1,7.8,8C532.1,396.7,531.9,404.2,532,411.7C532,411.7,532,411.7,532,411.7z"/>
	<path d="M352,224.7c-6.8,0-13.7,0-20.5,0c-6.1,0-9.3-2.8-9.3-7.9c0-5.1,3.1-7.8,9.3-7.9c13.8-0.1,27.7-0.1,41.5,0
		c5.3,0,8.5,3,8.6,7.6c0.1,4.9-3.2,8-8.7,8.1C366,224.8,359,224.7,352,224.7z"/>
	<path d="M439,224.8c-7,0-14,0.1-20.9,0c-5.6-0.1-8.8-3-8.8-7.9c0-4.9,3.2-7.9,8.8-7.9c13.8-0.1,27.6-0.1,41.4,0
		c6.2,0,9.4,2.9,9.4,7.8c0,5.2-3.4,7.9-9.8,7.9C452.3,224.8,445.6,224.8,439,224.8z"/>
	<path d="M79.8,302.9c0,7,0,14,0,21c0,5.6-3,8.9-7.8,8.9c-4.9,0-7.9-3-7.9-8.8c-0.1-14.1-0.1-28.3,0-42.4c0-5.3,3.1-8.4,7.8-8.4
		c4.9,0,7.9,3.2,7.9,8.8C79.9,288.9,79.8,295.9,79.8,302.9C79.8,302.9,79.8,302.9,79.8,302.9z"/>
	<path d="M516.2,324.3c0-7.2-0.1-14.3,0-21.5c0.1-5.7,2.9-8.8,7.9-8.8c4.9,0,7.7,2.8,7.8,8.3c0.1,14.3,0.1,28.6,0,42.9
		c0,5.3-3.2,8.4-7.8,8.4c-4.8,0-7.8-3.3-7.8-8.9C516.2,338,516.2,331.2,516.2,324.3z"/>
	<path d="M264.6,224.7c-7,0-14,0.1-21,0c-5.3-0.1-8.3-3-8.4-7.8c0-4.9,2.8-7.8,8.2-7.9c14.3-0.1,28.7-0.1,43,0c5.2,0,8.4,3.3,8.3,8
		c-0.1,4.6-3.4,7.6-8.6,7.7C278.9,224.8,271.7,224.7,264.6,224.7z"/>
	<path d="M79.8,390.5c0,7,0.1,14,0,21c-0.1,5.5-3.2,8.8-8.1,8.7c-4.8-0.1-7.6-3-7.6-8.6c-0.1-14.2-0.1-28.3,0-42.5
		c0-5.6,3.3-8.9,8-8.8c4.6,0.1,7.6,3.7,7.7,9.2C79.8,376.5,79.8,383.5,79.8,390.5z"/>
	<path d="M79.8,478c0,7,0.1,14,0,21c-0.1,5.2-3.1,8.6-7.6,8.7c-4.7,0.1-8.1-3.3-8.1-8.7c-0.1-14-0.1-28,0-42c0-6.2,2.9-9.2,8.1-9.1
		c4.9,0.1,7.6,3.3,7.6,9.1C79.8,464,79.8,471,79.8,478z"/>
	<path d="M178,224.8c-7.2,0-14.3,0.1-21.5,0c-5.3-0.1-8.4-3.1-8.4-7.8c0-4.8,2.9-7.9,8.3-7.9c14.2-0.1,28.3-0.1,42.5,0
		c5.6,0.1,8.9,3.3,8.8,8.1c-0.1,4.6-3.7,7.7-9.2,7.7C191.7,224.8,184.8,224.8,178,224.8C178,224.8,178,224.8,178,224.8z"/>
	<path d="M288,533.2c6.8,0,13.6,0,20.4,0c5.3,0,9,3.3,9,7.9c0,4.7-3.4,7.8-9,7.8c-13.9,0.1-27.9,0.1-41.8,0c-5.7,0-8.9-3.1-8.9-7.8
		c0-4.6,3.5-7.8,9-7.9C273.7,533.1,280.9,533.2,288,533.2z"/>
	<path d="M461.6,548.9c-7.1,0-14.3,0.1-21.4,0c-5.4-0.1-8.2-3-8.2-7.9c0.1-4.8,3-7.7,8.4-7.8c14.1-0.1,28.3-0.1,42.4,0
		c5.4,0,8.9,3.3,8.9,8c-0.1,4.5-3.4,7.6-8.6,7.7C475.9,549,468.8,548.9,461.6,548.9z"/>
	<path d="M200.3,533.2c7,0,14-0.1,21,0c5.7,0.1,8.9,2.9,8.8,7.9c0,4.9-3,7.8-8.8,7.8c-14,0.1-28,0.1-42,0c-5.4,0-9-3.5-8.8-8.1
		c0.2-4.4,3.7-7.6,8.8-7.6C186.3,533.1,193.3,533.2,200.3,533.2z"/>
	<path d="M374.8,549c-7.1,0-14.3,0.1-21.4,0c-5.6-0.1-8.6-3.2-8.5-8.2c0.1-4.6,3.4-7.5,8.6-7.5c14-0.1,27.9-0.1,41.9,0
		c5.4,0,9.1,3.2,9.2,7.7c0.1,4.6-3.7,8-9.4,8C388.4,549.1,381.6,549,374.8,549C374.8,549,374.8,549,374.8,549z"/>
	<path d="M257.1,343.6c-1.6,7.7-2.7,14.9-4.7,21.9c-1.5,5.3-5.6,8.7-11.4,9c-5.9,0.3-9.8-3.1-12.1-8.1c-6.6-15-6.2-30,0.1-45
		c2-4.8,6-7.8,11.3-7.8c5.3,0.1,10,2.8,11.6,8C254.1,328.9,255.4,336.4,257.1,343.6z"/>
	<path d="M337,413.4c1.9-7.9,3.1-15.2,5.5-22.2c1.8-5.2,5.8-8.9,12-8.9c6.5,0,10.3,3.8,12.3,9.3c5.2,14.3,5.1,28.7-0.3,42.9
		c-1.9,5-5.5,8.2-11.3,8.4c-6,0.2-10.4-2.5-12.3-7.7C340.4,428.1,339,420.6,337,413.4z"/>
</g>
</svg>
