<?xml version="1.0" encoding="utf-8"?>
<!-- Generator: Adobe Illustrator 19.0.0, SVG Export Plug-In . SVG Version: 6.00 Build 0)  -->
<svg version="1.1" id="Calque_1" xmlns="http://www.w3.org/2000/svg" xmlns:xlink="http://www.w3.org/1999/xlink" x="0px" y="0px"
	 viewBox="0 0 612 792" style="enable-background:new 0 0 612 792;" xml:space="preserve">
<g>
	<path d="M244.9,540.9c1.3-1.6,0.9-3.5,0.9-5.3c0-96,0-192,0-288c0-1-0.1-2-0.2-3.7c-35.7,13.5-71.1,26.8-106.5,40.2
		c-1-1.6-0.2-3.2,0-4.8c2-10.8-1.3-18.4-10.6-24.5c-1-0.7-2.6-0.9-2.5-2.7c12.8-4.7,25.6-9.3,38.3-14.1
		c25.2-9.5,50.3-19.1,75.6-28.5c4.3-1.6,6.1-3.5,6-8.5c-0.1-13.4-1.4-27,2.1-40.2c1.7-6.5,3.7-12.8,7.6-18.3
		c6.8-9.7,16.4-9.7,23.1,0.3c6.2,9.2,8.4,19.8,9.2,30.7c0.4,5.6,0.1,11.3,0.1,17.6c7.5-2.8,14.3-5.3,21.1-7.9
		c27.7-10.5,55.3-21,83-31.4c1.2-0.5,2.5-0.8,3.8-1.2c1.3,2,0.1,3.8-0.5,5.7c-2.4,8.5-1,16,5.5,22.3c1.4,1.4,3,2.7,3.4,4.8
		c-0.1,0.9-0.6,1.4-1.5,1.4c-15.4,4.7-30.2,11.1-45.3,16.7c-21.7,8-43.2,16.4-64.8,24.4c-3,1.1-4.5,2.4-4.5,6
		c0.1,101.2,0.1,202.5,0.1,303.7c0,1.8-0.4,3.7,0.9,5.3c-1.7,1.8-3.9,1.7-6,1.7c-10.8,0.1-21.5,0.1-32.3,0
		C248.7,542.6,246.5,542.7,244.9,540.9z"/>
	<path d="M244.9,540.9c14.7,0,29.5,0,44.2,0.1c7.3,0,14.7-0.2,22,0c9.2,0.3,12.9,3.8,14.1,12.8c1.1,8.2,1.1,8.2,9.6,8.2
		c10.8,0,21.7-0.1,32.5,0c10.3,0.1,16.7,6.5,17,16.9c0.1,5,0,10,0,15c0,8-2.8,10.9-10.8,10.9c-18.7,0.1-37.3,0.1-56,0.1
		c-51.6,0-103.3,0-154.9,0c-10.2,0-12.9-2.5-12.8-12.5c0-4.7,0-9.3,0-14c0.1-9.5,6.9-16.3,16.4-16.4c12.7-0.1,25.3-0.1,38,0
		c2.9,0,4.3-0.6,4.1-3.8c-0.1-1.8,0.4-3.6,0.7-5.4c1.3-7.9,4.8-11.4,13-11.8C229.5,540.7,237.2,540.9,244.9,540.9z"/>
	<path d="M402.8,184.8c0.4-0.3,0.8-0.6,1.1-1c0.3-0.2,0.6-0.6,0.8-0.5c8.2,2.2,16.4,1,24.6-0.4c16.7,61.9,33.4,123.8,50.1,185.7
		c0.1,0.5,0.3,0.9,0.5,1.4c-5.7,2.6-11.5,1.9-17.3,0.6c-2.4-1.9-3.1-4.6-3.8-7.4c-11.6-43.3-23.4-86.5-35-129.7
		c-2.5-9.5-5.1-18.9-7.5-28.2c-8.1,30.5-16.5,61.2-24.9,92c-5.9,21.9-11.6,43.8-17.7,65.6c-1.4,5.1-1,5.7,4.5,5.7
		c25.6,0,51.3,0,76.9,0.1c2.3,0,5.5-1.3,6.6,2.4c-1.9,1.8-4.3,1.5-6.6,1.6c-26.5,0-52.9,0.1-79.4,0c-6.3,0-12.6-1.2-18.9-1.1
		c-1.5,0-3-0.3-4.1-1.6c8.8-32.9,17.6-65.7,26.5-98.6C387.2,242.5,395,213.6,402.8,184.8z"/>
	<path d="M181.2,476.9c3.8,0,7.7,0.1,11.5,0.1c7.9,0.1,11.9,5.1,10,12.8c-2.6,11.1-9.1,19-19.8,23.4c-10,4.2-20.6,5.5-31.2,5.7
		c-22.3,0.3-44.6,0.3-66.9,0c-10.1-0.1-20.2-1.4-29.9-5.1c-11.6-4.4-19-12.5-21.5-24.8c-1.4-6.9,2.4-11.9,9.4-12.1
		c3.7-0.1,7.3-0.1,11-0.1c5.9-2.9,12.2-1,18.3-1.4c30.2-0.2,60.4-0.3,90.7,0C169,475.8,175.2,474.1,181.2,476.9z"/>
	<path d="M352.9,369.9c34.5,1.7,69,0.9,103.4,1c1.9,0,4,0.8,5.6-1l0,0c6,0,12,0,18,0c4,0,8,0,12,0.2c7.1,0.2,11.1,5.5,9.5,12.5
		c-3.3,14.7-13.1,22.7-27,26.3c-13.7,3.5-27.7,3.6-41.7,3.7c-18.2,0.1-36.3,0.5-54.5-0.8c-9.3-0.6-18.5-2-27.2-5.8
		c-10.2-4.5-16.3-12.3-18.8-23c-1.8-7.7,2.2-12.7,10.1-12.9C345.9,370.1,349.4,370,352.9,369.9z"/>
	<path d="M72.1,476.9c-6.1,0-12.2,0-18.3,0c8-29.7,16.1-59.3,24.1-89c8.6-31.6,17.2-63.2,25.8-94.7c1.2-0.9,2.2-0.2,3.2,0.3
		c7,3.2,14,3.1,21,0.1c1.2-0.5,2.4-1.1,3.8-0.5c6.7,25.2,13.4,50.4,20.2,75.6c9.7,36.1,19.4,72.2,29.2,108.2
		c-6.1,0-12.2,0.1-18.3,0.1c-2.5-3.7-3-8.1-4.1-12.2c-13.3-49.9-26.9-99.6-40.4-149.5c-0.5-1.9-0.4-3.9-1.1-5.8
		c0.7,1.9,0,3.6-0.4,5.4C103,366.6,88.8,418.3,75.1,470.1C74.5,472.5,74,475,72.1,476.9z"/>
	<path d="M429.3,182.9c-8.3,4.6-16.8,3.9-25.4,0.9c-3.3-4.5-8.3-7.5-10-13.4c-2-7-0.4-13.4,1.9-19.8c5-6.1,10.9-10.7,19.3-10.9
		c10.5-0.2,19,5.1,22.9,14.5c3.8,9.4,1.5,19.2-6.1,26.4C431.1,181.4,430.2,182.1,429.3,182.9z"/>
	<path d="M131.8,293c-9.3,5.4-18.7,5.9-28,0.1c-12.6-10.2-12.1-25.9-3.3-35.1c7.2-7.5,15.8-9.1,25.6-5.9c13.4,6.1,17.9,17.1,13,31.9
		C137.3,287.6,134.5,290.2,131.8,293z"/>
</g>
</svg>
