<?xml version="1.0" encoding="utf-8"?>
<!-- Generator: Adobe Illustrator 19.0.0, SVG Export Plug-In . SVG Version: 6.00 Build 0)  -->
<svg version="1.1" id="Calque_1" xmlns="http://www.w3.org/2000/svg" xmlns:xlink="http://www.w3.org/1999/xlink" x="0px" y="0px"
	 viewBox="0 0 612 792" style="enable-background:new 0 0 612 792;" xml:space="preserve">
<g>
	<path d="M440,464.7c2.4,0.9,4.9,0.4,7.4,0.4c31.3,0,62.7,0,94,0c6.9,0,7.3,0.4,7.3,7.4c0,5.5-0.2,11,0.1,16.5c0.2,4.7-1.8,6-6.2,6
		c-35-0.1-70,0-105-0.2c-4.9,0-6.5,1.3-5.9,6.1c0.6,4.4-1.8,10.2,0.9,13c2.7,2.9,8.5,0.9,12.9,0.9c32,0.1,64,0,96,0
		c6.5,0,7.1,0.6,7.2,7.1c0,5.3,0,10.7,0,16c-0.1,5.5-1.4,6.8-6.8,6.8c-32.8,0-65.7,0-98.5,0c-6.4,0-6.7,0.2-3.8,6.1
		c7.2,14.7,19.1,24.9,33.8,31.1c26.2,11.1,52.4,8.3,78-2.7c6.9-3,9.1-2.2,11.3,5c1.8,5.7,3.4,11.5,5.4,17.1c1.7,4.7,0.3,7.4-4,9.7
		c-19.1,9.7-39.6,13.6-60.8,13.5c-23.5-0.1-46.1-4.7-66.2-17.6c-21.8-13.9-37.3-33-44-58.4c-0.8-3.1-2-4-5-3.9
		c-5.3,0.2-10.7,0.1-16,0.1c-5.5,0-7.5-1.9-7.6-7.5c-0.1-5.3,0-10.7,0-16c0-4.3,2-6.5,6.4-6.4c4.2,0.1,8.3-0.1,12.5,0
		c2.5,0.1,3.6-0.5,3.5-3.3c-0.1-5.3,2.1-12.1-0.4-15.5c-2.4-3.3-9.6-0.9-14.7-1.1c-6.4-0.2-7.2-0.9-7.2-7.3c0-5.2-0.1-10.3,0-15.5
		c0-5.6,1.4-7,7.1-7.1c6.3-0.1,12.7-0.1,19,0c2.6,0.1,3.7-0.8,4.5-3.3c15-44.6,47.8-67.3,92.8-74c24.1-3.5,47.8-0.8,70.7,8.2
		c8.1,3.2,8.7,4.5,5.9,12.5c-1.9,5.3-3.8,10.6-5.8,15.9c-2.5,7-4.5,7.8-11.1,4.9c-19.7-8.5-40.2-10.5-61.1-5.6
		c-20.5,4.8-34.9,17.9-45,36.1C440.8,461.4,439.9,462.9,440,464.7z"/>
	<path d="M243.8,540c-8.9-9.1-17.1-17.4-25.3-25.7c-4.7-4.8-4.6-8.4,0.1-13.2c3.3-3.3,6.5-6.7,9.9-9.9c3.7-3.6,7.4-3.8,10.9-0.3
		c19.6,19,39.2,38,58.7,57.2c3.8,3.8,3.7,7.4-0.2,11.3c-19.3,19.3-38.6,38.6-58,57.9c-3.9,3.9-7.4,3.9-11.3,0.1
		c-3.7-3.6-7.4-7.2-10.9-11c-3.7-3.9-3.6-6.3,0.1-10.3c8.2-8.7,16.4-17.5,24.6-26.3c-0.6-0.5-2.5,0.2-4.1,0.2
		c-12-0.2-24,0.4-35.8-1.9c-28.3-5.5-43.4-20.7-48.7-48.9c-3.6-19.3-2.9-38.8-2.9-58.2c0-2.9,1.4-4.7,4.3-5.3
		c8.1-1.6,16.2-0.8,24.4-0.4c2.9,0.1,3.4,2.6,3.4,5.2c-0.1,9.3,0,18.7,0,28c0,9,0.1,18,1.7,26.9c2.4,14,9,20.9,22.8,23.4
		C219.1,540.8,231.1,539.8,243.8,540z"/>
	<path d="M428.2,215.8c4.6,0,8.2,0,11.7,0c10.7-0.2,21.3,0.3,31.8,2.4c24.9,5,39,20.7,44.5,44.9c4.7,20.7,3.3,41.8,3.5,62.7
		c0,3.4-2.4,4.8-5.2,4.9c-6.8,0.3-13.7,0.3-20.5,0c-4.3-0.2-6.3-2.8-6.3-7.3c0.1-14-0.1-28-0.1-42c0-4.4-0.7-8.6-1.4-12.9
		c-1.9-11.2-8.5-18-19.6-20.7c-12.3-3-24.9-1.6-37.3-2c-0.5,2.1,1.2,2.7,2.2,3.7c7.3,7.5,14.7,15,22,22.5c4.9,5,5,8.9,0.2,13.8
		c-3.2,3.4-6.5,6.7-9.9,9.9c-4.2,4-7.3,4.2-11.3,0.3c-19.6-19-39.2-38.1-58.7-57.3c-3.6-3.6-3.5-7.2,0.2-10.9
		c19.4-19.4,38.9-38.9,58.4-58.2c3.9-3.9,7.2-3.8,11.3,0.2c3.6,3.4,7.2,7,10.6,10.6c3.5,3.6,3.5,6.6-0.3,10.3
		c-7.3,7.1-14.7,14.1-22,21.1C431,212.8,430,214,428.2,215.8z"/>
	<path d="M277.8,286.9c-10.7-6.2-22-10.9-33.8-14.8c-3.6-1.2-4.4-2.8-4.4-6.3c0.2-17,0.3-34,0-51c-0.1-5.2,1.8-5.6,6-4.9
		c12.2,2.1,24,5.2,35.6,9.4c5.3,1.9,7.5,0.8,9.7-4.4c2.4-5.8,4.8-11.7,7.1-17.6c2.8-7,2-8.9-5.2-11.6c-14.6-5.4-29.6-8.7-45-10.6
		c-8-1-8-1.1-8.1-9.6c-0.1-6.5-2.9-9.3-9.5-9.5c-5.2-0.1-10.3-0.1-15.5,0c-6.6,0.1-9.3,2.9-9.4,9.6c-0.2,9.2-0.2,9.2-9.4,11.3
		c-16.9,3.9-32.2,10.9-43.4,24.8c-19,23.5-12.8,60.8,13.1,79.5c10.9,7.9,23.2,13,35.8,17.3c3.2,1.1,4,2.6,4,5.7
		c-0.2,8.8-0.1,17.7-0.1,26.5c0,9.3-0.1,18.7,0,28c0,2.9-0.5,4.3-3.9,3.9c-18.3-2-36.1-5.6-53.2-12.7c-6.4-2.6-10.1-0.2-10.3,6.7
		c-0.2,7,0.2,14-0.1,21c-0.2,5.1,1.7,8,6.5,9.8c15.8,5.8,32.1,8.5,48.8,9.6c11.9,0.8,11.9,0.8,12.1,12.3c0,0.2,0,0.3,0,0.5
		c0.2,5.2,2.8,8.1,8,8.3c6.2,0.2,12.3,0.2,18.5,0c5.1-0.2,7.7-3.1,7.9-8.4c0.1-3.5,0.2-7,0-10.5c-0.2-2.9,0.9-3.9,3.8-4.5
		c12.5-2.5,24.3-6.6,35.3-13.3C314,359.9,314.4,308.2,277.8,286.9z M206.5,258.9c-5.5-2-10-4-14-7c-14.8-11.2-12.7-30,4.2-38.1
		c9.3-4.5,9.7-4.2,9.7,5.7C206.5,232.4,206.5,245.3,206.5,258.9z M255.8,353.9c-0.5,0.4-1.1,0.7-1.7,1.1c-4.1,2.2-8.8,5.6-12.8,4.1
		c-2.4-1-0.7-7.3-0.8-11.2c-0.1-12.1,0-24.1,0-36.7c6.7,2.4,12.5,5.2,17.3,9.5C268.2,329.8,267.2,346,255.8,353.9z"/>
</g>
</svg>
