<?xml version="1.0" encoding="utf-8"?>
<!-- Generator: Adobe Illustrator 19.0.0, SVG Export Plug-In . SVG Version: 6.00 Build 0)  -->
<svg version="1.1" id="Calque_1" xmlns="http://www.w3.org/2000/svg" xmlns:xlink="http://www.w3.org/1999/xlink" x="0px" y="0px"
	 viewBox="0 0 612 792" style="enable-background:new 0 0 612 792;" xml:space="preserve">
<g>
	<path d="M95.3,399.1c-8.4,0-16.4,0-24.3,0c-2.7,0-5.3,0-8-0.1c-5.3-0.3-8.2-2.7-8.3-8c-0.3-11.8-0.3-23.7-0.1-35.5
		c0.1-5.9,3.2-8.4,9.5-8.5c13-0.1,26-0.1,39,0c3.5,0,5.3-1.2,6.3-4.7c20.4-67.5,67.5-107.5,132.9-127.7c31.6-9.8,64.4-11.1,97.3-7.5
		c23.3,2.6,45.8,8.1,67.4,17.2c9.7,4.1,10.9,6.9,7.3,16.9c-4.3,11.9-8.4,23.8-12.7,35.7c-2.5,6.8-7.5,9.4-13.7,6.4
		c-20.1-9.6-41.3-14.3-63.4-15.9c-26.9-2-52.9,1.3-77.1,13.8c-25.3,13.1-44.1,32.9-56.5,58.7c-0.9,1.9-1.4,3.9-2.4,6.7
		c3.3,0.1,5.8,0.4,8.4,0.4c59.2,0,118.3,0,177.5,0c9.9,0,10.3,0.5,10.4,10.5c0,11,0,22,0,33c0,7.1-1.3,8.5-8.5,8.5
		c-35.5,0.1-71,0-106.5,0c-29.7,0-59.3,0.1-89-0.1c-4.8,0-6.4,1.5-6.2,6.3c0.4,8.1,0.4,16.3,0,24.5c-0.3,5.2,1.6,6.5,6.5,6.5
		c44-0.2,88-0.1,132-0.1c21,0,42,0,63,0c6.6,0,8.6,2,8.6,8.7c0,11.2,0,22.3,0,33.5c0,7.5-2.8,10.2-10.3,10.2
		c-60.8,0-121.7,0-182.5,0c-2.1,0-4.2,0-6.9,0c2.2,11.6,7,21.2,14.2,29.4c21.8,24.8,47.8,42.8,81.2,48.1
		c38.7,6.1,75.9,1.3,111.5-15.3c9.7-4.5,14.3-2.7,17.5,7.6c3.6,11.2,7,22.5,10.5,33.8c2.3,7.6,1.1,10.6-5.7,14.4
		c-21.7,11.9-45.2,18.4-69.5,22.2c-21.8,3.4-43.8,4.1-65.7,1.9c-46-4.7-88.4-18.9-122.2-51.8c-24.7-24-45-51.4-51.6-86.6
		c-0.6-3.3-2.4-3.8-5.2-3.8c-11,0.1-22,0-33,0c-8,0-12.3-3.6-12.5-11.6c-0.3-10.3-0.2-20.7,0-31c0.2-6.8,3.6-9.8,10.5-9.8
		c8.3,0,16.7-0.1,25,0c3.7,0.1,5.4-1,5.3-5.1C95.1,420.8,95.3,410.5,95.3,399.1z"/>
</g>
</svg>
