<?xml version="1.0" encoding="utf-8"?>
<!-- Generator: Adobe Illustrator 19.0.0, SVG Export Plug-In . SVG Version: 6.00 Build 0)  -->
<svg version="1.1" id="Calque_1" xmlns="http://www.w3.org/2000/svg" xmlns:xlink="http://www.w3.org/1999/xlink" x="0px" y="0px"
	 viewBox="0 0 612 792" style="enable-background:new 0 0 612 792;" xml:space="preserve">
<g>
	<path d="M238.5,361.4c-6.5-9.5-12.1-17.9-17.9-26.3c-34.2-50.1-68.3-100.2-102.5-150.2c-0.9-1.4-2-2.7-2.7-4.2
		c-2.1-4.3,0.1-8.5,4.8-8.5c21.5-0.1,43-0.2,64.5,0.2c2,0,4.6,2.5,5.9,4.5c25.6,36.1,51.1,72.4,76.6,108.6
		c11.3,16.1,22.6,32.1,34,48.2c1.4,2,3,4,4.9,6.6c1.5-1.9,2.7-3.4,3.8-4.9c36.7-52.4,73.4-104.8,109.9-157.2c3-4.3,6.2-6.1,11.5-6
		c19,0.3,38,0,57,0.2c2.6,0,6,1.1,7.7,3c2.7,2.9,0.1,5.8-1.7,8.4c-38.9,56.7-77.8,113.4-116.8,170.1c-1.6,2.3-3,4.6-5.1,7.7
		c2.8,0.2,4.6,0.4,6.3,0.4c12.2,0,24.3,0,36.5,0.1c6.2,0,7.8,1.5,7.8,7.6c0,10.8,0.1,21.7,0,32.5c0,6-1.7,7.6-7.8,7.6
		c-22.2,0-44.3,0-66.5,0c-6.7,0-6.7,0-6.7,6.9c0,6.2,0.2,12.3-0.1,18.5c-0.2,4.4,1.4,5.8,5.7,5.7c21.3-0.1,42.7-0.1,64-0.1
		c1.5,0,3,0,4.5,0c5.2,0.3,6.8,1.8,6.9,7c0.1,10.2,0.1,20.3,0.1,30.5c0,6.5-1.8,8.3-8.3,8.3c-21.5,0-43,0-64.5,0
		c-9,0-8.3-1.2-8.3,8.3c0,35.3,0,70.7,0,106c0,8-1.6,9.5-9.7,9.6c-20.5,0-41,0.1-61.5,0c-6.8,0-8.5-1.8-8.5-8.7c0-36,0-72,0-108
		c0-7.2,0-7.2-6.9-7.2c-20.3,0-40.7,0-61,0c-7.3,0-8.9-1.6-8.9-8.7c0-9.7,0-19.3,0-29c0-6.7,1.4-8.1,8.3-8.1c20.2-0.1,40.3,0,60.5,0
		c8,0,8,0,8-7.9c0-5.7-0.3-11.3,0.1-17c0.3-4.7-1.1-6.4-6.1-6.3c-20.7,0.3-41.3,0.1-62,0.1c-7.4,0-8.8-1.3-8.8-8.7
		c0-9.8,0-19.7,0-29.5c0-8.9,0.7-9.6,9.8-9.6c12-0.1,24,0,36,0C233.4,361.9,235.3,361.6,238.5,361.4z"/>
</g>
</svg>
