<?xml version="1.0" encoding="utf-8"?>
<!-- Generator: Adobe Illustrator 19.0.0, SVG Export Plug-In . SVG Version: 6.00 Build 0)  -->
<svg version="1.1" id="Calque_1" xmlns="http://www.w3.org/2000/svg" xmlns:xlink="http://www.w3.org/1999/xlink" x="0px" y="0px"
	 viewBox="0 0 612 792" style="enable-background:new 0 0 612 792;" xml:space="preserve">
<g>
	<path d="M281.3,511c0-3.1,0-4.9,0-6.7c0-33.8-0.1-67.7,0.1-101.5c0-4.3-1.5-5.9-5.4-7.3c-22.7-7.7-45-16.7-64.7-30.7
		c-25.8-18.3-40.2-43.1-43.2-74.8c-4-43.2,15.3-73.6,51.5-94.8c17.3-10.1,36.2-15.9,55.9-18.9c4.6-0.7,6.2-2.5,5.9-7
		c-0.4-4.8-0.2-9.7,0-14.5c0.2-7.8,5.9-13.5,13.7-13.6c11.2-0.1,22.3-0.1,33.5,0c7.6,0.1,13.1,5.6,13.3,13.2
		c0.1,5.2,0.1,10.3,0.1,15.5c0,2.8,1,4.1,4.1,4.3c31.4,2.2,61.8,8.9,91.3,19.8c2.2,0.8,4.4,1.5,6.5,2.6c4.5,2.2,6.7,6.6,4.9,11.2
		c-5.3,14-10.9,27.9-16.7,41.6c-2.2,5.3-7.4,6.1-13.7,4.3c-18.1-5.3-36.3-10.6-54.6-15.5c-6.7-1.8-13.7-2.2-21.2-3.4
		c-0.2,2.4-0.5,4.2-0.5,5.9c0,33.2,0,66.3-0.1,99.5c0,3.9,1,5.8,5,7.1c22,7.3,43.7,15.3,63.5,27.6c22.2,13.7,39,32,45.3,57.9
		c11,45.6-4.1,87.8-49.1,113.6c-18.7,10.7-38.9,17-60,20.9c-3.7,0.7-4.6,2.4-4.6,5.7c0.1,7.3,0.1,14.7-0.1,22
		c-0.2,8.3-5.2,13.5-13.4,13.6c-11.3,0.2-22.7,0.2-34,0c-7.7-0.1-13-5.7-13.2-13.5c-0.1-6-0.3-12,0.1-18c0.2-4-1.4-5.2-5.1-5.4
		c-11.3-0.6-22.6-1-33.9-2.3c-24.8-2.8-49.3-7.2-72.6-16.7c-6-2.5-8.8-6.3-8.6-12.9c0.3-14.2,0.1-28.3,0.1-42.5
		c0-9.1,6.7-13.9,15.1-10.4c24.7,10.2,50.5,16.7,76.8,20.9C262.2,509.3,271.3,509.9,281.3,511z M344,505.1
		c8.2,0.1,23.3-6.4,31.3-13.4c17.1-15,18.1-40.7,1.2-56c-6.8-6.1-15.5-10.1-23.5-14.9c-2.6-1.6-5.6-2.4-9-3.8
		C344,446.9,344,476,344,505.1z M282.5,236.7c-7.8,3.1-14.9,4.9-20.9,8.5c-12.3,7.2-21.5,17.1-21.8,32.4
		c-0.5,21.7,19.4,43.6,42.8,46.8C282.5,295.7,282.5,267,282.5,236.7z"/>
</g>
</svg>
