<?xml version="1.0" encoding="utf-8"?>
<!-- Generator: Adobe Illustrator 19.0.0, SVG Export Plug-In . SVG Version: 6.00 Build 0)  -->
<svg version="1.1" id="Calque_1" xmlns="http://www.w3.org/2000/svg" xmlns:xlink="http://www.w3.org/1999/xlink" x="0px" y="0px"
	 viewBox="0 0 612 792" style="enable-background:new 0 0 612 792;" xml:space="preserve">
<g>
	<path d="M216.7,357.4c-2.8-10.4-5.7-20.1-8-29.9c-6.3-26.7-7-53.5,2.2-79.7c12.4-35.7,38.3-58.1,72.7-71.4
		c24.8-9.6,50.7-11.7,77.1-9.2c25.6,2.4,49,10.4,69.5,26.1c24.9,19.2,38.9,45,45.4,75.3c0.6,2.8,1.1,5.5,1.6,8.3
		c0.8,4.4-0.9,7.1-5.4,7.8c-17.1,2.7-34.1,5.2-51.2,7.7c-3.9,0.6-6.6-2.2-7.3-7.1c-1.7-12-5.2-23.4-12-33.5
		c-17-25.2-41-34.8-70.7-31.5c-20,2.2-35.8,11.6-47.8,27.7c-9.1,12.2-12,26.1-10.9,41.1c1.6,21.7,6.8,42.6,13.2,63.3
		c1.3,4.2,3.1,5.8,7.6,5.8c26.2-0.2,52.3-0.1,78.5-0.1c7.2,0,8.5,1.2,8.5,8.4c0,13.3,0,26.7,0,40c0,6.9-1.2,8.1-8.1,8.1
		c-21.3,0.1-42.7,0-64,0c-2,0-3.9,0-6.4,0c0.6,3.3,1.1,5.8,1.4,8.4c2.6,21.5-2.5,41.9-11.6,60.9c-6.5,13.6-15.6,25.9-23.5,38.7
		c-1,1.6-2.3,3.1-4.1,5.7c4.2-0.4,7.2-0.6,10.2-0.9c24-2.8,47.3,1.7,70.7,6.5c20.3,4.1,40.8,7.9,61.3,11c11,1.7,21.8-1.6,32.3-5
		c7.7-2.5,15.3-5.6,22.9-8.6c6-2.3,8.6-1.4,10.9,4.6c5.5,14.3,10.8,28.6,16.3,42.9c1.6,4.1,1.1,7.4-3.1,9.1
		c-16.5,6.6-33,13.1-50.7,16.1c-21.9,3.7-43.3,1.5-64.6-4.6c-19.6-5.7-39.1-12-59.1-16.2c-30.7-6.4-60.6-1.1-89.1,11.3
		c-7.3,3.2-14.3,7.1-21.3,10.9c-5.6,3-8.6,2.2-10.9-3.6c-6.1-14.8-12.1-29.6-18-44.4c-2.6-6.5-2-8,4.1-11.6
		c26.9-16.1,47.4-37.7,56.7-68.3c5.7-18.9,6.5-38.2,2.7-57.7c-0.7-3.8-2.2-5.2-6.2-5.1c-15,0.2-30,0.1-45,0.1
		c-7.4,0-8.8-1.5-8.8-8.7c0-13.2,0-26.3,0-39.5c0-6.5,1.8-8.3,8.3-8.3c9.8-0.1,19.7,0,29.5-0.1C213.4,357.9,214.7,357.6,216.7,357.4
		z"/>
</g>
</svg>
