<?xml version="1.0" encoding="utf-8"?>
<!-- Generator: Adobe Illustrator 19.0.0, SVG Export Plug-In . SVG Version: 6.00 Build 0)  -->
<svg version="1.1" id="Calque_1" xmlns="http://www.w3.org/2000/svg" xmlns:xlink="http://www.w3.org/1999/xlink" x="0px" y="0px"
	 viewBox="0 0 612 792" style="enable-background:new 0 0 612 792;" xml:space="preserve">
<g>
	<path d="M490,363.6c0,67.5,0,134.9,0,202.4c0,7.1,0,7.1-7.2,7.1c-7.2,0-14.3,0-21.5,0c-6.7,0-6.7,0-6.7-6.6c0-44.1,0-88.3,0-132.4
		c0-90.6,0-181.2,0-271.9c0-7.2,0-7.2,7-7.2c8,0,16,0.1,24,0c3.5-0.1,4.5,1.2,4.5,4.7C490,227.7,490,295.6,490,363.6
		C490,363.6,490,363.6,490,363.6z M460,160.2c0,136.2,0,271.8,0,407.4c8.5,0,16.6,0,24.5,0c0-136.1,0-271.7,0-407.4
		C476.2,160.2,468.2,160.2,460,160.2z"/>
	<path d="M380.7,438.2c0,42.6,0,85.3,0,127.9c0,7,0,7-6.9,7c-7.7,0-15.3-0.2-23,0.1c-4.7,0.2-5.9-1.7-5.9-6.1
		c0.1-55.3,0.1-110.6,0.1-165.9c0-30.5,0-61,0-91.4c0-6.6,0-6.6,6.7-6.6c8,0,16,0.1,24-0.1c3.9-0.1,5.2,1.3,5.2,5.2
		C380.7,351.6,380.7,394.9,380.7,438.2z M350.4,308.3c0,86.9,0,173.2,0,259.5c8.6,0,16.7,0,24.9,0c0-86.6,0-173,0-259.5
		C366.9,308.3,358.8,308.3,350.4,308.3z"/>
	<path d="M399.8,460.7c0-35.5,0.1-70.9-0.1-106.4c0-4.8,1.3-6.5,6.2-6.3c8.3,0.4,16.6,0.1,25,0.1c3.2,0,4.8,0.9,4.8,4.6
		c-0.1,70.6-0.1,141.2-0.2,211.8c0,1.5,0.5,3.2-0.1,4.4c-0.8,1.6-2.4,3.9-3.7,3.9c-9.3,0.3-18.6,0.1-28,0.2c-4,0-3.9-2.6-3.9-5.5
		c0-20,0-40,0-59.9C399.8,492,399.8,476.4,399.8,460.7z M430.1,567.9c0-71.8,0-143.1,0-214.4c-8.6,0-16.8,0-24.9,0
		c0,71.7,0,143,0,214.4C413.6,567.9,421.5,567.9,430.1,567.9z"/>
	<path d="M283.2,229.8c0,46.6-38.1,84.5-84.7,84.5c-46.3,0-84.5-38.2-84.5-84.2c0-46.7,38.3-84.9,85-84.9
		C245.1,145.3,283.2,183.6,283.2,229.8z M278.2,230c0.1-43.9-35-79.6-78.5-79.8c-45.1-0.2-80.5,34.8-80.7,79.7
		c-0.2,43.9,35.2,79.3,79.4,79.4C243,309.4,278.1,274.5,278.2,230z"/>
	<path d="M271.1,465.5c0,33.7,0,67.3,0,101c0,6.6,0,6.6-6.7,6.6c-7.8,0-15.7-0.1-23.5,0.1c-3.8,0.1-5.3-1-5.3-5.1
		c0.1-68.5,0.1-137,0-205.5c0-3.4,1-4.8,4.6-4.8c8.8,0.2,17.7,0.1,26.5,0c3.3,0,4.6,0.9,4.6,4.6
		C271.1,396.8,271.2,431.1,271.1,465.5C271.2,465.5,271.1,465.5,271.1,465.5z M265.8,567.8c0-68.4,0-136.4,0-204.6
		c-8.4,0-16.5,0-24.8,0c0,68.3,0,136.4,0,204.6C249.3,567.8,257.2,567.8,265.8,567.8z"/>
	<path d="M161.8,467.6c0,33-0.1,66,0.1,98.9c0,4.9-1.2,6.9-6.4,6.6c-7.8-0.4-15.7-0.3-23.5,0c-4.7,0.2-6-1.6-6-6.1
		c0.1-49.1,0.1-98.3,0.1-147.4c0-17.5,0.1-35-0.1-52.5c0-4.3,1.2-6,5.7-5.9c8.3,0.3,16.7,0.2,25,0c3.9-0.1,5.2,1.4,5.2,5.3
		C161.7,400.3,161.8,434,161.8,467.6z M156.4,567.9c0-67.3,0-134.2,0-201.5c-6.9,0-13.6,0.2-20.2-0.1c-4.3-0.2-5.3,1.4-5.3,5.4
		c0.1,63.6,0.1,127.3,0.1,190.9c0,1.7,0.2,3.5,0.3,5.3C140,567.9,148,567.9,156.4,567.9z"/>
	<path d="M216.5,504.5c0,20.8-0.1,41.6,0.1,62.4c0,4.8-1.4,6.5-6.3,6.3c-8-0.4-16-0.3-24,0c-4,0.1-5.6-1.1-5.6-5.4
		c0.1-42.3,0.1-84.6,0-126.9c0-3.7,1-5.5,5-5.5c8.7,0.2,17.3,0.1,26,0c3.6,0,4.9,1.4,4.9,5.1C216.5,461.8,216.6,483.2,216.5,504.5
		C216.6,504.5,216.6,504.5,216.5,504.5z M186.2,440.8c0,42.7,0,84.9,0,127c8.5,0,16.6,0,24.9,0c0-42.4,0-84.6,0-127
		C202.7,440.8,194.6,440.8,186.2,440.8z"/>
	<path d="M325.8,515.4c0,17.3-0.1,34.6,0.1,52c0.1,4.3-1.3,5.9-5.7,5.8c-8.3-0.3-16.7-0.2-25,0c-3.7,0.1-4.9-1.4-4.9-5
		c0.1-35.1,0.1-70.3,0-105.4c0-3.4,1.2-4.7,4.7-4.6c8.5,0.2,17,0.2,25.5,0c4.1-0.1,5.5,1.3,5.4,5.4
		C325.7,480.8,325.9,498.1,325.8,515.4C325.9,515.4,325.9,515.4,325.8,515.4z M320.5,567.9c0-35.1,0-69.8,0-104.5
		c-8.4,0-16.5,0-24.7,0c0,34.9,0,69.6,0,104.5C304.1,567.9,312.1,567.9,320.5,567.9z"/>
	<path d="M106.9,535.1c0,10.6-0.2,21.3,0.1,31.9c0.2,5-1.6,6.3-6.3,6.1c-8-0.3-16-0.2-23.9,0c-3.8,0.1-5.3-1.1-5.3-5.1
		c0.1-21.8,0.1-43.6,0-65.4c0-3.3,1-4.8,4.5-4.7c8.8,0.2,17.6,0.2,26.4,0c3.5-0.1,4.6,1.3,4.6,4.7
		C106.8,513.5,106.9,524.3,106.9,535.1C106.9,535.1,106.9,535.1,106.9,535.1z M101.6,568c0-21.9,0-43.3,0-64.8c-8.4,0-16.5,0-24.7,0
		c0,21.6,0,42.9,0,64.5c1.1,0.1,1.9,0.2,2.7,0.2C86.7,568,93.8,568,101.6,568z"/>
	<path d="M196.1,181.2c0-4.7-0.2-8.9,0.1-13c0.1-1.3,1.6-2.4,2.5-3.6c0.8,1.2,2.2,2.4,2.3,3.7c0.3,4.1,0.1,8.2,0.1,12.9
		c3.5,0,6.5-0.1,9.4,0c7.8,0.3,14.7,6.3,15.1,13.3c0.1,1.4-1.3,2.9-2,4.3c-0.9-1.1-2.4-2.2-2.7-3.4c-1.6-6.6-4.6-9.2-11.5-9.3
		c-7.2-0.1-14.3-0.1-21.5,0c-7.6,0.1-11.3,3.7-11.4,11.4c-0.1,6.2-0.1,12.3,0,18.5c0.1,6.5,3.1,9.5,9.8,10.1
		c8.3,0.7,16.6,1.4,24.9,2c8.3,0.6,14.5,7.1,14.7,15.4c0.1,6,0.1,12,0,18c-0.1,10.5-6.3,16.7-16.8,16.8c-2.3,0-4.6,0-8,0
		c0,4.3,0.2,8.4-0.1,12.4c-0.1,1.5-1.4,2.9-2.2,4.3c-0.9-1.5-2.4-2.9-2.6-4.5c-0.4-3.8-0.1-7.6-0.1-12.3c-3.6,0-6.9,0.1-10.1,0
		c-7.3-0.4-13.8-6.2-14.2-13c-0.1-1.4,1.2-2.9,1.9-4.3c1,1.1,2.4,2.1,2.8,3.4c1.7,6.6,4.4,8.9,11.1,9c7.5,0.1,15,0.1,22.5,0
		c7.1-0.1,10.7-3.7,10.8-10.9c0.1-6.3,0.1-12.7,0-19c-0.1-6.2-3.6-9.9-9.9-10.3c-7.8-0.5-15.6-0.9-23.4-1.2
		c-9.2-0.4-15.9-7.2-16-16.4c-0.1-5.8-0.1-11.7,0-17.5c0.1-10.4,6.5-16.8,16.8-16.8C190.6,181.2,193,181.2,196.1,181.2z"/>
</g>
</svg>
