<?xml version="1.0" encoding="utf-8"?>
<!-- Generator: Adobe Illustrator 19.0.0, SVG Export Plug-In . SVG Version: 6.00 Build 0)  -->
<svg version="1.1" id="Calque_1" xmlns="http://www.w3.org/2000/svg" xmlns:xlink="http://www.w3.org/1999/xlink" x="0px" y="0px"
	 viewBox="0 0 612 792" style="enable-background:new 0 0 612 792;" xml:space="preserve">
<g>
	<path d="M175,565.7c0,11.2-0.1,21.5,0,31.8c0,4.2-1.1,7.4-5.8,7.7c-4,0.3-6.2-2.5-6.2-7.8c0-10.3,0-20.6,0-31.5
		c-2.1-0.1-3.8-0.3-5.6-0.3c-11.5,0-23,0-34.5,0c-1.5,0-3,0.1-4.5-0.1c-3.8-0.3-6.5-2-6.5-6.1c0.1-4.1,2.7-5.8,6.6-5.8
		c12.8,0,25.7,0,38.5,0c1.8,0,3.6,0,5.9,0c0-2.3,0-4.1,0-5.9c0-110.3,0-220.6,0-330.9c0-0.8,0-1.7,0-2.5c0-4.1,1.8-7,6-7
		c4.2,0,6,2.9,6,7c0,19.7,0,39.3,0,59c0,91.5,0,183,0,274.5c0,1.8,0,3.6,0,5.7c10.6,0,20.7,0,31.6,0c0-2.2,0-4.2,0-6.3
		c0-33.2,0-66.3,0-99.5c0-13,5.8-18.8,18.9-18.9c5.5,0,11-0.1,16.5,0c10.8,0.2,17,6.4,17.1,17.2c0.1,34,0,68,0,102
		c0,1.7,0,3.3,0,5.4c9.9,0,19.6,0,29.9,0c0-1.9,0-3.7,0-5.5c0-49.2,0-98.3,0-147.5c0-14.9,5.6-20.4,20.6-20.4c4.8,0,9.7,0,14.5,0
		c10.9,0.1,17.5,6.5,17.6,17.4c0.1,16.5,0.1,33,0.1,49.5c0,33.8,0,67.7,0,101.5c0,1.6,0.2,3.2,0.2,5.1c9.8,0,19.2,0,29.4,0
		c0-2.3,0-4.4,0-6.5c0-63-0.1-126,0.1-189c0-4.5,1.6-9.5,3.8-13.5c2.3-4.3,7.1-5.8,12.1-5.8c6.3,0,12.7-0.1,19,0
		c11.3,0.1,17.6,6.4,17.6,17.7c0,63.2,0,126.3,0,189.5c0,2.5,0,4.9,0,8c2.6,0,4.7,0,6.8,0c23.3,0,46.7,0,70,0c1.5,0,3.4-0.4,4.4,0.3
		c1.9,1.3,4.3,3.2,4.5,5c0.2,1.9-1.7,4.5-3.4,5.8c-1.3,1-3.8,0.8-5.8,0.8c-106.5,0-213,0-319.4,0C179.2,565.7,177.4,565.7,175,565.7
		z M411.9,553.5c0-20.1,0-39.5,0-59c0-45.8,0-91.6,0.1-137.4c0-4.7-1.6-6.7-6.4-6.5c-4.8,0.2-9.7,0-14.5,0c-7.4,0-7.8,0.5-7.8,8
		c0,63.1,0,126.2,0,189.4c0,1.8,0.2,3.5,0.3,5.5C393.1,553.5,402.2,553.5,411.9,553.5z M329.6,553.5c0-2.4,0-4.2,0-6
		c0-17.3,0-34.6,0-52c0-32.1,0-64.3,0-96.4c0-6.1-0.9-7-6.9-7c-4.7,0-9.3,0-14,0c-7.2,0-7.7,0.6-7.7,7.6c0,49.8,0,99.6,0,149.4
		c0,1.4,0.2,2.9,0.3,4.5C310.7,553.5,319.8,553.5,329.6,553.5z M246.5,553.6c0.3-0.8,0.5-1.1,0.5-1.4c0-35.5,0-70.9,0.1-106.4
		c0-3.6-1.8-5.1-5.3-5c-5.3,0.1-10.7,0-16,0c-6.7,0-7.2,0.5-7.2,7c0,33.5,0,66.9,0,100.4c0,1.8,0.2,3.5,0.3,5.4
		C228.4,553.6,237.3,553.6,246.5,553.6z"/>
	<path d="M402.4,261c-6.3,0-12.1,0-19.2,0c6.6-6.2,10.3-14,20.7-12.4c6.3,1,12.9,0.2,20,0.2c0,9.4,0.2,18.5-0.2,27.6
		c-0.1,1.7-2.3,3.4-3.7,5c-2.3,2.6-4.7,5-8.1,7c0-5.9,0-11.7,0-18.7c-2.1,2-3.5,3.1-4.7,4.3c-20.1,20.1-40.4,40.2-60.4,60.5
		c-5.1,5.1-10.6,7.6-17.8,7.3c-7.5-0.3-15,0.1-22.5-0.1c-3.5-0.1-5.8,1.2-8,3.9c-10.5,13.2-21.2,26.1-31.7,39.3
		c-4.1,5.1-9,7.4-15.5,7.3c-18.2-0.2-36.3,0-54.5-0.1c-5.7,0-8.5-2-8.5-6.1c0.1-4,2.9-5.9,8.7-5.9c17.8,0,35.6-0.1,53.5,0.1
		c3.3,0,5.5-1,7.6-3.6c10.6-13.3,21.4-26.4,32-39.6c3.9-4.9,8.8-7.3,15.1-7.1c8.3,0.2,16.7,0.2,25-0.1c2.1-0.1,4.8-0.8,6.3-2.2
		c21.8-21.6,43.4-43.3,65.1-65C401.9,262.3,402,262,402.4,261z"/>
</g>
</svg>
