<?xml version="1.0" encoding="utf-8"?>
<!-- Generator: Adobe Illustrator 19.0.0, SVG Export Plug-In . SVG Version: 6.00 Build 0)  -->
<svg version="1.1" id="Calque_1" xmlns="http://www.w3.org/2000/svg" xmlns:xlink="http://www.w3.org/1999/xlink" x="0px" y="0px"
	 viewBox="0 0 612 792" style="enable-background:new 0 0 612 792;" xml:space="preserve">
<style type="text/css">
	.st0{fill:#78818D;}
</style>
<path class="st0" d="M537,251.9c-3.7-2.1-6.3,0.3-9.1,2.2c-36.8,24.6-73.6,49.2-110.5,73.8c-1.6,1.1-3,2.6-5.7,2.8c0-1.6,0-3,0-4.4
	c0-21.7-0.1-43.3-0.1-65c0-3.4,0.3-6.9-3.3-8.8c-3.5-1.8-6.3,0.1-9.2,2c-35.1,23.3-70.2,46.6-105.3,69.8c-3.4,2.3-6.9,4.4-11.2,7.2
	c0-3,0-4.9,0-6.9c0-22-0.1-44-0.1-66c0-3.1,0-6-3.1-7.8c-3.4-1.9-6-0.2-8.7,1.6c-22.7,15.7-45.5,31.4-68.3,47.1
	c-14,9.6-27.9,19.2-42.6,29.3c-0.1-1.6-0.2-2.2-0.2-2.8c-0.9-36.3-1.9-72.6-2.8-108.9c-1.1-41.3-2.1-82.6-3.2-123.9
	c-0.2-6-2.3-8-8.3-8c-17.5,0-35,0-52.5,0c-6.9,0-8.9,2-9.1,8.9c-0.7,24-1.3,47.9-2,71.9c-1.3,47.1-2.7,94.2-4,141.3
	c-1,35.3-2,70.6-3,105.9c-1.1,41.6-2.2,83.2-3.3,124.9c-0.3,12.4,3.9,16.7,16.1,16.7c41.8,0,83.6,0,125.5,0c103.6,0,207.3,0,310.9,0
	c11.9,0,16.4-4.5,16.4-16.2c0-92.6,0-185.3,0-277.9C540.5,257.2,540.5,253.9,537,251.9z M352.7,362.9c13.3,0.1,26.6,0.1,39.9,0.2
	l0,0c0,0,0,0,0,0c5.5,0,11,0,16.5-0.1c2.6-0.1,3.5,0.9,3.5,3.5c-0.1,19.1-0.1,38.3,0,57.4c0,1.9-0.4,3.2-2.7,3.2
	c-20-0.1-39.9-0.1-59.9-0.1c-0.4,0-0.8-0.5-1.2-0.8c-0.1-19.8-0.1-39.6-0.3-59.4C348.5,363.3,350,362.8,352.7,362.9z M181.3,362.8
	c13.8,0.1,27.6,0.1,41.4,0.2v0c5.2,0,10.3,0,15.5-0.2c2.5-0.1,3.6,0.8,3.5,3.4c-0.1,19.2-0.1,38.3,0,57.5c0,1.9-0.4,3.2-2.7,3.2
	c-20-0.1-40-0.1-60-0.1c-0.4,0-0.8-0.5-1.1-0.8c-0.1-20-0.1-39.9-0.2-59.9C177.6,363.4,178.9,362.8,181.3,362.8z M238.1,512
	c-10.8-0.2-21.6-0.2-32.5-0.2c-8,0-16,0-23.9,0.2c-2.9,0.1-4.1-0.7-4.1-3.9c0.1-18.8,0.1-37.6,0-56.4c0-2.7,0.6-3.9,3.6-3.8
	c13.8,0.2,27.6,0.2,41.4,0.2c0,0,0,0,0,0c5.2-0.1,10.3,0,15.5-0.2c2.9-0.1,3.6,1.1,3.6,3.8c-0.1,18.8-0.1,37.6,0,56.5
	C241.7,510.9,241,512.1,238.1,512z M326.8,508.2c0,2.8-0.8,3.8-3.7,3.8c-10.8-0.2-21.6-0.1-32.5-0.2c-8,0-16,0-24,0.2
	c-3.2,0.1-3.9-1.2-3.9-4.1c0.1-18.6,0.1-37.3,0-55.9c0-3,0.8-4.1,3.9-4.1c13.3,0.2,26.6,0.2,40,0.2c0,0,0,0,0,0c5.5,0,11,0,16.5-0.2
	c2.9-0.1,3.7,1,3.7,3.8C326.7,470.6,326.7,489.4,326.8,508.2z M322.7,427c-18.8-0.1-37.6-0.1-56.4,0c-2.4,0-3.7-0.5-3.7-3.3
	c0.1-19.5,0-38.9,0-58.4c0-0.8,0.1-1.7,0.9-2.2c14.7,0,29.3,0,44-0.1v0c0,0,0,0,0,0c5.2,0,10.3,0,15.5-0.2c2.9-0.1,3.7,1.1,3.7,3.8
	c-0.1,18.8-0.1,37.6,0,56.4C326.9,426.1,325.7,427,322.7,427z M412.6,508.7c0,2.7-1.1,3.4-3.6,3.3c-10.8-0.1-21.6-0.1-32.4-0.2
	c-8.1,0.1-16.3,0-24.4,0.2c-2.8,0.1-3.8-0.8-3.8-3.7c0.1-18.9,0.1-37.9,0-56.8c0-2.9,1.1-3.6,3.8-3.6c13.4,0.1,26.9,0.1,40.3,0.2
	c0,0,0,0,0,0c5.5,0,11,0,16.4-0.2c2.5-0.1,3.5,0.7,3.5,3.4C412.5,470.5,412.5,489.6,412.6,508.7z M437.8,362.8
	c13.6,0.1,27.3,0.1,40.9,0.2c0,0,0,0,0,0c5.2,0,10.3,0,15.5-0.1c2.5-0.1,3.6,0.7,3.5,3.4c-0.1,19.2-0.1,38.3,0,57.5
	c0,1.9-0.4,3.2-2.7,3.2c-20-0.1-40-0.1-60-0.1c-0.4,0-0.8-0.5-1.1-0.8c-0.1-19.8-0.1-39.6-0.3-59.4
	C433.6,363.4,434.9,362.8,437.8,362.8z M494.1,512.1c-10.8-0.2-21.6-0.2-32.5-0.3c-8.2,0.1-16.3,0-24.4,0.2c-3,0.1-3.6-1.2-3.6-3.8
	c0.1-18.8,0.1-37.6,0-56.4c0-2.6,0.6-3.9,3.6-3.9c13.8,0.2,27.6,0.2,41.4,0.2c0,0,0,0,0,0c0,0,0,0,0,0c5.2-0.1,10.3,0,15.5-0.2
	c2.9-0.1,3.6,1.1,3.6,3.8c-0.1,18.8-0.1,37.6,0,56.5C497.7,510.9,497,512.1,494.1,512.1z"/>
</svg>
