<?xml version="1.0" encoding="utf-8"?>
<!-- Generator: Adobe Illustrator 19.0.0, SVG Export Plug-In . SVG Version: 6.00 Build 0)  -->
<svg version="1.1" id="Calque_1" xmlns="http://www.w3.org/2000/svg" xmlns:xlink="http://www.w3.org/1999/xlink" x="0px" y="0px"
	 viewBox="0 0 612 792" style="enable-background:new 0 0 612 792;" xml:space="preserve">
<g>
	<path d="M311.6,315.7c0.1,8.6-1.2,15.6-4.4,22.2c-1.2,2.5-1.1,4,0.9,6c13.6,13.5,27.1,27.1,40.4,40.9c1.9,1.9,3.2,1.9,5.4,0.7
		c15.1-7.9,30.6-8.3,46.2-1.5c2.6,1.1,4,1,6-1c17.8-18,35.6-36,53.6-53.8c2.4-2.3,1.7-3.9,0.7-6.4c-7.6-19.6-5.7-38.1,7.8-54.4
		c13.6-16.4,31.5-22.2,52-17.3c20.5,4.9,33.8,18.4,38.5,39c4.6,20.2-1.3,37.8-17.1,51.1c-16.2,13.6-34.7,15.9-54.2,8.1
		c-3.6-1.5-5.4-1.1-8,1.6c-17.4,17.7-34.9,35.3-52.5,52.8c-2,2-2.5,3.5-1.2,6.3c9.9,21.6,4.1,46.5-14.1,61.4
		c-18.1,14.9-43.9,16-63.1,2.6c-19.2-13.4-27.2-38.4-19-60.6c1.2-3.2,0.9-5.1-1.6-7.6c-13.4-13.2-26.6-26.6-39.8-40.1
		c-2.2-2.3-3.8-3.1-7.1-1.6c-14.2,6.5-28.7,6.4-43-0.1c-2.8-1.3-4.3-0.9-6.3,1.2c-17.4,17.7-34.8,35.4-52.4,52.9
		c-2.6,2.6-3.2,4.4-1.7,8c8.2,20,5.4,38.8-8.9,54.9c-14.1,16-32.4,21.4-53,15.5c-20.5-5.8-33.4-19.9-37-40.9
		c-3.5-20.1,3-37.4,19.2-50c16.2-12.6,34.3-14.5,53.1-6.6c3.1,1.3,4.7,1.2,7.1-1.2c17.5-17.9,35.1-35.6,52.8-53.2
		c2.1-2.1,2.4-3.5,1.2-6.4c-8.6-20.1-6-39,8.2-55.4c13.9-16.2,32.2-21.7,52.8-16.1c21.1,5.7,33.4,20.2,37.9,41.4
		c0.2,0.8,0.3,1.6,0.3,2.5C311.5,312.7,311.6,314.9,311.6,315.7z"/>
</g>
</svg>
