<?xml version="1.0" encoding="utf-8"?>
<!-- Generator: Adobe Illustrator 19.0.0, SVG Export Plug-In . SVG Version: 6.00 Build 0)  -->
<svg version="1.1" id="Calque_1" xmlns="http://www.w3.org/2000/svg" xmlns:xlink="http://www.w3.org/1999/xlink" x="0px" y="0px"
	 viewBox="0 0 612 792" style="enable-background:new 0 0 612 792;" xml:space="preserve">
<g>
	<path d="M74,363.7c1.3-7.5,2.4-15.1,4-22.5c0.8-3.7,2-7.4,3.5-10.9c4.7-11.3,12.3-17.9,25.7-17.1c11.8,0.7,23.6,0.5,35.5,0
		c8.4-0.3,14.8,3.1,17.8,10.3c4,9.4,6.9,19.3,9.4,29.2c1.1,4.6,2,7.6,7.5,7.3c3.8-0.2,7.6,0.5,11.4,0.8c6.2,0.5,9.9,4.3,9.6,9.9
		c-0.4,5.3-4.3,8.7-10.4,8.2c-8.9-0.8-17.8-2.2-26.6-3.5c-3.2-0.5-4.7-2.3-4.4-5.9c0.4-4.5,0.2-9,0.1-13.5c0-1.4-0.5-2.8-0.7-4.2
		c-0.5,0-1,0.1-1.6,0.1c-0.1,1.9-0.2,3.7-0.3,5.6c-1.3,40.4,1.8,80.5,5.5,120.6c1.2,13.1,2,26.2,3.2,39.3c0.7,7.9-3.5,12.7-9.9,16.2
		c-2.7,0-5.3,0-8,0c-5.1-2.8-9.5-6.2-10-12.6c-1.7-21.1-3.4-42.2-5-63.3c-1-12.6-2-25.2-3-37.8c-2.4,0-4.3,0-6.3,0
		c-0.2,0.9-0.4,1.5-0.5,2.2c-2.4,31.1-5,62.1-7.1,93.2c-0.6,8.3-2.8,15-11,18.3c-2.3,0-4.7,0-7,0c-8.3-3.6-11.3-9.8-10.2-18.8
		c1.2-10.6,1.5-21.2,2.5-31.8c3.9-42.7,7.1-85.5,5.8-128.5c-0.1-1.7-0.2-3.3-0.3-5c-0.6,0-1.2,0-1.8,0.1c0,11.3,0,22.6,0,34.2
		c-8.6-1.2-13.8-5.4-16.9-12.2C74,369,74,366.3,74,363.7z"/>
	<path d="M586,451.7c-43.2,0-86.3,0.1-129.5,0.1c-93.6,0-187.3,0-280.9,0c-2.3,0-4.6,0-7.3,0c0-5,0-9.7,0-15.1c2,0,3.9,0,5.8,0
		c137,0,273.9,0,410.9,0c0.3,0,0.7-0.1,1-0.1C586,441.7,586,446.7,586,451.7z"/>
	<path d="M469,234.7c8.4,3.3,15.1,8.2,17.2,17.7c2.6,11.6-4,23-15.5,26.6c-11.2,3.5-23.5-2.5-27.7-13.6
		c-4.2-11.1,0.9-23.6,11.6-28.6c1.5-0.7,2.9-1.4,4.4-2.1C462.3,234.7,465.7,234.7,469,234.7z M445.9,256.9
		c-0.2,10.3,7.8,18.6,17.9,18.7c10.1,0.2,18.5-8,18.5-18.2c0.1-10.2-8.1-18.5-18.2-18.5C454.3,238.9,446.1,247,445.9,256.9z"/>
	<path d="M497,371.3c0-7.1,0-13.9,0-19.7c3.1-3,5.5-5.4,8.8-8.7c0-11.2,0-23.6,0-36.1c0-8.3-0.1-16.7,0.1-25c0-1.1,1.2-2.2,1.8-3.3
		c0.7,1.1,1.9,2.2,1.9,3.3c0.6,22.6,10.7,41.9,21.7,60.8c0.5,0.8,1.3,1.4,2.1,2c1.5,1.2,3,2.4,4.5,3.6c-0.2,0.5-0.5,0.9-0.7,1.4
		c4.9,0,9.9,0,15.1,0c-0.9,4.9-2.9,7.3-8.1,6.9c-7.1-0.5-14.3-0.1-21.5-0.1c-1.5,0-3.1,0.2-4.7,1.2c9.6,2.2,19.4,0.8,29,1.8
		c0,0.7,0,1.3,0,2c-8,0.3-16.1,0.6-24.1,0.9c0,0.7,0.1,1.4,0.1,2.1c7,0,13.9,0,22,0c-4.6,8.7-9.6,16.1-12.7,24.2
		c-4.2,11.1-10.9,14-22.8,13.9c-106.1-0.6-212.3-0.3-318.4-0.3c-1.5,0-2.9,0-6.3,0c4.8-8.9,9-16.8,13.2-24.7
		c0.9-1.7,2.6-3.5,2.6-5.3c-0.2-8.8,4.9-15.7,7.7-23.5c1.9-5.3,4.2-10.5,6.6-15.6c1.2-2.4,3.1-4.5,4.7-6.7c0.4,0.2,0.8,0.3,1.2,0.5
		c0-3.3,0-6.6,0-10.3c2.1-0.3,4-0.6,6.3-0.9c0-6.1,0-12.1,0-18c0-11.3-0.1-22.7,0.1-34c0-1.3,1.3-2.5,2-3.8c0.6,1.3,1.7,2.6,1.7,3.8
		c0.1,17.2,0.1,34.3,0.1,51.9c3.3,0,6.3,0,9.8,0c0-4.5,0-8.9,0-13.7c2.7,0,4.9,0,7.6,0c0.1,3,0.3,6,0.4,9.4c2.8,0,5.6,0,7.5,0
		c2,2.5,3.4,4.2,4.9,6c0.7-0.2,1.3-0.3,2-0.5c0,10.7,0,21.5,0,32.4c2.9,0.2,4.5,0.3,6.5,0.4c0,2,0,3.9,0,6.6c-14.6,0-29.3,0-43.9,0
		c0,0.7,0,1.4,0,2.1c14.5,1.3,29.2-0.2,44.2,0.8c0,4,0,7.7,0,11.9C345.6,371.3,421,371.3,497,371.3z M528.6,344.7
		c-6.4-14-12.5-27.5-18.6-40.8c0,13.4,0,26.9,0,40.6c2.7,0.1,4.9,0.2,7.2,0.3c0.6,1.7,1,3.3,1.5,4.8c0.3-0.1,0.6-0.1,0.9-0.2
		c0.4-1.5,0.7-3,1.1-4.8C523.6,344.7,526.2,344.7,528.6,344.7z M242.5,326.5c4,0,8,0.1,12-0.1c0.9,0,1.8-0.9,2.7-1.4
		c-0.9-0.7-1.8-1.9-2.7-1.9c-8-0.2-16-0.1-24,0c-0.8,0-1.6,1.1-2.4,1.7c0.8,0.6,1.6,1.6,2.4,1.6
		C234.5,326.6,238.5,326.5,242.5,326.5z M242.4,328.8c-4,0-8-0.1-12,0.1c-0.8,0-1.6,1-2.4,1.6c0.8,0.6,1.6,1.7,2.4,1.7
		c8,0.1,16,0.1,24,0c0.9,0,1.8-1.2,2.8-1.9c-0.9-0.5-1.8-1.4-2.7-1.4C250.4,328.8,246.4,328.8,242.4,328.8z"/>
	<path d="M127.9,256.4c0,2.6-0.3,4.5,0.1,6.2c0.3,1.1,1.7,1.9,2.6,2.9c0.8-0.9,2.1-1.7,2.3-2.8c0.4-1.9,0.1-3.9,0.1-6.1
		c3.4,0.5,6.8-0.4,6.9,4.3c0,1.5,1.3,3,2,4.5c1.4-1.1,2.7-2.1,4.5-3.5c4.2,2.8,7,7.3,8.9,12.5c1.1,3.1,0.2,6.8,4.3,8.9
		c2.1,1.1,0.2,4.8-2.8,5.2c-2.6,0.3-5.3,0.1-8,0.1c-14.3,0-28.7,0.1-43-0.1c-1.7,0-3.4-1.4-5.1-2.1c0.8-1.6,1.7-3.1,2.4-4.7
		c0.6-1.4,1.3-2.9,1.6-4.5c1.4-6.7,4.6-11.6,9.7-15.1c1.5,1.2,2.9,2.3,4.2,3.4c0.8-1.6,2.1-3.2,2.2-4.9
		C121.2,255.9,124.6,257.2,127.9,256.4z"/>
	<path d="M103.9,291.1c18,0,34.2,0,50.4,0c2.1,5-0.2,15.8-4.3,18.8c-0.9,0.7-2.4,0.7-3.7,0.7c-10.3,0.1-20.6-0.3-30.9,0.2
		c-4.7,0.2-7.3-1.6-8.5-5.7C105.8,300.7,105.1,296.2,103.9,291.1z"/>
	<path d="M447.6,321.6c-7.9,0-15.8,0-23.7,0c0,0.5,0,1,0,1.4c8,0,15.9,0,23.9,0c0,0.5,0,1,0,1.4c-2.8,0.2-5.5,0.5-8.3,0.7
		c0,0.3,0,0.6,0,1c2.6,0.2,5.3,0.4,8.3,0.6c0,4.5,0,9.1,0,13.9c-13.4,0-26.6,0-40.2,0c0-7.7,0-15.2,0-23.4c6.7,0,13.3,0,19.9,0
		c5.8,0,11.7,0.1,17.5,0C448.1,317,448.5,318.5,447.6,321.6z"/>
	<path d="M468,323.1c7.9,0,15.9,0,23.8,0c0,0.5,0,0.9,0,1.4c-2.8,0.2-5.5,0.5-8.3,0.7c0,0.4,0,0.7-0.1,1.1c2.8,0.2,5.5,0.3,8.6,0.5
		c0,4.7,0,9.1,0,13.8c-13.4,0-26.6,0-40.2,0c0-7.6,0-15.1,0-23.3c8.2,0,16.3,0,24.4,0c4.3,0,8.7-0.1,13,0.1c1.1,0.1,2.1,1.4,3.1,2.1
		c-1,0.7-2,2-3.1,2.1c-6.5,0.2-13,0.1-19.5,0.1c-0.6,0-1.2,0.3-1.8,0.4C468,322.4,468,322.7,468,323.1z"/>
	<path d="M358.8,324.6c-3,0.2-5.9,0.3-8.9,0.5c0,0.4,0,0.8,0,1.2c2.8,0.1,5.7,0.3,8.9,0.4c0,4.6,0,9.1,0,13.9c-13.4,0-26.7,0-40.2,0
		c0-7.7,0-15.1,0-23.4c2.6,0,5.2,0,7.8,0c9.7,0,19.3,0,29,0c2.9,0,4.7,0.5,3.2,4.5c-7.8,0-15.9,0-23.9,0c0,0.4,0,0.9,0,1.3
		c8,0,16,0,24,0C358.7,323.5,358.8,324,358.8,324.6z"/>
	<path d="M274.3,317.1c9.8,0,19.6,0,29.4,0c2.7,0,5.3,0.1,8,0c3.1-0.2,3.9,1.2,2.8,4.4c-8.1,0-16.3,0-24.6,0c0,0.5,0,1,0,1.4
		c8.3,0,16.5,0,24.8,0c0,0.5,0,1,0,1.5c-3.1,0.2-6.1,0.4-9.2,0.6c0,0.4,0,0.7,0,1.1c3,0.2,5.9,0.3,9.2,0.5c0,4.5,0,8.9,0,13.7
		c-13.3,0-26.7,0-40.3,0C274.3,332.9,274.3,325.3,274.3,317.1z"/>
	<path d="M403.1,321.6c-7.9,0-16,0-24.1,0c0,0.5,0,1,0,1.5c8.1,0,16.3,0,24.4,0c0,0.5,0,1,0,1.5c-3,0.2-5.9,0.4-8.9,0.5
		c0,0.3,0,0.7,0,1c2.9,0.2,5.9,0.4,9.1,0.7c0,4.6,0,9,0,13.7c-13.5,0-26.7,0-40.3,0c0-7.6,0-15.1,0-23.4c8.1,0,16.2,0,24.3,0
		c4.3,0,8.7,0.1,13,0C403.5,317.1,404.4,318.3,403.1,321.6z"/>
	<path d="M334.6,295.6c8,0,16.1,0,24.1,0c0,0.5,0.1,0.9,0.1,1.4c-3,0.3-6,0.6-9,0.9c0,0.2,0,0.5,0,0.7c2.8,0,5.6,0,8.8,0
		c0,5,0,9.7,0,14.6c-13.3,0-26.4,0-40,0c0-7.7,0-15.4,0-23.4c13.4,0,26.6,0,39.9,0c1.2,3.1,0.1,4.1-2.8,4.1c-5.5-0.1-11,0-16.5,0
		c-1.6,0-3.2,0.1-4.8,0.2C334.6,294.6,334.6,295.1,334.6,295.6z"/>
	<path d="M289.5,295.6c8.4,0,16.7,0,25.1,0c0,0.5,0.1,0.9,0.1,1.4c-3.2,0.3-6.4,0.5-9.6,0.8c0,0.2,0,0.5,0,0.7c3,0,6,0,9.5,0
		c0,5,0,9.6,0,14.6c-13.2,0-26.5,0-40.2,0c0-7.6,0-15.2,0-23.1c13.4,0,26.8,0,40.2,0c1.4,3.5-0.4,4-3.3,4c-7.2-0.1-14.4,0-21.7,0
		C289.5,294.5,289.5,295.1,289.5,295.6z"/>
	<path d="M468,349.2c7.9,0,15.8,0,23.8,0c0,0.4,0,0.9,0,1.3c-2.8,0.2-5.6,0.4-8.4,0.6c0,0.4,0,0.7-0.1,1.1c2.8,0.1,5.6,0.3,8.6,0.4
		c0,5,0,9.7,0,15c-13.3,0-26.6,0-40.3,0c0-7.6,0-15,0-22.8c13.5,0,26.8,0,40.2,0c0.1,0.5,0.3,1,0.4,1.5c-1.3,0.4-2.6,1.2-3.9,1.2
		c-6.8,0.1-13.6,0.1-20.3,0.1C468.1,348.1,468.1,348.7,468,349.2z"/>
	<path d="M447.8,367.8c-13.5,0-26.7,0-40.3,0c0-7.7,0-15.3,0-23.1c13.6,0,26.9,0,40.3,0c0.2,0.4,0.3,0.9,0.5,1.3
		c-1.1,0.5-2.2,1.4-3.3,1.4c-5.5,0.2-11,0.1-16.5,0.1c-1.6,0-3.1,0-4.7,0c0,0.5,0,0.9,0,1.4c8,0,16,0,24,0c0,0.5,0.1,1,0.1,1.5
		c-2.8,0.2-5.5,0.4-8.3,0.6c0,0.4-0.1,0.7-0.1,1.1c2.7,0.2,5.4,0.3,8.4,0.5C447.8,357.8,447.8,362.7,447.8,367.8z"/>
	<path d="M334.9,349.2c8,0,15.9,0,23.9,0c0,0.4,0,0.9,0,1.3c-2.9,0.2-5.9,0.4-8.8,0.6c0,0.4,0,0.7-0.1,1.1c2.9,0.1,5.9,0.3,9.1,0.4
		c0,5,0,9.8,0,15c-13.3,0-26.7,0-40.3,0c0-7.6,0-15,0-23.2c6.2,0,12.3,0,18.4,0c6.3,0,12.6-0.1,19,0.1c1,0,2.1,0.9,3.1,1.4
		c-1,0.5-2,1.5-3,1.5c-7.1,0.1-14.2,0.1-21.3,0.1C334.8,348.1,334.8,348.7,334.9,349.2z"/>
	<path d="M314.6,350.6c-3.1,0.1-6.1,0.3-9.2,0.4c0,0.4,0,0.8-0.1,1.1c2.9,0.2,5.9,0.3,9.2,0.5c0,4.9,0,9.8,0,15
		c-13.3,0-26.6,0-40.2,0c0-7.5,0-15,0-22.9c13.5,0,26.9,0,40.4,0c-3.4,4.1-7.9,2.3-11.8,2.6c-4.4,0.4-8.9,0.1-13.3,0.1
		c0,0.5,0,1,0,1.4c8.3,0,16.6,0,24.9,0C314.6,349.6,314.6,350.1,314.6,350.6z"/>
	<path d="M363.1,368.1c0-8.2,0-15.6,0-23.3c13.6,0,27,0,40.3,0c0.2,0.5,0.3,1,0.5,1.5c-1.3,0.4-2.6,1.2-3.9,1.3
		c-7,0.1-13.9,0.1-20.9,0.1c0,0.5,0,0.9-0.1,1.4c8.1,0,16.1,0,24.2,0c0,0.5,0,1,0,1.5c-2.9,0.2-5.9,0.4-8.8,0.6c0,0.4,0,0.7,0,1.1
		c2.8,0.1,5.6,0.3,9.3,0.4c0,4.5,0.1,8.9-0.1,13.3c0,0.8-1.7,2-2.7,2C388.5,368.1,376,368.1,363.1,368.1z"/>
	<path d="M157,314.2c0.3-0.8,0.7-1.9,1.3-3.2c16.7,7.1,33.1,14,49.9,21c-3.7,8.9-7.3,17.4-11,25.9c-0.3,0.8-1.6,1.1-2.4,1.6
		c-0.2-1.1-0.8-2.4-0.4-3.4c2.9-7.2,6-14.4,9.4-22.4C188.1,327.3,172.7,320.8,157,314.2z"/>
	<path d="M584.8,401.8c-15.8,0-31.7,0-47.5,0c0-0.3,0-0.7,0-1c15.8,0,31.7,0,47.5,0C584.8,401.1,584.8,401.4,584.8,401.8z"/>
	<path d="M178.1,403c-13.3-4-17.7-6.6-17.7-10.6c5.1,2.1,10.1,4.2,15.1,6.2c4.8-4.9,3.7-13.6,10.1-17.3c0.4,0.3,0.8,0.5,1.3,0.8
		C184,389,181.1,395.9,178.1,403z"/>
	<path d="M286.3,410.8c20.4,0,40.7,0,61.1,0c0,0.3,0,0.7,0,1c-20.3,0-40.7,0-61,0C286.4,411.5,286.3,411.2,286.3,410.8z"/>
	<path d="M509.3,412.1c20.4,0,40.9,0,61.3,0c0,0.3,0,0.7,0,1c-20.4,0-40.9,0-61.3,0C509.3,412.8,509.3,412.5,509.3,412.1z"/>
	<path d="M246.2,421c20.4,0,40.8,0,61.2,0c0,0.3,0,0.6,0,0.8c-20.4,0-40.8,0-61.2,0C246.2,421.6,246.2,421.3,246.2,421z"/>
	<path d="M460.5,422.2c-20.4,0-40.8,0-61.3,0c0-0.3,0-0.7,0-1c20.4,0,40.9,0,61.3,0C460.6,421.5,460.6,421.8,460.5,422.2z"/>
	<path d="M486.7,412c-20.2,0-40.5,0-60.7,0c0-0.3,0-0.7,0-1c20.3,0,40.5,0,60.8,0C486.7,411.3,486.7,411.7,486.7,412z"/>
	<path d="M382.9,422.1c-20.2,0-40.5,0-60.7,0c0-0.3,0-0.6,0-0.9c20.2,0,40.5,0,60.7,0C382.9,421.5,382.9,421.8,382.9,422.1z"/>
	<path d="M530.6,422.1c-17.8,0-35.6,0-53.4,0c0-0.3,0-0.7,0-1c17.8,0,35.6,0,53.4,0C530.6,421.4,530.6,421.8,530.6,422.1z"/>
	<path d="M232.5,422.1c-14.9,0-29.8,0-44.7,0c0-0.3,0-0.6,0-0.9c14.9,0,29.8,0,44.8,0C232.5,421.5,232.5,421.8,232.5,422.1z"/>
	<path d="M167.1,330.7c10.2,1.5,24.2,8.3,24.9,11.8C183.1,338.9,174.5,335.9,167.1,330.7z"/>
	<path d="M182.3,411c8.6,0,17.2,0,25.8,0c0,0.3,0,0.5,0,0.8c-8.6,0-17.2,0-25.8,0C182.4,411.5,182.4,411.2,182.3,411z"/>
	<path d="M187.9,351.2c-2.9,2.8-14.7-2-16.9-7.2C177.1,346.6,182.4,348.9,187.9,351.2z"/>
	<path d="M239.7,412.1c-5.7,0-11.4,0-17.1,0c0-0.3,0-0.6-0.1-0.9c5.7,0,11.4,0,17.1,0C239.7,411.4,239.7,411.7,239.7,412.1z"/>
	<path d="M267.6,412.1c-5.8,0-11.5,0-17.3,0c0-0.3,0-0.6,0-1c5.8,0,11.6,0,17.3,0C267.6,411.4,267.6,411.8,267.6,412.1z"/>
	<path d="M362.2,410.9c5.7,0,11.5,0,17.2,0c0,0.3,0,0.6,0.1,0.9c-5.7,0-11.5,0-17.2,0C362.3,411.5,362.3,411.2,362.2,410.9z"/>
	<path d="M389.9,410.8c5.6,0,11.3,0,16.9,0c0,0.3,0,0.7,0,1c-5.6,0-11.3,0-16.9,0C389.9,411.5,389.9,411.2,389.9,410.8z"/>
</g>
</svg>
