<?xml version="1.0" encoding="utf-8"?>
<!-- Generator: Adobe Illustrator 19.0.0, SVG Export Plug-In . SVG Version: 6.00 Build 0)  -->
<svg version="1.1" id="Calque_1" xmlns="http://www.w3.org/2000/svg" xmlns:xlink="http://www.w3.org/1999/xlink" x="0px" y="0px"
	 viewBox="0 0 612 792" style="enable-background:new 0 0 612 792;" xml:space="preserve">
<g>
	<path d="M562.5,353.9c0,83,0,165.1,0,247.5c-165.1,0-330,0-495.5,0c0-1.8,0-3.6,0-5.3c0-21.3,0.5-42.7-0.1-64
		C65.3,480,99,434.3,154.7,423.9c18.8-3.5,37.3-8.1,56.3-12.3c0-6.3,0.1-12.3-0.1-18.2c0-1.2-1.2-2.7-2.3-3.5
		c-22.3-17.8-34.7-40.8-37.4-69.2c-0.2-2.4-1.5-5.1-3.1-6.9c-18.4-21.4-28.1-46.1-29.1-74.3c-0.8-22.7,0.6-45.1,11.1-65.8
		c21.5-42.8,56.5-65.2,104.1-67.6c17.5-0.9,35-0.1,51.6,6.6c22.5,8.9,39.8,23.9,51.7,45c1.7,3.1,3.6,4.9,7.3,5.7
		c16.1,3.8,28.7,17.4,29.5,34.4c1,21.2,2.3,42.6-2.3,63.7c-4.2,19.6-13.1,36.9-26.2,52.1c-1.7,2-2.8,4.8-3.4,7.4
		c-2.4,10.8-4.6,21.7-6.9,32.9C423.8,353.9,493,353.9,562.5,353.9z M355.1,369.9c0,72.3,0,144,0,215.7c64.1,0,127.8,0,191.5,0
		c0-72.1,0-143.8,0-215.5c-21.4,0-42.5,0-64,0c0,26.6,0,52.9,0,79.4c-21.3,0-42.2,0-63.7,0c0-26.6,0-53,0-79.6
		C397.3,369.9,376.4,369.9,355.1,369.9z M362.8,289.6c8.5-11.7,14-24.5,15-38.5c1.2-17.1,1.3-34.3,1-51.4
		c-0.2-12.4-11.2-21.9-24.1-21.9c-3.7,0-5.4-1.1-7-4.5c-11.3-25.5-30.3-42.5-57.5-48.8c-11.2-2.6-23.1-2.7-34.7-2.6
		c-34.6,0.5-62.5,15.2-82.4,43.4c-21.4,30.2-22,64-14.5,98.6c2,9.4,6.1,18,12.5,25.7c0-10.4,0-20.8,0-31.6c3.4,0,6.4,0,9.4,0
		c54.5,0.3,107.3-9.5,158-29.4c8-3.1,15.8-2.3,24.4-2.5C362.8,247.5,362.8,268.6,362.8,289.6z M187.6,273.7
		c0,17.7-1.7,34.7,0.3,51.2c5.4,42.5,43.3,72.3,85.6,68.9c41.7-3.4,73.6-38.5,73.5-81c0-21.7,0-43.3,0-65c0-1.6,0-3.2,0-5.6
		C295.2,262.6,242.1,272.9,187.6,273.7z M170.8,436.5c-6.4,1.4-12.2,2.8-18,4.1c-41.8,9.2-70,44-70,86.6c0,17.6,0,35.3,0,52.9
		c0,1.8,0,3.5,0,5.5c21.7,0,42.7,0,64.3,0c0-10.6,0-21,0-32c8.3,0,16,0,23.7,0C170.8,514.5,170.8,475.9,170.8,436.5z M163,585.6
		c59,0,117.3,0,175.8,0c0-51.6,0-102.9,0-154.4c-5.3-1.2-10.4-2.3-16.2-3.5c0,47.7,0,94.8,0,141.7c-37.5,0-74.4,0-111.7,0
		c0-47.3,0-94.2,0-141.7c-8.3,1.9-16.2,3.6-24.2,5.4c0,23.2,0,45.8,0,68.5c0,22.6,0,45.2,0,68.4c-8.3,0-16,0-23.8,0
		C163,575.4,163,580.4,163,585.6z M227.1,465.3c0,29.9,0,59,0,88.3c26.7,0,53.1,0,79.5,0c0-29.5,0-58.6,0-88.1
		C279.7,489.3,247.6,484.5,227.1,465.3z M226.8,400.9c0,9-0.1,17.3,0,25.5c0.3,19.4,14,35.3,33.5,39c18,3.4,36.8-7.2,43.8-24.7
		c5.1-12.8,2-26.1,3.1-40C279.9,412.7,253.6,412.4,226.8,400.9z M466.6,433.8c0-21.6,0-42.6,0-63.7c-10.8,0-21.2,0-31.5,0
		c0,21.4,0,42.5,0,63.7C445.7,433.8,456,433.8,466.6,433.8z M322.8,411.5c5.6,1.2,10.7,2.4,15.9,3.5c0-12.7,0-24.7,0-37.1
		c-5.1,4.4-9.9,8.5-14.5,12.7c-0.7,0.7-1.3,2-1.3,3C322.7,399.4,322.8,405.2,322.8,411.5z"/>
	<path d="M530.5,522.3c0,5.2,0,10,0,15.1c-26.4,0-52.6,0-79.2,0c0-4.9,0-9.8,0-15.1C477.6,522.3,503.9,522.3,530.5,522.3z"/>
	<path d="M451.2,569.3c0-5.2,0-10,0-15.1c15.7,0,31.3,0,47.2,0c0,4.8,0,9.7,0,15.1C482.9,569.3,467.2,569.3,451.2,569.3z"/>
	<path d="M530.5,554.3c0,5,0,9.9,0,15.1c-5.1,0-10,0-15.2,0c0-4.9,0-9.8,0-15.1C520.1,554.3,525,554.3,530.5,554.3z"/>
</g>
</svg>
