<?xml version="1.0" encoding="utf-8"?>
<!-- Generator: Adobe Illustrator 19.0.0, SVG Export Plug-In . SVG Version: 6.00 Build 0)  -->
<svg version="1.1" id="Calque_1" xmlns="http://www.w3.org/2000/svg" xmlns:xlink="http://www.w3.org/1999/xlink" x="0px" y="0px"
	 viewBox="0 0 612 792" style="enable-background:new 0 0 612 792;" xml:space="preserve">
<g>
	<path d="M577,264.7c-1.3,1.2-2.8,2.1-3.8,3.5c-45.7,62.9-91.4,125.9-137.1,188.9c-5.2,7.1-10.6,13.8-20.6,12.2
		c-3.9-0.6-8.2-2.1-11.3-4.5c-18-13.7-35.9-27.7-53.6-41.8c-3.3-2.7-5-2.2-7.5,1.1c-17.8,24.1-35.7,48.2-53.6,72.2
		c-7.3,9.8-16,11.8-27.2,6.6c-10.6-4.9-21.2-9.7-31.7-14.8c-3.3-1.6-5.3-1.1-7.6,1.7c-20.2,24.2-40.6,48.2-60.8,72.3
		c-2.4,2.9-5,4.5-9,4.2c-3.8-0.3-7.7-0.2-11.5,0c-3.3,0.1-4.4-1.3-4.3-4.5c0.1-8.8-0.1-17.7,0.1-26.5c0.1-2.1,1.1-4.6,2.5-6.2
		c21.4-25.5,42.9-51,64.4-76.4c8.5-10,15.8-11.4,27.9-5.7c9.8,4.6,19.7,8.9,29.4,13.7c4.1,2,6.2,1,8.7-2.3
		c18.5-25.1,37.1-50.1,55.7-75c8.5-11.4,19.5-12.6,30.7-3.8c17.4,13.7,35,27.2,52.4,40.9c3.2,2.5,4.8,2.2,7.1-1
		c53.5-73.9,107.2-147.8,160.8-221.6C577,220,577,242.4,577,264.7z"/>
	<path d="M65,590.7c7.8,0,15.6,0,23.8,0c0-138.5,0-276.9,0-415.9c-7.2,0-14.6,0-23.6,0c12.3-16.4,23.8-31.7,35.7-47.7
		c11.9,15.8,23.4,31.2,35.5,47.3c-8.3,0-15.6,0-23.2,0c0,138.9,0,277.4,0,416.2c138.5,0,276.9,0,415.9,0c0-7.5,0-14.9,0-23.5
		c16.2,12.1,31.5,23.6,47.4,35.5c-15.7,11.8-31,23.3-47.3,35.5c0-8.4,0-15.7,0-23.4c-139,0-277.4,0-416.3,0c0,8,0,16,0,23.9
		c-8,0-16,0-24,0c0-7.9,0-15.8,0-24c-8.2,0-16.1,0-24,0C65,606.7,65,598.7,65,590.7z"/>
	<path d="M577,444.7c-16-15-32.1-30-48.1-45c-4.9-4.5-9.7-9.2-14.8-14.1c4.5-6.2,8.9-12.4,13.8-19.1c16.5,15.5,32.9,30.8,49.2,46.2
		C577,423.4,577,434,577,444.7z"/>
	<path d="M197.5,206.8c-20,10.3-39.8,20.4-60.3,31c0-8.6-0.1-16.5,0.1-24.4c0-1.1,1.4-2.6,2.5-3.2c19.2-10,38.4-20,57.7-29.7
		c7.1-3.6,12.9-1.1,16.7,6.7c12.3,25.5,24.6,50.9,36.9,76.4c3.3,6.9,6.7,13.7,10.2,21c2-1.4,3.6-2.6,5.2-3.7
		c15.7-11.9,31.3-23.8,47-35.6c7.8-5.9,12.1-5.8,19.4,0.7c19.1,16.9,38.3,33.7,57.3,50.6c2.7,2.4,5,2.9,8.5,1.9
		c12.2-3.8,24.5-7.5,36.9-10.5c3.2-0.8,8,0,10.5,2c7.9,6.4,15,13.7,22.7,20.9c-4.6,6.4-9.1,12.5-13.8,19.1
		c-5.6-5.2-11-10.1-16.2-15.2c-2.2-2.2-4.2-2.6-7.1-1.7c-11.6,3.6-23.3,6.7-34.9,10.4c-6,1.9-10.8,0.8-15.6-3.4
		c-18.4-16.4-37-32.6-55.4-49.1c-2.6-2.4-4.3-2.5-7.1-0.3c-17.4,13.4-35,26.6-52.5,39.9c-9.2,6.9-16.1,5.2-21.2-5.3
		c-15-31.2-30.1-62.3-45.1-93.5C199.3,210.1,198.5,208.7,197.5,206.8z"/>
</g>
</svg>
