<?xml version="1.0" encoding="utf-8"?>
<!-- Generator: Adobe Illustrator 19.0.0, SVG Export Plug-In . SVG Version: 6.00 Build 0)  -->
<svg version="1.1" id="Calque_1" xmlns="http://www.w3.org/2000/svg" xmlns:xlink="http://www.w3.org/1999/xlink" x="0px" y="0px"
	 viewBox="0 0 612 792" style="enable-background:new 0 0 612 792;" xml:space="preserve">
<g>
	<path d="M458.7,339c0,3,0.8,7.3-0.1,11.1c-6.1,24-12.6,47.9-18.9,71.9c-0.2,0.6-0.6,1.2-1.1,2.1c-22.2-15-44.2-29.9-67.1-45.3
		c0,12.8,0,24.8,0,37.3c-2.2,0.1-3.8,0.3-5.4,0.3c-22.5,0-45,0.1-67.5-0.1c-2.6,0-5.6-0.9-7.8-2.4c-16.1-10.6-32-21.5-48.8-32.9
		c0,12.7,0,24.7,0,37.2c-2.3,0.1-4.1,0.3-5.8,0.3c-12.3,0-24.7-0.1-37,0.1c-3.7,0.1-5.5-0.9-6.5-4.8c-5.4-21.1-11.2-42.1-16.6-63.2
		c-1.1-4.2-0.9-8.7-1.3-13.8c20.9,14,44.1,17.1,67.1,19.7c21.1,2.4,42.4,3.9,63.7,4.4c42,0.9,83.9-0.9,124.8-11.4
		C440.1,347,449.2,342.6,458.7,339z"/>
	<path d="M317.4,341c-33.5-0.5-66.9-2.3-99.8-9c-10.4-2.1-20.5-5.6-30.5-9c-3.4-1.1-6.5-3.4-9.2-5.8c-4.1-3.5-4.1-8.3,0-11.6
		c3.6-2.9,7.7-5.3,12-7c16.6-6.8,34.2-9.5,51.8-11.8c33.9-4.6,68.1-5.1,102.2-3.9c32.4,1.2,64.8,3.7,95.9,13.9
		c5.6,1.8,11.1,4.7,15.9,8.1c5.6,3.9,5.7,9.5-0.1,13.1c-6.7,4.1-14.1,7.6-21.6,9.9c-20,6-40.6,8.8-61.3,10.2
		C354.3,339.3,335.9,340,317.4,341z"/>
	<path d="M254.7,520.3c0-12.6,0-24.5,0-36.6c-0.1,0.4-0.3,0.7-0.3,0.9c-0.1,9.9-0.1,9.9-10.1,9.9c-16.8,0-33.6,0-50.4,0
		c-1.8,0-3.6,0-6.4,0c0-3.1,0-5.8,0-8.6c0.2-16.6,0.5-33.3,0.5-49.9c0-4.1,1.2-5.4,5.4-5.3c18.3,0.2,36.6,0.1,54.9,0.1
		c6.7,0,6.7,0,6.7-6.9c0-5.8,0-11.5,0-18c1.9,0.9,2.9,1.3,3.8,2c22.3,15.7,44.7,31.3,67,47.1c4.5,3.2,4.6,13.8,0.1,16.9
		c-22.9,15.8-45.8,31.5-68.7,47.2C256.6,519.3,256,519.6,254.7,520.3z"/>
	<path d="M333.1,477.1c7-4.7,13.9-9.4,21.6-14.5c-8.7-6.4-16.7-12.3-24.7-18.2c-3.8-2.8-6.2-9.9-4-14c0.6-1.2,3.3-1.8,5-1.8
		c18.7-0.1,37.3-0.2,56,0.1c5,0.1,6.8-1.1,6.4-6.3c-0.5-6.1-0.1-12.3-0.1-19.1c1.5,0.8,2.6,1.3,3.7,2c23,15.6,46,31.2,69.1,46.8
		c5.4,3.7,5.4,14,0,17.6c-22.8,15.3-45.6,30.6-68.5,45.8c-1.2,0.8-2.5,1.5-4.4,2.6c0-8.8,0-17,0-25.8c-21.4,0-42.3,0-63.8,0
		c0-2.9,0.2-5.2,0-7.5c-0.5-4.5,1-6.2,5.7-6c9.5,0.3,19,0.1,28.5-0.6c-10.1,0-20.2,0-30.2,0C333.3,477.9,333.2,477.5,333.1,477.1z"
		/>
	<path d="M224,544.6c-0.6,1.8-1.2,3.7-2.3,6.9c-1.6-5.9-3.2-10.6-4.2-15.5c-1.7-8.1-3-16.2-4.3-24.4c-0.5-3.4,0.9-5.1,4.8-5
		c7.6,0.3,15.3,0.1,23.5,0.1c0,12.5,0,24.6,0,37.8c2.6-1.6,4.2-2.6,5.8-3.6c16.7-11.2,33.4-22.5,50.2-33.6c2-1.3,4.5-2.5,6.8-2.6
		c25.3-0.9,50.6-1.4,75.9-2.3c4.4-0.2,5.8,1,5.7,5.5c-0.4,8.6-0.1,17.3-0.1,26c0,1.6,0.2,3.2,0.3,5.9c10.3-6.7,19.9-12.9,29.9-19.4
		c2.5,10.3-1.2,19-3.6,27.9c-0.2-2.1-0.4-4.2-0.7-6.4c-21.2,12.8-44.8,14.7-68.3,16c-19.1,1-38.3,1.1-57.4-0.1
		c-15.5-1-30.9-4.2-46.2-7.1C234.5,549.7,229.6,546.8,224,544.6z"/>
</g>
</svg>
