<?xml version="1.0" encoding="utf-8"?>
<!-- Generator: Adobe Illustrator 19.0.0, SVG Export Plug-In . SVG Version: 6.00 Build 0)  -->
<svg version="1.1" id="Calque_1" xmlns="http://www.w3.org/2000/svg" xmlns:xlink="http://www.w3.org/1999/xlink" x="0px" y="0px"
	 viewBox="0 0 612 792" style="enable-background:new 0 0 612 792;" xml:space="preserve">
<g>
	<path d="M37,623c0-151.3,0-302.7,0-454c2.9-5.9,7.8-7.8,14.2-7.8c161.5,0.1,323.1,0.1,484.6,0c6.2,0,10.6,2.2,13.2,7.8
		c0,151.3,0,302.7,0,454c-2.8,6.1-7.8,7.8-14.2,7.8c-161.2-0.1-322.4-0.1-483.6,0C44.7,630.8,39.9,628.9,37,623z M58.7,268.3
		c0,113.8,0,227.2,0,340.7c156.4,0,312.4,0,468.8,0c0-113.7,0-227,0-340.7C371.2,268.3,215.1,268.3,58.7,268.3z M527.5,183.1
		c-156.4,0-312.6,0-468.8,0c0,21.3,0,42.2,0,63.1c156.5,0,312.7,0,468.8,0C527.5,225,527.5,204.2,527.5,183.1z"/>
	<path d="M348.3,413.8c-1.2,1.6-2.2,2.9-3.2,4.2c-15.9,22.4-31.8,44.9-47.6,67.4c-3.1,4.4-6.6,7.6-12.4,6.6c-5.6-1-7.7-5.2-9.2-10.1
		c-9-29.3-18-58.5-27-87.8c-0.3-1.1-0.8-2.2-1.4-4c-1.1,2.1-1.9,3.7-2.6,5.2c-19.1,42.5-38.1,85-57.2,127.5
		c-4.8,10.6-10.8,12.2-20.4,5.5c-18.8-13.3-37.6-26.5-56.2-40c-2.6-1.9-5-5-6.1-8c-1.4-4.3,0.5-8.2,4.4-10.8c4-2.6,8.2-2.5,12.2,0.3
		c9.7,6.8,19.3,13.6,29,20.5c6.9,4.9,13.8,9.8,21.3,15c1.1-2.3,2-4.1,2.9-6c21.3-47.4,42.5-94.7,63.7-142.1c1.9-4.3,4.3-7.9,9.5-8.5
		c6.1-0.7,10.3,2.7,12.5,9.8c5.8,18.9,11.5,37.9,17.3,56.8c3.8,12.6,7.7,25.1,11.6,37.7c0.4,1.2,0.9,2.4,1.6,4.2
		c5.5-7.7,10.6-14.9,15.7-22.1c10-14.1,20-28.3,30-42.4c6-8.4,13.2-8.5,20.2-1c12.9,13.9,26.2,27.5,39.1,41.4
		c2.1,2.3,3.7,1.1,5.6,0.2c22.2-10.3,44.4-20.7,66.5-31c4.1-1.9,8.1-2,11.8,0.9c3.3,2.5,5.2,6.2,3.8,10.1c-1.1,3-3.3,6.6-6,7.9
		c-25.8,12.4-51.8,24.4-77.7,36.5c-5,2.3-9.4,0.8-13.1-3.1c-11-11.6-22.1-23.2-33.1-34.8C352.3,417.9,350.4,416,348.3,413.8z"/>
</g>
</svg>
