<?xml version="1.0" encoding="utf-8"?>
<!-- Generator: Adobe Illustrator 19.0.0, SVG Export Plug-In . SVG Version: 6.00 Build 0)  -->
<svg version="1.1" id="Calque_1" xmlns="http://www.w3.org/2000/svg" xmlns:xlink="http://www.w3.org/1999/xlink" x="0px" y="0px"
	 viewBox="0 0 612 792" style="enable-background:new 0 0 612 792;" xml:space="preserve">
<g>
	<path d="M74,187.5c0.4-0.6,0.7-1.1,1.1-1.7c2.8-4.8,7-7,11.5-5.9c4.9,1.2,7.8,4.8,7.8,10.7c0.1,12.2,0.1,24.3,0.1,36.5
		c0,126.3,0,252.6,0,378.9c0,1.8,0,3.6,0,6c2.2,0.1,3.9,0.4,5.7,0.4c155.6,0,311.3,0,466.9,0c1.7,0,3.4,0.2,5,0
		c6.3-0.7,11,1.5,14,7.1c0,1.7,0,3.3,0,5c-2.7,6.2-7.3,8-14,8c-161.7-0.1-323.4-0.1-485.1,0c-6.4,0-10.4-2.4-13-8
		C74,478.8,74,333.2,74,187.5z"/>
	<path d="M474.3,351.4c-3-11-6.1-22-9.1-33c-0.5-1.8-1-3.5-1.4-5.3c-1.5-6.2,1.2-11.3,6.9-12.9c5.5-1.6,10.7,1.4,12.5,7.6
		c3.8,13.1,7.3,26.3,10.9,39.4c3.4,12.2,6.7,24.4,10,36.6c2.5,9.3-3.5,15.8-12.8,13.4c-25.3-6.6-50.5-13.3-75.7-20.1
		c-6.4-1.7-9.6-6.7-8.2-12.2c1.4-5.7,6.4-8.7,12.9-7.1c12.1,2.9,24.1,6.3,36.2,9.4c0.8,0.2,1.6,0.3,3-0.3c-1-1.1-2-2.2-3.1-3.3
		c-56.3-56.1-112.7-112.1-169-168.2c-1.8-1.8-3.6-3.5-5.3-5.3c-4.1-4.5-4.4-10.4-0.6-14.4c4-4.2,10.1-4.4,14.7,0.1
		c8.7,8.5,17.3,17.1,25.9,25.7c49,48.8,98,97.6,147,146.4c1.4,1.4,2.9,2.7,4.3,4C473.6,351.7,474,351.5,474.3,351.4z"/>
	<path d="M154.2,378c0-63.5,0-126.9,0-190.4c0-2.5,0.2-5.1,1-7.3c1.6-4.4,5.3-6.4,9.8-6.1c4.6,0.3,7.8,2.9,8.9,7.4
		c0.4,1.7,0.6,3.6,0.6,5.4c0,115.4,0,230.9-0.1,346.3c0,12.3,0.1,24.7,0,37c-0.1,6.2-2.7,9.9-7.4,11.1c-7.1,1.8-12.8-2.7-12.8-10.5
		c-0.1-14.7-0.1-29.3-0.1-44C154.1,477.3,154.1,427.6,154.2,378z"/>
	<path d="M266.2,440.5c0-42,0-84,0-126c0-2.6,0.1-5.4,0.8-7.9c1.3-4.3,5.7-7.1,10-6.7c4.5,0.5,7.8,2.8,8.9,7.4
		c0.4,1.9,0.6,4,0.6,5.9c0,85.3,0,170.6,0,256c0,8-3.8,12.6-10.3,12.5c-6.1-0.1-10-4.4-10-11.3c-0.1-18.8,0-37.7,0-56.5
		C266.2,489.5,266.2,465,266.2,440.5z"/>
	<path d="M398.7,495.5c0,24.6,0,49.3,0,73.9c0,6.5-2.4,10.5-7.1,11.9c-7.3,2.1-13.2-2.6-13.3-11c-0.1-16.3-0.1-32.6-0.1-49
		c0-32.5,0-65,0-97.4c0-1.5-0.1-3,0-4.5c0.4-6.4,4.5-10.7,10.2-10.7c5.6,0,10,4.4,10.1,10.8c0.2,14.2,0.1,28.3,0.1,42.5
		C398.7,473.2,398.7,484.4,398.7,495.5C398.7,495.5,398.7,495.5,398.7,495.5z"/>
	<path d="M509.3,536.5c0,11.5,0.1,23,0,34.5c-0.1,7.1-4.5,11.3-10.8,10.8c-5.3-0.4-9.2-4.4-9.2-9.9c-0.1-23.6-0.1-47.3,0-70.9
		c0-5.9,4.6-10.2,10.1-10.2c5.5,0,9.7,4,9.8,9.8C509.3,512.5,509.2,524.5,509.3,536.5C509.2,536.5,509.3,536.5,509.3,536.5z"/>
</g>
</svg>
