<?xml version="1.0" encoding="utf-8"?>
<!-- Generator: Adobe Illustrator 19.0.0, SVG Export Plug-In . SVG Version: 6.00 Build 0)  -->
<svg version="1.1" id="Calque_1" xmlns="http://www.w3.org/2000/svg" xmlns:xlink="http://www.w3.org/1999/xlink" x="0px" y="0px"
	 viewBox="0 0 612 792" style="enable-background:new 0 0 612 792;" xml:space="preserve">
<style type="text/css">
	.st0{fill:#3EBEFD;}
	.st1{fill:#FDFDFD;}
</style>
<g>
	<path class="st0" d="M117.5,429.3c0.9,17.8,0.2,35.6,0.4,53.4c0,1.6,0,3.2,0,6.4c4-4.2,6.9-7.3,10-10.3
		c11.5-11.6,23-23.2,34.7-34.6c2.3-2.3,2.9-3.9,1.4-7.1c-6.4-13.5-4.5-26.5,5-37.7c9.5-11.1,22.1-14.9,36.1-10.9
		c14.2,4,22.6,13.9,25.2,28.6c1.3,7.4,0,14.3-3.4,20.8c-1.3,2.4-0.9,3.7,0.9,5.5c13.5,13.4,26.9,26.8,40.3,40.3
		c1.6,1.7,2.8,2,5.1,0.9c6.5-3.3,13.5-5,20.8-3.4c3.6,0.8,4.6-1.3,5.8-3.8c18.7-37.5,37.5-75,56.2-112.5c0.3-0.6,0.5-1.2,0.9-1.8
		c3.4-4.8,3-8.3-1.3-13.1c-10.4-11.6-10.1-30.5-0.5-43c9.9-12.8,27.4-17.3,42.2-10.5c3.5,1.6,5.4,1.3,8-1.4
		c12.6-12.9,25.3-25.6,38.2-38.2c2.3-2.3,3-4,1.5-7.2c-6.2-13.2-3.8-28.3,5.8-38.5c10-10.7,25-14.3,38.4-9.1
		c13.5,5.2,22.3,17.8,22.8,32.3c0.8,25.3-25.8,42.9-49.4,32.4c-3.8-1.7-5.9-1.1-8.5,1.6c-12.6,12.8-25.3,25.6-38.2,38.2
		c-2.3,2.2-2.5,3.9-1.1,6.8c11.3,23.8-5.7,50.6-32.1,49.9c-6.6-0.2-9.4,1.9-12.2,7.6c-18.6,37.9-37.6,75.7-56.6,113.5
		c-1.6,3.2-1.3,5,1.1,7.7c10,11.2,12.4,24.2,6.4,38c-5.9,13.8-17.2,20.6-31.9,21.1c-25.1,0.9-42.9-26.7-32-49.7
		c1.7-3.6,1.1-5.4-1.5-8c-13-12.7-25.8-25.6-38.5-38.5c-2-2-3.5-2.6-6.4-1.2c-10.3,5.2-20.8,5-31.2-0.2c-1.8-0.9-3.1-1.3-4.8,0.4
		c-17.9,18.1-36,36.1-54,54.2c-0.2,0.2-0.2,0.6-0.6,1.6c2.1,0,4,0,5.9,0c19.7,0,39.3,0,59,0c1,0,1.9,0.2,2.9,0.3
		c-22.4,0.1-44.9,0.1-67.3,0.3c-2.7,0-3.4-1.1-3.4-3.6C117.5,480.8,117.5,455,117.5,429.3z"/>
	<path class="st1" d="M482.3,375.3c0-12.3,0.1-24.7-0.1-37c0-3.2,0.7-4.2,4.1-4.2c21.5,0.2,43,0.1,64.5,0c3.2,0,3.8,1,3.8,4
		c-0.1,24.8-0.1,49.7,0,74.5c0,2.7-0.6,3.7-3.5,3.7c-21.7-0.1-43.3-0.1-65,0c-3.1,0-3.9-0.9-3.9-3.9
		C482.4,400,482.3,387.7,482.3,375.3z"/>
	<path d="M578.7,125.3c-161.8,0-323.6,0-485.4,0c-6.2,0-7.1,0.9-7.1,7.3c0,161.6,0,323.3,0,484.9c0,6.7,0.8,7.5,7.4,7.5
		c80.8,0,161.6,0,242.5,0c80.7,0,161.3,0,242,0c7.1,0,7.9-0.7,7.9-7.5c0-161.6,0-323.3,0-484.9C585.9,126.3,585,125.3,578.7,125.3z
		 M295,160.2c0-2.8,0.7-3.7,3.6-3.6c25,0.1,49.9,0.1,74.9,0c2.8,0,3.7,0.7,3.6,3.6c-0.1,21.6-0.1,43.3,0,64.9c0,3-0.7,4-3.8,3.9
		c-12.5-0.2-25-0.1-37.4-0.1c-12.3,0-24.6-0.1-36.9,0.1c-3.1,0-3.9-0.8-3.9-3.9C295.1,203.5,295.1,181.8,295,160.2z M201.2,160.6
		c0-2.9,0.6-4.1,3.8-4.1c24.8,0.1,49.6,0.1,74.4,0c3.2,0,3.9,1,3.9,4c-0.1,21.5-0.1,42.9,0,64.4c0,3.5-1.2,4.1-4.3,4
		c-12.1-0.1-24.3-0.1-36.4-0.1c-12.5,0-25-0.1-37.4,0.1c-3.1,0-3.9-0.9-3.9-3.9C201.3,203.6,201.3,182.1,201.2,160.6z M205.7,240.4
		c12.1,0.2,24.3,0.1,36.5,0.1c0,0,0,0,0,0c12.3,0,24.6,0.1,37-0.1c3.2,0,4.2,0.7,4.2,4.1c-0.2,24.8-0.1,49.6,0,74.4
		c0,2.9-0.9,3.6-3.6,3.5c-24.8-0.1-49.6-0.1-74.4,0c-3.5,0-4-1.2-4-4.3c0.1-24.5,0.1-48.9,0-73.4
		C201.2,241.2,202.2,240.3,205.7,240.4z M117.4,162.6c0-4.7,2.1-6,6.4-6c20.7,0.1,41.3,0.1,62,0c3.1,0,4,0.8,4,3.9
		c-0.2,10.7-0.1,21.3-0.1,32c0,10.8-0.1,21.7,0.1,32.5c0,3-0.8,4-3.9,4c-21.5-0.1-43-0.1-64.5,0c-3,0-4-0.7-4-3.9
		C117.5,204.3,117.5,183.4,117.4,162.6z M122.1,240.4c21,0.2,41.9,0.2,62.9,0c4.2-0.1,4.8,1.5,4.8,5.1c-0.2,12-0.1,24-0.1,35.9
		c0,12.3-0.1,24.6,0.1,36.9c0.1,3.4-1,4.1-4.2,4.1c-21.3-0.1-42.6-0.2-63.9,0c-3.6,0-4.3-1.2-4.3-4.5c0.1-24.3,0.2-48.6,0-72.9
		C117.3,241.3,118.4,240.3,122.1,240.4z M189.8,589.5c0,3.7-1.2,4.4-4.6,4.3c-20.5-0.1-41-0.2-61.5,0c-4.9,0-6.4-2-6.4-6.6
		c0.1-20.3,0.1-40.7,0-61c0-3.6,0.7-4.9,4.6-4.8c10.5,0.3,21,0.1,31.5,0.1c10.7,0,21.3,0.1,32-0.1c3.1,0,4.4,0.6,4.3,4.1
		C189.6,546.8,189.6,568.1,189.8,589.5z M466.6,593.8c-24.5-0.1-49-0.1-73.5,0c-3,0-4.4-0.4-4.3-4c0.2-21.5,0.1-43,0-64.5
		c0-3.1,0.8-4,3.9-3.9c12.3,0.2,24.7,0.1,37,0.1c12.3,0,24.7,0.1,37-0.1c3.4-0.1,4.2,1,4.1,4.3c-0.1,21.3-0.2,42.7,0,64
		C470.8,593.1,469.8,593.8,466.6,593.8z M466.2,510c-24.3-0.2-48.6-0.2-73,0c-3.4,0-4.5-0.8-4.5-4.4c0.2-24.5,0.2-49,0-73.5
		c0-3.7,1.2-4.3,4.5-4.2c24.3,0.1,48.6,0.2,73,0c3.9,0,4.7,1.2,4.6,4.8c-0.2,12.2-0.1,24.3-0.1,36.5c0,12-0.1,24,0.1,36
		C470.9,508.8,470.1,510.1,466.2,510z M476.3,285.1c-4.6,0-5.8,1.7-5.7,5.9c0.2,9.2-0.1,18.3,0.1,27.5c0.1,3.1-0.9,4-3.9,3.9
		c-9.2-0.2-18.3,0-27.5-0.1c-4.1-0.1-6,1.1-5.9,5.7c0.1,4.4,1,6.4,5.8,6.3c9-0.3,18,0.1,27-0.2c3.4-0.1,4.5,0.6,4.5,4.3
		c-0.2,24.7-0.2,49.3,0,74c0,3.1-0.8,3.9-3.9,3.9c-24.8-0.1-49.7-0.1-74.5,0c-3.4,0-3.7-1.2-3.7-4c0.2-9.2-0.2-18.3,0.1-27.5
		c0.2-5.3-2.5-5.7-6.8-5.8c-4.6-0.1-5.2,2.1-5.1,5.8c0.1,9.2-0.1,18.3,0.1,27.5c0.1,3.4-1.1,4.3-4.2,4c-5.8-0.6-10.8,0-13.2,6.8
		c-1.3,3.6-0.9,5,3,5c3.7,0,7.3,0.2,11-0.1c2.6-0.2,3.3,0.7,3.3,3.3c-0.1,25.2-0.1,50.3,0,75.5c0,2.8-1,3.3-3.5,3.2
		c-9.5-0.1-19,0.2-28.5-0.1c-4.9-0.1-5.2,2.3-5.3,6.2c-0.1,4.3,1.3,5.6,5.4,5.5c9.3-0.2,18.7,0.1,28-0.1c3.1-0.1,3.9,0.9,3.9,3.9
		c-0.1,21.7-0.1,43.3,0,65c0,3-1.1,3.5-3.7,3.5c-24.8-0.1-49.7-0.1-74.5,0c-3,0-4-0.7-3.9-3.9c0.3-6.2,0-12.3,0.1-18.5
		c0.1-3.8-1.3-5.4-5.3-5.2c-3.7,0.1-6.7,0.1-6.6,5c0.2,6.2-0.1,12.3,0.1,18.5c0.1,2.9-0.5,4.1-3.8,4.1c-24.8-0.2-49.7-0.2-74.5,0
		c-3.2,0-3.8-1.1-3.8-4.1c0.1-21.3,0.1-42.7,0-64c0-3.6,1.2-4.4,4.5-4.4c8.5,0.2,17,0,25.5,0.1c4,0,7.8,0.6,7.2-5.7
		c-0.5-5.9-0.1-5.9-7.5-5.9c-8.3,0-16.7-0.2-25,0.1c-3.6,0.1-5-0.7-4.8-4.6c0.3-9-0.1-18,0.2-27c0.1-4.4-1.4-5.8-5.8-5.7
		c-4.3,0-6,1.1-5.9,5.6c0.2,9,0.1,18,0,27c0,1.6,1.1,3.8-1.6,4.6c-21.2-0.4-42.3,0-63.5-0.2c-1.5,0-3.7,1-4.5-0.9
		c-0.7-1.7,1.1-3,2.2-4.2c16.8-16.9,33.7-33.7,50.5-50.6c2.5-2.5,4.9-2.8,8.1-1.4c9.5,4.2,19.1,4.4,28.6,0.1
		c3.8-1.7,6.5-0.9,9.4,1.9c12.5,12.7,25.2,25.3,37.8,37.8c2.7,2.7,3.2,5.2,1.7,8.9c-9.5,23.2,4.6,46.8,29.4,48
		c18.8,0.9,32.9-12.6,34.8-30.4c1.1-9.8-1.9-18.5-8.4-25.9c-3.3-3.7-3.3-7-1.1-11.3c19-37.8,38-75.7,56.8-113.6
		c2.4-4.9,5.7-6.8,11-6.5c10.2,0.7,18.9-2.5,26.2-10c9.4-9.7,12.4-23.8,6.8-36.5c-2.2-5-1.3-8.2,2.4-11.9
		c11.6-11.3,23-22.7,34.3-34.3c4.1-4.2,7.9-5.6,13.7-3.2c20.2,8.4,44.9-5.1,45.9-30.2c0.7-15.9-9-28.2-22.8-33
		c-21-7.3-43.4,7.3-44.9,31.2c-0.3,5.2,1.2,10.3,3.3,15c1.4,3.2,1,5.7-1.5,8.2c-13.1,13.1-26.2,26.1-39.2,39.3
		c-2.9,2.9-5.6,2.3-9,0.9c-20-8.2-42.1,3.1-46.2,23.8c-2.2,10.8-0.2,21,7.7,29.3c3.3,3.5,3.5,6.6,1.4,10.7
		c-19.5,38.7-38.8,77.5-58.2,116.2c-1.6,3.3-3.6,5.6-7.7,4.9c-6.5-1.2-12.6,0.2-18.4,3c-3.6,1.7-6.1,1.1-8.9-1.7
		c-12.6-12.8-25.4-25.5-38.2-38.2c-2.9-2.9-3.6-5.5-1.7-9.3c7.6-14.8,0.9-32.4-9.2-40.1c-13.3-10.1-30.3-10.3-43,0.1
		c-10.2,8.3-16,24.1-9.5,38.9c2.8,6.3,2.8,6.4-2.1,11.2c-12.7,12.7-25.4,25.5-38.2,38.2c-0.8,0.8-1.6,1.7-2.5,2.4
		c-0.9,0.7-1.9,1.8-3.1,1.4c-1.8-0.6-1-2.3-1-3.4c-0.1-18.5,0-37-0.1-55.5c1-2.1,2.9-1.2,4.4-1.2c6-0.1,12-0.2,18,0
		c5,0.1,5-2.9,5-6.6c0.1-3.9-1.3-5.4-5.2-5.3c-6.3,0.2-12.7-0.1-19,0.1c-2.7,0.1-3.3-0.8-3.3-3.4c0.1-25.2,0.1-50.3,0-75.5
		c0-2.8,1.1-3.2,3.5-3.2c21.8,0.1,43.7,0.1,65.5,0c3.2,0,3.4,1.3,3.4,3.9c-0.1,9.3,0.1,18.7-0.1,28c-0.1,4.1,1.3,5.5,5.5,5.4
		c3.9-0.1,6.3-0.5,6.2-5.3c-0.3-9.5,0-19-0.1-28.5c0-2.5,0.6-3.5,3.3-3.4c25.2,0.1,50.3,0.1,75.5,0c2.8,0,3.2,1,3.2,3.4
		c-0.1,25-0.1,50,0.1,75c0,3.3-1.2,3.8-4,3.7c-8.5-0.2-17-0.1-25.5-0.1c-7.5,0-7.6,0.1-7.6,5.8c0,5.8,0.3,6,8,6
		c8.2,0,16.3,0.2,24.5-0.1c3.6-0.1,4.9,0.6,4.7,4.5c-0.3,9,0,18-0.2,27c-0.1,4.8,2.2,5.7,6.4,5.7c4.3,0,5.6-1.6,5.5-5.6
		c-0.2-8.3-0.1-16.7-0.1-25c0-6.6,0-6.8,6.4-6.5c5.5,0.3,8.7-2,10.7-6.9c1.4-3.4,1.1-5-2.9-5c-3.7,0.1-7.3-0.2-11,0.1
		c-2.7,0.2-3.3-0.8-3.3-3.4c0.1-25.2,0.1-50.3,0-75.5c0-2.7,0.8-3.3,3.4-3.3c9,0.1,18-0.1,27,0.1c4.4,0.1,7.1-0.4,7-6.1
		c-0.1-5.4-2.6-5.9-6.8-5.8c-9,0.1-18-0.1-27,0.1c-2.9,0.1-3.6-0.9-3.5-3.6c0.1-24.8,0.1-49.7,0-74.5c0-3,0.7-3.9,3.8-3.9
		c24.8,0.1,49.7,0.1,74.5,0c3.3,0,3.8,1.1,3.8,4c-0.2,9.3,0,18.7-0.1,28c-0.1,3.8,1.1,5.4,5.2,5.3c3.9-0.1,6.9-0.2,6.7-5.4
		c-0.2-9.3,0.1-18.7-0.1-28c-0.1-3.1,0.8-4,3.9-3.9c9.2,0.2,18.3-0.1,27.5,0.2c4.7,0.1,5.8-1.8,5.9-6.2c0.1-4.9-2.2-5.5-6.1-5.5
		c-9.2,0.1-18.3-0.1-27.5,0.1c-2.8,0-3.7-0.8-3.7-3.7c0.1-21.7,0.1-43.3,0-65c0-3.3,1.2-3.7,4.1-3.7c24.7,0.1,49.3,0.1,74,0
		c3,0,4.1,0.7,4,3.9c-0.2,6.2,0.1,12.3-0.1,18.5c-0.2,4.4,1.9,5.2,5.8,5.2c3.8,0,6-0.8,5.9-5.2c-0.2-6.2,0-12.3-0.1-18.5
		c-0.1-2.6,0.4-3.9,3.5-3.9c21.2,0.1,42.3,0.1,63.5,0c3.8,0,5.4,1.8,5.4,5.5c-0.1,21.2-0.1,42.3,0,63.5c0,2.7-1,3.4-3.5,3.3
		c-6.2-0.1-12.3,0.1-18.5-0.1c-4-0.1-5.7,1.2-5.6,5.5c0.1,3.9,0.5,6.4,5.3,6.2c6.2-0.3,12.3,0.1,18.5-0.1c2.8-0.1,3.8,0.7,3.7,3.6
		c-0.1,25-0.1,50,0,75c0,2.5-0.6,3.5-3.3,3.5c-21.8-0.1-43.7-0.1-65.5,0c-2.9,0-3.6-1-3.6-3.7c0.1-9.2-0.1-18.3,0.1-27.5
		C482.5,286.7,481,285.1,476.3,285.1z M554.6,588.3c0,3.7-1.5,5.5-5.4,5.5c-21.2,0-42.3-0.1-63.5,0c-3.1,0-3.5-1.3-3.5-3.9
		c0.1-10.8,0-21.7,0-32.5c0-10.7,0.1-21.3-0.1-32c0-3,0.7-4,3.9-4c21.5,0.1,43,0.1,64.5,0c3,0,4,0.7,4,3.8
		C554.5,546.3,554.5,567.3,554.6,588.3z M554.6,469.2C554.6,469.2,554.6,469.2,554.6,469.2c0,12-0.1,24,0.1,35.9
		c0.1,3.5-0.5,4.9-4.5,4.8c-21.1-0.2-42.3-0.2-63.4,0c-3.5,0-4.5-0.9-4.5-4.4c0.2-24.5,0.2-48.9,0-73.4c0-3.7,1.3-4.3,4.6-4.3
		c21.1,0.1,42.3,0.2,63.4,0c3.4,0,4.6,0.7,4.5,4.3C554.4,444.6,554.6,456.9,554.6,469.2z"/>
</g>
</svg>
