<?xml version="1.0" encoding="utf-8"?>
<!-- Generator: Adobe Illustrator 19.0.0, SVG Export Plug-In . SVG Version: 6.00 Build 0)  -->
<svg version="1.1" id="Calque_1" xmlns="http://www.w3.org/2000/svg" xmlns:xlink="http://www.w3.org/1999/xlink" x="0px" y="0px"
	 viewBox="0 0 612 792" style="enable-background:new 0 0 612 792;" xml:space="preserve">
<g>
	<path d="M73.8,211.4c7,0,13.3,0.2,19.6-0.1c6-0.3,5.6,3.5,5.7,7.5c0.1,4.2-0.5,7.2-5.8,6.9c-6.3-0.3-12.6-0.1-19.1-0.1
		c0,24.1,0,47.7,0,72.1c6.1,0,12.2,0,18.2,0c6.3,0,6.7,0.6,6.7,8.1c0,5.8-0.7,6.5-6.6,6.6c-6,0-11.9,0-18.2,0c0,24.2,0,47.9,0,72.1
		c6.7,0,13.2,0.2,19.6-0.1c4.8-0.2,5.5,2.5,5.3,6.4c-0.2,3.7,1.1,8.1-5.2,8c-6.5-0.2-12.9,0-19.7,0c0,24.2,0,47.9,0,72.1
		c6.4,0,12.5,0,18.6,0c5.8,0,6.3,0.7,6.3,7.4c0,6.4-0.6,7.1-6.1,7.1c-6.1,0.1-12.3,0-18.7,0c-0.2,1.6-0.4,2.9-0.4,4.1
		c0,20.3,0,40.7,0,61c0,6.6,0.4,7,7.2,7c153.5,0,306.9,0,460.4,0c8.6,0,8.6,0,8.6,8.6c-0.1,14.1,1.9,13.1-13.2,13.1
		c-158.6,0-317.3,0-475.9,0c-8.9,0-8.9,0-8.9-8.8C52,433,52,295.5,52,158c0-7.8,0.3-8.1,8.2-8.1c15.3,0,13.6-1.2,13.7,13.7
		C73.9,179.3,73.8,194.9,73.8,211.4z"/>
	<path d="M455.9,373.7c0-53.8,0-107.6,0-161.4c0-8.1,0-8.1,8-8.1c19.3,0,38.6,0.1,58-0.1c4.7,0,6.4,1.5,6.4,6.4
		c-0.1,108.9-0.1,217.9,0,326.8c0,4.3-1.5,6-5.8,5.9c-20-0.1-40,0-60-0.1c-6.1,0-6.6-0.5-6.6-6.6C455.9,482.3,455.9,428,455.9,373.7
		z M515.7,355.4c0.2-0.9,0.3-1.2,0.3-1.5c0-43.4,0-86.9,0.1-130.3c0-3.6-1.6-5-5.2-5c-12,0.1-24,0-36,0c-6.7,0-7,0.3-7,7.1
		c0,41.6,0,83.2,0,124.9c0,1.6,0.2,3.2,0.2,4.9C484.2,355.4,499.8,355.4,515.7,355.4z"/>
	<path d="M325.4,410.1c0,41.8,0,83.6,0,125.4c0,7.2-0.3,7.5-7.7,7.6c-19.3,0-38.6,0-58,0c-6.2,0-6.8-0.6-6.8-6.9
		c0-84.3,0-168.6,0-252.9c0-6.6,0.4-7,7.2-7c19.5,0,39,0,58.5,0c6.3,0,6.8,0.5,6.8,6.9C325.5,325.5,325.5,367.8,325.4,410.1
		C325.5,410.1,325.5,410.1,325.4,410.1z M265.1,391.2c16.3,0,32.2,0,48.2,0c0-32.2,0-64,0-95.7c0-3.7-1.9-4.9-5.3-4.9
		c-11.8,0.1-23.6,0-35.4,0c-7,0-7.5,0.4-7.5,7.3c0,29.6,0,59.2,0,88.9C265.1,388.2,265.1,389.7,265.1,391.2z"/>
	<path d="M426.9,445.8c0,30,0,60,0,90c0,6.7-0.5,7.3-7,7.3c-19.7,0-39.3,0-59,0c-5.8,0-6.6-0.8-6.6-6.7c0-60.5,0-121-0.1-181.5
		c0-4.6,1.4-6.6,6.3-6.6c20,0.2,40,0.2,60,0c4.8,0,6.4,1.8,6.4,6.5C426.8,385.2,426.9,415.5,426.9,445.8z M414.5,427.4
		c0.1-0.9,0.3-1.5,0.3-2.2c0-19,0-38,0.1-57c0-4.1-1.9-5.6-5.8-5.6c-12,0.1-24,0-36,0c-5.8,0-6.5,0.8-6.6,6.7c0,16.2,0,32.3,0,48.5
		c0,3.1,0,6.2,0,9.5C382.9,427.4,398.6,427.4,414.5,427.4z"/>
	<path d="M151.8,482.1c0-18.5,0.1-37-0.1-55.5c0-4.4,1.3-6.2,6-6.2c20.1,0.2,40.3,0.1,60.4,0c4.2,0,6,1.4,6,5.8
		c-0.1,37-0.1,73.9,0,110.9c0,4.3-1.5,6-5.8,6c-20.3-0.1-40.6-0.1-60.9,0c-4.4,0-5.7-1.9-5.7-6.1
		C151.8,518.8,151.7,500.4,151.8,482.1C151.7,482.1,151.7,482.1,151.8,482.1z M163.9,463.4c16.5,0,32.1,0,48.1,0
		c0-8.1,0-15.9,0-23.7c0-3.4-1.8-4.8-5-4.8c-12.8,0-25.6-0.1-38.4,0.2c-1.6,0-4.5,2.3-4.6,3.7C163.7,446.8,163.9,455,163.9,463.4z"
		/>
</g>
</svg>
