<?xml version="1.0" encoding="utf-8"?>
<!-- Generator: Adobe Illustrator 19.0.0, SVG Export Plug-In . SVG Version: 6.00 Build 0)  -->
<svg version="1.1" id="Calque_1" xmlns="http://www.w3.org/2000/svg" xmlns:xlink="http://www.w3.org/1999/xlink" x="0px" y="0px"
	 viewBox="0 0 612 792" style="enable-background:new 0 0 612 792;" xml:space="preserve">
<g>
	<path d="M487,421.2c0,49.7,0,99.3,0,149c0,7-1.7,8.7-8.9,8.7c-33.8,0-67.6,0-101.5,0c-7.6,0-9.1-1.5-9.1-9c0-98.8,0-197.6,0-296.4
		c0-9.7,0.8-10.5,10.6-10.5c33.3,0,66.6,0,100,0c7.1,0,8.9,1.7,8.9,8.8C487,321.6,487,371.4,487,421.2z"/>
	<path d="M325.8,466.1c0,34.5,0,69,0,103.4c0,7.8-1.6,9.5-9.2,9.5c-33.6,0-67.3,0-100.9,0c-8,0-9.5-1.5-9.5-9.7
		c0-69.3,0-138.6,0-207.9c0-7.2,1.7-9,8.7-9c34,0,68,0,101.9,0c7.4,0,9,1.7,9,9.2C325.8,396.4,325.8,431.2,325.8,466.1z"/>
	<path d="M427.7,137.7c18.9,0.2,34.1,11.7,39.7,30c5.3,17.3-1.6,35.8-17.1,46.4c-14.7,10-34.7,9.2-48.9-2.2c-2.5-2-4.3-2.1-7-0.6
		c-28.1,15.7-56.2,31.2-84.3,46.7c-2.4,1.3-3.2,2.6-2.8,5.5c2.6,16.5-5.7,33.1-20.5,41.7c-14.9,8.5-33.7,7.3-46.8-3.6
		c-2.7-2.2-4.4-2.3-7.3-0.7c-27.3,15.3-54.7,30.4-82.1,45.5c-3.5,1.9-5,3.9-4.4,8.1c2.7,21.8-12.9,41.3-35.9,45.2
		c-20.2,3.4-41.9-11.5-46.2-31.7c-3.9-18.1,3.2-35.3,18.4-45c14.9-9.4,33.8-8.5,48.1,2.7c2.7,2.1,4.5,2.2,7.4,0.5
		c27.9-15.6,55.9-31.1,83.9-46.5c2.4-1.3,3.2-2.6,2.8-5.5c-2.5-16.5,6-33.2,20.9-41.5c14.9-8.3,33.6-7,46.3,3.7
		c2.7,2.3,4.5,2.2,7.3,0.6c27.8-15.5,55.5-30.9,83.4-46.2c3.4-1.9,3.7-4,3.3-7.2C382.6,159.1,403.3,136.7,427.7,137.7z"/>
	<path d="M45,510.2c0-20,0-40,0-60c0-6.6,1.7-8.4,8.1-8.4c34.5,0,69,0,103.4,0c6,0,7.8,1.7,7.8,7.6c0,40.5,0,80.9,0,121.4
		c0,6.1-1.9,8-8.1,8c-34.3,0-68.6,0-102.9,0c-6.5,0-8.3-1.9-8.3-8.2C45,550.5,45,530.4,45,510.2z"/>
	<path d="M265.5,638.5c-80.5,0-160.9,0-241.4,0c-7.5,0-9-1.6-9-9.2c0-4.2,0-8.3,0-12.5c0-6.2,1.8-8,8-8c30.2,0,60.3,0,90.5,0
		c131.1,0,262.2,0,393.4,0c8.9,0,10,1.1,10,10.1c0,3.8,0,7.7,0,11.5c-0.1,6.2-1.9,8.1-8,8.1c-22.3,0.1-44.7,0-67,0
		C383.1,638.5,324.3,638.5,265.5,638.5z"/>
</g>
</svg>
