<?xml version="1.0" encoding="utf-8"?>
<!-- Generator: Adobe Illustrator 19.0.0, SVG Export Plug-In . SVG Version: 6.00 Build 0)  -->
<svg version="1.1" id="Calque_1" xmlns="http://www.w3.org/2000/svg" xmlns:xlink="http://www.w3.org/1999/xlink" x="0px" y="0px"
	 viewBox="0 0 612 792" style="enable-background:new 0 0 612 792;" xml:space="preserve">
<style type="text/css">
	.st0{fill:#020201;}
	.st1{fill:#010101;}
	.st2{fill:#020202;}
	.st3{fill:#040404;}
	.st4{fill:#030303;}
	.st5{fill:#202020;}
	.st6{fill:#101010;}
	.st7{fill:#0D0D0D;}
	.st8{fill:#0F0F0F;}
</style>
<g>
	<path d="M342.1,565.4c-81.2,0-162.3,0-243.5,0c-7.7,0-7.7,0-7.7-7.8c0-138.8,0-277.6,0-416.4c0-8.4,0-8.4,8.7-8.4
		c2.5,0,5,0.1,7.5,0c4.4-0.3,5.9,1.7,5.8,5.9c-0.1,17.2,0,34.3-0.1,51.5c0,3.5,0.8,4.6,4.4,4.4c5.1-0.3,10.3,0,15.5-0.1
		c3.9-0.1,6,1.3,5.6,5.6c-0.1,1.3-0.1,2.7,0,4c0.2,4-1.8,5.3-5.5,5.2c-5.3-0.1-10.7,0.1-16-0.1c-2.8-0.1-4,0.3-4,3.7
		c0.2,21.7,0.2,43.3,0,65c0,3.7,1.2,4.4,4.6,4.3c4.8-0.3,9.7-0.1,14.5-0.1c6,0,6.4,0.4,6.4,6.6c0,1,0,2,0,3c0.2,3.3-1.3,4.9-4.7,4.8
		c-5.7-0.1-11.3,0.1-17-0.1c-2.7-0.1-3.7,0.5-3.7,3.5c0.1,22,0.1,44,0,66c0,3.1,1.1,3.5,3.7,3.4c5.5-0.2,11,0.1,16.5-0.1
		c3.9-0.1,5.5,1.6,5.3,5.4c-0.1,1.5-0.1,3,0,4.5c0.1,3.4-1.7,4.8-4.9,4.8c-5.8,0-11.7,0.1-17.5-0.1c-2.4-0.1-3.1,0.7-3.1,3.1
		c0.1,22.2,0.1,44.3,0,66.5c0,2.9,1.2,3.2,3.6,3.1c5.5-0.1,11,0.1,16.5-0.1c3.7-0.1,5.7,1.3,5.4,5.3c-0.1,1.5-0.1,3,0,4.5
		c0.2,3.7-1.7,5-5.2,5c-5.7-0.1-11.3,0.1-17-0.1c-2.7-0.1-3.3,0.9-3.3,3.4c0.1,21.3,0.2,42.7,0,64c0,5.2,3,5.4,6.8,5.4
		c42.7,0,85.3,0,128,0c113,0,226,0,339,0c6.1,0,6.4,0.4,6.5,6.6c0.1,15.1,0.1,15.1-15,15.1C499.4,565.4,420.8,565.4,342.1,565.4z"/>
	<path d="M570.3,263.6c1.7,7.5,0.2,11.8-4.3,16.1c-18.9,18.3-37.4,37-56.1,55.6c-1.3,1.3-2.7,2.4-4.7,4.1c6.4,1,10.8,0.5,15-4
		c16.2-17,32.9-33.5,50.2-51.1c0.8,6,1.3,10.2-3,14.4c-13.7,13.3-26.9,27.1-40.5,40.9c5.6,0.8,10.1,0.2,14.4-4.6
		c9.1-10.1,18.9-19.6,29.1-29.9c1.3,6.5,0.9,10.9-3.8,15c-6.7,5.9-12.8,12.6-19.5,19.3c5.9,1.2,10.6,0.9,14.4-4
		c2.5-3.2,5.7-5.9,9.5-9.8c-0.5,5.1,1.8,9.3-2.1,12.6c-0.4,0.3-1.1,1.3-0.3,1.4c4.6,0.7,2.3,4.3,2.3,6.2
		c0.2,55.6,0.2,111.3,0.2,166.9c0,6.5-2.6,9-9.1,9c-18.3,0-36.6,0-55,0c-6.5,0-9.1-2.6-9.1-9c0-57.1,0-114.3,0-171.4
		c0-2.2-0.3-4.4,1.7-6.5C523,311.7,546.3,288.1,570.3,263.6z"/>
	<path d="M396.6,375.3c8.2,2.4,12.5-0.3,16.8-4.7c16.9-17.3,34.1-34.2,51.3-51.2c1.1-1.1,2-2.6,3.9-3.2c1.4,5.8-0.1,10.1-4.6,14.4
		c-15.2,14.7-29.9,29.9-45,45.2c4.9,0.8,9.1,1.1,13.2-3.3c11.7-12.3,23.8-24.2,36.4-36.9c0.9,6.3,0.6,10.8-4,15
		c-8.7,7.9-16.7,16.6-25.4,25.3c5.7,0.6,10.3,0.9,14.2-4c4.4-5.4,9.5-10.2,14.6-15.4c4.1,9.6-2.8,13.7-7.7,18.7
		c0.2,0.4,0.3,0.8,0.5,0.8c8.4,0.7,8.3,0.7,8.3,9c0,42.3,0,84.6,0,127c0,7.7-2.3,10-10.1,10c-17.8,0-35.7,0-53.5,0
		c-7.1,0-9.5-2.4-9.5-9.6c0-47.2,0-94.3,0-141.5c0-2.2,0.2-4,2-5.8c23.3-23.4,46.4-46.9,70.5-71.2c0.9,6.5,0.9,10.8-3.4,15
		c-21.4,20.8-42.3,42-63.5,63C400.3,373.1,398.8,373.8,396.6,375.3z"/>
	<path d="M366.3,348.8c1.9,6.6-0.9,10.8-5.4,15.1c-15.2,14.7-30.1,29.8-45.1,44.7c-1.1,1.1-2.2,2.3-3.5,3.8
		c6.1,1.2,10.4,0.1,14.6-4.3c12.6-13.3,25.6-26.2,39.3-40c0.8,6.1,1.2,10.4-3.3,14.4c-9.1,8.3-17.6,17.3-26.3,26
		c-1.1,1.1-2.2,2.3-3.6,3.8c6,1.2,10.5,0.5,14.6-4.3c5.6-6.5,12-12.4,18.4-18.9c4.2,12.5-7.4,15.7-12,23.3c4.4,0.4,8.5,1.4,13-2.9
		c0,8.5,0,16,0,23.6c0,26.5,0,53,0,79.5c0,6.7-2.7,9.5-9.3,9.5c-18.3,0-36.7,0-55,0c-6.3,0-9.3-2.7-9.3-9c0-24.7,0.2-49.3,0.3-74
		c0-7.6-0.7-15.3-0.1-23c0.2-2.6,0.7-3.7,3.4-3.3c3.3,0.6,5.6-1.1,7.8-3.4c19.2-19.2,38.4-38.4,57.7-57.5
		C363.7,350.7,364.5,349.2,366.3,348.8z"/>
	<path d="M240.3,376.7c-12.2,12.3-23.8,23.9-35.4,35.7c5.9,1.5,10.2-0.2,14.4-4.7c8.5-9.1,17.9-17.5,26.3-26.7
		c4.1-4.5,8.5-5.7,13.8-4.6c-11.5,11.6-23,23.2-35.4,35.7c6.4,0.8,10.7,1.2,14.7-3.2c7.8-8.6,16.2-16.7,25.1-25.7
		c0.8,5.7,1.5,10-2.9,13.8c-5.3,4.6-9.9,9.8-14.9,14.8c8.3,3.5,12.8-2.3,18.8-6.8c0,7.9,0,15.8,0,23.7c-0.1,27.7-0.2,55.3-0.4,83
		c0,7.8-2.3,10.1-10.1,10.1c-17.8,0-35.7,0-53.5,0c-6.8,0-9.4-2.5-9.4-9.3c0-26.6,0-53.3,0-79.9c0-6.2-1.9-13.2,0.5-18.2
		c2.3-4.8,8.2-8.2,12.4-12.4c6.9-6.8,14-13.3,20.4-20.6C228.8,376.7,233.3,375.4,240.3,376.7z"/>
	<path class="st0" d="M498.6,305.3c-2-6.9,0.7-11.1,5.2-15.4c21.1-20.6,41.9-41.5,62.7-62.3c1.2-1.2,2-2.9,3.5-4
		c1.6,6,1,10.3-3.5,14.6c-21.6,21-42.8,42.4-64.2,63.7C501.2,303,500,304,498.6,305.3z"/>
	<path class="st1" d="M396.4,357.1c-1-6.7-0.3-10.9,4.1-15.3c21.7-21,42.9-42.5,64.2-63.7c1.1-1.1,2-2.7,3.9-3.2
		c0.8,5.5,0.2,9.8-4.3,14.2c-21.5,20.9-42.6,42.2-63.9,63.4C399.2,353.7,398.1,355.1,396.4,357.1z"/>
	<path class="st1" d="M570.4,202.1c1.7,7.2,0.1,11.5-4.3,15.8c-21.4,20.9-42.5,42.2-63.7,63.3c-1.2,1.1-2.3,2.2-4,3.8
		c-0.8-5.9-0.3-10.1,4.1-14.5C525.2,248.2,547.3,225.4,570.4,202.1z"/>
	<path class="st1" d="M570.4,243.3c1.6,7.2,0.1,11.5-4.4,15.9c-21.4,20.7-42.3,41.9-63.4,62.9c-1.3,1.3-2.6,2.5-4.1,3.9
		c-1.3-6.1,0-10.4,4.4-14.8C525.4,289.1,547.5,266.5,570.4,243.3z"/>
	<path class="st2" d="M566.9,194.6c-22.6,22.9-45.5,46-68.5,69.4c-0.8-5.4-0.3-9.8,4.2-14c17.3-16.6,34.3-33.5,51-50.8
		C557.8,194.7,562,193.6,566.9,194.6z"/>
	<path class="st1" d="M396.2,335.3c-0.8-5.4-0.2-9.7,4.3-14.1c16.7-16,33.1-32.4,49.2-49c4.3-4.5,8.7-6.1,13.7-4.9
		C441.3,289.7,418.9,312.4,396.2,335.3z"/>
	<path class="st1" d="M327,366.2c7.1-7,14.7-13.6,21.3-21c4.5-5.1,9.4-6,15.5-4.7c-22.7,23.2-45.4,46.4-68,69.6
		c-0.5-0.4-1.1-0.8-1.6-1.3c-0.7-4.7-1-8.9,3.3-13C307.6,386.3,317.2,376.1,327,366.2z"/>
	<path class="st2" d="M341.9,340.3c-15.8,16-31.6,32-47.8,48.4c-0.7-5.4-0.8-9.7,3.8-13.9c10.4-9.5,20.2-19.8,30.2-29.8
		C333.6,339.4,333.6,339.4,341.9,340.3z"/>
	<path class="st1" d="M396.1,313.7c-1.8-6.2,1.6-11.1,6.4-15.6c9.9-9.3,19-19.5,29.2-28.5c3.9-3.4,7.8-1.8,10.2-2.2
		C427.1,282.4,411.4,298.2,396.1,313.7z"/>
	<path class="st2" d="M498.3,242.9c-1.5-5.9,0.7-10.3,5.3-14.6c10.1-9.4,19.9-19.1,29.3-29.2c4.2-4.5,8.5-5.6,13.3-4.6
		C530.4,210.5,514.4,226.7,498.3,242.9z"/>
	<path class="st3" d="M423.6,267.3c-9.1,9.2-18.2,18.4-27.3,27.6l0.1,0.1c-1.6-3.2-0.7-6.5-0.5-9.8c3.8-3.9,8-7.4,11.4-11.6
		C411.6,267.9,416.9,266,423.6,267.3z"/>
	<path class="st4" d="M525.6,194.6c-9.1,9.2-18.3,18.5-27.3,27.7c-1.3-5.4-0.1-10.1,4.7-13.9c3.2-2.6,6.3-5.5,8.8-8.8
		C515.7,194.6,520.4,193.4,525.6,194.6z"/>
	<path class="st2" d="M321.3,340.3c-9,9.1-18,18.2-27.3,27.6c-0.5-4.9-1.4-9.4,3.4-13.2c3.6-2.8,7-6.2,9.9-9.8
		C311.3,339.9,316,339.2,321.3,340.3z"/>
	<path class="st3" d="M218,376.4c-8.8,8.9-17.6,17.8-26.5,26.8c-0.8-5.2-0.7-10,4.4-13.7c2.9-2.1,5.5-4.9,7.8-7.7
		C207.6,376.9,212.4,375.1,218,376.4z"/>
	<path class="st5" d="M497.8,199.1c0.2-1.6,0.3-3.2,0.5-4.9c2.4,0,4.8,0,7.9,0c-2.1,3.8-5,6-8,8.6
		C498.1,201.3,498,200.2,497.8,199.1z"/>
	<path class="st6" d="M300.7,340.5c-2.1,2.1-4.4,4.3-6.5,6.5C292.6,339.6,293.1,339.2,300.7,340.5z"/>
	<path class="st7" d="M191.4,383.5c-0.2-7.6-0.2-7.6,6.9-7.1C196.6,379.4,194.3,381.3,191.4,383.5z"/>
	<path class="st8" d="M396.1,272.7c-0.2-5.8-1.7-6,6.3-5.3C400.2,269.2,398,271.1,396.1,272.7z"/>
</g>
</svg>
