<?xml version="1.0" encoding="utf-8"?>
<!-- Generator: Adobe Illustrator 19.0.0, SVG Export Plug-In . SVG Version: 6.00 Build 0)  -->
<svg version="1.1" id="Calque_1" xmlns="http://www.w3.org/2000/svg" xmlns:xlink="http://www.w3.org/1999/xlink" x="0px" y="0px"
	 viewBox="0 0 612 792" style="enable-background:new 0 0 612 792;" xml:space="preserve">
<g>
	<path d="M312.3,578.5c-81.2,0-162.3,0-243.5,0c-7.7,0-7.7,0-7.7-7.9c0-139,0-278,0-417c0-7.8,0-7.9,7.7-7.9c2.8,0,5.7,0.2,8.5,0
		c4.4-0.3,5.8,1.8,5.8,6c-0.1,17.2,0,34.3-0.2,51.5c0,3.5,0.9,4.5,4.4,4.3c5.1-0.3,10.3,0,15.5-0.1c4-0.1,6,1.4,5.6,5.6
		c-0.1,1.3-0.1,2.7,0,4c0.2,3.6-1.4,5.2-5,5.1c-5.7-0.1-11.3,0.1-17-0.1c-2.4-0.1-3.5,0.4-3.5,3.2c0.1,22,0.2,44,0,66
		c0,3.4,1.3,3.8,4.1,3.7c5.3-0.2,10.7,0.1,16-0.1c3.8-0.1,5.7,1.3,5.4,5.2c-0.1,1.5-0.1,3,0,4.5c0.1,3.4-1.3,4.8-4.8,4.8
		c-5.8-0.1-11.7,0.1-17.5-0.1c-2.4-0.1-3.2,0.6-3.2,3.1c0.1,22.3,0.1,44.7,0,67c0,2.7,1.1,2.9,3.3,2.9c5.5-0.1,11,0.1,16.5-0.1
		c4-0.1,5.8,1.2,5.8,5.4c0.1,9,0,9.2-9,9.2c-4.3,0-8.7,0.1-13-0.1c-2.4-0.1-3.5,0.3-3.5,3.2c0.1,22.2,0.1,44.3,0,66.5
		c0,2.4,0.7,3.1,3.1,3c5.7-0.2,11.3,0,17-0.1c3.8-0.1,5.6,1.5,5.4,5.3c-0.1,1.2-0.1,2.3,0,3.5c0.4,4.3-1.4,6.1-5.8,5.9
		c-5.3-0.2-10.7,0.1-16-0.1c-2.6-0.1-3.7,0.4-3.7,3.4c0.1,21.3,0.1,42.7,0,64c0,3.9,1.6,5.4,5.4,5.4c21.5,0,43-0.1,64.5,0
		c2.8,0,3.3-1,3.3-3.5c-0.1-5.7,0.1-11.3-0.1-17c-0.1-3.6,1.5-5.3,5.1-5.1c0.7,0,1.3,0,2,0c7,0,7.5,0.4,7.5,7.2c0,5,0.1,10,0,15
		c-0.1,2.7,0.9,3.4,3.5,3.4c22-0.1,44-0.1,66,0c2.9,0,3.8-0.9,3.7-3.7c-0.2-5.5,0.1-11-0.1-16.5c-0.2-5.6,3.4-5.5,7.3-5.4
		c3.8,0,7.6-0.3,7.3,5.4c-0.2,5.7,0,11.3-0.1,17c-0.1,2.3,0.6,3.2,3,3.2c22.3-0.1,44.7-0.1,67,0c2.5,0,3.1-0.9,3.1-3.2
		c-0.1-5.5,0.1-11-0.1-16.5c-0.2-4.3,1.5-6,5.8-6c8.7,0,8.9,0.1,9,8.8c0,4.3,0.2,8.7-0.1,13c-0.2,3.2,1,3.9,4,3.8
		c21.7-0.1,43.3-0.1,65,0c3.2,0,4.4-0.8,4.2-4.2c-0.3-5.3,0-10.7-0.1-16c-0.1-3.8,1.3-5.7,5.2-5.5c1.5,0.1,3,0,4.5,0
		c3.4-0.1,4.8,1.6,4.8,4.9c-0.1,5.7,0.1,11.3-0.1,17c-0.1,2.8,0.7,3.7,3.6,3.7c22-0.1,44-0.1,66,0c3.1,0,3.6-1.2,3.5-3.8
		c-0.1-5.3,0.1-10.7-0.1-16c-0.1-4.3,1.7-6.2,6-5.8c1.3,0.1,2.7,0,4,0c3.4,0,4.8,1.6,4.7,5c-0.1,5.7,0.1,11.3-0.1,17
		c-0.1,2.8,0.7,3.7,3.6,3.7c10.8-0.2,21.7,0.1,32.5-0.1c4.6-0.1,6.4,1.6,6,6.2c-0.2,2.8,0,5.7,0,8.5c0,6.8-0.3,7.1-6.9,7.1
		c-19.2,0-38.3,0-57.5,0C436.6,578.5,374.5,578.5,312.3,578.5z"/>
	<path d="M357.3,233c20.6,0.1,34.5,20.8,26.6,40.1c-1.2,3-0.9,4.6,1.3,6.7c5.1,4.8,10.1,9.7,14.9,14.8c1.8,1.9,3.3,2.6,6,1.4
		c7.8-3.7,15.8-3.7,23.6,0c2.4,1.2,3.8,0.6,5.6-1.1c9.8-9.8,19.6-19.5,29.5-29.2c1.8-1.8,2.1-3.2,1-5.6c-5.1-11.8-3.2-22.7,5.6-31.8
		c8.6-8.9,19.3-11.6,31.1-7.2c12,4.5,18.3,13.6,19.1,26.2c1.4,20.2-20.4,35.7-39.6,28.1c-3.8-1.5-5.8-1-8.5,1.8
		c-9.2,9.5-18.5,18.7-27.9,27.9c-1.8,1.7-2.2,3-1.1,5.5c6.9,15.8-0.7,33.5-16.7,39.2c-16,5.7-33.3-3.1-38-19.6
		c-1.8-6.2-1.7-12.6,1.1-18.6c1.5-3.2,0.8-5.1-1.6-7.3c-5-4.7-9.8-9.5-14.5-14.5c-1.9-2-3.4-2.7-6.3-1.4c-7.4,3.5-15.3,3.6-22.7,0.1
		c-3.3-1.6-4.9-0.6-7.1,1.6c-36.9,36.9-73.8,73.7-110.7,110.6c-11.1,11.1-22.1,22.2-33.3,33.1c-2,1.9-2.3,3.4-1.2,6
		c5,11.8,2.9,22.7-5.9,31.8c-8.6,8.9-19.4,11-30.8,6.9c-12-4.2-18.4-13.5-19.2-26.1c-1.3-20.7,20.5-36.1,39.9-28.1
		c3.7,1.5,5.5,0.8,8-1.7c47.4-47.4,94.9-94.6,142.4-141.8c2.8-2.8,3.5-4.9,2-8.9C322.3,252.8,336.6,232.9,357.3,233z"/>
	<path d="M492.4,398.6c-3.9-0.2-7.7-0.7-11.2-2.5c-2.7-1.4-4.3-1-6.4,1.2c-9.5,9.8-19.2,19.4-29,28.9c-1.9,1.9-2.3,3.2-1.1,5.9
		c5.5,12.4,1.9,26.4-8.6,34.5c-10.5,8.2-25.1,8.3-35.7,0.3c-10.6-8.1-14.4-21.9-9.1-34.4c1.3-3.1,0.5-4.7-1.6-6.8
		c-25.9-25.7-51.7-51.5-77.6-77.3c-1.8-1.8-5.1-3.4-3.6-6.5c1.6-3.2,4.3-6.1,7.7-7.5c2.6-1,4.1,1.6,5.7,3.2
		c25.3,25.1,50.6,50.2,75.7,75.6c3.7,3.7,6.5,5.1,11.7,2.8c6.5-2.7,13.5-2.2,19.9,0.9c3,1.4,4.7,0.7,6.8-1.5
		c9.4-9.6,19-19.2,28.7-28.6c1.9-1.8,2.4-3.2,1.3-5.9c-6.8-15.6,0.6-33.1,16.3-39c15.7-5.9,33,2.5,38.1,18.5
		c5.1,16-4.1,32.6-20.6,36.9C497.4,398.2,494.8,398.3,492.4,398.6z"/>
	<path d="M235.7,233c20.7,0.1,34.6,20.7,26.7,40c-1.3,3.2-0.8,4.9,1.6,7.2c6.2,5.8,12,12,18.2,17.9c3.8,3.6,1.9,6-1,8.6
		c-2.8,2.6-5.1,6.2-9.4,1.8c-6.2-6.5-12.8-12.7-19-19.1c-1.6-1.6-2.8-2.1-5.1-1c-8.1,3.9-16.5,3.9-24.5-0.1c-2.5-1.2-3.5-0.1-5,1.3
		c-7.8,7.8-15.5,15.6-23.4,23.2c-2.2,2.1-2.3,3.6-1.1,6.3c6.6,15.4-1.3,33.1-17.1,38.6c-15.9,5.6-33.7-3.5-37.9-19.6
		c-3-11.6,0-21.9,9.1-29.8c9-7.7,19.4-9.3,30.3-4.7c3.1,1.3,4.5,0.9,6.7-1.3c7.4-7.6,15-15.1,22.7-22.6c2-1.9,2.6-3.3,1.4-6.2
		C200.3,254,214.5,232.9,235.7,233z"/>
</g>
</svg>
