<?xml version="1.0" encoding="utf-8"?>
<!-- Generator: Adobe Illustrator 19.0.0, SVG Export Plug-In . SVG Version: 6.00 Build 0)  -->
<svg version="1.1" id="Calque_1" xmlns="http://www.w3.org/2000/svg" xmlns:xlink="http://www.w3.org/1999/xlink" x="0px" y="0px"
	 viewBox="0 0 612 792" style="enable-background:new 0 0 612 792;" xml:space="preserve">
<g>
	<path d="M532.8,109.9c-12.5,48.8-25.1,97.6-37.6,146.3c-0.6,0.1-1.3,0.2-1.9,0.4c-5.7-13-11.4-26.1-17.2-39.6
		c-1.1,0.9-1.9,1.5-2.5,2.1c-88.8,95.4-190.8,174-304.4,237.7C131.5,478,93,497.2,53.4,514.3c-1.1,0.5-2.1,1.1-3.2,1.3
		c-0.8,0.1-2.4-0.4-2.5-0.8c-0.1-0.9,0.2-2.2,0.9-2.9c0.9-0.9,2.3-1.4,3.4-2C167.2,450,271.6,375.2,363.3,283.1
		c27.1-27.2,51.9-56.8,77.7-85.3c0.9-1,1.6-2.1,3.1-4c-14.5-1.7-28.2-3.4-41.8-5c-0.2-0.6-0.5-1.3-0.7-1.9c43.1-26,86.1-52,129.2-78
		C531.5,109.2,532.2,109.6,532.8,109.9z"/>
	<path d="M541.8,449.5c0,52.6,0,105.3,0,157.9c0,7.3,0,7.4-7.2,7.4c-12.2,0-24.3,0-36.5,0c-6.5,0-6.8-0.3-6.8-6.7
		c0-84.1,0-168.2,0-252.4c0-21.8,0-43.6,0-65.5c0-6.1,0.4-6.6,6.4-6.6c12.3,0,24.7,0,37,0c6.8,0,7.1,0.3,7.1,7
		C541.8,343.6,541.8,396.5,541.8,449.5z"/>
	<path d="M402.2,488c0-39.7,0.1-79.3-0.1-119c0-4.9,1.6-6.4,6.4-6.3c12.8,0.2,25.7,0.2,38.5,0c4.3-0.1,5.8,1.4,5.8,5.8
		c-0.1,80.2-0.1,160.3,0,240.5c0,4.3-1.5,5.9-5.8,5.9c-12.8-0.2-25.7-0.2-38.5,0c-4.9,0.1-6.4-1.7-6.3-6.4
		C402.3,568.3,402.2,528.2,402.2,488z"/>
	<path d="M363.8,520c0,29.3,0,58.7,0,88c0,6.5-0.3,6.8-6.8,6.8c-12.7,0-25.3-0.1-38,0.1c-4.4,0.1-5.8-1.6-5.8-5.9
		c0.1-59.5,0.1-119,0-178.5c0-4.6,1.5-6.2,6.1-6.2c12.8,0.2,25.7,0.2,38.5,0c4.6-0.1,6.1,1.6,6.1,6.2
		C363.7,460.3,363.8,490.2,363.8,520z"/>
	<path d="M224.2,546c0-20.7,0-41.3,0-62c0-6,0.5-6.6,6.6-6.6c12.7,0,25.3,0.1,38-0.1c4.6-0.1,6.1,1.7,6,6.2
		c-0.1,41.7-0.1,83.3,0,125c0,4.8-1.6,6.4-6.4,6.3c-12.8-0.3-25.7-0.2-38.5,0c-4.4,0.1-5.8-1.6-5.8-5.9
		C224.3,588,224.2,567,224.2,546C224.2,546,224.2,546,224.2,546z"/>
	<path d="M185.7,567.1c0,13.8-0.1,27.6,0.1,41.4c0.1,4.8-1.6,6.4-6.4,6.3c-12.8-0.3-25.6-0.2-38.4,0c-4.4,0.1-5.8-1.6-5.8-5.9
		c0.1-27.8,0.1-55.6,0-83.4c0-4.5,1.7-5.7,5.9-5.7c13,0.2,26,0.2,38.9,0c4.3-0.1,5.9,1.3,5.8,5.7
		C185.6,539.5,185.7,553.3,185.7,567.1z"/>
	<path d="M46.2,588c0-7.3,0.1-14.7,0-22c-0.1-3.7,1.4-5,5-5c13.5,0.1,27,0.1,40.5,0c3.6,0,5.1,1.4,5.1,5c-0.1,14.7-0.1,29.3,0,44
		c0,3.3-1.4,4.8-4.8,4.8c-13.7-0.1-27.3-0.1-41,0c-3.4,0-4.8-1.4-4.8-4.8C46.3,602.7,46.2,595.4,46.2,588z"/>
</g>
</svg>
