<?xml version="1.0" encoding="utf-8"?>
<!-- Generator: Adobe Illustrator 19.0.0, SVG Export Plug-In . SVG Version: 6.00 Build 0)  -->
<svg version="1.1" id="Calque_1" xmlns="http://www.w3.org/2000/svg" xmlns:xlink="http://www.w3.org/1999/xlink" x="0px" y="0px"
	 viewBox="0 0 612 792" style="enable-background:new 0 0 612 792;" xml:space="preserve">
<g>
	<path d="M327.5,527.7c0-37,0.1-74-0.1-110.9c0-5.5,2.1-8.8,6.8-11.5c64-36.7,127.9-73.6,191.8-110.5c6.8-3.9,7.6-3.7,10.6,3.3
		c51.1,119.2,2.7,257.6-111.5,319.2c-28.7,15.5-59.4,24.8-91.7,28.6c-4.7,0.6-5.8-0.7-5.8-6.7C327.5,602,327.5,564.9,327.5,527.7z"
		/>
	<path d="M306.1,146c83.1,2.3,150.7,35.5,201.5,101.9c3.6,4.7,3.3,6-1.7,8.9C441.2,294,376.6,331.3,312,368.6
		c-4.2,2.4-7.9,2.5-12.1,0C235.5,331.3,171,294.2,106.6,257c-5.6-3.3-5.9-4.4-2-9.6c39.6-52,91.5-84.5,155.7-97
		C275.3,147.4,290.6,146.1,306.1,146z"/>
	<path d="M284.5,527.6c0,36.7,0,73.3,0,110c0,8.6-0.3,8.8-8.7,7.8c-64.9-8.2-118.7-37.3-161.2-86.9c-32.8-38.3-51.8-82.8-57.7-132.9
		c-5.1-43.9,1.2-86.2,18.3-126.9c3.2-7.7,3.8-7.9,11.2-3.6c63.9,36.8,127.8,73.7,191.8,110.5c4.6,2.7,6.4,6,6.4,11.3
		C284.4,453.7,284.5,490.7,284.5,527.6z"/>
</g>
</svg>
