<?xml version="1.0" encoding="utf-8"?>
<!-- Generator: Adobe Illustrator 19.0.0, SVG Export Plug-In . SVG Version: 6.00 Build 0)  -->
<svg version="1.1" id="Calque_1" xmlns="http://www.w3.org/2000/svg" xmlns:xlink="http://www.w3.org/1999/xlink" x="0px" y="0px"
	 viewBox="0 0 612 792" style="enable-background:new 0 0 612 792;" xml:space="preserve">
<g>
	<path d="M448,419c0-47.3,0-94.6-0.1-142c0-4.7,1.4-8.3,4.8-11.5c6.1-5.7,12-11.6,17.7-17.7c3.1-3.2,5.4-3.5,8.6-0.2
		c11.8,12,23.7,23.9,35.7,35.7c3,2.9,4.1,6.2,4.1,10.3c-0.1,72,0,144,0,215.9c0,17.7-0.1,35.3,0.1,53c0,4.6-1.4,6.6-6.3,6.5
		c-19.3-0.2-38.7-0.1-58-0.1c-6.1,0-6.5-0.5-6.5-6.6C448,514.6,448,466.8,448,419z"/>
	<path d="M286.2,385.7c-2.3-0.2-3.5-1.6-4.8-2.9c-27-27-54-53.9-81-80.9c-3.3-3.3-6.7-6.5-9.9-9.9c-2.5-2.7-4.8-2.6-7.2,0.1
		c-0.8,0.9-1.6,1.7-2.5,2.5c-43,43-86,86-129.1,129c-5.1,5.1-5.9,5.1-10.8,0.1c-10.9-11.1-11.4-8.5,0.1-20
		c46.5-46.5,93.1-93.1,139.7-139.6c6-6,6-6,12.2,0.1c29.4,29.3,58.8,58.6,88.2,87.8c4.3,4.3,5,4.3,9.3,0
		c55.3-55.2,110.6-110.5,165.9-165.6c2.5-2.5,2.6-3.8,0-6.2c-7.9-7.4-15.5-15.1-23.1-22.8c-3.5-3.5-3.3-4.6,1.4-5.8
		c31.1-8.4,62.3-16.7,93.4-25c4.9-1.3,3.9,1.6,3.2,4.4c-7.2,26.8-14.3,53.6-21.5,80.4c-1.1,4.2-2.3,8.3-3.4,12.5
		c-1,3.7-2.6,3.7-5.1,1.2c-7.6-7.7-15.5-15.2-22.9-23.1c-2.9-3.1-4.4-2.9-7.3,0C411.3,262,351.3,321.8,291.4,381.7
		C289.8,383.3,288.4,385.2,286.2,385.7z"/>
	<path d="M420,434c0,42.7,0,85.3,0,128c0,6.8-0.3,7.1-7,7.1c-19.2,0-38.3-0.1-57.5,0.1c-4.9,0.1-6.4-1.8-6.4-6.5
		c0.1-62.6,0.1-125.3,0-187.9c0-3.9,1.3-7,4.1-9.8c20.8-20.7,41.5-41.4,62.3-62.1c1-1,1.9-3,3.5-2.3c1.9,0.8,0.9,3,0.9,4.5
		C420,348,420,391,420,434z"/>
	<path d="M151.7,468c0-30.6,0.1-61.3-0.1-91.9c0-5,1.4-8.8,5.1-12.3c8.9-8.5,17.6-17.3,26.2-26.1c3-3.1,5.3-3,8.3,0.1
		c9.1,9.3,18.3,18.4,27.5,27.6c2.4,2.4,3.5,5.1,3.5,8.4c0,63.3,0,126.6,0,189.9c0,4.1-1.6,5.6-5.6,5.5c-19.7-0.1-39.3-0.2-59,0
		c-4.7,0-6-1.7-6-6.2C151.8,531.3,151.7,499.6,151.7,468C151.7,468,151.7,468,151.7,468z"/>
	<path d="M281.8,604.9c-81,0-162,0-243,0c-7.6,0-7.8-0.2-7.8-7.9c0.1-15.1-1.9-13.7,13.6-13.7c159.7,0,319.3,0,479,0
		c1.8,0,3.7,0,5.5,0.1c2.3,0.2,3.6,1.5,3.8,3.9c0,0.3,0,0.7,0,1c-0.3,19.4,2.7,16.6-15.6,16.6C438.8,605,360.3,604.9,281.8,604.9z"
		/>
	<path d="M321.1,483.5c0,26.5-0.1,53,0.1,79.5c0,4.5-1.5,6.2-6.1,6.1c-19.5-0.2-39-0.2-58.5,0c-4.5,0-6.2-1.5-6.2-6.1
		c0.1-53.3,0.1-106.6,0.1-159.9c0-1.4-0.8-3.4,1-4c1.7-0.6,2.5,1.4,3.5,2.4c8.9,8.8,17.8,17.5,26.5,26.5c3.2,3.3,5.5,3.4,8.6,0.1
		c8.8-9.1,17.9-18,26.8-26.9c0.9-0.9,1.7-2.6,3.1-2.1c1.9,0.6,1,2.6,1,3.9C321.1,429.9,321.1,456.7,321.1,483.5z"/>
	<path d="M123.5,483.2c0,26.3,0,52.6,0,79c0,6.3-0.5,6.8-6.8,6.8c-19.3,0-38.6-0.1-58,0.1c-4.3,0-5.9-1.4-5.9-5.8
		c0.1-30.2,0.1-60.3,0-90.5c0-3.8,1.3-6.6,4-9.3c20.8-20.7,41.5-41.4,62.2-62.1c1-1,1.9-3,3.5-2.3c1.6,0.7,0.9,2.7,0.9,4.1
		C123.5,429.9,123.5,456.6,123.5,483.2z"/>
</g>
</svg>
