<?xml version="1.0" encoding="utf-8"?>
<!-- Generator: Adobe Illustrator 19.0.0, SVG Export Plug-In . SVG Version: 6.00 Build 0)  -->
<svg version="1.1" id="Calque_1" xmlns="http://www.w3.org/2000/svg" xmlns:xlink="http://www.w3.org/1999/xlink" x="0px" y="0px"
	 viewBox="0 0 612 792" style="enable-background:new 0 0 612 792;" xml:space="preserve">
<g>
	<path d="M132,165c-0.1,1.6-0.4,3.3-0.4,4.9c0,25.8,0,51.7,0,77.5c0,2.7,0,5.3,0,8.4c12.2,0,24,0,36.5,0c0-18,0-35.9,0-54
		c6.2,0,11.8,0,18.1,0c0,17.9,0,35.8,0,54.3c18.5,0,36.4,0,54.8,0c0,55,0,109.4,0,164.7c2.7,0,4.9,0,7.2,0c98.1,0,196.3,0,294.4,0
		c3.2,0,6.3,0.1,9.5,0.1c0,0.3,0,0.7,0,1c-0.7,1.5-1.5,2.9-2,4.4c-15.7,46.9-31.3,93.7-47,140.6c-130,0-260,0-390,0
		c-0.3-1-0.5-1.9-0.8-2.9C92.6,510.2,73,456.3,53.3,402.3C49,390.5,44.5,378.8,40,367c0-0.3,0-0.7,0-1c18.2,0,36.5,0,55.2,0
		c0-36.9,0-73.1,0-110c6.2,0,12,0,17.8,0c0-30.8,0-60.9,0-91C119.3,165,125.7,165,132,165z M66.5,384.2c0.7,2.4,1.1,3.9,1.7,5.5
		c18.7,51.6,37.6,103.1,56.2,154.8c1.4,3.8,3.3,4.5,6.9,4.5c100-0.1,199.9-0.1,299.9-0.1c19.5,0,39,0,58.7,0
		c12.2-36.5,24.3-72.9,36.6-109.8c-3.3,0-5.6,0-7.9,0c-98.6,0-197.3,0-295.9,0.1c-4.4,0-6.3-1.4-8-5.3
		c-6.5-15.3-13.5-30.4-20.1-45.7c-1.3-3.1-2.9-4.1-6.3-4.1c-22.2,0.2-44.3,0.1-66.5,0.1C103.7,384.2,85.5,384.2,66.5,384.2z
		 M113.5,366c1.8,0,3.5,0,5.1,0c27.2,0,54.3,0.1,81.5-0.1c3.6,0,5.2,1.1,6.6,4.3c4.3,10.3,9,20.4,13.5,30.6c0.6,1.4,1.4,2.7,2.6,4.9
		c0-44.2,0-87.3,0-130.7c-36.5,0-72.7,0-109.2,0C113.5,305.4,113.5,335.4,113.5,366z"/>
	<path d="M424,165c0,24.1,0,48.3,0,72.9c12,0,23.8,0,36.2,0c0,24.5,0,48.5,0,73.1c12.5,0,24.4,0,36.6,0c0,30.7,0,60.8,0,91.2
		c-78.9,0-157.7,0-237,0c0-30.4,0-60.6,0-91.2c12.1,0,23.9,0,36,0c0-24.3,0-48.3,0-72.8c12.3,0,24.2,0,36.7,0c0-2.3,0-4.1,0-5.9
		c0-20.3,0-40.6,0-61c0-2.1,0.3-4.3,0.4-6.4C363.3,165,393.7,165,424,165z M405.4,237.9c0-18.4,0-36.3,0-54.4c-18.2,0-36.1,0-54.1,0
		c0,18.3,0,36.3,0,54.4C369.4,237.9,387.2,237.9,405.4,237.9z M368.9,256.6c-18.4,0-36.3,0-54.4,0c0,18.2,0,36,0,54.1
		c18.3,0,36.3,0,54.4,0C368.9,292.6,368.9,274.9,368.9,256.6z M441.9,256.3c-17.7,0-34.8,0-51.9,0c-3.6,0-2.7,2.8-2.7,4.7
		c-0.1,15.3,0,30.7,0,46c0,1.3,0.2,2.5,0.4,3.7c18.3,0,36.2,0,54.3,0C441.9,292.6,441.9,274.8,441.9,256.3z M332.3,329.8
		c-18.4,0-36.2,0-54.2,0c0,18.2,0,36.1,0,54.1c18.2,0,36.1,0,54.2,0C332.3,365.8,332.3,348,332.3,329.8z M405.5,329.8
		c-18.5,0-36.3,0-54.2,0c0,18.3,0,36.2,0,54c18.2,0,36.1,0,54.2,0C405.5,365.7,405.5,348,405.5,329.8z M478.6,329.8
		c-18.3,0-36.3,0-54.2,0c0,18.3,0,36.2,0,54c18.3,0,36.2,0,54.2,0C478.6,365.6,478.6,347.9,478.6,329.8z"/>
	<path d="M406,475.4c0-6.1,0-11.8,0-17.8c24.3,0,48.2,0,72.4,0c0,6,0,11.7,0,17.8C454.4,475.4,430.5,475.4,406,475.4z"/>
	<path d="M369.4,457.5c5.8,0,11.4,0,17.4,0c0,5.9,0,11.6,0,17.7c-5.6,0-11.3,0-17.4,0C369.4,469.6,369.4,463.9,369.4,457.5z"/>
	<path d="M204.5,293.4c0,5.9,0,11.5,0,17.4c-24.3,0-48.3,0-72.6,0c0-5.8,0-11.4,0-17.4C155.9,293.4,179.9,293.4,204.5,293.4z"/>
</g>
</svg>
