<?xml version="1.0" encoding="utf-8"?>
<!-- Generator: Adobe Illustrator 19.0.0, SVG Export Plug-In . SVG Version: 6.00 Build 0)  -->
<svg version="1.1" id="Calque_1" xmlns="http://www.w3.org/2000/svg" xmlns:xlink="http://www.w3.org/1999/xlink" x="0px" y="0px"
	 viewBox="0 0 612 792" style="enable-background:new 0 0 612 792;" xml:space="preserve">
<style type="text/css">
	.st0{fill:#2B3B4E;}
	.st1{fill:#54BFE9;}
	.st2{fill:#E4E7EC;}
	.st3{fill:#324A5E;}
	.st4{fill:#324A5D;}
	.st5{fill:#F6B34C;}
	.st6{fill:#63BFE0;}
	.st7{fill:#FDCE5B;}
	.st8{fill:#FCFCFC;}
	.st9{fill:#FBCE5B;}
	.st10{fill:#FDCF5B;}
	.st11{fill:#8DC4C8;}
</style>
<g>
	<path class="st0" d="M367.9,612.9c0,3.5-0.1,6.9,0.2,10.4c0.2,2.5-0.7,3.3-3.2,3.8c-10.5,1.8-21,2.3-31.6,2
		c-1.9,1.6-4.1,0.9-6.1,0.4c-9.1-2.5-18.6-2.4-27.8-4c-1.1-0.2-2.3-0.2-3.4,0.3c-1.9,0.1-3.8,0.2-5.8,0.2
		c-1.9,0.8-30.7,3.4-32.3,2.9c-10.6,0.5-21.1-0.2-31.6-1.9c-3-0.5-3.8-1.6-3.6-4.5c0.5-7.3,0.7-14.5,1-21.8c-0.9-2-1.4-4.1-1.2-6.3
		c1.1-14.8,1.4-29.6,2.6-44.3c0.6-7.5,0.8-15,1.1-22.4c0.9-21.4,2.3-42.9,2.5-64.3c0.1-12.4,0.3-24.9,1.2-37.4
		c1.6-8.1,0.5-16.3,0.7-24.4c0.3-14.1,0.7-28.3,1.6-42.4c0.6-9.1,0.6-18.3,0.9-27.4c0.5-12.6,1-25.3,1.5-37.9
		c0.6-16.8,0.9-33.6,2.2-50.4c3.6-6.1,9.3-9.4,16-11.2c7.6,2.8,15.2,4.4,22.8,0.2c1.6,0.1,2.8,0.9,4,1.8
		c6.9,5.7,13.7,11.7,16.3,21.6c2.9-10,9-16.3,16.5-21.6c5.2,1.8,10.4-0.1,15.6,0.2c3.5,0.2,5.4-2.8,8.2-4.2
		c7.4,2.5,14,6.1,18.3,12.9c1,4.6,1.2,9.2,1.3,13.9c0.6,23.6,1.5,47.1,2.8,70.7c0.5,8.8,0.7,17.6,0.9,26.4
		c0.3,15.9,2.1,31.9,1.1,47.8c-0.1,2,0,4,0.7,5.9c0.3,1.3,0.5,2.6,0.4,4c-0.6,18.5,1.3,36.9,1.1,55.4c-0.3,22.8,1.8,45.5,2.7,68.3
		c0.6,16.3,2,32.6,2.3,48.9c0.2,7.6,1.3,15.3,1,22.9C368.5,609.3,368.9,611.2,367.9,612.9z"/>
	<path class="st1" d="M353,241.9c-5.5-3.9-11-8-16.9-11.2c-1-0.9-0.7-2.1-0.6-3.3c0-5.1,1.9-10.5-2.5-14.9
		c1.7-5.2,0.6-10.3,0.1-15.6c-0.3-2.7,1.3-6.5,2-9.9c40.8,4.3,77.8,18.8,110.2,44c42.4,32.9,69.9,75.7,80.2,128.4
		c12.9,65.5-1.2,125.2-42.3,178c-29.7,38.1-68.6,62.9-115.2,75.6c-1.8-7.5-1-15.2-1.5-22.9c-1.5-22.4-2.1-44.9-3.5-67.3
		c-2.3-38.2-2.2-76.5-3.1-114.8c-0.6-2.3-0.4-4.5,0-7.3c2.5,1,2.8,3,3.3,4.7c3.5,10.9,6.9,21.9,10.3,32.8c2.9,8.1,6.8,11,13.7,10.1
		c7.1-0.9,12.1-5.8,12.2-13.5c0.2-21.4,1-42.9-0.5-64.3c-0.7-10.4-0.1-20.9-1.1-31.3c0.1-0.5,0.2-1,0.4-1.5c1-1.9,3-2.5,4.9-3.1
		c5.4-1.6,6.7-5.8,8.8-10.6c2.1-4.9-1.6-9.5,1.1-13.9c0.5-0.8-1-2-1.4-3.1c0.6-7.1,4.1-13.2,7.1-19.5c1.3-2.6,3.1-1.5,4.9-0.2
		c4.7,3.2,8.8,1.8,10.9-3.5c0.7-1.9-0.2-3.2-1.3-4.5c-4.1-4.6-9.1-8.2-13.7-12.4c-2.7-2.5-5.3-0.8-7.4,1.4c-2.2,2.2-3.7,5.1-0.8,7.3
		c6.8,5.1,5.5,10.8,2.2,17c-2.3,4.3-2.4,9.8-6.8,13c-3.5,0.4-7.1-0.2-10.6-0.4c-1.3-1.3-1.1-3-1.3-4.7c-2.1-17-7.3-33.1-15.8-48
		c-1.7-2.9-3.8-5.4-6.2-7.8c-4.9-4.7-10.2-6.8-16.7-3.4C355,242,354,242.4,353,241.9z"/>
	<path class="st1" d="M252.6,232.7c-5.4,2.4-9.8,6.2-14.6,9.5c-1.2,0.4-2.3,0.1-3.4-0.3c-7.6-3.1-13.3-0.1-18.1,5.5
		c-4.4,5.1-7.3,11.1-10,17.2c-6.8,16-9.8,32.7-11.3,49.9c-3.2,36-3.9,72.1-3.8,108.2c0,6.4,1,12.6,1.5,18.9c0,1.2-0.4,2.3-0.8,3.4
		c-2.7,7.9-0.1,14.7,7.2,18.9c2.1,1.2,4.3,2.5,5.4-1.2c0.2-0.7,0.7-1.5,1.3-1.4c5.7,1,6.6-4.6,9.6-7.2c2.8-2.4,4.6-5.7,2.7-9.8
		c-0.6-1.3-0.5-2.9-0.5-4.4c1.4-9.4,10.3-35.4,13.8-38.7c-0.1,8.7,0.3,16.7-0.3,24.6c-0.4,16-0.8,31.9-1.1,47.9
		c-0.7,32.4-3,64.8-4.8,97.2c-0.5,10-1.1,19.9-1.6,29.9c-27.4-12.7-51.4-30-71.6-52.4c-29.3-32.5-47.7-70.5-53.7-113.8
		c-8.8-64.4,7.4-122.1,49.3-172c27.6-32.9,62.4-55.1,103.3-67.8c4.1,0.4,5.4,1.8,4,5c-1.6,3.7-2.2,6.9,0.6,10.2
		c0.7,0.8,0.8,1.9,0.1,2.7c-5.1,5.4-3.2,11.8-2.8,18C252.9,231.4,253,232.1,252.6,232.7z"/>
	<path class="st2" d="M252.6,232.7c-3.2-6-2.6-15.1,1.7-19.8c1.6-1.8,0.1-2.1-0.6-3c-2.3-3-2.7-6.3-0.4-9.2c2.9-3.7,0.7-4.8-2.4-5.8
		c1.8-6.7,3.9-13.3,4.2-20.3c0-0.6,0.2-1.4,0.6-1.9c5.1-5,6.9-12.5,12.9-16.9c3.1-2.3,6.8-0.9,10.1-2.6c6-3,12.8-4.7,19.5-4
		c4.4,0.5,8.6,3,12.9,4.6c0.6,0.2,1.2,1,1.7,1c8.3-0.5,10.4,6.6,14.3,11.5c0.9,1.2,1.9,2.4,3,3.3c1.1,0.9,2.6,1.9,2.3,3
		c-1.2,5.2,3.2,9.4,2.4,14.5c1.4,3.4,2,6.7-1.1,9.6c-1.2,1.1-0.6,2,0.2,2.9c2.9,3.4,2.6,6.9,0.1,10.4c-0.6,0.8-1.5,1.6-0.4,2.5
		c6.5,5.4,2.3,12,2.2,18.2c-2.5,4.4-6.3,5.2-11.2,5.3c-4.4,0.1-8.8,0.5-13.1-0.6c-1.8-1.3-1.9-3.2-2-5.1c-0.3-3.6,2.6-6.1,3.1-9.4
		c1.6-5.2,2-10.5,2.7-15.9c0.8-6.6-1.4-12.3-1.7-18.5c-0.4-9.5-12.7-18.5-22-17.1c-11,1.7-14.7,8.1-18,17.9
		c-2.6,7.6-1.3,15-1.9,22.5c-0.3,3.6,1.8,6.7,2.7,10.1c0.6,2.7,2.5,5,2.7,7.9c0.1,1.8,0.4,3.6-1.3,5c-2.9,3.2-6.1,5.3-10.5,3
		c-1.9-1-3.5,0.3-5.3,0.2C257,236,254.6,235,252.6,232.7z"/>
	<path class="st3" d="M257.9,629c10.6-2.5,21.4-3.8,32.3-2.9c-0.1,1-0.1,2-0.2,3c-1,7.4-1.1,14-9.3,19.4c-8.5,5.6-16.7,8-26.1,8.6
		c-1.8,0.1-3.6-0.2-5.3-0.9c-6-2.5-6.9-7-2.3-11.5C251.7,640.2,255.7,635.2,257.9,629z"/>
	<path class="st3" d="M296,625.8c5.3-1.7,10.7-0.8,16-0.4c7.2,0.5,14.2,2.7,21.3,3.7c2.5,6.1,6.4,11.2,11.1,15.7
		c4.6,4.5,3.6,9.8-2.7,11.1c-10.6,2-20.7,0.7-29-7.2c-0.6-0.6-1.2-1.4-1.9-1.6c-8.7-2.1-8.4-9.2-8.7-15.7
		C301.9,626.9,300.7,624.8,296,625.8z"/>
	<path class="st4" d="M192,442.4c-1.5-4.1-1.6-8.5-1.7-12.8c-0.6-26.5-0.3-53,0.9-79.4c0.9-19.1,1.8-38.3,5.1-57.1
		c2.7-15.8,8-30.9,17.2-44.3c0.9-1.4,2-2.6,3.2-3.8c7-7.1,12.9-7.9,21.3-2.8c0.3,13.3-0.9,26.5-1.2,39.8
		c-0.4,16.6-1.2,33.1-1.9,49.7c-0.7,17.4-1.1,34.8-2.1,52.2c-0.7,12.3-0.2,24.6-0.8,36.8c-0.1,1.8,0.6,3.7-0.8,5.3
		c0-7.6,0-15.3,0-22.9c-4.6,12.4-9.2,24.8-12.3,37.7c-1.8,6.7-5.7,10.1-11.9,10.5C200.2,451.6,194.2,448.2,192,442.4z"/>
	<path class="st4" d="M353,241.9c8.3-5.3,13.8-4.7,20.8,2.2c7.8,7.7,11.6,17.7,15.2,27.7c3.9,10.6,6.7,21.5,7.2,32.9
		c-5,4.9-9,10.8-14.5,15.3c-3.9,2.6-5.2,6.4-5.5,10.9c-0.5,6.5,1.1,12.6,1.9,18.9c-1.3,4.3,0.4,8.6,0.3,12.9
		c-0.4,21.6-0.4,43.3-2.1,64.8c-0.3,3.7,0.1,8.2-4.3,10.4c-3.9-12-7.7-24-11.9-36.9c-0.2,3-0.3,4.9-0.4,6.9
		c-0.8-0.8-0.8-1.8-0.8-2.8c-0.1-12.6-0.4-25.2-0.8-37.8c-0.6-21.9-1.9-43.7-2.4-65.5c-0.3-16.5-1.8-33-1.8-49.6
		C354,248.7,352.4,245.4,353,241.9z"/>
	<path class="st5" d="M310.9,230c0.3,1.8,0.5,3.5,0.8,5.3c-6.4,6.4-13.1,12.5-16.1,21.9c-3.1-9.5-9.5-16-16.6-21.9
		c-0.1-1.5-0.5-3.1,0.4-4.5c1.6-2,3.3-1.1,4.9-0.1c7.9,4.7,15.2,3.9,21.9-2.3c1-0.9,2-1.8,3.5-1.7C311.1,227.5,310,229.1,310.9,230z
		"/>
	<path class="st6" d="M280.4,230.8c-0.5,1.5-0.9,3-1.4,4.6c-1.1-0.9-2.1-1.7-3.2-2.6c1.6-4.9-2.3-8.7-2.8-13.2
		C277.6,222,280.3,225.6,280.4,230.8z"/>
	<path class="st0" d="M372.1,437.9c3.6-6.1,3.7-13.2,3.7-19.7c-0.1-18.1,1.6-36.1,1.2-54.2c-0.1-3.8-0.7-7.6-0.9-11.3
		c-0.1-1.6-0.3-3.5,2.1-3.8c1-0.5,1.9-0.3,2.9,0c5,1.6,8.4-0.6,11.3-4.5c1.8-2.4,2.3-6.4,6.6-6.2c2.3,32,2.3,64.1,1.9,96.2
		c-0.1,9.1-5.9,15.2-14.6,15.7C378.4,450.5,373.2,446.1,372.1,437.9z"/>
	<path class="st7" d="M382,318.4c5.2-4.1,7.5-11.2,14.2-13.7c3.6-1.2,7.2,0.1,10.8,0.1c1.9-0.5,3.5,0.1,4.6,1.7c2.4,1.8,5,3.5,1,6.4
		c-1.7,1.2,0,1.9,0.8,2.6c2.3,2.1,2.4,4.3-0.1,6.3c-2.3,1.9,1.6,6.2-2.8,7.2c0.1,5.9-5.3,5.2-8.5,7c-0.9,0.5-1.9,0.6-2.8,0.9
		c-8.2,3-14.6,0.6-18.3-6.9C379,326,379.3,322.1,382,318.4z"/>
	<path class="st3" d="M411.8,306.6c-1.5-0.6-3.1-1.1-4.6-1.7c2.3-5.7,4.3-11.6,7.1-17c2.2-4.3,1.3-6.7-2.2-9.7
		c-5.4-4.6-5.2-6.4-0.1-11.6c2.8-2.9,5.5-3.4,8.6-0.5c4.3,4,8.6,7.9,13,11.7c3.2,2.8,4,5.3,0.7,8.8c-5.1,5.3-6.4,5.8-10.6,2.4
		c-1-0.8-2-1.7-3.5-2.9C417.3,293.1,414.5,299.8,411.8,306.6z"/>
	<path class="st8" d="M382,318.4c-0.1,3.4-1.9,6.6-0.3,10.2c2.5,5.6,6.5,8.5,12.7,8.3c1.7-0.1,3.3,0.1,5,0.1
		c-0.1,0.4-0.3,0.8-0.4,1.2c-2.5,1.5-3.7,4.1-5.3,6.4c-4.3,6.6-8.1,7.7-15.5,4.3c-5.1-7.5-3.9-15.7-2.3-23.8
		C376.5,321.8,379.2,319.9,382,318.4z"/>
	<path class="st9" d="M192,442.4c2.6,3.4,5.8,5.7,9.9,7c7,2.2,12.4-0.6,17-8.8c0.1,1.2,0.1,2.4,0.4,3.5c1.4,5.1-0.1,9.7-4.4,12.5
		c-0.5,0.3-1.5,0.7-1.5,1c0.2,4.5-1.9,5.6-5.9,4.3c-1-0.3-1.6,0.1-1.7,1.6c-0.3,4.2-3,3.6-5.7,2.4
		C190.3,461.3,187.4,452.9,192,442.4z"/>
	<path class="st10" d="M280.4,230.8c-1.2-4.6-5-7.4-7.4-11.2c-1.8-4.8-2.1-9.6-2.5-14.7c-0.5-6.1,0.7-11.2,2-16.9
		c3.1-13.8,7.6-18.7,20.6-20c4.1-0.4,10,0.1,14.2,4.9c4.6,5.2,7.7,10.3,7.8,17.2c0,1.1,0.4,2.3,0.9,3.3c1.5,3.1,2.3,5.8,0.3,9.4
		c-1.8,3.2,2.1,6.9,0,11c-1,2.1-1.7,4.9-2.5,7.4c-1.1,2.2-1.8,4.5-4.1,5.8c-4.6,4.3-9.1,8.6-16.3,8.1c-3.4-0.3-6.4-1-9.3-2.8
		C283.2,231.5,282.2,229.6,280.4,230.8z"/>
	<path class="st11" d="M309.8,226.9c1.4-1.9,2.7-3.9,4.1-5.8c0.4,3.5-3.6,5.4-3,8.9C309.9,229.2,310.1,228,309.8,226.9z"/>
</g>
</svg>
