<?xml version="1.0" encoding="utf-8"?>
<!-- Generator: Adobe Illustrator 19.0.0, SVG Export Plug-In . SVG Version: 6.00 Build 0)  -->
<svg version="1.1" id="Calque_1" xmlns="http://www.w3.org/2000/svg" xmlns:xlink="http://www.w3.org/1999/xlink" x="0px" y="0px"
	 viewBox="0 0 612 792" style="enable-background:new 0 0 612 792;" xml:space="preserve">
<style type="text/css">
	.st0{fill:#475059;}
	.st1{fill:#59626A;}
	.st2{fill:#48515A;}
	.st3{fill:#4B535C;}
	.st4{fill:#FDD05C;}
	.st5{fill:#4D565E;}
	.st6{fill:#F38F72;}
	.st7{fill:#F28E71;}
	.st8{fill:#F08E71;}
	.st9{fill:#485059;}
	.st10{fill:#FCFCFD;}
	.st11{fill:#DBDBDA;}
	.st12{fill:#FDFDFD;}
	.st13{fill:#DCDCDB;}
	.st14{fill:#FCFCFC;}
	.st15{fill:#DBDBDB;}
	.st16{fill:#F38D6F;}
	.st17{fill:#FCFBFB;}
	.st18{fill:#FAFAFA;}
	.st19{fill:#F6F6F7;}
	.st20{fill:#F18C6F;}
	.st21{fill:#ED8B6F;}
	.st22{fill:#E7896D;}
	.st23{fill:#F2F2F2;}
	.st24{fill:#F2F3F3;}
	.st25{fill:#D8D8D7;}
	.st26{fill:#FBFBFB;}
	.st27{fill:#DDDDDC;}
	.st28{fill:#D8D8D8;}
	.st29{fill:#686F76;}
	.st30{fill:#575E66;}
	.st31{fill:#8C9197;}
	.st32{fill:#F4F5F5;}
	.st33{fill:#4D555E;}
	.st34{fill:#4A525B;}
	.st35{fill:#4C555E;}
	.st36{fill:#575F67;}
	.st37{fill:#474F59;}
</style>
<g>
	<path class="st0" d="M347,602.8c0.9-4.3-0.7-5.7-5.2-5.5c-8.2,0.3-10.7-2.5-10.7-10.7c0-30,0-59.9,0-89.9c0-9.1,2.1-11.2,11-11.3
		c2.6,0,5.6,0.8,5.1-3.7c-0.2-2,1.5-1.8,2.8-1.8c7,0,14,0,21,0c1.3,0,3-0.1,2.8,1.8c-0.5,4.5,2.7,3.6,5.2,3.6
		c7.9,0.2,9,0.9,10.9,8.6c0.9,3.6,3.4,1.5,5.2,1.9c3.7,0.8,6.1-0.2,5.3-4.8c-0.3-1.5-0.1-3,2.1-3.1c2.2-0.2,3.5,0.4,3.6,2.8
		c1.4,1.6,1.5,3.6,1.5,5.6c0,31.4,0.2,62.8-0.1,94.2c-0.2,2.6-0.8,5-4.1,5.2c-3.2,0.2-4.4-1.7-4.8-4.5c-0.3-1.9-1.4-2.9-3.4-3
		c-1.8-0.1-3.3,0.5-3.9,2.4c-1.9,5.9-6.3,8.3-12.2,8.5c-2.6,0.1-3.7,2-5,3.6C365,602.8,356,602.8,347,602.8z"/>
	<path class="st0" d="M485.6,490.7c0-2.3,1-3.1,3.4-3c2.7,0.1,2.2,1.8,2.3,3.4c0.2,2-1.2,5.3,2.9,4.7c2.9-0.5,7.5,2.7,7.9-4
		c0.3-5.1,4.4-6.4,9.1-6.4c2.9,0,7.1,1.5,6.8-4.2c-0.1-1.5,1.7-1.2,2.8-1.2c6.8,0,13.6,0,20.5,0c1.6,0,3.2,0,3,2.2
		c-0.4,3.7,2.1,3.3,4.5,3.4c9.9,0.1,11.5,1.7,11.5,11.7c0,29.6,0,59.3,0,88.9c0,9.1-2,11.5-11.1,11.2c-4.6-0.2-5.2,2.1-5.1,5.5
		c-8.7,0-17.3,0-26,0c-1.5-2.4-3.6-3.5-6.5-3.8c-5.1-0.4-9.5-2.2-10.8-7.9c-0.5-2.2-2.1-2.8-4.1-2.8c-2.3,0-3.8,0.9-4.2,3.3
		c-0.4,2.3-1.2,4.3-4,4.1c-3.2-0.1-3.5-2.5-3.8-4.9c-0.4-31.8-0.1-63.5-0.1-95.2C484.4,493.8,484.7,492.2,485.6,490.7z"/>
	<path class="st1" d="M408,122.8c0,0.3,0,0.7,0.1,1c-2.7,2.2-6,1.6-9.1,1.6c-46.5,0-92.9,0-139.4,0c-46,0-91.9,0-137.9,0
		c-3.1,0-6.4,0.8-9-1.8c0-0.3,0.2-0.6,0.3-0.8C211.4,122.8,309.7,122.8,408,122.8z"/>
	<path class="st2" d="M571,428.8c-2.8,0.1-5.6,0.2-8.4,0.3c-2.1,0.1-2.3-1.2-2.4-2.9c0-1.7,0.6-2.4,2.3-2.4c2.8,0.1,5.6,0,8.5,0
		C571,425.5,571,427.1,571,428.8z"/>
	<path class="st3" d="M59,530.8c2.7,0,5.3,0,8-0.1c1.7,0,2.9,0.1,2.9,2.3c0,2.1-0.7,3-2.9,2.9c-2.6-0.1-5.3-0.1-8-0.2
		C59,534.1,59,532.5,59,530.8z"/>
	<path class="st0" d="M112.7,123.6c3,0.1,6,0.2,9,0.2c95.5,0,190.9,0,286.4,0c0.1,4.3,0.5,8.7,0.2,13c-0.3,4,1,5,5,5
		c33.7-0.2,67.3-0.1,101-0.1c2.5,0,5-0.2,7.4,0.9c6.5,2.7,10.4,9.3,9.3,16c-1.2,7.2-7.1,12.2-14.8,12.3c-31.2,0.1-62.3,0-93.5,0.1
		c-4.6,0-10.5-2-13.4,1c-2.7,2.7-0.8,8.6-0.8,13c0,85.6,0,171.3,0,256.9c0,11.9,0,11.9-11.9,11.9c-92.6,0-185.3,0-277.9,0
		c-14.2,0-24.9,8.2-28.7,21.6c-5,18.1,8.7,36.4,27.6,36.4c63.5,0.1,127,0,190.5,0c4.7,0,9.3,0,14,0c2,0,4.3-0.8,4.3,2.9
		c0,3.6-2.2,3-4.3,3c-32.8,0-65.6,0-98.5,0c-34.7,0-69.3,0.1-104-0.1C98,517.6,83,502.6,83,481.2c0-107.3,0.1-214.6,0.1-321.9
		C83.2,140.3,95.7,125.4,112.7,123.6z"/>
	<path class="st4" d="M485.6,591.9c-26.5,0-53,0-79.5,0c-0.1-31.2-0.1-62.4-0.2-93.7c0-2.5,0.1-5,0.2-7.5c4.3-0.1,8.6-0.1,13-0.2
		c1.6-1.3,3.5-1.2,5.4-1.3c7.2-0.2,14.3-0.2,21.5,0c6.6-0.2,13.2-0.1,19.8,0c2.4,0.5,4.5-0.6,6.7-1.1c0.4,1.8,1.2,2.8,3.3,2.6
		c3.3-0.2,6.5-0.1,9.8-0.1c0.1,27.3,0.2,54.5,0.3,81.7C485.8,579,485.7,585.4,485.6,591.9z"/>
	<path class="st0" d="M424.3,490.7c-1.7,0-3.5,0-5.2,0c0-3.7,0-7.3,0-11c0-2.7-0.6-5.5,3.8-5c1.7,0.2,1.5-1.4,1.5-2.5
		c0-7.2,0-14.3,0-21.5c0-1.4-0.2-2.9-2.1-2.6c-3.3,0.4-3.3-1.6-3.2-4c0.1-3.8,0-7.7,0.1-11.5c0-3-1.1-6.7,4.3-5.9
		c1.6,0.2,1.5-1.4,1.7-2.5c2.2-16.5,5.2-32.8,4.9-49.6c-0.5-34.5-0.2-68.9-0.1-103.4c0-10.7,6.4-17.6,16.1-17.6
		c9.4,0,15.9,7.2,15.9,17.9c0,37.1,0.2,74.3-0.1,111.4c-0.1,13.9,3.2,27.4,4.6,41.1c0.2,1.5,0.5,3.1,2.6,2.8
		c3.2-0.5,3.5,1.3,3.4,3.8c-0.2,4.2-0.1,8.3-0.1,12.5c0,2.7,0.5,5.5-3.8,5c-1.7-0.2-1.5,1.4-1.5,2.6c0,7.2,0,14.3,0,21.5
		c0,1.1-0.2,2.7,1.5,2.5c4.5-0.6,3.7,2.5,3.7,5c0,2.8,0.1,5.7,0.1,8.5c-0.4,4-3.3,2.3-5.5,2.4c-2.3-2.4-0.5-5.9-2.4-8.4
		c-1.3-1.4-3.1-1.1-4.7-1.1c-9.1-0.1-18.3,0.1-27.4,0.1c-6.2,0-6.2,0.1-7.1,6.1C425.3,488.6,425.1,489.7,424.3,490.7z"/>
	<path class="st0" d="M258.2,458.8c46.7,0,93.3,0,140,0.1c1.8,0,5.1-1.8,5,2.5c-0.1,4.2-3.3,2.5-5.1,2.5c-91,0.1-182,0-273,0.1
		c-3.7,0-7.3-0.3-11,0.5c-9,2-15.1,9.6-14.8,18.7c0.2,8.9,6.5,16.2,15.3,17.7c2,0.3,4,0.4,6,0.4c66.2,0,132.3,0,198.5,0
		c1.2,0,2.3,0,3.5,0c1.9,0,3.6-0.2,3.6,2.7c0,2.9-1.7,2.7-3.5,2.7c-16,0-32,0-48,0c-52.2,0-104.3,0-156.5-0.1
		c-11.9,0-21.7-8.2-23.8-19.6c-2.1-11.2,4.1-22.4,14.7-26.7c3.1-1.3,6.4-1.7,9.8-1.7C165.2,458.8,211.7,458.8,258.2,458.8z"/>
	<path class="st0" d="M257.3,469.4c44.7,0,89.3,0,134,0c1.7,0,3.3-0.1,5,0c1.8,0.1,4.1-0.8,4.2,2.6c0.1,3.4-2.2,2.7-4,2.7
		c-10.3,0-20.7,0-31,0c-81.8,0-163.6,0-245.4,0c-6.6,0-9.9,2.6-10,7.8c-0.1,5.3,3.5,8.2,10.2,8.2c66.3,0,132.6,0,198.9,0
		c1.2,0,2.3,0,3.5,0c1.9-0.1,3.5-0.2,3.5,2.7c0,3-1.9,2.5-3.7,2.5c-18.2,0-36.3,0-54.5,0c-49.5,0-99,0-148.4,0
		c-8.3,0-13.5-3.9-14.6-10.6c-1.5-8.9,4.1-15.7,13.4-15.8c17.7-0.1,35.3-0.1,53-0.1C200,469.4,228.6,469.4,257.3,469.4z"/>
	<path class="st5" d="M221.9,479.9c33.1,0,66.3,0,99.4,0.1c1.8,0,4.5-1.4,4.8,2.4c0.2,3.5-1.9,3.1-4.1,3.1c-22.3,0-44.6,0-66.9,0
		c-44,0-87.9,0-131.9-0.1c-1.7,0-3.8,1-5-1c-1.5-2.5,0.2-4.6,3.9-4.6c27.6,0,55.3,0,82.9,0C210.6,479.9,216.3,479.9,221.9,479.9z"/>
	<path class="st6" d="M261.8,549.5c0-3.7,2.1-5.5,5.3-5.4c2.9,0.1,4.9,1.9,5,5.1c0.1,3.4-1.9,5.4-5.1,5.5
		C263.8,554.7,261.8,552.7,261.8,549.5z"/>
	<path class="st7" d="M544.2,267.1c-0.3,3.2-2,4.9-5.2,4.8c-3.4,0-5.3-1.9-5.1-5.3c0.2-3.4,2.3-5.1,5.6-4.9
		C542.8,261.9,544.1,264,544.2,267.1z"/>
	<path class="st8" d="M501.9,352.1c0.1-3.4,2-5.3,5.3-5.2c2.9,0.1,4.9,1.6,5,4.9c0.1,3.5-1.9,5.4-5,5.5
		C504,357.5,502,355.5,501.9,352.1z"/>
	<path class="st3" d="M555.3,413c-1.3,1.7,1.9,5.5-2.7,5.5c-4.8,0-2.5-3.7-2.7-5.8c-0.1-1.8-1.7-4.9,2.4-5
		C557.1,407.6,554.1,411.3,555.3,413z"/>
	<path class="st9" d="M80.2,520.3c0,1.2,0.1,2.3,0,3.5c-0.2,1.9-1.7,1.6-3,1.7c-1.4,0.1-2.2-0.5-2.2-2c0-1.7,0-3.3,0-5
		c0-1.9-0.6-4,2.7-3.9c3,0.1,2.4,2,2.5,3.7C80.3,519,80.3,519.7,80.2,520.3C80.3,520.3,80.3,520.3,80.2,520.3z"/>
	<path class="st2" d="M549.7,439.6c0.6-2.1-1.3-5.3,2.9-5c4.5,0.3,2,3.7,2.3,5.7c0.2,1.8,1.6,5.1-2.6,4.8
		C547.7,444.7,550.9,441.2,549.7,439.6z"/>
	<path class="st2" d="M538.9,429.2c-1.7-1-5,1.6-5.1-2.6c-0.1-4.6,3.4-2.7,5.3-2.7c1.8,0,5-1.9,5.2,2.3
		C544.5,430.8,540.9,428.3,538.9,429.2z"/>
	<path class="st9" d="M91,536.2c-2.2-0.8-5.5,1.3-5.3-2.9c0.2-4.2,3.4-2.4,5.1-2.4c1.9,0,5.5-2,5.3,2.6
		C96.1,538.2,92.2,534.6,91,536.2z"/>
	<path class="st9" d="M74.9,546.5c0.7-2-1.3-5.3,2.9-5.1c4.5,0.3,2.1,3.7,2.3,5.7c0.2,1.8,1.6,5.1-2.7,4.8
		C72.8,551.7,76.1,548,74.9,546.5z"/>
	<path class="st10" d="M368.1,541.3c0,17.5-0.1,34.9,0.1,52.4c0,2.9-0.7,3.6-3.5,3.7c-12.2,0.4-12.3,0.5-12.3-11.5
		c-0.1-30.5-0.1-60.9,0-91.4c0-9.1,0.1-9.1,9.1-9.1c6.6,0,6.7,0,6.8,6.4c0.1,16.5,0,33,0,49.4C368.3,541.3,368.2,541.3,368.1,541.3z
		"/>
	<path class="st11" d="M347.1,541.8c0,14.6,0,29.3,0,43.9c0,3.1,1.1,6.5-4.6,6.3c-4.9-0.2-6.2-1.6-6.2-6.3c0.2-26,0.1-51.9,0.1-77.9
		c0-4.3,0-8.7,0-13c0-5.6,4.2-3.7,7.2-4.2c3.5-0.5,3.6,1.6,3.6,4.2C347,510.5,347.1,526.2,347.1,541.8
		C347.1,541.8,347.1,541.8,347.1,541.8z"/>
	<path class="st12" d="M373.9,541.2c0-15.5,0.1-30.9-0.1-46.4c0-3.3,0.9-4.5,4.2-4.1c3,0.3,6.5-1,6.4,4.3c-0.1,30.8-0.1,61.5,0,92.3
		c0,5-2.9,4.4-6.2,4.6c-3.5,0.2-4.5-0.8-4.4-4.4C374,572.2,373.9,556.7,373.9,541.2C373.9,541.2,373.9,541.2,373.9,541.2z"/>
	<path class="st13" d="M400.3,541.3c0,12-0.2,24,0.1,36c0.1,5-3,4-5.8,4.2c-3.1,0.2-4.8-0.1-4.8-4.1c0.2-24,0.2-48,0-71.9
		c0-3.6,1.5-4.3,4.4-3.9c2.6,0.3,6.2-1.5,6.1,3.8C400.2,517.3,400.3,529.3,400.3,541.3z"/>
	<path class="st12" d="M539,541.3c0,17.3-0.1,34.7,0.1,52c0,3.3-1,4.2-4.2,4.2c-11.9,0-11.9,0.2-11.9-11.9c0-31.8,0.1-63.7-0.1-95.5
		c0-3.8,1-4.7,4.7-4.7c11.4,0.2,11.4,0,11.4,11.4C539,511.6,539,526.5,539,541.3z"/>
	<path class="st14" d="M544.3,541.2c0-15.3,0.1-30.7-0.1-46c0-3.4,0.6-4.9,4.3-4.5c3.2,0.3,6.6-0.8,6.6,4.7c-0.2,30.5-0.2,61,0,91.5
		c0,5.8-3.4,4.7-6.8,5c-4.1,0.4-4.1-1.8-4.1-4.8C544.3,571.9,544.3,556.5,544.3,541.2C544.3,541.2,544.3,541.2,544.3,541.2z"/>
	<path class="st15" d="M517.8,541.4c0,15.3-0.1,30.6,0.1,46c0,3.3-0.5,5-4.3,4.6c-3.2-0.4-6.7,0.8-6.7-4.7c0.2-30.6,0.2-61.3,0-91.9
		c0-5.6,3.6-4.2,6.8-4.6c4-0.5,4.2,1.6,4.2,4.7C517.8,510.7,517.8,526.1,517.8,541.4C517.8,541.4,517.8,541.4,517.8,541.4z"/>
	<path class="st11" d="M491,541.4c0-12,0.1-23.9-0.1-35.9c-0.1-3.5,1.4-4.5,4.3-3.9c2.6,0.5,6.6-2,6.6,3.8
		c-0.2,23.9-0.2,47.9,0,71.8c0.1,5.5-3.4,4-6.3,4.3c-3.2,0.3-4.8-0.3-4.7-4.2C491.2,565.3,491,553.4,491,541.4z"/>
	<path class="st16" d="M398,141.5c-21.3,0.1-42.6,0.2-63.9,0.2c-4,0-7.4,0.8-10.7,3.1c-5.7,3.9-11.7,7.4-18.2,11.5
		c8.2,4.9,15.6,9.3,23,13.8c1.9,1.1,3.9,0.8,5.8,0.8c21.3,0.1,42.6,0.1,63.9,0.2c2.4,2.7,1.7,6,1.7,9.1c0,53.3,0,106.6,0,159.9
		c0,30.5,0,61,0,91.5c0,1.5,0,3,0,4.5c-0.1,7.3-1.2,8.4-8.5,8.5c-86,0-171.9,0-257.9,0c-8.1,0-8.9-1-8.9-10c0-88.1,0-176.3,0-264.4
		c0-9.3,0-18.7,0-28c0-9.1,0.8-9.9,10.1-9.9c39.7,0,79.3,0,119,0c44.5,0,89,0,133.5,0c2,0,4-0.1,6,0.1
		C399.3,132.6,400.9,135.6,398,141.5z"/>
	<path class="st17" d="M398,141.5c-0.2-7.7-0.2-7.8-8.2-7.8c-86.5,0-173,0-259.5-0.1c-3.5,0-4.5,0.9-4.5,4.5
		c0.1,99.6,0.1,199.3-0.1,298.9c0,5,1.5,5.9,6.2,5.9c86.8-0.1,173.6-0.1,260.5,0c4.4,0,5.5-1,5.5-5.5c-0.1-87-0.1-174-0.1-261
		c0-1.8,0-3.7,0.1-5.5c4.2-1.1,5.2,0.7,5.2,4.8c-0.1,89-0.1,178,0,267c0,4.2-1.1,5.1-5.2,5.1c-93.3-0.1-186.7-0.1-280-0.1
		c-11.7,0-21.1,5.2-28.4,14.4c-1.7-1.1-0.9-2.7-0.9-4c0-99.2-0.1-198.3,0-297.5c0-20.9,11.6-32.5,32.5-32.5c92.3,0,184.7,0,277-0.1
		c3.9,0,5.5,1,4.9,4.9c-0.2,1.3-0.2,2.7,0,4C403.7,141.3,401.7,142.3,398,141.5z"/>
	<path class="st18" d="M452,165.6c-13,0-26,0-39,0c-2.6,0-4.8,0.3-4.8-3.6c0-3.8,2.1-3.4,4.5-3.4c26.2,0,52.3,0,78.5,0
		c2.3,0,4.6-0.6,4.6,3.3c0,3.9-2.1,3.7-4.8,3.7C478,165.6,465,165.7,452,165.6z"/>
	<path class="st19" d="M452,146.8c13.2,0,26.3,0,39.5,0c2.2,0,4.3-0.4,4.3,3.1c0,3.2-1.5,3.4-4,3.4c-26-0.1-52,0-78,0
		c-1.7,0-4,0.8-5-1.1c-0.6-1.2-0.6-3-0.2-4.4c0.5-1.7,2.2-1,3.5-1C425.4,146.8,438.7,146.8,452,146.8z"/>
	<path class="st20" d="M398,165.5c-20.8,0.1-41.6,0.1-62.4,0.2c-2.9,0-3.7-1-3.7-3.8c0-2.8,1.2-3.3,3.6-3.3
		c20.8,0.1,41.6,0.1,62.4,0.2C399.7,161,399.8,163.2,398,165.5z"/>
	<path class="st21" d="M402.7,153.1c-6.8,1.4-13.5,0-20.3,0.2c-15.3,0.5-30.6,0.2-45.9,0.2c-2.4,0-4.6,0.4-4.6-3.4
		c0-3.8,2.2-3.4,4.6-3.3c20.5,0.1,41,0.1,61.5,0.1C399.2,149.3,400.6,151.5,402.7,153.1z"/>
	<path class="st14" d="M501,156.1c-0.1-9.3-0.1-9.3,9.4-9.3c2.2,0,4.3-0.1,6.5,0.1c4.8,0.4,8.4,4.1,8.8,8.7c0.4,4.7-2.5,8.9-7.6,9.6
		c-4.9,0.6-10,0.3-15,0.5c-1.8,0.1-2.2-1-2.2-2.5C501,160.8,501,158.4,501,156.1z"/>
	<path class="st22" d="M327.1,162.6c-4.5-1.8-7.7-4-11.2-6.3c3.3-2.6,7.7-7,9.8-5.7C328.8,152.6,326.2,158,327.1,162.6z"/>
	<path class="st23" d="M398,165.5c0-2.2,0-4.4-0.1-6.6c2.5-0.2,5.3-1.3,5.3,3.3C403.2,166.8,400.6,165.7,398,165.5z"/>
	<path class="st24" d="M402.7,153.1c-5.3,0.8-5.2-2.6-4.8-6.2C403.5,146.7,403.5,146.7,402.7,153.1z"/>
	<path class="st25" d="M424.3,490.7c0-10.7,0-10.7,10.7-10.7c9.8,0,19.6,0,29.4,0c0.9,0,2-0.5,2.5,0.9c-3.4,2.5-7.4,1.3-11.1,1.4
		c-7,0.2-7,0.1-8.7,6.7c-0.2,0.7-0.5,1.2-1,1.7C438.9,490.6,431.6,490.6,424.3,490.7z"/>
	<path class="st26" d="M446.1,490.6c-0.2-12.1-1.2-9.5,9.4-9.7c3.8-0.1,7.6,0,11.4,0c0,3.3,0.1,6.5,0.1,9.8
		C460,490.6,453.1,490.6,446.1,490.6z"/>
	<path class="st13" d="M446.1,426.6c-4.3,0-8.6,0.1-13,0.1c-1.6,0-2.9,0.1-2.5-2.3c8.5-50.9,2.8-102.3,4.5-153.5
		c0.2-7.5,3.6-11.3,11-12c1.8,1.9,1.6,4.3,1.6,6.6c0,51.5,0,102.9,0,154.4C447.6,422.3,447.9,424.7,446.1,426.6z"/>
	<path class="st12" d="M446.1,426.6c0-55.9,0-111.8,0-167.6c7.4,1.1,10.2,4.5,10.2,12.6c0,29.8,0.3,59.7-0.1,89.5
		c-0.3,20.7,0.8,41.3,4.5,61.6c0.5,2.7,0.4,4.4-3.2,4.1C453.8,426.5,449.9,426.7,446.1,426.6z"/>
	<path class="st27" d="M447,474.6c-5.5,0.2-12.5,2.3-16-0.7c-3.6-3.1-1-10.3-1.1-15.7c-0.2-10.2,0-10.2,10-10.3
		c6.2,0,12.3,0,18.5-0.1c2.5-0.1,3.6,0.6,3.6,3.3c-0.1,7.2,0,14.3-0.1,21.5c0,0.8,0.1,1.7-1,2c-1.9-2.1-1.4-4.7-1.4-7.1
		c-0.1-3.5,0-7,0-10.5c-0.1-6.3-0.6-6.7-6.9-6.7c-4,0-5.1,1.8-5.1,5.5C447.4,462,448.2,468.3,447,474.6z"/>
	<path class="st26" d="M447,474.6c-2.3-7.8-0.5-15.8-0.9-23.7c-0.1-1.1,0.6-1.9,1.8-2c3.7-0.1,7.3-0.1,11,0c2.5,0.1,2.1,2.1,2.1,3.7
		c0,7.3,0,14.6,0,22C456.3,474.6,451.7,474.6,447,474.6z"/>
	<path class="st28" d="M446.1,442.6c-6.1,0-12.3,0-18.4,0.2c-5.6,0.2-2.9-4-3.3-6.4c-0.3-2.1-0.9-4.4,3.2-4.3
		c12.2,0.3,24.5-0.1,36.7-0.2c0.9,0,2-0.5,2.4,0.9c-3.4,2.5-7.4,1.3-11.1,1.4c-6.9,0.2-6.9,0.1-8.7,6.7
		C446.9,441.6,446.5,442.1,446.1,442.6z"/>
	<path class="st14" d="M446.1,442.6c-0.2-9.8-0.2-9.8,9.4-9.8c3.8,0,7.6,0,11.4,0c0.6,9.8,0.6,9.9-9.3,9.9
		C453.7,442.8,449.9,442.7,446.1,442.6z"/>
	<path class="st12" d="M258.9,407.9c-64.6,0.4-120-52.2-119.6-120.3c0.5-67.3,53.9-119.9,120.7-119.3c70.1,0.6,121.5,58.1,119,124.5
		C376.6,357.2,323.6,408.4,258.9,407.9z"/>
	<path class="st16" d="M94,450.2c0-7.7,0-14.6,0-21.5c0-90.1,0-180.2,0.1-270.3c0-12.7,8.2-22.7,19.9-24.4c6-0.9,6.3-0.7,6.3,5.4
		c0,99.8,0,199.5,0.1,299.3c0,3.2-0.8,4.4-4.1,4.3C108.3,442.7,101.4,446,94,450.2z"/>
	<path class="st0" d="M247,221.6c-3.9-5.6-7.3-10.4-10.9-15.6c15.8,0,31.1,0,47.2,0c-3.5,5.1-6.9,9.9-10.2,14.7
		c1.2,1.6,2.6,0.9,3.8,0.9c10.7,0.1,21.3,0.1,32,0c2.9,0,5.7-0.2,7.5,2.6c0.6,0.9,1.7,1.5,2.5,0.4c3.3-4.5,8.1-2.6,12.4-3
		c2.3-0.2,2.8,0.8,2.8,2.9c0,2.2-1.2,2.4-2.8,2.3c-3.8-0.2-7.4-0.2-10.4,3.1c-2,2.2-2.3,3.9-1.5,6.5c7.9,24.5,15.6,49.1,23.6,73.5
		c2.3,7.1,0.9,14.2,1.3,21.3c0.1,2.2-1.5,2.1-3.1,2.2c-1.6,0.1-4.1-0.5-4.3,1.5c-0.5,4.7-3.6,3.7-6.4,3.7c-9,0-18,0-27,0
		c-2.2,0-4.6,0.7-4.7-3.1c-0.1-2.5-2.7-2-4.4-1.9c-2.6,0.2-3.4-0.7-3.4-3.4c0-9.5,0.5-18.7,3.7-27.9c7.6-21.6,14.2-43.6,21.3-65.4
		c1.6-4.9-2-10.2-7.1-10.3c-12.7-0.1-25.3,0-38,0c-1.4,0-2.5,0.2-3.4,1.5c-1.9,2.9-3.9,5.6-6.5,9.3c5.1,0,9.2,0,13.2,0
		c1.7,0,3.7-0.5,3.8,2.5c0.1,2.9-1.6,2.7-3.5,2.7c-10.2,0-20.3,0-30.5,0c-1.8,0-3.7,0.3-3.6-2.6c0-2.9,1.8-2.6,3.7-2.6
		c4.4,0,8.9,0,13.9,0c-3.8-6.7-6.8-12-15.9-11c-10.4,1.1-21,0.2-31.5,0.3c-6.5,0-10,4.8-8,11c7.9,24.9,15.9,49.7,23.7,74.6
		c2,6.3,0.4,12.9,0.8,19.4c0,0.3-0.1,0.7-0.2,1c-5.6-1.2-7,5.9-11.8,6c-9.8,0.2-19.7,0-29.5,0.1c-2,0-3.9,0.4-3.9-2.8
		c0-2.5-2.5-2.4-4.3-2.2c-2.9,0.3-3.6-0.9-3.6-3.6c-0.2-10,0.7-19.7,4.1-29.4c7.4-21.2,14-42.6,20.9-64c1.6-5-1.9-9.8-7.2-10
		c-1.7-0.1-3.3-0.1-5,0c-1.5,0-2-0.8-2-2.2c0.1-1.3-0.3-3.1,1.7-2.9c4.4,0.4,9.4-2.1,13,2.6c0.9,1.2,2,1.3,2.8,0
		c2.1-3.3,5.4-2.7,8.5-2.7C222.4,221.6,234.2,221.6,247,221.6z"/>
	<path class="st0" d="M259.3,258.8c5.2,0,10.3,0,15.5,0c1.8,0,3.3-0.1,3.2,2.5c0,2.2-0.7,3.1-2.9,2.8c-2.4-0.3-2.6,1.2-2.6,3.1
		c0,26.5,0,52.9,0,79.4c0,2.7-0.1,5.3-0.1,8c0,2.7-1,6,3.8,5.5c1.9-0.2,1.6,1.7,1.7,3c0.1,1.6-0.5,2.5-2.3,2.5c-11,0-22-0.1-33,0
		c-1.8,0-2.3-1-2.3-2.5c0-1.6,0.1-3.2,2.3-3c3.4,0.4,3.2-1.7,3.2-4c0-29.3,0-58.6,0-87.9c0-2.3,0.1-4.4-3.2-4.1
		c-2.2,0.2-2.3-1.3-2.3-2.9c-0.1-2.2,1.2-2.4,2.9-2.4C248.6,258.8,254,258.8,259.3,258.8C259.3,258.8,259.3,258.8,259.3,258.8z"/>
	<path class="st0" d="M259.6,376c-7.8,0-15.6,0-23.4,0c-1.8,0-3.7,0.3-3.7-2.6c-0.1-2.9,1.7-2.7,3.6-2.7c15.4,0,30.9,0,46.3,0
		c1.8,0,3.6-0.5,3.7,2.5c0,3.4-2.1,2.7-4,2.7C274.5,376,267,376,259.6,376z"/>
	<path class="st29" d="M269.7,248c2.4-0.3,3.1,0.9,3.1,2.9c0,2.1-1,2.8-3,2.9c-2.3,0.1-2.8-1-2.8-3C267,248.8,267.6,247.5,269.7,248
		z"/>
	<path class="st30" d="M251.2,251c0.3,2.3-0.9,2.7-2.9,2.7c-2.1,0-2.4-1.1-2.4-2.8c-0.1-2,0.5-3,2.7-3
		C250.8,248,251.4,249.1,251.2,251z"/>
	<path class="st0" d="M261.8,248.9c0,1.2,0,2.5,0,3.7c-2,0.7-4.2,1.8-5.1-1.1C255.7,248.8,257.3,248,261.8,248.9z"/>
	<path class="st31" d="M261.8,248.9c-1.7,0.3-4.5-1.5-4.5,1.9c0,3.4,2.9,1.6,4.5,1.8c-1.5,2.1-3.6,1.6-5,0.5c-1.3-1-1.2-3.4-0.1-4.5
		C258.1,247.3,260.2,247,261.8,248.9z"/>
	<path class="st12" d="M200.5,248.8c7,21.7,13.6,42.2,20.3,63.3c-13,0-25.5,0-37.9,0c-3.6,0-2-2.2-1.6-3.7
		c4-12.6,8.1-25.3,12.2-37.9C195.8,263.7,197.9,257,200.5,248.8z"/>
	<path class="st12" d="M317.8,248.8c4.4,13.5,8.3,25.5,12.1,37.4c2.3,7.3,4.6,14.6,7,21.8c0.9,2.6,1.4,4.2-2.6,4.1
		c-11-0.3-22-0.1-33,0c-2.8,0-3.9-0.3-2.8-3.6C305,289.1,311.1,269.6,317.8,248.8z"/>
	<path class="st26" d="M317.9,317.6c5.8,0,11.6,0.1,17.4,0c2.6-0.1,3.8,0.4,3.8,3.5c0,6.9-5.4,12.5-12.5,12.5
		c-4.8,0-9.8-0.8-14.4,0.2c-6.6,1.4-10.4-3.3-14.8-6c-2.6-1.6-1.2-5.9-0.8-8.9c0.3-2.1,2.8-1.1,4.3-1.2
		C306.6,317.5,312.3,317.6,317.9,317.6C317.9,317.6,317.9,317.6,317.9,317.6z"/>
	<path class="st26" d="M200.9,317.6c5.7,0,11.3-0.1,17,0c1.4,0,4.1-0.9,3.9,1.6c-0.2,3,1.8,6.3-1.4,9.2c-9.5,8.6-20.9,4.6-31.6,4.7
		c-3.2,0-7.7-3.6-9.3-6.7c-2.8-5.7-0.1-8.8,6.4-8.8C190.9,317.6,195.9,317.6,200.9,317.6C200.9,317.6,200.9,317.6,200.9,317.6z"/>
	<path class="st26" d="M259.7,230.3c-4.6-6.6-8.8-12.7-13.4-19.3c9.1,0,17.5,0,26.8,0C268.5,217.7,264.3,223.8,259.7,230.3z"/>
	<path class="st32" d="M251.1,311.8c0-14.3,0-28.6,0.1-43c0-1.8-1.5-4.7,2.4-4.8c4.1-0.1,2.9,3,2.9,4.9c0.1,24.3,0,48.6,0.1,72.9
		c0,5,0,10,0.1,15c0.1,2.3-0.7,3.3-3.1,3.2c-2.6,0-2.4-1.6-2.4-3.3C251.1,341.8,251.1,326.8,251.1,311.8
		C251.1,311.8,251.1,311.8,251.1,311.8z"/>
	<path class="st14" d="M267.1,312.1c0,14.7,0,29.3,0,44c0,1.8,0.8,4.1-2.7,4c-3-0.1-2.5-2.1-2.5-3.8c0-29.5,0-59,0-88.5
		c0-1.7-0.5-3.7,2.5-3.8c3.4-0.1,2.7,2.2,2.7,4.1C267.1,282.7,267.1,297.4,267.1,312.1C267.1,312.1,267.1,312.1,267.1,312.1z"/>
	<path class="st33" d="M307.1,328c-2.3,0.3-2.7-1-2.7-3c0-2.2,1.3-2.2,2.9-2.3c1.8-0.1,2.7,0.5,2.7,2.5
		C310,327.4,309.2,328.3,307.1,328z"/>
	<path class="st34" d="M320.4,325.4c0.3,2.2-0.9,2.7-2.9,2.7c-1.9,0-2.4-0.8-2.5-2.6c-0.1-2.2,0.9-2.7,2.9-2.7
		C319.9,322.7,320.6,323.5,320.4,325.4z"/>
	<path class="st0" d="M328.3,322.9c2.2-0.3,2.7,0.5,2.8,2.4c0.1,2.2-0.9,2.8-2.9,2.8c-2.2,0-2.3-1.2-2.3-2.8
		C325.9,323.3,326.6,322.4,328.3,322.9z"/>
	<path class="st35" d="M192.6,325.6c0.3,2.5-1.4,2.5-3.2,2.5c-2.1,0-2.3-1.2-2.4-2.8c-0.1-2.6,1.4-2.4,3.2-2.5
		C192.4,322.7,192.8,323.8,192.6,325.6z"/>
	<path class="st36" d="M214,325.5c0.4,2.4-1.1,2.6-3,2.6c-2.3,0-2.6-1.3-2.6-3.1c0-2.1,1.2-2.2,2.8-2.3
		C213.4,322.6,214.3,323.4,214,325.5z"/>
	<path class="st37" d="M203.1,326.1c0.2,2.1-1.4,1.8-2.9,1.9c-2.7,0.1-2.2-1.8-2.2-3.4c-0.1-2.5,1.8-1.8,3.2-1.9
		C203.5,322.6,203.1,324.4,203.1,326.1z"/>
</g>
</svg>
