<?xml version="1.0" encoding="utf-8"?>
<!-- Generator: Adobe Illustrator 19.0.0, SVG Export Plug-In . SVG Version: 6.00 Build 0)  -->
<svg version="1.1" id="Calque_1" xmlns="http://www.w3.org/2000/svg" xmlns:xlink="http://www.w3.org/1999/xlink" x="0px" y="0px"
	 viewBox="0 0 612 792" style="enable-background:new 0 0 612 792;" xml:space="preserve">
<style type="text/css">
	.st0{fill:#656565;}
	.st1{fill:#4F8DF5;}
</style>
<g>
	<path class="st0" d="M61,478.1c9.1-12.6,21-22.6,32-33.3c4-3.9,9.7-3.9,14.6-1.3c3.8,2,5.9,1,8.6-1.7
		c48.6-48.5,97.1-97,145.8-145.4c3.4-3.4,3.5-5.7-0.1-8.9c-4.3-3.9-8.2-8.3-12.5-12.3c-2.7-2.6-3.1-4.7-0.2-7.5
		c25.2-25,50.3-50.1,75.4-75.2c2.6-2.6,4.5-2.6,7.1,0c23.4,23.5,46.9,46.9,70.4,70.3c2.7,2.6,2.3,4.7-0.2,7.1
		c-25.2,25-50.3,50.1-75.4,75.2c-2.6,2.6-4.7,2.5-7.1-0.1c-3.9-4.1-8-8-12-12c-4.9-4.9-5.1-4.9-9.9-0.1
		c-28.2,28.1-56.4,56.3-84.6,84.4c-20.2,20.1-40.3,40.3-60.6,60.3c-2.8,2.8-4,5-1.9,9c3,5.9,1.7,11.7-3,16.5
		c-8.4,8.5-16.9,17-25.5,25.4c-6.2,6.1-14.8,6-21-0.2c-11.9-11.7-23.6-23.6-35.4-35.3c-2.1-2-3-4.7-4.6-7
		C61,483.4,61,480.7,61,478.1z"/>
	<path class="st1" d="M285,564.1c-8.4-3.3-11.9-9.6-11-18.5c0.3-3.3,0-6.7,0-10c0.2-9.1,5.8-14.9,14.9-15.3c4.5-0.2,9,0,13.5,0
		c9.1-0.1,14.6-5.2,15.4-14.2c0.9-10,6.2-14.8,16.3-14.8c59.6,0,119.3,0,178.9,0c10,0,15.3,5.1,16.1,15c0.6,8.3,6.4,13.8,14.6,14
		c3.5,0.1,7,0.2,10.5,0c8.7-0.6,15.2,2.6,18.7,10.9c0,7.3,0,14.7,0,22c-0.9,6.5-4.5,10.1-11,11C469.7,564.1,377.3,564.1,285,564.1z"
		/>
	<path class="st0" d="M286,131.1c13.3,5,21.6,15.9,29.9,26.2c6.2,7.7,4.3,18.9-2.8,26.1c-24.2,24.3-48.4,48.6-72.8,72.7
		c-8.6,8.5-21.4,8.3-30.2,0.1c-5.6-5.2-11-10.6-16.3-16.2c-8.2-8.7-8.1-21.7,0.3-30.2c23.9-24.1,48-48,72-72.1
		c3.1-3.1,7.2-4.6,10.9-6.6C280,131.1,283,131.1,286,131.1z"/>
	<path class="st0" d="M369.8,406.2c-6.4,0.1-11.5-2.2-15.7-6.3c-5.2-5.1-10.5-10.3-15.5-15.6c-8.7-9.1-8.8-21.9,0.1-30.9
		c24-24.1,48-48.1,72.1-72c8.5-8.4,21.4-8.6,30.2-0.5c5.6,5.2,11.1,10.6,16.3,16.2c8.6,9.2,8.5,21.9-0.5,30.9
		c-23.9,24-47.8,47.8-71.8,71.7C380.7,404.1,375.5,406.3,369.8,406.2z"/>
</g>
</svg>
