<?xml version="1.0" encoding="utf-8"?>
<!-- Generator: Adobe Illustrator 19.0.0, SVG Export Plug-In . SVG Version: 6.00 Build 0)  -->
<svg version="1.1" id="Calque_1" xmlns="http://www.w3.org/2000/svg" xmlns:xlink="http://www.w3.org/1999/xlink" x="0px" y="0px"
	 viewBox="0 0 612 792" style="enable-background:new 0 0 612 792;" xml:space="preserve">
<style type="text/css">
	.st0{fill:#010101;}
	.st1{fill:#030303;}
	.st2{fill:#040404;}
</style>
<g>
	<path class="st0" d="M537.4,479.5c0-15.5-4.1-30-12.2-43.1c-17.9-28.9-43.7-44.4-78-44.9c-2.2,0-4.1,0.1-5.6-2.2
		c-14.6-21.3-30.3-41.7-44.3-63.4c-5.5-8.6-13-14.5-22.5-18.1c-6.2-2.3-12.6-2.7-19.2-2.6c-1.4,0-3.4,0.8-3.5-2.1
		C352,291,348,280,342,269.6c9.8-4,10.8-6.4,7.5-16.4c-5.3-15.9-10.7-31.8-15.5-47.9c-1.8-6-5.1-9.7-10.8-12.6
		c-51-25.7-101.9-51.6-152.8-77.6c-12.2-6.2-26.4-1.9-32.6,10.4c-8.1,16-16.1,32.1-24.1,48.1c-6,12.1-1.6,25.6,10.5,31.8
		c51.9,26.6,103.7,53.2,155.6,79.9c3.7,1.9,7,2.2,11,0.8c10.3-3.6,20.8-6.9,31.1-10.5c2.6-0.9,3.9-0.5,5.2,1.8
		c3.9,7,6.8,14.4,7.9,22.4c0.5,3.9-0.1,5.6-4.7,5.4c-12.8-0.4-25.6-0.1-38.4-0.1c-17.8,0-35.7-0.1-53.5,0
		c-15.9,0.1-28.5,7.1-36.8,20.3c-12.7,19.9-25.9,39.4-38.4,59.5c-2.9,4.7-6,6.7-11.8,6.7c-22.1-0.1-40.3,18.2-40.4,40.3
		c-0.1,21.2,0,42.3,0,63.5c0,7.5,3,10.4,10.7,10.4c13.7,0,27.3,0.1,41-0.1c3.2,0,4.8,0.6,6,4.1c6,16.9,22.2,28.4,39.1,28.3
		c16.6-0.2,32.5-11.8,38.4-28.6c1-2.8,2.1-3.8,5.1-3.8c48.2,0.1,96.3,0.1,144.5,0c2.8,0,3.9,0.7,4.9,3.5
		c6.1,17.4,22.2,29.1,39.1,28.9c17.3-0.2,32.9-12.1,38.9-29.9c0.9-2.8,2.1-3.4,4.8-3.4c14.8,0.1,29.7,0.1,44.5,0.1
		c6.4,0,9.5-3,9.6-9.4C537.4,490.2,537.4,484.9,537.4,479.5z M314.6,239.2c-2.1-1.6-1.4-3.5-1.4-5.4c-0.5-16.7-15-26.5-30.2-20.2
		c-11.4,4.7-16,15.1-11.9,27c4,11.8,14.4,17.7,26,13.3c6-2.3,9.2-0.3,12.8,3.4c0.9,0.9,2.1,1.7,3.9,3.1c-9.2,3.1-17.4,5.9-25.6,8.7
		c-1.9,0.7-3.6-0.3-5.2-1.1c-50.1-25.7-100.2-51.4-150.2-77.1c-6.2-3.2-6.4-4-3.2-10.4c7.6-15.3,15.3-30.6,22.9-45.9
		c3.4-6.7,4.4-6.9,11-3.5c49.7,25.3,99.5,50.6,149.3,75.8c3.1,1.5,4.8,3.4,5.8,6.8c4.2,13.6,8.7,27.1,13.1,40.7
		C325.8,249.1,320.6,243.7,314.6,239.2z M309.6,325.4c0-2.5,1-3.1,3.3-3.1c16.5,0.1,33-0.1,49.5,0.1c9.6,0.2,16.1,5,21.1,13.4
		c6,10.3,13.5,19.8,20.3,29.6c5.9,8.4,11.9,16.8,18.4,26c-31.9,0-62.7,0-93.5,0c-5.2,0-10.3-0.1-15.5,0c-2.4,0.1-3.6-0.3-3.6-3.2
		C309.7,367.4,309.7,346.4,309.6,325.4z M210.5,343.5c1.4-2.1,2.8-4.2,3.8-6.4c4.8-10.1,12.8-14.8,23.9-14.8
		c16.6,0.1,33.3,0.1,49.9-0.1c3.7,0,4.3,1.3,4.3,4.6c-0.1,20.3-0.1,40.6,0,60.9c0,2.6-0.4,3.9-3.5,3.9c-36-0.1-71.9-0.1-107.9-0.1
		c-0.3,0-0.6-0.2-1.6-0.6C190,374.9,200.3,359.2,210.5,343.5z M207.1,521.1c-14.6-0.1-22.9-8.7-22.9-23.8c0-15.1,8.3-23.7,23-23.8
		c14.3-0.1,23.9,9.4,24,23.6C231.2,511.6,221.6,521.2,207.1,521.1z M438.9,521.1c-14.8-0.2-23.4-9.5-23.3-25.1
		c0.1-13.4,10-22.7,24-22.5c14.8,0.2,23.8,9.7,23.6,25C462.9,512.2,453.2,521.3,438.9,521.1z M510.5,487.9c-9.2,0-18.3-0.1-27.5,0.1
		c-2.6,0-4-0.4-5.1-3.3c-6.3-16.9-22.2-28.5-38.5-28.4c-16.9,0-32.9,11.8-39,29.2c-1,2.8-2.3,3.4-5,3.4c-48.2-0.1-96.3-0.1-144.5,0
		c-2.8,0-4-0.8-4.9-3.5c-6.2-17.4-22.2-29.2-39-29.1c-16.7,0.1-32.7,11.9-38.7,29c-1.1,3-2.4,3.7-5.3,3.6c-10.3-0.2-20.7-0.2-31,0
		c-3.2,0.1-4.3-0.7-4.2-4.1c0.2-9.3,0.1-18.7,0.1-28c0-8.3-0.1-16.7,0-25c0.2-14.6,8.4-23.1,22.9-23.1c47.8-0.1,95.6-0.1,143.4-0.1
		c45.3,0,90.6-0.2,135.9,0.2c12,0.1,24.2-1.3,36.2,1.8c31.8,8.1,53.2,34.4,53.9,67.1C520.5,487.9,520.5,487.9,510.5,487.9z"/>
	<path class="st1" d="M261.3,215.8c-1,2-1.2,5.2-5,2.7c-2.5-1.6-5.4-2.6-7.8-4.3c-4-2.8-4.8,0.3-6.4,2.8c-2.1,3.1,0,3.9,2.2,5
		c3.4,1.7,6.7,3.6,10.2,5.3c2,1,2,2.1,1.1,3.9c-1,1.9-1.8,2.3-3.8,1.3c-5.7-3-11.5-5.9-17.4-8.6c-2-1-2-1.9-1.1-3.8
		c4.3-8.2,8.7-16.4,12.8-24.8c1.1-2.2,2-2.4,4.1-1.3c5.4,2.9,10.9,5.6,16.5,8.2c2.1,1,3.1,1.8,1.7,4.4c-1.3,2.5-2.5,1.7-4.2,0.8
		c-3.3-1.9-6.8-3.4-10.1-5.4c-2.3-1.4-3.7-1.4-4.9,1.4c-1,2.3-2.1,4,1.2,5.4c3,1.3,5.9,3,8.8,4.6C260.1,214,261.5,214.1,261.3,215.8
		z"/>
	<path class="st1" d="M151.7,174.2c0.9-1.1-0.8-4.2,2-3.9c2.1,0.2,5,0.7,4.5,4.5c-0.4,3,1.8,4.8,4.3,6.1c2.4,1.2,5,1.8,6.8-0.5
		c2-2.6-0.6-4.3-2.3-5.7c-2.4-2.1-4.9-3.9-6.9-6.4c-2.7-3.4-2.9-7.2-0.8-10.7c2-3.4,5.6-3.8,9.3-3.2c6.9,1.2,11.7,5.9,11.9,11.5
		c0,1.4,1,4-1.4,3.9c-1.6-0.1-4.7-0.1-4.6-3.3c0.2-4-2.8-4.8-5.6-5.9c-1.3-0.5-2.7-0.7-3.6,0.6c-1,1.4-0.9,2.9,0.2,4.2
		c2.4,2.8,4.8,5.5,7.4,8.1c2.6,2.6,3.4,5.6,2.8,9.1c-0.8,5.2-3.9,7.1-9,5.9c-5-1.2-9.1-3.8-12.6-7.6
		C152.3,179,151.5,176.9,151.7,174.2z"/>
	<path class="st2" d="M222.5,180.1c6.2,2.9,6.2,2.9,3.2,8.7c-2.8,5.5-5.5,11-8.6,16.3c-1.3,2.4-0.9,3.4,1.5,4.5
		c3.2,1.4,6.1,3.4,9.3,4.8c2.7,1.1,1.7,2.5,0.9,4.3c-1,2.2-2.2,1.7-3.8,0.8c-5.1-2.8-10.1-5.7-15.3-8.3c-2.1-1.1-2.3-2-1.2-4.1
		C213.2,198.1,217.8,189.1,222.5,180.1z"/>
	<path class="st1" d="M202.2,169.8c-2-1.6-3,0-4.2,1.1c-7.9,7.1-15.8,14.3-23.8,21.5c3.1,3,6.2,4.7,9.5,0.5c1.4-1.8,2.9-1.7,4.8-0.7
		c2.3,1.3,4.7,2.5,7.1,3.6c1.6,0.7,2.5,1.6,1.9,3.4c-1.9,5.7,1.8,7.1,6.4,8.4c0.8-11.1,1.4-22.1,2.4-33
		C206.5,171.3,203.9,171.2,202.2,169.8z M198.7,189.7c-2.9-0.5-5.1-1.7-6.7-2.7c2.9-2.9,5.5-5.6,8.1-8.3
		C199.7,182.3,199.2,185.9,198.7,189.7z"/>
</g>
</svg>
