<?xml version="1.0" encoding="utf-8"?>
<!-- Generator: Adobe Illustrator 19.0.0, SVG Export Plug-In . SVG Version: 6.00 Build 0)  -->
<svg version="1.1" id="Calque_1" xmlns="http://www.w3.org/2000/svg" xmlns:xlink="http://www.w3.org/1999/xlink" x="0px" y="0px"
	 viewBox="0 0 612 792" style="enable-background:new 0 0 612 792;" xml:space="preserve">
<style type="text/css">
	.st0{fill:#C0D1BF;}
	.st1{fill:#B0C4AF;}
	.st2{fill:#B0C5AF;}
	.st3{fill:#AFC3AE;}
	.st4{fill:#B1C6B0;}
</style>
<g>
	<path class="st0" d="M349.8,431.3c0.1-29.3-25.3-56.4-57.3-58.2c-3-0.2-4.9-1.1-6.6-3.4c-8.5-12.1-17.4-24-25.5-36.3
		c-7.1-10.8-16.2-17.3-29.4-17.4c-2.3,0-3.3-0.9-3.3-3.2c-0.1-5.4-1.7-10.5-4.3-15.2c-1-1.9-1.8-3.3,1-4.6c3.9-1.8,4.8-5,3.3-9.2
		c-3.9-11.5-7.7-23-11.4-34.6c-0.9-2.9-2.7-4.8-5.4-6.1c-9.6-4.7-19.1-9.5-28.6-14.3c-24.3-12.4-48.6-24.9-72.9-37.3
		c-7.8-4-18.5-1.6-22.5,7.3c-4.9,10.9-10.6,21.5-15.9,32.2c-3.8,7.8-0.7,17.3,7.1,21.3c31,15.9,62.1,31.3,92.8,47.7
		c9.5,5.1,17.7,5.9,27.5,1.7c11.1-4.7,13.1-3.1,15.7,8.7c0.1,0.3,0.1,0.7,0.2,1c0.5,3-0.1,4.7-3.8,4.6c-9.7-0.2-19.3-0.1-29-0.1
		c-9.5,0-19-0.3-28.5,0.1c-9.1,0.4-17.5,3.7-22.8,11.5c-9.4,13.5-18.3,27.4-27.1,41.3c-1.9,3.1-4,4.2-7.6,4.3
		c-13.9,0.1-27.1,13.5-27.2,27.4c-0.1,13.3,0,26.7,0,40c0,6.9,2.7,9.6,9.7,9.6c7.8,0,15.7,0.1,23.5-0.1c3.2-0.1,4.6,1,5.9,3.8
		c5.1,10.9,13.8,17.1,25.9,17.2c11.7,0,19.3-7.3,24.5-17c1.6-3.1,3.2-4,6.4-3.9c29.5,0.1,59,0.1,88.5,0c3.8,0,6,1,7.6,4.6
		c3.5,7.9,9.8,13.1,17.9,15.4c12.2,3.5,25.3-2.7,31-14.8c2-4.1,4.2-5.5,8.7-5.3c7.8,0.4,15.7,0.1,23.5,0c5.9-0.1,8-2.2,8.1-8.2
		C349.8,438.3,349.7,434.8,349.8,431.3z M195.5,265.4c-2.4-3.7-6.3-5-10.5-3.4c-3.7,1.4-5.8,4.2-5.5,8.5c0.3,4.8,2.6,8.1,7.2,8.9
		c4,0.7,7,2.7,9.9,5.1c2,1.7,2.4,3.1-0.6,4.2c-6.3,2.3-11.8,3.5-18.8-0.2c-30.5-16.3-61.5-31.7-92.4-47.3c-2.8-1.4-3.2-2.6-1.8-5.3
		c5.3-10.4,10.5-20.8,15.6-31.3c1.2-2.5,2.4-2.5,4.6-1.3c30.9,15.9,61.7,32,93,47.2c7.1,3.5,9.5,8.3,11.3,14.8
		c1.6,5.7,3.6,11.3,5.5,16.9C207.8,276,200.1,272.4,195.5,265.4z M133.3,457.9c-9.6,0-14.6-5.2-14.6-14.9c0-9.3,4.9-14.1,14.1-14.1
		c9.5,0,15,5.5,14.8,14.8C147.5,451.8,141.3,457.9,133.3,457.9z M187.7,370.1c0,3.5-2.4,3-4.5,3c-15.6,0-31.3,0-46.9,0
		c-6.3,0-12.5,0-18.9,0c0.1-2.6,1.4-4.1,2.5-5.7c6.6-10.4,13.3-20.7,19.7-31.1c3.3-5.4,8.8-7.1,14.1-6.6c5.9,0.5,11.5-1,17.3-0.5
		c4.4,0.4,8.8,1.5,13.3,0.2c2.1-0.6,3.4,0.5,3.3,3C187.6,344.8,187.6,357.5,187.7,370.1z M267.8,373c-10.5,0-21,0-31.5,0
		c-10.3,0-20.6-0.1-31,0.1c-3.3,0-4.8-0.6-4.7-4.4c0.2-11.8,0-23.6,0.1-35.5c0-1.7-0.6-4.3,2.2-4.1c11.9,0.9,23.8-1.2,35.6,1
		c3.1,0.6,5.6,2.5,7.5,5.3c7.8,11.4,15.7,22.6,23.6,33.9c0.6,0.9,2.1,1.6,1.3,2.9C270.3,373.5,268.9,373,267.8,373z M285.1,457.9
		c-8.2,0-14.4-6.2-14.4-14.5c0-9.3,5.3-14.5,14.6-14.5c9.1,0,14.4,5.2,14.4,14.1C299.6,451.7,293.6,457.9,285.1,457.9z"/>
	<path class="st1" d="M106.9,240.1c-5.6,0-10.3-3.9-10.3-8.3c0-1.2-0.7-3.1,1.3-3.2c1.6-0.1,2.7,0.9,2.7,2.8
		c0.1,3.6,2.3,4.9,5.6,4.8c0.8,0,1.7-0.2,2.1-1.1c0.4-0.9-0.1-1.5-0.8-2.1c-1.5-1.3-3-2.6-4.3-4.1c-2.4-2.7-3.2-5.8-0.9-9
		c2.3-3.2,5.3-3,8.4-1.7c3.5,1.4,5.9,3.7,5.9,7.8c0,0.6-0.4,1.5-0.8,1.6c-1.2,0.3-2.5-0.4-2.8-1.4c-0.6-1.7-1.4-3-2.7-4
		c-1.1-0.9-2.4-1.3-3.6-0.2c-1.4,1.4-0.1,2.4,0.9,3.3c1.3,1.2,2.8,2.3,4.2,3.5c2.1,1.8,4,3.9,2.5,6.9
		C112.7,238.4,110.3,240.5,106.9,240.1z"/>
	<path class="st2" d="M173.9,252.2c-0.5,1.5-1.4,2.2-3,1.4c-2.1-1-4.2-2-6.2-3.1c-1.4-0.7-2.4-0.5-3.2,1c-0.8,1.5-0.4,2.6,1,3.3
		c1.9,1,3.8,2,5.8,2.9c1.2,0.6,1.8,1.4,1.1,2.8c-0.7,1.3-1.7,1.5-2.9,0.7c-1.6-0.9-3.2-1.8-4.8-2.7c-1.5-0.8-2.9-1.8-4.1,0.6
		c-1,1.9-1.2,3.3,1.1,4.4c2.1,1,4,2.3,6.1,3.4c1.2,0.6,1.8,1.3,1,2.7c-0.9,1.6-1.9,0.9-2.9,0.3c-3.7-2-7.3-4-10.9-5.9
		c-1.8-0.9-2-1.9-1.1-3.6c2.6-4.8,5.2-9.6,7.8-14.5c0.8-1.5,1.8-2.4,3.5-1.4c3.6,2,7.3,4,10.9,6C173.6,251,174.2,251.3,173.9,252.2z
		"/>
	<path class="st3" d="M143.7,236.2c1.9,0.6,2.3,1.9,1.4,3.8c-1.6,3.3-3,6.7-4.9,9.8c-1.8,2.9-0.9,4.2,1.9,5.6c1.9,1,6.3,1.5,4.8,4.2
		c-1.7,3.3-4.6-0.3-6.6-1.3c-7.6-3.6-7.5-3.7-3.8-11.2c1.5-3,2.9-6,4.5-8.9C141.6,237.2,141.9,235.9,143.7,236.2z"/>
	<path class="st4" d="M127,229.4c-4.8,4.8-10.6,8.5-14.9,13.9c3.2,1.8,3.2,1.8,4.5,1.1c5.6-2.8,8.9-1.3,10.1,4.7
		c0.3,1.8,1.3,2.6,2.8,3.1c1.4,0.4,1.7-1,1.8-1.8c0.5-6.1,1.2-12.2,1.3-18.4C132.6,229,129.1,227.3,127,229.4z M126.5,240.6
		c-0.4,0.3-2.3-0.7-2.4-1.2c-0.2-2.7,2.4-3.4,4.2-5.3C128.7,237,128.5,239.2,126.5,240.6z"/>
</g>
</svg>
