<?xml version="1.0" encoding="utf-8"?>
<!-- Generator: Adobe Illustrator 19.0.0, SVG Export Plug-In . SVG Version: 6.00 Build 0)  -->
<svg version="1.1" id="Calque_1" xmlns="http://www.w3.org/2000/svg" xmlns:xlink="http://www.w3.org/1999/xlink" x="0px" y="0px"
	 viewBox="0 0 612 792" style="enable-background:new 0 0 612 792;" xml:space="preserve">
<style type="text/css">
	.st0{fill:#F1AE1C;}
	.st1{fill:#A7A7A8;}
	.st2{fill:#349FD7;}
	.st3{fill:#E52F2A;}
</style>
<g>
	<path class="st0" d="M174.7,418c10.1-28.8,20.3-57.7,30.3-86.5c1.1-3.2,3.4-2.7,5.6-2.7c27.6,0,55.3,0,82.9,0
		c42.9,0,85.9,0,128.8,0c2.5,0,4.7-0.4,5.9,3c10.3,28.8,20.8,57.5,31.2,86.2c-7.5,0-15,0-22.6,0c-7.8-21.4-15.7-42.8-23.4-64.2
		c-1-2.8-2.2-3.8-5.3-3.8c-61.1,0.1-122.3,0.1-183.4,0c-2.9,0-3.9,1.1-4.8,3.6c-7.5,21.5-15.1,43-22.7,64.4
		C189.7,418,182.2,418,174.7,418z"/>
	<path class="st1" d="M565.6,470.9c-8.3-25.9-26.1-42.7-52.4-50.3c-2.3-0.7-4.2-1.4-5.1-4.1c-3.3-9.8-6.8-19.5-10.2-29.2
		c-10.4-29.8-20.8-59.6-31.2-89.4c-0.5-1.6-1.1-3.1-3.3-3.1c-6.5,0-12.9,0-19.4-0.1c-11.8-0.3-23.6,0.6-35.3-0.3
		c-3-0.2-4-1.2-3.9-4.2c0.1-30.7,0.1-61.3,0.2-92c-1.4-0.4-2.1,0.6-2.9,1.4c-10.7,9.6-23.6,14.3-37.7,16.1c-1.3,0.2-2.7,0.1-3.8,1
		c-0.5,0.4-0.7,0.8-0.7,1.1c0,0,0.1,0,0.1,0c6.2,0,12.3,0.2,18.5,0.1c3.3-0.1,4.7,0.8,4.7,4.4c-0.1,22.6-0.1,45.3,0,67.9
		c0,3.6-1.5,4-4.5,4c-41.3-0.1-82.6-0.1-123.9,0c-3.6,0-4.9-0.9-4.9-4.7c0.2-22.5,0.1-44.9,0-67.4c0-3.8,1.6-4.3,4.8-4.3
		c20.6,0.1,41.3,0.1,61.9,0.1c1.2,0,2.3-0.1,3.5-0.1c0,0,0,0,0.1,0c0.3-0.8-0.7-1.2-1.4-1.6c-1.9-0.8-3.9-0.6-5.9-0.7
		c-14.3-0.3-28.6,0.8-42.9-1c-13.3-1.7-25.6-6-35.8-15c-1.4-1.3-2.7-3.1-5.1-2.5c-0.1,11.1-0.2,22.2-0.3,33.4
		c-0.1,8.3-0.3,16.6-0.1,24.8c0.3,11.3-0.4,22.6,0.2,33.9c0.2,3.9-1.8,5.7-5.7,5.7c-5.3,0-10.7-0.8-15.9-0.4
		c-11.3,0.8-22.6-0.2-33.9,0.2c-3.7,0.1-5,1-6.2,4.4c-13.9,39.2-28,78.3-42,117.4c-0.8,2.3-2.1,3.3-4.4,4
		c-6.7,1.9-13.2,4.6-19.1,8.4c-23.3,15.1-36.7,36.4-36.1,64.4c0.7,32.3,26.1,61.5,58,68.5c3,0.7,3.7,1.7,3.7,4.5
		c-0.1,11.8,0.1,23.7-0.1,35.5c-0.2,12,3.5,22.6,11.2,31.7c8.6,10.1,19.5,16,32.7,15.2c20.3-1.2,38.8-21.5,39.1-42
		c0.2-13,0.2-26,0-39c0-3.5,1.1-4.7,4.6-4.6c9,0.2,18,0.1,27,0.1c59,0,118,0.1,177-0.1c4.3,0,5.4,1.4,5.3,5.4
		c-0.2,11.8,0.1,23.7-0.1,35.5c-0.2,15.2,6.7,26.9,18,36.2c7,5.7,15.3,9.2,24.5,8.5c22.4-1.6,40.5-21.6,40.6-44.3
		c0.1-12.7,0.1-25.3-0.1-38c0-3,0.7-4.3,3.8-5c15.4-3.6,28.3-11.5,38.6-23.5C566.3,518.5,573.7,496.2,565.6,470.9z M157.7,388.5
		c7.9-22.1,16-44.1,23.6-66.2c1.7-4.8,4-6.5,9.2-6.5c70.6,0.2,141.3,0.2,211.9,0.2c14.7,0,29.3,0.1,44-0.1c3,0,4.4,0.8,5.4,3.7
		c10.8,31.3,21.8,62.5,32.7,93.7c0.5,1.4,0.7,2.9,1.1,4.6c-8.9,0-17.6,0-26.2,0c-2.7-1.9-3.3-4.9-4.3-7.7
		c-8.7-24.1-17.5-48.2-26.3-72.3c-2.7-7.5-2.9-7.5-10.7-7.5c-25.6,0-51.3,0-76.9,0c-42.1-0.1-84.2,0.1-126.3,0
		c-7.7,0-7.8,0-10.3,7.2c-8.1,22.7-16.1,45.5-24.1,68.3c-1.5,4.2-2.2,8.8-5.7,12c-9,0-17.9,0-27.5,0
		C150.8,407.9,154.2,398.2,157.7,388.5z M436.8,418c-35.6,0-71.2,0.1-106.8,0.1c-43.1,0-86.2,0-129.3,0c-1.2,0-2.3-0.1-3.5-0.1
		c-1.1-2.2-0.1-4.3,0.6-6.3c6.5-18.4,12.9-36.8,19.5-55.1c2.8-7.8,3.4-8.1,11.6-8.1c58.5,0,116.9,0,175.4,0c8.6,0,8.9,0.3,11.9,8.3
		c6.6,18.2,13.3,36.3,19.9,54.4C436.7,413.4,438,415.6,436.8,418z M189,587.8c0,6.5,0.1,13,0,19.5c-0.3,9.7-6.4,17.5-15,19.5
		c-9.4,2.2-18.1-1.3-22.4-8.9c-1.9-3.4-2.7-7.1-2.7-11c0-13,0-26-0.1-39c0-2.9,0.8-4.1,3.9-4.1c10.8,0.1,21.6,0.2,32.5,0
		c3.2,0,4,1.1,3.9,4.1C188.9,574.5,189,581.1,189,587.8z M485.1,609.3c-1.6,12.8-9.5,18.6-22.6,17.7c-9.8-0.6-17-9-17.4-20.4
		c-0.2-6.5,0-13,0-19.5c0,0,0,0,0,0c0-6.3,0.1-12.7-0.1-19c-0.1-3,0.5-4.5,4.1-4.5c11,0.2,22,0.1,33,0.1c1.9,0,3.9-0.2,3.8,2.6
		C485.5,580.7,486.9,595.1,485.1,609.3z M508.1,540.5c-4.2,0.9-8.5,1.5-12.8,1.5c-104.1,0-208.3,0-312.4,0c-14.8,0-29.7-0.2-44.5,0
		c-28.6,0.3-51.3-20.8-51.5-50c-0.2-26.4,14.6-45.7,40.3-51.4c2.9-0.6,5.9-0.7,8.9-0.7c60.3,0,120.6,0,180.9,0c0,0,0,0,0,0
		c59,0,118,0,176.9,0c8,0,15.9,0.7,23.4,3.9c18.4,7.9,29.6,25.3,29.9,45.6C547.6,514.1,531.4,535.4,508.1,540.5z"/>
	<path class="st2" d="M407.5,166.7c5-3.7,5.1-5.8,0.7-10.6c-1.2-1.3-2.7-2.5-4.2-3.4c-7.4-4.3-15.5-6-23.9-5.1
		c-14.1,1.5-25.9,8.3-35.8,18.1c-7.1,7.1-14.7,13.4-22.9,19.2c-2.6,1.8-4.2,2-6.9,0.1c-8.9-6.5-17.4-13.2-25.7-20.5
		c-15.2-13.3-32.1-21.4-53-14.5c-9.6,3.2-14.1,8.9-14.9,18.9c-0.9,10.5,2.5,19.6,8.2,28.2c1,0.9,2,1.7,3,2.6
		c10.2,9.8,22.9,14.4,36.6,16.3c13.5,1.8,27.2,0.9,40.7,1.1c3.6,0,7.3-0.7,10.8,0.8c1.4,1.8,3.5,1.8,5.5,1.8c9.7,0.1,19.3,0.1,29,0
		c2,0,4.1,0,5.5-1.8c1.5-1.1,3.2-0.5,4.8-0.8c15.3-2.3,29.3-7.1,40.1-18.8c5.5-7.2,8.2-15.5,8.7-24.5
		C414,167.4,413.2,166.6,407.5,166.7z M251.6,188.2c-5.2-3.2-9.6-7.2-9.9-14c-0.1-2.8,1-4.3,3.7-5c3.7-1.1,7.2-0.7,10.8,0.3
		c6.3,1.9,12,5.1,16.9,9.4c5.8,5.2,11.3,10.7,18.6,16C276.9,195.6,263.6,195.5,251.6,188.2z M390.3,182.1c-3.3,4.9-8,7.9-13.3,10.1
		c-10.7,4.4-21.9,4.4-34.4,3.7c6.9-4.9,11.8-10,16.8-15.1c6.2-6.3,13.6-10.5,22.4-12c3.6-0.6,7.4-0.6,9.5,2.6
		C393.7,174.8,392.5,178.7,390.3,182.1z"/>
	<path class="st3" d="M480.5,481.1c6,0,12,0.1,18,0c2.4-0.1,3.3,0.7,3.2,3.1c-0.1,5-0.1,10,0,15c0.1,2.6-0.8,3.5-3.4,3.5
		c-11.7-0.1-23.3-0.1-35,0c-2.6,0-3.5-0.8-3.4-3.4c0.2-5.8-1.9-13.2,0.9-17c2.7-3.6,10.6-0.8,16.2-1.1
		C478.2,481.1,479.3,481.1,480.5,481.1z"/>
	<path class="st3" d="M153.5,502.6c-5.8,0-11.7-0.1-17.5,0c-2.6,0-3.6-0.8-3.5-3.5c0.2-5,0.1-10,0-15c-0.1-2.4,0.9-3.1,3.2-3.1
		c11.8,0.1,23.6,0.1,35.4,0c2.2,0,3.1,0.8,2.8,2.9c0,0.3,0.1,0.7,0,1c-1.2,5.8,3.5,13.9-2.4,17.1
		C166.9,504.6,159.7,502.6,153.5,502.6C153.5,502.6,153.5,502.6,153.5,502.6z"/>
</g>
</svg>
