<?xml version="1.0" encoding="utf-8"?>
<!-- Generator: Adobe Illustrator 19.0.0, SVG Export Plug-In . SVG Version: 6.00 Build 0)  -->
<svg version="1.1" id="Calque_1" xmlns="http://www.w3.org/2000/svg" xmlns:xlink="http://www.w3.org/1999/xlink" x="0px" y="0px"
	 viewBox="0 0 612 792" style="enable-background:new 0 0 612 792;" xml:space="preserve">
<style type="text/css">
	.st0{fill:#00A69C;}
	.st1{fill:#EF5A29;}
	.st2{fill:#F1F0ED;}
	.st3{fill:#F1F1F1;}
	.st4{fill:#CFCCBD;}
</style>
<g>
	<path class="st0" d="M281,160.8c134.8,0,243.2,108.6,243.2,243.9c0,133.5-109.2,242.7-242.7,242.5C146.2,647,37.6,538.5,37.8,403.8
		C38,269.2,146.5,160.8,281,160.8z"/>
	<path class="st1" d="M336.6,346.9c8.6,8.1,17,16.4,25.8,24.4c4.3,4,5.6,8.2,3.8,13.8c-17.9,56.4-35.6,112.8-53.4,169.3
		c-2.2,7.1-4.3,8.2-11.4,5.9c-33.9-10.7-67.8-21.4-101.7-32.1c-6.7-2.1-7.7-4-5.7-10.6c17.8-56.4,35.6-112.8,53.3-169.3
		c1.8-5.7,4.8-8.9,11.1-9.7c13.7-1.8,27.3-4,40.9-6.1c2.7-2.6,6.5-1.6,9.7-2.7c9-1.4,15.5,2.3,20.3,9.7c-0.6,5-4.4,7.2-8.2,9.3
		c-2.1,0.3-3.8-1-5.6-1.8c-6.2-2.6-12.7-0.1-15.3,5.9c-2.4,5.6,0,12.5,5.3,14.8c5.8,2.6,12.3,0,15.2-6.2c0.4-0.9,0.7-1.9,1.2-2.7
		C326.4,354.4,330.9,350,336.6,346.9z"/>
	<path class="st2" d="M321,348.3c2.9-2.6,6.1-4.8,8.2-8.2c-0.1-1.1,0.5-1.9,1-2.7c10.9-14.8,16.7-32.1,24.2-48.6
		c2.8-6,4.4-12.6,4.2-19.4c-0.2-4.5-0.7-9.6-5.5-11.5c-4.9-2-8.4,1.8-11.6,5c-4.9,4.9-8.2,10.9-11.2,17
		c-7.5,14.9-13.7,30.3-18.9,46.1c-0.6,1.9-0.7,4-2.9,4.9c-2.9,1.3-6.2,0.9-9.2,1.5c-0.6-1.7-0.4-3.3,0.2-4.9
		C306,308.2,313,289,323,271.1c3-5.4,6.3-10.6,10.5-15.1c0.8-0.9,1.6-1.7,2.5-2.5c6.3-5.6,13.6-9.3,21.9-5.7
		c8,3.5,10.4,11.2,11.1,19.3c0.8,8.3-1.2,16.3-4.3,23.9c-7.8,19.4-15.2,39.1-28.1,56c-4.3,4.4-8.9,8.4-13.9,12
		c-2,2.6-4.7,4.2-7.4,5.9c-3.7,2.2-8.4,1.8-11.1-0.8c-2.5-2.4-3.2-7.3-1.6-10.7c1.7-3.6,5.9-5.8,10-4.7
		C315.5,349.4,318.2,348.7,321,348.3z"/>
	<path class="st3" d="M337,411.8c0,0.1-0.3,1.4-0.7,2.6c-12.1,38.4-24.2,76.7-36.3,115.1c-2.1,6.5-2.9,6.9-9.3,4.9
		c-22.7-7.1-45.4-14.3-68-21.4c-6.1-1.9-6.5-2.9-4.6-9c12-38.2,24.1-76.4,36.1-114.6c2.3-7.2,3.9-7.9,11.3-5.6
		c22,7,44.1,13.9,66.1,20.8C334.8,405.5,337.3,406.7,337,411.8z"/>
	<path class="st0" d="M308.4,331c5.9-18.9,13.1-37.3,22.3-54.9c3.2-6.1,6.7-12,11.9-16.5c7.7-6.6,13.9-4.5,16.5,5.1
		c1.4,5.2,0.9,10.4-0.7,15.3c-6.4,19.5-14.7,38.1-25.5,55.6c-1,1.7-2.5,3-3.8,4.5c-2.3-2.2-4.6-4.4-6.9-6.5
		C318.2,330.1,313.2,330.9,308.4,331z"/>
	<path class="st4" d="M321,348.3c-2.5,2.1-4.9,3.4-8.5,1.6c-3.5-1.8-6.6,0.3-8.4,3.2c-2.1,3.4-2,7.2,1,10.1c2.6,2.5,6.2,2.8,9.2,0.8
		c2.8-1.8,5.5-3.6,8.5-5.1c-2.1,7.2-5.8,10.8-11.6,11.2c-5.7,0.4-10.1-2.3-12.3-7.4c-2.1-5-0.7-11.4,3.4-15c4.3-3.8,10-4.2,15.2-1
		C318.6,347.3,319.5,348.4,321,348.3z"/>
</g>
</svg>
