<?xml version="1.0" encoding="utf-8"?>
<!-- Generator: Adobe Illustrator 19.0.0, SVG Export Plug-In . SVG Version: 6.00 Build 0)  -->
<svg version="1.1" id="Calque_1" xmlns="http://www.w3.org/2000/svg" xmlns:xlink="http://www.w3.org/1999/xlink" x="0px" y="0px"
	 viewBox="0 0 612 792" style="enable-background:new 0 0 612 792;" xml:space="preserve">
<style type="text/css">
	.st0{fill:#FEDFB1;}
	.st1{fill:#9E9D24;}
	.st2{fill:#F8A725;}
	.st3{fill:#FDDEB1;}
	.st4{fill:#E29B2C;}
	.st5{fill:#4E342E;}
	.st6{fill:#5E4B36;}
	.st7{fill:#AEB32B;}
</style>
<g>
	<path class="st0" d="M243.5,150.5c-5.6,14-8,28.7-8.1,43.7c-2.9,5.6-7.2,10.3-9,16.6c-4.6,16.3,0.5,32.8,13.8,42.8
		c13,9.8,31.4,10.1,45.4,0.8c13.4-9,19.7-26.9,15-42.8c-4.8-16.3-19.1-27.4-35.7-27.8c-2.4-0.1-5,0.6-7.2-1.2
		c5.4-14.2,16-24,27.8-32.8c6.4-0.7,12.9-2.1,19.2,0.7c2.6,0,5.2,0,7.8,0c12.7-0.4,23.1,4.6,32,13.6c29.6,29.7,59.2,59.4,89,89
		c9.5,9.4,14.1,20.3,14.1,33.8c-0.2,57.4-0.2,114.9,0,172.3c0,7.3-1.7,13.7-6.2,19.4c-2.3,2-5,1.5-7.6,1.5
		c-31-0.1-61.9-0.1-92.9-0.1c-28.8,0-57.6,0-86.4,0.1c-40.3,0.1-80.6,0-120.8,0c-13.5,0-27,0-40.4,0c-2.6,0-5.4,0.5-7.6-1.5
		c-4.5-5.7-6.2-12.1-6.2-19.4c0.2-58.1,0.1-116.2,0.1-174.3c0-11.8,4.1-21.8,12.3-30c31.8-31.6,63.6-63.1,95.5-94.5
		c6.4-6.4,14.6-9,23.4-9.7c3.3-0.3,6.7-0.1,10-0.1c3-0.4,6.2,1.1,9-0.8C234.3,148.9,239,148,243.5,150.5z"/>
	<path class="st1" d="M85.5,478.6c76.3,0,152.6-0.1,228.9-0.1c42.3,0,84.6,0.1,126.9,0.1c4.4,5.2,6.2,11.1,6.1,17.9
		c-0.1,30.8,0,61.6-0.1,92.5c0,15.7-9.8,25.5-25.6,25.5c-105.6,0-211.2,0-316.8,0c-15.8,0-25.6-9.7-25.6-25.5
		c0-30.8,0.1-61.6-0.1-92.5C79.4,489.7,81.2,483.8,85.5,478.6z"/>
	<path class="st2" d="M257.7,182.6c12.8-0.8,24.5,1.8,33.8,11.3c11.2,11.5,14.7,25.1,10.1,40.4c-4.6,15.2-15,24.3-30.6,27.4
		c-16.2,3.2-32.2-3.6-41.1-17.2c-8.7-13.3-8.5-31.5,0.6-44.7c1.4-2.1,2.9-4,5-5.5c0.9,6.9,1.9,13.9,5.2,20.2
		c0.9,1.8,0.4,3.6,0.3,5.4c-0.9,10.3,3.8,18.9,12.4,23.1c8.5,4.1,19.3,2.5,26.1-3.8c6.7-6.3,8.6-17.2,4.7-26.4
		c-0.7-1.7-1.9-3.2-1.7-5.1c0.3-7.2-1.2-8.5-7-6c-4.8-0.4-9.5-1.2-14-3c-0.4-0.5-0.7-1.2-1.1-1.6c-5.7-5.3-5.8-5.6-2.9-13.5
		C257.4,183.2,257.5,182.9,257.7,182.6z"/>
	<path class="st3" d="M253.2,149.4c5.9,2.4,12.1,0.4,18.2,1.1c-7,7.2-14,14.3-18.4,23.4c-1.8,3.7-3.1,7.7-4.7,11.5
		c-1.2,1.3-2.4,2.5-4.5,1.8C244.1,174,247.1,161.3,253.2,149.4z"/>
	<path class="st4" d="M243.8,187.3c1.5-0.6,3-1.2,4.5-1.8c-1.2,6.3-1.6,12.5-0.2,18.8c-0.5,1.1-1.2,1.7-2.5,1.5
		C243.8,199.7,243.1,193.6,243.8,187.3z"/>
	<path class="st5" d="M512.9,446.9c-0.4-31.8-3.1-63.5-7.4-95.1c-5-36.1-13.7-71.2-29.4-104.2c-4.9-10.2-7.9-20.2-7.7-31.4
		c0.2-14.3-4.9-26.5-14.2-37.4c-10.9-12.8-23.4-23.7-37.5-32.7c-25.3-16.1-52.5-25.7-83-23.6c-10.7,0.8-20.9-2.2-31.2-4.1
		c-7.3,0-14.7,0-22,0c-6.7,2.3-13.1,4.8-20.5,4.1c-8.4-0.7-16.9,0-25.2,2c-12,2.9-20.4,11.1-14.1,25.8c2.9,2.2,5.9,2,8.9,0.1
		c1.1-1.9-0.1-3.5-0.7-5.2c-2-5.7-1-8.2,4.7-10.5c6.5-2.6,13.4-3.1,21.6-3c-6.9,5.5-9.4,12.6-13,19.1c-6.3,13.8-8,28.4-8.1,43.4
		c0.9,7.1,1.7,14.2,5.6,20.5c2.7,3.6,6.2,5.5,10.7,4.8c3.2-0.5,5.7,0.3,8.4,1.8c9.1,5,17.8,2,22.1-7.5c1-2.3,1.7-4.6,2.4-7
		c0.3-7-1.7-8.7-8-6.5c-2.6,2.2-2.6,5.6-3.6,8.5c-1.2,3.4-3.5,4.6-6.9,3.9c-3.6-0.7-3.6-3.2-2.8-6.1c0.7-2.7,0.8-5.5,0-8.3
		c-0.5-1.3-1.1-2.6-2.3-3.2c-3.8-1.9-3.4-4.9-2.4-8.1c0.4-1.3,0.8-2.5,1.2-3.8c5.4-14.2,16.1-23.9,27.6-32.9
		c3.7-2.4,7.2-5.2,11.2-7.1c4.2-2,6.2-0.7,6.6,3.8c0.1,1.5-0.7,3.4,1.4,4.3c2.4,0.5,4.9,1,7-0.9c1.5-4.2,0.9-8.2-1.4-11.9
		c-0.7-1.1-1.9-2.3,0.3-3c7.6-2.2,14.8-5.1,23.3-2.8c54.9,15.2,95.3,48.6,123.8,97.3c2.2,3.7,3.2,7.4,3.1,11.8
		c-0.1,9.3,0.2,18.7,0.3,28c0.5,73-1.4,146-1.3,218.9c0,8.5-0.1,17,0.9,25.5c1.2,10.3,4.6,19.8,12.2,27.2c7.6,7.4,16.1,6.9,23-1.1
		c4.4-5.2,6.9-11.3,8.8-17.7C512.7,497.8,513.2,472.4,512.9,446.9z M271.4,150.5c-5.2,2.6-10.6,1.6-15.9,1.1
		c-1.2-0.1-2.2-0.7-2.2-2.2c0.1-0.3,0.1-0.7,0.3-0.9c12.3-19.7,16.1-19.9,38.8-12.8C284.4,140,278,145.4,271.4,150.5z M293.6,126.5
		c4.4,0.4,8.9,0.8,13.8,1.2C302.2,133.1,298,128.5,293.6,126.5z M355.4,130.9c25.5,2.9,47.7,13.5,68,28.7c9.9,7.4,18.7,16,26.4,25.7
		c7.4,9.3,10.8,19.7,10.6,32.7C434.2,177.4,399.8,148.1,355.4,130.9z M504.5,480.4c-0.9,14.1-2.4,28.2-7,41.7
		c-1.6,4.6-3.5,9-6.7,12.7c-4.6,5.3-10,5.2-14.3-0.3c-4.6-5.8-6.5-12.8-7-20c-0.6-8.1-0.9-16.3-0.9-24.5
		c-0.2-78.3,2-156.6,1.1-234.9c0-0.3,0.1-0.6,0.5-2c8.6,18.8,14.6,37.5,19.3,56.5c7.1,28.3,10.5,57.3,12.9,86.3
		C504.7,424.2,506.3,452.3,504.5,480.4z"/>
	<path class="st6" d="M284.5,408.4c-0.4-7.2,0.5-12.8,2.3-18.2c5.7-17.3,22.2-27.1,41.2-25.3c28.8,2.7,38.1,24.9,36.1,47.9
		c-1.5,17-9.1,29.8-26.4,35c-8.6,2.6-17.4,2.6-26.1,0.2c-15.9-4.4-26-17.6-27-35C284.4,411,284.5,409,284.5,408.4z"/>
	<path class="st6" d="M242.6,329.8c0.2,3.8-0.4,8.5-1.5,13c-5.6,22.2-24.4,30.2-43.3,28.2c-28.7-3-37.3-26.5-34.7-48.4
		c2.4-19.9,12.8-31.9,29.4-35.1C222.1,281.8,242.6,298.8,242.6,329.8z"/>
	<path class="st6" d="M228.1,450.6c-4-2.2-8.3-4.1-12.1-6.7c-1.7-1.2,0.3-3,1-4.4c14-26.9,28-53.7,42-80.5
		c12.5-23.9,25-47.7,37.4-71.7c1.8-3.5,3-4.6,6.9-2.4c9.6,5.5,9.7,5.2,4.6,15c-25.5,48.8-51,97.6-76.5,146.4
		C230.6,447.9,230.3,449.9,228.1,450.6z"/>
	<path class="st7" d="M249.3,485.9c-0.7,0.8-1.4,1.7-2.3,2.5c-40.5,40.5-81,81-121.5,121.6c-2.2,2.2-3.6,2.6-6,0.1
		c-2.4-2.4-1.5-3.7,0.4-5.7c40.6-40.5,81.1-81,121.6-121.5c1.1-1,2-3.2,4-1.8C247.1,482.4,248.8,483.6,249.3,485.9z"/>
	<path class="st7" d="M273.3,485.9c-0.7,0.8-1.4,1.7-2.3,2.5c-40.5,40.5-81,81-121.5,121.6c-2.2,2.2-3.6,2.6-6,0.1
		c-2.4-2.4-1.5-3.7,0.4-5.7c40.6-40.5,81.1-81,121.6-121.5c1-1,2-3.2,4-1.8C271.1,482.4,272.8,483.6,273.3,485.9z"/>
	<path class="st7" d="M297.2,485.2c-0.2,1.9-1.8,2.8-2.9,3.9c-24.9,25-49.9,50-74.9,74.9c-15.2,15.2-30.4,30.4-45.6,45.6
		c-2.2,2.2-3.6,3.3-6.4,0.5c-2.8-2.8-1-4.2,0.8-6c40.3-40.3,80.6-80.6,120.9-120.8c1.1-1.1,2-3.2,3.9-2.3
		C294.9,481.8,296.2,483.4,297.2,485.2z"/>
	<path class="st7" d="M189.5,607.3c0.9-1,1.6-1.9,2.4-2.7c40.5-40.5,81.1-81,121.5-121.6c2.2-2.2,3.6-2.6,6-0.2
		c2.3,2.4,1.6,3.7-0.4,5.7c-40.6,40.5-81.1,81-121.6,121.5c-1,1-2,3.2-4,1.8C191.8,610.7,190.4,609.3,189.5,607.3z"/>
	<path class="st7" d="M213.5,607.3c0.9-1,1.6-1.9,2.4-2.7c40.5-40.5,81.1-81,121.5-121.6c2.2-2.2,3.6-2.6,6-0.2
		c2.3,2.4,1.6,3.7-0.4,5.7c-40.6,40.5-81.1,81-121.6,121.5c-1,1-2,3.2-4,1.8C215.8,610.7,214.4,609.3,213.5,607.3z"/>
	<path class="st7" d="M369.3,484.9c-0.3,2.3-1.9,3.2-3,4.3c-28.1,28.2-56.3,56.3-84.4,84.5c-12,12-24,24-36,36.1
		c-1.8,1.9-3.2,3.6-6,0.8c-2.8-2.7-1.7-4.2,0.5-6.4c40.3-40.2,80.6-80.5,120.9-120.8c1.1-1.1,2-3.3,3.9-2.3
		C366.8,482,368,483.7,369.3,484.9z"/>
	<path class="st7" d="M266.9,612.3c-2.4-0.6-3.5-2.3-4.8-3.8c-1.1-1.2-0.1-2.1,0.8-3c0.6-0.6,1.2-1.2,1.8-1.8
		c40-40,80.1-80.1,120.1-120.2c2.5-2.5,4.3-3.7,7.1-0.3c1.5,1.9,1.6,3.1-0.2,4.6c-0.6,0.5-1.2,1.2-1.8,1.8
		c-39.8,39.8-79.6,79.6-119.4,119.4C269.3,610.2,268.1,611.3,266.9,612.3z"/>
	<path class="st7" d="M290.9,612.3c-2.4-0.6-3.5-2.4-4.8-3.8c-1.1-1.2,0-2.1,0.8-3c0.6-0.6,1.2-1.2,1.8-1.8
		c40-40,80.1-80.1,120.1-120.2c2.5-2.6,4.3-3.7,7.1-0.3c1.5,1.9,1.5,3.1-0.2,4.6c-0.6,0.5-1.2,1.2-1.8,1.8
		c-39.8,39.8-79.6,79.6-119.4,119.4C293.3,610.2,292.1,611.3,290.9,612.3z"/>
	<path class="st7" d="M225.2,485.2c-0.2,1.9-1.8,2.8-2.9,3.9c-24.3,24.4-48.7,48.7-73.1,73.1c-15.4,15.4-30.9,30.8-46.2,46.3
		c-2.1,2.1-3.3,2.9-5.9,0.3c-2.5-2.5-1.9-3.7,0.2-5.9c40-39.8,79.8-79.8,119.8-119.6c1.1-1.1,2-3.2,3.9-2.3
		C222.9,481.8,224.2,483.4,225.2,485.2z"/>
	<path class="st7" d="M437.8,489.5c-1.5,1.6-2.2,2.3-2.9,3c-39.2,39.2-78.4,78.4-117.6,117.6c-2,2-3.3,2.7-5.7,0.3
		c-2.5-2.4-2-3.8,0.2-6c39.1-39,78.2-78.1,117.3-117.2c0.9-0.9,1.6-3,3.5-1.8C434.5,486.6,436.1,488.1,437.8,489.5z"/>
	<path class="st7" d="M90.9,596.3c-2.4-0.6-3.5-2.4-4.8-3.8c-1-1.2,0-2.1,0.8-3c0.6-0.6,1.2-1.2,1.8-1.8
		c34.7-34.7,69.5-69.4,104.1-104.2c3-3,4.9-3.2,7.4,0.1c1.2,1.5,1.1,2.6-0.2,3.8c-0.7,0.7-1.4,1.4-2.1,2.1
		c-34.5,34.5-69,69-103.5,103.4C93.3,594.2,92,595.3,90.9,596.3z"/>
	<path class="st7" d="M333.5,607.3c0.9-1,1.6-1.9,2.4-2.7c32.5-32.5,65.1-65,97.5-97.6c2.2-2.2,3.6-2.6,6-0.2
		c2.4,2.4,1.6,3.7-0.4,5.7c-32.6,32.5-65.1,65-97.6,97.5c-1,1-2,3.2-4,1.8C335.8,610.7,334.4,609.3,333.5,607.3z"/>
	<path class="st7" d="M90.7,572.3c-2.2-0.7-3.6-2.3-4.6-4c-1.2-2,0.9-2.9,2-4c22.4-22.5,44.9-45,67.4-67.5
		c4.6-4.6,9.2-9.1,13.7-13.8c2-2,3.4-3.2,6-0.5c2.6,2.6,1.6,4-0.4,6c-22.8,22.7-45.5,45.4-68.2,68.1c-4.5,4.5-8.9,9-13.4,13.4
		C92.5,571,91.5,571.7,90.7,572.3z"/>
	<path class="st7" d="M441.2,533.3c-0.1,1.4-1.2,2.1-2,2.9c-24.7,24.7-49.4,49.4-74,74.2c-2.3,2.3-3.6,1.8-5.6-0.2c-2-2-2-3.3,0-5.3
		c24.9-24.8,49.7-49.6,74.5-74.4c0.9-0.9,1.8-2.4,3.3-1.4C438.9,530.2,440.5,531.5,441.2,533.3z"/>
	<path class="st7" d="M90.7,548.4c-2.2-0.8-3.5-2.4-4.6-4c-1.1-1.5,0.5-2.4,1.4-3.3c19.5-19.6,39.1-39.1,58.6-58.7
		c2.2-2.2,3.5-1.4,5.3,0.3c1.9,1.8,2.4,3.1,0.3,5.3c-19.6,19.5-39.1,39-58.7,58.6C92.2,547.3,91.4,547.8,90.7,548.4z"/>
	<path class="st7" d="M441.3,557.7c-0.7,0.8-1.4,1.7-2.1,2.5c-16.6,16.6-33.2,33.2-49.7,49.8c-1.9,1.9-3.2,2.8-5.6,0.4
		c-2.4-2.4-2.2-3.8,0.1-6c16.7-16.5,33.2-33.1,49.8-49.7c1-1,1.9-2.8,3.6-1.7C439,554.2,440.6,555.5,441.3,557.7z"/>
	<path class="st7" d="M129.3,485.7c-0.7,0.8-1.4,1.7-2.1,2.5c-11.3,11.3-22.6,22.6-33.9,34c-2.1,2.1-3.5,2.3-5.7,0.1
		c-2.2-2.2-2.1-3.5,0.1-5.7c11.4-11.2,22.6-22.6,34-33.9c1-1,1.9-2.9,3.6-1.7C126.9,482.2,128.5,483.5,129.3,485.7z"/>
	<path class="st7" d="M405.5,607.3c0.9-1,1.6-1.9,2.4-2.7c8.6-8.6,17.2-17.1,25.7-25.8c2.1-2.1,3.4-2.4,5.7-0.2
		c2.1,2.2,2.2,3.5,0,5.7c-8.8,8.6-17.4,17.4-26.2,26c-1,1-1.9,2.8-3.7,1.5C407.9,610.6,406.4,609.3,405.5,607.3z"/>
	<path class="st7" d="M90.5,500.3c-2.1-0.9-3.4-2.4-4.5-4c-0.9-1.3,0.3-2.1,1.1-2.9c3.8-3.9,7.7-7.7,11.6-11.6c2-2,3.2-0.5,4.4,0.8
		c1.1,1.2,3.3,2.3,1.3,4.4c-4.1,4.1-8.2,8.2-12.3,12.3C91.6,499.8,91,500,90.5,500.3z"/>
	<path class="st0" d="M300.2,407.4c0.2-2.5,0.1-5,0.6-7.5c2.4-13.3,11-19.9,24.9-19.1c14.1,0.8,21.3,8,22.6,22.9
		c0.4,4.7,0,9.3-1.1,13.9c-3,12.4-14.7,18.5-29.2,15.6C306,430.8,300.4,422.5,300.2,407.4z"/>
	<path class="st0" d="M226.4,329c0.3,3.7-0.1,7.3-1.1,10.9c-2.2,7.9-7.2,13-15.3,14.7c-21,4.4-34-8.2-31.2-30.2
		c2.4-18.6,19-27.6,36.1-19.5c7.8,3.7,10.5,10.7,11.5,18.6C226.6,325.3,226.4,327.1,226.4,329z"/>
</g>
</svg>
