<?xml version="1.0" encoding="utf-8"?>
<!-- Generator: Adobe Illustrator 19.0.0, SVG Export Plug-In . SVG Version: 6.00 Build 0)  -->
<svg version="1.1" id="Calque_1" xmlns="http://www.w3.org/2000/svg" xmlns:xlink="http://www.w3.org/1999/xlink" x="0px" y="0px"
	 viewBox="0 0 612 792" style="enable-background:new 0 0 612 792;" xml:space="preserve">
<style type="text/css">
	.st0{fill:#010101;}
</style>
<g>
	<path d="M164.3,526.5c-5.6-6.9-2.9-14.3-3.5-21.3c-0.2-1.8,1.2-1.6,2.4-1.6c17.5,0,35,0,52.5,0c1.3,0,2.4-0.1,2.7,1.9
		c0.9,5.8-0.4,15.9-3,20.9c67.7,0,135.3,0,203.3,0c-5.4-6.2-3-13.6-3.5-20.6c-0.1-1.8,0.8-2.2,2.4-2.2c17.5,0,35,0,52.5,0
		c1.4,0,2.8,0,2.6,2c-0.6,6.9,2,14.4-3.7,20.9c12.6,0,24.6,0,36.5,0c2,0,4-0.2,5.6,1.4c1.5,1.5,2.4,3.2,1.4,5.4
		c-1.1,2.4-2.9,3.4-5.6,3.4c-10.3,0-20.7,0-31,0c-115.1,0-230.3,0-345.4,0c-1,0-2,0-3,0c-3.6,0.2-6-1.5-6.1-5.1c0-3.5,2.4-5.2,6-5.1
		c10.7,0.1,21.3,0,32,0C160.8,526.5,162.2,526.5,164.3,526.5z"/>
	<path class="st0" d="M452.1,380.7c12.5,0,23.8,0,35,0c1.6,0,3,0.3,3.8,1.8c1.7,3.2-4.4,14-8,14.2c-4.5,0.1-9,0-13.5,0.1
		c-1.6,0-2.8-0.5-3.9-1.7C461.4,390.5,457.2,386.1,452.1,380.7z"/>
	<path class="st0" d="M181.1,380.7c-5.1,5.5-9.5,10.1-13.8,14.9c-1,1.2-2.3,1.2-3.6,1.2c-2,0-4,0-6,0c-10.7,0-10.7,0-14.4-10
		c-1.5-4.1-0.3-5.9,4.2-6C158.3,380.6,169.1,380.7,181.1,380.7z"/>
	<path d="M475.4,414.6c-19.6-21.1-39.4-42.1-59.1-63.2c-5-5.3-10.9-7.9-18.2-7.9c-54,0-108,0-162,0c-7.1,0-13.1,2.5-17.8,7.5
		c-20.1,21.3-40.1,42.8-60.2,64.2c-4.2,4.5-6.2,9.9-5.5,16c2.5,20.3,5.1,40.6,7.6,61c0.4,3.3,1.3,4.6,5.1,4.6
		c50.7-0.2,101.3-0.1,152-0.1c50.5,0,101,0,151.5,0c3,0,4.9,0.2,5.4-4.1c2.2-19.7,4.9-39.3,7.6-58.9
		C482.8,426.3,480.4,419.9,475.4,414.6z M249.4,445.6c-8.8,0-17.6,0-26.4,0c-8.3,0-16.6-0.2-24.9,0.1c-4.4,0.1-6.1-1.7-5.8-5.9
		c0.1-1.2,0-2.3,0-3.5c-0.2-3.9,1.6-5.3,5.5-4.8c14.3,2,28.6,3.8,42.9,5.6c3.1,0.4,6.2,0.9,9.4,1.3c2.6,0.3,3.3,2.2,3.2,4.3
		C253.2,445.1,251.5,445.6,249.4,445.6z M210,391.1c9-10.4,17.5-20.2,25.9-29.9c1.2-1.4,2.9-1.4,4.6-1.4c51.1,0,102.3,0,153.4,0
		c1.7,0,3.4,0.1,4.6,1.5c8.5,9.7,17,19.4,26.1,29.8C352.8,391.1,282,391.1,210,391.1z M436.4,445.6c-8.5-0.1-17,0-25.4,0
		c0,0,0,0,0,0c-8.3,0-16.6,0-24.9,0c-2.5,0-4.8-0.1-5.2-3.3c-0.4-3.2,1.8-3.8,4.4-4.1c17-2.2,33.9-4.4,50.9-6.7
		c3.9-0.5,5.7,0.9,5.6,4.8c0,1.3-0.2,2.7,0,4C442.7,444.9,440.2,445.7,436.4,445.6z"/>
	<path d="M390.9,221.7c-5.6-38.9-42.6-66.7-82.5-62.3c-36.3,4.1-64.1,33.7-66.2,70.5c-1.9,34.8,22.7,67.4,57.1,75.8
		c4.1,1,10.1-0.2,12,2.9c2,3.3,0.4,8.7,0.4,13.2c0,0,0.1,0,0.1,0c0,3.7,0.3,7.4-0.1,11c-0.4,3.7,1.4,4.3,4.3,3.8
		c2.4-0.4,6.3,2,6-3.6c-0.3-6.1,0.3-12.4-0.2-18.5c-0.4-5.3,1.2-7,6.6-7.9C369.7,300.1,396.8,262.9,390.9,221.7z M325.5,270.8
		c-2.6,0.5-3.3,1.6-3.1,3.9c0.1,1.8,0.1,3.7-0.1,5.5c-0.2,2.9-1.9,4.7-4.8,4.8c-3.1,0.1-4.9-1.8-5.4-4.8c-0.4-2.9,1.3-6.9-0.9-8.5
		c-2-1.5-5.7-0.4-8.7-0.6c-3.2-0.1-5.6-1.5-5.6-5c0-3.7,2.5-5.2,5.9-5.3c6.3-0.1,12.7,0.1,19-0.1c7.2-0.1,12.1-4.7,12.1-11.1
		c0-6.5-4.9-11-12-11.2c-4.8-0.2-9.6,0.4-14.4-0.6c-10.1-2.3-17.3-11-17.2-21.1c0.1-10.2,7.6-19.5,17.9-20.9c3.8-0.5,4-2.1,3.9-5
		c-0.1-6.8,1.6-9.7,5.4-9.3c5.9,0.7,5,5.4,4.8,9.2c-0.2,3.6,0.8,5.3,4.6,4.7c2-0.3,4-0.1,6,0c2.9,0.2,4.7,2.1,4.8,4.8
		c0.1,3-1.8,5.1-4.9,5.2c-3.8,0.2-7.7,0.1-11.5,0.1c0,0,0,0,0,0c-3.2,0-6.3-0.1-9.5,0c-6.2,0.3-10.9,4.7-11.2,10.6
		c-0.3,6.2,3.8,11.1,10.4,11.8c3.5,0.4,7,0.1,10.5,0.2c12.2,0.3,21.6,8.2,22.5,19C345.1,259.4,338.1,268.4,325.5,270.8z"/>
</g>
</svg>
