<?xml version="1.0" encoding="utf-8"?>
<!-- Generator: Adobe Illustrator 19.0.0, SVG Export Plug-In . SVG Version: 6.00 Build 0)  -->
<svg version="1.1" id="Calque_1" xmlns="http://www.w3.org/2000/svg" xmlns:xlink="http://www.w3.org/1999/xlink" x="0px" y="0px"
	 viewBox="0 0 612 792" style="enable-background:new 0 0 612 792;" xml:space="preserve">
<style type="text/css">
	.st0{fill:#25B6D1;}
	.st1{fill:#6ACDE0;}
	.st2{fill:#6CCDE0;}
	.st3{fill:#F8CA1B;}
	.st4{fill:#DD2C2C;}
	.st5{fill:#F9DF58;}
	.st6{fill:#F85655;}
	.st7{fill:#FDFDFD;}
	.st8{fill:#E0E2E3;}
	.st9{fill:#F1B507;}
	.st10{fill:#3E3E3F;}
	.st11{fill:#6ED8EF;}
	.st12{fill:#9BE3F2;}
	.st13{fill:#F9EA99;}
	.st14{fill:#F9DF57;}
	.st15{fill:#F9E998;}
</style>
<g>
	<path class="st0" d="M81,421.8c0-9,0-18,0-27c1.1-3.4,0.2-7,0.5-10.5c-0.7-35.2,9.3-67.7,24.8-98.9c14.9-30,35.6-55.4,60.2-77.7
		c14.7-13.3,31.1-24.5,48.7-33.8c21-11.1,43-19.6,66.3-24.5c12.5-2.6,25.2-2.8,38-3.1c3.5-0.3,7.1,0.6,10.5-0.5c7.3,0,14.7,0,22,0
		c9,0.8,18,0.9,27.1,1.6c16.1,1.3,31.4,6,46.4,11.5c26.8,9.8,51.5,23.5,73.6,41.6c33.2,27.3,58.9,60.4,75.8,100.1
		c6.5,15.4,11.7,31.2,14.9,47.6c2.4,12.2,2.7,24.6,2.7,37c0.3,3.5-0.6,7.1,0.5,10.5c0,8.7,0,17.3,0,26c-1.3,7.6-1.2,15.4-1.7,23.1
		c-0.8,11.1-3.8,21.6-7,32.1c-10.8,35.2-28.1,66.9-52.5,94.5c-26.2,29.6-57.2,52.7-93.8,68.1c-15.3,6.4-30.9,11.4-47.1,14.9
		c-10.2,2.2-20.7,2-31.1,2.7c-1.3,0.1-2.7-0.4-3.9,0.5c-13,0-26,0-39,0c-7.7-1.1-15.4-1.1-23.1-1.8c-10.9-0.9-21.3-3.6-31.7-6.8
		c-35.4-10.8-67.3-28.1-95-52.6c-23.2-20.6-42.8-44.2-57.5-71.7C98,503,89.4,480.1,84.2,455.8c-2.1-9.9-2-20-2.7-30.1
		C81.4,424.4,81.9,423,81,421.8z"/>
	<path class="st1" d="M318.8,146.7c0.1-0.3,0.2-0.6,0.2-0.9c3.7,0,7.3,0,11,0C326.4,147.4,322.6,146.9,318.8,146.7z"/>
	<path class="st1" d="M81,383.8c0.3-0.1,0.6-0.2,0.9-0.2c0.2,3.8,0.7,7.5-0.9,11.2C81,391.2,81,387.5,81,383.8z"/>
	<path class="st2" d="M592.2,384.6c0.3-0.1,0.6-0.1,0.8,0.2c0,3.7,0,7.3,0,11C591.4,392.2,592,388.4,592.2,384.6z"/>
	<path class="st3" d="M322.1,266.6c3.7,2.7,6.8,5.9,9,9.8c2.1,3.7,4.8,4.5,8.9,4.5c30.1-0.2,60.2-0.1,90.3-0.2
		c3.2,0,5.7,0.8,8.1,2.9c5.6,4.7,11.3,9.3,17.1,13.7c2.2,1.6,2.2,2.8,0.4,4.6c-2.4,2.5-4.6,5.2-6.9,7.8c-3.5,1.3-7.1,1.5-10.8,1.5
		c-28.6,0-57.1-0.1-85.7,0c-6.5,0-8.5,1.7-9,7.4c-0.4,4,0.8,5.4,4.9,5.7c2.2,0.2,4.3,0,6.5,0.2c1.9,0.1,3.6,0.5,4.6,2.4
		c-5.4,1-10.9,0.4-16.4,0.3c-3.4,0-5.1,0.9-6.6,4.2c-17,37.3-66.1,44.6-92.7,14c-0.2-1.9,0.3-3.5,1.7-5c4.6-4.8,9.3-9.4,14-14
		c1.3-1.3,3-2,4.9-1.9c3,1.1,4.7,4,7.6,5.4c4.3,2.1,6.2,1.2,6.5-3.6c0.4-6.2-0.5-12.5,0.6-18.8c11.5-13.3,24.4-25,36.7-37.6
		C317.6,268.4,319.3,266.5,322.1,266.6z"/>
	<path class="st4" d="M380,371.1c12.3-0.4,18.8,5.1,21.1,17.2c3,16.7,6.3,33.4,9.3,50c0.5,2.8,1.3,4.3,4.7,4.9
		c14,2.2,22.9,12.9,23,27.1c0.1,7.2,0,14.3-0.1,21.5c-0.9,2-2.8,2.1-4.6,2.3c-2.3,0.2-4.7,0.2-7,0.2c-51.7,0-103.5,0-155.2,0
		c-3.5,0-7,0.4-10.4-0.9c-3.4-3-0.7-5.1,1.2-7.3c1.3-1.5,2.9-2.6,5-2.7c2,0,3.9,0.5,5.8,1.1c8.8,2.7,16.4-4.4,14.3-13.4
		c-0.5-2.1-1.1-4.1-1.5-6.2c0.3-2.1,1.3-3.7,2.7-5.1c6.3-6.4,12.5-13.1,19.8-18.6c0.5-0.2,1.1-0.2,1.6-0.1
		c24.3-1.3,48.5-0.3,72.8-0.6c7.5-0.1,8.1-0.7,6.9-8.1c-1.3-7.7-2.7-15.4-3.8-23.1c-1.8-12.4-8.1-18.5-19.1-18.1c-1,0-2-0.2-2.9-0.7
		c-2-1.6-1.9-3.6-0.4-5.1C368.4,380,372.5,373.5,380,371.1z"/>
	<path class="st5" d="M322.1,266.6c-5.9,7.4-13.1,13.6-19.7,20.3c-6.9,7.1-14.1,13.9-21.2,20.9c-2.6-0.7-2.4-2.9-2.5-4.9
		c-0.2-3.8,0-7.6-0.2-11.5c-0.3-5-2.3-6.1-6.8-3.7c-9.5,5.2-13.8,19.8-9.2,30.8c0.9,2.2,3.5,4.4,1.1,7.2
		c-6.6,6.6-13.1,13.2-19.7,19.7c-27.6-28.7-12.9-79.8,26.2-90.5C289.3,249.8,307,253.1,322.1,266.6z"/>
	<path class="st6" d="M308,443.1c-7,7.3-14.1,14.7-21.1,22c-0.4,0.3-0.8,0.4-1.3,0.4c-1.9-0.5-3.8-1.2-5.7-1.8
		c-4.4-1.2-8.3-0.3-11.3,3.2c-3,3.4-4,7.2-2,11.5c0.8,1.7,1.4,3.4,2,5.1c0,0.5-0.2,0.9-0.6,1.2c-3.6,1.3-5.6,4.4-8,7
		c-3.4,4.4-7.1,4.4-10.4,0.1c0.1-8.2-0.2-16.3,0.3-24.5c0.9-13,10.6-22.9,23.5-24.4c2.8-0.3,3.4-1.3,3.8-3.9
		c3.2-17.6,6.6-35.2,9.9-52.7c1.6-8.6,8.2-15.3,16.6-15.4c25.5-0.2,50.9,0,76.4,0.1c-5.7,5.9-11.3,11.7-17,17.6
		c-0.2,0.5-0.6,0.9-1,1.2c-6.7,1.9-13.5,1.2-20.3,1.3c-7.6,0.1-15.3-0.2-22.9,0.1c-7.6,0.3-13.5,4.9-15.1,12.2
		c-2.3,10.4-3.7,20.9-5.4,31.4c-0.6,3.6,0.7,5.4,4.4,5.6C304.6,440.7,307.1,440.3,308,443.1z"/>
	<path class="st7" d="M249.6,491.9c3.5,0.8,6.9,0.9,10.4-0.1c32.3,0.1,64.5,0.2,96.8,0.2c27.1,0,54.2-0.1,81.3-0.1
		c8.1,2.2,9.6,4.7,8.9,14c-1.2,1.6-2.9,2.2-4.8,2.3c-2,0.1-4,0.2-6,0.2c-61.5,0-122.9,0-184.4-0.1c-3.7,0-7.8,1.1-10.7-2.4
		C240.1,496.7,241.6,494.2,249.6,491.9z"/>
	<path class="st8" d="M241,505.8c68.6,0,137.3,0,205.9,0.1c0.5,10.5-2.1,13.2-12.3,13.2c-59.8,0-119.5,0-179.3,0c-0.7,0-1.3,0-2,0
		C242.9,519,240.5,516.3,241,505.8z"/>
	<path class="st9" d="M359.6,327c-5.5,0-11-0.1-16.4-0.1c-2.8,0-3.9-0.9-3.1-3.9c0.9-3.2,1.6-6.5,1.8-9.8c0.2-3.6,2-4.4,5.1-4.4
		c32.6,0.1,65.1,0,97.7,0c1.5,0,3,0.1,4.3,0.9c-4.3,5.3-8.6,10.5-12.8,15.8c-1,1.3-2.2,1.8-3.8,1.8c-2.8-0.1-5.6,0-8.5,0
		c-7,0-7.1,0-7.8-6.9c-0.2-1.9-0.9-2.6-2.7-2.5c-4.6,0.1-9.3,0.1-13.9,0c-3.2,0-3.8,2.9-5.3,4.7c-3.6,4.4-7.9,6-13.3,4.7
		c-2.9-0.7-1.9-2.9-1.8-4.4c0.5-4.2-1.2-5.7-5.3-5.1c-0.8,0.1-1.7,0-2.5,0c-3.3,0.1-7.1-0.8-9.8,0.4
		C358.3,319.8,361.4,324.3,359.6,327z"/>
	<path class="st10" d="M411.3,519.5c4.5,0,9,0.1,13.5,0c3.1-0.1,4.5,0.8,4.4,4.2c-0.2,5.8,0,11.6-0.1,17.4c-0.1,5.9-3.4,9.3-9.2,9.6
		c-5.8,0.2-11.6,0.2-17.4,0c-5.5-0.2-8.9-3.6-9.1-9.2c-0.2-6.1,0-12.3-0.1-18.4c0-2.7,1.2-3.5,3.7-3.4
		C401.7,519.6,406.5,519.5,411.3,519.5C411.3,519.5,411.3,519.5,411.3,519.5z"/>
	<path class="st10" d="M258.8,532.1c-0.1-12.7-0.1-12.7,12.8-12.6c6.1,0,12.3,0.1,18.4-0.1c3.3-0.1,4.9,0.8,4.7,4.4
		c-0.2,5.5,0,11-0.1,16.4c-0.2,6.9-3.6,10.2-10.6,10.3c-4.8,0.1-9.6,0.1-14.4,0c-7.6-0.1-10.7-3.3-10.8-11.1
		C258.8,537.1,258.8,534.6,258.8,532.1z"/>
	<path class="st0" d="M263.7,325.8c-11.9-17.7-3-34.1,7.4-40.5c2.1-1.3,4.3-3.4,7.3-1.9c3.2,1.7,2.6,4.6,2.7,7.4
		c0.1,5.6,0.2,11.3,0.2,16.9c-0.1,7,0,14-0.2,21c-0.1,5.4-3.1,7.2-7.8,4.9C269.4,331.8,266.3,329.1,263.7,325.8z"/>
	<path class="st11" d="M361.9,389c0.4-0.1,0.7-0.2,1.1-0.3c3.2,0.1,6.4-0.1,9.5,0.4c7.2,1.1,13.2,7.3,14.5,14.6
		c2,11.4,4,22.8,5.9,34.2c0.5,3.2,0.7,5.2-4,5.2c-26.6-0.3-53.3-0.3-79.9-0.3c-1.3-2.3,0.3-3.8,1.6-5.2c14.8-15.1,29.8-30,44.8-44.9
		C357.3,390.8,359.8,390.2,361.9,389z"/>
	<path class="st12" d="M361.9,389c-13.9,14.1-27.9,28.1-41.8,42.2c-3.7,3.8-7.4,7.6-11.1,11.5c-0.3,0.1-0.7,0.2-1,0.4
		c-2.7-0.1-5.4-0.5-8-0.1c-5,0.8-5.7-1.6-4.9-5.7c2-11.2,3.9-22.5,6-33.7c1.6-8.7,8.6-14.7,17.5-14.7C333,388.9,347.5,389,361.9,389
		z"/>
	<path class="st13" d="M402.1,483.8c-5.9-5.7-5.8-14.3,0.1-19.7c5.8-5.2,13.9-4.5,18.8,1.5c0.1,1.9-0.6,3.5-2,4.9
		c-3.9,3.8-7.7,7.7-11.6,11.6C406,483.6,404.3,484.2,402.1,483.8z"/>
	<path class="st5" d="M286,464.9c0.3,0.1,0.5,0.1,0.8,0.1c7.3,10.3,1,20.4-7.1,22.3c-4.4,1.1-8.2-0.3-11.8-2.6
		c0-0.3-0.1-0.6-0.2-0.9c-0.5-1.7-0.1-3.2,1.1-4.6c4.2-4.5,8.6-8.7,13.1-13C283.1,465.1,284.5,464.7,286,464.9z"/>
	<path class="st14" d="M402.1,483.8c6.3-6.1,12.6-12.1,19-18.2c5,5.8,4.9,12.9-0.4,18.1C415.4,489.1,408.4,489.1,402.1,483.8z"/>
	<path class="st15" d="M286,464.9c-6.1,6.3-12.2,12.6-18.3,18.9c-5.9-5.2-6.4-13.1-1.1-18.8C271.9,459.4,280,459.4,286,464.9z"/>
</g>
</svg>
