<?xml version="1.0" encoding="utf-8"?>
<!-- Generator: Adobe Illustrator 19.0.0, SVG Export Plug-In . SVG Version: 6.00 Build 0)  -->
<svg version="1.1" id="Calque_1" xmlns="http://www.w3.org/2000/svg" xmlns:xlink="http://www.w3.org/1999/xlink" x="0px" y="0px"
	 viewBox="0 0 612 792" style="enable-background:new 0 0 612 792;" xml:space="preserve">
<style type="text/css">
	.st0{fill:#333333;}
	.st1{fill:#F45315;}
	.st2{fill:#F45518;}
	.st3{fill:#00A0EF;}
</style>
<g>
	<path class="st0" d="M543,499.4c-1.6,3.1-2.2,6.7-6.1,8.5c-1.6,0.8-0.6,3.7-0.6,5.6c-0.2,7.3-2.6,9.9-9.9,9.9
		c-15.3,0.1-30.6-0.1-46,0.1c-2.8,0-3.6-0.9-4.1-3.5c-4.5-24.5-22.2-40.8-46.8-43.4c-24.3-2.5-49.2,16.3-53.6,40.6
		c-0.3,1.5-0.7,3-0.7,4.4c0.1,2.9-1.4,3.5-4,3.5c-65.3-0.1-130.6-0.1-195.9,0c-3,0-3.9-0.9-4.3-3.8c-3.3-24.8-22.6-42.9-47.5-44.7
		c-23.3-1.6-44.7,13.6-51.6,37.2c-1,3.3-2.3,4.4-5.8,4.3c-7-0.3-14,0-21-0.1c-7.1-0.1-9.9-2.7-9.6-9.7c0.2-5.7-3.6-9.8-4.6-14.9
		c0-4,0-8,0-12c1.8-4.4,2.9-9.1,6.6-12.6c0.8-0.8,0.5-2.8,0.6-4.3c0.3-9.7-0.5-19.3,0.4-29c0.6-6.9,4.3-11.8,9.8-15.4
		c19.3-12.3,39.7-22.3,61.1-30.3c0.6-0.2,1.2-0.2,2.2-0.3c0,2.1-0.4,4,0.1,5.6c1.7,5.5-0.6,8.6-5.3,11.3c-4.7,2.7-8.2,6.9-10.2,12
		c-2,5.2-1.4,6.1,4.2,6.1c75.8,0,151.7,0,227.5,0.1c4.6,0,5.3-1.4,6-5.8c1.9-12.2-3.6-19.7-13.9-24.5c-4.8-2.2-6.7-5.7-7.3-10.6
		c-0.3-2.9-1.4-5.8-2.3-9.1c4.4,0.3,8.2,1.8,12,3.2c31.6,11.8,60.3,28.7,87.5,48.4c3,2.2,6,3,9.6,3.2c32.5,2,63.8,9.1,93.5,22.8
		c4.2,2,8.3,4.2,12,7.1c3.3,2.6,6.1,5.7,7.1,10c0.8,3.1,2.1,5.5,5.6,6.2c2.4,0.5,3.3,2.5,3.9,4.7c0.5,1.7,0,3.7,1.3,5.2
		C543,490.1,543,494.8,543,499.4z"/>
	<path class="st0" d="M210,412.4c-23.3-0.7-49.6-1.2-75.1-8.8c-11.7-3.5-11.7-3.5-9.9-15.4c3.2-21.5,14.8-36.7,34.6-45.5
		c6.2-2.8,12.7-5,18.9-7.7c3.2-1.4,4.3-0.9,5.2,2.7c5,22,12.9,42.9,24.4,62.4c1.2,2.1,2,5.4,4.5,5.6c3.1,0.2,3.6-3.4,5-5.6
		c11.6-19.2,19.4-40,24.3-61.9c1-4.3,2.3-4.3,5.8-2.9c9.1,3.6,18.3,7,26.7,12.1c18.2,11,25.6,28,27.1,48.4c0.2,3.3-1.4,4.8-4.2,5.8
		c-13.7,5.2-28,7.4-42.4,8.9C240.9,411.7,227,412.3,210,412.4z"/>
	<path class="st0" d="M212.6,230.5c21.6,0,36,10.8,39.9,30.3c0.7,3.4,0.5,7,0.6,10.4c0.2,4.7,0.3,9,2.8,13.6
		c3.3,6.2,2.2,13.7-1.2,19.8c-5.2,9.4-10,19.1-16,27.9c-14.5,21.1-41.7,19.2-54.3-3.5c-3.8-6.9-7.3-14-11.8-20.6
		c-3.6-5.3-4.9-11.6-4.5-18.1c0.1-1.8,0.1-4.1,1.1-5.3c4.1-4.5,2.9-9.9,3-15.1C172.8,245.1,187.7,230.4,212.6,230.5z"/>
	<path class="st1" d="M212.8,398.1c-2-3.6-3.2-6.6-5.1-9c-4.4-5.6-2.8-11.4-1.2-17.4c0.4-1.7,1.3-2.6,3.1-2.4c3,0.5,7.7-1.6,8.8,1.1
		c1.9,4.4,4.4,9.5,1.5,14.7C217.6,389.1,215.4,393.2,212.8,398.1z"/>
	<path class="st2" d="M212.8,352.5c2.5,1.9,7.9-2.8,8.1,3.3c0.2,9.1-1.6,10.7-9.6,10.7c-4.6,0-7.3-3.7-6.6-11.2
		C205.2,350.1,210.2,354.2,212.8,352.5z"/>
	<path class="st3" d="M499.7,330.5c-0.7-20-11.4-33.6-29.8-41c-5.1-2-10.4-3.6-15.7-5c-2.6-0.7-3.3-1.9-3.3-4.5
		c0.1-9.5,0-19,0.1-28.5c0-1.3-0.7-3,0.6-3.7c1.6-0.8,2.7,0.9,3.8,1.7c4.4,3.3,5.8,8.3,7.5,13.2c3.2,9,11.3,13.3,20.2,10.7
		c8.5-2.4,13.3-11,11.2-20.1c-0.8-3.8-2.2-7.3-4.2-10.6c-7.7-13.2-18.9-21.2-34.2-23.3c-3.8-0.5-5.7-1.7-5.1-5.8
		c0.3-2.5,0.2-5,0.1-7.5c-0.2-5.4-4.3-9.5-9.5-9.6c-5.1-0.1-9.3,4.1-9.6,9.5c-0.1,2-0.3,4,0,6c0.8,5.2-0.9,7.7-6.4,7.7
		c-2.4,0-4.9,1.1-7.2,1.8c-18.6,5.9-30.3,20.7-31.2,39.7c-1,21.2,7.8,36,26.7,44.2c4.4,1.9,8.9,3.8,13.6,5c3.8,1,4.9,2.8,4.7,6.6
		c-0.4,5.1-0.1,10.3-0.1,15.5c0,0,0,0,0,0c0,3.8,0.2,7.7-0.1,11.5c-0.2,3.2,1.6,8.5-1,9c-3.4,0.7-6.3-3.6-8.6-6.7
		c-1.2-1.7-2.2-3.7-3-5.7c-1.4-3.5-2.7-7.2-3.9-10.8c-1.7-4.7-4.9-7.8-9.6-9.3c-13.4-4.2-25.1,6.6-22.2,21
		c4.1,20.5,17.5,32.6,36.7,39c3.7,1.2,9.1,0.9,11,3.4c2,2.6,0.6,7.6,0.8,11.6c0.3,5.7,4.1,9.4,9.5,9.4c5.3,0,9.3-3.9,9.6-9.4
		c0.1-3.2,0.1-6.3,0-9.5c-0.1-2.2,0.5-3.1,2.9-3.5c6.8-1,13.4-2.8,19.5-6C491.6,366.5,500.4,350.9,499.7,330.5z M431.9,276.8
		c-8.2-2.6-11.7-6.5-12.2-13.1c-0.6-8.1,2-12.6,8.9-16.2c2.5-1.3,3.4-1.2,3.4,2C431.8,258.5,431.9,267.4,431.9,276.8z M451.2,355
		c0-12.2,0-24.4,0-36.7c11.4,2.9,16.5,8.8,16.1,18.5C467.1,346,460.7,353.1,451.2,355z"/>
	<path class="st0" d="M426.7,488.4c-22,0-39.4,17.3-39.4,39.1c-0.1,21.3,17.6,38.8,39.2,38.9c21.2,0.1,38.7-17.5,38.8-38.7
		C465.3,505.8,448.1,488.3,426.7,488.4z M426.5,553.3c-14.4,0-26.1-11.6-26.2-25.9c-0.1-14.4,11.9-26.2,26.4-26.1
		c14.4,0.1,25.6,11.7,25.5,26.3C452.1,541.8,440.5,553.4,426.5,553.3z"/>
	<path class="st0" d="M119.9,488.4c-21.7,0-39,17.2-39,38.9c0,21.6,17.3,39.1,38.9,39.1c21.4,0,39.1-17.6,39.1-39
		C158.9,505.8,141.5,488.4,119.9,488.4z M119.8,553.4c-14.2,0.1-26-11.7-25.9-26c0.1-14.5,11.5-25.9,25.9-25.9
		c14.3,0,26.2,11.8,26,25.9C145.8,541.7,134.2,553.3,119.8,553.4z"/>
	<path class="st0" d="M446.3,527.4c0.1,10.7-8.8,19.6-19.6,19.7c-11.1,0.1-20.4-8.7-20.5-19.5c-0.1-10.8,9-19.8,20-20
		C437.2,507.4,446.2,516.3,446.3,527.4z"/>
	<path class="st0" d="M139.9,527.1c0.1,10.9-8.9,19.8-20,19.9c-10.9,0-19.8-8.5-20-19.3c-0.2-11.1,8.5-20,19.7-20.2
		C130.5,507.4,139.8,516.3,139.9,527.1z"/>
</g>
</svg>
