<?xml version="1.0" encoding="utf-8"?>
<!-- Generator: Adobe Illustrator 19.0.0, SVG Export Plug-In . SVG Version: 6.00 Build 0)  -->
<svg version="1.1" id="Calque_1" xmlns="http://www.w3.org/2000/svg" xmlns:xlink="http://www.w3.org/1999/xlink" x="0px" y="0px"
	 viewBox="0 0 612 792" style="enable-background:new 0 0 612 792;" xml:space="preserve">
<g>
	<path d="M562,504.4c0-7.5-2.4-11-9.3-13.6c-13.2-4.9-26.4-9.9-39.7-14.6c-3.9-1.4-7.1-3.3-10.1-6.1c-24.1-22.6-48.2-45-72.3-67.6
		c-3.8-3.5-7.8-5.2-13-5.2c-51.8,0.1-103.6,0.1-155.5,0c-5.3,0-9.6,1.5-13.8,4.7c-29.9,22.6-59.9,45-89.7,67.6c-2.8,2.1-5.6,3-9.1,3
		c-12.8-0.2-25.7-0.3-38.5,0c-19.5,0.4-33.5,9.7-41.5,27.5c-4.6,10.1-5.1,20.9-4.4,31.8c1.5,23.6,15,40.6,37.6,47.3
		c2.7,0.8,3,2.4,3.6,4.6c6.1,22.5,26.5,38.8,49.2,39.3c24.3,0.5,45.1-14,52.4-36.9c1-3.1,2.2-4.1,5.4-4.1c67,0.1,134,0.1,200.9,0
		c3.9,0,5.6,0.9,6.9,4.9c8.2,25,33.5,40.1,59.3,35.2c21.3-4.1,35.2-17,41.6-37.8c1-3.2,2.1-4.5,5.6-4.3c6.6,0.4,13.3,0.1,20,0.1
		c9.9,0,14.4-4.5,14.4-14.2c0-10.2,0-20.3,0-30.5C562,525,562,514.7,562,504.4z M157.4,598.8c-15.9,0-28.6-12.9-28.6-29
		c0-15.7,12.9-28.6,28.6-28.5c16,0.1,28.7,13,28.6,29C186,586,173.1,598.8,157.4,598.8z M470.8,598.8c-15.6-0.2-28.5-13.2-28.5-28.8
		c0-15.8,13.3-29,29-28.7c15.9,0.2,28.8,13.5,28.5,29.2C499.5,586.1,486.3,599,470.8,598.8z M537.8,551.7c0,3-0.5,4.1-4,4.4
		c-7.9,0.8-12.2-1.2-15.7-9.4c-8.5-19.8-29.6-31.1-51.1-29.6c-20.8,1.5-39.5,15.9-45.9,36c-1.3,3.9-2.9,4.9-6.8,4.9
		c-66.8-0.1-133.6-0.1-200.5,0c-3.5,0-5-0.9-6.1-4.4c-6.6-20.8-26.3-35.7-47.7-36.5c-22.9-0.8-43.6,12.3-51.7,33.6
		c-1.8,4.8-3.6,4.3-6.8,2.2c-3.9-2.5-6.9-5.8-8.8-10c-4.8-11-5.2-22.3-0.7-33.5c3.3-8.1,9.6-12.5,18.6-12.5c7.7,0,15.3,0,23,0
		c7.3,0,14.7-0.2,22,0.1c4.7,0.1,8.7-1.2,12.5-4.1c30.1-22.8,60.4-45.4,90.5-68.2c2.5-1.9,4.9-2.9,8.1-2.9
		c48.2,0.1,96.3,0.1,144.5,0c3.1,0,5.3,0.9,7.5,3c23.4,22,47,43.9,70.5,65.9c3.2,3,6.6,5.3,10.9,6.8c11.3,3.9,22.4,8.3,33.7,12.3
		c2.9,1,4.2,2.2,4.1,5.5C537.6,527.3,537.7,539.5,537.8,551.7z"/>
	<path d="M332.3,170.2c-55.7-0.1-101.4,45.4-101.7,101.1c-0.3,56.3,45.3,102.4,101.4,102.5c56,0.1,101.9-45.5,102-101.4
		C434.1,216.2,388.6,170.4,332.3,170.2z M332,349.4c-43.1-0.2-77.3-35-77.1-78.3c0.2-42.4,35.1-76.7,77.9-76.4
		c42.7,0.2,77.2,35.1,77,78C409.5,315,374.5,349.7,332,349.4z"/>
	<path d="M306.2,295c1.7,0,3.3,0.1,5,0c4.1-0.2,7.8-0.7,7.1,5.7c-0.4,3.4,2.7,5.2,6.1,5.3c5.3,0.1,10.7,0.2,16,0
		c3.9-0.2,5.9-2.3,6.1-6.4c0.5-12.7,0.6-12.6-12-14.6c-7.2-1.1-14.5-2.1-21.6-3.9c-12.1-3-18.5-11.4-18.9-23.7
		c-0.1-4.3-0.1-8.7,0-13c0.2-14.1,9.2-25.8,23-28.9c4.1-0.9,4.8-2.7,4.3-5.9c-0.7-4.3,0.8-5.9,5.3-5.5c5.1,0.5,10.3,0.2,15.5,0
		c2.8-0.1,4.3,0.7,3.6,3.6c-1.2,5.5,1.5,7.5,6.4,9.3c12.3,4.6,19.3,16.4,18.9,29.5c-0.1,2.8-1.2,3.3-3.6,3.2c-5.7-0.1-11.3-0.2-17,0
		c-3,0.1-4.3-0.7-4-3.9c0.4-4.9-2.2-7-6.9-7.1c-5-0.1-10-0.1-15,0c-4.1,0.1-6.3,2.2-6.5,6.6c-0.4,11.8-0.5,11.9,11.1,14
		c6.5,1.2,13.1,2.1,19.7,3.4c13.2,2.6,21.8,13,22,26.5c0.1,5.2,0.5,10.3-0.4,15.5c-1.9,11.7-8.7,19.8-19.7,23.6
		c-4.1,1.4-5.8,3.1-5,7.2c0.7,4.3-0.7,5.9-5.3,5.5c-5-0.5-10-0.3-15-0.1c-3.1,0.1-4.8-0.5-4.2-4c0.9-4.8-0.7-6.9-5.9-8.3
		c-13.8-3.5-22.4-16.7-21.5-31c0.1-2.2,0.8-2.8,2.9-2.7C299.9,295.2,303,295,306.2,295z"/>
</g>
</svg>
