<?xml version="1.0" encoding="utf-8"?>
<!-- Generator: Adobe Illustrator 19.0.0, SVG Export Plug-In . SVG Version: 6.00 Build 0)  -->
<svg version="1.1" id="Calque_1" xmlns="http://www.w3.org/2000/svg" xmlns:xlink="http://www.w3.org/1999/xlink" x="0px" y="0px"
	 viewBox="0 0 612 792" style="enable-background:new 0 0 612 792;" xml:space="preserve">
<style type="text/css">
	.st0{fill:#454B53;}
	.st1{fill:#7AA6C8;}
	.st2{fill:#FBE296;}
</style>
<g>
	<path class="st0" d="M418.5,259.2c-0.1,57.4-47,103.9-104.5,103.8c-57.3-0.1-103.9-47-103.8-104.5c0.1-57.1,47-104,104-103.8
		C372.1,154.8,418.7,201.5,418.5,259.2z"/>
	<path class="st1" d="M295.6,551.9c-34.2,0-68.3,0-102.5,0c-3,0-5,0-6.1-3.9c-6.2-21.1-27-37.4-47.8-38c-25-0.8-45.9,12.1-54.4,34.3
		c-1.9,4.9-3.7,4.2-7,2.1c-5.1-3.3-8.6-7.9-10.4-13.6c-2.9-9.4-3.3-19-0.1-28.5C70.7,494.2,78,489,88.7,489c15.3,0,30.7-0.1,46,0.1
		c4.2,0,7.7-1.3,11-3.8c31.4-23.6,62.8-47.2,94.2-70.8c2.3-1.7,4.4-2.5,7.3-2.5c49.3,0.1,98.6,0.1,147.9,0c3,0,5.3,0.6,7.6,2.8
		c25.1,23.6,50.3,47.2,75.6,70.6c5.4,5,13,5.8,19.5,8.5c7.4,3.1,14.9,5.6,22.5,8.2c3.1,1.1,4.5,2.6,4.4,6.1
		c-0.2,12.8-0.1,25.7,0,38.5c0,2.1-0.3,3.2-2.5,3.2c-3.5,0-7-0.1-10.5,0c-3.1,0.1-3.3-2.3-4-4.2c-5.3-14.1-14.8-24.3-28.4-30.7
		c-28.3-13.4-63.6,1.2-73.5,30.9c-1.6,4.8-3.6,6.3-8.6,6.2C363.2,551.7,329.4,551.9,295.6,551.9z"/>
	<path class="st0" d="M549.5,492.9c-1-5.3-4.4-8.3-9.3-10c-14.4-5.2-28.7-10.5-43.1-15.8c-2.2-0.8-4.2-1.9-5.9-3.5
		c-25.3-23.7-50.7-47.3-75.9-71c-4-3.8-8.4-5.5-13.9-5.5c-53.2,0.1-106.3,0.1-159.5,0c-4.9,0-9,1.4-12.9,4.3
		c-30.9,23.4-62,46.7-93,70c-2.5,1.9-5,2.7-8.2,2.7c-13.5-0.1-27-0.3-40.5,0c-16.1,0.3-29,7-37.9,20.4c-9.6,14.4-10.8,30.6-7.8,47.1
		c3.9,21.2,15.9,35.9,37.2,41.8c2.9,0.8,3.4,2.4,4.1,4.7c6.7,23.6,26.8,39.5,50.7,40.1c24.4,0.6,45.6-14.2,53.2-37.5
		c1.1-3.5,2.7-4.2,5.9-4.2c20.8,0.1,41.7,0,62.5,0c48,0,96,0,144,0c2.5,0,4.4-0.3,5.5,3.2c7.6,23.7,28.4,38.7,52.5,38.4
		c24.5-0.4,44.7-16,51.7-40.2c0.8-2.9,2-3.6,4.8-3.6c7.7,0.1,15.3,0.2,23-0.1c7.2-0.2,10.7-3.3,12.8-10.3
		C549.5,540.4,549.5,516.6,549.5,492.9z M164.4,567.2c-0.6,14.6-14.7,26.8-30.4,26.2c-16-0.6-28.4-13.9-27.7-29.8
		c0.7-17.7,13.7-29.5,31.4-28.6C153.7,535.7,165.1,549.5,164.4,567.2z M456.8,593.4c-16.6,0-29.6-12.9-29.4-29.3
		c0.1-16.6,12.9-29.2,29.6-29.2c16,0,29.1,13.2,29.1,29.3C486.1,580.2,472.8,593.4,456.8,593.4z"/>
	<path class="st2" d="M314.2,179.6c43.9-0.1,79.1,35.1,79.3,79.3c0.2,43-35.3,79-78,79.1c-44.5,0.2-80.3-34.9-80.4-78.8
		C235.1,215.2,270.3,179.8,314.2,179.6z"/>
	<path class="st0" d="M341.3,235.9c-1.7,0-3.3-0.1-5,0c-4.5,0.4-8.1,0.4-7.5-6c0.3-3.2-2.6-4.9-5.8-5c-5.7-0.2-11.3-0.2-17,0
		c-3.9,0.1-5.8,2.4-6,6.5c-0.6,12.8-0.7,12.8,12.3,14.7c6.4,1,12.8,2,19.2,3.1c12.5,2.3,21.9,13.3,22.2,26c0.1,4.2,0.1,8.3,0,12.5
		c-0.2,13.6-7.7,24.7-20.5,29c-4.1,1.4-5.8,3.2-5.1,7.2c0.8,4.5-1.1,5.8-5.5,5.5c-5-0.4-10-0.3-15,0c-3.4,0.2-5.1-0.7-4.5-4.3
		c0.9-4.8-1-6.6-5.9-7.9c-14.4-3.9-22.8-16.2-22.3-31c0.1-2.8,0.9-3.8,3.8-3.7c5.8,0.2,11.7,0.2,17.5,0c2.8-0.1,3.7,0.9,3.8,3.7
		c0.2,6.2,2,7.7,8.3,7.8c4.3,0.1,8.7,0.1,13,0c5.3-0.2,7.6-2.5,7.5-7.8c-0.2-14.5,2.1-11.3-11.8-13.9c-6.7-1.3-13.5-2-20.2-3.3
		c-13.6-2.5-21.6-11.9-21.9-25.7c-0.1-4.2-0.1-8.3,0-12.5c0.2-14.8,8.8-26.1,23.4-29.7c4.3-1,5.4-2.9,4.8-6.7
		c-0.6-3.8,0.7-5.4,4.8-5.1c5.3,0.4,10.7,0.3,16,0c3.4-0.2,4.6,1.2,4.1,4.4c-0.7,4.6,0.8,6.9,5.6,8.5c13.2,4.5,20.5,16.4,20.2,30.7
		c-0.1,2.3-0.7,3.3-3.2,3.2C347.6,235.8,344.5,236,341.3,235.9C341.3,235.9,341.3,235.9,341.3,235.9z"/>
</g>
</svg>
