<?xml version="1.0" encoding="utf-8"?>
<!-- Generator: Adobe Illustrator 19.0.0, SVG Export Plug-In . SVG Version: 6.00 Build 0)  -->
<svg version="1.1" id="Calque_1" xmlns="http://www.w3.org/2000/svg" xmlns:xlink="http://www.w3.org/1999/xlink" x="0px" y="0px"
	 viewBox="0 0 612 792" style="enable-background:new 0 0 612 792;" xml:space="preserve">
<style type="text/css">
	.st0{fill:#5B7B91;}
</style>
<g>
	<path class="st0" d="M506.6,435.9c-13.8-4.9-27.5-10.1-41.2-15c-3.9-1.4-7-3.5-10-6.3c-25-23.5-50.2-46.8-75.2-70.3
		c-3.2-3-6.9-4.4-11.3-4.4c-53.3,0-106.6,0.1-160,0c-5.6,0-10.2,1.5-14.7,5c-30.7,23.2-61.5,46.3-92.2,69.4c-2.5,1.9-5,2.8-8.2,2.8
		c-13.7-0.2-27.3-0.4-41,0c-17.8,0.6-31.6,8.6-40.1,24.5C5.6,455,4.7,469.4,7.1,484c3.5,20.5,14.6,35.2,34.6,41.9
		c4.2,1.4,6.3,3,7.6,7.5c6.4,22.1,27.9,38.1,50.6,38.4c23.8,0.3,45.5-14.9,52.6-37.2c1.2-3.7,2.7-4.8,6.5-4.7
		c68.8,0.1,137.6,0.1,206.4,0c3.5,0,4.7,1.1,5.8,4.4c7.6,24.1,31.8,39.8,56.8,37.1c23.1-2.5,40.7-17.3,47.2-39.9
		c0.8-2.7,1.8-3.7,4.7-3.6c7.2,0.2,14.3,0.1,21.5,0.1c8.2-0.1,12-2.9,14.7-10.8c0-23.4,0-46.7,0-70.1
		C515.3,441.3,512.1,437.8,506.6,435.9z M100.7,546.8c-15.6-0.1-28.4-13.4-28.9-28.6c-0.6-17.4,14.7-31,30.7-30.3
		c15.4,0.7,27.8,13.6,27.7,29.6C130,534.2,117.2,546.9,100.7,546.8z M422.6,546.8c-16.2-0.2-29-13.3-28.8-29.5
		c0.2-17.4,12.8-29.5,30.4-29.3c15.8,0.2,28.2,13.6,27.9,30.4C451.9,534.1,438.5,547,422.6,546.8z M491.1,498.6
		c0.1,3.6-1.3,4.1-4.6,4.5c-7.4,0.9-11.3-1.2-14.7-8.7c-10.1-21.8-28.3-32.2-52.2-31.2c-23.3,0.9-41.7,16.8-48.5,37.6
		c-1,3.1-2.2,4.3-5.4,4.2c-69.2-0.1-138.3-0.1-207.5,0c-2.9,0-4.4-0.8-5.4-3.8c-8.5-24.7-28.2-38.5-54-38.3
		c-20.4,0.2-40.4,14.2-48.3,34.4c-1.9,4.9-4.1,4.3-7.1,2.1c-3.1-2.2-6-4.8-7.8-8.3c-6.1-12.1-6.5-24.6-1.2-37
		c3.5-8.3,10.4-11.8,19-12.1c8.2-0.3,16.3-0.1,24.5-0.1c8.2,0,16.3-0.1,24.5,0c2.8,0,5.2-0.7,7.4-2.4c28.9-21.8,57.9-43.5,86.9-65.2
		c0.8-0.6,1.5-1.3,2.3-2c6-5.5,12.5-7.9,21-7.8c45.8,0.5,91.6,0.4,137.5,0.1c6,0,10.4,1.8,14.6,5.7c13.3,12.8,26.8,25.4,40.2,38.1
		c10.3,9.7,20.7,19.3,31,29c5.2,4.9,12.2,5.8,18.5,8.3c8.2,3.3,16.5,6.1,24.8,9c3.1,1.1,4.5,2.6,4.5,6.1
		C490.9,473.6,490.9,486.1,491.1,498.6z"/>
	<path class="st0" d="M281.4,107c-58.6,0.1-105.3,46.7-105.5,105.3C175.9,268.8,223.5,316,280.5,316c57.2,0,104.4-47,104.4-104.2
		C385,154.7,337.8,107,281.4,107z M280.7,291c-44.1-0.3-79.9-35.9-79.7-79.2c0.3-44.6,36.1-80,80.8-79.7c43.2,0.2,79,36.9,78,81.3
		C358.8,258,322.6,290.8,280.7,291z"/>
	<path class="st0" d="M253.6,235.1c1.8,0,3.7,0.1,5.5,0c4.5-0.4,7.8-0.2,7.1,6c-0.3,3.2,2.4,5.1,5.6,5.2c5.8,0.2,11.7,0.1,17.5,0
		c2.6,0,5-1.5,5.3-3.8c0.6-4.6,0.5-9.3,0.2-13.9c-0.1-2.1-2.6-2.2-4.4-2.5c-9.7-1.6-19.4-2.9-29-5c-13-2.8-20.3-12.1-20.3-25.3
		c0-6.3-0.8-12.7,0.6-18.9c2.9-12.4,10.7-20.2,22.8-23.3c4.1-1,5.2-2.7,4.6-6.3c-0.7-4,0.7-5.6,5.1-5.3c5.3,0.4,10.7,0.2,16,0
		c3-0.1,4.5,0.8,3.9,3.9c-1.1,5.3,1.5,7.2,6.3,9c13,4.8,20.3,16.7,19.8,30.5c-0.1,2.5-0.7,3.6-3.4,3.5c-6-0.1-12-0.1-18,0
		c-2.8,0.1-3.7-0.8-3.8-3.7c-0.1-5.7-2.1-7.7-7.8-7.9c-4.5-0.1-9-0.1-13.5,0c-5.5,0.2-7.5,2.4-7.6,7.7c-0.3,11.4-0.3,11.5,11,13.6
		c6.4,1.2,12.8,2.1,19.2,3.3c15.1,2.8,24,13.4,23.8,28.6c-0.1,5.5,0.5,11-0.7,16.4c-2.5,11.4-9.6,18.9-20.3,22.7
		c-3.8,1.4-5.6,2.7-4.9,6.8c0.7,4.4-0.8,6.3-5.6,5.9c-5-0.4-10-0.3-15-0.1c-3.4,0.2-5.1-0.8-4.4-4.4c0.9-4.8-1.1-6.7-5.9-7.9
		c-14-3.5-23.2-17.1-22.3-31.6c0.1-2.3,0.8-3.3,3.2-3.2C247.3,235.2,250.5,235.1,253.6,235.1z"/>
</g>
</svg>
