<?xml version="1.0" encoding="utf-8"?>
<!-- Generator: Adobe Illustrator 19.0.0, SVG Export Plug-In . SVG Version: 6.00 Build 0)  -->
<svg version="1.1" id="Calque_1" xmlns="http://www.w3.org/2000/svg" xmlns:xlink="http://www.w3.org/1999/xlink" x="0px" y="0px"
	 viewBox="0 0 612 792" style="enable-background:new 0 0 612 792;" xml:space="preserve">
<style type="text/css">
	.st0{fill:#333333;}
	.st1{fill:#00A0EF;}
	.st2{fill:#01A0EF;}
</style>
<g>
	<path class="st0" d="M582.1,397.7c-1.4-0.2-1.7-2.4-2.1-3.8c-1.6-5.6-5.2-9.5-9.9-12.6c-5.4-3.6-11.3-6.4-17.3-8.8
		c-26.6-10.8-54.1-17.3-82.7-19c-5.8-0.4-10.7-1.9-15.5-5.5c-16.1-11.9-33.2-22.1-50.9-31.5c-24.5-13.1-50.2-22-78.1-23.9
		c-36.2-2.5-72.2-1.5-108,4.8c-43.5,7.6-83.9,22.9-121.3,46.2c-5.9,3.7-10,8.9-10.2,16.2c-0.3,9.5-0.2,19-0.4,28.5
		c0,1.5,0.6,3.3-0.6,4.3c-3.6,3.3-4.5,8-6.6,12c0,4.3,0,8.7,0,13c1.3,5,4.9,9.2,4.6,14.9c-0.4,6.7,2.5,9.2,9.4,9.3
		c7,0.1,14-0.2,21,0.1c3.6,0.2,5.1-0.9,6.1-4.4c6.8-23.4,27.2-37.8,51.8-36.8c22.1,0.9,41.7,17.9,46.7,40.5c1.7,7.7,1.7,7.4,9.4,7.8
		c4.4,0.2,5.1-1.3,5.1-5.3c-0.2-23.3,0-46.6-0.2-70c0-4.4,1.3-6.3,6-6.2c36.8,0.1,73.6,0.1,110.4,0c3.1,0,5.3,0.9,7.5,3
		c12.6,12.3,24.9,25.1,38.4,36.5c10,8.4,14.7,17.4,13.4,30.7c-1.2,11.4-0.2,11.4,11.3,11.2c2.6-0.1,3.3-0.8,3.6-3.3
		c0.8-7.3,3.3-14.2,7.1-20.6c11-18.2,31.9-27.4,53.2-23.5c20.7,3.8,37.1,20.5,40.7,41.5c0.5,3.3,1.4,4.7,5.2,4.7c15-0.3,30,0,45-0.1
		c7.2,0,9.8-2.9,10-10c0.1-1.9-1.1-4.8,0.7-5.6c4.1-2,4.5-5.8,6-9.2c0-4.7,0-9.3,0-14C589.1,403.9,588.4,398.7,582.1,397.7z
		 M273.6,306.9c-0.3,12.3-0.2,24.6,0,37c0.1,3.6-1.2,4.6-4.6,4.5c-20.3-0.1-40.6-0.1-61-0.1c-20.2,0-40.3,0-60.5,0
		c-5.1,0-5.7-0.7-4-5.5c2.4-7,7.8-11.5,13.8-15.2c12.2-7.7,25.9-12,39.7-15.5c23.3-6,47-9.3,70.9-10.6
		C272.4,301.2,273.7,302.4,273.6,306.9z M380,347.4c-3.1,2.9-8.9,0.7-13.5,0.9c-5.8,0.2-11.6,0-17.5,0s-11.7,0-17.5,0c0,0,0,0,0,0
		c-14.8,0-29.6-0.1-44.4,0.1c-4,0.1-5.2-1.2-5.1-5.1c0.2-12.5,0.1-25,0.1-37.4c0-2.5,0.1-4.4,3.6-4.4c22.5,0.1,44.9,1.3,66.4,9
		c9.3,3.4,17.7,8.3,25.4,14.6c2.8,2.3,4.4,4.8,3.8,8.5C380.5,338.2,383.3,344.2,380,347.4z"/>
	<path class="st1" d="M396.5,428.2c0-3.1-0.9-5.2-3.2-7.4c-13.4-12.7-26.9-25.4-40-38.4c-3.2-3.2-6.5-4.3-11-4.3
		c-30.8,0.2-61.6,0.1-92.5,0.1c-6.2,0-6.3,0.2-6.3,6.6c0,31.7,0,63.3,0,95c0,0,0,0,0,0c0,31.8,0.1,63.6-0.1,95.5
		c0,4.6,1.2,6.5,6.2,6.5c47-0.2,94-0.1,140.9,0c4.6,0,6-1.5,6-6.1C396.4,526.5,396.4,477.4,396.5,428.2z M269.5,448.5
		c12.5,0,25,0,37.5,0c0,0,0,0,0,0c12.5,0,25,0,37.5,0c2.3,0,5.1-0.4,5.1,3.1c0,3.5-2.9,3-5.1,3c-25,0-50,0-75,0
		c-2.3,0-5.3,0.3-5.4-2.9C263.9,448.1,267,448.5,269.5,448.5z M367.9,479.5c1,0,2,0,3,0c2.1,0.1,3.6,1.2,3.5,3.4
		c-0.1,2-1.6,2.8-3.5,2.8c-2.3,0-4.7,0-7,0c-15,0-29.9,0-44.9,0c-16.1,0-32.3,0-48.4,0c-1,0-2,0-3,0c-1.9,0-3.3-0.8-3.4-2.8
		c-0.1-2.3,1.2-3.4,3.4-3.4c5.2,0,10.3,0,15.5,0C311.3,479.5,339.6,479.5,367.9,479.5z M269.5,509.2c16.6,0,33.3,0,49.9,0
		c16.5,0,33,0,49.4,0c2.3,0,5.3-0.5,5.4,2.8c0.2,3.5-2.8,3.5-5.4,3.5c-33.1,0-66.2,0-99.4,0c-2.6,0-5.5,0.1-5.4-3.4
		C264.2,508.7,267.2,509.2,269.5,509.2z M323.8,546.6c-9.1,0-18.3,0-27.4,0c0-0.1,0-0.1,0-0.2c-9,0-18,0-26.9,0
		c-2.4,0-5.1,0.2-5.1-3.2c-0.1-3.5,2.8-3.1,5.1-3.1c18.1,0.1,36.2,0.2,54.4,0.3c2.4,0,5-0.1,4.9,3.3
		C328.5,546.8,326,546.6,323.8,546.6z M358.7,571.3c-12.9,0.2-23.9-10.3-24.1-23c-0.2-13,10.4-23.7,23.7-23.8
		c12.9-0.1,23.7,10.3,23.9,23.2C382.3,560.2,371.6,571.1,358.7,571.3z M352.8,422.2c-1.7,0-2.3-0.9-2.3-2.5c0-9.9,0-19.8,0-31.1
		c12,11.6,22.9,22.1,34.9,33.6C373.6,422.2,363.2,422.2,352.8,422.2z"/>
	<path class="st0" d="M167.2,412c-21.5,0-38.9,17.6-38.9,39.3c0.1,21.6,17.5,38.8,39.3,38.8c21,0,38.8-17.9,38.7-39
		C206.4,429.5,188.8,411.9,167.2,412z M167.4,476.9c-14.5,0-26-11.5-26-25.9c0-14.5,11.5-26,25.9-26c14.4,0,26,11.6,26.1,25.9
		C193.4,465.2,181.7,477,167.4,476.9z"/>
	<path class="st0" d="M473.9,412c-21.3-0.1-38.9,17.1-39.2,38.4c-0.3,21.5,17.1,39.3,38.7,39.5c21.8,0.2,39.1-16.9,39.3-38.7
		C512.8,429.5,495.7,412.2,473.9,412z M473.3,476.9c-14.2-0.3-25.7-12-25.5-26c0.1-14.4,11.8-25.9,26.3-25.8
		c14.5,0.1,25.8,11.7,25.7,26.3C499.5,465.8,487.7,477.2,473.3,476.9z"/>
	<path class="st2" d="M358,564.8c-9.5-0.1-17.3-7.8-17.2-17.1c0.1-9.2,8.2-16.9,17.6-16.9c9.5,0,17.3,7.7,17.3,17.1
		C375.7,557.6,368.1,564.9,358,564.8z"/>
	<path class="st0" d="M167.6,470.6c-11.2,0.1-20.2-8.6-20.2-19.5c0-11.1,8.8-19.7,20-19.8c10.9,0,19.9,8.6,20.1,19.2
		C187.7,461.5,178.7,470.5,167.6,470.6z"/>
	<path class="st0" d="M493.7,450.7c0.1,10.9-8.5,19.7-19.5,19.8c-11.3,0.2-20.4-8.4-20.6-19.4c-0.2-10.7,8.7-19.7,19.6-19.8
		C484.7,431.3,493.6,439.7,493.7,450.7z"/>
</g>
</svg>
