<?xml version="1.0" encoding="utf-8"?>
<!-- Generator: Adobe Illustrator 19.0.0, SVG Export Plug-In . SVG Version: 6.00 Build 0)  -->
<svg version="1.1" id="Calque_1" xmlns="http://www.w3.org/2000/svg" xmlns:xlink="http://www.w3.org/1999/xlink" x="0px" y="0px"
	 viewBox="0 0 612 792" style="enable-background:new 0 0 612 792;" xml:space="preserve">
<style type="text/css">
	.st0{fill:#37484A;}
	.st1{fill:#1C8E98;}
	.st2{fill:#1E8E98;}
	.st3{fill:#1B8D98;}
</style>
<g>
	<path class="st0" d="M140.7,355.5c3.2,8.4,0.6,13.9-6.6,18c-3.4,1.9-5.7,5.6-7.1,9.4c-1.7,4.7-1.2,5.5,3.9,5.5
		c25.8,0,51.6,0,77.5,0c45,0,90,0,134.9,0c6.4,0,5.9-0.1,6.6-6.6c1-8.9-1.2-16.1-9.7-19.5c-9.5-3.9-10.4-12.1-11.9-20.7
		c9,1.8,17.2,5.2,25.3,8.9c23.9,10.7,46.4,24,67.5,39.5c2.8,2.1,5.7,3,9.2,3.2c30.1,1.8,59.2,8.4,86.8,20.9
		c4.9,2.2,9.6,4.7,13.6,8.3c2.4,2.1,4.4,4.6,5.2,7.8c0.8,3.2,2.1,5.5,5.5,6.2c1.7,0.4,2.8,1.7,3.2,3.5c1.5,7.1,3.4,14.6,0.1,21.1
		c-2.6,5.2-4.9,10-5.7,15.9c-0.5,3.4-4,4.5-7.5,4.5c-14.8,0-29.7-0.1-44.5,0.1c-3,0-3-1.6-3.4-3.6c-4.3-22.2-19.8-36.8-42.1-40
		c-24.5-3.5-49.2,15.2-52.3,40c-0.6,4.6-2.3,5.2-6.2,5.2c-60.3-0.1-120.6-0.1-180.9,0.1c-4.7,0-4.4-2.7-4.9-5.5
		c-3.4-20.6-19.9-36.8-40.2-39.5c-24.2-3.2-45.5,10.5-52.5,34c-1,3.5-2.4,4.4-5.8,4.3c-6.7-0.3-13.3,0-20-0.1
		c-5.9-0.1-8.5-2.7-8.5-8.6c0-3-0.8-5.7-1.9-8.5c-3.7-9.7-3.6-19.3,3.1-27.8c1.3-1.6,1.6-3.1,1.6-5c0-8.5,0-17,0.1-25.5
		c0-6.1,2.2-11.3,7.2-14.6C99,373.1,119.4,363.3,140.7,355.5z"/>
	<path class="st0" d="M231.8,376.9c-19.7-0.5-44-1.1-67.6-7.9c-12.3-3.5-12.4-4-10-16.7c3.5-18.5,13.6-31.9,30.6-39.9
		c6.3-3,12.9-5.3,19.3-8.1c3-1.3,4.1-0.7,4.9,2.7c4.7,20.5,12,40.1,22.9,58.2c1.2,2.1,1.9,5.5,4.5,5.4c2.6-0.1,3.3-3.5,4.5-5.5
		c10.8-18.2,17.9-37.8,23-58.2c0.4-1.5-0.3-4.2,2.9-3.1c12.8,4.6,25.8,9.2,36.1,18.7c11.4,10.5,15.4,24.1,16.7,38.9
		c0.3,3.2-1.7,4.4-4.2,5.3c-12.3,4.6-25,6.7-38,8.1C263.8,376.3,250.1,377,231.8,376.9z"/>
	<path class="st0" d="M278.1,265.2c0.1,3.7-0.7,8.3-3.1,12.1c-4.8,7.7-8.8,15.9-13.5,23.6c-6.1,10-15.4,16-27.5,14.8
		c-13.7-1.3-21.9-10.3-27-22.3c-1.4-3.3-2.9-6.2-5.1-9c-5.4-6.7-9.8-15.1-6.8-23c3.6-9.5,2.1-19.2,4.4-28.6
		c4.2-17.1,18.8-27.2,38-26.4c18,0.8,30,8.8,34.9,23.2c2,5.8,1.7,11.8,1.9,17.8c0.1,3.3-0.3,6.4,2.5,9.2
		C278.5,258.6,278,261.7,278.1,265.2z"/>
	<path class="st1" d="M236.3,363.4c-4.1-7.6-9.9-13.7-6.5-23.2c1.6-4.6,4.6-3.2,7.4-3.6c3.1-0.4,4.5,0.6,5.7,3.8
		C246.2,349.7,240.3,355.9,236.3,363.4z"/>
	<path class="st2" d="M236.3,320.8c2.4,1.7,7.1-2.5,7.5,2.9c0.6,7-1.8,10.3-6.9,10.3c-7.1,0-8.2-1-8.1-9.9
		C228.9,318,234.1,322.9,236.3,320.8z"/>
	<path class="st3" d="M474.3,260.7c-3.9-1.3-7.9-2.6-11.9-3.7c-1.9-0.5-2.7-1.5-2.7-3.5c0.1-10.3,0-20.6,0-31.4
		c3.6,1.3,5.5,3.3,7.2,5.6c2.2,3,2.8,6.7,4.2,10.1c3.4,7.7,11.1,11.2,18.9,8.8c7.6-2.4,12-10.1,10.3-18.2c-0.7-3.3-1.8-6.4-3.4-9.3
		c-7.2-13.1-18.1-21.1-33-23.1c-3.4-0.4-4.7-1.6-4.3-5c0.3-2.6,0.2-5.3,0-8c-0.5-5-4.6-8.4-9.5-8.3c-4.8,0.1-8.2,3.6-8.4,8.7
		c-0.1,2.5-0.2,5,0,7.5c0.3,3.2-0.7,4.6-4.2,5.1c-11.1,1.8-21.2,5.9-28.6,14.8c-18.4,22.1-9.7,55.2,17.4,66.6
		c5,2.1,12.4,1.9,14.6,6.3c2.3,4.5,0.6,11.1,0.6,16.7c0,7.1,0,14.1,0,21.8c-5.3-2.6-8.8-5.8-10.8-10.4c-1.8-4.1-3.3-8.3-4.8-12.6
		c-1.5-4.2-4.4-7-8.5-8.4c-5.8-2-11.2-1.2-16,2.7c-5.5,4.5-6.7,10.6-5.3,17.2c4.4,20.2,18,31.5,37.1,37c8.2,2.3,8.3,2.1,8.3,11.1
		c0,6.9,3.6,11.3,9.2,11.1c5.4-0.1,8.8-4.4,8.9-11.1c0-9.1,0-9.1,8.6-11.3c1.6-0.4,3.2-0.9,4.8-1.4c19.7-6.3,32.2-23.3,32.3-43.9
		C505.5,282.6,494.3,267.5,474.3,260.7z M438.7,249.1c-5.4-2.9-8.8-6.9-8.7-13.4c0.1-6.4,3.3-10.6,8.8-13.3c2-1,3-1,2.9,1.7
		c-0.1,3.8,0,7.7,0,11.5c0,3.8-0.1,7.7,0,11.5C441.8,249.7,441.2,250.4,438.7,249.1z M474.9,306.8c-0.4,8.1-6.5,14.8-15.2,16.3
		c0-10.7,0-21.3,0-31.9c0-2.1,0.7-2.5,2.7-1.9C470.9,292,475.4,298.1,474.9,306.8z"/>
	<path class="st0" d="M149.6,448.1c-20.5-0.1-36.8,16-36.9,36.6c-0.1,20.3,16,36.4,36.3,36.5c20.3,0.1,36.6-16.1,36.8-36.2
		C185.9,465,169.5,448.3,149.6,448.1z M149.3,509.1c-13.4,0.1-24.3-10.6-24.4-23.8c-0.1-13.6,10.5-24.7,24-24.9
		c13.2-0.2,24.8,11,24.8,24.2C173.7,498.1,162.8,509,149.3,509.1z"/>
	<path class="st0" d="M436.4,448.1c-19.6-0.2-36.4,16.5-36.6,36.1c-0.2,20.5,15.9,36.8,36.4,37c20,0.2,36.5-15.9,36.7-35.6
		C473.1,464.7,457.2,448.3,436.4,448.1z M436.7,509.1c-13.6,0-24.5-10.8-24.6-24.3c-0.1-13.3,11.4-24.7,24.5-24.5
		c13.6,0.2,24.3,11.1,24.3,24.7C460.9,498.2,449.9,509.1,436.7,509.1z"/>
	<path class="st0" d="M149,503.1c-10.5-0.1-18.8-8.4-18.7-18.6c0.2-10,8.5-18.1,18.7-18.2c10.3-0.1,18.8,8.3,18.8,18.5
		C167.9,495.2,159.7,503.2,149,503.1z"/>
	<path class="st0" d="M436.2,503.2c-10.6-0.2-18.6-8.4-18.4-18.8c0.2-9.9,8.8-18.2,18.8-18.1c10.6,0.1,18.9,8.7,18.7,19.3
		C454.9,495.5,446.4,503.4,436.2,503.2z"/>
</g>
</svg>
