<?xml version="1.0" encoding="utf-8"?>
<!-- Generator: Adobe Illustrator 19.0.0, SVG Export Plug-In . SVG Version: 6.00 Build 0)  -->
<svg version="1.1" id="Calque_1" xmlns="http://www.w3.org/2000/svg" xmlns:xlink="http://www.w3.org/1999/xlink" x="0px" y="0px"
	 viewBox="0 0 612 792" style="enable-background:new 0 0 612 792;" xml:space="preserve">
<g>
	<path d="M551.1,402.4c-2.1-3.9-5.5-7.2-10.8-6.7c-11.6,1.2-23.2,2.3-34.7,3.9c-3.7,0.5-5.2-0.6-6.6-3.9
		c-11.6-27.7-23.4-55.4-35.1-83.1c-7.8-18.5-24-29.5-44.1-29.5c-71.8,0-143.7,0-215.5,0c-19.1,0-36,11.4-43.5,29
		c-11.9,28-23.8,55.9-35.7,83.9c-0.9,2.1-1.3,4.2-4.6,3.8c-10.1-1.3-20.2-2-30.3-3.2c-9.2-1.1-15.4,2.6-18,11.6
		c-1.1,4-1.8,8.2-2.1,12.3c-0.7,11.2,4.4,18.9,14.6,23.8c6.4,3,13.3,2.7,20.1,4c0.1,0.6,0.1,0.8,0.1,0.9c-1.1,2.4-2.3,4.8-3.4,7.2
		c-11.8,25.9-18,52.7-10.6,81c6.6,25.4,19.5,46.5,44.1,58.6c2.1,1.1,1.8,2.5,1.8,4.1c0,7.8,0,15.7,0,23.5c0.1,11.8,8.1,20.1,20,20.3
		c8.2,0.1,16.3,0.2,24.5,0c11.7-0.3,19.6-8.2,19.8-19.9c0.1-7.3,0.2-14.7,0-22c-0.1-3.3,1-4.2,4.2-4.2c72.3,0.1,144.7,0.1,217,0
		c3.4,0,3.7,1.2,3.7,4c-0.2,7.3-0.2,14.7,0,22c0.2,11.1,8.3,19.3,19.3,19.4c8.8,0.1,17.7,0.1,26.5,0c11-0.2,19-8.3,19.2-19.4
		c0.1-7.2,0.3-14.3-0.1-21.5c-0.2-4.2,0.6-6.7,5-8c3.7-1,6.8-3.5,9.6-6.2c31.2-30,42-66.1,31.7-108.3c-2.7-11.2-6.9-21.8-11.6-32.5
		c3.7-0.4,7-0.5,10.3-1.1c8-1.4,14.6-5.4,17.7-13C558,422.6,556.4,412.1,551.1,402.4z M174.7,519.2c-15.4,0-27.6-12.1-27.7-27.5
		c-0.1-15.3,12.3-27.6,27.6-27.6c15.5,0,27.6,12.1,27.6,27.5C202.4,506.8,190,519.2,174.7,519.2z M160.2,408.8c-5.9,0-5.9,0-3.6-5.3
		c11-25.8,22-51.6,32.8-77.5c3.5-8.3,9.2-12,18.1-12c70.2,0.1,140.3,0,210.5,0c9.5,0,13.3,2.6,17,11.5c11,26.2,22.1,52.3,33.2,78.4
		c0.6,1.5,1.7,2.9,1.5,4.9c-27.7,0-55.3,0-82.9,0C311.2,408.8,235.7,408.8,160.2,408.8z M446.4,519.2c-15.7,0.1-28.1-12.1-28-27.7
		c0.1-15.1,12.2-27.4,27.2-27.5c15.9-0.1,28.1,12.2,28.2,28.7C473.9,507.3,461.7,519.1,446.4,519.2z"/>
	<path d="M405.5,205.5c-4.4-4.5-8.7-9.2-12.8-14c-1.7-2-3.5-2.6-6-2.6c-15.2,0.1-30.3,0.1-45.5,0.1c0,0.2,0,0.3,0,0.5
		c-14.7,0-29.3,0-44,0c-7.9,0-6.7,0.8-6.8-6.5c-0.1-6.5,0-13,0-19.5c-0.1-6.7-2-8.7-8.6-8.7c-17.3,0-34.7,0-52,0
		c-6.2,0-8.6,2.3-8.6,8.3c0,26.7-0.1,53.3,0,80c0,6.1,2.4,8.4,8.6,8.4c17.3,0,34.7,0,52,0c6.5,0,8.5-2.2,8.6-8.8
		c0.1-7.5,0-15,0-22.5c0-1.6-0.4-3.4,2.3-3.4c5.1,0.1,10.2-0.7,14.5,3.5c3.1,3,6.8,7.1,10.4,7.2c4,0.1,6.6-5.4,9.8-8.4
		c1.7-1.6,2.7-2.3,4.7-0.2c3.1,3.2,6,8.9,9.6,8.6c3.5-0.3,6.8-5.3,9.9-8.6c1.9-2,3.1-1.6,4.7,0.2c2.4,2.6,5.2,4.8,7.5,7.3
		c1.9,2.1,3,1.7,4.7-0.2c2.8-3.1,5.7-8.1,8.8-8.4c3.6-0.2,6.4,5.1,9.3,8.2c2.2,2.4,3.4,2.1,5.3-0.3c4.4-5.2,9-10.3,13.7-15.2
		C407.4,208.5,407.3,207.4,405.5,205.5z M252.9,237.8c-5-0.1-10-0.2-15,0c-3.1,0.2-4-0.8-3.9-3.9c0.2-10.3,0.1-20.6,0.1-31
		c0-10.2,0.1-20.3-0.1-30.5c-0.1-3,0.6-4.2,3.8-4c5.1,0.3,10.3,0.2,15.5,0c2.2-0.1,2.9,0.6,2.8,2.8c-0.1,21.1-0.1,42.3,0,63.4
		C256.1,237.3,255.2,237.9,252.9,237.8z"/>
</g>
</svg>
