<?xml version="1.0" encoding="utf-8"?>
<!-- Generator: Adobe Illustrator 19.0.0, SVG Export Plug-In . SVG Version: 6.00 Build 0)  -->
<svg version="1.1" id="Calque_1" xmlns="http://www.w3.org/2000/svg" xmlns:xlink="http://www.w3.org/1999/xlink" x="0px" y="0px"
	 viewBox="0 0 612 792" style="enable-background:new 0 0 612 792;" xml:space="preserve">
<g>
	<path d="M425,604.8c-66.2,0-132,0-197.8,0c7-41.3-25.6-70.8-58-70.6c-32.8,0.2-62.2,28.1-58.3,66.6c-1.3-0.4-2.6-0.5-3.6-1
		c-18.5-8.2-28.1-23.2-29.9-42.8c-0.8-9.1-0.2-18.8,1.9-27.7c5-20.8,22.4-33.8,43.8-34c12.8-0.1,25.7,0.2,38.5-0.1
		c2.9-0.1,6.3-1.1,8.6-2.8c30.3-22.6,60.4-45.5,90.9-67.9c3.3-2.5,8.2-4.1,12.3-4.1c52-0.3,104-0.1,156-0.2c5.2,0,9.2,1.6,13,5.2
		c23.8,22.4,47.7,44.7,71.6,66.9c2.1,2,4.8,3.6,7.5,4.7c11.8,5,23.7,9.8,35.6,14.6c2,0.8,4.1,1.5,6.2,2c7,1.7,10.7,5.8,10.7,13
		c0.1,21.2,0.1,42.3,0,63.5c0,8.2-5,12.9-13.2,13c-5.8,0.1-11.7,0-17.5,0c-0.5,0-1-0.1-2.1-0.3c2.6-23.1-4.5-42.6-23.4-56.9
		c-12.7-9.6-27.1-12.8-42.9-10.9C449,538,418.6,563.6,425,604.8z"/>
	<path d="M523.4,593.3c-0.1,22.1-18.4,40.4-40.5,40.4c-22.6,0-41-18.6-40.9-41.1c0.2-22.3,18.7-40.6,41-40.4
		C505.5,552.5,523.5,570.8,523.4,593.3z"/>
	<path d="M128.6,592.7c0.1-22.2,18.4-40.4,40.5-40.4c22.5,0,41.1,18.6,40.9,41.1c-0.2,22.4-18.7,40.6-41,40.4
		C146.5,633.6,128.5,615.2,128.6,592.7z"/>
	<path d="M344.8,193.1c-57.2-0.4-103,44.6-103.4,101.6C241,350.4,287,396.5,343,396.6c55.7,0.1,101.5-45.3,101.9-101.2
		C445.4,240,399.9,193.5,344.8,193.1z M381.4,326.2c-1.2,12.1-7.9,20.5-19.1,24.6c-5,1.8-6.5,4.1-5.8,8.9c0.2,1.1-0.2,2.3-0.3,3.8
		c-7.9,0-15.6,0-23.8,0c0-3.4,0-6.7,0-10.3c-10.2-2-18.5-6.4-23.7-15.4c-3.4-5.9-4.4-11.3-3.4-19.5c7.7,0,15.4,0,23.6,0
		c0.1,1.3,0.2,2.6,0.2,3.8c-0.2,4.4,2.4,6.5,6.3,6.7c5.1,0.3,10.3,0.3,15.5,0c4-0.2,6.3-2.2,6.5-6.6c0.5-12.4,0.6-12.4-11.7-14.4
		c-6.1-1-12.2-2-18.2-3c-14.7-2.5-22.4-11.6-22.6-26.5c0-3.3,0-6.7,0-10c0.1-15.9,9.3-27.1,24.8-30.5c0.6-0.1,1.3-0.3,2.6-0.7
		c0-3.4,0-6.5,0-9.9c8.2,0,15.9,0,24.5,0c-3.1,8.9,2.7,11,9.1,14c11.5,5.4,17.1,17.6,15.3,30.7c-7.7,0-15.4,0-23.2,0
		c-0.1-0.1-0.2-0.3-0.4-0.4c-0.1-0.1-0.2-0.3-0.2-0.4c-0.9-9.2-1.5-9.7-11.1-9.8c-3.5,0-7-0.1-10.5,0.1c-4.4,0.3-6.9,2.3-7,7.3
		c-0.1,11.7-0.3,11.7,11.3,13.5c6.1,1,12.2,2,18.2,3c12.8,2.1,22,11.7,23.1,24.6C381.9,315.2,381.9,320.8,381.4,326.2z"/>
</g>
</svg>
