<?xml version="1.0" encoding="utf-8"?>
<!-- Generator: Adobe Illustrator 19.0.0, SVG Export Plug-In . SVG Version: 6.00 Build 0)  -->
<svg version="1.1" id="Calque_1" xmlns="http://www.w3.org/2000/svg" xmlns:xlink="http://www.w3.org/1999/xlink" x="0px" y="0px"
	 viewBox="0 0 612 792" style="enable-background:new 0 0 612 792;" xml:space="preserve">
<style type="text/css">
	.st0{fill:#3B3C3D;}
</style>
<g>
	<path class="st0" d="M309,393c-34.7,0-69.3-0.1-104,0.1c-9.2,0-17.7-2.4-26.3-5.1c-2.2-0.7-2.6-2-2.6-4.1
		c0.7-32.2,28.3-62.8,60.2-67c1.2-0.1,2.3-0.4,3.5-0.5c12.2-1.8,22.3-1,29.7,11.9c7.3,12.8,17.7,23.7,27.3,35
		c7.8,9.1,16.6,9.1,24.4,0c12.1-14.2,23.5-28.9,34.5-44c1-1.4,1.7-3.1,4-3.3c20.1-1.1,38.8,2.5,54.9,15.5
		c16.7,13.5,25.5,31.2,27.2,52.5c0.2,2.1-0.4,3.4-2.6,4.1c-8.9,2.9-17.8,5.2-27.3,5.1C377.6,392.9,343.3,393,309,393z"/>
	<path class="st0" d="M136.4,518.2c11.7,9.1,25,11.1,39.2,11.1c90-0.2,180-0.2,270,0c13.2,0,25.2-2.9,36.1-11
		c-2.9,17.9-16.9,31.3-35.3,33.4c-4.3,0.5-4.5,2.1-4.5,5.5c0.1,11.7,0.1,23.3,0,35c0,8-3.9,11.9-12,11.9c-6,0-12,0.1-18,0
		c-6.8-0.1-10.8-4.1-10.9-11c-0.1-12.3-0.1-24.7,0.1-37c0.1-3.3-0.9-4.1-4.2-4.1c-58.3,0.1-116.6,0.1-175,0c-3.3,0-4.1,0.9-4.1,4.2
		c0.2,11.8,0.1,23.7,0.1,35.5c0,8.7-3.8,12.4-12.5,12.4c-5.8,0-11.7,0.1-17.5,0c-6.7-0.1-10.9-4.2-10.9-11
		c-0.1-12.2-0.1-24.3,0.1-36.5c0-3.2-0.4-4.4-4.1-4.7C154.2,550.3,138.6,535.9,136.4,518.2z"/>
	<path class="st0" d="M154,367.2c0.5,0,1,0,1.5,0c10.7,0,10.6,0,8.6,10.4c-0.5,2.4-2.1,3.3-3.6,4.4c-9.6,7-18.9,14.2-25.5,24.3
		c-1,1.6-2,1.8-3.7,1c-3.5-1.6-5.9-4.1-6.1-7.9c-0.3-5-0.5-10,0.1-15c1.3-9.7,9.7-16.9,19.7-17.3C148,367.1,151,367.2,154,367.2z"/>
	<path class="st0" d="M464.6,367c3.8,0.2,7.7,0.1,11.4,0.7c10,1.7,16.7,9.7,17,19.8c0.1,3.5,0,7,0,10.5c0,3-1.2,5.5-3.4,7.5
		c-2.8,2.4-5.1,3.5-7.9-0.8c-5.9-9.1-14.2-16-23.2-21.7c-5.7-3.6-4.8-9.3-6.3-14.3c-0.6-1.8,1.3-1.5,2.3-1.5c3.3,0,6.7,0,10,0
		C464.6,367.1,464.6,367.1,464.6,367z"/>
	<path class="st0" d="M482.8,450.3c-0.4-19.1-7.7-35.1-21.9-48.1c-2.7-2.5-5.1-3.2-8.8-1.9c-13.3,4.7-26.7,8.8-41.2,8.7
		c-68-0.3-135.9-0.1-203.9-0.2c-4.2,0-8.3-0.2-12.5-0.6c-10.4-1-19.9-5.1-29.7-8.3c-2.4-0.8-4.2-0.9-6.3,1
		c-12.5,10.8-20.5,24-22.5,40.5c-2,16.1-0.5,32.3-0.9,48.4c0,1.9,0.9,3.5,1.8,5.1c7.1,12.2,17.8,18.1,31.7,18.1
		c46.8,0,93.6,0,140.4,0c46.6,0,93.3,0,139.9,0c13.1,0,23.5-5.1,30.9-16c2.1-3.1,3.1-6.4,3.1-10.3
		C482.8,474.6,483.1,462.5,482.8,450.3z M196.8,485.2c-11.5,0.1-20.7-9.1-20.7-20.5c0-11.1,9.2-20.4,20.3-20.5
		c11.2-0.1,20.7,9.3,20.7,20.6C217,476,207.9,485.1,196.8,485.2z M359.2,448.2c-3,11.1-5.6,22.2-8.3,33.4c-0.6,2.6-1.6,3.7-4.7,3.7
		c-24.8-0.1-49.7-0.1-74.5,0c-3,0-4-1.1-4.6-3.7c-2.7-11.3-5.4-22.6-8.4-33.9c-0.8-3.1-0.1-3.6,2.8-3.6c16,0.1,32,0.1,48,0.1
		c0,0,0,0,0,0c15.5,0,31,0.1,46.5-0.1C359.4,444.1,360.1,444.7,359.2,448.2z M421.2,485.2c-11.2,0-20.1-9-20.2-20.4
		c-0.1-11.1,9.1-20.5,20.1-20.6c11.3-0.1,20.8,9.3,20.8,20.5C441.8,476.3,432.8,485.2,421.2,485.2z"/>
	<path class="st0" d="M388.9,215c-2.6-42-37.9-75.2-79.9-75.1c-44,0.1-80.1,35.9-80,79.5c0,11.9,4.1,22.9,9.2,33.4
		c17.7,37.1,42.7,69.2,68.7,100.7c2,2.4,3,1.5,4.5-0.4c6-7.5,12.3-14.9,18.2-22.5c19.6-25.5,38.5-51.4,51.6-81
		C386.1,238.7,389.7,227.4,388.9,215z M309.7,260c-22.3,0.1-40.5-17.4-40.7-39.3c-0.2-22.5,17.4-40.5,39.8-40.7
		c21.8-0.2,40,17.6,40.2,39.3C349.1,241.6,331.5,259.8,309.7,260z"/>
</g>
</svg>
