<?xml version="1.0" encoding="utf-8"?>
<!-- Generator: Adobe Illustrator 19.0.0, SVG Export Plug-In . SVG Version: 6.00 Build 0)  -->
<svg version="1.1" id="Calque_1" xmlns="http://www.w3.org/2000/svg" xmlns:xlink="http://www.w3.org/1999/xlink" x="0px" y="0px"
	 viewBox="0 0 612 792" style="enable-background:new 0 0 612 792;" xml:space="preserve">
<style type="text/css">
	.st0{fill:#010101;}
	.st1{fill:#010100;}
</style>
<g>
	<path d="M500.9,362.2c-7.3,0-14.7-0.2-22,0.1c-3.1,0.1-4.6-0.8-5.9-3.7c-13.1-28.5-35.8-43.7-66.6-47.4c-11.4-1.3-11.1-1-11.5,10.4
		c-0.2,4.7,1.4,5.5,5.7,5.5c34.6-0.1,63.3,28.9,63.4,63.4c0,2.4-0.6,3.5-2.9,4.2c-6.7,2.2-13.5,3.5-20.5,3.5
		c-67.8-0.1-135.6-0.1-203.4,0c-6.8,0-13.2-1.3-19.6-3.3c-2.7-0.8-3.5-2.1-3.4-4.9c0.7-32.7,25.3-59.5,57.8-62.8
		c3.7-0.4,8.8,1.6,10.8-1.3c1.8-2.7,0.2-7.4,0.5-11.2c0.3-3.3-1-3.8-3.9-3.7c-34.4,0.7-59.3,16.3-74.1,47.4c-1.5,3.1-3,4-6.3,3.9
		c-7.7-0.2-15.3-0.2-23,0c-14.5,0.3-26,9.9-28.4,24c-0.6,3.7-0.4,7.6-0.4,11.5c0,13.4,5,19.5,18,22c0.3,1.1-0.3,1.9-0.7,2.8
		c-5,10.7-7.2,22-7.2,33.9c0.1,18.8,0,37.7,0,56.5c0.1,23.8,14.4,42.6,37.4,48.7c2.8,0.8,3.6,1.7,3.6,4.5c-0.2,10.2-0.2,20.3,0,30.5
		c0.1,10.5,7.9,18.3,18.4,18.4c6.5,0.1,13,0.1,19.5,0c11.3-0.1,19-7.8,19.1-19.2c0.1-9.8,0.1-19.7,0-29.5c0-2.6,0.7-3.3,3.3-3.3
		c53.8,0.1,107.6,0.1,161.5,0c2.6,0,3.4,0.7,3.3,3.3c-0.1,10-0.1,20,0,30c0.1,10.8,7.8,18.6,18.5,18.7c6.3,0.1,12.7,0,19,0
		c11.7-0.1,19.3-7.7,19.4-19.4c0.1-9.7,0.2-19.3-0.1-29c-0.1-3.3,1-4.4,4.1-5.2c18.7-5.2,30.5-17.5,35.5-36.2
		c1.1-4,1.4-8.2,1.4-12.4c0-12.7,0-25.3,0-38c0-18.8,1.4-37.8-8.6-55c13.9-2.5,18.8-8.6,18.8-22.4c0-1.7,0-3.3,0-5
		C531,374.6,518.8,362.3,500.9,362.2z M164.5,403c-1.1-0.1-1.5-1.2-1.5-2.3c0-4.2-0.3-8.4,0.3-12.5c0.8-5.7,5.8-9.7,12-10
		c3.5-0.2,7,0,10.5,0c2.5,0,5-0.1,7.5,0c1.9,0.1,4.8-1.1,5.4,0.9c0.7,2.5,0.7,6.1-1.4,8c-6.2,5.5-12.9,10.6-19.6,15.4
		C174.4,405,169,403.4,164.5,403z M234.4,599.1c-5.3-0.3-10.6-0.2-15.9,0c-3.2,0.1-4.5-0.9-4.4-4.2c0.2-9.5,0.2-18.9,0-28.4
		c-0.1-3,1-3.5,3.7-3.5c5.8,0.2,11.6,0.3,17.4,0c3.6-0.2,4.1,1.3,3.9,4.2c-0.2,4.5-0.1,9-0.1,13.5s-0.2,9,0.1,13.5
		C239.2,597.6,238.3,599.3,234.4,599.1z M463.9,580.5c0,4.8-0.1,9.6,0,14.5c0.1,3-1.1,4.1-4.1,4c-5.6-0.2-11.3-0.1-17,0
		c-2.7,0.1-4-0.7-3.9-3.6c0.1-9.8,0.1-19.6,0-29.4c0-2.4,0.8-3.1,3.1-3c6.3,0.1,12.6,0.2,18.9,0c2.5-0.1,3.1,0.8,3,3.1
		C463.8,570.9,463.9,575.7,463.9,580.5z M471.5,547c-29.7,0.1-59.3,0-89,0c-58.7,0-117.3,0-176,0c-16.1,0-28.8-10.3-32.5-26.9
		c11.7,10,24.7,12.2,38.9,12.1c84.2-0.2,168.3-0.2,252.5,0c14.1,0,27.1-2.2,38.3-11.9C502.1,535.3,487.9,546.9,471.5,547z
		 M504.4,486c-1.6,18.3-15.1,30.1-33.4,30.2c-33.8,0-67.6,0-101.5,0c-10.2,0-20.3,0-30.5,0c-43.8,0-87.6,0-131.5,0
		c-19.3,0-32.8-11.9-33.9-31.1c-0.9-14.7-1.9-29.7,1.3-44.3c3-14,10.9-24.8,22.3-33.2c1.8-1.3,3.3-1.8,5.4-0.8
		c16.1,7,33.1,7.7,50.4,7.6c60.3-0.3,120.6-0.3,181,0c14.1,0.1,27.4-2.3,40.4-7.4c2.8-1.1,4.8-0.7,7.2,1.1
		c15.5,11.9,23.2,27.5,23.2,46.9C504.9,465.3,505.3,475.7,504.4,486z M506.6,403.4c-4.3,0.1-7.5-1-10.7-4
		c-4.1-3.8-8.7-7.2-13.4-10.4c-3.6-2.4-3.2-5.9-3.5-9.3c-0.2-1.8,1.4-1.5,2.5-1.5c7.2,0,14.3-0.3,21.5,0.1c8.4,0.5,12,5.8,12,16.8
		C514.9,404.1,516.3,403.1,506.6,403.4z"/>
	<path d="M339.1,135c-48.7,0-88.3,39.7-88,88.4c0.1,14,5.2,26.7,11.3,38.9c18.4,37.1,43.6,69.6,70,101.1c4.2,5,9.3,4.9,13.6-0.3
		c7.8-9.4,15.5-18.7,22.9-28.4c18.9-24.7,36.9-50.1,49.7-78.7c4.8-10.7,8.5-21.7,8.5-33.6C426.8,174.3,387.3,135,339.1,135z
		 M402.3,253c-14.5,30.6-34.4,57.7-55.6,83.8c-7.7,9.4-7.8,9.4-15.6-0.2c-19.7-24.2-38-49.3-52.3-77.1
		c-5.9-11.4-11.5-23.1-11.7-36.2c-0.7-39.5,32-72.2,71.8-72.2c39.7,0,72.2,32.1,72.1,71.5C410.9,233.4,406.9,243.4,402.3,253z"/>
	<path d="M387.6,439.2c-16.1,0-32.3,0-48.4,0c-16.1,0-32.3,0-48.4,0c-9.1,0-12.1,3.8-10,12.5c3,12.2,6.1,24.5,9.1,36.7
		c1.5,6.1,3.5,7.8,9.7,7.8c26.3,0,52.6,0,78.9,0c5.9,0,8.1-1.7,9.5-7.4c3.1-12.4,6.2-24.8,9.2-37.2
		C399.3,443.2,396.3,439.2,387.6,439.2z M374.2,478.2c-0.5,2.1-1.7,2.1-3.2,2.1c-21.3,0-42.6,0-63.9,0c-1.5,0-2.8,0-3.2-2.1
		c-1.7-7.6-3.7-15.1-5.7-22.8c27.4,0,54.3,0,81.7,0C377.9,463.1,375.9,470.6,374.2,478.2z"/>
	<path class="st0" d="M226.6,439.2c-15.2-0.2-28.4,12.8-28.6,28.1c-0.2,15.8,12.5,28.8,28.1,28.9c15.8,0.1,28.7-12.5,28.8-28.2
		C255.2,452.5,242.3,439.4,226.6,439.2z M226.6,480.2c-7.2,0-12.6-5.5-12.5-12.6c0.1-6.9,5.6-12.3,12.4-12.4c7,0,12.6,5.7,12.5,12.7
		C238.9,474.8,233.5,480.2,226.6,480.2z"/>
	<path class="st1" d="M451.2,439.2c-15.4,0.1-28.2,12.9-28.2,28.4c-0.1,15.8,12.6,28.6,28.4,28.6c15.7,0,28.6-12.8,28.5-28.5
		C479.9,452.1,466.7,439.1,451.2,439.2z M450.9,480.2c-6.8-0.2-12-5.7-11.9-12.6c0.1-6.8,5.7-12.3,12.4-12.3
		c6.9,0,12.6,5.9,12.5,12.8C463.8,475.1,458.1,480.4,450.9,480.2z"/>
	<path d="M339.1,175c-26.4,0-48.1,21.5-48.1,47.9c0,26.4,21.5,48.1,47.9,48.1c26.4,0,48.1-21.5,48.1-47.9
		C387,196.7,365.5,175,339.1,175z M339,255c-17.8,0-32-14.2-32-32c0-17.8,14.2-32,31.9-32c17.7,0,32,14.2,32.1,31.9
		C371,240.7,356.7,255,339,255z"/>
</g>
</svg>
