<?xml version="1.0" encoding="utf-8"?>
<!-- Generator: Adobe Illustrator 19.0.0, SVG Export Plug-In . SVG Version: 6.00 Build 0)  -->
<svg version="1.1" id="Calque_1" xmlns="http://www.w3.org/2000/svg" xmlns:xlink="http://www.w3.org/1999/xlink" x="0px" y="0px"
	 viewBox="0 0 612 792" style="enable-background:new 0 0 612 792;" xml:space="preserve">
<style type="text/css">
	.st0{fill:#657375;}
	.st1{fill:#FDFDFD;}
	.st2{fill:#FCFCFC;}
	.st3{fill:#667476;}
	.st4{fill:#667375;}
</style>
<g>
	<path class="st0" d="M311,628.5c-11.7,0-23.3,0-35,0c-7.6-0.9-15.3-0.8-22.8-1.6c-21.9-2.5-42.5-9.4-62.5-18.3
		c-23.3-10.4-44.8-23.6-63.8-40.7c-22.6-20.2-42.2-43-56.8-69.8c-12.3-22.5-21.6-46.2-26.8-71.3c-2.1-10-2-20.3-2.7-30.4
		c-0.1-1.6,0.5-3.3-0.5-4.9c0-13,0-26,0-39c0.9-7.4,1-15,1.7-22.4c2-21.4,8.9-41.5,17.4-61c10.4-24,24-46.1,41.4-65.6
		c20.3-22.7,43.1-42.5,70.1-57.1c22.1-11.9,45.2-21.2,69.8-26.4c10.5-2.2,21.1-2.1,31.7-3c1.3-0.1,2.7,0.4,3.9-0.5c13,0,26,0,39,0
		c7.9,1.2,15.9,1.3,23.9,1.8c11.1,0.7,21.6,3.6,32.1,6.7c35.3,10.6,66.9,28.1,94.6,52.4c23.3,20.5,42.8,44.2,57.6,71.7
		c11.8,21.9,20.5,44.8,25.6,69.1c2.1,10.3,2.2,20.9,2.7,31.4c0.1,2.3-0.5,4.6,0.5,6.9c0,12,0,24,0,36c-1.1,7.3-1.1,14.7-1.7,22.1
		c-1.6,19.8-7.9,38.3-15.4,56.4c-10.7,25.7-24.7,49.5-43.3,70.3c-20.4,22.9-43.4,42.8-70.6,57.4c-22.4,12.1-45.9,21.5-70.9,26.6
		c-10.7,2.2-21.6,2-32.4,2.7C315.6,628.1,313.2,627.5,311,628.5z"/>
	<path class="st1" d="M296.3,466.6c-30.5,0-61,0-91.5,0c-4.9,0-9.7-0.3-14-2.8c-6.8-3.8-11.4-8.9-10.8-17.5c0.7-9.8-0.9-19.7,1-29.4
		c1.8-9.5,6.4-17.4,13.4-23.9c1.8-1.7,3.5-2.6,6.2-1.5c11.6,4.9,23.7,5.9,36.2,5.9c41.5-0.3,83-0.2,124.4,0
		c10.2,0,19.9-1.7,29.2-5.6c3.3-1.4,5.5-0.5,7.9,1.8c8.7,8.6,13.4,18.9,13.6,31.2c0.1,6.8,0,13.7,0,20.5c0,12.3-8.2,21.1-20.6,21.2
		c-25.8,0.2-51.6,0.1-77.5,0.1C308,466.5,302.1,466.5,296.3,466.6C296.3,466.5,296.3,466.6,296.3,466.6z"/>
	<path class="st1" d="M242.8,271.1c-0.1-30.1,25.8-54.6,55-53.3c30.4,1.4,53.9,27.3,51.2,56.8c-0.7,7.2-3.6,13.8-6.7,20.3
		c-11.5,23.7-27.6,44.3-44.3,64.5c-1.3,1.5-2.2,2.3-3.8,0.3c-18.9-23.3-37.7-46.7-48.8-75C243.6,280,242.6,275.1,242.8,271.1z"/>
	<path class="st1" d="M295.5,386.4c-22.3,0-44.6-0.1-66.9,0.1c-5.9,0-11.5-1-17.2-2.7c-3.4-1-3.9-2.7-3.7-5.8
		C209.4,356,229,337,251,335.2c8.6-0.7,14.5,1.2,19.3,9c4.9,8,11.5,15.1,17.5,22.4c5.1,6.2,11.1,6.1,16.4-0.1
		c7.8-9.1,15.1-18.6,22.2-28.3c1.1-1.4,1.9-2.8,4.2-3.1c24.5-2.9,47.4,13.3,52.7,37.5c0.2,0.8,0.4,1.6,0.6,2.4
		c1.2,7.4,1.2,7.4-6.1,9.6c-4.2,1.3-8.4,1.8-12.8,1.8C341.8,386.5,318.6,386.5,295.5,386.4C295.5,386.5,295.5,386.4,295.5,386.4z"/>
	<path class="st1" d="M411,469.9c-2.5,12.4-10.7,20.3-22.7,22.3c-3,0.5-3.8,1.4-3.7,4.3c0.2,7.3,0.1,14.7,0,22
		c-0.1,6.3-2.5,8.7-8.8,8.8c-3.3,0.1-6.7,0-10,0c-6-0.1-8.4-2.4-8.5-8.6c-0.1-7.5-0.1-15,0-22.5c0-2.8-0.8-3.7-3.7-3.7
		c-38.3,0.1-76.6,0.1-114.9,0c-2.9,0-3.7,1-3.6,3.8c0.1,7.5,0.1,15,0,22.5c-0.1,6.2-2.2,8.3-8.5,8.5c-3.7,0.1-7.3,0.2-11,0
		c-5.1-0.2-7.5-2.8-7.6-7.9c-0.1-7.5-0.1-15,0-22.5c0.1-2.9-0.4-4.2-3.8-4.6c-12.2-1.6-20.4-9.3-23.2-22c12.9,9.6,27.2,7.1,41.1,7.1
		c53.8,0.1,107.6,0,161.4,0.1C393.1,477.4,402.4,476.7,411,469.9z"/>
	<path class="st2" d="M400.2,369.4c16.3-1.2,19.3,8.5,18.5,19.8c-0.2,2.2-0.7,4.3-2.6,5.7c-1.8,1.4-3.3,2-4.9-0.5
		c-4-6.1-9.6-10.6-15.5-14.6c-3.3-2.2-3.5-5.4-4.1-8.6c-0.3-1.8,0.8-1.9,2-1.9C395.9,369.4,398.1,369.4,400.2,369.4z"/>
	<path class="st1" d="M191.8,369.4c0.8,0,1.7-0.1,2.5,0c2,0.3,5.3-1.2,5.7,1c0.5,2.8,0.1,6.3-2.8,8.5c-6.3,4.6-12.3,9.5-17,15.9
		c-1.7,2.4-5.5,0.9-6.3-2.9c-2.2-10.1,0-23.1,15-22.5C189.9,369.5,190.8,369.4,191.8,369.4C191.8,369.4,191.8,369.4,191.8,369.4z"/>
	<path class="st3" d="M295.5,448c-7.6,0-15.3-0.1-22.9,0.1c-2.8,0.1-4.1-0.7-4.7-3.7c-1.4-7-3.2-13.9-5.2-20.8
		c-0.7-2.6,0-3.1,2.4-3.1c20.6,0.1,41.2,0.1,61.9,0c2.4,0,3.1,0.5,2.4,3.1c-1.9,6.9-3.7,13.8-5.2,20.8c-0.6,3-2,3.7-4.8,3.6
		C311.4,447.9,303.4,448,295.5,448C295.5,448,295.5,448,295.5,448z"/>
	<path class="st3" d="M221.2,447.9c-7.6,0.1-13.7-5.9-13.8-13.5c-0.1-7.5,6-13.8,13.5-13.8c7.5,0,13.7,6.1,13.8,13.6
		C234.8,441.8,228.8,447.9,221.2,447.9z"/>
	<path class="st4" d="M370.9,448c-7.2,0.1-13.4-6-13.6-13.2c-0.2-7.7,6-14.2,13.7-14.2c7.1,0,13.4,6.1,13.6,13.2
		C384.8,441.5,378.7,447.9,370.9,448z"/>
	<path class="st0" d="M295.8,297.7c-15.2-0.3-26.8-12.3-26.5-27.3c0.3-14.5,12.8-26.3,27.4-25.9c14.6,0.4,26.3,12.7,26,27.4
		C322.4,286.2,310.1,298,295.8,297.7z"/>
</g>
</svg>
