<?xml version="1.0" encoding="utf-8"?>
<!-- Generator: Adobe Illustrator 19.0.0, SVG Export Plug-In . SVG Version: 6.00 Build 0)  -->
<svg version="1.1" id="Calque_1" xmlns="http://www.w3.org/2000/svg" xmlns:xlink="http://www.w3.org/1999/xlink" x="0px" y="0px"
	 viewBox="0 0 612 792" style="enable-background:new 0 0 612 792;" xml:space="preserve">
<style type="text/css">
	.st0{fill:#9DE6D7;}
	.st1{fill:#3A3640;}
	.st2{fill:#9DE6D8;}
	.st3{fill:#FDFDFD;}
</style>
<g>
	<path class="st0" d="M102.1,380.4c-6.6-21.5-9.1-43.5-7.9-65.9c1.4-26.6,7.7-52.3,19.6-76.2c18.1-36.3,44.7-64.9,80-85.4
		c22-12.7,45.7-20.7,70.7-24.3c16.5-2.4,33.1-2.1,49.8-0.4c23.1,2.3,44.9,8.8,65.6,19.1c33.6,16.8,60.6,41.1,80.4,73.2
		c14.9,24.1,24.2,50,28,78.1c3.7,27.8,1.7,54.9-6.2,81.7c-2.5-0.1-3.1-2.3-4.2-3.8c-5.5-7.8-13-11.7-22.5-11.7c-7,0-14-0.2-21,0.1
		c-5.3,0.2-8.4-1.9-10.5-6.6c-6.8-15.5-18.2-26.9-32.9-35.1c-11.1-6.2-22.9-9.8-35.8-9.4c-3.4,0.1-5.8,0.5-5.8,4.8
		c-0.1,6.3,0.4,7.8,5.4,8.1c8.3,0.4,16.2,1.9,23.7,5.2c20.4,9.1,33.3,24.4,38.2,46.3c0.8,3.7,1.5,7.5,1.7,11.4
		c0.2,4-1.4,6.7-5.4,7.9c-6.2,2-12.6,3.4-19.1,3.4c-68,0-135.9,0-203.9,0c-5.9,0-11.6-1.2-17.2-2.9c-6.4-2-7.8-3.8-7.1-10.6
		c2.5-23.3,13.5-41.2,34-52.8c8.7-4.9,18-7.8,28.1-7.6c2.3,0,5.1,0.3,6.1-2.3c1.2-3.3,1.1-6.9-0.1-10.3c-0.4-1.1-1.6-0.9-2.6-0.9
		c-31.1,0.8-54.5,14.3-69.5,41.8c-0.6,1.2-1.3,2.3-1.8,3.6c-1.8,4.4-4.9,6.3-9.7,6.1c-7.2-0.2-14.3-0.1-21.5-0.1
		c-9.5,0-17,3.9-22.5,11.8C105.2,378.1,104.6,380.3,102.1,380.4z"/>
	<path class="st1" d="M102.1,380.4c6.5-12.3,16.6-18,30.6-17.2c6.5,0.4,13-0.1,19.5,0.1c2.9,0.1,4.4-0.8,5.7-3.5
		c14.6-31.6,39.7-47.1,74.3-48.1c3-0.1,4,0.6,4,3.8c0.1,11.9,0.2,11.9-11.6,12.7c-27.8,1.8-53.1,25.8-56.5,53.5c0,0.2,0,0.3,0,0.5
		c-1.6,14.7-3.3,11.8,11.6,15.9c3.3,0.9,6.9,1,10.4,1c67.8,0.1,135.6,0,203.4,0c6.7,0,13.2-1.3,19.6-3.3c3.2-1,4-2.5,3.9-5.7
		C416,357,390,330,356.9,328c-8.9-0.5-8.9-0.5-8.8-9.6c0.1-7-1.5-6.8,6.7-6.4c32.6,1.6,56.4,17,70.8,46.4c1.9,3.8,3.8,5.1,7.8,4.9
		c6-0.3,12,0.2,18-0.1c14-0.8,24.1,4.9,30.6,17.2c2.8,7.5,2.3,15.4,2,23.2c-0.4,8.9-6.7,14.6-18.5,17.2c12,21.2,8,44.4,8.5,67
		c0.2,11.5,1.2,23-0.8,34.4c-3.5,20.7-15.8,34-35.8,39.9c-3.3,1-4.5,2-4.4,5.6c0.3,9.3,0.1,18.7,0.1,28c0,12.6-7.6,20.1-20.3,20.1
		c-5.5,0-11,0.1-16.5,0.1c-12.6,0-20.2-7.6-20.2-20.2c0-9.3-0.1-18.7,0.1-28c0.1-2.9-0.6-4-3.8-4c-53.2,0.1-106.3,0.1-159.5,0
		c-3.9,0-5,1.1-4.9,5c0.3,9.3,0.1,18.7,0.1,28c-0.1,11-7.3,18.7-18.2,19c-6.8,0.2-13.7,0.2-20.5,0c-10.9-0.4-18.2-8-18.2-19
		c-0.1-9.8-0.1-19.7,0-29.5c0-2.7-0.4-4.1-3.4-4.9c-23.4-6.3-37.5-24.8-37.5-49.1c-0.1-17.2,0.1-34.3-0.1-51.5
		c-0.2-14.2,1.5-27.9,8.6-41c-2-0.5-3.7-0.9-5.3-1.3c-7.2-2-12.8-8.5-13.2-15.9C99.8,395.8,99.3,387.9,102.1,380.4z"/>
	<path class="st1" d="M291.9,136c49.5-0.3,90.1,41.4,88,90.9c-0.5,11.6-4.7,22.4-9.6,32.8c-14,29.9-33.2,56.5-53.4,82.4
		c-5.9,7.6-12.1,15.1-18.4,22.4c-3.9,4.5-9.2,4.6-12.9,0.2c-27.2-32.5-52.4-66.2-71.8-104.2c-27.7-54.3,9.3-112,59.3-122.5
		C279.3,136.6,285.6,136,291.9,136z"/>
	<path class="st2" d="M429,516.6c-1.8,1.1-3.9,0.7-5.9,0.7c-87.5,0-174.9,0-262.4,0c-2,0-4,0.4-5.8-0.7c1.6-2,3.9-1.6,6-1.6
		c22.8-0.1,45.6,0,68.4,0c2.3,0,4.6,0.5,6.9,1c-16-4.4-31.4-10-45.1-19.6c-1.3-3,1.4-3.7,2.9-4.9c4.8-4,9.2-8,11.1-14.3
		c4.5-14.8-3-29.6-17.5-34.3c-14.2-4.6-29,3-34,17.4c-0.5,1.5-0.4,3.4-2.1,4.4c-0.5,0.1-1.1,0.1-1.4-0.2
		c-8.3-7.7-15.7-16.2-21.3-26.1c3.4-13,11.5-22.6,22.1-30.5c1.7-1.2,3.1-0.9,4.6-0.3c16.8,7.3,34.4,7.9,52.4,7.8
		c61.8-0.3,123.7-0.1,185.5-0.1c11.5,0,22.4-3.2,33-7.2c3.6-1.4,6.1-0.9,9,1.5c9.3,7.7,16.7,16.6,19.5,28.7
		c-6,10.3-13.7,19.3-22.5,27.3c-2-1-1.8-3.1-2.3-4.7c-3.4-11.4-13.4-19.1-25.1-19.2c-12.9-0.1-22.7,7-26.6,19.2
		c-3.5,11,0.7,23,10.3,29.9c1.8,1.3,4.9,1.9,4,5.4c-9.9,7.7-21.6,11.7-33,16.2c-4,1.6-8.1,3.1-12.5,3c25.2-0.7,50.4-0.3,75.7-0.4
		C425.2,514.9,427.5,514.5,429,516.6z"/>
	<path class="st3" d="M456.8,521.1c-2.3,15.3-15.5,26.3-31.5,26.6c-16,0.2-32,0.1-48,0.1c-72.3,0-144.6,0-216.9,0
		c-17.1,0-30.3-10.5-33.1-26.6c12.5,10.9,27,12.1,42.3,12.1c82.6-0.2,165.3-0.2,247.9,0C431.9,533.3,445.2,531.1,456.8,521.1z"/>
	<path class="st3" d="M432.9,465.3c1.1-3.9,4.8-5.8,7.1-8.7c4.8-6.2,10-12.2,15-18.3c2,3.4,2.4,7.3,2.6,11.1
		c0.5,13.3,1.2,26.6-0.4,39.9c-1.7,14.6-13.4,25.7-28.1,27.4c-25.6-0.1-51.2-0.1-76.7-0.2c-2.4,0-4.8,0-7.2-0.3
		c16.9-5.1,33-12,48.2-20.9c1.6-1.1,3.2-0.6,4.8-0.1c14.4,4.6,31.9-7.5,33.6-24.1C431.7,469,431.3,466.9,432.9,465.3z"/>
	<path class="st3" d="M128.9,438.2c7.4,8.7,14.8,17.5,22.2,26.2c1.5,1.6,1.1,3.7,1.2,5.7c1.2,17.1,18.9,29.6,33.6,25
		c1.5-0.5,3.2-1,4.8,0.1c15.1,9,31.3,15.7,48.1,21.4c-28,0-55.9,0-83.9,0c-14.7-1.4-27.1-13.2-28.1-27.8c-1.1-16.1-2-32.2,1.2-48.2
		C128.2,439.7,128.6,439,128.9,438.2z"/>
	<path class="st3" d="M416.9,581.8c0,4.5-0.1,9,0,13.5c0.1,3.1-0.8,4.6-4.2,4.5c-5.6-0.2-11.3-0.1-17,0c-2.7,0-3.9-0.9-3.9-3.8
		c0.1-9.8,0.1-19.6,0-29.4c0-2.2,0.8-2.8,2.9-2.8c6.3,0.1,12.6,0.2,18.9,0c2.9-0.1,3.2,1.3,3.2,3.6C416.9,572.2,417,577,416.9,581.8
		C416.9,581.8,416.9,581.8,416.9,581.8z"/>
	<path class="st3" d="M192,581.8c0,4.5-0.1,9,0,13.5c0.1,3.1-0.8,4.6-4.2,4.5c-5.6-0.2-11.3-0.1-17-0.1c-2.6,0-3.9-0.8-3.9-3.7
		c0.1-9.6,0.1-19.3,0-28.9c0-2.8,1.1-3.3,3.5-3.3c6.1,0.1,12.3,0.2,18.4,0c2.4-0.1,3.2,0.6,3.1,3.1C191.9,571.9,192,576.9,192,581.8
		z"/>
	<path class="st0" d="M445.9,379.3c3.3,0,6.6-0.1,10,0c6.6,0.2,11.6,5,12.1,11.5c0.1,0.7,0,1.3,0,2c-0.3,13.3,2.4,11.3-12.1,11.5
		c-1.6,0-2.8-0.4-4-1.6c-4.8-4.8-10.6-8.6-15.9-12.8c-1.1-0.9-2.5-1.5-3.1-3.1c-2.3-5.6-0.9-7.7,5.1-7.7
		C440.6,379.2,443.2,379.2,445.9,379.3C445.9,379.2,445.9,379.3,445.9,379.3z"/>
	<path class="st0" d="M138.2,379.3c2.8,0,5.7-0.1,8.5,0c1.7,0.1,4.5-1,4.9,0.8c0.7,2.6,0.8,6.1-1.4,8c-6.3,5.4-12.9,10.5-19.5,15.4
		c-3.3,2.4-8.7,0.9-13.1,0.5c-0.5-0.1-1.1-0.8-1.3-1.3c-1.8-3.6,0.3-16.5,3.1-19.5c2.8-3,6.3-4.1,10.3-3.9
		C132.5,379.4,135.4,379.3,138.2,379.3C138.2,379.3,138.2,379.3,138.2,379.3z"/>
	<path class="st0" d="M292.8,152c39.4,0.4,71.5,32.5,71.2,71.3c-0.1,10.7-3.9,20.5-8.4,30c-13.9,29.6-33.1,55.7-53.2,81.2
		c-2.7,3.4-5.6,6.6-8.3,10c-1.2,1.5-2.2,2.3-3.8,0.3c-25.1-30.5-48.6-62-64.9-98.4c-16.9-38,9.8-84.6,51.6-93
		C282.2,152.4,287.4,151.9,292.8,152z"/>
	<path class="st1" d="M292.2,440.2c16.3,0,32.7,0,49,0c8.2,0,11.1,3.9,9.1,11.9c-3,12.3-6.1,24.5-9.1,36.8
		c-1.6,6.5-3.9,8.4-10.4,8.4c-25.8,0-51.6,0-77.5,0c-6.5,0-8.9-1.9-10.5-8.3c-3.1-12.3-6.1-24.5-9.1-36.8c-2-8.2,0.9-11.9,9.5-12
		C259.6,440.2,275.9,440.2,292.2,440.2z"/>
	<path class="st1" d="M432.9,465.3c2,19.9-16.7,38.1-39.6,29.8c-10.4-5.6-16.9-13.8-17.2-26c-0.3-14.5,10.7-27.2,24.5-28.7
		c15.5-1.7,28.7,7.8,31.7,23C432.4,464.1,432.7,464.7,432.9,465.3z"/>
	<path class="st1" d="M190.8,495.1c-17.3,4.5-30.6-0.7-37.1-14.7c-2.4-5.1-2.8-10.5-2.5-16c2.3-10,7.5-17.7,17.1-21.9
		c13.5-6,29.3-0.4,36.4,12.7c7,13,2.9,29.1-9.6,37.3C193.6,493.4,192.2,494.2,190.8,495.1z"/>
	<path class="st1" d="M292,271.7c-26.4,0-48-21.3-48-47.4c0-27.1,21.5-48.6,48.5-48.6c25.9,0.1,47.5,21.8,47.5,48
		C340,250.2,318.6,271.7,292,271.7z"/>
	<path class="st0" d="M251.2,456.2c2.1,0,3.7,0,5.4,0c23.8,0,47.6,0.1,71.4-0.1c3.7,0,5,0.6,3.8,4.6c-1.8,5.7-3.2,11.5-4.4,17.4
		c-0.5,2.4-1.5,3.2-4,3.2c-21-0.1-42-0.1-62.9,0c-1.7,0-3.1,0.1-3.7-2.3C255.1,471.5,253.2,464.2,251.2,456.2z"/>
	<path class="st0" d="M404.6,456.2c6.8,0.1,12.3,5.6,12.3,12.4c0,6.9-5.9,12.8-12.7,12.6c-6.7-0.2-12.2-5.8-12.2-12.5
		C392,461.6,397.5,456.1,404.6,456.2z"/>
	<path class="st0" d="M192,468.8c0,6.8-5.6,12.4-12.3,12.5c-6.8,0.1-12.7-5.8-12.6-12.7c0.1-7.1,5.7-12.5,12.8-12.3
		C186.7,456.4,192,461.9,192,468.8z"/>
	<path class="st0" d="M291.7,255.7c-17.8,0-31.8-14.3-31.7-32.3c0.1-17.4,14.5-31.6,32-31.6c17.8,0,32.1,14.4,32,32.1
		C323.8,241.9,309.7,255.7,291.7,255.7z"/>
</g>
</svg>
