<?xml version="1.0" encoding="utf-8"?>
<!-- Generator: Adobe Illustrator 19.0.0, SVG Export Plug-In . SVG Version: 6.00 Build 0)  -->
<svg version="1.1" id="Calque_1" xmlns="http://www.w3.org/2000/svg" xmlns:xlink="http://www.w3.org/1999/xlink" x="0px" y="0px"
	 viewBox="0 0 612 792" style="enable-background:new 0 0 612 792;" xml:space="preserve">
<style type="text/css">
	.st0{fill:#C0DC91;}
	.st1{fill:#B7D887;}
	.st2{fill:#BADA8A;}
	.st3{fill:#C8DF9B;}
	.st4{fill:#AED47D;}
	.st5{fill:#E9E9E9;}
	.st6{fill:#EBEBEB;}
	.st7{fill:#E3E4E3;}
	.st8{fill:#CBE09E;}
	.st9{fill:#E3E3E3;}
	.st10{fill:#EDEDED;}
	.st11{fill:#ADB3A5;}
	.st12{fill:#C1C3BF;}
	.st13{fill:#E7E8E6;}
	.st14{fill:#E8E8E6;}
	.st15{fill:#E5E6E5;}
	.st16{fill:#CADF9F;}
	.st17{fill:#CBCDCA;}
	.st18{fill:#D2D3D0;}
	.st19{fill:#B3B6AE;}
	.st20{fill:#B0D57E;}
	.st21{fill:#FDFDFD;}
	.st22{fill:#A4A89F;}
	.st23{fill:#C2C5BF;}
	.st24{fill:#A4D071;}
	.st25{fill:#A1AD92;}
	.st26{fill:#C3C4C2;}
	.st27{fill:#C7C7C6;}
	.st28{fill:#D2D3D2;}
	.st29{fill:#8AC155;}
	.st30{fill:#92C65E;}
	.st31{fill:#9ACA66;}
	.st32{fill:#CBCBCB;}
	.st33{fill:#CCCCCB;}
	.st34{fill:#95C861;}
	.st35{fill:#9ECD6B;}
	.st36{fill:#9B9E98;}
	.st37{fill:#C6C7C6;}
	.st38{fill:#A7D175;}
	.st39{fill:#A3CF70;}
	.st40{fill:#AFD57E;}
	.st41{fill:#7FBB4A;}
	.st42{fill:#ABAEA8;}
	.st43{fill:#9EA29A;}
	.st44{fill:#80BB4B;}
	.st45{fill:#9EA19A;}
	.st46{fill:#A2A4A0;}
	.st47{fill:#9B9F97;}
	.st48{fill:#A2A69F;}
	.st49{fill:#9DA199;}
</style>
<g>
	<path class="st0" d="M216.1,383.9c-1.6-1.8-2.3-3.5,0.9-4.4c1.4-0.4,2.7-1,4-1.6c4.4-1.6,9.5-2.1,11.9-7.2c0.6-2.4,2.6-3.4,4.4-4.5
		c16.8-9.7,33.7-19.4,50.4-29.2c14-8.2,28.7-15.3,41.8-25.1c2-0.9,3,0.6,4.1,1.7c1.1,1.1,2.2,1.3,3.4,0.2c3.1-2.9,6.2-5.8,9.3-8.7
		c1.3-1.3,2.6-2.6,4.7-2.2c1.1,0.8,1.8,1.8,2.2,3.1c0.7,5.6,4.2,10.5,3.7,16.4c-2,4.1-6.1,5.6-9.6,7.6c-23.2,13.1-46,26.6-69.1,39.9
		c-16.1,9.3-32.3,18.5-48.3,27.9c-0.4,0.3-0.9,0.3-1.4,0.3C224,393.7,219.5,389.3,216.1,383.9z"/>
	<path class="st1" d="M215.9,439.1c-2.7-0.8-1.2-2-0.3-3c2.1-2.4,4.2-4.8,6.3-7.2c1.2-1.5,2.2-3.3,3.7-4.6c1.6-1.6,1.2-2.8-0.5-4
		c-1.4-1-3.5-1.4-3.9-3.6c0-2.7,2.1-3.6,4-4.6c25-13.9,49.5-28.7,74.3-42.9c23.9-13.5,47.5-27.5,71.4-41.1c1.8-1,3.6-2.6,6-1.6
		c1,0.7,1.3,1.8,1.5,2.9c0.8,5.3,0.8,5.3,6.6,4.6c4-1,8-2,12-3c2.4-0.9,3.8-0.5,3.6,2.4c-0.2,0.5-0.5,0.9-0.9,1.2
		c-9.7,2-17.5,7.8-25.8,12.5c-24.4,13.8-48.5,28.2-73,41.9c-1.7,1-3.4,2-4.9,3.4c-0.6,0,0.2,1-0.1,0.4c-0.1-0.2,0-0.3,0.4-0.3
		c2,0,4.1-0.1,3.5,3c-0.8,0.7-1.7,1.1-2.6,1.3c-3.5,0.6-5.1,2.5-4.9,6.1c0.1,1.6,0.1,3.4-1.7,4.3c-2.9-1.6-1.5-4.4-1.9-6.7
		c-0.4-2.5-1-3.8-3.7-2.1c-3.1,1.9-6.2,3.8-9.5,5.4c-2.7,1.4-2.9,4.3-4.4,6.4c-1.6,0.4-2.8-0.6-4.1-1.2c-6.9-3.3-13.3-1.4-19,2.7
		c-3.4,2.4-5,6.1-3.7,10.5c0.4,1.3,0.8,2.5,0.1,3.9c-5.5,2.1-10.7,4.7-15.8,7.9c-3.1,1.9-5.9,4.1-8.5,6.6
		C218.3,441.1,217.2,439.6,215.9,439.1z"/>
	<path class="st2" d="M377,327c-4,0.3-6.9,3-10.2,4.8c-21.2,12-42.3,24.2-63.3,36.4c-18.8,10.9-37.4,22-56.2,32.9
		c-7,4.1-14.2,7.9-21.3,11.9c-1.7,0.9-3.9,1.3-4,3.9c-3.9,0.2-6.1-3-9.2-4.6c-0.3-0.4-0.4-0.9-0.5-1.3c0.1-2.5,2.1-3.6,3.6-5.1
		c3-2,5.9-4,8.9-6c1.1-0.5,1.2-2.7,3.1-1.9c11.8-8,24.4-14.6,36.7-21.8c20.1-11.9,40.4-23.4,60.6-35c8.5-4.9,17-9.7,25.4-14.6
		c1.8-1.1,3.5-2.4,5.3-3.6c1.7-1.1,3.6-1.7,5.4-2.6c1.1-0.7,2.5-0.5,3.6-1.3c3.9-1.9,7.4-4.7,12-5C378.6,318.3,379.8,322.7,377,327z
		"/>
	<path class="st3" d="M330,312c0,2.6-2.2,3.2-3.8,4.1c-15.3,9-30.6,17.8-45.9,26.7c-14.7,8.5-29.5,17.1-44.2,25.6
		c-1,0.6-2,1.2-2.1,2.5c-5.1-2.8-5.5-8.4-7.9-12.8c-0.5-1-0.4-2.2-1-3.3c1-1.4,2.6-0.7,3.9-1c2.4-2.9,5.8-1.8,8.8-1.9
		c6.9-0.2,6.9-0.1,7.5-6.5c1-2.3,3.1-3.4,5.1-4.4c3.7-1.9,7.1-4.3,10.3-6.9c3.4-0.7,2.9-4.1,4.2-6.2c6,3.2,10-1.4,14.5-3.8
		c1.1-0.6,1.8-1.9,3-2.5c1.7-0.1,3.3-0.7,4.7-1.7c4.7-3.2,10.4-5,13.7-10c3.2-0.8,4.2,2.1,5.8,3.6c2.3,2.2,4,2,5.4-0.7
		c2.2-3.4,3.5-7.5,7.2-9.9c2.5-2.8,4.9-2.3,6.9,0.5C327.8,306,330.2,308.4,330,312z"/>
	<path class="st4" d="M220,440c6.2-7.7,14.1-12.4,23.9-14c7,3.3,14.5,4.2,22.2,3.8c2.5-0.1,4.5,1.1,5.5,3.5c1,2.5-0.3,4.5-2,6.2
		c-4,4.1-9.4,4.5-13.9,1c-0.7-0.5-1.2-1.2-1.8-1.7c-1.5-1-2.9-0.6-4.1,0.4c-1.5,1.3-0.7,2.7,0.3,3.9c2.1,2.6,4.8,4,8.1,4.3
		c1.9,0.2,4-0.2,5.8,1.1c0.6,2-1,2.2-2.2,2.3c-11.1,1.3-19.7,7.8-28.5,13.9c-0.4,0.3-0.8,0.5-1.3,0.8c-1.1,0.4-2.2,0.6-3.3,0.5
		c-1.7-0.4-3.7-0.6-2.7-3.2c2-3.7,3.9-7.3,5.9-11c2-5.7,1.6-6.3-3.9-7.8C225.1,443.3,221.8,443,220,440z"/>
	<path class="st5" d="M431,418c-7.4,7.2-7.4,7.2-1,15.4c4.8,6.3,3.9,9.8-3.5,12.8c-1.5,0.6-3.2,0.9-4.7,1.4c-5,1.6-5.8,3.7-3.2,8.1
		c0.5,0.9,1.1,1.7,1.5,2.6c1.6,3.3,3.7,6.7,0.9,10.2c-2.6,3.3-6.5,3.3-10.4,2.8c-5.1-0.6-7.3,2-6.6,7.2c0.4,2.8,1.4,5.4,1.2,8.4
		c-0.2,4.1-2.1,6-6.2,6.1c-3.2,0.1-6.3-0.7-9.3-1.5c-4-1-5.4,0.8-5.5,4.2c-0.1,2.8-0.4,5.6-1,8.4c-1.1,5.3-5,7.5-10,5.2
		c-1.8-0.8-3.5-1.9-5.2-2.8c-4.7-2.7-6.8-1.8-8.3,3.5c-0.8,2.7-1.4,5.5-3.1,7.8c-2.8,4-6.5,4.3-10.1,1c-1.6-1.4-3.4-2.7-5-4.1
		c-4.4-3.7-4.9-3.6-8.4,1.2c-1.6,2.1-3,4.4-4.9,6.3c-3,3.2-6.2,3.8-9.1-0.3c-0.6-0.6-0.6-1.2-0.3-1.9c0.6-0.5,1.3-0.4,1.9-0.2
		c0.4,0.1,0.9,0.3,1.3,0.5c3.8,1.1,5.2-1.7,6.6-4.3c6.9-10.9,7.9-11,17.3-2.6c5,4.5,7.3,3.8,9.4-2.7c3.7-11.5,4.7-11.9,15.8-6.7
		c6.7,3.1,8.6,2,8.7-5.5c0-2,0-4,0.6-5.9c1.4-4.8,3.5-5.9,8.5-5.1c3.8,0.6,7.6,2.8,11.5,0.3c1.3-1.1,1.4-2.6,1.1-4.1
		c-0.3-1.1-0.5-2.3-0.8-3.4c-2.1-9.6-0.4-12,9.5-12.7c9.4-0.7,9.9-1.6,5.7-10.1c-0.4-0.7-0.8-1.4-1.2-2.2c-2.9-5.5-1.9-8.1,3.7-10.5
		c2.3-1,4.8-1.3,7.1-2.4c3.5-1.7,4.2-4.1,1.8-7.1c-1.5-1.8-2.9-3.6-4.3-5.5c-3.7-4.8-3.3-7.7,1.7-11.1c1.4-0.9,2.8-1.9,4.5-1.9
		C429.7,417.1,430.4,417.4,431,418z"/>
	<path class="st6" d="M319,520c0,0.7,0,1.3,0,2c-3-1.6-4-4.8-5.8-7.3c-2-2.7-4.1-3-6.6-0.7c-2,1.8-4,3.5-6.1,5.1
		c-4.6,3.5-9.5,2-11.4-3.5c-3.8-11.3-4-11.5-14.1-6.4c-6.8,3.4-10.7-0.1-11.9-8c-0.5-3.1,1.5-7.1-1.9-9.3c-3-1.9-6,0.7-9,1.1
		c-8.7,1.1-11.2-1.8-9.5-10.5c0.3-1.6,0.2-3.3,0.4-5c0.5-4-1.1-5.4-5.3-5.7c-4.2-0.3-9.2,0.5-12.1-4c-0.3-0.5-0.3-1.3-0.5-1.9
		c1.3-0.8,2.6-0.4,3.8,0.2c3.6,2,7.5,2.3,11.5,2.5c2.5,0.1,5.1,0,6.3,2.9c0.3,4-0.7,7.8-1.4,11.6c-0.5,1.8-0.9,3.5,0.9,4.9
		c3.4,2.7,6.9,0.8,10.3,0.3c3.3-0.5,6.5-1.3,9.1,1.6c1.5,3,0.3,6.3,1.3,9.3c0.6,1.8,0.1,3.9,1.4,5.5c1.6,1.7,3.4,1.9,5.4,0.9
		c2.1-1,4.4-1.7,6.3-2.9c4-2.6,7.2-1.9,9.8,1.9c1.8,3.2,2.1,7,3.6,10.3c1.2,3,3.1,2.8,5.5,1.3c2.7-1.7,4.6-4.2,7.2-6
		c4-2.7,6-2.5,8.6,1.5C316.2,514.5,318.3,516.8,319,520z"/>
	<path class="st7" d="M431,418c-0.7,0-1.4,0-2,0c-0.6-1.6,0.6-2.5,1.4-3.5c1-1.4,1.9-2.8,0.6-4.4c-1.9-1.5-4.3-2.3-5.9-4.2
		c-1.8-1.8-4.4-2.6-5.9-4.7c-2.3-3.5-0.1-5.9,1.9-8.4c2.4-3.1,5.8-5.6,5.7-10.1c-0.7-2.7-3.3-2.4-5.2-3.2c-2.6-1-5.7-0.8-7.6-3.2
		c-1.8-3.2-1.4-6.3,0.5-9.3c2.5-3.9,3.8-8,2.7-12.6c0.2-0.5,0.4-1,0.8-1.4c4,2.1,4.8,5.2,2.8,9.1c-1,1.9-2,3.8-3.1,5.7
		c-2.2,4-1.5,6,2.8,7.5c2.6,1,5.4,1.8,7.9,2.9c4.5,2.1,5.2,4.8,2.8,9.2c-1,1.8-2.4,3.1-3.8,4.6c-5.6,5.8-5.6,6,0.5,11
		c0.7,0.5,1.4,0.9,2,1.3C437.4,409,437.7,412.6,431,418L431,418z"/>
	<path class="st8" d="M282.9,322c-2.9,4.7-8.2,6-12.5,8.6c-2.5,1.5-4.3-0.2-5.3-2.6c-1.8-3.3-1.5-6.7-0.2-10c0.6-1.7-1.2-4.3,2-4.9
		c4.9,1,9.2,3.3,13.5,5.8C281.6,319.6,283.3,320,282.9,322z"/>
	<path class="st8" d="M301,310c0,1.4,0,2.8-1.3,3.5c-4.3,2.4-8,5.8-12.8,7.4c-1.9-3.6,1.8-5.9,2-9c0.7-2,1.4-3.9,2-5.9
		c1.1-3.4,2.8-3.2,5.1-1.1C298,306.3,300.3,307.4,301,310z"/>
	<path class="st9" d="M418,353c0,0.3,0,0.7,0,1c-0.4,0.4-0.9,0.6-1.4,0.9c-1.6,0.5-3.3,0.3-4.9,0c-3.7-1.2-7.7,0.2-11.4-1.2
		c-2.1-1.2-2.5-3.1-2.1-5.1c1-4.8,1.6-9.7,1.8-14.6c0.4-2.4-0.9-3.1-3-3c4.8-1.5,8.1,0.8,7.9,5.9c-0.1,2.6-1.1,5.2-1.6,7.7
		c-1,4.8,0.5,7.2,5.4,7.3C411.8,351.9,414.9,352.6,418,353z"/>
	<path class="st10" d="M245.9,345c0.6,7.9,0.6,7.9-7.7,8c-3.1,0-6.3-0.4-9.3,0.9c1.4-3.9,4.8-2.8,7.6-2.9c6.5-0.1,7.4-1.3,6-7.8
		c-0.9-4.1-2.4-8.3,0.4-12.3c0.2,0.2,0.4,0.3,0.6,0.5C244.8,335.9,246.6,340.2,245.9,345z"/>
	<path class="st11" d="M377,327c0-4.3,0-8.7,0-13c3.9,3.5,4.2,8.1,4.1,13c0,2.9-0.7,6.6,3.9,7.1c-0.8,1.1-2.1,0.7-3.1,1.2
		c-4,1.7-5.3-0.2-4.8-3.9C377.4,329.8,377.2,328.4,377,327z"/>
	<path class="st6" d="M264.9,318c0.1,3.3,0.1,6.7,0.2,10c-0.7,2.7,1.5,7.1-4.1,6.9c-6.2-0.1-12.2-1.3-18-3.8c0,0-0.2-0.1-0.2-0.2
		c3-1.9,6.3-1.3,9.5-0.8c10.1,1.6,10.1,1.7,10.6-8C263.1,320.4,263.2,318.9,264.9,318z"/>
	<path class="st12" d="M220,440c2.9,1,5.7,2.5,8.8,3.1c7,1.2,7.5,2.8,3.1,8.9c0.4-2.8-0.5-4.2-3.5-5.3c-4.5-1.6-10.4-1.7-12.5-7.6
		C217.2,439.4,218.6,439.7,220,440z"/>
	<path class="st13" d="M225.1,354.9c3.6,5,5.1,11.2,8.9,16.1c0.1,1.5,0.1,3.3-1.7,3.7c-3.8,1-7.1,3.5-11.3,3.3c0.5-0.3,1-0.8,1.6-1
		c8.7-3.5,9-4.1,4.6-12.1C225.4,361.6,224.7,358.4,225.1,354.9z"/>
	<path class="st14" d="M288.9,312c0.4,3.2-2.1,5.8-2,9c-1.2,0.9-2,3.2-3.9,1c-4.8-3.9-11-5.4-16-8.9c3.5-0.3,6.7,0.3,9.9,2.1
		C284.2,319.2,284.2,319.1,288.9,312z"/>
	<path class="st6" d="M212.9,411.1c0,0.3,0.1,0.5,0.2,0.8c3.3,2.5,6.5,5,9.9,7.3c1.9,1.3,4.4,2.6,3,5.8c-1.1,1.5-2.2,3.1-4.1,3.8
		c0.8-4.3-0.8-6.9-4.8-8.9c-5.8-3-7.5-6.6-6.3-10.9C212.1,409.1,212.6,410.1,212.9,411.1z"/>
	<path class="st15" d="M365,319c-1,0.7-2,1.4-3,2.1c-3,1.4-4-0.7-5.1-2.9c-1.9-4-2.2-8.6-4.9-12.2c-0.4-1-0.7-1.9-1.1-2.9
		c2.8-1.3,4.4,0.3,5.4,2.6c1.4,3.3,2.7,6.6,4,10C361.1,317.7,362.4,319.3,365,319z"/>
	<path class="st16" d="M330,312c-1.3-2.1-2.7-4.1-3.8-6.3c-1.6-3.2-3.8-4.3-7.1-2.7c0.5-3.5,1.1-5.6,5.4-2.5
		c3.7,2.7,5.6,6.5,8.1,9.9c1.2,1.6,2,3.5,4.4,3.6c-1.3,2.3-2.6,2.8-4.4,0.3C331.9,313.4,330.9,312.8,330,312z"/>
	<path class="st17" d="M246,472.1c-0.5-0.9-1.1-1.9-2.1-1.9c-6.7,0.3-12.9-1.2-18.8-4.3c-0.1-1.1-0.2-2.2,0.9-3c0,2,1.5,2.1,3,2.1
		c4.8,1.3,9.8-0.2,14.6,1.4c1.5,0.5,3.3,0.5,4.1,2.2C247.9,470.2,248.2,471.7,246,472.1z"/>
	<path class="st18" d="M228,398c-1,0.6-2.1,1.2-3.1,1.9c0.8-3.1-1.4-4.8-3.2-6.7c-2.5-2.7-6-4.8-5.6-9.3
		C220.6,388.1,225.5,392,228,398z"/>
	<path class="st16" d="M301,310c-2-1.3-3.7-3-5-5c4.8,0.4,7.1,4.4,10.4,7c1.9,1.5,3.4,2.6,5.6,0.9c-0.9,4.1-2.7,5.1-5.9,1.7
		C304.5,313,302.7,311.6,301,310z"/>
	<path class="st5" d="M431,418c5.3-6.8,5.3-6.8-3-15c2.3,0.2,4,1.5,5.5,3C438.6,411,437.8,414.9,431,418z"/>
	<path class="st0" d="M212.9,411.1c-0.7-0.7-1.4-1.5-2.1-2.2c1.6-1.2,3.1-2.6,5.1-3.1C214.9,407.6,213.9,409.4,212.9,411.1z"/>
	<path class="st19" d="M352,305.9c4.6,2.5,3.9,7.7,5.9,11.6c0.9,1.9,1.5,3.8,4.1,3.5c-1.9,0.9-3.4,3.1-5.9,1.9
		C355.8,317,352.3,311.9,352,305.9z"/>
	<path class="st20" d="M400.1,353c4,0.5,8.1-0.6,12,1c-6.4,1.7-11.7,5.5-17.3,8.7c-2.9,1.6-5,3.6-5.7,6.8c-7.2,3-14.8,4.8-22.2,7
		c-6.4,1.9-6.4,1.9-4.8,8.1c0.5,1.7,1.3,3.5,0.4,5.3c-6.4,2.5-12.4,5.9-18.3,9.4c-2.7,1.6-5.1,3.5-7.1,6c-2.7-0.3-2.6-2.7-3.3-4.4
		c-1.2-3.3-1.9-6.7-3-10.1c-0.6-1.9-1.6-2.9-3.7-2.3c-2.1,0.6-2.4,2-2,3.9c0.9,4.1,2.6,7.9,3.5,12c0.4,1.8,1.4,3.4,0.8,5.3
		c-5.6-0.8-9.8,1.9-13.5,5.7c-4-1.3-5.4-5.1-7.6-8c-3-4-7.3-7.2-8.4-12.5c-1.5-1.4-3.4-1.8-5.9-2.1c4.4-4.7,9.7-6.6,14.5-9.4
		c18.6-10.9,37.3-21.6,56-32.3c8.6-4.9,17.2-9.9,25.9-14.7c2.6-1.4,5.4-2.5,8.5-2.3c2,4.7-0.7,9-1.4,13.5
		C397.2,350.1,397.2,352.1,400.1,353z"/>
	<path class="st21" d="M264,449.1c-6,0.3-11.8,0-15.5-5.6c-0.8-1.2-3.7-3.3-0.5-4.8c2.1-1,4.4-3.9,7.3-0.4
		c4.1,4.8,10.3,4.6,14.2,0.1c1.3-1.5,2-3.1,1.1-5c-0.8-1.7-2.2-2.4-4-2.4c-2.8,0-5.7-0.1-8.5,0c-5.4,0.3-10.2-1.1-14.1-4.9
		c-2.4-8.5-1.4-13.2,4.4-16.4c7.2-4,15.3-6.1,22.5,0.6c2,1,3.2,2.5,2.2,4.8c-1,2.2-6.2,3.6-9,2.3c-2.1-1-4.1-2.2-6.6-1.8
		c-2,0.3-4.5,0.8-4.5,3.1c0,2.5,2.6,1.9,4.3,2c2.1,0.2,4.3,0,6.5,0.1c12.5,0.1,17.3,5.5,16.2,18.1
		C276.9,445.8,270.5,449.9,264,449.1z"/>
	<path class="st21" d="M300,394.8c5.4,6.7,10.7,13.3,16.1,20c4.9,2.9,7.4,8,10.8,12.2c1.5,1.8,0.4,3.4-1.5,4.4
		c-3.8,2.2-7.5,1.9-10.2-1.6c-3.4-4.5-7.2-2.7-11.3-1.7c-3.9,1-6.4,2.7-6.8,7.3c-0.4,5.1-3.7,6.8-9.3,5.6c-1.8-2.3-1.3-5.1-1.2-7.7
		c0.3-7.8,1.3-15.5,2-23.2c0.1-1.2,0.4-2.3,1.4-3.1c0.3-0.8,0.7-1.5,0.7-2.3C291.6,396.6,291.6,396.6,300,394.8z"/>
	<path class="st20" d="M290.1,407.1c-0.7,9.7-1.5,19.3-2.1,29c-0.1,1.7-0.9,3.7,1,5c-2.1,1.1-2.2,1.1-2.8-0.4
		c-0.6-1.5-0.4-3.2-0.7-4.8c-0.2-1-0.4-2-1.5-2.3c-1.4-0.3-2,0.8-2.5,1.8c-0.7,1.3,0,3.5-2.5,3.5c0.6-13.1-3.3-17.1-16.5-17
		c-2.7,0-5.3,0-8,0c-1.8,0-3.4-0.7-4-2.4c-0.6-2,0.9-3.2,2.3-4c3.6-2.2,7.4-3.2,10.9,0.2c2.9,2.8,5.4,0.5,7.7-0.6
		c3.2-1.6-0.8-3.2-0.5-4.9c-0.6-3.8,1.1-6.3,4.5-7.8c4.6-2.1,8.6-5.5,14-7.3C289.6,399.3,289.8,403.2,290.1,407.1z"/>
	<path class="st22" d="M400.1,353c-4.8,1-4.9-1.4-4-5.1c1.2-4.6,2-9.2,2.9-13.9c0.3,0,0.6,0,0.9-0.1c2.7,4.5,0.3,8.9-0.3,13.3
		C399.3,349.3,398.8,351.2,400.1,353z"/>
	<path class="st23" d="M226,425c-0.6-3.3-3.2-4.9-5.8-6.4c-3-1.7-5.4-3.8-7.2-6.7c3.6,0.6,5.9,3.5,8.9,5c1.2,0.8,2.4,1.6,3.7,2.3
		C229.3,421,229.8,422.9,226,425z"/>
	<path class="st8" d="M243.1,331.1c6.2,0.4,12.2,1.7,18,3.8c-3.9,5-10.1,6.7-15.1,10.1C244.6,340.5,243,336,243.1,331.1z"/>
	<path class="st24" d="M279,439c1.5-2.7,0.7-7.9,5.4-7.2c4.2,0.7,2.1,5.1,2.6,8c0.2,1.2,0.2,2.6,2,1.3c4.8-1,8.3-2.8,7.4-8.8
		c-0.3-2.3,1.1-4,3.7-4.4c1.9-0.3,3.9-1,5.7-1.7c4.6-1.9,8.1-1.3,10.7,3.5c1.3,2.4,7.8,2.3,9.6,0.3c1.3-1.4-0.1-2.1-0.7-2.9
		c-3.1-4.1-6.2-8.2-9.3-12.3c3.5-6.2,8.1-7.9,12.7-4.8c2.6,1.5,2.6,4.3,3.5,6.7c1.2,3.5,1.5,7.4,4.7,9.9c0.4,2.9-2.1,3.5-3.8,4.5
		c-26.2,14.5-51.9,29.8-77.9,44.5c-4.2,2.4-7,6.4-11.4,8.3c0.8-4,0.6-8.1,2.1-11.9c1.1-0.8,0.9-2,0.9-3c0.6-2.1-1.1-1.7-2.2-2.1
		c-4.1-1.6-8.7,0.1-12.7-2c8.3-7.4,17.4-13.3,28.8-14.9c1.1-0.2,2.3,0.1,3.2-0.9C270.1,447.3,276,445.3,279,439z"/>
	<path class="st25" d="M232,465c4.6-0.2,9.1,0.3,13.6,1c2.2,0.4,3.1,1.1,1.4,3.1c-3.1-1.6-6.5-2.1-10-2c-2.9,0-5.6-0.2-8-2
		C230,465,231,465,232,465z"/>
	<path class="st26" d="M401,489c-3.3,3.3-7,0.9-10.2,0.3c-7.8-1.5-9.6-0.3-9.7,7.9c-0.2,10.9-2.4,12.1-12.5,7.1
		c-7.7-3.9-8.7-3.5-11.4,4.5c-3.8,11.4-5.1,11.8-14.2,3.7c-6.2-5.5-6.8-5.4-11.5,1.4c-0.7,1.1-1.6,2.1-2.4,3.1c-2.1,2.5-3.8,5.8-8,4
		l0,0c-0.2-0.3-0.3-0.6-0.3-0.9c0-0.3,0.1-0.5,0.1-0.5c0.5-0.9,1.4-1.4,2.2-1.8c3.9-1.9,5.2-5.9,7.6-9c1.9-2.6,3.9-4.6,7.5-3.5
		c4.8,1.9,7.1,6.8,11.8,9.4c1.9-3.7,2.5-7.7,3.9-11.4c2.7-7.5,5.4-8.6,12.2-4.6c3.1,1.8,6.2,3.8,9.8,4.8c3.8-2,2.7-6,2.7-8.7
		c0.1-8.9,5.2-10,12.3-8.8c1.8,0.3,3.6,0.6,5.4,0.6c1.9,0.1,2.7-0.9,2.7-2.7c0.2-1.6,0-3.3,1.8-4.1C402.3,482.8,402.5,485.9,401,489
		z"/>
	<path class="st27" d="M401,489c-0.5-3,1-6.2-1-9c-3.2-2.7-2.7-6.2-1.6-9.5c1.1-3.3,4.2-3.7,7.3-3.9c3.6-0.2,7.6,0.8,9.9-3.1
		c-1.1-4.5-4.7-7.9-5.7-12.5c0-4.5,2.9-6.5,6.6-7.6c3.5-1.1,7-2.1,9.9-4.5c0.8-2.5-1.4-3.4-2.6-4.8c-2.2-2.7-5.6-4.6-6.8-8.2
		c-0.4-5.3,4-7.1,7.2-9.7c2-1.6,4.6-2.6,5.6-5.3c0.4-0.9,1.2-1.5,2.1-1.9c3.4,4.5-1.6,6.1-3,9c-2.1,0.2-3.6,1.7-5.1,2.9
		c-3.1,2.2-4,4.7-0.8,7.8c1.8,1.7,3.2,3.8,4.8,5.7c3.5,4,2.7,7.7-2.2,9.7c-2.6,1-5.3,1.9-8,2.7c-4.5,1.2-4.2,4-2.6,7.3
		c1.3,2.7,2.9,5.2,4,7.9c1.6,3.9-0.3,6.9-4.5,7.2c-3.1,0.2-6.2,0.5-9.4,0.8c-3.7,0.4-4.3,2.3-4.2,5.3c0.1,2.9,1.1,5.5,1.7,8.2
		C403.1,485.6,403.5,487.7,401,489z"/>
	<path class="st28" d="M321,520.1c0,0.3,0,0.6,0,0.9c-0.7-0.3-1.3-0.7-2-1c-2.6-1.9-3.7-4.9-5.3-7.6c-1.8-3-3.9-4-7.1-1.3
		c-2.5,2.1-4.6,4.6-7.4,6.5c-3.3,2.1-5.4,1.7-7.2-1.6c0.6-0.5,1.2-0.9,2-1.1c4.3,0,6.8-3,9.5-5.7c2.8-2.9,5.8-4.4,9.7-2.3
		c2.7,1.9,3.8,4.9,5.5,7.5C319.5,516.3,321.8,517.6,321,520.1z"/>
	<path class="st28" d="M321,521c3.8,0.9,5.4-2.5,8-4C327.5,520.8,325.6,523.5,321,521z"/>
	<path class="st29" d="M294,516c-0.7,0-1.3-0.1-2-0.1c-1.1-3.6-2.2-7.3-3.2-10.9c-0.6-1.9-2.4-3.1-2.7-5.1c-0.2-1-0.1-2,0.3-2.9
		c5.1-5.8,12.2-8.5,18.6-12.2c34.1-19.8,68.3-39.3,102.3-59.1c2-1.2,4-2.4,6.3-3c2.6-0.3,3.3,1.8,4.3,3.4c2.8,3,5.6,5.9,8.3,9
		c1,1.1,2.9,1.9,1.7,4c-4.2,2.3-8.7,3.6-13.2,5c-2.3,0.7-4.7,1.5-5.6,4.2c-14.6,8.3-29,16.9-43.6,25.2c-16,9.2-32,18.5-48,27.7
		c-1.9,1.1-3.5,2.5-5.2,3.9c-3.4-1.1-5.8,0-8.1,2.7C301.4,511,298.4,514.4,294,516z"/>
	<path class="st30" d="M414,422.9c-11.2,6.7-22.4,13.4-33.8,20c-16.8,9.7-33.7,19.2-50.5,28.9c-14.3,8.3-28.6,16.8-42.8,25.2
		c-6.4,2-12.1,5.6-18.1,8.4c-0.7,0.2-1.4,0.2-2,0.5c-1.7-1.6-0.7-3.7-0.9-5.6c-0.7-1.8-0.3-3.7-0.4-5.5c1.8-2.9,5.1-3.6,7.7-5.1
		c31.6-18.1,63.2-36.5,94.8-54.7c16.4-9.5,32.8-19.1,49.4-28.4c2.5-1.4,5.1-3.4,8.3-1.5c1.6,2.1,4.2,2.6,6.3,4c-0.3,0.7-0.6,1.3-1,2
		C426,415.9,419.5,418.7,414,422.9z"/>
	<path class="st31" d="M266.1,494c-0.1,2.1-0.1,4.1-0.2,6.2c-1.5-3.3-0.3-6.8-1-10.1c-1.4-3.1-3.5-3.9-6.8-2.9
		c-4.3,1.3-8.7,2-13.1,0.9c-3.3-0.6-1.4-2.6-1-4.1c2.8-4.2,6.8-7,11.1-9.5c24.5-14.1,48.9-28.3,73.4-42.4c2.8-1.6,6.1-2.6,8.6-4.9
		c1.2-2.4,3.7-2.6,5.8-3.2c4.4-1.3,8.9-2.4,13.3-3.9c1.9-0.6,3.8-1.2,4.6-3.4c2.9-5.6,4-6,8.8-3.3c1.7,1.8,3.7,1.7,5.9,1
		c4.1-1.2,8.2-2.4,12.3-3.5c1.7-0.5,3.4-1.3,5.2-0.2c-0.1,4.4-4.1,5.3-6.8,6.9c-9.5,5.5-19,11.1-28.5,16.5
		c-29.1,16.5-57.8,33.7-87,50c-2.1,1.2-3.3,2.7-3.3,5.2C267.3,490.9,267.3,492.7,266.1,494z"/>
	<path class="st32" d="M244.9,488.1c5.2-1.6,10.7-1.1,15.9-2.9c4-1.4,4.5,1.7,4.1,4.8c-4.3-2-8.4,0-12.6,0.6
		C249.6,491,246.1,492.6,244.9,488.1z"/>
	<path class="st33" d="M266.8,505.8c0.4-0.3,0.8-0.6,1.2-0.9c4.2-0.8,7.9-2.8,11.7-4.7c2.4-1.2,4.8-2.2,7.3-0.3
		c0.6,1.7,1.9,3.1,1.8,5c-2.5-2.8-4.8-3.1-8.6-1.2C276.3,505.9,272,510.7,266.8,505.8z"/>
	<path class="st34" d="M266.1,494c-1.2-6.4,1.4-9.7,7.3-13c27.2-15.1,54-31,81-46.6c9.9-5.7,19.9-11.3,29.8-17
		c3.2-1.8,6.1-4,8.8-6.4c1.4-3,6.5-2.7,6.1-7.2c4.4-5.2,9.8-8.7,16.4-10.3c0.7,3,1.6,5.8,4.5,7.5c1.9,1.3,3.8,2.7,5.7,4
		c-6.6,0.1-11.3,4.7-16.5,7.6c-23.1,13-46,26.5-69,39.8c-20.7,12-41.3,24-62.1,35.8C274.2,490.4,270.8,493.7,266.1,494z"/>
	<path class="st35" d="M416.1,394c-6,2.5-11.6,5.5-16.2,10.2c-3.8-1-7.2,0.4-10.6,1.5c-2.2,0.7-4.5,1.3-6.7,1.9
		c-6.5,1.9-10.7-2.2-9.5-9c0.4-2.3,2.2-3.2,4.1-3.8c3.2-1,6.4-1.6,9.5-2.7c1.9-0.7,3.8-1.2,4.7-3.3c0.6-3.7,2.7-6.2,6-8
		c3.6-2,7.1-4.2,10.4-6.5c1-0.4,2-0.6,3.1-0.5c1.7,0.1,2.8,1.2,4,2.2c4,1.3,7.9,2.5,11.9,3.8c1.1,0.3,2.5,0.4,1.3,2.1
		c-2.1,3.8-4.7,7.1-7.9,9.9C419,393,418.1,394.5,416.1,394z"/>
	<path class="st36" d="M416.1,394c4.8-3.2,7.6-8.4,12.1-12c0.6,5.1-3.1,8-6,11.2c-2,2.3-4.1,4.4-2.1,7.7
		C417.5,399.4,411.7,399.5,416.1,394z"/>
	<path class="st37" d="M414.9,376.1c-1.3-0.4-2.6-0.8-3.8-1.2c-2.1-2.5-0.5-4.6,0.6-6.8c2-3.8,4.5-7.4,4.2-12
		c0.2-0.8,0.6-1.5,1.1-2.1c0.3,0,0.7,0,1,0c2.3,5,0.5,9.4-2.3,13.3C413.7,370.3,413.6,373.1,414.9,376.1z"/>
	<path class="st38" d="M417,354c0,0.7-0.1,1.4-0.1,2c-1.6,6.9-6,12.5-8.8,18.8c-2.3,3.8-6.5,4.8-9.9,7c-2.7,1.8-5.4,3.4-5.1,7.2
		c-2.9-2.3-5.9-2-9.2-0.8c-2.3,0.9-4.8,1.4-7.2,2c-4.9,1.3-6.4,0.5-7.8-4.1c-1.2-4.1-0.4-5.4,4.6-6.9c2.4-0.8,4.7-1.6,7.2-2
		c4.5-0.8,8.1-2.5,8.2-7.9c-0.6-3.3,0.4-5.2,3.6-6.7c4.2-2,8.1-4.9,12-7.6c2.5-1.7,5.1-0.6,7.6-1.1C413.7,354,415.4,354,417,354z"/>
	<path class="st21" d="M388.8,369.3c2.7,6-0.9,7.6-5.8,8.6c-3.4,0.7-6.6,2.2-10,2.8c-3.2,0.6-4.1,1.8-3,5.1c1,2.9,1.6,5.3,5.7,3.6
		c3.5-1.5,7.4-1.9,10.9-3.3c3.5-1.4,5.5-0.6,6.4,3.1c0.6,2.5-1.2,3-3,3.5c-4.3,1.2-8.5,2.6-12.9,3.6c-5.5,1.3-2.2,4.8-1.8,7.4
		c0.3,2.5,0.9,4.9,4.7,3.5c5-1.8,10.1-2.9,15.2-4.6c2.2-0.7,3.8-0.6,4.8,1.7c1.8,6.4-4.3,4.8-6.9,6.8c-6.4,1.7-12.9,3.3-19.2,5.3
		c-2.8,0.9-4,0.1-4.8-2.3c-3.8-7.6-6.3-15.5-7-24c-0.1-0.7,0-1.3-0.2-2c-2.9-10.6-3-10.8,7.4-13.6
		C375.7,372.6,382,369.7,388.8,369.3z"/>
	<path class="st39" d="M362,390c2.8,7.9,5.2,15.9,7,24c-3.9-2.6-6.1-1-7.1,3.1c-3.1-2-6.4-2.2-9.8-0.6c-1.2,0.5-2.5,0.8-3.8,1.1
		c-2.9,0.6-6.5,3.2-8.7,0c-2.4-3.5-4.8-7.6-2.8-12.4c0.2-1.3,0-2.8,1.2-3.6c6.5-4.2,13-8.2,20-11.4C359.2,389.7,360.7,390,362,390z"
		/>
	<path class="st21" d="M336.9,405.2c2,13.8,2.1,13.8,15.2,9.9c1.1-0.3,2.3-0.5,3.3-1c3.4-1.6,5.5-0.5,6.5,3c0.6,2.9-1.8,3.1-3.6,3.7
		c-7.1,2.2-14.2,4.3-21.4,6.4c-2.4,0.3-3.4-0.9-4-3.2c-1.2-4.7-2.8-9.4-4.2-14c-1.7-6.2-3.2-12.4-5.2-18.5c-1.2-3.5,0.9-3.8,3.3-4.5
		c2.4-0.7,4.2-1.2,5.1,2.2C333.3,394.6,334.4,400.1,336.9,405.2z"/>
	<path class="st40" d="M298.4,405.7c2.9,3.9,5.1,6.8,7.4,9.6c1.9,2.4,1.2,3.4-1.5,4c-1.1,0.2-2.3,0.4-3.4,0.9
		c-3.4,1.5-4,0.2-3.5-3.1C297.9,413.8,298,410.3,298.4,405.7z"/>
	<path class="st41" d="M375,505.1c-3.8-2.1-7.6-4.1-11.4-6.1c-4.6-2.4-6.4-1.7-8.1,3.3c-1.2,3.5-2.3,6.9-3.3,10.5
		c-1.1,3.8-2.5,4.5-5.5,1.4c-2.7-2.9-5.9-5.4-8.8-8c-0.3-0.4-0.6-0.9-0.8-1.3c-0.9-3.5,0.8-5.7,3.6-7.4
		c15.9-9.3,31.9-18.4,47.9-27.5c2.6-1.5,5.4-3,8.1,0.1c2.1,4.8,2.1,10.1,3.3,15.1c0.3,2.3-0.7,3.2-2.9,2.9c-4.4-0.6-8.6-1.7-13-2.2
		c-3.7-0.4-4.9,1.3-4.9,4.4c0,3.6-0.3,7.3-0.8,10.9C378.1,502.6,378.7,505.9,375,505.1z"/>
	<path class="st42" d="M400,485.1c-1.3-5-2.7-10-4-15.1c-1-4.3-0.4-5.1,4.2-5.4c5.6-0.3,11.3,0.3,16.8-1.6c2.1,2.5-0.1,3.2-1.7,3.7
		c-2.8,0.8-5.7,1.4-8.7,1.3c-7-0.1-8.7,2.1-7.3,9.1c0.2,1,0.5,1.9,0.8,2.9C400,481.7,400,483.4,400,485.1z"/>
	<path class="st42" d="M375,505.1c3.4-0.8,2.6-3.8,2.8-6c0.3-3.8,0.3-7.6,0.2-11.4c-0.1-2.8,1-4.1,3.8-3.4
		c5.1,1.2,10.2,2.5,15.2,3.8c-3.8,0.7-7.5-1.2-11.3-1.1c-3.9,0.1-5.8,1.5-5.8,5.6c-0.1,3.3-0.4,6.6-1.1,9.8
		C378.5,504.1,378.4,507.2,375,505.1z"/>
	<path class="st41" d="M321,520.1c-1-1.7-2-3.4-2.9-5.2c-0.3-4.6,2.8-6.5,6.5-7.7c1.9-0.6,3.7-0.2,4.3,2.2c-0.5,4-2.9,6.9-5.8,9.6
		C322.3,519.4,321.6,519.7,321,520.1z"/>
	<path class="st43" d="M323,519c1.7-3,3.4-6,5-9c0.7-1.6,1-3.4,2-5c3-4.9,4.8-4.9,8-0.1c0,0.3-0.1,0.7-0.1,1
		c-3.1-0.5-4.6,1.2-6.3,3.5C329,512.9,327.9,517.8,323,519z"/>
	<path class="st44" d="M338,505c-3.2-3.4-5.6-3.2-7.4,1.4c-0.5,1.3-1.7,2.4-2.6,3.6c-0.6-2.8-2.4-2.2-4.1-1.5
		c-2.9,1.2-4.7,3.5-5.9,6.3c-1.7-2.3-3.3-4.7-5-7c-0.6-0.9-1.7-1.6-1.1-2.9c0.1-3,2.8-3.6,4.6-4.7c17.8-10.4,35.6-20.7,53.5-30.8
		c12.1-6.9,23.8-14.6,36.4-20.7c0.7-0.4,1.6-0.5,2.3-0.8c1.8,0.2,1.3,2.1,2.1,3.1c2,4,4,7.9,6.1,11.9c-0.7,3.2-3.5,2.6-5.6,2.8
		c-3.8,0.3-7.7,0.3-11.5,0.2c-3.1-0.1-4.3,1-4,4c-2.4-1.7-4.4-0.4-6.4,0.8c-14,8-27.9,16.1-41.8,24.1c-1.9,1.1-3.7,2.2-5.7,3.1
		C339.1,499.4,337.3,501.5,338,505z"/>
	<path class="st45" d="M414,422.9c0-2.1,1.6-2.7,3.1-3.5c4.8-2.6,8.8-6.4,13.9-8.4c-0.4,3.1-3,4.1-5.1,5.7c-3.4,2.5-7.9,4-7.9,9.4
		C416.7,425,415.4,423.9,414,422.9z"/>
	<path class="st46" d="M411,451.1c-0.7-1-1.4-2.1-2.1-3.1c-0.7-1.7-1-3.2,1.3-3.9c5.9-1.7,11.9-3.4,17.8-5.2
		c-2.6,3.1-6.1,4.2-9.9,5.2C414.5,445.1,411,446.4,411,451.1z"/>
	<path class="st47" d="M312,505c0.4,1,0.7,1.9,1.1,2.9c-3.3-1.8-5.9-0.8-8.4,1.8c-2.9,3.1-5.6,6.8-10.7,6.3c4-3.9,8.2-7.5,12-11.6
		C308.7,501.5,310.3,502.3,312,505z"/>
	<path class="st48" d="M287,500c-3.5-0.6-6.5,0.9-9.2,2.7c-3.1,2.1-6.3,2.6-9.8,2.3c5.1-2.7,10.2-5.4,15.2-8.1
		c1.4-0.8,2.5-0.6,3.7,0.2C287,498,287,499,287,500z"/>
	<path class="st49" d="M408,374.9c-0.9-1.3-0.3-2.5,0.4-3.7c2.8-5.1,5.6-10.1,8.4-15.1c1.1,5.1-2,8.8-4.2,12.8
		c-1.1,2-1.9,3.9-1.6,6.1C410.1,374.9,409,374.9,408,374.9z"/>
</g>
</svg>
