<?xml version="1.0" encoding="utf-8"?>
<!-- Generator: Adobe Illustrator 19.0.0, SVG Export Plug-In . SVG Version: 6.00 Build 0)  -->
<svg version="1.1" id="Calque_1" xmlns="http://www.w3.org/2000/svg" xmlns:xlink="http://www.w3.org/1999/xlink" x="0px" y="0px"
	 viewBox="0 0 612 792" style="enable-background:new 0 0 612 792;" xml:space="preserve">
<style type="text/css">
	.st0{fill:#FDC109;}
	.st1{fill:#FEDB69;}
	.st2{fill:#FECF28;}
	.st3{fill:#FEDF7E;}
	.st4{fill:#FDD64D;}
	.st5{fill:#EAEAEA;}
	.st6{fill:#FDD130;}
	.st7{fill:#FDE18E;}
	.st8{fill:#EAEAE8;}
	.st9{fill:#EAEAE9;}
	.st10{fill:#FBE193;}
	.st11{fill:#E9E7DF;}
	.st12{fill:#EDEDEC;}
	.st13{fill:#E6E4E0;}
	.st14{fill:#E8E7E5;}
	.st15{fill:#CFCFCE;}
	.st16{fill:#D2D2D1;}
	.st17{fill:#CAC9C6;}
	.st18{fill:#C8C7C5;}
	.st19{fill:#E3E2DF;}
	.st20{fill:#C1BEB3;}
	.st21{fill:#D3D2CD;}
	.st22{fill:#FAB113;}
	.st23{fill:#FECC14;}
	.st24{fill:#FEFDFD;}
	.st25{fill:#FEFDFC;}
	.st26{fill:#FDC707;}
	.st27{fill:#FECC18;}
	.st28{fill:#FECC15;}
	.st29{fill:#DCDBD9;}
	.st30{fill:#BEBCB7;}
	.st31{fill:#AAA79D;}
	.st32{fill:#A5A297;}
	.st33{fill:#A19E96;}
	.st34{fill:#FED856;}
	.st35{fill:#B9B7AD;}
	.st36{fill:#D9D6CC;}
	.st37{fill:#FED33B;}
	.st38{fill:#ABA89D;}
	.st39{fill:#FAE195;}
	.st40{fill:#D4D2CC;}
	.st41{fill:#FED547;}
	.st42{fill:#C6C3B9;}
	.st43{fill:#CECECE;}
	.st44{fill:#D2D1D0;}
	.st45{fill:#C2C1BE;}
	.st46{fill:#C4C2BE;}
	.st47{fill:#BCB9AF;}
	.st48{fill:#A6A196;}
	.st49{fill:#AEABA4;}
	.st50{fill:#AEA89E;}
	.st51{fill:#A39E94;}
	.st52{fill:#A59F92;}
	.st53{fill:#A49F94;}
	.st54{fill:#A6A092;}
	.st55{fill:#B1ADA7;}
	.st56{fill:#9F998B;}
	.st57{fill:#FECC17;}
</style>
<g>
	<path class="st0" d="M219.1,438.7c0-0.5,0-1.1,0-1.6c-0.9-1.3-1.3-2.8-1.4-4.4c0.2-2.9-1.7-2.6-3.6-2.2c-4.8,1-9.5,2.2-14.3,3.3
		c-1,0-2-0.1-2.7-1c1.1-5.2,1.9-10.4,3.4-15.5c1.3-4.7-0.7-5.9-4.8-6c-4.5-0.1-9,0.2-13.4-0.8c-1.7-0.4-3-0.7-1.8-2.8
		c1.8-3.1,2.3-6.9,4.5-9.8c0.4-0.3,0.8-0.6,1.2-0.8c4.1-1.7,7.7-4.2,11.7-6.2c1.8-0.9,3.6-1.7,5.6-1.2c6.7,3.4,13.4,4.2,20.5,1
		c5.2-2.4,8.2-5.9,7.8-11.9c-0.1-1.3,0-2.6,0.4-3.9c1-2.6,3-4.2,5.3-5.4c3.7-1.8,4.7-1.3,5.8,3.1c0,2.8-0.1,5.6,0,8.4
		c0,1.1-0.8,2.6,0.5,3.1c1.5,0.6,2.9-0.4,4-1.5c0.5-0.5,0.7-1.1,0.8-1.8c0.4-2.9,0.2-6.3,3.2-8c3.8-2,8-3.3,12.2-3.9
		c2.8-0.4,4.7,1.3,6.3,3.3c1.1,1.3,2.1,2.7,3.9,2.7c1.3,0,2.8,0.1,3.6-1.1c0.8-1.2-0.4-2.1-1.1-3c-3.4-5-8.3-9-10.4-15
		c2.9-5.9,8.8-9.3,14.7-8.3c2.6,2.6,2.8,6.3,3.8,9.6c1.1,3.5,2.1,7,3,10.5c0.7,2.4,1.8,3.3,4.3,2.6c6.2-1.8,12.4-3.7,18.6-5.6
		c1.6-0.5,3.5-1.1,2.7-3.4c-0.7-1.9-2.5-1.3-3.9-0.9c-3.9,1-7.6,2.3-11.5,3.2c-2.6,0.6-5.2,0.6-4.8-3.4c2-3.1,5.5-4.2,8.4-5.9
		c4.2-2.4,8.2-5,12.4-7.4c1.6-0.9,3.1-2.1,5.1-1.5c3.4,2.6,3.3,6.8,4.3,10.3c1.1,3.8,2.7,4.7,6.5,3.5c6.2-2,12.5-3.6,18.7-5.4
		c1.7-0.5,4-1,3.1-3.5c-0.8-2.1-2.8-1.3-4.4-0.8c-4.1,1.3-8.3,2.5-12.5,3.6c-4.8,1.2-5.8,0.6-7.1-4.2c-1.6-5.8-1-7.5,3.6-9
		c3.3-1.1,6.7-1.9,10.1-3c1.5-0.5,3.6-1,3.1-3.2c-0.7-2.7-2.9-1.6-4.5-1.1c-3.3,1-6.7,2-10.1,2.9c-4.4,1.1-5.8,0-7.2-4.5
		c-1.2-3.8,0.4-5.6,3.9-6.6c3.5-1,7-2.2,10.6-3c3.8-0.9,5.5-2.7,4.3-6.6c-0.8-3,0.4-5.2,3-6.6c5.4-3,10.6-6.2,15.7-9.6
		c0.5-0.1,1-0.1,1.6-0.1c2.3,0,4.5,0,6.8,0c1.6,0,2.9,0.2,3.1,2.2c-1.7,5.1-4.9,9.6-7.1,14.5c-0.6,1.5-2,3,0.7,3.8
		c1.3,0.5,2.7,0.9,4,1.2c4.2,1.3,8.6,2.1,12.6,4.4c1.5,2.2-0.2,3.7-1.1,5.4c-2.7,3.3-5.9,6.2-8.9,9.2c-1.9,1.9-2.2,3.5,0.4,5
		c1.7,1.2,3.4,2.3,5.2,3.3c2,1.3,4.4,2.2,5.3,4.7c0.5,2.8-1.3,4.2-3.3,5.6c-21.1,14-43.4,26-65.3,38.7
		c-21.7,12.6-43.5,25.2-65.2,37.9c-7.8,4.5-16.4,7.5-23.7,12.8c-1.7,1.2-4,1.9-5.8-0.4C219.2,444,220,441.3,219.1,438.7z"/>
	<path class="st1" d="M291.1,259c3-2.8,6-5.6,9-8.4c1.3-1.2,2.6-2.6,4.7-2.4c1.1,0.7,1.6,1.9,2.1,3.1c0.8,3.2,2.4,6.2,1.7,9.6
		c-3.7,4.3-9,6.2-13.7,8.9c-36,20.6-71.7,41.7-107.8,62.2c-2.8,1.6-5.5,3.2-7.9,5.3c-5.5-0.6-7-5.3-9.5-9.1c-2-1.7-1.4-2.5,0.9-3.2
		c4.5-1.4,9-3.1,13.4-4.7c0.3-0.6,0.9-1,1.6-1.2c3.3-0.5,1.3-2.9,1.7-4.5c0.8-2.4,2.9-3.6,4.9-4.7c28.4-16.5,57-32.8,85.4-49.4
		c1.9-1.1,3.8-2.1,5.9-2.7C286.2,257.6,288,261.9,291.1,259z"/>
	<path class="st2" d="M340,279.1c4.6-1,9.2-2.1,13.8-3.1c1,0.8,1,1.8,1,2.9c-1.4,4.4-1.4,9.3-4,13.4c-12.2,5-22.8,12.7-34.4,18.9
		c-8.6,4.6-16.9,9.8-25.4,14.6c-2.5,1.4-4.8,3-6.4,5.4c-2.1,2.1-5.3,2.1-7.4,4c-6.2,1.2-11.2,4.5-16,8.3c-0.9,0.7-1.5,1.8-2.8,1.8
		c-1.6-0.3-2.5-1.5-3.7-2.4c-3.7-2.6-7.9-0.9-8.2,3.6c-0.3,3.8-1.2,7.5-1.2,11.3c0,1.6,0.1,3.4-1.7,4.4c-1.3-0.1-1.4-1.2-1.6-2.1
		c-1.3-5.2-1.5-5.4-5.9-2.7c-4.7,3-10.4,4.7-13.3,10.1c-0.7,0.3-1.5,0.4-2.3,0.3c-1.9-0.5-3.9-0.2-5.9-0.5c-2.1-0.3-4.6-0.5-5-3.1
		c-0.3-2.3,1.8-3.3,3.5-4.3c0.9-0.5,1.8-0.7,2.8-0.6c0.3,0,0.6,0.1,0.9,0.2c2.4,1.1,5.4,2.3,7.1-0.3c1.6-2.5-1.6-3.8-2.9-5.5
		c-0.4-0.5-0.8-1-1-1.7c-0.6-3.9,2.4-5.2,4.9-6.7c12.5-7.4,25.1-14.5,37.6-21.8c24.2-14,48.5-28,72.7-42c0.9-0.5,1.8-1,2.7-1.4
		C338.7,279.7,339.4,279.5,340,279.1z"/>
	<path class="st3" d="M284,257.9c-10,5.9-20,11.8-30,17.6c-20.1,11.6-40.3,23.1-60.4,34.8c-2.1,1.2-4.5,2.3-5.7,4.7
		c-2.6,0.1-2.9-2.5-4.4-3.7c-1.7-2.8-3.2-5.8-4-9.1c-0.5-2.2,0-3.8,2.9-3.7c4.5,0.1,8.8-1,13.3-1.4c2.2-0.2,3.8-1,3.8-3.6
		c-0.1-3.9,1.9-6.5,5.2-8.3c3.5-2,6.9-4,10.5-5.6c0.9-0.4,1.8-0.6,2.6-1.1c4.6-5.9,11.9-7.7,17.7-11.8c1.7-0.6,3.6,0,5.3-0.7
		c5.9-2.1,10.5-6.8,16.7-8.5c1.6,0,2.6,1,3.7,1.8c1.5,1.2,2.2,0.4,2.9-0.9c3.4-3.7,5.7-8.4,8.8-12.3c1.6-1.5,3.1-2.9,4.6,0
		C280.8,249.5,284.4,252.7,284,257.9z"/>
	<path class="st4" d="M340,279.1c-0.3,0.3-0.7,0.6-1,1c-1.1,0.6-2.3,1.1-3.5,1.5c-3.5,1.2-5.2-0.3-5.6-3.8c-0.2-1.6-0.2-3.1-0.2-4.7
		c-0.1-1.7,0.1-3.4-0.1-5.1c-1.5-2.9-3.2-0.7-4.5,0c-8.5,4.3-16.5,9.3-24.7,14c-40.3,23.2-80.6,46.6-121,69.8
		c-3.2,1.8-6.5,3.4-8.9,6.3c-1.3,0.7-2.4,0.1-3.5-0.4c-1.2-0.9-2.3-1.9-2-3.6c4.7-3,9.3-6,14-9c0.8-0.9,1.6-1.9,2.9-2.2
		c9.7-3.5,17.9-9.5,26.7-14.5c31.8-18.2,63.5-36.6,95.1-55c2.3-1.3,4.7-2.6,6.6-4.5c1.5-1.5,3.4-2.3,5.2-3.4
		c1.1-0.8,2.6-0.6,3.8-1.3c3.1-1.6,6.2-3.1,9.3-4.7c1.7-0.9,2.5-0.7,3.1,1.4c0.9,3.7,1.6,7.4,1.6,11.2
		C333.1,278.6,333.7,279.1,340,279.1z"/>
	<path class="st5" d="M382,348c1.2,0.5,2.6,0.7,3.7,1.5c6.5,4.3,6.6,9,0.5,13.8c-2.7,2.1-7,3.1-7.7,6.6c-0.8,3.9,3.9,5.3,5.9,8
		c4.4,5.9,3.6,9.9-3.1,13c-1.5,0.7-3.2,0.9-4.7,1.5c-5.8,2-6.4,3.5-3.4,8.9c0.2,0.3,0.3,0.6,0.5,0.9c1.2,3.4,4.8,6.5,2,10.5
		c-2.8,4.1-6.8,4.6-11.5,4.1c-5.6-0.6-7.4,1.8-6.1,7.3c0.1,0.3,0.1,0.7,0.2,1c2.8,11.6-0.6,15-11.9,12.2c-7.4-1.8-8.3-1.2-8.2,6.7
		c0,2.4-0.2,4.7-1.1,6.8c-1.7,4.1-5.2,5.6-9.2,4c-2.3-0.9-4.7-1.9-6.6-3.4c-3.5-2.6-5.5-1.2-6.9,2.2c-1.1,2.7-1.8,5.7-3.2,8.3
		c-2.7,5.1-6.7,5.6-10.9,1.8c-1.1-1-2.3-1.9-3.5-2.8c-6.4-4.7-6.4-4.7-11,2.1c-0.6,1-1.2,2-2,2.9c-4.7,5.4-7.8,5.4-12.4-0.1
		c-1.4-1.6-2.4-3.6-3.6-5.3c-1.6-2.4-3.6-3.9-6.6-2.3c0-3.2,2.2-3,4.4-2.8c3.5,1.4,4.8,4.8,6.9,7.6c3.4,4.4,6,4.5,9.3,0.1
		c1.7-2.2,3.1-4.7,4.8-7c2.3-3.2,5-3.4,8.1-1.2c2.6,1.8,4.4,4.5,7.1,6.2c0.4,0.2,0.8,0.5,1.1,0.7c4.3,1.3,5,0.7,6.2-4.6
		c0.1-0.7,0.3-1.3,0.5-1.9c3.3-10.5,5.7-11.4,15.1-6c6.9,4,9.5,2.6,10-5.4c0.8-11.2,1.7-11.9,12.6-9.7c1.3,0.3,2.6,0.6,3.9,0.6
		c3.2,0.1,4.6-1.4,4.4-4.5c-0.2-2.8-1-5.5-1.5-8.3c-0.8-5,1.2-7.6,6.2-8c2.6-0.2,5.3,0.1,7.9-0.7c4.4-1.3,5.1-2.6,3.4-6.8
		c-0.6-1.5-1.4-3-2.3-4.4c-4.1-7.6-3.1-10.1,4.9-12.8c10.2-3.5,10.3-3.6,4.1-12.3c-4.3-8.2-4.4-8.2,3.2-13.8
		c0.9-0.7,1.8-1.5,2.5-2.4c0.7-0.9,1.5-1.7,2.4-2.5c2.1-1.8,1.3-3.3-0.5-4.7c-1.5-1.2-3.1-2.3-4-4C381.6,348.8,381.7,348.4,382,348z
		"/>
	<path class="st6" d="M168.9,382c2.6-2.5,5.1-5,7.1-8.1c1.4-1.4,2.2-3.3,3.7-4.6c1-1,2.1-1.9,3.3-2.7c2.4-1.7,4.8-3.5,7.6-4.7
		c2.1-0.9,4.4-1.8,6.2,0.7c0.9,3.5,2.9,6.6,3.6,10.2c-4.6,3.9-10.2,6.1-15.3,9.2c-2.3,1.3-3.6,3.1-4.4,5.5c-3.3,1-5.9-1.1-8.9-1.6
		C170.2,385,167.9,384.7,168.9,382z"/>
	<path class="st7" d="M258,258c-5.9,2.6-10.8,7-17.1,9c-1.8-2.4,0.3-4.1,1-6c0.2-4.7,3.4-8.3,4.1-12.9c1.2-1.1,2.2-0.1,3.3,0.3
		c2,1.8,4.2,3.5,6.3,5.3C256.9,254.7,258.6,255.8,258,258z"/>
	<path class="st8" d="M382,348c0,0.3,0,0.7,0,1c-6.8-1.1-8.7-5.4-4.7-10.5c1.4-1.8,2.7-3.8,4.4-5.4c1.9-1.8,2.5-3.8,1.3-6.2
		c-0.3-0.6-0.4-1.3-1-1.8c-4.3-1.3-8.6-2.7-12.9-4c-3-2.1-2.6-5-1.1-7.4c3-4.9,5-9.8,4-15.6c3.9,1.7,5.3,4.6,3.6,8.5
		c-1,2.3-2,4.5-3.4,6.6c-2.2,3.5-1.1,5.5,2.4,6.8c2.6,1,5.4,1.6,7.9,2.8c5,2.3,5.8,6.1,2.6,10.5c-1,1.3-1.8,2.9-3,3.9
		C377.6,340.8,377.7,344.3,382,348z"/>
	<path class="st9" d="M266,456c-1.9,0-4-0.3-5,2c-1.4,2.3-3.4,3.9-5.7,5.4c-6.6,4.3-9.8,3.2-12.5-4.4c-0.3-0.8-0.6-1.6-0.8-2.3
		c-2.6-7.5-3.2-7.7-10.3-4.1c-2.3,1.2-4.8,2.7-7.3,2.9c-2.7,0.3-5-1.4-5.4-4.6c0.4-0.3,0.9-0.8,1.3-0.6c5.3,2.3,9.5-0.8,13.8-3
		c2.9-1.4,5.5-2.2,8.3,0.1c2.8,3.7,3.4,8.3,4.9,12.6c1.1,3.2,3,2.9,5.4,1.4c2.9-1.8,4.8-4.5,7.5-6.4C263.3,452.7,264.4,453,266,456z
		"/>
	<path class="st10" d="M216,280c-3.7,2.1-7.2,4.5-11,6.4c-2.8,1.4-4.4,3.3-4,6.6c-3.7-2.9-2.8-7.3-3.5-11.2
		c-0.2-0.9,0.4-1.9-0.5-2.7c-1.1-1.1-1.2-2.1,0.1-3.1C203.8,275,210,277.1,216,280z"/>
	<path class="st11" d="M196.9,279.1c2.4,4.3,1.9,9.5,4,13.9c0.7,3.8-0.7,5.3-4.7,5.2c-4.4-0.1-8.9,0.6-13.3,0.8
		c-3,0.1-3.4,1.6-2.3,3.9c1.3,2.8,2.9,5.5,4.3,8.3c0.9,1.5,1.3,3.3,2.3,4.8c1.1,1.7,0.4,3.1-1.3,4.1c-0.6,0.1-1.2,0.1-1.8,0.2
		c1.2-3.4-0.6-6.1-2-8.8c-0.7-1.3-1.4-2.7-2-4c-2.7-6-1.5-8.1,4.7-9.6c3-0.7,5.9-0.4,8.9-1.1c3.6-0.8,5.1-2.7,3.9-6.4
		C196.4,286.6,196.1,282.8,196.9,279.1z"/>
	<path class="st12" d="M216,280c-6.3-1.4-12.7-2.7-19-4.1c3.8-2.7,7.8-1.4,11.8-0.5c6.8,1.5,8.2,0.4,8.2-6.6c0-2.5-0.2-5,2-6.9
		c1.9,1.7,1.2,4.1,1.5,6.2c0.3,4-0.4,7.9-1.7,11.8C217.9,280,216.9,280,216,280z"/>
	<path class="st13" d="M219,268.1c0-2,0-4.1-0.1-6.1c0.6-3.9,2.8-5.2,7.4-3.6c2.5,0.8,5.1,1.9,7.1,3.5c3.4,2.7,5.9,1.9,8.4-1
		c-0.3,2-0.7,4-1,6c-1.6,1.6-3.3,0.2-4.9,0c-4-0.1-6.8-3-10.3-4.4c-2.7-1.1-4.7-2-4.6,2.3C221.1,266.2,221.2,268,219,268.1z"/>
	<path class="st14" d="M168.9,382c-0.2,2.3,2.1,1.9,3.1,2.8c2.8,2.4,6.4,3.1,9.8,4.1c2.9,0.9,6.2,1.6,6.2,5.8c-0.1,1.4-1,2.3-2,3.2
		c-0.3,0-0.7-0.1-1-0.1c-0.9-3.7-3.8-5.1-7.2-5.9c-3.2-0.8-6.6-1.3-8.5-4.6C168.3,385.7,167,383.9,168.9,382z"/>
	<path class="st12" d="M249,249c-1-0.3-2-0.6-3-0.9c3.4-2,6.5-1.3,9.4,1c1.3,1,2.3,2.3,3.5,3.4c3.9,3.8,7,3.4,9.9-1.3
		c1.2-1.9,1.8-4.3,4.3-5.1c-2.3,4.6-4.7,9.1-8.2,12.9c-2.7,1.8-4.4-0.4-5.9-1.9C256,253.9,252.9,251,249,249z"/>
	<path class="st15" d="M197,432.8c0.9,0,1.9,0,2.8,0c4.1,0,8.1-1,12.1-1.7c2.4-0.5,4.9-1,7,1c0,1.7,0,3.4,0.1,5
		c-4.3-4.3-9.1-1.4-13.5-0.6C201.4,437.3,198.8,436.5,197,432.8z"/>
	<path class="st8" d="M180,370.1c-1.2,1.5-2.1,3.2-4.1,3.8c1.8-3.5,0.4-5.9-2.7-7.8c-2.6-1.5-5.2-3-7-5.5c-1.4-1.9-3.4-3.9-1.3-6.6
		c0.7,0.9,1.5,1.8,2.2,2.7c2.9,2.8,6.5,4.5,9.5,7.1C178.5,365.4,181.4,366.7,180,370.1z"/>
	<path class="st16" d="M353.8,278.9c0-0.9,0-1.9,0-2.8c4,1.9,4.9,5,3.7,9c-0.6,1.9-0.9,3.9-1.3,5.8c-0.7,3.1,0,5.5,2.9,7.1
		c-1.9,1.7-3.9,1.5-6,0.5c-1.9-2.1-1.4-4.5-1-7C352.7,287.3,354.2,283.2,353.8,278.9z"/>
	<path class="st17" d="M242.1,448.1c-2.7-1.6-5-1-7.7,0.6c-4.7,2.8-9.6,5.7-15.3,2.3c0-4.1,0-8.1,0-12.2c1.5,2.6,0.3,5.6,1.1,8.3
		c0.9,1.3,2.1,1.8,3.7,1.7c4.2,0.2,7.3-2.6,10.7-4.3c2.5-1.2,4.8-2,7.3,0C242.8,445.6,243.1,446.8,242.1,448.1z"/>
	<path class="st18" d="M371.9,298.1c2.6,5.4,1.1,10.1-2.2,14.6c-1.9,2.6-2.5,5.4-0.7,8.4c-1.4,0.1-2.7-0.4-3.9-1.1
		c-2.1-2.2-0.6-4.2,0.4-6.2c2-3.9,4.4-7.6,5.3-12c0.4-1.6,0.3-2.9-1.9-2.8c-2.6,0.1-5.1,0-7.7,0c-0.5-0.1-0.6-0.4-0.4-0.8
		C364.5,298.1,368.2,298.1,371.9,298.1z"/>
	<path class="st19" d="M319.2,264c-1.1,0.7-2.2,1.3-3.2,2c-3.8,1.7-4.5-1.5-5.6-3.7c-1.8-3.6-1.6-8.1-4.6-11.3c-0.3-1-0.7-1.9-1-2.9
		c6.5,0,6.6,5.6,8,9.6C314.1,261,314.9,264.1,319.2,264z"/>
	<path class="st20" d="M284,257.9c-1.3-4.3-5-7.4-6.2-11.8c4.2,0.4,5,4.4,7.2,6.9c1.9,2.2,2.4,5.7,6.1,6
		C287.9,264.4,286.1,260.4,284,257.9z"/>
	<path class="st21" d="M181.8,343.9c-1,0.4-2,0.7-3,1.1c0.8-3.3-1.5-5.1-3.5-7c-2.8-2.7-5.9-5.4-5.6-9.9c3,3,6.1,6,9.1,9
		C183.9,339.7,184.3,340.7,181.8,343.9z"/>
	<path class="st2" d="M360.8,298.1c0.1,0.3,0.3,0.6,0.4,0.8c-0.4,0.1-0.8,0.2-1.2,0.2c-3.9,1.3-7.8,3.1-11.2-1
		c1.4-1.4,2.8-1.1,4.3-0.2c2,0,4,0,6,0.1C359.7,298,360.2,298,360.8,298.1z"/>
	<path class="st22" d="M222.7,449.8c-2.7,0.8-3.1-0.6-2.6-2.7c1.7,0.1,3.3-0.1,4.8-1c24.9-14.1,50-27.9,74.6-42.7
		c20.5-12.3,41.4-23.7,62.1-35.7c6.3-3.6,12.3-7.8,18.4-11.7c1.7-1.1,2-2.5,2-4.2c2.2-1,3,0.9,4.2,2c0.3,1.1-0.2,1.9-0.8,2.7
		c-3.9,2.8-8,5.4-12.2,7.8c-3.5,2-3.6,3.9-0.5,6.3c3.2,2.9,5.7,6.3,8.3,9.7c1.1,1.4,2.4,2.9,0.2,4.6c-4.1,1.9-8.5,2.9-12.8,4.2
		c-5.1,1.6-5.3,2.2-2.7,7c1.6,3.1,3.1,6.2,4.8,9.2c0.8,1.5,1.6,2.9,0.8,4.6c-4.6,3-9.9,1.5-14.9,2.4c-5.3,1-5.3,0.5-4.4,6
		c0.6,3.8,1.8,7.4,2.5,11.1c0.5,2.7,0,4.7-3.3,4.6c-4.5-0.9-9-2.1-13.5-3.1c-3-0.6-4.3,0-4.5,3.2c-0.3,3.6-1,7.2-0.9,10.9
		c0,1.9,0.2,4-1.5,5.5c-3.4,1.3-5.5-1.6-8.1-2.7c-2-0.8-3.9-1.8-5.8-2.9c-4.6-2.8-5-2.6-6.9,2.4c-1.6,4.3-2.2,8.9-4.2,13.1
		c-3,3.1-4.6-0.6-6.8-1.4c-2.3-1.9-4.2-4.2-6.5-6.1c-0.8-0.8-1.6-1.6-2.4-2.3c-1.9-2.1-3.1-1-4.2,0.8c-2,3.4-4.2,6.7-6.3,10.1
		c-1,1.6-1.8,3.4-3.8,4.1c-2.1-0.1-3.1-1.6-4-3.3c-2.1-3.6-4.7-6.8-6.8-10.4c-1.5-3.3-3.1-2.5-5.2-0.5c-3.8,3.6-7,8-11.9,10.3
		c-0.7,0.1-1.4,0-1.9-0.6c-1.3-4.3-2.6-8.5-4-12.8c0-1.1-0.1-2.2-0.8-3.1c-1.3-2.3-2.9-2.5-5.2-1.3
		C231.7,445.9,227.5,448.5,222.7,449.8z"/>
	<path class="st23" d="M349.2,297.8c3.3,2.7,7.3,0.5,10.8,1.4c-3.1,4.4-8.3,5.8-12.4,8.7c-2.3,1.6-6.5,2-4.8,6.6
		c-7.2,3.3-15,4.9-22.6,7.1c-3.4,1-5.8,2.3-5.7,6.2c-9.1,4.3-18.1,8.8-25.8,15.6c-4-3.2-3.9-7.9-4.7-12.3c0.6-3.8,4-4.6,6.6-6.2
		c16.9-9.9,33.8-19.7,50.8-29.4c2.7-1.5,5.3-3.5,8.7-3.4C351.2,294.2,350.4,296,349.2,297.8z"/>
	<path class="st24" d="M200,373c-2.3-2.9-3.8-6.1-3.9-9.9c-0.3-3.9,1.9-6.5,4.5-9c1.9-2,4.6-2.4,7-3.3c4.6-1,9.3-3,13.3,1.4
		c0.5,0.4,1.2,0.6,1.6,1.1c1.7,2,5.5,3.9,3.3,6.5c-1.9,2.2-6,4-9.1,0.2c-2.9-1.1-5.4,0.5-8,1.2c-1.1,0.3-2.1,1.2-2,2.6
		c0.1,1.5,1.5,1.5,2.6,1.9c3.8,1.5,7.8,0.2,11.7,1.2c0.7,0,1.3,0.1,2,0.1c5.9-0.2,8.6,2,9.9,8.1c1,8.7-0.7,12.6-6.8,15.9
		c-8.3,4.5-16.8,4.1-23.1-1c-2.5-1.7-4.5-3.8-2.2-6.8c2.2-2.8,6.6-3,9.3-0.7c4.1,3.4,7.2,3.8,10.7,1.4c1.5-1,2.6-2.2,2.1-4.1
		c-0.4-1.7-2-2.2-3.5-2.3c-3.3-0.3-6.7,0.1-10-0.2C205.9,376.9,202.1,376.7,200,373z"/>
	<path class="st25" d="M314,328c-1.8-4.5,0-6.5,4.6-7.4c8.2-1.6,15.8-5.3,24.2-6.2c2,4.9,0.6,7.5-4.9,8.3c-4.1,0.6-8,2.4-12,3.3
		c-3.4,0.8-2.6,2.9-1.8,4.9c0.7,1.9,0.4,5.1,4.2,3.9c4.6-1.5,9.3-2.6,13.9-4.2c2.6-0.9,3.5-0.1,4.2,2.4c0.7,2.5,0.8,4-2.2,4.7
		c-4.5,1.1-9,2.6-13.5,3.8c-2.5,0.6-3,1.7-2.4,4.3c1.9,7.5,1.8,7.5,9.4,5.3c3.8-1.1,7.7-2.1,11.5-3.4c2.7-1,3.9-0.2,4.7,2.5
		c0.8,2.7,0,3.8-2.7,4.6c-7.9,2.1-15.7,4.4-23.5,6.9c-2.9,0.9-3.8-0.1-4.5-2.6c-1.2-4.3-2.6-8.6-4-12.8
		C316.1,340.4,313.9,334.5,314,328z"/>
	<path class="st24" d="M243.1,362.3c1.4-5.1,1.3-10.5,1.7-15.7c0.2-2.9,0.6-4.9,4-5.7c3.1-0.7,5.7-1.6,7.6,1.9
		c0.5,1,1.5,1.7,2.3,2.6c3.8,2.7,6.5,6.3,8.3,10.6c4.6,6.1,9.2,12.1,13.8,18.2c-6.7,4.1-7.7,4-12-1.7c-1.8-2.4-3.6-3-6.3-1.9
		c-1.5,0.6-3.1,1.2-4.8,1.4c-5.5,0.6-8.2,3.2-7.6,9.1c0.2,2.4-5.7,5.8-7.7,4.9c-1.3-0.6-0.7-1.7-0.6-2.6c0.1-3.3,0.3-6.6,0.4-9.9
		c0.8-1.9,0.2-3.8-0.2-5.7C241.4,365.7,241.4,363.8,243.1,362.3z"/>
	<path class="st26" d="M314,328c2.2,5.8,3.9,11.8,5.2,17.9c-7.3,3.2-13.7,7.9-20.6,11.7c-1.6,0.9-3.3,1.6-4.9,2.4
		c-4.3-4.8-5.6-10.5-4.9-16.8c0-1.8,0.7-3.1,2.3-4.1c6.4-3.8,12.8-7.6,19.2-11.4C311.6,327,312.8,327.3,314,328z"/>
	<path class="st27" d="M200,373c4.9,3.3,10.4,2.8,15.9,2.8c3.3,0,7.5-1.5,8.9,3.3c0.8,2.8-1,4.8-3.4,6c-3.9,2-7.9,2.9-11.4-0.8
		c-1.3-1.4-1.9-3.3-4.7-2.3c-5.2,1.9-5.4,2-2.3,8c-6.2,1.6-10.8,6.6-17.1,7.9c0.4-1,0.7-2,1.1-3c1.4-2.6,0.6-4.3-2.2-5.3
		c-1.5-0.5-3.3-0.8-3.8-2.7c-1-1.2-2.9-2.4-0.3-3.8C187.2,379.9,192.9,375.2,200,373z"/>
	<path class="st25" d="M288.8,343.3c1.2,5.7,2.7,11.3,4.9,16.8c0,2.8,1.3,3.4,3.8,2.6c4.6-1.4,9.3-2.6,13.8-4.1c2.9-1,3.3,0.6,4,2.7
		c0.8,2.4,0.5,3.6-2.1,4.3c-7.4,2-14.7,4.2-22,6.4c-2.5,0.8-3.5-0.1-4.2-2.5c-2-7.2-4.2-14.3-6.3-21.5c-2.4-4-5.1-7.9-3.9-13
		c0.9-3.9,5-2.3,7.1-4.1C286.7,334.6,286.6,339.4,288.8,343.3z"/>
	<path class="st23" d="M276.9,335c1.3,4.3,2.6,8.7,3.9,13c-5.9,0.4-10.4,3.1-13.7,7.9c-3-3.3-6-6.7-8.3-10.6
		C261.6,340.2,272.2,334.1,276.9,335z"/>
	<path class="st28" d="M243.1,362.3c-0.2,3.7,0.3,7.5-1,11.1c0.3-4.2-1.4-4.7-4.7-2.6c-1.8,1.2-3.4,2.4-4.5,4.3
		c-2-4.3-5.3-7-9.9-8.1c-1.2-2.5,0.3-3.6,2.2-4.7c3.7-2.1,7.4-4.4,11.1-6.6c5.5-3.2,6.5-2.7,6.6,3.5
		C243,360.3,243.1,361.3,243.1,362.3z"/>
	<path class="st29" d="M386.1,354c-1.3-0.7-2.7-1.4-4-2.2c-1.7-1.3-3.4-2.5-5-3.8c-5.1-4.1-5.3-5-1.5-10.1c2.9-3.8,6.1-7.3,7.6-12
		c2.9,2.3,2.4,4.7,0.2,7.2c-1.3,1.5-2.6,3-3.8,4.6c-4.9,6.4-4.6,7.4,2.4,11.2c1.7,1.2,3.5,2.3,5.1,3.7c2.3,2,3.2,4.2-0.1,6.2
		C385.3,357.5,386.5,355.6,386.1,354z"/>
	<path class="st30" d="M383.1,326c1,5.6-3.2,8.8-6.3,12.1c-3.5,3.7-3.3,6.7,0.2,10c-2-0.4-3.5-1.7-5-3c-2.1-3.2-0.2-5.5,1.9-7.8
		c2.2-2.4,5.1-4.2,6.1-7.6c0.3-1.7,2.6-2.4,2-4.4C382.3,325.4,382.7,325.7,383.1,326z"/>
	<path class="st31" d="M219,432.1c-3.1-0.1-6.1-0.2-9.2,0.7c-3.2,0.9-6.6,1.4-10,0c5.1-2,10.6-2.4,15.9-4
		C219.2,427.8,219.4,429.5,219,432.1z"/>
	<path class="st32" d="M370.8,301.7c1.4,4.8-2,8.1-3.9,11.8c-1,2.1-2.1,4.1-1.8,6.5c-2.4-0.2-4.4-0.5-2.4-3.7
		C365.6,311.5,367.4,306.2,370.8,301.7z"/>
	<path class="st33" d="M379.9,329.6c0.7,3.2-1.7,4.7-3.6,6.5c-2.5,2.5-4.9,4.9-4.4,8.9c-4.4-1.4-4.5-3.3-1.2-6.3
		C374,335.8,376.9,332.6,379.9,329.6z"/>
	<path class="st34" d="M181.8,343.9c2.5-3.8-2.3-4.4-2.9-6.8c0.7-4.1,4.7-4.5,7.3-6.1c32.1-18.8,64.3-37.3,96.5-55.9
		c8.3-4.8,16.8-9.4,25.2-14.2c2.9,1.9,3.3,4.7,3.1,7.8c-2.6,4.9-7.9,6.2-12.2,8.7c-20.5,12.2-41.2,24-61.9,36
		c-16.7,9.6-33.4,19.1-50.1,28.6C185.3,342.9,183.8,344,181.8,343.9z"/>
	<path class="st35" d="M311.1,268.7c-1-2.6-2.1-5.2-3.1-7.8c-0.7-3.3-1.4-6.7-2.1-10c2.8,1.3,3.4,3.9,4.4,6.6
		c1.1,3.2,0.5,7.9,5.7,8.5C314.6,267.5,312.7,268,311.1,268.7z"/>
	<path class="st36" d="M186,320c2.6-3.3-1.5-5.8-1.1-8.9c1,1.3,2.1,2.6,3.1,3.9C189.3,317.4,190.4,319.8,186,320z"/>
	<path class="st37" d="M220.9,352.2c-4.6-2.1-9.2-1-13.9-0.1c-2.1-3.7,0.9-5.1,3.2-6.5c5.9-3.5,11.9-6.7,17.7-10.2
		c32.4-19,65.1-37.5,97.6-56.3c1.6-0.9,3.2-2.6,5.4-1.1c0.4,2.4,1.5,3.7,4.3,2.8c1.2-0.4,2.5-0.5,3.8-0.8c-6.6,5.6-14.6,9-22,13.3
		c-30.3,17.7-60.8,35.1-91.2,52.7C223.6,347.5,220.5,348.5,220.9,352.2z"/>
	<path class="st2" d="M221,366.9c-4.1,0.1-8.3,0.2-12.4,0.2c-1.9,0-3.7-0.8-4.1-2.9c-0.3-1.9,1.1-3.2,2.6-3.9c3.1-1.6,6.3-3,9.6-0.3
		c-0.6,0.1-1.5-0.1-1.9,0.3c-1.4,1.4-4.8,1.4-4.1,4c0.5,1.9,3.2,1.6,5.2,1.7C217.6,366.1,219.5,365.4,221,366.9z"/>
	<path class="st38" d="M349.2,297.8c-0.4-2,0.5-3.9,0.9-5.8c1.2-4.4,2.5-8.8,3.7-13.1c2.1,3.8,0.6,7.7-0.2,11.4
		c-0.6,2.6-0.7,5.1-0.5,7.7C351.8,297.9,350.5,297.8,349.2,297.8z"/>
	<path class="st39" d="M219,268.1c0.3-0.6,0.8-1.1,0.8-1.7c0.9-7.3,0.9-7.4,7.6-4.3c3,1.4,5.7,3.3,8.6,4.9c-2.5,3-6.1,4.4-9.4,6.2
		c-3.1,1.7-6.4,3.1-7.8,6.8C218.9,276,219,272,219,268.1z"/>
	<path class="st40" d="M249,249c3.3-0.1,5.4,2,7.6,4.1c2.5,2.3,4.4,5.6,8.4,5.8c-0.4,3-1.6,3.8-4,1.5c-0.9-0.9-2-1.6-3-2.5
		C255.9,254.1,251.2,252.8,249,249z"/>
	<path class="st41" d="M330.9,267c0,2,0,4,0,6c-4.1,4.3-9.8,6.2-14.8,9.1c-42.1,24.5-84.3,48.9-126.6,73.2c-4,2.3-8.2,4.4-11.5,7.9
		c-3.2,0.1-5.2-1.6-6.7-4.1c-0.1-2.6,1.7-3.7,3.6-4.9c18.8-11,37.6-21.7,56.4-32.7c18.3-10.7,36.8-21.1,55.1-31.9
		c12.7-7.5,25.6-14.7,38.4-22.1C326.8,266.6,328.7,265.1,330.9,267z"/>
	<path class="st37" d="M178,362.9c0.6-3.8,4.1-4.6,6.6-6.2c25.5-14.9,51.1-29.6,76.7-44.3c22.3-12.8,44.6-25.6,66.9-38.4
		c0.8-0.5,1.9-0.6,2.8-1c0,1.7,0,3.3,0,5c-10.6,4.8-20.3,11.3-30.4,16.9c-18.8,10.5-37.3,21.4-56.1,31.9
		c-11.8,6.6-23.5,13.6-35.2,20.6c-1.7,1-2.5,2.6-2.2,4.7c-2,1-4,2-6,3c-7.3,1.8-13.1,6.3-19.1,10.4
		C179.8,365.8,178.5,364.9,178,362.9z"/>
	<path class="st4" d="M330.9,267c-4.5-0.6-7.4,2.7-10.8,4.6c-21.5,12.2-42.8,24.6-64.2,37c-22.4,13-44.7,26-67.1,38.9
		c-4.4,2.6-8.9,5.2-13.4,7.7c-1.7,0.9-2.9,2.2-3.6,4c-1.1,0.2-1.7-0.3-1.9-1.3c0.7-4.2,4.9-4.9,7.6-6.5
		c27.2-15.9,54.6-31.4,81.9-47.1c19.9-11.5,39.8-23.2,59.7-34.7c2.4-1.4,5-2.7,7.6-3.8C328.4,265,330.4,263.9,330.9,267z"/>
	<path class="st42" d="M170,357.8c0.6,0.4,1.3,0.9,1.9,1.3c1.9,1.5,3.7,3,6,3.8c1.3,0.8,2.6,1.5,3.9,2.3c1.4,0.5,2.3,1.2,0.9,2.7
		c-0.9,0.7-1.8,1.5-2.8,2.2c-0.5-3.3-3.2-4.7-5.6-6.4c-2.8-2-6-3.5-7.3-7C168.1,357.1,169,357.5,170,357.8z"/>
	<path class="st43" d="M370,401c2.2,3.3,5.6,6.7,3.3,10.7c-2.1,3.6-6.6,3.4-10.4,3.2c-6.8-0.5-8.8,2-7.2,8.9
		c3,12.4,1.5,13.5-11.1,11.1c-7.9-1.5-8.6-0.9-8.7,7.1c0,0.8,0.1,1.7,0,2.5c-0.6,3.1-0.6,6.8-3.9,8.1c-3,1.3-5.7-0.6-8.1-2.7
		c2.2-2,4,1.2,6.2,0.5c2.8-1.9,2.1-5,2.3-7.6c0.7-12.4,1.9-13.4,13.9-10.7c0.5,0.1,1,0.3,1.4,0.4c0.8,0.3,1.6,0.5,2.4,0.6
		c4.2,0.7,4.7,0.3,3.9-3.9c-0.6-3.2-1.7-6.4-2.1-9.6c-0.6-5.3,1-7.1,6.4-7.7c3.3-0.4,6.6-0.3,9.8-0.9c1.3-0.3,2.7-0.2,3.2-1.8
		C372.3,406.2,367.6,404.2,370,401z"/>
	<path class="st44" d="M246,460.9c0.7,0,1.4,0.1,2,0.1c4.1-1.3,6.8-4.4,9.8-7.1c2.2-2,4.5-4.5,8.1-2.7c3.8,4.2,5.3,10.1,10,13.8
		c4.2-1.9,5.9-6.1,8.6-9.4c2.2-2.6,4.2-6,8.5-3.5c2,1.9,4,3.8,6,5.6c0.7,1.6,3.4,1.9,2.9,4.3c-3.5-0.6-4.9-3.8-7.2-5.7
		c-3.1-2.6-5.7-3.1-8,1c-1.5,2.7-3.3,5.4-5.4,7.7c-3.2,3.6-6,3.5-9-0.2c-2.3-2.8-4.3-5.9-6.4-8.8c-1.9-3.4-3.9-1.2-5.5,0.1
		c-2.6,2-4.6,4.6-7.3,6.5C249.9,464.8,247.8,464.2,246,460.9z"/>
	<path class="st45" d="M370,401c-0.4,2.9,2.4,5,2,8c-0.2,0-0.4,0-0.6,0c-2.1-4.2-4.3-8.5-6.4-12.7c-0.7-4.4,1.1-6.9,6.2-8.1
		c3.5-0.9,6.9-1.9,10-4c1.7-1.2,0.6-2.2-0.3-3.2c-3-3.3-5.9-6.5-8.8-9.8c-1.9-3.7,0.3-5.7,2.9-7.7c3.3-2.5,7.6-3.7,10.1-7.5
		c0.4-0.6,0.8-1.3,1.2-1.9c1.5,1.4,0.7,3.3,0.9,5c-0.7,0.7-1.3,1.3-2,2c-2.1,1.8-4.6,3-6.9,4.6c-4.2,3-4.3,4.3-0.9,8.1
		c0.6,0.7,1.2,1.5,1.8,2.3c7.5,9.3,7.1,10.4-4.6,14.3C367,392.8,366.5,393.9,370,401z"/>
	<path class="st46" d="M302,462c-0.6-1.7-2.7-2.4-2.9-4.3c2.4-0.1,2.8,4.7,6,2.4c2.3-3.1,3.1-6.8,4-10.5c1.2-4.5,3.9-6.3,8.1-5.6
		c4.2,2.1,8.5,4.3,12.7,6.4c0,0.2,0,0.5,0,0.7c-2-0.3-4-0.7-6-1c-10.1-5-10.4-4.9-14,8C308.3,461.2,306.7,464.6,302,462L302,462z"/>
	<path class="st29" d="M379,376c-6.7-5.4-6.6-8.2,0.8-12.3c1.7-1,3.1-2.6,5.2-2.7c-1,2.5-3.4,3.5-5.5,4.7c-4,2.3-5.3,4.7-1.4,8.2
		C378.7,374.3,378.7,375.3,379,376z"/>
	<path class="st44" d="M302,462c3.9,1.2,5.7-1.9,8-4C308.8,463.9,305.9,465.3,302,462z"/>
	<path class="st37" d="M182.8,367.9c0.3-1.1-0.4-1.9-0.9-2.7c4.3-5.8,11-8,17.1-11c0.8-0.4,1.6,0.1,2.1,0.9c-2.4,2.2-3.8,5.1-5,8
		c-1.8-2.1-3.6-0.9-5.3,0C188.1,364.6,185.5,366.3,182.8,367.9z"/>
	<path class="st47" d="M181,387c1.2,0.5,2.4,1.1,3.7,1.4c4.5,0.9,5.6,2.9,2.3,6.6c0-4.2-3.5-4-6.1-4.9c-3.3-1.1-7.1-1.4-8.9-5.2
		C175,385.5,178,386.3,181,387z"/>
	<path class="st48" d="M222.7,449.8c4.5-3.4,9.8-5.5,14.8-8.1c3.6-1.9,3.1,1.4,3.7,3.3c-4.5-2.4-7.3,1.7-10.6,3.2
		C228,449.3,225.6,450.4,222.7,449.8z"/>
	<path class="st49" d="M371.3,409c0.2,0,0.4,0,0.6,0c-1.3,3.8-4.9,3.4-7.8,3.9c-1.9,0.4-4,0.1-6,0.1c-3.8,0-5.6,2-5.2,5.6
		c0.3,2.9,1.1,5.8,1.6,8.8c0.4,2.1,1.3,4.7-0.6,6c-1.6,1.1-4.1,1.2-6-0.4c1.1-0.8,2.2-0.6,3.3-0.1c2.3,0.2,2.8-0.7,2.2-3
		c-1.2-4.4-1.9-9-3.2-13.4c-1.2-4.1-0.8-6,4.2-5.7c4.7,0.3,9.5-0.4,14.3-0.7C369.7,410,370.7,409.9,371.3,409z"/>
	<path class="st50" d="M351.3,432.9c-1.1,0-2.2,0.1-3.3,0.1c-2.5-0.3-4.9-0.8-7.4-1c-5.2-0.3-6.6,1-6.6,6.2c0,3.7,0.1,7.3-1.5,10.7
		c-0.5,1.1-1.1,2.1-2.5,2c0-0.2,0-0.5,0-0.7c2.4-5.6,1.1-11.6,1.7-17.5c0.4-3.7,1-5.1,4.8-3.8C341.4,430.6,346.6,430.8,351.3,432.9z
		"/>
	<path class="st51" d="M266,451.1c-4.2,0.1-6.8,3-9.4,5.7c-2.3,2.5-4.8,4.5-8.5,4.1c3.9-3.7,8-7.3,11.7-11.3
		C263,446.2,264.7,446.9,266,451.1z"/>
	<path class="st52" d="M317.3,443.9c-4.4,0.4-6.6,2.9-7.4,7.2c-0.6,3.4-1.4,6.9-4.8,8.9c1.3-4.6,2.6-9.2,4-13.8
		C311.1,439.7,311.5,439.6,317.3,443.9z"/>
	<path class="st53" d="M384.9,355.9c-0.3,3.4-3.1,4.4-5.4,5.9c-3.5,2.3-8.1,3.8-7.6,9.3c-4.7-4.5-4.7-4.5,0.7-7.8
		C376.7,360.8,380.8,358.4,384.9,355.9z"/>
	<path class="st54" d="M381,384.1c-2.1,3.5-5.8,4-9.3,4.9c-3.7,1-6.7,2.8-6.8,7.2c-4.2-5.9-4.1-6.2,2.4-8.2
		C371.8,386.7,376.4,385.4,381,384.1z"/>
	<path class="st55" d="M293.1,452c-4.5-0.6-6.3,2.6-8.5,5.6c-2.3,3-3.6,7.4-8.6,7.3c0.9-1.3,1.9-2.6,2.8-3.9
		c2.7-2.5,4.1-5.8,6.2-8.7c1.5-1.9,3-4.1,6-2.3C292,450.4,292.7,451,293.1,452z"/>
	<path class="st56" d="M291,450c-4-0.1-5.7,2.9-7.3,5.7c-1.3,2.1-2.5,4.3-4.9,5.3c2.2-3.6,4.4-7.2,6.4-10.9
		C287.3,446.4,289.1,446.6,291,450z"/>
	<path class="st57" d="M252.3,350.7c3,3.9,5.1,6.8,7.4,9.7c1.8,2.2,1.5,3.5-1.4,4c-0.8,0.1-1.6,0.4-2.4,0.7c-4,1.8-5.4,0.7-4.5-3.7
		C252.1,358.2,252,355.1,252.3,350.7z"/>
</g>
</svg>
