<?xml version="1.0" encoding="utf-8"?>
<!-- Generator: Adobe Illustrator 19.0.0, SVG Export Plug-In . SVG Version: 6.00 Build 0)  -->
<svg version="1.1" id="Calque_1" xmlns="http://www.w3.org/2000/svg" xmlns:xlink="http://www.w3.org/1999/xlink" x="0px" y="0px"
	 viewBox="0 0 612 792" style="enable-background:new 0 0 612 792;" xml:space="preserve">
<style type="text/css">
	.st0{fill:#32BDA5;}
	.st1{fill:#73D2C1;}
	.st2{fill:#3E3E3F;}
	.st3{fill:#FEFEFE;}
	.st4{fill:#5B5C5F;}
	.st5{fill:#595E60;}
	.st6{fill:#40C8E6;}
	.st7{fill:#6ED9F0;}
	.st8{fill:#40C8E5;}
	.st9{fill:#CED2D3;}
</style>
<g>
	<path class="st0" d="M282,138c8.7,0,17.3,0,26,0c7.7,1,15.5,0.8,23.3,1.7c16.1,1.8,31.6,6.4,46.8,12c26.7,9.9,51.5,23.5,73.5,41.8
		c27.1,22.6,49.7,49,66.1,80.5c11.6,22.5,20.1,46,24.9,70.9c1.7,8.7,1.5,17.5,2.1,26.3c0.1,1.6-0.5,3.3,0.5,4.9c0,12.7,0,25.3,0,38
		c-1,7.4-0.9,14.9-1.7,22.3c-1.8,16.1-6.4,31.6-12,46.8c-11,29.6-26.5,56.8-47.5,80.4c-21.2,23.8-45.4,44-73.9,58.7
		c-22.8,11.8-46.5,20.7-71.8,25.3c-8.3,1.5-16.9,1.5-25.3,2.1c-1.6,0.1-3.3-0.5-4.9,0.5c-13,0-26,0-39,0c-7.4-1-14.9-0.8-22.3-1.7
		c-19.3-2.3-37.7-8-55.6-15.4c-26.2-10.8-50.3-25.2-71.5-44.1c-22.5-20.1-41.8-42.9-56.4-69.5c-13.1-24-22.7-49.3-27.6-76.2
		c-1.5-8.3-1.5-16.9-2.1-25.3c-0.1-1,0.3-2-0.5-2.9c0-9.3,0-18.7,0-28c1.1-3.4,0.2-7,0.5-10.5c-0.6-34.8,9.2-66.9,24.5-97.7
		c9.7-19.7,21.7-37.8,36.2-54.2c20-22.6,42.9-41.8,69.4-56.3c23.9-13.2,49.2-22.8,76.1-27.6c10.5-1.9,21.1-2.2,31.8-2.2
		C275,138.2,278.5,139.1,282,138z"/>
	<path class="st1" d="M270.8,138.9c0.1-0.3,0.2-0.6,0.2-0.9c3.7,0,7.3,0,11,0C278.4,139.7,274.6,139,270.8,138.9z"/>
	<path class="st1" d="M33,376c0.3-0.1,0.6-0.2,0.9-0.2c0.1,3.7,0.8,7.5-0.9,11.2C33,383.3,33,379.7,33,376z"/>
	<path class="st2" d="M158,403.9c2.1,0.5,3.4-0.4,4.5-2.2c3.7-5.6,9.2-7.8,15.8-7.7c22.8,0.1,45.7-0.1,68.5,0.1
		c3.8,0,5.6-1.2,6.9-4.7c3.5-9.5,7.6-18.8,11.2-28.3c3.5-9.3,10.1-13.8,19.9-13.7c19.5,0.1,39-0.4,58.5,0.4
		c38.5,1.6,65.3,20.1,81,55c9.5,21,12.9,43.2,13.7,66c0,1.1-0.3,2.3-0.4,3.4c-2.9,0.3-4.1-1.9-5.5-3.7c-6-7.5-12.8-14.4-20.1-20.6
		c-10-8.5-21.6-13.4-34.5-15.6c-7.7-4.2-16.4-5.2-24.8-6.9c-16.5-3.4-33.2-5.1-49.9-6.4c-19.9-1.5-39.8-2.1-59.7-3.1
		c-21.6-1.1-43.3-0.2-64.9-0.7c-4-0.1-6.4,0.8-7.4,5.4c-1.2,5.6-5,9.7-10.5,11.8c-3,1.1-5.9,1.2-8.4-1.2c-1.9-0.1-3.8-0.2-5.7-0.3
		c-1.4-1.1-2-2.6-2.1-4.3c-0.2-6.2-0.3-12.3,0-18.5c0.1-2.9,1.4-4.7,4.6-4.6C151.7,403.7,154.9,403.1,158,403.9z"/>
	<path class="st3" d="M379,431c14.1,1.4,25.8,8,36.3,17c8.4,7.2,15.6,15.4,22.1,24.2c2,6.6-5.6,14.9-12.9,14.8
		c-8.4-0.1-16.8-0.1-25.3-0.1c-1.9-1.5-1.5-3.6-1.1-5.5c2.3-11.2-6.2-27.9-23.2-29.2c-15.4-1.2-27.8,10.4-28,25.8
		c-0.1,3,1.8,6.3-1,9c-42.7,0-85.4,0-128.1,0c-2.7-2.5-1-5.7-1-8.5c-0.1-15.4-11.9-26.8-27.2-26.3c-14.3,0.5-25.9,14.5-24,28.7
		c0.3,2.1,1,4.3-1,6c-4.6,0-9.3,0.2-13.9,0.1c-6.7-0.1-10.7-4.9-9.6-11.6c1-6.1,3.6-11.7,6-17.3c5.4-16.6,18-24.5,34-28
		c14.4-3.1,28.1,0.1,41.2,6.1c9.7,4.4,18.7,10.2,27.9,15.6c18.3,10.6,37.9,16.8,59.1,18.3c2.6,0.2,5.2,0.9,7.9,0.9
		c6-0.1,6.4-0.3,7.7-6.1c1.3-6.3,3.6-12.2,7.9-17C345.1,433.7,360.3,427.3,379,431z"/>
	<path class="st4" d="M379,431c-7.5,0.3-15,0.8-22.1,3.2c-17.1,5.6-28.2,16.6-30.4,35c-0.4,3.3-1.5,3.9-4.5,3.9
		c-26-0.3-50.4-6.3-72.9-19.4c-7.6-4.4-15.1-9.1-22.9-13.2c-12.9-6.9-26.5-10.5-41.3-8.7c-15.1,1.8-26.3,9.5-34.7,21.9
		c-1,1.5-2,3-3,4.5c0.7-9.1,3-17.9,4.6-26.9c12.3-0.7,14.9-3,17.2-15.4c0.6-3.3,2.8-2.8,4.9-2.8c13.8,0,27.7,0.1,41.5,0
		c21.8-0.1,43.6,0.9,65.3,2.2c28.7,1.7,57.4,3.7,85.3,10.9C370.5,427.2,375,428.6,379,431z"/>
	<path class="st2" d="M346,487c-1.2-6.1-1.8-12.2,0.3-18.2c4.7-13.6,19.3-21.6,33.1-18c14.5,3.7,23.3,17.3,20.8,31.8
		c-0.3,1.5-0.6,2.9-0.9,4.4c-7.1,18.2-27.9,24.3-43.1,13.3C351.5,496.8,348.6,492,346,487z"/>
	<path class="st2" d="M164.7,486.9c-6.4-21.4,10.4-37.4,26.8-37.1c17.6,0.4,30.8,16.5,27.1,33.7c-0.2,1.1-0.4,2.3-0.6,3.4
		c-4,8.9-10.3,15.4-20,17.9C184.1,508.4,171.7,501.7,164.7,486.9z"/>
	<path class="st5" d="M158,403.9c-12,0.4-12,0.4-12,12.6c0,4.8,0,9.6,0,14.4c-3.4,0.7-5.3-0.1-5.1-4.2c0.3-6.4,0.2-12.9,0-19.4
		c-0.1-3.3,1.2-4.5,4.3-4.2C149.5,403.4,153.9,402.2,158,403.9z"/>
	<path class="st6" d="M281.7,361.7c0.1-0.1,0.3-0.3,0.4-0.3c20-0.9,39.9-0.2,59.9,0.1c2.5,0,3,1.4,2.9,3.6c-0.1,8.5-0.1,17,0,25.5
		c0,2.7-1,3.4-3.5,3.4c-18.2-0.1-36.3-0.2-54.5-0.2c-0.9-2.8,1-4.4,2.6-6c8.7-8.7,17.1-17.6,26.7-26.3c-1.5,2.8-3.6,2.6-5.6,2.6
		c-7.8,0.1-15.7,0.1-23.5,0C285.2,364,282.8,364.2,281.7,361.7z"/>
	<path class="st7" d="M281.7,361.7c11.7,0,23.4,0,35.2,0c0.1,0.4,0.2,0.9,0.4,1.3c-10.1,10.3-20.2,20.5-30.2,30.8
		c-3.5,0.1-6.9,0.2-10.4,0.1c-3.3,0-5.1-2-4.6-5.1c1.6-8.6,4.3-16.8,7-25.1C279.4,362.6,280.5,362,281.7,361.7z"/>
	<path class="st8" d="M378,393.6c-4.6,0-10.8,1.8-13.5-0.5c-3.2-2.7-0.8-9.1-1.1-13.8c-0.1-1.8,0-3.7,0-5.5c0-8.3,0-8.3,7.3-4.8
		c8,3.8,15.2,8.8,21.6,15c1.9,1.9,3.9,3.8,2.8,6.9c-1.2,3.2-3.9,3.1-6.6,3.1c-3.5,0-7,0-10.5,0C378,393.9,378,393.7,378,393.6z"/>
	<path class="st9" d="M382,478c-0.1,5.1-4.2,9.1-9.3,9c-5.1,0-9.2-4.1-9.2-9.2c0-5.3,4.3-9.5,9.6-9.3
		C378.2,468.7,382.1,472.8,382,478z"/>
	<path class="st9" d="M200.5,477.8c0,5.1-4.1,9.2-9.2,9.2c-5.1,0.1-9.3-3.9-9.4-9c-0.1-5.3,4.1-9.6,9.4-9.5
		C196.4,468.6,200.5,472.7,200.5,477.8z"/>
</g>
</svg>
