<?xml version="1.0" encoding="utf-8"?>
<!-- Generator: Adobe Illustrator 19.0.0, SVG Export Plug-In . SVG Version: 6.00 Build 0)  -->
<svg version="1.1" id="Calque_1" xmlns="http://www.w3.org/2000/svg" xmlns:xlink="http://www.w3.org/1999/xlink" x="0px" y="0px"
	 viewBox="0 0 612 792" style="enable-background:new 0 0 612 792;" xml:space="preserve">
<style type="text/css">
	.st0{fill:#4D4D4D;}
</style>
<g>
	<path class="st0" d="M573,391.7c-1.5-5.9-0.8-12.2-4.3-17.7c-6.8-10.7-16.2-17.9-28.4-21.4c-22.7-6.4-45.5-12.8-68.3-19.1
		c-3.5-0.9-5.3-2.6-6-6.3c-3.1-15.8-5.8-31.7-8.8-47.6c-2.3-12.8-7.5-24-16.9-33.3c-9.3-9.2-20.3-14.1-33.3-14.6
		c-52.7,0-105.3,0-158,0c-5.4,1.5-11.2,1.1-16.4,3.6c-15.3,7.3-25.2,19.4-30.5,35.2c-8.7,26.2-18.1,52.2-26.5,78.5
		c-1.1,3.6-2.8,6.1-6.8,7.1c-13.1,3.3-26,7-39.1,10.4c-13.2,3.5-26.5,6.6-39.5,10.8c-15,4.9-30.2,18.5-28.8,39.7
		c0,12.4,0,24.8,0,37.3c0.2,7.7,0.6,15.3,5.7,21.8c8.8,11.2,19.9,18.7,34.5,19.7c4,0.3,5.8,2.1,7.1,5.6c3.1,8.7,8,16.5,14.5,23.1
		c9.8,10,21.8,15.4,35.8,16.2c5.7,0,11.3,0,17,0c5.8-1.3,12-0.6,17.5-3.2c15.1-7.1,25.9-18.4,32.4-33.8c3.2-7.7,3.1-7.8,11.6-7.8
		c53.9,0,107.9,0,161.8,0c1.2,0,2.3,0.1,3.5,0c3.4-0.1,5.7,1.3,6.8,4.6c1.3,3.8,3,7.5,5.2,10.8c9.7,15,21.6,27,40.8,28.6
		c2.1,0.2,4.3-0.4,6.3,0.7c5.3,0,10.7,0,16,0c5.3-1.4,10.9-0.7,16-3c16.4-7.2,27.8-19.2,33.9-36c1.3-3.7,3.2-5.6,7.4-6
		c18.7-1.7,39.1-16.3,37.2-39.7c0-19.3,0-38.6,0-58c0-1.8-0.5-3.7,0.5-5.4C573,392.3,573,392,573,391.7z M167.9,514
		c-18.5,0.1-33.9-14.8-34-32.8c-0.1-19.8,14.5-34.6,34-34.7c18.5,0,33.4,15,33.6,33.7C201.7,498.6,186.5,513.9,167.9,514z
		 M469.3,514c-18.6,0.1-34-14.9-34.1-33.3c-0.1-19.1,14.9-34.2,34.2-34.2c18.5,0,33.6,15.2,33.6,33.7
		C503,498.8,487.9,513.9,469.3,514z M546.1,451.9c0,8.4-5.7,14.4-13.6,15c-3.2,0.2-4.5-0.8-5.5-4c-7-21.6-21.4-35.8-43.5-41.3
		c-31.1-7.8-62.6,10.3-72,40.9c-1,3.4-2.3,4.3-5.8,4.3c-58.2-0.1-116.3-0.1-174.5,0c-3,0-4.6-0.5-5.6-3.9
		c-8.4-26.3-31.3-43.3-57.8-43.3c-26.9,0.1-49.6,17.2-58,43.7c-0.8,2.4-1.7,3.4-4.4,3.4c-9.7-0.1-17.3-7.2-17.4-16.8
		c-0.1-9.2,0-18.3,0-27.5c0-10.1,4.6-16.1,14.4-18.8c21.2-5.7,42.4-11.3,63.6-17c8.7-2.3,17.3-4.8,26-6.9c3-0.7,4.4-2.1,5.3-5
		c10.5-31.2,21.1-62.3,31.6-93.5c5.3-15.8,14.9-23,31.5-23.1c22.8-0.1,45.7,0,68.5,0c0,0,0,0,0,0c22.7,0,45.3,0,68,0
		c17,0,28.3,9,31.6,25.9c4.2,22.1,8.3,44.2,12.1,66.3c0.6,3.7,2.2,4.9,5.4,5.8c28.8,8,57.6,16.1,86.4,24.3c9,2.5,13.5,8.6,13.5,17.9
		C546.1,416.3,546.1,434.1,546.1,451.9z"/>
	<path class="st0" d="M270.5,426.5c10.7-15.5,20.6-30.1,30.6-44.6c21.1-30.2,40.8-61.2,60.6-92.2c2.2-3.4,4.5-4.6,8.4-4.4
		c6.1,0.3,12.2,0.1,19.1,0.1c-2,3-3.5,5.3-5.1,7.6c-29.9,42.6-59.1,85.8-86.9,129.8c-1.7,2.7-3.5,3.9-6.7,3.7
		C284.2,426.3,277.9,426.5,270.5,426.5z"/>
	<path class="st0" d="M416,380.8c-1.7-18-15.5-32.1-33.1-33.9c-18.1-1.9-33.8,8.5-39.3,26.2c-2.4,7.8-2.8,15.6-1.6,23.7
		c3.9,24.2,27.2,38.2,50,29.8c14.9-5.5,24.2-20,24.4-39.5C416.3,385.8,416.2,383.3,416,380.8z M388.8,400.1
		c-4.2,7.7-13.7,8.2-18.8,1.1c-4.9-6.8-4.7-21.2,0.3-27.9c4.7-6.3,13.2-6.1,17.6,0.5c2.8,4.2,3.3,8.9,3.4,12.6
		C391.4,391.9,390.9,396.2,388.8,400.1z"/>
	<path class="st0" d="M269.9,284.6c-15.9,4.7-26.1,20-26.2,40.7c0,0.9,0.1,3.1,0.3,5.2c2.5,25.7,27.1,41.4,50.7,32
		c15.6-6.2,22.4-18.9,24-35C321.5,298.2,297,276.6,269.9,284.6z M290.8,336.6c-4,7.9-13.8,8.1-18.7,0.6c-2.7-4-3.3-8.6-3.1-13.4
		c-0.2-4.6,0.5-9,2.9-13c4.5-7.7,14.4-7.9,18.6-0.1C295,319.1,295.2,328,290.8,336.6z"/>
</g>
</svg>
