<?xml version="1.0" encoding="utf-8"?>
<!-- Generator: Adobe Illustrator 19.0.0, SVG Export Plug-In . SVG Version: 6.00 Build 0)  -->
<svg version="1.1" id="Calque_1" xmlns="http://www.w3.org/2000/svg" xmlns:xlink="http://www.w3.org/1999/xlink" x="0px" y="0px"
	 viewBox="0 0 612 792" style="enable-background:new 0 0 612 792;" xml:space="preserve">
<g>
	<path d="M351.1,220.7c22.3,0.1,42.4,8.3,59.4,24.3c2.6,2.5,4,5.6,1.6,8.3c-1.3,1.6-4.5,2-6.9,2.3c-0.9,0.1-2.2-1.4-3.1-2.3
		c-30.5-27.8-73.1-27.9-103.6-0.2c-3.8,3.5-7.4,3.8-10,1c-2.6-2.9-1.9-6.1,2.1-9.9C307.4,228.8,327.1,220.9,351.1,220.7z"/>
	<path d="M350.3,247.1c15.6,0.4,29.3,5.5,40.8,16.1c3.9,3.6,4.6,7.1,1.8,9.9c-3.4,3.3-6.5,1.8-9.6-0.9
		c-19.7-17.6-46.4-17.6-66.2-0.2c-4.1,3.6-7.4,3.9-10,1c-2.4-2.8-1.7-6.4,2.2-9.9C321,252.4,334.8,247.4,350.3,247.1z"/>
	<path d="M323.9,287.9c1.2-2,1.9-3.8,3.1-5c11.8-12.3,34.9-12.2,46.6,0.1c2.7,2.8,3.3,5.9,0.6,8.8c-2.6,2.8-5.8,2.6-8.4-0.1
		c-7.9-8.2-23-8.3-31.2,0c-1.3,1.3-4.7,1.6-6.7,1C326.3,292.2,325.3,289.7,323.9,287.9z"/>
	<path d="M507,445.3c0-17-7.4-27.8-23.3-34.1c-8-3.2-14.3-8.3-18.9-15.7c-6.7-10.9-13.4-21.9-20.5-32.6c-3.1-4.7-6.7-9.2-10.8-13
		c-12.8-12-28.4-16-45.6-15.3c-5.4,0.2-12.5,1.7-16-1.1c-3.5-2.7-3.6-9.9-5.1-15.2c-4.3-16.1-4.9-16.5-22-15.7
		c-5,0.2-8.1,2.5-9.3,7.4c-1.8,6.9-3.9,13.8-5.6,20.7c-0.7,3-2,4-5.1,4c-24.7,0.1-46.1,9-64.5,25.3c-12.3,10.8-24.8,21.2-37.2,31.9
		c-10.3,8.9-22.1,14.8-35.6,16.9c-7.4,1.1-14.9,1.2-22.3,2.3c-5.9,0.9-6.8,0.6-7.6-5.3c-1.1-7.8,2.2-14.3,7.5-19.4
		c7.9-7.6,16.4-14.6,24.8-21.6c7.6-6.3,15.6-11.9,23-18.4c8.3-7.3,10.6-17.2,5.8-26.8c-3.8-7.5-2.7-13.8-0.5-20.8
		c0.7-2.2,1-4.6,1.8-6.8c1.6-4.7,0.5-8.8-2.3-12.7c-13.6-18.7-27.2-37.5-40.8-56.2c-5.1-7-11.5-8.1-18.6-3
		c-9.3,6.7-18.6,13.5-27.8,20.4c-6.3,4.7-7.5,11.2-3,17.4c13.9,19.3,27.9,38.6,42.2,57.7c1.9,2.6,5.9,4.7,9.1,5.1
		c10.2,1.1,20.4,1.3,30.9,1.8c2.8,7.2,2.2,11.8-3.8,17.3c-4.6,4.3-9.7,8.1-14.7,12c-9.2,7.4-19,14.1-27.7,22.1
		c-12.6,11.6-20.8,25-12.3,43c-12.3,8.3-20.3,19.4-21.7,34c-1.1,11.4-1,23-0.2,34.4c0.7,9.2,6.5,16.6,15.6,17.9
		c10.4,1.5,21.1,0.3,32.1,0.3c-4.1-16.9-1.8-32.9,9.2-47c11-14,25.7-20.8,43.5-20.4c28,0.6,57.9,27.8,48.4,67.8c32.6,0,65.2,0,98,0
		c-5.6-26.2,1.7-47.4,24.9-61c18.4-10.8,37.7-9.8,55.1,2.5c20.2,14.2,26.2,34.3,20.9,58c17.2,3.6,29.6-6.2,29.7-23.4
		C507,468.6,507,456.9,507,445.3z M192.9,304.1c2.1,1.5,4.2,3,6.6,4.7c-5.3,2.4-9.2,1.5-12.4-2.2c-2.9-3.4-3.3-8.8-0.8-12.6
		c2.5-3.9,7.4-5.8,11.7-4.6c4.9,1.4,7.5,5,7.7,11.4c-2.9-1.9-5.2-3.5-7.6-4.9c-2.7-1.6-5.2-1.3-6.9,1.4
		C189.4,300,190.4,302.3,192.9,304.1z M342.7,397.4c-34.7,0-69.3,0-104.4,0c0.6-0.9,0.9-1.4,1.3-1.8c13-11.1,25.8-22.6,39.2-33.2
		c13.9-11,30.2-15.8,47.8-16.2c5.3-0.1,10.6,0,16.1,0C342.7,363.6,342.7,380.3,342.7,397.4z M357.1,397.5c0-17.1,0-33.8,0-50.4
		c0.5-0.3,1-0.7,1.4-0.7c12.8,0.1,25.7-0.2,38.4,0.5c10.9,0.6,20.7,5.4,27.3,13.9c8.8,11.4,16.2,23.8,24.8,36.7
		C417.6,397.5,387.6,397.5,357.1,397.5z"/>
	<path d="M228.6,447c-23.8-0.2-42.4,18.1-42.6,41.6c-0.1,23.2,18.5,42.2,41.5,42.3c23.1,0.1,42-18.6,42.3-41.7
		C270,466.5,251.2,447.2,228.6,447z M227.7,506.3c-9.5,0-17.1-7.5-17.3-17c-0.1-9.9,7.7-17.7,17.7-17.6c9.5,0.1,17,7.7,17,17.2
		C245.1,498.7,237.5,506.3,227.7,506.3z"/>
	<path d="M427.1,447c-23.4-0.1-42,18.3-42.1,41.5c-0.1,23.3,18.4,42.1,41.5,42.3c23,0.2,42.1-18.7,42.3-41.7
		C469,466.2,450.1,447.1,427.1,447z M426.4,506.3c-9.5-0.2-17-7.8-17-17.3c0-9.7,7.6-17.3,17.5-17.3c9.7,0,17.3,7.7,17.2,17.5
		C444,498.9,436.2,506.4,426.4,506.3z"/>
</g>
</svg>
