<?xml version="1.0" encoding="utf-8"?>
<!-- Generator: Adobe Illustrator 19.0.0, SVG Export Plug-In . SVG Version: 6.00 Build 0)  -->
<svg version="1.1" id="Calque_1" xmlns="http://www.w3.org/2000/svg" xmlns:xlink="http://www.w3.org/1999/xlink" x="0px" y="0px"
	 viewBox="0 0 224.5 56.6" style="enable-background:new 0 0 224.5 56.6;" xml:space="preserve">
<style type="text/css">
	.st0{opacity:0.5;fill:#FCC00E;}
</style>
<polygon id="XMLID_2_" class="st0" points="223.6,44.1 223.6,43.2 223.2,43.2 223.2,41.5 220.7,41.5 220.7,43.2 219.2,43.2 
	219.2,45.3 216.5,45.3 216.5,42.3 213,42.3 213,45.3 211.7,45.3 211.7,39.4 209.6,39.4 209.6,35.4 206.9,35.4 206.9,38.1 206,38.1 
	206,43.2 205.7,43.2 205.7,38.9 201.1,38.9 201.1,40.5 199.6,40.5 199.6,36.8 196.2,36.8 196.2,42.3 194.9,42.3 194.9,34.8 
	192.9,34.8 192.9,26 191.6,26 191.6,20.9 184,20.9 184,24 183.7,24 183.7,38.9 181.8,38.9 181.8,42.3 180.8,42.3 180.8,38.9 
	179.3,38.9 179.3,32.9 178.8,32.9 178.8,29.7 178.1,29.7 178.1,27.5 176.7,27.5 176.7,32.9 176.2,32.9 176.2,38.1 175,38.1 
	175,35.8 171.6,35.8 171.6,40.5 170.3,40.5 170.3,36.8 167.8,36.8 167.8,36 163.6,36 163.6,39.4 162.1,39.4 162.1,42.3 161.6,42.3 
	161.6,31.9 160.6,31.9 160.6,30.5 157.6,30.5 157.6,31.9 156.7,31.9 156.7,39.9 156.3,39.9 156.3,38.1 153.6,38.1 153.6,40.5 
	152.2,40.5 152.2,45.3 151.6,45.3 151.6,42.3 149.5,42.3 149.5,36.8 148.3,36.8 148.3,34.8 144.9,34.8 144.9,36.8 144.6,36.8 
	144.6,43.4 143.9,43.4 143.9,38.9 140.4,38.9 140.4,41.9 139.9,41.9 139.9,26 139.6,26 139.6,22.2 138.5,22.2 138.5,18.2 
	137.7,18.2 137.7,15.1 136,15.1 136,18.2 135.7,18.2 135.7,26 134.9,26 134.9,43.4 134.2,43.4 134.2,39.8 131.9,39.8 131.9,43.4 
	131.6,43.4 131.6,24.8 131,24.8 131,16.5 127.7,16.5 127.7,18.2 126.8,18.2 126.8,36 126.4,36 126.4,32.8 123.9,32.8 123.9,35.4 
	122.8,35.4 122.8,30.5 121.3,30.5 121.3,32.8 120.3,32.8 120.3,24.1 119.1,24.1 119.1,22.2 116.4,22.2 116.4,26.4 115.7,26.4 
	115.7,23.3 113.2,23.3 113.2,24.8 111.7,24.8 111.7,29.7 110.5,29.7 110.5,38.9 109.8,38.9 109.8,35.4 109.3,35.4 109.3,32.8 
	107.3,32.8 107.3,35.4 106.8,35.4 106.8,31.8 104.9,31.8 104.9,23.3 104,23.3 104,20.9 103.2,20.9 103.2,18.2 99.9,18.2 99.9,20.9 
	98.1,20.9 98.1,23.3 96.1,23.3 96.1,32.8 91.6,32.8 91.6,30.9 90.6,30.9 90.6,16.5 89.8,16.5 89.8,13.3 89,13.3 89,16.5 88.2,16.5 
	88.2,19.1 86.6,19.1 86.6,22.2 85.7,22.2 85.7,31.8 83.6,31.8 83.6,39.4 83,39.4 83,26 81.9,26 81.9,24.1 76.5,24.1 76.5,26.4 
	74.6,26.4 74.6,36.8 74.2,36.8 74.2,35.4 71.3,35.4 71.3,36.8 70,36.8 70,40.5 68.8,40.5 68.8,31.8 66,31.8 66,16 65.2,16 65.2,7.4 
	64.2,7.4 64.2,4.4 63.2,4.4 63.2,2.2 61.6,2.2 61.6,0 59.9,0 59.9,1.2 58.6,1.2 58.6,5 58.2,5 58.2,7.4 57.5,7.4 57.5,11.8 57,11.8 
	57,41.5 55,41.5 55,36.2 53.1,36.2 53.1,30.9 52.4,30.9 52.4,26 49.6,26 49.6,30.6 49.2,30.6 49.2,16.5 48.7,16.5 48.7,13.1 
	47.9,13.1 47.9,9.2 46.5,9.2 46.5,7.4 45.3,7.4 45.3,5 43.7,5 43.7,7.4 43.1,7.4 43.1,9.2 42.1,9.2 42.1,11 41.1,11 41.1,13.1 
	40.8,13.1 40.8,16.5 40.3,16.5 40.3,33.5 37,33.5 37,29.6 35.2,29.6 35.2,22.2 34.5,22.2 34.5,20 32.3,20 32.3,22.4 31.7,22.4 
	31.7,20.5 28.9,20.5 28.9,22.4 27.8,22.4 27.8,25.3 26,25.3 26,33.5 25.3,33.5 25.3,20 24.9,20 24.9,17.6 24.3,17.6 24.3,16.5 
	22.5,16.5 22.5,17.6 21.8,17.6 21.8,20 20.9,20 20.9,28.9 19.2,28.9 19.2,30.6 17.1,30.6 17.1,39.4 15.8,39.4 15.8,37.7 14.1,37.7 
	14.1,36.8 12.7,36.8 12.7,37.7 12.1,37.7 12.1,30.6 11.2,30.6 11.2,26 8.6,26 8.6,24.5 6.7,24.5 6.7,26 6,26 6,30.6 5.6,30.6 
	5.6,45.3 0,45.3 0,56.6 224.5,56.6 224.5,44.1 "/>
</svg>
