<?xml version="1.0" encoding="utf-8"?>
<!-- Generator: Adobe Illustrator 19.0.0, SVG Export Plug-In . SVG Version: 6.00 Build 0)  -->
<svg version="1.1" id="Calque_1" xmlns="http://www.w3.org/2000/svg" xmlns:xlink="http://www.w3.org/1999/xlink" x="0px" y="0px"
	 viewBox="0 0 612 792" style="enable-background:new 0 0 612 792;" xml:space="preserve">
<style type="text/css">
	.st0{fill:#E64F4F;}
	.st1{fill:#CF4747;}
	.st2{fill:#EE8484;}
	.st3{fill:#CACACA;}
	.st4{fill:#FDD430;}
	.st5{fill:#A8A7A7;}
	.st6{fill:#B2B2B2;}
	.st7{fill:#FDFDFD;}
	.st8{fill:#CBCBCA;}
	.st9{fill:#17BE41;}
	.st10{fill:#D85A01;}
	.st11{fill:#D75B01;}
	.st12{fill:#D75A01;}
	.st13{fill:#C39636;}
	.st14{fill:#D9AA1E;}
	.st15{fill:#C8A563;}
	.st16{fill:#E86C0D;}
	.st17{fill:#E16709;}
	.st18{fill:#E0E0E0;}
	.st19{fill:#DFDFDF;}
	.st20{fill:#EA6605;}
	.st21{fill:#E4E4E4;}
	.st22{fill:#9B9B9B;}
	.st23{fill:#9C9C9C;}
	.st24{fill:#999999;}
	.st25{fill:#E67E09;}
	.st26{fill:#989898;}
	.st27{fill:#E68211;}
	.st28{fill:#E7820F;}
	.st29{fill:#E7881C;}
	.st30{fill:#E88719;}
</style>
<g>
	<path class="st0" d="M304.5,124.5c8.3,0,16.7,0,25,0c7.7,0.9,15.5,1,23.2,1.7c16.1,1.4,31.3,6.1,46.4,11.6
		c27.1,9.9,52.1,23.8,74.3,42.3c23.5,19.6,43.9,42.1,59.4,68.8c14.9,25.7,25.8,52.9,31.2,82.2c0.4,2.2,0.8,4.3-0.7,6.2
		c-1.8,1.5-3.4,0.7-5-0.5c-1.3-1-2.5-2.2-3.6-3.4c-24.8-24.7-49.4-49.5-74.3-74.2c-2.2-2.2-3.6-5.9-7.8-5.4c-70-0.2-140,0-210-0.1
		c-19.7,0-39.3,0.4-59-0.1c-15-0.4-23.8,11.3-23.9,23.4c0,3,0,6,0,9c0,100.1,0,200.3,0,300.4c0,3.9,0.8,8-1.3,11.7
		c-2.7,2.5-5.2,1.1-7.7-0.4c-10.9-6.7-21.2-14.4-30.6-23.1c-17.7-16.2-33.9-33.7-46.8-54.1C75.6,492.7,63,462.7,57,430.1
		c-1.5-8.3-1.5-16.8-2.1-25.3c-0.1-1.1,0.4-2.3-0.5-3.4c0-9,0-18,0-27c1.1-3.4,0.2-7,0.5-10.5c-0.9-35.5,9-68.3,24.8-99.7
		c11.7-23.1,26.4-43.8,44.3-62.4c19.8-20.6,42.1-37.6,67.5-50.7c21.9-11.4,44.8-19.7,69-24c10.9-2,22.1-2.2,33.3-2.2
		C297.4,124.7,301,125.6,304.5,124.5z"/>
	<path class="st1" d="M475.5,251.5c12.4,12.3,24.9,24.5,37.3,36.8c15.1,15,30.1,30.1,45.2,45.2c1.4,1.4,3,2.6,4.5,4
		c2.3,0.5,2.3,2.4,2.6,4.3c0.9,6.9,0.4,13.9,1.4,20.8c0,13,0,26,0,39c-1,7.4-0.9,14.9-1.7,22.3c-1.6,16.2-6.3,31.7-11.9,46.8
		c-10.4,28.4-25.7,54.1-45.3,77.2C488,571,465,590.1,438.5,605.2c-24.2,13.8-49.9,23.8-77.3,28.8c-8.3,1.5-16.9,1.5-25.3,2.1
		c-1.8,0.1-3.7-0.5-5.4,0.5c-13.3,0-26.7,0-40,0c-6.7-1-13.6-0.5-20.4-1.5c-1-0.1-2-0.1-2.8-0.7c-1.8-3.1-4.8-5-7.2-7.4
		c-18.3-18.4-36.7-36.8-55.1-55.1c-0.9-0.9-1.4-1.8-1.5-3.1c-0.2-1.3-0.2-2.7-0.2-4c-0.1-90.8-0.1-181.6,0-272.5
		c0-4.6,1-8.4,4.5-11.7c2.8-2.7,6-4.2,9.8-4.3c17-0.2,34-0.2,51,0c2,0,4,0.5,5.7,1.7c2.2,4,2.7,7.9-0.7,11.6
		c-2.4,1.5-5.1,1.3-7.8,1.3c-5.3,0.1-10.7-0.2-16,0.2c-5.4,0.4-8.1,3.3-8.7,8.6c-0.2,2.2-0.2,4.3-0.2,6.5c0,56.3,0,112.6,0,168.9
		c0,13.8,1.4,15.1,15.2,15.1c63.5,0,127,0,190.4,0c13.3,0,14.6-1.4,14.6-14.6c0-56.5,0-113,0-169.4c0-1,0-2,0-3
		c-0.1-9.6-2.6-12.1-12.2-12.3c-4.3-0.1-8.7,0-13-0.1c-2.5-0.1-5-0.1-7.1-1.8c-2.2-3.5-1.9-7-0.4-10.6c2.2-2.2,5.1-2.2,7.9-2.2
		c9.3-0.1,18.5,0,27.8-0.1c8.4,0,8.8-0.4,9.5-8.9c-0.3-3.5-0.4-7-0.2-10.5C473.3,254.7,473.7,252.8,475.5,251.5z"/>
	<path class="st2" d="M54.5,363.5c0.2-0.3,0.5-0.4,0.8-0.2c0.2,3.8,0.8,7.6-0.8,11.2C54.5,370.8,54.5,367.2,54.5,363.5z"/>
	<path class="st2" d="M293.2,125.3c0-0.3,0.1-0.6,0.2-0.8c3.7,0,7.3,0,11,0C300.8,126.1,297,125.5,293.2,125.3z"/>
	<path class="st3" d="M194.2,608.7c-6.2-2.8-12.2-5.8-17.6-9.9c1.7-2,0.9-4.5,0.9-6.7c0-104.6,0-209.3,0.1-313.9
		c0-13.2,6-22.3,17.1-25.9c2.8-0.9,5.6-1,8.4-1c89.5,0,179,0,268.4,0c1.3,0,2.6,0.2,4,0.3c-0.1,5.3-0.1,10.6-0.2,15.9
		c-1.8,2.6-4.6,2.4-7.2,2.4c-11.1,0.1-22.2,0.2-33.3-0.1c-8.6-1.4-17.2-1.5-25.7-0.1c-24.8,0.5-49.5,0.1-74.3,0.2
		c-13.3,0-26.6,0.2-39.9-0.1c-8.6-1.4-17.1-1.5-25.7,0c-15.3,0.3-30.7,0.8-45.9,0c-18.7-1-26.8,7.5-26.7,26.9
		c0.5,99.4,0.2,198.8,0.2,298.1c0,3,0.1,6-0.1,9C196.5,605.7,196.5,607.8,194.2,608.7z"/>
	<path class="st4" d="M429.6,288.9c7.3,0,14.7-0.1,22-0.1c8.8,0,11.7,2.8,11.7,11.7c0,44.2,0,88.3,0,132.5c0,16.3,0,32.7,0,49
		c0,7.5-3.1,10.6-10.7,10.6c-67,0-134,0-200.9,0c-10.8,0-12.9-2.1-12.9-12.9c0-59.5,0-119,0-178.4c0-9.9,2.5-12.3,12.5-12.4
		c7.2,0,14.3,0,21.5,0.1c2.5,0.6,2.7,2.6,2.8,4.6c0.1,2.2-0.2,4.3-0.1,6.5c0.2,4.2,2.5,6.7,6.3,6.7c4,0,6.6-2.6,6.7-6.9
		c0.1-2.5-0.4-5-0.2-7.5c0.2-2.2,0.5-4.3,3-5.2c2.7-1.1,5.6-0.9,8.4-0.9c34.5,0,69,0,103.4,0c2.8,0,5.7-0.2,8.4,0.9
		c2.5,0.8,3,2.8,3.1,5.1c0.2,2.5-0.2,5-0.2,7.4c0,4.7,2.6,7.4,6.9,7.1c4-0.3,6.9-3.7,6.5-7.8c-0.2-1.8-0.7-3.6-0.5-5.4
		C427.4,291.6,427.4,289.7,429.6,288.9z"/>
	<path class="st5" d="M194.2,608.7c0.1-40.2,0.2-80.3,0.2-120.5c0-66.8,0-133.6,0-200.5c0-10.9,9.5-20.3,20.5-20.3
		c18.2,0,36.3,0,54.5,0c2.2-0.8,4.7-0.9,5.5,1.5c1.1,3.3,2.1,7.1-1.6,9.8c-18.8-0.1-37.6-0.3-56.4-0.2c-5.7,0-10.7,5-11.4,10.7
		c-0.2,1.8-0.3,3.7-0.3,5.5c0,90.2,0,180.5,0,270.7c0,1.7,0.1,3.3,0.2,5c1.8,2.3,2.4,5,2.4,8c0,9.7,0.1,19.3-0.1,29
		c0,2.4,0.3,5.1-2.3,6.7C201.5,612.8,197.7,611,194.2,608.7z"/>
	<path class="st0" d="M205.4,614.1c0-14.6,0-29.1,0-43.7c2,0.9,3.7,2.2,5.2,3.7c17.9,18,35.9,35.9,53.9,53.9c1.3,1.3,2.7,2.5,3,4.5
		c-17.4-2.1-33.9-7.4-50.1-13.5C213.3,617.5,209.4,615.7,205.4,614.1z"/>
	<path class="st6" d="M273.3,278.8c0.1-2.4,0-4.9,0.2-7.3c0.2-2.9-1.3-4.2-4.1-4.1c8.4-1.5,16.7-1.5,25.1,0
		c-4.7,3.5-1.4,8.4-2.1,12.6c0.5,3.2,0.5,6.3-2,8.8c-0.1,3.8-0.1,7.6-0.3,11.4c-0.2,5.4-3.6,8.9-8.6,9c-5,0-8.2-3.4-8.4-9
		c-0.2-3.8,0.5-7.6-0.5-11.4C273.7,285.6,273,282.2,273.3,278.8z"/>
	<path class="st6" d="M429.6,288.9c-0.1,4-0.1,7.9-0.2,11.9c-0.2,5-3.8,8.4-8.6,8.5c-4.8,0-8.2-3.4-8.4-8.5c-0.1-4-0.1-7.9-0.2-11.9
		c-2.4-2.8-2.1-6.1-1.7-9.4c0-4-0.5-8-1.1-12c8.4-1.5,16.8-1.5,25.2,0c-2.2,2.2-5,4.2-3.5,8.1c0.4,1.1-0.7,2.1-1.5,3
		C429.5,282,429.6,285.4,429.6,288.9z"/>
	<path class="st5" d="M429.5,278.6c-0.1-1.1,0.1-2.4-0.3-3.4c-2.5-7-2.2-7.4,5.3-7.7c13.6,0,27.2,0,40.8-0.1
		c0.9,11.1,0.9,11.1-10,11.1C453.3,278.5,441.4,278.5,429.5,278.6z"/>
	<path class="st5" d="M409.4,267.4c2.5,0.2,3.2,1.8,3.1,4c-0.1,2.4-0.1,4.8-0.1,7.3c-1.7,2-4.1,2.1-6.4,2.1
		c-36.2,0.1-72.5,0.1-108.7,0c-2.5,0-5.1,0-6.8-2.3c-0.2-1.5,0-3.1-0.6-4.4c-2.7-6.1-2.5-6.4,4.6-6.6
		C332.8,267.4,371.1,267.4,409.4,267.4z"/>
	<path class="st7" d="M404.5,363.4c2.1,0.6,1.6,2.7,2.4,4.1c1.9,1.1,1,3,1,4.5c0.1,16.2,0,32.5,0,48.7c0.3,2.7-1.4,3.7-3.4,4.9
		c-5.5,3-6.8,5.9-4.9,11.9c1.2,3.7-0.1,5.5-3.1,7.3c-5.1,3-5.8,4.8-4.5,10.7c0.5,2.2,0.8,4.3-1.5,5.7c-0.5,0.2-0.9,0.4-1.4,0.4
		c-14.1,1.8-15.2,0.8-15.2-13.1c0-5.2-0.1-10.3-2.7-15c-1.6-1.5-3.6-1.5-5.6-1.5c-10.6,0-21.1,0-31.7,0c-2,0-4,0-5.5,1.7
		c-3,5.9-2.5,12.2-2.6,18.4c0,9.3-0.7,10-10.2,9.8c-1.8,0-3.6,0-5.4-0.7c-2.7-1.7-1.6-3.9-0.8-6.2c2.1-6.1,1.5-8.4-3.6-12.5
		c-2.3-1.9-3.1-4-3-6.9c0.2-6.1-1.6-8.6-7.6-10.5c-1.9-0.6-4-0.7-4.4-3.3c0.1-15.8,0.1-31.5,0-47.2c0-4.7,0.6-9.3,4.9-12.4
		c2.5-1.4,5.1-2.1,8.1-2.1c30.8,0.1,61.5,0.1,92.3,0C399.6,360,402.5,360.5,404.5,363.4z"/>
	<path class="st8" d="M409.6,468.2c5.4,2.6,2.1,7.3,2.4,10.9c0.2,3.2-3.2,2.2-5.1,2.2c-38,0.1-76,0.1-114,0c-2.3,0-5.9,0.8-5.1-3.2
		c0.7-3.4-3.5-8.9,3.6-9.9c1.7-1.5,3.7-2.2,5.9-2.1c32.5,0.3,64.9,0.1,97.4,0.1c2.9,0,5.6-0.4,8.3-1.5
		C406.1,464.2,407.4,466.9,409.6,468.2z"/>
	<path class="st1" d="M290.5,278.5c38.3,0,76.6,0,114.9,0c2.3,0,4.7,0.1,7,0.2c-0.1,3.4-0.1,6.8-0.2,10.2c-40.6,0-81.1,0-121.7,0
		C290.5,285.4,290.5,282,290.5,278.5z"/>
	<path class="st9" d="M391.8,459.4c-5.7-8.9-3.6-14.3,7.1-18.3c-5.4-9.8-2.2-17,8.5-18.7c0.4-0.6,0.7-0.6,1,0.1
		c8.4,3.6,9.5,5.3,8.6,15.3c-0.1,1.4,0.3,1.6,1.2,2.2c7.1,5,8.8,9.1,6.3,14.7c-2.5,5.8-7.3,7.6-15.1,5.8c-1.7,0.4-2.8,2.1-4.7,2.1
		c-3,1.3-6.1,1.4-9.2,0.8C393.5,463,392,461.7,391.8,459.4z"/>
	<path class="st9" d="M291.9,422.6c10.8,0.2,14.2,4.2,12.9,15.2c-0.2,1.3,0.3,1.6,1.2,2.2c8.9,6.2,9.7,11.5,3.1,19.4
		c-2.5,4.7-5.7,5.5-11.9,2.9c-1.7-0.2-3.3-0.7-5-0.6c-1.3,0-2.6,0-4,0.1c-5.9,0.4-10.4-2.6-11.5-8c-1-4.9,1.9-9.6,7.2-11.5
		c0.9-0.3,1.9-0.6,2.8-0.9c-4.4-8.6-3.5-12.9,3.8-18C290.9,423,291,422,291.9,422.6z"/>
	<path class="st10" d="M301.2,332.2c0-12.3,6.2-19.5,16.9-19.7c13.4-0.2,20.2,7.6,19.4,22.3c-0.7,11.5-9.8,18.4-22,16.6
		C306.7,350.1,301.2,342.7,301.2,332.2z"/>
	<path class="st10" d="M264.4,331.7c0-5,0-10,0-15c0-2.2,0.2-4,3.1-3.8c2.4,0.2,4.7,0.3,4.6,3.8c-0.1,2.3,0.1,4.7,0,7
		c-0.1,3,1.3,4,4.2,4.1c10,0.5,10.1,0.6,10.2-9.9c0-3.4,1-5,4.6-4.7c2.2,0.2,3.3,0.9,3.3,3.3c0,10.3-0.1,20.6,0,30.9
		c0,2.7-1.4,3.3-3.8,3.4c-2.6,0-4.3-0.5-4.1-3.5c0.1-1,0-2,0-3c-0.3-10.8,2.2-9.6-10.3-9.8c-2.9,0-4.3,1-4.2,4c0.1,2.5,0,5,0.1,7.5
		c0.1,2.7-0.1,4.9-3.8,4.9c-3.6,0-4.1-1.8-4-4.7c0.1-2.5,0-5,0-7.5C264.4,336.3,264.4,334,264.4,331.7z"/>
	<path class="st11" d="M375.6,331.5c0-4.8,0.1-9.6,0-14.5c-0.1-2.8,1-3.9,3.8-3.9c6.8,0.1,13.6,0.1,20.4,0c2.3,0,3.8,0.6,3.7,3.4
		c-0.1,2.6-1.6,2.9-3.6,2.9c-3.8,0-7.6,0-11.5,0c-2.8-0.1-5.2-0.1-5.2,4c0,3.9,1.9,4.3,5,4.2c3.3-0.1,6.6,0,10,0
		c2,0,4.1-0.1,4.1,2.9c0,3.2-2,3.3-4.3,3.3c-3.7,0.1-7.3,0.3-11,0.3c-4.7,0-3.4,3.5-3.6,6.1c-0.3,2.9,0.7,4.3,3.9,4.2
		c4.5-0.2,9,0,13.5,0c2,0,3.5,0.4,3.6,2.9c0.1,2.9-1.5,3.2-3.8,3.2c-7.1,0-14.3-0.1-21.4,0c-2.6,0-3.6-1-3.5-3.5
		C375.6,341.8,375.6,336.7,375.6,331.5C375.6,331.5,375.6,331.5,375.6,331.5z"/>
	<path class="st12" d="M352.2,334.6c0-3.7-0.2-7.3,0-11c0.2-3.3-1.2-4.1-4.4-4.3c-2.5-0.2-7.3,2.5-7-3.1c0.2-5,4.6-2.6,7-2.8
		c6.1-0.3,12.3-0.1,18.4-0.1c2.3,0,4.4,0,4.3,3.3c-0.1,3.1-2.1,2.9-4.1,2.9c-7.1,0-7-1.1-7,7.5c0,6.6,0,13.3,0,19.9
		c0,2.3-0.6,3.8-3.3,3.8c-2.6,0-4.1-0.7-4-3.6C352.3,342.9,352.2,338.8,352.2,334.6z"/>
	<path class="st12" d="M411.2,331.6c0-4.8,0.1-9.6,0-14.5c-0.1-2.9,1.3-3.6,4-3.6c2.7,0,3.5,1.2,3.5,3.6c0,7.6,0.1,15.3,0,22.9
		c-0.1,3.5,1.1,4.8,4.6,4.5c3.6-0.2,7.3,0,11-0.1c2.2,0,3.4,0.6,3.4,3.1c0,2.5-1.3,3.1-3.4,3.1c-6.5,0-13-0.1-19.4,0
		c-2.6,0-3.5-1.2-3.5-3.7C411.2,341.9,411.2,336.7,411.2,331.6C411.2,331.6,411.2,331.6,411.2,331.6z"/>
	<path class="st13" d="M404.5,363.4c-2.7-2.1-5.7-2.9-9.1-2.9c-30.5,0.1-61,0.1-91.5,0c-3.2,0-5.9,1-8.4,2.6c-0.4-0.5-0.4-1.1,0-1.6
		c2.5-1.6,5.1-2.1,8.1-2.1c30.9,0.1,61.8,0,92.8,0.1C399.7,359.5,403.2,359.2,404.5,363.4z"/>
	<path class="st14" d="M295.5,361.5c0,0.5,0,1,0,1.6c-3,3.1-3.6,6.9-3.6,11c0.1,16.1,0,32.3,0,48.4c-0.5,0.3-0.9,0.5-1.4,0.8
		c0-16.7,0-33.3,0-50C290.5,368.7,291.2,364.3,295.5,361.5z"/>
	<path class="st15" d="M408.5,422.5c-0.3,0-0.7,0-1-0.1c0-16.3,0-32.7-0.1-49c0-2-0.3-4-0.5-5.9c2.1,1.3,1.6,3.5,1.6,5.4
		C408.5,389.4,408.5,405.9,408.5,422.5z"/>
	<path class="st16" d="M405.1,460.1c1.7-2.5,3-0.9,4.4,0.4c0,2.6,0.1,5.2,0.1,7.7c-2.1-0.1-5.2,1.7-5.3-2.6
		C402.2,463.4,404,461.8,405.1,460.1z"/>
	<path class="st17" d="M292.2,461.6c1.1-2.1,2-4.8,4.5-1.1c2.1,2.3,2.6,4.7,0,7c-1.6,1.5-3.4,0.7-5.2,0.7
		C291.7,466,291.9,463.8,292.2,461.6z"/>
	<path class="st18" d="M277.4,299.9c0.1-3.3,1.8-4.5,4.5-4.3c2.9,0.2,4.6,1.8,4.4,4.8c-0.2,2.7-1.9,4.2-4.6,4.1
		C278.6,304.4,277.5,302.3,277.4,299.9z"/>
	<path class="st19" d="M421.3,295.5c3.1,0.2,4.9,1.8,4.7,4.7c-0.2,2.8-2.2,4.4-5.2,4.3c-2.8-0.1-4.2-1.8-4.2-4.5
		C416.6,296.8,418.5,295.5,421.3,295.5z"/>
	<path class="st20" d="M325.7,429.6c16.2,0,32.4,0,48.5,0c1.4,1.9,0.7,4.2,0.7,6.2c0.1,6.3,0,12.6,0,18.9c0,6.1-0.5,6.7-6.8,6.9
		c-8.8,0.2-17.6,0.1-26.4,0.1c-3.7,0-7.3,0.1-11-0.1c-5.1-0.3-5.8-1-5.8-5.9c0-7.5,0-15,0-22.4C325,432.1,324.5,430.7,325.7,429.6z"
		/>
	<path class="st21" d="M325.7,429.6c-1.4,9.2-0.3,18.5-0.6,27.8c-0.1,2.2,1.5,2.2,3,2.2c14.4,0,28.9,0,43.3,0c1.9,0,3.2-0.2,3.1-2.6
		c-0.2-9.1,0.4-18.2-0.4-27.4c1.7,1.4,1.3,3.3,1.3,5.1c0.1,6.8,0.1,13.6,0,20.4c-0.1,3.2,1.2,4.5,4.4,4.4c4-0.2,7.9-0.1,11.9-0.1
		c4.3,3,8.7,3.3,13.3,0.7c-0.3,1.8-0.6,3.7-0.9,5.5c-1,2.2-2.7,2.9-5.2,2.9c-32.6-0.1-65.1,0-97.7,0c-1.7,0-3.3-0.2-4.8-1
		c0-2.3,0-4.7,0-7c4.3,1.1,8.5,1.2,12.4-1.1c15.3,0.8,15.1,0.8,15.4-14.3C324.5,440,322.7,434.6,325.7,429.6z"/>
	<path class="st22" d="M332.5,403.5c-2.3-0.9-7,2.4-6.9-4.2c0.1-6.8-0.2-6.8,6.8-6.7c0.8,0,1.7,0,2.5,0c6,0,8.3,3.5,6.3,9.2
		c-0.5,1.4-1.4,1.7-2.7,1.7C336.6,403.5,334.8,403.5,332.5,403.5z"/>
	<path class="st22" d="M366.8,421.3c-1.1,0-1.7,0.1-2.4,0c-1.8-0.3-4.5,1.1-5.3-1.3c-0.9-2.6-0.5-5.6,0-8.3c0.2-1.2,1.5-1.1,2.5-1.1
		c2.2-0.1,4.3-0.1,6.5-0.1c6.4,0,6.1,0,6.3,6.2C374.6,423.7,369.4,420.5,366.8,421.3z"/>
	<path class="st22" d="M366.4,403.5c-0.7,0-1.3,0.1-2,0c-1.8-0.3-4.5,1.1-5.4-1.3c-1-2.6-0.6-5.6,0.1-8.4c0.3-1.1,1.5-1.2,2.5-1.2
		c3.2,0,6.3,0,9.5,0c2.4-0.1,3,1.1,3.2,3.4C374.8,403.5,374.9,403.5,366.4,403.5z"/>
	<path class="st23" d="M333.9,410.5c2.5,0.9,7.4-2.4,7.4,4.3c-0.1,6.4,0.1,6.6-6.6,6.5c-1.2,0-2.3-0.2-3.5,0c-4.3,0.6-6-1-5.8-5.5
		C325.7,410.4,325.5,410.4,333.9,410.5z"/>
	<path class="st24" d="M388.4,403.5c-2.7-0.6-7.5,2.1-7.1-4.6c0.3-6.3,0-6.3,6.3-6.3c0.8,0,1.7,0,2.5,0c6.2,0.1,8.2,2.8,6.5,9
		c-0.4,1.4-1.1,1.9-2.4,1.9C392.3,403.5,390.5,403.5,388.4,403.5z"/>
	<path class="st24" d="M310.8,421.3c-3.8-0.1-8.1,1.3-7.8-5.5c0.2-4.5,1.5-6,5.8-5.4c1,0.1,2,0,3,0c6.7,0.1,8.1,2,6.7,8.7
		c-0.4,1.7-1.2,2.2-2.7,2.2C314.1,421.3,312.5,421.3,310.8,421.3z"/>
	<path class="st24" d="M389.3,410.5c7.9-0.1,7.9,0,7.4,7.5c-0.2,2.2-0.8,3.4-3.2,3.3c-2-0.1-4,0-6,0c-5.7,0-8-3.8-5.9-9.3
		c0.5-1.2,1.2-1.4,2.3-1.4C385.6,410.5,387.5,410.5,389.3,410.5z"/>
	<path class="st24" d="M310.3,392.7c1.1,0,1.8,0,2.5,0c5,0.1,8,5.2,5.6,9.7c-0.6,1.1-1.5,1.1-2.5,1.2c-2,0-4,0-6,0
		c-6.2,0-8.5-3-6.4-8.9C304.7,390.6,308.3,393.6,310.3,392.7z"/>
	<path class="st25" d="M359.3,371.1c-4.7,4.9-4.7,4.9-3.5,11.6c-3.7-3.4-7.3-4.5-11.2-0.1c1.7-4.6,1.9-8.4-3.6-10.5
		c5.2-0.1,8.9-1.5,8.7-7.7C352,368.3,352.2,374.1,359.3,371.1z"/>
	<path class="st23" d="M314.2,429.5c3.1-0.5,5.4,0,5.3,4.7c-0.1,5.2-3.4,3.6-6.1,3.9c-3.7,0.4-5.3-0.8-5.3-4.9
		C308.1,428.5,311.1,429.5,314.2,429.5z"/>
	<path class="st26" d="M386.1,438.1c-3.4,0.3-5.7,0.5-5.8-4c-0.1-5.1,2.7-4.6,5.9-4.6c2.9,0,5.3-0.5,5.4,4
		C391.7,438.5,389.1,438.5,386.1,438.1z"/>
	<path class="st27" d="M328.4,366.8c1.2,3.9,3.2,6,7.8,4.9c-3.6,2.6-5,5.3-2.9,9.3c-3.4-3-6.4-3.1-9.7,0.1c1.8-4,0.9-6.9-4-9.5
		C324.6,371.9,327.7,371.4,328.4,366.8z"/>
	<path class="st28" d="M366.9,381.3c1.4-4.2,1.4-7.3-3.4-9.2c4.1-0.3,7.6-0.2,7.6-5.7c1.6,3.8,3.3,6.5,7.8,5.3
		c-2.8,2.7-5,5.3-2.5,9.4C373,379,370.1,376.6,366.9,381.3z"/>
	<path class="st29" d="M384.6,379.7c1.3-3.3,0.5-5.4-2.7-7.3c3-0.6,5.8-0.4,5.8-4.5c1.9,2.6,3.1,4.8,6.4,4.3
		c-2.3,2.1-3.4,4.2-1.1,7.7C389.6,378.3,387.2,376.1,384.6,379.7z"/>
	<path class="st30" d="M305.8,372.4c3.2,0.2,4.5-2,6.2-3.6c0.6,2.7,2.7,3.3,6.2,3.3c-3.2,2.2-4.7,4.2-2.4,7.4
		c-2.9-2-5.2-2.4-8.1,0.7C308.3,376.8,309.2,374.2,305.8,372.4z"/>
	<path class="st4" d="M329.7,331.6c0.1,9.3-4.4,14.2-12.1,13.1c-0.8-0.1-1.7-0.3-2.4-0.6c-5.4-2.3-7.6-9.8-5.2-17.6
		c1.7-5.7,6.3-8.3,12.5-7C327.3,320.5,329.7,324.4,329.7,331.6z"/>
</g>
</svg>
