<?xml version="1.0" encoding="utf-8"?>
<!-- Generator: Adobe Illustrator 19.0.0, SVG Export Plug-In . SVG Version: 6.00 Build 0)  -->
<svg version="1.1" id="Calque_1" xmlns="http://www.w3.org/2000/svg" xmlns:xlink="http://www.w3.org/1999/xlink" x="0px" y="0px"
	 viewBox="0 0 612 792" style="enable-background:new 0 0 612 792;" xml:space="preserve">
<style type="text/css">
	.st0{fill:#03CBA9;}
	.st1{fill:#0CE4C1;}
	.st2{fill:#979797;}
</style>
<g>
	<path class="st0" d="M363.1,444.8c12.7-6,23.8-14.4,34.5-23.2c14.1-11.5,26-25.1,36.3-40.1c12.4-18.1,21.9-37.5,28-58.6
		c5.8-19.9,8.6-40.1,8-60.8c0-1.4-0.4-3,0.9-4.2c22.1,7.7,38.3,22.3,48.8,43c14.4,28.2,14.7,57.9,6.9,87.9
		c-4.8,18.5-12.7,35.6-24.1,51c-0.4,0.5-0.8,0.8-1.4,1.1c-2.6,0.8-5.3,0.5-7.9,0.5c-30.7,0-61.3,0.1-92-0.1c-5.5,0-8.5,1.7-10.5,6.9
		c-4.4,11.2-9.3,22.1-14.1,33.1c-0.5,1.1-0.9,2.2-1.5,3.2c-0.8,1.3-1.5,2.8-3.3,2.7c-1.9-0.2-2.1-1.9-2.5-3.3
		c-0.4-1.3-0.6-2.6-0.9-3.9c-2-9.8-3.8-19.6-5.9-29.4C362.2,448.5,361.4,446.5,363.1,444.8z"/>
	<path class="st0" d="M495.8,449.1c-9,11.3-19.4,21.1-30.9,29.7c-34.4,25.8-68.8,51.5-103.1,77.3c-2,1.5-3.4,3.1-6.3,0.8
		c-37-28.1-74.2-56-111.3-83.9c-2-1.5-3.7-3.4-5.5-5.1c1.5-1.6,3.3-1.3,5.1-1c23.1,2.7,45.9,1.1,68.4-4.1c11.5-2.7,22.8-6.2,33.7-11
		c2.6-1.1,5.1-2.6,8.1-2.3c2.5,1.5,2.5,4.2,3,6.6c2.9,14.4,5.8,28.7,8.7,43.1c0.2,1,0.4,2,0.6,2.9c0.6,2.2,0.9,5,3.9,5.1
		c2.6,0.1,3.5-2.2,4.4-4.2c7-16.2,14.1-32.4,20.8-48.7c2.1-5.1,5.1-7.1,10.5-7c27.8,0.2,55.6,0.1,83.4,0.1
		C491.6,447.4,494.1,446.9,495.8,449.1z"/>
	<path class="st1" d="M304.4,439.8c4.8,0,6-1.7,6.7-6c5.8-35.6,11.9-71.1,18-106.7c0.5-2.7,1.3-5.3,4.8-5.4c3.7-0.1,4.6,2.3,5.2,5.4
		c5.5,27.7,11.1,55.4,16.8,83c2.3,11.6,4.8,23.1,7.2,34.7c0,0.1,0,0.2,0.1,0.4c2,0.9,3.7-0.7,5.3-1.6c21.6-12.6,40.7-28.3,56.5-47.8
		C449.8,364.9,465,330,470,290.7c1.4-10.9,2-21.9,0.9-32.8c-0.7-0.4-1.4-1-2.1-1.2c-28.6-9.7-56.1-8-82.4,7.5
		c-11.4,6.8-20.6,16.1-28.3,27.7c-5.8-8.8-12.4-16.2-20.4-22.2c-20.8-15.6-44.2-21.5-69.9-17.7c-35.2,5.2-60.9,23.4-74.8,56.6
		c-10.5,25-10.2,50.8-4.3,76.7c4.5,19.8,13.4,37.7,24.4,54.6C243.5,439.7,274,439.6,304.4,439.8z"/>
	<path class="st1" d="M220.9,449.3c19.6-0.1,39.3-0.2,58.9-0.3c10.5,0,21-0.2,31.5,0.1c4.8,0.1,7.2-1.3,8-6.5
		c4.8-29.3,9.9-58.6,15.6-88.1c1.6,7.6,3.2,15.3,4.8,22.9c4.8,23.6,9.5,47.2,14.3,70.8c0.1,0.5,0,1,0,1.5
		c-17.7,8.3-36.1,14.1-55.4,17.1c-11.8,1.9-23.7,2.8-35.6,2.8c-8.1,0-16.2-1.2-24.2-1.8c-7.1-5-12.5-11.7-17.8-18.5L220.9,449.3z"/>
	<path class="st2" d="M220.9,449.3c0,0,0,0.1,0,0.1c-2.2,0.5-2.4,2.6-3.2,4.1c-3.4,7.2-6.6,14.5-10,21.7c-1.2,2.5-1.7,5.5-5.5,5.7
		c-4.1,0.1-4.7-3.1-6-5.7c-6.9-14.9-13.7-29.9-21-45.9c-3.2,5.3-6.2,9.7-8.7,14.5c-2,3.9-4.8,5.3-9.2,5.2c-9.5-0.3-19-0.3-28.5,0
		c-4.2,0.1-4.8-1.4-5-5.1c-0.2-4.4,2.2-4.3,5.3-4.2c8,0.1,16-0.2,24,0.2c3.7,0.2,5.7-1.3,7.5-4.3c3.2-5.8,6.8-11.4,10.2-17.2
		c1.3-2.2,2.6-3.7,5.4-3.6c2.7,0.1,3.7,1.9,4.6,3.9c6.2,13.6,12.4,27.2,18.6,40.8c0.7,1.4,1,3.2,3.1,4.5c3.5-7.8,7-15.4,10.5-23
		C216.9,442.5,217.9,446.8,220.9,449.3z"/>
	<path class="st2" d="M496,448.8c2-3.1,5.1-5.5,6.3-9.2c0,0,0.3,0,0.3,0c11.8,0,23.6,0.1,35.4-0.1c3.6-0.1,4,1.6,4,4.5
		c0,3-0.3,4.9-4.2,4.9C523.9,448.8,509.9,448.9,496,448.8z"/>
</g>
</svg>
