<?xml version="1.0" encoding="utf-8"?>
<!-- Generator: Adobe Illustrator 19.0.0, SVG Export Plug-In . SVG Version: 6.00 Build 0)  -->
<svg version="1.1" id="Calque_1" xmlns="http://www.w3.org/2000/svg" xmlns:xlink="http://www.w3.org/1999/xlink" x="0px" y="0px"
	 viewBox="0 0 612 792" style="enable-background:new 0 0 612 792;" xml:space="preserve">
<style type="text/css">
	.st0{fill:#00B496;}
	.st1{fill:#E6EBEE;}
	.st2{fill:#03CBA9;}
</style>
<g>
	<path class="st0" d="M224.8,568.2c-1.2-2.5,0.5-4.4,1.4-6.4c8.1-17,16.3-33.8,24.3-50.8c12.9-27.3,25.5-54.8,38.7-81.9
		c7.6-15.5,15-31.1,20.1-47.6c4.6-14.7,7.2-29.8,8.7-45.2c2.4-23.9-0.5-47-8.9-69.3c-10-26.6-27.2-47.1-52.4-60.9
		c-14.8-8-30.4-12.9-47-14.8c-1.3-0.1-2.2-0.7-2.8-1.8c66.2-5.3,125.7,39.4,139.6,104.4c7.3,34.4,1.3,66.9-16.7,97.3
		c-29.5,49.5-58.7,99.2-88,148.9c-0.4,0.7-0.7,1.5-1.1,2.2c0.4,2.6-1.5,4.3-2.6,6.2c-3.2,5.6-6.8,11-9.8,16.7
		C227.6,566.5,226.8,568,224.8,568.2z"/>
	<path class="st1" d="M224.8,568.2c5.3-8.7,10.6-17.4,15.9-26c7.2,1.1,14.4,2.3,21.6,3.3c8.6,1.2,16.2,5.4,24.3,8.1
		c3.2,1.1,5.4,4.8,8.3,6.8c5.8,4,7.5,13.1,2.8,18.5c-2.9,3.4-6.2,6.5-10.3,8.6c-5.5,2.8-11.5,4.5-16.9,7.1c-5.9,2.9-11.9,2.9-18,3.9
		c-4.5,0.7-9.1,1.5-13.5,2.6c-3,0.8-7.1,0.1-10.7,0.2c-3.2,0.1-6.6-0.8-9.7,1.4c-2.2,1.6-3.4-2-5.9-1.6c-4.2,0.7-8.7-0.7-12.9,0.7
		c-2.5,0.8-3.6-1.9-6-1.7c-4.1,0.3-8-1.5-12.3-0.2c-2.9,0.8-5.2-2.6-8.5-3c-12.7-1.6-23.7-7.8-34.6-14c-1.8-1-2.5-4-3.6-6.2
		c-1.2-2.3-1.2-5.1-2.9-7.4c-1.2-1.6,0.5-3.1,1.7-4.2c3.7-3.8,7.5-7.6,11.3-11.3c1.7-1.6,3.5-3.2,6.2-2.1c1.5,0.6,2.6-0.4,3.7-0.9
		c6.8-3.1,14.1-4.9,21.2-6.9c5.2-1.5,11.6-1.9,17.5-1.8c7.7,12.9,15.5,25.8,23.5,39.1C220.2,576.8,222.6,572.6,224.8,568.2z"/>
	<path class="st2" d="M319.4,305.7c-2-22.1-8-42.9-20-61.6c-17.3-27.1-42.2-43.7-73.3-51.5c-6.3-1.6-12.8-1.8-19.1-3.3
		c-5.4,0.7-10.9,1.1-16.3,2.2c-88.6,18.2-133.7,117.8-88.6,195.7c16.3,28.2,33.2,56.2,49.8,84.2c13.9,23.5,27.7,47,41.5,70.6
		c0.5,5,4.2,8.5,6.4,12.7c4.3,8.2,9.4,16,14.1,24c2.2,3.8,3.7,3.9,6,0.2c2.2-3.5,4.9-6.7,5.8-10.9c1.1-7.1,5-13,8-19.3
		c21.2-43.9,41.9-88.1,62.9-132.1C313.5,381.6,322.9,345.1,319.4,305.7z M274.7,374.6c-13.1,14.7-30.1,22.8-49.8,25
		c-25.7,2.9-47.5-5.3-66.3-22.6c-3.3-3-6.6-6.2-7.7-10.8c-10.6-15.6-15.7-32.7-15-51.7c1.4-36.7,32.3-70.5,68.9-74.2
		c35.8-3.7,62.8,10.4,81.1,41.3c0.3,0.6,0.7,1.1,1.1,1.6c2.2,2,3.4,4.5,4.3,7.2C302.1,321.7,296.6,350,274.7,374.6z"/>
	<path class="st0" d="M150.9,366.2c11.6,14.8,26.1,25.7,44.6,30c32.6,7.6,60.8-1,81.8-27c20.7-25.6,23.8-54.4,9.8-84.6
		c-0.2-0.4-0.1-1-0.1-1.5c2.3-0.5,3.2,1.5,4,2.8c7.9,11.7,13.3,24.2,15.1,38.5c2.9,22.3-2.8,42.2-16.2,59.7
		c-13.1,17.1-30.3,27.9-51.9,31.1c-28.1,4.2-52.1-4.1-72.2-23.9c-6-6-10.7-13.1-14.6-20.7C150.6,369.3,149.1,367.8,150.9,366.2z"/>
	<path class="st0" d="M244.7,305.2c3.7,0,7.3,0.2,11-0.1c2.7-0.2,3.4,0.9,3.3,3.5c-0.1,6.8-0.2,13.7,0,20.5c0.1,3.2-0.7,4.4-4.1,4.2
		c-7.1-0.3-14.3,0.1-21.5-0.2c-3.1-0.1-4,0.9-3.9,3.9c0.2,7.2-0.1,14.3,0.1,21.5c0.1,3-0.8,4.1-3.9,4c-6.7-0.2-13.3-0.2-20,0
		c-3.2,0.1-4.4-0.8-4.3-4.2c0.2-6.8-0.1-13.7,0.2-20.5c0.1-3.6-0.6-5-4.6-4.8c-7,0.4-14-0.1-21,0.2c-3.4,0.1-4.2-1.1-4.1-4.2
		c0.2-6.7,0.2-13.3,0-20c-0.1-3.1,0.8-4.1,3.9-4c6.8,0.2,13.7-0.2,20.5,0.2c4,0.2,5.6-0.7,5.3-5.1c-0.4-6.6,0.1-13.3-0.2-20
		c-0.2-3.6,1.1-4.5,4.5-4.4c6.5,0.3,13,0.2,19.5,0c3.4-0.1,4.3,1.1,4.2,4.3c-0.2,7.2,0.1,14.3-0.1,21.5c-0.1,2.8,0.8,3.8,3.7,3.7
		C237,305,240.9,305.2,244.7,305.2z"/>
</g>
</svg>
