<?xml version="1.0" encoding="utf-8"?>
<!-- Generator: Adobe Illustrator 19.0.0, SVG Export Plug-In . SVG Version: 6.00 Build 0)  -->
<svg version="1.1" id="Calque_1" xmlns="http://www.w3.org/2000/svg" xmlns:xlink="http://www.w3.org/1999/xlink" x="0px" y="0px"
	 viewBox="0 0 612 792" style="enable-background:new 0 0 612 792;" xml:space="preserve">
<g>
	<path d="M121.4,607.1c1.5,1.1,3.2,2.2,4.6,3.6c4.3,4.5,4.4,10.7,0.3,14.7c-4.1,4-10.3,4-14.8-0.3c-8.6-8.4-17-16.9-25.5-25.4
		c-12-12-24.1-24-36-36.1c-4.6-4.7-4.7-11-0.4-15.1c4.1-4,10.1-3.7,14.8,0.6c0.9,0.8,1.6,1.7,2.5,2.5c0.6,0.6,1.2,1,1.5,1.2
		c20.1-20.1,40-39.9,60.3-60.3c-6.2-6.2-13-12.7-19.5-19.5c-6-6.2-3.8-15.7,4.3-17.3c3-0.6,6.7,1,9.6,2.5c2.1,1,3.4,3.6,5.3,5.9
		c2-1.9,3.4-3.2,4.8-4.6c70.2-70.2,140.5-140.5,210.7-210.7c6.6-6.6,10.8-6.9,19-0.7c4.2-4.4,8.5-9,12.8-13.5
		c7.4-7.5,11-7.7,19.9-0.4c3.8-4,7.6-8.1,11.6-12c5.6-5.5,10.9-5.4,16.5,0.1c2.3,2.3,4.6,4.8,7,7.3c1.8-1.7,3.1-2.9,4.4-4.2
		c19-19,37.9-38,57-56.9c1.7-1.7,3.8-3.4,6-4.3c4.3-1.7,9.3,0.3,11.7,4.2c2.5,3.9,2,9.1-1.7,12.8c-7,7.2-14.1,14.2-21.2,21.2
		c-13.7,13.7-27.3,27.3-41.4,41.4c1.5,1.5,2.8,3,4.1,4.3c9.8,9.7,9.8,13.1-0.2,22.9c-2.8,2.8-5.9,5.3-8.7,7.9
		c7.4,10.1,7.2,12.8-1.2,21.1c-4.1,4.1-8.3,8.1-12.4,12.1c6.1,8.5,5.8,12.1-1.4,19.4C355.8,401.5,286,471.4,216,541.2
		c-1.5,1.5-3.6,2.5-5.6,3.8c3,3.2,5,5,6.6,7c3.9,4.6,3.6,10.5-0.5,14.4c-3.9,3.7-9.9,3.9-14-0.2c-6.9-6.8-13.4-13.8-19.9-20.5
		C162.2,566.4,142.3,586.2,121.4,607.1z M406,321.6c-17.5-17.6-35-35.1-52.2-52.4c-6.3,6.2-12.7,12.6-19.8,19.7
		c2.5,2.3,5.4,4.8,8.1,7.4c6.7,6.6,7.6,12.4,2.6,17.2c-4.8,4.7-10.6,3.8-17.3-2.9c-2.7-2.7-5.1-5.5-7-7.5
		c-6.1,6.1-11.4,11.5-17.4,17.5c1.7,1.4,4.1,3,5.9,5.1c4.1,4.6,3.9,10.3-0.2,14.3c-4,4-9.8,4-14.4-0.1c-2.2-2-4.3-4-5.9-5.6
		c-5.7,5.6-11,10.8-17.4,17.1c3.2,2.7,6.7,5.5,9.9,8.6c5.3,5.1,5.7,11.5,1.3,15.8c-4.5,4.4-10.5,4-15.8-1.5
		c-3.1-3.2-5.9-6.7-8.3-9.5c-6.4,6.3-11.8,11.6-17.2,17c9.2,11.2,10.7,15.8,5.5,20.3c-9.4,8.1-14.8-0.7-20.2-5.4
		c-5.7,5.5-11.2,10.8-17.4,16.8c3.4,3.1,7,6.1,10.3,9.4c4.8,4.9,5.1,10.8,1,15.1c-4.1,4.4-10.6,4.2-15.5-0.6
		c-3.3-3.3-6.3-6.9-9.1-9.9c-6.1,6-11.5,11.4-18,17.8c1.8,1.3,4.1,2.6,6,4.5c4.7,4.8,4.7,10.9,0.4,15c-4.3,4.1-9.9,4-14.7-0.5
		c-2-1.9-3.9-3.8-5.3-5.2c-6.8,6.8-13.2,13.1-18.8,18.7c17.2,17.3,34.8,34.9,52.2,52.4C266.6,461,336.3,391.3,406,321.6z
		 M84.7,568.2c7.3,7.2,15,14.8,22,21.8c19.7-19.7,39.6-39.6,58.9-58.9c-7.1-7.3-14.6-15-21.6-22.2
		C124.2,528.7,104.3,548.6,84.7,568.2z M420.7,289.6c-11.8-11.8-23.6-23.6-35.4-35.3c-2.7,2.6-5.5,5.4-8.1,8
		c11.9,11.9,23.7,23.6,35.4,35.3C415.3,295,418.1,292.2,420.7,289.6z M431.3,260.2c-5.6-5.9-10.8-11.4-15.6-16.4
		c-2,1.6-3.9,3.2-5.6,4.6c5.6,5.6,11,11,16.7,16.6C428.4,263.4,430,261.6,431.3,260.2z"/>
</g>
</svg>
