<?xml version="1.0" encoding="utf-8"?>
<!-- Generator: Adobe Illustrator 19.0.0, SVG Export Plug-In . SVG Version: 6.00 Build 0)  -->
<svg version="1.1" id="Calque_1" xmlns="http://www.w3.org/2000/svg" xmlns:xlink="http://www.w3.org/1999/xlink" x="0px" y="0px"
	 viewBox="0 0 612 792" style="enable-background:new 0 0 612 792;" xml:space="preserve">
<g>
	<path d="M223.5,423.9c-16.7-1.2-31.8-5.3-46.2-12.3c-32-15.7-53.5-41.1-68.3-72.9c-13.5-29.2-20.6-60.1-23.9-91.9
		c-1.7-15.9-3-31.9-2.9-47.9c0.2-34.7,22.4-60.3,54.4-70.2c3.9-1.2,8.2-1.4,12.9-2.2c0.1-1.9,0.3-4,0.5-6
		c0.8-9.2,7.7-15.6,16.4-15.5c8.5,0.1,15.5,6.6,15.7,15.6c0.4,17.5,0.4,35,0,52.5c-0.2,9-7.3,15.6-15.6,15.8
		c-8.6,0.2-15.7-6.4-16.5-15.5c-0.3-3.5-0.2-7-0.2-10.5c0-3.3,0-6.6,0-10.6c-10.6,1-19.2,5.5-26.6,12c-9.5,8.5-14,19.8-13.9,32.1
		c0.2,45.5,5.7,90.1,25.7,131.7c14,29.2,34.2,53.1,65.6,63.7c55.3,18.7,115.6,4.3,148.6-57.7c13.2-24.9,20.9-51.5,24.6-79.2
		c2.3-17.3,3.7-34.8,4.4-52.2c1.1-24.9-13.3-43.7-36.5-49.4c-0.9-0.2-1.9-0.2-3.6-0.4c0,6.6,0.2,12.8,0,19.1
		c-0.2,7.6-4.5,13.7-10.9,15.9c-10.9,3.8-21.3-3.9-21.5-16.5c-0.3-16.3-0.1-32.7,0-49c0-0.8,0.1-1.7,0.2-2.5c1.1-9,7.7-15.1,16.4-15
		c8.4,0.1,15.7,6.7,15.6,15.6c0,5.7,2.3,7,7.1,8.2c35.2,8.8,55.9,33.6,56.2,69.4c0.3,41.2-5.5,81.7-20.4,120.5
		c-10.5,27.4-25.6,52-47.9,71.6c-22.9,20.1-49.2,32.2-79.9,33.4c-1.3,0.1-2.6,0.2-4,0.4c-0.2,0-0.3,0.1-1,0.3c0,1.4,0,3,0,4.7
		c0,21.8,0.6,43.7-0.2,65.5c-1.8,49.2,34.8,83.8,72.7,93c49.2,12,101.9-19.1,113.8-68.1c1.8-7.5,2.2-15.5,2.4-23.3
		c0.4-12.5,0.1-25,0.1-37.7c-1.9-0.6-3.6-1.1-5.3-1.7c-29-9.1-45.2-40.1-36-69c9-28.4,39.6-44.6,67.7-35.8
		c19.1,6,33.5,24.6,34.5,46.4c0.4,8.2-0.2,16.8-2.4,24.7c-5.1,18.2-18.5,28.3-36.3,32.8c-4.7,1.2-6.2,3-6.1,7.9
		c0,17.1,0.6,34.4-1.1,51.4c-4.8,47.7-43.9,89.2-91.1,97.8c-66.7,12.2-127.1-31.3-136.2-98.6c-1.8-13.3-0.9-26.9-1-40.4
		c-0.1-14.8,0-29.7,0-44.5C223.5,427.8,223.5,426.1,223.5,423.9z M447.6,434.1c16.4,0.1,29.7-12.9,30-29.2
		c0.3-16.5-13-30.1-29.5-30.1c-16.6-0.1-30,13.2-30,29.7C418,420.6,431.3,434,447.6,434.1z"/>
</g>
</svg>
