<?xml version="1.0" encoding="utf-8"?>
<!-- Generator: Adobe Illustrator 19.0.0, SVG Export Plug-In . SVG Version: 6.00 Build 0)  -->
<svg version="1.1" id="Calque_1" xmlns="http://www.w3.org/2000/svg" xmlns:xlink="http://www.w3.org/1999/xlink" x="0px" y="0px"
	 viewBox="0 0 612 792" style="enable-background:new 0 0 612 792;" xml:space="preserve">
<style type="text/css">
	.st0{fill:#7F7F7F;}
	.st1{fill:#03CBA9;}
	.st2{fill:#E2E6E9;}
	.st3{fill:#04CAA9;}
	.st4{fill:#6D6C6C;}
	.st5{fill:#CBD0D3;}
	.st6{fill:#7F8080;}
	.st7{fill:#00B496;}
	.st8{fill:#CBCFD2;}
	.st9{fill:#01B396;}
	.st10{fill:#01B496;}
	.st11{fill:#C8D3D5;}
	.st12{fill:#FDFDFD;}
	.st13{fill:#C8CDD0;}
	.st14{fill:#CBD0D2;}
</style>
<g>
	<path class="st0" d="M200.5,615.5c0-7.5-0.1-15,0-22.5c0.1-15.5,9.9-25.5,25.2-25.5c61.3-0.1,122.7,0,184-0.1c1.5,0,3-0.1,4.5-0.1
		c1.7-1.2,3.7-1.4,5.7-1.4c28.7,0,57.5-0.1,86.2,0c1.8,0,3.7,0.1,5.2,1.4c15.3,1.4,24,10.9,24.1,26.3c0,7.3,0.1,14.6,0.1,21.9
		C423.8,615.5,312.1,615.5,200.5,615.5z"/>
	<path class="st1" d="M511.2,567.3c-32.4,0-64.7,0-97.1,0c1.1-11.6,2.3-23.2,3.4-34.8c7.3-1.9,14.7-1.6,22.1-1.2
		c7.6,0.4,15.2-0.9,22.8,0.1c2.3,0.3,3.3-1.2,3-3.4c-0.2-2-0.5-3.9-0.4-5.9c-0.4-10-0.4-10-10.6-10c-9.3,0-18.5,0-27.8,0
		c-2.3,0-4.7,0.2-6.8-1c-0.6-0.4-0.7-0.9-0.5-1.6c2-19.8,4.1-39.7,6-59.5c1.5-14.7,2.7-29.5,4.2-44.2c0.6-6.1-1.3-10.5-6.5-14
		c-17.3-11.6-34.4-23.3-51.6-35c-0.4-0.3-0.6-0.8-0.7-1.3c0.3-2.1,2.3-2.7,3.7-3.7c10.5-7.4,18-16.9,21.1-29.6
		c0.5-2.2,0.6-4.7,2.9-6.1c22.9,13.6,45.7,27.1,68.1,41.6c15.3,9.9,20.6,25.3,22.8,42.4c4.8,37.4,9.8,74.8,14.7,112.2
		C506.6,530.7,508.9,549,511.2,567.3z"/>
	<path class="st0" d="M279.5,420.5c-9.1-0.5-11.3-2.7-11.3-12c0-51.8,0-103.6,0-155.5c0-9.3,1.9-11.4,11.2-11.8
		c1.7-1.4,3.7-1.4,5.7-1.4c18,0,36-0.1,53.9,0c1.8,0,3.7,0.1,5.3,1.2c1,1,1.4,2.3,1.4,3.6c0.1,8.5,0.7,17.1-0.3,25.6
		c-0.9,2.5-3.2,2.6-5.3,3.2c-18.3,5.1-29.5,17.8-30.1,36.4c-0.5,14.2,5.9,25.7,18.5,33.2c6,3.6,12.4,5.5,19.5,5.2
		c1.8-0.1,4.8-1.3,5.1,2.5c-7.2,3-7.2,3-7.2,11.5c0,17,0,34,0,51c0,2.6,0.4,5.4-1.5,7.7c-1.9,1.3-4.1,1.2-6.2,1.2
		c-17.4,0-34.8,0-52.2,0C283.8,422.1,281.4,422.2,279.5,420.5z"/>
	<path class="st2" d="M353.5,349.6c-10.4,0.7-20.2-1-28.8-7.4c-12.8-9.6-18.9-26-14.6-41.2c4.7-16.7,16-26.4,33-29.4
		c0.5-0.1,1-0.2,1.5-0.3c7.7-3,20.4,0.4,26.9,7.1c10,7.9,14.1,19.1,17.1,30.9c1.5,17-10.3,33.8-28.2,40.1
		C358,349.7,355.8,351.2,353.5,349.6z"/>
	<path class="st3" d="M247.6,421.3c0.2,11.6-1.2,23-6.1,33.6c-4.4,9.6-11.2,16.1-22.2,18c-8.1,1.4-15.1,6-22.2,10.1
		c-10.2,5.9-20.2,12.3-31.5,16c-14.7,4.8-25.3,1.8-34.3-10.5c-7.3-9.8-16.8-17-26.6-24c-4.9-3.5-9.7-7-13.9-11.3
		c-7.3-7.5-9.1-16-5.1-25.7c2-5,4.6-9.7,8-13.8c4.2-5,5.6-10.8,5.8-17.1c0.1-6.5,0.4-13,1.8-19.4c1.3-5.8,4.4-10.5,9.3-13.7
		c12.8-8.3,26.5-11.2,41.4-6.5c8.9,2.8,17.7,5.6,27,6.8c4.9,0.6,9.1-0.2,13.2-3.1c12.8-8.9,31.9-5.8,41,6.9
		c10.8,15.1,13.9,32.5,14.5,50.6C247.7,419.3,247.6,420.3,247.6,421.3z"/>
	<path class="st1" d="M344.5,241.6c-19.3-0.1-38.6-0.1-58-0.2c-2.3,0-4.7-0.1-7-0.2c0-16.2,0-32.4,0-48.6c4-1.6,8.2,0,12.2-0.9
		c1.6-0.7,3.2-0.7,4.9-0.7c15.2-0.1,30.5,0.2,45.7-0.2c2.1-0.1,4.3-0.1,6.2,1.3c1.4,1.6,1.4,3.7,1.4,5.6c0.1,12.7,0.1,25.4,0,38.1
		c0,1.8-0.1,3.6-1,5.3C347.6,242.6,346.1,242.7,344.5,241.6z"/>
	<path class="st2" d="M419.4,509.4c0.1,0.3,0.2,0.5,0.2,0.8c-1.7,2.1-4.2,1.7-6.5,1.7c-7.8,0.1-15.6,0-23.3,0c-6.6,0-6.6,0-8,6.3
		c-0.2,1-0.5,1.9-1.3,2.6c-2.3,1.4-4.8,1.2-7.3,1.2c-34.7,0-69.4,0-104.1,0c-2.6,0-5.4,0.3-7.6-1.6c-0.9-5.4,0.3-10.9,0.1-16.3
		c-0.2-3.5,2.7-2.7,4.7-2.7c16.1-0.1,32.3-0.1,48.4-0.1c20.3,0,40.6,0.1,60.9-0.1c3.5,0,5.5,0.6,4.9,4.6c-0.5,3.6,2,3.5,4.4,3.5
		C396.4,509.4,407.9,509.4,419.4,509.4z"/>
	<path class="st2" d="M291.5,191.4c0-14.5,0.1-28.9-0.1-43.4c0-4.1,1-5.1,5.5-4.9c11.6,0.6,23.2,0.4,34.7,0.1
		c2.3-0.1,4.5,0.2,6.8,0.2c1.6,1.8,1.6,4,1.6,6.1c0,12,0.1,24,0,36c-0.1,6-0.6,6.4-6.7,6.4c-12.3,0-24.7,0-37,0
		C294.7,191.9,293,192.4,291.5,191.4z"/>
	<path class="st1" d="M279.5,420.5c19.3,0,38.6-0.1,58-0.1c2.3,0,4.7-0.1,7-0.2c1.6-1,3.1-0.9,4.5,0.5c1.7,3.4,1,7.1,1.1,10.7
		c0.1,5.4,0.1,10.8,0,16.3c0,1.8-0.1,3.6-1.4,5.1c-2,1.5-4.4,1.4-6.7,1.3c-13.9-0.4-27.8,0-41.8-0.2c-6.9-0.1-13.7-0.8-20.6-1.6
		C279.6,441.7,279.6,431.1,279.5,420.5z"/>
	<path class="st4" d="M348.4,420.6c-1.3-0.1-2.6-0.3-4-0.4c0-21,0.1-42-0.1-63c-0.1-4.8,0.6-7.8,6.3-6.7c1,0.2,2,0,2.8-0.9
		c2.2-0.4,4.4-0.8,6.6-1.2c4.7,1.3,8.3,4.2,11.4,7.8c0.1,0.2,0.1,0.4,0.2,0.5c0,17.9-0.1,35.8-0.1,53.6c0,6.5-1.4,8.2-7.8,10.2
		C358.6,422.8,353.5,422.8,348.4,420.6z"/>
	<path class="st5" d="M261.5,520.5c39.6,0,79.3,0,118.9,0c0.6,0.6,0.7,1.2,0.1,1.9c0,9.1,0,9.1-9.3,9.1c-34.5,0-68.9,0-103.4,0
		c-6.4,0-6.4,0-6.4-6.5C261.4,523.5,261.5,522,261.5,520.5z"/>
	<path class="st6" d="M380.5,522.3c0-0.6-0.1-1.2-0.1-1.9c0.4-10,0.4-10,10.4-10c9.6,0,19.2-0.1,28.8-0.2c13.8,0,27.6,0.3,41.3,0
		c4.5-0.1,6.5,1,5.8,5.7c-0.3,2.1-0.2,4.3-0.2,6.5c-1.8,1.6-3.9,1.6-6.1,1.6c-11.9,0.1-23.9,0-35.8,0c-2.2,0-4.3,0-6.2-1.5
		C405.7,522.5,393.1,522.4,380.5,522.3z"/>
	<path class="st4" d="M344.5,241.6c1.3-0.1,2.6-0.2,4-0.3c5.1-2.2,10.2-2.2,15.2,0c5.9,1.2,7.8,3.5,7.8,9.4c0,9.2,0,18.5,0,27.7
		c-8.4-4.7-17.1-7.8-26.9-7.1C344.5,261.4,344.5,251.5,344.5,241.6z"/>
	<path class="st7" d="M363.7,241.3c-5.1,0-10.2,0-15.2,0c0-16.3,0-32.6,0-48.8c5-0.9,10-0.6,15-0.1
		C363.5,208.7,363.6,225,363.7,241.3z"/>
	<path class="st2" d="M338.4,468.5c-9.9,1.6-19.9-0.8-29.9,0.6c-4.6,0.6-9.8-0.6-14.7-0.7c-2.4,0-2.3-1.9-2.3-3.5
		c0-3.8,0-7.6,0-11.4c6.8-1,13.6-0.3,20.4-0.4c7.8-0.1,15.7,0.1,23.5-0.1c3-0.1,4.5,1.2,4.5,4C339.9,460.8,341.2,464.9,338.4,468.5z
		"/>
	<path class="st8" d="M363.5,192.4c-5,0-10,0.1-15,0.1c-19-0.1-38-0.2-57-0.3c-0.3-0.1-0.5-0.3-0.4-0.5c0.1-0.2,0.2-0.3,0.3-0.3
		c0,0,0,0,0,0c14.1,0,28.2-0.1,42.3,0.1c3.7,0.1,4.8-1.1,4.8-4.8c-0.2-14.4-0.1-28.9-0.1-43.3c11.9-0.2,11.9-0.2,11.9,11.9
		c0,10.3,0.3,20.7-0.1,31c-0.1,4.4,1.4,5.4,5.4,5.2C358.3,191.4,361.1,190.5,363.5,192.4z"/>
	<path class="st9" d="M371.4,356.3c-4.1-2.2-7.8-4.9-11.4-7.8c13-5.2,22.2-14,26.2-27.8c1.1-3.7,0.2-7.8,2.3-11.3
		c3.4,2.3,6.7,4.6,10.1,6.8c-2.5,13.1-8.3,24.3-18.4,33.3C377.4,351.9,373.3,352.7,371.4,356.3z"/>
	<path class="st10" d="M418.4,522.6c16,0,32.1-0.1,48.1-0.1c0.1,1.8,0.1,3.6,0.6,5.4c1.1,4.2-0.7,6.1-4.9,5.3
		c-5.9-1.1-11.7-0.8-17.7-0.1c-3.5,0.5-7.2-0.4-10.8-0.7c-5.4-0.4-10.7,1.4-16.1,0C417,529.1,418.3,525.9,418.4,522.6z"/>
	<path class="st7" d="M348.4,420.6c5.1,0,10.1,0,15.2,0c-0.1,10.6-0.1,21.3-0.2,31.9c-5,0.6-10,1-15-0.1
		C348.5,441.8,348.5,431.2,348.4,420.6z"/>
	<path class="st11" d="M348.5,452.4c5,0,10,0.1,15,0.1c-2.7,2.1-5.8,0.9-8.6,0.9c-3.6-0.1-4.8,1.3-4.4,4.7c0.1,0.8,0,1.7,0,2.5
		c0,9.6-2.3,11.1-12,8c0-3.6-0.2-7.3,0.1-10.9c0.2-3.4-1.2-4.2-4.3-4.2c-14.2,0.1-28.4,0-42.7,0c-3.9-0.8-8.1,1.3-11.9-1.2
		C302.6,452.3,325.5,452.4,348.5,452.4z"/>
	<path class="st2" d="M291.4,191.5c0,0.2,0,0.5,0,0.7c-4,0.1-8,0.3-11.9,0.4C283.3,190.1,287.5,192,291.4,191.5z"/>
	<path class="st0" d="M363.5,310.9c-0.1,8.1-7.5,15.5-15.3,15.3c-8.5-0.2-15.5-7.2-15.6-15.6c0-8.7,6.7-15.3,15.6-15.2
		C356.9,295.4,363.6,302.2,363.5,310.9z"/>
	<path class="st12" d="M93.6,440.4c-2.2-4.8-0.3-9.1,1.5-13.4c0.8-2,1.7-4.1,3.1-5.7c7.7-8.7,9.4-19,9.6-30.1
		c0.1-7.9-0.2-16.5,7.8-21.5c9.9-6.3,20.7-9,32.3-5.6c10.2,3,20.3,6.4,30.9,7.6c6.6,0.8,12.4-0.4,17.9-4.3
		c6.5-4.7,18.2-4.6,24.9-0.1c5.7,11.2,7.5,23.3,9.3,35.5c1.5,9.7,0.4,19.2-1.1,28.8c-1.1,7-3.6,13.5-7.9,19.2
		c-3.2,4.1-7.1,7-12.2,8.1c-10.2,2.2-19.5,6.6-28.5,11.8c-7.1,4.1-14.4,7.5-22.5,9.2c-10.7,2.2-19.4-1.3-25.8-9.3
		c-9.1-11.1-20.2-19.2-32.8-25.7C97.6,443.9,95.3,442.5,93.6,440.4z"/>
	<path class="st2" d="M93.6,440.4c14.4,7.2,28.6,14.6,38.6,28c7.9,10.7,20.4,13.5,33.5,8.4c7.8-3,15-7.2,22.2-11.3
		c5.6-3.1,11.3-5.9,17.5-6.9c13.1-2,19-10.9,22-22.2c4-15.6,3.4-31.3-0.1-47.1c-1.7-7.4-4.7-14.5-5.7-22c4.1,2.3,6.6,6.1,8.5,10.1
		c10.4,21.9,12.6,44.6,6.5,68c-2.8,10.7-9,18.1-20.9,20c-8.4,1.4-15.6,6.5-23,10.7c-9.1,5.2-17.9,10.9-27.9,14.3
		c-12.8,4.2-20.3,2-28.3-8.7c-6.4-8.5-14.6-15-23.1-21.2c-5-3.6-10.2-7-14.5-11.4C96.3,446.8,94,444.1,93.6,440.4z"/>
	<path class="st5" d="M187.5,417.3c0,0.4,0.2,1.9-0.3,3c-0.8,2-2,4.1-4.6,3.9c-2.2-0.2-3.4-2.1-3.2-4.3c0.3-3.7-1.7-4.6-4.9-4.4
		c-2,0.1-4,0.1-6,0c-7.1-0.4-11.9-6.1-11-13.1c0.3-2.3,0.9-4.9,4-4.8c2.8,0.1,4,2.1,3.9,4.7c-0.1,3.9,2,5.3,5.6,5.2
		c3.5,0,6.9-0.1,10.3,0.9C186.5,409.8,187.6,411.1,187.5,417.3z"/>
	<path class="st5" d="M146.2,389.4c-0.2,4.2-5.3,8.7-11.2,8.9c-4.2,0.2-5.5,1.4-3.9,5.4c0.9,2.4-0.6,3.9-2.6,4.6
		c-2,0.6-3.8,0.1-5.1-2c-5-8.4-1.4-15.4,8.4-15.8c2.6-0.1,5.7,0.1,5.6-3.9c-0.1-2.5,0.7-4.6,3.2-4.8c2.7-0.2,4,2,4.8,4.3
		C145.8,387.1,145.9,388.3,146.2,389.4z"/>
	<path class="st13" d="M191.5,451c0,6.5-2.6,9.2-9.4,9.4c-3.7,0.1-8-0.9-7.8,5.2c0,1.3-1.4,2.3-2.8,2.6c-1.8,0.4-2.8-0.8-3.6-2.1
		c-3.8-5.5,0.2-12.7,7.7-13.6c1.6-0.2,3.3,0,5-0.1c2-0.1,3.3-1.3,2.8-3.2c-0.9-3.6-0.2-6.5,3.6-6.4c3.5,0.1,4.3,3.5,4.5,6.7
		C191.5,450,191.5,450.5,191.5,451z"/>
	<path class="st14" d="M216.5,408.1c0,1.7,0.1,3.3-0.8,4.8c-2.3,3.6-3.2,6.9,1.8,9.3c1.4,0.7,1.2,2.7,0.8,4.1
		c-0.5,1.8-1.9,2.1-3.5,2.1c-5.7,0.3-10.5-6-9-12.2c0.4-1.8,1.2-3.5,1.9-5.1c1-2.3,1.5-4.3-0.8-6.2c-1.9-1.6-1.9-3.9-0.2-5.7
		c1.7-1.9,3.8-1.6,5.8-0.2C215.3,401.1,216.6,403.7,216.5,408.1z"/>
	<path class="st5" d="M150.5,437.8c0,3.4-3.3,5.2-6,2.8c-3.5-3.2-6-2-9.1,0.4c-4.3,3.3-8.9,3.2-13.4,0.1c-2.6-1.8-3.6-4.1-1.8-6.8
		c1.8-2.6,4.1-2.5,6.3-0.3c2.5,2.4,4.2,0.1,6-1c6.7-4.2,12.1-3.7,16.4,1.4C149.9,435.5,150.6,436.5,150.5,437.8z"/>
</g>
</svg>
