<?xml version="1.0" encoding="utf-8"?>
<!-- Generator: Adobe Illustrator 19.0.0, SVG Export Plug-In . SVG Version: 6.00 Build 0)  -->
<svg version="1.1" id="Calque_1" xmlns="http://www.w3.org/2000/svg" xmlns:xlink="http://www.w3.org/1999/xlink" x="0px" y="0px"
	 viewBox="0 0 612 792" style="enable-background:new 0 0 612 792;" xml:space="preserve">
<g>
	<path d="M222,583.3c3.1-1.5,5.8-3.4,8.7-4.1c5.2-1.2,9.9,1.3,12.3,5.6c3,5.5,2.7,12.5-0.8,16.4c-3.3,3.8-8.3,4.5-13.8,3
		c-2.5-0.7-5.4-0.2-8.1,0.1c-4.7,0.7-8-1-9.1-5.5c-4.3-18.1-8.8-36.2-12.4-54.5c-3.7-19.2,4.6-35.7,21.5-45.5
		c1.3-0.7,2.8-2.8,2.6-3.9c-2-12.8-4.5-25.6-10.8-37.2c-0.4-0.7-1-1.3-1.6-2.1c-0.7,0.2-1.4,0.3-1.9,0.7
		c-24.7,18.1-42.4,40.8-46.3,72.2c-0.6,4.9-0.5,10-0.5,15c-0.1,22.7-0.1,45.3,0.1,68c0,2.3,1.9,4.5,2.6,6.8c0.7,2.4,2.1,5.3,1.3,7.2
		c-0.8,2-3.6,4.1-5.8,4.4c-4.7,0.7-9.6,0.4-14.5,0.2c-5-0.1-7.7-2.4-7.7-6.6c-0.1-4.7,2.6-6.9,7-7.4c0.8-0.1,1.6-0.2,2.9-0.4
		c0-2.1,0-4,0-6c0-22,0.5-44-0.1-66c-1.1-36.3,14-65.1,40.3-88.7c22.7-20.4,49.6-32.6,79-39.8c1.1-0.3,2.2-0.7,4.1-1.3
		c-1.8-1.3-3-2.3-4.2-3.1c-17.3-11.8-29.7-27.5-37-47.2c-0.9-2.4-1.5-4.3-4.8-4.7c-14-1.6-24-11.5-25-24.3
		c-1-13.2,7.3-24.4,21.1-28.3c0.8-0.2,1.6-0.4,2.4-0.6c0.5-8.1,0.3-16.2,1.5-24c3.9-26.9,1.4-53.9,1.5-80.8
		c0.1-9.2,3.1-15.4,9.7-21.1c14.6-12.5,31.7-19.6,50.3-22.9c30.3-5.3,60.4-4.8,89.8,5.3c12.6,4.3,23.9,11,32.6,21.3
		c3.3,4,5,8.2,5,13.6c-0.3,18.7-0.3,37.3,0,56c0.1,8.6,1.3,17.2,1.8,25.8c0.6,10.1,1.1,20.2,1.7,31c9.2,1.5,17.7,5.8,21.6,15
		c2.2,5.3,3.2,11.7,2.4,17.4c-1.8,13.1-14.2,21.4-30,21.5c-16.4,30.6-16.4,30.6-41.5,50.2c1.7,0.5,3,1,4.3,1.3
		c32.4,8.2,61.7,22.2,85.3,46.4c21.9,22.3,34.1,48.8,33.4,80.7c-0.5,22.7-0.1,45.3-0.1,68c0,1.7,0,3.3,0,5.8c2.2,0,4.1,0,6,0
		c9.8,0,12.9,1.7,13.1,6.9c0.1,5.4-3,7.2-12.7,7.2c-28,0-56,0-84,0c-75.5,0-151,0-226.5,0c-8.1,0-11.5-2.2-11.3-7.2
		c0.2-4.8,3.6-6.9,11.2-6.9c94.7,0,189.3,0,284,0c1.8,0,3.6,0,5.9,0c0.1-1.7,0.4-3.1,0.4-4.6c0-25,0.4-50-0.1-75
		c-0.6-30.8-15.7-54.3-39-74.2c-2,2.7-4.1,4.8-5.4,7.4c-5,10.3-9.7,20.7-14.6,31.1c-1.4,3-0.7,4.9,1.9,7.2
		c11,9.7,14.5,24.8,9.3,38.2c-5.1,13.2-17.6,21.6-31.8,21.7c-19.3,0.1-34.5-15.6-34.2-35.3c0.3-18.7,16.4-34.1,35.3-33.2
		c4.2,0.2,5.6-0.9,6.9-4.7c4.8-14.4,11.2-28.1,21.1-40.6c-1.6-1.1-2.9-2.2-4.4-3.1c-17.3-10.8-36-17.9-55.7-22.6
		c-3.2-0.8-4.4,0.4-5.5,3.1c-11,25-22.1,49.9-33.2,74.8c-0.9,2.1-2,4.3-3.7,5.8c-3.7,3.2-8.7,1.4-11.1-3.9
		c-6.2-13.8-12.4-27.6-18.6-41.5c-5.3-11.8-10.6-23.7-15.9-35.6c-1-2.3-1.9-3.9-5-3.2c-18.3,4-35.8,10.2-52.6,19.7
		c8.6,14.3,11.8,30,14.7,46c1.3,0.1,2.4,0.4,3.5,0.4c20.6,0.2,35.9,10.8,41.6,30.8c5.2,18,9,36.5,13.2,54.8c1,4.2-1.4,6.8-5.3,8.4
		c-1.8,0.7-3.9,1.9-4.8,3.5c-3.6,6.3-9.2,8.9-15.4,6.5c-5.8-2.2-9.5-10.3-7.8-16.7c1.6-6.2,7.6-9.7,14.4-8.4
		c0.6,0.1,1.3,0.2,2.2,0.3c0.1-0.8,0.3-1.4,0.2-2c-3.3-13.9-6.1-28-10-41.7c-5-17.2-19.3-24.8-36.1-20.2
		c-13.3,3.7-21.6,15.3-20.8,29.3c0.2,2.6,0.5,5.3,1.1,7.9C216.2,558.7,219.1,571.1,222,583.3z M237.4,310.5
		c0.8,11.9,0.6,23.9,2.6,35.6c6.5,38.3,41.2,66.8,80.3,66.9c39.1,0.1,74.4-28.2,80.7-66.4c2.4-14.2,1.8-28.9,1.9-43.3
		c0.1-8.1-1-16.2-1.5-24.4c-0.2-3.6-2-4.2-5.2-4.2c-13,0.1-26-0.2-39,0.2c-3.4,0.1-7.2,1.3-10,3.2c-24.6,17.3-51.8,27.8-81.8,30.7
		C256.6,309.8,247.7,310,237.4,310.5z M240.9,260.4c1.7,0.2,2.7,0.4,3.7,0.4c50.1,0,100.2,0,150.4,0.1c4.1,0,5.1-1.9,5-5.5
		c-0.1-19,0.1-38-0.2-56.9c0-2.4-1.2-5.2-2.8-7c-6.6-7.6-15.2-12.3-24.6-15.6c-27.1-9.5-54.8-10.1-82.7-5.2
		c-15.8,2.7-30.4,8.5-42.9,18.8c-4.1,3.4-6.6,7-5.9,12.7c0.6,4.9,0.1,10,0.1,15C240.9,231.4,240.9,245.7,240.9,260.4z M350.8,423.5
		c-9.9,1.2-19.4,3.1-28.9,3.2c-9.6,0.1-19.3-1.6-29.2-2.6c9.5,21.2,19,42.5,29,64.9C331.7,466.5,341.2,445,350.8,423.5z
		 M324.4,275.9c-0.7-0.6-0.8-0.8-0.9-0.8c-26.8-0.1-53.5-0.2-80.3-0.1c-1.1,0-3,1.9-3.3,3.2c-0.9,4.2-1.2,8.5-1.9,12.8
		c-0.6,3.7,0.8,5.3,4.6,5c9.3-0.7,18.6-0.8,27.8-2C289.4,291.4,307.3,285.4,324.4,275.9z M419.3,533.9c0.1-11.4-8.8-20.5-20.1-20.5
		c-10.9,0-20.1,9.1-20.2,20c-0.1,11,9.3,20.5,20.3,20.5C410.3,553.9,419.2,545,419.3,533.9z M415.8,349c7.5-0.4,12.5-5.7,12.4-12.5
		c-0.2-6.2-4.8-11-10.8-11.2C416.8,333.1,416.3,340.8,415.8,349z M224.8,344.3c-0.3-4.2-0.6-8-0.7-11.8c-0.1-3.9,0-7.8,0-11.9
		c-6.7,2.1-10.3,6.8-10,12.3C214.4,338.5,218.3,342.7,224.8,344.3z"/>
	<path d="M285.7,212.8c0-1,0-2,0-3c0.1-9.1,3.9-13,13.2-12.9c4.2,0.1,6.3-0.7,6.1-5.7c-0.3-10,3.8-13.8,13.9-13.9c2,0,4-0.1,6,0
		c8,0.3,12.1,4.5,12.3,12.6c0.1,6.7,0.1,6.7,6.7,6.8c8.1,0.1,12.3,4.2,12.6,12.3c0.1,1.7-0.1,3.3,0,5c0.7,10.2-4.7,16.2-14.8,15
		c-3.5-0.4-4.9,1.2-4.5,4.6c1.2,10.7-5.4,15.6-15.1,14.8c-1.3-0.1-2.7,0-4,0c-9-0.1-13-4.2-13.2-13.2c-0.1-2.7,1.4-6.1-3.8-6.3
		C287.8,228.5,285.7,226.1,285.7,212.8z M316.4,189.3c0,5-0.2,9.8,0.1,14.5c0.2,3.6-1.2,4.8-4.6,4.5c-3.1-0.2-6.3,0.1-9.5-0.1
		c-3.6-0.2-5.4,0.7-5.3,4.9c0.1,4,1.7,4.8,5.1,4.6c3.1-0.2,6.3,0.1,9.5-0.1c3.7-0.3,5.1,1.1,4.9,4.8c-0.3,4.7-0.1,9.5-0.1,14.1
		c9.4,1,9.4,1,9.4-7.1c0-2.7,0.1-5.3,0-8c-0.2-2.8,1-3.9,3.8-3.8c3.8,0.1,7.7-0.1,11.5,0.1c4.1,0.3,3.9-2.2,4-5.1
		c0.1-3.2-0.9-4.6-4.2-4.4c-3.6,0.2-7.3-0.1-11,0.1c-3,0.1-4.2-0.9-4.1-4c0.2-4.9,0-9.9,0-15C322.4,189.3,319.8,189.3,316.4,189.3z"
		/>
</g>
</svg>
