<?xml version="1.0" encoding="utf-8"?>
<!-- Generator: Adobe Illustrator 19.0.0, SVG Export Plug-In . SVG Version: 6.00 Build 0)  -->
<svg version="1.1" id="Calque_1" xmlns="http://www.w3.org/2000/svg" xmlns:xlink="http://www.w3.org/1999/xlink" x="0px" y="0px"
	 viewBox="0 0 612 792" style="enable-background:new 0 0 612 792;" xml:space="preserve">
<style type="text/css">
	.st0{fill:#E88853;}
	.st1{fill:#D27B4B;}
	.st2{fill:#44C3A0;}
	.st3{fill:#E9EDF0;}
	.st4{fill:#3EA698;}
	.st5{fill:#3FA89A;}
	.st6{fill:#3EA89A;}
	.st7{fill:#3EA99B;}
</style>
<g>
	<path class="st0" d="M272,140c13,0,26,0,39,0c7.7,0.9,15.4,1,23.1,1.6c11.9,0.9,23.2,4.1,34.5,7.5c34.7,10.7,65.8,28,93,51.9
		c23.3,20.4,42.7,44.2,57.5,71.6c11.9,22,20.6,45.1,25.7,69.5c2.1,9.9,2,20,2.7,30c0.1,1.6-0.5,3.3,0.5,4.9c0,13,0,26,0,39
		c-1.3,5.8-0.1,11.9-1.8,17.7c-1.8,2.2-3.7,1.7-5.7,0.3c-1.7-1.3-3.2-2.9-4.7-4.4c-24.9-24.9-49.8-49.9-74.6-74.9
		c-13.2-13.3-26.8-26.3-39.7-40c-3.6-3.8-7.9-7.1-10.9-11.6c-1.2-1.7-3.2-2.3-5.2-2.8c-3.3-2.8-5.5-6.6-8.6-9.6
		c-16.8-16.4-42.3-16.4-59,0.2c-3.5,3.5-6.7,7.4-10.9,10.2c-14,11.9-28.8,23-42.4,35.4c-14.6,13.3-28.8,27-42.3,41.5
		c-15.9,17-30.3,35.3-45.2,53.1c-2.7,3.9-6.3,6.9-9.5,10.1c-19.1,19.2-17.2,47.9,4.3,64.4c1.6,1.2,3.3,2.2,4.6,3.8
		c0.9,3.2,2.8,5.3,5.4,7.4c6,4.7,10.9,10.7,16.4,15.9c5.2,4.9,10.2,10,15.1,15.1c5.3,5.5,10.8,10.8,16.1,16.2
		c4.4,4.5,8.8,9,13.4,13.3c5.3,5,10.3,10.4,15.5,15.5c5,4.9,9.7,10,14.8,14.7c4.1,3.7,7.6,7.9,11.5,11.7
		c7.8,7.5,15.3,15.2,22.9,22.8c2.1,2.1,4.9,4.5,2,8.1c-4.6,1.4-9.3,0.8-14,1.3c-1.6,0.2-3.3-0.5-4.8,0.5c-13,0-26,0-39,0
		c-7.3-0.9-14.7-1-22.1-1.6c-10.2-0.8-20-3.2-29.7-6.1c-34.8-10.2-66.2-26.8-93.9-50.2c-23-19.4-42.3-41.8-57.5-67.8
		c-14.4-24.6-24.6-50.9-30-79c-1.7-9.1-1.7-18.4-2.3-27.6c-0.1-1.3,0.4-2.7-0.5-3.9c0-13.3,0-26.7,0-40c0.9-7.3,1-14.7,1.6-22.1
		c0.8-10.2,3.2-20,6.1-29.7c10.2-34.8,26.7-66.2,50.2-93.9c19.3-22.8,41.6-42.1,67.3-57.2c24.4-14.4,50.6-24.5,78.4-30.1
		c9.4-1.9,19-1.8,28.6-2.4C269.4,140.4,270.8,140.9,272,140z"/>
	<path class="st1" d="M544.9,434c-2.2,19.5-7.3,38.2-14.9,56.2c-34.4,81.9-94.8,133.6-180.9,155.4c-6.3,1.6-12.6,3-19.1,3.3
		c-4.8-7.5-12.2-12.6-18.1-19.1c-4.9-5.5-10.4-10.6-15.7-15.8c-5.2-5.1-10.4-10.2-15.7-15.2c-4.1-3.9-8-8-11.9-11.9
		c-9.8-9.8-19.8-19.5-29.5-29.5c-7.9-8.2-16.1-16.2-24.1-24.3c-4.9-5.1-9.5-10.6-15.3-14.9c-2.3-1.7-4.6-3.8-4.7-7.1
		c2.2-1.7,4.4-0.8,6.6,0c17.9,6,33.2,2,46.2-11.6c2.7-2.9,5.5-5.7,8.6-8.2c11.3-9.5,23.2-18.3,34.3-28.2
		c17.6-15.7,34.9-31.7,51-49.1c15.8-17.1,30.5-35.1,45.2-53.2c2.9-3.7,6.4-6.8,9.7-10.1c12.3-12.4,15.6-26.9,10.6-43.5
		c-0.7-2.5-3.1-5.1-0.4-7.8c2.4-0.6,3.7,1.4,5,2.6c4.7,4.4,9,9.2,13.5,13.8c8.4,8.5,16.8,17,25.2,25.4c8.2,8.2,16.4,16.4,24.6,24.6
		c9.3,9.3,18.5,18.6,27.8,27.8c12.2,12.2,24.5,24.5,36.7,36.7C541.3,431.7,542.6,433.5,544.9,434z"/>
	<path class="st2" d="M387.9,362.4c-11.9,16.7-25.4,32.1-39.2,47.3c-26.5,29.2-55.5,55.7-86.7,79.8c-1.2,0.9-2.5,1.7-3.7,2.5
		c-1.8,0.3-3.4-0.3-4.5-1.8c-19-18.3-37.7-37-56-56c-1.5-1.1-2-2.7-1.8-4.5c8.5-12.4,18.3-23.7,28.1-34.9
		c29.7-34.2,62.7-65.1,98.6-92.8c0.9-0.7,1.9-1.2,2.9-1.9c1.8-0.2,3.4,0.3,4.5,1.8c19,18.3,37.7,37,56,56
		C387.7,359,388.2,360.5,387.9,362.4z"/>
	<path class="st3" d="M255,488.6c1.1,1.1,2.2,2.2,3.3,3.3c-9.6,11-19.6,21.3-35.2,23.5c-9.9,1.4-19.1-0.6-28-4.6
		c-11.5-7.3-19.7-17.1-22.3-30.9c-2.5-13.4,0.5-25.4,8.8-36c4.2-5.3,9.1-10,14.4-14.4c1.1,1.1,2.2,2.2,3.3,3.3c0.8,3.6-2,5.4-4,7.5
		c-5.8,5.8-11.1,11.9-13.7,19.9c-4.9,15.1,0.5,31.4,13.7,41.1c12.2,8.9,29.9,8.8,42.5-0.3c4.1-2.9,7.6-6.4,11.2-9.9
		C250.6,489.5,252.4,488,255,488.6z"/>
	<path class="st3" d="M387.9,362.4c-1.1-1.1-2.2-2.2-3.3-3.3c-0.8-3.6,2-5.4,4-7.5c5.8-5.8,11.1-11.9,13.7-19.9
		c4.5-13.9-0.4-30.9-11.3-39.3c-13.4-10.3-29.8-11.2-43.3-2.7c-4.8,3.1-8.7,7.1-12.8,11.1c-1.7,1.7-3.4,3.2-6.1,2.6
		c-1.1-1.1-2.2-2.2-3.3-3.3c8.5-9.4,16.9-18.9,29.9-22.3c18.6-4.9,37.3,1.7,48.5,17.4c1,1.4,1.9,2.7,2.9,4
		c7.1,15.6,7.2,30.9-2.2,45.6C400.2,351.6,394,357,387.9,362.4z"/>
	<path class="st1" d="M328.9,303.4c3.7-3.6,7.4-7.1,11.2-10.7c15.6-15,39.7-15.1,54.9,0c15.2,15.1,15.5,39.1,0.7,54.9
		c-3.6,3.9-7.3,7.7-11,11.5C366.1,340.5,347.5,321.9,328.9,303.4z"/>
	<path class="st1" d="M255,488.6c-3.6,3.4-7.2,6.9-10.8,10.3c-16,15.5-40.3,15.5-55.6,0c-15.2-15.3-15-39.4,0.4-55.2
		c3.5-3.6,6.9-7.2,10.3-10.8C217.9,451.5,236.5,470.1,255,488.6z"/>
	<path class="st4" d="M237,438.8c12.3-17.8,79.4-85.4,92-92.7C298.7,377.3,267.2,407.5,237,438.8z"/>
	<path class="st5" d="M361.1,373.3c-25.2,36.1-55.8,66.7-91.9,91.8C302.8,437.4,333.4,406.8,361.1,373.3z"/>
	<path class="st6" d="M313.7,331c-31.4,26.5-60.3,55.5-86.8,86.8C250.6,383.5,279.6,354.6,313.7,331z"/>
	<path class="st7" d="M335.3,371.9c-18.4,21.3-46,48.8-67,67C287.9,419.4,315.5,391.8,335.3,371.9z"/>
</g>
</svg>
