<?xml version="1.0" encoding="utf-8"?>
<!-- Generator: Adobe Illustrator 19.0.0, SVG Export Plug-In . SVG Version: 6.00 Build 0)  -->
<svg version="1.1" id="Calque_1" xmlns="http://www.w3.org/2000/svg" xmlns:xlink="http://www.w3.org/1999/xlink" x="0px" y="0px"
	 viewBox="0 0 612 792" style="enable-background:new 0 0 612 792;" xml:space="preserve">
<style type="text/css">
	.st0{fill:#4A5055;}
	.st1{fill:#D4D6D7;}
	.st2{fill:#60ACDF;}
	.st3{fill:#D8D9D8;}
	.st4{fill:#62B346;}
	.st5{fill:#D8DAD9;}
	.st6{fill:#D7D8D7;}
	.st7{fill:#B2B4B5;}
	.st8{fill:#ABACAC;}
	.st9{fill:#A5A6A6;}
	.st10{fill:#B3B5B6;}
	.st11{fill:#63ABDC;}
	.st12{fill:#F0F4F5;}
	.st13{fill:#60ADDF;}
	.st14{fill:#AFAFAF;}
	.st15{fill:#4E83A6;}
	.st16{fill:#A2A2A1;}
	.st17{fill:#4E82A6;}
	.st18{fill:#B4B6B7;}
	.st19{fill:#4F84A7;}
	.st20{fill:#5387AA;}
	.st21{fill:#4E83A7;}
	.st22{fill:#D4D6D6;}
</style>
<g>
	<path class="st0" d="M313.1,289c4.8-13.7,11.5-26.2,22.4-36c24.4-22,52.8-27.9,83.5-17.3c30.4,10.5,48.3,32.8,53,64.7
		c2.4,16.3,0.5,32.9,0.9,49.4c0.1,2.7,0.1,5.3,0.2,8c1.2,2.6,1.5,5.4,1.5,8.3c0,22.1,0,44.3,0,66.4c0,2.5,0.2,5-1.1,7.3
		c-2.1,2.2-4.9,1.6-7.5,1.7c-7-0.2-14,1.2-20.9-0.9c-1.1-0.9-1.4-2.1-1.5-3.4c-0.3-4-0.2-8-0.1-12.1c-0.1-4.3-0.1-8.5,0-12.8
		c-0.1-1.8-0.1-3.7,0-5.5c-0.2-5.3-0.2-10.6,0-15.9c-0.2-21.1-0.1-42.2-0.1-63.3c0.1-8.6,1-17.3-0.8-25.9
		c-5.1-23.9-25.3-40-49.7-40.4c-20.7-0.3-35.6,8.9-46.3,26.1c-4.7,10.5-6.2,21.6-6.2,33c0.1,14.6,0.1,29.2,0,43.8
		c0.2,7.8,0.2,15.7,0,23.5c0.1,4,0.1,8.1,0,12.1c0.1,4,0.1,8,0,12.1c0.1,4.3,0.1,8.7,0,13c0.1,4,0.1,8.1,0,12.1
		c-0.2,4.3,1.2,8.9-1.4,13c-0.1,5-0.1,9.9-0.2,14.9c-1.3,3.3,0.4,6.6,0.2,9.9c-0.1,0.5-0.2,1-0.3,1.5c-3.3,16-10.1,30.3-21.2,42.4
		c-13.5,13.5-29.5,22-48.4,24.7c-7.9,1.4-15.7,1.3-23.6,0c-9.4-1.2-18.3-4-26.7-8.4c-19.6-10.8-33.4-26.5-40.6-47.9
		c-1.7-4.9-2.2-10.1-3.5-15c0-20.4-1.7-40.9,1.3-61.3l0,0c2.4-1.9,5.3-1.4,8.1-1.4c4.6-0.1,9.1-0.1,13.7,0c8.1,0,8.7,0.7,8.8,8.9
		c0,13.3,0.3,26.6-0.1,39.9c-0.4,13.9,3.7,26.2,12.4,37c4.2,5.1,9.3,9.1,15.2,12.1c16.4,7.3,32.7,7.5,48.9-0.9c4-1.7,7-4.8,10.4-7.3
		c2-1.5,3.3-3.5,4.6-5.5c7.1-9.4,11.2-19.9,10.7-31.9c-0.2-4.1-0.1-8.3-0.1-12.5c-0.2-4.1-0.1-8.3,0-12.4c-0.1-4-0.1-8,0-11.9
		c-0.1-4.3-0.1-8.6,0-13c-0.1-4-0.1-8,0-12.1c-0.1-4.1-0.1-8.1,0-12.2c-0.2-7.9-0.2-15.9,0-23.8c0.3-20.8-1.2-41.6,1-62.3
		C310,297.3,309.9,292.6,313.1,289z"/>
	<path class="st1" d="M197.8,410.7c-4.6,0-9.2,0-13.8,0.1c-3-5.5-1.2-11.3-1.3-17c0-1.6,0.6-3.2,0.2-4.9c-7.8-2-15.8-3.2-23.1-6.8
		c-22.7-11.4-36.9-29.2-41.8-54.3c-1.7-8.6-0.9-17.2-0.9-25.9c-0.1-21.3,0-42.7-0.2-64c0-3.9,1-5.2,5-5.1c8,0.2,15.9,1.7,23.9,1
		c2.8,5,2.7,10.1,0.1,15.1c-3.5,0-7,0.2-10.5-0.1c-3.6-0.3-4.5,1.3-4.4,4.6c0.1,21.3-0.7,42.7,0.3,64c1.4,29.4,20.5,52,50.8,57.4
		c2.6,0.5,5.3,0.1,8,0.1c1.6-1.1,3.4-1.2,5.2-1.3c27.5-1.4,50.9-23.9,53.6-51.3c0.4-3.7,0.3-7.6,2.1-11.1c0-19.3,0-38.5,0.1-57.8
		c0-3.6-1.2-4.8-4.6-4.5c-2.3,0.2-4.7,0.1-7,0c-2.2-0.1-3.5,0.5-3.4,3c0.1,1.4-0.1,3-1.8,3c-5.4-0.1-10.9,1.2-16.2-0.8
		c3.1-2.7,7-1.6,10.5-1.6c3.6-0.1,5.1-1.4,5-5c-0.1-4.5-0.1-8.9,0-13.4c0-2.1-0.1-4.3,1.5-6.1c2.2,1.3-0.2,5.2,2.2,5.5
		c4.2,0.6,8.7,0.8,12.9,0.1c15-2.3,15-2.5,15,12.2c0,19.1,0,38.2,0,57.3c2.9,6.2,1.2,12.6,1.1,18.9c-0.1,2.4-0.7,4.9-1.2,7.3
		c-2.7,13.1-8.7,24.6-17,35c-8.4,9.2-18.4,16.2-30.1,20.8c-4.1,1.8-8.3,3.5-12.7,3.8c-4.9,0.3-6.3,2.7-5.6,7
		C199,400.8,201,406.1,197.8,410.7z"/>
	<path class="st1" d="M445,439.9c6.9,0.1,13.9,0.1,20.8,0.2c0.4,0.3,0.8,0.8,1,1.3c1,5.9,0.4,11.9,0.5,17.8c0,3.1,1.1,5,4.1,5.9
		c14.4,4.6,27,23.5,21.1,41.9c-5.3,15.4-16.8,24.3-32.5,25.2c-11.9,0-21.4-5-28.8-14.2c-3-3.8-5-8.1-5.3-13.1c0.7-5-1.7-6.2-6.3-6.1
		c-10.1,0.3-20.3,0-30.5,0.1c-3.6,0-6.3-0.8-6.3-5.1c0-4.4,2.8-5,6.4-5c11.2,0.1,22.3,0,33.5,0.1c2.4,0,4.1-0.3,5.1-2.9
		c1.4-3.6,0.7-5.2-3.5-5.1c-11.5,0.1-23,0-34.5,0.1c-3.6,0-6.9-0.1-6.9-4.9c-0.1-5.2,3.4-5.2,7.2-5.2c15,0.1,30-0.1,45,0.1
		c6.2,0.1,10.3-5,15.9-6.3c0.9-0.2,0.9-1.3,0.9-2.1c0-4.5,0-9,0-13.5c0-1.9-1.3-2-2.7-2c-1.7,0.7-3.6,1.3-4.7-0.8
		C443.3,444.2,443.3,441.9,445,439.9z"/>
	<path class="st2" d="M491.2,506.9c5.7-18.9-6.7-36.8-21.5-41c-2.7-0.7-3.8-2-3.7-4.9c0.2-6.6,0.1-13.3,0.2-19.9
		c0.2,0,0.4-0.1,0.5-0.1c3.7,4.7,3.7,4.7,6.2-1.2c0-25.2,0.1-50.4,0.1-75.7c0-2.2,0.1-4.3,0.2-6.5c9.3,11.7,16.1,24.9,20.8,39
		c20.5,60.8,10.5,116.3-29.9,166.3c-1,1.2-1.9,2.7-4.3,3.6c0-9.7,0-19.1,0-28.5c0.2-0.2,0.3-0.4,0.5-0.6c2.2-1.3,4.7-1.4,7.1-2
		C479.9,532.6,490.9,519.4,491.2,506.9z"/>
	<path class="st2" d="M263.4,330.1c2.1-8.9,1.6-18,1.7-27c14.2-6.1,28.8-11.3,44.2-13.7c1.3-0.2,2.6-0.3,4-0.4
		c-5.3,24.7-2.1,49.8-3.1,74.8c-1.4,1.5-3.2,1.7-5,1.7c-16.3,0.1-32.7,0.2-49,0c-0.8,0-1.7-0.2-2.5-0.4c-3.8-1.9-1.3-4.3-0.2-6.2
		c4.2-7.2,7.2-14.9,9.4-22.9C263.3,334,263.8,332.1,263.4,330.1z"/>
	<path class="st2" d="M250.9,311.1c0,19.8-6,37-21.5,50c-11.4,9.5-24.4,14.7-39.4,13.8C204.5,348.1,224.7,326.8,250.9,311.1z"/>
	<path class="st3" d="M445,439.9c0.5,2.9-1.9,7.5,4.2,7.1c-2.2,2.8-5.3,2.9-8.6,2.9c-33.9,0-67.7,0-101.6,0c0-4.3,0-8.7,0-13
		c1.9-1.7,4.3-1.6,6.6-1.6c30.9,0,61.7,0,92.6,0c2.3,0,4.7-0.2,6.6,1.6C444.9,437.9,444.9,438.9,445,439.9z"/>
	<path class="st2" d="M176,410.9c0,21,0.1,42,0.1,63c3.9,26.9,16.1,48.6,39.6,63.2c1.1,0.7,2.3,1.4,3.2,2.4c0.3,0.5,0.3,0.9,0,1.4
		c0,10.1,0,20.2,0,31.4c-7.7-7-13.4-14.3-18.7-21.9c-22.2-31.8-32.1-67.2-30.1-105.8C170.8,433.1,172,421.7,176,410.9z"/>
	<path class="st3" d="M341.9,560.9c8.7,0,17.3,0.1,26,0c3.9,0,6.6,1.3,7,5.4c0.4,3.4-2.5,5.7-7.1,5.7c-17.5,0-35,0-52.5,0
		c-4,0-7.3-1.2-7.2-5.6c0-4.4,3.3-5.6,7.3-5.5C324.3,561,333.1,560.9,341.9,560.9z"/>
	<path class="st3" d="M416,542.9c9,0,18,0.1,27,0c3.8,0,6,1.1,6.1,5.3c0.1,4.3-2.3,5.7-5.9,5.7c-18.1,0.1-36.3,0.1-54.4,0
		c-3.6,0-6-1.4-5.9-5.7c0.1-4.2,2.4-5.4,6.1-5.3C398,543,407,542.9,416,542.9z"/>
	<path class="st3" d="M341.8,542.9c8.6,0,17.3,0.1,25.9,0c4,0,7.2,1.3,7.2,5.6c0,4.3-3.4,5.4-7,5.4c-17.6,0.1-35.2,0.1-52.9,0
		c-3.5,0-7-1.2-6.9-5.5c0.1-4.4,3.2-5.6,7.2-5.6C324.2,543,333,542.9,341.8,542.9z"/>
	<path class="st3" d="M317,524c1.5,1.6,3.4,0.9,5.2,0.9c15.1,0.1,30.2,0.1,45.3,0c4,0,7.2,1.1,7.3,5.5c0.1,4.6-3.6,5.6-7.3,5.6
		c-17.4,0.1-34.9-0.1-52.3,0.1c-3.3,0-5.3-2.6-8.2-3C309.1,528.6,313.1,526.3,317,524z"/>
	<path class="st4" d="M145.9,249c0-5,0-10.1-0.1-15.1c-0.8-5.4,1.9-6.8,6.8-6.1c2.4,0.3,5,0,7.5,0.1c7.6,0.2,13,5.5,13.2,12.7
		c0.2,7.6-4.8,13.1-12.7,13.7c-3,0.2-6-0.1-8.9,0.3C147.1,255.2,145.2,253.4,145.9,249z"/>
	<path class="st4" d="M235,228c0,7.5,0,15,0.1,22.5c0.1,2.8-0.8,3.9-3.7,3.7c-4.5-0.2-9-0.1-13.5-0.1c-7.4-3.2-11-8.9-9.7-15.3
		c1.4-7.1,6.6-10.9,14.9-11C227.1,227.8,231,227.9,235,228z"/>
	<path class="st3" d="M447.1,535.8c-19.3,0-38.5,0.1-57.8,0.1c-3.7,0-6.5-1.1-6.4-5.7c0.1-4.6,2.8-5.4,6.6-5.3
		c12.5,0.1,24.9,0.1,37.4,0c1.7,0,3.7,0.7,5.2-1c1.4-0.4,2.2,0.7,2.8,1.6C438,530.1,443.6,531.7,447.1,535.8z"/>
	<path class="st3" d="M329.9,505.8c1.5,1.6,3.4,1,5.2,1c10.8,0.1,21.6,0.1,32.4,0c4,0,7.2,1,7.4,5.4c0.2,4.6-3.5,5.6-7.2,5.6
		c-15.1,0.1-30.3,0.1-45.4,0.1c-0.2-0.2-0.3-0.4-0.5-0.5C324.2,513.3,325.7,508.6,329.9,505.8z"/>
	<path class="st3" d="M428.8,518.1c-12.3,0-24.6-0.1-36.9-0.1c-1.8,0-3.6,0.1-5.4-0.7c-2.9-1.3-3.9-3.4-3.5-6.4
		c0.5-3.1,2.6-3.9,5.4-3.9c12.5,0,25,0,37.4-0.1C426.9,510.5,429.6,513.9,428.8,518.1z"/>
	<path class="st5" d="M292.1,542c6.5,3,7.8,7.4,3.5,10.8c-1.6,1.3-3.4,1.1-5.2,1.1c-16.8,0-33.6,0-50.4,0c-7.2,0-8-0.8-8.1-7.9
		c0.4-0.4,0.9-0.7,1.5-0.9c8.1,1.3,16.2,2.5,24.6,2.5c9.9,0,19.4-1.6,28.7-4.9C288.5,542.5,290.1,541,292.1,542z"/>
	<path class="st6" d="M336.9,486.9c0.5,2.7,2.7,2,4.4,2c8.6,0.1,17.3,0.1,26,0c3.8,0,7.5,0.3,7.6,5c0.1,4.8-3.4,5.2-7.3,5.1
		c-11.5-0.1-23,0-34.4,0C332.6,494.4,334.1,490.4,336.9,486.9z"/>
	<path class="st6" d="M339.2,470.8c9.7,0,19.3,0.1,29,0c3.6,0,6.6,0.9,6.7,4.9c0.1,4.3-2.8,5.3-6.7,5.2c-10-0.2-20,0-30,0
		c-1.1-1.7-0.8-3.4-0.2-5.1l0,0C339.3,474.4,337.6,472.3,339.2,470.8z"/>
	<path class="st7" d="M292.1,542c-1.4,0.6-2.8,1.2-4.2,1.8c-4.4-0.3-8.7,1.2-13.1,0.5c-1.8-0.3-4.1,0.4-4.7-2.3
		c18.2-3,33.7-11.3,46.7-24.3c1.7-0.7,3.4-1.5,5,0.1c0,0,0.5,0,0.5,0c-1.7,2-3.5,4-5.2,6c-2.6,3.8-6.5,6.1-10,9
		C302.5,536.7,297.3,539.4,292.1,542z"/>
	<path class="st8" d="M428.8,518.1c-1.5-3.6-3.1-7.2-2.9-11.2c0.1-0.6,0.1-1.2,0.2-1.9c0.4,0.9,1,1.7,1.3,2.6
		c5.7,15.1,16.7,23,32.8,23.5c1.6,2.2,1.6,4.5,0.1,6.8c0,0-0.4,0.2-0.4,0.2c-4.4,0.2-8.5-1.4-12.7-2.2c-6.2-2.5-11.1-6.5-15-11.9
		C431,522,429.9,520,428.8,518.1z"/>
	<path class="st9" d="M321.8,517.9c-1.7,0-3.3-0.1-5-0.1c10.9-12,17.5-26.2,21.2-41.9c0.1,1.7,0.1,3.4,0.2,5.1
		c-0.7,1.9-1.3,3.8-1.2,5.9c-1.3,4.1-2.5,8.1-3.8,12.2c-1.1,2.3-2.2,4.5-3.3,6.8C327.3,509.9,325.4,514.5,321.8,517.9z"/>
	<path class="st10" d="M233,545.9c-0.4,0-0.7,0.1-1.1,0.1c-4.3-1.7-8.7-3.5-13-5.2c-0.1-0.3-0.2-0.7-0.3-1c-1.1-2-1.3-4,0.3-5.8
		c8.3,3.7,16.8,6.9,25.9,8.1c-0.7,2.7-3,1.9-4.8,2.2C237.7,544.6,235.1,544,233,545.9z"/>
	<path class="st11" d="M182.9,388.9c2.2,3,0.8,6.3,1,9.5c0.2,4.1,0.1,8.3,0.1,12.4c-2.7,0-5.4,0.1-8.1,0.1
		C177.1,403.2,180.3,396.2,182.9,388.9z"/>
	<path class="st9" d="M339.2,470.8c-0.6,1.7,0.4,3.7-1.2,5.1c0.1-3.7-0.5-7.5,0.9-11.1C339,466.8,339.1,468.8,339.2,470.8z"/>
	<path class="st12" d="M252.1,363.5c19.3,0.1,38.6,0.2,58,0.3c0.4,8.1,0.5,16.1,0,24.2c-2.3,1.9-5,1.5-7.6,1.6
		c-19.8,0-39.6,0-59.4,0c-2,0-4,0-6,0.3c-2.1,0.4-3.1,1.7-3.2,3.8c-0.1,2.3,0.7,3.9,3.2,4.3c2,0.4,4,0.3,6,0.3c19.8,0,39.6,0,59.4,0
		c2.6,0,5.4-0.3,7.6,1.5c0,4,0,8,0,12c-2.3,1.9-5,1.5-7.6,1.5c-18.8,0-37.6,0-56.4,0c-3,0-6,0.1-8.9,0.8c-2.2,0.6-3.4,1.9-3.4,4.2
		c0,2.6,1.3,4,3.8,4.4c2.1,0.4,4.3,0.3,6.5,0.3c19.5,0,38.9,0,58.4,0c2.6,0,5.4-0.3,7.6,1.5c0,4,0,8,0,12c-2.3,1.9-5,1.5-7.6,1.5
		c-19.5,0-38.9,0-58.4,0c-2.2,0-4.3-0.1-6.5,0.3c-2.5,0.4-3.8,1.9-3.8,4.4c0,2.4,1.2,3.6,3.4,4.2c2.9,0.8,5.9,0.8,8.9,0.8
		c18.8,0,37.6,0,56.4,0c2.6,0,5.4-0.3,7.6,1.5c0.9,14.2,0.4,28.1-8,40.4c-1.2,1.7-2.7,3.3-4,5c-2.3-4.1-6-5-10.5-4.9
		c-15.5,0.2-30.9,0-46.4,0.1c-2.7,0-7-1-7,3.4c0,4.3,4.2,3.4,7,3.4c15.3,0.1,30.6,0,45.9,0.1c2.4,0,5.4-1,6.8,2.4
		c-2.8,3-6,5.5-9.8,7.2c-3.7,1.2-7.4,1.6-11.3,1.5c-13.3-0.3-26.6,0.6-39.9-0.6c-5.6-2.5-10.4-6.2-14.3-11c-0.8-2-1.4-4.1-1.4-6.3
		c0-31.8,0-63.5,0-95.3c0-1.2,0.1-2.3,0.3-3.5c0.4-1.7,1.5-2.9,3-3.7c12-5.7,21.8-14.1,29.8-24.6
		C251.1,363.4,251.6,363.4,252.1,363.5z"/>
	<path class="st2" d="M444.9,326c0,21.6,0,43.3,0,64.9c-2.4,0.4-3.5-1.5-4.9-2.8c-6.6-6.5-13.1-13.1-19.7-19.6
		c-1.6-1.6-3.2-3.4-5.9-3c-22.4,0.1-44.9,0.1-67.3,0c-2.8,0-5.7,0.5-8-1.7c0.3-19.6-1.1-39.2,0.9-58.8c0.7-6.7,3.1-12.8,5.8-18.8
		c12.2,0.1,24.1,2.3,35.8,5.6c20.9,5.8,40.1,15.2,57.4,28.3C441.2,321.7,443.7,323.3,444.9,326z"/>
	<path class="st12" d="M339.1,363.8c26,0.1,52,0.1,78,0.2c2.5,8.1,2.4,16.2,0.1,24.3c-1.9,1.4-4.1,1.3-6.2,1.3
		c-21.8,0-43.5,0-65.3,0c-2.3,0-4.7,0.2-6.6-1.6C339.1,379.9,339.1,371.8,339.1,363.8z"/>
	<path class="st13" d="M219.1,390c-0.1,19-0.2,38-0.2,57c-0.1,16.7-0.1,33.3-0.1,50c-9-9.4-13.4-20.8-13.7-33.7
		c-0.3-14.9-0.1-29.9-0.1-44.8c0-7.3,0-7.3-7.2-7.8c0-5.2,0.1-10.5,0.1-15.7c6.6-2.4,13.6-3.4,20.4-5.4
		C218.6,389.8,218.9,389.9,219.1,390z"/>
	<path class="st3" d="M339.1,424.9c0-4.3,0-8.7,0-13c1.9-1.7,4.3-1.6,6.6-1.6c30.9,0,61.7,0,92.6,0c2.3,0,4.7-0.2,6.6,1.6
		c0,4.4,0,8.7,0,13.1c-1.9,1.8-4.3,1.6-6.6,1.6c-30.9,0-61.7,0-92.6,0C343.4,426.5,341,426.7,339.1,424.9z"/>
	<path class="st12" d="M339.1,424.9c35.3,0,70.5,0,105.8,0c0,4,0,8,0,11.9c-35.3,0-70.5,0-105.8,0
		C339.1,432.9,339.1,428.9,339.1,424.9z"/>
	<path class="st12" d="M444.9,411.9c-35.3,0-70.5,0-105.8,0c0-4,0-8,0-12c1.4-1.4,3.3-1.6,5.1-1.6c23.1-0.1,46.3-0.1,69.4,0
		c1.2,0,2.3,0.2,3.4,0.5c1.1,0.4,2.1,1.1,2.8,2c3.1,3.8,7.3,4.6,12,4.8c4.3,0.1,8.9-1.4,13,1.4C444.9,408.6,444.9,410.3,444.9,411.9
		z"/>
	<path class="st3" d="M310.1,449.9c-22.2,0-44.3,0-66.5,0c-2,0-4-0.4-5.9-0.5c-5.5-0.1-6.1-3.2-5.7-7.6c0.4-4.8,3.8-4.9,7.1-4.9
		c23.7,0,47.3,0,71,0C310.1,441.3,310.1,445.6,310.1,449.9z"/>
	<path class="st3" d="M310.1,424.9c-23.7,0-47.3,0-71,0c-6.1,0-7.2-1.4-7.1-7.4c0-3.1,1.1-4.3,4.3-4.8c3-0.4,5.9-0.8,8.9-0.8
		c21.7,0,43.3,0,65,0C310.1,416.3,310.1,420.6,310.1,424.9z"/>
	<path class="st6" d="M417.9,400c-26.3,0-52.5,0-78.8,0c0-4,0-8,0-12c25.9,0,51.8,0,77.8,0C419.4,391.7,418.8,395.8,417.9,400z"/>
	<path class="st6" d="M310.1,399.9c-23.8,0-47.6,0-71.5,0c-5.6,0-6.5-1.1-6.6-6.2c-0.1-4.4,2-5.8,6.1-5.8c14.5,0.1,29,0,43.5,0
		c9.5,0,19,0,28.5,0C310,391.9,310.1,395.9,310.1,399.9z"/>
	<path class="st14" d="M417.9,400c-1.8-3.9-0.5-8.1-1-12.1c0.1-8,0.1-15.9,0.2-23.9c7.8,7.7,15.6,15.3,23.4,23
		c1.4,1.4,2.9,2.7,4.4,4c0,5.4,0,10.7,0,16.1c-5,0-9.9-0.2-14.9-0.1C424.5,407,420.3,405.1,417.9,400z"/>
	<path class="st6" d="M293.9,499.8c-1.5-1.5-3.5-0.8-5.2-0.8c-16.9-0.1-33.9,0-50.8,0c-4.6,0-6.4-1.9-5.8-5.9
		c0.4-3.1,2.3-4.1,5.2-4.1c18.4,0,36.9,0.1,55.3,0c4.6,0,5.6,2.6,5.5,6.4C297.2,497.3,295.7,498.7,293.9,499.8z"/>
	<path class="st15" d="M219,533.9c-0.1,1.9-0.2,3.9-0.3,5.8c-26.2-14.2-40.1-36.4-42.5-65.9c2,6.1,2.9,12.5,5.4,18.5
		c7.4,17.7,19.4,31,35.9,40.4C218,533.1,218.5,533.5,219,533.9z"/>
	<path class="st16" d="M233,545.9c0.2-2.7,2.1-2.8,4.2-3c2.6-0.2,5.3,0.9,7.7-0.8c8.4,1.1,16.8,1,25.2,0c3.8,1.8,7.8,0.4,11.6,0.9
		c2.1,0.3,4.3-0.8,6.2,0.9C269.8,550.5,251.5,551,233,545.9z"/>
	<path class="st6" d="M233,507.9c1.5-0.9,3.1-1,4.8-1c15.4,0,30.9,0.1,46.3,0.1C267.3,516.5,250.2,516.6,233,507.9z"/>
	<path class="st17" d="M472.9,439.8c0,1.2,0.1,2.3,0.1,3.5c0.1,1.9,0,3.6-2.7,3.7c-2.7,0.1-3.5-1.1-3.4-3.6c0-0.7-0.4-1.5-0.7-2.3
		c-0.1-0.3-0.3-0.7-0.4-1C468.2,440,470.5,439.9,472.9,439.8z"/>
	<path class="st18" d="M251.1,364c-7.6,12.4-18.8,20.4-32,26c0,0-0.3,0-0.3,0l-0.3,0c-1.2-2-1-4.1-0.6-6.2
		c11.2-4.5,20.5-11.7,29.1-19.9C248.5,363,249.8,362.7,251.1,364z"/>
	<path class="st19" d="M218,383.8c1.7,1.9,0.9,4.1,0.6,6.2c-6.5,3.2-13.3,4.9-20.6,5c-1-4.9,0.7-7,6.1-7.4
		C208.8,387.3,213.3,385.2,218,383.8z"/>
	<path class="st20" d="M251.1,364c-1.3,0-2.6-0.1-4-0.1c5.5-8.5,11.6-16.6,14.3-26.6c0.6-2.4,1.3-4.8,1.9-7.2
		c1.1,1.9,0.6,3.8,0.2,5.7c-2,10-6,19.1-11.5,27.7C251.7,363.6,251.4,363.8,251.1,364z"/>
	<path class="st4" d="M459,516c-10.6-0.1-18.4-8.1-18.2-18.9c0.1-10.3,8.3-18.2,18.6-18.1c10,0.1,18.5,8.6,18.5,18.5
		C477.9,507.8,469.5,516,459,516z"/>
	<path class="st21" d="M460.2,537.8c0-2.3-0.1-4.5-0.1-6.8c15.5-1.4,26-9.3,31.1-24.1c2.3,5.3-0.5,9.9-3,13.9
		C481.9,531.1,472.7,537.4,460.2,537.8z"/>
	<path class="st6" d="M265.2,470.9c9,0,18,0.1,26.9,0c3.5,0,5.9,1,5.9,5c0,3.9-2.2,5.1-5.8,5.1c-18.1-0.1-36.2-0.1-54.4,0
		c-3.5,0-5.9-0.9-5.9-5c0-3.9,2.2-5.1,5.7-5.1C246.9,471,256,470.9,265.2,470.9z"/>
	<path class="st22" d="M459.4,488.7c5.2,0.1,8.7,3.7,8.7,8.9c0,5.2-4.2,9.3-9.2,9.1c-4.6-0.1-8.8-4.5-8.8-9.2
		C450,492.4,454,488.6,459.4,488.7z"/>
</g>
</svg>
