<?xml version="1.0" encoding="utf-8"?>
<!-- Generator: Adobe Illustrator 19.0.0, SVG Export Plug-In . SVG Version: 6.00 Build 0)  -->
<svg version="1.1" id="Calque_1" xmlns="http://www.w3.org/2000/svg" xmlns:xlink="http://www.w3.org/1999/xlink" x="0px" y="0px"
	 viewBox="0 0 612 792" style="enable-background:new 0 0 612 792;" xml:space="preserve">
<g>
	<path d="M521.3,441.1c12.2,7.3,22.6,15.7,31.1,26.4c11.6,14.7,17.4,31.2,17.3,49.9c-0.1,15.2,0,30.3,0,45.5c0,1.6,0,3.3,0,5.7
		c2.4,0,4.4-0.1,6.3,0c4.8,0.3,7.3,2.6,7,6.6c-0.3,4.4-3.1,5.9-7.1,5.9c-17.5,0-35,0-52.5,0c-42.7,0-85.3,0.1-128-0.1
		c-4.8,0-6.6,1.2-6.1,6.1c0.4,3.6,0.2,7.3,0.1,11c-0.1,2.6,0.9,3.6,3.5,3.5c2.3-0.1,4.7-0.1,7,0.1c3.9,0.2,6.3,2.2,6.2,6.3
		c-0.1,4.1-2.5,6-6.4,6.1c-9.3,0.1-18.7,0.1-28,0.1c-83.5,0-167,0-250.5,0c-1.7,0-3.3,0-5-0.1c-3.6-0.2-5.6-2.5-5.7-5.8
		c-0.1-3.5,1.8-6.2,5.6-6.4c4.8-0.2,9.6-0.1,14.8-0.1c0-44.5,0-88.4,0-132.7c-0.9,0.5-1.8,0.9-2.4,1.5
		C109.3,488.2,98,509.4,98.2,536c0.2,20.3,0,40.7,0.1,61c0,2.3,0.9,4.8,2.2,6.7c3,4.6,1.1,9.9-4.4,10.3c-4.5,0.3-9.1,0.6-13.4-0.2
		c-2.1-0.4-4.7-3-5.4-5.2c-1.1-3.2,0.9-6.2,4.4-6.6c4-0.5,4.2-2.7,4.2-5.8c-0.1-20.3,0.2-40.7-0.1-61c-0.3-24.8,8.5-45.9,24.7-64.2
		c20.8-23.5,47.5-37.1,77.4-45c1.6-0.4,3.2-0.8,4.8-1.2c0.2,0,0.3-0.2,1-0.7c-1.4-1.1-2.6-2-3.9-2.9c-13.5-9.3-23.6-21.5-30-36.6
		c-1.3-3-2.9-4.3-6.1-4.8c-10.3-1.7-18.3-9.9-19.6-19.4c-1.4-11,3.8-20.9,14-25.1c3.8-1.6,4.8-3.4,4.8-7.3c0-29.2,0.3-58.3,0.3-87.5
		c0-4.5,1.3-8,4.4-11.2c12.4-12.8,27.7-20.1,44.8-23.8c29.9-6.4,59.5-6,88.6,4.5c11.1,4,21.2,10,28.2,19.8c2.1,2.9,3.5,6.9,3.5,10.5
		c0.2,29.2,0.1,58.3-0.1,87.5c0,3.8,0.7,5.8,4.7,7.2c10.1,3.6,16.5,13.9,15.4,23.8c-1.2,10.6-9.1,19.5-19.7,20.9
		c-4.5,0.6-6.4,2.6-8.1,6.5c-6.2,14.3-16,25.6-28.6,34.6c-1.3,0.9-2.7,1.9-4,2.9c12,4.4,24,8,35.3,13.2
		c11.2,5.2,21.7,12.1,32.7,18.4c5.5-4.1,11.6-8.6,18.1-13.4c-0.3-0.7-0.6-1.6-1.1-2.4c-12.5-17.1-14-35.7-6.5-54.9
		c3.4-8.6,8.8-16.3,13.2-24.5c1-2,2.1-4.2,2.2-6.3c0.9-27.3,1.4-54.5,2.5-81.8c0.1-3.1,2.3-6.6,4.6-8.9
		c9.8-10.2,22.3-15.6,35.9-18.4c22.6-4.7,45-4.2,67,3.2c9.3,3.1,17.8,7.8,23.8,15.8c2.1,2.8,3.6,6.9,3.7,10.4
		c0.4,12.3-0.1,24.7,0.3,37c0.4,14.1,1.3,28.2,2.2,42.3c0.1,1.8,1.5,3.6,2.6,5.2c9.3,13.5,16.1,27.9,16.6,44.7
		c0.3,12.5-3.5,23.6-10.8,33.5C523.3,438.2,522.5,439.4,521.3,441.1z M348,472.2c0,12.4,0,23.4,0,34.3c0,8.3,0,16.7,0,25
		c0,3.7-1.9,6-5.6,6.4c-4,0.4-6.2-2-6.9-5.7c-0.3-1.3-0.1-2.7-0.1-4c0-20.7,0-41.3-0.1-62c0-1.8-0.2-4.5-1.4-5.4
		c-4.8-3.4-10-6.3-15.1-9.5c-8.5,10.7-13,22.2-14.8,34.8c-0.3,1.8,1.5,4.5,3.1,5.9c8.4,8,10.5,20.6,4.9,30.7
		c-5.7,10.3-17.8,15.2-29.1,11.8c-11.1-3.4-18.6-14.3-17.7-26c0.9-11.5,9.6-20.8,21.2-22.6c1.5-0.2,2.9-0.5,4.4-0.8
		c-0.4-0.2-0.8-0.4-1.2-0.7c5.2-13,10.3-25.9,15.8-39.6c-7.5-2.3-15.9-4.5-24-7.3c-3.9-1.3-5.5-0.2-7.1,3.4
		c-8,18.5-16.3,36.8-24.4,55.2c-1.8,4-3.4,8-5.4,11.8c-2.7,5.2-8.5,5.2-11.4,0.1c-0.7-1.3-1.3-2.7-1.9-4.1
		c-9.5-21.2-19.1-42.5-28.7-63.7c-0.7-1.5-2.7-3.7-3.7-3.5c-8,1.7-15.9,4-23,5.9c3.7,14.1,7,27.1,10.6,40.1c0.4,1.4,2.3,3.1,3.7,3.3
		c15.1,1.7,25.2,10.2,29,24.9c2.7,10.5,5,21,7.5,31.5c1.2,5.1,1.6,9.6-4.9,11.6c-1,0.3-1.7,1.9-2.4,3c-2.4,3.3-6,5.1-9.6,3.6
		c-2.9-1.1-6.1-3.7-7.2-6.5c-3.2-7.7,0-12.1,10.2-14.9c-1.8-7.9-3.6-15.8-5.5-23.8c-0.3-1.5-0.8-2.9-1.3-4.3
		c-3.7-9.6-11.7-14.1-21.4-11.7c-10.1,2.4-15.8,10-14.2,20.2c1.4,8.8,3.8,17.5,5.9,26.5c1.5-0.5,2.6-0.9,3.7-1.2
		c4.3-1.2,8.1-0.2,10.6,3.5c2.7,3.9,3.6,8.4,0.7,12.6c-2.6,3.8-6.3,5.2-10.9,4c-1.7-0.4-3.6-0.4-5.3-0.3c-5.4,0.5-7.5-0.8-8.7-5.9
		c-2.6-10.8-5.3-21.7-7.7-32.5c-2.6-11.8-1.7-23.7,8.3-31c8.2-6,7.3-11.8,5-19.3c-0.7-2.2-1-4.6-1.7-6.8c-2.2-6.9-4.4-13.8-6.9-21.5
		c-5.4,2.9-9.8,5.5-14.4,7.7c-3.6,1.7-4.8,4.2-4.8,8.2c0.1,44.2,0.1,88.3,0.1,132.5c0,1.6,0.2,3.2,0.4,4.9c63.7,0,126.9,0,190.6,0
		c0-2.6,0-4.7,0-6.9c0-13,0-26,0-39c0-4,1.9-6.5,5.8-6.8c4.2-0.3,6.4,2.3,6.8,6.4c0.2,1.5,0.1,3,0.1,4.5c0,12.2,0,24.3,0,36.5
		c0,1.7,0.2,3.5,0.3,5.7c7.8,0,15.2-0.3,22.4,0.1c4.9,0.3,6.6-1,6.5-6.3c-0.3-20.3-0.1-40.7-0.1-61c0-5.3,2.1-8.1,5.9-8.2
		c4-0.2,6.5,2.8,6.5,8.2c0.1,9.5,0.2,19-0.1,28.5c-0.1,4.2,0.9,5.7,5.5,5.7c38.3-0.2,76.7-0.1,115-0.1c2,0,3.9,0,6,0
		c0.2-1.8,0.4-2.9,0.4-4c0-36,0-72,0.1-108c0-3-1-4.7-3.6-5.7c-10.2-3.9-20.5-7.8-30.7-11.8c-3.3-1.3-4.6,0.5-5.9,3.3
		c-7.3,16.8-14.8,33.5-22.2,50.2c-1.4,3.2-3,6.2-7,6.2c-4-0.1-5.5-3.1-6.9-6.3c-7.5-16.9-15.2-33.7-22.6-50.6
		c-1.3-2.9-2.5-4-5.9-3.1c-17.3,4.3-33.4,11.2-47.6,22.3c-1.5,1.2-2.9,2.5-4.5,4c2.3,2.6,4.7,4.7,6.2,7.1
		c5.9,9.2,11.8,18.4,17.2,27.9c2.3,3.9,0.6,7.6-3,9.2c-3.5,1.6-6.6,0-8.7-4.4c-0.4-0.9-0.8-1.8-1.2-2.8
		C365,491.1,358.1,481.5,348,472.2z M309.5,328.2c-1.6-0.1-2.9-0.2-4.2-0.4c-12.2-1.4-24-4-33.5-12.7c-4.5-4.1-14.3-6-19.6-3.1
		c-25.7,14.1-53.5,19.8-82.6,20c-3.4,0-4.3,1.3-4.2,4.4c0.3,6.8-0.2,13.7,0.5,20.5c2.9,29.8,18.5,50.9,46.2,61.6
		c27.4,10.5,52.9,5.2,74.7-14.5C309.3,383.6,312,356.9,309.5,328.2z M166,297.9c48.4,0,96.1,0,144.1,0c0-19.5,0.1-38.4-0.1-57.4
		c0-1.6-1.1-3.7-2.4-4.6c-7.1-4.8-13.9-10.6-21.7-13.7c-21.2-8.5-43.5-9-65.9-6.7c-16.4,1.7-31.9,6.4-45.6,16.2
		c-5.8,4.1-9.2,8.6-8.6,16.5c0.8,11.1,0.2,22.3,0.2,33.5C166,286.9,166,292.2,166,297.9z M389.5,360.8
		c-4.2,29.6,16.2,57.1,46.7,62.9c28.8,5.5,59.3-14,64.5-43.2c2.7-15,0.9-30.8,1.1-46.2c0-0.3-0.6-0.7-0.8-1
		C467.6,357.6,429.2,361.5,389.5,360.8z M500.9,317.1c0-11.6-0.9-22.7,0.3-33.5c1.2-11.3-4.4-17-13.4-21c-3-1.4-6.1-2.7-9.3-3.7
		c-15-4.7-30.5-5.1-46-3.6c-13.1,1.2-25.4,4.9-36.2,12.9c-3.7,2.8-5.7,5.8-5.5,10.8c0.4,10.6,0.1,21.3,0.1,32c0,1.9,0,3.9,0,6.2
		C427.8,317.1,464,317.1,500.9,317.1z M556.6,568.3c0.2-1.4,0.4-2.2,0.4-3c0-17.3,0.1-34.6-0.1-51.9c-0.1-9.1-2.4-17.8-6.6-25.9
		c-5-9.9-12-18.1-21.2-25.4c0,36,0,71,0,106.3C538.3,568.3,547.2,568.3,556.6,568.3z M264.5,432c-17.5,5.2-34,5.4-51.6,0.6
		c8.7,19.4,17,37.8,25.7,57.4C247.3,470.4,255.6,451.8,264.5,432z M480.5,331.4c-0.1-0.4-0.2-0.7-0.3-1.1c-1.6-0.1-3.1-0.2-4.7-0.2
		c-24.6,0-49.2,0-73.9,0c-12.7,0-12.9,0.3-12.7,13.4c0,3.2,1.2,4.5,4.3,4.6c27.9,0.9,55.1-2.3,81-13.4
		C476.3,333.7,478.4,332.5,480.5,331.4z M376.1,381.3c-10.9,16.8-10,40.6,4.5,54.3c8.7-3.1,17.4-6.1,25.5-8.9c-6-6.7-13-13-18-20.6
		C383,398.4,379.8,389.3,376.1,381.3z M484.6,426.2c8.1,2.9,15.4,5.5,22.8,8c0.9,0.3,2.6-0.1,3.3-0.8c13.6-14,16.2-36,4.3-54.9
		C511.5,398.6,501.4,414.2,484.6,426.2z M446.8,476.8c6.4-14.3,12.2-27.5,17.9-40.1c-12,0-23.7,0-35.8,0
		C434.7,449.7,440.5,462.6,446.8,476.8z M302.4,510.5c-0.1-6.9-5.8-12.5-12.5-12.3c-6.8,0.2-12.2,5.9-12.1,12.8
		c0.1,6.5,5.7,12,12.3,12.1C296.9,523,302.4,517.3,302.4,510.5z M165.4,319.3c18.6,0.3,36-1.9,52.9-8c-17.4,0-34.8,0-52.6,0
		C165.7,313.9,165.6,316.2,165.4,319.3z M321.5,366.9c5.7-1.8,8.9-5.6,8.5-10.4c-0.4-4.3-2.3-7.7-7-9.2
		C322.5,354,322,360.2,321.5,366.9z M152.4,347.5c-4.6,2.8-6.3,6.1-5.8,10.4c0.5,4.2,2.6,7.3,7.1,8.7
		C153.3,360.3,152.9,354.3,152.4,347.5z M292.5,311.1c0,0.6-0.1,1.1-0.1,1.7c4.8,0.8,9.6,1.7,14.5,2.3c0.9,0.1,2-1.3,3.1-2
		c-0.9-0.7-1.8-1.9-2.8-2C302.3,310.9,297.4,311.1,292.5,311.1z"/>
	<path d="M221.5,238.8c2.1-15.9,4.2-18.5,14.1-18.6c16.7-0.1,17.5,0.6,20.2,18.8c5.7,0.6,13.2-1.1,16.2,5.5
		c2.1,4.7,2.1,10.6,2.4,15.9c0.3,4.6-1.6,8.9-6,10.7c-3.9,1.5-8.3,1.7-12.9,2.6c-0.8,5.2,0.9,11.5-4.6,15.7
		c-5.4,4.1-11.6,2.2-17.4,2.5c-4.6,0.2-8.5-2-10.1-6.1c-1.5-3.7-1.5-8-2.2-12.7c-5.5-0.6-13.1,1.3-16-5.3c-2.2-5-2.2-11.2-2.2-16.9
		C203,242.8,206.2,241,221.5,238.8z M261.3,260.2c1.2-8.2,1.2-8.2-5.8-8.2c-1.7,0-3.3,0-5,0c-5.8-0.1-7.7-2-7.8-7.9
		c-0.1-3.6,0-7.2,0-10.9c-3,0-5.3,0-8.1,0c0,3.9,0.1,7.5,0,11.1c-0.2,5.4-2.3,7.5-7.7,7.6c-3.6,0.1-7.2,0-11.2,0c0,3,0,5.4,0,8.2
		c3.6,0,6.9,0,10.2,0c6.5,0,8.6,2.1,8.7,8.7c0.1,3.3,0,6.6,0,9.9c3,0,5.3,0,8.2,0c0-4.2,0-8,0-11.8c0-4.5,2.4-6.7,6.8-6.8
		C253.5,260.1,257.3,260.2,261.3,260.2z"/>
</g>
</svg>
