<?xml version="1.0" encoding="utf-8"?>
<!-- Generator: Adobe Illustrator 19.0.0, SVG Export Plug-In . SVG Version: 6.00 Build 0)  -->
<svg version="1.1" id="Calque_1" xmlns="http://www.w3.org/2000/svg" xmlns:xlink="http://www.w3.org/1999/xlink" x="0px" y="0px"
	 viewBox="0 0 612 792" style="enable-background:new 0 0 612 792;" xml:space="preserve">
<style type="text/css">
	.st0{fill:#60ACDF;}
	.st1{fill:#EF6A46;}
	.st2{fill:#EEEDED;}
	.st3{fill:#E4E4E4;}
	.st4{fill:#F8F8F8;}
	.st5{fill:#F9D1C6;}
	.st6{fill:#F5F5F5;}
	.st7{fill:#F9D0C5;}
	.st8{fill:#EE6A47;}
	.st9{fill:#EFEEEE;}
	.st10{fill:#EF7959;}
	.st11{fill:#D0D1D2;}
	.st12{fill:#C6C4C4;}
	.st13{fill:#ED6A47;}
	.st14{fill:#C7C5C5;}
	.st15{fill:#DDD9DA;}
	.st16{fill:#FEFDFD;}
	.st17{fill:#C85B3E;}
	.st18{fill:#D54A29;}
	.st19{fill:#EF6B48;}
	.st20{fill:#EF6C49;}
	.st21{fill:#D54928;}
	.st22{fill:#EF6B47;}
	.st23{fill:#62ABDD;}
	.st24{fill:#EEE7E6;}
	.st25{fill:#EED4CE;}
	.st26{fill:#F9F9F9;}
	.st27{fill:#F8D0C5;}
	.st28{fill:#EF6D4A;}
	.st29{fill:#EEECEC;}
	.st30{fill:#EEEBEB;}
</style>
<g>
	<path class="st0" d="M247.1,295c11.2-3.9,22.4-8,34.4-8.8c-0.2,1.9-2.1,2.4-3.2,3.7c-2.6,3.1-2.3,6.9,0.7,9.2
		c2.7,2.1,6.4,1.6,8.4-1.1c2.1-3,1.4-7.1-1.7-9.2c-1.4-0.9-3.2-1.1-4.2-2.6c7.6-2.4,15.5-1.9,23.4-2.5c5.4,2.6,10.9,1.9,16.4,0.3
		c72.1,8.8,121.9,46.7,145.5,115.5c17.2,50.1,9.3,98.4-19,143.3c-0.5,0.8-1.2,1.6-1.8,2.3c-3,0.2-3-2.9-4.6-4.2
		c-0.4-0.5-0.9-1-1.3-1.5c-3.2-3.7-5.4-8.2-8.7-11.9c-2.2-3.4-4.4-6.9-7.1-10c-0.3-0.4-0.6-0.8-0.8-1.3c-1.1-1.7-1.7-3.5-1.1-5.6
		c0.3-28.2,0.2-56.4,0-84.6c0-4-0.5-8,0.5-11.9c0.7-1.8,2.3-2.8,3.5-4.1c3.4-4,1.9-8.6-3.1-10c-1.6-0.4-3.3-0.4-5-0.4
		c-12.3,0-24.6,0-36.9,0c-1.3,0-2.7,0-4,0.2c-2.7,0.4-5.3,1.2-6.4,4c-1.2,2.9,0.3,5.1,2.4,7c0.9,0.8,1.7,1.6,2.2,2.7
		c1.2,12.5,0.4,25.1,0.4,37.6c0,1.2-0.3,2.6-1.5,2.9c-1.2,0.4-2-0.9-2.8-1.7c-1.2-1.4-2.2-2.9-3.2-4.4
		c-11.1-15.5-25.8-26.5-43.4-33.8c-2.9-1.2-6.7-1.6-7.7-5.6c-0.7-19.9-0.3-39.7-0.2-59.6c0-1.5,0-3.1,0.4-4.6
		c1.4-6-0.1-12.1,1.1-18.1c0.5-1.5,1.6-2.4,2.8-3.3c3.6-2.4,5.6-5.6,4.1-10c-1.6-4.5-5.2-5.6-9.5-5.3c-0.7,0-1.3,0.1-2,0.1
		c-18.1,0.2-36.2,0.1-54.3,0c-5.4,0.2-8.2,1.9-9.3,5.8c-1.2,4.4,0.8,7.6,4.5,9.5c3.1,1.7,4,4,4,7.3c0,25.1-0.1,50.3,0.1,75.4
		c0,4.8-2.3,6.8-6.3,8.2c-18.3,6.9-33,18.7-44.4,34.3c-11.1,15.3-17.5,32.4-18.3,51.5c-1.6,24.6,4.8,47,20.1,66.4
		c19.6,24.8,45.2,38.2,77.2,38.5c5.5,0.1,11,0.1,16.4-1c2.7,0.1,5.4-1.6,8,0.1c-0.8,4.8-1.3,9.6-3.1,14.2
		c-82.3,0.5-152.9-58.9-166-139.9c-6.7-41.5,1-80.3,23.3-116.2c0.3-0.6,0.6-1.2,0.9-1.8c0.8-2.4,3-2.5,4.9-2.4
		c9.3,0.3,18.5-0.7,27.6-2.7c3.8-0.8,7.1,1,10.6,2.1c4.2,1.4,8.4,3,12.4,5.1c3.1,1.6,4,0.4,4.3-2.4c2.8-1.3,2.8-3.6,2.5-6.2
		c-0.6-6-2-11.9-1.5-18c1-4.8,4.6-8.2,6.9-12.3c1.6-2.9,3.4-5.6,4.1-8.8c2.1-5.5,4.4-10.9,6-16.7C245.1,296.6,245.7,295.4,247.1,295
		z"/>
	<path class="st1" d="M247.1,295c-2.1,6.7-4.1,13.5-7.3,19.8c-2,4.9-5.1,9.1-8.3,13.3c-1.6,2.1-3.1,4.3-2.7,7.1
		c0.8,7.3,1.4,14.6,2.3,21.8c0.5,3.8-1.2,3.8-3.9,2.9c-6.3-0.6-11.5-4.2-16.9-6.8c-5.2-2.5-9.8-3.2-15.6-1.5
		c-35.3,10.2-74.4-8.7-88.2-42.3c-2.4-5.8-3.6-12-4.4-18.3c-1-13.4-0.3-26.5,4.8-39.2c12.3-30.2,44.4-49.5,75.9-45.5
		c34.2,4.4,60.6,29.8,65.1,62.8C249,277.7,248.4,286.4,247.1,295z"/>
	<path class="st2" d="M423.1,512.2c0.6,1.3,1.1,2.6,1.7,3.9c-3.3,2.4-7,1-10.6,1.3c-2.5,0.2-5,0-7.5,0.1c-3.3,0-5.1,1.8-5,4.9
		c0.1,2.8,2,4.7,4.9,4.5c7.8-0.4,15.6,0.4,23.3-0.6c0.9-0.1,1.6,0.3,2.4,0.7c3.4,3.7,6,7.9,8.6,12.1c-1.9,1.9-4.3,1.3-6.6,1.4
		c-8.4,0.3-16.9-0.6-25.3,0.5c-2.9,1.5-2,5.6-4.7,7.3c-3.5-0.4-2.7-3.1-2.1-4.9c1.2-3.8,1.2-6.8-2.9-8.6c-3.7-1.6-8-0.8-10.4,2.1
		c-2.5,3-2.7,7.4-0.6,10.6c2.1,3.2,6.2,4.5,10.1,3.3c1.9-0.6,3.4-2.1,5.5-2c0.5,0.1,1,0.3,1.5,0.6c1.6,1.1,3.4,1.3,5.2,1.3
		c8.6-0.2,17.2,0.5,25.7-0.5c1.9-0.2,3.6,0.1,4.8,1.9c-2.2,3.8-4.7,7.3-8.3,10c-3.5-0.4-6.9,0.4-10.3,1.3c-1.6,0.4-3,1.3-4.7,0.9
		c-4.1-1.9-8.3-1-12.5-0.8c-2,0.1-3.4,1.3-2.6,3.7c0.4,0.6,0.6,1.3,0.4,2c-0.4,0.3-0.8,0.6-1.3,0.8c-9.8,0.1-18.9-3-28-6.1
		c-3.8-1.3-7.1-1.1-10.1,1.7c-0.8,0.6-1.7,1-2.8,0.7c-1.6-2-0.4-3.8,0.4-5.6c3.7-8.9,7.2-18,11.7-26.5c0.7-1.3,1.4-2.6,1.1-4.5
		c-2.5,0.7-3.5,2.8-4.6,4.4c-16.4,24.3-33.2,48.3-49.2,72.9c-1.7,2.6-5.2,5.6-0.8,9c0.8,0.5,1.8,0.9,1.4,2.1c-4,0-8,0-12,0
		c-0.6-5-0.3-9.9,3.1-14c-0.2-1.9,1.1-3,2-4.4c5.6-8.2,11.4-16.2,17-24.4c12.7-18.4,25.7-36.6,38.2-55.1c3.2-4.1,4.5-8.7,4.2-13.9
		c-1.6-29.3,2.8-58.4,2-87.7c0-1.8,0.5-3.6-0.5-5.4c-4.1-1.7-6.9-4.5-5.7-9.2c1.1-4.6,4.9-5.8,9.3-5.8c14.1,0,28.2,0,42.4,0
		c4.4,0,8.1,1.3,9,6c0.9,4.6-1.5,7.6-5.9,8.9c-1.3,1.2-3,1.4-4.7,1.3c-9.9-0.2-19.9,0.6-29.8-0.6c-0.5-0.1-1-0.1-1.2,0.3
		c2.1-0.5,4.1,0.1,6,0.9c5.5,2.2,11.2,4.2,16.7,6.4c1.7,0.7,3.5,1.1,4.2,3.1c-0.6,2.2-2.4,1.9-4.1,1.9c-1.5,0-3-0.1-4.4,0.4
		c-2.9,1-5.2,2.7-4.8,6.1c0.4,3.1,3,3.6,5.6,3.7c3.5,0.1,6.9,0,10.4,0.1c1.9,0.1,4-0.3,5.4,1.7c0.1,2.8,0.2,5.7-0.1,8.5
		c-3,2.7-6.6,1.3-10,1.6c-2.8,0.2-5.7-0.3-8.2,1.3c-1.9,1.2-3.5,2.8-3.1,5.2c0.4,2.6,2.5,3.3,4.8,3.5c3.8,0.3,7.6,0,11.4,0.2
		c1.8,0.1,3.7-0.1,5.1,1.5c0.4,2.9,0.2,5.8,0.1,8.6c-1.6,2-3.9,1.6-6,1.7c-3.1,0.1-6.3-0.2-9.4,0.2c-3.3,0.4-5.9,2.1-5.8,5.6
		c0.1,3.7,3.2,4.2,6.1,4.3c3.1,0.1,6.3,0,9.4,0.1c2,0.1,4-0.2,5.6,1.5c0.3,2.9,0.2,5.8,0.1,8.6c-1.9,2.3-4.6,1.5-7,1.7
		c-3.3,0.2-6.7-0.4-9.9,0.5c-2.6,0.7-4.5,2.5-4.4,5.3c0.1,3.1,2.5,4,5.2,4.2c3.5,0.2,7,0,10.5,0.1c2,0.1,4-0.2,5.5,1.6
		C423.5,506.9,423.8,509.6,423.1,512.2z"/>
	<path class="st1" d="M361.2,566.5c0.6-0.5,1.2-0.9,1.8-1.4c8.5,6.2,18,8.4,28.5,7.7c4.2-0.3,7.8-2.7,12-2.6
		c3.8,1.3,7.8,1.5,11.8,1.5c2.3,0,4.7-0.5,6.6,1.5c-14.7,14.5-31.9,24.9-50.8,32.8c-2.9,1.2-5.9,2.1-8.9,3.1
		c-3.1-1.2-4.2-4.1-5.3-6.9c-3.8-9.3-3.9-18.7-1.1-28.3c0.2-1,0.7-1.9,1.3-2.8C358.3,569.5,359,567.3,361.2,566.5z"/>
	<path class="st3" d="M102,291c3,12.9,7.8,24.9,16.3,35.3c18.8,22.8,50.7,32.4,78.8,23.1c3.6-1.2,6.6-1.1,9.9,0.6
		c6.6,3.4,13.4,6.5,20.1,9.8c0.4,1.9,0.8,3.8,1.3,6.3c-5.8-2.4-10.9-4.6-16.1-6.7c-6.3-2.7-12.5-3.8-19.3-1.7
		c-6.6,1.9-13.5,1.6-20.3,1.4c-2,0-4-0.5-5.7,1.1c-0.2-1.3-0.9-2-2.3-2.1c-16.1-1.2-29.8-8.2-41.1-19.1
		C110.4,326.1,102.1,310.3,102,291z"/>
	<path class="st4" d="M358,571.1c-0.3,0.7-0.7,1.3-1,2c-4,9.5-10.6,17.4-16.7,25.6c-4.2,5.6-6.4,10.6-1.2,16.5
		c-5.8,2.2-12,2.2-18,2.9c-0.4-0.8-1.2-1-2-1c-3.4-3.7-0.9-6.9,1-9.9c8.7-13.5,18-26.6,26.9-40c5.7-8.6,11.7-16.9,17.4-25.5
		c0.5-0.7,0.8-1.5,1.3-2.1c0.9-0.9,1.9-2.3,3.3-1.4c1.3,0.9,0.8,2.4,0.3,3.6c-0.6,1.4-1.2,2.8-1.8,4.1
		C363.9,554.2,360.9,562.7,358,571.1z"/>
	<path class="st5" d="M339,615.2c-6.2-5.1-6.4-7.4-1.7-14c6.6-9.3,13.1-18.7,19.6-28c-1.6,8.4-2.9,16.8-0.1,25.3
		c1.2,3.8,3,7.3,5.2,10.6C354.7,612.2,346.9,614,339,615.2z"/>
	<path class="st6" d="M403.9,548.4c1.1-2.8,2.1-5.5,3.2-8.3c11.6-0.8,23.2-0.9,34.8,0.1c1.4,1.6,2.8,3.3,4.2,4.9c-1.4,1.4-3,2.7-3,5
		c-3.5,1.4-7.2,0.7-10.7,0.9c-7.5,0.3-14.9,0.1-22.4,0.1c-2.1,0-4.4,0.2-5.8-1.9l-0.4-0.3C403.7,548.7,403.8,548.5,403.9,548.4z"/>
	<path class="st1" d="M321.3,284c-6.7,4.6-10,4.5-16.4-0.3c-6.3-8.7,0.5-17.5,7-17.8c4.3-0.2,7.8,1,10.3,4.7
		C325.3,275.3,324.2,279.7,321.3,284z"/>
	<path class="st7" d="M421.8,573.2c-3.9,0-7.8-0.2-11.8-0.1c-2.6,0.1-4.8-0.5-6.9-2c-0.8-0.5-0.8-1.1-0.3-1.8c0-0.2,0-0.3,0-0.5
		c4.5-1.9,8.8-4.4,13.7-5.3c0.5,0.1,1,0.3,1.3,0.6c1.4-0.6,2.8-1.2,4.2-1.9c3.2,1.2,6.8-1.6,9.8,0.9
		C428.9,566.8,425.8,570.4,421.8,573.2z"/>
	<path class="st8" d="M281.5,286.2c3.4,0.4,6.7,1.3,8,4.9c1.5,3.8,0.6,7.3-3.1,9.5c-3.6,2.1-7.1,1.4-9.7-1.9
		c-2.6-3.2-2.2-7.6,1-10.3C278.8,287.5,280.3,286.9,281.5,286.2C281.5,286.2,281.5,286.2,281.5,286.2z"/>
	<path class="st9" d="M404,549.1c1.8,1.1,3.8,1,5.8,1c11.1,0,22.1,0,33.2,0c-0.7,0.7-1.3,1.3-2,2c-3.7-1.8-7.4,0.2-11.2,0.1
		c-6.8-0.3-13.6,0-20.4-0.1C407.3,552.1,404.7,552.3,404,549.1z"/>
	<path class="st10" d="M432,563.2c-3.3-0.4-6.7,1-9.8-0.9c2.3-0.5,4.6-0.8,6.8-1.4c1.8-0.5,2.9,0,3.8,1.4
		C432.5,562.5,432.3,562.8,432,563.2z"/>
	<path class="st2" d="M259,306.2c19,0,38,0,57,0c1.7,1.5,3.6,2.8,5.5,4.2c3.6,2.8,3.7,7.7-0.1,10c-2.7,1.6-4.8,3.9-7.3,5.7
		c-12.5,1.1-25.1,0.8-37.6,0.1c-1.4-0.3-2.1-1.5-3.1-2.4c-1.2-1.1-2.8-1.5-3.9,0c-1.3,1.6-0.7,3.2,0.8,4.3c1.5,1.1,3.2,1.7,4.9,2.4
		c13.2,5.1,26.4,10,39.5,15.2c1.5,0.6,3.2,1,4.3,2.3c0,20.6,0.1,41.3,0.1,61.9c0,2.9,2,4.2,4.3,4.8c10.3,3,18.1,10.2,26.9,15.6
		c0.4,0.3,0.9,0.5,1.2,0.8c5.3,7.2,12.5,12.4,18.5,18.9c0.7,8,1,16-0.1,23.9c-1.5,2.4-4.2,1.3-6.3,2.1c-3.9,0.3-7.8,0.5-11.6-0.2
		c-7.6-6.4-14.4-0.7-21.5,1.4c-0.9,0.3-1.6,1.2-2.6,1.3c-14.1-0.6-28.2-0.2-42.3-0.2c-4.1,0-6.4,2.3-7.1,6.2
		c-0.2,1.3-0.2,2.6-0.9,3.8c-1.5,1.7-3,0.9-4.5,0.2c-3.3-5.2-8.4-4.3-13.2-3.7c-2.3,0.3-3.9,0.4-5.8-1.2c-3.8-3.3-8.9-3.5-13.4-4.6
		c-3.8-0.9-7.1-2.1-10.5-3.8c-1.1-1.6,0.1-2.8,0.8-4.1c7.9-13.9,18.8-25.1,32-34.1c1.3-0.9,2.6-2.3,4.5-1.2
		c2.9,7.7,9.6,5.4,15.2,5.4c3.4,0,6.7-4.5,7.8-9.1c0.6-2.7-1.3-3.8-2.6-5.5c0.8-2.8,3.5-2,5.4-2.6c4.1-1.3,8.5-1.4,12.8-2.2
		c1.5-0.3,3.7-0.5,3.5-2.7c-0.1-1.8-2-2.2-3.5-2.3c-8.6-1.2-17.3-1.1-25.9-0.2c-22.4,2.3-41.9,11.4-58.6,26.5
		c-4.7,4.3-8.3,9.5-12.3,14.4c-1.1,1.4-1.7,3.8-4.4,3.1c-1.2-2.1-0.2-3.9,1-5.5c3-4,5.2-8.6,9.1-11.9c0.5-0.4,0.1,0.2,0.3-0.4
		c3.3-8.8,12.2-11.5,18.6-16.7c6.6-5.4,14.3-9,22.4-11.8c3.1-1.1,5-2.9,3.1-6.4c-0.9-1.7-0.8-3.5-0.8-5.4c0-23.8,0-47.6,0-71.4
		c0-1.3-0.3-2.7,0.2-4c1.4-3-0.3-4.6-2.5-6.2c-6.2-4.4-6.3-5.7-1.2-11.1C256.3,308.7,257.5,307.3,259,306.2z"/>
	<path class="st2" d="M304,605c-29.7,4.5-56.2-2.9-79.2-21.9c-20.5-17-32.3-39.1-35.5-65.5c-0.7-5.7-0.2-11.6-0.2-17.5
		c2-1.6,2.4-3.8,2.7-6.1c0.5-3.6,0.9-7.2,1.9-10.7c0.5-1.8,0.8-4,3.3-4.3c1.7,1.8,0.7,3.8,0.3,5.7c-6,28.8,1.1,53.9,20.7,75.7
		c3.7,4.1,5.1,3.9,7.8-1.2c2.7-0.8,3.9,1.3,5.4,2.8c15.7,16,35,23.7,57.1,24.6c8.4,0.3,16.8-1.3,24.9-4c2-0.7,4-1.7,6.3-1
		c1.2,0.6,1,1.7,0.4,2.5C314.7,591.2,310.4,598.9,304,605z"/>
	<path class="st2" d="M197,479.1c-3.5,4.9-3.2,10.8-3.9,16.3c-0.3,2.8-0.6,4.9-4,4.7c0.8-22.7,9.3-42.3,23.9-59.4
		c11.2-13.2,25-22.8,41.4-28.7c3-1.1,3.9-2.7,3.9-5.8c-0.1-25.5-0.1-51,0-76.5c0-2.8-0.5-4.4-3.5-5.5c-4.8-1.8-6.7-6.1-5.7-10.9
		c0.9-4.3,4.6-7,10-7.1c-0.3,2-1.3,3.6-3,5c-5,4.2-4.9,5.5,0.7,8.8c0.7,0.4,1.5,0.8,2.2,1.1c2.3,1.1,2.8,3.5,1.6,5
		c-1.9,2.4-1.5,5-1.5,7.6c0,22.7,0,45.3,0,68c0,2.3,0,4.3,2,6.3c2.5,2.5,1.1,6.1-2.7,7.4c-12.1,4-22.3,10.9-32.4,18.5
		c-4.1,3.1-6.3,7-9.6,10.1c-4.3,3.9-6.6,9.1-10.2,13.3c-0.9,1-1,2.4-1,3.8c0,0.2-0.1,0.5-0.1,0.7c-1.6,3.8-4,7.2-5.1,11.2
		C199.1,475.1,199.7,477.9,197,479.1z"/>
	<path class="st11" d="M275,325.1c13.3,0,26.7,0,40,0c1.6-1.2,3.3-1.4,4.9,0c-0.5,6.4,0.9,12.8-0.8,19.1c-3.7,0.3-6.7-1.7-10-2.9
		c-11.1-4.1-22-8.5-33.1-12.6c-0.9-0.3-1.9-0.7-2.7-1.3c-0.7-0.6-1.9-1.2-1-2.3C273,324.2,274.1,324.4,275,325.1z"/>
	<path class="st12" d="M368.9,475.1c0-8.7,0-17.3,0-26c-0.7-1-0.8-2,0.1-3c1.8,2.3,3.6,4.6,5.9,7.7c0-14.1,0-27.4,0-40.6
		c0.3,0.4,0.8,0.8,0.8,1.2c-0.2,13.9,0.8,27.9-0.5,41.8c-0.6,6.9-0.2,14-0.2,20.9c0,10-0.4,20,0.1,29.9c0.3,6.2-1.9,10.9-6,15
		c-2.3-2.6-0.8-5.5-0.4-8.1c0.9-6.1,0.3-12.2-0.2-18.2c-0.4-3.3-1.5-6.6-1.3-10C368.4,482.4,366.4,478.4,368.9,475.1z"/>
	<path class="st11" d="M422.9,469.1c0-3,0-6,0-9c-2.1-4.3-2.1-8.7,0-13c0-3,0-6,0-9c-0.4-0.5-0.9-1.1-0.9-1.7
		c0.6-5.6-2-9.1-6.9-11.3c-7.9-4.3-16.6-6.4-24.8-10c-1-0.5-2.1-0.8-3.1-1.9c12.3,0,24.6,0,36.9,0c-0.1,31.1-0.1,62.2-0.2,93.2
		c0,1.9,0.6,4-0.7,5.8c-0.1-2.7-0.2-5.4-0.3-8.1c-2.1-4.3-2.1-8.7,0-13c0-3,0-6,0-9C420.8,477.8,420.8,473.4,422.9,469.1z"/>
	<path class="st2" d="M275,325.1c-0.6,0.1-1.7,0-1.8,0.3c-0.5,1.2,0.8,1.1,1.4,1.4c7.9,3,15.8,5.8,23.6,9c7,2.8,14.4,4.8,21,8.5
		c0,1.3-0.1,2.6-0.1,3.9c-8-1.6-15.2-5.4-22.8-8.2c-8.7-3.1-17.3-6.6-26-9.9c-2.6-1-3.6-2.9-3-5.5c0.4-2,1.7-3.3,3.8-3.3
		C273.3,321.3,275.2,322.2,275,325.1z"/>
	<path class="st2" d="M369.1,446.1c0,1-0.1,2-0.1,3c-2.8,0.1-4.2-1.5-5.9-3.7c-2.5-3.3-6.2-5.6-8.9-8.8
		c-6.7-7.9-15.8-12.4-24.2-17.8c-2.8-1.8-6.4-2.5-9.6-3.8c-2.6-1.1-3.2-2.7-1.2-5c16.2,6,30.9,14.4,42.7,27.3
		C364.4,440.1,367,442.9,369.1,446.1z"/>
	<path class="st13" d="M421.7,363.9c-0.1,6-5.2,11.2-11.1,11.2c-6.3,0.1-11.5-5.2-11.4-11.4c0.1-6.1,5.1-10.8,11.4-10.8
		C416.7,352.9,421.7,357.9,421.7,363.9z"/>
	<path class="st6" d="M432.3,527c-0.8,0-1.6,0.1-2.3,0.1c-7.8,1.1-15.6,0.3-23.4,0.5c-3.3,0.1-5.3-2.5-5.2-5.6
		c0.1-3.1,2-5.4,5.4-5.3c6.1,0.1,12.3-0.5,18.4,0.3C428.3,519.9,430.5,523.3,432.3,527z"/>
	<path class="st14" d="M304,605c5.3-7.7,10.7-15.4,16-23.1c0-1.5,1.2-1.9,2.1-2.6c3.3-1.1,5.8-4.2,9.7-3.4
		c-6.2,9.7-12.7,19.1-19.7,28.2C309.4,604.4,306.7,604.7,304,605z"/>
	<path class="st2" d="M319.9,325.1c-1.6,0-3.3,0-4.9,0c-0.4-3,1.7-4.1,4-4.8c2.3-0.7,3.9-1.8,4-4.4c0.1-2.6-0.9-4.4-3.6-5.2
		c-2.1-0.6-3.1-2.4-3.3-4.5c6.8-0.2,10.4,2.1,11.7,7.4C328.8,318.4,326.1,322.4,319.9,325.1z"/>
	<path class="st9" d="M425.3,517c-5,0-9.9,0.2-14.9,0.1c-4.1-0.2-8,0.5-7.9,5.2c0,4.3,3.7,5.1,7.7,4.9c6.6-0.2,13.2-0.1,19.8-0.1
		c-2.5,2-5.4,0.7-8.1,1c-4.9,0.4-9.9-0.2-14.9,0.4c-3.6,0.4-7.2-2.8-6.9-6.2c0.3-3.6,2-6.2,6.3-6.1c6.1,0.1,12.2,0,18.4,0
		C424.9,516.4,425.1,516.7,425.3,517z"/>
	<path class="st15" d="M228.8,335.2c-1.1-2.2-1.1-4.2,0.5-6.3c3.6-4.6,7-9.4,10.5-14.1c-0.7,5.3-4.3,9.2-6.8,13.7
		C231.7,330.7,230.2,332.9,228.8,335.2z"/>
	<path class="st9" d="M441.8,540.2c-11.6,0-23.2,0-34.8-0.1c1.5-1.6,3.4-1,5.2-1c9.6-0.1,19.2,0,28.8,0
		C441.2,539.5,441.5,539.8,441.8,540.2z"/>
	<path class="st16" d="M142.8,308.1c-1.9-1.2-2.7-3.1-3.8-4.7c-1.2-1.8,0.6-2.3,1.6-3c22.1-15,44.3-30,66.4-45.1
		c2.9-2,3.6-0.3,5,1.5c1.5,2,2,3.3-0.6,5c-22.1,14.8-44.1,29.8-66.1,44.7C144.4,307.1,143.6,307.6,142.8,308.1z"/>
	<path class="st16" d="M134,295c-1.9-0.8-2.5-2.8-3.6-4.3c-1.4-1.9,0.2-2.6,1.4-3.5c8.3-5.6,16.5-11.2,24.8-16.8
		c1.5-1,3.1-1.9,4.5-3.1c2.4-1.9,4-2.6,6.2,0.7c2.2,3.2,0.6,4.2-1.7,5.7c-9.5,6.4-19,12.9-28.5,19.3
		C136.2,293.6,135.2,294.2,134,295z"/>
	<path class="st16" d="M169.6,309.1c-2.1-0.6-2.5-2.8-3.7-4.3c-1.4-1.6,0-2.3,1.1-3.1c10.5-7.1,20.9-14.2,31.4-21.3
		c1.4-1,2.8-1.5,3.5,0.5c0.7,1.7,4.2,3.4,1.3,5.4c-10.7,7.6-21.7,14.8-32.6,22.2C170.3,308.7,170,308.9,169.6,309.1z"/>
	<path class="st16" d="M205,246.6c-0.7,0.6-1.3,1.2-1.9,1.7c-8.1,5.5-16.3,10.9-24.3,16.6c-2.4,1.7-3.1,0.3-4.1-1.3
		c-1.1-1.7-3.2-3.3-0.1-5.3c8-5.3,16-10.8,24-16.2c0.9-0.6,1.9-1.8,3-0.5C202.7,243.1,203.8,244.8,205,246.6z"/>
	<path class="st17" d="M331.8,575.8c-3.3,1.5-6.5,3-9.8,4.5c-1.5-2.3,0.4-3.7,1.5-5.2c5.5-7.8,11.2-15.5,16.5-23.4
		c1.6-1.8,3.3-3.4,4.4-5.6c5.3-7.8,10.4-15.8,16.4-23.1c5.2-6.3,7.8-12.8,7-21c-0.2-2.3-1.3-5.4,2-6.9c1.6,9,0.6,18-0.6,27
		C357.2,540.4,344.6,558.2,331.8,575.8z"/>
	<path class="st9" d="M358,571.1c1.4-9.8,5.9-18.6,9.4-27.7c0.6-1.5,2.1-2.7,1.2-4.6c-1.4,0.2-1.9,1.3-2.5,2.2
		c-15,22.1-29.9,44.3-44.9,66.4c-2,3-3.5,6-2.1,9.7c-2.8-0.6-3.3-2.5-2.5-4.9c0.5-1.6,0.9-3.3,1.9-4.6c17.5-25.8,35-51.5,52.6-77.3
		c0.4-0.5,0.7-1.2,1.2-1.6c0.9-0.7,1.9-1.7,3.1-1.1c1.3,0.6,0.9,2.1,0.7,3.1c-0.4,1.4-1.1,2.8-1.8,4.1c-4.9,9.1-8.2,18.8-12.5,28.2
		c-0.5,1-0.3,2.3-0.4,3.4C360.5,568.3,359.4,569.8,358,571.1z"/>
	<path class="st18" d="M402.9,569.3c0.1,0.6,0.2,1.2,0.3,1.8c-10.9,4.4-22,4.7-32.8-0.1c-2.8-1.2-6.6-1.9-7.4-5.8
		c2.5-3.7,6-4.5,10-2.9C382.6,566,392.6,568.1,402.9,569.3z"/>
	<path class="st9" d="M422.9,447.1c0,4.3,0,8.7,0,13c-5,0-10-0.1-14.9,0c-4.1,0.1-7.4-0.8-7.8-5.5c-0.3-3.4,3.9-7.4,7.8-7.5
		C412.9,447,417.9,447.1,422.9,447.1z"/>
	<path class="st9" d="M422.9,491.1c0,4.3,0,8.7,0,13c-5,0-10-0.2-14.9,0.1c-4.4,0.3-7.2-1.3-7.8-5.7c-0.5-3.4,3.6-7.2,7.8-7.4
		C412.9,491,417.9,491.1,422.9,491.1z"/>
	<path class="st9" d="M422.9,469.1c0,4.3,0,8.7,0,13c-5,0-10-0.2-14.9,0.1c-4.4,0.3-7.2-1.3-7.8-5.7c-0.5-3.4,3.6-7.2,7.8-7.4
		C412.9,469,417.9,469.1,422.9,469.1z"/>
	<path class="st9" d="M415.1,425.1c8.3,1.5,8.3,1.5,7.8,13c-5.1,0-10.3-0.1-15.4,0c-4,0.1-6.9-1.1-7.4-5.4c-0.4-3.2,3.6-7.1,7.2-7.6
		C409.9,424.7,412.5,426.1,415.1,425.1z"/>
	<path class="st19" d="M403.9,548.4c-0.1,0.2-0.2,0.3-0.2,0.5c-7.4,6.2-15.9,4.2-18-4.1c-1.1-4.7,1.3-9.6,5.8-11.4
		c4.4-1.9,9.8-0.3,12.4,3.6c1.1,1.6,1.6,3.1,0.1,4.9C402.2,543.9,402.6,546.2,403.9,548.4z"/>
	<path class="st20" d="M391.7,475.9c-3.4-0.1-6.6-3.3-6.6-6.8c0-3.7,3.4-7,7-6.9c3.5,0.1,6.7,3.4,6.7,6.8
		C398.7,472.6,395.4,475.9,391.7,475.9z"/>
	<path class="st6" d="M417,564.1c-4.7,1.4-8.7,5.1-14,4.7c-0.3-0.3-0.6-0.5-0.9-0.8c-1.1-1.4-0.1-2.5,0.7-3.5
		C404.9,562,413.9,561.7,417,564.1z"/>
	<path class="st9" d="M417,564.1c-7.6-2.7-12.5-1.4-14.9,3.9c-3.8-0.9-1.1-2.8-0.4-3.8c2.1-3.1,13.5-3,16.3-0.1
		C417.7,564.1,417.3,564.1,417,564.1z"/>
	<path class="st1" d="M341,552.1c-5.1,8.7-11.6,16.5-17.3,24.8c-0.8,1.1-1.7,2-1.7,3.5c-0.7,0.5-1.4,1-2,1.5
		c-8,2.3-15.8,4.9-24.2,5.4c-25.8,1.8-47.6-6.5-65.8-24.8c-1.3-1.3-2.6-2.6-3.9-3.8c-3.2-0.6-3.9-4-6.2-5.6
		c-1.9-2.6-3.1-5.5-3.5-8.7c-3.6-14.4-3.7-28.8-0.6-43.2c0.5-2.2,0.7-4.6,2.7-6.2c1.3-0.6,2.6-0.2,3.8,0.3
		c20.1,8.6,40.4,7.7,60.9,1.9c3-0.8,5.9-2,9-2.4c0.6-0.3-0.3-1.1,0.1-0.5c0.1,0.2,0,0.3-0.3,0.4c-5.1,1.3-6.4,1-7.9-2
		c3.6-1.9,7.5-1.2,11.2-0.8c13.5,1.4,26.9,0.4,40.4,0.6c1.7,0,3.3-0.4,4.7-1.3c2-1.3,2.9-3.2,2.5-5.5c-0.4-2.5-2.2-3.5-4.5-4
		c-2.6-0.5-5.8,0.8-7.8-2.1c6.1-4.5,13-5.1,20.2-4.3c4.3,0,8.5,0,12.8,0c5.1,2.1,4.1,6.8,4.4,10.9c0.5,3,1.1,6.1,1.6,9.1
		c-1.6,4.2-0.8,8.5-0.6,12.7c0.2,4.3-1.2,7.7-3.6,11c-6.8,9.4-13.5,18.8-20.3,28.1c-2.4-7.4-8.2-7.7-14.7-7.6
		c-13.3,0.3-26.6,0.1-39.9,0.1c-6.4,0-8.9,1.7-8.7,5.6c0.1,3.7,2.6,5.3,8.6,5.3c14.5,0.1,28.9,0,43.4,0.1
		C336.3,550.6,338.9,550.1,341,552.1z"/>
	<path class="st21" d="M284,493.2c3.1,2.2,6.7,0.1,11,1.7c-26,9.2-51,12.7-76,0.2c-2-2.9,0.1-5.4,0.8-8c1-3.3,1.9-6.7,4.2-9.5
		c1.6-0.9,3.3-0.9,5-0.5c8.9,3.1,18.2,5.2,27.2,8c3.7,1.2,8.2,1,12.3,1.5c1.6,0.2,3.3,0.2,4.6,1.5c1.3,0.3,2.5,1.3,4,0.8
		c0.9-0.6,1.8-0.7,2.8-0.4C281.7,489.6,283.5,490.9,284,493.2z"/>
	<path class="st2" d="M221.1,552.9c2.6,1.2,3,4.2,5,5.8c-0.5,2.1,1,5.1-2.1,6.1c-2.9,0.9-5.1-1.1-6.9-3.1
		c-12.3-13.8-20.8-29.6-22.9-48.1c-1.2-10.3-0.9-20.9,2.1-31.1c0.3-1.1,0.4-2.3,0.7-3.4c0.7-2,1.3-4,2-6c1.8-4.1,3.7-8.2,6-12
		c7.7-10.8,16.2-20.9,27.4-28.2c17.6-11.5,36.7-18.1,57.9-17.7c5.9,0.1,11.9-0.8,17.8,1c1.9,0.6,3.6,1.5,3.6,3.5
		c0,2.1-1.6,3.1-3.6,3.5c-5.8,1-11.7,2-17.5,3c-1,0.2-2,0.1-2.7,1c-0.4,0.3-0.9,0.5-1.4,0.4c-1.3-0.5-1.9-1.5-2.1-2.9
		c0.1-0.5,0.3-0.9,0.7-1.3c3.3-2.4,7.5-2.3,11.2-3.8c-31.8-0.3-59,10.1-80,34.6c-21.6,25.2-23.9,62.9-5.7,90.7
		c2.8,4.3,5.5,8.8,9.5,12.1C220.1,555.7,219.6,554.1,221.1,552.9z"/>
	<path class="st2" d="M312.1,467.1c-8.6,0-17.3,0-25.9,0c-6.1,0-9-2.8-9.2-8.6c-0.2-7.8,2.1-11.2,8.6-11.3c18.1-0.2,36.2-0.2,54.4,0
		c5.2,0,9.1,4.9,9,10.5c0,5.3-3.7,9.3-9,9.4C330.7,467.2,321.4,467.1,312.1,467.1z"/>
	<path class="st22" d="M293,352c1.3,0.1,2.6,0.1,3.9,0.2c6.3,0.6,11.4,5.5,11.1,10.5c-0.6,12.2-3.8,16.6-12,16.5c-1,0-2,0-3,0
		c-9.4,1.1-16.3-9.8-12.3-19.4C283.1,354.1,287.5,351.3,293,352z"/>
	<path class="st2" d="M228.9,478.4c-1.5,0-3.1-0.1-4.6-0.1c-0.9,0.5-1.9,0.8-2.9,0.3c-0.6-0.5-0.9-1.2-0.2-1.6
		c4.4-2.3,6.1-6.8,8.5-10.7c8.4-13.7,19.3-24.8,33-33.1c1.9-1.2,3.7-2.9,6.4-2c0.8,0.8,0.9,1.8,0.7,2.9c-0.5,1.3-1.1,2.4-2.8,2
		c-15.7,9.8-27.9,22.9-37,39C230.6,476.5,230.1,477.6,228.9,478.4z"/>
	<path class="st2" d="M293,352c-8.9,2.7-12.4,6.9-12.2,14.4c0.2,6.6,3.7,10.3,12.2,12.9c0.2,2.6-1.3,2.9-3.4,2.9
		c-5.5,0-11.7-5-12.3-11.4c-0.6-5.4-1.1-11,2.4-16.2c2.6-3.8,6.1-4.7,10-5.4C291.6,348.9,292.8,350,293,352z"/>
	<path class="st2" d="M280,489.2c-1-0.1-2-0.1-3-0.2c0-9.9,1.9-11.8,11.9-11.8c10.6,0,21.2,0,31.8,0c2.8,0,5.6,0.2,8.3,1
		c0.4,0.5,0.5,1,0.4,1.6c-0.8,1.9-2.3,2.4-4.2,2.1c-12.5-0.5-25.1-0.1-37.6-0.2c-4.8,0-5.9,3.5-7,6.9
		C280.4,488.8,280.2,489,280,489.2z"/>
	<path class="st2" d="M228.9,478.4c0.4-1.1,0.7-2.2,1.1-3.3c1.8-0.1,3.6,0,5.1,1.5c0.6,0.7,1.7,1.3,2.5,1.3
		c6.8,0.3,13.3,1.6,18.6,6.3c0.5,0.5,1.2,0.8,1.8,0.2c3.3-3.2,7.2,0.1,10.9-1c2.3-0.7,3.9,2,4.1,4.6
		C257.7,487.8,243.3,483,228.9,478.4z"/>
	<path class="st2" d="M296,379.2c8.8-3.5,11.9-7.6,11.2-15.1c-0.5-6.5-4.9-9.7-10.3-11.9c3.1-2.5,5.9-2.7,9.3,0
		c3.8,3.1,4.6,6.9,3.3,11c-0.6,1.8-1.1,2.6-0.1,4.7c1.6,3.4,1,7.1-1.7,10.1c-2.7,3-6.2,3.5-9.9,3.3
		C296.6,381.3,296.1,380.3,296,379.2z"/>
	<path class="st2" d="M267,436.1c1-0.4,1.7-1.2,2.1-2.2c1.6-0.1,2.3,1.2,3.2,2.1c2.3,2.2,5,3.2,8.1,2.1c3.3-1.2,5-3.6,5.3-7
		c0.1-1.3,0-2.7,0.9-3.8c0.5,0,0.9-0.1,1.4-0.1c1.5,0,3,0.1,3.7,1.8c1.7,3.7-3.8,13.8-7.9,14.2c-3.6,0.3-7.3,0.3-10.9,0
		C269.1,442.6,266.5,440.5,267,436.1z"/>
	<path class="st2" d="M329,479.1c0-0.3,0-0.7,0-1c3.2-4.8,8.7-4,13.2-5.6c3.7-1.3,7.1-2.2,8.8,2.7c-6.6,1.3-13.2,2.6-19.9,4
		C330.4,479.7,329.7,479.7,329,479.1z"/>
	<path class="st2" d="M368.2,486.1c-1.4-3.7-1.4-7.8-4.4-10.9c1.7-1.1,3.4-1.4,5.2-0.1C368.6,478.8,370,482.5,368.2,486.1z"/>
	<path class="st2" d="M205,461.1c-1.4,4.3-3.4,8.3-6,12C199.8,468.5,201.6,464.4,205,461.1z"/>
	<path class="st23" d="M410.8,370.1c-3.9-0.1-7-3.2-6.6-6.5c0.4-3.5,2.5-5.7,6.3-5.7c3.6,0,6.5,2.9,6.1,6.4
		C416.1,367.8,413.9,369.8,410.8,370.1z"/>
	<path class="st5" d="M341,552.1c-17.6,0-35.3,0.1-52.9,0c-5.7,0-8.1-2.3-8.1-7.1c0.1-4.5,2.6-6.8,7.9-6.8c16.1-0.1,32.3,0,48.4,0
		c6.8,0,8.7,1.9,8.9,9C344.3,549.2,342.7,550.7,341,552.1z"/>
	<path class="st24" d="M395.7,547.8c-3-0.3-5.1-1.8-5.2-4.8c-0.2-3.3,1.9-5.4,5.1-5.4c3,0,5,2,5,5
		C400.6,545.5,398.7,547.2,395.7,547.8z"/>
	<path class="st25" d="M391.9,470.8c-1.1-0.2-1.9-0.8-1.7-2c0.1-0.9,0.7-1.5,1.7-1.5c1.2,0,1.8,0.8,1.7,1.9
		C393.5,470.1,392.9,470.7,391.9,470.8z"/>
	<path class="st26" d="M268.9,431.1c-18.4,9.5-31.9,24-41.7,42c-1.6,2.8-3.7,3.8-6.2,4.9c-0.5,0.9-1.4,1.4-2.3,1.8
		c-5.5,2.2-7.9,6.6-8.9,12.2c-2.6,14.2-1.2,28,3.6,41.6c1.4,3.9,2.5,7.9,4.5,11.5c0.3,2.9,2.3,5.2,3.3,7.8c0.2,2.1,0.4,4.2,0.6,6.3
		c-0.4,0.4-0.7,0.7-1.1,1.1c-1.9-2.2-3.8-4.4-5.6-6.7c-11.2-14.9-18.2-31.3-18-50.1c0.3-20.9,8-39,22.3-54.4
		c13.9-14.8,30.8-24,50.4-28.4c8.9-2,18-3.1,27.1-2.6c1.3,0.1,3.2-0.2,3.3,1.4c0.1,1.7-1.9,1.3-3.1,1.6c-4,0.9-8,1.9-12,2.9
		c-0.8,0.9-1.8,0.5-2.7,0.3c-7.8-2-9.5-1.1-12.9,6.2C269.3,430.8,269.1,430.9,268.9,431.1z"/>
	<path class="st5" d="M312.5,509.1c8.3,0,16.6,0,24.9,0c5.1,0,7.6,2.2,7.8,6.4c0.2,4.5-2.4,7.4-7.4,7.5c-16.8,0.1-33.6,0.1-50.3,0
		c-4.9,0-7.6-3-7.5-7.4c0.1-4.3,2.5-6.4,7.6-6.5C295.9,509.1,304.2,509.1,312.5,509.1z"/>
	<path class="st27" d="M329,479.1c0.7,0,1.4,0,2.1,0c2.2,1.8,4.8,0.8,7.2,0.8c3.7,0.1,6.1,1.5,6.8,5.2c0.7,4-0.9,6.9-4.8,8.1
		c-1.7,0.5-3.6,0.5-5.4,0.5c-17,0-33.9,0.2-50.9-0.7c-1.8-0.9-3-2.3-4-4c0,0,0.1-0.4,0.1-0.4c1.9-1.3,4.1-1.1,6.2-1.1
		c6.1-0.1,12.2,0,18.3-0.8c3.7-0.5,7.1-1.2,10.5-2.8c3.4-1.6,6.9-3.4,10.9-3C327.4,481.1,328.4,480.5,329,479.1z"/>
	<path class="st27" d="M217.8,545.1c-5.9-7.4-7.8-16.3-9.5-25.2c-1.9-10.1-1.8-20.4,0.7-30.5c1.5-6.5,5.3-10.5,12.1-11.4
		c1.1,0.1,2.2,0.2,3.4,0.3c-1.8,5.6-4.7,10.8-5.4,16.8c-4.9,15.9-4.9,31.9-1.4,48.1C217.7,543.8,217.7,544.5,217.8,545.1z"/>
	<path class="st28" d="M286.6,427.2c0.9,6.5-0.6,10-5.2,11.9c-4.7,2-8.2,0.5-12.3-5.2c-0.1-0.9-0.1-1.9-0.2-2.8c0,0,0.1,0,0.1,0
		c1-1.4,1.7-3.2,4-2.3c0.9,0.8,1.1,2,1.6,3c0.9,1.7,2.1,3.2,4.3,2.4c2.1-0.8,3-2.5,2.4-4.8c-0.3-1.1-1-2.1-0.9-3.3
		c1-2.6,2.9-1.5,4.6-1.2C285.6,425.7,286.1,426.5,286.6,427.2z"/>
	<path class="st5" d="M285.1,424.9c-1.5,0.3-3.9-0.9-3.9,2.1c-2.9,0.2-5.5,1.3-8.2,2.1c-1.3,0.7-2.6,1.3-3.9,2
		c-1-6.7,6.2-11.5,13.8-7.8c0.7,0.4,1.5,0.5,2.3,0.8C285.1,424.4,285.1,424.7,285.1,424.9z"/>
	<path class="st6" d="M312.5,464.1c-8.1,0-16.3,0-24.4,0c-5.8,0-8-1.7-8.1-6.3c-0.1-4.6,3.1-7.7,8.4-7.7c11.3-0.1,22.6,0,33.9,0
		c5,0,10-0.1,15,0c4.9,0.1,8.6,3.3,8.4,7.3c-0.1,3.9-3.5,6.7-8.2,6.7C329.2,464.1,320.9,464.1,312.5,464.1z"/>
	<path class="st29" d="M302.3,365.8c-0.1,4.6-3.9,8.3-8.3,8.2c-4.6-0.1-8.1-3.8-8.1-8.5c0-4.9,3.9-8.6,8.6-8.4
		C299,357.4,302.4,361.2,302.3,365.8z"/>
	<path class="st6" d="M326,481.1c-14.4,8-30,9.1-45.9,7.7c-0.1-7.3,1.3-8.7,8.6-8.7c10.7,0,21.5,0,32.2,0
		C322.6,480.1,324.5,479.5,326,481.1z"/>
	<path class="st30" d="M272.9,429.1c2.1-3.2,4.8-3.9,8.2-2.1c2.4,1.9,2.5,4.2,0.9,6.6c-1.2,1.8-3,2.8-5.1,2.1
		C273.7,434.8,272.7,432.2,272.9,429.1z"/>
</g>
</svg>
