<?xml version="1.0" encoding="utf-8"?>
<!-- Generator: Adobe Illustrator 19.0.0, SVG Export Plug-In . SVG Version: 6.00 Build 0)  -->
<svg version="1.1" id="Calque_1" xmlns="http://www.w3.org/2000/svg" xmlns:xlink="http://www.w3.org/1999/xlink" x="0px" y="0px"
	 viewBox="0 0 612 792" style="enable-background:new 0 0 612 792;" xml:space="preserve">
<g>
	<path d="M323,645.9c-2.2-0.8-4.3-1.5-6.5-2.3c-13.1-5.1-21.1-18.4-20.1-32.5c3-40.7,5.7-81.4,8.6-122.1c0.8-11.1,1.4-22.3,2.5-33.4
		c1.2-13.5,8.4-22.8,21.1-27.8c0.8-0.3,1.4-0.7,2.8-1.4c-8.6-9.7-5.3-20.9-4.1-31.6c1.6-13.7,4.2-27.3,6.3-41c0.4-2.8,1.5-4,4.3-4.4
		c4.1-0.6,8.1-1.5,12.9-2.5c-0.2,3-0.6,5.8-0.6,8.5c0.4,19,0.9,37.9,1.3,56.9c0,1.9-0.4,3.9-1,5.8c-0.8,2.5-1.8,4.9-2.9,7.6
		c27.6,0,54.5,0,81.8,0c0-2,0-3.7,0-6.1c-7.8,0-15.4,0.2-23-0.1c-1.7-0.1-4.2-1.3-5-2.7c-13.5-22.7-26.9-45.6-40.2-68.4
		c-0.5-0.8-0.9-1.7-1.7-3.2c12.7-2.5,25-4.9,37.3-7.4c12.9-2.6,21.7-12.9,22-25.5c0.3-11.9-7.9-22.9-19.7-25.7
		c-4.1-1-8.7-0.9-12.8-0.2c-10.5,1.7-20.9,4.1-31.3,6.2c-1.3,0.3-2.6,0.3-4.5,0.4c2.4-6.5,6.4-11,11.9-14.1
		c15.2-8.8,31.1-8.9,47.1-2.6c10.9,4.3,19.8,11.5,27.5,20.3c31.9,36.6,53.2,78.7,64,126c3,12.9,2.8,25.8-3.2,38.1
		c-0.6,1.2-0.9,2.5-1.3,3.8c-4.2,15.9-15.9,25.1-32.3,25.2c-29.7,0.1-59.3,0-89,0c-1.8,0-3.6,0-6,0c-0.6,7.6-1.2,14.8-1.7,22.1
		c-2.4,34.1-4.9,68.1-7.2,102.2c-1.1,16.2-9.7,27.1-25.3,31.2c-0.6,0.2-1.2,0.5-1.8,0.8C329.7,645.9,326.3,645.9,323,645.9z"/>
	<path d="M85,381.9c1.3-9.4,1.9-18.9,4.1-28.1c4.5-18.4,8.9-36.9,15.2-54.7c7.1-20.2,21.3-34.3,42.9-39.7c3-0.7,6.1-1,8.3-1.3
		c1.4,7.6,2.7,14.6,4,21.7c-0.3,0-1.7,0.1-3.1,0c-16.4-0.7-29,11.7-28,28c2.5,40.2,17.5,75.2,44.3,105.1c3.2,3.6,6.6,6.7,4.5,12.9
		c2.5,0,4.2,0,5.9,0c29.2,0,58.3,0,87.5,0c10.5,0,19.1,4,25.6,12.3c3.7,4.8,5.6,9.8,5.1,16.5c-3.4,44-6.3,88.1-9.4,132.1
		c-0.4,5.7-0.5,11.3-1.3,16.9c-1.9,13.3,0.1,25.6,10.1,36.7c-5,2-9.4,3.7-13.7,5.4c-3.3,0-6.7,0-10,0c-16.5-4.8-25.8-15.2-26.9-32.8
		c-2.2-35.2-4.8-70.5-7.3-105.7c-0.4-5.8-0.9-11.5-1.4-17.7c-3.4,0-6.4,0-9.3,0c-31.6-0.2-63.3,0.1-94.9-0.8
		c-28.3-0.8-46.2-18.5-49.3-46.7c-0.9-8.7-1.9-17.5-2.9-26.2C85,404.6,85,393.3,85,381.9z"/>
	<path d="M563,630.9c-32.8,0.1-65.7,0.1-98.5,0.2c-14,0-28,0-42.4,0c0-42,0-83.7,0-126.2c47,0,93.9,0,140.9,0
		C563,546.9,563,588.9,563,630.9z"/>
	<path d="M191,133.9c3.2,0.8,6.4,1.6,9.5,2.6c22.7,6.9,39.4,27.8,40.5,50.5c1.2,25.8-12.3,47.7-35.2,57.3c-3.1,1.3-5.2,1.3-8.1-0.8
		c-9.2-6.7-20.6-6.8-29.9-0.3c-2.7,1.9-4.6,1.7-7.2,0.5c-23-10.2-36.4-34.1-33.5-59.8c2.7-24.1,22.3-44.7,46.7-49
		c1.1-0.2,2.2-0.6,3.3-1C181.7,133.9,186.3,133.9,191,133.9z"/>
	<path d="M162.1,264.5c0.5-7.7,3.8-14.1,11.2-17.8c7.5-3.7,14.9-3.1,21.6,2c15.7,11.8,31.3,23.8,46.9,35.7
		c11.7,8.9,23.2,17.9,35,26.5c1.9,1.4,5,2.2,7.2,1.7c34.1-6.6,68.2-13.5,102.3-20.3c13-2.6,23.7,3.9,26.1,16
		c2.3,11.3-5.1,21.3-17.9,23.9c-37.7,7.6-75.3,15-113,22.7c-7.5,1.5-14,0.4-20.2-4.3c-29.9-22.9-59.8-45.7-89.8-68.4
		C165.8,277.7,162.4,272.2,162.1,264.5z"/>
	<path d="M346,266.4c-31.7-0.4-57.2-26.2-56.9-57.6c0.3-32,26.3-57.3,58.6-56.9c31,0.3,56.5,26.5,56.2,57.8
		C403.5,241.2,377.4,266.8,346,266.4z"/>
	<path d="M266.5,419.3c-1.4,0.1-2.8,0.3-4.2,0.3c-23.7,0-47.3,0.1-71-0.1c-2.1,0-4.7-0.8-6.2-2.2c-30.9-29.9-47.8-66.3-50.9-109.2
		c-0.6-8.7,2.8-15.8,10.6-20c7.3-4,14.8-3.5,21.7,1.4c5.4,3.8,8.1,9.2,8.5,15.7c3.4,52,33.8,91.8,83.1,109c3,1.1,5.9,2.6,8.8,3.9
		C266.7,418.5,266.6,418.9,266.5,419.3z"/>
	<path d="M188.6,340.2c-6.7-14.9-7.1-29.7-9.4-45c5.1,3.9,10,7.4,14.6,11.4c0.9,0.7,0.9,3.1,0.6,4.5
		C192.7,320.4,190.8,329.7,188.6,340.2z"/>
	<path d="M227.8,630.9c-46.9,0-93.5,0-140.6,0c0-41.8,0-83.5,0-125.6c46.8,0,93.5,0,140.6,0C227.8,547.1,227.8,588.7,227.8,630.9z"
		/>
</g>
</svg>
