<?xml version="1.0" encoding="utf-8"?>
<!-- Generator: Adobe Illustrator 19.0.0, SVG Export Plug-In . SVG Version: 6.00 Build 0)  -->
<svg version="1.1" id="Calque_1" xmlns="http://www.w3.org/2000/svg" xmlns:xlink="http://www.w3.org/1999/xlink" x="0px" y="0px"
	 viewBox="0 0 612 792" style="enable-background:new 0 0 612 792;" xml:space="preserve">
<style type="text/css">
	.st0{fill:#3EBAC3;}
	.st1{fill:#3EBAC2;}
</style>
<g>
	<path class="st0" d="M526.8,631.7c-5.6-41.5-18.6-80.6-39.9-116.8C462,472.8,428.5,440,383,420.6c-5.1-2.2-6.5-5.9-8.1-10.3
		c-0.8-2.4-0.8-3.7,1.7-5.1c8.7-5,11.1-11.3,6.3-20c-2.9-5.3-2.5-8,1.9-12c8.2-7.4,7-13.6-2.6-19.2c-1.4-0.8-2.8-1.4-2.2-3.3
		c1.8-5.8,0.5-11.9,1.6-17.8c3.5-20.1,2-39.6-9.3-57.2c-2.4-3.7-1.8-5.8,0.7-8.9c14.8-18.3,29.4-36.6,44-55
		c3.9-4.9,4.1-8.9,0.9-14.3c-2.1-3.5-4.8-6.4-8.5-8.3c-20.4-10.4-41.2-19.4-63.7-24.3c-8.2-1.8-16.5-3.2-24.7-4.8c-10,0-20,0-30,0
		c-0.5,0.3-1.1,0.8-1.6,0.9c-30.6,3.2-58.7,14.1-85.8,28c-4.1,2.1-7.3,5.2-9.5,9.3c-2.2,4.1-2.7,8.4,0.3,12.2
		c15.8,19.8,31.6,39.6,47.6,59.2c1.9,2.3,1.9,3.5,0.5,5.9c-6.3,11.5-9.9,23.9-11.8,36.8c-0.6,4.1,0.7,8.7-2.3,12.5
		c-2.6,3.3-3.6,7.1-3.5,11.2c0.4,11.9,5.4,22.2,11,32.3c1.8,3.3,2.9,6.5,2.9,10.3c0.1,13.2,3.9,25.3,11.9,35.8
		c2.7,3.5,1.8,4.6-1.7,6.1c-22.7,9.5-42.8,23-60.6,39.8c-33.9,32-56,71.2-70.3,115.1c-8.3,25.4-14.1,51.3-14,78.3
		c0,7.2,1.4,13.9,8,18.3c136,0,272,0,408,0c5.8-3.9,7.5-9.8,7.9-16.3C528.5,647.6,527.8,639.6,526.8,631.7z M211.9,206.6
		c-1.4-1.8-2.5-2.9,0.4-4.4c29.7-14.8,60.3-26.4,94.2-26.3c26.3,0.1,50.9,7.2,74.7,17.6c6.1,2.7,12,5.8,18.1,8.5
		c2.6,1.2,3.2,2.2,1.2,4.7c-12.7,15.7-25.2,31.4-37.7,47.2c-1.6,2-2.8,2.2-4.9,0.8c-9.4-5.8-19.5-10.2-29.9-13.5
		c-16.4-5.1-32.9-3-49,2.4c-8.7,2.9-17.2,6.3-24.9,11.3c-2.1,1.3-3.1,0.7-4.5-1C237.1,238,224.5,222.3,211.9,206.6z M288.5,655.9
		c-54.3,0-108.6-0.1-163,0.1c-4.8,0-5.7-1.5-5.6-5.9c0.9-30.7,8.9-59.8,20.2-88c13.5-33.6,32.3-63.8,58.5-89.1
		c10.6-10.2,22.2-19.1,34.9-26.6c0.9-0.6,2-1,2.9-1.4c0.2,0.2,0.3,0.5,0.5,0.7c-5.3,6.5-10.5,13.1-16,19.6c-2,2.3-2.8,4.7-2.7,7.7
		c0.1,6.7,0.2,13.3,0,20c-0.1,3.9,1.5,6,5.2,7.4c8.2,3.1,16.2,6.6,25.5,10.5c-8.7,4.1-16.5,7.7-24.2,11.4c-7.4,3.5-7.6,4.1-3.6,11
		c22.9,39.8,45.9,79.6,68.9,119.4c0.5,0.8,0.9,1.7,1.3,2.5C290.5,656.4,289.4,655.9,288.5,655.9z M291.6,639.3
		c-5-8.7-9.3-16.1-13.6-23.5c-15.8-27.4-31.6-54.8-47.5-82c-1.9-3.3-1.8-4.8,2-6.4c8.7-3.7,17.2-8,25.8-12c2.2-1,5-1.7,4.7-5
		c-0.2-2.8-2.6-3.6-4.8-4.5c-9.2-3.8-18.4-7.6-27.7-11.2c-3-1.2-3.9-2.9-4.3-6.2c-1.5-12.1,2.2-21.8,10.9-30.4
		c6.6-6.5,11.9-14.2,18.4-22.2C279.9,501.4,293.2,568.2,291.6,639.3z M313,649.4c0.1,7.5,1.1,6.4-6.6,6.5c-1,0-2-0.1-3,0
		c-3.1,0.5-3.7-0.7-3.7-3.8c0.4-23.6,0.4-47.3-1.8-70.9c-2.8-30.5-8.4-60.6-16.3-90.2c-5-18.8-10.9-37.3-17.7-55.5
		c-0.8-2.2-1.1-3.3,1.5-4.7c6.2-3.2,7.9-15.3,2.9-20.4c-9.8-10.1-13.8-22.2-13.3-35.9c0.1-4-1-7.4-3-10.8
		c-4.5-7.4-8.3-15.2-10.4-23.6c-0.7-2.8-0.8-5.1,1.9-7c2.1-1.6,2.6-4.1,2.6-6.7c-0.2-8.4,2.5-16,5.8-23.5c3.9-8.9,10.3-14,20.4-15.1
		c12.6-1.4,25.1-2.5,37.7,0.1c3.5,0.7,6.5,2.4,9.7,3.9c7.1,3.5,14.3,5.5,21.8,0.6c3.2,10.6,5.8,21.1,10.7,30.8
		c1.5,2.9,2.8,6.2,6.7,6.8c0.3,0,0.8,0.1,0.9,0.3c1,4.5,2.6,8.7,4.9,12.8c1.3,2.4-0.6,5.5-1.7,8.1c-2.4,6-7.6,10.5-8.8,17.2
		c-0.1,0.4-0.4,1.1-0.8,1.2c-6.6,2.1-6.7,8.1-7.9,13.3c-1.9,8.4-3.7,16.9-8.7,24.2c-0.5,0.7-1,1.5-0.4,2.3
		c3.2,4.2,3.5,10.2,9.2,12.9c5.2,2.4,6.2,6.2,4.1,11.7c-13.2,34.4-22.7,69.9-29.2,106.1C313.8,576.2,312.3,612.7,313,649.4z
		 M357.7,436.3c9.2,11.1,18.2,22.2,27.3,33.2c1.8,2.2,1.1,4.8,1.1,7.2c0,5.3,2.1,11.7-0.8,15.6c-2.7,3.6-9,4.5-13.7,6.5
		c-6,2.5-12,4.9-18,7.3c-1.9,0.8-3.6,1.7-3.7,4.2c-0.1,2.8,1.9,3.6,3.9,4.6c9.2,4.3,18.3,8.7,27.6,12.9c2.6,1.2,3.1,2.3,1.6,4.8
		c-20.2,34.7-40.2,69.4-60.3,104.2c-0.2,0.4-0.5,0.8-1.4,2.2C319.2,576,338.1,472.1,357.7,436.3z M512.1,652.5
		c-0.1,2.5-0.8,3.5-3.4,3.5c-62.1-0.1-124.3-0.1-186.4-0.2c-0.1,0-0.3-0.1-1-0.5c10.6-18.3,21-36.3,31.4-54.3
		c13.2-22.9,26.5-45.8,39.7-68.8c3.2-5.5,2.8-6.8-3-9.5c-8.1-3.8-16.2-7.6-25.4-12c8.8-3.6,16.4-7.1,24.2-9.9
		c4.6-1.7,6.8-4.2,6.1-9.2c-0.3-2.5,0-5,0-7.5c-0.1-16.8-0.1-16.8-11.1-29.7c-4.4-5.2-8.6-10.5-12.9-15.6c6.5-4.5,12-1.5,17.8,1.5
		c36.6,19.2,64.1,47.8,84.9,83.1c18.4,31.3,30.6,64.9,36.7,100.7C511.2,633.5,512.3,642.9,512.1,652.5z"/>
	<path class="st1" d="M319.1,213.9c-4.8-1.5-5.2,1.7-5.1,6c0.2,7.1-2.4,10.3-7.7,10.3c-5.1,0-8.2-3.3-8.3-9.1
		c-0.1-7.2-0.1-7.2-6.9-7.2c-6-0.1-9.3-2.9-9.3-7.9c0-5,3.3-8,9.2-8.1c6.9-0.1,6.9-0.1,7.1-7.1c0.1-5.9,3.1-9.2,8.2-9.1
		c5.1,0.1,8,3.3,7.8,9.3c-0.1,4.3-0.5,7.7,5.9,7.1c6.7-0.7,10.9,2.9,10.9,8C330.8,211.2,327,213.9,319.1,213.9z"/>
</g>
</svg>
