<?xml version="1.0" encoding="utf-8"?>
<!-- Generator: Adobe Illustrator 19.0.0, SVG Export Plug-In . SVG Version: 6.00 Build 0)  -->
<svg version="1.1" id="Calque_1" xmlns="http://www.w3.org/2000/svg" xmlns:xlink="http://www.w3.org/1999/xlink" x="0px" y="0px"
	 viewBox="0 0 612 792" style="enable-background:new 0 0 612 792;" xml:space="preserve">
<style type="text/css">
	.st0{fill:#BFE4F4;}
	.st1{fill:#BEE4F4;}
	.st2{fill:#F3F8FB;}
	.st3{fill:#29AAE0;}
	.st4{fill:#BCE2F2;}
</style>
<g>
	<path class="st0" d="M285.6,445.2c5.5-11.9,4.6-24.6,4.9-37.1c8,0,16,0,24,0.1c2.1,0,3.8-0.3,5.4-1.9
		c19.1-19.4,36.1-40.3,48.7-64.6c4.8-9.1,7.1-18.9,6.9-29.2c-0.2-9.2,0-18.3-0.1-27.5c0-1.5,0.9-3.7-1.1-4.5
		c-2.1-0.8-2.5,1.6-3.6,2.7c-7.8,7.5-15.9,10.6-26.6,4.8c-8.9-4.8-13.6-14.9-10.6-24.4c3.7-11.7,21.6-22.9,34.8-9.1
		c2.7,2.8,5.1,4.7,9.6,4.8c9.5,0.1,18.4,10,18.5,19.6c0.1,14.7,0.6,29.4-0.1,44c-0.7,13.3-6.3,25.3-12.9,36.8
		c-10.2,17.6-22.4,33.6-36.4,48.5c-11.9,12.7-23.8,25.5-33.9,39.7c-1.2,1.6-1.7,3.1-1.7,5c0,5.4,1.6,10.4,2.8,15.6
		c0.6,2.9,2.5,3.8,5.5,3.7c2.9-0.1,6-1,8.7,0.8c-11.9-0.9-23.1,1-32.8,8.5c-4.5-6.3-5.6-13.7-6.3-21
		C288.9,454.9,288.3,449.9,285.6,445.2z"/>
	<path class="st0" d="M248.5,366.9c-8.6,0.3-15.2,4-19.8,11.4c-1.7-5.8-5.8-10.3-8.8-15.4c-6.6-11.6-12.5-23.4-14.4-36.7
		c-1.8-12.1-0.8-24.2-1-36.3c0-4.5-0.2-8.9,0.8-13.4c2.1-10,9.6-17,19.6-17.2c3-0.1,4.6-1.2,6.6-3.3c5.7-6.2,13-8.6,21.2-6.5
		c8.2,2.2,15.2,10.5,15.8,17.6c0.8,9.4-2.5,16.6-10.9,21.1c-10.4,5.5-19.5,3.6-26.9-5.7c-0.8-1.1-1.4-2.5-3-2
		c-1.7,0.6-1.2,2.2-1.2,3.5c0,12.7-0.2,25.3,0.1,38c0.2,6.7,2.9,13,5.9,18.9C236.9,349.9,242.2,358.7,248.5,366.9z"/>
	<path class="st1" d="M254.4,408.2c5.8-2.9,11-6.3,12.9-13c0.8-2.6,2.4-2.2,4.2-1.2c2.2,2.2,3.9,4.8,6.9,6c1.9,2.4,1,5.2,0.9,7.7
		c-0.4,9.2,1.6,18.6-1.7,27.6c-2-5.6-6.6-9.3-10.3-13.6C263.3,416.9,258.7,412.6,254.4,408.2z"/>
	<path class="st1" d="M307.5,499.2c-2-2.8-4.7-5.2-6.1-8.4c5.9-5.6,13.2-7.6,21.1-7.6c4.9,4.3,9.1,9.5,15.1,12.5
		c4.1,2,7.8,5.2,12.8,4.4c4.1,8.1,5.2,16.4,1.9,25c-3.6-0.9-7-3.1-10.8-1c-1.2-1.4-0.6-2.8-0.2-4.3c2.3-8.4-0.5-15.1-7.1-20.4
		c-6.5-5.3-13.7-5.2-21.2-2.2C311.2,498,309.7,499.6,307.5,499.2z"/>
	<path class="st2" d="M278.5,400c-0.2,0.4-0.4,0.9-0.5,1.3c-2.7-2-5.9-3.5-6.4-7.4C275.2,394.5,277.4,396.5,278.5,400z"/>
	<path class="st0" d="M481.1,415.8c-4.9-31.9-38.7-47.7-66-35.4c-20,9-29.5,25.1-28.8,47.4c0.5,15.4,12.4,34,26.6,39.9
		c10.7,4.5,10.7,4.5,10.5,16c0,0.3,0,0.7,0,1c-0.5,10-10,19.3-20,19.3c-13.3,0-26.6,0-40,0c1.4,7,1.6,14.1,0.1,21.1
		c13.8,0,27.6-0.1,41.5-0.1c14.6,0.1,24.5-7.9,32.7-18.8c6.5-8.7,7.1-18.7,6.6-29c-0.2-3.8,1.1-5.8,5-7.4
		C473.8,459.6,485.1,441.7,481.1,415.8z M460.4,424.8c0,14.4-11.6,26.3-25.6,26.3c-15.9,0-27.2-11.4-27.4-27.3
		c-0.2-13.3,12.5-25.9,26.6-26.1C447.9,397.6,461.8,410.9,460.4,424.8z"/>
	<path class="st3" d="M307.5,499.2c14.1-11.2,31.8-3.8,35.5,11.3c1.2,4.8-0.1,9.2-1.5,13.6c-5.8,9.6-14.1,13.8-23.7,11.9
		c-8.7-1.7-15.5-8.9-16.9-18.2C299.8,510.5,302.8,504.5,307.5,499.2z"/>
	<path class="st3" d="M363.5,504c-5.7-17.1-17-27.9-35-31.2c-11.8-1.3-23.3-1-33.1,7.1c-1.7,1.4-3.1,3-4.6,4.6
		c-15.1,15.3-16.8,39.5-3.8,56.7c6,8,13.7,13.6,23.3,16.3c3.7,1.1,4.8,2.8,3.4,6.5c-2.5,6.5-6,12.2-11.6,16.5
		c-12.5,9.7-26.7,10-40.9,6.3c-24.4-6.3-39.1-22.2-43.8-47.2c-0.7-3.7,0.1-6.6,2.2-9.7c9.3-13.4,21.8-23.7,32.8-35.5
		c13.9-14.9,26.6-30.7,34.7-49.7c4.7-10.4,5.2-21.4,4.7-32.5c-0.1-1.5-0.4-2.9-1.4-4.1c-0.1-0.7-0.2-1.3-0.2-2
		c-0.7-14-6.5-20.7-20.5-23.1c-2.2-0.4-2.5-1.8-3.2-3.2c-3.6-7.8-9.7-12-18.1-12.9c-7.5-2.3-17.5,3.5-19.8,11.4
		c-3.7,8.3-3.1,16.2,3,23.1c6.1,7,13.8,9.2,22.8,6.8c6.7-0.3,9.6-5.4,13-10c1.1-1.5,1.1-4.1,4-3.2c3.5,1,5.4,3.4,6.5,6.7
		c0.2,11.2,0.1,22.4-0.2,33.6c-1.4,5.9-4.2,11.2-7.3,16.3c-9.9,16.8-23.1,30.8-36.5,44.8c-6.2,6.5-12.5,10.3-21.7,8.9
		c-4.2-0.6-8.6-0.1-13-0.1c-1.9,0-3.5-0.4-4.9-1.8c-17.2-16.8-33.3-34.4-45.8-55.2c-8.9-14.9-8-30.9-7.5-47c0.1-1.6,0.9-3.3,1.8-4.6
		c3.5-5.3,8.8-5.1,11.8,0.3c4.7,8.6,14.3,12.8,23.2,10.3c9.9-2.8,16.5-12,16-22.1c-0.5-9.1-7.9-17.3-17.1-19.1
		c-9.2-1.8-19.5,3.7-23.2,12.6c-0.9,2.1-1.8,3-4.2,3.2c-11.1,1.2-18.6,9.6-18.9,20.8c-0.1,5.8,0.2,11.7-0.1,17.5
		c-0.5,10.3,2.3,19.7,6.9,28.8c7.3,14.4,17.3,26.8,27.9,38.8c11.4,13,25.1,23.9,35.2,38.1c2.9,4.1,4.6,8.1,5.2,13.1
		c5,39.8,43.9,68.9,87.5,58c18.1-4.5,28.9-17.5,33.6-35.5c0.5-2,0-4.8,3.4-5.3c18.3-2.7,28.7-14.1,33.7-31.2
		C367.3,518.1,367.2,511.1,363.5,504z M247.1,397.9c-5.8,0-10.6-4.6-10.6-10.3c0-6.3,4.8-11.3,10.8-11.3c5.9-0.1,10.8,4.7,10.9,10.7
		C258.3,393.1,253.5,397.8,247.1,397.9z M172.8,376.3c6.2,0.1,10.6,4.6,10.6,10.8c0,6.2-4.5,10.7-10.7,10.7
		c-6.2,0-10.5-4.4-10.5-10.8C162.3,380.6,166.5,376.2,172.8,376.3z M210.2,521.4c-2.2,0.1-3.2-3.5-5-6c3.5,0,6.4,0,9.9,0
		C213.4,517.8,212.3,521.3,210.2,521.4z M350.4,500.1c-0.2,1.8-1.2,2.2-2.8,1.6c-10-3.9-19.4-8.7-25.2-18.5
		C335.1,483.4,344.5,488.9,350.4,500.1z M315.4,506.8c5.2,2.4,9.6,6.3,14.5,9.2c1.4,0.8,2.6,2.2,1.6,4.1c-2.1,4.6-6.1,5.9-10.6,5.5
		c-4.3-0.4-7.6-2.6-8.8-6.9C310.7,514.2,311.1,509.9,315.4,506.8z M323.5,547.1c-14.3,0.4-26.5-7.5-31.2-20.3
		c-4.9-13.3-1.3-27.7,9.1-36c3.2,2.1,5.6,4.8,6.6,8.6c-0.3,1.9-1.7,3.2-2.6,4.7c-5.6,9.6-3.8,20.6,4.6,26.7
		c8.8,6.5,19.8,5.2,27.4-3.1c1.3-1.5,2.3-3.2,3.9-4.6c4.1-1.9,7.9-1.5,11.1,1.9C348.3,538,337,546.7,323.5,547.1z"/>
	<path class="st4" d="M331.5,520.1c-0.3-3.3-3.3-3.8-5.4-5.1c-3.8-2.5-7.8-4.6-10.7-8.2c4.8-3.3,9.8-3.4,13.7-0.2
		C332.6,509.5,333.5,514.5,331.5,520.1z"/>
</g>
</svg>
