<?xml version="1.0" encoding="utf-8"?>
<!-- Generator: Adobe Illustrator 19.0.0, SVG Export Plug-In . SVG Version: 6.00 Build 0)  -->
<svg version="1.1" id="Calque_1" xmlns="http://www.w3.org/2000/svg" xmlns:xlink="http://www.w3.org/1999/xlink" x="0px" y="0px"
	 viewBox="0 0 612 792" style="enable-background:new 0 0 612 792;" xml:space="preserve">
<style type="text/css">
	.st0{fill:#2B78C1;}
	.st1{fill:#3B4652;}
</style>
<g>
	<path class="st0" d="M329.7,262.3c-34.4,0-68.4-3.8-101.4-14.3c-4.1-1.3-5.7-3.1-5.4-7.7c1.7-24,6.3-47.4,13.2-70.5
		c0.7-2.4,2.2-3.3,4.5-3.9c38.7-8.4,77.7-10.6,117.2-8.3c20.5,1.2,40.7,3.9,60.8,8.2c3.2,0.7,4.6,2.1,5.6,5.2
		c6.9,22.5,11.3,45.5,12.8,69c0.3,4.7-1,6.6-5.5,8c-29.1,9.1-59,13.4-89.4,14.2C338,262.4,333.8,262.3,329.7,262.3z"/>
	<path class="st1" d="M223,263.2c8.6,2.3,16.9,4.6,25.3,6.6c2.6,0.6,2,1.9,1.8,3.6c-5.2,37.1,4.1,70.8,24.5,101.9
		c0.3,0.5,0.8,0.9,1.8,2.1c0.9-7.7,1.7-14.7,2.5-21.7c0.8-6.9,1.6-13.9,2.1-20.9c0.2-2.7,1.4-3.5,3.9-4.1c22.1-5.4,44.4-6.3,67-4.3
		c8.3,0.8,16.5,2.2,24.6,4c3.2,0.7,4.5,2,4.8,5.5c1.1,13.5,2.8,27,4.3,40.7c2.2-0.5,2.6-2.3,3.4-3.6c17.4-25.8,24.5-54.7,24.8-85.5
		c0.1-4.8-0.5-9.7-1.9-14.3c-0.8-2.8,0.2-3.4,2.4-4c7.7-2,15.4-4,23.6-6.2c0.6,10.8-1,21.4-2.4,32.3c4.7-0.3,9.4-0.4,12.5,3.9
		c4.5,6.2,3.2,13.3,2.7,20.3c0,0.3-0.1,0.7-0.3,1c-6.4,11.8-13.5,22.8-27.4,26.9c-2,0.6-3.5,1-4.4,3.2c-7.6,17.5-16.7,34-29.1,48.6
		c-2.1,2.5-1.3,5-0.8,7.5c0.8,3.5-0.1,5.8-3.4,7.7c-14.4,8.6-29.5,15.2-46.2,17.8c-14.1,2.1-27.1-1.7-39.9-6.5
		c-7.9-3-15.4-7-22.7-11.4c-2.8-1.7-4.3-3.6-3.2-6.8c1.5-4.5-0.3-7.7-3.1-11.2c-10.9-13.4-19.3-28.3-26.1-44.1
		c-1.2-2.8-2.5-4.6-5.9-5c-5.2-0.6-9.2-3.3-12.4-7.5c-2.2-2.9-4.7-5.7-7.4-8.1c-8.6-7.7-8.6-17.6-6.5-27.6c1.2-5.9,5.3-8.9,11.2-8.6
		c3.6,0.2,2.7-1.2,2.4-3.4C224,282.5,222.6,273,223,263.2z"/>
	<path class="st1" d="M530.9,647.7c-2.7-24.6-5.1-49.3-8-74c-3.1-26.4-7.1-52.7-13.8-78.6c-5.1-19.8-12.7-37.6-32.9-46.7
		c-3.2-1.4-6.2-3.1-9.4-4.5c-21.2-9.4-43.8-14.6-65.8-21.4c-4.3-1.3-6-0.4-7.8,3.4c-16.5,35.3-43.7,62.1-71.5,88.4
		c-2.6,2.5-5.9,2.9-8.5,0.2c-2.8-2.8-2.6-6,0.3-8.8c1.9-1.9,3.6-4,5.7-5.5c3.2-2.4,2.5-4-0.1-6.5c-21.7-19.7-39.2-42.5-51.2-69.4
		c-1.2-2.8-2.7-3.1-5.4-2.3c-8.4,2.6-16.9,4.9-25.3,7.4c-19.1,5.6-38.2,11.3-55.7,21.5c-11.4,6.6-19.3,15.9-23.7,28.5
		c-6.7,19.3-10.6,39.1-13.9,59.1c-6,36.3-8.9,73-12.9,109.6c-0.5,4.5,1,5,5,5c64.8-0.1,129.6-0.1,194.4-0.1
		c65.3,0,130.6-0.1,195.9,0.1C531.1,653.2,531.3,651.5,530.9,647.7z M441.9,557c-7,0-14,0-21,0c-9.1,0-18.3-0.1-27.4,0.1
		c-3.2,0.1-4.3-0.7-4.3-4.1c-0.1-12-0.2-12,11.7-12c16,0,31.9,0.1,47.9-0.1c3.4,0,4.5,0.7,4.5,4.3
		C453.3,556.9,453.4,556.9,441.9,557z"/>
</g>
</svg>
