<?xml version="1.0" encoding="utf-8"?>
<!-- Generator: Adobe Illustrator 19.0.0, SVG Export Plug-In . SVG Version: 6.00 Build 0)  -->
<svg version="1.1" id="Calque_1" xmlns="http://www.w3.org/2000/svg" xmlns:xlink="http://www.w3.org/1999/xlink" x="0px" y="0px"
	 viewBox="0 0 612 792" style="enable-background:new 0 0 612 792;" xml:space="preserve">
<style type="text/css">
	.st0{fill:#E4E7EB;}
	.st1{fill:#9FD267;}
	.st2{fill:#F4BA42;}
	.st3{fill:#8BC053;}
	.st4{fill:#FDCD54;}
	.st5{fill:#FDCC53;}
</style>
<g>
	<path class="st0" d="M295,324.8c-9.5-1.7-18.8-5-27.3-9.1c-10.6-5.1-19.3-2-28.7,2c-16.8,7-34.1,12.9-51.8,17.5
		c-8.4,2.2-17.3,4.5-25.6,4.7c-15.1,0.4-30.4-1.3-44.5-8c-17.1-8.1-31-19.9-43.7-33.8c-8.3-9.1-15.1-19.3-23.4-28.3c0-0.3,0-0.7,0-1
		c2-1.8,4.4-1.3,6.7-1.3c10.7,0.1,21.3-0.2,31.8-2.1c11.1-2,22.3-4.3,31.7-11.3c6.9-5.1,12.8-11.1,17.9-18
		c8-10.8,17.2-20.5,29.8-25.8c15.5-6.5,31.2-9.6,47.9-2.8c18.7,7.7,35.1,19,50.7,31.4c7.5,6,15.2,8.5,24.5,7.4
		c1.9-0.2,4.1-0.9,5.1,1.8c0.2,0.6,0.4,1.3,0.4,2c0.3,23.4,0.2,46.8,0.1,70.2C296.5,321.8,296.3,323.5,295,324.8z"/>
	<path class="st0" d="M562,269.7c-4.9,4.3-8,10.1-12,15.1c-15.3,19-32,36.5-54.7,46.7c-14.2,6.4-29.1,8.8-44.9,7.5
		c-22.8-1.9-44-8.9-65.1-16.7c-7.9-2.9-15.9-5.7-23.6-9.2c-2.2-1-4.4-1.8-7.2-0.8c-12.4,4.7-25.2,8.2-37.5,13.4
		c-1.5-1.4-1.6-3.2-1.6-5.1c-0.1-23.2-0.1-46.4,0-69.6c0-1,0.1-2,0.4-2.9c0.9-2.7,3.1-1.9,5-1.9c5.5,0.1,11.3,0.9,16-2.4
		c4.4-3,9.1-5.6,13.3-8.8c11.9-9.2,24.6-17.1,37.8-24.3c16.3-8.7,32.9-9.3,50.2-3.1c14.1,5.1,25.2,13.7,33.8,26
		c8.3,11.9,18.4,21.8,32.6,26.9c8.7,3.1,17.6,4.9,26.7,5.8c8.6,0.9,17.3,1.1,25.9,1c1.7,0,3.4,0.1,4.7,1.3
		C562,269.1,562,269.4,562,269.7z"/>
	<path class="st1" d="M336.1,632.8c7.1,7.8,11.6,16.7,12.5,27.4c0.5,6.2-0.5,12.2-2.6,18c-1.2,3.4-4.2,4.9-7,6.6c-2,0-4,0-6,0
		c-6.8-2.3-9-5.7-8.1-13.1c0.3-3,0.9-5.9,0.8-8.9c-0.2-7-3.1-12.5-9.2-16.1c-4.2-2.5-8.8-3.6-13.7-3.5c-2.7,0.1-5.3-0.3-7.8-1
		c-7-1.5-13.6-3.8-19.2-8.5c-3.3-4.1-7.8-7-11.1-11.2c-17.3-21.8-15.8-51.9,3.8-71.6c1.3-1.3,3-2.2,3.5-4.1c0.3-0.1,0.7-0.3,0.9-0.2
		c7.2,3.8,15,5.9,22.4,9c0.6,0.9,0.7,1.9,0.3,3c-0.9,1.8-2.7,2.3-4.3,3.3c-11.5,6.7-17.2,16.9-15.8,30c1.3,12.5,8.2,21.5,20.5,25.9
		c6.6,2.5,13.8,0.8,20.4,3c5.8,1.9,11.6,4,16.3,8C334.1,629.8,335.7,630.8,336.1,632.8z"/>
	<path class="st2" d="M312,172.7c7,2.6,13.8,5.5,18.7,11.5c14,17.5,7.5,41.6-13.7,50.5c-5.2,4.7-17.1,4.7-22,0
		c-14-5.8-21.8-17.7-21-32.3c0.7-13.4,10.2-24.6,24.3-28.8c0.6-0.2,1.1-0.6,1.6-0.9C304,172.7,308,172.7,312,172.7z"/>
	<path class="st3" d="M275.8,633.6c6.6,2.1,12.3,6.6,19.4,7.2c1.1,1.5,1.1,3.2,0.4,4.8c-8.5,6.7-10.5,15.3-8.5,25.7
		c1.5,7.8-0.9,11-8,13.4c-2,0-4,0-6,0c-8.8-3.8-9.2-12.1-9.6-19.8C262.8,652.9,266.9,642.2,275.8,633.6z"/>
	<path class="st4" d="M295,645.4c0.1-1.5,0.1-3.1,0.2-4.6c4.9,1.9,10.1,0.2,15.1,1.7c2.4,0.7,4.7,1.4,6.6,3c1.2,1.5,1.6,3.2,1.6,5.1
		c0.1,9.7,0.1,19.3,0,29c0,1.9-0.2,3.7-1.6,5.1c-7.3,0-14.7,0-22,0c-1.5-1.6-1.6-3.6-1.6-5.6c-0.1-9.4-0.1-18.8,0-28.2
		C293.4,649,293.7,647,295,645.4z"/>
	<path class="st1" d="M340,436.7c-0.4,2.3,1.8,2.6,3,3.5c36.7,27.9,36.3,77.9-0.9,105.4c-0.8,0.6-1.8,1-2,2.1
		c-1.5,0.7-2.5-0.5-3.5-1.2c-6.1-4.4-12.6-7.6-20.2-8.6c-1.1-0.2-2.3-0.4-2.7-1.7c0.5-1.6,2-2.1,3.1-3.1c7.5-3.3,14.9-6.6,20.3-13.2
		c20.9-25.3,6.9-59.8-20.9-67.1c-6.8-2-13.8-1.3-20.7-2.3c-8.6-2.5-16.4-6.5-23.6-11.8c0.4-2.2-1.5-2.8-2.6-3.9
		c-17.9-17.2-27.9-38-27.3-63c0.5-19.1,9.9-33.1,26.9-41.8c5.2-2.7,11-1,13.9,3.8c3.1,5.1,2.3,11.8-3.2,14.3
		c-16.8,7.7-19.2,24.8-14,42.1c3.5,11.7,9.8,21.8,19.1,29.8c3,2.6,6.2,5.1,10.2,6c7.1,1.2,14.4,1.1,21.6,2.3
		C325,429.6,332.7,432.8,340,436.7z"/>
	<path class="st3" d="M314,535.9c7.5,1.3,14.8,3.4,21.1,7.9c1.7,1.2,3.4,2.6,5.1,3.9c26.7,21.3,25.8,64.6-4.1,85.1
		c-5.6-5-12.3-8.3-19.1-11.2c-0.8-0.9-0.9-1.8-0.5-2.9c0.7-1.4,2.1-2.1,3.4-2.8c11.7-6.1,17.4-15.9,16.6-28.8
		c-0.8-13.3-8.4-22.3-20.7-27.3c-4-1.5-8.1-1.7-12.2-1.7c-3,0-6,0.2-8.3-2.3c-8.4-1.3-16.2-4.4-23.3-9.1
		c-39.8-24.3-39.8-84.7,0.1-108c2.7-1.5,3.9,1.3,5.4,2.3c5.5,3.8,12.1,5.2,17.6,8.8c0.5,0.7,0.5,1.4,0.1,2.1
		c-3.9,2.8-8.8,3.8-12.7,6.7c-13.8,10.5-20.2,24.2-17,41.4c3.2,17,13.6,28.1,30.6,32.6c4.4,0.7,8.9,1.5,13.4,1.6
		C311.1,534.4,312.8,534.3,314,535.9z"/>
	<path class="st4" d="M316.8,429.7c-3.5-1.2-7.2-1-10.8-0.9c-3.9,0.1-7.5-1-10.9-2.8c-0.1-33.7-0.1-67.5-0.2-101.2c0-26,0-52,0-78.1
		c0-4,0-8,0-12c7.3,3,14.7,2.5,22,0c0,4,0,8,0,12c0,26.4,0,52.7,0,79.1c0,33.4-0.1,66.9-0.1,100.3
		C318.1,427.3,318.1,428.5,316.8,429.7z"/>
	<path class="st3" d="M316.8,429.7c0.1-1.2,0.1-2.4,0.2-3.6c16.6-7.4,24.7-21.5,29.9-37.9c1.4-4.4,2-9.1,1.9-13.8
		c-0.2-11-4.5-19.5-14.6-24.9c-6.7-3.6-8.6-9.7-5.4-15.4c3.1-5.5,9.1-6.8,15.6-3.3c15.6,8.4,24.6,21.7,25.4,39.2
		c1.2,26.9-9.3,49.2-29.7,66.8c-2.2,1.2-3.8-0.4-5.5-1.3C329,432.5,323,430.6,316.8,429.7z"/>
	<path class="st4" d="M295.2,555.8c7.1,2,14.9-0.6,21.8,3.1c1.6,2.1,1.6,4.6,1.6,7.1c0,15.2,0,30.4,0,45.6c0,2.5-0.2,5-1.6,7.1
		c0,1,0,1.9,0,2.9c-7.2-1.4-14.9,0.1-21.9-3c-1.7-2.1-1.7-4.6-1.7-7.1c0-15.2,0-30.5,0-45.7c0-2.5,0.1-5,1.7-7.1
		C295.1,557.7,295.2,556.8,295.2,555.8z"/>
	<path class="st5" d="M285,193.6c0-6.2,3.8-9.9,10-9.9c6.5,0,11.2,4.3,11,10.2c-0.2,5.6-5.5,10.8-11.1,10.7
		C289.6,204.7,285,199.5,285,193.6z"/>
	<path class="st4" d="M316.9,451.8c0,27.3,0.1,54.7,0.1,82c-0.1,2-1.6,2-3,2.1c-6.3-0.5-12.8,0-18.9-2.2c-1.8-1.9-1.7-4.2-1.7-6.6
		c0-23,0-45.9,0-68.9c0-2.3,0-4.7,1.7-6.6c0-0.6,0-1.2,0-1.8C302.4,449.4,309.8,449.5,316.9,451.8z"/>
</g>
</svg>
