<?xml version="1.0" encoding="utf-8"?>
<!-- Generator: Adobe Illustrator 19.0.0, SVG Export Plug-In . SVG Version: 6.00 Build 0)  -->
<svg version="1.1" id="Calque_1" xmlns="http://www.w3.org/2000/svg" xmlns:xlink="http://www.w3.org/1999/xlink" x="0px" y="0px"
	 viewBox="0 0 612 792" style="enable-background:new 0 0 612 792;" xml:space="preserve">
<style type="text/css">
	.st0{fill:#EB5563;}
	.st1{fill:#9FD267;}
	.st2{fill:#424953;}
	.st3{fill:#434A54;}
	.st4{fill:#D94453;}
	.st5{fill:#636B76;}
	.st6{fill:#9FD268;}
	.st7{fill:#8BBF53;}
	.st8{fill:#7EAE4B;}
	.st9{fill:#C6816F;}
	.st10{fill:#8BC053;}
	.st11{fill:#D74452;}
	.st12{fill:#8CC054;}
	.st13{fill:#90BE5D;}
	.st14{fill:#EB5564;}
	.st15{fill:#D84453;}
	.st16{fill:#C43E4B;}
	.st17{fill:#90BF5D;}
	.st18{fill:#C33E4B;}
	.st19{fill:#7EAD4B;}
</style>
<g>
	<path class="st0" d="M50,281c23.7,0.1,47.3,0.2,71,0.2c88.8,0,177.6,0,266.4,0c44,0,88,0,132,0c3.9-1.4,7.9-0.5,11.8-0.7
		c3.5-0.1,7,0.1,10.4-0.7c5.3-0.7,10.6-0.3,15.9-0.3c1.7,0,3.3,0.3,4.6,1.5c0,1.3,0,2.7,0,4c-2,9.3-3.9,18.7-6,28
		c-0.8,3.7-2.1,7.3-3.1,11c-1.4,1.4-3.3,1.5-5.1,1.6c-1.7,0.1-3.3,0-5,0c-157.8,0-315.7,0-473.5,0c-3.4,0-7.1,0.9-10.1-1.6
		c-3.8-11.9-6.3-24-8.1-36.3c-0.1-1,0-2-1-2.7C50,283.7,50,282.3,50,281z"/>
	<path class="st1" d="M334,175c2.4,1.6,5.3,1.3,8,2c11.1,3.1,19.8,9.4,26,19.1c4.9,6.8,3.8,13.9,1.2,21c-0.7,0.7-1.7,1.2-2.2,2
		c-12.7,22.7-51,26.5-71.9,9.2c-3.6-3-6.3-6.8-8.4-11c-4.6-5.3-4.5-15.5,0.2-21.2c5.2-8,11.7-14.4,21.1-17.1
		c0.9,1.9-0.2,3.5-0.4,5.3c-0.6,4.5,1.7,8.8,5.5,10c4.6,1.5,9.7-0.2,11.7-4c2.1-4,0.7-9-3-12c-1.3-1-3.8-0.8-3.8-3.3
		C323.3,175,328.7,175,334,175z"/>
	<path class="st2" d="M221,687c-1-7.3-0.9-14.7,0-22c1.9-1.7,4.3-1.6,6.6-1.6c52.3,0,104.5,0,156.8,0c2.3,0,4.7-0.1,6.6,1.6
		c0.5,7.3,0.4,14.7,0.1,22C334.3,687,277.7,687,221,687z"/>
	<path class="st3" d="M318,175c5,1.9,9.2,4.5,9.2,10.8c0,4.5-1.9,7.8-5.9,9.5c-4,1.8-8.2,1.7-11.6-1.4c-3.3-3-4.6-6.8-3.1-11.2
		c0.4-1.2,1-2.5,1.5-3.7c2-1.3,4-2.6,6-4C315.3,175,316.7,175,318,175z"/>
	<path class="st0" d="M205.4,462c-15.8-5-31.6-10.1-46.5-17.5C115.5,423,84.6,389.9,66.3,345c1.7-1.7,4-1.5,6.1-1.4
		c15.6,0.8,31.2,0.3,46.8,0.3c15.8,0,31.5,0,47.3-0.1c10.4-0.1,20.9,0,31.4,0.1c8.8,0.1,17.6,0.1,26.4,0c10.9-0.1,21.9-0.4,32.9,0.1
		c7.3,0.3,14.6,0.1,21.9-0.1c8.8-0.3,17.6,0.1,26.4,0c10.8-0.2,21.6-0.1,32.4,0c8.6,0.1,17.3,0.2,25.9,0c10.5-0.3,20.9,0,31.4-0.1
		c9.6,0,19.2-0.1,28.9,0c11,0.1,21.9-0.3,32.9,0.1c7.6,0.3,15.3,0.2,22.9-0.1c8.8-0.3,17.6,0.1,26.4,0c12.4-0.3,24.9-0.5,37.3,0.3
		c0.9,0.1,1.6,0.3,2.2,1c-24.3,59.3-69,95.4-129.3,113.8c-30.1,9.2-61,13.3-92.3,14.2c-8.4,0.3-7.2-1.2-7.3,7.6
		c0,8.2,0.1,16.3,0.2,24.5c-0.1,0.8-0.5,1-1.2,0.6c-1.6-1.8-1.3-4-1.3-6.2c-0.1-6.5-0.1-12.9,0-19.4c0.1-3.9-1.1-5.8-5.4-5.7
		c-13.1,0.2-11.5-1.1-11.6,11.4c0,4.8,0.1,9.6-0.1,14.4c-0.1,2.1,0.3,4.4-1.9,5.8c-0.6-0.2-1-0.6-1.3-1.1
		c-1.6-7.7-0.5-15.6-0.7-23.4c-0.2-6.8-0.2-6.9-7-7.1c-19.2-0.5-38.2-2.6-57-5.9c-6.2-1.5-12.6-2.5-18.8-4.2
		C208.9,463.8,206.8,463.7,205.4,462z"/>
	<path class="st4" d="M545.7,345c-6.9,1.8-13.9-1.1-20.7,0.1c-8.5,1.5-17.2,0.4-25.6,0.3c-10.8-0.1-21.8-0.1-32.6,0
		c-9.2,0-18.5,0.1-27.6,0.1c-11,0-22.1-0.2-33.1-0.1c-9,0.1-18.1,0.1-27.1,0.1c-9.8,0-19.8,0-29.6,0c-10,0-20.1,0.1-30.1,0.1
		c-10.8,0-21.8-0.2-32.6-0.1c-9.2,0.1-18.5,0.1-27.6,0.1c-10.8,0-21.8-0.2-32.6-0.1c-9,0.1-18.2,0.1-27.1,0.1
		c-10.6,0-21.4-0.1-32.1-0.1c-9.3,0-18.8,0.1-28.1,0.1c-10.3,0-20.8-0.2-31.1-0.1c-9.5,0.1-19-1.2-28.6,0.3
		c-4.1,0.7-8.8-0.6-13.3-0.7c-3-6.8-5.6-13.7-7.2-21c164.6,0,329.2,0,493.7,0C551.4,331.3,548.7,338.2,545.7,345z"/>
	<path class="st5" d="M390.9,665c-56.7,0-113.3,0-170,0c-0.1-7.5-0.4-15-0.1-22.4c0.5-11.3,9.8-19.6,21.6-19.7
		c17.5-0.1,34.9,0,52.4-0.1c0.5-0.3,1-0.6,1.6-0.9c6.4-0.9,12.8-0.3,19.2-0.4c0.6,0,1.2,0,1.9,0c6.9-0.2,13.8-0.2,20.6,0
		c7,0.3,14.2-1.5,21,1.2c3.7,0.1,7.3,0.1,11,0.2c11.9,0.2,20.8,8.9,21,20.7C391.3,650.8,391,657.9,390.9,665z"/>
	<path class="st6" d="M316.6,505.9c0.2-0.3,0.3-0.5,0.4-0.8c13.6,0,27.3,0.1,40.9,0.1c16.8,0,31.1,12.3,33,28.2c1.9,16-8.3,31-24,35
		c-3.8,1-7.9,1.3-11.9,1.3c-12.6,0-25.2-0.2-37.8-0.4c-3.9,2-8.1,0.8-12.1,1.1c-3.1,0.2-6.2-0.2-9.3,0.4c-7.3-0.4-14.6-0.6-21.8,0.5
		c-5.3,0.8-9.1,4.2-9.2,8.8c0,5.1,3.4,8.3,9.3,9c4,0.5,8.4-0.7,11.7,2.7c0.8,6.8,2,13.5-0.8,20.2c-6.1,0.1-12.2,0.8-18.3-0.7
		c-15.8-3.9-26.1-18.2-24.6-34.4c1.5-15.7,15.1-28.3,31.2-28.7c7.3-0.2,14.6-0.1,21.9-0.2c0.5-0.4,1-0.7,1.5-0.9
		c6.3-0.8,12.5-0.3,18.8-0.4c0.6,0,1.2,0,1.8,0c12.8-0.1,25.6,0,38.4-0.1c7.7,0,12.1-3.3,12.3-8.7c0.1-5.8-4.3-9.2-12.2-9.3
		c-10.5-0.1-21,0-31.4,0c-2.3,0-4.7,0.2-6.9-0.8c-0.5-0.3-0.8-0.7-0.8-1.3c1-1.7,2.8-1.6,4.4-1.6c3.1,0.1,4.4-1.3,4.8-4.4
		c0.5-3.2-0.2-6.3-0.3-9.4c-0.1-2.5-1.5-3.5-3.9-3.5c-1.3,0-2.7,0-3.9-0.5C317.3,506.7,316.9,506.4,316.6,505.9z"/>
	<path class="st7" d="M359.2,622.7c-7.1,0-14.2,0-21.2,0.1c-2-5.8-7.3-8.3-11.8-11.6c-1-6.8-0.8-13.5,0.8-20.2
		C344.9,590.7,358.4,603.9,359.2,622.7z"/>
	<path class="st8" d="M327,591c0.9,7-0.4,13.9,0,20.9c-3.4,2.5-6.8,2.1-10.3,0.2c-1.5-7.1-2.3-14.2,0.5-21.3
		C320.4,590.9,323.7,591,327,591z"/>
	<path class="st9" d="M317.1,590.8c0,7.1,0,14.2,0,21.2c2,3.6,2,7.2,0,10.8c-0.4,0-0.8,0-1.2,0c-1.6-1.6-1.5-3.6-1.5-5.6
		c0-12.1-0.2-24.3,0.1-36.4c-0.1-9.7,1-9.3-9-9.3c-8,0-8,0-8.1,9.2c0.3,12.2,0.1,24.3,0.1,36.5c0,2,0,4-1.5,5.6c-0.4,0-0.8,0-1.2,0
		c0-3.6,0-7.1,0-10.7c-2.5-4-1.2-8.4-1.4-12.7c-0.2-2.8-0.1-5.6,0.1-8.5c-0.3-5.2-0.1-10.4-0.1-15.6c0-2,0.2-3.9,1.5-5.5
		c7.4-1.7,14.8-0.7,22.3-0.5C316.6,576.5,316.9,583.7,317.1,590.8z"/>
	<path class="st10" d="M205.4,462c7.9,1.7,15.8,3.4,23.7,5.2c0.3,1.5-0.6,2.6-1.5,3.5c-9.8,9.5-6.4,29.1,10,33.3
		c0.6,0.2,1.3,0.4,1.9,0.8c2.5,1.1,2.9,3.4,3,5.8c0.2,3.5,0.2,6.9,0,10.4c-0.2,5.6-0.9,6-6.6,5.2c-16.9-1-33.1-16.7-36-34.3
		C198.1,481,200.5,471.3,205.4,462z"/>
	<path class="st11" d="M317,526c0,0.3,0,0.7,0,1c2.3,7,2.8,14-0.2,20.9c-0.3,0-0.6-0.1-0.9-0.2c-0.8-0.7-1.1-1.7-1.2-2.7
		c-1.1-6.6-1.1-6.6-8-6.6c-0.8,0-1.7,0-2.5,0c-4.6,0-7.2-0.7-6.9,6.1c0,1.2-0.4,2.3-1.3,3.1c-0.3,0.1-0.6,0.1-0.9,0.1
		c0-7-0.1-14-0.1-20.9c-0.4-0.4-0.7-0.9-1-1.5c-0.7-6.1-0.9-12.2,0.1-18.3c0.3-0.6,0.7-0.9,1.3-1.1c1.4-9.2,0.5-18.5,0.5-27.8
		c0-4.1,1.1-5.8,5.3-5.3c4.7,0.6,10.8-2.1,13.9,1.1c2.8,3,0.6,8.9,0.9,13.5c0.4,6.1-0.8,12.2,0.6,18.3c0,0,0.4,0.1,0.4,0.1
		C319.5,512.7,319.5,519.3,317,526z"/>
	<path class="st12" d="M295,526c0.1,0.3,0.1,0.6,0,1c-17.9,0-35.9,0-53.8-0.1c-1.8,0-3.7,0.4-5.3-0.8c4.1,0.6,5.6-1.1,5.2-5.2
		c-0.3-3.6-0.3-7.2,0-10.8c0.2-2.6-0.9-3.9-3.1-4.8c1.7-2.1,4.2-1.8,6.5-1.8c14.7-0.1,29.3-0.1,44,0c2.3,0,4.7-0.1,6.5,1.8
		c0.1,0.3,0.2,0.6,0.4,0.9c0,0-0.5,0-0.5,0c-0.5,0.4-1.1,0.7-1.7,1c-2.1,0.9-5.7-0.8-6.4,2.5c-0.9,4.4-0.8,8.9,0.1,13.3
		c0.3,1.4,1.7,1.4,2.9,1.5C291.6,524.7,293.5,524.6,295,526z"/>
	<path class="st13" d="M294.8,590.6c0,7.2,0,14.4,0.1,21.5c-3.3-0.1-6.6-0.2-9.9-0.3c0-7,0-14,0-21
		C288.2,588.9,291.5,589.1,294.8,590.6z"/>
	<path class="st10" d="M369.2,217.2c-0.3-0.4-0.9-0.9-0.8-1.1c2.9-6.7,1.5-13.3-0.3-19.9c30.8,0,61.5-0.8,92.3,0.2
		c41.4,1.3,76.4,35.5,79.9,76.5c0.2,2.8,0.4,5.6,0.7,8.4c-7.2,0.8-14.3,0.9-21.5-0.1c-0.2-31.1-21.7-54.7-47.1-61.5
		c-6.8-1.8-13.7-2.5-20.7-2.5C424.1,217.2,396.6,217.2,369.2,217.2z"/>
	<path class="st14" d="M286.9,196.1c-2.4,7.1-3.2,14.1-0.1,21.2c-4.3,0-8.6,0.1-12.9-0.1c-6-0.2-10.5-4.7-10.6-10.4
		c-0.1-5.9,4.5-10.6,10.7-10.8C278.3,195.9,282.6,196.1,286.9,196.1z"/>
	<path class="st15" d="M296.1,622.8c0-14.3,0-28.6,0-42.9c6.6-2.4,13.2-2.4,19.8,0c0,14.3,0,28.6,0.1,42.9
		C309.3,622.8,302.7,622.8,296.1,622.8z"/>
	<path class="st16" d="M296,547.7c0-10.7,0-10.7,10.7-10.7c9.3,0,9.3,0,9.2,10.7C309.3,548.2,302.7,548.2,296,547.7z"/>
	<path class="st17" d="M317,526c0-6.6,0-13.3,0-19.9c9.7-0.1,12.2,2.7,10.8,12.2c-0.2,1.5-0.8,2.9-0.7,4.4c0.1,2.6-1.1,3.6-3.6,3.4
		C321.3,525.9,319.2,526,317,526z"/>
	<path class="st18" d="M315.9,579.9c-6.6,0-13.2,0-19.8,0c-0.3-10-0.3-10,9.6-10c0.2,0,0.3,0,0.5,0C316.2,570,316.2,570,315.9,579.9
		z"/>
	<path class="st19" d="M295,526c-10,0.1-10,0.1-10-9.9c0-10.1,0-10.1,10-10C295,512.7,295,519.3,295,526z"/>
</g>
</svg>
