<?xml version="1.0" encoding="utf-8"?>
<!-- Generator: Adobe Illustrator 19.0.0, SVG Export Plug-In . SVG Version: 6.00 Build 0)  -->
<svg version="1.1" id="Calque_1" xmlns="http://www.w3.org/2000/svg" xmlns:xlink="http://www.w3.org/1999/xlink" x="0px" y="0px"
	 viewBox="0 0 612 792" style="enable-background:new 0 0 612 792;" xml:space="preserve">
<style type="text/css">
	.st0{fill:#F8E4F3;}
	.st1{fill:#F8E5F3;}
	.st2{fill:#FDFDFD;}
	.st3{fill:#F7E4F3;}
	.st4{fill:#633458;}
	.st5{fill:#F7E4F2;}
	.st6{fill:#FBC98C;}
</style>
<g>
	<path class="st0" d="M63.5,469.1c2.2-1.4,3.1-4.2,6-5.1c2.1-0.6,3.8-2.5,6.3-0.3c1.1,1,3.7,0.9,5-0.8c1.3-1.7,1.4-4.4,0.4-5.7
		c-2.6-3.3-1.3-5.3,1.2-7.6c8.7-8,5.6-9.9,16.7,0.5c2.1,2,4.6,3.5,1.8,7.1c-1,1.3-1.2,4.5,0.8,6c2.1,1.5,5.1,1.6,7,0
		c3.1-2.7,4-1.8,5.5,1.5c1.2,2.6,3.3,4.9,4.9,7.4c1.8,2.9,1.3,4.4-0.9,6.2c-1.4,1.2-2.5,2.7-3.8,3.9c-1.4,1.3-2.7,2.3-4.8,0.8
		c-2.6-1.8-6.3-2.1-8.2-0.1c-1.7,1.8-1.6,5.4,0.3,7.9c1.4,1.8,0.7,3.3-0.3,4.5c-1.7,2-3.5,4.1-5.6,5.5c-3.8,2.5-6.9-0.9-9.8-2.5
		c-3.3-1.8-6.8-3.7-4.6-9.6c2.1-5.7,0.5-7-5.7-6.7c-5,0.3-8.5-2-11.9-5.1C63.5,474.4,63.5,471.8,63.5,469.1z"/>
	<path class="st1" d="M575.5,202.1c-2.2,1.7-3.7,4-6.3,5.4c-2.5,1.3-4.2,3.5-7.2,0.9c-0.9-0.8-3.1-0.8-4,0.7
		c-0.8,1.3-0.9,3.2,0.1,4.3c2.9,3.1,0.8,5-1.3,7.1c-8.6,8.8-8.4,8.7-17.2,0c-2.3-2.3-3.6-3.4-1.6-6.7c2.1-3.5,0.6-5.5-3.6-5.6
		c-0.5,0-1.1,0.2-1.5,0c-2.4-1.4-5.6,3.4-7.7-1.3c-1.2-2.7-3.9-4.3-4.7-7.4c-1.5-5.4-0.4-8.5,4.6-11.3c1.3-0.7,2.1-0.8,3.6-0.1
		c6.6,3.2,9.7,1.4,9.9-5.5c0.2-4.7,1.9-8.7,6-11.4c2.3,0,4.7,0,7,0c5.3,1.5,6.9,5.7,7.3,10.6c0.5,5.7,0.4,5.7,5.8,5.6
		c4.6-0.1,8.9,3,10.9,7.8C575.5,197.4,575.5,199.8,575.5,202.1z"/>
	<path class="st0" d="M544.5,683.1c-4-3.3-6.5-7.2-6.1-12.8c0.4-5.1-1.1-6.1-6.1-5.1c-1.8,0.3-5-0.7-6.6-1.4
		c-3.6-1.4-3.8-5.8-6.9-7.6c-0.1-0.1-0.1-0.3-0.1-0.5c0.5-4.9,5.2-6.6,7.8-9.9c1.4-1.7,3.1-2.3,5.2-0.7c2,1.6,4.7,1.9,6.3,0.1
		c1.3-1.5,1.2-4.1-0.4-6c-1.7-2-0.9-3.6,0.6-5.2c1.1-1.1,2.1-2.1,3.2-3.2c5.6-5.6,8.8-5.6,13.7,0.8c1.9,2.5,4.9,4.5,2.7,8.9
		c-1.5,2.9-0.4,6.4,4.5,5.6c5.7-0.9,9.9,1.7,13.3,6c0,2.3,0,4.7,0,7c-2.4,6.1-4.9,7.7-11.6,7.4c-4.7-0.2-5.2,0.3-5,5
		c0.3,6.7-1.3,9.2-7.4,11.6C549.1,683.1,546.8,683.1,544.5,683.1z"/>
	<path class="st0" d="M63.5,652.1c2.8-4.2,6.9-5.9,11.9-6c5.8-0.1,8.6-4,5.5-9.1c-2.1-3.6-0.2-5.3,1.6-6.6c2.2-1.5,3.6-6.6,8-2.7
		c1.2,1,3.4,0.9,5,2c3.9,2.6,6.1,5.5,5.2,10.9c-1,5.8,0.9,6.8,6.4,4.2c1.9-0.9,3-0.6,4.3,0.9c2,2.4,4.4,4.6,6.7,6.6
		c3,2.6,2,4.4,0,6.5c-2,2.2-4.2,4.2-6.3,6.4c-1.7,1.7-3.4,2.5-5.6,0.6c-1.4-1.2-3.2-1.1-4.7-0.4c-1.4,0.7-1.4,2.6-0.9,3.6
		c3.6,6-1.8,8.6-4.5,12.2c-0.5,0.7-1.1,1.2-1.6,1.8c-2.3,0-4.7,0-7,0c-5.3-2.2-8.2-6.3-7.6-11.9c0.4-4-1.4-4.8-4.8-4.9
		c-5.3-0.1-9.9-1.5-11.6-7.3C63.5,656.8,63.5,654.4,63.5,652.1z"/>
	<path class="st0" d="M63.5,286.1c2.5-1.6,4.6-3.7,7.2-5.3c2.8-1.6,5-4.3,7.7-0.1c0.2,0.4,1.7,0.3,2.3,0c1.1-0.7,0.9-2.1,0.6-3.2
		c-1.4-5.2,1.3-11.8,6-14.1c1.2-0.6,2.4-1,3.4-1.9c1.7-1.5,3-2,4,0.8c0.9,2.5,3.5,3.8,4.9,6.2c1.8,3,3.8,5.4,1.1,9.1
		c-1.1,1.5-0.2,3.6,2.5,3.6c1.8,0,3.7-0.3,5.5,0.1c1.9,0.4,4.2-2,5.5,0.1c1.7,3,5.1,5.5,4.3,9.7c-0.2,0.9-0.2,2-0.1,2.9
		c0.6,3.9-1.5,6.3-5.3,5.9c-0.5-0.1-0.9-0.4-1.4-0.5c-10-1.8-14.2,3-11.4,13.1c1,3.5-0.9,5.5-3.7,5.5c-5.2-0.1-10.3-1.6-15.1-4
		c-1.2-0.6-0.9-1.5-0.7-2.6c0.3-1.1,0.5-2.3,0.6-3.4c0.4-8.5,0.4-8.8-8.1-8.7c-4.5,0.1-6.8-3-9.9-5.1
		C63.5,291.4,63.5,288.8,63.5,286.1z"/>
	<path class="st0" d="M361.5,683.1c-4.2-3.6-5.8-8.1-5-13.7c0.5-3.2-1.6-5.5-4.3-4.1c-5.4,2.9-7.8-1.4-11.3-3.4
		c-0.1-0.1-0.3-0.2-0.3-0.4c-0.8-2.3-5.2-1.5-4.5-3.5c1.1-2.9,1.8-6.7,4.7-8.5c3.6-2.2,6.5-7.7,12.2-3.7c0.9,0.7,2.3,0.1,3-1
		c0.8-1.2,0.5-2.2-0.9-2.7c-1.4-0.5-1.6-1.6-1.4-2.8c0.9-4.5,8.4-12.4,13-12.3c1.9,0,4.5,2.9,5.6,5.1c1.5,3.1,5.7,5.6,2.5,10.3
		c-1.3,1.9,0.3,4.2,3.3,3.8c3-0.5,6.2,1.3,9.2-0.6c1-0.6,1.7,0.1,2.3,1.1c2.3,4.3,3.2,8.9,3.9,13.6c0.5,3.3-2.1,5.2-5.5,4.9
		c-3.7-0.3-7.5-0.2-11.2,0.1c-3.1,0.2-2.2,3-2.1,4.7c0.4,5.6-1.2,10.1-6.1,13.2C366.1,683.1,363.8,683.1,361.5,683.1z"/>
	<path class="st0" d="M575.5,476.1c-3.1,4.9-7.6,6.6-13.2,6c-3.6-0.4-5.5,0.8-4.8,4.6c0.6,3.3-1,6.6,0.2,10.2c0.7,2.1-2.1,4-4.3,3.9
		c-5.1-0.2-10.1-1.2-14.5-4.1c-0.9-0.6-1.5-1.4-0.9-2.5c1.6-2.8,0-5.8,0.4-8.7c0.5-3.1-1.9-4.4-3.9-3.2c-5.1,3.3-8-1.1-11-3.1
		c-5-3.4-4.6-7.5-0.4-12.3c2.3-2.6,5.6-3.4,8.2-5.5c1-0.8,2.6-0.4,3.2,1.2c0.5,1.4,1.6,1.6,2.8,0.9c1.1-0.7,1.3-1.9,1-3.1
		c-1.1-5,0.9-11,5-13.5c2.3-1.4,5.5-3.7,7.4-3.1c1.8,0.6,3.5,3.9,4.8,6.2c1.6,2.8,5.2,5.2,2.2,9.8c-1.6,2.5,0.9,4.7,4,4.3
		c5.5-0.8,10,0.9,13.7,5C575.5,471.4,575.5,473.8,575.5,476.1z"/>
	<path class="st0" d="M94.5,171.1c4.9,3.6,6.1,8.7,6,14.3c0,1.9,0.4,4.8,2.6,3.3c5-3.2,7.8,1.5,11.5,2.6c2.1,0.6,5.4,3.4,5.2,4.1
		c-1.4,4.2-2.1,9.8-7.1,11.2c-3.3,0.9-6.2,6.1-10.5,1.8c-0.7-0.7-1.6,0.7-1.3,1.9c1.5,6.3-2.4,13.7-8.3,15.7c-3.1,1-6.1,2.4-7.7-2.2
		c-1.5-4.2-6.8-7.2-3.6-13c1.1-2-1-2.8-2.9-2.6c-3.2,0.3-6.2-0.7-9.3-1.3c-2.8-0.5-3.3-3.6-5.5-4.7c0-2.3,0-4.7,0-7
		c1.6-5.5,6-7.3,11-7.2c4.3,0.1,5.8-1.4,5.7-5.7c-0.1-5.1,1.7-9.4,7.2-11C89.8,171.1,92.1,171.1,94.5,171.1z"/>
	<path class="st0" d="M63.5,377.1c3.8-3.9,8.4-5.7,13.9-5c3.4,0.5,4.4-1.3,4.1-4.4c-0.1-1.3-0.1-2.7,0-4c0.7-8.2,6.8-12.1,15.5-8.3
		c2.7,1.2,3.5,5.7,3.2,8.3c-1,6.8,3.5,7.7,7.9,8.2c3.7,0.4,6.3,3,9.8,3.3c0.7,0.1,1.1,0.5,1.4,1.2c1.6,5.5-3.6,13.2-9.2,13.7
		c-4.2,0.3-8.5,4.1-9.6,8.5c-2.2,8.1-3.7,9.3-12.1,10.7c-2.3,0.4-3.2,0.2-3.9-2.1c-1.7-5.1-4.6-9.8-4.3-15.6
		c0.1-2.1-2.3-1.6-3.6-1.5c-5.3,0.6-9.8-0.7-13.1-5.1C63.5,382.4,63.5,379.8,63.5,377.1z"/>
	<path class="st0" d="M575.5,294.1c-3.9,4.2-8.7,5.8-14.3,5c-2.8-0.4-3.9,1-3.7,3.8c0.1,1.8,0.2,3.7-0.1,5.5
		c-0.9,6.8-6.4,9.5-13.1,8.4c-7.2-1.2-4.6-6.5-5.8-10.2c-0.5-1.5-0.1-3.3-0.1-5c0-1.9-0.8-2.4-2.9-2c-4,0.8-7.9-0.3-11.4-2.4
		c-2.9-1.7-5.5-3.4-3.9-7.9c1.4-4,3.3-7.2,7.3-7.9c6.4-1.2,9.7-5.1,11.5-10.8c1.7-5.5,6.9-9.5,12.4-9.2c0.3,0,0.7,0,1,0.2
		c1.7,0.9,7.1,14.2,6.1,15.8c-2.4,3.7,0,4.1,2.7,3.8c5.7-0.7,10.4,0.7,14.2,5.1C575.5,288.8,575.5,291.4,575.5,294.1z"/>
	<path class="st0" d="M178.5,683.1c-4.4-3.8-5.8-8.5-5.1-14.2c0.3-2.7,0.1-4.6-3.8-2.8c-3.4,1.6-6.5-1.8-9.9-2.7
		c-1.6-0.4-2.6-2.5-4.7-2.5c-0.9,0-1.3-0.7-1.4-1.7c-0.2-5.5,3.7-10.7,9.2-12.5c5.7-1.8,9.7-5.1,10.8-11.5c0.8-4.8,8-9.6,12.2-7.8
		c2.2,0.9,4,4,4.7,6.4c0.8,2.9,2.5,5.9,1.1,9.2c-0.7,1.7,0.2,3.1,2.2,2.8c4-0.6,7.8,1.6,11.8,0.5c0.5-0.1,1.4,0,1.8,0.4
		c4.6,4.6,1.8,15.3-4.4,17.4c-2,0.7-3.9,0.9-5.9,0.7c-4.5-0.6-6.6,1.1-5.8,5.7c1,5.2-1.8,8.8-5,12.3
		C183.8,683.1,181.1,683.1,178.5,683.1z"/>
	<path class="st0" d="M270.5,683.1c-4.5-2.3-5.2-7-7.2-10.9c-0.2-0.4-0.4-1.1-0.3-1.4c4.2-6.7-0.9-5.7-4.7-5.8
		c-7.9-0.2-11.6-3.1-11.8-9.2c-0.1-5.7,3.4-9.1,10.3-9.8c7.4-0.7,7.4-0.7,7.7-7.8c0.4-8.6,6.4-11.6,14.4-8.6
		c4.3,1.6,4.3,3.4,3.6,6.8c-0.3,1.6-0.1,3.3-0.1,5c0,3.5,0.5,5.7,4.9,3.4c4.1-2.1,6.2,3.2,9.8,3.5c0.4,0,0.8,0.6,1.1,1
		c1.1,2,5.1,1.1,4.6,3.7c-0.5,2.8-2,5.9-4.1,7.7c-3.7,3.4-7.8,6.8-13.5,4.4c-0.9-0.4-1.7,0.1-2.2,0.8c-0.6,0.9-0.3,1.5,0.7,1.9
		c2.2,0.9,1.9,2.6,0.9,4.1c-2.5,3.6-3.8,8-7.3,11C275.1,683.1,272.8,683.1,270.5,683.1z"/>
	<path class="st1" d="M575.5,568.1c-3.2,2.4-5.8,5.2-10.7,5.5c-3.1,0.2-6.9,3.3-7.4,8.1c-0.8,7.5-7.1,11.9-13.7,10
		c-1.7-0.5-1.9-2.3-2.4-3.5c-2-4.2-4.9-8.3-3.6-13.4c0.4-1.6-0.6-1.6-1.6-1.7c-2.5-0.1-5,0-7.5-0.1c-2.2-0.1-4.4-0.4-6.6-0.6
		c1-3-1.6-5.3-1.5-8.1c0.2-5.5,4.2-9.1,10.2-9.2c1.3,0,2.7-0.1,4,0c2.8,0.2,4-0.8,3.8-3.7c-0.2-2.7,0-5.3,0.9-7.8
		c1.9-5.1,5-7.1,10.3-6.4c4.1,0.5,8.7,0.3,7.2,6.8c-0.2,0.9,0.7,2,0.5,2.9c-1.8,6.1,2.8,7.8,6.7,7.9c4.9,0.2,8,2.5,11.3,5.3
		C575.5,562.8,575.5,565.4,575.5,568.1z"/>
	<path class="st0" d="M575.5,385.1c-2.9,3.5-7.4,4.7-11,7.3c-1.3,0.9-2.8,1.3-3.8-0.4c-0.5-0.9-0.9-2-2.1-1.2
		c-0.9,0.6-1.1,1.5-0.7,2.6c1.5,4.9-1.8,12.4-6.4,14.6c-6.4,3-9,2.2-11.6-4.7c-1.2-3.2-5.5-6.1-1.7-10.5c1-1.1-1-2.5-2.7-2.6
		c-1.8-0.1-3.7-0.1-5.5,0c-2.3,0.1-4.5,0.3-6.8,0.5c0.8-3.5-2.8-5.7-2.7-9.1c0.2-5.7,4.1-9.2,10.6-9.4c7-0.2,6.8-0.2,7.4-7.1
		c0.4-4.2,1.2-8.3,5.7-10.3c4.4-1.9,8,0.1,11.6,2.3c2.7,1.7,0,4.5,1.4,6.7c0.8,1.3,0.3,3.6,0.2,5.4c-0.1,2.6,1.5,3.3,3.5,2.8
		c6.6-1.9,10.8,1.4,14.5,6.1C575.5,380.4,575.5,382.8,575.5,385.1z"/>
	<path class="st1" d="M63.5,560.1c3.5-3.6,7.5-5.7,12.8-5.1c3.7,0.4,4.6-2.8,5.1-5.5c1.7-11.2,2.4-11.9,13.6-12.8
		c1.8-0.2,1.9,0.4,2.7,1.7c2.5,4.6,2.3,10.1,5.1,14.7c1,1.7,1.9,2.1,3.2,1.9c3.8-0.6,7.1,1.3,10.6,1.6c0.8,0.1,1.3,0.3,1.6,0.9
		c3.4,7.1-1.7,15.3-9.7,15.5c-6.2,0.1-7.3,1.2-7.9,7.5c-0.7,7.2-4.1,11.9-11.3,10.6c-1.2-0.2-2.6,0.3-3.9,0.5
		c-1.4,0.2-2.7-0.3-2.4-1.7c0.9-3.5-1.9-6.3-1.4-9.7c0.6-4.7-3.9-6.9-6.3-6.8c-5.2,0.1-8.3-2.5-11.7-5.4
		C63.5,565.4,63.5,562.8,63.5,560.1z"/>
	<path class="st0" d="M452.5,683.1c-5-4.1-5.4-10.2-6.4-15.8c-0.4-1.9-0.9-2.1-2.3-2.2c-3.6-0.2-7.2-0.6-10.8-0.7
		c-2.4,0-2.8-0.5-2.7-3.2c0.2-13.8,0.1-13.9,14.2-15.1c2.3-0.2,3.3-1,3.2-3.3c-0.1-2-0.1-4,0-6c0.4-6.1,6.3-10.1,12.1-8.1
		c1.2,0.4,2.3,1.5,3.7,0.9c1.7-0.6,1.9,0.2,1.9,1.8c-0.1,2.9,0,5.9,0.3,8.8c0.2,2.2-2.1,5.3,3.9,4.5c4.3-0.6,10.2,2.2,14.1,5.8
		c2.5,2.3-1.4,11.8-5.3,13.4c-1.4,0.6-2.9,1.1-4.3,1.1c-5.1,0-7.8,4.4-8,7.4c-0.4,4.8-3.1,7.4-5.5,10.7
		C457.8,683.1,455.1,683.1,452.5,683.1z"/>
	<path class="st1" d="M162.6,215.3c-0.2-0.5-0.7-1-0.6-1.3c3.3-7.5-4.2-8.4-7.5-11.5c-1.8-1.7-2-2.1-0.9-4.1
		c2.5-4.7,5.8-8.2,10.9-10c1.7-0.6,2.7-1.5,4.3,0.1c1.1,1.1,3,1.3,4,0c1.2-1.4,0.4-2.6-1.2-3.5c-2-1.1-1.2-2.8-0.2-4.2
		c2.3-3.2,4.7-6.4,7-9.6c2.7,0,5.3,0,8,0c3.6,1.9,6.2,4.4,5.9,8.9c-0.4,1.7-1.6,2.9-2.9,3.9c-10.2,7.4-17.5,17.2-23.5,28
		C165.1,213.3,164.7,215.2,162.6,215.3z"/>
	<path class="st0" d="M460.5,171.1c2.9,3.4,5.5,6.5,5.4,11.7c-0.1,2.8,2.3,6.9,7.1,6.3c3.4-0.4,6.2,2.5,9.7,1.4
		c0.8-0.2,1.4,0.7,1.6,1.6c1.4,7.3-1.6,12.5-8.9,15.7c-0.7,0.3-1.3,1-1.9,1.5c-1.8-0.1-2.5-1.5-3.3-2.7c-5.7-9-12.3-17.2-21.1-23.4
		c-1.1-0.8-2-1.7-2.3-3.1c-0.4-4.5,2.3-7,5.9-9C455.1,171.1,457.8,171.1,460.5,171.1z"/>
	<path class="st2" d="M551.5,683.1c4.5-3.2,7.6-7,6.1-13.1c-1-3.8,1-5.8,4.9-4.9c6.1,1.5,9.9-1.6,13.1-6.1c0,7.2-0.1,14.3,0.1,21.5
		c0.1,2.2-0.4,2.6-2.6,2.6C565.8,683,558.6,683.1,551.5,683.1z"/>
	<path class="st0" d="M368.5,171.1c1.7,1.8,4.2,2.8,5,5.4c0.7,2.3,2.8,1.3,4.2,1.7c0,0.2,0,0.4-0.1,0.5c-7.5,3.1-15.1,4.6-23.1,2.4
		c1.7-3.7,3.5-7.5,7-10C363.8,171.1,366.1,171.1,368.5,171.1z"/>
	<path class="st3" d="M261.2,178.2c2.1-0.1,3.8-0.3,4.9-2.8c0.7-1.7,2.9-2.9,4.4-4.3c2.3,0,4.7,0,7,0c2.5,2.8,5.9,5.2,5,9.8
		c-1.1,1.4-2.6,1.4-4.1,1.2c-4.8-0.5-9.5-1.1-14.2-1.8C262.9,180.2,261.5,179.9,261.2,178.2z"/>
	<path class="st4" d="M261.2,178.2c7,1.5,14.1,2.2,21.2,2.7c24,3.1,48,3.5,72,0.1c7.8-0.3,15.5-1.3,23.2-2.8
		c11.8-1.2,23.7-2.6,35.6-3.6c11.8-1,23.5-0.5,34.2,5.7c10.8,7.7,19.2,17.6,26,29c12,23.5,15.7,48.6,14.1,74.6
		c-1.4,23.8-7.1,46.7-16.8,68.5c-2.5,5.5-3.9,10.8-2,16.7c0.5,3.4,1.9,6.5,2.7,9.8c1.5,6.9-1.6,13.7,0.1,20.5
		c0.5,20.9-0.4,41.8-1.8,62.7c1.3,6.9,0.4,13.5-2.2,19.9c-3,16.1-5.5,32.4-9.8,48.2c-0.4,1.6-0.7,3.2-1,4.8c0.2,0.4,0.5,0.9,0.4,1.4
		c-3.3,12.9-6.4,25.9-13.3,37.6c-7.9,18.3-16.4,36.3-28,52.7c-2.5,3.5-5.1,7-7.7,10.4c-2.5,3.5-6,4.8-10.1,3.7
		c-4.1-1.1-6.3-4.1-6.6-8.4c-1.4-17.2-3-34.4-5.7-51.5c-0.4-2.3-0.8-4.6-1.2-6.9c-3-6-3.9-12.4-3.7-19c-3.1-18.9-8.2-37.2-15.2-55
		c-2.7-2.5-3.5-6-4.8-9.2c-3.4-8.2-7.2-16.1-12.3-23.3c-1-1.4-1.4-3-1.7-4.6c-4.3-6.8-9.8-12.5-16.9-16.5
		c-6.9-3.8-13.9-3.7-20.8,0.4c-6.4,3.8-11.5,8.9-15.5,15.1c-1.8,5.2-5.1,9.6-7.8,14.3c-3.5,6.2-6,12.8-8.9,19.2
		c-0.9,2-1.9,3.8-3.2,5.6c-6.5,16.1-11,32.8-14.2,49.9c0,8.3-1.4,16.4-4.7,24.1c-3.1,17.5-5,35.2-6.2,53c-0.3,5.1-1.9,9.3-7.2,10.7
		c-4.9,1.4-8.1-1.4-10.9-5.1c-14-18.6-24.3-39.2-33.2-60.6c-0.7-0.7-1.5-1.3-1.9-2.2c-4.1-10.1-7.4-20.6-10.5-31.1
		c-0.5-1.6,0.8-3.3-0.3-4.8c-2.6-11.7-5.2-23.3-7.9-35c-2.6-10.9-4.9-21.9-5.8-33.2c-0.1-1.6-0.6-3.3,0.6-4.8
		c-1.2-20.2-2.3-40.4-1.9-60.7c0.6-4.3,0.3-8.5-0.2-12.8c-0.6-5.5-0.5-11.2,2.2-16.4c1.4-5.1,1.3-9.8-1-14.9
		c-13.7-29.7-20.6-60.9-19.2-93.7c0.8-16.7,4.7-32.8,11.1-48.2c7.1-13.8,16.2-25.8,29-34.8c10.6-6.4,22.3-6.9,34.1-5.9
		C237.6,175.6,249.4,177,261.2,178.2z"/>
	<path class="st1" d="M254.7,575.1c1.2-8.1,2.4-16.2,4.7-24.1c3.9,2.1,4.6-0.9,5-3.4c1.4-8,5.1-11.4,13.2-11.7c0.3,0,0.7,0,0.9,0.1
		c1.3,0.6,7,15,6.2,16.3c-1.5,2.4-0.4,2.9,1.8,2.9c2,0,4-0.1,6,0.1c2.2,0.2,5.5-0.3,6.4,0.9c1.6,2.2,2.4,5.5,2.5,8.3
		c0.2,5.2-4.3,8.6-10.6,8.7c-8.2,0.1-8.2,0.1-8.2,8.1c-0.1,8.5-4.8,11.7-13.1,9.4c-3.2-0.9-4.9-1.3-4.7-5.5
		c0.2-3.5,0.2-7.3-0.5-11.3c-2.5,1.3-4.9,4-7.3,0C256.3,572.8,255.5,574.7,254.7,575.1z"/>
	<path class="st0" d="M380.6,555.1c2.1,6.2,2.7,12.6,3.7,19c-2.6,0.9-5.3,3.6-7.5-0.6c-0.3-0.5-1.2-0.4-1.7,0.2
		c-0.6,0.7-0.5,1.5-0.3,2.3c1.4,4.9-0.9,11.5-5,14.2c-0.7,0.4-1.7,0.4-2.3,0.9c-5,4.4-7.2,0.5-9.5-3.2c-1.4-2.3-1.4-5.3-4.1-7
		c-1.2-0.7,0.1-2.7,1.1-3.9c2.5-2.9,0.7-3.8-2-3.9c-2.3-0.1-4.8-0.6-7,0.1c-7.1,2.2-6.5-4-8-7.3c-1.5-3.3,1.4-8.3,4.9-9.8
		c3.2-1.4,6.5-1.1,9.8-1c2.8,0.1,4-0.9,3.8-3.8c-0.1-1.8-0.1-3.7,0-5.5c0.2-7.2,6.1-10.4,12.9-8.1c6.2,2.1,5.5,6.5,5,10.9
		C373.9,553.7,375.3,556.1,380.6,555.1z"/>
	<path class="st0" d="M184.5,535c4.2,12.7,8.5,25.4,12.7,38.1c-6.2,0-7.2,1.1-5,6.9c1.1,2.8-1,4.2-1.6,6.2c-0.3,1-1.5,1.7-2.3,2.5
		c-6.4,6.5-6.5,6.5-12.7-0.2c-1.5-1.6-1.9-4.3-4.4-5.1c-0.8-0.3-0.6-1.5-0.1-2.2c1.8-2.1,3.8-4.5,1.7-7c-2.2-2.6-6.3-2.1-8.4-0.9
		c-3.9,2.1-4.7,0-6.5-2.3c-2.2-2.8-3.2-6.2-4.6-9.3c-1.4-3.2,3.1-4.4,4.8-6.7c0.9-1.3,2.3-2.8,4.1-1.3c1.1,1,2.2,1.2,3.6,1.3
		c7.4,0.5,10.6-3.9,6.9-10.5c-1.8-3.2-0.1-4.4,1.6-5.7c1.8-1.5,2.8-5.7,6.6-2.6C182.4,537.7,184,537.4,184.5,535z"/>
	<path class="st0" d="M443.5,574.1c4.3-13,8.7-26,13-39c5.3-1.1,5.3,4.4,8.1,6.6c1.5,1.2,0.9,3.9,3.2,5.2c1.6,0.9-0.4,2.5-1.2,3.6
		c-1.9,2.8-1.7,4.7,2.3,4.6c2,0,4.2,0.6,5.9-0.1c4.6-1.9,6,1,7.7,4.2c1.8,3.5,0.8,7.4,2,11c0.7,2.2-2.6,4-5.4,3.6
		c-16.4-2-14.3-1-12.9,13.1c0.4,3.8-2.3,5.6-6.2,4.6c-3.8-0.9-7.8-0.2-11.3-3c-1.4-1.2-2.3-1.6-1.8-3.7c0.6-2.7,0.4-5.6,0.5-8.4
		C447.6,573.1,446.2,572.6,443.5,574.1z"/>
	<path class="st5" d="M273.5,501.1c4.7-14,10.8-27.3,19.9-39.1c2.7,3.2,6.3,5.4,8.8,8.9c1.2,1.6,1.4,2.6,0.1,3.8
		c-2.7,2.6-5.1,5.7-8.3,7.8c-1.7,1.1-2.9,1.6-4.8,0.3c-1.8-1.2-4.6-1.5-6,0.1c-1.6,1.9-1.1,4.2,1.2,6c1.5,1.1,1.1,2.7-0.1,3.9
		C281,495.9,278.4,499.9,273.5,501.1z"/>
	<path class="st5" d="M346.5,463c8.4,11.3,14.2,23.9,18.8,37.1c-7.9-0.7-8.9-1.8-8.9-9.4c0-1.8,0-3.6,0-5.5c0.1-2.8-1.1-3.5-3.7-2.6
		c-3.2,1-14.8-3-16-5.4c-1.4-2.8,3.5-11.7,7.2-13C344.9,463.9,346,464,346.5,463z"/>
	<path class="st3" d="M171.4,462.1c1.7,12.6,3.5,25.3,5.2,37.9c-1.8-3.1-3.4-6.2-3.2-10c0.2-5.1-2.4-7.9-7.5-7.8
		c-3.5,0.1-6.3-2.1-9.6-2.4c-0.5,0-1.2-0.7-1.4-1.3c-2.7-6.8,2.1-14.4,9.5-14.3C167.2,464.3,169,462.4,171.4,462.1z"/>
	<path class="st1" d="M171.6,372.2c-0.7,9.7-1.3,19.5-2,29.2c-0.1-1.8-0.2-3.6-0.2-5.5c0-5.7,0-5.7-5.3-3.3
		c-1.2,0.5-2.8,1.1-3.3-0.7c-1.2-3.9-5.2-5.4-7-8.8c-0.3-0.6-1.5-1-1.3-1.9c1.1-4.7,5.5-6.8,8.4-10.1c1.4-1.6,3.1-1.3,4.8,0.2
		C167.5,372.8,169.7,371.9,171.6,372.2z"/>
	<path class="st0" d="M467.3,482c0.7-6.6,1.5-13.3,2.2-19.9c4.9-2.5,7,3.4,11,3.8c1.1,0.1,2.1,1.7,3.2,2.1c2.7,0.9,2.3,1.8,1.3,4.3
		c-2.4,5.8-6,9-12.2,10.9C469.9,484.1,469.2,481.7,467.3,482z"/>
	<path class="st5" d="M471.3,399.4c-0.9-10.1-1.8-20.2-2.7-30.3c1.5,4.8,5.9,2.9,8.8,3.2c3.2,0.4,4.2,1,5.2,4.2
		c2.4,7.9-0.4,13.7-8.1,13.5c-2.4-0.1-3.2,1.1-3.1,3.3C471.5,395.4,471.4,397.4,471.3,399.4z"/>
	<path class="st6" d="M232.2,603.4c-10.3-17.5-17.8-34.9-23.7-52.9c-13-39.1-19.2-79.4-20.3-120.6c-0.6-21.8,0.1-43.6,3.3-65.2
		c0.6-3.8-0.6-7.2-2.2-10.5c-12.9-26.8-20.2-55-19.5-84.8c0.5-22.3,5.1-43.6,19.4-61.7c8.7-11,19.1-16.3,33.7-15
		c20.4,1.8,40.6,5,61,7.1c20.6,2.1,41.1,2.5,61.8,0.9c23.6-1.8,46.8-6,70.4-8c15-1.3,25.7,4.2,34.5,15.6
		c10.8,14.1,16,30.2,17.9,47.5c3.8,33.1-3.1,64.5-16.7,94.6c-2.4,5.3-3.2,10.1-2.2,15.8c3.6,22.4,4.3,45,3.4,67.7
		c-1.1,25.8-3.9,51.4-9.3,76.7c-6.7,31.4-16.9,61.5-32.7,89.6c-0.7,1.2-1.3,2.3-2,3.4c-0.3,0.4-0.6,0.7-1.6,1.8
		c-1-7.3-1.7-13.9-2.7-20.4c-5.8-39.6-13.9-78.6-31.9-114.8c-6.5-13.1-14.4-25.2-25.9-34.4c-18-14.4-39.7-13.5-56.7,2.2
		c-15.8,14.5-24.9,33.2-32.4,52.7c-12,31.2-18.7,63.7-23.2,96.7C233.7,592.3,233,597.2,232.2,603.4z"/>
</g>
</svg>
