<?xml version="1.0" encoding="utf-8"?>
<!-- Generator: Adobe Illustrator 19.0.0, SVG Export Plug-In . SVG Version: 6.00 Build 0)  -->
<svg version="1.1" id="Calque_1" xmlns="http://www.w3.org/2000/svg" xmlns:xlink="http://www.w3.org/1999/xlink" x="0px" y="0px"
	 viewBox="0 0 612 792" style="enable-background:new 0 0 612 792;" xml:space="preserve">
<style type="text/css">
	.st0{fill:#3C4752;}
	.st1{fill:#2F79BE;}
	.st2{fill:#2F7ABE;}
	.st3{fill:#397FC0;}
	.st4{fill:#307ABE;}
	.st5{fill:#377EBF;}
</style>
<g>
	<path class="st0" d="M120.7,433c-9.4-14.2-18.5-27.8-27.4-41.5c-1.6-2.5-2.7-3.4-5.1-1c-2.1,1.9-4.9,2.7-7.7,3.4
		c-20.5,5.3-29.8,15.7-32,36.8c-1.6,14.7-2.3,29.5-3.7,44.3c-0.3,3.2,0.8,4.4,3.7,5.3c12.3,3.9,25,5.4,37.8,6.3
		c22,1.7,43.9,1.9,65.9,0.3c1.7-0.1,5.1-2.2,5,2.3c-0.1,3,0.7,6-4.4,6.3c-21.3,1.1-42.6,1.5-63.9-0.3c-14.9-1.2-29.8-2.6-44.2-7.4
		c-8.3-2.8-9.2-4.2-8.5-12.6c1.3-15.4,2.6-30.9,3.8-46.3c1.6-20.5,13.3-35.8,33.1-41.7c7.5-2.2,14-5,17.8-12.7
		c6.4,6.9,10.5,14.7,15.3,22c4.8,7.2,9.3,14.6,14.3,22.4c10.3-14.5,18.5-30.1,29.7-44.6c3.9,8.3,10.7,11.5,18.6,13.1
		c2.6,0.5,5.1,1.7,7.4,3c1.7,1,5.6,1.3,4.1,4c-1.4,2.6-3.6,6.7-8.4,3.4c-3.3-2.2-7.3-3.1-11.2-4c-1.6-0.4-3.2-0.8-4.7-1.5
		c-6.4-3-6.3-3-10.5,3.2C137.4,407.8,129.2,420.2,120.7,433z"/>
	<path class="st1" d="M120.9,299.4c-11.7,0.9-23.3-0.5-34.8-1.6c-4.5-0.4-6.2-2-6.1-7.1c0.3-18.8,10.4-29.5,29.2-29.7
		c9.3-0.1,18.7-0.9,27.9,0.5c17.9,2.8,27,15.4,24.1,33.1c-0.4,2.5-2,2.3-3.5,2.5c-6.1,0.8-12.2,1.8-18.3,2.2
		C133.2,299.7,127.1,299.4,120.9,299.4z"/>
	<path class="st1" d="M253.9,384.7c9.8,9.9,19.8,19.7,29.4,29.8c3.3,3.4,5.1,3.7,8.5,0.1c9.2-9.8,18.9-19.2,29.4-28.2
		c-11.3,34.3-22.6,68.6-34.3,104.1c-11.7-35.9-22.9-70.5-34.1-105C253.1,385.2,253.5,384.9,253.9,384.7z"/>
	<path class="st1" d="M101,347.2c-0.1-13.3,0-13,12.1-18.6c5.7-2.6,10.8-3.4,16.4,0c2.8,1.7,6.1,2.7,9.2,3.9
		c2.3,0.9,3.4,2.4,3.3,4.9c-0.1,6.5-0.1,13,0,19.5c0,1.8-0.6,3.1-1.9,4.4c-10.3,10.8-25.8,11.2-36.7,1.1c-1.7-1.6-2.6-3.3-2.4-5.7
		C101.1,353.6,101,350.4,101,347.2z"/>
	<path class="st2" d="M450.1,484.9c-2.7,0.5-3.5-0.9-3.9-2.9c-3-18-6-36.1-9-54.1c-0.3-1.6,0-2.5,2-2.2c6.8,1,13.6,1.1,20.4,0.1
		c3.8-0.5,2.6,1.9,2.4,3.7c-2.4,15.1-4.9,30.2-7.4,45.3c-0.4,2.5-1,4.9-1.3,7.4C453,484.3,452.3,485.6,450.1,484.9z"/>
	<path class="st0" d="M93.7,356.3c-1.6-3.5-3.7-6.4-5.9-9.3c-3.2-4.4-5.1-9.4-5.6-14.8c-0.9-8.3-1.5-16.6-2.1-24.9
		c-0.1-1.2-1-3.6,1.3-3.5c3.8,0.1,7.6,0.7,11.4,1.3c1.5,0.2,0.9,1.3,0.8,2.3c-0.3,3.6-0.4,7.3-0.6,10.9c-0.1,2.5-0.7,4.6-2.1,6.9
		c-2.6,4.1-1.3,8.9,0.9,12.8C95.3,343.9,94.3,350,93.7,356.3z"/>
	<path class="st0" d="M148.6,357.8c-0.1-6.7-1.4-13.3,2.4-19.7c2.6-4.4,4.3-9.8-0.5-14.6c-0.8-0.8-0.5-2.8-0.6-4.3
		c-0.3-4.6,0.6-9.3-1.5-13.7c0.4-0.3,0.6-0.5,0.9-0.6c3.8-0.2,8.5-3,10.9-0.7c2.3,2.2,0.6,7.2,0.7,11c0.1,4.5,0,9,0,13.5
		c0,5.1-1.2,9.9-3.5,14.4C154.9,348.1,150.8,352.3,148.6,357.8z"/>
	<path class="st3" d="M153.6,436.8c-1.3,0-2.7-0.1-4,0c-3,0.4-3.6-1.1-3.5-3.8c0-2.6,0.5-4.1,3.5-3.9c3.3,0.2,6.6,0,10,0
		c1.5,0,3.9-0.5,3.4,2.2c-0.4,2.1,0.7,5.5-3.4,5.4C157.5,436.8,155.6,436.8,153.6,436.8C153.6,436.8,153.6,436.8,153.6,436.8z"/>
	<path class="st0" d="M404.8,490.8c-1.2-17.8-2.2-35.6-3.9-53.3c-2-20.7-11.9-36.3-30.6-46c-10.3-5.4-21.3-9.3-31.9-14.1
		c-4.1-1.8-5.1-0.9-6.3,3c-12.6,40.6-25.3,81.2-37.9,121.9c-1,3.2-2.3,4.6-5.8,4.4c-3.1-0.2-5.4,0-6.6-4
		c-3.3-10.8-7.2-21.5-11.1-32.5c-1.6,3.2-2.7,6.1-4.5,8.4c-2.3,2.9-2.2,5.5-0.9,8.7c2,5.1,3.6,10.4,5.4,15.5c1,2.7,0.4,3.6-2.6,3.4
		c-7.8-0.6-15.6-0.9-23.5-1.3c-21-1.3-41.8-3.2-62-9.7c-3.6-1.1-5-2.5-4.7-6.5c1.3-17.8,3.1-35.5,5.2-53.2
		c1.9-16.1,10-27.4,24.6-34.8c1.1,3.4,2,6.5,3,9.7c0.5,1.5,0.2,2.5-1.3,3.3c-13.6,7.2-16.3,20.9-19.9,33.9c-2,7.2,2.9,12.7,4.5,18.9
		c2.4,9.1,7.5,16.6,16.3,21.1c1.1,0.6,1.9,1.3,2.5,2.3c2.2,3.8,5.4,4.1,9,2.2c2.7-1.5,5.3-3.6,4.2-7.1c-1.3-4-5.3-5-8.7-4
		c-4.2,1.2-6.8-0.5-9.1-3.2c-5.9-6.9-9.5-13.5-7.4-23.9c2.8-14.1,7.2-21.4,21.1-24.6c7.3-1.7,14.5-1.7,21.4,1.9
		c7.4,3.8,9.5,12,14,18.1c2.6,3.6,1.4,9.7,0.1,14.6c-1.3,5-2.7,9.7-9.2,10.8c-3.3,0.5-6.3,3.3-5.5,7.2c0.8,3.9,4.6,4.6,8,4.6
		c3.2,0,5.3-1.9,6-5c0.3-1.7,0.9-3.1,1.9-4.5c8.8-11.7,9.7-36.2,0.2-47.4c-9.2-10.9-19.6-21.2-36-19.8c-1.4,0.1-2.8,0.3-3.7-1.6
		c-4.6-9.9-4.2-11.2,5.9-15.3c7.2-3,7.1-2.9,9.8,4.4c1,2.7,0.6,6.3,4,7.5c3.9,1.4,7.4,3.7,11.8,6.6c-4.1-12-7.9-22.9-11.5-33.9
		c-0.8-2.3-2-1.1-3.1-0.7c-12.2,4.9-24.5,9.6-36,15.9c-13.4,7.3-23,18-25.9,33.6c-4.2,22-5.5,44.3-7.1,66.5
		c-0.4,5.5,2.4,8.7,7.4,10.5c15.7,5.8,32,8.9,48.6,10.5c38.4,3.7,76.8,4.6,115.3,1c19.6-1.8,39-4.2,57.7-11
		C403.5,501.1,405.3,498.6,404.8,490.8z M389.6,494.9c-18.9,6.1-38.4,8.2-57.9,9.8c-8.9,0.7-17.9,1.5-27.6,1.1
		c2.3-7.4,4.5-14.6,6.8-21.8c9.3-30,18.8-59.9,28-90c1.1-3.4,2.1-4.6,5.6-2.7c3.6,2,7.5,3.5,11.5,4.8c3.5,1.2,4.6,3.3,4.2,6.7
		c-0.2,1.8,0,3.7-0.2,5.5c-0.5,8.5-0.6,8.5-8.8,9.6c-11.2,1.5-20.1,10.6-21.1,21.5c-1,11.2,5.9,21.8,16.4,25.2
		c10.7,3.4,22.4-1,28.1-10.6c5.8-9.9,4-22.2-4.8-29.9c-2.6-2.2-3.2-4.2-2.5-7.3c1.1-4.4,0.6-9,0.9-14.2c5,2.3,8.5,5.6,11.4,9.4
		c5.6,7.5,9.7,15.6,10.6,25.4c1.6,16.9,2.5,33.9,3.8,50.8C394.3,491.9,393.4,493.7,389.6,494.9z M371.3,441.8
		c0,9.8-7.6,17.4-17.3,17.4c-9.8,0-17.4-7.7-17.3-17.5c0.1-9.6,7.6-17.1,17.1-17.2C363.6,424.5,371.2,432,371.3,441.8z"/>
	<path class="st0" d="M336.4,342.1c7.9-1.4,8.1-1.3,10.6-9.5c9.1-30.2,4.2-58.3-13.4-84.1c-10.2-14.9-23.4-24-42.7-24.3
		c-18.7-0.3-35.1,3.1-47.6,17.8c-11.6,13.6-18.5,29.4-21.3,47.1c-2.5,15.9-2,31.5,4.2,46.6c0.9,2.3,1.7,4.7,4.7,5.3
		c5.7,1.2,5.7,1.2,3.2,6.6c-3.3,6.9-8.3,11.9-15.1,15.4c-1.3,0.6-3,0.6-3.7,2.5c12.3,4,25.1,7.3,36.3-0.9c7.8-5.7,13.2-3.9,20,0.7
		c9.3,6.2,19.1,5.8,28.7,0.2c2.3-1.3,4.7-2.5,7-3.9c1.4-0.8,2.5-1.3,4.1-0.2c14.3,10,29.5,9.7,45.6,3.7
		C342.1,356.1,338.8,352.3,336.4,342.1z M332.8,299.3c-2.8,23.1-12.4,42.5-31.3,56.9c-8.1,6.2-16.4,7.2-25.6,3
		c-15.4-7-24.2-19.3-28.7-35.1c-5.3-18.6-3.8-37.2,0.1-55.8c0.8-3.7,3-5.7,7.1-5.5c11.6,0.5,22.9-0.7,34-4.4
		c2.3-0.7,3.4,0.5,4.9,1.4c11.1,7.1,21.7,14.8,29.7,25.6c0.4,0.5,0.4,1.3,0.7,2c2.5-8.5-3.7-12.5-6.9-18.3
		C326.8,273.2,334.3,287,332.8,299.3z"/>
	<path class="st0" d="M489.9,360.3c6.3-0.8,6.5-0.7,8.3-6.5c8.6-28.7,2.8-54.2-17.3-76.3c-1.7-1.9-2.2-3.2-1.4-5.6
		c2.1-6.6,4.2-13.3,5.9-20.1c2.5-10-4.1-18.5-14.4-18.6c-14-0.1-28-0.2-42,0c-11.1,0.1-17.5,9.1-14.5,19.8
		c1.8,6.4,3.6,12.8,5.7,19.1c0.9,2.5,0.2,3.7-1.5,5.5c-19.9,21.6-25.5,46.7-17.8,74.9c1.2,4.5,2.9,8.6,9.1,7.5
		c-2.4,9.4-8.4,15.2-17.2,18.9c11.7,4.5,22.4,5.2,32.3-1.8c3.4-2.4,6-2.6,9.2-0.3c10,7.4,20.2,7.6,30.5,0.4c2.6-1.9,4.7-1.6,7.5,0.1
		c10.8,6.7,22.2,6.1,34.6,1.4C497.8,375.1,492.2,369.4,489.9,360.3z M430.3,240.9c3.3,0,6.7,0,10,0c3.2,0,6.3,0,9.5,0
		c6.8,0,13.7-0.1,20.5,0c5.9,0.1,9,3.7,7.5,9.5c-1.8,6.9-3.9,13.8-6.1,20.5c-1.5,4.6-5.2,6.8-10,6.8c-7.8,0.1-15.6,0.1-23.5,0
		c-5.2-0.1-8.9-2.5-10.4-7.6c-1.9-6.2-3.9-12.4-5.6-18.6C420.3,244.6,423.2,241,430.3,240.9z M457.6,374.6c-5.2,2.5-10.3,2-15.4-0.3
		c-15.4-7-22.5-19.9-25.2-35.9c-1.9-11.7-0.7-23.2,1.3-34.7c0.8-4.9,3.2-7.1,8.5-6.7c8,0.5,16-0.4,23.6-2.9c2.4-0.8,4-0.1,6,1.2
		c9,5.8,17.3,12.4,24.4,21.7c0.9-6.5-3.1-9.8-5.2-13.9c6.4,3.8,10.2,9.4,11.3,16.8C489.7,338.4,474.8,366.3,457.6,374.6z"/>
	<path class="st0" d="M497,397.6c-8.5,0.5-15.8-2.1-19.5-10.8c-0.4-1-1.3-1.9-2.2-3.2c-0.5,1.6-0.9,2.7-1.1,3.7
		c-5,30.5-10.1,61.1-15.1,91.6c-1.8,11.2-1.7,11.1-13.3,10.9c-2.6,0-3.6-0.7-4-3.5c-4.2-26.1-8.5-52.2-12.8-78.3
		c-1.3-8-2.7-16-4.1-24c-0.4-0.2-0.8-0.5-1.1-0.7c-4.2,14.7-16,14.5-27.7,14.5c3.8,8,3.8,7.9,11.2,7.3c4.3-0.4,8.4-1.5,12.5-3.3
		c0.4,1.7,0.8,3.1,1.1,4.6c4.1,24.6,8.2,49.2,12.1,73.9c1.5,9.5,1.4,9.5-8.2,9.5c-1.7,0-3.3,0-5,0c-2.7-0.1-5-0.6-5,3.8
		c0,3.9,1.6,4.1,4.7,4.1c34-0.1,68,0,102-0.1c9.3,0,14.5-5.2,14.5-14.6c0-15.2-0.5-30.3,0.1-45.5C537,413.7,517.4,396.5,497,397.6z
		 M528.2,482.5c0,5.9-1.4,7.3-7.4,7.4c-17.1,0-34.3,0-51.4,0c-1.3,0-2.6-0.1-4.1-0.2c4.7-28.4,9.3-56.6,13.9-84.8
		c0.3-1.7,0.4-3.3,3-2.1c5.4,2.5,11.3,2.6,17.1,2.8c16.5,0.6,28.8,13,28.9,29.5C528.2,450.8,528.2,466.6,528.2,482.5z"/>
	<path class="st4" d="M353.9,432.1c5.3,0.1,10,4.8,9.8,9.9c-0.1,5-4.7,9.5-9.7,9.6c-5.1,0.1-9.9-4.8-9.8-10
		C344.3,436.7,349,432.1,353.9,432.1z"/>
	<path class="st4" d="M436.9,259.4c-0.2-3.3,1.6-4.8,4.8-4.5c2.8,0.3,3.9-0.8,3.6-3.6c-0.3-3.2,1.2-4.9,4.7-4.9
		c3.3,0.1,4.5,1.7,4.2,4.7c-0.3,2.7,0.4,4.1,3.5,3.8c3.4-0.4,5.4,1.1,5.3,4.8c-0.1,3.6-2.4,4.5-5.4,4.1c-3.1-0.4-3.7,1.2-3.4,3.8
		c0.3,2.9-0.8,4.9-4,5c-3.3,0.1-5.1-1.6-4.8-4.9c0.4-3.6-1.4-4.1-4.4-3.9C438,264.1,436.8,262.3,436.9,259.4z"/>
	<path class="st5" d="M500.4,444c2.5,0,5,0.1,7.5,0c2.2-0.1,3.3,0.5,3.3,3c0,2.6-1.2,2.9-3.3,2.9c-5.1-0.1-10.3,0-15.4,0
		c-1.9,0-3.2-0.2-3.1-2.6c0-2.2,0.7-3.4,3.1-3.3C495.1,444.1,497.8,444,500.4,444z"/>
</g>
</svg>
