<?xml version="1.0" encoding="utf-8"?>
<!-- Generator: Adobe Illustrator 19.0.0, SVG Export Plug-In . SVG Version: 6.00 Build 0)  -->
<svg version="1.1" id="Calque_1" xmlns="http://www.w3.org/2000/svg" xmlns:xlink="http://www.w3.org/1999/xlink" x="0px" y="0px"
	 viewBox="0 0 612 792" style="enable-background:new 0 0 612 792;" xml:space="preserve">
<style type="text/css">
	.st0{fill:#CFE6F7;}
	.st1{fill:#FDCF6B;}
	.st2{fill:#25B899;}
	.st3{fill:#DF6F5C;}
</style>
<g>
	<path class="st0" d="M226.5,694c7.5-4.4,15.7-6.9,23.8-10c15.8-6.1,30.9-13,42.2-26.3c11.6-13.6,18.7-29.2,18.9-47
		c0.5-33,0.3-66,0.4-98.9c1.1-0.9,2.4-1.2,3.7-1.2c8.9-0.2,17.9-0.2,26.8,0c1.5,0,3,0.3,4.2,1.3c0,31.4,0.1,62.9,0.1,94.3
		c0,33,20.3,62.2,51.1,73.8c10.7,4,21.3,8.4,31.9,12.7c0.7,0.3,1.3,0.9,2,1.4C363.1,694,294.8,694,226.5,694z"/>
	<path class="st1" d="M175,334.1c-17.4,14.9-46.2,17-66.8,4.7c-16.8-10-27-24.6-29.9-44.1c-0.1-0.6-0.6-1.2-0.8-1.7
		c0-4.7,0-9.3,0-14c1.9-6.1,2.8-12.5,5.7-18.4c11.1-22.3,29.2-34.7,53.7-35.2c37.3-0.8,62.8,29.9,61.7,60.6
		c-1.9,1.9-4.4,1.4-6.6,1.4c-17.5,0.1-35,0-52.5,0c-1.8,0-3.7-0.4-5.4,0.5c-0.3,1.5,0.8,2.1,1.6,2.9c11.4,10.8,21.4,22.9,32.6,33.8
		C171.1,327.2,174.3,329.9,175,334.1z"/>
	<path class="st0" d="M175,334.1c-14.8-15.7-29.5-31.4-45.3-48.2c23.8,0,46.3,0,68.9,0c63.9,0,127.7,0,191.6,0
		c1.4,1.8,0.2,3.5-0.4,5.1c-11.9,33.5-24.1,66.8-36,100.3c-0.7,2-1.4,4.1-3,5.7c-1.9,1.1-3.5,0.1-5.2-0.6
		c-6.5-2.9-11.9-7.2-16.4-12.8c-6.3-7.8-13.7-14-23.7-16.6c-16.4-4.4-30.5,0.6-43.4,10.5c-7.5,5.8-13.9,13-22.8,16.8
		c-1.7,0.7-3.2,1.8-5.2,1.6c-1.5-1.7-3-3.5-4.6-5.2c-13.1-13.5-26.4-26.8-39.2-40.5C185.4,344.8,180.3,339.4,175,334.1z"/>
	<path class="st2" d="M234.3,396c11.3-5.4,20.2-14.3,30.1-21.6c18.2-13.4,39.7-13.5,56.5-1.2c3.2,2.4,6.1,5.2,8.4,8.4
		c5.3,7.5,12.3,12.5,20.9,15.3c1.4,2.4-0.1,4.5-0.8,6.6c-3.1,8.5-6.2,16.9-9,25.4c-1.9,5.8-0.6,9.7,3.8,11.2
		c4.3,1.5,8.1-0.8,10.1-6.5c3.6-10,7.2-20.1,10.8-30.1c0.7-2,1.1-4.3,3.2-5.5c6-2,12.3-2.7,18.2-5.1c8.1-3.4,15.2-8.1,21.6-14
		c11.2-10.4,24.8-15.1,39.8-16.2c1.9-0.1,4.7-1.2,5.5,2.1c-26.7,28-53.1,56.1-80,83.8c-17.2,17.7-26.4,38.4-26.9,63
		c-11.6,0-23.1-0.1-34.7-0.1c-0.3-25.1-10.1-46-27.6-63.7C267.2,430.9,250.9,413.4,234.3,396z"/>
	<path class="st0" d="M453.3,364.9c-12-1.9-22.8,1.7-33.3,7c-6.3,3.2-11.1,8.3-16.6,12.6c-10.3,8.1-21.9,12.9-34.9,14.2
		c-1.5-2.2-0.1-4.2,0.5-6.1c8.2-23.2,16.6-46.3,24.9-69.4c4-11.1,8-22.2,12-33.3c0.7-1.9,0.6-4.4,3.4-4.9c1.7,1.6,3.8,0.9,5.7,0.9
		c35.6,0.1,71.2,0,106.8,0.1c1.8,0,3.6,0,5.4,0c0.6,1.2-0.1,1.7-0.7,2.3c-7.8,8.2-15.6,16.3-23.4,24.5
		C486.6,330.2,470,347.5,453.3,364.9z"/>
	<path class="st3" d="M409.4,285.1c-6.4,17.6-12.9,35.1-19.3,52.8c-7.3,20.3-14.4,40.6-21.6,60.9c-4.5,12.3-9.1,24.6-13.6,36.9
		c-1.5,4.1-4.2,6.7-9,6.5c-4.3-0.2-6.6-2.7-8-6.4c-0.9-2.4,0.2-4.6,0.9-6.8c3.7-10.7,7.5-21.3,11.3-32c8.7-24,17.4-48,26.1-72.1
		c4.7-13,9.3-25.9,13.9-38.9c8.4-23.3,16.9-46.6,25.3-69.9c1.4-4,3.5-6.9,7.9-8.2c28-8.3,56.1-16.7,84.1-25.1c6-1.8,10.7,0.4,12,5.3
		c1.4,5.2-1.1,9.3-7.2,11.1c-25.9,7.9-51.8,15.7-77.8,23.5c-1.8,0.5-3.4,0.9-4.1,3C423.4,245.6,416.4,265.3,409.4,285.1z"/>
</g>
</svg>
