<?xml version="1.0" encoding="utf-8"?>
<!-- Generator: Adobe Illustrator 19.0.0, SVG Export Plug-In . SVG Version: 6.00 Build 0)  -->
<svg version="1.1" id="Calque_1" xmlns="http://www.w3.org/2000/svg" xmlns:xlink="http://www.w3.org/1999/xlink" x="0px" y="0px"
	 viewBox="0 0 612 792" style="enable-background:new 0 0 612 792;" xml:space="preserve">
<g>
	<path d="M310,114c0,14,0,27.9,0,42.5c6.8,0,13.6,0,20.9,0c0,21.6,0,42.7,0,64.3c18,0,35.4,0,53.3,0c0,35.6,0,70.7,0,106.3
		c14.4,0,28.3,0,42.5,0c0,7.3,0,14.1,0,21.4c-6.6,0-13.3,0-20.5,0c0,85.7,0,170.9,0,256.6c6.7,0,13.5,0,20.8,0c0,7.3,0,14.1,0,20.9
		c-85.3,0-170.7,0-256,0c0-6.7,0-13.3,0-20.5c7,0,13.7,0,20.8,0c0-85.7,0-170.9,0-256.6c-6.8,0-13.5,0-20.5,0c0-7.3,0-14.1,0-21.4
		c13.9,0,27.8,0,42.2,0c0-35.7,0-70.7,0-106.5c18,0,35.5,0,53.5,0c0-21.6,0-42.5,0-64.1c7.1,0,13.9,0,21.1,0c0-14.7,0-28.8,0-42.8
		C295.3,114,302.7,114,310,114z M383.9,604.5c0-85.3,0-170.3,0-255.4c-56.8,0-113.4,0-169.9,0c0,85.3,0,170.2,0,255.3
		c17.7,0,35.1,0,53.1,0c0-21.4,0-42.4,0-63.4c21.5,0,42.5,0,64,0c0,21.3,0,42.4,0,63.4C349.1,604.5,366.3,604.5,383.9,604.5z
		 M235.2,326.9c42.8,0,85.1,0,127.5,0c0-28.4,0-56.5,0-84.5c-42.7,0-85,0-127.5,0C235.2,270.6,235.2,298.5,235.2,326.9z
		 M288.5,220.7c5.9,0,11.5-0.2,17.1,0.1c3.4,0.1,4.2-1.2,4.2-4.4c-0.2-8.5-0.1-16.9-0.1-25.4c0-4.3,0-8.5,0-12.8
		c-7.5,0-14.2,0-21.2,0C288.5,192.4,288.5,206.3,288.5,220.7z M288.5,604.5c7.2,0,13.9,0,20.8,0c0-14.3,0-28.2,0-42.2
		c-7.2,0-13.9,0-20.8,0C288.5,576.4,288.5,590.1,288.5,604.5z"/>
	<path d="M309.7,476.6c-7.4,0-14,0-21.1,0c0-6.9,0-13.7,0-21.2c6.3,0,12.7-0.1,19.1,0.1c0.7,0,1.9,1.5,1.9,2.3
		C309.8,463.8,309.7,469.9,309.7,476.6z"/>
	<path d="M288.5,390.8c0-7,0-13.6,0-20.5c7,0,13.7,0,20.9,0c0,6.6,0,13.3,0,20.5C302.5,390.8,295.7,390.8,288.5,390.8z"/>
	<path d="M309.4,413.2c0,6.8,0,13.5,0,20.5c-7,0-13.7,0-20.8,0c0-6.7,0-13.4,0-20.5C295.4,413.2,302.3,413.2,309.4,413.2z"/>
	<path d="M246,455.5c7.1,0,13.6,0,20.6,0c0,7,0,13.8,0,21c-6.8,0-13.5,0-20.6,0C246,469.5,246,462.8,246,455.5z"/>
	<path d="M331.3,476.4c0-7.1,0-13.9,0-20.9c7,0,13.7,0,20.7,0c0,7,0,13.8,0,20.9C345.1,476.4,338.4,476.4,331.3,476.4z"/>
	<path d="M309.5,498.3c0,7,0,13.5,0,20.6c-7,0-13.8,0-21,0c0-6.9,0-13.6,0-20.6C295.5,498.3,302.2,498.3,309.5,498.3z"/>
	<path d="M266.6,391c-6.9,0-13.6,0-20.6,0c0-6.9,0-13.7,0-20.7c6.8,0,13.5,0,20.6,0C266.6,377.1,266.6,383.9,266.6,391z"/>
	<path d="M352,391c-7,0-13.6,0-20.6,0c0-6.7,0-13.4,0-20.6c6.6,0,13.5,0,20.6,0C352,377.1,352,383.8,352,391z"/>
	<path d="M245.9,433.6c0-7,0-13.6,0-20.5c6.9,0,13.6,0,20.7,0c0,6.7,0,13.4,0,20.5C260,433.6,253.1,433.6,245.9,433.6z"/>
	<path d="M331.4,413c6.9,0,13.5,0,20.5,0c0,6.9,0,13.6,0,20.7c-6.6,0-13.4,0-20.5,0C331.4,427,331.4,420.3,331.4,413z"/>
	<path d="M266.7,519.1c-7,0-13.6,0-20.6,0c0-6.9,0-13.6,0-20.7c6.7,0,13.5,0,20.6,0C266.7,505.2,266.7,511.9,266.7,519.1z"/>
	<path d="M331.4,498.3c6.9,0,13.6,0,20.6,0c0,6.9,0,13.5,0,20.6c-6.7,0-13.5,0-20.6,0C331.4,512.3,331.4,505.6,331.4,498.3z"/>
	<path d="M287.8,305.8c-6.7,0-13.4,0-20.4,0c0-13.9,0-28,0-42.3c6.7,0,13.3,0,20.4,0C287.8,277.4,287.8,291.3,287.8,305.8z"/>
	<path d="M310,305.7c0-14.3,0-28.1,0-42.2c7,0,13.7,0,20.8,0c0,14.1,0,28,0,42.2C323.8,305.7,317.1,305.7,310,305.7z"/>
</g>
</svg>
