<?xml version="1.0" encoding="utf-8"?>
<!-- Generator: Adobe Illustrator 19.0.0, SVG Export Plug-In . SVG Version: 6.00 Build 0)  -->
<svg version="1.1" id="Calque_1" xmlns="http://www.w3.org/2000/svg" xmlns:xlink="http://www.w3.org/1999/xlink" x="0px" y="0px"
	 viewBox="0 0 612 792" style="enable-background:new 0 0 612 792;" xml:space="preserve">
<style type="text/css">
	.st0{fill:#5FCBD3;}
	.st1{fill:#03ABB8;}
	.st2{fill:#FBFBFB;}
	.st3{fill:#FDFDFD;}
	.st4{fill:#FCFDFD;}
	.st5{fill:#40C0CA;}
	.st6{fill:#40C0C9;}
	.st7{fill:#0DB1BD;}
	.st8{fill:#07AFBC;}
	.st9{fill:#02AEBA;}
	.st10{fill:#01ADBA;}
	.st11{fill:#03AEBB;}
	.st12{fill:#02ADBA;}
	.st13{fill:#03AEBA;}
	.st14{fill:#04AEBB;}
	.st15{fill:#05AEBB;}
	.st16{fill:#04AEBA;}
	.st17{fill:#0CB1BD;}
	.st18{fill:#14B3BF;}
	.st19{fill:#06AFBB;}
	.st20{fill:#0CB0BD;}
	.st21{fill:#15B2BE;}
	.st22{fill:#07AFBB;}
	.st23{fill:#0DB0BC;}
	.st24{fill:#03ACB8;}
	.st25{fill:#04ADBA;}
	.st26{fill:#05ACB8;}
	.st27{fill:#02ADB9;}
	.st28{fill:#04ADB9;}
	.st29{fill:#02ACB9;}
	.st30{fill:#03ACB9;}
	.st31{fill:#03ADBA;}
	.st32{fill:#06AEBA;}
	.st33{fill:#06ADB9;}
	.st34{fill:#05ADBA;}
	.st35{fill:#06AEBB;}
	.st36{fill:#08AEBB;}
	.st37{fill:#09ADBA;}
	.st38{fill:#08ADB9;}
	.st39{fill:#08AFBB;}
	.st40{fill:#14B3BE;}
	.st41{fill:#04ACB8;}
	.st42{fill:#06ACB8;}
	.st43{fill:#05AEBA;}
	.st44{fill:#01ADB9;}
	.st45{fill:#0DAFBB;}
	.st46{fill:#14B2BE;}
</style>
<g>
	<path class="st0" d="M26.7,436.9l-0.4,0.1l-0.4-0.2c0-3.3,0-6.7,0-10C27.2,430,27.2,433.4,26.7,436.9z"/>
	<circle class="st1" cx="281.9" cy="417.7" r="269"/>
	<path class="st1" d="M300.9,161.7c0.1,0.3,0.1,0.6,0.2,0.8c-3.4,0.4-6.9,0.5-10.2-0.8C294.2,161.7,297.6,161.7,300.9,161.7z"/>
	<path class="st1" d="M262.7,162.5c0.1-0.3,0.1-0.6,0.2-0.8c3.3,0,6.7,0,10,0C269.6,163,266.2,162.9,262.7,162.5z"/>
	<path class="st1" d="M25.9,398.7c0.2-0.2,0.5-0.3,0.8-0.2c0.4,3.4,0.5,6.9-0.8,10.2C25.9,405.3,25.9,402,25.9,398.7z"/>
	<path class="st1" d="M301.1,672.8c-0.1,0.3-0.1,0.6-0.2,0.8c-3.3,0-6.7,0-10,0C294.2,672.3,297.6,672.4,301.1,672.8z"/>
	<path class="st2" d="M324.8,498.6c-28.6,0-57.2,0-85.8,0c-1.9-1.4-1.6-3.5-1.6-5.5c0-44,0-88,0-132c0-1.8,0.5-3.6,0.5-5.4
		c-4.8-0.1-9.6-0.3-14.5-0.2c-2.6,0-3.5-0.8-3.5-3.4c0.1-12.8,0.2-25.6,0-38.4c-0.1-4.2,2.5-3.5,4.9-3.5c23.1,0,46.3,0,69.4,0
		c15.1,0,30.3,0.1,45.4-0.1c3.4,0,4.6,0.7,4.6,4.4c-0.2,12.1-0.2,24.3,0,36.4c0.1,3.9-1.3,4.8-4.9,4.6c-4.5-0.2-9,0.1-13.5,0.1
		c0.2,2.3,0.5,4.6,0.5,6.9c0,43,0,86-0.1,129C326.4,494,327.1,496.7,324.8,498.6z"/>
	<path class="st3" d="M236.7,507.6c-7.7,0-15.3-0.1-23,0.1c-3.2,0.1-3.9-1-3.9-4c0.2-8,0-16,0.1-24c0.1-3-0.6-4.1-3.8-4
		c-11.3,0.2-22.6,0.2-34,0c-3.2,0-4.4,0.8-4.3,4.2c0.2,7.8-0.1,15.7,0.2,23.5c0.1,3.6-1.1,4.5-4.5,4.4c-5-0.3-10-0.3-15,0
		c-3.7,0.2-4.7-0.9-4.7-4.7c0.2-25.5,0.1-50.9,0.1-76.4c0-21.8,0.1-43.6-0.1-65.4c0-3.5,0.9-4.5,4.4-4.5c29.5,0.1,58.9,0.1,88.4,0.1
		c1.6,1.4,1.2,3.4,1.2,5.1c0,44.3,0.1,88.6-0.1,132.9C237.8,499.1,238,503.4,236.7,507.6z"/>
	<path class="st3" d="M327.1,356.8c29.3,0,58.6,0,87.9-0.1c3.6,0,4.8,0.8,4.8,4.7c-0.1,47.1-0.1,94.3,0,141.4c0,4.1-1.2,5.1-5.1,4.9
		c-5.1-0.3-10.3-0.3-15.5,0c-2.9,0.1-3.7-1-3.6-3.7c0.1-8-0.1-16,0.1-24c0.1-3.3-0.9-4.3-4.2-4.3c-11.3,0.2-22.7,0.2-34,0
		c-3.2-0.1-3.9,1-3.9,4c0.2,7.8-0.1,15.7,0.1,23.5c0.1,3.4-0.8,4.7-4.4,4.5c-7.5-0.3-15-0.1-22.5-0.1c-1.3-4.3-1.1-8.9-1.1-13.3
		c-0.1-44-0.1-87.9-0.1-131.9C325.9,360.6,325.3,358.4,327.1,356.8z"/>
	<path class="st4" d="M281.9,525.2c-51.2,0-102.3,0-153.5,0c-7.8,0-6.4,0.4-6.5-6.3c-0.1-8,0-8,7.8-8c102.3,0,204.6,0.1,307-0.1
		c4.7,0,5.5,1.4,5.3,5.6c-0.3,8.8-0.1,8.8-8.6,8.8C382.9,525.2,332.4,525.2,281.9,525.2z"/>
	<path class="st5" d="M236.7,507.6c0.1-31.1,0.2-62.2,0.2-93.4c0-19.1-0.1-38.3-0.2-57.4c0.4-0.4,0.8-0.8,1.2-1.2
		c1.9,1.6,1,3.7,1,5.6c0.1,45.8,0.1,91.6,0.2,137.4C236.7,501.2,239.3,505.1,236.7,507.6z"/>
	<path class="st6" d="M327.1,356.8c-0.1,22.1-0.2,44.3-0.2,66.4c0,28.1,0.1,56.2,0.2,84.4c-2.6-2.5,0.1-6.4-2.3-9
		c0-44.5,0-88.9,0.1-133.4c0-3.2-1-6.5,1-9.5C326.3,356.1,326.7,356.5,327.1,356.8z"/>
	<path class="st7" d="M259.3,426.3c-0.1,3.4,1.3,8-5,6.9c-3.5-0.6-9.3,2.2-8.1-5.3c0.5-3-2.8-8.2,4.4-7.9
		C260.4,420.5,259,419.2,259.3,426.3z"/>
	<path class="st7" d="M317.6,426.6c-0.4,2.7,1.8,7-4.5,6.7c-10.1-0.5-8.5,0.7-8.6-6.8c-0.1-3.1-1.4-6.8,4.4-6.5
		C318.8,420.6,317.4,419.3,317.6,426.6z"/>
	<path class="st8" d="M298.1,428.2c0.1,2,1,5.5-4.9,5.1c-9.7-0.6-8.1,0.5-8.1-6.3c0-3.3-1.6-7.5,4.8-7.1
		C298,420.5,298,420.1,298.1,428.2z"/>
	<path class="st8" d="M272.2,420.2c7.6,0.2,6.1-1.1,6.8,8c0.4,5.9-3,5.1-6.5,5c-6.8-0.1-6.4-0.1-6.9-8.6
		C265.3,418.3,269.6,420.6,272.2,420.2z"/>
	<path class="st9" d="M336.9,324.9c-0.3,3.1,1.7,7.1-4.5,6.7c-9.9-0.6-8.2,1-8.5-6.3c-0.1-3.7-1.1-7.5,5.3-7
		C336.8,318.9,336.9,318.4,336.9,324.9z"/>
	<path class="st10" d="M239.9,342.1c-0.3,3,1.8,7.1-4.5,6.7c-8.5-0.5-8.5-0.1-8.5-6.3c0-3.6-1.1-7.6,5.3-7
		C239.8,336.2,239.9,335.7,239.9,342.1z"/>
	<path class="st11" d="M259.2,340.8c0,4.7,1.4,8.4-4.7,8c-9.5-0.7-8.2,1.1-8.3-6.6c-0.1-7.7-0.5-6.5,6.3-6.5
		C260.2,335.7,259.1,334.8,259.2,340.8z"/>
	<path class="st12" d="M265.8,341.7c0.2-6.9-1.2-6,7-6c7,0,5.4-1.2,6,8.2c0.5,7.5-4.8,4.1-7.9,4.7
		C264.5,350,265.6,345.5,265.8,341.7z"/>
	<path class="st12" d="M292,348.6c-4.5,0.7-7.7,0.6-7.1-5.7c0.8-8.4-1.1-6.5,7.6-7.3c7.2-0.7,5.1,4,5.6,7.7
		C298.8,348.6,296.2,349.5,292,348.6z"/>
	<path class="st13" d="M317.4,342.3c1.1,4.7-0.1,7.2-5.6,6.5c-3.7-0.5-8,1.2-7.4-5.6c0.8-9.1-0.6-6.8,7.5-7.6
		C317.7,335,318.3,337.8,317.4,342.3z"/>
	<path class="st10" d="M331.5,335.7c2.4-0.1,6.7-1,5.3,5.1c-0.7,3.1,2.9,9-4.6,7.8c-3.2-0.5-8.9,3.3-8.5-4.7
		C324.2,335.8,323.9,335.8,331.5,335.7z"/>
	<path class="st11" d="M272.3,369.8c-6.6,0-6.1,0-6.8-7.5c-0.5-6.2,2.9-5.7,6.8-5.6c7.6,0.3,5.8-1.2,6.5,8.3
		C279.3,371.1,275.6,369.8,272.3,369.8z"/>
	<path class="st11" d="M298,362.8c0,4.1,1.2,7.7-4.8,7.2c-8.2-0.6-8.2-0.1-8.2-6.1c0-7.1,0-7.1,6.1-7.1
		C299.3,356.9,297.8,356,298,362.8z"/>
	<path class="st14" d="M278.8,384.4c0,3.4,1.2,7-4.8,6.6c-8.2-0.5-8.1-0.1-8.3-7.1c-0.1-3.9,0-6.6,5.3-6.2
		C280,378.4,278.6,377,278.8,384.4z"/>
	<path class="st14" d="M298,384.6c-0.2,2.9,1.6,6.8-4.4,6.4c-10.2-0.6-8.3,1-8.7-6.8c-0.2-4.1-0.1-6.9,5.5-6.5
		C299.4,378.4,297.8,377,298,384.6z"/>
	<path class="st15" d="M291.8,412c-7.7-0.2-6.3,1.3-6.9-8.3c-0.4-6,3.3-4.9,6.7-4.8c7.5,0.2,6.1-1.5,6.6,8.8
		C298.5,413.8,294.4,411.6,291.8,412z"/>
	<path class="st9" d="M226.9,325c0.2-3.1-1.6-7,4.6-6.7c8.4,0.5,8.4,0.1,8.4,6.8c0,3.3,1.1,6.9-4.8,6.5
		C225.3,330.9,227.1,332.4,226.9,325z"/>
	<path class="st15" d="M271.3,462.5c7.5,0,7.6,0,7.5,6.3c-0.1,7.5,1.1,6.7-7.1,6.7c-7,0-5.3,0.8-6-7.9
		C265.2,461.5,268.6,462.2,271.3,462.5z"/>
	<path class="st14" d="M298,468.9c0,6.6,0,6.7-6.2,6.6c-8.2-0.1-6.3,0.8-6.9-8c-0.4-5.2,2.1-5.2,5.8-5.1
		C298,462.6,298,462.5,298,468.9z"/>
	<path class="st14" d="M278.8,324.9c0,3.4,1.2,7.1-4.8,6.7c-9.7-0.6-8,1-8.3-7.2c-0.1-3.4-0.7-6.5,4.8-6.1
		C280.3,318.9,278.5,317.5,278.8,324.9z"/>
	<path class="st16" d="M278.8,490.3c-0.2,7.1,1.4,5.9-8.2,6.4c-7.9,0.4-4.3-5.3-4.8-8.5c-1.1-7.6,5-3.9,8-4.5
		C280.2,482.3,278.6,487.1,278.8,490.3z"/>
	<path class="st16" d="M285.2,489.9c-1.1-4.7,0.1-7.2,5.6-6.4c3.7,0.5,8-1.3,7.3,5.6c-0.9,8.8,0.9,6.9-7.5,7.6
		C285,497.2,284.2,494.5,285.2,489.9z"/>
	<path class="st14" d="M291.5,318.4c7.5,0.3,6.1-1.5,6.6,8.6c0.3,7.3-4.9,3.8-7.9,4.3c-7.6,1.3-4.6-4.7-5.2-8.1
		C283.8,316.9,288.6,318.7,291.5,318.4z"/>
	<path class="st14" d="M312.3,369.8c-8.3-0.2-7.7,1.5-7.8-6.8c-0.1-6.3,0-6.3,7-6.3c7,0.1,5.5-0.7,6.1,7.8
		C318.1,370.5,314.9,370.1,312.3,369.8z"/>
	<path class="st15" d="M246.2,362.4c-0.6-3.4,0-6.1,5.5-5.7c8.9,0.6,7.4-0.9,7.6,7.4c0.1,3,1,6.2-4.4,5.9
		C246.2,369.5,246.2,369.9,246.2,362.4z"/>
	<path class="st17" d="M317.6,326.8c0.1,1.8,0.9,5.1-4.7,4.8c-9.4-0.6-8.1,1.1-8.5-7.1c-0.2-3.8-0.2-6.6,5.2-6.3
		C318.9,318.9,317.4,317.6,317.6,326.8z"/>
	<path class="st18" d="M259.3,447.6c0,6.8,0,6.8-6.2,6.8c-7,0-6.9,0-7-7c-0.1-3.7-0.4-6.7,5.2-6.3
		C260.3,441.8,259.1,440.3,259.3,447.6z"/>
	<path class="st15" d="M265.8,449.2c0-4.7-1.4-8.4,4.7-8c9.4,0.6,8-0.9,8.3,6.6c0.2,4.4-0.1,7.1-5.9,6.7
		C264.4,453.9,266,454.9,265.8,449.2z"/>
	<path class="st14" d="M291.7,441.3c7.2,0.2,5.8-1.4,6.5,7.8c0.5,6.1-3.2,5.3-6.8,5.2c-7.6-0.2-5.9,1-6.5-8.4
		C284.5,439.7,288.5,441.6,291.7,441.3z"/>
	<path class="st18" d="M304.5,447.6c0.2-3-1.5-6.8,4.4-6.5c9.8,0.6,8.4-0.9,8.8,6.8c0.2,4.1,0,7-5.6,6.6
		C303.5,454,304.6,455.2,304.5,447.6z"/>
	<path class="st19" d="M259.2,325.1c0.2,3.5,0.9,6.9-4.9,6.6c-9.2-0.6-8,0.9-8.1-6.8c0-3.1-1.4-6.8,4.4-6.5
		C260.8,318.9,259,317.4,259.2,325.1z"/>
	<path class="st20" d="M312.6,391c-8.8-0.2-7.5,1.4-8.2-7.5c-0.5-6.2,3-5.7,7-5.6c7.3,0.2,5.8-0.8,6.4,8.1
		C318.1,391.7,314.9,391.2,312.6,391z"/>
	<path class="st19" d="M253,377.9c7.2,0.2,5.9-1.2,6.4,8.5c0.4,6.7-4.3,4.3-7.3,4.4c-6,0.2-6,0-5.9-8.4
		C246.2,377.8,246.2,377.8,253,377.9z"/>
	<path class="st20" d="M251.6,475.5c-4,0.9-6.2-0.8-5.5-6.1c0.5-3.5-1.3-7.7,5.3-7.2c8.6,0.7,7.8-1,7.8,6.1
		C259.3,476.7,259.8,475.3,251.6,475.5z"/>
	<path class="st19" d="M317.6,469.8c0.7,3.6-0.1,6.2-5.8,5.8c-8.3-0.6-7.2,0.5-7.3-6.6c0-3.2-1.5-7.1,4.6-6.6
		C318.5,462.9,317.4,461.3,317.6,469.8z"/>
	<path class="st18" d="M317.7,407.3c0.1,1.9,0.9,5.2-4.7,4.9c-9.9-0.6-8.1,1-8.5-7c-0.2-3.8-0.4-6.8,5.2-6.4
		C318.9,399.4,317.4,398.2,317.7,407.3z"/>
	<path class="st15" d="M251.6,496.6c-3.2,0.6-6.3,0.1-5.4-5.5c0.6-3.4-1.9-8.8,5.2-7.6c3.2,0.6,8.4-2.6,8,4.8
		C258.8,498.3,259.9,496.3,251.6,496.6z"/>
	<path class="st15" d="M272.5,399c7.2,0.2,5.9-1.2,6.4,8.5c0.3,6.3-3.8,4.5-6.9,4.4c-7.3-0.1-5.8,1.6-6.4-8.4
		C265.3,397.2,269.4,399.3,272.5,399z"/>
	<path class="st18" d="M252.5,412.1c-7.3-0.2-6,1-6.5-8.5c-0.4-6.7,4.3-4.4,7.4-4.5c6-0.2,5.6,0,6,8.5
		C259.7,413.7,255.6,411.8,252.5,412.1z"/>
	<path class="st15" d="M309.9,483.5c8.1,0.2,7.7-1.3,7.6,6.6c0,7.4,0.9,6.4-7.4,6.4c-6.5,0-5.1,0.7-5.7-7.7
		C304,483.2,306.9,483.1,309.9,483.5z"/>
	<path class="st21" d="M229.3,422.8c-0.1,7.4,1.1,6-8.5,6.5c-7.2,0.4-4.3-4.8-4.5-7.8c-0.3-5.5-0.1-5.5,7.9-5.4
		C229.3,416.2,229.3,416.2,229.3,422.8z"/>
	<path class="st22" d="M157,416.1c8.7,0.2,8-1.1,8,6.7c0,6.9,1.4,6.3-6.8,6.4c-6.2,0.1-5.8,0-6.4-7.9
		C151.3,415.2,154.8,416,157,416.1z"/>
	<path class="st23" d="M213.1,422.9c-0.1,7,0.9,6.2-7,6.4c-3.8,0.1-6.6,0.2-6.2-5.3c0.6-7.8,0.2-7.8,8.2-7.8
		C213.1,416.1,213.1,416.1,213.1,422.9z"/>
	<path class="st22" d="M183.9,423.5c0.3-7.7-1.7-7.4,7.6-7.4c6.6,0,5-0.8,5.6,8.3c0.5,7.1-4.5,4.2-7.6,4.8
		C183.6,430.3,183.4,426.7,183.9,423.5z"/>
	<path class="st8" d="M181,423c0,3.1,1.2,6.7-4.5,6.4c-10.2-0.6-8.3,0.8-8.5-7c-0.1-3.2-1.1-6.7,4.6-6.4
		C182.8,416.6,180.8,415.3,181,423z"/>
	<path class="st12" d="M159.7,366.7c2.8-0.4,6.4-0.6,5.3,5c-0.7,3.3,2.6,9.3-5.1,8c-3.1-0.5-8.4,2.9-8-4.7
		C152.3,366.8,151.9,366.8,159.7,366.7z"/>
	<path class="st24" d="M181,372.1c0,7.6-0.1,7.1-7.3,7.7c-6,0.6-5.8-2.5-5.7-6.7c0.2-6.5,0.1-6.1,7.7-6.6
		C181.2,366.2,181.6,368.9,181,372.1z"/>
	<path class="st25" d="M197,373.2c0,6.6,0,6.4-8.6,6.6c-7.7,0.2-3.8-5.4-4.3-8.4c-1.2-7.9,5.1-4,8.3-4.7
		C198.4,365.5,196.9,370.1,197,373.2z"/>
	<path class="st11" d="M208,379.8c-9.1-0.3-7.4,1.2-8-8.2c-0.5-7.5,4.7-4.3,7.9-4.8c7.5-1.3,4.7,4.4,5.3,7.9
		C214.2,380.5,210.4,380.1,208,379.8z"/>
	<path class="st11" d="M229.2,373.4c0,3.3,1.3,6.9-4.7,6.5c-8.2-0.6-8.2-0.1-8.3-7c-0.1-3.6-0.5-6.7,5.1-6.3
		C229.2,367.1,229.2,366.6,229.2,373.4z"/>
	<path class="st26" d="M151.9,390.7c0-7.4,0-7,8-7.5c6.8-0.5,4.9,4,4.9,7.3c0,6.7,0.9,5.4-7.2,6
		C152.1,396.9,151.1,394.5,151.9,390.7z"/>
	<path class="st27" d="M157.2,412.7c-3.2,0.6-6.3,0.2-5.3-5.1c0.6-3.4-2.3-9.3,5.3-7.8c2.9,0.6,8.1-3,7.9,4.3
		C164.7,412.6,165,412.7,157.2,412.7z"/>
	<path class="st12" d="M176.7,399.5c5.3-1.6,4.5,3,4.4,7c-0.3,7.1,1.4,6.1-7.5,6.1c-6.6,0-5,1.2-5.7-8.1
		C167.4,397.6,172,400.1,176.7,399.5z"/>
	<path class="st10" d="M197,406.1c-0.2,3.1,1.6,7.1-4.5,6.7c-8.4-0.5-8.5-0.1-8.5-6.8c0-3.3-1.1-6.9,4.9-6.5
		C197,400.1,197,399.6,197,406.1z"/>
	<path class="st12" d="M213.1,407.2c1,3.9-0.2,6.4-5.8,5.6c-3.6-0.5-8,1.4-7.4-5.5c0.7-7.6,0.2-7.7,8.2-7.6
		C213.7,399.7,213.1,398.7,213.1,407.2z"/>
	<path class="st28" d="M229.2,405.2c0,7.5,0,7.4-7,7.6c-3.8,0.1-6.5,0.2-6.2-5.2c0.6-7.8,0.2-7.4,7.9-8
		C229.8,399.1,229.6,402.2,229.2,405.2z"/>
	<path class="st10" d="M158.2,445.7c-6.4,0-6.1,0-6.4-8.6c-0.3-7.3,4.9-3.8,7.9-4.3c8-1.4,4.6,4.9,5.2,8.3
		C166.1,447.7,161,445.3,158.2,445.7z"/>
	<path class="st12" d="M174.4,432.7c3.7-0.3,7.9-0.9,6.5,5c-0.7,3.1,2.9,8.4-4.6,8c-9.6-0.5-8.3,0.9-8.3-5.4
		C168,431.1,167.1,433,174.4,432.7z"/>
	<path class="st29" d="M197,438.9c0,6.8,0,6.7-6.8,6.8c-3.6,0-6.8,0.7-6.3-5c0.6-8,0.2-7.5,8.3-8.2C198.8,432,196.7,436.3,197,438.9
		z"/>
	<path class="st30" d="M213.1,439c0,6.7,0,6.4-8.4,6.7c-7.6,0.3-4-5.2-4.5-8.2c-1.2-7.8,4.9-4.1,8.2-4.9
		C214.3,431.4,213,435.8,213.1,439z"/>
	<path class="st31" d="M221.8,445.7c-3,0.4-6.7,0.6-5.5-5.2c0.6-3.1-2.7-8.4,4.8-7.9c9.3,0.6,8.1-1,8.2,5.5
		C229.4,445.7,229.3,445.7,221.8,445.7z"/>
	<path class="st13" d="M158.5,462c-7.4-0.1-6.6,0.9-6.6-6.2c0.1-7.5-1.4-6.8,7-6.8c7.2,0,5.9-0.9,6,7.7C165,462,164.9,462,158.5,462
		z"/>
	<path class="st32" d="M175.9,449c2.3-0.2,6.2-0.8,5.1,4.9c-0.6,3.3,2.6,9.3-5.1,8.1c-3.2-0.5-8.5,2.7-8-4.8
		C168.5,448,166.8,449.2,175.9,449z"/>
	<path class="st33" d="M189.4,462c-2.8,0.4-6,0.6-5.5-5.3c0.6-8.5-0.8-7.8,5.7-7.7c3.1,0.1,8.1-2.4,7.6,4.7
		C196.5,463.3,198.2,461.8,189.4,462z"/>
	<path class="st18" d="M229.3,390.2c0,6.3,0,6-6.6,6.3c-4.5,0.2-7.2-0.3-6.7-6c0.7-8-1.1-7.1,7.8-7.2
		C229.3,383.2,229.3,383.2,229.3,390.2z"/>
	<path class="st20" d="M213.1,390.1c-0.1,3.1,1.2,6.7-4.5,6.4c-9.9-0.6-8.3,0.9-8.6-7c-0.1-3.7-0.5-6.8,5.1-6.4
		C214.7,383.8,212.9,382.4,213.1,390.1z"/>
	<path class="st14" d="M197.1,390c0,6.4,0,6.5-6.4,6.4c-8.1-0.1-6.2,0.6-6.7-7.7c-0.3-4.6,1.2-5.6,5.5-5.4
		C198.2,383.7,196.8,382.2,197.1,390z"/>
	<path class="st34" d="M174.1,383.3c3.9,0.1,7.5-1.1,7.1,4.9c-0.6,8.1-0.2,7.8-8.3,8.3c-6.4,0.4-4.8-3.8-4.8-7.1
		C168,382.7,167,383.4,174.1,383.3z"/>
	<path class="st35" d="M213.2,454.3c-0.3,8.5,1.4,7.6-7.6,7.7c-5.5,0.1-5,0-5.6-7.9c-0.5-7.2,4.3-4.7,7.7-5.2
		C213.2,448.1,213.7,451.2,213.2,454.3z"/>
	<path class="st18" d="M229.3,457c0.3,2.6,0.5,5.5-4.8,5.2c-9.7-0.6-8.1,0.7-8.4-7.2c-0.1-3.4-0.6-6.6,4.8-6.2
		C230.5,449.4,229.1,447.9,229.3,457z"/>
	<path class="st36" d="M395.8,454.9c-0.2,8.2,1.4,6.9-8.4,7.4c-7.6,0.4-4-5.2-4.5-8.2c-1.3-6.9,4.1-4.4,7.3-4.9
		C395.9,448.2,396.6,451.3,395.8,454.9z"/>
	<path class="st37" d="M379.8,454.6c-0.2,8.3,1.2,7.4-7.3,7.7c-3.8,0.1-6.2,0-5.8-5.1c0.5-7.9,0.2-7.5,7.9-8.1
		C380.5,448.6,380.1,451.9,379.8,454.6z"/>
	<path class="st7" d="M347.6,457.5c0.1,1.9,0.8,5.1-4.7,4.8c-9.8-0.6-8.1,0.9-8.5-7c-0.2-3.8-0.3-6.7,5.2-6.3
		C348.9,449.6,347.4,448.3,347.6,457.5z"/>
	<path class="st38" d="M411.9,421.7c0,7.5,0,7-7.6,7.6c-5.6,0.4-5.6-2.4-5.4-6.4c0.2-6.8,0.1-6.3,8-6.9
		C412.7,415.6,412.2,418.9,411.9,421.7z"/>
	<path class="st8" d="M379.8,422.5c-0.2,3.1,1.6,7.2-4.6,6.8c-10-0.6-8.1,0.9-8.5-7c-0.2-3.7-0.4-6.7,5.1-6.4
		C381.4,416.6,379.6,415.7,379.8,422.5z"/>
	<path class="st39" d="M382.7,424.3c0.3-8.9-1.4-7.7,8-8.3c7.8-0.5,4.6,5,5.1,8.3c1.1,7.4-4.7,4.2-7.9,4.8
		C381.8,430.4,382.5,426.2,382.7,424.3z"/>
	<path class="st18" d="M350.6,421.2c-0.2-2.4-0.7-5.6,5-5.2c9.2,0.6,7.9-0.9,8.2,6.7c0.2,4.3,0,7.2-5.8,6.7
		C349.1,428.8,350.8,429.7,350.6,421.2z"/>
	<path class="st40" d="M347.7,421.3c-0.2,8.8,1.1,7.5-8.3,8.1c-7.4,0.4-4.4-4.8-4.9-8.1c-1.1-7.6,4.7-4.6,8.2-5.2
		C348.4,415.1,347.8,419,347.7,421.3z"/>
	<path class="st20" d="M356.8,462.1c-4.3,1-6.6-0.1-6.2-5.4c0.6-8.5-1.2-7.4,7.4-7.5c5.8-0.1,5.3,0,5.9,7.6
		C364.3,462.8,361,462.7,356.8,462.1z"/>
	<path class="st22" d="M398.8,454.4c-0.9-3.6,0.3-5.7,5.5-5.4c8.7,0.5,7.5-0.7,7.5,6.3c0,7.4,1.6,6.9-6.8,6.9
		C397.4,462.2,399,462.7,398.8,454.4z"/>
	<path class="st13" d="M340.9,379.7c-6.8-0.2-6.3,1.4-6.3-6.4c0-7.9-0.8-6.5,7.2-6.6c6.7,0,5.7-1.2,5.8,7.9
		C347.6,379.7,347.6,379.7,340.9,379.7z"/>
	<path class="st31" d="M357.9,366.7c3.7-0.8,6.6,0,5.8,5.6c-0.5,3.5,1.6,8.7-5.3,7.3c-2.9-0.6-8.1,2.9-7.9-4.3
		C350.9,366.8,350.6,366.8,357.9,366.7z"/>
	<path class="st41" d="M379.8,372.5c0,7.2,0,6.8-8.3,7.4c-7.1,0.5-4.6-4.4-4.6-7.5c-0.1-6.6-1.2-5.1,7.4-5.8
		C380.2,366.2,380.5,369.1,379.8,372.5z"/>
	<path class="st16" d="M382.8,372.5c-0.7-3.5-0.3-6.8,5.5-5.8c3.4,0.6,8.2-1.9,7.6,5.2c-0.6,7.8-0.1,7.9-8,7.8
		C382.8,379.8,382.8,379.8,382.8,372.5z"/>
	<path class="st10" d="M405.3,366.7c6.6,0,6.2,0.1,6.8,8.1c0.4,5.8-2.9,5-6.4,5c-6.9-0.1-6.9-0.1-6.8-8.8
		C398.9,366.7,398.9,366.7,405.3,366.7z"/>
	<path class="st14" d="M405.5,383.3c7.7,0.3,5.9-1.2,6.5,8.4c0.4,7.2-4.6,4.4-7.7,4.5c-5.5,0.3-5,0-5.6-7.8
		C398.3,382.4,401.7,383.1,405.5,383.3z"/>
	<path class="st42" d="M347.6,405.9c-0.2,8,1.2,6.3-7.8,7c-6,0.5-5.2-2.9-5.2-6.6c0.1-6.6,0-6.6,7.6-6.6
		C347.6,399.7,347.6,399.7,347.6,405.9z"/>
	<path class="st43" d="M350.7,405c0.1-6.4-0.9-5,7.1-5.3c3.9-0.2,6.4,0.1,6.1,5.3c-0.5,7.7-0.2,7.3-8.1,7.9
		C349.1,413.4,350.8,409.2,350.7,405z"/>
	<path class="st12" d="M366.8,406.3c0.3-3-1.8-7.1,4.5-6.8c8.5,0.5,8.4,0.1,8.6,6.8c0.1,3.9,0.4,6.9-5.4,6.5
		C366.8,412.4,366.8,412.8,366.8,406.3z"/>
	<path class="st12" d="M388.2,399.7c8.9,0.3,7-1.1,7.7,8.1c0.6,7.4-4.5,4.4-7.8,5c-6.8,1.3-5-3.6-5.5-7.2
		C381.9,400,384.4,398.8,388.2,399.7z"/>
	<path class="st27" d="M405.4,412.6c-4,0.5-7.1,0.8-6.7-5.1c0.6-7.8,0.2-7.3,8-7.9c7.2-0.6,4.7,4.2,5.2,7.6
		C412.9,413,409.5,413.4,405.4,412.6z"/>
	<path class="st13" d="M334.6,439.3c0.4-3-1.9-7.1,4.5-6.8c8.5,0.5,8.3,0.1,8.7,6.7c0.3,5-1.1,6.9-6.4,6.5
		C333.5,445.2,334.7,446.6,334.6,439.3z"/>
	<path class="st9" d="M357,445.7c-6.4,0-6-0.1-6.5-8.3c-0.4-6.5,3.9-4.7,7.1-4.7c7.2,0.1,6-1.5,6.1,8.5
		C363.8,445.7,363.7,445.7,357,445.7z"/>
	<path class="st12" d="M379.6,439.5c1,4.3,0.1,7.1-5.5,6.3c-3.5-0.5-8,1.6-7.5-5.3c0.6-7.7,0.2-7.3,8-7.9
		C380.7,432.1,380.1,435.5,379.6,439.5z"/>
	<path class="st44" d="M404.5,432.7c4.1,0.1,7.9-1.4,7.5,4.7c-0.5,8.3-0.2,7.9-8.5,8.5c-7.2,0.4-4.1-4.5-4.7-7.6
		C397.7,432.5,401,431.9,404.5,432.7z"/>
	<path class="st1" d="M382.8,440.2c0-7.5,0.1-7,7.8-7.7c7.2-0.6,4.7,4.2,5.2,7.6c1.2,7.2-3.9,5.1-7.6,5.6
		C382.2,446.6,382.2,443.1,382.8,440.2z"/>
	<path class="st15" d="M382.8,388.5c-0.5-2.9-0.5-5.7,4.8-5.3c9.5,0.6,7.9-0.9,8.3,6.7c0.2,4,0.3,7-5.4,6.6
		C382.8,396,382.8,396.4,382.8,388.5z"/>
	<path class="st15" d="M366.8,388.6c-1.7-5.9,2.5-5.2,6.8-5.3c4.3-0.1,6.8,0.3,6.3,5.7c-0.7,8.4,1.3,6.9-8,7.6
		C365.3,397,366.9,392.8,366.8,388.6z"/>
	<path class="st45" d="M363.7,389c-0.1,8.3,0.9,6.8-7.9,7.5c-6.8,0.5-5.1-3.8-5.1-7.3c0-6.7-1.1-5.5,7.3-6
		C363.7,382.8,364.5,385.4,363.7,389z"/>
	<path class="st46" d="M347.6,389.7c0,6.7,0,6.8-6.2,6.7c-3.4,0-7.5,1.5-7.1-4.9c0.7-9.6-1.3-8,8.3-8.2
		C347.6,383.2,347.6,383.3,347.6,389.7z"/>
</g>
</svg>
