<?xml version="1.0" encoding="utf-8"?>
<!-- Generator: Adobe Illustrator 19.0.0, SVG Export Plug-In . SVG Version: 6.00 Build 0)  -->
<svg version="1.1" id="Calque_1" xmlns="http://www.w3.org/2000/svg" xmlns:xlink="http://www.w3.org/1999/xlink" x="0px" y="0px"
	 viewBox="0 0 612 792" style="enable-background:new 0 0 612 792;" xml:space="preserve">
<style type="text/css">
	.st0{fill:#FDDB09;}
	.st1{fill:#53C7FA;}
	.st2{fill:#54C8FB;}
	.st3{fill:#F89608;}
	.st4{fill:#FCFCFC;}
</style>
<g>
	<path d="M431,635c-75.7,0-151.3,0-227,0c-3.2-0.8-5.2-2.8-6-6c0-13,0-26,0-39c2.2-6.4,3.6-7.4,10.5-7.6c3.2-0.1,6.3,0,9.5-0.1
		c2.9-0.1,4.2-1.5,4.3-4.3c0.1-1.8,0.1-3.7,0.1-5.5c0-125.9,0.1-251.8-0.1-377.7c0-20.3,0.3-40.6,0.1-60.9
		c-0.1-4.9,0.8-9.4,6.6-10.8c2,0,4,0,6,0c6,1.6,7.3,6.2,7.3,11.5c0.1,11.5,0.2,23-0.1,34.5c-0.1,5,1.7,7.4,6.3,9.2
		c36.7,14.2,67.1,37.2,92.9,66.6c46.7,53.1,73.3,115.4,84.5,184.7c3.4,21.1,4.3,42.4,3.3,63.8c-1.3,27.7-6.3,54.9-12.8,81.8
		c-0.2,0.8-0.4,1.6-0.6,2.4c-0.9,4.5-0.6,5,3.9,5.1c2.5,0.1,5-0.1,7.5,0.1c6.3,0.4,10.5,3.9,10.8,10.2c0.6,10.8,0.6,21.7,0,32.5
		C437.9,630,436.1,633.8,431,635z"/>
	<path class="st0" d="M240.7,195c19.3,7.4,36.7,17,52.4,29.5c52.3,41.6,84.9,95.9,103.8,159.3c11.8,39.7,16.4,80.1,13,121.4
		c-2.1,25.6-8,50.6-13.6,75.6c-0.6,2.7-1.9,3-4.1,3c-5.7-0.1-11.4-0.4-17,0.1c-4.7,0.4-4.7-1.8-4-5.2c3.2-15.5,6.3-30.9,9.4-46.4
		c5.5-28.2,5.7-56.5,2.9-85.1c-3.9-40.1-16-77.7-34-113.5c-7.9-15.8-17.7-30.5-28.3-44.6c-2.1-2.8-5.1-4-8.7-4
		c-11.8,0.1-23.7,0-35.5,0c-7.8,0-10.8,3-10.9,10.9c0,34.3,0,68.7,0,103c0,60,0,120,0.1,180c0,4.1-1.3,5-5.1,4.8
		c-5.1-0.3-10.3-0.3-15.5,0c-3.9,0.3-5-1-5-5c0.2-31,0.1-62,0.1-93c0-95,0-190,0-285C240.7,199.1,240.7,197.3,240.7,195z"/>
	<path class="st0" d="M402,617.8c-38.7,0.1-77.3,0.1-116,0.2c-18,0-36-0.1-54-0.2c-2.5-5.5-2.5-11.1,0-16.6
		c41.2-0.1,82.3-0.1,123.5-0.1c15.5,0,31,0.1,46.5,0.1C404.4,606.7,404.4,612.2,402,617.8z"/>
	<path class="st1" d="M324.9,455.9c-12.5,0-25-0.1-37.5,0.1c-3.6,0.1-4.6-1-4.4-4.5c0.3-6,0.2-12,0-18c-0.1-2.7,0.8-3.4,3.4-3.4
		c24.8,0.1,49.6,0.1,74.4,0.1c2.7,0,3.5,1.1,3.8,3.4c0.7,6.3,1.4,12.6,2.2,18.8c0.4,3-0.9,3.6-3.6,3.6
		C350.6,455.8,337.8,455.9,324.9,455.9z"/>
	<path class="st2" d="M326,472.9c12.7,0,25.3,0.1,38-0.1c3.1,0,4.5,0.6,4.3,4c-0.3,6-0.3,12-0.3,18c0,2.4-0.5,3.6-3.3,3.6
		c-26.2-0.1-52.3-0.1-78.5,0c-2.4,0-3.2-0.8-3.2-3.2c0.1-6.2,0.2-12.3,0-18.5c-0.1-3.2,0.9-3.9,3.9-3.9C300,473,313,472.9,326,472.9
		z"/>
	<path class="st2" d="M324.7,515.6c12.5,0,25,0.1,37.5-0.1c3.1,0,4.1,0.7,3.3,4c-1.4,6.2-2.5,12.4-3.5,18.6c-0.4,2.3-1.4,3-3.6,3
		c-24-0.1-48-0.1-71.9,0c-2.5,0-3.5-0.7-3.4-3.3c0.2-6,0.2-12,0-18c-0.1-3.2,0.8-4.3,4.2-4.3C299.8,515.7,312.2,515.6,324.7,515.6z"
		/>
	<path class="st1" d="M320.5,558.1c10.8,0,21.7,0.3,32.5-0.1c4.6-0.2,5.1,1.2,4.1,5.2c-1.4,5.5-2.3,11.1-3.3,16.6
		c-0.5,2.7-1.5,3.8-4.5,3.8c-20.8-0.1-41.6-0.1-62.4,0c-2.8,0-3.8-0.7-3.7-3.7c0.2-6,0.2-12,0-18c-0.1-3.2,1-3.9,4-3.9
		C298.2,558.2,309.4,558.1,320.5,558.1z"/>
	<path class="st2" d="M321.5,413.1c-11.3,0-22.6-0.1-33.9,0.1c-3.3,0.1-4.7-0.6-4.5-4.3c0.3-5.8,0.2-11.6,0-17.5
		c-0.1-2.6,0.5-3.9,3.5-3.9c21.3,0.1,42.6,0.1,63.9,0c2.1,0,3.4,0.5,4,2.7c1.7,6.6,3.6,13.1,5.5,19.6c0.8,2.9-0.5,3.3-3,3.3
		C345.1,413.1,333.3,413.1,321.5,413.1C321.5,413.1,321.5,413.1,321.5,413.1z"/>
	<path class="st2" d="M315.5,370.4c-9.5,0-19-0.1-28.5,0.1c-3,0.1-4.1-0.8-4-3.9c0.2-6.1,0.2-12.3,0-18.5c0-2.3,0.6-3.2,3.1-3.2
		c15.8,0.1,31.6,0.1,47.4,0c2,0,3,0.8,3.8,2.5c2.9,6.7,5.8,13.4,8.9,20c1.3,2.9-0.1,3-2.3,3C334.5,370.4,325,370.4,315.5,370.4z"/>
	<path class="st1" d="M326.6,327.9c-14.2,0-27.5,0-40.7,0c-2.3,0-2.8-1-2.8-3c0.1-6.6,0.1-13.3,0-19.9c0-2.2,0.8-2.9,2.9-2.9
		c7.1,0.1,14.3,0.1,21.4,0c1.5,0,2.5,0.6,3.4,1.7C316.3,311.3,321.6,318.9,326.6,327.9z"/>
	<path class="st3" d="M402,617.8c0-5.5,0-11.1,0-16.6c1.5-0.1,3-0.2,4.5-0.2c14.3-0.2,14.2-0.2,13.1,14c-0.2,2.3-0.9,3.2-3.2,3.1
		C411.6,617.8,406.8,617.9,402,617.8z"/>
	<path class="st4" d="M232.1,601.2c0,5.5,0,11.1,0,16.6c-1.3,0.1-2.7,0.2-4,0.2c-13.7,0-13.7,0-13.1-14c0.1-2.4,0.8-3.2,3.1-3.1
		C222.8,601.1,227.4,601.1,232.1,601.2z"/>
</g>
</svg>
