<?xml version="1.0" encoding="utf-8"?>
<!-- Generator: Adobe Illustrator 19.0.0, SVG Export Plug-In . SVG Version: 6.00 Build 0)  -->
<svg version="1.1" id="Calque_1" xmlns="http://www.w3.org/2000/svg" xmlns:xlink="http://www.w3.org/1999/xlink" x="0px" y="0px"
	 viewBox="0 0 612 792" style="enable-background:new 0 0 612 792;" xml:space="preserve">
<g>
	<path d="M63,593c0-159.3,0-318.7,0-478c2.8-8.6,8.4-14.2,17-17c88.3,0,176.7,0,265,0c12.8,4.6,17.1,14,16.9,27.2
		c-0.5,31.8-0.1,63.6-0.1,95.4c0,1.6,0,3.2,0,5.3c2.5,0,4.4,0,6.4,0c60.1,0,120.3,0.2,180.4-0.2c13.2-0.1,22.1,4.5,26.4,17.2
		c0,116.7,0,233.3,0,350c-2.8,8.6-8.4,14.2-17,17c-94,0-188,0-282,0c0.1-1.2,0.2-2.3,0.2-3.5c0-48.3,0-96.6,0-144.9
		c0-13.6-8.9-22.3-22.7-22.4c-27.1-0.1-54.3,0-81.4,0c-15.1,0-23.8,8.7-23.9,23.9c0,22.5,0,45,0,67.4c0,26.5-0.2,52.9-0.3,79.4
		c-22.7,0-45.3,0-68,0C71.4,607.2,65.8,601.6,63,593z M447,290c-14.2,0-28.3-0.1-42.5,0c-12.3,0.1-21.4,9.2-21.5,21.6
		c-0.1,21-0.1,42,0,63c0.1,12.8,8.7,22,21.5,22.1c28.3,0.3,56.6,0.3,84.9,0c12.7-0.1,21.5-9.4,21.5-22.1c0.1-20.7,0.1-41.3,0-62
		c-0.1-13.7-8.8-22.5-22.5-22.6C474.6,290,460.8,290,447,290z M447.4,418c-13.8,0-27.6,0-41.5,0c-14.1,0.1-22.9,8.7-22.9,22.7
		c-0.1,20.7-0.1,41.3,0,62c0,12.7,8.8,21.9,21.6,22c28.3,0.2,56.6,0.2,84.9,0c12.7-0.1,21.4-9.5,21.4-22.2c0.1-20.7,0.1-41.3,0-62
		c0-13.5-9-22.5-22.6-22.5C474.7,418,461.1,418,447.4,418z M212.3,418c13.7,0,27.3,0,41,0c14.1,0,22.9-8.7,22.9-22.6
		c0.1-20.5,0.1-41,0-61.5c-0.1-13.9-8.9-22.7-22.9-22.7c-27.1-0.1-54.3-0.1-81.4,0c-15,0.1-23.5,8.6-23.6,23.7
		c-0.1,20.2-0.1,40.3,0,60.5c0,13.6,9.1,22.5,22.6,22.6C184.7,418,198.5,418,212.3,418z M233.8,247.5c0,7.9-0.3,15.4,0.1,22.8
		c0.5,11.1,10,19.7,21.2,19.7c10.9,0,20.8-8.6,20.9-19.5c0.3-29.7,0.4-59.3,0-89c-0.2-12.8-13.4-22-25.8-18.9
		c-9.9,2.4-16.2,10.3-16.4,20.6c-0.1,7.1,0,14.2,0,21.3c-14.7,0-28.5,0-42.8,0c0-6.7,0-13.2,0-19.6c-0.1-13.3-9-22.8-21.3-22.9
		c-12.3,0-21.4,9.5-21.4,22.7c-0.1,27.5-0.1,55,0.1,82.5c0,3.9,1,8,2.7,11.5c4.2,8.6,14,12.8,23.1,10.7c9.6-2.2,16.4-10,16.7-19.9
		c0.3-7.3,0.1-14.6,0.1-22.1C205.3,247.5,219.1,247.5,233.8,247.5z"/>
	<path d="M191,610c0-42.4,0-84.9,0-127.7c14.2,0,28.1,0,42.8,0c0,1.9,0,3.9,0,5.8c0,38.8,0,77.6,0,116.4c0,1.8,0.2,3.6,0.2,5.5
		C219.7,610,205.3,610,191,610z"/>
	<path d="M426.1,333c14,0,27.8,0,41.8,0c0,7,0,13.7,0,20.7c-13.9,0-27.7,0-41.8,0C426.1,347,426.1,340.3,426.1,333z"/>
	<path d="M468,461.1c0,6.9,0,13.5,0,20.5c-13.9,0-27.7,0-41.9,0c0-6.7,0-13.5,0-20.5C439.9,461.1,453.7,461.1,468,461.1z"/>
	<path d="M233.4,375c-14.1,0-27.9,0-42,0c0-6.8,0-13.6,0-20.7c13.8,0,27.7,0,42,0C233.4,361,233.4,367.7,233.4,375z"/>
</g>
</svg>
