<?xml version="1.0" encoding="utf-8"?>
<!-- Generator: Adobe Illustrator 19.0.0, SVG Export Plug-In . SVG Version: 6.00 Build 0)  -->
<svg version="1.1" id="Calque_1" xmlns="http://www.w3.org/2000/svg" xmlns:xlink="http://www.w3.org/1999/xlink" x="0px" y="0px"
	 viewBox="0 0 612 792" style="enable-background:new 0 0 612 792;" xml:space="preserve">
<style type="text/css">
	.st0{fill:#914DF4;}
	.st1{fill:#FDDB09;}
	.st2{fill:#601B80;}
	.st3{fill:#FDFDFD;}
	.st4{fill:#FB7208;}
	.st5{fill:#5F1B7F;}
	.st6{fill:#FBFBFB;}
	.st7{fill:#FAFAFB;}
	.st8{fill:#601B7F;}
	.st9{fill:#010100;}
	.st10{fill:#FA7208;}
</style>
<g>
	<path d="M536,659c-155.3,0-310.7,0-466,0c-5.3-1.4-7.4-5.1-7.5-10.4c0-2.2-0.1-4.3-0.1-6.5c0-52.9,0-105.9,0-158.8
		c0-1.7-0.1-3.3,0-5c0.2-3.9-1.3-6-5.4-5.8c-5.4,0.2-8.9-2.1-10-7.6c0-1.7,0-3.3,0-5c1.3-5.1,4.8-7.5,9.9-7.4
		c4.5,0.1,5.6-2.1,5.6-6.1c-0.1-45.9-0.1-91.8,0-137.8c0-4-1-6.2-5.5-6.3c-4.8-0.1-8.7-2.1-9.9-7.4c0-2,0-4,0-6
		c1.1-4.7,4.5-6.1,8.9-6.4c6.7-0.3,6.7-0.4,6.7-7.2c0-11.7-0.1-23.3,0-35c0.2-21.2,6.4-40.6,19.8-57c12.9-15.9,28.9-27.9,49-33.9
		c5.1-1.5,10.5-1.3,15.6-2.5c103.7,0,207.3,0,311,0c17.9,0.9,33.5,7.9,47.5,18.7c25.2,19.3,38,44.9,37.9,76.7c0,11.5,0,23,0,34.5
		c0,5.3,0.2,5.6,5.7,5.7c4.7,0.1,8.6,1.1,9.9,6.4c0,2,0,4,0,6c-1.3,5.2-5.1,7.3-9.9,7.4c-4.5,0.1-5.5,2.3-5.5,6.3
		c0.1,45.9,0.1,91.8,0,137.8c0,4.1,1.1,6.2,5.6,6.1c5-0.1,8.5,2.4,9.9,7.4c0,2,0,4,0,6c-1.1,4.4-4.1,6.1-8.3,6.5
		c-7,0.7-7.1,0.7-7.1,8.2c0,53.8,0,107.6,0,161.4c0,2.2,0,4.3-0.1,6.5C543.4,653.8,541.4,657.6,536,659z"/>
	<path class="st0" d="M142,165.9c4.6-1.5,9.4-1.9,14.2-1.9c97.9,0,195.8,0,293.6,0c4.8,0,9.5,0.7,14.2,1.9c9.1,3,15.6,9.7,22.2,16.1
		c1.4,1.4,2,3,0.9,4.9c-3.6,4-5.1,8.7-5,14.1c0.2,15.3,0,30.5,0.1,45.8c0,9.8,5.2,16.4,14.8,19.2c2.8,0.8,5.6,0.3,8.4,0.3
		c1.8,0,3.5,0.4,3.7,2.4c0.4,4.7,1.6,9.6-1.1,14.1c-26.5,0.1-53,0.2-79.5,0.2c-108.6,0-217.3,0-325.9,0c-1.5,0-3-0.1-4.5-0.2
		c-2.5-2.8-1.6-6.3-1.6-9.5c0-3.7-1.5-4.9-5.1-5c-3.3-0.1-7,1.3-9.8-1.8c7.6-1.2,15.2-0.2,22.8-0.3c11.8-0.1,19.5-7.8,19.5-19.7
		c0-14.6-0.2-29.2,0.1-43.8c0.1-6.5-1.4-12.1-5.9-16.8c0-1.8,1-3.2,2.2-4.3C126.7,175.3,133.3,169.2,142,165.9z"/>
	<path class="st0" d="M507.9,641.8c-44.3,0-88.7,0.1-133,0.2c-2.8,0-3.7-0.8-3.7-3.6c0.1-46.5,0.1-93,0.2-139.5
		c0-6.8-3.2-10.6-10.2-10.6c-38.7,0-77.3-0.1-116,0c-7.5,0-10.4,3-10.4,10.8c0,45.8-0.1,91.7,0.1,137.5c0,4.2-0.8,5.6-5.4,5.6
		c-42.8-0.2-85.7-0.1-128.5-0.1c-1,0-2-0.1-3-0.2c-1.5-1.4-1.6-3.2-1.7-5c-0.1-10.3-0.1-20.5,0-30.8c0-1.7,0.1-3.3,1.2-4.7
		c1.1-0.9,2-0.1,2.5,0.7c3.1,4.1,7.5,4.5,12.1,4.5c30.5,0,60.9,0,91.4,0c10.4,0,12.7-2.4,12.8-12.6c0.1-30.6,0.1-61.3,0-91.9
		c0-9.9-2.5-12.3-12.5-12.3c-30.1-0.1-60.3,0-90.4-0.1c-5.3,0-10.3,0.4-13.9,5c-0.4,0.6-1.1,0.6-1.8,0.3c-2.1-7.7-2.4-15.4,0.2-23.1
		c1.6-0.5,3.3-0.3,5-0.3c133.1,0,266.3,0,399.4,0c6.8,0,7.2,0.4,7.3,7.3c0.1,3.3,0.1,6.7,0,10c-0.1,2,0,4.1-2,5.4
		c-6-5.1-13.1-4.7-20.3-4.6c-27.5,0.1-55,0-82.5,0c-2.2,0-4.3-0.1-6.5,0.2c-5.3,0.6-8,3.3-8.6,8.7c-0.2,1.7-0.2,3.3-0.2,5
		c0,29.7,0,59.3,0,89c0,1.5,0,3,0.1,4.5c0.5,6.3,3.2,8.9,9.4,9.4c2,0.2,4,0.1,6,0.1c27.5,0,55,0,82.5,0c6.8,0,13.7,0.5,19.7-3.7
		c2.1,0.9,2.2,2.8,2.3,4.6c0.2,10,0.2,20,0,29.9C509.5,638.9,509.2,640.6,507.9,641.8z"/>
	<path class="st0" d="M507.9,453.9c-37,0.1-74,0.1-110.9,0.1c-98,0-195.9,0-293.9,0c-1.7,0-3.3-0.1-5-0.1c-1-1-1.6-2.2-1.5-3.6
		c0.2-6.7-1.4-13.6,1.1-20.1c0.7-0.3,1.4-0.4,1.8,0.2c3.6,5,8.8,5.1,14.3,5.1c29.5-0.1,59,0,88.4,0c1.7,0,3.3,0,5-0.1
		c6.1-0.4,8.8-3,9.1-9c0.2-5,0.1-10,0.1-15c0-25.6,0-51.3,0-76.9c0-1.8,0-3.7-0.1-5.5c-0.4-7-2.5-9.2-9.6-9.3
		c-13.8-0.1-27.6,0-41.5,0c-17.7,0-35.3,0-53,0c-4.8,0-9.4,0-12.8,4.1c-0.4,0.5-1.2,0.5-1.9,0.3c-2-7.7-2.6-15.3,0.3-22.9
		c33.1-0.1,66.3-0.2,99.4-0.2c101.3,0,202.6,0,303.9,0c2.2,0,4.3,0.1,6.5,0.2c2.8,5.5,2.3,18.7-0.7,22.2c-4.6-3.6-10-3.7-15.6-3.7
		c-30,0.1-59.9,0-89.9,0.1c-9.7,0-12.1,2.3-12.1,12.1c-0.1,30.6-0.1,61.3,0,91.9c0,9.3,2.6,11.8,12,11.8c31.1,0,62.3-0.1,93.4,0.1
		c4.7,0,8.3-2,12.1-3.8c0.7,0.1,1.4,0.4,1.5,1.1C509.8,439.9,511,446.9,507.9,453.9z"/>
	<path class="st1" d="M251.9,573.4c0-21.1,0.1-42.3-0.1-63.4c0-3.8,0.9-4.8,4.7-4.7c11.1,0.3,22.3,0.2,33.5,0c3.2,0,4.7,0.5,4.7,4.3
		c-0.2,17.3-0.1,34.6-0.1,51.9c0,2.3-0.5,3.5-2.9,4.3c-3.7,1.1-5.7,4-5.7,7.9c0,3.9,2,6.9,5.7,7.9c2.6,0.7,2.9,2,2.9,4.2
		c-0.1,17.3-0.1,34.6,0,51.9c0,3.2-0.8,4.3-4.2,4.2c-11.5-0.2-23-0.2-34.5,0c-3.3,0.1-4.2-0.9-4.2-4.2
		C252,616.3,251.9,594.8,251.9,573.4z"/>
	<path class="st2" d="M507.9,641.8c0-11.7,0.1-23.4,0-35.2c0-1.3,0.4-2.7-0.9-3.7c-1.1-1.3-0.8-2.8-0.8-4.3
		c0.3-32.9,0.1-65.7,0.1-98.6c0-2.1-0.6-4.3,0.9-6.3c1.5-6.6,0.4-13.2,0.6-19.8c0.1-2.6-2.2-2-3.7-2c-8.7,0-17.3,0-26,0
		c-125.3,0-250.6,0-375.9,0c-1.3,0-2.7,0.1-4,0.1c-5.7,2.2-11.3,2.5-16.9-0.2c1.2-1.8,3-1,4.5-1c139.6,0,279.3,0,418.9,0.1
		c4.8,0,9.7,0.4,14.5,0.1c4.5-0.3,5.9,0.9,5.9,5.7c-0.2,37.7-0.1,75.3-0.1,113c0,15.8-0.1,31.7,0.1,47.5c0,3.7-0.9,5.1-4.7,4.8
		C516.2,641.7,512,641.9,507.9,641.8z"/>
	<path class="st1" d="M337,641.7c-7.3,0.1-14.6,0-22,0.2c-2.6,0.1-3.4-0.9-3.4-3.4c0.1-17.6,0.1-35.3,0-52.9c0-1.9,0.2-3.2,2.6-4
		c3.6-1.1,5.8-3.8,5.8-7.8c0.1-4.2-2.1-7-5.9-8.2c-1.9-0.6-2.5-1.6-2.4-3.6c0.1-18.1,0-36.3,0.1-54.4c0-0.6,0.4-1.2,0.6-1.9
		c7.3-0.5,14.6,0,22-0.3c2.8-0.1,3.9,1.3,4.2,3.8c0.2,1.8,0.2,3.7,0.2,5.5c0,39.5,0,78.9,0,118.4C338.6,636.1,339.3,639.2,337,641.7
		z"/>
	<path class="st3" d="M81.3,471.9c5.7-0.2,11.3-0.5,16.9,0.2c0,7.6,0,15.2,0,22.8c1.7,2,1.4,4.4,1.4,6.7c0,31,0,62,0,92.9
		c0,2.3,0.3,4.7-1.4,6.7c0,13.6-0.1,27.1-0.1,40.7c-4.2,0.1-8.3-0.2-12.5,0.2c-3.9,0.4-4.6-1-4.6-4.7c0.1-34.3,0.1-68.6,0.1-103
		C81.1,513.6,81.2,492.7,81.3,471.9z"/>
	<path class="st2" d="M507.2,322.9c1.8-7.2,0.3-14.5,0.7-21.8c4.2-0.1,8.3,0.1,12.5-0.2c3.8-0.3,4.7,1.1,4.7,4.8
		c-0.1,27.9-0.1,55.9-0.1,83.8c0,20-0.1,39.9,0.1,59.9c0,3.7-0.9,5.1-4.7,4.7c-4.1-0.3-8.3-0.2-12.5-0.2c-0.4-7.3,1.1-14.6-0.8-21.8
		c-1.2-1.2-0.9-2.8-0.9-4.2c0.2-33.6,0.3-67.1,0-100.7C506.2,325.6,505.9,324.1,507.2,322.9z"/>
	<path class="st3" d="M98.2,430.3c0,7.9,0,15.7,0,23.6c-5.5,0-12.5,1.9-16-0.7c-3.3-2.5-1-9.9-1-15.2c-0.1-44,0-88-0.1-131.9
		c0-4.1,0.9-5.6,5.1-5.2c4,0.4,8,0.2,12,0.3c0,7.7,0.1,15.3,0.1,23c1.6,2,1.4,4.4,1.4,6.7c0,30.9,0,61.9,0,92.8
		C99.6,425.9,99.9,428.3,98.2,430.3z"/>
	<path class="st4" d="M337,641.7c0-43.6,0-87.1,0.1-130.7c0-4.3-1.4-5.3-5.4-5.2c-6.5,0.2-13-0.1-19.4-0.1
		c10.9-1.3,21.9-0.3,32.8-0.4c9.1-0.1,9.1,0,9.1,9.2c0,40.6-0.1,81.2,0.1,121.9c0,4.7-1.4,6.1-5.8,5.6
		C344.7,641.6,340.8,641.8,337,641.7z"/>
	<path class="st1" d="M499.2,223.8c0-7.3,0.1-14.7,0-22c-0.1-2.7,0.8-3.5,3.6-3.8c6.9-0.9,10.9,1.6,13.9,8c6,12.8,8.3,26.1,8.3,40.1
		c0,2.7-1,3.4-3.5,3.4c-6.3-0.1-12.7-0.1-19,0c-2.7,0.1-3.4-1.1-3.3-3.6C499.3,238.4,499.2,231.1,499.2,223.8z"/>
	<path class="st1" d="M106.9,223.4c0,7.5-0.1,15,0,22.5c0.1,2.6-0.9,3.5-3.4,3.4c-6.3-0.1-12.6-0.1-19,0c-2.2,0-3.3-0.5-3.3-3.1
		c-0.2-15.9,2.4-31,10.9-44.8c1.7-2.8,11.1-4.9,13.8-3.2c1.4,0.9,0.9,2.4,0.9,3.7C106.9,209.1,106.9,216.3,106.9,223.4z"/>
	<path class="st5" d="M508,283c0-3.3-0.3-6.7,0.1-9.9c0.5-4.6-0.8-6.8-5.8-6.1c-1.7,0.2-3.7,0.6-5.2-0.8c8.3,0,16.6,0.1,24.9,0
		c2.4,0,3.3,0.9,3.2,3.2c-0.1,3.5-0.2,7,0,10.5c0.1,2.8-1.2,3.3-3.6,3.3C516.9,283,512.4,283,508,283z"/>
	<path class="st6" d="M81.7,266.7c4.3,0.1,8.6,0.3,12.9,0.2c2.9-0.1,3.8,0.9,3.7,3.7c-0.2,4.1-0.1,8.3-0.1,12.4
		c-4.8,0.1-9.5,0.1-14.3,0.2c-1.7,0-2.9-0.2-2.7-2.4C81.5,276.1,80.5,271.3,81.7,266.7z"/>
	<path class="st7" d="M142,165.9c-8.7,5.8-17.1,12-23.9,20.1c-2.6-1.9-5.3-3.8-9.4-4.9C119.2,173.1,129.8,167.7,142,165.9z"/>
	<path class="st8" d="M487.1,187.1c0.3-2.3-1.3-3.6-2.7-5c-6-6.4-13.1-11.3-20.5-16.1c11.5,1.3,21.3,6.5,30.5,13
		c2,1.4,1.7,2.2-0.6,3.3C491.5,183.5,489.4,185.5,487.1,187.1z"/>
	<path d="M192.5,266.4c-8,0-16,0-24,0c-11-0.1-19-7.7-19.1-18.7c-0.1-16-0.1-32,0-47.9c0.1-10.9,8.2-18.7,19.1-18.7
		c15.8,0,31.6-0.1,47.4,0c10.7,0,18.8,8.2,18.9,19c0,15.8,0,31.6,0,47.4c0,10.9-7.9,18.8-18.9,18.9
		C208.1,266.4,200.3,266.4,192.5,266.4z"/>
	<path d="M302.5,266.4c-8,0-16,0.1-24,0c-10.1-0.1-18.1-8-18.2-18c-0.2-16.3-0.2-32.6,0-48.9c0.1-10.2,8.4-18.2,18.5-18.3
		c16.1-0.1,32.3-0.1,48.4,0c10.1,0,18.4,8.2,18.4,18.4c0.1,16.1,0.1,32.3,0,48.4c-0.1,10.3-8,18.3-18.3,18.4
		C319.1,266.5,310.8,266.4,302.5,266.4z"/>
	<path d="M413.9,266.4c-8.2,0-16.3,0.1-24.5,0c-10-0.1-18.1-8-18.2-18c-0.2-16.3-0.1-32.6,0-48.9c0.1-10.2,8.3-18.2,18.5-18.3
		c16.1-0.1,32.3-0.1,48.4,0c10.2,0.1,18.4,8.2,18.5,18.4c0.1,16.1,0.1,32.3,0,48.4c-0.1,10.4-8,18.2-18.3,18.4
		c-4.2,0.1-8.3,0-12.5,0C421.9,266.4,417.9,266.4,413.9,266.4z"/>
	<path d="M98.2,601.1c0-35.4,0-70.8,0-106.3c2.1-4.9,5.7-6.7,11-6.7c32.5,0.1,64.9,0,97.4,0.1c7.7,0,11.4,3.4,11.3,10.6
		c-0.1,32.1-0.1,64.3-0.2,96.4c0,10.1-2.5,12.6-12.8,12.6c-31.8,0-63.6-0.1-95.4,0.1C104.2,608,100.3,606.3,98.2,601.1z"/>
	<path d="M507.3,493.9c1.2,3.6,0.6,7.2,0.6,10.9c0,30,0,59.9,0,89.9c0,2.8-0.1,5.6-0.9,8.4c-2.2,3.7-5.5,4.9-9.7,4.9
		c-32.8-0.1-65.6,0-98.5,0c-7.5,0-10.6-3.2-10.6-10.7c0-32.7,0-65.3,0-98c0-7.9,3.1-10.9,10.9-10.9c32.7,0,65.3,0,98,0
		C501.7,488.2,505.4,489.3,507.3,493.9z"/>
	<path d="M98.2,430.3c0-35.4,0.1-70.8,0.1-106.2c2-4.7,5.5-6.4,10.6-6.4c32.8,0.2,65.6,0.1,98.4,0.1c7.4,0,10.7,3.4,10.7,10.6
		c-0.1,32.3-0.1,64.6-0.2,96.9c0,9.2-2.6,11.8-11.9,11.8c-32.1,0-64.3-0.1-96.4,0.1C104,437.2,100.1,435.5,98.2,430.3z"/>
	<path d="M303.1,317.7c16.3,0,32.6,0,49,0c7.7,0,10.9,3.2,10.9,10.9c-0.1,32.3-0.1,64.6-0.1,96.9c0,8.9-2.7,11.5-11.7,11.5
		c-32.1,0-64.3,0-96.4,0c-8.9,0-11.6-2.7-11.6-11.6c0-32,0-63.9,0-95.9c0-9.3,2.5-11.8,11.9-11.8
		C271.2,317.7,287.1,317.7,303.1,317.7z"/>
	<path class="st9" d="M507.2,322.9c1,3.6,0.7,7.2,0.7,10.9c0,30,0,59.9,0,89.9c0,2.8,0,5.6-0.8,8.4c-2,3.9-5.3,5.1-9.5,5.1
		c-33.1-0.1-66.3,0-99.4-0.1c-6.6,0-9.9-3.1-9.9-9.8c-0.1-33.3-0.1-66.6,0-99.9c0-6.4,3.2-9.6,9.6-9.6c33.5,0,67,0,100.4,0
		C502.4,317.7,505.4,319.1,507.2,322.9z"/>
	<path class="st1" d="M166.6,224c0-7.5,0.1-15,0-22.5c0-2.5,0.7-3.5,3.4-3.5c14.8,0.1,29.6,0.1,44.4,0c2.5,0,3.5,0.7,3.5,3.4
		c-0.1,14.8-0.1,29.6,0,44.4c0,2.6-0.8,3.5-3.4,3.5c-14.8-0.1-29.6-0.1-44.4,0c-3.1,0-3.5-1.3-3.4-3.9
		C166.7,238.3,166.6,231.2,166.6,224C166.6,224,166.6,224,166.6,224z"/>
	<path class="st1" d="M303.2,198.1c7.2,0,14.3,0.1,21.5-0.1c2.9-0.1,4.1,0.6,4.1,3.8c-0.2,14.5-0.2,29,0,43.5c0,3-0.8,4-3.9,4
		c-14.6-0.1-29.3-0.1-44,0c-3,0-3.6-1.2-3.6-3.9c0.1-14.5,0.1-29,0-43.5c0-3,0.8-4.1,3.9-4C288.6,198.3,295.9,198.1,303.2,198.1z"/>
	<path class="st1" d="M439.7,223.7c0,7.2-0.1,14.3,0,21.5c0.1,2.8-0.5,4.2-3.8,4.2c-14.6-0.2-29.3-0.1-43.9,0
		c-2.8,0-3.7-0.9-3.7-3.7c0.1-14.6,0.1-29.3,0-43.9c0-2.9,1-3.7,3.8-3.6c14.6,0.1,29.3,0.1,43.9,0c2.8,0,3.8,0.9,3.7,3.7
		C439.6,209.1,439.7,216.4,439.7,223.7z"/>
	<path class="st1" d="M149.4,548.5c0,12.5-0.2,25,0.1,37.5c0.1,4.1-1.3,5-5.1,4.9c-8.5-0.3-17-0.2-25.5,0c-2.8,0-3.7-0.9-3.7-3.7
		c0.1-26,0.1-52,0-78c0-3.2,1.1-4,4.1-3.9c8.7,0.2,17.3,0.2,26,0c3.3-0.1,4.3,1,4.2,4.3C149.3,522.5,149.4,535.5,149.4,548.5
		C149.4,548.5,149.4,548.5,149.4,548.5z"/>
	<path class="st10" d="M167.2,505.8c10.2-1.4,20.5-0.1,30.8-0.4c3.5-0.1,2.7,2.7,2.7,4.7c0,18.6,0,37.3,0,55.9c0,7,0,14,0,21
		c0,1.7,0.5,4-2.4,3.9c-10.4-0.3-20.9,0.9-31.3-0.4c2.5-2.8,5.9-1.8,8.9-1.9c5.9-0.2,6.4-0.5,6.4-6.2c0.1-22.8,0.1-45.5,0-68.3
		c0-6-0.4-6.2-6.7-6.4C172.8,507.5,169.6,508.3,167.2,505.8z"/>
	<path class="st1" d="M167.2,505.8c4,0.1,8,0.4,11.9,0.1c3.8-0.2,4.8,1.1,4.8,4.8c-0.2,21.8,0,43.6-0.1,65.3c0,4.4,1.9,10.1-0.9,13
		c-2.8,3-8.5,0.7-12.9,1.1c-1,0.1-2,0.2-3,0.2c-0.9-28-0.7-56.1-0.1-84.1C167,506,167.2,505.9,167.2,505.8z"/>
	<path class="st1" d="M439.7,548c0,12.8-0.1,25.6,0.1,38.4c0.1,3.5-0.9,4.6-4.5,4.5c-8.6-0.2-17.3-0.2-26,0c-3.1,0.1-4-1-4-4
		c0.1-26,0.1-51.9,0-77.9c0-2.8,0.9-3.8,3.8-3.7c8.8,0.1,17.6,0.2,26.5,0c3.4-0.1,4.2,1.1,4.2,4.3
		C439.6,522.4,439.7,535.2,439.7,548z"/>
	<path class="st4" d="M457.3,505.8c10.4-1.3,20.8-0.2,31.2-0.4c3.3-0.1,2.4,2.6,2.4,4.4c0.1,14.6,0,29.2,0,43.9
		c0,11-0.1,21.9,0.1,32.9c0,3.1-0.6,4.5-4.1,4.3c-9.9-0.6-19.8,0.9-29.7-0.6c2.7-2.8,6.2-1.7,9.4-1.8c5.2-0.3,5.8-0.6,5.8-5.8
		c0.1-23.1,0.1-46.2,0-69.3c0-5.4-0.5-5.6-6.2-5.9C463.2,507.4,459.8,508.4,457.3,505.8z"/>
	<path class="st1" d="M457.3,505.8c4,0.1,8,0.4,12,0.1c3.7-0.2,4.8,1,4.8,4.7c-0.2,21.3-0.1,42.6-0.1,63.9c0,3.5-0.3,7,0.1,10.5
		c0.4,4.4-1.4,5.5-5.4,5.2c-3.8-0.3-7.6,0.1-11.5,0.1c-0.1-3-0.4-5.9-0.4-8.9c0-23.4,0-46.8,0-70.2
		C456.8,509.3,456.3,507.5,457.3,505.8z"/>
	<path class="st1" d="M183.2,368.7c-21.6,0.1-43.2,0.1-64.9,0.2c-2.4,0-3.1-0.9-3.1-3.2c0.1-9.3,0.1-18.6,0-27.9c0-2.6,1.1-3,3.3-3
		c21.8,0.1,43.6,0.2,65.4,0.3c1.6,1.6,1.7,3.6,1.7,5.6c0.1,7.3,0.1,14.6,0,21.9C185.5,364.9,185.6,367.3,183.2,368.7z"/>
	<path class="st1" d="M183.9,419.8c-21.8,0.1-43.6,0.1-65.4,0.2c-2.2,0-3.3-0.4-3.3-3c0.1-9.3,0.1-18.6,0-27.9
		c0-2.3,0.7-3.2,3.1-3.2c9.3,0.1,18.6,0.2,27.9,0c2.9-0.1,3.2,1.2,3.2,3.6c-0.1,2.3-0.1,4.7,0.4,6.9c0.9,4.3,3.9,6.6,8.2,6.5
		c4.3,0,7.1-2.4,8.2-6.7c0.1-0.5,0.2-1,0.3-1.5c0.2-2.8-0.7-6.7,0.8-8.1c2.1-2,6-0.6,9.1-0.7c2.5-0.1,5,0.1,7.5,0.2
		c1.5,1.4,1.7,3.2,1.7,5c0.1,7.9,0.1,15.8,0,23.7C185.5,416.7,185.3,418.5,183.9,419.8z"/>
	<path class="st10" d="M183.2,368.7c1.6-7,0.4-14.2,0.7-21.3c0.2-4.1,0-8.3,0-12.4c4.5-0.1,8.9-0.1,13.4-0.3
		c2.4-0.1,3.6,0.6,3.5,3.3c-0.1,9.3-0.1,18.5,0,27.8c0,2.5-1,3.1-3.2,3.1C192.8,368.8,188,368.8,183.2,368.7z"/>
	<path class="st10" d="M183.9,419.8c0-11.2,0-22.4,0-33.7c4.5-0.1,9,0,13.5-0.2c2.5-0.1,3.5,0.6,3.5,3.3c-0.1,9.1-0.1,18.3,0,27.5
		c0,2.7-1,3.4-3.5,3.3C192.8,419.8,188.3,419.9,183.9,419.8z"/>
	<path class="st1" d="M328.2,368.8c-21.4,0.1-42.9,0.1-64.3,0.2c-2.9,0-3.6-1-3.6-3.7c0.1-9,0.1-18,0-26.9c0-2.5,0.6-3.6,3.3-3.6
		c21.8,0.2,43.5,0.2,65.3,0.3c3.2,10.7,1.9,21.5,0.7,32.4C329.5,368,328.8,368.4,328.2,368.8z"/>
	<path class="st1" d="M328.9,419.8c-21.8,0.1-43.6,0.1-65.4,0.2c-2.2,0-3.3-0.5-3.3-3c0.1-9.3,0.1-18.6,0-27.9
		c0-2.4,0.7-3.2,3.1-3.2c9.3,0.1,18.6,0.1,27.9,0c2.7,0,3.5,1,3.3,3.5c-0.1,2-0.1,4,0.1,6c0.5,4.3,3.8,7.4,7.9,7.6
		c4.1,0.2,7.7-2.5,8.7-6.7c0.2-0.8,0.3-1.6,0.4-2.5c0.5-7.9,0.5-7.9,8.3-7.8c3,0,6,0.1,9,0.2c1.5,1.4,1.6,3.2,1.7,5
		c0.1,7.9,0.1,15.8,0,23.7C330.5,416.7,330.3,418.5,328.9,419.8z"/>
	<path class="st10" d="M328.2,368.8c1.5-7.7,0.4-15.5,0.7-23.3c0.1-3.5,0-7,0-10.4c4.6-0.1,9.3-0.1,13.9-0.3c2.5-0.1,3.1,1,3.1,3.3
		c-0.1,9.3-0.1,18.6,0,27.8c0,2.5-1,3.1-3.3,3C337.8,368.8,333,368.8,328.2,368.8z"/>
	<path class="st10" d="M328.9,419.8c0-11.2,0-22.4,0-33.7c4.5-0.1,9,0,13.5-0.2c2.5-0.1,3.6,0.6,3.5,3.3c-0.1,9.2-0.1,18.3,0,27.5
		c0,2.8-1.1,3.4-3.5,3.3C337.9,419.9,333.4,419.9,328.9,419.8z"/>
	<path class="st1" d="M473.9,368.7c-21.8,0.1-43.6,0.1-65.3,0.2c-2.4,0-3.2-0.8-3.2-3.1c0.1-9.3,0.1-18.6,0-27.9
		c0-2.5,0.9-3.1,3.2-3.1c21.8,0.1,43.6,0.2,65.3,0.3c1.2,1.3,1.6,2.9,1.6,4.5c0.1,8.2,0.1,16.4,0,24.6
		C475.5,365.9,475.3,367.5,473.9,368.7z"/>
	<path class="st1" d="M473.9,419.8c-21.8,0.1-43.6,0.1-65.3,0.3c-2.8,0-3.2-1.2-3.2-3.6c0.1-9,0.1-18,0-26.9c0-2.8,0.8-3.7,3.6-3.7
		c9,0.2,18,0.2,26.9,0c3.3-0.1,4.1,1.1,3.8,4c-0.2,1.6-0.1,3.3,0,5c0.4,4.5,3.7,7.8,8,8.1c4.3,0.2,7.9-2.7,8.9-7.2
		c0.1-0.6,0.2-1.3,0.2-2c0.5-7.9,0.5-7.9,8.2-7.9c3,0,6,0.1,9,0.2c1.3,1.2,1.6,2.9,1.6,4.5c0.1,8.2,0.1,16.4,0,24.6
		C475.5,417,475.2,418.6,473.9,419.8z"/>
	<path class="st4" d="M473.9,419.8c0-11.2,0-22.4,0-33.7c5.4-0.2,12.4-2.2,15.9,0.7c3.4,2.8,0.8,10,1,15.2c0.2,5-0.1,9.9,0.1,14.9
		c0.1,2.4-0.7,3.2-3.1,3.1C483.2,419.9,478.5,419.9,473.9,419.8z"/>
	<path class="st10" d="M473.9,368.7c0-11.2,0-22.4,0-33.7c5.3,0,11.9-1.9,15.5,0.5c4,2.7,1.1,9.7,1.4,14.9c0.3,5.1,0,10.3,0.1,15.4
		c0.1,2.4-0.8,3.2-3.1,3.1C483.2,368.8,478.5,368.8,473.9,368.7z"/>
</g>
</svg>
