<?xml version="1.0" encoding="utf-8"?>
<!-- Generator: Adobe Illustrator 19.0.0, SVG Export Plug-In . SVG Version: 6.00 Build 0)  -->
<svg version="1.1" id="Calque_1" xmlns="http://www.w3.org/2000/svg" xmlns:xlink="http://www.w3.org/1999/xlink" x="0px" y="0px"
	 viewBox="0 0 612 792" style="enable-background:new 0 0 612 792;" xml:space="preserve">
<g>
	<path d="M561,669c-72.7,0-145.3,0-218,0c0-29.1,0.3-58.3,0-87.4c-0.1-10.8-10.1-19.4-21-19.3c-11,0.1-20.4,8.5-21.1,19.3
		c-0.3,4.5-0.2,9-0.2,13.5c0.1,24.6,0.2,49.3,0.3,73.9c-72.7,0-145.3,0-218,0c-8.6-2.8-14.2-8.4-17-17c0-102.7,0-205.3,0-308
		c4.9-12.6,14.3-17.2,27.5-16.4c10.3,0.7,20.6,0.1,31,0.1c1.8,0,3.5,0,5.6,0c0-7.9-0.2-15.1,0-22.2c0.3-10.4,8.3-19,18.6-20.4
		c10-1.3,20,4.9,22.8,14.6c1.1,3.8,1.1,7.9,1.2,11.8c0.2,5.2,0,10.5,0,15.8c14.6,0,28.3,0,42.5,0c0-2.3,0-4.3,0-6.3
		c0-32.1,0.3-64.3-0.1-96.4c-0.2-14.7,9.1-26.1,24.9-24.9c5.9,0.4,11.8,0.1,18,0.1c0-6,0.3-11.2-0.1-16.3
		c-0.9-13.2,4.4-22.1,17.1-26.5c3,0,6,0,9,0c1.2,0.6,2.3,1.1,3.5,1.7c9.1,4.1,13.1,11.3,13.2,21c0.1,6.6,0,13.1,0,19.7
		c14.6,0,28.3,0,42.5,0c0-5.3,0.3-10.3-0.1-15.2c-0.9-13.2,4-22.5,16.8-27.1c3,0,6,0,9,0c12.7,4.3,18,13.3,17.1,26.5
		c-0.4,5.2-0.1,10.5-0.1,16.3c6.4,0,12.2,0,18,0c16.6,0,24.7,8.2,24.7,24.9c0,32.3,0,64.6,0,97c0,1.9,0.2,3.8,0.3,5.8
		c14.3,0,28,0,42.2,0c0-6.8-0.4-13.3,0.1-19.8c0.3-4.2,1.3-8.7,3.2-12.3c4.4-8.2,14.3-11.9,23.2-9.7c9.4,2.4,15.9,10.2,16.2,19.8
		c0.2,7.3,0,14.5,0,22.3c2.6,0,4.6,0,6.5,0c11.8,0,23.7,0,35.5,0c7.5,0,13.6,2.9,18,9c1.6,2.2,2.7,4.9,4,7.3c0,102.7,0,205.3,0,308
		C575.2,660.5,569.6,666.2,561,669z M429,625.9c35.6,0,70.7,0,105.8,0c0-85.3,0-170.3,0-255.3c-35.5,0-70.5,0-105.8,0
		C429,455.8,429,540.7,429,625.9z M215,370.6c-35.7,0-70.7,0-105.8,0c0,85.3,0,170.3,0,255.3c35.5,0,70.5,0,105.8,0
		C215,540.7,215,455.8,215,370.6z M343.2,413.1c0-11.9-9.2-21.3-21.1-21.3c-12,0-21.2,9.2-21.3,21.1c-0.1,11.9,9.2,21.3,21.1,21.3
		C333.8,434.3,343.2,424.9,343.2,413.1z M343.2,327.9c0.1-11.9-9.2-21.5-21-21.6c-11.7-0.1-21.4,9.4-21.5,21.1
		c-0.1,11.9,9.2,21.4,21,21.6C333.5,349.1,343.1,339.7,343.2,327.9z M343.2,498.6c0.2-11.8-9.1-21.4-20.9-21.6
		c-11.8-0.2-21.4,9.3-21.5,21c-0.1,11.9,9.2,21.5,20.9,21.7C333.5,519.9,343,510.5,343.2,498.6z"/>
	<path d="M450,498.3c0-11.7,9.5-21.3,21.2-21.3c11.7,0,21.3,9.4,21.5,21.1c0.2,11.7-9.8,21.7-21.5,21.6
		C459.5,519.6,450,510,450,498.3z"/>
	<path d="M471.4,434.2c-11.7,0.1-21.3-9.3-21.4-21c-0.1-11.7,9.3-21.3,21-21.4c12-0.2,21.8,9.5,21.7,21.3
		C492.6,424.8,483.2,434.1,471.4,434.2z"/>
	<path d="M194,498.4c-0.1,11.7-9.7,21.3-21.3,21.3c-11.6,0-21.3-9.6-21.4-21.3c-0.1-11.8,9.7-21.5,21.6-21.4
		C184.6,477.1,194.1,486.7,194,498.4z"/>
	<path d="M172.7,391.7c11.8,0.1,21.2,9.5,21.3,21.2c0,11.9-9.6,21.4-21.7,21.3c-11.7-0.1-21.2-9.8-21.1-21.4
		C151.4,401.1,161,391.7,172.7,391.7z"/>
</g>
</svg>
