<?xml version="1.0" encoding="utf-8"?>
<!-- Generator: Adobe Illustrator 19.0.0, SVG Export Plug-In . SVG Version: 6.00 Build 0)  -->
<svg version="1.1" id="Calque_1" xmlns="http://www.w3.org/2000/svg" xmlns:xlink="http://www.w3.org/1999/xlink" x="0px" y="0px"
	 viewBox="0 0 612 792" style="enable-background:new 0 0 612 792;" xml:space="preserve">
<g>
	<path d="M294,121c85.7,0,171.3,0,257,0c4.6,2.8,6.6,6.8,5.8,12.2c-0.2,1.3-0.1,2.7-0.1,4c0,158.2,0,316.4,0.1,474.6
		c0,5.3-1.1,9.5-5.8,12.2c-165.9,0-331.8,0-498,0c0-132.3,0-264.7,0-397c2.8-4.3,6.8-5.4,11.9-5.4c72.2,0.1,144.3,0.1,216.5,0.1
		c2.1,0,4.2,0,6.7,0c0-2.5,0-4.3,0-6.1c0-27.7,0.1-55.3-0.1-83C287.9,127.3,289.3,123.4,294,121z M363.7,606.9c0-2.4,0-4.2,0-6
		c0-16.7,0-33.3,0-50c0-8,2.8-10.9,10.8-10.9c32,0,64,0,96,0c7.9,0,10.7,2.9,10.7,11c0,16.8,0,33.7,0,50.5c0,1.8,0,3.5,0,5.2
		c20,0,39.2,0,58.5,0c0-156.4,0-312.4,0-468.6c-78.3,0-156.4,0-234.3,0c0,156.4,0,312.5,0,468.7
		C324.7,606.9,343.9,606.9,363.7,606.9z M70.1,606.8c25.3,0,50,0,75.2,0c0-2.1,0-3.9,0-5.7c0-16.8,0-33.7,0-50.5
		c0-7.1,3.1-10.5,9.7-10.6c16-0.1,32-0.1,48,0c6.3,0,9.9,3.9,9.9,10c-0.1,17.2-0.2,34.3-0.3,51.5c0,1.7,0.2,3.5,0.2,5.1
		c25.3,0,50.1,0,74.8,0c0-122.9,0-245.5,0-368.1c-72.7,0-145.1,0-217.6,0C70.1,361.5,70.1,484,70.1,606.8z M162.4,557.2
		c0,16.7,0,33,0,49.4c11.2,0,22.1,0,33.1,0c0-16.6,0-32.9,0-49.4C184.4,557.2,173.5,557.2,162.4,557.2z M413.6,606.8
		c0-16.8,0-33.2,0-49.6c-11.1,0-21.9,0-33,0c0,16.6,0,33,0,49.6C391.7,606.8,402.5,606.8,413.6,606.8z M431.3,557.1
		c0,16.9,0,33.3,0,49.6c11.1,0,21.8,0,32.5,0c0-16.7,0-33.1,0-49.6C452.9,557.1,442.3,557.1,431.3,557.1z"/>
	<path d="M397.1,221.3c2,0.1,3.4,0.3,4.9,0.3c13.5,0,27-0.1,40.5,0.1c3.9,0.1,5.2-0.9,5.1-5c-0.2-14.3-0.1-28.7-0.1-43
		c0-8.2,2.7-10.8,10.8-10.8c10,0,20,0,30,0c6.3,0,9.6,3.2,9.6,9.5c0,49.7,0,99.3-0.1,149c0,5.8-3.2,9-9,9.1
		c-10.8,0.2-21.7,0.2-32.5,0c-6-0.1-8.8-3.4-8.8-9.8c-0.1-14.3,0-28.7,0-43c0-1.8,0-3.6,0-5.6c-17,0-33.4,0-50.5,0
		c0,6.3,0,12.4,0,18.5c0,10,0,20,0,30c0,6.8-2.9,9.8-9.7,9.9c-10.3,0.1-20.7,0.1-31,0c-6.5-0.1-9.5-3.1-9.5-9.6c0-49.5,0-99,0-148.5
		c0-6.5,3-9.5,9.4-9.5c10-0.1,20,0,30,0c8.1,0,10.8,2.8,10.8,10.7C397.1,189.3,397.1,205,397.1,221.3z M464.3,180.1
		c0,2.3,0,4.2,0,6.2c0,14,0,28,0,42c0,7.1-2.9,10-10,10c-21.2,0-42.3,0-63.5,0c-7.6,0-10.4-2.9-10.4-10.7c0-14,0-28,0-42
		c0-1.8-0.1-3.6-0.2-5.4c-5.6,0-10.9,0-15.9,0c0,44.7,0,89.1,0,133.4c5.6,0,10.7,0,16.2,0c0-2.4,0-4.3,0-6.3c0-14-0.1-28,0-42
		c0-7,3.1-10.1,10.1-10.1c21.3,0,42.7,0,64,0c6.8,0,10.1,3.6,10,10.2c-0.1,14.8-0.1,29.7-0.2,44.5c0,1.3,0.3,2.5,0.4,3.7
		c5.6,0,10.9,0,16.1,0c0-44.7,0-88.9,0-133.4C475.3,180.1,470,180.1,464.3,180.1z"/>
	<path d="M372,448c8,0,16-0.1,24,0c6.3,0.1,10,3.8,9.9,10c-0.1,15.3-0.2,30.7-0.3,46c-0.1,8.3-2.8,11.1-11.1,11.1
		c-15.3,0-30.7,0-46,0c-7.1,0-10.1-2.9-10.1-10c-0.1-15.7-0.1-31.3,0-47c0-7,3.1-10,10.1-10C356.4,447.9,364.2,448,372,448
		C372,448,372,448,372,448z M355.5,465c0,11.3,0,22,0,32.7c11.3,0,22.1,0,33,0c0-11.1,0-21.8,0-32.7C377.3,465,366.6,465,355.5,465z
		"/>
	<path d="M372,422.9c-7.8,0-15.7,0.1-23.5,0c-7-0.1-10.1-3.1-10.1-10.1c-0.1-15.7-0.1-31.3,0-47c0-7.1,3-10,10.1-10
		c15.8,0,31.7-0.1,47.5,0c6.3,0,10,3.7,9.9,9.9c-0.1,15.3-0.2,30.6-0.3,46c-0.1,8.3-2.9,11.1-11.1,11.2
		C387,422.9,379.5,422.9,372,422.9z M388.7,372.9c-11.4,0-22.3,0-33.3,0c0,11.1,0,21.9,0,32.7c11.2,0,22.2,0,33.3,0
		C388.7,394.5,388.7,383.9,388.7,372.9z"/>
	<path d="M472.9,448c8,0,16-0.1,24,0c6.2,0.1,9.5,3.5,9.5,9.7c-0.1,15.7-0.1,31.3-0.2,47c0,7.4-2.9,10.3-10.2,10.3
		c-15.5,0-31,0-46.5,0c-7.4,0-10.4-3-10.4-10.2c0-15.7-0.1-31.3,0-47c0-6.6,3.2-9.8,9.9-9.8C456.9,447.9,464.9,448,472.9,448z
		 M489.1,497.9c0-11.1,0-21.9,0-32.9c-11.1,0-21.9,0-32.8,0c0,11.1,0,21.9,0,32.9C467.4,497.9,478.2,497.9,489.1,497.9z"/>
	<path d="M473,355.8c8,0,16-0.1,24,0c6.1,0.1,9.5,3.6,9.5,9.7c-0.1,15.7-0.1,31.3-0.2,47c-0.1,7.4-2.9,10.3-10.3,10.4
		c-15.5,0.1-31,0.1-46.5,0c-7.3,0-10.4-3.1-10.4-10.4c0-15.5,0-31,0-46.5c0-7.3,3-10.2,10.4-10.2C457.3,355.8,465.2,355.8,473,355.8
		z M489.1,405.8c0-11.3,0-22.1,0-32.9c-11.3,0-22.1,0-32.9,0c0,11.2,0,21.9,0,32.9C467.2,405.8,478,405.8,489.1,405.8z"/>
	<path d="M162.1,482c0,7.8,0.1,15.7,0,23.5c-0.1,6.5-3.1,9.5-9.5,9.5c-16,0.1-32,0.1-48,0c-6.4,0-9.5-3.1-9.6-9.5
		c-0.1-16-0.1-32,0-48c0-6.4,3.2-9.5,9.6-9.5c16-0.1,32-0.1,48,0c6.4,0,9.5,3.1,9.5,9.5C162.2,465.7,162.1,473.8,162.1,482
		C162.1,482,162.1,482,162.1,482z M112.1,497.8c11.3,0,22,0,33,0c0-11,0-21.8,0-32.7c-11.1,0-22,0-33,0
		C112.1,476.2,112.1,486.8,112.1,497.8z"/>
	<path d="M228.9,515c-7.8,0-15.7,0-23.5,0c-6.5-0.1-9.6-3-9.6-9.4c-0.1-16-0.1-32,0-48c0-6.7,3-9.6,9.9-9.6c15.8,0,31.7,0,47.5,0
		c6.6,0,9.7,3.2,9.8,9.9c0,15.7,0,31.3-0.1,47c0,7.1-3,10.1-10,10.1C244.9,515,236.9,515,228.9,515z M245.8,465.2
		c-11.3,0-22.1,0-32.8,0c0,11.1,0,21.8,0,32.7c11.1,0,21.8,0,32.8,0C245.8,486.9,245.8,476.2,245.8,465.2z"/>
	<path d="M162.1,297.2c0,8,0.1,16,0,24c-0.1,6.1-3,9.3-9.2,9.4c-16.2,0.1-32.3,0.1-48.5,0c-6.3,0-9.4-3.3-9.4-9.8
		c-0.1-16-0.1-32,0-48c0-6.1,3.1-9.3,9.3-9.3c16.2-0.1,32.3-0.1,48.5,0c6.4,0,9.4,3.3,9.4,9.7C162.2,281.2,162.2,289.2,162.1,297.2
		C162.1,297.2,162.1,297.2,162.1,297.2z M112.4,280.5c0,11.4,0,22.3,0,33c11.2,0,21.9,0,32.7,0c0-11.2,0-21.9,0-33
		C134,280.5,123.3,280.5,112.4,280.5z"/>
	<path d="M195.8,296.6c0-7.8-0.1-15.7,0-23.5c0.1-6.5,2.9-9.5,9.5-9.5c16-0.1,32-0.1,48,0c6.6,0,9.7,3.3,9.7,10
		c0,15.7,0,31.3-0.1,47c0,7-3.1,10.1-10.1,10.1c-15.8,0.1-31.6,0.1-47.5,0c-6.5,0-9.5-3.1-9.5-9.5
		C195.8,312.9,195.8,304.7,195.8,296.6z M212.6,313.5c11.6,0,22.4,0,33,0c0-11.2,0-22.1,0-33.3c-10.2,0-20-0.1-29.8,0.1
		c-1.1,0-3.1,1.6-3.1,2.6C212.5,293,212.6,303.1,212.6,313.5z"/>
	<path d="M128.7,355.8c8,0,16-0.1,24,0c6.5,0.1,9.4,3.1,9.4,9.6c0,15.8,0,31.7,0,47.5c0,7-3.1,10-10.2,10c-15.7,0.1-31.3,0.1-47,0
		c-6.9,0-9.9-3.2-9.9-10.2c0-15.7,0-31.3,0-47c0-6.8,2.9-9.8,9.7-9.8C112.7,355.8,120.7,355.8,128.7,355.8z M145.1,372.8
		c-11.2,0-22,0-32.9,0c0,11.2,0,22,0,32.8c11.2,0,22,0,32.9,0C145.1,394.6,145.1,384,145.1,372.8z"/>
	<path d="M229.4,355.8c8,0,16-0.1,24,0c6.4,0.1,9.6,3.1,9.6,9.5c0.1,16,0.1,32-0.1,48c0,6.3-3.3,9.5-9.7,9.5c-16,0.1-32,0.1-48,0
		c-6.4,0-9.4-3.2-9.4-9.7c-0.1-16-0.1-32,0-48c0-6.5,2.9-9.3,9.5-9.4C213.4,355.8,221.4,355.8,229.4,355.8z M212.9,405.7
		c11.2,0,22,0,33,0c0-11.1,0-21.9,0-32.8c-11.1,0-22,0-33,0C212.9,384,212.9,394.8,212.9,405.7z"/>
</g>
</svg>
