<?xml version="1.0" encoding="utf-8"?>
<!-- Generator: Adobe Illustrator 19.0.0, SVG Export Plug-In . SVG Version: 6.00 Build 0)  -->
<svg version="1.1" id="Calque_1" xmlns="http://www.w3.org/2000/svg" xmlns:xlink="http://www.w3.org/1999/xlink" x="0px" y="0px"
	 viewBox="0 0 612 792" style="enable-background:new 0 0 612 792;" xml:space="preserve">
<g>
	<path d="M362,642c-103.6,0-207.2,0-311,0c0-132.3,0-264.7,0-397c2.9-4.3,6.8-5.4,11.9-5.4c72.2,0.1,144.3,0.1,216.5,0.1
		c2.1,0,4.2,0,6.7,0c0-2.5,0-4.3,0-6.1c0-27.7,0.1-55.3-0.1-83c0-5.2,1.3-9.1,6-11.5c85.7,0,171.3,0,257,0c4.5,2.6,5.8,6.6,5.8,11.7
		c-0.1,160-0.1,320.1,0,480.1c0,5-1.6,8.7-5.8,11.2c-23.3,0-46.7,0-70,0c0-24.3,0.1-48.6,0.1-73c0-8.1-2.7-10.9-10.7-10.9
		c-17.8,0-35.7,0-53.5,0c-14.5,0-29,0-43.5,0c-5.9,0-9.5,2.8-9.5,7.9C361.8,591.4,361.9,616.7,362,642z M285.7,625
		c0-123.1,0-245.6,0-368.3c-72.7,0-145.1,0-217.5,0c0,122.9,0,245.5,0,368.2c25.1,0,49.8,0,75.1,0c0-2.1,0-3.8,0-5.6
		c0-16.8,0-33.7,0-50.5c0-7.6,3.1-10.7,10.6-10.7c15,0,30,0,45,0c9,0,11.7,2.6,11.7,11.6c0,16.7,0,33.3,0,50c0,1.7,0.2,3.5,0.2,5.3
		C236.1,625,260.7,625,285.7,625z M395.1,239.4c0-16.6,0-32.5,0-48.5c0-6.9-2.9-9.8-9.6-9.8c-10.3-0.1-20.7-0.1-31,0
		c-6.4,0-9.5,3.1-9.5,9.5c0,49.5,0,99,0,148.5c0,6.5,3,9.6,9.4,9.7c10.5,0.1,21,0.1,31.5,0c6.4-0.1,9.2-3.3,9.3-9.8
		c0-14.2,0-28.3,0-42.5c0-1.9,0-3.9,0-5.9c17.1,0,33.6,0,50.5,0c0,2.2,0,4,0,5.8c0,14.2-0.1,28.3,0,42.5c0,6.8,3,9.8,9.7,9.9
		c10.3,0.1,20.7,0.1,31,0c6.6-0.1,9.6-3.3,9.6-10.1c0-49.2,0-98.3,0-147.5c0-7-3-10-10-10.1c-10.2-0.1-20.3-0.1-30.5,0
		c-6.8,0-9.7,2.9-9.8,9.8c-0.1,14.3,0,28.7,0,43c0,1.8,0,3.6,0,5.6C428.6,239.4,412.2,239.4,395.1,239.4z M369.7,533c8,0,16,0,24,0
		c6.7-0.1,9.9-3,10-9.7c0.1-15.8,0.1-31.6,0-47.5c0-6.8-3.1-9.8-9.8-9.8c-15.8,0-31.6-0.1-47.5,0c-6.8,0-9.9,2.9-9.9,9.7
		c-0.1,15.8-0.1,31.6,0,47.5c0,7,3.2,9.8,10.3,9.9C354.4,533,362,533,369.7,533z M370.3,373.8C370.3,373.8,370.3,373.8,370.3,373.8
		c-8.2,0-16.3-0.1-24.5,0c-6.1,0.1-9.3,2.8-9.3,8.7c-0.2,16.5-0.2,33,0,49.5c0.1,5.8,3.4,8.8,9.2,8.9c16.2,0.1,32.3,0.1,48.5,0
		c6,0,9.3-3.2,9.4-9.3c0.1-16.2,0.1-32.3,0-48.5c0-6.2-3.1-9.1-9.3-9.2C386.3,373.8,378.3,373.8,370.3,373.8z M470.4,533
		c8,0,16,0,24,0c6.8-0.1,9.8-2.9,9.9-9.7c0.1-16,0.1-32,0-48c0-6.4-3.1-9.4-9.6-9.4c-15.8-0.1-31.6-0.1-47.5,0
		c-6.9,0-10,3.1-10,10.1c-0.1,15.7-0.1,31.3,0,47c0,6.9,3.2,9.9,10.3,9.9C455,533,462.7,533,470.4,533z M470.7,373.8
		c-8.2,0-16.3-0.1-24.5,0c-5.8,0.1-9,3.2-9,9c-0.1,16.2-0.1,32.3,0,48.5c0,6.3,3.3,9.5,9.7,9.5c16,0.1,32,0.1,48,0
		c6.3,0,9.4-3.2,9.4-9.7c0.1-16,0.1-32,0-48c0-6.5-2.9-9.3-9.6-9.4C486.7,373.8,478.7,373.8,470.7,373.8z"/>
	<path d="M378,642c0.1-15.8,0.2-31.6,0.3-47.4c0-6.3,0-12.6,0-19.3c11.3,0,22.1,0,33.7,0c0,22.2,0,44.4,0,66.7
		C400.7,642,389.3,642,378,642z"/>
	<path d="M429,642c0-22.1,0-44.2,0-66.7c11,0,21.8,0,33,0c0,22.3,0,44.5,0,66.7C451,642,440,642,429,642z"/>
	<path d="M160.1,315.4c0,7.8,0,15.7,0,23.5c-0.1,6.5-3,9.6-9.4,9.7c-16.2,0.1-32.3,0.1-48.5,0c-6.1-0.1-9.1-3.3-9.2-9.5
		c-0.1-16.2-0.1-32.3,0-48.5c0-5.8,3.1-9,9-9.1c16.3-0.1,32.6-0.2,49,0c6.2,0,9.1,3.2,9.1,9.4C160.2,299.1,160.1,307.3,160.1,315.4z
		"/>
	<path d="M193.9,314.7c0-8-0.1-16,0-24c0.1-5.9,2.9-9.1,8.8-9.1c16.3-0.2,32.6-0.2,49,0c6.3,0.1,9.3,3.3,9.3,9.8c0,15.7,0,31.3,0,47
		c0,7-3,10.2-10,10.2c-15.8,0.1-31.6,0.1-47.5,0c-6.7,0-9.6-3.1-9.7-9.9C193.8,330.7,193.8,322.7,193.9,314.7
		C193.8,314.7,193.8,314.7,193.9,314.7z"/>
	<path d="M126.9,533c-8,0-16,0-24,0c-6.7,0-9.8-3.1-9.8-9.8c-0.1-15.8-0.1-31.7,0-47.5c0-6.7,3.1-9.7,9.8-9.8c16-0.1,32-0.1,48,0
		c6.1,0,9.2,3.1,9.2,9.2c0.1,16.2,0.1,32.3,0,48.5c0,6.2-3.1,9.2-9.2,9.3C142.9,533.1,134.9,533,126.9,533z"/>
	<path d="M227.5,533c-7.8,0-15.7,0-23.5,0c-7.2,0-10.1-2.8-10.1-9.9c-0.1-15.8-0.1-31.7,0-47.5c0-6.7,3-9.7,9.8-9.7
		c15.8,0,31.7,0,47.5,0c6.7,0,9.7,3.1,9.8,9.8c0.1,15.8,0.1,31.7,0,47.5c0,6.6-3.2,9.6-9.9,9.7C243.2,533,235.3,533,227.5,533z"/>
	<path d="M126.8,373.8c7.8,0,15.7,0,23.5,0c6.9,0.1,9.8,2.9,9.8,9.6c0.1,15.8,0.1,31.6,0,47.5c0,7-3.1,9.9-10.2,10
		c-15.7,0.1-31.3,0.1-47,0c-6.8,0-9.9-3.1-9.9-9.8c-0.1-15.8-0.1-31.6,0-47.5c0-6.8,3-9.7,9.7-9.8
		C110.8,373.8,118.8,373.8,126.8,373.8z"/>
	<path d="M193.9,407c0-8-0.1-16,0-24c0.1-6.2,3-9.1,9.2-9.2c16.2-0.1,32.3-0.1,48.5,0c6.1,0,9.3,3.1,9.3,9.2
		c0.1,16.2,0.1,32.3,0,48.5c0,6-3.3,9.3-9.4,9.3c-16.2,0.1-32.3,0.1-48.5,0c-6.1,0-9.2-3.3-9.2-9.3
		C193.8,423.3,193.9,415.2,193.9,407z"/>
	<path d="M362,198c5.5,0,10.6,0,16.1,0c0.1,2,0.2,3.8,0.2,5.5c0,14,0,28,0,42c0,8.1,2.8,10.7,10.9,10.7c20.7,0,41.3,0,62,0
		c8.5,0,11-2.5,11-11c0-14,0-28,0-42c0-1.6,0.1-3.3,0.2-5.2c5.6,0,10.8,0,16.3,0c0,44.5,0,88.8,0,133.4c-5.2,0-10.4,0-16.3,0
		c-0.1-1.6-0.2-3.4-0.2-5.1c0-14.2,0-28.3,0-42.5c0-8-2.8-10.8-10.8-10.8c-20.8,0-41.7,0-62.5,0c-7.6,0-10.5,3-10.5,10.7
		c-0.1,14,0,28,0,42c0,1.8,0,3.6,0,5.8c-5.6,0-10.8,0-16.4,0C362,287.1,362,242.8,362,198z"/>
	<path d="M386.5,515.9c-10.9,0-21.7,0-32.9,0c0-10.9,0-21.7,0-32.9c10.9,0,21.7,0,32.9,0C386.5,493.8,386.5,504.5,386.5,515.9z"/>
	<path d="M386.7,423.8c-11.3,0-22.1,0-33.2,0c0-10.9,0-21.7,0-32.9c10.9,0,22,0,33.2,0C386.7,401.9,386.7,412.6,386.7,423.8z"/>
	<path d="M454.3,483c11,0,21.8,0,32.9,0c0,11,0,21.9,0,33c-11.1,0-21.8,0-32.9,0C454.3,505.1,454.3,494.3,454.3,483z"/>
	<path d="M487.3,390.7c0,11.1,0,21.9,0,32.9c-11,0-21.9,0-33,0c0-10.9,0-21.8,0-32.9C465.2,390.7,475.9,390.7,487.3,390.7z"/>
</g>
</svg>
