<?xml version="1.0" encoding="utf-8"?>
<!-- Generator: Adobe Illustrator 19.0.0, SVG Export Plug-In . SVG Version: 6.00 Build 0)  -->
<svg version="1.1" id="Calque_1" xmlns="http://www.w3.org/2000/svg" xmlns:xlink="http://www.w3.org/1999/xlink" x="0px" y="0px"
	 viewBox="0 0 612 792" style="enable-background:new 0 0 612 792;" xml:space="preserve">
<style type="text/css">
	.st0{fill:#010101;}
</style>
<g>
	<path d="M311,118c4.5,1.4,7,4.6,8.9,8.8c3.3,7.2,7.2,14.2,10.5,21.5c1.4,3.1,3.2,3.9,6.4,3.8c10.3-0.2,20.7,0,31-0.1
		c4.6-0.1,8.4,1.2,10,5.8c1.6,4.8-0.7,8.2-4.6,11c-8.5,6.2-16.7,12.6-25.2,18.8c-2.2,1.6-2.8,3-2.2,5.7c2.3,10.7,4.2,21.5,6.5,32.3
		c1,4.4,0.3,8-3.6,10.4c-3.9,2.4-7.6,1.3-11-1.4c-8.2-6.2-16.6-12.3-24.7-18.6c-2.1-1.6-3.4-1.7-5.5-0.1
		c-8.2,6.3-16.5,12.4-24.7,18.6c-3.5,2.6-7,3.9-11,1.5c-4-2.4-4.6-6.1-3.7-10.4c2.2-10.7,4.1-21.6,6.5-32.3c0.6-2.8,0.1-4.2-2.1-5.8
		c-8.6-6.3-17-12.8-25.6-19.1c-3.8-2.8-5.8-6.1-4.3-10.7c1.5-4.6,5.3-5.9,9.9-5.9c10.7,0.1,21.3-0.1,32,0.1c2.8,0.1,4.1-0.9,5.2-3.3
		c3.7-7.8,7.9-15.4,11.5-23.2c1.6-3.5,4-5.8,7.1-7.6C309,118,310,118,311,118z"/>
	<path d="M293,630c0-26.9,0.1-53.9-0.1-80.8c0-3.9,1.1-4.7,4.7-4.5c8.6,0.3,17.3,0.2,25.9,0c2.8-0.1,3.7,0.6,3.6,3.5
		c-0.1,27.3-0.1,54.5-0.1,81.8C315.7,630,304.3,630,293,630z"/>
	<path d="M554,612.9c-5.6,0.4-11.3-0.2-17,0.2c-4.2,0.3-5.2-0.9-5.2-5.1c0.2-62.8,0.1-125.6,0.1-188.5c0-8.6-2.8-11.4-11.3-11.4
		c-34.3,0-68.7-0.1-103,0.1c-4.6,0-5.3-1.3-5.3-5.5c0.2-45,0.1-90,0.1-135c0-11.2-1.9-13.1-13-13.2c-60,0-120,0-180,0
		c-9.4,0-11.8,2.4-11.8,11.9c0,44.3,0,88.6,0,133c0,8.7,0,8.7-8.5,8.7c-33.5,0-67,0-100.5,0c-7.6,0-10.6,3-10.7,10.6
		c0,9.5,0,19,0,28.5c0,53.8,0,107.6,0.1,161.5c0,3.4-0.7,4.6-4.3,4.4c-6.1-0.3-12.3,0.2-18.5-0.2c-5.3-0.3-9,1.6-11.4,6.1
		c0,1.7,0,3.3,0,5c0.8,3.2,2.8,5.2,6,6c72,0,144,0,216,0c1.6-1.8,1.6-4,1.6-6.1c0.1-5,0-10,0-15c0-23.2-0.1-46.3,0-69.5
		c0-7.2,2-9.6,8.4-9.7c16.2-0.2,32.3-0.2,48.5,0c5.2,0.1,7.2,2.1,7.7,7.2c0.2,2,0.1,4,0.1,6c0,26.3,0,52.6,0,79
		c0,2.8-0.5,5.7,1.6,8.1c72,0,144,0,216,0c3.4-0.6,5.4-2.6,6-6c0-2,0-4,0-6C563,614,559.1,612.5,554,612.9z M207.8,519.5
		c0,29.5-0.1,59,0.1,88.4c0,3.6-0.4,5.1-4.7,5.1c-31-0.2-62-0.2-92.9-0.1c-3.6,0-5.1-0.5-5.1-4.7c0.2-59.3,0.2-118.6,0-177.9
		c0-4.5,1.2-5.5,5.5-5.4c30.6,0.2,61.3,0.2,91.9,0c4.7,0,5.4,1.4,5.3,5.6C207.7,460.2,207.8,489.9,207.8,519.5z M241.9,298.1
		c0-6.2,3-9.3,9.1-9.4c11-0.1,22-0.1,33,0c6,0.1,9,3.3,9,9.5c0,11,0,22,0,33c0,10.8,0,21.7,0,32.5c0,7-3.1,10.2-9.9,10.2
		c-10.5,0-21,0.1-31.5,0c-6.6,0-9.7-3.2-9.7-9.9C241.9,342.1,241.9,320.1,241.9,298.1z M293,466.1c0,7.1-2.9,10.1-9.9,10.2
		c-10.5,0.1-21,0.1-31.5,0c-6.8,0-9.7-3-9.7-9.8c0-22-0.1-44,0-66c0-6.3,3.2-9.4,9.6-9.5c10.7-0.1,21.3-0.1,32,0
		c6.2,0,9.4,3.3,9.5,9.6c0.1,11,0,22,0,33c0,0,0,0,0,0C293,444.5,293,455.3,293,466.1z M327.1,298.4c0-6.4,3.1-9.6,9.4-9.7
		c10.8-0.1,21.7-0.1,32.5,0c6.1,0.1,9.2,3.1,9.2,9.3c0.1,11.2,0,22.3,0,33.5c0,10.8,0.1,21.7,0,32.5c0,7-3.1,10-10.1,10
		c-10.3,0-20.7,0-31,0c-6.9,0-10-3.2-10.1-10.1C327.1,342.1,327.1,320.2,327.1,298.4z M378.2,466.7c0,6.7-3,9.6-9.9,9.6
		c-10.5,0.1-21,0.1-31.5,0c-6.7-0.1-9.8-3.2-9.8-9.8c-0.1-11,0-22,0-33c0-10.5,0-21,0-31.5c0-7.9,3-11,10.7-11c10.2,0,20.3,0,30.5,0
		c6.7,0,9.9,3,9.9,9.7C378.3,422.7,378.3,444.7,378.2,466.7z M510.7,613c-31.3-0.2-62.6-0.2-93.9,0c-3.6,0-4.3-1.1-4.3-4.5
		c0.1-59.6,0.1-119.2,0-178.9c0-3.7,0.8-4.7,4.7-4.7c31.1,0.2,62.3,0.2,93.4,0c3.9,0,4.6,1.2,4.5,4.8c-0.1,29.8-0.1,59.6-0.1,89.4
		s-0.1,59.6,0.1,89.4C515,612.1,514.2,613.1,510.7,613z"/>
	<path d="M182,476.5c0,8,0,16,0,24c0,6.8-2.9,10-9.6,10c-10.7,0.1-21.3,0.2-32,0c-6.6-0.1-9.6-3.3-9.6-10c0-16,0-32,0-47.9
		c0-7.3,3-10.3,10.3-10.4c10.2-0.1,20.3-0.1,30.5,0c7.3,0,10.3,3.2,10.3,10.3C182.1,460.5,182,468.5,182,476.5z"/>
	<path d="M182,561.7c0,8,0,16,0,24c0,7.2-3.1,10.2-10.4,10.2c-10.2,0-20.3,0-30.5,0c-7.1,0-10.2-3-10.2-9.9
		c-0.1-16.3-0.1-32.6,0-48.9c0-6.1,3-9.3,9.2-9.3c11-0.1,22-0.1,33,0c5.8,0.1,8.9,3.2,8.9,9C182.1,545.1,182,553.4,182,561.7z"/>
	<path d="M489.2,476.5c0,8,0,16,0,24c0,7-3,10-10.1,10c-10.3,0.1-20.6,0.1-31,0c-7-0.1-10.1-3.2-10.1-10.1c0-16-0.1-32,0-47.9
		c0-7.2,3.1-10.3,10.4-10.3c10.3-0.1,20.6-0.1,31,0c6.6,0.1,9.7,3.2,9.8,9.9C489.2,460.2,489.2,468.4,489.2,476.5z"/>
	<path d="M489.2,562.1c0,8,0.1,16,0,24c-0.1,6.6-3.2,9.8-9.8,9.8c-10.5,0.1-21,0.1-31.5,0c-6.6,0-9.8-3.3-9.9-9.8
		c-0.1-16.3-0.1-32.6,0-48.9c0-6.3,3.2-9.4,9.6-9.5c10.7-0.1,21.3-0.1,32,0c6.5,0.1,9.5,3,9.5,9.4
		C489.3,545.5,489.2,553.8,489.2,562.1z"/>
	<path class="st0" d="M344.1,433.5c0-7.1,0.1-14.3-0.1-21.4c-0.1-2.8,0.3-4.3,3.7-4c4.3,0.4,9.8-1.3,12.5,0.8
		c2.8,2.3,0.8,8.1,0.9,12.3c0.1,11.5-0.1,22.9,0.1,34.4c0.1,3.2-0.9,3.8-3.9,3.8c-13.3,0.1-13.3,0.2-13.3-12.9
		C344.1,442.1,344.1,437.8,344.1,433.5z"/>
	<path class="st0" d="M361.2,331.5c0,7.3-0.1,14.6,0.1,21.9c0.1,2.8-0.8,3.5-3.6,3.6c-13.6,0.2-13.5,0.3-13.5-13.1
		c0-11.3,0.1-22.6-0.1-33.9c-0.1-3.6,1-4.7,4.4-4.3c4.1,0.5,9.4-1.7,12,0.8c2.5,2.5,0.6,7.9,0.7,12
		C361.3,322.9,361.2,327.2,361.2,331.5z"/>
	<path class="st0" d="M258.9,331.4c0-7.3,0.1-14.6,0-21.9c-0.1-2.6,0.3-4,3.4-3.7c4.4,0.4,10.1-1.8,12.9,0.9
		c2.6,2.5,0.7,8.2,0.7,12.5c0.1,11.1-0.2,22.3,0.1,33.4c0.1,3.9-1.1,4.9-4.7,4.5c-4.1-0.5-9.5,1.8-11.9-1c-2-2.4-0.5-7.6-0.6-11.6
		C258.9,340.1,258.9,335.8,258.9,331.4z"/>
	<path class="st0" d="M276,433.6c0,7.3-0.1,14.6,0.1,21.9c0.1,2.6-0.4,4-3.5,3.7c-3.5-0.3-7-0.3-10.5,0c-2.8,0.2-3.3-1-3.2-3.4
		c0.1-14.8,0.1-29.6,0-44.4c0-2.4,0.4-3.4,3.2-3.5c13.9-0.5,13.9-0.6,13.9,13.2C276,425.3,276,429.5,276,433.6z"/>
</g>
</svg>
