<?xml version="1.0" encoding="utf-8"?>
<!-- Generator: Adobe Illustrator 19.0.0, SVG Export Plug-In . SVG Version: 6.00 Build 0)  -->
<svg version="1.1" id="Calque_1" xmlns="http://www.w3.org/2000/svg" xmlns:xlink="http://www.w3.org/1999/xlink" x="0px" y="0px"
	 viewBox="0 0 612 792" style="enable-background:new 0 0 612 792;" xml:space="preserve">
<style type="text/css">
	.st0{fill:#FDDB09;}
	.st1{fill:#FB9708;}
	.st2{fill:#FEFEFE;}
	.st3{fill:#FDFDFD;}
	.st4{fill:#54C8FB;}
	.st5{fill:#53C7FA;}
</style>
<g>
	<path d="M549.1,588.6c-5-0.1-10,0-15-0.1c-8.7,0-8.7,0-8.7-8.9c0-83.6-0.1-167.2,0.1-250.8c0.1-23.9-5.9-45.9-19.5-65.5
		c-20-28.7-47.1-46-82.3-50c-9-1-18-0.7-26.9-0.9c-7.3-0.1-7.3-0.1-7.4-7.2c0-2.3,0.1-4.7-0.1-7c-0.8-11.1-9.6-19.5-20.6-19.8
		c-3-0.1-6-0.1-9,0c-3.2,0.1-4.6-1.4-5.5-4.5c-4.2-15-12.7-25.8-29.3-28c-3.7,0-7.3,0-11,0c-14,1.9-22.3,10.6-28,22.8
		c-1.4,3.1,0,7.6-3.9,9.2c-3.2,1.3-6.9,0.5-10.4,0.5c-12.8,0.2-21.3,8.2-22.1,20.9c-0.2,2.8-0.1,5.7-0.1,8.5
		c0.1,3.1-1.3,4.6-4.5,4.6c-5,0-10,0-15,0c-21.1,0-41.1,4.4-59.2,15.5c-36.6,22.4-56.8,55-57.2,98.1c-0.6,84.1-0.2,168.3-0.2,252.4
		c0,1.8-0.1,3.7,0,5.5c0.1,3.1-1.3,4.5-4.5,4.5c-5.8,0-11.7-0.1-17.5,0c-7,0.1-8.3,1.1-10.5,7.5c0,1.7,0,3.3,0,5
		c1.5,5.6,5.6,7.4,10.9,7.4c12.6,0,25.3,0.1,37.9,0c3.3,0,4.6,0.4,3.2,4.2c-1.9,5-2.9,10.2-1.9,15.7c2.7,15.7,13.8,26.8,29.9,29.8
		c3.3,0,6.7,0,10,0c3.6-1.1,7.5-1,11-2.8c15.6-8.2,22.8-24.8,17.9-41.8c-1.3-4.5-1.1-4.7,3.7-4.9c1.3,0,2.7,0,4,0
		c51.8,0,103.7,0,155.5,0c24,0,48,0,72,0c5.7,0,5.7,0,4.1,5.2c-2.6,8.7-2,17,2.2,25.2c5.3,10.3,13.3,16.8,24.7,19.1c4,0,8,0,12,0
		c2.8-1,5.9-0.5,8.7-1.9c15.3-7.3,26.4-25.8,19.6-43.1c-1.7-4.5-1.6-4.6,3.3-4.6c12.5,0,25,0,37.5,0c5.4,0,9.4-1.8,10.9-7.4
		c0-2,0-4,0-6C556.9,590.3,553.5,588.7,549.1,588.6z M507.1,584.1c0,4.2-0.6,5.8-5.3,5.6c-8-0.5-16-0.1-24.7-0.1
		c6.2-11.2,4.2-22.9,4.2-34.4c0.2-32.8-0.6-65.7,0.3-98.5c0.6-22-18.6-39.5-37.6-37.5c-4.2,0.4-5.2-0.9-5.1-5.1
		c0.3-19.3,0.3-38.7,0-58c-0.1-4.7,1.4-5.8,5.5-5.2c1.1,0.2,2.3,0.1,3.5,0c4.7-0.5,8.1-4.2,8.1-8.6c0-4.7-3.6-8.3-8.7-8.4
		c-18-0.2-36-0.3-54-0.3c-15.5,0-31,0.2-46.5,0.3c-6.4,0-10,3.2-10,8.5c0,5.3,3.7,8.4,10.1,8.6c6.9,0.1,6.9,0.1,6.9,6.8
		c0,19-0.1,38,0.1,57c0,3.4-0.7,4.7-4.3,4.4c-7.2-0.6-14.2,0.6-21.4,4.6c0-13.2,0.1-25.5,0-37.9c-0.1-19.2-15.8-34.8-35-34.9
		c-7.5-0.1-7.5-0.1-7.5-7.7c0-18.7,0.1-37.3-0.1-56c0-3.7,1-5.3,4.7-4.6c1,0.2,2,0.1,3,0c5.8-0.3,9.6-3.8,9.4-8.8
		c-0.1-4.9-3.7-8.2-9.4-8.3c-33.5-0.5-67-0.5-100.5,0c-5.8,0.1-9.6,3.8-9.4,8.8c0.2,4.8,3.8,8,9.4,8.3c7.5,0.4,7.6,0.4,7.6,8.1
		c0,18.5-0.1,37,0.1,55.5c0.1,4.1-1.2,4.8-5,4.8c-18.9-0.1-32.3,9.6-36.7,26c-0.7,2.8-0.8,5.6-0.8,8.4c0,62.3,0,124.7-0.1,187
		c0,5.9,1.6,11.4,4.3,17.1c-9.5,0-18.4-0.1-27.4,0c-3,0-2.5-1.9-2.5-3.7c0-11.3,0-22.7,0-34c0-75.5-0.1-151,0-226.5
		c0.1-45.5,29.3-81.8,73.2-91.8c8-1.8,16.1-2.3,24.3-2.3c47.7,0.1,95.3,0.3,143,0.3c16.8,0,33.6-1,50.5,0.3
		c42.4,3.3,78.7,38.5,82.9,80.8c2.1,21.1,0.8,42.3,0.9,63.4C507.1,445.4,506.9,514.8,507.1,584.1z"/>
	<path class="st0" d="M290,589c-4.3,0.1-8.6,0.2-13,0.2c-28.6,0-57.3,0-85.9,0c-11.1,0-16.2-5.1-16.2-16.1c0-62.8,0-125.5,0-188.3
		c0-11.5,5.4-16.9,16.8-16.9c32.5,0,64.9,0.1,97.4,0.2c4.8,3.9,8,14.9,5.9,20.3c-0.4,1.1-1,2.2-2.5,1.6c-3.6-2.9-7.6-3.6-12.1-3.6
		c-25.2,0.1-50.3,0-75.5,0.1c-9.6,0-11.3,1.7-11.3,11.4c0,9-0.1,18,0,27c0.1,7.1,2.2,9.4,9.2,9.4c26.8,0.1,53.6,0,80.4,0.1
		c4,0,6.7-2.5,10.1-3.7c2.9,1.9,2.2,5,2.2,7.7c0.1,24.4,0,48.9,0,73.3c0,20.3,0.1,40.6,0,60.8C295.5,578.6,294.9,584.6,290,589z"/>
	<path class="st0" d="M443,589c-18.8,0.1-37.6,0.2-56.4,0.3c-14.3,0-28.6,0.1-43,0c-10.1-0.1-15.5-5.4-15.5-15.4
		c-0.1-40.5-0.1-80.9,0-121.4c0-10,5.4-16.2,15-16.3c33-0.1,65.9,0,98.9,0.1c5,3.9,8,13.7,5.9,19.2c-0.4,1.2-1.1,2-2.5,1.8
		c-4.4-2.2-9.1-2.8-14-2.7c-24.1,0.1-48.3,0-72.4,0.1c-10.1,0-12.3,2.3-12.4,12.4c0,8.5-0.1,17,0,25.5c0.1,7.8,2.2,10,9.8,10
		c26.8,0.1,53.6,0,80.4,0.1c3.6,0,6.3-1.9,9.5-2.8c2.5,1.1,2.3,3.5,2.3,5.6c0.1,23.5,0.2,47-0.1,70.4
		C448.4,580.7,447.8,585.9,443,589z"/>
	<path class="st1" d="M290,589c4.2-7.8,4.1-16.2,4.1-24.7c-0.1-42.5,0-85-0.1-127.5c0-2,0.4-4-0.5-5.9c-1.7-13.6-1.6-27.2,0-40.8
		c2.1-8-0.7-15.1-4.4-22c2.8,0,5.7-0.3,8.5,0c8.5,1.1,13.5,7.4,13.5,16.9c0,29.1,0,58.3,0,87.4c0,32.5,0,64.9,0,97.4
		C311,585.7,306,590.3,290,589z"/>
	<path class="st2" d="M370.8,384.7c0-9.8,0.1-19.7-0.1-29.5c0-3,0.3-4.3,3.9-4.3c14.5,0.2,29,0.2,43.5,0c3.2,0,3.8,0.9,3.8,3.9
		c-0.1,20.2-0.2,40.3,0,60.5c0,3.3-1.1,3.8-4,3.7c-14.5-0.1-29-0.2-43.5,0c-3.2,0-3.8-1-3.8-3.9C370.9,405,370.8,394.8,370.8,384.7z
		"/>
	<path class="st3" d="M268.4,316.6c0,10-0.1,20,0.1,30c0.1,3.3-1,4.2-4.2,4.2c-14.3-0.2-28.6-0.2-42.9,0c-3.4,0-4.1-1.2-4.1-4.3
		c0.1-20,0.1-39.9,0-59.9c0-3.3,1.2-3.8,4.1-3.7c14.5,0.1,29,0.2,43.4,0c3.2,0,3.9,0.9,3.8,3.9C268.3,296.7,268.4,306.7,268.4,316.6
		z"/>
	<path class="st1" d="M443,589c3-5.2,4.2-10.7,4.1-16.7c-0.1-22.2,0-44.3-0.1-66.5c0-2,0.4-4-0.6-5.9c-0.9-1.3-0.9-2.8-0.9-4.3
		c0-12.2,0.1-24.4,0.1-36.7c0-0.7,0.2-1.3,0.6-1.9c2.7-7.8-0.4-14.4-4.1-20.8c3.7-0.3,7.3-0.4,10.9,0.6c6.3,1.7,9.8,5.9,11,12.1
		c0.3,1.5,0.3,3,0.3,4.5c0,39.9,0,79.8,0,119.7c0,8-3,13.1-8.9,15.2C451.3,589.8,447.1,589.4,443,589z"/>
	<path class="st0" d="M319.2,214c-15.5,0-30.9-0.1-46.4,0.1c-3.4,0-4.5-0.7-4.5-4.3c0.1-12.7-0.1-12.7,12.7-12.7
		c28.3,0,56.5,0.1,84.8-0.1c3.9,0,5.1,1,5,5c-0.2,12.1,0,12-12.2,12C345.5,214,332.4,214,319.2,214z"/>
	<path class="st0" d="M166.4,607c10.6,0,16.7,6.1,16.7,16.7c0,10.8-6.2,17.2-16.9,17.2c-10.5,0-17.2-6.6-17.1-17.1
		C149.2,613.2,155.6,607,166.4,607z"/>
	<path class="st0" d="M473.2,607c10.5,0,16.7,6.3,16.8,16.8c0,10.6-6.5,17.2-17.1,17.2c-10.6,0-17-6.5-16.9-17.2
		C456,612.9,462.1,607,473.2,607z"/>
	<path class="st0" d="M319.5,180c-4.6,0-9.3-0.1-13.9,0c-2.5,0.1-3-0.8-2.8-3.2c0.8-8.3,7.7-14,17.1-13.8c9.4,0.2,16,6.1,16.6,14.5
		c0.1,2.3-0.7,2.5-2.5,2.5C329.2,180,324.4,180,319.5,180z"/>
	<path d="M293.4,390.1c1,13.6,1,27.2,0,40.8c-2,3.8-5.2,5.2-9.4,5.2c-27.5-0.1-54.9,0-82.4-0.1c-6.7,0-9.7-3-9.7-9.8
		c-0.1-10.3-0.1-20.6,0-31c0-7.4,2.9-10.4,10.2-10.4c27.3,0,54.6,0,81.9-0.1C288.2,384.9,291.4,386.3,293.4,390.1z"/>
	<path d="M446.1,457.1c1.5,3.1,1.1,6.4,1.1,9.7c-0.1,9.3,0,18.5-0.1,27.8c0,1.8-0.5,3.6-0.8,5.4c-2.2,3.5-5.4,4.4-9.4,4.4
		c-27.1-0.1-54.2,0-81.4-0.1c-7.7,0-10.6-2.9-10.6-10.5c0-10,0-20,0-30c0-7.6,3.1-10.7,10.5-10.7c27.1,0,54.2,0,81.4,0
		C440.7,453.1,443.8,454.2,446.1,457.1z"/>
	<path class="st4" d="M243,402c10.2,0,20.3,0.1,30.5-0.1c2.8,0,3.8,0.8,3.6,3.6c-0.3,4.3,1.3,9.9-0.8,12.5
		c-2.3,2.8-8.1,0.9-12.4,0.9c-17,0.1-34,0-50.9,0.1c-3.3,0-4.4-0.9-4.1-4.1c0.3-4.1-1.3-9.5,0.8-12.1c2.2-2.7,7.8-0.7,11.9-0.8
		C228.7,401.9,235.8,402,243,402z"/>
	<path class="st5" d="M396.5,470.2c10,0,20,0.1,30-0.1c2.8,0,3.7,0.7,3.8,3.6c0.4,13.5,0.5,13.5-12.7,13.5c-17,0-34-0.1-51,0.1
		c-3.3,0-4.6-0.6-4.6-4.3c0-12.8-0.1-12.8,12.5-12.8C381.9,470.2,389.2,470.2,396.5,470.2z"/>
</g>
</svg>
