<?xml version="1.0" encoding="utf-8"?>
<!-- Generator: Adobe Illustrator 19.0.0, SVG Export Plug-In . SVG Version: 6.00 Build 0)  -->
<svg version="1.1" id="Calque_1" xmlns="http://www.w3.org/2000/svg" xmlns:xlink="http://www.w3.org/1999/xlink" x="0px" y="0px"
	 viewBox="0 0 612 792" style="enable-background:new 0 0 612 792;" xml:space="preserve">
<g>
	<path d="M546,510c0,3,0,6,0,9c-4.3,11.4-12.2,17.4-24.7,16.8c-4-0.2-8,0-12,0c-10.1,0-20.3,0-30.7,0c0.4,1.8,0.6,3.1,1,4.3
		c9.5,34.2-10.6,69.6-44.9,78.7c-2.9,0.8-5.7,1.5-8.6,2.2c-5.3,0-10.7,0-16,0c-1.2-0.4-2.5-0.8-3.7-1.1
		c-34.1-6.2-57.3-39.4-51.2-73.5c0.6-3.4,1.6-6.7,2.4-10.4c-45.1,0-89.8,0-135,0c0.5,1.9,1,3.5,1.4,5c8.8,33.7-11.1,68.3-44.7,77.7
		c-3,0.8-6.1,1.5-9.1,2.3c-5.3,0-10.7,0-16,0c-0.9-0.3-1.8-0.8-2.8-0.9c-35.1-6.1-58.4-39.2-52.2-74.2c0.6-3.2,1.5-6.4,2.5-10.2
		c-2.1,0-3.7,0-5.3,0c-11.7,0-23.3-0.4-35,0.1c-13.2,0.6-22.6-4-27.2-16.9c0-3,0-6,0-9c4.3-12.7,13.3-18,26.5-17.1
		c5.2,0.4,10.5,0.1,16.2,0.1c0-1.9,0-3.2,0-4.5c0-26.7-0.3-53.3,0.1-80c0.3-19-0.1-38.2,3-56.8c10.7-64.3,45-113.2,100.1-147.8
		c2.4-1.5,3.4-3.1,3.3-6c-0.2-8.3-0.2-16.7,0-25c0.5-29,18.8-53.3,46.2-61.4c3.1-0.9,6.3-1.7,9.5-2.6c34,0,68,0,102,0
		c0.7,0.3,1.5,0.8,2.2,0.9c27.2,5,47.7,24.6,52.2,51.7c1.9,11.7,1.1,23.9,1.3,35.9c0,3.2,1.1,4.9,3.8,6.7
		c9.5,6.5,19.2,12.7,27.9,20.2c47.8,41.8,73.4,94.4,74.7,158c0.7,34.8,0.2,69.7,0.2,104.5c0,1.9,0,3.8,0,6c6,0,11.2,0.3,16.3-0.1
		C532.7,492,541.7,497.3,546,510z M226,322.8c-0.9-0.4-1.2-0.5-1.5-0.6c-13-2-20.5-10.9-19.7-23.2c0.8-11.3,10-19.2,22.6-19.3
		c11.3-0.1,22.7,0,34,0c30.8,0,61.7-0.1,92.5,0.1c11.7,0.1,20.6,8.6,21.2,19.7c0.6,11.8-6.9,20.9-18.6,22.6
		c-0.8,0.1-1.5,0.4-2.5,0.6c0,14.7-0.1,29.2,0.2,43.7c0,1.3,2,3.1,3.5,3.8c25.5,12.2,38.7,32.3,39.1,60.5
		c0.2,18.8,0.1,37.7,0.1,56.5c0,1.8,0,3.5,0,5.5c21.5,0,42.5,0,63.6,0c0.1-1.5,0.3-2.8,0.3-4.1c0-34,0.5-68-0.2-102
		c-0.3-13.4-1.8-27-4.8-40.1c-20.5-89.5-112.6-147.2-202-126.9c-79.7,18-134.2,86.2-134.5,168.5c-0.1,33.3,0,66.7,0,100
		c0,1.5,0.2,2.9,0.3,4.4c21.4,0,42.4,0,63.7,0c0-20.7-0.1-41,0.1-61.4c0-4.8,0.3-9.7,1.3-14.4c4.6-21.9,17.5-37.3,37.8-46.6
		c1.5-0.7,3.5-2.5,3.5-3.8C226.1,352,226,337.5,226,322.8z M353.9,182.9c0-4.6,0.3-8.2,0-11.8c-0.9-10.6-9.5-19.1-20.1-19.2
		c-29.1-0.2-58.3-0.2-87.4,0c-9.5,0.1-17.4,6.4-19.5,15.7c-1.1,4.7-0.8,9.8-1.3,15.5C268.8,169.8,311.1,169.8,353.9,182.9z
		 M269.1,322.5c0,14.4,0,28.3,0,42.2c14.1,0,27.9,0,41.8,0c0-14.2,0-28,0-42.2C296.9,322.5,283.2,322.5,269.1,322.5z"/>
</g>
</svg>
