<?xml version="1.0" encoding="utf-8"?>
<!-- Generator: Adobe Illustrator 19.0.0, SVG Export Plug-In . SVG Version: 6.00 Build 0)  -->
<svg version="1.1" id="Calque_1" xmlns="http://www.w3.org/2000/svg" xmlns:xlink="http://www.w3.org/1999/xlink" x="0px" y="0px"
	 viewBox="0 0 612 792" style="enable-background:new 0 0 612 792;" xml:space="preserve">
<g>
	<path d="M262,101c34,0,68,0,102,0c0.7,0.3,1.5,0.8,2.2,0.9c27.2,5,47.7,24.6,52.2,51.7c1.9,11.7,1.1,23.9,1.3,35.9
		c0,3.2,1.1,4.9,3.8,6.7c9.5,6.5,19.2,12.7,27.9,20.2c47.8,41.8,73.4,94.4,74.7,158c0.7,34.8,0.2,69.7,0.2,104.5c0,1.9,0,3.8,0,6
		c6,0,11.2,0.3,16.3-0.1c13.2-0.9,22.1,4.4,26.5,17.1c0,3,0,6,0,9c-4.3,11.4-12.2,17.4-24.7,16.8c-4-0.2-8,0-12,0
		c-10.1,0-20.3,0-30.7,0c0.4,1.8,0.6,3.1,1,4.3c9.5,34.2-10.6,69.6-44.9,78.7c-2.9,0.8-5.7,1.5-8.6,2.2c-5.3,0-10.7,0-16,0
		c-1.2-0.4-2.5-0.8-3.7-1.1c-34.1-6.2-57.3-39.4-51.2-73.5c0.6-3.4,1.6-6.7,2.4-10.4c-45.1,0-89.8,0-135,0c0.5,1.9,1,3.5,1.4,5
		c8.8,33.7-11.1,68.3-44.7,77.7c-3,0.8-6.1,1.5-9.1,2.3c-5.3,0-10.7,0-16,0c-0.9-0.3-1.8-0.8-2.8-0.9c-35.1-6.1-58.4-39.2-52.2-74.2
		c0.6-3.2,1.5-6.4,2.5-10.2c-2.1,0-3.7,0-5.3,0c-11.7,0-23.3-0.4-35,0.1c-13.2,0.6-22.6-4-27.2-16.9c0-3,0-6,0-9
		c4.3-12.7,13.3-18,26.5-17.1c5.2,0.4,10.5,0.1,16.2,0.1c0-1.9,0-3.2,0-4.5c0-26.7-0.3-53.3,0.1-80c0.3-19-0.1-38.2,3-56.8
		c10.7-64.3,45-113.2,100.1-147.8c2.4-1.5,3.4-3.1,3.3-6c-0.2-8.3-0.2-16.7,0-25c0.5-29,18.8-53.3,46.2-61.4
		C255.6,102.6,258.8,101.9,262,101z M483.5,484.7c0.1-1.5,0.2-2.4,0.2-3.4c0-34.3,0.4-68.7-0.2-103c-0.3-13.4-1.8-27-4.8-40
		C458.1,249.2,365.9,191.5,277,211.7c-79.8,18.1-134.3,86.1-134.7,168.3c-0.2,33.3,0,66.7,0,100c0,1.6,0,3.2,0,4.7
		c7.6,0,14.3,0,21.5,0c0-2.6,0-4.9,0-7.2c0-32.8,0-65.7,0-98.5c0-13.1,9-21.9,22.1-21.9c3.5,0,7,0,10.5,0c10.3,0,20.6,0,31.4,0
		c0-7.1-0.1-13.8,0-20.4c0.3-25.5,18.5-43.5,44.1-43.6c27.7-0.1,55.3-0.1,83,0.1c4.1,0,8.4,0.5,12.3,1.6c18.4,5.1,30.6,20.9,31,40.1
		c0.2,7.3,0,14.6,0,22.2c13.8,0,27,0,40.1,0c15.4,0,23.9,8.3,23.9,23.6c0,32.7,0,65.3,0,98c0,2,0,3.9,0,6.1
		C469.5,484.7,476.3,484.7,483.5,484.7z M377,174.9c0-4.3,0.1-7.6,0-10.9c-0.6-11.3-9.4-20.1-20.7-20.2c-28.8-0.2-57.6-0.1-86.4,0
		c-10.4,0.1-18.9,7.5-20.4,17.7c-0.6,4.2-0.1,8.5-0.1,13.4C291.9,161.7,334.2,161.8,377,174.9z M270.5,356.7c28.6,0,56.7,0,84.9,0
		c0-7,0-13.8,0-20.5c-28.5,0-56.6,0-84.9,0C270.5,343.2,270.5,349.8,270.5,356.7z"/>
</g>
</svg>
