<?xml version="1.0" encoding="utf-8"?>
<!-- Generator: Adobe Illustrator 19.0.0, SVG Export Plug-In . SVG Version: 6.00 Build 0)  -->
<svg version="1.1" id="Calque_1" xmlns="http://www.w3.org/2000/svg" xmlns:xlink="http://www.w3.org/1999/xlink" x="0px" y="0px"
	 viewBox="0 0 612 792" style="enable-background:new 0 0 612 792;" xml:space="preserve">
<path d="M557.6,583.5c-5-0.1-10,0-15-0.1c-8.7,0-8.7,0-8.7-8.9c0-83.6-0.1-167.2,0.1-250.8c0.1-23.9-5.9-45.9-19.5-65.5
	c-20-28.7-47.1-46-82.3-50c-9-1-18-0.7-26.9-0.9c-7.3-0.1-7.3-0.1-7.4-7.2c0-2.3,0.1-4.7-0.1-7c-0.8-11.1-9.6-19.5-20.6-19.8
	c-3-0.1-6-0.1-9,0c-3.2,0.1-4.6-1.4-5.5-4.5c-4.2-15-12.7-25.8-29.3-28c-3.7,0-7.3,0-11,0c-14,1.9-22.3,10.6-28,22.8
	c-1.4,3.1,0,7.6-3.9,9.2c-3.2,1.3-6.9,0.5-10.4,0.5c-12.8,0.2-21.3,8.2-22.1,20.9c-0.2,2.8-0.1,5.7-0.1,8.5c0.1,3.1-1.3,4.6-4.5,4.6
	c-5,0-10,0-15,0c-21.1,0-41.1,4.4-59.2,15.5c-36.6,22.4-56.8,55-57.2,98.1c-0.6,84.1-0.2,168.3-0.2,252.4c0,1.8-0.1,3.7,0,5.5
	c0.1,3.1-1.3,4.5-4.5,4.5c-5.8,0-11.7-0.1-17.5,0c-7,0.1-8.3,1.1-10.5,7.5c0,1.7,0,3.3,0,5c1.5,5.6,5.6,7.4,10.9,7.4
	c12.6,0,25.3,0.1,37.9,0c3.3,0,4.6,0.4,3.2,4.2c-1.9,5-2.9,10.2-1.9,15.7c2.7,15.7,13.8,26.8,29.9,29.8c3.3,0,6.7,0,10,0
	c3.6-1.1,7.5-1,11-2.8c15.6-8.2,22.8-24.8,17.9-41.8c-1.3-4.5-1.1-4.7,3.7-4.9c1.3,0,2.7,0,4,0c51.8,0,103.7,0,155.5,0
	c24,0,48,0,72,0c5.7,0,5.7,0,4.1,5.2c-2.6,8.7-2,17,2.2,25.2c5.3,10.3,13.3,16.8,24.7,19.1c4,0,8,0,12,0c2.8-1,5.9-0.5,8.7-1.9
	c15.3-7.3,26.4-25.8,19.6-43.1c-1.7-4.5-1.6-4.6,3.3-4.6c12.5,0,25,0,37.5,0c5.4,0,9.4-1.8,10.9-7.4c0-2,0-4,0-6
	C565.4,585.2,562.1,583.6,557.6,583.5z M311.3,172.1c0.6-8.6,7.7-14.4,17.4-14.2c9.3,0.2,16.1,6.5,16.4,14.8
	c0.1,2.5-1.3,2.2-2.7,2.2c-4.8,0-9.6,0-14.5,0c-4.7,0-9.3-0.1-14,0C311.6,175,311.1,174.3,311.3,172.1z M289.6,192
	c28.3,0,56.6,0.1,84.9-0.1c4.1,0,5,1.2,4.9,5c-0.2,12,0,12-12.2,12c-13.2,0-26.3,0-39.5,0c-15.5,0-31-0.1-46.4,0.1
	c-3.5,0-4.4-0.9-4.4-4.4C276.9,192,276.8,192,289.6,192z M174.9,635.8c-10.6,0.1-17.2-6.5-17.3-17c0-10.6,6.4-16.9,17.2-16.9
	c10.6,0,16.8,6.1,16.8,16.6C191.7,629.3,185.5,635.8,174.9,635.8z M197.9,584c-3.3-0.1-5.3-2-5.5-5.2c-0.3-5.5-0.3-10.9-0.4-16.4
	c0-1.8,0.5-2.1,2.4-1.7c9.8,2,19.9,12.8,21.4,23.4C209.8,584,203.8,584.1,197.9,584z M423.6,580.6c-0.8,2.7-1.8,3.6-4.7,3.6
	c-60.5-0.1-121-0.1-181.4,0c-3.2,0-4.1-1.2-5-4c-5.7-18.5-17.9-30.8-36.4-36.4c-3.1-1-4.4-2-4.4-5.6c0.2-20.3,0.3-40.7,0-61
	c0-3.8,1.5-4.5,4.5-5.5c18.4-5.8,30.7-18,36.4-36.6c1-3.1,1.9-4.4,5.6-4.4c30,0.2,60,0.1,90,0.1c30,0,60,0.1,90-0.1
	c3.5,0,4.7,1,5.7,4.3c5.7,18.7,18,31.1,36.8,36.7c3.1,0.9,4.1,2.1,4.1,5.3c-0.2,20.5-0.1,41,0,61.5c0,2.9-0.7,4.2-3.7,5.1
	C441.7,549.2,429.4,561.8,423.6,580.6z M192,439.1c0-5.1,2.7-7.7,7.6-7.9c5.4-0.2,10.9-0.1,16.7-0.1c-2.9,12-9.9,19.6-21,23.6
	c-2.1,0.8-3.5,0.6-3.3-2.2C192.1,448.1,192.1,443.6,192,439.1z M285.5,388.6c0.1-6.1,2.4-8.6,8.4-8.6c22.8-0.1,45.6-0.1,68.4,0
	c5.8,0,8.2,2.4,8.3,8.2c0.1,7.5-0.1,15,0.1,22.5c0.1,3-1.1,3.5-3.7,3.4c-13-0.1-26-0.1-38.9-0.1c-13,0-26-0.1-38.9,0.1
	c-2.7,0-3.8-0.5-3.7-3.5C285.7,403.2,285.4,395.9,285.5,388.6z M464.3,447.8c0,8.8-0.4,9.1-8.5,4.8c-7-3.7-11.8-9.5-14.8-16.8
	c-1.4-3.6-1-5.3,3.3-4.7c1.6,0.2,3.3,0,5,0c14.2,0,15,0.8,15,14.8C464.3,446.5,464.3,447.1,464.3,447.8z M464.2,576.4
	c-0.3,5.9-2.2,7.6-8.1,7.7c-4.3,0.1-8.7-0.1-13,0.1c-2.5,0.1-3.2-0.6-2.5-3.1c2.7-9.9,13-19.1,23.6-20.6
	C464.3,565.8,464.5,571.1,464.2,576.4z M481.3,635.9c-10.6,0-16.9-6.6-16.9-17.3c0.1-10.7,6.2-16.7,17.3-16.7
	c10.4,0,16.7,6.4,16.7,16.8C498.5,629.3,491.9,635.9,481.3,635.9z M515.4,369.7c0.2,26,0.1,52,0.1,78c0,44-0.1,88,0.1,132
	c0,4-1.1,5-5,4.9c-9-0.3-18-0.2-27-0.3c-1.2,0-3.6,0.9-3.1-1.8c1.9-10.1,0.8-20.3,0.9-30.4c0.2-37,0.1-74,0.1-111
	c0-15.3-11.9-27.2-27.1-27.2c-20.8,0-41.7-0.1-62.5,0.1c-3.4,0-4.6-0.8-4.4-4.3c0.3-7,0.2-14,0.1-21c-0.2-13.8-12-25.8-25.9-25.8
	c-22.5-0.1-45-0.1-67.5,0c-13.7,0.1-25.6,12.2-25.7,26c-0.1,7-0.2,14,0.1,21c0.1,3.2-0.8,4.2-4.1,4.1c-21.2-0.2-42.3-0.1-63.5-0.1
	c-14.1,0-26.4,12.3-26.5,26.3c0,45,0,90,0,135c0,0.8,0.1,1.7,0,2.5c-0.3,2.1,2.3,4.7,0.5,6c-1.6,1.2-4.4,0.7-6.7,0.7
	c-7.8,0.1-15.7-0.1-23.5,0.1c-3.1,0.1-4.3-0.5-4.3-4c0.1-87.5-0.2-175,0.3-262.5c0.3-51.9,41.3-91.5,94.2-91.7
	c48.7-0.2,97.3,0.2,146,0.2c17.2,0,34.3-1,51.4,0.4c41.6,3.3,78,38.8,82.2,80.4C516.6,328,515.2,348.9,515.4,369.7z"/>
</svg>
