<?xml version="1.0" encoding="utf-8"?>
<!-- Generator: Adobe Illustrator 19.0.0, SVG Export Plug-In . SVG Version: 6.00 Build 0)  -->
<svg version="1.1" id="Calque_1" xmlns="http://www.w3.org/2000/svg" xmlns:xlink="http://www.w3.org/1999/xlink" x="0px" y="0px"
	 viewBox="0 0 612 792" style="enable-background:new 0 0 612 792;" xml:space="preserve">
<style type="text/css">
	.st0{fill:#2B78C1;}
	.st1{fill:#3B4652;}
</style>
<g>
	<path class="st0" d="M334,106c8.6,2.7,16.3,6.6,21.1,14.7c6.9,11.7,7.1,23.4-0.2,34.9c-1.6,2.4-2.1,3.6,0.9,5.2
		c3.2,1.8,5.4,5,5.1,8.6c-0.3,3.9,1.5,4.7,4.6,5.4c25.8,5.6,49,16.8,69.5,33.4c31.4,25.5,51.4,58,59.9,97.6c0.6,2.7,1.2,4.2,4.5,4.4
		c6.4,0.5,10.9,6.3,10.5,12.4c-0.4,6.2-5.3,11.1-11.8,11.4c-4,0.2-8,0-11.9,0c-0.8,1.2,0.2,1.6,0.7,2.1c3.5,4,3.9,8.4,1.7,13
		c-2.2,4.6-6,6.9-11.2,6.9c-15,0-30,0-45,0c-84,0-168,0-252,0c-9.6,0-15.2-6-13.7-14.6c0.5-2.7,2.2-4.7,4.3-7.4c-4.9,0-9,0.1-13.1,0
		c-6.3-0.3-11-5-11.4-11.1c-0.4-6.2,3.5-12.1,9.6-12.5c4.5-0.3,4.8-2.7,5.5-5.8c10.3-45.1,34.7-80.6,73.2-106.2
		c17.2-11.5,36-19.3,56.3-23.7c2.8-0.6,4.6-1.1,4.4-4.8c-0.2-5.4,3.6-8.6,8-11c-10.8-17-9.3-33.6,3.8-45.2c4.5-4,9.9-5.8,15.4-7.6
		C326.7,106,330.3,106,334,106z"/>
	<path class="st0" d="M126,618c16.4-26.8,32.8-53.6,49.3-80.8c2.1,2,4,3.8,5.9,5.6c16.1,15.2,35.9,22.4,57.2,26.1
		c13.9,2.4,27.8,4.8,41.8,7.2c2.1,0.4,4.3,0.9,6.2,1.6c9.4,3.7,12.8,12.3,8.6,21.5c-2.9,6.3-6.9,12.1-9.1,18.8
		C232.7,618,179.3,618,126,618z"/>
	<path class="st1" d="M334.7,429.7c8.9-7.9,16.8-15.2,25.1-22.2c16.6-14.1,34.9-25.5,55.1-33.8c10-4.1,20.2-5.1,30.8-2.5
		c3,0.8,6.3,0.8,9.3,1.6c4.2,1.1,7.8,3.4,8.6,8.1c0.8,4.3-1.8,7.4-4.9,9.8c-3.8,2.9-7.9,5.5-11.9,8.2
		c-22.2,14.4-44.8,28.2-64.5,46.1c-9.3,8.4-17.9,17.5-25,27.8c-4,5.7-8.5,10.5-13.9,14.7c-22.9,18.1-41.3,40.1-54.8,66
		c-1.4,2.7-2.7,3.3-5.7,2.7c-18.4-3.9-37.2-5.2-55.4-10.3c-12.2-3.4-23.1-9.3-32.5-17.9c-1.1-1-3.1-1.9-2-4
		c4.5-9.1,2.7-19.3,4.6-28.9c2.7-13.1,7-25.7,11.8-38c8.2-21.2,11.7-42.6,4.7-64.9c-0.6-2-0.9-4.2-1-6.4c-0.5-12,7.1-18.2,18.9-15.5
		c12.6,2.9,19.9,12.4,21.1,27.5c0.7,8.5,1.1,17,2.1,25.4c1.8,15.6,11.5,22.7,27.1,20.2c2.7-0.4,3.9-1.5,4.9-3.9
		c4.2-10.2,8.7-20.1,14.1-29.7c7.6-13.4,17.4-24.8,29.5-34.2c7-5.4,15-7.2,23.5-4.9c10.2,2.8,12.4,10.6,5.2,18.3
		c-10.3,11.1-18.9,23.2-24,37.6C335.2,427.3,335.1,427.9,334.7,429.7z"/>
</g>
</svg>
