<?xml version="1.0" encoding="utf-8"?>
<!-- Generator: Adobe Illustrator 19.0.0, SVG Export Plug-In . SVG Version: 6.00 Build 0)  -->
<svg version="1.1" id="Calque_1" xmlns="http://www.w3.org/2000/svg" xmlns:xlink="http://www.w3.org/1999/xlink" x="0px" y="0px"
	 viewBox="0 0 612 792" style="enable-background:new 0 0 612 792;" xml:space="preserve">
<style type="text/css">
	.st0{fill:#415A6A;}
	.st1{fill:#65C5B8;}
	.st2{fill:#344A5D;}
	.st3{fill:#E6E8E7;}
	.st4{fill:#EE5540;}
	.st5{fill:#ACB2B9;}
	.st6{fill:#F16F5A;}
</style>
<g>
	<path class="st0" d="M348.1,538.1c-19.3,0.1-38.6,0.3-57.9,0.3c-19.5,0.1-39,0.1-58.4,0c-3,0-4.3,0.4-4.4,4
		c-0.7,36.7-24.9,64.4-61.5,70.5c-0.6,0.1-1.2,0.5-1.8,0.7c-5.3,0-10.7,0-16,0c-11.4-0.5-21.8-3.9-31.2-10.3
		c-20.5-13.8-31.9-33-33.1-57.9c-0.2-3.2-0.6-5.6-4.3-6c-0.9-0.1-1.9-0.7-1.4-2.1c4.3-0.9,5.8-3.7,6.6-7.9
		c4.3-22.6,16.5-39.6,37.3-51.5c-7,0-13.3,0-19.6,0c-6.5,0-13,0.1-19.5,0c-2.4,0-5.1,0.7-7.1-1.4c1.8-1.2,3.9-0.8,5.8-0.8
		c8.3,0,16.7-0.4,24.9,0.1c14.2,0.9,28-1.5,41.8-4.3c10.1-2,20.2-0.1,29.9,3c2.6,0.8,5.1,1.3,7.8,1.2c13.8-0.1,27.6-0.1,41.4-0.2
		c1.1-0.5,2.3-0.9,3.4-0.1c-0.1,3.1-2.7,2.6-4.4,2.6c-12.3,0.2-24.6,0.2-36.2,0c12.7,6.4,22.5,16.5,29.7,29.4
		c3.7,6.6,6.2,13.6,7.6,21c1.5,7.7,1.5,7.7,9.6,7.7c34.3,0,68.6,0,102.9,0c2.6,0,5.4-0.6,7.7,1.3
		C347.8,537.7,347.9,537.9,348.1,538.1z"/>
	<path class="st0" d="M438,613.6c-3.9-1.1-7.9-2.1-11.8-3.3c-29.1-9.1-49.4-36.3-50-66.9c0-1.7-0.1-3.3-0.2-5c1.5-8.5,2.7-17,6.3-25
		c13.5-30.1,43.6-44.8,71-42.4c36.5,3.2,61,31.8,64.8,60.5c0.3,2.3,0.7,4.6,1,6.9c2,3.2,1.4,6.9,1,10.2c-3.1,25.1-15,44.4-37.3,57
		c-8.1,4.6-16.7,7.3-25.9,8C450.7,613.6,444.3,613.6,438,613.6z"/>
	<path class="st1" d="M50,395.6c3.1-7.5,7.6-13.7,16.4-15c13-1.9,22.9,6.5,23.5,20.2c0.6,12.5,6.7,21.1,18,25.7
		c10.7,4.4,20.6,2.1,29.3-5.1c8.4-6.9,11.8-19.8,8.1-30.4c-4-11.4-13.9-19-25.3-19.4c-13.8-0.5-21.8-8.7-21.8-22.5
		c0-11.5-0.1-23-0.1-34.4c1.1-2.4,3.3-2.6,5.4-2.7c9.8-0.2,19.6-0.1,29.4,0c1.8,0,3.7,0.2,5,1.8c0,5.7,0.2,11.3,0.1,17
		c0,2.6,0.6,4,3.4,5.1c38.8,15.1,55.8,56,38.3,93.7c-10.1,21.6-28,34.3-51.7,37.9c-38,5.8-72.7-22-77.2-57.7
		c-0.1-0.4-0.5-0.8-0.7-1.2C50,404.3,50,399.9,50,395.6z"/>
	<path class="st0" d="M98.2,195.2c-16.1-8.4-26.3-21-28.4-39.4c-2.9-24.8,13.6-47.8,38.1-53.2c1.1-0.2,2.4,0,3.2-1.1
		c4.7,0,9.3,0,14,0c9.4,2.3,18.4,5.5,25.6,12.3c14.1,13.2,19.1,29.3,15,48.3c-0.2,1.1-0.4,2.3-0.7,3.4
		c-2.7,16.9-20.9,31.3-37.3,34.2c-8.4,1.5-16.5,0.9-24.5-1.6C101.3,197.6,99.2,197.3,98.2,195.2z"/>
	<path class="st2" d="M77.8,537.7c-11.3-0.6-21.7-8.7-25.9-20.1c-0.6-1.7-0.4-3.6-1.8-5c0-3.7,0-7.3,0-11c3.1-10.5,8.6-19,19.1-23.4
		c2.1-0.9,4.3-1.9,6.7-1.8c16.4,0,32.8,0,49.3,0c-4.6,4.4-10,7.2-14.6,11c-13,10.7-20.5,24.5-24.3,40.6c-0.2,1-0.4,2-0.4,3
		C85.7,536.4,83,538.6,77.8,537.7z"/>
	<path class="st3" d="M98.2,195.2c19.3,7.3,37.1,5,52.9-8.8c6.5-5.7,10.5-13.1,13.8-20.9c0.1,4.7,4.2,6.6,7,9.2c2.2,2,4.5,3.9,6.6,6
		c12,12,24.6,23.3,36.8,35.1c4.2,4.1,8.7,8.1,12.9,12.4c20.6,21,42.5,40.7,63.5,61.4c15.9,15.6,32.4,30.6,48.2,46.3
		c2.5,2.4,5.3,4.4,8,6.6c0.1,16.7,0.1,33.4,0.3,50.1c0,2.5-0.9,3.3-3.3,2.8c-14.6-14.1-29.1-28.1-43.8-42.1
		c-10.6-10.1-21.3-20-31.8-30.1c-8-7.7-15.7-15.7-23.7-23.4c-15.8-15-31.8-29.7-47.4-44.8c-3.4-3.3-6.9-6.6-10.3-9.9
		c-12.4-12-24.6-24.3-37.3-36.1c-3.8-3.6-7.7-7.2-12.8-11.6c0,39.6,0,78.1,0,116.5c-11.9,0-23.7,0-35.6-0.1c-1.5,0-3,0.1-4.2,1
		C98.1,274.9,98.1,235.1,98.2,195.2z"/>
	<path class="st4" d="M230.9,475.8c-1.1-0.1-2.3-0.2-3.4-0.4c0-14.1-0.1-28.2,0.2-42.3c0.4-18.8,14.8-35,32.2-36.7
		c27.5,0,54.9,0.2,82.4,0c4.6,0,5.9,1.2,5.8,5.8c-0.3,24.5-0.2,48.9-0.2,73.4c-1.8,1.6-4,1.5-6.1,1.5c-34.9,0.1-69.8,0-104.7,0
		C234.9,477.2,232.7,477.4,230.9,475.8z"/>
	<path class="st2" d="M230.9,475.8c29.3-0.1,58.6-0.1,88-0.2c9.7,0,19.3,0,29,0c0,20.6-0.1,41.2-0.1,61.8c-38.8,0-77.7,0-116.5,0.1
		c-3.2,0-3.9-1-4.4-4.2c-3.2-22.7-14.5-40.3-34.1-52.4c-2-1.2-3.9-2.4-7.1-4.4c13.8,0,26.3,0,38.9,0
		C226.7,476.6,229,477.3,230.9,475.8z"/>
	<path class="st5" d="M156.3,573.7c-17.7,0.1-31.7-13.6-32-31.4c-0.3-16.7,14.2-31.6,30.8-31.7c18.6-0.2,32.9,13.6,32.9,31.5
		C188,559.7,174.1,573.6,156.3,573.7z"/>
	<path class="st5" d="M479.2,541.9c0.1,18-13.4,31.8-31.2,31.8c-17.8,0.1-32-13.7-32-31.2c0-17.8,13.9-31.9,31.4-31.9
		C465.2,510.5,479.1,524.2,479.2,541.9z"/>
	<path class="st5" d="M138,150.5c0,11.2-8.8,20-20,20c-10.4,0-19.7-9.2-19.9-19.8c-0.2-11.1,8.8-20.1,19.9-20
		C129.5,130.6,138,139.2,138,150.5z"/>
	<g>
		<path class="st6" d="M429.8,317.1c-2.6,2.8-5.3,5.6-7.9,8.4c2.8-2.8,5.6-5.5,8.4-8.3C430.1,317.1,429.9,317.1,429.8,317.1z"/>
		<path class="st6" d="M560.9,459c-12.8-52.6-25.7-105.2-38.5-157.8c-3.4-14.1-10.6-19.6-25.3-19.6c-41.3,0-82.6,0-123.9,0
			c-15.9,0-25.1,9.2-25,25.1c0,12-0.1,24-0.2,36c-1.9,2.1-1.5,4.7-1.5,7.1c-0.1,12.6,0,25.2-0.1,37.7c0,2.4,0.6,5.1-2.3,6.5
			c-16.6,0.2-33.1,0-49.7,0.1c-9.5,0-18.9-0.1-28.4,0.1c-2.2,0-5.1-0.7-5.9,2.7c2.5,1.9,5.4,1.4,8.2,1.4c23,0,46,0,69,0
			c1.5,0,3,0.1,4.5,0c3.1-0.1,4.7,1.2,4.6,4.4c0,1.7,0,3.3,0,5c0.1,22.7-0.2,45.3,0.1,68c-0.3,18.8-0.1,37.5-0.1,56.3
			c0,1.8,0,3.7,0.6,5.4c0.2,0.6,0.6,1.2,1.1,1.6c8.9,2.2,17.9,1.1,26.9,0.7c2.7-0.9,3.2-3.2,3.4-5.6c0.7-7.5,2.6-14.7,5.9-21.5
			c12.4-25.7,37.2-41.5,65.9-40.5c35.2,1.2,62.6,28.4,66.8,59.9c0.3,2.4,0.4,5,2.2,7c19.6,5.4,39.2-6.6,42.9-26.5c0-17,0-34,0-51
			C560.9,461,561.1,459.9,560.9,459z M512.8,430.8c-29.6-0.2-59.2-0.2-88.8-0.2c-5.4,0.1-10.9,0.2-16.3,0.3c-7.2,0-7.6-0.6-5.8-8.2
			c0,0,0,0,0,0c0-3.7,0-7.3,0-11c0-1.7,0-3.3,0-5c0,0,0,0,0,0c0-3.6,0-7.2-0.1-10.8c-1.2-6.6-0.8-13.2-0.3-19.8
			c0.2-3.1,0.3-6.3,0.4-9.5c0,0,0,0,0,0c0-5,0-10,0-15c0-1.7,0-3.3,0-5c0,0,0,0,0,0c0-5,0-10,0-15c0-1.7,0-3.3,0-5c0,0,0,0,0,0
			c0-3.7,0.1-7.4,0.1-11c1.1-1.5,2.7-0.9,4.1-0.9c26.8-0.1,53.6,0,80.5-0.2c3.8,0,5.4,0.9,5.6,4.9c0.2,3.1,1.8,6,1.6,9.2l0,0l0,0
			c0.6,1.9,1.4,3.9,1.1,6c0.8,1.2,1.1,2.6,0.9,4l0,0c1.3,3.4,2,7,2.3,10.7c0.5,2.1,1.1,4.2,1.6,6.3c0,0,0,0,0,0
			c5.1,23.5,10.2,47,15.2,70.5C515.3,427.8,517.5,430.8,512.8,430.8z"/>
	</g>
</g>
</svg>
