<?xml version="1.0" encoding="utf-8"?>
<!-- Generator: Adobe Illustrator 19.0.0, SVG Export Plug-In . SVG Version: 6.00 Build 0)  -->
<svg version="1.1" id="Calque_1" xmlns="http://www.w3.org/2000/svg" xmlns:xlink="http://www.w3.org/1999/xlink" x="0px" y="0px"
	 viewBox="0 0 612 792" style="enable-background:new 0 0 612 792;" xml:space="preserve">
<style type="text/css">
	.st0{fill:#3D82F2;}
	.st1{fill:#FDDF00;}
	.st2{fill:#FDD800;}
	.st3{fill:#F3363E;}
	.st4{fill:#315ED6;}
	.st5{fill:#FC8701;}
	.st6{fill:#FDA700;}
	.st7{fill:#FCDF01;}
	.st8{fill:#FDDF01;}
	.st9{fill:#FBDA05;}
	.st10{fill:#F0BE09;}
	.st11{fill:#010100;}
	.st12{fill:#020101;}
	.st13{fill:#F9CC37;}
</style>
<g>
	<path d="M438.6,686c-5.3,0-10.7,0-16,0c-28.6-3.7-45-21.3-54-47.3c-1.3-3.8-3.1-5.3-7.1-5.3c-58.6,0.1-117.2,0.1-175.8,0
		c-4.4,0-6,1.9-7.2,5.8c-6.5,21-20,35.7-40.3,44.2c-4.7,2-9.8,1.5-14.6,2.6c-5,0-10,0-15,0c-29-4-46.1-21.4-54.4-48.6
		c-0.9-2.8-2.1-4-5.2-4.2c-12.4-0.7-19.5-6.9-22.4-19.2c0-30,0-60,0-90c2-1.8,4.4-1.3,6.7-1.3c14.2,0,28.3-0.2,42.5,0.1
		c5.2,0.1,7.8-1.7,9.7-6.4c8.3-20.5,17.3-40.8,25.3-61.5c4.3-11,11.1-20,17.9-29.3c33.8-46.5,67.4-93.1,101.1-139.7
		c1.6-2.3,2.3-4.7,2.8-7.4c3.1-20.2,14.1-34.1,33.6-40.9c11-3.8,21.8-2.5,31.9,2.8c4.2,2.2,7.9,2.5,12.4,1.3
		c28.6-7.7,57.4-15,86.1-22.3c3.1-0.8,6.1-1.7,9.3-1.6c2.2,0.1,3.7-1.2,5.2-2.5c8.5-7.4,17.9-13.2,29.5-14.2c5,0,10,0,15,0
		c9,0.8,17.5,2.9,24.7,8.7c5.6,4.4,6.6,8.3,4,14.7c-5.6,6-9.2,6.4-16.6,1.7c-14.6-9.2-33.6-7.1-44.8,5.1c-5.9,6.5-8.7,14.1-7.9,22.9
		c-0.9,13,3.4,23.8,15,30.4c12.1,6.9,24.6,7.3,36.9-0.2c0.9-0.5,1.7-1,2.6-1.5c5.1-2.7,9.3-2.4,12.9,0.9c3.7,3.4,4.3,7.1,2,12.7
		c-3,4-7.4,6.1-11.7,8.2c-20.6,10-43.7,6.5-60.3-9.4c-2.7-2.6-5.5-3.5-8.9-2.7c-26,2.7-52,5.1-78,7.8c-3.5,0.4-5.7,1.8-7.5,4.8
		c-5.5,9.4-13.5,16-23.6,19.9c-3.9,1.5-6.9,3.7-9.3,7.1c-25.1,35.7-50.4,71.2-75.6,106.9c-1.8,2.6-2.2,5-1,8
		c9.8,23.9,19.8,47.7,29.8,71.5c1.3,3.1,3.3,4.2,6.5,4.2c23.8,0,47.6,0,71.5-0.1c4.7,0,5-0.5,5-6.4c0-38,0-76,0-114
		c0-4.2,0-8.3,0-12.5c0.2-16.9,14.7-28.9,28.7-28.3c23.5,1.1,46.9-0.7,70.4-1.1c17.7-0.3,30.6,6.4,41.5,19.6
		c11.6,13.9,24.3,27,36.5,40.4c11,12.1,21.9,24.2,33,36.2c4.3,4.6,6.6,10.3,7.3,16.5c0,47,0,94,0,141c-3.2,13.3-10.9,19.3-24.9,19.3
		c-4.3,0-8.7,0.3-13-0.1c-4.6-0.4-6.7,1.2-8.1,5.8c-5.7,19.6-18,33.7-36.4,42.6C450.7,684.5,444.6,685,438.6,686z"/>
	<path class="st0" d="M502.6,613.9c-8.8,0.5-8.8,0.5-11.2-7.6c-7.9-26.9-33.9-46.4-61.4-46.3c-27.3,0.2-53.9,21.5-60.4,48.7
		c-0.9,3.9-2.2,5.5-6.7,5.5c-59.7-0.2-119.3-0.2-179,0c-4.1,0-5.6-1.1-6.5-5c-6.9-29-33.9-50.1-63.5-49
		c-20.5,0.8-36.6,10.7-48.8,27.1c-0.8,1.1-1.7,2.1-2.5,3.1c-1.5-1.1-1.7-2.8-1.7-4.5c-0.2-13-0.1-25.9,0-38.9c0-1.7,0.2-3.3,1.5-4.6
		c15.8,0,31.6,0,47.4,0c44,0,87.9,0,131.9,0c31.3,0,62.6-0.2,93.9-0.1c4.3,0,5.1-1.3,5.1-5.3c-0.1-48.5-0.1-96.9-0.1-145.4
		c0-2,0-4,0.2-6c0.4-3.1,2.1-4.8,5.3-4.8c6.2,0,12.3,0.1,18.5-0.1c4.1-0.1,2.9,2.9,2.9,4.9c0.1,27.8,0.2,55.6,0,83.4
		c-0.1,9.6,4.2,15.7,12.9,19.1c1.8,0.7,3.6,0.3,5.4,0.3c37.1,0,74.3,0,111.4,0c6.1,0,6.6,0.4,6.7,6.4c0.1,4.8,0.1,9.7,0,14.5
		c0,2-0.1,4-1.6,5.6c-8.3,0.1-16.5,0.2-24.8,0.2c-6.2,0.1-9.8,2.5-10.9,7.3c-1,4.3,1.4,8,6.8,10.7c8.3,0.7,16.6,0.4,24.9,0.2
		c4.3-0.1,5.6,1.7,5.6,5.5c0.1,23.3,0.1,46.6,0,69.9C504.2,610.7,504.1,612.5,502.6,613.9z"/>
	<path class="st1" d="M500.7,470.1c-2.8,0.1-5.6,0.3-8.4,0.3c-33.6,0-67.2-0.1-100.8,0.1c-4.1,0-5.7-0.7-5.7-5.4
		c0.3-26.5,0.2-52.9,0-79.4c0-4,1.1-5,5-4.9c10.3,0.3,20.6,0.2,30.9,0.3c6.3,3.8,10.2,9.9,15,15.1c8.7,9.4,17.3,18.9,25.9,28.4
		c11.9,13.3,24.1,26.2,35.8,39.7C499.7,466,501.5,467.5,500.7,470.1z"/>
	<path class="st2" d="M386.2,623.1c0.4-26.5,19.1-45,45.1-44.7c26.5,0.4,44.7,19.8,44.2,47.2c-0.4,24.5-20.2,42.8-46,42.5
		C404.3,667.7,385.9,648.6,386.2,623.1z"/>
	<path class="st3" d="M170.6,436.2c9.2,2.1,15.4,8.2,19,16.2c10.1,23,19.5,46.2,29.1,69.4c0.2,0.6,0.3,1.3,0.5,2.1
		c-33,0-65.8,0-98.6,0c-1.2-1.7-0.2-3.2,0.4-4.7c9.5-23.2,19.2-46.3,28.8-69.4c0.8-1.8,1.7-3.6,3-5.2
		C157.8,439.8,163.2,436,170.6,436.2z"/>
	<path class="st1" d="M126.7,666.8c-24.4,5.4-47.1-7.6-53.4-30.7c-6.6-24.4,5.6-48.3,28.5-55.5c8.5-2.7,17.2-3.4,25.9-0.6
		c6.9,4.1,9.6,11.2,12.5,18c2.3,5.3,3.8,10.9,3.9,16.9c0,5.7,0,11.4,0,17.1c-0.4,11.2-5.3,20.8-11.2,29.9
		C131.4,664.2,129,665.5,126.7,666.8z"/>
	<path class="st1" d="M247.7,313.9c4.9,4,9.8,7.9,15.9,10c2.8,1,2.2,2.1,0.9,3.9c-23.2,32.7-46.4,65.4-69.5,98.1
		c-1.4,2-2.4,2.1-4.2,0.6c-5.4-4.2-11.7-6.9-18.2-8.8c-0.4-2.1,0.9-3.4,2-4.9c23-31.9,46-63.9,69.3-95.7
		C244.8,315.8,245.3,313.7,247.7,313.9z"/>
	<path class="st3" d="M257.9,299.2c-7.6-9.2-8-25.5-0.5-34.7c7.3-9,21.9-12.8,33.2-7c10.5,5.3,16.9,15.6,14.8,29.5
		c-1.9,12.5-10.6,20.3-22.7,21.3c-7.5,0.7-14.5-0.1-20.6-5C260.5,301.9,261.5,298.3,257.9,299.2z"/>
	<path class="st1" d="M395.8,245.1c-2.3,8-0.1,16.4-0.2,24.9c0,3-0.9,3.9-3.9,4.1c-21.5,2-43,4.2-64.6,6.4c-2.4,0.3-3.5,0.3-3.6-2.7
		c-0.2-5.5-2-10.7-4.6-15.6c-1-1.9-0.9-2.7,1.5-3.3c24-6.1,47.9-12.3,71.9-18.6C397.2,239,395,242.8,395.8,245.1z"/>
	<path class="st4" d="M502.6,613.9c0-24.7-0.1-49.5,0.1-74.2c0-4.8-1.5-6-5.9-5.7c-6.1,0.3-12.3,0.1-18.4,0.1
		c-1.6,0-3.4,0.5-4.7-0.8c14.3,0,28.7,0.1,43,0c2.9,0,4.1,0.6,4.1,3.8c-0.1,24.2-0.1,48.3,0,72.5c0,3.4-1,4.8-4.6,4.6
		C511.6,613.9,507.1,614,502.6,613.9z"/>
	<path class="st5" d="M500.7,470.1c-3.6-7.5-10.2-12.7-15.5-18.7c-15.1-17-30.7-33.6-46-50.4c-5.9-6.5-11.7-13.2-17.5-19.8
		c9-1.5,15.8,0.9,22.3,8.3c23.7,27,48.1,53.3,73,80.6C511,470.1,505.8,470.1,500.7,470.1z"/>
	<path class="st6" d="M142.7,614c-1.1-13-6.6-24.1-15-33.9c16.1,3.2,26.3,13.2,31.3,28.5c8.6,26.7-6,53-32.2,58.2
		c9.2-9.5,14.6-20.7,16-33.9C143.5,626.6,143.5,620.3,142.7,614z"/>
	<path class="st7" d="M483.5,295.9c2.2,5.7,1.2,8.6-4,12.3c-25.2,17.7-60.8,9.8-76.3-17c3.8-1.4,6.4-0.3,9.4,2.6
		C432.6,313.1,463.8,313.8,483.5,295.9z"/>
	<path class="st8" d="M483.6,224c2.3,4.4,1.2,8.1-2.4,11c-3.8,3-7.6,2.2-11.5-0.4c-15.6-10.4-35.8-8.5-47.8,4.5
		c-3.9,4.2-6,9.5-8.1,14.7c-1.1-13.3,4.7-23.4,15.9-29.8c12.9-7.4,26.2-7.3,39,0.9C475.2,229.2,477.8,229.1,483.6,224z"/>
	<path class="st4" d="M502.6,515c0-7-0.2-14,0.1-21c0.2-3.9-1-5.1-5-5.1c-37.1,0.1-74.2,0.1-111.3,0c-1.9,0-4,0.7-5.7-0.9
		c44.8,0,89.6,0.2,134.4,0c4.8,0,5.9,1.4,5.6,5.9c-0.4,5.8-0.2,11.7,0,17.5c0.1,2.7-0.6,3.9-3.6,3.8
		C512.3,515,507.5,515.1,502.6,515z"/>
	<path class="st9" d="M153.7,444.9c0.8-4,4.4-6.2,5.9-9.8c3.7-0.3,7.4-0.6,11,1.1C164.5,438.2,158.6,440.5,153.7,444.9z"/>
	<path class="st10" d="M257.9,299.2c0.9-1,1.7-1.9,2.9-3.2c1.3,2.6,1.2,4.9,1.2,7.3C260.2,302.3,258.8,301,257.9,299.2z"/>
	<path class="st11" d="M448.7,623.3c-0.1,9.9-7.9,17.7-17.8,17.7c-10,0-18.2-8.2-18.1-18.1c0.1-9.8,8.2-17.8,17.9-17.8
		C440.8,605.1,448.8,613.2,448.7,623.3z"/>
	<path class="st12" d="M161.3,479.3c-5.1,0-8.8-3.7-8.8-8.8c0-5.2,4-9.2,9.1-9.1c4.7,0.1,8.8,4.4,8.7,9.1
		C170.3,475.4,166.2,479.3,161.3,479.3z"/>
	<path class="st11" d="M98.6,622.9c0.1-10,8.3-18,18.2-17.8c9.7,0.2,17.6,8.3,17.7,18c0,9.9-8.1,18-18.1,17.9
		C106.3,641,98.5,633.1,98.6,622.9z"/>
	<path class="st13" d="M142.7,614c1.6,6.3,1.6,12.6,0,18.9C142.7,626.6,142.7,620.3,142.7,614z"/>
</g>
</svg>
