<?xml version="1.0" encoding="utf-8"?>
<!-- Generator: Adobe Illustrator 19.0.0, SVG Export Plug-In . SVG Version: 6.00 Build 0)  -->
<svg version="1.1" id="Calque_1" xmlns="http://www.w3.org/2000/svg" xmlns:xlink="http://www.w3.org/1999/xlink" x="0px" y="0px"
	 viewBox="0 0 612 792" style="enable-background:new 0 0 612 792;" xml:space="preserve">
<style type="text/css">
	.st0{fill:#0DB799;}
	.st1{fill:#EE4B36;}
	.st2{fill:#294E58;}
</style>
<g>
	<path class="st0" d="M312.2,393.1c-0.2-4-0.5-8-0.7-12c-2.4-3.7-2.3-7.3,0-11c0-3,0-6,0-9c-1.5-1.5-1.4-3.3-1.1-5.1
		c1-7.9,0.2-15.8,0.5-23.7c0.1-2-0.3-4,0.6-5.8c0.4-12.6,4-23.9,14-32.4c7.7-6.6,16.7-9.7,26.6-9.7c20.8-0.1,41.7-0.1,62.5,0
		c22.2,0.2,43.8,15.8,50.9,36.9c7.1,20.9,13.9,42,20.7,63c1.4,4.4,2.3,9.1,2,13.8c-0.2,3.2,0.9,3.9,3.9,3.8c18-0.1,36,0.4,54-0.1
		c24.8-0.7,42.7,20.4,43.1,43.2c0.2,14.3,0.1,28.7,0,43c-0.1,16.3-10.2,30.4-25.4,36.1c-3.1,1.2-4.5,1.4-4.7-2.9
		c-1.5-41.6-28.9-74-69.5-82.7c-47.8-10.2-96.8,25.1-102.4,73.7c-0.4,3.3-0.9,6.6-0.8,9.9c0.2,3.6-1.2,4.4-4.6,4.3
		c-21.2-0.1-42.3-0.2-63.5,0.1c-4.8,0.1-5.6-1.7-5.8-5.9c-1.9-36.4-19.5-62.6-52.8-76.9c-52.5-22.6-111.9,12-119.2,68.7
		c-0.4,3-0.4,6-0.6,9.7c-6.3-2.8-11-7.1-14.9-12.3c-3.8-5.1-6.6-10.9-7-17.4c-1-18.6-1.7-37.4,0.2-55.9c2-19.6,18.7-33.6,38.5-33.6
		c51-0.1,102,0,153-0.1c2.2,0,6.5,1.3,3.5-3.8C311.8,397.3,310.9,395.4,312.2,393.1z"/>
	<path class="st1" d="M311.5,326.5c1.1,9.8,0.6,19.6,0.3,29.4c-0.7,0.9-1.4,0.5-2.2,0.1c-1.3-0.7-2.3-1.9-3.4-2.9
		c-30-30.3-61-59.6-91-89.8c-14.3-14.4-29.2-28.2-43.5-42.7c-2.3-2.3-4.8-3.4-8-3.3c-5.6,0.2-11.3-0.2-17.5,0.3
		c3.9,6.9,8.6,12.6,12.9,18.7c31.1,43.9,62.3,87.7,93.3,131.7c5.8,8.2,11.8,16.1,17.3,24.5c1,1.5,2.4,2.8,2.4,4.8
		c0.7,1.3,1.5,2.5,2.7,4.6c-8.3,0-16,0.1-23.7-0.1c-2-0.1-2.7-2.3-3.7-3.8c-24.1-33.7-48.1-67.5-72.2-101.3
		c-12.4-17.4-24.7-34.7-37.1-52.1c-1.1-1.6-2.4-3.2-3.7-4.8c-1.4,1.4-0.7,3-0.7,4.3c-0.1,17.7,0,35.3-0.1,53c0,3,0.9,4.7,3.6,6.3
		c21.4,12.6,26.6,38.1,12.2,58.5c-8.8,12.3-24.8,16.5-41.3,10.7c-13.9-4.8-23.1-18.4-22.3-32.8c0.3-5.8,4.4-10.2,9.9-10.7
		c5.4-0.5,10.1,3.3,11.3,9.2c0.1,0.6,0.2,1.3,0.2,2c0.9,9.5,5,13.2,15.1,13.4c7.6,0.2,12.8-4.5,14.1-12.6c1.5-9.4-1.1-14.7-9.7-19.1
		c-2.4-1.2-4.9-2-7.3-3.1c-4.2-2-6.9-5.1-6.9-10.1c0-32,0-64,0-96c0-2.8,0.5-5.5,0.3-8.3c-0.4-5,3.6-9.5,8.9-9.5
		c17.7-0.2,35.3-0.1,53-0.1c3.3,0,5.4,2.3,7.5,4.4c41.2,40.6,82.4,81.1,123.6,121.6C307.6,322.9,309.6,324.7,311.5,326.5z"/>
	<path class="st2" d="M226.1,587.3c-36.9-0.5-65-29.3-64.6-66.4c0.4-35.8,29.9-64.2,66.4-63.7c35.4,0.4,64.1,30.4,63.7,66.6
		C291.1,559.3,261.8,587.7,226.1,587.3z"/>
	<path class="st2" d="M471.6,587.3c-35.8,0.1-64.7-28.7-64.8-64.6c-0.2-36.2,28.6-65.3,64.6-65.4c35.2-0.1,65.4,29.6,65.5,64.5
		C537.1,558.6,508.6,587.1,471.6,587.3z"/>
</g>
</svg>
