<?xml version="1.0" encoding="utf-8"?>
<!-- Generator: Adobe Illustrator 19.0.0, SVG Export Plug-In . SVG Version: 6.00 Build 0)  -->
<svg version="1.1" id="Calque_1" xmlns="http://www.w3.org/2000/svg" xmlns:xlink="http://www.w3.org/1999/xlink" x="0px" y="0px"
	 viewBox="0 0 612 792" style="enable-background:new 0 0 612 792;" xml:space="preserve">
<style type="text/css">
	.st0{fill:#F06D5A;}
	.st1{fill:#A67A4D;}
	.st2{fill:#7E5631;}
	.st3{fill:#E4E4E4;}
	.st4{fill:#5B5B5B;}
	.st5{fill:#B2B2B2;}
	.st6{fill:#F2A099;}
	.st7{fill:#7F5631;}
	.st8{fill:#B1B1B1;}
</style>
<g>
	<path class="st0" d="M75.8,556.3c-4.2,0-8.3,0-12.5-0.1c-8.5-0.1-13.9-4.6-13.9-12.9c-0.2-24,0-48-0.1-72c0-3.9,2.5-3.2,4.7-3.2
		c23.7,0,47.3,0,71,0c70.3,0,140.6,0,210.9,0.1c4.4,0,5.1-1.4,5.1-5.4c-0.1-44.5-0.1-89-0.1-133.4c0-15.1,4.9-20.1,19.9-20.2
		c9.3,0,18.7,0.1,28,0.1c-3.1,8.1-2.1,16.7-2.1,25c-0.1,23,0,45.9,0,68.9c0,9.1,1.2,10.3,10.4,10.3c43.1,0,86.2,0,129.3,0
		c2.9,0,6.1-0.6,8.6,1.6c0,11.7,0,23.3,0,35c-2.1,1.8-4.7,1.5-7.1,1.5c-13.5,0-26.9,0-40.4,0c-2.3,0-4.7-0.1-6.9,0.7
		c-3.6,1.1-5.7,3.6-5.5,7.4c0.2,3.6,2.6,5.6,6,6.5c1.9,0.5,4,0.4,6,0.4c13.6,0,27.3,0,40.9,0c2.5,0,5-0.3,7.1,1.5
		c0,26.3,0,52.7,0,79c-2.7,8-5.8,10.5-14.6,10.4c-9.6-0.1-19.2,0.8-28.7-0.6c-2.6-1.6-2.7-4.4-3-7c-2.6-23.6-21.4-42-44.8-44.6
		c-32-3.5-53.9,20.3-56.9,43.5c-0.4,2.9,0.3,6.6-3.3,8.3c-2.5,0.7-5,0.5-7.5,0.5c-61.7,0-123.5,0-185.2,0c-2.5,0-5,0.1-7.4-0.5
		c-3.3-1.2-3.4-4.2-3.8-7c-2.8-21.7-14.8-36-35.2-43c-29.2-10-61.2,9.5-66.3,39.9C77.8,550.4,78.1,553.8,75.8,556.3z"/>
	<path class="st1" d="M279,221.3c0,68.8-0.1,137.6,0.1,206.4c0,4.5-1.1,5.4-5.5,5.4c-51.6-0.2-103.3-0.1-154.9,0
		c-4.9,0-8.8-1.2-12.7-4.3c-27.6-22.3-55.3-44.4-83-66.5c0-23.7,0-47.3,0-71c2.4-2,5.3-1.6,8.1-1.6c28.6,0,57.1,0,85.7,0
		c1.2,0,2.3,0,3.5,0c6.7-0.1,6.9-0.4,7.2-7c0.2-5.8-1.1-11.6,1.1-17.3c2.2-2.1,5-1.7,7.6-1.7c16.5-0.1,32.9,0,49.4,0
		c2,0,4,0.1,6-0.3c3.3-0.6,5.3-2.6,5.7-6c0.4-3.4-1.1-5.8-4.1-7.3c-2.6-1.3-5.5-1.3-8.3-1.3c-16.1,0-32.3,0-48.4,0
		c-2.6,0-5.4,0.4-7.7-1.4c-2-5.7-1.9-11.5,0-17.2c2.4-2,5.4-1.5,8.2-1.5c27.5,0,54.9,0,82.4,0c2.7,0,5.3,0.1,7.9-0.6
		c3.6-1,5.9-3.4,5.8-7.1c-0.1-3.9-2.7-5.9-6.3-6.7c-2.3-0.5-4.6-0.4-7-0.4c-27.6,0-55.3,0-82.9,0c-2.8,0-5.7,0.5-8.2-1.5
		c-1.3-1.9-1.2-4.1-1.2-6.2c0-10.4,0-20.9,0-31.3c0-2.3-0.1-4.7,1.6-6.6c35.7,0,71.3,0,107,0c6.5,5.4,11,12.4,16.4,18.7
		c7.9,9.2,15.6,18.6,23.4,28C277.3,216.8,279.6,218.3,279,221.3z"/>
	<path class="st2" d="M279,221.3c-7.6-10.6-16.6-20.1-24.7-30.3c-6-7.6-13-14.5-18.3-22.7c98.2,0,196.3,0,294.5,0.1
		c1.5,0,3.4-1.2,4.5,0.9c-3.2,10-8.8,18.8-13.2,28.2c-3.2,6.7-6.6,13.3-10,20c-1,1.9-1.7,4-4,4.8c-5.7,0.4-11.4,1.6-16.9-0.9
		c-28-0.1-56-0.2-83.9-0.2C364.3,221.2,321.7,221.3,279,221.3z"/>
	<path class="st3" d="M535,415.3c-47.1,0-94.2,0-141.2,0c-6.9,0-8.8-1.9-8.8-8.9c0-29.3,0-58.6-0.1-87.8c0-3.8,0.7-6.8,3.8-9.1
		c17,0,34-0.2,51-0.1c7.7,0.1,12.6,5.3,17.3,10.6c8,8.9,15.8,17.9,23.9,26.7c15.9,17.4,32,34.7,47.9,52.1c2.5,2.8,4.2,6.3,6.2,9.5
		C535,410.6,535,412.9,535,415.3z"/>
	<path class="st4" d="M431,609.3c-4.7-1.4-9.7-2.4-14.1-4.4c-20.6-9.6-31.1-25.9-32.1-48.5c1.6-26.7,16.9-45.8,42-51.4
		c30.4-6.9,60.4,14.7,63.3,45.5c0.2,2,0.6,3.9,1,5.9c1.2,1.4,1.2,3,1,4.7c-2.9,22.2-14.7,37.6-35.4,46.2c-3.7,1.6-7.8,0.9-11.6,2
		C440.3,609.3,435.7,609.3,431,609.3z"/>
	<path class="st4" d="M182.1,556.3c-1.8,27.9-17.1,46.1-44,52.1c-0.4,0.1-0.7,0.6-1,0.9c-5,0-10,0-15,0c-3-0.8-6-1.5-9-2.5
		c-22-7-35.6-25.4-37.2-50.5c2-27.1,16.8-45.6,42-51.4c30.2-7,60.5,14.7,63.3,45.5C181.3,552.3,181.8,554.3,182.1,556.3z"/>
	<path class="st5" d="M490.9,221.4c6-0.1,11.9-0.2,17.9-0.3c2,1.4,1.6,3.5,1.6,5.5c0.1,5.1,0.2,10.3,0,15.4
		c-0.2,3.8,0.9,6.4,4.6,7.8c5.6,2.1,9.5,6.5,13.6,10.7c4.5,4.7,5.5,10.8,6.5,16.8c0,3.7,0,7.3,0,11c-2.5,9.5-6.8,17.8-15.1,23.8
		c-18.9,13.6-47.6,3.7-53.9-18.7c-0.7-2.4-1.4-4.8-1.7-7.3c-0.9-6.1,2.6-11.2,8-11.8c5.5-0.6,9.1,2.9,9.8,9.4
		c0.9,8.4,6.7,15.2,14.2,16.6c8.1,1.5,15.8-2.4,19.4-9.9c3.5-7.4,1.6-15.5-5.1-21.1c-3-2.6-6.7-3.5-10.6-3.9c-6.6-0.6-9-3.2-9-9.9
		C490.9,244.1,490.9,232.7,490.9,221.4z"/>
	<path class="st6" d="M535,468.3c-17,0-34,0-51,0c-6.4,0-10.8-3.4-11-8.4c-0.1-5.8,4-9.5,11-9.5c17-0.1,34,0,51,0
		C535,456.3,535,462.3,535,468.3z"/>
	<path class="st7" d="M129.1,230.2c0-6,0-12,0-17.9c31.6,0,63.3,0,94.9,0c6.3,0,10.8,3.5,11,8.4c0.1,5.8-4,9.6-10.9,9.6
		C192.4,230.3,160.8,230.2,129.1,230.2z"/>
	<path class="st7" d="M129.1,265.2c0-6,0-12,0-17.9c19.6,0,39.2-0.1,58.8,0c7.1,0,11.1,3.5,11,9.2c-0.1,5.8-3,8.7-9.1,8.7
		C169.7,265.3,149.4,265.2,129.1,265.2z"/>
	<path class="st2" d="M191,353.6c0-5,4.1-9.5,8.6-9.1c4.3,0.3,9,4.2,8.5,9.2c-0.5,5.5-3.5,8.7-8.9,8.5
		C194.2,362.1,190.9,358.7,191,353.6z"/>
	<path class="st2" d="M164,353.8c-0.1,4.5-4.5,8.5-9.2,8.4c-5-0.2-8-3.7-7.8-9.4c0.1-4.4,4.5-8.5,8.7-8.4
		C160.3,344.6,164.1,348.9,164,353.8z"/>
	<path class="st2" d="M103,353.2c0-4.5,4-8.6,8.3-8.7c4.5-0.2,8.8,4.3,8.7,9c-0.1,4.7-4.2,8.8-8.9,8.8
		C106,362.3,102.9,358.8,103,353.2z"/>
	<path class="st8" d="M455.2,556.2c0,9.8-7.6,17.7-17,17.9c-9.6,0.1-17.9-8-18.1-17.6c-0.1-9.2,8.6-18,17.9-18
		C447.4,538.5,455.2,546.6,455.2,556.2z"/>
	<path class="st8" d="M129,574.1c-9.5,0-17.7-8.1-17.9-17.7c-0.1-9,8.4-17.8,17.4-17.8c9.6-0.1,18,8.1,18.3,17.5
		C147,565.2,138.2,574.1,129,574.1z"/>
</g>
</svg>
