<?xml version="1.0" encoding="utf-8"?>
<!-- Generator: Adobe Illustrator 19.0.0, SVG Export Plug-In . SVG Version: 6.00 Build 0)  -->
<svg version="1.1" id="Calque_1" xmlns="http://www.w3.org/2000/svg" xmlns:xlink="http://www.w3.org/1999/xlink" x="0px" y="0px"
	 viewBox="0 0 612 792" style="enable-background:new 0 0 612 792;" xml:space="preserve">
<style type="text/css">
	.st0{fill:#8596CA;}
	.st1{fill:#555F7F;}
</style>
<g>
	<path class="st0" d="M218,195.9c-4.9-2.4-10.2-2.1-15.4-1.7c-5.4,0.4-9.2-1.4-11.6-6.2c0-7.7,0-15.3,0-23c0.8-3.2,2.8-5.2,6-6
		c84,0,168,0,252,0c3.2,0.8,5.2,2.8,6,6c0,7.7,0,15.3,0,23c-2.4,5-6.5,6.2-11.8,6.2c-43.8-0.2-87.6-0.1-131.4-0.1
		c-1.6,0-3.4-0.6-4.7,0.8c-1.9,1.9-4.3,1.6-6.6,1.6c-24.7,0.1-49.3,0-74,0C223.6,196.7,220.9,195.7,218,195.9z"/>
	<path class="st0" d="M191,642c2.4-5,6.4-6.3,11.8-6.2c45.9,0.2,91.8,0.1,137.7,0.1c2.1,0,4.3,0.7,6.3-0.6c1.8-2.1,4.2-1.8,6.5-1.8
		c22.6-0.1,45.2,0,67.7-0.1c2.7,0,5.2,0.8,7.9,0.7c4.6,2.6,9.6,1.9,14.4,1.7c5.4-0.3,9.2,1.3,11.6,6.2c0,7.7,0,15.3,0,23
		c-0.8,3.2-2.8,5.2-6,6c-84,0-168,0-252,0c-3.2-0.8-5.2-2.8-6-6C191,657.3,191,649.7,191,642z"/>
	<path class="st0" d="M213.8,538.8c19.9-9.3,39.8-18.5,59.7-27.8c37.4-17.3,74.9-34.6,112.4-51.8c0.4-1.9,2-2.6,3.5-3.2
		c10.5-4.5,20.6-9.7,31.1-14.1c2.8-1.2,5.6-2,8.6-1.8c5.2,1.9,10.4,3.9,13.7,8.6c6.9,9.6,3.5,21.8-7.8,27
		c-21.7,10.1-43.5,20-65.3,30c-34.9,16-69.8,32.1-104.7,48.2c-1.5,0.7-3.8,0.7-4,3.1c-2.5,1-4.5-0.4-6.6-1.3
		c-8.3-3.9-16.5-7.7-24.9-11.5c-4.3-1.9-8.4-3.9-13.2-4C215.3,540.1,214.3,539.8,213.8,538.8z"/>
	<path class="st0" d="M213,344.9c29.4-13.6,58.7-27.2,88.1-40.8c26.2-12.1,52.5-24.1,78.7-36.2c1.5-0.7,3.2-1,4-2.7
		c3.5-3.2,8-4.5,12.2-6.5c7.5-3.5,15.1-6.8,22.5-10.5c3.3-1.6,6.8-2.4,10.4-2.2c3.7,1.4,7.6,2.5,10.7,5.1c10.2,8.5,8.2,23.7-4,29.8
		c-8.9,4.4-18.1,8.4-27.2,12.6c-47.9,22-95.8,44-143.7,66.1c-1.5,0.7-3.9,0.6-3.8,3.2c-1.9,1.1-3.5-0.2-5.1-0.9
		c-9.4-4-18.7-8.5-28-12.8c-3.8-1.7-7.6-3.2-11.9-3C214.9,346.3,213.8,346,213,344.9z"/>
	<path class="st1" d="M213,344.9c6.9-1,12.9,1.7,18.9,4.5c9.7,4.6,19.5,9,29.2,13.4c30.8,14.1,61.6,28.2,92.4,42.4
		c25.2,11.6,50.4,23.2,75.6,34.8c-14.9,5.2-28.8,12.6-43.2,19.1c-20.6-9.6-41.3-19.2-61.9-28.8c-37.4-17.2-74.9-34.4-112.4-51.6
		c-8.2-3.8-12.2-9.8-11.5-18C200.6,352.6,205.2,347.4,213,344.9z"/>
	<path class="st1" d="M213.8,538.8c8.2-0.8,14.9,3.6,21.9,6.7c8.5,3.7,16.8,7.6,25.2,11.5c51.2,23.5,102.4,47,153.5,70.5
		c4.8,2.2,9.7,4.4,14.5,6.7c-1.6,1.8-3.8,0.9-5.7,0.9c-25.5,0.1-51,0.1-76.5,0.1c-45-20.7-89.9-41.3-134.9-62.1
		c-9-4.2-12.8-9.9-12-18.6C200.7,546,205.9,541.1,213.8,538.8z"/>
	<path class="st1" d="M429,246.1c-13.2,3.8-25.1,10.8-37.7,16.2c-2.4,1-4.6,2.6-7.4,2.8C328.6,242.1,273.3,219,218,195.9
		c1.6-1.7,3.8-0.9,5.7-0.9c27.8-0.1,55.6,0,83.3,0C347.7,212,388.3,229.1,429,246.1z"/>
</g>
</svg>
