<?xml version="1.0" encoding="utf-8"?>
<!-- Generator: Adobe Illustrator 19.0.0, SVG Export Plug-In . SVG Version: 6.00 Build 0)  -->
<svg version="1.1" id="Calque_1" xmlns="http://www.w3.org/2000/svg" xmlns:xlink="http://www.w3.org/1999/xlink" x="0px" y="0px"
	 viewBox="0 0 612 792" style="enable-background:new 0 0 612 792;" xml:space="preserve">
<style type="text/css">
	.st0{fill:#98381A;}
	.st1{fill:#D15627;}
	.st2{fill:#D05627;}
	.st3{fill:#B86447;}
	.st4{fill:#B96447;}
</style>
<g>
	<path class="st0" d="M437,518.2c3.7,12.6,0.5,19.3-11.8,25c-7.7,0-15.3,0-23,0c-6-0.9-10.7-4-14.8-8.4c-9.5-10.1-19.8-19.3-32.7-25
		c-29.7-12.9-58-10.2-84.8,8c-7.1,4.8-13.2,10.7-18.9,17c-4.1,4.4-8.8,7.5-14.8,8.4c-7.7,0-15.3,0-23,0c-10.1-4.6-14-10-13.3-18.6
		c0.7-8.2,7.3-15.1,15.5-15.3c8.3-0.2,15-3.4,20.6-9.4c4.2-4.5,8.7-8.6,13.1-12.9c1.3-3,3.9-4.8,6-7c1.5-1.6,2.9-3.1,3.5-5.3
		c0.3-6.2,0-12.3,0.1-18.5c0.1-6.6,1-7.5,7.6-7.5c25.8-0.1,51.5,0,77.3,0c9.6,0,19.3,0,28.9,0c1.8,0,3.7-0.1,5.4,0.8
		c1.9,1.6,1.6,3.8,1.7,5.9c0.2,6.6-0.2,13.1,0.2,19.7c2.1,4.8,6.3,7.7,10,11c6.4,5.3,11.7,11.7,17.9,17.2c1.3,1,2.8,1.6,4.3,2.3
		c4,1.9,8.4,2.2,12.7,2.5c1,0.1,1.9,0.5,2.8,0.8c3.5,1.5,6.6,3.6,8.9,6.7C436.9,516.3,437.2,517.2,437,518.2z"/>
	<path class="st1" d="M259.1,248.1c0.1-8.5,0.3-16.9,0.1-25.4c-0.2-5.2,1.5-9,5.9-11.6c10.3,0,20.7,0,31,0c5.3,1.5,7.3,5.2,7.3,10.4
		c0,2.3-0.1,4.7,0.1,7c0.6,8.8,7.2,15.1,15.5,15.2c8.1,0,15-6.7,15.6-15.2c0.2-2.3,0.1-4.7,0.1-7c0-5.2,2-9,7.3-10.4
		c10.3,0,20.7,0,31,0c4.4,2.6,6,6.4,5.9,11.6c-0.2,8.4,0,16.9,0.1,25.4c1.1,1.3,1.5,2.9,1.5,4.6c0.1,10.5,0.1,20.9,0,31.4
		c0,1.3-0.3,2.6-1,3.8c-3.7,2.9-8,1.3-12.1,1.7c-1.5-0.3-3.1,0.1-4.6-0.1c-5.2,0-10.3,0.1-15.5,0c-1.5-0.2-3,0.1-4.5,0
		c-5.2,0-10.3,0.1-15.5,0c-1.5-0.2-3,0.1-4.5,0c-5.2,0-10.3,0.1-15.5,0c-1.5-0.2-3,0.1-4.5,0c-5.2,0-10.3,0.1-15.5,0
		c-1.5-0.2-3,0.1-4.5,0c-5.1,0-10.3,0.1-15.4,0c-1.5-0.2-3.1,0.1-4.6-0.1c-1.6-0.2-3.3-0.2-4.3-1.7c-1-1.7-1-3.5-1-5.3
		c-0.1-9.4,0-18.9,0-28.3C257.5,252,257.6,249.8,259.1,248.1z"/>
	<path class="st2" d="M108,373.1c-2.7-5.6-2.9-11.3-0.2-17c2.8-4.4,7-7.1,11.3-9.8c6.7-1.4,12.3,0.9,17.4,5
		c5.1,4.1,10.1,8.5,15.6,12.1c3.5,3.7,7.6,6.6,11.6,9.6c2.6,2.1,5.2,4.2,7.8,6.3c1,0.9,2.1,1.7,3.2,2.4c2.9,2.2,5.6,4.5,8.5,6.7
		c1.2,0.9,2.3,2,3.6,2.8c2.3,1.7,4.3,3.7,6.6,5.2c1.1,1,2.2,2.1,3.5,2.9c2.5,1.9,5.2,3.7,7.6,5.9c1.4,1.1,2.9,2.1,4.2,3.2
		c2.7,1.8,4.9,4.1,7.6,5.9c1,0.9,2.1,1.6,3.2,2.4c2.5,2.3,5.4,4.2,7.9,6.5c1.4,1.1,2.9,2.1,4.3,3.2c2.6,1.8,4.9,4,7.5,5.8
		c0.8,0.7,1.7,1.4,2.6,2c2.6,2.1,5.2,4.1,7.7,6.2c1.3,1.3,3,2.2,4.4,3.3c2.2,2.1,5.7,3.1,5.5,7c-0.4,8.8,0.6,17.5-0.5,26.3
		c-3,3.7-6.1,7.1-10,9.9c-0.9-2.1-2.9-3.1-4.6-4.4C201,448,157.5,413.6,114,379C111.8,377.3,110,375.1,108,373.1z"/>
	<path class="st1" d="M530.5,356.1c2.8,5.7,2.4,11.4-0.2,17c0.1,3.4-2.7,4.8-4.8,6.5c-29,23.1-58.1,46.1-87.1,69.2
		c-14.3,11.4-28.7,22.7-43,34.1c-1.9,1.5-3.7,3.4-6.2,4.1c-3.8-2.8-7.1-6.2-10-9.9c-1.2-8.4-0.2-16.9-0.5-25.3c0-0.5,0-1.1,0-1.6
		c0-2.3,1.8-3.4,3.3-4.6c7.8-6.1,15.5-12.4,23.4-18.4c6.1-4.3,11.6-9.3,17.6-13.7c17.2-13.4,34.4-26.8,51.5-40.3
		c4.1-3,8.2-6,11.8-9.7c5.5-3.6,10.5-8,15.6-12.1c5.1-4.1,10.7-6.4,17.4-5C523.5,348.9,527.7,351.7,530.5,356.1z"/>
	<path class="st0" d="M519.1,346.3c-12.1-0.1-19.5,8.6-27.9,15.2c-1.6,1.3-3.2,2.4-5.2,2.7c-3.6,0.4-5.3-2.7-8-4.2
		c-2.1-1.2-3.9-2.9-6.1-4c-1.9-1.2-3.5-2.8-5.2-4.1c-1.4-1.1-2.9-2-4.3-3c-2.8-2.2-5.7-4.1-8.6-6.1c-1-0.9-2.1-1.6-3.2-2.3
		c-2.7-1.8-5.1-3.9-7.8-5.6c-1.5-1-2.9-2.1-4.4-3.2c-2.8-2-5.6-3.9-8.4-5.9c-0.9-0.7-1.8-1.3-2.8-2c-2.7-2.1-5.6-4-8.4-6
		c-0.9-0.7-1.7-1.4-2.7-2c-2.9-1.8-5.6-4-8.4-6c-1.3-1.2-2.8-2.1-4.2-3.1c-2.4-1.5-4.5-3.4-6.9-4.9c-1.5-1-2.9-2-4.3-3.1
		c-2.8-1.9-5.6-3.8-8.3-5.8c-0.9-0.6-1.8-1.3-2.7-1.9c-1.1-0.8-2.3-1.6-2.3-3.1c0-13.3,0-26.5,0-39.8c9.5,5.5,18.1,12.3,27.1,18.6
		c37,26,74,52.1,111,78.1C517.9,345.2,518.5,345.8,519.1,346.3z"/>
	<path class="st0" d="M152.2,364.3c-4.8-1.2-7.8-4.9-11.2-7.9c-6.4-5.5-13.2-9.8-21.9-10.1c27.7-19.6,55.4-39.2,83.1-58.7
		c17.5-12.4,35.1-24.7,52.6-37.1c1.3-0.9,2.8-1.7,4.2-2.5c0,13.3,0,26.5,0,39.8c-0.1,2-1.6,2.8-3,3.7c-14.2,10-28.1,20.4-42.3,30.3
		c-4.2,3-8.3,6-12.5,9c-11.7,8.2-23.3,16.6-34.9,24.9c-3.1,2.2-6.3,4.4-9.4,6.6C155.6,363.4,154.3,364.8,152.2,364.3z"/>
	<path class="st3" d="M379.1,449.3c0,0.3,0,0.5,0,0.8c-0.4,0.5-0.8,0.6-1.2,0.1c-37.7,0-75.5,0-113.2-0.1c-3.9,0-4.8,1.3-4.7,4.9
		c0.3,5.8,0.1,11.6,0,17.5c0,1.6,0.6,3.4-1,4.7c0-9.2,0-18.5,0-27.7c1.2-1.7,3.1-1.5,4.9-1.7c1.5,0.1,3-0.1,4.5,0
		c5.1-0.1,10.2-0.1,15.3-0.1c1.5,0.2,3-0.1,4.5,0c5.2,0,10.3-0.1,15.5,0c1.5,0.2,3-0.1,4.5,0c5.2,0,10.3-0.1,15.5,0
		c1.5,0.2,3-0.1,4.5,0c5.2,0,10.3-0.1,15.5,0c1.5,0.2,3-0.1,4.5,0c5.2,0,10.3-0.1,15.5,0c1.5,0.2,3.1-0.1,4.6,0.1
		C372,448.1,375.9,446.4,379.1,449.3z"/>
	<path class="st4" d="M377.9,450.2c0.4,0,0.8-0.1,1.2-0.1c0,9,0,18,0,27c-2-3-0.8-6.4-1-9.6C377.9,461.8,378,456,377.9,450.2z"/>
</g>
</svg>
