<?xml version="1.0" encoding="utf-8"?>
<!-- Generator: Adobe Illustrator 19.0.0, SVG Export Plug-In . SVG Version: 6.00 Build 0)  -->
<svg version="1.1" id="Calque_1" xmlns="http://www.w3.org/2000/svg" xmlns:xlink="http://www.w3.org/1999/xlink" x="0px" y="0px"
	 viewBox="0 0 612 792" style="enable-background:new 0 0 612 792;" xml:space="preserve">
<style type="text/css">
	.st0{fill:#41B1E0;}
	.st1{fill:#FBC67B;}
	.st2{fill:#EF776A;}
	.st3{fill:#13242B;}
	.st4{fill:#E19961;}
	.st5{fill:#788C99;}
	.st6{fill:#D9DDDE;}
	.st7{fill:#778C99;}
	.st8{fill:#445C6C;}
	.st9{fill:#D35948;}
	.st10{fill:#D25947;}
	.st11{fill:#EEF0F1;}
	.st12{fill:#243843;}
	.st13{fill:#EF7E6F;}
	.st14{fill:#64757E;}
	.st15{fill:#DF9962;}
	.st16{fill:#293E49;}
	.st17{fill:#2D3D47;}
	.st18{fill:#283D48;}
	.st19{fill:#14252B;}
	.st20{fill:#14242B;}
	.st21{fill:#576B78;}
	.st22{fill:#7D8E97;}
	.st23{fill:#D26253;}
	.st24{fill:#7D8F98;}
	.st25{fill:#7E8F98;}
	.st26{fill:#F3C37F;}
	.st27{fill:#F8C57E;}
	.st28{fill:#496170;}
	.st29{fill:#EFC992;}
	.st30{fill:#F2CC96;}
	.st31{fill:#687B88;}
	.st32{fill:#F0786B;}
	.st33{fill:#EFBE7A;}
	.st34{fill:#379EC7;}
	.st35{fill:#379FC7;}
	.st36{fill:#308CAF;}
	.st37{fill:#3088AB;}
	.st38{fill:#3089AB;}
	.st39{fill:#2F89AC;}
	.st40{fill:#445C6B;}
	.st41{fill:#ED776A;}
	.st42{fill:#CD5E4E;}
	.st43{fill:#E39A61;}
	.st44{fill:#C7C4C4;}
	.st45{fill:#D15947;}
	.st46{fill:#5B6F7B;}
	.st47{fill:#FBC57B;}
</style>
<g>
	<path class="st0" d="M527.8,393.1c0.2,0,0.3,0,0.5,0c11.6,0.2,11.6,0.2,11.6,12.1c0,31.7-0.1,63.3,0.1,95c0,3.9-0.7,5.4-5.1,5.4
		c-100.6-0.1-201.3-0.1-301.9,0c-3.5,0-5.3-0.4-5.2-4.7c0.2-33.7,0.1-67.3,0.1-101c0-7.5-1.1-6.6,6.6-6.7c1.8,0,3.7,0,5.5,0
		c3.4-0.9,6.8-1.7,10.4-1.3c89-0.3,177.9-0.3,266.9,0C521,391.3,524.4,392.2,527.8,393.1z"/>
	<path class="st1" d="M133,515.3c-0.8,0-1.7-0.1-2.5-0.1c-2,0.1-2.5-1-2.5-2.8c0.1-1.9,1.2-2.2,2.6-2.1c2.8,0.3,4-0.6,4.4-3.7
		c2.8-24.5,5.8-49,8.7-73.5c1.2-9.9,2.1-19.8,3.2-29.7c0.8-7.1,1.7-12.5,13-14.1c7.9,1.7,11.8,9,9.1,17.2c2.3,19.3,4.7,38.5,7,57.8
		c1.7,14,3.4,28,5.1,42c0.2,1.8,0.3,3.9,2.9,3.9c1.9,0,3.2,0.4,3.1,2.8c-0.2,2.6-2.1,2.1-3.6,2.2c-0.5,0-1,0.1-1.5,0.1
		c-1.7,1.4-3.7,1.3-5.7,1.3c-12.5,0-25.1,0-37.6,0C136.6,516.7,134.6,516.8,133,515.3z"/>
	<path class="st2" d="M127.8,523.5c-4.8,0.7-6.2-1-6.1-5.9c0.3-15.5,0.2-30.9,0.1-46.4c0-5.5-2.3-7.9-7.8-8
		c-7.6-0.1-15.3,0.3-22.9-0.2c-5.3-0.3-9.1,1.1-10.9,6.3c-2.2,1.7-2.6,4.6-4.1,6.7c-1.7,4.5-4,8.8-5.7,13.3c-1.3,3.5-3.6,5.8-7,7.4
		c-5.3,2.4-10.4,5.2-15.7,7.7c-6.7,3.7-6.8,3.9-0.9,8.4c2.8,2.2,2.7,4-0.2,6.2c-2.3,1.8-5.5,1.2-7.6,3.2c-0.3,1.7-0.6,3.4-0.8,5
		c2.1,1.8,4.6,1.4,7,1.4c4.4-0.1,8.8,0.1,13.1,1.5c2.1,0.1,3.8-1,5.7-1.8c6-2.5,12-2.3,17.9,0.3c3.7,1.6,6.4,4.8,9.9,6.6
		c10,2.4,20.1,1.2,30.2,0.4c1.6-1.6,1.4-3.6,1.4-5.6c0-3,1.2-4.5,4.4-4.5c1.6,0,3.7,0.5,4.6-1.8
		C130.8,523.7,129.3,523.3,127.8,523.5z"/>
	<path class="st3" d="M423,548.2c-18.7,0-37.3,0-56,0.1c-2.3,0-4.1-0.5-6-1.8c-9.6-7.1-19.4-14.1-29.1-21.1c0.7-2.8,3-1.4,4.5-1.4
		c16.5-0.1,33-0.1,49.5-0.1c44.8,0,89.7,0,134.5,0c1.8,0,3.7-0.5,5.4,0.5c0.1,2,0.1,3.9,0.2,5.9c1.9,3.1,1.9,6.1,0,9.2
		c-0.4,8.9-0.4,8.8-9.7,8.8c-2.5,0-4.9,0.1-7.4,0.2c-1-0.8-1.1-2-1.3-3.1c-1.7-9.8-8.8-16.6-18.2-17.4c-7.8-0.7-16.2,5.6-19.3,14.4
		c-0.7,2-0.5,4.3-2.2,6c-1,0-2,0-3,0c-1.4-1.1-1.7-2.8-2.2-4.4c-2.4-9.3-10.2-15.8-19.2-16c-7.7-0.2-15.8,6.4-18.7,14.9
		C424.4,544.6,424.6,546.7,423,548.2z"/>
	<path class="st4" d="M169,406.5c-0.1-7.3-1.6-13.8-9.1-17.2c31.8-19.2,63.6-38.5,95.3-57.8c1.9-1.1,3.2-1.5,4.5,0.6
		c4,3.2,6.5,7.3,7.4,12.4c1.8,3-1.2,3.3-2.6,4.2c-21.6,13.1-43.2,26.2-64.8,39.2C189.5,394.2,179.3,400.3,169,406.5z"/>
	<path class="st5" d="M267.2,344.6c-2.5-4.1-4.9-8.3-7.4-12.4c10.5-6.4,20.9-12.9,31.4-19.3c9.1-5.6,18.2-11.1,27.3-16.5
		c1.4-0.9,3-2.6,4.6-0.1c2.8,2,4.3,4.7,5,8c0.7,1.7,1.5,3.1-0.9,4.5C307,320.6,287.1,332.6,267.2,344.6z"/>
	<path class="st6" d="M328,304.3c-2.3-2.3-3.7-5.1-5-8c18.5-11.1,37-22.1,55.4-33.3c3.2-2,6-3.9,9.2-0.6c3.5,3.7,0.2,6.3-1.7,9
		c-2.8,2.7-0.6,6.7-2.5,9.7c-0.4,0.4-0.9,0.5-1.4,0.2c0-2.4,0-4.8,0-7.9c-8,4.7-15.3,8.8-22.5,13.1c-9.6,5.7-19.1,11.4-28.6,17.1
		C330,304.2,328.9,304.1,328,304.3z"/>
	<path class="st5" d="M527.8,393.1c-3.4,0-6.8,0-10.2,0c-5.7-1.1-10.3-4.6-15.2-7.2c-31-16.8-62.1-33.4-93-50.2
		c-7.4-4.1-14.7-8.5-22.5-11.7c-1.3-1.1-2.9-1.6-4.3-2.5c-1.4-1-3.4-1.8-2.5-4.2c2.6-0.7,5.2-0.9,7.8,0.1c1.4,0.1,2.2,1.2,3,2.1
		c29.7,16,59.4,32,89.1,48C496,375.9,511.9,384.5,527.8,393.1z"/>
	<path class="st5" d="M249.9,393.1c-3.3,0-6.5,0-9.8,0c43.3-23.3,86.7-46.5,130-69.8c2.5-1.4,5.8-1.8,7.1-5c2.3,1.1,3.7,2.7,3.8,5.3
		c-23.7,12.8-47.4,25.5-71.1,38.2c-17.1,9.2-34.2,18.4-51.3,27.6C255.8,390.9,252.9,392.1,249.9,393.1z"/>
	<path class="st7" d="M154,547.4c0-4.5,0.1-9,0-13.5c0-2.4,0.5-3.8,3.3-3.7c5.5,0.1,11,0.1,16.5,0c2.8-0.1,3.3,1.3,3.3,3.7
		c-0.1,4.5,0,9,0,13.5c0.2,1.9-0.3,3.1-2.6,3.1c-5.9-0.1-11.8-0.1-17.8,0C154.3,550.5,153.8,549.3,154,547.4z"/>
	<path class="st8" d="M121.8,535.3c0-0.2,0.1-0.3,0.1-0.5c0.4-10.2,0.4-10.2,10.4-11c0.5-0.2,1-0.4,1.6-0.5c1.7-1.2,3.4-1.4,5.2-0.3
		c1.1,1.2,1.3,2.8,1.3,4.3c0.3,5.9-0.2,11.8,0.4,17.6c0,0.9-0.2,1.8-0.9,2.4c-5.9,0-11.8,0-17.8,0
		C119.5,543.4,119.9,539.3,121.8,535.3z"/>
	<path class="st9" d="M121.8,535.3c0.1,4,0.2,8.1,0.3,12.1c-3.9,2-8,0.7-12,0.8c-4.7,0.2-9.5,0-14.3-0.1c-1.9-4.5-3.2-9.2-4.6-13.8
		C101.4,536.4,111.6,533.9,121.8,535.3z"/>
	<path class="st10" d="M38.1,527.3c3.6,0,7.3,0.2,10.9-0.1c3.6-0.3,6.8,0.5,9.9,2.1c0.3,0.7,0.1,1.3-0.4,1.8
		c-4.4,3.9-6.8,8.8-7.9,14.5c-0.2,1-0.7,1.8-1.4,2.6c-0.8,0.1-1.6,0.1-2.5,0.2c-10.2,0.2-11.9-1.9-10-12.1
		C37.2,533.2,37.7,530.3,38.1,527.3z"/>
	<path class="st11" d="M75.4,472.5c-9,8.9-17.4,18.4-27,26.6c-7.6,6.5-9.3,14.3-9.4,23.3c1,0,2,0.1,3-0.1c3.8-0.8,8.2-1.7,8.7-6.2
		c0.4-3.9-3.7-4.9-6.8-6.1c-0.2-0.1-0.3-0.5-0.5-0.8c1-2,3.4-2,4.8-3.4c10.2-9.3,20.2-18.8,29.1-29.3c1.5-2.1,2.5-4.4,3-6.9
		C77.8,469.2,76.7,471.1,75.4,472.5z"/>
	<path class="st12" d="M139.1,523.3c-1.8,0-3.5-0.1-5.3-0.1c-0.2-2-0.5-4-0.7-6c1.1-1,2.4-1,3.8-1c13.4,0,26.9,0,40.3,0
		c1.3,0,2.7-0.1,3.7,0.9c0.8,4.7-0.9,6.4-5.8,6.1c-7.4-0.4-14.9,0-22.4,0C148.2,525.6,143.6,525.6,139.1,523.3z"/>
	<path class="st13" d="M298.7,523.7c1.1-0.1,2.2-0.1,3.3-0.2c1.8,2.3,4.4,2.5,7.1,2.4c1.9,0,3.9-0.6,5.8,0.3c-0.4,6.3,1.2,12.8-1,19
		c-3.4,2.8-7.1,4.4-11.6,3.7c-1.5-7-0.9-14.1-1.1-21.2C301,526.1,301.2,524.1,298.7,523.7z"/>
	<path class="st14" d="M525.9,524.3c-62.6,0-125.2,0-187.8,0.1c-2,0-4.3-0.9-6.1,1c-5.5-2.5-11.3-0.8-17-1.3l-0.4-0.3l0.3-0.4
		c55.8,0,111.6,0,167.4,0c19.2,0,38.3,0,57.5-0.1C535.2,525,530.4,523.2,525.9,524.3z"/>
	<path class="st15" d="M382,281.4c0.2,0,0.4-0.1,0.6-0.2c1.1-0.7,2.1-0.9,3.2,0c2.5,2.4,4.4,5.1,5.4,8.6c1.7,5.9,0.4,9-5.4,11.7
		c-1.7,1.3-1.2,3.2-1.5,4.9c-0.3,1.7,0.4,3.7-1.8,4.6c-0.1-1.5-0.4-2.9-0.4-4.4c0.1-2.9-0.2-5.1-3-7.1c-4.5-3.2-3.6-7.7-1.3-12
		C379.1,285.4,380.6,283.4,382,281.4z"/>
	<path class="st16" d="M223,548.3c-1-5.7-2.4-11-6.8-15.6c-5.5-5.8-15.7-6.6-20.8-4.5c-8.1,3.3-13.5,8.9-13.5,18.4c0,0.7,0,1.3,0,2
		c-1-0.4-2.3,0-2.9-1.2c1.7-19.8,23.7-28.4,38.1-17c3.8,3,5.5,7.3,7.6,11.7c2.2-1,1.5-4,4-5.2c-0.9,4-1.8,7.7-2.7,11.4
		C225,548.2,224,548.2,223,548.3z"/>
	<path class="st17" d="M49.2,548.1c0.3-7.8,3.6-14,9.7-18.8c12.6-6.6,22.5-5.1,32.3,5c2.7,4.2,4.7,8.7,4.6,13.8
		c-0.9,0.2-1.9,0.3-2.8,0.5c-0.3-13.4-8.1-21.4-20.7-21.4c-11.7,0.1-19.2,8.3-19.5,21.5C51.7,548.5,50.4,548.3,49.2,548.1z"/>
	<path class="st18" d="M268,548.2c-1.6-4.4-1.2-9.3-4.7-13.3c-6.8-7.7-14.9-9.2-25-6.5c9.4-6.5,23.4-2.4,29.1,7.6
		c2,3.6,2.6,7.5,3.6,11.3C270.2,548.5,269.1,548.2,268,548.2z"/>
	<path class="st19" d="M180.9,517.3c-15.9,0-31.9,0-47.8,0c0-0.6-0.1-1.3-0.1-1.9c16.3,0,32.6,0,48.9,0c-0.1,0.6-0.1,1.2-0.2,1.9
		c0,0-0.4,0-0.4,0L180.9,517.3z"/>
	<path class="st20" d="M237,521.3c10.8,0,21.6,0,32.4,0c0,0.7,0,1.3,0,2c-10.8,0-21.6,0-32.4,0C237,522.6,237,522,237,521.3z"/>
	<path class="st21" d="M382.5,311c0.1-2.3,0.2-4.6,0.2-6.9c0-2.3,1.1-2.9,3.1-2.6c0,4-0.7,8.1,3.7,10.9c2.2,1.4,1.7,4.5,1.4,7
		c-1.5-0.1-2.5-0.7-3-2.1C388.7,312.8,383.8,313.6,382.5,311z"/>
	<path class="st22" d="M151.9,545.3c0,0.7,0,1.4,0,2.1c-0.1,0.7-0.1,1.4-0.2,2.1c-3.3,3.5-7.2,4.5-11.8,3.1c0-1.3,0.1-2.7,0.1-4
		c2.6-3,6.5-2.5,9.7-3.9C150.6,544.6,151.3,544.7,151.9,545.3z"/>
	<path class="st23" d="M314.8,523.3c0.1,0.2,0.1,0.5,0.2,0.7c-0.1,0.8-0.1,1.5-0.2,2.3c-3.4,1.9-7.2,0.8-10.7,0.9
		c-2.5,0.1-2.1-2-2.1-3.6C306.3,523.5,310.6,523.4,314.8,523.3z"/>
	<path class="st24" d="M302.2,549c3.9-1.2,7.8-2.5,11.6-3.7c0,1.6,0,3.2,0,4.8c-3.5,2.5-7.3,4.1-11.7,2.4
		C302.2,551.3,302.2,550.2,302.2,549z"/>
	<path class="st25" d="M151.7,553.3c0,1.2,0.1,2.5,0.1,3.7c-3.3,3.2-7.4,3.6-11.7,3.3c0-1.3,0-2.6,0-3.9
		C143.6,553.9,147.1,551.7,151.7,553.3z"/>
	<path class="st25" d="M302.2,560.3c0-1.2,0-2.5,0-3.7c3.4-2.9,7-4.8,11.7-3.4c0,1.3,0,2.6,0,3.9
		C310.5,560.1,306.5,560.8,302.2,560.3z"/>
	<path class="st26" d="M151.7,553.3c-3.9,1.1-7.7,2.1-11.6,3.2c0-1.3-0.1-2.7-0.1-4c4.1-0.5,8-1.6,11.8-3.1
		C151.8,550.7,151.7,552,151.7,553.3z"/>
	<path class="st27" d="M313.9,553.2c-3.9,1.1-7.8,2.2-11.7,3.4c0-1.4-0.1-2.7-0.1-4.1c3.9-0.8,7.8-1.6,11.7-2.4
		C313.8,551.1,313.8,552.2,313.9,553.2z"/>
	<path class="st28" d="M381.1,323c-2.1-0.9-3-2.9-3.9-4.8c-0.2-1.1-0.6-2.3,0.8-2.9c1.4-0.5,2,0.4,2.1,1.7c0.6,3.9,5.6,2.8,6.8,6
		C384.9,324.9,383,325,381.1,323z"/>
	<path class="st29" d="M302.2,560.3c3.9-1.1,7.8-2.1,11.7-3.2c0.6,3-0.5,4.4-3.6,4.1C307.6,560.9,304.7,562,302.2,560.3z"/>
	<path class="st30" d="M140.1,560.4c3.9-1.1,7.8-2.2,11.7-3.3c0.6,2.9-0.3,4.6-3.5,4.2C145.6,560.9,142.7,562,140.1,560.4z"/>
	<path class="st31" d="M385.8,281.2c-1.1,0-2.1,0-3.2,0c0-2.1,0.1-4.2,0.1-6.4c0-2.1,0.9-3.4,3.2-3.4
		C385.8,274.7,385.8,278,385.8,281.2z"/>
	<path class="st32" d="M526.1,539.4c-0.4-3.1-0.4-6.1,0-9.2c4-0.4,2.8,2.6,2.8,4.6C528.9,536.8,530.1,539.8,526.1,539.4z"/>
	<path class="st33" d="M149.7,545.3c-2.9,2-6.4,2.4-9.7,3.2c-0.1-0.4-0.2-0.8-0.2-1.2c0.1-0.7,0.1-1.4,0.2-2
		C143.2,543.2,146.5,543.2,149.7,545.3z"/>
	<path class="st34" d="M249,449.1c0,13.8-0.2,27.6,0.1,41.4c0.1,4.3-1.7,4.8-5.3,4.9c-3.6,0.1-4.9-0.9-4.9-4.8
		c0.2-27.6,0.2-55.2,0-82.9c0-4,1.6-4.6,5-4.6c3.3,0,5.2,0.3,5.1,4.5C248.8,421.5,249,435.3,249,449.1z"/>
	<path class="st35" d="M258,449.5c0-13.8,0.2-27.6-0.1-41.4c-0.1-4.3,1.7-4.8,5.3-4.9c3.6,0,4.9,0.9,4.9,4.7
		c-0.2,27.1-0.1,54.2-0.1,81.3c0,7-2.8,6.3-8,5.9c-2.8-0.2-2-2.7-2-4.3C257.9,477.1,258,463.3,258,449.5z"/>
	<path class="st34" d="M295,449.4c0-13.8,0.2-27.6-0.1-41.4c-0.1-4.4,1.9-4.6,5.4-4.8c3.7-0.1,4.8,1.1,4.8,4.8
		c-0.1,26.9-0.1,53.9-0.1,80.8c0,3.9-0.5,6.8-5.6,6.6c-3.5-0.1-4.5-1.3-4.5-4.7C295.1,477,295,463.2,295,449.4z"/>
	<path class="st34" d="M529,449.6c0,13.6-0.2,27.3,0.1,40.9c0.1,4.8-2.2,4.9-5.8,4.8c-4.2-0.1-4.7-2.8-4.1-5.8
		c1.1-6,1.1-11.8,0-17.8c-0.4-2.3,1-4.9,0.7-7.3c-1.3-11-0.1-22.1-0.3-33.1c-0.2-8.2-0.9-16.7,0.3-25.1c0.6-4.5,3.8-2.7,6-3
		c2.9-0.4,3.1,1.6,3.1,3.8C529,421.3,529,435.4,529,449.6z"/>
	<path class="st34" d="M351,449.3c0-13.8,0-27.6,0-41.4c0-2-0.7-4.7,2.8-4.6c2.8,0.1,5.7-0.9,6.7,3.6c0.8,3.5-1,6.5-0.6,9.8
		c1.4,10.8,0.4,21.8,0.5,32.6c0,10.1,0.9,20.4-0.4,30.6c-0.3,2.7,0,5.6,0.6,8.4c1.2,5.4-2.6,8.5-7.9,7c-2.6-0.8-1.8-2.9-1.8-4.5
		C351,476.9,351,463.1,351,449.3z"/>
	<path class="st34" d="M319.1,403.3c4.2-0.5,5.5,1.5,4.7,5.4c-1.2,5.4-1.3,10.9,0.1,16.3c0.7,2.6-1,4.9-0.8,7.4
		c1.2,11.2,0.4,22.5,0.4,33.6c0,8.6,0.9,17.4-0.3,26.1c-0.6,4.1-3.1,3-5.4,3.2c-2.7,0.3-3.8-0.8-3.8-3.7c0.1-28.2,0.1-56.3,0-84.5
		C313.9,402.9,316.3,403.2,319.1,403.3z"/>
	<path class="st34" d="M407,449.3c0-13.8,0.1-27.6-0.1-41.4c0-3.3,0.8-4.8,4.4-4.7c3.2,0.1,4.7,0.6,4.8,4.4
		c0.1,11.6-0.3,23.3,0.1,34.9c0.4,10.4-0.7,20.7,0.4,31.1c0.6,6-0.8,12.4-0.1,18.7c0.4,3.2-2.8,2.9-5.1,3c-2.6,0.1-4.5-0.1-4.4-3.6
		c0.2-10.1,0.1-20.3,0-30.4C407,457.3,407,453.3,407,449.3z"/>
	<path class="st34" d="M277,449.5c0-13.8,0.2-27.7-0.1-41.5c-0.1-4.9,2.4-4.7,5.9-4.8c4.2,0,3.6,2,3.4,5.1
		c-0.3,4.6-0.4,9.2,0.4,13.9c0.6,3.5-0.9,7.3-0.5,10.8c1.2,10,0.3,20.1,0.3,30.1c0,9.6,1,19.4-0.3,29.1c-0.5,3.8-2.9,2.8-5,3
		c-2.9,0.3-4.2-0.7-4.2-3.9C277,477.5,277,463.5,277,449.5z"/>
	<path class="st34" d="M370,449.1c0-13.7,0-27.3,0-41c0-2.6-0.4-5.2,3.6-4.9c2.8,0.2,5.2-0.4,5.7,4.1c0.4,3.6-0.7,6.9-0.3,10.3
		c1.1,11,0.4,22.1,0.4,33.2c0,10.8,0.6,21.8-0.4,32.7c-0.2,2.1,0.2,4.3,0.5,6.4c0.5,3.3-0.5,5.6-4.8,5.6c-3.7,0-4.9-1-4.9-4.8
		C370.1,476.8,370,463,370,449.1z"/>
	<path class="st34" d="M435,449.1c0,13.8-0.1,27.6,0.1,41.4c0,3.1-0.4,4.9-4.3,4.9c-3.6,0-4.9-0.9-4.9-4.8c0.1-27.6,0.1-55.2,0-82.9
		c0-3.5,1-4.6,4.5-4.6c3.4,0,4.7,0.9,4.6,4.5C434.9,421.5,435,435.3,435,449.1z"/>
	<path class="st34" d="M398,449.5c0,13.5-0.1,27,0,40.4c0,3.4-0.1,5.6-4.7,5.5c-4.1-0.1-4.5-1.9-4.5-5.2c0.1-27.3,0.1-54.6,0-81.9
		c0-3.2,0.2-5.2,4.4-5.2c4.5-0.1,4.7,2,4.7,5.5C397.9,422.2,398,435.9,398,449.5z"/>
	<path class="st34" d="M445,449c0-13.6,0.1-27.3-0.1-40.9c0-3.6,0.9-5,4.7-4.9c3.6,0.1,4.4,1.4,4.4,4.7c-0.1,27.6-0.1,55.2,0,82.9
		c0,3.4-0.9,4.6-4.4,4.7c-3.9,0.1-4.7-1.4-4.7-5C445.1,476.7,445,462.8,445,449z"/>
	<path class="st34" d="M472,449.6c0,13.6-0.1,27.3,0.1,40.9c0,3.6-0.9,5-4.7,4.9c-3.6,0-4.4-1.4-4.4-4.7c0.1-27.6,0.1-55.2,0-82.9
		c0-3.4,0.9-4.6,4.5-4.7c3.9-0.1,4.7,1.4,4.7,5C471.9,421.9,472,435.7,472,449.6z"/>
	<path class="st34" d="M491,449.4c0,13.8-0.1,27.6,0.1,41.4c0,3.5-1,4.6-4.5,4.6c-3.4,0-4.6-0.9-4.6-4.5c0.1-27.8,0.1-55.6,0-83.4
		c0-3.8,1.6-4.3,4.8-4.3c3.2,0,4.4,0.9,4.4,4.2C490.9,421.4,491,435.4,491,449.4z"/>
	<path class="st34" d="M510,449.1c0,13.8-0.1,27.6,0.1,41.4c0.1,3.7-1,4.9-4.8,4.9c-3.7,0-4.4-1.5-4.4-4.8c0.1-27.6,0.1-55.2,0-82.9
		c0-3.5,1-4.6,4.5-4.6c3.4,0,4.7,0.9,4.6,4.5C509.9,421.5,510,435.3,510,449.1z"/>
	<path class="st34" d="M342,449.8c0,13.6-0.1,27.3,0.1,40.9c0,3.4-0.9,4.7-4.5,4.7c-3.3-0.1-4.7-0.8-4.7-4.4
		c0.1-27.8,0.1-55.6,0-83.4c0-3.7,1.5-4.3,4.7-4.4c3.6-0.1,4.5,1.3,4.4,4.7C341.9,421.9,342,435.8,342,449.8z"/>
	<path class="st36" d="M535.9,499.4c-0.1,1.8-0.9,2.7-2.5,2.7c-1.1,0-2-0.6-2.1-1.7c-0.1-1.5,1-2.5,2.3-2.8
		C535.1,497.3,535.5,498.6,535.9,499.4z"/>
	<path class="st37" d="M534,400.9c-1.4-0.2-2.5-1.1-2.7-2.4c-0.2-1.3,0.8-2.1,2.1-2.1c1.3,0,2.2,0.7,2.3,2
		C536,399.7,535.4,400.6,534,400.9z"/>
	<path class="st38" d="M233.3,396.4c1.4,0,2.3,0.6,2.5,1.9c0.2,1.2-0.5,1.9-1.6,1.9c-1.4,0.1-2.7-0.3-2.8-2
		C231.3,397.1,232.2,396.6,233.3,396.4z"/>
	<path class="st39" d="M235.7,499.9c0,1.3-0.7,2-1.8,2.2c-1.3,0.2-2.4-0.3-2.6-1.6c-0.2-1.1,0.7-1.8,1.7-2
		C234.4,498.1,235.2,498.9,235.7,499.9z"/>
	<path class="st40" d="M533,512.1c-84.6,0-169.3,0-253.9,0c-14.7,0-29.3,0.1-44,0c-3,0-3.6,0.9-4.1,3.9c-1,5.8,3.6,4.1,6,5.4
		c0.7,0.7,1.6,0.9,2.4,1c-0.8,0.1-1.7,0.4-2.5,1c-16.1,0.9-32.3-0.1-48.4,0.5c-5.4,0.2-7.6-1.2-6.9-6.6c-0.6-0.1-1.1,0.1-1.5,0.7
		c-1,2.9-3,4-6.1,4c-4.5-0.1-8.9-0.1-13.4,0c-2.8,0.1-5.7-0.5-8.1,1.3c-1.3,1.7-1,3.8-1.1,5.7c-0.2,4.8,0.4,9.6-0.3,14.3
		c-0.1,0.6-0.2,1.2-0.2,1.7c0,0.9,0.2,1.7,0.9,2.4c0.7,0,1.3,0,2,0.1c2.6-3.4,1.3-7.4,1.5-11.1c0.2-3.1,1.3-4.6,4.5-4.5
		c3.5,0.1,7,0.1,10.5,0c3.7-0.2,5,1.4,5.1,5c0.1,3.6-1.1,7.4,1.5,10.6c0.7,0,1.3,0,2-0.1c1.7-1.4,1.8-3.5,2.4-5.3
		c4.4-13.9,20.4-19.7,32.8-12.1c4.1,2.5,6.4,6.2,8.3,10.3c0.6,1.2,1.1,2.6,2.8,2.3c0.9-0.2,1.3-0.8,1.4-1.6
		c-0.6,2.4-1.9,4.7-0.7,7.2c1,0.9,0.7,2.2,0.9,3.3c1.5,9,8.9,16.2,17.6,17c10.3,0.9,19-4.6,22-14c0.6-2,1-4.1,1.5-6.2
		c1.5-11.8-7-21-18.7-21.8c9.8,0.5,16.5,6.3,19.5,17.2c0.4,1.4,0.7,2.9,2.2,3.7c3.5,0,7-0.1,10.5,0.1c2.5,0.1,3.6-0.5,3.5-3.3
		c-0.2-5.7-0.2-11.3,0-17c0.1-2.6-0.7-3.6-3.3-3.5c-2.8,0.2-5.7,0-8.5,0c-1,0-2.1-0.1-2.1-1.5c0-1.3,0.9-1.7,2-1.6
		c8.6,0.6,17.7-2.1,25.8,3.2c1.5-0.1,2.8,0.5,4.2,0.9c4.3,0.2,8.6,0.7,12.8-0.8c7.8-0.4,15.6,0.8,23.4,0.9
		c59.8,0.1,119.6,0.2,179.3-0.1c7.1,0,14.2-0.5,21.2-1.4c0.1-1.3,0.3-2.6,0.3-4C540,512,540,512.1,533,512.1z M226.8,540.8
		c0-0.2,0.1-0.5,0.1-0.7C226.8,540.3,226.8,540.5,226.8,540.8z M243.3,522.3c1.8,0,3.5,0,5.3,0c-1.1,0-2.3,0-3.4,0.1
		C244.6,522.4,243.9,522.3,243.3,522.3z M258.9,548.3c-0.2,6.5-6.1,12.1-12.4,11.8c-6.3-0.3-11.6-6.1-11.3-12.3
		c0.3-6.3,5.9-11.6,12.2-11.4C253.6,536.5,259,542.1,258.9,548.3z"/>
	<path class="st41" d="M149.7,545.3c-3.2,0-6.5,0-9.7,0c-2-5.9-0.5-12-0.8-18c3.2-2.5,6.9-1.7,10.5-1.3c1.9,0.2,2.9,1.4,2.8,3.4
		c-0.2,5,0.4,9.9-0.4,14.9c0,0.3,0,0.6-0.2,0.9C151.2,545.3,150.5,545.3,149.7,545.3z"/>
	<path class="st42" d="M152.1,544.3c0-3.8-0.4-7.7-0.1-11.5c0.3-4.2-0.8-6.3-5.4-5.7c-2.5,0.3-5,0.1-7.5,0.1c0-1.3,0-2.7,0-4
		c4.5,0,9.1,0,13.6,0C152.6,530.4,153.6,537.4,152.1,544.3z"/>
	<path class="st43" d="M163,402c0.4,3.5-1.9,5.1-5,5.1c-3.1,0-5.2-1.6-5.1-5.3c0.1-3.7,1.5-5.6,5.3-5.5
		C161.8,396.4,163.1,398.5,163,402z"/>
	<path class="st6" d="M113.8,476.3c0,4.7,0,9.3,0.2,14c0.2,4.2-1.5,6.1-5.8,6.1c-7.3-0.1-14.6,0-21.9-0.1c-4.9-0.1-6.5-2.5-4.6-7.2
		c1.7-4.3,3.6-8.5,5.5-12.8c1-1.8,2.7-2.3,4.5-2.4c5.9-0.2,11.8-0.2,17.7,0C111.2,473.9,112.9,474.4,113.8,476.3z"/>
	<path class="st44" d="M113.8,476.3c-8.9-1.7-17.8-1.6-26.7,0c0.3-3.7,2.5-5,6-4.9c4.9,0.1,9.9,0,14.8,0
		C111.2,471.4,113.7,472.4,113.8,476.3z"/>
	<path class="st45" d="M107.6,509.5c-2.3-0.8-5.9,1-6-2.2c-0.1-3.3,3.5-2.1,5.5-2c2.2,0.1,6.1-1.4,6.2,1.9
		C113.4,510.9,109.3,508.4,107.6,509.5z"/>
	<path class="st40" d="M462.7,538.6c-4-8-14.2-13.5-22-11.8c-10.8,2.5-17.6,10.7-17.8,21.4c0.3,1.3,0.6,2.6,0.9,3.8
		c1.7,9,9.2,15.8,18.1,16.4c10,0.7,18.4-5,21.5-14.2c0.7-2,0-4.4,1.5-6.2C464.3,545,464.2,541.7,462.7,538.6z M444,560.1
		c-6.3,0.1-11.9-5.4-12-11.7c-0.1-6.3,5.2-11.9,11.5-12.1c6.5-0.2,12.3,5.4,12.3,11.9C455.8,554.5,450.3,560,444,560.1z"/>
	<path class="st8" d="M488.6,526.5c-10.5,0-20.5,8.5-20.6,21.7c0.3,1.3,0.6,2.6,0.8,3.9c2.2,10.8,11.4,17.4,22.6,16.3
		c10-1,17.5-9.5,17.6-20C511,537.9,501,526.6,488.6,526.5z M488.7,560.1c-6.3-0.1-11.7-5.5-11.7-11.9c0-6.3,5.4-11.8,11.7-11.8
		c6.4,0,11.9,5.3,12,11.6C500.8,554.5,495.2,560.1,488.7,560.1z"/>
	<path class="st40" d="M223.3,543.5c-1.9-8.8-7.4-14.4-15.9-16.8c-7.9-2.3-17.8,1.4-22.6,8.2c-2.9,4.1-5.8,8.3-3,13.7
		c0.1,10.2,7.1,18.4,16.9,19.8c10.4,1.5,20.1-4.5,22.9-14.3c0.6-1.9,0.8-3.9,1.2-5.9C224.2,546.7,223.7,545,223.3,543.5z
		 M202.1,560.1c-6.2,0-11.8-5.6-11.9-11.8c-0.1-6.5,5.6-12.1,12.2-12c6.3,0.2,11.7,5.7,11.6,12C213.9,554.7,208.4,560.1,202.1,560.1
		z"/>
	<path class="st8" d="M92.4,537.8c-8-14.8-29.5-15.5-38.4-1.2c-2.4,3.8-3.5,7.9-1.1,12.2c-0.1,11.2,8.5,19.7,19.9,19.8
		c11.6,0.1,20.3-8.4,20.3-19.9C95.4,544.8,94.2,541.2,92.4,537.8z M72.8,560.1c-6.5-0.2-11.7-5.4-11.7-11.9
		c0-6.6,5.7-12.1,12.2-11.8c6.4,0.2,11.6,5.7,11.5,12.1C84.7,554.7,79,560.2,72.8,560.1z"/>
	<path class="st46" d="M386.7,265c-0.2,1.2-0.8,2.1-2.2,2.2c-1.6,0.1-2.5-0.7-2.5-2.3c0-1.3,0.7-2.2,2-2.3
		C385.5,262.6,386.3,263.6,386.7,265z"/>
	<path class="st47" d="M388.9,293.8c-0.7,2.3-1.4,4.6-4.5,4.5c-2.9-0.1-5.1-1.7-5-4.4c0.1-2.4,1.9-4.6,5-4.6
		C387.6,289.3,388.2,291.5,388.9,293.8z"/>
</g>
</svg>
