<?xml version="1.0" encoding="utf-8"?>
<!-- Generator: Adobe Illustrator 19.0.0, SVG Export Plug-In . SVG Version: 6.00 Build 0)  -->
<svg version="1.1" id="Calque_1" xmlns="http://www.w3.org/2000/svg" xmlns:xlink="http://www.w3.org/1999/xlink" x="0px" y="0px"
	 viewBox="0 0 612 792" style="enable-background:new 0 0 612 792;" xml:space="preserve">
<style type="text/css">
	.st0{fill:#41B2E0;}
	.st1{fill:#FBC67B;}
	.st2{fill:#778C99;}
	.st3{fill:#445C6B;}
	.st4{fill:#2C434F;}
	.st5{fill:#F9D883;}
	.st6{fill:#DADEDF;}
	.st7{fill:#D9DDDE;}
	.st8{fill:#788D9A;}
	.st9{fill:#354B57;}
	.st10{fill:#768B98;}
	.st11{fill:#EDF1F3;}
	.st12{fill:#7B8F9C;}
	.st13{fill:#8194A0;}
	.st14{fill:#7F939F;}
	.st15{fill:#7A8E9B;}
	.st16{fill:#7D919E;}
	.st17{fill:#798D9A;}
	.st18{fill:#7F919D;}
	.st19{fill:#7E919C;}
	.st20{fill:#7E929E;}
	.st21{fill:#798D99;}
	.st22{fill:#80939F;}
	.st23{fill:#7E929D;}
	.st24{fill:#7F929E;}
	.st25{fill:#788C99;}
</style>
<g>
	<path class="st0" d="M95.8,401.5c3.1-40.7,29.2-71.1,68.2-79.5c5-1.1,10.2-1.6,15.4-1.6c20,0,40,0.1,60-0.1c3.9,0,5.5,0.6,5.5,5.1
		c-0.2,50.7-0.1,101.3-0.1,152c0,1.3,0,2.7,0.1,4c-0.9,1.2-2.2,1.5-3.5,1.5c-9.7,0.2-19.5,0.4-29.2-0.1c-0.8,0-1.6-0.4-2.3-0.7
		c-2.7-1.7-4.7-4.2-6.9-6.4c-20.9-20.8-54.7-20.8-75.5-0.1c-2.2,2.2-4.2,4.7-6.9,6.5c-8.2,1.5-16.4,2.2-24.6-0.3
		c-0.8-10.4-0.2-20.8-0.3-31.2c0-3.2,1.7-4,4.3-4.3c3.8-0.4,7.7-0.2,11.5-0.2c3.5,0,5.2-1.5,5.2-5.1c0-14.8,1-12.5-11.9-12.7
		c-1.5,0-3,0-4.5-0.1c-3.5-0.3-5.3-1.6-4.8-5.8c0.6-5.2,0.9-10.6-0.3-15.9C94.5,404.6,95.2,403.1,95.8,401.5z"/>
	<path class="st1" d="M454.1,416.4c39.6,0,79.2,0.2,118.7,0c4.9,0,6.5,1,6.4,6.2c-0.4,19.6-0.2,39.2-0.3,58.9
		c-1.4,1.4-3.3,1.6-5.1,1.6c-8.5,0-16.9,0.3-25.4-0.2c-2.3-0.3-4-1.6-5.4-3.3c-10.7-12.4-24.4-19.2-40.6-19.4
		c-16.2-0.2-30.3,5.7-41.3,18c-1.7,1.8-3,4-5.7,4.6c-4.5,0.5-9,0.5-13.5,0c-1.9-0.4-3.3-1.5-4.5-2.9c-10.7-12.6-24.6-19.3-40.9-19.7
		c-16.4-0.4-30.3,6.2-41.6,18.2c-1.8,1.9-3.4,4.2-6.3,4.5c-9.6,0.6-19.2,0.2-28.8,0.2c-1.8,0-3.7-0.1-4.9-1.8
		c0-21.3,0.1-42.5,0.1-63.8c2.9-2.1,6.3-1.9,9.6-1.8c12.3,0.3,24.6,0.2,36.9,0c7.5-0.1,14.9-0.1,22.4,0c19.4,0.1,38.9,0.3,58.3-0.1
		C446.1,415.6,450.1,415.7,454.1,416.4z"/>
	<path class="st2" d="M314.9,481.3c11.8,0.1,23.5,0.2,35.3,0.4c0.7,1.2,0.4,2.3-0.3,3.2c-4.8,6.7-6.7,14.6-8.6,22.4
		c-0.2,0.8-0.6,1.5-1.2,2.2c-41.4,0-82.9,0.1-124.3,0.1c-3.1,0-5.3,0.3-4.9,4c-2.3-0.4-2-2.4-2.1-3.9c-0.3-9.2-4.2-16.8-9.8-23.8
		c-1.1-1.4-3.2-2.6-1.6-5c3.9-1.4,7.8-1,11.8-0.3c2.6,1.6,5.5,0.8,8.3,0.9c9.1,0.1,18.2,0,27.4,0
		C268.2,481.4,291.5,481.3,314.9,481.3z"/>
	<path class="st3" d="M365.3,314.8c0.3,2.3-1.7,3.1-2.9,4.3c-5.4,5.1-10,11.1-16.1,15.4c-19.6-19.7-39.2-39.4-58.8-59.1
		c-13-13.1-26.1-26.1-39.1-39.2c-1.2-1.2-3.9-2.3-1.2-4.6c3.8-6.1,9-10.9,14.8-15.1c2.6-3.4,4.1-0.6,5.8,1.1
		c30.6,30.6,61.2,61.2,91.8,91.8C361.5,311.2,363.4,313,365.3,314.8z"/>
	<path class="st3" d="M441.1,509.7c2.5,27.7-17.6,46.7-37.9,50.2c-26.9,4.6-52.6-15.9-53.3-43.2c-0.1-2.3,0.1-4.7,0.1-7
		c-1.7-2.2-0.8-4.5-0.2-6.7c4.8-19,20.9-32.5,40.5-35c24.9-3.2,46.7,15,51,35.9C441.6,505.9,442.5,507.8,441.1,509.7z"/>
	<path class="st3" d="M547.1,509.7c1.8,26.6-14.7,43.3-31.7,48.6c-31.5,9.9-63.1-15.3-59.4-48.6c-1.6-2-0.8-4.1-0.3-6.2
		c4.6-18.9,20.2-32.6,39.5-35.5c23.7-3.5,47.5,13.6,52.3,36.4C547.7,506.3,548.4,508.1,547.1,509.7z"/>
	<path class="st3" d="M197.1,481.6c5.6,6.2,9.9,13.1,12.3,21.2c1,3.6-0.5,7.3,1.4,10.7c-0.1,26.1-17.4,41.2-34.4,45.6
		c-20.3,5.2-41.1-3.9-51.4-22.4c-2.8-5-4.7-10.3-5.1-16c-3.1-15.5,1.1-28.7,12.3-39.8c17.4-15.4,38.9-17.7,58.1-6.1
		C193,476.5,196.1,478,197.1,481.6z"/>
	<path class="st4" d="M547.1,509.7c-3.4-24-21.5-40.3-44.8-40.9c-22.9-0.5-43,14.6-46.4,40.9c-5,0-9.9,0-14.9-0.1
		c-3.3-20.8-15-34.6-35.3-39.6c-26.1-6.4-52.6,11.8-55.8,39.6c-3.3-0.1-6.6-0.2-9.9-0.3c0.5-8.3,3.2-16,7.4-23.1
		c0.9-1.5,1.8-3.1,2.7-4.7c8.3-9.9,18.1-17.8,30.8-20.8c22.7-5.4,42,0.7,57.5,18.3c0.8,0.9,1.6,1.7,2.4,2.5c4.6,3.7,6.9,8.7,7.7,13
		c0.6-4.5,3-9.3,7.5-13c8.4-10.1,18.4-17.9,31.3-20.9c22.6-5.2,41.6,1,57,18.5c0.8,0.9,1.6,1.7,2.4,2.5c7.2,7.2,10,16.2,11.1,26
		c0.1,0.7-0.4,1.2-0.9,1.7C553.6,509.5,550.4,509.6,547.1,509.7z"/>
	<path class="st2" d="M262,216.4c-4.5,5.5-9.8,10.2-14.8,15.1c-0.2-2.1-1.9-3.1-3.1-4.3c-21.2-21.3-42.5-42.5-63.7-63.9
		c-1.2-1.2-3.9-2-2.2-4.7c2.9-5.1,6.8-9.2,12-12c2.4-0.9,3.2,1.2,4.5,2.4C217.1,171.5,239.6,194,262,216.4z"/>
	<path class="st2" d="M122,101.4c-8.3,3.7-16.6,3.7-24.8,0c-4.7-0.7-6.9-4.3-9.1-7.9c-5.6-10.3-6.5-20.5,0.8-30.4
		c7.8-10.7,21.7-13.6,33.3-7.2c11.1,6.1,16.1,19.8,11.6,31.8c-0.3,0.9-0.7,1.9-1,2.8C130.8,95.8,127.5,99.7,122,101.4z"/>
	<path class="st5" d="M87,260.8c-3.8-0.1-7.7-0.2-11.5-0.1c-2.9,0.1-3.7-1-3.7-3.8c0.1-13.5,0.2-27,0.2-40.4
		c12.9-1.1,25.9-0.9,38.8-0.2c1.4,1.1,1,2.7,1,4.1c0,11.9-0.1,23.9,0.1,35.8c0.1,3.5-1,4.6-4.5,4.5c-3.6-0.1-7.3-0.8-10.8,0.7
		C93.4,262.3,90.2,262.4,87,260.8z"/>
	<path class="st6" d="M122,101.4c4.2-3.1,7.8-6.7,10.7-10.9c7.4,5.7,13.3,12.8,20,19.3c12.6,12.2,25,24.6,37.5,37c-4,4-8,8-12,12
		c-12.1-12.3-24.3-24.6-36.4-36.9C135.1,115,128,108.8,122,101.4z"/>
	<path class="st2" d="M132.9,481.6c-5.7,6.7-10.6,13.9-12.4,22.8c-1.1,5.4,0,10.9-0.7,16.3c-1.4-2.3-0.9-4.9-0.7-7.3
		c0.2-3.1-0.8-4-3.9-3.9c-9.4,0.2-18.9,0-28.3,0.1c-3.3,0.1-4.3-1-4.2-4.2c0.3-7.9,0.2-15.9,0.2-23.8c4.3-0.9,8.6-0.6,12.9-0.2
		c8.3-0.2,16.6,1.2,24.8-0.8C124.9,480.2,129.1,478.9,132.9,481.6z"/>
	<path class="st7" d="M110.9,216.3c-12.9,0.1-25.9,0.1-38.8,0.2c3.6-1.9,7.5-0.8,11.2-0.8c3.8,0,4.8-1.2,4.7-4.9
		c-0.1-37.6,0-75.2,0-112.8c0-1.5,0-3,0-4.5c3,2.6,6.1,5.3,9.1,7.9c-1.7,1.4-1.1,3.4-1.1,5.1c0,34.7,0,69.5-0.1,104.2
		c0,4.2,1.5,5.1,5.2,4.9C104.3,215.5,107.7,214.8,110.9,216.3z"/>
	<path class="st8" d="M87,260.8c3.2,0,6.5-0.8,9.7,0.6c0,6.5-0.1,13,0,19.4c0.1,4.5-1.4,7.1-6.4,7.7c-6.7,0.8-10.1,5.3-9.7,12.1
		c0.3,5.9,4.6,9.9,10.9,10.1c6.1,0.2,10.7-3.7,11.4-10.1c0.4-3.5,1.8-6.1,5.4-5.6c3.9,0.5,4.6,3.6,4,7.2c-1.7,10.4-9.6,17.7-20,18.1
		c-9.8,0.4-18.7-6.6-21-16.5c-2.2-9.4,2.8-19.3,12-23.2c2.7-1.2,3.8-2.4,3.6-5.4C86.8,270.5,87,265.6,87,260.8z"/>
	<path class="st2" d="M556.9,509.4c-0.5-10.3-5.1-19.1-10.1-27.7c10.7-0.1,21.4-0.1,32.1-0.2c0.1,8.3,0,16.6,0.2,24.9
		c0,2.4-0.8,3.2-3.1,3.2C569.6,509.4,563.3,509.5,556.9,509.4z"/>
	<path class="st3" d="M220.8,345.5c0.1,18.2,0.1,36.3,0.2,54.5c0,3-1.2,3.6-3.9,3.6c-31.5-0.1-63-0.1-94.5,0c-2,0-3.7-0.2-3.6-2.8
		c0.3-4.4,0.2-8.9,1.9-13.1c3.5-10.7,8.7-20.2,17.3-27.9c10.9-9.8,23.3-15.2,37.9-15.4c12.6-0.2,25.3-0.1,37.9,0
		C216.4,344.2,218.9,343.7,220.8,345.5z"/>
	<path class="st4" d="M132.9,481.6c-4-0.6-8.3,0.9-12.2-1c24.3-29.2,64.4-29.2,88.5,0c-3.9,1.9-8.1,0.4-12.1,1
		c-8.7-8.1-19.2-12.5-30.8-12.9c-11.7-0.4-22.3,3.6-31.4,11.3C134.3,480.7,133.6,481.1,132.9,481.6z"/>
	<path class="st9" d="M220.8,345.5c-13.6,0-27.3,0.6-40.9-0.1c-25.2-1.2-48.8,16.2-56.9,39.5c-0.4,1-0.1,2.7-2,2.6
		c1.9-12.9,8.5-23.3,17.9-31.9c11.7-10.7,25.6-15.7,41.5-15.4c11.8,0.2,23.7,0.2,35.5,0C220,340.2,222,341.1,220.8,345.5z"/>
	<path class="st3" d="M208.6,418.4c3,0,6,0,9,0c1.8,0,3.3,0,3.4,2.5c0,2.3-1.2,2.8-3.1,2.8c-6.3,0-12.7,0-19,0
		c-1.7,0-2.8-0.4-2.9-2.5c0-2.3,1.1-2.8,3.1-2.8C202.2,418.4,205.4,418.4,208.6,418.4z"/>
	<path class="st10" d="M456.1,481.6c-2.5,4.7-5.6,9-7.5,15.6c-2-6.5-5.3-10.8-7.7-15.6C445.9,481.6,451,481.6,456.1,481.6z"/>
	<path class="st5" d="M454.1,294.7c0-4-0.8-5.5-5.2-5.4c-14.8,0.3-29.6,0.7-44.4-0.1c-9.3-0.5-16,2.1-22,9.2
		c-5.1,6-10.5,12-17.2,16.5c-6.1,6.8-13.1,12.7-19,19.7c-9.5,9.6-18.9,19.2-28.4,28.7c-2,2-3.1,4-3.1,6.9
		c0.2,15.8,0.1,31.6,0.1,47.4c2.8-0.2,5.6-0.8,8.4-0.6c15.8,1.3,31.6,0.4,47.5,0.4c10.7,0,21.5-0.3,32.2-0.2c15,0.2,30-0.3,45,0.3
		c2,0.1,4.4,0.9,6.1-1C454,375.9,454,335.3,454.1,294.7z M427.7,396.5c-27.2-0.1-54.5-0.1-81.8-0.2c-0.8-0.4-1.3-1-1.4-1.9
		c-0.1-0.8,0.1-1.7-0.1-2.5c-1.9-12.2,2.3-21.3,11.8-29.5c12.4-10.8,23.6-23,35.1-34.8c4.5-4.6,9.3-7.2,15.9-6.5
		c6.3,0.7,12.6,0,18.9,0.1c2,0,4-0.3,5.7,1.3c0,23.3,0,46.5,0.2,69.8C432,395.7,430.9,396.6,427.7,396.5z"/>
	<path class="st6" d="M431.8,322.6c-9.1,0-18.2,0.1-27.2-0.1c-4-0.1-7.1,1.1-9.8,3.8c-15.9,15.9-31.7,31.7-47.6,47.6
		c-0.9,0.9-2.2,1.8-2.1,3.3c0.3,6.4-1.2,12.9,0.9,19.3c-2.7-0.3-1.8-2.4-1.8-3.9c-0.1-5.8,0-11.7-0.1-17.5c-0.1-2.2,0.7-3.8,2.2-5.3
		c16.8-16.7,33.5-33.4,50.1-50.2c1.7-1.7,3.6-2.1,5.8-2.1c8.3,0.1,16.7,0.2,25-0.1C431.3,317.3,432.7,318.7,431.8,322.6z"/>
	<path class="st2" d="M364.9,514.6c-1.1-18,14.7-31.1,30.7-31c16,0,31.1,13.7,30.7,31.8c-0.3,16.4-15.3,30.8-31.8,30.3
		C380.6,545.3,363.6,532.5,364.9,514.6z"/>
	<path class="st2" d="M532.1,515.3c1.2,14.4-12.9,31-31.4,30.3c-16.8-0.5-30.8-13.6-30.3-31.2c0.5-18,12.6-30.3,31.4-30.7
		C517.5,483.4,533.5,497.9,532.1,515.3z"/>
	<path class="st2" d="M165.1,545.5c-17.1,0-31.1-14-31.1-31c0-16.9,14.3-30.9,31.4-31c16.5,0,30.6,14.3,30.6,31.1
		C196,532.2,182.6,545.6,165.1,545.5z"/>
	<path class="st11" d="M109.1,87.7c-5.4,0-9.2-4.1-9.1-9.7c0.1-5.1,4.2-9.2,9.2-9.2c5.4-0.1,9.9,4.5,9.7,9.9
		C118.8,83.8,114.6,87.7,109.1,87.7z"/>
	<path class="st11" d="M395.7,490.4c13.5,0,24.4,11,24.3,24.4c-0.1,13.6-11.3,24.6-24.9,24.6c-12.9-0.1-24-11.4-24.1-24.4
		C371,501.2,381.9,490.3,395.7,490.4z"/>
	<path class="st11" d="M501.3,490.4c13.9,0,24.6,10.7,24.6,24.6c0,12.9-11.4,24.4-24.1,24.3c-13.9-0.1-24.8-10.8-24.8-24.5
		C477,501.1,487.6,490.4,501.3,490.4z"/>
	<path class="st11" d="M140.8,514.7c-0.1-13.3,10.2-24.1,23.2-24.3c14.5-0.2,25.8,10.6,25.7,24.6c0,12.7-11.6,24.3-24.3,24.3
		C151.7,539.4,141,528.6,140.8,514.7z"/>
	<path class="st12" d="M400.1,514.6c-0.1,2.9-1.4,4.8-4.4,4.9c-3,0.1-4.6-1.6-4.8-4.6c-0.2-3.1,1.6-4.8,4.4-4.9
		C398.1,509.8,400,511.4,400.1,514.6z"/>
	<path class="st13" d="M395.5,500.6c-2-0.1-4.8-0.2-4.8-2.4c0-2.6,3-2.6,5.1-2.5c1.9,0.1,4.6,0.2,4.5,2.6
		C400.2,500.5,397.5,500.6,395.5,500.6z"/>
	<path class="st14" d="M409.9,514.6c0.3-2.1-0.3-5,2.5-4.7c2.2,0.2,2.5,3,2.3,4.9c-0.2,1.8,0.1,4.7-2.6,4.5
		C409.4,519.1,410.2,516.3,409.9,514.6z"/>
	<path class="st15" d="M381.2,514.6c-0.3,1.8,0.5,4.6-2.2,4.7c-2.4,0.1-2.1-2.5-2.2-4.3c0-1.9-0.5-4.8,1.9-5
		C381.4,509.7,380.9,512.7,381.2,514.6z"/>
	<path class="st16" d="M395.3,533.7c-2-0.2-4.8-0.1-4.5-2.6c0.3-2.4,3.1-1.8,5-1.8c1.7,0,4.5-0.3,4.5,1.8
		C400.2,534,397.2,533.4,395.3,533.7z"/>
	<path class="st17" d="M501.4,509.8c2.5,0.6,4.6,1.7,4.7,4.8c0,2.9-1.6,4.8-4.5,4.9c-3,0.1-4.6-1.7-4.7-4.6
		C496.7,511.8,498.5,510.4,501.4,509.8z"/>
	<path class="st18" d="M502,500.6c-2.7,0-5.4-0.2-5.3-2.4c0.1-2.5,3-2.6,5.1-2.5c1.9,0,4.6,0.2,4.4,2.6
		C506,500.5,503.3,500.5,502,500.6z"/>
	<path class="st19" d="M487.1,514.3c-0.2,2.1,0.3,4.8-2.2,5.1c-2.7,0.3-2.7-2.5-2.7-4.3c0-2,0-5,2.7-5
		C486.9,510,487,512.6,487.1,514.3z"/>
	<path class="st20" d="M501.6,533.7c-2-0.3-4.9,0.4-5-2.1c-0.1-2.7,2.8-2.2,4.7-2.2c1.8,0,4.8-0.6,4.9,2
		C506.3,533.9,503.4,533.5,501.6,533.7z"/>
	<path class="st15" d="M515.8,514.6c0.3-1.9-0.3-4.8,2.4-4.6c2.4,0.2,1.9,3.1,2,5c0,1.7,0.4,4.4-2.1,4.3
		C515.4,519.2,516.2,516.4,515.8,514.6z"/>
	<path class="st21" d="M169.9,514.8c-0.5,2.8-2,4.7-4.9,4.6c-2.9,0-4.8-1.9-4.7-4.8c0.1-2.8,1.9-4.8,4.8-4.7
		C168,510.1,169.7,511.8,169.9,514.8z"/>
	<path class="st22" d="M165.2,500.6c-2.2-0.3-4.9-0.1-5-2.5c-0.1-2.4,2.6-2.6,4.6-2.6c2,0,5-0.1,4.9,2.6
		C169.7,500.6,166.9,500.3,165.2,500.6z"/>
	<path class="st23" d="M184.1,514.3c-0.2,2.3,0.2,5.1-2.4,5.1c-2.6,0.1-2.3-2.8-2.5-4.6c-0.1-2,0.2-4.8,2.4-4.8
		C184.1,509.9,183.8,512.7,184.1,514.3z"/>
	<path class="st24" d="M151,514.7c-0.3,1.9-0.1,4.7-2.6,4.6c-2.4-0.1-2.4-2.8-2.4-4.8c0-2,0.1-4.7,2.4-4.7
		C150.6,510,150.6,512.8,151,514.7z"/>
	<path class="st25" d="M165.4,533.8c-2.1-0.3-5,0.2-5-2.4c0.1-2.6,3-2.1,4.8-2.1c1.7,0,4.4-0.4,4.5,1.9
		C169.8,534.1,166.9,533.3,165.4,533.8z"/>
</g>
</svg>
