<?xml version="1.0" encoding="utf-8"?>
<!-- Generator: Adobe Illustrator 19.0.0, SVG Export Plug-In . SVG Version: 6.00 Build 0)  -->
<svg version="1.1" id="Calque_1" xmlns="http://www.w3.org/2000/svg" xmlns:xlink="http://www.w3.org/1999/xlink" x="0px" y="0px"
	 viewBox="0 0 612 792" style="enable-background:new 0 0 612 792;" xml:space="preserve">
<style type="text/css">
	.st0{fill:#0F80DE;}
	.st1{fill:#1080DE;}
</style>
<g>
	<path class="st0" d="M581.2,429.8c-5.5-5.2-10.1-11-15.2-16.5c-7.9-8.4-15.5-17-23.2-25.4c-13.5-14.7-26.5-29.9-40.5-44.1
		c-4.7-4.8-10.5-7.5-17.1-8.7c-4.3-0.8-8.6-1-12.9-1.1c-25.3-0.6-50.6,1.5-75.9,1.1c-6.5-0.1-11.9,2.7-16.7,6.9
		c-7.1,6.3-10,14.2-10,23.6c0,40.7,0,81.3,0,122c0,8.1-1.9,9.4-9.2,6.5c-31.7-12.6-63.4-25.3-95.1-38c-1.1-0.4-2.7-0.5-2.7-2.7
		c13.6-5.5,27.5-10.7,41.3-16c14.9-5.8,29.9-11.4,44.7-17.3c4.8-1.9,7.7-5.2,7.9-10.9c0.2-7-4.3-9.7-9.6-11.8
		c-21.4-8.5-42.9-16.5-64.3-24.9c-6.9-2.7-14-5.1-20.9-8.2c0.8-1.8,2.2-1.9,3.4-2.4c16.7-6.7,33.4-13.4,50.1-20.1
		c16.9-6.7,33.7-13.5,50.6-20.2c6.9-2.8,9.9-6.9,9.2-13.1c-0.7-5.5-0.3-11-0.5-16.5c-0.3-6.7,1-13.3,0.5-19.9
		c-0.7-9.7-0.7-19.3-0.2-29c0.6-11.5-3.1-16-14.6-16.1c-23.7-0.1-47.3-0.1-71,0c-13.1,0-12.7,0.1-12.7-12.6c0-8.3-0.9-9.4-8.4-12
		c-26.3,0-52.7,0-79,0c-6.7,2.4-7.2,3.1-7.4,10.4c-0.1,2.8,0,5.7-0.1,8.5c-0.1,3.6-1.8,5.6-5.5,5.6c-1.8,0-3.7,0-5.5,0
		c-25,0-50-0.1-75,0.1c-8.3,0.1-12.8,4.4-12.9,12.6c-0.2,23.2-0.1,46.3-0.1,69.5c0,6.4,3.2,10.3,8.9,12.5
		c33,12.9,65.9,26.3,98.8,39.4c2,0.8,4.2,1.4,6.6,3c-20,7.6-39.2,15.1-58.5,22.5c-9.6,3.7-19.3,7.4-28.9,11.1
		c-6.9,2.7-9.3,6.5-8.7,12.9c0.5,6,4.9,8.4,9.7,10.2c24.1,9.3,48.2,18.6,72.3,27.8c4.3,1.6,8.7,3.1,12.7,5.4c-1.1,1.7-2.6,1.9-4,2.5
		c-31.5,12.6-63.1,25.3-94.6,37.9c-3,1.2-6,1.7-9.2,1.9c-7.7,0.3-9.2,1.5-11.6,8.4c0,28,0,56,0,84c0.8,0.8,0.5,1.9,0.6,2.8
		c1.6,9.1,8.8,16.5,18,17.2c5.3,0.4,7.4,2.7,8.9,7.4c5.7,18,17.4,31.1,34,40c6.5,3.5,13.7,3,20.5,4.4c5,0,10,0,15,0
		c1-0.8,2.2-0.4,3.4-0.5c6.1-0.6,12.2-0.8,17.7-3.9c15.9-8.8,27.4-21.5,33.7-38.7c3-8.2,3.2-8.5,12.2-8.5c48.2,0,96.3,0,144.5,0
		c8,0,16-0.1,24,0c5.9,0.1,7.1,0.9,9,6.6c1.5,4.5,3.2,8.8,5.7,12.7c10.4,16.3,23,29.7,43.9,31.6c2,0.2,4-0.5,5.9,0.6c5,0,10,0,15,0
		c6.5-1.5,13.3-0.8,19.5-4c17.3-8.8,29.1-22.3,35.2-40.8c2.1-6.3,2.6-6.7,9.2-6.8c4.8,0,9.7,0,14.5,0c4.7,0,8.7-1.7,12.6-4.1
		c6.2-3.8,8.1-9.8,9-16.3c0-47,0-94,0-141C586.8,441.1,586.3,434.6,581.2,429.8z M440,355.1c13,0.2,26,0.1,39,0
		c4.1,0,7.4,1.1,10.2,4.2c25.2,27.8,50.4,55.5,75.6,83.3c0.3,0.3,0.5,0.8,1.3,2.2c-2.8,0-4.8,0-6.7,0c-39.2,0-78.3,0-117.5,0
		c-6.6,0-6.7,0-6.7-6.4c0-26.2,0.1-52.3-0.1-78.5C435.1,356.2,436.2,355,440,355.1z M273.9,250.6c-0.2-2.7,0.9-3.3,3.5-3.3
		c24.5,0.1,49,0.1,73.5,0c2.9,0,3.6,0.9,3.7,3.7c0.4,14.2,0.5,14.2-13.8,14.2c-8.8,0-17.7,0-26.5,0c-12,0-24-0.1-36,0.1
		c-3.2,0-4.5-0.8-4.3-4.2C274.1,257.7,274.1,254.1,273.9,250.6z M205.3,220.4c15.6,0.1,31.3,0.1,46.9,0c3,0,3.6,1.2,3.6,3.8
		c-0.1,12.3-0.1,24.6,0,36.9c0,3.3-1.1,4.3-4.4,4.2c-7.6-0.2-15.3-0.1-23-0.1c0,0,0,0,0,0c-7.7,0-15.3-0.1-23,0.1
		c-2.9,0.1-3.7-0.9-3.7-3.7c0.1-12.6,0.1-25.3,0-37.9C201.8,220.9,202.8,220.3,205.3,220.4z M103.8,248.4c2.4-3,8.4-0.9,12.8-1
		c20.6-0.1,41.2,0,61.9-0.1c4,0,5.9,0.7,5.3,5.1c-0.6,4.1,1.8,9.3-0.9,12c-2.7,2.6-7.9,0.7-12,0.8c-9.3,0.2-18.6,0.1-27.9,0.1
		c0,0,0,0,0,0c-12,0-23.9-0.1-35.9,0.1c-3,0-4.2-0.8-3.9-3.9C103.2,256.9,101.6,251.2,103.8,248.4z M103,295.3
		c0.6-3.9-1.8-9.1,1-11.4c2.3-1.9,7.3-0.6,11.1-0.6c38,0,75.9,0,113.9,0c0,0,0,0,0,0c40,0,79.9,0.1,119.9-0.1c4.3,0,5.6,1.1,5.6,5.5
		c-0.2,12.6,0,12.6-12.4,12.6c-77.8,0-155.5-0.1-233.3,0.1C103.8,301.4,102.3,300.1,103,295.3z M144.8,320.8
		c-0.4-0.2-0.7-0.5-1.6-1.2c57.3,0,114,0,170.6,0c0,0.3,0,0.5,0,0.8c-27.6,11-55.2,22.1-82.9,33.2c-1.4,0.6-2.7,0.7-4.2,0.1
		C199.4,342.6,172.1,331.7,144.8,320.8z M139.6,410c-0.5-0.2-0.9-0.5-2.1-1.2c16.5-6.3,32.5-12.4,48.5-18.6c13-5,26.1-10,39.1-15.1
		c2.1-0.8,4.1-1.3,6.3-0.4c29.3,11.3,58.6,22.6,88.9,34.3c-2.9,1.1-4.9,1.9-6.9,2.7c-27,10.4-54,20.8-81,31.2
		c-2.3,0.9-4.3,1.2-6.7,0.3C197,432.1,168.3,421,139.6,410z M176.8,484.3c16-6.4,32.1-12.8,48.1-19.3c2-0.8,3.8-1.6,6.1-0.6
		c27.6,11.1,55.2,22.1,82.8,33.1c0,0.3,0,0.5-0.1,0.8c-56.6,0-113.2,0-169.8,0c-0.1-0.3-0.1-0.5-0.2-0.8
		C154.7,493.1,165.8,488.7,176.8,484.3z M170.1,642.3c-26,2-47.4-15.6-49-40.3c-1.8-27.3,15.3-47.3,42.2-49
		c25.4-1.6,46.4,15.9,47.2,43C212.2,620,194.5,640.4,170.1,642.3z M480.9,642.4c-25.9,0-45.6-18.6-45.5-42.9
		c0.2-27.8,18.5-46.8,44.8-46.7c26.4,0.2,44.7,18.9,44.7,45.7C525,623.3,505.8,642.4,480.9,642.4z M563.8,588.6
		c-5.8-0.4-11.7-0.2-17.5,0c-3.1,0.1-4.1-0.9-4.8-3.9c-6.9-28.3-32.1-49.3-59.5-50c-29-0.7-56.4,20.7-63,49.4
		c-0.7,3.2-1.8,4.5-5.5,4.5c-60-0.1-120-0.1-180,0c-4.2,0-5.8-1.1-6.8-5.4c-6.6-27.6-33.1-48.5-61.1-48.6
		c-27.5-0.1-53.7,20.9-60.9,48.4c-0.5,2.1,0.5,5.6-4,5.6c-6.4,0-6.8,0.1-6.8-6.4c0-20.2,0.1-40.3-0.1-60.5c0-3.6,0.6-4.8,4.6-4.8
		c46.8,0.1,93.7,0.1,140.5,0.1c0,0,0,0,0,0c40.7,0,81.3,0,122,0c6.3,0,12.7-0.2,19-0.3c7.1-0.1,10.3-3.3,10.3-10.4
		c0-40.3,0-80.7,0-121c0-7.3,0-14.7,0-22c0-6.6,1.4-8,7.8-8c4.8,0,9.7,0.2,14.5-0.1c3.8-0.3,4.7,1,4.7,4.7
		c-0.2,26.8-0.1,53.7-0.1,80.5c0,2.8-0.2,5.7,0.3,8.5c1.3,8.5,8.8,14,18.5,14c42.5,0,85,0,127.5,0c6.5,0,6.5,0,6.5,6.7
		c0,37.7-0.1,75.3,0.1,113C570.1,587.4,568.6,588.9,563.8,588.6z"/>
	<path class="st1" d="M148,597.2c0.1-9.8,8.1-17.7,18-17.6c9.7,0.1,17.9,8.2,17.9,17.8c0,10.2-8.2,18.2-18.6,18
		C155.5,615.3,147.8,607.2,148,597.2z"/>
	<path class="st1" d="M498.1,597.7c0,9.8-8,17.8-17.8,17.8c-10.1,0-18.2-8-18.2-18c0-9.6,8.3-17.9,17.9-17.9
		C490.1,579.5,498.1,587.5,498.1,597.7z"/>
</g>
</svg>
