<?xml version="1.0" encoding="utf-8"?>
<!-- Generator: Adobe Illustrator 19.0.0, SVG Export Plug-In . SVG Version: 6.00 Build 0)  -->
<svg version="1.1" id="Calque_1" xmlns="http://www.w3.org/2000/svg" xmlns:xlink="http://www.w3.org/1999/xlink" x="0px" y="0px"
	 viewBox="0 0 612 792" style="enable-background:new 0 0 612 792;" xml:space="preserve">
<style type="text/css">
	.st0{fill:#FDDF00;}
	.st1{fill:#FDD800;}
	.st2{fill:#010100;}
</style>
<g>
	<path class="st0" d="M306,430.1c77.8,0,155.6,0.1,233.5-0.1c4.7,0,5.7,1.4,5.6,5.8c-0.3,11.4-0.1,11.4-11.4,11.4
		c-153.5,0-307,0-460.4,0.1c-5.4,0-6.5-1.5-6.3-6.5c0.4-10.6,0.1-10.6,10.6-10.6C153.7,430.1,229.8,430.1,306,430.1z"/>
	<path class="st1" d="M152.3,328c24.7,0,42.6,18.1,42.6,42.9c0,24.1-18.2,42.1-42.5,42.1c-24.6,0-42.4-17.6-42.4-42
		C110,345.7,127.4,328,152.3,328z"/>
	<path d="M526,380.3c14.8,0.8,34.1-11.8,36-30.3c0-27.3,0-54.7,0-82c-2.8-11.5-11.4-18.3-23.4-18.3c-11,0-22,0.1-33,0
		c-26.6-0.4-47-11.9-61.3-34.2c-8.5-13.2-16.4-26.7-24.7-39.9c-5-7.9-9.6-16-17.1-22C393,146,382.4,140.7,370,140c-63,0-126,0-189,0
		c-5.7,1.1-11.4,1.8-16.7,4.4c-12,5.9-21.3,14.4-28.3,25.9c-13.4,22.1-26.9,44-40.5,65.9c-5.3,8.5-13,13.1-23.1,13.5
		C60.8,250.3,52.6,257,50,268c0,28.7,0,57.3,0,86c3.1,16.1,15.2,26.2,31.9,26.4c1.8,0,3.7,0.1,5.5,0c3.1-0.1,4.8,1.2,5.7,4.3
		c2.2,8.3,6.2,15.8,11.4,22.6c0.9,1.2,2.5,2.1,2.5,4c-1.7,0.5-3.4,0.2-5,0.2c-13.6,0-27.3,0-40.9,0c-5.4,0-9.4,1.8-10.9,7.4
		c0,13.3,0,26.7,0,40c1.2,5.1,5.4,6.3,9.7,7.3c33.9,8,67.7,16.4,101.6,24.5c33.2,8,66.3,15.9,100.1,24.1
		c-31.1,6.8-61.6,13.4-92.2,20.1c-19.5,4.2-39.1,8.5-58.6,12.7c-2.8,0.6-5.5,1.4-7.6,3.5c-5.7,5.9-2.8,14.7,5.8,16.8
		c11.2,2.7,22.4,5,33.7,7.4c37.4,8.1,74.8,16.3,112.2,24.4c-1.7-0.2-3.3,0.3-4.8,0.6c-29.6,5-59.1,10.2-88.7,15.2
		c-33.5,5.7-67,11.7-100.5,17.3c-5,0.8-9.6,2.1-10.6,8.1c0,1.7,0,3.3,0,5c0.8,3.2,2.8,5.2,6,6c166.7,0,333.3,0,500,0
		c3.2-0.8,5.2-2.8,6-6c0-1.7,0-3.3,0-5c-0.9-5.7-5.2-7.2-10.1-8c-16.6-2.7-33.2-5.7-49.7-8.5c-48.4-8.2-96.7-16.9-145.2-24.8
		c1.4,0,2.8-0.5,4.2-0.8c41.5-8.8,83-18.1,124.5-27c6.2-1.3,12.4-2.5,18.5-4.2c7.8-2.3,10.3-11,4.8-16.5c-2.1-2.1-4.8-2.9-7.6-3.5
		c-27.5-6-55-11.9-82.5-17.9c-22.6-4.9-45.2-9.8-68-14.9c25.8-6.6,51.5-12.5,77.1-18.7c24-5.8,47.9-11.6,71.9-17.4
		c18-4.3,35.9-8.7,53.9-13c3.9-0.9,7.3-2.5,8.2-6.9c0-13.3,0-26.7,0-40c-1.5-5.6-5.6-7.4-10.9-7.4c-13.8,0-27.6,0-41.5,0
		c-1.6,0-3.3,0.6-4.9-0.8c6.2-7.4,11.3-15.4,13.6-24.8C519.4,381.6,521.7,380.1,526,380.3z M400.9,225c-22.6,0.1-45.2,0.2-67.9,0.3
		c-5,0-10-0.2-15,0.1c-2.9,0.1-3.6-1-3.6-3.7c0.1-9,0.1-18,0-27c0-2.4,0.5-3.6,3.3-3.5c19.5,0.1,38.9,0.1,58.4,0.2
		c4.2-0.4,6.5,1.7,8.5,5.2c4.6,8,9.5,15.8,14.5,23.6C400.1,221.6,401.7,222.9,400.9,225z M443.6,633.1c1.6,0.3,3.2,0.7,4.7,1.6
		c-95.4,0-190.8,0-286.1,0c0-0.1,0-0.3-0.1-0.4c16-2.8,32-5.6,48-8.3c29.8-5.1,59.7-10.1,89.4-15.5c8-1.4,15.6,0.5,23.2,1.8
		C363,619.1,403.3,626.2,443.6,633.1z M457.6,557.1c0.8,0.2,1.7,0.2,2.2,1.6c-50.4,10.9-100.6,21.8-150.8,32.7
		c-1.8,0.4-3.5,0.6-5.4,0.2c-49.9-10.9-99.7-21.7-149.6-32.6c-0.6-0.1-1.1-0.3-1.7-1.3c8.3-1.8,16.7-3.7,25-5.5
		c40.6-8.8,81.3-17.4,121.8-26.6c9.1-2.1,17.1,0.9,25.4,2.7C368.9,537.7,413.2,547.4,457.6,557.1z M454.6,470.9
		c-47.8,11.5-95.6,23-143.5,34.6c-3.3,0.8-6.5,0.9-9.8,0.1c-54.4-13.2-108.9-26.3-163.3-39.5c-1.6-0.4-3.1-0.9-4.6-1.3
		c0.1-0.2,0.1-0.4,0.2-0.6c115,0,229.9,0,344.9,0c0.1,0.2,0.1,0.5,0.2,0.7C470.6,466.9,462.6,468.9,454.6,470.9z M193.7,412.9
		c1.3-1.5,2.3-2.5,3.2-3.5c5.9-6.7,10.2-14.3,12.9-22.9c2.3-7.5,2.3-7.5,9.9-7.5c58.5,0,117,0,175.5-0.1c3.8,0,5.8,0.6,6.6,4.9
		c1.9,9.6,6.8,17.9,13.2,25.4c1,1.1,2.5,2,2.8,3.8C343,412.9,268.8,412.9,193.7,412.9z M469.9,411.7c-17.7,4.3-35.8-2.2-45.5-16.2
		c-10-14.5-10-35.5,0.1-50.2c9.6-14,27.5-20.4,45.4-16.2c0,0,0,0,0,0c0,0,0,0,0,0c20.9,4.8,32.3,20.7,32,44.5
		C501.8,391.9,488.3,407.9,469.9,411.7z M468.7,311.1c-26.4-4.3-54,11.7-64.5,37.4c-1.1,2.8-2.5,5.6-2.8,8.5c-0.4,4.2-2.2,5-6.1,5
		c-59.5-0.1-119-0.1-178.4,0c-3.6,0-5.3-0.5-6.3-4.7c-6.6-26.9-30.2-45.8-57.6-46.8c-25.9-0.9-52.4,19.9-58.7,46.7
		c-0.9,3.9-2.3,5.6-6.2,4.5c0,0,0,0,0,0c0,0,0,0,0,0c-15.3,1.2-21.9-0.9-21-19.2c0.5-9.4,0.1-18.9,0-28.4c0-2.5,0.5-3.6,3.2-3.4
		c4.6,0.3,9.3,0.2,13.9,0.3c2.8-0.1,5.6-0.1,8.4-0.3c5.4-0.4,8.7-4.1,8.5-9c-0.2-4.8-3.5-7.9-8.9-8c-8.2-0.1-16.5-0.1-24.8-0.1
		c0,0,0,0,0,0c0,0,0,0,0,0c-1-7.3-0.2-14.5-0.4-21.8c-0.1-2.4,1.1-3.9,3.6-3.8c5.2,0.3,10.2-1.2,15.2-2c4.6-2.5,9.6-4.3,13.7-7.6
		c0,0,0,0,0,0c0,0,0,0,0,0c5.2-3.7,9.2-8.6,12.5-14c13.6-22.2,27.3-44.4,40.9-66.6c4.3-6.9,9.7-12.6,17.1-16.3
		c5.7-3,11.9-4.4,18.2-4.4c58.7-0.1,117.3-0.1,176,0c13.1,0,23.7,5.5,32,16.2c-2.1,1.3-4.1,0.8-6,0.8c-67.2,0-134.3,0-201.5,0
		c-12.6,0-19.5,6.7-19.5,19.3c0,9.8,0.5,19.7-0.1,29.5c-0.7,11,8.2,19.7,19.5,19.6c82.6-0.4,165.3-0.2,247.9-0.3
		c3.9,0,6.8,1,9.9,3.6c17.3,14.6,37.3,22.2,60,22.2c7.2,0,14.3,0.1,21.5,0.2c4.3,0,8.6-0.1,13-0.1c2.7,0,4,1.3,4,3.9
		c0,6.3-0.1,12.7,0.1,19c0.1,2.8-1.5,2.8-3.5,2.8c-8.2,0-16.3,0-24.5,0c-5.3,2.9-7.3,6.3-5.9,10.7c1.5,4.9,5.4,6.3,10.2,6.3
		c6.7,0,13.3,0.2,20,0c2.9-0.1,3.7,0.9,3.6,3.7c-0.2,10,0.1,20-0.1,30c-0.2,10.8-6.4,16.9-17.2,17.3c-1.7,0.1-3.4-0.2-5,0.1
		c-3,0.5-4.1-1-4.7-3.7C512,333.9,492.2,314.9,468.7,311.1z M186.5,195c-0.1-3.1,1-3.9,4-3.9c34.3,0.1,68.6,0.1,103,0
		c3,0,4,0.8,4,3.9c-0.2,8.8-0.2,17.7,0,26.5c0.1,3.2-1,3.9-4,3.9c-17.2-0.1-34.3-0.1-51.5-0.1c-17,0-34-0.1-51,0.1
		c-3.4,0-4.6-0.7-4.5-4.3C186.8,212.3,186.7,203.6,186.5,195z"/>
	<path d="M327.7,268c6.8,0,13.7,0,20.5,0c5.8,0.1,8.9,3.1,9,8.9c0.1,5.5,0.1,11-0.1,16.5c-0.1,5.2-3.5,8.6-8.4,8.6
		c-4.7,0-8.2-3.4-8.7-8.5c-0.7-8.5-0.7-8.5-9.1-8.5c-8,0-16,0-24,0c-5.7,0-9.6-3.6-9.5-8.6c0.1-4.8,3.9-8.3,9.3-8.4
		C313.7,267.9,320.7,268,327.7,268z"/>
	<path class="st2" d="M169.3,370.3c0.1,9.6-7.4,17.1-17,17c-9.3,0-16.9-7.4-17.1-16.6c-0.2-9.3,7.5-17.2,16.9-17.4
		C161.5,353.1,169.3,360.8,169.3,370.3z"/>
	<path class="st2" d="M459.7,387.4c-9.6,0-17.1-7.4-17.1-17c0-9.3,7.4-16.9,16.6-17.1c9.5-0.2,17.6,7.9,17.5,17.4
		C476.6,379.8,469,387.3,459.7,387.4z"/>
</g>
</svg>
