<?xml version="1.0" encoding="utf-8"?>
<!-- Generator: Adobe Illustrator 19.0.0, SVG Export Plug-In . SVG Version: 6.00 Build 0)  -->
<svg version="1.1" id="Calque_1" xmlns="http://www.w3.org/2000/svg" xmlns:xlink="http://www.w3.org/1999/xlink" x="0px" y="0px"
	 viewBox="0 0 612 792" style="enable-background:new 0 0 612 792;" xml:space="preserve">
<g>
	<path d="M535.8,553.4c-3.3,5.6-8.1,7.4-14.5,7.3c-15.7-0.4-31.3,0-47-0.2c-3.2,0-5,0.9-6.7,3.8c-13.5,23.4-42,23.4-55.6,0.1
		c-1.8-3.2-3.9-3.8-7.1-3.8c-69.3,0.1-138.6,0-207.9,0.2c-2,0-5,1.2-6,2.8c-14,22.7-36.3,24.7-53.9,4.7c-0.3-0.4-0.7-0.6-1.4-1.1
		c-0.9,1-1.8,1.9-2.6,2.9c-15.4,17.5-39.2,15.5-51.1-4.7c-2.2-3.7-4.4-4.9-8.6-4.8c-11.7,0.3-23.3-0.2-35,0.2
		c-6.5,0.2-11.3-1.7-14.5-7.3c0-20,0-40,0-60c3.2-5.6,8.1-7.3,14.5-7.3c57.2,0.2,114.3,0.1,171.5,0.1c1.8,0,3.6,0,5.7,0
		c0-42.9,0-85.2,0-127.9c-35.4,0-70.7,0-106.6,0c0,6.6,0,12.9,0,19.1c0,8.7-3.8,12.4-12.5,12.5c-2.7,0-5.3,0-8.7,0
		c0,6.5,0,12.8,0,19.1c0,8.5-2.1,11.3-10.1,13.7c-0.6,0.2-1.3,0.3-1.9,0.6c-3.7,1.4-9,2.6-8.6,7c0.4,4.1,3.3,8.6,6.3,11.7
		c3.4,3.4,7.9,1.3,11.4-1.2c2.4-1.7,4.6-3.9,6.9-5.7c4.6-3.5,10.7-3,14.4,1.2c3.6,4,3.5,10-0.1,14.1c-9.8,11.4-27.3,15.5-41.1,9.7
		c-21.1-8.9-24.8-37.1-5.7-50.8c7.6-5.4,7.9-11.1,6.7-19.3c-2.9,0-6,0.1-9.1,0c-7.7-0.3-11.8-4.2-11.8-11.8c-0.1-20.5-0.1-41,0-61.5
		c0-8.2,4.3-11.9,13.2-11.9c43.7,0,87.3,0,131,0c32.3,0,64.7,0,97,0c11.5,0,14.8,3.5,14.6,15c-0.2,8.7,0,17.3,0,26
		c0,8.4-3.8,12.2-12.2,12.3c-2.8,0-5.6,0-8.7,0c0,42.8,0,85.2,0,127.9c21.2,0,42.1,0,63.8,0c0-2,0-3.9,0-5.8c0-39.7,0-79.3,0-119
		c0-10.1,3.5-13.7,13.4-13.7c41,0,82,0,123-0.1c5.3,0,9,2,12.3,6.1c22.4,28,36.8,59.6,42.4,95.1c0.1,0.6,0.5,1.2,0.8,1.8
		C535.8,484.7,535.8,519.1,535.8,553.4z M514.6,539.4c0-8.6,0-16.6,0-24.5c0-19.7,1.2-39.4-0.4-58.9c-2.6-31.5-15.1-59.4-34.5-84.2
		c-1.4-1.7-4.4-3-6.7-3c-34.3-0.2-68.6-0.1-103-0.2c-4.3,0-5.2,1.5-5.2,5.5c0.1,28.5,0.1,57,0.1,85.5c0,1.6,0,3.2,0,5.4
		c2.7,0,4.6,0,6.6,0c18,0,36,0,54,0c2.3,0,4.7,0.1,6.9,0.7c4.6,1.4,7.1,4.9,7.3,9.7c0.2,4.6-2.8,8.9-7.3,10.2
		c-2.2,0.6-4.6,0.7-6.9,0.7c-18,0-36,0-54,0c-1.9,0-3.9,0.2-6.1,0.3c0,17.9,0,35.3,0,53.2c13.6,0,26.9-0.1,40.2,0.1
		c3.3,0,4.9-1,6.6-3.9c6.1-10.3,14.9-17.2,27.4-17.3c12.9-0.1,21.7,7,28.4,17.5c0.9,1.5,2.7,3.4,4.1,3.5
		C485.8,539.5,499.8,539.4,514.6,539.4z M343.4,539.2c0-10.9,0-21.3,0-31.5c-99.6,0-198.8,0-298.1,0c0,10.7,0,21.1,0,31.8
		c9.7,0,19.1-0.2,28.4,0.1c3.9,0.1,6.1-1,8.1-4.6c11.4-19.4,34-22.3,49.4-6.8c1.5,1.5,2.9,3.1,4.2,4.6c3.8-3.3,7.1-6.9,11-9.5
		c15.1-10.1,33.8-4.6,43.9,12.4c0.8,1.4,2.2,3.5,3.4,3.6c6.6,0.4,13.2,0.2,19.6,0.2c0.3-0.9,0.5-1.2,0.5-1.5
		c0.1-4.2,0.1-8.3,0.1-12.5c0.1-6.6,2.4-9,9.1-9c16.3,0,32.7,0,49,0c7,0,9.6,2.7,9.6,9.7c0,4.3,0,8.6,0,13.1
		C302.5,539.2,322.9,539.2,343.4,539.2z M236.9,358.3c0,2.3,0,4.1,0,5.9c0,18.1,0,36.3,0,54.4c0,21,0.1,41.9-0.1,62.9
		c0,3.8,1.1,5,4.8,4.8c3.8-0.3,7.7-0.4,11.5,0c4.4,0.4,5.6-1.1,5.6-5.5c-0.2-39.1-0.1-78.2-0.1-117.3c0-1.6-0.1-3.2-0.2-5.1
		C251.2,358.3,244.5,358.3,236.9,358.3z M279.6,326c-2.1,0-3.7,0-5.4,0c-35.8,0-71.6,0-107.4,0c-17.7,0-35.3,0.1-53-0.1
		c-4,0-4.9,1.2-5.1,5.1c-0.2,4.7,1.4,5.8,5.9,5.8c49.1-0.1,98.3-0.1,147.4-0.1c5.8,0,11.5,0,17.5,0C279.6,333,279.6,329.9,279.6,326
		z M87.6,368.5c0-14.2,0-28,0-42c-7.2,0-14,0-20.8,0c0,14.2,0,28,0,42C73.8,368.5,80.6,368.5,87.6,368.5z M440.1,539.3
		c-7.5-0.1-11.1,3.4-11.1,10.8c0,7.1,3.5,10.6,10.8,10.6c7.3,0,10.8-3.3,10.9-10.5C450.7,543,447.2,539.4,440.1,539.3z M109,560.7
		c7.6,0,10.9-3.3,10.8-10.9c0-7.1-3.5-10.4-10.9-10.4c-7.3,0-10.5,3.3-10.5,10.7C98.5,557.5,101.6,560.7,109,560.7z M173.1,549.8
		c-0.1-7.3-3.4-10.5-10.8-10.5c-7.4,0-10.8,3.5-10.6,11.2c0.1,7.1,3.6,10.3,11.1,10.2C170,560.6,173.2,557.3,173.1,549.8z
		 M267.2,530.8c-13.4,0-26.1,0-38.9,0c0,3,0,5.6,0,8.3c13.1,0,26,0,38.9,0C267.2,536.1,267.2,533.5,267.2,530.8z"/>
	<path d="M445.1,454c-11.7,0-23.3,0-35,0c-9.2,0-13-3.9-13-13.1c0-16-0.1-32,0-48c0-9.7,3.7-13.4,13.2-13.4c16.3,0,32.6,0,49,0
		c7,0,10.1,2.5,12.7,8.9c6.4,16.3,12.9,32.4,19.4,48.6c4.1,10.2-0.3,16.9-11.2,17C468.4,454.1,456.8,454,445.1,454z M466.6,432.5
		c-4.1-10.3-8-20.2-12-30c-0.4-0.9-2-1.8-3.1-1.9c-10-0.1-20-0.2-30,0c-1,0-2.9,1.5-2.9,2.3c-0.2,9.8-0.1,19.5-0.1,29.6
		C434.7,432.5,450.3,432.5,466.6,432.5z"/>
</g>
</svg>
