<?xml version="1.0" encoding="utf-8"?>
<!-- Generator: Adobe Illustrator 19.0.0, SVG Export Plug-In . SVG Version: 6.00 Build 0)  -->
<svg version="1.1" id="Calque_1" xmlns="http://www.w3.org/2000/svg" xmlns:xlink="http://www.w3.org/1999/xlink" x="0px" y="0px"
	 viewBox="0 0 612 792" style="enable-background:new 0 0 612 792;" xml:space="preserve">
<style type="text/css">
	.st0{fill:#ECD9AF;}
	.st1{fill:#D9C8A1;}
	.st2{fill:#80152D;}
	.st3{fill:#101719;}
	.st4{fill:#273438;}
	.st5{fill:#D9C7A1;}
	.st6{fill:#1F0110;}
	.st7{fill:#283438;}
	.st8{fill:#D8D8D8;}
	.st9{fill:#D8C6A0;}
	.st10{fill:#6F6E6E;}
	.st11{fill:#1F0010;}
	.st12{fill:#0E0309;}
	.st13{fill:#283538;}
	.st14{fill:#13191B;}
	.st15{fill:#AE7C65;}
	.st16{fill:#B37E67;}
	.st17{fill:#CAFCF6;}
	.st18{fill:#87BEB6;}
	.st19{fill:#87BDB6;}
	.st20{fill:#200111;}
	.st21{fill:#0D0208;}
	.st22{fill:#C6F7F1;}
	.st23{fill:#89C0B8;}
	.st24{fill:#111819;}
	.st25{fill:#C9D4D6;}
	.st26{fill:#12191A;}
	.st27{fill:#0D0309;}
	.st28{fill:#11181A;}
	.st29{fill:#111719;}
	.st30{fill:#C9D3D5;}
	.st31{fill:#EFECEC;}
	.st32{fill:#C8D3D5;}
	.st33{fill:#8B9698;}
</style>
<g>
	<path class="st0" d="M313,652c-10.7,0-21.3,0-32,0c-7.2-1-14.5-0.8-21.8-1.4c-13.7-1.1-26.9-4.5-39.9-8.6
		c-27.7-8.8-53.3-21.8-76.6-39.3C113,580.4,89.1,553,71.1,520.4c-13.1-23.8-22.3-49.1-27.5-75.8c-1.6-8.5-1.6-17.2-2.2-25.8
		c-0.2-2.3,0.5-4.6-0.5-6.9c0-10.7,0-21.3,0-32c1-7.2,0.8-14.5,1.4-21.8c0.8-10,3-19.7,5.6-29.4c10.2-37.9,28.1-71.9,54-101.4
		c40.6-46.1,90.9-75.4,151.8-85.5c7.2-1.2,14.5-1.3,21.9-1.5c1.8,0,3.7,0.6,5.4-0.5c10.7,0,21.3,0,32,0c7.2,1,14.5,0.8,21.8,1.4
		c9.7,0.7,19.1,2.8,28.4,5.4c38.7,10.5,73.4,28.7,103.6,55.1c30.4,26.7,53.4,58.7,68.8,96.2c0.8,2,1.9,4,0.7,6.2
		c-2.3,1.7-4.5,0.6-6.5-0.4c-20.5-9.8-41.3-19-61.8-29c-9.5-4.7-19.5-8.4-28.7-13.8c-0.7-0.4-1.6-0.4-2.4-0.5
		c-7.7-4.4-14.8-1.2-22,1.7c-17.8,12.6-35.2,25.8-52.7,38.9c-14.5,10.9-29.2,21.6-43.7,32.5c-2,1.5-3.9,3.1-6.5,3.6
		c-4.4-0.2-7.7-2.8-11.2-4.9c-10.5-6.3-20.8-13-31.5-19c-3-1.8-6.2-2.3-9.6-2.3c-21.1,0-42.3,0.2-63.4-0.1c-7-0.1-11.2,3-14.3,8.7
		c-4.8,9-8.8,18.3-13,27.5c-4,8.6-8,17.2-11.8,25.9c-1.8,4.2-4.9,5.2-9.5,5.5c-9.8,0.6-19.5-0.8-29.3,0.3c-3,0.3-6,0.2-9-0.2
		c-8.6-1.1-11.7,1.4-12.4,9.9c-0.1,1-0.4,2-0.2,3c0.5,4.5,0.5,8.9,0,13.4c0.2,4.4,0.9,8.9-0.4,13.3c-0.5,1.5-1.6,2.6-2.9,3.3
		c-5.2,3.1-6.9,7.7-6.6,13.5c0.2,3,0.3,6,0,9c-0.7,6.9,2.4,11.4,8.3,14.4c8.6,5.7,17.8,10.2,26.6,15.4c1.1,0.8,1.9,1.9,2.6,3
		c5.6,8.8,13.3,14.6,23.6,16.7c1.3,0.3,2.6,0.7,3.8,1.3c7.3,4,15.3,6.5,22.9,9.7c46.9,19.6,93.8,38.9,140.7,58.5
		c30.3,12.6,60.7,24.9,90.9,37.6c8,3.3,16.3,6,23.7,10.5c0.9,0.5,1.7,1,2.2,2c-0.4,3.8-3.7,5-6.3,6.4c-18.1,10-36.9,18.3-56.7,24.2
		c-17.5,5.2-35.2,7.9-53.5,7.8C314.9,651.5,313.8,651.2,313,652z"/>
	<path class="st1" d="M437,259c6.4,1.7,12.2,5.1,18.2,7.8c18.1,8.3,35.8,17.3,54.1,25.2c7.2,3.1,14.1,6.8,21.1,10.2
		c1.8,0.9,3.5,2,5.6,1.8c2.3,0.5,3.1,2.4,3.7,4.3c6.6,18.5,11.9,37.2,12.5,57c0.2,4.9-0.3,9.9,0.9,14.7c0,10.7,0,21.3,0,32
		c-0.9,6.7-0.7,13.5-1.2,20.3c-1.5,19.3-7,37.6-13.8,55.6c-12.8,33.8-32,63.5-57.6,89.1c-12.8,12.8-26.3,24.5-41.5,34.3
		c-2,1.3-3.9,3.4-6.7,1.8c-6.5-1.5-12.2-4.9-18.3-7.3c-13.9-5.6-27.6-11.5-41.5-17c-16.8-6.6-33.3-14.1-50-21.1
		c-21-8.7-42.1-17.2-63.2-25.9c-12-4.9-23.8-10.2-35.8-15.1c-21-8.7-42.2-17.2-63.2-26c-3.2-1.3-6.6-2.2-9.2-4.8
		c1.3-1.9,3.4-1.8,5.4-2.1c16.7-2.6,27.1-11.9,30.5-28.6c0.8-3.8,2.4-6,6.6-5.8c2.3,0.1,4.6-0.6,6.9-1.2c1.5-0.5,3-0.4,4.5-0.4
		c33.1,0,66.1,0,99.2,0c1.5,0,3-0.1,4.4,0.3c2.4,0.6,4.8,1.5,7.3,1.2c4.9-0.5,7,2.1,7.8,6.4c1.4,7.4,4.9,13.7,10.4,18.9
		c17.9,16.9,47.8,8.8,54.7-14.8c0.2-0.6,0.4-1.3,0.5-1.9c0.5-5.7,3-9.3,9.4-8.8c0.8,0.1,1.6-0.2,2.4-0.5c1.6-0.4,3.2-0.5,4.8,0
		c2.4,0.5,4.9,1,7.4,0.8c4.1-0.4,6,1.5,6.8,5.5c1.9,9.9,6.5,18,15.3,23.5c18.4,11.7,43.5,3,49.3-17.9c2.2-8,5.5-12.2,13.7-12
		c8.7-2.7,10.6-5.3,10.7-14.2c0-4,0.1-8,0-11.9c-0.1-6.7-4-11-10.6-11.3c-8.1-0.4-16.2,0.1-24.3-0.4c-6-0.4-11.3-3.7-17.4-3.9
		c-6.7-0.3-13.2,0.1-19.6,2.4c-2.5,0.9-5,1.9-7.8,1.4c-8.4,0.6-16.8,0.5-25.3,0.4c-1.8,0-3.6,0.1-5.4-0.5c-2.3-0.9-2.2-2.4-1.2-4.4
		c3.1-6.4,2.7-7-2.4-11.7c-13.8-12.7-27.6-25.6-41.2-38.6c-1.1-1-2.2-2.1-2.3-3.7c0.3-2,1.6-3.3,3-4.5
		c17.7-15.8,34.9-32.1,52.7-47.8c1.7-1.5,3.4-3.4,6.1-1.9c2.6,3.2,0.3,7.1,1.6,10.5c0,6.1,2.4,11,7.9,14c3.2,1.8,4,4.6,3.7,8
		c-0.2,2.5,0.4,5-0.6,7.4c-1,1.6-2.8,2.3-4.4,3.1c-6.3,3.3-9.5,9.5-8.3,16c1,6,6.2,11.2,11.8,11.9c7.8,1,13.2-1.9,16.5-9
		c0.5-1,1.2-2,0.9-3.1c-2.7,8.4-7.3,12.1-14.8,12c-6.8-0.1-12.5-4.4-14-10.7c-1.7-6.8,1.4-13.6,7.7-16.7c1.2-0.6,2.4-1.2,3.7-1.5
		c2.3-0.6,3-2.1,3.1-4.4c0.1-3.3-0.5-6.7,1.1-9.8c0.5-0.5-0.3-0.1,0.3-0.4c8.5-4.3,11.7-11.3,10.8-20.6c0.3-12.5,0.3-25-0.1-37.5
		C441.1,270.8,438.2,265.1,437,259z"/>
	<path class="st2" d="M95.1,390.8c0-1.3-0.1-2.7-0.1-4c0.1-7,3.4-10.4,10.5-10.4c14.5,0,29-0.1,43.5,0.1c3.1,0,4.7-0.9,6-3.8
		c7.2-15.9,14.5-31.7,21.8-47.6c0.8-1.8,1.7-3.6,2.6-5.4c3.7-7.5,8.9-11.2,18.1-10.9c21.5,0.7,43,0.3,64.4,0.2c3.3,0,6.3,0.6,8.6,3
		c3.3,2.7,4.6,6.2,4.5,10.5c-0.1,29.9,0,59.7-0.1,89.6c0,2.5,0.2,5-1.6,7.1c-1.9,1.8-4.2,1.7-6.6,1.7c-27.8,0.1-55.5,0-83.3,0
		c-2.5,0-4.9-0.8-7.4-0.5c-2.7,0.5-5.3-0.3-7.7-1.2c-10.7-3.8-21.4-3.6-32,0.2c-2,0.7-4.1,1.4-6.3,1c-9.6,0.7-19.2,0.4-28.8,0.4
		c-2.3,0-4.7,0.1-6.3-2.1c0-4.6,0-9.3,0-13.9c2.3-2.6,5.5-2,8.4-2.1c2.7-0.1,5.3,0.2,8-0.3c2.6-0.5,4.2-2,4.2-4.8
		c0-2.8-1.6-4.3-4.2-4.7c-3.3-0.5-6.7-0.2-10-0.3C99.1,392.9,96.7,393,95.1,390.8z"/>
	<path class="st3" d="M412,307.8c-19.9,18.1-39.9,36.2-59.8,54.3c-3.8,1.2-7.3,0.1-10.6-1.8c-1.4-1.6-1.5-3.6-1.6-5.6
		c-0.8-9.6-5.1-13.7-14.6-13.8c-3.3,0-6.6,0-9.9-0.1c-2.1,0-4.4-0.1-5.8-2.2c-0.6-2,1.2-2.1,2.2-2.8c23.7-17.5,47.3-35,71-52.6
		c8.7-6.4,17.3-12.9,26-19.4c1.6-1.2,3-2.7,5.1-3c3.7-1,2.9,1.8,2.4,3.4c-1,3.5-1.5,6.9-1.5,10.5c-0.1,8.8,0.2,17.5,0.1,26.3
		C415,303.8,415.1,306.6,412,307.8z"/>
	<path class="st4" d="M199,460.1c-7.8-0.7-10,3.3-11.7,10.6c-3.3,14.5-17.2,24.3-32.4,25c-1.3,0.1-2.6,0.1-4,0.2
		c-13.5-2-23.5-8.9-29.8-21c-2-1.8-3.5-4-3.8-6.7c-0.4-3.7-2.3-5.6-6.2-5.4c-1.6,0.1-3.3-0.3-4.3-1.9c-0.2-0.6-0.1-1,0.4-1.5
		c1.4-1.2,3-1.2,4.6-1c3.4-0.1,4.7-2.1,5.4-5.3c4.2-18.3,18.5-30,36.6-30c17.8,0,32.2,11.8,36.6,30.1c0.5,2.1,0.3,4.9,3.6,5.2
		c1.6,0,3.2-0.1,4.6,1.1C198.7,459.7,198.9,459.9,199,460.1z"/>
	<path class="st5" d="M312,336c-0.7,0.7-1.3,1.3-2,2c-0.8,2.3-2.8,2.5-4.8,3c-7.3,1.6-10.6,5.4-11.2,13c-0.2,2-0.1,4-1.1,5.8
		c-1.1,1.7-2.8,2.3-4.6,2.9c-6.1,2-8.5,6.1-8.3,12.5c0.3,9.8,0.2,19.6,0,29.4c-0.1,4.3,1.3,7.7,4.5,10.5c1.3,1.2,3.7,2.1,2,4.7
		c-4.6,1.7-9.2,2.7-13.4-0.9c0-31.7-0.1-63.5,0-95.2c0-4.1-0.5-7.9-2.5-11.5c10.5,5.5,20.3,12.1,30.4,18.2
		C304.5,332.5,308,334.8,312,336z"/>
	<path class="st6" d="M95,418.9c12,0.1,24,0.1,36,0.2c0.5,2.5-1.5,3.5-3,4.7c-10.2,7.9-17.4,17.7-18.8,31c-0.2,1.8-0.5,3.7-2.1,4.9
		c-0.1,0.2-0.1,0.3-0.1,0.5c-4,3.8-8,1-12,0c-7.8-3.2-10.1-6.4-10.1-14.6c0-3.8,0.2-7.7-0.1-11.5C84.3,426.3,87.8,421.4,95,418.9z"
		/>
	<path class="st7" d="M413.2,274.3c-0.5-3.8-0.3-7.5,1.9-10.9c0.9-1.4,0.4-2.1-1-2.4c7.4-3.8,14.8-7.5,22.9-2
		c4.9,4.7,6.3,10.4,5,16.9c-1,1.9-0.6,4.2-2.1,5.9c-1.7,1.4-2.7,3.6-5.1,4.2c-6.6,1.5-13,1.5-18.3-3.7
		C413.8,280.4,414,277.1,413.2,274.3z"/>
	<path class="st8" d="M95.1,390.8c5.2,0,10.3,0,15.5,0.1c4.8,0.1,7.5,2.6,7.6,6.7c0.1,4.3-2.8,7.2-7.7,7.3
		c-5.2,0.1-10.3,0.1-15.5,0.1C95.1,400.3,95.1,395.6,95.1,390.8z"/>
	<path class="st9" d="M95,460.2c4,0,8,0,12,0c8.9-1,13.2,3.2,13.4,12c0,0.9,0.5,1.9,0.8,2.8C112,470.9,103.4,465.6,95,460.2z"/>
	<path class="st10" d="M286.9,418.8c-6.5-2.8-9.4-7.6-9-14.9c0.4-9.8,0.1-19.6,0.1-29.3c0-9.2,2.6-12.5,11.5-14.5
		c1-0.2,2-0.1,2.6-1.2c5.1-2.1,10.5-1.3,15.7-0.9c9.1,0.6,18.2-0.5,27.3-0.1c2.5,0.1,5,0,6.9,2c3.5,0.1,7,0.5,10.1,2.3
		c15.4,14.4,30.9,28.7,46.3,43.1c5.1,4.8,4.7,7.5-1.5,13.6c-3.9,3.8-8.8,1.8-13.2,2c-1.9,0.1-3.9-0.5-5.9-0.3
		c-2.1,0.5-4-0.1-5.8-0.9c-11.1-4.2-22.1-4.1-33.2,0c-1.9,0.7-3.8,1.2-5.9,0.8c-13.1,0.9-26.2,0.4-39.3,0.4
		C291.2,421.1,288.6,421.4,286.9,418.8z"/>
	<path class="st11" d="M286.9,418.8c15.7,0.1,31.4,0.2,47.1,0.3c0.5,2-0.9,3.1-2.2,4c-11.8,8.4-18.8,19.7-20.2,34.3
		c-0.1,0.8-0.4,1.6-1,2.2c-0.2,0.1-0.4,0.3-0.6,0.4c-37,0-74,0-111,0c0-0.2,0-0.3-0.1-0.5c-2.2-1.4-2.4-3.8-2.7-6.1
		c-1.9-11.4-7.3-20.8-16.5-28c-2.1-1.6-5.1-2.7-4.7-6.3c30.5-0.1,61.1-0.1,91.6-0.2c2.2,0,4.3-0.1,6.5-0.1
		C277.7,418.9,282.3,418.8,286.9,418.8z"/>
	<path class="st4" d="M498,460.1c-6.8-0.3-9.5,2.6-11.1,9.7c-3.6,16.3-19.5,27.1-35.7,25.9c-17.3-1.2-31.2-14-33.2-31.1
		c-0.4-3-1.2-4-4.2-3.9c-2.6,0.1-5.3,0.4-7.9-0.7c0.2-0.2,0.3-0.5,0.4-0.7c1.4-1.2,3-1.1,4.6-1c4.1,0.1,5-2.6,5.7-6
		c5-21.8,26.4-34.4,47.4-27.7c13.7,4.4,22.2,14.2,25.5,28.3c0.6,2.6,0.9,5,4.2,5.3c1.3,0.1,2.7,0,3.7,1
		C497.7,459.7,497.9,459.9,498,460.1z"/>
	<path class="st4" d="M401,460.2c-7-0.7-9.1,2.8-10.5,9.5c-3.2,15.3-18.4,26.3-34.2,26.1c-16.1-0.2-30.6-11.6-34.2-27.1
		c-1.8-7.6-1.8-7.6-9.8-8.1c-0.8,0-1.6-0.3-2.4-0.5c-0.1-0.2-0.1-0.3,0-0.5c1.3-1.1,2.9-1.5,4.6-1.3c3.7,0.2,4.7-2.3,5.4-5.3
		c1.9-8.3,5.6-15.7,12.3-21.2c21.7-17.8,53-7.7,60.4,19.4c0.7,2.5,0.2,5.9,3.7,7c1.2,0.2,2.5,0,3.6,0.7
		C400.6,459.3,400.9,459.7,401,460.2z"/>
	<path class="st6" d="M377,419.2c6.7-0.1,13.3-0.2,20-0.3c11,0.1,22,0.2,33,0.2c0.6,2.9-1.7,4.1-3.5,5.4
		c-10.1,7.5-16.3,17.3-17.8,29.9c-0.2,2-0.7,3.9-2.6,5.1c-0.1,0.1-0.1,0.3-0.1,0.5c-1.7,0-3.3,0.1-5,0.1c0-0.2,0-0.4-0.1-0.6
		c-1.3-1-1.6-2.5-1.7-4c-1.4-13.4-8-23.7-18.6-31.6C378.9,422.8,376.6,422,377,419.2z"/>
	<path class="st6" d="M474,419.1c8.3-0.1,16.6-0.2,24.9-0.1c6.8,0.1,11.9,5.2,12.2,12c0.2,5.1,0.1,10.3,0,15.5
		c-0.1,8.4-4.6,13.1-13.2,13.6c0.1-0.2,0-0.3-0.1-0.5c-1.9-1.5-1.9-3.8-2.3-5.8c-2.1-12.2-8.1-21.8-17.9-29.3
		C476,423.2,473.6,422.1,474,419.1z"/>
	<path class="st12" d="M474,419.1c7.1,5.6,14.3,11.2,18.5,19.6c3.3,6.6,5.4,13.5,5.4,20.9c-1.3,0-2.6,0.1-3.9,0.1
		c-2.5-2-2.4-5-3.1-7.7c-6.3-27-35.6-39.6-59.1-25.2c-9.8,6-16.1,14.7-18,26.3c-0.4,2.4-0.6,5-3,6.6c-1.6,0-3.2-0.1-4.8-0.1
		c1-12.6,5.1-23.8,14.4-32.7c3-2.8,7-4.4,9.5-7.8c4.1-1.2,8.2-2.6,12.4-3.6c9-2,17.8-1.3,26.4,2C470.5,418.3,472.3,418.6,474,419.1z
		"/>
	<path class="st13" d="M442,316.1c1.3,11.2-1.2,15.4-11.9,19.9c-2.3,1.5-2,3.9-2.2,6.2c-0.2,2.2,0.5,5.1-2.9,5.8
		c0.1-1.7,0.2-3.3,0.3-5c0.2-4.2,0.2-7.6-5-9.7c-5.7-2.3-7.4-8.1-7.1-14.3c0.7-3.7,0.5-7.7,4.2-10.2c7.1-5.9,14.6-5.6,22.2,1
		C441.4,311.5,440.8,314.1,442,316.1z"/>
	<path class="st14" d="M425,348c2.2-2.4,1-5.4,1.1-8c0-3,1-4.3,4.1-3.9c0,1.7,0,3.3,0.1,5c0.2,5.6,1.1,10.7-7.4,11.8
		c-6.1,0.8-9.1,8.6-7.5,14.9c1.4,5.7,6.9,9.8,13,9.7c6.4-0.1,11.7-4.8,12.7-11.3c0.1-0.7,0.1-1.3,0.1-2c0.1-1.4-0.5-3.4,1.9-3.1
		c2.1,0.2,1.7,2.2,1.7,3.6c0.1,8.3-6.8,15.8-15,16.4c-9.1,0.7-16.8-5.2-18.3-14.1C409.8,358.3,415.3,350.7,425,348z"/>
	<path class="st15" d="M418,310.2c-2.6,2.4-3.8,5.6-4.9,8.9c-0.7-3.7,1.1-7.7-1.2-11.2c1.4-1.7,1.2-3.7,1.2-5.7c0-9.3,0-18.6,0-27.9
		c1.3,2.3,2.7,4.5,4,6.8c2.8,4.6,1.6,9.7,1.9,14.6c0.1,1.8-0.5,3.6-0.1,5.5C419.6,304.3,418.6,307.2,418,310.2z"/>
	<path class="st16" d="M442,316.1c-1-1.7-2-3.4-3-5c-3.3-10-3-20.1,0-30.1c1-1.7,2-3.4,3-5.1C442,289.3,442,302.7,442,316.1z"/>
	<path class="st17" d="M226.9,320c7.3-0.5,14.7-0.5,22,0c2,2.4,0.8,4.4-0.8,6.2c-2.1,2.4-4,5-6.1,7.1c-12.4,12.3-23.5,25.8-35.9,38
		c-0.6,0.6-1.2,1.2-1.9,1.6c-0.5,0.2-1,0.4-1.6,0.4c-5.4,0.3-10.8-0.2-16.2,0.4c-2,0.1-3.9-0.2-5.4-1.7c-1.9-2.7,0-4.7,1.5-6.7
		c4.9-6.7,11.3-12.2,16.9-18.3c7-7.7,14-15.5,21.5-22.9C222.6,322.3,224.9,321.3,226.9,320z"/>
	<path class="st18" d="M226.9,320c-12.9,13.8-25.9,27.6-38.7,41.5c-2.7,2.9-5.9,5.4-7.1,9.4c-0.3,0.4-0.8,0.6-1.3,0.6
		c-2.7-0.9-4-2.7-4-5.5c-0.6-2.6-0.8-5.2,0.3-7.8c4.9-11.1,9.3-22.4,14.7-33.3c1.8-3.6,4.1-5.1,8.2-5
		C208.3,320,217.6,319.9,226.9,320z"/>
	<path class="st19" d="M260.2,326.9c1.2,1.3,1.5,3.1,1.5,4.6c-0.1,10.8,0.8,21.6-0.5,32.4c0.2,3.8-1.1,6.8-4.6,8.6
		c-1.3,0.8-2.7,1.4-4.2,1.5c-10.9,0-21.8,0.7-32.7-0.3c-0.5-0.2-1-0.4-1.4-0.8c-1.7-2.5,0.2-4.1,1.6-5.6
		c12-12.8,23.8-25.9,36.1-38.5C257.2,327.6,258.2,326.1,260.2,326.9z"/>
	<path class="st20" d="M256.7,370.7c1.9-2,3.6-4.1,4.5-6.8c1.4,11.4,1.6,22.9,0,34.3c-1.4,9.3-7.9,13.8-17.4,13.8
		c-16.7,0-33.3,0-50,0c-10.5,0-16.7-4.4-18-14.7c-1.4-10.3-1.3-20.9,0.1-31.3c1.5,1.7,2.9,3.3,4.4,5c1.4,2,1.8,4.2,1.8,6.6
		c0,5.1-0.2,10.3,0.1,15.4c0.4,8.1,4.5,12.1,12.6,12.1c15.8,0.1,31.5,0.1,47.3,0c8.4,0,12.4-4,12.9-12.3c0.1-2.5-0.2-5,0.4-7.4
		c0.6-2.7,1.4-5.4,0.2-8.1C254.8,374.7,255.5,372.7,256.7,370.7z"/>
	<path class="st21" d="M175,419.1c3.7,4.5,9.2,6.8,12.9,11.4c6.9,8.6,10,18.4,11,29.1c-1.6,0-3.2,0.1-4.8,0.1
		c-1.7-1.2-1.8-3.1-2-4.9c-3.9-28.4-36.3-43.4-60.1-27.6c-9.3,6.2-15.9,14.6-17.6,26.1c-0.3,2.2-0.2,4.8-2.4,6.3
		c-1.6,0-3.2-0.1-4.8-0.1c0.1-15.6,7.2-27.5,19.3-36.9c1.6-1.2,3.6-1.9,4.6-3.7c5.4-1,10.2-3.8,15.8-4.2c8.4-0.7,16.5,0.1,24.4,3.3
		C172.4,418.7,173.7,418.8,175,419.1z"/>
	<path class="st22" d="M260.2,326.9c-14.1,15-28.3,30-42.4,44.9c-2.4,2.8-5.6,1.9-8.3,1.2c-3-0.8-1.9-3.1-0.4-4.6
		c3.3-3.3,6.1-7.1,9.4-10.3c6.8-6.7,12.6-14.2,19.5-20.7c4.3-4,7.6-8.8,11.6-13c1.5-1.6,2.9-3.2,5.3-3.3
		C257.7,322.2,259.9,323.7,260.2,326.9z"/>
	<path class="st23" d="M255.1,321.1c-15.4,16.7-30.9,33.3-47,50.7c3.9,0,6.8,0,9.8,0c0.1,0.1,0.2,0.3,0.4,0.4
		c-3.6,4-9.5,3.9-14.1-0.2c10.2-11.1,20.5-22.2,30.7-33.4c3.7-4,7.4-8.1,11.2-12.1c1.7-1.9,3-4,3-6.6
		C251.1,319.9,253.3,319.5,255.1,321.1z"/>
	<path class="st4" d="M342.1,359.9c-15.2,0-30.5,0.1-45.7,0.1c-1.5,0-3-0.1-4.2-1.1c-0.3-3.8-0.3-7.6,1.2-11.2
		c2.3-5.2,5.8-8.8,12-8.5c1.7,0.1,3.2-0.5,4.7-1.2c4.4,2.1,9.1,0.9,13.6,0.9c13.8,0.2,18.3,4.6,18.4,18.5
		C342,358.2,342,359.1,342.1,359.9z"/>
	<path class="st24" d="M111.9,459.7c-0.6-22,19.8-41.2,41.8-40.8c20.9,0.4,41,17.2,40.4,40.8c-3.4,0.7-4.9-0.2-5.3-4.2
		c-1.2-13.2-12-26-25.1-29.3c-14.3-3.6-26.9-0.5-36.8,11.2c-4.2,4.9-7.3,10.4-7.9,16.8C118.6,459,116.5,460.8,111.9,459.7z"/>
	<path class="st25" d="M153.6,479.2c-10.6-0.1-18.8-8.4-18.7-19.2c0.1-10.5,8.7-19,19.2-18.9c10.4,0.2,19,9,18.9,19.3
		C172.8,470.9,164.1,479.3,153.6,479.2z"/>
	<path class="st9" d="M438.9,280.9c0,10,0,20.1,0,30.1c-8.2-5.8-13.3-6-20.9-0.9c-1.8-2.6-1.2-5.3,0-7.9c0-1.2,0.3-2.3,1.2-3.2
		c5-5,10-10,16-13.9C436.8,284.1,436.9,281.7,438.9,280.9z"/>
	<path class="st10" d="M437.1,270.9c0,5.8-3.6,9.3-9.4,9.2c-5.4-0.1-9.6-4.1-9.6-9.4c0-4.7,5-9.7,9.8-9.6
		C433.2,261.3,437.1,265.4,437.1,270.9z"/>
	<path class="st26" d="M435.2,285.2c-4.5,6.9-11.6,11.1-17.2,17c-2.2-7-0.6-14.1-0.8-21.2c4.3,3.7,9.4,4.6,14.8,3.7
		C433.2,284.6,434.3,284,435.2,285.2z"/>
	<path class="st27" d="M377,419.2c4.6,3.9,9.8,6.9,13.7,11.9c6.6,8.5,10.8,17.7,10.2,28.6c-1.3,0-2.6,0-3.9,0.1
		c-1.8-1.4-1.8-3.4-2.1-5.4c-3.3-19.6-19.5-33.4-39-33.4c-19.5,0-35.7,13.9-39,33.4c-0.3,2-0.3,4-2.1,5.4c-1.6,0-3.2,0-4.8-0.1
		c0-15.6,7-27.6,19.3-36.8c1.6-1.2,3.1-2.4,4.7-3.7c8.8-3.1,17.7-5.5,27.3-4.3C366.8,415.5,371.7,417.8,377,419.2z"/>
	<path class="st28" d="M410.9,459.7c1.4-16.6,8.7-29.2,24.1-36.8c23.6-11.6,53,3.1,58,28.9c0.5,2.6,0.8,5.2,1.2,7.8
		c-3.9,0.8-5.8-0.6-6.1-4.8c-1.3-15.2-16.7-29-31.9-30c-20.1-1.4-37.2,14.3-38.1,32.1C417.6,462.1,413.4,459.2,410.9,459.7z"/>
	<path class="st25" d="M472.1,460.3c0,10.6-8.4,18.9-19,18.9c-10.6,0-19.1-8.5-19-19c0-10.4,8.7-19.1,19.1-19.1
		C463.6,441.2,472.1,449.7,472.1,460.3z"/>
	<path class="st29" d="M314.9,459.7c-0.8-22.1,19.6-41.4,41.8-40.8c21.4,0.6,40.7,18.1,40.4,40.8c-3.4,0.7-4.7-0.4-5.3-4.2
		c-5-28.9-36.5-40.4-59-21.6c-6.3,5.3-9.8,12.5-11,20.7C321.1,459,319.3,460.9,314.9,459.7z"/>
	<path class="st30" d="M356.5,479.2c-10.7,0-18.8-8.3-18.8-19.1c0-10.5,8.6-19.1,19-19c10.4,0.1,19.1,8.9,19,19.2
		C375.6,470.8,367,479.2,356.5,479.2z"/>
	<path class="st10" d="M437.1,320.9c0.1,5.5-3.9,9.8-9.1,9.9c-4.9,0.1-9.7-4.5-9.9-9.5c-0.2-5.1,4.1-9.4,9.4-9.4
		C433.6,311.8,437.1,315.1,437.1,320.9z"/>
	<path class="st2" d="M204.1,372.1c4.7,0.7,9.4,1.6,14.1,0.2c10.5,0,20.9,0,31.4,0.1c2.6,0,4.9-0.5,7.2-1.6c0.1,2.4,0.1,4.8,0.2,7.2
		c-1.7,2.4-4.4,1.8-6.8,2.1c-2.1,0.2-4.3-0.4-6.8,0.9c1.8,1.6,3.8,1,5.6,1.2c2.7,0.3,5.7-0.6,7.9,1.9c-0.1,4.6,0.7,9.3-0.6,13.9
		c-1.8,6.4-5.3,9.1-11.9,9.1c-16.9,0-33.9,0-50.8,0c-8.3,0-13.2-4.6-13.4-13.1c-0.2-7.6,0-15.3,0.1-22.9c0.3,0,0.6,0,0.8,0
		c1.4,1.2,3.1,1.2,4.8,1.4C191.9,372.6,198,372.9,204.1,372.1L204.1,372.1z"/>
	<path class="st23" d="M204.1,372.1c-6.1,1.4-12.1,1.1-18.2,0.2C191.9,372.2,198,372.1,204.1,372.1z"/>
	<path class="st31" d="M256.9,383.9c-4.3,0-8.7-0.1-13-0.1c-1.9,0-3.9-0.2-4-2.7c-0.1-2.8,2-3,4.1-3c4.3,0,8.7-0.1,13-0.1
		C260,379.9,259.6,381.9,256.9,383.9z"/>
	<path class="st32" d="M317.5,357.6c-4.2,0.1-7.5-3.3-7.5-7.5c0-4.1,3-7.2,7-7.4c4.3-0.2,7.8,3,7.9,7.1
		C325.1,353.9,321.6,357.5,317.5,357.6z"/>
	<path class="st33" d="M165.2,460.4c-0.1,6.8-5.8,12.5-12.4,12.3c-6.6-0.2-12-6.1-11.8-13c0.1-6.4,5.8-11.9,12.3-11.8
		C160.3,448,165.3,453.3,165.2,460.4z"/>
	<path class="st33" d="M452.7,448c6.4,0.1,12.2,5.8,12.2,12c0,6.8-6,12.9-12.7,12.8c-6.4-0.1-12.3-6.3-12.3-12.7
		C440.1,453.6,446.1,447.9,452.7,448z"/>
	<path class="st33" d="M368.1,460.3c-0.1,6.8-5.6,12.5-12.2,12.4c-6.7-0.1-12-5.7-12-12.6c0-7.1,5.1-12.2,12.2-12.2
		C363.2,448.1,368.1,453.1,368.1,460.3z"/>
</g>
</svg>
