<?xml version="1.0" encoding="utf-8"?>
<!-- Generator: Adobe Illustrator 19.0.0, SVG Export Plug-In . SVG Version: 6.00 Build 0)  -->
<svg version="1.1" id="Calque_1" xmlns="http://www.w3.org/2000/svg" xmlns:xlink="http://www.w3.org/1999/xlink" x="0px" y="0px"
	 viewBox="0 0 612 792" style="enable-background:new 0 0 612 792;" xml:space="preserve">
<g>
	<path d="M249.1,515.8c-6.6,7.4-14.4,11-23.4,7.5c-4.5-1.8-8.4-5.7-11.6-9.5c-2-2.4-3.3-3.9-6.6-3.9c-11.3,0.1-11.3,0-11.3-11.6
		c0-7.8,0-15.7,0-23.5c0-6.5,0.7-7.2,7.1-7.2c38.1,0,76.3,0,114.4,0c1.9,0,3.9,0,6.4,0c0-6.9,0-13.2,0-19.4c0-9.5,0.1-19-0.1-28.5
		c-0.1-4.6,1.6-6.8,6.3-6.8c11.5,0.1,23,0.1,34.5,0c3.6,0,5.4,1.6,6.7,4.8c3.4,8.7,7.1,17.2,10.4,25.9c1.3,3.5,3.3,5,6.9,5.1
		c2.2,0,4.3,0.3,6.5,0.6c7.3,1.1,9.8,4,9.3,11.5c-0.8,13.3-1.8,26.6-2.9,39.8c-0.5,5.9-4.3,9.4-10.2,9.3c-4-0.1-6,1.2-8.1,4.8
		c-7.9,13.6-27.7,13.1-35.4-0.8c-1.6-2.9-3.3-3.9-6.5-3.9c-17,0.1-34,0-51,0.2c-1.9,0-4.5,0.8-5.4,2.1
		C275.5,527.2,261.7,528.7,249.1,515.8z M332.2,488.4c9.1-0.9,17.2,1.8,25.2-3.1c5.9-3.6,13.1-3.2,19.1,0.7c5.3,3.5,10.9,1.9,16.5,2
		c0.7,0,1.9-2,2-3.2c0.5-4.6,0.8-9.3,1.1-13.9c0.2-4.3,1.9-10-0.2-12.4c-2.1-2.5-8-2.2-12.2-2.4c-4.2-0.2-6.2-2.2-7.6-5.8
		c-3.3-8.5-6.9-16.9-10.2-25.5c-1-2.7-2.4-3.9-5.5-3.8c-7.8,0.2-15.7,0.3-23.5,0c-4-0.1-4.7,1.5-4.7,5c0.2,13.5,0.1,27,0.1,40.5
		C332.2,473.5,332.2,480.6,332.2,488.4z M323.9,475.9c-40.1,0-79.6,0-119.6,0c0,3.3-0.2,6.3,0.1,9.3c0.1,1,1.3,2.9,1.8,2.9
		c5-0.4,10.5-0.1,14.9-2.2c8.7-4,18.5-3.4,25.4,3.2c0.9,0.9,1.9,1.7,2.8,2.5c8.3-8.3,17.3-11.1,25.4-6.5c5.2,3,10.3,3.2,15.8,3.2
		c8.2,0,16.3,0,24.5,0c2.9,0,5.9,0,9,0C323.9,483.8,323.9,480,323.9,475.9z M232,491.4c-7,0-12.8,5.7-12.7,12.6
		c0.1,6.7,5.9,12.4,12.5,12.5c6.7,0.1,12.8-6.1,12.7-12.8C244.4,496.8,238.8,491.4,232,491.4z M266.2,491.4c-7,0-12.3,5.3-12.4,12.3
		c-0.1,7,5.8,13,12.6,12.9c6.6-0.1,12.4-5.9,12.5-12.6C279,497,273.3,491.3,266.2,491.4z M353.7,503.7c0,7,5.8,12.9,12.6,12.8
		c6.5-0.1,12.5-6.1,12.5-12.5c0.1-6.7-5.9-12.6-12.8-12.6C359.1,491.4,353.7,496.8,353.7,503.7z M346.3,496.7c-20.4,0-40.2,0-60.5,0
		c0.6,2,1.1,3.5,1.5,4.9c19.6,0,38.8,0,58.1,0c0.2-0.9,0.4-1.5,0.5-2.1C346.1,498.7,346.2,497.9,346.3,496.7z M204.6,501.5
		c7,0.8,7.1,0.7,7-4.8c-2.2,0-4.5,0-7,0C204.6,498.4,204.6,499.8,204.6,501.5z M386.1,496.7c-0.2,3.6,0.8,5.7,4.7,5.2
		c3.7-0.5,3.3-2.7,2.9-5.2C390.9,496.7,388.5,496.7,386.1,496.7z"/>
	<path d="M417,406.4c-0.9,0-2.6,0-4.2,0c-31.3,0-62.6,0.1-94-0.1c-3.7,0-6.2,1.2-8.7,3.7c-8.4,8.8-16.9,17.5-25.7,25.9
		c-2.9,2.8-3.9,5.7-3.9,9.6c0.2,17.2,1.6,14.2-14.8,15.1c-25.4,1.4-50-2.1-74.3-9.4c-11.9-3.6-10.5-1.1-10.6-13.7
		c0-7.3,0.1-14.7-0.1-22c-0.1-4.3,1.6-6,5.9-6c12.1,0.1,24.3,0,37.3,0c0-7.2,0-14.1,0-21c0-6.6,0.6-7.3,7-7.3
		c64.5,0,128.9,0,193.4,0c6.5,0,7.6,1.4,6.2,7.9c-1.2,5.2-2.6,10.3-3.6,15.5c-0.2,1.2,0.6,3,1.5,4.1c3.7,4.2,3.5,13-0.6,17.5
		c-4.1,4.5-10.9,5.2-15.9,1.7c-3.7-2.6-5.2-7.1-3.1-10.5c0.8-1.3,2.8-2.5,4.2-2.5c1.2,0,2.5,1.8,3.4,3c0.9,1.1,1.1,3.2,2.1,3.6
		c0.8,0.4,3.3-0.7,3.6-1.6c0.5-1.7,0.4-3.9-0.3-5.5C420.8,411.9,419,409.5,417,406.4z M232,389.4c0,7.8-0.2,14.8,0.1,21.8
		c0.2,4.7-1.4,6.6-6.3,6.5c-10.5-0.3-21-0.1-31.5-0.1c-1.7,0-3.5,0-5.4,0c0,5.8,0,10.8,0,15.8c0,8.8,0,8.8,8.4,10.9
		c18.5,4.7,36.8,10.3,56.4,8.4c6.1-0.6,12.2-0.1,18.3-0.1c0.3-1.2,0.5-1.8,0.6-2.4c2-20.1-2.1-39.3-8.5-58.2c-0.4-1.1-1.9-2.4-3-2.5
		C251.6,389.3,242.1,389.4,232,389.4z M421.7,389.8c-49.8,0-99.6,0-149.4,0c1.7,8.5,1.7,8.6,9.7,8.5c10.2-0.1,20.3-0.3,30.5-0.3
		c33.6,0.1,67.3,0.2,100.9,0.3C421.2,398.3,421.2,398.3,421.7,389.8z M281.2,425.7c6-5.9,12.8-12.4,19.6-19c-7.7,0-15.7,0-23.7,0
		C278.5,413.7,280,420.3,281.2,425.7z"/>
	<path d="M353.6,448.4c3.5,0,7-0.4,10.4,0.2c1.6,0.3,3,2.3,4.5,3.6c-1.4,1.4-2.7,3.9-4.2,4c-7.1,0.4-14.3,0.4-21.4,0
		c-1.4-0.1-2.7-2.6-4.1-4c1.4-1.3,2.7-3.4,4.3-3.6C346.6,448,350.1,448.4,353.6,448.4z"/>
	<path d="M251.6,424.8c-3,0-6.1,0.5-8.9-0.2c-1.5-0.3-3.3-2.6-3.5-4.1c-0.1-1,2.3-3.3,3.7-3.4c6-0.4,12-0.4,17.9,0
		c1.5,0.1,2.7,2.5,4.1,3.9c-1.4,1.3-2.7,3.4-4.3,3.7C257.7,425.3,254.6,424.9,251.6,424.8C251.6,424.9,251.6,424.9,251.6,424.8z"/>
</g>
</svg>
