<?xml version="1.0" encoding="utf-8"?>
<!-- Generator: Adobe Illustrator 19.0.0, SVG Export Plug-In . SVG Version: 6.00 Build 0)  -->
<svg version="1.1" id="Calque_1" xmlns="http://www.w3.org/2000/svg" xmlns:xlink="http://www.w3.org/1999/xlink" x="0px" y="0px"
	 viewBox="0 0 612 792" style="enable-background:new 0 0 612 792;" xml:space="preserve">
<style type="text/css">
	.st0{fill:#ED3E42;}
	.st1{fill:#B0B0B0;}
	.st2{fill:#3C3C3B;}
	.st3{fill:#DBEFF5;}
	.st4{fill:#FDEC00;}
</style>
<g>
	<path class="st0" d="M193.2,533.1c-17.6-0.5-31.3-14.6-30.5-32.6c0.5-13.6,0.1-27.3,0.1-41c0.1-13.4,7.9-24.3,20.8-28.7
		c3-1,4-2.5,4.7-5.5c4.7-20.9,9.6-41.8,14.6-62.7c2.9-11.9,12-19,24.2-19c47.2-0.1,94.3,0,141.5,0c12.5,0,21.6,7.5,24.5,20
		c4.7,20.4,9.5,40.8,14,61.3c0.7,3.3,2.1,4.9,5.4,6.1c12.5,4.3,20.2,15.2,20.4,28.5c0.2,14.5,0.3,29,0,43.5
		c-0.3,16.7-12.8,28.8-30.6,30.1c-1.7,1.3-3.7,1.4-5.7,1.5c-10.3,0-20.6,0-30.9,0c-2,0-4-0.2-5.7-1.5c-36.9-0.1-73.8-0.1-110.6-0.1
		c-4.5,0-9,0.1-13.4,0.1c-1.5,1.4-3.3,1.4-5.1,1.4c-10.8,0.1-21.5,0.1-32.3,0C196.5,534.5,194.6,534.5,193.2,533.1z"/>
	<path class="st1" d="M431,265.9c0,4.2,0.1,8.3,0.1,12.5c-0.1,12.5-8.2,20.5-20.8,20.5c-30.2,0.1-60.3,0.1-90.5,0.1
		c-45,0-90,0-134.9,0c-12.2,0-20.7-8.3-20.9-20.6c-0.1-4.2,0-8.3,0-12.5c-2.4-5-2.4-9.9,0-14.9c0-4.2,0-8.3,0-12.5
		c0-11,9.2-20.5,20.2-20.5c74.8,0,149.5,0.1,224.3-0.1c14.4,0,23.9,9.6,22.8,22.9c-0.3,3.3-1,7,0.9,10.2
		C432.6,256.1,433.4,261.1,431,265.9z"/>
	<path class="st1" d="M514.9,326c3.5,0,7,0.1,10.5,0.1c13.9,0.1,22.4,8.4,22.4,22.4c0.1,35.3,0,70.6,0,105.9c0,15.2,0,30.3,0,45.5
		c0,15.1-7.9,23-23.1,23.1c-9.6,0.1-9.6,0.1-9.6,9.8c0,10,0,20,0,30c-3.4-0.5-2.5-3.4-2.6-5.4c-0.2-8.7-0.1-17.5-0.1-26.3
		c0-6.2-0.2-6.4-6.4-6.6c-2.1-0.1-4.3,0-6.1-1.6c-4.3,0-8.7,0.1-13,0c-11.7-0.1-20-8.5-20-20.3c0-51.6,0-103.2,0-154.9
		c0-13.1,8.4-21.5,21.5-21.7c3.8-0.1,7.7-0.1,11.5-0.1C505,323.6,509.9,323.6,514.9,326z"/>
	<path class="st1" d="M80,562.9c0-11.6-0.1-23.3,0.2-34.9c0.1-4.1-1.3-5.1-5.1-5c-6.6,0.2-13.3,0.7-19.1-3.9c-5-4-8-8.9-8-15.3
		c0-52.8-0.1-105.5,0-158.3c0-10.7,8.6-18.8,20-19.4c3.8-0.2,8.8,1.6,11-0.8c2.6-2.9,0.6-7.9,1-12c0.4-4.1-0.8-8.3,0.8-12.3
		c1.8,1.5,1.6,3.6,1.6,5.5c0.1,4.2,0,8.3,0.1,12.5c0.1,4.9,0.8,5.5,5.5,5.5c4.6,0,5.3-0.6,5.4-5.7c0.1-4.3-0.1-8.7,0.1-13
		c0.1-1.9-0.3-4.2,2.3-4.9c0.1,7.2,0.2,14.3,0.2,21.5c0,2.8,0.8,4,3.7,3.8c2.8-0.2,5.7-0.1,8.5,0c11.2,0.3,19.6,8.2,19.8,19.5
		c0.3,11.2,0.1,22.5,0.1,33.7c0,14.7,0,29.5,0,44.2c0,13.6,0,27.1,0,40.7c0,12.9,0.1,25.8,0,38.7c-0.1,12.3-7.8,19.9-20,20.1
		c-12.1,0.1-12.1,0.1-12.1,12.4c0,9.2,0,18.3,0,27.5c-3.5-0.6-2.5-3.5-2.5-5.5c-0.3-9,0-17.9-0.1-26.9c-0.1-5.2-0.8-5.8-5.6-5.9
		c-3.9-0.1-5.3,1.7-5.2,5.4c0.1,9,0.1,17.9-0.1,26.9C82.4,559,83.3,561.9,80,562.9z"/>
	<path class="st2" d="M514.9,326c-5,0-10,0-14.9,0c-0.4-9.3,0.8-18.6-0.8-27.9c-3.2-18.2-19.3-32-37.8-32.1
		c-10.1-0.1-20.3-0.1-30.4-0.1c0.9-4.9-1-10,1.1-14.8c11.6,0.4,23.3-0.8,34.9,0.6c27.5,3.4,47.6,26.1,47.9,53.8
		C514.9,312.3,514.9,319.1,514.9,326z"/>
	<path class="st2" d="M193.2,533.1c14.2,0,28.4,0,42.6,0c0,9.7,0.2,19.3,0.1,29c-0.1,9.1-6.8,15.7-15.9,15.8c-3.7,0.1-7.3,0.1-11,0
		c-9.2-0.2-15.7-6.7-15.8-15.8C193,552.4,193.1,542.8,193.2,533.1z"/>
	<path class="st2" d="M95.9,300.9c-1.7,6.7-0.6,13.5-0.7,20.2c0,3.7-0.6,5.3-4.8,5.1c-9.4-0.3-9.3,0-9.3-9.5
		c0-5.3-0.1-10.6-0.2-15.9c2.5-28.2,25.6-49.6,53.8-49.8c9.8-0.1,19.6,0,29.4,0c0,5,0,9.9,0,14.9c-10.3,0-20.6-0.1-30.9,0.1
		C114.1,266.4,97.6,281.9,95.9,300.9z"/>
	<path class="st2" d="M359.8,533.1c14.1,0,28.2,0,42.3,0c0,9.8,0.2,19.7,0,29.5c-0.1,8.7-6.5,15-15.2,15.3c-4,0.2-8,0.2-12,0
		c-8.7-0.3-15-6.5-15.2-15.3C359.6,552.8,359.8,542.9,359.8,533.1z"/>
	<path class="st2" d="M80,562.9c2-1.1,1-3,1-4.4c0.1-10.3,0.2-20.6,0-30.9c-0.1-3.2,0.5-4.7,4.3-4.6c9.8,0.1,9.8-0.1,9.8,10
		c0,8.5-0.1,16.9,0,25.4c0,1.5-0.9,3.3,1,4.5c6,0.1,12,0.3,17.9,0.2c2.3,0,3.1,0.5,3.3,3c0.7,11.9,0.8,11.9-11.2,11.9
		c-14.3,0-28.6,0-42.9,0.1c-2.9,0-4.4-0.3-4.3-3.9c0.1-11.1-0.1-11.1,11.1-11.1C73.3,563.1,76.6,563,80,562.9z"/>
	<path class="st2" d="M500,523c3,0,6,0.4,9,0c4.7-0.6,5.5,1.4,5.4,5.6c-0.3,9.8-0.1,19.7-0.1,29.5c0,1.6-0.7,3.4,0.8,4.7
		c6,0.1,11.9,0.3,17.9,0.3c2.6,0,3.3,0.9,3.4,3.4c0.4,11.5,0.5,11.5-11.1,11.5c-14.5,0-28.9-0.1-43.4,0.1c-3,0-3.9-0.7-3.9-3.9
		c0-11.1-0.2-11.1,11.1-11.1c10.9,0,10.9,0,10.9-10.7C499.9,542.6,500,532.8,500,523z"/>
	<path class="st3" d="M297.7,425.1c-26.3,0-52.6-0.1-78.9,0.1c-4.2,0-4.9-0.9-3.8-5c3.9-15.8,7.6-31.7,11.1-47.5c0.7-3,2-3.8,5-3.8
		c44.3,0.1,88.6,0,132.8-0.1c3.2,0,4.6,0.8,5.3,4.2c3.4,15.9,7.1,31.8,11,47.6c1,4,0.2,4.7-3.7,4.7
		C350.3,425.1,324,425.1,297.7,425.1C297.7,425.1,297.7,425.1,297.7,425.1z"/>
	<path class="st1" d="M298,504c-11.8,0-23.7-0.1-35.5,0.1c-4,0.1-5.7-0.9-5.6-5.3c0.3-10.7,0.2-21.3,0-32c-0.1-3.9,1.5-5.3,5.1-5.8
		c23.9-3.3,47.7-3.1,71.6,0c3.2,0.4,4.6,1.7,4.5,5.1c-0.2,11.2-0.2,22.3,0,33.5c0.1,3.7-1.4,4.4-4.7,4.4
		C321.7,503.9,309.8,504,298,504z"/>
	<path class="st4" d="M192,480.9c0.1-10.7,8.8-19.1,19.6-19c10.4,0.1,19.1,8.8,19.2,19.1c0,10.5-9.3,19.8-19.8,19.7
		C200.4,500.5,191.9,491.7,192,480.9z"/>
	<path class="st4" d="M403.3,481.4c0,10.7-9,19.5-19.4,19.2c-10.5-0.3-18.9-8.8-18.9-19.4c0-10.7,8.6-19.4,19.3-19.4
		C395.2,462,403.3,470.3,403.3,481.4z"/>
</g>
</svg>
