<?xml version="1.0" encoding="utf-8"?>
<!-- Generator: Adobe Illustrator 19.0.0, SVG Export Plug-In . SVG Version: 6.00 Build 0)  -->
<svg version="1.1" id="Calque_1" xmlns="http://www.w3.org/2000/svg" xmlns:xlink="http://www.w3.org/1999/xlink" x="0px" y="0px"
	 viewBox="0 0 612 792" style="enable-background:new 0 0 612 792;" xml:space="preserve">
<style type="text/css">
	.st0{fill:#ED3E42;}
	.st1{fill:#6E6E6D;}
	.st2{fill:#3C3C3B;}
	.st3{fill:#DAEFF5;}
	.st4{fill:#B0B0B0;}
	.st5{fill:#FDEC00;}
</style>
<g>
	<path class="st0" d="M363.8,382.3c-36.1-0.1-72.3-0.1-108.4-0.2c-8.5,0-17,0.1-25.5,0.1c-1.6,1.5-3.6,1.5-5.6,1.5
		c-11.6,0.1-23.2,0.1-34.8,0c-2,0-4-0.2-5.7-1.5c-21.4-2.3-32.8-14.8-32.9-36.4c-0.1-14-0.1-28,0-42c0.1-16.2,8.2-27.6,23.5-32.7
		c2.5-0.8,3.3-2.1,3.8-4.5c5.2-22.7,10.4-45.4,15.8-68c3.2-13.6,13.5-21.6,27.4-21.6c50.3,0,100.6,0,150.9,0
		c14.1,0,24.5,8.3,27.6,22c5.1,22.4,10.2,44.7,15.3,67.1c0.5,2.2,1,4.1,3.9,5c14.3,4.4,23.3,16.2,23.6,31.2
		c0.3,15.8,0.3,31.7,0,47.5c-0.4,17.8-13.8,30.8-32.9,32.4c-1.7,1.7-4,1.5-6.1,1.5c-11.3,0.1-22.5,0-33.8,0
		C367.7,383.8,365.6,383.7,363.8,382.3z"/>
	<path class="st1" d="M100.3,455.2c0-57.1,0.1-114.3-0.1-171.4c0-5,1.4-6.2,6.1-5.9c6.1,0.4,12.3,0.4,18.5,0
		c4.1-0.2,5.4,0.9,5.3,5.1c-0.2,20.8-0.1,41.6-0.1,62.5c0,30.8,0.1,61.6-0.1,92.5c0,4.7,1,6.2,5.9,6.1c32.5-0.2,65-0.1,97.5-0.2
		c4.5,0,6.1,1,5.8,5.7c-0.4,6.3-0.4,12.7,0,19c0.3,4.2-1.4,4.9-5.1,4.8c-32.3-0.1-64.6-0.1-97-0.1c-7,0-7,0-7,7.2
		c0,48.8,0,97.6,0.1,146.4c0,4-0.8,5.6-5.1,5.3c-6.6-0.4-13.3-0.3-20,0c-3.7,0.2-4.8-0.8-4.8-4.6c0.1-31.2,0-62.3,0-93.5
		C100.3,507.9,100.3,481.5,100.3,455.2C100.3,455.2,100.3,455.2,100.3,455.2z"/>
	<path class="st1" d="M493.1,455.7c0,57-0.1,114,0.1,171c0,4.7-1.3,5.9-5.8,5.6c-6.6-0.4-13.3-0.2-20,0c-3,0.1-3.9-0.6-3.9-3.8
		c0.1-49.5,0.1-99,0.1-148.5c0-6.6,0-6.6-6.8-6.6c-32.2,0-64.3-0.1-96.5,0.1c-4.6,0-6-1.3-5.7-5.8c0.4-6.1,0.4-12.3,0-18.5
		c-0.2-4.1,1-5.3,5.2-5.3c32.3,0.2,64.6,0.1,97,0.1c6.8,0,6.8,0,6.8-6.6c0-51.3,0.1-102.6-0.1-154c0-4.4,1.1-5.8,5.5-5.5
		c6.5,0.4,13,0.4,19.5,0c3.9-0.2,4.6,1.3,4.6,4.8c-0.1,41.3-0.1,82.6-0.1,124C493.1,423,493.1,439.4,493.1,455.7z"/>
	<path class="st2" d="M183.8,382.3c15.3,0,30.7,0,46,0c0,10,0,19.9,0,29.9c-0.1,11.4-6.8,18.1-18.4,18.2c-3.7,0-7.3,0.1-11,0
		c-9.8-0.3-16.5-6.9-16.7-16.7C183.6,403.2,183.8,392.7,183.8,382.3z"/>
	<path class="st2" d="M363.8,382.3c15.3,0,30.7,0,46,0c0,10,0.1,19.9,0,29.9c-0.1,11.5-6.8,18.1-18.3,18.2c-3.7,0-7.3,0.1-11,0
		c-9.9-0.3-16.5-6.8-16.7-16.7C363.6,403.2,363.7,392.8,363.8,382.3z"/>
	<path class="st3" d="M206.2,264.7c4.5-19.1,9.2-38.2,13.5-57.3c0.8-3.4,2.8-3,5.1-3c41,0,82-0.1,123-0.1c7.2,0,14.3,0.2,21.5-0.1
		c3-0.1,4,1.1,4.6,3.8c4.1,18,8.2,36,12.5,53.9c0.7,2.8,0.1,3.4-2.7,3.4c-58.8-0.1-117.6-0.1-176.4-0.2
		C207.2,265.2,207,265,206.2,264.7z"/>
	<path class="st4" d="M296.7,350.4c-13,0-26-0.1-39,0.1c-3.7,0.1-4.9-1.1-4.8-4.8c0.2-12.2,0.2-24.3,0-36.5c0-3.1,1.1-4.6,4.2-4.9
		c14.9-1.3,29.7-3.9,44.7-3c11.6,0.7,23.2,2,34.8,3c2.8,0.2,4.2,1.7,4.2,4.5c0,12.5-0.1,25,0,37.5c0,3.4-1.6,4.2-4.7,4.2
		C323,350.3,309.8,350.4,296.7,350.4z"/>
	<path class="st5" d="M182.8,325.7c0.1-11.9,9-20.8,20.9-20.6c11.6,0.1,20.5,9,20.5,20.6c0,11.9-9.6,21.4-21.3,21.1
		C191.6,346.6,182.7,337.2,182.8,325.7z"/>
	<path class="st5" d="M390.4,305.1c11.3,0,20.5,9.3,20.5,20.7c0,11.3-9.3,20.9-20.4,21c-11.7,0.1-21.5-9.5-21.4-21.1
		C369.2,314.3,378.7,305.1,390.4,305.1z"/>
</g>
</svg>
