<?xml version="1.0" encoding="utf-8"?>
<!-- Generator: Adobe Illustrator 19.0.0, SVG Export Plug-In . SVG Version: 6.00 Build 0)  -->
<svg version="1.1" id="Calque_1" xmlns="http://www.w3.org/2000/svg" xmlns:xlink="http://www.w3.org/1999/xlink" x="0px" y="0px"
	 viewBox="0 0 612 792" style="enable-background:new 0 0 612 792;" xml:space="preserve">
<style type="text/css">
	.st0{fill:#8596CA;}
	.st1{fill:#EEC319;}
	.st2{fill:#485C87;}
	.st3{fill:#485C88;}
	.st4{fill:#8596C9;}
</style>
<g>
	<path class="st0" d="M481,694c-114.3,0-228.7,0-343,0c-1-0.9-2.2-0.5-3.3-0.8c-7.2-1.5-8.4-2.8-9.9-9.9c-0.2-1.1,0.1-2.4-0.8-3.3
		c0-161.3,0-322.7,0-484c0.9-1,0.5-2.2,0.8-3.3c1.5-7.2,2.8-8.4,9.9-9.9c1.1-0.2,2.4,0.1,3.3-0.8c114.3,0,228.7,0,343,0
		c11.7,2.8,15.4,7.4,15.4,19.6c0,157.4,0,314.9,0,472.3c0,0.7,0-0.2,0,0.5C496.2,686.6,492.6,691.2,481,694z"/>
	<path class="st1" d="M309.4,235c69-0.2,132.1,55,132,132.5c-0.1,74.8-59.4,131.7-131.8,132.3C237.2,500.5,177,440.4,177,368.7
		C177,294.2,235.6,235.1,309.4,235z"/>
	<path class="st2" d="M265.5,579.1c-25,0-50,0-74.9,0c-1.5,0-3,0.1-4.5,0c-5.2-0.3-9-3.9-9.1-8.7c-0.1-4.9,3.5-8.5,9-8.5
		c12.5-0.1,25-0.1,37.5-0.1c39.5,0,78.9,0,118.4,0c2.7,0,5.4-0.2,7.7,1.5c3.4,2.5,4.2,6,3.1,9.8c-1.1,4-4.1,5.9-8.3,5.9
		c-9.7,0-19.3,0-29,0C298.8,579.1,282.2,579.1,265.5,579.1z"/>
	<path class="st2" d="M256.6,597c22.3,0,44.6,0,66.9,0c7.9,0,12.1,3,12.2,8.6c0,5.7-4.6,9.2-12.4,9.2c-38.8,0-77.6,0-116.3,0
		c-6.7,0-13.3,0.2-20-0.1c-6.4-0.3-10-3.9-9.9-9c0.1-5.3,4.2-8.6,10.6-8.7C210.6,596.9,233.6,597,256.6,597
		C256.6,597,256.6,597,256.6,597z"/>
	<path class="st3" d="M247.4,650c-20,0-40,0.1-60,0c-6.9,0-11.3-4.7-10.2-10.5c0.8-4.5,4.7-7.3,10.5-7.3c23.3-0.1,46.7,0,70,0
		c16.7,0,33.3,0,50,0.1c7.1,0,11.7,5.2,10.1,11c-1.1,4.3-4.8,6.8-10.4,6.9C287.4,650,267.4,650,247.4,650z"/>
	<path class="st0" d="M272.4,259.6c-8.2,13.2-13.6,27.4-17.3,42.3c-4.3,17-6.7,34.3-7.1,51.8c-0.1,4-1.4,5.1-5.2,5
		c-14.5-0.2-29-0.1-43.5,0c-3,0-4.6-0.4-4.1-4.1c6.7-45.2,31-76.6,73-94.4c0.9-0.4,1.9-0.7,2.8-0.9
		C271.3,259.1,271.7,259.4,272.4,259.6z"/>
	<path class="st4" d="M345.6,258.8c10.6,3.3,19.4,7.8,27.6,13.5c28,19.5,44.5,46.2,49.6,79.9c0.9,6.3,0.8,6.4-5.6,6.4
		c-13.5,0-27-0.1-40.5,0.1c-4.2,0.1-6.1-0.7-6.3-5.6c-0.9-22.5-4.2-44.7-11.5-66.1C355.6,277.4,351.3,268.3,345.6,258.8z"/>
	<path class="st0" d="M271.8,475.4c-32.4-11.6-55.3-33.2-68.8-64.7c-4.1-9.7-6.4-19.9-7.9-30.4c-0.5-3.5,0.7-4.3,3.9-4.2
		c14.7,0.1,29.3,0.2,44,0c3.8-0.1,4.7,1.3,4.8,4.9c0.9,25.3,4.9,50,14.1,73.7C264.8,461.7,268.4,468.5,271.8,475.4z"/>
	<path class="st0" d="M345.5,476c12.5-20.3,18.4-41.7,22-63.8c1.7-10.4,2.7-20.8,3-31.3c0.1-4.1,1.7-4.9,5.4-4.8
		c13.8,0.2,27.7,0.1,41.5,0.1c6.2,0,6.4,0.1,5.5,6.1c-5.5,36.2-23.7,64.1-54.8,83.5C361.4,469.9,354.4,473.3,345.5,476z"/>
	<path class="st4" d="M318.7,255.9c6.6,4.4,10.8,10.3,14.4,16.7c10.4,18.6,15.2,38.9,17.9,59.8c1,7.4,1.3,14.9,2,22.4
		c0.3,2.7-0.6,3.9-3.5,3.9c-9.3-0.1-18.6-0.1-27.9,0c-2.5,0-3.6-0.7-3.6-3.4c0.1-32.6,0.1-65.2,0.1-97.8
		C318.1,257.1,318.3,256.8,318.7,255.9z"/>
	<path class="st0" d="M318,479.3c0-22.6,0-44,0-65.5c0-11.2,0.1-22.3-0.1-33.5c-0.1-3.3,0.9-4.3,4.2-4.3c9,0.2,18,0.1,27,0
		c2.6,0,4.1,0.4,3.9,3.5c-1.7,28.6-5.8,56.6-19.8,82.3C329.6,468.4,325.3,474.5,318,479.3z"/>
	<path class="st4" d="M300.3,256.3c0,10.5,0,20.7,0,30.8c0,22.1-0.1,44.3,0.1,66.4c0,3.9-1,5.2-5,5.1c-8.6-0.3-17.3-0.1-26,0
		c-2.8,0-4.3-0.6-4.1-3.9c1.6-25.4,5.2-50.3,15.7-73.8c3.5-7.9,7.8-15.4,14.2-21.5C296.4,258.2,297.5,256.7,300.3,256.3z"/>
	<path class="st0" d="M299.7,478.7c-4.8-2.8-7.9-6.7-10.8-10.8c-10.2-14.8-15.2-31.7-18.9-49c-2.7-12.6-3.8-25.3-4.7-38.1
		c-0.2-3.3,0.4-4.9,4.2-4.8c9,0.2,18,0.2,27,0c2.7,0,3.9,0.7,3.9,3.6c-0.1,32.5-0.1,65-0.1,97.4C300.2,477.5,300,477.8,299.7,478.7z
		"/>
</g>
</svg>
