<?xml version="1.0" encoding="utf-8"?>
<!-- Generator: Adobe Illustrator 19.0.0, SVG Export Plug-In . SVG Version: 6.00 Build 0)  -->
<svg version="1.1" id="Calque_1" xmlns="http://www.w3.org/2000/svg" xmlns:xlink="http://www.w3.org/1999/xlink" x="0px" y="0px"
	 viewBox="0 0 612 792" style="enable-background:new 0 0 612 792;" xml:space="preserve">
<g>
	<path d="M155,642c0-156.7,0-313.3,0-470c3.2-10.8,10.1-17.9,21-21c111.3,0,222.7,0,334,0c15.4,5,20.8,15.9,20.7,31.7
		c-0.3,84.1-0.1,168.2-0.1,252.3c0,66.4,0,132.9,0,199.3c0,8-1.4,15.5-7.6,20.9c-3.8,3.3-8.7,5.2-13.1,7.8c-111.3,0-222.7,0-334,0
		C165.1,659.9,158.2,652.8,155,642z M342.7,210.8C272.1,210.9,215,268,214.9,338.6c-0.1,70.9,57.6,128.5,128.5,128.2
		c70-0.2,127.7-58.2,127.5-127.9C470.6,267.9,413.4,210.7,342.7,210.8z M299.4,543.6c24.5,0,48.9,0,73.4,0c1.7,0,3.3,0.1,5-0.2
		c4.6-0.6,7.6-4,7.6-8.4c0-4.4-3-7.7-7.7-8.4c-1.5-0.2-3-0.2-4.5-0.2c-48.8,0-97.5,0-146.3,0c-1.8,0-3.7,0-5.5,0.4
		c-4.2,1-6.6,3.8-6.5,8.2c0,4.4,2.3,7.2,6.6,8.1c1.8,0.4,3.6,0.4,5.5,0.4C251.2,543.6,275.3,543.6,299.4,543.6z M292,560.7
		c-14.7,0-29.3,0-44,0c-8.3,0-16.7-0.1-25,0.1c-4.7,0.1-7.9,3.5-8,7.9c-0.2,4.5,2.6,8,7.1,8.8c1.3,0.2,2.6,0.2,4,0.2c26,0,52,0,78,0
		c18,0,36,0,54,0c4.7,0,8.6-1.4,10-6.4c1.6-6-2.5-10.6-9.6-10.6C336.3,560.6,314.1,560.7,292,560.7z M283.5,594.8c-2.3,0-4.7,0-7,0
		c-17.3,0-34.6,0-52,0c-6.8,0-10.8,4.5-9.5,10.3c0.9,4.2,4.5,6.7,9.9,6.7c17.7,0,35.3,0,53,0c21,0,42,0,63,0c6.1,0,9.6-2.6,10.3-7.3
		c0.8-5.8-3-9.8-9.6-9.8C322.2,594.8,302.8,594.8,283.5,594.8z"/>
	<path d="M378.4,443.2c17.6-29.9,22.5-62.3,24.1-95.7c17,0,33.5,0,50.1,0C452.5,385,421.9,430,378.4,443.2z"/>
	<path d="M232.9,347.5c16.5,0,33.1,0,50.1,0c1.7,33.3,6.4,65.9,23.9,95.3C273.2,438.8,230.5,383.7,232.9,347.5z"/>
	<path d="M307.2,234.3c-17.6,29.5-22.4,62-24.1,95.5c-17,0-33.7,0-50.4,0C234.5,287.7,266.8,246,307.2,234.3z"/>
	<path d="M452.9,329.9c-16.9,0-33.5,0-49.4,0c-2.5-16.7-4.4-33.2-7.4-49.5c-3-16.3-8.9-31.7-17.8-45.9
		C412,238.3,453,290.5,452.9,329.9z"/>
	<path d="M351.6,446c0-32.8,0-65.5,0-98.5c11.1,0,22,0,32.8,0C390,375.7,369.6,437.5,351.6,446z"/>
	<path d="M353,230.6c3.9,4.8,8.4,9.3,11.6,14.6c9.7,15.7,14.4,33.2,17.3,51.2c1.7,10.9,2.6,22,3.9,33.5c-12,0-22.9,0-34.2,0
		c0-32.7,0-65.4,0-98.1C352.1,231.3,352.6,231,353,230.6z"/>
	<path d="M334,347.5c0,33.1,0,65.6,0,98.2c-0.4,0.3-0.7,0.5-1.1,0.8c-3-3.1-6.3-6-8.8-9.4c-10.3-14-15.5-30.1-18.7-46.9
		c-2.5-13.2-3.4-26.7-5-40c-0.1-0.8,0.1-1.6,0.2-2.7C311.8,347.5,322.6,347.5,334,347.5z"/>
	<path d="M334,231.6c0,32.6,0,65.1,0,98.1c-11,0-22,0-33.9,0c3.1-35.6,6.1-70.9,32.1-98.7C332.7,231.2,333.4,231.4,334,231.6z"/>
</g>
</svg>
