<?xml version="1.0" encoding="utf-8"?>
<!-- Generator: Adobe Illustrator 19.0.0, SVG Export Plug-In . SVG Version: 6.00 Build 0)  -->
<svg version="1.1" id="Calque_1" xmlns="http://www.w3.org/2000/svg" xmlns:xlink="http://www.w3.org/1999/xlink" x="0px" y="0px"
	 viewBox="0 0 612 792" style="enable-background:new 0 0 612 792;" xml:space="preserve">
<g>
	<path d="M139,633c-0.9-0.4-1.8-0.8-2.7-1.2c-11.5-4.2-18.5-14-18.5-26.3c0-72.3,0-144.7,0-217c0-2.1,0-4.3,0-7.8
		c-2.9,2.8-4.9,4.9-7.1,6.8c-15.8,14.4-42.8,7.7-48.2-12c-3.2-11.8-0.9-22.7,7.9-31.4c71-71.3,142.2-142.6,213.3-213.7
		c12.3-12.3,31.1-11.7,43.8,1.1c40.5,40.6,81,81.2,121.5,121.7c30.1,30.2,60.3,60.4,90.4,90.6c7.5,7.5,10.3,16.6,9.2,26.9
		c-1.2,10.9-7,18.7-17.4,22.3c-11.3,4-22,2.7-31.4-5.3c-2.2-1.9-3.7-4.7-5.5-7c-0.6,0.4-1.3,0.8-1.9,1.2c0,1.7,0,3.5,0,5.2
		c0,71-0.3,142,0.2,213c0.1,15.8-4.7,26.7-21.6,32.9C360.3,633,249.7,633,139,633z M305,616C305,616,305,615.9,305,616
		c53.2,0,106.3,0,159.5,0c9,0,10.8-1.8,10.8-10.8c0-78.7,0-157.3,0.1-236c0-4-1.3-6.8-4.1-9.6c-48.6-48.5-97.1-97.2-145.6-145.8
		c-4.2-4.2-8.4-8.6-12.8-12.7c-5.5-5.1-10.4-5-15.9-0.1c-1.1,1-2.2,2.1-3.2,3.1C242.3,256,190.6,307.8,138.8,359.5
		c-3,3-4.1,5.9-4.1,10c0.1,77.8,0.1,155.7,0.1,233.5c0,12,1,13,13.2,13C200.3,616,252.6,616,305,616z M519.2,380.2
		c3.2-1.3,5.3-1.8,7-3c8.5-5.7,8.9-13.7,1.2-21.4c-70.5-70.6-141-141.3-211.5-211.9c-8.7-8.7-12.9-8.7-21.7,0
		c-70,70.2-140.1,140.3-210.1,210.5c-1.5,1.5-3.1,3.1-4.3,4.8c-3.7,5.1-3.4,9.9,0.5,14.6c5.6,6.8,12.4,7.3,18.9,1
		c7.6-7.5,15-15.2,22.5-22.7c53.7-53.8,107.3-107.5,161-161.3c13.1-13.1,31.7-13.1,44.8,0c33.8,33.8,67.6,67.6,101.4,101.5
		c26.9,27,53.8,54.1,80.8,81.1C512.4,376.2,516.2,378.1,519.2,380.2z"/>
	<path d="M339.1,488.2c-22.8,0-45.1,0-68.1,0c0,1.9,0,3.6,0,5.4c0,25.7,0,51.3,0,77c0,8.5-2.8,11.3-11.5,11.3c-15.2,0-30.3,0-45.5,0
		c-8.3,0-11.1-2.8-11.1-11.1c0-78,0-155.9,0-233.9c0-8.3,2.7-11,11.1-11c15.5,0,31,0,46.5,0c7.7,0,10.5,2.9,10.5,10.6
		c0,24.7,0,49.3,0,74c0,2.8,0,5.6,0,8.9c22.6,0,45,0,67.8,0c0.1-1.8,0.2-3.6,0.2-5.3c0-25.7,0-51.3,0-77c0-8.4,2.7-11.1,11-11.2
		c15.8,0,31.7-0.1,47.5,0c6.6,0,9.8,3.3,9.8,9.9c0,77.6-0.1,155.3-0.1,232.9c0,11-2.2,13.2-13,13.2c-14.7,0-29.3,0-44,0
		c-8.2,0-11.1-2.9-11.1-11.2c0-24.3,0-48.6,0-73C339.1,494.7,339.1,491.7,339.1,488.2z M356.1,343.2c0,2.2,0,4,0,5.8
		c0,25.5,0,51,0,76.5c0,8.6-2.7,11.3-11.4,11.3c-26.3,0-52.6,0-79,0c-9.1,0-11.8-2.7-11.7-12c0-25,0-50,0-75c0-2.1,0-4.2,0-6.6
		c-11.6,0-22.6,0-33.8,0c0,73.9,0,147.4,0,221.2c11.3,0,22.4,0,33.8,0c0-2.2,0-4,0-5.8c0-25.7,0-51.3,0-77c0-8,2.8-10.7,10.9-10.7
		c26.7,0,53.3,0,80,0c8.7,0,11.3,2.7,11.3,11.3c0,25.5,0,51,0,76.5c0,1.9,0,3.8,0,5.8c11.8,0,22.7,0,33.8,0c0-73.9,0-147.4,0-221.3
		C378.7,343.2,367.8,343.2,356.1,343.2z"/>
</g>
</svg>
