<?xml version="1.0" encoding="utf-8"?>
<!-- Generator: Adobe Illustrator 19.0.0, SVG Export Plug-In . SVG Version: 6.00 Build 0)  -->
<svg version="1.1" id="Calque_1" xmlns="http://www.w3.org/2000/svg" xmlns:xlink="http://www.w3.org/1999/xlink" x="0px" y="0px"
	 viewBox="0 0 612 792" style="enable-background:new 0 0 612 792;" xml:space="preserve">
<g>
	<path d="M49,467c0-58.3,0-116.7,0-175c7.2-17.1,13.6-21.3,32.3-21.3c28.8,0,57.6-0.1,86.5,0.1c3.8,0,6.4-1.1,9.1-4
		c22.5-24.4,49.8-40.9,81.9-49.2c9.6-2.5,19.5-3.8,29.3-5.6c8.7,0,17.3,0,26,0c1.1,0.3,2.2,0.7,3.3,0.9
		c42.6,4.6,78.5,22.8,107.7,54.1c2.5,2.7,5,3.8,8.6,3.8c30.3-0.1,60.6,0.4,90.9-0.3c15-0.4,28.4,12.6,28.3,28.3
		c-0.4,53.8-0.4,107.6,0,161.4c0.1,15.2-12.9,28.7-28.3,28.3c-30.5-0.7-61-0.3-91.4,0c-2.6,0-5.9,1.4-7.6,3.3
		c-22.4,23.9-49.2,40.6-80.8,49.1c-10.1,2.7-20.5,4.1-30.7,6.1c-8.7,0-17.3,0-26,0c-0.9-0.3-1.9-0.7-2.8-0.8
		c-43.1-4.5-79.2-22.8-108.7-54.4c-2.4-2.5-4.8-3.6-8.2-3.6c-30.8,0.1-61.6,0.1-92.5,0c-11.4,0-20.9-6.5-25.2-17.2
		C50.1,469.8,49.5,468.4,49,467z M535.9,379.9c0-27,0-54,0-81c0-9.9-1.7-11.6-11.7-11.6c-32.3,0-64.7,0-97,0
		c-4.2,0-7.6-0.9-10.5-4.4c-61.3-72.1-168.8-72.7-230.6-1.3c-3.7,4.2-7.5,5.8-12.9,5.7c-31.8-0.2-63.7-0.1-95.5-0.1
		c-10.3,0-11.8,1.5-11.8,11.9c0,53.7,0,107.3,0,161c0,10,1.6,11.6,11.6,11.6c31.2,0,62.3,0.1,93.5-0.1c7-0.1,11.8,1.8,16.7,7.4
		c60.2,69.2,168.6,68.4,227.9-1.6c3.5-4.1,7.1-5.8,12.4-5.8c32.2,0.2,64.3,0.1,96.5,0.1c9.6,0,11.4-1.8,11.4-11.3
		C535.9,433.5,535.9,406.7,535.9,379.9z"/>
	<path d="M82.7,379.5c0-18.7,0-37.3,0-56c0-12,7.5-19.4,19.7-19.4c27.3,0,54.7-0.1,82,0.1c3.5,0,5.8-1,7.9-3.8
		c21-27.4,48.1-45.7,82.1-52c52.2-9.6,96,6.7,130.5,46.9c5.5,6.4,10.6,9.2,19.1,9c25.2-0.6,50.3-0.2,75.5-0.2
		c12.1,0,19.5,7.6,19.5,19.7c0,37.2-0.4,74.3,0.2,111.5c0.2,11.1-9.9,20.1-19.7,19.9c-27.3-0.5-54.7-0.1-82-0.3
		c-3.7,0-6.1,1-8.4,3.9c-20,26.2-45.9,44.2-78.3,51c-54.1,11.4-99.3-5.1-134.9-47c-4.9-5.8-9.5-8.2-17-8.1
		c-25.5,0.5-51,0.2-76.5,0.2c-12.5,0-19.7-7.4-19.7-19.9C82.7,416.5,82.7,398,82.7,379.5z M99.6,438.1c2.2,0,3.9,0,5.5,0
		c28.5,0,57,0.1,85.5,0c4.8,0,8.2,1.6,11.1,5.4c3.2,4.3,6.6,8.4,10.1,12.4c38.4,45.2,106.2,54.3,155.1,20.8
		c13-8.9,23.3-20.4,32.7-32.7c3.2-4.2,6.9-6,12.3-6c28.2,0.2,56.3,0.1,84.5,0.1c1.8,0,3.5,0,5.4,0c0-39.4,0-78.1,0-117.1
		c-2.7,0-5,0-7.3,0c-27.5,0-55-0.1-82.5,0.1c-5.4,0-9.2-1.7-12.3-5.9c-3.5-4.7-7.3-9.1-11.1-13.5c-34.7-39.6-93.5-50.8-140.5-27.1
		c-19.1,9.7-33.7,24.2-46.4,41c-3,3.9-6.5,5.6-11.5,5.5c-28.2-0.2-56.3-0.1-84.5-0.1c-1.9,0-3.9,0-6,0
		C99.6,360.2,99.6,398.8,99.6,438.1z"/>
	<path d="M275.8,405.1c0,15.6,0,30.7,0,45.9c0,10-2.3,12.2-12.4,12.2c-9.3,0-18.7,0.1-28,0c-7.1-0.1-10.1-3-10.1-10c0-49,0-98,0-147
		c0-7.5,2.9-10.3,10.3-10.3c9.8,0,19.7,0,29.5,0c7.8,0,11,3.6,10.9,11.4c-0.2,15.5,0,30.9,0,46.7c16.7,0,33.1,0,50.1,0
		c0-5.9,0-11.6,0-17.4c0-10.2,0-20.3,0-30.5c0-7.3,2.9-10.2,10.3-10.2c10.3,0,20.7-0.1,31,0c5.7,0.1,9.4,3.8,9.4,9.4
		c-0.1,22-0.3,44-0.4,66c-0.1,26.8,0,53.7,0,80.5c0,9.1-2.4,11.4-11.6,11.4c-9.7,0-19.3,0.1-29,0c-6.7-0.1-9.7-3.1-9.7-9.8
		c0-16,0-31.9,0-48.3C309.3,405.1,292.9,405.1,275.8,405.1z M342.9,312.5c0,2.2,0,3.8,0,5.4c0,14.3,0,28.7,0,43
		c0,7.1-3,10.1-10,10.1c-21.5,0.1-43,0.1-64.5,0c-6.4,0-9.4-3.1-9.5-9.6c0-14.2,0-28.3,0-42.5c0-2,0-3.9,0-6c-5.9,0-11.2,0-16.5,0
		c0,44.7,0,88.9,0,133c5.6,0,10.9,0,16.5,0c0-16.3,0-32.1,0-47.9c0-7.5,2.8-10.2,10.3-10.2c21,0,42,0,63,0c7.7,0,10.9,3.2,10.8,10.9
		c-0.1,14.3-0.1,28.7-0.1,43c0,1.4,0.2,2.9,0.3,4.6c3.7,0,7.1-0.3,10.4,0.1c4.7,0.5,6.2-1,6.2-6c-0.2-39-0.1-78-0.1-117
		c0-2.7,0.3-5.4-0.1-8c-0.2-1.2-1.7-2.9-2.8-3C352.3,312.3,347.9,312.5,342.9,312.5z"/>
</g>
</svg>
