<?xml version="1.0" encoding="utf-8"?>
<!-- Generator: Adobe Illustrator 19.0.0, SVG Export Plug-In . SVG Version: 6.00 Build 0)  -->
<svg version="1.1" id="Calque_1" xmlns="http://www.w3.org/2000/svg" xmlns:xlink="http://www.w3.org/1999/xlink" x="0px" y="0px"
	 viewBox="0 0 612 792" style="enable-background:new 0 0 612 792;" xml:space="preserve">
<style type="text/css">
	.st0{fill:#8A9ABF;}
</style>
<path class="st0" d="M581.4,188.6c0-1.7-0.1-3.3,0-5c0.1-4.1-1.3-7.8-3.1-11.5c-4.2-8.5-11.6-11.4-20.3-12.2c-153.7,0-307.3,0-461,0
	c-6.2,1-12.1,2.1-16.5,7.6c-3.2,4.1-3.1,8.9-4.5,13.4c0,153.7,0,307.3,0,461c1.4,4.5,1.3,9.3,4.5,13.4c4.4,5.5,10.3,6.6,16.5,7.6
	c153.7,0,307.3,0,461,0c8.2-0.9,15.4-3.5,19.9-11.4c3.1-5.5,3.6-11.3,3.6-17.3C581.4,485.8,581.4,337.2,581.4,188.6z M302.5,238.2
	c6.3,0.3,9-1.9,11-7.7c4.1-11.6,9.1-22.8,13.9-34.8c3.1,4.3,4,8.7,5.7,12.8c3.5,8.3,6.8,16.6,10,25.1c1.2,3.2,2.9,4.6,6.5,4.5
	c13.3-0.2,26.7-0.1,40-0.1c1.8,0,3.6,0,5.9,0c-0.9,2.4-2.6,3.3-3.9,4.4c-11.1,9-22.2,18.1-33.6,26.8c-3.2,2.5-4.2,4.6-2.8,8.7
	c4.6,12.8,8.8,25.8,13.1,38.8c0.6,1.8,1.7,3.6,1.3,6.2c-5.1-2.5-8.8-6.5-13-9.8c-8.6-6.6-17-13.4-25.4-20.3
	c-2.6-2.2-4.4-2.4-7.2-0.1c-11,9.1-22.3,18-33.5,27c-1.6,1.3-3.3,2.6-6.2,4.8c3.3-9.9,6-18.4,8.9-26.9c2.2-6.6,4.2-13.3,6.8-19.8
	c1.5-3.8,0.7-6-2.5-8.4c-11.7-9.1-23.2-18.4-34.8-27.7c-1-0.8-2-1.7-4.2-3.7C274.3,238,288.4,237.6,302.5,238.2z M416.9,628.3
	c-13.7-0.4-27.3-0.2-41-0.1c-3.7,0.1-4.9-1.1-4.9-4.8c0.1-28.2-0.1-56.3,0.1-84.5c0-4.8-1.2-6.2-6.1-6.2c-25.3,0.2-50.6,0.2-76,0.1
	c-4.1,0-5,1.4-5,5.2c0.1,27.7,0.1,55.3,0.1,83c0,7.2,0,7.2-7.4,7.2c-12.8,0-25.7-0.2-38.5,0.1c-4.7,0.1-6.3-1-6.3-6
	c0.2-51.8,0.1-103.6,0.1-155.4c0-25.3,0.1-50.6-0.1-76c0-4.4,1.3-5.7,5.7-5.6c13.8,0.2,27.6,0.2,41.5,0c3.9-0.1,5.1,1.2,5,5.1
	c-0.2,28.3,0,56.6-0.1,85c0,4.3,1.1,5.7,5.6,5.7c25.5-0.2,51-0.2,76.5,0c4.2,0,4.9-1.5,4.9-5.2c-0.1-28,0.1-56-0.2-84
	c0-4.9,1.2-6.7,6.3-6.6c13.6,0.3,27.3,0.2,41,0c3.5,0,5,0.8,4.9,4.7c-0.1,38.8-0.1,77.6-0.1,116.4c0,0,0,0,0,0
	c0,38.5-0.1,77,0.1,115.4C423.3,626.9,422,628.5,416.9,628.3z"/>
</svg>
