<?xml version="1.0" encoding="utf-8"?>
<!-- Generator: Adobe Illustrator 19.0.0, SVG Export Plug-In . SVG Version: 6.00 Build 0)  -->
<svg version="1.1" id="Calque_1" xmlns="http://www.w3.org/2000/svg" xmlns:xlink="http://www.w3.org/1999/xlink" x="0px" y="0px"
	 viewBox="0 0 612 792" style="enable-background:new 0 0 612 792;" xml:space="preserve">
<style type="text/css">
	.st0{fill:#8A9ABF;}
</style>
<path class="st0" d="M570.4,155.6c0-1.7-0.1-3.3,0-5c0.1-4.1-1.3-7.8-3.1-11.5c-4.2-8.5-11.6-11.4-20.3-12.2c-153.7,0-307.3,0-461,0
	c-6.2,1-12.1,2.1-16.5,7.6c-3.2,4.1-3.1,8.9-4.5,13.4c0,153.7,0,307.3,0,461c1.4,4.5,1.3,9.3,4.5,13.4c4.4,5.5,10.3,6.6,16.5,7.6
	c153.7,0,307.3,0,461,0c8.2-0.9,15.4-3.5,19.9-11.4c3.1-5.5,3.6-11.3,3.6-17.3C570.4,452.7,570.4,304.2,570.4,155.6z M269.8,205
	c8.2,0,16.3-0.2,24.5,0.1c3.7,0.1,5.6-1,6.9-4.6c4.7-12.4,9.9-24.7,15.2-37.8c2.9,4.4,4,8.7,5.6,12.7c3.5,8.4,6.9,17,10.1,25.5
	c1.2,3.1,2.8,4.3,6.2,4.2c15.1-0.2,30.3-0.1,45.8-0.1c-0.4,2.4-2.2,3.2-3.5,4.2c-11.5,9.3-23,18.7-34.7,27.8c-2.5,2-3.1,3.7-2.1,6.7
	c4.6,13.4,9.1,26.8,13.5,40.2c0.6,1.8,1.9,3.6,0.8,6.3c-8-6.3-15.7-12.5-23.5-18.7c-5.1-4-10.2-8-15.2-12.2c-2.2-1.9-3.7-1.8-6,0
	c-11.2,9.2-22.6,18.2-33.9,27.3c-1.7,1.3-3.4,2.6-5.9,3.5c2.4-7.3,4.9-14.6,7.3-22c2.5-7.6,4.9-15.2,7.7-22.7c1.6-4.1,1-6.5-2.5-9.3
	c-11.8-9-23.2-18.4-34.8-27.7c-1-0.8-1.8-1.7-3.7-3.4C256,205,262.9,205,269.8,205z M202.2,307.5c-5-3.9-9.9-7.8-14.8-11.7
	c-8-6.3-16-12.5-23.8-19c-2.4-2-4-1.9-6.4,0c-11.1,9.1-22.3,17.9-33.5,26.9c-1.7,1.3-3.4,2.6-5.2,4c-0.9-2.2,0.2-3.7,0.7-5.2
	c4.5-13.8,9-27.5,13.9-41.2c1.3-3.5,0.4-5.3-2.4-7.5c-11.6-9-23-18.2-34.4-27.3c-1.3-1-2.5-2.1-3.7-3.2c0.2-0.4,0.3-0.7,0.5-1.1
	c11.1,0,22.2,0,33.4,0c5.3,0,11.4,1.3,15.7-0.8c4.5-2.2,4.7-9.1,6.8-13.9c3.8-9,7.4-18.1,11.5-28.3c2.2,5.4,4.1,9.8,5.8,14.2
	c3.3,8.2,6.6,16.3,9.7,24.6c1.2,3.1,2.9,4.3,6.3,4.2c13.3-0.2,26.7-0.1,40-0.1c1.8,0,3.6,0,6,0c-0.8,2.5-2.5,3.3-3.8,4.4
	c-11.2,9-22.2,18.1-33.6,26.8c-3.6,2.8-4,5.3-2.6,9.2c4.7,13.5,9.2,27.1,13.7,40.7C202.3,304.5,203.3,305.6,202.2,307.5z
	 M405.8,595.3c-13.3-0.3-26.7-0.3-40,0c-4.7,0.1-5.9-1.5-5.8-5.9c0.2-27.8-0.1-55.6,0.2-83.5c0-4.9-1.4-6.1-6.1-6.1
	c-25.3,0.2-50.6,0.2-76,0c-4.3,0-4.9,1.6-4.9,5.2c0.1,28,0,56,0.2,84c0,4.7-1.1,6.4-6.1,6.2c-13.5-0.3-27-0.3-40.5,0
	c-4.3,0.1-5.7-1.1-5.7-5.6c0.1-52,0.1-104,0.1-155.9c0-25,0-50,0-75c0-6.5,0-6.5,6.7-6.5c13.3,0,26.6,0.2,40-0.1
	c4.5-0.1,5.5,1.4,5.5,5.7c-0.2,28.2,0,56.3-0.1,84.5c0,4.4,1.3,5.6,5.7,5.6c25.5-0.2,51-0.2,76.5,0c4.3,0,4.9-1.7,4.8-5.3
	c-0.1-28.2,0-56.3-0.1-84.5c0-4.6,1.3-6.1,5.9-6c13.8,0.2,27.6,0.2,41.5,0c3.6,0,4.9,0.9,4.9,4.8c-0.1,39-0.1,78-0.1,116.9
	c0,0,0,0,0,0c0,38.3-0.1,76.6,0.1,114.9C412.3,594.1,410.8,595.4,405.8,595.3z M538.3,225.5c-11.6,9.3-23.1,18.6-34.8,27.7
	c-3.3,2.6-4.5,4.7-2.9,9.1c4.9,13.6,9.3,27.4,13.8,41.1c0.4,1.2,0.7,2.5,1.5,5.1c-3.3-2.6-5.6-4.4-7.8-6.1
	c-10.3-8.2-20.7-16.3-30.8-24.6c-3.1-2.6-5.1-3-8.4-0.2c-11.3,9.4-22.9,18.4-34.3,27.5c-1.2,0.9-2.4,1.8-4.7,3.5
	c1.8-5.5,3.1-9.8,4.5-14.1c3.7-11.2,7.4-22.5,11.3-33.6c1-2.8,0.4-4.5-1.9-6.3c-12.3-9.7-24.5-19.5-36.7-29.3
	c-0.7-0.6-1.8-0.9-1.9-2.8c6.4,0,12.9,0,19.3,0c8.5,0,17-0.1,25.5,0.2c4,0.1,6.3-1,7.8-5c3.9-10.6,8.3-21.1,12.5-31.6
	c0.7-1.7,1.5-3.3,2.2-4.9c2,0.1,2,1.8,2.4,2.9c4.6,11.4,9.3,22.8,13.7,34.3c1.2,3.2,2.7,4.3,6.2,4.3c13.5-0.2,27-0.1,40.5-0.1
	c1.8,0,3.6,0,5.4,0C540.9,224.4,539.3,224.8,538.3,225.5z"/>
</svg>
