<?xml version="1.0" encoding="utf-8"?>
<!-- Generator: Adobe Illustrator 19.0.0, SVG Export Plug-In . SVG Version: 6.00 Build 0)  -->
<svg version="1.1" id="Calque_1" xmlns="http://www.w3.org/2000/svg" xmlns:xlink="http://www.w3.org/1999/xlink" x="0px" y="0px"
	 viewBox="0 0 612 792" style="enable-background:new 0 0 612 792;" xml:space="preserve">
<g>
	<path d="M305.4,215.9c47.5,0,95-0.1,142.4,0c23.4,0,40.3,17,40.3,40.4c0,89,0,177.9,0,266.9c0,20.5-12.5,36.5-31.9,40.2
		c-5.8,1.1-11.9,0.8-17.9,0.8c-91.5,0-182.9,0-274.4,0c-25.5,0-42.1-16.2-42.1-41.6c0-88.3,0.3-176.6-0.2-264.9
		c-0.1-23.7,18.5-42.2,41.8-41.9C210.7,216.3,258,215.9,305.4,215.9C305.4,215.9,305.4,215.9,305.4,215.9z M345.1,546.5
		c2.6,0.2,4,0.4,5.5,0.4c32,0,64,0.1,96,0c15,0,24.3-9.3,24.3-24.4c0-88.3,0-176.6,0-264.9c0-15.2-9.1-24.4-24.3-24.4
		c-32-0.1-64,0-96,0c-1.5,0-3.1,0.2-4,0.2c2.2,8.3,4.3,16.1,6.5,24.3c2.6,0,5.8,0,8.9,0c23.3,0,46.6,0,70,0c11.2,0,16.1,5,16.1,16.2
		c0,13.7,0,27.3,0,41c0,13-4.8,17.7-17.8,17.7c-24.2,0-48.3,0-72.5,0c-1.9,0-3.8,0-6.1,0c0,2.8,0,4.8,0,6.7
		c0,58.8-0.1,117.6,0.1,176.4C351.9,526.3,351.6,536.5,345.1,546.5z M161.3,348.3c3.5,30.3,38.3,55.3,76.5,54.7
		c37.2-0.5,71.3-25.9,73.8-54.8c-7.9-1.6-7.8-1.5-10.6,5.7c-1.8,4.5-4.2,8.8-6.3,12.9c-7.5-2.3-13.9-4.4-20.4-6.4
		c0.8-4.2,1.6-8.2,2.3-12.2c-8.5-1.8-8.4-1.7-10.6,5.9c-0.5,1.7-2.2,4.5-3.3,4.4c-7.1-0.2-14.2-1.1-21.4-1.7c-0.2-3.2-0.4-6.1-0.5-9
		c-3.1,0-5.9,0-9,0c0,3.2,0,6,0,9c-6.5,0.6-12.7,0.9-18.7,1.8c-4.1,0.6-5.5-0.8-6.3-4.6c-1.6-7.5-2.3-7.7-10.4-5.7
		c0.8,4,1.6,8,2.4,12.1c-6.7,2.1-13.3,4.1-20.1,6.2c-1.2-1.9-2.5-3.7-3.4-5.6c-1.3-2.5-2.4-5.1-3.4-7.8
		C169.5,346.9,168.9,346.6,161.3,348.3z M311.8,324.8c-4.3-31-37.9-55.3-75.6-55c-38.1,0.4-71.2,24.7-74.8,54.9
		c7.8,1.7,7.9,1.4,10.7-5.7c1.7-4.5,4.2-8.6,6.6-12.8c0.5-0.9,2.2-2,3-1.8c6,1.7,11.9,3.7,17.8,5.6c-1.2,5-2.3,9.8-3.4,14.6
		c8.4,1.7,8.7,1.6,10.5-5.4c0.5-1.9,1-3.9,1.9-5.7c0.5-0.9,1.9-2,2.8-1.9c6.8,0.5,13.5,1.2,20.8,1.9c0,3.9,0,7.6,0,11.5
		c3.3,0,6,0,9.2,0c0-4.1,0-7.8,0-11.6c7.8-0.6,15-1.2,22.7-1.9c0.9,2.5,1.8,5,2.5,7.5c1.9,7.2,2.8,7.7,10.6,5.4
		c-1.2-4.8-2.3-9.6-3.5-14.6c2.9-0.8,5.8-1.5,8.6-2.3c12.8-3.6,12.9-3.6,18,9c0.4,0.9,0.7,1.9,1.1,2.8
		C303.5,326,303.5,326,311.8,324.8z M160.1,339.9c51.2,0,101.9,0,152.5,0c0-2.5,0-4.6,0-6.7c-51.1,0-101.7,0-152.5,0
		C160.1,335.5,160.1,337.5,160.1,339.9z M168.5,496.9c0-5.2,0-9.9,0-14.9c3.2,0,5.7,0.3,8.2-0.1c2.6-0.4,5.3-1,7.7-2
		c6-2.6,9.1-8.3,8.6-15c-0.5-6.2-4.1-11-10.4-12.6c-7.8-2.1-15.7-1.7-23.5,0c0,15,0,29.7,0,44.5
		C162.2,496.9,164.8,496.9,168.5,496.9z M235,496.5c-0.3-1-0.5-1.9-0.8-2.8c-5-12.9-10.1-25.7-15-38.6c-0.9-2.5-2-3.8-4.9-3.8
		c-3.1,0-4.3,1.3-5.3,4c-3.7,9.8-7.5,19.5-11.3,29.3c-1.5,4-3,8-4.9,12.7c4.4-1.3,9.7,2.6,11.1-3.8c1.2-5.4,4.3-6.9,9.3-6.2
		c1.5,0.2,3.1-0.4,4.5,0.1c1.8,0.7,4,1.6,4.7,3.1C226,497.9,226.1,498.1,235,496.5z M313.2,453.8c-6.8-3.1-13.4-3.7-20.1-2.3
		c-6.7,1.4-10.2,5.2-11,11.3c-0.8,5.8,2,10.4,8.2,13.4c3.3,1.6,7,2.4,10.1,4.2c1.7,1,2.6,3.3,3.8,5c-1.8,1.2-3.5,3.5-5.3,3.5
		c-4.9,0.2-9.8-0.6-15.1-1.1c-0.7,1.9-1.7,4.3-2.8,7.2c8.3,2.9,16.3,4.3,24.6,1.3c5.2-1.9,8-5.7,8.6-11.2c0.6-5.7-1.7-9.8-6.6-12.3
		c-3.5-1.8-7.5-2.8-10.9-4.8c-1.9-1.1-3-3.4-4.5-5.1c2.1-1.2,4.2-3.3,6.4-3.4c3.9-0.1,7.8,1,11.9,1.7
		C311.3,458.8,312.2,456.6,313.2,453.8z M240.4,495.1c7.6,2.6,14.7,3.9,22,2.1c6.9-1.6,10.6-5.7,11.3-12.2
		c0.6-5.7-2.3-10.2-8.7-13.2c-3.2-1.5-6.7-2.3-9.6-4c-1.7-1-2.7-3.3-4-5c1.9-1.2,3.7-3.2,5.6-3.3c4.1-0.1,8.2,0.9,12.7,1.5
		c0.8-2,1.7-4.5,2.8-7.3c-7-3.2-13.7-3.8-20.7-2.1c-6.3,1.5-9.6,5.1-10.1,10.8c-0.7,6.3,1.4,10.4,7.4,13.4c3.4,1.7,7.2,2.6,10.5,4.4
		c1.7,1,2.8,3.2,4.1,4.9c-1.9,1.3-3.7,3.7-5.6,3.8c-4.9,0.2-9.8-0.6-15-1.1C242.5,489.8,241.6,492.1,240.4,495.1z"/>
	<path d="M413.9,446c0,23.1,0,46.3,0,69.4c0,1,0.4,2.3-0.1,2.9c-1.2,1.6-2.7,2.9-4.1,4.3c-1.5-1.5-3.1-2.9-4.4-4.5
		c-0.5-0.6-0.1-1.9-0.1-2.9c0-45.8,0-91.6,0-137.4c0-3.5-1.2-8.4,4.2-8.5c5.8-0.1,4.4,5.1,4.4,8.7
		C413.9,400.7,413.9,423.4,413.9,446z"/>
	<path d="M448.2,446c0,22.7,0,45.3,0,68c0,1.8,0.3,3.9-0.4,5.4c-0.6,1.4-2.5,3-3.8,3.1c-1.3,0-3.1-1.6-3.9-3
		c-0.7-1.1-0.4-2.9-0.4-4.4c0-46.2,0-92.3,0-138.5c0-1.5-0.3-3.3,0.4-4.4c0.8-1.3,2.6-2.7,4-2.8c1.2-0.1,2.9,1.5,3.6,2.7
		c0.7,1.2,0.4,2.9,0.4,4.4C448.2,399.7,448.2,422.8,448.2,446z"/>
	<path d="M370.9,445.5c0-22.8,0-45.7,0-68.5c0-1.3-0.4-2.9,0.2-3.9c0.9-1.5,2.7-3.8,3.7-3.7c1.6,0.3,3.9,2.2,4.2,3.7
		c0.7,3.2,0.3,6.6,0.3,10c0,43.7,0,87.3,0,131c0,0.8,0,1.7,0,2.5c0.1,3.1-0.5,6.1-4.2,6c-3.8,0-4.1-3-4.1-6.1
		C370.9,492.8,370.9,469.2,370.9,445.5z"/>
	<path d="M218.7,391.8c-12.2-2.8-23.2-8-33.6-17.6c5.9-1.6,10.8-3,15.8-4.1c0.9-0.2,2.4,0.8,3.1,1.7
		C209,378.4,213.8,385.1,218.7,391.8z"/>
	<path d="M287.8,374.2c-10.2,9.7-21.4,14.8-33.6,17.7c5-6.9,10-13.9,15.1-20.6c0.6-0.8,2.4-1.3,3.4-1.1
		C277.5,371.2,282.2,372.6,287.8,374.2z"/>
	<path d="M231.6,366.5c0,7.9,0,15,0,22c-0.4,0.3-0.9,0.6-1.3,0.9c-6-6.6-11.9-13.2-17.9-19.9c0.3-0.6,0.5-1.2,0.8-1.8
		C219.2,367.3,225.2,366.9,231.6,366.5z"/>
	<path d="M260.6,369.4c-6,6.6-11.9,13.3-17.9,19.9c-0.4-0.3-0.8-0.5-1.3-0.8c0-7,0-14,0-21.9c6,0.3,12,0.7,18,1
		C259.8,368.2,260.2,368.8,260.6,369.4z"/>
	<path d="M218.9,281c-4.8,6.3-9.2,12.3-13.8,18.1c-0.7,0.8-2.2,1.7-3.2,1.5c-4.7-1-9.3-2.3-14.8-3.7
		C196.8,288.4,207.2,283.7,218.9,281z"/>
	<path d="M254.1,281c11.7,2.5,22,7.5,31.9,15.9c-5.7,1.4-10.4,2.8-15.2,3.7c-0.9,0.2-2.3-0.9-3-1.8
		C263.3,293.1,258.9,287.3,254.1,281z"/>
	<path d="M231.7,283.3c0,7.2,0,13.6,0,20.6c-5.8-0.4-11.3-0.8-17.9-1.2C218.5,294.8,224.3,289,231.7,283.3z"/>
	<path d="M241.3,304c0-7.2,0-13.4,0-19.7c0.4-0.3,0.7-0.7,1.1-1c5.7,6,11.3,11.9,17,17.9c-0.2,0.5-0.4,1-0.7,1.4
		C253,303.1,247.4,303.6,241.3,304z"/>
	<path d="M168.6,473.1c0-4.4,0-8.4,0-12.7c4.7-0.6,9.7-1.9,12.8,2.5c1.1,1.6,0.9,5.6-0.4,7.3C178,474.6,173.2,473.5,168.6,473.1z"/>
	<path d="M209.1,479.5c1.6-4.4,2.9-8.2,4.8-13.3c1.9,5.1,3.3,9,4.8,13.3C215.3,479.5,212.5,479.5,209.1,479.5z"/>
</g>
</svg>
