<?xml version="1.0" encoding="utf-8"?>
<!-- Generator: Adobe Illustrator 19.0.0, SVG Export Plug-In . SVG Version: 6.00 Build 0)  -->
<svg version="1.1" id="Calque_1" xmlns="http://www.w3.org/2000/svg" xmlns:xlink="http://www.w3.org/1999/xlink" x="0px" y="0px"
	 viewBox="0 0 612 792" style="enable-background:new 0 0 612 792;" xml:space="preserve">
<style type="text/css">
	.st0{fill:#323232;}
</style>
<g>
	<path class="st0" d="M424,292c-1.9-31.3-29.9-60-61.1-61.9c-26.5-1.6-53,0.1-67.4-0.2c-37.6,0-63,0-88.5,0c-17,0-28,11.1-28.1,28.2
		c0,26.7,0,53.3,0.1,80c0,2.7,0,5.4,0.6,7.9c2.9,13.5,13.3,21.3,28.5,21.3c46.7,0,93.3,0,140-0.2c4.4,0,6,0.8,5.8,5.6
		c-0.4,11.5-0.2,23-0.1,34.5c0,5.1,3.3,8.6,7.8,8.6c4.4,0.1,7.9-3.4,8.3-8.3c0.1-1.3,0-2.7,0-4c0-11.3,0.1-22.7-0.1-34
		c0-2.7,0.6-3.9,3.5-4.8C406.8,354.7,426.1,326.8,424,292z M369.9,315.3c0-3.5,0.1-6.5,0-9.4c-0.2-5.2-3.8-8.8-8.4-8.7
		c-4.4,0.1-7.6,3.6-7.7,8.6c-0.1,1.8,0.1,3.7,0,5.5c-0.1,1.2,0.8,2.9-0.8,3.5c-1.1,0.5-2.1-0.8-3-1.4c-6.7-5-9.2-13.9-6.2-21.9
		c3.1-8.2,11.2-13.4,20-12.6c8.3,0.8,15.4,7.3,17.1,15.8C382.3,303,378.3,311,369.9,315.3z"/>
	<path class="st0" d="M523.3,591.4c-26.9-37.7-53.7-75.4-80.7-113c-1.8-2.5-2.3-4.4-0.8-7.5c6.9-13.6,8.7-28.1,6.2-43.2
		c-5.2-31.6-34.7-56.7-66.7-56.8c-3.6,0-4.5,1-4.4,4.5c0.3,7.8,0.1,15.7,0,23.5c0,2.8,0.6,5,2,7.4c4.7,7.7,3.4,17.1-2.9,23.4
		c-6.3,6.3-16.3,7.5-23.9,2.7c-7.5-4.7-11.1-13.7-8.1-22.1c3.8-10.5,0.9-21.2,2-31.9c-1.1,0.2-1.4,0.2-1.7,0.3
		c-0.8,0.2-1.6,0.5-2.4,0.8c-27.2,11.6-43.4,32.1-45.9,61.4c-2.7,31.9,10.9,56.1,39.1,71.7c3.1,1.7,4.6,3.5,4.8,7.1
		c0.5,10.8,1.6,21.6,2.2,32.4c0.2,4.2,1.6,7.5,4.6,10.6c2.1,2.1,4.9,4,5.2,7.6c0.6,9.6,1.2,19.3,2.1,28.9c0.3,3.9-0.6,7.1-2.6,10.3
		c-1.7,2.8-4.4,5.3-4.2,8.8c0.6,9.1,1.5,18.3,2.3,27.4c0.1,1.3-0.1,2.7,1.7,3.2c11.1,3.7,22.2,7.5,33.9,11.5
		c-0.6-7.7-1.2-14.7-1.7-21.6c-2.3-29-4.6-58.1-7-87.1c-0.2-2.2,0.4-2.9,2.5-3.1c2.3-0.2,2.8,0.7,3,2.7c2,25.1,4,50.1,6,75.2
		c0.9,10.9,1.9,21.8,2.9,33.4c9.1-5.6,17.6-10.8,26.1-16c1.7-1,1.5-2.3,1.4-3.9c-2.3-26.7-4.6-53.4-6.9-80.1
		c-0.8-9.9-1.7-19.8-2.5-30.2c3.7,1.6,7.8,1.2,10,4.2c6,8,13.2,15.4,11.6,26.9c-0.7,4.8,3.9,9.9,8.6,11.4c3.2,1,7.7,1.2,9.2,3.3
		c5.3,7.6,14.3,13.7,12.6,24.9c-1.1,7.1,4.1,11.2,7.4,16.2c0.6,0.9,1.6,1,2.7,1c9.6,0,19.2,0,28.8,0c0.1-0.7,0.3-1.3,0.4-2
		c-0.9-1.4-1.9-2.7-2.8-4.1c-20.4-28.6-40.6-57.3-61.3-85.7c-4.3-5.9,1.2-6.2,3.5-8.6c3-3.3,4.5-1.1,6.3,1.4
		c18.9,26.6,37.9,53.1,56.9,79.6c2.6,3.6,4.5,9.7,8.1,10.1c3.4,0.3,7.4-4.3,11.1-6.9C527.7,597.5,527.7,597.5,523.3,591.4z
		 M409.9,633.7c0.3,3.6-0.2,5.9-3.8,7.5c-2.7,1.2-5.1,3-8.2,4.9c-1-11.8-2-23-2.9-34.3c-1.8-22.1-3.7-44.1-5.3-66.2
		c-0.3-4.5-1.6-6.7-6.4-5.6c-2.6,0.6-5.3,0.5-8,0.7c-7.8,0.6-7.9,0.6-7.2,8.4c2.5,31.2,5.1,62.4,7.7,93.6c0.1,1.8,0.2,3.6,0.3,6
		c-5.9-2-11.3-3.9-16.8-5.6c-1.9-0.6-2-1.9-2.1-3.4c-0.3-3.7-0.4-7.3-1-10.9c-1-6.7-0.4-12.9,4-18.3c2.2-2.8,2.5-5.8,2.1-9.4
		c-1-10.1-1.8-20.2-2.2-30.4c-0.2-4.1-1.1-7.6-4.2-10.1c-4.7-3.8-5.8-8.8-6-14.6c-0.4-10.5-1.6-20.9-2.2-31.4
		c-0.2-3.8-1.5-6-5.3-7.7c-36.8-16.3-50-61.6-28-95.1c0.9-1.4,1.9-2.6,2.9-3.9c0.2,0.1,0.4,0.2,0.5,0.3c-1.4,3.8-3,7.6-4.3,11.4
		c-15.1,46.6,23.7,94.6,72.5,89.5c3.6-0.4,5.4,0.8,7.9,3.3c8.1,8.4,6.8,19.1,7.8,29.1C404.7,572.3,407.1,603,409.9,633.7z"/>
</g>
</svg>
