<?xml version="1.0" encoding="utf-8"?>
<!-- Generator: Adobe Illustrator 19.0.0, SVG Export Plug-In . SVG Version: 6.00 Build 0)  -->
<svg version="1.1" id="Calque_1" xmlns="http://www.w3.org/2000/svg" xmlns:xlink="http://www.w3.org/1999/xlink" x="0px" y="0px"
	 viewBox="0 0 612 792" style="enable-background:new 0 0 612 792;" xml:space="preserve">
<style type="text/css">
	.st0{fill:#323232;}
</style>
<g>
	<path class="st0" d="M353.6,484.8c-4.5,0.8-8.7,1-12.6,2.4c-5.6,2-7.3-0.7-9-5.4c-10.7-30-16.5-61-18.9-92.6
		c-2.3-30.3-1.8-60.6,2.9-90.7c2-12.6,4.6-25.1,8.3-38.7c-4.1,4.2-7.2,7.7-10.7,10.8c-12.4,10.8-27,17.6-42.9,21.3
		c-3.2,0.7-3.9,2.1-3.8,5c0.1,18.2,0.1,36.3,0,54.5c0,2.2,0.6,4.2,1.4,6.3c8.1,19.3,16.2,38.6,24.4,57.9c1.2,2.9,2.2,5.9,2.2,9.1
		c0,20,0.1,40,0,60c-0.1,8.8-5.8,15.8-13.6,17.5c-8.2,1.7-16-2-19.7-9.3c-1.5-2.9-1.7-6-1.7-9.2c0-17.2-0.1-34.3,0-51.5
		c0-2.9-0.5-5.5-1.7-8.2c-4.8-11.3-9.5-22.6-15.2-33.8c0,1.7,0,3.4,0,5.1c0,32,0.1,64,0,96c0,11.7-8.8,19.5-20.1,18.1
		c-8.8-1.1-14.9-8.5-14.9-18.3c0-42.8,0-85.7,0-128.5c0-17.5,0-35,0-52.5c0-1.3,0-2.5,0-4.8c-10,8.8-14.4,19.3-14.9,31.3
		c-0.4,9.1-0.1,18.3-0.2,27.5c-0.1,11-7.7,18.9-17.8,18.8c-10-0.2-17.3-7.9-17.2-18.7c0.2-15-1.3-30,2.3-44.8
		c8.7-34.8,37.4-57.6,73.6-58.4c11.8-0.3,23.7-0.9,35-4.7c19-6.4,32.5-18.3,37.6-38.5c1.9-7.6,7.1-12,14.7-13.1
		c7.3-1,12.9,2.1,17,8.2c0.4,0.5,0.6,1.2,1,1.7c0.3,0.4,0.6,0.7,1.2,1.3c8-16.4,17.3-31.6,29.2-45.1c7.2-8.2,7.2-8.2,14.2,0.2
		c24.7,29.7,38.9,64.4,47.2,101.7c10.1,45,11.4,90.4,6.3,136.1c-2.9,25.5-8.1,50.5-16.9,74.7c-1.2,3.4-2.6,4.2-6.1,3.3
		c-4.6-1.2-9.4-1.7-14.4-2.5c8.3-20.5,13.5-41.5,16.7-62.9c5.6-36.6,6.2-73.3,1.9-110.1c-3.8-32.4-11.7-63.7-26.4-93.1
		c-4.5-8.9-9.5-17.5-15.7-25.8c-10.2,13.3-18,27.7-24.3,43c-14.2,34.6-20.2,70.9-21.2,108.1c-1.2,45,3.7,89.1,18.9,131.7
		C351,478,352.2,481.1,353.6,484.8z"/>
	<path class="st0" d="M191.4,515.7c16.6,6.8,33.1,9.2,50.1,8.2c19.6-1.1,38.4-6,57.1-11.3c20.8-5.8,41.5-12,63.2-14.1
		c24.7-2.5,48.8,0,72.3,8.4c2.2,0.8,3.1,1.7,3.1,4.2c-0.1,14.2-0.2,28.3,0.1,42.5c0.1,4.3-2.4,3.4-4.8,3.4c-77.1,0-154.2,0-231.4,0
		c-9.6,0-9.6,0-9.7-9.5C191.4,537.2,191.4,526.8,191.4,515.7z"/>
	<path class="st0" d="M376.6,236.6c30.6,81.2,30.5,162.4,0.9,243.8C348.7,427.4,340.7,308.5,376.6,236.6z"/>
	<path class="st0" d="M208.6,229.2c5,1.2,10.1,1.5,15.1,1.9c4.3,0.4,7.5-0.9,9.2-5.1c0.9-2.1,2.1-4,4.6-3.9c2.3,0.1,3.5,1.9,4.2,3.7
		c1.7,4.1,4.8,5.6,9.1,5.2c4.9-0.4,9.9-0.6,14.7-1.9c1.1,11.6-11.6,24-26.1,25.5C224.6,256.3,210.4,244.6,208.6,229.2z"/>
	<path class="st0" d="M264.3,214.9c-18,0-35.9,0-53.8,0c3.1-10.7,14.4-18.8,26.5-18.9C249.5,195.9,260.9,203.8,264.3,214.9z"/>
</g>
</svg>
