<?xml version="1.0" encoding="utf-8"?>
<!-- Generator: Adobe Illustrator 19.0.0, SVG Export Plug-In . SVG Version: 6.00 Build 0)  -->
<svg version="1.1" id="Calque_1" xmlns="http://www.w3.org/2000/svg" xmlns:xlink="http://www.w3.org/1999/xlink" x="0px" y="0px"
	 viewBox="0 0 612 792" style="enable-background:new 0 0 612 792;" xml:space="preserve">
<style type="text/css">
	.st0{fill:#434A54;}
</style>
<path class="st0" d="M574.4,214.8c-8.8-22.1-32.4-34.4-53.9-27.3c-5.9,1.9-11.8,4.2-16.1,8.8c-4.5,5-10.1,4.5-15.7,4.2
	c-5.7-0.3-12.1,2-17.1-1.7c-10.8-8-22.9-10.2-35.8-10.2c-22.8,0-45.7,0-68.5,0c-61.5,0-123,0-184.5,0c-11.2,0-21.9,1.8-31.2,8.7
	c-6.4,4.7-9.4,4.5-15.5-0.6c-8.2-6.8-17.6-10.8-28.3-11.1C86.1,185.1,68,201.1,64,224c0,4,0,8,0,12c0.3,0.7,0.8,1.4,0.9,2.2
	c7.8,32.1,43.6,44.6,69.6,24.3c1-0.8,1.8-2.4,3.7-2c0,6.6,0,13.1,0,19.6c0,103.3,0,206.6,0,309.9c0,9.5,3.5,12.1,12.8,10.2
	c14.8-3,29.6-6.3,45-4.1c15.7,2.2,31.5,2.6,47.3,0.9c8.1-0.9,15.9-3.4,24.1-4.2c17.5-1.7,35,1.2,52.4-0.9c8.3-1,16.6-0.3,24.9,0.9
	c9.9,1.4,19.5,5.3,29.6,3.9c7.3-1,14.2,0,21.3,1.4c4.2,0.8,8.5,1.6,12.7,2.5c7,1.4,10.8-1.8,10.9-9c0.1-3.2,0.3-6.4,0-9.5
	c-0.4-4.1,0.8-5.4,5.1-5.2c16.2,0.5,32.3-0.8,48-4.8c9.2-2.4,10.3-3.9,10.3-13.5c0-83.8,0-167.6,0-251.4c0-15.2,0-30.3,0.1-45.5
	c0-1.5-0.8-4.4,1.3-4.2c6.5,0.5,13.2-2.7,19.3,3c22.8,21.1,57.5,13.4,69.4-15.1c1.3-3,2.2-6.2,3.2-9.3c0-4,0-8,0-12
	C575,221,575.6,217.7,574.4,214.8z M138.7,220.4c-1.2,5.8-0.3,11.6-0.5,17.4c-0.1,2-0.1,3.4-2.8,3.5c-3,0.1-4.9,2.3-6.7,4.6
	c-9.2,11.5-25.1,14.2-37.1,6.4c-11.1-7.2-14.9-22.7-8.6-35.5c5-9.9,13.7-13.4,23.7-13.9c8.9,0.3,16.1,3.2,21.2,10.1
	c2.3,3.1,4.7,5.6,8.9,5.3C138.3,218.2,139,218.7,138.7,220.4z M403.1,249C402.9,354.7,403,460.3,403,566c0,4.5,0.1,9,0.3,13.5
	c0.1,2.7-0.4,4-3.6,3.3c-9.3-2.2-18.6-3.1-28.2-2.2c-9.2,0.9-18-3.1-27.1-3.9c-7.8-0.7-15.6-1.7-23.4-0.8
	c-17.6,2.2-35.3-0.7-52.9,0.9c-8.5,0.7-16.7,3.1-25.1,4.2c-15.1,2-30.3,1.4-45.3-0.7c-13.1-1.9-26-0.2-38.7,2.2
	c-4.7,0.9-4.8-0.8-4.8-4.3c0.1-41.3,0.1-82.6,0.1-124c0-64.5,0-129,0-193.4c0-11.3,1-22.7,0.4-33.9c-0.6-11,9-20.1,19.6-20.1
	c77.6-0.1,155.3-0.2,232.9-0.3c0.3,0,0.6,0.2,1.4,0.4C400.1,220,403.2,234.8,403.1,249z M460.8,558.3c-12.2,2-24.4,2.8-36.8,2.7
	c-3.9,0-4.6-1.5-4.6-5c0.1-37,0.1-74,0.1-110.9c0-12,0-24,0-36c0,0,0,0,0,0c0-48.8,0.1-97.6-0.1-146.4c0-4.5,1.2-5.5,5.6-5.4
	c12.3,0.3,24.7,0.2,37,0c3.8-0.1,4.7,1.2,4.7,4.9c-0.1,63.5-0.1,126.9-0.1,190.4c0,32.8-0.1,65.6,0.1,98.5
	C466.8,555.5,465.7,557.5,460.8,558.3z M547.9,252.7c-10,6-27.8,6.1-36.5-7.1c-2.5-3.8-6.2-4.5-10.4-4.5c-25.5,0.1-50.9-0.1-76.4,0
	c-3.9,0-5.2-1.1-4.9-5c0.3-4.1,0.2-8.3,0.1-12.5c-0.1-3.8,1.3-5.2,5.3-5.1c13.1,0.2,26.3,0.1,40.6,0.1c11.1-0.8,23.4-0.5,35.7-0.4
	c4.6,0.1,7.7-1.5,10.5-5.2c12.2-15.7,37.8-12.8,45.7,4.8C563.3,230.6,559,246,547.9,252.7z"/>
</svg>
