<?xml version="1.0" encoding="utf-8"?>
<!-- Generator: Adobe Illustrator 19.0.0, SVG Export Plug-In . SVG Version: 6.00 Build 0)  -->
<svg version="1.1" id="Calque_1" xmlns="http://www.w3.org/2000/svg" xmlns:xlink="http://www.w3.org/1999/xlink" x="0px" y="0px"
	 viewBox="0 0 612 792" style="enable-background:new 0 0 612 792;" xml:space="preserve">
<style type="text/css">
	.st0{fill:#434A54;}
</style>
<g>
	<path class="st0" d="M556.5,249.2c-28.3,0.1-56.6,0-84.9,0c-3.7,0-7.2-0.6-10.6-2.1c-16.8-6.9-34.1-12.2-51.8-16.3
		c-45.5-10.4-91.4-13.3-137.9-9.1c-37.8,3.4-74.6,11.1-109.9,25.4c-3.6,1.5-7.2,2.2-11.1,2.1c-28.1-0.1-56.3,0-84.4,0
		c-4.8,0-8.4,1.4-10.7,5.8c0,70,0,140,0,210c2.4,4.6,6.3,5.8,11.2,5.8c27.8-0.1,55.6,0,83.4-0.1c4.2,0,8.1,0.7,12.1,2.3
		c26.4,10.8,53.9,17.8,82.1,22c35.9,5.4,71.9,6.5,108.1,3.1c37-3.4,72.9-10.9,107.4-24.8c4.6-1.8,9.1-2.7,14-2.6
		c27.5,0.1,55,0,82.4,0.1c4.9,0,8.8-1.2,11.2-5.7c0-70,0-140,0-210C564.9,250.7,561.3,249.2,556.5,249.2z M551.2,450.5
		c0,3.2-0.7,4.2-4.1,4.2c-26.5-0.1-53-0.1-79.5-0.1c-2.7,0-5.2,0.2-7.8,1.2c-34.9,14.8-71.4,22.9-109.1,26.3
		c-41.1,3.7-81.9,1.8-122.3-6.2c-22.7-4.5-44.9-10.8-66.1-20.4c-2.4-1.1-4.9-0.9-7.3-0.9c-26.3,0-52.7-0.1-79,0.1
		c-4,0-4.9-1.1-4.9-5c0.2-30,0.1-60,0.1-90c0-29.5,0.1-59-0.1-88.5c0-4.6,0.9-6.2,5.9-6.1c25.2,0.3,50.3,0.1,75.5,0.2
		c4.6,0,8.8-0.8,13.1-2.6c30.6-12.7,62.6-20.1,95.5-23.9c31.4-3.6,62.8-3.9,94.3-0.7c35.1,3.5,69.3,11.1,101.9,24.8
		c3.7,1.6,7.5,2.4,11.6,2.4c25.8-0.1,51.7,0,77.5-0.1c3.7,0,5.1,0.6,5.1,4.8C551.1,330.1,551.1,390.3,551.2,450.5z"/>
	<path class="st0" d="M532.1,360.1C532.1,360.1,532.1,360.1,532.1,360.1c0-22.5-0.1-45,0-67.5c0-9.4-2.3-12-11.6-12
		c-23.5,0-47,0-70.5,0c-3.4,0-6.5-0.5-9.8-1.6c-26.5-8.8-53.8-14.3-81.6-17c-30-3-60.1-3.1-90.3-0.3c-28.2,2.6-55.8,7.7-82.7,16.3
		c-5.8,1.9-11.5,2.7-17.6,2.7c-22.3-0.1-44.7-0.1-67-0.1c-8.3,0-11,2.8-11,11.1c0,45.5,0,91,0,136.5c0,8.3,2.7,11,11.1,11
		c23.8,0,47.7,0,71.5-0.1c2.9,0,5.7,0.3,8.3,1.2c28.6,9.6,58,15,88,17.8c30.1,2.8,60.2,2.6,90.3-0.5c27.9-2.9,55.4-8.2,82-17.4
		c2.5-0.9,5.1-1.1,7.8-1.1c24,0.1,48,0.1,72,0.1c8.4,0,11-2.6,11-11.1C532.1,405.4,532.1,382.8,532.1,360.1z M509.7,423.1
		c-14.5-0.3-29,0.3-43.5-0.2c-15.3-0.5-29.9,1.3-44.5,6.1c-23.6,7.7-48.1,11-72.8,13.2c-22.6,2-45.3,2.3-67.9,0.7
		c-33.4-2.4-66.2-7.7-97.8-19.2c-2.2-0.8-4.2-0.7-6.4-0.7c-21.8,0-43.7-0.1-65.5,0.1c-3.6,0-4.8-0.7-4.7-4.6
		c0.2-19.7,0.1-39.3,0.1-59c0-19.3,0.1-38.7-0.1-58c0-3.9,1.1-4.7,4.7-4.6c14.8,0.2,29.7-0.3,44.5,0.2c15.3,0.5,29.8-1.7,44.5-6.1
		c42.2-12.7,85.7-16.2,129.6-14.4c37.5,1.5,74.2,7.3,109.8,19.8c1.8,0.6,3.6,0.5,5.4,0.5c21.8,0,43.7,0.1,65.5-0.1
		c3.7,0,4.7,0.8,4.7,4.6c-0.2,38.7-0.2,77.3,0,116C515.5,422.2,514.1,423.1,509.7,423.1z"/>
	<path class="st0" d="M386.3,398.8c-6.2,0-12.3,0.1-18.5,0c-6-0.1-9-2.9-9-8.9c-0.1-20-0.1-39.9,0-59.9c0-5.9,3-8.9,8.9-8.9
		c12.2-0.1,24.3-0.1,36.5,0c5.7,0,9,3,9.1,7.7c0.1,5.1-3.2,8.2-9,8.3c-8.3,0.1-16.7,0.3-25-0.1c-3.9-0.2-4.7,1.2-4.6,4.8
		c0.2,10.2,0.1,10.2,10.5,10.2c6.5,0,13-0.1,19.5,0c5.4,0.1,8.7,3.3,8.6,8.2c-0.1,4.7-3.2,7.7-8.5,7.8c-8.8,0.1-17.7,0.1-26.5,0
		c-2.8,0-3.6,0.7-3.7,3.6c-0.2,11.3-0.3,11.3,11.1,11.3c6.3,0,12.7-0.1,19,0c5.3,0.1,8.5,2.9,8.6,7.6c0.1,4.8-3.2,8.2-8.6,8.3
		C398.7,399,392.5,398.8,386.3,398.8z"/>
	<path class="st0" d="M133.8,360c0-9.8,0-19.6,0-29.4c0-5.9,3.1-9.5,7.9-9.5c4.8,0,8,3.8,8.1,9.5c0.1,5.8,0.2,11.7,0,17.5
		c-0.1,2.9,0.5,4.2,3.8,4c5.1-0.3,10.3-0.3,15.5,0c3.3,0.2,3.9-1.1,3.8-4c-0.2-6-0.1-12,0-18c0.1-5.2,3-8.7,7.4-8.9
		c4.6-0.3,8.5,3.3,8.5,8.5c0.1,20.3,0.1,40.6,0,60.9c0,4.9-3.9,8.4-8.2,8.3c-4.4-0.1-7.6-3.5-7.7-8.7c-0.1-6.2-0.1-12.3,0-18.5
		c0.1-2.7-0.6-3.9-3.6-3.7c-5,0.2-10,0.2-15,0c-3.4-0.2-4.7,0.7-4.5,4.3c0.3,6,0.2,12,0.1,18c-0.1,4.3-2.2,7.3-6.5,8.4
		c-3.5,0.9-6.1-0.7-8.2-3.4c-1.4-1.9-1.3-4.1-1.3-6.2C133.8,379.3,133.8,369.6,133.8,360C133.8,360,133.8,360,133.8,360z"/>
	<path class="st0" d="M449.8,354.5c0,8,0.1,16-0.1,24c-0.1,3.3,1,4.3,4.3,4.2c8.3-0.2,16.6-0.2,24.9,0c6.1,0.1,10.1,3.3,9.9,8.1
		c-0.2,5.1-4.8,8.6-10.3,8.4c-12.1-0.4-24.3-0.1-36.4-0.2c-5.3,0-9.1-4-8.9-9.1c1-18.6,0.1-37.2,0.4-55.9c0-1.5,0-3,0-4.5
		c0.2-4.8,3.2-8.1,7.4-8.4c4.4-0.2,8.2,3.1,8.5,8c0.2,3.6,0,7.3,0,11C449.8,344.9,449.8,349.7,449.8,354.5z"/>
	<path class="st0" d="M303.1,365.1c0-7.7-0.3-15.3,0.1-23c0.2-4.3-1.3-5.6-5.3-5.1c-1.8,0.2-3.7,0.1-5.5,0c-5.3-0.2-8.5-3-8.6-7.7
		c-0.1-4.8,3.2-8.2,8.6-8.3c8.3-0.2,16.7-0.1,25-0.2c4.3,0,8.7-0.1,13,0c4.6,0.1,8.4,3.8,8.5,8.1c0.1,4.2-3.3,7.7-7.8,8.1
		c-0.3,0-0.7,0.1-1,0.1c-3.5,0.3-8.1-1.5-10.1,0.8c-2.4,2.6-0.8,7.3-0.8,11.1c-0.1,13.3,0,26.7,0,40c0,6.1-3.3,9.9-8.2,9.7
		c-4.8-0.2-7.7-3.8-7.7-9.7C303.1,381.1,303.1,373.1,303.1,365.1z"/>
	<path class="st0" d="M253.6,327.9c-6.2-5.1-13.3-8.3-21.7-6.4c-16.3,3.8-28.6,20.4-28.5,38.3c0.2,9.8,3.2,18.6,9.3,26.4
		c12.8,16.4,32.2,16.8,45.8,1.1C273.7,369.8,271.6,342.6,253.6,327.9z M249.3,374.5c-5.7,11-19.8,11-26.2,0.4
		c-2.8-4.6-3.3-9.7-3.6-14.4c0.2-5.8,0.8-11,3.7-15.7c6.3-10.3,20.5-10.1,26,0.6C254.2,354.8,254.3,364.9,249.3,374.5z"/>
</g>
</svg>
