<?xml version="1.0" encoding="utf-8"?>
<!-- Generator: Adobe Illustrator 19.0.0, SVG Export Plug-In . SVG Version: 6.00 Build 0)  -->
<svg version="1.1" id="Calque_1" xmlns="http://www.w3.org/2000/svg" xmlns:xlink="http://www.w3.org/1999/xlink" x="0px" y="0px"
	 viewBox="0 0 612 792" style="enable-background:new 0 0 612 792;" xml:space="preserve">
<style type="text/css">
	.st0{fill:#474747;}
</style>
<g>
	<path class="st0" d="M381.4,466.1c-0.6,0.7-1.1,1.3-1.6,1.9c-9.6,11.5-9.5,11.4-19.9,1.1c-62.8-62.8-125.6-125.6-188.4-188.4
		c-5.1-5.1-5.1-5.1-0.3-10c7.5-7.5,7.5-7.5,14.9,0c64,64,127.9,128,191.9,191.9C379.2,463.7,380.2,464.8,381.4,466.1z"/>
	<path class="st0" d="M170.5,413.1c12.1-3.1,23.7-5.8,35.1-9.1c4.7-1.4,6.2-0.1,7.2,4.4c2.6,11.3,2.8,11.2,14.5,11.7
		c11.2,0.5,22.3,0.5,33.4-0.9c2.8-0.4,4.4,0.1,4.4,3.4c0,2.3,0.7,4.6,1,6.9c1,6.6,1,6.7-5.9,7.4c-14.9,1.5-29.9,1.8-44.8-0.6
		c-2.2-0.3-3.7-0.2-5.6,1.7c-3.5,3.5-7.7,8.4-11.7,8.5c-3.9,0.1-6.3-6.5-9.3-10.1C182.8,428.8,176.9,421.2,170.5,413.1z"/>
	<path class="st0" d="M151.4,335.7c-9.6,0.3-18.5-0.1-27.2-1.4c-3.4-0.5-6.1-0.5-8.8,2.4c-3,3.2-7,7.7-10.6,7.6
		c-3.7,0-5.9-6.1-8.7-9.5c-5.6-6.8-10.9-13.9-16.5-20.7c-2.3-2.7-1.7-3.6,1.6-4.4c11.1-2.7,22.3-5.5,33.3-8.5c2.9-0.8,4,0.2,4.4,2.8
		c0,0.2,0.1,0.3,0.1,0.5c3.4,12.8,3.4,12.8,17,13.4c10.5,0.4,21,0.4,31.4-1c3.4-0.4,4.6,0.8,4.7,3.9c0,1.3,0.3,2.6,0.6,3.9
		c1.7,9.4,1.7,9.4-8,10.1C159.9,335.2,155.3,335.4,151.4,335.7z"/>
	<path class="st0" d="M124.8,359.9c13.2-3.4,25.7-6.6,38.2-9.8c1.7-0.4,2.9-0.2,3.1,1.9c0.1,1.3,0.6,2.6,1,3.9
		c2.5,9.9,2.5,10.1,12.9,10.8c11.6,0.9,23.3,0.6,34.9-0.8c3.3-0.4,4.3,0.6,4.7,3.7c1.7,15.7,5.8,12.7-11.4,14.4
		c-13.5,1.3-26.9,0.8-40.3-1.3c-1.1-0.2-1.6-0.2-2.6,0.9c-3.4,3.4-7.4,6.2-11.1,9.3c-1.2,1-2,1.3-3.2-0.2
		C142.3,381.9,133.7,371.2,124.8,359.9z"/>
	<path class="st0" d="M503,357.1c-24.7-22.4-50.9-42.9-77.9-62.4c-3.3-2.4-4.6-4.3-1.3-7.5c2.4-2.3,1.7-4-1.1-5.7
		c-4.2-2.6-8.3-5.5-12.3-8.6c-2.3-1.7-3.7-1.7-4.9,1c-1.9,4.3-4.2,3.9-7.8,1.4c-18.9-13.3-37.9-26.6-60.3-33.5
		c-5-1.6-7.3-3.7-5.2-8.9c1.1-2.8,0.1-3.6-2.8-4.1c-10-1.6-20-3.4-29.9-5.4c-4.2-0.9-6.7-0.4-6.6,4.6c0,3-1.2,4.7-4.9,4.4
		c-12.9-0.8-25.6,0.4-38.3,2.7c-23.4,4.3-45.5,12.2-65.7,25.6c1.1,1.2,2,2.4,3.1,3.4c65.5,65.5,131,131,196.4,196.5
		c2.1,2.1,4.1,2.8,7,2.6c20.1-1.5,40.2-2.9,60.3-4.1c2.6-0.2,3.8-1.5,5.1-3.3c16.7-23.4,33.5-46.9,50.2-70.3
		C513.5,375.2,512.4,365.7,503,357.1z M449.8,388.8c-6.8,10.8-16.8,18.3-27.7,24.7c-2.1,1.3-4.2,0.6-6.3,0.2
		c-6.4-1.2-12.7-2.5-19.1-3.8c-2.3-0.5-4.3-1.3-6.1-3.1c-33.4-32.1-66.8-64.1-100.4-96c-3-2.9-3.4-4.6-0.1-7.2
		c2.5-1.9,4.9-4.2,6.7-6.7c6.7-9.5,16.4-10.9,26.9-10.6c21.4,0.5,40.5,8.3,58.7,18.9c24.2,14.1,45,32.6,64.6,52.4
		C455.9,366.5,456.8,377.8,449.8,388.8z"/>
</g>
</svg>
