<?xml version="1.0" encoding="utf-8"?>
<!-- Generator: Adobe Illustrator 19.0.0, SVG Export Plug-In . SVG Version: 6.00 Build 0)  -->
<svg version="1.1" id="Calque_1" xmlns="http://www.w3.org/2000/svg" xmlns:xlink="http://www.w3.org/1999/xlink" x="0px" y="0px"
	 viewBox="0 0 612 792" style="enable-background:new 0 0 612 792;" xml:space="preserve">
<path d="M532.8,414.7c-2.6-2.8-5.6-5.3-8.6-7.6c-65.7-49.5-131.3-99-197.3-148.1c-8.3-6.1-12.1-12.1-11-22.4c1-8.5,0.2-8.6,8.3-11.7
	c23.7-9.2,38-34.4,33.3-58.9c-5-26.3-26.9-44.5-53.3-44.1c-25.9,0.4-47.9,19.2-52,44.5c-1.4,8.7-1.4,8.7,7.2,8.7c2,0,4,0,6,0
	c7.8,0,7.8,0,9.6-7.3c3.8-16,19.7-26.1,36.2-22.8c15.9,3.1,26.8,19,24.1,34.9c-2.2,12.7-9.8,20.6-21.7,25
	c-13.6,5-19.9,14.1-19.8,28.4c0,3.5-0.3,7,0.1,10.5c0.6,5.1-1.5,8.1-5.5,11.1C220.6,305.5,153,356.4,85.4,407.2
	c-4.7,3.5-9.1,7.3-12.1,12.4c-5.7,9.9-2,20.8,8.4,25.3c5.1,2.2,10.6,2.8,16.1,2.8c19.8,0,39.7,0.1,59.5-0.1c4.1,0,5.2,0.8,5.2,5.1
	c-0.2,44.5-0.2,89-0.1,133.5c0,20,12.9,32.8,32.8,32.8c35.2,0,70.3,0,105.5,0c35.8,0,71.6,0.1,107.5,0c14.9,0,26.9-9.7,30.3-24.1
	c1-4.1,0.7-8.3,0.7-12.4c0-43.2,0.1-86.3-0.1-129.5c0-4.6,1.3-5.4,5.6-5.3c21.8,0.2,43.7,0.1,65.5,0.1c3.7,0,7.3-0.2,10.9-0.8
	c7.5-1.3,14.1-4.3,17-12.1C540.9,427,538,420.4,532.8,414.7z M416.8,584.3c0,9.9-2.3,12.2-12,12.2c-69.6,0-139.3,0-208.9,0
	c-8.1,0-10.9-2.8-10.9-10.7c0-56,0-112,0-167.9c0-8.4,2.6-10.9,11.1-10.9c35,0,70,0,105,0c34.8,0,69.6,0,104.5,0
	c8.6,0,11.3,2.7,11.3,11.4C416.8,473.7,416.8,529,416.8,584.3z M441.8,425.1c-2.4,0-2.6-1.2-2.6-3.1c-0.1-4.3,0.2-8.7-0.6-12.9
	c-3-15-15.5-24.6-31.9-24.6c-36.6-0.1-73.3,0-109.9,0c-33.3,0-66.6,0-99.9,0c-4.8,0-9.6,0.2-14.2,2c-12.7,4.8-20,15.9-20.1,30.9
	c-0.1,7.8-0.1,7.8-7.8,7.8c-18,0-36,0-54,0c-0.3-1.8,1.2-2,1.9-2.6c66.4-49.9,132.7-99.8,199.1-149.8c2.1-1.6,3.5-2.3,6-0.4
	c67.1,50.6,134.3,101.1,201.4,151.6c0.1,0.1,0.2,0.2,0.9,1.1C486.7,425.1,464.3,425.1,441.8,425.1z"/>
</svg>
