<?xml version="1.0" encoding="utf-8"?>
<!-- Generator: Adobe Illustrator 19.0.0, SVG Export Plug-In . SVG Version: 6.00 Build 0)  -->
<svg version="1.1" id="Calque_1" xmlns="http://www.w3.org/2000/svg" xmlns:xlink="http://www.w3.org/1999/xlink" x="0px" y="0px"
	 viewBox="0 0 612 792" style="enable-background:new 0 0 612 792;" xml:space="preserve">
<g>
	<path d="M491,614c-4.3,0-8.7,0-13,0c-0.4-0.2-0.9-0.6-1.3-0.7c-18.5-3.9-30.5-15.1-34.3-33.4c-3.8-18.2,2.9-33,18-43.9
		c1-0.7,2.2-1.9,2.3-2.9c0.2-8.4,0.1-16.9,0.1-25.4c-99.9,0-199,0-298.6,0c0,7.2,0.2,14-0.1,20.8c-0.2,4,1,6.5,4.4,9.1
		c13.8,10.6,19.5,24.8,16.2,41.8c-3.2,16.7-13.6,27.8-30,32.9c-1.9,0.6-3.8,1.1-5.7,1.7c-4.3,0-8.7,0-13,0c-0.6-0.3-1.1-0.8-1.7-0.9
		c-17.7-4.3-29.2-15.2-33-32.9c-3.9-18.2,2.7-33,17.7-44c1-0.7,2.5-1.8,2.5-2.8c0.2-8.6,0.1-17.2,0.1-26.1c-7.7,0-14.7,0-21.7,0
		c-6.4,0-11.7-2.5-15.7-7.4c-2.1-2.6-3.5-5.9-5.3-8.8c0-53,0-106,0-159c4.6-12.8,14-17.4,27.2-16.9c14.6,0.5,29.3,0.1,44,0.1
		c1.7,0,3.5,0,5.8,0c-4.1-12.4-8-23.8-11.8-35.4c-3.3-10.2,0-19.5,8.9-25.2c2.1-1.3,2.6-2.4,2.4-5.1c-0.9-12.4-2.9-25.1-1.4-37.2
		c6.5-51.9,34.9-86.9,84.3-104.4c8.2-2.9,17-4.1,25.6-6c7.7,0,15.3,0,23,0c1.1,0.3,2.2,0.7,3.3,0.9c41,5.7,72,26.3,92.6,62.2
		c8.4,14.5,4.8,26.2-10.1,33.9c-31.3,16.3-62.6,32.6-93.8,49c-1.4,0.7-2.7,1.6-4.1,2.3c0.1,0.3,0.2,0.6,0.2,0.9c1.8,0,3.5,0,5.3,0
		c45.7,0,91.3,0,137,0c18.4,0,27.9,13.4,22,30.9c-3.1,9.3-6.2,18.6-9.3,27.9c-0.5,1.5-0.8,3-1.4,5.1c2.5,0,4.3,0,6.1,0
		c28.7,0,57.3,0.3,86-0.2c13.2-0.2,22.6,4.1,27.2,16.9c0,53,0,106,0,159c-4.9,12.5-14.2,17.6-27.5,16.3c-4.9-0.5-9.8-0.1-15.3-0.1
		c0,8,0.1,15.3-0.1,22.6c-0.1,3.1,0.9,5.1,3.5,7c14.4,10.7,20.6,25.2,17,42.8c-3.5,17.4-14.6,28.3-31.6,33.2
		C493.1,613.1,492,613.6,491,614z M194,294.2c1.9,5.8,3.9,11.1,5.3,16.5c0.9,3.5,2.6,4.6,6.3,4.6c28.6-0.2,57.3-0.1,85.9-0.1
		c29.1,0,58.3,0,87.4-0.1c1.7,0,4.5-0.7,4.9-1.8c2.5-6.1,4.3-12.5,6.5-19.1C324.7,294.2,259.7,294.2,194,294.2z"/>
</g>
</svg>
