<?xml version="1.0" encoding="utf-8"?>
<!-- Generator: Adobe Illustrator 19.0.0, SVG Export Plug-In . SVG Version: 6.00 Build 0)  -->
<svg version="1.1" id="Calque_1" xmlns="http://www.w3.org/2000/svg" xmlns:xlink="http://www.w3.org/1999/xlink" x="0px" y="0px"
	 viewBox="0 0 612 792" style="enable-background:new 0 0 612 792;" xml:space="preserve">
<style type="text/css">
	.st0{fill:#FD9B9B;}
	.st1{fill:#FDDD55;}
</style>
<g>
	<path class="st0" d="M135,490.2c0-37.2,0.1-74.3-0.1-111.5c0-9.7,4.4-16.3,12.8-20.2c22.3-10.4,44.8-20.4,67.2-30.6
		c55.1-25.1,110.2-50.1,165.4-75.1c7.4-3.4,7.4-3.3,6.7-11.5c-3.9-45-37.7-85.2-81.9-97.5c-34.1-9.5-66.7-5.9-96.9,12.7
		c-29,17.9-46.2,44.3-52.2,77.9c-1.2,6.7-2,13.5-2,20.3c0,6.3-4.6,11.2-10.3,11.2c-5.2,0-9.8-5.2-9.7-11.2
		c0.4-30.9,10.4-58.5,29.5-82.5c22.1-27.8,50.4-45.5,85.7-51.4c33-5.6,63.9,0.7,92.3,18.3c32.4,20.1,53.5,48.9,63,85.9
		c1.9,7.2,2.8,14.7,3.4,22.1c0.7,9.2-3.8,16.8-12.5,20.8c-29.1,13.3-58.1,26.4-87.2,39.7c-48.8,22.2-97.5,44.4-146.3,66.4
		c-5.4,2.4-7,5.3-7,11.1c0.2,71.1,0.2,142.3,0,213.5c0,4.5,1.3,5.5,5.6,5.5c57.5-0.1,115-0.1,172.5-0.1c4.4,0,8.4,0.6,10.7,4.8
		c3.7,6.8-0.7,14.5-8.7,15.1c-2.8,0.2-5.7,0.1-8.5,0.1c-56.3,0-112.6-0.3-169,0.2c-11.2,0.1-23-9.8-22.8-22.9
		C135.5,564.2,135,527.2,135,490.2z"/>
	<path class="st1" d="M271.2,402.1c6.9-0.4,13.6,0.5,20.2,2.6c6.4,2,9.4,6.4,8.1,11.7c-1.5,6.2-6.2,9.2-13,7.5
		c-5.7-1.4-11.4-2.1-17.3-2c-35.5,0.4-58.6,32.6-50.7,66.9c1.1,4.7,3,9.1,5.2,13.4c1.8,3.4,2.9,3.8,5.9,0.8
		c19.8-20,39.7-39.9,59.6-59.8c6.2-6.2,12.5-12.5,18.7-18.8c5.8-5.8,12.1-5.3,17.5,1c12.6,14.7,19.5,31.6,19.5,51.1
		c-0.1,33.1-26.6,64.8-59.1,71.5c-11.5,2.4-22.8,2.1-34-0.9c-4.6-1.2-7-4.6-7.3-9c-0.3-4.3,1.8-7.7,5.9-9.6c2.9-1.3,5.9-0.8,8.8-0.2
		c36.3,7.4,66.6-17.7,65.7-54.7c-0.2-8.6-2.4-16.7-6.6-24.3c-2-3.6-3-4-6.1-0.9c-25.6,25.8-51.3,51.4-77,77.1
		c-7.6,7.6-12.7,7.7-19.5-0.5c-17.5-21.4-24.2-45.6-14.6-72.2c9.7-26.8,29-43.6,57.1-49.8c1.6-0.4,3.3-0.8,4.9-0.9
		C265.8,401.9,268.5,402.1,271.2,402.1z"/>
	<path class="st0" d="M407,452.3c0,49.8-0.3,99.7,0.2,149.5c0.1,12.4-11.4,23.5-22.3,22.2c-3.9-0.5-8,0.1-12-0.2
		c-5.9-0.4-10.2-5.1-10-10.4c0.3-5.8,4.3-9.4,10.6-9.5c2.7,0,5.4-0.3,8,0c4.6,0.6,5.5-1.4,5.4-5.6c-0.1-64.3-0.1-128.7-0.1-193
		c0-35.3,0-70.7,0-106c0-6.7,3.3-10.9,8.7-11.4c6.9-0.6,11.3,3.6,11.3,11.3c0.1,20.8,0,41.7,0,62.5C407,392,407,422.1,407,452.3z"/>
</g>
</svg>
