<?xml version="1.0" encoding="utf-8"?>
<!-- Generator: Adobe Illustrator 19.0.0, SVG Export Plug-In . SVG Version: 6.00 Build 0)  -->
<svg version="1.1" id="Calque_1" xmlns="http://www.w3.org/2000/svg" xmlns:xlink="http://www.w3.org/1999/xlink" x="0px" y="0px"
	 viewBox="0 0 612 792" style="enable-background:new 0 0 612 792;" xml:space="preserve">
<g>
	<path d="M454.2,496.4c-64.3-47.6-128.3-95.1-192.7-142.8c-9.6,12.9-19,25.6-28.5,38.5c2,1.5,3.8,2.8,5.5,4.1c4.8,3.8,5.4,8,1.8,13
		c-5.8,7.9-11.6,15.8-17.6,23.7c-3.8,5-7.8,5.6-12.9,1.8c-25.1-18.5-50.1-37-75.1-55.6c-5.1-3.8-5.6-7.7-1.9-12.9
		c5.6-7.7,11.2-15.3,16.9-22.9c4.6-6.1,8.1-6.7,14.3-2.2c1.5,1.1,2.9,2.1,4.7,3.4c28.6-38.6,56.9-76.8,85.6-115.5
		c-2-1.6-4-3-5.9-4.6c-4.1-3.3-4.9-7.6-1.8-11.9c6-8.4,12.1-16.7,18.4-24.9c3.6-4.7,7.7-4.9,13-1c22.2,16.4,44.4,32.9,66.7,49.4
		c2.9,2.2,6,4.3,8.8,6.6c3.9,3.2,4.7,7,1.9,11c-6.3,8.8-12.7,17.5-19.4,26.1c-3,3.9-6.9,4.1-11.1,1.3c-2.1-1.4-4-2.9-6.3-4.5
		c-9.5,12.9-18.8,25.4-28.5,38.5c64.3,47.6,128.3,95,192.7,142.7c1.4-1.8,2.7-3.4,4-5.1c4.2-5.4,8.5-6.1,13.6-1.6
		c12.4,10.8,17.3,24.4,13.4,40.4c-3.9,15.8-14.3,25.6-30.1,29.5c-10.7,2.6-20.9,0.6-30.2-5.3c-6.4-4-7.1-8.3-2.7-14.5
		C451.9,499.7,452.9,498.2,454.2,496.4z"/>
	<path d="M155,584c-20.5,0-41,0-61.5,0c-7.9,0-10.5-2.6-10.5-10.4c0-14.5,0-29,0-43.5c0-7.2,2.9-10.6,9.8-10
		c7.8,0.7,13.9-1.3,18.5-7.8c5-7.1,11.9-8.8,20.4-8.5c17.6,0.6,35.3,0,53,0.4c3.3,0.1,6.5,2.4,9.7,3.9c1,0.5,1.8,1.5,2.5,2.4
		c5.5,7.3,12.2,11,21.7,9.7c5.2-0.7,8.4,3,8.4,8.3c0.1,15.7,0.1,31.3,0,47c0,5.6-3.3,8.5-9.4,8.5C196.7,584,175.9,584,155,584z"/>
</g>
</svg>
