<?xml version="1.0" encoding="utf-8"?>
<!-- Generator: Adobe Illustrator 19.0.0, SVG Export Plug-In . SVG Version: 6.00 Build 0)  -->
<svg version="1.1" id="Calque_1" xmlns="http://www.w3.org/2000/svg" xmlns:xlink="http://www.w3.org/1999/xlink" x="0px" y="0px"
	 viewBox="0 0 612 792" style="enable-background:new 0 0 612 792;" xml:space="preserve">
<g>
	<path d="M263,598.4c-64-49.8-127.7-99.3-192-149.3c11.8-9.2,23-17.9,34.5-26.9c52.4,40.8,104.7,81.4,157.2,122.3
		c25.1-19.5,50-38.9,74.8-58.2c-10.2-10.2-20.1-20.1-30.4-30.4c-14.3,11.1-29,22.5-44.2,34.3C199.2,440.7,135.4,391.1,71,341
		c23-17.9,45.6-35.5,68.3-53.2c-30.1-30.1-59.9-59.9-89.6-89.6c9.4-9.4,18.2-18.2,26.6-26.6c132.8,132.8,265.8,265.8,398.6,398.6
		c-8.2,8.1-17.1,16.8-25.9,25.5c-26.1-26.1-52.9-52.9-79.9-79.9C333.4,543.6,298.4,570.8,263,598.4z"/>
	<path d="M263,191.7C327,241.5,390.7,291,455,341c-29,22.5-57.5,44.7-85.6,66.5c-56.1-56.1-111.9-111.9-168-168
		C221.6,223.8,242.1,207.9,263,191.7z"/>
	<path d="M399.9,437.8c7.9-6.2,16.2-12.6,24.1-18.7c10.1,10.1,20,19.9,30.5,30.3c-8,6.3-16.3,12.7-24.2,18.8
		C420,458,410.1,448,399.9,437.8z"/>
</g>
</svg>
