<?xml version="1.0" encoding="utf-8"?>
<!-- Generator: Adobe Illustrator 19.0.0, SVG Export Plug-In . SVG Version: 6.00 Build 0)  -->
<svg version="1.1" id="Calque_1" xmlns="http://www.w3.org/2000/svg" xmlns:xlink="http://www.w3.org/1999/xlink" x="0px" y="0px"
	 viewBox="0 0 612 792" style="enable-background:new 0 0 612 792;" xml:space="preserve">
<g>
	<path d="M307.3,480.7c-7.8,0-14.9,0-22.6,0c-0.1,2-0.4,3.9-0.4,5.8c0,53.5,0,107,0,160.5c0,11.2-3.3,14.6-14.6,14.6
		c-5.2,0-10.3,0.1-15.5,0c-8.5-0.1-12.5-3.9-12.5-12.6c-0.1-32.7,0-65.3,0-98c0-3,0-5.9,0-9.5c-3.8,0-6.9,0-10,0
		c-11.8-0.2-17.9-6.2-17.9-17.9c-0.1-28.2,0-56.3,0-84.5c0-2.1,0-4.2,0-6.4c-6.6,0.6-9,4.5-9.9,10c-0.7,4.4-2.9,7.7-7.4,9.2
		c-6.5,2.2-13.3-2.2-13.5-9c-0.1-2.4,0.6-4.9,1.1-7.3c0.7-3.4,2.7-6.8-1.2-9.9c-0.8-0.6-0.6-3.2-0.1-4.6
		c10.1-35.7,20.2-71.4,30.5-107c3.4-11.7,13.4-19,25.7-19.2c10.5-0.1,21-0.1,31.5,0.1c3.3,0.1,5.1-0.8,4.6-4.4c0-0.2,0-0.3,0-0.5
		c0.7-8.6-0.6-16-6.9-23.2c-8.3-9.5-11.8-21.7-13-34.8c15.9-1.3,29.8-6.6,41-18.6c11,11.6,24.6,17.2,40.5,18.5c0,2.1,0.3,4,0,5.9
		c-2.4,12.3-6.9,23.7-15.3,33.1c-3.2,3.5-4.5,7-4.2,11.6c0.2,3.9,0.1,7.9,0.1,12.2c14.5,0,28.1,0.1,41.7,0c6.9,0,12.4,2.7,16.2,8.2
		c1.7,2.5,2.8,5.6,3.7,8.6c3.2,11,6.3,22,9.6,33.8c4-1.5,7.7-2.8,11.4-4.2c5.3-2,10.6-4.1,15.9-6c3.5-1.3,6.9-3.6,10.6,0.1
		c0.6,0.6,2.7-0.3,4.2-0.6c-4.1-6.3-3.7-8,3.5-10.4c4.8-1.6,10-2.3,15.1-3c3-0.4,4.4-1.4,4.3-4.6c-0.1-16.8-0.1-33.7,0-50.5
		c0-3.1-1-4.6-4.3-4.6c-9.3,0.1-18.6,0-28.9,0c0.8,2.6,1.1,4,1.7,5.2c3.4,8.1,6.7,16.3,10.3,24.4c0.8,1.7,2,3.4,3.4,4.7
		c2.7,2.4,2.3,4.4-0.7,5.7c-2.5,1.1-5.4,2.2-8.1,2.2c-8.9-0.1-17.9-0.1-26.7-1.4c-5.8-0.8-6-3.4-1.9-7.4c1.4-1.4,2.4-3.2,3.4-4.8
		c5.2-8.5,10.2-17.2,15.5-25.6c1.1-1.8,3.2-3.4,5.1-4c9.8-3.3,19.6-6.7,29.6-9c6.1-1.4,12.5-1.2,18.8-1.5c4-0.2,8-0.1,12-0.2
		c10.7-0.1,10.7-0.1,15,9.8c2.9,6.7,5.8,13.4,8.9,20.1c0.8,1.7,2,3.4,3.5,4.7c3.1,2.8,2,4.9-1.1,5.9c-4.2,1.3-8.7,2.6-13.1,2.6
		c-7.3,0-14.6-0.6-21.7-1.9c-5.5-1.1-5.8-3.7-1.4-7.3c0.4-0.3,0.8-0.6,1.1-1c5.7-10.1,11.4-20.2,16.4-31.3
		c-7.4,2.3-14.8,4.5-22.1,6.8c-11.6,3.8-9.8,1-9.9,13.4c-0.1,14.7,0.1,29.3-0.1,44c-0.1,4,1.3,5.4,5.3,6c6,1,11.9,2.7,17.7,4.5
		c1.4,0.4,3.3,2.5,3.3,3.8c-0.1,1.3-2,3-3.5,3.7c-8,3.9-16.6,4.5-25.3,4.5c-2.8,0-5.6,0-8.9,0c2.6,10.7-5,13.2-11.5,15.3
		c-3.7,12.5-7,24.2-10.6,35.9c-13.9,46-27.8,92-41.7,138c-3.2,10.5-8.1,14.2-19.4,14.2c-4.1,0-8.3,0-13.2,0c0,2.4,0,4.3,0,6.3
		c0,32.8,0,65.7,0,98.5c0,12.3-3,15.3-15.3,15.3c-4.7,0-9.3,0-14,0c-9.4,0-13.4-4-13.4-13.3c0-27.3,0-54.7,0-82
		c0-26.8,0-53.7,0-80.5C307.3,484.2,307.3,482.8,307.3,480.7z M313.5,446.5c1.1-50.4,2.1-100.4,3.2-150.7c-4.2,2.4-7.5,4.7-11.1,6.1
		c-2.7,1.1-4.1,2.5-4.3,5.3c-0.1,2.3-0.4,4.7-0.4,7c0.6,16.3,0.9,32.6,2.2,48.9c0.6,7.3-2.9,11.8-7.9,17.7
		c-2.4-4.9-6.2-9.1-6.2-13.3c0-16.3,1.2-32.6,1.8-48.9c0.2-4.1-0.2-8.3-0.6-12.4c-0.1-1.1-0.9-2.6-1.9-3.1
		c-4.3-2.4-8.7-4.4-13.8-6.9c1.3,50.1,2.6,100.1,3.9,150.4C290.2,446.5,301.3,446.5,313.5,446.5z M430.7,293
		c-3.9-9.1-7.7-18.2-12-28.3c-5.9,9.9-11.3,18.9-16.9,28.3C411.8,293,420.9,293,430.7,293z M492.3,252.7
		c-5.7,10.1-10.8,19.3-16,28.7c9.9,0,19,0,28.7,0C500.8,272,496.8,263,492.3,252.7z"/>
	<path d="M296,206.3c-10.6,12.9-23.7,20-40.9,20.7c0.9-15.8,6.3-28.9,19.2-37.9c12.7-8.9,26.5-9.8,40-2.1
		c15,8.6,21.4,22.5,22.6,39.9C319.8,226.5,306.6,219.4,296,206.3z"/>
</g>
</svg>
