<?xml version="1.0" encoding="utf-8"?>
<!-- Generator: Adobe Illustrator 19.0.0, SVG Export Plug-In . SVG Version: 6.00 Build 0)  -->
<svg version="1.1" id="Calque_1" xmlns="http://www.w3.org/2000/svg" xmlns:xlink="http://www.w3.org/1999/xlink" x="0px" y="0px"
	 viewBox="0 0 612 792" style="enable-background:new 0 0 612 792;" xml:space="preserve">
<g>
	<path d="M74,466c2.2-3.5,3.9-7.5,6.7-10.3c11.5-11,13-24.5,10.8-39.2c-0.8-5.1-1.6-10.2-2.6-15.3c-3.3-18.1,0.9-35.5,4.7-52.9
		c6.4-29.8,14.7-59.1,20.3-89c4.6-24.3,6.6-49.1,9.6-73.7c0.2-1.3-0.6-3.2-1.6-4.2c-6.1-6-7-13.4-2-19c4.7-5.2,12.8-5.6,18-0.9
		c5.5,5,5.5,12.4-0.2,19.1c-0.2,0.3-0.4,0.6-0.6,0.9c9.7,20.6,13.8,42.6,16.4,65c1.8,15.4-2.2,30-7.1,44.5
		c-3.5,10.4-6.7,20.9-9.7,31.4c-2,7.2-1.2,14.5,2.6,20.8c15.1,25.2,14.3,52.2,8.9,79.5c-2.7,13.5-7.8,26.4-11.6,39.7
		c-1,3.3-1.6,6.8-1.6,10.2c-0.1,53.3-0.1,106.7-0.1,160c0,2,0,3.9,0,5.3c12.3,1.8,24,3.2,35.5,5.4c8.3,1.6,11.2,3.9,13.9,9.2
		c-3.9,0.9-7.4,2-11,2.4c-6.7,0.9-13.5,1.4-20.3,2.1c-16,0-32,0-48,0c-2.4-0.3-4.9-0.7-7.3-1c-5.9-0.7-11.9-1.2-17.8-2.1
		c-1.7-0.3-3.2-1.8-4.8-2.7c1.3-1.4,2.2-3.6,3.8-4.2c4.7-2,9.6-4,14.6-4.8c9.9-1.7,20-2.7,30.2-4c0-40.4,0-81,0-121.6
		c-0.9,1.5-1.3,3.1-1.7,4.7c-3,10.9-5.9,21.8-9.2,32.6c-0.7,2.2-3.1,5.4-4.8,5.5c-2,0.1-4.3-2.6-5.9-4.5c-1.4-1.7-2.5-4-3.1-6.2
		c-1.8-6.7-3.9-13.4-4.9-20.3c-1.7-11.5-2.2-23.1-8.3-33.6c-4.5-7.9-7.9-16.4-11.8-24.6C74,468.7,74,467.3,74,466z"/>
	<path d="M538,357c-31.3-0.1-62.6-0.2-93.9-0.2c-73.8,0-147.6,0-221.3,0.1c-4.2,0-5.6-1.3-5.2-5.4c0.3-3.8,0.1-7.6,0.1-12.2
		c2.2,0,4,0,5.7,0c102.6,0,205.2,0,307.8,0c2.3,0,4.6,0.4,6.9,0.6C538,345.7,538,351.3,538,357z"/>
	<path d="M400,145c11.1,3.5,16.9,11.7,19.8,22.4c0.3,1.2,1.2,2.8,2.3,3.3c12.2,5.2,13.7,14.1,3.6,23c8.8,8.6,8.8,14.8,0.9,21.6
		c1.9,4.3,4.6,8.1,5.2,12.3c0.4,2.6-1.5,6.2-3.4,8.3c-4.5,5.1-12.8,4.5-17.3-0.6c-5.1-5.9-3.7-13.1,3.7-18.8c-9-9.1-9-14.1-0.8-22.1
		c-2.5-4.4-4.8-8.6-7.4-13.2c-18.8,7.6-38.8,7.8-57.9-0.1c-2.5,4.6-4.8,8.9-7.3,13.4c8.2,8,8.2,13.2-0.9,22
		c7.4,5.8,8.8,13.4,3.4,19.2c-4.7,5.1-13.1,5-17.8-0.2c-5.2-5.8-3.8-13.3,2.7-18.2c-2-4.2-5.2-8.2-5.3-12.2
		c-0.1-3.9,3.1-7.8,5.1-12.2c-4.1-3-7.3-7.9-4.5-14.4c1.1-2.5,3.4-5.6,5.8-6.3c4.3-1.4,5.7-3.9,6.8-7.8c2.7-9.6,8.9-16.1,18.4-19.3
		c3.7,0,7.3,0,11,0c7.7,4.1,15.3,4.4,23,0C392.7,145,396.3,145,400,145z"/>
	<path d="M458,214.5c-1,6.8-7.1,4.1-10.6,6.9c-2.6-9.4-5-18-7.7-27.4c4.6,0.6,8.5-5.6,12.7,0.5c7.7-5.7,10.6-6.6,22.3-6.6
		c0.8-6.7,7-4,10.8-6.8c2.6,9.3,5,17.9,7.7,27.4c-4.6-0.5-8.5,5.4-12.6-0.2c-6.3,1.7-6.6,5.7-4.5,11c1.5,4,2.5,8.2,3.7,12.6
		c1.7,0,3.2,0,4.6,0c10.1,0.4,16.7,10.8,12.6,20.1c-0.7,1.7-1.8,3.2-2.8,4.7c-5,7.4-5,7.4-3.8,15.2c-0.4,0.2-0.8,0.7-1.2,0.8
		c-7.2,0.4-11.9,4.9-16.9,9.5c-12.8,11.7-21.7,14.4-41.1,13.6c4.1,13.2,8.2,26.3,12.4,39.9c-14.6,0-28.4,0-43.1,0
		c4.6-9,9-17.6,13.7-26.7c-15.2-7.9-30.2-15.7-45.6-23.7c-1.7,3.3-3.6,6.3-4.9,9.5c-1.5,3.9-3.8,5-7.7,3.9c-2-0.6-4.2-0.4-6.6-0.7
		c-1.2,9.7-2.4,18.9-3.7,28.7c-9.2-3.8-17.8-7.7-23.8-15.5c-1.1-1.5-1.4-4.4-0.9-6.3c1.5-5.6,3.5-11,5.5-16.8
		c-12.9,8.9-14,22.5-1.6,31c8.2,5.7,17.9,9.4,26.9,13.9c1.7,0.9,3.6,1.4,5.3,2.9c-13.7,0-27.5,0-41.2,0c-2,0-4.1-0.3-6,0.1
		c-9.8,2.1-14.5-3.7-18.4-11.4c-6.2-12.3-6.2-24.8-0.4-37.1c9.2-19.4,25-32.7,43.1-43.1c5.7-3.3,12.2-3.3,18.7,1.3
		c14.9,10.6,35.1,10,50.2-0.5c7.4-5.2,16.7-3.4,21.6,4.2c2.6,4.1,4.5,8.6,7.3,12.4c4.7,6.3,8.9,7,15.5,2.7
		c10-6.4,16.9-15.9,23.5-25.6c0.6-0.9,0.4-2.5,0.1-3.7c-1.1-4.5-2.8-8.9-3.5-13.5C466.7,215.9,464,213.1,458,214.5z"/>
	<path d="M346.2,193.9c1-1.6,1.9-2.8,2.6-4.1c0.6-1.1,1.1-2.4,1.9-4c17.9,6,35.8,6.1,53.6,0c1.5,2.7,2.9,5.1,4.5,8
		c-5.2,7-6,14.5,0.2,22.3c-4.4,5.9-5.9,12.3-2.4,19.4c0.4,0.8-0.9,2.9-2,3.9c-16.1,14.5-41.2,13.4-56.2-2.4c3.5-10.9,3.3-13-2-20.6
		C351.8,209.1,352.6,201.6,346.2,193.9z"/>
	<path d="M496.7,335.6c-13.3,0-26.7,0-40,0c-0.9-6.9,1.6-10.2,8-10.3c7.8-0.1,15.6-0.1,23.4,0C495,325.3,497.4,328.2,496.7,335.6z"
		/>
	<path d="M228.7,360.7c0,3,0,5.6,0,8.8c4.2,0,8.1,0,12.4,0c0,2.4,0,4.2,0,6.1c0,42.3,0,84.6,0,127c0,51.5-0.1,103-0.1,154.5
		c91,0,182,0,273,0c0-95.7,0-191.5,0-287.8c4.6,0,8.6,0,12.6,0c0-3.2,0-5.8,0-8.6C427.2,360.7,328,360.7,228.7,360.7z M360.5,627.9
		c-30.1,0-60,0-90.3,0c0-79.6,0-159.3,0-239.4c29.9,0,59.8,0,90.3,0C360.5,468.4,360.5,547.9,360.5,627.9z M479.6,628
		c-30.3,0-60.2,0-90.4,0c0-79.9,0-159.4,0-239.4c30,0,60.1,0,90.4,0C479.6,468.3,479.6,547.8,479.6,628z"/>
	<path d="M275.5,394c26.5,0,52.7,0,79.3,0c0,76.3,0,152.3,0,228.6c-26.4,0-52.6,0-79.3,0C275.5,546.7,275.5,470.7,275.5,394z"/>
	<path d="M394.7,394c26.5,0,52.7,0,79.3,0c0,76.3,0,152.3,0,228.6c-26.4,0-52.6,0-79.3,0C394.7,546.7,394.7,470.7,394.7,394z"/>
</g>
</svg>
