<?xml version="1.0" encoding="utf-8"?>
<!-- Generator: Adobe Illustrator 19.0.0, SVG Export Plug-In . SVG Version: 6.00 Build 0)  -->
<svg version="1.1" id="Calque_1" xmlns="http://www.w3.org/2000/svg" xmlns:xlink="http://www.w3.org/1999/xlink" x="0px" y="0px"
	 viewBox="0 0 612 792" style="enable-background:new 0 0 612 792;" xml:space="preserve">
<g>
	<path d="M268.6,476.2c-21.6-11.1-37.5-26.8-49.6-47c-7,8.7-15.2,14.5-26,16.2c-15.1,2.4-27.7-2.4-37.4-14.1
		c-9.4-11.5-11.2-24.6-6.4-38.5c1.1-3.1,1.1-5.4-0.1-8.4c-3.4-9.1-3-18.2-0.1-27.4c0.7-2.3,0.9-5.2,0.1-7.4
		c-7.1-19.6,1.6-41.3,20.6-50c3.3-1.5,3.6-3.2,3.7-6.4c0.6-20.1-1.9-40.5,3.7-60.1c8.5-30.2,28.4-49.9,58.7-57.5
		c30.1-7.6,56.6,0.5,78.6,22.7c1.2,1.2,2.2,2.5,3.4,3.7c0.2,0.2,0.5,0.4,0.7,0.5c5.9-5.1,11.5-10.6,17.8-15
		c48.8-34.6,119.5-3.6,126.5,55.9c1.9,16.6,1.4,33.6,1.7,50.4c0.1,3.1,0.7,4.6,3.6,5.9c19.3,8.9,27.8,30.5,20.5,50.4
		c-0.7,1.9-0.6,4.5,0.1,6.5c3.3,9.8,3.5,19.5-0.2,29.3c-0.6,1.7-0.7,3.9-0.1,5.6c7.1,19.2,0.5,39-16.4,49.2
		c-16.9,10.1-37.5,6.5-51-9c-0.5-0.6-1.1-1.2-2-2.2c-12.1,20.1-28,35.8-49.5,46.8c2.1,1,3.5,1.7,4.9,2.3
		c23.6,10.7,45.1,24.4,62,44.4c12.3,14.6,19.6,31.1,18.8,50.7c-0.5,13.5-0.1,27-0.1,40.5c0,1.6,0,3.3,0,5.2c-90.9,0-181.3,0-272.3,0
		c0-2.1,0-4.1,0-6c0-12.5,0.5-25-0.1-37.5c-1.3-23.7,8.5-42.6,24.4-59.1c16.1-16.7,35.4-28.6,56.3-38.1
		C264.8,477.9,266.1,477.3,268.6,476.2z M316.3,295.8c-32.5,0.8-62.6,11.5-86.8,31c-2.5,2-3.6,4-3.7,7.5c-0.2,5.2-1.8,10.4-2.5,15.6
		c-0.3,2.1-0.2,4.4,0,6.6c0.7,6.9,2.7,13.8,2,20.5c-0.6,5.7-0.9,11,1.3,16c4.4,10.2,8.3,20.8,14.2,30.1c21.3,34,61.4,50.2,100,40.8
		c31.2-7.6,52.2-27.6,65.3-56.2c4.9-10.6,10.1-21.5,6.1-33.9c-0.4-1.4-0.4-3.1,0-4.5c2.9-10.6,3.5-21.2,0-31.8c-0.3-0.9-0.2-2-0.1-3
		c0.6-3.1-0.9-4.9-3.4-6.4c-10.2-5.9-20.1-12.4-30.7-17.6C359.1,301.1,339.1,295.6,316.3,295.8z M443.8,274.4c-0.5,0-1.1,0-1.6-0.1
		c0-8.8,0.6-17.7-0.1-26.4c-2.2-25.4-21.1-46.4-46.6-52.3c-24.4-5.7-50.8,5.3-63.9,26.8c-0.9,1.5-1.8,3.3-1.8,5
		c-0.1,14.7,0,29.3-0.1,44c0,2.4,0.6,3.6,3.2,3.8c23.5,2.5,45.4,10.2,65.8,21.8c9.7,5.5,18.7,12.1,28.4,17.7c7.3,4.2,9.2,7.2,7,15.2
		c-1.5,5.3-1.1,10.4,2,14.8c3.9,5.6,4,10.7,0.1,16.5c-4.1,6-4.3,12.8-0.2,18.8c4,5.9,4,11,0.1,17c-5.1,7.6-3,17.7,3.9,23.4
		c6.9,5.7,16.7,5.6,23.4-0.1c7-6,8.8-15.5,3.8-23.4c-3.1-4.9-4.7-9.5-1.1-14.8c5.3-7.6,5.3-15.1-0.1-22.7c-2.9-4.1-3.1-8.6,0-12.6
		c9.7-12.5,0.5-29.5-14.1-30c-7.1-0.2-10.7-5.6-10.1-12.7C442.6,294.3,443.2,284.4,443.8,274.4z M308.3,249.2c0-6.7,0.2-13.3-0.1-20
		c-0.1-2.5-0.9-5.3-2.2-7.4c-13.5-21.1-38.1-31.4-62.7-26.4c-23.6,4.8-43.9,24.3-46.5,48.3c-2.1,19.6-1,39.5-0.5,59.3
		c0.2,8.3-2.6,13.2-10.8,14.2c-14.9,1.7-22.1,16-14,28.7c3.2,4.9,3.5,9.4,0.1,14.3c-4.9,7.1-4.9,14.3,0,21.4c3.3,4.9,3.1,9.3,0,14.4
		c-1.8,3-3.1,6.7-3.4,10.2c-0.5,7.7,4.5,14.6,11.8,17.4c7.3,2.7,15.4,0.6,20.4-5.3c5.1-6.1,6-14.6,1.5-21.3
		c-3.9-5.8-3.8-10.8,0.1-16.5c4.4-6.6,3.8-13.6-0.7-20.1c-3-4.4-3.5-8.9-0.4-13.5c3.8-5.6,4.8-11.4,2.8-18c-1.9-6,0.2-10.2,5.7-13.3
		c0.9-0.5,1.8-0.9,2.5-1.5c26.7-23,57.7-35.8,92.8-38.7c3.2-0.3,3.8-1.7,3.7-4.5C308.2,263.5,308.3,256.4,308.3,249.2z M306,491.6
		c0,20.5,0.6,40.5-0.2,60.4c-0.5,12,8.5,18.2,13.1,28c3.8-5.8,7.3-10.3,9.9-15.3c1.7-3.2,3-7,3.1-10.6c0.3-18.2,0.1-36.3,0.1-54.5
		c0-2.6,0-5.2,0-8.1C323.2,491.6,314.9,491.6,306,491.6z M284.6,492.7c-6.4,2.7-12.1,5.1-18.1,7.7c6.1,9.1,11.6,17.5,17.2,25.9
		c0.3-0.2,0.6-0.4,0.8-0.5C284.6,515.1,284.6,504.5,284.6,492.7z M353.6,492.8c0,11.7,0,22.3,0,34.6c6.4-9.7,12-18.1,17.9-27.1
		C365.4,497.8,359.8,495.5,353.6,492.8z"/>
	<path d="M332.3,421.4c7,0,13.7,0,20.8,0c0,11.3-5.2,19.7-14.2,25.4c-12.6,8-25.9,8.2-38.7,0.6c-9.6-5.7-14.9-14.3-15.3-26
		c7.1,0,13.7,0,20.7,0c2.1,7.2,7.4,10.4,14.9,9.8C326.5,430.8,330.7,427.7,332.3,421.4z"/>
	<path d="M308.3,383.4c0-2.7-0.2-5.3,0-8c0.5-6.2,4.8-10.4,10.6-10.4c5.8,0,10.4,4.1,10.7,10.3c0.3,5.3,0.3,10.7,0,16
		c-0.3,6.1-4.9,10.4-10.6,10.5c-5.7,0-10.3-4.2-10.7-10.3C308.1,388.8,308.3,386.1,308.3,383.4C308.3,383.4,308.3,383.4,308.3,383.4
		z"/>
	<path d="M270.1,355.9c0,0.6,0,1.7-0.3,2.9c-1.1,5.4-5.2,9.4-9.6,9.3c-4.4-0.1-8.4-4.1-9.3-9.6c-0.2-1.1-0.3-2.3-0.3-3.5
		c0.1-6.7,4.4-11.8,9.6-11.9C265.7,343,270,348.4,270.1,355.9z"/>
	<path d="M367.4,355.5c0.8-2.5,1.3-5.2,2.5-7.4c3.8-6.8,11.8-6.8,15.5,0c1.3,2.4,1.9,5.4,1.9,8.1c0,6.6-4.5,11.9-9.7,11.9
		C372.4,368.1,367.9,362.4,367.4,355.5z"/>
</g>
</svg>
