<?xml version="1.0" encoding="utf-8"?>
<!-- Generator: Adobe Illustrator 19.0.0, SVG Export Plug-In . SVG Version: 6.00 Build 0)  -->
<svg version="1.1" id="Calque_1" xmlns="http://www.w3.org/2000/svg" xmlns:xlink="http://www.w3.org/1999/xlink" x="0px" y="0px"
	 viewBox="0 0 612 792" style="enable-background:new 0 0 612 792;" xml:space="preserve">
<g>
	<path d="M402.9,253.3c-1,1.1-2.5,2.1-3,3.4c-3.7,9.5-8.1,12.8-18.3,13.1c-4.2,0.1-8.3,0.2-12.5,0c-7-0.3-13.3,1.3-19.7,4.4
		c-11.5,5.7-23.7,7.7-36.4,3.9c-0.6-0.2-1.3-0.1-2.4-0.3c0.6,1.2,0.9,2.1,1.4,2.9c4.2,6.8,4.1,7-1.2,13.4c-1.2,1.4-1.6,3.9-1.6,5.9
		c-0.1,46.8-0.1,93.7,0,140.5c0,2.3,0.9,4.9,2.2,6.8c8.3,12.5,8.3,33.2-0.1,45.6c-4.3,6.3-3.7,12.7,2.4,17.5c2.9,2.3,3.5,4.7,3.5,8
		c-0.2,12.8-0.1,25.7-0.1,38.5c0,1.5,0.2,2.9,0.2,4c10.8,2.1,21.4,3.5,31.6,6.3c7.2,2,14.5,5.2,20.8,9.3c9,5.8,8.7,13.8,0,20.3
		c-8.9,6.6-19.4,9.5-30.1,11.5c-31.7,5.8-63.3,5.8-94.4-3.5c-6.1-1.8-12.1-4.9-17.3-8.5c-7.8-5.4-7.8-13.1-0.3-19.1
		c8.8-7.1,19.5-9.8,30.3-12.1c7-1.4,14.1-2.3,21.8-3.5c0-4.7,0-9.5,0-14.3c-0.1-10.5-0.3-21-0.1-31.5c0-1.5,1.4-3,2.4-4.4
		c2.2-3.2,5.2-6.1,6.6-9.7c0.9-2.1,0.2-5.7-1.1-7.8c-9.6-14.9-9.2-34.8,1.1-48.9c1.1-1.5,1.7-3.6,1.7-5.4c0.1-46.7,0.1-93.3,0-140
		c0-1.7-0.5-3.7-1.5-4.9c-5.9-7-5.9-6.9-1.3-14.6c0.3-0.6,0.5-1.2,1.1-2.5c-10.1,3.2-19.8,2.9-29.4,0.1c-1.4-0.4-3-0.6-4.3-1.4
		c-10.9-6.9-23-6.9-35.2-6.5c-10,0.3-17.6-3-20.3-13.8c-0.3-1.1-1.9-1.8-3.5-2.4c3.1,6.2,2.1,11.4-2.3,16.2
		c-0.6,0.7-0.9,1.8-0.9,2.8c0.1,9.1-0.4,18.1,2.4,27.2c19.7,63.9,39,127.9,58.5,191.9c2.7,8.8,0.5,16.6-8,20.8
		c-8.1,4-16.9,7.2-25.8,8.6c-22.3,3.6-44.9,3.8-67-1.4c-6.8-1.6-13.6-4.6-19.6-8.3c-8.4-5.1-10.5-13.2-7.6-22.6
		c20.1-63.8,40.3-127.5,60-191.4c2.4-7.7,1.9-16.3,2.7-24.3c-3-1.5-5.2-2.2-7.1-3.5c-0.8-0.6-1-2.1-1.5-3.3c1.3-0.3,2.6-0.9,3.9-0.9
		c2.2-0.1,4.8,1.1,6.4,0.2c2.4-1.4,4-4,1.6-7.2c-4.1-5.4-3.7-7.8,1.8-12.9c4.6-4.2,9.7-4.6,13.9-1c1.1,1,2.2,2.1,2.8,3.4
		c2.5,5.3,7,6.8,12.3,6.9c4.7,0.1,9.4-0.4,14,0.1c5.7,0.6,11.6,1.5,17,3.3c11.7,4,22.9,3.5,33.9-1.9c5.6-2.7,8.5-7.1,9.1-13.3
		c0.8-7.1,1.9-14.1,3.6-21.2c0.9,6.9,2,13.9,2.6,20.8c0.6,7.2,4.6,11.5,10.8,14.3c10.1,4.5,20.7,5.7,31.1,1.5
		c7.8-3.1,15.7-4,23.9-3.8c4,0.1,8.2,0.5,11.9-0.5c3-0.8,6.2-3.1,8.2-5.6c3-3.7,5.7-7.3,10.9-6.5c5.6,0.8,9.2,4.8,11.1,9.8
		c0.6,1.5-0.9,4.4-2.3,5.9c-1.9,2.2-2.2,4.5-0.2,6.1c1.6,1.3,4.1,1.6,6.3,2c1.7,0.3,3.5,0.1,5.2,0.1c-1.1,1.6-1.9,3.9-3.3,4.5
		c-2.9,1.2-3.3,2.9-3.5,5.7c-0.7,11,1.8,21.4,5,31.8c18.6,60.1,36.9,120.2,55.3,180.3c3.6,11.6,0.5,19.5-10.2,25.6
		c-9.3,5.3-19.6,7.3-30.1,8.3c-21.3,2-42.6,2-63.5-3.5c-4.5-1.2-8.9-3-12.9-5.2c-10.5-5.8-13.9-14.7-10.3-26.2
		c13.6-43.3,27.3-86.6,41-129.9c6.4-20.3,13.4-40.5,19-61c2.1-7.7,1.2-16.1,1.6-24.2c0-0.8-0.8-1.8-1.4-2.5
		c-4.5-4.7-6.1-9.8-1.8-15.8C403.8,253.8,403.3,253.6,402.9,253.3z M352.7,482.5c16.4-7.4,32.6-9.4,49.1-9.7
		c4.2-0.1,5.2-1.6,5.2-5.6c0.1-50.5,0.3-100.9,0.5-151.4c0-1.2-0.2-2.3-0.4-3.5c-0.2,0-0.5,0-0.7,0
		C388.6,368.9,370.8,425.2,352.7,482.5z M186.8,310.9c-18.2,57.9-36,114.3-54,171.8c17.7-8,35.6-8.7,54-9.9
		C186.8,419.1,186.8,365.8,186.8,310.9z M412.5,472.5c18,0.6,35.8,2.1,53.3,10c-17.6-57.4-34.8-113.8-52.1-170.2
		c-0.4,0.1-0.8,0.2-1.3,0.2C412.5,365.6,412.5,418.7,412.5,472.5z M193.6,312.4c-0.5,0-0.9,0.1-1.4,0.1c0,53.4,0,106.7,0,160.4
		c18,1.1,35.9,2.1,53.3,10C228.1,425.5,210.9,368.9,193.6,312.4z M317.4,566.7c-0.7,7.7-2.1,10-9,11.3c-5.1,1-10.6,1.3-15.8,0.8
		c-9.3-0.8-11.5-2.9-13.6-11.9c-5.2,0.6-10.5,1.1-15.7,2c-11,2-22,4-31.4,10.6c-6.3,4.4-6.6,9.9-0.1,14c5.1,3.2,10.9,5.9,16.7,7.4
		c28.3,7.6,57,8,85.7,3.3c10.2-1.7,20.4-4.9,29.8-9.2c9.9-4.5,9.6-11.8-0.1-17.2C349.6,570,333.7,568.4,317.4,566.7z M295.2,297.1
		c0,2.4,0,4.2,0,6c0,46.3,0,92.6-0.1,138.9c0,1.8-0.4,4.3-1.6,5.3c-9.9,8.3-10.1,32.8-2.7,43c5.1,7.1,12,6.9,17-0.4
		c6.5-9.5,6.8-29.8-0.4-39c-2.9-3.8-3.5-7.1-3.4-11.5c0.2-45.3,0.1-90.6,0.1-135.9c0-2.1-0.2-4.2-0.3-6.4
		C300.8,297.1,298.3,297.1,295.2,297.1z M285.3,520.1c-0.1,0.4-0.3,0.9-0.3,1.4c0,15.8-0.2,31.6,0.1,47.4c0,1.6,2.5,4.3,4,4.4
		c6.2,0.5,12.5,0.4,18.8,0.1c3.2-0.1,4.3-2.3,4.3-5.6c-0.1-11.8,0-23.6,0-35.4c0-4.1,0-8.2,0-12.3
		C302.9,520.1,294.3,520.1,285.3,520.1z M289.7,261c-17.7,5.1-24.8,6.6-33.4,3.1c-10.6-4.2-21.3-4.5-32.3-4.4
		c-8,0.1-14.8-2-18.6-9.9c-1.4-2.8-3.7-4.3-6.2-2.2c1.8,2.5,4.3,4.6,5,7.2c1.8,6.8,6.2,9.5,12.7,9.9c3.3,0.2,6.7,0.2,10,0.1
		c9.5-0.5,18.3,1.1,26.9,5.5c10,5.1,20.9,6.7,31.9,2.6c1.5-0.6,3.6-1.9,3.9-3.2C290.1,267,289.7,263.9,289.7,261z M411.9,507.6
		c11.7,1.8,38.9-2.5,47.7-7.7c-2.1-1.4-3.8-3-5.9-3.9c-12.6-5.3-26-5.4-39.3-5.8c-0.8,0-2.4,1.4-2.5,2.2
		C411.8,497.4,411.9,502.5,411.9,507.6z M309.5,261.4c-0.5,10.7,1.4,12.8,12.1,13.5c8.8,0.6,17.4-0.7,25.1-5
		c7.3-4.1,14.9-5.3,23-5.1c5.5,0.1,11-0.1,16.4-0.7c4.1-0.4,6.6-3.2,8.3-7c1.4-3.3,3.4-6.3,5.4-9.7c-2.9-2-4.9,0.5-6.4,3.4
		c-3,6.1-8.3,8.4-14.6,8.9c-3.8,0.3-7.6,0.2-11.5,0.1c-7.2-0.2-14,1.1-21,3.3c-6.2,2-13.1,2.4-19.6,2.1
		C321,264.9,315.3,262.7,309.5,261.4z M238.6,500.8c0.1-0.6,0.2-1.2,0.3-1.8c-2.8-1.4-5.5-3.6-8.4-4.2c-8.9-1.8-17.9-3.3-27-4.3
		c-11.9-1.3-11.9-1.1-12,10.6c0,0.7,0.1,1.3,0,2c-0.5,3.7,1,5.2,4.8,4.7c8.9-1.1,17.9-1.6,26.7-3C228.3,504,233.4,502.1,238.6,500.8
		z M406.4,489.8c-16,1.4-31.8,0.6-46.3,11.3c15.9,5.4,30.8,7.1,46.3,7C406.4,501.9,406.4,496.4,406.4,489.8z M186.2,489.8
		c-16,1.5-31.8,0.7-46.2,11.3c15.9,5.3,30.8,6.2,46.2,6.6C186.2,501.7,186.2,496.1,186.2,489.8z M133,504.1
		c5.2,6.6,12.7,9.2,20.5,10.9c21.6,4.7,43.4,4.3,65.1,1.3c7.6-1.1,15-3.9,22.3-6.7c3.5-1.3,6.7-3.9,7.7-8.7
		C226.6,515.7,160.5,516.6,133,504.1z M352.1,503.8c5.7,6.7,13.4,9.3,21.3,11.1c19.1,4.2,38.4,4.4,57.7,2.4c9.1-0.9,18.2-3.7,27-6.6
		c3.6-1.2,6.5-4.6,9.7-7.1C428.9,517,390.8,516.9,352.1,503.8z M406.5,477.4c-7.2,0.5-14,0.3-20.4,1.6c-10.3,2.1-20.5,5-30.6,8.1
		c-2.2,0.7-4.8,3.8-4.9,5.9c-0.1,2,2.7,4.2,4.3,6.4c15.2-14.3,34-12.7,51.7-14.9C406.5,482.3,406.5,480.3,406.5,477.4z M186.5,477.8
		c-10,0.9-19.8,1.2-29.4,2.8c-7.6,1.3-15.2,3.5-22.3,6.7c-6.6,3-6.1,7.8,0.5,11.5c14.5-13.6,33.3-12.1,51.1-14.2
		C186.5,482.7,186.5,481,186.5,477.8z M464.5,498c5.2-4.4,5-7.7-1.1-10.7c-16.1-7.9-33.4-9.2-51.2-9.5c0,2.6,0,4.7,0,7
		c6.9,0.5,13.5,0.6,20.1,1.4C443.8,487.4,455.7,488.2,464.5,498z M244,497.6c5.2-3.7,5.5-7.3,0.1-9.4c-9.1-3.5-18.6-6.2-28.1-8.2
		c-7.7-1.6-15.7-1.5-23.9-2.1c0,2.8,0,4.7,0,6.5c9.6,0.9,18.9,1.4,28.1,2.7C228.9,488.3,237.7,490,244,497.6z M294.3,278.4
		c-0.9,1.6-2,3.5-3.1,5.3c-2.6,4.2-1.1,7.5,3.8,8.2c1.3,0.2,2.7,0,4,0.1c3.8,0.1,8.6,0.8,10-3.4c0.7-2.3-1.9-5.8-3.4-8.6
		c-0.4-0.8-1.9-1.4-2.9-1.5C300.1,278.2,297.5,278.4,294.3,278.4z M309.2,514.8c-2.5-5.3-4.6-9.8-6.8-14.4c-2.3,0-4.9,0-7.2,0
		c-2.4,4.6-4.8,9.2-7.5,14.4C294.9,514.8,301.8,514.8,309.2,514.8z M301.1,252.8c-1,0-1.9,0-2.9,0c-1.2,4.8-3.1,9.6-3.4,14.5
		c-0.1,2.1,2.8,5.8,4.8,6.1c3.4,0.6,5.3-2.9,4.8-6.1C303.8,262.5,302.3,257.7,301.1,252.8z"/>
</g>
</svg>
