<?xml version="1.0" encoding="utf-8"?>
<!-- Generator: Adobe Illustrator 19.0.0, SVG Export Plug-In . SVG Version: 6.00 Build 0)  -->
<svg version="1.1" id="Layer_1" xmlns="http://www.w3.org/2000/svg" xmlns:xlink="http://www.w3.org/1999/xlink" x="0px" y="0px"
	 viewBox="-41 164.9 512 512" style="enable-background:new -41 164.9 512 512;" xml:space="preserve">

<g>
	<path id="XMLID_6_" class="st0" d="M-27.5,353.7c5,69.9,178.9,285.9,246,305.7c31.5,9.3,64.7,14,97.3,10c22.6-2.8,50-12.1,71-27.1
		l-115.4-142c-6.4,5.4-11.2,12.4-13,20.7c-2.6,11.7-0.3,26.5-10,33.6c-7,5.1-16.7,3.2-25,0.7C182.7,542.9,78.7,413.6,75.3,371.2
		c-0.7-8.6-0.5-18.5,6-24.3c9-8,22.9-2.5,34.9-2.6c8.1,0,15.7-3,22.2-7.7L23.2,194.8C5,212-9.1,235.8-16.4,256.5
		C-27.4,287.5-29.8,321-27.5,353.7z"/>
	<path id="XMLID_5_" class="st0" d="M150.4,244c-8.4-22.8-19.9-45.6-39.5-60.1c-27.6-20.4-55-14.6-77.7,2.5l114.7,141.2
		c5.2-6.5,9-14.4,10.8-22.5C163.1,284.7,157.6,263.5,150.4,244z"/>
	<path id="XMLID_4_" class="st0" d="M306,488c-8,0-16.1,1.9-23.4,5.3L397,634.2c20.2-18.4,30.6-43.3,17-73.6
		c-10-22.2-29.8-38.3-50.3-51.4C346.3,498,326.8,488,306,488z"/>
	<g>
		<path id="XMLID_3_" class="st0" d="M283.5,178.2c-0.7-0.1-1.3-0.1-2-0.2l-4.1,39.8c0.7,0.1,1.3,0.1,2,0.2
			c84.9,8.8,146.9,85,138.1,169.9l39.7,4.1C468.3,285,390.5,189.3,283.5,178.2z"/>
		<path id="XMLID_2_" class="st0" d="M275.3,257.7c-0.7-0.1-1.3-0.1-2-0.2l-4.1,39.7c0.7,0.1,1.3,0.1,2,0.2
			c41.1,4.2,71.1,41.1,66.8,82.2l39.7,4.1C384.3,320.8,338.3,264.2,275.3,257.7z"/>
		<path id="XMLID_1_" class="st0" d="M228.7,368.4c-2,19.2,12,36.4,31.2,38.4s36.4-12,38.4-31.2c2-19.2-12-36.4-31.2-38.4
			S230.7,349.2,228.7,368.4z"/>
	</g>
</g>
</svg>
