<?xml version="1.0" encoding="utf-8"?>
<!-- Generator: Adobe Illustrator 19.0.0, SVG Export Plug-In . SVG Version: 6.00 Build 0)  -->
<svg version="1.1" id="Calque_1" xmlns="http://www.w3.org/2000/svg" xmlns:xlink="http://www.w3.org/1999/xlink" x="0px" y="0px"
	 viewBox="0 0 612 792" style="enable-background:new 0 0 612 792;" xml:space="preserve">
<style type="text/css">
	.st0{fill:#FDBA33;}
	.st1{fill:#F0A50C;}
	.st2{fill:#EAEAEA;}
	.st3{fill:#EBEBEB;}
	.st4{fill:#14B4B9;}
	.st5{fill:#EF5424;}
	.st6{fill:#3E4958;}
	.st7{fill:#272F3D;}
	.st8{fill:#E44717;}
	.st9{fill:#26313E;}
	.st10{fill:#3E4959;}
	.st11{fill:#32D7DB;}
	.st12{fill:#D6B84C;}
	.st13{fill:#242D3C;}
	.st14{fill:#ECECEC;}
	.st15{fill:#32D5D9;}
	.st16{fill:#38D5D6;}
	.st17{fill:#FEFBFB;}
	.st18{fill:#EEA92C;}
</style>
<g>
	<path class="st0" d="M568,381c0,11.7,0,23.3,0,35c-1.3,8.5-1,17.1-2,25.6c-1.2,10.8-4.3,21-7.4,31.3c-0.4,1.3-1,2.5-2.2,3.2
		c-2.2,0.9-3.4-0.6-4.7-1.9c-12-12.2-23.9-24.6-35.4-37.2c-0.9-1-1.8-1.9-2.8-2.9c-19-18.9-36.9-38.8-55.7-57.9
		c-13.2-13.6-26.2-27.4-39.3-41.1c-14-14.7-28.1-29.3-41.9-44.1c-6.2-6.7-13.2-12.7-18.6-20.1c-1.2-1.6-3.1-2.5-4.7-3.7
		c-5.1-7.8-12.7-11.7-21.5-13.8c-3.3-0.8-6.5-1.3-9.7,0.1c-2.5,0.4-4.9,1-7.1,2.2c-5.4,3.1-10.5,2.7-16.1,0.1
		c-14.7-6.9-34.1,1.4-38.5,16.2c-2.8,9.6-1.6,19.1,2.3,28.3c5.7,13.2,13.8,24.2,27.8,29.7c2.1,0.8,5.1,1.9,2.8,5.3
		c-2.8,1.6-5.8,1.1-8.8,1.1c-24.3,0.1-48.6,0-73,0.1c-2.3,0-6-1.1-5.2,3.6c1.3,5.4,0.8,10.9,0.8,16.3c0,10.4,0.2,20.8-0.1,31.2
		c-0.6,3.3-4,4.7-5.2,7.6c-2.2,1.6-4.8,1.1-7.2,1.2c-8.6,0.3-17.2-0.3-25.9,0.9c-14.6,2-25.8,13.2-27.3,29.3
		c-1.1,12.1,6.8,26.3,20.5,31.1c2.3,0.8,5,1,6.3,3.6c-0.6,3.2-3.1,3-5.4,3.1c-5.9,0.2-11.9,0-17.8,0.1c-1.6,0-3.7-0.5-4.6,1
		c-1.1,1.8,1.7,2.5,1.9,4.2c0.3,1,0.7,1.9,0.7,2.9c0.2,19,0.7,37.9-0.2,56.8c-0.5,1.6-1.3,2.9-2.7,3.8c-1.8,1.2-1.1,2.4,0.3,3.5
		c10.4,9.8,20.8,19.6,31.4,29.2c6.4,5.8,12.6,11.9,18.9,17.8c13.3,12.5,26.8,24.9,40.1,37.5c6.4,6,12.5,12.4,19.4,18
		c2,1.6,4.4,3.4,2.7,6.6c-2.6,1.8-5.2,0.7-7.7,0c-37-10.3-70.6-27.3-99.8-52.5c-24.8-21.3-45.5-46-61-75c-12.2-22.9-21-47-25.8-72.5
		c-1.6-8.5-1.5-17.2-2.1-25.8c-0.1-1.3,0.4-2.7-0.5-3.9c0-11.7,0-23.3,0-35c0.7-8.7,0.9-17.5,1.5-26.2c0.9-11.7,4-22.9,7.3-34
		c10.7-35.2,28.1-66.8,52.4-94.4c21.5-24.4,46.4-44.6,75.6-59.5c22.1-11.3,45.1-19.7,69.4-24.2c8.8-1.6,17.8-1.6,26.8-2.2
		c2.6-0.2,5.3,0.6,7.9-0.5c10,0,20,0,30,0c9.1,0.8,18.2,0.8,27.2,1.7c15.8,1.5,31,6.1,45.8,11.5c26.6,9.7,51.2,23.2,73.1,41.2
		c24.4,20,45.3,43,61.2,70.4c14.8,25.5,25.7,52.6,31,81.7c1.6,8.8,1.6,17.8,2.2,26.8C567.7,375.8,566.9,378.4,568,381z"/>
	<path class="st1" d="M355,265.9c10,8.8,18.7,18.9,27.9,28.5c17.3,18,34.7,35.8,51.8,54c13.3,14.2,26.9,28.1,40.3,42.3
		c20.8,22,41.6,43.9,62.6,65.7c5,5.1,9.8,10.4,14.8,15.5c1.2,1.2,2.3,2.4,2.6,4.1c2.4,2.2,1.2,4.6,0.4,6.9
		c-9.3,26.1-22.7,49.9-39.6,71.7c-21.5,27.7-47.7,49.8-78.2,67c-23.5,13.3-48.5,22.5-75,27.6c-8.8,1.7-17.8,1.7-26.8,2.2
		c-2,0.1-4-0.6-5.9,0.5c-12.7,0-25.3,0-38,0c-9-1-18.1-0.9-27-2.1c-4.3-0.6-9.6,0.4-12-5c-7.9-7.4-15.8-14.7-23.6-22.1
		c-23.7-22.3-47.3-44.9-71.3-66.9c-6.4-5.8-12-12.5-19.1-17.5c1-2.6,3.4-2.4,5.5-2.5c5.7-0.2,11.3-0.1,17-0.1c34.8,0,69.7,0,104.5,0
		c3.2,0,6.3-0.2,9.4,0.6c5.4,1.9,2.8,7.1,4.2,10.7c8.6-6.3,8.6-6.3,16.9,0.5c0.1-5.4,0.6-10.5,7-11.4c1.9-0.1,3.8-0.4,5.7-0.5
		c5.2,2,10.5,0.2,15.8,0.2c23.5,0.1,46.9,0,70.4,0c18.1,0,36.3,0.1,54.4,0c15.4-0.2,27.1-7.2,33.1-21.4c6-14.3,3.6-27.9-7-39.4
		c-5.7-6.2-13.2-9.4-21.5-10.6c-1.6-0.2-3.3-0.1-4.9-0.9c-0.5-0.3-0.9-0.7-1.2-1.2c-0.1-3.5-2.9-5.6-4.2-8.5
		c-0.8-16.2-0.3-32.4-0.3-48.6c0-1.3,0.4-2.6,0.8-3.9c1.4-4.4,1.2-4.9-3.4-4.9c-13.8-0.2-27.7,0-41.5-0.1c-2.6,0-5.4,0.6-7.6-1.5
		c-0.4-0.5-0.6-1-0.5-1.6c0.8-2.6,3.3-3.1,5.3-4.2c17.5-9.6,20.3-32.7,5.3-45.9c-5.3-4.6-11.7-6.8-18.8-6.8c-18.1,0-36.3,0-54.4,0
		c-2.6,0-5.4,0.6-7.7-1.3c-1.7-3.2,0.9-4.2,2.9-5c13.4-5.5,21.8-15.7,27.6-28.6c4.3-9.6,6.4-19.5,2.8-29.8
		C353.9,269.6,353.2,267.6,355,265.9z"/>
	<path class="st2" d="M141,530.8c0-20.6,0-41.1,0-61.7c1.5-2.8,4.2-2.3,6.6-2.4c9.3-0.2,18.6-0.1,28-0.1c41.3,0,82.5,0,123.8,0
		c14.2,0,25.3,5.8,31.6,18.7c9.4,19.2-1.3,44.9-26.9,47.6c-1.9,0.2-3.7-0.2-5.3-1.2c-2-1.5-1.9-3.7-2-5.9c-0.2-5.3-0.1-10.6,0-15.9
		c0.1-3.3-1.3-4.7-4.7-4.8c-12.4-0.6-12.8-0.4-12.8,12.2c0,3.2,0.1,6.3-0.1,9.5c-0.1,2-0.4,4-2.3,5.2c-2.5,1.3-5.2,1.2-7.8,1.2
		c-39.8,0-79.6,0.1-119.4,0C146.6,533.2,143.1,534.3,141,530.8z"/>
	<path class="st3" d="M205.5,388.7c-0.8-16.3-0.4-32.5-0.2-48.8c1.7-2.6,4.4-2.1,6.8-2.1c11-0.1,22-0.1,33-0.1
		c46.3,0,92.6,0.3,139-0.2c14-0.2,25.4,11.9,26.9,23.4c1.3,9.9-4.6,21.9-13.5,26.4c-1.9,1-3.8,2.1-6.2,1.3c-2.5-1.3-2.5-3.7-2.5-6
		c0-4.1-2-5.6-5.9-5.4c-1,0.1-2,0-3,0c-8,0-8.1,0-8.8,7.9c-0.2,2-0.5,3.9-2.5,5c-1.9,0.9-3.9,1-5.9,1c-50.3,0.1-100.5,0.1-150.8,0
		C209.6,391.2,206.8,391.6,205.5,388.7z"/>
	<path class="st4" d="M168.5,461.5c-18-3-30.4-17.9-29.3-35.3c1.1-18,15.4-31.4,34.1-31.8c9.7-0.2,19.3-0.2,29-0.3
		c1.6-1.5,3.7-1.4,5.7-1.4c27.3-0.1,54.6-0.1,81.9,0c1.7,0,3.3,0,4.9,0.6c3.4,2.5,0.9,4-1.1,5.1c-2.3,1.2-4.8,2.3-7,3.9
		c-19.4,13.7-17.7,42.1,3.1,53.5c1.3,0.7,2.7,1.3,3.9,2.2c1.6,1.3,2.4,2.8,0.6,4.6c-1.9,1.8-4.4,1.5-6.6,1.5
		c-37.4,0.1-74.8,0.1-112.2,0C172.9,464.2,169.9,464.7,168.5,461.5z"/>
	<path class="st5" d="M294.1,333.8c-20.5-7.1-31.7-22.3-36.5-42.6c-5.5-22.9,9.3-41,32.5-40.2c4.3,0.1,8.2,1.5,11.8,3.6
		c3.5,2,6.8,2,10.3-0.2c3-1.8,6.2-3.2,9.8-3.2c14.1,1.5,21.2,10.3,24.3,23.2c1.7,7.3,0.9,14.5-1.3,21.6c-4.6,14.6-13,26.4-25.9,34.7
		c-2.1,1.4-4.8,1.4-6.8,2.9c-4.4-1.4-8.6-1.7-12,2.1C298,336.1,295.5,336.5,294.1,333.8z"/>
	<path class="st6" d="M168.5,461.5c34.7,0.1,69.4,0.2,104.1,0.1c7.4,0,14.9,0.9,22.3-0.7c0.7-1.1,1.8-1.5,3-1.7
		c3.7-0.1,7.1,1.4,10.8,1.3c5.9,2.4,12.2,3.5,17.6,7.7c16.4,12.8,20.1,38,7.9,55c-6.3,8.8-14.5,13.8-25.3,14.6
		c-2.2,0.2-4.4,0.4-6.6,0.6c-2,0.1-4,0.3-4.8-2.2c-0.7-2.2-0.5-4.2,1.9-5.3c22.4-0.5,36.2-17.5,31.5-39c-2.7-12.4-15-22.8-28.7-22.9
		c-53.8-0.2-107.5,0-161.3,0c-2.6-0.2-5.4-0.3-5.3-3.8c0.1-3.9,3.3-3.5,5.9-3.5C150.6,461.8,159.5,461.7,168.5,461.5z"/>
	<path class="st7" d="M294.1,333.8c2.2,0,4.5,0,6.7,0c3.7-1.9,7.4-1.3,11.2-0.6c3.1-0.9,6.2-2.6,9.1,0.5c21.1,0.1,42.2,0,63.4,0.3
		c12,0.2,21,5.9,26.4,16.6c5.3,10.5,4.4,20.9-2.1,30.7c-4.1,6.2-10.2,9.9-17.1,12.3c-2.7-1.7-2.8-3.7-0.6-5.9
		c12.6-4.3,17.4-14.1,17.6-24c0.2-10.5-7.2-19.6-17.4-23c-2.7-0.9-5.5-1.1-8.4-1.1c-58.1,0-116.2-0.1-174.2-0.1
		c-1.2,0-2.3,0.2-3.5,0.3c-2-0.3-4.3-0.6-4.2-3.2c0.2-3.1,2.8-2.7,4.9-2.7c26.2,0,52.4,0,78.6,0C287.8,333.9,291,333.8,294.1,333.8z
		"/>
	<path class="st8" d="M321.2,333.7c-3.1,0-6.2,0-9.3,0.1c-0.3-0.1-0.4-0.3-0.3-0.5c0.1-0.2,0.2-0.2,0.3-0.2c0.5-2,2.4-2.1,3.7-3
		c18.2-11.1,28.4-27.2,29.3-48.6c0.5-11.4-7.5-25.8-20.5-28.7c-0.9-0.2-1.6-1.1-2.4-1.7c13.7-1.2,25.1,2.8,32.9,14.8
		c12.6,24.1-9.3,59.5-30.3,66.1C323.5,332.4,322.4,333.1,321.2,333.7z"/>
	<path class="st9" d="M295.7,395c-24.2-0.1-48.5-0.1-72.7-0.3c-6.9-0.1-13.9,0.6-20.8-0.5c-2.6-4.1-0.6-5.3,3.3-5.5
		c32.6,0.1,65.2,0.2,97.8,0.2c21.8,0,43.6,0,65.4,0c2.6,1.9,2.4,4.1,0.9,6.5c-2,1.8-4.6,1.8-7.1,1.9c-20,0.1-40,0.1-60,0
		C300.1,397.2,297.4,397.4,295.7,395z"/>
	<path class="st10" d="M141,530.8c40.6,0.1,81.2,0.1,121.9,0.2c4.7,0,9.3,0,14,0c2.7,2.3,2.7,4.7,0.1,7.1c-43.8,0-87.6,0-131.4,0
		c-2.2,0-4.3,0.1-6.5,0.2c-2.4-0.6-3.8-2.1-3.2-4.7C136.5,530.9,138.9,531,141,530.8z"/>
	<path class="st11" d="M310.9,244.9c-1.2,2.7-2.3,3.8-4.5,0.5c-4.1-5.9-7.8-12.3-15.4-14.8c4.7,5.5,9.4,10.9,14.1,16.4
		c0.7,0.8,2.2,1.6,1.6,2.8c-0.7,1.3-2.3,1.2-3.6,1c-2.7-0.3-5.1-1.3-7.4-2.7c-9.8-5.9-14.5-15.2-17.4-25.7c-1.1-3.9,0.4-5,4.5-3.8
		c11.6,3.4,21.5,8.8,26.6,21c3.7-6.2,8.5-10.2,14.5-12.7c1.3-0.5,2.8-1.6,3.3,1c1.3,6.6-6,19.1-12.4,21.4c-1.1,0.4-2.3,1-3.2-0.1
		c-1-1.2,0.3-2.1,0.7-3.1c0.3-1.9,1.4-3.4,2.2-5C313.4,242.6,312.7,244.2,310.9,244.9z"/>
	<path class="st12" d="M310.9,244.9c1.8-3.6,3.6-7.2,8-8.9c-2.3,3.3-4.6,6.6-6.9,9.9C311.6,245.7,311.3,245.3,310.9,244.9z"/>
	<path class="st13" d="M309,537.9c3.7-2.2,8.1-2.9,11.8-5.2c14.2-8.9,20.1-22,18-38.1c-1.9-14.8-10.5-25.1-24.6-30.4
		c-1.7-0.6-3.4-1.4-5-2.1c1.4-2,3.5-1.6,5.5-1.6c42.9,0,85.9,0,128.8,0c1.8,0,3.7-0.3,5.2,1.3c22.2-0.5,35.6,15.2,39,29.4
		c5.3,22.4-11.2,46.4-33.7,46.7C405.5,538.4,357.3,538,309,537.9z"/>
	<path class="st14" d="M445.6,401.1c0,18.1-0.1,36.1-0.1,54.2c-0.8,2.7-3,2.9-5.2,2.9c-42.2,0.2-84.3,0.4-126.5-0.2
		c-6.7-0.1-13.6,0.2-20.2-2.3c-12.4-4.7-20.4-17.7-18.7-31c1.8-13.9,12.5-25.1,25.9-25.6c21.5-0.8,43-0.4,64.5-0.1
		c0.8,0,1.7,0.1,2.4,0.5c2.9,4,5.7,4.4,9.6,0.8c2.1-1.9,5.2-0.5,7.3,1.3c2.5,2.2,4.2,2.7,5.7-0.9c0.3-0.8,1.3-1,2.1-1.3
		c4.9-1.2,9.9-0.6,14.8-0.6c10.6-0.1,21.2-0.1,31.8,0C441.4,398.8,444.1,398.4,445.6,401.1z"/>
	<path class="st15" d="M368.7,400.8c-21.7,0-43.3,0-65,0.2c-14.1,0.1-25.4,11-26.7,25.4c-1.2,12.8,8.2,25.7,21.2,28.2
		c5.7,1.1,11.6,1.1,17.4,1.1c41.8,0.1,83.6,0,125.5,0c1.5,0,3-0.3,4.4-0.4c3.5,0.6,6.7,1.3,3.3,5.8c-1.2,0.8-2.6,0.5-3.9,0.5
		c-47.8,0-95.7,0-143.5,0c-1.2,0-2.3,0.2-3.4-0.3c-1-0.1-2-0.1-3-0.2c-6.7-3.3-13.2-6.7-17.8-13c-12.9-17.7-5.4-43.5,15.1-51.2
		c1.2-0.5,2.3-1.2,3.5-1.8c20.5-0.1,40.9-0.2,61.4-0.3c3.8,0,7.7-0.1,11.5-0.1C371.1,396.6,371.2,398.7,368.7,400.8z"/>
	<path class="st5" d="M276.9,538.1c0-2.4-0.1-4.7-0.1-7.1c0.1-7.6,0.2-15.2,0.1-22.9c0-3.7,1.3-5.5,5.2-5.4c5.8,0.2,11.6,0,17.5,0
		c-0.8,9.5-0.6,18.9-0.3,28.2c0.3,2.7-2.4,6.7,2.9,7.5c-2.2,0.4-3.5,1.5-3.3,4c0.2,3.1,0,6.2,0,10.7c-3.5-3.4-6.2-5.7-8.6-8.3
		c-1.8-1.9-3.3-2-4.9,0c-2.2,2.7-4.4,5.3-6.7,8c-0.7-0.3-1.4-0.6-2-0.9C276.9,547.4,276.9,542.8,276.9,538.1z"/>
	<path class="st5" d="M368.7,400.8c0.3-2.1,0.5-4.2-0.1-6.2c0.5-1.9,0.5-3.8,0.1-5.7c0.1-3.5,0.3-6.9,0.2-10.4
		c0-2.4,0.4-3.7,3.2-3.5c5.1,0.2,10.2,0.2,15.4,0c2.6-0.1,3.4,0.9,3.4,3.5c-0.1,3.1,0.2,6.3,0.3,9.4c-0.5,2-0.9,4.1,0.6,5.9
		c0,0,0.2,0.2,0.2,0.2c1.2,2.5,1.6,5-0.9,7c-0.2,2.6-0.3,5.1-0.6,8.6c-3-2.6-5.6-4.6-7.8-6.9c-2-2-3.7-2.3-5.8-0.1
		c-2.1,2.3-4.6,4.2-7.3,6.6C368.3,406.2,369.4,403.4,368.7,400.8z"/>
	<path class="st16" d="M391.1,400.9c-0.2-2.4-1.2-4.9,0.9-7c7.9,1.1,15.8,0.3,23.8,0.4c9.8,0.1,19.5,0,29.3,0c2.2,0,4.6-0.1,5,2.8
		c0.4,3.2-2,3.7-4.5,3.9C427.5,401,409.3,400.9,391.1,400.9z"/>
	<path class="st4" d="M298,461.2c26.8-0.1,53.6-0.1,80.4-0.2c23.5,0,47,0,70.4,0c-0.1,0.3-0.2,0.5-0.3,0.8
		c-43.6,0-87.3,0.1-130.9,0.1c-2.8,0-5.7,0.1-8.5,0.2C305.4,461.5,301.6,462.4,298,461.2z"/>
	<path class="st17" d="M264.9,280.3c0.2-8.2,7.3-17.3,15-19.6c1.9-0.6,3.4-0.4,4.1,1.4c0.7,1.8-0.1,3.2-1.9,4
		c-6.9,2.9-11,7.7-11.4,15.4c-0.1,1.9-1.2,3.3-3.2,3.1C264.8,284.3,264.7,282.1,264.9,280.3z"/>
	<path class="st18" d="M311.9,333.1c0,0.2,0,0.5,0,0.7c-3.7,0-7.4,0-11.1,0C304.3,329.9,308,330,311.9,333.1z"/>
</g>
</svg>
