<?xml version="1.0" encoding="utf-8"?>
<!-- Generator: Adobe Illustrator 19.0.0, SVG Export Plug-In . SVG Version: 6.00 Build 0)  -->
<svg version="1.1" id="Calque_1" xmlns="http://www.w3.org/2000/svg" xmlns:xlink="http://www.w3.org/1999/xlink" x="0px" y="0px"
	 viewBox="0 0 612 792" style="enable-background:new 0 0 612 792;" xml:space="preserve">
<style type="text/css">
	.st0{fill:#415A6A;}
	.st1{fill:#E6E8E7;}
	.st2{fill:#344A5E;}
	.st3{fill:#344A5D;}
	.st4{fill:#F16F5A;}
	.st5{fill:#F5B54C;}
	.st6{fill:#89D5F6;}
	.st7{fill:#65C5B8;}
	.st8{fill:#FDD05B;}
</style>
<g>
	<path class="st0" d="M545.5,184c-3.8,11.3-10.7,19.1-23,21.2c-5.2,1.6-10.5,1.5-15.8,1.5c-139.5,0-279,0-418.5,0
		c-3.3,0-6.7,0-10-0.2c-11.6-0.5-21.5-7.6-25.1-18.1c-3.9-11.2-0.7-23.3,7.8-31c4-3.6,8.7-4.5,13.6-5.3c150,0,300,0,450,0
		c12,2,19,9,21,21C545.5,176.7,545.5,180.3,545.5,184z"/>
	<path class="st0" d="M33.5,623c1.5-1.9,1.2-4.4,2-6.5c4.2-12.3,12-21.2,24.5-25.6c4.2-1.5,8.3-3.3,12.5-4.9c3.4-3.1,7.9-4,12.1-5.5
		c9-3.4,17.9-6.7,26.9-10c1.5-0.6,3-1.4,4.8-0.8c2.1,3.1-0.6,5-2.1,6.8c-5.4,6.8-10.2,13.9-15.9,20.7c4.5,2.2,9.1,1.2,13.5,2.1
		c5.7,1.2,6.1,1.9,2.6,6.5c-3.2,4.2-6.7,8.3-10.2,12.3c-2.2,2.5-2.3,4.7-0.5,7.6c6.6,10.8,13.1,21.7,19.6,32.6c1,1.7,3,3.4,1.4,5.8
		c-29.1,0-58.1,0-87.2,0.1c-2.9,0-4-0.3-3.9-3.7C33.6,647.9,33.5,635.5,33.5,623z"/>
	<path class="st0" d="M243.5,586.3c4.2,1.5,8.4,3,12.5,4.7c15.3,6.1,23.7,17.7,25.6,33.8c1.3,10.9,0.3,21.9,0.5,32.8
		c0,2.1,0.3,4.3,0.4,6.4c-30.3,0-60.7,0-91,0c-0.9-2.4,0.8-4.1,1.8-5.9c6.2-10.8,12.4-21.6,18.7-32.4c1.8-3.1,1.6-5.4-0.6-8.1
		c-3-3.6-5.9-7.2-8.7-10.9c-3.8-5.2-3.3-6.3,3.1-7.5c3-0.6,6-0.2,8.9-0.8c2.9-0.5,3.3-1.6,1.5-3.9c-4.7-6.1-9.5-12-13.9-18.3
		c-1.2-1.6-3.1-3.2-1.5-5.7c1.9-0.9,3.5,0.1,5.2,0.7c11.1,3.8,22,8.4,33.1,12.1C240.9,583.9,242.5,584.6,243.5,586.3z"/>
	<path class="st1" d="M169.5,664c-7.3,0-14.7,0-22,0c-1.4-1.3-2-3-2.4-4.8c-5.4-21.8-10.7-43.6-15.9-65.5c-0.3-1.4-0.8-2.9-0.1-4.4
		c2.5-1.3,4,0.7,5.7,1.7c16,8.7,31.8,10.1,47.5-0.6c1.3-0.9,2.5-2.4,4.4-1.2c1.5,2.4,0.5,4.9,0,7.3c-5.2,21-10.3,42-15.3,63.1
		C171.1,661.1,170.7,662.7,169.5,664z"/>
	<path class="st2" d="M129.6,588.9c5.8,24.2,11.6,48.4,17.4,72.7c0.2,0.8,0.3,1.6,0.4,2.4c-7.7,0-15.3,0-23,0
		c-3.5-8.6-9.3-16-13.8-24.1c-2.5-4.5-4.8-9.2-8-13.1c-3.7-4.6-1.6-7.5,1.4-10.9c4-4.5,7.9-9.3,12-14.2c-6.7-2.2-13.4-1.2-20.2-3.1
		c6.5-9.8,14.8-18.2,20.6-28.4c1.9-2.9,2.5-7.5,7.6-6.7C126.5,571.8,129.8,580,129.6,588.9z"/>
	<path class="st3" d="M169.5,664c1.5-11.3,5.1-22.2,7.5-33.3c3.1-14,7.3-27.8,9.7-42c-1.1-2.9,0.3-5.5,1.1-8.1
		c1.7-5.8,2-12,5.1-17.3c4.7,0.4,5.9,4.3,7.7,7.6c4.9,8.9,12,16.2,17.9,24.4c2.1,2.9,2.1,3.2-1.5,4c-5.2,1.1-10.6,0-15.9,2.4
		c2.4,4.9,6.2,8.8,9.7,13c5.1,6.2,5.3,6.1,1.5,13c-6.8,12.1-13.8,24.2-20.7,36.3C184.1,664,176.8,664,169.5,664z"/>
	<path class="st4" d="M229.7,453c1.4,7.6,0.8,15.3,0.9,22.9c0.1,14.6,0,29.3,0,43.9c0,2.5-0.5,5,0.7,7.4c0.3,18.3,4.4,35.9,10.5,53
		c0.7,2,2,3.9,1.7,6.2c-14.3-5.2-28.7-10.3-43-15.5c-3-1.9-4.3-5.3-6.9-7.7c-2.8-1.3-3.2-4-3.4-6.6c-0.4-3.9-0.3-7.8,0-11.7
		c0.3-2,1.3-3.8,2.5-5.4c4.2-5.7,7.1-12,9.7-18.5c1.1-2.6,2.7-4.3,5.2-5.8c10.6-6.1,15.3-23.3,9.4-34c-0.7-1.3-1.6-2.6-3-3.3
		c-3.7-1.7-4.7-4.9-4.8-8.6c0-0.3,0-0.7,0-1c-0.6-11.4-0.6-11.3-11.6-14.3c-9.2-2.4-17.4-6.7-24.7-12.7c-3.2-2.6-5.2-2.8-8.2,0.5
		c-7.7,8.6-18.1,12.8-28.8,16.4c-8.5,2.9-17.3,5-26.2,6.3c-4.1,0.6-6.5,2.1-6,6.7c0.3,3.2-1,5.8-3.2,8.1c-2.6,2.8-3.8,6.3-3.7,10.1
		c0.3,10.1,2,19.6,11.4,25.7c1.4,0.9,2.3,2.4,2.9,4c3.3,8.8,7.8,16.9,13.6,24.4c0.9,1.2,1.6,2.5,1.9,4c0.2,5.5,1.2,11.1-3.3,15.6
		c-2.9,1.7-3.8,5.4-6.9,7c-12.8,4.7-25.6,9.3-38.4,14c-1.9,0.7-3.8,1.2-5.7,1.8c6.2-16.4,10.9-33.1,12.4-50.6
		c1.3-14.8,0.7-29.6,0.6-44.3c0.8-11.3-0.6-22.6,0.9-33.9c3.7-27.1,18.2-46.1,42.6-57.9c0.9-0.4,1.8-0.9,2.6-1.4
		c6.3-5.1,14.2-5.4,21.7-6.1c11.1-1,21.9,0.8,32.2,5.1c1.9,0.8,3.7,1.5,4.9,3.3c14.1,7.7,25.3,18.5,33,32.7
		C228.1,438.7,230.3,445.4,229.7,453z"/>
	<path class="st5" d="M123.3,563.2c2-5.2,2.3-10.7,2.2-16.2c2.6-0.5,3.8,1.7,5.3,3.1c7.2,6.7,15.6,10.8,25.3,11.3
		c8.5,0.4,16.3-2.7,23.1-7.8c3-2.3,6.2-4.5,8.5-7.6c0.9-1.2,1.9-2.4,3.7-2c0.6,6.4-1.3,13.1,2.2,19.2c-2.9,8.3-3.7,17.2-6.9,25.5
		c-17.6,14.2-38.2,14.3-57.1,0.2C127.5,580.3,125.4,571.7,123.3,563.2z"/>
	<path class="st6" d="M466.5,354.1c0,30.8-0.1,61.6,0.1,92.4c0,4.4-1.1,5.6-5.6,5.6c-16.1-0.3-32.3-0.2-48.5,0c-3.8,0-5.1-0.9-5.1-5
		c0.1-62.3,0.1-124.6,0-186.8c0-3.9,1.2-5.2,5.2-5.2c16.3,0.2,32.6,0.2,49,0c4.1-0.1,5,1.3,5,5.1
		C466.4,291.4,466.5,322.7,466.5,354.1C466.5,354.1,466.5,354.1,466.5,354.1z"/>
	<path class="st4" d="M316.3,381.5c0-21.8,0.1-43.6-0.1-65.5c0-3.7,0.6-5.2,4.8-5.2c16.5,0.3,33,0.2,49.5,0c3.3,0,4.2,1,4.2,4.2
		c-0.1,44.5-0.1,89,0,133.4c0,3.6-1.2,4.5-4.6,4.4c-16.3-0.2-32.6-0.2-49,0c-4,0-5.1-1.1-5-5C316.4,425.8,316.3,403.6,316.3,381.5
		C316.3,381.5,316.3,381.5,316.3,381.5z"/>
	<path class="st7" d="M190.3,400.1c-10.7-4.4-21.7-7.4-33.4-7.1c-8.8,0.2-17.1,2.4-25.3,4.9c0-27.6,0-55.3-0.1-82.9
		c0-3,0.8-4.1,3.9-4.1c17.2,0.1,34.3,0.1,51.5,0c2.8,0,3.7,1,3.7,3.8C190.4,343.2,190.3,371.7,190.3,400.1z"/>
	<path class="st0" d="M229.7,453c-1.3-7-3.8-13.6-6.5-20.1c0-9.5,0.1-19,0.1-28.5c0-2.3-0.2-4,3.3-4c17,0.2,34,0.2,50.9,0.2
		c3.3,0,4.7,0.7,4.7,4.4c-0.2,14.3-0.2,28.6,0,43c0.1,3.8-0.9,5.1-5,5.1C261.4,452.8,245.6,452.9,229.7,453z"/>
	<path class="st1" d="M522.5,205.2c-148.7,0-297.3,0-446,0c3.6,0.9,3,3.8,3,6.4c0,87.5,0,175,0,262.6c0,6.3,1.3,12.1,5.9,16.8
		c1.7-1.5,1.4-3.6,1.4-5.6c0.1-5.6-0.1-11.3,0-16.9c0.6-30.1,13.3-52.9,40.5-66.9c2.2-1.1,4.5-2.2,5.3-4.9c0.6-2.5,0.4-5,0.4-7.4
		c0-19.5,0-38.9,0-58.4c0-4.7,0-9.3,0-14c0-2.9,1.3-4.3,4.2-4.3c15.8,0,31.6,0,47.4,0c3,0,4.1,1.6,4.1,4.4c0,2,0,4,0,6
		c0.2,25.1-0.3,50.2,0.3,75.3c0.3,2.7,2.3,3.9,4.3,5.2c5.9,3.7,11.5,7.9,16.4,13c4.2,4.3,7.7,9.1,10.8,14.2c0.8,1.4,2,4.5,4,0.7
		c1-8.1,0.3-16.3,0.4-24.4c0.1-2.9,0.6-4.7,4.1-4.6c15.3,0.3,30.6-0.3,45.9,0.2c5.2,0.2,5.8,0.6,5.8,5.8c0.1,12.2,0.1,24.3,0,36.5
		c0,5.9-0.7,6.5-6.7,6.6c-12.7,0.1-25.3,0-38,0.1c-2.4,0-5.1-0.4-7.1,1.6c-0.6,23.4-0.3,46.7-0.1,70.1c0,1.6,0.2,3.4,2.3,4
		c0.1-6,0.2-12,0.1-18c0-2.8,0.5-4.3,3.8-4.3c16.5,0.1,33,0.1,49.5,0.1c1.1,0,2.8-0.4,3.2,0.8c1.2,3.5,0.4,7.2,0.5,10.9
		c0.1,2.6-2.4,2.5-3.9,3.2c-18,8.2-28.5,25.2-24,44.7c4.8,20.8,21.4,31.5,40.7,31.2c12-0.2,21.9-5.8,29.4-15.4
		c7.4-9.4,9.9-20.4,7.4-31.5c-3-13.6-11.1-24-24.9-28.9c-1.2-0.4-3.4-0.7-2.8-2.1c1.2-2.6-0.5-4.5-0.8-6.7c-0.8-5.4-0.1-6.3,5.6-6.3
		c55,0,110,0,165,0c5,0,10,0.3,14.9-1c10.7-2.7,18.5-8.6,21.6-19.5c2.1-7.5,3.2-15.1,1.9-23c-1.3-7.7,0.9-15.4,0.2-23.3
		c-0.7-7.8-0.6-15.9-0.1-23.7c0.4-5.8-0.4-11.5-0.1-17.3c0.3-7.3-0.2-14.6,0.2-21.8c0.3-6.5-0.7-12.9-0.2-19.3
		c0.6-7-0.3-13.9,0.2-20.8c0.4-6.5-0.7-12.9-0.2-19.3c0.6-7-0.4-13.9,0.2-20.8c0.5-6.5-0.8-12.9-0.1-19.3c0.7-7-0.5-13.9,0.1-20.8
		c0.7-7.3-0.1-14.5-0.3-21.8c-0.1-3,2.5-5.9,1.5-8.1c-2.3-4.6-1-9.2-1.3-13.7C518.3,208.9,519.4,206.4,522.5,205.2z M317.5,556.2
		c-0.2,9.8-8.6,17.8-18.4,17.8c-10.5-0.1-19-7.9-18.4-17.7c0.7-10.5,8.1-18.4,18.5-18.3C308.5,538.1,317.7,547.3,317.5,556.2z"/>
	<path class="st8" d="M191.4,544c-5.1,5.6-10.6,10.7-17.4,14.3c-15.6,8.3-31.4,3.8-43.3-6.7c-1.7-1.5-3.4-3.1-5.1-4.7
		c-6.6-8.6-12.3-17.8-15.9-28.1c-0.5-1.4-1.2-2.2-2.4-3c-9.5-6.1-14.7-22.8-10.5-33.2c0.4-1.1,0.8-2.4,1.7-3c3.8-2.8,4.6-6.6,4.1-11
		c-0.3-3,0.8-4.3,4-4.8c13.6-2.3,27.1-5.1,39.7-10.9c7.5-3.4,14.7-7.4,19.5-14.2c2-2.8,3.3-1.8,5-0.5c5.2,4.2,10.5,8.1,16.7,10.9
		c5.3,2.4,10.8,4.4,16.6,4.9c3.6,0.3,5.7,1.6,5.5,5.8c-0.1,3.6,0.9,7.2,0.9,10.9c0,2.7,0.8,5.1,4.1,5.9c2.3,0.6,3.2,2.8,4.1,4.8
		c4.4,9.9,2.4,25.6-6.4,31.6c-7.2,5-9.8,11.8-13.4,18.6C196.8,536,193.9,539.9,191.4,544z"/>
</g>
</svg>
