<?xml version="1.0" encoding="utf-8"?>
<!-- Generator: Adobe Illustrator 19.0.0, SVG Export Plug-In . SVG Version: 6.00 Build 0)  -->
<svg version="1.1" id="Calque_1" xmlns="http://www.w3.org/2000/svg" xmlns:xlink="http://www.w3.org/1999/xlink" x="0px" y="0px"
	 viewBox="0 0 612 792" style="enable-background:new 0 0 612 792;" xml:space="preserve">
<style type="text/css">
	.st0{fill:#778C99;}
	.st1{fill:#EF776A;}
	.st2{fill:#52AEA7;}
	.st3{fill:#379EC7;}
	.st4{fill:#379EC6;}
</style>
<g>
	<path class="st0" d="M479,430c-0.3,0-0.7-0.1-1-0.1c-2.4-3.1-1.5-6.7-1.6-10.1c-0.1-9.1-0.1-9.1-9.1-9.1c-95.2,0-190.5,0-285.7,0
		c-28.1,0-56.3,0-84.4,0c-2.8,0-5.7,0.6-8.1-1.6c0.1-34,0.1-68,0.2-102c0-50.5,0-101,0.1-151.5c0-15.2,9.6-24.5,24.7-24.5
		c125.3,0,250.6,0,375.9,0c14.3,0,23.8,9.4,24.1,23.7c0.1,5.3,0.1,10.7,0.1,16c-0.8,1.9-2.9,2.1-4.4,2.9
		c-11.6,5.9-18.2,15.5-18.1,28.3c0.1,12.8,6.6,22.8,18.7,28.4c1.5,0.7,3.2,1,3.8,2.9c0,4.5,0,9,0,13.5c-1.7,2.3-4.2,1.7-6.4,1.8
		c-9.2,0.1-18.3,0.2-27.5,0c-5.6-0.1-9.9,1.8-13.8,5.7c-7.8,8-15.8,15.7-23.6,23.7c-3.1,3.2-6.6,4.7-11.1,4.6c-10-0.1-20-0.1-30,0
		c-4.6,0-9,0.7-12.5,4c-7.2,6.7-5.2,17.5,4,21.1c3.3,1.3,6.8,1.8,10.3,1.8c11.7,0.1,23.3,0,35,0c7.3,0,13.5-2.1,18.6-7.9
		c5.1-5.9,10.9-11.2,16.6-16.6c1.3-1.3,2.8-2.9,4.8-2.2c2.3,0.8,2.1,3.2,2.1,5.2c0.2,11,0.1,22,0.1,33c0,33.6,0,67.3,0,100.9
		C480.4,424.7,481,427.6,479,430z"/>
	<path class="st1" d="M479,430c0-48.8,0-97.5,0-146.1c-2.3-0.9-2.9,0.6-3.7,1.5c-6.3,6.2-12.7,12.3-18.7,18.8
		c-3.6,3.9-7.5,6.4-12.9,6.4c-15.5,0.2-31,1-46.4-0.4c-9.1-0.8-14.7-7.4-14.2-15c0.5-7.9,7.5-13.9,16.5-14
		c10.8-0.1,21.7-0.2,32.5,0.1c4,0.1,6.8-1.2,9.6-4.1c8.3-8.6,16.9-17,25.4-25.5c3.2-3.3,6.9-4.8,11.6-4.8
		c11.8,0.1,23.6-0.1,35.5-0.2c13,0.1,26,0.1,39,0.2c12.2,0.1,20,7.8,20,20c0,29.7-0.1,59.3,0.1,89c0,4-0.8,5.7-5.1,5.3
		c-5-0.4-10,0.1-15-0.2c-3.3-0.2-4.3,1-4.2,4.2c0.1,18.3,0.1,36.6,0.1,55c0,1,0,2,0,3c0,7,0,7-6.9,7C520.9,430.1,500,430.1,479,430z
		"/>
	<path class="st2" d="M89.1,409c127.3,0,254.6,0,381.9,0c7.8,0,7-0.8,7,6.9c0,4.7,0,9.3,0,14c-25.1,0.1-50.3,0.3-75.4,0.3
		c-109.3,0-218.5-0.1-327.8,0.1c-5,0-6.4-1.5-5.8-6.1c0.6-4.9-2.1-11.5,1.2-14.3c2.8-2.4,9.2-0.8,14-0.9
		C85.7,408.9,87.4,409,89.1,409z"/>
	<path class="st3" d="M476.9,635c-23.6,0-47.3-0.2-70.9,0.1c-4.8,0.1-5.7-1.5-4.9-5.7c5.5-28.6,21.2-49.4,48.5-60
		c27.2-10.6,52.7-6,75.5,12c15.5,12.3,24.3,28.7,27.8,48.1c0.7,3.9,0.1,5.5-4.5,5.5C524.5,634.9,500.7,635,476.9,635z"/>
	<path class="st4" d="M311.7,635c-23.8,0-47.6-0.1-71.4,0.1c-4.1,0-5.3-0.5-4.6-5.1c5.9-38.8,40-67.4,79.2-65.9
		c36.7,1.4,68.4,30.9,72.8,67.5c0.5,4.1-1.9,3.3-4.1,3.3C359.6,635,335.7,635,311.7,635z"/>
	<path class="st3" d="M146,635c-24,0-47.9-0.1-71.9,0.1c-3.8,0-4.4-1.3-4-4.6c5.1-37.1,37.3-65.7,74.8-66.4c37.6-0.7,71.5,28,77,65
		c0.6,4.2,0.1,6.1-5.1,6C193.3,634.8,169.6,635,146,635z"/>
	<path class="st4" d="M350,510.6c0,21.6-17.1,38.5-38.8,38.4C289.9,549,273,532,273,510.5c0-21.5,17.3-38.6,38.8-38.5
		C333,472.1,350,489.3,350,510.6z"/>
	<path class="st3" d="M476.7,549.1c-21.1-0.1-38.5-17.2-38.5-38c0-22.2,17.4-39.3,39.9-39.1c20.2,0.2,37.4,17.9,37.4,38.6
		C515.6,532,498.3,549.2,476.7,549.1z"/>
	<path class="st3" d="M145.3,549.1c-21.3,0.1-38.3-16.9-38.4-38.3c-0.1-21.1,16.9-38.7,37.5-38.8c21.8-0.1,39.5,16.9,39.6,37.9
		C184.1,531.9,167.2,549,145.3,549.1z"/>
	<path class="st1" d="M514.1,233.1c-12.4-4.4-20.7-12.4-23.1-25.7c-3-16.9,6.6-31.9,23.1-36.8c14.4-3.1,27.7,1.7,35.2,12.9
		c7.6,11.3,7.5,25.2-0.1,36.6C541.9,231.2,528.6,236.1,514.1,233.1z"/>
</g>
</svg>
