<?xml version="1.0" encoding="utf-8"?>
<!-- Generator: Adobe Illustrator 19.0.0, SVG Export Plug-In . SVG Version: 6.00 Build 0)  -->
<svg version="1.1" id="Calque_1" xmlns="http://www.w3.org/2000/svg" xmlns:xlink="http://www.w3.org/1999/xlink" x="0px" y="0px"
	 viewBox="0 0 612 792" style="enable-background:new 0 0 612 792;" xml:space="preserve">
<style type="text/css">
	.st0{fill:#98CBCB;}
	.st1{fill:#424242;}
	.st2{fill:#2AB4F3;}
	.st3{fill:#2AB5F3;}
	.st4{fill:#F4F5F6;}
	.st5{fill:#FDFDFC;}
	.st6{fill:#EED4B7;}
	.st7{fill:#D9C2A8;}
	.st8{fill:#E33935;}
	.st9{fill:#8C25A7;}
	.st10{fill:#8D24A7;}
	.st11{fill:#B72221;}
	.st12{fill:#E5817A;}
	.st13{fill:#F9F8F6;}
	.st14{fill:#685F58;}
	.st15{fill:#615953;}
	.st16{fill:#F9F8F7;}
	.st17{fill:#464646;}
	.st18{fill:#4C4C4C;}
</style>
<g>
	<path class="st0" d="M414.8,410c-2,3.8,0.3,7.5,0.1,11.2c-0.7,16.1-1.6,32.2-0.9,48.4c0.7,18.3,3.2,36.3,6.4,54.3
		c0.9,5.1,1.7,10.2,2.8,15.2c0.6,2.4,0,3-2.3,3c-8.8-0.1-17.7-0.1-26.5,0c-2.7,0-3.2-1.6-3.9-3.7c-5-16-8.9-32.3-11.7-48.8
		c-1.9-11.5-3.5-23-4-34.6c-0.1-1.5-0.2-3-1.3-4.3c-4.4,1.8-4.2,5.9-4.6,9.6c-1.4,16.6-1.4,33.3-1,49.9c0.2,9.5,1.1,19,4.6,27.9
		c1.4,3.6,0.5,4.1-2.9,4.1c-23.3-0.1-46.7,0-70,0c-18.8,0-37.7-0.1-56.5,0.1c-3.8,0-4.6-0.9-3.1-4.4c3.5-8.4,4.3-17.5,4.6-26.4
		c0.6-18.3,0.8-36.6-1.6-54.8c-0.1-0.8,0-1.7-0.3-2.5c-0.7-1.8-2-3.6-3.8-3.4c-1.8,0.2-0.9,2.5-1,3.9c-2,28.9-7.7,57.2-16.1,84.9
		c-0.7,2.2-2,2.7-4.1,2.7c-8.5-0.1-17-0.1-25.5,0c-2.6,0-3.4-0.5-2.8-3.5c3.1-14.1,5.5-28.3,7.1-42.7c2.3-20.5,3.4-41.1,1.6-61.7
		c-0.7-7.4-0.8-15,0.5-22.4c0.3-1.9,0.8-4-0.5-5.8c-0.6-0.7-0.7-1.5-0.5-2.3c3-10.2,5.7-20.6,13.2-28.7c2.8-3,6-5.4,10-6.2
		c12.7-2.6,25.4-5,37.5-10c0.8-0.3,1.6-0.3,2.5-0.1c7.4,8.2,10.9,18.2,13,28.8c0.8,2.3-0.8,5,1.2,7.1c1.4-0.9,2.6-2.5,4.6-1.9
		c1.8,1.2,2.3,3.3,3,5.1c7,19.2,14.2,38.4,21.1,57.8c6.9-20.1,14.8-39.8,21.7-59.8c0.8-2.4,1.4-5.3,4.3-6.3c4.1,1.2,7,3.8,8.8,6.7
		c-1-13.8,4.2-26.4,13.3-37.5c5.3,0.1,9.7,3.2,14.7,4.5c6.8,1.8,13.5,3.5,20.5,4.4c7.6,1,13.4,4.7,17.6,10.9
		c6,8.7,8.6,18.7,10.8,28.8C415.8,408.2,415.7,409.3,414.8,410z"/>
	<path class="st1" d="M414.8,410c-2.5-11.1-4.8-22.3-11.9-31.7c-4-5.3-8.9-8.5-15.7-9.4c-12.2-1.6-24-4.8-35.3-9.7
		c-1.2,0.5-2.2-0.1-3.2-0.5c-1.4-0.7-2.8-1.4-4.2-2.1c-2-1.5-4-2.2-6.3-0.7c-1,0.6-2.1,0.9-3.2,0.1c-6.1-7.8-8.7-16.4-5.8-26.2
		c3.8-4.2,8.3-7.6,12.3-11.6c18.2-18.1,24.6-40.2,22.9-65.1c-0.3-4.9-1.3-5.5-6.5-4.5c-21.3,3.9-41.7,1.9-61.2-8.1
		c-5.8-3-11-7-15.9-11.2c-2.4-2.1-4.5-2.3-7.1-0.6c-4.5,2.9-9,5.8-14,7.7c-10.3,4-14.9,11.4-14.4,22c0.6,13.6,0.7,27.3,6.9,40
		c1.5,3,3.4,5.7,5.2,8.5c1.1,1.8,2.7,3.4,2.7,5.8c-1.6,1.9-3,0.5-4.3-0.4c-8-5.7-13.7-13.4-18.7-21.7c-0.9-1.4-1.6-3.1,0.3-4.4
		c3.1-0.8,4.2-3,3.9-6c-1.1-11.8-2.1-23.5-3.2-35.3c-0.2-2.4-1.3-4.1-3.8-4.6c-2.2-0.4-3.5-1.7-3.8-4c-0.3-11.7,2.9-22.8,5.9-33.9
		c2.8-7.2,4.9-14.9,10.9-20.4c2.1-2.9,5.1-4.9,8-6.9c5.4-2.8,11.2-4.3,17.3-4.5c6.3,0.3,12.6-0.4,18.9,0.8c2.4,0.5,4.6-0.3,6.6-1.7
		c4.3-3,9.1-4.7,14.2-5.8c21.1-2.4,38.4,6.2,53.8,19.4c10,8.7,17.7,19,19.6,32.7c0.2,1.5,0.5,3,0.5,4.5c0,6.6,0.4,13.4-3,19.5
		c-0.9,0.8-2.1,0.9-3.2,0.9c-4.1-1-5.5,0.6-5.9,4.8c-1,11.3-1.4,22.6-2.7,33.8c-0.4,3.3,0,6.1,4.4,6c7,0.8,10.2-4.1,13.5-8.8
		c3.7-0.7,6.4-3.6,9.9-4.6c15.3,10.7,16.1,17.5,3.8,31.8c-5.9,6.9-11.3,14-13.5,23c-1.5,6.1-0.1,11,5,15c10.5,8.4,19.8,17.9,26,30
		c8.1,15.9,6.7,31.3-3.9,43.4C414.5,414.2,415.3,411.8,414.8,410z"/>
	<path class="st1" d="M261,359c-11.6,5-23.7,8.4-36.3,10c-9.4,1.2-14.4,7.7-18.5,15.1c-3.8,6.8-5.4,14.6-7.9,21.9
		c-1.6,5.6-2.6,11.4-1.9,17.2c0.4,3.5-1.1,3.5-3.3,2.1c-4-2.6-6.1-6.6-6.3-11.3c-0.3-7.6-0.1-15.3-0.6-22.9
		c-0.4-6.9,3.2-12.8,7.2-18.2c7-9.5,15.8-17,25.4-23.8c2.3-1.6,3.7-3.2,3.2-6c-0.1-0.5,0-1,0-1.5c1.2-8.6-0.7-16.4-4.4-24.4
		c-6.2-13.2-9.1-27.1-3.7-41.5c0.2-0.6,0.6-1.2,0.9-1.7c3-0.5,5.3,2.1,8.2,2.2c4.3,6,10.2,10.6,14.2,17
		c9.1,14.5,21.5,25.6,37.9,31.7c1.7,0.6,3.4,1.4,5,2.2c1.5,0.9,3.2,1.5,4.4,2.8c0.3,0.4,0.5,0.9,0.6,1.4c-0.7,8.9-2.7,17.3-9.1,24
		c-3.7-1.3-6.9-0.2-10,1.8C264.5,358.2,262.9,359.2,261,359z"/>
	<path class="st2" d="M273.2,171.8c-6,0.3-11.8,2.3-17.7,3.2c17.6-13.5,37.7-18.8,59.6-16.6c45.5,4.6,76.6,42.3,82.2,82.3
		c0.9,6.4,0.1,13.1,3.5,19.4c1.8,3.4,0.7,8.2-1.3,12.1c-2.5,2.8-5.3,5.1-9.4,4.8c-1.5-1.4-1.6-3.3-1.3-5.1
		c1.1-6.7,0.5-13.6,1.7-20.3c0.8-6.4-1-12.5-2.3-18.6c-0.9-4.4-2.1-8.7-3-13c-2.3-22.3-16.4-35.7-34.7-46.1
		c-11.6-6.6-23.7-10.1-37.1-8.8c-10.2,0.3-20.3,1.4-30.2,4.3C279.9,170.3,276.6,171.2,273.2,171.8z"/>
	<path class="st3" d="M223.2,277.1c-3.3,0.4-5.8-1.4-8.3-3.1c-3.9-5.9-4.3-11.8-1-18.3c2.3-4.5,1.2-9.7,2-14.6
		c3.4-22.4,12.9-41.7,29.1-57.7c0.7-0.7,1.3-1.5,2.5-1.5c-3.9,6.1-6.4,13-9.4,19.5c-6.8,13.5-13.6,27-15.2,42.4
		c-0.3,2.3-0.4,4.6-0.3,6.9c0,6.3,1.1,12.5,1.6,18.7C224.3,272.1,225.1,274.7,223.2,277.1z"/>
	<path class="st4" d="M345.2,355.6c1.3,0.8,2.6,1.6,3.9,2.3c-2.3,4.6-6.6,7.4-10,11c-3.4,3.7-6.9,7.2-10.6,10.6
		c-2.9,2.7-3.5,5.1-0.1,7.7c0.8,0.6,1.6,1.3,1.4,2.5c-5.3,9.8-7.9,20.7-11.9,31c-4.3,10.9-8.1,22.1-12.1,33.1
		c-0.4,1.2-1.1,2.3-2.2,4.6c-1.8-4.6-3.2-8.4-4.6-12.1c-6.8-17.8-12.4-36-20.1-53.4c-0.2-0.5-0.2-1,0.2-1.4
		c6.8-5.8,13-12.4,20.6-17.3c4.4,2.7,8.8,2.5,13.2-0.2c1,0.1,1.8,0.7,2.6,1.3c4.8,3.8,4.8,3.8,9-0.4c5.4-5.4,10.8-10.8,16.3-16.2
		C342.2,357.7,343.3,356.2,345.2,355.6z"/>
	<path class="st5" d="M261,359c2.4-1.4,5.1-2.5,7.1-4.3c2.7-2.4,4.8-2.1,7,0.3c6.9,2.8,12.3,7.7,17.4,12.9c0.5,1.6-0.3,2.9-1.4,4
		c-4.9,5.1-9.9,10.1-15,15c-0.8,0.8-1.7,1.6-3.1,1C270.9,377.5,266.2,368.1,261,359z"/>
	<path class="st5" d="M329.9,389.7c-0.9-0.7-1.8-1.4-2.8-2.1c-3.7-2.7-3.7-5.1-0.1-8.3c7.6-6.9,14.2-14.8,22.1-21.4
		c0.9,0.4,1.9,0.8,2.8,1.2c-4.4,8.1-9.2,16-11.3,25.1c-1,4.2-0.3,8.5-1,13.4C336.2,394.8,333,392.3,329.9,389.7z"/>
	<path class="st5" d="M300.1,375c-7,6-14.1,12-21.1,18c-1.3,1-2.6,2-3.9,3.1c-2-2.1-2.3-3.7-0.3-5.8c6.5-6.7,12.7-13.8,20.1-19.6
		C297.8,370.8,300,371.6,300.1,375z"/>
	<path class="st4" d="M295,371c-6.2,6.4-12.5,12.8-18.7,19.3c-1.6,1.7-3.6,3.3-1.2,5.8c-0.6,0.8-1.6,2.5-2,0.1
		c-0.4-2.7-0.1-5.4,0-8.2c6.6-6.3,13.9-12,18.9-19.8C294.3,367.7,295.1,368.8,295,371z"/>
	<path class="st6" d="M284.1,331c-0.4-0.4-0.9-0.8-1.3-1.2c2.1-1.6,4.8-0.9,7-2c1.1-0.6,2.8-0.8,2.7-2.4c-0.1-1.5-1.6-1.9-2.8-2.4
		c-3.4-1.4-6.5,0-9.6,1c-8-1.2-15.2-3.9-20.2-10.7c-5.3-8.4-11-16.5-13.1-26.5c-2.5-12.2-3-24.4-1.9-36.7c0.5-5.1,3.3-8.6,7.6-11.1
		c7.8-4.4,15.7-8.7,23.5-13.2c1.6-0.9,2.6-0.9,3.9,0.4c23.3,22.3,51.2,26.5,81.5,20.2c3.9-0.8,3.8,1.4,4,3.7
		c3.4,31-6.6,56.6-30.8,76.4c-1.5,1.3-3.2,2.4-4.8,3.6c-3.7,4.7-9.4,4.5-14.5,5.3c-9.3,1.5-18.5,0.4-27.5-2
		C286.3,332.8,285,332.2,284.1,331z"/>
	<path class="st7" d="M284.1,331c15.4,3.9,30.7,5.6,45.8-1c-1.6,9.5,0.7,18.2,6.1,26.1c0.3,0.7,0.2,1.4-0.3,1.8
		c-7.4,6-14.5,12.4-22.8,17.1c-0.2,0-0.4,0-0.5,0.1c-4.1,4.3-8.2,4-12.2,0c-1.2-2-3.1-3.1-5.1-4c-0.7-1.2-1.7-2.3-3-2.8
		c-5.6-4.4-11.3-8.7-16.9-13.1C281,348.1,282.9,339.7,284.1,331z"/>
	<path class="st8" d="M259.9,313.3c6.1,4.6,12.4,8.5,20,9.8c0.7,1.7,0.8,3.4,0.1,5.1c-20.6-6.8-36-20-46.7-38.7
		c-1.3-2.2-2.9-4-5.1-5.3c-2.7-1.6-3.6-4.6-5.2-7.1c-0.4-9.1-2.3-18.1-2-27.2c0.5-4.1,2.2-7.5,5.9-9.6c1.6-0.9,3.3-1.6,5.1-0.4
		c3.2,3.4,2.2,7.8,2.7,11.8c1.1,10,2.1,20,2.7,30c0.1,1.8,0.4,3.6-0.5,5.4C242.4,297.8,249.7,306.8,259.9,313.3z"/>
	<path class="st8" d="M391.8,251.1c-0.6,8.6-1.2,17.3-1.8,25.9c-2.5,5.7-6.1,10.1-13.1,10c-1.3-1.5-1.6-3.3-1.4-5.1
		c1.1-13,1.7-26,3.1-39c0.1-1.2,0.4-2.3,1.4-3.1c0.9,0.1,1.8,0.1,2.7,0.2C389.1,241,391,245.6,391.8,251.1z"/>
	<path class="st9" d="M237,287.1c-1.9-9.4-1.7-19-3.1-28.5c-0.9-6.3,0.1-12.9-2.7-18.9c-1.4-2.1-1.3-2.4,0.5-3.2
		c0.1,2.1,1.2,3,3.2,2.6c3.4-0.6,4.3,1.2,4.6,4.1c0.8,8.6,1.6,17.1,2.4,25.7c0.4,4,0.4,8,1.1,11.9
		C243.9,285.7,242.2,287.9,237,287.1z"/>
	<path class="st10" d="M380,239.9c-1,15.7-2.1,31.4-3.1,47.1c-7.3,0.1-7.4,0.1-6.9-6.8c0.9-12.7,1.8-25.4,3-38.1
		C373.6,236.6,377.3,239.5,380,239.9z"/>
	<path class="st5" d="M312.8,374.9c6.4-6.4,14.2-11.1,21.1-16.9c0.7-0.6,1.4-1.3,2.1-2c3-2,5.9-4.9,9.2-0.4
		c-7,8.6-15.6,15.8-23.2,23.9c-1.7,1.7-3,0.6-4.3-0.4C316,377.8,314.4,376.3,312.8,374.9z"/>
	<path class="st11" d="M280.1,328.2c-1-1.7-1.4-3.3-0.1-5.1c3.8-2.7,7.8-2.5,11.9-0.9c1.4,0.6,2.7,1.6,2.6,3.3
		c0,1.7-1.3,2.7-2.8,3.3c-2.8,1.2-5.9,1.1-8.9,1C281.9,329.2,281,328.7,280.1,328.2z"/>
	<path class="st12" d="M306.6,310.1c5.2,0,10.3,0,15.5,0c0.9,0,2.2-0.3,2.5,1c0.1,0.6-0.6,1.5-1.1,2.1c-2.3,2.4-4.5,4.9-7.1,7
		c-6.2,5-14.3,4.7-20.4-0.8c-2-1.8-3.8-3.7-5.7-5.6c-0.8-0.8-2.1-1.5-1.7-2.8c0.5-1.4,2-0.8,3.1-0.8
		C296.6,310,301.6,310,306.6,310.1C306.6,310.1,306.6,310.1,306.6,310.1z"/>
	<path class="st13" d="M343.1,272.9c1,2.4,5,4.4,1.1,7.4c-3,2.3-6.4,3.5-10,1.2c-1.6-1-3.7-2.4-2.9-4.7c0.7-2,2.4-3.6,4.8-3.8
		C338.4,272.9,340.8,272.9,343.1,272.9C343.1,272.9,343.1,272.9,343.1,272.9z"/>
	<path class="st13" d="M283.1,272.9c3.6-0.2,6.5,1.2,6.8,4.9c0.2,4-3.5,4.6-6.3,4.8c-4.5,0.4-7.6-2.1-7.5-5.4
		C276.1,274.3,278.4,272.9,283.1,272.9z"/>
	<path class="st14" d="M269.3,276.8c6.8-9.2,22.5-8.6,27.7,1.2C287.2,269.5,278.3,270.6,269.3,276.8z"/>
	<path class="st15" d="M343.1,272.9c-5.9-1.9-7-1.7-17.7,3.8c4.4-9.1,20.7-8.5,27.2,0.2C349,276.1,346.7,272.8,343.1,272.9
		C343.1,272.9,343.1,272.9,343.1,272.9z"/>
	<path class="st16" d="M296,314.2c7.5,0,14.2,0,21,0C312.3,322,303.2,322.3,296,314.2z"/>
	<path class="st17" d="M342.3,277.7c-0.5,2.4-2.3,2.6-4.2,2.4c-1.6-0.1-3.2-0.5-3.1-2.4c0-2.4,1.9-2.8,3.8-2.7
		C340.6,275.1,342,275.7,342.3,277.7z"/>
	<path class="st18" d="M283.1,280.2c-1.9-0.1-3.9-0.4-3.9-2.7c0-1.9,1.8-2.5,3.6-2.5c2,0,3.9,0.5,3.9,2.7
		C286.7,279.7,284.8,280.1,283.1,280.2z"/>
</g>
</svg>
