<?xml version="1.0" encoding="utf-8"?>
<!-- Generator: Adobe Illustrator 19.0.0, SVG Export Plug-In . SVG Version: 6.00 Build 0)  -->
<svg version="1.1" id="Calque_1" xmlns="http://www.w3.org/2000/svg" xmlns:xlink="http://www.w3.org/1999/xlink" x="0px" y="0px"
	 viewBox="0 0 612 792" style="enable-background:new 0 0 612 792;" xml:space="preserve">
<style type="text/css">
	.st0{fill:#EA693D;}
	.st1{fill:#9CEBF5;}
	.st2{fill:#3E4959;}
	.st3{fill:#90DEAB;}
	.st4{fill:#FDFDFD;}
	.st5{fill:#F1AF47;}
	.st6{fill:#3F4A59;}
</style>
<g>
	<path class="st0" d="M545,411.2c-0.2,140-113.2,252.1-254.1,251.8C153.1,662.8,40.8,549.1,41,410.1C41.2,271,154.5,158.7,294.3,159
		C432.6,159.3,545.2,272.5,545,411.2z"/>
	<path class="st1" d="M225.2,465.5c-19.8-0.1-39.6-0.2-59.5-0.3c-4.2,0-8.3,0-12.5,0c-11.7-0.1-17.9-6.1-17.9-17.9
		c-0.1-24.7,0-49.3,0-74c0-32.2,0-64.3,0-96.5c0-13.7,5.8-19.5,19.4-19.6c91.8,0,183.6,0,275.5,0c15,0,20.4,5.6,20.4,20.6
		c0,55.8,0,111.7,0,167.5c0,1.7,0.1,3.3-0.1,5c-1,9.1-7.1,14.8-16.3,14.9c-21.5,0.1-43,0-64.5,0c-3,0-6,0.2-9,0.3
		c-5.6,2-11.4,0.7-17.1,0.9c-33.8,0.2-67.6,0.3-101.3,0C236.6,466.2,230.8,467.6,225.2,465.5z"/>
	<path class="st2" d="M344,465.5c5.6,0,11.2,0,16.8,0c13.4,34.2,26.7,68.5,40.2,102.6c1.4,3.5,0.4,4.1-3,4.2
		c-12.7,0.1-12.6,0.2-17.1-11.4c-4.5-11.6-9.2-23.2-13.5-34.9c-1-2.7-2.2-3.9-5.3-3.9c-46,0.1-92,0.1-137.9,0
		c-3.1,0-4.3,1.2-5.3,3.9c-5.3,14-10.9,27.9-16,41.9c-1.3,3.5-3.1,4.8-6.6,4.3c-0.7-0.1-1.3,0-2,0c-10.6,0-10.6,0-6.8-9.7
		c12.6-32.4,25.3-64.7,37.9-97.1c5.6,0,11.2,0,16.7,0c1.8,2.5,0.2,4.8-0.6,7c-3.7,9.8-7.6,19.5-11.3,29.3c-1.7,4.6-1.7,4.6,3.2,4.6
		c32.1,0,64.2,0,96.3,0c8.1,0,16.3-0.1,24.4,0c3.2,0.1,3.6-1,2.5-3.8c-4.1-10-7.8-20.2-11.7-30.2C343.8,470.3,342.3,468,344,465.5z"
		/>
	<path class="st2" d="M174.1,449.1c-4.3,0-8.7,0.1-13,0c-7.2-0.1-10-2.8-10-10c0-33.2,0-66.3,0-99.5c0-18.7,0-37.3,0-56
		c0-7.8,2.8-10.6,10.4-10.6c87.1,0,174.3,0,261.4,0c9.8,0,11.9,2.2,12,12.1c0,50.5,0,101,0,151.4c0,10.6-1.9,12.5-12.5,12.5
		c-68.1,0-136.3,0-204.4,0c-1.7,0-3.3-0.1-5-0.1c-2.4-2.6-0.9-6.1-1.9-9c-0.7-1.8-2.4-1.6-3.8-1.6c-9.1,0-18.2,0-27.3,0
		c-1.8,0-3.8-0.2-4.2,2.4C175.1,443.5,176.2,446.6,174.1,449.1z"/>
	<path class="st0" d="M344,465.5c3,10.9,7.8,21.1,11.8,31.7c4.1,10.9,4.3,10.8-7.4,10.8c-38.8,0-77.5,0-116.3,0c-1.8,0-3.6,0-6.1,0
		c4.8-12.4,9.4-24.1,13.9-35.8c0.8-2.1,2.1-4.2,2-6.6c14.3-0.1,28.5-0.3,42.8-0.3C304.5,465.2,324.3,465.4,344,465.5z"/>
	<path class="st3" d="M174.1,449.1c0.6-3.2-0.5-6.5,0.8-9.6c0.7-1.5,2.1-1.4,3.4-1.4c10.4,0,20.9-0.1,31.3,0c1.2,0,2.3,0.1,3.1,1.2
		c0.1,3.2,0.2,6.5,0.3,9.7c-0.7,0.9-1.7,1-2.7,1c-11.3,0-22.7,0-34,0C175.6,449.9,174.8,449.4,174.1,449.1z"/>
	<path class="st4" d="M309.7,358.9c0.3,1.2,1.5,1.2,2.3,1.6c6.8,3.7,9.8,9.2,8.8,16.4c-0.9,6.7-6.3,12.5-13.1,14.1
		c-10.8,2.7-21.8,1.9-32.8,1.8c-4.3-0.1-6.7-2.9-6.8-7.1c-0.1-16.2-0.2-32.3,0-48.5c0-4.9,2.6-7.2,7.6-7.2c7.8-0.1,15.7-0.1,23.5,0
		c9.9,0.1,15.2,3.4,17.9,10.7C319.4,346.9,317,352.8,309.7,358.9z"/>
	<path class="st4" d="M258.3,387.9c-0.4,3.6-2.4,5.5-5.7,6.1c-3.3,0.6-5.3-1.2-6.5-4.2c-0.2-0.6,0-1.3-0.2-2
		c-1.6-8.7-3.1-9.9-12-9.9c-1.2,0-2.4,0.2-3.5,0c-9.5-1.5-16.5,0.5-18.6,11.5c-0.7,3.9-4,5.9-8,4.1c-3.8-1.7-4.6-4.8-3-8.7
		c6.5-16.5,12.9-33.1,19.5-49.6c1.4-3.5,3.7-6.2,8-6.5c4.3-0.2,7,2,8.5,5.7c7,16.8,13.9,33.7,20.8,50.6
		C258,386,258.1,387,258.3,387.9z"/>
	<path class="st4" d="M328.9,361.9c-0.1-24.5,20.8-39.7,42.3-30.8c6,2.5,10.9,6.5,13.1,12.9c1.1,3.3,1.7,6.8-2.1,8.7
		c-3.8,1.9-6.3-0.4-8-3.7c-2.6-5.1-6.1-9.2-12.2-10c-8.2-1.2-15.2,3-18,11c-2.5,7.3-2.5,14.7-0.4,22.1c2,6.8,6.4,10.7,13.4,11.6
		c6.8,0.8,12.6-2.3,16-8.7c0.6-1,1-2.1,1.4-3.2c1.3-3.6,3.9-5,7.4-3.8c3.5,1.2,3.9,4.1,3.3,7.4c-1.5,7.9-9.8,15.9-18.5,17.6
		C344.4,397.2,329.1,384.5,328.9,361.9z"/>
	<path class="st5" d="M212.7,439.3c-12.6,0.1-25.2,0.1-37.8,0.2c-0.9-2.2,0.7-2.2,2-2.2c11.3-0.1,22.6,0,33.9,0
		C212.1,437.2,213.1,437.6,212.7,439.3z"/>
	<path class="st2" d="M291.6,365c2.9,0.2,6.4-0.3,9.8,0.6c4.2,1.2,6.4,3.9,6.5,8.3c0.1,4.3-2,7.4-6.2,8.5
		c-6.2,1.7-12.5,0.8-18.8,0.9c-1.5,0-1.9-1-1.9-2.3c0-2,0-4,0-6C281,364.9,281,364.9,291.6,365z"/>
	<path class="st6" d="M291,339.8c2.7,0.1,6-0.1,9.2,0.9c3.5,1,5.5,3.3,5.3,6.8c-0.1,3.5-1.7,6.5-5.4,7.5c-5.7,1.7-11.5,0.7-17.3,0.9
		c-1.6,0-1.8-1.1-1.8-2.3c0-1.5,0-3,0-4.5C281.1,339.8,281.1,339.8,291,339.8z"/>
	<path class="st6" d="M229.6,342.1c3.3,9.1,6.2,17.1,9.4,25.9c-5.8,0-11.2,0-16.5,0c-2.9,0-1.7-1.7-1.3-2.9
		C223.8,357.8,226.5,350.6,229.6,342.1z"/>
</g>
</svg>
