<?xml version="1.0" encoding="utf-8"?>
<!-- Generator: Adobe Illustrator 19.0.0, SVG Export Plug-In . SVG Version: 6.00 Build 0)  -->
<svg version="1.1" id="Calque_1" xmlns="http://www.w3.org/2000/svg" xmlns:xlink="http://www.w3.org/1999/xlink" x="0px" y="0px"
	 viewBox="0 0 612 792" style="enable-background:new 0 0 612 792;" xml:space="preserve">
<style type="text/css">
	.st0{fill:#415A6A;}
	.st1{fill:#F16F5A;}
	.st2{fill:#4AB9A4;}
	.st3{fill:#344A5D;}
	.st4{fill:#FDCF5C;}
	.st5{fill:#FBCF5D;}
	.st6{fill:#F0EFEC;}
	.st7{fill:#4EB49E;}
	.st8{fill:#E6E8E7;}
	.st9{fill:#FDCF5B;}
	.st10{fill:#F1F1F1;}
	.st11{fill:#EE5540;}
	.st12{fill:#CCD4DE;}
	.st13{fill:#CCD3DD;}
	.st14{fill:#F5B64D;}
	.st15{fill:#ECEBEA;}
	.st16{fill:#ACB2B9;}
	.st17{fill:#F1705B;}
</style>
<g>
	<path class="st0" d="M163.2,611.8c-1.8,11.5-4.4,22.9-7.2,34.2c-17.3,0-34.7,0-52,0c-0.7-0.8-1.3-1.7-1.2-2.7
		c0.9-6.9-0.1-14.2,2.2-19.3c-1.8,6.4-3.6,14.6-8,21.9c-18.7,0-37.3,0-56,0c-1.5-1.8-0.9-3.9-0.4-5.7c3.9-15,3.2-30.4,3.9-45.6
		c0.6-12.3-0.6-24.6,0.9-36.9c0.7-5.5,0-11-2.5-16.1c-0.9-1.8-1.8-3.7-1.8-5.7c-0.4-11.4-6.9-20.2-12.2-29.6
		c-7.8-13.8-13.1-28.7-18.3-43.7c-1-2.8-0.7-5.9-1.6-8.7c0-3.3,0-6.7,0-10c4.1-22.1,7.5-44.2,10.6-66.4c0.2-1.2,0.2-2.3,0.5-3.5
		c3.7-12.6,5.4-25.7,7.7-38.6c1-5.5,3-10.6,5.3-15.5c2.4-5.2,5.9-9.2,11.8-10.7c6.4,0.3,9.5,5,12.5,9.6c3.8,6,5.8,12.7,7.4,19.5
		c2.6,10.9,3.5,22,4.5,33.1c0.3,3.7-0.6,7.3-1.3,10.9c-2.5,13.3-4.7,26.6-7.5,39.8c-1.2,5.9-3.1,11.5-5.7,16.9
		c-3.6,7.5-1.7,15.4,0.5,22.9c1.7,5.9,4.9,11.3,7.4,16.9c6.2,14,13,27.8,20.7,41c1.3,2.2,2.4,4.4,1.6,7.1c-0.6,1.8-2.4,1.4-3.7,1.9
		c-6.1,3.3-11.6,7.3-15.3,13.4c0.1,0.8,0.2,1.6,0.5,2.4c2.3,5.7,4.2,6.1,8.1,1.4c2.7-3.3,5.5-6.6,7-10.7c0.5-1.3,0.9-3,3-2.6
		c2.8,1.5,4.6,4.3,7.1,6.2c5.3,4.1,9,4.5,14.6,0.8c9.8-6.6,17.3-15.6,24.7-24.6c5.3-6.4,10.4-13,14.8-20.1c1-1.6,2.1-3.9,4.4-3.4
		c2.5,0.5,2.1,3.2,2.4,5c2.2,17.9,4.7,35.7,7.8,53.4c0.6,3.3,1.2,6.6,2.2,9.7c1.3,3.9,5,5.1,7.8,7.3c0.6,5.1-0.5,10-1.1,15
		c-0.9,3.6,1.1,7.6-1.5,10.9c-1.5,4.2-1.5,8.7-2.3,13C165.2,608.2,164.5,610.1,163.2,611.8z"/>
	<path class="st1" d="M159,176.9c-11.7-0.4-19.9-7.1-21.8-17.7c-2.1-11.4,3.1-19.9,15.1-24.5c0.3-0.1,0.5-0.4,0.7-0.6
		c117.3,0,234.7,0,352,0c9.4,1.3,14.4,6.9,16,16c0,3.7,0,7.3,0,11c-2.8,11.6-10.8,17.6-22.5,16.9c-3.2-0.3-6.3-0.3-9.5-0.3
		c-107.4,0-214.7,0-322.1,0C164.2,177.6,161.5,178,159,176.9z"/>
	<path class="st1" d="M404.6,456.3c-19.5,0-39,0-58.5,0c-1.3,0.9-2.7,1.3-4.2,1.3c-8.6,0.1-17.2,0.1-25.7,0c-1.5,0-2.9-0.3-4.2-1.3
		c-19,0-38,0-57,0c-2,0.9-4,1.4-6.2,1.4c-10.9-0.1-21.8,0.1-32.7-0.1c-9.7,0.1-19.5,0.1-29.2,0.1c-2.1,0-4.3,0.1-6.3-0.8
		c-1.8-1.1-1.9-3-2.2-4.8c-1.2-7-3.1-13.9-2.4-21.2c0.4-4.3-1.6-8.4-2.3-12.7c-0.3-2.2-1.6-4.6,0.8-6.5c3.5-0.7,7-0.2,10.5-0.2
		c48.6-0.2,97.3-0.1,145.9-0.1c53.5,0,106.9,0,160.4,0.1c2.5,0,5,0,7.5-0.2c6.8-0.2,12.8,1.6,17.8,6.8c2.8,2.9,3.6,6.4,4.6,10.1
		c0,4,0,8,0,12c-5.5,12.9-10.3,16-24.7,16.1c-17.4,0-34.9,0.1-52.3,0.2c-1.5,1.2-3.4,1.3-5.2,1.3c-9.5,0.1-18.9,0-28.4,0
		C408.3,457.6,406.4,457.3,404.6,456.3z"/>
	<path class="st2" d="M404.6,456.3c13.1,0,26.2,0,39.3,0c12.9,26.8,25.8,53.7,38.8,80.5c7.4,15.4,14.9,30.9,22.3,46.3
		c2.8,5.9,3.1,11.8,0.1,17.8c-3.1,6.2-8.4,9.7-15.1,9.9c-7,0.2-12.4-3.2-15.6-9.8c-7.8-16.2-15.7-32.3-23.5-48.5
		c-15.2-31.5-30.4-62.9-45.6-94.4C405.1,457.5,404.9,456.9,404.6,456.3z"/>
	<path class="st2" d="M312,456.2c11.4,0,22.7,0,34.1,0c0,37.8,0,75.7-0.1,113.5c0,11.5-6.5,18.5-17,18.4c-10.4,0-17.1-7.2-17.1-18.5
		C312,531.9,312,494.1,312,456.2z"/>
	<path class="st2" d="M215.8,456.2c13.1,0,26.1,0,39.2,0c-23.1,47.8-46.1,95.6-69.2,143.4c-3.7,7.7-9.8,11.5-18.4,11.2
		c-1.5,0-3-0.3-4.2,0.9c1.6-6.6,1.4-13.4,3.7-19.9c1,0.8,1.8,1.8,3.4,1c8.2-3.8,14.5-8.4,17.3-18.2c2.9-10.2,3.6-20.1,2.1-30.3
		c-1-8.3-1.8-16.6-2.9-24.9c-0.2-1.8-0.4-3.6,0-5.4c1.7-4.9,4-9.5,6.3-14.1c6.4-12.8,12.2-25.9,18.7-38.7
		C212.9,459.4,213.6,457.2,215.8,456.2z"/>
	<path class="st3" d="M44.7,310.1c-0.2-1.2-0.2-1.2,0.5-1.4c10-3.2,20-7,30.2-9.6c7.8-2,13.3-6.8,18.7-12.1c1-0.3,1.6,0.4,1.8,1.2
		c1.6,10.4,8.3,18.4,13,27.4c6.6,13.4,14.5,26.2,20.8,39.7c1.2,2.6,2.5,5.1,3.3,7.8c5.8,18.6,11.6,37.1,17.8,56.4
		c1.7-4.3,2.5-8.1,3.5-11.8c2.8-9.7,5.3-19.6,7.4-29.5c0.7-3.3,0.6-6.5-0.2-9.8c-2.9-11.1-7.1-21.8-11.4-32.4
		c-2.7-6.8-5.6-13.5-8-20.4c-2.1-6.9-2.7-14-2.1-21.2c0.2-1.1,0.6-2.1,1.7-2.6c2.1,0.8,2,2.9,2.4,4.5c1,3.7,2.3,7.2,3.4,10.8
		c1.9,6.4,5.6,11.5,11.2,15.1c2.8,3.1,7.4,4.2,9,8.6c5.7,13.8,7.9,27.8,6.4,42.9c-1.4,13.5-1.1,27.2-2.4,40.8
		c-0.4,4.2-0.9,8.3-2.3,12.2c-4.7,13.1-4,26.4-2.5,39.9c2.5,22.5,4.4,45,6.2,67.5c0.2,2.5,0.6,5,1,7.4c0.4,5.4,0.6,10.9,1.3,16.3
		c0.4,3.2,0.9,6.8-2.9,8.7c-0.8,0.4-1.6,0.4-2.5,0.4c-5.4,0.2-7.9-3.5-8.8-7.8c-2-9-3.6-18.1-5-27.3c-1.8-11.9-3.3-23.9-5-35.8
		c-0.2-1.2,0.7-3.1-1-3.5c-1.9-0.4-2.2,1.7-2.9,2.9c-9.6,14.8-20.8,28.3-33.5,40.5c-2.7,2.6-5.7,4.6-8.8,6.4
		c-4.5,2.7-8.9,1.5-12.9-1.5c-3-2.3-5.8-4.9-8-8.1c-1.2-1.6-1.3-3.1,0.1-4.7c0.5-7.5-4.9-12.5-7.9-18.4c-8.6-16.7-17.4-33.3-23-51.2
		c-2.3-7.4-2.7-15.3,2-23.2c4.8-8.1,5-18.1,6.9-27.3c2.2-10.7,4.4-21.4,5.8-32.2c1-7.5-0.8-15.1-1.8-22.7
		c-1.4-11.4-3.6-22.6-9.3-32.8C54,315.6,50.8,311.2,44.7,310.1z"/>
	<path class="st4" d="M171.3,566.2c2.4-1.1,3-3,2.8-5.6c-0.3-6.2-2-12.3-0.9-18.5c6.1-3.1,13.9-1.9,17.8,2.7
		c1.5,8.8,2.8,17.7-1.1,26.3c-0.7,1.6-1.4,3.4-1.6,5.2c-1,8.3-6.4,12.6-13.4,15.8c-1.5,0.7-3.1,1.2-4.5,2.1c-3,1.9-3.7,0.6-3.4-2.2
		c2.8-2.6-0.5-6,1.2-8.7c2.4-4.1,3-7.6,2.8-12.9C170.8,569,169.8,567.4,171.3,566.2z"/>
	<path class="st5" d="M83.9,528.1c0,1.6,0,3.1-0.1,4.7c-2.1,6.8-6.3,12.1-11.3,17c-2.3,2.3-3.7,2-5.2-0.7c-1.3-2.3-2.7-4.5-3.1-7.2
		c7.4-2.7,11.9-8.7,16.7-14.5C82.3,526.3,83.1,527.2,83.9,528.1z"/>
	<path class="st6" d="M81,527.5c-3.8,6.8-7.7,13.6-16.7,14.5C68.5,535.5,74.5,531.2,81,527.5z"/>
	<path class="st7" d="M171.3,566.2c0.7,3.5,0.5,7.3,2.8,10.3c1.2,1.6-0.3,2.4-1.2,3.2c-1.5,1.3-3.2,2.3-4.8,3.5
		c0.6-5.4,1.1-10.8,1.7-16.3C170.3,566.7,170.8,566.5,171.3,566.2z"/>
	<path class="st8" d="M166.1,329.8c-2.3-2.8-6.2-3.6-8.3-6.7c-0.8-12.4-0.2-24.8-0.3-37.2c-0.1-9.3,0-18.5,0-27.8
		c-0.3-1.7,0-3.3,0.6-4.9c2-6,1.7-11.7-2-17c-0.4-4.2-1.7-8.4,1.2-12.2c2.9-0.8,1.8-3.2,1.8-5c0.1-14,0-28.1,0-42.1
		c1.5-1.1,3.2-0.6,4.8-0.6c109.9,0,219.9,0,329.8,0c2.1,0,4.3-0.6,6.3,0.6c0,78.4,0,156.9,0,235.3c-1.3,1-2.9,0.6-4.4,0.6
		c-55-0.1-110-0.2-164.9-0.2c-50,0-100,0.2-149.9,0.3c-2.1,0-4.3,0.4-6.4-0.5c-1.5-0.7-1.5-2.1-1.4-3.4c0.7-12.9,1.3-25.8,3-38.7
		c1.3-9.6,0-18.9-2.6-28C172.1,337.4,168.2,334.1,166.1,329.8z"/>
	<path class="st9" d="M156.9,236.9c5.8,4.2,3.7,10,2.8,15.4c-0.3,1.6-1.1,3.1-1.7,4.7c-6.1,10.6-8.6,23.1-17,32.5
		c-10.8,7.4-18.1,7.5-29,0.7c-2.4-1.5-4.1-4-7.1-4.5c-3.9-1.6-4.7-5.3-5.8-8.9c-0.3-4.8-0.7-9.6-1-14.4c-0.1-1.2-0.4-1.9-1.6-2.6
		c-6-3.7-8.5-14.7-5.1-20.8c0.8-1.4,1.9-2.3,3.6-2.2c2.8,1.6,2.8,1.6,3.9,4.8c0.8-5.7,1.6-11.5,2.9-17.2c2.3-10,8-13.9,18.2-12.5
		c4.8,0.7,9.7,1.2,14.4,0.2c12.6-2.8,17.9,5.8,19.7,14.5c0.7,3.4,1.1,6.9,1.3,10.4C155.5,239.2,156.3,236.3,156.9,236.9z"/>
	<path class="st0" d="M156.9,236.9c-0.5,1.8-1,3.7-1.5,5.5c-0.3,0-0.5,0-0.8,0c-0.5-4.7-1.1-9.4-1.6-14.1c-0.4-3.7-1.7-7-3.7-10.2
		c-2.8-4.3-6.6-6.1-11.5-5.1c-6.6,1.4-13.1,1.3-19.8,0c-7.3-1.4-12.1,2-14.3,9.8c-2.1,7.3-2.7,14.9-4.2,23.4c-1.5-3.8-2-7.1-4.5-9.4
		c0.3-4.6,0.5-9.3,0.9-13.9c1.6-17.3,8.4-25,25.2-28.7c16.5-3.6,32.2,7.1,35.1,23.9c0.3,2,0.6,3.9,0.9,5.9
		C157.1,228.3,157,232.6,156.9,236.9z"/>
	<path class="st10" d="M99.1,276.8c1.8,2.8,3.1,6.1,5.9,8.2c3.7,1.3,5.3,4.8,8,7.1c5,4.5,10,9.1,15.6,13c1.3,0.9,2.8,1.9,3.1,3.7
		c-1.1,4.9-5.5,7.7-7.8,11.8c-5.7,7.6-8,7.5-13.1-0.6c-0.9-1.4-1.4-3-2.9-4c-4.5-6.6-7.8-13.9-11.8-20.8c-1.6-2.7,0.3-6-1.9-8.3
		C95.7,283.7,99.1,281.1,99.1,276.8z"/>
	<path class="st0" d="M166.1,329.8c4.8,3.2,7.7,7.7,9.2,13.1c3.3,11.7,2.7,23.6,1.4,35.6c-1.3,11.2-1.6,22.5-2.3,33.8
		c0.2,1.5,0.2,3,0.5,4.4c3.5,12.9,2.2,26.5,5.5,39.4c1.5,1.5,1.8,3.4,2.1,5.5c1.2,11.2,2.6,22.4,5.2,33.5c1.3,5.8,1.7,11.8,0.5,17.8
		c-0.1,8.3,1.7,16.4,2.3,24.6c0.2,2.5,0.5,4.9,0.5,7.4c-5.4-4-11.7-2.5-17.8-2.7c-2-3-1.5-6.4-1.7-9.8c-0.9-13.5-2.2-27-3.5-40.5
		c-1.2-11.8-2.8-23.6-3.8-35.5c-0.8-8.8-0.2-17.5,2.6-26.1c3-9,3.4-18.5,4.3-27.9c1.1-11.6,0.3-23.2,1.8-34.7
		c1.1-9-0.1-17.9-3.2-26.5C168.3,337.5,167.3,333.6,166.1,329.8z"/>
	<path class="st11" d="M155.1,408c-0.8,5-2.1,9.9-4.5,15.8c-5.8-18.4-11.3-35.5-16.6-52.7c-0.8-2.6-2.5-5.1-2.2-8.1
		c-2.6-12.2-4.2-24.6-4.5-37.1c3.1-4.1,7.6-4.6,13-1.4c1.2,1.6,2,3.5,2.5,5.4c4.1,16.6,9.9,32.9,12,49.9
		C155.9,389.1,157.3,398.6,155.1,408z"/>
	<path class="st12" d="M155.1,408c0.6-28.1-6.9-54.6-14.9-81.1c-0.2-0.6-0.1-1.3-0.2-2c-0.6-1.9-0.4-3.6,0.9-5.1
		c1.8-0.2,1.6,1,1.4,3.1c0.7-3-1.5-5.3,0.8-7.1c6.5,15.8,13.1,31.5,18.3,47.8c1.9,6,2.5,11.8,0.8,18
		C159.9,390.5,158.3,399.5,155.1,408z"/>
	<path class="st13" d="M128.1,325.9c1.3,12.4,3.8,24.6,3.8,37.1c-6.3-14.3-14.2-27.8-21.6-41.5c-0.9-1.7-1.7-3.6-2.5-5.3
		c3.4,1,4.3,4.4,6.4,6.7c3,3.4,4.9,2.9,7-0.4c0.5-0.8,1.1-1.6,1.7-2.4C125.9,320.7,126.9,323.4,128.1,325.9z"/>
	<path class="st14" d="M140.9,289c0.2,0.9,0.4,1.7,0.6,2.6c-0.2,0.8-0.4,1.6-0.7,2.4c-0.7,6.1-4,10.8-8.1,15
		c-0.4,0.2-0.9,0.3-1.4,0.1c-8.4-6.8-17.3-13-24.3-21.3c-0.7-0.9-1.4-1.8-2.1-2.7c1.4-1.8,2.3-0.2,3.2,0.6c2.4,2.3,5.4,3.8,8.2,5.5
		c7.2,4.5,14.1,3.2,21-0.7C138.4,289.8,139.7,289.5,140.9,289z"/>
	<path class="st15" d="M131.8,309c3.6-4.7,6.7-9.7,9.1-15.1c-0.2,7.4,0.6,14.7,2.2,21.9c0,2.3,0,4.6,0,7.7c-0.9-1.7-1.5-2.7-2.1-3.7
		C138.6,315.8,135.5,312.2,131.8,309z"/>
	<path class="st16" d="M329.2,245c-40.3,0-80.6-0.1-121,0.1c-4,0-5.6-0.9-5.4-5.2c0.3-6.3,0.3-12.7,0-19c-0.2-4.1,1.4-5,5.2-5
		c47,0.1,94,0.1,141,0.1c33.8,0,67.6,0.1,101.5-0.1c4.3,0,5.9,0.9,5.6,5.5c-0.4,6.3-0.4,12.7,0,19c0.3,4.5-2,4.7-5.4,4.7
		C410.2,245,369.7,245,329.2,245z"/>
	<path class="st16" d="M329,310c-40.2,0-80.3-0.1-120.5,0.1c-4.3,0-5.9-0.9-5.6-5.5c0.4-6.3,0.3-12.7,0-19c-0.2-3.9,1.3-4.7,4.9-4.7
		c38.7,0.1,77.3,0,116,0c42.2,0,84.3,0.1,126.5-0.1c4.5,0,6.2,1,5.9,5.8c-0.4,6.1-0.4,12.3,0,18.5c0.2,4.2-1.4,4.9-5.2,4.9
		C410.3,310,369.7,310,329,310C329,310,329,310,329,310z"/>
	<path class="st16" d="M376.7,374c-24.7,0-49.3-0.1-74,0.1c-3.7,0-5-0.9-4.8-4.7c0.3-6.8,0.2-13.7,0-20.5c-0.1-3.2,1.2-3.9,4.1-3.9
		c50,0.1,100,0.1,149.9,0c2.9,0,4.2,0.7,4.1,3.9c-0.2,6.8-0.3,13.7,0,20.5c0.2,3.9-1.3,4.7-4.9,4.7C426.4,374,401.6,374,376.7,374
		C376.7,374,376.7,374,376.7,374z"/>
	<path class="st17" d="M131.8,309c5.1,1.9,8.6,5.2,9.2,10.9c-0.3,1.7,0,3.5-1,5c-4.1-1-8.2-2.7-11.9,0.9c-1.8-2-3.5-4-5.3-6
		c2.9-3.6,5.7-7.3,8.6-10.9C131.4,309.1,131.8,309,131.8,309z"/>
</g>
</svg>
