<?xml version="1.0" encoding="utf-8"?>
<!-- Generator: Adobe Illustrator 19.0.0, SVG Export Plug-In . SVG Version: 6.00 Build 0)  -->
<svg version="1.1" id="Calque_1" xmlns="http://www.w3.org/2000/svg" xmlns:xlink="http://www.w3.org/1999/xlink" x="0px" y="0px"
	 viewBox="0 0 612 792" style="enable-background:new 0 0 612 792;" xml:space="preserve">
<style type="text/css">
	.st0{fill:#0095E5;}
	.st1{fill:#FDFDFD;}
	.st2{fill:#0195E4;}
</style>
<g>
	<path class="st0" d="M299.9,159c84,0,168,0,251.9-0.1c3.8,0,4.3,1,4.3,4.4c-0.1,164.8-0.1,329.6,0,494.4c0,3.4-0.5,4.4-4.3,4.4
		c-167.8-0.1-335.6-0.1-503.4,0c-3.9,0-4.5-1-4.5-4.7c0.1-164.6,0.1-329.3,0-493.9c0-3.6,0.6-4.7,4.5-4.7
		C132.3,159,216.1,159,299.9,159z"/>
	<path class="st1" d="M299.8,645c-77.6,0-155.3-0.1-232.9,0.1c-4.9,0-5.9-1.2-5.9-6c0.1-152.8,0.1-305.6,0-458.4
		c0-4.2,1.4-4.8,5-4.8c125.6,0.1,251.3,0.1,376.9,0.1c30.3,0,60.7,0.1,91-0.1c4.1,0,5.2,1,5.2,5.2c-0.1,152.1-0.1,304.3-0.1,456.4
		c0,7.5,0,7.5-7.7,7.5C454.1,645,376.9,645,299.8,645z"/>
	<path class="st2" d="M300,389.1c-47.6,0-95.3,0-142.9,0c-4.1,0-7.7-0.8-9.7-4.7c-3.1-6.1,1.3-12.3,8.7-12.4
		c18.5-0.1,37-0.1,55.5-0.1c76.6,0,153.3,0,229.9,0c1,0,2,0,3,0c5.4,0.2,9.1,3.7,9.1,8.6c0,4.9-3.7,8.4-9.2,8.4
		c-17.2,0.1-34.3,0.1-51.5,0.1C361.9,389.1,330.9,389.1,300,389.1C300,389.1,300,389.1,300,389.1z"/>
	<path class="st2" d="M300,252.8c47.1,0,94.3,0,141.4,0c2,0,4.1-0.2,6,0.3c4.2,1.2,6.2,4.3,6.1,8.6c-0.1,4.3-3.5,7.7-8.1,8
		c-4.3,0.3-8.7,0.1-13,0.1c-91.5,0-182.9,0-274.4,0c-0.8,0-1.7,0-2.5,0c-5.4-0.3-9.1-3.8-9.1-8.6c0-4.9,3.6-8.4,9.2-8.4
		c18.5-0.1,37-0.1,55.5-0.1C240.7,252.8,270.3,252.8,300,252.8C300,252.8,300,252.8,300,252.8z"/>
	<path class="st2" d="M299.5,568.2c-47.5,0-95,0-142.4,0c-6.7,0-10.6-3.2-10.7-8.5c0-5.2,4.1-8.6,10.6-8.6c95.1,0,190.3,0,285.4,0
		c4.9,0,9,0.9,10.7,6.2c1.9,5.9-2.2,10.9-9.2,10.9c-16.8,0.1-33.7,0.1-50.5,0.1C362.1,568.2,330.8,568.2,299.5,568.2
		C299.5,568.2,299.5,568.2,299.5,568.2z"/>
	<path class="st2" d="M300.2,431.9c40.7,0,81.3,0,122,0c1.5,0,3,0,4.5,0c6,0.1,9.7,3.2,9.8,8.3c0.1,5.3-3.7,8.7-10,8.7
		c-11.3,0.1-22.7,0-34,0c-72.5,0-145,0-217.5,0c-0.8,0-1.7,0-2.5,0c-5.4-0.3-9.1-3.9-9.1-8.7c0-4.8,3.8-8.3,9.3-8.3
		c13-0.1,26,0,39,0C241.2,431.9,270.7,431.9,300.2,431.9C300.2,431.9,300.2,431.9,300.2,431.9z"/>
	<path class="st2" d="M300.1,508.6c-33.1,0-66.3,0-99.4,0c-2.5,0-5,0.2-7.3-1.2c-3.2-2.1-5-5.1-4.1-8.9c0.9-4.4,3.9-6.9,8.5-7
		c11.2-0.1,22.3-0.1,33.5-0.1c55.6,0,111.2,0,166.9,0c1,0,2,0,3,0c6,0.2,9.7,3.3,9.9,8.3c0.1,5.1-3.8,8.7-10,8.7
		c-23,0.1-46,0.1-68.9,0.1C321.4,508.6,310.7,508.6,300.1,508.6C300.1,508.6,300.1,508.6,300.1,508.6z"/>
	<path class="st2" d="M299.5,329.5c-32.6,0-65.3,0-97.9,0c-1.8,0-3.7,0-5.5-0.2c-4.1-0.7-7.3-4.3-7-8.4c0.2-4.3,2.5-7.2,6.8-8.1
		c1.4-0.3,3-0.3,4.5-0.3c66.4,0,132.9,0,199.3,0c1,0,2,0,3,0.1c4.9,0.5,8.2,3.8,8.3,8.4c0.1,4.6-3.4,8.5-8.5,8.6
		c-10,0.2-20,0.1-30,0.1C348.1,329.6,323.8,329.6,299.5,329.5C299.5,329.5,299.5,329.5,299.5,329.5z"/>
</g>
</svg>
