<?xml version="1.0" encoding="utf-8"?>
<!-- Generator: Adobe Illustrator 19.0.0, SVG Export Plug-In . SVG Version: 6.00 Build 0)  -->
<svg version="1.1" id="Calque_1" xmlns="http://www.w3.org/2000/svg" xmlns:xlink="http://www.w3.org/1999/xlink" x="0px" y="0px"
	 viewBox="0 0 612 792" style="enable-background:new 0 0 612 792;" xml:space="preserve">
<g>
	<path d="M79.2,655c0-2.1,0-3.9,0-5.7c0-43.5,0-87,0-130.5c0-18.1,5.2-34.4,16.7-48.6c5.3-6.5,11.5-11.8,19.3-15.5
		c32.3-15.4,64.4-31.2,96.6-46.8c3.1-1.5,4.9-3.1,4.3-6.7c-0.3-1.6-0.2-3.4,0-5c2.2-15.4-2.5-29.2-10.3-42.1
		c-1.1-1.8-3.1-3.3-4.9-4.6c-4.1-3-8.8-5.4-12.5-8.9c-4.6-4.3-7-9.9-6.5-16.6c0.4-6.1,0.3-12.3,0-18.5c-0.4-9.1,3.7-15.4,11.7-19.1
		c2.9-1.4,3.7-3,3.7-6c-0.1-16.7,0.1-33.3-0.1-50c-0.2-13.8,5.5-24.4,16.2-32.6c14-10.7,30.5-15.3,47.4-18.7c5-1,10.1-1.7,15.7-2.6
		c0-6.5,0-12.9,0-20.3c10.5,0.6,20.4,0.8,30.3,1.9c24.9,2.9,47.7,11.1,66.3,28.5c19.9,18.6,29.6,42.3,33,68.8
		c0.7,5.8,0.7,11.6,1.2,17.4c0.1,1.4,0.3,3.1,1.1,4.2c3.7,4.6,4.5,9.8,4.5,15.5c-0.1,7.3,0,14.7,0,22c0,7.2-2.6,12.9-8.6,17
		c-1,0.7-2.2,1.7-2.6,2.8c-7.4,20.1-23.5,29.4-42.9,34.5c-7.3,1.9-8.4,3.2-8.4,10.9c0,7.2,0.2,14.3-0.1,21.5
		c-0.2,3.6,1.2,5.3,4.3,6.7c31.5,15.2,62.7,30.8,94.4,45.6c18.9,8.8,29.3,24,35.1,43c2,6.6,2.9,13.8,3,20.7
		c0.3,44.3,0.2,88.6,0.1,133c0,1.5-0.2,2.9-0.3,4.7C350.8,655,215.2,655,79.2,655z M360,272.6c-1-0.1-1.5-0.3-1.9-0.2
		c-34.9,4.9-67.2-2.4-97-21c-2.3-1.4-3.7-1.1-5.7,0.3c-13.2,9.2-27.5,16.3-42.9,21c-5.3,1.6-7.4,3.9-6.6,9.3
		c0.9,6.1-1.5,10-7.6,12.1c-5.2,1.7-8,5.5-7.7,11.4c0.3,6,0.3,12,0,18c-0.4,7.1,3.2,11.6,8.6,15.2c2.3,1.6,5.2,2.3,7.4,4
		c2.4,1.8,5,3.9,6.3,6.5c10.5,21.3,20.7,42.9,31.1,64.3c0.9,1.8,2.4,3.8,4.1,4.7c20.2,10.7,40.8,13.4,62.3,3.5
		c6.4-2.9,11.5-6,13.8-13c1.4-4.2,3.8-8.1,5.7-12.2c3.8-7.9,7.6-15.8,11.5-24.1c-4.9,0-9.1-0.1-13.4,0.1c-1.1,0.1-2.4,1.1-3.2,2
		c-5,5.6-11.4,7.9-18.7,8.1c-8.1,0.1-16.2,0.2-24.3,0c-10.2-0.2-20.1-1.9-27.8-9.2c-2-1.9-3.8-5.5-3.4-8c0.7-3.9,4.8-3.4,7.9-2.8
		c2,0.3,4.1,1.1,5.9,2.2c5.6,3.2,11.6,4.5,16.4,4.4c2.5-5.4,3.6-10.5,6.6-14c8.3-9.5,27.2-9.8,35.7-0.3c3.6,4,7.1,4.7,11.7,4.1
		c3.6-0.5,7.3-0.6,10.9-1.3c1.5-0.3,3.6-1.6,4-2.9c2.5-7.8,8.1-11.9,15.2-15.2c6.5-3,10.5-8.4,10-16.3c-0.3-5.3,0-10.7-0.1-16
		c0-8.4-1.5-10.6-9.4-13.8c-4-1.6-6.1-4.3-5.9-8.7C360.1,280.5,360,276.5,360,272.6z M238.2,646.1c31.1,0,61.9,0,92.6,0
		c0-32.4,0-64.4,0-97.4c-1.7,2.4-2.7,3.9-3.7,5.4c-12.2,18.9-24.4,37.8-36.6,56.7c-3.3,5.2-11.8,5.1-15.2,0
		c-11.1-17.2-22.2-34.4-33.3-51.6c-1-1.6-2.2-3.1-3.9-5.6C238.2,585,238.2,615.3,238.2,646.1z M300.1,435
		c10.3,33.7,20.6,67.5,31.3,102.5c18.6-35.4,36.7-69.6,54.8-104.1c-1.9-1-3.5-1.9-5.2-2.7c-12.1-5.9-24.2-11.8-36.3-17.6
		c-2.6-1.2-3.8-2.6-3.6-5.6c0.3-3.7,0.1-7.5,0.1-11.2c-4.7,7.4-8.1,15.1-12.1,22.4c-1.5,2.8-4.2,5.6-7,7
		C315,429.3,307.7,431.9,300.1,435z M225.9,396.2c-0.3,0.1-0.7,0.1-1,0.2c0,3.6-0.2,7.1,0.1,10.7c0.3,3.4-1,5-4,6.4
		c-10,4.6-19.8,9.5-29.6,14.4c-2.9,1.4-5.8,2.9-9,4.5c17.8,33.8,35.4,67.2,53.5,101.5c10.3-33.8,20.2-66.3,30.1-98.7
		c-7.9-3.3-15.5-6.1-22.8-9.6c-2.4-1.2-4.7-3.7-6-6.1C233.1,411.7,229.6,403.9,225.9,396.2z M290.1,176.6c5,0.8,10.1,1.5,15.2,2.5
		c16.7,3.3,33,7.9,47,18.3c11.1,8.3,16.9,19.2,16.7,33.4c-0.3,16.1,0,32.3-0.1,48.5c0,3.7,0.6,5.9,4.4,7.7c7.4,3.5,11.2,9.5,10.9,18
		c-0.2,6.3-0.4,12.7,0,19c0.5,7.3-2.4,13.1-7.4,17.8c-3.3,3.1-7.6,5.2-11.5,7.8c-1.5,1-3.1,2-4.6,3.1c0.2,0.4,0.5,0.8,0.7,1.1
		c7.6-2.3,14.4-6,20-11.9c4.1-4.4,6.5-9.2,6.3-15.7c-0.4-16.5-0.1-33-0.1-49.5c0-2.7-0.3-5.4,3.7-5.8c0.8-0.1,2-2.5,1.9-3.7
		c-0.9-7.9-1.4-16-3.3-23.7c-12.4-52.2-54.9-72.6-99.8-72.8C290.1,172.6,290.1,174.5,290.1,176.6z M299.4,463.5
		c-0.9,0.6-1.3,0.8-1.5,1c-18,25.3-36,50.7-54,76.1c-0.7,0.9-1.2,2.8-0.8,3.5c3.1,5.2,6.4,10.2,10,15.7
		c17.3-25.5,34.1-50.1,50.7-74.7c0.7-1.1,1.1-2.9,0.8-4.1C303.2,475.3,301.3,469.7,299.4,463.5z M318.9,527.6
		c-0.6,0.2-0.8,0.2-0.9,0.3c-14.3,20.6-28.6,41.3-42.8,62c-0.6,0.9-0.8,2.6-0.3,3.5c2.4,4.1,5.1,8,7.6,11.9c0.9-0.5,1.2-0.6,1.4-0.9
		c12.8-19.8,25.7-39.6,38.4-59.5c0.6-1,1-2.6,0.7-3.7C321.8,536.6,320.3,532.1,318.9,527.6z M358.1,229.6c-1.5-7.9-4.8-14-10.1-18.9
		c-8.1-7.6-18.1-11.6-28.5-14.9c-4.6-1.5-6.4,1-7.2,4.4c-0.8,3.3-2.1,7.2,3.2,8.9c5.4,1.7,10.6,3.8,15.7,6.4
		c5.6,2.8,10.2,6.9,12.5,13.1c1.8,4.8,7.6,7,11.9,4.2C356.8,232,357.5,230.4,358.1,229.6z"/>
	<path d="M339.7,306.9c-15.3,0-30.2,0-45,0c-1.3-10.9,8.3-21.4,20.5-22.5C327.8,283.1,338.7,292.9,339.7,306.9z"/>
	<path d="M275.8,306.9c-15.3,0-30.2,0-45.1,0c-0.6-11.8,9.4-22.1,21.8-22.6C264.9,283.7,275.6,293.9,275.8,306.9z"/>
</g>
</svg>
