<?xml version="1.0" encoding="utf-8"?>
<!-- Generator: Adobe Illustrator 19.0.0, SVG Export Plug-In . SVG Version: 6.00 Build 0)  -->
<svg version="1.1" id="Calque_1" xmlns="http://www.w3.org/2000/svg" xmlns:xlink="http://www.w3.org/1999/xlink" x="0px" y="0px"
	 viewBox="0 0 612 792" style="enable-background:new 0 0 612 792;" xml:space="preserve">
<style type="text/css">
	.st0{fill:#83D9FD;}
	.st1{fill:#54BFE9;}
	.st2{fill:#E4E7EC;}
	.st3{fill:#FDFDFD;}
	.st4{fill:#324A5D;}
	.st5{fill:#324A5E;}
	.st6{fill:#81D4F7;}
	.st7{fill:#81D6F9;}
	.st8{fill:#82D5F8;}
	.st9{fill:#83D9FC;}
	.st10{fill:#84D9FC;}
	.st11{fill:#FD6F58;}
</style>
<g>
	<path class="st0" d="M80,530c-16.9-26.5-28.2-55.2-34.2-86.1c-3.7-19.4-5.6-38.8-4.7-58.5c1.8-40.6,12.3-78.9,32.2-114.5
		c11.5-20.7,25.8-39.2,42.4-55.9c32-31.9,70.1-53.8,113.7-65.5c25.2-6.8,51-9.7,77-8.3c49.3,2.7,94.4,17.6,134.8,46.3
		c46.4,33,78.4,76.7,95.8,130.9c6.1,19,9.5,38.6,11,58.5c3,39.9-3.4,78.1-18.4,115c-5.4,13.3-11.7,26.1-19.8,38
		c-1.6,1-3.3,1.5-5.2,1.5c-13.6,0.1-27.2,0.1-40.8,0c-1,0-2-0.2-2.9-0.5c-2.9-1.4-2.3-4.1-2.4-6.5c-0.3-6.1,0.5-12.3-1-18.4
		c-4.6-18.9-20.8-32.8-38-33.8c-26.9-1.7-42.4,15.9-47.3,32c-2,6.5-2,13.1-2,19.8c0,2.4,0.6,5.1-2,6.8c-9.1,1.3-18.2,1.1-27.3,0.1
		c-2.4-1.2-1.5-3.5-1.4-5.3c0.2-9.9-0.2-19.7-4.8-28.7c-10.7-20.9-28.7-27.6-48.5-23.8c-20.3,4-34.9,22.7-35,43c0,3.2,0.1,6.3,0,9.5
		c-0.1,2,0.1,4.1-2,5.3c-9.1,1.2-18.3,1.1-27.4,0.1c-2.2-1.1-2.1-3.2-2.2-5.2c-0.1-3.7-0.1-7.3,0-11c0.4-22-19.3-42.4-42.6-42.7
		c-23.2-0.3-46,21.1-44.7,45.3c0.2,2.8,0.1,5.7,0,8.5c-0.1,2,0,4.1-2.3,5.2c-4.4,1.2-9,0.6-13.4,0.7c-9.8,0.1-19.7,0.1-29.5,0
		C84.7,531.6,82.1,531.8,80,530z"/>
	<path class="st1" d="M495,552c-23.6,28.9-51.4,52.5-84.8,69.4c-29.7,15.1-61.1,24.2-94.3,26.7c-64.6,5-122.8-12.2-174.6-50.8
		c-17.4-13-32.6-28.4-46.2-45.3c0.3-2.3,2.2-2.2,3.7-2.5c2-0.3,4-0.2,6-0.2c126.8,0,253.7,0,380.5,0c2,0,4-0.1,6,0.2
		C492.8,549.8,494.7,549.7,495,552z"/>
	<path class="st2" d="M495,552c-1.6-1.8-3.8-1-5.6-1c-108.1-0.1-216.2,0-324.3,0c-21.7,0-43.3,0-65,0.1c-1.7,0-3.7-0.8-5.1,0.9
		c-5.5-7-11-14-15-22c17-0.1,34-0.1,50.9-0.2c4.1-2.4,8.6-1.1,12.9-1.3c2.5-0.1,5-0.1,7.5,0c16.4-0.2,32.8-0.3,49.1,0
		c2.5-0.1,5-0.1,7.6,0c4.3,0.2,8.8-1.1,12.9,1.3c9.7,0,19.3,0,29,0c4.1-2.4,8.6-1,12.9-1.3c2.5-0.1,5-0.1,7.5,0
		c16.4-0.3,32.8-0.1,49.1-0.1c2.5,0.3,5.1-0.1,7.6,0.1c4.4,0.3,8.9-1.2,13,1.3c9.7,0,19.3,0,29-0.1c4.1-2.4,8.5-1,12.8-1.3
		c2.5-0.1,5-0.1,7.5,0c16.7-0.2,33.4-0.3,50.1,0c2.5-0.1,5-0.1,7.5,0c4.3,0.3,8.8-1.1,12.9,1.3c16.7,0.1,33.4,0.1,50.1,0.2
		C506,538,500.2,544.8,495,552z"/>
	<path class="st3" d="M295,216.9c43,0,86,0,129,0c10.4,0,16.1,5.6,16.1,16c0,48.8,0,97.6,0,146.4c0,9.6-6,15.7-15.5,15.7
		c-86,0-171.9,0-257.9,0c-11,0-16.6-5.7-16.6-16.6c0-48.3,0-96.6,0-145c0-11,5.6-16.6,16.6-16.6C209.4,216.8,252.2,216.9,295,216.9
		C295,216.9,295,216.9,295,216.9z"/>
	<path class="st4" d="M439.9,529.8c-16.9,0-33.9,0-50.8,0c-2.1-2.2-1.2-5-1.5-7.6c-0.2-2.2,0.5-4.6-1.5-7
		c-3.5,4.6-0.2,10.7-4.2,14.6c-4.3,0-8.6,0-12.9,0c-0.5-12.9-0.3-25.5,6.8-37.1c10.7-17.2,31.2-25.9,50.3-20.8
		c19.8,5.2,33.3,22.3,33.8,42.9c0.1,5-0.1,10-0.1,14.9c-4.3,0-8.6,0-12.9,0c-2.2-2.8-1.8-6.2-2.4-9.4c-0.3-1.7,0.3-3.7-2.2-4.7
		C439.7,520,443.2,525.6,439.9,529.8z"/>
	<path class="st4" d="M340.1,529.9c-4.3,0-8.6-0.1-12.9-0.1c-2.3-1.7-1.4-4.2-1.7-6.5c-0.4-2.5-0.6-4.9-1.8-8.3
		c-1.8,3-1.1,5.4-1.4,7.7c-0.2,2.5,0.7,5.5-2.2,7.2c-16.7,0-33.4,0-50.1,0c-2.2-2.6-1.2-5.7-1.4-8.6c-0.2-2,0.3-4.2-1.7-6.3
		c-2.9,4.9-0.5,10.7-4,14.9c-4.3,0-8.6,0-12.9,0c0-8.5-1-17,1.6-25.3c7.1-23.2,28.1-36.8,51.7-33.5c20.9,3,36.9,22.3,37.4,45.4
		C340.8,520.9,341.4,525.4,340.1,529.9z"/>
	<path class="st4" d="M143.8,529.8c-4.3,0-8.6,0.1-12.9,0.1c-0.7-12.5-0.7-24.9,6.1-36.3c10.7-17.9,31.2-26.7,50.9-21.7
		c19.2,5,32.7,22.4,33.3,42.9c0.1,5-0.1,10-0.2,15c-4.3,0-8.6,0-12.9,0c-2.4-2.7-1.3-6.4-2.3-9.5c-0.5-1.5,0.1-3.4-1.6-4.8
		c-2.3,1.3-1.7,3.6-1.9,5.6c-0.3,2.9,0.8,6-1.4,8.6c-16.7,0-33.4,0-50,0c-1.9-2.3-1.1-5.1-1.3-7.7c-0.2-2.2,0.6-4.7-1.8-6.7
		c-2.3,2.6-1.7,5.9-2.3,8.8C145.1,526.2,145.7,528.3,143.8,529.8z"/>
	<path class="st5" d="M414.4,420.7c11.9,0,21.6,9.7,21.5,21.6c-0.1,11.7-10.2,21.7-21.9,21.5c-11.8-0.1-21.3-9.7-21.3-21.4
		C392.7,430,401.9,420.8,414.4,420.7z"/>
	<path class="st5" d="M197.3,442.4c-0.2,12-9.8,21.5-21.7,21.5c-11.6,0-21.6-10.3-21.4-21.9c0.2-12.1,10.1-21.5,22.4-21.3
		C188.3,420.9,197.4,430.5,197.3,442.4z"/>
	<path class="st5" d="M295.3,420.7c11.7,0,21.4,9.6,21.4,21.2c0.1,11.9-10.1,22-22,21.9c-11.4-0.1-21.4-10.1-21.4-21.5
		C273.3,430.3,282.9,420.7,295.3,420.7z"/>
	<path class="st6" d="M143.8,529.8c0.4-4.4,0.8-8.9,1.2-13.3c0.1-1.9,0.8-3.3,2.8-3.3c2.1,0,2.8,1.6,2.9,3.4
		c0.2,4.4,0.2,8.9,0.3,13.4C148.6,529.8,146.2,529.8,143.8,529.8z"/>
	<path class="st6" d="M201,529.8c0.1-4.3,0.2-8.6,0.3-12.8c0.1-1.9,0.6-3.8,2.9-3.8c2.3,0,2.7,1.9,2.9,3.8c0.3,4.3,0.7,8.5,1.1,12.8
		C205.8,529.8,203.4,529.8,201,529.8z"/>
	<path class="st7" d="M262.9,529.8c0.4-4.1,0.8-8.2,1.1-12.3c0.2-2.1,0.4-4.3,3-4.3c2.7,0,2.9,2.2,2.9,4.3c0,4.1,0.1,8.3,0.1,12.4
		C267.6,529.8,265.3,529.8,262.9,529.8z"/>
	<path class="st8" d="M439.9,529.8c0.1-4.1,0.2-8.2,0.2-12.3c0-2.1,0.1-4.3,2.8-4.3c2.4,0.1,2.9,2.2,3.1,4.3
		c0.3,4.1,0.7,8.2,1.1,12.3C444.7,529.8,442.3,529.8,439.9,529.8z"/>
	<path class="st9" d="M382,529.8c0.4-3.8,0.7-7.5,1.1-11.3c0.2-2.2-0.1-5.2,3.1-5.3c3.4,0,2.8,3,2.8,5.2c0.1,3.8,0.1,7.6,0.1,11.4
		C386.7,529.8,384.3,529.8,382,529.8z"/>
	<path class="st10" d="M320.1,529.8c1.2-4.3,0.3-8.6,0.6-12.9c0.1-1.7,0.2-3.6,2.4-3.8c2.5-0.2,2.9,1.7,3,3.6
		c0.3,4.3,0.7,8.6,1.1,12.9C324.9,529.8,322.5,529.8,320.1,529.8z"/>
	<path class="st11" d="M295.2,248.8c31.9,0.1,57.1,25.4,56.9,57.2c-0.1,31.9-25.8,57.2-57.8,57c-31.5-0.2-56.6-26.1-56.4-58.4
		C238.1,273.6,263.7,248.6,295.2,248.8z"/>
	<path class="st3" d="M275.9,305.7c0-9.7,0.1-19.3,0-29c0-3.8,0.9-6.9,4.5-8.7c3.9-1.9,7-0.7,10,1.9c10.8,9.6,21.8,19.1,32.6,28.8
		c4.7,4.2,4.7,9.5-0.1,13.8c-11,9.9-22.2,19.7-33.3,29.5c-2.8,2.5-6,3-9.3,1.4c-3.1-1.5-4.5-4.2-4.5-7.8
		C275.9,325.7,275.9,315.7,275.9,305.7z"/>
</g>
</svg>
