<?xml version="1.0" encoding="utf-8"?>
<!-- Generator: Adobe Illustrator 19.0.0, SVG Export Plug-In . SVG Version: 6.00 Build 0)  -->
<svg version="1.1" id="Calque_1" xmlns="http://www.w3.org/2000/svg" xmlns:xlink="http://www.w3.org/1999/xlink" x="0px" y="0px"
	 viewBox="0 0 612 792" style="enable-background:new 0 0 612 792;" xml:space="preserve">
<style type="text/css">
	.st0{fill:#83D9FD;}
	.st1{fill:#54BFE9;}
	.st2{fill:#83DAFD;}
	.st3{fill:#2B3B4E;}
	.st4{fill:#324A5E;}
	.st5{fill:#FDFDFD;}
	.st6{fill:#324A5D;}
	.st7{fill:#FDCF5B;}
	.st8{fill:#FCFCFB;}
	.st9{fill:#F9FAFA;}
	.st10{fill:#82D8FC;}
	.st11{fill:#FCCF5B;}
	.st12{fill:#FAFAFA;}
	.st13{fill:#F3F5F6;}
	.st14{fill:#FD7059;}
	.st15{fill:#FD6F58;}
	.st16{fill:#FD7058;}
	.st17{fill:#80D4F7;}
	.st18{fill:#7FD2F4;}
	.st19{fill:#609BB7;}
	.st20{fill:#609AB6;}
	.st21{fill:#4F7D97;}
	.st22{fill:#F6B44D;}
	.st23{fill:#E3E4E9;}
	.st24{fill:#F05641;}
	.st25{fill:#E4E5EA;}
</style>
<g>
	<path class="st0" d="M213.8,141.1c11.2-6.6,23.5-10.9,35.8-14.7c27.2-8.4,55.1-12.3,83.5-11.2c41.2,1.5,79.9,12.1,116,32.3
		c21.6,12.2,41.2,27,58.3,44.9c33.9,35.2,56.1,76.9,66.2,124.8c4.3,20.5,6.2,41.4,5.2,62.4c-1.3,24.8-5.4,49.1-13.8,72.5
		c-1.9,0.7-3.9,0.6-5.9,0.6c-44.5,0-89,0-133.4,0c-3,0-6,0.5-8.8-1.3c-1.1-1.2-1.5-2.7-1.4-4.2c0.3-7.8-1.4-15.6,1.1-23.3
		c2.6-2,5.7-1.5,8.7-1.5c30.2,0,60.3,0,90.5,0c11.8,0,15.6-3.7,15.6-15.4c0-49.3,0-98.6,0-147.9c0-1.5,0-3-0.2-4.5
		c-1-9-4.1-11.9-13.2-11.9c-72,0-143.9,0-215.9,0c-9.6,0-13.4,3.5-13.4,13.3c-0.1,50.8-0.1,101.6,0,152.4c0,10.3,4,14.1,14.4,14.1
		c30.5,0,61,0,91.5,0c3,0,6-0.5,8.7,1.4c2.6,5.5,1.1,11.3,1.3,16.9c0.2,3.5,0.8,7.2-1.3,10.5c-2.7,1.8-5.8,1.4-8.7,1.4
		c-49.9,0-99.8,0-149.7,0c-9.8,0-10-0.3-10.2-10c-0.7-8,0.9-15.8,1.9-23.7c1.5-12.2,2-24.4,2.4-36.6c0.8-2.4,2.1-4.6,3.9-6.4
		c0.5-0.2,1-0.2,1.5,0.1c2,3.8,0.8,7.8,1,11.7c0.3,6.4,6.2,12.2,12.6,12.3c2.9,0.1,4.4-0.9,4.2-4.1c-0.3-4.5-0.7-8.9-4.2-12.4
		c-1.9-2-3.8-4.4-2.5-7.6c0.8-1.4,1.7-2.7,2.6-4c1.1-1.4,1.4-3,1.4-4.7c0.3-21.8,2.1-43.5,0.3-65.3c-0.9-10.9-0.3-21.9-1.2-32.9
		c-1.1-13.8-2.2-27.5-5-41.1c-0.8-3.9-2.8-6-6.5-7.3c-7.7-2.7-15.3-5.5-23-8.4c-4.6-1.7-7.5-5.5-10.8-8.8c-1.6-2.6-2.4-5.5-3-8.5
		c0.1-1.6,1-2.9,2.1-4c10.4-10.9,12.4-31.2,4.4-43.8C215.7,145.3,213.6,143.7,213.8,141.1z"/>
	<path class="st1" d="M235.9,441.9c0.6,9.1,0.6,9.1,9.9,9.1c52.3,0,104.6,0,157,0c0.8,1,0.2,1.8-0.1,2.7
		c-9.7,15.7-19.8,31.2-29.8,46.8c-2.4,3.8-4.8,7.6-7.2,11.4c-2.1,3.2-0.9,3.7,2.3,4c6.1,0.6,10.3-1,13.4-6.8
		c5.2-9.5,11.5-18.3,17.3-27.5c1-1.6,1.7-4.8,5-2.9c1.2,2.3,0.9,4.9,0.9,7.4c0,13.5,0,27,0,40.5c0,5.3,0.8,5.8,5.6,6
		c3.9,0.1,5.3-1.6,5.3-5.4c-0.1-13.7,0-27.3,0-41c0-2.5-0.3-5,0.9-7.4c2.8-2.4,3.4,0.8,4.3,2c3.8,5.8,7.7,11.6,11.4,17.6
		c2.8,4.5,5.8,8.9,8.7,13.4c2.2,3.4,10.2,5.6,13.7,3.8c1.7-0.9,0.8-2,0.2-2.9c-2.4-3.6-4.6-7.3-6.9-11
		c-10.3-15.7-20.3-31.6-30.5-47.3c-0.5-1.1-1.2-2.3,0-3.5c47.4,0,94.8,0,142.2,0.1c1.9,0,4-0.8,5.7,1c-9.5,28.4-24,54-42.8,77.2
		c-28.6,35.1-64,60.8-106.2,77.1c-22.4,8.6-45.6,13.9-69.7,15.8c-54,4.4-104.3-7.3-151-34.6c-3.7-2.2-7.4-4.5-11.1-6.7
		c0.1-7,1-13.9,1.3-20.9c3.4-8.6,2.4-17.8,2.8-26.6c0.7-13.6,0.4-27.3,0.1-41c-0.3-12.3,1.5-24.6,1.1-36.9c0-1.3,0.2-2.7,0.8-3.9
		c0.3-0.6,0.8-1.2,1.4-1.2c4.1,0,6.7-2.5,9-5.4c2.2,1.7,1.9,4.2,1.8,6.4c-0.6,27.6,1.6,55.1,1.1,82.7c-0.1,5.6,0,11.3,0,16.9
		c0,2.7,0.2,5.3,1.6,7.7c1.5,4.8,1.8,9.8,2.1,14.7c0.2,2.6,0.5,5,2.4,6.9c1.9,1.9,3.2,4.1,3.8,6.9c0.5,2.6,2.3,4.1,4.9,4.3
		c6.3,0.4,12.5,1.7,18.8,0.3c6-1.3,8-5,4.8-10.5c-2.7-4.6-6.1-8.7-8.7-13.4c-1-1.9-2.4-3.7-2-6c2.5-4.1,2.1-8.4,1.7-13
		c-1.7-18.7-2.5-37.5-0.7-56.2c0.2-1.8,0.3-3.7,0.2-5.5c-0.6-13.3,1.3-26.6,1.1-39.9C233.5,445.3,233.1,442.8,235.9,441.9z"/>
	<path class="st2" d="M85,452c-6.1-16.9-9.7-34.4-12-52.1c-1.7-13.2-2.4-26.5-1.8-39.8c1.8-40.9,12.2-79.5,32.3-115.4
		c11.5-20.6,25.9-39,42.4-55.8c6.3-6.4,13.4-12,20.1-17.9c2.9,2.3,3.1,6.1,4.9,9c2,3.2,3.3,6.9,7.1,8.7c2.1,1.8,4.3,3.6,3.7,6.9
		c-2.9,5-1.3,10.8-3,16c-3-0.8-3.2-1.2-1.8-5.9c-2.3,1.7-3.8,4.2-6.5,5.3c-8.5,3-16.8,6.3-25.3,9.3c-4.1,1.4-6.2,3.9-7,8.1
		c-2.2,11.3-3.4,22.7-4.3,34.2c-2.7,32.7-2,65.5-2.1,98.3c0,3.5-0.3,7.1,2.4,9.9c1.1,1.5,1.7,3.2,2.7,4.8c1.3,3.2-0.4,5.6-2.3,7.6
		c-3.6,3.7-4.1,8.2-4.3,12.9c-0.1,2.5,1,3.6,3.5,3.7c6.5,0.2,13.1-5.6,13.3-12.1c0.1-2.8-0.1-5.7,0-8.5c0.4-1.6,0-3.6,2.6-3.6
		c2.8,1.7,3,4.5,3.1,7.3c0.1,3.4-0.3,6.9,0.8,10.3c0,16.9,4.1,33.5,4.4,50.4c0,2.6,0.4,5.4-1.5,7.6c-1.8,1.2-3.8,1.1-5.8,1.2
		c-20.3,0.1-40.5,0-60.8,0C87.9,452.6,86.4,452.5,85,452z"/>
	<path class="st3" d="M156.1,451c0.7-14-2.2-27.7-3.5-41.5c-0.5-5.4-0.8-10.9-0.7-16.3c-0.8-2.8-0.3-5.6-0.4-8.4
		c0-4.8,0.7-5.2,5.2-3.3c4.1,1.7,8.2,3.7,12.7,4.4c7.9,1.2,13.7-2.3,16-9.9c2.7-8.7,4.4-17.7,6.3-26.7c0.4-2,0.5-5.2,3-4.9
		c2,0.2,1.5,3.3,1.5,5.3c0.1,11,0,21.9,0,32.9c-1.7,15.2-2.7,30.5-2.9,45.8c-0.1,6.3-1.2,12.6-1,18.9c0,1.3-0.4,2.6-1.3,3.7
		c-1.1,24.9-1.2,49.9-1.4,74.8c-0.1,9.5-0.5,18.9-0.4,28.4c0,3.2-1.9,4.8-3.4,6.8c-7,9.2-20.9,9.7-26.7,1c-1.1-1.3-2.2-2.5-3.2-3.8
		c-0.9-1.7-1.2-3.4-0.9-5.3c2-13.2,1-26.5,1.4-39.8c0.5-18.8-0.9-37.5-1-56.3C155.4,454.9,155,452.9,156.1,451z"/>
	<path class="st1" d="M156.1,451c1.5,11.6,1.5,23.2,1.7,34.9c0.4,21.1,1.3,42.3-0.8,63.4c-0.3,3-0.7,5.9-1.1,8.9
		c-10.6-8.1-19.2-18.2-27.7-28.5c-18.3-22.2-32.2-47-42.2-73.9c-0.5-1.2-0.7-2.5-1.1-3.8c1.5-1.7,3.4-1,5.2-1
		C112.1,451,134.1,451,156.1,451z"/>
	<path class="st4" d="M177.3,188.8c-1.8,2-2.4-0.4-2.9-1.1c-4-4.9-6.7-10.5-8.5-16.6c-1.3-7.3-0.8-14.6,1.2-21.7
		c2.7-9.4,8-12.9,17.7-12.4c1.5,0.1,3,0.2,4.4-0.1c8.9-2.3,17.1-1.2,24.6,4.3c13.7,15,10.4,34.3,2.9,46.6c-0.9,1.5-1.8,3.2-3.6,4
		c-2-2-0.5-4.1,0.1-6c4-14.9,2.1-17.9-12.9-20.6c-1.1-0.2-2.3-0.5-3.4-0.7c-1-0.2-2.9-2-2,1.3c0.3,0.9-1.5,1-2.4,1
		c-3.7-0.2-7.3-0.7-10.7-2.2c-2.9-1.3-4.1-0.6-4.6,2.7c-0.8,5.5-1.2,10.9,0,16.3C177.5,185.1,178.2,187,177.3,188.8z"/>
	<path class="st4" d="M159.2,562c9,6.6,14.3,6.7,23.7,0.6c1-0.6,2-1.1,3-1.7c0.6,6.7,1,13.4-1.8,19.8c-2.9,1-4,3.2-4.1,6.2
		c0,3.7-2.3,5.6-5.6,5.8c-6.6,0.5-13.2,1.3-19.9,0.3c-7.6-1.1-10.4-6.8-5.9-13.3c3.1-4.5,6.3-9,9-13.8
		C158.4,564.8,159.1,563.6,159.2,562z"/>
	<path class="st5" d="M403.1,424.2c-22.5-0.1-45-0.1-67.5-0.2c-11.3,0-22.7-0.4-34,0.1c-9.7,0.5-14.6-5.8-14.6-14.7
		c0.1-30.5,0.1-61,0.1-91.5c0-20.5,0-41,0-61.5c0-12,3.5-15.6,15.3-15.6c71.5,0,142.9,0.2,214.4-0.2c14-0.1,16,6.6,16,16.1
		c0.1,29.3,0,58.6,0,88c0,21.5,0,43,0,64.5c0,10.1-4.6,14.7-14.5,14.7c-32.3,0-64.6,0-97,0c-1.5,0-3,0.1-4.5,0.2
		C412.3,426.2,407.7,426.2,403.1,424.2z"/>
	<path class="st6" d="M195.1,382.2c0-12.4,0-24.7,0-37.1c-3.3,9.6-4.6,19.6-7.6,29.2c-3.8,12.2-10,15.8-22.3,12.2
		c-3.5-1-6.9-2.4-10.1-4.2c-2.9-1.7-3-0.3-3,1.9c0,3-0.1,6-0.1,9c-1.1-2-0.7-4.2-0.6-6.3c0.2-3.9-0.4-7.5-2.3-10.9
		c-1.9-2.3-4.4-2.6-7.2-2.6c-2.6,0-5.3,0.6-7.7-1.1c-4.2,0.2-3.7-2.9-3.7-5.4c-0.2-17.6-0.5-35.3-0.3-52.9c0.4-28,1.3-55.9,5.8-83.6
		c1-6.5,3.5-10.3,10.1-12c8.5-2.2,16.3-6.5,25-8.5c0.8,2.7-1.4,3.9-2.9,5.1c-3.1,2.5-3.9,4.9-0.8,7.8c-0.1,2.7-4.9,3.5-2.9,7.1
		c2.8,10.6,5.9,21.1,10.3,31.2c5,11.3,11.1,21.9,18.7,31.7c0.9-0.8,0.5-2,1.3-2.7c0.4-0.3,0.9-0.4,1.3-0.3c1,2.3,1.8,2.4,3.4,0.2
		c8.8-12.2,15.8-25.4,20.9-39.5c2.1-5.8,4.1-11.6,5.7-17.5c0.7-2.7,1-5.2-1.2-7.4c-1.5-1.5-1.9-3.3,0.3-4.6c3.2-1.9,1.7-3.6,0.1-5.6
		c-1.1-1.3-3-2.4-2-4.6c9.4,3.3,18.8,6.7,28.2,9.8c2.9,1,3,3.4,3.5,5.5c2,8.9,3.3,18,4.1,27.1c2.7,30.7,3.3,61.5,2.8,92.3
		c-0.1,7.8-0.5,15.6-0.6,23.5c0,2.3-0.3,4-3.1,3.9c-2.5,2.2-5.6,1.3-8.5,1.5c-2.2,0.2-4.7-0.6-6.4,1.6c-0.6,1.9-1,4-3.1,5
		c-5.1,6.2-19.1,10.3-26.5,7.6c-4.8-1.7-8.3-4.9-9.7-9.9c-3.3-11.5-6.5-22.9-7-33.8c1.2,9.5,0.6,20.2,0.7,30.9c0,2,0.1,4-0.8,5.9
		C196.2,382.1,195.7,382.3,195.1,382.2z"/>
	<path class="st3" d="M196,382.1c0-13.3,0-26.6,0-39.9c0.2,0,0.5-0.1,0.7-0.1c1.4,6.8,2.8,13.5,4.3,20.3c1.3,5.8,2.6,11.6,4.4,17.3
		c2,6.3,10.2,9.6,18,8.1c5.9-1.2,11.2-4,16.5-6.7c0.3,16.6-1.1,33.1-3.6,49.5c-0.6,3.7-0.4,7.6-0.5,11.4c-1.7,8.9-1.1,17.9-1.5,26.8
		c-0.8,20.4-1.9,40.8-1.1,61.3c0.3,7,0.5,14,1.6,20.8c0.8,4.8,0,8.6-2.9,12.2c-7.7,8-21.2,6.5-26.9-3c-2.9-1.4-3-3.9-3.1-6.8
		c-0.4-34.5-0.8-69-1.3-103.5c0-1.6,0.2-3.3-0.6-4.9c-2-1.8-1.7-4.2-1.7-6.5c0-16.5-1-32.9-2.7-49.3
		C195.6,386.7,196.2,384.4,196,382.1z"/>
	<path class="st6" d="M403.1,424.2c4.6,0,9.2,0,13.8,0c0.1,8.9,0.2,17.8,0.2,26.8c0.3,1,0.6,2,0.9,3c0.4,8.1,1.2,16.2-0.2,24.3
		c-1.6,1.3-0.8,3.1-0.8,4.7c-0.1,15.5-0.2,31,0,46.5c0,3.8-1,4.8-4.7,4.7c-9.3-0.1-9.3,0-9.3-9c0-14,0-28-0.1-42
		c0-1.7,0.9-3.7-0.9-5.1c-1.1-8.4-0.5-16.8-0.1-25.2c0.3-0.7,0.6-1.3,0.9-2C402.9,442.1,403,433.1,403.1,424.2z"/>
	<path class="st7" d="M177.3,188.8c-3.4-8.4-2.5-16.9-1-25.5c0.3-2,1-2.5,3-1.4c4.5,2.7,9.7,3.2,14.9,3.8c-0.3-1.8-2.7-1.8-2.9-4
		c6,1.3,12.1,2.3,18,4c5.5,1.6,8.2,6.4,7.2,12.6c-0.7,4.6-2.1,9-3.2,13.5c-0.8,1.1-1.5,2.2-2.3,3.2c-0.4,1.5,0.8,3.5-1.5,4.4
		c-1,0.1-2,0.3-2.8,0.8c-9,5.1-17.1,3.8-24.4-3.2c-0.6-0.5-0.9-1.2-0.9-2C179.9,192.9,178.6,190.8,177.3,188.8z"/>
	<path class="st3" d="M223.1,210.8c0.5,1.9,2.4,2.7,3.4,4.2c1.6,2.3,5.8,5-0.7,6.7c-1.7,0.5-1.9,2-0.3,2.9c3.3,1.8,2.8,4.5,2.1,7.3
		c-5.6,21.1-14.2,40.9-27,58.8c-1,1.4-2.1,2.9-4,3.6c-1-1.4-0.3-2.9-0.6-4.3c-1.6-2-0.7-4.2-0.2-6.2c3.1-13,5.4-26.2,8.7-39.2
		c1.2-7.1,2.2-14.3,4.3-21.2c2.4-5.1,4.2-10.3,3.9-16c-0.1-1.6,0-3.3,1.4-4.5C217.6,204.9,219.4,208.9,223.1,210.8z"/>
	<path class="st7" d="M256,376.2c-0.6,3.9,2.2,6.2,4.4,8.4c4.4,4.3,2.8,9.7,2.7,14.4c-0.1,4.6-5.2,2.8-7.1,2.1
		c-8.5-3.1-12.9-4.8-12.1-15.1c0.3-3.3,0.3-6.6,0.4-9.9C248.3,373.7,252.1,373.6,256,376.2z"/>
	<path class="st8" d="M214,202.9c0.5,7.4-0.1,14.6-4.1,21.1c-2.2,0.5-2.8-1.4-3.7-2.6c-1.5-2-2.8-4.1-4.9-5.4
		c-1.6-1.3-3.8-2-4.6-4.1c0.1-0.7,0.3-1.3,0.9-1.6c5-2.4,8.5-6.4,11.5-10.9c1.4-1.1,0.1-3.2,1.6-4.3
		C212.6,197.3,212.8,200.3,214,202.9z"/>
	<path class="st9" d="M256,376.2c-3.9,0-7.8-0.1-11.6-0.1c-0.4,0-0.9-0.1-1.3-0.1c-0.3-2.1-0.1-3.5,2.6-3.4
		c4.1,0.2,8.2,0.2,12.3,0.3C258,374.5,258,376,256,376.2z"/>
	<path class="st4" d="M205.1,560c8.2,7.5,17.1,9.2,26.9,3c3.3,5.6,6.5,11.2,10.5,16.3c4.3,5.5,3.6,13.5-6,14
		c-6.4,0.4-12.6-0.3-18.9-0.5c-3.2-0.1-5.6-1.9-5.8-5.7c0-1.1-0.1-2.7-0.7-3.3C203.3,577.3,206.2,568.2,205.1,560z"/>
	<path class="st3" d="M401.9,452.9c2.2,2.4,1.1,5.4,1,8c-0.2,5.7,1.1,11.5-0.9,17.1c-7.6,12.1-15.3,24.1-22.7,36.3
		c-1.6,2.6-3.7,2.5-6,2.3c-3.7-0.3-9,1.9-10.7-1c-1.4-2.4,3-6.1,4.9-9.1C378.9,488.6,390.4,470.8,401.9,452.9z"/>
	<path class="st3" d="M417.9,478.3c-1.3-8.1-1.7-16.2,0.2-24.3c12.9,20,25.9,39.9,38.8,59.9c1.2,1.9,1.2,3-1.5,2.9
		c-3.7-0.1-7.3,0-11,0c-1.5,0-2.5-0.6-3.3-1.8C433.4,502.7,425.6,490.5,417.9,478.3z"/>
	<path class="st10" d="M196,382.1c2.3,6.8,2.2,14,2.7,21.1c0.9,13.9,1.7,27.8,1.5,41.7c-0.5,6.2-0.5,6.2-9,6.1
		c0.4-23,0.8-45.9,3.9-68.7C195.4,382.2,195.7,382.1,196,382.1z"/>
	<path class="st3" d="M167,222.9c-5-3.3-5-3.3-0.5-7.9c1.6-1.6,3.6-2.9,4.4-5.2c1.7-1.9,3.5-3.9,5.5-6.1c1.3,3-0.2,5.8,1.2,8.1
		c3.2,3.5,2.6,8.6,5.3,12.3c2.1,7.1,2.8,14.5,4.5,21.7c2.4,12.3,5,24.6,7.6,36.9c0.5,2.4,0.8,4.9-0.1,7.3c-0.1,1.8-0.2,3.5-0.3,6.1
		c-6.8-7.4-11.5-15.1-15.7-23.1c-6.6-12.7-12.1-25.8-14.9-39.9c-0.2-1.1-0.1-2.4-1.3-3.1C162,226.2,166.3,225.7,167,222.9z"/>
	<path class="st11" d="M147.6,379.6c0.1,2.5,0.3,5,0.4,7.4c0.1,8.5-8.5,16.1-16.8,14.7c-1.9-0.3-3.1-2.2-2.8-3.6
		c1.1-5.1-1-11,4.4-15c2.1-1.5,3.7-3.9,3.2-6.9c2.8-2.6,6.1-1.7,9.2-1.3C148,375.4,147.3,377.8,147.6,379.6z"/>
	<path class="st12" d="M181.8,224.1c-2.4-3.8-3.7-7.9-4.1-12.3c0.7-5.7-1.1-12,3.5-16.9c0.3,0.4,0.6,0.7,0.9,1.1
		c1.4,7.7,7.4,11.6,13.2,15.7c-1,2.8-4.1,3.2-5.9,5c-1.7,1.1-2.7,2.8-3.7,4.5C184.8,222.7,184.2,224.8,181.8,224.1z"/>
	<path class="st13" d="M147.6,379.6c-0.3-2.6-1.3-4.1-4.4-3.6c-2.4,0.4-4.8,0.2-7.3,0.2c-2.5-0.4-1.9-2.3-1.9-3.9
		c3.8-0.1,7.6,0.1,11.3-0.3c3.3-0.3,4,1.2,3.6,4C147.4,376.8,148.2,378.5,147.6,379.6z"/>
	<path class="st14" d="M401.2,341.5c0-15.2,0.1-30.3-0.1-45.5c0-3.7,0.6-5.6,4.9-5.1c4.7,0.6,10.9-2,13.9,1.1
		c2.7,2.9,0.8,8.9,0.8,13.5c0,27.3-0.1,54.6,0.1,82c0,4.2-1.3,5.3-5.4,5.3c-14.4-0.1-14.3,0-14.3-14.3
		C401.3,366.2,401.2,353.8,401.2,341.5C401.2,341.5,401.2,341.5,401.2,341.5z"/>
	<path class="st15" d="M483.9,351.4c0-12.2,0.1-24.3-0.1-36.5c0-3.2,0.8-4.5,4.2-4.3c4.8,0.4,10.9-1.9,14,0.9
		c3,2.7,0.9,8.8,0.9,13.4c0.1,21,0,42,0.1,63c0,3.7-0.8,5.2-4.7,4.8c-4.6-0.5-10.5,2-13.5-0.9c-3-2.9-0.9-8.8-1-13.4
		C483.7,369.4,483.9,360.4,483.9,351.4C483.9,351.4,483.9,351.4,483.9,351.4z"/>
	<path class="st16" d="M360.1,362.5c0-9,0.1-17.9,0-26.9c0-2.7,0.7-3.7,3.6-3.8c15.7-0.6,15.7-0.7,15.6,14.7
		c-0.1,13.8-0.1,27.6,0.1,41.4c0,3.5-0.7,4.9-4.6,4.9c-14.7,0-14.7,0.2-14.6-14.4C360.1,373.2,360.1,367.8,360.1,362.5z"/>
	<path class="st16" d="M339.9,368.5c0,6.8-0.1,13.7,0,20.5c0.1,2.8-0.9,3.9-3.7,3.8c-5.2-0.1-10.3-0.2-15.5,0
		c-2.7,0.1-3.8-0.7-3.8-3.6c0.1-14,0.1-28,0-42c0-2.3,0.7-3.2,3.1-3.2c5.5,0.1,11,0.2,16.5,0c2.7-0.1,3.4,1,3.4,3.5
		C339.8,354.5,339.9,361.5,339.9,368.5z"/>
	<path class="st16" d="M461.9,371.9c0,5.5-0.1,11,0,16.4c0.1,2.7-0.7,3.7-3.6,3.8c-15.8,0.6-15.7,0.7-15.6-15.2c0-7,0.2-14-0.1-20.9
		c-0.1-3.5,0.7-4.9,4.6-4.9c14.6-0.1,14.6-0.3,14.6,14.3C461.9,367.6,461.9,369.8,461.9,371.9z"/>
	<path class="st15" d="M195,289.9c-3-14.6-5.9-29.1-8.9-43.7c-0.3-6.7,1.3-13.1,2.4-19.6c0.4-2.1,0.6-4.3,2.2-6
		c3.3-1.5,6.7-1.4,10.2-0.9c2.7,6.4,3,13.4,3.9,20.2c0.2,1.8,0.3,3.6,0.5,5.4c-3.2,14.9-6.4,29.8-9.6,44.6c0,0-0.5,0.1-0.5,0.1
		L195,289.9z"/>
	<path class="st17" d="M238.2,317.9c-0.4-10.1-0.2-20.2,1.3-31.5c3.7,12.3,0.8,23.3,0.4,34.4C237.2,321.1,239.3,318.6,238.2,317.9z"
		/>
	<path class="st18" d="M151.1,317c-0.4-9.6-2.8-19.3,0.1-28.9c2.1,10.9,2,21.8,1.6,32.8C150.2,320.4,152.3,318,151.1,317z"/>
	<path class="st19" d="M151.1,317c0.6,1.3,1.1,2.6,1.7,3.9c0.2,2.1,0.5,4.2-1.7,6.2C151.1,323.7,151.1,320.3,151.1,317z"/>
	<path class="st20" d="M238.2,317.9c0.6,1,1.1,1.9,1.7,2.9c0,2.4,0,4.7,0,7.1C238.7,324.6,237.5,321.4,238.2,317.9z"/>
	<path class="st21" d="M167,222.9c0.5,3.5-4.2,3.8-4.2,7C160.8,225.6,165.4,225.1,167,222.9z"/>
	<path class="st22" d="M194.9,211.9c-3.7-2.1-7.7-3.6-10.3-7.2c-1.8-2.6-3.2-5.4-2.5-8.7c2.8,0.2,3.8,3,6.1,4.1
		c6.3,3.1,12.2,2.1,18-1.1c0.9-0.5,2.4-2.9,3,0.3c-1,7.2-7.1,9.5-12.3,12.7C196.2,212.5,195.5,212.5,194.9,211.9z"/>
	<path class="st23" d="M205.5,245.3c-2.8-8.2-3.7-16.7-4.7-25.3c-1.1-2.1-0.2-3.7,1.3-5.1c3.7,2,4.5,6.6,7.8,9
		C208.5,231.1,207,238.2,205.5,245.3z"/>
	<path class="st24" d="M202.2,215c0.1,1.8-0.7,3.4-1.3,5.1c-3.1,1.8-6.5,0.7-9.7,0.9c-2.3-1-2.8-2.7-2.2-5c1.3-2.3,3.8-2.9,5.9-4.1
		c0.7,0,1.4,0,2,0.1C198.7,213,200.4,214,202.2,215z"/>
	<path class="st25" d="M189,216c0.7,1.7,1.4,3.3,2.2,5c-1.6,8.4-3.3,16.8-4.9,25.2c-1.5-7.4-3-14.7-4.4-22.1
		c2.1-0.8,2.5-2.9,3.5-4.6C186.1,217.9,186.6,216,189,216z"/>
</g>
</svg>
