<?xml version="1.0" encoding="utf-8"?>
<!-- Generator: Adobe Illustrator 19.0.0, SVG Export Plug-In . SVG Version: 6.00 Build 0)  -->
<svg version="1.1" id="Calque_1" xmlns="http://www.w3.org/2000/svg" xmlns:xlink="http://www.w3.org/1999/xlink" x="0px" y="0px"
	 viewBox="0 0 612 792" style="enable-background:new 0 0 612 792;" xml:space="preserve">
<g>
	<path d="M138.8,184.2c0,20.6,0,40.9,0.1,61.3c0,2.4,0.3,5.1,1.3,7.2c1.6,3.6,4.3,6.4,8.9,5.7c4.9-0.7,7.7-3.7,8.6-8.4
		c0.3-1.5,0.2-3,0.2-4.5c0-19,0-38,0-57c0-2,0-4,0-6.3c7.7,0,15.1,0,23.2,0c0.1,1.7,0.2,3.4,0.2,5.2c0,18.8,0,37.7,0,56.5
		c0,1.2-0.1,2.3,0,3.5c0.4,6.2,5.2,11.3,10.6,11.2c5.7,0,10.7-5.2,10.8-11.6c0.1-12.8,0-25.7,0-38.5c0-8,0-16,0-24
		c15.2,1.4,23.2,9.9,23.3,24.8c0.1,22.2,0.1,44.3,0,66.5c-0.1,24.8-17.3,43.2-42,44.4c-10.8,0.5-21.8,0.9-32.4-0.8
		c-20.9-3.2-36.2-22-36.4-43.4c-0.3-22.3-0.2-44.7,0-67C115.3,194.7,122.3,187.3,138.8,184.2z"/>
	<path d="M418.1,182.2c8.2,0,15.7,0,23.7,0c0,2.1,0,3.9,0,5.7c0,19,0,38,0,57c0,0.5,0,1,0,1.5c0.1,7,4.7,12.4,10.5,12.3
		c5.1-0.1,8.7-4.9,8.7-12c0-17.8,0-35.7,0-53.5c0-2.8,0-5.6,0-8.5c13.9,0.6,23.1,9.4,23.2,22.9c0.2,23.3,0.3,46.7,0,70
		c-0.3,21.9-18.3,41-40.2,42.5c-10.6,0.7-21.5,1.1-31.9-0.5c-21.3-3.2-36.2-22.1-36.5-44.3c-0.2-16.8,0-33.7-0.1-50.5
		c0-5,0.2-10-0.2-15c-1.2-15.5,5.3-23.4,21.5-25.3c0,14.7,0,29.3,0,44c0,6.3-0.1,12.7,0,19c0.1,6.4,5.1,11.3,11,11.2
		c6.2-0.1,10.1-4.3,10.1-11.2c0.1-19.8,0-39.7,0-59.5C418.1,186,418.1,184.1,418.1,182.2z"/>
	<path d="M268.9,183.5c0,21.2,0,41.4,0,61.5c0,2,0,4.1,0.6,5.9c1.8,5.4,6.8,8.3,12.1,7.4c5.4-1,8.4-4.6,8.4-10.7
		c0.1-19.8,0-39.7,0-59.5c0-1.8,0-3.6,0-5.9c7.8,0,15.4,0,23.7,0c0,2.1,0,4.2,0,6.3c0,19.3-0.1,38.7,0,58c0,8.2,5.9,13.2,13.2,11.7
		c5.3-1.1,8-4.7,8-11c0.1-18.7,0-37.3,0-56c0-2.3,0-4.6,0-6.9c16.5,2.6,23.4,10.3,23.4,26.1c0.1,21.3,0.1,42.7,0,64
		c-0.1,27.7-18.4,45.8-46.2,46c-6,0-12,0.1-18,0c-25.3-0.6-44.3-19.8-44.5-45.1c-0.1-20.5,0-41-0.1-61.5c0-2.1-0.3-4.3-1-6.3
		c-3.1-9.2-0.9-15,7.8-19.3C260.2,186.4,264.2,185.3,268.9,183.5z"/>
	<path d="M115.3,516.6c16.3,14,33.9,20.1,54.5,19.6c20.1-0.5,38.8-2.8,54.2-19.3c0,7.2,0.1,13.3,0,19.3c-0.1,9.5,0.6,19.1-0.7,28.4
		c-3,20.5-17.3,34.5-37.8,36.8c-10.5,1.2-21.4,1.2-31.9,0c-22.1-2.7-37-19-38.2-41.4C114.7,546.1,115.3,532.1,115.3,516.6z"/>
	<path d="M481.1,518.1c0,16.6,1.6,33.1-0.4,49c-2.5,20.4-20.9,34.6-41.5,34.8c-9,0.1-18.1,0.6-27-0.4c-21.4-2.4-36.8-18-38.4-39.5
		c-1.1-14.5-0.2-29.2-0.2-44.5c1.5,1.2,2.8,2.1,4,3c12.7,10.1,26.9,15.7,43.3,15.4c7.7-0.1,15.4,0.3,23-0.4
		C458.3,534.3,471,528.8,481.1,518.1z"/>
	<path d="M373.6,321.4c38.5,25.8,70.3,25.8,108.6-0.1c0,5.5,0,10.6,0,15.6c-0.1,10.2,0.7,20.4-0.5,30.5c-2.6,21-20.4,37-41.8,38.3
		c-8.5,0.5-17.1,0.7-25.5-0.2c-22.4-2.3-38.9-18.6-40.5-41.1C372.7,350.4,373.6,336.2,373.6,321.4z"/>
	<path d="M354.6,518.6c-0.5,16.1,0.3,32.4-1.8,48.3c-2.7,19.7-21.9,34.7-41.8,35.1c-9,0.2-18.1,0.6-27-0.4
		c-21.1-2.4-36.4-17.9-38.1-39.2c-1.1-13.9-0.5-28-0.6-42c0-0.8,0.1-1.5,0.3-3.4c15.7,14.5,33.7,19.4,54.1,19.1
		c20.1-0.2,38.8-2.7,53.6-18.2C353.7,518.2,354.2,518.4,354.6,518.6z"/>
	<path d="M115.3,321.5c36.4,25.4,72.3,25.5,108.2,1c0,14.2,1.4,29.2-0.3,43.9c-2.6,21.6-18.3,35.2-40.6,37
		c-9.1,0.7-18.4,0.7-27.4-0.3c-22-2.4-38.5-19.7-39.7-41.9C114.7,348.2,115.3,335,115.3,321.5z"/>
	<path d="M245.6,322.3c36.2,24.6,72,24.6,108.5-0.1c0,9,0,18.4,0,27.8c0,5.3,0.3,10.7-0.5,16c-3,20.4-18,35.1-38.6,37.1
		c-9.6,0.9-19.4,1.1-28.9,0.2c-22.3-2.1-38.5-18.3-40.3-40.6C244.7,349.2,245.6,335.6,245.6,322.3z"/>
	<path d="M223.6,446.7c-4.7,16.2-15.4,28-32.9,32c-14,3.3-28.6,3.1-42.6,0c-16.1-3.6-30-18.5-32-33.5c1.5,0.9,2.6,1.6,3.7,2.4
		c12.5,9,26.4,14.1,42,13.5c11-0.4,22.2,0.3,32.7-2.1C204.5,456.7,213.9,451,223.6,446.7z"/>
	<path d="M244.1,446.3c35.9,21.2,71.6,21.3,107.1-0.1c-2.1,14.4-15.7,29.9-32.5,32.4c-13.8,2-28.3,2-42.1,0
		C260,476.1,246.3,460.7,244.1,446.3z"/>
	<path d="M481.9,482.7c-3.8,19.4-19.6,33.9-39.7,35.8c-10.7,1-21.7,1-32.3-0.7c-17.9-2.8-29.6-14-35.5-31.2c-0.2-0.5-0.3-1-0.3-1.5
		c0-0.3,0.1-0.6,0.3-1.9c15.6,13.2,33.7,16.7,53.4,16.7C447.6,500,465.8,496.5,481.9,482.7z"/>
	<path d="M244,484.6c36.1,21.4,71.8,21.5,107.7-0.4c-4.5,16.5-14.8,28.1-31.5,32.5c-14.9,4-30.5,3.9-45.5,0
		c-14.9-4-25-14.1-30.1-28.8C244.3,486.7,244.2,485.5,244,484.6z"/>
	<path d="M116,484.6c36.1,21.5,71.8,21.6,107.2,0c-1.6,14.8-17.2,30.9-35.1,33.1c-12.3,1.5-25.1,1.7-37.2-0.1
		c-16.8-2.6-28.2-13.4-34.1-29.5C116.3,486.8,116.2,485.6,116,484.6z"/>
	<path d="M373.9,444.8c16,14.1,34.5,16.4,54.1,16.6c19.8,0.2,37.9-3.5,53.7-17c-2.9,17.3-17.3,32.5-35.6,34.8
		c-12.9,1.7-26.4,1.5-39.2-0.7c-16.4-2.9-27-14.1-32.4-30C374.2,447.7,374.2,446.7,373.9,444.8z"/>
	<path d="M374,407.1c35.1,22.6,72.7,22.5,108.1-0.8c-0.7,2.3-1.1,3.9-1.6,5.5c-6.3,17.8-23.4,30.1-42.4,30.1
		c-9.6,0-19.5,0.7-28.8-1.2c-17-3.4-28.4-14.4-34.7-30.6C374.3,409.3,374.3,408.3,374,407.1z"/>
	<path d="M245.8,409.7c36.3,21.6,71.9,21.7,107.8,0.1c-0.3,0.9-0.6,2.4-1.1,3.8c-7.1,18.4-24.7,30.6-44.4,30.5
		c-8.6,0-17.5,0.4-25.8-1.3C264.1,438.9,251.5,428,245.8,409.7z"/>
	<path d="M223.3,410c-3.6,16.5-21,32.4-38.9,33.7c-10.4,0.8-21.2,1-31.3-1c-16.9-3.3-29.5-13.3-36.2-29.7c-0.3-0.8-0.6-1.6-0.8-2.4
		c-0.1-0.3,0.1-0.6,0-0.2C151.9,431.3,187.5,431.3,223.3,410z"/>
</g>
</svg>
