<?xml version="1.0" encoding="utf-8"?>
<!-- Generator: Adobe Illustrator 19.0.0, SVG Export Plug-In . SVG Version: 6.00 Build 0)  -->
<svg version="1.1" id="Calque_1" xmlns="http://www.w3.org/2000/svg" xmlns:xlink="http://www.w3.org/1999/xlink" x="0px" y="0px"
	 viewBox="0 0 612 792" style="enable-background:new 0 0 612 792;" xml:space="preserve">
<style type="text/css">
	.st0{fill:#6FCEE0;}
	.st1{fill:#25B4D0;}
</style>
<g>
	<path class="st0" d="M191.9,280.1c-1.7-1.2-0.6-3.2-1.5-4.8c-2.1,0.4-3.1,2.2-4.4,3.5c-36.4,36.3-72.7,72.7-109.1,109
		c-1.5,1.5-2.8,3.3-4.9,4.2c0-74.3,0-148.5-0.1-222.8c0-3.6,0.7-4.4,4.3-4.3C150.5,165,224.7,165,299,165c-0.9,2.1-2.7,3.4-4.2,4.9
		c-24.4,24.5-48.9,48.9-73.3,73.3c-1.5,1.5-3,3.1-4.5,4.7c-0.9,2.4-3.1,2.3-5,2.4c-3.8,0.2-7.6,0-11.4,0.2c-5.8,0.2-7.6,1.8-7.1,7.6
		c0.5,5.3,0.2,10.6,0.6,15.8C194.3,276.3,194,278.5,191.9,280.1z"/>
	<path class="st1" d="M584.1,169c0-3.4-0.7-4.1-4.1-4.1c-93.7,0.1-187.3,0.1-281,0.1c-3.3,1.5-6.4,3.4-9,6.1
		c-22.7,22.9-45.6,45.7-68.4,68.6c-1.4,1.4-2.9,2.8-4.1,4.4c-1.1,1.4-1.6,2.8-1.1,3.9c0.2,0,0.5,0,0.7,0c17.5,0.1,35,0.3,52.5,0.3
		c63.2,0,126.3,0,189.5-0.1c4.3,0,5.9,0.9,5.7,5.4c-0.4,7.3-0.3,14.7,0,22c0.2,3.8-1.1,4.7-4.8,4.7c-38.5-0.1-77-0.1-115.5-0.1
		c-49.5,0-99,0-148.5,0c-1.3,0-2.7-0.1-4-0.1c0-2-0.1-3.9-0.1-5.9c-2.5-1.6-3.6-0.9-6.8,2.1c-1,0.9-1.9,1.9-2.8,2.8
		c-34.2,34.3-68.4,68.4-102.6,102.6c-3.1,3.1-5.9,6.2-7.5,10.4c0,93.7,0,187.3-0.1,281c0,3.4,0.7,4.1,4.1,4.1c168-0.1,336-0.1,504,0
		c3.4,0,4.1-0.7,4.1-4.1C584,505,584,337,584.1,169z M147.9,332.5c-0.2-4.5,1.1-5.9,5.7-5.9c28,0.2,56,0.1,84,0.1
		c87.8,0,175.6,0,263.4,0c8.4,0,6.9-0.6,7,6.8c0.1,6.8-0.2,13.7,0.1,20.5c0.2,3.7-0.9,4.8-4.7,4.8c-33.5-0.1-67-0.1-100.5-0.1
		c-25.2,0-50.3,0-75.5,0c-58.1,0-116.3,0-174.4,0.1c-4.3,0-5.3-1.3-5.2-5.3C148.2,346.5,148.3,339.5,147.9,332.5z M191.3,410.3
		c-0.1-4,0.8-5.4,5.2-5.4c57.3,0.2,114.7,0.1,172,0.1c30.3,0,60.7,0.1,91-0.1c4.3,0,5.4,1.2,5.2,5.3c-0.4,7.1-0.4,14.3,0,21.5
		c0.3,4.7-1.5,5.4-5.7,5.4c-43.7-0.1-87.3-0.1-131-0.1c0,0,0,0,0,0c-43.8,0-87.7-0.1-131.5,0.1c-4.3,0-5.4-1.2-5.2-5.3
		C191.6,424.6,191.6,417.4,191.3,410.3z M464.7,567.6c-0.3,7-0.3,14,0,21c0.2,4.2-1.4,5.3-5.4,5.3c-43.8-0.1-87.7-0.1-131.5-0.1
		c-43,0-86,0-129,0c-8,0-7.3,1-7.3-7.1c0-6.7,0.2-13.3-0.1-20c-0.2-4.1,1.3-5,5.1-5c43.8,0.1,87.7,0.1,131.5,0.1c0,0,0,0,0,0
		c43.7,0,87.3,0.1,131-0.1C463.8,561.6,464.9,563.1,464.7,567.6z M508.1,489.1c-0.5,7.1-0.3,14.3,0,21.5c0.2,3.7-0.8,4.8-4.7,4.8
		c-38.7-0.1-77.3-0.1-116-0.1c-77.6,0-155.3,0-232.9,0c-7.6,0-6.4,0.5-6.5-6.3c0-7,0.2-14-0.1-21c-0.1-3.7,0.8-4.8,4.7-4.8
		c39,0.1,78,0.1,117,0.1c19.5,0,39,0,58.5,0c58,0,116,0,173.9-0.1C506.6,483.1,508.5,484,508.1,489.1z"/>
</g>
</svg>
