<?xml version="1.0" encoding="utf-8"?>
<!-- Generator: Adobe Illustrator 19.0.0, SVG Export Plug-In . SVG Version: 6.00 Build 0)  -->
<svg version="1.1" id="Calque_1" xmlns="http://www.w3.org/2000/svg" xmlns:xlink="http://www.w3.org/1999/xlink" x="0px" y="0px"
	 viewBox="0 0 612 792" style="enable-background:new 0 0 612 792;" xml:space="preserve">
<style type="text/css">
	.st0{fill:#FA7070;}
	.st1{fill:#F71E1E;}
</style>
<g>
	<path class="st0" d="M59,342.7c0.3-0.2,0.6-0.2,0.9-0.2c0.3,3.4,0.6,6.9-0.9,10.2C59,349.3,59,346,59,342.7z"/>
	<path class="st0" d="M59.9,378.8l-0.4,0l-0.4-0.2c0-3.3,0-6.7,0-10C60.4,372,60.1,375.4,59.9,378.8z"/>
	<path class="st1" d="M570.5,336.8c-0.7-15.5-2.3-30.7-6.6-45.7c-5.4-18.7-12.9-36.4-21.9-53.5c-14.6-27.8-34.6-51.3-57.9-72
		c-17.8-15.9-38-28.6-59.7-38.7c-29.1-13.6-59.4-22.4-91.9-21.6c-3.2-0.3-6.4,0.6-9.5-0.5c-5.3,0-10.7,0-16,0
		c-3.2,1.1-6.4,0.2-9.6,0.5c-10.2-0.2-20.4,0.2-30.3,1.8c-28.7,4.8-55.3,15.4-80.6,29.6c-23.9,13.4-44.5,30.9-63,51
		c-17.5,19-31.4,40.4-42.4,63.7c-13.7,29.1-22.3,59.4-21.6,91.8c-0.3,3.2,0.6,6.4-0.5,9.5c0,5.3,0,10.7,0,16
		c1.1,3.1,0.2,6.4,0.5,9.6c0.2,15.3,1,30.5,4.9,45.5c14,53.5,41.9,98.2,83.9,134.1c26.8,22.9,57.3,39.2,90.9,49.8
		c10.9,3.4,22,6.4,33.5,7.4c7.4,0.6,14.9,0.8,22.2,1.7c13,0,26,0,39,0c1.2-0.9,2.6-0.4,3.9-0.5c13.8-0.7,27.5-1.6,40.9-5.1
		c51.7-13.5,95.2-40.5,130.6-80.4c24.9-28,42.3-60.3,53.2-96.2c3.1-10.3,5.9-20.8,6.8-31.6c0.6-7.4,0.8-14.8,1.7-22.2
		c0-13,0-26,0-39C570,340.1,570.6,338.4,570.5,336.8z M199.7,238c0.3-11,0-10.9,10.9-10.9c71.3,0,142.6,0,213.9-0.1
		c4.5,0,6,1,5.8,5.7c-0.4,10.3-0.1,10.4-10.4,10.4c-35.2,0-70.3,0-105.5,0c0,0,0,0,0,0c-36.5,0-73-0.1-109.5,0.1
		C201,243.2,199.6,242.3,199.7,238z M430.3,483.2c-0.2,11.1,0,11.1-11.3,11.1c-71.3,0-142.6-0.1-213.9,0.1c-4.6,0-5.5-1.4-5.4-5.6
		c0.3-10.4,0.1-10.5,10.3-10.5c35,0,70,0,105,0c0,0,0,0,0,0c36.8,0,73.6,0.1,110.4-0.1C429.5,478.2,430.4,479.4,430.3,483.2z
		 M467.1,420.6c-0.2,10.9,0,10.9-10.9,10.9c-95.8,0-191.6,0-287.4,0.1c-4.9,0-6.1-1.2-5.9-6c0.4-10.1,0.1-10.1,10.1-10.1
		c47.3,0,94.6,0,142,0c49,0,98,0.1,147-0.1C466.1,415.4,467.2,416.5,467.1,420.6z M199.7,363c0.5-10.3,0.1-10.3,10.4-10.3
		c35,0,70,0,104.9,0c0,0,0,0,0,0c36.6,0,73.3,0.1,109.9-0.1c3.9,0,5.5,0.6,5.4,5c-0.3,11.1,0,11.1-11.2,11.1
		c-71.1,0-142.3,0-213.4,0.1C201.2,368.8,199.4,368.1,199.7,363z M467.1,295.5c-0.4,10.3-0.1,10.3-10.4,10.3c-47.3,0-94.7,0-142,0
		c0,0,0,0,0,0c-49,0-98-0.1-147,0.1c-4,0-4.9-1.1-4.9-5c0.3-11.1,0.1-11.1,11.1-11.1c95.8,0,191.6,0,287.5-0.1
		C466.2,289.7,467.2,291,467.1,295.5z"/>
</g>
</svg>
