<?xml version="1.0" encoding="utf-8"?>
<!-- Generator: Adobe Illustrator 19.0.0, SVG Export Plug-In . SVG Version: 6.00 Build 0)  -->
<svg version="1.1" id="Calque_1" xmlns="http://www.w3.org/2000/svg" xmlns:xlink="http://www.w3.org/1999/xlink" x="0px" y="0px"
	 viewBox="0 0 612 792" style="enable-background:new 0 0 612 792;" xml:space="preserve">
<g>
	<path d="M566,315c0-5.3,0-10.7,0-16c-1.3-5.3-1.9-10.9-4-15.9c-3.1-7.3-6.7-14.5-11.1-21c-4-6.1-10.2-9.8-17.5-11.7
		c-73.3-19.6-146.6-39.2-219.9-58.7c-2.3-0.6-5-0.6-7.3,0c-82,21.8-163.9,43.8-245.9,65.7c-1.5,0.4-3,1-5.7,1.9
		c18.7,5,36.1,9.7,53.6,14.4c65.6,17.5,131.1,35.1,196.7,52.5c3,0.8,6.6,0.8,9.6,0c58.2-15.3,116.4-30.9,174.6-46.3
		c18.1-4.8,34.3,5.9,37.1,24.2c2.2,14.1-7.3,27.8-22.2,31.8c-23.6,6.4-47.2,12.7-70.9,19c-39.5,10.6-79,21.3-118.6,31.7
		c-3,0.8-6.6,0.8-9.6,0c-82.1-21.9-164.2-43.9-246.4-65.8c-1.6-0.4-3.2-0.6-4.9-0.8c0,13.3,0,26.7,0,40c44.5,12,89,23.9,133.5,35.9
		c39.4,10.6,78.7,21.1,118.1,31.5c2.7,0.7,6,0.7,8.7,0c58.4-15.4,116.7-31,175.1-46.5c18-4.8,34.2,5.9,37.1,24.2
		c2.2,14.1-7.3,27.7-22.2,31.8c-23.4,6.3-46.9,12.6-70.4,18.9c-39.7,10.7-79.3,21.4-119.1,31.9c-3,0.8-6.6,0.8-9.6,0
		c-82.1-21.9-164.2-43.9-246.3-65.8c-1.6-0.4-3.2-0.6-4.9-0.8c0,13.3,0,26.7,0,40c49.6,13.3,99.3,26.7,148.9,40
		c34.2,9.2,68.4,18.3,102.7,27.4c2.7,0.7,6,0.8,8.7,0.1c58.3-15.1,116.5-30.4,174.8-45.6c18.3-4.8,34.4,5.6,37.4,23.9
		c2.4,14.5-7.3,28.1-22.8,32.3c-33.7,9-67.5,18.1-101.2,27.1c-29.4,7.9-58.8,15.9-88.2,23.6c-2.6,0.7-5.7,0.8-8.2,0.1
		c-83.2-22.2-166.5-44.5-249.7-66.8c-0.8-0.2-1.6-0.6-2.3-0.9c0,13.7,0,27.3,0,41c45.5,12.1,90.9,24.2,136.4,36.4
		c38.6,10.3,77.1,20.7,115.7,30.9c2.4,0.6,5.3,0.7,7.7,0c65.6-17.4,131.1-34.9,196.6-52.5c28.1-7.6,47.2-24.5,54.1-53.5
		c0.5-2.1,1-4.1,1.5-6.2c0-5.3,0-10.7,0-16c-1.1-4.3-2-8.7-3.3-12.9c-3.2-10.3-7.8-17.4-19-29.9c0.9-1,1.9-2.2,2.9-3.2
		c9.9-10.2,16.1-22.3,18.5-36.3c0.2-1.3,0.6-2.5,1-3.8c0-5.3,0-10.7,0-16c-1.1-4.3-2-8.6-3.4-12.9c-3.6-11.2-10-20.8-17.9-28.4
		c5.1-7.7,10.8-14.8,14.7-22.6C562.6,329.6,563.9,322.1,566,315z M381.4,268.8c-22.2,6-44.3,11.9-66.5,17.7c-2.6,0.7-5.6,1-8.2,0.3
		c-21.4-5.5-42.7-11.3-64.1-17c-1-0.3-1.9-0.7-3.9-1.4c8.3-2.3,15.5-4.3,22.7-6.2c25.8-6.9,51.7-13.9,77.6-20.7
		c2.3-0.6,5-0.9,7.2-0.4c22,5.8,44,11.7,66,17.6c0.6,0.2,1.2,0.4,2.9,0.9C403.1,263,392.3,265.9,381.4,268.8z"/>
</g>
</svg>
