<?xml version="1.0" encoding="utf-8"?>
<!-- Generator: Adobe Illustrator 19.0.0, SVG Export Plug-In . SVG Version: 6.00 Build 0)  -->
<svg version="1.1" id="Calque_1" xmlns="http://www.w3.org/2000/svg" xmlns:xlink="http://www.w3.org/1999/xlink" x="0px" y="0px"
	 viewBox="0 0 612 792" style="enable-background:new 0 0 612 792;" xml:space="preserve">
<style type="text/css">
	.st0{fill:#DEDEDE;}
	.st1{fill:#8FA3AD;}
	.st2{fill:#FD8964;}
	.st3{fill:#778F9B;}
	.st4{fill:#AFBDC3;}
	.st5{fill:#BEC0C1;}
	.st6{fill:#5F7C8A;}
	.st7{fill:#455A63;}
	.st8{fill:#607C8A;}
	.st9{fill:#8CA0AA;}
	.st10{fill:#58727E;}
	.st11{fill:#758C98;}
	.st12{fill:#A9B8BE;}
	.st13{fill:#B8BCBD;}
	.st14{fill:#546D79;}
	.st15{fill:#37474F;}
	.st16{fill:#CED0D0;}
	.st17{fill:#FD7043;}
	.st18{fill:#FD6F43;}
	.st19{fill:#F06A40;}
	.st20{fill:#38474F;}
</style>
<g>
	<path class="st0" d="M63.9,532.9c0-87,0-174,0.1-261c0-3.7,0.1-7.3,0.1-11c1.9-1.7,4.3-1.5,6.6-1.5c77.8,0,155.6,0,233.5,0
		c1.5,0,3,0,4.5,0.3c2.7,0.6,3.2,2,1.5,4.2c-1.1,1.4-2.5,2.7-3.8,4c-27,27.1-54.2,54-81.1,81.2c-1.4,1.4-2.8,2.9-4.2,4.2
		c-2.1,2-2.7,4.3-2.4,7.2c1.9,17.6-1.9,33.7-13,47.8c-2.1,2.7-2.3,4.9-1.1,7.7c-0.2,2.4-2,3.8-3.5,5.3c-4.8,4.9-9.7,9.6-14.4,14.5
		c-1.6,1.6-4.3,3.2-3.2,5.7c1,2.3,3.8,1.2,5.9,1.3c5.5,0.3,11-0.6,16.4,0.6c1.4,0.8,2.8,0.6,4.3,0.6c5.1,0,10.2-0.4,15.3,0.5
		c3.1,0.6,6.2-0.7,8.7-2.9c2-1.8,3.8-3.7,5.7-5.6c2.3-2.2,4.4-4.7,8.1-2.6c1.6,0.9,2.8-0.5,3.9-1.4c4.3-3.4,8.2-7.3,14.4-6.7
		c1.3,0.1,2.3-1.1,3.3-2c2.1-1.9,4.5-3.4,7.3-4.1c1.9-0.3,3.8-0.5,5.7-1c6.4-0.1,12.8,0.3,19.2,0.2c2.2,0,4-0.2,5.4-1.9
		c7-8.7,15.7-15.8,23.6-23.6c41.5-41.2,82.8-82.7,124.2-124c3.1-3.1,4.8-7.8,9.7-9c8.8-0.7,17.6-0.2,26.5-0.3c1.7,0,3.3,0.2,4.7,1.4
		c0,59.7,0.1,119.3,0.1,179c0,31,0,62,0.1,93c-1.3,1.6-3.2,1.6-5,1.7c-1.7,0.1-3.3,0.1-5,0.1c-137.4,0-274.7,0-412.1,0
		C70.6,534.6,66.9,535.6,63.9,532.9z"/>
	<path class="st1" d="M509.9,541c3,5.8,2.9,11.5-0.9,17c-2.3,0.5-4.6,0.6-6.9,0.6c-148.1,0-296.2,0-444.2,0c-2.3,0-4.7-0.1-6.9-0.6
		c-3.7-5.5-4-11.2-0.9-17.1c2.6-1.9,5.7-1.7,8.7-1.7c28.1,0,56.3,0,84.4,0c118.9,0,237.8,0,356.6,0
		C503.2,539.4,506.8,538.8,509.9,541z"/>
	<path class="st1" d="M50.9,246.1c-3.9-5.5-3.8-11.2-0.8-17c2.1-1.6,4.6-1.7,7.1-1.7c93,0,185.9,0,278.9,0c1.7,0,3.3,0,5,0.4
		c1.7,0.5,2.9,1.7,1.5,3.2c-5.3,5.7-9.5,12.6-17.4,15.4c-3,0.4-6,0.3-9,0.3c-86.1,0-172.3,0-258.4,0
		C55.5,246.7,53.2,246.5,50.9,246.1z"/>
	<path class="st2" d="M327.2,245c5.6-5.1,11-10.4,16-16c1.5-3.8,4.6-6,8-8c10.3-10.2,20.5-20.4,30.8-30.5c1.3-1.3,2.7-2.4,4.1-3.6
		c5.8,2.3,9.6,6.6,12.4,12.1c-0.7,2-2.3,3.2-3.7,4.6c-50.6,50.7-101.3,101.3-152,152c-1.6,1.6-3,3.6-5.5,4.1
		c-5.3-2.5-9-6.8-12.1-11.7c12.3-12.4,24.5-24.9,36.8-37.3c16.4-16.5,32.8-33,49.2-49.6c1.4-3.8,5-5.7,7.4-8.7
		C321.3,249.9,323.5,246.6,327.2,245z"/>
	<path class="st3" d="M50.9,558.1c1.4-1.7,3.4-1.1,5.1-1.1c149.3,0,298.6,0,447.8,0c1.7,0,3.7-0.7,5.2,1c-3.4,4.9-8,7-14,7
		c-34.3-0.1-68.6,0-102.9,0c-2.1,1.9-4.6,1.4-7.1,1.5c-8.1,0.2-16.2-0.4-24.2,0.6c-0.9-1.9-2.5-2.2-4.5-2.2
		c-50.9,0.1-101.9,0.1-152.8,0c-2,0-3.6,0.3-4.5,2.2c-8.1-1-16.2-0.4-24.3-0.6c-2.4-0.1-5,0.4-7.1-1.5c-34.4,0-68.9,0-103.3,0
		C58.7,565,54.1,562.9,50.9,558.1z"/>
	<path class="st4" d="M509.9,541c-120.3,0-240.6,0-360.9,0c-33,0-66,0-99,0c3.2-5.1,7.6-8.3,13.9-8.2c42.5,0,84.9,0.1,127.4,0.1
		c99.1,0,198.2,0,297.3,0c2.5,0,5-0.1,7.5-0.1C502.4,532.7,506.7,536,509.9,541z"/>
	<path class="st4" d="M351.1,221c-2.4,2.9-5,5.6-8,8c-97.7,0-195.4,0-293,0.1c3.4-5.5,8.1-8.1,14.8-8.1C131.3,221,197.7,221,264,221
		c0.4-0.3,0.7-0.7,1.2-0.8c9.8-1.3,19.7-1.3,29.5,0c0.5,0.1,0.8,0.5,1.2,0.8C314.4,221,332.7,221,351.1,221z"/>
	<path class="st3" d="M327.2,245c-2.4,3-5.1,5.8-8.2,8.2c-2.4,1.3-5.1,1.4-7.8,1.4c-79.9,0-159.7,0-239.6,0c-2.6,0-5.4,0.3-7.7-1.5
		c-5.6,0-9.8-2.5-13-7c1.3-1.6,3-1.1,4.6-1.1C146.1,245,236.6,245,327.2,245z"/>
	<path class="st5" d="M63.9,253.1c50.4,0,100.8-0.1,151.2-0.1c32.1,0,64.2,0,96.3,0c2.5,0,5,0.1,7.5,0.2c-2.4,2.9-5,5.6-8,7.9
		c-58.6,0-117.3-0.1-175.9-0.1c-23.7,0-47.3-0.1-71-0.1C64,258.3,64,255.7,63.9,253.1z"/>
	<path class="st6" d="M194.9,580c-5.9,18-11.9,35.9-17.8,53.9c-0.6,1.9-1.3,3.2-3.7,3.1c-9.6-0.1-19.3,0-29.7,0
		c6.5-19,12.9-37.5,19.2-56c0.8-0.7,1.6-1.3,2.6-1.3C175.4,579.5,185.2,578.8,194.9,580z"/>
	<path class="st6" d="M397,581c6.3,18.5,12.7,36.9,19.2,56c-10.4,0-20.1-0.1-29.9,0c-2.2,0-2.7-1.4-3.3-3
		c-5.8-17.6-11.6-35.3-17.5-52.9c0.6-0.3-0.3-0.2,0.3-0.3C376.3,578.5,386.6,578.3,397,581z"/>
	<path class="st7" d="M413.1,183.9c2.5,0.7,4.3,2.5,6.1,4.2c11,10.9,21.9,21.9,32.8,32.9c1.5,0.9,2.7,2,2.2,4
		c-5.2,4.9-10.2,10-15.1,15.1c-2.3,0.4-3.3-1.5-4.8-2.6c-10.6-10.8-21.4-21.4-32.1-32.1c-1.6-1.6-3.6-3-4-5.6c0.2-1.5,0.5-3,1.7-4
		C404.5,192,407.6,186.6,413.1,183.9z"/>
	<path class="st8" d="M296,221c-10.7,0-21.3,0-32,0c0-7.8-0.1-15.7,0-23.5c0.1-9.7,7-16.6,16.2-16.5c9,0.1,15.7,7.2,15.8,16.5
		C296.1,205.3,296,213.2,296,221z"/>
	<path class="st9" d="M509.8,229.1c3,5.8,3.2,11.5-0.8,17c-8.4,1.1-16.9,0.3-25.3,0.5c-7.5,0.1-14.9,0.1-22.4,0
		c-2.4,0-5.1,0.3-6.9-2c-0.5-5.4-0.9-10.9,1.6-16c1.8-1.2,3.8-1.1,5.8-1.1c13.8,0,27.6,0,41.4,0
		C505.6,227.4,507.9,227.5,509.8,229.1z"/>
	<path class="st10" d="M397,581c-10.5,0.1-21,0.1-31.4,0.2c-1.5-4.7-3.1-9.3-4.6-14c0.4-2.7,2.6-2.1,4.3-2.1c9,0,18,0,27,0
		C393.4,570.5,396.2,575.4,397,581z"/>
	<path class="st10" d="M194.9,580c-3.1,1.8-6.4,0.9-9.7,1c-7.4,0.1-14.8,0-22.2,0c1.6-5.3,3.1-10.6,4.7-15.9c9,0,18.1-0.1,27.1,0
		c1.7,0,3.8-0.5,4.2,2.1C197.7,571.4,196.3,575.7,194.9,580z"/>
	<path class="st11" d="M454.8,243.8c1.6,1.9,3.7,1.1,5.6,1.1c14.5,0.1,29,0,43.5,0.1c1.7,0,3.7-0.7,5.1,1.1c-3.1,4.6-7.4,7-12.9,7
		c-0.9,0.7-2,1.3-3.2,1.3c-14.2,0.1-28.4,0.8-42.6-0.3c-1.3-0.4-2-1.2-1.5-2.6C450.7,248.8,451.5,245.3,454.8,243.8z"/>
	<path class="st12" d="M509.8,229.1c-18,0-36,0.1-54.1,0.1c-2.1-0.7-2.3-2.3-1.9-4.1c-0.6-1.3-1.2-2.7-1.9-4
		c14.5,0,29.1,0.1,43.6-0.1C502,220.9,506.7,223.6,509.8,229.1z"/>
	<path class="st13" d="M448.9,252.9c15.8,0.1,31.5,0.1,47.3,0.2c-0.1,2.6-0.1,5.2-0.2,7.8c-11,0-21.9,0.1-32.9,0.1
		c-6.8,2.6-13.7,1.4-20.6,1c-1.6-0.5-2.2-1.6-1.1-2.9C443.3,256.5,444.9,253.3,448.9,252.9z"/>
	<path class="st14" d="M413.1,183.9c-3.7,3.9-7.5,7.7-11.1,11.6c-1.2,1.3-2.9,2.2-3,4.3c-1,0.7-1.2,0-1.3-0.7
		c-3.4-4.5-7.8-8.1-11.7-12.2C394.7,179.9,404.7,178.8,413.1,183.9z"/>
	<path class="st15" d="M416.3,360.5c-10.1,2.9-19.4,5.4-28.5,8.3c-3.2,1-4-0.2-4.7-2.9c-0.7-2.6-0.9-4.1,2.4-5
		c13.2-3.6,26.3-7.3,39.3-11.2c2.8-0.9,3.7-0.3,4.3,2.6c2.6,13.4,5.3,26.8,8.4,40c0.8,3.6-0.8,3.8-3.2,4.4c-2.7,0.7-4.2,0.4-4.8-2.8
		c-1.7-9.1-3.7-18.2-5.6-27.3c-1.2-0.2-1.5,0.6-2,1.3c-32.7,52.5-79.9,86-137.6,105.9c-13.2,4.6-26.7,8.3-40.3,11.3
		c-13.5,3-27,5.3-40.7,7.8c2.2,0,4.4,0,6.5,0c80.5,0,161,0,241.4,0c2.6,0,5-0.7,5.1,3.7c0,4.3-1.9,4.3-5.1,4.3
		c-41-0.1-82-0.1-123-0.1c-64.8,0-129.6,0-194.4-0.1c-4.3,0-6.5,0.8-5.7,5.6c0.3,1.8-0.2,3.7,0.1,5.5c0.7,4.3-1.1,5.4-5.2,5.1
		c-2.6-0.2-3-1.2-2.9-3.4c0.1-3.2-0.1-6.3,0.1-9.5c0.2-2.7-0.9-3.5-3.4-3.3c-2.7,0.2-5.3-0.1-8,0.1c-3,0.2-4.8-0.1-4.8-4.1
		c0-4.1,1.9-4,4.8-4c11.3,0.1,11.3,0,11.3-11.3c0-64,0-128-0.1-191.9c0-3.5,0.5-4.9,4.5-4.9c4.1,0,3.6,2.2,3.6,4.7
		c0,32.3,0,64.6,0,97c0,32.7,0,65.3,0,98c0,2.6-0.5,4.7,3.6,4.6c52.4-0.6,104-6.3,153.6-24.1c51.7-18.6,94.8-48.7,125.6-95
		c1.6-2.4,3-4.8,4.5-7.2C415.6,362.5,415.7,362,416.3,360.5z"/>
	<path class="st16" d="M440.8,260.9c7.4,0,14.8,0.1,22.2,0.1c-3.1,4.6-7,8.4-10.9,12.3c-39.8,39.8-79.6,79.6-119.4,119.4
		c-6.2,6.2-12.8,12.1-19.1,18.2c-1.4,1.4-2.6,3-3.9,4.5c-2.3,3-4.6,5.6-9.2,3.7c-1.9-0.8-4.6-1-6.6,0.8c-0.7,0.6-1.6,1.1-2.2,0.5
		c-2.7-2.7-6-1.1-9-1.7c0.4-3.8,4.4-5.2,5.8-8.3c11.6-12,23.7-23.4,35.6-35c37.1-36.6,73.9-73.7,110.8-110.5
		C436.6,263.3,437.9,260.8,440.8,260.9z"/>
	<path class="st15" d="M288.8,411.3c-0.9,3.5-4.6,4.6-6.1,7.6c-1.6,1.6-3.6,0.9-5.5,1c-7,1-14.2,0-21.2,1.6
		c-9.9,2.3-19.1,5.9-26.7,12.8c-3,2.7-5.7,3.2-8.5,0c-2.7-3.5-7-5.6-8.4-10.2c2.8-5.2,6.6-9.4,12.2-11.8c1.9-0.1,3.6-0.5,5.2-1.4
		c11.8-6.3,24.3-9.7,37.7-9.1c3.4,0.1,6.4-1.4,9.7-1.7C282.5,402.3,286.4,406,288.8,411.3z"/>
	<path class="st14" d="M224,413c-4,3.3-7.6,7-11,10.9c-4.5-0.8-6.8-4-8.4-7.8c-3.2-2.6-3.5-4.5-0.4-8.2
		c11.5-13.7,15.5-29.9,13.1-47.4c-1-7,4.5-8.9,7.8-12.6c3.9,3.7,7.8,7.5,11.8,11.2c0.5,0.4,0.6,0.9,0.4,1.4
		c-1.5,2.7-1.8,5.6-1.8,8.6c-0.2,12.6-2.4,24.7-8.4,35.9C225.5,407.6,225.1,410.4,224,413z"/>
	<path class="st16" d="M220.9,432.4c2.6,3.2,4.6,3.2,8.2,0.3c13.9-11.7,30.2-15.8,48.2-12.9c-3,1.5-5.9,2.9-8.2,5.5
		c-0.6,0.7-1.8,1.6-2.4,1.5c-7.1-1.7-10.6,3.9-15.2,7.3c-1.2,0.9-2.3,2.6-3.7,0.9c-2.9-3.4-4.4-0.6-6.3,1c-4.1,3.6-7,8.4-13.2,9.8
		c-2.8,0.6-4.1-1.2-6.3-1c-4.4,0.4-8.9,0.2-13.4,0.5c-1.3,0.1-2.3,0.4-2.5-1.2c4.1-2.2,7.2-5.6,10.5-8.8
		C217.7,434.1,218.9,432.6,220.9,432.4z"/>
	<path class="st17" d="M220.9,432.4c-3.1,3.1-6.3,6.1-9.3,9.3c-1.6,1.7-3.3,2.5-5.6,2.4c-6.1,0-12.3,0-18.4-0.2
		c-2.2,0-5.2,0.9-6.3-1.7c-1.2-2.8,1.7-4.4,3.3-6.1c6.6-6.8,13.3-13.4,19.9-20.1c2.8,2.6,5.6,5.2,8.4,7.8
		C215.6,426.8,218.2,429.6,220.9,432.4z"/>
	<path class="st18" d="M236.8,360.1c0-0.3,0-0.7,0-1c1.6-1.4,3.3-2.7,4.8-4.3c50.7-50.7,101.4-101.4,152.1-152.1
		c1.3-1.3,2.7-2.5,4-3.8c0.4,0.2,0.9,0.5,1.3,0.7c10.7,10.8,21.4,21.7,32.1,32.5c1.4,1.4,2.7,2.9,4.1,4.4c0.6,1.7-0.9,2.3-1.8,3.2
		c-52,51.8-103.9,103.7-155.7,155.7c-1.1,1.1-2,2.3-3.7,2.2c-2.1-0.3-3.4-1.9-4.8-3.3c-9.8-9.8-19.7-19.6-29.4-29.5
		C238.5,363.6,236.6,362.5,236.8,360.1z"/>
	<path class="st19" d="M274.1,397c2.5-0.9,3.6-3.3,5.3-5c50.3-50.2,100.4-100.4,150.7-150.6c1.6-1.6,3.4-3.2,5.1-4.7
		c1.3,1.1,2.5,2.1,3.8,3.2c4.5,2.9,8.2,6.5,11,11.1c-0.4,0.7-0.8,1.3-1.1,2c-2.7,2.7-5.3,5.3-8,8c-1.5,1.3-3,2.6-4.4,4.1
		c-37.1,37.1-74,74.4-111.5,111.2c-12,11.8-23.8,23.7-36.1,35.1c-3.7-3.4-7.3-6.8-11-10.3C276.5,399.8,273.2,400.3,274.1,397z"/>
	<path class="st20" d="M450,251c-3.9-3.4-7.7-7.1-11-11.1c3.8-6.1,8.8-11,14.8-14.9c0.6,1.4,1.3,2.8,1.9,4.1c0.5,4.9,0.5,9.8-1,14.7
		C453.1,246.1,452.2,249,450,251z"/>
	<path class="st7" d="M274.1,397c1.2,1.3,2.5,2.7,3.7,4c-10.5,3.8-22,0.6-32.5,4.8c-5.2,2.1-10.7,3.3-15.4,6.6
		c-1.9,1.3-3.8,2.1-5.9,0.5c-1.4-1.9-0.8-3.7,0.3-5.6c7.3-12.9,10-26.8,9.7-41.5c0-2.5,0.4-4.6,2.8-5.8
		C249.3,372.4,261.7,384.7,274.1,397z"/>
</g>
</svg>
