<?xml version="1.0" encoding="utf-8"?>
<!-- Generator: Adobe Illustrator 19.0.0, SVG Export Plug-In . SVG Version: 6.00 Build 0)  -->
<svg version="1.1" id="Calque_1" xmlns="http://www.w3.org/2000/svg" xmlns:xlink="http://www.w3.org/1999/xlink" x="0px" y="0px"
	 viewBox="0 0 612 792" style="enable-background:new 0 0 612 792;" xml:space="preserve">
<style type="text/css">
	.st0{fill:#FDBB78;}
	.st1{fill:#FD9833;}
</style>
<g>
	<path class="st0" d="M20,417c0-12,0-24,0-36c0.9-8.4,0.8-16.8,1.7-25.2c1.5-13.6,5.3-26.7,9.6-39.7c6.5-19.3,15.1-37.7,26.2-54.8
		c8.6-13.3,18.2-25.7,29-37.4c22.2-24.3,48.2-43.3,77.6-57.7c20-9.8,41-16.7,62.8-20.7c8.3-1.5,16.8-1.6,25.3-1.9
		c2-0.1,4,0.6,5.9-0.5c12,0,24,0,36,0c8.4,0.9,16.8,0.8,25.2,1.7c13.6,1.5,26.7,5.3,39.6,9.6c28.7,9.6,54.6,24.1,78.3,42.9
		c5.9,4.6,11.3,9.7,17,14.6c1.8,1.5,3.4,3.2,3.6,5.8c-0.3,2.9-2.4,4.6-4.3,6.5c-11.6,11.7-23.2,23.2-34.8,34.9
		c-1.1,1.2-2.4,2.2-3.5,3.8c3.5,0.8,6.9-0.2,10,0.7c2.3,0.7,5.2,1.6,1.2,4.3c-5.1,1.1-10.4,1-15.4,0.4c-7.7-0.9-15.3-0.7-22.9-0.7
		c-83.1,0-166.2,0-249.3,0c-2.2,0-4.3-0.1-6.5,0.1c-4.6,0.3-5.8,1.5-5.8,5.6c0,4.2,1.3,5.5,5.7,5.8c2.3,0.2,4.7,0.1,7,0.1
		c92.4,0,184.9,0,277.3,0c3.5,0,7-0.5,10.4,0.7c2.1,1.2,2,2.5,0,3.7c-1.5,0.9-3.2,0.8-4.8,0.9c-7.3,0.1-14.6,0.2-21.9,0
		c-4.5-0.1-7.9,1.3-11,4.5c-11,11.3-22.3,22.4-33.4,33.6c-2.9,2.9-6,5.7-9.6,7.8c-3.7,0.5-7.3,0.3-11,0.3c-65.5,0-130.9,0-196.4,0
		c-2,0-4,0-6,0c-4.9,0.2-6.2,1.4-6.2,5.8c0,4.3,1.4,5.5,6.3,5.7c2.2,0.1,4.3,0,6.5,0c92.6,0,185.2,0,277.8,0c3.4,0,7-0.7,10.3,1.1
		c2.4,2.4,0.1,3.2-1.5,3.8c-2,0.8-4.3,0.5-6.4,0.5c-26.5,0-53,0.2-79.4-0.1c-6.5-0.1-11.3,1.6-15.8,6.4c-10,10.7-20.6,20.8-31,31.2
		c-2.9,3-6.2,5.5-9.5,8c-3.3,0.8-6.6,0.5-10,0.5c-45.3,0-90.6,0-135.9,0c-2,0-4,0-6,0.1c-3.8,0-5.3,2-5.3,5.7c0,3.6,1.3,5.7,5.2,5.8
		c2,0,4,0.1,6,0.1c40,0,80,0,120,0c3.1,0,6.4-0.7,9.2,1.3c2.1,3.3-0.4,5.3-2.3,7.2c-10.5,10.7-21.2,21.2-31.7,31.9
		c-1.3,1.4-4,2.6-3.2,4.6c0.8,2.1,3.6,1.1,5.4,1.1c60.6,0,121.2,0,181.8,0c2.7,0,5.4-0.2,8,0.3c1.8,0.3,4.3,0.5,3.1,3.6
		c-2.3,2-5,1.5-7.7,1.5c-18.5,0.1-37,0-55.5,0c-75.5,0-151,0-226.5,0c-1.7,0-3.3,0-5,0c-5.4,0.2-6.7,1.3-6.8,5.7
		c0,4.5,1.3,5.8,6.7,5.8c20.8,0.1,41.7,0,62.5,0.1c2.8,0,5.7-0.6,8.2,1.4c2,3.3-0.6,5.3-2.5,7.2c-10.6,10.8-21.4,21.5-32.1,32.2
		c-1.3,1.3-2.9,2.2-3.4,4.4c1.9,1.3,4.1,0.7,6.2,0.7c81.5,0,163,0,244.5,0c2.7,0,5.4-0.2,8,0.2c1.8,0.3,4.2,0.4,3.5,3.4
		c-1.4,1.5-3.2,1.6-5.1,1.7c-2.7,0.1-5.3,0.1-8,0.1c-92.1,0-184.2,0-276.3,0c-2.2,0-4.3,0-6.5,0c-3.5,0-5.7,1.3-5.8,5.2
		c-0.1,3.7,1.2,5.5,5.1,5.7c2.6,0.2,5.3,0.5,7.9,1.1c2.4,1,2.6,2.7,1.5,4.8c-0.7,1.3-1.8,2.4-2.8,3.4
		c-12.5,12.5-25.1,25.1-37.6,37.6c-1.6,1.6-3.2,3.4-5.8,3.6c-2.7-0.2-4.5-2.1-6.1-3.9c-18-19.9-33.7-41.6-45.3-65.9
		c-9.6-20-16.6-40.9-20.7-62.8c-1.5-8.3-1.6-16.8-1.9-25.3C20.4,420.9,21,418.9,20,417z"/>
	<path class="st1" d="M531.5,377.6c-0.3-9.3-0.5-18.6-2.1-27.7c-5-27.4-14.6-53.1-28.3-77.3c-10.8-19.2-23.6-36.9-39.3-52.4
		c-1.4-1.4-2.5-3.3-4.9-2.1c-15.2,15.4-30.3,30.9-45.5,46.4c1.9,0.9,4.1,0.1,6.1,0.4c3.5,0.5,7.2-1.3,10.5,1.1c0,4.9,0,9.9,0,14.8
		c-1.4,1.8-3.4,1.1-5.1,1.1c-8.8,0.1-17.6,0.1-26.4,0c-2.2,0-4.2,0.3-5.9,2c-14.5,14.6-29,29.2-43.5,43.8
		c23.6,0.1,47.3,0.2,70.9,0.3c10,0,10-0.1,10,9.8c0,2-0.1,4-0.1,6c-1.8,1.7-4.1,1-6.2,1c-29,0-58,0-86.9,0c-2.7,0-5.2,0.1-7.3,2.3
		c-14.4,14.6-28.9,29.1-43.3,43.6c23.2,0.1,46.3,0.2,69.5,0.2c23.3,0,46.7,0.1,70-0.1c3.4,0,4.6,0.7,4.5,4.3
		C428,407,428.1,407,416.5,407c-48,0-96,0-143.9,0c-1.8,0-3.7,0.1-5.5,0.2l0,0c-13.1,13.2-26.3,26.5-39.4,39.7
		c-1.1,1.1-2.2,2.1-3.1,3.3c-1.2,1.5-1.3,2.8,1.2,2.8c1.5,0,3,0,4.5,0c63.6,0,127.2,0,190.9,0c2.2,0,4.7-0.8,6.7,1
		c-0.1,5,1.8,11.4-0.7,14.6c-2.6,3.4-9.3,1.1-14.3,1.1c-66.3,0.1-132.6,0-198.9,0.1c-3.3,0-6.6,0.2-10,0.3
		c-14.7,15-29.5,29.9-45.1,45.8c4.1,0,6.9,0,9.7,0c84.2,0,168.4,0,252.7,0c2.2,0,4.7-0.9,6.6,1.1c0,3.5-0.1,7,0.2,10.5
		c0.3,3.8-0.8,5.2-4.9,5.1c-23.3-0.2-46.6-0.1-69.9-0.1c-68.3,0-136.5,0-204.8,0c-2.5,0-5,0.3-7.5,0.5c-1.3,1.5-2.5,3-3.9,4.4
		c-14,14.1-28,28.2-42,42.3c-1.2,2.7,1,3.8,2.5,5.3c23.6,23.5,51.3,41,82.1,53.4c17.3,7,35,12.6,53.6,14.7
		c7.5,0.9,15.2,0.7,22.7,1.8c13,0,26,0,39,0c1.5-1,3.2-0.4,4.9-0.5c8.4-0.6,16.9-0.6,25.3-2.1c25.3-4.6,49-13.6,71.7-25.4
		c28.5-14.7,52.6-34.9,73.9-58.7c18.8-21,33.1-45,43.9-71.1c7.5-18,13.4-36.6,15.6-56.1c0.9-7.4,0.7-14.9,1.7-22.2c0-13,0-26,0-39
		C531.4,379.3,531.5,378.5,531.5,377.6z"/>
</g>
</svg>
