<?xml version="1.0" encoding="utf-8"?>
<!-- Generator: Adobe Illustrator 19.0.0, SVG Export Plug-In . SVG Version: 6.00 Build 0)  -->
<svg version="1.1" id="Calque_1" xmlns="http://www.w3.org/2000/svg" xmlns:xlink="http://www.w3.org/1999/xlink" x="0px" y="0px"
	 viewBox="0 0 612 792" style="enable-background:new 0 0 612 792;" xml:space="preserve">
<style type="text/css">
	.st0{fill:#DD3634;}
	.st1{fill:#EB1C24;}
</style>
<g>
	<path class="st0" d="M279.8,570.4c-20.8-0.1-41.6-0.2-62.5-0.3c-23.2-0.1-46.3,0-69.5,0c-18.6,0-32.6-14.4-32.6-32.9
		c0-77.8,0-155.7,0-233.5c0-16.5,14.4-31.5,31-31.6c36-0.2,72,0,108-0.2c3.4,0,4.2,1.1,4.1,4.3c-0.2,5.7-0.3,11.3,0,17
		c0.2,3.6-1.1,4.4-4.5,4.4c-34.3-0.1-68.7-0.1-103-0.1c-9.8,0-9.8,0-9.8,9.5c0,77,0,154,0,231c0,6.5,0,6.5,6.5,6.6
		c56.6,0.1,113.3,0.1,169.9,0.1c39.2,0,78.3,0,117.5,0c8.5,0,8.5,0,8.5-8.3c0-61.8,0-123.7-0.2-185.5c0-4.7,1.4-6,5.9-5.7
		c5.1,0.4,10.3,0.3,15.5,0c3.5-0.2,4.5,0.8,4.5,4.4c-0.2,18.7-0.1,37.3-0.1,56c0,44.3,0,88.7,0,133c0,16.9-14.3,31.5-31.4,31.6
		c-42,0.1-84,0-126,0.1c-2.2,0-4.3,0.1-6.5,0.2c-2.1-1.9-1.6-4.6-1.6-7c0-3.3-1.2-4.9-4.6-4.8c-4.3,0.1-8.6,0.1-12.9,0
		c-3.1-0.1-4.5,1.3-4.5,4.4C281.5,565.5,282.1,568.3,279.8,570.4z"/>
	<path class="st0" d="M478,265.8c-27,0.5-54,0.2-80.9,1.7c-12.7,0.7-22.1-2.9-31.9-10.7c-42.1-33.9-84.9-67-127.5-100.4
		c-0.7-0.5-1.3-1.1-1.9-1.6c0.9-1.7,2.4-0.9,3.5-0.9c66.3,0,132.6,0,198.8-0.1c2.1,0,3.8,0.4,5.5,1.8c30.5,25,61.1,49.9,91.7,74.8
		c0.2,0.2,0.4,0.5,0.6,0.8c1.3,1.6,0.1,2.8-0.9,3.9c-7.3,7.6-14.8,15-22.4,22.4c-1,0.9-2.1,1.5-3.5,1.6c-2,0-3.5-1.1-4.8-2.4
		c-11.9-11.9-24.7-22.8-36.7-34.6c-4.8-4.8-10.4-8.8-15.4-13.5c4.9,5.4,9.8,10.8,15.4,15.6c8.9,7.7,16.7,16.7,25.8,24.3
		c1.1,1,2.1,2.2,2.3,3.8c-1.4,5.8-6.8,8.7-10.2,12.9C484.1,266.9,480.5,264.3,478,265.8z"/>
	<path class="st0" d="M285.6,206.9c15.4,12.7,30.6,25.3,45.9,37.9c12.1,10,24.2,19.9,36.2,30c2.2,1.8,4.3,2.6,7.2,2.6
		c32.2-0.1,64.3,0,96.5-0.1c4.2,0,5.6,0.6,4.3,5.2c-3.4,12.3-6.4,24.8-9.4,37.2c-0.7,2.8-1.8,4.3-4.5,5.1
		c-34.9,11-70.5,13.8-105.8,3.4c-37.6-11-65.5-35.2-84.9-69.2c-1-1.8-1.7-3.5-1-5.6c4.9-15,9.7-30,14.6-45
		C284.8,207.9,285.1,207.6,285.6,206.9z"/>
	<path class="st0" d="M203.6,327.8c11.3,0,22.6,0.1,34-0.1c3.2,0,4.3,0.7,4.3,4.1c-0.2,21.5-0.2,43,0,64.4c0,3.4-0.9,4.6-4.5,4.5
		c-22.3-0.1-44.6-0.1-66.9,0c-3.5,0-4.4-1-4.4-4.5c0.2-21.5,0.1-43,0-64.4c0-3.2,0.7-4.3,4.1-4.2C181.2,328,192.4,327.8,203.6,327.8
		z"/>
	<path class="st1" d="M279.8,570.4c0.1-3.3,0.3-6.6,0.2-9.9c-0.1-2.6,1-3.5,3.6-3.4c6,0.1,11.9,0.1,17.9,0c2.9-0.1,3.7,1.2,3.6,3.9
		c-0.1,3.1,0.1,6.3,0.1,9.4c-0.1,9.2-0.1,9.2,9,9.2c12.8,0,25.6,0.1,38.5,0c2.6,0,3.5,0.6,3.5,3.3c-0.2,6-0.3,12,0,18
		c0.2,3.4-0.8,4.5-4.3,4.5c-21.7-0.2-43.3-0.1-65-0.1c-18.5,0-37-0.1-55.5,0.1c-3.9,0-4.8-1.1-4.6-4.7c0.3-5.6,0.2-11.3,0-17
		c-0.1-3,0.8-4,3.9-4c14.3,0.1,28.7-0.3,43,0.1c5.2,0.1,7-1.2,6.1-6.3C279.5,572.4,279.8,571.4,279.8,570.4z"/>
	<path class="st0" d="M286,447.2c38.5,0,77,0.1,115.5-0.1c3.9,0,4.7,1.1,4.6,4.8c-0.3,8.2-0.1,8.2-8.1,8.2c-75.3,0-150.6,0-225.9,0
		c-2,0-5.2,1.3-5.7-1.2c-0.8-3.5-0.5-7.3,0.1-10.9c0.3-1.6,3-0.8,4.6-0.8C209.4,447.1,247.7,447.1,286,447.2z"/>
	<path class="st0" d="M286.1,512c-38.1,0-76.3-0.1-114.4,0.1c-4.5,0-6.4-1.1-5.6-5.7c0.2-1,0.2-2,0-3c-0.6-3.7,1.2-4.4,4.5-4.3
		c21.5,0.1,43,0,64.5,0c55,0,109.9,0,164.9,0.1c2,0,5.2-1.3,5.7,1.2c0.8,3.5,0.6,7.3-0.1,10.8c-0.3,1.7-3.3,0.8-5,0.8
		C362.3,512.1,324.2,512.1,286.1,512C286.1,512.1,286.1,512.1,286.1,512z"/>
	<path class="st0" d="M478,265.8c0.5-0.5,0.9-1.4,1.4-1.3c9.3,0.9,11-7.6,15.6-12.5c4.4,1,7.2,3.6,8,8.2c-1.2,1.3-3.5,1-4.2,3.1
		c2.5,1,4.7,0.3,6.9-0.6c2.2-0.4,4,1.3,6.3,1c-0.9-2-3.6-2.9-3.5-5.5c0.2,0,0.4,0,0.5-0.1c10.1-7.9,19.1-16.8,26.9-26.9
		c3,1.9,5.8,4.1,8.3,6.8c-8.9,6.9-16.1,15.5-24.2,23.3c-1.1,1-2,2.2-1.8,3.9c-1.5,1.3-1,3.1-1,4.7c0,36.7,0,73.3,0,110
		c0,2.5-0.3,4.9,3.4,4.3c2.5-0.4,2.6,1.3,2.6,3.1c0,5-0.1,10,0,15c0,2.1-0.6,3.1-2.8,2.9c-1.2-0.1-2.3,0.1-3.5,0
		c-4.8-0.4-11.9,2.2-13.7-1c-2.8-5-0.8-12-0.9-18.1c0-2.4,1.9-2,3.3-1.9c2.7,0.2,3.3-0.9,3.3-3.5c-0.1-37.2-0.1-74.3,0-111.5
		c0-3-1.3-3.6-3.9-3.5C496,265.8,487,265.8,478,265.8z"/>
	<path class="st0" d="M331,402.4c-23,0-46-0.1-69,0.1c-4.3,0-5.3-1.2-5.1-5.3c0.3-7.4,0.1-7.5,7.4-7.5c45.6,0,91.3,0.1,136.9-0.1
		c4.1,0,5.4,1.2,4.8,5c-0.1,0.7-0.1,1.3,0,2c0.7,4.4-0.8,5.9-5.5,5.8C377.3,402.2,354.1,402.4,331,402.4z"/>
	<path class="st0" d="M518.2,265.1c-1.7-0.2-2.7-1-1.2-2.5c7.9-8,15.9-15.9,23.9-23.8c0.7-0.7,2.2-0.6,3.3-0.8
		c10.7,8.6,21.5,17.2,32.2,25.7c-0.1,0.5-0.2,1-0.3,1.4C556.8,265.1,537.5,265.1,518.2,265.1z"/>
	<path class="st0" d="M291,341.3c-10,0-20-0.1-30,0.1c-3.3,0.1-4.2-1-4.2-4.2c0.1-8.5-0.1-8.5,8.3-8.5c18.3,0,36.6,0.2,54.9-0.1
		c4.2-0.1,5.8,1,5.1,5.2c-0.2,1.3-0.2,2.7,0,4c0.4,2.9-1,3.6-3.7,3.6C311.3,341.3,301.2,341.3,291,341.3z"/>
	<path class="st0" d="M503.3,259.9c1,0.9,1.9,1.8,2.9,2.7c-2,4.7-5.9,1.9-9,2c-1.3,0.1-0.6-1.5,0-2.3
		C498.7,260.2,500.9,259.8,503.3,259.9z"/>
</g>
</svg>
