<?xml version="1.0" encoding="utf-8"?>
<!-- Generator: Adobe Illustrator 19.0.0, SVG Export Plug-In . SVG Version: 6.00 Build 0)  -->
<svg version="1.1" id="Calque_1" xmlns="http://www.w3.org/2000/svg" xmlns:xlink="http://www.w3.org/1999/xlink" x="0px" y="0px"
	 viewBox="0 0 612 792" style="enable-background:new 0 0 612 792;" xml:space="preserve">
<style type="text/css">
	.st0{fill:#539DD4;}
	.st1{fill:#FAD792;}
	.st2{fill:#BD5136;}
	.st3{fill:#454F66;}
	.st4{fill:#F1F1F1;}
	.st5{fill:#5B6887;}
	.st6{fill:#574B36;}
	.st7{fill:#DF5E3E;}
	.st8{fill:#DEC081;}
	.st9{fill:#F26947;}
	.st10{fill:#F0CE8B;}
	.st11{fill:#887683;}
	.st12{fill:#D6D5D3;}
	.st13{fill:#D7D5D3;}
</style>
<g>
	<path class="st0" d="M298.9,645C165.7,644.7,54.1,534.8,58,395.4c3.7-128.6,110.5-237.8,248.7-234.3
		c129.4,3.3,236.9,109.7,235.2,245.3C540.3,539,431.8,645.6,298.9,645z"/>
	<path class="st1" d="M249.1,433c-14.1-10.2-21.4-24.2-23.1-41.3c-0.2-0.2-0.6-0.4-0.7-0.7c-1.3-9.6-2-19.2,0.4-28.8
		c2.1,0.7,2.1,0.7,2.5-1.8c0.8-5.2,3-9.9,5.3-14.5c6.6-13.2,11.6-26.9,13.5-41.6c0.3-2.7,0.5-5.3,0.6-8c0.3-5.1,2-6.1,6.3-3.5
		c6.6,3.9,13.4,7.4,20.3,10.9c24.8,12.6,51,20.2,78.6,23c2.7,0.3,5.2,0.9,7.9,1c6.9,0.3,7.7,0.9,9.2,7.9c1.7,8,4,15.8,4.6,24
		c0.1,1.5,0.4,3,1.8,3.9c2.2,5.7,0.7,11.6,1.1,17.4c-0.3,4.3,0.1,8.7-0.3,13c-2.9,7.8-9.4,12.8-15.3,18
		c-13,11.3-28.9,16.9-45.2,21.3c-2.2,0.6-4.5,1.1-6.5,2.5c-1.8,1.2-3,2.8-2,5.1c0.9,2.1,2.8,2.9,4.9,2.3c14-4.1,28.3-7.5,41.1-15.2
		c2.3-1.4,4.3-3.8,7.6-3c-3,5.2-8.9,7.1-12.9,11.2c-1.1,1.7-2.7,2.9-4.4,3.9c-5.8,3.3-11.2,7.1-16.9,10.6
		c-17,10.6-34.2,10.7-51.4,0.9c-8.5-4.9-16.6-10.5-24.8-15.8C250.4,434.9,249.6,434.1,249.1,433z"/>
	<path class="st2" d="M226.8,361.8c-1.7,5.8-0.5,11.7-0.8,17.6c-0.2,4.1,0,8.2,0,12.3c-4.8,5.9-14.1,4.8-17-2.1
		c-1.8-4.6-1.8-9.4-1.1-14.1c0.5-3.6,0.7-7.2,0-10.9c-0.3-1.3-0.6-2.7-0.3-3.9c1.9-9.4-1-18.8,0.7-28.2c0.7-4-1.2-6.6-4.4-8.6
		c-0.3-6,0.7-12,1.2-18c-0.3-10.6,4.1-19.9,9-28.6c16.8-30,42.3-47.5,76.7-51.8c42.2-5.2,83.4,20.4,100.3,58
		c1.4,3.1,1.5,6.5,2.7,9.6c2.3,10.1,4.7,20.2,4.3,30.7c-3.2,1.7-3.7,4.6-3.7,8c0.1,16.8,0.1,33.6,0,50.4c0,2.6,0.4,5.4-1.5,7.6
		c-6.5,10.4-13.8,20.2-23.2,28.2c-2.7,2.3-5.4,4.5-8,6.7c-14.3,9.5-30.5,14.5-46.8,19.1c-3.8,1.1-7.2,1.1-8.6-3.2
		c-1.4-4.4,1.8-6.3,5.3-7.5c7.7-2.5,15.6-4.5,23.3-7.3c16.7-6.1,30.2-16.5,40.9-30.7c1.2-4.7,0.6-9.5,0.4-14.3
		c-0.8-6.1,1.1-12.3-1.1-18.3c-1.2-13-0.6-25.9-0.3-38.9c0.1-3.8,2.4-6.7,6.5-7c3.8-0.3,4-2.3,3.5-5.5
		c-5.3-37.9-36.9-68.3-74.9-72.1c-26.5-2.7-49.4,5.5-68.4,23.7c-13.7,13.1-21.9,29.6-24.7,48.6c-0.5,3.4,0.3,5,3.8,5.3
		c3.6,0.3,6.1,2.5,6.2,6.1C227.4,335.9,228,348.8,226.8,361.8z"/>
	<path class="st3" d="M401,487c20.5,8.3,36,22.3,46.7,41.6c1.3,2.4,1.8,4.3-0.4,6.7C419,566.1,384.8,586.6,344,596
		c-0.3,0.1-0.7,0-1,0.1c-1.3-2-1.4-2.1,0.2-4.5c6.2-9.1,12-18.4,18.3-27.4c5.8-8.1,11.1-16.6,16.8-24.8c1.8-2.5,1.5-4.4-0.7-6.5
		c-3.1-3-6.2-6.1-9.2-9.2c-1.7-1.8-2.5-3.7-0.5-5.7c10.5-10.5,20.3-21.6,32-30.7C400.3,487.1,400.7,487,401,487z"/>
	<path class="st4" d="M348.9,457.2c4.8,4.6,9.6,9.1,14.3,13.7c0.7,2.1-0.3,3.9-0.9,5.8c-6.4,19.3-13.3,38.4-19.6,57.7
		c-0.7,2-1.3,4.2-3.1,5.6c-2.7,0.8-3.3-1.6-4.4-3c-7.5-10-14.2-20.6-21.8-30.5c-3.3-4.8-6.7-9.5-10.1-14.2c-2.9-4-5.8-4-8.7,0.1
		c-3.3,4.7-7.1,9.2-10.1,14.1c-7.3,9.7-13.9,19.9-21.2,29.7c-1.4,1.9-2.7,4.6-5.9,2.8c-1.2-1.3-1.7-2.8-2.2-4.4
		c-6.2-19.4-13.3-38.5-19.6-57.8c-0.6-1.9-1.6-3.7-0.9-5.8c4.8-4.6,9.6-9.2,14.3-13.7c5.3,0.4,9.4,3.8,13.8,6.1
		c11,5.7,22,11.6,32.9,17.4c2.3,1.2,4.3,1.2,6.5-0.1c4-2.3,8.3-4.2,12.4-6.4c10.1-5.5,20.2-11,30.5-16.2
		C346.4,457.4,347.5,456.4,348.9,457.2z"/>
	<path class="st3" d="M252.9,595.1C226,589,202,577,180.1,560.6c-10.6-7.9-19.7-17.3-28.8-26.8c-1.8-1.9-2-3.3-0.7-5.6
		c10.8-19.1,26.1-32.9,46.5-41.1c4.6,2.2,7.8,6.1,11.5,9.4c7.1,6.3,13.5,13.4,20.3,20c2.9,2.8,3.1,5.2,0.1,8
		c-2.7,2.5-5.1,5.3-7.8,7.7c-3,2.6-3,4.8-0.8,8.1c10.8,16,21.6,32,32.4,48c0.9,1.4,2,2.7,2.6,4.3C255.8,594.5,255.6,596,252.9,595.1
		z"/>
	<path class="st5" d="M338.8,539.9c5-11,8.1-22.6,12.1-34c4.2-11.6,8.2-23.3,12.3-35c11.2,3.7,21.6,9.1,32.5,13.5
		c1.8,0.7,3.5,1.7,5.3,2.6c-10.1,9.9-20,19.9-30.2,29.5c-3.4,3.2-3.1,5,0.1,8c3.8,3.6,10.1,6.8,10.2,11.5c0.1,4.2-4.8,8.7-7.7,12.9
		c-9.6,14.3-19.2,28.6-28.8,42.9c-0.8,1.2-2.7,2.2-1.5,4.2c-7.8,2.7-15.8,3.7-24,3.9c-1.3-5.2,2.3-9.3,3.1-14.1
		c5-13.1,9.2-26.5,13.7-39.8C336.5,543.8,336.9,541.5,338.8,539.9z"/>
	<path class="st5" d="M252.9,595.1c4-1.1,0.8-2.8,0.2-3.8c-8.6-13-17.4-25.9-26.1-38.8c-3.1-4.5-5.9-9.3-9.1-13.6
		c-1.8-2.4-1.5-3.9,0.6-5.8c3.4-3.1,6.5-6.7,10-9.8c2.4-2.1,2.2-3.4-0.1-5.5c-8.6-7.9-16-16.9-25.2-24.2c-2.3-1.9-4.1-4.3-6.2-6.5
		c12.3-6.1,24.9-11.3,37.8-16.1c6.4,18.4,12.8,36.9,19.2,55.3c1.5,4.2,2.9,8.5,4.3,12.7c2.4,1.6,3.1,4.3,3.9,6.8
		c4.4,13.5,9,26.8,13.7,40.1c0.7,4.7,4.4,8.8,3.2,14C270.2,599.2,261.3,598.3,252.9,595.1z"/>
	<path class="st6" d="M393.9,293.2c-3.4-6.8-5.8-14.1-10-20.5c-17.5-26.4-41.4-42.9-73.3-45.6c-42.4-3.6-73.7,14.7-95.2,50.6
		c-5.2,8.7-7.9,18.5-10.2,28.4c-5-22.5,0.5-44.4,20.7-54.9c7.6-3.9,13.3-8.8,18.7-15.2c14-16.6,32.7-24.1,54.1-25
		c19.9-0.8,39.5,0.8,58.4,7.8c23,8.6,34.3,25.7,36.8,49.4C394.8,276.5,394.8,284.9,393.9,293.2z"/>
	<path class="st7" d="M279.1,599.9c-1.5-4.6-2.9-9.3-4.4-13.9c-0.3-2-0.4-4,0.1-5.9c5-19.1,10-38.1,15.2-57.1c0.3-1,0.6-1.9,1.2-2.7
		c0.5-0.7,1.2-1.5,1.9-1.4c3.9,0.6,7.7,0.7,11.6,0c0.7-0.1,1.5,0.6,1.9,1.3c4.2,10.6,6.3,21.9,9.4,32.9c2.4,8.6,4.7,17.3,6.9,25.9
		c0.6,2.3,0.6,4.6,0.4,6.9c-1.5,4.7-2.9,9.4-4.4,14.1C305.7,601.7,292.4,601.3,279.1,599.9z"/>
	<path class="st8" d="M348.9,457.2c-11.3,5.9-22.6,11.9-33.9,17.8c-10.8,0-21.1-2.8-30-8.6c-9.9-6.4-20.3-11.9-29.9-18.8
		c-2.5-1.8-4.8-3.6-5.9-6.5c0-2.7-0.1-5.4-0.1-8.1c10,6.2,19.8,12.8,30.1,18.4c16.3,8.9,32.4,7.6,48.1-2.2
		c7.2-4.5,13.9-9.5,21.5-13.3C348.9,443.1,348.9,450.1,348.9,457.2z"/>
	<path class="st9" d="M393,389.9c0-20.4,0.2-40.8-0.1-61.2c-0.1-4.5,1.2-5.9,5.4-4.8c10.5,3.8,14.8,11.6,14.6,22.4
		c-0.1,7.5,0.1,14.9-0.1,22.4C412.5,381.1,405.3,388.8,393,389.9z"/>
	<path class="st9" d="M203.9,324c4.5-0.8,6.6,1.9,5.9,5.6c-1.9,9.1,1.5,18.1-0.6,27.2c-0.5,2.2-0.4,4.7,0,6.9
		c0.9,4.3,1,8.5-0.1,12.8c-1,4.4,1.2,8.8-0.1,13.2c-11.2-0.5-18.9-8.1-19.2-19.3c-0.2-8.3,0.1-16.6-0.1-24.9
		C189.5,334.9,194,327.7,203.9,324z"/>
	<path class="st10" d="M249.2,441.1c9.1,8.2,20.1,13.8,30.4,20.3c5.6,3.6,11.4,6.5,17.4,9.4c3,1.4,6.1,1.7,9.1,2
		c3.2,0.4,6.1,1,9,2.3c-4.9,2.7-9.9,5.4-14.8,8.2c-1.1,0.6-1.8,0.3-2.8-0.2c-16.1-8.6-32.2-17.2-48.4-25.8
		C249.1,451.8,249.2,446.4,249.2,441.1z"/>
	<path class="st6" d="M226.8,361.8c-0.9-1.9-0.8-3.9-0.8-5.9c0-10.3,0-20.7,0-31c0-5.4-1.3-6.9-6.8-6.8c-3.7,0-4.4-1.2-3.9-4.7
		c2.7-19,10.4-35.7,23.7-49.5c13.6-14.3,30.5-22.9,50.1-25.7c22.7-3.2,43.6,2.1,62.2,15.5c19.4,14,31,32.9,34.9,56.5
		c0.2,1.1,0.6,2.3,0.8,3.4c0.6,3-0.1,4.6-3.7,4.6c-5.3-0.1-7,1.9-7,7.3c-0.1,10.3,0,20.7,0,31c0,2.2,0.2,4.3-0.9,6.3
		c-2.6,1.5-1.5-1.2-1.6-1.7c-1.1-9.6-3.6-18.9-5.7-28.3c-0.5-2.4-1.4-3.6-4.2-3.8c-39.4-2.2-75.8-14.2-109.5-34.5
		c-1.4-0.8-2.6-2.1-5-2.2c-0.1,7.1-0.9,14.1-2.3,21c-2.1,10.3-5.7,20.1-10.5,29.5c-3.6,7.1-7,14.2-7.5,22.7
		C227.5,364.3,227.1,363,226.8,361.8z"/>
	<path class="st11" d="M376.3,381c0.9,4.8,1.7,9.6-0.4,14.3C376,390.5,376.1,385.8,376.3,381z"/>
	<path class="st12" d="M292.3,519.9c-5.9,22-11.7,44-17.6,66c-5.5-15.7-11-31.4-16.5-47c3.9-0.9,4.9-4.6,6.8-7.3
		c5.5-7.6,10.7-15.3,16.1-23c0.7-1,1.9-1.8,2.8-2.7C289.2,509.1,291.4,514.2,292.3,519.9z"/>
	<path class="st13" d="M323.4,585.8c-5.9-22-11.8-43.9-17.6-65.9c0.8-5.8,3.1-10.7,8.2-14c6.9,7,11.5,15.7,17.3,23.5
		c2.6,3.5,5.1,7,7.6,10.4c-3.3,13-8.3,25.4-12.5,38C325.4,580.6,324.4,583.2,323.4,585.8z"/>
	<path class="st9" d="M313.9,506c-3.1,4.5-6,9-8.2,14c-4.5,1.1-9,1.1-13.4,0c-2.3-5-5.1-9.6-8.3-14c2.9-6.2,7.5-11.3,11.5-16.8
		c1.7-2.3,5.3-2.3,7,0C306.5,494.6,311.1,499.7,313.9,506z"/>
</g>
</svg>
