<?xml version="1.0" encoding="utf-8"?>
<!-- Generator: Adobe Illustrator 19.0.0, SVG Export Plug-In . SVG Version: 6.00 Build 0)  -->
<svg version="1.1" id="Calque_1" xmlns="http://www.w3.org/2000/svg" xmlns:xlink="http://www.w3.org/1999/xlink" x="0px" y="0px"
	 viewBox="0 0 612 792" style="enable-background:new 0 0 612 792;" xml:space="preserve">
<style type="text/css">
	.st0{fill:#539DD4;}
	.st1{fill:#FDFDFD;}
	.st2{fill:#F8B914;}
	.st3{fill:#EB2524;}
	.st4{fill:#539DD5;}
	.st5{fill:#549ED5;}
</style>
<g>
	<path class="st0" d="M313.3,656C179.8,655.9,68,545.7,72,406.3c3.7-128.5,110.6-237.7,248.8-234.2
		c129.4,3.3,236.9,109.8,235.1,245.4C554.2,550.2,445.7,656.4,313.3,656z"/>
	<path class="st1" d="M301.7,485c-2.5,0-5-0.1-7.5-0.1c-1.1-3.6-3.7-4.4-7.3-4.3c-24.5,0.1-49,0.1-73.5,0.1c-2.3,0-4.7,0.1-7-0.2
		c-5.1-0.7-8-3.7-8.8-8.8c-0.3-1.8-0.3-3.7-0.3-5.5c0-51.2,0-102.3,0-153.5c0-1.5,0-3,0.2-4.5c0.7-5.8,3.8-8.9,9.7-9.6
		c2-0.2,4-0.2,6-0.2c66.5,0,133,0,199.5,0c1.2,0,2.3,0,3.5,0c9,0.2,12.3,3.5,12.3,12.6c0.1,52.5,0,105,0.1,157.5c0,4.5-1,8.3-5,10.7
		c-2.2,1.3-2.6,3.8-4,5.6c-2.4,0-4.9,0.1-7.3,0.1c-2.3-1.2-2.4-3.5-2.6-5.6c-0.3-3.5-0.1-7,0.9-10.4c2.8-9.9,2.3-11.6-6-17.7
		c-4.4-3.2-7.2-7.4-8.8-12.4c-2.3-7.3-6.8-11-14.8-10.6c-6,0.3-11.4-2.2-16.2-5.7c-5.5-4-10.7-4.1-16,0.1c-5.3,4.2-11.3,6-18.1,5.8
		c-6.6-0.2-9.7,2.2-11.9,8.6c-2.3,6.7-6,12.1-11.9,16.2c-5.4,3.8-6.2,6.9-4.3,13.4c1.2,4.2,1.8,8.5,1.5,12.8
		C304.1,481.6,304.1,483.9,301.7,485z"/>
	<path class="st2" d="M419.7,484.9c-1-3.1-0.7-5.8,2.8-6.9c4-1.3,4.6-4.1,4.6-7.8c-0.1-32.8,0-65.6,0-98.5c0-20.5,0-41,0-61.5
		c0-8.2-2.2-10.3-10.4-10.3c-69,0-137.9,0-206.9,0c-8.6,0-10.7,2-10.7,10.5c0,52.5,0,104.9,0,157.4c0,9.2,2,11.1,11.1,11.2
		c26.5,0,53,0,79.5,0.1c6.2,0,6.2,0,4.7,5.8c-0.4,1.8-1.4,3.7-1.1,5.3c1.4,6.1-2,5.9-6.4,5.9c-25.6-0.2-51.3-0.1-77-0.2
		c-18.1-0.1-27.7-9.7-27.7-27.9c0-52.6,0-105.3,0-157.9c0-16.7,10-26.9,26.6-26.9c69.5-0.1,138.9-0.1,208.4,0
		c16.8,0,26.7,10.1,26.7,26.8c0,53,0,105.9,0,158.9c0,10.8-3.9,19.5-13.9,24.6c-1.6,0.8-3.4,1.3-5.2,1.7c-2.4,0.6-3.9-0.2-3.7-3
		C421.2,489.6,420.9,487.2,419.7,484.9z"/>
	<path class="st3" d="M301.7,485c2.4-5.9,1.6-11.7-0.2-17.6c-2.4-8.1-1.6-10.9,5.2-15.8c5.2-3.7,8.8-8.4,10.7-14.6
		c2.5-8,5.6-10.4,13.9-10c6.4,0.3,11.6-1.7,16.7-5.3c7.5-5.4,10.4-5.4,18-0.1c5.2,3.7,10.8,5.5,17.3,5.4c7.8-0.1,10.7,1.9,13.2,9.5
		c2.1,6.5,5.7,11.4,11.2,15.3c6.4,4.5,7.5,8.1,5,15.5c-1.9,5.9-2.6,11.6-0.3,17.5c3.1,7.7,0.9,13.5-6,17.9c-5,3.2-7.8,7.9-9.6,13.5
		c-2.7,8.4-5.3,10.3-14.2,10.3c-6.4,0-12,2-17.2,5.7c-6.8,4.8-10.1,4.8-16.7,0c-5.3-3.8-11-5.8-17.6-5.7c-7.9,0.2-10.7-2-13.3-9.4
		c-1.9-5.6-4.4-10.9-9.6-14.2C301.1,498.7,298.4,493,301.7,485z"/>
	<path class="st3" d="M349,543.3c-1.4,13.4-2.8,26.8-4.3,40.2c-0.2,1.7-0.1,4-2.2,4.7c-1.8,0.6-3-1-4.2-2.1
		c-8-7.4-16.8-7.7-26.3-3.3c-3.9,1.8-7.9,3.4-12,4.9c-2.8,1-3.8-0.4-3.1-3c0.4-1.4,1.1-2.8,1.7-4.1c6.5-15.3,13-30.5,19.4-45.9
		c1.4-3.3,2.6-5.1,6.9-3.8c3.9,1.2,8.3,0.7,12.4,1.3C344.7,533.1,349.3,537.7,349,543.3z"/>
	<path class="st3" d="M365.2,545.8c0.1-7.8,4.4-12.7,11.3-14c5.1-1,10.3,0.2,15.3-1.6c1.8-0.6,2.6,0.9,3.2,2.3
		c7.2,17,14.4,33.9,21.6,50.9c0.6,1.4,1.2,3-0.2,4.1c-1.2,1-2.5,0-3.7-0.4c-5.3-2-10.7-3.7-15.8-6.2c-5.7-2.7-10.6-2.1-15.8,1.4
		c-10.1,6.9-10.7,6.4-12.2-5.9C367.7,566,366.4,555.5,365.2,545.8z"/>
	<path class="st4" d="M313.3,358.1c-13.2,0-26.3,0.2-39.5-0.1c-8.7-0.2-13.3-5.4-12.8-13.7c0.4-6.7,5.8-11.2,14-11.2
		c16.7-0.1,33.3-0.1,50-0.1c8.7,0,17.3-0.1,26,0.1c5.6,0.1,10.6,1.7,13.1,7.4c3.8,8.6-1.7,17.3-11.3,17.5
		C339.6,358.3,326.4,358,313.3,358.1C313.3,358.1,313.3,358.1,313.3,358.1z"/>
	<path class="st0" d="M313.4,397.9c25.8,0,51.6,0,77.4,0c2.6,0,5.5-0.3,7.3,2.3c1.4,1.9,1.4,4.2,0.6,6.2c-1,2.6-3.4,3.6-6.1,3.6
		c-8.8,0.1-17.6,0.2-26.5,0.2c-42.6,0-85.3,0-127.9,0c-1.8,0-3.7,0.1-5.5-0.2c-3.5-0.5-5.9-2.1-5.8-6.2c0.1-4,2.3-5.7,6-5.8
		c8.7-0.1,17.3-0.1,26-0.1C277.1,397.8,295.2,397.8,313.4,397.9C313.4,397.9,313.4,397.9,313.4,397.9z"/>
	<path class="st5" d="M272.5,426.1c12.2,0,24.3,0.1,36.5-0.1c3.9-0.1,4.5,1,3.2,4.6c-2.9,8-2.7,8.1-11.1,8.2
		c-21.3,0.1-42.6,0.1-64,0.1c-2,0-4-0.3-5.9-0.7c-2.9-0.5-4.1-2.4-4.2-5.3c-0.1-2.8,0.9-4.8,3.7-5.8c3.1-1.1,6.3-0.8,9.4-0.8
		C250.8,426.1,261.6,426.1,272.5,426.1C272.5,426.1,272.5,426.1,272.5,426.1z"/>
	<path class="st1" d="M398,476.8c-0.1,22.9-18.5,40.9-41.5,40.8c-22.4-0.1-40.5-18.8-40.4-41.5c0.2-21.8,18.9-40.1,40.8-40.1
		C379.5,436.1,398.1,454.5,398,476.8z"/>
	<path class="st2" d="M336,486.5c-9-0.4-9-0.4-8.8-10.9c0.1-7.1,0.5-7.5,7.6-8c0.7-0.1,1.3-0.2,2-0.2c10.4-0.3,10.5,1.4,10.6-11.4
		c0-3-1.1-7,3-8.1c5-1.4,10.2-1.4,15.1,0.5c1.1,0.4,1.2,1.9,1.2,3.1c0,1,0,2-0.1,3c-0.8,12.7,0.2,13.7,13.1,12.9
		c6-0.4,7,0.6,7.2,6.6c0.3,12.5,0.3,12.5-12,12.1c-7-0.2-8.8,1.6-8.7,8.8c0,0.3,0,0.7,0,1c0.3,10-4.3,13.6-14.3,11.1
		c-2.4-0.6-3.8-2-3.9-4.5c-0.1-3-0.1-6-0.2-9c-0.2-6.1-1.6-7.3-7.5-6.9C339.2,486.5,338.2,486.5,336,486.5z"/>
</g>
</svg>
