<?xml version="1.0" encoding="utf-8"?>
<!-- Generator: Adobe Illustrator 19.0.0, SVG Export Plug-In . SVG Version: 6.00 Build 0)  -->
<svg version="1.1" id="Calque_1" xmlns="http://www.w3.org/2000/svg" xmlns:xlink="http://www.w3.org/1999/xlink" x="0px" y="0px"
	 viewBox="0 0 612 792" style="enable-background:new 0 0 612 792;" xml:space="preserve">
<style type="text/css">
	.st0{fill:#539DD4;}
	.st1{fill:#FDFDFD;}
	.st2{fill:#E7E6E5;}
	.st3{fill:#B0B0AF;}
	.st4{fill:#F8CD0B;}
	.st5{fill:#549ED5;}
	.st6{fill:#549DD5;}
</style>
<g>
	<path class="st0" d="M313.1,651C179.7,650.8,68.1,540.8,72,401.5c3.6-128.6,110.5-237.9,248.6-234.4
		c129.4,3.2,237,109.6,235.4,245.1C554.4,544.9,445.9,651.5,313.1,651z"/>
	<path class="st1" d="M409.2,288c-0.1,38.8-0.1,77.6-0.2,116.4c0,55.8,0,111.6,0,167.4c0,1.1,0,2.3,0,4.5c-6.3-5.2-12-9.7-17.3-14.5
		c-2.4-2.1-3.8-2.2-6.2-0.1c-6.1,5.4-12.6,10.4-18.8,15.7c-2.3,2-3.9,2.1-6.3,0.2c-6.8-5.3-13.9-10.3-20.7-15.6
		c-2.6-2.1-4.5-2.4-7.3-0.1c-6.1,4.9-12.6,9.3-18.8,14.1c-1.9,1.5-3.2,1.5-5.1,0c-6.2-4.8-12.6-9.3-18.7-14.2
		c-2.6-2.1-4.3-2.1-6.9-0.1c-6.8,5.3-14,10.2-20.7,15.7c-2.8,2.3-4.6,2-7.2-0.1c-6.7-5.3-13.7-10-20.3-15.3
		c-2.9-2.3-4.9-2.1-7.7,0.1c-5.7,4.6-11.9,8.6-17.5,13.2c-2.8,2.3-4.6,2-7.3-0.1c-5.7-4.5-11.9-8.6-17.6-13.2
		c-3.1-2.5-5.3-2-8.2,0.2c-6.7,5.2-13.6,10-20.4,14.9c-1.4-0.9-0.8-2-0.8-2.9c0-100.3,0-200.6,0-300.8c0-0.8,0.1-1.7,0.1-2.5
		c2.7-2.4,6-1.7,9.1-1.7c67,0,134,0,200.9,0c12.2,0,24.3,0,36.5,0c2.5,0,5-0.2,7.3,1.2C411.5,276.4,411.4,282.2,409.2,288z"/>
	<path class="st2" d="M408.9,271c-84.6,0-169.1,0-253.7,0c1.4-9.6,4.6-18.3,11.5-25.4c5-5.2,11.1-7.6,18.3-7.6
		c61.1,0.1,122.3,0.1,183.4,0.1c22.8,0,45.7,0,68.5,0.1c0.1,2-1.6,2.3-2.9,2.8c-13.4,4.7-22.1,13.4-23.9,28
		C410,269.8,409.6,270.6,408.9,271z"/>
	<path class="st3" d="M408.9,271c0.8-15.4,9.7-26.8,24.5-31.1c1.2-0.4,2.3-1.2,3.5-1.7c10.9,0.6,21.6,1.7,28.7,11.8
		c2.8,4,4.1,8.4,4.3,13c0.4,6.3,0.1,12.6,0.1,18.9c0,4.2-1.9,6.2-6.4,6.1c-18.1-0.2-36.2,0-54.4,0C409.1,282.4,409,276.7,408.9,271z
		"/>
	<path class="st4" d="M330.5,496.1c9.1-0.2,9.1-0.2,11.7,8.8c1.4,4.7,5.7,7.3,12.4,7.2c6.5,0,9.9-2.3,11.4-7.6
		c1.8-6.4,0.3-11.5-4.9-14.3c-7.3-3.9-15-7.2-22.3-11.1c-15.6-8.3-18-30.5-4.7-41.8c3.1-2.7,6.9-4.1,10.7-5.1
		c4.9-1.3,6.9-4.2,6.3-9.1c-0.4-3.5-0.1-6.3,4.6-6.3c4.5,0,6,2,5.4,6.2c-0.8,5.6,1.8,8.5,7.1,10.2c9.8,3.1,16.9,13.1,17,23
		c0,1.2,0.2,2.6-1,3.2c-4.5,2.3-9.5,1.8-14.2,1.3c-3.2-0.3-4.1-3.6-4.5-6.5c-0.6-5-3.3-7.9-8.2-8.7c-4.1-0.7-8.2-0.2-10.8,3.5
		c-2.8,4-3.7,8.6-1.2,13.2c2.1,3.9,5.6,6.1,9.5,7.7c6.8,2.8,13.5,5.8,19.6,9.8c9.6,6.3,11.9,15.6,10.3,26.2
		c-1.5,9.6-7.2,16.1-16.7,18.5c-5.7,1.5-9.3,3.6-8.3,10.4c0.6,3.9-2.7,4.3-5.8,4.3c-3.2,0-4.9-1.5-4.4-4.6c1.1-6.3-2.3-8.5-7.7-10
		c-9.9-2.7-16.7-8.8-19-19.1C321.1,496.8,321.6,496.3,330.5,496.1z"/>
	<path class="st5" d="M287.7,310.7c-28.5,0-56.9-0.1-85.4,0.1c-4,0-5.7-0.9-5.5-5.2c0.2-3.8-0.1-6.4,5.3-6.4
		c56.9,0.2,113.9,0.1,170.8,0.1c5.5,0,8.3,4.8,6,9.9c-0.9,2-2.8,1.5-4.3,1.5c-19.3,0-38.6,0-57.9,0.1
		C307,310.7,297.4,310.7,287.7,310.7C287.7,310.7,287.7,310.7,287.7,310.7z"/>
	<path class="st5" d="M288.5,329.9c28.5,0,57,0,85.5-0.1c3.5,0,5.7,0.3,5.2,4.7c-0.4,3.5,0.6,6.5-5.1,6.5c-57.3-0.2-114.6-0.2-172,0
		c-5.6,0-5-2.8-5.3-6.4c-0.3-4.2,1.5-4.9,5.2-4.9C230.9,329.9,259.7,329.9,288.5,329.9C288.5,329.9,288.5,329.9,288.5,329.9z"/>
	<path class="st6" d="M288,372.1c-28.8,0-57.7-0.1-86.5,0.1c-4.6,0-4.6-2-4.6-5.4c0.1-3.3-0.4-5.9,4.7-5.9
		c57.5,0.2,115,0.1,172.5,0.2c1.6,0,4.2-1.1,4.7,1.4c0.6,2.9,0.9,6-0.2,8.8c-0.6,1.5-2.7,0.8-4.1,0.8
		C345.7,372.1,316.8,372.1,288,372.1z"/>
	<path class="st0" d="M288,393.2c28.8,0,57.6,0.1,86.4-0.1c4.4,0,4.9,1.8,4.7,5.3c-0.2,3.2,0.6,6-4.6,6c-57.6-0.2-115.2-0.2-172.9,0
		c-5.4,0-4.5-3-4.8-6.3c-0.4-4.1,1.3-5,5.1-5C230.7,393.2,259.3,393.2,288,393.2C288,393.2,288,393.2,288,393.2z"/>
	<path class="st6" d="M250,478.3c-15.9,0-31.9-0.1-47.8,0.1c-4.1,0.1-5.5-1.1-5.3-5.3c0.1-3.9,0.4-6.1,5.3-6
		c32.4,0.2,64.9,0.2,97.3,0c4.5,0,4.8,2.1,4.6,5.5c-0.1,2.9,0.8,5.8-4.2,5.8C283.2,478.1,266.6,478.3,250,478.3z"/>
	<path class="st0" d="M251,507c16.1,0,32.3,0.2,48.4-0.1c4.6-0.1,4.7,2,4.6,5.4c-0.1,3.3,0.4,5.9-4.7,5.9c-32.6-0.2-65.2-0.2-97.8,0
		c-4.5,0-4.7-2-4.7-5.4c0.1-3.3-0.3-6,4.7-5.9C218.1,507.2,234.5,507,251,507C251,507,251,507,251,507z"/>
	<path class="st0" d="M250.2,441.3c-16.2,0-32.3-0.2-48.5,0.1c-4.8,0.1-4.9-2.2-4.9-5.7c0-3.3,0.1-5.6,4.6-5.6
		c32.6,0.2,65.3,0.2,98,0c5.1,0,4.4,2.9,4.6,6.1c0.2,3.7-0.7,5.2-4.9,5.2C282.9,441.1,266.6,441.3,250.2,441.3z"/>
</g>
</svg>
