<?xml version="1.0" encoding="utf-8"?>
<!-- Generator: Adobe Illustrator 19.0.0, SVG Export Plug-In . SVG Version: 6.00 Build 0)  -->
<svg version="1.1" id="Calque_1" xmlns="http://www.w3.org/2000/svg" xmlns:xlink="http://www.w3.org/1999/xlink" x="0px" y="0px"
	 viewBox="0 0 612 792" style="enable-background:new 0 0 612 792;" xml:space="preserve">
<style type="text/css">
	.st0{fill:#539DD4;}
	.st1{fill:#F8B914;}
	.st2{fill:#EB2524;}
	.st3{fill:#F7B915;}
	.st4{fill:#2E2E2E;}
	.st5{fill:#2E2D2D;}
	.st6{fill:#F8B915;}
	.st7{fill:#549ED5;}
</style>
<g>
	<path class="st0" d="M315.8,161.1C177.6,157.6,70.7,266.8,67,395.3C63,534.7,174.8,644.9,308.4,645
		c132.4,0.3,240.9-105.9,242.6-238.6C552.7,270.8,445.1,164.4,315.8,161.1z M338.8,472.1c8.7,4.2,17.4,8.4,26.1,12.6
		c3.4,1.6,5,0.8,6.6-2.4c5-10,9.2-20.3,14.6-30.1c1-1.8,1.4-4.2,3.9-4.8c0.1,7.1,0.2,14.2,0.3,21.3c0.6,0.9,0.7,2,0.3,2.9
		c-2.7,6.2-1.9,12.8-2,19.2c-0.1,17.2,0,34.3,0,51.5c0,2.2,0.1,4.3-0.4,6.5c-1.3,6.2-5.1,9.4-11.5,9.8c-1.7,0.1-3.3,0.1-5,0.1
		c-59.2,0-118.3,0-177.5,0c-1.5,0-3,0-4.5,0c-7.3-0.3-11.7-3.9-13.6-11c-0.8-3.1-0.8-6.3-0.8-9.4c0-84.8,0-169.6,0-254.5
		c0-0.7,0-1.3,0-2c0.2-12.4,4.6-16.9,16.8-17.3c2.8-0.1,5.7-0.1,8.5,0c3.7,0.2,6.9-0.5,9.4-3.4c3.3,0,6.5,0,9.8,0
		c2.4,5.9,2.2,11.6-1.5,17c-2.4,3.5-2.9,7.1-0.1,10.6c3.2,4,8,4.8,12,2.1c4.2-2.9,5.3-7.9,2.4-12.3c-3.6-5.6-4.3-11.3-1.7-17.4
		c3.2,0,6.5,0,9.7,0c2,3.1,5,3.8,8.5,3.6c3.1-0.2,6.2-0.2,9.3,0c3.5,0.2,6.4-0.7,8.5-3.6c3.3,0,6.5,0,9.8,0
		c2.5,5.9,2.2,11.6-1.5,16.9c-2.4,3.5-2.9,7.1-0.2,10.6c3.2,4,8,4.8,12,2.1c4.2-2.9,5.3-7.9,2.5-12.2c-3.6-5.6-4.3-11.3-1.7-17.4
		c3.3,0,6.5,0,9.8,0c2,2.9,4.7,3.8,8.1,3.6c3.5-0.2,7-0.2,10.4,0c3.6,0.2,6.5-0.7,8.7-3.6c3.3,0,6.5,0,9.8,0.1
		c2.9,5.5,1.9,10.8-1.2,15.9c-2.2,3.6-3.4,7.3-0.8,11.2c2.7,4.1,7.5,5.2,11.3,2.9c4.3-2.6,5.7-7.4,3.6-12.2c-0.8-1.7-2.8-3-2-5.3
		c0-1,0-2,0-2.9c-0.2-9.8-0.2-9.8,9.9-9.5c2.3,2.8,5.2,3.7,8.8,3.5c3.8-0.2,7.7-0.2,11.5,0c8.3,0.4,12.2,4.2,12.4,12.5
		c0.3,9.3,0.1,18.7,0.1,28c0,2.2-0.2,4.4,1.7,6c0.1,6,0.1,12,0.2,18c0.8,3.6-1.3,6.4-2.7,9.3c-10.2,20.7-20,41.7-30.1,62.5
		c-1.1,2.2-2.3,4.4-2.6,7c-0.1,1,0.1,2,1.1,2.6c1.2,0.7,2.2,0.3,3.2-0.6c1.1-1,1.8-2.4,2.4-3.7c8.6-16.9,16.7-34.1,24.8-51.2
		c0.8-1.7,1.1-4,3.7-4c0.1,5.8,0.2,11.5,0.3,17.3c1.1,2.1,0,3.9-0.9,5.6c-6.6,12.7-12.3,25.9-18.7,38.6c-2.4,4.7-5.3,8.4-10.7,9.6
		c-2.8,0.7-4.5,2.7-5.7,5.2c-6.1,12.4-11.7,25-18.1,37.3C334.3,468.2,335.1,470.3,338.8,472.1z"/>
	<path class="st1" d="M210.2,261c0.1,3.8-1.5,5.4-5.4,5.2c-4.7-0.2-9.3,0-14,0.1c-10.1,0.1-13.5,3.5-13.5,13.6
		c0,79.6,0,159.3,0,238.9c0,8.2-0.1,16.3,0,24.5c0.1,9.4,4.5,13.9,13.7,13.9c61.5,0.1,122.9,0.1,184.4,0c8,0,11.6-3.8,11.6-12.3
		c0.1-20.8,0.2-41.7-0.1-62.5c-0.1-5.1,1.6-9.4,3.4-13.8c2.1-4.1,4.2-8.2,6.4-12.3c1.6,1.1,1,2.6,1,3.8c0,26.7,0.1,53.3,0,80
		c0,2.7-0.2,5.3-0.4,8c-1.3,12.5-9.3,19.9-21.9,19.9c-40.1,0-80.3,0-120.4,0c-21.2,0-42.3,0-63.5,0c-15,0-24.4-9.2-24.4-24.3
		c-0.1-88-0.1-175.9,0-263.9c0-15.8,7.9-23.6,23.6-23.8c4.7-0.1,9.3,0.2,14-0.1C208.6,255.5,210.6,256.8,210.2,261z"/>
	<path class="st2" d="M390,447.3c-5.9,12.1-12,24.1-17.7,36.3c-1.7,3.7-3.3,4.6-7.1,2.7c-9.5-4.9-19.1-9.4-28.8-13.8
		c-3.5-1.6-3.9-3.3-2.3-6.5c6.5-13.3,12.9-26.6,19.3-40c1.3-2.7,2.9-4.6,6.2-5.1c4.3-0.6,7.2-3.5,9-7.2
		c7.3-15.1,14.5-30.3,21.7-45.4c3.9-7.9,7.9-15.7,11.6-23.7c1.4-3,2.7-3.9,6-2.2c7.2,3.8,14.5,7.4,22,10.6c3.4,1.5,3.8,2.9,2.2,6.2
		c-13.3,27.4-26.4,54.8-39.6,82.2C391.6,443.3,390.8,445.4,390,447.3z"/>
	<path class="st2" d="M390,350.9c-8.7,17.8-17.3,35.5-26,53.3c-0.9,1.9-1.9,3.9-3,5.7c-1.3,2-3,3.8-5.7,2.2
		c-2.6-1.5-2.5-3.7-1.5-6.1c0.8-2,1.7-4,2.6-5.9c11.3-23.7,22.6-47.4,33.9-71c0.9-1.6,1.9-3.1,2.6-4.8c1.8-4.1,3.9-7,9-4.5
		c2,1,3-0.4,3.8-2.1c1.5-3.2,2.9-6.4,4.5-9.4c2.8-5.3,6.6-6.7,12-4.3c7.3,3.3,14.5,6.7,21.6,10.3c5.2,2.6,6.6,6.7,4.2,12.1
		c-2.5,5.8-5.5,11.4-8,17.1c-1.3,3-2.9,3.5-5.7,2c-9.1-4.5-18.2-8.9-27.3-13.3c-6.3-3-6.9-2.8-9.9,3.3
		C394.7,340.6,392.4,345.8,390,350.9z"/>
	<path class="st3" d="M390.2,311.1c-2.3,1.5-3.3,1.3-3.2-1.9c0.2-10.5,0.1-21,0-31.4c0-8.6-2.8-11.4-11.3-11.5
		c-4.8-0.1-9.7-0.3-14.5,0.1c-4.1,0.3-5.9-1.1-5.6-5.2c0-4.1,2.1-5.4,6-5.2c5.8,0.3,11.6-0.1,17.4,0.2c10.5,0.4,17.7,7.6,18.1,18.1
		c0.4,9.3,0.2,18.6,0.6,27.9c0.1,4-0.5,6.8-5.1,7.4C391.7,309.5,391,310.5,390.2,311.1z"/>
	<path class="st4" d="M231.1,261c-0.1,6.2-1.3,12.4,3.6,17.8c2.9,3.2,1.1,9.3-2.7,12.4c-3.9,3.3-9.3,3.2-13.2,0
		c-3.8-3.2-5.5-8.9-2.5-12.4c4.7-5.5,4.3-11.5,3.7-17.8c0.1-5.3,0-10.6,0.3-15.9c0.2-3.4,0.7-7,5.3-7c4.5,0,5.2,3.4,5.3,7
		C231,250.4,231,255.7,231.1,261z"/>
	<path class="st4" d="M288,261c-0.2,6.2-1.1,12.4,3.6,17.9c2.9,3.3,1.1,9.3-2.7,12.4c-3.8,3.2-9.3,3.2-13.3-0.1
		c-3.8-3.1-5.5-8.9-2.5-12.4c4.7-5.5,4.1-11.6,3.7-17.8c0.1-5.1,0.1-10.3,0.2-15.4c0.1-3.6,0.6-7.4,5.3-7.5c4.9-0.1,5.1,4,5.3,7.4
		C288,250.7,288,255.9,288,261z"/>
	<path class="st5" d="M345.8,273.5c1,1.5,2.2,2.9,3.1,4.5c2.6,4.2,1.7,9.8-2.1,13.1c-3.8,3.4-9.2,3.5-13.2,0.2
		c-3.8-3.1-5.6-8.8-2.6-12.4c4.7-5.5,4.2-11.6,3.9-17.9c0.1-5.3,0.2-10.6,0.1-16c0-3.8,1.1-6.8,5.4-6.9c4.2,0,5,3,4.9,6.6
		c-0.1,8-0.2,16-0.2,24C345.1,270.3,344.5,272.1,345.8,273.5z"/>
	<path class="st3" d="M325,261c-0.1,4-2.1,5.4-6,5.2c-5.3-0.2-10.5-0.3-15.8,0.1c-4.2,0.3-5.7-1.3-5.4-5.3c-0.1-3.7,1.4-5.3,5.3-5.2
		c5.4,0.2,10.9,0.3,16.3-0.1C323.5,255.5,325.2,257.1,325,261z"/>
	<path class="st6" d="M267.1,261c0.1,4.1-2.1,5.4-6,5.2c-5-0.2-9.9-0.3-14.9,0.1c-4.2,0.3-5.8-1.3-5.5-5.3c-0.2-3.8,1.5-5.3,5.4-5.1
		c5.1,0.2,10.3,0.2,15.4-0.1C265.6,255.6,267.6,256.8,267.1,261z"/>
	<path class="st7" d="M282.1,347c-21.3,0-42.6,0-63.9,0c-3.3,0-6.2,0.3-6.3-4.7c0-4.7,1.9-6.1,6.2-6.1c29.3,0.1,58.6,0,87.9,0
		c13.5,0,27,0,40.5-0.1c3.6,0,6,0.4,5.9,5.1c-0.1,4.3-1.5,5.8-5.8,5.8C325,346.9,303.5,347,282.1,347C282.1,347,282.1,347,282.1,347
		z"/>
	<path class="st7" d="M282.9,371c21.2,0,42.3,0,63.5,0c3.3,0,5.8,0.1,5.9,4.6c0,4.4-1.3,6.3-6,6.3c-43-0.1-86,0-129,0.1
		c-3.6,0-5.6-0.9-5.5-5.1c0.1-4,1.4-5.8,5.5-5.8c21.8,0.1,43.7,0,65.5,0C282.9,371.1,282.9,371,282.9,371z"/>
	<path class="st0" d="M278.2,416.3c-20,0-40,0-59.9,0c-3.5,0-6.5,0.2-6.4-5c0.1-4.8,2.3-5.3,6.2-5.3c39.6,0.1,79.2,0,118.9,0
		c5,0,7.9,4.1,6.4,8.7c-0.7,2.3-2.7,1.5-4.3,1.5c-13.5,0.1-27,0-40.5,0C291.8,416.2,285,416.2,278.2,416.3
		C278.2,416.2,278.2,416.3,278.2,416.3z"/>
	<path class="st2" d="M325.3,524.2c0.9-14.3,1.9-28.5,2.7-42.8c0.2-2.7,0.7-3.7,3.5-2.3c10.1,5,20.3,10,30.5,14.8
		c3.9,1.8,3.6,3.6,0.8,6.1c-10.3,9.2-20.4,18.6-30.7,27.8c-1.4,1.3-3,3-5.2,1.8C324.8,528.4,325,526.2,325.3,524.2z"/>
</g>
</svg>
