<?xml version="1.0" encoding="utf-8"?>
<!-- Generator: Adobe Illustrator 19.0.0, SVG Export Plug-In . SVG Version: 6.00 Build 0)  -->
<svg version="1.1" id="Calque_1" xmlns="http://www.w3.org/2000/svg" xmlns:xlink="http://www.w3.org/1999/xlink" x="0px" y="0px"
	 viewBox="0 0 612 792" style="enable-background:new 0 0 612 792;" xml:space="preserve">
<style type="text/css">
	.st0{fill:#1D1D1B;}
</style>
<g>
	<path class="st0" d="M299,401c69.7,0,139.3,0,209,0c8.5,0,11.1,2.5,11.1,10.9c0,2.7,0,5.3,0,8c-0.1,6.1-3.1,9.1-9.3,9.1
		c-10.5,0.1-21,0.2-31.5,0c-3.7-0.1-5.2,0.6-5,4.8c0.3,10,0.1,20,0.1,30c0,5.7-2.9,9.1-7.6,9.3c-4.8,0.2-8.3-3.5-8.4-9.2
		c-0.1-10-0.2-20,0-30c0.1-3.9-1-4.9-4.9-4.9C375.3,429,298.1,429,221,429c-25.2,0-50.3,0.1-75.5-0.1c-4,0-4.9,1.1-4.8,4.9
		c0.3,9.7,0.1,19.3,0.1,29c0,6.3-3,10.1-7.8,10.2c-5.1,0.1-8.2-3.8-8.2-10.3c0-9.7-0.2-19.3,0.1-29c0.1-4.1-1.3-4.9-5-4.8
		c-10.3,0.2-20.7,0.1-31,0.1c-6.9,0-9.7-2.8-9.8-9.6c0-3-0.1-6,0-9c0.1-6.4,3-9.4,9.5-9.4c26.7,0,53.3,0,80,0
		C212,401,255.5,401,299,401z"/>
	<path class="st0" d="M434.5,317c19.2,0,38.3,0.1,57.5-0.1c4.8-0.1,6.7,1.4,6.4,6.3c-0.3,5.5-0.2,11,0,16.5c0.1,3.8-1.2,5.4-5.2,5.4
		c-39.2-0.1-78.3-0.1-117.5,0c-3.8,0-5.5-1.4-5.4-5.2c0.1-5.7,0.2-11.3,0-17c-0.2-4.3,1.4-5.9,5.8-5.9
		C395.5,317.1,415,317,434.5,317C434.5,317,434.5,317,434.5,317z"/>
	<path class="st0" d="M425.7,393c-12,0-24-0.1-36,0.1c-2.8,0-3.7-0.6-3.7-3.6c0.2-11,0.2-22,0-33c0-2.9,0.9-3.6,3.6-3.6
		c24,0.1,48,0,72,0.1c5.6,0,8.5,3,8.6,8.7c0.1,7.5,0.1,15,0,22.5c-0.1,5.9-3,8.7-9.1,8.8C449.3,393,437.5,393,425.7,393z"/>
	<path class="st0" d="M345.1,383.4c0,5.4-3.6,9-10,10.2c-4.6,0.8-7.6-1.4-9.3-5.6c-8.5-20.5-17.1-41.1-25.6-61.6
		c-7.4-17.8-14.7-35.6-22.1-53.4c-3.5-8.3,1.2-15.2,10.2-15c3.8,0.1,6.2,2.2,7.6,5.5c16.2,39.1,32.4,78.2,48.5,117.3
		C344.8,381.9,345,383,345.1,383.4z"/>
	<path class="st0" d="M418.5,289c19.5,0,39,0.1,58.4-0.1c4.2,0,5.7,1.4,5.4,5.5c-0.2,3-0.3,6,0,9c0.4,4.4-1.4,5.7-5.7,5.7
		c-27-0.2-53.9-0.1-80.9-0.1c-12,0-24-0.1-36,0.1c-4.1,0.1-5.8-1.3-5.5-5.5c0.2-3.1,0.2-6.3,0-9.5c-0.2-4,1.5-5.2,5.3-5.2
		C379.2,289,398.8,289,418.5,289z"/>
	<path class="st0" d="M378.1,373.5c0,5.5-0.1,11,0,16.4c0.1,2.3-0.5,3.3-3,3.2c-4.1-0.2-8.3,0-12.4-0.1c-5-0.2-8.2-3-8.4-8
		c-0.2-8-0.2-15.9,0-23.9c0.1-5,3.4-8,8.3-8c5-0.1,11.2-1.7,14.5,0.7c3.1,2.3,0.6,9,1,13.7C378.2,369.5,378.1,371.5,378.1,373.5z"/>
	<path class="st0" d="M223,258.3c0-6.3-3-9.2-9.1-9.3c-7-0.1-14,0-21,0c-7.1,0-9.9,2.8-9.9,10c0,20.7,0,41.3,0,62
		c0,20.8,0,41.6,0,62.5c0,6.5,2.9,9.5,9.4,9.5c7.2,0.1,14.3,0.1,21.5,0c6.1-0.1,9.1-3.2,9.1-9.3C223,341.9,223,300.1,223,258.3z
		 M210.1,292c-4.8,0-9.7,0-14.5,0c-3,0-4.6-1.6-4.6-4.6c0-6.3,0-12.7,0-19c0-2.8,1.6-4.3,4.4-4.3c5,0,10,0,15,0
		c3.1,0,4.6,1.6,4.6,4.6c0,3.2,0,6.3,0,9.5c0,3,0,6,0,9C215,290.4,213.4,292,210.1,292z"/>
	<path class="st0" d="M271,258.6c0-6.6-2.9-9.6-9.3-9.6c-7.3-0.1-14.7-0.1-22,0c-5.6,0.1-8.7,3.1-8.7,8.7c0,42.1,0,84.3,0,126.4
		c0,5.8,3.1,8.8,9,8.9c6.8,0.1,13.7,0,20.5,0c7.8,0,10.5-2.6,10.5-10.5c0-20.5,0-41,0-61.5C271,300.3,271,279.4,271,258.6z
		 M257.7,292c-4.5-0.1-9-0.1-13.5,0c-3.5,0.1-5.3-1.5-5.2-5.1c0.1-3.2,0-6.3,0-9.5c0-14.9-1.5-13.4,13.3-13.4
		c10.7,0,10.7,0,10.7,10.6c0,4-0.1,8,0,12C263.1,290.3,261.5,292.1,257.7,292z"/>
	<path class="st0" d="M175,277.2c0-5-3.2-8-8.1-8.2c-4.7-0.2-9.3-0.1-14,0c-7.1,0-9.8,2.8-9.8,10.1c0,17.3,0,34.6,0,52
		c0,17.5,0,35,0,52.5c0,6.5,3,9.4,9.4,9.5c4.7,0.1,9.3,0.1,14,0c5.3-0.1,8.5-3.1,8.6-8.3C175,348.8,175,313,175,277.2z M160.7,369
		c-1.7-0.2-3.3,0-5,0c-3,0-4.7-1.5-4.7-4.5c0-23.7,0-47.3,0-71c0-2.8,1.4-4.3,4.3-4.5c0.2,0,0.3,0,0.5,0
		c10.8-0.8,11.2-0.3,11.2,10.5c0,9.8,0,19.7,0,29.5c0,11.2-0.1,22.3,0.1,33.5C167.1,367.2,165.6,369.5,160.7,369z"/>
</g>
</svg>
