<?xml version="1.0" encoding="utf-8"?>
<!-- Generator: Adobe Illustrator 19.0.0, SVG Export Plug-In . SVG Version: 6.00 Build 0)  -->
<svg version="1.1" id="Calque_1" xmlns="http://www.w3.org/2000/svg" xmlns:xlink="http://www.w3.org/1999/xlink" x="0px" y="0px"
	 viewBox="0 0 612 792" style="enable-background:new 0 0 612 792;" xml:space="preserve">
<style type="text/css">
	.st0{fill:#4FC2F5;}
	.st1{fill:#80D2F8;}
	.st2{fill:#039AE3;}
	.st3{fill:#546D79;}
</style>
<g>
	<path class="st0" d="M52.2,559.1c-0.1-29.8-0.2-59.6-0.2-89.4c0-32,0-64,0-96c0-12.5,6.2-18.7,18.6-18.7c84.5,0,168.9,0,253.4,0
		c2.2,2.4,1.5,5.3,1.6,8.1c0.5,22.2,1.4,44.5,2.2,66.7c0.1,5-0.3,10-0.5,14.9c-1,29.2,23.8,62.3,58.4,66.2
		c25.7,2.9,47.9-12.9,55.8-31.9c0.8-1.8,1.5-3.7,2.7-5.3c8.2-8.1,15.9-16.9,25.2-23.8c2.3-1.7,4.5-3.3,7.1-4.5
		c6.5-3,10.2-1.8,14,4.6c2,14.1,1.9,28.2-1.8,42.1c-12.8,48.4-54.6,80.5-104.7,80.5c-103.1,0-206.2,0-309.3,0c-2.5,0-5,0.1-7.5-0.1
		C58.8,571.7,53.8,567.3,52.2,559.1z"/>
	<path class="st1" d="M326.8,430.9c-0.3-0.7-0.9-1.5-0.8-2.2c0.6-9.7-1.3-19.2-1.1-28.9c0.4-15-1.7-29.9-1-44.9
		c0-40.8,0.5-81.6-0.1-122.5c-0.7-39.4,27-73.8,65.3-82.4c29.2-6.6,56,0.3,79.5,18.3c25.8,19.8,39.1,46.7,39.3,79.3
		c0.4,70.1,0.2,140.3,0.2,210.4c0,1.3-0.2,2.6-0.3,4c-2.5-0.6-2-2.8-2.1-4.5c-1.1-25-11-46.3-28.5-63.7
		c-26.5-26.4-68.1-37.4-102.7-21.8c-23,10.3-37.9,28.1-45,52.4C328.8,426.8,328.8,429.3,326.8,430.9z"/>
	<path class="st2" d="M326.8,430.9c4.4-31.8,32.7-60.5,65.9-65.8c30.1-4.8,57,3.3,80.1,23.2c21.6,18.6,33.3,42.3,34.4,70.9
		c0,1,0.4,1.9,0.6,2.9c-1.2,45.7-22.9,79.6-60.5,103.9c-21.7,14.1-46,20.9-71.8,20.9c-101.9,0.2-203.9,0.1-305.8,0
		c-11.6,0-17.8-6.3-17.7-17.9c0-3.3,0.1-6.7,0.2-10c3.5,8.6,9.7,12,19.1,12c103.3-0.2,206.6-0.2,309.9,0c26.3,0.1,50-7,70.3-23.5
		c20.6-16.7,33.5-38.4,37.6-64.9c1.7-11.2,1.8-22.5,0-33.7c-4-9.3-5.9-19.4-11.5-28.1c-17.5-27.5-42.4-41.9-74.8-40.3
		c-41.2,2-66.2,40.3-59.3,74.7c4.3,21.3,25,38.7,46.7,39.3c21.6,0.6,41.9-20.7,39.6-41.3c-1.5-13.1-13.9-24.8-27.1-24.9
		c-11.5,0-22.6,12.2-21.1,23.2c0.8,5.6,3.9,9.5,9.3,11.3c4.6,1.5,8.9,0.9,12.4-2.8c1.9-2,3.4-4.2,2.5-7.2c-0.9-2.9-3.1-4.1-5.9-4.7
		c-6.7-1.5-9.8-5.5-8.8-11c1-5.5,6.2-8.4,12.8-7.3c17.5,2.9,26.1,22.5,16.7,38.5c-6.9,11.8-21,17.3-34,13.2
		c-23-7.2-31.7-34-17.7-54.6c9.5-14,27.4-20.3,43.5-15.5c25.1,7.4,40.3,31.9,35.2,56.3c-0.5,2.2-1.2,4.1-2.5,5.9
		c-5,13.7-13.2,25-26.3,31.8c-22.7,11.9-44.2,8.4-64.4-6c-15.6-11.1-24.7-26.7-27.8-45.4C325.1,446.6,325.3,438.7,326.8,430.9z"/>
	<path class="st3" d="M445,473.8c1.9-9.3,3.5-18.7,0.4-28c-6.5-19.5-20-31.5-40.3-34.2c-15-2-27.6,4.3-35.8,17.2
		c-7.7,12.2-9.2,25.2-0.6,38c9.9,14.6,27.3,19.1,41.4,10.7c8.8-5.2,14.3-16.8,12.7-27c-1.4-9.2-8.5-16.6-18.2-19
		c-6.6-1.6-11.7,0.8-12.6,6.1c-0.7,4.5,1.9,8.4,6.3,9.3c6.7,1.4,9.7,4.1,9.3,8.1c-0.5,5-6.9,10.3-12.5,10.1
		c-12.2-0.3-19.6-13.6-13.2-24.4c5-8.4,11.9-14.5,22.6-13.7c11.2,0.9,22.2,9.8,25.4,20.5c4.2,14-2.5,30.7-16,40.6
		c-18.1,13.4-40.9,7.6-55.5-5.2c-23.7-20.7-21.7-54-5.3-76.5c16.9-23.2,44.4-32.8,72.6-25.2c33.5,9,54.4,30.6,62.8,64.3
		c0.3,1.1,0.3,2.3,0.4,3.5c-4.5-4.8-6.8-5.3-12.7-2.1c-7.2,3.9-13.1,9.6-19,15.3C453.3,466,449.1,469.9,445,473.8z"/>
</g>
</svg>
