<?xml version="1.0" encoding="utf-8"?>
<!-- Generator: Adobe Illustrator 19.0.0, SVG Export Plug-In . SVG Version: 6.00 Build 0)  -->
<svg version="1.1" id="Calque_1" xmlns="http://www.w3.org/2000/svg" xmlns:xlink="http://www.w3.org/1999/xlink" x="0px" y="0px"
	 viewBox="0 0 612 792" style="enable-background:new 0 0 612 792;" xml:space="preserve">
<style type="text/css">
	.st0{fill:#434A54;}
</style>
<g>
	<path class="st0" d="M566,278c0,34.3,0,68.7,0,103c-1.7,11.1-5,12.8-16.7,13.2c-15,0.5-30,0.1-45,0.1c-141.6,0-283.2,0-424.9,0
		c-3.5,0-7,0-10.5,0C57.8,394.1,56,392.6,54,382c0-34.7,0-69.3,0-104c0.9-1.4,0.4-2.9,0.6-4.4c1.6-20,14.1-31.9,30.4-40.9
		c8.6-4.7,18.2-6.1,28-6.1c131.4,0,262.8,0,394.2,0c24.1,0,42,10.5,54.3,31.1c3.2,5.4,3.2,11.4,4.1,17.3
		C565.6,276.1,565.3,277.1,566,278z"/>
	<path class="st0" d="M565.4,413.6c-1-7.6-3.2-10.1-10.6-11.8c-3.8-0.9-7.6-1.1-11.4-1.1c-18.7,0-37.3,0-56,0
		c-137.1,0-274.2,0-411.4,0c-4.7,0-9.3,0-13.9,1.2c-4.2,1-6.6,3.5-7.4,7.8c-0.3,1.5,0.1,3-0.8,4.4c0,38.7,0,77.3,0,116
		c1.4,5.3,0.7,11.1,3.4,16c11.2,20.5,27.9,33.2,51.9,33.2c133.8,0.2,267.6,0.1,401.3,0.1c3.5,0,7-0.3,10.4-1
		c13.8-2.8,24.7-10.3,34-20.6c7.4-8.3,10.5-18,10.5-28.8c0-0.3,0.3-0.6,0.4-0.9c0-36.7,0-73.3,0-110
		C565.1,416.6,565.6,415.1,565.4,413.6z M351.6,438.8c-2.3,1-4.8,1.3-7.3,1.3c-11.5,0-23,0-34.5,0c0,0,0,0,0,0c-11.3,0-22.7,0-34,0
		c-3.2,0-6.3-0.5-9.1-2.2c-5.8-3.6-5.7-10.2,0.3-13.6c3-1.7,6.3-2.1,9.7-2.1c22.3,0,44.7,0,67,0c2.7,0,5.3,0.4,7.8,1.4
		c3.5,1.4,6.1,3.8,6,7.7C357.4,435.2,354.9,437.4,351.6,438.8z"/>
	<path class="st0" d="M310.4,154.9c16.7,0,33.3,0,50,0c16.5,0.1,28.6,11.5,29.1,27.9c0.3,11,0,22,0.2,33c0.1,4.2-1.7,5.5-5.7,5.4
		c-6.2-0.2-12.3-0.3-18.5,0c-4.1,0.2-5.7-1.2-5.5-5.4c0.2-8.7-0.1-17.3,0.1-26c0.1-4.2-1.7-5.6-5.7-5.6c-29.5,0.1-59,0.1-88.5,0
		c-4.6,0-6.2,1.7-6,6.3c0.3,8.5-0.1,17,0.1,25.5c0.1,3.9-1.4,5.4-5.3,5.2c-6.5-0.2-13-0.2-19.5,0c-3.1,0.1-4.9-0.9-4.8-4.2
		c0.2-12.8-0.9-25.7,0.5-38.5c1.5-13,13.2-23.3,26.4-23.5C275.1,154.8,292.7,155,310.4,154.9C310.4,155,310.4,154.9,310.4,154.9z"/>
</g>
</svg>
