<?xml version="1.0" encoding="utf-8"?>
<!-- Generator: Adobe Illustrator 19.0.0, SVG Export Plug-In . SVG Version: 6.00 Build 0)  -->
<svg version="1.1" id="Calque_1" xmlns="http://www.w3.org/2000/svg" xmlns:xlink="http://www.w3.org/1999/xlink" x="0px" y="0px"
	 viewBox="0 0 612 792" style="enable-background:new 0 0 612 792;" xml:space="preserve">
<style type="text/css">
	.st0{fill:#434A54;}
</style>
<g>
	<path class="st0" d="M264,647c-1.2-0.8-2.4-1.6-3.6-2.4c-4-3.1-4.4-6.3-1.3-10.3c4.9-6.3,9.9-12.6,15-18.7c2-2.4,2.2-4.2-0.5-6.1
		c-4.1-2.9-6.5-7.1-8.7-11.4c-2.6-4.8-5.1-9.7-8.9-13.8c-2.2-2.3-2.3-4.9-1.1-7.9c2.4-5.7,6-10.3,10.5-14.4c3.8-3.4,8-1.8,11.8-0.5
		c8,2.7,15.9,3,24.1,1.5c6.3-1.2,12.3-2.8,17.5-6.7c1.7-1.3,4-2.5,5.3-0.6c2.9,4.1,4.1,1,5.6-0.9c51.8-62.7,103.5-125.3,155.3-188
		c1.7-2,3.5-4,6.1-6.9c-0.6,4-2.5,5.7-4,7.7c-50.7,67.7-101.5,135.4-152.3,203c-2.2,3-4.6,5.7-3,9.8c0.3,0.9,0.3,2.2-0.2,2.9
		c-4.1,6.4-6.6,13.9-13.1,18.5c-1,0.7-1.6,1.6-2,2.7c-0.4,1.1-0.6,2.7-1.4,3.1c-8,3.4-11.1,14.9-22.2,13.4c-2.4-0.3-3.7,1.9-5,3.6
		c-5.6,7.4-11.2,14.8-16.9,22.2C268.7,647,266.3,647,264,647z"/>
	<path class="st0" d="M389.9,561.4c-11.5,0-23,0-34.4,0c-1.9,0-4.3,0.8-5.4-1.5c-0.9-1.9,0.9-3.4,1.9-4.8
		c21.2-28.3,42.5-56.7,63.7-85c0.3-0.4,0.6-0.8,0.9-1.2c1.1-1.1,2-3.2,3.9-2.6c1.5,0.4,1.5,2.4,1.7,3.9c1.9,14.3,3.9,28.7,5.7,43
		c1.6,13,3,26.1,4.6,39.1c0.8,6.5-1.2,9.1-7.7,9.1C413.2,561.4,401.6,561.4,389.9,561.4z"/>
	<path class="st0" d="M416.6,439.2c-4.8-21.7-13-41.2-32.1-54.5c-11.6-8.1-23.9-15.1-35.9-22.6c-14.8-9.4-16.3-6-15.4-25.7
		c0.2-4.2-2.1-5.7-5.6-3.7c-9.2,5-19.2,6.5-29.4,6.9c-12.2,0.4-24.3-0.4-35.6-5.8c-6.5-3.2-8.1-2.4-7.7,4.8
		c0.4,6.4-1.7,10.6-7.6,13.7c-12.3,6.6-24,14.3-36.5,20.7c-25,12.8-40.6,33-49,59.5c-9.3,29.2-15.2,59.2-21.3,89.2
		c-1.5,7.4,0.1,13.1,6.2,17.6c2.1,1.6,4.1,3.4,6.4,4.7c25.4,14.5,50.9,28.9,76.4,43.2c7.5,4.2,10.1,3.6,14-3.9
		c5.3-10.1,11.6-19.5,19.5-27.6c3.2-3.3,2.8-6.1-0.8-8.7c-1.5-1.1-2.9-2.2-4.4-3.3c-17.4-12.9-34.8-25.8-52.2-38.6
		c-1.7-1.3-4.1-2.5-3.6-5c1.6-7.9,4-15.5,7.4-23.8c1.5,2.9,1.1,4.8,1,6.7c-0.3,4.3-0.4,8.7-0.7,13c-0.2,3.2,1.1,5.3,3.7,7.1
		c18.8,13.6,37.4,27.2,56.2,40.8c4.3,3.1,8.9,5,14.2,5.6c9.8,1,19.6,1.3,29.3,3.3c4.4,0.9,9.1-2.6,14-1.7c0.4,0.1,1.2-1,1.7-1.7
		c28.5-34.6,57-69.1,85.6-103.7C415.9,443.7,417.2,441.7,416.6,439.2z M279.4,488.8c-1.2,0.4-1.8-0.7-2.4-1.4c-2-2.6-4.1-5.3-5.9-8
		c-9.4-14-18.5-28-28-41.9c-2.8-4.1-2.6-7.1,1.1-10.4c3.5-3.1,6.7-6.5,9.9-9.9c3.2-3.3,2.8-4.4-1.5-5.4c-7.3-1.6-14.6-3.2-21.8-5.3
		c-4-1.2-4.5-3-2.6-6.5c6.9-12.9,13.7-25.9,20.5-38.8c0.7-1.4,1.2-3.5,3.3-3.1c1.7,0.4,1.6,2.3,1.9,3.7c6.9,32.3,13.9,64.7,20.8,97
		c1.9,9.1,3.8,18.2,5.6,26.6C280,487.1,280.7,488.3,279.4,488.8z M349.8,409.2c-7.5,1.4-15.1,2.5-22.7,2.8c-1.5,0.1-3.2-0.1-3.9,1.6
		c-0.6,1.4,0.6,2.5,1.4,3.5c3.3,4.2,6.6,8.4,10,12.5c2.1,2.6,2.3,5,0.1,7.6c-13,15.4-26,30.7-39.1,46c-1,1.2-2,2.7-4.3,2.6
		c-0.9-2.9,0.4-5.5,1.3-8.1c12.8-38.6,25.7-77.2,38.6-115.7c0.4-1.3,0.6-3.3,2.5-3.2c1.8,0.1,2.1,1.9,2.6,3.3
		c5.5,13.9,10.9,27.8,16.3,41.7C353.8,406.8,353.2,408.6,349.8,409.2z"/>
	<path class="st0" d="M319.9,267.2c-2.7,0-5.3,0-8,0c-7.9,0-10.1-1.4-12.9-8.9c-1-2.6-2.8-3.1-5-3.1c-2.2,0-3.5,0.8-4.4,3.2
		c-2.5,7.1-5.1,8.8-12.5,8.9c-6.3,0-12.7,0.1-19,0c-5.9-0.1-8.8-3.1-9-9c-0.1-2.2-0.1-4.3,0-6.5c0.2-5.9,3-8.9,8.9-9
		c7-0.1,14,0,21,0c4.2,0,7.2,1.8,9.2,5.6c2.2,4.1,9.8,4.1,12,0c2-3.8,5-5.6,9.2-5.6c7.2,0,14.3-0.1,21.5,0c5.1,0.1,8.1,3.1,8.3,8.1
		c0.4,11.9,1.4,17.6-15.4,16.5C322.5,267.1,321.2,267.2,319.9,267.2z"/>
	<path class="st0" d="M352.9,205.4c-5-17.6-14.2-31.9-32.6-38.2c-6.4-2.2-6.4-2.1-3.1-7.7c5.9-9.8,3-18.2-7.7-22.3
		c-2.1-0.8-4.3-1.5-6.5-2.2c-4.3,0-8.7,0-13,0c-0.6,0.3-1.1,0.8-1.7,0.9c-12.2,2.3-21.1,11.4-11.3,26c2.1,3.2,0.4,3.9-2.4,4.6
		c-20.7,5.2-33.8,18.8-40.6,38.4c-9.5,27.4-6.4,54.4,4.7,80.8c0.5,1.3,0.9,3,3,2.7c1.3-4.6-1.6-9.2-0.1-14.8
		c2.5,4.3,4.4,7.8,6.5,11.2c8.8,13.9,18.9,26.6,32.8,35.8c8.8,5.9,17.8,5.7,26.7-0.1c2.6-1.7,5.2-3.6,7.6-5.7
		c14.1-12.4,24.6-27.4,32.9-44.2c0.8-1.6,0.9-4,3.5-4.3c2.4,5.2,0.2,11.4,3.3,17.4c2.8-6.7,2.1-12.8,2.5-18.6
		C358.8,244.8,358.4,224.8,352.9,205.4z M346.3,264.3c-8.7,16.4-17.9,32.3-31.8,44.9c-2.5,2.2-5.1,4.3-7.9,6.1
		c-8.4,5.5-16.9,5.5-25.2-0.2c-16.1-11.2-27-26.8-35.8-44c-6.5-12.7-4.4-27.6,5.1-38.3c6.8-7.7,15.7-10.2,25.6-9.9
		c9.9,0.6,19.8,2.2,29.9,1.3c8.4-0.7,15.5-3.7,20.4-10.8c2.4-3.6,4.8-3.1,7.8-0.7C345.4,221.7,354.6,248.7,346.3,264.3z"/>
</g>
</svg>
