<?xml version="1.0" encoding="utf-8"?>
<!-- Generator: Adobe Illustrator 19.0.0, SVG Export Plug-In . SVG Version: 6.00 Build 0)  -->
<svg version="1.1" id="Calque_1" xmlns="http://www.w3.org/2000/svg" xmlns:xlink="http://www.w3.org/1999/xlink" x="0px" y="0px"
	 viewBox="0 0 612 792" style="enable-background:new 0 0 612 792;" xml:space="preserve">
<g>
	<path d="M399,145c3.9,3.7,3.3,8.4,2.7,13c-0.4,3.5-3.4,4.1-6.4,4.1c-11.7,0-23.3,0-35,0c-67.3,0-134.6,0-201.9,0
		c-6.5,0-6.9,0.4-6.9,6.7c0,30,0.1,60-0.1,90c0,2.4-1.1,6-2.9,7c-4.1,2.4-7.3-0.4-7.3-5.8c0-30.2,0.1-60.3-0.1-90.5
		c0-2.7-1.3-5.6-2.7-7.9c-2.7-4.2-1.5-13.2,2.7-16.6C227,145,313,145,399,145z"/>
	<path d="M167,657c-0.9-1.6-2.1-3.1-2.6-4.8c-6.8-22.6-18-43.3-28.6-64.2c-5.3-10.4-5.2-10.2,6.1-13.1c7.4-1.9,14.5-4.7,21.6-7.6
		c4.1-1.7,6.8-1.2,9.6,2.1c15.4,18.7,27.4,39.2,35.9,61.9c0.7,1.8,0.7,3.9,1,5.9c-0.4,0.3-0.8,0.5-1.2,0.8c-2-1.3-4.1-2.5-6.1-3.8
		c-7.6-4.5-15-9.2-22.7-13.4c-4.6-2.4-5.7-1.3-6.2,3.9c-0.8,8.1-1.6,16.2-2.8,24.3c-0.4,2.7-1.8,5.3-2.8,7.9
		C167.7,657,167.3,657,167,657z"/>
	<path d="M212.5,379.7c-1.5,2.6-3.3,5.1-4.4,7.9c-3.5,8.8-6.6,17.8-10.1,26.6c-2.5,6.4-4.2,6.9-9.1,2c-10-9.8-21.5-17.2-34.5-22.4
		c-7.4-3-8.6-5.5-5.8-13.2c7.1-19.5,14.4-39,21.7-58.5c2.4-6.3,7.4-8.4,13.9-8.4c27.8,0.1,55.6,0,83.5,0c28.8,0,57.6,0,86.5,0
		c9.3,0,12.1,2,15.3,10.5c5.1,13.7,10.2,27.4,15.3,41.1c0.3,0.9,0.7,1.9,1,2.8c2.2,6.6,1.4,7.8-5.4,7.8c-13.3,0.1-26.7,0-40,0.1
		c-5.5,0.1-11.1,0-16.4,1.1c-18.1,3.7-31.1,19.8-31.2,38.3c-0.1,18.7,0,37.3,0,56c0,6.2-1.7,8-8,8c-20.3,0-40.7,0-61,0
		c-6,0-7.7-1.7-7.7-7.7c0-26.7,0-53.3-0.1-80c0-4-0.9-7.9-1.4-11.9C213.9,379.9,213.2,379.8,212.5,379.7z"/>
	<path d="M307.3,519c0-32.3,0-64.6,0-97c0-18.6,12.4-30.9,31-30.9c46.3,0,92.6,0,139,0c13.2,0,24,7.9,27.8,20.3
		c1,3.3,1.5,6.9,1.5,10.3c0.1,65.1,0.1,130.3,0.1,195.4c0,19.4-12.5,31.7-32.1,31.7c-45.5,0-91,0-136.5,0
		c-18.1,0-30.8-12.6-30.9-30.8C307.2,585,307.3,552,307.3,519C307.3,519,307.3,519,307.3,519z M332.7,517c0,27.8,0,55.7,0,83.5
		c0,8.2,2.8,11.1,11.1,11.1c42,0,84,0,126,0c9.1,0,11.5-2.6,11.5-11.7c0-55.2,0-110.3,0-165.5c0-8-2.8-10.8-10.9-10.8
		c-42.2,0-84.3,0-126.5,0c-8.7,0-11.3,2.7-11.3,11.4C332.7,462.3,332.7,489.7,332.7,517z M406.9,621c-5.2,0.1-9.9,4.8-10,9.9
		c-0.1,5.4,4.8,10.2,10.2,10.2c5.2-0.1,9.9-4.7,10-9.9C417.2,625.8,412.3,620.9,406.9,621z"/>
	<path d="M121.6,562.8c-43.9,0.2-80.2-36-80.3-80c-0.1-44,36.1-80.3,80-80.3c44,0,80,35.6,80.3,79.4
		C202,526.2,166,562.5,121.6,562.8z M121.3,535.2c29.1,0,52.8-23.7,52.7-52.7c-0.1-28.6-24-52.5-52.7-52.4
		c-28.8,0.1-52.5,23.8-52.5,52.5C68.9,511.4,92.5,535.1,121.3,535.2z"/>
	<path d="M269.5,215.8c-17.5,0-35,0-52.4,0c-5.8,0-6.7-1.1-6.7-7.2c0-6.1,1.1-7.4,6.6-7.4c28,0,55.9,0,83.9,0c2.7,0,5.5,0.3,6-3.6
		c0.5-4.2-0.9-5.8-5.7-5.8c-22.8,0-45.6,0-68.4,0c-3.5,0-7-0.1-10.5,0c-3.8,0.1-5.5-1.8-5.4-5.5c0.1-3.2,0.2-6.3,0-9.5
		c-0.2-4.3,1.7-5.9,5.9-5.9c17.1,0.1,34.3,0,51.4,0c13.8,0,27.6,0.2,41.5-0.1c4.8-0.1,6.6,1.7,6.4,6.4c-0.2,5.8-0.4,11.7,0.1,17.5
		c0.2,2.3,1.6,5.1,3.4,6.4c4.5,3.2,3.1,7.5,2.6,11.3c-0.4,3.8-4,3.3-6.8,3.3C304.2,215.8,286.8,215.8,269.5,215.8z"/>
	<path d="M270.4,232c1.7,4.4,3.7,8.7,5.1,13.2c1.6,5.3,4.9,7.4,10.4,7.1c7.5-0.3,15-0.1,22.5-0.1c5.8,0,6.8,1.2,5.3,6.9
		c-4.5,17.7-15.6,29-33.5,33.3c-24.8,5.9-48.1-8.3-54.5-33c-1.6-6.1-0.7-7.2,5.4-7.2c7.8,0,15.7-0.1,23.5,0c4.7,0.1,7.4-1.9,8.9-6.3
		c1.6-4.8,3.5-9.4,5.3-14.1C269.3,231.9,269.8,232,270.4,232z"/>
	<path d="M82.6,632.4c0-4.6,0.1-9.2,0-13.8c0-3-0.3-6-0.4-9c-0.3-5.9-1.2-6.3-7.1-5.7c-6.8,0.6-13.6,0.7-20.4,0.9
		c-1.5,0-3-0.7-5.9-1.4c2.4-2.4,4-3.9,5.6-5.4c8.5-8.2,17.1-16.3,25.4-24.6c2.4-2.4,4.4-3.3,7.9-2.4c9.1,2.3,18.4,4.3,27.7,6.1
		c4.5,0.9,6,2.5,4.2,6.9c-2,5.1-4.1,10.4-7.2,14.7c-7.7,10.6-16,20.8-24.2,31.1c-1,1.2-2.5,2.1-3.7,3.1
		C83.9,632.8,83.2,632.6,82.6,632.4z"/>
	<path d="M244.8,225.1c3.5,0,7,0,10.4,0c3.3,0,4.1,1.5,3,4.4c-1.1,2.9-1.9,6.1-3.4,8.8c-0.9,1.6-3.1,3.4-4.8,3.4
		c-7.1,0.4-14.3,0.1-21.4,0.2c-2.8,0-3.9-1.3-3.3-4.1c0-0.2,0.1-0.3,0.2-0.5c2.4-11.1,4-12.4,15.2-12.3
		C242.2,225,243.5,225,244.8,225.1C244.8,225,244.8,225,244.8,225.1z"/>
	<path d="M299.5,241.9c-0.8,0-1.7,0-2.5,0c-12.7-0.1-13.2-0.6-16.3-12.8c-0.8-3.1,0.3-4,3.1-4c7.1,0,14.3-0.2,21.4,0.1
		c1.7,0.1,3.4,1.6,4.8,2.8c0.8,0.7,1.2,2,1.6,3.1c4.2,9.9,3.6,10.8-7,10.9C302.9,241.9,301.2,241.9,299.5,241.9z"/>
	<path d="M146.4,296.2c-6.6,0-11.2-4.9-11.2-11.9c0-7.1,4.6-12.1,11-12.2c6.5-0.1,11.2,4.9,11.4,11.9
		C157.7,291,152.9,296.2,146.4,296.2z"/>
	<path d="M99.8,473.1c9.6-8.3,19.3-16.6,29.8-25.7c0.4,3.5,1,6,1,8.6c0.1,11.8,0.2,23.6,0,35.4c-0.1,4.5,1.4,6.6,6,6.1
		c1.5-0.1,3,0,4.5,0c2.7,0,3.8,1.3,3.8,4c-0.2,14.8,1.6,12-11.5,12.2c-9.1,0.1-18.3-0.1-27.5,0.1c-3.7,0.1-5.3-1.3-4.8-5
		c0.1-0.7,0-1.3,0-2c0.1-8.7-1.8-9.9,8.8-9.5c3.9,0.2,5.3-1.8,5.2-5.5c-0.1-3.3-0.1-6.7,0-10c0.1-4.5-1.7-6.8-6.5-6.7
		c-2.7,0.1-5.5-0.5-8.2-0.7C100.2,474.2,100,473.7,99.8,473.1z"/>
</g>
</svg>
