<?xml version="1.0" encoding="utf-8"?>
<!-- Generator: Adobe Illustrator 19.0.0, SVG Export Plug-In . SVG Version: 6.00 Build 0)  -->
<svg version="1.1" id="Calque_1" xmlns="http://www.w3.org/2000/svg" xmlns:xlink="http://www.w3.org/1999/xlink" x="0px" y="0px"
	 viewBox="0 0 612 792" style="enable-background:new 0 0 612 792;" xml:space="preserve">
<style type="text/css">
	.st0{fill:#434A54;}
</style>
<g>
	<path class="st0" d="M565,171c-2.6,3.1-5.9,4.1-10,4.1c-52-0.1-104-0.1-156-0.1c-3.3,0-6.7-0.1-10,0.2c-4.9,0.4-6.4,2.3-5.8,7.3
		c2,16.4,4.1,32.7,6.1,49c1.8,14.2,3.7,28.4,5.4,42.6c0.9,7.1-0.6,8.8-7.7,8.8c-52.3,0.1-104.6,0-157,0c-6.1,0-7.4-1.5-7.1-7.5
		c0.3-4.3,0.9-8.6,1.6-12.9c1-6.6,2.6-7.9,9.1-8c20.7,0,41.3,0,62,0c6.8,0,13.7,0,20.5,0c5.8,0,9.2-2.8,10.7-8.4
		c0.6-2.4,0-4-2.7-4.2c-2.5-0.2-5-0.3-7.5-0.3c-25.8,0-51.7,0-77.5,0c-1.3,0-2.7,0-4,0c-7.2-0.3-8-1.2-7.1-8.4
		c2-16.2,4.1-32.4,6.1-48.6c1-8.2-0.2-9.6-8.8-9.6c-43.3,0-86.7,0-130,0c-11,0-22-0.2-33,0.1c-4,0.1-7.1-1-9.5-4.1
		c0-9.3,0-18.7,0-28c1.6-3.9,4.7-5.4,8.7-5.5c2.2-0.1,4.3-0.1,6.5-0.1c160.5,0,321,0,481.5,0c2.2,0,4.3,0,6.5,0.1
		c4.4,0.2,7.8,1.9,8.8,6.6C565,153,565,162,565,171z"/>
	<path class="st0" d="M318.7,514.1c37.2,0,74.3,0,111.5,0c2.8,0,6.4-0.7,7.3,2.8c1,3.9,1.5,8.2-0.4,12.2c-0.9,1.8-3,1.9-4.9,1.9
		c-11.5,0.2-22.9,2.1-34.2,4c-1.1,0.2-2.3,0.6-3.4,0.9c-0.8,0.2-1.7,0.7-1.7,1.6c0,1.2,1.1,1.6,2,1.7c2.8,0.4,5.6,0.8,8.4,1.1
		c8.8,1,17.6,1.7,26.4,1.8c2.7,0,6.5-1.3,7.2,3.2c0.7,4.8-2.7,9.8-7,10.5c-4.8,0.8-9.5,1.4-14.3,2.1c-1.7,0.3-4.4,0.3-4.3,2.4
		c0.1,2.1,2.8,2,4.5,2.2c5.1,0.7,10.3,1.1,15.4,1.6c5.1,0.5,5.9,1.7,4,6.3c-3.6,8.9-3.6,8.9-13.1,8.9c-71.1,0-142.3,0-213.4,0
		c-2.5,0-5.1,0.2-7.4-0.6c-3.6-1.3-5.3-4.3-5.2-8.2c0-15.5,0-31,0-46.5c0-7,3-9.9,10.2-9.9c31.3,0,62.6,0,94,0
		C306.4,514.1,312.6,514.1,318.7,514.1z"/>
	<path class="st0" d="M315,490.9c45.2,0,90.3,0,135.5,0c6.5,0,8.8,1.9,8.8,7.3c0,5.4-2.4,7.5-8.7,7.5c-83.8,0-167.6,0-251.4,0
		c-9.5,0-11.7,2.1-11.6,11.8c0,19.5,0,39,0,58.5c0,9.9,2.2,11.9,12.1,11.9c83.8,0,167.6,0,251.5,0c6.3,0,8.7,2.5,8.2,8.3
		c-0.4,4.7-2.5,6.5-8.2,6.5c-29.5,0-59,0-88.5,0c-58.7,0-117.3,0-176,0c-18.5,0-26.4-5.1-32.5-22.5c-7.7-22.1-7.4-44.4-0.2-66.7
		c1.3-4,3.2-7.7,5.5-11.1c5.2-7.7,12-11.7,21.7-11.7C225.7,491,270.3,490.9,315,490.9z"/>
	<path class="st0" d="M298.5,382.3c23.3,0,46.7,0.3,70-0.1c16.9-0.3,26.1,6.7,31.9,22c7.1,18.7,6.8,37.5-1.4,55.9
		c-5.4,12.2-14.7,18.7-28.6,18.6c-49-0.2-98-0.1-147-0.1c-6,0-8.3-1.8-8.6-6.6c-0.3-5.6,2.1-8.1,8-8.1c28.2,0,56.3,0,84.5,0
		c18.8,0,37.7,0,56.5,0c8,0,9.9-1.9,9.9-10.1c0-15.5,0-31,0-46.5c0-8-2.1-10.1-10-10.1c-47,0-94,0-141,0c-5.9,0-8.1-2.1-8-7.6
		c0.1-4.9,2.3-7.1,7.6-7.1c15-0.1,30,0,45-0.1C277.8,382.3,288.2,382.3,298.5,382.3z"/>
	<path class="st0" d="M317,370.1c-26,0-52-0.2-78,0.1c-9.7,0.1-16.4-3.9-20.3-12.4c-7.6-16.5-7.5-33.3-0.2-49.8
		c3.8-8.6,10.6-12.9,20.6-12.9c53.1,0.2,106.3,0.1,159.4,0.1c6.1,0,8.6,2.4,8.4,7.8c-0.2,5.1-2.4,7.1-8.1,7.1c-28,0-56,0-84,0
		c-23.5,0-47,0-70.5,0c-7.2,0-9.5,2.4-9.5,9.6c0,8.7,0,17.3,0,26c0,7.4,2.1,9.4,9.5,9.4c51.3,0,102.6,0,153.9,0c5.8,0,8.3,2,8.6,6.7
		c0.4,5.4-2.3,8.1-8.1,8.1C371.6,370.1,344.3,370.1,317,370.1z"/>
	<path class="st0" d="M272.6,442.8c-5.9-3.6-11.9-3.7-17.6-4.7c-6.2-1.1-12.5-1.6-18.8-2.4c-4.9-0.6-5-1.1-2.4-5.5
		c1.7-2.9,3.8-4.4,7.3-4.1c1.6,0.2,3.3,0,5-0.1c0.9,0,1.8-0.3,2-1.2c0.3-1.2-0.7-1.9-1.6-2.1c-3.1-0.7-6.2-1.5-9.3-1.7
		c-4.4-0.3-6.6-1.9-5.4-6.6c0.3-1.1,0.4-2.3,0.3-3.5c-0.2-4,1.7-5.2,5.5-5.1c15,0.1,30,0,45,0c25.2,0,50.3,0,75.5,0
		c6.6,0,7.1,0.5,7.2,7.1c0,2.8,0,5.7,0,8.5c0.1,4.1-2.1,5.6-6,5.3c-15.8-1.5-31.6-2-47.4-0.9c-1,0.1-2,0.1-3,0.2
		c-1.5,0.1-3.5,0.1-3.7,1.8c-0.2,1.8,1.9,2,3.3,2.2c11.6,2.2,23.3,3.9,35.1,4.9c5.6,0.5,11.3,1,16.9,1.2c4.1,0.2,4.9,2.3,4.8,5.9
		c-0.1,3.9-2.2,4.3-5.2,4.1c-13.5-0.7-27-0.6-40.5-0.1c-2.1,0.1-5.5-0.1-5.5,2.1c0,2.7,3.3,1.8,5.3,1.9c12.8,0.5,25.6,0.8,38.4,1.3
		c1.8,0.1,3.6,0.4,5.4,0.7c0.9,0.1,1.8,0.7,1.6,1.5c-0.1,0.6-1.1,1.2-1.8,1.4c-1.3,0.3-2.6,0.2-4,0.2c-39.6,0-79.3,0-118.9,0
		c-5.1,0-8.8-4.7-7.8-9.6c0.6-2.5,2.7-1.6,4.1-1.5c9.5,1,18.9,1.1,28.4,0.7C267.2,444.7,269.6,444.5,272.6,442.8z"/>
	<path class="st0" d="M321,346.7c-22.8,0-45.6,0-68.4,0c-7.5,0-8.8-1.3-8.8-8.6c0-4.2,0-8.3,0-12.5c-0.1-4.5,2-6.7,6.6-6.7
		c46.8,0,93.6,0,140.4,0.1c1.1,0,3.1-0.8,3.2,1.2c0.1,2.2-2,1.7-3.4,1.8c-4.5,0.1-9,0.1-13.5,0.2c-1.8,0-4.3-0.1-4.4,2
		c-0.1,1.9,2.4,1.9,4,2.1c4.6,0.7,9.2,1.2,13.8,2.1c1.5,0.3,4.4-0.4,4,2.4c-0.3,2.3-2.7,1.4-4.2,1.3c-6.2-0.2-12.3-0.9-18.5-0.3
		c-1.2,0.1-3.1-0.2-3,1.7c0,1.3,1.5,1.6,2.7,1.8c6.8,1.6,13.8,2.1,20.8,2.6c3.3,0.2,5.5,0.9,5.3,4.8c-0.2,3.8-2.6,4.1-5.5,4
		C368.3,346.7,344.7,346.7,321,346.7z"/>
	<path class="st0" d="M528.4,290c0-29.3,0-58.6,0-88c0-5.9,1.1-7,6.9-7.1c8.6,0,9.6,0.6,9.6,7c0,58.8,0,117.6,0,176.4
		c0,5.7-1.1,6.7-6.7,6.7c-1,0-2,0-3,0c-5.6-0.1-6.8-1.1-6.8-6.6c0-20.3,0-40.7,0-61C528.4,308.3,528.4,299.2,528.4,290z"/>
	<path class="st0" d="M555.1,421.9c0,14.3-7.3,21.9-20.4,21.2c-8-0.5-13.8-5.2-15.8-13.5c-2.5-10.6-0.4-20.6,6.1-29.3
		c6.8-9.2,16.9-8.8,23.6,0.5C552.8,406.5,555.1,414.2,555.1,421.9z"/>
</g>
</svg>
