<?xml version="1.0" encoding="utf-8"?>
<!-- Generator: Adobe Illustrator 19.0.0, SVG Export Plug-In . SVG Version: 6.00 Build 0)  -->
<svg version="1.1" id="Calque_1" xmlns="http://www.w3.org/2000/svg" xmlns:xlink="http://www.w3.org/1999/xlink" x="0px" y="0px"
	 viewBox="0 0 612 792" style="enable-background:new 0 0 612 792;" xml:space="preserve">
<style type="text/css">
	.st0{fill:#434A54;}
	.st1{fill:#454C55;}
</style>
<g>
	<path class="st0" d="M521.3,295.8c-4.9-34.3-16.3-66.1-34.4-95.6c-15.2-24.8-34.4-46.2-57.3-64c-9.3-7.3-18.3-15.6-30.6-18.2
		c-2.3,0-4.7,0-7,0c-4.9,1.1-8.1,4.1-10,8.7c-2.7,6.3-6.4,12.1-9.5,18.1c-4.2,8.1-7.8,9.3-16.2,5.7c-6.7-2.9-13.5-5.6-20.5-7.7
		c-22.3-6.7-45-9.7-68.4-8.2c-13.5,0.8-26.8,2.6-39.9,6.1c-26.2,7-50,19-71.2,36c-26.5,21.3-46.5,47.5-59.4,78.9
		c-12.5,30.5-16.4,62.2-13.2,95c2.8,29,12,55.9,27.2,80.7c16.1,26.4,37.5,47.8,63.8,64.3c7.7,4.9,8.4,7.8,4.4,16.1
		c-3.6,7.5-8,14.6-11.5,22.2c-3.6,7.8-1.1,15,6.3,18.5c9.9,4.7,20.2,8.6,30.7,11.9c15.9,5,32.3,8.1,48.8,10c2.7,0.3,5.4,0.9,6.9,3.4
		c3.3,5.7,3.3,11.9,1.1,17.8c-2,5.5-7.2,5.1-11.9,5.1c-32.7,0-65.3,0-98,0c-2.8,0-5.7-0.1-8.5,0.2c-6.5,0.6-9.9,4.2-10.3,10.6
		c-0.2,2.8-0.1,5.7-0.1,8.5c0.1,7.1,0.5,7.6,7.2,10c92,0,184,0,276,0c6.5-2.3,7-3,7.2-10.1c0.1-2.5,0.1-5,0-7.5
		c-0.3-7.4-4-11.2-11.5-11.6c-3-0.2-6-0.1-9-0.1c-33.2,0-66.3,0.1-99.5-0.1c-5.9,0-8.7-2.5-9.7-8c-1.6-9,0.4-15.7,5.4-17.7
		c1.3-0.5,2.6-0.6,3.9-0.7c4-0.5,7.9-0.9,11.9-1.5c28.5-4.5,55.6-13.5,80.9-27.4c17.6-9.7,33.9-21.2,48.5-34.9
		c24.9-23.2,44.6-50.1,58.4-81.4c12-27.1,19-55.4,20.5-84.9C523.9,328,523.6,311.9,521.3,295.8z M116.7,373.2
		c-26-95.4,36.8-192.8,134.4-208.4c25.2-4,50.1-2.6,74.6,4.8c1.7,0.5,3.9,0.5,4.3,2.8c0.4,2.4-1.7,3-3.3,3.8
		c-17.3,9.9-34.7,19.8-52,29.7c-3.2,1.8-6.7,2.9-10.4,3.1c-9.5,0.6-18.9,1.5-28.4,1.9c-5,0.2-7.3,2.1-8.1,7.3
		c-2.2,16.3-4.8,32.5-13,47.3c-2.9,5.2-5.6,9.5-11.4,11.6c-4,1.4-4.9,13.8-1.5,16c3,2,13.9,0,16.2-3c4.2-5.4,8.4-10.8,12.3-16.4
		c2-2.8,4.3-3.4,7.3-2.7c6.8,1.6,13.6,3.2,20.3,5c1.7,0.5,3.4,1.4,4.8,2.6c5,4.4,9.9,9,14.7,13.5c1.6,1.5,2.6,3.1-0.7,3.7
		c-6.7,1.3-13.4,2.5-20.1,3.6c-2.7,0.4-4.7-1.4-6.7-2.8c-15.4-10.4-8.7-9.2-25.8-2.6c-15.1,5.8-24,15-26.4,31.2
		c-1,7-3.8,13.8-6,20.5c-1.2,3.7-0.6,6.7,1.6,9.8c4.7,6.6,9.3,13.4,13.8,20.2c2.2,3.4,4.6,4.6,8.8,3.6c8.2-2.1,16.5-3.7,24.9-5.4
		c6.8-1.4,7.1-1.2,9.4,5.3c8,22.9,15.9,45.8,23.9,68.7c2.3,6.6,4.6,13.2,7,19.7c0.4,1.1,0.7,2.5,1.9,2.7c1.7,0.4,2.1-1.4,2.7-2.4
		c9.2-16.4,18.5-32.7,27.5-49.2c3.8-6.9,3.5-14.8,4.6-22.4c2.1-14.7,3.9-29.4,5.8-44.1c0.8-5.9-0.2-7.3-5.9-6.4
		c-5.9,1-9.2-1.2-12-6.3c-5-9.2-10.6-18.1-15.9-27.1c-0.6-1.1-1.9-1.9-1.2-3.9c6.9,7.7,13.6,15.3,20.4,22.8
		c4.9,5.4,5.9,5.3,10.1-0.4c5.1-7,10.1-14,15.4-20.9c2.5-3.3,2-5.2-1.7-6.8c-5.6-2.4-11.1-5-16.4-8.5c10.7,1.9,21.4,3.7,32.1,5.7
		c3.8,0.7,5.8,3.6,7.6,6.8c6.3,11,12.5,22,18.9,32.9c1,1.8,1.6,4.8,4,4.4c2-0.3,1.9-3.2,2.4-5.1c3.1-11.7,6.1-23.5,9.3-35.2
		c1.5-5.5,2.5-5.8,6.9-2.2c8.8,7.1,17.5,14.4,26.3,21.5c1.8,1.4,3.5,4.1,5.8,3.3c2.8-1,1.9-4.4,2.1-6.7c0.9-8,2.3-15.8,4-23.6
		c0.4-1.8,0.5-3.8,3.1-3.7c2.3,0.1,2.4,2,2.7,3.6c2.2,10.6,3.3,21.4,3.4,32.2c0,4.8-3.8,8-5.7,12c-1.3,2.7-3.1,5.2,2,5.7
		c2,0.2,2.8,1.8,2.2,3.7c-0.6,2.1,0.5,5-2.4,6.1c-4.3,1.7-10.8-1-13-5.3c-4-7.6-7.4-15.6-13.1-22.4c3.3,11.5,6.6,22.9,9.8,34.4
		c1.2,4.3,4.2,4.7,7.8,4c8.3-1.5,8.2,0.3,6.2,7.5c-18.3,65.1-74,112.9-140.8,120.7C215,504.9,138.6,453.4,116.7,373.2z M343.4,536.7
		c-45.6,14.6-91.4,13.6-136.9-1.8c-6.5-2.2-8.2-6.7-5-12.9c0.5-0.9,1-1.7,1.4-2.6c4.3-8.1,6.3-8.9,15.1-6.1
		c105.8,34.2,218-26.9,246.6-134.4c20-74.8-7.5-155.3-69.1-202.4c-8-6.1-7.3-17.8,1.3-23c3.4-2.1,6.6-1.2,9.7,1.1
		c26.9,20,48.3,44.7,63.8,74.4c16.4,31.4,24.5,64.9,24.6,92.1C494.4,425.2,434.4,507.7,343.4,536.7z"/>
	<path class="st1" d="M320.2,443.6c-6.4-16.3-2.3-31.2,12.2-44C329,415,324.9,429.4,320.2,443.6z"/>
</g>
</svg>
