<?xml version="1.0" encoding="utf-8"?>
<!-- Generator: Adobe Illustrator 19.0.0, SVG Export Plug-In . SVG Version: 6.00 Build 0)  -->
<svg version="1.1" id="Calque_1" xmlns="http://www.w3.org/2000/svg" xmlns:xlink="http://www.w3.org/1999/xlink" x="0px" y="0px"
	 viewBox="0 0 612 792" style="enable-background:new 0 0 612 792;" xml:space="preserve">
<style type="text/css">
	.st0{fill:#434A54;}
	.st1{fill:#434B54;}
</style>
<g>
	<path class="st0" d="M51,621c-2.1-2.1-2.8-4.7-2.7-7.7c0.2-4.7,0.4-9.4,0-14c-0.5-4.8,1.9-6.1,5.9-6.4c8-0.6,15.9-1.5,23.9-1.9
		c51.1-2.2,102.3-2.3,153.4-2.3c71.6,0.1,143.3,0.3,214.9,0.6c22.8,0.1,45.6,0.4,68.5,0.6c5.2,0.1,6.8,1.6,6.8,6.9
		c0.1,5.5-0.1,11,0,16.5c0.1,3-0.7,5.5-2.7,7.7C363,621,207,621,51,621z"/>
	<path class="st0" d="M510.7,292.6c2,22-5.6,42-12.8,62c-1,2.9-2.5,4.4-5.8,4.3c-5.7-0.2-11.3-0.2-17,0c-3.3,0.1-5.1-1.1-5.1-4.5
		c0-1.7-0.5-3.3-1.4-4.7c-9-12.6-9.1-26.4-5.4-40.6c2.3-8.8,5.1-17.5,7.7-26.3c0.2-0.6,0.4-1.3,0.7-1.8c1.7-3.1,3.5-6.8,7.7-5.7
		c4.1,1.1,3.4,5.2,3.2,8.5c-0.4,6.1-1.8,12.2-0.9,18.4c0.2,1.4,0.2,3.5,2.1,3.5c1.8,0,2-2,2.1-3.4c1.3-12.7,2.8-25.5,3.3-38.3
		c0.1-4.2-2.3-6.7-4.9-9.4c-4.8-4.9-5.7-11.6-2.5-17.3c2.1-3.8,4.7-4.4,7.3-0.9c6.7,9.1,13.2,18.4,19.5,27.8
		c2.1,3.1,2.2,6.9,2.2,10.6C510.7,280.6,510.7,286.6,510.7,292.6z"/>
	<path class="st0" d="M289.4,375.8c0-3.9-1.9-7-4.4-9.8c-2.2-2.4-4.8-4.6-7.2-6.9c-2.3-2.2-2.6-4.7-0.1-6.9
		c6.2-5.6,12.5-11,18.7-16.5c2.3-2.1,4.7-2.3,7.1-0.1c6.2,5.5,12.5,11,18.7,16.6c2.5,2.3,2.4,4.5,0,6.8c-2.7,2.7-5.6,5.2-8.1,8.1
		c-3.7,4.2-4.4,8.9-2.4,14.4c3.2,8.7,5.9,17.6,8.8,26.5c1.2,3.6,1.1,7.1-0.1,10.8c-5.9,18-11.7,36-17.5,54c-0.4,1.1-0.7,2.2-1.2,3.3
		c-0.4,0.7-0.9,1.5-1.6,1.7c-1,0.3-1.3-0.9-1.6-1.6c-0.8-2-1.6-4-2.3-6.1c-5.5-16.9-10.8-33.8-16.4-50.7c-1.3-4-1.4-7.7-0.3-11.7
		c2.5-8.4,5.1-16.8,8.3-25C288.7,380.3,289.5,378.2,289.4,375.8z"/>
	<path class="st0" d="M276,565.1c0-16.7-1.5-13.7,13.1-18.4c10.4-3.3,20.9-6.8,31.9-7.7c5.4-0.4,10.1,1.5,15,3.3
		c13.9,5.2,27.7,10.4,41.5,15.6c6.6,2.5,9.2,5.3,8.1,9c-1.2,4.2-6.7,6.5-12.7,5c-9.2-2.2-18.4-4.4-27.5-7.3c-9-2.8-17-1.4-24.8,3.3
		c-2.8,1.7-5.8,3.3-8.5,5.3c-8.9,6.6-19,8.5-29.8,7.9c-4.3-0.2-6.5-2.1-6.4-6.5C276,571.4,276,568.2,276,565.1z"/>
	<path class="st1" d="M337.1,581c-5,0-10,0-15,0c-1.9,0-3.8,0.1-4.5-2.2c-0.6-2,1-2.9,2.3-4c10.7-8.3,23.9-8.3,34.5-0.1
		c1.4,1.1,3.2,2.2,2.4,4.4c-0.7,1.9-2.5,1.8-4.2,1.8C347.4,581,342.2,581,337.1,581z"/>
	<path class="st0" d="M372,159.8c-9.7-24.3-27.4-41-53.1-48.3c-3.3-0.9-6.6-1.7-9.9-2.5c-5.7,0-11.3,0-17,0
		c-0.4,0.2-0.8,0.6-1.3,0.7c-29.6,4.5-49.3,21.8-61.7,48.1c-9.5,20.2-12.3,41.8-10.9,63.8c1.6,26,9.5,50,26,70.5
		c16.3,20.3,37.3,30.7,63.8,27.9c22.6-2.4,39.7-14.3,51.9-32.7C386.3,247.2,389.7,204.1,372,159.8z M349.5,292.2
		c-27.5,31.3-71.3,31.1-98.8-0.2c-15.2-17.2-23.3-37.7-26.7-60.2c-0.9-6.2,0.3-11.9,3.3-17.3c4.4-7.8,10.2-14.3,17.4-19.6
		c3.3-2.5,7.1-3.7,11.1-3.8c5.3-0.1,10.7,0,16,0c16.4,0.2,32.6-0.6,48.1-6.9c8.6-3.5,16.5-8.1,23.3-14.2c3.9-3.5,6.8-2.8,10.9-0.1
		c18.9,12.2,25.4,29.3,23.3,51.3C374.8,247.6,367.3,272,349.5,292.2z"/>
	<path class="st0" d="M497.8,364c-15.2-0.1-30.3-0.1-45.5,0c-6.4,0-8.6,2.1-9.1,8.6c-1.1,13.8-2.1,27.6-3.2,41.3
		c-2.3,28.1-4.6,56.1-6.9,84.2c-0.2,2-0.3,4-2.2,6.3c-1.4-4.4-1.1-8.2-1.2-12c-0.3-29.3-0.6-58.7-0.8-88c0-5-1.8-8.5-6.6-10.6
		c-22.6-10-43.6-22.8-63.8-37c-7.4-5.2-10.4-4.2-13.4,4.4c-8.9,25.4-16.4,51.3-24.2,77.1c-5.2,17.3-10.4,34.7-16.7,51.7
		c-0.7,2-1.5,4.6-4,4.4c-2.1-0.2-2.8-2.6-3.5-4.5c-3-8.6-5.9-17.3-8.8-26c-11.5-34.5-22.9-69.1-34.4-103.6c-2.3-7-5.9-8-12-4
		c-5.2,3.5-10.4,7.2-15.9,10.4c-23.8,14.3-49.5,24.4-75.3,34.1c-4.8,1.8-8.4,4.7-10.7,9.1c-24.1,45.3-43.7,92.6-60.7,141
		c-5.3,14.9,6,30,21.9,30c53.5,0.1,107,0.1,160.5,0c5.9,0,7.8-1.9,7.8-7.8c0.1-12.2,0.1-24.3,0-36.5c0-5.6-2-7.5-7.5-7.6
		c-8.2-0.1-16.3,0-24.5,0c-20,0-40,0-60,0c-5.3,0-9.4-3.5-8.1-7.7c2.8-9,6.6-17.6,11.3-27c0.9,1.6,1.3,2,1.4,2.4
		c0.2,4.2-1,8.2-1.7,12.3c-1.4,9.1-0.7,9.8,8.4,9.8c27.7,0,55.3,0,83,0c6.2,0,8,1.7,8.3,7.9c0.1,2.2,0,4.3,0.1,6.5
		c0.4,6.2,3,7.9,9,6.2c5.6-1.6,11.1-3.5,16.7-5.1c8.1-2.3,16.4-4.4,24.6-1.5c17.9,6.2,35.7,12.7,53.3,19.7
		c10.4,4.2,12.2,12.8,5.6,21.8c-1.1,1.4-2.9,2.8-2.1,4.8c0.9,2.2,3.4,1.7,5.3,1.7c25.8,0,51.7,0,77.5,0c6,0,10.2-2.7,12.3-8.4
		c2-5.6,4.3-11.2,6-16.9c10.4-35.8,12.9-72.7,15-109.6c1.4-24.3,2.3-48.6,3.5-72.9C506.8,366.7,504.5,364,497.8,364z M279.3,483.6
		c-1.9,1.1-3.2-1.2-4.4-2.4c-10.2-10.7-20.4-21.5-30.7-32.2c-2.8-2.9-2.7-5.4,0.5-7.9c3.1-2.5,6.2-5,9.1-7.8
		c3.8-3.6,3.4-5.6-1.3-7.6c-5.8-2.5-11.8-4.5-17.9-6c-5.1-1.3-5.8-2.7-3.6-7.4c4.9-10.4,9.2-21,12.7-31.9c0.5-1.5,0.8-2.9,2.5-3.2
		c2.1,0.6,2.3,2.5,2.6,4c5.6,22.1,12.1,43.9,19.2,65.5c3.5,10.7,7.4,21.3,11.1,32C279.7,480.4,281.1,482.5,279.3,483.6z
		 M364.8,419.9c-6,1.6-11.8,3.4-17.4,5.9c-4.5,2-5,3.9-1.5,7.3c3,2.9,6.2,5.6,9.4,8.2c2.9,2.3,3.4,4.6,0.7,7.5
		c-10.6,11.1-21.1,22.2-31.6,33.3c-1,1.1-2.1,2.5-3.8,1.6c-1-0.5-0.6-1.8-0.6-2.8c1.7-4.9,3.4-9.7,5.1-14.6
		c9.8-27.9,18.4-56.1,26-84.7c0.4-1.7,0.3-4.2,2.6-4.3c2.4-0.1,2.3,2.5,2.8,4.1c3.4,10.3,7.4,20.3,12.1,30
		C371.3,417.1,370.7,418.4,364.8,419.9z"/>
</g>
</svg>
