<?xml version="1.0" encoding="utf-8"?>
<!-- Generator: Adobe Illustrator 19.0.0, SVG Export Plug-In . SVG Version: 6.00 Build 0)  -->
<svg version="1.1" id="Calque_1" xmlns="http://www.w3.org/2000/svg" xmlns:xlink="http://www.w3.org/1999/xlink" x="0px" y="0px"
	 viewBox="0 0 612 792" style="enable-background:new 0 0 612 792;" xml:space="preserve">
<style type="text/css">
	.st0{fill:#434A54;}
	.st1{fill:#444B55;}
</style>
<g>
	<path class="st0" d="M509,607c-93.7,0-187.3,0-281,0c-0.6-0.4-1.2-0.5-1.9-0.5c-24.3,0.6-40.9-25.2-41.4-43c0-1.2-0.1-2.3-0.1-3.5
		c0-102,0-204,0-305.9c0-17,7.2-30.6,21-40.5c8-5.8,16.9-9,27-9c90,0,180,0,269.9,0.1c12.8,0,17.5,4.7,17.6,17.4
		c0.1,15.7,0.2,31.3-0.1,47c-0.1,6.8-3.7,10.7-9.7,11c-7.1,0.4-11.4-3.4-11.6-10.6c-0.4-11.2-0.1-22.3-0.2-33.5
		c-0.1-11.3-4.3-15.5-15.8-15.5c-36.7,0-73.3,0-110,0c-44.5,0-89-0.1-133.5,0.1c-10.3,0.1-20.4,1.8-28,9.9c-9,9.6-10.9,21-7.6,33.5
		c3.1,11.8,10.8,18.8,22.5,21.6c5.2,1.3,10.4,2,15.8,2c79-0.1,158-0.1,237,0c7.8,0,15.6-0.7,23.4-1c11.2-0.3,18.1,6.9,17.9,17.8
		c-0.4,20.3-0.1,40.7-0.1,61c0,72.7,0,145.3,0,218c0,3.2,0,6.3,0,9.5C520.1,602.1,518,604.7,509,607z"/>
	<path class="st0" d="M386,95c6.8,3,9.3,8.1,9.1,15.5c-0.3,15.3-0.1,30.7-0.1,46c0,6.6-3.4,10.5-8.7,10.4c-5.1-0.1-8.2-4-8.2-10.4
		c0-12,0-24,0-36c0-8.5-4.9-13.3-13.4-13.3c-84.1,0-168.3-0.1-252.4,0c-14.3,0-25.9,5.5-31.8,19.1c-6.2,14-4.9,27.7,4.9,39.9
		c6.4,7.9,15.2,11.1,25.1,11.2c19.3,0.1,38.7,0.1,58,0.1c71.8,0,143.6,0,215.4,0c9.8,0,14.8,8.4,10.2,17.3c-2,3.8-5.3,4.5-9.3,4.5
		c-25.7-0.1-51.3,0-77,0c-23.8,0-47.7-0.1-71.5,0c-28.6,0.2-50.8,18.2-55.8,45.3c-0.8,4.5-0.8,9.3-0.8,13.9c0,73.5,0,147,0,220.4
		c0,12.7-3.8,16.4-16.3,16.5c-16.3,0-32.7,0.1-49,0C83.9,495.4,64,475.1,64,444.6c0.1-98.8,0.2-197.6-0.1-296.4
		c-0.1-20.1,6.5-36.1,23.9-46.8C93.1,98,99.2,96.8,105,95C198.7,95,292.3,95,386,95z"/>
	<path class="st1" d="M361,268.9c-40.2,0-80.3,0-120.5,0c-0.8,0-1.7,0-2.5,0c-4.2-0.2-6.6-2.3-6.5-6.5c0.1-4.1,2.6-5.8,6.6-5.8
		c11.5,0,23-0.1,34.5-0.1c70,0,140,0,210,0.1c2.5,0,5.1-0.3,7,1.8c1.9,2.1,2,4.6,1,7c-1.1,2.9-3.7,3.6-6.5,3.6c-14.7,0-29.3,0-44,0
		C413.7,268.9,387.3,268.9,361,268.9z"/>
	<path class="st1" d="M361.5,251.7c-40.7,0-81.3,0-122,0c-5.4,0-8-1.9-8.1-6c-0.2-4.3,2.5-6.4,8.1-6.5c81.1,0,162.3,0,243.4,0
		c5.7,0,7.9,1.7,8,5.9c0.2,4.5-2.1,6.5-8,6.5C442.5,251.7,402,251.6,361.5,251.7C361.5,251.7,361.5,251.7,361.5,251.7z"/>
	<path class="st0" d="M361.5,234.4c-40.7,0-81.3,0-122,0c-5.6,0-7.9-1.8-8-5.9c-0.1-4.3,2.5-6.4,8.2-6.4c81.2,0,162.3,0,243.5,0
		c5.8,0,8.4,2.3,7.9,7c-0.5,4.6-3.7,5.3-7.6,5.3c-23.3,0-46.7,0-70,0C396.1,234.4,378.8,234.4,361.5,234.4
		C361.5,234.4,361.5,234.4,361.5,234.4z"/>
	<path class="st0" d="M361.2,273.7c40.5,0,81,0,121.5,0c1.8,0,3.8,0,5.4,0.6c2.9,1.2,3.5,4,2.9,6.8c-0.7,3.5-3.3,4.7-6.7,4.7
		c-13.5,0-27,0-40.5,0c-66.8,0-133.6,0-200.4,0c-1.3,0-2.7,0-4,0c-5.4-0.1-7.9-2-8-6.1c-0.1-4.1,2.4-6,7.9-6c18.8,0,37.7,0,56.5,0
		C317.5,273.7,339.4,273.7,361.2,273.7C361.2,273.7,361.2,273.7,361.2,273.7z"/>
	<path class="st0" d="M238.5,110.7c40.5,0,81,0,121.5,0c3.5,0,6.9,0.1,8,4.3c1.3,4.8-1.6,8-7.3,8c-17.2,0-34.3,0-51.5,0
		c-64.2,0-128.3,0-192.5,0c-3.3,0-6.5-0.1-7.8-3.9c-1.7-4.9,1-8.3,6.6-8.3c15-0.1,30-0.1,45-0.1
		C186.5,110.6,212.5,110.7,238.5,110.7z"/>
	<path class="st0" d="M238.4,127.8c40.6,0,81.3,0,121.9,0c5.6,0,7.8,1.7,7.7,6.1c0,4.3-2.3,6-7.9,6c-81.3,0-162.6,0-243.9,0
		c-5.5,0-7.7-1.8-7.7-6.2c0-4.3,2.1-5.9,7.8-5.9C157.1,127.9,197.8,127.9,238.4,127.8C238.4,127.9,238.4,127.8,238.4,127.8z"/>
	<path class="st0" d="M238.6,144.9c40.5,0,81,0,121.5,0c3.1,0,6.1,0,7.6,3.4c2.1,4.7-0.9,8.7-6.6,8.7c-22.7,0.1-45.3,0.1-68,0.1
		c-58.8,0-117.6,0-176.4,0c-3.5,0-6.8-0.1-7.8-4.4c-1.1-4.8,1.4-7.8,6.8-7.8c16.8-0.1,33.7,0,50.5-0.1
		C190.3,144.8,214.5,144.9,238.6,144.9C238.6,144.9,238.6,144.9,238.6,144.9z"/>
	<path class="st0" d="M238,174.2c-40.5,0-81,0-121.5,0c-5.6,0-7.8-1.7-7.9-6c-0.1-4.4,2.1-6.2,7.6-6.2c81.3,0,162.6,0,243.9,0
		c5.7,0,7.8,1.6,7.9,5.9c0.1,4.5-2.1,6.2-8.1,6.2C319.3,174.2,278.6,174.1,238,174.2C238,174.2,238,174.2,238,174.2z"/>
</g>
</svg>
