<?xml version="1.0" encoding="utf-8"?>
<!-- Generator: Adobe Illustrator 19.0.0, SVG Export Plug-In . SVG Version: 6.00 Build 0)  -->
<svg version="1.1" id="Calque_1" xmlns="http://www.w3.org/2000/svg" xmlns:xlink="http://www.w3.org/1999/xlink" x="0px" y="0px"
	 viewBox="0 0 612 792" style="enable-background:new 0 0 612 792;" xml:space="preserve">
<style type="text/css">
	.st0{fill:#92B130;}
	.st1{fill:#333333;}
	.st2{fill:#93B131;}
</style>
<g>
	<path class="st0" d="M408.4,414.4c8.8-17.4,14.9-35.2,15.6-54.5c0.2-3.9,1-4.5,4.5-2.9c6.2,2.8,12.9,4.5,19.6,5.7
		c19.6,3.5,32.1,13.9,37.8,33.6c4.3,15,7.5,30,8.9,45.4c1.6,16.8,1.9,33.6,1.2,50.4c-1.4,36-8.6,70.9-19.3,105.2
		c-2.1,6.6-5.7,9.8-11.2,12.5c-28,13.8-57.7,17.4-88.5,14.6c-13.8-1.3-27.2-4.5-40.2-9.4c-3.3-1.2-4.7-2.9-4.7-6.4
		c0.2-16,0.1-32,0.1-48c0-23.6,0-47.3,0-70.9c0-18,0.1-36,0.2-54c0-2.1,0-4.2,0-7.1c-6.7,4.2-12.7,7.9-18.7,11.6
		c-9.1,5.6-18.4,10.6-28.1,15.2c-11.8,5.5-23.9,8.3-37.1,7.9c-27.1-0.8-54.3-0.6-81.5-0.9c-2.8,0-5.7-0.2-8.5-0.7
		c-8.2-1.4-13-7.3-13.1-15.6c0-2,0.2-4,0-6c-0.8-8.2,1.6-12.4,12.8-15.4c5.7-1.5,11.6-0.9,17.4-1c20.8-0.3,41.7-0.6,62.5-0.8
		c7.4-0.1,14-2.8,20.3-6.2c20.6-11.1,38-26.4,54.5-42.6c2-1.9,3.9-3.6,6.4-4.5c3.9-1.4,7.8-3,11.8-4.1c11.6-3.3,23.6-5.4,35.3-10.5
		c0.6,21.1,6.6,40.4,16,58.9c1.8-9,3.9-18,5.3-27.1c0.9-5.4,4.4-4.8,8.1-4.9c3.5-0.1,6.3,0.2,7,4.9
		C404.5,396.3,406.6,405.4,408.4,414.4z"/>
	<path class="st1" d="M267.3,200.5c-59.5,0-119,0-178.5-0.1c-3.8,0-5.5,0.5-5.5,5c0.2,91.3,0.1,182.6,0.1,273.9
		c0,3.2,0.7,4.2,4.1,4.2c74.5-0.1,149-0.1,223.5-0.1c8,0,6.4-0.2,6.4,6.2c0,8.8,0,8.8-8.9,8.8c-83.2,0-166.3,0.1-249.5,0.1
		c-2.3,0-4.7,0.1-7-0.2c-4.4-0.5-7.6-3.9-7.6-7.9c0-4,2.6-6.6,7.5-6.9c4-0.3,8-0.3,12,0c3.4,0.2,4.5-0.8,4.5-4.4
		c-0.2-28-0.1-56-0.1-84c0-63-0.1-126,0.1-189c0-5.1-1.4-6.4-6.1-5.8c-3,0.4-6,0.2-9,0c-5.3-0.3-9-3.7-9-8.1c0-4.3,3.3-6.9,9.2-6.9
		c20.7-0.1,41.3,0,62,0c46.7,0,93.3,0,140,0.1c3.1,0,4.1-0.8,3.9-3.9c-0.3-4-0.1-8,0-12c0.2-4.7,3.3-7.1,8.4-7.1
		c4.7,0,6.5,2.6,6.5,7c0,3.7,0.3,7.4,0,11c-0.4,4.4,1.5,5.2,5.4,5.1c22.7-0.2,45.3-0.1,68-0.1c44.8,0,89.7,0,134.5,0
		c6.2,0,8.1,1.7,8.1,6.8c0,5.7-2.3,8-8.2,8.2c-2.8,0.1-5.7,0.1-8.5,0c-7.3-0.1-7.2-0.1-7.2,7.5c0,44.7-0.1,89.3,0.1,134
		c0,3.9-1.3,4.7-4.9,4.6c-10.2-0.1-10.2,0-10.2-10c0-43.7-0.1-87.3,0-131c0-4.3-1.2-5.2-5.3-5.2C386.6,200.5,327,200.5,267.3,200.5z
		"/>
	<path class="st0" d="M435.9,286.7c-1.1,19.3-6.7,37.4-18.5,53.1c-10.5,14-31.9,14.1-43,0.4c-9.8-12.1-14.9-26.2-17.3-41.4
		c-1.2-7.5-2.3-15-1.2-22.8c2-15.2,9.3-24.1,24-28.4c10.8-3.2,21.6-3.1,32.4,0.3c13.6,4.2,20.5,14.1,22.7,27.6
		C435.5,279.1,435.6,282.7,435.9,286.7z"/>
	<path class="st2" d="M396.6,361.3c0.5,0,1-0.1,1.5,0c3.5,0.7,8.8-1.6,8.9,4.9c0.1,8.5-2.9,11.6-10.2,11.2
		c-8.3-0.4-9.2-1.1-10.6-7.5c-1.4-6.4,0.2-8.3,7-8.6C394.3,361.3,395.4,361.4,396.6,361.3C396.6,361.4,396.6,361.3,396.6,361.3z"/>
</g>
</svg>
