<?xml version="1.0" encoding="utf-8"?>
<!-- Generator: Adobe Illustrator 19.0.0, SVG Export Plug-In . SVG Version: 6.00 Build 0)  -->
<svg version="1.1" id="Calque_1" xmlns="http://www.w3.org/2000/svg" xmlns:xlink="http://www.w3.org/1999/xlink" x="0px" y="0px"
	 viewBox="0 0 612 792" style="enable-background:new 0 0 612 792;" xml:space="preserve">
<style type="text/css">
	.st0{fill:#895C13;}
	.st1{fill:#7F530D;}
	.st2{fill:#E0E1E0;}
	.st3{fill:#7B5210;}
	.st4{fill:#7D5312;}
	.st5{fill:#8B5E15;}
	.st6{fill:#855811;}
	.st7{fill:#40D237;}
	.st8{fill:#48D63F;}
	.st9{fill:#50DA47;}
	.st10{fill:#F1F1F1;}
	.st11{fill:#EEEEEE;}
	.st12{fill:#F0F0F0;}
	.st13{fill:#F5F5F5;}
	.st14{fill:#4BD742;}
	.st15{fill:#4DD844;}
</style>
<g>
	<path class="st0" d="M71.2,482c0-7.6-0.2-15.3-0.1-22.9c0.1-5.8,4.3-9.9,10.1-10.1c4.6-0.1,9.3,0,13.9-0.1c1.4,0,2.9,0.5,2.5-2.2
		c-1.3-8.9-0.3-17.9-0.6-26.8c0.3-1.6,1.6-2.5,2.8-3.3c5.5-3.4,10.9-6.9,16.6-10.1c2-1.1,4.3-2.6,5.7,0.9c1,7.6,0.3,15.3,0.5,23
		c0.1,3.9,0.5,7.6,1.7,11.3c1.1,3.6,3.3,5.6,7.3,5.5c1.8,0,3.7,0,5.5,0c124,0,248,0,371.9,0c10.6,0,11.7-0.9,13.7-11.4
		c0.4-2.1,0.7-4.3,0.7-6.5c-0.1-32.8,0.2-65.7,0.1-98.5c0.3-30.4-0.2-60.8,0.3-91.2c2.2-4.9,6.5-6.9,11.4-7.8
		c1.9-0.4,4.2-0.5,5.3,1.7c0.9,2-0.5,3.4-1.7,4.8c-1.7,2-3.9,3.5-5.3,6.9c3.9-1.1,6.4-2.8,8.8-4.8c1.7-1.4,3.2-3.6,6-2.6
		c0.1,17.5,0.3,34.9,0.3,52.4c0,49.1-0.1,98.2,0,147.4c0,3.6-2.1,8.6,0.2,10.4c2.4,1.9,7.3,0.7,11.1,0.8c3,0.1,6-0.1,9,0
		c5.8,0.2,10.2,4.2,10.3,10c0.1,7.3-0.1,14.6-0.1,22c-5.5,5.1-12.3,6.3-18.6,3c-2.1-1.1-3.8-0.6-5.7,0c-5.1,1.7-10.1,3.6-15.1-0.4
		c-1.6-1.3-3.5,0-5.2,0.5c-4.9,1.6-9.8,3.4-14.7-0.5c-1.8-1.4-3.8,0.1-5.7,0.6c-4.8,1.5-9.5,3.2-14.2-0.6c-1.8-1.5-3.8,0-5.7,0.6
		c-4.8,1.5-9.6,3.3-14.2-0.5c-1.5-1.2-3.2-0.4-4.8,0.2c-5.2,1.7-10.4,3.8-15.6-0.3c-1.4-1.2-3.2,0-4.8,0.5
		c-5.1,1.7-10.1,3.6-15.1-0.4c-1.5-1.2-3.2-0.1-4.8,0.4c-5.1,1.7-10.1,3.7-15.2-0.4c-1.6-1.3-3.5,0-5.2,0.5
		c-4.9,1.6-9.8,3.4-14.7-0.5c-1.8-1.5-3.8,0-5.7,0.6c-4.8,1.5-9.6,3.2-14.2-0.6c-1.5-1.2-3.2-0.3-4.8,0.2
		c-5.2,1.8-10.4,3.8-15.6-0.4c-1.3-1-2.9-0.1-4.3,0.3c-5.2,1.7-10.4,3.9-15.6-0.3c-1.5-1.2-3.2-0.1-4.8,0.4
		c-5.1,1.6-10.1,3.7-15.1-0.4c-1.6-1.3-3.5,0-5.2,0.5c-4.9,1.6-9.8,3.5-14.7-0.5c-1.8-1.5-3.8,0-5.7,0.6c-4.8,1.5-9.6,3.3-14.2-0.6
		c-1.5-1.2-3.2-0.3-4.8,0.2c-5.2,1.7-10.4,3.8-15.6-0.4c-1.4-1.2-3.2,0-4.8,0.5c-5.1,1.7-10.1,3.6-15.1-0.4c-1.6-1.3-3.5,0-5.2,0.6
		c-4.9,1.6-9.8,3.4-14.7-0.5c-1.6-1.3-3.5,0-5.2,0.5c-4.9,1.6-9.9,3.5-14.7-0.5c-1.3-1.1-2.9-0.4-4.3,0.1
		c-5.4,1.8-10.7,4.1-16.1-0.3c-1.3-1-2.9-0.1-4.3,0.4c-5.2,1.7-10.4,3.9-15.6-0.3c-1.4-1.2-3.2,0-4.8,0.5
		c-5.1,1.6-10.1,3.7-15.1-0.4c-1.6-1.3-3.5,0-5.2,0.5c-4.9,1.5-9.9,3.6-14.6-0.5c-1.3-1.1-2.9-0.4-4.3,0.1
		c-5.4,1.8-10.7,4.1-16.1-0.2c-1.6-1.3-3.5,0.2-5.2,0.7c-5,1.6-9.8,3.2-14.7-0.5C77,482,73.5,484.3,71.2,482z"/>
	<path class="st0" d="M571.3,495.2c-2.7,1.4-5.6,0.7-8.3,0.7c-43.7,0-87.3,0-131,0c-1.6,0-3.3-0.5-5.3,0.7
		c7.5,9.7,14.8,19.3,22.2,28.9c23.8,30.9,47.6,61.7,71.4,92.5c1.6,2.1,3.7,4.3,2.3,7.1c-1.4,2.8-4.4,2.6-7.1,2.6
		c-10.2,0-20.3,0.1-30.5,0c-7.8-0.1-14.2-3.3-19-9.5c-10.1-13.1-20.2-26.1-30.1-39.2c-1.7-2.2-3.3-3.1-6.2-3.1
		c-70.5,0.1-141,0.1-211.5,0c-3,0-4.5,1.4-6.1,3.4c-9.9,13-19.9,25.9-29.8,38.8c-5,6.5-11.7,9.7-19.8,9.7c-9.7,0-19.3,0-29,0
		c-3,0-6.3,0.4-8-2.8c-1.6-3.1,1.1-5.3,2.7-7.4c29.7-38.5,59.4-77,89-115.6c1.4-1.8,2.7-3.6,4.6-6.2c-2.4,0-4,0-5.6,0
		c-44,0-88,0-132,0c-1.9,0-4,0.6-5.8-0.7c1.7-2.1,4.2-1.8,6.5-1.8c44.1-0.1,88.2-0.6,132.3,0.2c17.1,0.3,34.3,0.4,51.4,0.7
		c2,0,4-0.1,5.9,0.6c3.3,2.4,0.7,4.5-0.6,6.2c-5.3,7.3-10.9,14.3-16.4,21.4c-5,6.6-10.1,13.1-16,20.9c55.3,0,109.3,0,163.4,0
		c0-2.8-1.6-4-2.6-5.4c-9.3-12.4-18.9-24.5-28.2-36.9c-1.2-1.6-4.2-3.5-1.3-6.2c1.9-0.8,3.9-0.7,5.9-0.7c61.3-1.3,122.6-1,183.9-1
		C565.7,493.4,568.9,492.7,571.3,495.2z"/>
	<path class="st1" d="M548.1,238c-5.4,2.7-9.1,8.2-15.6,9.2c-1.1-2.3-0.2-4.1,1.5-5.7c1.7-1.6,3.3-3.3,4.9-4.9
		c0.7-0.7,1.3-1.6,0.8-2.6c-0.5-1.1-1.6-0.9-2.6-1c-3.2-0.4-5.8,1.2-8.3,2.8c-1.2,0.8-2.1,2.2-3.8,2.2c-1.8-1.7-1.4-4-1.4-6.1
		c-0.1-8.1,0-16.2,0-24.3c0-2.2,0-4.3-0.7-6.4c-3.6-18.3-16.2-28.7-34.8-28.7c-109.3,0-218.7,0.2-328-0.2
		c-18.4-0.1-33.7,9.9-37.8,28.6c-0.5,1.6-1,3.2-1.6,4.7c-4.6,4.8-9.4,9.4-15.2,12.8c-1.6,0.9-3.4,1.9-5.1,0.2
		c-1.7-1.7-0.3-3.4,0.4-5.1c1-2.5,4.9-4,4.2-6.3c-0.7-2.4-4.6-0.3-6.7-1.8c-0.4-0.3-0.7-0.7-0.9-1.2c0-0.6,0-1.1,0-1.7
		c0.3-9.3-0.5-18.6,0.4-27.9c1.8-16,16.6-28.5,34.4-28.6c28-0.2,56-0.1,83.9-0.1c98.4,0,196.9,0,295.3,0c21.9,0,36.8,14.5,36.8,36.5
		C548.4,201.1,548.2,219.5,548.1,238z"/>
	<path class="st2" d="M120.8,405.6c-7.9,4.8-15.9,9.6-23.8,14.4c-4.4,3.9-8.3,2.8-12.6-0.7c-6.3-5.2-11.8-10.5-11.5-19.6
		c0.1-3.2,1.3-5.3,3.8-6.9c6.9-4.6,13.7-9.2,20.5-13.9c0.7-2,2.4-3.1,4-4.2c6.6-4.3,12.9-9.1,19.5-13.4c15.5-10.2,30.5-21,46-31.2
		c1.8-1.2,3.5-3.3,6.2-2.3c1.1,2.8-1,4.3-2.5,6c-4.2,4.5-8.7,8.7-13,13.1c-1.3,1.3-2.7,2.4-3.7,4.9c6.5-1.2,12.4-1.9,16.9-6.6
		c1.7-1.8,3.4-3.7,5.5-5.1c1.2-0.8,2.5-1.2,3.7-0.1c1.4,1.2,0.9,2.7,0,4.1c-1.5,2.2-3.6,3.9-5.4,5.8c-1.9,1.9-3.7,3.9-4.6,6.5
		c-0.6,1.6-0.9,3.3,0.8,4.5c1.5,1.1,2.9,0.2,4.2-0.5c1.4-0.9,2.7-2,3.8-3.2c1.8-1.7,3.4-3.7,5.4-5.2c1.7-1.4,4-4.2,5.8-2.4
		c2.4,2.3-0.3,4.8-2,6.8c-2.3,2.6-4.9,5-7.3,7.5c-1.8,1.8-3.2,3.8-3.1,6.6c-2.6,4.4-7.5,5.7-11.3,8.6c-13.7,8-26.9,16.7-40.6,24.9
		C124.2,404.6,122.8,405.9,120.8,405.6z"/>
	<path class="st3" d="M276.2,496.1c-0.2,0-0.3,0-0.5,0c-64.8-0.9-129.7-1.4-194.6-1.1c-0.8,0-1.7,0.1-2.5,0.2
		c-4.2-0.7-6.3-3.5-7.5-7.2c1.2-2.3,3.3-2.1,5.2-1.6c4.3,1.1,8.6,1,12.9,1c135.1,0,270.2,0,405.3,0c20.2,0,40.3-0.1,60.5,0
		c6,0,12,0.2,17.9-1.1c2-0.4,5.4-1.7,5,2.8c-1,3.4-3.8,4.8-6.7,6.1c-9.7-0.1-19.3-0.2-29-0.2c-37,0-74-0.6-110.9,0.2
		c-19.8,0.5-39.6,0.4-59.3,0.7c-1.7,1.8-3.9,1.6-6.1,1.6c-27.9,0.1-55.8,0.1-83.6,0C280.2,497.6,278,497.7,276.2,496.1z"/>
	<path class="st4" d="M578,489.1c-0.6-2.9-2.4-2.1-4.2-1.5c-4.2,1.4-8.5,1.5-12.8,1.5c-157.9,0-315.9,0-473.8,0
		c-4.2,0-8.4,0.4-12.2-1.6c-1.4-0.7-2.6-0.1-3.8,0.5c0-2,0-4,0-6c4.1,0.2,7.9-0.6,11.9,2.2c3.7,2.6,8.3-0.5,12.3-2
		c2.4-0.9,3.9-1.5,6,1c3.1,3.7,7.2,1.2,10.7,0.2c3.9-1.1,6.9-2.9,11,0.7c3.4,2.9,8.2-0.5,12.2-1.9c2.3-0.8,3.9-1.6,6,0.8
		c3.3,3.9,7.5,1.2,11.1,0.1c3.7-1.1,6.6-2.7,10.6,0.8c3.4,3,8.2-0.4,12.2-1.8c2.6-0.9,4.2-1.4,6.4,1.1c3.2,3.5,7.2,0.9,10.7-0.1
		c3.7-1,6.5-3,10.6,0.7c3.3,3.1,8.2-0.4,12.2-1.7c2.5-0.9,4.2-1.7,6.4,1c2.9,3.5,6.9,1.2,10.2,0.2c4-1.2,7.1-3,11.5,0.7
		c3.3,2.7,8.2-0.5,12.2-2c2.4-0.9,4.1-1.5,6,1.1c1.3,1.9,3.7,2.1,5.9,1.5c3-0.9,6-1.9,9-2.9c1.1-0.4,2.5-1.3,3.2-0.3
		c4.4,6,9.6,2.8,14.4,1.3c3.1-1,5.1-2.1,8.2,1c3.4,3.4,7.9,0.2,11.7-1c3.1-1,5.2-2.3,8.2,0.9c3.2,3.4,7.6,0.4,11.2-0.8
		c3.4-1.1,5.8-2.1,9.1,1c3.4,3.2,8,0,11.8-1.3c3-1,5-1.9,7.7,1.1c2.9,3.2,6.9,0.6,10.3-0.4c3.7-1.1,6.5-2.9,10.6,0.8
		c3.4,3.1,8.2-0.4,12.2-1.7c2.6-0.9,4.1-1.5,6.4,1c3.4,3.7,7.5,0.8,11.2-0.2c3.5-1,6.3-2.7,10.1,0.9c3.4,3.1,8.2-0.3,12.2-1.6
		c2.5-0.8,4.4-2,6.4,0.9c1.3,1.9,3.7,2.1,5.9,1.4c3-0.9,6-1.9,9-2.9c1.1-0.4,2.5-1.3,3.2-0.3c4.8,6.5,10.3,2.4,15.3,0.8
		c2.8-0.8,4.5-1.5,6.8,1.2c3,3.3,6.9,0.9,10.3-0.1c3.9-1.2,6.9-2.9,11,0.7c3.4,2.9,8.2-0.5,12.2-1.9c2.3-0.8,4-1.7,6,0.9
		c2.7,3.6,6.5,1.4,9.7,0.6c4.2-1.1,7.7-3.8,12.5,0.5c2.9,2.6,7.9-0.5,11.7-2c2.6-1,4.1-1.2,6.4,1.1c3.7,3.7,8.1,0.6,12.2-0.3
		c1.7-0.4,3.4-1.3,5.1-2C578.8,483.7,579.8,486.5,578,489.1z"/>
	<path class="st5" d="M121.1,362.3c-7.9,5.5-15.9,11-23.8,16.6c-0.1-24.1-0.2-48.3-0.2-72.4c0-34.1,0.1-68.3,0.1-102.4
		c0.3-0.4,0.5-0.5,0.8,0c0,0.3,0,0.7,0,1c1.9,2.3,1.5,5,1.5,7.7c0,21.8,0,43.6,0,65.4c0,3.5,0.4,6.5,3.5,8.8
		c3.7,2.8,0.2,6.1-0.3,10.3c5.6-3.3,10.5-6.3,14.6-10.3c1.8-1.7,1.2-4.4,1.2-6.7c0-22,0-44,0-65.9c0-2.8-0.3-5.7,1.5-8.2
		c0.1-1.4-0.4-2.9,0.8-4c1.9,1.6,1.8,3.8,1.8,5.9c0,21.3,0.2,42.7-0.1,64c0.3,28.2,0.1,56.4,0.1,84.7
		C122.6,358.7,122.3,360.6,121.1,362.3z"/>
	<path class="st6" d="M98,204c-0.3,0-0.5,0-0.8,0c0.2-9.7-1.1-19.5,0.7-29.2C97.9,184.5,98,194.3,98,204z"/>
	<path class="st7" d="M120.8,405.6c14.8-9.6,29.7-19,45-27.7c11.3-2.1,19.6-9.5,28.2-16.2c2.1-1.6,4-3.5,6.2-5.1
		c1.4-0.9,3-2.2,4.5-0.7c1.5,1.5,0.2,3.4-1,4.4c-4.4,3.8-6.2,9.3-9.2,14c1.1,0.7,2.2,0.3,2.8-0.4c5.9-5.4,13.8-8.2,19.1-14.4
		c1.2-1.4,2.7-2.4,4.4-3.3c1.3-0.7,2.9-1.5,4.1-0.1c1,1.2,0.2,2.8-0.7,3.6c-4.4,4-6.7,9.4-9.5,14.7c1,0.7,2.1,0.2,2.8-0.5
		c5.7-5.4,13.5-8,18.7-14.1c1.5-1.8,3.5-3.1,5.6-4.1c1-0.4,2-0.6,2.8,0.2c1.1,1,0.4,2.1,0,3.2c-0.2,0.5-0.4,0.9-0.8,1.2
		c-4.6,3.7-6.2,9.3-9.2,14c1.1,0.7,2.2,0.3,2.8-0.3c5.9-5.4,13.8-8.2,19.1-14.4c1.2-1.4,2.7-2.4,4.4-3.3c1.3-0.7,2.9-1.5,4.1,0
		c1,1.2,0.2,2.8-0.7,3.6c-4.5,4-6.6,9.5-9.6,14.6c1.1,0.8,2.3,0.2,3-0.5c5.8-5.3,13.5-8,18.7-14.1c1.1-1.3,2.5-2.3,3.9-3.1
		c1.4-0.9,3.2-2.1,4.5-0.7c1.6,1.7,0.1,3.7-1.2,4.7c-4.5,3.6-5.8,9.3-9.1,13.7c1.2,0.8,2.4,0.2,3.1-0.5c5.8-5.3,13.5-8.1,18.7-14.1
		c1.3-1.5,3-2.7,4.7-3.6c1.2-0.6,2.6-1.3,3.7-0.2c1.4,1.4,0.4,3.1-0.6,4c-4.6,4.1-6.5,9.8-9.8,14.7c1.3,0.4,2.5,0,3.3-0.7
		c5.6-5.2,13.2-7.9,18.3-13.8c1.5-1.8,3.4-3.2,5.6-4.2c1.1-0.5,2.3-0.9,3.3,0.1c1.1,1,0.3,2.2-0.1,3.2c-0.2,0.5-0.4,0.9-0.8,1.2
		c-4.6,3.7-6.1,9.3-9.3,13.9c1.2,0.7,2.2,0.3,2.8-0.3c5.8-5.3,13.5-8,18.7-14.1c1.2-1.4,2.7-2.5,4.3-3.4c1.4-0.8,3.2-1.9,4.5-0.3
		c1.1,1.4,0.1,3.1-1,4c-4.4,3.8-6.3,9.2-9.3,14.1c1.2,0.9,2.3,0.2,3-0.5c5.9-5.4,13.8-8.2,19-14.5c1.4-1.6,3.3-2.9,5.3-3.7
		c1-0.4,2-0.5,2.8,0.3c0.8,0.8,0.3,1.9,0,2.8c-0.3,0.6-0.6,1.3-1.1,1.7c-4.7,3.6-6,9.4-9.3,13.9c1.5,0.5,2.6,0.1,3.4-0.7
		c5.8-5.3,13.4-8.2,18.7-14.1c2-2.2,5.3-5.9,7.8-3.5c2.9,2.8-1.5,5.3-3.5,7.4c-3.1,3.2-3.3,7.9-6.7,10.9c1.6,0.6,2.8,0.2,3.6-0.6
		c5.8-5.3,13.5-8,18.7-14.1c1.5-1.8,3.5-3.1,5.7-4c1-0.4,2-0.5,2.8,0.3c0.8,0.8,0.3,1.9,0,2.8c-0.2,0.5-0.4,1-0.8,1.3
		c-4.7,3.8-6.4,9.6-9.6,14.4c1.2,0.6,2.4,0.1,3.2-0.6c5.8-5.3,13.5-8,18.7-14.1c1.2-1.4,2.7-2.5,4.4-3.2c1.2-0.5,2.6-1.4,3.6,0.1
		c0.9,1.3,0.5,2.8-0.5,3.6c-4.4,3.8-6.2,9.3-9,14.4c10-5.3,19-12.1,27.2-20c0.7-0.3,1.4-0.4,2.1-0.3c3.6,2.8,0.4,5-1.1,6.5
		c-4.1,4.2-6.5,9.6-10.5,14.4c3.3,0.8,5.3-0.5,7.1-2.2c5.7-5.4,12.8-8.9,18.2-14.8c1.5-1.6,4.1-3.8,6-1.9c2,2-0.4,4.4-2,5.9
		c-3.8,3.6-5.5,8.7-9.4,13c3.3,0.6,5.4-0.5,7.2-2.2c5.7-5.4,12.8-8.9,18.2-14.8c1.5-1.6,4.3-3.8,6-2c2.2,2.2-0.6,4.6-2.2,6.3
		c-3.7,3.7-5.5,8.5-8.9,12.6c3,1,5-0.3,6.7-1.9c5.6-5.5,12.9-8.9,18.2-14.8c1.6-1.7,4.4-4.2,6.4-2c2,2.2-0.8,4.6-2.5,6.2
		c-3.6,3.6-5.3,8.4-8.8,12.5c3,0.8,5-0.3,6.7-1.9c6.5-5.8,13.8-10.3,20.2-16.3c2.1-2,3.4-3.9,3.3-6.8c-0.1-4.8-0.1-9.7,0-14.5
		c0.1-1.6-0.7-3.8,1.8-4.5c0.1,3.5,0.2,7,0.2,10.5c0,29,0,58,0.1,87c0,3.9-0.5,7.6-1.5,11.3c-2.4,8.8-2.8,9-11.8,9
		c-127,0-253.9,0-380.9,0.1c-4.3,0-6.5-1.5-7.7-5.3c-1.2-3.8-2.2-7.6-2.2-11.7C120.9,423.3,120.8,414.5,120.8,405.6z"/>
	<path class="st8" d="M524.7,331.2c-1.5,6.7-0.2,13.5-0.7,20.3c-0.1,1.6,0.4,3.3-1.2,4.6c-8.1,6.5-16.2,13.1-24.3,19.6
		c-1.2,0.9-2.6,1.5-4.2,1.3c-1.2-0.1-3,0.7-3.6-0.8c-0.7-1.5,1.1-2.2,1.9-3.2c3.9-5.2,7-11,12.3-15.9c-2.9-0.7-4.3,0.3-5.2,1.2
		c-5.4,6-12.6,9.7-18.5,15.1c-1.5,1.4-2.9,2.9-4.9,3.3c-1.9,0.4-4.4,1.2-5.5-0.5c-1-1.6,1.6-2.5,2.4-3.8c3.1-5.4,7.1-10.2,11.5-15.6
		c-2.7-0.1-4.4,0.7-5.3,1.8c-5.3,6.2-12.7,9.6-18.4,15.1c-1.2,1.1-2.5,2.2-4,2.8c-2,0.8-4.8,1.4-6-0.2c-1.2-1.7,1.8-2.7,2.6-4.2
		c2.9-5.3,6.8-10,11.1-14.9c-2.7-0.8-4.3,0.3-5.2,1.3c-5.3,6.1-12.7,9.6-18.5,15.1c-1.2,1.1-2.5,2.2-4,2.9c-2,0.9-4.8,1.5-6.1-0.1
		c-1.3-1.7,1.7-2.7,2.5-4.2c2.9-5.3,6.8-9.7,10.5-14.4c0.8-1,1.4-1.9-0.1-2.8c0.5-2.3,2.7-2.2,4.3-2.7c4.3-1.5,8.4-3.4,11.7-6.5
		c4.6-4.2,6.5-9.5,6-15.7c0.4-4.9,2.9-8.2,7.3-10.5c5.3-2.8,9.8-6.8,14.2-10.9c2-1.8,4.8-4.9,7.2-2.5c2.2,2.3-1.2,4.6-2.8,6.5
		c-2.7,3-4.9,6.2-6.3,11.1c7.6-3.5,13.6-7.6,19.1-12.6c1.9-1.7,3.6-3.5,5.8-4.7c1.4-0.8,3.1-1.9,4.5-0.2c1.1,1.4,0,2.9-0.9,4
		c-2.1,2.7-4.8,5.1-6.4,8.3c-0.7,1.3-1.4,2.6-1.6,5.5c5.8-3.5,11.1-6.3,15.8-10.1c1.4-1.1,1.1-3.1,1.1-4.7c0-12.6,0.1-25.3-0.1-37.9
		c-0.1-3.4-0.1-6.8,0-10.3c-0.2-2.2,0.1-4.3,0-6.5c-0.3-16-0.1-32-0.1-48c0-2,0-4,1.6-5.6c1.7,3.5,0.7,7.2,0.8,10.8
		c0.2,8.8,0.1,17.6,0.2,26.4c0,28.9-0.1,57.8-0.1,86.7C524.9,326.9,524.7,329,524.7,331.2z"/>
	<path class="st9" d="M524.1,200.9c0,18-0.1,36.1-0.1,54.1c-5.6,6.3-12.2,11.3-19,16.1c-0.7,0.5-1.4,0.9-2.2,1.2
		c-2.6,0.9-5.6,1.9-7.5-0.3c-2.2-2.4,0.4-4.7,1.7-6.6c2.8-3.9,6.1-7.5,9.1-11.3c-6.5,5-12.3,10.9-19,15.6c-2.6,1.8-5.3,3.6-8.7,3.4
		c-3.8-0.2-4.9-1.8-3-5.2c2.9-5.1,7.2-9.1,11.4-14.4c-5.1,3.6-8.8,7.7-13,11c-3.1,2.5-6.2,5-9.6,7.1c-1.7,1.1-3.7,1.6-5.7,1.5
		c-3.8-0.2-4.9-1.8-3-5.2c2.9-5.1,7.3-9.1,11.4-14.5c-7,5.5-12.6,11.2-19.1,15.9c-2.7,1.9-5.4,3.9-9,3.8c-4.1-0.1-5.2-1.8-3.1-5.4
		c2.9-5,7.2-8.9,11.4-14.5c-7.1,5.8-12.8,11.5-19.3,16.1c-2.4,1.7-4.8,3.6-8,3.8c-1.7,0.1-3.5,0.3-4.6-1.2c-1.2-1.6-0.1-3.2,0.8-4.6
		c3-4.7,6.9-8.5,10.2-13c-6.3,4.8-11.9,10.5-18.4,15.1c-2.4,1.7-4.8,3.6-8,3.7c-1.7,0.1-3.5,0.3-4.6-1.3c-1.1-1.6,0-3.2,0.9-4.6
		c3.1-4.7,7-8.7,11.3-14c-7.3,5.8-13,11.6-19.7,16.3c-2.5,1.7-4.9,3.6-8.1,3.6c-1.7,0-3.5,0.2-4.5-1.5c-0.8-1.5,0.1-2.9,0.9-4.2
		c3-4.8,7.1-8.7,11.2-14.1c-6.6,5.3-11.9,10.6-17.9,15c-1.5,1.1-1.5,2.8-1.8,4.5c-0.2,1.4,0.1,3.6-2.6,2.9c-0.6-0.9-0.8-1.8-0.9-2.9
		c-0.2-5,0.2-9.9-1.1-14.8c-4.7-17.9-18.4-26-36.3-21.2c-3.8,1-6.8,3.4-9.8,5.8c-1.6,1.3-3.3,3.3-5.4,0.6c-1.2-3.9-0.4-8-0.6-12
		c-0.2-1.7,0.1-3.4,0-5.1c-0.1-4.2,0.4-8.5-0.4-12.7c-0.5-1.6-1.2-3-2.7-3.8c-6.3-2.3-8.7-0.7-10.8,6.9c-0.4,13.1,0,26.2-0.2,39.2
		c0,1.8,0.1,3.6-0.2,5.4c-4.3,6.3-10.4,10.5-17.4,13.4c-1.7,0.7-3.8,0.8-5.1-0.9c-1.4-1.9-0.5-3.8,0.7-5.5c3.1-4.3,6.3-8.6,9.9-12.5
		c-5.9,4.8-11.5,9.8-17.5,14.4c-2.5,2-5.1,3.8-8.2,4.5c-1.8,0.4-3.8,0.7-5-1.1c-1.2-1.7-0.5-3.5,0.6-5.1c3.1-4.4,6.2-8.6,9.9-12.5
		c-5.7,4.5-11.1,9.4-16.9,13.9c-1.6,1.2-3,2.7-4.9,3.4c-4.3,1.5-8.3,3-9.1,8.5c-0.2,1.5-1.8,3.4-4.1,1.7c-1.4-3.9-0.6-7.9-0.7-11.9
		c-0.2-4.6,0.1-9.3-0.8-13.9c-1.6-8.6-6.7-13.5-14.9-15.5c-8.5-2-17.1-2.2-25.7-0.3c-6.9,1.5-12.6,5.1-17.2,10.4
		c-8.9,4.2-14.9,12.1-22.8,17.6c-2.7,1.9-5.3,4.1-8.6,4.8c-1.8,0.4-3.8,0.7-5-1.1c-1.2-1.7-0.4-3.5,0.7-5.1
		c3.2-4.5,6.5-8.8,10.3-12.9c-5.9,4.7-11.4,9.9-17.5,14.3c-1.8,1.3-3.4,3.5-6.1,1.9c-0.1-23.3-0.2-46.7-0.3-70
		c3.2-19.4,16.7-31,36.2-31c111.1,0,222.3,0,333.4,0C507.6,171,523.1,184.7,524.1,200.9z"/>
	<path class="st6" d="M120,206c0,25.7,0,51.3,0.1,77c0,3.3-0.7,5.4-3.9,7.1c-4.5,2.4-8.5,5.8-12.8,8.6c-0.8,0.5-1.8,1.3-2.7,0.6
		c-1-0.7-0.4-1.8,0-2.7c0.3-0.8,0.3-1.7,0.8-2.3c2.5-3.4,3.2-6.2-1.8-8.1c-2.4-0.9-1.6-3.4-1.6-5.3c0-25.3,0-50.7,0-76
		c3.2,0.5,7.8-1.7,9.3,1.1c1.6,3-3.6,4.5-4.9,7.2c-0.7,1.5-2.9,3.2-1.3,4.8c1.6,1.7,3.3-0.5,4.8-1.2
		C111.3,214.3,114.5,208.6,120,206z"/>
	<path class="st8" d="M121.1,272c6.7-2.5,11.3-7.9,16.6-12.3c2.9-2.4,5.6-5.1,9.7-7.2c-1.4,5.6-6.4,7.7-8.5,11.9
		c-0.9,1.7-2.3,3.2-3.6,4.7c-1.1,1.2-1.9,2.6-0.9,4c1,1.4,2.7,0.8,4.2,0.5c5.2-1.4,8.7-5.4,12.7-8.5c4.5-3.4,8.6-7.2,12.9-10.9
		c1.4-1.2,3-2.2,4.9-2.2c0.5,1.5,0,2.8-0.6,4.1c-4.3,3.6-8.1,7.7-11.2,12.4c-0.7,1-2.2,2.1-1,3.4c1,1.1,2.5,0.2,3.7-0.2
		c4.2-1.6,7.1-5.4,11.1-7.2c2-0.1,3.9,0,5.7,1.1c1,4.1-2.2,6.2-4.2,8.8c-1.5,1.9-3.4,3.6-3.8,6.2c-10.3,19.1,4.5,31.2,19.9,30.2
		c7.1-0.5,13.3-2.3,19.2-6c5.5-3.4,5.7-3.3,9.9,1.4c2.5,2.8,4.8,6.5,9.5,4.4c4-1.8,4.6-5.1,3.3-11.2c-1.1-5-3.7-10.1-0.4-15.3
		c0.6-0.5,1.8-1,1.8-1.6c0.5-6.9,6-8.2,10.9-11c7.9-4.4,14.1-11.4,21.2-17c0.9-0.7,1.6-1.7,3.5-0.8c-4,5.1-7.9,10.1-11.8,15
		c-1.1,1.3-2.5,2.7-1.4,4.4c1.3,1.8,3.3,1,5,0.3c7.4-3,12.6-8.9,18.6-13.8c2.9-2.4,5.5-5,9.6-5.8c-3.9,5-7.8,10-11.7,14.9
		c-1.1,1.3-2.5,2.7-1.4,4.3c1.3,1.9,3.2,0.9,5,0.4c4.7-1.2,7.5-5.3,11.5-7.7c1.4-0.9,2.8-1.8,4.2-2.7c1.6,1.4,1.4,3.3,1.4,5.1
		c-0.3,9.6,0.5,19.2,0.2,28.8c-0.1,2.2,0.5,4.3,0.9,6.4c0.1,4.7-3.7,7.2-6.1,10.5c-1.6,2.2-5.4,4.3-3.4,6.8c1.5,1.9,4.6-1.3,7-2.2
		c6-2.3,9-8.3,14.2-11.6c2.1-1.3,4.4-4.7,6.7-2.6c2.8,2.6-1,4.9-2.4,7.1c-1.3,2.1-3.5,3.6-4.8,5.7c-0.7,1.1-2,2.3-1.1,3.6
		c1,1.3,2.5,0.3,3.6-0.2c3.9-1.9,7.5-4.3,10.6-7.3c2.6-2.5,5.2-5.2,8.4-6.9c1.2-0.3,2.4-0.2,3.5,0.4c1.7,1.8,0.5,3.4-0.4,4.9
		c-0.8,1.3-2,2.2-2.9,3.4c-1.3,1.8-4.4,3.7-2.6,5.7c1.6,1.8,4.2-0.7,6.2-1.8c5.7-3.2,9.9-8.4,15.2-12.1c2.2-1.6,4.8-5,7.2-2.7
		c2.5,2.4-1.4,4.8-2.7,7.1c-0.8,1.4-2.2,2.5-3.2,3.8c-1.4,1.7-4.4,3.7-2.6,5.7c1.6,1.8,4.2-0.6,6.2-1.8c3.1-1.9,6-4.1,8.7-6.7
		c3-2.9,6.3-5.5,9.7-7.8c1.3-0.8,2.8-1.7,4.1-0.4c1.4,1.3,0.2,2.8-0.6,4c-1.9,3-4.3,5.5-6.6,8.1c-1.1,1.3-3.1,3-1.6,4.7
		c1.1,1.3,3.1-0.2,4.6-0.9c6.2-3.1,10.7-8.4,16.1-12.6c1.5-1.1,2.8-2.3,4.5-3.2c1.2-0.6,2.6-1.3,3.7-0.2c1.3,1.2,0.3,2.5-0.3,3.6
		c-1.5,2.4-3.2,4.6-5.2,6.7c-1,1.1-2.1,2.1-2.9,3.5c-0.6,1-1.5,2.1-0.5,3.1c0.8,0.8,1.9,0.2,2.8-0.1c1.4-0.5,2.7-1.4,4-2
		c1.6-0.7,3.3-2,5-0.3c1.1,2.1,0.5,4.5,1.4,6.6c0.9,3.7,1.5,7.5,3.2,11c5.6,11.3,14.8,17,27.3,17.7c3.5,0.2,7.3-1.2,10.5,1.4
		c-4,5.3-8.8,9.7-14.5,13.1c-2.6,1.5-5.2,3-7.3,5.1c-3.2,3-3.2,3-8.5,2.1c5-5.5,6.5-13.2,12.5-18.2c-7.2,0.8-9.7,8.3-15.6,10.3
		c-5.9,2.1-8.8,10.1-16.9,8.2c4.8-6.2,7.2-13.7,12.8-19.4c-11.2,6.2-19.5,16.8-32.4,19.7c4.8-6.2,6.2-14.4,12.6-19.5
		c-11.4,6-19.6,16.6-32.6,19.6c4.7-6.2,6.1-14.4,12.5-19.5c-11.4,5.9-19.6,16.5-32.4,19.6c4-6.7,6.8-13.9,12.1-19.9
		c-10.9,6.5-19.4,16.6-32.1,19.9c4.3-6.6,6.4-14.2,12.3-19.7c-11.1,6.3-19.7,16.5-32.2,19.7c4-6.8,6.8-14,12.1-19.8
		c-11.1,6.2-19.4,16.8-32.2,19.7c4.2-6.6,6.8-13.9,12.2-19.7c-11,6.4-19.6,16.5-32.2,19.8c4.2-6.7,6.7-14.1,12.2-19.8
		c-11.1,6.2-19.5,16.7-32.3,19.7c4.3-6.6,6.7-14.1,12.3-19.7c-11.2,6.2-19.5,16.8-32.4,19.7c4.3-6.5,6.6-14.1,12.4-19.7
		c-11.2,6.1-19.4,16.7-32.4,19.7c4.7-6.2,6.1-14.4,12.6-19.3c-4.1,0.7-6.6,3.2-9.5,5.5c-7.5,5.8-14.4,12.6-24,15.3
		c-1.8,0.5-3.6,0.5-5.4,0.5c3.8-2.6,7.6-5.2,11.4-7.8c1.4-3.2,4.7-4.2,7.3-5.6c7.6-4.2,13.7-9.7,18.4-17.1
		c4.9-7.7,10.8-14.6,15.7-22.1c-0.4-1.1-1.2-1-1.8-1c-12.5,1.5-25.1,2.1-37.6,3.6c-2.2,0.3-4.3,0.6-6.4-0.4
		c-15.6,10.5-31.2,21-46.8,31.6c-1.6,1.1-3.4,2.1-5.1,3.1C121.1,332.2,121.1,302.1,121.1,272z"/>
	<path class="st10" d="M172.9,327.6c11.3-2.2,22.8-2.2,34.1-3.6c4.6-0.6,9.3-0.8,13.9-1.2c0.5,2.1-1,3-1.7,4.1
		c-4.6,6.5-9.9,12.6-13.9,19.5c-6.6,11.4-17,17.8-28.1,23.7c-2.6-2.8,0-4.6,1.5-6.3c2.6-3,5.6-5.7,8.4-8.5c1.4-1.4,2.6-3,2.8-5.6
		c-2.7,0.5-4.3,2.2-6,3.8c-2.9,2.7-5.3,5.9-8.8,8.1c-1.8,1.1-3.5,2-5.4,0.5c-2-1.6-2.1-3.7-1.3-5.9c0.9-2.1,1.9-4.3,3.7-5.9
		c1.6-1.5,3.2-2.9,4.6-4.6c1.2-1.5,4.6-2.9,2.6-5c-2.1-2.1-3.9,1.1-4.9,2.6c-5,6.8-12.7,8-20,10c-0.8,0.2-1.7,0.6-2.1-0.5
		c-0.6-1.7,0.3-2.9,1.4-4c5.2-5.2,10.3-10.4,15.5-15.5C170.8,331.7,172.4,330,172.9,327.6z"/>
	<path class="st6" d="M110.4,307.1c2.3-2,4.7-4.1,7.1-6.1c0.6-0.5,1.3-1.2,2.1-0.3c0.2,0.3,0.3,1.2,0.1,1.3
		c-2.8,1.9-4.5,5.5-8.1,6.3C111.2,308,110.8,307.6,110.4,307.1z"/>
	<path class="st11" d="M442,355.1c-5-0.1-10,0.3-14.9-0.5c-15.7-2.5-24.8-12.6-27.4-29.7c-0.5-3.4,0-6.9-1.1-10.2
		c0-20.2,16.8-35.7,39.1-33.8c9.7,0.8,18.6,3.9,25.2,11.6c2.6,3,4.3,6.3,4.3,10.4c0,4-1.8,6.7-5.3,8.3c-3.6,1.7-6.8,0.7-9.6-1.9
		c-1.2-1.2-2.1-2.6-3.1-3.9c-4.3-5.7-9.7-9.3-17.2-7.4c-7.2,1.8-11.5,7.4-12.5,15.7c-0.1,1-0.1,2-0.1,3c-0.1,4.3-0.2,8.6,1.2,12.8
		c3.7,11.4,17.3,14.9,26,6.6c1.9-1.8,3.4-4,4.9-6.2c2.2-3.3,5-5.8,9.3-5.7c3.3,0.5,5.7,2.2,6.4,5.7c0.7,9.8-4.2,17.3-14.4,21.8
		c-2.8,1.2-5.9,2.1-8.8,3.1C443.2,355,442.6,355,442,355.1z"/>
	<path class="st8" d="M418,317c0-14.7,10.3-23.8,22.7-20.1c5,1.5,7.8,5.4,10.7,9.3c1.8,2.4,3.6,4.8,7.1,4.8c6.1,0,9.6-6,6.8-12.2
		c-3.8-8.5-11-12.8-19.7-15c-10.4-2.6-20.5-2.2-29.9,3.4c-10,6-14.9,15.4-15.8,26.9c-0.8,1.2,0.4,2.9-0.9,4
		c-3.1,1.4-6.3,2.9-9.4,4.3c-1.3,0.6-2.6,1-3.6-0.2c-1.2-1.3,0-2.5,0.5-3.6c1.9-4.2,6-6.6,8.3-10.5c0.7-1.1,1.8-2,1.6-4.2
		c-5.2,2.1-8.9,5.7-12.6,9.2c-3.8,3.6-7.9,6.6-12.6,8.8c-1.5,0.7-3.4,2.2-5.1,0.4c-1.8-2.1,0.3-3.9,1.2-5.3c2.3-3.2,5-6.1,7.6-9.2
		c0.8-0.9,1.4-1.8,1.6-3.7c-5.6,1.8-9.2,5.8-13,9.3c-4.2,3.8-8.6,7.3-14,9.2c-1.3,0.5-2.6,0.8-3.6-0.4c-1-1.2,0-2.2,0.4-3.2
		c1.7-4.3,6-6.6,8.2-10.5c0.7-1.2,2.1-2.1,1.7-4.4c-5.2,2.3-9.1,6-13,9.6c-4,3.7-8.3,7.1-13.6,8.9c-1.3,0.4-2.5,1-3.7-0.2
		c-1.2-1.3,0-2.5,0.4-3.6c1-2.6,3.1-4.3,4.9-6.2c1.4-1.4,2.5-3.1,2.8-5.2c1-1.4,2.6-1.3,4-1.5c12.5-1.8,20.1-9.1,23.9-21
		c0.9-2.9,0.8-6.3,3.3-8.7c-0.2-8,6.2-11.2,11.3-15.3c3.9-3.1,6.8-7.4,12.5-9.4c-1.5,5.1-5.9,7.4-8.1,11.2c-0.8,1.4-2.2,2.5-3.1,3.9
		c-1,1.6-3.5,3.3-1.8,5c1.4,1.4,4.2,0.9,6.1-0.1c4-2.1,7.3-5.1,10.9-7.8c5.2-3.8,9-9.4,16-12.4c-1.5,5.3-5.9,7.6-8.2,11.4
		c-0.8,1.4-2.2,2.5-3.1,3.9c-1,1.5-3.5,3.3-1.8,5c1.4,1.4,4.2,0.9,6.2-0.1c4-2.1,7.3-5.1,10.9-7.8c5.2-3.8,9-9.4,15.9-12.4
		c-1.5,5.3-5.9,7.6-8.1,11.4c-0.8,1.4-2.2,2.5-3.1,3.9c-1,1.5-3.5,3.2-1.8,5c1.4,1.4,4.2,0.9,6.2-0.1c4-2.1,7.3-5.1,10.9-7.8
		c5.2-3.8,9-9.4,15.9-12.3c-1.4,5.3-5.8,7.6-8.1,11.4c-0.8,1.4-2.2,2.5-3.1,3.9c-1,1.5-3.5,3.2-1.7,5c1.4,1.4,4.2,0.9,6.2-0.2
		c4-2.1,7.3-5.1,10.9-7.8c5.2-3.8,9-9.4,15.8-12.3c-1.4,5.2-5.8,7.6-8.1,11.4c-0.8,1.4-2.1,2.5-3.1,3.9c-1,1.4-3.2,3.2-2,4.6
		c1.6,1.8,4.4,1.2,6.5,0.1c4-2,7.3-5.1,10.9-7.8c5.2-3.8,9-9.4,15.8-12.3c-1.4,5.2-5.8,7.6-8.1,11.4c-0.8,1.4-2.1,2.5-3.1,3.9
		c-1,1.4-3.2,3.2-2,4.6c1.6,1.8,4.4,1.2,6.5,0.1c4-2,7.3-5.1,10.9-7.8c5.2-3.8,9-9.4,15.8-12.2c-1.4,5.2-5.8,7.6-8.1,11.4
		c-0.9,1.5-2.3,2.8-3.3,4.3c-1,1.3-2.9,3-1.7,4.3c1.5,1.7,4.1,1.1,6.1,0.3c4.2-2,7.6-5.2,11.3-8c3.7-2.8,6.4-6.7,10.8-8.5
		c0,2,0,4,0,6c-1.5,1.9-3.4,3.5-4.8,5.5c-1.7,2.4-2.9,4.4,1.7,4.3c1.2,0,2.3,0.2,3.1,1.2c0,12.5-0.1,25,0.1,37.5
		c0,3.3-0.5,5.5-3.8,7.1c-4,1.9-7.7,4.6-11.4,7.2c-1.6,1.1-3.2,1.6-5,0.8c0.6-7.7,7-12,11.3-18.7c-4.3,0.9-6.6,2.9-8.7,5.1
		c-5.3,5.7-12.2,9.1-18.5,13.4c-1.4,0.9-2.8,0.7-4.2,0.4c0.9-7.7,6.9-12.3,11.8-18.9c-4.5,0.9-6.8,2.8-8.8,4.9
		c-3.7,3.9-7.9,7.2-12.6,9.6c-4.2,2.1-6.9,4.9-7.2,9.7c-1.6-2.2-3.6-4-6.2-4.9c3.5-5.8,6-12.2,12.3-17.1c-2.9,1-4.4,2.6-5.9,4.1
		c-5.2,5.2-11.6,8.9-17.8,12.7c-1.8,1.1-3.9,1.9-5.6,0.6c-2.2-1.6-0.3-3.6,0.2-5.4c0.9-3,3-5.4,4.4-8.3c-5.5,4.6-11.3,8.6-17.4,12.1
		c-1,0.6-1.9,1.3-3,1.7c-1.4,0.5-3,0.8-4.3-0.1c-1.7-1.2-0.6-2.7-0.2-4.1c1.6-5.3,5.1-9.2,9.7-13.8c-4,2.2-6.2,5-8.7,7.1
		C422.6,316.2,421,318.6,418,317z"/>
	<path class="st9" d="M524,272c-2.8-0.6-8.1,1.5-8.1-1.4c0.1-4,3.3-8.1,8.1-9.6C524,264.7,524,268.3,524,272z"/>
	<path class="st10" d="M230.2,284c-0.8,5.9,0.3,11.5,2.2,17c1.8,5-0.2,8.2-4.3,10.8c-4.3,2.8-6.6-0.4-9.4-2.7
		c-2.2-1.8-2.8-5.9-5.5-5.8c-2.4,0.1-4.7,2.8-7.2,4.2c-10.5,5.7-21.3,7-32.3,1.3c-10.5-5.4-12.3-19.7-5.5-28.5
		c1.8-5,6.2-6.8,10.7-8.1c6.7-2,13.7-2.9,20.4-4.6c1.9-0.5,3.9-0.8,5.8-1.4c2.3-0.8,5.3-0.9,5.3-4.3c0-3.6-1.6-6.5-5.1-7.9
		c-7.1-2.9-16.7,0-21.4,6.3c-1.8,2.4-3,5.8-6.9,5.6c-2-0.3-4-0.6-6-1c-4.4-2.6-4.8-3.8-3.2-9c0.5-1.3,0.9-2.7,1.4-4
		c5.4-7.8,13.3-11.1,22.4-12.2c5.8-0.7,11.6-0.5,17.4,0.1c13.4,1.4,20.5,8.9,21,22.6C230.2,269.7,230.1,276.9,230.2,284z"/>
	<path class="st12" d="M365.2,276c-1,5.5-2.1,10.9-4.9,15.9c-5.7,10.3-14.6,15.3-26.3,15.3c-1.3-0.1-2.6-0.2-3.9-0.2
		c-6.9,0.7-11.5-3.8-16.7-7.9c-1.6,4.5-3.6,8.6-8.8,9c-2.9,0.3-6.1,0.4-7.6-3.1c-1.5-2.4-2-5.1-2-7.9c0-11.3-0.1-22.7-0.2-34
		c0.1-14,0.1-28,0.2-42.1c0-2.1-0.5-4.3,0.7-6.3c1.6,1.4,1.6,3,0.7,4.6c3.9-3.2,6.8-8,11.6-10.6c1.5,0.6,2.5,1.7,2.8,3.3
		c-1.9,4.4-5.8,7.3-9.2,10.3c-5,4.2-5,9.2-4,15.6c3.6-3.2,6.3-6.3,9.3-9.1c1.4-1.3,2.5-3.3,4.9-2.8c0,1.7,0,3.3,0,5
		c-2.6,5-7,8.4-11,12.1c-3.5,3.3-4,7.1-3.7,11.3c0.1,0.8-0.1,1.8,1,2.1c0.9,0.2,1.5-0.5,2.1-1.1c4-3.7,7.5-7.9,11.7-11.5
		c3.6-0.9,5.4-4.5,8.6-5.9c1.8-0.8,3.2-2.2,5.3-2.2c0.7,2.7-1.5,3.8-2.9,5.3c-7.6,8.1-16,15.5-23.2,24c-2.5,2.9-3,5.6-2.3,9.2
		c4.4-1.5,7.3-4.5,10.3-7.3c1.5-1.4,3.1-4,5.8-1.5c0.9,2.2,0.8,4.4,0.3,6.7c-1,3.1-4.4,4.5-5.8,7.7c2.1,1.5,4.2-1,6.1,0
		c1.5,1,1.9,2.6,2.8,4c6.6,10.8,19.9,10.6,26.2-0.4c1-1.7,1.1-3.9,3.3-4.8c4.2,2.7,7,0.1,9.9-2.5c2.3-2,4.4-5.3,8.4-3.3
		C365,274,365.1,275,365.2,276z"/>
	<path class="st13" d="M364.9,273c-4.2-0.2-6.3,3.1-8.9,5.4c-4.5,4.1-6.8,4.1-9.2,0.2c-1.9-2.7-1.1-5.8-1.1-8.7
		c-0.1-3.8-0.3-7.6-1.7-11.2c-2.4-5.9-6.6-9.6-13-10c-5.9-0.4-11.6,3.9-14.3,9.8c-1,2.2-0.4,5.4-3.6,6.5c-2.7,0.1-3.8,2.5-5.5,3.9
		c-1.6,1.4-2.8,3.6-4.9,4.1c-2.4,0.6-3.4,4.2-6.2,3c-1.6-0.7,0.2-9,1.8-10.9c8.4-10.5,19.2-18.8,27.7-29.3
		c15.6-5.6,31.7,2.2,37,18.1C365,260.1,365.7,266.5,364.9,273z"/>
	<path class="st13" d="M311.9,226c-4.2,4-8.4,8.1-12.6,12.1c-0.7,0.7-1.3,1.7-2.5,1.3c-1.2-0.4-0.8-1.7-0.9-2.6
		c-0.7-6.6,0.1-12.4,6.2-16.7c3.2-2.2,5.8-5.4,8.7-8.1C313.1,216.5,311.9,221.3,311.9,226z"/>
	<path class="st13" d="M312,243.9c-2.8,6.1-8.5,9.6-12.9,14.2c-1.7,1.7-3,0.5-3.1-1.7c-0.1-5.6-0.7-11.1,5-15.2
		c4-2.8,7.3-6.8,10.9-10.2C311.9,235.3,312,239.6,312,243.9z"/>
	<path class="st13" d="M308.1,208.7c-3.1,4.5-7.4,7.8-11.8,12.5c-0.2-2.8-0.4-4.6-0.5-6.5C297.3,207.7,301.5,205.7,308.1,208.7z"/>
	<path class="st9" d="M177,266c2.9-1.3,4.3-4,6-6.5c4.9-7.1,16.4-10.1,24-6.3c3.1,1.5,5.8,7.6,5.3,11.1c-0.3,2.2-2.1,2-3.3,2.3
		c-7.9,1.9-15.8,3.9-23.7,5.4c-6.5,1.3-12.4,3.6-17.1,8.4c-0.5-2.3,0.6-3.8,2.2-5.2C173.2,272.6,175.3,269.4,177,266z"/>
	<path class="st8" d="M297.1,304.9c8.4,4.6,14,1.5,15.3-9.6c5,6.1,10.7,9.9,17.7,11.5c-6.4,5.7-12,12.4-20.4,15.3
		c-1.4,0.5-2.9,1.3-4-0.3c-1-1.4,0.2-2.5,0.7-3.6c1.9-4.1,6.1-6.5,8.3-10.4c0.6-1,1.8-1.9,0.9-3c-1.2-1.3-2.1,0.2-2.9,0.9
		c-3.6,2.9-7.3,5.5-10.4,9.1c-3.5,4-8.7,6.3-13.9,7.9c-2.5,0.8-3.7-0.4-2.6-3.3c1.5-4.3,5.7-6.4,7.8-10.2
		C294.5,307.5,295.9,306.3,297.1,304.9z"/>
	<path class="st9" d="M167.8,256c-0.3,3.5,0.3,6.7,3.2,9c-3.4,3.9-7.4,6.9-12.4,8.6c-1.4,0.5-3.1,0.9-4.1-0.4c-1-1.4-0.2-2.8,0.8-4
		C159.2,264.6,161.9,258.8,167.8,256z"/>
	<path class="st9" d="M398.9,318c0.3-1.3-0.3-2.8,0.9-4c0,3.6,0,7.3,0,10.9C398.2,322.8,399.4,320.3,398.9,318z"/>
	<path class="st8" d="M418,317c3.5-0.3,5.4-3,7.7-5.2c2.4-2.4,4.7-4.9,8.6-5.9c0,2.8-1.9,4.1-3.3,5.5c-3,3-5.3,6.3-6.5,10.4
		c-0.3,0.9-1.4,1.9-0.5,2.7c1.1,0.9,2.6,0.6,3.7-0.1c4.1-2.6,8.1-5.1,12-7.9c2.7-1.9,5-4.3,7.5-6.4c0.9-0.8,1.9-1.7,3-0.6
		c1.1,1.1,0.3,2.1-0.5,3c-3.1,3.4-5,7.3-6.2,11.8c1.6,1,3.1,0.7,4.6-0.2c6.6-4.4,13.7-8.1,19.2-14.1c1.8-2,4-3.2,6.4-4.3
		c0.8,1.8,0,2.8-0.8,3.5c-3.7,3.6-6.9,7.5-8.7,12.5c-0.5,1.4-2.3,2.2-3.6,3.3c-4.8,0.3-7.3,3.4-9.5,7.1c-3.3,5.7-7.9,9.4-14.7,9.7
		c-9.9,0.4-17.1-6.1-18.5-17.1C417.7,322.3,418,319.7,418,317z"/>
	<path class="st14" d="M212.3,282.3c-0.7,12.9-10.9,21-22.1,17.9c-4.5-1.2-7.3-4-7.7-8.7c-0.4-4.9,2.5-8,6.7-9.2
		c6.8-2,13.7-3.9,20.7-5C214.8,276.6,211,281.1,212.3,282.3z"/>
	<path class="st15" d="M313.1,265c1.4-3.2,1.9-6.7,3.8-9.7c3.6-5.5,8.6-8.4,15.1-7.9c6.4,0.5,10.6,4.3,13.1,10.1
		c2.9,6.9,2.3,14,1.8,21.1c-0.9,2-1.6,4-2.6,5.8c-3,5.2-7.2,8.5-13.6,8.6c-6.6,0-11.4-3-14.6-8.6c-0.8-1.4-1.4-3-2.1-4.5
		c-3-1.9-2.2-4.4-1-7C312.9,270.4,313,267.7,313.1,265z"/>
	<path class="st13" d="M312.9,273c0.7,2.3-0.2,4.8,1,7c-2.3,1.1-5.3,3.6-7.1,1.3c-2.1-2.8,2.1-4,3.5-6
		C310.9,274.4,312,273.8,312.9,273z"/>
</g>
</svg>
