<?xml version="1.0" encoding="utf-8"?>
<!-- Generator: Adobe Illustrator 19.0.0, SVG Export Plug-In . SVG Version: 6.00 Build 0)  -->
<svg version="1.1" id="Calque_1" xmlns="http://www.w3.org/2000/svg" xmlns:xlink="http://www.w3.org/1999/xlink" x="0px" y="0px"
	 viewBox="0 0 612 792" style="enable-background:new 0 0 612 792;" xml:space="preserve">
<style type="text/css">
	.st0{fill:#2D3E50;}
	.st1{fill:#017ABD;}
	.st2{fill:#017ABE;}
</style>
<g>
	<path class="st0" d="M289,133.3c55.5,0,111,0.1,166.5-0.1c5.1,0,6.3,1.3,6.3,6.3c-0.2,75.7-0.1,151.3-0.1,227
		c0,8.1,1.1,7.1-7.2,7.1c-52.3,0-104.7,0-157,0c-6.3,0-10.2-2.5-11.6-7.4c-1.3-4.7,0.8-8.1,4.5-10.7c2.3-1.6,5-1.5,7.7-1.5
		c46.3,0,92.7,0,139,0.1c3.7,0,4.7-0.9,4.7-4.7c-0.1-63.7-0.1-127.3,0-191c0-4.6-1.3-5.7-5.8-5.7c-98.2,0.1-196.3,0.1-294.5,0
		c-4.5,0-5.7,1.1-5.7,5.6c0.2,63.5,0.2,127,0,190.5c0,4.1,0.9,5.4,5.1,5.2c8.3-0.4,16.7-0.1,25-0.1c6.9,0,11.3,4,11.3,10
		c-0.1,5.6-4.4,9.5-11.2,9.6c-15.2,0.1-30.3-0.1-45.5,0.1c-3.8,0.1-4.3-1.4-4.3-4.7c0.1-39.2,0-78.3,0-117.5
		c0-37.5,0.1-75-0.1-112.5c0-4.5,1-5.8,5.7-5.8C177.7,133.4,233.3,133.4,289,133.3C289,133.3,289,133.3,289,133.3z"/>
	<path class="st0" d="M340.3,580.8c-23.9,35.3-76.6,38.5-102.8,0.2c-9.8,14.3-23.1,23.3-40.1,26.6c-36,6.9-70.3-20.6-71.5-57.2
		c-0.3-10.3-0.3-20.7-0.1-31c0.3-15.5,11.2-26.4,26.6-26.5c23-0.2,46,0,69,0c4.1,0,8.3,0.5,11.4,2.9c3.9,2.9,6.8,2.2,10.4-0.1
		c3.5-2.3,7.7-2.8,12-2.8c22.7,0.1,45.3,0.1,68,0c5.3,0,10.3,1.2,14.6,4.3c2,1.5,3.3,1.1,5.2-0.1c4.4-2.9,9.3-4.3,14.6-4.3
		c22.3,0.1,44.7,0,67,0.1c16.6,0,27.7,10.9,27.6,27.4c-0.1,12.8,1.5,25.8-1,38.4c-5.2,25.6-20.8,42.3-46.2,48.1
		c-25.7,5.8-46.8-2.9-62.9-23.7C341.5,582.5,341,581.8,340.3,580.8z"/>
	<path class="st1" d="M273.3,294.9c-0.4,8-0.9,15.4-1.2,22.9c-0.1,3-0.6,5.6-4.2,5.4c-3.4-0.2-3.5-2.9-3.4-5.6
		c0.4-8.8,0.5-17.7,1.1-26.5c0.5-6.8,2.8-8,9.2-6c6.5,2.1,13.1,3.8,19.6,5.8c6.1,1.9,12.2,1.1,18.3-0.1c10.5-1.9,20.8-4.3,31-7.7
		c4.2-1.4,7.2-3.6,6.5-8.6c-0.6-4.1-4.6-6.7-9.6-5.8c-7.5,1.4-15.1,2.9-22.3,5.4c-12.5,4.3-24.4,2.8-35.7-3.2
		c-8.6-4.6-17.8-5-27.1-5.9c-2.2-0.2-3.4,1-4.6,2.4c-4.1,4.8-8.2,9.7-12.3,14.5c-4.1,4.8-7.9,4.7-12,0c-3.9-4.5-7.9-9-11.6-13.7
		c-1.8-2.3-3.5-3-6.3-2c-4.8,1.8-9.8,3.3-14.8,4.5c-3.1,0.7-2.8,2.8-3.1,4.9c-1.1,9.1-0.7,18.3-0.7,27.4c-0.1,5.8,0.4,11.7-0.1,17.5
		c-0.7,8.2,1.8,15,7.7,20.7c1.6,1.6,2.3,3.5,2.4,5.8c0.3,6.5,0.7,13,1,19.5c0.5,10.9,6.1,17,17.1,17.3c9.7,0.3,19.3,0.3,29,0
		c9.8-0.3,14.6-5.6,14.8-15.5c0.2-7.2,0.6-14.3,0.8-21.5c0.1-2.9,1.1-5.1,4.3-4.8c3,0.3,3.4,2.7,3.3,5.2c-0.2,7.5-0.4,15-0.6,22.5
		c-0.4,12-6.2,19.8-18,21.5c-13.2,1.9-26.6,2-39.8-0.2c-11-1.9-17.5-10-18.3-21.2c-0.2-3-0.5-6-0.5-9c0-7.3,0-14.3-6-20.1
		c-3.3-3.2-4.6-8.1-4.6-12.9c-0.2-16.3-0.8-32.6,0.3-49c0.5-7.7,3.5-12.7,11.5-14.6c4.4-1,8.9-2.2,13-4.8c3.7-2.3,7.8-2.1,11,2.1
		c3.9,5,8.3,9.6,12.3,14.5c1.6,2,2.5,2,4.1,0c4.3-5.1,8.7-10.1,13.1-15.1c1.6-1.9,3.6-2.8,6.1-2.6c11.2,1,22.4,1.6,32.7,7.5
		c8.2,4.7,17.2,5.5,26.5,2.3c7.1-2.4,14.5-3.8,21.7-5.6c4.1-1,8.3-1,12.3,0.7c6,2.5,9.7,6.9,10.1,13.6c0.3,6.1-3.1,11.6-9.3,14
		c-14.8,5.8-30.2,9.3-46,10.6c-6.7,0.5-13.4-1.9-20-3.9C279.1,296.8,276.3,295.8,273.3,294.9z"/>
	<path class="st1" d="M225.4,442c-0.6,13.5-7.8,25.5-22.4,32.3c-14.4,6.7-28.2,4.7-40.7-5.2c-1.6-1.2-2.9-2.8-4.2-4.2
		c-1.8-2-1.4-4,0.4-5.7c1.8-1.8,3.7-1,5.4,0.3c0.9,0.7,1.7,1.6,2.5,2.4c10.1,9.5,25.2,11,36.9,3.7c12.1-7.5,17.4-22.1,12.9-35.6
		c-4.4-13.6-17.4-22.1-32.1-21c-13.1,1-24.8,11.7-27.1,24.8c-0.3,1.8-0.5,3.6-0.7,5.4c-0.2,2.8-1.6,4.5-4.4,4.3
		c-2.7-0.2-4-2.2-3.8-4.9c0.3-5.4,1.5-10.5,3.8-15.4c7.8-16.3,25.9-25.1,43.7-21.1C212.7,405.9,225.2,421.5,225.4,442z"/>
	<path class="st1" d="M353,439.4c-0.1-19.4,15.5-36.2,35.2-38.2c19-1.8,37.5,12.4,40.8,31.5c3.9,22.1-11.5,42.7-33.9,45.2
		c-1,0.1-2,0.1-3,0.1c-2.8,0.2-4.7-1.1-4.8-3.9c-0.2-2.7,1.6-4.2,4.4-4.3c3.4-0.1,6.6-0.8,9.8-1.8c12.5-4.2,21.4-16.5,21.1-29.2
		c-0.3-12.8-9.2-24.7-21.4-28.5c-12.8-4.1-26.7,0.6-34.5,11.7c-7.7,10.9-7.6,25.5,0.3,35.9c0.6,0.8,1.2,1.6,1.9,2.3
		c1.9,2,3,4.3,0.6,6.5c-2.7,2.5-4.9,0.7-6.8-1.4c-5.9-6.7-9.3-14.5-9.9-23.5C353,441,353,440.2,353,439.4z"/>
	<path class="st1" d="M250.7,439.5c-0.1-15.9,10.1-30.4,25.3-36c15.1-5.5,32-0.9,42.4,11.7c10.4,12.5,11.8,29.9,3.4,43.8
		c-0.7,1.1-1.4,2.3-2.4,3.2c-1.5,1.5-3.4,1.4-5,0.2c-1.5-1.1-1.8-2.8-0.8-4.5c0.6-1,1.1-2,1.7-3.1c7.1-13,5.4-27.2-4.5-37.2
		c-9.7-9.8-24.2-12-36.3-5.5c-11.8,6.4-18.1,19.6-15.6,32.8c2.7,13.8,13.6,23.5,28.2,24.9c0.7,0.1,1.3,0,2,0.1
		c2.6,0.3,4,1.7,3.9,4.3c-0.1,2.6-1.8,3.8-4.3,3.8c-5.6,0-10.9-1.3-15.9-3.7C259.1,467.8,250.8,454.6,250.7,439.5z"/>
	<path class="st2" d="M261.1,212.1c-1.1,9.6-3,21.4-11.8,30.6c-8.6,9.1-20.7,8.9-28.7-0.7c-9-10.7-12.5-23.5-11.3-37.2
		c1.3-14.5,15.4-23.2,31.6-20.3C254.4,186.8,261.9,196.1,261.1,212.1z"/>
</g>
</svg>
