<?xml version="1.0" encoding="utf-8"?>
<!-- Generator: Adobe Illustrator 19.0.0, SVG Export Plug-In . SVG Version: 6.00 Build 0)  -->
<svg version="1.1" id="Calque_1" xmlns="http://www.w3.org/2000/svg" xmlns:xlink="http://www.w3.org/1999/xlink" x="0px" y="0px"
	 viewBox="0 0 612 792" style="enable-background:new 0 0 612 792;" xml:space="preserve">
<g>
	<path d="M412.6,486.8c0,2.9,0,4.6,0,6.4c0,19.7,0,39.3,0,59c0,1.8,0,3.7-0.4,5.5c-0.9,3.7-3.5,5.6-7.3,5.4
		c-3.8-0.2-6.1-2.4-6.8-6.1c-0.3-1.8-0.1-3.7-0.1-5.5c0-21.1,0-42.3,0-64.6c-1.9,1.8-3.2,2.9-4.4,4.1
		c-23.2,23.2-46.4,46.4-69.6,69.6c-1.1,1.1-2,2.3-3.2,3.1c-3.4,2.4-7,2.4-9.9-0.7c-2.8-2.9-2.6-6.4-0.3-9.6c0.9-1.2,2.1-2.2,3.1-3.2
		c27-27,53.9-54,81-80.9c2.6-2.6,3.6-5.1,3.5-8.7c-0.2-13.1-0.1-26.3-0.1-40.1c-2,0-3.7,0-5.3,0c-47,0-94,0-141,0
		c-9.5,0-11.3-1.9-11.3-11.5c0-27.7-0.1-55.3,0.1-83c0-3.7-1.1-5.6-4.6-7.1c-11.6-5-23-10.3-35.2-15.8c-0.5,9.3-1,17.9-1.4,26.5
		c-1.1,23.3-2.2,46.6-3.4,69.9c-0.1,1.7-1.9,3.2-2.6,4.9c-0.7,1.7-1.4,3.5-1.4,5.3c-0.1,35.7,0,71.3,0,107c0,6.6,0,13.3,0,20
		c8.4,1.8,16.5,3.7,24.6,5.2c3,0.6,4.3,1.6,4.2,4.8c-0.2,6-0.1,11.9-0.1,19.3c-10.9-0.8-21.2-1.4-31.6-2.3c-3-0.2-5.9-1.2-8.9-1.4
		c-2-0.2-4.8-1.9-5.3,2.2c0,0.4-1.7,0.8-2.6,0.8c-7.8,0.1-15.6,0-24,0c0-45.5,0-90.7,0-136.4c-5.4,0-10.2,0-15.6,0
		c0,45.4,0,90.5,0,136.4c-8.7,0-16.9,0.1-25.2-0.1c-1.1,0-2.1-1.9-2.9-2.7c-14.6,1.3-29.3,2.5-44.5,3.8c0-8.1-0.1-14.7,0.1-21.3
		c0-1,1.9-2.4,3.2-2.7c8.2-1.9,16.6-3.6,25.5-5.5c0-1.6,0-3.6,0-5.5c0-40.2,0-80.3,0-120.5c0-2.5,1.3-5.8-2.7-7
		c-0.6-0.2-0.7-2.4-0.8-3.7c-0.3-4.7-0.6-9.3-0.5-14c0-3.3-1.1-4.7-4.7-4.6c-5.3,0.3-10.6,0.1-16.1,0.1c-0.2-1.1-0.5-1.9-0.4-2.7
		c0.9-33.8,2-67.6,2.7-101.4c0.1-4.6,1.7-6.2,6-7c13-2.1,25.9-4.6,38.8-7.2c3.7-0.7,6.1-0.1,8.5,3c6,7.8,12.5,15.2,19.2,23.2
		c6.6-7.6,13.1-14.9,19.2-22.4c2.7-3.4,5.7-4.5,10.1-4.9c19.4-1.8,37.2,2.2,53.8,12.2c5.6,3.4,11.9,5.7,18.5,8.9c0-3,0-5.1,0-7.3
		c0-25.5,0-51,0-76.5c0-8.9,2-10.8,11-10.8c102.8,0,205.6,0,308.5,0c7.9,0,10.2,2.3,10.2,10.1c0,70.5,0,141,0,211.5
		c0,8.2-2.1,10.4-10.3,10.4c-46.7,0-93.3,0-140,0c-2.1,0-4.3,0-7.1,0c0,2.3,0,4.1,0,5.9c0,11.5,0.2,23-0.1,34.5
		c-0.1,3.7,1.2,6.2,3.7,8.7c27.2,27,54.3,54.2,81.4,81.3c0.8,0.8,1.7,1.6,2.4,2.5c2.6,3.4,2.6,6.9-0.5,9.9c-3.1,3-6.7,3-9.9,0.2
		c-4.2-3.8-8.1-7.9-12.1-11.9c-20.4-20.4-40.8-40.8-61.2-61.2C415.5,489.3,414.5,488.5,412.6,486.8z M255.4,398
		c100,0,199.7,0,299.5,0c0-65.1,0-129.8,0-194.4c-100.1,0-199.8,0-299.4,0c-0.1,0.9-0.3,1.4-0.3,1.9c0,27.2-0.1,54.3,0.1,81.5
		c0,1.6,1.6,4,3.1,4.7c9.6,4.9,19.4,9.6,29.3,14c3.3,1.5,4.9,3.2,4.6,7c-0.3,5.1,0,10.3,0,15.5c0,5.2,0,10.4,0,16.3
		c-12.8-5.7-24.7-11.1-36.9-16.6C255.4,351.6,255.4,374.6,255.4,398z"/>
	<path d="M139.8,130.8c33.6-0.1,61.2,27.3,61.2,60.8c0,33.9-27.3,61.3-61.2,61.4c-33.5,0.1-61-27.2-61.1-60.9
		C78.6,158.1,105.7,130.9,139.8,130.8z"/>
</g>
</svg>
