<?xml version="1.0" encoding="utf-8"?>
<!-- Generator: Adobe Illustrator 19.0.0, SVG Export Plug-In . SVG Version: 6.00 Build 0)  -->
<svg version="1.1" id="Calque_1" xmlns="http://www.w3.org/2000/svg" xmlns:xlink="http://www.w3.org/1999/xlink" x="0px" y="0px"
	 viewBox="0 0 612 792" style="enable-background:new 0 0 612 792;" xml:space="preserve">
<style type="text/css">
	.st0{fill:#504E4E;}
	.st1{fill:#271D1B;}
	.st2{fill:#3E3938;}
	.st3{fill:#352E2C;}
	.st4{fill:#302725;}
	.st5{fill:#2E2523;}
	.st6{fill:#454140;}
	.st7{fill:#352D2C;}
	.st8{fill:#423D3C;}
	.st9{fill:#4A4646;}
	.st10{fill:#3A3332;}
</style>
<g>
	<path class="st0" d="M62,291c2-3.9,1.9-8.2,3-12.3c5.4-19.3,16.8-33.2,35.6-40.8c2.2-0.9,3.9-1.1,6,0.1
		c38,21.5,76.6,41.9,115.3,61.9c0.4,0.2,0.8,0.6,1.2,0.9c-0.7,3.9-3.7,3.4-6,2.5c-3.4-1.3-6.5-0.9-9.7,0.1
		c-3.9,1.2-7.8,1.5-11.6-0.5c-3.7-2-5,0.9-6.5,3.3c-2.8,0.9-4.8-0.9-6.9-2.1c-24.7-13.2-49.4-26.1-73.8-39.8
		c-5.7-3.2-8-2.6-12.5,2.4c-7.9,8.9-11.2,19.5-11.7,31.1c-0.2,5.5,0,11-0.1,16.5c0,2.1,0.2,4.5-2.2,5.7c-6.4,0.6-12.8,1.9-19-0.9
		c-0.4-0.7-0.7-1.3-1.1-2C62,308.3,62,299.7,62,291z"/>
	<path class="st1" d="M547.3,541.1c-8.6,27-20.1,52.5-36.1,76c-2.4,3.5-3.4,0.1-4.3-0.8c-18.5-16-37.5-31.5-57.3-45.9
		c-15.1-11.1-30.9-21.2-46.6-31.2c-1.1-2-1.1-3.9,1-5.2c2.8-1.7,5.8-2.9,9-1.3c2.6,1.3,2,3.8,1,7c4.6-2.6,8-5.4,12.1-6.8
		c6.5-2.2,9-0.5,8.7,6.4c4.7-3.1,9.2-6.6,15.2-5.4c2.6,0.3,4.6,1.9,6.6,3.3c13.3,8.8,26.5,17.7,39.5,27c4.3,3.1,4.3,3,5.2-2.1
		c0.7-3.8,0.8-7.6,2.1-11.3c4.6-6.3,11.2-9.7,18.4-11.7c4.6-1.3,5.9,0.5,6.4,6.7c3.5-1.8,6.5-4.3,9.9-5.7
		C541.4,538.7,544.5,538.4,547.3,541.1z"/>
	<path class="st2" d="M233,440c0.5-3-2.2-3-3.7-3.9c-35.6-21.9-74.1-37.2-113.6-50.2c-0.6-0.2-1.1-0.7-1.7-1
		c-1.8-1.5-5.2-2.3-4.1-5.4c0.9-2.5,3.9-2,6.2-2c16.6-0.1,33.2,0.1,49.7-0.1c2.8-0.7,5.2,0.6,7.5,2c17.5,10.2,35.2,20.1,52.8,30.1
		c4.3,2.4,4.3,2.4,4.7-2.6c0.3-4,1.1-7.9,1.1-11.9c0-2.3,0.9-4.2,2.9-5.5c2.2-1.1,4.5-1,6.8-1.1c15.2,0,30.5,0,45.7,0
		c2.5,0,5-0.2,7.2,1.4c1.7,1.7,0.7,3.4-0.2,5c-6.8,12.2-10.6,25.2-12.3,39c-0.2,2.1-0.5,4.3-1.7,6.2c-2.4,1.5-5.1,1.3-6.9-0.3
		c-4.1-3.5-8.3-2.8-12.5-1.1c-3.5,1.4-6.4,2.4-10-0.4c-3-2.2-7-0.9-10.5,0.5C238.1,439.7,235.8,441.6,233,440z"/>
	<path class="st3" d="M233,440c5.4-1,10.1-5.2,16.1-4c1.1,0.2,3,0,3.2,0.6c2,5.1,4.9,1.8,7.6,1c4.8-1.4,9.6-4.4,14,1.3
		c1,1.2,4,0.8,6,1.1c2-0.2,3.5,0.8,5.1,1.6c15.1,7.2,29.5,15.6,44.6,22.9c1.5,0.7,3.6,1.2,3.6,3.6c-2.2,2.4-5.3,3.3-8.3,4.4
		c-1.6,0.6-3.4,0.7-4.7-0.6c-3.5-3.5-7.2-2.5-11.1-0.9c-3.9,1.6-7.7,4.2-11.5-0.6c-1.4-1.7-3.7,0-5.6,0.5c-6.3-3.8-6.3-3.8-11,2.3
		c-3.2-4-7-4.3-11.4-2.3c-4,1.9-7.9,3.4-11.7-0.6c-1-1.1-2.9-1-4.3-0.5c-5.3,1.8-10.8,2.9-15.7,5.7c-1.6-6.7-1.6-6.7-8.2-3.3
		c-8.8,4.6-17.7,9.1-26.5,13.8c-2.5,1.3-4.6,1.6-7.4,0.3c-10.8-5-21.8-9.7-32.7-14.6c-1-0.4-2.3-0.5-2.8-2.2
		C184.6,459.6,208.8,449.8,233,440z"/>
	<path class="st4" d="M450.1,534.9c-7.2-1.5-11.7,4.3-17.7,6.8c-0.1-1-0.3-1.5-0.2-1.9c0.3-2,3-3.8,0.9-5.9c-2.1-2.2-4.7-0.5-7,0.1
		c-5,1.5-8.5,5.8-13.5,7.3c-2.1-2.5,5.3-7.4-2-8.4c-4.2-0.6-7.3,2.1-7.7,6.1c-25.6-15.5-51.9-29.8-76.9-46.2c-1-1.1-0.5-2.2,0.3-3.2
		c2.1-2.7,5.1-3.8,8.3-3.9c3-0.1,6.4-0.9,7.6,3.6c0.7,2.3,2.5,0.5,3.6-0.2c3.6-2.4,7.4-3.8,11.7-3.4c1.3,0.1,3.2,0.1,3.6,1.4
		c1.4,5.3,3.9,2.6,6.3,1.1c1-0.6,2-1.1,3.2-1.2c6.1,0.6,10.6,4.6,15.6,7.4c20.3,11.3,40.2,23.3,59.7,36.1
		C447.6,531.6,450,532.3,450.1,534.9z"/>
	<path class="st5" d="M547.3,541.1c-5.9-2.3-10.5,0.6-15,3.8c-1.3,1-2.8,1.8-4.2,2.6c-0.7,0.4-1.6,0.7-2.3,0
		c-0.8-0.8-0.1-1.5,0.2-2.2c1.5-4.8,0-6.7-4.8-5c-6.4,2.3-12.2,5.7-16.9,10.8c-1.8-1.5-1-3.4-0.6-5.1c4.3-22.6,10.9-44.4,21.5-64.9
		c0.9-1.7,1.3-3.9,3.8-4.1c0.8,0.2,2.2,0.2,2.3,0.5c1.6,5.8,4.7,2.4,7.4,1.2c2.8-1.3,5.5-3,8.9-2.8c2.4,0.2,4.7-0.3,4.7,3.3
		c0,1.9,1.6,1.7,2.9,1.2c2-0.8,3.9-1.6,5.9-2.4c0.5,9.4-2.2,18.3-4.1,27.3C554.4,517.4,551.7,529.5,547.3,541.1z"/>
	<path class="st6" d="M167.1,377.7c-1.5,2.1-3.6,1.2-5.5,1.2c-14.9,0.1-29.9,0-44.8,0.1c-2.1,0-5-1.1-6,0.8c-1,2.1,2.5,3,3.2,5
		c-7.9-2.4-15.8-4.8-23.7-7.1c-1.9-0.6-2.6-1.5-2.4-3.6c0.6-4.6,0.6-9.3,1.4-13.8c0.6-3.3-0.6-4.8-3.3-6.2c-4.8-2.6-9.4-5.6-14.2-8
		c-3.1-1.5-4.8-3.5-5.5-6.9c-1.3-6.7-3.6-13.3-3.3-20.3c6.7,0,13.3,0,20,0c1.2,1,1.8,2.5,1.8,4c0,4.9,2.9,7.3,6.8,9.5
		c23.9,13.6,47.6,27.5,71.5,41.2C164.8,374.6,167,375.2,167.1,377.7z"/>
	<path class="st7" d="M237.8,475.3c0.2-1.4,0-3.3,2.2-3.2c4,0.1,7.3-2.2,10.9-3.2c3.5-1,7.1-2.4,9.6,2c0.9,1.6,2.6,1,4,0.4
		c2.6-1,5.2-2.2,7.9-2.9c4.1-1,7.8-0.7,8.4,4.7c-12.1,18.6-24.1,37.2-36.2,55.8c-0.4,0-0.8-0.1-1.2-0.1
		C241.7,510.9,239.8,493.1,237.8,475.3z"/>
	<path class="st7" d="M371.3,487.8c-2.9,0.5-4.8,2.9-7.3,4.1c-2.1,1.1-4.5,2-3.4-2.1c0.7-2.6-0.7-2.7-2.6-2.9c-5-0.5-9,1.5-12.9,4.3
		c-1.9,1.4-5.6,4.3-4.3-2c0.2-1.1-0.3-1.8-1.5-2.1c-4.8-1.5-11.1,1.2-13.2,5.9c-11.8-6.7-23-14.3-34-22.2c3.4-3.9,5.5-3.9,8,0.2
		c0.9,1.5,1.7,1.6,3.2,1c3-1.3,6.1-2.7,9.2-3.5c2.8-0.7,5.9-1.5,7.8,2c1,1.9,2.6,1.6,4.3,0.9c2.9-1.2,5.8-2.3,8.7-3.4
		c1.7-1,3.2,0,4.6,0.7c10.3,4.8,20.1,10.6,30.3,15.7C369.7,485,371.3,485.8,371.3,487.8z"/>
	<path class="st8" d="M295.3,391.1c-1.7-0.9-3.4-1.1-5.3-1.1c-17.1,0-34.1,0-51.2,0c-1.7,0-3.3,0.2-4.8,1c-1.5-1.5-1.1-3.3-0.9-5.1
		c1.6-11.2,5.2-21.9,9.5-32.3c0.8-2,1.7-4,4.1-4.7c5.3-0.9,10.6-0.4,15.9-0.4c12.3-0.1,24.6,0,36.9,0c8.6,0,17.3-0.6,25.6,2.5
		c21.1,9.6,42.2,19.3,63.4,28.7c20.1,8.9,40.4,17.5,60.6,26.2c-0.9,2-2.2,2.6-4.3,1.4c-5.1-2.8-10.3-3.1-15.5-0.3
		c-2.1,1.1-3.3,0.6-5.2-0.7c-4.8-3.3-14.3-1.1-17,3.6c-2.1,1.2-3.9-0.1-5.6-0.8c-27.7-11.8-55-24.4-82.3-37.2
		c-3.5-1.6-5.8-1.2-8.3,1.6c-4,4.3-7.6,8.8-11,13.6C298.6,388.6,297.9,391,295.3,391.1z"/>
	<path class="st9" d="M289.5,333.6c-22.1-10.9-44.2-21.9-66.3-32.8c-1.9,2-4.2,2.7-6.6,1c-2.5-1.7-4.8-1.1-7.5-0.4
		c-4.2,1.3-8.4,2.9-12.9,0.2c-4.3-2.6-6.7-1.2-7.2,4.1c19.8,10.1,39.5,20.3,59.3,30.3c3.4,1.7,3.8,3,1.7,6.1
		c-1.7,2.4-2.8,5.3-4.1,7.9c25.8,1.1,51.7-2,77.4,1.7c0.6,0.1,1.2-0.4,1.8-0.7C313.2,345.2,301.3,339.4,289.5,333.6z"/>
	<path class="st10" d="M513.7,430.6c-21.6-8-43.1-16.5-64.6-24.8c-1.7,0.7-3.2,0.2-4.8-0.4c-4.8-1.8-9.6-2.3-14.4-0.2
		c-2,0.9-3.8,0.5-5.7-0.3c-4.7-2-9.4-1.5-14,0.3c-2,0.8-3.9,1.8-3.7,4.5c0.2,0.1,0.4,0.1,0.5,0.2c14.7,7.1,30.1,12.8,45.2,19
		c27.2,11.1,54.7,21.3,82.5,31c1.1,0.4,2.3,0.5,3,1.6c-2.9,5.2-6.7,9.9-8.8,15.5c0,0.1-0.1,0.1-0.1,0.2c0,0.1,0,0.1,0,0.2
		c4.4,5.4,4.4,5.4,10.7,2.4c1.3-0.6,2.6-1.4,4.1-1.8c3-0.7,5.9-1.5,7.7,2.2c0.9,1.8,2.6,1.8,4.3,1.3c2.1-0.6,3.9-1.7,5.4-3.5
		c0.4-3,0.1-5.9-0.8-8.8c-0.5-1.6-0.6-3.2,0.8-4.6c4.3-4.3,8.1-9,13-12.7c0-0.3,0-0.7,0-1C553.7,444.9,533.6,438,513.7,430.6z"/>
</g>
</svg>
