<?xml version="1.0" encoding="utf-8"?>
<!-- Generator: Adobe Illustrator 19.0.0, SVG Export Plug-In . SVG Version: 6.00 Build 0)  -->
<svg version="1.1" id="Calque_1" xmlns="http://www.w3.org/2000/svg" xmlns:xlink="http://www.w3.org/1999/xlink" x="0px" y="0px"
	 viewBox="0 0 612 792" style="enable-background:new 0 0 612 792;" xml:space="preserve">
<g>
	<path d="M342.4,557.1c27.4-44.9,91.2-45.2,119.6,0.2c1.1-1.4,2-2.7,2.9-3.9c16.4-23.7,44.7-34.7,72.6-28.3
		c27.6,6.3,48.4,29.1,52.7,57.5c0.1,0.7,0.2,1.3,0.3,2c1.3,7.4,0,8.9-7.7,8.9c-14.7,0-29.3,0-44,0c-105.6,0-211.2,0-316.8,0
		c-8,0-9.1-1.3-8-9c4.2-29.9,24.7-52.8,53-59.5c28.2-6.6,56.5,4.9,73.5,29.6C341.1,555.5,341.7,556.2,342.4,557.1z M224.8,583.1
		c118.4,0,236.7,0,355.1,0c-3.9-34.2-40.7-57.6-74.6-47.5c-17.8,5.3-30.3,16.8-37.9,33.8c-2,4.5-5.1,6.2-7.8,4.1
		c-1.5-1.1-2.4-3.1-3.2-4.9c-10.9-22.5-28.7-35-53.7-35.2c-25.2-0.2-43.2,12.4-54.4,34.9c-1.3,2.7-1.9,5.9-5.8,5.9
		c-3.9,0-4.7-3.2-5.9-5.9c-12.1-26.7-40.8-40.5-69.1-33.2C245.2,540.9,226.3,562,224.8,583.1z"/>
	<path d="M296.3,293.1c7.2,9.7,7.3,15.1,0.9,24.4c-11.6,16.9-23.2,33.8-34.8,50.6c-6.3,9.2-13.6,11.5-24.2,7.8c-8.8-3-17.6-5.9-27-9
		c0,2.3,0,4.1,0,5.8c0,31.5,0,63,0,94.5c0,7-1.1,8.3-8,8.3c-38,0-76,0-114,0c-6.9,0-8-1.2-8-8.2c0-32.5,0-65,0-97.5
		c0.1-37.6,34.5-67.9,71.8-63.4c20.5,2.5,39.6,9.9,58.9,16.7c7.5,2.7,15,5.5,22.3,8.7c3.9,1.7,5.8,0.7,8-2.6
		c7.7-11.7,15.8-23.1,23.5-34.8c4.6-7,10.6-9.9,18.7-7.6c3.2,0.9,4.4-0.5,5.9-2.8c9.7-15.1,19.5-30.2,29.3-45.3
		c0.8-1.3,1.5-3,2.7-3.5c1.8-0.8,4.4-1.4,5.8-0.6c1.4,0.8,2.1,3.5,2.1,5.4c0,1.4-1.4,2.9-2.3,4.3
		C317.4,260.6,306.9,276.8,296.3,293.1z M201.2,465.3c0-10.3,0-19.9,0-29.6c0-24.5,0-49,0-73.5c0-6.3,2.8-8.4,8.3-6.5
		c11,3.7,22.1,7.3,33.1,11.2c4.9,1.7,8.2,0.6,11.1-3.7c11.8-17.4,23.8-34.6,35.6-51.9c3.7-5.4,2.9-9.3-2.5-13.1
		c-5.4-3.8-9.3-3.1-13,2.2c-9,13.2-18.1,26.4-26.9,39.7c-2.7,4.1-5.4,5.6-10.3,3.4c-7.4-3.3-15.1-6.1-22.8-8.9
		c-20-7.3-39.7-15.6-61.1-18c-32-3.7-61.7,18.7-61.5,53.3c0.2,30.3,0,60.6,0.1,91c0,1.4,0.2,2.9,0.3,4.5
		C128.1,465.3,164.3,465.3,201.2,465.3z"/>
	<path d="M322.6,144.5c50.3,0,100.7,0,151,0c14,0,20.9,6.9,20.9,20.8c0,60.3,0,120.7,0,181c0,13.9-6.9,20.8-20.9,20.8
		c-59.3,0-118.7,0-178,0c-1.5,0-3.4,0.5-4.4-0.2c-1.8-1.3-4.1-3.2-4.3-5c-0.2-1.4,2.3-3.8,4.1-4.6c1.8-0.8,4.3-0.3,6.4-0.3
		c58.2,0,116.3,0,174.5,0c1.8,0,3.7,0,5.5,0c4.4-0.1,6.8-2.3,7-6.7c0.1-2,0.1-4,0.1-6c0-59.8,0-119.7,0-179.5
		c0-8.7-1.4-10.2-10.2-10.2c-101.3,0-202.6,0-304,0c-8.1,0-9.9,1.8-10,10c0,5.7,0,11.3,0,17c0,3.3-1.3,5.6-4.9,5.6
		c-3.5,0-5-2.3-5.1-5.5c-0.1-6.7-0.3-13.3,0.1-20c0.6-10.2,8.6-17.1,19.6-17.2c26.7,0,53.3,0,80,0
		C274.3,144.5,298.4,144.5,322.6,144.5C322.6,144.5,322.6,144.5,322.6,144.5z"/>
	<path d="M573.3,465.5c-0.1,27.9-23.9,51.6-51.8,51.5c-27.5-0.2-51.2-24.1-51.2-51.7c0-27.5,23.9-51.4,51.5-51.3
		C549.9,414,573.4,437.4,573.3,465.5z M563.3,465.7c0.1-23.7-17.4-41.6-41-41.7c-23.7-0.2-41.7,17.4-42,40.9
		c-0.3,23.6,17.8,42.1,41.4,42.1C545.3,507,563.2,489.2,563.3,465.7z"/>
	<path d="M282.7,413.9c28.1,0.1,51.6,23.6,51.5,51.7c0,27.8-24.1,51.6-52,51.4c-27.8-0.2-51.3-24.3-51.1-52.3
		C231.3,437.3,255.2,413.8,282.7,413.9z M283.3,423.9c-23.8-0.2-41.9,17.3-42.1,40.7c-0.2,23.9,17.6,42.2,41.2,42.3
		c23.6,0.1,41.6-17.6,41.8-41.1C324.4,442.1,306.8,424.1,283.3,423.9z"/>
	<path d="M350.8,465.1c0-27.4,23.6-51.1,51-51.2c28.1-0.1,51.9,23.3,52.1,51.2c0.2,27.7-23.8,51.8-51.6,51.8
		C374.4,516.9,350.9,493.2,350.8,465.1z M360.8,465.3c0,23.6,17.8,41.6,41.2,41.6c23.7,0,41.8-18.1,41.8-41.8
		c-0.1-23.5-18-41.3-41.6-41.3C378.6,423.9,360.9,441.6,360.8,465.3z"/>
	<path d="M93.7,248c0.1-24,19.8-48.6,49.5-48.8c26.7-0.2,49.2,23.7,48.9,50c-0.4,26.3-23.8,49-49.8,48.5
		C115.6,297.1,93.3,274.3,93.7,248z M103.7,248.6c0.1,22.2,16.7,39,38.8,39.1c22.5,0.1,39.6-17,39.5-39.5
		c-0.1-18.5-13.3-39.3-41.6-38.8C120.4,209.7,103.7,227.2,103.7,248.6z"/>
</g>
</svg>
