<?xml version="1.0" encoding="utf-8"?>
<!-- Generator: Adobe Illustrator 19.0.0, SVG Export Plug-In . SVG Version: 6.00 Build 0)  -->
<svg version="1.1" id="Calque_1" xmlns="http://www.w3.org/2000/svg" xmlns:xlink="http://www.w3.org/1999/xlink" x="0px" y="0px"
	 viewBox="0 0 612 792" style="enable-background:new 0 0 612 792;" xml:space="preserve">
<style type="text/css">
	.st0{fill:#267FB9;}
	.st1{fill:#36495D;}
	.st2{fill:#2B3E50;}
	.st3{fill:#209F84;}
	.st4{fill:#F29B16;}
</style>
<g>
	<path class="st0" d="M172.8,267.4c0,34.3-0.1,67.1,0.1,99.9c0,4.3-0.8,5.9-5.6,5.9c-28.5-0.2-57-0.2-85.4,0c-4,0-5.1-1.1-4.9-5
		c0.3-5.6-0.1-11.3,0.2-17c0.2-4.3-1.2-7.5-4.4-10.5c-13.4-12.3-23.6-27-31.6-43.3c-6.6-13.3-6.7-26.2,0.8-39
		c1.9-3.3,3.8-6.7,6.1-9.7c14.6-18.3,33.1-31.7,54-41.9c11.8-5.7,12.7-4.8,14.1,8.1c0.9,8.8,2.1,17.5,3.2,26.3
		c2-1.3,1.6-3.3,1.7-5.2c0.4-9,0.9-18,1.3-26.9c0.1-3.7,0.7-6.1,5.6-5.9c4.8,0.2,3.8,3.2,3.9,5.8c0.5,9.5,0.9,19,1.3,28.4
		c0.1,1.4,0.2,2.8,1.5,4.2c1.4-8.2,2.9-16.4,4.4-24.7c0.6-3.3,1.4-6.5,1.8-9.8c0.3-2.9,1.5-2.9,3.9-2.4c12.1,2.4,21.6,9.2,30.5,17.1
		c7.6,6.8,14.8,14,21.6,21.5c0.2,0.2,0.5,0.5,0.7,0.7c11.3,12.1,15.5,12.5,28.4,2.3c10.2-8,21-15.3,32.4-21.5
		c3.1-1.7,5.2-1.9,7.1,1.8c2.4,4.6,5.4,8.8,8.3,13c1.6,2.3,1.3,4-0.7,5.6c-18.5,14.4-35.8,30.4-56.6,41.7c-4.1,2.2-7.6,2.2-11.6-0.4
		C194.6,280.3,184.3,274.3,172.8,267.4z"/>
	<path class="st1" d="M283.3,599.7c-24-0.6-49.6-2.2-74.4-9.7c-10.2-3.1-10.9-4.3-9.8-14.8c2.6-22.9,20.9-39.4,43.9-39.5
		c5.8,0,11.7-0.2,17.5,0c2.6,0.1,3.7-0.7,3.4-3.4c-0.1-1-0.1-2,0-3c0.8-8.8,0.2-16.1-8.7-22c-8.5-5.6-12.4-15.4-13.5-25.8
		c-1.2-11.7-1.6-23.3,3.4-34.3c8.7-18.8,29-29.2,49-25.2c20.2,4.1,35.2,22.1,35.5,43.2c0.2,8.6,0.5,17.3-2.7,25.6
		c-3.4,9-9,16.3-17,21.6c-2.2,1.4-3.2,2.9-3.1,5.6c0.2,4.7,0.3,9.3,0,14c-0.2,3.2,1.1,3.9,4,3.8c5.8-0.2,11.7-0.1,17.5,0
		c25.6,0.3,45,21.4,43.6,47c-0.2,3.5-2.5,4.4-4.9,5.4c-9.8,4-20.1,5.9-30.4,7.5C319.6,598.5,302.3,599.6,283.3,599.7z"/>
	<path class="st2" d="M218,296.3c0,11.6,0.2,22.2-0.1,32.9c-0.1,3.8,0.8,5,4.8,5c72.1-0.1,144.3-0.1,216.4-0.1
		c23.3,0,46.7-0.1,70,0.1c4,0,4.9-1.1,4.9-5c-0.1-51.7-0.1-103.3,0-155c0-4.1-1.2-4.9-5-4.9c-95.5,0.1-190.9,0.1-286.4,0
		c-3.8,0-4.7,1-4.6,4.7c0.2,21-0.1,42,0.2,63c0.1,5.2-2.7,5.5-6.2,5.1c-3.4-0.4-8,1-8-5.3c0.2-21.7,0-43.3,0.1-65
		c0-3.1-0.3-5.3-4.1-4.6c-3.7,0.7-4.7-1.1-4.3-4.5c0.1-1,0.1-2,0-3c-0.6-3.9,1-4.9,4.9-4.9c101,0.1,201.9,0.1,302.9,0.1
		c9.5,0,19,0.1,28.5-0.1c3.2-0.1,4.6,0.7,4.1,4.1c-0.2,1.5-0.2,3,0,4.5c0.5,3.2-0.9,4.3-3.9,3.8c-3.6-0.6-4.4,1-4.4,4.4
		c0.1,52.8,0.1,105.6,0,158.5c0,3.1,0.7,4.7,4.1,4.2c3.1-0.5,4.6,0.6,4.2,4c-0.5,4.8,1.9,11-0.9,14c-2.8,3-9.1,0.9-13.9,0.9
		c-106.5,0.1-212.9,0-319.4,0.1c-4.8,0-7.2-0.9-6.2-6.1c0.3-1.9,0.2-4,0-6c-0.4-4.4-0.3-8.1,5.9-7c3,0.5,2.4-1.9,2.4-3.6
		c0-9.2,0.1-18.3,0-27.5c0-3.1-0.1-5,4-4C211.3,300,214.4,297.9,218,296.3z"/>
	<path class="st1" d="M328.8,529.9c5.5-3.3,10.5-4.8,15.8-5c5.2-0.1,10.3-0.2,15.5,0c2.6,0.1,3.6-0.8,3.4-3.4
		c-0.2-3.7-0.1-7.3-0.2-11c0-1.4-0.1-2.6-1.4-3.5c-14.6-9.2-17.3-23.4-16.4-39.2c1.1-18.8,16.4-33.5,34.9-33.5
		c18.8,0.1,34.1,15.1,34.7,34.2c0.3,9,0.5,18-4.4,26.2c-2.4,3.9-5.2,7.3-8.7,10.2c-1.6,1.3-4.4,1.8-4.5,4.3
		c-0.2,4.8-0.1,9.6,0.2,14.5c0.1,1.8,2.1,1.2,3.3,1.2c4.7,0.1,9.3-0.1,14,0.1c19.4,0.5,34.5,16.6,33.7,35.9
		c-0.1,2.8-1.1,3.2-3.5,3.2c-21.5-0.1-43-0.1-64.4,0c-2,0-3.2-0.2-4-2.6c-8.1-21.5-21.6-30.8-44.7-31.3
		C331.4,530.1,330.7,530,328.8,529.9z"/>
	<path class="st1" d="M241.5,529.9c-6,0.4-11.5,0.3-17,1.8c-14.8,4.3-24.9,13.7-29.9,28.2c-1,3-2.1,4.2-5.4,4.2
		c-20.8-0.2-41.6-0.2-62.4,0c-3.7,0-4.7-0.9-4.7-4.7c0.3-19.1,15.1-34.3,34.1-34.6c4.7-0.1,9.3-0.1,14,0c2.4,0.1,3.3-0.8,3.2-3.2
		c-0.1-3.5-0.1-7,0.1-10.5c0.1-2.2-0.7-3.6-2.5-4.9c-10.4-7.3-15.3-17.5-15.3-30.3c0-9.4,0.5-18.6,6.3-26.7
		c8.7-12.1,23.7-17.7,37.9-13.7c14.6,4.1,24.8,16.6,25.5,31.6c0.3,6.1,0.6,12.3-0.8,18.4c-1.9,7.9-6,14.5-12.6,19.2
		c-3.4,2.4-4.6,4.9-4.5,9c0.3,10.9,0.1,10.9,11,10.9C231.6,524.8,235.1,525.6,241.5,529.9z"/>
	<path class="st3" d="M462.3,199c7.6,0,14.1,0.1,20.6,0c2.4,0,3.2,0.7,3.1,3.1c-0.1,6.6,0,13.3,0,19.9c-2,0.2-2.5-1.2-3.4-2.1
		c-5.1-4.9-5.1-5-10.6-0.2c-11.8,10.3-23.7,20.5-35.3,31c-3.4,3-5.3,3.8-8.4-0.4c-3.6-5-8.2-9.2-11.9-14.1c-2.5-3.3-4.1-3.5-7.3-0.7
		c-19.5,17.2-39.2,34.1-58.6,51.3c-3.6,3.2-5.3,3.2-8.4-0.7c-6.2-7.8-12.9-15.2-19.5-22.8c-4.4-5.1-4.4-5.1-9.7-0.5
		c-19.1,16.6-38.2,33.2-57.4,49.7c-1.2,1.1-2.5,3.6-4.4,2.1c-2.3-1.8-4.6-4-5.7-6.8c-0.4-0.9,1.1-1.5,1.8-2.1
		c23.1-20.1,46.3-40.1,69.4-60.3c2.4-2.1,3.5-1.2,5.1,0.7c7.4,8.6,15,16.9,22.2,25.7c2.7,3.3,4.1,2.7,6.8,0.3
		c19.7-17.2,39.5-34.2,59.1-51.5c3.3-2.9,5-3,7.7,0.6c4.1,5.4,9,10.3,13.3,15.6c1.7,2.1,2.7,2,4.7,0.3c10.6-9.4,21.3-18.7,32.1-27.8
		c2.2-1.9,1.9-3,0.1-4.6C466.2,203.2,464.7,201.4,462.3,199z"/>
	<path class="st4" d="M156.5,154.8c-1,15.6-9.2,27.9-22.6,36.9c-5,3.3-10.3,2.8-15.5-0.3c-15.3-9.2-23.9-33.3-17.9-50
		c4.3-12,16.8-20.2,28.7-18.9c14.3,1.6,25.2,12.1,26.9,25.9C156.2,150.1,156.3,152,156.5,154.8z"/>
	<path class="st4" d="M298.6,209.3c2.6,3.2,1.5,7.3,2.8,10.8c0.1,0.2-0.4,0.8-0.3,0.9c5.5,6.8-1.5,7.4-4.9,9.4
		c-4.7,2.8-9.8,4.9-14.7,7.4c-2.2,1.1-3.8,1.1-5.3-1.4c-2.2-3.7-4.6-7.3-7.2-10.8c-1.4-2-1.5-3.5,0.5-5c4.5-3.3,8.2-7.2,11.5-11.6
		c0.8-1.1,1.9-2.4,3.2-2c6.4,1.8,10.4-3,15.3-5.2c1.7-0.7,3.2-1.8,4.8-2.6c1.6-0.7,3.4-0.8,4.3,1.1c0.8,1.8,0.2,3.2-1.6,4.2
		C304.4,206.1,301.5,207.7,298.6,209.3z"/>
</g>
</svg>
