<?xml version="1.0" encoding="utf-8"?>
<!-- Generator: Adobe Illustrator 19.0.0, SVG Export Plug-In . SVG Version: 6.00 Build 0)  -->
<svg version="1.1" id="Calque_1" xmlns="http://www.w3.org/2000/svg" xmlns:xlink="http://www.w3.org/1999/xlink" x="0px" y="0px"
	 viewBox="0 0 612 792" style="enable-background:new 0 0 612 792;" xml:space="preserve">
<g>
	<path d="M50,547c1.7-1,1.3-2.9,1.7-4.4c6.3-22.4,26.8-38.3,50.2-38.7c25-0.4,37.8,5.6,53.1,25.3c11.7-18,28.2-27,49.6-27.3
		c21.4-0.3,38.4,7.8,50.9,26c12-17.6,28.6-26,49.7-26c21.3,0,37.9,8.4,50,26c21-34.3,77.2-35.3,99.5-0.2c0.7-0.8,1.4-1.5,1.9-2.3
		c20.1-29.6,64.7-29.3,86.1-10.7c9.4,8.1,15.6,18,18.1,30.2c0.2,0.8-0.1,1.7,1,2c0,4.7,0,9.3,0,14c-1.5,1.3-3.3,1.5-5.1,1.6
		c-1.7,0.1-3.3,0-5,0c-163.9,0-327.8,0-491.8,0c-3.4,0-7.1,0.8-10.1-1.6C50,556.3,50,551.7,50,547z"/>
	<path d="M305.1,322.9c-21.3,0-42.6,0-64,0c-7.9,0-8.1,0.1-7.9-7.7c0.2-12.6-1.3-25.4,1.3-37.9c5.7-27.7,28.1-49.1,56.1-53.2
		c21.9-3.2,42.9-0.6,61,13.7c16.7,13.1,25.4,30.4,25.9,51.7c0.2,9.2-0.1,18.3,0.1,27.5c0.1,3.3-0.8,4.2-4.2,4.2
		c-22.8-0.1-45.6-0.1-68.5-0.1C305.1,321.8,305.1,322.3,305.1,322.9z"/>
	<path d="M505.4,429.5c-136.2,0-271.6,0-407.2,0c7.5-18.2,20.8-30,40.3-33.8c19.8-3.9,44.7-2.1,63.8,24.5
		c12-17.6,28.7-25.9,49.8-25.9c21,0,37.6,8.3,49.5,25.8c21.4-34.8,78.5-34.5,100,0.1c15.5-22.7,37.5-29.3,63.3-24.6
		C483.9,399.1,497.2,410.6,505.4,429.5z"/>
	<path d="M337.4,172.9c0,17.8-14.2,32-31.9,32.1c-17.6,0-32.1-14.3-32.2-31.9c-0.1-17.5,14.5-32.1,32.1-32.1
		C323.1,141,337.4,155.2,337.4,172.9z"/>
	<path d="M405.1,490.1c-13.7,0-24.8-10.9-24.8-24.6c0-13.5,11.3-24.6,24.9-24.5c13.4,0.1,24.4,11,24.5,24.4
		C429.9,479,418.8,490.1,405.1,490.1z"/>
	<path d="M251.8,385c-13.6-0.1-24.7-11.4-24.5-24.9c0.2-13.4,11.3-24.2,24.7-24.2c13.8,0,24.8,11,24.7,24.6
		C276.6,374,265.4,385.1,251.8,385z"/>
	<path d="M106.1,490.1c-13.8,0-24.8-11.1-24.6-24.8c0.1-13.4,11.3-24.4,24.7-24.3c13.7,0,24.9,11.3,24.7,24.9
		C130.7,479.4,119.7,490.1,106.1,490.1z"/>
	<path d="M152.3,335.9c13.9,0,24.8,10.9,24.7,24.7c-0.1,13.4-11.1,24.4-24.5,24.4c-13.8,0-24.7-10.9-24.7-24.8
		C127.8,346.7,138.7,335.9,152.3,335.9z"/>
	<path d="M451.3,335.9c13.8,0.1,24.8,11.1,24.7,24.8c-0.1,13.4-11.2,24.3-24.7,24.3c-13.7,0-24.7-11.1-24.6-24.9
		C426.8,346.6,437.7,335.8,451.3,335.9z"/>
	<path d="M529.2,465.8c-0.1,13.8-11,24.4-25,24.3c-13.5-0.1-24.3-11.3-24.2-24.7c0.1-13.6,11.4-24.5,25.1-24.4
		C518.6,441.2,529.3,452.2,529.2,465.8z"/>
	<path d="M230.3,465.7c0,13.8-10.9,24.5-24.9,24.4C192,490,181,479,181.1,465.5c0-13.6,11.3-24.7,25-24.5
		C219.6,441.1,230.4,452.1,230.3,465.7z"/>
	<path d="M376.2,360.3c0.1,13.8-10.9,24.8-24.7,24.7c-13.5,0-24.4-11-24.5-24.4c-0.1-13.5,10.8-24.6,24.2-24.7
		C365.2,335.8,376.1,346.5,376.2,360.3z"/>
	<path d="M305.4,490.1c-13.9,0-24.7-10.9-24.6-24.7c0.1-13.5,11-24.4,24.6-24.4c13.7,0,24.7,11.1,24.6,24.8
		C329.9,479.3,319,490.1,305.4,490.1z"/>
</g>
</svg>
