<?xml version="1.0" encoding="utf-8"?>
<!-- Generator: Adobe Illustrator 19.0.0, SVG Export Plug-In . SVG Version: 6.00 Build 0)  -->
<svg version="1.1" id="Calque_1" xmlns="http://www.w3.org/2000/svg" xmlns:xlink="http://www.w3.org/1999/xlink" x="0px" y="0px"
	 viewBox="0 0 612 792" style="enable-background:new 0 0 612 792;" xml:space="preserve">
<style type="text/css">
	.st0{fill:#1B556E;}
	.st1{fill:#E5552B;}
	.st2{fill:#5BD1F1;}
	.st3{fill:#D99115;}
	.st4{fill:#EB8A6C;}
	.st5{fill:#BDEAF2;}
	.st6{fill:#F4CD89;}
	.st7{fill:#293741;}
</style>
<g>
	<path class="st0" d="M417,327.2c0,29.2,0,58.4,0,87.7c-2.4,2.5-5.6,1.8-8.5,1.8c-38.5,0.1-77,0-115.5,0c-51.7,0-103.3,0-155,0
		c-3.1,0-6.4,0.8-9-1.8c0-74.6,0-149.1,0-223.7c2.4-2.5,5.6-1.8,8.5-1.8c38-0.1,76,0,114,0c52.2,0,104.3,0,156.5,0
		c3.1,0,6.4-0.8,9,1.8c0,31.8-0.1,63.6-0.1,95.4c-1.3,1.2-2.2,0-2.9-0.7c-7-7.1-14.3-13.9-21.1-21.1c-4-4.2-8.5-7.9-12.3-12.4
		c-2-2.4-4.3-2.7-6.7-0.1c-5.1,5.3-10.2,10.5-15.5,15.5c-2.5,2.4-2.4,4.5-0.1,6.7c7.4,6.9,14.3,14.3,21.5,21.4
		c8.7,8.4,17.1,17.1,25.8,25.6c2.6,2.6,5,4.7,8.9,4.4C415.4,325.8,416.5,326.2,417,327.2z"/>
	<path class="st1" d="M417,327.2c-6,0.8-10-1.9-14.2-6.2c-15.3-15.8-30.9-31.2-46.6-46.7c-2.7-2.7-2.6-4.2,0.1-6.7
		c6.1-5.7,12-11.6,17.7-17.7c2.3-2.5,3.7-2.2,6,0.1c11,11.2,22.1,22.2,33.2,33.2c1.2,1.2,2.4,2.2,3.7,3.4c4.5,6.5,10.3,8.9,18.5,8.6
		c20.7-0.7,41.5-0.2,63.2-0.2c-24.1-7.7-36.7-25.4-33.3-45.6c3.6-21.2,20.4-35.1,41.7-34.4c19,0.5,35.3,15.9,37.8,35.6
		c2.5,20.1-10.7,38.1-32.4,44.4c10.5,0,21,0,31.5,0c19.2,0,33.1,13.9,33.1,33c0,16.8-0.1,33.6,0.1,50.5c0.1,3.8-1,4.8-4.7,4.6
		c-7.3-0.3-14.7,0.2-22-0.2c-4.2-0.2-5.6,0.7-5.5,5.3c0.2,31.3,0.1,62.6,0.2,93.9c0,3.9-0.9,5-4.9,4.9c-20.3-0.2-40.6,0-60.9,0.1
		c-4.1,2.1-8.3,2.1-12.4,0c-3.2-0.6-1.8-3.2-1.8-4.8C465,447.2,465,412.1,465,377c0-15.3,0-30.6,0.1-45.9c0-2.7-0.1-4.2-3.6-4.2
		C446.6,327.2,431.8,327.1,417,327.2z"/>
	<path class="st2" d="M466.9,487.2c4.1,0,8.3,0,12.4,0c12.5,2.9,22.6,9.1,28.8,20.8c12.1,22.6,0.9,49.7-23.7,57.4
		c-1.6,0.5-3.9-0.1-4.6,2.2c-4.2,2.1-8.7,0.2-12.9,1c-2.4-2-5.6-1.9-8.3-3c-12.8-5.2-21.3-14.4-25.5-28.4
		c-5,16.1-15.4,25.7-30.8,30.1c-1,0.3-1.7,1-2.7,1.3c-4.3-0.2-8.5-0.2-12.8,0c-2.3-1.9-5.3-1.8-7.9-2.9
		c-13.2-5.3-21.9-14.7-25.9-28.7c-4.3,14.8-13.6,24.5-27.9,29.4c-1.9,0.6-3.8,1.3-5.5,2.2c-4.3-0.2-8.5-0.2-12.8,0
		c-2.3-1.9-5.3-1.8-7.9-2.9c-13.2-5.3-21.9-14.7-25.9-28.7c-4.3,14.8-13.6,24.5-27.9,29.4c-1.9,0.6-3.8,1.3-5.5,2.2
		c-4.3-0.2-8.5-0.2-12.8,0c-2.4-2-5.6-1.9-8.3-3.1c-12.8-5.3-21.3-14.4-25.4-28.4c-5,16-15.3,25.7-30.5,30.1c-1.1,0.3-2,1.2-3.2,1.4
		c-4.3-0.9-8.9,1.1-13.1-1.1c0.5-1.6-0.8-1.4-1.7-1.6c-17.8-4.1-31-19.4-31.5-36.6c-0.6-19.4,10.7-35.4,28.8-40.8
		c20.1-6,44.5,4.6,51,32c7.1-23.2,21.7-35.8,45.6-33.1c18.2,2,29.6,13.9,34.3,33c8.2-24.8,24.1-37,49.9-32.3
		c14.6,2.7,26,15.2,30,32.3c8.4-25,24.4-37.6,50.3-32.1c16.2,3.4,25.6,15.1,29.6,31.4c0.6-0.7,1.2-1.2,1.3-1.7
		C438.5,500.9,449.8,491,466.9,487.2z"/>
	<path class="st0" d="M146.2,567.6c4.5-0.7,9.1-0.9,13.6,0c1.4-0.7,2.9-0.8,4.4-0.3c14.3,4.6,23.9,13.9,28.4,28.4
		c0.2,0.6,0.2,1.2,0.3,1.2c2-7.1,5.7-14.2,11.8-19.9c4.6-4.3,9.9-7.3,15.8-9.3c1.9-0.7,3.9-1.1,5.8-0.1c4.5-0.8,9.1-0.9,13.6,0
		c1.4-0.7,2.9-0.8,4.4-0.3c14.3,4.6,23.9,13.9,28.4,28.4c0.2,0.6,0.2,1.2,0.3,1.2c2-7.1,5.7-14.2,11.8-19.9
		c4.6-4.3,9.9-7.3,15.8-9.3c1.9-0.7,3.9-1.1,5.8-0.1c4.5-0.8,9.1-0.9,13.6,0c1.4-0.7,2.9-0.8,4.4-0.3c14.3,4.6,23.9,13.9,28.4,28.4
		c0.1,0.3,0.1,0.7,0.1,1c-0.1,0.4-0.2,0.6,0.2,0.4c2.1-7.3,5.8-14.4,11.8-20.1c4.6-4.3,9.9-7.3,15.8-9.3c1.9-0.7,3.9-1.1,5.8-0.1
		c4.5-0.8,9.1-0.9,13.6,0c1.4-0.7,2.9-0.8,4.4-0.3c14.3,4.6,23.9,13.9,28.4,28.4c0.1,0.3,0.1,0.7,0.1,1c-0.1,0.4-0.2,0.6,0.2,0.4
		c2.1-7.3,5.8-14.4,11.8-20.1c4.6-4.3,9.9-7.3,15.8-9.3c1.9-0.7,3.9-1.1,5.8-0.1c4.5-0.8,9-0.8,13.6,0c20.1,4,33.1,19.7,33.2,40.3
		c0,6.3-0.2,12.7,0.1,19c0.2,3.7-1.2,4.2-4.5,4.2C456.3,631,404,631,351.7,631c-77.8,0-155.6-0.1-233.3,0.1c-4.2,0-5.9-0.6-5.5-5.3
		c0.7-8.4-0.8-17,0.7-25.4C116.8,582.9,128.7,571,146.2,567.6z"/>
	<path class="st3" d="M417,191.2c-33.4-0.1-66.9-0.1-100.3-0.2c-60.9,0-121.8,0-182.7,0c-1.7,0-3.3,0.1-5,0.2
		c-9.9-1.4-15.6-7-16-15.5c-0.3-7.6,4.6-14.3,12.1-16.2c1.6-0.4,3.3-0.5,4.9-0.5c95.1,0,190.2,0,285.3,0c13.7,0,21.9,12.5,15.6,23.8
		C427.9,188.2,423,190.6,417,191.2z"/>
	<path class="st3" d="M129,414.8c31.9,0.1,63.9,0.2,95.8,0.2c62.4,0,124.8,0,187.2,0c1.7,0,3.3-0.1,5-0.2c10.4,1.4,16.8,8.3,16,17.4
		c-0.7,8.9-7.9,14.7-18.1,14.7c-94.8,0-189.5,0-284.3,0c-13.5,0-21.6-12-15.8-23.3C117.8,417.9,122.8,415.4,129,414.8z"/>
	<path class="st4" d="M201,263.2c-11.8-0.1-23.6-0.3-35.4-0.1c-3.8,0.1-4.7-1.1-4.6-4.8c0.2-10.5,0.2-21,0-31.4
		c-0.1-3.1,0.8-3.9,3.9-3.9c29.5,0.1,58.9,0.1,88.4,0c3.2,0,3.9,1,3.8,4c-0.2,10.6-0.2,21.3,0,31.9c0.1,3.2-0.8,4.3-4.1,4.2
		c-12-0.1-24,0-35.9,0.1C211.7,265.3,206.3,265.3,201,263.2z"/>
	<path class="st5" d="M217,294.8c12,0.1,23.9,0.2,35.9,0.1c3.2,0,4.3,0.8,4.2,4.1c-0.2,10.8-0.2,21.6,0,32.4c0,2.9-0.9,3.6-3.7,3.6
		c-12.1-0.1-24.3,0.1-36.4,0.1c-5.3,2.1-10.6,2.1-16,0c-12-0.1-23.9-0.2-35.9-0.1c-3.2,0-4.3-0.8-4.2-4.1c0.2-10.8,0.2-21.6,0-32.4
		c0-2.9,0.9-3.6,3.7-3.6c12.1,0.1,24.3-0.1,36.4-0.1C206.3,292.7,211.7,292.7,217,294.8z"/>
	<path class="st6" d="M288.8,359c0.1-4.2,0.2-8.3,0.1-12.5c-0.1-2.4,0.3-3.6,3.2-3.6c30,0.1,60,0.1,89.9,0c2.6,0,3,1.1,3,3.3
		c-0.1,11.2-0.2,22.3,0,33.5c0.1,3.9-2.2,3.3-4.5,3.3c-28.8,0-57.6-0.1-86.4,0.1c-4.1,0-5.9-0.8-5.2-5.1c0.2-1-0.1-2-0.1-3
		C286.7,369.7,286.7,364.3,288.8,359z"/>
	<path class="st7" d="M288.8,359c0,5.3,0,10.7,0,16c-25.8,0-51.6,0-77.4,0c-8,0-10.4-2.5-10.4-10.4c0-9.8,0-19.6,0-29.5
		c5.3,0,10.6,0,16,0c0,6.5,0.2,13,0,19.4c-0.1,3.6,1.2,4.5,4.6,4.5C244,358.9,266.4,359,288.8,359z"/>
	<path class="st7" d="M217,294.8c-5.3,0-10.6,0-16,0c0-10.6,0-21.1,0-31.7c5.3,0,10.7,0,16,0C217,273.7,217,284.3,217,294.8z"/>
	<path class="st7" d="M288.8,231c-9.1-0.2-7.7,1.3-7.7-9.1c0-8.2-1.2-6.8,9.4-6.9c7.9,0,6.4-1.1,6.5,9.8
		C297,232.2,297.4,230.9,288.8,231z"/>
	<path class="st7" d="M329,223.3c-0.1,9.1,1.2,7.7-9.2,7.7c-8.2,0-6.8,1.1-6.8-9.5c0-7.7-1-6.4,9.4-6.4
		C330.2,215,328.9,214.4,329,223.3z"/>
	<path class="st7" d="M361,222.8c-0.2,9.6,1.4,8.1-9.2,8.1c-8.1,0-6.7,1-6.8-9.6c0-7.7-0.9-6.3,9.4-6.4
		C362,215,360.9,214.4,361,222.8z"/>
	<path class="st7" d="M281,254.8c0.1-9.1-1.2-7.7,9.1-7.8c8.2,0,6.9-1.1,6.9,9.4c0,7.8,0.9,6.5-9.3,6.5
		C279.8,263,281.1,263.6,281,254.8z"/>
	<path class="st7" d="M329,255.1c-0.2,9.3,1.4,7.9-9.5,7.9c-7.9,0-6.5,1.1-6.5-9.8c0-7.4-0.7-6.1,9.2-6.2
		C330,247,328.9,246.2,329,255.1z"/>
	<path class="st7" d="M281,286.7c0.1-8.3-1-7.8,6.7-7.7c10.4,0.1,9.3-1.4,9.3,7c0.1,9,0,9-8.9,9C279.8,295,281.1,295.8,281,286.7z"
		/>
</g>
</svg>
