<?xml version="1.0" encoding="utf-8"?>
<!-- Generator: Adobe Illustrator 19.0.0, SVG Export Plug-In . SVG Version: 6.00 Build 0)  -->
<svg version="1.1" id="Calque_1" xmlns="http://www.w3.org/2000/svg" xmlns:xlink="http://www.w3.org/1999/xlink" x="0px" y="0px"
	 viewBox="0 0 612 792" style="enable-background:new 0 0 612 792;" xml:space="preserve">
<style type="text/css">
	.st0{fill:#5C5C5B;}
	.st1{fill:#FDFDFD;}
	.st2{fill:#BF0000;}
	.st3{fill:#FD7200;}
</style>
<g>
	<path class="st0" d="M546,160c0,110.7,0,221.3,0,332c-3.6,19.2-14.5,28.1-34.4,28.1c-147.8,0-295.5,0-443.3,0.1
		c-12.7,0-23-4.3-30.4-14.9c-2.8-4-2.8-8.8-3.9-13.2c0-110.3,0-220.7,0-331c0.6-10.2,5.1-18.1,13.9-23.5c4.1-2.6,8.7-2.4,13.1-3.5
		c153,0,306,0,459,0c10.3,1,18.1,5.8,23.1,15.1C544.9,152.5,545,156.4,546,160z"/>
	<path class="st1" d="M34,492c0.3,0.5,0.8,1,0.9,1.6C39.7,509.3,51,518,67.4,518c61.5,0,122.9,0,184.4,0c85.1,0,170.2,0,255.3,0
		c4.6,0,9.3,0.3,13.9-0.8c11.2-2.8,18.7-9.6,23-20.2c0.7-1.6,0.4-3.7,1.9-5c0,50.2,0,100.3,0.1,150.5c0,3-0.6,3.7-3.6,3.6
		c-9.5-0.2-19-0.1-28.5-0.1c-2.1-1.9-2-4.5-2-7c0-8.2,0.1-16.3,0-24.5c-0.5-25.4-12.1-44.5-34.6-55.9c-22.2-11.2-44-8.8-64,5.7
		c-16.5,12-24.8,28.7-25.3,49.2c-0.2,8.5,0,17,0,25.5c0,2.5,0.1,5.1-2,7c-10.7,0-21.3,0-32,0c-2.1-1.9-2-4.5-2-7
		c0-8.2,0.1-16.3,0-24.5c-0.5-25.4-12.1-44.5-34.6-55.9c-22.2-11.2-44-8.8-64,5.7c-16.5,12-24.8,28.7-25.3,49.2
		c-0.2,8.5,0,17,0,25.5c0,2.5,0.1,5.1-2,7c-10.7,0-21.3,0-32,0c-2.1-1.9-2-4.5-2-7c0-8.2,0.1-16.3,0-24.5
		c-0.5-25.4-12.1-44.5-34.6-55.9c-22.2-11.2-44-8.8-64,5.7c-16.5,12-24.8,28.7-25.3,49.2c-0.2,8.5,0,17,0,25.5c0,2.5,0.1,5-2,7
		c-9.5,0-19-0.2-28.5,0.1c-3,0.1-3.6-0.6-3.6-3.6C34,592.3,34,542.2,34,492z"/>
	<path class="st2" d="M66,646c0.4-14-1.1-28,0.9-41.9c4.1-29.2,30-52.6,59.4-54c30.8-1.5,58.7,18.9,65.7,48.2
		c1.4,5.7,2.1,11.4,2,17.3c-0.1,10.2,0,20.3,0,30.5C151.3,646,108.7,646,66,646z"/>
	<path class="st2" d="M226,646c0.4-14-1.1-28,0.9-41.9c4.1-29.2,30-52.6,59.4-54c30.8-1.5,58.7,18.9,65.7,48.2
		c1.4,5.7,2.1,11.4,2,17.3c-0.1,10.2,0,20.3,0,30.5C311.3,646,268.7,646,226,646z"/>
	<path class="st2" d="M386,646c0.4-14-1.1-28,0.9-41.9c4.1-29.2,30-52.6,59.4-54c30.8-1.5,58.7,18.9,65.7,48.2
		c1.4,5.7,2.1,11.4,2,17.3c-0.1,10.2,0,20.3,0,30.5C471.3,646,428.7,646,386,646z"/>
	<path class="st1" d="M61,134c-10.3,2.7-18.8,7.9-23.6,17.8c-1.4,2.9-2.3,6.1-3.4,9.2c0-8.1,0.1-16.2-0.1-24.3
		c-0.1-2.3,0.5-2.9,2.8-2.8C44.8,134.1,52.9,134,61,134z"/>
	<path class="st1" d="M539.3,146.4c-5-6.5-11.9-9.7-19.3-12.4c7.8,0,15.7,0.1,23.5-0.1c2.2,0,2.6,0.4,2.6,2.6"/>
	<path class="st1" d="M546,160"/>
	<path class="st1" d="M161.9,421.8c-8.3-16.7-16.2-32.4-24.1-48.2c-2.1-4.2-4.3-8.3-6.2-12.5c-1.1-2.5-2.6-3.4-5.4-3.2
		c-3.8,0.3-7.7,0-11.5,0.1c-10.1,0.1-16.8,6.8-16.8,17c0,35.2-0.1,70.3,0.1,105.5c0,4.7-1.3,5.8-5.7,5.6c-7.1-0.4-14.3-0.3-21.5,0
		c-3.8,0.2-5-0.8-5-4.8c0.2-43.8,0.1-87.6,0.1-131.5c0-59.5,0.1-119-0.1-178.5c0-4.4,1.1-5.4,5.4-5.4c145.8,0.1,291.6,0.1,437.4,0
		c4.5,0,5.4,1.2,5.4,5.5C514,274,514,376.7,514,479.3c0,6.7,0,6.7-6.4,6.7c-97.3,0-194.6,0-291.9,0.1c-4.4,0-5.8-0.9-5.7-5.6
		c0.2-28.5,0.2-57,0-85.5c0-4.3,1.2-5.1,5.2-5.1c24.3,0.2,48.7,0.1,73,0.1c10.6,0,17.9-6.5,17.9-15.9c0-9.5-7.3-16.1-17.8-16.1
		c-29.7,0-59.3,0.1-89-0.1c-3.8,0-5.8,0.9-7.6,4.6c-8.7,18-17.7,35.8-26.7,53.6C164.2,417.7,163.3,419.3,161.9,421.8z"/>
	<path class="st0" d="M202,302.3c0.1,21.4-18.1,39.7-39.3,39.7c-22.4,0-40.6-17.6-40.7-39.3c-0.1-22.9,17.5-40.6,40.3-40.7
		C184.2,262,201.9,280,202,302.3z"/>
	<path class="st3" d="M162,396.4c-6.6-13.2-12.8-25.5-19.1-38.1c12.8,0,25.1,0,38.1,0C174.8,370.8,168.6,383.1,162,396.4z"/>
</g>
</svg>
