<?xml version="1.0" encoding="utf-8"?>
<!-- Generator: Adobe Illustrator 19.0.0, SVG Export Plug-In . SVG Version: 6.00 Build 0)  -->
<svg version="1.1" id="Calque_1" xmlns="http://www.w3.org/2000/svg" xmlns:xlink="http://www.w3.org/1999/xlink" x="0px" y="0px"
	 viewBox="0 0 612 792" style="enable-background:new 0 0 612 792;" xml:space="preserve">
<style type="text/css">
	.st0{fill:#3FBAC3;}
	.st1{fill:#3FBAC2;}
</style>
<g>
	<path class="st0" d="M547,496c-2.8,4.1-6.7,5.1-11.6,5.1c-43.6-0.2-87.3-0.1-130.9-0.1c-2,0-4,0-6.6,0c3.6,11.6,7.1,22.8,10.6,34
		c15.2,48.7,30.4,97.4,45.7,146c1.7,5.5-0.3,8.9-4.3,12c-2,0-4,0-6,0c-3-2.3-4.7-5.3-5.8-8.9c-18.5-59.7-37.2-119.3-55.7-179
		c-0.9-3-2.1-4.2-5.5-4.2c-24.3,0.1-48.6,0.2-73,0c-4.2,0-5.2,1.1-5.2,5.2c0.1,46.8,0.1,93.6,0.1,140.4c0,2.9,0,5.7-2.3,7.9
		c-2.5,2.4-5.4,3.3-8.7,1.9c-3.7-1.5-5.1-4.4-5.1-8.3c0.1-19,0-38,0-57c0-28.5-0.1-57,0.1-85.5c0-3.7-0.9-4.8-4.7-4.7
		c-24.3,0.2-48.6,0.2-73,0c-3.7,0-5.1,1.3-6.2,4.7C180.7,565.4,162,625.2,143.4,685c-1,3.4-2.9,5.8-5.4,8c-2,0-4,0-6,0
		c-5.2-3.6-5.5-8-3.7-13.9c18.4-58.1,36.5-116.4,54.7-174.6c0.3-0.9,0.5-1.9,0.8-2.9c-1.5-1.2-3.2-0.6-4.8-0.6
		c-44.3,0-88.6-0.1-132.9,0.1c-4.7,0-8.4-1.2-11.1-5.1c0-2,0-4,0-6c2.7-3.9,6.3-5.1,11.1-5.1c163.3,0.1,326.5,0.1,489.8,0
		c4.7,0,8.4,1.2,11.1,5.1C547,492,547,494,547,496z"/>
	<path class="st0" d="M547,192c-2.8,4.1-6.7,5.1-11.6,5.1C383.6,197,231.8,197,80.1,197c-11.2,0-22.3-0.2-33.5,0.1
		c-4.9,0.1-8.8-1-11.6-5.1c0-2,0-4,0-6c0.6-2.7,2.3-4.4,5-5c167.3,0,334.7,0,502,0c2.7,0.6,4.4,2.3,5,5C547,188,547,190,547,192z"/>
	<path class="st1" d="M291,213c72.8,0,145.6,0,218.4-0.1c4.6,0,5.7,1.2,5.7,5.7c-0.1,81.1-0.1,162.3-0.1,243.4c0,6.9,0,7-6.8,7
		c-101.5,0-202.9,0-304.4,0c-43.8,0-87.6-0.1-131.5,0.1c-4.5,0-5.4-1.1-5.4-5.5c0.1-81.6,0.1-163.3,0-244.9c0-4.4,0.8-5.8,5.6-5.8
		C145.3,213,218.1,213,291,213z"/>
</g>
</svg>
