<?xml version="1.0" encoding="utf-8"?>
<!-- Generator: Adobe Illustrator 19.0.0, SVG Export Plug-In . SVG Version: 6.00 Build 0)  -->
<svg version="1.1" id="Calque_1" xmlns="http://www.w3.org/2000/svg" xmlns:xlink="http://www.w3.org/1999/xlink" x="0px" y="0px"
	 viewBox="0 0 612 792" style="enable-background:new 0 0 612 792;" xml:space="preserve">
<style type="text/css">
	.st0{fill:#FFFFFF;}
</style>
<g>
	<path d="M435,270c-10.2-12.9-14.2-26.7-10.9-42.2c2.4-11.3,8.4-20.6,17.5-27.7c18.6-14.6,45-13.2,62.3,3
		c14.7,13.7,23.3,40.9,3.5,66.5c3.9,0.4,7.6,0.6,11.2,1.3c17.4,3.3,31.4,17.9,32,35.5c0.8,22.3,0.2,44.6,0.2,67.5
		c-10.5,0-20.9,0-31.7,0c0,34.8,0,69.1,0,103.8c-14.6,0-28.9,0-44.3,0c9.2,11.8,13.6,24.2,11.8,38.2c-1.8,14.1-9,25.2-20.7,33.9
		c1.2,1.1,2.3,2.1,3.4,3c11.6,9.8,17.6,22.3,17.7,37.6c0,7.6,0,15.3,0,23.3c-138.7,0-277,0-416.5,0c0.6-11.6,0.2-23.3,2-34.7
		c1.9-12.1,9.4-21.4,19.8-28.8c-14.2-10.8-21.8-24.6-21.2-42.2c0.5-13.1,5.9-24.1,15.3-33.1c17.1-16.3,50.3-20.5,72.7,8.2
		c10-13.3,23.1-21,39.9-20.9c16.7,0,29.7,7.5,39.9,21.1c10.1-13.4,23.2-21.1,40-21.1c16.7,0,29.7,7.4,40,21.1
		c10.1-13.3,23.1-21.1,39.9-21.1c16.8,0,30,7.5,40.2,21.2c6-8.2,13.2-14.1,22.1-18c1.1-0.5,1.8-3.2,1.8-4.9c0.1-36,0.1-72,0.1-108
		c0-11.3,0-22.6,0-34.1c-10.7,0-21,0-32,0c0,1.7,0,3.5,0,5.2c0,21.3,0,42.7-0.1,64c0,2.5,0.5,4.1,3,5.4c10.3,5.5,15,16.1,12.2,26.9
		c-2.9,11.1-12,18.2-23.9,18.2c-67,0-134,0-201,0c-28,0-56,0-84,0c-12.9,0-22.3-6.5-25.4-17.5c-3.1-11.2,1.5-21.3,12.7-28.1
		c1.3-0.8,2.3-3.4,2.3-5.1c0.1-31.8,0.1-63.7,0.1-95.5c0-35.7,0-71.3,0-107c0-2.7-0.5-4.3-3.2-5.8c-10.1-5.3-14.7-15.9-12.1-26.5
		c2.8-11.1,11.9-18.4,23.7-18.4c48.2-0.1,96.3,0,144.5-0.1c46.8,0,93.7,0,140.5,0c13.1,0,22.5,6.4,25.6,17.3
		c3.1,11-1.4,22.1-11.7,27.6c-2.7,1.4-3.4,2.9-3.4,5.7c0.1,26.3,0.1,52.7,0,79c0,3.5,1.4,6.2,4.8,6.3C408.6,270.1,421.3,270,435,270
		z M358.9,318.4c-37.5,0-74.6,0-112,0c0,8,0,15.6,0,23.3c-21.4,0-42.5,0-63.5,0c0-5.4,0-10.4,0-15.9c16,0,31.6,0,47.3,0
		c0-18.8,0-37.2,0-56.1c-16.1,0-31.8,0-47.4,0c0-5.5,0-10.4,0-15.9c16,0,31.7,0,47.3,0c0-18.9,0-37.3,0-55.6c-37.3,0-74.3,0-111.2,0
		c0,18.7,0,37.1,0,55.8c16,0,31.6,0,47.3,0c0,5.4,0,10.5,0,16.1c-16,0-31.8,0-47.4,0c0,18.8,0,37.1,0,55.9c16,0,31.7,0,48,0
		c0,10.9,0,21.3,0,32.1c26.8,0,53.1,0,79.9,0c0,5.4,0,10.5,0,15.4c37.6,0,74.6,0,111.7,0C358.9,355,358.9,336.9,358.9,318.4z
		 M534.5,357.7c0.2-0.7,0.4-1,0.4-1.3c0-14.8,0.1-29.7,0.1-44.5c0-16.2-10-26-26.3-26c-37.8,0-75.6,0.1-113.5-0.1
		c-2.5,0-5.5-1.3-7.3-3c-13.8-13.5-27.4-27.2-41.1-40.9c-1.1-1.1-2.4-2.2-3.9-3.6c-2.1,4.1-3.8,7.9-5.9,11.4c-1.8,3-1.5,5,1.1,7.6
		c14.2,13.9,28,28,42.2,41.9c1.6,1.5,4.2,2.6,6.4,2.7c14.3,0.2,28.7,0.1,43,0.1c2.9,0,5.9,0,9.3,0c0,53.6,0,106.7,0,159.6
		c8.3,0,16,0,24,0c0-29.3,0-58.2,0-87.3c5.4,0,10.5,0,16,0c0,29.4,0,58.4,0,87.4c8.1,0,15.7,0,23.8,0c0-50.6,0-101,0-151.4
		c5.6,0,10.6,0,16,0c0,16,0,31.6,0,47.4C524.4,357.7,529.3,357.7,534.5,357.7z M239.1,166c46.8,0,93.6,0,140.4,0
		c1.3,0,2.7,0.1,4-0.1c4.3-0.5,7.5-3.8,7.5-8c0-4.2-3.1-7.5-7.5-7.9c-1.7-0.2-3.3-0.1-5-0.1c-90.8,0-181.5,0-272.3,0
		c-3.8,0-7.7-0.1-11.5,0.1c-4.5,0.2-7.6,3.5-7.7,7.7c-0.1,4.3,3.1,7.8,7.7,8.2c1.5,0.1,3,0,4.5,0C145.9,166,192.5,166,239.1,166z
		 M239,422c46.6,0,93.3,0,139.9,0c1.7,0,3.4,0.2,5-0.1c4.3-0.7,6.9-3.4,7-7.8c0.1-4.4-2.5-7.1-6.8-8c-1.4-0.3-3-0.1-4.5-0.1
		c-82.9,0-165.9,0-248.8,0c-11.8,0-23.7-0.1-35.5,0c-5,0.1-8.4,3.5-8.3,8.1c0.1,4.4,3.3,7.5,8.1,7.8c1.5,0.1,3,0,4.5,0
		C146.1,422,192.5,422,239,422z M470.9,270c17.6,0,32.1-14.4,32.1-32c0-17.4-14.3-31.8-31.7-31.9c-17.8-0.1-32.2,14.1-32.3,31.8
		C438.9,255.4,453.3,270,470.9,270z M170.1,550.1c-3.6-3.6-7.8-7.7-11.2-11.1c-3.4,3.5-7.5,7.8-10.7,11.2c3.4,3.3,7.6,7.4,11,10.8
		C162.5,557.7,166.6,553.5,170.1,550.1z M250,550c-3.6-3.5-7.9-7.7-11.1-10.9c-3.4,3.4-7.5,7.6-10.9,11c3.4,3.3,7.8,7.5,11.1,10.7
		C242.5,557.6,246.6,553.5,250,550z M319.1,538.9c-3.6,3.6-7.7,7.8-10.9,10.9c3.3,3.5,7.5,7.9,10.7,11.3c3.6-3.7,7.7-7.9,11-11.4
		C326.7,546.5,322.5,542.3,319.1,538.9z M399.1,539.2c-3.5,3.3-8,7.3-11.3,10.4c3.8,3.8,7.9,8,11.4,11.4c3.3-3.4,7.5-7.8,10.7-11.2
		C406.5,546.5,402.3,542.3,399.1,539.2z M262.7,213.8c0-5.4,0-10.4,0-15.4c-5.4,0-10.4,0-15.4,0c0,5.3,0,10.2,0,15.4
		C252.4,213.8,257.3,213.8,262.7,213.8z M294.8,198.3c-5.5,0-10.4,0-15.5,0c0,5.3,0,10.3,0,15.4c5.4,0,10.4,0,15.5,0
		C294.8,208.4,294.8,203.5,294.8,198.3z M311.2,213.7c5.3,0,10.3,0,15.4,0c0-5.3,0-10.4,0-15.4c-5.4,0-10.4,0-15.4,0
		C311.2,203.7,311.2,208.6,311.2,213.7z M262.7,245.9c0-5.5,0-10.5,0-15.5c-5.4,0-10.4,0-15.2,0c0,5.4,0,10.4,0,15.5
		C252.6,245.9,257.4,245.9,262.7,245.9z M279.1,245.7c5.5,0,10.5,0,15.6,0c0-5.4,0-10.4,0-15.3c-5.4,0-10.4,0-15.6,0
		C279.1,235.6,279.1,240.4,279.1,245.7z M247.1,277.6c5.2,0,10.3,0,15.6,0c0-5.2,0-10.2,0-15.2c-5.4,0-10.4,0-15.6,0
		C247.1,267.6,247.1,272.4,247.1,277.6z"/>
	<path class="st0" d="M214.8,214.3c-26.8,0-53.2,0-79.4,0c0,8.1,0,15.8,0,23.4c26.7,0,52.9,0,79.4,0
		C214.8,229.9,214.8,222.3,214.8,214.3z M135.3,286.2c0,8,0,15.8,0,23.4c26.7,0,53.1,0,79.4,0c0-8,0-15.6,0-23.4
		C188.3,286.2,162,286.2,135.3,286.2z M342.8,334.3c-26.8,0-53.2,0-79.4,0c0,8.1,0,15.8,0,23.4c26.7,0,52.9,0,79.4,0
		C342.8,349.9,342.8,342.3,342.8,334.3z"/>
	<path d="M214.8,214.3c0,7.9,0,15.5,0,23.4c-26.5,0-52.7,0-79.4,0c0-7.6,0-15.3,0-23.4C161.6,214.3,188,214.3,214.8,214.3z"/>
	<path d="M135.3,286.2c26.7,0,52.9,0,79.4,0c0,7.8,0,15.4,0,23.4c-26.4,0-52.7,0-79.4,0C135.3,302,135.3,294.3,135.3,286.2z"/>
	<path d="M342.8,334.3c0,7.9,0,15.5,0,23.4c-26.5,0-52.7,0-79.4,0c0-7.6,0-15.3,0-23.4C289.6,334.3,316,334.3,342.8,334.3z"/>
</g>
</svg>
