<?xml version="1.0" encoding="utf-8"?>
<!-- Generator: Adobe Illustrator 19.0.0, SVG Export Plug-In . SVG Version: 6.00 Build 0)  -->
<svg version="1.1" id="Calque_1" xmlns="http://www.w3.org/2000/svg" xmlns:xlink="http://www.w3.org/1999/xlink" x="0px" y="0px"
	 viewBox="0 0 612 792" style="enable-background:new 0 0 612 792;" xml:space="preserve">
<style type="text/css">
	.st0{fill:#3554D2;}
	.st1{fill:#FEFEFE;}
	.st2{fill:#3655D3;}
	.st3{fill:#3655D2;}
</style>
<g>
	<path class="st0" d="M307,653c-83.8,0-167.6,0-251.4,0.1c-3.6,0-4.7-0.6-4.7-4.5C51,480.8,51,313,50.9,145.2c0-3.7,0.9-4.3,4.4-4.3
		c167.8,0.1,335.6,0.1,503.4,0c3.4,0,4.5,0.4,4.4,4.2c-0.1,168-0.1,335.9,0,503.9c0,3.5-0.8,4.1-4.1,4.1C475,653,391,653,307,653z"
		/>
	<path class="st1" d="M198.7,410c-7.8,0-15.7-0.2-23.5,0.1c-3.4,0.1-4.2-1.1-4.2-4.3c0.1-40.3,0.1-80.7,0-121c0-4.1,1.6-4.5,5-4.5
		c36.7,0.1,73.3,0.1,110,0.1c1,0,2-0.1,3,0c2.8,0.4,4.8-0.7,4.6-3.6c-0.2-2.9-2.8-1.5-4.3-1.5c-33.3-0.1-66.7-0.1-100-0.1
		c-4.3,0-8.7,0-13,0c-4.7,0-7-3.7-5.1-8.1c0.4-0.9,1.1-1.2,1.9-1.2c1,0,2,0,3,0c57.5,0,115,0.1,172.5-0.1c4.7,0,5.5,1.6,5.3,5.7
		c-0.1,3.2-1.3,3.9-4.2,3.8c-9-0.1-17.9-0.1-27.5-0.1c2.5,2,5.2,1.7,7.5,2.5c9.5,3.3,19.7,2.7,29.4,5.9c14.6,4.9,30.1,7,45.3,10.3
		c12.5,2.7,25,5.6,37.6,8.1c4.5,0.9,5.7,2.8,4.3,7.3c-11.1,37.3-22.2,74.7-33.1,112.1c-1.2,4.2-3.1,5.2-7.2,3.6
		c-15.8-6.1-31.8-12-47.7-18c-1.8-0.7-4.4-2.8-4.8,1.7c-0.1,1.7-2.2,1.1-3.4,1.1c-6.3,0.1-12.6,0-19.5,0c1.3,2.1,3.2,2.3,4.8,3
		c22.4,9.8,44.9,19.5,67.4,29.3c2.2,0.9,5.3,1.1,5.4,4.4c0.1,3.1-2.9,3.8-5,5c-40.7,24.8-81.4,49.5-122,74.4
		c-4,2.5-6.8,2.5-10.5-0.8c-33.7-30.3-67.6-60.4-101.4-90.6c-4.7-4.2-4.5-5.7,1.1-8.6c9.5-5,19.1-10,28.6-15
		C198.9,410.6,198.8,410.3,198.7,410z"/>
	<path class="st0" d="M303.1,278.5c18.2,4,36.8,8,55.3,12c25.5,5.5,51.1,11.1,76.6,16.6c3.6,0.8,4.8,1.6,3.6,5.7
		c-10.1,33.5-19.9,67-29.6,100.6c-1.2,4.1-2.2,5.2-6.7,3.5c-41.2-15.7-82.5-31.3-123.8-46.6c-4.1-1.5-4.7-3.1-3.5-7.1
		c8.2-26.9,16-53.9,24-80.9C299.5,280.4,299.2,277.4,303.1,278.5z"/>
	<path class="st0" d="M397.1,447.7c-13.4,8.2-26.9,16.4-40.4,24.6c-25.5,15.5-51,30.9-76.3,46.6c-3.3,2.1-5.2,1.7-8-0.8
		c-31.2-28.1-62.5-56-93.9-83.9c-2.9-2.6-3.3-3.6,0.6-5.6c25.6-13.2,51.1-26.6,76.6-40c2-1.1,3.7-1.6,6-0.5
		c44.1,19.2,88.3,38.3,132.5,57.4C395.2,446,396.5,446.2,397.1,447.7z"/>
	<path class="st0" d="M242.2,290.6c14.2,0,28.3,0.1,42.5-0.1c3.8,0,4.7,0.6,3.8,4.7c-1.2,5.7-3.8,7.1-9.5,7c-26.3-0.3-52.7-0.3-79,0
		c-5.5,0.1-5.1-2.5-5.3-6.2c-0.3-4.4,1-5.7,5.5-5.6C214.2,290.8,228.2,290.6,242.2,290.6z"/>
	<path class="st2" d="M314.3,390.5c-17.8,1.8-33.7,1.3-48.1-7.6c-5.1-3.1-9.9-3.2-14.7,0.6c-0.5,0.4-1.2,0.6-1.8,0.9
		c-2.2,1-4.8,3.8-6.5,2.8c-2.2-1.3-0.5-4.9-0.9-7.4c-0.4-2.8,0.8-3.8,3.7-3.7c9.3,0.1,18.7,0,28,0.1c1.1,0,2.3,0.2,3.4,0.6
		C289.2,381.1,301.1,385.6,314.3,390.5z"/>
	<path class="st3" d="M260.7,329.2c4.7,0,9.3,0.1,14,0c2.5-0.1,3.5,0.3,2.7,3.3c-3,11.6-2.9,11.7-14.7,11.7c-5.5,0-11-0.1-16.5,0
		c-2.6,0.1-3.8-0.5-3.9-3.5c-0.4-11.5-0.6-11.5,10.9-11.5C255.7,329.2,258.2,329.2,260.7,329.2z"/>
	<path class="st0" d="M241.9,363.6c-1.1,1.3-1.8,2-2.5,2.7c-8.6,8.6-17.2,17.2-25.6,25.9c-1.7,1.8-2.9,2.1-4.8,0.2
		c-3.8-3.8-7.6-7.5-11.8-10.8c-3.1-2.5-1-3.8,0.6-5.4c1.5-1.6,2.6-4,5.4-1.1c2.5,2.6,5.1,7,8.2,6.6c2.9-0.4,5.4-4.5,8-7.1
		c4.7-4.7,9.4-9.5,14.1-14.1c0.8-0.8,1.6-2.7,3.2-1.4C238.5,360.2,240.1,361.9,241.9,363.6z"/>
	<path class="st0" d="M242.1,316c-1,2.2-2.1,2.9-2.9,3.7c-8.4,8.5-16.9,16.9-25.2,25.5c-1.9,1.9-3.1,2.3-5.2,0.2
		c-3.7-3.8-7.7-7.4-11.7-10.8c-2.7-2.2-1-3.6,0.6-5c1.5-1.4,2.6-4.6,5.4-1.5c0.1,0.1,0.2,0.2,0.4,0.3c2.9,2.1,4.9,6.8,8.3,6.3
		c2.8-0.5,5.1-4.4,7.6-6.8c4.7-4.7,9.3-9.4,14.1-14.1c0.9-0.9,1.7-2.8,3.6-1.5C238.7,313.4,240.4,314.8,242.1,316z"/>
	<path class="st1" d="M221.4,424.9c13.5-6.1,26.1-11.7,38.6-17.4c1.6-0.7,2.9-0.2,4.2,0.5c29.3,13.9,58.6,27.9,87.9,41.8
		c0.7,0.4,1.6,0.6,1.8,1.9c-16.6,9.3-33.3,18.6-49.9,27.9c-1.4,0.8-2.5,0.4-3.7-0.4C274.4,461.3,248.4,443.4,221.4,424.9z"/>
	<path class="st1" d="M267,468.3c-7.4,3.9-13.9,7.3-20.3,10.7c-1.7,0.9-2.9,1-4.4-0.4c-8.7-7.7-17.4-15.3-26.6-23.3
		c6.2-3.3,11.8-6.4,17.5-9.5c1.2-0.6,2.1-0.7,3.2,0.1C246.3,453.2,256.3,460.5,267,468.3z"/>
</g>
</svg>
