<?xml version="1.0" encoding="utf-8"?>
<!-- Generator: Adobe Illustrator 19.0.0, SVG Export Plug-In . SVG Version: 6.00 Build 0)  -->
<svg version="1.1" id="Calque_1" xmlns="http://www.w3.org/2000/svg" xmlns:xlink="http://www.w3.org/1999/xlink" x="0px" y="0px"
	 viewBox="0 0 612 792" style="enable-background:new 0 0 612 792;" xml:space="preserve">
<style type="text/css">
	.st0{fill:#3C4752;}
	.st1{fill:#2F79BE;}
</style>
<g>
	<path class="st0" d="M286.1,463.6c5.8,26.9,11.5,53,17.2,79.1c0.3,0,0.6,0,0.9,0c2.8-17.9,5.5-35.8,8.5-53.7
		c0.6-3.5-1.9-4.7-3.6-6.5c-2.4-2.5-4.6-4.9-3-8.7c1.6-3.9,4.8-4.6,8.6-4.5c3.5,0.1,7,0,10.5,0c3.2,0,5.4,1.5,6.6,4.4
		c1.2,2.8,0.9,5.4-1.5,7.3c-4.2,3.4-4.8,7.5-3.9,12.7c2.8,16.6,5,33.2,8.1,50c5.6-26.6,11.2-53.2,16.9-80.4
		c12.2,8.4,25.7,11.4,39.2,14.3c3.1,0.7,6.1,1.7,9,2.8c15.2,5.4,23.2,16.5,24.9,32.4c2.1,19.7,2.6,39.6,3.1,59.4
		c0.2,8.3,0.6,16.7,0.8,25c0.1,6.6-3,10.3-9.4,11.4c-38.1,6.9-76.5,11-115.3,9.8c-28.7-0.9-57.1-4.3-85.2-9.8
		c-5.4-1.1-8.9-4.6-8.7-10c1.2-29.8,0.4-59.7,4.4-89.3c1.9-14,10-23.2,22.9-28.4c3.1-1.2,6.2-2.4,9.5-3.1
		C260.1,474.9,273.5,471.8,286.1,463.6z"/>
	<path class="st1" d="M79.8,434.1c0-18.2,0-35.2,0-52.2c0-77.3,0-154.7,0.1-232c0-12.3,6.4-20.7,17.3-23c1.9-0.4,4-0.4,6-0.4
		c143.5,0,287,0,430.5,0c14.8,0,23.5,8.7,23.5,23.7c0.1,36.8,0.1,73.7,0.1,110.5c0,55.5,0,111-0.1,166.5c0,1.6,0,3.2,0,6
		c-8.1-5.8-16.3-9.3-24.9-11.5c-2.7-0.7-1.7-2.9-1.7-4.5c-0.1-23.5-0.1-47-0.1-70.5c0-64,0-128,0.1-192c0-4.4-1.1-5.5-5.5-5.5
		c-84.5,0.1-169,0.1-253.5,0.1c-53.2,0-106.3,0.1-159.5-0.1c-4.5,0-5.7,1.2-5.7,5.7c0.1,87,0.1,174,0.2,261c0,4-0.6,6.3-5.1,7.2
		C93.8,424.9,87,428.9,79.8,434.1z"/>
	<path class="st0" d="M178,491.1c4.2-19.9,8.4-39.9,12.8-60.6c11.3,7.9,24.6,8.9,37,13c7.6,2.5,13.4,7.1,16.9,14.5
		c1.2,2.5,0.8,3.4-1.8,4.1c-4.3,1.2-8.6,2.6-12.7,4.3c-20.2,8.4-30.3,24-32.6,45.3c-1.2,11.1-2.1,22.2-2.1,33.4c0,3-0.7,4.3-4.1,4.5
		c-34.3,2.6-68.2-0.1-101.9-6.5c-5.8-1.1-8.2-3.4-8.1-8.4c0.6-22.6,0.3-45.3,3.2-67.9c1.5-11.8,8-19.6,19.1-23.3
		c5.8-2,11.9-3.2,17.8-4.7c6.5-1.6,12.5-4.5,19-8.1c4.5,20.6,8.9,40.7,13.3,60.9c0.2,0,0.5,0,0.7,0c2.1-13.5,4.1-27,6.5-40.5
		c0.6-3.2-1.2-4.6-3-6.2c-1.9-1.7-2.9-3.7-2.1-6.2c0.9-2.7,3.1-3.8,5.8-3.9c3-0.1,6-0.1,9,0c2.3,0.1,4.2,1.1,5.1,3.4
		c0.9,2.2,0.7,4.4-1.2,5.9c-3.3,2.6-3.5,5.9-2.9,9.8c2,12.3,3.7,24.6,5.5,36.9C177.3,491,177.6,491.1,178,491.1z"/>
	<path class="st0" d="M461,490.9c2.1-13.4,4.2-26.9,6.4-40.3c0.4-2.7-1.3-4-2.8-5.4c-2.2-2-3.4-4.2-2.1-7.1c1.2-2.7,3.6-3.3,6.2-3.2
		c2.8,0,5.7-0.1,8.5,0.1c2.3,0.1,4.3,1.2,5,3.5c0.7,2.2,0.5,4.4-1.4,5.9c-3.3,2.6-3.4,5.8-2.7,9.8c2.1,12.6,3.7,25.2,6.3,37.9
		c2.4-11.2,4.7-22.4,7.1-33.6c1.7-8.1,3.4-16.3,5.1-24.4c0.4-1.7,0.3-4,3.2-2.2c8.5,5.3,18.1,7.2,27.7,9.5
		c18.8,4.5,25.6,13.1,27.1,32.4c1.5,19.8,1.8,39.6,2.3,59.4c0.2,6-1.5,8.4-7.2,9.5c-33.9,6.2-67.9,9.4-102.4,7
		c-3.4-0.2-4.5-1.4-4.5-4.7c-0.2-10.7-0.8-21.3-2-31.9c-3.1-27.5-16.4-43.2-43-50.5c-6.2-1.7-6.2-1.7-3-7.2c5.9-9.8,15.8-12.8,26-15
		c8-1.7,15.8-3.9,22.9-8.1c2.8-1.7,3.4-0.9,4.1,2c3.8,18.2,7.8,36.4,11.8,54.6c0.1,0.6,0.4,1.2,0.5,1.8
		C460.4,490.9,460.7,490.9,461,490.9z"/>
	<path class="st1" d="M455.4,201.5c-5.4-10.3-17.3-15.6-28.3-12.7c-11.1,2.9-18.8,12.9-18.7,24.7c1.3,3.7-1,5.6-4.6,7.4
		c-13,6.6-25.9,13.5-38.9,20.4c-2.1,1.1-3.5,1.3-5.7-0.4c-7.3-6-15.7-7.8-24.7-4.2c-2.5,1-3.8,0.6-5.4-1.5
		c-4-5.3-8.1-10.6-12.4-15.6c-1.7-2-1.6-3.4-0.6-5.7c4.4-9.7,3.1-19-3.8-27c-6.9-7.9-15.8-10.3-25.8-7.3
		c-10.5,3.1-16.3,10.7-17.6,21.4c-0.4,3.3-1.7,4.8-4.5,6.2c-18.7,9-37.4,18.2-56,27.4c-3.2,1.6-5.4,2-8.7-0.7
		c-7.8-6.5-18.9-6.8-27.6-1.7c-8.6,5.1-13.4,14.9-12,24.5c1.8,13,13.1,22.6,25.6,21.9c13.8-0.8,23.9-11.4,23.8-25.2
		c0-3,0.7-4.7,3.6-6.1c19-9.1,38-18.4,56.9-27.8c2.3-1.1,3.6-1.1,5.4,0.9c7.2,7.5,16,9.9,25.9,6.6c2.6-0.9,3.9-0.1,5.4,1.9
		c3.8,5,7.7,10,11.8,14.8c2.1,2.5,2.8,4.5,1.4,7.9c-3.9,9.5-1.1,20.4,6.8,27.2c8.1,7,17.3,8.1,27,3.9c9.2-4,15.2-13.8,14.2-23.7
		c-0.3-3.3,1-4.3,3.4-5.6c13-6.7,26-13.5,38.8-20.5c3.3-1.8,5.5-1.9,8.7,0.6c8.8,6.9,22.1,6,30.5-1.3
		C458.3,224.2,460.8,211.6,455.4,201.5z M184.8,261.8c-4.9,0-8.5-3.6-8.5-8.5c0-5,3.9-8.9,8.8-8.8c4.5,0.1,8.4,4.3,8.4,8.8
		C193.4,258.1,189.6,261.8,184.8,261.8z M293.3,211.7c-4.8-0.2-8.3-3.9-8.2-8.8c0.1-4.8,3.9-8.5,8.7-8.4c4.5,0.1,8.6,4.1,8.6,8.6
		C302.4,208,298.3,211.9,293.3,211.7z M343.4,268.5c-4.6,0.1-8.7-3.7-8.9-8.3c-0.2-4.7,3.5-8.7,8.2-8.9c5.2-0.2,9,3.4,9,8.4
		C351.7,264.6,348.1,268.4,343.4,268.5z M432.8,221.5c-4.6-0.2-8.4-4.2-8.2-8.9c0.1-4.7,4-8.3,8.8-8.2c5,0.1,8.4,3.6,8.4,8.5
		C441.7,218,437.7,221.7,432.8,221.5z"/>
	<path class="st0" d="M366.8,361.6c-1.4-9.4-3-18.4-9.4-25.9c-2.9-3.4-6.4-5.9-10.6-7.8c2.4-1.3,4.3,1.1,6.5,0.1
		c-7.3-4.1-15.9-2.3-23.3-6.1c1.9-0.3,3.5-0.5,5.1-0.8c0-0.3-0.1-0.5-0.1-0.8c-5.2,0-10.3,0-15.5,0c0-0.2,0-0.4,0-0.6
		c1-0.2,2.1-0.5,3.7-0.9c-3.6-0.8-6.2,0.5-9,0.8c-2.5,0.3-4.9,0.7-7.4,1c-0.5,0.1-1.5-0.1-0.6-1c0.2-0.2,0.6-0.2,0.9-0.3
		c0.1-1.8-1-1.3-2-1c-7,0.5-12.6,3.8-17.8,8.4c-2.9,2.6-4.8,6-7.8,8.2c-3.3,2.4-7.1,2.8-7.1,8.9c0,4.4-1.3,9.4-2.3,14
		c-1.8,8,0.7,15.9,0.7,23.8c0.1,22,8.1,41.1,22,57.5c14.3,16.9,34.6,17.1,50.2,1.3c12.6-12.8,19.3-28.6,22.2-46
		C367.2,383.5,368.4,372.7,366.8,361.6z M351,413.7c-3.4,8.2-8.1,15.6-14.7,21.8c-11.4,10.7-24.6,11-35.3-0.2
		c-11.8-12.3-18.5-27.3-20.6-44.2c0.1-6.7,2.8-12.8,4.3-19c0.3-1.1,0.8-3,2.5-2.5c2.1,0.7,1.9-0.6,2.5-1.8c2.2-4.4,5.1-5.5,9.8-3.7
		c14.1,5.4,28.2,5.7,42.2-0.6c4.6-2.1,8-0.8,10.3,3.7c0.6,1.2,0.6,2.6,2.9,2c1.7-0.4,1.4,2.1,1.8,3.4
		C360.3,387,356.4,400.5,351,413.7z"/>
	<path class="st0" d="M199.2,337c-4.9-10.9-15.9-14.4-26.4-16.9c-5.5-1.3-11.7-1.7-17.6-0.2c1.2-0.6,2.5-1.3,4-2.1
		c-0.9-0.1-1.4-0.1-1.8-0.1c-12,0.4-18.1,10.6-26.8,16.4c-0.5,0.3-0.6,1-0.7,1.7c-1.5,10.3-2.3,20.4-1.7,30.9
		c1,16.7,6.3,31.1,16.4,44c5.4,7,12.6,11.5,21.9,10.8c10.3-0.7,17.3-6.9,23.1-14.9c9.5-13.2,12.7-28.3,13.7-44.1
		C204,353.7,202.7,344.8,199.2,337z M195.6,373.5c-1.5,12-5.7,22.9-13.5,32.2c-10.6,12.8-23.9,12.5-33.7-0.9
		c-6.7-9-11.5-18.9-12.3-30.4c-0.2-4.9,1.5-9.3,2.8-13.7c1.6-5.5,8.1-8.3,13.8-6.4c10,3.3,19.9,3.4,29.7-0.9
		c3.8-1.6,6.1-0.7,9.1,2.3C196.7,361.1,196.3,367.2,195.6,373.5z"/>
	<path class="st0" d="M509.4,351.2c-1.2-10.3-4.1-20-14.5-25.2c0.4-0.9,1.8-0.1,2-1.4c-2.2-0.4-4.5-1.3-6.7-1.2
		c-5.6,0.2-9.9-3.7-15.8-3.9c-4.5-0.1-9.5,1.7-14.5-0.7c-2.6-1.3-6.9,2-10,4.3c-4.3,3.3-7.2,8.2-12.3,10.5c-0.6,0.3-1.4,1.1-1.5,1.7
		c-2,13.3-2.3,26.6-0.4,39.9c2,14.3,7.8,27.2,17.8,37.7c11,11.4,25.3,11.4,36.7,0.5c6.5-6.2,11-13.7,14.1-22.1
		C509.2,378.4,511,364.9,509.4,351.2z M485.9,408.7c-9,8.9-20.2,8.7-28.4-0.9c-8.6-10-14.8-21.3-14.7-35.1c0-4.5,1.7-8.8,3.1-13
		c0.8-2.5,4.1-3.2,5.7-5.5c2.1-3,5.1-0.6,7.7,0.2c9.8,3.2,19.6,3.5,29.3-0.7c4.1-1.8,6.4-0.7,9.8,2.5c4.2,4,3.2,8.6,4.5,12.8
		C501.3,384.1,496.8,397.8,485.9,408.7z"/>
</g>
</svg>
