<?xml version="1.0" encoding="utf-8"?>
<!-- Generator: Adobe Illustrator 19.0.0, SVG Export Plug-In . SVG Version: 6.00 Build 0)  -->
<svg version="1.1" id="Calque_1" xmlns="http://www.w3.org/2000/svg" xmlns:xlink="http://www.w3.org/1999/xlink" x="0px" y="0px"
	 viewBox="0 0 612 792" style="enable-background:new 0 0 612 792;" xml:space="preserve">
<style type="text/css">
	.st0{fill:#010101;}
	.st1{fill:#020202;}
	.st2{fill:#FDDB09;}
	.st3{fill:#FDDC09;}
</style>
<g>
	<path d="M537,176.5c5.6,3.2,5.9,8.3,5.9,14.1c-0.2,36-0.1,72-0.1,108c0,9.8-2.3,12.1-12,12.1c-12.2,0-24.3-0.1-36.5,0
		c-15.8,0.1-26.4-7.8-32.9-21.6c-1.3-2.6-2.4-3.7-5.3-3.7c-11.3,0.2-22.7,0.2-34,0c-3.2,0-5.6,0.9-7.9,3.2
		c-8.9,9.2-18,18.2-27.2,27.3c-1.9,1.9-2.7,3.5-2.3,6.4c1.8,13.8-1.4,26-11.9,35.9c-5.6,5.3-10.8,10.8-16.3,16.2
		c-4.5,4.4-9.1,4.6-13.5,0.2c-24.8-24.7-49.5-49.4-74.2-74.2c-4.2-4.2-4.1-8.8,0.1-13.2c6.2-6.3,12.4-12.6,18.8-18.7
		c9.4-8.9,20.9-11.3,33.3-9.7c3.1,0.4,4.8-0.3,6.9-2.4c8.6-8.8,17.4-17.4,26.1-26.2c19-19.2,42-28.7,69-28.7c11,0,22-0.1,33,0
		c2.8,0,4.3-0.6,5.5-3.5c4.8-11.6,14.1-18.1,25.7-21.7C503.6,176.5,520.3,176.5,537,176.5z"/>
	<path class="st0" d="M39,475.5c2.8-3.4,6.4-6.1,10-8.6c3.9-2.8,8.8-2.1,11.6,1.3c2.8,3.5,2.4,8.3-1.1,11.6
		c-1.3,1.2-2.8,2.3-4.3,3.4c-7.1,5.5-10.8,5.1-16.2-1.8C39,479.5,39,477.5,39,475.5z"/>
	<path class="st0" d="M182.4,467.7c-6.5-0.1-10.7-7.2-6.9-12.5c3.7-5.3,8.5-9.8,13.6-13.9c3.2-2.5,7-2,10,0.8c3,2.8,4.1,6.5,1.8,9.9
		c-3.9,5.6-8.9,10.2-14.2,14.6C185.4,467.7,183.9,467.6,182.4,467.7z"/>
	<path class="st0" d="M136.3,514.9c0,5.1-13.9,19.4-18.9,19.5c-3.2,0-5.8-1.4-7.4-4.2c-1.7-2.8-1.9-5.9,0.1-8.5
		c3.9-5.2,8.6-9.7,13.6-13.9c2.4-2,5.6-1.9,8.5-0.3C134.9,509.1,136.3,511.6,136.3,514.9z"/>
	<path class="st0" d="M225.6,406.5c3.8,0.2,6.3,1.6,7.9,4.4c1.7,3,1.7,6.3-0.6,8.9c-4.1,4.6-8.4,9.1-13,13.1
		c-3.1,2.7-6.9,2.2-10.1-0.5c-3.1-2.7-4.3-6.4-2-9.8c3.9-5.8,9.1-10.6,14.5-15C223.3,406.9,224.8,406.8,225.6,406.5z"/>
	<path class="st0" d="M267.2,381.7c0,5.1-13.8,19.4-18.9,19.5c-3.2,0-5.8-1.3-7.5-4.2c-1.6-2.8-1.9-5.9,0.1-8.5
		c3.9-5.1,8.6-9.7,13.6-13.8c2.4-2,5.6-1.9,8.5-0.3C265.8,376,267.2,378.5,267.2,381.7z"/>
	<path class="st0" d="M215.1,393.4c-0.1,5.8-15.2,18.9-20.9,18.2c-3.2-0.4-5.4-2.3-6.6-5.3c-1.2-3.1-0.7-6.1,1.5-8.3
		c4.2-4.1,8.5-7.9,13-11.6c2.7-2.2,5.9-2.2,8.9-0.4C213.7,387.5,215.3,390,215.1,393.4z"/>
	<path class="st0" d="M181,423.7c-0.1,5.4-14.9,18.9-20.3,18.5c-6.3-0.5-10.3-7.9-6.3-12.9c4-5.1,8.9-9.4,14.4-12.9
		C174.2,412.9,181.1,417.3,181,423.7z"/>
	<path class="st0" d="M103.7,476.2c4.2,0,6.7,1.5,8.3,4.7c1.7,3.4,1.2,6.7-1.4,9.2c-4,4-8.2,7.8-12.6,11.3c-3.4,2.7-8,2.2-10.8-0.8
		c-3-3.2-3.6-7.1-1-10.4c4.1-5,9.2-9.1,14.4-12.9C101.7,476.4,103.2,476.4,103.7,476.2z"/>
	<path class="st0" d="M147,454c0,5.6-15,19.1-20.7,18.5c-3.3-0.3-5.5-2.2-6.8-5.1c-1.2-3-1-6.1,1.3-8.3c4.3-4.2,8.7-8.2,13.3-12
		c2.5-2,5.6-2,8.5-0.3C145.4,448.3,147,450.7,147,454z"/>
	<path class="st0" d="M249.2,362.7c0,5.3-14.7,19.1-20.1,18.5c-3.3-0.3-5.9-2-7.3-5.3c-1.4-3.3-0.8-6.4,1.6-8.7
		c4-4,8.2-7.7,12.6-11.3c2.6-2.2,5.8-2.2,8.9-0.6C247.7,356.9,249.2,359.4,249.2,362.7z"/>
	<path class="st0" d="M213.2,488.9c-6.9,0.1-11.4-6.8-7.8-12.2c3.3-5.1,7.4-9.8,11.7-14.1c3-3.1,7-2.7,10.4,0.1
		c3.3,2.6,4.2,6.5,2.2,9.8c-3.3,5.5-7.6,10.4-12.3,14.9C216.1,488.6,214.4,488.7,213.2,488.9z"/>
	<path class="st0" d="M259.1,435.5c0.1,0.8-0.6,2.5-1.7,3.9c-3.3,4.1-6.6,8.3-10.2,12.2c-3.3,3.6-8.1,3.7-11.6,0.6
		c-3.2-2.8-3.9-7.7-1.2-11.2c3.2-4.2,6.6-8.3,10.1-12.3c2.6-3,6.1-3.4,9.6-1.9C257.2,428.2,258.8,430.9,259.1,435.5z"/>
	<path class="st0" d="M269.6,419.7c-3.4,0.1-5.9-1.5-7.4-4.3c-1.6-2.8-1.6-5.9,0.4-8.4c3.4-4.5,6.9-8.9,10.7-13
		c2.9-3.2,7.6-3.2,10.9-0.6c3.4,2.8,4.6,6.8,2.3,10.2c-3.4,5.2-7.7,9.9-11.9,14.6C273.4,419.4,271.4,419.8,269.6,419.7z"/>
	<path class="st0" d="M184.8,523.6c-4.1-0.2-6.5-1.6-8-4.5c-1.5-2.9-1.5-5.9,0.4-8.5c3.4-4.5,7-8.9,10.8-13c2.8-3,7.9-3.1,10.9-0.5
		c3.2,2.8,4.5,6.5,2.2,10.2c-3.3,5.4-7.5,10.1-11.9,14.6C187.8,523.2,186,523.7,184.8,523.6z"/>
	<path class="st0" d="M156.3,558.3c-3.7-0.3-6.3-1.6-7.9-4.4c-1.6-2.8-1.8-5.9,0.2-8.5c3.5-4.6,7.1-9.2,11.1-13.4
		c3-3.1,6.9-3.1,10.4-0.5c3.3,2.5,4.7,6.2,2.7,9.7c-3.3,5.9-7.8,11.1-12.9,15.6C158.9,557.8,157.2,558,156.3,558.3z"/>
	<path d="M169.1,481.6c0,5.1-13.9,19.4-18.9,19.4c-3.2,0-5.8-1.2-7.5-4.1c-1.7-3-1.9-6.3,0.3-8.9c4-4.6,8.4-9,12.9-13.2
		c2.5-2.3,5.8-2.2,8.9-0.6C167.6,475.8,169,478.3,169.1,481.6z"/>
	<path class="st0" d="M144.7,412.1c-3.9-0.3-6.6-2-8-5.5c-1.4-3.5-0.6-6.7,2.1-9.1c4-3.5,8.2-6.8,12.6-9.7c3.6-2.4,7.4-1.7,10.4,1.4
		c2.9,3,3.5,7,0.9,10c-4.4,5.2-9.9,9.2-16,12.4C146.2,412,145.3,412,144.7,412.1z"/>
	<path class="st0" d="M212.2,554.8c0,1.7-0.3,3.3-1.4,4.7c-3,4-5.8,8.1-9,12c-3,3.7-8,4.2-11.6,1.5c-3.5-2.7-4.5-7.3-2-11.1
		c3-4.4,6.2-8.7,9.6-12.8c2.3-2.8,5.7-3.4,9.1-2C210.5,548.5,212.2,551.1,212.2,554.8z"/>
	<path class="st0" d="M246.9,505.7c-6.7,0-10.9-6.8-7.5-12.3c2.8-4.7,6.2-9.1,9.8-13.2c2.8-3.2,6.7-3.7,10.4-1.3
		c3.6,2.3,5.2,6,3.3,9.9c-2.8,5.7-6.9,10.5-11.1,15.2C250.6,505.3,248.7,505.8,246.9,505.7z"/>
	<path class="st0" d="M220.8,540.3c-6.4-0.4-10.2-7.2-7-12.5c2.9-4.7,6.3-9,9.8-13.2c2.7-3.2,7.7-3.5,10.9-1
		c3.4,2.6,4.8,6.2,2.7,10.1c-2.9,5.3-6.7,9.9-10.6,14.4C225,539.8,222.8,540.3,220.8,540.3z"/>
	<path class="st0" d="M77.1,464.5c-3.9-0.2-6.6-1.8-8.1-5.2c-1.5-3.4-0.9-6.7,1.8-9.1c4.1-3.6,8.5-7,13-10c3.6-2.4,7.5-1.6,10.4,1.6
		c2.7,3,3.3,7,0.7,10.1c-4.3,5-9.9,8.8-15.6,12.1C78.6,464.3,77.7,464.4,77.1,464.5z"/>
	<path class="st0" d="M130.2,421c0.1,6.1-15.5,18.5-21.4,17c-6.5-1.6-8.9-9.4-4-14c4-3.7,8.4-7.1,13-10.1
		C123.3,410.4,130.1,414.5,130.2,421z"/>
	<path class="st0" d="M289.2,451.5c0.1,1.5-0.4,3.2-1.5,4.7c-2.8,3.9-5.6,7.8-8.7,11.6c-3.2,3.9-7.8,4.5-11.5,1.8
		c-3.9-2.8-4.7-7.6-1.8-11.9c2.7-4,5.6-7.8,8.6-11.6c2.4-3.1,5.8-3.9,9.4-2.6C287.2,444.8,289.1,447.3,289.2,451.5z"/>
	<path class="st0" d="M232.1,342.6c0,6.4-16.1,18.5-22.1,16.8c-5.8-1.7-8.1-9.4-3.6-13.6c4.1-3.9,8.6-7.4,13.4-10.3
		C225.3,331.9,232.1,336.2,232.1,342.6z"/>
	<path class="st0" d="M298.3,436.7c-6.5,0.1-11-6.5-7.8-11.9c2.9-5,6.6-9.6,10.4-14c2.9-3.2,6.8-3.3,10.4-0.8
		c3.5,2.4,4.9,6.9,2.6,10.6c-3,4.7-6.6,9.2-10.1,13.6C302.5,436,300.4,436.8,298.3,436.7z"/>
	<path class="st0" d="M198.1,368.7c0,6.4-15.7,18.5-22,16.8c-6.1-1.6-8.2-9.5-3.4-13.9c4-3.7,8.4-7.1,13-10
		C191.3,358.1,198.1,362.2,198.1,368.7z"/>
	<path class="st1" d="M311.8,369.8c0.2,5-8.1,14.8-12.8,15.3c-3.4,0.4-6.2-1-8-3.9c-1.8-2.9-1.9-6.1,0.1-8.9c2-2.8,4.2-5.5,6.6-8
		c2.6-2.7,5.9-3,9.2-1.6C310,364,311.5,366.8,311.8,369.8z"/>
	<path class="st1" d="M327.7,378.7c6.8-0.1,11.3,6.4,8.4,11.8c-1.8,3.5-4.3,6.7-7,9.5c-2.6,2.8-6.2,3-9.6,1.1
		c-3.3-1.9-5.2-5.1-4.1-8.8c1.5-5,5-8.9,8.8-12.3C325.3,379.1,327,378.9,327.7,378.7z"/>
	<path class="st0" d="M145,571.6c-0.1,5.5-7.5,14.9-11.6,15.8c-3.5,0.7-6.6-0.1-8.8-3.1c-2.2-3-2.5-6.3-0.4-9.3c2-3,4.4-5.8,7-8.4
		c2.6-2.6,5.8-2.9,9.2-1.3C143.4,566.9,145,569.4,145,571.6z"/>
	<path class="st0" d="M272.3,359.4c0.3-4.9,9-13.7,13.7-14.1c3.3-0.3,5.9,0.9,7.7,3.7c1.9,2.9,2.1,6.1,0.1,8.9
		c-2.4,3.4-5.3,6.4-8.8,8.8c-2.7,1.8-5.7,1.6-8.5,0C273.5,365,272.4,362.3,272.3,359.4z"/>
	<path class="st0" d="M173.3,604.5c-5.9,0-10.1-6.1-7.7-11.5c1.8-3.9,4.4-7.4,7.7-10.3c2.9-2.5,6.5-2.5,9.7-0.3
		c3.1,2.1,4.8,5.3,3.3,9c-1.7,4.5-4.8,8.3-8.4,11.5C176.7,604.1,175,604.6,173.3,604.5z"/>
	<path class="st0" d="M268.8,328.4c4.3,0,7,1.5,8.5,4.6c1.6,3.3,1.4,6.5-1.2,9.2c-2.4,2.5-5,4.9-7.7,7c-3.4,2.5-8.1,1.9-10.8-1
		c-3.1-3.2-3.5-8-0.2-11.2C260.9,333.5,264,329,268.8,328.4z"/>
	<path class="st0" d="M261.4,320.4c0,2-0.8,4.2-2.7,5.7c-2.6,2.1-5.1,4.3-7.9,6c-3.8,2.5-8.4,1.5-11-2c-2.7-3.6-2.4-8,1-11.2
		c2.4-2.2,5.1-4.2,7.8-6.1c2.7-1.8,5.6-1.9,8.5-0.3C259.9,314.2,261.3,316.7,261.4,320.4z"/>
	<path class="st0" d="M78.9,514.9c0.1,6-10.5,14.9-16.4,13.8c-5.8-1.1-8.8-8-5.3-12.7c2.6-3.4,5.8-6.4,9.6-8.5
		C72.2,504.6,78.8,508.8,78.9,514.9z"/>
	<path class="st0" d="M103.7,547.8c0.1,5.3-9.3,14.8-14.5,14.7c-3.5-0.1-5.9-1.8-7.5-4.9c-1.5-3-1.2-5.9,0.9-8.4
		c2.3-2.8,4.9-5.4,7.7-7.8c2.6-2.3,5.8-2.4,8.8-0.8C102.1,542.3,103.4,544.8,103.7,547.8z"/>
	<path class="st2" d="M458.6,244c0,6.3-0.3,12.7,0.1,19c0.2,4.4-0.8,6.1-5.6,5.9c-10.1-0.4-20.3,0-30.5-0.1
		c-8.3-0.1-15.2,2.8-21,8.8c-7.2,7.4-14.6,14.6-21.8,22c-2,2-2.8,2-4.8-0.2c-10-10.7-20.3-21.2-31.1-31c-1.5-1.4-2.1-2.1-0.4-3.8
		c9.6-9.3,18.8-18.9,28.6-27.9c13.4-12.4,29.7-17.9,47.9-18c11.5-0.1,23,0.1,34.5-0.1c3.8-0.1,4.4,1.3,4.3,4.6
		C458.4,230,458.6,237,458.6,244z"/>
	<path class="st2" d="M525.9,243.8c0,15.3-0.1,30.6,0.1,46c0,3.3-0.9,4.3-4.2,4.2c-9.7-0.2-19.3,0-29-0.1c-11.7-0.2-17-5.7-17-17.3
		c0-22.6,0-45.3,0-67.9c0-8.2,5.3-14.7,13.5-15.1c11.3-0.5,22.6-0.1,34-0.3c3.4,0,2.7,2.1,2.7,4
		C525.9,212.8,525.9,228.3,525.9,243.8z"/>
	<path class="st3" d="M349.9,358.1c-21.1-21.1-41.5-41.6-62-62c-1.8-1.8-1.6-2.7,0.1-4.2c3.1-2.8,5.9-5.8,8.9-8.8
		c10.9-10.9,22.1-12.4,34.1-2.9c12,9.5,22.9,20.4,32.4,32.4c9.7,12.3,8.2,23.1-2.8,34.1C357,350.3,353.6,354.1,349.9,358.1z"/>
</g>
</svg>
