<?xml version="1.0" encoding="utf-8"?>
<!-- Generator: Adobe Illustrator 19.0.0, SVG Export Plug-In . SVG Version: 6.00 Build 0)  -->
<svg version="1.1" id="Calque_1" xmlns="http://www.w3.org/2000/svg" xmlns:xlink="http://www.w3.org/1999/xlink" x="0px" y="0px"
	 viewBox="0 0 612 792" style="enable-background:new 0 0 612 792;" xml:space="preserve">
<style type="text/css">
	.st0{fill:#020202;}
	.st1{fill:#010101;}
</style>
<g>
	<path class="st0" d="M288.7,570.4c-0.1,5.5-5.1,10.1-10.5,9.7c-5.5-0.4-9.8-5.6-9-11.1c0.9-5.7,4.4-9.9,8.4-13.7
		c0.8-0.8,1.5-0.9,2.5-0.1C283.9,557.6,288.8,566.2,288.7,570.4z"/>
	<path class="st1" d="M241.7,540.5c-6.5,0-11-5.7-9.5-12.2c1.1-5,4.4-8.8,8-12.3c1-1,1.9-1.1,2.9-0.1c4.2,4.3,8.3,8.7,8.2,15.3
		C251.2,536.6,247,540.5,241.7,540.5z"/>
	<path class="st1" d="M370.2,568.9c0,6.9-4.4,11.3-9.7,11.3c-5.2-0.1-9.5-4.2-9.5-9.5c-0.1-6.8,4.2-11.2,8.6-15.6
		c0.8-0.8,1.4-0.6,2.1,0.1C365.9,559.4,369.8,563.8,370.2,568.9z"/>
	<path class="st1" d="M318.8,621.4c-5.4-0.1-9.8-4.6-9.4-10.1c0.4-6.2,4.2-10.6,8.5-14.7c1.1-1.1,2-0.6,2.9,0.3
		c3.6,3.6,6.7,7.4,7.8,12.4C330.1,615.7,325.3,621.5,318.8,621.4z"/>
	<path class="st1" d="M318.5,540.5c-5.4,0.1-9.5-3.8-9.7-9.2c-0.2-4.8,6-15.5,9.3-16.1c2.1-0.4,8.8,8.5,9.7,13
		C329.2,534.8,324.9,540.4,318.5,540.5z"/>
	<path class="st1" d="M405.3,529.7c0.1,6.5-3.9,10.8-9.4,10.9c-5.7,0.1-10.1-4.3-9.8-10.1c0.3-6.3,4.3-10.5,8.4-14.7
		c0.9-0.9,1.8-0.8,2.6,0C401.1,520,404.9,524.4,405.3,529.7z"/>
	<path d="M450.9,447.7c-2.8-9.5-9.8-15.2-18.5-19c-2.2-1-3.7-2.1-4.7-4.6c-7.1-18.7-20-32.3-37.4-41.8c-14.6-8-30.4-12.5-46.9-14
		c-3.4-0.3-5.2-0.8-4.7-5.2c3.5-36.2,19.1-65.3,49.2-86.3c5.8-4.1,5.9-7.5,0.5-15.2c-3-4.3-6-4.5-11.5-0.8
		c-36,24.9-54.1,59.8-57.6,102.9c-0.3,3.6-1.6,4.4-4.7,4.6c-10,0.7-19.7,2.9-29.2,6.2c-23.7,8.2-43,21.8-53.5,45.4
		c-2.2,5-5,8.2-9.9,10.7c-9.6,4.8-16.2,12.4-16,23.9c0.1,11.3,6.9,18.3,16.1,23.5c8.4,4.7,17.5,5.9,27,5.9c26.5-0.1,53,0,79.5,0
		c5.3,0,10.7,0,16,0c24-0.1,48,0.1,72-0.4c10.6-0.2,20.2-4.1,27.8-11.8C450.8,464.8,453.6,456.9,450.9,447.7z M288.2,394.1
		c30.9-11.1,61.3-10.2,91,4.3c11.4,5.6,20.6,13.9,27.2,25.6c-51.7,0-103,0-155,0C260,408.8,272.7,399.6,288.2,394.1z M427.3,460.2
		c-5.1,3-10.8,4.1-16.8,4.1c-27.2,0-54.3,0-81.5,0c0,0,0,0,0,0c-27.3,0-54.7,0-82,0c-5.8,0-11.3-1.1-16.3-4c-7.1-4.1-7-8.7,0.1-12.8
		c4.9-2.8,10.3-3.8,15.8-3.8c54.7,0,109.3,0,164,0c5.9,0,11.6,1,16.7,4.2C433.9,451.9,433.9,456.3,427.3,460.2z"/>
</g>
</svg>
