<?xml version="1.0" encoding="utf-8"?>
<!-- Generator: Adobe Illustrator 19.0.0, SVG Export Plug-In . SVG Version: 6.00 Build 0)  -->
<svg version="1.1" id="Calque_1" xmlns="http://www.w3.org/2000/svg" xmlns:xlink="http://www.w3.org/1999/xlink" x="0px" y="0px"
	 viewBox="0 0 612 792" style="enable-background:new 0 0 612 792;" xml:space="preserve">
<g>
	<path d="M51,563c0-109.7,0-219.3,0-329c6-15.1,16.9-20.8,33.1-20.4c34.6,0.8,69.3,0.2,104,0.2c1.8,0,3.5,0,5.7,0c0-2.4,0-4,0-5.6
		c0-17.2,0-34.3,0-51.5c0-12.1,6.3-19.9,16.8-24.9c1.2-0.6,2.3-1.2,3.4-1.8c59,0,118,0,177,0c0.6,0.3,1.1,0.7,1.7,0.9
		c12.6,4.4,19.2,13.8,19.2,27.2c0,15.8,0,31.7,0,47.5c0,2.6,0,5.2,0,8.2c2.6,0,4.6,0,6.5,0c36.2,0,72.3,0.4,108.5-0.2
		c16.5-0.3,28.6,14.6,28.1,28c-0.7,20.5-0.3,41-0.3,61.5c0,84.1,0.1,168.3,0.2,252.4c0,12.1-5.9,20.4-16.6,25.6
		c-1.1,0.6-2.2,1.2-3.3,1.8c-154.7,0-309.3,0-464,0C61.3,579.3,54.8,572.6,51,563z M394.8,565.9c0-89.5,0-178.6,0-267.8
		c-1.5-0.1-2.6-0.2-3.7-0.2c-10.7-0.2-12.7-2.2-12.7-13.1c0-12.5,0-25,0-37.5c0-5.3,0-10.6,0-16c-50.6,0-100.6,0-150.9,0
		c-0.1,1.7-0.2,3-0.2,4.3c0,17.3,0,34.7,0,52c0,7.4-2.9,10.2-10.3,10.3c-1.9,0-3.9,0-6,0c0,89.7,0,178.7,0,268
		C272.3,565.9,333.3,565.9,394.8,565.9z M125.5,230.9c-0.3,1.3-0.4,2.1-0.6,2.8c-7.2,28.9-24.6,49-52.5,59.5c-3.7,1.4-4.6,3-4.6,6.8
		c0.1,67.8,0.1,135.6,0.1,203.4c0,1.6,0,3.3,0,4.8c31.5,7.5,53.6,25.1,64.7,55.5c0.4,1,1.7,2.2,2.6,2.2c8.1,0.2,16.2,0.1,24.5,0.1
		c0-89.6,0-178.8,0-268.1c-1.3-0.1-2.3-0.2-3.3-0.2c-11.1-0.2-13.1-2.1-13.1-13.2c0-16.2,0-32.3,0-48.5c0-1.7-0.2-3.5-0.2-5.3
		C136.9,230.9,131.5,230.9,125.5,230.9z M445.9,566.1c8.4,0,16.2,0.2,24-0.2c1.3-0.1,3.1-2,3.7-3.5c10.7-27.9,30.7-45.4,59.3-53
		c4.1-1.1,5.1-2.5,5.1-6.5c-0.1-66.8-0.1-133.6,0-200.4c0-4.6-0.7-7.4-5.7-8.5c-2.7-0.6-5.3-2-7.8-3.3
		c-22.7-12.1-37.3-30.6-43.7-55.6c-0.4-1.6-1.8-4.1-2.9-4.2c-5-0.5-10.2-0.2-15.7-0.2c0,2.4,0,4,0,5.6c0,16.7,0,33.3,0,50
		c0,8.8-2.6,11.4-11.2,11.5c-1.6,0-3.2,0-5.2,0C445.9,387.4,445.9,476.5,445.9,566.1z M394.9,213.5c0.1-1.7,0.2-3.1,0.2-4.4
		c0-17.3,0-34.6,0-52c0-8.5-1.8-10.3-10.1-10.3c-54.8,0-109.6,0-164.3,0c-8.2,0-10,1.8-10,10c0,17.3,0,34.6,0,52
		c0,1.5,0.2,2.9,0.3,4.7C272.3,213.5,333.3,213.5,394.9,213.5z M177.3,298.1c0,89.5,0,178.6,0,267.6c5.6,0,10.8,0,16.1,0
		c0-89.4,0-178.4,0-267.6C187.9,298.1,182.8,298.1,177.3,298.1z M412.2,565.7c5.7,0,10.9,0,16.3,0c0-89.3,0-178.4,0-267.4
		c-5.6,0-10.9,0-16.3,0C412.2,387.5,412.2,476.4,412.2,565.7z M160.4,280.7c16.7,0,33.1,0,49.9,0c0-16.5,0-32.9,0-49.4
		c-16.8,0-33.3,0-49.9,0C160.4,248,160.4,264.2,160.4,280.7z M395.5,231.1c0,16.9,0,33.3,0,49.6c16.8,0,33.2,0,49.7,0
		c0-16.7,0-33.1,0-49.6C428.5,231.1,412.2,231.1,395.5,231.1z M490.7,566c13.3,0,26.6,0.1,39.9,0c4.4,0,6.9-2.8,7-6.9
		c0.2-10.9,0.1-21.9,0.1-32.8C519.9,525.9,494.2,547.8,490.7,566z M497.3,231c2.9,20.6,20.8,42.3,40.4,46.7
		c0-13.3,0.1-26.6-0.1-39.9c-0.1-3.8-2.1-6.8-6.5-6.8C520,230.9,508.9,231,497.3,231z M68,526.1c0,11.1-0.1,22.3,0.1,33.4
		c0.1,3.8,2.5,6.4,6.4,6.4c13.4,0.2,26.9,0.1,40.4,0.1C112.1,548.4,87.4,527.4,68,526.1z M107.8,231c-11.1,0-22.3-0.1-33.4,0
		c-3.7,0-6.1,2.6-6.2,6c-0.3,13.2-0.1,26.5-0.1,39.8C87.8,271.8,107.1,249.4,107.8,231z"/>
	<path d="M302.7,373.2c-16.2,0-32.3,0-48.5,0c-7.3,0-10.2-2.9-10.2-10.4c0-15.3,0-30.6,0-46c0-7.7,3-10.7,10.5-10.8
		c32.3,0,64.6,0,96.9,0c6.9,0,10.6,3.8,10.5,10.5c-0.1,15.2-0.2,30.3-0.3,45.5c-0.1,8.5-2.6,11.1-11,11.2
		C334.7,373.2,318.7,373.2,302.7,373.2z M261.3,323.2c0,11.3,0,22.1,0,32.8c28,0,55.6,0,83.3,0c0-11.2,0-22,0-32.8
		C316.6,323.2,289.1,323.2,261.3,323.2z"/>
</g>
</svg>
