<?xml version="1.0" encoding="utf-8"?>
<!-- Generator: Adobe Illustrator 19.0.0, SVG Export Plug-In . SVG Version: 6.00 Build 0)  -->
<svg version="1.1" id="Calque_1" xmlns="http://www.w3.org/2000/svg" xmlns:xlink="http://www.w3.org/1999/xlink" x="0px" y="0px"
	 viewBox="0 0 612 792" style="enable-background:new 0 0 612 792;" xml:space="preserve">
<style type="text/css">
	.st0{fill:#FDDB09;}
	.st1{fill:#FDDC09;}
	.st2{fill:#FDFDFD;}
	.st3{fill:#D94D6B;}
	.st4{fill:#FB9708;}
	.st5{fill:#DA4D6B;}
</style>
<g>
	<path d="M487,598c-4.3,0-8.7,0-13,0c-17-2.6-27.5-13-33.8-28.3c-1.5-3.8-4.2-4.2-7.6-4.2c-22.2,0-44.3,0.1-66.5,0
		c-27.8-0.2-55.6,2.2-83.4,0.9c-34.6-1.7-69.3-0.2-103.9-1c-5.4-0.1-8.4,1.4-10.5,6.7c-4,10.3-11.6,17.7-21.3,22.9
		c-4.1,2.2-8.7,1.9-13,3c-4.3,0-8.7,0-13,0c-16.5-3.4-27.2-13.6-33.4-28.8c-0.9-2.2-2-3.5-4.5-3.9C67.2,562.6,56.6,552.6,53,537
		c0-104.3,0-208.7,0-313c1.6-19,20.5-30.7,39.4-30.6c30.1,0.3,60.3,0.1,90.4,0.1c13.1,0,11.6,1.3,11.6-11.9c0.1-11.3,0-22.7,0-34
		c0-14.7,7.5-24.2,21.5-27.6c59,0,118,0,177,0c14.3,2.8,22.4,12.4,22.5,27.2c0.1,13.2,0,26.3,0,39.5c0,6.4,0.3,6.7,6.8,6.7
		c32,0,64,0,96,0c16.4,0,28.9,6.8,36.5,21.8c2.7,5.3,3.8,11,3.8,16.9c0,98.6,0.1,197.2,0,295.8c0,18.8-11.9,33.4-30.1,37.2
		c-3.8,0.8-5.6,2.9-7,6.1c-4.4,10.5-11.7,18.4-21.9,23.7C495.5,597.1,491.1,597,487,598z"/>
	<path class="st0" d="M92.9,212.4c21-0.1,42-0.2,63-0.2c36.7,0,73.3,0.2,110,0.1c4.5,0,5.5,1.2,5.4,5.5c-0.3,16.2-0.2,32.3,0,48.5
		c0,3.4-0.4,5-4.5,4.8c-10.2-0.3-12.3,2.1-12.3,12.2c0,19.8,0,39.7,0,59.5c0,9.8,2.4,12.2,12.1,12c3.6-0.1,4.7,0.7,4.7,4.6
		c-0.1,61.2-0.1,122.3,0,183.5c0,3.9-0.9,5-4.9,5c-32.5-0.2-65,0-97.5-0.1c-25.3,0-50.6-0.2-76-0.4c-2.8-0.5-4-2.7-5.1-5
		c-1.8-3.8-2.4-7.9-2.4-12.1c0-100.2,0-200.4,0-300.6c0-4.2,0.7-8.3,2.5-12.1C88.9,215.2,90.3,213.2,92.9,212.4z"/>
	<path class="st1" d="M506.9,547.2c-7.7,0.1-15.3,0.2-23,0.2c-46.8,0.1-93.6,0.2-140.4,0.5c-4.1,0-5.3-1-5.3-5.2
		c0.1-61,0.1-121.9,0-182.9c0-3.9,0.9-5.1,4.9-5c9.7,0.3,11.9-2.3,11.9-12.1c0-20.7,0.1-41.3,0.1-62c0-6.6-3.1-9.6-9.8-9.8
		c-7-0.1-7-0.1-7-7.2c0-15.7,0.1-31.3-0.1-47c0-3.4,0.9-4.6,4.4-4.6c15.8,0.2,31.6,0.1,47.5,0c2.5,0,4.4,0.7,6.1,2.6
		c7.7,7.8,15.5,15.6,23.4,23.3c2,1.9,2.7,3.9,2.6,6.6c-0.1,7.8,0.1,15.7-0.1,23.5c-0.1,4.1,1.1,7.3,4.1,10.2
		c15.9,15.7,31.6,31.5,47.4,47.3c5.3,5.3,9.4,5.3,14.6,0.2c11.3-11.3,22.6-22.7,33.8-34c2.2,0.5,2.1,2.4,2.3,3.9
		c0.3,1.6,0.2,3.3,0.2,5c0,75.6,0,151.3,0,226.9c0,4.2-0.2,8.3-1.7,12.3c-2.3,6.3-3.9,7.5-10.6,7.4
		C510.6,547.5,508.7,547.8,506.9,547.2z"/>
	<path class="st2" d="M304.7,195.1c-29,0-57.9-0.1-86.9,0.1c-4.6,0-5.4-1.4-5.3-5.5c0.3-14.3,0.1-28.6,0.1-43c0-8.2,1.8-9.9,10-9.9
		c54.8,0,109.6,0,164.3,0c8.4,0,10.1,1.8,10.1,10.3c0,14.5-0.1,29,0.1,43.5c0.1,3.8-1,4.6-4.7,4.6
		C363.3,195.1,334,195.1,304.7,195.1z"/>
	<path class="st3" d="M321.8,451.6c0,30.1-0.1,60.3,0.1,90.4c0,4.5-1.3,5.6-5.6,5.5c-8-0.3-16-0.2-24,0c-3.1,0.1-4.3-0.6-4.3-4.1
		c0.1-61.4,0.1-122.9,0-184.3c0-3.4,1.1-4.1,4.3-4.1c8.3,0.2,16.7,0.3,25,0c3.8-0.1,4.7,1.1,4.7,4.8
		C321.7,390.3,321.8,420.9,321.8,451.6z"/>
	<path class="st4" d="M506.9,547.2c0.7-0.1,1.3-0.2,2-0.2c10-0.3,13.8-4.1,14-14.4c0.2-9.3,0.1-18.6,0.1-28c0-68.9,0-137.9,0-206.8
		c0-1.9,0.6-4-0.8-5.8c1-2.6,1.3-5.3,0.1-7.9c-0.8-3.1-0.9-6.2-0.9-9.4c0-14,0-28,0-42c0-2,0-4-0.2-6c-1.1-9.6-3.8-12.1-13.3-12.1
		c-26.8,0-53.6,0-80.4,0c-3,0-6,0.1-8.7-1.6c0.5-1.8,1.9-0.8,2.8-0.8c33.6,0,67.3,0,100.9,0.1c11.1,0,17.3,6.3,17.3,17.4
		c0,100.1,0,200.2,0,300.3c0,11.5-6,17.6-17.5,17.8C517.2,547.8,512.1,547.4,506.9,547.2z"/>
	<path class="st2" d="M92.9,212.4c-4.4,5.4-6.2,11.5-6.2,18.5c0.1,99.1,0.1,198.1,0,297.2c0,7.2,1.2,13.9,6.2,19.4
		c-2.3,0.1-4.6,0.4-6.9,0.3c-10.4-0.7-16-6.5-16-17.1c-0.1-32.8,0-65.6,0-98.4c0-66.1,0-132.2,0-198.3
		C69.9,216.5,75.6,211.2,92.9,212.4z"/>
	<path class="st3" d="M304.1,338c-9.6,0-19.3-0.1-28.9,0.1c-3,0-4-0.7-4-3.8c0.2-14.1,0.1-28.3,0-42.4c0-3,0.8-4.1,3.9-4
		c19.8,0.1,39.6,0.1,59.4,0c3,0,4,0.8,4,3.9c-0.2,14.1-0.2,28.3,0,42.4c0.1,3.6-1.5,4-4.4,4C324,337.9,314,338,304.1,338z"/>
	<path class="st0" d="M418.8,213c30,0,59.9,0,89.9,0c9.8,0,13.8,2.8,14.1,12.8c0.6,19.1,0.1,38.3,0,57.4c0,0.3-0.3,0.6-0.5,0.9
		c-9.1-9.3-18.2-18.5-27.3-27.8c-7.8-7.9-15.7-15.8-23.6-23.8c-2.4-2.4-5.1-3.5-8.5-3.5c-8.5,0.1-17,0-25.5,0
		c-1.6,0-3.2,0.2-4.6-1.3C428.4,222.7,422.9,218.4,418.8,213z"/>
	<path class="st5" d="M452.1,245.9c6.2-1.8,11.2,1.7,16.1,7c10.1,10.8,20.8,21.1,31.4,31.5c2.5,2.5,3.2,3.9,0.2,6.6
		c-5.7,5.1-11,10.7-16.3,16.2c-1.8,1.9-2.9,1.9-4.8,0c-12.4-12.6-24.9-25-37.5-37.5c-1.5-1.5-2.3-3.1-2.2-5.3c0.1-5,0.2-10,0-15
		c-0.1-3,1.2-3.7,3.8-3.5C445.5,246,448.2,245.9,452.1,245.9z"/>
	<path class="st3" d="M321.8,241.8c0,8.5-0.1,17,0.1,25.5c0.1,2.9-0.9,3.7-3.7,3.7c-8.8-0.2-17.7-0.2-26.5,0
		c-2.9,0.1-3.7-0.9-3.6-3.7c0.1-17,0.1-34,0-51c0-2.8,0.8-3.8,3.6-3.7c8.8,0.2,17.7,0.1,26.5,0c2.8,0,3.8,0.9,3.7,3.7
		C321.7,224.9,321.8,233.4,321.8,241.8z"/>
	<path class="st3" d="M457.6,565c15.8,0,31.2,0,46.7,0c-2.1,9.2-10.6,15.6-21,16.1C470.3,581.6,461.2,576.1,457.6,565z"/>
	<path class="st3" d="M128.7,564.8c6.8,0,13.6,0.1,20.5,0c2.6,0,3.2,0.6,2.1,3.2c-3.5,8.1-12.4,13.3-23.3,13.2
		c-10.2-0.1-19-5.6-22.2-13.4c-0.9-2.3-0.4-2.9,1.9-2.9C114.7,564.9,121.7,564.8,128.7,564.8z"/>
</g>
</svg>
