<?xml version="1.0" encoding="utf-8"?>
<!-- Generator: Adobe Illustrator 19.0.0, SVG Export Plug-In . SVG Version: 6.00 Build 0)  -->
<svg version="1.1" id="Calque_1" xmlns="http://www.w3.org/2000/svg" xmlns:xlink="http://www.w3.org/1999/xlink" x="0px" y="0px"
	 viewBox="0 0 612 792" style="enable-background:new 0 0 612 792;" xml:space="preserve">
<g>
	<path d="M385,668c-3.3,0-6.7,0-10,0c-9.3-3.9-15.8-10.1-16.5-20.8c-28.6,0-56.8,0-85,0c-2,11.3-4.5,14.4-16.6,20.8
		c-3.3,0-6.7,0-10,0c-1.1-0.6-2.3-1.2-3.4-1.8c-7.9-3.7-12.6-9.9-12.7-18.7c0-3.9-1.6-5.3-4.9-6.8c-17.9-8.2-29.8-21.8-35.6-40.7
		c-0.9-3-1.6-6-2.4-9c0-52.7,0-105.3,0-158c1.5,0.1,3,0.2,4.5,0.2c59.1,0,118.1,0,177.2,0c24.8,0,49.6-0.1,74.3-0.2
		c0,52.7,0,105.3,0,158c-0.3,0.9-0.8,1.8-1,2.7c-4.1,20.6-15.3,35.9-33.9,45.4c-5.1,2.6-9,4.8-8.3,11.4c0.2,2.2-1,5.3-2.6,6.8
		C394.1,661.2,389.4,664.5,385,668z"/>
	<path d="M444,361c0,10,0,20,0,30c-1.8-0.1-3.6-0.2-5.5-0.2c-57.6,0-115.1,0-172.7,0c-25.9,0-51.9,0.2-77.8,0.2c0-10,0-20,0-30
		c0.3-0.9,0.8-1.8,1-2.7c4.8-26.3,24.7-46.6,51.1-51.8c3.8-0.8,7.8-1,11.9-1.5c0-7.5,0-14.6,0-21.8c0-7.1,0-14.3,0-21.4
		c-1.9-0.6-3.3-1-4.7-1.4c-22.4-6.9-37.6-27.1-38-50.3c-0.4-23.2,14.8-44.2,37.1-51.4c3.1-1,6.4-1.7,9.6-2.6c40,0,80,0,120,0
		c0.9,0.3,1.8,0.7,2.8,0.9c22.7,4.1,40.8,22.9,43.3,45.1c2.8,24.7-9.3,47.4-31.9,55.8c-9.1,3.4-11,7.7-10.4,16.3
		c0.7,10.2,0.2,20.5,0.2,30.8c2.6,0.3,4.6,0.6,6.5,0.8c26.3,2.9,47.8,20.9,55.1,46.2C442.5,355,443.2,358,444,361z M295,304.9
		c14.3,0,28.1,0,41.8,0c0-14.2,0-28,0-41.8c-14.1,0-27.9,0-41.8,0C295,277.1,295,290.9,295,304.9z"/>
</g>
</svg>
