<?xml version="1.0" encoding="utf-8"?>
<!-- Generator: Adobe Illustrator 19.0.0, SVG Export Plug-In . SVG Version: 6.00 Build 0)  -->
<svg version="1.1" id="Calque_1" xmlns="http://www.w3.org/2000/svg" xmlns:xlink="http://www.w3.org/1999/xlink" x="0px" y="0px"
	 viewBox="0 0 612 792" style="enable-background:new 0 0 612 792;" xml:space="preserve">
<style type="text/css">
	.st0{fill:#306AEE;}
	.st1{fill:#FDFDFD;}
	.st2{fill:#2544CD;}
	.st3{fill:#FDDB09;}
	.st4{fill:#FCFCFC;}
</style>
<g>
	<path d="M434,618c-1.7,0-3.3,0-5,0c-5.1-0.9-7-4.5-7.5-9.2c-0.7-6.1-0.7-6.2-7-6.2c-38.3,0-76.6,0-114.9,0c-23.8,0-47.6,0-71.4,0
		c-7.8,0-7.5,1-7.9,6.5c-0.3,4.6-2.6,7.8-7.3,9c-2,0-4,0-6,0c-5.2-1.3-6.3-5.2-6.4-9.8c-0.2-5.6-0.3-5.7-6.1-5.8c-2.3,0-4.6,0-7,0
		c-14.7,0-25.2-8.3-28.6-22.4c0-54.3,0-108.7,0-163c3.5-14.4,13.7-22.4,28.7-22.5c13.3-0.1,26.6-0.1,40,0c3.5,0,6.2-0.7,8.5-3.8
		c4.3-5.8,11.4-5.6,16.2,0c2.8,3.4,10.1,5.1,14,3.3c1.3-0.5,1.7-1.5,1.9-2.7c0.3-1.8,0.2-3.7,0.2-5.5c0-73.4,0-146.8,0.1-220.3
		c0-5.6-1.4-9.4-6.1-13.1c-15.3-11.9-14.4-32.4,1.3-43.2c3.2-2.2,6.8-2.4,10.3-3.3c31.3,0,62.7,0,94,0c6.3,1,11.6,3.8,15.7,8.8
		c10,12.3,8.6,27.8-4.1,37.4c-4.7,3.6-6.2,7.3-6.2,13c0.2,73.4,0.1,146.9,0.1,220.3c0,8.6,3.3,11,11.7,8.6c1.8-0.5,2.7-1.8,3.8-3.1
		c5.2-6.1,11.9-6.2,16.9,0c2.2,2.7,4.7,3.3,7.8,3.3c13,0,26,0.4,39-0.1c18.8-0.8,31.9,13.9,31.8,31.6c-0.1,13.7,0,27.3,0,41
		c0,34.5,0,69,0,103.4c0,10-2.7,18.7-10.7,25.3c-5.2,4.3-11,6.8-17.8,6.9c-2.8,0-5.7,0.2-8.5,0c-4.1-0.2-6.2,1.2-6.1,5.6
		C441.5,613.2,439.1,616.7,434,618z"/>
	<path class="st0" d="M196.1,583.8c-0.3,0-0.7,0-1-0.1c-4-4.3-4.8-11-2-16.7c2.8-0.1,5.7,0,8.5-0.2c5.1-0.4,8.5-3.8,8.5-8.6
		c0-4.8-3.3-8.1-8.6-8.4c-2.8-0.1-5.6-0.2-8.5-0.3c-2.4-5.5-2.4-11.1,0-16.6c2.8-0.1,5.6-0.1,8.4-0.3c5.4-0.4,8.8-4,8.6-9
		c-0.2-4.8-3.5-7.8-8.9-8c-8.2-0.3-16.5,0.8-24.7-0.2c2.3-3.2,5.7-1.9,8.7-2.1c5.9-0.3,6.3-0.5,6.3-6.3c0.1-11.5,0.1-23,0-34.5
		c0-5.8-0.4-5.9-6.3-6.2c-3-0.1-6.4,1.2-8.7-2.1c7.1-0.9,14.3-0.2,21.4-0.2c22.8,0,45.6,0.1,68.4-0.1c4,0,4.9,1.2,4.9,5
		c-0.1,18.1,11.3,29.4,29.6,29.4c14,0,28-0.5,41.9,0.1c17.7,0.8,31.5-14.6,29.8-29.5c-0.2-1.4-0.5-3,0.6-4.3
		c1.2-0.7,2.6-0.4,3.9-0.4c22.7,0,45.3,0,68,0c4.9,0,5.5,0.9,5.5,5.9c0,10.9,0.1,21.9-0.1,32.8c-0.2,10.1,0.2,20.2-0.1,30.4
		c-0.3,8.8-0.5,17.6,0.1,26.4c0.5,6.4-0.3,12.6-1,18.9c-0.5,4.2-3.3,4.6-6.8,4.6c-66.7-0.1-133.3-0.1-200,0
		C227,583.5,211.5,583.1,196.1,583.8z"/>
	<path class="st1" d="M286.8,276.5c0-38,0.1-75.9-0.1-113.9c0-4.5,1.2-5.5,5.5-5.4c19.3,0.2,38.6,0.2,58,0c3.6,0,4.8,0.6,4.8,4.6
		c-0.1,76.8-0.1,153.6,0,230.3c0,3.5-1.2,4-4.2,4c-19.8-0.1-39.6-0.2-59.5,0c-3.9,0-4.6-1.1-4.5-4.7
		C286.9,353.1,286.8,314.8,286.8,276.5z"/>
	<path class="st0" d="M449,447c-5.2,0.1-10.3,0.3-15.5,0.3c-49.8,0-99.7-0.1-149.5-0.1c-28.7,0-57.3,0.1-86,0.1
		c-1.7,0-3.3-0.1-5-0.2c-1.1-1.2-1.5-2.6-1.5-4.1c-0.1-7.6-0.3-15.2,0.1-22.8c0.2-2.7,0.9-5.2,3.4-6.8c0.3,0,0.7-0.1,1-0.1
		c2,0.6,4,0.3,6,0.3c79.8,0,159.6,0,239.4,0c7.1,0,7.1,0.3,8.5,7.4c1.4,7.6-1,15.3,0.4,22.9C450.5,445,449.8,446.1,449,447z"/>
	<path class="st2" d="M196.1,583.8c2.3-1.6,4.9-0.8,7.3-0.8c79.1,0,158.3,0,237.4,0c7,0,6.2-0.2,7.4-6.8c1.8-9.3,0.2-18.5,0.3-27.7
		c0.2-10.3,1.4-20.8-0.4-31.2c-0.5-3.2,1.2-6.7,0.7-9.8c-1.6-10.1,1.5-20.2-0.8-30.2c-0.5-2.1,0.2-4.3,0.7-6.4c0.9-3.8,0.2-6-4.8-6
		c-22.3,0.3-44.7,0.1-67,0.1c-1.3,0-2.7-0.1-4-0.1c1.2-1.3,2.8-0.8,4.2-0.8c27.8,0,55.7,0.1,83.5,0c4,0,5.1,1.1,5.1,5.1
		c-0.1,34.2,0,68.3-0.1,102.5c0,10.6-1.8,12.2-12.2,12.2c-84.1,0-168.3,0.1-252.4,0.1C199.4,584,197.7,583.9,196.1,583.8z"/>
	<path class="st3" d="M320.5,140c-14,0-28,0-42,0c-6.4,0-8.7-2.2-8.7-8.2c-0.1-6.2,2.4-8.8,8.8-8.8c28.1,0,56.3,0,84.4,0
		c6.3,0,9,2.8,8.9,8.8c-0.1,5.7-2.7,8.2-8.9,8.2C348.8,140,334.7,140,320.5,140z"/>
	<path class="st0" d="M321.8,464.7c9.3,0,18.7,0.3,28-0.1c4.9-0.2,6.1,1.6,5.5,5.9c-0.2,1.5,0,3-0.2,4.5c-0.5,4.1-3.2,6.2-7.1,6.2
		c-17.5,0.1-34.9,0.1-52.4,0c-4.8,0-7.2-3-7.4-7.7c-0.1-1.7,0.1-3.3-0.1-5c-0.4-3.1,0.8-4,3.9-3.9
		C301.8,464.8,311.8,464.7,321.8,464.7z"/>
	<path class="st1" d="M176.4,464.5c4.3,0.1,8.6,0.3,12.9,0.2c2.7-0.1,3.8,0.7,3.8,3.6c-0.1,14.5-0.1,29,0,43.4
		c0,2.8-0.9,3.7-3.7,3.7c-4.3-0.1-8.6,0.1-12.9,0.2C175.8,498.5,175.8,481.5,176.4,464.5z"/>
	<path class="st2" d="M449,447c-1.8-8.8,0.5-17.7-0.7-26.7c-0.7-4.9-2.1-6.4-7-6.4c-79.8,0.1-159.6,0.1-239.4,0.1
		c-1.9,0-4,0.7-5.8-0.7c25.6-0.1,51.3-0.2,76.9-0.2c56.1,0,112.2,0,168.3,0c5.3,0,10.7,0,16,0.1c5.5,0.2,7.7,2.1,8,7.5
		c0.4,7.8,0.2,15.6,0.4,23.5c0.1,2.4-0.9,3.3-3.2,3.2C458,447,453.5,447,449,447z"/>
	<path class="st1" d="M195.1,413.3c-3.3,7.2-1.7,14.9-2,22.4c-0.2,3.8,0,7.6,0,11.3c-5.5,0-12.3,2-16-0.6c-3.2-2.2-0.7-9.6-1-14.7
		c-0.1-3.5-0.1-7,0-10.5c0.2-5.4,2.6-7.9,8-8.1C187.8,413,191.4,413.2,195.1,413.3z"/>
	<path class="st4" d="M193,533c0,5.5,0,11.1,0,16.6c-1.3,0.1-2.6,0.2-4,0.2c-14.5,0.1-14.4,0.1-13.1-14.6c0.2-2,0.7-2.6,2.6-2.5
		C183.4,532.9,188.2,532.9,193,533z"/>
	<path class="st4" d="M193,567.1c0,5.6-0.5,11.3,2,16.7c-3.3,0.1-6.6,0.2-9.9,0.2c-6.7-0.1-8.9-2.5-9.1-9.1c-0.2-8-0.2-8,7.6-8
		C186.8,566.9,189.9,567,193,567.1z"/>
</g>
</svg>
