<?xml version="1.0" encoding="utf-8"?>
<!-- Generator: Adobe Illustrator 19.0.0, SVG Export Plug-In . SVG Version: 6.00 Build 0)  -->
<svg version="1.1" id="Calque_1" xmlns="http://www.w3.org/2000/svg" xmlns:xlink="http://www.w3.org/1999/xlink" x="0px" y="0px"
	 viewBox="0 0 612 792" style="enable-background:new 0 0 612 792;" xml:space="preserve">
<g>
	<path d="M493,411c0,39,0,78,0,117c-1.7,12.5-6.7,23.4-15.1,32.8c-10.9,12.1-24.3,19.2-40.4,21.5c-7.8,1.1-15.6,0.9-23.4,1
		c-2.9,0-5,0.6-5.9,3.9c-2.3,8.8-8,14.3-17.2,15.7c-3,0-6,0-9,0c-9.5-0.9-14.9-6.6-17.5-15.3c-1.2-4.1-4-4.3-7.3-4.3
		c-21.3,0-42.6,0-63.9,0c-16,0-31.9,0.1-47.9-0.1c-4.4-0.1-6.9,1.1-8.3,5.7c-2.6,8-8.2,13.1-17,13.9c-3,0-6,0-9,0
		c-9.2-1.5-14.9-6.9-17.2-15.7c-1-3.7-3.4-4-6.4-3.9c-10.8,0.2-21.6,0.2-32.1-2.9c-21.5-6.5-36.1-20.3-44.1-41.3
		c-1.4-3.6-0.9-7.5-2.3-11.1c0-39,0-78,0-117c1.9-1.7,4.3-1.5,6.6-1.5c31.1,0,62.3,0,93.4,0c7.4,0,8.3,1,8.4,8.4
		c0.1,4.8,0,9.7,0,14.5c0.1,23.1,17.6,40.9,40.7,41.1c28.5,0.2,57,0.2,85.4,0c23.2-0.2,40.7-18,40.7-41.1c0-5-0.1-10,0-15
		c0.1-6.7,1.2-7.8,7.9-7.8c21.8-0.1,43.6,0,65.5,0c9.5,0,19,0,28.5,0C488.7,409.5,491.1,409.3,493,411z"/>
	<path d="M489.2,321.2c-12.4-25.8-32.8-39.1-61.3-39.5c-18.3-0.3-36.6,0-54.9-0.1c-6.2,0-6.4-0.3-6.4-6.5c0-23.3,0-46.6,0-69.9
		c0-7.1,0-7.1,6.7-9.5c28.6-10.4,43.5-42.9,32.1-71c-7.8-19.4-21.9-31.3-43.3-33.6c-40.3,0-80.7,0-121,0c-2,1.2-4.2,0.4-6.3,0.8
		c-23,3.8-43.5,27.2-41.6,55.3c1.6,23.8,14.3,40.8,37.3,48.9c4,1.4,5.3,3.5,5.3,7.6c-0.1,23.8-0.1,47.6-0.1,71.4
		c0,6.3-0.2,6.5-6.4,6.5c-19,0-38-0.1-57,0c-13.7,0.1-26.3,4.2-37.3,12.3C120,304.8,110.6,319.2,109,338c0,10,0,20,0,30
		c2.9,2.3,6.4,1.6,9.6,1.6c99.6,0,199.2,0,298.8,0c22.5,0,45,0,67.5,0c2.8,0,5.7,0.4,8.1-1.6c0-9.7,0-19.3,0-29
		C492,333,491.9,326.9,489.2,321.2z M322.3,279.7c0,2.6-0.7,3.4-3.3,3.3c-12-0.1-24-0.2-35.9,0c-3.2,0.1-3.3-1.3-3.3-3.8
		c0.1-13,0-26,0-38.9c0-12.8,0.1-25.6-0.1-38.4c0-3.2,0.7-4.2,4.1-4.2c11.6,0.2,23.3,0.2,34.9,0c2.8,0,3.6,0.8,3.6,3.6
		C322.2,227.5,322.2,253.6,322.3,279.7z"/>
	<path d="M301,411c13,0,26,0.1,39-0.1c3.1,0,4,0.8,3.9,3.9c-0.3,4.3-0.4,8.7,0,13c0.4,4.1-1.4,4.5-4.9,4.5
		c-18.3-0.1-36.7-0.1-55-0.1c-7.3,0-14.7-0.2-22,0.1c-3.2,0.1-4-1-3.8-4c0.2-4.5,0.3-9,0-13.5c-0.2-3.1,0.7-4,3.9-3.9
		C275,411.1,288,411,301,411z"/>
</g>
</svg>
