<?xml version="1.0" encoding="utf-8"?>
<!-- Generator: Adobe Illustrator 19.0.0, SVG Export Plug-In . SVG Version: 6.00 Build 0)  -->
<svg version="1.1" id="Calque_1" xmlns="http://www.w3.org/2000/svg" xmlns:xlink="http://www.w3.org/1999/xlink" x="0px" y="0px"
	 viewBox="0 0 612 792" style="enable-background:new 0 0 612 792;" xml:space="preserve">
<g>
	<path d="M438,127c12.7,0,25.3,0,38,0c0.9,0.3,1.9,0.7,2.8,0.9c41.9,6.9,69,30.8,81.7,71.1c1.6,5.2,2.4,10.7,3.5,16c0,47,0,94,0,141
		c-3.1,9.2-7.3,17.7-16.4,22.1c-4.2,2.1-4.9,4.8-4.9,9c0.1,55.1,0.2,110.2,0,165.4c-0.1,40.7-26.5,74.5-65.2,84.1
		c-3.5,0.9-7,1.6-10.6,2.4c-6.3,0-12.7,0-19,0c-7.6-2.1-15.6-3.5-22.9-6.5c-32.8-13.2-53-44.3-53-80.9c-0.1-55.3,0-110.6,0.1-165.9
		c0-3.3-0.8-5.2-4-6.9c-11.1-6.1-17.2-15.7-17.2-28.4c-0.1-42.3-0.2-84.6,0-127c0.3-43.1,29.1-80.6,70.7-92.5
		C427,129.3,432.5,128.3,438,127z"/>
	<path d="M95,356c0-47,0-94,0-141c0.3-1.1,0.7-2.2,0.9-3.3c7.1-41.6,30.9-68.6,71.1-81.2c5.2-1.6,10.7-2.3,16-3.5
		c12.7,0,25.3,0,38,0c0.9,0.3,1.8,0.8,2.7,0.9c47.6,6.4,83.8,46.9,84.3,94.9c0.4,42.5,0.2,85,0.1,127.5c0,12.3-5.8,21.8-16.4,27.9
		c-3.7,2.1-4.9,4.2-4.9,8.4c0.2,55.3,0.1,110.6,0.1,165.9c0,40.2-26.3,74.2-64.9,83.9c-3.7,0.9-7.4,1.7-11.1,2.5c-6.3,0-12.7,0-19,0
		c-0.4-0.3-0.8-0.7-1.2-0.7c-47.5-9-74.4-41.3-74.5-89.8c-0.1-54.3,0-108.6-0.1-162.9c0-1.8-0.3-4.8-1.4-5.3
		C104.1,375.4,98.5,366.6,95,356z"/>
</g>
</svg>
